<?xml version="1.0" encoding="UTF-8" standalone="no"?>
<!-- Created with Inkscape (http://www.inkscape.org/) -->
<svg id="svg2" xmlns:rdf="http://www.w3.org/1999/02/22-rdf-syntax-ns#" xmlns="http://www.w3.org/2000/svg" height="184.91" width="600.28" version="1.1" xmlns:cc="http://creativecommons.org/ns#" xmlns:dc="http://purl.org/dc/elements/1.1/" viewBox="379 114 329.85696 93.064238">
 <metadata id="metadata70">
  <rdf:RDF>
   <cc:Work rdf:about="">
    <dc:format>image/svg+xml</dc:format>
    <dc:type rdf:resource="http://purl.org/dc/dcmitype/StillImage"/>
   </cc:Work>
  </rdf:RDF>
 </metadata>
 <path id="line4" d="m422.41 177.42 148.8-56.03" stroke="#bfbfbf" stroke-width="2" fill="none"/>
 <path id="path6" d="m402 188.34c118-98 168-98 268 2" stroke="#bfbfbf" stroke-dasharray="4" stroke-width="2" fill="none"/>
 <g id="g8" transform="translate(0 -9.6637)">
  <path id="line10" d="m400 220v-80.264" stroke="#000" stroke-width="2" fill="none"/>
  <path id="polygon12" d="m400 139.74-5 2.5 5-10 5 10z"/>
  <path id="polygon14" d="m400 139.74-5 2.5 5-10 5 10z" stroke="#000" stroke-width="2" fill="none"/>
 </g>
 <g id="g16" transform="translate(0 -9.6637)">
  <path id="line18" d="m380 200h310.26" stroke="#000" stroke-width="2" fill="none"/>
  <path id="polygon20" d="m690.26 200-2.5-5 10 5-10 5z"/>
  <path id="polygon22" d="m690.26 200-2.5-5 10 5-10 5z" stroke="#000" stroke-width="2" fill="none"/>
 </g>
 <g id="g24" transform="translate(0 -9.6637)">
  <path id="path26" d="m422 184c2 4-16 20-20 14s18-18 20-14z"/>
  <path id="path28" d="m422 184c2 4-16 20-20 14s18-18 20-14" stroke="#000" stroke-width="2" fill="none"/>
 </g>
 <g id="g30" transform="translate(0 -9.6637)">
  <path id="ellipse32" d="m420 196c0 1.1046-0.89543 2-2 2s-2-0.89543-2-2 0.89543-2 2-2 2 0.89543 2 2z"/>
  <path id="ellipse34" d="m420 196c0 1.1046-0.89543 2-2 2s-2-0.89543-2-2 0.89543-2 2-2 2 0.89543 2 2z" stroke="#000" stroke-width="2" fill="none"/>
 </g>
 <path id="path36" d="m400 186.34c-8 3 1.304-4-6-4" stroke="#000" stroke-width="2" fill="none"/>
 <g id="g38" transform="translate(0 -9.6637)">
  <path id="ellipse40" fill="#f00" d="m397 192c0 1.6568-1.3432 3-3 3s-3-1.3432-3-3 1.3432-3 3-3 3 1.3432 3 3z"/>
  <path id="ellipse42" d="m397 192c0 1.6568-1.3432 3-3 3s-3-1.3432-3-3 1.3432-3 3-3 3 1.3432 3 3z" stroke="#ffa500" stroke-width="2" fill="none"/>
 </g>
 <g id="g44" transform="translate(0 -9.6637)">
  <path id="ellipse46" d="m576 130c0 1.1046-0.89543 2-2 2s-2-0.89543-2-2 0.89543-2 2-2 2 0.89543 2 2z"/>
  <path id="ellipse48" d="m576 130c0 1.1046-0.89543 2-2 2s-2-0.89543-2-2 0.89543-2 2-2 2 0.89543 2 2z" stroke="#000" stroke-width="2" fill="none"/>
 </g>
 <path id="line50" d="m569 118.34-4-1" stroke="#000" fill="none"/>
 <path id="line52" d="m569 120.34-4.6-1.2" stroke="#000" fill="none"/>
 <g id="text54">
  <path id="path3029" style="" d="m700.85 185.16h1.4354l2.454 3.6711 2.4672-3.6711h1.4354l-3.175 4.7427 3.3867 5.1329h-1.4354l-2.7781-4.2003-2.798 4.2003h-1.442l3.5256-5.2718-3.0758-4.6038"/>
 </g>
 <g id="text58">
  <path id="path3032" style="" d="m400.35 117.82c-0.34396 0.88194-0.6791 1.4574-1.0054 1.7264-0.32632 0.26899-0.76288 0.40349-1.3097 0.40349h-0.97234v-1.0186h0.71437c0.33514 0 0.59532-0.0794 0.78053-0.23813 0.1852-0.15875 0.39026-0.53357 0.61516-1.1245l0.21828-0.55562-2.9964-7.2893h1.2898l2.3151 5.7944 2.3151-5.7944h1.2898l-3.2544 8.0963"/>
 </g>
 <g id="text62" fill="#bfbfbf">
  <path id="path3035" style="" d="m499.59 155.73c-0.1367-0.0794-0.28663-0.13669-0.44979-0.17198-0.15875-0.0397-0.33514-0.0595-0.52917-0.0595-0.68792 0.00001-1.2171 0.2249-1.5875 0.67469-0.36601 0.44539-0.54902 1.087-0.54901 1.9248v3.9026h-1.2237v-7.4084h1.2237v1.1509c0.25576-0.44979 0.58869-0.78272 0.9988-0.9988 0.4101-0.22048 0.9084-0.33073 1.4949-0.33073 0.0838 0 0.17639 0.007 0.27781 0.0198 0.10142 0.009 0.21387 0.0243 0.33735 0.0463l0.007 1.2502"/>
 </g>
</svg>
