<?xml version="1.0" encoding="UTF-8" standalone="no"?>
<!-- Created with Inkscape (http://www.inkscape.org/) -->
<svg id="svg2" xmlns:rdf="http://www.w3.org/1999/02/22-rdf-syntax-ns#" xmlns="http://www.w3.org/2000/svg" height="288.13" width="669.4" version="1.1" xmlns:cc="http://creativecommons.org/ns#" xmlns:dc="http://purl.org/dc/elements/1.1/" viewBox="172 108 366.90393 147.27532">
 <metadata id="metadata142">
  <rdf:RDF>
   <cc:Work rdf:about="">
    <dc:format>image/svg+xml</dc:format>
    <dc:type rdf:resource="http://purl.org/dc/dcmitype/StillImage"/>
   </cc:Work>
  </rdf:RDF>
 </metadata>
 <g id="g4" transform="translate(-2.0961 -8.5798)">
  <path id="path6" d="m240 210h30.264" stroke="#000" stroke-width="2" fill="none"/>
  <path id="polygon8" d="m270.26 210-2.5-5 10 5-10 5z"/>
  <path id="polygon10" d="m270.26 210-2.5-5 10 5-10 5z" stroke="#000" stroke-width="2" fill="none"/>
 </g>
 <g id="g12" transform="translate(-2.0961 -8.5798)">
  <path id="rect14" fill="#7babe3" d="m380 180h60v60h-60z"/>
  <path id="rect16" d="m380 180h60v60h-60z" stroke="#000" stroke-width="2" fill="none"/>
 </g>
 <g id="g18" transform="translate(-2.0961 -8.5798)">
  <path id="rect20" fill="#7babe3" d="m480 180h60v60h-60z"/>
  <path id="rect22" d="m480 180h60v60h-60z" stroke="#000" stroke-width="2" fill="none"/>
 </g>
 <g id="g24" transform="translate(-2.0961 -8.5798)">
  <path id="rect26" fill="#7be38e" d="m280 180h60v60h-60z"/>
  <path id="rect28" d="m280 180h60v60h-60z" stroke="#000" stroke-width="2" fill="none"/>
 </g>
 <g id="g30" transform="translate(-2.0961 -8.5798)">
  <path id="rect32" fill="#fdfd04" d="m220 200h20v20h-20z"/>
  <path id="rect34" d="m220 200h20v20h-20z" stroke="#000" stroke-width="2" fill="none"/>
 </g>
 <g id="g36" transform="translate(-2.0961 -8.5798)">
  <path id="path38" d="m440 240c40 0 0-30 30.264-30" stroke="#000" stroke-width="2" fill="none"/>
  <path id="polygon40" d="m470.26 210-2.5-5 10 5-10 5z"/>
  <path id="polygon42" d="m470.26 210-2.5-5 10 5-10 5z" stroke="#000" stroke-width="2" fill="none"/>
 </g>
 <g id="text44">
  <path id="path3062" style="" d="m501.65 199.04v-6.0127h1.8256v15.438h-1.8256v-1.6669c-0.38366 0.66146-0.86983 1.1542-1.4585 1.4784-0.58209 0.3175-1.2832 0.47625-2.1034 0.47625-1.3428 0-2.4375-0.53578-3.2841-1.6073-0.84006-1.0716-1.2601-2.4805-1.2601-4.2267s0.42002-3.1552 1.2601-4.2267c0.84666-1.0716 1.9414-1.6073 3.2841-1.6073 0.8202 0.00001 1.5213 0.16207 2.1034 0.48617 0.58869 0.31751 1.0749 0.80699 1.4585 1.4684m-6.221 3.8794c0 1.3428 0.27451 2.3978 0.82352 3.1651 0.55562 0.76068 1.3163 1.141 2.282 1.141 0.96572 0.00001 1.7264-0.38033 2.282-1.141 0.55562-0.76729 0.83343-1.8223 0.83344-3.1651-0.00001-1.3428-0.27782-2.3945-0.83344-3.1552-0.55563-0.76728-1.3163-1.1509-2.282-1.1509-0.96573 0.00001-1.7264 0.38365-2.282 1.1509-0.54901 0.76069-0.82352 1.8124-0.82352 3.1552"/>
  <path id="path3064" style="" d="m507.24 197.36h1.8256v11.112h-1.8256v-11.112m0-4.3259h1.8256v2.3118h-1.8256v-2.3118"/>
  <path id="path3066" style="" d="m517.18 198.64c-0.97896 0.00001-1.7529 0.38366-2.3217 1.1509-0.56885 0.76068-0.85328 1.8058-0.85328 3.1353s0.28112 2.378 0.84336 3.1452c0.56885 0.76067 1.3461 1.141 2.3316 1.141 0.97234 0 1.7429-0.38364 2.3118-1.1509 0.56884-0.76728 0.85327-1.8124 0.85328-3.1353-0.00001-1.3163-0.28444-2.3581-0.85328-3.1254-0.56886-0.7739-1.3395-1.1608-2.3118-1.1609m0-1.5478c1.5875 0.00001 2.8343 0.51595 3.7406 1.5478 0.90619 1.0319 1.3593 2.4606 1.3593 4.2862-0.00002 1.819-0.45311 3.2478-1.3593 4.2862-0.90621 1.0319-2.1531 1.5478-3.7406 1.5478-1.5941 0-2.8443-0.51593-3.7505-1.5478-0.89958-1.0385-1.3494-2.4672-1.3494-4.2862 0-1.8256 0.44979-3.2544 1.3494-4.2862 0.9062-1.0319 2.1564-1.5478 3.7505-1.5478m1.3791-4.8716h1.9745l-3.2345 3.7306h-1.518l2.7781-3.7306"/>
 </g>
 <g id="text48">
  <path id="path3069" style="" d="m383.58 193.03h1.8356v9.1182l5.4471-4.7923h2.3316l-5.8936 5.1991 6.1416 5.9134h-2.3812l-5.6456-5.4273v5.4273h-1.8356v-15.438"/>
  <path id="path3071" style="" d="m399.02 198.64c-0.97896 0.00001-1.7529 0.38366-2.3217 1.1509-0.56886 0.76068-0.85328 1.8058-0.85328 3.1353s0.28112 2.378 0.84336 3.1452c0.56885 0.76067 1.3461 1.141 2.3316 1.141 0.97234 0 1.7429-0.38364 2.3118-1.1509 0.56884-0.76728 0.85327-1.8124 0.85328-3.1353-0.00001-1.3163-0.28444-2.3581-0.85328-3.1254-0.56886-0.7739-1.3395-1.1608-2.3118-1.1609m0-1.5478c1.5875 0.00001 2.8343 0.51595 3.7406 1.5478 0.90618 1.0319 1.3593 2.4606 1.3593 4.2862-0.00001 1.819-0.45311 3.2478-1.3593 4.2862-0.90621 1.0319-2.1531 1.5478-3.7406 1.5478-1.5941 0-2.8443-0.51593-3.7505-1.5478-0.89958-1.0385-1.3494-2.4672-1.3494-4.2862 0-1.8256 0.44979-3.2544 1.3494-4.2862 0.9062-1.0319 2.1564-1.5478 3.7505-1.5478m0.93266-4.0184h2.0141v2.0042h-2.0141v-2.0042m-3.8795 0h2.0141v2.0042h-2.0141v-2.0042"/>
  <path id="path3073" style="" d="m413.57 199.06c-0.20506-0.11905-0.42996-0.20504-0.67469-0.25797-0.23813-0.0595-0.50271-0.0893-0.79375-0.0893-1.0319 0.00001-1.8256 0.33735-2.3812 1.012-0.54901 0.66808-0.82352 1.6305-0.82351 2.8873v5.8539h-1.8356v-11.112h1.8356v1.7264c0.38364-0.67468 0.88304-1.1741 1.4982-1.4982 0.61515-0.33072 1.3626-0.49608 2.2423-0.49609 0.12567 0.00001 0.26458 0.01 0.41672 0.0298 0.15213 0.0132 0.3208 0.0364 0.50602 0.0695l0.01 1.8752"/>
  <path id="path3075" style="" d="m417.31 194.2v3.1552h3.7604v1.4188h-3.7604v6.0325c-0.00001 0.9062 0.12236 1.4883 0.36711 1.7462 0.25135 0.25797 0.75736 0.38695 1.518 0.38695h1.8752v1.528h-1.8752c-1.4089 0-2.3812-0.26128-2.917-0.78383-0.53578-0.52916-0.80367-1.4883-0.80367-2.8773v-6.0325h-1.3394v-1.4188h1.3394v-3.1552h1.8356"/>
  <path id="path3077" style="" d="m432.99 202.46v0.89297h-8.3939c0.0794 1.2568 0.45641 2.2159 1.1311 2.8774 0.68129 0.65484 1.6272 0.98226 2.8376 0.98226 0.70114 0 1.3791-0.086 2.034-0.25797 0.66145-0.17198 1.3163-0.42994 1.9645-0.7739v1.7264c-0.65485 0.27781-1.3262 0.48948-2.0141 0.635-0.68793 0.14552-1.3858 0.21828-2.0935 0.21828-1.7727 0-3.1783-0.51593-4.2168-1.5478-1.0319-1.0319-1.5478-2.4276-1.5478-4.187 0-1.819 0.48948-3.261 1.4684-4.3259 0.98557-1.0716 2.3118-1.6073 3.9787-1.6073 1.4949 0.00001 2.6756 0.48287 3.5421 1.4486 0.87312 0.95913 1.3097 2.2655 1.3097 3.9191m-1.8256-0.53578c-0.0132-0.99879-0.29435-1.7958-0.84335-2.3912-0.54241-0.5953-1.2634-0.89296-2.163-0.89297-1.0186 0.00001-1.8356 0.28775-2.4507 0.8632-0.60854 0.57548-0.95911 1.3858-1.0517 2.4309l6.5088-0.01"/>
 </g>
 <g id="text52">
  <path id="path3080" style="" d="m289.69 202.88c-1.4751 0.00001-2.497 0.16868-3.0659 0.50602-0.56886 0.33735-0.85329 0.91282-0.85328 1.7264-0.00001 0.64823 0.21166 1.1642 0.635 1.5478 0.42994 0.37703 1.012 0.56555 1.7462 0.56554 1.012 0.00001 1.8223-0.35718 2.4309-1.0716 0.61514-0.72098 0.92272-1.6768 0.92273-2.8674v-0.4068h-1.8157m3.6413-0.75406v6.3401h-1.8256v-1.6867c-0.41673 0.67469-0.93597 1.1741-1.5577 1.4982-0.62178 0.3175-1.3825 0.47625-2.282 0.47625-1.1377 0-2.0439-0.3175-2.7186-0.9525-0.66807-0.64161-1.0021-1.4982-1.0021-2.5698 0-1.2502 0.41672-2.1927 1.2502-2.8277 0.84005-0.63499 2.0902-0.95249 3.7505-0.9525h2.5598v-0.17859c-0.00001-0.84004-0.27782-1.4883-0.83344-1.9447-0.54901-0.46301-1.3229-0.69452-2.3217-0.69453-0.635 0.00001-1.2535 0.0761-1.8554 0.2282-0.60193 0.15215-1.1807 0.38035-1.7363 0.68461v-1.6867c0.66807-0.25795 1.3163-0.44978 1.9447-0.57546 0.62838-0.13228 1.2402-0.19843 1.8356-0.19844 1.6073 0.00001 2.8079 0.41673 3.6016 1.2502 0.79374 0.83345 1.1906 2.0968 1.1906 3.7902"/>
  <path id="path3082" style="" d="m297.1 193.03h1.8256v15.438h-1.8256v-15.438"/>
  <path id="path3084" style="" d="m311.39 199.49c0.45639-0.8202 1.0021-1.4254 1.6371-1.8157 0.63498-0.39025 1.3824-0.58538 2.2423-0.58539 1.1575 0.00001 2.0505 0.40681 2.6789 1.2204 0.62837 0.80699 0.94256 1.9579 0.94258 3.4528v6.7072h-1.8356v-6.6477c-0.00002-1.0649-0.18853-1.8554-0.56555-2.3713-0.37704-0.51592-0.95251-0.77389-1.7264-0.7739-0.9459 0.00001-1.6934 0.3142-2.2424 0.94258-0.54902 0.62839-0.82352 1.485-0.82351 2.5698v6.2806h-1.8356v-6.6477c-0.00001-1.0716-0.18852-1.862-0.56555-2.3713-0.37704-0.51592-0.95912-0.77389-1.7462-0.7739-0.93266 0.00001-1.6735 0.31751-2.2225 0.9525-0.54901 0.62839-0.82352 1.4817-0.82351 2.5598v6.2806h-1.8356v-11.112h1.8356v1.7264c0.41671-0.6813 0.91611-1.184 1.4982-1.5081 0.58208-0.3241 1.2733-0.48616 2.0737-0.48617 0.80697 0.00001 1.4916 0.20506 2.0538 0.61515 0.56884 0.41012 0.98887 1.0054 1.2601 1.7859"/>
  <path id="path3086" style="" d="m327.59 202.88c-1.4751 0.00001-2.497 0.16868-3.0659 0.50602-0.56886 0.33735-0.85328 0.91282-0.85328 1.7264 0 0.64823 0.21166 1.1642 0.635 1.5478 0.42994 0.37703 1.012 0.56555 1.7462 0.56554 1.012 0.00001 1.8223-0.35718 2.4309-1.0716 0.61515-0.72098 0.92272-1.6768 0.92273-2.8674v-0.4068h-1.8157m3.6413-0.75406v6.3401h-1.8256v-1.6867c-0.41672 0.67469-0.93597 1.1741-1.5577 1.4982-0.62178 0.3175-1.3825 0.47625-2.282 0.47625-1.1377 0-2.0439-0.3175-2.7186-0.9525-0.66807-0.64161-1.0021-1.4982-1.0021-2.5698 0-1.2502 0.41672-2.1927 1.2502-2.8277 0.84005-0.63499 2.0902-0.95249 3.7505-0.9525h2.5598v-0.17859c-0.00001-0.84004-0.27782-1.4883-0.83343-1.9447-0.54902-0.46301-1.3229-0.69452-2.3217-0.69453-0.63501 0.00001-1.2535 0.0761-1.8554 0.2282-0.60193 0.15215-1.1807 0.38035-1.7363 0.68461v-1.6867c0.66807-0.25795 1.3163-0.44978 1.9447-0.57546 0.62838-0.13228 1.2402-0.19843 1.8355-0.19844 1.6073 0.00001 2.8079 0.41673 3.6016 1.2502 0.79374 0.83345 1.1906 2.0968 1.1906 3.7902"/>
 </g>
 <g id="text56" fill="#173b8f">
  <path id="path3089" style="" d="m337.89 123.41c-0.78787 1.3523-1.3729 2.6899-1.7551 4.0128-0.38218 1.3229-0.57327 2.6635-0.57327 4.0217s0.19109 2.7046 0.57327 4.0393c0.38805 1.3288 0.97307 2.6664 1.7551 4.0128h-1.4111c-0.88195-1.3817-1.5434-2.7399-1.9844-4.0746-0.43509-1.3347-0.65264-2.6605-0.65264-3.9776 0-1.3112 0.21755-2.6311 0.65264-3.9599s1.0966-2.687 1.9844-4.0746h1.4111"/>
  <path id="path3091" style="" d="m341.59 135.62h2.9104v-10.045l-3.1662 0.635v-1.6228l3.1485-0.635h1.7815v11.668h2.9104v1.4993h-7.5847v-1.4993"/>
  <path id="path3093" style="" d="m352.29 123.41h1.4111c0.88194 1.3876 1.5405 2.7458 1.9756 4.0746 0.44097 1.3288 0.66146 2.6488 0.66146 3.9599 0 1.317-0.22049 2.6429-0.66146 3.9776-0.43509 1.3347-1.0936 2.6929-1.9756 4.0746h-1.4111c0.78199-1.3464 1.3641-2.684 1.7462-4.0128 0.38805-1.3347 0.58208-2.6811 0.58208-4.0393s-0.19403-2.6987-0.58208-4.0217c-0.38218-1.3229-0.96426-2.6605-1.7462-4.0128"/>
 </g>
 <g id="g60" transform="translate(-2.0961 -8.5798)">
  <path id="path62" d="m340 240c40 0 0-30 30.264-30" stroke="#000" stroke-width="2" fill="none"/>
  <path id="polygon64" d="m370.26 210-2.5-5 10 5-10 5z"/>
  <path id="polygon66" d="m370.26 210-2.5-5 10 5-10 5z" stroke="#000" stroke-width="2" fill="none"/>
 </g>
 <g id="text68">
  <path id="path3098" style="" d="m172 193.95h1.6228v13.723h-1.6228v-13.723"/>
  <path id="path3100" style="" d="m177.01 197.79h1.6228v9.8778h-1.6228v-9.8778m0-3.8453h1.6228v2.0549h-1.6228v-2.0549"/>
  <path id="path3102" style="" d="m188.32 198.08v1.5346c-0.45862-0.23517-0.93486-0.41156-1.4288-0.52916-0.49389-0.11759-1.0054-0.17638-1.5346-0.17639-0.80551 0.00001-1.4111 0.12348-1.8168 0.37041-0.39982 0.24696-0.59972 0.61737-0.59972 1.1112 0 0.37631 0.14405 0.67323 0.43215 0.89077 0.2881 0.21167 0.86724 0.41452 1.7374 0.60854l0.55562 0.12347c1.1524 0.24695 1.9697 0.59679 2.4518 1.0495 0.488 0.44686 0.732 1.073 0.73201 1.8785-0.00001 0.91722-0.36455 1.6434-1.0936 2.1784-0.7232 0.53505-1.7198 0.80257-2.9898 0.80257-0.52917 0-1.0818-0.0529-1.658-0.15875-0.57033-0.1-1.173-0.25282-1.808-0.45861v-1.6757c0.59972 0.31162 1.1906 0.5468 1.7727 0.70555 0.58208 0.15287 1.1583 0.22931 1.7286 0.22931 0.76434 0 1.3523-0.12935 1.7639-0.38806 0.41156-0.26458 0.61735-0.635 0.61736-1.1112-0.00001-0.44097-0.14994-0.77904-0.4498-1.0142-0.29398-0.23518-0.94368-0.46155-1.9491-0.6791l-0.56444-0.13229c-1.0054-0.21166-1.7316-0.53504-2.1784-0.97014-0.44686-0.44096-0.67028-1.0436-0.67028-1.808 0-0.92897 0.32926-1.6463 0.98778-2.1519 0.65851-0.50564 1.5934-0.75846 2.8046-0.75847 0.59971 0.00001 1.1642 0.0441 1.6933 0.13229 0.52916 0.0882 1.0172 0.22049 1.464 0.39687"/>
  <path id="path3104" style="" d="m193.04 194.99v2.8046h3.3426v1.2612h-3.3426v5.3622c0 0.80552 0.10877 1.3229 0.32632 1.5522 0.22342 0.2293 0.67321 0.34395 1.3494 0.34395h1.6669v1.3582h-1.6669c-1.2524 0-2.1167-0.23225-2.5929-0.69674-0.47625-0.47037-0.71438-1.3229-0.71438-2.5576v-5.3622h-1.1906v-1.2612h1.1906v-2.8046h1.6316"/>
  <path id="path3106" style="" d="m203.02 202.7c-1.3112 0.00001-2.2196 0.14994-2.7252 0.4498-0.50565 0.29986-0.75847 0.81139-0.75847 1.5346 0 0.5762 0.18815 1.0348 0.56445 1.3758 0.38217 0.33514 0.89957 0.50271 1.5522 0.50271 0.89957 0 1.6198-0.3175 2.1608-0.9525 0.54679-0.64088 0.8202-1.4905 0.8202-2.5488v-0.3616h-1.614m3.2367-0.67027v5.6356h-1.6228v-1.4993c-0.37042 0.59972-0.83197 1.0436-1.3846 1.3317-0.55269 0.28222-1.2288 0.42333-2.0285 0.42333-1.0113 0-1.8168-0.28222-2.4165-0.84667-0.59384-0.57032-0.89077-1.3317-0.89076-2.2842-0.00001-1.1112 0.37041-1.9491 1.1112-2.5135 0.74671-0.56444 1.858-0.84666 3.3338-0.84666h2.2754v-0.15875c0-0.74671-0.24695-1.3229-0.74083-1.7286-0.48801-0.41157-1.1759-0.61735-2.0638-0.61736-0.56444 0.00001-1.1142 0.0676-1.6492 0.20284-0.53505 0.13524-1.0495 0.33809-1.5434 0.60854v-1.4993c0.59384-0.22929 1.17-0.3998 1.7286-0.51153 0.55856-0.11758 1.1024-0.17637 1.6316-0.17638 1.4288 0.00001 2.4959 0.37042 3.2015 1.1112 0.70554 0.74084 1.0583 1.8638 1.0583 3.369"/>
 </g>
 <g id="g72" transform="translate(-2.0961 -8.5798)">
  <path id="line74" d="m310 150v20.264" stroke="#000" stroke-width="2" fill="none"/>
  <path id="polygon76" d="m310 170.26 5-2.5-5 10-5-10z"/>
  <path id="polygon78" d="m310 170.26 5-2.5-5 10-5-10z" stroke="#000" stroke-width="2" fill="none"/>
 </g>
 <g id="text80">
  <path id="path3112" style="" d="m273.38 104.44v2.8046h3.3426v1.2612h-3.3426v5.3622c-0.00001 0.80551 0.10877 1.3229 0.32632 1.5522 0.22342 0.22931 0.67321 0.34396 1.3494 0.34396h1.6669v1.3582h-1.6669c-1.2524 0-2.1167-0.23224-2.5929-0.69673-0.47626-0.47037-0.71438-1.3229-0.71438-2.5576v-5.3622h-1.1906v-1.2612h1.1906v-2.8046h1.6316"/>
  <path id="path3114" style="" d="m282.69 108.38c-0.87019 0.00001-1.5581 0.34103-2.0638 1.0231-0.50565 0.67616-0.75847 1.6051-0.75847 2.7869s0.24988 2.1137 0.74965 2.7958c0.50565 0.67616 1.1965 1.0142 2.0726 1.0142 0.8643 0.00001 1.5493-0.34101 2.0549-1.023 0.50564-0.68203 0.75846-1.611 0.75847-2.7869-0.00001-1.17-0.25283-2.0961-0.75847-2.7781-0.50566-0.68791-1.1906-1.0319-2.0549-1.0319m0-1.3758c1.4111 0.00001 2.5194 0.45862 3.3249 1.3758 0.80549 0.91723 1.2082 2.1872 1.2083 3.81-0.00001 1.6169-0.40277 2.8869-1.2083 3.81-0.80552 0.91723-1.9138 1.3758-3.3249 1.3758-1.417 0-2.5282-0.45861-3.3338-1.3758-0.79963-0.92309-1.1994-2.1931-1.1994-3.81 0-1.6228 0.39981-2.8928 1.1994-3.81 0.80551-0.91721 1.9168-1.3758 3.3338-1.3758m0.82903-3.5719h1.7903v1.7815h-1.7903v-1.7815m-3.4484 0h1.7903v1.7815h-1.7903v-1.7815"/>
  <path id="path3116" style="" d="m295.63 108.76c-0.18228-0.10583-0.38219-0.18226-0.59972-0.22931-0.21168-0.0529-0.44686-0.0794-0.70556-0.0794-0.91723 0.00001-1.6228 0.29987-2.1167 0.89958-0.48802 0.59385-0.73202 1.4493-0.73202 2.5665v5.2035h-1.6316v-9.8778h1.6316v1.5346c0.34102-0.59971 0.78493-1.0436 1.3317-1.3317 0.5468-0.29397 1.2112-0.44096 1.9932-0.44097 0.11171 0.00001 0.23518 0.009 0.37042 0.0265 0.13522 0.0118 0.28515 0.0323 0.44979 0.0617l0.009 1.6669"/>
  <path id="path3118" style="" d="m297.35 103.4h1.6228v13.723h-1.6228v-13.723"/>
  <path id="path3120" style="" d="m310.81 111.78v0.79375h-7.4612c0.0706 1.1171 0.40569 1.9697 1.0054 2.5576 0.60559 0.58208 1.4464 0.87313 2.5224 0.87312 0.62323 0.00001 1.2259-0.0764 1.808-0.2293 0.58795-0.15287 1.17-0.38217 1.7462-0.68792v1.5346c-0.58209 0.24694-1.1789 0.43509-1.7904 0.56444-0.61149 0.12935-1.2318 0.19403-1.8609 0.19403-1.5757 0-2.8252-0.45861-3.7483-1.3758-0.91722-0.91721-1.3758-2.1578-1.3758-3.7218 0-1.6169 0.43509-2.8986 1.3053-3.8453 0.87606-0.95249 2.0549-1.4287 3.5366-1.4288 1.3288 0.00001 2.3783 0.42922 3.1485 1.2876 0.7761 0.85255 1.1642 2.0138 1.1642 3.4837m-1.6228-0.47625c-0.0118-0.88782-0.26165-1.5963-0.74965-2.1255-0.48214-0.52915-1.123-0.79374-1.9226-0.79375-0.90547 0.00001-1.6316 0.25578-2.1784 0.76729-0.54093 0.51154-0.85255 1.2318-0.93486 2.1608l5.7856-0.009"/>
  <path id="path3122" style="" d="m321.68 111.16v5.9619h-1.6228v-5.909c-0.00001-0.93485-0.18228-1.6345-0.5468-2.099-0.36455-0.46448-0.91135-0.69673-1.6404-0.69674-0.87607 0.00001-1.5669 0.27929-2.0726 0.83785-0.50565 0.55857-0.75847 1.32-0.75847 2.2842v5.5827h-1.6316v-9.8778h1.6316v1.5346c0.38805-0.59383 0.84372-1.0378 1.367-1.3317 0.52916-0.29397 1.1377-0.44096 1.8256-0.44097 1.1348 0.00001 1.9932 0.35279 2.5753 1.0583 0.58208 0.69969 0.87312 1.7316 0.87313 3.0956"/>
  <path id="path3124" style="" d="m331.43 108.74v-5.3446h1.6228v13.723h-1.6228v-1.4817c-0.34103 0.58796-0.77318 1.026-1.2965 1.3141-0.51741 0.28223-1.1406 0.42334-1.8697 0.42334-1.1936 0-2.1666-0.47625-2.9192-1.4288-0.74671-0.9525-1.1201-2.2049-1.1201-3.7571s0.37336-2.8046 1.1201-3.7571c0.75259-0.95249 1.7257-1.4287 2.9192-1.4288 0.72907 0.00001 1.3523 0.14406 1.8697 0.43215 0.52328 0.28224 0.95543 0.71733 1.2965 1.3053m-5.5298 3.4484c0 1.1936 0.24401 2.1314 0.73202 2.8134 0.49388 0.67616 1.17 1.0142 2.0285 1.0142 0.85842 0 1.5346-0.33807 2.0285-1.0142 0.49388-0.68203 0.74082-1.6198 0.74083-2.8134-0.00001-1.1936-0.24695-2.1284-0.74083-2.8046-0.4939-0.68203-1.17-1.023-2.0285-1.023-0.85843 0-1.5346 0.34102-2.0285 1.023-0.48801 0.67616-0.73202 1.611-0.73202 2.8046"/>
  <path id="path3126" style="" d="m342.85 102.67h1.5699l-2.1872 3.3161h-1.1906l1.808-3.3161m-2.9457 0h1.4993l-1.9667 3.3161h-1.2083l1.6757-3.3161m0.32632 5.7062c-0.87019 0.00001-1.5581 0.34103-2.0638 1.0231-0.50565 0.67616-0.75847 1.6051-0.75847 2.7869s0.24988 2.1137 0.74965 2.7958c0.50565 0.67616 1.1965 1.0142 2.0726 1.0142 0.8643 0.00001 1.5493-0.34101 2.0549-1.023 0.50564-0.68203 0.75846-1.611 0.75847-2.7869-0.00001-1.17-0.25283-2.0961-0.75847-2.7781-0.50566-0.68791-1.1906-1.0319-2.0549-1.0319m0-1.3758c1.4111 0.00001 2.5194 0.45862 3.3249 1.3758 0.80549 0.91723 1.2082 2.1872 1.2083 3.81-0.00001 1.6169-0.40277 2.8869-1.2083 3.81-0.80552 0.91723-1.9138 1.3758-3.3249 1.3758-1.417 0-2.5282-0.45861-3.3338-1.3758-0.79963-0.92309-1.1994-2.1931-1.1994-3.81 0-1.6228 0.39981-2.8928 1.1994-3.81 0.80551-0.91721 1.9168-1.3758 3.3338-1.3758"/>
 </g>
 <g id="g84" stroke="#f62e2e" stroke-width="2" fill="none" transform="translate(-2.0961 -8.5798)">
  <path id="line86" d="m252 205 10 10"/>
  <path id="line88" d="m252 215 10-10"/>
 </g>
 <g id="text90" fill="#173b8f">
  <path id="path3131" style="" d="m237.89 153.41c-0.78787 1.3523-1.3729 2.6899-1.7551 4.0128-0.38218 1.3229-0.57327 2.6635-0.57327 4.0217s0.19109 2.7046 0.57327 4.0393c0.38805 1.3288 0.97307 2.6664 1.7551 4.0128h-1.4111c-0.88195-1.3817-1.5434-2.7399-1.9844-4.0746-0.43509-1.3347-0.65264-2.6605-0.65264-3.9776 0-1.3112 0.21755-2.6311 0.65264-3.9599s1.0966-2.687 1.9844-4.0746h1.4111"/>
  <path id="path3133" style="" d="m242.81 165.62h6.2177v1.4993h-8.3608v-1.4993c0.67615-0.69967 1.5963-1.6375 2.7605-2.8134 1.17-1.1818 1.905-1.9432 2.2049-2.2842 0.57031-0.64088 0.96719-1.1818 1.1906-1.6228 0.2293-0.44684 0.34395-0.88487 0.34396-1.3141-0.00001-0.69966-0.24695-1.27-0.74083-1.711-0.48802-0.44096-1.126-0.66144-1.9138-0.66145-0.55857 0.00001-1.1495 0.097-1.7727 0.29104-0.61736 0.19404-1.2788 0.48802-1.9844 0.88194v-1.7992c0.71731-0.28809 1.3876-0.50564 2.0108-0.65264 0.62324-0.14698 1.1936-0.22047 1.711-0.22049 1.3641 0.00002 2.4518 0.34103 3.2632 1.0231 0.81138 0.68205 1.2171 1.5934 1.2171 2.734-0.00001 0.54094-0.1029 1.0554-0.30868 1.5434-0.19991 0.48214-0.56739 1.0525-1.1024 1.711-0.14699 0.17052-0.61442 0.66441-1.4023 1.4817-0.78787 0.81139-1.8991 1.9491-3.3337 3.4131"/>
  <path id="path3135" style="" d="m252.29 153.41h1.4111c0.88194 1.3876 1.5405 2.7458 1.9756 4.0746 0.44097 1.3288 0.66146 2.6488 0.66146 3.9599 0 1.317-0.22049 2.6429-0.66146 3.9776-0.43509 1.3347-1.0936 2.6929-1.9756 4.0746h-1.4111c0.78199-1.3464 1.3641-2.684 1.7462-4.0128 0.38805-1.3347 0.58208-2.6811 0.58208-4.0393s-0.19403-2.6987-0.58208-4.0217c-0.38218-1.3229-0.96426-2.6605-1.7462-4.0128"/>
 </g>
 <g id="text94" fill="#173b8f">
  <path id="path3138" style="" d="m300.7 244.51c-0.78787 1.3523-1.3729 2.6899-1.7551 4.0128-0.38218 1.3229-0.57327 2.6635-0.57327 4.0217s0.19109 2.7046 0.57327 4.0393c0.38805 1.3288 0.97307 2.6664 1.7551 4.0128h-1.4111c-0.88194-1.3817-1.5434-2.7399-1.9844-4.0746-0.43509-1.3347-0.65264-2.6605-0.65264-3.9776 0-1.3112 0.21755-2.6311 0.65264-3.9599s1.0966-2.687 1.9844-4.0746h1.4111"/>
  <path id="path3140" style="" d="m309.48 251.12c0.85254 0.18227 1.5169 0.56151 1.9932 1.1377 0.48212 0.5762 0.72318 1.2876 0.72319 2.1343-0.00001 1.2994-0.44686 2.3048-1.3406 3.0162-0.89371 0.71143-2.1637 1.0672-3.81 1.0672-0.55269 0-1.123-0.0559-1.711-0.16757-0.58209-0.10584-1.1848-0.26752-1.808-0.48507v-1.7198c0.49389 0.2881 1.0348 0.50565 1.6228 0.65264 0.58796 0.14699 1.2024 0.22048 1.8433 0.22048 1.1171 0 1.9667-0.22048 2.5488-0.66145 0.58796-0.44097 0.88194-1.0818 0.88195-1.9226-0.00001-0.77611-0.27341-1.3817-0.82021-1.8168-0.54093-0.44097-1.2965-0.66146-2.2666-0.66146h-1.5346v-1.464h1.6051c0.87606 0.00001 1.5463-0.17344 2.0108-0.52034 0.46449-0.35277 0.69673-0.85842 0.69674-1.517-0.00001-0.67614-0.24107-1.1936-0.7232-1.5522-0.47625-0.36452-1.1612-0.54679-2.0549-0.5468-0.48802 0.00001-1.0113 0.0529-1.5699 0.15875-0.55857 0.10584-1.173 0.27047-1.8433 0.49389v-1.5875c0.67615-0.18814 1.3082-0.32925 1.8962-0.42333 0.59384-0.0941 1.1524-0.1411 1.6757-0.14112 1.3523 0.00002 2.4224 0.3087 3.2103 0.92604 0.78786 0.6115 1.1818 1.4405 1.1818 2.4871-0.00001 0.72908-0.20873 1.3464-0.62618 1.8521-0.41746 0.49977-1.0113 0.84667-1.7815 1.0407"/>
  <path id="path3142" style="" d="m315.1 244.51h1.4111c0.88194 1.3876 1.5404 2.7458 1.9756 4.0746 0.44097 1.3288 0.66145 2.6488 0.66146 3.9599-0.00001 1.317-0.22049 2.6429-0.66146 3.9776-0.4351 1.3347-1.0936 2.6929-1.9756 4.0746h-1.4111c0.78199-1.3464 1.3641-2.684 1.7462-4.0128 0.38805-1.3347 0.58208-2.6811 0.58208-4.0393s-0.19403-2.6987-0.58208-4.0217c-0.38218-1.3229-0.96426-2.6605-1.7462-4.0128"/>
 </g>
 <g id="g98" transform="translate(-2.0961 -8.5798)">
  <path id="rect100" fill="#fdfd04" d="m300 130h20v20h-20z"/>
  <path id="rect102" d="m300 130h20v20h-20z" stroke="#000" stroke-width="2" fill="none"/>
 </g>
 <g id="g104" transform="translate(-2.0961 -8.5798)">
  <path id="rect106" fill="#fdfd04" d="m280 230h60v20h-60z"/>
  <path id="rect108" d="m280 230h60v20h-60z" stroke="#000" stroke-width="2" fill="none"/>
 </g>
 <g id="g110" transform="translate(-2.0961 -8.5798)">
  <path id="rect112" fill="#fdfd04" d="m380 230h60v20h-60z"/>
  <path id="rect114" d="m380 230h60v20h-60z" stroke="#000" stroke-width="2" fill="none"/>
 </g>
 <g id="g116" transform="translate(-2.0961 -8.5798)">
  <path id="rect118" fill="#fdfd04" d="m480 230h60v20h-60z"/>
  <path id="rect120" d="m480 230h60v20h-60z" stroke="#000" stroke-width="2" fill="none"/>
 </g>
 <path id="line122" d="m477.9 241.42 60-20" stroke="#000" stroke-width="2" fill="none"/>
 <path id="line124" d="m477.9 221.42 60 20" stroke="#000" stroke-width="2" fill="none"/>
 <path id="line126" d="m277.9 161.42 60 90" stroke="#f62e2e" stroke-width="2" fill="none"/>
 <path id="line128" d="m277.9 251.42 60-90" stroke="#f62e2e" stroke-width="2" fill="none"/>
 <g id="g130" transform="translate(-2.0961 -8.5798)">
  <path id="path132" d="m240 210c30-30 10-50 70-50s39 20 63.004 43.229" stroke="#f62e2e" stroke-width="2" fill="none"/>
  <path id="polygon134" fill="#f62e2e" d="m373 203.23 1.68-5.331 3.709 10.547-10.663-3.361z"/>
  <path id="polygon136" d="m373 203.23 1.68-5.331 3.709 10.547-10.663-3.361z" stroke="#f62e2e" stroke-width="2" fill="none"/>
 </g>
</svg>
