<?xml version="1.0" encoding="UTF-8" standalone="no"?>
<!-- Created with Inkscape (http://www.inkscape.org/) -->
<svg id="svg2" xmlns:rdf="http://www.w3.org/1999/02/22-rdf-syntax-ns#" xmlns="http://www.w3.org/2000/svg" height="475.69" width="811.02" version="1.1" xmlns:cc="http://creativecommons.org/ns#" xmlns:dc="http://purl.org/dc/elements/1.1/" viewBox="96 108 442.8481 252.19986">
 <metadata id="metadata240">
  <rdf:RDF>
   <cc:Work rdf:about="">
    <dc:format>image/svg+xml</dc:format>
    <dc:type rdf:resource="http://purl.org/dc/dcmitype/StillImage"/>
   </cc:Work>
  </rdf:RDF>
 </metadata>
 <g id="g4" transform="translate(-2.1519 -7.027)">
  <path id="path6" d="m240 210h30.264" stroke="#000" stroke-width="2" fill="none"/>
  <path id="polygon8" d="m270.26 210-2.5-5 10 5-10 5z"/>
  <path id="polygon10" d="m270.26 210-2.5-5 10 5-10 5z" stroke="#000" stroke-width="2" fill="none"/>
 </g>
 <g id="g12" transform="translate(-2.1519 -7.027)">
  <path id="rect14" fill="#7babe3" d="m380 180h60v60h-60z"/>
  <path id="rect16" d="m380 180h60v60h-60z" stroke="#000" stroke-width="2" fill="none"/>
 </g>
 <g id="g18" transform="translate(-2.1519 -7.027)">
  <path id="rect20" fill="#7babe3" d="m480 180h60v60h-60z"/>
  <path id="rect22" d="m480 180h60v60h-60z" stroke="#000" stroke-width="2" fill="none"/>
 </g>
 <g id="g24" transform="translate(-2.1519 -7.027)">
  <path id="rect26" fill="#7be38e" d="m280 180h60v60h-60z"/>
  <path id="rect28" d="m280 180h60v60h-60z" stroke="#000" stroke-width="2" fill="none"/>
 </g>
 <g id="g30" transform="translate(-2.1519 -7.027)">
  <path id="rect32" fill="#fdfd04" d="m220 200h20v20h-20z"/>
  <path id="rect34" d="m220 200h20v20h-20z" stroke="#000" stroke-width="2" fill="none"/>
 </g>
 <g id="g36" transform="translate(-2.1519 -7.027)">
  <path id="path38" d="m240 210c30-30 10-50 70-50s39 20 63.004 43.229" stroke="#f62e2e" stroke-width="2" fill="none"/>
  <path id="polygon40" fill="#f62e2e" d="m373 203.23 1.68-5.331 3.709 10.547-10.663-3.361z"/>
  <path id="polygon42" d="m373 203.23 1.68-5.331 3.709 10.547-10.663-3.361z" stroke="#f62e2e" stroke-width="2" fill="none"/>
 </g>
 <g id="g44" transform="translate(-2.1519 -7.027)">
  <path id="path46" d="m440 210h30.264" stroke="#000" stroke-width="2" fill="none"/>
  <path id="polygon48" d="m470.26 210-2.5-5 10 5-10 5z"/>
  <path id="polygon50" d="m470.26 210-2.5-5 10 5-10 5z" stroke="#000" stroke-width="2" fill="none"/>
 </g>
 <g id="text52">
  <path id="path3113" style="" d="m502.15 192.6h10.491v2.249h-8.0433v4.8419c0.38805-0.13228 0.77611-0.2293 1.1642-0.29105 0.38805-0.0705 0.7761-0.10582 1.1642-0.10583 2.2048 0.00001 3.9511 0.60414 5.2388 1.8124 1.2876 1.2083 1.9314 2.8443 1.9314 4.908-0.00001 2.1255-0.66147 3.7791-1.9844 4.9609-1.3229 1.173-3.1882 1.7595-5.5959 1.7595-0.82903 0-1.6757-0.0706-2.54-0.21167-0.85549-0.14111-1.7418-0.35278-2.6591-0.635v-2.6855c0.79375 0.43216 1.614 0.75407 2.4606 0.96573 0.84666 0.21167 1.7418 0.3175 2.6855 0.3175 1.5258 0 2.734-0.40128 3.6248-1.2038 0.89075-0.80256 1.3361-1.8918 1.3361-3.2676-0.00001-1.3758-0.44539-2.465-1.3361-3.2676-0.89077-0.80256-2.099-1.2038-3.6248-1.2038-0.71438 0.00001-1.4288 0.0794-2.1431 0.23812-0.70556 0.15876-1.4288 0.40571-2.1696 0.74083v-9.9219"/>
 </g>
 <g id="text56">
  <path id="path3116" style="" d="m409.46 194.93-6.7469 10.544h6.7469v-10.544m-0.70115-2.3283h3.3602v12.872h2.8178v2.2225h-2.8178v4.6567h-2.6591v-4.6567h-8.9164v-2.5797l8.2153-12.515"/>
 </g>
 <g id="text60">
  <path id="path3119" style="" d="m310.22 201.7c1.2788 0.27341 2.2754 0.84226 2.9898 1.7066 0.72318 0.86431 1.0848 1.9315 1.0848 3.2014-0.00002 1.9491-0.67029 3.4572-2.0108 4.5244-1.3406 1.0672-3.2456 1.6007-5.715 1.6007-0.82904 0-1.6845-0.0838-2.5665-0.25136-0.87313-0.15875-1.7771-0.40128-2.712-0.7276v-2.5797c0.74083 0.43215 1.5522 0.75847 2.4342 0.97895 0.88194 0.22049 1.8036 0.33073 2.7649 0.33073 1.6757 0 2.9501-0.33072 3.8232-0.99218 0.88194-0.66146 1.3229-1.6228 1.3229-2.884-0.00001-1.1642-0.41012-2.0726-1.2303-2.7252-0.8114-0.66145-1.9447-0.99218-3.3999-0.99219h-2.3019v-2.196h2.4077c1.3141 0.00001 2.3195-0.26016 3.0162-0.78052 0.69672-0.52915 1.0451-1.2876 1.0451-2.2754-0.00001-1.0142-0.36161-1.7903-1.0848-2.3283-0.71438-0.54679-1.7418-0.82019-3.0824-0.82021-0.73202 0.00002-1.517 0.0794-2.3548 0.23812-0.83785 0.15877-1.7595 0.40572-2.7649 0.74084v-2.3812c1.0142-0.2822 1.9623-0.49387 2.8443-0.635 0.89076-0.14109 1.7286-0.21165 2.5135-0.21167 2.0285 0.00002 3.6336 0.46304 4.8154 1.3891 1.1818 0.91724 1.7727 2.1608 1.7727 3.7306-0.00002 1.0936-0.31311 2.0197-0.93927 2.7781-0.62619 0.74966-1.517 1.27-2.6723 1.561"/>
 </g>
 <g id="text64" fill="#173b8f">
  <path id="path3122" style="" d="m227.84 259.27c-0.78788 1.3523-1.3729 2.6899-1.7551 4.0128-0.38218 1.3229-0.57327 2.6635-0.57326 4.0217-0.00001 1.3582 0.19108 2.7046 0.57326 4.0393 0.38805 1.3288 0.97307 2.6664 1.7551 4.0128h-1.4111c-0.88195-1.3817-1.5434-2.7399-1.9844-4.0746-0.4351-1.3347-0.65264-2.6605-0.65264-3.9776 0-1.3112 0.21754-2.6311 0.65264-3.9599 0.43508-1.3288 1.0965-2.687 1.9844-4.0746h1.4111"/>
  <path id="path3124" style="" d="m232.76 271.47h6.2177v1.4993h-8.3608v-1.4993c0.67615-0.69967 1.5963-1.6375 2.7605-2.8134 1.17-1.1818 1.905-1.9432 2.2049-2.2842 0.57032-0.64088 0.96719-1.1818 1.1906-1.6228 0.2293-0.44684 0.34395-0.88487 0.34396-1.3141-0.00001-0.69966-0.24695-1.27-0.74083-1.711-0.48802-0.44096-1.126-0.66144-1.9138-0.66145-0.55857 0.00001-1.1495 0.097-1.7727 0.29104-0.61737 0.19404-1.2788 0.48802-1.9844 0.88194v-1.7992c0.71732-0.28809 1.3876-0.50564 2.0108-0.65264 0.62324-0.14698 1.1936-0.22047 1.711-0.22049 1.3641 0.00002 2.4518 0.34103 3.2632 1.0231 0.81137 0.68205 1.2171 1.5934 1.2171 2.734-0.00001 0.54094-0.10291 1.0554-0.30868 1.5434-0.19992 0.48214-0.5674 1.0525-1.1024 1.711-0.147 0.17052-0.61443 0.66441-1.4023 1.4817-0.78788 0.81139-1.8991 1.9491-3.3338 3.4131"/>
  <path id="path3126" style="" d="m242.24 259.27h1.4111c0.88194 1.3876 1.5405 2.7458 1.9756 4.0746 0.44096 1.3288 0.66145 2.6488 0.66145 3.9599 0 1.317-0.22049 2.6429-0.66145 3.9776-0.4351 1.3347-1.0936 2.6929-1.9756 4.0746h-1.4111c0.78199-1.3464 1.3641-2.684 1.7462-4.0128 0.38805-1.3347 0.58208-2.6811 0.58208-4.0393s-0.19403-2.6987-0.58208-4.0217c-0.38218-1.3229-0.96426-2.6605-1.7462-4.0128"/>
 </g>
 <g id="text68" fill="#173b8f">
  <path id="path3129" style="" d="m373.45 259.27c-0.78787 1.3523-1.3729 2.6899-1.7551 4.0128-0.38218 1.3229-0.57327 2.6635-0.57327 4.0217s0.19109 2.7046 0.57327 4.0393c0.38805 1.3288 0.97307 2.6664 1.7551 4.0128h-1.4111c-0.88194-1.3817-1.5434-2.7399-1.9844-4.0746-0.43509-1.3347-0.65264-2.6605-0.65264-3.9776 0-1.3112 0.21755-2.6311 0.65264-3.9599s1.0966-2.687 1.9844-4.0746h1.4111"/>
  <path id="path3131" style="" d="m377.14 271.47h2.9104v-10.045l-3.1662 0.635v-1.6228l3.1485-0.635h1.7815v11.668h2.9104v1.4993h-7.5847v-1.4993"/>
  <path id="path3133" style="" d="m387.85 259.27h1.4111c0.88194 1.3876 1.5405 2.7458 1.9756 4.0746 0.44097 1.3288 0.66145 2.6488 0.66146 3.9599-0.00001 1.317-0.22049 2.6429-0.66146 3.9776-0.43509 1.3347-1.0936 2.6929-1.9756 4.0746h-1.4111c0.78199-1.3464 1.3641-2.684 1.7462-4.0128 0.38805-1.3347 0.58208-2.6811 0.58208-4.0393s-0.19403-2.6987-0.58208-4.0217c-0.38218-1.3229-0.96426-2.6605-1.7462-4.0128"/>
 </g>
 <g id="text72" fill="#173b8f">
  <path id="path3136" style="" d="m237.84 149.27c-0.78788 1.3523-1.3729 2.6899-1.7551 4.0128-0.38218 1.3229-0.57327 2.6635-0.57326 4.0217-0.00001 1.3582 0.19108 2.7046 0.57326 4.0393 0.38805 1.3288 0.97307 2.6664 1.7551 4.0128h-1.4111c-0.88195-1.3817-1.5434-2.7399-1.9844-4.0746-0.4351-1.3347-0.65264-2.6605-0.65264-3.9776 0-1.3112 0.21754-2.6311 0.65264-3.9599 0.43508-1.3288 1.0965-2.687 1.9844-4.0746h1.4111"/>
  <path id="path3138" style="" d="m246.62 155.87c0.85254 0.18227 1.5169 0.56151 1.9932 1.1377 0.48212 0.5762 0.72318 1.2876 0.72319 2.1343-0.00001 1.2994-0.44686 2.3048-1.3406 3.0162-0.89371 0.71144-2.1637 1.0672-3.81 1.0672-0.55269 0-1.123-0.0559-1.711-0.16757-0.58209-0.10584-1.1848-0.26753-1.808-0.48507v-1.7198c0.49388 0.2881 1.0348 0.50565 1.6228 0.65264 0.58796 0.14699 1.2024 0.22048 1.8433 0.22048 1.1171 0 1.9667-0.22048 2.5488-0.66146 0.58795-0.44096 0.88193-1.0818 0.88194-1.9226-0.00001-0.77611-0.27341-1.3817-0.8202-1.8168-0.54094-0.44096-1.2965-0.66145-2.2666-0.66145h-1.5346v-1.464h1.6051c0.87605 0.00001 1.5463-0.17344 2.0108-0.52035 0.46448-0.35276 0.69673-0.85841 0.69673-1.5169 0-0.67614-0.24107-1.1936-0.72319-1.5522-0.47626-0.36452-1.1612-0.54679-2.0549-0.5468-0.48801 0.00001-1.0113 0.0529-1.5699 0.15875-0.55857 0.10584-1.173 0.27047-1.8433 0.49388v-1.5875c0.67615-0.18814 1.3082-0.32925 1.8962-0.42334 0.59384-0.0941 1.1524-0.14109 1.6757-0.14111 1.3523 0.00002 2.4224 0.3087 3.2103 0.92604 0.78786 0.6115 1.1818 1.4405 1.1818 2.4871-0.00001 0.72909-0.20874 1.3464-0.62618 1.8521-0.41746 0.49977-1.0113 0.84667-1.7815 1.0407"/>
  <path id="path3140" style="" d="m252.24 149.27h1.4111c0.88194 1.3876 1.5405 2.7458 1.9756 4.0746 0.44096 1.3288 0.66145 2.6488 0.66145 3.9599 0 1.317-0.22049 2.6429-0.66145 3.9776-0.4351 1.3347-1.0936 2.6929-1.9756 4.0746h-1.4111c0.78199-1.3464 1.3641-2.684 1.7462-4.0128 0.38805-1.3347 0.58208-2.6811 0.58208-4.0393s-0.19403-2.6987-0.58208-4.0217c-0.38218-1.3229-0.96426-2.6605-1.7462-4.0128"/>
 </g>
 <g id="g76" transform="translate(-2.1519 -7.027)">
  <path id="rect78" fill="#7babe3" d="m380 300h60v60h-60z"/>
  <path id="rect80" d="m380 300h60v60h-60z" stroke="#000" stroke-width="2" fill="none"/>
 </g>
 <g id="g82" transform="translate(-2.1519 -7.027)">
  <path id="rect84" fill="#7babe3" d="m480 300h60v60h-60z"/>
  <path id="rect86" d="m480 300h60v60h-60z" stroke="#000" stroke-width="2" fill="none"/>
 </g>
 <g id="g88" transform="translate(-2.1519 -7.027)">
  <path id="path90" d="m440 330h30.264" stroke="#000" stroke-width="2" fill="none"/>
  <path id="polygon92" d="m470.26 330-2.5-5 10 5-10 5z"/>
  <path id="polygon94" d="m470.26 330-2.5-5 10 5-10 5z" stroke="#000" stroke-width="2" fill="none"/>
 </g>
 <g id="text96">
  <path id="path3149" style="" d="m502.58 330.1h4.3656v-15.068l-4.7493 0.95249v-2.4342l4.7228-0.9525h2.6723v17.502h4.3656v2.249h-11.377v-2.249"/>
 </g>
 <g id="text100">
  <path id="path3152" style="" d="m404.42 330.1h9.3266v2.249h-12.541v-2.249c1.0142-1.0495 2.3945-2.4562 4.1407-4.2201 1.7551-1.7727 2.8575-2.9148 3.3073-3.4264 0.85548-0.96131 1.4508-1.7727 1.7859-2.4342 0.34394-0.67026 0.51592-1.3273 0.51593-1.9711-0.00001-1.0495-0.37042-1.905-1.1112-2.5664-0.73202-0.66144-1.6889-0.99217-2.8707-0.99219-0.83785 0.00002-1.7242 0.14554-2.6591 0.43656-0.92604 0.29106-1.9182 0.73203-2.9766 1.3229v-2.6988c1.076-0.43213 2.0814-0.75845 3.0162-0.97896 0.93485-0.22046 1.7903-0.33071 2.5664-0.33073 2.0461 0.00002 3.6777 0.51155 4.8948 1.5346 1.2171 1.0231 1.8256 2.3901 1.8256 4.101-0.00001 0.8114-0.15435 1.5831-0.46302 2.3151-0.29987 0.72321-0.85109 1.5787-1.6536 2.5665-0.2205 0.25577-0.92165 0.9966-2.1034 2.2225-1.1818 1.2171-2.8487 2.9236-5.0006 5.1197"/>
 </g>
 <g id="g104" transform="translate(-2.1519 -7.027)">
  <path id="path106" d="m340 210h30.264" stroke="#000" stroke-width="2" fill="none"/>
  <path id="polygon108" d="m370.26 210-2.5-5 10 5-10 5z"/>
  <path id="polygon110" d="m370.26 210-2.5-5 10 5-10 5z" stroke="#000" stroke-width="2" fill="none"/>
 </g>
 <g id="g112" transform="translate(-2.1519 -7.027)">
  <path id="rect114" fill="#fdfd04" d="m220 320h20v20h-20z"/>
  <path id="rect116" d="m220 320h20v20h-20z" stroke="#000" stroke-width="2" fill="none"/>
 </g>
 <g id="g118" transform="translate(-2.1519 -7.027)">
  <path id="path120" d="m240 330c30 0 10-90 33.116-113.12" stroke="#f62e2e" stroke-width="2" fill="none"/>
  <path id="polygon122" fill="#f62e2e" d="m273.12 216.88-5.304-1.767 10.607-3.536-3.536 10.607z"/>
  <path id="polygon124" d="m273.12 216.88-5.304-1.767 10.607-3.536-3.536 10.607z" stroke="#f62e2e" stroke-width="2" fill="none"/>
 </g>
 <g id="g126" transform="translate(-2.1519 -7.027)">
  <path id="path128" d="m340 210c30 0 10 90 33.116 113.12" stroke="#f62e2e" stroke-width="2" fill="none"/>
  <path id="polygon130" fill="#f62e2e" d="m373.12 323.12 1.767-5.304 3.536 10.607-10.607-3.536z"/>
  <path id="polygon132" d="m373.12 323.12 1.767-5.304 3.536 10.607-10.607-3.536z" stroke="#f62e2e" stroke-width="2" fill="none"/>
 </g>
 <g id="text134">
  <path id="path3163" style="" d="m154.05 203.88v0.79374h-7.4612c0.0705 1.1171 0.40569 1.9697 1.0054 2.5576 0.6056 0.58208 1.4464 0.87313 2.5224 0.87312 0.62323 0.00001 1.2259-0.0764 1.808-0.2293 0.58796-0.15287 1.17-0.38217 1.7462-0.68792v1.5346c-0.58209 0.24695-1.1789 0.4351-1.7903 0.56445-0.61149 0.12935-1.2318 0.19403-1.8609 0.19403-1.5758 0-2.8252-0.45861-3.7483-1.3758-0.91723-0.91721-1.3758-2.1578-1.3758-3.7218 0-1.6169 0.43509-2.8986 1.3053-3.8453 0.87606-0.95249 2.0549-1.4287 3.5366-1.4288 1.3288 0.00001 2.3783 0.42922 3.1485 1.2876 0.7761 0.85255 1.1642 2.0138 1.1642 3.4837m-1.6228-0.47625c-0.0118-0.88782-0.26165-1.5963-0.74965-2.1255-0.48214-0.52916-1.123-0.79374-1.9226-0.79375-0.90546 0.00001-1.6316 0.25578-2.1784 0.76729-0.54093 0.51154-0.85255 1.2318-0.93486 2.1608l5.7856-0.009"/>
  <path id="path3165" style="" d="m162.44 200.86c-0.18228-0.10583-0.38218-0.18226-0.59972-0.22931-0.21168-0.0529-0.44686-0.0794-0.70556-0.0794-0.91722 0.00001-1.6228 0.29987-2.1167 0.89958-0.48801 0.59385-0.73202 1.4493-0.73202 2.5665v5.2035h-1.6316v-9.8778h1.6316v1.5346c0.34102-0.59971 0.78493-1.0436 1.3317-1.3317 0.5468-0.29397 1.2112-0.44096 1.9932-0.44097 0.11171 0.00001 0.23518 0.009 0.37042 0.0265 0.13522 0.0118 0.28515 0.0324 0.44979 0.0617l0.009 1.6669"/>
  <path id="path3167" style="" d="m172.21 203.88v0.79374h-7.4612c0.0705 1.1171 0.40569 1.9697 1.0054 2.5576 0.6056 0.58208 1.4464 0.87313 2.5224 0.87312 0.62324 0.00001 1.2259-0.0764 1.808-0.2293 0.58795-0.15287 1.17-0.38217 1.7462-0.68792v1.5346c-0.58209 0.24695-1.1789 0.4351-1.7903 0.56445-0.61149 0.12935-1.2318 0.19403-1.8609 0.19403-1.5757 0-2.8252-0.45861-3.7483-1.3758-0.91722-0.91721-1.3758-2.1578-1.3758-3.7218 0-1.6169 0.43509-2.8986 1.3053-3.8453 0.87606-0.95249 2.0549-1.4287 3.5366-1.4288 1.3288 0.00001 2.3783 0.42922 3.1485 1.2876 0.7761 0.85255 1.1642 2.0138 1.1642 3.4837m-1.6228-0.47625c-0.0118-0.88782-0.26165-1.5963-0.74965-2.1255-0.48213-0.52916-1.123-0.79374-1.9226-0.79375-0.90547 0.00001-1.6316 0.25578-2.1784 0.76729-0.54093 0.51154-0.85255 1.2318-0.93486 2.1608l5.7855-0.009"/>
  <path id="path3169" style="" d="m181.37 200.84v-5.3446h1.6228v13.723h-1.6228v-1.4817c-0.34102 0.58796-0.77317 1.026-1.2964 1.3141-0.51742 0.28222-1.1407 0.42334-1.8697 0.42334-1.1936 0-2.1666-0.47625-2.9192-1.4288-0.74671-0.9525-1.1201-2.2049-1.1201-3.7571-0.00001-1.5522 0.37335-2.8046 1.1201-3.7571 0.75259-0.95249 1.7257-1.4287 2.9192-1.4288 0.72906 0.00001 1.3523 0.14406 1.8697 0.43215 0.52328 0.28224 0.95543 0.71733 1.2964 1.3053m-5.5298 3.4484c0 1.1936 0.244 2.1314 0.73201 2.8134 0.49389 0.67616 1.17 1.0142 2.0285 1.0142 0.85842 0 1.5346-0.33807 2.0285-1.0142 0.49388-0.68204 0.74083-1.6198 0.74083-2.8134s-0.24695-2.1284-0.74083-2.8046c-0.49389-0.68203-1.17-1.023-2.0285-1.0231-0.85843 0.00001-1.5346 0.34103-2.0285 1.0231-0.48801 0.67616-0.73201 1.611-0.73201 2.8046"/>
  <path id="path3171" style="" d="m194.79 203.88v0.79374h-7.4612c0.0705 1.1171 0.40569 1.9697 1.0054 2.5576 0.60559 0.58208 1.4464 0.87313 2.5224 0.87312 0.62324 0.00001 1.2259-0.0764 1.808-0.2293 0.58795-0.15287 1.17-0.38217 1.7462-0.68792v1.5346c-0.5821 0.24695-1.1789 0.4351-1.7904 0.56445-0.61149 0.12935-1.2318 0.19403-1.8609 0.19403-1.5757 0-2.8252-0.45861-3.7483-1.3758-0.91722-0.91721-1.3758-2.1578-1.3758-3.7218 0-1.6169 0.43509-2.8986 1.3053-3.8453 0.87606-0.95249 2.0549-1.4287 3.5366-1.4288 1.3288 0.00001 2.3783 0.42922 3.1485 1.2876 0.7761 0.85255 1.1642 2.0138 1.1642 3.4837m-1.6228-0.47625c-0.0118-0.88782-0.26166-1.5963-0.74966-2.1255-0.48213-0.52916-1.123-0.79374-1.9226-0.79375-0.90547 0.00001-1.6316 0.25578-2.1784 0.76729-0.54093 0.51154-0.85255 1.2318-0.93486 2.1608l5.7856-0.009"/>
  <path id="path3173" style="" d="m199.06 196.54v2.8046h3.3426v1.2612h-3.3426v5.3622c0 0.80551 0.10877 1.3229 0.32632 1.5522 0.22342 0.22931 0.67321 0.34396 1.3494 0.34396h1.6669v1.3582h-1.6669c-1.2524 0-2.1167-0.23224-2.5929-0.69673-0.47625-0.47037-0.71438-1.3229-0.71438-2.5576v-5.3622h-1.1906v-1.2612h1.1906v-2.8046h1.6316"/>
  <path id="path3175" style="" d="m204.54 199.35h1.6228v9.8778h-1.6228v-9.8778m0-3.8453h1.6228v2.0549h-1.6228v-2.0549"/>
 </g>
 <g id="text138">
  <path id="path3178" style="" d="m103.75 321.24c0.40568-0.72907 0.89075-1.267 1.4552-1.614 0.56443-0.34689 1.2288-0.52034 1.9932-0.52035 1.0289 0.00001 1.8227 0.36161 2.3812 1.0848 0.55855 0.71732 0.83783 1.7404 0.83785 3.0692v5.9619h-1.6316v-5.909c-0.00001-0.94661-0.16758-1.6492-0.50271-2.1078-0.33515-0.4586-0.84667-0.68791-1.5346-0.68792-0.84079 0.00001-1.5052 0.27929-1.9932 0.83785-0.48802 0.55857-0.73202 1.32-0.73201 2.2842v5.5827h-1.6316v-5.909c-0.00001-0.95249-0.16757-1.6551-0.50271-2.1078-0.33514-0.4586-0.85255-0.68791-1.5522-0.68792-0.82903 0.00001-1.4875 0.28223-1.9755 0.84667-0.48801 0.55857-0.73202 1.317-0.73201 2.2754v5.5827h-1.6316v-9.8778h1.6316v1.5346c0.37041-0.60559 0.81432-1.0524 1.3317-1.3406 0.5174-0.28809 1.1318-0.43214 1.8433-0.43215 0.71731 0.00001 1.3258 0.18228 1.8256 0.54681 0.50564 0.36454 0.87899 0.89371 1.1201 1.5875"/>
  <path id="path3180" style="" d="m122.11 323.88v0.79375h-7.4612c0.0706 1.1171 0.40569 1.9697 1.0054 2.5576 0.6056 0.58208 1.4464 0.87313 2.5224 0.87312 0.62323 0.00001 1.2259-0.0764 1.808-0.2293 0.58796-0.15287 1.17-0.38217 1.7462-0.68792v1.5346c-0.58209 0.24694-1.1789 0.43509-1.7903 0.56444-0.61149 0.12935-1.2318 0.19403-1.8609 0.19403-1.5758 0-2.8252-0.45861-3.7483-1.3758-0.91723-0.91721-1.3758-2.1578-1.3758-3.7218 0-1.6169 0.43509-2.8986 1.3053-3.8453 0.87606-0.95249 2.0549-1.4287 3.5366-1.4288 1.3288 0.00001 2.3783 0.42922 3.1485 1.2876 0.7761 0.85255 1.1642 2.0138 1.1642 3.4837m-1.6228-0.47625c-0.0118-0.88782-0.26165-1.5963-0.74965-2.1255-0.48214-0.52915-1.123-0.79374-1.9226-0.79375-0.90546 0.00001-1.6316 0.25578-2.1784 0.76729-0.54093 0.51154-0.85255 1.2318-0.93486 2.1608l5.7856-0.009"/>
  <path id="path3182" style="" d="m131.28 324.17c-0.00001-1.1759-0.24401-2.0873-0.73202-2.734-0.48213-0.64675-1.1612-0.97013-2.0373-0.97013-0.87019 0-1.5493 0.32338-2.0373 0.97013-0.48214 0.64677-0.7232 1.5581-0.7232 2.734 0 1.17 0.24106 2.0784 0.7232 2.7252 0.488 0.64676 1.1671 0.97014 2.0373 0.97014 0.87605 0 1.5552-0.32338 2.0373-0.97014 0.48801-0.64675 0.73201-1.5552 0.73202-2.7252m1.6228 3.8276c-0.00001 1.6816-0.37336 2.931-1.1201 3.7483-0.74672 0.82314-1.8903 1.2347-3.4308 1.2347-0.57033 0-1.1083-0.0441-1.614-0.13229-0.50565-0.0823-0.9966-0.21167-1.4728-0.38805v-1.5787c0.47625 0.2587 0.94662 0.44979 1.4111 0.57326 0.46449 0.12347 0.9378 0.18521 1.4199 0.18521 1.0642 0 1.8609-0.27929 2.3901-0.83785 0.52916-0.55268 0.79374-1.3905 0.79375-2.5135v-0.80257c-0.33515 0.58209-0.76436 1.0172-1.2876 1.3053-0.52329 0.2881-1.1495 0.43215-1.8785 0.43215-1.2112 0-2.1872-0.46155-2.928-1.3846-0.74084-0.9231-1.1112-2.1461-1.1112-3.6689 0-1.5287 0.37041-2.7546 1.1112-3.6777 0.74083-0.92309 1.7168-1.3846 2.928-1.3846 0.72907 0.00001 1.3552 0.14406 1.8785 0.43215 0.52328 0.28812 0.95249 0.72321 1.2876 1.3053v-1.4993h1.6228v8.6519"/>
  <path id="path3184" style="" d="m141.24 315.5v1.3494h-1.5522c-0.58209 0.00001-0.98778 0.1176-1.2171 0.35277-0.22343 0.2352-0.33514 0.65853-0.33514 1.27v0.87313h2.6723v1.2612h-2.6723v8.6166h-1.6316v-8.6166h-1.5522v-1.2612h1.5522v-0.68792c0-1.0995 0.25577-1.8991 0.7673-2.3989 0.51152-0.50564 1.3229-0.75846 2.4342-0.75848h1.5346"/>
  <path id="path3186" style="" d="m146.42 320.48c-0.87019 0.00001-1.5581 0.34103-2.0638 1.0231-0.50565 0.67616-0.75847 1.6051-0.75847 2.7869s0.24988 2.1137 0.74965 2.7958c0.50564 0.67616 1.1965 1.0142 2.0726 1.0142 0.8643 0.00001 1.5493-0.34101 2.0549-1.023 0.50563-0.68203 0.75846-1.611 0.75847-2.7869-0.00001-1.17-0.25284-2.0961-0.75847-2.7781-0.50566-0.68791-1.1906-1.0319-2.0549-1.0319m0-1.3758c1.4111 0.00001 2.5194 0.45862 3.3249 1.3758 0.8055 0.91723 1.2083 2.1872 1.2083 3.81-0.00001 1.6169-0.40277 2.8869-1.2083 3.81-0.80551 0.91723-1.9138 1.3758-3.3249 1.3758-1.417 0-2.5282-0.45861-3.3338-1.3758-0.79963-0.92309-1.1994-2.1931-1.1994-3.81 0-1.6228 0.39981-2.8928 1.1994-3.81 0.80551-0.91721 1.9168-1.3758 3.3338-1.3758"/>
  <path id="path3188" style="" d="m159.36 320.86c-0.18228-0.10583-0.38219-0.18226-0.59973-0.22931-0.21167-0.0529-0.44685-0.0794-0.70555-0.0794-0.91723 0.00001-1.6228 0.29987-2.1167 0.89958-0.48802 0.59385-0.73202 1.4493-0.73202 2.5665v5.2035h-1.6316v-9.8778h1.6316v1.5346c0.34102-0.59971 0.78493-1.0436 1.3317-1.3317 0.5468-0.29397 1.2112-0.44096 1.9932-0.44097 0.11171 0.00001 0.23518 0.009 0.37042 0.0265 0.13522 0.0118 0.28515 0.0324 0.44979 0.0617l0.009 1.6669"/>
  <path id="path3190" style="" d="m167.26 320.84v-5.3446h1.6228v13.723h-1.6228v-1.4817c-0.34103 0.58796-0.77318 1.026-1.2965 1.3141-0.51741 0.28223-1.1406 0.42334-1.8697 0.42334-1.1936 0-2.1666-0.47625-2.9192-1.4288-0.74672-0.9525-1.1201-2.2049-1.1201-3.7571s0.37335-2.8046 1.1201-3.7571c0.75258-0.95249 1.7257-1.4287 2.9192-1.4288 0.72907 0.00001 1.3523 0.14406 1.8697 0.43215 0.52328 0.28224 0.95543 0.71733 1.2965 1.3053m-5.5298 3.4484c0 1.1936 0.244 2.1314 0.73201 2.8134 0.49389 0.67616 1.17 1.0142 2.0285 1.0142 0.85842 0 1.5346-0.33807 2.0285-1.0142 0.49388-0.68203 0.74083-1.6198 0.74084-2.8134-0.00001-1.1936-0.24696-2.1284-0.74084-2.8046-0.49389-0.68203-1.17-1.023-2.0285-1.023-0.85843 0-1.5346 0.34102-2.0285 1.023-0.48801 0.67616-0.73201 1.611-0.73201 2.8046"/>
  <path id="path3192" style="" d="m174.26 314.78h1.7551l-2.8751 3.3161h-1.3494l2.4694-3.3161m-2.0373 4.5685h1.6228v9.8778h-1.6228v-9.8778m0.81139-0.23813"/>
  <path id="path3194" style="" d="m178.84 316.54v2.8046h3.3426v1.2612h-3.3426v5.3622c-0.00001 0.80551 0.10877 1.3229 0.32632 1.5522 0.22342 0.22931 0.67321 0.34396 1.3494 0.34396h1.6669v1.3582h-1.6669c-1.2524 0-2.1167-0.23224-2.5929-0.69673-0.47625-0.47037-0.71438-1.3229-0.71438-2.5576v-5.3622h-1.1906v-1.2612h1.1906v-2.8046h1.6316"/>
  <path id="path3196" style="" d="m188.15 320.48c-0.87019 0.00001-1.5581 0.34103-2.0638 1.0231-0.50565 0.67616-0.75848 1.6051-0.75847 2.7869-0.00001 1.1818 0.24988 2.1137 0.74965 2.7958 0.50564 0.67616 1.1965 1.0142 2.0726 1.0142 0.86429 0.00001 1.5493-0.34101 2.0549-1.023 0.50564-0.68203 0.75847-1.611 0.75848-2.7869-0.00001-1.17-0.25284-2.0961-0.75848-2.7781-0.50565-0.68791-1.1906-1.0319-2.0549-1.0319m0-1.3758c1.4111 0.00001 2.5194 0.45862 3.3249 1.3758 0.8055 0.91723 1.2082 2.1872 1.2083 3.81-0.00001 1.6169-0.40276 2.8869-1.2083 3.81-0.80551 0.91723-1.9138 1.3758-3.3249 1.3758-1.417 0-2.5282-0.45861-3.3338-1.3758-0.79963-0.92309-1.1994-2.1931-1.1994-3.81 0-1.6228 0.39981-2.8928 1.1994-3.81 0.8055-0.91721 1.9168-1.3758 3.3338-1.3758"/>
  <path id="path3198" style="" d="m196.97 316.54v2.8046h3.3426v1.2612h-3.3426v5.3622c0 0.80551 0.10877 1.3229 0.32632 1.5522 0.22342 0.22931 0.67321 0.34396 1.3494 0.34396h1.6669v1.3582h-1.6669c-1.2524 0-2.1167-0.23224-2.5929-0.69673-0.47625-0.47037-0.71438-1.3229-0.71438-2.5576v-5.3622h-1.1906v-1.2612h1.1906v-2.8046h1.6316"/>
  <path id="path3200" style="" d="m204.06 316.54v2.8046h3.3426v1.2612h-3.3426v5.3622c-0.00001 0.80551 0.10877 1.3229 0.32632 1.5522 0.22342 0.22931 0.67321 0.34396 1.3494 0.34396h1.6669v1.3582h-1.6669c-1.2524 0-2.1167-0.23224-2.5929-0.69673-0.47626-0.47037-0.71438-1.3229-0.71438-2.5576v-5.3622h-1.1906v-1.2612h1.1906v-2.8046h1.6316"/>
 </g>
 <g id="g142" transform="translate(-2.1519 -7.027)">
  <path id="line144" d="m310 150v20.264" stroke="#000" stroke-width="2" fill="none"/>
  <path id="polygon146" d="m310 170.26 5-2.5-5 10-5-10z"/>
  <path id="polygon148" d="m310 170.26 5-2.5-5 10-5-10z" stroke="#000" stroke-width="2" fill="none"/>
 </g>
 <g id="g150" transform="translate(-2.1519 -7.027)">
  <path id="line152" d="m410 150v20.264" stroke="#000" stroke-width="2" fill="none"/>
  <path id="polygon154" d="m410 170.26 5-2.5-5 10-5-10z"/>
  <path id="polygon156" d="m410 170.26 5-2.5-5 10-5-10z" stroke="#000" stroke-width="2" fill="none"/>
 </g>
 <g id="text158">
  <path id="path3209" style="" d="m278.17 113.71c-1.3112 0.00001-2.2196 0.14994-2.7252 0.44979-0.50565 0.29987-0.75847 0.8114-0.75847 1.5346 0 0.5762 0.18815 1.0348 0.56445 1.3758 0.38217 0.33514 0.89957 0.50271 1.5522 0.50271 0.89957 0 1.6198-0.3175 2.1608-0.9525 0.54679-0.64088 0.8202-1.4905 0.8202-2.5488v-0.3616h-1.614m3.2367-0.67027v5.6356h-1.6228v-1.4993c-0.37042 0.59972-0.83197 1.0436-1.3846 1.3317-0.55269 0.28222-1.2288 0.42333-2.0285 0.42333-1.0113 0-1.8168-0.28222-2.4165-0.84667-0.59384-0.57032-0.89076-1.3317-0.89076-2.2842 0-1.1112 0.37041-1.9491 1.1112-2.5135 0.74671-0.56444 1.858-0.84666 3.3338-0.84667h2.2754v-0.15874c0-0.74671-0.24695-1.3229-0.74083-1.7286-0.48801-0.41157-1.1759-0.61736-2.0638-0.61736-0.56444 0-1.1142 0.0676-1.6492 0.20284-0.53505 0.13524-1.0495 0.33809-1.5434 0.60854v-1.4993c0.59384-0.2293 1.17-0.3998 1.7286-0.51153 0.55856-0.11758 1.1024-0.17638 1.6316-0.17639 1.4288 0.00001 2.4959 0.37043 3.2015 1.1112 0.70554 0.74084 1.0583 1.8638 1.0583 3.369m-2.9633-8.8106h1.7551l-2.8751 3.3161h-1.3494l2.4694-3.3161"/>
  <path id="path3211" style="" d="m286.36 105.99v2.8046h3.3426v1.2612h-3.3426v5.3622c0 0.80551 0.10877 1.3229 0.32632 1.5522 0.22342 0.22931 0.67321 0.34396 1.3494 0.34396h1.6669v1.3582h-1.6669c-1.2524 0-2.1167-0.23224-2.5929-0.69673-0.47625-0.47037-0.71437-1.3229-0.71437-2.5576v-5.3622h-1.1906v-1.2612h1.1906v-2.8046h1.6316"/>
  <path id="path3213" style="" d="m297.57 110.31c-0.18227-0.10582-0.38218-0.18226-0.59972-0.2293-0.21167-0.0529-0.44686-0.0794-0.70555-0.0794-0.91723 0.00001-1.6228 0.29987-2.1167 0.89958-0.48801 0.59385-0.73201 1.4493-0.73201 2.5665v5.2035h-1.6316v-9.8778h1.6316v1.5346c0.34101-0.59971 0.78492-1.0436 1.3317-1.3317 0.5468-0.29398 1.2112-0.44097 1.9932-0.44098 0.1117 0.00001 0.23517 0.009 0.37041 0.0265 0.13523 0.0118 0.28516 0.0323 0.44979 0.0617l0.009 1.6669"/>
  <path id="path3215" style="" d="m303.78 113.71c-1.3112 0.00001-2.2196 0.14994-2.7252 0.44979-0.50565 0.29987-0.75848 0.8114-0.75847 1.5346-0.00001 0.5762 0.18814 1.0348 0.56444 1.3758 0.38217 0.33514 0.89958 0.50271 1.5522 0.50271 0.89958 0 1.6198-0.3175 2.1608-0.9525 0.5468-0.64088 0.8202-1.4905 0.82021-2.5488v-0.3616h-1.614m3.2367-0.67027v5.6356h-1.6228v-1.4993c-0.37042 0.59972-0.83197 1.0436-1.3846 1.3317-0.55269 0.28222-1.2288 0.42333-2.0285 0.42333-1.0113 0-1.8168-0.28222-2.4165-0.84667-0.59384-0.57032-0.89076-1.3317-0.89076-2.2842 0-1.1112 0.37042-1.9491 1.1112-2.5135 0.74671-0.56444 1.858-0.84666 3.3338-0.84667h2.2754v-0.15874c-0.00001-0.74671-0.24695-1.3229-0.74083-1.7286-0.48802-0.41157-1.1759-0.61736-2.0638-0.61736-0.56445 0-1.1142 0.0676-1.6492 0.20284-0.53505 0.13524-1.0495 0.33809-1.5434 0.60854v-1.4993c0.59384-0.2293 1.17-0.3998 1.7286-0.51153 0.55856-0.11758 1.1024-0.17638 1.6316-0.17639 1.4287 0.00001 2.4959 0.37043 3.2014 1.1112 0.70555 0.74084 1.0583 1.8638 1.0583 3.369"/>
  <path id="path3217" style="" d="m310.3 104.95h1.6316v8.1051l4.8419-4.2598h2.0726l-5.2387 4.6214 5.4592 5.2564h-2.1167l-5.0183-4.8242v4.8242h-1.6316v-13.723"/>
  <path id="path3219" style="" d="m324.03 109.93c-0.87019 0-1.5581 0.34102-2.0638 1.023-0.50565 0.67616-0.75848 1.6051-0.75847 2.7869-0.00001 1.1818 0.24988 2.1137 0.74965 2.7958 0.50564 0.67616 1.1965 1.0142 2.0726 1.0142 0.86429 0 1.5493-0.34102 2.0549-1.0231 0.50564-0.68203 0.75847-1.611 0.75847-2.7869 0-1.17-0.25283-2.0961-0.75847-2.7781-0.50565-0.68791-1.1906-1.0319-2.0549-1.0319m0-1.3758c1.4111 0.00001 2.5194 0.45862 3.3249 1.3758 0.8055 0.91722 1.2082 2.1872 1.2083 3.81-0.00001 1.6169-0.40276 2.8869-1.2083 3.81-0.80551 0.91722-1.9138 1.3758-3.3249 1.3758-1.417 0-2.5282-0.45861-3.3338-1.3758-0.79963-0.9231-1.1994-2.1931-1.1994-3.81 0-1.6228 0.39981-2.8928 1.1994-3.81 0.8055-0.91722 1.9168-1.3758 3.3338-1.3758"/>
  <path id="path3221" style="" d="m332.85 105.99v2.8046h3.3426v1.2612h-3.3426v5.3622c0 0.80551 0.10877 1.3229 0.32632 1.5522 0.22342 0.22931 0.67321 0.34396 1.3494 0.34396h1.6669v1.3582h-1.6669c-1.2524 0-2.1167-0.23224-2.5929-0.69673-0.47625-0.47037-0.71438-1.3229-0.71438-2.5576v-5.3622h-1.1906v-1.2612h1.1906v-2.8046h1.6316"/>
  <path id="path3223" style="" d="m339.94 105.99v2.8046h3.3426v1.2612h-3.3426v5.3622c0 0.80551 0.10877 1.3229 0.32632 1.5522 0.22342 0.22931 0.67321 0.34396 1.3494 0.34396h1.6669v1.3582h-1.6669c-1.2524 0-2.1167-0.23224-2.5929-0.69673-0.47625-0.47037-0.71438-1.3229-0.71438-2.5576v-5.3622h-1.1906v-1.2612h1.1906v-2.8046h1.6316"/>
 </g>
 <g id="text162">
  <path id="path3226" style="" d="m363.87 104.95h1.6316v8.1051l4.8419-4.2598h2.0726l-5.2388 4.6214 5.4592 5.2564h-2.1167l-5.0183-4.8242v4.8242h-1.6316v-13.723"/>
  <path id="path3228" style="" d="m377.59 109.93c-0.87019 0-1.5581 0.34102-2.0638 1.023-0.50565 0.67616-0.75848 1.6051-0.75847 2.7869-0.00001 1.1818 0.24988 2.1137 0.74965 2.7958 0.50564 0.67616 1.1965 1.0142 2.0726 1.0142 0.86429 0 1.5493-0.34102 2.0549-1.0231 0.50564-0.68203 0.75847-1.611 0.75847-2.7869 0-1.17-0.25283-2.0961-0.75847-2.7781-0.50565-0.68791-1.1906-1.0319-2.0549-1.0319m0-1.3758c1.4111 0.00001 2.5194 0.45862 3.3249 1.3758 0.8055 0.91722 1.2082 2.1872 1.2083 3.81-0.00001 1.6169-0.40276 2.8869-1.2083 3.81-0.80551 0.91722-1.9138 1.3758-3.3249 1.3758-1.417 0-2.5282-0.45861-3.3338-1.3758-0.79963-0.9231-1.1994-2.1931-1.1994-3.81 0-1.6228 0.39981-2.8928 1.1994-3.81 0.8055-0.91722 1.9168-1.3758 3.3338-1.3758m0.82902-3.5719h1.7904v1.7815h-1.7904v-1.7815m-3.4484 0h1.7904v1.7815h-1.7904v-1.7815"/>
  <path id="path3230" style="" d="m383.64 108.8h1.7198l3.0868 8.2903 3.0868-8.2903h1.7198l-3.7042 9.8778h-2.2049l-3.7042-9.8778"/>
  <path id="path3232" style="" d="m403.94 113.33v0.79375h-7.4612c0.0706 1.1171 0.40569 1.9697 1.0054 2.5576 0.6056 0.58209 1.4464 0.87313 2.5224 0.87313 0.62323 0 1.2259-0.0764 1.808-0.22931 0.58795-0.15287 1.17-0.38217 1.7462-0.68791v1.5346c-0.58209 0.24694-1.1789 0.43509-1.7904 0.56444-0.61148 0.12935-1.2318 0.19403-1.8609 0.19403-1.5757 0-2.8252-0.45861-3.7483-1.3758-0.91722-0.91722-1.3758-2.1578-1.3758-3.7218 0-1.6169 0.43509-2.8986 1.3053-3.8453 0.87606-0.95249 2.0549-1.4287 3.5366-1.4288 1.3288 0.00001 2.3783 0.42923 3.1485 1.2876 0.7761 0.85255 1.1642 2.0138 1.1642 3.4837m-1.6228-0.47625c-0.0118-0.88782-0.26165-1.5963-0.74965-2.1255-0.48214-0.52915-1.123-0.79374-1.9226-0.79374-0.90547 0-1.6316 0.25577-2.1784 0.76729-0.54093 0.51153-0.85255 1.2318-0.93486 2.1608l5.7856-0.009"/>
  <path id="path3234" style="" d="m408.21 105.99v2.8046h3.3426v1.2612h-3.3426v5.3622c-0.00001 0.80551 0.10877 1.3229 0.32632 1.5522 0.22342 0.22931 0.67321 0.34396 1.3494 0.34396h1.6669v1.3582h-1.6669c-1.2524 0-2.1167-0.23224-2.5929-0.69673-0.47625-0.47037-0.71438-1.3229-0.71438-2.5576v-5.3622h-1.1906v-1.2612h1.1906v-2.8046h1.6316"/>
  <path id="path3236" style="" d="m413.63 104.95h1.6316v8.1051l4.8419-4.2598h2.0726l-5.2387 4.6214 5.4592 5.2564h-2.1167l-5.0183-4.8242v4.8242h-1.6316v-13.723"/>
  <path id="path3238" style="" d="m431.98 113.33v0.79375h-7.4612c0.0706 1.1171 0.40569 1.9697 1.0054 2.5576 0.6056 0.58209 1.4464 0.87313 2.5224 0.87313 0.62323 0 1.2259-0.0764 1.808-0.22931 0.58795-0.15287 1.17-0.38217 1.7462-0.68791v1.5346c-0.58209 0.24694-1.1789 0.43509-1.7904 0.56444-0.61148 0.12935-1.2318 0.19403-1.8609 0.19403-1.5757 0-2.8252-0.45861-3.7483-1.3758-0.91722-0.91722-1.3758-2.1578-1.3758-3.7218 0-1.6169 0.43509-2.8986 1.3053-3.8453 0.87606-0.95249 2.0549-1.4287 3.5366-1.4288 1.3288 0.00001 2.3783 0.42923 3.1485 1.2876 0.7761 0.85255 1.1642 2.0138 1.1642 3.4837m-1.6228-0.47625c-0.0118-0.88782-0.26165-1.5963-0.74965-2.1255-0.48214-0.52915-1.123-0.79374-1.9226-0.79374-0.90547 0-1.6316 0.25577-2.1784 0.76729-0.54093 0.51153-0.85255 1.2318-0.93486 2.1608l5.7856-0.009"/>
  <path id="path3240" style="" d="m433.94 108.8h7.7082v1.4817l-6.103 7.0996h6.103v1.2964h-7.9287v-1.4817l6.103-7.0996h-5.8826v-1.2965"/>
  <path id="path3242" style="" d="m450.58 104.23h1.5699l-2.1872 3.3161h-1.1906l1.808-3.3161m-2.9457 0h1.4993l-1.9667 3.3161h-1.2083l1.6757-3.3161m0.32632 5.7062c-0.87019 0-1.5581 0.34102-2.0638 1.023-0.50565 0.67616-0.75847 1.6051-0.75847 2.7869s0.24988 2.1137 0.74965 2.7958c0.50565 0.67616 1.1965 1.0142 2.0726 1.0142 0.8643 0 1.5493-0.34102 2.0549-1.0231 0.50564-0.68203 0.75846-1.611 0.75847-2.7869-0.00001-1.17-0.25283-2.0961-0.75847-2.7781-0.50566-0.68791-1.1906-1.0319-2.0549-1.0319m0-1.3758c1.4111 0.00001 2.5194 0.45862 3.3249 1.3758 0.8055 0.91722 1.2082 2.1872 1.2083 3.81-0.00001 1.6169-0.40276 2.8869-1.2083 3.81-0.80552 0.91722-1.9138 1.3758-3.3249 1.3758-1.417 0-2.5282-0.45861-3.3338-1.3758-0.79963-0.9231-1.1994-2.1931-1.1994-3.81 0-1.6228 0.39981-2.8928 1.1994-3.81 0.80551-0.91722 1.9168-1.3758 3.3338-1.3758"/>
 </g>
 <g id="g166" stroke="#f62e2e" stroke-width="2" fill="none" transform="translate(-2.1519 -7.027)">
  <path id="line168" d="m252 205 10 10"/>
  <path id="line170" d="m252 215 10-10"/>
 </g>
 <g id="g172" stroke="#f62e2e" stroke-width="2" fill="none" transform="translate(-2.1519 -7.027)">
  <path id="line174" d="m354 205 10 10"/>
  <path id="line176" d="m354 215 10-10"/>
 </g>
 <g id="g178" transform="translate(-2.1519 -7.027)">
  <path id="path180" d="m240 330h130.26" stroke="#000" stroke-width="2" fill="none"/>
  <path id="polygon182" d="m370.26 330-2.5-5 10 5-10 5z"/>
  <path id="polygon184" d="m370.26 330-2.5-5 10 5-10 5z" stroke="#000" stroke-width="2" fill="none"/>
 </g>
 <g id="g186" stroke="#f62e2e" stroke-width="2" fill="none" transform="translate(-2.1519 -7.027)">
  <path id="line188" d="m300 325 10 10"/>
  <path id="line190" d="m300 335 10-10"/>
 </g>
 <g id="g192" transform="translate(-2.1519 -7.027)">
  <path id="rect194" fill="#fdfd04" d="m380 230h60v20h-60z"/>
  <path id="rect196" d="m380 230h60v20h-60z" stroke="#000" stroke-width="2" fill="none"/>
 </g>
 <g id="g198" transform="translate(-2.1519 -7.027)">
  <path id="rect200" fill="#fdfd04" d="m480 230h60v20h-60z"/>
  <path id="rect202" d="m480 230h60v20h-60z" stroke="#000" stroke-width="2" fill="none"/>
 </g>
 <g id="g204" transform="translate(-2.1519 -7.027)">
  <path id="rect206" fill="#fdfd04" d="m380 350h60v20h-60z"/>
  <path id="rect208" d="m380 350h60v20h-60z" stroke="#000" stroke-width="2" fill="none"/>
 </g>
 <g id="g210" transform="translate(-2.1519 -7.027)">
  <path id="rect212" fill="#fdfd04" d="m480 350h60v20h-60z"/>
  <path id="rect214" d="m480 350h60v20h-60z" stroke="#000" stroke-width="2" fill="none"/>
 </g>
 <path id="line216" d="m477.85 222.97 60 20" stroke="#000" stroke-width="2" fill="none"/>
 <path id="line218" d="m477.85 242.97 60-20" stroke="#000" stroke-width="2" fill="none"/>
 <path id="line220" d="m477.85 342.97 60 20" stroke="#000" stroke-width="2" fill="none"/>
 <path id="line222" d="m477.85 362.97 60-20" stroke="#000" stroke-width="2" fill="none"/>
 <g id="g224" transform="translate(-2.1519 -7.027)">
  <path id="rect226" fill="#fdfd04" d="m300 130h20v20h-20z"/>
  <path id="rect228" d="m300 130h20v20h-20z" stroke="#000" stroke-width="2" fill="none"/>
 </g>
 <g id="g230" transform="translate(-2.1519 -7.027)">
  <path id="rect232" fill="#fdfd04" d="m400 130h20v20h-20z"/>
  <path id="rect234" d="m400 130h20v20h-20z" stroke="#000" stroke-width="2" fill="none"/>
 </g>
</svg>
