<?xml version="1.0" encoding="UTF-8" standalone="no"?>
<!-- Created with Inkscape (http://www.inkscape.org/) -->
<svg id="svg2" xmlns:rdf="http://www.w3.org/1999/02/22-rdf-syntax-ns#" xmlns="http://www.w3.org/2000/svg" height="282.62" width="1587.6" version="1.1" xmlns:cc="http://creativecommons.org/ns#" xmlns:dc="http://purl.org/dc/elements/1.1/" viewBox="272 108 887.1487 144.45666">
 <metadata id="metadata292">
  <rdf:RDF>
   <cc:Work rdf:about="">
    <dc:format>image/svg+xml</dc:format>
    <dc:type rdf:resource="http://purl.org/dc/dcmitype/StillImage"/>
   </cc:Work>
  </rdf:RDF>
 </metadata>
 <g id="g4" transform="translate(-2.0961 -9.9892)">
  <path id="rect6" fill="#7babe3" d="m380 180h60v60h-60z"/>
  <path id="rect8" d="m380 180h60v60h-60z" stroke="#000" stroke-width="2" fill="none"/>
 </g>
 <g id="g10" transform="translate(-2.0961 -9.9892)">
  <path id="rect12" fill="#7be38e" d="m480 180h60v60h-60z"/>
  <path id="rect14" d="m480 180h60v60h-60z" stroke="#000" stroke-width="2" fill="none"/>
 </g>
 <g id="g16" transform="translate(-2.0961 -9.9892)">
  <path id="rect18" fill="#fdfd04" d="m320 200h20v20h-20z"/>
  <path id="rect20" d="m320 200h20v20h-20z" stroke="#000" stroke-width="2" fill="none"/>
 </g>
 <g id="g22" transform="translate(-2.0961 -9.9892)">
  <path id="path24" d="m440 240c40 0 0-30 30.264-30" stroke="#000" stroke-width="2" fill="none"/>
  <path id="polygon26" d="m470.26 210-2.5-5 10 5-10 5z"/>
  <path id="polygon28" d="m470.26 210-2.5-5 10 5-10 5z" stroke="#000" stroke-width="2" fill="none"/>
 </g>
 <g id="g30" transform="translate(-2.0961 -9.9892)">
  <path id="path32" d="m540 240c40 0 0-30 30.264-30" stroke="#000" stroke-width="2" fill="none"/>
  <path id="polygon34" d="m570.26 210-2.5-5 10 5-10 5z"/>
  <path id="polygon36" d="m570.26 210-2.5-5 10 5-10 5z" stroke="#000" stroke-width="2" fill="none"/>
 </g>
 <g id="text38">
  <path id="path3135" style="" d="m493.36 197.65c-0.20506-0.11905-0.42995-0.20504-0.67468-0.25796-0.23814-0.0595-0.50272-0.0893-0.79375-0.0893-1.0319 0.00001-1.8256 0.33735-2.3812 1.012-0.54902 0.66808-0.82352 1.6305-0.82352 2.8873v5.8539h-1.8356v-11.112h1.8356v1.7264c0.38364-0.67468 0.88304-1.1741 1.4982-1.4982 0.61515-0.33071 1.3626-0.49608 2.2424-0.49609 0.12567 0.00001 0.26457 0.01 0.41672 0.0298 0.15212 0.0132 0.32079 0.0364 0.50601 0.0695l0.01 1.8752"/>
  <path id="path3137" style="" d="m504.36 201.05v0.89296h-8.3939c0.0794 1.2568 0.45641 2.2159 1.1311 2.8774 0.68129 0.65484 1.6272 0.98226 2.8376 0.98226 0.70114 0 1.3791-0.086 2.034-0.25797 0.66145-0.17197 1.3163-0.42994 1.9645-0.7739v1.7264c-0.65485 0.27782-1.3262 0.48948-2.0141 0.635-0.68793 0.14553-1.3858 0.21829-2.0935 0.21829-1.7727 0-3.1783-0.51594-4.2168-1.5478-1.0319-1.0319-1.5478-2.4275-1.5478-4.187 0-1.819 0.48948-3.261 1.4684-4.3259 0.98557-1.0716 2.3118-1.6073 3.9787-1.6073 1.4949 0.00001 2.6756 0.48288 3.5421 1.4486 0.87312 0.95913 1.3097 2.2655 1.3097 3.9192m-1.8256-0.53579c-0.0132-0.99879-0.29435-1.7958-0.84335-2.3912-0.54241-0.5953-1.2634-0.89296-2.163-0.89297-1.0186 0.00001-1.8356 0.28775-2.4507 0.86321-0.60854 0.57547-0.95911 1.3858-1.0517 2.4309l6.5088-0.01m-1.7562-9.7036h1.9745l-3.2345 3.7306h-1.518l2.7781-3.7306"/>
  <path id="path3139" style="" d="m509.12 205.39v5.8936h-1.8356v-15.339h1.8356v1.6867c0.38364-0.66145 0.86651-1.1509 1.4486-1.4684 0.5887-0.3241 1.2898-0.48616 2.1034-0.48617 1.3494 0.00001 2.4441 0.53579 3.2841 1.6073 0.84666 1.0716 1.27 2.4805 1.27 4.2267-0.00001 1.7463-0.42334 3.1552-1.27 4.2267-0.84006 1.0716-1.9348 1.6074-3.2841 1.6074-0.8136 0-1.5147-0.15875-2.1034-0.47625-0.58208-0.32412-1.065-0.8169-1.4486-1.4784m6.2111-3.8795c-0.00001-1.3428-0.27782-2.3945-0.83343-3.1552-0.54902-0.76728-1.3064-1.1509-2.2721-1.1509-0.96574 0.00001-1.7264 0.38366-2.282 1.1509-0.54902 0.76068-0.82352 1.8124-0.82352 3.1552s0.2745 2.3978 0.82352 3.1651c0.55562 0.76068 1.3163 1.141 2.282 1.141 0.96572 0 1.7231-0.38034 2.2721-1.141 0.55561-0.76729 0.83342-1.8223 0.83343-3.1651"/>
  <path id="path3141" style="" d="m525.3 201.47c-1.4751 0-2.497 0.16867-3.0659 0.50601-0.56886 0.33735-0.85329 0.91282-0.85328 1.7264-0.00001 0.64823 0.21166 1.1642 0.635 1.5478 0.42994 0.37703 1.012 0.56555 1.7462 0.56555 1.012 0 1.8223-0.35719 2.4308-1.0716 0.61515-0.72098 0.92273-1.6768 0.92274-2.8674v-0.40679h-1.8157m3.6413-0.75407v6.3401h-1.8256v-1.6867c-0.41673 0.67469-0.93597 1.1741-1.5577 1.4982-0.62177 0.3175-1.3824 0.47625-2.282 0.47625-1.1377 0-2.0439-0.3175-2.7186-0.9525-0.66807-0.64162-1.0021-1.4982-1.0021-2.5698 0-1.2502 0.41672-2.1927 1.2502-2.8277 0.84005-0.635 2.0902-0.9525 3.7505-0.9525h2.5598v-0.1786c-0.00001-0.84004-0.27782-1.4883-0.83344-1.9447-0.54902-0.46301-1.3229-0.69452-2.3217-0.69453-0.635 0.00001-1.2535 0.0761-1.8554 0.22821-0.60193 0.15214-1.1807 0.38034-1.7363 0.68461v-1.6867c0.66807-0.25796 1.3163-0.44978 1.9447-0.57547 0.62838-0.13228 1.2402-0.19843 1.8356-0.19844 1.6073 0.00001 2.8079 0.41673 3.6016 1.2502 0.79374 0.83344 1.1906 2.0968 1.1906 3.7902"/>
 </g>
 <g id="text42">
  <path id="path3144" style="" d="m401.65 197.64v-6.0127h1.8256v15.438h-1.8256v-1.6669c-0.38366 0.66146-0.86983 1.1542-1.4585 1.4784-0.58209 0.3175-1.2832 0.47625-2.1034 0.47625-1.3428 0-2.4375-0.53579-3.2841-1.6074-0.84006-1.0716-1.2601-2.4805-1.2601-4.2267s0.42002-3.1551 1.2601-4.2267c0.84666-1.0716 1.9414-1.6073 3.2841-1.6073 0.8202 0.00001 1.5213 0.16207 2.1034 0.48617 0.58869 0.31751 1.0749 0.80699 1.4585 1.4684m-6.221 3.8794c0 1.3428 0.27451 2.3978 0.82352 3.1651 0.55562 0.76068 1.3163 1.141 2.282 1.141 0.96572 0 1.7264-0.38034 2.282-1.141 0.55562-0.76729 0.83343-1.8223 0.83344-3.1651-0.00001-1.3428-0.27782-2.3945-0.83344-3.1552-0.55563-0.76728-1.3163-1.1509-2.282-1.1509-0.96573 0.00001-1.7264 0.38366-2.282 1.1509-0.54901 0.76068-0.82352 1.8124-0.82352 3.1552"/>
  <path id="path3146" style="" d="m407.24 195.95h1.8256v11.112h-1.8256v-11.112m0-4.3259h1.8256v2.3118h-1.8256v-2.3118"/>
  <path id="path3148" style="" d="m417.18 197.23c-0.97896 0.00001-1.7529 0.38366-2.3217 1.1509-0.56885 0.76069-0.85328 1.8058-0.85328 3.1353s0.28112 2.378 0.84336 3.1452c0.56885 0.76068 1.3461 1.141 2.3316 1.141 0.97234 0 1.7429-0.38364 2.3118-1.1509 0.56884-0.76729 0.85327-1.8124 0.85328-3.1353-0.00001-1.3163-0.28444-2.3581-0.85328-3.1254-0.56886-0.77389-1.3395-1.1608-2.3118-1.1609m0-1.5478c1.5875 0.00001 2.8343 0.51595 3.7406 1.5478 0.90619 1.0319 1.3593 2.4606 1.3593 4.2862-0.00002 1.819-0.45311 3.2478-1.3593 4.2862-0.90621 1.0319-2.1531 1.5478-3.7406 1.5478-1.5941 0-2.8443-0.51594-3.7505-1.5478-0.89958-1.0385-1.3494-2.4672-1.3494-4.2862 0-1.8256 0.44979-3.2544 1.3494-4.2862 0.9062-1.0319 2.1564-1.5478 3.7505-1.5478m1.3791-4.8716h1.9745l-3.2345 3.7306h-1.518l2.7781-3.7306"/>
 </g>
 <g id="g46" transform="translate(-2.0961 -9.9892)">
  <path id="path48" d="m340 210h30.264" stroke="#000" stroke-width="2" fill="none"/>
  <path id="polygon50" d="m370.26 210-2.5-5 10 5-10 5z"/>
  <path id="polygon52" d="m370.26 210-2.5-5 10 5-10 5z" stroke="#000" stroke-width="2" fill="none"/>
 </g>
 <g id="text54">
  <path id="path3153" style="" d="m272 192.54h1.6228v13.723h-1.6228v-13.723"/>
  <path id="path3155" style="" d="m277.01 196.38h1.6228v9.8778h-1.6228v-9.8778m0-3.8453h1.6228v2.0549h-1.6228v-2.0549"/>
  <path id="path3157" style="" d="m288.32 196.67v1.5346c-0.45862-0.23518-0.93487-0.41157-1.4288-0.52917-0.49389-0.11758-1.0054-0.17638-1.5346-0.17639-0.80551 0.00001-1.4111 0.12348-1.8168 0.37042-0.39981 0.24695-0.59972 0.61737-0.59972 1.1112 0 0.3763 0.14405 0.67322 0.43216 0.89076 0.28809 0.21167 0.86724 0.41452 1.7374 0.60854l0.55563 0.12347c1.1524 0.24695 1.9697 0.59679 2.4518 1.0495 0.488 0.44686 0.73201 1.073 0.73201 1.8785 0 0.91723-0.36454 1.6434-1.0936 2.1784-0.7232 0.53505-1.7198 0.80257-2.9898 0.80257-0.52917 0-1.0819-0.0529-1.6581-0.15875-0.57032-0.1-1.173-0.25282-1.808-0.45861v-1.6757c0.59972 0.31162 1.1906 0.54681 1.7727 0.70555 0.58208 0.15288 1.1583 0.22931 1.7286 0.22931 0.76435 0 1.3523-0.12935 1.7639-0.38806 0.41157-0.26458 0.61735-0.63499 0.61736-1.1112-0.00001-0.44097-0.14994-0.77905-0.44979-1.0142-0.29399-0.23518-0.94369-0.46155-1.9491-0.6791l-0.56444-0.13229c-1.0054-0.21166-1.7316-0.53504-2.1784-0.97014-0.44685-0.44096-0.67028-1.0436-0.67028-1.808 0-0.92897 0.32926-1.6463 0.98778-2.1519 0.65852-0.50564 1.5934-0.75846 2.8046-0.75847 0.59972 0.00001 1.1642 0.0441 1.6933 0.13229 0.52916 0.0882 1.0172 0.22049 1.464 0.39687"/>
  <path id="path3159" style="" d="m293.04 193.58v2.8046h3.3426v1.2612h-3.3426v5.3622c0 0.80551 0.10877 1.3229 0.32632 1.5522 0.22342 0.2293 0.67322 0.34396 1.3494 0.34396h1.6669v1.3582h-1.6669c-1.2524 0-2.1167-0.23225-2.5929-0.69674-0.47625-0.47037-0.71437-1.3229-0.71437-2.5576v-5.3622h-1.1906v-1.2612h1.1906v-2.8046h1.6316"/>
  <path id="path3161" style="" d="m303.02 201.3c-1.3112 0-2.2196 0.14993-2.7252 0.44979-0.50565 0.29986-0.75848 0.81139-0.75847 1.5346-0.00001 0.57621 0.18814 1.0348 0.56444 1.3758 0.38217 0.33514 0.89958 0.50271 1.5522 0.50271 0.89958 0 1.6198-0.3175 2.1608-0.9525 0.5468-0.64088 0.8202-1.4905 0.82021-2.5488v-0.36159h-1.614m3.2367-0.67028v5.6356h-1.6228v-1.4993c-0.37042 0.59973-0.83197 1.0436-1.3846 1.3317-0.55269 0.28222-1.2288 0.42333-2.0285 0.42333-1.0113 0-1.8168-0.28222-2.4165-0.84666-0.59384-0.57033-0.89076-1.3317-0.89076-2.2842 0-1.1112 0.37042-1.9491 1.1112-2.5135 0.74671-0.56443 1.858-0.84666 3.3338-0.84666h2.2754v-0.15875c-0.00001-0.74671-0.24695-1.3229-0.74083-1.7286-0.48802-0.41157-1.1759-0.61735-2.0638-0.61736-0.56445 0.00001-1.1142 0.0676-1.6492 0.20285-0.53505 0.13524-1.0495 0.33808-1.5434 0.60854v-1.4993c0.59384-0.22929 1.17-0.3998 1.7286-0.51152 0.55856-0.11759 1.1024-0.17638 1.6316-0.17639 1.4287 0.00001 2.4959 0.37042 3.2014 1.1112 0.70555 0.74084 1.0583 1.8638 1.0583 3.369"/>
 </g>
 <g id="g58" transform="translate(-2.0961 -9.9892)">
  <path id="line60" d="m510 150v20.264" stroke="#000" stroke-width="2" fill="none"/>
  <path id="polygon62" d="m510 170.26 5-2.5-5 10-5-10z"/>
  <path id="polygon64" d="m510 170.26 5-2.5-5 10-5-10z" stroke="#000" stroke-width="2" fill="none"/>
 </g>
 <g id="text66">
  <path id="path3167" style="" d="m494.28 105.83h1.6228v9.8778h-1.6228v-9.8778m0-3.8453h1.6228v2.0549h-1.6228v-2.0549"/>
  <path id="path3169" style="" d="m500.89 103.03v2.8046h3.3426v1.2612h-3.3426v5.3622c0 0.80551 0.10877 1.3229 0.32632 1.5522 0.22342 0.22931 0.67321 0.34396 1.3494 0.34396h1.6669v1.3582h-1.6669c-1.2524 0-2.1167-0.23224-2.5929-0.69673-0.47625-0.47037-0.71438-1.3229-0.71437-2.5576v-5.3622h-1.1906v-1.2612h1.1906v-2.8046h1.6316"/>
  <path id="path3171" style="" d="m514.83 110.37v0.79375h-7.4612c0.0705 1.1171 0.40569 1.9697 1.0054 2.5576 0.6056 0.58209 1.4464 0.87313 2.5224 0.87312 0.62323 0.00001 1.2259-0.0764 1.808-0.2293 0.58796-0.15287 1.17-0.38217 1.7462-0.68792v1.5346c-0.58209 0.24694-1.1789 0.43509-1.7903 0.56444-0.61149 0.12935-1.2318 0.19403-1.8609 0.19403-1.5757 0-2.8252-0.45861-3.7482-1.3758-0.91723-0.91721-1.3758-2.1578-1.3758-3.7218 0-1.6169 0.43509-2.8986 1.3053-3.8453 0.87606-0.95249 2.0549-1.4287 3.5366-1.4288 1.3288 0.00001 2.3783 0.42922 3.1485 1.2876 0.7761 0.85255 1.1642 2.0138 1.1642 3.4837m-1.63-0.47c-0.0118-0.88782-0.26165-1.5963-0.74965-2.1255-0.48214-0.52915-1.123-0.79374-1.9226-0.79375-0.90547 0.00001-1.6316 0.25578-2.1784 0.76729-0.54093 0.51154-0.85255 1.2318-0.93486 2.1608l5.7856-0.009"/>
  <path id="path3173" style="" d="m523.21 107.35c-0.18228-0.10582-0.38219-0.18226-0.59972-0.22931-0.21168-0.0529-0.44686-0.0794-0.70556-0.0794-0.91723 0.00001-1.6228 0.29987-2.1167 0.89958-0.48802 0.59385-0.73202 1.4493-0.73202 2.5665v5.2035h-1.6316v-9.8778h1.6316v1.5346c0.34102-0.59971 0.78493-1.0436 1.3317-1.3317 0.5468-0.29397 1.2112-0.44096 1.9932-0.44097 0.11171 0.00001 0.23518 0.009 0.37042 0.0265 0.13522 0.0118 0.28515 0.0323 0.44979 0.0617l0.009 1.6669"/>
 </g>
 <g id="g70" transform="translate(-2.0961 -9.9892)">
  <path id="rect72" fill="#7babe3" d="m580 180h60v60h-60z"/>
  <path id="rect74" d="m580 180h60v60h-60z" stroke="#000" stroke-width="2" fill="none"/>
 </g>
 <g id="text76">
  <path id="path3178" style="" d="m583.58 191.62h1.8356v9.1182l5.4471-4.7923h2.3316l-5.8936 5.1991 6.1416 5.9134h-2.3812l-5.6456-5.4273v5.4273h-1.8356v-15.438"/>
  <path id="path3180" style="" d="m599.02 197.23c-0.97896 0.00001-1.7529 0.38366-2.3217 1.1509-0.56885 0.76069-0.85328 1.8058-0.85328 3.1353s0.28112 2.378 0.84336 3.1452c0.56885 0.76068 1.3461 1.141 2.3316 1.141 0.97234 0 1.7429-0.38364 2.3118-1.1509 0.56884-0.76729 0.85327-1.8124 0.85328-3.1353-0.00001-1.3163-0.28444-2.3581-0.85328-3.1254-0.56886-0.77389-1.3395-1.1608-2.3118-1.1609m0-1.5478c1.5875 0.00001 2.8343 0.51595 3.7406 1.5478 0.90619 1.0319 1.3593 2.4606 1.3593 4.2862-0.00002 1.819-0.45311 3.2478-1.3593 4.2862-0.90621 1.0319-2.1531 1.5478-3.7406 1.5478-1.5941 0-2.8443-0.51594-3.7505-1.5478-0.89958-1.0385-1.3494-2.4672-1.3494-4.2862 0-1.8256 0.44979-3.2544 1.3494-4.2862 0.9062-1.0319 2.1564-1.5478 3.7505-1.5478m0.93266-4.0184h2.0141v2.0042h-2.0141v-2.0042m-3.8795 0h2.0142v2.0042h-2.0142v-2.0042"/>
  <path id="path3182" style="" d="m613.57 197.65c-0.20506-0.11905-0.42995-0.20504-0.67469-0.25796-0.23813-0.0595-0.50271-0.0893-0.79375-0.0893-1.0319 0.00001-1.8256 0.33735-2.3812 1.012-0.54901 0.66808-0.82352 1.6305-0.82351 2.8873v5.8539h-1.8356v-11.112h1.8356v1.7264c0.38364-0.67468 0.88304-1.1741 1.4982-1.4982 0.61515-0.33071 1.3626-0.49608 2.2424-0.49609 0.12566 0.00001 0.26457 0.01 0.41671 0.0298 0.15213 0.0132 0.3208 0.0364 0.50602 0.0695l0.01 1.8752"/>
  <path id="path3184" style="" d="m617.31 192.79v3.1552h3.7604v1.4188h-3.7604v6.0325c-0.00001 0.9062 0.12236 1.4883 0.36711 1.7462 0.25135 0.25797 0.75736 0.38695 1.518 0.38695h1.8752v1.528h-1.8752c-1.4089 0-2.3812-0.26127-2.917-0.78383-0.53578-0.52916-0.80367-1.4883-0.80367-2.8773v-6.0325h-1.3394v-1.4188h1.3394v-3.1552h1.8356"/>
  <path id="path3186" style="" d="m632.99 201.05v0.89296h-8.3939c0.0794 1.2568 0.45641 2.2159 1.1311 2.8774 0.6813 0.65484 1.6272 0.98226 2.8376 0.98226 0.70114 0 1.3791-0.086 2.034-0.25797 0.66145-0.17197 1.3163-0.42994 1.9645-0.7739v1.7264c-0.65485 0.27782-1.3262 0.48948-2.0141 0.635-0.68793 0.14553-1.3858 0.21829-2.0935 0.21829-1.7727 0-3.1783-0.51594-4.2168-1.5478-1.0319-1.0319-1.5478-2.4275-1.5478-4.187 0-1.819 0.48948-3.261 1.4684-4.3259 0.98557-1.0716 2.3118-1.6073 3.9787-1.6073 1.4949 0.00001 2.6756 0.48288 3.5421 1.4486 0.87312 0.95913 1.3097 2.2655 1.3097 3.9192m-1.8256-0.53579c-0.0132-0.99879-0.29436-1.7958-0.84336-2.3912-0.54241-0.5953-1.2634-0.89296-2.163-0.89297-1.0186 0.00001-1.8356 0.28775-2.4507 0.86321-0.60854 0.57547-0.95911 1.3858-1.0517 2.4309l6.5088-0.01"/>
 </g>
 <g id="g80" transform="translate(-2.0961 -9.9892)">
  <path id="line82" d="m410 150v20.264" stroke="#000" stroke-width="2" fill="none"/>
  <path id="polygon84" d="m410 170.26 5-2.5-5 10-5-10z"/>
  <path id="polygon86" d="m410 170.26 5-2.5-5 10-5-10z" stroke="#000" stroke-width="2" fill="none"/>
 </g>
 <g id="text88">
  <path id="path3192" style="" d="m366.69 101.99h1.6228v13.723h-1.6228v-13.723"/>
  <path id="path3194" style="" d="m380.15 110.37v0.79375h-7.4612c0.0705 1.1171 0.40569 1.9697 1.0054 2.5576 0.60559 0.58209 1.4464 0.87313 2.5224 0.87312 0.62324 0.00001 1.2259-0.0764 1.808-0.2293 0.58795-0.15287 1.17-0.38217 1.7462-0.68792v1.5346c-0.5821 0.24694-1.1789 0.43509-1.7904 0.56444-0.61149 0.12935-1.2318 0.19403-1.8609 0.19403-1.5757 0-2.8252-0.45861-3.7483-1.3758-0.91722-0.91721-1.3758-2.1578-1.3758-3.7218 0-1.6169 0.43509-2.8986 1.3053-3.8453 0.87606-0.95249 2.0549-1.4287 3.5366-1.4288 1.3288 0.00001 2.3783 0.42922 3.1485 1.2876 0.7761 0.85255 1.1642 2.0138 1.1642 3.4837m-1.62-0.47c-0.0118-0.88782-0.26166-1.5963-0.74966-2.1255-0.48213-0.52915-1.123-0.79374-1.9226-0.79375-0.90547 0.00001-1.6316 0.25578-2.1784 0.76729-0.54093 0.51154-0.85255 1.2318-0.93486 2.1608l5.7856-0.009"/>
  <path id="path3196" style="" d="m390.5 107.73c0.40568-0.72907 0.89075-1.267 1.4552-1.614 0.56444-0.34689 1.2288-0.52034 1.9932-0.52035 1.0289 0.00001 1.8227 0.36161 2.3812 1.0848 0.55855 0.71733 0.83783 1.7404 0.83785 3.0692v5.9619h-1.6316v-5.909c-0.00001-0.94661-0.16758-1.6492-0.5027-2.1078-0.33516-0.4586-0.84668-0.68791-1.5346-0.68792-0.84079 0.00001-1.5052 0.27929-1.9932 0.83785-0.48802 0.55857-0.73202 1.32-0.73201 2.2842v5.5827h-1.6316v-5.909c0-0.95249-0.16757-1.6551-0.5027-2.1078-0.33515-0.4586-0.85256-0.68791-1.5522-0.68792-0.82904 0.00001-1.4876 0.28223-1.9756 0.84667-0.48801 0.55857-0.73201 1.317-0.73201 2.2754v5.5827h-1.6316v-9.8778h1.6316v1.5346c0.37041-0.60559 0.81432-1.0524 1.3317-1.3406 0.51741-0.28809 1.1318-0.43214 1.8433-0.43215 0.7173 0.00001 1.3258 0.18228 1.8256 0.54681 0.50564 0.36454 0.87899 0.89371 1.1201 1.5875"/>
  <path id="path3198" style="" d="m404.91 110.75c-1.3112 0.00001-2.2196 0.14994-2.7252 0.44979-0.50565 0.29987-0.75847 0.81139-0.75847 1.5346 0 0.57621 0.18814 1.0348 0.56444 1.3758 0.38217 0.33514 0.89958 0.5027 1.5522 0.5027 0.89958 0 1.6198-0.31749 2.1608-0.9525 0.5468-0.64087 0.8202-1.4905 0.82021-2.5488v-0.3616h-1.614m3.2367-0.67028v5.6356h-1.6228v-1.4993c-0.37042 0.59972-0.83197 1.0436-1.3846 1.3317-0.55269 0.28223-1.2288 0.42334-2.0285 0.42334-1.0113 0-1.8168-0.28223-2.4165-0.84667-0.59385-0.57032-0.89077-1.3317-0.89077-2.2842 0-1.1112 0.37042-1.9491 1.1112-2.5135 0.74671-0.56444 1.858-0.84666 3.3338-0.84667h2.2754v-0.15875c-0.00001-0.7467-0.24695-1.3229-0.74083-1.7286-0.48802-0.41156-1.1759-0.61735-2.0638-0.61736-0.56445 0.00001-1.1142 0.0676-1.6492 0.20285-0.53505 0.13524-1.0495 0.33809-1.5434 0.60854v-1.4993c0.59384-0.2293 1.17-0.39981 1.7286-0.51153 0.55856-0.11758 1.1024-0.17638 1.6316-0.17639 1.4287 0.00001 2.4959 0.37043 3.2014 1.1112 0.70555 0.74084 1.0583 1.8638 1.0583 3.369"/>
  <path id="path3200" style="" d="m417.22 107.35c-0.18227-0.10582-0.38218-0.18226-0.59972-0.22931-0.21167-0.0529-0.44686-0.0794-0.70555-0.0794-0.91723 0.00001-1.6228 0.29987-2.1167 0.89958-0.48801 0.59385-0.73202 1.4493-0.73201 2.5665v5.2035h-1.6316v-9.8778h1.6316v1.5346c0.34101-0.59971 0.78492-1.0436 1.3317-1.3317 0.5468-0.29397 1.2112-0.44096 1.9932-0.44097 0.11171 0.00001 0.23518 0.009 0.37042 0.0265 0.13522 0.0118 0.28516 0.0323 0.44979 0.0617l0.009 1.6669"/>
  <path id="path3202" style="" d="m423.43 110.75c-1.3112 0.00001-2.2196 0.14994-2.7252 0.44979-0.50565 0.29987-0.75848 0.81139-0.75847 1.5346-0.00001 0.57621 0.18814 1.0348 0.56444 1.3758 0.38217 0.33514 0.89958 0.5027 1.5522 0.5027 0.89958 0 1.6198-0.31749 2.1608-0.9525 0.5468-0.64087 0.8202-1.4905 0.82021-2.5488v-0.3616h-1.614m3.2367-0.67028v5.6356h-1.6228v-1.4993c-0.37042 0.59972-0.83197 1.0436-1.3846 1.3317-0.55269 0.28223-1.2288 0.42334-2.0285 0.42334-1.0113 0-1.8168-0.28223-2.4165-0.84667-0.59384-0.57032-0.89076-1.3317-0.89076-2.2842 0-1.1112 0.37042-1.9491 1.1112-2.5135 0.74671-0.56444 1.858-0.84666 3.3338-0.84667h2.2754v-0.15875c-0.00001-0.7467-0.24695-1.3229-0.74083-1.7286-0.48802-0.41156-1.1759-0.61735-2.0638-0.61736-0.56445 0.00001-1.1142 0.0676-1.6492 0.20285-0.53505 0.13524-1.0495 0.33809-1.5434 0.60854v-1.4993c0.59383-0.2293 1.17-0.39981 1.7286-0.51153 0.55856-0.11758 1.1024-0.17638 1.6316-0.17639 1.4287 0.00001 2.4959 0.37043 3.2014 1.1112 0.70555 0.74084 1.0583 1.8638 1.0583 3.369"/>
  <path id="path3204" style="" d="m436.51 107.33v-5.3446h1.6228v13.723h-1.6228v-1.4817c-0.34102 0.58796-0.77317 1.026-1.2964 1.3141-0.51742 0.28223-1.1406 0.42334-1.8697 0.42334-1.1936 0-2.1666-0.47625-2.9192-1.4288-0.74672-0.9525-1.1201-2.2049-1.1201-3.7571s0.37335-2.8046 1.1201-3.7571c0.75258-0.95249 1.7257-1.4287 2.9192-1.4288 0.72907 0.00001 1.3523 0.14406 1.8697 0.43215 0.52328 0.28224 0.95543 0.71733 1.2964 1.3053m-5.5298 3.4484c0 1.1936 0.244 2.1314 0.73201 2.8134 0.49389 0.67616 1.17 1.0142 2.0285 1.0142 0.85842 0 1.5346-0.33807 2.0285-1.0142 0.49388-0.68203 0.74083-1.6198 0.74083-2.8134s-0.24695-2.1284-0.74083-2.8046c-0.49389-0.68203-1.17-1.023-2.0285-1.023-0.85843 0-1.5346 0.34102-2.0285 1.023-0.48801 0.67616-0.73201 1.611-0.73201 2.8046"/>
  <path id="path3206" style="" d="m445.31 106.97c-0.87019 0.00001-1.5581 0.34103-2.0638 1.0231-0.50565 0.67616-0.75848 1.6051-0.75847 2.7869-0.00001 1.1818 0.24988 2.1137 0.74965 2.7958 0.50564 0.67616 1.1965 1.0142 2.0726 1.0142 0.86429 0.00001 1.5493-0.34101 2.0549-1.023 0.50564-0.68203 0.75847-1.611 0.75847-2.7869 0-1.17-0.25283-2.0961-0.75847-2.7781-0.50565-0.68791-1.1906-1.0319-2.0549-1.0319m0-1.3758c1.4111 0.00001 2.5194 0.45862 3.3249 1.3758 0.8055 0.91723 1.2082 2.1872 1.2083 3.81-0.00001 1.6169-0.40276 2.8869-1.2083 3.81-0.80551 0.91723-1.9138 1.3758-3.3249 1.3758-1.417 0-2.5282-0.45861-3.3338-1.3758-0.79963-0.92309-1.1994-2.1931-1.1994-3.81 0-1.6228 0.39981-2.8928 1.1994-3.81 0.8055-0.91721 1.9168-1.3758 3.3338-1.3758m1.2259-4.3303h1.7551l-2.8751 3.3161h-1.3494l2.4694-3.3161"/>
 </g>
 <g id="g92" transform="translate(-2.0961 -9.9892)">
  <path id="line94" d="m610 150v20.264" stroke="#000" stroke-width="2" fill="none"/>
  <path id="polygon96" d="m610 170.26 5-2.5-5 10-5-10z"/>
  <path id="polygon98" d="m610 170.26 5-2.5-5 10-5-10z" stroke="#000" stroke-width="2" fill="none"/>
 </g>
 <g id="text100">
  <path id="path3212" style="" d="m563.92 101.99h1.6316v8.1051l4.8419-4.2598h2.0726l-5.2388 4.6214 5.4592 5.2564h-2.1167l-5.0183-4.8242v4.8242h-1.6316v-13.723"/>
  <path id="path3214" style="" d="m577.64 106.97c-0.87019 0.00001-1.5581 0.34103-2.0637 1.0231-0.50565 0.67616-0.75848 1.6051-0.75848 2.7869s0.24989 2.1137 0.74966 2.7958c0.50564 0.67616 1.1965 1.0142 2.0726 1.0142 0.8643 0.00001 1.5493-0.34101 2.0549-1.023 0.50564-0.68203 0.75846-1.611 0.75847-2.7869-0.00001-1.17-0.25283-2.0961-0.75847-2.7781-0.50565-0.68791-1.1906-1.0319-2.0549-1.0319m0-1.3758c1.4111 0.00001 2.5194 0.45862 3.3249 1.3758 0.8055 0.91723 1.2082 2.1872 1.2083 3.81-0.00001 1.6169-0.40276 2.8869-1.2083 3.81-0.80552 0.91723-1.9138 1.3758-3.3249 1.3758-1.417 0-2.5282-0.45861-3.3337-1.3758-0.79963-0.92309-1.1994-2.1931-1.1994-3.81 0-1.6228 0.39982-2.8928 1.1994-3.81 0.8055-0.91721 1.9168-1.3758 3.3337-1.3758m0.82903-3.5719h1.7903v1.7815h-1.7903v-1.7815m-3.4484 0h1.7904v1.7815h-1.7904v-1.7815"/>
  <path id="path3216" style="" d="m583.69 105.83h1.7198l3.0868 8.2903 3.0868-8.2903h1.7198l-3.7042 9.8778h-2.2048l-3.7042-9.8778"/>
  <path id="path3218" style="" d="m604 110.37v0.79375h-7.4612c0.0706 1.1171 0.40569 1.9697 1.0054 2.5576 0.60559 0.58209 1.4464 0.87313 2.5224 0.87312 0.62324 0.00001 1.2259-0.0764 1.808-0.2293 0.58795-0.15287 1.17-0.38217 1.7462-0.68792v1.5346c-0.5821 0.24694-1.1789 0.43509-1.7904 0.56444-0.61149 0.12935-1.2318 0.19403-1.8609 0.19403-1.5757 0-2.8252-0.45861-3.7483-1.3758-0.91722-0.91721-1.3758-2.1578-1.3758-3.7218 0-1.6169 0.43509-2.8986 1.3053-3.8453 0.87606-0.95249 2.0549-1.4287 3.5366-1.4288 1.3288 0.00001 2.3783 0.42922 3.1485 1.2876 0.7761 0.85255 1.1642 2.0138 1.1642 3.4837m-1.63-0.47c-0.0118-0.88782-0.26166-1.5963-0.74966-2.1255-0.48213-0.52915-1.123-0.79374-1.9226-0.79375-0.90547 0.00001-1.6316 0.25578-2.1784 0.76729-0.54093 0.51154-0.85255 1.2318-0.93486 2.1608l5.7856-0.009"/>
  <path id="path3220" style="" d="m608.27 103.03v2.8046h3.3426v1.2612h-3.3426v5.3622c-0.00001 0.80551 0.10877 1.3229 0.32631 1.5522 0.22343 0.22931 0.67322 0.34396 1.3494 0.34396h1.6669v1.3582h-1.6669c-1.2524 0-2.1167-0.23224-2.5929-0.69673-0.47625-0.47037-0.71437-1.3229-0.71437-2.5576v-5.3622h-1.1906v-1.2612h1.1906v-2.8046h1.6316"/>
  <path id="path3222" style="" d="m613.69 101.99h1.6316v8.1051l4.8419-4.2598h2.0726l-5.2387 4.6214 5.4592 5.2564h-2.1167l-5.0182-4.8242v4.8242h-1.6316v-13.723"/>
  <path id="path3224" style="" d="m632.03 110.37v0.79375h-7.4612c0.0705 1.1171 0.40569 1.9697 1.0054 2.5576 0.60559 0.58209 1.4464 0.87313 2.5224 0.87312 0.62324 0.00001 1.2259-0.0764 1.808-0.2293 0.58795-0.15287 1.17-0.38217 1.7462-0.68792v1.5346c-0.5821 0.24694-1.1789 0.43509-1.7904 0.56444-0.61149 0.12935-1.2318 0.19403-1.8609 0.19403-1.5757 0-2.8252-0.45861-3.7483-1.3758-0.91722-0.91721-1.3758-2.1578-1.3758-3.7218 0-1.6169 0.43509-2.8986 1.3053-3.8453 0.87606-0.95249 2.0549-1.4287 3.5366-1.4288 1.3288 0.00001 2.3783 0.42922 3.1485 1.2876 0.7761 0.85255 1.1642 2.0138 1.1642 3.4837m-1.62-0.47c-0.0118-0.88782-0.26166-1.5963-0.74966-2.1255-0.48213-0.52915-1.123-0.79374-1.9226-0.79375-0.90547 0.00001-1.6316 0.25578-2.1784 0.76729-0.54093 0.51154-0.85255 1.2318-0.93486 2.1608l5.7856-0.009"/>
  <path id="path3226" style="" d="m633.99 105.83h7.7082v1.4817l-6.103 7.0996h6.103v1.2964h-7.9287v-1.4817l6.103-7.0996h-5.8826v-1.2964"/>
  <path id="path3228" style="" d="m650.63 101.26h1.5699l-2.1872 3.3161h-1.1906l1.808-3.3161m-2.9457 0h1.4993l-1.9667 3.3161h-1.2083l1.6757-3.3161m0.32632 5.7062c-0.87019 0.00001-1.5581 0.34103-2.0638 1.0231-0.50565 0.67616-0.75847 1.6051-0.75847 2.7869s0.24988 2.1137 0.74965 2.7958c0.50564 0.67616 1.1965 1.0142 2.0726 1.0142 0.8643 0.00001 1.5493-0.34101 2.0549-1.023 0.50564-0.68203 0.75846-1.611 0.75847-2.7869-0.00001-1.17-0.25283-2.0961-0.75847-2.7781-0.50566-0.68791-1.1906-1.0319-2.0549-1.0319m0-1.3758c1.4111 0.00001 2.5194 0.45862 3.3249 1.3758 0.8055 0.91723 1.2083 2.1872 1.2083 3.81-0.00001 1.6169-0.40277 2.8869-1.2083 3.81-0.80551 0.91723-1.9138 1.3758-3.3249 1.3758-1.417 0-2.5282-0.45861-3.3338-1.3758-0.79963-0.92309-1.1994-2.1931-1.1994-3.81 0-1.6228 0.39981-2.8928 1.1994-3.81 0.80551-0.91721 1.9168-1.3758 3.3338-1.3758"/>
 </g>
 <g id="g104" stroke="#f62e2e" stroke-width="2" fill="none" transform="translate(-2.0961 -9.9892)">
  <path id="line106" d="m454 208 10 10"/>
  <path id="line108" d="m454 218 10-10"/>
 </g>
 <g id="g110" transform="translate(-2.0961 -9.9892)">
  <path id="rect112" fill="#7babe3" d="m880 180h60v60h-60z"/>
  <path id="rect114" d="m880 180h60v60h-60z" stroke="#000" stroke-width="2" fill="none"/>
 </g>
 <g id="g116" transform="translate(-2.0961 -9.9892)">
  <path id="rect118" fill="#cbeed1" d="m980 180h60v60h-60z"/>
  <path id="rect120" d="m980 180h60v60h-60z" stroke="#ccc" stroke-width="2" fill="none"/>
 </g>
 <g id="g122" transform="translate(-2.0961 -9.9892)">
  <path id="rect124" fill="#fdfd04" d="m820 200h20v20h-20z"/>
  <path id="rect126" d="m820 200h20v20h-20z" stroke="#000" stroke-width="2" fill="none"/>
 </g>
 <g id="text128" fill="#ccc">
  <path id="path3239" style="" d="m993.36 197.65c-0.20506-0.11905-0.42995-0.20504-0.67469-0.25796-0.23813-0.0595-0.50271-0.0893-0.79375-0.0893-1.0319 0.00001-1.8256 0.33735-2.3812 1.012-0.54901 0.66808-0.82351 1.6305-0.82351 2.8873v5.8539h-1.8356v-11.112h1.8356v1.7264c0.38364-0.67468 0.88304-1.1741 1.4982-1.4982 0.61515-0.33071 1.3626-0.49608 2.2424-0.49609 0.12567 0.00001 0.26457 0.01 0.41671 0.0298 0.15213 0.0132 0.3208 0.0364 0.50602 0.0695l0.01 1.8752"/>
  <path id="path3241" style="" d="m1004.4 201.05v0.89296h-8.3939c0.0794 1.2568 0.45641 2.2159 1.1311 2.8774 0.68129 0.65484 1.6272 0.98226 2.8376 0.98226 0.70116 0 1.3792-0.086 2.034-0.25797 0.6615-0.17197 1.3163-0.42994 1.9646-0.7739v1.7264c-0.6549 0.27782-1.3263 0.48948-2.0142 0.635-0.6879 0.14553-1.3857 0.21829-2.0935 0.21829-1.7727 0-3.1783-0.51594-4.2168-1.5478-1.0319-1.0319-1.5478-2.4275-1.5478-4.187 0-1.819 0.48948-3.261 1.4684-4.3259 0.98557-1.0716 2.3118-1.6073 3.9787-1.6073 1.4949 0.00001 2.6756 0.48288 3.5421 1.4486 0.8731 0.95913 1.3097 2.2655 1.3097 3.9192m-1.8256-0.53579c-0.013-0.99879-0.2944-1.7958-0.8434-2.3912-0.5424-0.5953-1.2634-0.89296-2.163-0.89297-1.0187 0.00001-1.8356 0.28775-2.4507 0.86321-0.60854 0.57547-0.95911 1.3858-1.0517 2.4309l6.5088-0.01m-1.7562-9.7036h1.9745l-3.2346 3.7306h-1.518l2.7781-3.7306"/>
  <path id="path3243" style="" d="m1009.1 205.39v5.8936h-1.8355v-15.339h1.8355v1.6867c0.3836-0.66145 0.8665-1.1509 1.4486-1.4684 0.5887-0.3241 1.2898-0.48616 2.1034-0.48617 1.3494 0.00001 2.4441 0.53579 3.2842 1.6073 0.8466 1.0716 1.27 2.4805 1.27 4.2267 0 1.7463-0.4234 3.1552-1.27 4.2267-0.8401 1.0716-1.9348 1.6074-3.2842 1.6074-0.8136 0-1.5147-0.15875-2.1034-0.47625-0.5821-0.32412-1.065-0.8169-1.4486-1.4784m6.2111-3.8795c0-1.3428-0.2778-2.3945-0.8334-3.1552-0.5491-0.76728-1.3064-1.1509-2.2722-1.1509-0.9657 0.00001-1.7264 0.38366-2.282 1.1509-0.549 0.76068-0.8235 1.8124-0.8235 3.1552s0.2745 2.3978 0.8235 3.1651c0.5556 0.76068 1.3163 1.141 2.282 1.141 0.9658 0 1.7231-0.38034 2.2722-1.141 0.5556-0.76729 0.8334-1.8223 0.8334-3.1651"/>
  <path id="path3245" style="" d="m1025.3 201.47c-1.4751 0-2.497 0.16867-3.0659 0.50601-0.5688 0.33735-0.8533 0.91282-0.8533 1.7264 0 0.64823 0.2117 1.1642 0.635 1.5478 0.43 0.37703 1.0121 0.56555 1.7463 0.56555 1.012 0 1.8223-0.35719 2.4308-1.0716 0.6152-0.72098 0.9228-1.6768 0.9228-2.8674v-0.40679h-1.8157m3.6413-0.75407v6.3401h-1.8256v-1.6867c-0.4167 0.67469-0.936 1.1741-1.5578 1.4982-0.6217 0.3175-1.3824 0.47625-2.282 0.47625-1.1377 0-2.0439-0.3175-2.7186-0.9525-0.6681-0.64162-1.0021-1.4982-1.0021-2.5698 0-1.2502 0.4167-2.1927 1.2502-2.8277 0.84-0.635 2.0902-0.9525 3.7504-0.9525h2.5599v-0.1786c0-0.84004-0.2778-1.4883-0.8335-1.9447-0.549-0.46301-1.3229-0.69452-2.3217-0.69453-0.635 0.00001-1.2534 0.0761-1.8554 0.22821-0.6019 0.15214-1.1807 0.38034-1.7363 0.68461v-1.6867c0.6681-0.25796 1.3163-0.44978 1.9447-0.57547 0.6284-0.13228 1.2402-0.19843 1.8355-0.19844 1.6074 0.00001 2.8079 0.41673 3.6017 1.2502 0.7937 0.83344 1.1906 2.0968 1.1906 3.7902"/>
 </g>
 <g id="text132">
  <path id="path3248" style="" d="m901.65 197.64v-6.0127h1.8256v15.438h-1.8256v-1.6669c-0.38366 0.66146-0.86983 1.1542-1.4585 1.4784-0.58209 0.3175-1.2832 0.47625-2.1034 0.47625-1.3428 0-2.4375-0.53579-3.2841-1.6074-0.84006-1.0716-1.2601-2.4805-1.2601-4.2267s0.42002-3.1551 1.2601-4.2267c0.84666-1.0716 1.9414-1.6073 3.2841-1.6073 0.8202 0.00001 1.5213 0.16207 2.1034 0.48617 0.58869 0.31751 1.0749 0.80699 1.4585 1.4684m-6.221 3.8794c0 1.3428 0.27451 2.3978 0.82352 3.1651 0.55562 0.76068 1.3163 1.141 2.282 1.141 0.96572 0 1.7264-0.38034 2.282-1.141 0.55562-0.76729 0.83343-1.8223 0.83344-3.1651-0.00001-1.3428-0.27782-2.3945-0.83344-3.1552-0.55563-0.76728-1.3163-1.1509-2.282-1.1509-0.96573 0.00001-1.7264 0.38366-2.282 1.1509-0.54901 0.76068-0.82352 1.8124-0.82352 3.1552"/>
  <path id="path3250" style="" d="m907.24 195.95h1.8256v11.112h-1.8256v-11.112m0-4.3259h1.8256v2.3118h-1.8256v-2.3118"/>
  <path id="path3252" style="" d="m917.18 197.23c-0.97896 0.00001-1.7529 0.38366-2.3217 1.1509-0.56885 0.76069-0.85328 1.8058-0.85328 3.1353s0.28112 2.378 0.84336 3.1452c0.56885 0.76068 1.3461 1.141 2.3316 1.141 0.97234 0 1.7429-0.38364 2.3118-1.1509 0.56884-0.76729 0.85327-1.8124 0.85328-3.1353-0.00001-1.3163-0.28444-2.3581-0.85328-3.1254-0.56886-0.77389-1.3395-1.1608-2.3118-1.1609m0-1.5478c1.5875 0.00001 2.8343 0.51595 3.7406 1.5478 0.90619 1.0319 1.3593 2.4606 1.3593 4.2862-0.00001 1.819-0.45311 3.2478-1.3593 4.2862-0.90621 1.0319-2.153 1.5478-3.7406 1.5478-1.5941 0-2.8443-0.51594-3.7505-1.5478-0.89958-1.0385-1.3494-2.4672-1.3494-4.2862 0-1.8256 0.44979-3.2544 1.3494-4.2862 0.9062-1.0319 2.1564-1.5478 3.7505-1.5478m1.3791-4.8716h1.9745l-3.2345 3.7306h-1.518l2.7781-3.7306"/>
 </g>
 <g id="g136" transform="translate(-2.0961 -9.9892)">
  <path id="path138" d="m840 210h30.264" stroke="#000" stroke-width="2" fill="none"/>
  <path id="polygon140" d="m870.26 210-2.5-5 10 5-10 5z"/>
  <path id="polygon142" d="m870.26 210-2.5-5 10 5-10 5z" stroke="#000" stroke-width="2" fill="none"/>
 </g>
 <g id="text144">
  <path id="path3257" style="" d="m772 192.54h1.6228v13.723h-1.6228v-13.723"/>
  <path id="path3259" style="" d="m777.01 196.38h1.6228v9.8778h-1.6228v-9.8778m0-3.8453h1.6228v2.0549h-1.6228v-2.0549"/>
  <path id="path3261" style="" d="m788.32 196.67v1.5346c-0.45862-0.23518-0.93487-0.41157-1.4288-0.52917-0.49389-0.11758-1.0054-0.17638-1.5346-0.17639-0.80551 0.00001-1.4111 0.12348-1.8168 0.37042-0.39982 0.24695-0.59973 0.61737-0.59973 1.1112 0 0.3763 0.14405 0.67322 0.43216 0.89076 0.28809 0.21167 0.86724 0.41452 1.7374 0.60854l0.55563 0.12347c1.1524 0.24695 1.9697 0.59679 2.4518 1.0495 0.488 0.44686 0.73201 1.073 0.73201 1.8785 0 0.91723-0.36454 1.6434-1.0936 2.1784-0.7232 0.53505-1.7198 0.80257-2.9898 0.80257-0.52917 0-1.0819-0.0529-1.6581-0.15875-0.57032-0.1-1.173-0.25282-1.808-0.45861v-1.6757c0.59972 0.31162 1.1906 0.54681 1.7727 0.70555 0.58207 0.15288 1.1583 0.22931 1.7286 0.22931 0.76435 0 1.3523-0.12935 1.7639-0.38806 0.41157-0.26458 0.61735-0.63499 0.61736-1.1112-0.00001-0.44097-0.14994-0.77905-0.44979-1.0142-0.29399-0.23518-0.94368-0.46155-1.9491-0.6791l-0.56445-0.13229c-1.0054-0.21166-1.7316-0.53504-2.1784-0.97014-0.44685-0.44096-0.67028-1.0436-0.67028-1.808 0-0.92897 0.32926-1.6463 0.98778-2.1519 0.65852-0.50564 1.5934-0.75846 2.8046-0.75847 0.59972 0.00001 1.1642 0.0441 1.6933 0.13229 0.52916 0.0882 1.0172 0.22049 1.464 0.39687"/>
  <path id="path3263" style="" d="m793.04 193.58v2.8046h3.3426v1.2612h-3.3426v5.3622c0 0.80551 0.10877 1.3229 0.32632 1.5522 0.22343 0.2293 0.67322 0.34396 1.3494 0.34396h1.6669v1.3582h-1.6669c-1.2524 0-2.1167-0.23225-2.5929-0.69674-0.47625-0.47037-0.71437-1.3229-0.71437-2.5576v-5.3622h-1.1906v-1.2612h1.1906v-2.8046h1.6316"/>
  <path id="path3265" style="" d="m803.02 201.3c-1.3112 0-2.2196 0.14993-2.7252 0.44979-0.50565 0.29986-0.75848 0.81139-0.75847 1.5346-0.00001 0.57621 0.18814 1.0348 0.56444 1.3758 0.38217 0.33514 0.89958 0.50271 1.5522 0.50271 0.89958 0 1.6198-0.3175 2.1608-0.9525 0.5468-0.64088 0.8202-1.4905 0.82021-2.5488v-0.36159h-1.614m3.2367-0.67028v5.6356h-1.6228v-1.4993c-0.37042 0.59973-0.83197 1.0436-1.3846 1.3317-0.55269 0.28222-1.2288 0.42333-2.0285 0.42333-1.0113 0-1.8168-0.28222-2.4165-0.84666-0.59384-0.57033-0.89076-1.3317-0.89076-2.2842 0-1.1112 0.37042-1.9491 1.1112-2.5135 0.74671-0.56443 1.858-0.84666 3.3338-0.84666h2.2754v-0.15875c-0.00001-0.74671-0.24695-1.3229-0.74083-1.7286-0.48802-0.41157-1.1759-0.61735-2.0638-0.61736-0.56445 0.00001-1.1142 0.0676-1.6492 0.20285-0.53505 0.13524-1.0495 0.33808-1.5434 0.60854v-1.4993c0.59384-0.22929 1.17-0.3998 1.7286-0.51152 0.55856-0.11759 1.1024-0.17638 1.6316-0.17639 1.4287 0.00001 2.4959 0.37042 3.2014 1.1112 0.70555 0.74084 1.0583 1.8638 1.0583 3.369"/>
 </g>
 <g id="text148">
  <path id="path3268" style="" d="m1094.3 105.83h1.6228v9.8778h-1.6228v-9.8778m0-3.8453h1.6228v2.0549h-1.6228v-2.0549"/>
  <path id="path3270" style="" d="m1100.9 103.03v2.8046h3.3425v1.2612h-3.3425v5.3622c0 0.80551 0.1088 1.3229 0.3263 1.5522 0.2234 0.22931 0.6732 0.34396 1.3494 0.34396h1.6668v1.3582h-1.6668c-1.2524 0-2.1167-0.23224-2.5929-0.69673-0.4763-0.47037-0.7144-1.3229-0.7144-2.5576v-5.3622h-1.1906v-1.2612h1.1906v-2.8046h1.6316"/>
  <path id="path3272" style="" d="m1114.8 110.37v0.79375h-7.4613c0.071 1.1171 0.4057 1.9697 1.0055 2.5576 0.6056 0.58209 1.4463 0.87313 2.5223 0.87312 0.6233 0.00001 1.2259-0.0764 1.808-0.2293 0.588-0.15287 1.17-0.38217 1.7463-0.68792v1.5346c-0.5821 0.24694-1.1789 0.43509-1.7904 0.56444s-1.2318 0.19403-1.8609 0.19403c-1.5757 0-2.8252-0.45861-3.7483-1.3758-0.9172-0.91721-1.3758-2.1578-1.3758-3.7218 0-1.6169 0.4351-2.8986 1.3053-3.8453 0.8761-0.95249 2.0549-1.4287 3.5366-1.4288 1.3288 0.00001 2.3783 0.42922 3.1485 1.2876 0.7761 0.85255 1.1642 2.0138 1.1642 3.4837m-1.6228-0.47625c-0.012-0.88782-0.2616-1.5963-0.7496-2.1255-0.4822-0.52915-1.1231-0.79374-1.9227-0.79375-0.9054 0.00001-1.6316 0.25578-2.1784 0.76729-0.5409 0.51154-0.8525 1.2318-0.9348 2.1608l5.7855-0.009"/>
  <path id="path3274" style="" d="m1123.2 107.35c-0.1823-0.10582-0.3822-0.18226-0.5998-0.22931-0.2116-0.0529-0.4468-0.0794-0.7055-0.0794-0.9172 0.00001-1.6228 0.29987-2.1167 0.89958-0.488 0.59385-0.732 1.4493-0.732 2.5665v5.2035h-1.6316v-9.8778h1.6316v1.5346c0.341-0.59971 0.7849-1.0436 1.3317-1.3317 0.5468-0.29397 1.2112-0.44096 1.9932-0.44097 0.1117 0.00001 0.2352 0.009 0.3705 0.0265 0.1352 0.0118 0.2851 0.0323 0.4497 0.0617l0.01 1.6669"/>
 </g>
 <g id="g152" transform="translate(-2.0961 -9.9892)">
  <path id="rect154" fill="#7babe3" d="m1080 180h60v60h-60z"/>
  <path id="rect156" d="m1080 180h60v60h-60z" stroke="#000" stroke-width="2" fill="none"/>
 </g>
 <g id="text158">
  <path id="path3279" style="" d="m1083.6 191.62h1.8355v9.1182l5.4471-4.7923h2.3317l-5.8936 5.1991 6.1416 5.9134h-2.3813l-5.6455-5.4273v5.4273h-1.8355v-15.438"/>
  <path id="path3281" style="" d="m1099 197.23c-0.979 0.00001-1.7529 0.38366-2.3217 1.1509-0.5689 0.76069-0.8533 1.8058-0.8533 3.1353s0.2811 2.378 0.8434 3.1452c0.5688 0.76068 1.346 1.141 2.3316 1.141 0.9723 0 1.7429-0.38364 2.3118-1.1509 0.5688-0.76729 0.8533-1.8124 0.8533-3.1353 0-1.3163-0.2845-2.3581-0.8533-3.1254-0.5689-0.77389-1.3395-1.1608-2.3118-1.1609m0-1.5478c1.5875 0.00001 2.8343 0.51595 3.7405 1.5478 0.9062 1.0319 1.3593 2.4606 1.3593 4.2862 0 1.819-0.4531 3.2478-1.3593 4.2862-0.9062 1.0319-2.153 1.5478-3.7405 1.5478-1.5941 0-2.8443-0.51594-3.7505-1.5478-0.8996-1.0385-1.3494-2.4672-1.3494-4.2862 0-1.8256 0.4498-3.2544 1.3494-4.2862 0.9062-1.0319 2.1564-1.5478 3.7505-1.5478m0.9326-4.0184h2.0142v2.0042h-2.0142v-2.0042m-3.8794 0h2.0141v2.0042h-2.0141v-2.0042"/>
  <path id="path3283" style="" d="m1113.6 197.65c-0.2051-0.11905-0.43-0.20504-0.6747-0.25796-0.2381-0.0595-0.5027-0.0893-0.7938-0.0893-1.0318 0.00001-1.8256 0.33735-2.3812 1.012-0.549 0.66808-0.8235 1.6305-0.8235 2.8873v5.8539h-1.8356v-11.112h1.8356v1.7264c0.3836-0.67468 0.883-1.1741 1.4982-1.4982 0.6151-0.33071 1.3626-0.49608 2.2423-0.49609 0.1257 0.00001 0.2646 0.01 0.4167 0.0298 0.1522 0.0132 0.3208 0.0364 0.5061 0.0695l0.01 1.8752"/>
  <path id="path3285" style="" d="m1117.3 192.79v3.1552h3.7604v1.4188h-3.7604v6.0325c0 0.9062 0.1224 1.4883 0.3671 1.7462 0.2514 0.25797 0.7574 0.38695 1.5181 0.38695h1.8752v1.528h-1.8752c-1.4089 0-2.3813-0.26127-2.917-0.78383-0.5358-0.52916-0.8037-1.4883-0.8037-2.8773v-6.0325h-1.3395v-1.4188h1.3395v-3.1552h1.8355"/>
  <path id="path3287" style="" d="m1133 201.05v0.89296h-8.3939c0.079 1.2568 0.4564 2.2159 1.1311 2.8774 0.6813 0.65484 1.6272 0.98226 2.8376 0.98226 0.7012 0 1.3792-0.086 2.034-0.25797 0.6615-0.17197 1.3163-0.42994 1.9645-0.7739v1.7264c-0.6548 0.27782-1.3262 0.48948-2.0141 0.635-0.6879 0.14553-1.3858 0.21829-2.0935 0.21829-1.7727 0-3.1783-0.51594-4.2168-1.5478-1.0319-1.0319-1.5478-2.4275-1.5478-4.187 0-1.819 0.4895-3.261 1.4684-4.3259 0.9856-1.0716 2.3118-1.6073 3.9787-1.6073 1.4949 0.00001 2.6756 0.48288 3.5421 1.4486 0.8731 0.95913 1.3097 2.2655 1.3097 3.9192m-1.8256-0.53579c-0.013-0.99879-0.2944-1.7958-0.8434-2.3912-0.5424-0.5953-1.2634-0.89296-2.163-0.89297-1.0186 0.00001-1.8355 0.28775-2.4507 0.86321-0.6085 0.57547-0.9591 1.3858-1.0517 2.4309l6.5088-0.01"/>
 </g>
 <g id="g162" transform="translate(-2.0961 -9.9892)">
  <path id="line164" d="m910 150v20.264" stroke="#000" stroke-width="2" fill="none"/>
  <path id="polygon166" d="m910 170.26 5-2.5-5 10-5-10z"/>
  <path id="polygon168" d="m910 170.26 5-2.5-5 10-5-10z" stroke="#000" stroke-width="2" fill="none"/>
 </g>
 <g id="text170">
  <path id="path3293" style="" d="m866.69 101.99h1.6228v13.723h-1.6228v-13.723"/>
  <path id="path3295" style="" d="m880.15 110.37v0.79375h-7.4612c0.0705 1.1171 0.40569 1.9697 1.0054 2.5576 0.60559 0.58209 1.4464 0.87313 2.5224 0.87312 0.62324 0.00001 1.2259-0.0764 1.808-0.2293 0.58795-0.15287 1.17-0.38217 1.7462-0.68792v1.5346c-0.5821 0.24694-1.1789 0.43509-1.7904 0.56444-0.61149 0.12935-1.2318 0.19403-1.8609 0.19403-1.5757 0-2.8252-0.45861-3.7483-1.3758-0.91722-0.91721-1.3758-2.1578-1.3758-3.7218 0-1.6169 0.43509-2.8986 1.3053-3.8453 0.87606-0.95249 2.0549-1.4287 3.5366-1.4288 1.3288 0.00001 2.3783 0.42922 3.1485 1.2876 0.7761 0.85255 1.1642 2.0138 1.1642 3.4837m-1.62-0.47c-0.0118-0.88782-0.26165-1.5963-0.74966-2.1255-0.48213-0.52915-1.123-0.79374-1.9226-0.79375-0.90547 0.00001-1.6316 0.25578-2.1784 0.76729-0.54093 0.51154-0.85255 1.2318-0.93486 2.1608l5.7856-0.009"/>
  <path id="path3297" style="" d="m890.5 107.73c0.40568-0.72907 0.89075-1.267 1.4552-1.614 0.56444-0.34689 1.2288-0.52034 1.9932-0.52035 1.0289 0.00001 1.8227 0.36161 2.3812 1.0848 0.55855 0.71733 0.83783 1.7404 0.83785 3.0692v5.9619h-1.6316v-5.909c-0.00001-0.94661-0.16758-1.6492-0.5027-2.1078-0.33516-0.4586-0.84668-0.68791-1.5346-0.68792-0.8408 0.00001-1.5052 0.27929-1.9932 0.83785-0.48802 0.55857-0.73202 1.32-0.73201 2.2842v5.5827h-1.6316v-5.909c-0.00001-0.95249-0.16758-1.6551-0.50271-2.1078-0.33515-0.4586-0.85255-0.68791-1.5522-0.68792-0.82903 0.00001-1.4876 0.28223-1.9756 0.84667-0.48801 0.55857-0.73201 1.317-0.73201 2.2754v5.5827h-1.6316v-9.8778h1.6316v1.5346c0.37041-0.60559 0.81432-1.0524 1.3317-1.3406 0.5174-0.28809 1.1318-0.43214 1.8433-0.43215 0.7173 0.00001 1.3258 0.18228 1.8256 0.54681 0.50564 0.36454 0.87899 0.89371 1.1201 1.5875"/>
  <path id="path3299" style="" d="m904.91 110.75c-1.3112 0.00001-2.2196 0.14994-2.7252 0.44979-0.50565 0.29987-0.75847 0.81139-0.75847 1.5346 0 0.57621 0.18814 1.0348 0.56444 1.3758 0.38217 0.33514 0.89958 0.5027 1.5522 0.5027 0.89958 0 1.6198-0.31749 2.1608-0.9525 0.5468-0.64087 0.8202-1.4905 0.82021-2.5488v-0.3616h-1.614m3.2367-0.67028v5.6356h-1.6228v-1.4993c-0.37042 0.59972-0.83197 1.0436-1.3846 1.3317-0.55269 0.28223-1.2288 0.42334-2.0285 0.42334-1.0113 0-1.8168-0.28223-2.4165-0.84667-0.59385-0.57032-0.89077-1.3317-0.89077-2.2842 0-1.1112 0.37042-1.9491 1.1112-2.5135 0.74671-0.56444 1.858-0.84666 3.3338-0.84667h2.2754v-0.15875c-0.00001-0.7467-0.24695-1.3229-0.74083-1.7286-0.48802-0.41156-1.1759-0.61735-2.0638-0.61736-0.56445 0.00001-1.1142 0.0676-1.6492 0.20285-0.53505 0.13524-1.0495 0.33809-1.5434 0.60854v-1.4993c0.59384-0.2293 1.17-0.39981 1.7286-0.51153 0.55856-0.11758 1.1024-0.17638 1.6316-0.17639 1.4287 0.00001 2.4959 0.37043 3.2015 1.1112 0.70554 0.74084 1.0583 1.8638 1.0583 3.369"/>
  <path id="path3301" style="" d="m917.22 107.35c-0.18227-0.10582-0.38218-0.18226-0.59972-0.22931-0.21167-0.0529-0.44686-0.0794-0.70555-0.0794-0.91723 0.00001-1.6228 0.29987-2.1167 0.89958-0.48801 0.59385-0.73201 1.4493-0.73201 2.5665v5.2035h-1.6316v-9.8778h1.6316v1.5346c0.34101-0.59971 0.78492-1.0436 1.3317-1.3317 0.5468-0.29397 1.2112-0.44096 1.9932-0.44097 0.11171 0.00001 0.23518 0.009 0.37042 0.0265 0.13523 0.0118 0.28516 0.0323 0.44979 0.0617l0.009 1.6669"/>
  <path id="path3303" style="" d="m923.43 110.75c-1.3112 0.00001-2.2196 0.14994-2.7252 0.44979-0.50565 0.29987-0.75847 0.81139-0.75847 1.5346 0 0.57621 0.18814 1.0348 0.56444 1.3758 0.38217 0.33514 0.89958 0.5027 1.5522 0.5027 0.89958 0 1.6198-0.31749 2.1608-0.9525 0.5468-0.64087 0.8202-1.4905 0.82021-2.5488v-0.3616h-1.614m3.2367-0.67028v5.6356h-1.6228v-1.4993c-0.37042 0.59972-0.83197 1.0436-1.3846 1.3317-0.55269 0.28223-1.2288 0.42334-2.0285 0.42334-1.0113 0-1.8168-0.28223-2.4165-0.84667-0.59385-0.57032-0.89077-1.3317-0.89077-2.2842 0-1.1112 0.37042-1.9491 1.1112-2.5135 0.74671-0.56444 1.858-0.84666 3.3338-0.84667h2.2754v-0.15875c-0.00001-0.7467-0.24695-1.3229-0.74083-1.7286-0.48802-0.41156-1.1759-0.61735-2.0638-0.61736-0.56445 0.00001-1.1142 0.0676-1.6492 0.20285-0.53505 0.13524-1.0495 0.33809-1.5434 0.60854v-1.4993c0.59384-0.2293 1.17-0.39981 1.7286-0.51153 0.55856-0.11758 1.1024-0.17638 1.6316-0.17639 1.4287 0.00001 2.4959 0.37043 3.2014 1.1112 0.70555 0.74084 1.0583 1.8638 1.0583 3.369"/>
  <path id="path3305" style="" d="m936.51 107.33v-5.3446h1.6228v13.723h-1.6228v-1.4817c-0.34102 0.58796-0.77317 1.026-1.2964 1.3141-0.51742 0.28223-1.1406 0.42334-1.8697 0.42334-1.1936 0-2.1666-0.47625-2.9192-1.4288-0.74672-0.9525-1.1201-2.2049-1.1201-3.7571s0.37335-2.8046 1.1201-3.7571c0.75258-0.95249 1.7257-1.4287 2.9192-1.4288 0.72907 0.00001 1.3523 0.14406 1.8697 0.43215 0.52328 0.28224 0.95543 0.71733 1.2964 1.3053m-5.5298 3.4484c0 1.1936 0.244 2.1314 0.73201 2.8134 0.49389 0.67616 1.17 1.0142 2.0285 1.0142 0.85842 0 1.5346-0.33807 2.0285-1.0142 0.49388-0.68203 0.74083-1.6198 0.74083-2.8134s-0.24695-2.1284-0.74083-2.8046c-0.49389-0.68203-1.17-1.023-2.0285-1.023-0.85843 0-1.5346 0.34102-2.0285 1.023-0.48801 0.67616-0.73201 1.611-0.73201 2.8046"/>
  <path id="path3307" style="" d="m945.31 106.97c-0.87019 0.00001-1.5581 0.34103-2.0638 1.0231-0.50565 0.67616-0.75848 1.6051-0.75847 2.7869-0.00001 1.1818 0.24988 2.1137 0.74965 2.7958 0.50564 0.67616 1.1965 1.0142 2.0726 1.0142 0.86429 0.00001 1.5493-0.34101 2.0549-1.023 0.50564-0.68203 0.75847-1.611 0.75848-2.7869-0.00001-1.17-0.25284-2.0961-0.75848-2.7781-0.50565-0.68791-1.1906-1.0319-2.0549-1.0319m0-1.3758c1.4111 0.00001 2.5194 0.45862 3.3249 1.3758 0.8055 0.91723 1.2082 2.1872 1.2083 3.81-0.00002 1.6169-0.40277 2.8869-1.2083 3.81-0.80551 0.91723-1.9138 1.3758-3.3249 1.3758-1.417 0-2.5282-0.45861-3.3338-1.3758-0.79963-0.92309-1.1994-2.1931-1.1994-3.81 0-1.6228 0.39981-2.8928 1.1994-3.81 0.80551-0.91721 1.9168-1.3758 3.3338-1.3758m1.2259-4.3303h1.7551l-2.8751 3.3161h-1.3494l2.4694-3.3161"/>
 </g>
 <g id="g174" transform="translate(-2.0961 -9.9892)">
  <path id="line176" d="m1110 150v20.264" stroke="#000" stroke-width="2" fill="none"/>
  <path id="polygon178" d="m1110 170.26 5-2.5-5 10-5-10z"/>
  <path id="polygon180" d="m1110 170.26 5-2.5-5 10-5-10z" stroke="#000" stroke-width="2" fill="none"/>
 </g>
 <g id="text182" fill="#173b8f">
  <path id="path3313" style="" d="m467.89 132.01c-0.78787 1.3523-1.3729 2.6899-1.7551 4.0128-0.38218 1.3229-0.57327 2.6635-0.57327 4.0217s0.19109 2.7046 0.57327 4.0393c0.38805 1.3288 0.97307 2.6664 1.7551 4.0128h-1.4111c-0.88195-1.3817-1.5434-2.7399-1.9844-4.0746-0.43509-1.3347-0.65264-2.6605-0.65264-3.9776 0-1.3112 0.21755-2.6311 0.65264-3.9599s1.0966-2.687 1.9844-4.0746h1.4111"/>
  <path id="path3315" style="" d="m471.59 144.21h2.9104v-10.045l-3.1662 0.635v-1.6228l3.1485-0.635h1.7815v11.668h2.9104v1.4993h-7.5847v-1.4993"/>
  <path id="path3317" style="" d="m482.29 132.01h1.4111c0.88194 1.3876 1.5405 2.7458 1.9756 4.0746 0.44097 1.3288 0.66146 2.6488 0.66146 3.9599 0 1.317-0.22049 2.6429-0.66146 3.9776-0.43509 1.3347-1.0936 2.6929-1.9756 4.0746h-1.4111c0.78199-1.3464 1.3641-2.684 1.7462-4.0128 0.38805-1.3347 0.58208-2.6811 0.58208-4.0393s-0.19403-2.6987-0.58208-4.0217c-0.38218-1.3229-0.96426-2.6605-1.7462-4.0128"/>
 </g>
 <g id="text186" fill="#173b8f">
  <path id="path3320" style="" d="m500.7 243.11c-0.78787 1.3523-1.3729 2.6899-1.7551 4.0128-0.38218 1.3229-0.57327 2.6635-0.57327 4.0217s0.19109 2.7046 0.57327 4.0393c0.38805 1.3288 0.97307 2.6664 1.7551 4.0128h-1.4111c-0.88194-1.3817-1.5434-2.7399-1.9844-4.0746-0.43509-1.3347-0.65264-2.6605-0.65264-3.9776 0-1.3112 0.21755-2.6311 0.65264-3.9599s1.0966-2.687 1.9844-4.0746h1.4111"/>
  <path id="path3322" style="" d="m505.62 255.31h6.2177v1.4993h-8.3608v-1.4993c0.67616-0.69968 1.5963-1.6375 2.7605-2.8134 1.17-1.1818 1.905-1.9432 2.2049-2.2842 0.57031-0.64088 0.96719-1.1818 1.1906-1.6228 0.2293-0.44684 0.34395-0.88487 0.34396-1.3141-0.00001-0.69966-0.24695-1.27-0.74084-1.711-0.48801-0.44096-1.126-0.66144-1.9138-0.66145-0.55857 0.00001-1.1495 0.097-1.7727 0.29104-0.61736 0.19404-1.2788 0.48802-1.9844 0.88194v-1.7992c0.71731-0.28809 1.3876-0.50564 2.0108-0.65264 0.62324-0.14698 1.1936-0.22047 1.711-0.22049 1.3641 0.00002 2.4518 0.34103 3.2632 1.0231 0.81138 0.68204 1.2171 1.5934 1.2171 2.734-0.00001 0.54094-0.1029 1.0554-0.30868 1.5434-0.19991 0.48214-0.56739 1.0525-1.1024 1.711-0.147 0.17052-0.61443 0.66441-1.4023 1.4817-0.78787 0.81139-1.8991 1.9491-3.3337 3.4131"/>
  <path id="path3324" style="" d="m515.1 243.11h1.4111c0.88194 1.3876 1.5404 2.7458 1.9756 4.0746 0.44097 1.3288 0.66145 2.6488 0.66146 3.9599-0.00001 1.317-0.22049 2.6429-0.66146 3.9776-0.4351 1.3347-1.0936 2.6929-1.9756 4.0746h-1.4111c0.78199-1.3464 1.3641-2.684 1.7462-4.0128 0.38805-1.3347 0.58208-2.6811 0.58208-4.0393s-0.19403-2.6987-0.58208-4.0217c-0.38218-1.3229-0.96426-2.6605-1.7462-4.0128"/>
 </g>
 <g id="text190" fill="#173b8f">
  <path id="path3327" style="" d="m1140.7 122.01c-0.7879 1.3523-1.3729 2.6899-1.7551 4.0128s-0.5733 2.6635-0.5733 4.0217 0.1911 2.7046 0.5733 4.0393c0.388 1.3288 0.9731 2.6664 1.7551 4.0128h-1.4112c-0.8819-1.3817-1.5434-2.7399-1.9843-4.0746-0.4351-1.3347-0.6527-2.6605-0.6527-3.9776 0-1.3112 0.2176-2.6311 0.6527-3.9599s1.0965-2.687 1.9843-4.0746h1.4112"/>
  <path id="path3329" style="" d="m1149.5 128.61c0.8525 0.18228 1.5169 0.56151 1.9932 1.1377 0.4821 0.57621 0.7232 1.2876 0.7232 2.1343 0 1.2994-0.4469 2.3048-1.3406 3.0162-0.8937 0.71143-2.1637 1.0672-3.81 1.0672-0.5526 0-1.123-0.0559-1.7109-0.16757-0.5821-0.10583-1.1848-0.26752-1.808-0.48507v-1.7198c0.4939 0.2881 1.0348 0.50565 1.6228 0.65264 0.5879 0.14699 1.2023 0.22049 1.8432 0.22049 1.1172 0 1.9668-0.22049 2.5488-0.66146 0.588-0.44097 0.882-1.0818 0.882-1.9226 0-0.7761-0.2734-1.3817-0.8202-1.8168-0.541-0.44097-1.2965-0.66145-2.2666-0.66146h-1.5346v-1.464h1.6051c0.8761 0.00001 1.5464-0.17344 2.0109-0.52034 0.4645-0.35277 0.6967-0.85842 0.6967-1.517 0-0.67614-0.2411-1.1936-0.7232-1.5522-0.4762-0.36452-1.1612-0.54679-2.0549-0.5468-0.488 0.00001-1.0113 0.0529-1.5699 0.15875-0.5585 0.10584-1.173 0.27047-1.8432 0.49389v-1.5875c0.6761-0.18814 1.3082-0.32925 1.8961-0.42333 0.5939-0.0941 1.1524-0.1411 1.6757-0.14111 1.3523 0.00001 2.4224 0.30869 3.2103 0.92604 0.7879 0.61149 1.1818 1.4405 1.1818 2.4871 0 0.72908-0.2087 1.3464-0.6262 1.8521-0.4174 0.49977-1.0113 0.84667-1.7815 1.0407"/>
  <path id="path3331" style="" d="m1155.1 122.01h1.4111c0.8819 1.3876 1.5405 2.7458 1.9756 4.0746 0.4409 1.3288 0.6614 2.6488 0.6614 3.9599 0 1.317-0.2205 2.6429-0.6614 3.9776-0.4351 1.3347-1.0937 2.6929-1.9756 4.0746h-1.4111c0.782-1.3464 1.3641-2.684 1.7462-4.0128 0.3881-1.3347 0.5821-2.6811 0.5821-4.0393s-0.194-2.6987-0.5821-4.0217c-0.3821-1.3229-0.9642-2.6605-1.7462-4.0128"/>
 </g>
 <g id="g194" transform="translate(-2.0961 -9.9892)">
  <path id="rect196" fill="#fdfd04" d="m380 230h60v20h-60z"/>
  <path id="rect198" d="m380 230h60v20h-60z" stroke="#000" stroke-width="2" fill="none"/>
 </g>
 <g id="g200" transform="translate(-2.0961 -9.9892)">
  <path id="rect202" fill="#fdfd04" d="m480 230h60v20h-60z"/>
  <path id="rect204" d="m480 230h60v20h-60z" stroke="#000" stroke-width="2" fill="none"/>
 </g>
 <g id="g206" transform="translate(-2.0961 -9.9892)">
  <path id="rect208" fill="#fdfd04" d="m580 230h60v20h-60z"/>
  <path id="rect210" d="m580 230h60v20h-60z" stroke="#000" stroke-width="2" fill="none"/>
 </g>
 <path id="line212" d="m577.9 240.01 60-20" stroke="#000" stroke-width="2" fill="none"/>
 <path id="line214" d="m577.9 220.01 60 20" stroke="#000" stroke-width="2" fill="none"/>
 <g id="g216" transform="translate(-2.0961 -9.9892)">
  <path id="rect218" fill="#fdfd04" d="m400 130h20v20h-20z"/>
  <path id="rect220" d="m400 130h20v20h-20z" stroke="#000" stroke-width="2" fill="none"/>
 </g>
 <g id="g222" transform="translate(-2.0961 -9.9892)">
  <path id="rect224" fill="#fdfd04" d="m500 130h20v20h-20z"/>
  <path id="rect226" d="m500 130h20v20h-20z" stroke="#000" stroke-width="2" fill="none"/>
 </g>
 <g id="g228" transform="translate(-2.0961 -9.9892)">
  <path id="rect230" fill="#fdfd04" d="m600 130h20v20h-20z"/>
  <path id="rect232" d="m600 130h20v20h-20z" stroke="#000" stroke-width="2" fill="none"/>
 </g>
 <path id="line234" d="m477.9 160.01 60 90" stroke="#f62e2e" stroke-width="2" fill="none"/>
 <path id="line236" d="m477.9 250.01 60-90" stroke="#f62e2e" stroke-width="2" fill="none"/>
 <g id="g238" transform="translate(-2.0961 -9.9892)">
  <path id="rect240" fill="#fdfd04" d="m880 230h60v20h-60z"/>
  <path id="rect242" d="m880 230h60v20h-60z" stroke="#000" stroke-width="2" fill="none"/>
 </g>
 <g id="g244" transform="translate(-2.0961 -9.9892)">
  <path id="rect246" fill="#fdfd04" d="m1080 230h60v20h-60z"/>
  <path id="rect248" d="m1080 230h60v20h-60z" stroke="#000" stroke-width="2" fill="none"/>
 </g>
 <g id="g250" transform="translate(-2.0961 -9.9892)">
  <path id="rect252" fill="#e3e37b" d="m980 230h60v20h-60z"/>
  <path id="rect254" d="m980 230h60v20h-60z" stroke="#ccc" stroke-width="2" fill="none"/>
 </g>
 <path id="line256" d="m1077.9 240.01 60-20" stroke="#000" stroke-width="2" fill="none"/>
 <path id="line258" d="m1077.9 220.01 60 20" stroke="#000" stroke-width="2" fill="none"/>
 <g id="g260" transform="translate(-2.0961 -9.9892)">
  <path id="path262" d="m940 240c40 0 100-30 130.26-30" stroke="#000" stroke-width="2" fill="none"/>
  <path id="polygon264" d="m1070.3 210-2.5-5 10 5-10 5z"/>
  <path id="polygon266" d="m1070.3 210-2.5-5 10 5-10 5z" stroke="#000" stroke-width="2" fill="none"/>
 </g>
 <g id="g268" transform="translate(-2.0961 -9.9892)">
  <path id="path270" d="m440 210c30-20 10-50 70-50s40 30 61.899 44.599" stroke="#f62e2e" stroke-width="2" fill="none"/>
  <path id="polygon272" fill="#f62e2e" d="m571.9 204.6 0.693-5.547 5.547 9.708-11.094-1.387z"/>
  <path id="polygon274" d="m571.9 204.6 0.693-5.547 5.547 9.708-11.094-1.387z" stroke="#f62e2e" stroke-width="2" fill="none"/>
 </g>
 <g id="g276" transform="translate(-2.0961 -9.9892)">
  <path id="rect278" fill="#fdfd04" d="m900 130h20v20h-20z"/>
  <path id="rect280" d="m900 130h20v20h-20z" stroke="#000" stroke-width="2" fill="none"/>
 </g>
 <g id="g282" transform="translate(-2.0961 -9.9892)">
  <path id="rect284" fill="#fdfd04" d="m1100 130h20v20h-20z"/>
  <path id="rect286" d="m1100 130h20v20h-20z" stroke="#000" stroke-width="2" fill="none"/>
 </g>
</svg>
