<?xml version="1.0" encoding="UTF-8" standalone="no"?>
<!-- Created with Inkscape (http://www.inkscape.org/) -->
<svg id="svg2" xmlns:rdf="http://www.w3.org/1999/02/22-rdf-syntax-ns#" xmlns="http://www.w3.org/2000/svg" height="343.32" width="579.16" version="1.1" xmlns:cc="http://creativecommons.org/ns#" xmlns:dc="http://purl.org/dc/elements/1.1/" viewBox="152 113 316.32765 193.78679">
 <metadata id="metadata136">
  <rdf:RDF>
   <cc:Work rdf:about="">
    <dc:format>image/svg+xml</dc:format>
    <dc:type rdf:resource="http://purl.org/dc/dcmitype/StillImage"/>
   </cc:Work>
  </rdf:RDF>
 </metadata>
 <g id="g4" transform="translate(-7.3842 -3.5945)">
  <path id="path6" d="m220 170h90.264" stroke="#000" stroke-width="2" fill="none"/>
  <path id="polygon8" d="m310.26 170-2.5-5 10 5-10 5z"/>
  <path id="polygon10" d="m310.26 170-2.5-5 10 5-10 5z" stroke="#000" stroke-width="2" fill="none"/>
 </g>
 <g id="g12" transform="translate(-7.3842 -3.5945)">
  <path id="rect14" fill="#7babe3" d="m320 140h60v60h-60z"/>
  <path id="rect16" d="m320 140h60v60h-60z" stroke="#000" stroke-width="2" fill="none"/>
 </g>
 <g id="text18">
  <path id="path3051" style="" d="m316.17 120.12v4.8242h2.8575c0.95837 0.00001 1.6669-0.19696 2.1255-0.5909 0.46448-0.39981 0.69672-1.0084 0.69673-1.8256-0.00001-0.82314-0.23225-1.4287-0.69673-1.8168-0.45862-0.39393-1.1671-0.5909-2.1255-0.59091h-2.8575m0-5.4151v3.9688h2.637c0.87017 0 1.5169-0.16168 1.9403-0.48507 0.42921-0.32925 0.64381-0.82902 0.64382-1.4993-0.00001-0.66438-0.21461-1.1612-0.64382-1.4905-0.42334-0.32925-1.0701-0.49388-1.9403-0.49389h-2.637m-1.7815-1.464h4.5508c1.3582 0.00001 2.4048 0.28223 3.1397 0.84666 0.73494 0.56446 1.1024 1.367 1.1024 2.4077-0.00002 0.80551-0.18816 1.4464-0.56445 1.9226-0.3763 0.47626-0.92899 0.77318-1.658 0.89077 0.87605 0.18815 1.5552 0.58209 2.0373 1.1818 0.488 0.59385 0.732 1.3376 0.73201 2.2313-0.00001 1.1759-0.39982 2.0843-1.1994 2.7252-0.79964 0.64088-1.9374 0.96132-3.4131 0.96132h-4.7272v-13.167"/>
  <path id="path3053" style="" d="m335.15 121.06v0.79375h-7.4612c0.0706 1.1171 0.40569 1.9697 1.0054 2.5576 0.6056 0.58208 1.4464 0.87312 2.5224 0.87312 0.62323 0 1.2259-0.0764 1.808-0.2293 0.58796-0.15287 1.17-0.38218 1.7462-0.68792v1.5346c-0.58209 0.24695-1.1789 0.43509-1.7903 0.56445-0.61149 0.12935-1.2318 0.19402-1.8609 0.19402-1.5758 0-2.8252-0.45861-3.7483-1.3758-0.91723-0.91722-1.3758-2.1578-1.3758-3.7218-0.00001-1.6169 0.43509-2.8986 1.3053-3.8453 0.87606-0.95249 2.0549-1.4287 3.5366-1.4288 1.3288 0.00001 2.3783 0.42922 3.1485 1.2876 0.7761 0.85255 1.1642 2.0138 1.1642 3.4837m-1.6228-0.47625c-0.0118-0.88781-0.26165-1.5963-0.74965-2.1255-0.48214-0.52916-1.123-0.79374-1.9226-0.79375-0.90546 0.00001-1.6316 0.25577-2.1784 0.76729-0.54093 0.51154-0.85255 1.2318-0.93486 2.1608l5.7856-0.009"/>
  <path id="path3055" style="" d="m338.23 124.17h1.8609v2.2401h-1.8609v-2.2401m0-7.0996h1.8609v2.2401h-1.8609v-2.2401"/>
  <path id="path3057" style="" d="m353.93 119.11c-0.79963 0.00001-1.4346 0.27341-1.905 0.82021-0.46449 0.54681-0.69674 1.2965-0.69673 2.249-0.00001 0.94662 0.23224 1.6963 0.69673 2.249 0.47037 0.5468 1.1054 0.82021 1.905 0.8202 0.79962 0.00001 1.4317-0.2734 1.8962-0.8202 0.47036-0.55268 0.70554-1.3023 0.70555-2.249-0.00001-0.95249-0.23519-1.7021-0.70555-2.249-0.4645-0.5468-1.0966-0.8202-1.8962-0.82021m3.5366-5.5827v1.6228c-0.44686-0.21165-0.89959-0.37334-1.3582-0.48507-0.45274-0.1117-0.90253-0.16755-1.3494-0.16757-1.1759 0.00002-2.0755 0.39689-2.6988 1.1906-0.61736 0.79376-0.97014 1.9932-1.0583 3.5983 0.34689-0.51152 0.78198-0.90252 1.3053-1.173 0.52329-0.27633 1.0995-0.4145 1.7286-0.41451 1.3229 0.00001 2.3665 0.40276 3.1309 1.2083 0.77022 0.79964 1.1553 1.8903 1.1554 3.272-0.00001 1.3523-0.39983 2.4371-1.1994 3.2544-0.79964 0.81727-1.8638 1.2259-3.1926 1.2259-1.5228 0-2.687-0.58208-3.4925-1.7462-0.80551-1.17-1.2083-2.8634-1.2083-5.08 0-2.0814 0.49389-3.7394 1.4817-4.9742 0.98777-1.2406 2.3136-1.8609 3.9776-1.8609 0.44685 0.00001 0.89664 0.0441 1.3494 0.13229 0.4586 0.0882 0.93485 0.2205 1.4287 0.39688"/>
  <path id="path3059" style="" d="m361.58 124.17h1.8609v1.517l-1.4464 2.8222h-1.1377l0.72319-2.8222v-1.517"/>
  <path id="path3061" style="" d="m372.45 113.24h8.4667v0.75847l-4.7801 12.409h-1.8609l4.4979-11.668h-6.3235v-1.4993"/>
  <path id="path3063" style="" d="m384.58 124.17h1.8609v1.517l-1.4464 2.8222h-1.1377l0.72319-2.8222v-1.517"/>
  <path id="path3065" style="" d="m396.21 124.91h2.9104v-10.045l-3.1662 0.635v-1.6228l3.1485-0.63499h1.7815v11.668h2.9104v1.4993h-7.5847v-1.4993"/>
  <path id="path3067" style="" d="m407.71 124.91h2.9104v-10.045l-3.1662 0.635v-1.6228l3.1485-0.63499h1.7815v11.668h2.9104v1.4993h-7.5847v-1.4993"/>
  <path id="path3069" style="" d="m419.08 124.17h1.8609v1.517l-1.4464 2.8222h-1.1377l0.7232-2.8222v-1.517"/>
  <path id="path3071" style="" d="m436.56 124.17h1.8697v2.2401h-1.8697v-2.2401m6.006 0h1.8785v2.2401h-1.8785v-2.2401m-12.021 0h1.8785v2.2401h-1.8785v-2.2401"/>
 </g>
 <g id="g22" transform="translate(-7.3842 -3.5945)">
  <path id="rect24" fill="#7babe3" d="m420 140h60v60h-60z"/>
  <path id="rect26" d="m420 140h60v60h-60z" stroke="#000" stroke-width="2" fill="none"/>
 </g>
 <g id="g28" transform="translate(-7.3842 -3.5945)">
  <path id="rect30" fill="#7be38e" d="m240 230h60v60h-60z"/>
  <path id="rect32" d="m240 230h60v60h-60z" stroke="#000" stroke-width="2" fill="none"/>
 </g>
 <g id="g34" transform="translate(-7.3842 -3.5945)">
  <path id="rect36" fill="#fdfd04" d="m200 160h20v20h-20z"/>
  <path id="rect38" d="m200 160h20v20h-20z" stroke="#000" stroke-width="2" fill="none"/>
 </g>
 <g id="g40" transform="translate(-7.3842 -3.5945)">
  <path id="path42" d="m300 260c50-20-30-70 10.96-86.384" stroke="#f62e2e" stroke-width="2" fill="none"/>
  <path id="polygon44" fill="#f62e2e" d="m310.96 173.62-4.178-3.714 11.142 0.928-7.428 8.357z"/>
  <path id="polygon46" d="m310.96 173.62-4.178-3.714 11.142 0.928-7.428 8.357z" stroke="#f62e2e" stroke-width="2" fill="none"/>
 </g>
 <g id="g48" transform="translate(-7.3842 -3.5945)">
  <path id="path50" d="m380 200c40 0 0-30 30.264-30" stroke="#000" stroke-width="2" fill="none"/>
  <path id="polygon52" d="m410.26 170-2.5-5 10 5-10 5z"/>
  <path id="polygon54" d="m410.26 170-2.5-5 10 5-10 5z" stroke="#000" stroke-width="2" fill="none"/>
 </g>
 <g id="text56">
  <path id="path3084" style="" d="m442.93 164.84c-1.1994 0.00001-2.152 0.41011-2.8575 1.2303-0.69674 0.82021-1.0451 1.9447-1.0451 3.3734 0 1.4199 0.34837 2.5444 1.0451 3.3734 0.70554 0.82021 1.658 1.2303 2.8575 1.2303 1.1994 0.00001 2.1475-0.4101 2.8443-1.2303 0.70554-0.82902 1.0583-1.9535 1.0583-3.3734-0.00001-1.4287-0.35279-2.5532-1.0583-3.3734-0.69675-0.8202-1.6448-1.2303-2.8443-1.2303m5.3049-8.3741v2.4342c-0.67029-0.31749-1.3494-0.56002-2.0373-0.72761-0.6791-0.16755-1.3538-0.25133-2.0241-0.25135-1.7639 0.00002-3.1133 0.59533-4.0481 1.7859-0.92604 1.1906-1.4552 2.9898-1.5875 5.3975 0.52034-0.76728 1.173-1.3538 1.9579-1.7595 0.78492-0.4145 1.6492-0.62176 2.5929-0.62177 1.9844 0.00001 3.5498 0.60415 4.6964 1.8124 1.1553 1.1994 1.733 2.8354 1.733 4.908-0.00002 2.0285-0.59974 3.6557-1.7992 4.8816s-2.7958 1.8388-4.789 1.8388c-2.2842 0-4.0305-0.87313-5.2387-2.6194-1.2083-1.7551-1.8124-4.2951-1.8124-7.62-0.00001-3.1221 0.74083-5.6092 2.2225-7.4612 1.4817-1.8609 3.4704-2.7913 5.9664-2.7914 0.67027 0.00002 1.345 0.0662 2.0241 0.19844 0.6879 0.13231 1.4023 0.33075 2.1431 0.59531"/>
 </g>
 <g id="text60">
  <path id="path3087" style="" d="m336.21 156.03h12.7v1.1377l-7.1702 18.613h-2.7914l6.7469-17.502h-9.4853v-2.249"/>
 </g>
 <g id="text64">
  <path id="path3090" style="" d="m248.73 263.53h4.3656v-15.068l-4.7493 0.9525v-2.4342l4.7228-0.9525h2.6723v17.502h4.3656v2.249h-11.377v-2.249"/>
  <path id="path3092" style="" d="m265.98 263.53h4.3656v-15.068l-4.7493 0.9525v-2.4342l4.7228-0.9525h2.6723v17.502h4.3656v2.249h-11.377v-2.249"/>
 </g>
 <g id="text68" fill="#173b8f">
  <path id="path3095" style="" d="m265.41 290.7c-0.78788 1.3523-1.3729 2.6899-1.7551 4.0128-0.38218 1.3229-0.57327 2.6635-0.57326 4.0217-0.00001 1.3582 0.19108 2.7046 0.57326 4.0393 0.38805 1.3288 0.97307 2.6664 1.7551 4.0128h-1.4111c-0.88195-1.3817-1.5434-2.7399-1.9844-4.0746-0.43509-1.3347-0.65264-2.6605-0.65263-3.9776-0.00001-1.3112 0.21754-2.6311 0.65263-3.9599s1.0966-2.687 1.9844-4.0746h1.4111"/>
  <path id="path3097" style="" d="m269.11 302.91h2.9104v-10.045l-3.1662 0.635v-1.6228l3.1485-0.635h1.7815v11.668h2.9104v1.4993h-7.5847v-1.4993"/>
  <path id="path3099" style="" d="m279.81 290.7h1.4111c0.88194 1.3876 1.5405 2.7458 1.9756 4.0746 0.44097 1.3288 0.66146 2.6488 0.66146 3.9599 0 1.317-0.22049 2.6429-0.66146 3.9776-0.43509 1.3347-1.0936 2.6929-1.9756 4.0746h-1.4111c0.78199-1.3464 1.3641-2.684 1.7462-4.0128 0.38805-1.3347 0.58208-2.6811 0.58208-4.0393s-0.19403-2.6987-0.58208-4.0217c-0.38218-1.3229-0.96426-2.6605-1.7462-4.0128"/>
 </g>
 <g id="text72" fill="#173b8f">
  <path id="path3102" style="" d="m318.22 212.7c-0.78787 1.3523-1.3729 2.6899-1.7551 4.0128-0.38218 1.3229-0.57327 2.6635-0.57327 4.0217s0.19109 2.7046 0.57327 4.0393c0.38805 1.3288 0.97307 2.6664 1.7551 4.0128h-1.4111c-0.88194-1.3817-1.5434-2.7399-1.9844-4.0746-0.43509-1.3347-0.65264-2.6605-0.65264-3.9776 0-1.3112 0.21755-2.6311 0.65264-3.9599s1.0966-2.687 1.9844-4.0746h1.4111"/>
  <path id="path3104" style="" d="m323.14 224.91h6.2177v1.4993h-8.3608v-1.4993c0.67615-0.69967 1.5963-1.6375 2.7605-2.8134 1.17-1.1818 1.905-1.9432 2.2049-2.2842 0.57031-0.64088 0.96719-1.1818 1.1906-1.6228 0.2293-0.44684 0.34395-0.88487 0.34396-1.3141-0.00001-0.69966-0.24695-1.27-0.74083-1.711-0.48802-0.44096-1.126-0.66144-1.9138-0.66145-0.55857 0.00001-1.1495 0.097-1.7727 0.29104-0.61736 0.19404-1.2788 0.48802-1.9844 0.88194v-1.7992c0.71731-0.28809 1.3876-0.50564 2.0108-0.65264 0.62324-0.14698 1.1936-0.22047 1.711-0.22049 1.3641 0.00002 2.4518 0.34103 3.2632 1.0231 0.81138 0.68205 1.2171 1.5934 1.2171 2.734-0.00001 0.54094-0.1029 1.0554-0.30868 1.5434-0.19991 0.48214-0.56739 1.0525-1.1024 1.711-0.14699 0.17052-0.61442 0.66441-1.4023 1.4817-0.78787 0.81139-1.8991 1.9491-3.3337 3.4131"/>
  <path id="path3106" style="" d="m332.62 212.7h1.4111c0.88194 1.3876 1.5405 2.7458 1.9756 4.0746 0.44097 1.3288 0.66145 2.6488 0.66146 3.9599-0.00001 1.317-0.22049 2.6429-0.66146 3.9776-0.43509 1.3347-1.0936 2.6929-1.9756 4.0746h-1.4111c0.78199-1.3464 1.3641-2.684 1.7462-4.0128 0.38805-1.3347 0.58208-2.6811 0.58208-4.0393s-0.19403-2.6987-0.58208-4.0217c-0.38218-1.3229-0.96426-2.6605-1.7462-4.0128"/>
 </g>
 <g id="text76" fill="#173b8f">
  <path id="path3109" style="" d="m192.6 212.7c-0.78787 1.3523-1.3729 2.6899-1.7551 4.0128-0.38218 1.3229-0.57327 2.6635-0.57327 4.0217s0.19109 2.7046 0.57327 4.0393c0.38805 1.3288 0.97307 2.6664 1.7551 4.0128h-1.4111c-0.88194-1.3817-1.5434-2.7399-1.9844-4.0746-0.43509-1.3347-0.65264-2.6605-0.65264-3.9776 0-1.3112 0.21755-2.6311 0.65264-3.9599s1.0966-2.687 1.9844-4.0746h1.4111"/>
  <path id="path3111" style="" d="m201.39 219.31c0.85254 0.18227 1.5169 0.56151 1.9932 1.1377 0.48212 0.5762 0.72318 1.2876 0.72319 2.1343-0.00001 1.2994-0.44686 2.3048-1.3406 3.0162-0.89371 0.71144-2.1637 1.0672-3.81 1.0672-0.55269 0-1.123-0.0559-1.711-0.16757-0.58209-0.10584-1.1848-0.26753-1.808-0.48507v-1.7198c0.49389 0.2881 1.0348 0.50565 1.6228 0.65264 0.58796 0.14699 1.2024 0.22048 1.8433 0.22048 1.1171 0 1.9667-0.22048 2.5488-0.66145 0.58795-0.44097 0.88193-1.0818 0.88194-1.9226-0.00001-0.77611-0.27341-1.3817-0.82021-1.8168-0.54093-0.44097-1.2965-0.66146-2.2666-0.66146h-1.5346v-1.464h1.6051c0.87606 0.00001 1.5463-0.17344 2.0108-0.52034 0.46449-0.35277 0.69673-0.85842 0.69674-1.517-0.00001-0.67614-0.24107-1.1936-0.7232-1.5522-0.47625-0.36452-1.1612-0.54679-2.0549-0.5468-0.48802 0.00001-1.0113 0.0529-1.5699 0.15875-0.55857 0.10584-1.173 0.27047-1.8433 0.49389v-1.5875c0.67615-0.18814 1.3082-0.32925 1.8962-0.42334 0.59384-0.0941 1.1524-0.14109 1.6757-0.14111 1.3523 0.00002 2.4224 0.3087 3.2103 0.92604 0.78786 0.6115 1.1818 1.4405 1.1818 2.4871-0.00001 0.72909-0.20873 1.3464-0.62618 1.8521-0.41746 0.49977-1.0113 0.84667-1.7815 1.0407"/>
  <path id="path3113" style="" d="m207.01 212.7h1.4111c0.88194 1.3876 1.5405 2.7458 1.9756 4.0746 0.44097 1.3288 0.66145 2.6488 0.66146 3.9599-0.00001 1.317-0.22049 2.6429-0.66146 3.9776-0.43509 1.3347-1.0936 2.6929-1.9756 4.0746h-1.4111c0.78199-1.3464 1.3641-2.684 1.7462-4.0128 0.38805-1.3347 0.58208-2.6811 0.58208-4.0393s-0.19403-2.6987-0.58208-4.0217c-0.38218-1.3229-0.96426-2.6605-1.7462-4.0128"/>
 </g>
 <g id="g80" stroke="#f62e2e" stroke-width="2" fill="none" transform="translate(-7.3842 -3.5945)">
  <path id="line82" d="m264 164 10 10"/>
  <path id="line84" d="m264 174 10-10"/>
 </g>
 <g id="text86">
  <path id="path3118" style="" d="m146.71 158.93h1.6228v13.723h-1.6228v-13.723"/>
  <path id="path3120" style="" d="m151.72 162.78h1.6228v9.8778h-1.6228v-9.8778m0-3.8453h1.6228v2.0549h-1.6228v-2.0549"/>
  <path id="path3122" style="" d="m163.03 163.07v1.5346c-0.45862-0.23518-0.93487-0.41157-1.4288-0.52917-0.4939-0.11758-1.0054-0.17638-1.5346-0.17638-0.80552 0-1.4111 0.12348-1.8168 0.37041-0.39981 0.24695-0.59972 0.61737-0.59972 1.1112 0 0.3763 0.14405 0.67322 0.43215 0.89076 0.2881 0.21168 0.86724 0.41452 1.7374 0.60854l0.55563 0.12348c1.1524 0.24695 1.9697 0.59678 2.4518 1.0495 0.488 0.44685 0.732 1.073 0.73201 1.8785-0.00001 0.91722-0.36454 1.6434-1.0936 2.1784-0.7232 0.53504-1.7198 0.80257-2.9898 0.80257-0.52917 0-1.0818-0.0529-1.658-0.15875-0.57033-0.1-1.173-0.25283-1.808-0.45861v-1.6757c0.59972 0.31163 1.1906 0.54681 1.7727 0.70556 0.58208 0.15287 1.1583 0.2293 1.7286 0.2293 0.76435 0 1.3523-0.12935 1.7639-0.38805 0.41157-0.26458 0.61735-0.635 0.61736-1.1112-0.00001-0.44097-0.14994-0.77905-0.44979-1.0142-0.29399-0.23518-0.94369-0.46154-1.9491-0.67909l-0.56444-0.13229c-1.0054-0.21166-1.7316-0.53504-2.1784-0.97014-0.44685-0.44097-0.67028-1.0436-0.67028-1.808 0-0.92898 0.32926-1.6463 0.98778-2.152 0.65851-0.50563 1.5934-0.75846 2.8046-0.75847 0.59971 0.00001 1.1642 0.0441 1.6933 0.13229 0.52916 0.0882 1.0172 0.2205 1.464 0.39688"/>
  <path id="path3124" style="" d="m167.76 159.97v2.8046h3.3426v1.2612h-3.3426v5.3622c0 0.80551 0.10877 1.3229 0.32632 1.5522 0.22342 0.22931 0.67321 0.34396 1.3494 0.34396h1.6669v1.3582h-1.6669c-1.2524 0-2.1167-0.23224-2.5929-0.69673-0.47625-0.47037-0.71437-1.3229-0.71437-2.5576v-5.3622h-1.1906v-1.2612h1.1906v-2.8046h1.6316"/>
  <path id="path3126" style="" d="m177.73 167.69c-1.3112 0.00001-2.2196 0.14994-2.7252 0.44979-0.50565 0.29987-0.75848 0.81139-0.75848 1.5346 0 0.57621 0.18815 1.0348 0.56445 1.3758 0.38217 0.33514 0.89958 0.5027 1.5522 0.5027 0.89958 0 1.6198-0.31749 2.1608-0.9525 0.5468-0.64087 0.8202-1.4905 0.82021-2.5488v-0.3616h-1.614m3.2367-0.67028v5.6356h-1.6228v-1.4993c-0.37043 0.59972-0.83198 1.0436-1.3846 1.3317-0.55269 0.28223-1.2288 0.42334-2.0285 0.42334-1.0113 0-1.8168-0.28223-2.4165-0.84667-0.59384-0.57032-0.89076-1.3317-0.89076-2.2842 0-1.1112 0.37041-1.9491 1.1112-2.5135 0.74671-0.56444 1.858-0.84666 3.3337-0.84667h2.2754v-0.15875c-0.00001-0.7467-0.24695-1.3229-0.74083-1.7286-0.48802-0.41156-1.1759-0.61735-2.0638-0.61736-0.56445 0.00001-1.1142 0.0676-1.6492 0.20285-0.53504 0.13524-1.0495 0.33809-1.5434 0.60854v-1.4993c0.59384-0.2293 1.17-0.39981 1.7286-0.51153 0.55856-0.11758 1.1024-0.17638 1.6316-0.17639 1.4287 0.00001 2.4959 0.37043 3.2014 1.1112 0.70555 0.74084 1.0583 1.8638 1.0583 3.369"/>
 </g>
 <g id="g90" transform="translate(-7.3842 -3.5945)">
  <path id="path92" d="m210 260h19.261" stroke="#f62e2e" stroke-width="2" fill="none"/>
  <path id="polygon94" fill="#f62e2e" d="m229.26 260-2.5-5 10 5-10 5z"/>
  <path id="polygon96" d="m229.26 260-2.5-5 10 5-10 5z" stroke="#f62e2e" stroke-width="2" fill="none"/>
 </g>
 <g id="text98">
  <path id="path3131" style="" d="m167.68 258.76v-5.9796h1.6228v5.9178c0 0.93487 0.18227 1.6375 0.54681 2.1078 0.36453 0.46449 0.91134 0.69673 1.6404 0.69673 0.87606 0 1.5669-0.27928 2.0726-0.83784 0.51152-0.55857 0.76728-1.32 0.76729-2.2842v-5.6003h1.6228v9.8778h-1.6228v-1.5169c-0.39394 0.59972-0.85255 1.0466-1.3758 1.3406-0.51741 0.2881-1.1201 0.43215-1.808 0.43215-1.1348 0-1.9961-0.35278-2.5841-1.0583-0.58796-0.70555-0.88194-1.7374-0.88194-3.0956m4.0834-6.2177"/>
  <path id="path3133" style="" d="m179.31 252.78h1.6228v10.054c-0.00001 1.2582-0.24107 2.1696-0.7232 2.734-0.47625 0.56444-1.2465 0.84666-2.3107 0.84667h-0.61736v-1.3758h0.43215c0.61736-0.00001 1.0378-0.14406 1.2612-0.43216 0.22343-0.28222 0.33514-0.87312 0.33514-1.7727v-10.054m0-3.8453h1.6228v2.0549h-1.6228v-2.0549"/>
 </g>
 <g id="g102" transform="translate(-7.3842 -3.5945)">
  <path id="path104" d="m220 170c50 20-30 70 10.96 86.384" stroke="#f62e2e" stroke-width="2" fill="none"/>
  <path id="polygon106" fill="#f62e2e" d="m230.96 256.38-0.464-5.571 7.428 8.357-11.142 0.928z"/>
  <path id="polygon108" d="m230.96 256.38-0.464-5.571 7.428 8.357-11.142 0.928z" stroke="#f62e2e" stroke-width="2" fill="none"/>
 </g>
 <g id="g110" transform="translate(-7.3842 -3.5945)">
  <path id="rect112" fill="#fdfd04" d="m420 190h60v20h-60z"/>
  <path id="rect114" d="m420 190h60v20h-60z" stroke="#000" stroke-width="2" fill="none"/>
 </g>
 <g id="g116" transform="translate(-7.3842 -3.5945)">
  <path id="rect118" fill="#fdfd04" d="m320 190h60v20h-60z"/>
  <path id="rect120" d="m320 190h60v20h-60z" stroke="#000" stroke-width="2" fill="none"/>
 </g>
 <path id="line122" d="m412.62 186.41 60 20" stroke="#000" stroke-width="2" fill="none"/>
 <path id="line124" d="m412.62 206.41 60-20" stroke="#000" stroke-width="2" fill="none"/>
 <g id="g126" transform="translate(-7.3842 -3.5945)">
  <path id="rect128" fill="#fdfd04" d="m200 250h20v20h-20z"/>
  <path id="rect130" d="m200 250h20v20h-20z" stroke="#000" stroke-width="2" fill="none"/>
 </g>
</svg>
