<?xml version="1.0" encoding="UTF-8" standalone="no"?>
<!-- Created with Inkscape (http://www.inkscape.org/) -->
<svg id="svg2" xmlns:rdf="http://www.w3.org/1999/02/22-rdf-syntax-ns#" xmlns="http://www.w3.org/2000/svg" height="594.37" width="916.94" version="1.1" xmlns:cc="http://creativecommons.org/ns#" xmlns:dc="http://purl.org/dc/elements/1.1/" viewBox="152 108 506.61118 328.58011">
 <metadata id="metadata266">
  <rdf:RDF>
   <cc:Work rdf:about="">
    <dc:format>image/svg+xml</dc:format>
    <dc:type rdf:resource="http://purl.org/dc/dcmitype/StillImage"/>
   </cc:Work>
  </rdf:RDF>
 </metadata>
 <g id="g4" transform="translate(-2.2425 -3.977)">
  <path id="path6" d="m220 210h30.264" stroke="#000" stroke-width="2" fill="none"/>
  <path id="polygon8" d="m250.26 210-2.5-5 10 5-10 5z"/>
  <path id="polygon10" d="m250.26 210-2.5-5 10 5-10 5z" stroke="#000" stroke-width="2" fill="none"/>
 </g>
 <g id="g12" transform="translate(-2.2425 -3.977)">
  <path id="rect14" fill="#7babe3" d="m360 180h60v60h-60z"/>
  <path id="rect16" d="m360 180h60v60h-60z" stroke="#000" stroke-width="2" fill="none"/>
 </g>
 <g id="g18" transform="translate(-2.2425 -3.977)">
  <path id="rect20" fill="#7babe3" d="m500 180h60v60h-60z"/>
  <path id="rect22" d="m500 180h60v60h-60z" stroke="#000" stroke-width="2" fill="none"/>
 </g>
 <g id="g24" transform="translate(-2.2425 -3.977)">
  <path id="rect26" fill="#7babe3" d="m260 180h60v60h-60z"/>
  <path id="rect28" d="m260 180h60v60h-60z" stroke="#000" stroke-width="2" fill="none"/>
 </g>
 <g id="g30" transform="translate(-2.2425 -3.977)">
  <path id="rect32" fill="#fdfd04" d="m200 200h20v20h-20z"/>
  <path id="rect34" d="m200 200h20v20h-20z" stroke="#000" stroke-width="2" fill="none"/>
 </g>
 <g id="g36" transform="translate(-2.2425 -3.977)">
  <path id="path38" d="m420 210c9 10 40 40-10 60s-60 40-38.101 54.599" stroke="#f62e2e" stroke-width="2" fill="none"/>
  <path id="polygon40" fill="#f62e2e" d="m371.9 324.6 0.693-5.547 5.547 9.708-11.094-1.387z"/>
  <path id="polygon42" d="m371.9 324.6 0.693-5.547 5.547 9.708-11.094-1.387z" stroke="#f62e2e" stroke-width="2" fill="none"/>
 </g>
 <g id="g44" transform="translate(-2.2425 -3.977)">
  <path id="path46" d="m420 210h70.264" stroke="#000" stroke-width="2" fill="none"/>
  <path id="polygon48" d="m490.26 210-2.5-5 10 5-10 5z"/>
  <path id="polygon50" d="m490.26 210-2.5-5 10 5-10 5z" stroke="#000" stroke-width="2" fill="none"/>
 </g>
 <g id="g52" transform="translate(-2.2425 -3.977)">
  <path id="path54" d="m560 240c40 0 0-30 30.264-30" stroke="#000" stroke-width="2" fill="none"/>
  <path id="polygon56" d="m590.26 210-2.5-5 10 5-10 5z"/>
  <path id="polygon58" d="m590.26 210-2.5-5 10 5-10 5z" stroke="#000" stroke-width="2" fill="none"/>
 </g>
 <g id="text60">
  <path id="path3128" style="" d="m522.06 195.65h10.491v2.249h-8.0433v4.8419c0.38805-0.13227 0.7761-0.22929 1.1642-0.29104 0.38805-0.0705 0.7761-0.10582 1.1642-0.10583 2.2048 0.00001 3.9511 0.60414 5.2387 1.8124s1.9314 2.8443 1.9315 4.908c-0.00002 2.1255-0.66148 3.7791-1.9844 4.9609-1.3229 1.173-3.1882 1.7595-5.5959 1.7595-0.82903 0-1.6757-0.0706-2.54-0.21167-0.85549-0.14111-1.7418-0.35278-2.6591-0.635v-2.6855c0.79374 0.43216 1.614 0.75407 2.4606 0.96573 0.84666 0.21167 1.7418 0.3175 2.6855 0.3175 1.5258 0 2.734-0.40128 3.6248-1.2038 0.89075-0.80257 1.3361-1.8918 1.3362-3.2676-0.00001-1.3758-0.4454-2.465-1.3362-3.2676-0.89077-0.80256-2.099-1.2038-3.6248-1.2039-0.71438 0.00002-1.4288 0.0794-2.1431 0.23813-0.70555 0.15876-1.4288 0.4057-2.1696 0.74083v-9.9219"/>
 </g>
 <g id="text64">
  <path id="path3131" style="" d="m389.37 197.98-6.7469 10.544h6.7469v-10.544m-0.70114-2.3283h3.3602v12.872h2.8178v2.2225h-2.8178v4.6567h-2.6591v-4.6567h-8.9164v-2.5797l8.2153-12.515"/>
 </g>
 <g id="text68">
  <path id="path3134" style="" d="m290.13 204.75c1.2788 0.27342 2.2754 0.84227 2.9898 1.7066 0.72318 0.86431 1.0848 1.9315 1.0848 3.2014-0.00001 1.9491-0.67029 3.4572-2.0108 4.5244-1.3406 1.0672-3.2456 1.6007-5.715 1.6007-0.82903 0-1.6845-0.0838-2.5664-0.25136-0.87313-0.15875-1.7771-0.40128-2.712-0.7276v-2.5797c0.74083 0.43216 1.5522 0.75848 2.4342 0.97896 0.88194 0.22049 1.8036 0.33073 2.7649 0.33073 1.6757 0 2.9501-0.33073 3.8232-0.99219 0.88193-0.66145 1.3229-1.6228 1.3229-2.884-0.00002-1.1642-0.41012-2.0726-1.2303-2.7252-0.81139-0.66144-1.9447-0.99217-3.3999-0.99218h-2.3019v-2.196h2.4077c1.3141 0.00001 2.3195-0.26016 3.0162-0.78052 0.69673-0.52915 1.0451-1.2876 1.0451-2.2754-0.00002-1.0142-0.36161-1.7903-1.0848-2.3283-0.71438-0.54679-1.7418-0.82019-3.0824-0.82021-0.73202 0.00002-1.517 0.0794-2.3548 0.23812-0.83785 0.15877-1.7595 0.40571-2.7649 0.74083v-2.3812c1.0142-0.2822 1.9623-0.49387 2.8443-0.635 0.89076-0.14109 1.7286-0.21165 2.5135-0.21167 2.0285 0.00002 3.6336 0.46304 4.8154 1.3891 1.1818 0.91724 1.7727 2.1608 1.7727 3.7306-0.00001 1.0936-0.3131 2.0197-0.93927 2.7781-0.62619 0.74966-1.517 1.27-2.6723 1.561"/>
 </g>
 <g id="text72" fill="#173b8f">
  <path id="path3137" style="" d="m367.75 258.02c-0.78787 1.3523-1.3729 2.6899-1.7551 4.0128-0.38218 1.3229-0.57327 2.6635-0.57327 4.0217s0.19109 2.7046 0.57327 4.0393c0.38805 1.3288 0.97307 2.6664 1.7551 4.0128h-1.4111c-0.88194-1.3817-1.5434-2.7399-1.9844-4.0746-0.43509-1.3347-0.65264-2.6605-0.65264-3.9776 0-1.3112 0.21755-2.6311 0.65264-3.9599s1.0966-2.687 1.9844-4.0746h1.4111"/>
  <path id="path3139" style="" d="m371.15 258.56h6.9938v1.4993h-5.3622v3.2279c0.2587-0.0882 0.5174-0.15286 0.77611-0.19402 0.2587-0.047 0.5174-0.0705 0.77611-0.0706 1.4699 0.00001 2.6341 0.40276 3.4925 1.2083 0.85841 0.80552 1.2876 1.8962 1.2876 3.272-0.00001 1.417-0.44098 2.5194-1.3229 3.3073-0.88195 0.78199-2.1255 1.173-3.7306 1.173-0.55269 0-1.1171-0.047-1.6933-0.14111-0.57033-0.0941-1.1612-0.23519-1.7727-0.42334v-1.7903c0.52916 0.2881 1.076 0.50271 1.6404 0.64382 0.56445 0.14111 1.1612 0.21166 1.7904 0.21166 1.0172 0 1.8227-0.26752 2.4165-0.80257 0.59384-0.53504 0.89076-1.2612 0.89077-2.1784-0.00001-0.91721-0.29693-1.6433-0.89077-2.1784-0.59384-0.53503-1.3994-0.80256-2.4165-0.80256-0.47625 0-0.9525 0.0529-1.4288 0.15875-0.47037 0.10584-0.9525 0.27046-1.4464 0.49388v-6.6146"/>
  <path id="path3141" style="" d="m382.15 258.02h1.4111c0.88194 1.3876 1.5405 2.7458 1.9756 4.0746 0.44097 1.3288 0.66145 2.6488 0.66146 3.9599-0.00001 1.317-0.22049 2.6429-0.66146 3.9776-0.43509 1.3347-1.0936 2.6929-1.9756 4.0746h-1.4111c0.78199-1.3464 1.3641-2.684 1.7462-4.0128 0.38805-1.3347 0.58208-2.6811 0.58208-4.0393s-0.19403-2.6987-0.58208-4.0217c-0.38218-1.3229-0.96426-2.6605-1.7462-4.0128"/>
 </g>
 <g id="g76" transform="translate(-2.2425 -3.977)">
  <path id="path78" d="m320 240c40 0 0-30 30.264-30" stroke="#000" stroke-width="2" fill="none"/>
  <path id="polygon80" d="m350.26 210-2.5-5 10 5-10 5z"/>
  <path id="polygon82" d="m350.26 210-2.5-5 10 5-10 5z" stroke="#000" stroke-width="2" fill="none"/>
 </g>
 <g id="text84">
  <path id="path3146" style="" d="m151.85 198.55h1.6228v13.723h-1.6228v-13.723"/>
  <path id="path3148" style="" d="m156.86 202.4h1.6228v9.8778h-1.6228v-9.8778m0-3.8453h1.6228v2.0549h-1.6228v-2.0549"/>
  <path id="path3150" style="" d="m168.17 202.69v1.5346c-0.45862-0.23518-0.93487-0.41157-1.4288-0.52917-0.4939-0.11758-1.0054-0.17638-1.5346-0.17639-0.80552 0.00001-1.4111 0.12348-1.8168 0.37042-0.39981 0.24695-0.59972 0.61737-0.59972 1.1112 0 0.3763 0.14405 0.67322 0.43215 0.89076 0.2881 0.21167 0.86724 0.41452 1.7374 0.60854l0.55563 0.12347c1.1524 0.24695 1.9697 0.59679 2.4518 1.0495 0.488 0.44685 0.732 1.073 0.73201 1.8785-0.00001 0.91722-0.36454 1.6434-1.0936 2.1784-0.7232 0.53504-1.7198 0.80256-2.9898 0.80256-0.52917 0-1.0818-0.0529-1.658-0.15875-0.57033-0.0999-1.173-0.25282-1.808-0.45861v-1.6757c0.59972 0.31162 1.1906 0.54681 1.7727 0.70556 0.58208 0.15287 1.1583 0.2293 1.7286 0.2293 0.76435 0 1.3523-0.12935 1.7639-0.38805 0.41156-0.26458 0.61735-0.635 0.61736-1.1112-0.00001-0.44097-0.14994-0.77905-0.44979-1.0142-0.29399-0.23518-0.94369-0.46154-1.9491-0.67909l-0.56444-0.1323c-1.0054-0.21166-1.7316-0.53504-2.1784-0.97013-0.44685-0.44097-0.67028-1.0436-0.67028-1.808 0-0.92897 0.32926-1.6463 0.98778-2.1519 0.65851-0.50564 1.5934-0.75846 2.8046-0.75847 0.59971 0.00001 1.1642 0.0441 1.6933 0.13229 0.52916 0.0882 1.0172 0.2205 1.464 0.39688"/>
  <path id="path3152" style="" d="m172.9 199.59v2.8046h3.3426v1.2612h-3.3426v5.3622c0 0.80551 0.10877 1.3229 0.32632 1.5522 0.22342 0.22931 0.67321 0.34396 1.3494 0.34396h1.6669v1.3582h-1.6669c-1.2524 0-2.1167-0.23224-2.5929-0.69673-0.47625-0.47037-0.71438-1.3229-0.71437-2.5576v-5.3622h-1.1906v-1.2612h1.1906v-2.8046h1.6316"/>
  <path id="path3154" style="" d="m182.87 207.31c-1.3112 0-2.2196 0.14993-2.7252 0.44979-0.50565 0.29987-0.75848 0.81139-0.75848 1.5346 0 0.57621 0.18815 1.0348 0.56445 1.3758 0.38217 0.33514 0.89958 0.50271 1.5522 0.50271 0.89957 0 1.6198-0.3175 2.1608-0.9525 0.5468-0.64087 0.8202-1.4905 0.82021-2.5488v-0.3616h-1.614m3.2367-0.67028v5.6356h-1.6228v-1.4993c-0.37043 0.59972-0.83198 1.0436-1.3846 1.3317-0.55269 0.28222-1.2288 0.42333-2.0285 0.42333-1.0113 0-1.8168-0.28222-2.4165-0.84666-0.59384-0.57032-0.89076-1.3317-0.89076-2.2842 0-1.1112 0.37041-1.9491 1.1112-2.5135 0.74671-0.56444 1.858-0.84666 3.3337-0.84667h2.2754v-0.15875c-0.00001-0.7467-0.24695-1.3229-0.74084-1.7286-0.48801-0.41156-1.1759-0.61735-2.0637-0.61736-0.56445 0.00001-1.1142 0.0676-1.6492 0.20285-0.53505 0.13524-1.0495 0.33809-1.5434 0.60854v-1.4993c0.59384-0.2293 1.17-0.39981 1.7286-0.51153 0.55856-0.11758 1.1024-0.17638 1.6316-0.17639 1.4287 0.00001 2.4959 0.37043 3.2014 1.1112 0.70555 0.74084 1.0583 1.8638 1.0583 3.369"/>
 </g>
 <g id="g88" stroke="#f62e2e" stroke-width="2" fill="none" transform="translate(-2.2425 -3.977)">
  <path id="line90" d="m440 205 10 10"/>
  <path id="line92" d="m440 215 10-10"/>
 </g>
 <g id="text94" fill="#173b8f">
  <path id="path3159" style="" d="m533.36 258.02c-0.78788 1.3523-1.3729 2.6899-1.7551 4.0128-0.38218 1.3229-0.57327 2.6635-0.57326 4.0217-0.00001 1.3582 0.19108 2.7046 0.57326 4.0393 0.38805 1.3288 0.97307 2.6664 1.7551 4.0128h-1.4111c-0.88195-1.3817-1.5434-2.7399-1.9844-4.0746-0.4351-1.3347-0.65264-2.6605-0.65264-3.9776 0-1.3112 0.21754-2.6311 0.65264-3.9599 0.43509-1.3288 1.0965-2.687 1.9844-4.0746h1.4111"/>
  <path id="path3161" style="" d="m538.28 270.22h6.2177v1.4993h-8.3608v-1.4993c0.67615-0.69967 1.5963-1.6375 2.7605-2.8134 1.17-1.1818 1.905-1.9432 2.2049-2.2842 0.57032-0.64088 0.96719-1.1818 1.1906-1.6228 0.2293-0.44684 0.34395-0.88487 0.34396-1.3141-0.00001-0.69966-0.24695-1.27-0.74083-1.711-0.48802-0.44096-1.126-0.66144-1.9138-0.66145-0.55857 0.00001-1.1495 0.097-1.7727 0.29104-0.61737 0.19404-1.2788 0.48802-1.9844 0.88194v-1.7992c0.71732-0.28809 1.3876-0.50564 2.0108-0.65264 0.62324-0.14698 1.1936-0.22047 1.711-0.22049 1.3641 0.00002 2.4518 0.34103 3.2632 1.0231 0.81137 0.68205 1.2171 1.5934 1.2171 2.734-0.00001 0.54094-0.10291 1.0554-0.30868 1.5434-0.19992 0.48214-0.5674 1.0525-1.1024 1.711-0.147 0.17052-0.61443 0.66441-1.4023 1.4817-0.78788 0.81139-1.8991 1.9491-3.3338 3.4131"/>
  <path id="path3163" style="" d="m547.76 258.02h1.4111c0.88194 1.3876 1.5405 2.7458 1.9756 4.0746 0.44096 1.3288 0.66145 2.6488 0.66145 3.9599 0 1.317-0.22049 2.6429-0.66145 3.9776-0.4351 1.3347-1.0936 2.6929-1.9756 4.0746h-1.4111c0.78199-1.3464 1.3641-2.684 1.7462-4.0128 0.38805-1.3347 0.58208-2.6811 0.58208-4.0393s-0.19403-2.6987-0.58208-4.0217c-0.38218-1.3229-0.96426-2.6605-1.7462-4.0128"/>
 </g>
 <g id="text98" fill="#173b8f">
  <path id="path3166" style="" d="m523.36 373.57c-0.78788 1.3523-1.3729 2.6899-1.7551 4.0128-0.38218 1.3229-0.57327 2.6635-0.57326 4.0217-0.00001 1.3582 0.19108 2.7046 0.57326 4.0393 0.38805 1.3288 0.97307 2.6664 1.7551 4.0128h-1.4111c-0.88195-1.3817-1.5434-2.7399-1.9844-4.0746-0.4351-1.3347-0.65264-2.6605-0.65264-3.9776 0-1.3111 0.21754-2.6311 0.65264-3.9599 0.43509-1.3288 1.0965-2.687 1.9844-4.0746h1.4111"/>
  <path id="path3168" style="" d="m527.05 385.77h2.9104v-10.045l-3.1662 0.635v-1.6228l3.1485-0.635h1.7815v11.668h2.9104v1.4993h-7.5847v-1.4993"/>
  <path id="path3170" style="" d="m537.76 373.57h1.4111c0.88194 1.3876 1.5405 2.7458 1.9756 4.0746 0.44096 1.3288 0.66145 2.6488 0.66145 3.9599 0 1.317-0.22049 2.6429-0.66145 3.9776-0.4351 1.3347-1.0936 2.6929-1.9756 4.0746h-1.4111c0.78199-1.3464 1.3641-2.684 1.7462-4.0128 0.38805-1.3347 0.58208-2.6811 0.58208-4.0393s-0.19403-2.6987-0.58208-4.0217c-0.38218-1.3229-0.96426-2.6605-1.7462-4.0128"/>
 </g>
 <g id="g102" transform="translate(-2.2425 -3.977)">
  <path id="rect104" fill="#7be38e" d="m380 300h60v60h-60z"/>
  <path id="rect106" d="m380 300h60v60h-60z" stroke="#000" stroke-width="2" fill="none"/>
 </g>
 <g id="g108" transform="translate(-2.2425 -3.977)">
  <path id="rect110" fill="#7be38e" d="m480 300h60v60h-60z"/>
  <path id="rect112" d="m480 300h60v60h-60z" stroke="#000" stroke-width="2" fill="none"/>
 </g>
 <g id="text114">
  <path id="path3177" style="" d="m407.74 317.41c-1.3758 0.00001-2.4121 0.67911-3.1088 2.0373-0.68792 1.3494-1.0319 3.3823-1.0319 6.0986-0.00001 2.7076 0.34395 4.7404 1.0319 6.0986 0.69673 1.3494 1.733 2.0241 3.1088 2.0241 1.3846 0 2.4209-0.67468 3.1088-2.0241 0.69672-1.3582 1.0451-3.3911 1.0451-6.0986-0.00001-2.7164-0.34838-4.7492-1.0451-6.0986-0.68793-1.3582-1.7242-2.0373-3.1088-2.0373m0-2.1167c2.2137 0.00002 3.9026 0.87756 5.0668 2.6326 1.173 1.7463 1.7595 4.2863 1.7595 7.62-0.00001 3.3249-0.58651 5.8649-1.7595 7.62-1.1642 1.7462-2.8531 2.6194-5.0668 2.6194s-3.907-0.87313-5.08-2.6194c-1.1642-1.7551-1.7462-4.295-1.7462-7.62 0-3.3337 0.58208-5.8737 1.7462-7.62 1.173-1.755 2.8663-2.6326 5.08-2.6326"/>
 </g>
 <g id="text118">
  <path id="path3180" style="" d="m509.37 317.98-6.7469 10.544h6.7469v-10.544m-0.70114-2.3283h3.3602v12.872h2.8178v2.2225h-2.8178v4.6567h-2.6591v-4.6567h-8.9164v-2.5797l8.2153-12.515"/>
 </g>
 <g id="g122" transform="translate(-2.2425 -3.977)">
  <path id="path124" d="m440 330h30.264" stroke="#f62e2e" stroke-width="2" fill="none"/>
  <path id="polygon126" fill="#f62e2e" d="m470.26 330-2.5-5 10 5-10 5z"/>
  <path id="polygon128" d="m470.26 330-2.5-5 10 5-10 5z" stroke="#f62e2e" stroke-width="2" fill="none"/>
 </g>
 <g id="g130" transform="translate(-2.2425 -3.977)">
  <path id="path132" d="m493.12 216.88c-3.12 3.12-33.12 33.12 16.88 53.12s60 40 30 60" stroke="#f62e2e" stroke-width="2" fill="none"/>
  <path id="polygon134" fill="#f62e2e" d="m493.12 216.88-5.304-1.767 10.607-3.536-3.536 10.607z"/>
  <path id="polygon136" d="m493.12 216.88-5.304-1.767 10.607-3.536-3.536 10.607z" stroke="#f62e2e" stroke-width="2" fill="none"/>
 </g>
 <g id="text138" fill="#173b8f">
  <path id="path3187" style="" d="m377.75 373.57c-0.78787 1.3523-1.3729 2.6899-1.7551 4.0128-0.38218 1.3229-0.57327 2.6635-0.57327 4.0217s0.19109 2.7046 0.57327 4.0393c0.38805 1.3288 0.97307 2.6664 1.7551 4.0128h-1.4111c-0.88194-1.3817-1.5434-2.7399-1.9844-4.0746-0.43509-1.3347-0.65264-2.6605-0.65264-3.9776 0-1.3111 0.21755-2.6311 0.65264-3.9599s1.0966-2.687 1.9844-4.0746h1.4111"/>
  <path id="path3189" style="" d="m386.53 380.17c0.85254 0.18227 1.5169 0.56151 1.9932 1.1377 0.48212 0.57621 0.72318 1.2876 0.72319 2.1343-0.00001 1.2994-0.44686 2.3048-1.3406 3.0162-0.89371 0.71144-2.1637 1.0672-3.81 1.0672-0.55269 0-1.123-0.0558-1.711-0.16756-0.58209-0.10584-1.1848-0.26753-1.808-0.48507v-1.7198c0.49389 0.2881 1.0348 0.50565 1.6228 0.65263 0.58796 0.147 1.2024 0.22049 1.8433 0.22049 1.1171 0 1.9667-0.22048 2.5488-0.66146 0.58795-0.44097 0.88193-1.0818 0.88194-1.9226-0.00001-0.77611-0.27341-1.3817-0.82021-1.8168-0.54093-0.44096-1.2965-0.66145-2.2666-0.66145h-1.5346v-1.464h1.6051c0.87606 0.00001 1.5463-0.17344 2.0108-0.52035 0.46449-0.35277 0.69673-0.85841 0.69674-1.5169-0.00001-0.67615-0.24107-1.1936-0.7232-1.5522-0.47625-0.36452-1.1612-0.54679-2.0549-0.5468-0.48802 0.00001-1.0113 0.0529-1.5699 0.15874-0.55857 0.10585-1.173 0.27048-1.8433 0.49389v-1.5875c0.67615-0.18814 1.3082-0.32925 1.8962-0.42334 0.59384-0.0941 1.1524-0.1411 1.6757-0.14111 1.3523 0.00001 2.4224 0.30869 3.2103 0.92604 0.78786 0.61149 1.1818 1.4405 1.1818 2.4871-0.00001 0.72908-0.20873 1.3464-0.62618 1.8521-0.41746 0.49978-1.0113 0.84668-1.7815 1.0407"/>
  <path id="path3191" style="" d="m392.15 373.57h1.4111c0.88194 1.3876 1.5405 2.7458 1.9756 4.0746 0.44097 1.3288 0.66145 2.6488 0.66146 3.9599-0.00001 1.317-0.22049 2.6429-0.66146 3.9776-0.43509 1.3347-1.0936 2.6929-1.9756 4.0746h-1.4111c0.78199-1.3464 1.3641-2.684 1.7462-4.0128 0.38805-1.3347 0.58208-2.6811 0.58208-4.0393s-0.19403-2.6987-0.58208-4.0217c-0.38218-1.3229-0.96426-2.6605-1.7462-4.0128"/>
 </g>
 <g id="text142" fill="#173b8f">
  <path id="path3194" style="" d="m450.55 298.02c-0.78787 1.3523-1.3729 2.6899-1.7551 4.0128-0.38218 1.3229-0.57326 2.6635-0.57326 4.0217s0.19108 2.7046 0.57326 4.0393c0.38805 1.3288 0.97308 2.6664 1.7551 4.0128h-1.4111c-0.88195-1.3817-1.5434-2.7399-1.9844-4.0746-0.43509-1.3347-0.65264-2.6605-0.65264-3.9776 0-1.3112 0.21755-2.6311 0.65264-3.9599s1.0966-2.687 1.9844-4.0746h1.4111"/>
  <path id="path3196" style="" d="m458.83 300.11-4.4979 7.0291h4.4979v-7.0291m-0.46743-1.5522h2.2401v8.5813h1.8785v1.4817h-1.8785v3.1044h-1.7727v-3.1044h-5.9443v-1.7198l5.4769-8.3432"/>
  <path id="path3198" style="" d="m464.95 298.02h1.4111c0.88194 1.3876 1.5404 2.7458 1.9756 4.0746 0.44097 1.3288 0.66145 2.6488 0.66146 3.9599-0.00001 1.317-0.22049 2.6429-0.66146 3.9776-0.4351 1.3347-1.0936 2.6929-1.9756 4.0746h-1.4111c0.78198-1.3464 1.3641-2.684 1.7462-4.0128 0.38806-1.3347 0.58208-2.6811 0.58209-4.0393-0.00001-1.3582-0.19403-2.6987-0.58209-4.0217-0.38217-1.3229-0.96426-2.6605-1.7462-4.0128"/>
 </g>
 <g id="g146" transform="translate(-2.2425 -3.977)">
  <path id="line148" d="m390 150v20.264" stroke="#000" stroke-width="2" fill="none"/>
  <path id="polygon150" d="m390 170.26 5-2.5-5 10-5-10z"/>
  <path id="polygon152" d="m390 170.26 5-2.5-5 10-5-10z" stroke="#000" stroke-width="2" fill="none"/>
 </g>
 <g id="text154">
  <path id="path3204" style="" d="m374.13 111.85h1.6228v9.8778h-1.6228v-9.8778m0-3.8453h1.6228v2.0549h-1.6228v-2.0549"/>
  <path id="path3206" style="" d="m380.75 109.04v2.8046h3.3426v1.2612h-3.3426v5.3622c0 0.80551 0.10877 1.3229 0.32632 1.5522 0.22342 0.2293 0.67321 0.34396 1.3494 0.34395h1.6669v1.3582h-1.6669c-1.2524 0-2.1167-0.23225-2.5929-0.69674-0.47625-0.47037-0.71438-1.3229-0.71438-2.5576v-5.3622h-1.1906v-1.2612h1.1906v-2.8046h1.6316"/>
  <path id="path3208" style="" d="m394.68 116.38v0.79375h-7.4612c0.0706 1.1171 0.40569 1.9697 1.0054 2.5576 0.6056 0.58208 1.4464 0.87312 2.5224 0.87312 0.62323 0 1.2259-0.0764 1.808-0.22931 0.58795-0.15286 1.17-0.38217 1.7462-0.68791v1.5346c-0.58209 0.24694-1.1789 0.43509-1.7904 0.56444-0.61148 0.12936-1.2318 0.19403-1.8609 0.19403-1.5757 0-2.8252-0.45861-3.7483-1.3758-0.91722-0.91722-1.3758-2.1578-1.3758-3.7218 0-1.6169 0.43509-2.8986 1.3053-3.8453 0.87606-0.95249 2.0549-1.4287 3.5366-1.4288 1.3288 0.00001 2.3783 0.42922 3.1485 1.2876 0.7761 0.85256 1.1642 2.0138 1.1642 3.4837m-1.6228-0.47625c-0.0118-0.88781-0.26165-1.5963-0.74965-2.1255-0.48214-0.52916-1.123-0.79374-1.9226-0.79375-0.90547 0.00001-1.6316 0.25577-2.1784 0.76729-0.54093 0.51153-0.85255 1.2318-0.93486 2.1608l5.7856-0.009"/>
  <path id="path3210" style="" d="m403.07 113.36c-0.18228-0.10582-0.38219-0.18226-0.59973-0.2293-0.21167-0.0529-0.44685-0.0794-0.70555-0.0794-0.91723 0.00001-1.6228 0.29987-2.1167 0.89959-0.48801 0.59385-0.73201 1.4493-0.73201 2.5664v5.2035h-1.6316v-9.8778h1.6316v1.5346c0.34102-0.59971 0.78493-1.0436 1.3317-1.3317 0.5468-0.29397 1.2112-0.44096 1.9932-0.44097 0.1117 0.00001 0.23518 0.009 0.37041 0.0265 0.13523 0.0118 0.28516 0.0323 0.4498 0.0617l0.009 1.6669"/>
 </g>
 <g id="g158" transform="translate(-2.2425 -3.977)">
  <path id="rect160" fill="#7babe3" d="m600 180h60v60h-60z"/>
  <path id="rect162" d="m600 180h60v60h-60z" stroke="#000" stroke-width="2" fill="none"/>
 </g>
 <g id="text164">
  <path id="path3215" style="" d="m622.49 213.15h4.3656v-15.068l-4.7493 0.9525v-2.4342l4.7228-0.9525h2.6723v17.502h4.3656v2.249h-11.377v-2.249"/>
 </g>
 <g id="g168" transform="translate(-2.2425 -3.977)">
  <path id="path170" d="m390 150c10 20 53-10 70 60s50 60 50 80.264" stroke="#808080" stroke-width="2" fill="none"/>
  <path id="polygon172" fill="#808080" d="m510 290.26 5-2.5-5 10-5-10z"/>
  <path id="polygon174" d="m510 290.26 5-2.5-5 10-5-10z" stroke="#808080" stroke-width="2" fill="none"/>
 </g>
 <g id="text176" fill="#808080">
  <path id="path3220" style="" d="m443.36 138.02c-0.78788 1.3523-1.3729 2.6899-1.7551 4.0128-0.38218 1.3229-0.57326 2.6635-0.57326 4.0217s0.19108 2.7046 0.57326 4.0393c0.38805 1.3288 0.97307 2.6664 1.7551 4.0128h-1.4111c-0.88195-1.3817-1.5434-2.7399-1.9844-4.0746-0.4351-1.3347-0.65264-2.6605-0.65264-3.9776 0-1.3112 0.21754-2.6311 0.65264-3.9599 0.43509-1.3288 1.0965-2.687 1.9844-4.0746h1.4111"/>
  <path id="path3222" style="" d="m450.78 144.43c-0.79963 0-1.4346 0.27341-1.905 0.8202-0.4645 0.54681-0.69674 1.2965-0.69674 2.249 0 0.94662 0.23224 1.6963 0.69674 2.249 0.47036 0.54681 1.1054 0.82021 1.905 0.82021 0.79962 0 1.4317-0.2734 1.8962-0.82021 0.47036-0.55268 0.70555-1.3023 0.70556-2.249-0.00001-0.95249-0.2352-1.7022-0.70556-2.249-0.4645-0.54679-1.0966-0.8202-1.8962-0.8202m3.5366-5.5827v1.6228c-0.44686-0.21165-0.89959-0.37334-1.3582-0.48507-0.45274-0.1117-0.90253-0.16756-1.3494-0.16757-1.1759 0.00001-2.0755 0.39689-2.6988 1.1906-0.61736 0.79375-0.97014 1.9932-1.0583 3.5983 0.3469-0.51151 0.78199-0.90251 1.3053-1.173 0.52328-0.27633 1.0995-0.4145 1.7286-0.41451 1.3229 0.00001 2.3665 0.40276 3.1309 1.2083 0.77022 0.79963 1.1553 1.8903 1.1553 3.272-0.00001 1.3523-0.39982 2.4371-1.1994 3.2544-0.79964 0.81727-1.8638 1.2259-3.1926 1.2259-1.5228 0-2.687-0.58208-3.4925-1.7462-0.80551-1.17-1.2083-2.8634-1.2083-5.08 0-2.0814 0.49389-3.7394 1.4817-4.9742 0.98777-1.2406 2.3136-1.8609 3.9776-1.8609 0.44685 0.00001 0.89664 0.0441 1.3494 0.13229 0.4586 0.0882 0.93485 0.2205 1.4288 0.39687"/>
  <path id="path3224" style="" d="m457.76 138.02h1.4111c0.88194 1.3876 1.5405 2.7458 1.9756 4.0746 0.44096 1.3288 0.66145 2.6488 0.66146 3.9599-0.00001 1.317-0.2205 2.6429-0.66146 3.9776-0.4351 1.3347-1.0936 2.6929-1.9756 4.0746h-1.4111c0.78199-1.3464 1.3641-2.684 1.7462-4.0128 0.38805-1.3347 0.58208-2.6811 0.58209-4.0393-0.00001-1.3582-0.19404-2.6987-0.58209-4.0217-0.38218-1.3229-0.96426-2.6605-1.7462-4.0128"/>
 </g>
 <g id="g180" transform="translate(-2.2425 -3.977)">
  <path id="line182" d="m410 400v-20.264" stroke="#f62e2e" stroke-width="2" fill="none"/>
  <path id="polygon184" fill="#f62e2e" d="m410 379.74-5 2.5 5-10 5 10z"/>
  <path id="polygon186" d="m410 379.74-5 2.5 5-10 5 10z" stroke="#f62e2e" stroke-width="2" fill="none"/>
 </g>
 <g id="g188" transform="translate(-2.2425 -3.977)">
  <path id="line190" d="m510 400v-20.264" stroke="#f62e2e" stroke-width="2" fill="none"/>
  <path id="polygon192" fill="#f62e2e" d="m510 379.74-5 2.5 5-10 5 10z"/>
  <path id="polygon194" d="m510 379.74-5 2.5 5-10 5 10z" stroke="#f62e2e" stroke-width="2" fill="none"/>
 </g>
 <g id="text196">
  <path id="path3233" style="" d="m379.04 428.92v-5.9796h1.6228v5.9178c-0.00001 0.93487 0.18226 1.6375 0.5468 2.1078 0.36453 0.46449 0.91134 0.69673 1.6404 0.69673 0.87605 0 1.5669-0.27928 2.0726-0.83784 0.51152-0.55857 0.76729-1.32 0.76729-2.2842v-5.6003h1.6228v9.8778h-1.6228v-1.5169c-0.39394 0.59972-0.85255 1.0466-1.3758 1.3406-0.51741 0.2881-1.1201 0.43215-1.808 0.43215-1.1348 0-1.9961-0.35278-2.5841-1.0583-0.58797-0.70555-0.88195-1.7374-0.88195-3.0956m4.0834-6.2177m1.2083-4.3303h1.7551l-2.8751 3.3161h-1.3494l2.4694-3.3161"/>
  <path id="path3235" style="" d="m390.67 422.95h1.6228v10.054c0 1.2582-0.24107 2.1696-0.72319 2.734-0.47625 0.56444-1.2465 0.84666-2.3107 0.84667h-0.61736v-1.3758h0.43215c0.61736-0.00001 1.0378-0.14406 1.2612-0.43216 0.22342-0.28222 0.33513-0.87312 0.33514-1.7727v-10.054m0-3.8453h1.6228v2.0549h-1.6228v-2.0549"/>
  <path id="path3237" style="" d="m403.89 426.86v5.9619h-1.6228v-5.909c-0.00001-0.93486-0.18228-1.6345-0.5468-2.099-0.36455-0.46448-0.91135-0.69672-1.6404-0.69673-0.87607 0.00001-1.5669 0.27929-2.0726 0.83784-0.50565 0.55858-0.75847 1.32-0.75847 2.2842v5.5827h-1.6316v-9.8778h1.6316v1.5346c0.38805-0.59383 0.84372-1.0377 1.367-1.3317 0.52916-0.29397 1.1377-0.44096 1.8256-0.44097 1.1348 0.00001 1.9932 0.35279 2.5753 1.0583 0.58208 0.69968 0.87312 1.7316 0.87313 3.0956"/>
  <path id="path3239" style="" d="m406.98 428.92v-5.9796h1.6228v5.9178c-0.00001 0.93487 0.18226 1.6375 0.5468 2.1078 0.36453 0.46449 0.91134 0.69673 1.6404 0.69673 0.87605 0 1.5669-0.27928 2.0726-0.83784 0.51152-0.55857 0.76728-1.32 0.76729-2.2842v-5.6003h1.6228v9.8778h-1.6228v-1.5169c-0.39394 0.59972-0.85255 1.0466-1.3758 1.3406-0.51741 0.2881-1.1201 0.43215-1.808 0.43215-1.1348 0-1.9961-0.35278-2.5841-1.0583-0.58796-0.70555-0.88194-1.7374-0.88194-3.0956m4.0834-6.2177"/>
  <path id="path3241" style="" d="m418.61 419.1h1.6228v13.723h-1.6228v-13.723"/>
  <path id="path3243" style="" d="m423.62 419.1h1.6228v13.723h-1.6228v-13.723"/>
  <path id="path3245" style="" d="m433.12 427.86c-1.3112 0-2.2196 0.14993-2.7252 0.44979-0.50565 0.29986-0.75848 0.81139-0.75847 1.5346-0.00001 0.57621 0.18814 1.0348 0.56444 1.3758 0.38217 0.33514 0.89958 0.50271 1.5522 0.50271 0.89958 0 1.6198-0.3175 2.1608-0.9525 0.5468-0.64088 0.8202-1.4905 0.82021-2.5488v-0.36159h-1.614m3.2367-0.67028v5.6356h-1.6228v-1.4993c-0.37042 0.59973-0.83197 1.0436-1.3846 1.3317-0.55269 0.28222-1.2288 0.42333-2.0285 0.42333-1.0113 0-1.8168-0.28222-2.4165-0.84666-0.59384-0.57033-0.89076-1.3317-0.89076-2.2842 0-1.1112 0.37042-1.9491 1.1112-2.5135 0.74671-0.56443 1.858-0.84665 3.3338-0.84666h2.2754v-0.15875c-0.00001-0.74671-0.24695-1.3229-0.74083-1.7286-0.48802-0.41157-1.1759-0.61735-2.0638-0.61736-0.56445 0.00001-1.1142 0.0676-1.6492 0.20285-0.53505 0.13524-1.0495 0.33808-1.5434 0.60854v-1.4993c0.59384-0.22929 1.17-0.3998 1.7286-0.51152 0.55856-0.11759 1.1024-0.17638 1.6316-0.17639 1.4287 0.00001 2.4959 0.37042 3.2014 1.1112 0.70555 0.74084 1.0583 1.8638 1.0583 3.369"/>
 </g>
 <g id="text200">
  <path id="path3248" style="" d="m477.26 428.92v-5.9796h1.6228v5.9178c0 0.93487 0.18227 1.6375 0.54681 2.1078 0.36453 0.46449 0.91133 0.69673 1.6404 0.69673 0.87606 0 1.5669-0.27928 2.0726-0.83784 0.51152-0.55857 0.76728-1.32 0.76729-2.2842v-5.6003h1.6228v9.8778h-1.6228v-1.5169c-0.39394 0.59972-0.85255 1.0466-1.3758 1.3406-0.51742 0.2881-1.1201 0.43215-1.808 0.43215-1.1348 0-1.9961-0.35278-2.5841-1.0583-0.58796-0.70555-0.88195-1.7374-0.88194-3.0956m4.0834-6.2177m1.2083-4.3303h1.7551l-2.8751 3.3161h-1.3494l2.4694-3.3161"/>
  <path id="path3250" style="" d="m488.89 422.95h1.6228v10.054c-0.00001 1.2582-0.24107 2.1696-0.7232 2.734-0.47625 0.56444-1.2465 0.84666-2.3107 0.84667h-0.61736v-1.3758h0.43215c0.61736-0.00001 1.0378-0.14406 1.2612-0.43216 0.22343-0.28222 0.33514-0.87312 0.33514-1.7727v-10.054m0-3.8453h1.6228v2.0549h-1.6228v-2.0549"/>
  <path id="path3252" style="" d="m500.2 423.24v1.5346c-0.45861-0.23518-0.93486-0.41157-1.4287-0.52917-0.4939-0.11758-1.0054-0.17638-1.5346-0.17639-0.80551 0.00001-1.4111 0.12348-1.8168 0.37042-0.39982 0.24695-0.59972 0.61737-0.59972 1.1112 0 0.3763 0.14405 0.67322 0.43215 0.89076 0.2881 0.21167 0.86724 0.41452 1.7374 0.60854l0.55562 0.12347c1.1524 0.24695 1.9697 0.59679 2.4518 1.0495 0.488 0.44686 0.732 1.073 0.73201 1.8785-0.00001 0.91723-0.36454 1.6434-1.0936 2.1784-0.7232 0.53505-1.7198 0.80257-2.9898 0.80257-0.52917 0-1.0818-0.0529-1.658-0.15875-0.57033-0.0999-1.173-0.25282-1.808-0.45861v-1.6757c0.59972 0.31162 1.1906 0.54681 1.7727 0.70555 0.58208 0.15288 1.1583 0.22931 1.7286 0.22931 0.76435 0 1.3523-0.12935 1.7639-0.38806 0.41156-0.26458 0.61735-0.63499 0.61736-1.1112-0.00001-0.44097-0.14994-0.77905-0.44979-1.0142-0.29399-0.23518-0.94369-0.46155-1.9491-0.6791l-0.56444-0.13229c-1.0054-0.21166-1.7316-0.53504-2.1784-0.97013-0.44686-0.44097-0.67028-1.0436-0.67028-1.808 0-0.92897 0.32926-1.6463 0.98778-2.1519 0.65851-0.50564 1.5934-0.75846 2.8046-0.75847 0.59971 0.00001 1.1642 0.0441 1.6933 0.13229 0.52916 0.0882 1.0172 0.2205 1.464 0.39687"/>
  <path id="path3254" style="" d="m502.62 422.95h7.7082v1.4817l-6.103 7.0996h6.103v1.2965h-7.9287v-1.4817l6.103-7.0996h-5.8826v-1.2965"/>
  <path id="path3256" style="" d="m517.3 427.86c-1.3112 0-2.2196 0.14993-2.7252 0.44979-0.50565 0.29986-0.75847 0.81139-0.75847 1.5346 0 0.57621 0.18814 1.0348 0.56444 1.3758 0.38217 0.33514 0.89958 0.50271 1.5522 0.50271 0.89958 0 1.6198-0.3175 2.1608-0.9525 0.5468-0.64088 0.8202-1.4905 0.82021-2.5488v-0.36159h-1.614m3.2367-0.67028v5.6356h-1.6228v-1.4993c-0.37042 0.59973-0.83197 1.0436-1.3846 1.3317-0.55269 0.28222-1.2288 0.42333-2.0285 0.42333-1.0113 0-1.8168-0.28222-2.4165-0.84666-0.59385-0.57033-0.89077-1.3317-0.89077-2.2842 0-1.1112 0.37042-1.9491 1.1112-2.5135 0.74671-0.56443 1.858-0.84665 3.3338-0.84666h2.2754v-0.15875c-0.00001-0.74671-0.24695-1.3229-0.74083-1.7286-0.48802-0.41157-1.1759-0.61735-2.0638-0.61736-0.56445 0.00001-1.1142 0.0676-1.6492 0.20285-0.53505 0.13524-1.0495 0.33808-1.5434 0.60854v-1.4993c0.59384-0.22929 1.17-0.3998 1.7286-0.51152 0.55856-0.11759 1.1024-0.17638 1.6316-0.17639 1.4287 0.00001 2.4959 0.37042 3.2015 1.1112 0.70554 0.74084 1.0583 1.8638 1.0583 3.369m-2.9633-8.8106h1.7551l-2.8751 3.3161h-1.3494l2.4694-3.3161"/>
  <path id="path3258" style="" d="m531.58 424.84c0.40568-0.72906 0.89075-1.267 1.4552-1.614 0.56443-0.34688 1.2288-0.52033 1.9932-0.52034 1.0289 0.00001 1.8227 0.3616 2.3812 1.0848 0.55855 0.71732 0.83783 1.7404 0.83785 3.0692v5.9619h-1.6316v-5.909c-0.00002-0.94661-0.16759-1.6492-0.50271-2.1078-0.33515-0.4586-0.84668-0.6879-1.5346-0.68791-0.8408 0.00001-1.5052 0.27929-1.9932 0.83784-0.48801 0.55858-0.73202 1.32-0.73201 2.2842v5.5827h-1.6316v-5.909c-0.00001-0.95249-0.16758-1.6551-0.50271-2.1078-0.33515-0.4586-0.85255-0.6879-1.5522-0.68791-0.82903 0.00001-1.4876 0.28223-1.9756 0.84666-0.48801 0.55857-0.73201 1.317-0.73201 2.2754v5.5827h-1.6316v-9.8778h1.6316v1.5346c0.37041-0.60559 0.81433-1.0524 1.3317-1.3406 0.5174-0.28809 1.1318-0.43214 1.8433-0.43215 0.7173 0.00001 1.3258 0.18228 1.8256 0.5468 0.50564 0.36455 0.879 0.89371 1.1201 1.5875"/>
 </g>
 <g id="g204" transform="translate(-2.2425 -3.977)">
  <path id="rect206" fill="#fdfd04" d="m380 130h20v20h-20z"/>
  <path id="rect208" d="m380 130h20v20h-20z" stroke="#000" stroke-width="2" fill="none"/>
 </g>
 <g id="g210" transform="translate(-2.2425 -3.977)">
  <path id="rect212" fill="#fdfd04" d="m400 400h20v20h-20z"/>
  <path id="rect214" d="m400 400h20v20h-20z" stroke="#000" stroke-width="2" fill="none"/>
 </g>
 <g id="g216" transform="translate(-2.2425 -3.977)">
  <path id="rect218" fill="#fdfd04" d="m500 400h20v20h-20z"/>
  <path id="rect220" d="m500 400h20v20h-20z" stroke="#000" stroke-width="2" fill="none"/>
 </g>
 <g id="g222" transform="translate(-2.2425 -3.977)">
  <path id="rect224" fill="#fdfd04" d="m260 230h60v20h-60z"/>
  <path id="rect226" d="m260 230h60v20h-60z" stroke="#000" stroke-width="2" fill="none"/>
 </g>
 <g id="g228" transform="translate(-2.2425 -3.977)">
  <path id="rect230" fill="#fdfd04" d="m360 230h60v20h-60z"/>
  <path id="rect232" d="m360 230h60v20h-60z" stroke="#000" stroke-width="2" fill="none"/>
 </g>
 <g id="g234" transform="translate(-2.2425 -3.977)">
  <path id="rect236" fill="#fdfd04" d="m500 230h60v20h-60z"/>
  <path id="rect238" d="m500 230h60v20h-60z" stroke="#000" stroke-width="2" fill="none"/>
 </g>
 <g id="g240" transform="translate(-2.2425 -3.977)">
  <path id="rect242" fill="#fdfd04" d="m600 230h60v20h-60z"/>
  <path id="rect244" d="m600 230h60v20h-60z" stroke="#000" stroke-width="2" fill="none"/>
 </g>
 <path id="line246" d="m657.76 226.02-60 20" stroke="#000" stroke-width="2" fill="none"/>
 <path id="line248" d="m657.76 246.02-60-20" stroke="#000" stroke-width="2" fill="none"/>
 <g id="g250" transform="translate(-2.2425 -3.977)">
  <path id="rect252" fill="#fdfd04" d="m380 350h60v20h-60z"/>
  <path id="rect254" d="m380 350h60v20h-60z" stroke="#000" stroke-width="2" fill="none"/>
 </g>
 <g id="g256" transform="translate(-2.2425 -3.977)">
  <path id="rect258" fill="#fdfd04" d="m480 350h60v20h-60z"/>
  <path id="rect260" d="m480 350h60v20h-60z" stroke="#000" stroke-width="2" fill="none"/>
 </g>
</svg>
