<?xml version="1.0" encoding="UTF-8" standalone="no"?>
<!-- Created with Inkscape (http://www.inkscape.org/) -->
<svg id="svg2" xmlns:rdf="http://www.w3.org/1999/02/22-rdf-syntax-ns#" xmlns="http://www.w3.org/2000/svg" height="300.96" width="668.79" version="1.1" xmlns:cc="http://creativecommons.org/ns#" xmlns:dc="http://purl.org/dc/elements/1.1/" viewBox="338 78 360.60819 154.7763">
 <metadata id="metadata72">
  <rdf:RDF>
   <cc:Work rdf:about="">
    <dc:format>image/svg+xml</dc:format>
    <dc:type rdf:resource="http://purl.org/dc/dcmitype/StillImage"/>
   </cc:Work>
  </rdf:RDF>
 </metadata>
 <g id="g4" transform="translate(-1 -4.7502)">
  <path id="rect6" fill="#fff" d="m340 80h60v20h-60z"/>
  <path id="rect8" d="m340 80h60v20h-60z" stroke="#000" stroke-width="2" fill="none"/>
 </g>
 <g id="g10" transform="translate(-1 -4.7502)">
  <path id="rect12" fill="#8080ff" d="m340 160h80v20h-80z"/>
  <path id="rect14" d="m340 160h80v20h-80z" stroke="#000" stroke-width="2" fill="none"/>
 </g>
 <g id="text16">
  <path id="path3019" style="" d="m429.15 170.63v5.8936h-1.8356v-15.339h1.8356v1.6867c0.38364-0.66145 0.8665-1.1509 1.4486-1.4684 0.58869-0.3241 1.2898-0.48616 2.1034-0.48617 1.3494 0.00001 2.4441 0.53579 3.2841 1.6073 0.84665 1.0716 1.27 2.4805 1.27 4.2267-0.00001 1.7463-0.42335 3.1552-1.27 4.2267-0.84006 1.0716-1.9348 1.6073-3.2841 1.6073-0.8136 0-1.5148-0.15875-2.1034-0.47625-0.58209-0.32411-1.065-0.8169-1.4486-1.4784m6.2111-3.8794c-0.00001-1.3428-0.27782-2.3945-0.83344-3.1552-0.54901-0.76729-1.3064-1.1509-2.2721-1.1509-0.96573 0.00001-1.7264 0.38365-2.282 1.1509-0.54901 0.76068-0.82352 1.8124-0.82351 3.1552-0.00001 1.3428 0.2745 2.3978 0.82351 3.1651 0.55562 0.76068 1.3163 1.141 2.282 1.141 0.96573 0 1.7231-0.38034 2.2721-1.141 0.55562-0.76729 0.83343-1.8223 0.83344-3.1651"/>
  <path id="path3021" style="" d="m440.28 161.19h1.8256v11.112h-1.8256v-11.112m0-4.3259h1.8256v2.3118h-1.8256v-2.3118"/>
 </g>
 <g id="text20">
  <path id="path3024" style="" d="m587.38 81.187h1.8256v11.112h-1.8256v-11.112m0-4.3259h1.8256v2.3118h-1.8256v-2.3118"/>
  <path id="path3026" style="" d="m602.26 85.593v6.7072h-1.8256v-6.6477c-0.00001-1.0517-0.20506-1.8388-0.61516-2.3614-0.41011-0.52254-1.0253-0.78382-1.8455-0.78383-0.98557 0.00001-1.7628 0.3142-2.3316 0.94258-0.56885 0.62839-0.85328 1.485-0.85328 2.5698v6.2805h-1.8355v-11.112h1.8355v1.7264c0.43656-0.66806 0.94919-1.1675 1.5379-1.4982 0.59531-0.33072 1.2799-0.49608 2.0538-0.49609 1.2766 0.000012 2.2423 0.39689 2.8972 1.1906 0.65483 0.78714 0.98225 1.948 0.98226 3.4826"/>
  <path id="path3028" style="" d="m607.72 78.032v3.1552h3.7604v1.4188h-3.7604v6.0325c-0.00001 0.9062 0.12236 1.4883 0.36711 1.7462 0.25135 0.25797 0.75736 0.38695 1.518 0.38695h1.8752v1.528h-1.8752c-1.4089 0-2.3812-0.26128-2.917-0.78383-0.53578-0.52917-0.80367-1.4883-0.80367-2.8773v-6.0325h-1.3394v-1.4188h1.3394v-3.1552h1.8356"/>
  <path id="path3030" style="" d="m622.17 78.032v3.1552h3.7604v1.4188h-3.7604v6.0325c-0.00001 0.9062 0.12236 1.4883 0.36711 1.7462 0.25135 0.25797 0.75736 0.38695 1.518 0.38695h1.8752v1.528h-1.8752c-1.4089 0-2.3812-0.26128-2.917-0.78383-0.53578-0.52917-0.80367-1.4883-0.80367-2.8773v-6.0325h-1.3394v-1.4188h1.3394v-3.1552h1.8356"/>
  <path id="path3032" style="" d="m632.65 82.467c-0.97896 0.00001-1.7529 0.38366-2.3217 1.1509-0.56886 0.76068-0.85329 1.8058-0.85328 3.1353-0.00001 1.3295 0.28111 2.3779 0.84335 3.1452 0.56885 0.76068 1.3461 1.141 2.3316 1.141 0.97234 0.000001 1.7429-0.38364 2.3118-1.1509 0.56885-0.76729 0.85327-1.8124 0.85328-3.1353-0.00001-1.3163-0.28443-2.3581-0.85328-3.1254-0.56886-0.7739-1.3395-1.1608-2.3118-1.1609m0-1.5478c1.5875 0.000012 2.8343 0.51595 3.7406 1.5478 0.90619 1.0319 1.3593 2.4606 1.3593 4.2862-0.00001 1.819-0.45311 3.2478-1.3593 4.2862-0.90621 1.0319-2.153 1.5478-3.7406 1.5478-1.5941 0-2.8443-0.51594-3.7505-1.5478-0.89959-1.0385-1.3494-2.4672-1.3494-4.2862 0-1.8256 0.44979-3.2544 1.3494-4.2862 0.90619-1.0319 2.1564-1.5478 3.7505-1.5478"/>
  <path id="path3034" style="" d="m649.42 83.321c0.4564-0.8202 1.0021-1.4254 1.6371-1.8157 0.63499-0.39025 1.3824-0.58538 2.2424-0.58539 1.1575 0.000012 2.0505 0.40681 2.6789 1.2204 0.62837 0.80699 0.94256 1.9579 0.94258 3.4528v6.7072h-1.8356v-6.6477c-0.00001-1.0649-0.18853-1.8554-0.56554-2.3713-0.37705-0.51593-0.95252-0.7739-1.7264-0.77391-0.9459 0.00001-1.6933 0.3142-2.2423 0.94258-0.54902 0.62839-0.82353 1.485-0.82352 2.5698v6.2805h-1.8355v-6.6477c-0.00001-1.0716-0.18853-1.862-0.56555-2.3713-0.37704-0.51593-0.95912-0.7739-1.7462-0.77391-0.93266 0.00001-1.6735 0.31751-2.2225 0.9525-0.54902 0.62839-0.82352 1.4817-0.82352 2.5598v6.2805h-1.8355v-11.112h1.8355v1.7264c0.41672-0.68129 0.91612-1.184 1.4982-1.5081 0.58207-0.3241 1.2733-0.48616 2.0737-0.48617 0.80697 0.000012 1.4916 0.20506 2.0538 0.61516 0.56884 0.41012 0.98887 1.0054 1.2601 1.7859"/>
  <path id="path3036" style="" d="m668.54 86.753c-0.00001-1.3428-0.27782-2.3945-0.83344-3.1552-0.54902-0.76728-1.3064-1.1509-2.2721-1.1509-0.96573 0.00001-1.7264 0.38366-2.282 1.1509-0.54901 0.76068-0.82352 1.8124-0.82352 3.1552s0.27451 2.3978 0.82352 3.1651c0.55562 0.76068 1.3163 1.141 2.282 1.141 0.96572 0.000002 1.7231-0.38034 2.2721-1.141 0.55562-0.76729 0.83343-1.8223 0.83344-3.1651m-6.2111-3.8795c0.38365-0.66145 0.86651-1.1509 1.4486-1.4684 0.58869-0.3241 1.2898-0.48616 2.1034-0.48617 1.3494 0.000012 2.4441 0.53579 3.2841 1.6073 0.84665 1.0716 1.27 2.4805 1.27 4.2267-0.00002 1.7463-0.42335 3.1552-1.27 4.2267-0.84007 1.0716-1.9348 1.6073-3.2841 1.6073-0.8136 0-1.5148-0.15875-2.1034-0.47625-0.58209-0.32411-1.065-0.8169-1.4486-1.4784v1.6669h-1.8355v-15.438h1.8355v6.0127"/>
  <path id="path3038" style="" d="m673.3 76.861h4.2069v1.4188h-2.3812v15.28h2.3812v1.4188h-4.2069v-18.117"/>
  <path id="path3040" style="" d="m687.17 79.233-5.0602 7.9077h5.0602v-7.9077m-0.52586-1.7462h2.5202v9.654h2.1134v1.6669h-2.1134v3.4925h-1.9943v-3.4925h-6.6874v-1.9348l6.1615-9.3861"/>
  <path id="path3042" style="" d="m698.61 76.861v18.117h-4.2069v-1.4188h2.3713v-15.28h-2.3713v-1.4188h4.2069"/>
 </g>
 <g id="g24" transform="translate(-1 -4.7502)">
  <path id="path26" d="m380 159.01c0-50-10-8.014-10-48.278" stroke="#000" stroke-width="2" fill="none"/>
  <path id="polygon28" d="m370 110.73-5 2.5 5-10 5 10z"/>
  <path id="polygon30" d="m370 110.73-5 2.5 5-10 5 10z" stroke="#000" stroke-width="2" fill="none"/>
 </g>
 <g id="g32" transform="translate(-1 -4.7502)">
  <path id="rect34" fill="#fff" d="m400 80h60v20h-60z"/>
  <path id="rect36" d="m400 80h60v20h-60z" stroke="#000" stroke-width="2" fill="none"/>
 </g>
 <g id="g38" transform="translate(-1 -4.7502)">
  <path id="rect40" fill="#fff" d="m460 80h60v20h-60z"/>
  <path id="rect42" d="m460 80h60v20h-60z" stroke="#000" stroke-width="2" fill="none"/>
 </g>
 <g id="g44" transform="translate(-1 -4.7502)">
  <path id="rect46" fill="#fff" d="m520 80h60v20h-60z"/>
  <path id="rect48" d="m520 80h60v20h-60z" stroke="#000" stroke-width="2" fill="none"/>
 </g>
 <g id="g50" transform="translate(-1 -4.7502)">
  <path id="rect52" fill="#8080ff" d="m340 220h80v20h-80z"/>
  <path id="rect54" d="m340 220h80v20h-80z" stroke="#000" stroke-width="2" fill="none"/>
 </g>
 <g id="text56">
  <path id="path3055" style="" d="m429.15 230.63v5.8936h-1.8356v-15.339h1.8356v1.6867c0.38364-0.66145 0.8665-1.1509 1.4486-1.4684 0.58869-0.3241 1.2898-0.48616 2.1034-0.48617 1.3494 0.00001 2.4441 0.53579 3.2841 1.6073 0.84665 1.0716 1.27 2.4805 1.27 4.2267-0.00001 1.7463-0.42335 3.1552-1.27 4.2267-0.84006 1.0716-1.9348 1.6073-3.2841 1.6073-0.8136 0-1.5148-0.15875-2.1034-0.47625-0.58209-0.32411-1.065-0.8169-1.4486-1.4784m6.2111-3.8794c-0.00001-1.3428-0.27782-2.3945-0.83344-3.1552-0.54901-0.76729-1.3064-1.1509-2.2721-1.1509-0.96573 0.00001-1.7264 0.38365-2.282 1.1509-0.54901 0.76068-0.82352 1.8124-0.82351 3.1552-0.00001 1.3428 0.2745 2.3978 0.82351 3.1651 0.55562 0.76068 1.3163 1.141 2.282 1.141 0.96573 0 1.7231-0.38034 2.2721-1.141 0.55562-0.76729 0.83343-1.8223 0.83344-3.1651"/>
  <path id="path3057" style="" d="m440.28 221.19h1.8256v11.112h-1.8256v-11.112m0-4.3259h1.8256v2.3118h-1.8256v-2.3118"/>
  <path id="path3059" style="" d="m453.35 219.56v5.5265h5.5265v1.6867h-5.5265v5.5265h-1.6669v-5.5265h-5.5265v-1.6867h5.5265v-5.5265h1.6669"/>
  <path id="path3061" style="" d="m464.93 230.61h6.9949v1.6867h-9.4059v-1.6867c0.76067-0.78713 1.7958-1.8422 3.1055-3.1651 1.3163-1.3295 2.1431-2.1861 2.4805-2.5698 0.64161-0.72098 1.0881-1.3295 1.3394-1.8256 0.25796-0.5027 0.38695-0.99548 0.38696-1.4784-0.00001-0.78712-0.27782-1.4287-0.83344-1.9248-0.54902-0.49608-1.2667-0.74413-2.153-0.74414-0.62839 0.00001-1.2932 0.10915-1.9943 0.32742-0.69454 0.21829-1.4387 0.54902-2.2324 0.99219v-2.0241c0.80698-0.3241 1.561-0.56884 2.2622-0.73422 0.70114-0.16535 1.3428-0.24804 1.9248-0.24805 1.5346 0.00001 2.7583 0.38366 3.6711 1.1509 0.9128 0.7673 1.3692 1.7926 1.3692 3.0758-0.00001 0.60855-0.11577 1.1873-0.34727 1.7363-0.2249 0.5424-0.63831 1.184-1.2402 1.9248-0.16538 0.19183-0.69123 0.74745-1.5776 1.6669-0.88636 0.91281-2.1365 2.1927-3.7505 3.8398"/>
 </g>
 <g id="g60" transform="translate(-1 -4.7502)">
  <path id="path62" d="m380 218.99c0-40 110 22.016 110-108.25" stroke="#000" stroke-width="2" fill="none"/>
  <path id="polygon64" d="m490 110.74-5 2.5 5-10 5 10z"/>
  <path id="polygon66" d="m490 110.74-5 2.5 5-10 5 10z" stroke="#000" stroke-width="2" fill="none"/>
 </g>
</svg>
