<?xml version="1.0" encoding="UTF-8" standalone="no"?>
<!-- Created with Inkscape (http://www.inkscape.org/) -->
<svg id="svg2" xmlns:rdf="http://www.w3.org/1999/02/22-rdf-syntax-ns#" xmlns="http://www.w3.org/2000/svg" height="224.56" width="850.39" version="1.1" xmlns:cc="http://creativecommons.org/ns#" xmlns:dc="http://purl.org/dc/elements/1.1/" viewBox="139 299 462 111.36178">
 <metadata id="metadata66">
  <rdf:RDF>
   <cc:Work rdf:about="">
    <dc:format>image/svg+xml</dc:format>
    <dc:type rdf:resource="http://purl.org/dc/dcmitype/StillImage"/>
   </cc:Work>
  </rdf:RDF>
 </metadata>
 <g id="text4">
  <path id="path3012" style="" d="m172.44 383.51h1.2171v7.4084h-1.2171v-7.4084m0-2.884h1.2171v1.5412h-1.2171v-1.5412"/>
  <path id="path3014" style="" d="m182.35 386.44v4.4715h-1.2171v-4.4318c-0.00001-0.70114-0.13671-1.2259-0.4101-1.5743-0.27341-0.34836-0.68352-0.52254-1.2303-0.52255-0.65705 0.00001-1.1752 0.20947-1.5544 0.62839-0.37924 0.41893-0.56886 0.98999-0.56886 1.7132v4.187h-1.2237v-7.4084h1.2237v1.1509c0.29104-0.44538 0.6328-0.77831 1.0253-0.99881 0.39687-0.22048 0.85328-0.33072 1.3692-0.33073 0.85107 0.00001 1.4949 0.2646 1.9315 0.79376 0.43656 0.52476 0.65484 1.2987 0.65485 2.3217"/>
  <path id="path3016" style="" d="m186 381.4v2.1034h2.5069v0.94589h-2.5069v4.0217c0 0.60414 0.0816 0.99219 0.24474 1.1642 0.16757 0.17198 0.50491 0.25797 1.012 0.25797h1.2502v1.0186h-1.2502c-0.93928 0-1.5875-0.17418-1.9447-0.52255-0.35719-0.35278-0.53578-0.99219-0.53578-1.9182v-4.0217h-0.89297v-0.94589h0.89297v-2.1034h1.2237"/>
  <path id="path3018" style="" d="m166.81 401.86c0.30427-0.5468 0.66807-0.95029 1.0914-1.2105 0.42333-0.26017 0.92163-0.39026 1.4949-0.39027 0.77169 0.00001 1.367 0.27121 1.7859 0.8136 0.41891 0.53799 0.62838 1.3053 0.62839 2.3019v4.4715h-1.2237v-4.4318c-0.00001-0.70996-0.12569-1.2369-0.37703-1.5809-0.25137-0.34395-0.63502-0.51593-1.1509-0.51594-0.63061 0.00001-1.1289 0.20947-1.4949 0.62839-0.36602 0.41893-0.54902 0.98999-0.54902 1.7132v4.187h-1.2237v-4.4318c0-0.71437-0.12568-1.2413-0.37703-1.5809-0.25136-0.34395-0.63942-0.51593-1.1642-0.51594-0.62177 0.00001-1.1157 0.21167-1.4817 0.635-0.36601 0.41893-0.54901 0.98779-0.54901 1.7066v4.187h-1.2237v-7.4084h1.2237v1.1509c0.27781-0.4542 0.61074-0.78934 0.9988-1.0054 0.38806-0.21607 0.84887-0.32411 1.3825-0.32412 0.53798 0.00001 0.99438 0.13671 1.3692 0.41011 0.37923 0.27341 0.65925 0.67029 0.84005 1.1906"/>
  <path id="path3020" style="" d="m180.58 403.84v0.59532h-5.596c0.0529 0.83785 0.30427 1.4773 0.75406 1.9182 0.4542 0.43657 1.0848 0.65485 1.8918 0.65485 0.46742 0 0.91942-0.0573 1.356-0.17198 0.44097-0.11466 0.87753-0.28664 1.3097-0.51594v1.1509c-0.43657 0.18521-0.88416 0.32632-1.3428 0.42333-0.45862 0.097-0.92385 0.14552-1.3957 0.14552-1.1818 0-2.1189-0.34396-2.8112-1.0319-0.68792-0.68792-1.0319-1.6184-1.0319-2.7914 0-1.2127 0.32632-2.174 0.97896-2.884 0.65705-0.71437 1.5412-1.0716 2.6525-1.0716 0.99659 0.00001 1.7837 0.32192 2.3614 0.96574 0.58208 0.63941 0.87312 1.5103 0.87313 2.6128m-1.2171-0.35719c-0.009-0.66586-0.19624-1.1972-0.56224-1.5941-0.3616-0.39687-0.84226-0.59531-1.442-0.59532-0.6791 0.00001-1.2237 0.19183-1.6338 0.57547-0.4057 0.38365-0.63941 0.92385-0.70115 1.6206l4.3392-0.007"/>
  <path id="path3022" style="" d="m186.87 401.58c-0.13671-0.0794-0.28664-0.1367-0.44979-0.17198-0.15876-0.0397-0.33515-0.0595-0.52917-0.0595-0.68792 0.00001-1.2171 0.2249-1.5875 0.67469-0.36601 0.44539-0.54902 1.087-0.54901 1.9248v3.9026h-1.2237v-7.4084h1.2237v1.1509c0.25576-0.44979 0.58869-0.78272 0.9988-0.99881 0.4101-0.22047 0.9084-0.33072 1.4949-0.33073 0.0838 0.00001 0.17638 0.007 0.27781 0.0199 0.10142 0.009 0.21387 0.0243 0.33735 0.0463l0.007 1.2502"/>
  <path id="path3024" style="" d="m194.2 403.84v0.59532h-5.596c0.0529 0.83785 0.30427 1.4773 0.75406 1.9182 0.4542 0.43657 1.0848 0.65485 1.8918 0.65485 0.46742 0 0.91942-0.0573 1.356-0.17198 0.44097-0.11466 0.87753-0.28664 1.3097-0.51594v1.1509c-0.43657 0.18521-0.88416 0.32632-1.3428 0.42333-0.45862 0.097-0.92385 0.14552-1.3957 0.14552-1.1818 0-2.1189-0.34396-2.8112-1.0319-0.68792-0.68792-1.0319-1.6184-1.0319-2.7914 0-1.2127 0.32632-2.174 0.97896-2.884 0.65705-0.71437 1.5412-1.0716 2.6525-1.0716 0.99659 0.00001 1.7837 0.32192 2.3614 0.96574 0.58208 0.63941 0.87312 1.5103 0.87313 2.6128m-1.2171-0.35719c-0.009-0.66586-0.19624-1.1972-0.56224-1.5941-0.3616-0.39687-0.84226-0.59531-1.442-0.59532-0.6791 0.00001-1.2237 0.19183-1.6338 0.57547-0.4057 0.38365-0.63941 0.92385-0.70115 1.6206l4.3392-0.007"/>
  <path id="path3026" style="" d="m197.4 398.34v2.1034h2.5069v0.94589h-2.5069v4.0217c-0.00001 0.60414 0.0816 0.99219 0.24474 1.1642 0.16756 0.17198 0.50491 0.25797 1.012 0.25797h1.2502v1.0186h-1.2502c-0.93928 0-1.5875-0.17418-1.9447-0.52255-0.35719-0.35278-0.53579-0.99219-0.53579-1.9182v-4.0217h-0.89297v-0.94589h0.89297v-2.1034h1.2237"/>
 </g>
 <g id="g10" transform="translate(0 -5.3191)">
  <path id="rect12" fill="#fff" d="m300 340h300v40h-300z"/>
  <path id="rect14" d="m300 340h300v40h-300z" stroke="#000" stroke-width="2" fill="none"/>
 </g>
 <path id="line16" d="m400 334.68v40" stroke="#bfbfbf" stroke-width="2" fill="none"/>
 <path id="line18" d="m350 334.68v40" stroke="#bfbfbf" stroke-width="2" fill="none"/>
 <path id="line20" d="m450 334.68v40" stroke="#bfbfbf" stroke-width="2" fill="none"/>
 <path id="line22" d="m500 334.68v40" stroke="#bfbfbf" stroke-width="2" fill="none"/>
 <path id="line24" d="m550 334.68v40" stroke="#bfbfbf" stroke-width="2" fill="none"/>
 <g id="text26">
  <path id="path3036" style="" d="m421.56 352.82v-4.6765h1.4199v12.008h-1.4199v-1.2964c-0.2984 0.51447-0.67653 0.89774-1.1344 1.1498-0.45274 0.24694-0.99807 0.37042-1.636 0.37042-1.0444 0-1.8958-0.41672-2.5543-1.2502-0.65337-0.83343-0.98006-1.9292-0.98006-3.2874s0.32669-2.454 0.98006-3.2874c0.65852-0.83343 1.51-1.2502 2.5543-1.2502 0.63793 0.00001 1.1833 0.12606 1.636 0.37814 0.45787 0.24695 0.836 0.62765 1.1344 1.1421m-4.8386 3.0174c0 1.0444 0.2135 1.8649 0.64051 2.4617 0.43215 0.59163 1.0238 0.88745 1.7749 0.88745 0.75112 0 1.3428-0.29582 1.7749-0.88745 0.43214-0.59678 0.64822-1.4174 0.64823-2.4617-0.00001-1.0444-0.21609-1.8624-0.64823-2.454-0.43216-0.59677-1.0238-0.89516-1.7749-0.89517-0.75112 0.00001-1.3428 0.2984-1.7749 0.89517-0.42701 0.59164-0.64051 1.4096-0.64051 2.454"/>
  <path id="path3038" style="" d="m429.25 352.51c-0.76142 0.00001-1.3633 0.2984-1.8058 0.89518-0.44244 0.59164-0.66366 1.4045-0.66366 2.4386s0.21865 1.8495 0.65594 2.4463c0.44244 0.59164 1.0469 0.88746 1.8135 0.88746 0.75626 0 1.3556-0.29839 1.7981-0.89518 0.44243-0.59677 0.66365-1.4096 0.66366-2.4386-0.00001-1.0238-0.22123-1.8341-0.66366-2.4309-0.44245-0.60192-1.0418-0.90288-1.7981-0.90289m0-1.2038c1.2347 0.00001 2.2045 0.4013 2.9093 1.2038 0.70481 0.80258 1.0572 1.9138 1.0572 3.3338-0.00001 1.4148-0.35242 2.526-1.0572 3.3337-0.70482 0.80256-1.6746 1.2038-2.9093 1.2038-1.2399 0-2.2122-0.40129-2.917-1.2038-0.69967-0.80771-1.0495-1.919-1.0495-3.3337 0-1.4199 0.34984-2.5312 1.0495-3.3338 0.70482-0.80255 1.6772-1.2038 2.917-1.2038"/>
  <path id="path3040" style="" d="m435.41 356.74v-5.2321h1.4199v5.1781c0 0.81801 0.15948 1.4328 0.47845 1.8444 0.31897 0.40642 0.79742 0.60964 1.4354 0.60964 0.76655 0 1.371-0.24437 1.8135-0.73312 0.44758-0.48874 0.67137-1.155 0.67138-1.9987v-4.9003h1.4199v8.643h-1.4199v-1.3273c-0.3447 0.52476-0.74599 0.91575-1.2039 1.173-0.45273 0.25209-0.98006 0.37814-1.582 0.37814-0.99292 0-1.7466-0.30868-2.2611-0.92604-0.51447-0.61736-0.7717-1.5202-0.7717-2.7087m3.573-5.4405"/>
  <path id="path3042" style="" d="m451.8 355.84c-0.00001-1.0444-0.21608-1.8624-0.64823-2.454-0.42701-0.59677-1.0161-0.89516-1.7672-0.89517-0.75112 0.00001-1.3428 0.2984-1.7749 0.89517-0.42701 0.59164-0.64051 1.4096-0.64051 2.454s0.2135 1.8649 0.64051 2.4617c0.43215 0.59163 1.0238 0.88745 1.7749 0.88745 0.75112 0 1.3402-0.29582 1.7672-0.88745 0.43215-0.59678 0.64822-1.4174 0.64823-2.4617m-4.8308-3.0174c0.29839-0.51446 0.67395-0.89516 1.1267-1.1421 0.45787-0.25208 1.0032-0.37813 1.636-0.37814 1.0495 0.00001 1.9009 0.41673 2.5543 1.2502 0.65851 0.83344 0.98777 1.9292 0.98777 3.2874s-0.32926 2.454-0.98777 3.2874c-0.65338 0.83344-1.5048 1.2502-2.5543 1.2502-0.6328 0-1.1781-0.12348-1.636-0.37042-0.45273-0.25209-0.82829-0.63536-1.1267-1.1498v1.2964h-1.4276v-12.008h1.4276v4.6765"/>
  <path id="path3044" style="" d="m455.63 348.15h1.4199v12.008h-1.4199v-12.008"/>
  <path id="path3046" style="" d="m467.4 355.48v0.69453h-6.5286c0.0617 0.97748 0.35498 1.7235 0.87974 2.2379 0.5299 0.50933 1.2656 0.76399 2.2071 0.76399 0.54533 0 1.0727-0.0669 1.582-0.20065 0.51446-0.13376 1.0238-0.3344 1.528-0.60192v1.3428c-0.50933 0.21607-1.0315 0.3807-1.5666 0.49388-0.53505 0.11319-1.0778 0.16978-1.6283 0.16978-1.3788 0-2.472-0.40129-3.2797-1.2038-0.80257-0.80257-1.2038-1.8881-1.2038-3.2566 0-1.4148 0.3807-2.5363 1.1421-3.3646 0.76655-0.83343 1.798-1.2502 3.0945-1.2502 1.1627 0.00001 2.081 0.37557 2.755 1.1267 0.67908 0.74599 1.0186 1.7621 1.0186 3.0482m-1.4199-0.41672c-0.0103-0.77684-0.22894-1.3968-0.65594-1.8598-0.42187-0.46301-0.98264-0.69452-1.6823-0.69453-0.79228 0.00001-1.4276 0.2238-1.9061 0.67138-0.47332 0.44759-0.74598 1.0778-0.81801 1.8907l5.0624-0.008"/>
  <path id="path3048" style="" d="m474.63 348.15h3.272v1.1035h-1.8521v11.884h1.8521v1.1035h-3.272v-14.091"/>
  <path id="path3050" style="" d="m484.26 348.15v14.091h-3.272v-1.1035h1.8444v-11.884h-1.8444v-1.1035h3.272"/>
 </g>
 <g id="g30" transform="translate(0 -5.3191)">
  <path id="path32" d="m220 340c40 0 40 20 70.264 20" stroke="#000" stroke-width="2" fill="none"/>
  <path id="polygon34" d="m290.26 360-2.5-5 10 5-10 5z"/>
  <path id="polygon36" d="m290.26 360-2.5-5 10 5-10 5z" stroke="#000" stroke-width="2" fill="none"/>
 </g>
 <g id="g38" transform="translate(0 -5.3191)">
  <path id="rect40" fill="#fff" d="m140 300h80v80h-80z"/>
  <path id="rect42" d="m140 300h80v80h-80z" stroke="#000" stroke-width="2" fill="none"/>
 </g>
 <g id="g44" transform="translate(0 -5.3191)">
  <path id="rect46" fill="#fff" d="m140 380h80v40h-80z"/>
  <path id="rect48" d="m140 380h80v40h-80z" stroke="#000" stroke-width="2" fill="none"/>
 </g>
 <g id="text50">
  <path id="path3059" style="" d="m153.78 322.95v-4.6765h1.4199v12.008h-1.4199v-1.2964c-0.2984 0.51446-0.67653 0.89774-1.1344 1.1498-0.45273 0.24694-0.99807 0.37042-1.636 0.37042-1.0444 0-1.8958-0.41672-2.5543-1.2502-0.65338-0.83343-0.98006-1.9292-0.98006-3.2874s0.32668-2.454 0.98006-3.2874c0.65851-0.83343 1.51-1.2502 2.5543-1.2502 0.63793 0.00001 1.1833 0.12606 1.636 0.37813 0.45787 0.24696 0.836 0.62766 1.1344 1.1421m-4.8386 3.0173c-0.00001 1.0444 0.2135 1.865 0.64051 2.4617 0.43214 0.59164 1.0238 0.88746 1.7749 0.88746 0.75112 0 1.3428-0.29582 1.7749-0.88746 0.43215-0.59677 0.64822-1.4174 0.64823-2.4617-0.00001-1.0444-0.21608-1.8624-0.64823-2.454-0.43216-0.59677-1.0238-0.89516-1.7749-0.89517-0.75112 0.00001-1.3428 0.2984-1.7749 0.89517-0.42701 0.59164-0.64052 1.4096-0.64051 2.454"/>
  <path id="path3061" style="" d="m161.47 322.63c-0.76141 0.00001-1.3633 0.2984-1.8058 0.89517-0.44245 0.59165-0.66367 1.4045-0.66367 2.4386s0.21865 1.8495 0.65595 2.4463c0.44244 0.59164 1.0469 0.88746 1.8135 0.88745 0.75626 0.00001 1.3556-0.29838 1.7981-0.89517 0.44243-0.59677 0.66365-1.4096 0.66366-2.4386-0.00001-1.0238-0.22123-1.8341-0.66366-2.4308-0.44245-0.60192-1.0418-0.90288-1.7981-0.90289m0-1.2038c1.2347 0.00001 2.2045 0.40129 2.9093 1.2038 0.70481 0.80258 1.0572 1.9138 1.0572 3.3337-0.00001 1.4148-0.35242 2.526-1.0572 3.3337-0.70483 0.80257-1.6746 1.2039-2.9093 1.2039-1.2399 0-2.2122-0.40129-2.917-1.2039-0.69968-0.80771-1.0495-1.919-1.0495-3.3337 0-1.4199 0.34983-2.5312 1.0495-3.3337 0.70481-0.80256 1.6772-1.2038 2.917-1.2038"/>
  <path id="path3063" style="" d="m167.64 326.87v-5.2321h1.4199v5.1781c0 0.81801 0.15949 1.4328 0.47846 1.8444 0.31896 0.40643 0.79742 0.60965 1.4354 0.60965 0.76655 0 1.371-0.24437 1.8135-0.73312 0.44758-0.48874 0.67137-1.155 0.67138-1.9987v-4.9003h1.4199v8.643h-1.4199v-1.3273c-0.3447 0.52476-0.74598 0.91575-1.2038 1.173-0.45274 0.25209-0.98006 0.37814-1.582 0.37814-0.99293 0-1.7466-0.30868-2.2611-0.92604-0.51447-0.61736-0.7717-1.5202-0.7717-2.7087m3.573-5.4405"/>
  <path id="path3065" style="" d="m184.02 325.96c0-1.0444-0.21608-1.8624-0.64822-2.454-0.42702-0.59677-1.0161-0.89516-1.7672-0.89517-0.75112 0.00001-1.3428 0.2984-1.7749 0.89517-0.42701 0.59164-0.64052 1.4096-0.64051 2.454-0.00001 1.0444 0.2135 1.865 0.64051 2.4617 0.43214 0.59164 1.0238 0.88746 1.7749 0.88746 0.75112 0 1.3402-0.29582 1.7672-0.88746 0.43214-0.59677 0.64822-1.4174 0.64822-2.4617m-4.8308-3.0173c0.29838-0.51446 0.67394-0.89516 1.1267-1.1421 0.45787-0.25207 1.0032-0.37812 1.636-0.37813 1.0495 0.00001 1.9009 0.41673 2.5543 1.2502 0.65851 0.83344 0.98777 1.9292 0.98778 3.2874-0.00001 1.3582-0.32927 2.454-0.98778 3.2874-0.65338 0.83344-1.5048 1.2502-2.5543 1.2502-0.6328 0-1.1781-0.12348-1.636-0.37042-0.45274-0.25209-0.8283-0.63537-1.1267-1.1498v1.2964h-1.4276v-12.008h1.4276v4.6765"/>
  <path id="path3067" style="" d="m187.85 318.27h1.4199v12.008h-1.4199v-12.008"/>
  <path id="path3069" style="" d="m199.62 325.6v0.69452h-6.5286c0.0617 0.97749 0.35498 1.7235 0.87973 2.2379 0.5299 0.50932 1.2656 0.76399 2.2071 0.76398 0.54533 0.00001 1.0727-0.0669 1.582-0.20064 0.51446-0.13376 1.0238-0.3344 1.528-0.60192v1.3428c-0.50933 0.21608-1.0315 0.38071-1.5666 0.49389-0.53505 0.11318-1.0778 0.16978-1.6283 0.16978-1.3788 0-2.472-0.40129-3.2797-1.2039-0.80257-0.80256-1.2039-1.8881-1.2039-3.2566 0-1.4148 0.38071-2.5363 1.1421-3.3646 0.76655-0.83343 1.798-1.2502 3.0945-1.2502 1.1627 0.00001 2.081 0.37557 2.755 1.1267 0.67909 0.74599 1.0186 1.7621 1.0186 3.0482m-1.4199-0.41672c-0.0103-0.77684-0.22895-1.3968-0.65595-1.8598-0.42187-0.46301-0.98263-0.69452-1.6823-0.69453-0.79229 0.00001-1.4276 0.2238-1.9061 0.67138-0.47331 0.44759-0.74598 1.0778-0.818 1.8907l5.0624-0.008"/>
  <path id="path3071" style="" d="m212.93 320.65-2.7704 1.4971 2.7704 1.5048-0.44759 0.75627-2.5929-1.5666v2.9093h-0.87973v-2.9093l-2.5929 1.5666-0.44759-0.75627 2.7704-1.5048-2.7704-1.4971 0.44759-0.76398 2.5929 1.5666v-2.9093h0.87973v2.9093l2.5929-1.5666 0.44759 0.76398"/>
  <path id="path3073" style="" d="m167.61 345.69c-1.1473 0-1.9421 0.13119-2.3846 0.39356-0.44244 0.26239-0.66366 0.70997-0.66366 1.3428 0 0.50418 0.16462 0.90546 0.49389 1.2038 0.3344 0.29325 0.78713 0.43987 1.3582 0.43987 0.78712 0 1.4174-0.27781 1.8907-0.83343 0.47845-0.56077 0.71767-1.3042 0.71768-2.2302v-0.31639h-1.4122m2.8321-0.58649v4.9312h-1.4199v-1.3119c-0.32412 0.52475-0.72798 0.91317-1.2116 1.1653-0.4836 0.24695-1.0752 0.37042-1.7749 0.37042-0.88488 0-1.5897-0.24695-2.1144-0.74083-0.51961-0.49904-0.77942-1.1653-0.77942-1.9987 0-0.97233 0.32411-1.7054 0.97234-2.1993 0.65337-0.49388 1.6257-0.74082 2.917-0.74083h1.991v-0.1389c-0.00001-0.65337-0.21608-1.1576-0.64823-1.5125-0.42701-0.36011-1.0289-0.54018-1.8058-0.54018-0.4939 0-0.97492 0.0592-1.4431 0.17749-0.46817 0.11833-0.91833 0.29582-1.3505 0.53247v-1.3119c0.51961-0.20063 1.0238-0.34983 1.5125-0.44759 0.48873-0.10288 0.96462-0.15433 1.4276-0.15434 1.2502 0.00001 2.1839 0.32413 2.8013 0.97235 0.61735 0.64823 0.92603 1.6309 0.92604 2.9479"/>
  <path id="path3075" style="" d="m179.06 342.7v-4.6765h1.4199v12.008h-1.4199v-1.2964c-0.2984 0.51447-0.67653 0.89774-1.1344 1.1498-0.45274 0.24695-0.99807 0.37042-1.636 0.37042-1.0444 0-1.8958-0.41672-2.5543-1.2502-0.65337-0.83343-0.98006-1.9292-0.98006-3.2874s0.32669-2.454 0.98006-3.2874c0.65852-0.83343 1.51-1.2502 2.5543-1.2502 0.63793 0.00001 1.1833 0.12606 1.636 0.37814 0.45787 0.24695 0.836 0.62765 1.1344 1.1421m-4.8386 3.0174c0 1.0444 0.2135 1.8649 0.64051 2.4617 0.43215 0.59163 1.0238 0.88745 1.7749 0.88745 0.75112 0 1.3428-0.29582 1.7749-0.88745 0.43214-0.59678 0.64822-1.4174 0.64823-2.4617-0.00001-1.0444-0.21609-1.8624-0.64823-2.454-0.43216-0.59677-1.0238-0.89516-1.7749-0.89517-0.75112 0.00001-1.3428 0.2984-1.7749 0.89517-0.42701 0.59164-0.64051 1.4096-0.64051 2.454"/>
  <path id="path3077" style="" d="m187.33 345.69c-1.1473 0-1.9421 0.13119-2.3846 0.39356-0.44244 0.26239-0.66366 0.70997-0.66366 1.3428 0 0.50418 0.16463 0.90546 0.49389 1.2038 0.3344 0.29325 0.78713 0.43987 1.3582 0.43987 0.78713 0 1.4174-0.27781 1.8907-0.83343 0.47845-0.56077 0.71768-1.3042 0.71768-2.2302v-0.31639h-1.4122m2.8321-0.58649v4.9312h-1.4199v-1.3119c-0.32412 0.52475-0.72797 0.91317-1.2116 1.1653-0.4836 0.24695-1.0752 0.37042-1.7749 0.37042-0.88489 0-1.5897-0.24695-2.1145-0.74083-0.51961-0.49904-0.77942-1.1653-0.77942-1.9987 0-0.97233 0.32412-1.7054 0.97234-2.1993 0.65337-0.49388 1.6257-0.74082 2.917-0.74083h1.991v-0.1389c0-0.65337-0.21608-1.1576-0.64823-1.5125-0.42701-0.36011-1.0289-0.54018-1.8058-0.54018-0.49389 0-0.97492 0.0592-1.4431 0.17749-0.46817 0.11833-0.91832 0.29582-1.3505 0.53247v-1.3119c0.51961-0.20063 1.0238-0.34983 1.5125-0.44759 0.48874-0.10288 0.96462-0.15433 1.4276-0.15434 1.2502 0.00001 2.1839 0.32413 2.8013 0.97235 0.61735 0.64823 0.92603 1.6309 0.92604 2.9479"/>
  <path id="path3079" style="" d="m194.5 338.94v2.454h2.9247v1.1035h-2.9247v4.6919c0 0.70483 0.0952 1.1576 0.28553 1.3582 0.19549 0.20065 0.58906 0.30097 1.1807 0.30097h1.4585v1.1884h-1.4585c-1.0958 0-1.8521-0.20321-2.2688-0.60964-0.41672-0.41157-0.62508-1.1575-0.62507-2.2379v-4.6919h-1.0418v-1.1035h1.0418v-2.454h1.4276"/>
 </g>
 <g id="text56">
  <path id="path3082" style="" d="m171.18 381.63h1.4199v8.643h-1.4199v-8.643m0-3.3646h1.4199v1.7981h-1.4199v-1.7981"/>
  <path id="path3084" style="" d="m182.75 385.06v5.2167h-1.4199v-5.1704c0-0.818-0.15949-1.4302-0.47845-1.8366-0.31898-0.40642-0.79743-0.60963-1.4354-0.60964-0.76656 0.00001-1.3711 0.24438-1.8135 0.73312-0.44245 0.48874-0.66367 1.155-0.66367 1.9987v4.8848h-1.4276v-8.643h1.4276v1.3428c0.33955-0.51961 0.73826-0.90803 1.1961-1.1653 0.46301-0.25722 0.99548-0.38584 1.5974-0.38585 0.99291 0.00001 1.744 0.30869 2.2534 0.92604 0.50931 0.61222 0.76397 1.5151 0.76398 2.7087"/>
  <path id="path3086" style="" d="m187 379.18v2.454h2.9247v1.1035h-2.9247v4.6919c0 0.70482 0.0952 1.1576 0.28553 1.3582 0.1955 0.20065 0.58906 0.30097 1.1807 0.30097h1.4585v1.1884h-1.4585c-1.0958 0-1.8521-0.20321-2.2688-0.60964-0.41672-0.41157-0.62508-1.1576-0.62508-2.2379v-4.6919h-1.0418v-1.1035h1.0418v-2.454h1.4276"/>
  <path id="path3088" style="" d="m164.61 403.05c0.35497-0.63793 0.77941-1.1087 1.2733-1.4122 0.49388-0.30353 1.0752-0.4553 1.744-0.45531 0.90031 0.00001 1.5948 0.31641 2.0836 0.94919 0.48873 0.62766 0.7331 1.5228 0.73311 2.6855v5.2167h-1.4276v-5.1704c-0.00001-0.82828-0.14663-1.4431-0.43987-1.8444-0.29325-0.40128-0.74084-0.60192-1.3428-0.60193-0.7357 0.00001-1.317 0.24438-1.744 0.73312-0.42702 0.48875-0.64052 1.155-0.64051 1.9987v4.8848h-1.4276v-5.1704c-0.00001-0.83343-0.14663-1.4482-0.43987-1.8444-0.29325-0.40128-0.74598-0.60192-1.3582-0.60193-0.7254 0.00001-1.3016 0.24695-1.7286 0.74083-0.42701 0.48875-0.64052 1.1524-0.64051 1.991v4.8848h-1.4276v-8.643h1.4276v1.3428c0.32411-0.52989 0.71253-0.92089 1.1653-1.173 0.45273-0.25208 0.99034-0.37813 1.6128-0.37814 0.62765 0.00001 1.1601 0.1595 1.5974 0.47846 0.44243 0.31897 0.76912 0.78199 0.98006 1.3891"/>
  <path id="path3090" style="" d="m180.68 405.36v0.69453h-6.5286c0.0617 0.97749 0.35498 1.7235 0.87974 2.2379 0.5299 0.50933 1.2656 0.76399 2.2071 0.76399 0.54533 0 1.0726-0.0669 1.582-0.20065 0.51446-0.13376 1.0238-0.3344 1.528-0.60192v1.3428c-0.50933 0.21607-1.0315 0.3807-1.5666 0.49388-0.53505 0.11319-1.0778 0.16978-1.6283 0.16978-1.3788 0-2.472-0.40129-3.2797-1.2038-0.80257-0.80257-1.2038-1.8881-1.2038-3.2566 0-1.4148 0.3807-2.5363 1.1421-3.3646 0.76656-0.83343 1.7981-1.2502 3.0945-1.2502 1.1627 0.00001 2.081 0.37557 2.755 1.1267 0.67909 0.74598 1.0186 1.762 1.0186 3.0482m-1.4199-0.41672c-0.0103-0.77684-0.22894-1.3968-0.65594-1.8598-0.42187-0.46301-0.98264-0.69452-1.6823-0.69452-0.79228 0-1.4276 0.2238-1.9061 0.67137-0.47331 0.4476-0.74597 1.0778-0.818 1.8907l5.0624-0.008"/>
  <path id="path3092" style="" d="m188.01 402.72c-0.15949-0.0926-0.33441-0.15948-0.52476-0.20065-0.18521-0.0463-0.391-0.0694-0.61736-0.0695-0.80257 0.00001-1.4199 0.26239-1.8521 0.78713-0.42701 0.51962-0.64051 1.2682-0.64051 2.2456v4.553h-1.4276v-8.643h1.4276v1.3428c0.29839-0.52475 0.68681-0.91317 1.1653-1.1653 0.47845-0.25722 1.0598-0.38584 1.744-0.38585 0.0977 0.00001 0.20578 0.008 0.32411 0.0232 0.11832 0.0103 0.24951 0.0283 0.39357 0.054l0.008 1.4585"/>
  <path id="path3094" style="" d="m196.56 405.36v0.69453h-6.5286c0.0617 0.97749 0.35498 1.7235 0.87974 2.2379 0.52989 0.50933 1.2656 0.76399 2.2071 0.76399 0.54532 0 1.0726-0.0669 1.582-0.20065 0.51446-0.13376 1.0238-0.3344 1.528-0.60192v1.3428c-0.50933 0.21607-1.0315 0.3807-1.5666 0.49388-0.53505 0.11319-1.0778 0.16978-1.6283 0.16978-1.3788 0-2.472-0.40129-3.2797-1.2038-0.80257-0.80257-1.2038-1.8881-1.2038-3.2566 0-1.4148 0.3807-2.5363 1.1421-3.3646 0.76655-0.83343 1.7981-1.2502 3.0945-1.2502 1.1627 0.00001 2.081 0.37557 2.755 1.1267 0.67909 0.74598 1.0186 1.762 1.0186 3.0482m-1.4199-0.41672c-0.0103-0.77684-0.22895-1.3968-0.65595-1.8598-0.42187-0.46301-0.98263-0.69452-1.6823-0.69452-0.79228 0-1.4276 0.2238-1.9061 0.67137-0.47331 0.4476-0.74598 1.0778-0.818 1.8907l5.0624-0.008"/>
  <path id="path3096" style="" d="m200.3 398.94v2.454h2.9247v1.1035h-2.9247v4.6919c0 0.70483 0.0952 1.1576 0.28553 1.3582 0.19549 0.20065 0.58906 0.30097 1.1807 0.30097h1.4585v1.1884h-1.4585c-1.0958 0-1.8521-0.20321-2.2688-0.60964-0.41672-0.41157-0.62508-1.1575-0.62507-2.2379v-4.6919h-1.0418v-1.1035h1.0418v-2.454h1.4276"/>
 </g>
</svg>
