<?xml version="1.0" encoding="UTF-8" standalone="no"?>
<!-- Created with Inkscape (http://www.inkscape.org/) -->
<svg id="svg2" xmlns:rdf="http://www.w3.org/1999/02/22-rdf-syntax-ns#" xmlns="http://www.w3.org/2000/svg" height="279.54" width="564.65" version="1.1" xmlns:cc="http://creativecommons.org/ns#" xmlns:dc="http://purl.org/dc/elements/1.1/" viewBox="359 46 311.74191 152.85645">
 <metadata id="metadata64">
  <rdf:RDF>
   <cc:Work rdf:about="">
    <dc:format>image/svg+xml</dc:format>
    <dc:type rdf:resource="http://purl.org/dc/dcmitype/StillImage"/>
   </cc:Work>
  </rdf:RDF>
 </metadata>
 <g id="g4" transform="translate(0 -1.4039)">
  <path id="rect6" fill="#fff" d="m360 180h20v20h-20z"/>
  <path id="rect8" d="m360 180h20v20h-20z" stroke="#000" stroke-width="2" fill="none"/>
 </g>
 <g id="g10" transform="translate(0 -1.4039)">
  <path id="rect12" fill="#fff" d="m360 80h70v20h-70z"/>
  <path id="rect14" d="m360 80h70v20h-70z" stroke="#000" stroke-width="2" fill="none"/>
 </g>
 <g id="g16" transform="translate(0 -1.4039)">
  <path id="rect18" fill="#8080ff" d="m490 180h100v20h-100z"/>
  <path id="rect20" d="m490 180h100v20h-100z" stroke="#000" stroke-width="2" fill="none"/>
 </g>
 <g id="g22" transform="translate(0 -1.4039)">
  <path id="rect24" fill="#8080ff" d="m490 80h100v20h-100z"/>
  <path id="rect26" d="m490 80h100v20h-100z" stroke="#000" stroke-width="2" fill="none"/>
 </g>
 <g id="text28">
  <path id="path3019" style="" d="m604.56 185.35v1.5169c-0.45862-0.25281-0.92017-0.44096-1.3847-0.56444-0.45861-0.12935-0.9231-0.19402-1.3935-0.19403-1.0524 0.00001-1.8697 0.33515-2.4518 1.0054-0.58208 0.6644-0.87313 1.5993-0.87312 2.8046-0.00001 1.2053 0.29104 2.1431 0.87312 2.8134 0.58208 0.66439 1.3994 0.99659 2.4518 0.99659 0.47037 0 0.93486-0.0617 1.3935-0.18521 0.46449-0.12935 0.92604-0.32043 1.3847-0.57326v1.4993c-0.45274 0.21167-0.92311 0.37042-1.4111 0.47625-0.48214 0.10584-0.99661 0.15875-1.5434 0.15875-1.4875 0-2.6694-0.46743-3.5454-1.4023-0.87606-0.93485-1.3141-2.196-1.3141-3.7835 0-1.611 0.44097-2.8781 1.3229-3.8012 0.88782-0.92309 2.102-1.3846 3.6424-1.3846 0.49976 0.00001 0.98777 0.0529 1.464 0.15875 0.47625 0.1 0.9378 0.25283 1.3847 0.45861"/>
  <path id="path3021" style="" d="m615.61 188.88v5.9619h-1.6228v-5.909c-0.00001-0.93485-0.18228-1.6345-0.5468-2.099-0.36455-0.46448-0.91135-0.69672-1.6404-0.69673-0.87607 0.00001-1.5669 0.27929-2.0726 0.83784-0.50565 0.55858-0.75847 1.32-0.75847 2.2842v5.5827h-1.6316v-13.723h1.6316v5.3798c0.38805-0.59383 0.84372-1.0377 1.367-1.3317 0.52917-0.29397 1.1377-0.44096 1.8256-0.44097 1.1348 0.00001 1.9932 0.35279 2.5753 1.0583 0.58207 0.69968 0.87312 1.7316 0.87313 3.0956"/>
  <path id="path3023" style="" d="m623.36 189.88c-1.3112 0-2.2196 0.14993-2.7252 0.44979-0.50565 0.29986-0.75847 0.81139-0.75847 1.5346 0 0.57621 0.18815 1.0348 0.56445 1.3758 0.38217 0.33514 0.89957 0.50271 1.5522 0.50271 0.89957 0 1.6198-0.3175 2.1608-0.9525 0.5468-0.64087 0.8202-1.4905 0.82021-2.5488v-0.36159h-1.614m3.2367-0.67028v5.6356h-1.6228v-1.4993c-0.37043 0.59972-0.83198 1.0436-1.3847 1.3317-0.55269 0.28222-1.2288 0.42333-2.0285 0.42333-1.0113 0-1.8168-0.28222-2.4165-0.84666-0.59384-0.57032-0.89076-1.3317-0.89076-2.2842 0-1.1112 0.37041-1.9491 1.1112-2.5135 0.7467-0.56444 1.858-0.84666 3.3337-0.84667h2.2754v-0.15875c-0.00001-0.74671-0.24696-1.3229-0.74084-1.7286-0.48801-0.41156-1.1759-0.61735-2.0637-0.61736-0.56445 0.00001-1.1142 0.0676-1.6492 0.20285-0.53505 0.13524-1.0495 0.33808-1.5434 0.60854v-1.4993c0.59384-0.22929 1.17-0.3998 1.7286-0.51152 0.55856-0.11759 1.1024-0.17638 1.6316-0.17639 1.4288 0.00001 2.4959 0.37042 3.2015 1.1112 0.70554 0.74084 1.0583 1.8638 1.0583 3.369"/>
  <path id="path3025" style="" d="m635.67 186.49c-0.18228-0.10583-0.38218-0.18226-0.59972-0.22931-0.21168-0.0529-0.44686-0.0794-0.70556-0.0794-0.91722 0-1.6228 0.29986-2.1167 0.89958-0.48801 0.59385-0.73202 1.4493-0.73201 2.5664v5.2035h-1.6316v-9.8778h1.6316v1.5346c0.34101-0.59971 0.78492-1.0436 1.3317-1.3317 0.5468-0.29397 1.2112-0.44096 1.9932-0.44097 0.11171 0.00001 0.23518 0.009 0.37042 0.0265 0.13522 0.0118 0.28515 0.0323 0.44979 0.0617l0.009 1.6669"/>
  <path id="path3027" style="" d="m649.93 183.85-3.1662 1.711 3.1662 1.7198-0.51153 0.8643-2.9633-1.7904v3.3249h-1.0054v-3.3249l-2.9633 1.7904-0.51153-0.8643 3.1662-1.7198-3.1662-1.711 0.51153-0.87313 2.9633 1.7904v-3.3249h1.0054v3.3249l2.9633-1.7904 0.51153 0.87313"/>
  <path id="path3029" style="" d="m653.74 193.36v5.2388h-1.6316v-13.635h1.6316v1.4993c0.34101-0.58796 0.77022-1.023 1.2876-1.3053 0.52328-0.28809 1.1465-0.43214 1.8697-0.43215 1.1994 0.00001 2.1725 0.47626 2.9192 1.4288 0.75258 0.9525 1.1289 2.2049 1.1289 3.7571-0.00002 1.5522-0.37631 2.8046-1.1289 3.7571-0.74672 0.9525-1.7198 1.4288-2.9192 1.4288-0.7232 0-1.3464-0.14111-1.8697-0.42333-0.51742-0.2881-0.94663-0.72613-1.2876-1.3141m5.521-3.4484c-0.00001-1.1936-0.24695-2.1284-0.74083-2.8046-0.48802-0.68203-1.1612-1.023-2.0196-1.0231-0.85843 0.00001-1.5346 0.34103-2.0285 1.0231-0.48801 0.67616-0.73202 1.611-0.73201 2.8046-0.00001 1.1936 0.244 2.1314 0.73201 2.8134 0.49388 0.67615 1.17 1.0142 2.0285 1.0142 0.85842 0 1.5316-0.33808 2.0196-1.0142 0.49388-0.68204 0.74082-1.6198 0.74083-2.8134"/>
  <path id="path3031" style="" d="m670.74 185.35v1.5169c-0.45862-0.25281-0.92017-0.44096-1.3846-0.56444-0.45862-0.12935-0.92311-0.19402-1.3935-0.19403-1.0525 0.00001-1.8697 0.33515-2.4518 1.0054-0.58209 0.6644-0.87313 1.5993-0.87313 2.8046s0.29104 2.1431 0.87313 2.8134c0.58207 0.66439 1.3993 0.99659 2.4518 0.99659 0.47036 0 0.93485-0.0617 1.3935-0.18521 0.46448-0.12935 0.92603-0.32043 1.3846-0.57326v1.4993c-0.45274 0.21167-0.92311 0.37042-1.4111 0.47625-0.48214 0.10584-0.9966 0.15875-1.5434 0.15875-1.4876 0-2.6694-0.46743-3.5454-1.4023-0.87607-0.93485-1.3141-2.196-1.3141-3.7835 0-1.611 0.44097-2.8781 1.3229-3.8012 0.88782-0.92309 2.102-1.3846 3.6424-1.3846 0.49976 0.00001 0.98777 0.0529 1.464 0.15875 0.47624 0.1 0.93779 0.25283 1.3846 0.45861"/>
 </g>
 <g id="text32">
  <path id="path3034" style="" d="m597.45 84.968h1.6228v9.8778h-1.6228v-9.8778m0-3.8453h1.6228v2.0549h-1.6228v-2.0549"/>
  <path id="path3036" style="" d="m610.67 88.884v5.9619h-1.6228v-5.909c-0.00001-0.93485-0.18228-1.6345-0.54681-2.099-0.36454-0.46448-0.91135-0.69673-1.6404-0.69674-0.87607 0.000009-1.5669 0.27929-2.0726 0.83785-0.50565 0.55857-0.75847 1.32-0.75847 2.2842v5.5827h-1.6316v-9.8778h1.6316v1.5346c0.38805-0.59383 0.84372-1.0377 1.367-1.3317 0.52916-0.29397 1.1377-0.44096 1.8256-0.44097 1.1348 0.00001 1.9932 0.35279 2.5753 1.0583 0.58207 0.69968 0.87311 1.7316 0.87312 3.0956"/>
  <path id="path3038" style="" d="m615.53 82.164v2.8046h3.3426v1.2612h-3.3426v5.3622c0 0.80551 0.10877 1.3229 0.32632 1.5522 0.22342 0.22931 0.67321 0.34396 1.3494 0.34396h1.6669v1.3582h-1.6669c-1.2524 0-2.1167-0.23224-2.5929-0.69674-0.47625-0.47037-0.71438-1.3229-0.71437-2.5576v-5.3622h-1.1906v-1.2612h1.1906v-2.8046h1.6316"/>
  <path id="path3040" style="" d="m633.56 83.848-3.1662 1.711 3.1662 1.7198-0.51153 0.8643-2.9633-1.7903v3.3249h-1.0054v-3.3249l-2.9633 1.7903-0.51152-0.8643 3.1662-1.7198-3.1662-1.711 0.51152-0.87312 2.9633 1.7903v-3.3249h1.0054v3.3249l2.9633-1.7903 0.51153 0.87312"/>
  <path id="path3042" style="" d="m637.37 93.364v5.2387h-1.6316v-13.635h1.6316v1.4993c0.34101-0.58795 0.77022-1.023 1.2876-1.3053 0.52328-0.28809 1.1465-0.43214 1.8697-0.43215 1.1994 0.00001 2.1725 0.47626 2.9192 1.4287 0.75258 0.95251 1.1289 2.2049 1.1289 3.7571-0.00002 1.5522-0.37631 2.8046-1.1289 3.7571-0.74672 0.9525-1.7198 1.4287-2.9192 1.4287-0.7232 0-1.3464-0.14111-1.8697-0.42333-0.51742-0.2881-0.94663-0.72613-1.2876-1.3141m5.521-3.4484c-0.00001-1.1936-0.24695-2.1284-0.74083-2.8046-0.48802-0.68203-1.1612-1.023-2.0196-1.0231-0.85843 0.000008-1.5346 0.34103-2.0285 1.0231-0.48801 0.67616-0.73202 1.611-0.73201 2.8046-0.00001 1.1936 0.244 2.1314 0.73201 2.8134 0.49388 0.67616 1.17 1.0142 2.0285 1.0142 0.85842 0.000001 1.5316-0.33808 2.0196-1.0142 0.49388-0.68203 0.74082-1.6198 0.74083-2.8134"/>
  <path id="path3044" style="" d="m647.26 84.968h1.6228v9.8778h-1.6228v-9.8778m0-3.8453h1.6228v2.0549h-1.6228v-2.0549"/>
 </g>
 <g id="text36">
  <path id="path3047" style="" d="m437.45 84.968h1.6228v9.8778h-1.6228v-9.8778m0-3.8453h1.6228v2.0549h-1.6228v-2.0549"/>
  <path id="path3049" style="" d="m450.67 88.884v5.9619h-1.6228v-5.909c-0.00001-0.93485-0.18228-1.6345-0.54681-2.099-0.36454-0.46448-0.91135-0.69673-1.6404-0.69674-0.87607 0.000009-1.5669 0.27929-2.0726 0.83785-0.50565 0.55857-0.75847 1.32-0.75847 2.2842v5.5827h-1.6316v-9.8778h1.6316v1.5346c0.38805-0.59383 0.84372-1.0377 1.367-1.3317 0.52916-0.29397 1.1377-0.44096 1.8256-0.44097 1.1348 0.00001 1.9932 0.35279 2.5753 1.0583 0.58207 0.69968 0.87311 1.7316 0.87312 3.0956"/>
  <path id="path3051" style="" d="m455.53 82.164v2.8046h3.3426v1.2612h-3.3426v5.3622c0 0.80551 0.10877 1.3229 0.32632 1.5522 0.22342 0.22931 0.67321 0.34396 1.3494 0.34396h1.6669v1.3582h-1.6669c-1.2524 0-2.1167-0.23224-2.5929-0.69674-0.47625-0.47037-0.71438-1.3229-0.71437-2.5576v-5.3622h-1.1906v-1.2612h1.1906v-2.8046h1.6316"/>
  <path id="path3053" style="" d="m466.77 84.968h1.6228v9.8778h-1.6228v-9.8778m0-3.8453h1.6228v2.0549h-1.6228v-2.0549"/>
 </g>
 <g id="text40">
  <path id="path3056" style="" d="m394.56 185.35v1.5169c-0.45862-0.25281-0.92017-0.44096-1.3847-0.56444-0.45861-0.12935-0.9231-0.19402-1.3935-0.19403-1.0524 0.00001-1.8697 0.33515-2.4518 1.0054-0.58208 0.6644-0.87313 1.5993-0.87312 2.8046-0.00001 1.2053 0.29104 2.1431 0.87312 2.8134 0.58208 0.66439 1.3994 0.99659 2.4518 0.99659 0.47037 0 0.93486-0.0617 1.3935-0.18521 0.46449-0.12935 0.92604-0.32043 1.3847-0.57326v1.4993c-0.45274 0.21167-0.92311 0.37042-1.4111 0.47625-0.48214 0.10584-0.99661 0.15875-1.5434 0.15875-1.4875 0-2.6694-0.46743-3.5454-1.4023-0.87606-0.93485-1.3141-2.196-1.3141-3.7835 0-1.611 0.44097-2.8781 1.3229-3.8012 0.88782-0.92309 2.102-1.3846 3.6424-1.3846 0.49976 0.00001 0.98777 0.0529 1.464 0.15875 0.47625 0.1 0.9378 0.25283 1.3847 0.45861"/>
  <path id="path3058" style="" d="m405.61 188.88v5.9619h-1.6228v-5.909c-0.00001-0.93485-0.18228-1.6345-0.5468-2.099-0.36455-0.46448-0.91135-0.69672-1.6404-0.69673-0.87607 0.00001-1.5669 0.27929-2.0726 0.83784-0.50565 0.55858-0.75847 1.32-0.75847 2.2842v5.5827h-1.6316v-13.723h1.6316v5.3798c0.38805-0.59383 0.84372-1.0377 1.367-1.3317 0.52917-0.29397 1.1377-0.44096 1.8256-0.44097 1.1348 0.00001 1.9932 0.35279 2.5753 1.0583 0.58207 0.69968 0.87312 1.7316 0.87313 3.0956"/>
  <path id="path3060" style="" d="m413.36 189.88c-1.3112 0-2.2196 0.14993-2.7252 0.44979-0.50565 0.29986-0.75847 0.81139-0.75847 1.5346 0 0.57621 0.18815 1.0348 0.56445 1.3758 0.38217 0.33514 0.89957 0.50271 1.5522 0.50271 0.89957 0 1.6198-0.3175 2.1608-0.9525 0.5468-0.64087 0.8202-1.4905 0.82021-2.5488v-0.36159h-1.614m3.2367-0.67028v5.6356h-1.6228v-1.4993c-0.37043 0.59972-0.83198 1.0436-1.3847 1.3317-0.55269 0.28222-1.2288 0.42333-2.0285 0.42333-1.0113 0-1.8168-0.28222-2.4165-0.84666-0.59384-0.57032-0.89076-1.3317-0.89076-2.2842 0-1.1112 0.37041-1.9491 1.1112-2.5135 0.7467-0.56444 1.858-0.84666 3.3337-0.84667h2.2754v-0.15875c-0.00001-0.74671-0.24696-1.3229-0.74084-1.7286-0.48801-0.41156-1.1759-0.61735-2.0637-0.61736-0.56445 0.00001-1.1142 0.0676-1.6492 0.20285-0.53505 0.13524-1.0495 0.33808-1.5434 0.60854v-1.4993c0.59384-0.22929 1.17-0.3998 1.7286-0.51152 0.55856-0.11759 1.1024-0.17638 1.6316-0.17639 1.4288 0.00001 2.4959 0.37042 3.2015 1.1112 0.70554 0.74084 1.0583 1.8638 1.0583 3.369"/>
  <path id="path3062" style="" d="m425.67 186.49c-0.18228-0.10583-0.38218-0.18226-0.59972-0.22931-0.21168-0.0529-0.44686-0.0794-0.70556-0.0794-0.91722 0-1.6228 0.29986-2.1167 0.89958-0.48801 0.59385-0.73202 1.4493-0.73201 2.5664v5.2035h-1.6316v-9.8778h1.6316v1.5346c0.34101-0.59971 0.78492-1.0436 1.3317-1.3317 0.5468-0.29397 1.2112-0.44096 1.9932-0.44097 0.11171 0.00001 0.23518 0.009 0.37042 0.0265 0.13522 0.0118 0.28515 0.0323 0.44979 0.0617l0.009 1.6669"/>
  <path id="path3064" style="" d="m440.25 185.35v1.5169c-0.45862-0.25281-0.92017-0.44096-1.3846-0.56444-0.45862-0.12935-0.92311-0.19402-1.3935-0.19403-1.0525 0.00001-1.8697 0.33515-2.4518 1.0054-0.58209 0.6644-0.87313 1.5993-0.87313 2.8046s0.29104 2.1431 0.87313 2.8134c0.58208 0.66439 1.3993 0.99659 2.4518 0.99659 0.47036 0 0.93485-0.0617 1.3935-0.18521 0.46448-0.12935 0.92603-0.32043 1.3846-0.57326v1.4993c-0.45274 0.21167-0.92311 0.37042-1.4111 0.47625-0.48213 0.10584-0.9966 0.15875-1.5434 0.15875-1.4876 0-2.6694-0.46743-3.5454-1.4023-0.87607-0.93485-1.3141-2.196-1.3141-3.7835 0-1.611 0.44097-2.8781 1.3229-3.8012 0.88782-0.92309 2.102-1.3846 3.6424-1.3846 0.49977 0.00001 0.98777 0.0529 1.464 0.15875 0.47624 0.1 0.93779 0.25283 1.3846 0.45861"/>
 </g>
 <g id="g44" transform="translate(0 -1.4039)">
  <path id="path46" d="m540 178.99c0-40-170-40-170-9.736" stroke="#000" stroke-width="2" fill="none"/>
  <path id="polygon48" d="m370 169.26 5-2.5-5 10-5-10z"/>
  <path id="polygon50" d="m370 169.26 5-2.5-5 10-5-10z" stroke="#000" stroke-width="2" fill="none"/>
 </g>
 <g id="g52" transform="translate(0 -1.4039)">
  <path id="path54" d="m540 79.008c0-40-145-40-145-9.7361" stroke="#000" stroke-width="2" fill="none"/>
  <path id="polygon56" d="m395 69.272 5-2.5-5 10-5-10z"/>
  <path id="polygon58" d="m395 69.272 5-2.5-5 10-5-10z" stroke="#000" stroke-width="2" fill="none"/>
 </g>
</svg>
