<?xml version="1.0" encoding="UTF-8" standalone="no"?>
<!-- Created with Inkscape (http://www.inkscape.org/) -->
<svg id="svg2" xmlns:rdf="http://www.w3.org/1999/02/22-rdf-syntax-ns#" xmlns="http://www.w3.org/2000/svg" height="139.82" width="231.75" version="1.1" xmlns:cc="http://creativecommons.org/ns#" xmlns:dc="http://purl.org/dc/elements/1.1/" viewBox="159 249 113.99228 73.000001">
 <metadata id="metadata184">
  <rdf:RDF>
   <cc:Work rdf:about="">
    <dc:format>image/svg+xml</dc:format>
    <dc:type rdf:resource="http://purl.org/dc/dcmitype/StillImage"/>
   </cc:Work>
  </rdf:RDF>
 </metadata>
 <g id="g4" transform="translate(-4.0039 -.5)">
  <g id="g6">
   <path id="rect8" fill="#fff" d="m220 250h10v10h-10z"/>
   <path id="rect10" d="m220 250h10v10h-10z" stroke="#000" fill="none"/>
  </g>
  <g id="g12">
   <path id="rect14" fill="#fff" d="m230 250h10v10h-10z"/>
   <path id="rect16" d="m230 250h10v10h-10z" stroke="#000" fill="none"/>
  </g>
  <g id="g18">
   <path id="rect20" fill="#fff" d="m240 250h10v10h-10z"/>
   <path id="rect22" d="m240 250h10v10h-10z" stroke="#000" fill="none"/>
  </g>
  <g id="g24">
   <path id="rect26" fill="#fff" d="m250 250h10v10h-10z"/>
   <path id="rect28" d="m250 250h10v10h-10z" stroke="#000" fill="none"/>
  </g>
 </g>
 <g id="g30" transform="translate(-4.0039 -.5)">
  <path id="rect32" fill="#ff0" d="m220 260h10v10h-10z"/>
  <path id="rect34" d="m220 260h10v10h-10z" stroke="#000" fill="none"/>
 </g>
 <g id="g36" transform="translate(-4.0039 -.5)">
  <path id="rect38" fill="#ff0" d="m230 260h10v10h-10z"/>
  <path id="rect40" d="m230 260h10v10h-10z" stroke="#000" fill="none"/>
 </g>
 <g id="g42" transform="translate(-4.0039 -.5)">
  <path id="rect44" fill="#00f" d="m240 260h10v10h-10z"/>
  <path id="rect46" d="m240 260h10v10h-10z" stroke="#000" fill="none"/>
 </g>
 <g id="g48" transform="translate(-4.0039 -.5)">
  <path id="rect50" fill="#ff0" d="m250 260h10v10h-10z"/>
  <path id="rect52" d="m250 260h10v10h-10z" stroke="#000" fill="none"/>
 </g>
 <g id="g54" transform="translate(-4.0039 -.5)">
  <g id="g56">
   <path id="rect58" fill="#fff" d="m220 270h10v10h-10z"/>
   <path id="rect60" d="m220 270h10v10h-10z" stroke="#000" fill="none"/>
  </g>
  <g id="g62">
   <path id="rect64" fill="#fff" d="m230 270h10v10h-10z"/>
   <path id="rect66" d="m230 270h10v10h-10z" stroke="#000" fill="none"/>
  </g>
  <g id="g68">
   <path id="rect70" fill="#fff" d="m240 270h10v10h-10z"/>
   <path id="rect72" d="m240 270h10v10h-10z" stroke="#000" fill="none"/>
  </g>
  <g id="g74">
   <path id="rect76" fill="#fff" d="m250 270h10v10h-10z"/>
   <path id="rect78" d="m250 270h10v10h-10z" stroke="#000" fill="none"/>
  </g>
 </g>
 <g id="g80" transform="translate(-4.0039 -.5)">
  <path id="rect82" fill="#ff0" d="m200 312h10v10h-10z"/>
  <path id="rect84" d="m200 312h10v10h-10z" stroke="#000" fill="none"/>
 </g>
 <g id="g86" transform="translate(-4.0039 -.5)">
  <path id="rect88" fill="#ff0" d="m210 312h10v10h-10z"/>
  <path id="rect90" d="m210 312h10v10h-10z" stroke="#000" fill="none"/>
 </g>
 <g id="g92" transform="translate(-4.0039 -.5)">
  <path id="rect94" fill="#00f" d="m220 312h10v10h-10z"/>
  <path id="rect96" d="m220 312h10v10h-10z" stroke="#000" fill="none"/>
 </g>
 <g id="g98" transform="translate(-4.0039 -.5)">
  <path id="rect100" fill="#ff0" d="m230 312h10v10h-10z"/>
  <path id="rect102" d="m230 312h10v10h-10z" stroke="#000" fill="none"/>
 </g>
 <g id="g104" transform="translate(-4.0039 -.5)">
  <g id="g106">
   <path id="rect108" fill="#fff" d="m240 312h10v10h-10z"/>
   <path id="rect110" d="m240 312h10v10h-10z" stroke="#000" fill="none"/>
  </g>
  <g id="g112">
   <path id="rect114" fill="#fff" d="m250 312h10v10h-10z"/>
   <path id="rect116" d="m250 312h10v10h-10z" stroke="#000" fill="none"/>
  </g>
  <g id="g118">
   <path id="rect120" fill="#fff" d="m260 312h10v10h-10z"/>
   <path id="rect122" d="m260 312h10v10h-10z" stroke="#000" fill="none"/>
  </g>
  <g id="g124">
   <path id="rect126" fill="#fff" d="m270 312h10v10h-10z"/>
   <path id="rect128" d="m270 312h10v10h-10z" stroke="#000" fill="none"/>
  </g>
 </g>
 <g id="g130" transform="translate(-4.0039 -.5)">
  <g id="g132">
   <path id="rect134" fill="#fff" d="m160 312h10v10h-10z"/>
   <path id="rect136" d="m160 312h10v10h-10z" stroke="#000" fill="none"/>
  </g>
  <g id="g138">
   <path id="rect140" fill="#fff" d="m170 312h10v10h-10z"/>
   <path id="rect142" d="m170 312h10v10h-10z" stroke="#000" fill="none"/>
  </g>
  <g id="g144">
   <path id="rect146" fill="#fff" d="m180 312h10v10h-10z"/>
   <path id="rect148" d="m180 312h10v10h-10z" stroke="#000" fill="none"/>
  </g>
  <g id="g150">
   <path id="rect152" fill="#fff" d="m190 312h10v10h-10z"/>
   <path id="rect154" d="m190 312h10v10h-10z" stroke="#000" fill="none"/>
  </g>
 </g>
 <g id="g156" transform="translate(-4.0039 -.5)">
  <path id="path158" d="m220 255c-28 1-56 17-55.122 52.133" stroke="#000" fill="none"/>
  <path id="polygon160" d="m164.88 307.13 2.468-1.312-2.374 5.061-2.624-4.936z"/>
  <path id="polygon162" d="m164.88 307.13 2.468-1.312-2.374 5.061-2.624-4.936z" stroke="#000" fill="none"/>
 </g>
 <g id="g164" transform="translate(-4.0039 -.5)">
  <path id="path166" d="m220 265c-36 7-14.8 27-14.951 42.132" stroke="#000" fill="none"/>
  <path id="polygon168" d="m205.05 307.13 2.512-1.225-2.55 4.975-2.45-5.025z"/>
  <path id="polygon170" d="m205.05 307.13 2.512-1.225-2.55 4.975-2.45-5.025z" stroke="#000" fill="none"/>
 </g>
 <g id="g172" transform="translate(-4.0039 -.5)">
  <path id="path174" d="m220 275c-26 5-4 17 4 19s20 0 20.73 13.139" stroke="#000" fill="none"/>
  <path id="polygon176" d="m244.73 307.14 2.427-1.386-2.219 5.131-2.774-4.854z"/>
  <path id="polygon178" d="m244.73 307.14 2.427-1.386-2.219 5.131-2.774-4.854z" stroke="#000" fill="none"/>
 </g>
</svg>
