<?xml version="1.0" encoding="UTF-8" standalone="no"?>
<!-- Created with Inkscape (http://www.inkscape.org/) -->
<svg id="svg2" xmlns:rdf="http://www.w3.org/1999/02/22-rdf-syntax-ns#" xmlns="http://www.w3.org/2000/svg" height="494.25" width="335.19" version="1.1" xmlns:cc="http://creativecommons.org/ns#" xmlns:dc="http://purl.org/dc/elements/1.1/" viewBox="278 -2 175.00722 272">
 <metadata id="metadata90">
  <rdf:RDF>
   <cc:Work rdf:about="">
    <dc:format>image/svg+xml</dc:format>
    <dc:type rdf:resource="http://purl.org/dc/dcmitype/StillImage"/>
   </cc:Work>
  </rdf:RDF>
 </metadata>
 <g id="text4">
  <path id="path3024" style="" d="m285.02 113.37v-3.5366h-2.9104v-1.464h4.6743v5.6533c-0.68793 0.48801-1.4464 0.85842-2.2754 1.1112-0.82903 0.24694-1.7139 0.37041-2.6546 0.37041-2.0579 0-3.6689-0.59972-4.833-1.7992-1.1583-1.2053-1.7374-2.881-1.7374-5.0271-0.00001-2.1519 0.57914-3.8276 1.7374-5.0271 1.1642-1.2053 2.7752-1.808 4.833-1.808 0.85842 0.00001 1.6728 0.10585 2.443 0.3175 0.7761 0.21168 1.4905 0.5233 2.1431 0.93486v1.8962c-0.65853-0.55855-1.3582-0.97895-2.099-1.2612-0.74084-0.28221-1.5199-0.42332-2.3372-0.42333-1.611 0.00001-2.8222 0.4498-3.6336 1.3494-0.80551 0.89959-1.2083 2.2401-1.2083 4.0217 0 1.7756 0.40276 3.1133 1.2083 4.0128 0.81138 0.89959 2.0226 1.3494 3.6336 1.3494 0.62912 0 1.1906-0.0529 1.6845-0.15875 0.49387-0.11171 0.93779-0.28222 1.3317-0.51153"/>
  <path id="path3026" style="" d="m289.98 101.53h1.6228v13.723h-1.6228v-13.723"/>
  <path id="path3028" style="" d="m298.81 106.51c-0.87019 0.00001-1.5581 0.34103-2.0638 1.0231-0.50565 0.67616-0.75848 1.6051-0.75847 2.7869-0.00001 1.1818 0.24988 2.1137 0.74965 2.7958 0.50564 0.67616 1.1965 1.0142 2.0726 1.0142 0.86429 0 1.5493-0.34101 2.0549-1.023 0.50564-0.68204 0.75847-1.611 0.75847-2.7869 0-1.17-0.25283-2.0961-0.75847-2.7781-0.50565-0.6879-1.1906-1.0319-2.0549-1.0319m0-1.3758c1.4111 0.00001 2.5194 0.45862 3.3249 1.3758 0.8055 0.91723 1.2082 2.1872 1.2083 3.81-0.00001 1.6169-0.40276 2.8869-1.2083 3.81-0.80551 0.91722-1.9138 1.3758-3.3249 1.3758-1.417 0-2.5282-0.45861-3.3338-1.3758-0.79963-0.9231-1.1994-2.1931-1.1994-3.81 0-1.6228 0.39981-2.8928 1.1994-3.81 0.8055-0.91721 1.9168-1.3758 3.3338-1.3758"/>
  <path id="path3030" style="" d="m313.12 110.32c-0.00001-1.1936-0.24696-2.1284-0.74084-2.8046-0.48801-0.68203-1.1612-1.023-2.0196-1.0231-0.85843 0.00001-1.5346 0.34103-2.0285 1.0231-0.48801 0.67616-0.73201 1.611-0.73201 2.8046s0.244 2.1314 0.73201 2.8134c0.49389 0.67615 1.17 1.0142 2.0285 1.0142 0.85842 0 1.5316-0.33808 2.0196-1.0142 0.49388-0.68204 0.74083-1.6198 0.74084-2.8134m-5.521-3.4484c0.34102-0.58796 0.77023-1.023 1.2876-1.3053 0.52328-0.28809 1.1465-0.43214 1.8697-0.43215 1.1994 0.00001 2.1725 0.47626 2.9192 1.4288 0.75258 0.9525 1.1289 2.2049 1.1289 3.7571-0.00001 1.5522-0.37631 2.8046-1.1289 3.7571-0.74672 0.95249-1.7198 1.4287-2.9192 1.4287-0.7232 0-1.3464-0.14111-1.8697-0.42333-0.51741-0.2881-0.94662-0.72613-1.2876-1.3141v1.4817h-1.6316v-13.723h1.6316v5.3446"/>
  <path id="path3032" style="" d="m321.98 110.28c-1.3112 0-2.2196 0.14993-2.7252 0.44979-0.50565 0.29986-0.75847 0.81139-0.75847 1.5346 0 0.57621 0.18815 1.0348 0.56445 1.3758 0.38217 0.33514 0.89957 0.50271 1.5522 0.50271 0.89957 0 1.6198-0.3175 2.1608-0.9525 0.5468-0.64087 0.8202-1.4905 0.82021-2.5488v-0.3616h-1.614m3.2367-0.67028v5.6356h-1.6228v-1.4993c-0.37043 0.59972-0.83198 1.0436-1.3847 1.3317-0.55269 0.28222-1.2288 0.42333-2.0285 0.42333-1.0113 0-1.8168-0.28222-2.4165-0.84666-0.59384-0.57032-0.89076-1.3317-0.89076-2.2842 0-1.1112 0.37041-1.9491 1.1112-2.5135 0.74671-0.56444 1.858-0.84666 3.3337-0.84667h2.2754v-0.15875c-0.00001-0.7467-0.24696-1.3229-0.74084-1.7286-0.48801-0.41156-1.1759-0.61735-2.0637-0.61736-0.56445 0.00001-1.1142 0.0676-1.6492 0.20285-0.53505 0.13524-1.0495 0.33808-1.5434 0.60854v-1.4993c0.59384-0.2293 1.17-0.39981 1.7286-0.51153 0.55856-0.11758 1.1024-0.17638 1.6316-0.17639 1.4287 0.00001 2.4959 0.37043 3.2014 1.1112 0.70555 0.74084 1.0583 1.8638 1.0583 3.369m-2.9633-8.8106h1.7551l-2.8751 3.3161h-1.3494l2.4694-3.3161"/>
  <path id="path3034" style="" d="m328.57 101.53h1.6228v13.723h-1.6228v-13.723"/>
  <path id="path3036" style="" d="m333.58 105.37h1.6228v9.8778h-1.6228v-9.8778m0-3.8453h1.6228v2.0549h-1.6228v-2.0549"/>
  <path id="path3038" style="" d="m344.89 105.66v1.5346c-0.45862-0.23518-0.93487-0.41157-1.4288-0.52917-0.49389-0.11758-1.0054-0.17638-1.5346-0.17639-0.80551 0.00001-1.4111 0.12348-1.8168 0.37042-0.39981 0.24695-0.59972 0.61737-0.59972 1.1112 0 0.3763 0.14405 0.67322 0.43216 0.89076 0.28809 0.21167 0.86724 0.41452 1.7374 0.60854l0.55563 0.12347c1.1524 0.24695 1.9697 0.59679 2.4518 1.0495 0.488 0.44685 0.73201 1.073 0.73201 1.8785 0 0.91723-0.36454 1.6434-1.0936 2.1784-0.7232 0.53504-1.7198 0.80256-2.9898 0.80256-0.52917 0-1.0819-0.0529-1.6581-0.15875-0.57032-0.0999-1.173-0.25282-1.808-0.45861v-1.6757c0.59972 0.31162 1.1906 0.54681 1.7727 0.70556 0.58208 0.15287 1.1583 0.2293 1.7286 0.2293 0.76435 0 1.3523-0.12935 1.7639-0.38805 0.41157-0.26459 0.61735-0.635 0.61736-1.1112-0.00001-0.44097-0.14994-0.77905-0.44979-1.0142-0.29399-0.23518-0.94368-0.46154-1.9491-0.67909l-0.56445-0.1323c-1.0054-0.21166-1.7316-0.53504-2.1784-0.97013-0.44685-0.44097-0.67028-1.0436-0.67028-1.808 0-0.92897 0.32926-1.6463 0.98778-2.1519 0.65852-0.50564 1.5934-0.75846 2.8046-0.75847 0.59972 0.00001 1.1642 0.0441 1.6933 0.13229 0.52916 0.0882 1.0172 0.2205 1.464 0.39688"/>
 </g>
 <g id="g8" transform="translate(-5.7299 -1)">
  <path id="rect10" fill="#fff" d="m280 210h140v60h-140z"/>
  <path id="rect12" d="m280 210h140v60h-140z" stroke="#000" stroke-width="2" fill="none"/>
 </g>
 <g id="text14">
  <path id="path3043" style="" d="m299.06 239.29v5.9619h-1.6228v-5.909c-0.00001-0.93485-0.18228-1.6345-0.54681-2.099-0.36454-0.46448-0.91135-0.69672-1.6404-0.69673-0.87607 0.00001-1.5669 0.27929-2.0726 0.83784-0.50565 0.55858-0.75847 1.32-0.75847 2.2842v5.5827h-1.6316v-13.723h1.6316v5.3799c0.38805-0.59384 0.84372-1.0378 1.367-1.3317 0.52916-0.29397 1.1377-0.44096 1.8256-0.44097 1.1348 0.00001 1.9932 0.35279 2.5753 1.0583 0.58207 0.69968 0.87311 1.7316 0.87312 3.0956"/>
  <path id="path3045" style="" d="m310.77 239.91v0.79375h-7.4612c0.0706 1.1171 0.40569 1.9697 1.0054 2.5576 0.60559 0.58208 1.4464 0.87312 2.5224 0.87312 0.62324 0 1.2259-0.0764 1.808-0.2293 0.58795-0.15287 1.17-0.38218 1.7462-0.68792v1.5346c-0.5821 0.24695-1.1789 0.43509-1.7904 0.56445-0.61149 0.12935-1.2318 0.19402-1.8609 0.19402-1.5757 0-2.8252-0.45861-3.7483-1.3758-0.91722-0.91722-1.3758-2.1578-1.3758-3.7218 0-1.6169 0.43509-2.8986 1.3053-3.8453 0.87606-0.95249 2.0549-1.4287 3.5366-1.4288 1.3288 0.00001 2.3783 0.42922 3.1485 1.2876 0.7761 0.85255 1.1642 2.0138 1.1642 3.4837m-1.6228-0.47625c-0.0118-0.88781-0.26166-1.5963-0.74966-2.1255-0.48213-0.52916-1.123-0.79374-1.9226-0.79375-0.90547 0.00001-1.6316 0.25577-2.1784 0.76729-0.54093 0.51154-0.85255 1.2318-0.93486 2.1608l5.7856-0.009"/>
  <path id="path3047" style="" d="m313.43 231.53h1.6228v13.723h-1.6228v-13.723"/>
  <path id="path3049" style="" d="m318.44 231.53h1.6228v13.723h-1.6228v-13.723"/>
  <path id="path3051" style="" d="m327.28 236.51c-0.87019 0.00001-1.5581 0.34103-2.0638 1.0231-0.50565 0.67616-0.75847 1.6051-0.75847 2.7869s0.24988 2.1137 0.74965 2.7958c0.50565 0.67616 1.1965 1.0142 2.0726 1.0142 0.8643 0 1.5493-0.34101 2.0549-1.023 0.50564-0.68204 0.75846-1.611 0.75847-2.7869-0.00001-1.17-0.25283-2.0961-0.75847-2.7781-0.50566-0.6879-1.1906-1.0319-2.0549-1.0319m0-1.3758c1.4111 0.00001 2.5194 0.45862 3.3249 1.3758 0.8055 0.91723 1.2082 2.1872 1.2083 3.81-0.00001 1.6169-0.40276 2.8869-1.2083 3.81-0.80552 0.91722-1.9138 1.3758-3.3249 1.3758-1.417 0-2.5282-0.45861-3.3338-1.3758-0.79963-0.9231-1.1994-2.1931-1.1994-3.81 0-1.6228 0.39981-2.8928 1.1994-3.81 0.80551-0.91721 1.9168-1.3758 3.3338-1.3758"/>
  <path id="path3053" style="" d="m339.08 235.37h1.7198l3.0868 8.2903 3.0868-8.2903h1.7198l-3.7042 9.8778h-2.2049l-3.7042-9.8778"/>
  <path id="path3055" style="" d="m350.93 235.37h1.6228v9.8778h-1.6228v-9.8778m0-3.8453h1.6228v2.0549h-1.6228v-2.0549"/>
  <path id="path3057" style="" d="m355.94 231.53h1.6228v13.723h-1.6228v-13.723"/>
  <path id="path3059" style="" d="m365.44 240.28c-1.3112 0-2.2196 0.14993-2.7252 0.44979-0.50565 0.29986-0.75847 0.81139-0.75847 1.5346 0 0.57621 0.18814 1.0348 0.56444 1.3758 0.38217 0.33514 0.89958 0.50271 1.5522 0.50271 0.89958 0 1.6198-0.3175 2.1608-0.9525 0.5468-0.64087 0.8202-1.4905 0.82021-2.5488v-0.3616h-1.614m3.2367-0.67028v5.6356h-1.6228v-1.4993c-0.37042 0.59972-0.83197 1.0436-1.3846 1.3317-0.55269 0.28222-1.2288 0.42333-2.0285 0.42333-1.0113 0-1.8168-0.28222-2.4165-0.84666-0.59384-0.57032-0.89076-1.3317-0.89076-2.2842 0-1.1112 0.37042-1.9491 1.1112-2.5135 0.74671-0.56444 1.858-0.84666 3.3338-0.84667h2.2754v-0.15875c-0.00001-0.7467-0.24695-1.3229-0.74083-1.7286-0.48802-0.41156-1.1759-0.61735-2.0638-0.61736-0.56445 0.00001-1.1142 0.0676-1.6492 0.20285-0.53505 0.13524-1.0495 0.33808-1.5434 0.60854v-1.4993c0.59384-0.2293 1.17-0.39981 1.7286-0.51153 0.55856-0.11758 1.1024-0.17638 1.6316-0.17639 1.4287 0.00001 2.4959 0.37043 3.2014 1.1112 0.70555 0.74084 1.0583 1.8638 1.0583 3.369"/>
  <path id="path3061" style="" d="m378.52 240.2c0-1.1759-0.24401-2.0872-0.73201-2.734-0.48213-0.64675-1.1612-0.97013-2.0373-0.97014-0.87019 0.00001-1.5493 0.32339-2.0373 0.97014-0.48213 0.64677-0.72319 1.5581-0.72319 2.734 0 1.17 0.24106 2.0784 0.72319 2.7252 0.48801 0.64676 1.1671 0.97014 2.0373 0.97014 0.87606 0 1.5552-0.32338 2.0373-0.97014 0.488-0.64676 0.73201-1.5552 0.73201-2.7252m1.6228 3.8276c-0.00001 1.6816-0.37336 2.931-1.1201 3.7483-0.74672 0.82314-1.8903 1.2347-3.4308 1.2347-0.57033 0-1.1083-0.0441-1.614-0.13229-0.50565-0.0823-0.9966-0.21167-1.4728-0.38806v-1.5787c0.47625 0.25871 0.94662 0.44979 1.4111 0.57327 0.46449 0.12347 0.9378 0.1852 1.4199 0.1852 1.0642 0 1.8609-0.27928 2.3901-0.83784 0.52915-0.55269 0.79374-1.3905 0.79374-2.5135v-0.80257c-0.33514 0.58209-0.76435 1.0172-1.2876 1.3053-0.5233 0.2881-1.1495 0.43215-1.8785 0.43215-1.2112 0-2.1872-0.46155-2.928-1.3846-0.74084-0.9231-1.1112-2.1461-1.1112-3.6689 0-1.5287 0.37041-2.7546 1.1112-3.6777 0.74083-0.92309 1.7168-1.3846 2.928-1.3846 0.72907 0.00001 1.3552 0.14406 1.8785 0.43215 0.52328 0.28811 0.95249 0.7232 1.2876 1.3053v-1.4993h1.6228v8.6519"/>
  <path id="path3063" style="" d="m383.29 232.08 4.5861 14.843h-1.4993l-4.5861-14.843h1.4993"/>
  <path id="path3065" style="" d="m393.63 233.26c-0.91723 0.00001-1.6081 0.45274-2.0726 1.3582-0.45861 0.89959-0.68792 2.2548-0.68792 4.0658 0 1.805 0.22931 3.1603 0.68792 4.0658 0.46449 0.89958 1.1553 1.3494 2.0726 1.3494 0.92309 0.00001 1.614-0.44979 2.0726-1.3494 0.46449-0.90546 0.69673-2.2607 0.69674-4.0658-0.00001-1.8109-0.23225-3.1662-0.69674-4.0658-0.45861-0.90545-1.1495-1.3582-2.0726-1.3582m0-1.4111c1.4758 0.00001 2.6017 0.58504 3.3778 1.7551 0.78198 1.1642 1.173 2.8575 1.173 5.08-0.00001 2.2166-0.391 3.91-1.173 5.08-0.77612 1.1642-1.9021 1.7462-3.3778 1.7462-1.4758 0-2.6047-0.58208-3.3867-1.7462-0.77611-1.17-1.1642-2.8634-1.1642-5.08 0-2.2225 0.38805-3.9158 1.1642-5.08 0.78199-1.17 1.9109-1.7551 3.3867-1.7551"/>
 </g>
 <g id="g18" transform="translate(-5.7299 -1)">
  <path id="rect20" fill="#fff" d="m280 170h140v40h-140z"/>
  <path id="rect22" d="m280 170h140v40h-140z" stroke="#000" stroke-width="2" fill="none"/>
 </g>
 <g id="text24">
  <path id="path3070" style="" d="m310.56 190.28c-1.3112 0-2.2196 0.14993-2.7252 0.44979-0.50565 0.29986-0.75847 0.81139-0.75847 1.5346 0 0.57621 0.18814 1.0348 0.56444 1.3758 0.38217 0.33514 0.89958 0.50271 1.5522 0.50271 0.89958 0 1.6198-0.3175 2.1608-0.9525 0.5468-0.64087 0.8202-1.4905 0.82021-2.5488v-0.3616h-1.614m3.2367-0.67028v5.6356h-1.6228v-1.4993c-0.37042 0.59972-0.83197 1.0436-1.3846 1.3317-0.55269 0.28222-1.2288 0.42333-2.0285 0.42333-1.0113 0-1.8168-0.28222-2.4165-0.84666-0.59384-0.57032-0.89076-1.3317-0.89076-2.2842 0-1.1112 0.37042-1.9491 1.1112-2.5135 0.74671-0.56444 1.858-0.84666 3.3338-0.84667h2.2754v-0.15875c-0.00001-0.7467-0.24695-1.3229-0.74083-1.7286-0.48802-0.41156-1.1759-0.61735-2.0638-0.61736-0.56445 0.00001-1.1142 0.0676-1.6492 0.20285-0.53505 0.13524-1.0495 0.33808-1.5434 0.60854v-1.4993c0.59384-0.2293 1.17-0.39981 1.7286-0.51153 0.55856-0.11758 1.1024-0.17638 1.6316-0.17639 1.4287 0.00001 2.4959 0.37043 3.2014 1.1112 0.70555 0.74084 1.0583 1.8638 1.0583 3.369"/>
  <path id="path3072" style="" d="m317.15 181.53h1.6228v13.723h-1.6228v-13.723"/>
  <path id="path3074" style="" d="m329.85 187.27c0.40568-0.72906 0.89075-1.267 1.4552-1.614 0.56443-0.34689 1.2288-0.52034 1.9932-0.52035 1.0289 0.00001 1.8227 0.36161 2.3812 1.0848 0.55855 0.71732 0.83783 1.7404 0.83785 3.0692v5.9619h-1.6316v-5.909c-0.00001-0.94661-0.16758-1.6492-0.50271-2.1078-0.33515-0.4586-0.84667-0.6879-1.5346-0.68791-0.84079 0.00001-1.5052 0.27929-1.9932 0.83784-0.48802 0.55858-0.73202 1.32-0.73201 2.2842v5.5827h-1.6316v-5.909c0-0.95249-0.16757-1.6551-0.5027-2.1078-0.33515-0.4586-0.85256-0.6879-1.5522-0.68791-0.82903 0.00001-1.4875 0.28223-1.9756 0.84666-0.48801 0.55858-0.73201 1.317-0.73201 2.2754v5.5827h-1.6316v-9.8778h1.6316v1.5346c0.37041-0.6056 0.81432-1.0524 1.3317-1.3406 0.5174-0.28809 1.1318-0.43214 1.8433-0.43215 0.71731 0.00001 1.3258 0.18228 1.8256 0.5468 0.50564 0.36455 0.87899 0.89372 1.1201 1.5875"/>
  <path id="path3076" style="" d="m344.25 190.28c-1.3112 0-2.2196 0.14993-2.7252 0.44979-0.50565 0.29986-0.75848 0.81139-0.75847 1.5346-0.00001 0.57621 0.18814 1.0348 0.56444 1.3758 0.38217 0.33514 0.89958 0.50271 1.5522 0.50271 0.89958 0 1.6198-0.3175 2.1608-0.9525 0.5468-0.64087 0.8202-1.4905 0.82021-2.5488v-0.3616h-1.614m3.2367-0.67028v5.6356h-1.6228v-1.4993c-0.37042 0.59972-0.83197 1.0436-1.3846 1.3317-0.55269 0.28222-1.2288 0.42333-2.0285 0.42333-1.0113 0-1.8168-0.28222-2.4165-0.84666-0.59384-0.57032-0.89076-1.3317-0.89076-2.2842 0-1.1112 0.37042-1.9491 1.1112-2.5135 0.74671-0.56444 1.858-0.84666 3.3338-0.84667h2.2754v-0.15875c-0.00001-0.7467-0.24695-1.3229-0.74083-1.7286-0.48802-0.41156-1.1759-0.61735-2.0638-0.61736-0.56445 0.00001-1.1142 0.0676-1.6492 0.20285-0.53505 0.13524-1.0495 0.33808-1.5434 0.60854v-1.4993c0.59384-0.2293 1.17-0.39981 1.7286-0.51153 0.55856-0.11758 1.1024-0.17638 1.6316-0.17639 1.4287 0.00001 2.4959 0.37043 3.2014 1.1112 0.70555 0.74084 1.0583 1.8638 1.0583 3.369"/>
  <path id="path3078" style="" d="m355.84 181.53v1.3494h-1.5522c-0.58209 0.00002-0.98778 0.11761-1.2171 0.35278-0.22343 0.2352-0.33514 0.65853-0.33513 1.27v0.87312h2.6723v1.2612h-2.6723v8.6166h-1.6316v-8.6166h-1.5522v-1.2612h1.5522v-0.68791c0-1.0995 0.25576-1.8991 0.76729-2.3989 0.51152-0.50563 1.3229-0.75846 2.4342-0.75847h1.5346"/>
  <path id="path3080" style="" d="m361.68 190.28c-1.3112 0-2.2196 0.14993-2.7252 0.44979-0.50565 0.29986-0.75848 0.81139-0.75847 1.5346-0.00001 0.57621 0.18814 1.0348 0.56444 1.3758 0.38217 0.33514 0.89958 0.50271 1.5522 0.50271 0.89958 0 1.6198-0.3175 2.1608-0.9525 0.5468-0.64087 0.8202-1.4905 0.82021-2.5488v-0.3616h-1.614m3.2367-0.67028v5.6356h-1.6228v-1.4993c-0.37042 0.59972-0.83197 1.0436-1.3846 1.3317-0.55269 0.28222-1.2288 0.42333-2.0285 0.42333-1.0113 0-1.8168-0.28222-2.4165-0.84666-0.59384-0.57032-0.89076-1.3317-0.89076-2.2842 0-1.1112 0.37042-1.9491 1.1112-2.5135 0.74671-0.56444 1.858-0.84666 3.3338-0.84667h2.2754v-0.15875c-0.00001-0.7467-0.24695-1.3229-0.74083-1.7286-0.48802-0.41156-1.1759-0.61735-2.0638-0.61736-0.56445 0.00001-1.1142 0.0676-1.6492 0.20285-0.53505 0.13524-1.0495 0.33808-1.5434 0.60854v-1.4993c0.59384-0.2293 1.17-0.39981 1.7286-0.51153 0.55856-0.11758 1.1024-0.17638 1.6316-0.17639 1.4287 0.00001 2.4959 0.37043 3.2014 1.1112 0.70555 0.74084 1.0583 1.8638 1.0583 3.369"/>
  <path id="path3082" style="" d="m368.06 182.08 4.5861 14.843h-1.4993l-4.5861-14.843h1.4993"/>
  <path id="path3084" style="" d="m378.41 183.26c-0.91722 0.00001-1.6081 0.45274-2.0726 1.3582-0.45862 0.89959-0.68792 2.2548-0.68792 4.0658 0 1.805 0.2293 3.1603 0.68792 4.0658 0.46448 0.89958 1.1553 1.3494 2.0726 1.3494 0.9231 0.00001 1.614-0.44979 2.0726-1.3494 0.46448-0.90546 0.69673-2.2607 0.69674-4.0658-0.00001-1.8109-0.23226-3.1662-0.69674-4.0658-0.45862-0.90545-1.1495-1.3582-2.0726-1.3582m0-1.4111c1.4758 0.00001 2.6017 0.58504 3.3778 1.7551 0.78198 1.1642 1.173 2.8575 1.173 5.08-0.00001 2.2166-0.391 3.91-1.173 5.08-0.77612 1.1642-1.9021 1.7462-3.3778 1.7462-1.4758 0-2.6047-0.58208-3.3867-1.7462-0.77611-1.17-1.1642-2.8634-1.1642-5.08 0-2.2225 0.38805-3.9158 1.1642-5.08 0.78199-1.17 1.9109-1.7551 3.3867-1.7551"/>
 </g>
 <g id="g28" transform="translate(-5.7299 -1)">
  <path id="rect30" fill="#fff" d="m280 120h140v50h-140z"/>
  <path id="rect32" d="m280 120h140v50h-140z" stroke="#000" stroke-width="2" fill="none"/>
 </g>
 <g id="text34">
  <path id="path3089" style="" d="m299.29 144.29v5.9619h-1.6228v-5.909c-0.00001-0.93485-0.18227-1.6345-0.5468-2.099-0.36455-0.46448-0.91135-0.69672-1.6404-0.69673-0.87607 0.00001-1.5669 0.27929-2.0726 0.83784-0.50566 0.55858-0.75848 1.32-0.75848 2.2842v5.5827h-1.6316v-13.723h1.6316v5.3799c0.38806-0.59384 0.84373-1.0378 1.367-1.3317 0.52916-0.29397 1.1377-0.44096 1.8256-0.44097 1.1348 0.00001 1.9932 0.35279 2.5753 1.0583 0.58208 0.69968 0.87312 1.7316 0.87313 3.0956"/>
  <path id="path3091" style="" d="m310.99 144.91v0.79375h-7.4612c0.0706 1.1171 0.40569 1.9697 1.0054 2.5576 0.6056 0.58208 1.4464 0.87312 2.5224 0.87312 0.62323 0 1.2259-0.0764 1.808-0.2293 0.58796-0.15287 1.17-0.38218 1.7462-0.68792v1.5346c-0.58209 0.24695-1.1789 0.43509-1.7903 0.56445-0.61149 0.12935-1.2318 0.19402-1.8609 0.19402-1.5758 0-2.8252-0.45861-3.7483-1.3758-0.91723-0.91722-1.3758-2.1578-1.3758-3.7218 0-1.6169 0.4351-2.8986 1.3053-3.8453 0.87606-0.95249 2.0549-1.4287 3.5366-1.4288 1.3288 0.00001 2.3783 0.42922 3.1485 1.2876 0.7761 0.85255 1.1642 2.0138 1.1642 3.4837m-1.6228-0.47625c-0.0118-0.88781-0.26165-1.5963-0.74965-2.1255-0.48214-0.52916-1.123-0.79374-1.9226-0.79375-0.90546 0.00001-1.6316 0.25577-2.1784 0.76729-0.54093 0.51154-0.85255 1.2318-0.93486 2.1608l5.7856-0.009"/>
  <path id="path3093" style="" d="m321.55 140.37-3.5719 4.8066 3.7571 5.0712h-1.9138l-2.8751-3.8806-2.8751 3.8806h-1.9138l3.8364-5.1682-3.5101-4.7096h1.9138l2.6194 3.519 2.6194-3.519h1.9138"/>
  <path id="path3095" style="" d="m330.53 141.87v-5.3446h1.6228v13.723h-1.6228v-1.4817c-0.34102 0.58796-0.77317 1.026-1.2964 1.3141-0.51742 0.28222-1.1407 0.42333-1.8697 0.42333-1.1936 0-2.1666-0.47625-2.9192-1.4287-0.74671-0.9525-1.1201-2.2049-1.1201-3.7571-0.00001-1.5522 0.37335-2.8046 1.1201-3.7571 0.75259-0.95249 1.7257-1.4287 2.9192-1.4288 0.72906 0.00001 1.3523 0.14406 1.8697 0.43215 0.52328 0.28223 0.95543 0.71732 1.2964 1.3053m-5.5298 3.4484c0 1.1936 0.244 2.1314 0.73201 2.8134 0.49389 0.67615 1.17 1.0142 2.0285 1.0142 0.85842 0 1.5346-0.33808 2.0285-1.0142 0.49388-0.68204 0.74083-1.6198 0.74083-2.8134s-0.24695-2.1284-0.74083-2.8046c-0.49389-0.68203-1.17-1.023-2.0285-1.0231-0.85843 0.00001-1.5346 0.34103-2.0285 1.0231-0.48801 0.67616-0.73201 1.611-0.73201 2.8046"/>
  <path id="path3097" style="" d="m335.33 146.35v-5.9796h1.6228v5.9178c0 0.93487 0.18227 1.6375 0.54681 2.1078 0.36453 0.46449 0.91133 0.69674 1.6404 0.69673 0.87606 0.00001 1.5669-0.27928 2.0726-0.83784 0.51152-0.55856 0.76728-1.32 0.76729-2.2842v-5.6003h1.6228v9.8778h-1.6228v-1.5169c-0.39394 0.59972-0.85255 1.0466-1.3758 1.3406-0.51742 0.2881-1.1201 0.43215-1.808 0.43215-1.1348 0-1.9961-0.35277-2.5841-1.0583-0.58797-0.70555-0.88195-1.7374-0.88195-3.0956m4.0834-6.2177"/>
  <path id="path3099" style="" d="m354.65 142.27c0.40569-0.72906 0.89076-1.267 1.4552-1.614 0.56443-0.34689 1.2288-0.52034 1.9932-0.52035 1.0289 0.00001 1.8227 0.36161 2.3812 1.0848 0.55855 0.71732 0.83783 1.7404 0.83785 3.0692v5.9619h-1.6316v-5.909c-0.00001-0.94661-0.16758-1.6492-0.50271-2.1078-0.33515-0.4586-0.84668-0.6879-1.5346-0.68791-0.8408 0.00001-1.5052 0.27929-1.9932 0.83784-0.48802 0.55858-0.73202 1.32-0.73201 2.2842v5.5827h-1.6316v-5.909c-0.00001-0.95249-0.16758-1.6551-0.50271-2.1078-0.33514-0.4586-0.85255-0.6879-1.5522-0.68791-0.82903 0.00001-1.4876 0.28223-1.9756 0.84666-0.48801 0.55858-0.73202 1.317-0.73201 2.2754v5.5827h-1.6316v-9.8778h1.6316v1.5346c0.37041-0.6056 0.81432-1.0524 1.3317-1.3406 0.5174-0.28809 1.1318-0.43214 1.8433-0.43215 0.71731 0.00001 1.3258 0.18228 1.8256 0.5468 0.50563 0.36455 0.87899 0.89372 1.1201 1.5875"/>
  <path id="path3101" style="" d="m366.13 148.77v5.2387h-1.6316v-13.635h1.6316v1.4993c0.34102-0.58796 0.77023-1.023 1.2876-1.3053 0.52328-0.28809 1.1465-0.43214 1.8697-0.43215 1.1994 0.00001 2.1725 0.47626 2.9192 1.4288 0.75259 0.9525 1.1289 2.2049 1.1289 3.7571-0.00001 1.5522-0.3763 2.8046-1.1289 3.7571-0.74672 0.95249-1.7198 1.4287-2.9192 1.4287-0.7232 0-1.3464-0.14111-1.8697-0.42333-0.51741-0.2881-0.94662-0.72613-1.2876-1.3141m5.521-3.4484c-0.00001-1.1936-0.24695-2.1284-0.74083-2.8046-0.48802-0.68203-1.1612-1.023-2.0196-1.0231-0.85843 0.00001-1.5346 0.34103-2.0285 1.0231-0.48801 0.67616-0.73202 1.611-0.73202 2.8046s0.24401 2.1314 0.73202 2.8134c0.49388 0.67615 1.17 1.0142 2.0285 1.0142 0.85842 0 1.5316-0.33808 2.0196-1.0142 0.49388-0.68204 0.74082-1.6198 0.74083-2.8134"/>
  <path id="path3103" style="" d="m377.05 148.01h1.7904v2.2401h-1.7904v-2.2401m0-10.927h1.7904v5.7767l-0.17639 3.1485h-1.4288l-0.18521-3.1485v-5.7767"/>
  <path id="path3105" style="" d="m383.06 137.08 4.5861 14.843h-1.4993l-4.5861-14.843h1.4993"/>
  <path id="path3107" style="" d="m393.4 138.26c-0.91722 0.00001-1.6081 0.45274-2.0726 1.3582-0.45861 0.89959-0.68791 2.2548-0.68791 4.0658 0 1.805 0.2293 3.1603 0.68791 4.0658 0.46449 0.89958 1.1554 1.3494 2.0726 1.3494 0.9231 0.00001 1.614-0.44979 2.0726-1.3494 0.46448-0.90546 0.69672-2.2607 0.69673-4.0658-0.00001-1.8109-0.23225-3.1662-0.69673-4.0658-0.45862-0.90545-1.1495-1.3582-2.0726-1.3582m0-1.4111c1.4758 0.00001 2.6017 0.58504 3.3778 1.7551 0.78198 1.1642 1.173 2.8575 1.173 5.08-0.00001 2.2166-0.39101 3.91-1.173 5.08-0.77611 1.1642-1.9021 1.7462-3.3778 1.7462-1.4758 0-2.6047-0.58208-3.3867-1.7462-0.77611-1.17-1.1642-2.8634-1.1642-5.08 0-2.2225 0.38806-3.9158 1.1642-5.08 0.78199-1.17 1.9109-1.7551 3.3867-1.7551"/>
 </g>
 <g id="g38" transform="translate(-5.7299 -1)">
  <path id="path40" d="m420 15c60 0 50 225 9.736 225" stroke="#000" stroke-width="2" fill="none"/>
  <path id="polygon42" d="m429.74 240 2.5 5-10-5 10-5z"/>
  <path id="polygon44" d="m429.74 240 2.5 5-10-5 10-5z" stroke="#000" stroke-width="2" fill="none"/>
 </g>
 <g id="g46" transform="translate(-5.7299 -1)">
  <path id="path48" d="m420 45c40 0 40 145 9.736 145" stroke="#000" stroke-width="2" fill="none"/>
  <path id="polygon50" d="m429.74 190 2.5 5-10-5 10-5z"/>
  <path id="polygon52" d="m429.74 190 2.5 5-10-5 10-5z" stroke="#000" stroke-width="2" fill="none"/>
 </g>
 <g id="g54" transform="translate(-5.7299 -1)">
  <path id="path56" d="m420 75c32 2 28 69 9.73 69.653" stroke="#000" stroke-width="2" fill="none"/>
  <path id="polygon58" d="m429.73 144.65 2.677 4.907-10.172-4.64 9.815-5.354z"/>
  <path id="polygon60" d="m429.73 144.65 2.677 4.907-10.172-4.64 9.815-5.354z" stroke="#000" stroke-width="2" fill="none"/>
 </g>
 <g id="g62" transform="translate(-5.7299 -1)">
  <path id="rect64" fill="#fff" d="m280 0h140v30h-140z"/>
  <path id="rect66" d="m280 0h140v30h-140z" stroke="#bfbfbf" stroke-width="2" fill="none"/>
 </g>
 <g id="g68" transform="translate(-5.7299 -1)">
  <path id="rect70" fill="#fff" d="m280 30h140v30h-140z"/>
  <path id="rect72" d="m280 30h140v30h-140z" stroke="#bfbfbf" stroke-width="2" fill="none"/>
 </g>
 <g id="g74" transform="translate(-5.7299 -1)">
  <path id="rect76" fill="#fff" d="m280 60h140v30h-140z"/>
  <path id="rect78" d="m280 60h140v30h-140z" stroke="#bfbfbf" stroke-width="2" fill="none"/>
 </g>
 <g id="text80">
  <path id="path3122" style="" d="m297.98 40.663v1.5346c-0.45862-0.23518-0.93486-0.41156-1.4288-0.52917-0.49389-0.11758-1.0054-0.17638-1.5346-0.17639-0.80551 0.000009-1.4111 0.12348-1.8168 0.37042-0.39982 0.24695-0.59973 0.61737-0.59972 1.1112-0.00001 0.3763 0.14405 0.67322 0.43215 0.89076 0.2881 0.21167 0.86724 0.41452 1.7374 0.60854l0.55562 0.12347c1.1524 0.24695 1.9697 0.59679 2.4518 1.0495 0.488 0.44686 0.732 1.073 0.73201 1.8785-0.00001 0.91722-0.36455 1.6434-1.0936 2.1784-0.7232 0.53505-1.7198 0.80257-2.9898 0.80257-0.52917-0.000001-1.0818-0.05292-1.658-0.15875-0.57033-0.09995-1.173-0.25282-1.808-0.45861v-1.6757c0.59972 0.31162 1.1906 0.54681 1.7727 0.70555 0.58208 0.15287 1.1583 0.22931 1.7286 0.22931 0.76434 0.000001 1.3523-0.12935 1.7639-0.38806 0.41157-0.26458 0.61736-0.635 0.61737-1.1112-0.00001-0.44097-0.14994-0.77905-0.4498-1.0142-0.29398-0.23518-0.94368-0.46155-1.9491-0.6791l-0.56444-0.13229c-1.0054-0.21166-1.7316-0.53504-2.1784-0.97014-0.44686-0.44096-0.67028-1.0436-0.67028-1.808 0-0.92897 0.32926-1.6463 0.98777-2.1519 0.65852-0.50564 1.5934-0.75846 2.8046-0.75847 0.59972 0.00001 1.1642 0.04411 1.6933 0.13229 0.52916 0.0882 1.0172 0.2205 1.464 0.39687"/>
  <path id="path3124" style="" d="m300.39 40.372h7.7082v1.4817l-6.103 7.0996h6.103v1.2965h-7.9287v-1.4817l6.103-7.0996h-5.8826v-1.2965"/>
  <path id="path3126" style="" d="m312.19 37.568v2.8046h3.3426v1.2612h-3.3426v5.3622c0 0.80551 0.10877 1.3229 0.32632 1.5522 0.22342 0.22931 0.67321 0.34396 1.3494 0.34396h1.6669v1.3582h-1.6669c-1.2524 0-2.1167-0.23224-2.5929-0.69674-0.47625-0.47037-0.71438-1.3229-0.71437-2.5576v-5.3622h-1.1906v-1.2612h1.1906v-2.8046h1.6316"/>
  <path id="path3128" style="" d="m323.4 41.889c-0.18228-0.10582-0.38218-0.18226-0.59972-0.22931-0.21167-0.05291-0.44686-0.07937-0.70556-0.07937-0.91722 0.000008-1.6228 0.29987-2.1167 0.89958-0.48801 0.59385-0.73202 1.4493-0.73201 2.5665v5.2035h-1.6316v-9.8778h1.6316v1.5346c0.34101-0.59971 0.78492-1.0436 1.3317-1.3317 0.5468-0.29397 1.2112-0.44096 1.9932-0.44097 0.11171 0.00001 0.23518 0.0088 0.37042 0.02646 0.13522 0.01177 0.28515 0.03235 0.44979 0.06174l0.009 1.6669"/>
  <path id="path3130" style="" d="m325.12 40.372h1.6228v9.8778h-1.6228v-9.8778m0-3.8453h1.6228v2.0549h-1.6228v-2.0549"/>
  <path id="path3132" style="" d="m338.34 44.288v5.9619h-1.6228v-5.909c-0.00001-0.93485-0.18228-1.6345-0.54681-2.099-0.36454-0.46448-0.91135-0.69673-1.6404-0.69674-0.87607 0.000008-1.5669 0.27929-2.0726 0.83785-0.50565 0.55857-0.75848 1.32-0.75847 2.2842v5.5827h-1.6316v-9.8778h1.6316v1.5346c0.38805-0.59383 0.84372-1.0377 1.367-1.3317 0.52916-0.29397 1.1377-0.44096 1.8256-0.44097 1.1348 0.00001 1.9932 0.35279 2.5753 1.0583 0.58207 0.69968 0.87311 1.7316 0.87312 3.0956"/>
  <path id="path3134" style="" d="m348.1 45.196c0-1.1759-0.24401-2.0873-0.73201-2.734-0.48213-0.64675-1.1612-0.97013-2.0373-0.97014-0.87019 0.000009-1.5493 0.32339-2.0373 0.97014-0.48213 0.64677-0.72319 1.5581-0.72319 2.734 0 1.17 0.24106 2.0784 0.72319 2.7252 0.48801 0.64676 1.1671 0.97014 2.0373 0.97014 0.87606 0.000002 1.5552-0.32338 2.0373-0.97014 0.488-0.64676 0.73201-1.5552 0.73201-2.7252m1.6228 3.8276c-0.00001 1.6816-0.37336 2.931-1.1201 3.7483-0.74672 0.82314-1.8903 1.2347-3.4308 1.2347-0.57033-0.000004-1.1083-0.0441-1.614-0.13229-0.50565-0.08232-0.9966-0.21167-1.4728-0.38806v-1.5787c0.47625 0.2587 0.94662 0.44979 1.4111 0.57326 0.46449 0.12347 0.9378 0.1852 1.4199 0.18521 1.0642-0.000003 1.8609-0.27928 2.3901-0.83785 0.52915-0.55269 0.79374-1.3905 0.79374-2.5135v-0.80257c-0.33514 0.58208-0.76435 1.0172-1.2876 1.3053-0.5233 0.2881-1.1495 0.43215-1.8785 0.43215-1.2112 0-2.1872-0.46155-2.928-1.3847-0.74084-0.9231-1.1112-2.1461-1.1112-3.6689 0-1.5287 0.37041-2.7546 1.1112-3.6777 0.74083-0.92309 1.7168-1.3846 2.928-1.3847 0.72907 0.00001 1.3552 0.14406 1.8785 0.43215 0.52328 0.28811 0.95249 0.7232 1.2876 1.3053v-1.4993h1.6228v8.6519"/>
  <path id="path3136" style="" d="m361.51 44.905v0.79375h-7.4612c0.0705 1.1171 0.40569 1.9697 1.0054 2.5576 0.60559 0.58208 1.4464 0.87312 2.5224 0.87312 0.62323 0.000001 1.2259-0.07643 1.808-0.2293 0.58795-0.15287 1.17-0.38217 1.7462-0.68792v1.5346c-0.58209 0.24694-1.1789 0.43509-1.7904 0.56444-0.61149 0.12935-1.2318 0.19403-1.8609 0.19403-1.5757-0.000001-2.8252-0.45861-3.7483-1.3758-0.91722-0.91722-1.3758-2.1578-1.3758-3.7218 0-1.6169 0.43509-2.8986 1.3053-3.8453 0.87606-0.95249 2.0549-1.4287 3.5366-1.4287 1.3288 0.00001 2.3783 0.42922 3.1485 1.2876 0.7761 0.85255 1.1642 2.0138 1.1642 3.4837m-1.6228-0.47625c-0.0118-0.88782-0.26165-1.5963-0.74965-2.1255-0.48214-0.52916-1.123-0.79374-1.9226-0.79375-0.90547 0.000009-1.6316 0.25577-2.1784 0.76729-0.54093 0.51153-0.85255 1.2318-0.93486 2.1608l5.7856-0.0088"/>
  <path id="path3138" style="" d="m364.11 36.527h1.6316v8.1051l4.8419-4.2598h2.0726l-5.2387 4.6214 5.4592 5.2564h-2.1167l-5.0183-4.8242v4.8242h-1.6316v-13.723"/>
  <path id="path3140" style="" d="m374.5 36.527h3.7394v1.2612h-2.1167v13.582h2.1167v1.2612h-3.7394v-16.104"/>
  <path id="path3142" style="" d="m387.34 43.15c0.85254 0.18228 1.5169 0.56151 1.9932 1.1377 0.48211 0.57621 0.72318 1.2876 0.72319 2.1343-0.00001 1.2994-0.44686 2.3048-1.3406 3.0162-0.89372 0.71144-2.1637 1.0672-3.81 1.0672-0.55269-0.000001-1.123-0.05586-1.711-0.16757-0.58209-0.10583-1.1848-0.26752-1.808-0.48507v-1.7198c0.49388 0.2881 1.0348 0.50565 1.6228 0.65264 0.58796 0.14699 1.2024 0.22049 1.8433 0.22049 1.1171 0.000001 1.9667-0.22048 2.5488-0.66146 0.58795-0.44097 0.88193-1.0818 0.88194-1.9226-0.00001-0.77611-0.27341-1.3817-0.8202-1.8168-0.54094-0.44096-1.2965-0.66145-2.2666-0.66146h-1.5346v-1.464h1.6051c0.87605 0.000008 1.5463-0.17344 2.0108-0.52035 0.46448-0.35277 0.69672-0.85842 0.69673-1.5169-0.00001-0.67615-0.24107-1.1936-0.72319-1.5522-0.47626-0.36452-1.1612-0.54679-2.0549-0.5468-0.48801 0.000012-1.0113 0.05293-1.5699 0.15875-0.55857 0.10584-1.173 0.27047-1.8433 0.49389v-1.5875c0.67615-0.18814 1.3082-0.32924 1.8962-0.42333 0.59384-0.09406 1.1524-0.1411 1.6757-0.14111 1.3523 0.000013 2.4224 0.30869 3.2103 0.92604 0.78786 0.61149 1.1818 1.4405 1.1818 2.4871-0.00001 0.72908-0.20874 1.3464-0.62618 1.8521-0.41746 0.49978-1.0113 0.84667-1.7815 1.0407"/>
  <path id="path3144" style="" d="m397 36.527v16.104h-3.7394v-1.2612h2.1078v-13.582h-2.1078v-1.2612h3.7394"/>
 </g>
 <path id="rect84" d="m274.27-1h140v90h-140z" stroke="#000" stroke-width="2" fill="none"/>
</svg>
