<?xml version="1.0" encoding="UTF-8" standalone="no"?>
<!-- Created with Inkscape (http://www.inkscape.org/) -->
<svg id="svg2" xmlns:rdf="http://www.w3.org/1999/02/22-rdf-syntax-ns#" xmlns="http://www.w3.org/2000/svg" height="333.56" width="317.7" version="1.1" xmlns:cc="http://creativecommons.org/ns#" xmlns:dc="http://purl.org/dc/elements/1.1/" viewBox="158 169 173.34389 172.27243">
 <metadata id="metadata66">
  <rdf:RDF>
   <cc:Work rdf:about="">
    <dc:format>image/svg+xml</dc:format>
    <dc:type rdf:resource="http://purl.org/dc/dcmitype/StillImage"/>
   </cc:Work>
  </rdf:RDF>
 </metadata>
 <g id="g4" transform="translate(-1 -4.8638)">
  <path id="path6" d="m300 265c30 0 32-42 9.694-44.091" stroke="#bfbfbf" stroke-width="2" fill="none"/>
  <path id="polygon8" fill="#bfbfbf" d="m309.69 220.91 2.022 5.211-9.49-5.911 10.423-4.045z"/>
  <path id="polygon10" d="m309.69 220.91 2.022 5.211-9.49-5.911 10.423-4.045z" stroke="#bfbfbf" stroke-width="2" fill="none"/>
 </g>
 <g id="g12" transform="translate(-1 -4.8638)">
  <path id="rect14" fill="#bfbfbf" d="m160 240h140v50h-140z"/>
  <path id="rect16" d="m160 240h140v50h-140z" stroke="#000" stroke-width="2" fill="none"/>
 </g>
 <g id="g18" transform="translate(-1 -4.8638)">
  <path id="rect20" fill="#fff" d="m160 290h140v60h-140z"/>
  <path id="rect22" d="m160 290h140v60h-140z" stroke="#000" stroke-width="2" fill="none"/>
 </g>
 <g id="text24">
  <path id="path3018" style="" d="m198.53 311.51h1.6228v9.8778h-1.6228v-9.8778m0-3.8453h1.6228v2.0549h-1.6228v-2.0549"/>
  <path id="path3020" style="" d="m211.75 315.42v5.9619h-1.6228v-5.909c-0.00001-0.93485-0.18227-1.6345-0.5468-2.099-0.36455-0.46448-0.91135-0.69672-1.6404-0.69673-0.87607 0.00001-1.5669 0.27929-2.0726 0.83785-0.50566 0.55857-0.75848 1.32-0.75848 2.2842v5.5827h-1.6316v-9.8778h1.6316v1.5346c0.38806-0.59384 0.84373-1.0378 1.367-1.3317 0.52916-0.29397 1.1377-0.44096 1.8256-0.44097 1.1348 0.00001 1.9932 0.35279 2.5753 1.0583 0.58208 0.69969 0.87312 1.7316 0.87313 3.0956"/>
  <path id="path3022" style="" d="m216.61 308.7v2.8046h3.3426v1.2612h-3.3426v5.3622c-0.00001 0.80551 0.10877 1.3229 0.32631 1.5522 0.22343 0.22931 0.67322 0.34396 1.3494 0.34396h1.6669v1.3582h-1.6669c-1.2524 0-2.1167-0.23224-2.5929-0.69673-0.47625-0.47037-0.71437-1.3229-0.71437-2.5576v-5.3622h-1.1906v-1.2612h1.1906v-2.8046h1.6316"/>
  <path id="path3024" style="" d="m234.64 310.39-3.1662 1.711 3.1662 1.7198-0.51153 0.8643-2.9633-1.7903v3.3249h-1.0054v-3.3249l-2.9633 1.7903-0.51153-0.8643 3.1662-1.7198-3.1662-1.711 0.51153-0.87313 2.9633 1.7904v-3.3249h1.0054v3.3249l2.9633-1.7904 0.51153 0.87313"/>
  <path id="path3026" style="" d="m238.45 319.9v5.2387h-1.6316v-13.635h1.6316v1.4993c0.34102-0.58795 0.77023-1.023 1.2876-1.3053 0.52328-0.28809 1.1465-0.43214 1.8697-0.43215 1.1994 0.00001 2.1725 0.47626 2.9192 1.4288 0.75258 0.9525 1.1289 2.2049 1.1289 3.7571-0.00001 1.5522-0.37631 2.8046-1.1289 3.7571-0.74672 0.95249-1.7198 1.4287-2.9192 1.4287-0.7232 0-1.3464-0.14111-1.8697-0.42333-0.51741-0.2881-0.94662-0.72613-1.2876-1.3141m5.521-3.4484c-0.00001-1.1936-0.24695-2.1284-0.74083-2.8046-0.48802-0.68203-1.1612-1.023-2.0196-1.0231-0.85843 0.00001-1.5346 0.34103-2.0285 1.0231-0.48802 0.67616-0.73202 1.611-0.73202 2.8046s0.244 2.1314 0.73202 2.8134c0.49388 0.67615 1.17 1.0142 2.0285 1.0142 0.85841 0 1.5316-0.33808 2.0196-1.0142 0.49388-0.68204 0.74082-1.6198 0.74083-2.8134"/>
  <path id="path3028" style="" d="m249.95 308.7v2.8046h3.3426v1.2612h-3.3426v5.3622c-0.00001 0.80551 0.10877 1.3229 0.32632 1.5522 0.22342 0.22931 0.67321 0.34396 1.3494 0.34396h1.6669v1.3582h-1.6669c-1.2524 0-2.1167-0.23224-2.5929-0.69673-0.47626-0.47037-0.71438-1.3229-0.71438-2.5576v-5.3622h-1.1906v-1.2612h1.1906v-2.8046h1.6316"/>
  <path id="path3030" style="" d="m261.16 313.03c-0.18228-0.10583-0.38219-0.18226-0.59972-0.22931-0.21168-0.0529-0.44686-0.0794-0.70556-0.0794-0.91723 0.00001-1.6228 0.29987-2.1167 0.89958-0.48802 0.59385-0.73202 1.4493-0.73202 2.5664v5.2035h-1.6316v-9.8778h1.6316v1.5346c0.34102-0.59972 0.78493-1.0436 1.3317-1.3317 0.5468-0.29397 1.2112-0.44096 1.9932-0.44097 0.11171 0.00001 0.23518 0.009 0.37042 0.0265 0.13522 0.0118 0.28515 0.0324 0.44979 0.0617l0.009 1.6669"/>
 </g>
 <g id="g28" transform="translate(-1 -4.8638)">
  <path id="rect30" fill="#bfbfbf" d="m160 200h140v40h-140z"/>
  <path id="rect32" d="m160 200h140v40h-140z" stroke="#000" stroke-width="2" fill="none"/>
 </g>
 <g id="text34">
  <path id="path3035" style="" d="m213.54 211.51h1.6228v9.8778h-1.6228v-9.8778m0-3.8453h1.6228v2.0549h-1.6228v-2.0549"/>
  <path id="path3037" style="" d="m226.76 215.42v5.9619h-1.6228v-5.909c-0.00001-0.93485-0.18228-1.6345-0.54681-2.099-0.36454-0.46448-0.91135-0.69672-1.6404-0.69673-0.87607 0.00001-1.5669 0.27929-2.0726 0.83784-0.50565 0.55858-0.75847 1.32-0.75847 2.2842v5.5827h-1.6316v-9.8778h1.6316v1.5346c0.38805-0.59384 0.84372-1.0378 1.367-1.3317 0.52916-0.29397 1.1377-0.44096 1.8256-0.44097 1.1348 0.00001 1.9932 0.35279 2.5753 1.0583 0.58207 0.69968 0.87311 1.7316 0.87312 3.0956"/>
  <path id="path3039" style="" d="m231.62 208.7v2.8046h3.3426v1.2612h-3.3426v5.3622c0 0.80551 0.10877 1.3229 0.32632 1.5522 0.22342 0.22931 0.67321 0.34396 1.3494 0.34396h1.6669v1.3582h-1.6669c-1.2524 0-2.1167-0.23224-2.5929-0.69674-0.47625-0.47036-0.71437-1.3229-0.71437-2.5576v-5.3622h-1.1906v-1.2612h1.1906v-2.8046h1.6316"/>
  <path id="path3041" style="" d="m242.86 211.51h1.6228v9.8778h-1.6228v-9.8778m0-3.8453h1.6228v2.0549h-1.6228v-2.0549"/>
 </g>
 <g id="g38" transform="translate(-1 -4.8638)">
  <path id="path40" d="m300 320c40 0 40-100 9.736-100" stroke="#000" stroke-width="2" fill="none"/>
  <path id="polygon42" d="m309.74 220 2.5 5-10-5 10-5z"/>
  <path id="polygon44" d="m309.74 220 2.5 5-10-5 10-5z" stroke="#000" stroke-width="2" fill="none"/>
 </g>
 <g id="text46">
  <path id="path3046" style="" d="m175 252.68c-0.78788 1.3523-1.3729 2.6899-1.7551 4.0128-0.38218 1.3229-0.57327 2.6635-0.57326 4.0217-0.00001 1.3582 0.19108 2.7046 0.57326 4.0393 0.38805 1.3288 0.97307 2.6664 1.7551 4.0128h-1.4111c-0.88195-1.3817-1.5434-2.7399-1.9844-4.0746-0.43509-1.3347-0.65264-2.6605-0.65263-3.9776-0.00001-1.3111 0.21754-2.6311 0.65263-3.9599s1.0966-2.687 1.9844-4.0746h1.4111"/>
  <path id="path3048" style="" d="m176.99 256.51h1.7198l3.0868 8.2903 3.0868-8.2903h1.7198l-3.7042 9.8778h-2.2049l-3.7042-9.8778"/>
  <path id="path3050" style="" d="m188.85 256.51h1.6228v9.8778h-1.6228v-9.8778m0-3.8453h1.6228v2.0549h-1.6228v-2.0549"/>
  <path id="path3052" style="" d="m200.15 256.8v1.5346c-0.45862-0.23518-0.93487-0.41157-1.4288-0.52917-0.49389-0.11758-1.0054-0.17638-1.5346-0.17639-0.80551 0.00001-1.4111 0.12348-1.8168 0.37042-0.39982 0.24695-0.59973 0.61737-0.59972 1.1112-0.00001 0.3763 0.14404 0.67322 0.43215 0.89076 0.2881 0.21167 0.86724 0.41452 1.7374 0.60854l0.55562 0.12347c1.1524 0.24695 1.9697 0.59679 2.4518 1.0495 0.488 0.44685 0.73201 1.073 0.73202 1.8785-0.00001 0.91722-0.36455 1.6434-1.0936 2.1784-0.7232 0.53504-1.7198 0.80256-2.9898 0.80256-0.52917 0-1.0818-0.0529-1.658-0.15875-0.57033-0.1-1.173-0.25282-1.808-0.45861v-1.6757c0.59972 0.31162 1.1906 0.54681 1.7727 0.70556 0.58208 0.15287 1.1583 0.2293 1.7286 0.2293 0.76434 0 1.3523-0.12935 1.7639-0.38805 0.41157-0.26459 0.61736-0.635 0.61736-1.1112 0-0.44097-0.14993-0.77905-0.44979-1.0142-0.29398-0.23518-0.94368-0.46154-1.9491-0.67909l-0.56445-0.1323c-1.0054-0.21166-1.7316-0.53504-2.1784-0.97013-0.44685-0.44097-0.67027-1.0436-0.67027-1.808 0-0.92897 0.32926-1.6463 0.98777-2.1519 0.65852-0.50564 1.5934-0.75846 2.8046-0.75847 0.59972 0.00001 1.1642 0.0441 1.6933 0.13229 0.52915 0.0882 1.0172 0.2205 1.464 0.39688"/>
  <path id="path3054" style="" d="m209.57 256.8v1.5346c-0.45862-0.23518-0.93487-0.41157-1.4288-0.52917-0.4939-0.11758-1.0054-0.17638-1.5346-0.17639-0.80552 0.00001-1.4111 0.12348-1.8168 0.37042-0.39981 0.24695-0.59972 0.61737-0.59972 1.1112 0 0.3763 0.14405 0.67322 0.43215 0.89076 0.2881 0.21167 0.86724 0.41452 1.7374 0.60854l0.55563 0.12347c1.1524 0.24695 1.9697 0.59679 2.4518 1.0495 0.488 0.44685 0.732 1.073 0.73201 1.8785-0.00001 0.91722-0.36454 1.6434-1.0936 2.1784-0.7232 0.53504-1.7198 0.80256-2.9898 0.80256-0.52917 0-1.0818-0.0529-1.658-0.15875-0.57032-0.1-1.173-0.25282-1.808-0.45861v-1.6757c0.59972 0.31162 1.1906 0.54681 1.7727 0.70556 0.58208 0.15287 1.1583 0.2293 1.7286 0.2293 0.76435 0 1.3523-0.12935 1.7639-0.38805 0.41157-0.26459 0.61735-0.635 0.61736-1.1112-0.00001-0.44097-0.14994-0.77905-0.44979-1.0142-0.29399-0.23518-0.94369-0.46154-1.9491-0.67909l-0.56444-0.1323c-1.0054-0.21166-1.7316-0.53504-2.1784-0.97013-0.44685-0.44097-0.67028-1.0436-0.67028-1.808 0-0.92897 0.32926-1.6463 0.98778-2.1519 0.65851-0.50564 1.5934-0.75846 2.8046-0.75847 0.59972 0.00001 1.1642 0.0441 1.6933 0.13229 0.52916 0.0882 1.0172 0.2205 1.464 0.39688"/>
  <path id="path3056" style="" d="m211.99 256.51h7.7082v1.4817l-6.103 7.0996h6.103v1.2965h-7.9287v-1.4817l6.103-7.0996h-5.8826v-1.2965"/>
  <path id="path3058" style="" d="m226.67 261.42c-1.3112 0-2.2196 0.14993-2.7252 0.44979-0.50565 0.29987-0.75847 0.81139-0.75847 1.5346 0 0.57621 0.18815 1.0348 0.56445 1.3758 0.38217 0.33514 0.89957 0.50271 1.5522 0.50271 0.89957 0 1.6198-0.3175 2.1608-0.9525 0.5468-0.64087 0.8202-1.4905 0.82021-2.5488v-0.3616h-1.614m3.2367-0.67028v5.6356h-1.6228v-1.4993c-0.37043 0.59972-0.83198 1.0436-1.3847 1.3317-0.55269 0.28222-1.2288 0.42333-2.0285 0.42333-1.0113 0-1.8168-0.28222-2.4165-0.84666-0.59384-0.57032-0.89076-1.3317-0.89076-2.2842 0-1.1112 0.37041-1.9491 1.1112-2.5135 0.74671-0.56444 1.858-0.84666 3.3337-0.84667h2.2754v-0.15875c-0.00001-0.7467-0.24696-1.3229-0.74084-1.7286-0.48801-0.41156-1.1759-0.61735-2.0637-0.61736-0.56445 0.00001-1.1142 0.0676-1.6492 0.20285-0.53505 0.13524-1.0495 0.33808-1.5434 0.60854v-1.4993c0.59384-0.2293 1.17-0.39981 1.7286-0.51153 0.55856-0.11758 1.1024-0.17638 1.6316-0.17639 1.4287 0.00001 2.4959 0.37043 3.2014 1.1112 0.70555 0.74084 1.0583 1.8638 1.0583 3.369"/>
  <path id="path3060" style="" d="m234.86 253.7v2.8046h3.3426v1.2612h-3.3426v5.3622c0 0.80551 0.10877 1.3229 0.32632 1.5522 0.22342 0.22931 0.67322 0.34396 1.3494 0.34396h1.6669v1.3582h-1.6669c-1.2524 0-2.1167-0.23224-2.5929-0.69673-0.47625-0.47037-0.71437-1.3229-0.71437-2.5576v-5.3622h-1.1906v-1.2612h1.1906v-2.8046h1.6316"/>
  <path id="path3062" style="" d="m240.58 264.15h1.8609v2.2401h-1.8609v-2.2401"/>
  <path id="path3064" style="" d="m260.3 261.04v0.79375h-7.4612c0.0705 1.1171 0.40569 1.9697 1.0054 2.5576 0.6056 0.58208 1.4464 0.87312 2.5224 0.87312 0.62323 0 1.2259-0.0764 1.808-0.2293 0.58796-0.15287 1.17-0.38218 1.7462-0.68792v1.5346c-0.58209 0.24695-1.1789 0.43509-1.7903 0.56445-0.61149 0.12935-1.2318 0.19402-1.8609 0.19402-1.5758 0-2.8252-0.45861-3.7483-1.3758-0.91723-0.91722-1.3758-2.1578-1.3758-3.7218 0-1.6169 0.4351-2.8986 1.3053-3.8453 0.87606-0.95249 2.0549-1.4287 3.5366-1.4288 1.3288 0.00001 2.3783 0.42922 3.1485 1.2876 0.7761 0.85255 1.1642 2.0138 1.1642 3.4837m-1.6228-0.47625c-0.0118-0.88781-0.26165-1.5963-0.74965-2.1255-0.48214-0.52916-1.123-0.79374-1.9226-0.79375-0.90546 0.00001-1.6316 0.25577-2.1784 0.76729-0.54093 0.51154-0.85255 1.2318-0.93486 2.1608l5.7856-0.009m-1.561-8.6254h1.7551l-2.8751 3.3161h-1.3494l2.4694-3.3161"/>
  <path id="path3066" style="" d="m268.69 258.03c-0.18228-0.10583-0.38218-0.18226-0.59972-0.22931-0.21168-0.0529-0.44686-0.0794-0.70556-0.0794-0.91722 0.00001-1.6228 0.29987-2.1167 0.89958-0.48801 0.59385-0.73202 1.4493-0.73201 2.5664v5.2035h-1.6316v-9.8778h1.6316v1.5346c0.34101-0.59972 0.78492-1.0436 1.3317-1.3317 0.5468-0.29397 1.2112-0.44096 1.9932-0.44097 0.11171 0.00001 0.23518 0.009 0.37042 0.0265 0.13522 0.0118 0.28515 0.0324 0.44979 0.0617l0.009 1.6669"/>
  <path id="path3068" style="" d="m272.01 253.7v2.8046h3.3426v1.2612h-3.3426v5.3622c-0.00001 0.80551 0.10877 1.3229 0.32632 1.5522 0.22342 0.22931 0.67321 0.34396 1.3494 0.34396h1.6669v1.3582h-1.6669c-1.2524 0-2.1167-0.23224-2.5929-0.69673-0.47626-0.47037-0.71438-1.3229-0.71438-2.5576v-5.3622h-1.1906v-1.2612h1.1906v-2.8046h1.6316"/>
  <path id="path3070" style="" d="m277.73 264.15h1.8609v2.2401h-1.8609v-2.2401"/>
  <path id="path3072" style="" d="m282.99 252.68h1.4111c0.88194 1.3876 1.5405 2.7458 1.9756 4.0746 0.44097 1.3288 0.66146 2.6488 0.66146 3.9599 0 1.317-0.22049 2.6429-0.66146 3.9776-0.43509 1.3347-1.0936 2.6929-1.9756 4.0746h-1.4111c0.78199-1.3464 1.3641-2.684 1.7462-4.0128 0.38805-1.3347 0.58208-2.6811 0.58208-4.0393s-0.19403-2.6987-0.58208-4.0217c-0.38218-1.3229-0.96426-2.6605-1.7462-4.0128"/>
 </g>
 <path id="line50" d="m199 205.14 60 70" stroke="#f00" stroke-width="2" fill="none"/>
 <path id="line52" d="m199 275.14 60-70" stroke="#f00" stroke-width="2" fill="none"/>
 <g id="text54">
  <path id="path3077" style="" d="m169.92 181.39-5.0271-13.167h1.8609l4.1716 11.086 4.1804-11.086h1.8521l-5.0183 13.167h-2.0196"/>
  <path id="path3079" style="" d="m185.85 176.04v0.79375h-7.4612c0.0705 1.1171 0.40569 1.9697 1.0054 2.5576 0.6056 0.58208 1.4464 0.87312 2.5224 0.87312 0.62323 0 1.2259-0.0764 1.808-0.2293 0.58796-0.15287 1.17-0.38218 1.7462-0.68792v1.5346c-0.58209 0.24695-1.1789 0.43509-1.7903 0.56445-0.61149 0.12935-1.2318 0.19402-1.8609 0.19402-1.5758 0-2.8252-0.45861-3.7483-1.3758-0.91723-0.91722-1.3758-2.1578-1.3758-3.7218 0-1.6169 0.4351-2.8986 1.3053-3.8453 0.87606-0.95249 2.0549-1.4287 3.5366-1.4288 1.3288 0.00001 2.3783 0.42922 3.1485 1.2876 0.7761 0.85255 1.1642 2.0138 1.1642 3.4837m-1.6228-0.47625c-0.0118-0.88781-0.26165-1.5963-0.74965-2.1255-0.48214-0.52916-1.123-0.79374-1.9226-0.79375-0.90546 0.00001-1.6316 0.25577-2.1784 0.76729-0.54093 0.51154-0.85255 1.2318-0.93486 2.1608l5.7856-0.009"/>
  <path id="path3081" style="" d="m194.23 173.03c-0.18228-0.10583-0.38218-0.18226-0.59972-0.22931-0.21168-0.0529-0.44686-0.0794-0.70556-0.0794-0.91722 0.00001-1.6228 0.29987-2.1167 0.89958-0.48801 0.59385-0.73202 1.4493-0.73202 2.5664v5.2035h-1.6316v-9.8778h1.6316v1.5346c0.34102-0.59972 0.78493-1.0436 1.3317-1.3317 0.5468-0.29397 1.2112-0.44096 1.9932-0.44097 0.11171 0.00001 0.23518 0.009 0.37042 0.0265 0.13522 0.0118 0.28515 0.0323 0.44979 0.0617l0.009 1.6669"/>
  <path id="path3083" style="" d="m204.01 176.04v0.79375h-7.4612c0.0705 1.1171 0.40569 1.9697 1.0054 2.5576 0.60559 0.58208 1.4464 0.87312 2.5224 0.87312 0.62323 0 1.2259-0.0764 1.808-0.2293 0.58795-0.15287 1.17-0.38218 1.7462-0.68792v1.5346c-0.58209 0.24695-1.1789 0.43509-1.7904 0.56445-0.61149 0.12935-1.2318 0.19402-1.8609 0.19402-1.5757 0-2.8252-0.45861-3.7483-1.3758-0.91722-0.91722-1.3758-2.1578-1.3758-3.7218 0-1.6169 0.43509-2.8986 1.3053-3.8453 0.87606-0.95249 2.0549-1.4287 3.5366-1.4288 1.3288 0.00001 2.3783 0.42922 3.1485 1.2876 0.7761 0.85255 1.1642 2.0138 1.1642 3.4837m-1.6228-0.47625c-0.0118-0.88781-0.26165-1.5963-0.74965-2.1255-0.48214-0.52916-1.123-0.79374-1.9226-0.79375-0.90547 0.00001-1.6316 0.25577-2.1784 0.76729-0.54093 0.51154-0.85255 1.2318-0.93486 2.1608l5.7856-0.009"/>
  <path id="path3085" style="" d="m214.36 173.4c0.40568-0.72906 0.89075-1.267 1.4552-1.614 0.56443-0.34689 1.2288-0.52034 1.9932-0.52035 1.0289 0.00001 1.8227 0.36161 2.3812 1.0848 0.55855 0.71732 0.83783 1.7404 0.83785 3.0692v5.9619h-1.6316v-5.909c-0.00001-0.94661-0.16758-1.6492-0.50271-2.1078-0.33515-0.4586-0.84667-0.6879-1.5346-0.68791-0.84079 0.00001-1.5052 0.27929-1.9932 0.83784-0.48802 0.55858-0.73202 1.32-0.73201 2.2842v5.5827h-1.6316v-5.909c-0.00001-0.95249-0.16757-1.6551-0.50271-2.1078-0.33514-0.4586-0.85255-0.6879-1.5522-0.68791-0.82903 0.00001-1.4875 0.28223-1.9756 0.84666-0.48801 0.55858-0.73201 1.317-0.73201 2.2754v5.5827h-1.6316v-9.8778h1.6316v1.5346c0.37041-0.6056 0.81432-1.0524 1.3317-1.3406 0.5174-0.28809 1.1318-0.43214 1.8433-0.43215 0.71731 0.00001 1.3258 0.18228 1.8256 0.5468 0.50564 0.36455 0.87899 0.89372 1.1201 1.5875"/>
 </g>
 <path id="line58" d="m159 195.14v-30" stroke="#000" stroke-width="2" fill="none"/>
 <path id="line60" d="m299 195.14v-30" stroke="#000" stroke-width="2" fill="none"/>
</svg>
