<?xml version="1.0" encoding="UTF-8" standalone="no"?>
<!-- Created with Inkscape (http://www.inkscape.org/) -->
<svg id="svg2" xmlns:rdf="http://www.w3.org/1999/02/22-rdf-syntax-ns#" xmlns="http://www.w3.org/2000/svg" height="744.09" width="353.61" version="1.1" xmlns:cc="http://creativecommons.org/ns#" xmlns:dc="http://purl.org/dc/elements/1.1/" viewBox="159 109 195.6022 412">
 <metadata id="metadata104">
  <rdf:RDF>
   <cc:Work rdf:about="">
    <dc:format>image/svg+xml</dc:format>
    <dc:type rdf:resource="http://purl.org/dc/dcmitype/StillImage"/>
   </cc:Work>
  </rdf:RDF>
 </metadata>
 <g id="text4">
  <path id="path3031" style="" d="m161.68 243.08h1.7815v5.5651l5.909-5.5651h2.293l-6.5352 6.1383 7.0026 7.0291h-2.346l-6.3235-6.3412v6.3412h-1.7815v-13.167"/>
  <path id="path3033" style="" d="m172.39 252.35v-5.9796h1.6228v5.9178c-0.00001 0.93487 0.18226 1.6375 0.5468 2.1078 0.36454 0.46449 0.91134 0.69674 1.6404 0.69673 0.87605 0.00001 1.5669-0.27928 2.0726-0.83784 0.51152-0.55856 0.76729-1.32 0.76729-2.2842v-5.6003h1.6228v9.8778h-1.6228v-1.5169c-0.39394 0.59972-0.85255 1.0466-1.3758 1.3406-0.51741 0.2881-1.1201 0.43215-1.808 0.43215-1.1348 0-1.9961-0.35277-2.5841-1.0583-0.58797-0.70555-0.88195-1.7374-0.88195-3.0956m4.0834-6.2177"/>
  <path id="path3035" style="" d="m185.6 254.77v5.2387h-1.6316v-13.635h1.6316v1.4993c0.34101-0.58796 0.77022-1.023 1.2876-1.3053 0.52328-0.28809 1.1465-0.43214 1.8697-0.43215 1.1994 0.00001 2.1725 0.47626 2.9192 1.4288 0.75258 0.9525 1.1289 2.2049 1.1289 3.7571-0.00001 1.5522-0.3763 2.8046-1.1289 3.7571-0.74673 0.95249-1.7198 1.4287-2.9192 1.4287-0.7232 0-1.3464-0.14111-1.8697-0.42333-0.51741-0.2881-0.94662-0.72613-1.2876-1.3141m5.521-3.4484c-0.00001-1.1936-0.24695-2.1284-0.74083-2.8046-0.48802-0.68203-1.1612-1.023-2.0196-1.0231-0.85843 0.00001-1.5346 0.34103-2.0285 1.0231-0.48801 0.67616-0.73202 1.611-0.73201 2.8046-0.00001 1.1936 0.244 2.1314 0.73201 2.8134 0.49388 0.67615 1.17 1.0142 2.0285 1.0142 0.85842 0 1.5316-0.33808 2.0196-1.0142 0.49388-0.68204 0.74082-1.6198 0.74083-2.8134"/>
  <path id="path3037" style="" d="m199.98 251.28c-1.3112 0-2.2196 0.14993-2.7252 0.44979-0.50565 0.29986-0.75848 0.81139-0.75847 1.5346-0.00001 0.57621 0.18814 1.0348 0.56444 1.3758 0.38217 0.33514 0.89958 0.50271 1.5522 0.50271 0.89958 0 1.6198-0.3175 2.1608-0.9525 0.5468-0.64087 0.8202-1.4905 0.82021-2.5488v-0.3616h-1.614m3.2367-0.67028v5.6356h-1.6228v-1.4993c-0.37043 0.59972-0.83198 1.0436-1.3846 1.3317-0.55269 0.28222-1.2288 0.42333-2.0285 0.42333-1.0113 0-1.8168-0.28222-2.4165-0.84666-0.59384-0.57032-0.89076-1.3317-0.89076-2.2842 0-1.1112 0.37041-1.9491 1.1112-2.5135 0.74671-0.56444 1.858-0.84666 3.3337-0.84667h2.2754v-0.15875c-0.00001-0.7467-0.24695-1.3229-0.74083-1.7286-0.48802-0.41156-1.1759-0.61735-2.0638-0.61736-0.56445 0.00001-1.1142 0.0676-1.6492 0.20285-0.53504 0.13524-1.0495 0.33808-1.5434 0.60854v-1.4993c0.59384-0.2293 1.17-0.39981 1.7286-0.51153 0.55856-0.11758 1.1024-0.17638 1.6316-0.17639 1.4287 0.00001 2.4959 0.37043 3.2014 1.1112 0.70555 0.74084 1.0583 1.8638 1.0583 3.369"/>
  <path id="path3039" style="" d="m213.68 246.75v1.5169c-0.45862-0.25281-0.92017-0.44096-1.3846-0.56444-0.45862-0.12934-0.92311-0.19402-1.3935-0.19403-1.0525 0.00001-1.8697 0.33515-2.4518 1.0054-0.58209 0.6644-0.87313 1.5993-0.87313 2.8046s0.29104 2.1431 0.87313 2.8134c0.58208 0.66439 1.3993 0.99659 2.4518 0.99659 0.47036 0 0.93485-0.0617 1.3935-0.18521 0.46448-0.12935 0.92603-0.32043 1.3846-0.57326v1.4993c-0.45274 0.21167-0.92311 0.37042-1.4111 0.47625-0.48213 0.10584-0.9966 0.15875-1.5434 0.15875-1.4876 0-2.6694-0.46743-3.5454-1.4023-0.87607-0.93485-1.3141-2.196-1.3141-3.7835 0-1.611 0.44097-2.8781 1.3229-3.8012 0.88782-0.92309 2.102-1.3846 3.6424-1.3846 0.49976 0.00001 0.98777 0.0529 1.464 0.15875 0.47624 0.1 0.93779 0.25283 1.3846 0.45861"/>
 </g>
 <g id="g8" transform="translate(-.095046)">
  <path id="rect10" fill="#fff" d="m160 280h140v40h-140z"/>
  <path id="rect12" d="m160 280h140v40h-140z" stroke="#000" stroke-width="2" fill="none"/>
 </g>
 <g id="g14" transform="translate(-.095046)">
  <path id="rect16" fill="#fff" d="m160 180h140v40h-140z"/>
  <path id="rect18" d="m160 180h140v40h-140z" stroke="#000" stroke-width="2" fill="none"/>
 </g>
 <g id="text20">
  <path id="path3046" style="" d="m205.63 196.75v1.5169c-0.45862-0.25281-0.92017-0.44096-1.3846-0.56444-0.45862-0.12934-0.92311-0.19402-1.3935-0.19403-1.0525 0.00001-1.8697 0.33515-2.4518 1.0054-0.58209 0.6644-0.87313 1.5993-0.87313 2.8046s0.29104 2.1431 0.87313 2.8134c0.58208 0.66439 1.3993 0.99659 2.4518 0.99659 0.47036 0 0.93485-0.0617 1.3935-0.18521 0.46448-0.12935 0.92603-0.32043 1.3846-0.57326v1.4993c-0.45274 0.21167-0.92311 0.37042-1.4111 0.47625-0.48213 0.10584-0.9966 0.15875-1.5434 0.15875-1.4876 0-2.6694-0.46743-3.5454-1.4023-0.87607-0.93485-1.3141-2.196-1.3141-3.7835 0-1.611 0.44097-2.8781 1.3229-3.8012 0.88782-0.92309 2.102-1.3846 3.6424-1.3846 0.49977 0.00001 0.98777 0.0529 1.464 0.15875 0.47624 0.1 0.93779 0.25283 1.3846 0.45861"/>
  <path id="path3048" style="" d="m216.68 200.29v5.9619h-1.6228v-5.909c-0.00001-0.93485-0.18228-1.6345-0.54681-2.099-0.36454-0.46448-0.91135-0.69672-1.6404-0.69673-0.87607 0.00001-1.5669 0.27929-2.0726 0.83784-0.50565 0.55858-0.75847 1.32-0.75847 2.2842v5.5827h-1.6316v-13.723h1.6316v5.3799c0.38805-0.59384 0.84372-1.0378 1.367-1.3317 0.52916-0.29397 1.1377-0.44096 1.8256-0.44097 1.1348 0.00001 1.9932 0.35279 2.5753 1.0583 0.58207 0.69968 0.87311 1.7316 0.87312 3.0956"/>
  <path id="path3050" style="" d="m224.42 201.28c-1.3112 0-2.2196 0.14993-2.7252 0.44979-0.50565 0.29986-0.75847 0.81139-0.75847 1.5346 0 0.57621 0.18814 1.0348 0.56444 1.3758 0.38217 0.33514 0.89958 0.50271 1.5522 0.50271 0.89958 0 1.6198-0.3175 2.1608-0.9525 0.5468-0.64087 0.8202-1.4905 0.82021-2.5488v-0.3616h-1.614m3.2367-0.67028v5.6356h-1.6228v-1.4993c-0.37042 0.59972-0.83197 1.0436-1.3846 1.3317-0.55269 0.28222-1.2288 0.42333-2.0285 0.42333-1.0113 0-1.8168-0.28222-2.4165-0.84666-0.59385-0.57032-0.89077-1.3317-0.89077-2.2842 0-1.1112 0.37042-1.9491 1.1112-2.5135 0.74671-0.56444 1.858-0.84666 3.3338-0.84667h2.2754v-0.15875c-0.00001-0.7467-0.24695-1.3229-0.74083-1.7286-0.48802-0.41156-1.1759-0.61735-2.0638-0.61736-0.56445 0.00001-1.1142 0.0676-1.6492 0.20285-0.53505 0.13524-1.0495 0.33808-1.5434 0.60854v-1.4993c0.59384-0.2293 1.17-0.39981 1.7286-0.51153 0.55856-0.11758 1.1024-0.17638 1.6316-0.17639 1.4287 0.00001 2.4959 0.37043 3.2015 1.1112 0.70554 0.74084 1.0583 1.8638 1.0583 3.369"/>
  <path id="path3052" style="" d="m236.73 197.89c-0.18228-0.10583-0.38219-0.18226-0.59973-0.22931-0.21167-0.0529-0.44685-0.0794-0.70555-0.0794-0.91723 0.00001-1.6228 0.29987-2.1167 0.89958-0.48802 0.59385-0.73202 1.4493-0.73202 2.5664v5.2035h-1.6316v-9.8778h1.6316v1.5346c0.34102-0.59972 0.78493-1.0436 1.3317-1.3317 0.5468-0.29397 1.2112-0.44096 1.9932-0.44097 0.1117 0.00001 0.23518 0.009 0.37042 0.0265 0.13522 0.0118 0.28515 0.0323 0.44979 0.0617l0.009 1.6669"/>
  <path id="path3054" style="" d="m250.99 195.25-3.1662 1.711 3.1662 1.7198-0.51153 0.8643-2.9633-1.7903v3.3249h-1.0054v-3.3249l-2.9633 1.7903-0.51153-0.8643 3.1662-1.7198-3.1662-1.711 0.51153-0.87313 2.9633 1.7904v-3.3249h1.0054v3.3249l2.9633-1.7904 0.51153 0.87313"/>
  <path id="path3056" style="" d="m254.8 204.77v5.2387h-1.6316v-13.635h1.6316v1.4993c0.34102-0.58796 0.77023-1.023 1.2876-1.3053 0.52328-0.28809 1.1465-0.43214 1.8697-0.43215 1.1994 0.00001 2.1725 0.47626 2.9192 1.4288 0.75259 0.9525 1.1289 2.2049 1.1289 3.7571-0.00001 1.5522-0.3763 2.8046-1.1289 3.7571-0.74672 0.95249-1.7198 1.4287-2.9192 1.4287-0.7232 0-1.3464-0.14111-1.8697-0.42333-0.51741-0.2881-0.94662-0.72613-1.2876-1.3141m5.521-3.4484c-0.00001-1.1936-0.24695-2.1284-0.74083-2.8046-0.48802-0.68203-1.1612-1.023-2.0196-1.0231-0.85843 0.00001-1.5346 0.34103-2.0285 1.0231-0.48802 0.67616-0.73202 1.611-0.73202 2.8046s0.244 2.1314 0.73202 2.8134c0.49388 0.67615 1.17 1.0142 2.0285 1.0142 0.85841 0 1.5316-0.33808 2.0196-1.0142 0.49388-0.68204 0.74082-1.6198 0.74083-2.8134"/>
 </g>
 <g id="text24">
  <path id="path3059" style="" d="m191.95 300.29v5.9619h-1.6228v-5.909c0-0.93485-0.18227-1.6345-0.5468-2.099-0.36455-0.46448-0.91135-0.69672-1.6404-0.69673-0.87606 0.00001-1.5669 0.27929-2.0726 0.83784-0.50565 0.55858-0.75848 1.32-0.75847 2.2842v5.5827h-1.6316v-13.723h1.6316v5.3799c0.38805-0.59384 0.84372-1.0378 1.367-1.3317 0.52916-0.29397 1.1377-0.44096 1.8256-0.44097 1.1348 0.00001 1.9932 0.35279 2.5753 1.0583 0.58207 0.69968 0.87311 1.7316 0.87312 3.0956"/>
  <path id="path3061" style="" d="m203.65 300.91v0.79375h-7.4612c0.0705 1.1171 0.40569 1.9697 1.0054 2.5576 0.6056 0.58208 1.4464 0.87312 2.5224 0.87312 0.62323 0 1.2259-0.0764 1.808-0.2293 0.58795-0.15287 1.17-0.38218 1.7462-0.68792v1.5346c-0.58209 0.24695-1.1789 0.43509-1.7903 0.56445-0.61149 0.12935-1.2318 0.19402-1.8609 0.19402-1.5758 0-2.8252-0.45861-3.7483-1.3758-0.91722-0.91722-1.3758-2.1578-1.3758-3.7218 0-1.6169 0.43509-2.8986 1.3053-3.8453 0.87606-0.95249 2.0549-1.4287 3.5366-1.4288 1.3288 0.00001 2.3783 0.42922 3.1485 1.2876 0.7761 0.85255 1.1642 2.0138 1.1642 3.4837m-1.6228-0.47625c-0.0118-0.88781-0.26165-1.5963-0.74965-2.1255-0.48214-0.52916-1.123-0.79374-1.9226-0.79375-0.90546 0.00001-1.6316 0.25577-2.1784 0.76729-0.54092 0.51154-0.85254 1.2318-0.93486 2.1608l5.7856-0.009"/>
  <path id="path3063" style="" d="m206.31 292.53h1.6228v13.723h-1.6228v-13.723"/>
  <path id="path3065" style="" d="m211.32 292.53h1.6228v13.723h-1.6228v-13.723"/>
  <path id="path3067" style="" d="m220.16 297.51c-0.87019 0.00001-1.5581 0.34103-2.0638 1.0231-0.50565 0.67616-0.75847 1.6051-0.75847 2.7869s0.24988 2.1137 0.74965 2.7958c0.50564 0.67616 1.1965 1.0142 2.0726 1.0142 0.8643 0 1.5493-0.34101 2.0549-1.023 0.50563-0.68204 0.75846-1.611 0.75847-2.7869-0.00001-1.17-0.25284-2.0961-0.75847-2.7781-0.50566-0.6879-1.1906-1.0319-2.0549-1.0319m0-1.3758c1.4111 0.00001 2.5194 0.45862 3.3249 1.3758 0.8055 0.91723 1.2083 2.1872 1.2083 3.81-0.00001 1.6169-0.40277 2.8869-1.2083 3.81-0.80551 0.91722-1.9138 1.3758-3.3249 1.3758-1.417 0-2.5282-0.45861-3.3338-1.3758-0.79963-0.9231-1.1994-2.1931-1.1994-3.81 0-1.6228 0.39981-2.8928 1.1994-3.81 0.80551-0.91721 1.9168-1.3758 3.3338-1.3758m1.2259-4.3303h1.7551l-2.8751 3.3161h-1.3494l2.4694-3.3161"/>
  <path id="path3069" style="" d="m227.17 293.08 4.5861 14.843h-1.4993l-4.5861-14.843h1.4993"/>
  <path id="path3071" style="" d="m237.52 294.26c-0.91723 0.00001-1.6081 0.45274-2.0726 1.3582-0.45862 0.89959-0.68792 2.2548-0.68792 4.0658 0 1.805 0.2293 3.1603 0.68792 4.0658 0.46448 0.89958 1.1553 1.3494 2.0726 1.3494 0.92309 0.00001 1.6139-0.44979 2.0726-1.3494 0.46448-0.90546 0.69673-2.2607 0.69674-4.0658-0.00001-1.8109-0.23226-3.1662-0.69674-4.0658-0.45862-0.90545-1.1495-1.3582-2.0726-1.3582m0-1.4111c1.4758 0.00001 2.6017 0.58504 3.3778 1.7551 0.78198 1.1642 1.173 2.8575 1.173 5.08-0.00001 2.2166-0.391 3.91-1.173 5.08-0.77612 1.1642-1.9021 1.7462-3.3778 1.7462-1.4758 0-2.6047-0.58208-3.3867-1.7462-0.77611-1.17-1.1642-2.8634-1.1642-5.08 0-2.2225 0.38805-3.9158 1.1642-5.08 0.78199-1.17 1.9109-1.7551 3.3867-1.7551"/>
  <path id="path3073" style="" d="m245.21 304.01h1.8609v2.2401h-1.8609v-2.2401"/>
  <path id="path3075" style="" d="m250.96 304.01h1.8609v2.2401h-1.8609v-2.2401"/>
  <path id="path3077" style="" d="m256.71 304.01h1.8609v2.2401h-1.8609v-2.2401"/>
  <path id="path3079" style="" d="m262.46 304.01h1.8609v2.2401h-1.8609v-2.2401"/>
  <path id="path3081" style="" d="m268.21 304.01h1.8609v2.2401h-1.8609v-2.2401"/>
  <path id="path3083" style="" d="m273.96 304.01h1.8609v2.2401h-1.8609v-2.2401"/>
 </g>
 <g id="g28" transform="translate(-.095046)">
  <path id="path30" d="m300 200c40 0 40 100 9.736 100" stroke="#000" stroke-width="2" fill="none"/>
  <path id="polygon32" d="m309.74 300 2.5 5-10-5 10-5z"/>
  <path id="polygon34" d="m309.74 300 2.5 5-10-5 10-5z" stroke="#000" stroke-width="2" fill="none"/>
 </g>
 <g id="text36">
  <path id="path3088" style="" d="m170.82 126.25-5.0271-13.167h1.8609l4.1716 11.086 4.1804-11.086h1.8521l-5.0183 13.167h-2.0196"/>
  <path id="path3090" style="" d="m186.75 120.91v0.79375h-7.4612c0.0706 1.1171 0.40569 1.9697 1.0054 2.5576 0.6056 0.58208 1.4464 0.87312 2.5224 0.87312 0.62324 0 1.2259-0.0764 1.808-0.2293 0.58795-0.15287 1.17-0.38218 1.7462-0.68792v1.5346c-0.58209 0.24695-1.1789 0.43509-1.7903 0.56445-0.61149 0.12935-1.2318 0.19402-1.8609 0.19402-1.5757 0-2.8252-0.45861-3.7483-1.3758-0.91722-0.91722-1.3758-2.1578-1.3758-3.7218 0-1.6169 0.43509-2.8986 1.3053-3.8453 0.87606-0.95249 2.0549-1.4287 3.5366-1.4288 1.3288 0.00001 2.3783 0.42922 3.1485 1.2876 0.77611 0.85255 1.1642 2.0138 1.1642 3.4837m-1.6228-0.47625c-0.0118-0.88781-0.26165-1.5963-0.74965-2.1255-0.48213-0.52916-1.123-0.79374-1.9226-0.79375-0.90547 0.00001-1.6316 0.25577-2.1784 0.76729-0.54093 0.51154-0.85255 1.2318-0.93486 2.1608l5.7855-0.009"/>
  <path id="path3092" style="" d="m195.14 117.89c-0.18227-0.10583-0.38218-0.18226-0.59972-0.22931-0.21167-0.0529-0.44686-0.0794-0.70556-0.0794-0.91722 0.00001-1.6228 0.29987-2.1167 0.89958-0.48801 0.59385-0.73202 1.4493-0.73201 2.5664v5.2035h-1.6316v-9.8778h1.6316v1.5346c0.34101-0.59972 0.78492-1.0436 1.3317-1.3317 0.5468-0.29397 1.2112-0.44096 1.9932-0.44097 0.11171 0.00001 0.23518 0.009 0.37042 0.0265 0.13522 0.0118 0.28515 0.0323 0.44979 0.0617l0.009 1.6669"/>
  <path id="path3094" style="" d="m204.91 120.91v0.79375h-7.4612c0.0706 1.1171 0.4057 1.9697 1.0054 2.5576 0.6056 0.58208 1.4464 0.87312 2.5224 0.87312 0.62323 0 1.2259-0.0764 1.808-0.2293 0.58796-0.15287 1.17-0.38218 1.7462-0.68792v1.5346c-0.58209 0.24695-1.1789 0.43509-1.7903 0.56445-0.61149 0.12935-1.2318 0.19402-1.8609 0.19402-1.5757 0-2.8252-0.45861-3.7482-1.3758-0.91723-0.91722-1.3758-2.1578-1.3758-3.7218 0-1.6169 0.43509-2.8986 1.3053-3.8453 0.87606-0.95249 2.0549-1.4287 3.5366-1.4288 1.3288 0.00001 2.3783 0.42922 3.1485 1.2876 0.7761 0.85255 1.1642 2.0138 1.1642 3.4837m-1.6228-0.47625c-0.0118-0.88781-0.26165-1.5963-0.74965-2.1255-0.48214-0.52916-1.123-0.79374-1.9226-0.79375-0.90547 0.00001-1.6316 0.25577-2.1784 0.76729-0.54093 0.51154-0.85255 1.2318-0.93486 2.1608l5.7856-0.009"/>
  <path id="path3096" style="" d="m215.26 118.27c0.40568-0.72906 0.89075-1.267 1.4552-1.614 0.56443-0.34689 1.2288-0.52034 1.9932-0.52035 1.0289 0.00001 1.8227 0.36161 2.3812 1.0848 0.55855 0.71732 0.83783 1.7404 0.83785 3.0692v5.9619h-1.6316v-5.909c-0.00002-0.94661-0.16759-1.6492-0.50271-2.1078-0.33515-0.4586-0.84668-0.6879-1.5346-0.68791-0.8408 0.00001-1.5052 0.27929-1.9932 0.83784-0.48801 0.55858-0.73202 1.32-0.73201 2.2842v5.5827h-1.6316v-5.909c-0.00001-0.95249-0.16758-1.6551-0.50271-2.1078-0.33515-0.4586-0.85255-0.6879-1.5522-0.68791-0.82903 0.00001-1.4876 0.28223-1.9756 0.84666-0.48801 0.55858-0.73201 1.317-0.73201 2.2754v5.5827h-1.6316v-9.8778h1.6316v1.5346c0.37041-0.6056 0.81433-1.0524 1.3317-1.3406 0.5174-0.28809 1.1318-0.43214 1.8433-0.43215 0.7173 0.00001 1.3258 0.18228 1.8256 0.5468 0.50564 0.36455 0.87899 0.89372 1.1201 1.5875"/>
 </g>
 <g id="g40" transform="translate(-.095046)">
  <path id="rect42" fill="#fff" d="m160 140h140v40h-140z"/>
  <path id="rect44" d="m160 140h140v40h-140z" stroke="#000" stroke-width="2" fill="none"/>
 </g>
 <g id="text46">
  <path id="path3101" style="" d="m208.89 156.37h1.6228v9.8778h-1.6228v-9.8778m0-3.8453h1.6228v2.0549h-1.6228v-2.0549"/>
  <path id="path3103" style="" d="m222.11 160.29v5.9619h-1.6228v-5.909c-0.00001-0.93485-0.18228-1.6345-0.54681-2.099-0.36454-0.46448-0.91135-0.69672-1.6404-0.69673-0.87607 0.00001-1.5669 0.27929-2.0726 0.83784-0.50565 0.55858-0.75847 1.32-0.75847 2.2842v5.5827h-1.6316v-9.8778h1.6316v1.5346c0.38805-0.59384 0.84372-1.0378 1.367-1.3317 0.52916-0.29397 1.1377-0.44096 1.8256-0.44097 1.1348 0.00001 1.9932 0.35279 2.5753 1.0583 0.58207 0.69968 0.87311 1.7316 0.87312 3.0956"/>
  <path id="path3105" style="" d="m226.97 153.57v2.8046h3.3426v1.2612h-3.3426v5.3622c0 0.80551 0.10877 1.3229 0.32632 1.5522 0.22342 0.22931 0.67321 0.34396 1.3494 0.34396h1.6669v1.3582h-1.6669c-1.2524 0-2.1167-0.23224-2.5929-0.69674-0.47625-0.47036-0.71438-1.3229-0.71437-2.5576v-5.3622h-1.1906v-1.2612h1.1906v-2.8046h1.6316"/>
  <path id="path3107" style="" d="m245 155.25-3.1662 1.711 3.1662 1.7198-0.51152 0.8643-2.9633-1.7903v3.3249h-1.0054v-3.3249l-2.9633 1.7903-0.51153-0.8643 3.1662-1.7198-3.1662-1.711 0.51153-0.87313 2.9633 1.7904v-3.3249h1.0054v3.3249l2.9633-1.7904 0.51152 0.87313"/>
  <path id="path3109" style="" d="m248.84 153.57v2.8046h3.3426v1.2612h-3.3426v5.3622c-0.00001 0.80551 0.10877 1.3229 0.32632 1.5522 0.22342 0.22931 0.67321 0.34396 1.3494 0.34396h1.6669v1.3582h-1.6669c-1.2524 0-2.1167-0.23224-2.5929-0.69674-0.47626-0.47036-0.71438-1.3229-0.71438-2.5576v-5.3622h-1.1906v-1.2612h1.1906v-2.8046h1.6316"/>
 </g>
 <g id="g50" transform="translate(-.095046)">
  <path id="rect52" fill="#fff" d="m160 320h140v80h-140z"/>
  <path id="rect54" d="m160 320h140v80h-140z" stroke="#000" stroke-width="2" fill="none"/>
 </g>
 <g id="text56">
  <path id="path3114" style="" d="m205.61 359.15c0.85254 0.18227 1.5169 0.56151 1.9932 1.1377 0.48212 0.57621 0.72319 1.2876 0.7232 2.1343-0.00001 1.2994-0.44686 2.3048-1.3406 3.0162-0.89371 0.71144-2.1637 1.0672-3.81 1.0672-0.55269 0-1.123-0.0559-1.711-0.16757-0.58209-0.10583-1.1848-0.26752-1.808-0.48506v-1.7198c0.49389 0.2881 1.0348 0.50565 1.6228 0.65263 0.58796 0.147 1.2024 0.22049 1.8433 0.22049 1.1171 0 1.9667-0.22048 2.5488-0.66146 0.58795-0.44097 0.88193-1.0818 0.88194-1.9226-0.00001-0.77611-0.27341-1.3817-0.82021-1.8168-0.54093-0.44096-1.2965-0.66145-2.2666-0.66146h-1.5346v-1.464h1.6051c0.87605 0.00001 1.5463-0.17344 2.0108-0.52035 0.46448-0.35277 0.69672-0.85841 0.69673-1.5169-0.00001-0.67615-0.24107-1.1936-0.72319-1.5522-0.47626-0.36453-1.1612-0.54679-2.0549-0.54681-0.48801 0.00002-1.0113 0.0529-1.5699 0.15875-0.55857 0.10585-1.173 0.27048-1.8433 0.49389v-1.5875c0.67615-0.18813 1.3082-0.32924 1.8962-0.42333 0.59384-0.0941 1.1524-0.1411 1.6757-0.14111 1.3523 0.00001 2.4224 0.30869 3.2103 0.92604 0.78786 0.61149 1.1818 1.4405 1.1818 2.4871-0.00001 0.72908-0.20874 1.3464-0.62618 1.8521-0.41746 0.49978-1.0113 0.84668-1.7815 1.0407"/>
  <path id="path3116" style="" d="m211.9 364.01h1.8609v1.517l-1.4464 2.8222h-1.1377l0.72319-2.8222v-1.517"/>
  <path id="path3118" style="" d="m227.24 358.96c-0.79963 0.00001-1.4346 0.27341-1.905 0.82021-0.4645 0.54681-0.69674 1.2965-0.69674 2.249 0 0.94662 0.23224 1.6963 0.69674 2.249 0.47036 0.5468 1.1054 0.82021 1.905 0.8202 0.79963 0.00001 1.4317-0.2734 1.8962-0.8202 0.47036-0.55269 0.70555-1.3023 0.70556-2.249-0.00001-0.95249-0.2352-1.7021-0.70556-2.249-0.4645-0.5468-1.0966-0.8202-1.8962-0.82021m3.5366-5.5827v1.6228c-0.44686-0.21165-0.89959-0.37334-1.3582-0.48507-0.45273-0.1117-0.90253-0.16755-1.3494-0.16757-1.1759 0.00002-2.0755 0.39689-2.6988 1.1906-0.61736 0.79376-0.97014 1.9932-1.0583 3.5983 0.3469-0.51152 0.78199-0.90252 1.3053-1.173 0.52328-0.27633 1.0995-0.4145 1.7286-0.41451 1.3229 0.00001 2.3665 0.40276 3.1309 1.2083 0.77022 0.79964 1.1553 1.8903 1.1553 3.272-0.00001 1.3523-0.39982 2.4371-1.1994 3.2544-0.79964 0.81727-1.8638 1.2259-3.1926 1.2259-1.5228 0-2.687-0.58208-3.4925-1.7462-0.80551-1.17-1.2083-2.8634-1.2083-5.08-0.00001-2.0814 0.49388-3.7394 1.4817-4.9742 0.98777-1.2406 2.3136-1.8609 3.9776-1.8609 0.44684 0.00001 0.89663 0.0441 1.3494 0.13229 0.4586 0.0882 0.93485 0.2205 1.4288 0.39688"/>
  <path id="path3120" style="" d="m234.9 364.01h1.8609v1.517l-1.4464 2.8222h-1.1377l0.72319-2.8222v-1.517"/>
  <path id="path3122" style="" d="m246.21 364.01h1.8609v2.2401h-1.8609v-2.2401"/>
  <path id="path3124" style="" d="m251.96 364.01h1.8609v2.2401h-1.8609v-2.2401"/>
  <path id="path3126" style="" d="m257.71 364.01h1.8609v2.2401h-1.8609v-2.2401"/>
 </g>
 <g id="g60" transform="translate(-.095046)">
  <path id="path62" d="m300 160c80 0 60 200 9.736 200" stroke="#000" stroke-width="2" fill="none"/>
  <path id="polygon64" d="m309.74 360 2.5 5-10-5 10-5z"/>
  <path id="polygon66" d="m309.74 360 2.5 5-10-5 10-5z" stroke="#000" stroke-width="2" fill="none"/>
 </g>
 <g id="g68" transform="translate(-.095046)">
  <path id="rect70" fill="#fff" d="m160 460h140v60h-140z"/>
  <path id="rect72" d="m160 460h140v60h-140z" stroke="#000" stroke-width="2" fill="none"/>
 </g>
 <g id="text74">
  <path id="path3133" style="" d="m188.92 471.26c-0.78787 1.3523-1.3729 2.6899-1.7551 4.0128-0.38218 1.3229-0.57327 2.6635-0.57327 4.0217s0.19109 2.7046 0.57327 4.0393c0.38805 1.3288 0.97307 2.6664 1.7551 4.0128h-1.4111c-0.88194-1.3817-1.5434-2.7399-1.9844-4.0746-0.43509-1.3347-0.65264-2.6605-0.65264-3.9776 0-1.3112 0.21755-2.6311 0.65264-3.9599s1.0966-2.687 1.9844-4.0746h1.4111"/>
  <path id="path3135" style="" d="m200.29 479v5.9619h-1.6228v-5.909c-0.00001-0.93486-0.18228-1.6345-0.54681-2.099-0.36454-0.46448-0.91134-0.69672-1.6404-0.69673-0.87607 0.00001-1.5669 0.27929-2.0726 0.83784-0.50565 0.55857-0.75847 1.32-0.75847 2.2842v5.5827h-1.6316v-9.8778h1.6316v1.5346c0.38805-0.59383 0.84372-1.0377 1.367-1.3317 0.52916-0.29397 1.1377-0.44096 1.8256-0.44097 1.1348 0.00001 1.9932 0.35279 2.5753 1.0583 0.58207 0.69968 0.87311 1.7316 0.87312 3.0956"/>
  <path id="path3137" style="" d="m211.99 479.62v0.79375h-7.4612c0.0705 1.1171 0.40569 1.9697 1.0054 2.5576 0.60559 0.58208 1.4464 0.87312 2.5224 0.87312 0.62323 0 1.2259-0.0764 1.808-0.2293 0.58795-0.15287 1.17-0.38218 1.7462-0.68792v1.5346c-0.58209 0.24695-1.1789 0.43509-1.7904 0.56444-0.61149 0.12936-1.2318 0.19403-1.8609 0.19403-1.5757 0-2.8252-0.45861-3.7483-1.3758-0.91722-0.91722-1.3758-2.1578-1.3758-3.7218 0-1.6169 0.43509-2.8986 1.3053-3.8453 0.87606-0.95249 2.0549-1.4287 3.5366-1.4288 1.3288 0.00001 2.3783 0.42922 3.1485 1.2876 0.7761 0.85255 1.1642 2.0138 1.1642 3.4837m-1.6228-0.47625c-0.0118-0.88781-0.26165-1.5963-0.74965-2.1255-0.48214-0.52916-1.123-0.79374-1.9226-0.79375-0.90547 0.00001-1.6316 0.25577-2.1784 0.76729-0.54093 0.51153-0.85255 1.2318-0.93486 2.1608l5.7856-0.009m-1.561-8.6254h1.7551l-2.8751 3.3161h-1.3494l2.4694-3.3161"/>
  <path id="path3139" style="" d="m213.49 475.08h1.7198l3.0868 8.2903 3.0868-8.2903h1.7198l-3.7042 9.8778h-2.2049l-3.7042-9.8778"/>
  <path id="path3141" style="" d="m226.95 472.28v2.8046h3.3426v1.2612h-3.3426v5.3622c0 0.80551 0.10877 1.3229 0.32632 1.5522 0.22342 0.2293 0.67322 0.34396 1.3494 0.34396h1.6669v1.3582h-1.6669c-1.2524 0-2.1167-0.23225-2.5929-0.69674-0.47625-0.47037-0.71437-1.3229-0.71437-2.5576v-5.3622h-1.1906v-1.2612h1.1906v-2.8046h1.6316"/>
  <path id="path3143" style="" d="m240.89 479.62v0.79375h-7.4612c0.0705 1.1171 0.40569 1.9697 1.0054 2.5576 0.6056 0.58208 1.4464 0.87312 2.5224 0.87312 0.62323 0 1.2259-0.0764 1.808-0.2293 0.58796-0.15287 1.17-0.38218 1.7462-0.68792v1.5346c-0.58209 0.24695-1.1789 0.43509-1.7903 0.56444-0.61149 0.12936-1.2318 0.19403-1.8609 0.19403-1.5758 0-2.8252-0.45861-3.7483-1.3758-0.91722-0.91722-1.3758-2.1578-1.3758-3.7218 0-1.6169 0.43509-2.8986 1.3053-3.8453 0.87606-0.95249 2.0549-1.4287 3.5366-1.4288 1.3288 0.00001 2.3783 0.42922 3.1485 1.2876 0.7761 0.85255 1.1642 2.0138 1.1642 3.4837m-1.6228-0.47625c-0.0118-0.88781-0.26165-1.5963-0.74965-2.1255-0.48214-0.52916-1.123-0.79374-1.9226-0.79375-0.90546 0.00001-1.6316 0.25577-2.1784 0.76729-0.54092 0.51153-0.85254 1.2318-0.93486 2.1608l5.7856-0.009"/>
  <path id="path3145" style="" d="m243.55 471.24h1.6228v13.723h-1.6228v-13.723"/>
  <path id="path3147" style="" d="m257.01 479.62v0.79375h-7.4612c0.0706 1.1171 0.40569 1.9697 1.0054 2.5576 0.60559 0.58208 1.4464 0.87312 2.5224 0.87312 0.62323 0 1.2259-0.0764 1.808-0.2293 0.58795-0.15287 1.17-0.38218 1.7462-0.68792v1.5346c-0.58209 0.24695-1.1789 0.43509-1.7904 0.56444-0.61149 0.12936-1.2318 0.19403-1.8609 0.19403-1.5757 0-2.8252-0.45861-3.7483-1.3758-0.91722-0.91722-1.3758-2.1578-1.3758-3.7218 0-1.6169 0.43509-2.8986 1.3053-3.8453 0.87606-0.95249 2.0549-1.4287 3.5366-1.4288 1.3288 0.00001 2.3783 0.42922 3.1485 1.2876 0.7761 0.85255 1.1642 2.0138 1.1642 3.4837m-1.6228-0.47625c-0.0118-0.88781-0.26165-1.5963-0.74965-2.1255-0.48214-0.52916-1.123-0.79374-1.9226-0.79375-0.90547 0.00001-1.6316 0.25577-2.1784 0.76729-0.54093 0.51153-0.85255 1.2318-0.93486 2.1608l5.7856-0.009"/>
  <path id="path3149" style="" d="m267.88 479v5.9619h-1.6228v-5.909c-0.00001-0.93486-0.18228-1.6345-0.5468-2.099-0.36455-0.46448-0.91135-0.69672-1.6404-0.69673-0.87607 0.00001-1.5669 0.27929-2.0726 0.83784-0.50565 0.55857-0.75847 1.32-0.75847 2.2842v5.5827h-1.6316v-9.8778h1.6316v1.5346c0.38805-0.59383 0.84372-1.0377 1.367-1.3317 0.52916-0.29397 1.1377-0.44096 1.8256-0.44097 1.1348 0.00001 1.9932 0.35279 2.5753 1.0583 0.58208 0.69968 0.87312 1.7316 0.87313 3.0956"/>
  <path id="path3151" style="" d="m270.88 471.26h1.4111c0.88194 1.3876 1.5405 2.7458 1.9756 4.0746 0.44096 1.3288 0.66145 2.6488 0.66145 3.9599 0 1.317-0.22049 2.6429-0.66145 3.9776-0.4351 1.3347-1.0936 2.6929-1.9756 4.0746h-1.4111c0.78199-1.3464 1.3641-2.684 1.7462-4.0128 0.38805-1.3347 0.58208-2.6811 0.58208-4.0393s-0.19403-2.6987-0.58208-4.0217c-0.38218-1.3229-0.96426-2.6605-1.7462-4.0128"/>
  <path id="path3153" style="" d="m191.95 501.58v5.9619h-1.6228v-5.909c0-0.93485-0.18227-1.6345-0.5468-2.099-0.36455-0.46449-0.91135-0.69673-1.6404-0.69674-0.87606 0.00001-1.5669 0.27929-2.0726 0.83785-0.50565 0.55857-0.75848 1.32-0.75847 2.2842v5.5827h-1.6316v-13.723h1.6316v5.3799c0.38805-0.59384 0.84372-1.0378 1.367-1.3317 0.52916-0.29397 1.1377-0.44096 1.8256-0.44097 1.1348 0.00001 1.9932 0.35279 2.5753 1.0583 0.58207 0.69969 0.87311 1.7316 0.87312 3.0956"/>
  <path id="path3155" style="" d="m203.65 502.19v0.79375h-7.4612c0.0705 1.1171 0.40569 1.9697 1.0054 2.5576 0.6056 0.58208 1.4464 0.87312 2.5224 0.87312 0.62323 0 1.2259-0.0764 1.808-0.2293 0.58795-0.15287 1.17-0.38218 1.7462-0.68792v1.5346c-0.58209 0.24695-1.1789 0.4351-1.7903 0.56445-0.61149 0.12935-1.2318 0.19402-1.8609 0.19403-1.5758-0.00001-2.8252-0.45862-3.7483-1.3758-0.91722-0.91722-1.3758-2.1578-1.3758-3.7218 0-1.6169 0.43509-2.8986 1.3053-3.8453 0.87606-0.95249 2.0549-1.4287 3.5366-1.4288 1.3288 0.00001 2.3783 0.42922 3.1485 1.2876 0.7761 0.85255 1.1642 2.0138 1.1642 3.4837m-1.6228-0.47624c-0.0118-0.88782-0.26165-1.5963-0.74965-2.1255-0.48214-0.52916-1.123-0.79374-1.9226-0.79375-0.90546 0.00001-1.6316 0.25577-2.1784 0.76729-0.54092 0.51154-0.85254 1.2318-0.93486 2.1608l5.7856-0.009"/>
  <path id="path3157" style="" d="m206.31 493.82h1.6228v13.723h-1.6228v-13.723"/>
  <path id="path3159" style="" d="m211.32 493.82h1.6228v13.723h-1.6228v-13.723"/>
  <path id="path3161" style="" d="m220.16 498.8c-0.87019 0.00001-1.5581 0.34103-2.0638 1.0231-0.50565 0.67616-0.75847 1.6051-0.75847 2.7869s0.24988 2.1137 0.74965 2.7958c0.50564 0.67616 1.1965 1.0142 2.0726 1.0142 0.8643 0 1.5493-0.34101 2.0549-1.023 0.50563-0.68203 0.75846-1.611 0.75847-2.7869-0.00001-1.17-0.25284-2.0961-0.75847-2.7781-0.50566-0.68791-1.1906-1.0319-2.0549-1.0319m0-1.3758c1.4111 0.00001 2.5194 0.45862 3.3249 1.3758 0.8055 0.91723 1.2083 2.1872 1.2083 3.81-0.00001 1.6169-0.40277 2.8869-1.2083 3.81-0.80551 0.91722-1.9138 1.3758-3.3249 1.3758-1.417-0.00001-2.5282-0.45862-3.3338-1.3758-0.79963-0.9231-1.1994-2.1931-1.1994-3.81 0-1.6228 0.39981-2.8928 1.1994-3.81 0.80551-0.91721 1.9168-1.3758 3.3338-1.3758m1.2259-4.3303h1.7551l-2.8751 3.3161h-1.3494l2.4694-3.3161"/>
  <path id="path3163" style="" d="m227.17 494.37 4.5861 14.843h-1.4993l-4.5861-14.843h1.4993"/>
  <path id="path3165" style="" d="m237.52 495.54c-0.91723 0.00001-1.6081 0.45274-2.0726 1.3582-0.45862 0.8996-0.68792 2.2548-0.68792 4.0658 0 1.805 0.2293 3.1603 0.68792 4.0658 0.46448 0.89959 1.1553 1.3494 2.0726 1.3494 0.92309 0 1.6139-0.44979 2.0726-1.3494 0.46448-0.90546 0.69673-2.2607 0.69674-4.0658-0.00001-1.8109-0.23226-3.1662-0.69674-4.0658-0.45862-0.90545-1.1495-1.3582-2.0726-1.3582m0-1.4111c1.4758 0.00002 2.6017 0.58504 3.3778 1.7551 0.78198 1.1642 1.173 2.8575 1.173 5.08-0.00001 2.2166-0.391 3.91-1.173 5.08-0.77612 1.1642-1.9021 1.7462-3.3778 1.7462-1.4758-0.00001-2.6047-0.58209-3.3867-1.7462-0.77611-1.17-1.1642-2.8634-1.1642-5.08 0-2.2225 0.38805-3.9158 1.1642-5.08 0.78199-1.17 1.9109-1.755 3.3867-1.7551"/>
  <path id="path3167" style="" d="m245.21 505.3h1.8609v2.2401h-1.8609v-2.2401"/>
  <path id="path3169" style="" d="m250.96 505.3h1.8609v2.2401h-1.8609v-2.2401"/>
  <path id="path3171" style="" d="m256.71 505.3h1.8609v2.2401h-1.8609v-2.2401"/>
  <path id="path3173" style="" d="m262.46 505.3h1.8609v2.2401h-1.8609v-2.2401"/>
  <path id="path3175" style="" d="m268.21 505.3h1.8609v2.2401h-1.8609v-2.2401"/>
  <path id="path3177" style="" d="m273.96 505.3h1.8609v2.2401h-1.8609v-2.2401"/>
 </g>
 <g id="text80">
  <path id="path3180" style="" d="m170.66 454.37v-3.5366h-2.9104v-1.464h4.6743v5.6533c-0.68793 0.48801-1.4464 0.85842-2.2754 1.1112-0.82904 0.24694-1.7139 0.37041-2.6546 0.37041-2.0579 0-3.6689-0.59972-4.833-1.7992-1.1583-1.2053-1.7374-2.881-1.7374-5.0271 0-2.1519 0.57914-3.8276 1.7374-5.0271 1.1642-1.2053 2.7752-1.808 4.833-1.808 0.85841 0.00001 1.6727 0.10585 2.443 0.3175 0.7761 0.21168 1.4905 0.5233 2.1431 0.93486v1.8962c-0.65853-0.55855-1.3582-0.97895-2.099-1.2612-0.74085-0.28221-1.5199-0.42332-2.3372-0.42333-1.611 0.00001-2.8222 0.4498-3.6336 1.3494-0.80551 0.89959-1.2083 2.2401-1.2083 4.0217-0.00001 1.7756 0.40275 3.1133 1.2083 4.0128 0.81138 0.89959 2.0226 1.3494 3.6336 1.3494 0.62911 0 1.1906-0.0529 1.6845-0.15875 0.49388-0.11171 0.93779-0.28222 1.3317-0.51153"/>
  <path id="path3182" style="" d="m175.61 442.53h1.6228v13.723h-1.6228v-13.723"/>
  <path id="path3184" style="" d="m184.45 447.51c-0.87019 0.00001-1.5581 0.34103-2.0638 1.0231-0.50565 0.67616-0.75847 1.6051-0.75847 2.7869s0.24988 2.1137 0.74965 2.7958c0.50564 0.67616 1.1965 1.0142 2.0726 1.0142 0.8643 0 1.5493-0.34101 2.0549-1.023 0.50564-0.68204 0.75846-1.611 0.75847-2.7869-0.00001-1.17-0.25283-2.0961-0.75847-2.7781-0.50566-0.6879-1.1906-1.0319-2.0549-1.0319m0-1.3758c1.4111 0.00001 2.5194 0.45862 3.3249 1.3758 0.8055 0.91723 1.2083 2.1872 1.2083 3.81-0.00001 1.6169-0.40277 2.8869-1.2083 3.81-0.80551 0.91722-1.9138 1.3758-3.3249 1.3758-1.417 0-2.5282-0.45861-3.3338-1.3758-0.79963-0.9231-1.1994-2.1931-1.1994-3.81 0-1.6228 0.39981-2.8928 1.1994-3.81 0.80551-0.91721 1.9168-1.3758 3.3338-1.3758"/>
  <path id="path3186" style="" d="m198.75 451.32c-0.00001-1.1936-0.24695-2.1284-0.74083-2.8046-0.48802-0.68203-1.1612-1.023-2.0196-1.0231-0.85843 0.00001-1.5346 0.34103-2.0285 1.0231-0.48802 0.67616-0.73202 1.611-0.73202 2.8046s0.244 2.1314 0.73202 2.8134c0.49388 0.67615 1.17 1.0142 2.0285 1.0142 0.85841 0 1.5316-0.33808 2.0196-1.0142 0.49388-0.68204 0.74082-1.6198 0.74083-2.8134m-5.521-3.4484c0.34102-0.58796 0.77023-1.023 1.2876-1.3053 0.52328-0.28809 1.1465-0.43214 1.8697-0.43215 1.1994 0.00001 2.1725 0.47626 2.9192 1.4288 0.75259 0.9525 1.1289 2.2049 1.1289 3.7571-0.00001 1.5522-0.3763 2.8046-1.1289 3.7571-0.74672 0.95249-1.7198 1.4287-2.9192 1.4287-0.7232 0-1.3464-0.14111-1.8697-0.42333-0.51741-0.2881-0.94662-0.72613-1.2876-1.3141v1.4817h-1.6316v-13.723h1.6316v5.3446"/>
  <path id="path3188" style="" d="m207.62 451.28c-1.3112 0-2.2196 0.14993-2.7252 0.44979-0.50565 0.29986-0.75848 0.81139-0.75847 1.5346-0.00001 0.57621 0.18814 1.0348 0.56444 1.3758 0.38217 0.33514 0.89958 0.50271 1.5522 0.50271 0.89958 0 1.6198-0.3175 2.1608-0.9525 0.5468-0.64087 0.8202-1.4905 0.82021-2.5488v-0.3616h-1.614m3.2367-0.67028v5.6356h-1.6228v-1.4993c-0.37043 0.59972-0.83198 1.0436-1.3846 1.3317-0.55269 0.28222-1.2288 0.42333-2.0285 0.42333-1.0113 0-1.8168-0.28222-2.4165-0.84666-0.59384-0.57032-0.89076-1.3317-0.89076-2.2842 0-1.1112 0.37041-1.9491 1.1112-2.5135 0.74671-0.56444 1.858-0.84666 3.3337-0.84667h2.2754v-0.15875c-0.00001-0.7467-0.24695-1.3229-0.74083-1.7286-0.48802-0.41156-1.1759-0.61735-2.0638-0.61736-0.56445 0.00001-1.1142 0.0676-1.6492 0.20285-0.53504 0.13524-1.0495 0.33808-1.5434 0.60854v-1.4993c0.59384-0.2293 1.17-0.39981 1.7286-0.51153 0.55856-0.11758 1.1024-0.17638 1.6316-0.17639 1.4287 0.00001 2.4959 0.37043 3.2014 1.1112 0.70555 0.74084 1.0583 1.8638 1.0583 3.369m-2.9633-8.8106h1.7551l-2.8751 3.3161h-1.3494l2.4694-3.3161"/>
  <path id="path3190" style="" d="m214.21 442.53h1.6228v13.723h-1.6228v-13.723"/>
  <path id="path3192" style="" d="m219.22 446.37h1.6228v9.8778h-1.6228v-9.8778m0-3.8453h1.6228v2.0549h-1.6228v-2.0549"/>
  <path id="path3194" style="" d="m230.52 446.66v1.5346c-0.45862-0.23518-0.93487-0.41157-1.4288-0.52917-0.49389-0.11758-1.0054-0.17638-1.5346-0.17639-0.80551 0.00001-1.4111 0.12348-1.8168 0.37042-0.39982 0.24695-0.59973 0.61737-0.59972 1.1112-0.00001 0.3763 0.14404 0.67322 0.43215 0.89076 0.2881 0.21167 0.86724 0.41452 1.7374 0.60854l0.55562 0.12347c1.1524 0.24695 1.9697 0.59679 2.4518 1.0495 0.488 0.44685 0.73201 1.073 0.73202 1.8785-0.00001 0.91723-0.36455 1.6434-1.0936 2.1784-0.7232 0.53504-1.7198 0.80256-2.9898 0.80256-0.52917 0-1.0819-0.0529-1.658-0.15875-0.57033-0.1-1.173-0.25282-1.808-0.45861v-1.6757c0.59972 0.31162 1.1906 0.54681 1.7727 0.70556 0.58208 0.15287 1.1583 0.2293 1.7286 0.2293 0.76434 0 1.3523-0.12935 1.7639-0.38805 0.41157-0.26459 0.61736-0.635 0.61736-1.1112 0-0.44097-0.14993-0.77905-0.44979-1.0142-0.29398-0.23518-0.94368-0.46154-1.9491-0.67909l-0.56445-0.1323c-1.0054-0.21166-1.7316-0.53504-2.1784-0.97013-0.44685-0.44097-0.67027-1.0436-0.67027-1.808 0-0.92897 0.32925-1.6463 0.98777-2.1519 0.65852-0.50564 1.5934-0.75846 2.8046-0.75847 0.59972 0.00001 1.1642 0.0441 1.6933 0.13229 0.52916 0.0882 1.0172 0.2205 1.464 0.39688"/>
 </g>
 <g id="g84" transform="translate(-.095046)">
  <path id="polygon86" fill="#fff" d="m300 260v20h-140v-20l10 10 10-10 20 10 20-10h10l10-10 10 10 20-10 20 20z"/>
  <path id="polygon88" d="m300 260v20h-140v-20l10 10 10-10 20 10 20-10h10l10-10 10 10 20-10 20 20z" stroke="#000" stroke-width="2" fill="none"/>
 </g>
 <g id="g90" transform="translate(-.095046)">
  <path id="polygon92" fill="#fff" d="m300 420v-20h-140v20l10 10 10-10 20 10 20-20 10 10 10-10 10 20 20-20 10 20z"/>
  <path id="polygon94" d="m300 420v-20h-140v20l10 10 10-10 20 10 20-20 10 10 10-10 10 20 20-20 10 20z" stroke="#000" stroke-width="2" fill="none"/>
 </g>
 <path id="line96" d="m159.9 140v-30" stroke="#000" stroke-width="2" fill="none"/>
 <path id="line98" d="m299.9 140v-30" stroke="#000" stroke-width="2" fill="none"/>
</svg>
