<?xml version="1.0" encoding="UTF-8" standalone="no"?>
<!-- Created with Inkscape (http://www.inkscape.org/) -->
<svg id="svg2" xmlns:rdf="http://www.w3.org/1999/02/22-rdf-syntax-ns#" xmlns="http://www.w3.org/2000/svg" height="326.08" width="317.7" version="1.1" xmlns:cc="http://creativecommons.org/ns#" xmlns:dc="http://purl.org/dc/elements/1.1/" viewBox="158 159 173.34389 167.48777">
 <metadata id="metadata56">
  <rdf:RDF>
   <cc:Work rdf:about="">
    <dc:format>image/svg+xml</dc:format>
    <dc:type rdf:resource="http://purl.org/dc/dcmitype/StillImage"/>
   </cc:Work>
  </rdf:RDF>
 </metadata>
 <g id="g4" transform="translate(-1 -9.2974)">
  <path id="rect6" fill="#fff" d="m160 300h140v40h-140z"/>
  <path id="rect8" d="m160 300h140v40h-140z" stroke="#000" stroke-width="2" fill="none"/>
 </g>
 <g id="text10">
  <path id="path3009" style="" d="m198.53 307.07h1.6228v9.8778h-1.6228v-9.8778m0-3.8453h1.6228v2.0549h-1.6228v-2.0549"/>
  <path id="path3011" style="" d="m211.75 310.99v5.9619h-1.6228v-5.909c-0.00001-0.93485-0.18227-1.6345-0.5468-2.099-0.36455-0.46448-0.91135-0.69673-1.6404-0.69674-0.87607 0.00001-1.5669 0.27929-2.0726 0.83785-0.50566 0.55857-0.75848 1.32-0.75848 2.2842v5.5827h-1.6316v-9.8778h1.6316v1.5346c0.38806-0.59383 0.84373-1.0377 1.367-1.3317 0.52916-0.29397 1.1377-0.44096 1.8256-0.44097 1.1348 0.00001 1.9932 0.35278 2.5753 1.0583 0.58208 0.69968 0.87312 1.7316 0.87313 3.0956"/>
  <path id="path3013" style="" d="m216.61 304.27v2.8046h3.3426v1.2612h-3.3426v5.3622c-0.00001 0.80552 0.10877 1.3229 0.32631 1.5522 0.22343 0.22931 0.67322 0.34396 1.3494 0.34396h1.6669v1.3582h-1.6669c-1.2524 0-2.1167-0.23225-2.5929-0.69674-0.47625-0.47037-0.71437-1.3229-0.71437-2.5576v-5.3622h-1.1906v-1.2612h1.1906v-2.8046h1.6316"/>
  <path id="path3015" style="" d="m234.64 305.95-3.1662 1.711 3.1662 1.7198-0.51153 0.86431-2.9633-1.7904v3.3249h-1.0054v-3.3249l-2.9633 1.7904-0.51153-0.86431 3.1662-1.7198-3.1662-1.711 0.51153-0.87312 2.9633 1.7903v-3.3249h1.0054v3.3249l2.9633-1.7903 0.51153 0.87312"/>
  <path id="path3017" style="" d="m238.45 315.47v5.2387h-1.6316v-13.635h1.6316v1.4993c0.34102-0.58795 0.77023-1.023 1.2876-1.3053 0.52328-0.28809 1.1465-0.43214 1.8697-0.43215 1.1994 0.00001 2.1725 0.47625 2.9192 1.4287 0.75258 0.95251 1.1289 2.2049 1.1289 3.7571-0.00001 1.5522-0.37631 2.8046-1.1289 3.7571-0.74672 0.9525-1.7198 1.4288-2.9192 1.4288-0.7232 0-1.3464-0.14111-1.8697-0.42333-0.51741-0.2881-0.94662-0.72614-1.2876-1.3141m5.521-3.4484c-0.00001-1.1936-0.24695-2.1284-0.74083-2.8046-0.48802-0.68203-1.1612-1.023-2.0196-1.023-0.85843 0.00001-1.5346 0.34102-2.0285 1.023-0.48802 0.67617-0.73202 1.611-0.73202 2.8046s0.244 2.1314 0.73202 2.8134c0.49388 0.67616 1.17 1.0142 2.0285 1.0142 0.85841 0 1.5316-0.33808 2.0196-1.0142 0.49388-0.68203 0.74082-1.6198 0.74083-2.8134"/>
  <path id="path3019" style="" d="m249.95 304.27v2.8046h3.3426v1.2612h-3.3426v5.3622c-0.00001 0.80552 0.10877 1.3229 0.32632 1.5522 0.22342 0.22931 0.67321 0.34396 1.3494 0.34396h1.6669v1.3582h-1.6669c-1.2524 0-2.1167-0.23225-2.5929-0.69674-0.47626-0.47037-0.71438-1.3229-0.71438-2.5576v-5.3622h-1.1906v-1.2612h1.1906v-2.8046h1.6316"/>
  <path id="path3021" style="" d="m261.16 308.59c-0.18228-0.10582-0.38219-0.18226-0.59972-0.2293-0.21168-0.0529-0.44686-0.0794-0.70556-0.0794-0.91723 0.00001-1.6228 0.29987-2.1167 0.89958-0.48802 0.59385-0.73202 1.4493-0.73202 2.5665v5.2035h-1.6316v-9.8778h1.6316v1.5346c0.34102-0.59971 0.78493-1.0436 1.3317-1.3317 0.5468-0.29397 1.2112-0.44096 1.9932-0.44097 0.11171 0.00001 0.23518 0.009 0.37042 0.0265 0.13522 0.0118 0.28515 0.0324 0.44979 0.0617l0.009 1.6669"/>
 </g>
 <g id="g14" transform="translate(-1 -9.2974)">
  <path id="rect16" fill="#fff" d="m160 200h140v60h-140z"/>
  <path id="rect18" d="m160 200h140v60h-140z" stroke="#000" stroke-width="2" fill="none"/>
 </g>
 <g id="text20">
  <path id="path3026" style="" d="m194.61 217.07h1.6228v9.8778h-1.6228v-9.8778m0-3.8453h1.6228v2.0549h-1.6228v-2.0549"/>
  <path id="path3028" style="" d="m207.83 220.99v5.9619h-1.6228v-5.909c-0.00001-0.93485-0.18227-1.6345-0.5468-2.099-0.36455-0.46448-0.91135-0.69672-1.6404-0.69673-0.87607 0.00001-1.5669 0.27929-2.0726 0.83785-0.50565 0.55857-0.75848 1.32-0.75847 2.2842v5.5827h-1.6316v-9.8778h1.6316v1.5346c0.38805-0.59384 0.84372-1.0378 1.367-1.3317 0.52916-0.29397 1.1377-0.44096 1.8256-0.44097 1.1348 0.00001 1.9932 0.35279 2.5753 1.0583 0.58208 0.69969 0.87312 1.7316 0.87313 3.0956"/>
  <path id="path3030" style="" d="m212.69 214.27v2.8046h3.3426v1.2612h-3.3426v5.3622c-0.00001 0.80551 0.10877 1.3229 0.32632 1.5522 0.22342 0.22931 0.67321 0.34396 1.3494 0.34396h1.6669v1.3582h-1.6669c-1.2524 0-2.1167-0.23224-2.5929-0.69673-0.47626-0.47037-0.71438-1.3229-0.71438-2.5576v-5.3622h-1.1906v-1.2612h1.1906v-2.8046h1.6316"/>
  <path id="path3032" style="" d="m218.03 213.23h3.7394v1.2612h-2.1167v13.582h2.1167v1.2612h-3.7394v-16.104"/>
  <path id="path3034" style="" d="m225.77 225.45h2.9104v-10.045l-3.1662 0.635v-1.6228l3.1485-0.635h1.7815v11.668h2.9104v1.4993h-7.5847v-1.4993"/>
  <path id="path3036" style="" d="m240.77 214.96c-0.91722 0.00001-1.6081 0.45274-2.0726 1.3582-0.45862 0.8996-0.68792 2.2548-0.68792 4.0658 0 1.805 0.2293 3.1603 0.68792 4.0658 0.46448 0.89959 1.1553 1.3494 2.0726 1.3494 0.9231 0 1.614-0.44979 2.0726-1.3494 0.46448-0.90546 0.69673-2.2607 0.69674-4.0658-0.00001-1.8109-0.23226-3.1662-0.69674-4.0658-0.45862-0.90545-1.1495-1.3582-2.0726-1.3582m0-1.4111c1.4758 0.00001 2.6017 0.58504 3.3778 1.7551 0.78198 1.1642 1.173 2.8575 1.173 5.08-0.00001 2.2166-0.391 3.91-1.173 5.08-0.77612 1.1642-1.9021 1.7462-3.3778 1.7462-1.4758 0-2.6047-0.58208-3.3867-1.7462-0.77611-1.17-1.1642-2.8634-1.1642-5.08 0-2.2225 0.38805-3.9158 1.1642-5.08 0.78199-1.17 1.9109-1.7551 3.3867-1.7551"/>
  <path id="path3038" style="" d="m252.27 214.96c-0.91723 0.00001-1.6081 0.45274-2.0726 1.3582-0.45861 0.8996-0.68792 2.2548-0.68792 4.0658 0 1.805 0.22931 3.1603 0.68792 4.0658 0.46449 0.89959 1.1553 1.3494 2.0726 1.3494 0.92309 0 1.614-0.44979 2.0726-1.3494 0.46448-0.90546 0.69673-2.2607 0.69674-4.0658-0.00001-1.8109-0.23226-3.1662-0.69674-4.0658-0.45861-0.90545-1.1495-1.3582-2.0726-1.3582m0-1.4111c1.4758 0.00001 2.6017 0.58504 3.3778 1.7551 0.78198 1.1642 1.173 2.8575 1.173 5.08-0.00001 2.2166-0.391 3.91-1.173 5.08-0.77612 1.1642-1.9021 1.7462-3.3778 1.7462-1.4758 0-2.6047-0.58208-3.3867-1.7462-0.77611-1.17-1.1642-2.8634-1.1642-5.08 0-2.2225 0.38805-3.9158 1.1642-5.08 0.78199-1.17 1.9109-1.7551 3.3867-1.7551"/>
  <path id="path3040" style="" d="m263.53 213.23v16.104h-3.7394v-1.2612h2.1078v-13.582h-2.1078v-1.2612h3.7394"/>
 </g>
 <g id="text24">
  <path id="path3043" style="" d="m160.77 153.79h1.7815v5.5651l5.909-5.5651h2.2931l-6.5352 6.1383 7.0026 7.0291h-2.346l-6.3235-6.3412v6.3412h-1.7815v-13.167"/>
  <path id="path3045" style="" d="m171.49 163.05v-5.9796h1.6228v5.9178c0 0.93486 0.18227 1.6375 0.54681 2.1078 0.36453 0.46449 0.91134 0.69674 1.6404 0.69674 0.87606 0 1.5669-0.27929 2.0726-0.83785 0.51152-0.55856 0.76728-1.32 0.76729-2.2842v-5.6003h1.6228v9.8778h-1.6228v-1.5169c-0.39394 0.59972-0.85255 1.0466-1.3758 1.3406-0.51741 0.2881-1.1201 0.43215-1.808 0.43215-1.1348 0-1.9961-0.35277-2.5841-1.0583-0.58796-0.70555-0.88194-1.7374-0.88194-3.0956m4.0834-6.2177"/>
  <path id="path3047" style="" d="m184.69 165.47v5.2387h-1.6316v-13.635h1.6316v1.4993c0.34102-0.58795 0.77023-1.023 1.2876-1.3053 0.52328-0.28809 1.1465-0.43214 1.8697-0.43215 1.1994 0.00001 2.1725 0.47626 2.9192 1.4288 0.75258 0.95251 1.1289 2.2049 1.1289 3.7571-0.00001 1.5522-0.37631 2.8046-1.1289 3.7571-0.74672 0.9525-1.7198 1.4287-2.9192 1.4287-0.7232 0-1.3464-0.14111-1.8697-0.42333-0.51741-0.2881-0.94662-0.72613-1.2876-1.3141m5.521-3.4484c-0.00001-1.1936-0.24695-2.1284-0.74083-2.8046-0.48802-0.68203-1.1612-1.023-2.0196-1.0231-0.85843 0.00001-1.5346 0.34103-2.0285 1.0231-0.48802 0.67616-0.73202 1.611-0.73202 2.8046s0.244 2.1314 0.73202 2.8134c0.49388 0.67615 1.17 1.0142 2.0285 1.0142 0.85841 0 1.5316-0.33808 2.0196-1.0142 0.49388-0.68204 0.74082-1.6198 0.74083-2.8134"/>
  <path id="path3049" style="" d="m199.08 161.99c-1.3112 0-2.2196 0.14993-2.7252 0.44979-0.50565 0.29987-0.75847 0.81139-0.75847 1.5346 0 0.57621 0.18815 1.0348 0.56445 1.3758 0.38217 0.33514 0.89957 0.50271 1.5522 0.50271 0.89957 0 1.6198-0.3175 2.1608-0.9525 0.54679-0.64087 0.8202-1.4905 0.8202-2.5488v-0.3616h-1.614m3.2367-0.67028v5.6356h-1.6228v-1.4993c-0.37042 0.59972-0.83197 1.0436-1.3846 1.3317-0.55269 0.28222-1.2288 0.42333-2.0285 0.42333-1.0113 0-1.8168-0.28222-2.4165-0.84666-0.59384-0.57032-0.89076-1.3317-0.89076-2.2842 0-1.1112 0.37041-1.9491 1.1112-2.5135 0.74671-0.56444 1.858-0.84666 3.3338-0.84667h2.2754v-0.15875c0-0.7467-0.24695-1.3229-0.74083-1.7286-0.48801-0.41156-1.1759-0.61735-2.0638-0.61736-0.56444 0.00001-1.1142 0.0676-1.6492 0.20285-0.53505 0.13524-1.0495 0.33809-1.5434 0.60854v-1.4993c0.59384-0.2293 1.17-0.39981 1.7286-0.51153 0.55856-0.11758 1.1024-0.17638 1.6316-0.17639 1.4288 0.00001 2.4959 0.37043 3.2015 1.1112 0.70554 0.74084 1.0583 1.8638 1.0583 3.369"/>
  <path id="path3051" style="" d="m212.77 157.45v1.5169c-0.45862-0.25281-0.92017-0.44096-1.3846-0.56444-0.45862-0.12934-0.92311-0.19402-1.3935-0.19403-1.0525 0.00001-1.8697 0.33515-2.4518 1.0054-0.58209 0.6644-0.87313 1.5993-0.87313 2.8046s0.29104 2.1431 0.87313 2.8134c0.58207 0.6644 1.3993 0.99659 2.4518 0.99659 0.47036 0 0.93485-0.0617 1.3935-0.18521 0.46448-0.12935 0.92603-0.32043 1.3846-0.57326v1.4993c-0.45274 0.21166-0.92311 0.37041-1.4111 0.47624-0.48214 0.10584-0.9966 0.15875-1.5434 0.15875-1.4876 0-2.6694-0.46743-3.5454-1.4023-0.87607-0.93485-1.3141-2.196-1.3141-3.7835 0-1.611 0.44097-2.8781 1.3229-3.8012 0.88782-0.92309 2.102-1.3846 3.6424-1.3846 0.49976 0.00001 0.98777 0.0529 1.464 0.15875 0.47624 0.1 0.93779 0.25283 1.3846 0.45861"/>
 </g>
 <g id="g28" transform="translate(-1 -9.2974)">
  <path id="path30" d="m300 320c40 0 40-90 9.736-90" stroke="#000" stroke-width="2" fill="none"/>
  <path id="polygon32" d="m309.74 230 2.5 5-10-5 10-5z"/>
  <path id="polygon34" d="m309.74 230 2.5 5-10-5 10-5z" stroke="#000" stroke-width="2" fill="none"/>
 </g>
 <path id="line36" d="m199 200.7 60 40" stroke="#f00" stroke-width="2" fill="none"/>
 <path id="line38" d="m199 240.7 60-40" stroke="#f00" stroke-width="2" fill="none"/>
 <g id="g40" transform="translate(-1 -9.2974)">
  <path id="polygon42" fill="#fff" d="m300 180v20h-140v-20l10 10 10-10 20 10 20-20 10 10 10-10 10 10 20-10 20 20z"/>
  <path id="polygon44" d="m300 180v20h-140v-20l10 10 10-10 20 10 20-20 10 10 10-10 10 10 20-10 20 20z" stroke="#000" stroke-width="2" fill="none"/>
 </g>
 <g id="g46" transform="translate(-1 -9.2974)">
  <path id="polygon48" fill="#fff" d="m300 270v-10h-140v10l10 10 10-10 20 10 20-10 10 10 10-10 10 10 20-10 10 10z"/>
  <path id="polygon50" d="m300 270v-10h-140v10l10 10 10-10 20 10 20-10 10 10 10-10 10 10 20-10 10 10z" stroke="#000" stroke-width="2" fill="none"/>
 </g>
</svg>
