<?xml version="1.0" encoding="UTF-8" standalone="no"?>
<!-- Created with Inkscape (http://www.inkscape.org/) -->
<svg id="svg2" xmlns:rdf="http://www.w3.org/1999/02/22-rdf-syntax-ns#" xmlns="http://www.w3.org/2000/svg" height="224.89" width="317.05" version="1.1" xmlns:cc="http://creativecommons.org/ns#" xmlns:dc="http://purl.org/dc/elements/1.1/" viewBox="269 129 171.99999 111.52272">
 <metadata id="metadata42">
  <rdf:RDF>
   <cc:Work rdf:about="">
    <dc:format>image/svg+xml</dc:format>
    <dc:type rdf:resource="http://purl.org/dc/dcmitype/StillImage"/>
   </cc:Work>
  </rdf:RDF>
 </metadata>
 <g id="g4" transform="translate(0 -5.2386)">
  <path id="rect6" fill="#fff" d="m270 130h150v40h-150z"/>
  <path id="rect8" d="m270 130h150v40h-150z" stroke="#000" stroke-width="2" fill="none"/>
 </g>
 <g id="text10">
  <path id="path3002" style="" d="m281.74 138.23h3.272v1.1035h-1.8521v11.884h1.8521v1.1035h-3.272v-14.091"/>
  <path id="path3004" style="" d="m291.58 139.74c-0.80257 0.00001-1.4071 0.39615-1.8135 1.1884-0.40129 0.78714-0.60193 1.973-0.60193 3.5575 0 1.5794 0.20064 2.7653 0.60193 3.5575 0.40642 0.78713 1.0109 1.1807 1.8135 1.1807 0.80771 0 1.4122-0.39357 1.8135-1.1807 0.40643-0.79228 0.60964-1.9781 0.60965-3.5575-0.00001-1.5845-0.20322-2.7704-0.60965-3.5575-0.40129-0.79227-1.0058-1.1884-1.8135-1.1884m0-1.2347c1.2913 0.00001 2.2765 0.5119 2.9556 1.5357 0.68423 1.0186 1.0264 2.5003 1.0264 4.445-0.00001 1.9396-0.34213 3.4212-1.0264 4.445-0.6791 1.0186-1.6643 1.528-2.9556 1.528s-2.2791-0.50932-2.9633-1.528c-0.6791-1.0238-1.0186-2.5054-1.0186-4.445 0-1.9447 0.33955-3.4263 1.0186-4.445 0.68423-1.0238 1.672-1.5357 2.9633-1.5357"/>
  <path id="path3006" style="" d="m301.42 138.23v14.091h-3.272v-1.1035h1.8444v-11.884h-1.8444v-1.1035h3.272"/>
  <path id="path3008" style="" d="m304.64 148.28h1.6283v1.9601h-1.6283v-1.9601m0-6.2122h1.6283v1.9601h-1.6283v-1.9601"/>
  <path id="path3010" style="" d="m321.83 145.02v5.2167h-1.4199v-5.1704c0-0.818-0.15949-1.4302-0.47845-1.8366-0.31898-0.40642-0.79743-0.60963-1.4354-0.60964-0.76656 0.00001-1.3711 0.24438-1.8135 0.73312-0.44245 0.48875-0.66367 1.155-0.66367 1.9987v4.8848h-1.4276v-12.008h1.4276v4.7074c0.33955-0.5196 0.73826-0.90803 1.1961-1.1653 0.46301-0.25722 0.99548-0.38584 1.5974-0.38585 0.99291 0.00001 1.744 0.30869 2.2534 0.92604 0.50931 0.61222 0.76397 1.5151 0.76398 2.7087"/>
  <path id="path3012" style="" d="m332.07 145.56v0.69453h-6.5286c0.0617 0.97748 0.35498 1.7235 0.87974 2.2379 0.5299 0.50933 1.2656 0.76399 2.2071 0.76399 0.54533 0 1.0726-0.0669 1.582-0.20065 0.51446-0.13376 1.0238-0.3344 1.528-0.60192v1.3428c-0.50933 0.21607-1.0315 0.3807-1.5666 0.49388-0.53505 0.11319-1.0778 0.16978-1.6283 0.16978-1.3788 0-2.472-0.40129-3.2797-1.2038-0.80257-0.80257-1.2038-1.8881-1.2038-3.2566 0-1.4148 0.3807-2.5363 1.1421-3.3646 0.76656-0.83343 1.7981-1.2502 3.0945-1.2502 1.1627 0.00001 2.081 0.37557 2.755 1.1267 0.67909 0.74599 1.0186 1.7621 1.0186 3.0482m-1.4199-0.41672c-0.0103-0.77684-0.22894-1.3968-0.65594-1.8598-0.42187-0.46301-0.98264-0.69452-1.6823-0.69453-0.79228 0.00001-1.4276 0.2238-1.9061 0.67138-0.47331 0.44759-0.74597 1.0778-0.818 1.8907l5.0624-0.008"/>
  <path id="path3014" style="" d="m334.4 138.23h1.4199v12.008h-1.4199v-12.008"/>
  <path id="path3016" style="" d="m338.79 138.23h1.4199v12.008h-1.4199v-12.008"/>
  <path id="path3018" style="" d="m346.52 142.59c-0.76142 0.00001-1.3633 0.2984-1.8058 0.89518-0.44244 0.59164-0.66366 1.4045-0.66366 2.4386s0.21865 1.8495 0.65594 2.4463c0.44244 0.59164 1.0469 0.88746 1.8135 0.88746 0.75626 0 1.3556-0.29839 1.7981-0.89518 0.44243-0.59677 0.66365-1.4096 0.66366-2.4386-0.00001-1.0238-0.22123-1.8341-0.66366-2.4309-0.44245-0.60192-1.0418-0.90288-1.7981-0.90289m0-1.2038c1.2347 0.00001 2.2045 0.4013 2.9093 1.2038 0.70481 0.80258 1.0572 1.9138 1.0572 3.3338-0.00001 1.4148-0.35242 2.526-1.0572 3.3337-0.70482 0.80256-1.6746 1.2038-2.9093 1.2038-1.2399 0-2.2122-0.40129-2.917-1.2038-0.69967-0.80771-1.0495-1.919-1.0495-3.3337 0-1.4199 0.34984-2.5312 1.0495-3.3338 0.70482-0.80255 1.6772-1.2038 2.917-1.2038"/>
  <path id="path3020" style="" d="m356.85 141.59h1.5048l2.7009 7.254 2.701-7.254h1.5048l-3.2411 8.643h-1.9292l-3.2411-8.643"/>
  <path id="path3022" style="" d="m367.22 141.59h1.4199v8.643h-1.4199v-8.643m0-3.3646h1.4199v1.7981h-1.4199v-1.7981"/>
  <path id="path3024" style="" d="m371.6 138.23h1.4199v12.008h-1.4199v-12.008"/>
  <path id="path3026" style="" d="m379.91 145.89c-1.1473 0-1.9421 0.13119-2.3846 0.39356-0.44244 0.26239-0.66366 0.70997-0.66366 1.3428 0 0.50418 0.16463 0.90546 0.49389 1.2038 0.3344 0.29325 0.78713 0.43987 1.3582 0.43987 0.78713 0 1.4174-0.27781 1.8907-0.83344 0.47845-0.56076 0.71768-1.3042 0.71768-2.2302v-0.31639h-1.4122m2.8321-0.58649v4.9312h-1.4199v-1.3119c-0.32412 0.52475-0.72797 0.91317-1.2116 1.1653-0.48361 0.24694-1.0752 0.37042-1.7749 0.37042-0.88489 0-1.5897-0.24695-2.1145-0.74083-0.51961-0.49904-0.77942-1.1653-0.77941-1.9987-0.00001-0.97233 0.32411-1.7054 0.97234-2.1993 0.65337-0.49388 1.6257-0.74082 2.917-0.74083h1.991v-0.13891c0-0.65336-0.21608-1.1575-0.64822-1.5125-0.42702-0.36011-1.0289-0.54018-1.8058-0.54019-0.49389 0.00001-0.97492 0.0592-1.4431 0.1775-0.46816 0.11833-0.91832 0.29582-1.3505 0.53247v-1.3119c0.51961-0.20063 1.0238-0.34983 1.5125-0.44759 0.48874-0.10288 0.96462-0.15433 1.4276-0.15434 1.2502 0.00001 2.1839 0.32413 2.8013 0.97234 0.61735 0.64824 0.92603 1.6309 0.92604 2.9479"/>
  <path id="path3028" style="" d="m391.36 145.81c-0.00001-1.0289-0.21351-1.8264-0.64051-2.3923-0.42187-0.56591-1.0161-0.84886-1.7826-0.84887-0.76142 0.00001-1.3556 0.28296-1.7826 0.84887-0.42186 0.56592-0.6328 1.3633-0.63279 2.3923-0.00001 1.0238 0.21093 1.8186 0.63279 2.3846 0.427 0.56591 1.0212 0.84887 1.7826 0.84887 0.76654 0 1.3608-0.28296 1.7826-0.84887 0.427-0.56591 0.6405-1.3608 0.64051-2.3846m1.4199 3.3492c-0.00001 1.4714-0.3267 2.5646-0.98006 3.2797-0.65338 0.72025-1.654 1.0804-3.0019 1.0804-0.49904 0-0.96977-0.0386-1.4122-0.11575-0.44244-0.072-0.87202-0.18521-1.2887-0.33955v-1.3813c0.41672 0.22636 0.82829 0.39356 1.2347 0.5016 0.40643 0.10804 0.82057 0.16206 1.2424 0.16206 0.93118 0 1.6283-0.24437 2.0913-0.73311 0.46301-0.4836 0.69452-1.2167 0.69453-2.1994v-0.70224c-0.29325 0.50932-0.66881 0.89002-1.1267 1.1421-0.45788 0.25209-1.0058 0.37813-1.6437 0.37813-1.0598 0-1.9138-0.40385-2.562-1.2116-0.64823-0.80771-0.97234-1.8778-0.97234-3.2103 0-1.3376 0.32411-2.4103 0.97234-3.218 0.64822-0.8077 1.5022-1.2116 2.562-1.2116 0.63793 0.00001 1.1858 0.12606 1.6437 0.37814 0.45787 0.25209 0.83343 0.6328 1.1267 1.1421v-1.3119h1.4199v7.5704"/>
  <path id="path3030" style="" d="m395.53 138.71 4.0128 12.988h-1.3119l-4.0128-12.988h1.3119"/>
  <path id="path3032" style="" d="m404.58 139.74c-0.80258 0.00001-1.4071 0.39615-1.8135 1.1884-0.40128 0.78714-0.60192 1.973-0.60192 3.5575 0 1.5794 0.20064 2.7653 0.60192 3.5575 0.40643 0.78713 1.0109 1.1807 1.8135 1.1807 0.8077 0 1.4122-0.39357 1.8135-1.1807 0.40642-0.79228 0.60963-1.9781 0.60964-3.5575-0.00001-1.5845-0.20322-2.7704-0.60964-3.5575-0.40129-0.79227-1.0058-1.1884-1.8135-1.1884m0-1.2347c1.2913 0.00001 2.2765 0.5119 2.9556 1.5357 0.68424 1.0186 1.0264 2.5003 1.0264 4.445 0 1.9396-0.34212 3.4212-1.0264 4.445-0.6791 1.0186-1.6643 1.528-2.9556 1.528s-2.2791-0.50932-2.9633-1.528c-0.6791-1.0238-1.0186-2.5054-1.0186-4.445 0-1.9447 0.33954-3.4263 1.0186-4.445 0.68424-1.0238 1.672-1.5357 2.9633-1.5357"/>
 </g>
 <g id="g14" transform="translate(0 -5.2386)">
  <path id="rect16" fill="#fff" d="m270 170h150v40h-150z"/>
  <path id="rect18" d="m270 170h150v40h-150z" stroke="#000" stroke-width="2" fill="none"/>
 </g>
 <g id="text20">
  <path id="path3037" style="" d="m282.48 178.23h3.272v1.1035h-1.8521v11.884h1.8521v1.1035h-3.272v-14.091"/>
  <path id="path3039" style="" d="m289.25 188.92h2.5466v-8.7897l-2.7704 0.55562v-1.4199l2.755-0.55563h1.5588v10.21h2.5466v1.3119h-6.6366v-1.3119"/>
  <path id="path3041" style="" d="m302.16 178.23v14.091h-3.272v-1.1035h1.8444v-11.884h-1.8444v-1.1035h3.272"/>
  <path id="path3043" style="" d="m305.38 188.28h1.6283v1.9601h-1.6283v-1.9601m0-6.2122h1.6283v1.9601h-1.6283v-1.9601"/>
  <path id="path3045" style="" d="m319.32 185.89c-1.1473 0-1.9421 0.13119-2.3846 0.39356-0.44244 0.26239-0.66366 0.70997-0.66366 1.3428 0 0.50418 0.16462 0.90546 0.49389 1.2038 0.33439 0.29325 0.78712 0.43987 1.3582 0.43987 0.78712 0 1.4173-0.27781 1.8907-0.83344 0.47845-0.56076 0.71767-1.3042 0.71768-2.2302v-0.31639h-1.4122m2.8321-0.58649v4.9312h-1.4199v-1.3119c-0.32412 0.52475-0.72798 0.91317-1.2116 1.1653-0.4836 0.24694-1.0752 0.37042-1.7749 0.37042-0.88488 0-1.5897-0.24695-2.1144-0.74083-0.51961-0.49904-0.77942-1.1653-0.77942-1.9987 0-0.97233 0.32411-1.7054 0.97234-2.1993 0.65337-0.49388 1.6257-0.74082 2.917-0.74083h1.991v-0.13891c-0.00001-0.65336-0.21608-1.1575-0.64823-1.5125-0.42701-0.36011-1.0289-0.54018-1.8058-0.54019-0.4939 0.00001-0.97492 0.0592-1.4431 0.1775-0.46817 0.11833-0.91833 0.29582-1.3505 0.53247v-1.3119c0.51961-0.20063 1.0238-0.34983 1.5125-0.44759 0.48874-0.10288 0.96462-0.15433 1.4276-0.15434 1.2502 0.00001 2.1839 0.32413 2.8013 0.97234 0.61735 0.64824 0.92603 1.6309 0.92604 2.9479"/>
  <path id="path3047" style="" d="m325.08 178.23h1.4199v12.008h-1.4199v-12.008"/>
  <path id="path3049" style="" d="m336.19 183.25c0.35498-0.63793 0.77941-1.1087 1.2733-1.4122 0.49387-0.30353 1.0752-0.4553 1.744-0.45531 0.9003 0.00001 1.5948 0.31641 2.0836 0.94919 0.48873 0.62766 0.7331 1.5228 0.73312 2.6855v5.2167h-1.4276v-5.1704c-0.00001-0.82829-0.14663-1.4431-0.43986-1.8444-0.29326-0.40128-0.74085-0.60192-1.3428-0.60193-0.7357 0.00001-1.317 0.24438-1.744 0.73312-0.42702 0.48875-0.64052 1.155-0.64051 1.9987v4.8848h-1.4276v-5.1704c-0.00001-0.83343-0.14663-1.4482-0.43987-1.8444-0.29326-0.40128-0.74599-0.60192-1.3582-0.60193-0.72541 0.00001-1.3016 0.24695-1.7286 0.74083-0.42701 0.48875-0.64051 1.1524-0.64051 1.991v4.8848h-1.4276v-8.643h1.4276v1.3428c0.32411-0.52989 0.71253-0.92089 1.1653-1.173 0.45272-0.25208 0.99034-0.37813 1.6128-0.37814 0.62764 0.00001 1.1601 0.1595 1.5974 0.47846 0.44244 0.31897 0.76912 0.78199 0.98006 1.3891"/>
  <path id="path3051" style="" d="m348.8 185.89c-1.1473 0-1.9421 0.13119-2.3846 0.39356-0.44244 0.26239-0.66366 0.70997-0.66366 1.3428 0 0.50418 0.16463 0.90546 0.49389 1.2038 0.3344 0.29325 0.78713 0.43987 1.3582 0.43987 0.78713 0 1.4174-0.27781 1.8907-0.83344 0.47845-0.56076 0.71767-1.3042 0.71768-2.2302v-0.31639h-1.4122m2.8321-0.58649v4.9312h-1.4199v-1.3119c-0.32412 0.52475-0.72797 0.91317-1.2116 1.1653-0.4836 0.24694-1.0752 0.37042-1.7749 0.37042-0.88489 0-1.5897-0.24695-2.1145-0.74083-0.51961-0.49904-0.77942-1.1653-0.77942-1.9987 0-0.97233 0.32412-1.7054 0.97234-2.1993 0.65337-0.49388 1.6257-0.74082 2.917-0.74083h1.991v-0.13891c-0.00001-0.65336-0.21608-1.1575-0.64823-1.5125-0.42701-0.36011-1.0289-0.54018-1.8058-0.54019-0.49389 0.00001-0.97492 0.0592-1.4431 0.1775-0.46817 0.11833-0.91832 0.29582-1.3505 0.53247v-1.3119c0.51961-0.20063 1.0238-0.34983 1.5125-0.44759 0.48874-0.10288 0.96462-0.15433 1.4276-0.15434 1.2502 0.00001 2.1839 0.32413 2.8013 0.97234 0.61735 0.64824 0.92603 1.6309 0.92604 2.9479"/>
  <path id="path3053" style="" d="m358.94 178.23v1.1807h-1.3582c-0.50933 0.00001-0.86431 0.10291-1.065 0.30868-0.1955 0.2058-0.29324 0.57622-0.29324 1.1112v0.76398h2.3382v1.1035h-2.3382v7.5395h-1.4276v-7.5395h-1.3582v-1.1035h1.3582v-0.60192c-0.00001-0.96204 0.22379-1.6617 0.67137-2.099 0.44759-0.44243 1.1576-0.66365 2.1299-0.66367h1.3428"/>
  <path id="path3055" style="" d="m364.05 185.89c-1.1473 0-1.9421 0.13119-2.3846 0.39356-0.44244 0.26239-0.66366 0.70997-0.66366 1.3428 0 0.50418 0.16463 0.90546 0.49389 1.2038 0.3344 0.29325 0.78713 0.43987 1.3582 0.43987 0.78713 0 1.4174-0.27781 1.8907-0.83344 0.47845-0.56076 0.71768-1.3042 0.71768-2.2302v-0.31639h-1.4122m2.8321-0.58649v4.9312h-1.4199v-1.3119c-0.32412 0.52475-0.72797 0.91317-1.2116 1.1653-0.48361 0.24694-1.0752 0.37042-1.7749 0.37042-0.88489 0-1.5897-0.24695-2.1145-0.74083-0.51961-0.49904-0.77942-1.1653-0.77941-1.9987-0.00001-0.97233 0.32411-1.7054 0.97234-2.1993 0.65337-0.49388 1.6257-0.74082 2.917-0.74083h1.991v-0.13891c0-0.65336-0.21608-1.1575-0.64822-1.5125-0.42702-0.36011-1.0289-0.54018-1.8058-0.54019-0.49389 0.00001-0.97492 0.0592-1.4431 0.1775-0.46816 0.11833-0.91832 0.29582-1.3505 0.53247v-1.3119c0.51961-0.20063 1.0238-0.34983 1.5125-0.44759 0.48874-0.10288 0.96462-0.15433 1.4276-0.15434 1.2502 0.00001 2.1839 0.32413 2.8013 0.97234 0.61735 0.64824 0.92603 1.6309 0.92604 2.9479"/>
  <path id="path3057" style="" d="m369.63 178.71 4.0128 12.988h-1.3119l-4.0128-12.988h1.3119"/>
  <path id="path3059" style="" d="m378.68 179.74c-0.80257 0.00001-1.4071 0.39615-1.8135 1.1884-0.40129 0.78714-0.60193 1.973-0.60192 3.5575-0.00001 1.5794 0.20063 2.7653 0.60192 3.5575 0.40643 0.78713 1.0109 1.1807 1.8135 1.1807 0.80771 0 1.4122-0.39357 1.8135-1.1807 0.40642-0.79228 0.60963-1.9781 0.60964-3.5575-0.00001-1.5845-0.20322-2.7704-0.60964-3.5575-0.40129-0.79227-1.0058-1.1884-1.8135-1.1884m0-1.2347c1.2913 0.00001 2.2765 0.5119 2.9556 1.5357 0.68423 1.0186 1.0264 2.5003 1.0264 4.445-0.00001 1.9396-0.34213 3.4212-1.0264 4.445-0.6791 1.0186-1.6643 1.528-2.9556 1.528s-2.2791-0.50932-2.9633-1.528c-0.6791-1.0238-1.0186-2.5054-1.0186-4.445 0-1.9447 0.33954-3.4263 1.0186-4.445 0.68424-1.0238 1.672-1.5357 2.9633-1.5357"/>
  <path id="path3061" style="" d="m385.41 188.28h1.6283v1.9601h-1.6283v-1.9601"/>
  <path id="path3063" style="" d="m390.45 188.28h1.6283v1.9601h-1.6283v-1.9601"/>
  <path id="path3065" style="" d="m395.48 188.28h1.6283v1.9601h-1.6283v-1.9601"/>
  <path id="path3067" style="" d="m400.51 188.28h1.6283v1.9601h-1.6283v-1.9601"/>
  <path id="path3069" style="" d="m405.54 188.28h1.6283v1.9601h-1.6283v-1.9601"/>
 </g>
 <g id="g24" transform="translate(0 -5.2386)">
  <path id="rect26" fill="#fff" d="m270 210h150v40h-150z"/>
  <path id="rect28" d="m270 210h150v40h-150z" stroke="#000" stroke-width="2" fill="none"/>
 </g>
 <g id="text30">
  <path id="path3074" style="" d="m274.39 218.23h3.272v1.1035h-1.8521v11.884h1.8521v1.1035h-3.272v-14.091"/>
  <path id="path3076" style="" d="m282.24 228.92h5.4405v1.3119h-7.3157v-1.3119c0.59164-0.61222 1.3968-1.4328 2.4154-2.4617 1.0238-1.0341 1.6669-1.7003 1.9292-1.9987 0.49902-0.56076 0.84629-1.0341 1.0418-1.4199 0.20064-0.39099 0.30096-0.77427 0.30097-1.1498-0.00001-0.61221-0.21609-1.1112-0.64823-1.4971-0.42701-0.38584-0.98521-0.57877-1.6746-0.57878-0.48875 0.00001-1.0058 0.0849-1.5511 0.25466-0.54019 0.16979-1.119 0.42702-1.7363 0.7717v-1.5743c0.62765-0.25208 1.2141-0.44243 1.7595-0.57106 0.54533-0.1286 1.0444-0.19291 1.4971-0.19292 1.1936 0.00001 2.1453 0.2984 2.8553 0.89517 0.70995 0.59679 1.0649 1.3942 1.0649 2.3923 0 0.47332-0.09 0.92348-0.27009 1.3505-0.17493 0.42187-0.49647 0.9209-0.96462 1.4971-0.12863 0.14921-0.53763 0.58136-1.227 1.2965-0.68939 0.70997-1.6617 1.7055-2.917 2.9865"/>
  <path id="path3078" style="" d="m294.08 218.23v14.091h-3.272v-1.1035h1.8444v-11.884h-1.8444v-1.1035h3.272"/>
  <path id="path3080" style="" d="m297.29 228.28h1.6283v1.9601h-1.6283v-1.9601m0-6.2122h1.6283v1.9601h-1.6283v-1.9601"/>
  <path id="path3082" style="" d="m314.49 225.02v5.2167h-1.4199v-5.1704c-0.00001-0.818-0.1595-1.4302-0.47846-1.8366-0.31897-0.40642-0.79743-0.60963-1.4354-0.60964-0.76656 0.00001-1.371 0.24438-1.8135 0.73312-0.44245 0.48875-0.66367 1.155-0.66366 1.9987v4.8848h-1.4276v-12.008h1.4276v4.7074c0.33954-0.5196 0.73825-0.90803 1.1961-1.1653 0.46302-0.25722 0.99549-0.38584 1.5974-0.38585 0.99291 0.00001 1.744 0.30869 2.2534 0.92604 0.50931 0.61222 0.76397 1.5151 0.76398 2.7087"/>
  <path id="path3084" style="" d="m324.73 225.56v0.69453h-6.5286c0.0617 0.97748 0.35498 1.7235 0.87974 2.2379 0.5299 0.50933 1.2656 0.76399 2.2071 0.76399 0.54533 0 1.0727-0.0669 1.582-0.20065 0.51445-0.13376 1.0238-0.3344 1.528-0.60192v1.3428c-0.50933 0.21607-1.0315 0.3807-1.5666 0.49388-0.53505 0.11319-1.0778 0.16978-1.6283 0.16978-1.3788 0-2.472-0.40129-3.2797-1.2038-0.80257-0.80257-1.2038-1.8881-1.2038-3.2566 0-1.4148 0.38071-2.5363 1.1421-3.3646 0.76655-0.83343 1.798-1.2502 3.0945-1.2502 1.1627 0.00001 2.081 0.37557 2.755 1.1267 0.67908 0.74599 1.0186 1.7621 1.0186 3.0482m-1.4199-0.41672c-0.0103-0.77684-0.22894-1.3968-0.65594-1.8598-0.42187-0.46301-0.98264-0.69452-1.6823-0.69453-0.79229 0.00001-1.4276 0.2238-1.9061 0.67138-0.47331 0.44759-0.74598 1.0778-0.818 1.8907l5.0623-0.008"/>
  <path id="path3086" style="" d="m333.96 221.59-3.1254 4.2058 3.2874 4.4373h-1.6746l-2.5157-3.3955-2.5157 3.3955h-1.6746l3.3569-4.5222-3.0714-4.1209h1.6746l2.292 3.0791 2.2919-3.0791h1.6746"/>
  <path id="path3088" style="" d="m341.82 222.91v-4.6765h1.4199v12.008h-1.4199v-1.2964c-0.2984 0.51447-0.67653 0.89774-1.1344 1.1498-0.45273 0.24694-0.99807 0.37042-1.636 0.37042-1.0444 0-1.8958-0.41672-2.5543-1.2502-0.65338-0.83343-0.98006-1.9292-0.98006-3.2874s0.32668-2.454 0.98006-3.2874c0.65851-0.83343 1.51-1.2502 2.5543-1.2502 0.63793 0.00001 1.1833 0.12606 1.636 0.37814 0.45787 0.24695 0.836 0.62765 1.1344 1.1421m-4.8386 3.0174c-0.00001 1.0444 0.2135 1.8649 0.64051 2.4617 0.43214 0.59163 1.0238 0.88745 1.7749 0.88745 0.75112 0 1.3428-0.29582 1.7749-0.88745 0.43215-0.59678 0.64822-1.4174 0.64823-2.4617-0.00001-1.0444-0.21608-1.8624-0.64823-2.454-0.43215-0.59677-1.0238-0.89516-1.7749-0.89517-0.75112 0.00001-1.3428 0.2984-1.7749 0.89517-0.42701 0.59164-0.64052 1.4096-0.64051 2.454"/>
  <path id="path3090" style="" d="m346.02 226.83v-5.2321h1.4199v5.1781c-0.00001 0.81801 0.15948 1.4328 0.47845 1.8444 0.31897 0.40642 0.79742 0.60964 1.4354 0.60964 0.76655 0 1.371-0.24437 1.8135-0.73312 0.44758-0.48874 0.67137-1.155 0.67138-1.9987v-4.9003h1.4199v8.643h-1.4199v-1.3273c-0.3447 0.52476-0.74598 0.91575-1.2038 1.173-0.45273 0.25209-0.98006 0.37814-1.582 0.37814-0.99293 0-1.7466-0.30868-2.2611-0.92604-0.51447-0.61736-0.7717-1.5202-0.7717-2.7087m3.573-5.4405"/>
  <path id="path3092" style="" d="m362.93 223.25c0.35497-0.63793 0.7794-1.1087 1.2733-1.4122 0.49388-0.30353 1.0752-0.4553 1.744-0.45531 0.9003 0.00001 1.5948 0.31641 2.0836 0.94919 0.48873 0.62766 0.7331 1.5228 0.73311 2.6855v5.2167h-1.4276v-5.1704c-0.00001-0.82829-0.14664-1.4431-0.43987-1.8444-0.29326-0.40128-0.74084-0.60192-1.3428-0.60193-0.73569 0.00001-1.317 0.24438-1.744 0.73312-0.42701 0.48875-0.64051 1.155-0.64051 1.9987v4.8848h-1.4276v-5.1704c-0.00001-0.83343-0.14663-1.4482-0.43987-1.8444-0.29325-0.40128-0.74598-0.60192-1.3582-0.60193-0.7254 0.00001-1.3016 0.24695-1.7286 0.74083-0.42701 0.48875-0.64051 1.1524-0.64051 1.991v4.8848h-1.4276v-8.643h1.4276v1.3428c0.32411-0.52989 0.71254-0.92089 1.1653-1.173 0.45273-0.25208 0.99034-0.37813 1.6128-0.37814 0.62764 0.00001 1.1601 0.1595 1.5974 0.47846 0.44243 0.31897 0.76912 0.78199 0.98006 1.3891"/>
  <path id="path3094" style="" d="m372.97 228.94v4.5839h-1.4276v-11.93h1.4276v1.3119c0.29839-0.51446 0.67395-0.89516 1.1267-1.1421 0.45787-0.25208 1.0032-0.37813 1.636-0.37814 1.0495 0.00001 1.901 0.41673 2.5543 1.2502 0.6585 0.83344 0.98776 1.9292 0.98777 3.2874-0.00001 1.3582-0.32927 2.454-0.98777 3.2874-0.65338 0.83344-1.5048 1.2502-2.5543 1.2502-0.6328 0-1.1781-0.12348-1.636-0.37042-0.45273-0.25209-0.82829-0.63536-1.1267-1.1498m4.8308-3.0173c-0.00001-1.0444-0.21609-1.8624-0.64823-2.454-0.42702-0.59677-1.0161-0.89516-1.7672-0.89517-0.75113 0.00001-1.3428 0.2984-1.7749 0.89517-0.42701 0.59164-0.64051 1.4096-0.64051 2.454s0.2135 1.8649 0.64051 2.4617c0.43215 0.59163 1.0238 0.88745 1.7749 0.88745 0.75111 0 1.3402-0.29582 1.7672-0.88745 0.43214-0.59678 0.64822-1.4174 0.64823-2.4617"/>
  <path id="path3096" style="" d="m382.53 228.28h1.5666v1.9601h-1.5666v-1.9601m0-9.5614h1.5666v5.0546l-0.15434 2.755h-1.2502l-0.16206-2.755v-5.0546"/>
  <path id="path3098" style="" d="m387.78 218.71 4.0128 12.988h-1.3119l-4.0128-12.988h1.3119"/>
  <path id="path3100" style="" d="m396.84 219.74c-0.80258 0.00001-1.4071 0.39615-1.8135 1.1884-0.40128 0.78714-0.60192 1.973-0.60192 3.5575 0 1.5794 0.20064 2.7653 0.60192 3.5575 0.40643 0.78713 1.0109 1.1807 1.8135 1.1807 0.8077 0 1.4122-0.39357 1.8135-1.1807 0.40642-0.79228 0.60963-1.9781 0.60964-3.5575-0.00001-1.5845-0.20322-2.7704-0.60964-3.5575-0.40129-0.79227-1.0058-1.1884-1.8135-1.1884m0-1.2347c1.2913 0.00001 2.2765 0.5119 2.9556 1.5357 0.68424 1.0186 1.0264 2.5003 1.0264 4.445 0 1.9396-0.34212 3.4212-1.0264 4.445-0.6791 1.0186-1.6643 1.528-2.9556 1.528s-2.2791-0.50932-2.9633-1.528c-0.6791-1.0238-1.0186-2.5054-1.0186-4.445 0-1.9447 0.33954-3.4263 1.0186-4.445 0.68424-1.0238 1.672-1.5357 2.9633-1.5357"/>
  <path id="path3102" style="" d="m403.56 228.28h1.6283v1.9601h-1.6283v-1.9601"/>
  <path id="path3104" style="" d="m408.6 228.28h1.6283v1.9601h-1.6283v-1.9601"/>
  <path id="path3106" style="" d="m413.63 228.28h1.6283v1.9601h-1.6283v-1.9601"/>
 </g>
 <path id="path34" d="m430 124.76c10 0 0 60 10 60" stroke="#000" stroke-width="2" fill="none"/>
 <path id="path36" d="m430 244.76c10 0 0-60 10-60" stroke="#000" stroke-width="2" fill="none"/>
</svg>
