<?xml version="1.0" encoding="UTF-8" standalone="no"?>
<!-- Created with Inkscape (http://www.inkscape.org/) -->
<svg id="svg2" xmlns:rdf="http://www.w3.org/1999/02/22-rdf-syntax-ns#" xmlns="http://www.w3.org/2000/svg" height="619.32" width="317.7" version="1.1" xmlns:cc="http://creativecommons.org/ns#" xmlns:dc="http://purl.org/dc/elements/1.1/" viewBox="158 109 173.34389 332.09125">
 <metadata id="metadata74">
  <rdf:RDF>
   <cc:Work rdf:about="">
    <dc:format>image/svg+xml</dc:format>
    <dc:type rdf:resource="http://purl.org/dc/dcmitype/StillImage"/>
   </cc:Work>
  </rdf:RDF>
 </metadata>
 <g id="g4" transform="translate(-1 -6.9957)">
  <path id="rect6" fill="#bfbfbf" d="m160 160h140v80h-140z"/>
  <path id="rect8" d="m160 160h140v80h-140z" stroke="#000" stroke-width="2" fill="none"/>
 </g>
 <g id="text10">
  <path id="path3018" style="" d="m169.75 357.38v-3.5366h-2.9104v-1.464h4.6743v5.6532c-0.68793 0.48801-1.4464 0.85843-2.2754 1.1112-0.82903 0.24694-1.7139 0.37042-2.6546 0.37042-2.0579 0-3.6689-0.59972-4.833-1.7992-1.1583-1.2053-1.7374-2.881-1.7374-5.0271 0-2.1519 0.57915-3.8276 1.7374-5.0271 1.1642-1.2053 2.7752-1.808 4.833-1.808 0.85842 0.00002 1.6728 0.10585 2.443 0.3175 0.7761 0.21168 1.4905 0.5233 2.1431 0.93486v1.8962c-0.65853-0.55855-1.3582-0.97894-2.099-1.2612-0.74084-0.28221-1.5199-0.42332-2.3372-0.42333-1.611 0.00001-2.8222 0.4498-3.6336 1.3494-0.80551 0.8996-1.2083 2.2402-1.2083 4.0217 0 1.7756 0.40276 3.1133 1.2083 4.0128 0.81138 0.89958 2.0226 1.3494 3.6336 1.3494 0.62911 0 1.1906-0.0529 1.6845-0.15875 0.49387-0.11171 0.93778-0.28222 1.3317-0.51153"/>
  <path id="path3020" style="" d="m174.71 345.53h1.6228v13.723h-1.6228v-13.723"/>
  <path id="path3022" style="" d="m183.54 350.51c-0.87018 0.00001-1.5581 0.34103-2.0637 1.0231-0.50565 0.67616-0.75848 1.6051-0.75847 2.7869-0.00001 1.1818 0.24988 2.1137 0.74965 2.7958 0.50564 0.67616 1.1965 1.0142 2.0726 1.0142 0.8643 0 1.5493-0.34102 2.0549-1.0231 0.50564-0.68203 0.75847-1.611 0.75847-2.7869 0-1.17-0.25283-2.0961-0.75847-2.7781-0.50565-0.68791-1.1906-1.0319-2.0549-1.0319m0-1.3758c1.4111 0.00001 2.5194 0.45862 3.3249 1.3758 0.8055 0.91723 1.2082 2.1872 1.2083 3.81-0.00001 1.6169-0.40276 2.8869-1.2083 3.81-0.80551 0.91722-1.9138 1.3758-3.3249 1.3758-1.417 0-2.5282-0.45861-3.3337-1.3758-0.79963-0.9231-1.1994-2.1931-1.1994-3.81-0.00001-1.6228 0.39981-2.8928 1.1994-3.81 0.8055-0.91721 1.9168-1.3758 3.3337-1.3758"/>
  <path id="path3024" style="" d="m197.85 354.32c-0.00001-1.1936-0.24696-2.1284-0.74084-2.8046-0.48801-0.68203-1.1612-1.023-2.0196-1.023-0.85843 0-1.5346 0.34102-2.0285 1.023-0.48801 0.67616-0.73201 1.611-0.73201 2.8046s0.244 2.1314 0.73201 2.8134c0.49389 0.67616 1.17 1.0142 2.0285 1.0142 0.85842 0.00001 1.5316-0.33807 2.0196-1.0142 0.49388-0.68203 0.74083-1.6198 0.74084-2.8134m-5.521-3.4484c0.34102-0.58795 0.77023-1.023 1.2876-1.3053 0.52328-0.2881 1.1465-0.43215 1.8697-0.43216 1.1994 0.00001 2.1725 0.47626 2.9192 1.4288 0.75258 0.95251 1.1289 2.2049 1.1289 3.7571-0.00001 1.5522-0.37631 2.8046-1.1289 3.7571-0.74672 0.9525-1.7198 1.4288-2.9192 1.4288-0.7232 0-1.3464-0.14111-1.8697-0.42334-0.51741-0.2881-0.94662-0.72613-1.2876-1.3141v1.4817h-1.6316v-13.723h1.6316v5.3446"/>
  <path id="path3026" style="" d="m206.71 354.29c-1.3112 0.00001-2.2196 0.14994-2.7252 0.44979-0.50565 0.29987-0.75847 0.81139-0.75847 1.5346 0 0.57621 0.18815 1.0348 0.56445 1.3758 0.38217 0.33514 0.89957 0.50271 1.5522 0.5027 0.89957 0.00001 1.6198-0.31749 2.1608-0.95249 0.5468-0.64088 0.8202-1.4905 0.82021-2.5488v-0.3616h-1.614m3.2367-0.67027v5.6356h-1.6228v-1.4993c-0.37043 0.59972-0.83198 1.0436-1.3847 1.3317-0.55269 0.28223-1.2288 0.42334-2.0285 0.42334-1.0113 0-1.8168-0.28222-2.4165-0.84667-0.59384-0.57032-0.89076-1.3317-0.89076-2.2842 0-1.1112 0.37041-1.9491 1.1112-2.5135 0.7467-0.56444 1.858-0.84666 3.3337-0.84667h2.2754v-0.15875c-0.00001-0.7467-0.24696-1.3229-0.74084-1.7286-0.48801-0.41156-1.1759-0.61735-2.0637-0.61736-0.56445 0.00001-1.1142 0.0676-1.6492 0.20285-0.53505 0.13524-1.0495 0.33809-1.5434 0.60854v-1.4993c0.59384-0.2293 1.17-0.39981 1.7286-0.51153 0.55856-0.11758 1.1024-0.17638 1.6316-0.17639 1.4288 0.00001 2.4959 0.37043 3.2015 1.1112 0.70554 0.74084 1.0583 1.8638 1.0583 3.369m-2.9633-8.8106h1.7551l-2.8751 3.3161h-1.3494l2.4694-3.3161"/>
  <path id="path3028" style="" d="m213.3 345.53h1.6228v13.723h-1.6228v-13.723"/>
  <path id="path3030" style="" d="m218.31 349.38h1.6228v9.8778h-1.6228v-9.8778m0-3.8453h1.6228v2.0549h-1.6228v-2.0549"/>
  <path id="path3032" style="" d="m229.62 349.67v1.5346c-0.45862-0.23518-0.93487-0.41156-1.4288-0.52917-0.4939-0.11758-1.0054-0.17638-1.5346-0.17638-0.80551 0-1.4111 0.12348-1.8168 0.37041-0.39981 0.24695-0.59972 0.61737-0.59972 1.1112 0 0.3763 0.14405 0.67322 0.43216 0.89076 0.28809 0.21168 0.86724 0.41452 1.7374 0.60854l0.55563 0.12348c1.1524 0.24695 1.9697 0.59678 2.4518 1.0495 0.488 0.44685 0.732 1.073 0.73201 1.8785-0.00001 0.91722-0.36454 1.6434-1.0936 2.1784-0.7232 0.53504-1.7198 0.80257-2.9898 0.80257-0.52917 0-1.0819-0.0529-1.6581-0.15875-0.57032-0.1-1.173-0.25283-1.808-0.45861v-1.6757c0.59972 0.31163 1.1906 0.54681 1.7727 0.70556 0.58208 0.15287 1.1583 0.22931 1.7286 0.2293 0.76435 0.00001 1.3523-0.12935 1.7639-0.38805 0.41157-0.26458 0.61735-0.635 0.61736-1.1112-0.00001-0.44097-0.14994-0.77905-0.44979-1.0142-0.29399-0.23519-0.94369-0.46155-1.9491-0.6791l-0.56444-0.13229c-1.0054-0.21166-1.7316-0.53504-2.1784-0.97014-0.44685-0.44097-0.67028-1.0436-0.67028-1.808 0-0.92898 0.32926-1.6463 0.98778-2.152 0.65852-0.50563 1.5934-0.75846 2.8046-0.75847 0.59972 0.00001 1.1642 0.0441 1.6933 0.13229 0.52916 0.0882 1.0172 0.2205 1.464 0.39688"/>
 </g>
 <g id="g14" transform="translate(-1 -6.9957)">
  <path id="rect16" fill="#fff" d="m160 370h140v80h-140z"/>
  <path id="rect18" d="m160 370h140v80h-140z" stroke="#000" stroke-width="2" fill="none"/>
 </g>
 <g id="g20" transform="translate(-1 -6.9957)">
  <path id="rect22" fill="#fff" d="m160 290h140v50h-140z"/>
  <path id="rect24" d="m160 290h140v50h-140z" stroke="#000" stroke-width="2" fill="none"/>
 </g>
 <g id="text26">
  <path id="path3039" style="" d="m210.7 293.09h1.6228v9.8778h-1.6228v-9.8778m0-3.8453h1.6228v2.0549h-1.6228v-2.0549"/>
  <path id="path3041" style="" d="m223.92 297v5.9619h-1.6228v-5.909c-0.00001-0.93485-0.18228-1.6345-0.5468-2.099-0.36455-0.46449-0.91135-0.69673-1.6404-0.69674-0.87607 0.00001-1.5669 0.27929-2.0726 0.83785-0.50565 0.55857-0.75847 1.32-0.75847 2.2842v5.5827h-1.6316v-9.8778h1.6316v1.5346c0.38805-0.59384 0.84372-1.0378 1.367-1.3317 0.52917-0.29397 1.1377-0.44096 1.8256-0.44097 1.1348 0.00001 1.9932 0.35279 2.5753 1.0583 0.58208 0.69969 0.87312 1.7316 0.87313 3.0956"/>
  <path id="path3043" style="" d="m228.78 290.28v2.8046h3.3426v1.2612h-3.3426v5.3622c0 0.80551 0.10877 1.3229 0.32632 1.5522 0.22343 0.22931 0.67322 0.34396 1.3494 0.34396h1.6669v1.3582h-1.6669c-1.2524 0-2.1167-0.23224-2.5929-0.69673-0.47625-0.47037-0.71437-1.3229-0.71437-2.5576v-5.3622h-1.1906v-1.2612h1.1906v-2.8046h1.6316"/>
  <path id="path3045" style="" d="m248.23 293.09-3.5719 4.8066 3.7571 5.0712h-1.9138l-2.8751-3.8806-2.8751 3.8806h-1.9138l3.8364-5.1682-3.5101-4.7096h1.9138l2.6194 3.519 2.6194-3.519h1.9138"/>
  <path id="path3047" style="" d="m224.73 312.38h8.4667v0.75847l-4.7801 12.409h-1.8609l4.4979-11.668h-6.3235v-1.4993"/>
 </g>
 <g id="text32">
  <path id="path3050" style="" d="m188.02 384.26c-0.78787 1.3523-1.3729 2.6899-1.7551 4.0128-0.38218 1.3229-0.57326 2.6635-0.57326 4.0217s0.19108 2.7046 0.57326 4.0393c0.38805 1.3288 0.97308 2.6664 1.7551 4.0128h-1.4111c-0.88195-1.3817-1.5434-2.7399-1.9844-4.0746-0.4351-1.3347-0.65264-2.6605-0.65264-3.9776 0-1.3112 0.21754-2.6311 0.65264-3.9599 0.43509-1.3288 1.0966-2.687 1.9844-4.0746h1.4111"/>
  <path id="path3052" style="" d="m199.38 392v5.9619h-1.6228v-5.909c-0.00001-0.93485-0.18228-1.6345-0.54681-2.099-0.36454-0.46449-0.91135-0.69673-1.6404-0.69674-0.87607 0.00001-1.5669 0.27929-2.0726 0.83785-0.50565 0.55857-0.75848 1.32-0.75847 2.2842v5.5827h-1.6316v-9.8778h1.6316v1.5346c0.38805-0.59384 0.84372-1.0378 1.367-1.3317 0.52916-0.29397 1.1377-0.44096 1.8256-0.44097 1.1348 0.00001 1.9932 0.35279 2.5753 1.0583 0.58207 0.69969 0.87311 1.7316 0.87312 3.0956"/>
  <path id="path3054" style="" d="m211.09 392.62v0.79374h-7.4612c0.0705 1.1171 0.40569 1.9697 1.0054 2.5576 0.6056 0.58208 1.4464 0.87313 2.5224 0.87312 0.62324 0.00001 1.2259-0.0764 1.808-0.2293 0.58795-0.15287 1.17-0.38218 1.7462-0.68792v1.5346c-0.58209 0.24695-1.1789 0.4351-1.7903 0.56445-0.61149 0.12935-1.2318 0.19403-1.8609 0.19403-1.5757 0-2.8252-0.45861-3.7483-1.3758-0.91722-0.91722-1.3758-2.1578-1.3758-3.7218 0-1.6169 0.43509-2.8986 1.3053-3.8453 0.87606-0.95249 2.0549-1.4287 3.5366-1.4288 1.3288 0.00001 2.3783 0.42922 3.1485 1.2876 0.7761 0.85255 1.1642 2.0138 1.1642 3.4837m-1.6228-0.47625c-0.0118-0.88782-0.26165-1.5963-0.74965-2.1255-0.48213-0.52916-1.123-0.79374-1.9226-0.79375-0.90547 0.00001-1.6316 0.25578-2.1784 0.76729-0.54093 0.51154-0.85255 1.2318-0.93486 2.1608l5.7855-0.009m-1.561-8.6254h1.7551l-2.8751 3.3161h-1.3494l2.4694-3.3161"/>
  <path id="path3056" style="" d="m212.59 388.09h1.7198l3.0868 8.2903 3.0868-8.2903h1.7198l-3.7042 9.8778h-2.2049l-3.7042-9.8778"/>
  <path id="path3058" style="" d="m226.05 385.28v2.8046h3.3426v1.2612h-3.3426v5.3622c0 0.80551 0.10877 1.3229 0.32632 1.5522 0.22342 0.22931 0.67321 0.34396 1.3494 0.34396h1.6669v1.3582h-1.6669c-1.2524 0-2.1167-0.23224-2.5929-0.69673-0.47625-0.47037-0.71438-1.3229-0.71437-2.5576v-5.3622h-1.1906v-1.2612h1.1906v-2.8046h1.6316"/>
  <path id="path3060" style="" d="m239.98 392.62v0.79374h-7.4612c0.0706 1.1171 0.4057 1.9697 1.0054 2.5576 0.6056 0.58208 1.4464 0.87313 2.5224 0.87312 0.62323 0.00001 1.2259-0.0764 1.808-0.2293 0.58796-0.15287 1.17-0.38218 1.7462-0.68792v1.5346c-0.58209 0.24695-1.1789 0.4351-1.7904 0.56445-0.61148 0.12935-1.2318 0.19403-1.8609 0.19403-1.5757 0-2.8252-0.45861-3.7483-1.3758-0.91722-0.91722-1.3758-2.1578-1.3758-3.7218 0-1.6169 0.43509-2.8986 1.3053-3.8453 0.87606-0.95249 2.0549-1.4287 3.5366-1.4288 1.3288 0.00001 2.3783 0.42922 3.1485 1.2876 0.7761 0.85255 1.1642 2.0138 1.1642 3.4837m-1.6228-0.47625c-0.0118-0.88782-0.26165-1.5963-0.74965-2.1255-0.48214-0.52916-1.123-0.79374-1.9226-0.79375-0.90547 0.00001-1.6316 0.25578-2.1784 0.76729-0.54093 0.51154-0.85255 1.2318-0.93486 2.1608l5.7856-0.009"/>
  <path id="path3062" style="" d="m242.64 384.24h1.6228v13.723h-1.6228v-13.723"/>
  <path id="path3064" style="" d="m256.1 392.62v0.79374h-7.4612c0.0705 1.1171 0.40569 1.9697 1.0054 2.5576 0.60559 0.58208 1.4464 0.87313 2.5224 0.87312 0.62324 0.00001 1.2259-0.0764 1.808-0.2293 0.58795-0.15287 1.17-0.38218 1.7462-0.68792v1.5346c-0.5821 0.24695-1.1789 0.4351-1.7904 0.56445-0.61149 0.12935-1.2318 0.19403-1.8609 0.19403-1.5757 0-2.8252-0.45861-3.7483-1.3758-0.91722-0.91722-1.3758-2.1578-1.3758-3.7218 0-1.6169 0.43509-2.8986 1.3053-3.8453 0.87607-0.95249 2.0549-1.4287 3.5366-1.4288 1.3288 0.00001 2.3783 0.42922 3.1485 1.2876 0.7761 0.85255 1.1642 2.0138 1.1642 3.4837m-1.6228-0.47625c-0.0118-0.88782-0.26165-1.5963-0.74965-2.1255-0.48213-0.52916-1.123-0.79374-1.9226-0.79375-0.90547 0.00001-1.6316 0.25578-2.1784 0.76729-0.54093 0.51154-0.85255 1.2318-0.93486 2.1608l5.7855-0.009"/>
  <path id="path3066" style="" d="m266.98 392v5.9619h-1.6228v-5.909c-0.00001-0.93485-0.18228-1.6345-0.54681-2.099-0.36454-0.46449-0.91135-0.69673-1.6404-0.69674-0.87607 0.00001-1.5669 0.27929-2.0726 0.83785-0.50565 0.55857-0.75847 1.32-0.75847 2.2842v5.5827h-1.6316v-9.8778h1.6316v1.5346c0.38805-0.59384 0.84372-1.0378 1.367-1.3317 0.52916-0.29397 1.1377-0.44096 1.8256-0.44097 1.1348 0.00001 1.9932 0.35279 2.5753 1.0583 0.58207 0.69969 0.87311 1.7316 0.87312 3.0956"/>
  <path id="path3068" style="" d="m269.98 384.26h1.4111c0.88194 1.3876 1.5405 2.7458 1.9756 4.0746 0.44097 1.3288 0.66146 2.6488 0.66146 3.9599 0 1.317-0.22049 2.6429-0.66146 3.9776-0.43509 1.3347-1.0936 2.6929-1.9756 4.0746h-1.4111c0.78199-1.3464 1.3641-2.684 1.7462-4.0128 0.38805-1.3347 0.58208-2.6811 0.58208-4.0393s-0.19403-2.6987-0.58208-4.0217c-0.38218-1.3229-0.96426-2.6605-1.7462-4.0128"/>
  <path id="path3070" style="" d="m208.29 414.58v5.9619h-1.6228v-5.909c0-0.93485-0.18227-1.6345-0.5468-2.099-0.36455-0.46448-0.91135-0.69673-1.6404-0.69674-0.87607 0.00001-1.5669 0.27929-2.0726 0.83785-0.50565 0.55857-0.75848 1.32-0.75847 2.2842v5.5827h-1.6316v-13.723h1.6316v5.3798c0.38805-0.59383 0.84372-1.0377 1.367-1.3317 0.52916-0.29398 1.1377-0.44097 1.8256-0.44098 1.1348 0.00001 1.9932 0.35279 2.5753 1.0583 0.58207 0.69968 0.87311 1.7316 0.87312 3.0956"/>
  <path id="path3072" style="" d="m220 415.2v0.79375h-7.4612c0.0705 1.1171 0.40569 1.9697 1.0054 2.5576 0.6056 0.58209 1.4464 0.87313 2.5224 0.87313 0.62323 0 1.2259-0.0764 1.808-0.22931 0.58796-0.15287 1.17-0.38217 1.7462-0.68791v1.5346c-0.58209 0.24694-1.1789 0.43509-1.7903 0.56444-0.61149 0.12935-1.2318 0.19403-1.8609 0.19403-1.5758 0-2.8252-0.45861-3.7483-1.3758-0.91722-0.91722-1.3758-2.1578-1.3758-3.7218-0.00001-1.6169 0.43509-2.8986 1.3053-3.8453 0.87606-0.95249 2.0549-1.4287 3.5366-1.4288 1.3288 0.00001 2.3783 0.42923 3.1485 1.2876 0.7761 0.85255 1.1642 2.0138 1.1642 3.4837m-1.6228-0.47625c-0.0118-0.88782-0.26165-1.5963-0.74965-2.1255-0.48214-0.52916-1.123-0.79375-1.9226-0.79375-0.90546 0-1.6316 0.25577-2.1784 0.76729-0.54092 0.51153-0.85254 1.2318-0.93486 2.1608l5.7856-0.009"/>
  <path id="path3074" style="" d="m222.66 406.82h1.6228v13.723h-1.6228v-13.723"/>
  <path id="path3076" style="" d="m227.67 406.82h1.6228v13.723h-1.6228v-13.723"/>
  <path id="path3078" style="" d="m236.51 411.8c-0.87019 0-1.5581 0.34102-2.0638 1.023-0.50565 0.67616-0.75847 1.6051-0.75847 2.7869s0.24988 2.1137 0.74965 2.7958c0.50564 0.67616 1.1965 1.0142 2.0726 1.0142 0.8643 0 1.5493-0.34102 2.0549-1.0231 0.50563-0.68203 0.75846-1.611 0.75847-2.7869-0.00001-1.17-0.25284-2.0961-0.75847-2.7781-0.50566-0.68791-1.1906-1.0319-2.0549-1.0319m0-1.3758c1.4111 0.00001 2.5194 0.45862 3.3249 1.3758 0.8055 0.91722 1.2083 2.1872 1.2083 3.81-0.00001 1.6169-0.40277 2.8869-1.2083 3.81-0.80551 0.91722-1.9138 1.3758-3.3249 1.3758-1.417 0-2.5282-0.45861-3.3338-1.3758-0.79963-0.9231-1.1994-2.1931-1.1994-3.81 0-1.6228 0.39981-2.8928 1.1994-3.81 0.80551-0.91722 1.9168-1.3758 3.3338-1.3758m1.2259-4.3303h1.7551l-2.8751 3.3161h-1.3494l2.4694-3.3161"/>
  <path id="path3080" style="" d="m243.52 407.38 4.5861 14.843h-1.4993l-4.5861-14.843h1.4993"/>
  <path id="path3082" style="" d="m253.86 408.55c-0.91722 0.00002-1.6081 0.45275-2.0726 1.3582-0.45862 0.89959-0.68792 2.2548-0.68792 4.0658 0 1.805 0.2293 3.1603 0.68792 4.0658 0.46448 0.89958 1.1553 1.3494 2.0726 1.3494 0.9231 0 1.614-0.44979 2.0726-1.3494 0.46448-0.90546 0.69673-2.2607 0.69674-4.0658-0.00001-1.8109-0.23226-3.1662-0.69674-4.0658-0.45862-0.90545-1.1495-1.3582-2.0726-1.3582m0-1.4111c1.4758 0.00001 2.6017 0.58503 3.3778 1.7551 0.78198 1.1642 1.173 2.8575 1.173 5.08-0.00001 2.2166-0.391 3.91-1.173 5.08-0.77612 1.1642-1.9021 1.7462-3.3778 1.7462-1.4758 0-2.6047-0.58208-3.3867-1.7462-0.77611-1.17-1.1642-2.8634-1.1642-5.08 0-2.2225 0.38805-3.9158 1.1642-5.08 0.78199-1.17 1.9109-1.755 3.3867-1.7551"/>
 </g>
 <g id="text38">
  <path id="path3085" style="" d="m186.96 178.47v1.5169c-0.45862-0.25282-0.92017-0.44096-1.3846-0.56444-0.45862-0.12935-0.92311-0.19402-1.3935-0.19403-1.0525 0.00001-1.8697 0.33515-2.4518 1.0054-0.58208 0.66441-0.87312 1.5993-0.87312 2.8046s0.29104 2.1431 0.87312 2.8134c0.58208 0.6644 1.3994 0.9966 2.4518 0.9966 0.47036 0 0.93485-0.0617 1.3935-0.18521 0.46448-0.12935 0.92603-0.32044 1.3846-0.57326v1.4993c-0.45274 0.21167-0.92311 0.37042-1.4111 0.47625-0.48214 0.10583-0.9966 0.15875-1.5434 0.15875-1.4876 0-2.6694-0.46743-3.5454-1.4023-0.87607-0.93486-1.3141-2.196-1.3141-3.7835 0-1.611 0.44097-2.8781 1.3229-3.8012 0.88782-0.92309 2.102-1.3846 3.6424-1.3846 0.49976 0.00001 0.98777 0.0529 1.464 0.15875 0.47624 0.1 0.93779 0.25283 1.3846 0.45861"/>
  <path id="path3087" style="" d="m198.01 182v5.9619h-1.6228v-5.909c0-0.93486-0.18227-1.6345-0.5468-2.099-0.36455-0.46448-0.91135-0.69673-1.6404-0.69673-0.87607 0-1.5669 0.27929-2.0726 0.83784-0.50565 0.55857-0.75848 1.32-0.75847 2.2842v5.5827h-1.6316v-13.723h1.6316v5.3798c0.38805-0.59383 0.84372-1.0377 1.367-1.3317 0.52916-0.29397 1.1377-0.44096 1.8256-0.44097 1.1348 0.00001 1.9932 0.35278 2.5753 1.0583 0.58207 0.69968 0.87311 1.7316 0.87312 3.0956"/>
  <path id="path3089" style="" d="m205.75 183c-1.3112 0-2.2196 0.14993-2.7252 0.44979-0.50565 0.29986-0.75848 0.81139-0.75847 1.5346-0.00001 0.5762 0.18814 1.0348 0.56444 1.3758 0.38217 0.33514 0.89958 0.50271 1.5522 0.50271 0.89958 0 1.6198-0.3175 2.1608-0.9525 0.5468-0.64088 0.8202-1.4905 0.82021-2.5488v-0.36159h-1.614m3.2367-0.67028v5.6356h-1.6228v-1.4993c-0.37042 0.59973-0.83197 1.0436-1.3846 1.3317-0.55269 0.28222-1.2288 0.42333-2.0285 0.42333-1.0113 0-1.8168-0.28222-2.4165-0.84666-0.59384-0.57033-0.89076-1.3317-0.89076-2.2842 0-1.1112 0.37042-1.9491 1.1112-2.5135 0.74671-0.56443 1.858-0.84666 3.3338-0.84666h2.2754v-0.15875c-0.00001-0.74671-0.24695-1.3229-0.74083-1.7286-0.48802-0.41157-1.1759-0.61735-2.0638-0.61736-0.56445 0.00001-1.1142 0.0676-1.6492 0.20285-0.53504 0.13524-1.0495 0.33808-1.5434 0.60854v-1.4993c0.59384-0.22929 1.17-0.3998 1.7286-0.51152 0.55856-0.11759 1.1024-0.17638 1.6316-0.17639 1.4287 0.00001 2.4959 0.37042 3.2014 1.1112 0.70555 0.74084 1.0583 1.8638 1.0583 3.369"/>
  <path id="path3091" style="" d="m218.06 179.6c-0.18227-0.10582-0.38218-0.18226-0.59972-0.2293-0.21167-0.0529-0.44686-0.0794-0.70555-0.0794-0.91723 0.00001-1.6228 0.29987-2.1167 0.89959-0.48801 0.59385-0.73201 1.4493-0.73201 2.5664v5.2035h-1.6316v-9.8778h1.6316v1.5346c0.34101-0.59971 0.78493-1.0436 1.3317-1.3317 0.5468-0.29397 1.2112-0.44096 1.9932-0.44097 0.1117 0.00001 0.23517 0.009 0.37041 0.0265 0.13523 0.0118 0.28516 0.0324 0.44979 0.0617l0.009 1.6669"/>
  <path id="path3093" style="" d="m231.83 178.38v1.5346c-0.45862-0.23517-0.93487-0.41156-1.4288-0.52916-0.4939-0.11759-1.0054-0.17638-1.5346-0.17639-0.80552 0.00001-1.4111 0.12348-1.8168 0.37042-0.39981 0.24695-0.59972 0.61736-0.59972 1.1112 0 0.37631 0.14405 0.67323 0.43215 0.89077 0.2881 0.21167 0.86724 0.41452 1.7374 0.60854l0.55563 0.12347c1.1524 0.24695 1.9697 0.59679 2.4518 1.0495 0.488 0.44686 0.732 1.073 0.73201 1.8785-0.00001 0.91723-0.36454 1.6434-1.0936 2.1784-0.7232 0.53505-1.7198 0.80257-2.9898 0.80257-0.52917 0-1.0818-0.0529-1.658-0.15875-0.57032-0.1-1.173-0.25282-1.808-0.45861v-1.6757c0.59972 0.31162 1.1906 0.5468 1.7727 0.70555 0.58208 0.15287 1.1583 0.22931 1.7286 0.22931 0.76435 0 1.3523-0.12935 1.7639-0.38806 0.41157-0.26458 0.61735-0.63499 0.61736-1.1112-0.00001-0.44096-0.14994-0.77904-0.44979-1.0142-0.29399-0.23518-0.94369-0.46155-1.9491-0.6791l-0.56-0.12c-1.0054-0.21166-1.7316-0.53504-2.1784-0.97014-0.44685-0.44096-0.67028-1.0436-0.67028-1.808 0-0.92897 0.32926-1.6463 0.98778-2.1519 0.65851-0.50564 1.5934-0.75846 2.8046-0.75847 0.59972 0.00001 1.1642 0.0441 1.6933 0.13229 0.52916 0.0882 1.0172 0.22049 1.464 0.39687"/>
  <path id="path3095" style="" d="m234.25 178.09h7.7082v1.4817l-6.103 7.0996h6.103v1.2965h-7.9287v-1.4817l6.103-7.0996h-5.8826v-1.2965"/>
  <path id="path3097" style="" d="m244.29 174.24h3.7394v1.2612h-2.1167v13.582h2.1167v1.2612h-3.7394v-16.104"/>
  <path id="path3099" style="" d="m252.04 186.47h2.9104v-10.045l-3.1662 0.635v-1.6228l3.1485-0.635h1.7815v11.668h2.9104v1.4993h-7.5847v-1.4993"/>
  <path id="path3101" style="" d="m267.04 175.97c-0.91723 0.00001-1.6081 0.45274-2.0726 1.3582-0.45861 0.89959-0.68792 2.2548-0.68792 4.0658 0 1.805 0.22931 3.1603 0.68792 4.0658 0.46448 0.89958 1.1553 1.3494 2.0726 1.3494 0.92309 0 1.6139-0.44979 2.0726-1.3494 0.46448-0.90546 0.69673-2.2607 0.69674-4.0658-0.00001-1.8109-0.23226-3.1662-0.69674-4.0658-0.45862-0.90545-1.1495-1.3582-2.0726-1.3582m0-1.4111c1.4758 0.00001 2.6017 0.58503 3.3778 1.7551 0.78198 1.1642 1.173 2.8575 1.173 5.08-0.00001 2.2166-0.391 3.91-1.173 5.08-0.77612 1.1642-1.9021 1.7462-3.3778 1.7462-1.4758 0-2.6047-0.58208-3.3867-1.7462-0.77611-1.17-1.1642-2.8634-1.1642-5.08 0-2.2225 0.38805-3.9158 1.1642-5.08 0.78199-1.17 1.9109-1.7551 3.3867-1.7551"/>
  <path id="path3103" style="" d="m278.29 174.24v16.104h-3.7394v-1.2612h2.1078v-13.582h-2.1078v-1.2612h3.7394"/>
  <path id="path3105" style="" d="m181.12 197.38h1.7815v5.3975h6.4735v-5.3975h1.7815v13.167h-1.7815v-6.2706h-6.4735v6.2706h-1.7815v-13.167"/>
  <path id="path3107" style="" d="m194.71 197.38h8.3256v1.4993h-6.544v3.8982h6.2706v1.4993h-6.2706v4.7713h6.7028v1.4993h-8.4843v-13.167"/>
  <path id="path3109" style="" d="m206.14 197.38h1.7815v11.668h6.4117v1.4993h-8.1932v-13.167"/>
  <path id="path3111" style="" d="m216.19 197.38h1.7815v11.668h6.4117v1.4993h-8.1933v-13.167"/>
  <path id="path3113" style="" d="m230.94 198.58c-1.2935 0.00001-2.3224 0.48214-3.0868 1.4464-0.75847 0.96426-1.1377 2.2784-1.1377 3.9423 0 1.6581 0.37924 2.9692 1.1377 3.9335 0.76435 0.96426 1.7933 1.4464 3.0868 1.4464s2.3166-0.48213 3.0692-1.4464c0.75846-0.96426 1.1377-2.2754 1.1377-3.9335-0.00001-1.6639-0.37924-2.978-1.1377-3.9423-0.75261-0.96425-1.7757-1.4464-3.0692-1.4464m0-1.4464c1.8462 0.00001 3.322 0.62031 4.4274 1.8609 1.1054 1.2347 1.658 2.8928 1.658 4.9742-0.00001 2.0755-0.5527 3.7336-1.658 4.9742-1.1054 1.2347-2.5812 1.8521-4.4274 1.8521-1.8521 0-3.3338-0.61736-4.445-1.8521-1.1054-1.2347-1.6581-2.8928-1.6581-4.9742s0.55269-3.7394 1.6581-4.9742c1.1112-1.2406 2.5929-1.8609 4.445-1.8609m0.48507-3.3426h1.6316l-2.0108 2.3283h-1.3494l1.7286-2.3283"/>
  <path id="path3115" style="" d="m239.54 197.38 4.5861 14.843h-1.4993l-4.5861-14.843h1.4993"/>
  <path id="path3117" style="" d="m249.89 198.55c-0.91723 0.00001-1.6081 0.45274-2.0726 1.3582-0.45861 0.89959-0.68792 2.2548-0.68792 4.0658 0 1.805 0.22931 3.1603 0.68792 4.0658 0.46449 0.89958 1.1553 1.3494 2.0726 1.3494 0.92309 0.00001 1.614-0.44979 2.0726-1.3494 0.46449-0.90546 0.69673-2.2607 0.69674-4.0658-0.00001-1.8109-0.23225-3.1662-0.69674-4.0658-0.45861-0.90545-1.1495-1.3582-2.0726-1.3582m0-1.4111c1.4758 0.00001 2.6017 0.58504 3.3778 1.7551 0.78198 1.1642 1.173 2.8575 1.173 5.08-0.00001 2.2166-0.39101 3.91-1.173 5.08-0.77612 1.1642-1.9021 1.7462-3.3778 1.7462-1.4758 0-2.6047-0.58208-3.3867-1.7462-0.77612-1.17-1.1642-2.8634-1.1642-5.08 0-2.2225 0.38805-3.9158 1.1642-5.08 0.78198-1.17 1.9109-1.7551 3.3867-1.7551"/>
  <path id="path3119" style="" d="m257.58 208.3h1.8609v2.2401h-1.8609v-2.2401"/>
  <path id="path3121" style="" d="m263.33 208.3h1.8609v2.2401h-1.8609v-2.2401"/>
  <path id="path3123" style="" d="m269.08 208.3h1.8609v2.2401h-1.8609v-2.2401"/>
  <path id="path3125" style="" d="m274.83 208.3h1.8609v2.2401h-1.8609v-2.2401"/>
 </g>
 <g id="g44" transform="translate(-1 -6.9957)">
  <path id="rect46" fill="#bfbfbf" d="m160 240h140v50h-140z"/>
  <path id="rect48" d="m160 240h140v50h-140z" stroke="#000" stroke-width="2" fill="none"/>
 </g>
 <g id="text50">
  <path id="path3130" style="" d="m204.72 254.76v1.517c-0.45862-0.25282-0.92017-0.44097-1.3846-0.56445-0.45862-0.12934-0.92311-0.19402-1.3935-0.19403-1.0525 0.00001-1.8697 0.33515-2.4518 1.0054-0.58208 0.6644-0.87312 1.5993-0.87312 2.8046s0.29104 2.1431 0.87312 2.8134c0.58208 0.6644 1.3994 0.9966 2.4518 0.9966 0.47036 0 0.93485-0.0617 1.3935-0.18521 0.46448-0.12935 0.92603-0.32044 1.3846-0.57327v1.4993c-0.45274 0.21166-0.92311 0.37041-1.4111 0.47625-0.48214 0.10583-0.9966 0.15875-1.5434 0.15875-1.4876 0-2.6694-0.46743-3.5454-1.4023-0.87607-0.93486-1.3141-2.196-1.3141-3.7835 0-1.611 0.44097-2.8781 1.3229-3.8012 0.88782-0.92309 2.102-1.3846 3.6424-1.3846 0.49976 0.00001 0.98777 0.0529 1.464 0.15875 0.47624 0.1 0.93779 0.25284 1.3846 0.45861"/>
  <path id="path3132" style="" d="m215.77 258.29v5.9619h-1.6228v-5.909c0-0.93485-0.18227-1.6345-0.5468-2.099-0.36455-0.46448-0.91135-0.69673-1.6404-0.69674-0.87607 0.00001-1.5669 0.27929-2.0726 0.83785-0.50565 0.55857-0.75848 1.32-0.75847 2.2842v5.5827h-1.6316v-13.723h1.6316v5.3799c0.38805-0.59383 0.84372-1.0377 1.367-1.3317 0.52916-0.29397 1.1377-0.44096 1.8256-0.44097 1.1348 0.00001 1.9932 0.35279 2.5753 1.0583 0.58207 0.69969 0.87311 1.7316 0.87312 3.0956"/>
  <path id="path3134" style="" d="m223.51 259.29c-1.3112 0.00001-2.2196 0.14994-2.7252 0.44979-0.50565 0.29987-0.75848 0.81139-0.75847 1.5346-0.00001 0.57621 0.18814 1.0348 0.56444 1.3758 0.38217 0.33514 0.89958 0.50271 1.5522 0.5027 0.89958 0.00001 1.6198-0.31749 2.1608-0.95249 0.5468-0.64088 0.8202-1.4905 0.82021-2.5488v-0.3616h-1.614m3.2367-0.67027v5.6356h-1.6228v-1.4993c-0.37042 0.59972-0.83197 1.0436-1.3846 1.3317-0.55269 0.28223-1.2288 0.42334-2.0285 0.42334-1.0113 0-1.8168-0.28222-2.4165-0.84667-0.59384-0.57032-0.89076-1.3317-0.89076-2.2842 0-1.1112 0.37041-1.9491 1.1112-2.5135 0.74671-0.56444 1.858-0.84666 3.3337-0.84667h2.2754v-0.15875c-0.00001-0.7467-0.24695-1.3229-0.74083-1.7286-0.48802-0.41156-1.1759-0.61735-2.0638-0.61736-0.56445 0.00001-1.1142 0.0676-1.6492 0.20285-0.53504 0.13524-1.0495 0.33809-1.5434 0.60854v-1.4993c0.59384-0.2293 1.17-0.39981 1.7286-0.51153 0.55856-0.11758 1.1024-0.17638 1.6316-0.17639 1.4287 0.00001 2.4959 0.37043 3.2014 1.1112 0.70555 0.74084 1.0583 1.8638 1.0583 3.369"/>
  <path id="path3136" style="" d="m235.83 255.89c-0.18227-0.10582-0.38218-0.18226-0.59972-0.22931-0.21167-0.0529-0.44686-0.0794-0.70555-0.0794-0.91723 0.00001-1.6228 0.29987-2.1167 0.89958-0.48801 0.59385-0.73201 1.4493-0.73201 2.5665v5.2035h-1.6316v-9.8778h1.6316v1.5346c0.34101-0.59971 0.78492-1.0436 1.3317-1.3317 0.5468-0.29397 1.2112-0.44096 1.9932-0.44097 0.1117 0.00001 0.23517 0.009 0.37041 0.0265 0.13523 0.0118 0.28516 0.0324 0.44979 0.0617l0.009 1.6669"/>
  <path id="path3138" style="" d="m250.09 253.26-3.1662 1.711 3.1662 1.7198-0.51152 0.8643-2.9633-1.7903v3.3249h-1.0054v-3.3249l-2.9633 1.7903-0.51152-0.8643 3.1662-1.7198-3.1662-1.711 0.51152-0.87312 2.9633 1.7903v-3.3249h1.0054v3.3249l2.9633-1.7903 0.51152 0.87312"/>
  <path id="path3140" style="" d="m253.9 262.77v5.2387h-1.6316v-13.635h1.6316v1.4993c0.34102-0.58795 0.77023-1.023 1.2876-1.3053 0.52328-0.2881 1.1465-0.43215 1.8697-0.43216 1.1994 0.00001 2.1725 0.47626 2.9192 1.4288 0.75258 0.95251 1.1289 2.2049 1.1289 3.7571-0.00001 1.5522-0.37631 2.8046-1.1289 3.7571-0.74672 0.9525-1.7198 1.4288-2.9192 1.4288-0.7232 0-1.3464-0.14111-1.8697-0.42334-0.51741-0.2881-0.94662-0.72613-1.2876-1.3141m5.521-3.4484c-0.00001-1.1936-0.24696-2.1284-0.74084-2.8046-0.48801-0.68203-1.1612-1.023-2.0196-1.023-0.85843 0-1.5346 0.34102-2.0285 1.023-0.48801 0.67616-0.73201 1.611-0.73201 2.8046s0.244 2.1314 0.73201 2.8134c0.49389 0.67616 1.17 1.0142 2.0285 1.0142 0.85842 0.00001 1.5316-0.33807 2.0196-1.0142 0.49388-0.68203 0.74083-1.6198 0.74084-2.8134"/>
 </g>
 <g id="g54" transform="translate(-1 -6.9957)">
  <path id="path56" d="m300 265c40 0 40 145 9.736 145" stroke="#000" stroke-width="2" fill="none"/>
  <path id="polygon58" d="m309.74 410 2.5 5-10-5 10-5z"/>
  <path id="polygon60" d="m309.74 410 2.5 5-10-5 10-5z" stroke="#000" stroke-width="2" fill="none"/>
 </g>
 <g id="text62">
  <path id="path3145" style="" d="m164.17 119.25-5.0271-13.167h1.8609l4.1716 11.086 4.1804-11.086h1.8521l-5.0183 13.167h-2.0196"/>
  <path id="path3147" style="" d="m180.1 113.91v0.79375h-7.4612c0.0705 1.1171 0.40569 1.9697 1.0054 2.5576 0.6056 0.58208 1.4464 0.87312 2.5224 0.87312 0.62323 0 1.2259-0.0764 1.808-0.2293 0.58796-0.15287 1.17-0.38218 1.7462-0.68792v1.5346c-0.58209 0.24695-1.1789 0.4351-1.7903 0.56445-0.61149 0.12935-1.2318 0.19402-1.8609 0.19402-1.5757 0-2.8252-0.45861-3.7482-1.3758-0.91723-0.91722-1.3758-2.1578-1.3758-3.7218 0-1.6169 0.43509-2.8986 1.3053-3.8453 0.87606-0.95249 2.0549-1.4287 3.5366-1.4288 1.3288 0.00001 2.3783 0.42922 3.1485 1.2876 0.7761 0.85255 1.1642 2.0138 1.1642 3.4837m-1.6228-0.47625c-0.0118-0.88781-0.26165-1.5963-0.74965-2.1255-0.48214-0.52916-1.123-0.79374-1.9226-0.79375-0.90547 0.00001-1.6316 0.25577-2.1784 0.76729-0.54093 0.51154-0.85255 1.2318-0.93486 2.1608l5.7856-0.009"/>
  <path id="path3149" style="" d="m188.48 110.89c-0.18228-0.10583-0.38219-0.18226-0.59972-0.22931-0.21168-0.0529-0.44686-0.0794-0.70556-0.0794-0.91723 0.00001-1.6228 0.29987-2.1167 0.89958-0.48802 0.59385-0.73202 1.4493-0.73202 2.5665v5.2035h-1.6316v-9.8778h1.6316v1.5346c0.34102-0.59972 0.78493-1.0436 1.3317-1.3317 0.5468-0.29397 1.2112-0.44096 1.9932-0.44097 0.11171 0.00001 0.23518 0.009 0.37042 0.0265 0.13522 0.0118 0.28515 0.0323 0.44979 0.0617l0.009 1.6669"/>
  <path id="path3151" style="" d="m198.26 113.91v0.79375h-7.4612c0.0705 1.1171 0.40569 1.9697 1.0054 2.5576 0.6056 0.58208 1.4464 0.87312 2.5224 0.87312 0.62324 0 1.2259-0.0764 1.808-0.2293 0.58795-0.15287 1.17-0.38218 1.7462-0.68792v1.5346c-0.58209 0.24695-1.1789 0.4351-1.7903 0.56445-0.61149 0.12935-1.2318 0.19402-1.8609 0.19402-1.5757 0-2.8252-0.45861-3.7483-1.3758-0.91722-0.91722-1.3758-2.1578-1.3758-3.7218 0-1.6169 0.43509-2.8986 1.3053-3.8453 0.87606-0.95249 2.0549-1.4287 3.5366-1.4288 1.3288 0.00001 2.3783 0.42922 3.1485 1.2876 0.77611 0.85255 1.1642 2.0138 1.1642 3.4837m-1.6228-0.47625c-0.0118-0.88781-0.26165-1.5963-0.74965-2.1255-0.48213-0.52916-1.123-0.79374-1.9226-0.79375-0.90547 0.00001-1.6316 0.25577-2.1784 0.76729-0.54093 0.51154-0.85255 1.2318-0.93486 2.1608l5.7855-0.009"/>
  <path id="path3153" style="" d="m208.61 111.27c0.40569-0.72906 0.89076-1.267 1.4552-1.614 0.56443-0.34689 1.2288-0.52034 1.9932-0.52035 1.0289 0.00001 1.8227 0.36161 2.3812 1.0848 0.55855 0.71732 0.83783 1.7404 0.83785 3.0692v5.9619h-1.6316v-5.909c-0.00001-0.94661-0.16758-1.6492-0.50271-2.1078-0.33515-0.45861-0.84668-0.68791-1.5346-0.68792-0.8408 0.00001-1.5052 0.27929-1.9932 0.83785-0.48802 0.55857-0.73202 1.32-0.73201 2.2842v5.5827h-1.6316v-5.909c-0.00001-0.95249-0.16758-1.6551-0.50271-2.1078-0.33514-0.45861-0.85255-0.68791-1.5522-0.68792-0.82903 0.00001-1.4876 0.28223-1.9756 0.84667-0.48801 0.55857-0.73202 1.317-0.73201 2.2754v5.5827h-1.6316v-9.8778h1.6316v1.5346c0.37041-0.6056 0.81432-1.0524 1.3317-1.3406 0.5174-0.28809 1.1318-0.43214 1.8433-0.43215 0.71731 0.00001 1.3258 0.18228 1.8256 0.54681 0.50564 0.36454 0.87899 0.89371 1.1201 1.5875"/>
 </g>
 <path id="line66" d="m159 153v-30" stroke="#000" stroke-width="2" fill="none"/>
 <path id="line68" d="m299 153v-30" stroke="#000" stroke-width="2" fill="none"/>
</svg>
