<?xml version="1.0" encoding="UTF-8" standalone="no"?>
<!-- Created with Inkscape (http://www.inkscape.org/) -->
<svg id="svg2" xmlns:rdf="http://www.w3.org/1999/02/22-rdf-syntax-ns#" xmlns="http://www.w3.org/2000/svg" height="627.88" width="352.99" version="1.1" xmlns:cc="http://creativecommons.org/ns#" xmlns:dc="http://purl.org/dc/elements/1.1/" viewBox="158 109 192.26925 337.66838">
 <metadata id="metadata102">
  <rdf:RDF>
   <cc:Work rdf:about="">
    <dc:format>image/svg+xml</dc:format>
    <dc:type rdf:resource="http://purl.org/dc/dcmitype/StillImage"/>
   </cc:Work>
  </rdf:RDF>
 </metadata>
 <g id="g4" transform="translate(-1 -2.1658)">
  <path id="path6" d="m300 170c60 0 70 210 9.736 210" stroke="#bfbfbf" stroke-width="2" fill="none"/>
  <path id="polygon8" fill="#bfbfbf" d="m309.74 380 2.5 5-10-5 10-5z"/>
  <path id="polygon10" d="m309.74 380 2.5 5-10-5 10-5z" stroke="#bfbfbf" stroke-width="2" fill="none"/>
 </g>
 <g id="g12" transform="translate(-1 -2.1658)">
  <path id="path14" d="m300 220c40 0 56 160 9.736 160" stroke="#bfbfbf" stroke-width="2" fill="none"/>
  <path id="polygon16" fill="#bfbfbf" d="m309.74 380 2.5 5-10-5 10-5z"/>
  <path id="polygon18" d="m309.74 380 2.5 5-10-5 10-5z" stroke="#bfbfbf" stroke-width="2" fill="none"/>
 </g>
 <g id="text20">
  <path id="path3034" style="" d="m160.77 300.92h1.7815v5.5651l5.909-5.5651h2.2931l-6.5352 6.1383 7.0026 7.0291h-2.346l-6.3235-6.3412v6.3412h-1.7815v-13.167"/>
  <path id="path3036" style="" d="m171.49 310.19v-5.9796h1.6228v5.9178c0 0.93487 0.18227 1.6375 0.54681 2.1078 0.36453 0.46449 0.91134 0.69673 1.6404 0.69673 0.87606 0 1.5669-0.27928 2.0726-0.83784 0.51152-0.55857 0.76728-1.32 0.76729-2.2842v-5.6003h1.6228v9.8778h-1.6228v-1.5169c-0.39394 0.59972-0.85255 1.0466-1.3758 1.3406-0.51741 0.2881-1.1201 0.43215-1.808 0.43215-1.1348 0-1.9961-0.35278-2.5841-1.0583-0.58796-0.70555-0.88194-1.7374-0.88194-3.0956m4.0834-6.2177"/>
  <path id="path3038" style="" d="m184.69 312.6v5.2388h-1.6316v-13.635h1.6316v1.4993c0.34102-0.58796 0.77023-1.023 1.2876-1.3053 0.52328-0.28809 1.1465-0.43214 1.8697-0.43215 1.1994 0.00001 2.1725 0.47626 2.9192 1.4288 0.75258 0.9525 1.1289 2.2049 1.1289 3.7571-0.00001 1.5522-0.37631 2.8046-1.1289 3.7571-0.74672 0.9525-1.7198 1.4288-2.9192 1.4288-0.7232 0-1.3464-0.14111-1.8697-0.42333-0.51741-0.2881-0.94662-0.72613-1.2876-1.3141m5.521-3.4484c-0.00001-1.1936-0.24695-2.1284-0.74083-2.8046-0.48802-0.68202-1.1612-1.023-2.0196-1.023-0.85843 0.00001-1.5346 0.34103-2.0285 1.023-0.48802 0.67617-0.73202 1.611-0.73202 2.8046s0.244 2.1314 0.73202 2.8134c0.49388 0.67616 1.17 1.0142 2.0285 1.0142 0.85841 0 1.5316-0.33808 2.0196-1.0142 0.49388-0.68203 0.74082-1.6198 0.74083-2.8134"/>
  <path id="path3040" style="" d="m199.08 309.12c-1.3112 0-2.2196 0.14993-2.7252 0.44979-0.50565 0.29986-0.75847 0.81139-0.75847 1.5346 0 0.5762 0.18815 1.0348 0.56445 1.3758 0.38217 0.33514 0.89957 0.50271 1.5522 0.50271 0.89957 0 1.6198-0.3175 2.1608-0.9525 0.54679-0.64088 0.8202-1.4905 0.8202-2.5488v-0.36159h-1.614m3.2367-0.67028v5.6356h-1.6228v-1.4993c-0.37042 0.59973-0.83197 1.0436-1.3846 1.3317-0.55269 0.28222-1.2288 0.42333-2.0285 0.42333-1.0113 0-1.8168-0.28222-2.4165-0.84666-0.59384-0.57033-0.89076-1.3317-0.89076-2.2842 0-1.1112 0.37041-1.9491 1.1112-2.5135 0.74671-0.56443 1.858-0.84666 3.3338-0.84666h2.2754v-0.15875c0-0.74671-0.24695-1.3229-0.74083-1.7286-0.48801-0.41157-1.1759-0.61735-2.0638-0.61736-0.56444 0.00001-1.1142 0.0676-1.6492 0.20285-0.53505 0.13524-1.0495 0.33808-1.5434 0.60854v-1.4993c0.59384-0.22929 1.17-0.3998 1.7286-0.51152 0.55856-0.11759 1.1024-0.17638 1.6316-0.17639 1.4288 0.00001 2.4959 0.37042 3.2015 1.1112 0.70554 0.74084 1.0583 1.8638 1.0583 3.369"/>
  <path id="path3042" style="" d="m212.77 304.59v1.5169c-0.45862-0.25282-0.92017-0.44096-1.3846-0.56444-0.45862-0.12935-0.92311-0.19402-1.3935-0.19403-1.0525 0.00001-1.8697 0.33515-2.4518 1.0054-0.58209 0.66441-0.87313 1.5993-0.87313 2.8046s0.29104 2.1431 0.87313 2.8134c0.58207 0.6644 1.3993 0.9966 2.4518 0.9966 0.47036 0 0.93485-0.0617 1.3935-0.18521 0.46448-0.12935 0.92603-0.32044 1.3846-0.57326v1.4993c-0.45274 0.21167-0.92311 0.37042-1.4111 0.47625-0.48214 0.10583-0.9966 0.15875-1.5434 0.15875-1.4876 0-2.6694-0.46743-3.5454-1.4023-0.87607-0.93486-1.3141-2.196-1.3141-3.7835 0-1.611 0.44097-2.8781 1.3229-3.8012 0.88782-0.92309 2.102-1.3846 3.6424-1.3846 0.49976 0.00001 0.98777 0.0529 1.464 0.15875 0.47624 0.1 0.93779 0.25283 1.3846 0.45861"/>
 </g>
 <g id="g24" transform="translate(-1 -2.1658)">
  <path id="rect26" fill="#fff" d="m160 340h140v80h-140z"/>
  <path id="rect28" d="m160 340h140v80h-140z" stroke="#000" stroke-width="2" fill="none"/>
 </g>
 <g id="g30" transform="translate(-1 -2.1658)">
  <path id="rect32" fill="#fff" d="m160 240h140v40h-140z"/>
  <path id="rect34" d="m160 240h140v40h-140z" stroke="#000" stroke-width="2" fill="none"/>
 </g>
 <g id="text36">
  <path id="path3049" style="" d="m206.82 254.21h1.6228v9.8778h-1.6228v-9.8778m0-3.8453h1.6228v2.0549h-1.6228v-2.0549"/>
  <path id="path3051" style="" d="m220.04 258.12v5.9619h-1.6228v-5.909c-0.00001-0.93486-0.18228-1.6345-0.54681-2.099-0.36454-0.46448-0.91134-0.69672-1.6404-0.69673-0.87607 0.00001-1.5669 0.27929-2.0726 0.83784-0.50565 0.55857-0.75847 1.32-0.75847 2.2842v5.5827h-1.6316v-9.8778h1.6316v1.5346c0.38805-0.59383 0.84372-1.0377 1.367-1.3317 0.52916-0.29397 1.1377-0.44096 1.8256-0.44097 1.1348 0.00001 1.9932 0.35278 2.5753 1.0583 0.58207 0.69968 0.87312 1.7316 0.87313 3.0956"/>
  <path id="path3053" style="" d="m224.9 251.4v2.8046h3.3426v1.2612h-3.3426v5.3622c0 0.80551 0.10877 1.3229 0.32632 1.5522 0.22342 0.2293 0.67322 0.34396 1.3494 0.34396h1.6669v1.3582h-1.6669c-1.2524 0-2.1167-0.23225-2.5929-0.69674-0.47625-0.47037-0.71437-1.3229-0.71437-2.5576v-5.3622h-1.1906v-1.2612h1.1906v-2.8046h1.6316"/>
  <path id="path3055" style="" d="m242.93 253.09-3.1662 1.711 3.1662 1.7198-0.51153 0.86431-2.9633-1.7904v3.3249h-1.0054v-3.3249l-2.9633 1.7904-0.51152-0.86431 3.1662-1.7198-3.1662-1.711 0.51152-0.87312 2.9633 1.7904v-3.3249h1.0054v3.3249l2.9633-1.7904 0.51153 0.87312"/>
  <path id="path3057" style="" d="m251.46 254.5v1.5346c-0.45862-0.23517-0.93487-0.41156-1.4288-0.52916-0.4939-0.11758-1.0054-0.17638-1.5346-0.17639-0.80552 0.00001-1.4111 0.12348-1.8168 0.37042-0.39981 0.24695-0.59972 0.61736-0.59972 1.1112 0 0.3763 0.14405 0.67322 0.43215 0.89076 0.2881 0.21167 0.86724 0.41452 1.7374 0.60854l0.55563 0.12347c1.1524 0.24695 1.9697 0.59679 2.4518 1.0495 0.488 0.44686 0.732 1.073 0.73201 1.8785-0.00001 0.91723-0.36454 1.6434-1.0936 2.1784-0.7232 0.53505-1.7198 0.80257-2.9898 0.80257-0.52917 0-1.0818-0.0529-1.658-0.15875-0.57032-0.1-1.173-0.25282-1.808-0.45861v-1.6757c0.59972 0.31162 1.1906 0.54681 1.7727 0.70555 0.58208 0.15287 1.1583 0.22931 1.7286 0.22931 0.76435 0 1.3523-0.12935 1.7639-0.38806 0.41157-0.26458 0.61735-0.63499 0.61736-1.1112-0.00001-0.44097-0.14994-0.77905-0.44979-1.0142-0.29399-0.23518-0.94369-0.46155-1.9491-0.6791l-0.56444-0.13229c-1.0054-0.21166-1.7316-0.53504-2.1784-0.97014-0.44685-0.44096-0.67028-1.0436-0.67028-1.808 0-0.92897 0.32926-1.6463 0.98778-2.1519 0.65851-0.50564 1.5934-0.75846 2.8046-0.75847 0.59972 0.00001 1.1642 0.0441 1.6933 0.13229 0.52916 0.0882 1.0172 0.22049 1.464 0.39687"/>
 </g>
 <g id="text40">
  <path id="path3060" style="" d="m187.86 372.52v-1.6228c0.44685 0.21167 0.89958 0.37336 1.3582 0.48507 0.45861 0.11171 0.9084 0.16757 1.3494 0.16757 1.1759 0 2.0726-0.39394 2.6899-1.1818 0.62324-0.79374 0.97895-1.9961 1.0672-3.6072-0.34103 0.50566-0.77318 0.89371-1.2965 1.1642-0.52329 0.27047-1.1024 0.4057-1.7374 0.40569-1.317 0.00001-2.3607-0.39687-3.1309-1.1906-0.76435-0.79962-1.1465-1.8903-1.1465-3.272-0.00001-1.3523 0.39981-2.4371 1.1994-3.2544 0.79962-0.81726 1.8638-1.2259 3.1926-1.2259 1.5228 0.00001 2.684 0.58503 3.4837 1.7551 0.8055 1.1642 1.2082 2.8575 1.2083 5.08-0.00001 2.0755-0.4939 3.7336-1.4817 4.9742-0.98191 1.2347-2.3048 1.8521-3.9688 1.8521-0.44685 0-0.89958-0.0441-1.3582-0.13229-0.45861-0.0882-0.93486-0.22049-1.4288-0.39688m3.5454-5.5827c0.79963 0.00001 1.4317-0.27339 1.8962-0.8202 0.47036-0.5468 0.70555-1.2964 0.70556-2.249-0.00001-0.94661-0.2352-1.6933-0.70556-2.2401-0.4645-0.55267-1.0966-0.82901-1.8962-0.82902-0.79963 0.00001-1.4346 0.27635-1.905 0.82902-0.4645 0.54682-0.69674 1.2935-0.69674 2.2401 0 0.95251 0.23224 1.7022 0.69674 2.249 0.47036 0.54681 1.1054 0.82021 1.905 0.8202"/>
  <path id="path3062" style="" d="m199.49 370.56h1.8609v1.5169l-1.4464 2.8222h-1.1377l0.72319-2.8222v-1.5169"/>
  <path id="path3064" style="" d="m210.82 359.63h6.9938v1.4993h-5.3622v3.2279c0.2587-0.0882 0.5174-0.15286 0.77611-0.19403 0.2587-0.047 0.5174-0.0706 0.77611-0.0706 1.4699 0 2.6341 0.40276 3.4925 1.2083 0.85841 0.80551 1.2876 1.8962 1.2876 3.272-0.00001 1.417-0.44099 2.5194-1.3229 3.3073-0.88195 0.78199-2.1255 1.173-3.7306 1.173-0.55269 0-1.1171-0.047-1.6933-0.14111-0.57033-0.0941-1.1612-0.23519-1.7727-0.42333v-1.7904c0.52917 0.2881 1.076 0.50271 1.6404 0.64382 0.56444 0.14111 1.1612 0.21167 1.7903 0.21167 1.0172 0 1.8227-0.26752 2.4165-0.80257 0.59383-0.53505 0.89075-1.2612 0.89076-2.1784-0.00001-0.91722-0.29693-1.6434-0.89076-2.1784-0.59385-0.53504-1.3994-0.80256-2.4165-0.80257-0.47625 0.00001-0.9525 0.0529-1.4288 0.15875-0.47037 0.10584-0.9525 0.27047-1.4464 0.49389v-6.6146"/>
  <path id="path3066" style="" d="m222.32 359.63h6.9938v1.4993h-5.3622v3.2279c0.2587-0.0882 0.51741-0.15286 0.77611-0.19403 0.2587-0.047 0.51741-0.0706 0.77611-0.0706 1.4699 0 2.6341 0.40276 3.4925 1.2083 0.85842 0.80551 1.2876 1.8962 1.2876 3.272-0.00001 1.417-0.44098 2.5194-1.3229 3.3073-0.88195 0.78199-2.1255 1.173-3.7306 1.173-0.55269 0-1.1171-0.047-1.6933-0.14111-0.57033-0.0941-1.1612-0.23519-1.7727-0.42333v-1.7904c0.52917 0.2881 1.076 0.50271 1.6404 0.64382 0.56444 0.14111 1.1612 0.21167 1.7903 0.21167 1.0172 0 1.8227-0.26752 2.4165-0.80257 0.59383-0.53505 0.89075-1.2612 0.89076-2.1784-0.00001-0.91722-0.29693-1.6434-0.89076-2.1784-0.59385-0.53504-1.3994-0.80256-2.4165-0.80257-0.47625 0.00001-0.9525 0.0529-1.4287 0.15875-0.47038 0.10584-0.95251 0.27047-1.4464 0.49389v-6.6146"/>
  <path id="path3068" style="" d="m233.99 370.56h1.8609v1.5169l-1.4464 2.8222h-1.1377l0.72319-2.8222v-1.5169"/>
  <path id="path3070" style="" d="m245.62 371.3h2.9104v-10.045l-3.1662 0.635v-1.6228l3.1485-0.635h1.7815v11.668h2.9104v1.4993h-7.5847v-1.4993"/>
  <path id="path3072" style="" d="m258.34 371.3h6.2177v1.4993h-8.3608v-1.4993c0.67616-0.69967 1.5963-1.6375 2.7605-2.8134 1.17-1.1818 1.905-1.9432 2.2048-2.2842 0.57032-0.64087 0.9672-1.1818 1.1906-1.6228 0.2293-0.44684 0.34395-0.88487 0.34396-1.3141-0.00001-0.69967-0.24696-1.27-0.74084-1.711-0.48801-0.44096-1.126-0.66145-1.9138-0.66146-0.55857 0.00001-1.1495 0.097-1.7727 0.29104-0.61736 0.19404-1.2788 0.48802-1.9844 0.88195v-1.7992c0.71731-0.28809 1.3876-0.50563 2.0108-0.65264 0.62323-0.14697 1.1936-0.22047 1.711-0.22048 1.3641 0.00001 2.4518 0.34103 3.2632 1.023 0.81138 0.68205 1.2171 1.5934 1.2171 2.734-0.00001 0.54093-0.1029 1.0554-0.30868 1.5434-0.19992 0.48213-0.56739 1.0525-1.1024 1.711-0.147 0.17051-0.61443 0.6644-1.4023 1.4817-0.78787 0.81139-1.8991 1.9491-3.3337 3.4131"/>
  <path id="path3074" style="" d="m268.49 370.56h1.8609v1.5169l-1.4464 2.8222h-1.1377l0.72319-2.8222v-1.5169"/>
  <path id="path3076" style="" d="m203.71 393.87h6.2177v1.4993h-8.3608v-1.4993c0.67616-0.69968 1.5963-1.6375 2.7605-2.8134 1.17-1.1818 1.905-1.9432 2.2049-2.2842 0.57032-0.64087 0.96719-1.1818 1.1906-1.6228 0.22929-0.44685 0.34395-0.88488 0.34395-1.3141 0-0.69966-0.24695-1.27-0.74083-1.711-0.48801-0.44096-1.126-0.66144-1.9138-0.66146-0.55856 0.00002-1.1495 0.097-1.7727 0.29105-0.61737 0.19403-1.2788 0.48801-1.9844 0.88194v-1.7992c0.71731-0.28808 1.3876-0.50563 2.0108-0.65263 0.62323-0.14698 1.1936-0.22048 1.711-0.22049 1.3641 0.00001 2.4518 0.34103 3.2632 1.023 0.81138 0.68205 1.2171 1.5934 1.2171 2.734-0.00001 0.54093-0.1029 1.0554-0.30868 1.5434-0.19992 0.48214-0.56739 1.0525-1.1024 1.711-0.147 0.17052-0.61443 0.6644-1.4023 1.4817-0.78788 0.8114-1.8991 1.9491-3.3338 3.4131"/>
  <path id="path3078" style="" d="m213.23 382.21h8.4667v0.75848l-4.7801 12.409h-1.8609l4.4979-11.668h-6.3235v-1.4993"/>
  <path id="path3080" style="" d="m225.37 393.13h1.8609v1.517l-1.4464 2.8222h-1.1377l0.72319-2.8222v-1.517"/>
  <path id="path3082" style="" d="m236.7 382.21h6.9938v1.4993h-5.3622v3.2279c0.2587-0.0882 0.5174-0.15286 0.77611-0.19403 0.2587-0.047 0.5174-0.0705 0.77611-0.0705 1.4699 0.00001 2.6341 0.40276 3.4925 1.2083 0.85841 0.80552 1.2876 1.8962 1.2876 3.272-0.00001 1.417-0.44098 2.5194-1.3229 3.3073-0.88195 0.78199-2.1255 1.173-3.7306 1.173-0.55269 0-1.1171-0.047-1.6933-0.14111-0.57033-0.0941-1.1612-0.23518-1.7727-0.42333v-1.7904c0.52917 0.28811 1.076 0.50271 1.6404 0.64382 0.56444 0.14112 1.1612 0.21167 1.7903 0.21167 1.0172 0 1.8227-0.26752 2.4165-0.80257 0.59383-0.53504 0.89075-1.2612 0.89076-2.1784-0.00001-0.91722-0.29693-1.6434-0.89076-2.1784-0.59385-0.53504-1.3994-0.80256-2.4165-0.80257-0.47625 0.00001-0.9525 0.0529-1.4288 0.15875-0.47037 0.10584-0.9525 0.27047-1.4464 0.49389v-6.6146"/>
  <path id="path3084" style="" d="m252.21 388.08c-0.79963 0-1.4346 0.27341-1.905 0.82021-0.46449 0.54681-0.69674 1.2965-0.69673 2.249-0.00001 0.94662 0.23224 1.6963 0.69673 2.249 0.47037 0.5468 1.1054 0.8202 1.905 0.8202 0.79962 0 1.4317-0.2734 1.8962-0.8202 0.47036-0.55269 0.70554-1.3023 0.70555-2.249-0.00001-0.95249-0.23519-1.7021-0.70555-2.249-0.4645-0.5468-1.0966-0.82021-1.8962-0.82021m3.5366-5.5827v1.6228c-0.44686-0.21165-0.89959-0.37334-1.3582-0.48507-0.45274-0.1117-0.90253-0.16755-1.3494-0.16757-1.1759 0.00002-2.0755 0.39689-2.6988 1.1906-0.61736 0.79376-0.97014 1.9932-1.0583 3.5983 0.34689-0.51152 0.78198-0.90252 1.3053-1.173 0.52329-0.27633 1.0995-0.4145 1.7286-0.41451 1.3229 0.00001 2.3665 0.40276 3.1309 1.2083 0.77022 0.79964 1.1553 1.8903 1.1554 3.272-0.00001 1.3523-0.39983 2.4371-1.1994 3.2544-0.79963 0.81727-1.8638 1.2259-3.1926 1.2259-1.5228 0-2.687-0.58208-3.4925-1.7462-0.80551-1.17-1.2083-2.8634-1.2083-5.08 0-2.0814 0.49389-3.7394 1.4817-4.9742 0.98777-1.2406 2.3136-1.8609 3.9776-1.8609 0.44685 0.00001 0.89664 0.0441 1.3494 0.13229 0.45861 0.0882 0.93486 0.2205 1.4288 0.39688"/>
 </g>
 <g id="g46" transform="translate(-1 -2.1658)">
  <path id="rect48" fill="#bfbfbf" d="m160 140h140v60h-140z"/>
  <path id="rect50" d="m160 140h140v60h-140z" stroke="#000" stroke-width="2" fill="none"/>
 </g>
 <g id="text52">
  <path id="path3089" style="" d="m203.29 164.21h1.6228v9.8778h-1.6228v-9.8778m0-3.8453h1.6228v2.0549h-1.6228v-2.0549"/>
  <path id="path3091" style="" d="m216.51 168.12v5.9619h-1.6228v-5.909c-0.00001-0.93485-0.18228-1.6345-0.54681-2.099-0.36454-0.46448-0.91135-0.69673-1.6404-0.69674-0.87607 0.00001-1.5669 0.27929-2.0726 0.83785-0.50565 0.55857-0.75848 1.32-0.75847 2.2842v5.5827h-1.6316v-9.8778h1.6316v1.5346c0.38805-0.59383 0.84372-1.0378 1.367-1.3317 0.52916-0.29397 1.1377-0.44096 1.8256-0.44097 1.1348 0.00001 1.9932 0.35279 2.5753 1.0583 0.58207 0.69969 0.87311 1.7316 0.87312 3.0956"/>
  <path id="path3093" style="" d="m221.37 161.4v2.8046h3.3426v1.2612h-3.3426v5.3622c0 0.80551 0.10877 1.3229 0.32632 1.5522 0.22342 0.22931 0.67321 0.34396 1.3494 0.34396h1.6669v1.3582h-1.6669c-1.2524 0-2.1167-0.23224-2.5929-0.69673-0.47625-0.47037-0.71438-1.3229-0.71438-2.5576v-5.3622h-1.1906v-1.2612h1.1906v-2.8046h1.6316"/>
  <path id="path3095" style="" d="m239.4 163.09-3.1662 1.711 3.1662 1.7198-0.51152 0.8643-2.9633-1.7903v3.3249h-1.0054v-3.3249l-2.9633 1.7903-0.51153-0.8643 3.1662-1.7198-3.1662-1.711 0.51153-0.87313 2.9633 1.7904v-3.3249h1.0054v3.3249l2.9633-1.7904 0.51152 0.87313"/>
  <path id="path3097" style="" d="m241.47 170.19v-5.9796h1.6228v5.9178c0 0.93486 0.18227 1.6375 0.54681 2.1078 0.36453 0.46449 0.91134 0.69674 1.6404 0.69674 0.87606 0 1.5669-0.27928 2.0726-0.83785 0.51152-0.55856 0.76728-1.32 0.76729-2.2842v-5.6003h1.6228v9.8778h-1.6228v-1.5169c-0.39394 0.59972-0.85255 1.0466-1.3758 1.3406-0.51741 0.28811-1.1201 0.43216-1.808 0.43216-1.1348 0-1.9961-0.35278-2.5841-1.0583-0.58796-0.70555-0.88194-1.7374-0.88194-3.0956m4.0834-6.2177"/>
  <path id="path3099" style="" d="m253.1 164.21h1.6228v10.054c0 1.2582-0.24107 2.1696-0.72319 2.734-0.47625 0.56444-1.2465 0.84666-2.3107 0.84666h-0.61737v-1.3758h0.43216c0.61736 0 1.0378-0.14405 1.2612-0.43215 0.22342-0.28223 0.33513-0.87313 0.33513-1.7727v-10.054m0-3.8453h1.6228v2.0549h-1.6228v-2.0549"/>
 </g>
 <g id="text56">
  <path id="path3102" style="" d="m169.92 124.08-5.0271-13.167h1.8609l4.1716 11.086 4.1804-11.086h1.8521l-5.0183 13.167h-2.0196"/>
  <path id="path3104" style="" d="m185.85 118.74v0.79375h-7.4612c0.0705 1.1171 0.40569 1.9697 1.0054 2.5576 0.6056 0.58208 1.4464 0.87312 2.5224 0.87312 0.62323 0 1.2259-0.0764 1.808-0.22931 0.58796-0.15286 1.17-0.38217 1.7462-0.68791v1.5346c-0.58209 0.24694-1.1789 0.43509-1.7903 0.56444-0.61149 0.12936-1.2318 0.19403-1.8609 0.19403-1.5758 0-2.8252-0.45861-3.7483-1.3758-0.91723-0.91722-1.3758-2.1578-1.3758-3.7218 0-1.6169 0.4351-2.8986 1.3053-3.8453 0.87606-0.95249 2.0549-1.4287 3.5366-1.4288 1.3288 0.00001 2.3783 0.42922 3.1485 1.2876 0.7761 0.85256 1.1642 2.0138 1.1642 3.4837m-1.6228-0.47625c-0.0118-0.88781-0.26165-1.5963-0.74965-2.1255-0.48214-0.52916-1.123-0.79374-1.9226-0.79375-0.90546 0.00001-1.6316 0.25577-2.1784 0.76729-0.54093 0.51153-0.85255 1.2318-0.93486 2.1608l5.7856-0.009"/>
  <path id="path3106" style="" d="m194.23 115.72c-0.18228-0.10582-0.38218-0.18226-0.59972-0.2293-0.21168-0.0529-0.44686-0.0794-0.70556-0.0794-0.91722 0.00001-1.6228 0.29987-2.1167 0.89959-0.48801 0.59385-0.73202 1.4493-0.73202 2.5664v5.2035h-1.6316v-9.8778h1.6316v1.5346c0.34102-0.59971 0.78493-1.0436 1.3317-1.3317 0.5468-0.29397 1.2112-0.44096 1.9932-0.44097 0.11171 0.00001 0.23518 0.009 0.37042 0.0265 0.13522 0.0118 0.28515 0.0323 0.44979 0.0617l0.009 1.6669"/>
  <path id="path3108" style="" d="m204.01 118.74v0.79375h-7.4612c0.0705 1.1171 0.40569 1.9697 1.0054 2.5576 0.60559 0.58208 1.4464 0.87312 2.5224 0.87312 0.62323 0 1.2259-0.0764 1.808-0.22931 0.58795-0.15286 1.17-0.38217 1.7462-0.68791v1.5346c-0.58209 0.24694-1.1789 0.43509-1.7904 0.56444-0.61149 0.12936-1.2318 0.19403-1.8609 0.19403-1.5757 0-2.8252-0.45861-3.7483-1.3758-0.91722-0.91722-1.3758-2.1578-1.3758-3.7218 0-1.6169 0.43509-2.8986 1.3053-3.8453 0.87606-0.95249 2.0549-1.4287 3.5366-1.4288 1.3288 0.00001 2.3783 0.42922 3.1485 1.2876 0.7761 0.85256 1.1642 2.0138 1.1642 3.4837m-1.6228-0.47625c-0.0118-0.88781-0.26165-1.5963-0.74965-2.1255-0.48214-0.52916-1.123-0.79374-1.9226-0.79375-0.90547 0.00001-1.6316 0.25577-2.1784 0.76729-0.54093 0.51153-0.85255 1.2318-0.93486 2.1608l5.7856-0.009"/>
  <path id="path3110" style="" d="m214.36 116.1c0.40568-0.72906 0.89075-1.267 1.4552-1.614 0.56443-0.34688 1.2288-0.52033 1.9932-0.52034 1.0289 0.00001 1.8227 0.3616 2.3812 1.0848 0.55855 0.71732 0.83783 1.7404 0.83785 3.0692v5.9619h-1.6316v-5.909c-0.00001-0.94662-0.16758-1.6492-0.50271-2.1078-0.33515-0.4586-0.84667-0.6879-1.5346-0.68791-0.84079 0.00001-1.5052 0.27929-1.9932 0.83784-0.48802 0.55857-0.73202 1.32-0.73201 2.2842v5.5827h-1.6316v-5.909c-0.00001-0.95249-0.16757-1.6551-0.50271-2.1078-0.33514-0.4586-0.85255-0.6879-1.5522-0.68791-0.82903 0.00001-1.4875 0.28223-1.9756 0.84666-0.48801 0.55857-0.73201 1.317-0.73201 2.2754v5.5827h-1.6316v-9.8778h1.6316v1.5346c0.37041-0.60559 0.81432-1.0524 1.3317-1.3406 0.5174-0.28809 1.1318-0.43214 1.8433-0.43215 0.71731 0.00001 1.3258 0.18228 1.8256 0.5468 0.50564 0.36455 0.87899 0.89371 1.1201 1.5875"/>
 </g>
 <g id="g60" transform="translate(-1 -2.1658)">
  <path id="rect62" fill="#bfbfbf" d="m160 200h140v40h-140z"/>
  <path id="rect64" d="m160 200h140v40h-140z" stroke="#000" stroke-width="2" fill="none"/>
 </g>
 <g id="text66">
  <path id="path3115" style="" d="m166.55 210.38c-0.78788 1.3523-1.3729 2.6899-1.7551 4.0128-0.38218 1.3229-0.57326 2.6635-0.57326 4.0217s0.19108 2.7046 0.57326 4.0393c0.38805 1.3288 0.97307 2.6664 1.7551 4.0128h-1.4111c-0.88195-1.3817-1.5434-2.7399-1.9844-4.0746-0.4351-1.3347-0.65264-2.6605-0.65264-3.9776 0-1.3112 0.21754-2.6311 0.65264-3.9599 0.43509-1.3288 1.0965-2.687 1.9844-4.0746h1.4111"/>
  <path id="path3117" style="" d="m168.54 214.21h1.7198l3.0868 8.2903 3.0868-8.2903h1.7198l-3.7042 9.8778h-2.2049l-3.7042-9.8778"/>
  <path id="path3119" style="" d="m180.4 214.21h1.6228v9.8778h-1.6228v-9.8778m0-3.8453h1.6228v2.0549h-1.6228v-2.0549"/>
  <path id="path3121" style="" d="m191.7 214.5v1.5346c-0.45861-0.23518-0.93486-0.41157-1.4287-0.52917-0.4939-0.11758-1.0054-0.17638-1.5346-0.17639-0.80551 0.00001-1.4111 0.12349-1.8168 0.37042-0.39982 0.24695-0.59972 0.61737-0.59972 1.1112 0 0.3763 0.14405 0.67322 0.43215 0.89076 0.2881 0.21168 0.86724 0.41452 1.7374 0.60854l0.55562 0.12348c1.1524 0.24695 1.9697 0.59678 2.4518 1.0495 0.488 0.44685 0.732 1.073 0.73201 1.8785-0.00001 0.91722-0.36454 1.6434-1.0936 2.1784-0.7232 0.53504-1.7198 0.80257-2.9898 0.80257-0.52917 0-1.0818-0.0529-1.658-0.15875-0.57033-0.1-1.173-0.25283-1.808-0.45861v-1.6757c0.59972 0.31163 1.1906 0.54681 1.7727 0.70556 0.58208 0.15287 1.1583 0.2293 1.7286 0.2293 0.76435 0 1.3523-0.12935 1.7639-0.38805 0.41156-0.26458 0.61735-0.635 0.61736-1.1112-0.00001-0.44097-0.14994-0.77905-0.44979-1.0142-0.29399-0.23518-0.94369-0.46154-1.9491-0.67909l-0.56444-0.13229c-1.0054-0.21166-1.7316-0.53504-2.1784-0.97014-0.44686-0.44097-0.67028-1.0436-0.67028-1.808 0-0.92898 0.32926-1.6463 0.98778-2.152 0.65851-0.50563 1.5934-0.75846 2.8046-0.75847 0.59971 0.00001 1.1642 0.0441 1.6933 0.13229 0.52916 0.0882 1.0172 0.2205 1.464 0.39688"/>
  <path id="path3123" style="" d="m201.12 214.5v1.5346c-0.45862-0.23518-0.93487-0.41157-1.4288-0.52917-0.49389-0.11758-1.0054-0.17638-1.5346-0.17639-0.80551 0.00001-1.4111 0.12349-1.8168 0.37042-0.39982 0.24695-0.59973 0.61737-0.59973 1.1112 0 0.3763 0.14405 0.67322 0.43216 0.89076 0.28809 0.21168 0.86724 0.41452 1.7374 0.60854l0.55563 0.12348c1.1524 0.24695 1.9697 0.59678 2.4518 1.0495 0.488 0.44685 0.73201 1.073 0.73201 1.8785 0 0.91722-0.36454 1.6434-1.0936 2.1784-0.72321 0.53504-1.7198 0.80257-2.9898 0.80257-0.52917 0-1.0819-0.0529-1.6581-0.15875-0.57032-0.1-1.173-0.25283-1.808-0.45861v-1.6757c0.59972 0.31163 1.1906 0.54681 1.7727 0.70556 0.58208 0.15287 1.1583 0.2293 1.7286 0.2293 0.76435 0 1.3523-0.12935 1.7639-0.38805 0.41157-0.26458 0.61736-0.635 0.61736-1.1112 0-0.44097-0.14994-0.77905-0.44979-1.0142-0.29399-0.23518-0.94368-0.46154-1.9491-0.67909l-0.56445-0.13229c-1.0054-0.21166-1.7316-0.53504-2.1784-0.97014-0.44685-0.44097-0.67028-1.0436-0.67027-1.808-0.00001-0.92898 0.32925-1.6463 0.98777-2.152 0.65852-0.50563 1.5934-0.75846 2.8046-0.75847 0.59972 0.00001 1.1642 0.0441 1.6933 0.13229 0.52916 0.0882 1.0172 0.2205 1.464 0.39688"/>
  <path id="path3125" style="" d="m203.54 214.21h7.7082v1.4817l-6.103 7.0996h6.103v1.2964h-7.9287v-1.4817l6.103-7.0996h-5.8826v-1.2964"/>
  <path id="path3127" style="" d="m218.22 219.12c-1.3112 0.00001-2.2196 0.14994-2.7252 0.44979-0.50565 0.29987-0.75848 0.81139-0.75847 1.5346-0.00001 0.57621 0.18814 1.0348 0.56444 1.3758 0.38217 0.33514 0.89958 0.5027 1.5522 0.5027 0.89958 0 1.6198-0.31749 2.1608-0.9525 0.5468-0.64087 0.8202-1.4905 0.82021-2.5488v-0.3616h-1.614m3.2367-0.67028v5.6356h-1.6228v-1.4993c-0.37043 0.59972-0.83198 1.0436-1.3846 1.3317-0.55269 0.28223-1.2288 0.42334-2.0285 0.42334-1.0113 0-1.8168-0.28223-2.4165-0.84667-0.59384-0.57032-0.89076-1.3317-0.89076-2.2842 0-1.1112 0.37041-1.9491 1.1112-2.5135 0.74671-0.56444 1.858-0.84666 3.3337-0.84667h2.2754v-0.15875c-0.00001-0.7467-0.24695-1.3229-0.74083-1.7286-0.48802-0.41156-1.1759-0.61735-2.0638-0.61736-0.56445 0.00001-1.1142 0.0676-1.6492 0.20285-0.53504 0.13524-1.0495 0.33809-1.5434 0.60854v-1.4993c0.59384-0.2293 1.17-0.39981 1.7286-0.51153 0.55856-0.11758 1.1024-0.17638 1.6316-0.17639 1.4287 0.00001 2.4959 0.37043 3.2014 1.1112 0.70555 0.74084 1.0583 1.8638 1.0583 3.369"/>
  <path id="path3129" style="" d="m226.42 211.4v2.8046h3.3426v1.2612h-3.3426v5.3622c-0.00001 0.80551 0.10877 1.3229 0.32632 1.5522 0.22342 0.22931 0.67321 0.34396 1.3494 0.34396h1.6669v1.3582h-1.6669c-1.2524 0-2.1167-0.23224-2.5929-0.69673-0.47626-0.47037-0.71438-1.3229-0.71438-2.5576v-5.3622h-1.1906v-1.2612h1.1906v-2.8046h1.6316"/>
  <path id="path3131" style="" d="m240.35 218.74v0.79374h-7.4612c0.0705 1.1171 0.40569 1.9697 1.0054 2.5576 0.6056 0.58208 1.4464 0.87313 2.5224 0.87312 0.62323 0.00001 1.2259-0.0764 1.808-0.2293 0.58796-0.15287 1.17-0.38217 1.7462-0.68792v1.5346c-0.58209 0.24694-1.1789 0.43509-1.7903 0.56444-0.61149 0.12935-1.2318 0.19403-1.8609 0.19403-1.5758 0-2.8252-0.45861-3.7483-1.3758-0.91723-0.91721-1.3758-2.1578-1.3758-3.7218-0.00001-1.6169 0.43509-2.8986 1.3053-3.8453 0.87606-0.95249 2.0549-1.4287 3.5366-1.4288 1.3288 0.00001 2.3783 0.42922 3.1485 1.2876 0.7761 0.85255 1.1642 2.0138 1.1642 3.4837m-1.6228-0.47625c-0.0118-0.88782-0.26165-1.5963-0.74965-2.1255-0.48214-0.52915-1.123-0.79374-1.9226-0.79375-0.90546 0.00001-1.6316 0.25578-2.1784 0.76729-0.54093 0.51154-0.85255 1.2318-0.93486 2.1608l5.7856-0.009m-1.561-8.6254h1.7551l-2.8751 3.3161h-1.3494l2.4694-3.3161"/>
  <path id="path3133" style="" d="m248.74 215.72c-0.18228-0.10583-0.38218-0.18226-0.59972-0.22931-0.21167-0.0529-0.44686-0.0794-0.70556-0.0794-0.91722 0.00001-1.6228 0.29987-2.1167 0.89958-0.48801 0.59385-0.73202 1.4493-0.73201 2.5665v5.2035h-1.6316v-9.8778h1.6316v1.5346c0.34101-0.59971 0.78492-1.0436 1.3317-1.3317 0.5468-0.29397 1.2112-0.44096 1.9932-0.44097 0.11171 0.00001 0.23518 0.009 0.37042 0.0265 0.13522 0.0118 0.28515 0.0323 0.44979 0.0617l0.009 1.6669"/>
  <path id="path3135" style="" d="m249.03 221.84h1.8609v2.2401h-1.8609v-2.2401"/>
  <path id="path3137" style="" d="m268.75 218.74v0.79374h-7.4612c0.0705 1.1171 0.40569 1.9697 1.0054 2.5576 0.6056 0.58208 1.4464 0.87313 2.5224 0.87312 0.62324 0.00001 1.2259-0.0764 1.808-0.2293 0.58795-0.15287 1.17-0.38217 1.7462-0.68792v1.5346c-0.58209 0.24694-1.1789 0.43509-1.7903 0.56444-0.61149 0.12935-1.2318 0.19403-1.8609 0.19403-1.5757 0-2.8252-0.45861-3.7483-1.3758-0.91722-0.91721-1.3758-2.1578-1.3758-3.7218 0-1.6169 0.43509-2.8986 1.3053-3.8453 0.87606-0.95249 2.0549-1.4287 3.5366-1.4288 1.3288 0.00001 2.3783 0.42922 3.1485 1.2876 0.77611 0.85255 1.1642 2.0138 1.1642 3.4837m-1.6228-0.47625c-0.0118-0.88782-0.26165-1.5963-0.74965-2.1255-0.48213-0.52915-1.123-0.79374-1.9226-0.79375-0.90547 0.00001-1.6316 0.25578-2.1784 0.76729-0.54093 0.51154-0.85255 1.2318-0.93486 2.1608l5.7855-0.009m-1.561-8.6254h1.7551l-2.8751 3.3161h-1.3494l2.4694-3.3161"/>
  <path id="path3139" style="" d="m277.14 215.72c-0.18227-0.10583-0.38218-0.18226-0.59972-0.22931-0.21167-0.0529-0.44686-0.0794-0.70555-0.0794-0.91723 0.00001-1.6228 0.29987-2.1167 0.89958-0.48801 0.59385-0.73201 1.4493-0.73201 2.5665v5.2035h-1.6316v-9.8778h1.6316v1.5346c0.34101-0.59971 0.78492-1.0436 1.3317-1.3317 0.5468-0.29397 1.2112-0.44096 1.9932-0.44097 0.1117 0.00001 0.23517 0.009 0.37041 0.0265 0.13523 0.0118 0.28516 0.0323 0.44979 0.0617l0.009 1.6669"/>
  <path id="path3141" style="" d="m280.46 211.4v2.8046h3.3426v1.2612h-3.3426v5.3622c0 0.80551 0.10877 1.3229 0.32632 1.5522 0.22342 0.22931 0.67321 0.34396 1.3494 0.34396h1.6669v1.3582h-1.6669c-1.2524 0-2.1167-0.23224-2.5929-0.69673-0.47625-0.47037-0.71437-1.3229-0.71437-2.5576v-5.3622h-1.1906v-1.2612h1.1906v-2.8046h1.6316"/>
  <path id="path3143" style="" d="m286.18 221.84h1.8609v2.2401h-1.8609v-2.2401"/>
  <path id="path3145" style="" d="m291.44 210.38h1.4111c0.88194 1.3876 1.5405 2.7458 1.9756 4.0746 0.44096 1.3288 0.66145 2.6488 0.66146 3.9599-0.00001 1.317-0.2205 2.6429-0.66146 3.9776-0.4351 1.3347-1.0936 2.6929-1.9756 4.0746h-1.4111c0.78199-1.3464 1.3641-2.684 1.7462-4.0128 0.38805-1.3347 0.58208-2.6811 0.58209-4.0393-0.00001-1.3582-0.19404-2.6987-0.58209-4.0217-0.38218-1.3229-0.96426-2.6605-1.7462-4.0128"/>
 </g>
 <g id="g70" transform="translate(-1 -2.1658)">
  <path id="path72" d="m300 260c40 0 40 120 9.736 120" stroke="#000" stroke-width="2" fill="none"/>
  <path id="polygon74" d="m309.74 380 2.5 5-10-5 10-5z"/>
  <path id="polygon76" d="m309.74 380 2.5 5-10-5 10-5z" stroke="#000" stroke-width="2" fill="none"/>
 </g>
 <path id="line78" d="m199 147.83 60 80" stroke="#f00" stroke-width="2" fill="none"/>
 <path id="line80" d="m199 227.83 60-80" stroke="#f00" stroke-width="2" fill="none"/>
 <g id="g82" transform="translate(-1 -2.1658)">
  <path id="polygon84" fill="#fff" d="m300 320v20h-140v-20l10 10 10-10 20 10 20-10h10l10-10 10 10 20-10 20 20z"/>
  <path id="polygon86" d="m300 320v20h-140v-20l10 10 10-10 20 10 20-10h10l10-10 10 10 20-10 20 20z" stroke="#000" stroke-width="2" fill="none"/>
 </g>
 <g id="g88" transform="translate(-1 -2.1658)">
  <path id="polygon90" fill="#fff" d="m300 440v-20h-140v20l10 10 10-10 20 10 20-20 10 10 10-10 10 20 20-20 10 20z"/>
  <path id="polygon92" d="m300 440v-20h-140v20l10 10 10-10 20 10 20-20 10 10 10-10 10 20 20-20 10 20z" stroke="#000" stroke-width="2" fill="none"/>
 </g>
 <path id="line94" d="m159 137.83v-30" stroke="#000" stroke-width="2" fill="none"/>
 <path id="line96" d="m299 137.83v-30" stroke="#000" stroke-width="2" fill="none"/>
</svg>
