<?xml version="1.0" encoding="UTF-8" standalone="no"?>
<!-- Created with Inkscape (http://www.inkscape.org/) -->
<svg id="svg2" xmlns:rdf="http://www.w3.org/1999/02/22-rdf-syntax-ns#" xmlns="http://www.w3.org/2000/svg" height="274.47" width="813.12" version="1.1" xmlns:cc="http://creativecommons.org/ns#" xmlns:dc="http://purl.org/dc/elements/1.1/" viewBox="279 79 441.99999 148.14376">
 <metadata id="metadata42">
  <rdf:RDF>
   <cc:Work rdf:about="">
    <dc:format>image/svg+xml</dc:format>
    <dc:type rdf:resource="http://purl.org/dc/dcmitype/StillImage"/>
   </cc:Work>
  </rdf:RDF>
 </metadata>
 <g id="g4" transform="translate(0 -3.33)">
  <path id="rect6" fill="#fff" d="m280 100h100v120h-100z"/>
  <path id="rect8" d="m280 100h100v120h-100z" stroke="#000" stroke-width="2" fill="none"/>
 </g>
 <g id="text10">
  <path id="path3002" style="" d="m290.75 91.041v-3.5366h-2.9104v-1.464h4.6743v5.6533c-0.68793 0.48801-1.4464 0.85842-2.2754 1.1112-0.82903 0.24694-1.7139 0.37042-2.6546 0.37042-2.0579-0.000001-3.6689-0.59972-4.833-1.7992-1.1583-1.2053-1.7374-2.881-1.7374-5.0271 0-2.1519 0.57915-3.8276 1.7374-5.0271 1.1642-1.2053 2.7752-1.808 4.833-1.808 0.85842 0.000013 1.6728 0.10585 2.443 0.3175 0.7761 0.21168 1.4905 0.5233 2.1431 0.93486v1.8962c-0.65853-0.55855-1.3582-0.97895-2.099-1.2612-0.74084-0.28221-1.5199-0.42332-2.3372-0.42333-1.611 0.000012-2.8222 0.4498-3.6336 1.3494-0.80551 0.89959-1.2083 2.2401-1.2083 4.0217 0 1.7757 0.40276 3.1133 1.2083 4.0128 0.81138 0.89958 2.0226 1.3494 3.6336 1.3494 0.62911 0.000001 1.1906-0.05292 1.6845-0.15875 0.49387-0.11171 0.93778-0.28222 1.3317-0.51153"/>
  <path id="path3004" style="" d="m295.71 79.197h1.6228v13.723h-1.6228v-13.723"/>
  <path id="path3006" style="" d="m304.54 84.18c-0.87018 0.000009-1.5581 0.34103-2.0637 1.0231-0.50565 0.67616-0.75848 1.6051-0.75847 2.7869-0.00001 1.1818 0.24988 2.1137 0.74965 2.7958 0.50564 0.67616 1.1965 1.0142 2.0726 1.0142 0.8643 0.000001 1.5493-0.34102 2.0549-1.0231 0.50564-0.68203 0.75847-1.611 0.75847-2.7869 0-1.17-0.25283-2.0961-0.75847-2.7781-0.50565-0.68791-1.1906-1.0319-2.0549-1.0319m0-1.3758c1.4111 0.00001 2.5194 0.45862 3.3249 1.3758 0.8055 0.91723 1.2082 2.1872 1.2083 3.81-0.00001 1.6169-0.40276 2.8869-1.2083 3.81-0.80551 0.91722-1.9138 1.3758-3.3249 1.3758-1.417-0.000001-2.5282-0.45861-3.3337-1.3758-0.79963-0.9231-1.1994-2.1931-1.1994-3.81-0.00001-1.6228 0.39981-2.8928 1.1994-3.81 0.8055-0.91721 1.9168-1.3758 3.3337-1.3758"/>
  <path id="path3008" style="" d="m318.85 87.99c-0.00001-1.1936-0.24696-2.1284-0.74084-2.8046-0.48801-0.68203-1.1612-1.023-2.0196-1.0231-0.85843 0.000009-1.5346 0.34103-2.0285 1.0231-0.48801 0.67616-0.73201 1.611-0.73201 2.8046s0.244 2.1314 0.73201 2.8134c0.49389 0.67616 1.17 1.0142 2.0285 1.0142 0.85842 0.000001 1.5316-0.33808 2.0196-1.0142 0.49388-0.68203 0.74083-1.6198 0.74084-2.8134m-5.521-3.4484c0.34102-0.58795 0.77023-1.023 1.2876-1.3053 0.52328-0.28809 1.1465-0.43214 1.8697-0.43215 1.1994 0.00001 2.1725 0.47626 2.9192 1.4287 0.75258 0.95251 1.1289 2.2049 1.1289 3.7571-0.00001 1.5522-0.37631 2.8046-1.1289 3.7571-0.74672 0.9525-1.7198 1.4287-2.9192 1.4287-0.7232-0.000001-1.3464-0.14111-1.8697-0.42333-0.51741-0.2881-0.94662-0.72613-1.2876-1.3141v1.4817h-1.6316v-13.723h1.6316v5.3446"/>
  <path id="path3010" style="" d="m327.71 87.955c-1.3112 0.000005-2.2196 0.14994-2.7252 0.44979-0.50565 0.29986-0.75847 0.81139-0.75847 1.5346 0 0.5762 0.18815 1.0348 0.56445 1.3758 0.38217 0.33514 0.89957 0.50271 1.5522 0.50271 0.89957 0.000001 1.6198-0.3175 2.1608-0.9525 0.5468-0.64088 0.8202-1.4905 0.82021-2.5488v-0.3616h-1.614m3.2367-0.67028v5.6356h-1.6228v-1.4993c-0.37043 0.59972-0.83198 1.0436-1.3847 1.3317-0.55269 0.28222-1.2288 0.42333-2.0285 0.42333-1.0113-0.000001-1.8168-0.28222-2.4165-0.84667-0.59384-0.57032-0.89076-1.3317-0.89076-2.2842 0-1.1112 0.37041-1.9491 1.1112-2.5135 0.7467-0.56444 1.858-0.84666 3.3337-0.84667h2.2754v-0.15875c-0.00001-0.7467-0.24696-1.3229-0.74084-1.7286-0.48801-0.41156-1.1759-0.61735-2.0637-0.61736-0.56445 0.000009-1.1142 0.06762-1.6492 0.20285-0.53505 0.13524-1.0495 0.33809-1.5434 0.60854v-1.4993c0.59384-0.2293 1.17-0.3998 1.7286-0.51153 0.55856-0.11758 1.1024-0.17638 1.6316-0.17639 1.4288 0.00001 2.4959 0.37042 3.2015 1.1112 0.70554 0.74084 1.0583 1.8638 1.0583 3.369m-2.9633-8.8106h1.7551l-2.8751 3.3161h-1.3494l2.4694-3.3161"/>
  <path id="path3012" style="" d="m334.3 79.197h1.6228v13.723h-1.6228v-13.723"/>
  <path id="path3014" style="" d="m339.31 83.042h1.6228v9.8778h-1.6228v-9.8778m0-3.8453h1.6228v2.0549h-1.6228v-2.0549"/>
  <path id="path3016" style="" d="m350.62 83.333v1.5346c-0.45862-0.23518-0.93487-0.41156-1.4288-0.52917-0.4939-0.11758-1.0054-0.17638-1.5346-0.17639-0.80551 0.000009-1.4111 0.12348-1.8168 0.37042-0.39981 0.24695-0.59972 0.61737-0.59972 1.1112 0 0.3763 0.14405 0.67322 0.43216 0.89076 0.28809 0.21167 0.86724 0.41452 1.7374 0.60854l0.55563 0.12347c1.1524 0.24695 1.9697 0.59679 2.4518 1.0495 0.488 0.44686 0.732 1.073 0.73201 1.8785-0.00001 0.91722-0.36454 1.6434-1.0936 2.1784-0.7232 0.53505-1.7198 0.80257-2.9898 0.80257-0.52917-0.000001-1.0819-0.05292-1.6581-0.15875-0.57032-0.09995-1.173-0.25282-1.808-0.45861v-1.6757c0.59972 0.31162 1.1906 0.54681 1.7727 0.70556 0.58208 0.15287 1.1583 0.22931 1.7286 0.2293 0.76435 0.000001 1.3523-0.12935 1.7639-0.38806 0.41157-0.26458 0.61735-0.635 0.61736-1.1112-0.00001-0.44097-0.14994-0.77905-0.44979-1.0142-0.29399-0.23518-0.94369-0.46155-1.9491-0.6791l-0.56444-0.13229c-1.0054-0.21166-1.7316-0.53504-2.1784-0.97014-0.44685-0.44097-0.67028-1.0436-0.67028-1.808 0-0.92897 0.32926-1.6463 0.98778-2.1519 0.65852-0.50564 1.5934-0.75846 2.8046-0.75847 0.59972 0.00001 1.1642 0.04411 1.6933 0.13229 0.52916 0.0882 1.0172 0.2205 1.464 0.39688"/>
 </g>
 <g id="text14">
  <path id="path3019" style="" d="m465.17 92.92-5.0271-13.167h1.8609l4.1716 11.086 4.1804-11.086h1.8521l-5.0183 13.167h-2.0196"/>
  <path id="path3021" style="" d="m481.1 87.575v0.79375h-7.4612c0.0706 1.1171 0.40569 1.9697 1.0054 2.5576 0.6056 0.58208 1.4464 0.87312 2.5224 0.87312 0.62323 0.000001 1.2259-0.07643 1.808-0.2293 0.58796-0.15287 1.17-0.38217 1.7462-0.68792v1.5346c-0.58209 0.24694-1.1789 0.43509-1.7903 0.56444-0.61149 0.12935-1.2318 0.19403-1.8609 0.19403-1.5757-0.000001-2.8252-0.45861-3.7482-1.3758-0.91723-0.91722-1.3758-2.1578-1.3758-3.7218 0-1.6169 0.43509-2.8986 1.3053-3.8453 0.87606-0.95249 2.0549-1.4287 3.5366-1.4287 1.3288 0.00001 2.3783 0.42922 3.1485 1.2876 0.7761 0.85255 1.1642 2.0138 1.1642 3.4837m-1.6228-0.47625c-0.0118-0.88782-0.26165-1.5963-0.74965-2.1255-0.48214-0.52916-1.123-0.79374-1.9226-0.79375-0.90547 0.000009-1.6316 0.25577-2.1784 0.76729-0.54093 0.51154-0.85255 1.2318-0.93486 2.1608l5.7856-0.0088"/>
  <path id="path3023" style="" d="m489.48 84.559c-0.18228-0.10582-0.38219-0.18226-0.59972-0.2293-0.21168-0.05291-0.44686-0.07937-0.70556-0.07937-0.91723 0.000008-1.6228 0.29987-2.1167 0.89958-0.48802 0.59385-0.73202 1.4493-0.73202 2.5665v5.2035h-1.6316v-9.8778h1.6316v1.5346c0.34102-0.59971 0.78493-1.0436 1.3317-1.3317 0.5468-0.29397 1.2112-0.44096 1.9932-0.44097 0.11171 0.00001 0.23518 0.0088 0.37042 0.02646 0.13522 0.01177 0.28515 0.03235 0.44979 0.06174l0.009 1.6669"/>
  <path id="path3025" style="" d="m499.26 87.575v0.79375h-7.4612c0.0706 1.1171 0.40569 1.9697 1.0054 2.5576 0.6056 0.58208 1.4464 0.87312 2.5224 0.87312 0.62324 0.000001 1.2259-0.07643 1.808-0.2293 0.58795-0.15287 1.17-0.38217 1.7462-0.68792v1.5346c-0.58209 0.24694-1.1789 0.43509-1.7903 0.56444-0.61149 0.12935-1.2318 0.19403-1.8609 0.19403-1.5757-0.000001-2.8252-0.45861-3.7483-1.3758-0.91722-0.91722-1.3758-2.1578-1.3758-3.7218 0-1.6169 0.43509-2.8986 1.3053-3.8453 0.87606-0.95249 2.0549-1.4287 3.5366-1.4287 1.3288 0.00001 2.3783 0.42922 3.1485 1.2876 0.77611 0.85255 1.1642 2.0138 1.1642 3.4837m-1.6228-0.47625c-0.0118-0.88782-0.26165-1.5963-0.74965-2.1255-0.48213-0.52916-1.123-0.79374-1.9226-0.79375-0.90547 0.000009-1.6316 0.25577-2.1784 0.76729-0.54093 0.51154-0.85255 1.2318-0.93486 2.1608l5.7855-0.0088"/>
  <path id="path3027" style="" d="m509.61 84.938c0.40569-0.72906 0.89076-1.267 1.4552-1.614 0.56443-0.34689 1.2288-0.52034 1.9932-0.52035 1.0289 0.00001 1.8227 0.36161 2.3812 1.0848 0.55855 0.71732 0.83783 1.7404 0.83785 3.0692v5.9619h-1.6316v-5.909c-0.00001-0.94661-0.16758-1.6492-0.50271-2.1078-0.33515-0.4586-0.84668-0.68791-1.5346-0.68792-0.8408 0.000009-1.5052 0.27929-1.9932 0.83785-0.48802 0.55857-0.73202 1.32-0.73201 2.2842v5.5827h-1.6316v-5.909c-0.00001-0.95249-0.16758-1.6551-0.50271-2.1078-0.33514-0.4586-0.85255-0.68791-1.5522-0.68792-0.82903 0.000009-1.4876 0.28223-1.9756 0.84667-0.48801 0.55857-0.73202 1.317-0.73201 2.2754v5.5827h-1.6316v-9.8778h1.6316v1.5346c0.37041-0.60559 0.81432-1.0524 1.3317-1.3406 0.5174-0.28809 1.1318-0.43214 1.8433-0.43215 0.71731 0.00001 1.3258 0.18228 1.8256 0.5468 0.50564 0.36455 0.87899 0.89371 1.1201 1.5875"/>
 </g>
 <g id="text18">
  <path id="path3030" style="" d="m621.77 79.753h1.7815v5.5651l5.909-5.5651h2.2931l-6.5352 6.1383 7.0026 7.0291h-2.346l-6.3235-6.3412v6.3412h-1.7815v-13.167"/>
  <path id="path3032" style="" d="m632.49 89.022v-5.9796h1.6228v5.9178c0 0.93486 0.18227 1.6375 0.54681 2.1078 0.36453 0.46449 0.91134 0.69674 1.6404 0.69674 0.87606 0.000001 1.5669-0.27928 2.0726-0.83785 0.51152-0.55856 0.76728-1.32 0.76729-2.2842v-5.6003h1.6228v9.8778h-1.6228v-1.5169c-0.39394 0.59972-0.85255 1.0466-1.3758 1.3406-0.51741 0.2881-1.1201 0.43215-1.808 0.43215-1.1348-0.000001-1.9961-0.35278-2.5841-1.0583-0.58796-0.70555-0.88194-1.7374-0.88194-3.0956m4.0834-6.2177"/>
  <path id="path3034" style="" d="m645.69 91.438v5.2387h-1.6316v-13.635h1.6316v1.4993c0.34102-0.58795 0.77023-1.023 1.2876-1.3053 0.52328-0.28809 1.1465-0.43214 1.8697-0.43215 1.1994 0.00001 2.1725 0.47626 2.9192 1.4287 0.75258 0.95251 1.1289 2.2049 1.1289 3.7571-0.00001 1.5522-0.37631 2.8046-1.1289 3.7571-0.74672 0.9525-1.7198 1.4287-2.9192 1.4287-0.7232-0.000001-1.3464-0.14111-1.8697-0.42333-0.51741-0.2881-0.94662-0.72613-1.2876-1.3141m5.521-3.4484c-0.00001-1.1936-0.24695-2.1284-0.74083-2.8046-0.48802-0.68203-1.1612-1.023-2.0196-1.0231-0.85843 0.000009-1.5346 0.34103-2.0285 1.0231-0.48802 0.67616-0.73202 1.611-0.73202 2.8046s0.244 2.1314 0.73202 2.8134c0.49388 0.67616 1.17 1.0142 2.0285 1.0142 0.85841 0.000001 1.5316-0.33808 2.0196-1.0142 0.49388-0.68203 0.74082-1.6198 0.74083-2.8134"/>
  <path id="path3036" style="" d="m660.08 87.955c-1.3112 0.000005-2.2196 0.14994-2.7252 0.44979-0.50565 0.29986-0.75847 0.81139-0.75847 1.5346 0 0.5762 0.18815 1.0348 0.56445 1.3758 0.38217 0.33514 0.89957 0.50271 1.5522 0.50271 0.89957 0.000001 1.6198-0.3175 2.1608-0.9525 0.54679-0.64088 0.8202-1.4905 0.8202-2.5488v-0.3616h-1.614m3.2367-0.67028v5.6356h-1.6228v-1.4993c-0.37042 0.59972-0.83197 1.0436-1.3846 1.3317-0.55269 0.28222-1.2288 0.42333-2.0285 0.42333-1.0113-0.000001-1.8168-0.28222-2.4165-0.84667-0.59384-0.57032-0.89076-1.3317-0.89076-2.2842 0-1.1112 0.37041-1.9491 1.1112-2.5135 0.74671-0.56444 1.858-0.84666 3.3338-0.84667h2.2754v-0.15875c0-0.7467-0.24695-1.3229-0.74083-1.7286-0.48801-0.41156-1.1759-0.61735-2.0638-0.61736-0.56444 0.000009-1.1142 0.06762-1.6492 0.20285-0.53505 0.13524-1.0495 0.33809-1.5434 0.60854v-1.4993c0.59384-0.2293 1.17-0.3998 1.7286-0.51153 0.55856-0.11758 1.1024-0.17638 1.6316-0.17639 1.4288 0.00001 2.4959 0.37042 3.2015 1.1112 0.70554 0.74084 1.0583 1.8638 1.0583 3.369"/>
  <path id="path3038" style="" d="m673.77 83.421v1.5169c-0.45862-0.25282-0.92017-0.44096-1.3846-0.56444-0.45862-0.12934-0.92311-0.19402-1.3935-0.19403-1.0525 0.000009-1.8697 0.33515-2.4518 1.0054-0.58209 0.6644-0.87313 1.5993-0.87313 2.8046s0.29104 2.1431 0.87313 2.8134c0.58207 0.6644 1.3993 0.9966 2.4518 0.9966 0.47036 0.000001 0.93485-0.06173 1.3935-0.18521 0.46448-0.12935 0.92603-0.32044 1.3846-0.57326v1.4993c-0.45274 0.21167-0.92311 0.37042-1.4111 0.47625-0.48214 0.10583-0.9966 0.15875-1.5434 0.15875-1.4876-0.000001-2.6694-0.46743-3.5454-1.4023-0.87607-0.93486-1.3141-2.196-1.3141-3.7835 0-1.611 0.44097-2.8781 1.3229-3.8012 0.88782-0.92309 2.102-1.3846 3.6424-1.3847 0.49976 0.00001 0.98777 0.05293 1.464 0.15875 0.47624 0.09996 0.93779 0.25283 1.3846 0.45861"/>
 </g>
 <g id="g22" transform="translate(0 -3.33)">
  <path id="polygon24" fill="#fff" d="m710 230-20-20-10 10-10-10-30 20-10-20-10 10v-120l10 10 10-10 10 10 20-10 10 10 20-20 10 20 10-10v120z"/>
  <path id="polygon26" d="m710 230-20-20-10 10-10-10-30 20-10-20-10 10v-120l10 10 10-10 10 10 20-10 10 10 20-20 10 20 10-10v120z" stroke="#000" stroke-width="2" fill="none"/>
 </g>
 <g id="g28" transform="translate(0 -3.33)">
  <path id="rect30" fill="#fff" d="m460 130h100v90h-100z"/>
  <path id="rect32" d="m460 130h100v90h-100z" stroke="#000" stroke-width="2" fill="none"/>
 </g>
 <path id="line34" d="m460 126.67v-30" stroke="#000" stroke-width="2" fill="none"/>
 <path id="line36" d="m560 126.67v-30" stroke="#000" stroke-width="2" fill="none"/>
</svg>
