<?xml version="1.0" encoding="UTF-8" standalone="no"?>
<!-- Created with Inkscape (http://www.inkscape.org/) -->
<svg id="svg2" xmlns:rdf="http://www.w3.org/1999/02/22-rdf-syntax-ns#" xmlns="http://www.w3.org/2000/svg" height="299.86" width="744.09" version="1.1" xmlns:cc="http://creativecommons.org/ns#" xmlns:dc="http://purl.org/dc/elements/1.1/" viewBox="279 119 402 153.26866">
 <metadata id="metadata232">
  <rdf:RDF>
   <cc:Work rdf:about="">
    <dc:format>image/svg+xml</dc:format>
    <dc:type rdf:resource="http://purl.org/dc/dcmitype/StillImage"/>
   </cc:Work>
  </rdf:RDF>
 </metadata>
 <g id="g4" transform="translate(0 -4.3657)">
  <path id="rect6" fill="#fff" d="m280 140h40v40h-40z"/>
  <path id="rect8" d="m280 140h40v40h-40z" stroke="#000" stroke-width="2" fill="none"/>
 </g>
 <g id="g10" transform="translate(0 -4.3657)">
  <path id="rect12" fill="#fff" d="m360 140h40v40h-40z"/>
  <path id="rect14" d="m360 140h40v40h-40z" stroke="#000" stroke-width="2" fill="none"/>
 </g>
 <g id="g16" transform="translate(0 -4.3657)">
  <path id="rect18" fill="#fff" d="m360 180h40v40h-40z"/>
  <path id="rect20" d="m360 180h40v40h-40z" stroke="#000" stroke-width="2" fill="none"/>
 </g>
 <g id="g22" transform="translate(0 -4.3657)">
  <path id="rect24" fill="#fff" d="m360 220h40v40h-40z"/>
  <path id="rect26" d="m360 220h40v40h-40z" stroke="#000" stroke-width="2" fill="none"/>
 </g>
 <g id="g28" transform="translate(0 -4.3657)">
  <path id="line30" d="m320 160h30.264" stroke="#000" stroke-width="2" fill="none"/>
  <path id="polygon32" d="m350.26 160-2.5-5 10 5-10 5z"/>
  <path id="polygon34" d="m350.26 160-2.5-5 10 5-10 5z" stroke="#000" stroke-width="2" fill="none"/>
 </g>
 <g id="g36" transform="translate(0 -4.3657)">
  <path id="line38" d="m400 160 31.292-15.646" stroke="#000" stroke-width="2" fill="none"/>
  <path id="polygon40" d="m431.29 144.35-4.47-3.35h11.18l-6.708 8.944z"/>
  <path id="polygon42" d="m431.29 144.35-4.47-3.35h11.18l-6.708 8.944z" stroke="#000" stroke-width="2" fill="none"/>
 </g>
 <g id="g44" transform="translate(0 -4.3657)">
  <g id="g46">
   <path id="rect48" fill="#fff" d="m440 240h20v40h-20z"/>
   <path id="rect50" d="m440 240h20v40h-20z" stroke="#000" stroke-width="2" fill="none"/>
  </g>
  <g id="g52">
   <path id="rect54" fill="#fff" d="m460 240h20v40h-20z"/>
   <path id="rect56" d="m460 240h20v40h-20z" stroke="#000" stroke-width="2" fill="none"/>
  </g>
  <g id="g58">
   <path id="rect60" fill="#fff" d="m480 240h20v40h-20z"/>
   <path id="rect62" d="m480 240h20v40h-20z" stroke="#000" stroke-width="2" fill="none"/>
  </g>
  <g id="g64">
   <path id="rect66" fill="#fff" d="m500 240h20v40h-20z"/>
   <path id="rect68" d="m500 240h20v40h-20z" stroke="#000" stroke-width="2" fill="none"/>
  </g>
  <g id="g70">
   <path id="rect72" fill="#fff" d="m520 240h20v40h-20z"/>
   <path id="rect74" d="m520 240h20v40h-20z" stroke="#000" stroke-width="2" fill="none"/>
  </g>
  <g id="g76">
   <path id="rect78" fill="#fff" d="m540 240h20v40h-20z"/>
   <path id="rect80" d="m540 240h20v40h-20z" stroke="#000" stroke-width="2" fill="none"/>
  </g>
  <g id="g82">
   <path id="rect84" fill="#fff" d="m560 240h20v40h-20z"/>
   <path id="rect86" d="m560 240h20v40h-20z" stroke="#000" stroke-width="2" fill="none"/>
  </g>
  <g id="g88">
   <path id="rect90" fill="#fff" d="m580 240h20v40h-20z"/>
   <path id="rect92" d="m580 240h20v40h-20z" stroke="#000" stroke-width="2" fill="none"/>
  </g>
  <g id="g94">
   <path id="rect96" fill="#fff" d="m600 240h20v40h-20z"/>
   <path id="rect98" d="m600 240h20v40h-20z" stroke="#000" stroke-width="2" fill="none"/>
  </g>
  <g id="g100">
   <path id="rect102" fill="#fff" d="m620 240h20v40h-20z"/>
   <path id="rect104" d="m620 240h20v40h-20z" stroke="#000" stroke-width="2" fill="none"/>
  </g>
  <g id="g106">
   <path id="rect108" fill="#fff" d="m640 240h20v40h-20z"/>
   <path id="rect110" d="m640 240h20v40h-20z" stroke="#000" stroke-width="2" fill="none"/>
  </g>
  <g id="g112">
   <path id="rect114" fill="#fff" d="m660 240h20v40h-20z"/>
   <path id="rect116" d="m660 240h20v40h-20z" stroke="#000" stroke-width="2" fill="none"/>
  </g>
 </g>
 <g id="g118" transform="translate(0 -4.3657)">
  <g id="g120">
   <path id="rect122" fill="#bfbfbf" d="m460 180h20v40h-20z"/>
   <path id="rect124" d="m460 180h20v40h-20z" stroke="#000" stroke-width="2" fill="none"/>
  </g>
  <g id="g126">
   <path id="rect128" fill="#bfbfbf" d="m440 180h20v40h-20z"/>
   <path id="rect130" d="m440 180h20v40h-20z" stroke="#000" stroke-width="2" fill="none"/>
  </g>
  <g id="g132">
   <path id="rect134" fill="#bfbfbf" d="m480 180h20v40h-20z"/>
   <path id="rect136" d="m480 180h20v40h-20z" stroke="#000" stroke-width="2" fill="none"/>
  </g>
  <g id="g138">
   <path id="rect140" fill="#bfbfbf" d="m500 180h20v40h-20z"/>
   <path id="rect142" d="m500 180h20v40h-20z" stroke="#000" stroke-width="2" fill="none"/>
  </g>
  <g id="g144">
   <path id="rect146" fill="#bfbfbf" d="m540 180h20v40h-20z"/>
   <path id="rect148" d="m540 180h20v40h-20z" stroke="#000" stroke-width="2" fill="none"/>
  </g>
  <g id="g150">
   <path id="rect152" fill="#bfbfbf" d="m520 180h20v40h-20z"/>
   <path id="rect154" d="m520 180h20v40h-20z" stroke="#000" stroke-width="2" fill="none"/>
  </g>
  <g id="g156">
   <path id="rect158" fill="#bfbfbf" d="m560 180h20v40h-20z"/>
   <path id="rect160" d="m560 180h20v40h-20z" stroke="#000" stroke-width="2" fill="none"/>
  </g>
 </g>
 <g id="g162" transform="translate(0 -4.3657)">
  <g id="g164">
   <path id="rect166" fill="#fff" d="m440 120h20v40h-20z"/>
   <path id="rect168" d="m440 120h20v40h-20z" stroke="#000" stroke-width="2" fill="none"/>
  </g>
  <g id="g170">
   <path id="rect172" fill="#fff" d="m460 120h20v40h-20z"/>
   <path id="rect174" d="m460 120h20v40h-20z" stroke="#000" stroke-width="2" fill="none"/>
  </g>
  <g id="g176">
   <path id="rect178" fill="#fff" d="m480 120h20v40h-20z"/>
   <path id="rect180" d="m480 120h20v40h-20z" stroke="#000" stroke-width="2" fill="none"/>
  </g>
  <g id="g182">
   <path id="rect184" fill="#fff" d="m500 120h20v40h-20z"/>
   <path id="rect186" d="m500 120h20v40h-20z" stroke="#000" stroke-width="2" fill="none"/>
  </g>
  <g id="g188">
   <path id="rect190" fill="#fff" d="m520 120h20v40h-20z"/>
   <path id="rect192" d="m520 120h20v40h-20z" stroke="#000" stroke-width="2" fill="none"/>
  </g>
  <g id="g194">
   <path id="rect196" fill="#fff" d="m540 120h20v40h-20z"/>
   <path id="rect198" d="m540 120h20v40h-20z" stroke="#000" stroke-width="2" fill="none"/>
  </g>
  <g id="g200">
   <path id="rect202" fill="#fff" d="m560 120h20v40h-20z"/>
   <path id="rect204" d="m560 120h20v40h-20z" stroke="#000" stroke-width="2" fill="none"/>
  </g>
  <g id="g206">
   <path id="rect208" fill="#fff" d="m580 120h20v40h-20z"/>
   <path id="rect210" d="m580 120h20v40h-20z" stroke="#000" stroke-width="2" fill="none"/>
  </g>
 </g>
 <g id="g212" transform="translate(0 -4.3657)">
  <path id="line214" d="m400 200h30.264" stroke="#000" stroke-width="2" fill="none"/>
  <path id="polygon216" d="m430.26 200-2.5-5 10 5-10 5z"/>
  <path id="polygon218" d="m430.26 200-2.5-5 10 5-10 5z" stroke="#000" stroke-width="2" fill="none"/>
 </g>
 <g id="g220" transform="translate(0 -4.3657)">
  <path id="line222" d="m400 240 31.292 15.646" stroke="#000" stroke-width="2" fill="none"/>
  <path id="polygon224" d="m431.29 255.65v-5.59l6.708 8.944h-11.18z"/>
  <path id="polygon226" d="m431.29 255.65v-5.59l6.708 8.944h-11.18z" stroke="#000" stroke-width="2" fill="none"/>
 </g>
</svg>
