<?xml version="1.0" encoding="UTF-8" standalone="no"?>
<!-- Created with Inkscape (http://www.inkscape.org/) -->
<svg id="svg2" xmlns:rdf="http://www.w3.org/1999/02/22-rdf-syntax-ns#" xmlns="http://www.w3.org/2000/svg" height="225.82" width="744.09" version="1.1" xmlns:cc="http://creativecommons.org/ns#" xmlns:dc="http://purl.org/dc/elements/1.1/" viewBox="199 99 402 111.98507">
 <metadata id="metadata142">
  <rdf:RDF>
   <cc:Work rdf:about="">
    <dc:format>image/svg+xml</dc:format>
    <dc:type rdf:resource="http://purl.org/dc/dcmitype/StillImage"/>
   </cc:Work>
  </rdf:RDF>
 </metadata>
 <g id="g4" transform="translate(0 -5.0075)">
  <path id="rect6" fill="#fff" d="m200 100h40v40h-40z"/>
  <path id="rect8" d="m200 100h40v40h-40z" stroke="#000" stroke-width="2" fill="none"/>
 </g>
 <g id="g10" transform="translate(0 -5.0075)">
  <path id="rect12" fill="#fff" d="m280 100h40v40h-40z"/>
  <path id="rect14" d="m280 100h40v40h-40z" stroke="#000" stroke-width="2" fill="none"/>
 </g>
 <g id="g16" transform="translate(0 -5.0075)">
  <path id="rect18" fill="#fff" d="m280 140h40v40h-40z"/>
  <path id="rect20" d="m280 140h40v40h-40z" stroke="#000" stroke-width="2" fill="none"/>
 </g>
 <g id="g22" transform="translate(0 -5.0075)">
  <path id="rect24" fill="#fff" d="m280 180h40v40h-40z"/>
  <path id="rect26" d="m280 180h40v40h-40z" stroke="#000" stroke-width="2" fill="none"/>
 </g>
 <g id="g28" transform="translate(0 -5.0075)">
  <path id="line30" d="m240 120h30.264" stroke="#000" stroke-width="2" fill="none"/>
  <path id="polygon32" d="m270.26 120-2.5-5 10 5-10 5z"/>
  <path id="polygon34" d="m270.26 120-2.5-5 10 5-10 5z" stroke="#000" stroke-width="2" fill="none"/>
 </g>
 <g id="g36" transform="translate(0 -5.0075)">
  <path id="line38" d="m320 120h30.264" stroke="#000" stroke-width="2" fill="none"/>
  <path id="polygon40" d="m350.26 120-2.5-5 10 5-10 5z"/>
  <path id="polygon42" d="m350.26 120-2.5-5 10 5-10 5z" stroke="#000" stroke-width="2" fill="none"/>
 </g>
 <g id="g44" transform="translate(0 -5.0075)">
  <path id="path46" d="m320 200h190.26" stroke="#000" stroke-width="2" fill="none"/>
  <path id="polygon48" d="m510.26 200-2.5-5 10 5-10 5z"/>
  <path id="polygon50" d="m510.26 200-2.5-5 10 5-10 5z" stroke="#000" stroke-width="2" fill="none"/>
 </g>
 <g id="g52" transform="translate(0 -5.0075)">
  <g id="g54">
   <path id="rect56" fill="#fff" d="m360 100h20v40h-20z"/>
   <path id="rect58" d="m360 100h20v40h-20z" stroke="#000" stroke-width="2" fill="none"/>
  </g>
  <g id="g60">
   <path id="rect62" fill="#fff" d="m380 100h20v40h-20z"/>
   <path id="rect64" d="m380 100h20v40h-20z" stroke="#000" stroke-width="2" fill="none"/>
  </g>
  <g id="g66">
   <path id="rect68" fill="#fff" d="m400 100h20v40h-20z"/>
   <path id="rect70" d="m400 100h20v40h-20z" stroke="#000" stroke-width="2" fill="none"/>
  </g>
  <g id="g72">
   <path id="rect74" fill="#fff" d="m420 100h20v40h-20z"/>
   <path id="rect76" d="m420 100h20v40h-20z" stroke="#000" stroke-width="2" fill="none"/>
  </g>
 </g>
 <g id="g78" transform="translate(0 -5.0075)">
  <g id="g80">
   <path id="rect82" fill="#bfbfbf" d="m460 140h20v40h-20z"/>
   <path id="rect84" d="m460 140h20v40h-20z" stroke="#000" stroke-width="2" fill="none"/>
  </g>
  <g id="g86">
   <path id="rect88" fill="#bfbfbf" d="m440 140h20v40h-20z"/>
   <path id="rect90" d="m440 140h20v40h-20z" stroke="#000" stroke-width="2" fill="none"/>
  </g>
  <g id="g92">
   <path id="rect94" fill="#bfbfbf" d="m480 140h20v40h-20z"/>
   <path id="rect96" d="m480 140h20v40h-20z" stroke="#000" stroke-width="2" fill="none"/>
  </g>
  <g id="g98">
   <path id="rect100" fill="#bfbfbf" d="m500 140h20v40h-20z"/>
   <path id="rect102" d="m500 140h20v40h-20z" stroke="#000" stroke-width="2" fill="none"/>
  </g>
 </g>
 <g id="g104" transform="translate(0 -5.0075)">
  <g id="g106">
   <path id="rect108" fill="#fff" d="m520 180h20v40h-20z"/>
   <path id="rect110" d="m520 180h20v40h-20z" stroke="#000" stroke-width="2" fill="none"/>
  </g>
  <g id="g112">
   <path id="rect114" fill="#fff" d="m540 180h20v40h-20z"/>
   <path id="rect116" d="m540 180h20v40h-20z" stroke="#000" stroke-width="2" fill="none"/>
  </g>
  <g id="g118">
   <path id="rect120" fill="#fff" d="m560 180h20v40h-20z"/>
   <path id="rect122" d="m560 180h20v40h-20z" stroke="#000" stroke-width="2" fill="none"/>
  </g>
  <g id="g124">
   <path id="rect126" fill="#fff" d="m580 180h20v40h-20z"/>
   <path id="rect128" d="m580 180h20v40h-20z" stroke="#000" stroke-width="2" fill="none"/>
  </g>
 </g>
 <g id="g130" transform="translate(0 -5.0075)">
  <path id="path132" d="m320 160h110.26" stroke="#000" stroke-width="2" fill="none"/>
  <path id="polygon134" d="m430.26 160-2.5-5 10 5-10 5z"/>
  <path id="polygon136" d="m430.26 160-2.5-5 10 5-10 5z" stroke="#000" stroke-width="2" fill="none"/>
 </g>
</svg>
