<?xml version="1.0" encoding="UTF-8" standalone="no"?>
<!-- Created with Inkscape (http://www.inkscape.org/) -->
<svg id="svg2" xmlns:rdf="http://www.w3.org/1999/02/22-rdf-syntax-ns#" xmlns="http://www.w3.org/2000/svg" height="225.82" width="744.09" version="1.1" xmlns:cc="http://creativecommons.org/ns#" xmlns:dc="http://purl.org/dc/elements/1.1/" viewBox="279 298 402 111.98507">
 <metadata id="metadata142">
  <rdf:RDF>
   <cc:Work rdf:about="">
    <dc:format>image/svg+xml</dc:format>
    <dc:type rdf:resource="http://purl.org/dc/dcmitype/StillImage"/>
   </cc:Work>
  </rdf:RDF>
 </metadata>
 <g id="g4" transform="translate(0 -6.0075)">
  <path id="rect6" fill="#fff" d="m280 300h40v40h-40z"/>
  <path id="rect8" d="m280 300h40v40h-40z" stroke="#000" stroke-width="2" fill="none"/>
 </g>
 <g id="g10" transform="translate(0 -6.0075)">
  <path id="line12" d="m320 320h30.264" stroke="#000" stroke-width="2" fill="none"/>
  <path id="polygon14" d="m350.26 320-2.5-5 10 5-10 5z"/>
  <path id="polygon16" d="m350.26 320-2.5-5 10 5-10 5z" stroke="#000" stroke-width="2" fill="none"/>
 </g>
 <g id="g18" transform="translate(0 -6.0075)">
  <path id="rect20" fill="#fff" d="m360 300h40v40h-40z"/>
  <path id="rect22" d="m360 300h40v40h-40z" stroke="#000" stroke-width="2" fill="none"/>
 </g>
 <g id="g24" transform="translate(0 -6.0075)">
  <path id="rect26" fill="#fff" d="m360 340h40v40h-40z"/>
  <path id="rect28" d="m360 340h40v40h-40z" stroke="#000" stroke-width="2" fill="none"/>
 </g>
 <g id="g30" transform="translate(0 -6.0075)">
  <path id="rect32" fill="#fff" d="m360 380h40v40h-40z"/>
  <path id="rect34" d="m360 380h40v40h-40z" stroke="#000" stroke-width="2" fill="none"/>
 </g>
 <g id="g36" transform="translate(0 -6.0075)">
  <path id="path38" d="m400 320c26.56 0 50 60 50 29.736" stroke="#000" stroke-width="2" fill="none"/>
  <path id="polygon40" d="m450 349.74-5 2.5 5-10 5 10z"/>
  <path id="polygon42" d="m450 349.74-5 2.5 5-10 5 10z" stroke="#000" stroke-width="2" fill="none"/>
 </g>
 <g id="g44" transform="translate(0 -6.0075)">
  <path id="path46" d="m400 360c40 0 130 40 130-10.264" stroke="#000" stroke-width="2" fill="none"/>
  <path id="polygon48" d="m530 349.74-5 2.5 5-10 5 10z"/>
  <path id="polygon50" d="m530 349.74-5 2.5 5-10 5 10z" stroke="#000" stroke-width="2" fill="none"/>
 </g>
 <g id="g52" transform="translate(0 -6.0075)">
  <g id="g54">
   <path id="rect56" fill="#fff" d="m440 300h20v40h-20z"/>
   <path id="rect58" d="m440 300h20v40h-20z" stroke="#000" stroke-width="2" fill="none"/>
  </g>
  <g id="g60">
   <path id="rect62" fill="#fff" d="m460 300h20v40h-20z"/>
   <path id="rect64" d="m460 300h20v40h-20z" stroke="#000" stroke-width="2" fill="none"/>
  </g>
  <g id="g66">
   <path id="rect68" fill="#fff" d="m480 300h20v40h-20z"/>
   <path id="rect70" d="m480 300h20v40h-20z" stroke="#000" stroke-width="2" fill="none"/>
  </g>
  <g id="g72">
   <path id="rect74" fill="#fff" d="m500 300h20v40h-20z"/>
   <path id="rect76" d="m500 300h20v40h-20z" stroke="#000" stroke-width="2" fill="none"/>
  </g>
 </g>
 <g id="g78" transform="translate(0 -6.0075)">
  <g id="g80">
   <path id="rect82" fill="#bfbfbf" d="m540 300h20v40h-20z"/>
   <path id="rect84" d="m540 300h20v40h-20z" stroke="#000" stroke-width="2" fill="none"/>
  </g>
  <g id="g86">
   <path id="rect88" fill="#bfbfbf" d="m520 300h20v40h-20z"/>
   <path id="rect90" d="m520 300h20v40h-20z" stroke="#000" stroke-width="2" fill="none"/>
  </g>
  <g id="g92">
   <path id="rect94" fill="#bfbfbf" d="m560 300h20v40h-20z"/>
   <path id="rect96" d="m560 300h20v40h-20z" stroke="#000" stroke-width="2" fill="none"/>
  </g>
  <g id="g98">
   <path id="rect100" fill="#bfbfbf" d="m580 300h20v40h-20z"/>
   <path id="rect102" d="m580 300h20v40h-20z" stroke="#000" stroke-width="2" fill="none"/>
  </g>
 </g>
 <g id="g104" transform="translate(0 -6.0075)">
  <g id="g106">
   <path id="rect108" fill="#fff" d="m600 300h20v40h-20z"/>
   <path id="rect110" d="m600 300h20v40h-20z" stroke="#000" stroke-width="2" fill="none"/>
  </g>
  <g id="g112">
   <path id="rect114" fill="#fff" d="m620 300h20v40h-20z"/>
   <path id="rect116" d="m620 300h20v40h-20z" stroke="#000" stroke-width="2" fill="none"/>
  </g>
  <g id="g118">
   <path id="rect120" fill="#fff" d="m640 300h20v40h-20z"/>
   <path id="rect122" d="m640 300h20v40h-20z" stroke="#000" stroke-width="2" fill="none"/>
  </g>
  <g id="g124">
   <path id="rect126" fill="#fff" d="m660 300h20v40h-20z"/>
   <path id="rect128" d="m660 300h20v40h-20z" stroke="#000" stroke-width="2" fill="none"/>
  </g>
 </g>
 <g id="g130" transform="translate(0 -6.0075)">
  <path id="path132" d="m400 400c40 0 210 0 210-50.264" stroke="#000" stroke-width="2" fill="none"/>
  <path id="polygon134" d="m610 349.74-5 2.5 5-10 5 10z"/>
  <path id="polygon136" d="m610 349.74-5 2.5 5-10 5 10z" stroke="#000" stroke-width="2" fill="none"/>
 </g>
</svg>
