<?xml version="1.0" encoding="UTF-8" standalone="no"?>
<!-- Created with Inkscape (http://www.inkscape.org/) -->
<svg id="svg2" xmlns:rdf="http://www.w3.org/1999/02/22-rdf-syntax-ns#" xmlns="http://www.w3.org/2000/svg" height="689.7" width="1133.1" version="1.1" xmlns:cc="http://creativecommons.org/ns#" xmlns:dc="http://purl.org/dc/elements/1.1/" viewBox="33 58 627.57527 372.75414">
 <metadata id="metadata492">
  <rdf:RDF>
   <cc:Work rdf:about="">
    <dc:format>image/svg+xml</dc:format>
    <dc:type rdf:resource="http://purl.org/dc/dcmitype/StillImage"/>
   </cc:Work>
  </rdf:RDF>
 </metadata>
 <path id="line4" d="m239.58 294.38h420" stroke="#000" stroke-width="2" fill="none"/>
 <path id="line6" d="m239.58 434.38h420" stroke="#000" stroke-width="2" fill="none"/>
 <path id="line8" d="m239.58 154.38h420" stroke="#000" stroke-width="2" fill="none"/>
 <g id="g10" transform="translate(-.42475 -5.6229)">
  <path id="rect12" fill="#fff" d="m80 180h120v40h-120z"/>
  <path id="rect14" d="m80 180h120v40h-120z" stroke="#000" stroke-width="2" fill="none"/>
 </g>
 <g id="g16" transform="translate(-.42475 -5.6229)">
  <path id="rect18" fill="#fff" d="m80 220h120v40h-120z"/>
  <path id="rect20" d="m80 220h120v40h-120z" stroke="#000" stroke-width="2" fill="none"/>
 </g>
 <g id="g22" transform="translate(-.42475 -5.6229)">
  <path id="rect24" fill="#fff" d="m80 260h120v40h-120z"/>
  <path id="rect26" d="m80 260h120v40h-120z" stroke="#000" stroke-width="2" fill="none"/>
 </g>
 <g id="text28">
  <path id="path3234" style="" d="m82.829 188.75h1.4475v4.5216l4.8011-4.5216h1.8631l-5.3099 4.9874 5.6897 5.7112h-1.9061l-5.1379-5.1522v5.1522h-1.4475v-10.699"/>
  <path id="path3236" style="" d="m94.782 192.35c-0.70703 0.00001-1.266 0.27709-1.6768 0.83124-0.41084 0.54938-0.61626 1.3042-0.61626 2.2644-0.000002 0.96022 0.20303 1.7174 0.6091 2.2716 0.41084 0.54938 0.97216 0.82407 1.684 0.82407 0.70225 0 1.2588-0.27707 1.6696-0.83123 0.41083-0.55416 0.61625-1.309 0.61626-2.2644-0.000007-0.95066-0.20543-1.7031-0.61626-2.2572-0.41085-0.55893-0.96739-0.8384-1.6696-0.83841m0-1.1179c1.1465 0 2.047 0.37263 2.7015 1.1179 0.65447 0.74526 0.98171 1.7771 0.98172 3.0956-0.000008 1.3137-0.32725 2.3456-0.98172 3.0956-0.65448 0.74525-1.555 1.1179-2.7015 1.1179-1.1513 0-2.0542-0.37262-2.7087-1.1179-0.6497-0.75002-0.97455-1.7819-0.97455-3.0956-0.000001-1.3185 0.32485-2.3504 0.97455-3.0956 0.65448-0.74523 1.5574-1.1179 2.7087-1.1179m0.67359-2.9022h1.4547v1.4475h-1.4547v-1.4475m-2.8018 0h1.4547v1.4475h-1.4547v-1.4475"/>
  <path id="path3238" style="" d="m100.59 188.3h1.3257v6.5854l3.934-3.4611h1.684l-4.2565 3.7549 4.4356 4.2708h-1.7198l-4.0774-3.9197v3.9197h-1.3257v-11.15"/>
  <path id="path3240" style="" d="m111.74 192.35c-0.70704 0.00001-1.266 0.27709-1.6768 0.83124-0.41084 0.54938-0.61626 1.3042-0.61626 2.2644 0 0.96022 0.20303 1.7174 0.6091 2.2716 0.41084 0.54938 0.97216 0.82407 1.684 0.82407 0.70224 0 1.2588-0.27707 1.6696-0.83123 0.41084-0.55416 0.61626-1.309 0.61626-2.2644 0-0.95066-0.20542-1.7031-0.61626-2.2572-0.41084-0.55893-0.96739-0.8384-1.6696-0.83841m0-1.1179c1.1465 0 2.047 0.37263 2.7015 1.1179 0.65447 0.74526 0.98171 1.7771 0.98172 3.0956-0.00001 1.3137-0.32725 2.3456-0.98172 3.0956-0.65448 0.74525-1.555 1.1179-2.7015 1.1179-1.1513 0-2.0542-0.37262-2.7087-1.1179-0.64971-0.75002-0.97456-1.7819-0.97456-3.0956 0-1.3185 0.32485-2.3504 0.97456-3.0956 0.65447-0.74523 1.5574-1.1179 2.7087-1.1179m0.67358-2.9022h1.4547v1.4475h-1.4547v-1.4475m-2.8018 0h1.4547v1.4475h-1.4547v-1.4475"/>
  <path id="path3242" style="" d="m122.26 192.66c-0.1481-0.086-0.31052-0.14808-0.48727-0.18631-0.17199-0.043-0.36307-0.0645-0.57327-0.0645-0.74525 0.00001-1.3185 0.24365-1.7198 0.73091-0.39652 0.48251-0.59477 1.1776-0.59477 2.0853v4.2278h-1.3257v-8.0257h1.3257v1.2469c0.27708-0.48727 0.63776-0.84795 1.082-1.082 0.44428-0.23886 0.9841-0.35829 1.6195-0.35829 0.0908 0 0.19108 0.007 0.30096 0.0215 0.10987 0.01 0.23169 0.0263 0.36546 0.0502l0.007 1.3543"/>
  <path id="path3244" style="" d="m129.11 191.73v1.2325c-0.37263-0.20541-0.74764-0.35828-1.125-0.45861-0.37262-0.10509-0.75002-0.15764-1.1322-0.15765-0.85513 0.00001-1.5192 0.27231-1.9921 0.81691-0.47295 0.53983-0.70942 1.2994-0.70942 2.2787 0 0.97933 0.23647 1.7413 0.70942 2.2859 0.47294 0.53982 1.137 0.80973 1.9921 0.80973 0.38217 0 0.75957-0.0502 1.1322-0.15048 0.3774-0.1051 0.75241-0.26036 1.125-0.46578v1.2182c-0.36785 0.17198-0.75003 0.30097-1.1465 0.38696-0.39174 0.086-0.80975 0.12898-1.254 0.12898-1.2086 0-2.1689-0.37979-2.8807-1.1394-0.71181-0.75958-1.0677-1.7843-1.0677-3.0741 0-1.309 0.35829-2.3384 1.0749-3.0885 0.72136-0.75001 1.7079-1.125 2.9595-1.125 0.40606 0 0.80256 0.043 1.1895 0.12898 0.38695 0.0812 0.76196 0.20543 1.125 0.37262"/>
  <path id="path3246" style="" d="m136.53 191.66v1.2468c-0.37263-0.19108-0.75958-0.3344-1.1609-0.42995-0.40129-0.0955-0.81691-0.14331-1.2469-0.14332-0.65448 0.00001-1.1465 0.10033-1.4762 0.30097-0.32485 0.20065-0.48727 0.50161-0.48727 0.90289 0 0.30575 0.11704 0.547 0.35112 0.72375 0.23408 0.17198 0.70464 0.3368 1.4117 0.49444l0.45145 0.10032c0.93633 0.20065 1.6004 0.48489 1.9921 0.85273 0.3965 0.36308 0.59475 0.87185 0.59476 1.5263-0.00001 0.74525-0.2962 1.3352-0.88856 1.77-0.58761 0.43473-1.3973 0.65209-2.4292 0.65209-0.42995 0-0.87901-0.043-1.3472-0.12898-0.46339-0.0812-0.95306-0.20542-1.469-0.37263v-1.3615c0.48727 0.25319 0.96738 0.44428 1.4403 0.57326 0.47294 0.12421 0.9411 0.18632 1.4045 0.18631 0.62103 0.00001 1.0988-0.10509 1.4332-0.31529 0.3344-0.21497 0.5016-0.51594 0.50161-0.90289-0.00001-0.35829-0.12183-0.63298-0.36546-0.82407-0.23886-0.19109-0.76675-0.37501-1.5836-0.55177l-0.45862-0.10749c-0.8169-0.17198-1.4069-0.43472-1.77-0.78824-0.36307-0.35829-0.54461-0.84795-0.54461-1.469 0-0.7548 0.26753-1.3376 0.80257-1.7485 0.53505-0.41084 1.2946-0.61626 2.2787-0.61626 0.48727 0 0.94588 0.0358 1.3758 0.10748 0.42995 0.0717 0.82645 0.17916 1.1895 0.32247"/>
  <path id="path3248" style="" d="m139.07 191.43h1.3185v8.0257h-1.3185v-8.0257m0-3.1243h1.3185v1.6696h-1.3185v-1.6696"/>
  <path id="path3250" style="" d="m149.81 194.61v4.8441h-1.3185v-4.8011c0-0.75957-0.1481-1.3281-0.44428-1.7055-0.29619-0.3774-0.74047-0.5661-1.3328-0.5661-0.71181 0-1.2731 0.22692-1.684 0.68075-0.41084 0.45384-0.61626 1.0725-0.61626 1.856v4.536h-1.3257v-8.0257h1.3257v1.2469c0.31529-0.4825 0.68553-0.84317 1.1107-1.082 0.42995-0.23886 0.92439-0.35829 1.4833-0.35829 0.92199 0 1.6195 0.28664 2.0924 0.85989 0.47293 0.5685 0.70941 1.4069 0.70941 2.5152"/>
  <path id="path3252" style="" d="m156.99 196.28v-4.8584h1.3185v4.8083c0 0.75958 0.14809 1.3304 0.44428 1.7126 0.29618 0.3774 0.74046 0.5661 1.3328 0.5661 0.7118 0 1.2731-0.22692 1.684-0.68075 0.41561-0.45384 0.62342-1.0725 0.62343-1.856v-4.5503h1.3185v8.0257h-1.3185v-1.2325c-0.32008 0.48728-0.69271 0.85035-1.1179 1.0892-0.4204 0.23408-0.91007 0.35112-1.469 0.35112-0.922 0-1.6219-0.28663-2.0996-0.8599-0.47772-0.57326-0.71658-1.4117-0.71658-2.5152m3.3178-5.0519"/>
  <path id="path3254" style="" d="m166.63 197.63h1.512v1.8201h-1.512v-1.8201"/>
  <path id="path3256" style="" d="m176.22 198.23h2.3647v-8.1619l-2.5725 0.51594v-1.3185l2.5582-0.51594h1.4475v9.4804h2.3647v1.2182h-6.1626v-1.2182"/>
  <path id="path3258" style="" d="m186.56 198.23h5.0519v1.2182h-6.7932v-1.2182c0.54938-0.56848 1.297-1.3304 2.2429-2.2859 0.95066-0.96022 1.5478-1.5789 1.7914-1.856 0.46339-0.52071 0.78585-0.96022 0.96739-1.3185 0.18631-0.36306 0.27946-0.71897 0.27947-1.0677-0.00001-0.56848-0.20065-1.0319-0.60193-1.3902-0.39652-0.35828-0.91484-0.53743-1.555-0.53744-0.45384 0.00001-0.93395 0.0788-1.4403 0.23648-0.50161 0.15765-1.039 0.39651-1.6123 0.71658v-1.4618c0.58281-0.23407 1.1274-0.41083 1.6338-0.53027 0.50638-0.11942 0.96977-0.17913 1.3902-0.17914 1.1083 0.00001 1.9921 0.27708 2.6514 0.83123 0.65924 0.55417 0.98887 1.2946 0.98888 2.2214-0.00001 0.43952-0.0836 0.85752-0.2508 1.254-0.16244 0.39174-0.46101 0.85513-0.89573 1.3902-0.11944 0.13855-0.49923 0.53983-1.1394 1.2039-0.64015 0.65926-1.543 1.5836-2.7087 2.7732"/>
  <path id="path3260" style="" d="m194.66 197.63h1.512v1.8201h-1.512v-1.8201"/>
 </g>
 <g id="text32">
  <path id="path3263" style="" d="m92.632 228.75h6.1483v1.2182h-4.7008v3.153h4.2422v1.2182h-4.2422v5.1092h-1.4475v-10.699"/>
  <path id="path3265" style="" d="m100.09 236.28v-4.8584h1.3185v4.8083c0 0.75958 0.14809 1.3304 0.44428 1.7126 0.29619 0.3774 0.74047 0.5661 1.3328 0.5661 0.7118 0 1.2731-0.22692 1.684-0.68075 0.41561-0.45384 0.62342-1.0725 0.62343-1.856v-4.5503h1.3185v8.0257h-1.3185v-1.2325c-0.32008 0.48728-0.6927 0.85035-1.1179 1.0892-0.4204 0.23408-0.91006 0.35112-1.469 0.35112-0.92201 0-1.6219-0.28663-2.0996-0.8599-0.47772-0.57326-0.71658-1.4117-0.71658-2.5152m3.3178-5.0519"/>
  <path id="path3267" style="" d="m110.85 229.15v2.2787h2.7158v1.0247h-2.7158v4.3568c-0.00001 0.65448 0.0884 1.0749 0.26513 1.2612 0.18153 0.18631 0.54699 0.27947 1.0964 0.27947h1.3543v1.1035h-1.3543c-1.0176 0-1.7198-0.1887-2.1068-0.5661-0.38695-0.38217-0.58043-1.0749-0.58043-2.0781v-4.3568h-0.96739v-1.0247h0.96739v-2.2787h1.3257"/>
  <path id="path3269" style="" d="m119.96 232.66c-0.1481-0.086-0.31053-0.14808-0.48728-0.18631-0.17199-0.043-0.36307-0.0645-0.57327-0.0645-0.74525 0.00001-1.3185 0.24365-1.7198 0.73091-0.39651 0.48251-0.59477 1.1776-0.59477 2.0853v4.2278h-1.3257v-8.0257h1.3257v1.2469c0.27708-0.48727 0.63776-0.84795 1.082-1.082 0.44428-0.23886 0.9841-0.35829 1.6195-0.35829 0.0908 0 0.19108 0.007 0.30096 0.0215 0.10987 0.01 0.23169 0.0263 0.36546 0.0502l0.007 1.3543"/>
  <path id="path3271" style="" d="m121.35 231.43h1.3185v8.0257h-1.3185v-8.0257m0-3.1243h1.3185v1.6696h-1.3185v-1.6696"/>
  <path id="path3273" style="" d="m132.09 234.61v4.8441h-1.3185v-4.8011c0-0.75957-0.1481-1.3281-0.44428-1.7055-0.29619-0.3774-0.74047-0.5661-1.3328-0.5661-0.71181 0-1.2731 0.22692-1.684 0.68075-0.41084 0.45384-0.61626 1.0725-0.61626 1.856v4.536h-1.3257v-8.0257h1.3257v1.2469c0.3153-0.4825 0.68553-0.84317 1.1107-1.082 0.42994-0.23886 0.92438-0.35829 1.4833-0.35829 0.922 0 1.6195 0.28664 2.0924 0.85989 0.47294 0.5685 0.70941 1.4069 0.70942 2.5152"/>
  <path id="path3275" style="" d="m134.69 228.3h1.3257v6.5854l3.934-3.4611h1.684l-4.2565 3.7549 4.4356 4.2708h-1.7198l-4.0774-3.9197v3.9197h-1.3257v-11.15"/>
  <path id="path3277" style="" d="m146.64 235.42c-1.0653 0-1.8034 0.12182-2.2142 0.36545-0.41084 0.24364-0.61626 0.65926-0.61626 1.2468 0 0.46817 0.15287 0.8408 0.45861 1.1179 0.31052 0.27231 0.73091 0.40846 1.2612 0.40845 0.73091 0.00001 1.3161-0.25796 1.7556-0.7739 0.44428-0.52072 0.66642-1.211 0.66643-2.0709v-0.29379h-1.3114m2.6299-0.54461v4.579h-1.3185v-1.2182c-0.30097 0.48728-0.67599 0.84796-1.125 1.082-0.44906 0.22931-0.99844 0.34396-1.6481 0.34396-0.82168 0-1.4762-0.22931-1.9634-0.68792-0.4825-0.46339-0.72375-1.082-0.72375-1.856 0-0.90289 0.30096-1.5836 0.90289-2.0422 0.60671-0.45861 1.5096-0.68792 2.7087-0.68792h1.8488v-0.12899c-0.00001-0.6067-0.20065-1.0749-0.60193-1.4045-0.39652-0.3344-0.95545-0.5016-1.6768-0.50161-0.45861 0.00001-0.90528 0.0549-1.34 0.16482-0.43473 0.10988-0.85274 0.27469-1.254 0.49444v-1.2182c0.48249-0.1863 0.95066-0.32484 1.4045-0.41562 0.45383-0.0955 0.89572-0.14331 1.3257-0.14331 1.1608 0 2.0279 0.30097 2.6012 0.90289 0.57326 0.60194 0.85989 1.5144 0.8599 2.7373"/>
  <path id="path3279" style="" d="m156.53 236.28v-4.8584h1.3185v4.8083c0 0.75958 0.14809 1.3304 0.44428 1.7126 0.29619 0.3774 0.74047 0.5661 1.3328 0.5661 0.7118 0 1.2731-0.22692 1.684-0.68075 0.41561-0.45384 0.62342-1.0725 0.62343-1.856v-4.5503h1.3185v8.0257h-1.3185v-1.2325c-0.32008 0.48728-0.6927 0.85035-1.1179 1.0892-0.4204 0.23408-0.91006 0.35112-1.469 0.35112-0.92201 0-1.6219-0.28663-2.0996-0.8599-0.47772-0.57326-0.71658-1.4117-0.71658-2.5152m3.3178-5.0519"/>
  <path id="path3281" style="" d="m166.17 237.63h1.512v1.8201h-1.512v-1.8201"/>
  <path id="path3283" style="" d="m175.15 228.75h6.8792v0.61626l-3.8839 10.082h-1.512l3.6546-9.4804h-5.1379v-1.2182"/>
  <path id="path3285" style="" d="m184.86 237.63h1.512v1.8201h-1.512v-1.8201"/>
 </g>
 <g id="text36">
  <path id="path3288" style="" d="m95.548 269.1v1.4117c-0.54939-0.26274-1.0677-0.4586-1.555-0.5876-0.48728-0.12897-0.95784-0.19347-1.4117-0.19347-0.78824 0-1.3973 0.15288-1.8273 0.45861-0.42518 0.30575-0.63776 0.74047-0.63776 1.3042-0.000002 0.47295 0.14092 0.83124 0.42278 1.0749 0.28663 0.23887 0.82645 0.43234 1.6195 0.58043l0.87423 0.17915c1.0796 0.20542 1.875 0.56849 2.3862 1.0892 0.51593 0.51595 0.7739 1.2086 0.77391 2.0781-0.000009 1.0367-0.34874 1.8225-1.0462 2.3576-0.6927 0.53505-1.7102 0.80258-3.0526 0.80258-0.50639 0-1.0462-0.0573-1.6195-0.17198-0.56849-0.11466-1.1585-0.28425-1.77-0.50878v-1.4905c0.5876 0.32963 1.1632 0.57805 1.727 0.74525 0.56371 0.1672 1.1179 0.2508 1.6625 0.2508 0.82645 0 1.4642-0.16242 1.9133-0.48727 0.44905-0.32485 0.67358-0.78824 0.67359-1.3902-0.000007-0.52549-0.16243-0.93633-0.48728-1.2325-0.32008-0.29619-0.84796-0.51833-1.5836-0.66643l-0.8814-0.17198c-1.0797-0.21496-1.8607-0.55176-2.3432-1.0104-0.4825-0.4586-0.72375-1.0964-0.72375-1.9133-0.000001-0.94588 0.33202-1.6911 0.99605-2.2357 0.66881-0.54459 1.5884-0.81689 2.7588-0.8169 0.5016 0.00001 1.0128 0.0454 1.5335 0.13615 0.52071 0.0908 1.0534 0.22693 1.598 0.40845"/>
  <path id="path3290" style="" d="m97.82 271.43h6.2629v1.2039l-4.9587 5.7685h4.9587v1.0534h-6.4421v-1.2039l4.9588-5.7685h-4.7796v-1.0534"/>
  <path id="path3292" style="" d="m112.97 275.11v0.64492h-6.0623c0.0573 0.90768 0.32962 1.6004 0.8169 2.0781 0.49205 0.47295 1.1752 0.70942 2.0494 0.70942 0.50638 0 0.99605-0.0621 1.469-0.18631 0.47771-0.12421 0.95066-0.31052 1.4188-0.55894v1.2469c-0.47295 0.20064-0.95784 0.35351-1.4547 0.45861-0.49684 0.1051-1.0008 0.15765-1.512 0.15765-1.2803 0-2.2954-0.37263-3.0455-1.1179-0.74525-0.74525-1.1179-1.7532-1.1179-3.024 0-1.3137 0.35351-2.3552 1.0605-3.1243 0.7118-0.7739 1.6696-1.1608 2.8735-1.1609 1.0796 0.00001 1.9324 0.34875 2.5582 1.0462 0.63059 0.6927 0.94588 1.6362 0.94589 2.8305m-1.3185-0.38695c-0.01-0.72136-0.21259-1.297-0.6091-1.727-0.39173-0.42994-0.91245-0.64491-1.5621-0.64492-0.7357 0.00001-1.3257 0.20782-1.77 0.62343-0.43951 0.41562-0.6927 1.0008-0.75958 1.7556l4.7008-0.007"/>
  <path id="path3294" style="" d="m114.56 271.43h6.2629v1.2039l-4.9588 5.7685h4.9588v1.0534h-6.4421v-1.2039l4.9587-5.7685h-4.7796v-1.0534"/>
  <path id="path3296" style="" d="m126.49 275.42c-1.0653 0-1.8034 0.12182-2.2142 0.36546-0.41084 0.24364-0.61626 0.65926-0.61626 1.2468 0 0.46817 0.15287 0.84079 0.45861 1.1179 0.31052 0.2723 0.73091 0.40845 1.2612 0.40845 0.73091 0 1.3161-0.25797 1.7556-0.77391 0.44428-0.52071 0.66642-1.211 0.66643-2.0709v-0.2938h-1.3114m2.6299-0.5446v4.579h-1.3185v-1.2182c-0.30097 0.48727-0.67599 0.84795-1.125 1.082-0.44906 0.2293-0.99844 0.34396-1.6481 0.34396-0.82168 0-1.4762-0.22931-1.9634-0.68792-0.4825-0.46339-0.72375-1.082-0.72375-1.856 0-0.90289 0.30096-1.5836 0.90289-2.0423 0.60671-0.45861 1.5096-0.68791 2.7087-0.68792h1.8488v-0.12898c-0.00001-0.6067-0.20065-1.0749-0.60193-1.4045-0.39652-0.3344-0.95545-0.5016-1.6768-0.50161-0.45861 0.00001-0.90528 0.0549-1.34 0.16481-0.43473 0.10989-0.85274 0.2747-1.254 0.49444v-1.2182c0.48249-0.18631 0.95066-0.32485 1.4045-0.41562 0.45383-0.0955 0.89572-0.14331 1.3257-0.14332 1.1608 0.00001 2.0279 0.30097 2.6012 0.90289 0.57326 0.60194 0.85989 1.5144 0.8599 2.7374m-2.4077-7.1587h1.426l-2.3361 2.6944h-1.0964l2.0064-2.6944"/>
  <path id="path3298" style="" d="m138.09 272.97c0.32962-0.59237 0.72374-1.0295 1.1824-1.3114 0.45861-0.28184 0.99843-0.42277 1.6195-0.42278 0.836 0.00001 1.4809 0.29381 1.9348 0.8814 0.45382 0.58282 0.68074 1.4141 0.68075 2.4937v4.8441h-1.3257v-4.8011c-0.00001-0.76913-0.13616-1.34-0.40845-1.7126-0.27232-0.37262-0.68793-0.55893-1.2469-0.55894-0.68315 0.00001-1.223 0.22693-1.6195 0.68076-0.39652 0.45384-0.59477 1.0725-0.59477 1.8559v4.536h-1.3257v-4.8011c-0.00001-0.77391-0.13616-1.3448-0.40845-1.7126-0.27231-0.37262-0.69271-0.55893-1.2612-0.55894-0.67359 0.00001-1.2086 0.22932-1.6051 0.68792-0.39651 0.45384-0.59477 1.0701-0.59477 1.8488v4.536h-1.3257v-8.0257h1.3257v1.2468c0.30097-0.49204 0.66165-0.85511 1.082-1.0892 0.42039-0.23408 0.91961-0.35112 1.4977-0.35113 0.58281 0.00001 1.0773 0.1481 1.4833 0.44428 0.41084 0.2962 0.71419 0.72615 0.91006 1.2898"/>
  <path id="path3300" style="" d="m150.68 276.28v-4.8584h1.3185v4.8083c0 0.75958 0.14809 1.3305 0.44428 1.7126 0.29619 0.3774 0.74047 0.5661 1.3328 0.56609 0.7118 0.00001 1.2731-0.22691 1.684-0.68075 0.41562-0.45383 0.62342-1.0725 0.62343-1.856v-4.5503h1.3185v8.0257h-1.3185v-1.2325c-0.32008 0.48727-0.6927 0.85034-1.1179 1.0892-0.4204 0.23408-0.91006 0.35113-1.469 0.35113-0.92201 0-1.6219-0.28664-2.0996-0.8599-0.47772-0.57327-0.71658-1.4117-0.71658-2.5152m3.3178-5.0519"/>
  <path id="path3302" style="" d="m160.32 277.63h1.512v1.8201h-1.512v-1.8201"/>
  <path id="path3304" style="" d="m170.91 278.23h5.0519v1.2182h-6.7932v-1.2182c0.54938-0.56849 1.297-1.3304 2.2429-2.2859 0.95066-0.96021 1.5478-1.5789 1.7915-1.856 0.46338-0.52071 0.78584-0.96021 0.96738-1.3185 0.18631-0.36306 0.27946-0.71896 0.27947-1.0677-0.00001-0.56848-0.20065-1.0319-0.60193-1.3902-0.39651-0.35829-0.91484-0.53743-1.555-0.53744-0.45384 0.00001-0.93395 0.0788-1.4403 0.23647-0.50161 0.15766-1.039 0.39652-1.6123 0.71658v-1.4618c0.58282-0.23408 1.1274-0.41083 1.6338-0.53027 0.50638-0.11942 0.96977-0.17914 1.3902-0.17915 1.1083 0.00001 1.9921 0.27709 2.6514 0.83124 0.65925 0.55416 0.98887 1.2946 0.98888 2.2214-0.00001 0.43951-0.0836 0.85752-0.2508 1.254-0.16244 0.39174-0.46101 0.85513-0.89573 1.3902-0.11944 0.13854-0.49923 0.53983-1.1394 1.2039-0.64015 0.65925-1.543 1.5836-2.7087 2.7732"/>
  <path id="path3306" style="" d="m179.26 278.23h2.3647v-8.1619l-2.5725 0.51594v-1.3185l2.5582-0.51594h1.4475v9.4804h2.3647v1.2182h-6.1626v-1.2182"/>
  <path id="path3308" style="" d="m188.35 277.63h1.512v1.8201h-1.512v-1.8201"/>
 </g>
 <g id="g40" stroke="#000" stroke-width="2" fill="none" transform="translate(-.42475 -5.6229)">
  <path id="path42" d="m200 200c60 0-20-100 35.528-100"/>
  <path id="polyline44" d="m227.76 105 10-5-10-5"/>
 </g>
 <g id="g46" stroke="#000" stroke-width="2" fill="none" transform="translate(-.42475 -5.6229)">
  <path id="path48" d="m200 240h35.528"/>
  <path id="polyline50" d="m227.76 245 10-5-10-5"/>
 </g>
 <g id="g52" stroke="#000" stroke-width="2" fill="none" transform="translate(-.42475 -5.6229)">
  <path id="path54" d="m200 280c60 0-20 100 35.528 100"/>
  <path id="polyline56" d="m227.76 385 10-5-10-5"/>
 </g>
 <g id="g58" transform="translate(-.42475 -5.6229)">
  <path id="rect60" fill="#fff" d="m80 79.122h120v41.756h-120z"/>
  <path id="rect62" d="m80 79.122h120v41.756h-120z" stroke="#000" stroke-width="2" fill="none"/>
  <g id="text64">
   <path id="path3316" style="" d="m125.16 96.76v1.2325c-0.37263-0.20541-0.74764-0.35828-1.125-0.45861-0.37263-0.10509-0.75003-0.15764-1.1322-0.15765-0.85512 0.000007-1.5192 0.27231-1.9921 0.8169-0.47294 0.53983-0.70941 1.2994-0.70941 2.2787 0 0.97934 0.23647 1.7413 0.70941 2.2859 0.47295 0.53983 1.137 0.80974 1.9921 0.80974 0.38217 0 0.75957-0.0502 1.1322-0.15048 0.3774-0.1051 0.75241-0.26036 1.125-0.46578v1.2182c-0.36786 0.17198-0.75003 0.30096-1.1465 0.38695-0.39173 0.086-0.80974 0.12899-1.254 0.12899-1.2086 0-2.1689-0.37979-2.8807-1.1394-0.71181-0.75958-1.0677-1.7843-1.0677-3.0741 0-1.3089 0.35829-2.3384 1.0749-3.0885 0.72136-0.75002 1.7078-1.125 2.9595-1.125 0.40605 0.000008 0.80256 0.043 1.1895 0.12898 0.38695 0.08122 0.76196 0.20543 1.125 0.37262"/>
   <path id="path3318" style="" d="m129.12 92.74h1.426l-2.336 2.6943h-1.0964l2.0064-2.6943m-1.6553 3.7119h1.3185v8.0257h-1.3185v-8.0257m0.65926-0.19348"/>
   <path id="path3320" style="" d="m137.79 97.993c0.32962-0.59237 0.72374-1.0295 1.1824-1.3113 0.4586-0.28185 0.99843-0.42278 1.6195-0.42278 0.836 0.000008 1.4809 0.29381 1.9348 0.8814 0.45382 0.58283 0.68074 1.4141 0.68075 2.4937v4.8441h-1.3257v-4.8011c-0.00001-0.76913-0.13616-1.34-0.40845-1.7126-0.27231-0.37262-0.68793-0.55893-1.2468-0.55893-0.68315 0.000007-1.223 0.22692-1.6195 0.68075-0.39651 0.45384-0.59477 1.0725-0.59476 1.8559v4.536h-1.3257v-4.8011c0-0.7739-0.13615-1.3448-0.40845-1.7126-0.2723-0.37262-0.6927-0.55893-1.2612-0.55893-0.67359 0.000007-1.2086 0.22931-1.6052 0.68792-0.39651 0.45384-0.59476 1.0701-0.59476 1.8488v4.536h-1.3257v-8.0257h1.3257v1.2469c0.30096-0.49205 0.66164-0.85511 1.082-1.0892 0.42039-0.23408 0.91961-0.35112 1.4977-0.35112 0.58281 0.000008 1.0772 0.1481 1.4833 0.44428 0.41083 0.29619 0.71419 0.72614 0.91006 1.2898"/>
   <path id="path3322" style="" d="m152.7 100.14v0.64492h-6.0623c0.0573 0.90768 0.32962 1.6004 0.8169 2.0781 0.49205 0.47295 1.1752 0.70942 2.0494 0.70942 0.50638 0 0.99605-0.0621 1.469-0.18631 0.47771-0.12421 0.95066-0.31052 1.4188-0.55894v1.2469c-0.47295 0.20064-0.95784 0.35351-1.4547 0.45861-0.49684 0.1051-1.0008 0.15765-1.512 0.15765-1.2803 0-2.2954-0.37263-3.0455-1.1179-0.74525-0.74525-1.1179-1.7532-1.1179-3.024 0-1.3137 0.35351-2.3552 1.0605-3.1243 0.7118-0.7739 1.6696-1.1609 2.8735-1.1609 1.0796 0.000008 1.9324 0.34874 2.5582 1.0462 0.63059 0.6927 0.94588 1.6362 0.94589 2.8305m-1.3185-0.38696c-0.01-0.72135-0.21259-1.297-0.6091-1.727-0.39173-0.42994-0.91245-0.64492-1.5621-0.64492-0.7357 0.000007-1.3257 0.20782-1.77 0.62343-0.43951 0.41562-0.6927 1.0008-0.75958 1.7556l4.7008-0.0072"/>
   <path id="path3324" style="" d="m154.82 93.328h1.3257v6.5854l3.934-3.4611h1.684l-4.2565 3.7549 4.4356 4.2708h-1.7198l-4.0774-3.9197v3.9197h-1.3257v-11.15"/>
  </g>
 </g>
 <g id="g68" stroke="#000" stroke-width="2" fill="none" transform="translate(-.42475 -5.6229)">
  <path id="path70" d="m80 100c-60 0-60 100-4.472 100"/>
  <path id="polyline72" d="m67.764 205 10-5-10-5"/>
 </g>
 <g id="g74" transform="translate(-.42475 -5.6229)">
  <path id="rect76" fill="#fff" d="m340 60h10v30h-10z"/>
  <path id="rect78" d="m340 60h10v30h-10z" stroke="#000" stroke-width="2" fill="none"/>
 </g>
 <g id="g80" transform="translate(-.42475 -5.6229)">
  <path id="rect82" fill="#add8e6" d="m280 100h80v60h-80z"/>
  <path id="rect84" d="m280 100h80v60h-80z" stroke="#000" stroke-width="2" fill="none"/>
 </g>
 <g id="g86" transform="translate(-.42475 -5.6229)">
  <path id="polygon88" fill="#ff4040" d="m370 100-50-40-50 40z"/>
  <path id="polygon90" d="m370 100-50-40-50 40z" stroke="#000" stroke-width="2" fill="none"/>
 </g>
 <g id="g92" transform="translate(-.42475 -5.6229)">
  <path id="rect94" fill="#a52a2a" d="m330 120h20v40h-20z"/>
  <path id="rect96" d="m330 120h20v40h-20z" stroke="#000" stroke-width="2" fill="none"/>
 </g>
 <g id="g98" transform="translate(-.42475 -5.6229)">
  <path id="rect100" fill="#1e90ff" d="m288 120h32v20h-32z"/>
  <path id="rect102" d="m288 120h32v20h-32z" stroke="#000" stroke-width="2" fill="none"/>
 </g>
 <g id="g104" transform="translate(-.42475 -5.6229)">
  <path id="polygon106" fill="#fff" d="m320 120v16l-16-16z"/>
  <path id="polygon108" d="m320 120v16l-16-16z" stroke="#000" stroke-width="2" fill="none"/>
 </g>
 <g id="g110" transform="translate(-.42475 -5.6229)">
  <path id="polygon112" fill="#fff" d="m304 120-16 16v-16z"/>
  <path id="polygon114" d="m304 120-16 16v-16z" stroke="#000" stroke-width="2" fill="none"/>
 </g>
 <g id="text116">
  <path id="path3342" style="" d="m282.63 107.95h2.1828v-7.534l-2.3746 0.47625v-1.2171l2.3614-0.47625h1.3361v8.7511h2.1828v1.1245h-5.6886v-1.1245"/>
  <path id="path3344" style="" d="m292.17 107.95h4.6633v1.1245h-6.2706v-1.1245c0.50711-0.52475 1.1972-1.2281 2.0704-2.11 0.87753-0.88635 1.4287-1.4574 1.6536-1.7132 0.42773-0.48066 0.72539-0.88635 0.89297-1.2171 0.17197-0.33513 0.25796-0.66366 0.25797-0.98558-0.00001-0.52475-0.18522-0.95249-0.55563-1.2832-0.36601-0.33072-0.84447-0.49608-1.4354-0.49609-0.41893 0.00001-0.8621 0.0728-1.3295 0.21828-0.46303 0.14553-0.95912 0.36602-1.4883 0.66146v-1.3494c0.53799-0.21607 1.0407-0.37923 1.5081-0.48948 0.46743-0.11023 0.89517-0.16536 1.2832-0.16536 1.0231 0.00001 1.8389 0.25577 2.4474 0.76729 0.60853 0.51154 0.9128 1.1951 0.91281 2.0505-0.00001 0.4057-0.0772 0.79155-0.23151 1.1576-0.14994 0.3616-0.42555 0.78935-0.82683 1.2832-0.11025 0.12789-0.46082 0.49831-1.0517 1.1113-0.59091 0.60854-1.4243 1.4618-2.5003 2.5598"/>
 </g>
 <g id="g120" transform="translate(-.42475 -5.6229)">
  <path id="rect122" fill="#fff" d="m470 60h10v30h-10z"/>
  <path id="rect124" d="m470 60h10v30h-10z" stroke="#000" stroke-width="2" fill="none"/>
 </g>
 <g id="g126" transform="translate(-.42475 -5.6229)">
  <path id="rect128" fill="#add8e6" d="m410 100h80v60h-80z"/>
  <path id="rect130" d="m410 100h80v60h-80z" stroke="#000" stroke-width="2" fill="none"/>
 </g>
 <g id="g132" transform="translate(-.42475 -5.6229)">
  <path id="polygon134" fill="#ff4040" d="m500 100-50-40-50 40z"/>
  <path id="polygon136" d="m500 100-50-40-50 40z" stroke="#000" stroke-width="2" fill="none"/>
 </g>
 <g id="g138" transform="translate(-.42475 -5.6229)">
  <path id="rect140" fill="#a52a2a" d="m460 120h20v40h-20z"/>
  <path id="rect142" d="m460 120h20v40h-20z" stroke="#000" stroke-width="2" fill="none"/>
 </g>
 <g id="g144" transform="translate(-.42475 -5.6229)">
  <path id="rect146" fill="#1e90ff" d="m418 120h32v20h-32z"/>
  <path id="rect148" d="m418 120h32v20h-32z" stroke="#000" stroke-width="2" fill="none"/>
 </g>
 <g id="g150" transform="translate(-.42475 -5.6229)">
  <path id="polygon152" fill="#fff" d="m450 120v16l-16-16z"/>
  <path id="polygon154" d="m450 120v16l-16-16z" stroke="#000" stroke-width="2" fill="none"/>
 </g>
 <g id="g156" transform="translate(-.42475 -5.6229)">
  <path id="polygon158" fill="#fff" d="m434 120-16 16v-16z"/>
  <path id="polygon160" d="m434 120-16 16v-16z" stroke="#000" stroke-width="2" fill="none"/>
 </g>
 <g id="text162">
  <path id="path3361" style="" d="m412.63 107.95h2.1828v-7.534l-2.3746 0.47625v-1.2171l2.3614-0.47625h1.3361v8.7511h2.1828v1.1245h-5.6886v-1.1245"/>
  <path id="path3363" style="" d="m424.69 100.37-3.3734 5.2718h3.3734v-5.2718m-0.35058-1.1642h1.6801v6.436h1.4089v1.1112h-1.4089v2.3283h-1.3295v-2.3283h-4.4582v-1.2898l4.1077-6.2574"/>
 </g>
 <g id="g166" transform="translate(-.42475 -5.6229)">
  <path id="rect168" fill="#fff" d="m600 60h10v30h-10z"/>
  <path id="rect170" d="m600 60h10v30h-10z" stroke="#000" stroke-width="2" fill="none"/>
 </g>
 <g id="g172" transform="translate(-.42475 -5.6229)">
  <path id="rect174" fill="#add8e6" d="m540 100h80v60h-80z"/>
  <path id="rect176" d="m540 100h80v60h-80z" stroke="#000" stroke-width="2" fill="none"/>
 </g>
 <g id="g178" transform="translate(-.42475 -5.6229)">
  <path id="polygon180" fill="#ff4040" d="m630 100-50-40-50 40z"/>
  <path id="polygon182" d="m630 100-50-40-50 40z" stroke="#000" stroke-width="2" fill="none"/>
 </g>
 <g id="g184" transform="translate(-.42475 -5.6229)">
  <path id="rect186" fill="#a52a2a" d="m590 120h20v40h-20z"/>
  <path id="rect188" d="m590 120h20v40h-20z" stroke="#000" stroke-width="2" fill="none"/>
 </g>
 <g id="g190" transform="translate(-.42475 -5.6229)">
  <path id="rect192" fill="#1e90ff" d="m548 120h32v20h-32z"/>
  <path id="rect194" d="m548 120h32v20h-32z" stroke="#000" stroke-width="2" fill="none"/>
 </g>
 <g id="g196" transform="translate(-.42475 -5.6229)">
  <path id="polygon198" fill="#fff" d="m580 120v16l-16-16z"/>
  <path id="polygon200" d="m580 120v16l-16-16z" stroke="#000" stroke-width="2" fill="none"/>
 </g>
 <g id="g202" transform="translate(-.42475 -5.6229)">
  <path id="polygon204" fill="#fff" d="m564 120-16 16v-16z"/>
  <path id="polygon206" d="m564 120-16 16v-16z" stroke="#000" stroke-width="2" fill="none"/>
 </g>
 <g id="text208">
  <path id="path3380" style="" d="m542.63 107.95h2.1828v-7.534l-2.3746 0.47625v-1.2171l2.3614-0.47625h1.3361v8.7511h2.1828v1.1245h-5.6886v-1.1245"/>
  <path id="path3382" style="" d="m554.05 103.61c-0.59973 0.00001-1.076 0.20506-1.4288 0.61516-0.34837 0.41011-0.52255 0.97235-0.52255 1.6867 0 0.70997 0.17418 1.2722 0.52255 1.6867 0.35278 0.4101 0.82903 0.61516 1.4288 0.61515 0.59971 0.00001 1.0738-0.20505 1.4221-0.61515 0.35278-0.41452 0.52917-0.97676 0.52917-1.6867 0-0.71437-0.17639-1.2766-0.52917-1.6867-0.34837-0.4101-0.82242-0.61515-1.4221-0.61516m2.6524-4.187v1.2171c-0.33515-0.15874-0.6747-0.28001-1.0186-0.3638-0.33955-0.0838-0.6769-0.12567-1.012-0.12568-0.88195 0.00001-1.5566 0.29766-2.0241 0.89297-0.46302 0.59532-0.72761 1.4949-0.79375 2.6988 0.26017-0.38365 0.58649-0.67689 0.97896-0.87975 0.39246-0.20725 0.82462-0.31088 1.2965-0.31088 0.99219 0 1.7749 0.30207 2.3482 0.9062 0.57767 0.59973 0.86651 1.4177 0.86652 2.454-0.00001 1.0142-0.29987 1.8278-0.89959 2.4408-0.59973 0.61295-1.3979 0.91943-2.3945 0.91943-1.1421 0-2.0152-0.43656-2.6194-1.3097-0.60413-0.87754-0.9062-2.1475-0.9062-3.81 0-1.561 0.37042-2.8046 1.1113-3.7306 0.74083-0.93045 1.7352-1.3957 2.9832-1.3957 0.33514 0.00001 0.67248 0.03308 1.012 0.09922 0.34396 0.06616 0.70115 0.16538 1.0716 0.29766"/>
 </g>
 <g id="g212" transform="translate(-.42475 -5.6229)">
  <path id="rect214" fill="#fff" d="m340 200h10v30h-10z"/>
  <path id="rect216" d="m340 200h10v30h-10z" stroke="#000" stroke-width="2" fill="none"/>
 </g>
 <g id="g218" transform="translate(-.42475 -5.6229)">
  <path id="rect220" fill="#add8e6" d="m280 240h80v60h-80z"/>
  <path id="rect222" d="m280 240h80v60h-80z" stroke="#000" stroke-width="2" fill="none"/>
 </g>
 <g id="g224" transform="translate(-.42475 -5.6229)">
  <path id="polygon226" fill="#ff4040" d="m370 240-50-40-50 40z"/>
  <path id="polygon228" d="m370 240-50-40-50 40z" stroke="#000" stroke-width="2" fill="none"/>
 </g>
 <g id="g230" transform="translate(-.42475 -5.6229)">
  <path id="rect232" fill="#a52a2a" d="m330 260h20v40h-20z"/>
  <path id="rect234" d="m330 260h20v40h-20z" stroke="#000" stroke-width="2" fill="none"/>
 </g>
 <g id="g236" transform="translate(-.42475 -5.6229)">
  <path id="rect238" fill="#1e90ff" d="m288 260h32v20h-32z"/>
  <path id="rect240" d="m288 260h32v20h-32z" stroke="#000" stroke-width="2" fill="none"/>
 </g>
 <g id="g242" transform="translate(-.42475 -5.6229)">
  <path id="polygon244" fill="#fff" d="m320 260v16l-16-16z"/>
  <path id="polygon246" d="m320 260v16l-16-16z" stroke="#000" stroke-width="2" fill="none"/>
 </g>
 <g id="g248" transform="translate(-.42475 -5.6229)">
  <path id="polygon250" fill="#fff" d="m304 260-16 16v-16z"/>
  <path id="polygon252" d="m304 260-16 16v-16z" stroke="#000" stroke-width="2" fill="none"/>
 </g>
 <g id="text254">
  <path id="path3399" style="" d="m286.37 239.2h6.35v0.56885l-3.5851 9.3067h-1.3957l3.3734-8.7511h-4.7427v-1.1245"/>
 </g>
 <g id="g258" transform="translate(-.42475 -5.6229)">
  <path id="rect260" fill="#fff" d="m470 200h10v30h-10z"/>
  <path id="rect262" d="m470 200h10v30h-10z" stroke="#000" stroke-width="2" fill="none"/>
 </g>
 <g id="g264" transform="translate(-.42475 -5.6229)">
  <path id="rect266" fill="#add8e6" d="m410 240h80v60h-80z"/>
  <path id="rect268" d="m410 240h80v60h-80z" stroke="#000" stroke-width="2" fill="none"/>
 </g>
 <g id="g270" transform="translate(-.42475 -5.6229)">
  <path id="polygon272" fill="#ff4040" d="m500 240-50-40-50 40z"/>
  <path id="polygon274" d="m500 240-50-40-50 40z" stroke="#000" stroke-width="2" fill="none"/>
 </g>
 <g id="g276" transform="translate(-.42475 -5.6229)">
  <path id="rect278" fill="#a52a2a" d="m460 260h20v40h-20z"/>
  <path id="rect280" d="m460 260h20v40h-20z" stroke="#000" stroke-width="2" fill="none"/>
 </g>
 <g id="g282" transform="translate(-.42475 -5.6229)">
  <path id="rect284" fill="#1e90ff" d="m418 260h32v20h-32z"/>
  <path id="rect286" d="m418 260h32v20h-32z" stroke="#000" stroke-width="2" fill="none"/>
 </g>
 <g id="g288" transform="translate(-.42475 -5.6229)">
  <path id="polygon290" fill="#fff" d="m450 260v16l-16-16z"/>
  <path id="polygon292" d="m450 260v16l-16-16z" stroke="#000" stroke-width="2" fill="none"/>
 </g>
 <g id="g294" transform="translate(-.42475 -5.6229)">
  <path id="polygon296" fill="#fff" d="m434 260-16 16v-16z"/>
  <path id="polygon298" d="m434 260-16 16v-16z" stroke="#000" stroke-width="2" fill="none"/>
 </g>
 <g id="text300">
  <path id="path3416" style="" d="m416.75 248.87v-1.2171c0.33514 0.15875 0.67469 0.28002 1.0186 0.36381 0.34396 0.0838 0.6813 0.12567 1.012 0.12567 0.88195 0 1.5544-0.29545 2.0175-0.88635 0.46742-0.59531 0.73421-1.4971 0.80036-2.7054-0.25577 0.37924-0.57988 0.67028-0.97234 0.87312-0.39247 0.20285-0.82683 0.30428-1.3031 0.30427-0.98778 0.00001-1.7705-0.29765-2.3482-0.89297-0.57327-0.59971-0.8599-1.4177-0.8599-2.454 0-1.0142 0.29986-1.8278 0.89959-2.4408 0.59972-0.61294 1.3979-0.91942 2.3945-0.91943 1.1421 0.00001 2.013 0.43878 2.6128 1.3163 0.60412 0.87313 0.90619 2.1431 0.9062 3.81-0.00001 1.5566-0.37043 2.8002-1.1112 3.7306-0.73644 0.92604-1.7286 1.3891-2.9766 1.3891-0.33515 0-0.6747-0.0331-1.0186-0.0992-0.34396-0.0661-0.70115-0.16537-1.0716-0.29766m2.6591-4.187c0.59972 0 1.0738-0.20505 1.4221-0.61516 0.35277-0.4101 0.52916-0.97234 0.52917-1.6867-0.00001-0.70996-0.1764-1.27-0.52917-1.6801-0.34837-0.41451-0.82242-0.62176-1.4221-0.62177-0.59973 0.00001-1.076 0.20726-1.4288 0.62177-0.34837 0.41011-0.52256 0.97015-0.52256 1.6801 0 0.71438 0.17419 1.2766 0.52256 1.6867 0.35277 0.41011 0.82902 0.61516 1.4288 0.61516"/>
 </g>
 <g id="g304" transform="translate(-.42475 -5.6229)">
  <path id="rect306" fill="#fff" d="m600 200h10v30h-10z"/>
  <path id="rect308" d="m600 200h10v30h-10z" stroke="#000" stroke-width="2" fill="none"/>
 </g>
 <g id="g310" transform="translate(-.42475 -5.6229)">
  <path id="rect312" fill="#add8e6" d="m540 240h80v60h-80z"/>
  <path id="rect314" d="m540 240h80v60h-80z" stroke="#000" stroke-width="2" fill="none"/>
 </g>
 <g id="g316" transform="translate(-.42475 -5.6229)">
  <path id="rect318" fill="#a52a2a" d="m590 260h20v40h-20z"/>
  <path id="rect320" d="m590 260h20v40h-20z" stroke="#000" stroke-width="2" fill="none"/>
 </g>
 <g id="g322" transform="translate(-.42475 -5.6229)">
  <path id="rect324" fill="#1e90ff" d="m548 260h32v20h-32z"/>
  <path id="rect326" d="m548 260h32v20h-32z" stroke="#000" stroke-width="2" fill="none"/>
 </g>
 <g id="g328" transform="translate(-.42475 -5.6229)">
  <path id="polygon330" fill="#fff" d="m580 260v16l-16-16z"/>
  <path id="polygon332" d="m580 260v16l-16-16z" stroke="#000" stroke-width="2" fill="none"/>
 </g>
 <g id="g334" transform="translate(-.42475 -5.6229)">
  <path id="polygon336" fill="#fff" d="m564 260-16 16v-16z"/>
  <path id="polygon338" d="m564 260-16 16v-16z" stroke="#000" stroke-width="2" fill="none"/>
 </g>
 <g id="text340">
  <path id="path3431" style="" d="m542.63 247.95h2.1828v-7.534l-2.3746 0.47625v-1.2171l2.3614-0.47625h1.3361v8.7511h2.1828v1.1245h-5.6886v-1.1245"/>
  <path id="path3433" style="" d="m551.26 247.95h2.1828v-7.534l-2.3746 0.47625v-1.2171l2.3614-0.47625h1.3362v8.7511h2.1828v1.1245h-5.6886v-1.1245"/>
 </g>
 <g id="g344" transform="translate(-.42475 -5.6229)">
  <path id="rect346" fill="#fff" d="m340 340h10v30h-10z"/>
  <path id="rect348" d="m340 340h10v30h-10z" stroke="#000" stroke-width="2" fill="none"/>
 </g>
 <g id="g350" transform="translate(-.42475 -5.6229)">
  <path id="rect352" fill="#add8e6" d="m280 380h80v60h-80z"/>
  <path id="rect354" d="m280 380h80v60h-80z" stroke="#000" stroke-width="2" fill="none"/>
 </g>
 <g id="g356" transform="translate(-.42475 -5.6229)">
  <path id="polygon358" fill="#ff4040" d="m370 380-50-40-50 40z"/>
  <path id="polygon360" d="m370 380-50-40-50 40z" stroke="#000" stroke-width="2" fill="none"/>
 </g>
 <g id="g362" transform="translate(-.42475 -5.6229)">
  <path id="rect364" fill="#a52a2a" d="m330 400h20v40h-20z"/>
  <path id="rect366" d="m330 400h20v40h-20z" stroke="#000" stroke-width="2" fill="none"/>
 </g>
 <g id="g368" transform="translate(-.42475 -5.6229)">
  <path id="rect370" fill="#1e90ff" d="m288 400h32v20h-32z"/>
  <path id="rect372" d="m288 400h32v20h-32z" stroke="#000" stroke-width="2" fill="none"/>
 </g>
 <g id="g374" transform="translate(-.42475 -5.6229)">
  <path id="polygon376" fill="#fff" d="m320 400v16l-16-16z"/>
  <path id="polygon378" d="m320 400v16l-16-16z" stroke="#000" stroke-width="2" fill="none"/>
 </g>
 <g id="g380" transform="translate(-.42475 -5.6229)">
  <path id="polygon382" fill="#fff" d="m304 400-16 16v-16z"/>
  <path id="polygon384" d="m304 400-16 16v-16z" stroke="#000" stroke-width="2" fill="none"/>
 </g>
 <g id="text386">
  <path id="path3450" style="" d="m283.55 387.95h4.6633v1.1245h-6.2706v-1.1245c0.50712-0.52476 1.1972-1.2281 2.0704-2.1101 0.87753-0.88635 1.4288-1.4574 1.6536-1.7132 0.42774-0.48066 0.72539-0.88635 0.89297-1.2171 0.17197-0.33513 0.25796-0.66366 0.25797-0.98557-0.00001-0.52476-0.18522-0.9525-0.55563-1.2832-0.36601-0.33072-0.84447-0.49608-1.4354-0.49609-0.41892 0.00001-0.8621 0.0728-1.3295 0.21828-0.46302 0.14553-0.95912 0.36602-1.4883 0.66146v-1.3494c0.53799-0.21607 1.0407-0.37923 1.5081-0.48948 0.46743-0.11023 0.89518-0.16535 1.2832-0.16536 1.023 0.00001 1.8388 0.25577 2.4474 0.76729 0.60853 0.51154 0.9128 1.195 0.91281 2.0505-0.00001 0.4057-0.0772 0.79155-0.23151 1.1576-0.14994 0.3616-0.42554 0.78935-0.82682 1.2832-0.11025 0.12789-0.46083 0.49831-1.0517 1.1113-0.5909 0.60854-1.4243 1.4618-2.5003 2.5598"/>
  <path id="path3452" style="" d="m291.26 387.95h2.1828v-7.534l-2.3746 0.47625v-1.2171l2.3614-0.47625h1.3362v8.7511h2.1828v1.1245h-5.6886v-1.1245"/>
 </g>
 <g id="g390" transform="translate(-.42475 -5.6229)">
  <path id="rect392" fill="#fff" d="m470 340h10v30h-10z"/>
  <path id="rect394" d="m470 340h10v30h-10z" stroke="#000" stroke-width="2" fill="none"/>
 </g>
 <g id="g396" transform="translate(-.42475 -5.6229)">
  <path id="rect398" fill="#add8e6" d="m410 380h80v60h-80z"/>
  <path id="rect400" d="m410 380h80v60h-80z" stroke="#000" stroke-width="2" fill="none"/>
 </g>
 <g id="g402" transform="translate(-.42475 -5.6229)">
  <path id="polygon404" fill="#ff4040" d="m500 380-50-40-50 40z"/>
  <path id="polygon406" d="m500 380-50-40-50 40z" stroke="#000" stroke-width="2" fill="none"/>
 </g>
 <g id="g408" transform="translate(-.42475 -5.6229)">
  <path id="rect410" fill="#a52a2a" d="m460 400h20v40h-20z"/>
  <path id="rect412" d="m460 400h20v40h-20z" stroke="#000" stroke-width="2" fill="none"/>
 </g>
 <g id="g414" transform="translate(-.42475 -5.6229)">
  <path id="rect416" fill="#1e90ff" d="m418 400h32v20h-32z"/>
  <path id="rect418" d="m418 400h32v20h-32z" stroke="#000" stroke-width="2" fill="none"/>
 </g>
 <g id="g420" transform="translate(-.42475 -5.6229)">
  <path id="polygon422" fill="#fff" d="m450 400v16l-16-16z"/>
  <path id="polygon424" d="m450 400v16l-16-16z" stroke="#000" stroke-width="2" fill="none"/>
 </g>
 <g id="g426" transform="translate(-.42475 -5.6229)">
  <path id="polygon428" fill="#fff" d="m434 400-16 16v-16z"/>
  <path id="polygon430" d="m434 400-16 16v-16z" stroke="#000" stroke-width="2" fill="none"/>
 </g>
 <g id="text432">
  <path id="path3469" style="" d="m413.55 387.95h4.6633v1.1245h-6.2706v-1.1245c0.50712-0.52476 1.1972-1.2281 2.0704-2.1101 0.87753-0.88635 1.4288-1.4574 1.6536-1.7132 0.42774-0.48066 0.72539-0.88635 0.89297-1.2171 0.17197-0.33513 0.25796-0.66366 0.25797-0.98557-0.00001-0.52476-0.18522-0.9525-0.55563-1.2832-0.36601-0.33072-0.84447-0.49608-1.4354-0.49609-0.41892 0.00001-0.8621 0.0728-1.3295 0.21828-0.46302 0.14553-0.95912 0.36602-1.4883 0.66146v-1.3494c0.53799-0.21607 1.0407-0.37923 1.5081-0.48948 0.46743-0.11023 0.89518-0.16535 1.2832-0.16536 1.023 0.00001 1.8388 0.25577 2.4474 0.76729 0.60853 0.51154 0.9128 1.195 0.91281 2.0505-0.00001 0.4057-0.0772 0.79155-0.23151 1.1576-0.14994 0.3616-0.42554 0.78935-0.82682 1.2832-0.11025 0.12789-0.46083 0.49831-1.0517 1.1113-0.5909 0.60854-1.4243 1.4618-2.5003 2.5598"/>
  <path id="path3471" style="" d="m425.07 383.75c0.6394 0.13671 1.1377 0.42114 1.4949 0.85329 0.36159 0.43216 0.54239 0.96573 0.5424 1.6007-0.00001 0.97455-0.33515 1.7286-1.0054 2.2622-0.67029 0.53358-1.6228 0.80037-2.8575 0.80037-0.41452 0-0.84226-0.0419-1.2832-0.12568-0.43657-0.0794-0.88857-0.20064-1.356-0.3638v-1.2898c0.37042 0.21608 0.77612 0.37924 1.2171 0.48948 0.44097 0.11025 0.90179 0.16537 1.3824 0.16537 0.83785 0 1.475-0.16536 1.9116-0.4961 0.44097-0.33072 0.66145-0.81138 0.66146-1.442-0.00001-0.58208-0.20506-1.0363-0.61516-1.3626-0.4057-0.33072-0.97235-0.49609-1.7-0.49609h-1.1509v-1.098h1.2039c0.65704 0 1.1598-0.13009 1.5081-0.39027 0.34836-0.26457 0.52254-0.64381 0.52255-1.1377-0.00001-0.50711-0.18081-0.89516-0.5424-1.1642-0.35719-0.27339-0.87092-0.41009-1.5412-0.4101-0.36601 0.00001-0.75848 0.0397-1.1774 0.11906-0.41892 0.0794-0.87974 0.20286-1.3824 0.37042v-1.1906c0.50712-0.1411 0.98116-0.24693 1.4221-0.3175 0.44538-0.0706 0.8643-0.10582 1.2568-0.10583 1.0142 0.00001 1.8168 0.23152 2.4077 0.69453 0.5909 0.45862 0.88635 1.0804 0.88635 1.8653 0 0.54681-0.15655 1.0098-0.46963 1.3891-0.3131 0.37484-0.75848 0.63501-1.3362 0.78052"/>
 </g>
 <g id="g436" transform="translate(-.42475 -5.6229)">
  <path id="rect438" fill="#fff" d="m600 340h10v30h-10z"/>
  <path id="rect440" d="m600 340h10v30h-10z" stroke="#000" stroke-width="2" fill="none"/>
 </g>
 <g id="g442" transform="translate(-.42475 -5.6229)">
  <path id="rect444" fill="#add8e6" d="m540 380h80v60h-80z"/>
  <path id="rect446" d="m540 380h80v60h-80z" stroke="#000" stroke-width="2" fill="none"/>
 </g>
 <g id="g448" transform="translate(-.42475 -5.6229)">
  <path id="rect450" fill="#a52a2a" d="m590 400h20v40h-20z"/>
  <path id="rect452" d="m590 400h20v40h-20z" stroke="#000" stroke-width="2" fill="none"/>
 </g>
 <g id="g454" transform="translate(-.42475 -5.6229)">
  <path id="rect456" fill="#1e90ff" d="m548 400h32v20h-32z"/>
  <path id="rect458" d="m548 400h32v20h-32z" stroke="#000" stroke-width="2" fill="none"/>
 </g>
 <g id="g460" transform="translate(-.42475 -5.6229)">
  <path id="polygon462" fill="#fff" d="m580 400v16l-16-16z"/>
  <path id="polygon464" d="m580 400v16l-16-16z" stroke="#000" stroke-width="2" fill="none"/>
 </g>
 <g id="g466" transform="translate(-.42475 -5.6229)">
  <path id="polygon468" fill="#fff" d="m564 400-16 16v-16z"/>
  <path id="polygon470" d="m564 400-16 16v-16z" stroke="#000" stroke-width="2" fill="none"/>
 </g>
 <g id="text472">
  <path id="path3486" style="" d="m543.55 387.95h4.6633v1.1245h-6.2706v-1.1245c0.50712-0.52476 1.1972-1.2281 2.0704-2.1101 0.87753-0.88635 1.4288-1.4574 1.6536-1.7132 0.42774-0.48066 0.72539-0.88635 0.89297-1.2171 0.17197-0.33513 0.25796-0.66366 0.25797-0.98557-0.00001-0.52476-0.18522-0.9525-0.55563-1.2832-0.36601-0.33072-0.84447-0.49608-1.4354-0.49609-0.41892 0.00001-0.8621 0.0728-1.3295 0.21828-0.46302 0.14553-0.95912 0.36602-1.4883 0.66146v-1.3494c0.53799-0.21607 1.0407-0.37923 1.5081-0.48948 0.46743-0.11023 0.89518-0.16535 1.2832-0.16536 1.023 0.00001 1.8388 0.25577 2.4474 0.76729 0.60853 0.51154 0.9128 1.195 0.91281 2.0505-0.00001 0.4057-0.0772 0.79155-0.23151 1.1576-0.14994 0.3616-0.42554 0.78935-0.82682 1.2832-0.11025 0.12789-0.46083 0.49831-1.0517 1.1113-0.5909 0.60854-1.4243 1.4618-2.5003 2.5598"/>
  <path id="path3488" style="" d="m551.04 379.2h5.2454v1.1245h-4.0217v2.421c0.19403-0.0661 0.38806-0.11465 0.58209-0.14553 0.19402-0.0353 0.38805-0.0529 0.58208-0.0529 1.1024 0 1.9756 0.30207 2.6194 0.9062 0.64382 0.60414 0.96573 1.4221 0.96574 2.454-0.00001 1.0628-0.33074 1.8896-0.99219 2.4805-0.66147 0.58649-1.5941 0.87974-2.798 0.87974-0.41452 0-0.83785-0.0353-1.27-0.10583-0.42775-0.0706-0.87093-0.17639-1.3295-0.3175v-1.3428c0.39688 0.21608 0.80698 0.37704 1.2303 0.48287 0.42333 0.10583 0.87092 0.15875 1.3428 0.15875 0.76288 0 1.367-0.20064 1.8124-0.60193 0.44538-0.40128 0.66807-0.94588 0.66808-1.6338-0.00001-0.68791-0.2227-1.2325-0.66808-1.6338-0.44539-0.40128-1.0495-0.60192-1.8124-0.60193-0.35719 0.00001-0.71438 0.0397-1.0716 0.11906-0.35278 0.0794-0.71438 0.20286-1.0848 0.37042v-4.961"/>
 </g>
 <g id="g476" transform="translate(-.42475 -5.6229)">
  <path id="polygon478" fill="#ff4040" d="m630 240-50-40-50 40z"/>
  <path id="polygon480" d="m630 240-50-40-50 40z" stroke="#000" stroke-width="2" fill="none"/>
 </g>
 <g id="g482" transform="translate(-.42475 -5.6229)">
  <path id="polygon484" fill="#ff4040" d="m630 380-50-40-50 40z"/>
  <path id="polygon486" d="m630 380-50-40-50 40z" stroke="#000" stroke-width="2" fill="none"/>
 </g>
</svg>
