<?xml version="1.0" encoding="UTF-8" standalone="no"?>
<!-- Created with Inkscape (http://www.inkscape.org/) -->

<svg
   xmlns:dc="http://purl.org/dc/elements/1.1/"
   xmlns:cc="http://creativecommons.org/ns#"
   xmlns:rdf="http://www.w3.org/1999/02/22-rdf-syntax-ns#"
   xmlns:svg="http://www.w3.org/2000/svg"
   xmlns="http://www.w3.org/2000/svg"
   xmlns:inkscape="http://www.inkscape.org/namespaces/inkscape"
   version="1.1"
   width="450"
   height="260"
   id="svg2">
  <defs
     id="defs4" />
  <metadata
     id="metadata7">
    <rdf:RDF>
      <cc:Work
         rdf:about="">
        <dc:format>image/svg+xml</dc:format>
        <dc:type
           rdf:resource="http://purl.org/dc/dcmitype/StillImage" />
        <dc:title />
      </cc:Work>
    </rdf:RDF>
  </metadata>
  <g
     id="g3864">
    <rect
       width="90"
       height="50"
       x="5"
       y="55.000004"
       id="rect2987"
       style="fill:#ffffff;fill-opacity:1;stroke:#000000;stroke-width:1;stroke-linejoin:round;stroke-miterlimit:4;stroke-opacity:1;stroke-dasharray:none;stroke-dashoffset:0" />
    <text
       x="35"
       y="90"
       id="text3759"
       xml:space="preserve"
       style="font-size:36px;font-style:normal;font-weight:normal;line-height:125%;letter-spacing:0px;word-spacing:0px;fill:#000000;fill-opacity:1;stroke:none;font-family:Sans"><tspan
         x="35"
         y="90"
         id="tspan3761">.c</tspan></text>
    <rect
       width="90"
       height="50"
       x="205"
       y="55.000004"
       id="rect2987-4"
       style="fill:#ffffff;fill-opacity:1;stroke:#000000;stroke-width:1;stroke-linejoin:round;stroke-miterlimit:4;stroke-opacity:1;stroke-dasharray:none;stroke-dashoffset:0" />
    <text
       x="215"
       y="90"
       id="text3759-7"
       xml:space="preserve"
       style="font-size:36px;font-style:normal;font-weight:normal;line-height:125%;letter-spacing:0px;word-spacing:0px;fill:#000000;fill-opacity:1;stroke:none;font-family:Sans"><tspan
         x="215"
         y="90"
         id="tspan3761-6">.obj</tspan></text>
    <rect
       width="90"
       height="50"
       x="355"
       y="130"
       id="rect2987-4-6"
       style="fill:#ffffff;fill-opacity:1;stroke:#000000;stroke-width:1;stroke-linejoin:round;stroke-miterlimit:4;stroke-opacity:1;stroke-dasharray:none;stroke-dashoffset:0" />
    <text
       x="370"
       y="165"
       id="text3759-7-5"
       xml:space="preserve"
       style="font-size:36px;font-style:normal;font-weight:normal;line-height:125%;letter-spacing:0px;word-spacing:0px;fill:#000000;fill-opacity:1;stroke:none;font-family:Sans"><tspan
         x="370"
         y="165"
         id="tspan3761-6-2">exe</tspan></text>
    <path
       d="m 100,80 100,0"
       inkscape:connector-curvature="0"
       id="path3859"
       style="fill:none;stroke:#000000;stroke-width:1px;stroke-linecap:butt;stroke-linejoin:miter;stroke-opacity:1" />
    <path
       d="m 190,70 10,10 -10,10"
       inkscape:connector-curvature="0"
       id="path3861"
       style="fill:none;stroke:#000000;stroke-width:1px;stroke-linecap:butt;stroke-linejoin:miter;stroke-opacity:1" />
    <text
       x="110"
       y="70"
       id="text3863"
       xml:space="preserve"
       style="font-size:20px;font-style:italic;font-weight:normal;line-height:125%;letter-spacing:0px;word-spacing:0px;fill:#000000;fill-opacity:1;stroke:none;font-family:Sans;-inkscape-font-specification:Sans Italic"><tspan
         x="110"
         y="70"
         id="tspan3865">fordítás</tspan></text>
    <rect
       width="90"
       height="50"
       x="5"
       y="130"
       id="rect2987-3"
       style="fill:#ffffff;fill-opacity:1;stroke:#000000;stroke-width:1;stroke-linejoin:round;stroke-miterlimit:4;stroke-opacity:1;stroke-dasharray:none;stroke-dashoffset:0" />
    <text
       x="35"
       y="165"
       id="text3759-0"
       xml:space="preserve"
       style="font-size:36px;font-style:normal;font-weight:normal;line-height:125%;letter-spacing:0px;word-spacing:0px;fill:#000000;fill-opacity:1;stroke:none;font-family:Sans"><tspan
         x="35"
         y="165"
         id="tspan3761-1">.c</tspan></text>
    <rect
       width="90"
       height="50"
       x="205"
       y="130"
       id="rect2987-4-8"
       style="fill:#ffffff;fill-opacity:1;stroke:#000000;stroke-width:1;stroke-linejoin:round;stroke-miterlimit:4;stroke-opacity:1;stroke-dasharray:none;stroke-dashoffset:0" />
    <text
       x="215"
       y="165"
       id="text3759-7-9"
       xml:space="preserve"
       style="font-size:36px;font-style:normal;font-weight:normal;line-height:125%;letter-spacing:0px;word-spacing:0px;fill:#000000;fill-opacity:1;stroke:none;font-family:Sans"><tspan
         x="215"
         y="165"
         id="tspan3761-6-1">.obj</tspan></text>
    <path
       d="m 100,155 100,0"
       inkscape:connector-curvature="0"
       id="path3859-5"
       style="fill:none;stroke:#000000;stroke-width:1px;stroke-linecap:butt;stroke-linejoin:miter;stroke-opacity:1" />
    <path
       d="m 190,145 10,10 -10,10"
       inkscape:connector-curvature="0"
       id="path3861-4"
       style="fill:none;stroke:#000000;stroke-width:1px;stroke-linecap:butt;stroke-linejoin:miter;stroke-opacity:1" />
    <text
       x="110"
       y="145"
       id="text3863-9"
       xml:space="preserve"
       style="font-size:20px;font-style:italic;font-weight:normal;line-height:125%;letter-spacing:0px;word-spacing:0px;fill:#000000;fill-opacity:1;stroke:none;font-family:Sans;-inkscape-font-specification:Sans Italic"><tspan
         x="110"
         y="145"
         id="tspan3865-2">fordítás</tspan></text>
    <rect
       width="90"
       height="50"
       x="5"
       y="205"
       id="rect2987-7"
       style="fill:#ffffff;fill-opacity:1;stroke:#000000;stroke-width:1;stroke-linejoin:round;stroke-miterlimit:4;stroke-opacity:1;stroke-dasharray:none;stroke-dashoffset:0" />
    <text
       x="35"
       y="240"
       id="text3759-4"
       xml:space="preserve"
       style="font-size:36px;font-style:normal;font-weight:normal;line-height:125%;letter-spacing:0px;word-spacing:0px;fill:#000000;fill-opacity:1;stroke:none;font-family:Sans"><tspan
         x="35"
         y="240"
         id="tspan3761-9">.c</tspan></text>
    <rect
       width="90"
       height="50"
       x="205"
       y="205"
       id="rect2987-4-4"
       style="fill:#ffffff;fill-opacity:1;stroke:#000000;stroke-width:1;stroke-linejoin:round;stroke-miterlimit:4;stroke-opacity:1;stroke-dasharray:none;stroke-dashoffset:0" />
    <text
       x="215"
       y="240"
       id="text3759-7-59"
       xml:space="preserve"
       style="font-size:36px;font-style:normal;font-weight:normal;line-height:125%;letter-spacing:0px;word-spacing:0px;fill:#000000;fill-opacity:1;stroke:none;font-family:Sans"><tspan
         x="215"
         y="240"
         id="tspan3761-6-3">.obj</tspan></text>
    <path
       d="m 100,230.00002 100,0"
       inkscape:connector-curvature="0"
       id="path3859-57"
       style="fill:none;stroke:#000000;stroke-width:1px;stroke-linecap:butt;stroke-linejoin:miter;stroke-opacity:1" />
    <path
       d="m 190,220.00002 10,10 -10,10"
       inkscape:connector-curvature="0"
       id="path3861-0"
       style="fill:none;stroke:#000000;stroke-width:1px;stroke-linecap:butt;stroke-linejoin:miter;stroke-opacity:1" />
    <text
       x="110"
       y="220"
       id="text3863-8"
       xml:space="preserve"
       style="font-size:20px;font-style:italic;font-weight:normal;line-height:125%;letter-spacing:0px;word-spacing:0px;fill:#000000;fill-opacity:1;stroke:none;font-family:Sans;-inkscape-font-specification:Sans Italic"><tspan
         x="110"
         y="220"
         id="tspan3865-1">fordítás</tspan></text>
    <path
       d="m 300,80 20,0 0,150.00002 -20,0"
       inkscape:connector-curvature="0"
       id="path3947"
       style="fill:none;stroke:#000000;stroke-width:1px;stroke-linecap:butt;stroke-linejoin:miter;stroke-opacity:1" />
    <path
       d="m 300,155 50,0"
       inkscape:connector-curvature="0"
       id="path3949"
       style="fill:none;stroke:#000000;stroke-width:1px;stroke-linecap:butt;stroke-linejoin:miter;stroke-opacity:1" />
    <path
       d="m 340,145 10,10 -10,10"
       inkscape:connector-curvature="0"
       id="path3951"
       style="fill:none;stroke:#000000;stroke-width:1px;stroke-linecap:butt;stroke-linejoin:miter;stroke-opacity:1" />
    <text
       x="255"
       y="25.000002"
       id="text3863-1"
       xml:space="preserve"
       style="font-size:20px;font-style:italic;font-weight:normal;line-height:125%;letter-spacing:0px;word-spacing:0px;fill:#000000;fill-opacity:1;stroke:none;font-family:Sans;-inkscape-font-specification:Sans Italic"><tspan
         x="255"
         y="25.000002"
         id="tspan3865-9">összeszerkesztés</tspan></text>
    <path
       d="m 326,119 c -0.4822,-1.03047 2.78121,-0.97675 2.55339,-2.09142 -0.30187,-1.477 1.3906,-2.0859 2.02031,-3.03046 0.20882,-0.31323 0.29625,-0.69692 0.50507,-1.01015 0.13207,-0.19811 0.42979,-0.2792 0.50508,-0.50508 0.10648,-0.31944 -0.15059,-0.70898 0,-1.01015 0.21296,-0.42592 0.74601,-0.61394 1.01015,-1.01015 0.0934,-0.14009 -0.0753,-0.3545 0,-0.50508 0.10648,-0.21296 0.37301,-0.30697 0.50508,-0.50508 0.20882,-0.31323 0.29625,-0.69691 0.50507,-1.01015 0.26415,-0.39621 0.74601,-0.61394 1.01016,-1.01015 0.59224,-0.88837 0.59946,-1.49867 1.01015,-2.52538 0.13981,-0.34954 0.38603,-0.65301 0.50508,-1.01015 0.0532,-0.15972 -0.0934,-0.365 0,-0.50508 1.0963,-1.64445 0.93953,-0.29323 1.51522,-2.02031 0.15153,-0.45456 -0.15152,-1.06066 0,-1.51523 0.11905,-0.35714 0.38603,-0.653 0.50508,-1.01015 0.10648,-0.31944 -0.10648,-0.69071 0,-1.01015 0.11905,-0.35714 0.38603,-0.65301 0.50508,-1.01015 0.15126,-0.45379 -0.11631,-1.05001 0,-1.51523 1.27577,-5.1031 -0.18238,0.36476 1.01015,-2.02031 0.15058,-0.30117 -0.0817,-0.68349 0,-1.01015 1.051,-4.20401 -0.0349,0.60968 1.01015,-2.52538 0.15972,-0.47916 -0.1225,-1.02523 0,-1.51523 0.18261,-0.73044 0.82754,-1.28986 1.01015,-2.0203 0.096,-0.3841 0,-2.10244 0,-2.52539 0,-1.34687 0,-2.69374 0,-4.04061 0,-1.68358 0,-3.36717 0,-5.05076 0,-0.50508 0,-1.01015 0,-1.51523 0,-0.16836 0.0532,-0.34535 0,-0.50507 -0.11904,-0.35715 -0.38602,-0.65301 -0.50507,-1.01016 -0.16399,-0.49196 0.16038,-2.04424 0,-2.52538 -0.11905,-0.35714 -0.41377,-0.64493 -0.50508,-1.01015 -0.0817,-0.32666 0.10648,-0.69071 0,-1.01015 -0.0753,-0.22588 -0.3986,-0.29212 -0.50507,-0.50508 -0.0753,-0.15058 0.0532,-0.34536 0,-0.50508 -0.11905,-0.35714 -0.38603,-0.65301 -0.50508,-1.01015 -0.10648,-0.31944 0.15058,-0.70898 0,-1.01015 -0.10648,-0.21296 -0.42978,-0.2792 -0.50508,-0.50508 -0.10648,-0.31944 0.10648,-0.69071 0,-1.01015 -0.0753,-0.22588 -0.42978,-0.2792 -0.50507,-0.50508 -0.10648,-0.31943 0,-0.67343 0,-1.01015 0,-0.16836 0.0753,-0.35449 0,-0.50507 -0.10648,-0.21296 -0.42979,-0.2792 -0.50508,-0.50508 -0.15597,-0.46791 0.16132,-2.04141 0,-2.52538 -0.11905,-0.35714 -0.38603,-0.65301 -0.50508,-1.01015 -0.095,-0.28497 0,-1.18334 0,-1.51523 0,-1.01016 0,-2.02031 0,-3.03046 0,-3.03046 0,-6.06092 0,-9.09137 0,-2.8621 0,-5.7242 0,-8.5863 0,-0.67344 0,-1.34687 0,-2.02031 0,-0.16835 -0.16835,-0.50507 0,-0.50507 0.16836,0 0,0.33672 0,0.50507 C 338.42984,31.37051 337.21492,28.68526 338,28"
       inkscape:connector-curvature="0"
       id="path3976"
       style="fill:none;stroke:#000000;stroke-width:1.5;stroke-linecap:butt;stroke-linejoin:miter;stroke-miterlimit:4;stroke-opacity:1;stroke-dasharray:1.5, 3;stroke-dashoffset:0" />
  </g>
</svg>
