<svg width="320" height="120" xmlns="http://www.w3.org/2000/svg">
  <line x1="0" y1="60" x2="320" y2="60" stroke="black" />
  <line x1="320" y1="60" x2="310" y2="55" stroke="black" />
  <line x1="320" y1="60" x2="310" y2="65" stroke="black" />
  <line x1="160" y1="0" x2="160" y2="120" stroke="black" />
  <line x1="160" y1="0" x2="155" y2="10" stroke="black" />
  <line x1="160" y1="0" x2="165" y2="10" stroke="black" />
  <line x1="185" y1="55" x2="185" y2="65" stroke="black" />
  <line x1="155" y1="35" x2="165" y2="35" stroke="black" />
  <line x1="1" y1="61.9185" x2="0" y2="62.9137" stroke="blue" />
  <line x1="2" y1="60.9202" x2="1" y2="61.9185" stroke="blue" />
  <line x1="3" y1="59.9204" x2="2" y2="60.9202" stroke="blue" />
  <line x1="4" y1="58.9207" x2="3" y2="59.9204" stroke="blue" />
  <line x1="5" y1="57.9228" x2="4" y2="58.9207" stroke="blue" />
  <line x1="6" y1="56.9282" x2="5" y2="57.9228" stroke="blue" />
  <line x1="7" y1="55.9384" x2="6" y2="56.9282" stroke="blue" />
  <line x1="8" y1="54.9552" x2="7" y2="55.9384" stroke="blue" />
  <line x1="9" y1="53.9801" x2="8" y2="54.9552" stroke="blue" />
  <line x1="10" y1="53.0146" x2="9" y2="53.9801" stroke="blue" />
  <line x1="11" y1="52.0603" x2="10" y2="53.0146" stroke="blue" />
  <line x1="12" y1="51.1187" x2="11" y2="52.0603" stroke="blue" />
  <line x1="13" y1="50.1912" x2="12" y2="51.1187" stroke="blue" />
  <line x1="14" y1="49.2795" x2="13" y2="50.1912" stroke="blue" />
  <line x1="15" y1="48.3849" x2="14" y2="49.2795" stroke="blue" />
  <line x1="16" y1="47.509" x2="15" y2="48.3849" stroke="blue" />
  <line x1="17" y1="46.6529" x2="16" y2="47.509" stroke="blue" />
  <line x1="18" y1="45.8183" x2="17" y2="46.6529" stroke="blue" />
  <line x1="19" y1="45.0063" x2="18" y2="45.8183" stroke="blue" />
  <line x1="20" y1="44.2183" x2="19" y2="45.0063" stroke="blue" />
  <line x1="21" y1="43.4556" x2="20" y2="44.2183" stroke="blue" />
  <line x1="22" y1="42.7193" x2="21" y2="43.4556" stroke="blue" />
  <line x1="23" y1="42.0107" x2="22" y2="42.7193" stroke="blue" />
  <line x1="24" y1="41.3309" x2="23" y2="42.0107" stroke="blue" />
  <line x1="25" y1="40.6809" x2="24" y2="41.3309" stroke="blue" />
  <line x1="26" y1="40.0618" x2="25" y2="40.6809" stroke="blue" />
  <line x1="27" y1="39.4746" x2="26" y2="40.0618" stroke="blue" />
  <line x1="28" y1="38.9203" x2="27" y2="39.4746" stroke="blue" />
  <line x1="29" y1="38.3997" x2="28" y2="38.9203" stroke="blue" />
  <line x1="30" y1="37.9136" x2="29" y2="38.3997" stroke="blue" />
  <line x1="31" y1="37.4629" x2="30" y2="37.9136" stroke="blue" />
  <line x1="32" y1="37.0482" x2="31" y2="37.4629" stroke="blue" />
  <line x1="33" y1="36.6703" x2="32" y2="37.0482" stroke="blue" />
  <line x1="34" y1="36.3297" x2="33" y2="36.6703" stroke="blue" />
  <line x1="35" y1="36.0269" x2="34" y2="36.3297" stroke="blue" />
  <line x1="36" y1="35.7625" x2="35" y2="36.0269" stroke="blue" />
  <line x1="37" y1="35.5368" x2="36" y2="35.7625" stroke="blue" />
  <line x1="38" y1="35.3503" x2="37" y2="35.5368" stroke="blue" />
  <line x1="39" y1="35.2033" x2="38" y2="35.3503" stroke="blue" />
  <line x1="40" y1="35.0959" x2="39" y2="35.2033" stroke="blue" />
  <line x1="41" y1="35.0283" x2="40" y2="35.0959" stroke="blue" />
  <line x1="42" y1="35.0007" x2="41" y2="35.0283" stroke="blue" />
  <line x1="43" y1="35.0131" x2="42" y2="35.0007" stroke="blue" />
  <line x1="44" y1="35.0655" x2="43" y2="35.0131" stroke="blue" />
  <line x1="45" y1="35.1577" x2="44" y2="35.0655" stroke="blue" />
  <line x1="46" y1="35.2897" x2="45" y2="35.1577" stroke="blue" />
  <line x1="47" y1="35.4612" x2="46" y2="35.2897" stroke="blue" />
  <line x1="48" y1="35.672" x2="47" y2="35.4612" stroke="blue" />
  <line x1="49" y1="35.9217" x2="48" y2="35.672" stroke="blue" />
  <line x1="50" y1="36.2099" x2="49" y2="35.9217" stroke="blue" />
  <line x1="51" y1="36.5362" x2="50" y2="36.2099" stroke="blue" />
  <line x1="52" y1="36.9" x2="51" y2="36.5362" stroke="blue" />
  <line x1="53" y1="37.3008" x2="52" y2="36.9" stroke="blue" />
  <line x1="54" y1="37.7379" x2="53" y2="37.3008" stroke="blue" />
  <line x1="55" y1="38.2106" x2="54" y2="37.7379" stroke="blue" />
  <line x1="56" y1="38.7182" x2="55" y2="38.2106" stroke="blue" />
  <line x1="57" y1="39.2598" x2="56" y2="38.7182" stroke="blue" />
  <line x1="58" y1="39.8346" x2="57" y2="39.2598" stroke="blue" />
  <line x1="59" y1="40.4416" x2="58" y2="39.8346" stroke="blue" />
  <line x1="60" y1="41.0799" x2="59" y2="40.4416" stroke="blue" />
  <line x1="61" y1="41.7485" x2="60" y2="41.0799" stroke="blue" />
  <line x1="62" y1="42.4463" x2="61" y2="41.7485" stroke="blue" />
  <line x1="63" y1="43.1722" x2="62" y2="42.4463" stroke="blue" />
  <line x1="64" y1="43.925" x2="63" y2="43.1722" stroke="blue" />
  <line x1="65" y1="44.7036" x2="64" y2="43.925" stroke="blue" />
  <line x1="66" y1="45.5065" x2="65" y2="44.7036" stroke="blue" />
  <line x1="67" y1="46.3327" x2="66" y2="45.5065" stroke="blue" />
  <line x1="68" y1="47.1808" x2="67" y2="46.3327" stroke="blue" />
  <line x1="69" y1="48.0493" x2="68" y2="47.1808" stroke="blue" />
  <line x1="70" y1="48.937" x2="69" y2="48.0493" stroke="blue" />
  <line x1="71" y1="49.8424" x2="70" y2="48.937" stroke="blue" />
  <line x1="72" y1="50.764" x2="71" y2="49.8424" stroke="blue" />
  <line x1="73" y1="51.7004" x2="72" y2="50.764" stroke="blue" />
  <line x1="74" y1="52.65" x2="73" y2="51.7004" stroke="blue" />
  <line x1="75" y1="53.6115" x2="74" y2="52.65" stroke="blue" />
  <line x1="76" y1="54.5831" x2="75" y2="53.6115" stroke="blue" />
  <line x1="77" y1="55.5634" x2="76" y2="54.5831" stroke="blue" />
  <line x1="78" y1="56.5509" x2="77" y2="55.5634" stroke="blue" />
  <line x1="79" y1="57.5438" x2="78" y2="56.5509" stroke="blue" />
  <line x1="80" y1="58.5406" x2="79" y2="57.5438" stroke="blue" />
  <line x1="81" y1="59.5398" x2="80" y2="58.5406" stroke="blue" />
  <line x1="82" y1="60.5398" x2="81" y2="59.5398" stroke="blue" />
  <line x1="83" y1="61.5388" x2="82" y2="60.5398" stroke="blue" />
  <line x1="84" y1="62.5354" x2="83" y2="61.5388" stroke="blue" />
  <line x1="85" y1="63.528" x2="84" y2="62.5354" stroke="blue" />
  <line x1="86" y1="64.5149" x2="85" y2="63.528" stroke="blue" />
  <line x1="87" y1="65.4946" x2="86" y2="64.5149" stroke="blue" />
  <line x1="88" y1="66.4655" x2="87" y2="65.4946" stroke="blue" />
  <line x1="89" y1="67.426" x2="88" y2="66.4655" stroke="blue" />
  <line x1="90" y1="68.3747" x2="89" y2="67.426" stroke="blue" />
  <line x1="91" y1="69.31" x2="90" y2="68.3747" stroke="blue" />
  <line x1="92" y1="70.2304" x2="91" y2="69.31" stroke="blue" />
  <line x1="93" y1="71.1344" x2="92" y2="70.2304" stroke="blue" />
  <line x1="94" y1="72.0206" x2="93" y2="71.1344" stroke="blue" />
  <line x1="95" y1="72.8875" x2="94" y2="72.0206" stroke="blue" />
  <line x1="96" y1="73.7339" x2="95" y2="72.8875" stroke="blue" />
  <line x1="97" y1="74.5583" x2="96" y2="73.7339" stroke="blue" />
  <line x1="98" y1="75.3594" x2="97" y2="74.5583" stroke="blue" />
  <line x1="99" y1="76.1359" x2="98" y2="75.3594" stroke="blue" />
  <line x1="100" y1="76.8866" x2="99" y2="76.1359" stroke="blue" />
  <line x1="101" y1="77.6103" x2="100" y2="76.8866" stroke="blue" />
  <line x1="102" y1="78.3058" x2="101" y2="77.6103" stroke="blue" />
  <line x1="103" y1="78.972" x2="102" y2="78.3058" stroke="blue" />
  <line x1="104" y1="79.6079" x2="103" y2="78.972" stroke="blue" />
  <line x1="105" y1="80.2124" x2="104" y2="79.6079" stroke="blue" />
  <line x1="106" y1="80.7846" x2="105" y2="80.2124" stroke="blue" />
  <line x1="107" y1="81.3235" x2="106" y2="80.7846" stroke="blue" />
  <line x1="108" y1="81.8283" x2="107" y2="81.3235" stroke="blue" />
  <line x1="109" y1="82.2982" x2="108" y2="81.8283" stroke="blue" />
  <line x1="110" y1="82.7324" x2="109" y2="82.2982" stroke="blue" />
  <line x1="111" y1="83.1303" x2="110" y2="82.7324" stroke="blue" />
  <line x1="112" y1="83.4911" x2="111" y2="83.1303" stroke="blue" />
  <line x1="113" y1="83.8144" x2="112" y2="83.4911" stroke="blue" />
  <line x1="114" y1="84.0996" x2="113" y2="83.8144" stroke="blue" />
  <line x1="115" y1="84.3462" x2="114" y2="84.0996" stroke="blue" />
  <line x1="116" y1="84.5539" x2="115" y2="84.3462" stroke="blue" />
  <line x1="117" y1="84.7222" x2="116" y2="84.5539" stroke="blue" />
  <line x1="118" y1="84.8511" x2="117" y2="84.7222" stroke="blue" />
  <line x1="119" y1="84.9402" x2="118" y2="84.8511" stroke="blue" />
  <line x1="120" y1="84.9893" x2="119" y2="84.9402" stroke="blue" />
  <line x1="121" y1="84.9985" x2="120" y2="84.9893" stroke="blue" />
  <line x1="122" y1="84.9678" x2="121" y2="84.9985" stroke="blue" />
  <line x1="123" y1="84.897" x2="122" y2="84.9678" stroke="blue" />
  <line x1="124" y1="84.7865" x2="123" y2="84.897" stroke="blue" />
  <line x1="125" y1="84.6362" x2="124" y2="84.7865" stroke="blue" />
  <line x1="126" y1="84.4466" x2="125" y2="84.6362" stroke="blue" />
  <line x1="127" y1="84.2179" x2="126" y2="84.4466" stroke="blue" />
  <line x1="128" y1="83.9504" x2="127" y2="84.2179" stroke="blue" />
  <line x1="129" y1="83.6446" x2="128" y2="83.9504" stroke="blue" />
  <line x1="130" y1="83.301" x2="129" y2="83.6446" stroke="blue" />
  <line x1="131" y1="82.9201" x2="130" y2="83.301" stroke="blue" />
  <line x1="132" y1="82.5025" x2="131" y2="82.9201" stroke="blue" />
  <line x1="133" y1="82.0489" x2="132" y2="82.5025" stroke="blue" />
  <line x1="134" y1="81.5601" x2="133" y2="82.0489" stroke="blue" />
  <line x1="135" y1="81.0368" x2="134" y2="81.5601" stroke="blue" />
  <line x1="136" y1="80.4798" x2="135" y2="81.0368" stroke="blue" />
  <line x1="137" y1="79.89" x2="136" y2="80.4798" stroke="blue" />
  <line x1="138" y1="79.2685" x2="137" y2="79.89" stroke="blue" />
  <line x1="139" y1="78.6161" x2="138" y2="79.2685" stroke="blue" />
  <line x1="140" y1="77.9339" x2="139" y2="78.6161" stroke="blue" />
  <line x1="141" y1="77.223" x2="140" y2="77.9339" stroke="blue" />
  <line x1="142" y1="76.4846" x2="141" y2="77.223" stroke="blue" />
  <line x1="143" y1="75.7198" x2="142" y2="76.4846" stroke="blue" />
  <line x1="144" y1="74.9299" x2="143" y2="75.7198" stroke="blue" />
  <line x1="145" y1="74.1161" x2="144" y2="74.9299" stroke="blue" />
  <line x1="146" y1="73.2797" x2="145" y2="74.1161" stroke="blue" />
  <line x1="147" y1="72.422" x2="146" y2="73.2797" stroke="blue" />
  <line x1="148" y1="71.5445" x2="147" y2="72.422" stroke="blue" />
  <line x1="149" y1="70.6485" x2="148" y2="71.5445" stroke="blue" />
  <line x1="150" y1="69.7355" x2="149" y2="70.6485" stroke="blue" />
  <line x1="151" y1="68.8069" x2="150" y2="69.7355" stroke="blue" />
  <line x1="152" y1="67.8642" x2="151" y2="68.8069" stroke="blue" />
  <line x1="153" y1="66.9089" x2="152" y2="67.8642" stroke="blue" />
  <line x1="154" y1="65.9426" x2="153" y2="66.9089" stroke="blue" />
  <line x1="155" y1="64.9667" x2="154" y2="65.9426" stroke="blue" />
  <line x1="156" y1="63.983" x2="155" y2="64.9667" stroke="blue" />
  <line x1="157" y1="62.9928" x2="156" y2="63.983" stroke="blue" />
  <line x1="158" y1="61.9979" x2="157" y2="62.9928" stroke="blue" />
  <line x1="159" y1="60.9997" x2="158" y2="61.9979" stroke="blue" />
  <line x1="160" y1="60" x2="159" y2="60.9997" stroke="blue" />
  <line x1="161" y1="59.0003" x2="160" y2="60" stroke="blue" />
  <line x1="162" y1="58.0021" x2="161" y2="59.0003" stroke="blue" />
  <line x1="163" y1="57.0072" x2="162" y2="58.0021" stroke="blue" />
  <line x1="164" y1="56.017" x2="163" y2="57.0072" stroke="blue" />
  <line x1="165" y1="55.0333" x2="164" y2="56.017" stroke="blue" />
  <line x1="166" y1="54.0574" x2="165" y2="55.0333" stroke="blue" />
  <line x1="167" y1="53.0911" x2="166" y2="54.0574" stroke="blue" />
  <line x1="168" y1="52.1358" x2="167" y2="53.0911" stroke="blue" />
  <line x1="169" y1="51.1931" x2="168" y2="52.1358" stroke="blue" />
  <line x1="170" y1="50.2645" x2="169" y2="51.1931" stroke="blue" />
  <line x1="171" y1="49.3515" x2="170" y2="50.2645" stroke="blue" />
  <line x1="172" y1="48.4555" x2="171" y2="49.3515" stroke="blue" />
  <line x1="173" y1="47.578" x2="172" y2="48.4555" stroke="blue" />
  <line x1="174" y1="46.7203" x2="173" y2="47.578" stroke="blue" />
  <line x1="175" y1="45.8839" x2="174" y2="46.7203" stroke="blue" />
  <line x1="176" y1="45.0701" x2="175" y2="45.8839" stroke="blue" />
  <line x1="177" y1="44.2802" x2="176" y2="45.0701" stroke="blue" />
  <line x1="178" y1="43.5154" x2="177" y2="44.2802" stroke="blue" />
  <line x1="179" y1="42.777" x2="178" y2="43.5154" stroke="blue" />
  <line x1="180" y1="42.0661" x2="179" y2="42.777" stroke="blue" />
  <line x1="181" y1="41.3839" x2="180" y2="42.0661" stroke="blue" />
  <line x1="182" y1="40.7315" x2="181" y2="41.3839" stroke="blue" />
  <line x1="183" y1="40.11" x2="182" y2="40.7315" stroke="blue" />
  <line x1="184" y1="39.5202" x2="183" y2="40.11" stroke="blue" />
  <line x1="185" y1="38.9632" x2="184" y2="39.5202" stroke="blue" />
  <line x1="186" y1="38.4399" x2="185" y2="38.9632" stroke="blue" />
  <line x1="187" y1="37.9511" x2="186" y2="38.4399" stroke="blue" />
  <line x1="188" y1="37.4975" x2="187" y2="37.9511" stroke="blue" />
  <line x1="189" y1="37.0799" x2="188" y2="37.4975" stroke="blue" />
  <line x1="190" y1="36.699" x2="189" y2="37.0799" stroke="blue" />
  <line x1="191" y1="36.3554" x2="190" y2="36.699" stroke="blue" />
  <line x1="192" y1="36.0496" x2="191" y2="36.3554" stroke="blue" />
  <line x1="193" y1="35.7821" x2="192" y2="36.0496" stroke="blue" />
  <line x1="194" y1="35.5534" x2="193" y2="35.7821" stroke="blue" />
  <line x1="195" y1="35.3638" x2="194" y2="35.5534" stroke="blue" />
  <line x1="196" y1="35.2135" x2="195" y2="35.3638" stroke="blue" />
  <line x1="197" y1="35.103" x2="196" y2="35.2135" stroke="blue" />
  <line x1="198" y1="35.0322" x2="197" y2="35.103" stroke="blue" />
  <line x1="199" y1="35.0015" x2="198" y2="35.0322" stroke="blue" />
  <line x1="200" y1="35.0107" x2="199" y2="35.0015" stroke="blue" />
  <line x1="201" y1="35.0598" x2="200" y2="35.0107" stroke="blue" />
  <line x1="202" y1="35.1489" x2="201" y2="35.0598" stroke="blue" />
  <line x1="203" y1="35.2778" x2="202" y2="35.1489" stroke="blue" />
  <line x1="204" y1="35.4461" x2="203" y2="35.2778" stroke="blue" />
  <line x1="205" y1="35.6538" x2="204" y2="35.4461" stroke="blue" />
  <line x1="206" y1="35.9004" x2="205" y2="35.6538" stroke="blue" />
  <line x1="207" y1="36.1856" x2="206" y2="35.9004" stroke="blue" />
  <line x1="208" y1="36.5089" x2="207" y2="36.1856" stroke="blue" />
  <line x1="209" y1="36.8697" x2="208" y2="36.5089" stroke="blue" />
  <line x1="210" y1="37.2676" x2="209" y2="36.8697" stroke="blue" />
  <line x1="211" y1="37.7018" x2="210" y2="37.2676" stroke="blue" />
  <line x1="212" y1="38.1717" x2="211" y2="37.7018" stroke="blue" />
  <line x1="213" y1="38.6765" x2="212" y2="38.1717" stroke="blue" />
  <line x1="214" y1="39.2154" x2="213" y2="38.6765" stroke="blue" />
  <line x1="215" y1="39.7876" x2="214" y2="39.2154" stroke="blue" />
  <line x1="216" y1="40.3921" x2="215" y2="39.7876" stroke="blue" />
  <line x1="217" y1="41.028" x2="216" y2="40.3921" stroke="blue" />
  <line x1="218" y1="41.6942" x2="217" y2="41.028" stroke="blue" />
  <line x1="219" y1="42.3897" x2="218" y2="41.6942" stroke="blue" />
  <line x1="220" y1="43.1134" x2="219" y2="42.3897" stroke="blue" />
  <line x1="221" y1="43.8641" x2="220" y2="43.1134" stroke="blue" />
  <line x1="222" y1="44.6406" x2="221" y2="43.8641" stroke="blue" />
  <line x1="223" y1="45.4417" x2="222" y2="44.6406" stroke="blue" />
  <line x1="224" y1="46.2661" x2="223" y2="45.4417" stroke="blue" />
  <line x1="225" y1="47.1125" x2="224" y2="46.2661" stroke="blue" />
  <line x1="226" y1="47.9794" x2="225" y2="47.1125" stroke="blue" />
  <line x1="227" y1="48.8656" x2="226" y2="47.9794" stroke="blue" />
  <line x1="228" y1="49.7696" x2="227" y2="48.8656" stroke="blue" />
  <line x1="229" y1="50.69" x2="228" y2="49.7696" stroke="blue" />
  <line x1="230" y1="51.6253" x2="229" y2="50.69" stroke="blue" />
  <line x1="231" y1="52.574" x2="230" y2="51.6253" stroke="blue" />
  <line x1="232" y1="53.5345" x2="231" y2="52.574" stroke="blue" />
  <line x1="233" y1="54.5054" x2="232" y2="53.5345" stroke="blue" />
  <line x1="234" y1="55.4851" x2="233" y2="54.5054" stroke="blue" />
  <line x1="235" y1="56.472" x2="234" y2="55.4851" stroke="blue" />
  <line x1="236" y1="57.4646" x2="235" y2="56.472" stroke="blue" />
  <line x1="237" y1="58.4612" x2="236" y2="57.4646" stroke="blue" />
  <line x1="238" y1="59.4602" x2="237" y2="58.4612" stroke="blue" />
  <line x1="239" y1="60.4602" x2="238" y2="59.4602" stroke="blue" />
  <line x1="240" y1="61.4594" x2="239" y2="60.4602" stroke="blue" />
  <line x1="241" y1="62.4562" x2="240" y2="61.4594" stroke="blue" />
  <line x1="242" y1="63.4491" x2="241" y2="62.4562" stroke="blue" />
  <line x1="243" y1="64.4366" x2="242" y2="63.4491" stroke="blue" />
  <line x1="244" y1="65.4169" x2="243" y2="64.4366" stroke="blue" />
  <line x1="245" y1="66.3885" x2="244" y2="65.4169" stroke="blue" />
  <line x1="246" y1="67.35" x2="245" y2="66.3885" stroke="blue" />
  <line x1="247" y1="68.2996" x2="246" y2="67.35" stroke="blue" />
  <line x1="248" y1="69.236" x2="247" y2="68.2996" stroke="blue" />
  <line x1="249" y1="70.1576" x2="248" y2="69.236" stroke="blue" />
  <line x1="250" y1="71.063" x2="249" y2="70.1576" stroke="blue" />
  <line x1="251" y1="71.9507" x2="250" y2="71.063" stroke="blue" />
  <line x1="252" y1="72.8192" x2="251" y2="71.9507" stroke="blue" />
  <line x1="253" y1="73.6673" x2="252" y2="72.8192" stroke="blue" />
  <line x1="254" y1="74.4935" x2="253" y2="73.6673" stroke="blue" />
  <line x1="255" y1="75.2964" x2="254" y2="74.4935" stroke="blue" />
  <line x1="256" y1="76.075" x2="255" y2="75.2964" stroke="blue" />
  <line x1="257" y1="76.8278" x2="256" y2="76.075" stroke="blue" />
  <line x1="258" y1="77.5537" x2="257" y2="76.8278" stroke="blue" />
  <line x1="259" y1="78.2515" x2="258" y2="77.5537" stroke="blue" />
  <line x1="260" y1="78.9201" x2="259" y2="78.2515" stroke="blue" />
  <line x1="261" y1="79.5584" x2="260" y2="78.9201" stroke="blue" />
  <line x1="262" y1="80.1654" x2="261" y2="79.5584" stroke="blue" />
  <line x1="263" y1="80.7402" x2="262" y2="80.1654" stroke="blue" />
  <line x1="264" y1="81.2818" x2="263" y2="80.7402" stroke="blue" />
  <line x1="265" y1="81.7894" x2="264" y2="81.2818" stroke="blue" />
  <line x1="266" y1="82.2621" x2="265" y2="81.7894" stroke="blue" />
  <line x1="267" y1="82.6992" x2="266" y2="82.2621" stroke="blue" />
  <line x1="268" y1="83.1" x2="267" y2="82.6992" stroke="blue" />
  <line x1="269" y1="83.4638" x2="268" y2="83.1" stroke="blue" />
  <line x1="270" y1="83.7901" x2="269" y2="83.4638" stroke="blue" />
  <line x1="271" y1="84.0783" x2="270" y2="83.7901" stroke="blue" />
  <line x1="272" y1="84.328" x2="271" y2="84.0783" stroke="blue" />
  <line x1="273" y1="84.5388" x2="272" y2="84.328" stroke="blue" />
  <line x1="274" y1="84.7103" x2="273" y2="84.5388" stroke="blue" />
  <line x1="275" y1="84.8423" x2="274" y2="84.7103" stroke="blue" />
  <line x1="276" y1="84.9345" x2="275" y2="84.8423" stroke="blue" />
  <line x1="277" y1="84.9869" x2="276" y2="84.9345" stroke="blue" />
  <line x1="278" y1="84.9993" x2="277" y2="84.9869" stroke="blue" />
  <line x1="279" y1="84.9717" x2="278" y2="84.9993" stroke="blue" />
  <line x1="280" y1="84.9041" x2="279" y2="84.9717" stroke="blue" />
  <line x1="281" y1="84.7967" x2="280" y2="84.9041" stroke="blue" />
  <line x1="282" y1="84.6497" x2="281" y2="84.7967" stroke="blue" />
  <line x1="283" y1="84.4632" x2="282" y2="84.6497" stroke="blue" />
  <line x1="284" y1="84.2375" x2="283" y2="84.4632" stroke="blue" />
  <line x1="285" y1="83.9731" x2="284" y2="84.2375" stroke="blue" />
  <line x1="286" y1="83.6703" x2="285" y2="83.9731" stroke="blue" />
  <line x1="287" y1="83.3297" x2="286" y2="83.6703" stroke="blue" />
  <line x1="288" y1="82.9518" x2="287" y2="83.3297" stroke="blue" />
  <line x1="289" y1="82.5371" x2="288" y2="82.9518" stroke="blue" />
  <line x1="290" y1="82.0864" x2="289" y2="82.5371" stroke="blue" />
  <line x1="291" y1="81.6003" x2="290" y2="82.0864" stroke="blue" />
  <line x1="292" y1="81.0797" x2="291" y2="81.6003" stroke="blue" />
  <line x1="293" y1="80.5254" x2="292" y2="81.0797" stroke="blue" />
  <line x1="294" y1="79.9382" x2="293" y2="80.5254" stroke="blue" />
  <line x1="295" y1="79.3191" x2="294" y2="79.9382" stroke="blue" />
  <line x1="296" y1="78.6691" x2="295" y2="79.3191" stroke="blue" />
  <line x1="297" y1="77.9893" x2="296" y2="78.6691" stroke="blue" />
  <line x1="298" y1="77.2807" x2="297" y2="77.9893" stroke="blue" />
  <line x1="299" y1="76.5444" x2="298" y2="77.2807" stroke="blue" />
  <line x1="300" y1="75.7817" x2="299" y2="76.5444" stroke="blue" />
  <line x1="301" y1="74.9937" x2="300" y2="75.7817" stroke="blue" />
  <line x1="302" y1="74.1817" x2="301" y2="74.9937" stroke="blue" />
  <line x1="303" y1="73.3471" x2="302" y2="74.1817" stroke="blue" />
  <line x1="304" y1="72.491" x2="303" y2="73.3471" stroke="blue" />
  <line x1="305" y1="71.6151" x2="304" y2="72.491" stroke="blue" />
  <line x1="306" y1="70.7205" x2="305" y2="71.6151" stroke="blue" />
  <line x1="307" y1="69.8088" x2="306" y2="70.7205" stroke="blue" />
  <line x1="308" y1="68.8813" x2="307" y2="69.8088" stroke="blue" />
  <line x1="309" y1="67.9397" x2="308" y2="68.8813" stroke="blue" />
  <line x1="310" y1="66.9854" x2="309" y2="67.9397" stroke="blue" />
  <line x1="311" y1="66.0199" x2="310" y2="66.9854" stroke="blue" />
  <line x1="312" y1="65.0448" x2="311" y2="66.0199" stroke="blue" />
  <line x1="313" y1="64.0616" x2="312" y2="65.0448" stroke="blue" />
  <line x1="314" y1="63.0718" x2="313" y2="64.0616" stroke="blue" />
  <line x1="315" y1="62.0772" x2="314" y2="63.0718" stroke="blue" />
  <line x1="316" y1="61.0793" x2="315" y2="62.0772" stroke="blue" />
  <line x1="317" y1="60.0796" x2="316" y2="61.0793" stroke="blue" />
  <line x1="318" y1="59.0798" x2="317" y2="60.0796" stroke="blue" />
  <line x1="319" y1="58.0815" x2="318" y2="59.0798" stroke="blue" />
  <line x1="320" y1="57.0863" x2="319" y2="58.0815" stroke="blue" />
  <line x1="1" y1="-321.81" x2="0" y2="-326" stroke="red" />
  <line x1="2" y1="-317.64" x2="1" y2="-321.81" stroke="red" />
  <line x1="3" y1="-313.49" x2="2" y2="-317.64" stroke="red" />
  <line x1="4" y1="-309.36" x2="3" y2="-313.49" stroke="red" />
  <line x1="5" y1="-305.25" x2="4" y2="-309.36" stroke="red" />
  <line x1="6" y1="-301.16" x2="5" y2="-305.25" stroke="red" />
  <line x1="7" y1="-297.09" x2="6" y2="-301.16" stroke="red" />
  <line x1="8" y1="-293.04" x2="7" y2="-297.09" stroke="red" />
  <line x1="9" y1="-289.01" x2="8" y2="-293.04" stroke="red" />
  <line x1="10" y1="-285" x2="9" y2="-289.01" stroke="red" />
  <line x1="11" y1="-281.01" x2="10" y2="-285" stroke="red" />
  <line x1="12" y1="-277.04" x2="11" y2="-281.01" stroke="red" />
  <line x1="13" y1="-273.09" x2="12" y2="-277.04" stroke="red" />
  <line x1="14" y1="-269.16" x2="13" y2="-273.09" stroke="red" />
  <line x1="15" y1="-265.25" x2="14" y2="-269.16" stroke="red" />
  <line x1="16" y1="-261.36" x2="15" y2="-265.25" stroke="red" />
  <line x1="17" y1="-257.49" x2="16" y2="-261.36" stroke="red" />
  <line x1="18" y1="-253.64" x2="17" y2="-257.49" stroke="red" />
  <line x1="19" y1="-249.81" x2="18" y2="-253.64" stroke="red" />
  <line x1="20" y1="-246" x2="19" y2="-249.81" stroke="red" />
  <line x1="21" y1="-242.21" x2="20" y2="-246" stroke="red" />
  <line x1="22" y1="-238.44" x2="21" y2="-242.21" stroke="red" />
  <line x1="23" y1="-234.69" x2="22" y2="-238.44" stroke="red" />
  <line x1="24" y1="-230.96" x2="23" y2="-234.69" stroke="red" />
  <line x1="25" y1="-227.25" x2="24" y2="-230.96" stroke="red" />
  <line x1="26" y1="-223.56" x2="25" y2="-227.25" stroke="red" />
  <line x1="27" y1="-219.89" x2="26" y2="-223.56" stroke="red" />
  <line x1="28" y1="-216.24" x2="27" y2="-219.89" stroke="red" />
  <line x1="29" y1="-212.61" x2="28" y2="-216.24" stroke="red" />
  <line x1="30" y1="-209" x2="29" y2="-212.61" stroke="red" />
  <line x1="31" y1="-205.41" x2="30" y2="-209" stroke="red" />
  <line x1="32" y1="-201.84" x2="31" y2="-205.41" stroke="red" />
  <line x1="33" y1="-198.29" x2="32" y2="-201.84" stroke="red" />
  <line x1="34" y1="-194.76" x2="33" y2="-198.29" stroke="red" />
  <line x1="35" y1="-191.25" x2="34" y2="-194.76" stroke="red" />
  <line x1="36" y1="-187.76" x2="35" y2="-191.25" stroke="red" />
  <line x1="37" y1="-184.29" x2="36" y2="-187.76" stroke="red" />
  <line x1="38" y1="-180.84" x2="37" y2="-184.29" stroke="red" />
  <line x1="39" y1="-177.41" x2="38" y2="-180.84" stroke="red" />
  <line x1="40" y1="-174" x2="39" y2="-177.41" stroke="red" />
  <line x1="41" y1="-170.61" x2="40" y2="-174" stroke="red" />
  <line x1="42" y1="-167.24" x2="41" y2="-170.61" stroke="red" />
  <line x1="43" y1="-163.89" x2="42" y2="-167.24" stroke="red" />
  <line x1="44" y1="-160.56" x2="43" y2="-163.89" stroke="red" />
  <line x1="45" y1="-157.25" x2="44" y2="-160.56" stroke="red" />
  <line x1="46" y1="-153.96" x2="45" y2="-157.25" stroke="red" />
  <line x1="47" y1="-150.69" x2="46" y2="-153.96" stroke="red" />
  <line x1="48" y1="-147.44" x2="47" y2="-150.69" stroke="red" />
  <line x1="49" y1="-144.21" x2="48" y2="-147.44" stroke="red" />
  <line x1="50" y1="-141" x2="49" y2="-144.21" stroke="red" />
  <line x1="51" y1="-137.81" x2="50" y2="-141" stroke="red" />
  <line x1="52" y1="-134.64" x2="51" y2="-137.81" stroke="red" />
  <line x1="53" y1="-131.49" x2="52" y2="-134.64" stroke="red" />
  <line x1="54" y1="-128.36" x2="53" y2="-131.49" stroke="red" />
  <line x1="55" y1="-125.25" x2="54" y2="-128.36" stroke="red" />
  <line x1="56" y1="-122.16" x2="55" y2="-125.25" stroke="red" />
  <line x1="57" y1="-119.09" x2="56" y2="-122.16" stroke="red" />
  <line x1="58" y1="-116.04" x2="57" y2="-119.09" stroke="red" />
  <line x1="59" y1="-113.01" x2="58" y2="-116.04" stroke="red" />
  <line x1="60" y1="-110" x2="59" y2="-113.01" stroke="red" />
  <line x1="61" y1="-107.01" x2="60" y2="-110" stroke="red" />
  <line x1="62" y1="-104.04" x2="61" y2="-107.01" stroke="red" />
  <line x1="63" y1="-101.09" x2="62" y2="-104.04" stroke="red" />
  <line x1="64" y1="-98.16" x2="63" y2="-101.09" stroke="red" />
  <line x1="65" y1="-95.25" x2="64" y2="-98.16" stroke="red" />
  <line x1="66" y1="-92.36" x2="65" y2="-95.25" stroke="red" />
  <line x1="67" y1="-89.49" x2="66" y2="-92.36" stroke="red" />
  <line x1="68" y1="-86.64" x2="67" y2="-89.49" stroke="red" />
  <line x1="69" y1="-83.81" x2="68" y2="-86.64" stroke="red" />
  <line x1="70" y1="-81" x2="69" y2="-83.81" stroke="red" />
  <line x1="71" y1="-78.21" x2="70" y2="-81" stroke="red" />
  <line x1="72" y1="-75.44" x2="71" y2="-78.21" stroke="red" />
  <line x1="73" y1="-72.69" x2="72" y2="-75.44" stroke="red" />
  <line x1="74" y1="-69.96" x2="73" y2="-72.69" stroke="red" />
  <line x1="75" y1="-67.25" x2="74" y2="-69.96" stroke="red" />
  <line x1="76" y1="-64.56" x2="75" y2="-67.25" stroke="red" />
  <line x1="77" y1="-61.89" x2="76" y2="-64.56" stroke="red" />
  <line x1="78" y1="-59.24" x2="77" y2="-61.89" stroke="red" />
  <line x1="79" y1="-56.61" x2="78" y2="-59.24" stroke="red" />
  <line x1="80" y1="-54" x2="79" y2="-56.61" stroke="red" />
  <line x1="81" y1="-51.41" x2="80" y2="-54" stroke="red" />
  <line x1="82" y1="-48.84" x2="81" y2="-51.41" stroke="red" />
  <line x1="83" y1="-46.29" x2="82" y2="-48.84" stroke="red" />
  <line x1="84" y1="-43.76" x2="83" y2="-46.29" stroke="red" />
  <line x1="85" y1="-41.25" x2="84" y2="-43.76" stroke="red" />
  <line x1="86" y1="-38.76" x2="85" y2="-41.25" stroke="red" />
  <line x1="87" y1="-36.29" x2="86" y2="-38.76" stroke="red" />
  <line x1="88" y1="-33.84" x2="87" y2="-36.29" stroke="red" />
  <line x1="89" y1="-31.41" x2="88" y2="-33.84" stroke="red" />
  <line x1="90" y1="-29" x2="89" y2="-31.41" stroke="red" />
  <line x1="91" y1="-26.61" x2="90" y2="-29" stroke="red" />
  <line x1="92" y1="-24.24" x2="91" y2="-26.61" stroke="red" />
  <line x1="93" y1="-21.89" x2="92" y2="-24.24" stroke="red" />
  <line x1="94" y1="-19.56" x2="93" y2="-21.89" stroke="red" />
  <line x1="95" y1="-17.25" x2="94" y2="-19.56" stroke="red" />
  <line x1="96" y1="-14.96" x2="95" y2="-17.25" stroke="red" />
  <line x1="97" y1="-12.69" x2="96" y2="-14.96" stroke="red" />
  <line x1="98" y1="-10.44" x2="97" y2="-12.69" stroke="red" />
  <line x1="99" y1="-8.21" x2="98" y2="-10.44" stroke="red" />
  <line x1="100" y1="-6" x2="99" y2="-8.21" stroke="red" />
  <line x1="101" y1="-3.81" x2="100" y2="-6" stroke="red" />
  <line x1="102" y1="-1.64" x2="101" y2="-3.81" stroke="red" />
  <line x1="103" y1="0.51" x2="102" y2="-1.64" stroke="red" />
  <line x1="104" y1="2.64" x2="103" y2="0.51" stroke="red" />
  <line x1="105" y1="4.75" x2="104" y2="2.64" stroke="red" />
  <line x1="106" y1="6.84" x2="105" y2="4.75" stroke="red" />
  <line x1="107" y1="8.91" x2="106" y2="6.84" stroke="red" />
  <line x1="108" y1="10.96" x2="107" y2="8.91" stroke="red" />
  <line x1="109" y1="12.99" x2="108" y2="10.96" stroke="red" />
  <line x1="110" y1="15" x2="109" y2="12.99" stroke="red" />
  <line x1="111" y1="16.99" x2="110" y2="15" stroke="red" />
  <line x1="112" y1="18.96" x2="111" y2="16.99" stroke="red" />
  <line x1="113" y1="20.91" x2="112" y2="18.96" stroke="red" />
  <line x1="114" y1="22.84" x2="113" y2="20.91" stroke="red" />
  <line x1="115" y1="24.75" x2="114" y2="22.84" stroke="red" />
  <line x1="116" y1="26.64" x2="115" y2="24.75" stroke="red" />
  <line x1="117" y1="28.51" x2="116" y2="26.64" stroke="red" />
  <line x1="118" y1="30.36" x2="117" y2="28.51" stroke="red" />
  <line x1="119" y1="32.19" x2="118" y2="30.36" stroke="red" />
  <line x1="120" y1="34" x2="119" y2="32.19" stroke="red" />
  <line x1="121" y1="35.79" x2="120" y2="34" stroke="red" />
  <line x1="122" y1="37.56" x2="121" y2="35.79" stroke="red" />
  <line x1="123" y1="39.31" x2="122" y2="37.56" stroke="red" />
  <line x1="124" y1="41.04" x2="123" y2="39.31" stroke="red" />
  <line x1="125" y1="42.75" x2="124" y2="41.04" stroke="red" />
  <line x1="126" y1="44.44" x2="125" y2="42.75" stroke="red" />
  <line x1="127" y1="46.11" x2="126" y2="44.44" stroke="red" />
  <line x1="128" y1="47.76" x2="127" y2="46.11" stroke="red" />
  <line x1="129" y1="49.39" x2="128" y2="47.76" stroke="red" />
  <line x1="130" y1="51" x2="129" y2="49.39" stroke="red" />
  <line x1="131" y1="52.59" x2="130" y2="51" stroke="red" />
  <line x1="132" y1="54.16" x2="131" y2="52.59" stroke="red" />
  <line x1="133" y1="55.71" x2="132" y2="54.16" stroke="red" />
  <line x1="134" y1="57.24" x2="133" y2="55.71" stroke="red" />
  <line x1="135" y1="58.75" x2="134" y2="57.24" stroke="red" />
  <line x1="136" y1="60.24" x2="135" y2="58.75" stroke="red" />
  <line x1="137" y1="61.71" x2="136" y2="60.24" stroke="red" />
  <line x1="138" y1="63.16" x2="137" y2="61.71" stroke="red" />
  <line x1="139" y1="64.59" x2="138" y2="63.16" stroke="red" />
  <line x1="140" y1="66" x2="139" y2="64.59" stroke="red" />
  <line x1="141" y1="67.39" x2="140" y2="66" stroke="red" />
  <line x1="142" y1="68.76" x2="141" y2="67.39" stroke="red" />
  <line x1="143" y1="70.11" x2="142" y2="68.76" stroke="red" />
  <line x1="144" y1="71.44" x2="143" y2="70.11" stroke="red" />
  <line x1="145" y1="72.75" x2="144" y2="71.44" stroke="red" />
  <line x1="146" y1="74.04" x2="145" y2="72.75" stroke="red" />
  <line x1="147" y1="75.31" x2="146" y2="74.04" stroke="red" />
  <line x1="148" y1="76.56" x2="147" y2="75.31" stroke="red" />
  <line x1="149" y1="77.79" x2="148" y2="76.56" stroke="red" />
  <line x1="150" y1="79" x2="149" y2="77.79" stroke="red" />
  <line x1="151" y1="80.19" x2="150" y2="79" stroke="red" />
  <line x1="152" y1="81.36" x2="151" y2="80.19" stroke="red" />
  <line x1="153" y1="82.51" x2="152" y2="81.36" stroke="red" />
  <line x1="154" y1="83.64" x2="153" y2="82.51" stroke="red" />
  <line x1="155" y1="84.75" x2="154" y2="83.64" stroke="red" />
  <line x1="156" y1="85.84" x2="155" y2="84.75" stroke="red" />
  <line x1="157" y1="86.91" x2="156" y2="85.84" stroke="red" />
  <line x1="158" y1="87.96" x2="157" y2="86.91" stroke="red" />
  <line x1="159" y1="88.99" x2="158" y2="87.96" stroke="red" />
  <line x1="160" y1="90" x2="159" y2="88.99" stroke="red" />
  <line x1="161" y1="90.99" x2="160" y2="90" stroke="red" />
  <line x1="162" y1="91.96" x2="161" y2="90.99" stroke="red" />
  <line x1="163" y1="92.91" x2="162" y2="91.96" stroke="red" />
  <line x1="164" y1="93.84" x2="163" y2="92.91" stroke="red" />
  <line x1="165" y1="94.75" x2="164" y2="93.84" stroke="red" />
  <line x1="166" y1="95.64" x2="165" y2="94.75" stroke="red" />
  <line x1="167" y1="96.51" x2="166" y2="95.64" stroke="red" />
  <line x1="168" y1="97.36" x2="167" y2="96.51" stroke="red" />
  <line x1="169" y1="98.19" x2="168" y2="97.36" stroke="red" />
  <line x1="170" y1="99" x2="169" y2="98.19" stroke="red" />
  <line x1="171" y1="99.79" x2="170" y2="99" stroke="red" />
  <line x1="172" y1="100.56" x2="171" y2="99.79" stroke="red" />
  <line x1="173" y1="101.31" x2="172" y2="100.56" stroke="red" />
  <line x1="174" y1="102.04" x2="173" y2="101.31" stroke="red" />
  <line x1="175" y1="102.75" x2="174" y2="102.04" stroke="red" />
  <line x1="176" y1="103.44" x2="175" y2="102.75" stroke="red" />
  <line x1="177" y1="104.11" x2="176" y2="103.44" stroke="red" />
  <line x1="178" y1="104.76" x2="177" y2="104.11" stroke="red" />
  <line x1="179" y1="105.39" x2="178" y2="104.76" stroke="red" />
  <line x1="180" y1="106" x2="179" y2="105.39" stroke="red" />
  <line x1="181" y1="106.59" x2="180" y2="106" stroke="red" />
  <line x1="182" y1="107.16" x2="181" y2="106.59" stroke="red" />
  <line x1="183" y1="107.71" x2="182" y2="107.16" stroke="red" />
  <line x1="184" y1="108.24" x2="183" y2="107.71" stroke="red" />
  <line x1="185" y1="108.75" x2="184" y2="108.24" stroke="red" />
  <line x1="186" y1="109.24" x2="185" y2="108.75" stroke="red" />
  <line x1="187" y1="109.71" x2="186" y2="109.24" stroke="red" />
  <line x1="188" y1="110.16" x2="187" y2="109.71" stroke="red" />
  <line x1="189" y1="110.59" x2="188" y2="110.16" stroke="red" />
  <line x1="190" y1="111" x2="189" y2="110.59" stroke="red" />
  <line x1="191" y1="111.39" x2="190" y2="111" stroke="red" />
  <line x1="192" y1="111.76" x2="191" y2="111.39" stroke="red" />
  <line x1="193" y1="112.11" x2="192" y2="111.76" stroke="red" />
  <line x1="194" y1="112.44" x2="193" y2="112.11" stroke="red" />
  <line x1="195" y1="112.75" x2="194" y2="112.44" stroke="red" />
  <line x1="196" y1="113.04" x2="195" y2="112.75" stroke="red" />
  <line x1="197" y1="113.31" x2="196" y2="113.04" stroke="red" />
  <line x1="198" y1="113.56" x2="197" y2="113.31" stroke="red" />
  <line x1="199" y1="113.79" x2="198" y2="113.56" stroke="red" />
  <line x1="200" y1="114" x2="199" y2="113.79" stroke="red" />
  <line x1="201" y1="114.19" x2="200" y2="114" stroke="red" />
  <line x1="202" y1="114.36" x2="201" y2="114.19" stroke="red" />
  <line x1="203" y1="114.51" x2="202" y2="114.36" stroke="red" />
  <line x1="204" y1="114.64" x2="203" y2="114.51" stroke="red" />
  <line x1="205" y1="114.75" x2="204" y2="114.64" stroke="red" />
  <line x1="206" y1="114.84" x2="205" y2="114.75" stroke="red" />
  <line x1="207" y1="114.91" x2="206" y2="114.84" stroke="red" />
  <line x1="208" y1="114.96" x2="207" y2="114.91" stroke="red" />
  <line x1="209" y1="114.99" x2="208" y2="114.96" stroke="red" />
  <line x1="210" y1="115" x2="209" y2="114.99" stroke="red" />
  <line x1="211" y1="114.99" x2="210" y2="115" stroke="red" />
  <line x1="212" y1="114.96" x2="211" y2="114.99" stroke="red" />
  <line x1="213" y1="114.91" x2="212" y2="114.96" stroke="red" />
  <line x1="214" y1="114.84" x2="213" y2="114.91" stroke="red" />
  <line x1="215" y1="114.75" x2="214" y2="114.84" stroke="red" />
  <line x1="216" y1="114.64" x2="215" y2="114.75" stroke="red" />
  <line x1="217" y1="114.51" x2="216" y2="114.64" stroke="red" />
  <line x1="218" y1="114.36" x2="217" y2="114.51" stroke="red" />
  <line x1="219" y1="114.19" x2="218" y2="114.36" stroke="red" />
  <line x1="220" y1="114" x2="219" y2="114.19" stroke="red" />
  <line x1="221" y1="113.79" x2="220" y2="114" stroke="red" />
  <line x1="222" y1="113.56" x2="221" y2="113.79" stroke="red" />
  <line x1="223" y1="113.31" x2="222" y2="113.56" stroke="red" />
  <line x1="224" y1="113.04" x2="223" y2="113.31" stroke="red" />
  <line x1="225" y1="112.75" x2="224" y2="113.04" stroke="red" />
  <line x1="226" y1="112.44" x2="225" y2="112.75" stroke="red" />
  <line x1="227" y1="112.11" x2="226" y2="112.44" stroke="red" />
  <line x1="228" y1="111.76" x2="227" y2="112.11" stroke="red" />
  <line x1="229" y1="111.39" x2="228" y2="111.76" stroke="red" />
  <line x1="230" y1="111" x2="229" y2="111.39" stroke="red" />
  <line x1="231" y1="110.59" x2="230" y2="111" stroke="red" />
  <line x1="232" y1="110.16" x2="231" y2="110.59" stroke="red" />
  <line x1="233" y1="109.71" x2="232" y2="110.16" stroke="red" />
  <line x1="234" y1="109.24" x2="233" y2="109.71" stroke="red" />
  <line x1="235" y1="108.75" x2="234" y2="109.24" stroke="red" />
  <line x1="236" y1="108.24" x2="235" y2="108.75" stroke="red" />
  <line x1="237" y1="107.71" x2="236" y2="108.24" stroke="red" />
  <line x1="238" y1="107.16" x2="237" y2="107.71" stroke="red" />
  <line x1="239" y1="106.59" x2="238" y2="107.16" stroke="red" />
  <line x1="240" y1="106" x2="239" y2="106.59" stroke="red" />
  <line x1="241" y1="105.39" x2="240" y2="106" stroke="red" />
  <line x1="242" y1="104.76" x2="241" y2="105.39" stroke="red" />
  <line x1="243" y1="104.11" x2="242" y2="104.76" stroke="red" />
  <line x1="244" y1="103.44" x2="243" y2="104.11" stroke="red" />
  <line x1="245" y1="102.75" x2="244" y2="103.44" stroke="red" />
  <line x1="246" y1="102.04" x2="245" y2="102.75" stroke="red" />
  <line x1="247" y1="101.31" x2="246" y2="102.04" stroke="red" />
  <line x1="248" y1="100.56" x2="247" y2="101.31" stroke="red" />
  <line x1="249" y1="99.79" x2="248" y2="100.56" stroke="red" />
  <line x1="250" y1="99" x2="249" y2="99.79" stroke="red" />
  <line x1="251" y1="98.19" x2="250" y2="99" stroke="red" />
  <line x1="252" y1="97.36" x2="251" y2="98.19" stroke="red" />
  <line x1="253" y1="96.51" x2="252" y2="97.36" stroke="red" />
  <line x1="254" y1="95.64" x2="253" y2="96.51" stroke="red" />
  <line x1="255" y1="94.75" x2="254" y2="95.64" stroke="red" />
  <line x1="256" y1="93.84" x2="255" y2="94.75" stroke="red" />
  <line x1="257" y1="92.91" x2="256" y2="93.84" stroke="red" />
  <line x1="258" y1="91.96" x2="257" y2="92.91" stroke="red" />
  <line x1="259" y1="90.99" x2="258" y2="91.96" stroke="red" />
  <line x1="260" y1="90" x2="259" y2="90.99" stroke="red" />
  <line x1="261" y1="88.99" x2="260" y2="90" stroke="red" />
  <line x1="262" y1="87.96" x2="261" y2="88.99" stroke="red" />
  <line x1="263" y1="86.91" x2="262" y2="87.96" stroke="red" />
  <line x1="264" y1="85.84" x2="263" y2="86.91" stroke="red" />
  <line x1="265" y1="84.75" x2="264" y2="85.84" stroke="red" />
  <line x1="266" y1="83.64" x2="265" y2="84.75" stroke="red" />
  <line x1="267" y1="82.51" x2="266" y2="83.64" stroke="red" />
  <line x1="268" y1="81.36" x2="267" y2="82.51" stroke="red" />
  <line x1="269" y1="80.19" x2="268" y2="81.36" stroke="red" />
  <line x1="270" y1="79" x2="269" y2="80.19" stroke="red" />
  <line x1="271" y1="77.79" x2="270" y2="79" stroke="red" />
  <line x1="272" y1="76.56" x2="271" y2="77.79" stroke="red" />
  <line x1="273" y1="75.31" x2="272" y2="76.56" stroke="red" />
  <line x1="274" y1="74.04" x2="273" y2="75.31" stroke="red" />
  <line x1="275" y1="72.75" x2="274" y2="74.04" stroke="red" />
  <line x1="276" y1="71.44" x2="275" y2="72.75" stroke="red" />
  <line x1="277" y1="70.11" x2="276" y2="71.44" stroke="red" />
  <line x1="278" y1="68.76" x2="277" y2="70.11" stroke="red" />
  <line x1="279" y1="67.39" x2="278" y2="68.76" stroke="red" />
  <line x1="280" y1="66" x2="279" y2="67.39" stroke="red" />
  <line x1="281" y1="64.59" x2="280" y2="66" stroke="red" />
  <line x1="282" y1="63.16" x2="281" y2="64.59" stroke="red" />
  <line x1="283" y1="61.71" x2="282" y2="63.16" stroke="red" />
  <line x1="284" y1="60.24" x2="283" y2="61.71" stroke="red" />
  <line x1="285" y1="58.75" x2="284" y2="60.24" stroke="red" />
  <line x1="286" y1="57.24" x2="285" y2="58.75" stroke="red" />
  <line x1="287" y1="55.71" x2="286" y2="57.24" stroke="red" />
  <line x1="288" y1="54.16" x2="287" y2="55.71" stroke="red" />
  <line x1="289" y1="52.59" x2="288" y2="54.16" stroke="red" />
  <line x1="290" y1="51" x2="289" y2="52.59" stroke="red" />
  <line x1="291" y1="49.39" x2="290" y2="51" stroke="red" />
  <line x1="292" y1="47.76" x2="291" y2="49.39" stroke="red" />
  <line x1="293" y1="46.11" x2="292" y2="47.76" stroke="red" />
  <line x1="294" y1="44.44" x2="293" y2="46.11" stroke="red" />
  <line x1="295" y1="42.75" x2="294" y2="44.44" stroke="red" />
  <line x1="296" y1="41.04" x2="295" y2="42.75" stroke="red" />
  <line x1="297" y1="39.31" x2="296" y2="41.04" stroke="red" />
  <line x1="298" y1="37.56" x2="297" y2="39.31" stroke="red" />
  <line x1="299" y1="35.79" x2="298" y2="37.56" stroke="red" />
  <line x1="300" y1="34" x2="299" y2="35.79" stroke="red" />
  <line x1="301" y1="32.19" x2="300" y2="34" stroke="red" />
  <line x1="302" y1="30.36" x2="301" y2="32.19" stroke="red" />
  <line x1="303" y1="28.51" x2="302" y2="30.36" stroke="red" />
  <line x1="304" y1="26.64" x2="303" y2="28.51" stroke="red" />
  <line x1="305" y1="24.75" x2="304" y2="26.64" stroke="red" />
  <line x1="306" y1="22.84" x2="305" y2="24.75" stroke="red" />
  <line x1="307" y1="20.91" x2="306" y2="22.84" stroke="red" />
  <line x1="308" y1="18.96" x2="307" y2="20.91" stroke="red" />
  <line x1="309" y1="16.99" x2="308" y2="18.96" stroke="red" />
  <line x1="310" y1="15" x2="309" y2="16.99" stroke="red" />
  <line x1="311" y1="12.99" x2="310" y2="15" stroke="red" />
  <line x1="312" y1="10.96" x2="311" y2="12.99" stroke="red" />
  <line x1="313" y1="8.91" x2="312" y2="10.96" stroke="red" />
  <line x1="314" y1="6.84" x2="313" y2="8.91" stroke="red" />
  <line x1="315" y1="4.75" x2="314" y2="6.84" stroke="red" />
  <line x1="316" y1="2.64" x2="315" y2="4.75" stroke="red" />
  <line x1="317" y1="0.51" x2="316" y2="2.64" stroke="red" />
  <line x1="318" y1="-1.64" x2="317" y2="0.51" stroke="red" />
  <line x1="319" y1="-3.81" x2="318" y2="-1.64" stroke="red" />
  <line x1="320" y1="-6" x2="319" y2="-3.81" stroke="red" />
</svg>
