<?xml version="1.0" encoding="UTF-8" standalone="no"?>
<!-- Created with Inkscape (http://www.inkscape.org/) -->
<svg id="svg2" xmlns:rdf="http://www.w3.org/1999/02/22-rdf-syntax-ns#" xmlns="http://www.w3.org/2000/svg" height="810.8" width="1438.9" version="1.1" xmlns:cc="http://creativecommons.org/ns#" xmlns:dc="http://purl.org/dc/elements/1.1/" viewBox="247 138 808.23163 454.66611">
 <metadata id="metadata198">
  <rdf:RDF>
   <cc:Work rdf:about="">
    <dc:format>image/svg+xml</dc:format>
    <dc:type rdf:resource="http://purl.org/dc/dcmitype/StillImage"/>
   </cc:Work>
  </rdf:RDF>
 </metadata>
 <g id="g4" transform="translate(-2.9183 -.87613)">
  <path id="polygon6" fill="#fff" d="m260 140h53.25l17.75 17.75v71h-71z"/>
  <path id="polygon8" d="m260 140h53.25l17.75 17.75v71h-71z" stroke="#000" stroke-width="3" fill="none"/>
  <path id="polyline10" d="m313.25 140v17.75h17.75" stroke="#000" stroke-width="3" fill="none"/>
 </g>
 <g id="g12" transform="translate(-2.9183 -.87613)">
  <path id="polygon14" fill="#bfbfbf" d="m260 300h53.25l17.75 17.75v71h-71z"/>
  <path id="polygon16" d="m260 300h53.25l17.75 17.75v71h-71z" stroke="#000" stroke-width="3" fill="none"/>
  <path id="polyline18" d="m313.25 300v17.75h17.75" stroke="#000" stroke-width="3" fill="none"/>
 </g>
 <g id="g20" transform="translate(-2.9183 -.87613)">
  <path id="polygon22" fill="#fff" d="m260 460h53.25l17.75 17.75v71h-71z"/>
  <path id="polygon24" d="m260 460h53.25l17.75 17.75v71h-71z" stroke="#000" stroke-width="3" fill="none"/>
  <path id="polyline26" d="m313.25 460v17.75h17.75" stroke="#000" stroke-width="3" fill="none"/>
 </g>
 <g id="g28" transform="translate(-2.9183 -.87613)">
  <path id="polygon30" fill="#1e90ff" d="m520 160h53.25l17.75 17.75v71h-71z"/>
  <path id="polygon32" d="m520 160h53.25l17.75 17.75v71h-71z" stroke="#000" stroke-width="3" fill="none"/>
  <path id="polyline34" d="m573.25 160v17.75h17.75" stroke="#000" stroke-width="3" fill="none"/>
 </g>
 <g id="g36" transform="translate(-2.9183 -.87613)">
  <path id="polygon38" fill="#1e90ff" d="m520 440h53.25l17.75 17.75v71h-71z"/>
  <path id="polygon40" d="m520 440h53.25l17.75 17.75v71h-71z" stroke="#000" stroke-width="3" fill="none"/>
  <path id="polyline42" d="m573.25 440v17.75h17.75" stroke="#000" stroke-width="3" fill="none"/>
 </g>
 <g id="g44" transform="translate(-2.9183 -.87613)">
  <path id="polygon46" fill="#90ee90" d="m780 300h53.25l17.75 17.75v71h-71z"/>
  <path id="polygon48" d="m780 300h53.25l17.75 17.75v71h-71z" stroke="#000" stroke-width="3" fill="none"/>
  <path id="polyline50" d="m833.25 300v17.75h17.75" stroke="#000" stroke-width="3" fill="none"/>
 </g>
 <g id="g52" stroke="#f00" stroke-width="3" fill="none" transform="translate(-2.9183 -.87613)">
  <path id="line54" d="m342.45 187.99 159.42 12.263" stroke-dasharray="8"/>
  <path id="polyline56" d="m494.86 204.72 10.354-4.218-9.587-5.753"/>
 </g>
 <g id="g58" stroke="#f00" stroke-width="3" fill="none" transform="translate(-2.9183 -.87613)">
  <path id="line60" d="m341.28 319.72 162.53-87.51" stroke-dasharray="8"/>
  <path id="polyline62" d="m500.33 239.76 6.434-9.143-11.175 0.338"/>
 </g>
 <g id="g64" stroke="#f00" stroke-width="3" fill="none" transform="translate(-2.9183 -.87613)">
  <path id="line66" d="m341.28 369.03 162.53 87.518" stroke-dasharray="8"/>
  <path id="polyline68" d="m495.59 457.8 11.175 0.338-6.434-9.143"/>
 </g>
 <g id="g70" stroke="#f00" stroke-width="3" fill="none" transform="translate(-2.9183 -.87613)">
  <path id="line72" d="m342.45 500.76 159.42-12.26" stroke-dasharray="8"/>
  <path id="polyline74" d="m495.62 494 9.587-5.753-10.354-4.218"/>
 </g>
 <g id="g76" stroke="#f00" stroke-width="3" fill="none" transform="translate(-2.9183 -.87613)">
  <path id="line78" d="m601.28 229.03 162.53 87.518" stroke-dasharray="8"/>
  <path id="polyline80" d="m755.59 317.8 11.175 0.338-6.434-9.143"/>
 </g>
 <g id="g82" stroke="#f00" stroke-width="3" fill="none" transform="translate(-2.9183 -.87613)">
  <path id="line84" d="m601.28 459.72 162.53-87.518" stroke-dasharray="8"/>
  <path id="polyline86" d="m760.33 379.76 6.434-9.143-11.175 0.338"/>
 </g>
 <g id="text88" fill="#00f">
  <path id="path3108" style="" d="m962.6 329.8v1.6867h-1.9403c-0.72761 0.00001-1.2347 0.147-1.5214 0.44097-0.27929 0.294-0.41893 0.82316-0.41893 1.5875v1.0914h3.3404v1.5765h-3.3404v10.771h-2.0395v-10.771h-1.9403v-1.5765h1.9403v-0.8599c0-1.3744 0.31971-2.3739 0.95912-2.9986 0.63941-0.63205 1.6536-0.94808 3.0427-0.94809h1.9182"/>
  <path id="path3110" style="" d="m969.07 336.02c-1.0877 0.00001-1.9476 0.42628-2.5797 1.2788-0.63207 0.8452-0.9481 2.0064-0.9481 3.4837s0.31236 2.6422 0.93707 3.4947c0.63206 0.8452 1.4956 1.2678 2.5907 1.2678 1.0804 0.00001 1.9366-0.42627 2.5687-1.2788 0.63205-0.85254 0.94808-2.0138 0.94809-3.4837-0.00001-1.4626-0.31604-2.6201-0.94809-3.4727-0.63207-0.85989-1.4883-1.2898-2.5687-1.2898m0-1.7198c1.7639 0.00001 3.1493 0.57328 4.1562 1.7198s1.5103 2.734 1.5103 4.7625c-0.00001 2.0211-0.50345 3.6086-1.5103 4.7625-1.0069 1.1465-2.3923 1.7198-4.1562 1.7198-1.7712 0-3.1603-0.57327-4.1672-1.7198-0.99954-1.1539-1.4993-2.7414-1.4993-4.7625 0-2.0285 0.49976-3.616 1.4993-4.7625 1.0069-1.1465 2.396-1.7198 4.1672-1.7198"/>
  <path id="path3112" style="" d="m985.24 336.5c-0.22785-0.13228-0.47773-0.22782-0.74966-0.28663-0.26459-0.0661-0.55857-0.0992-0.88194-0.0992-1.1465 0.00001-2.0285 0.37484-2.6458 1.1245-0.61001 0.74231-0.91502 1.8117-0.91501 3.2081v6.5043h-2.0395v-12.347h2.0395v1.9182c0.42626-0.74964 0.98115-1.3045 1.6647-1.6647 0.6835-0.36747 1.514-0.55121 2.4915-0.55122 0.13964 0.00001 0.29398 0.011 0.46302 0.0331 0.16903 0.0147 0.35645 0.0404 0.56224 0.0772l0.011 2.0836"/>
  <path id="path3114" style="" d="m995.12 336.48v-6.6807h2.0285v17.154h-2.0285v-1.8521c-0.42629 0.73495-0.96648 1.2825-1.6206 1.6426-0.64677 0.35278-1.4258 0.52917-2.3372 0.52917-1.492 0-2.7083-0.59531-3.649-1.7859-0.9334-1.1906-1.4001-2.7561-1.4001-4.6964s0.46669-3.5057 1.4001-4.6964c0.94074-1.1906 2.1571-1.7859 3.649-1.7859 0.91133 0.00001 1.6904 0.18008 2.3372 0.54019 0.6541 0.35279 1.1943 0.89666 1.6206 1.6316m-6.9122 4.3105c0 1.492 0.305 2.6642 0.91502 3.5168 0.61735 0.8452 1.4626 1.2678 2.5356 1.2678s1.9182-0.42259 2.5356-1.2678c0.61736-0.85255 0.92604-2.0248 0.92605-3.5168-0.00001-1.492-0.30869-2.6605-0.92605-3.5057-0.61737-0.85254-1.4626-1.2788-2.5356-1.2788-1.073 0.00001-1.9182 0.42628-2.5356 1.2788-0.61002 0.8452-0.91502 2.0138-0.91502 3.5057"/>
  <path id="path3116" style="" d="m1003.9 328.89h2.1939l-3.5939 4.1452h-1.6868l3.0868-4.1452m-2.5466 5.7106h2.0285v12.347h-2.0285v-12.347m1.0143-0.29766"/>
  <path id="path3118" style="" d="m1009.6 331.1v3.5057h4.1782v1.5765h-4.1782v6.7028c0 1.0069 0.1359 1.6536 0.4079 1.9403 0.2792 0.28663 0.8415 0.42995 1.6867 0.42995h2.0836v1.6977h-2.0836c-1.5655 0-2.6459-0.2903-3.2412-0.87092-0.5953-0.58796-0.8929-1.6536-0.8929-3.197v-6.7028h-1.4883v-1.5765h1.4883v-3.5057h2.0395"/>
  <path id="path3120" style="" d="m1022.1 340.74c-1.639 0.00001-2.7745 0.18742-3.4065 0.56224-0.6321 0.37483-0.9481 1.0142-0.9481 1.9182 0 0.72026 0.2351 1.2935 0.7055 1.7198 0.4777 0.41892 1.1245 0.62838 1.9403 0.62838 1.1245 0 2.0248-0.39687 2.701-1.1906 0.6835-0.8011 1.0252-1.8631 1.0252-3.186v-0.452h-2.0174m4.0459-0.83785v7.0445h-2.0285v-1.8741c-0.463 0.74965-1.04 1.3045-1.7308 1.6647-0.6909 0.35278-1.5361 0.52917-2.5356 0.52917-1.2641 0-2.271-0.35278-3.0207-1.0583-0.7423-0.7129-1.1134-1.6647-1.1134-2.8553 0-1.3891 0.463-2.4364 1.3891-3.1419 0.9333-0.70555 2.3224-1.0583 4.1671-1.0583h2.8443v-0.19844c0-0.93338-0.3087-1.6536-0.926-2.1608-0.61-0.51446-1.4699-0.77169-2.5797-0.7717-0.7056 0.00001-1.3928 0.0845-2.0616 0.25355s-1.3119 0.42261-1.9292 0.76068v-1.8741c0.7423-0.28662 1.4625-0.49976 2.1607-0.63941 0.6983-0.14698 1.3781-0.22048 2.0395-0.22049 1.786 0.00001 3.1199 0.46304 4.0019 1.3891 0.8819 0.92605 1.3229 2.3298 1.3229 4.2113m-3.7042-11.013h2.1939l-3.594 4.1452h-1.6867l3.0868-4.1452"/>
  <path id="path3122" style="" d="m1038.2 334.97v1.9182c-0.5733-0.29397-1.1686-0.51446-1.7859-0.66146-0.6174-0.14698-1.2568-0.22047-1.9183-0.22048-1.0069 0.00001-1.7639 0.15435-2.271 0.46302-0.4998 0.30869-0.7496 0.77171-0.7496 1.3891 0 0.47038 0.18 0.84153 0.5402 1.1135 0.3601 0.26459 1.084 0.51815 2.1717 0.76068l0.6946 0.15434c1.4405 0.30868 2.4621 0.74598 3.0647 1.3119 0.61 0.55857 0.915 1.3413 0.9151 2.3482-0.0001 1.1465-0.4557 2.0542-1.3671 2.723-0.904 0.6688-2.1497 1.0032-3.7372 1.0032-0.6615 0-1.3523-0.0661-2.0726-0.19844-0.7129-0.12494-1.4662-0.31603-2.26-0.57326v-2.0946c0.7497 0.38952 1.4883 0.68351 2.2159 0.88194 0.7276 0.19109 1.4479 0.28663 2.1608 0.28663 0.9554 0 1.6904-0.16168 2.2049-0.48507 0.5144-0.33072 0.7716-0.79374 0.7717-1.3891-0.0001-0.55121-0.1875-0.97381-0.5623-1.2678-0.3675-0.29397-1.1796-0.57693-2.4364-0.84887l-0.7055-0.16536c-1.2568-0.26458-2.1645-0.66881-2.723-1.2127-0.5586-0.55121-0.8379-1.3045-0.8379-2.26 0-1.1612 0.4116-2.0579 1.2348-2.6899 0.8231-0.63205 1.9917-0.94808 3.5057-0.94809 0.7496 0.00001 1.4552 0.0551 2.1167 0.16537 0.6614 0.11025 1.2714 0.27562 1.83 0.49609"/>
 </g>
 <g id="g92" stroke="#00f" stroke-width="3" fill="none" transform="translate(-2.9183 -.87613)">
  <path id="path94" d="m341.65 164.01c34-15.001 132.55 8.42 161.31 19.719"/>
  <path id="polyline96" d="m494.95 185.96 11.135-0.996-7.478-8.311"/>
 </g>
 <g id="g98" stroke="#00f" stroke-width="3" fill="none" transform="translate(-2.9183 -.87613)">
  <path id="path100" d="m341.65 524.74c34 15 132.79-2.737 161.71-16.158"/>
  <path id="polyline102" d="m499.44 515.91 6.966-8.745-11.176-0.325"/>
 </g>
 <g id="g104" stroke="#00f" stroke-width="3" fill="none" transform="translate(-2.9183 -.87613)">
  <path id="path106" d="m940 360h113.29"/>
  <path id="polyline108" d="m1046.6 365 10-5-10-5"/>
 </g>
 <g id="text110" fill="#f00">
  <path id="path3128" style="" d="m953.09 189.8v1.6867h-1.9403c-0.72761 0.00001-1.2347 0.147-1.5214 0.44097-0.27929 0.294-0.41893 0.82316-0.41893 1.5875v1.0914h3.3404v1.5765h-3.3404v10.771h-2.0395v-10.771h-1.9403v-1.5765h1.9403v-0.8599c0-1.3744 0.31971-2.3739 0.95912-2.9986 0.6394-0.63205 1.6536-0.94808 3.0427-0.94809h1.9182"/>
  <path id="path3130" style="" d="m954.57 202.08v-7.4745h2.0285v7.3973c0 1.1686 0.22784 2.0469 0.68351 2.6348 0.45567 0.58061 1.1392 0.87092 2.0505 0.87092 1.0951 0 1.9586-0.3491 2.5907-1.0473 0.6394-0.69821 0.9591-1.65 0.95911-2.8553v-7.0004h2.0285v12.347h-2.0285v-1.8962c-0.49242 0.74966-1.0657 1.3082-1.7198 1.6757-0.64677 0.36012-1.4001 0.54019-2.26 0.54019-1.4185 0-2.4952-0.44097-3.2301-1.3229-0.73496-0.88194-1.1024-2.1718-1.1024-3.8695m5.1043-7.7722m1.0142-4.4648h2.2379v2.2269h-2.2379v-2.2269m-4.3105 0h2.2379v2.2269h-2.2379v-2.2269"/>
  <path id="path3132" style="" d="m977.24 200.63c-0.00001-1.4699-0.30501-2.6091-0.91501-3.4175-0.60268-0.80844-1.4516-1.2127-2.5466-1.2127-1.0877 0.00001-1.9366 0.40423-2.5466 1.2127-0.60266 0.80846-0.904 1.9476-0.90399 3.4175-0.00001 1.4626 0.30133 2.5981 0.90399 3.4065 0.61001 0.80846 1.4589 1.2127 2.5466 1.2127 1.0951 0 1.9439-0.40422 2.5466-1.2127 0.61-0.80844 0.915-1.944 0.91501-3.4065m2.0285 4.7846c-0.00001 2.102-0.46671 3.6638-1.4001 4.6853-0.9334 1.0289-2.3629 1.5434-4.2885 1.5434-0.71291 0-1.3854-0.0551-2.0174-0.16536-0.63206-0.1029-1.2458-0.26459-1.8411-0.48507v-1.9734c0.59531 0.32338 1.1833 0.56224 1.7639 0.71659 0.58061 0.15433 1.1722 0.2315 1.7749 0.23151 1.3303-0.00001 2.3261-0.34911 2.9876-1.0473 0.66144-0.69086 0.99217-1.7382 0.99218-3.1419v-1.0032c-0.41893 0.72761-0.95545 1.2715-1.6096 1.6316-0.65411 0.36013-1.4368 0.54019-2.3482 0.54019-1.514 0-2.734-0.57694-3.6601-1.7308-0.92604-1.1539-1.3891-2.6826-1.3891-4.5861 0-1.9109 0.46302-3.4432 1.3891-4.5971 0.92604-1.1539 2.1461-1.7308 3.6601-1.7308 0.91134 0.00001 1.6941 0.18008 2.3482 0.54019 0.6541 0.36014 1.1906 0.90401 1.6096 1.6316v-1.8741h2.0285v10.815"/>
  <path id="path3134" style="" d="m991.57 200.63c-0.00001-1.4699-0.30502-2.6091-0.91502-3.4175-0.60267-0.80844-1.4516-1.2127-2.5466-1.2127-1.0877 0.00001-1.9366 0.40423-2.5466 1.2127-0.60266 0.80846-0.90399 1.9476-0.90399 3.4175 0 1.4626 0.30133 2.5981 0.90399 3.4065 0.61001 0.80846 1.4589 1.2127 2.5466 1.2127 1.0951 0 1.944-0.40422 2.5466-1.2127 0.61-0.80844 0.91501-1.944 0.91502-3.4065m2.0285 4.7846c-0.00001 2.102-0.46671 3.6638-1.4001 4.6853-0.9334 1.0289-2.3629 1.5434-4.2885 1.5434-0.71291 0-1.3854-0.0551-2.0174-0.16536-0.63206-0.1029-1.2458-0.26459-1.8411-0.48507v-1.9734c0.59531 0.32338 1.1833 0.56224 1.7639 0.71659 0.58061 0.15433 1.1722 0.2315 1.7749 0.23151 1.3303-0.00001 2.3261-0.34911 2.9876-1.0473 0.66145-0.69086 0.99218-1.7382 0.99219-3.1419v-1.0032c-0.41894 0.72761-0.95545 1.2715-1.6096 1.6316-0.65412 0.36013-1.4368 0.54019-2.3482 0.54019-1.514 0-2.734-0.57694-3.6601-1.7308-0.92604-1.1539-1.3891-2.6826-1.3891-4.5861 0-1.9109 0.46302-3.4432 1.3891-4.5971 0.92604-1.1539 2.1461-1.7308 3.6601-1.7308 0.91133 0.00001 1.6941 0.18008 2.3482 0.54019 0.6541 0.36014 1.1906 0.90401 1.6096 1.6316v-1.8741h2.0285v10.815"/>
  <path id="path3136" style="" d="m1005.8 188.89h1.9623l-2.734 4.1452h-1.4883l2.26-4.1452m-3.6822 0h1.8742l-2.4584 4.1452h-1.5104l2.0946-4.1452m0.4079 7.1327c-1.0877 0.00001-1.9476 0.42628-2.5796 1.2788-0.63207 0.8452-0.9481 2.0064-0.94809 3.4837-0.00001 1.4773 0.31235 2.6422 0.93707 3.4947 0.63206 0.8452 1.4957 1.2678 2.5907 1.2678 1.0804 0.00001 1.9366-0.42627 2.5687-1.2788 0.6321-0.85254 0.9481-2.0138 0.9481-3.4837 0-1.4626-0.316-2.6201-0.9481-3.4727-0.6321-0.85989-1.4883-1.2898-2.5687-1.2898m0-1.7198c1.7639 0.00001 3.1493 0.57328 4.1562 1.7198s1.5103 2.734 1.5103 4.7625c0 2.0211-0.5034 3.6086-1.5103 4.7625-1.0069 1.1465-2.3923 1.7198-4.1562 1.7198-1.7712 0-3.1603-0.57327-4.1671-1.7198-0.99954-1.1539-1.4993-2.7414-1.4993-4.7625 0-2.0285 0.49977-3.616 1.4993-4.7625 1.0069-1.1465 2.3959-1.7198 4.1671-1.7198"/>
  <path id="path3138" style="" d="m1019.4 194.97v1.9182c-0.5733-0.29397-1.1686-0.51446-1.7859-0.66146-0.6174-0.14698-1.2568-0.22047-1.9183-0.22048-1.0069 0.00001-1.7639 0.15435-2.271 0.46302-0.4997 0.30869-0.7496 0.77171-0.7496 1.3891 0 0.47038 0.18 0.84153 0.5402 1.1135 0.3601 0.26459 1.084 0.51815 2.1718 0.76068l0.6945 0.15434c1.4405 0.30868 2.4621 0.74598 3.0647 1.3119 0.61 0.55857 0.9151 1.3413 0.9151 2.3482 0 1.1465-0.4557 2.0542-1.3671 2.723-0.904 0.6688-2.1497 1.0032-3.7372 1.0032-0.6615 0-1.3523-0.0661-2.0726-0.19844-0.7129-0.12494-1.4662-0.31603-2.26-0.57326v-2.0946c0.7497 0.38952 1.4883 0.68351 2.2159 0.88194 0.7276 0.19109 1.4479 0.28663 2.1608 0.28663 0.9554 0 1.6904-0.16168 2.2049-0.48507 0.5144-0.33072 0.7717-0.79374 0.7717-1.3891 0-0.55121-0.1875-0.97381-0.5623-1.2678-0.3675-0.29397-1.1796-0.57693-2.4363-0.84887l-0.7056-0.16536c-1.2568-0.26458-2.1644-0.66881-2.723-1.2127-0.5586-0.55121-0.8379-1.3045-0.8379-2.26 0-1.1612 0.4116-2.0579 1.2348-2.6899 0.8231-0.63205 1.9917-0.94808 3.5057-0.94809 0.7496 0.00001 1.4552 0.0551 2.1167 0.16537 0.6614 0.11025 1.2714 0.27562 1.83 0.49609"/>
  <path id="path3140" style="" d="m1033.9 200.27v0.99219h-9.3266c0.088 1.3964 0.5072 2.4621 1.2568 3.197 0.757 0.7276 1.808 1.0914 3.153 1.0914 0.779 0.00001 1.5323-0.0955 2.2599-0.28663 0.735-0.19108 1.4626-0.47772 2.1829-0.85989v1.9182c-0.7277 0.30868-1.4736 0.54386-2.238 0.70555-0.7643 0.16169-1.5397 0.24254-2.3261 0.24254-1.9697 0-3.5315-0.57327-4.6853-1.7198-1.1466-1.1465-1.7198-2.6973-1.7198-4.6523 0-2.0211 0.5438-3.6233 1.6316-4.8066 1.095-1.1906 2.5686-1.7859 4.4207-1.7859 1.661 0.00001 2.9729 0.53653 3.9357 1.6096 0.9701 1.0657 1.4552 2.5172 1.4552 4.3546m-2.0285-0.59532c-0.015-1.1098-0.327-1.9954-0.937-2.6569-0.6027-0.66144-1.4038-0.99217-2.4033-0.99218-1.1319 0.00001-2.0395 0.31971-2.723 0.95911-0.6762 0.63942-1.0657 1.5397-1.1686 2.701l7.2319-0.011m-1.9513-10.782h2.1939l-3.594 4.1452h-1.6867l3.0868-4.1452"/>
  <path id="path3142" style="" d="m1045.4 200.63c0-1.4699-0.305-2.6091-0.915-3.4175-0.6027-0.80844-1.4516-1.2127-2.5467-1.2127-1.0877 0.00001-1.9366 0.40423-2.5466 1.2127-0.6026 0.80846-0.904 1.9476-0.904 3.4175 0 1.4626 0.3014 2.5981 0.904 3.4065 0.61 0.80846 1.4589 1.2127 2.5466 1.2127 1.0951 0 1.944-0.40422 2.5467-1.2127 0.61-0.80844 0.915-1.944 0.915-3.4065m2.0284 4.7846c0 2.102-0.4667 3.6638-1.4 4.6853-0.9334 1.0289-2.3629 1.5434-4.2885 1.5434-0.7129 0-1.3854-0.0551-2.0174-0.16536-0.6321-0.1029-1.2458-0.26459-1.8411-0.48507v-1.9734c0.5953 0.32338 1.1833 0.56224 1.7639 0.71659 0.5806 0.15433 1.1722 0.2315 1.7749 0.23151 1.3303-0.00001 2.3261-0.34911 2.9876-1.0473 0.6614-0.69086 0.9922-1.7382 0.9922-3.1419v-1.0032c-0.419 0.72761-0.9555 1.2715-1.6096 1.6316-0.6541 0.36013-1.4368 0.54019-2.3482 0.54019-1.514 0-2.734-0.57694-3.66-1.7308-0.9261-1.1539-1.3891-2.6826-1.3891-4.5861 0-1.9109 0.463-3.4432 1.3891-4.5971 0.926-1.1539 2.146-1.7308 3.66-1.7308 0.9114 0.00001 1.6941 0.18008 2.3482 0.54019 0.6541 0.36014 1.1906 0.90401 1.6096 1.6316v-1.8741h2.0284v10.815"/>
 </g>
 <g id="g114" stroke="#f00" stroke-width="3" fill="none" transform="translate(-2.9183 -.87613)">
  <path id="line116" d="m940 220h113.29" stroke-dasharray="8"/>
  <path id="polyline118" d="m1046.6 225 10-5-10-5"/>
 </g>
 <g id="text120" fill="#00c000">
  <path id="path3147" style="" d="m956.72 469.8h2.0285v17.154h-2.0285v-17.154"/>
  <path id="path3149" style="" d="m962.98 474.6h2.0285v12.347h-2.0285v-12.347m0-4.8066h2.0285v2.5687h-2.0285v-2.5687"/>
  <path id="path3151" style="" d="m979.51 479.5v7.4524h-2.0285v-7.3863c-0.00001-1.1686-0.22785-2.0432-0.68351-2.6238-0.45568-0.5806-1.1392-0.87091-2.0505-0.87092-1.0951 0.00001-1.9587 0.34912-2.5907 1.0473-0.63206 0.69822-0.94809 1.65-0.94809 2.8553v6.9784h-2.0395v-12.347h2.0395v1.9182c0.48507-0.74229 1.0547-1.2972 1.7088-1.6647 0.66145-0.36747 1.4221-0.55121 2.282-0.55122 1.4184 0.00001 2.4915 0.44099 3.2191 1.3229 0.72759 0.87461 1.0914 2.1644 1.0914 3.8695"/>
  <path id="path3153" style="" d="m983.5 469.8h2.0395v10.131l6.0524-5.3247h2.5907l-6.5484 5.7767 6.824 6.5705h-2.6458l-6.2728-6.0303v6.0303h-2.0395v-17.154"/>
  <path id="path3155" style="" d="m1006.4 480.27v0.99219h-9.3266c0.0882 1.3964 0.50711 2.4621 1.2568 3.197 0.757 0.7276 1.808 1.0914 3.153 1.0914 0.779 0.00001 1.5323-0.0955 2.2599-0.28663 0.735-0.19108 1.4626-0.47772 2.1829-0.85989v1.9182c-0.7277 0.30868-1.4736 0.54386-2.238 0.70555-0.7643 0.16169-1.5397 0.24254-2.3261 0.24254-1.9697 0-3.5315-0.57327-4.6853-1.7198-1.1465-1.1465-1.7198-2.6973-1.7198-4.6523 0-2.0211 0.54386-3.6233 1.6316-4.8066 1.0951-1.1906 2.5687-1.7859 4.4207-1.7859 1.661 0.00001 2.9729 0.53653 3.9357 1.6096 0.9701 1.0657 1.4552 2.5172 1.4552 4.3546m-2.0285-0.59532c-0.015-1.1098-0.327-1.9954-0.937-2.6569-0.6027-0.66144-1.4038-0.99217-2.4033-0.99218-1.1319 0.00001-2.0395 0.31971-2.723 0.95911-0.67616 0.63942-1.0657 1.5397-1.1686 2.701l7.2319-0.011"/>
  <path id="path3157" style="" d="m1009.8 469.8h2.0284v17.154h-2.0284v-17.154"/>
  <path id="path3159" style="" d="m1026.6 480.27v0.99219h-9.3266c0.088 1.3964 0.5071 2.4621 1.2568 3.197 0.757 0.7276 1.8079 1.0914 3.1529 1.0914 0.7791 0.00001 1.5324-0.0955 2.26-0.28663 0.7349-0.19108 1.4625-0.47772 2.1828-0.85989v1.9182c-0.7276 0.30868-1.4736 0.54386-2.2379 0.70555-0.7644 0.16169-1.5398 0.24254-2.3262 0.24254-1.9696 0-3.5314-0.57327-4.6853-1.7198-1.1465-1.1465-1.7198-2.6973-1.7198-4.6523 0-2.0211 0.5439-3.6233 1.6316-4.8066 1.0951-1.1906 2.5687-1.7859 4.4208-1.7859 1.661 0.00001 2.9729 0.53653 3.9357 1.6096 0.9701 1.0657 1.4551 2.5172 1.4552 4.3546m-2.0285-0.59532c-0.015-1.1098-0.3271-1.9954-0.9371-2.6569-0.6027-0.66144-1.4038-0.99217-2.4033-0.99218-1.1318 0.00001-2.0395 0.31971-2.723 0.95911-0.6761 0.63942-1.0657 1.5397-1.1686 2.701l7.232-0.011m-1.9513-10.782h2.1938l-3.5939 4.1452h-1.6867l3.0868-4.1452"/>
  <path id="path3161" style="" d="m1037.8 474.97v1.9182c-0.5733-0.29397-1.1686-0.51446-1.786-0.66146-0.6173-0.14698-1.2568-0.22047-1.9182-0.22048-1.0069 0.00001-1.7639 0.15435-2.271 0.46302-0.4998 0.30869-0.7497 0.77171-0.7497 1.3891 0 0.47038 0.1801 0.84153 0.5402 1.1135 0.3601 0.26459 1.0841 0.51815 2.1718 0.76068l0.6945 0.15434c1.4405 0.30868 2.4621 0.74598 3.0648 1.3119 0.61 0.55857 0.915 1.3413 0.915 2.3482 0 1.1465-0.4557 2.0542-1.367 2.723-0.904 0.6688-2.1497 1.0032-3.7372 1.0032-0.6615 0-1.3524-0.0661-2.0726-0.19844-0.7129-0.12494-1.4662-0.31603-2.26-0.57326v-2.0946c0.7497 0.38952 1.4883 0.68351 2.2159 0.88194 0.7276 0.19109 1.4479 0.28663 2.1608 0.28663 0.9554 0 1.6904-0.16168 2.2048-0.48507 0.5145-0.33072 0.7717-0.79374 0.7717-1.3891 0-0.55121-0.1874-0.97381-0.5622-1.2678-0.3675-0.29397-1.1796-0.57693-2.4364-0.84887l-0.7055-0.16536c-1.2568-0.26458-2.1645-0.66881-2.723-1.2127-0.5586-0.55121-0.8379-1.3045-0.8379-2.26 0-1.1612 0.4116-2.0579 1.2347-2.6899 0.8232-0.63205 1.9917-0.94808 3.5058-0.94809 0.7496 0.00001 1.4552 0.0551 2.1166 0.16537 0.6615 0.11025 1.2715 0.27562 1.8301 0.49609"/>
 </g>
 <g id="g124" stroke="#00c000" stroke-width="3" fill="none" transform="translate(-2.9183 -.87613)">
  <path id="line126" d="m940 500h113.29"/>
  <path id="polyline128" d="m1046.6 505 10-5-10-5"/>
 </g>
 <path id="path130" d="m552.58 259.38c0 70 84.5 83.744 144.5 83.744" stroke="#00c000" stroke-width="3" fill="none"/>
 <path id="path132" d="m552.58 427.64c0-70 84.5-84.512 144.5-84.512" stroke="#00c000" stroke-width="3" fill="none"/>
 <g id="g134" stroke="#00c000" stroke-width="3" fill="none" transform="translate(-2.9183 -.87613)">
  <path id="line136" d="m700 344h61.292"/>
  <path id="polyline138" d="m754.65 349 10-5-10-5"/>
 </g>
 <g id="text140">
  <path id="path3168" style="" d="m255.18 245.67c-0.22784-0.13228-0.47773-0.22783-0.74965-0.28663-0.26459-0.0661-0.55857-0.0992-0.88195-0.0992-1.1465 0.00001-2.0285 0.37483-2.6458 1.1245-0.61002 0.74231-0.91502 1.8117-0.91502 3.2081v6.5044h-2.0395v-12.347h2.0395v1.9182c0.42627-0.74965 0.98116-1.3045 1.6647-1.6647 0.6835-0.36747 1.514-0.55121 2.4915-0.55122 0.13963 0.00001 0.29397 0.011 0.46302 0.0331 0.16903 0.0147 0.35644 0.0404 0.56224 0.0772l0.011 2.0836"/>
  <path id="path3170" style="" d="m262.94 249.92c-1.639 0.00001-2.7745 0.18742-3.4065 0.56224-0.63207 0.37483-0.9481 1.0142-0.94809 1.9182-0.00001 0.72026 0.23518 1.2935 0.70555 1.7198 0.47772 0.41892 1.1245 0.62838 1.9403 0.62838 1.1245 0 2.0248-0.39687 2.701-1.1906 0.6835-0.8011 1.0252-1.8631 1.0253-3.186v-0.452h-2.0174m4.0459-0.83785v7.0445h-2.0285v-1.8741c-0.46303 0.74965-1.04 1.3045-1.7308 1.6647-0.69086 0.35278-1.5361 0.52917-2.5356 0.52917-1.2641 0-2.271-0.35278-3.0207-1.0583-0.74231-0.7129-1.1135-1.6647-1.1135-2.8553 0-1.3891 0.46302-2.4364 1.3891-3.1419 0.93339-0.70555 2.3224-1.0583 4.1672-1.0583h2.8443v-0.19844c-0.00001-0.93338-0.30869-1.6536-0.92604-2.1608-0.61002-0.51446-1.4699-0.7717-2.5797-0.77171-0.70556 0.00001-1.3927 0.0845-2.0616 0.25356-0.66881 0.16905-1.3119 0.42261-1.9292 0.76068v-1.8741c0.7423-0.28662 1.4626-0.49976 2.1608-0.63941 0.6982-0.14698 1.378-0.22048 2.0395-0.22049 1.7859 0.00001 3.1199 0.46303 4.0018 1.3891 0.88193 0.92606 1.3229 2.3298 1.3229 4.2113"/>
  <path id="path3172" style="" d="m271.18 243.78h2.0285v12.568c0 1.5728-0.30133 2.712-0.90399 3.4175-0.59532 0.70555-1.5581 1.0583-2.8884 1.0583h-0.77171v-1.7198h0.5402c0.7717-0.00001 1.2972-0.18007 1.5765-0.5402 0.27928-0.35278 0.41893-1.0914 0.41893-2.2159v-12.568m0-4.8066h2.0285v2.5687h-2.0285v-2.5687"/>
  <path id="path3174" style="" d="m276.56 243.78h9.6353v1.8521l-7.6288 8.8746h7.6288v1.6206h-9.9109v-1.8521l7.6288-8.8746h-7.3532v-1.6206"/>
  <path id="path3176" style="" d="m294.08 245.2c-1.0877 0.00001-1.9476 0.42629-2.5797 1.2788-0.63206 0.84521-0.94809 2.0064-0.94809 3.4837s0.31236 2.6422 0.93707 3.4947c0.63206 0.8452 1.4956 1.2678 2.5907 1.2678 1.0804 0 1.9366-0.42627 2.5687-1.2788 0.63205-0.85254 0.94808-2.0138 0.94809-3.4837-0.00001-1.4626-0.31604-2.6201-0.94809-3.4727-0.63207-0.85989-1.4883-1.2898-2.5687-1.2898m0-1.7198c1.7639 0.00001 3.1493 0.57328 4.1562 1.7198s1.5103 2.734 1.5103 4.7625c-0.00001 2.0211-0.50345 3.6086-1.5103 4.7625-1.0069 1.1465-2.3923 1.7198-4.1562 1.7198-1.7712 0-3.1603-0.57327-4.1672-1.7198-0.99954-1.1539-1.4993-2.7414-1.4993-4.7625-0.00001-2.0285 0.49976-3.616 1.4993-4.7625 1.0069-1.1465 2.396-1.7198 4.1672-1.7198"/>
  <path id="path3178" style="" d="m303.1 238.97h2.0285v17.154h-2.0285v-17.154"/>
  <path id="path3180" style="" d="m314.15 245.2c-1.0877 0.00001-1.9476 0.42629-2.5797 1.2788-0.63206 0.84521-0.94809 2.0064-0.94809 3.4837s0.31235 2.6422 0.93707 3.4947c0.63206 0.8452 1.4956 1.2678 2.5907 1.2678 1.0804 0 1.9366-0.42627 2.5687-1.2788 0.63205-0.85254 0.94808-2.0138 0.94809-3.4837-0.00001-1.4626-0.31604-2.6201-0.94809-3.4727-0.63207-0.85989-1.4883-1.2898-2.5687-1.2898m0-1.7198c1.7639 0.00001 3.1493 0.57328 4.1562 1.7198s1.5103 2.734 1.5103 4.7625c-0.00001 2.0211-0.50345 3.6086-1.5103 4.7625-1.0069 1.1465-2.3923 1.7198-4.1562 1.7198-1.7712 0-3.1603-0.57327-4.1672-1.7198-0.99954-1.1539-1.4993-2.7414-1.4993-4.7625 0-2.0285 0.49977-3.616 1.4993-4.7625 1.0069-1.1465 2.396-1.7198 4.1672-1.7198"/>
  <path id="path3182" style="" d="m323.06 253.32h2.3261v2.8002h-2.3261v-2.8002"/>
  <path id="path3184" style="" d="m338.84 244.25v1.8962c-0.57328-0.31602-1.1502-0.5512-1.7308-0.70555-0.57328-0.16168-1.1539-0.24253-1.7418-0.24254-1.3156 0.00001-2.3372 0.41894-3.0648 1.2568-0.72761 0.8305-1.0914 1.9991-1.0914 3.5057-0.00001 1.5067 0.3638 2.6789 1.0914 3.5168 0.7276 0.83051 1.7492 1.2458 3.0648 1.2458 0.58795 0 1.1686-0.0772 1.7418-0.23151 0.5806-0.16169 1.1575-0.40055 1.7308-0.71658v1.8741c-0.56593 0.26458-1.1539 0.46302-1.7639 0.59531-0.60267 0.13229-1.2458 0.19844-1.9292 0.19844-1.8594 0-3.3367-0.58429-4.4318-1.7529s-1.6426-2.745-1.6426-4.7294c0-2.0138 0.55121-3.5976 1.6536-4.7515 1.1098-1.1539 2.6274-1.7308 4.553-1.7308 0.6247 0.00001 1.2347 0.0662 1.83 0.19844 0.5953 0.12495 1.1722 0.31604 1.7308 0.57326"/>
 </g>
 <g id="text144">
  <path id="path3187" style="" d="m254.23 405.67c-0.22784-0.13228-0.47773-0.22783-0.74965-0.28663-0.26459-0.0661-0.55857-0.0992-0.88195-0.0992-1.1465 0.00001-2.0285 0.37483-2.6458 1.1245-0.61002 0.74231-0.91503 1.8117-0.91502 3.2081v6.5044h-2.0395v-12.347h2.0395v1.9182c0.42627-0.74965 0.98116-1.3045 1.6647-1.6647 0.6835-0.36747 1.514-0.55121 2.4915-0.55122 0.13963 0.00001 0.29397 0.011 0.46302 0.0331 0.16903 0.0147 0.35644 0.0404 0.56224 0.0772l0.011 2.0836"/>
  <path id="path3189" style="" d="m261.99 409.92c-1.639 0.00001-2.7745 0.18742-3.4065 0.56224-0.63207 0.37483-0.9481 1.0142-0.94809 1.9182-0.00001 0.72026 0.23518 1.2935 0.70555 1.7198 0.47772 0.41892 1.1245 0.62838 1.9403 0.62838 1.1245 0 2.0248-0.39687 2.701-1.1906 0.6835-0.8011 1.0252-1.8631 1.0253-3.186v-0.452h-2.0174m4.0459-0.83785v7.0445h-2.0285v-1.8741c-0.46303 0.74965-1.04 1.3045-1.7308 1.6647-0.69086 0.35278-1.5361 0.52917-2.5356 0.52917-1.2641 0-2.271-0.35278-3.0207-1.0583-0.74231-0.7129-1.1135-1.6647-1.1135-2.8553 0-1.3891 0.46302-2.4364 1.3891-3.1419 0.93338-0.70555 2.3224-1.0583 4.1672-1.0583h2.8443v-0.19844c-0.00001-0.93338-0.30869-1.6536-0.92604-2.1608-0.61002-0.51446-1.4699-0.7717-2.5797-0.77171-0.70556 0.00001-1.3927 0.0845-2.0616 0.25356-0.66881 0.16905-1.3119 0.42261-1.9292 0.76068v-1.8741c0.7423-0.28662 1.4626-0.49976 2.1608-0.63941 0.6982-0.14698 1.378-0.22048 2.0395-0.22049 1.7859 0.00001 3.1199 0.46303 4.0018 1.3891 0.88193 0.92606 1.3229 2.3298 1.3229 4.2113"/>
  <path id="path3191" style="" d="m270.23 403.78h2.0285v12.568c0 1.5728-0.30133 2.712-0.90399 3.4175-0.59532 0.70555-1.5581 1.0583-2.8884 1.0583h-0.77171v-1.7198h0.5402c0.7717-0.00001 1.2972-0.18007 1.5765-0.5402 0.27928-0.35278 0.41892-1.0914 0.41893-2.2159v-12.568m0-4.8066h2.0285v2.5687h-2.0285v-2.5687"/>
  <path id="path3193" style="" d="m275.61 403.78h9.6352v1.8521l-7.6288 8.8746h7.6288v1.6206h-9.9109v-1.8521l7.6288-8.8746h-7.3532v-1.6206"/>
  <path id="path3195" style="" d="m293.14 405.2c-1.0877 0.00001-1.9476 0.42629-2.5797 1.2788-0.63206 0.84521-0.94809 2.0064-0.94809 3.4837s0.31235 2.6422 0.93707 3.4947c0.63206 0.8452 1.4956 1.2678 2.5907 1.2678 1.0804 0 1.9366-0.42627 2.5687-1.2788 0.63205-0.85254 0.94808-2.0138 0.94809-3.4837-0.00001-1.4626-0.31604-2.6201-0.94809-3.4727-0.63207-0.85989-1.4883-1.2898-2.5687-1.2898m0-1.7198c1.7639 0.00001 3.1493 0.57328 4.1562 1.7198s1.5103 2.734 1.5103 4.7625c-0.00001 2.0211-0.50345 3.6086-1.5103 4.7625-1.0069 1.1465-2.3923 1.7198-4.1562 1.7198-1.7712 0-3.1603-0.57327-4.1672-1.7198-0.99954-1.1539-1.4993-2.7414-1.4993-4.7625 0-2.0285 0.49977-3.616 1.4993-4.7625 1.0069-1.1465 2.396-1.7198 4.1672-1.7198"/>
  <path id="path3197" style="" d="m302.15 398.97h2.0285v17.154h-2.0285v-17.154"/>
  <path id="path3199" style="" d="m313.2 405.2c-1.0877 0.00001-1.9476 0.42629-2.5797 1.2788-0.63206 0.84521-0.94809 2.0064-0.94809 3.4837s0.31235 2.6422 0.93707 3.4947c0.63205 0.8452 1.4956 1.2678 2.5907 1.2678 1.0804 0 1.9366-0.42627 2.5687-1.2788 0.63205-0.85254 0.94808-2.0138 0.94809-3.4837-0.00001-1.4626-0.31604-2.6201-0.94809-3.4727-0.63207-0.85989-1.4883-1.2898-2.5687-1.2898m0-1.7198c1.7639 0.00001 3.1493 0.57328 4.1562 1.7198s1.5103 2.734 1.5103 4.7625c-0.00001 2.0211-0.50345 3.6086-1.5103 4.7625-1.0069 1.1465-2.3923 1.7198-4.1562 1.7198-1.7712 0-3.1603-0.57327-4.1672-1.7198-0.99954-1.1539-1.4993-2.7414-1.4993-4.7625 0-2.0285 0.49977-3.616 1.4993-4.7625 1.0069-1.1465 2.396-1.7198 4.1672-1.7198"/>
  <path id="path3201" style="" d="m322.11 413.32h2.3261v2.8002h-2.3261v-2.8002"/>
  <path id="path3203" style="" d="m339.27 408.67v7.4524h-2.0285v-7.3863c-0.00001-1.1686-0.22785-2.0432-0.68351-2.6238-0.45568-0.5806-1.1392-0.87091-2.0505-0.87092-1.0951 0.00001-1.9587 0.34911-2.5907 1.0473-0.63206 0.69822-0.94809 1.65-0.94809 2.8553v6.9784h-2.0395v-17.154h2.0395v6.7248c0.48507-0.7423 1.0547-1.2972 1.7088-1.6647 0.66145-0.36747 1.4221-0.55121 2.282-0.55122 1.4184 0.00001 2.4915 0.44098 3.2191 1.3229 0.72759 0.8746 1.0914 2.1644 1.0914 3.8695"/>
 </g>
 <g id="text148">
  <path id="path3206" style="" d="m266.79 566.15c0.50711-0.91133 1.1134-1.5838 1.819-2.0174 0.70554-0.43361 1.536-0.65042 2.4915-0.65043 1.2862 0.00001 2.2783 0.45201 2.9766 1.356 0.69819 0.89666 1.0473 2.1755 1.0473 3.8365v7.4524h-2.0395v-7.3863c-0.00001-1.1833-0.20948-2.0615-0.62838-2.6348-0.41894-0.57326-1.0584-0.85989-1.9182-0.8599-1.051 0.00001-1.8815 0.34911-2.4915 1.0473-0.61002 0.69822-0.91503 1.65-0.91502 2.8553v6.9784h-2.0395v-7.3863c-0.00001-1.1906-0.20947-2.0689-0.62838-2.6348-0.41893-0.57326-1.0657-0.85989-1.9403-0.8599-1.0363 0.00001-1.8594 0.35279-2.4694 1.0583-0.61002 0.69821-0.91502 1.6463-0.91502 2.8443v6.9784h-2.0395v-12.347h2.0395v1.9182c0.46302-0.75699 1.0179-1.3156 1.6647-1.6757 0.64675-0.36011 1.4148-0.54018 2.3041-0.54019 0.89663 0.00001 1.6573 0.22785 2.282 0.68351 0.63205 0.45568 1.0988 1.1171 1.4001 1.9844"/>
  <path id="path3208" style="" d="m284.79 569.92c-1.639 0.00001-2.7745 0.18742-3.4065 0.56224-0.63206 0.37483-0.94809 1.0142-0.94809 1.9182 0 0.72026 0.23518 1.2935 0.70556 1.7198 0.47771 0.41892 1.1245 0.62838 1.9403 0.62838 1.1245 0 2.0248-0.39687 2.701-1.1906 0.68349-0.8011 1.0252-1.8631 1.0253-3.186v-0.452h-2.0174m4.0459-0.83785v7.0445h-2.0285v-1.8741c-0.46303 0.74965-1.04 1.3045-1.7308 1.6647-0.69086 0.35278-1.5361 0.52917-2.5356 0.52917-1.2641 0-2.271-0.35278-3.0207-1.0583-0.7423-0.7129-1.1134-1.6647-1.1134-2.8553 0-1.389 0.46302-2.4364 1.3891-3.1419 0.93339-0.70555 2.3224-1.0583 4.1672-1.0583h2.8443v-0.19844c-0.00001-0.93338-0.30869-1.6536-0.92604-2.1608-0.61003-0.51446-1.4699-0.7717-2.5797-0.77171-0.70556 0.00001-1.3927 0.0845-2.0615 0.25356-0.66881 0.16905-1.3119 0.42261-1.9293 0.76068v-1.8741c0.7423-0.28662 1.4626-0.49976 2.1608-0.63941 0.6982-0.14698 1.378-0.22048 2.0395-0.22049 1.7859 0.00001 3.1199 0.46303 4.0018 1.3891 0.88194 0.92606 1.3229 2.3298 1.3229 4.2113"/>
  <path id="path3210" style="" d="m293.03 563.78h2.0285v12.347h-2.0285v-12.347m0-4.8066h2.0285v2.5687h-2.0285v-2.5687"/>
  <path id="path3212" style="" d="m309.55 568.67v7.4524h-2.0285v-7.3863c-0.00001-1.1686-0.22785-2.0432-0.68351-2.6238-0.45568-0.5806-1.1392-0.87091-2.0505-0.87092-1.0951 0.00001-1.9587 0.34911-2.5907 1.0473-0.63206 0.69822-0.94809 1.65-0.94809 2.8553v6.9784h-2.0395v-12.347h2.0395v1.9182c0.48507-0.7423 1.0547-1.2972 1.7088-1.6647 0.66145-0.36747 1.4221-0.55121 2.282-0.55122 1.4185 0.00001 2.4915 0.44098 3.2191 1.3229 0.7276 0.8746 1.0914 2.1644 1.0914 3.8695"/>
  <path id="path3214" style="" d="m313.91 573.32h2.3261v2.8002h-2.3261v-2.8002"/>
  <path id="path3216" style="" d="m329.69 564.25v1.8962c-0.57328-0.31602-1.1502-0.5512-1.7308-0.70555-0.57327-0.16168-1.1539-0.24253-1.7418-0.24254-1.3156 0.00001-2.3372 0.41894-3.0648 1.2568-0.72761 0.8305-1.0914 1.9991-1.0914 3.5057 0 1.5067 0.3638 2.6789 1.0914 3.5168 0.7276 0.8305 1.7492 1.2457 3.0648 1.2457 0.58795 0 1.1686-0.0772 1.7418-0.23151 0.58061-0.16169 1.1575-0.40055 1.7308-0.71658v1.8741c-0.56593 0.26458-1.1539 0.46302-1.7639 0.59531-0.60267 0.13229-1.2458 0.19844-1.9293 0.19844-1.8594 0-3.3367-0.58429-4.4318-1.7529s-1.6426-2.745-1.6426-4.7294c0-2.0138 0.55122-3.5976 1.6536-4.7515 1.1098-1.1539 2.6275-1.7308 4.553-1.7308 0.62471 0.00001 1.2347 0.0662 1.83 0.19844 0.5953 0.12495 1.1722 0.31604 1.7308 0.57326"/>
 </g>
 <g id="text152">
  <path id="path3219" style="" d="m526.11 550.15c0.50711-0.91133 1.1134-1.5838 1.819-2.0174 0.70555-0.43361 1.536-0.65042 2.4915-0.65043 1.2862 0.00001 2.2783 0.45201 2.9766 1.356 0.69818 0.89666 1.0473 2.1755 1.0473 3.8365v7.4524h-2.0395v-7.3863c-0.00002-1.1833-0.20948-2.0615-0.62839-2.6348-0.41894-0.57326-1.0584-0.85989-1.9182-0.8599-1.051 0.00001-1.8815 0.34911-2.4915 1.0473-0.61002 0.69822-0.91503 1.65-0.91501 2.8553v6.9784h-2.0395v-7.3863c-0.00001-1.1906-0.20947-2.0689-0.62839-2.6348-0.41893-0.57326-1.0657-0.85989-1.9403-0.8599-1.0363 0.00001-1.8594 0.35279-2.4694 1.0583-0.61001 0.69821-0.91502 1.6463-0.91501 2.8443v6.9784h-2.0395v-12.347h2.0395v1.9182c0.46301-0.75699 1.0179-1.3156 1.6647-1.6757 0.64675-0.36011 1.4148-0.54018 2.3041-0.54019 0.89664 0.00001 1.6573 0.22785 2.282 0.68351 0.63205 0.45568 1.0988 1.1171 1.4001 1.9844"/>
  <path id="path3221" style="" d="m544.11 553.92c-1.639 0.00001-2.7745 0.18742-3.4065 0.56224-0.63207 0.37483-0.9481 1.0142-0.94809 1.9182-0.00001 0.72026 0.23518 1.2935 0.70555 1.7198 0.47772 0.41892 1.1245 0.62838 1.9403 0.62838 1.1245 0 2.0248-0.39687 2.701-1.1906 0.6835-0.8011 1.0252-1.8631 1.0253-3.186v-0.452h-2.0174m4.0459-0.83785v7.0445h-2.0285v-1.8741c-0.46303 0.74965-1.04 1.3045-1.7308 1.6647-0.69086 0.35278-1.5361 0.52917-2.5356 0.52917-1.2641 0-2.271-0.35278-3.0207-1.0583-0.74231-0.7129-1.1135-1.6647-1.1135-2.8553 0-1.389 0.46302-2.4364 1.3891-3.1419 0.93338-0.70555 2.3224-1.0583 4.1672-1.0583h2.8443v-0.19844c-0.00001-0.93338-0.30869-1.6536-0.92604-2.1608-0.61002-0.51446-1.4699-0.7717-2.5797-0.77171-0.70556 0.00001-1.3928 0.0845-2.0616 0.25356-0.66881 0.16905-1.3119 0.42261-1.9292 0.76068v-1.8741c0.7423-0.28662 1.4626-0.49976 2.1608-0.63941 0.6982-0.14698 1.378-0.22048 2.0395-0.22049 1.7859 0.00001 3.1199 0.46303 4.0018 1.3891 0.88193 0.92606 1.3229 2.3298 1.3229 4.2113"/>
  <path id="path3223" style="" d="m552.34 547.78h2.0285v12.347h-2.0285v-12.347m0-4.8066h2.0285v2.5687h-2.0285v-2.5687"/>
  <path id="path3225" style="" d="m568.87 552.67v7.4524h-2.0285v-7.3863c-0.00001-1.1686-0.22785-2.0432-0.68351-2.6238-0.45568-0.5806-1.1392-0.87091-2.0505-0.87092-1.0951 0.00001-1.9587 0.34911-2.5907 1.0473-0.63207 0.69822-0.9481 1.65-0.9481 2.8553v6.9784h-2.0395v-12.347h2.0395v1.9182c0.48507-0.7423 1.0547-1.2972 1.7088-1.6647 0.66146-0.36747 1.4221-0.55121 2.282-0.55122 1.4184 0.00001 2.4915 0.44098 3.2191 1.3229 0.72759 0.8746 1.0914 2.1644 1.0914 3.8695"/>
  <path id="path3227" style="" d="m573.22 557.32h2.3261v2.8002h-2.3261v-2.8002"/>
  <path id="path3229" style="" d="m584.91 549.2c-1.0877 0.00001-1.9476 0.42629-2.5797 1.2788-0.63207 0.84521-0.9481 2.0064-0.9481 3.4837s0.31236 2.6422 0.93707 3.4947c0.63206 0.8452 1.4956 1.2678 2.5907 1.2678 1.0804 0 1.9366-0.42627 2.5687-1.2788 0.63205-0.85254 0.94808-2.0138 0.94809-3.4837-0.00001-1.4626-0.31604-2.6201-0.94809-3.4727-0.63207-0.85989-1.4883-1.2898-2.5687-1.2898m0-1.7198c1.7639 0.00001 3.1493 0.57328 4.1562 1.7198s1.5103 2.734 1.5103 4.7625c-0.00001 2.0211-0.50345 3.6086-1.5103 4.7625-1.0069 1.1465-2.3923 1.7198-4.1562 1.7198-1.7712 0-3.1603-0.57327-4.1672-1.7198-0.99954-1.1539-1.4993-2.7414-1.4993-4.7625 0-2.0285 0.49976-3.616 1.4993-4.7625 1.0069-1.1465 2.396-1.7198 4.1672-1.7198"/>
  <path id="path3231" style="" d="m501.39 571.21c-0.98484 1.6904-1.7161 3.3624-2.1938 5.0161-0.47772 1.6537-0.71658 3.3294-0.71658 5.0271 0 1.6978 0.23886 3.3808 0.71658 5.0491 0.48507 1.661 1.2164 3.333 2.1938 5.0161h-1.7639c-1.1024-1.7271-1.9293-3.4249-2.4805-5.0932-0.54387-1.6684-0.8158-3.3257-0.8158-4.972 0-1.6389 0.27193-3.2889 0.8158-4.9499 0.54386-1.661 1.3707-3.3587 2.4805-5.0932h1.7639"/>
  <path id="path3233" style="" d="m507.34 572.49v3.5057h4.1782v1.5765h-4.1782v6.7028c0 1.0069 0.13597 1.6536 0.4079 1.9403 0.27928 0.28664 0.84152 0.42995 1.6867 0.42995h2.0836v1.6978h-2.0836c-1.5654 0-2.6458-0.29031-3.2411-0.87092-0.59532-0.58797-0.89298-1.6536-0.89297-3.1971v-6.7028h-1.4883v-1.5765h1.4883v-3.5057h2.0395"/>
  <path id="path3235" style="" d="m519.81 582.14c-1.639 0-2.7745 0.18742-3.4065 0.56224-0.63206 0.37483-0.94809 1.0142-0.94809 1.9182 0 0.72026 0.23518 1.2935 0.70556 1.7198 0.47771 0.41893 1.1245 0.62839 1.9403 0.62839 1.1245 0 2.0248-0.39688 2.701-1.1906 0.68349-0.8011 1.0252-1.8631 1.0253-3.186v-0.45199h-2.0174m4.0459-0.83785v7.0445h-2.0285v-1.8741c-0.46303 0.74966-1.04 1.3046-1.7308 1.6647-0.69086 0.35278-1.5361 0.52917-2.5356 0.52917-1.2641 0-2.271-0.35278-3.0207-1.0583-0.7423-0.71291-1.1134-1.6647-1.1134-2.8553 0-1.3891 0.46302-2.4364 1.3891-3.1419 0.93339-0.70555 2.3224-1.0583 4.1672-1.0583h2.8443v-0.19843c-0.00001-0.93339-0.30869-1.6536-0.92605-2.1608-0.61002-0.51446-1.4699-0.77169-2.5797-0.7717-0.70556 0.00001-1.3927 0.0845-2.0615 0.25356-0.66881 0.16905-1.3119 0.42261-1.9293 0.76068v-1.8741c0.7423-0.28662 1.4626-0.49976 2.1608-0.63941 0.6982-0.14698 1.378-0.22047 2.0395-0.22049 1.7859 0.00002 3.1199 0.46304 4.0018 1.3891 0.88194 0.92605 1.3229 2.3298 1.3229 4.2113m-3.7042-11.013h2.1938l-3.5939 4.1451h-1.6867l3.0868-4.1451"/>
  <path id="path3237" style="" d="m535.2 577.89c-0.22784-0.13228-0.47773-0.22782-0.74965-0.28663-0.26459-0.0661-0.55857-0.0992-0.88195-0.0992-1.1465 0.00001-2.0285 0.37484-2.6458 1.1245-0.61002 0.74232-0.91503 1.8117-0.91502 3.2081v6.5044h-2.0395v-12.347h2.0395v1.9182c0.42627-0.74964 0.98116-1.3045 1.6647-1.6647 0.6835-0.36746 1.514-0.5512 2.4915-0.55122 0.13963 0.00002 0.29397 0.011 0.46302 0.0331 0.16903 0.0147 0.35644 0.0404 0.56224 0.0772l0.011 2.0836"/>
  <path id="path3239" style="" d="m545.08 582.03c-0.00001-1.4699-0.30501-2.6091-0.91502-3.4175-0.60267-0.80843-1.4515-1.2127-2.5466-1.2127-1.0877 0.00001-1.9366 0.40424-2.5466 1.2127-0.60267 0.80846-0.904 1.9476-0.90399 3.4175-0.00001 1.4626 0.30132 2.5981 0.90399 3.4065 0.61001 0.80845 1.4589 1.2127 2.5466 1.2127 1.0951 0 1.9439-0.40422 2.5466-1.2127 0.61001-0.80845 0.91501-1.944 0.91502-3.4065m2.0285 4.7846c-0.00002 2.102-0.46671 3.6637-1.4001 4.6853-0.9334 1.0289-2.3629 1.5434-4.2885 1.5434-0.71291-0.00001-1.3854-0.0551-2.0174-0.16537-0.63207-0.1029-1.2458-0.26459-1.8411-0.48507v-1.9734c0.59531 0.32338 1.1833 0.56224 1.7639 0.71658 0.58061 0.15434 1.1722 0.23151 1.7749 0.23151 1.3303 0 2.3261-0.34911 2.9876-1.0473 0.66145-0.69086 0.99218-1.7382 0.99219-3.1419v-1.0032c-0.41893 0.7276-0.95545 1.2715-1.6096 1.6316-0.65412 0.36013-1.4368 0.5402-2.3482 0.5402-1.514 0-2.734-0.57694-3.6601-1.7308-0.92605-1.1539-1.3891-2.6826-1.3891-4.5861-0.00001-1.9109 0.46301-3.4432 1.3891-4.5971 0.92604-1.1539 2.1461-1.7308 3.6601-1.7308 0.91134 0.00002 1.6941 0.18008 2.3482 0.5402 0.6541 0.36014 1.1906 0.904 1.6096 1.6316v-1.8741h2.0285v10.815"/>
  <path id="path3241" style="" d="m556.42 589.49c-0.57327 1.4699-1.1318 2.429-1.6757 2.8773-0.54387 0.44832-1.2715 0.67248-2.1828 0.67249h-1.6206v-1.6978h1.1906c0.55857 0 0.99219-0.13229 1.3009-0.39688 0.30868-0.26458 0.65043-0.88929 1.0253-1.8741l0.3638-0.92604-4.994-12.149h2.1497l3.8585 9.6573 3.8585-9.6573h2.1497l-5.424 13.494"/>
  <path id="path3243" style="" d="m564.57 571.19h2.0395v10.131l6.0524-5.3248h2.5907l-6.5484 5.7767 6.8241 6.5705h-2.6458l-6.2728-6.0303v6.0303h-2.0395v-17.154"/>
  <path id="path3245" style="" d="m581.73 577.42c-1.0877 0.00001-1.9476 0.42628-2.5797 1.2788-0.63207 0.84521-0.9481 2.0064-0.94809 3.4837-0.00001 1.4773 0.31235 2.6422 0.93706 3.4947 0.63206 0.8452 1.4956 1.2678 2.5907 1.2678 1.0804 0 1.9366-0.42627 2.5687-1.2788 0.63205-0.85255 0.94808-2.0138 0.94809-3.4837-0.00001-1.4626-0.31604-2.6201-0.94809-3.4727-0.63207-0.85988-1.4883-1.2898-2.5687-1.2898m0-1.7198c1.7639 0.00002 3.1493 0.57328 4.1562 1.7198s1.5103 2.734 1.5103 4.7625c-0.00002 2.0211-0.50346 3.6086-1.5103 4.7625-1.0069 1.1465-2.3923 1.7198-4.1562 1.7198-1.7712 0-3.1603-0.57326-4.1672-1.7198-0.99954-1.1539-1.4993-2.7414-1.4993-4.7625 0-2.0285 0.49977-3.616 1.4993-4.7625 1.0069-1.1465 2.3959-1.7198 4.1672-1.7198m1.5324-5.4129h2.1938l-3.5939 4.1451h-1.6867l3.0868-4.1451"/>
  <path id="path3247" style="" d="m598.88 577.87v-6.6807h2.0285v17.154h-2.0285v-1.8521c-0.42628 0.73496-0.96647 1.2825-1.6206 1.6426-0.64677 0.35278-1.4258 0.52917-2.3372 0.52917-1.492 0-2.7083-0.59531-3.649-1.7859-0.93339-1.1906-1.4001-2.7561-1.4001-4.6964s0.4667-3.5057 1.4001-4.6964c0.94074-1.1906 2.1571-1.7859 3.649-1.7859 0.91134 0.00002 1.6904 0.18008 2.3372 0.5402 0.6541 0.35279 1.1943 0.89665 1.6206 1.6316m-6.9122 4.3105c0 1.492 0.30501 2.6642 0.91502 3.5168 0.61736 0.8452 1.4626 1.2678 2.5356 1.2678s1.9182-0.4226 2.5356-1.2678c0.61735-0.85254 0.92603-2.0248 0.92604-3.5168-0.00001-1.492-0.30869-2.6605-0.92604-3.5057-0.61737-0.85254-1.4626-1.2788-2.5356-1.2788-1.073 0.00001-1.9182 0.42628-2.5356 1.2788-0.61001 0.84521-0.91502 2.0138-0.91502 3.5057"/>
  <path id="path3249" style="" d="m604.76 571.21h1.7639c1.1024 1.7345 1.9256 3.4322 2.4694 5.0932 0.55121 1.661 0.82682 3.311 0.82683 4.9499-0.00001 1.6463-0.27562 3.3036-0.82683 4.972-0.54387 1.6683-1.367 3.3661-2.4694 5.0932h-1.7639c0.97749-1.683 1.7051-3.3551 2.1828-5.0161 0.48507-1.6684 0.7276-3.3514 0.7276-5.0491s-0.24253-3.3734-0.7276-5.0271c-0.47772-1.6536-1.2053-3.3256-2.1828-5.0161"/>
 </g>
 <g id="text158">
  <path id="path3252" style="" d="m707.53 402.97v1.6867h-1.9403c-0.72761 0.00002-1.2347 0.14701-1.5214 0.44098-0.27929 0.29399-0.41893 0.82316-0.41892 1.5875v1.0914h3.3404v1.5765h-3.3404v10.771h-2.0395v-10.771h-1.9403v-1.5765h1.9403v-0.8599c0-1.3744 0.3197-2.3739 0.95911-2.9986 0.63941-0.63205 1.6536-0.94808 3.0427-0.9481h1.9182"/>
  <path id="path3254" style="" d="m709.01 415.25v-7.4745h2.0285v7.3973c0 1.1686 0.22783 2.0468 0.68351 2.6348 0.45566 0.58062 1.1392 0.87093 2.0505 0.87093 1.0951 0 1.9586-0.34911 2.5907-1.0473 0.6394-0.69821 0.95911-1.65 0.95912-2.8553v-7.0004h2.0285v12.347h-2.0285v-1.8962c-0.49243 0.74965-1.0657 1.3082-1.7198 1.6757-0.64677 0.36013-1.4001 0.5402-2.26 0.5402-1.4185 0-2.4952-0.44098-3.2301-1.3229-0.73496-0.88195-1.1024-2.1718-1.1024-3.8695m5.1043-7.7721"/>
  <path id="path3256" style="" d="m731.68 413.81c-0.00001-1.4699-0.30502-2.6091-0.91502-3.4175-0.60267-0.80844-1.4515-1.2127-2.5466-1.2127-1.0877 0.00002-1.9366 0.40424-2.5466 1.2127-0.60267 0.80846-0.904 1.9476-0.904 3.4175 0 1.4626 0.30133 2.5981 0.904 3.4065 0.61 0.80845 1.4589 1.2127 2.5466 1.2127 1.0951 0 1.944-0.40423 2.5466-1.2127 0.61-0.80844 0.91501-1.944 0.91502-3.4065m2.0285 4.7846c-0.00001 2.102-0.4667 3.6638-1.4001 4.6853-0.93341 1.0289-2.3629 1.5434-4.2885 1.5434-0.71292 0-1.3854-0.0551-2.0174-0.16536-0.63207-0.1029-1.2458-0.26459-1.8411-0.48507v-1.9734c0.59531 0.32338 1.1833 0.56224 1.7639 0.71658s1.1722 0.23151 1.7749 0.23151c1.3303 0 2.3261-0.3491 2.9876-1.0473 0.66145-0.69085 0.99218-1.7382 0.99219-3.1419v-1.0032c-0.41893 0.72761-0.95545 1.2715-1.6096 1.6316-0.65412 0.36013-1.4368 0.54019-2.3482 0.54019-1.514 0-2.734-0.57694-3.6601-1.7308-0.92605-1.1539-1.3891-2.6826-1.3891-4.5861 0-1.9109 0.46302-3.4432 1.3891-4.5971 0.92604-1.1539 2.1461-1.7308 3.6601-1.7308 0.91134 0.00001 1.6941 0.18008 2.3482 0.54019 0.6541 0.36014 1.1906 0.90401 1.6096 1.6316v-1.8741h2.0285v10.815"/>
  <path id="path3258" style="" d="m746.01 413.81c-0.00001-1.4699-0.30502-2.6091-0.91502-3.4175-0.60267-0.80844-1.4515-1.2127-2.5466-1.2127-1.0877 0.00002-1.9366 0.40424-2.5466 1.2127-0.60267 0.80846-0.904 1.9476-0.904 3.4175 0 1.4626 0.30133 2.5981 0.904 3.4065 0.61001 0.80845 1.4589 1.2127 2.5466 1.2127 1.0951 0 1.9439-0.40423 2.5466-1.2127 0.61-0.80844 0.91501-1.944 0.91502-3.4065m2.0285 4.7846c-0.00002 2.102-0.46671 3.6638-1.4001 4.6853-0.93341 1.0289-2.3629 1.5434-4.2885 1.5434-0.71291 0-1.3854-0.0551-2.0174-0.16536-0.63207-0.1029-1.2458-0.26459-1.8411-0.48507v-1.9734c0.59531 0.32338 1.1833 0.56224 1.7639 0.71658 0.58061 0.15434 1.1722 0.23151 1.7749 0.23151 1.3303 0 2.3261-0.3491 2.9876-1.0473 0.66145-0.69085 0.99218-1.7382 0.99219-3.1419v-1.0032c-0.41893 0.72761-0.95545 1.2715-1.6096 1.6316-0.65412 0.36013-1.4368 0.54019-2.3482 0.54019-1.514 0-2.734-0.57694-3.6601-1.7308-0.92605-1.1539-1.3891-2.6826-1.3891-4.5861 0-1.9109 0.46302-3.4432 1.3891-4.5971 0.92604-1.1539 2.1461-1.7308 3.6601-1.7308 0.91134 0.00001 1.6941 0.18008 2.3482 0.54019 0.6541 0.36014 1.1906 0.90401 1.6096 1.6316v-1.8741h2.0285v10.815"/>
  <path id="path3260" style="" d="m750.76 407.78h2.1497l3.8585 10.363 3.8585-10.363h2.1498l-4.6302 12.347h-2.7561l-4.6302-12.347"/>
  <path id="path3262" style="" d="m776.14 413.44v0.99219h-9.3266c0.0882 1.3964 0.50711 2.4621 1.2568 3.1971 0.757 0.7276 1.808 1.0914 3.153 1.0914 0.77905 0 1.5324-0.0955 2.26-0.28663 0.73494-0.19109 1.4626-0.47772 2.1828-0.8599v1.9182c-0.72761 0.30869-1.4736 0.54387-2.2379 0.70556-0.76436 0.16169-1.5397 0.24254-2.3261 0.24254-1.9697 0-3.5315-0.57327-4.6853-1.7198-1.1465-1.1465-1.7198-2.6973-1.7198-4.6523 0-2.0211 0.54386-3.6233 1.6316-4.8066 1.0951-1.1906 2.5687-1.7859 4.4208-1.7859 1.661 0.00001 2.9729 0.53653 3.9357 1.6096 0.97013 1.0657 1.4552 2.5172 1.4552 4.3546m-2.0285-0.59531c-0.0147-1.1098-0.32707-1.9954-0.93707-2.6569-0.60267-0.66145-1.4038-0.99218-2.4033-0.99219-1.1318 0.00001-2.0395 0.31972-2.723 0.95912-0.67616 0.63942-1.0657 1.5397-1.1686 2.701l7.232-0.011"/>
  <path id="path3264" style="" d="m789.73 412.67v7.4524h-2.0285v-7.3863c-0.00001-1.1686-0.22785-2.0432-0.68351-2.6238-0.45568-0.5806-1.1392-0.87091-2.0505-0.87092-1.0951 0.00001-1.9587 0.34911-2.5907 1.0473-0.63206 0.69822-0.94809 1.65-0.94809 2.8553v6.9784h-2.0395v-12.347h2.0395v1.9182c0.48507-0.7423 1.0547-1.2972 1.7088-1.6647 0.66145-0.36747 1.4221-0.55121 2.282-0.55122 1.4184 0.00001 2.4915 0.44098 3.2191 1.3229 0.72759 0.8746 1.0914 2.1644 1.0914 3.8695"/>
  <path id="path3266" style="" d="m798.94 421.27c-0.57327 1.4699-1.1318 2.429-1.6757 2.8774-0.54387 0.44831-1.2715 0.67248-2.1828 0.67248h-1.6206v-1.6977h1.1906c0.55856-0.00001 0.99218-0.1323 1.3009-0.39688 0.30867-0.26459 0.65043-0.8893 1.0253-1.8741l0.3638-0.92605-4.994-12.149h2.1497l3.8585 9.6573 3.8585-9.6573h2.1497l-5.424 13.494"/>
  <path id="path3268" style="" d="m814.32 409.67c-0.22784-0.13228-0.47773-0.22783-0.74965-0.28663-0.26459-0.0661-0.55858-0.0992-0.88195-0.0992-1.1465 0.00001-2.0285 0.37483-2.6458 1.1245-0.61002 0.74231-0.91503 1.8117-0.91502 3.2081v6.5044h-2.0395v-12.347h2.0395v1.9182c0.42627-0.74965 0.98116-1.3045 1.6647-1.6647 0.6835-0.36747 1.514-0.55121 2.4915-0.55122 0.13963 0.00001 0.29397 0.011 0.46302 0.0331 0.16903 0.0147 0.35644 0.0404 0.56224 0.0772l0.011 2.0836"/>
  <path id="path3270" style="" d="m822.08 413.92c-1.639 0.00001-2.7745 0.18742-3.4065 0.56224-0.63206 0.37483-0.94809 1.0142-0.94809 1.9182 0 0.72026 0.23518 1.2935 0.70556 1.7198 0.47771 0.41892 1.1245 0.62838 1.9403 0.62838 1.1245 0 2.0248-0.39687 2.701-1.1906 0.6835-0.8011 1.0253-1.8631 1.0253-3.186v-0.452h-2.0174m4.0459-0.83785v7.0445h-2.0285v-1.8741c-0.46303 0.74965-1.04 1.3045-1.7308 1.6647-0.69087 0.35278-1.5361 0.52917-2.5356 0.52917-1.2641 0-2.271-0.35278-3.0207-1.0583-0.7423-0.7129-1.1134-1.6647-1.1134-2.8553 0-1.3891 0.46302-2.4364 1.3891-3.1419 0.93339-0.70555 2.3224-1.0583 4.1672-1.0583h2.8443v-0.19844c-0.00001-0.93338-0.30869-1.6536-0.92605-2.1608-0.61002-0.51446-1.4699-0.7717-2.5797-0.77171-0.70556 0.00001-1.3927 0.0845-2.0615 0.25356-0.66882 0.16905-1.3119 0.42261-1.9293 0.76068v-1.8741c0.7423-0.28662 1.4626-0.49976 2.1608-0.63941 0.6982-0.14698 1.378-0.22048 2.0395-0.22049 1.7859 0.00001 3.1199 0.46303 4.0018 1.3891 0.88194 0.92606 1.3229 2.3298 1.3229 4.2113"/>
  <path id="path3272" style="" d="m830.31 407.78h2.0285v12.568c0 1.5728-0.30133 2.712-0.90399 3.4175-0.59532 0.70555-1.5581 1.0583-2.8884 1.0583h-0.7717v-1.7198h0.54019c0.7717-0.00001 1.2972-0.18007 1.5765-0.5402 0.27929-0.35278 0.41893-1.0914 0.41893-2.2159v-12.568m0-4.8066h2.0285v2.5687h-2.0285v-2.5687"/>
  <path id="path3274" style="" d="m835.69 407.78h9.6353v1.8521l-7.6288 8.8746h7.6288v1.6206h-9.9109v-1.8521l7.6288-8.8746h-7.3532v-1.6206"/>
  <path id="path3276" style="" d="m853.22 409.2c-1.0877 0.00001-1.9476 0.42629-2.5797 1.2788-0.63206 0.84521-0.94809 2.0064-0.94809 3.4837s0.31236 2.6422 0.93707 3.4947c0.63206 0.8452 1.4956 1.2678 2.5907 1.2678 1.0804 0 1.9366-0.42627 2.5687-1.2788 0.63205-0.85254 0.94808-2.0138 0.94809-3.4837-0.00001-1.4626-0.31604-2.6201-0.94809-3.4727-0.63207-0.85989-1.4883-1.2898-2.5687-1.2898m0-1.7198c1.7639 0.00001 3.1493 0.57328 4.1562 1.7198s1.5103 2.734 1.5103 4.7625c-0.00001 2.0211-0.50345 3.6086-1.5103 4.7625-1.0069 1.1465-2.3923 1.7198-4.1562 1.7198-1.7712 0-3.1603-0.57327-4.1672-1.7198-0.99954-1.1539-1.4993-2.7414-1.4993-4.7625-0.00001-2.0285 0.49976-3.616 1.4993-4.7625 1.0069-1.1465 2.396-1.7198 4.1672-1.7198"/>
  <path id="path3278" style="" d="m862.24 402.97h2.0285v17.154h-2.0285v-17.154"/>
  <path id="path3280" style="" d="m873.29 409.2c-1.0877 0.00001-1.9476 0.42629-2.5797 1.2788-0.63206 0.84521-0.94809 2.0064-0.94809 3.4837s0.31236 2.6422 0.93707 3.4947c0.63206 0.8452 1.4956 1.2678 2.5907 1.2678 1.0804 0 1.9366-0.42627 2.5687-1.2788 0.63205-0.85254 0.94808-2.0138 0.94809-3.4837-0.00001-1.4626-0.31604-2.6201-0.94809-3.4727-0.63207-0.85989-1.4883-1.2898-2.5687-1.2898m0-1.7198c1.7639 0.00001 3.1493 0.57328 4.1562 1.7198s1.5103 2.734 1.5103 4.7625c-0.00001 2.0211-0.50345 3.6086-1.5103 4.7625-1.0069 1.1465-2.3923 1.7198-4.1562 1.7198-1.7712 0-3.1603-0.57327-4.1672-1.7198-0.99954-1.1539-1.4993-2.7414-1.4993-4.7625-0.00001-2.0285 0.49976-3.616 1.4993-4.7625 1.0069-1.1465 2.396-1.7198 4.1672-1.7198"/>
  <path id="path3282" style="" d="m882.19 417.32h2.3261v2.8002h-2.3261v-2.8002"/>
  <path id="path3284" style="" d="m899.66 413.44v0.99219h-9.3266c0.0882 1.3964 0.50711 2.4621 1.2568 3.1971 0.757 0.7276 1.808 1.0914 3.153 1.0914 0.77904 0 1.5324-0.0955 2.26-0.28663 0.73494-0.19109 1.4626-0.47772 2.1828-0.8599v1.9182c-0.72762 0.30869-1.4736 0.54387-2.2379 0.70556-0.76436 0.16169-1.5397 0.24254-2.3261 0.24254-1.9697 0-3.5315-0.57327-4.6853-1.7198-1.1465-1.1465-1.7198-2.6973-1.7198-4.6523 0-2.0211 0.54386-3.6233 1.6316-4.8066 1.0951-1.1906 2.5687-1.7859 4.4208-1.7859 1.661 0.00001 2.9729 0.53653 3.9357 1.6096 0.97013 1.0657 1.4552 2.5172 1.4552 4.3546m-2.0285-0.59531c-0.0147-1.1098-0.32707-1.9954-0.93707-2.6569-0.60267-0.66145-1.4038-0.99218-2.4033-0.99219-1.1318 0.00001-2.0395 0.31972-2.723 0.95912-0.67616 0.63942-1.0657 1.5397-1.1686 2.701l7.232-0.011"/>
  <path id="path3286" style="" d="m912.85 407.78-4.4648 6.0082 4.6964 6.339h-2.3923l-3.5939-4.8507-3.5939 4.8507h-2.3923l4.7956-6.4602-4.3877-5.887h2.3923l3.2742 4.3987 3.2742-4.3987h2.3923"/>
  <path id="path3288" style="" d="m925.81 413.44v0.99219h-9.3266c0.0882 1.3964 0.50711 2.4621 1.2568 3.1971 0.757 0.7276 1.808 1.0914 3.153 1.0914 0.77905 0 1.5324-0.0955 2.26-0.28663 0.73494-0.19109 1.4626-0.47772 2.1828-0.8599v1.9182c-0.72761 0.30869-1.4736 0.54387-2.2379 0.70556-0.76436 0.16169-1.5397 0.24254-2.3261 0.24254-1.9697 0-3.5315-0.57327-4.6853-1.7198-1.1465-1.1465-1.7198-2.6973-1.7198-4.6523 0-2.0211 0.54386-3.6233 1.6316-4.8066 1.0951-1.1906 2.5687-1.7859 4.4208-1.7859 1.661 0.00001 2.9729 0.53653 3.9357 1.6096 0.97013 1.0657 1.4552 2.5172 1.4552 4.3546m-2.0285-0.59531c-0.0147-1.1098-0.32707-1.9954-0.93707-2.6569-0.60267-0.66145-1.4038-0.99218-2.4033-0.99219-1.1318 0.00001-2.0395 0.31972-2.723 0.95912-0.67616 0.63942-1.0657 1.5397-1.1686 2.701l7.232-0.011"/>
  <path id="path3290" style="" d="m763.04 431.21c-0.98484 1.6904-1.7161 3.3624-2.1938 5.0161-0.47772 1.6537-0.71658 3.3294-0.71658 5.0271 0 1.6978 0.23886 3.3808 0.71658 5.0491 0.48507 1.661 1.2164 3.333 2.1938 5.0161h-1.7639c-1.1024-1.7271-1.9293-3.4249-2.4805-5.0932-0.54387-1.6684-0.8158-3.3257-0.8158-4.972 0-1.6389 0.27193-3.2889 0.8158-4.9499 0.54386-1.661 1.3707-3.3587 2.4805-5.0932h1.7639"/>
  <path id="path3292" style="" d="m768.95 446.49v6.5484h-2.0395v-17.044h2.0395v1.8741c0.42627-0.73494 0.96279-1.2788 1.6096-1.6316 0.6541-0.36012 1.4332-0.54018 2.3372-0.5402 1.4993 0.00002 2.7156 0.59533 3.649 1.7859 0.94073 1.1906 1.4111 2.7561 1.4111 4.6964-0.00001 1.9403-0.47038 3.5057-1.4111 4.6964-0.9334 1.1906-2.1498 1.7859-3.649 1.7859-0.904 0-1.683-0.17639-2.3372-0.52917-0.64677-0.36012-1.1833-0.90766-1.6096-1.6426m6.9012-4.3105c-0.00001-1.492-0.30869-2.6605-0.92605-3.5057-0.61002-0.85254-1.4515-1.2788-2.5246-1.2788-1.073 0.00001-1.9182 0.42628-2.5356 1.2788-0.61001 0.84521-0.91502 2.0138-0.91502 3.5057 0 1.492 0.30501 2.6642 0.91502 3.5168 0.61736 0.8452 1.4626 1.2678 2.5356 1.2678s1.9145-0.4226 2.5246-1.2678c0.61736-0.85254 0.92604-2.0248 0.92605-3.5168"/>
  <path id="path3294" style="" d="m788.48 437.89c-0.22784-0.13228-0.47773-0.22782-0.74965-0.28663-0.26459-0.0661-0.55858-0.0992-0.88195-0.0992-1.1465 0.00001-2.0285 0.37484-2.6458 1.1245-0.61002 0.74232-0.91503 1.8117-0.91502 3.2081v6.5044h-2.0395v-12.347h2.0395v1.9182c0.42627-0.74964 0.98116-1.3045 1.6647-1.6647 0.6835-0.36746 1.514-0.5512 2.4915-0.55122 0.13964 0.00002 0.29398 0.011 0.46303 0.0331 0.16903 0.0147 0.35644 0.0404 0.56224 0.0772l0.011 2.0836"/>
  <path id="path3296" style="" d="m794.92 437.42c-1.0877 0.00001-1.9476 0.42628-2.5797 1.2788-0.63206 0.8452-0.94809 2.0064-0.94809 3.4837s0.31236 2.6422 0.93707 3.4947c0.63206 0.8452 1.4956 1.2678 2.5907 1.2678 1.0804 0 1.9366-0.42627 2.5687-1.2788 0.63205-0.85255 0.94808-2.0138 0.94809-3.4837-0.00001-1.4626-0.31604-2.6201-0.94809-3.4727-0.63207-0.85988-1.4883-1.2898-2.5687-1.2898m0-1.7198c1.7639 0.00002 3.1493 0.57328 4.1562 1.7198s1.5103 2.734 1.5103 4.7625c-0.00001 2.0211-0.50345 3.6086-1.5103 4.7625-1.0069 1.1465-2.3923 1.7198-4.1562 1.7198-1.7712 0-3.1603-0.57326-4.1672-1.7198-0.99954-1.1539-1.4993-2.7414-1.4993-4.7625-0.00001-2.0285 0.49976-3.616 1.4993-4.7625 1.0069-1.1465 2.396-1.7198 4.1672-1.7198"/>
  <path id="path3298" style="" d="m812.07 442.03c-0.00001-1.4699-0.30502-2.6091-0.91502-3.4175-0.60267-0.80844-1.4515-1.2127-2.5466-1.2127-1.0877 0.00001-1.9366 0.40423-2.5466 1.2127-0.60267 0.80846-0.904 1.9476-0.904 3.4175 0 1.4626 0.30133 2.5981 0.904 3.4065 0.61 0.80845 1.4589 1.2127 2.5466 1.2127 1.0951 0 1.944-0.40422 2.5466-1.2127 0.61-0.80845 0.91501-1.944 0.91502-3.4065m2.0285 4.7846c-0.00001 2.102-0.4667 3.6637-1.4001 4.6853-0.93341 1.0289-2.3629 1.5434-4.2885 1.5434-0.71292 0-1.3854-0.0551-2.0174-0.16536-0.63207-0.1029-1.2458-0.26459-1.8411-0.48507v-1.9734c0.5953 0.32337 1.1833 0.56223 1.7639 0.71658 0.5806 0.15434 1.1722 0.23151 1.7749 0.23151 1.3303 0 2.3261-0.34911 2.9876-1.0473 0.66145-0.69086 0.99218-1.7382 0.99219-3.1419v-1.0032c-0.41893 0.7276-0.95545 1.2715-1.6096 1.6316-0.65412 0.36013-1.4368 0.5402-2.3482 0.5402-1.514 0-2.734-0.57694-3.6601-1.7308-0.92605-1.1539-1.3891-2.6826-1.3891-4.5861 0-1.9109 0.46302-3.4432 1.3891-4.5971 0.92604-1.1539 2.1461-1.7308 3.6601-1.7308 0.91134 0.00002 1.6941 0.18008 2.3482 0.5402 0.6541 0.36014 1.1906 0.904 1.6096 1.6316v-1.8741h2.0285v10.815"/>
  <path id="path3300" style="" d="m825.43 437.89c-0.22784-0.13228-0.47773-0.22782-0.74965-0.28663-0.26459-0.0661-0.55858-0.0992-0.88195-0.0992-1.1465 0.00001-2.0285 0.37484-2.6458 1.1245-0.61002 0.74232-0.91503 1.8117-0.91502 3.2081v6.5044h-2.0395v-12.347h2.0395v1.9182c0.42627-0.74964 0.98116-1.3045 1.6647-1.6647 0.6835-0.36746 1.514-0.5512 2.4915-0.55122 0.13963 0.00002 0.29397 0.011 0.46302 0.0331 0.16903 0.0147 0.35644 0.0404 0.56224 0.0772l0.011 2.0836"/>
  <path id="path3302" style="" d="m833.19 442.14c-1.639 0-2.7745 0.18741-3.4065 0.56224-0.63206 0.37483-0.94809 1.0142-0.94809 1.9182 0 0.72026 0.23518 1.2935 0.70556 1.7198 0.47771 0.41893 1.1245 0.62839 1.9403 0.62839 1.1245 0 2.0248-0.39688 2.701-1.1906 0.6835-0.8011 1.0253-1.8631 1.0253-3.186v-0.45199h-2.0174m4.0459-0.83785v7.0445h-2.0285v-1.8741c-0.46303 0.74966-1.04 1.3046-1.7308 1.6647-0.69087 0.35278-1.5361 0.52917-2.5356 0.52917-1.2641 0-2.271-0.35278-3.0207-1.0583-0.7423-0.71291-1.1134-1.6647-1.1134-2.8553 0-1.3891 0.46302-2.4364 1.3891-3.1419 0.93339-0.70555 2.3224-1.0583 4.1672-1.0583h2.8443v-0.19843c-0.00001-0.93339-0.30869-1.6536-0.92605-2.1608-0.61002-0.51446-1.4699-0.77169-2.5797-0.7717-0.70556 0.00001-1.3927 0.0845-2.0615 0.25356-0.66882 0.16905-1.3119 0.42261-1.9293 0.76067v-1.8741c0.7423-0.28662 1.4626-0.49976 2.1608-0.63941 0.6982-0.14698 1.378-0.22047 2.0395-0.22049 1.7859 0.00002 3.1199 0.46304 4.0018 1.3891 0.88194 0.92605 1.3229 2.3298 1.3229 4.2113"/>
  <path id="path3304" style="" d="m851.04 438.37c0.5071-0.91133 1.1134-1.5838 1.819-2.0174 0.70554-0.43361 1.536-0.65042 2.4915-0.65044 1.2862 0.00002 2.2783 0.45201 2.9766 1.356 0.69819 0.89665 1.0473 2.1755 1.0473 3.8365v7.4524h-2.0395v-7.3863c-0.00002-1.1833-0.20948-2.0615-0.62839-2.6348-0.41894-0.57325-1.0584-0.85988-1.9182-0.85989-1.051 0.00001-1.8815 0.34911-2.4915 1.0473-0.61003 0.69821-0.91503 1.65-0.91502 2.8553v6.9784h-2.0395v-7.3863c-0.00001-1.1906-0.20947-2.0689-0.62839-2.6348-0.41893-0.57325-1.0657-0.85988-1.9403-0.85989-1.0363 0.00001-1.8594 0.35278-2.4694 1.0583-0.61002 0.69822-0.91502 1.6463-0.91502 2.8443v6.9784h-2.0395v-12.347h2.0395v1.9182c0.46302-0.75699 1.0179-1.3156 1.6647-1.6757 0.64676-0.36012 1.4148-0.54018 2.3041-0.5402 0.89664 0.00002 1.6573 0.22785 2.282 0.68351 0.63205 0.45569 1.0987 1.1171 1.4001 1.9844"/>
  <path id="path3306" style="" d="m863.11 431.21h1.7639c1.1024 1.7345 1.9256 3.4322 2.4694 5.0932 0.55121 1.661 0.82682 3.311 0.82683 4.9499-0.00001 1.6463-0.27562 3.3036-0.82683 4.972-0.54387 1.6683-1.367 3.3661-2.4694 5.0932h-1.7639c0.97748-1.683 1.7051-3.3551 2.1828-5.0161 0.48507-1.6684 0.7276-3.3514 0.72761-5.0491-0.00001-1.6977-0.24254-3.3734-0.72761-5.0271-0.47772-1.6536-1.2053-3.3256-2.1828-5.0161"/>
 </g>
 <g id="text164">
  <path id="path3309" style="" d="m514.5 269.67c-0.22785-0.13228-0.47773-0.22783-0.74966-0.28663-0.26459-0.0661-0.55857-0.0992-0.88194-0.0992-1.1465 0.00001-2.0285 0.37483-2.6458 1.1245-0.61002 0.74231-0.91502 1.8117-0.91502 3.2081v6.5044h-2.0395v-12.347h2.0395v1.9182c0.42627-0.74965 0.98116-1.3045 1.6647-1.6647 0.68351-0.36747 1.514-0.55121 2.4915-0.55122 0.13963 0.00001 0.29397 0.011 0.46302 0.0331 0.16903 0.0147 0.35645 0.0404 0.56224 0.0772l0.011 2.0836"/>
  <path id="path3311" style="" d="m522.26 273.92c-1.639 0.00001-2.7745 0.18742-3.4065 0.56224-0.63206 0.37483-0.94809 1.0142-0.94809 1.9182 0 0.72026 0.23518 1.2935 0.70556 1.7198 0.47771 0.41892 1.1245 0.62838 1.9403 0.62838 1.1245 0 2.0248-0.39687 2.701-1.1906 0.6835-0.8011 1.0253-1.8631 1.0253-3.186v-0.452h-2.0174m4.0459-0.83785v7.0445h-2.0285v-1.8741c-0.46304 0.74965-1.04 1.3045-1.7308 1.6647-0.69087 0.35278-1.5361 0.52917-2.5356 0.52917-1.2641 0-2.271-0.35278-3.0207-1.0583-0.7423-0.7129-1.1135-1.6647-1.1134-2.8553-0.00001-1.3891 0.46302-2.4364 1.3891-3.1419 0.93339-0.70555 2.3224-1.0583 4.1672-1.0583h2.8443v-0.19844c-0.00001-0.93338-0.30869-1.6536-0.92605-2.1608-0.61002-0.51446-1.4699-0.7717-2.5797-0.77171-0.70556 0.00001-1.3927 0.0845-2.0615 0.25356-0.66882 0.16905-1.3119 0.42261-1.9293 0.76068v-1.8741c0.7423-0.28662 1.4626-0.49976 2.1608-0.63941 0.6982-0.14698 1.378-0.22048 2.0395-0.22049 1.7859 0.00001 3.1199 0.46303 4.0018 1.3891 0.88194 0.92606 1.3229 2.3298 1.3229 4.2113"/>
  <path id="path3313" style="" d="m530.49 267.78h2.0285v12.568c0 1.5728-0.30133 2.712-0.90399 3.4175-0.59531 0.70555-1.5581 1.0583-2.8884 1.0583h-0.7717v-1.7198h0.54019c0.7717-0.00001 1.2972-0.18007 1.5765-0.5402 0.27928-0.35278 0.41892-1.0914 0.41892-2.2159v-12.568m0-4.8066h2.0285v2.5687h-2.0285v-2.5687"/>
  <path id="path3315" style="" d="m535.87 267.78h9.6352v1.8521l-7.6288 8.8746h7.6288v1.6206h-9.9109v-1.8521l7.6288-8.8746h-7.3532v-1.6206"/>
  <path id="path3317" style="" d="m553.4 269.2c-1.0877 0.00001-1.9476 0.42629-2.5797 1.2788-0.63207 0.84521-0.9481 2.0064-0.94809 3.4837-0.00001 1.4773 0.31235 2.6422 0.93706 3.4947 0.63206 0.8452 1.4956 1.2678 2.5907 1.2678 1.0804 0 1.9366-0.42627 2.5687-1.2788 0.63205-0.85254 0.94808-2.0138 0.94809-3.4837-0.00001-1.4626-0.31604-2.6201-0.94809-3.4727-0.63207-0.85989-1.4883-1.2898-2.5687-1.2898m0-1.7198c1.7639 0.00001 3.1493 0.57328 4.1562 1.7198s1.5103 2.734 1.5103 4.7625c-0.00002 2.0211-0.50346 3.6086-1.5103 4.7625-1.0069 1.1465-2.3923 1.7198-4.1562 1.7198-1.7712 0-3.1603-0.57327-4.1672-1.7198-0.99954-1.1539-1.4993-2.7414-1.4993-4.7625 0-2.0285 0.49977-3.616 1.4993-4.7625 1.0069-1.1465 2.3959-1.7198 4.1672-1.7198"/>
  <path id="path3319" style="" d="m562.42 262.97h2.0285v17.154h-2.0285v-17.154"/>
  <path id="path3321" style="" d="m573.47 269.2c-1.0877 0.00001-1.9476 0.42629-2.5797 1.2788-0.63207 0.84521-0.9481 2.0064-0.94809 3.4837-0.00001 1.4773 0.31235 2.6422 0.93706 3.4947 0.63206 0.8452 1.4956 1.2678 2.5907 1.2678 1.0804 0 1.9366-0.42627 2.5687-1.2788 0.63205-0.85254 0.94808-2.0138 0.94809-3.4837-0.00001-1.4626-0.31604-2.6201-0.94809-3.4727-0.63207-0.85989-1.4883-1.2898-2.5687-1.2898m0-1.7198c1.7639 0.00001 3.1493 0.57328 4.1562 1.7198s1.5103 2.734 1.5103 4.7625c-0.00002 2.0211-0.50346 3.6086-1.5103 4.7625-1.0069 1.1465-2.3923 1.7198-4.1562 1.7198-1.7712 0-3.1603-0.57327-4.1672-1.7198-0.99954-1.1539-1.4993-2.7414-1.4993-4.7625 0-2.0285 0.49976-3.616 1.4993-4.7625 1.0069-1.1465 2.396-1.7198 4.1672-1.7198"/>
  <path id="path3323" style="" d="m582.37 277.32h2.3261v2.8002h-2.3261v-2.8002"/>
  <path id="path3325" style="" d="m594.06 269.2c-1.0877 0.00001-1.9476 0.42629-2.5797 1.2788-0.63206 0.84521-0.94809 2.0064-0.94809 3.4837s0.31235 2.6422 0.93707 3.4947c0.63205 0.8452 1.4956 1.2678 2.5907 1.2678 1.0804 0 1.9366-0.42627 2.5687-1.2788 0.63205-0.85254 0.94808-2.0138 0.94809-3.4837-0.00001-1.4626-0.31604-2.6201-0.94809-3.4727-0.63207-0.85989-1.4883-1.2898-2.5687-1.2898m0-1.7198c1.7639 0.00001 3.1493 0.57328 4.1562 1.7198s1.5103 2.734 1.5103 4.7625c-0.00001 2.0211-0.50345 3.6086-1.5103 4.7625-1.0069 1.1465-2.3923 1.7198-4.1562 1.7198-1.7712 0-3.1603-0.57327-4.1672-1.7198-0.99954-1.1539-1.4993-2.7414-1.4993-4.7625 0-2.0285 0.49977-3.616 1.4993-4.7625 1.0069-1.1465 2.396-1.7198 4.1672-1.7198"/>
  <path id="path3327" style="" d="m501.39 291.21c-0.98484 1.6904-1.7161 3.3624-2.1938 5.0161-0.47772 1.6537-0.71658 3.3294-0.71658 5.0271 0 1.6978 0.23886 3.3808 0.71658 5.0491 0.48507 1.661 1.2164 3.333 2.1938 5.0161h-1.7639c-1.1024-1.7271-1.9293-3.4249-2.4805-5.0932-0.54387-1.6684-0.8158-3.3257-0.8158-4.972 0-1.6389 0.27193-3.2889 0.8158-4.9499 0.54386-1.661 1.3707-3.3587 2.4805-5.0932h1.7639"/>
  <path id="path3329" style="" d="m507.34 292.49v3.5057h4.1782v1.5765h-4.1782v6.7028c0 1.0069 0.13597 1.6536 0.4079 1.9403 0.27928 0.28664 0.84152 0.42995 1.6867 0.42995h2.0836v1.6978h-2.0836c-1.5654 0-2.6458-0.29031-3.2411-0.87093-0.59532-0.58796-0.89298-1.6536-0.89297-3.197v-6.7028h-1.4883v-1.5765h1.4883v-3.5057h2.0395"/>
  <path id="path3331" style="" d="m519.81 302.14c-1.639 0-2.7745 0.18741-3.4065 0.56224-0.63206 0.37483-0.94809 1.0142-0.94809 1.9182 0 0.72026 0.23518 1.2935 0.70556 1.7198 0.47771 0.41893 1.1245 0.62839 1.9403 0.62839 1.1245 0 2.0248-0.39688 2.701-1.1906 0.68349-0.8011 1.0252-1.8631 1.0253-3.186v-0.45199h-2.0174m4.0459-0.83785v7.0445h-2.0285v-1.8741c-0.46303 0.74966-1.04 1.3046-1.7308 1.6647-0.69086 0.35278-1.5361 0.52917-2.5356 0.52917-1.2641 0-2.271-0.35278-3.0207-1.0583-0.7423-0.71291-1.1134-1.6647-1.1134-2.8553 0-1.3891 0.46302-2.4364 1.3891-3.1419 0.93339-0.70555 2.3224-1.0583 4.1672-1.0583h2.8443v-0.19843c-0.00001-0.93339-0.30869-1.6536-0.92605-2.1608-0.61002-0.51446-1.4699-0.77169-2.5797-0.7717-0.70556 0.00001-1.3927 0.0845-2.0615 0.25356-0.66881 0.16905-1.3119 0.42261-1.9293 0.76067v-1.8741c0.7423-0.28662 1.4626-0.49976 2.1608-0.63941 0.6982-0.14698 1.378-0.22047 2.0395-0.22049 1.7859 0.00002 3.1199 0.46304 4.0018 1.3891 0.88194 0.92605 1.3229 2.3298 1.3229 4.2113m-3.7042-11.013h2.1938l-3.5939 4.1452h-1.6867l3.0868-4.1452"/>
  <path id="path3333" style="" d="m535.2 297.89c-0.22784-0.13228-0.47773-0.22782-0.74965-0.28663-0.26459-0.0661-0.55857-0.0992-0.88195-0.0992-1.1465 0.00001-2.0285 0.37484-2.6458 1.1245-0.61002 0.74232-0.91503 1.8117-0.91502 3.2081v6.5044h-2.0395v-12.347h2.0395v1.9182c0.42627-0.74964 0.98116-1.3045 1.6647-1.6647 0.6835-0.36746 1.514-0.5512 2.4915-0.55122 0.13963 0.00002 0.29397 0.011 0.46302 0.0331 0.16903 0.0147 0.35644 0.0404 0.56224 0.0772l0.011 2.0836"/>
  <path id="path3335" style="" d="m545.08 302.03c-0.00001-1.4699-0.30501-2.6091-0.91502-3.4175-0.60267-0.80844-1.4515-1.2127-2.5466-1.2127-1.0877 0.00001-1.9366 0.40423-2.5466 1.2127-0.60267 0.80846-0.904 1.9476-0.90399 3.4175-0.00001 1.4626 0.30132 2.5981 0.90399 3.4065 0.61001 0.80845 1.4589 1.2127 2.5466 1.2127 1.0951 0 1.9439-0.40422 2.5466-1.2127 0.61001-0.80845 0.91501-1.944 0.91502-3.4065m2.0285 4.7846c-0.00002 2.102-0.46671 3.6637-1.4001 4.6853-0.9334 1.0289-2.3629 1.5434-4.2885 1.5434-0.71291 0-1.3854-0.0551-2.0174-0.16536-0.63207-0.1029-1.2458-0.26459-1.8411-0.48507v-1.9734c0.59531 0.32337 1.1833 0.56223 1.7639 0.71658 0.58061 0.15434 1.1722 0.23151 1.7749 0.23151 1.3303 0 2.3261-0.34911 2.9876-1.0473 0.66145-0.69086 0.99218-1.7382 0.99219-3.1419v-1.0032c-0.41893 0.7276-0.95545 1.2715-1.6096 1.6316-0.65412 0.36013-1.4368 0.5402-2.3482 0.5402-1.514 0-2.734-0.57694-3.6601-1.7308-0.92605-1.1539-1.3891-2.6826-1.3891-4.5861-0.00001-1.9109 0.46301-3.4432 1.3891-4.5971 0.92604-1.1539 2.1461-1.7308 3.6601-1.7308 0.91134 0.00002 1.6941 0.18008 2.3482 0.5402 0.6541 0.36014 1.1906 0.904 1.6096 1.6316v-1.8741h2.0285v10.815"/>
  <path id="path3337" style="" d="m556.42 309.49c-0.57327 1.4699-1.1318 2.429-1.6757 2.8774-0.54387 0.44832-1.2715 0.67248-2.1828 0.67248h-1.6206v-1.6977h1.1906c0.55857 0 0.99219-0.13229 1.3009-0.39688 0.30868-0.26458 0.65043-0.88929 1.0253-1.8741l0.3638-0.92604-4.994-12.149h2.1497l3.8585 9.6573 3.8585-9.6573h2.1497l-5.424 13.494"/>
  <path id="path3339" style="" d="m564.57 291.19h2.0395v10.131l6.0524-5.3248h2.5907l-6.5484 5.7767 6.8241 6.5705h-2.6458l-6.2728-6.0303v6.0303h-2.0395v-17.154"/>
  <path id="path3341" style="" d="m581.73 297.42c-1.0877 0.00001-1.9476 0.42628-2.5797 1.2788-0.63207 0.8452-0.9481 2.0064-0.94809 3.4837-0.00001 1.4773 0.31235 2.6422 0.93706 3.4947 0.63206 0.8452 1.4956 1.2678 2.5907 1.2678 1.0804 0 1.9366-0.42627 2.5687-1.2788 0.63205-0.85255 0.94808-2.0138 0.94809-3.4837-0.00001-1.4626-0.31604-2.6201-0.94809-3.4727-0.63207-0.85988-1.4883-1.2898-2.5687-1.2898m0-1.7198c1.7639 0.00002 3.1493 0.57328 4.1562 1.7198s1.5103 2.734 1.5103 4.7625c-0.00002 2.0211-0.50346 3.6086-1.5103 4.7625-1.0069 1.1465-2.3923 1.7198-4.1562 1.7198-1.7712 0-3.1603-0.57326-4.1672-1.7198-0.99954-1.1539-1.4993-2.7414-1.4993-4.7625 0-2.0285 0.49977-3.616 1.4993-4.7625 1.0069-1.1465 2.3959-1.7198 4.1672-1.7198m1.5324-5.4129h2.1938l-3.5939 4.1452h-1.6867l3.0868-4.1452"/>
  <path id="path3343" style="" d="m598.88 297.87v-6.6807h2.0285v17.154h-2.0285v-1.8521c-0.42628 0.73496-0.96647 1.2825-1.6206 1.6426-0.64677 0.35278-1.4258 0.52917-2.3372 0.52917-1.492 0-2.7083-0.59531-3.649-1.7859-0.93339-1.1906-1.4001-2.7561-1.4001-4.6964s0.4667-3.5057 1.4001-4.6964c0.94074-1.1906 2.1571-1.7859 3.649-1.7859 0.91134 0.00002 1.6904 0.18008 2.3372 0.5402 0.6541 0.35279 1.1943 0.89665 1.6206 1.6316m-6.9122 4.3105c0 1.492 0.30501 2.6642 0.91502 3.5168 0.61736 0.8452 1.4626 1.2678 2.5356 1.2678s1.9182-0.4226 2.5356-1.2678c0.61735-0.85254 0.92603-2.0248 0.92604-3.5168-0.00001-1.492-0.30869-2.6605-0.92604-3.5057-0.61737-0.85254-1.4626-1.2788-2.5356-1.2788-1.073 0.00001-1.9182 0.42628-2.5356 1.2788-0.61001 0.84521-0.91502 2.0138-0.91502 3.5057"/>
  <path id="path3345" style="" d="m604.76 291.21h1.7639c1.1024 1.7345 1.9256 3.4322 2.4694 5.0932 0.55121 1.661 0.82682 3.311 0.82683 4.9499-0.00001 1.6463-0.27562 3.3036-0.82683 4.972-0.54387 1.6683-1.367 3.3661-2.4694 5.0932h-1.7639c0.97749-1.683 1.7051-3.3551 2.1828-5.0161 0.48507-1.6684 0.7276-3.3514 0.7276-5.0491s-0.24253-3.3734-0.7276-5.0271c-0.47772-1.6536-1.2053-3.3256-2.1828-5.0161"/>
 </g>
 <g id="text170">
  <path id="path3348" style="" d="m536.28 183.42c-0.65 0.00001-1.1396 0.32084-1.4688 0.9625-0.325 0.63751-0.4875 1.5979-0.4875 2.8812 0 1.2792 0.1625 2.2396 0.4875 2.8812 0.32917 0.6375 0.81875 0.95625 1.4688 0.95625 0.65417 0 1.1438-0.31875 1.4688-0.95625 0.32917-0.64166 0.49375-1.6021 0.49375-2.8812 0-1.2833-0.16458-2.2437-0.49375-2.8812-0.325-0.64166-0.81458-0.96249-1.4688-0.9625m0-1c1.0458 0.00001 1.8438 0.41459 2.3938 1.2438 0.55416 0.82501 0.83125 2.025 0.83125 3.6 0 1.5708-0.27709 2.7708-0.83125 3.6-0.55 0.825-1.3479 1.2375-2.3938 1.2375-1.0458 0-1.8458-0.4125-2.4-1.2375-0.55-0.82916-0.825-2.0292-0.825-3.6 0-1.575 0.275-2.775 0.825-3.6 0.55417-0.82916 1.3542-1.2437 2.4-1.2438"/>
  <path id="path3350" style="" d="m541.94 190.86h2.0625v-7.1188l-2.2438 0.45v-1.15l2.2312-0.45h1.2625v8.2688h2.0625v1.0625h-5.375v-1.0625"/>
  <path id="path3352" style="" d="m552.58 183.42c-0.65001 0.00001-1.1396 0.32084-1.4688 0.9625-0.32501 0.63751-0.48751 1.5979-0.4875 2.8812-0.00001 1.2792 0.16249 2.2396 0.4875 2.8812 0.32916 0.6375 0.81874 0.95625 1.4688 0.95625 0.65416 0 1.1437-0.31875 1.4688-0.95625 0.32916-0.64166 0.49374-1.6021 0.49375-2.8812-0.00001-1.2833-0.16459-2.2437-0.49375-2.8812-0.32501-0.64166-0.81459-0.96249-1.4688-0.9625m0-1c1.0458 0.00001 1.8437 0.41459 2.3938 1.2438 0.55416 0.82501 0.83124 2.025 0.83125 3.6-0.00001 1.5708-0.27709 2.7708-0.83125 3.6-0.55001 0.825-1.3479 1.2375-2.3938 1.2375-1.0458 0-1.8458-0.4125-2.4-1.2375-0.55001-0.82916-0.825-2.0292-0.825-3.6 0-1.575 0.27499-2.775 0.825-3.6 0.55416-0.82916 1.3542-1.2437 2.4-1.2438"/>
  <path id="path3354" style="" d="m558.24 190.86h2.0625v-7.1188l-2.2438 0.45v-1.15l2.2312-0.45h1.2625v8.2688h2.0625v1.0625h-5.375v-1.0625"/>
  <path id="path3356" style="" d="m568.88 183.42c-0.65001 0.00001-1.1396 0.32084-1.4688 0.9625-0.32501 0.63751-0.48751 1.5979-0.4875 2.8812-0.00001 1.2792 0.16249 2.2396 0.4875 2.8812 0.32916 0.6375 0.81874 0.95625 1.4688 0.95625 0.65416 0 1.1437-0.31875 1.4688-0.95625 0.32916-0.64166 0.49374-1.6021 0.49375-2.8812-0.00001-1.2833-0.16459-2.2437-0.49375-2.8812-0.32501-0.64166-0.81459-0.96249-1.4688-0.9625m0-1c1.0458 0.00001 1.8437 0.41459 2.3938 1.2438 0.55416 0.82501 0.83124 2.025 0.83125 3.6-0.00001 1.5708-0.27709 2.7708-0.83125 3.6-0.55001 0.825-1.3479 1.2375-2.3938 1.2375-1.0458 0-1.8458-0.4125-2.4-1.2375-0.55-0.82916-0.825-2.0292-0.825-3.6 0-1.575 0.275-2.775 0.825-3.6 0.55416-0.82916 1.3542-1.2437 2.4-1.2438"/>
  <path id="path3358" style="" d="m536.28 199.42c-0.65 0.00001-1.1396 0.32084-1.4688 0.9625-0.325 0.63751-0.4875 1.5979-0.4875 2.8812 0 1.2792 0.1625 2.2396 0.4875 2.8812 0.32917 0.6375 0.81875 0.95625 1.4688 0.95625 0.65417 0 1.1438-0.31875 1.4688-0.95625 0.32917-0.64166 0.49375-1.6021 0.49375-2.8812 0-1.2833-0.16458-2.2437-0.49375-2.8812-0.325-0.64166-0.81458-0.96249-1.4688-0.9625m0-1c1.0458 0.00001 1.8438 0.41459 2.3938 1.2438 0.55416 0.82501 0.83125 2.025 0.83125 3.6 0 1.5708-0.27709 2.7708-0.83125 3.6-0.55 0.825-1.3479 1.2375-2.3938 1.2375-1.0458 0-1.8458-0.4125-2.4-1.2375-0.55-0.82916-0.825-2.0292-0.825-3.6 0-1.575 0.275-2.775 0.825-3.6 0.55417-0.82916 1.3542-1.2437 2.4-1.2438"/>
  <path id="path3360" style="" d="m541.94 206.86h2.0625v-7.1188l-2.2438 0.45v-1.15l2.2312-0.45h1.2625v8.2688h2.0625v1.0625h-5.375v-1.0625"/>
  <path id="path3362" style="" d="m550.09 206.86h2.0625v-7.1188l-2.2438 0.45v-1.15l2.2312-0.45h1.2625v8.2688h2.0625v1.0625h-5.375v-1.0625"/>
  <path id="path3364" style="" d="m560.73 199.42c-0.65001 0.00001-1.1396 0.32084-1.4688 0.9625-0.32501 0.63751-0.48751 1.5979-0.4875 2.8812-0.00001 1.2792 0.16249 2.2396 0.4875 2.8812 0.32916 0.6375 0.81874 0.95625 1.4688 0.95625 0.65416 0 1.1437-0.31875 1.4688-0.95625 0.32916-0.64166 0.49374-1.6021 0.49375-2.8812-0.00001-1.2833-0.16459-2.2437-0.49375-2.8812-0.32501-0.64166-0.81459-0.96249-1.4688-0.9625m0-1c1.0458 0.00001 1.8437 0.41459 2.3938 1.2438 0.55416 0.82501 0.83124 2.025 0.83125 3.6-0.00001 1.5708-0.27709 2.7708-0.83125 3.6-0.55001 0.825-1.3479 1.2375-2.3938 1.2375-1.0458 0-1.8458-0.4125-2.4-1.2375-0.55001-0.82916-0.82501-2.0292-0.825-3.6-0.00001-1.575 0.27499-2.775 0.825-3.6 0.55416-0.82916 1.3542-1.2437 2.4-1.2438"/>
  <path id="path3366" style="" d="m566.39 206.86h2.0625v-7.1188l-2.2438 0.45v-1.15l2.2312-0.45h1.2625v8.2688h2.0625v1.0625h-5.375v-1.0625"/>
  <path id="path3368" style="" d="m533.79 222.86h2.0625v-7.1188l-2.2438 0.45v-1.15l2.2312-0.45h1.2625v8.2688h2.0625v1.0625h-5.375v-1.0625"/>
  <path id="path3370" style="" d="m544.43 215.42c-0.65001 0.00001-1.1396 0.32084-1.4688 0.9625-0.32501 0.63751-0.48751 1.5979-0.4875 2.8812-0.00001 1.2792 0.16249 2.2396 0.4875 2.8812 0.32916 0.6375 0.81874 0.95625 1.4688 0.95625 0.65416 0 1.1437-0.31875 1.4688-0.95625 0.32916-0.64166 0.49374-1.6021 0.49375-2.8812-0.00001-1.2833-0.16459-2.2437-0.49375-2.8812-0.32501-0.64166-0.81459-0.96249-1.4688-0.9625m0-1c1.0458 0.00001 1.8437 0.41459 2.3938 1.2438 0.55416 0.82501 0.83124 2.025 0.83125 3.6-0.00001 1.5708-0.27709 2.7708-0.83125 3.6-0.55001 0.825-1.3479 1.2375-2.3938 1.2375-1.0458 0-1.8458-0.4125-2.4-1.2375-0.55001-0.82916-0.82501-2.0292-0.825-3.6-0.00001-1.575 0.27499-2.775 0.825-3.6 0.55416-0.82916 1.3542-1.2437 2.4-1.2438"/>
  <path id="path3372" style="" d="m550.09 222.86h2.0625v-7.1188l-2.2438 0.45v-1.15l2.2312-0.45h1.2625v8.2688h2.0625v1.0625h-5.375v-1.0625"/>
  <path id="path3374" style="" d="m560.73 215.42c-0.65001 0.00001-1.1396 0.32084-1.4688 0.9625-0.32501 0.63751-0.48751 1.5979-0.4875 2.8812-0.00001 1.2792 0.16249 2.2396 0.4875 2.8812 0.32916 0.6375 0.81874 0.95625 1.4688 0.95625 0.65416 0 1.1437-0.31875 1.4688-0.95625 0.32916-0.64166 0.49374-1.6021 0.49375-2.8812-0.00001-1.2833-0.16459-2.2437-0.49375-2.8812-0.32501-0.64166-0.81459-0.96249-1.4688-0.9625m0-1c1.0458 0.00001 1.8437 0.41459 2.3938 1.2438 0.55416 0.82501 0.83124 2.025 0.83125 3.6-0.00001 1.5708-0.27709 2.7708-0.83125 3.6-0.55001 0.825-1.3479 1.2375-2.3938 1.2375-1.0458 0-1.8458-0.4125-2.4-1.2375-0.55001-0.82916-0.82501-2.0292-0.825-3.6-0.00001-1.575 0.27499-2.775 0.825-3.6 0.55416-0.82916 1.3542-1.2437 2.4-1.2438"/>
  <path id="path3376" style="" d="m566.39 222.86h2.0625v-7.1188l-2.2438 0.45v-1.15l2.2312-0.45h1.2625v8.2688h2.0625v1.0625h-5.375v-1.0625"/>
 </g>
 <g id="text178">
  <path id="path3379" style="" d="m536.28 463.42c-0.65 0-1.1396 0.32084-1.4688 0.9625-0.325 0.6375-0.4875 1.5979-0.4875 2.8812 0 1.2792 0.1625 2.2396 0.4875 2.8812 0.32917 0.6375 0.81875 0.95625 1.4688 0.95625 0.65417 0 1.1438-0.31875 1.4688-0.95625 0.32917-0.64167 0.49375-1.6021 0.49375-2.8812 0-1.2833-0.16458-2.2438-0.49375-2.8812-0.325-0.64166-0.81458-0.9625-1.4688-0.9625m0-1c1.0458 0.00001 1.8438 0.41459 2.3938 1.2438 0.55416 0.825 0.83125 2.025 0.83125 3.6 0 1.5708-0.27709 2.7708-0.83125 3.6-0.55 0.825-1.3479 1.2375-2.3938 1.2375-1.0458 0-1.8458-0.4125-2.4-1.2375-0.55-0.82917-0.825-2.0292-0.825-3.6 0-1.575 0.275-2.775 0.825-3.6 0.55417-0.82916 1.3542-1.2437 2.4-1.2438"/>
  <path id="path3381" style="" d="m541.94 470.86h2.0625v-7.1188l-2.2438 0.45v-1.15l2.2312-0.45h1.2625v8.2688h2.0625v1.0625h-5.375v-1.0625"/>
  <path id="path3383" style="" d="m552.58 463.42c-0.65001 0-1.1396 0.32084-1.4688 0.9625-0.32501 0.6375-0.48751 1.5979-0.4875 2.8812-0.00001 1.2792 0.16249 2.2396 0.4875 2.8812 0.32916 0.6375 0.81874 0.95625 1.4688 0.95625 0.65416 0 1.1437-0.31875 1.4688-0.95625 0.32916-0.64167 0.49374-1.6021 0.49375-2.8812-0.00001-1.2833-0.16459-2.2438-0.49375-2.8812-0.32501-0.64166-0.81459-0.9625-1.4688-0.9625m0-1c1.0458 0.00001 1.8437 0.41459 2.3938 1.2438 0.55416 0.825 0.83124 2.025 0.83125 3.6-0.00001 1.5708-0.27709 2.7708-0.83125 3.6-0.55001 0.825-1.3479 1.2375-2.3938 1.2375-1.0458 0-1.8458-0.4125-2.4-1.2375-0.55001-0.82917-0.825-2.0292-0.825-3.6 0-1.575 0.27499-2.775 0.825-3.6 0.55416-0.82916 1.3542-1.2437 2.4-1.2438"/>
  <path id="path3385" style="" d="m558.24 470.86h2.0625v-7.1188l-2.2438 0.45v-1.15l2.2312-0.45h1.2625v8.2688h2.0625v1.0625h-5.375v-1.0625"/>
  <path id="path3387" style="" d="m568.88 463.42c-0.65001 0-1.1396 0.32084-1.4688 0.9625-0.32501 0.6375-0.48751 1.5979-0.4875 2.8812-0.00001 1.2792 0.16249 2.2396 0.4875 2.8812 0.32916 0.6375 0.81874 0.95625 1.4688 0.95625 0.65416 0 1.1437-0.31875 1.4688-0.95625 0.32916-0.64167 0.49374-1.6021 0.49375-2.8812-0.00001-1.2833-0.16459-2.2438-0.49375-2.8812-0.32501-0.64166-0.81459-0.9625-1.4688-0.9625m0-1c1.0458 0.00001 1.8437 0.41459 2.3938 1.2438 0.55416 0.825 0.83124 2.025 0.83125 3.6-0.00001 1.5708-0.27709 2.7708-0.83125 3.6-0.55001 0.825-1.3479 1.2375-2.3938 1.2375-1.0458 0-1.8458-0.4125-2.4-1.2375-0.55-0.82917-0.825-2.0292-0.825-3.6 0-1.575 0.275-2.775 0.825-3.6 0.55416-0.82916 1.3542-1.2437 2.4-1.2438"/>
  <path id="path3389" style="" d="m536.28 479.42c-0.65 0-1.1396 0.32084-1.4688 0.9625-0.325 0.6375-0.4875 1.5979-0.4875 2.8812 0 1.2792 0.1625 2.2396 0.4875 2.8812 0.32917 0.6375 0.81875 0.95625 1.4688 0.95625 0.65417 0 1.1438-0.31875 1.4688-0.95625 0.32917-0.64167 0.49375-1.6021 0.49375-2.8812 0-1.2833-0.16458-2.2438-0.49375-2.8812-0.325-0.64166-0.81458-0.9625-1.4688-0.9625m0-1c1.0458 0.00001 1.8438 0.41459 2.3938 1.2438 0.55416 0.825 0.83125 2.025 0.83125 3.6 0 1.5708-0.27709 2.7708-0.83125 3.6-0.55 0.825-1.3479 1.2375-2.3938 1.2375-1.0458 0-1.8458-0.4125-2.4-1.2375-0.55-0.82917-0.825-2.0292-0.825-3.6 0-1.575 0.275-2.775 0.825-3.6 0.55417-0.82916 1.3542-1.2437 2.4-1.2438"/>
  <path id="path3391" style="" d="m541.94 486.86h2.0625v-7.1188l-2.2438 0.45v-1.15l2.2312-0.45h1.2625v8.2688h2.0625v1.0625h-5.375v-1.0625"/>
  <path id="path3393" style="" d="m550.09 486.86h2.0625v-7.1188l-2.2438 0.45v-1.15l2.2312-0.45h1.2625v8.2688h2.0625v1.0625h-5.375v-1.0625"/>
  <path id="path3395" style="" d="m560.73 479.42c-0.65001 0-1.1396 0.32084-1.4688 0.9625-0.32501 0.6375-0.48751 1.5979-0.4875 2.8812-0.00001 1.2792 0.16249 2.2396 0.4875 2.8812 0.32916 0.6375 0.81874 0.95625 1.4688 0.95625 0.65416 0 1.1437-0.31875 1.4688-0.95625 0.32916-0.64167 0.49374-1.6021 0.49375-2.8812-0.00001-1.2833-0.16459-2.2438-0.49375-2.8812-0.32501-0.64166-0.81459-0.9625-1.4688-0.9625m0-1c1.0458 0.00001 1.8437 0.41459 2.3938 1.2438 0.55416 0.825 0.83124 2.025 0.83125 3.6-0.00001 1.5708-0.27709 2.7708-0.83125 3.6-0.55001 0.825-1.3479 1.2375-2.3938 1.2375-1.0458 0-1.8458-0.4125-2.4-1.2375-0.55001-0.82917-0.82501-2.0292-0.825-3.6-0.00001-1.575 0.27499-2.775 0.825-3.6 0.55416-0.82916 1.3542-1.2437 2.4-1.2438"/>
  <path id="path3397" style="" d="m566.39 486.86h2.0625v-7.1188l-2.2438 0.45v-1.15l2.2312-0.45h1.2625v8.2688h2.0625v1.0625h-5.375v-1.0625"/>
  <path id="path3399" style="" d="m533.79 502.86h2.0625v-7.1188l-2.2438 0.45v-1.15l2.2312-0.45h1.2625v8.2688h2.0625v1.0625h-5.375v-1.0625"/>
  <path id="path3401" style="" d="m544.43 495.42c-0.65001 0-1.1396 0.32084-1.4688 0.9625-0.32501 0.6375-0.48751 1.5979-0.4875 2.8812-0.00001 1.2792 0.16249 2.2396 0.4875 2.8812 0.32916 0.6375 0.81874 0.95625 1.4688 0.95625 0.65416 0 1.1437-0.31875 1.4688-0.95625 0.32916-0.64167 0.49374-1.6021 0.49375-2.8812-0.00001-1.2833-0.16459-2.2438-0.49375-2.8812-0.32501-0.64166-0.81459-0.9625-1.4688-0.9625m0-1c1.0458 0.00001 1.8437 0.41459 2.3938 1.2438 0.55416 0.825 0.83124 2.025 0.83125 3.6-0.00001 1.5708-0.27709 2.7708-0.83125 3.6-0.55001 0.825-1.3479 1.2375-2.3938 1.2375-1.0458 0-1.8458-0.4125-2.4-1.2375-0.55001-0.82917-0.82501-2.0292-0.825-3.6-0.00001-1.575 0.27499-2.775 0.825-3.6 0.55416-0.82916 1.3542-1.2437 2.4-1.2438"/>
  <path id="path3403" style="" d="m550.09 502.86h2.0625v-7.1188l-2.2438 0.45v-1.15l2.2312-0.45h1.2625v8.2688h2.0625v1.0625h-5.375v-1.0625"/>
  <path id="path3405" style="" d="m560.73 495.42c-0.65001 0-1.1396 0.32084-1.4688 0.9625-0.32501 0.6375-0.48751 1.5979-0.4875 2.8812-0.00001 1.2792 0.16249 2.2396 0.4875 2.8812 0.32916 0.6375 0.81874 0.95625 1.4688 0.95625 0.65416 0 1.1437-0.31875 1.4688-0.95625 0.32916-0.64167 0.49374-1.6021 0.49375-2.8812-0.00001-1.2833-0.16459-2.2438-0.49375-2.8812-0.32501-0.64166-0.81459-0.9625-1.4688-0.9625m0-1c1.0458 0.00001 1.8437 0.41459 2.3938 1.2438 0.55416 0.825 0.83124 2.025 0.83125 3.6-0.00001 1.5708-0.27709 2.7708-0.83125 3.6-0.55001 0.825-1.3479 1.2375-2.3938 1.2375-1.0458 0-1.8458-0.4125-2.4-1.2375-0.55001-0.82917-0.82501-2.0292-0.825-3.6-0.00001-1.575 0.27499-2.775 0.825-3.6 0.55416-0.82916 1.3542-1.2437 2.4-1.2438"/>
  <path id="path3407" style="" d="m566.39 502.86h2.0625v-7.1188l-2.2438 0.45v-1.15l2.2312-0.45h1.2625v8.2688h2.0625v1.0625h-5.375v-1.0625"/>
 </g>
 <g id="text186">
  <path id="path3410" style="" d="m263.31 490.11h1.15v7h-1.15v-7m0-2.725h1.15v1.4562h-1.15v-1.4562"/>
  <path id="path3412" style="" d="m272.68 492.89v4.225h-1.15v-4.1875c0-0.66249-0.12917-1.1583-0.3875-1.4875-0.25834-0.32916-0.64584-0.49374-1.1625-0.49375-0.62084 0.00001-1.1104 0.19792-1.4688 0.59375-0.35833 0.39584-0.5375 0.93542-0.5375 1.6188v3.9562h-1.1562v-7h1.1562v1.0875c0.275-0.42083 0.59792-0.73541 0.96875-0.94375 0.375-0.20833 0.80625-0.31249 1.2938-0.3125 0.80416 0.00001 1.4125 0.25001 1.825 0.75 0.41249 0.49584 0.61874 1.2271 0.61875 2.1938"/>
  <path id="path3414" style="" d="m276.12 488.12v1.9875h2.3688v0.89375h-2.3688v3.8c0 0.57084 0.0771 0.9375 0.23125 1.1 0.15833 0.1625 0.47708 0.24375 0.95625 0.24375h1.1812v0.9625h-1.1812c-0.8875 0-1.5-0.16458-1.8375-0.49375-0.3375-0.33333-0.50625-0.9375-0.50625-1.8125v-3.8h-0.84375v-0.89375h0.84375v-1.9875h1.1562"/>
  <path id="path3416" style="" d="m289.54 491.45c0.28749-0.51666 0.63124-0.89791 1.0312-1.1438 0.39999-0.24583 0.87083-0.36874 1.4125-0.36875 0.72916 0.00001 1.2917 0.25626 1.6875 0.76875 0.39582 0.50834 0.59374 1.2333 0.59375 2.175v4.225h-1.1562v-4.1875c-0.00001-0.67083-0.11876-1.1687-0.35625-1.4938-0.23751-0.32499-0.60001-0.48749-1.0875-0.4875-0.59584 0.00001-1.0667 0.19792-1.4125 0.59375-0.34584 0.39584-0.51876 0.93542-0.51875 1.6188v3.9562h-1.1562v-4.1875c0-0.67499-0.11875-1.1729-0.35625-1.4938-0.2375-0.32499-0.60417-0.48749-1.1-0.4875-0.5875 0.00001-1.0542 0.20001-1.4 0.6-0.34583 0.39584-0.51875 0.93334-0.51875 1.6125v3.9562h-1.1562v-7h1.1562v1.0875c0.2625-0.42916 0.57708-0.74583 0.94375-0.95 0.36666-0.20416 0.80208-0.30624 1.3062-0.30625 0.50833 0.00001 0.93958 0.12917 1.2938 0.3875 0.35833 0.25834 0.62291 0.63334 0.79375 1.125"/>
  <path id="path3418" style="" d="m299.74 493.59c-0.92917 0-1.5729 0.10625-1.9312 0.31875-0.35833 0.2125-0.5375 0.575-0.5375 1.0875 0 0.40834 0.13333 0.73334 0.4 0.975 0.27083 0.2375 0.6375 0.35625 1.1 0.35625 0.6375 0 1.1479-0.225 1.5312-0.675 0.3875-0.45416 0.58125-1.0562 0.58125-1.8062v-0.25625h-1.1438m2.2938-0.475v3.9938h-1.15v-1.0625c-0.2625 0.425-0.58959 0.73958-0.98125 0.94375-0.39167 0.2-0.87084 0.3-1.4375 0.3-0.71667 0-1.2875-0.2-1.7125-0.6-0.42083-0.40417-0.63125-0.94375-0.63125-1.6188 0-0.7875 0.2625-1.3812 0.7875-1.7812 0.52917-0.4 1.3167-0.6 2.3625-0.6h1.6125v-0.1125c0-0.52916-0.175-0.93749-0.525-1.225-0.34584-0.29166-0.83334-0.43749-1.4625-0.4375-0.4 0.00001-0.78958 0.0479-1.1688 0.14375-0.37917 0.0958-0.74375 0.23959-1.0938 0.43125v-1.0625c0.42083-0.16249 0.82917-0.28333 1.225-0.3625 0.39583-0.0833 0.78125-0.12499 1.1562-0.125 1.0125 0.00001 1.7688 0.26251 2.2688 0.7875 0.5 0.52501 0.74999 1.3208 0.75 2.3875"/>
  <path id="path3420" style="" d="m304.41 490.11h1.15v7h-1.15v-7m0-2.725h1.15v1.4562h-1.15v-1.4562"/>
  <path id="path3422" style="" d="m313.78 492.89v4.225h-1.15v-4.1875c0-0.66249-0.12917-1.1583-0.3875-1.4875-0.25834-0.32916-0.64584-0.49374-1.1625-0.49375-0.62083 0.00001-1.1104 0.19792-1.4688 0.59375-0.35833 0.39584-0.5375 0.93542-0.5375 1.6188v3.9562h-1.1562v-7h1.1562v1.0875c0.275-0.42083 0.59792-0.73541 0.96875-0.94375 0.375-0.20833 0.80625-0.31249 1.2938-0.3125 0.80416 0.00001 1.4125 0.25001 1.825 0.75 0.4125 0.49584 0.61875 1.2271 0.61875 2.1938"/>
  <path id="path3424" style="" d="m318.85 487.4c-0.55833 0.95834-0.97292 1.9063-1.2438 2.8438-0.27083 0.93751-0.40625 1.8875-0.40625 2.85s0.13542 1.9167 0.40625 2.8625c0.275 0.94167 0.68958 1.8896 1.2438 2.8438h-1c-0.625-0.97917-1.0938-1.9417-1.4062-2.8875-0.30833-0.94583-0.4625-1.8854-0.4625-2.8188 0-0.92916 0.15417-1.8646 0.4625-2.8062 0.30833-0.94166 0.77708-1.9042 1.4062-2.8875h1"/>
  <path id="path3426" style="" d="m320.91 487.4h1c0.625 0.98334 1.0917 1.9458 1.4 2.8875 0.3125 0.94167 0.46875 1.8771 0.46875 2.8062 0 0.93334-0.15625 1.8729-0.46875 2.8188-0.30833 0.94583-0.775 1.9083-1.4 2.8875h-1c0.55417-0.95417 0.96667-1.9021 1.2375-2.8438 0.275-0.94583 0.4125-1.9 0.4125-2.8625 0-0.96249-0.1375-1.9125-0.4125-2.85-0.27083-0.93749-0.68333-1.8854-1.2375-2.8438"/>
  <path id="path3428" style="" d="m268.65 514.3v0.9h-0.3875c-1.0375 0-1.7333-0.15417-2.0875-0.4625-0.35-0.30833-0.525-0.92292-0.525-1.8438v-1.4938c0-0.62916-0.1125-1.0646-0.3375-1.3062-0.225-0.24166-0.63333-0.3625-1.225-0.3625h-0.38125v-0.89375h0.38125c0.59583 0.00001 1.0042-0.11874 1.225-0.35625 0.225-0.24166 0.3375-0.67291 0.3375-1.2938v-1.5c0-0.92082 0.175-1.5333 0.525-1.8375 0.35416-0.30832 1.05-0.46249 2.0875-0.4625h0.3875v0.89375h-0.425c-0.5875 0.00001-0.97084 0.0917-1.15 0.275-0.17917 0.18334-0.26875 0.56876-0.26875 1.1562v1.55c0 0.65417-0.0958 1.1292-0.2875 1.425-0.1875 0.29584-0.51042 0.49584-0.96875 0.6 0.4625 0.1125 0.7875 0.31667 0.975 0.6125 0.1875 0.29584 0.28125 0.76875 0.28125 1.4188v1.55c0 0.5875 0.0896 0.97292 0.26875 1.1562 0.17916 0.18333 0.5625 0.275 1.15 0.275h0.425"/>
  <path id="path3430" style="" d="m263.47 527.52h1.3188v1.5875h-1.3188v-1.5875"/>
  <path id="path3432" style="" d="m267.55 527.52h1.3188v1.5875h-1.3188v-1.5875"/>
  <path id="path3434" style="" d="m271.62 527.52h1.3188v1.5875h-1.3188v-1.5875"/>
 </g>
</svg>
