<?xml version="1.0" encoding="UTF-8" standalone="no"?>
<!-- Created with Inkscape (http://www.inkscape.org/) -->
<svg id="svg2" xmlns:rdf="http://www.w3.org/1999/02/22-rdf-syntax-ns#" xmlns="http://www.w3.org/2000/svg" height="744.09" width="744.09" version="1.1" xmlns:cc="http://creativecommons.org/ns#" xmlns:dc="http://purl.org/dc/elements/1.1/" viewBox="299 59 402 402.00023">
 <metadata id="metadata76">
  <rdf:RDF>
   <cc:Work rdf:about="">
    <dc:format>image/svg+xml</dc:format>
    <dc:type rdf:resource="http://purl.org/dc/dcmitype/StillImage"/>
   </cc:Work>
  </rdf:RDF>
 </metadata>
 <g id="g4">
  <path id="rect6" fill="#d9d9cd" d="m300 60h400v333.33h-400z"/>
  <path id="rect8" d="m300 60h400v333.33h-400z" stroke="#000" stroke-width="2" fill="none"/>
  <path id="rect10" d="m300 60h400v333.33h-400z" stroke="#000" stroke-width=".2" fill="none"/>
  <path id="rect12" fill="#a1a1a1" d="m322.22 82.222h355.56v266.67h-355.56z"/>
  <path id="rect14" d="m322.22 82.222h355.56v266.67h-355.56z" stroke="#000" stroke-width="2" fill="none"/>
  <path id="rect16" d="m322.22 82.222h355.56v266.67h-355.56z" stroke="#000" stroke-width=".2" fill="none"/>
  <path id="polygon18" fill="#d9d9cd" d="m566.67 415.56h-133.33l-66.666-22.223h266.67z"/>
  <path id="polygon20" d="m566.67 415.56h-133.33l-66.666-22.223h266.67z" stroke="#000" stroke-width="2" fill="none"/>
  <path id="polygon22" d="m566.67 415.56h-133.33l-66.666-22.223h266.67z" stroke="#000" stroke-width=".2" fill="none"/>
  <path id="rect24" fill="#d9d9cd" d="m433.33 415.56h133.33v22.222h-133.33z"/>
  <path id="rect26" d="m433.33 415.56h133.33v22.222h-133.33z" stroke="#000" stroke-width="2" fill="none"/>
  <path id="rect28" d="m433.33 415.56h133.33v22.222h-133.33z" stroke="#000" stroke-width=".2" fill="none"/>
  <path id="rect30" fill="#d9d9cd" d="m366.67 437.78h266.67v22.222h-266.67z"/>
  <path id="rect32" d="m366.67 437.78h266.67v22.222h-266.67z" stroke="#000" stroke-width="2" fill="none"/>
  <path id="rect34" d="m366.67 437.78h266.67v22.222h-266.67z" stroke="#000" stroke-width=".2" fill="none"/>
 </g>
 <g id="g36" stroke="#000" stroke-width="2" fill="none">
  <path id="line38" d="m500 330v-215.53"/>
  <path id="polyline40" d="m505 122.24-5-10-5 10"/>
 </g>
 <g id="g42" stroke="#000" stroke-width="2" fill="none">
  <path id="line44" d="m360 220h295.53"/>
  <path id="polyline46" d="m647.76 225 10-5-10-5"/>
 </g>
 <g id="text48">
  <path id="path3036" style="" d="m519.39 175.14c0.40568-0.72907 0.89075-1.267 1.4552-1.614 0.56444-0.34689 1.2288-0.52034 1.9932-0.52035 1.0289 0.00001 1.8227 0.36161 2.3812 1.0848 0.55855 0.71733 0.83783 1.7404 0.83785 3.0692v5.9619h-1.6316v-5.909c-0.00001-0.94661-0.16758-1.6492-0.5027-2.1078-0.33516-0.4586-0.84668-0.68791-1.5346-0.68792-0.84079 0.00001-1.5052 0.27929-1.9932 0.83785-0.48802 0.55857-0.73202 1.32-0.73201 2.2842v5.5827h-1.6316v-5.909c0-0.95249-0.16757-1.6551-0.5027-2.1078-0.33515-0.4586-0.85256-0.68791-1.5522-0.68792-0.82904 0.00001-1.4876 0.28223-1.9756 0.84667-0.48801 0.55857-0.73201 1.317-0.73201 2.2754v5.5827h-1.6316v-9.8778h1.6316v1.5346c0.37041-0.60559 0.81432-1.0524 1.3317-1.3406 0.51741-0.2881 1.1318-0.43215 1.8433-0.43216 0.7173 0.00001 1.3258 0.18228 1.8256 0.54681 0.50564 0.36454 0.87899 0.89371 1.1201 1.5875"/>
  <path id="path3038" style="" d="m533.79 178.16c-1.3112 0.00001-2.2196 0.14994-2.7252 0.44979-0.50565 0.29987-0.75848 0.8114-0.75847 1.5346-0.00001 0.5762 0.18814 1.0348 0.56444 1.3758 0.38217 0.33514 0.89958 0.50271 1.5522 0.5027 0.89958 0.00001 1.6198-0.31749 2.1608-0.95249 0.5468-0.64088 0.8202-1.4905 0.82021-2.5488v-0.3616h-1.614m3.2367-0.67027v5.6356h-1.6228v-1.4993c-0.37042 0.59972-0.83197 1.0436-1.3846 1.3317-0.55269 0.28223-1.2288 0.42334-2.0285 0.42334-1.0113 0-1.8168-0.28222-2.4165-0.84667-0.59384-0.57032-0.89076-1.3317-0.89076-2.2842 0-1.1112 0.37042-1.9491 1.1112-2.5135 0.74671-0.56444 1.858-0.84666 3.3338-0.84667h2.2754v-0.15875c-0.00001-0.7467-0.24695-1.3229-0.74083-1.7286-0.48802-0.41157-1.1759-0.61736-2.0638-0.61736-0.56445 0-1.1142 0.0676-1.6492 0.20284-0.53504 0.13524-1.0495 0.33809-1.5434 0.60854v-1.4993c0.59384-0.2293 1.17-0.39981 1.7286-0.51153 0.55856-0.11758 1.1024-0.17638 1.6316-0.17639 1.4287 0.00001 2.4959 0.37043 3.2014 1.1112 0.70555 0.74084 1.0583 1.8638 1.0583 3.369"/>
  <path id="path3040" style="" d="m541.99 170.44v2.8046h3.3426v1.2612h-3.3426v5.3622c-0.00001 0.80551 0.10876 1.3229 0.32631 1.5522 0.22343 0.22931 0.67322 0.34396 1.3494 0.34396h1.6669v1.3582h-1.6669c-1.2524 0-2.1167-0.23224-2.5929-0.69673-0.47625-0.47037-0.71437-1.3229-0.71437-2.5576v-5.3622h-1.1906v-1.2612h1.1906v-2.8046h1.6316"/>
  <path id="path3042" style="" d="m555.92 177.78v0.79375h-7.4612c0.0706 1.1171 0.40569 1.9697 1.0054 2.5576 0.6056 0.58209 1.4464 0.87313 2.5224 0.87313 0.62324 0 1.2259-0.0764 1.808-0.22931 0.58795-0.15287 1.17-0.38217 1.7462-0.68792v1.5346c-0.58209 0.24694-1.1789 0.43509-1.7903 0.56444-0.61149 0.12935-1.2318 0.19403-1.8609 0.19403-1.5757 0-2.8252-0.45861-3.7483-1.3758-0.91722-0.91722-1.3758-2.1578-1.3758-3.7218 0-1.6169 0.43509-2.8986 1.3053-3.8453 0.87606-0.95249 2.0549-1.4287 3.5366-1.4288 1.3288 0.00001 2.3783 0.42923 3.1485 1.2876 0.77611 0.85255 1.1642 2.0138 1.1642 3.4837m-1.6228-0.47625c-0.0118-0.88782-0.26165-1.5963-0.74965-2.1255-0.48213-0.52915-1.123-0.79374-1.9226-0.79374-0.90547 0-1.6316 0.25577-2.1784 0.76729-0.54093 0.51153-0.85255 1.2318-0.93486 2.1608l5.7855-0.009"/>
  <path id="path3044" style="" d="m566.28 175.14c0.40568-0.72907 0.89075-1.267 1.4552-1.614 0.56444-0.34689 1.2288-0.52034 1.9932-0.52035 1.0289 0.00001 1.8227 0.36161 2.3812 1.0848 0.55855 0.71733 0.83783 1.7404 0.83785 3.0692v5.9619h-1.6316v-5.909c-0.00001-0.94661-0.16758-1.6492-0.5027-2.1078-0.33516-0.4586-0.84668-0.68791-1.5346-0.68792-0.84079 0.00001-1.5052 0.27929-1.9932 0.83785-0.48802 0.55857-0.73202 1.32-0.73201 2.2842v5.5827h-1.6316v-5.909c0-0.95249-0.16757-1.6551-0.5027-2.1078-0.33515-0.4586-0.85256-0.68791-1.5522-0.68792-0.82904 0.00001-1.4876 0.28223-1.9756 0.84667-0.48801 0.55857-0.73201 1.317-0.73201 2.2754v5.5827h-1.6316v-9.8778h1.6316v1.5346c0.37041-0.60559 0.81432-1.0524 1.3317-1.3406 0.51741-0.2881 1.1318-0.43215 1.8433-0.43216 0.7173 0.00001 1.3258 0.18228 1.8256 0.54681 0.50564 0.36454 0.87899 0.89371 1.1201 1.5875"/>
  <path id="path3046" style="" d="m580.68 178.16c-1.3112 0.00001-2.2196 0.14994-2.7252 0.44979-0.50565 0.29987-0.75848 0.8114-0.75847 1.5346-0.00001 0.5762 0.18814 1.0348 0.56444 1.3758 0.38217 0.33514 0.89958 0.50271 1.5522 0.5027 0.89958 0.00001 1.6198-0.31749 2.1608-0.95249 0.5468-0.64088 0.8202-1.4905 0.82021-2.5488v-0.3616h-1.614m3.2367-0.67027v5.6356h-1.6228v-1.4993c-0.37042 0.59972-0.83197 1.0436-1.3846 1.3317-0.55269 0.28223-1.2288 0.42334-2.0285 0.42334-1.0113 0-1.8168-0.28222-2.4165-0.84667-0.59384-0.57032-0.89076-1.3317-0.89076-2.2842 0-1.1112 0.37042-1.9491 1.1112-2.5135 0.74671-0.56444 1.858-0.84666 3.3338-0.84667h2.2754v-0.15875c-0.00001-0.7467-0.24695-1.3229-0.74083-1.7286-0.48802-0.41157-1.1759-0.61736-2.0638-0.61736-0.56445 0-1.1142 0.0676-1.6492 0.20284-0.53505 0.13524-1.0495 0.33809-1.5434 0.60854v-1.4993c0.59383-0.2293 1.17-0.39981 1.7286-0.51153 0.55856-0.11758 1.1024-0.17638 1.6316-0.17639 1.4287 0.00001 2.4959 0.37043 3.2014 1.1112 0.70555 0.74084 1.0583 1.8638 1.0583 3.369"/>
  <path id="path3048" style="" d="m588.87 170.44v2.8046h3.3426v1.2612h-3.3426v5.3622c0 0.80551 0.10877 1.3229 0.32632 1.5522 0.22342 0.22931 0.67321 0.34396 1.3494 0.34396h1.6669v1.3582h-1.6669c-1.2524 0-2.1167-0.23224-2.5929-0.69673-0.47625-0.47037-0.71438-1.3229-0.71438-2.5576v-5.3622h-1.1906v-1.2612h1.1906v-2.8046h1.6316"/>
  <path id="path3050" style="" d="m594.36 173.24h1.6228v9.8778h-1.6228v-9.8778m0-3.8453h1.6228v2.0549h-1.6228v-2.0549"/>
  <path id="path3052" style="" d="m599.31 169.4h1.6316v8.1051l4.8419-4.2598h2.0726l-5.2387 4.6214 5.4592 5.2564h-2.1167l-5.0183-4.8242v4.8242h-1.6316v-13.723"/>
  <path id="path3054" style="" d="m614.02 178.16c-1.3112 0.00001-2.2196 0.14994-2.7252 0.44979-0.50565 0.29987-0.75847 0.8114-0.75847 1.5346 0 0.5762 0.18815 1.0348 0.56445 1.3758 0.38217 0.33514 0.89958 0.50271 1.5522 0.5027 0.89957 0.00001 1.6198-0.31749 2.1608-0.95249 0.5468-0.64088 0.8202-1.4905 0.82021-2.5488v-0.3616h-1.614m3.2367-0.67027v5.6356h-1.6228v-1.4993c-0.37043 0.59972-0.83198 1.0436-1.3846 1.3317-0.5527 0.28223-1.2288 0.42334-2.0285 0.42334-1.0113 0-1.8168-0.28222-2.4165-0.84667-0.59384-0.57032-0.89076-1.3317-0.89076-2.2842 0-1.1112 0.37041-1.9491 1.1112-2.5135 0.74671-0.56444 1.858-0.84666 3.3337-0.84667h2.2754v-0.15875c-0.00001-0.7467-0.24696-1.3229-0.74084-1.7286-0.48801-0.41157-1.1759-0.61736-2.0637-0.61736-0.56445 0-1.1142 0.0676-1.6492 0.20284-0.53505 0.13524-1.0495 0.33809-1.5434 0.60854v-1.4993c0.59384-0.2293 1.17-0.39981 1.7286-0.51153 0.55856-0.11758 1.1024-0.17638 1.6316-0.17639 1.4287 0.00001 2.4959 0.37043 3.2014 1.1112 0.70555 0.74084 1.0583 1.8638 1.0583 3.369"/>
  <path id="path3056" style="" d="m620.6 173.24h1.6228v9.8778h-1.6228v-9.8778m0-3.8453h1.6228v2.0549h-1.6228v-2.0549"/>
  <path id="path3058" style="" d="m511.64 191.98h1.6316v8.1051l4.8419-4.2598h2.0726l-5.2388 4.6214 5.4592 5.2564h-2.1167l-5.0183-4.8242v4.8242h-1.6316v-13.723"/>
  <path id="path3060" style="" d="m525.36 196.96c-0.87019 0.00001-1.5581 0.34102-2.0637 1.023-0.50565 0.67617-0.75848 1.6052-0.75848 2.7869 0 1.1818 0.24989 2.1137 0.74966 2.7958 0.50564 0.67616 1.1965 1.0142 2.0726 1.0142 0.8643 0 1.5493-0.34102 2.0549-1.0231 0.50564-0.68203 0.75846-1.611 0.75847-2.7869-0.00001-1.17-0.25283-2.0961-0.75847-2.7781-0.50565-0.68791-1.1906-1.0319-2.0549-1.0319m0-1.3758c1.4111 0.00001 2.5194 0.45862 3.3249 1.3758 0.8055 0.91723 1.2082 2.1872 1.2083 3.81-0.00001 1.6169-0.40276 2.8869-1.2083 3.81-0.80552 0.91722-1.9138 1.3758-3.3249 1.3758-1.417 0-2.5282-0.45861-3.3337-1.3758-0.79963-0.9231-1.1994-2.1931-1.1994-3.81 0-1.6228 0.39982-2.8928 1.1994-3.81 0.8055-0.91721 1.9168-1.3758 3.3337-1.3758"/>
  <path id="path3062" style="" d="m536.41 196.96c-0.87018 0.00001-1.5581 0.34102-2.0637 1.023-0.50565 0.67617-0.75848 1.6052-0.75847 2.7869-0.00001 1.1818 0.24988 2.1137 0.74965 2.7958 0.50564 0.67616 1.1965 1.0142 2.0726 1.0142 0.8643 0 1.5493-0.34102 2.0549-1.0231 0.50564-0.68203 0.75846-1.611 0.75847-2.7869-0.00001-1.17-0.25283-2.0961-0.75847-2.7781-0.50565-0.68791-1.1906-1.0319-2.0549-1.0319m0-1.3758c1.4111 0.00001 2.5194 0.45862 3.3249 1.3758 0.8055 0.91723 1.2082 2.1872 1.2083 3.81-0.00001 1.6169-0.40276 2.8869-1.2083 3.81-0.80552 0.91722-1.9138 1.3758-3.3249 1.3758-1.417 0-2.5282-0.45861-3.3337-1.3758-0.79963-0.9231-1.1994-2.1931-1.1994-3.81 0-1.6228 0.39982-2.8928 1.1994-3.81 0.8055-0.91721 1.9168-1.3758 3.3337-1.3758"/>
  <path id="path3064" style="" d="m549.34 197.34c-0.18227-0.10582-0.38218-0.18226-0.59972-0.2293-0.21167-0.0529-0.44686-0.0794-0.70555-0.0794-0.91723 0.00001-1.6228 0.29987-2.1167 0.89959-0.48801 0.59384-0.73201 1.4493-0.73201 2.5664v5.2035h-1.6316v-9.8778h1.6316v1.5346c0.34101-0.59971 0.78493-1.0436 1.3317-1.3317 0.5468-0.29397 1.2112-0.44096 1.9932-0.44097 0.1117 0.00001 0.23517 0.009 0.37041 0.0264 0.13523 0.0118 0.28516 0.0324 0.44979 0.0617l0.009 1.6669"/>
  <path id="path3066" style="" d="m557.25 197.32v-5.3446h1.6228v13.723h-1.6228v-1.4817c-0.34103 0.58797-0.77318 1.026-1.2965 1.3141-0.51741 0.28222-1.1406 0.42333-1.8697 0.42333-1.1936 0-2.1666-0.47625-2.9192-1.4288-0.74672-0.95249-1.1201-2.2048-1.1201-3.7571 0-1.5522 0.37335-2.8046 1.1201-3.7571 0.75259-0.95248 1.7257-1.4287 2.9192-1.4287 0.72907 0.00001 1.3523 0.14406 1.8697 0.43215 0.52328 0.28223 0.95543 0.71732 1.2965 1.3053m-5.5298 3.4484c0 1.1936 0.244 2.1314 0.73201 2.8134 0.49389 0.67616 1.17 1.0142 2.0285 1.0142 0.85842 0 1.5346-0.33808 2.0285-1.0142 0.49388-0.68203 0.74083-1.6198 0.74084-2.8134-0.00001-1.1936-0.24696-2.1284-0.74084-2.8046-0.49389-0.68202-1.17-1.023-2.0285-1.023-0.85843 0.00001-1.5346 0.34103-2.0285 1.023-0.48801 0.67617-0.73201 1.611-0.73201 2.8046"/>
  <path id="path3068" style="" d="m562.21 195.82h1.6228v9.8778h-1.6228v-9.8778m0-3.8453h1.6228v2.0549h-1.6228v-2.0549"/>
  <path id="path3070" style="" d="m575.43 199.74v5.9619h-1.6228v-5.909c-0.00001-0.93486-0.18228-1.6345-0.54681-2.099-0.36454-0.46448-0.91135-0.69673-1.6404-0.69673-0.87607 0-1.5669 0.27929-2.0726 0.83784-0.50565 0.55857-0.75848 1.32-0.75847 2.2842v5.5827h-1.6316v-9.8778h1.6316v1.5346c0.38805-0.59383 0.84372-1.0377 1.367-1.3317 0.52916-0.29397 1.1377-0.44096 1.8256-0.44097 1.1348 0.00001 1.9932 0.35278 2.5753 1.0583 0.58207 0.69968 0.87311 1.7316 0.87312 3.0956"/>
  <path id="path3072" style="" d="m583.17 200.73c-1.3112 0-2.2196 0.14993-2.7252 0.44979-0.50565 0.29986-0.75847 0.81139-0.75847 1.5346 0 0.5762 0.18815 1.0348 0.56445 1.3758 0.38217 0.33514 0.89957 0.50271 1.5522 0.50271 0.89957 0 1.6198-0.3175 2.1608-0.9525 0.5468-0.64088 0.8202-1.4905 0.82021-2.5488v-0.36159h-1.614m3.2367-0.67028v5.6356h-1.6228v-1.4993c-0.37043 0.59973-0.83198 1.0436-1.3847 1.3317-0.55269 0.28222-1.2288 0.42333-2.0285 0.42333-1.0113 0-1.8168-0.28222-2.4165-0.84667-0.59384-0.57032-0.89076-1.3317-0.89076-2.2842 0-1.1112 0.37041-1.9491 1.1112-2.5135 0.7467-0.56443 1.858-0.84666 3.3337-0.84666h2.2754v-0.15875c-0.00001-0.74671-0.24696-1.3229-0.74084-1.7286-0.48801-0.41157-1.1759-0.61735-2.0637-0.61736-0.56445 0.00001-1.1142 0.0676-1.6492 0.20284-0.53505 0.13524-1.0495 0.33809-1.5434 0.60855v-1.4993c0.59384-0.22929 1.17-0.3998 1.7286-0.51153 0.55856-0.11758 1.1024-0.17637 1.6316-0.17638 1.4287 0.00001 2.4959 0.37042 3.2014 1.1112 0.70555 0.74085 1.0583 1.8638 1.0583 3.369m-2.9633-8.8106h1.7551l-2.8751 3.3161h-1.3494l2.4694-3.3161"/>
  <path id="path3074" style="" d="m591.37 193.02v2.8046h3.3426v1.2612h-3.3426v5.3622c0 0.80551 0.10877 1.3229 0.32632 1.5522 0.22342 0.2293 0.67322 0.34396 1.3494 0.34395h1.6669v1.3582h-1.6669c-1.2524 0-2.1167-0.23225-2.5929-0.69674-0.47625-0.47037-0.71437-1.3229-0.71437-2.5576v-5.3622h-1.1906v-1.2612h1.1906v-2.8046h1.6316"/>
  <path id="path3076" style="" d="m601.34 200.73c-1.3112 0-2.2196 0.14993-2.7252 0.44979-0.50565 0.29986-0.75847 0.81139-0.75847 1.5346 0 0.5762 0.18815 1.0348 0.56444 1.3758 0.38218 0.33514 0.89958 0.50271 1.5522 0.50271 0.89958 0 1.6198-0.3175 2.1608-0.9525 0.54679-0.64088 0.8202-1.4905 0.8202-2.5488v-0.36159h-1.614m3.2367-0.67028v5.6356h-1.6228v-1.4993c-0.37042 0.59973-0.83197 1.0436-1.3846 1.3317-0.55269 0.28222-1.2288 0.42333-2.0285 0.42333-1.0113 0-1.8168-0.28222-2.4165-0.84667-0.59385-0.57032-0.89077-1.3317-0.89077-2.2842 0-1.1112 0.37042-1.9491 1.1112-2.5135 0.74671-0.56443 1.858-0.84666 3.3338-0.84666h2.2754v-0.15875c0-0.74671-0.24695-1.3229-0.74083-1.7286-0.48801-0.41157-1.1759-0.61735-2.0638-0.61736-0.56444 0.00001-1.1142 0.0676-1.6492 0.20284-0.53505 0.13524-1.0495 0.33809-1.5434 0.60855v-1.4993c0.59384-0.22929 1.17-0.3998 1.7286-0.51153 0.55856-0.11758 1.1024-0.17637 1.6316-0.17638 1.4287 0.00001 2.4959 0.37042 3.2015 1.1112 0.70554 0.74085 1.0583 1.8638 1.0583 3.369m-2.9633-8.8106h1.7551l-2.8751 3.3161h-1.3494l2.4694-3.3161"/>
  <path id="path3078" style="" d="m607.87 191.98h1.6316v8.1051l4.8419-4.2598h2.0726l-5.2387 4.6214 5.4592 5.2564h-2.1167l-5.0183-4.8242v4.8242h-1.6316v-13.723"/>
 </g>
 <g id="g54" stroke="#000" stroke-width="2" fill="none">
  <path id="line56" d="m340 100v225.53"/>
  <path id="polyline58" d="m335 317.76 5 10 5-10"/>
 </g>
 <g id="g60" stroke="#000" stroke-width="2" fill="none">
  <path id="line62" d="m340 100h315.53"/>
  <path id="polyline64" d="m647.76 105 10-5-10-5"/>
 </g>
 <g id="text66">
  <path id="path3085" style="" d="m351.64 113.08h1.6316v8.1051l4.8419-4.2598h2.0726l-5.2388 4.6214 5.4592 5.2564h-2.1167l-5.0183-4.8242v4.8242h-1.6316v-13.723"/>
  <path id="path3087" style="" d="m365.36 118.06c-0.87019 0.00001-1.5581 0.34103-2.0637 1.0231-0.50565 0.67616-0.75848 1.6051-0.75848 2.7869s0.24989 2.1137 0.74966 2.7958c0.50564 0.67616 1.1965 1.0142 2.0726 1.0142 0.8643 0.00001 1.5493-0.34101 2.0549-1.023 0.50564-0.68203 0.75846-1.611 0.75847-2.7869-0.00001-1.17-0.25283-2.0961-0.75847-2.7781-0.50565-0.68791-1.1906-1.0319-2.0549-1.0319m0-1.3758c1.4111 0.00001 2.5194 0.45862 3.3249 1.3758 0.8055 0.91723 1.2082 2.1872 1.2083 3.81-0.00001 1.6169-0.40276 2.8869-1.2083 3.81-0.80552 0.91723-1.9138 1.3758-3.3249 1.3758-1.417 0-2.5282-0.45861-3.3337-1.3758-0.79963-0.92309-1.1994-2.1931-1.1994-3.81 0-1.6228 0.39982-2.8928 1.1994-3.81 0.8055-0.91721 1.9168-1.3758 3.3337-1.3758"/>
  <path id="path3089" style="" d="m376.41 118.06c-0.87018 0.00001-1.5581 0.34103-2.0637 1.0231-0.50565 0.67616-0.75848 1.6051-0.75847 2.7869-0.00001 1.1818 0.24988 2.1137 0.74965 2.7958 0.50564 0.67616 1.1965 1.0142 2.0726 1.0142 0.8643 0.00001 1.5493-0.34101 2.0549-1.023 0.50564-0.68203 0.75846-1.611 0.75847-2.7869-0.00001-1.17-0.25283-2.0961-0.75847-2.7781-0.50565-0.68791-1.1906-1.0319-2.0549-1.0319m0-1.3758c1.4111 0.00001 2.5194 0.45862 3.3249 1.3758 0.8055 0.91723 1.2082 2.1872 1.2083 3.81-0.00001 1.6169-0.40276 2.8869-1.2083 3.81-0.80552 0.91723-1.9138 1.3758-3.3249 1.3758-1.417 0-2.5282-0.45861-3.3337-1.3758-0.79963-0.92309-1.1994-2.1931-1.1994-3.81 0-1.6228 0.39982-2.8928 1.1994-3.81 0.8055-0.91721 1.9168-1.3758 3.3337-1.3758"/>
  <path id="path3091" style="" d="m389.34 118.44c-0.18227-0.10582-0.38218-0.18226-0.59972-0.22931-0.21167-0.0529-0.44686-0.0794-0.70555-0.0794-0.91723 0.00001-1.6228 0.29987-2.1167 0.89958-0.48801 0.59385-0.73201 1.4493-0.73201 2.5665v5.2035h-1.6316v-9.8778h1.6316v1.5346c0.34101-0.59971 0.78493-1.0436 1.3317-1.3317 0.5468-0.29397 1.2112-0.44096 1.9932-0.44097 0.1117 0.00001 0.23517 0.009 0.37041 0.0265 0.13523 0.0118 0.28516 0.0323 0.44979 0.0617l0.009 1.6669"/>
  <path id="path3093" style="" d="m397.25 118.42v-5.3446h1.6228v13.723h-1.6228v-1.4817c-0.34103 0.58796-0.77318 1.026-1.2965 1.3141-0.51741 0.28223-1.1406 0.42334-1.8697 0.42334-1.1936 0-2.1666-0.47625-2.9192-1.4288-0.74672-0.9525-1.1201-2.2049-1.1201-3.7571s0.37335-2.8046 1.1201-3.7571c0.75259-0.95249 1.7257-1.4287 2.9192-1.4288 0.72907 0.00001 1.3523 0.14406 1.8697 0.43215 0.52328 0.28224 0.95543 0.71733 1.2965 1.3053m-5.5298 3.4484c0 1.1936 0.244 2.1314 0.73201 2.8134 0.49389 0.67616 1.17 1.0142 2.0285 1.0142 0.85842 0 1.5346-0.33807 2.0285-1.0142 0.49388-0.68203 0.74083-1.6198 0.74084-2.8134-0.00001-1.1936-0.24696-2.1284-0.74084-2.8046-0.49389-0.68203-1.17-1.023-2.0285-1.023-0.85843 0-1.5346 0.34102-2.0285 1.023-0.48801 0.67616-0.73201 1.611-0.73201 2.8046"/>
  <path id="path3095" style="" d="m402.21 116.92h1.6228v9.8778h-1.6228v-9.8778m0-3.8453h1.6228v2.0549h-1.6228v-2.0549"/>
  <path id="path3097" style="" d="m415.43 120.84v5.9619h-1.6228v-5.909c-0.00001-0.93485-0.18228-1.6345-0.54681-2.099-0.36454-0.46448-0.91135-0.69673-1.6404-0.69674-0.87607 0.00001-1.5669 0.27929-2.0726 0.83785-0.50565 0.55857-0.75848 1.32-0.75847 2.2842v5.5827h-1.6316v-9.8778h1.6316v1.5346c0.38805-0.59383 0.84372-1.0378 1.367-1.3317 0.52916-0.29397 1.1377-0.44096 1.8256-0.44097 1.1348 0.00001 1.9932 0.35279 2.5753 1.0583 0.58207 0.69969 0.87311 1.7316 0.87312 3.0956"/>
  <path id="path3099" style="" d="m423.17 121.83c-1.3112 0.00001-2.2196 0.14994-2.7252 0.44979-0.50565 0.29987-0.75847 0.81139-0.75847 1.5346 0 0.57621 0.18815 1.0348 0.56445 1.3758 0.38217 0.33514 0.89957 0.5027 1.5522 0.5027 0.89957 0 1.6198-0.31749 2.1608-0.9525 0.5468-0.64087 0.8202-1.4905 0.82021-2.5488v-0.3616h-1.614m3.2367-0.67028v5.6356h-1.6228v-1.4993c-0.37043 0.59972-0.83198 1.0436-1.3847 1.3317-0.55269 0.28223-1.2288 0.42334-2.0285 0.42334-1.0113 0-1.8168-0.28223-2.4165-0.84667-0.59384-0.57032-0.89076-1.3317-0.89076-2.2842 0-1.1112 0.37041-1.9491 1.1112-2.5135 0.7467-0.56444 1.858-0.84666 3.3337-0.84667h2.2754v-0.15875c-0.00001-0.7467-0.24696-1.3229-0.74084-1.7286-0.48801-0.41156-1.1759-0.61735-2.0637-0.61736-0.56445 0.00001-1.1142 0.0676-1.6492 0.20285-0.53505 0.13524-1.0495 0.33809-1.5434 0.60854v-1.4993c0.59384-0.2293 1.17-0.39981 1.7286-0.51153 0.55856-0.11758 1.1024-0.17638 1.6316-0.17639 1.4287 0.00001 2.4959 0.37043 3.2014 1.1112 0.70555 0.74084 1.0583 1.8638 1.0583 3.369m-2.9633-8.8106h1.7551l-2.8751 3.3161h-1.3494l2.4694-3.3161"/>
  <path id="path3101" style="" d="m431.37 114.12v2.8046h3.3426v1.2612h-3.3426v5.3622c0 0.80551 0.10877 1.3229 0.32632 1.5522 0.22342 0.22931 0.67322 0.34396 1.3494 0.34396h1.6669v1.3582h-1.6669c-1.2524 0-2.1167-0.23224-2.5929-0.69673-0.47625-0.47037-0.71437-1.3229-0.71437-2.5576v-5.3622h-1.1906v-1.2612h1.1906v-2.8046h1.6316"/>
  <path id="path3103" style="" d="m441.34 121.83c-1.3112 0.00001-2.2196 0.14994-2.7252 0.44979-0.50565 0.29987-0.75847 0.81139-0.75847 1.5346 0 0.57621 0.18815 1.0348 0.56444 1.3758 0.38218 0.33514 0.89958 0.5027 1.5522 0.5027 0.89958 0 1.6198-0.31749 2.1608-0.9525 0.54679-0.64087 0.8202-1.4905 0.8202-2.5488v-0.3616h-1.614m3.2367-0.67028v5.6356h-1.6228v-1.4993c-0.37042 0.59972-0.83197 1.0436-1.3846 1.3317-0.55269 0.28223-1.2288 0.42334-2.0285 0.42334-1.0113 0-1.8168-0.28223-2.4165-0.84667-0.59385-0.57032-0.89077-1.3317-0.89077-2.2842 0-1.1112 0.37042-1.9491 1.1112-2.5135 0.74671-0.56444 1.858-0.84666 3.3338-0.84667h2.2754v-0.15875c0-0.7467-0.24695-1.3229-0.74083-1.7286-0.48801-0.41156-1.1759-0.61735-2.0638-0.61736-0.56444 0.00001-1.1142 0.0676-1.6492 0.20285-0.53505 0.13524-1.0495 0.33809-1.5434 0.60854v-1.4993c0.59384-0.2293 1.17-0.39981 1.7286-0.51153 0.55856-0.11758 1.1024-0.17638 1.6316-0.17639 1.4287 0.00001 2.4959 0.37043 3.2015 1.1112 0.70554 0.74084 1.0583 1.8638 1.0583 3.369m-2.9633-8.8106h1.7551l-2.8751 3.3161h-1.3494l2.4694-3.3161"/>
  <path id="path3105" style="" d="m447.87 113.08h1.6316v8.1051l4.8419-4.2598h2.0726l-5.2387 4.6214 5.4592 5.2564h-2.1167l-5.0183-4.8242v4.8242h-1.6316v-13.723"/>
  <path id="path3107" style="" d="m356.19 144.41c-1.3112 0.00001-2.2196 0.14994-2.7252 0.4498-0.50565 0.29986-0.75848 0.81139-0.75847 1.5346-0.00001 0.5762 0.18814 1.0348 0.56444 1.3758 0.38217 0.33514 0.89958 0.50271 1.5522 0.50271 0.89958 0 1.6198-0.3175 2.1608-0.9525 0.5468-0.64088 0.8202-1.4905 0.82021-2.5488v-0.3616h-1.614m3.2367-0.67027v5.6356h-1.6228v-1.4993c-0.37042 0.59972-0.83197 1.0436-1.3846 1.3317-0.55269 0.28222-1.2288 0.42333-2.0285 0.42333-1.0113 0-1.8168-0.28222-2.4165-0.84667-0.59384-0.57032-0.89076-1.3317-0.89076-2.2842 0-1.1112 0.37042-1.9491 1.1112-2.5135 0.74671-0.56444 1.858-0.84666 3.3338-0.84666h2.2754v-0.15875c-0.00001-0.74671-0.24695-1.3229-0.74083-1.7286-0.48802-0.41157-1.1759-0.61735-2.0638-0.61736-0.56445 0.00001-1.1142 0.0676-1.6492 0.20284-0.53504 0.13524-1.0495 0.33809-1.5434 0.60854v-1.4993c0.59384-0.22929 1.17-0.3998 1.7286-0.51153 0.55856-0.11758 1.1024-0.17637 1.6316-0.17638 1.4287 0.00001 2.4959 0.37042 3.2014 1.1112 0.70555 0.74084 1.0583 1.8638 1.0583 3.369"/>
  <path id="path3109" style="" d="m376.22 141.4c0.40568-0.72907 0.89075-1.267 1.4552-1.614 0.56444-0.34689 1.2288-0.52033 1.9932-0.52034 1.0289 0.00001 1.8227 0.3616 2.3812 1.0848 0.55855 0.71732 0.83783 1.7404 0.83785 3.0692v5.9619h-1.6316v-5.909c-0.00001-0.94662-0.16758-1.6492-0.5027-2.1078-0.33516-0.4586-0.84668-0.68791-1.5346-0.68792-0.84079 0.00001-1.5052 0.2793-1.9932 0.83785-0.48802 0.55857-0.73202 1.32-0.73201 2.2842v5.5827h-1.6316v-5.909c0-0.9525-0.16757-1.6551-0.5027-2.1078-0.33515-0.4586-0.85256-0.68791-1.5522-0.68792-0.82904 0.00001-1.4876 0.28224-1.9756 0.84667-0.48801 0.55857-0.73201 1.317-0.73201 2.2754v5.5827h-1.6316v-9.8778h1.6316v1.5346c0.37041-0.60559 0.81432-1.0524 1.3317-1.3406 0.51741-0.28809 1.1318-0.43214 1.8433-0.43215 0.7173 0.00001 1.3258 0.18227 1.8256 0.5468 0.50564 0.36455 0.87899 0.89371 1.1201 1.5875"/>
  <path id="path3111" style="" d="m389.96 140.64c-0.87019 0.00001-1.5581 0.34102-2.0637 1.023-0.50565 0.67616-0.75848 1.6051-0.75848 2.7869s0.24989 2.1137 0.74966 2.7958c0.50564 0.67616 1.1965 1.0142 2.0726 1.0142 0.8643 0 1.5493-0.34102 2.0549-1.0231 0.50564-0.68203 0.75846-1.611 0.75847-2.7869-0.00001-1.17-0.25283-2.0961-0.75847-2.7781-0.50565-0.68791-1.1906-1.0319-2.0549-1.0319m0-1.3758c1.4111 0.00001 2.5194 0.45862 3.3249 1.3758 0.8055 0.91723 1.2082 2.1872 1.2083 3.81-0.00001 1.6169-0.40276 2.8869-1.2083 3.81-0.80552 0.91722-1.9138 1.3758-3.3249 1.3758-1.417 0-2.5282-0.45861-3.3337-1.3758-0.79963-0.9231-1.1994-2.1931-1.1994-3.81 0-1.6228 0.39982-2.8928 1.1994-3.81 0.8055-0.91721 1.9168-1.3758 3.3337-1.3758"/>
  <path id="path3113" style="" d="m405.39 143.42v5.9619h-1.6228v-5.909c-0.00001-0.93486-0.18228-1.6345-0.54681-2.099-0.36454-0.46448-0.91135-0.69673-1.6404-0.69674-0.87607 0.00001-1.5669 0.2793-2.0726 0.83785-0.50565 0.55857-0.75847 1.32-0.75847 2.2842v5.5827h-1.6316v-9.8778h1.6316v1.5346c0.38805-0.59383 0.84372-1.0377 1.367-1.3317 0.52916-0.29397 1.1377-0.44096 1.8256-0.44097 1.1348 0.00001 1.9932 0.35278 2.5753 1.0583 0.58207 0.69968 0.87311 1.7316 0.87312 3.0956"/>
  <path id="path3115" style="" d="m408.64 139.5h1.6228v9.8778h-1.6228v-9.8778m0-3.8453h1.6228v2.0549h-1.6228v-2.0549"/>
  <path id="path3117" style="" d="m415.25 136.7v2.8046h3.3426v1.2612h-3.3426v5.3622c0 0.80552 0.10877 1.3229 0.32632 1.5522 0.22342 0.2293 0.67321 0.34395 1.3494 0.34395h1.6669v1.3582h-1.6669c-1.2524 0-2.1167-0.23225-2.5929-0.69674-0.47625-0.47037-0.71437-1.3229-0.71437-2.5576v-5.3622h-1.1906v-1.2612h1.1906v-2.8046h1.6316"/>
  <path id="path3119" style="" d="m424.57 140.64c-0.87019 0.00001-1.5581 0.34102-2.0637 1.023-0.50565 0.67616-0.75848 1.6051-0.75848 2.7869s0.24989 2.1137 0.74966 2.7958c0.50564 0.67616 1.1965 1.0142 2.0726 1.0142 0.8643 0 1.5493-0.34102 2.0549-1.0231 0.50564-0.68203 0.75846-1.611 0.75847-2.7869-0.00001-1.17-0.25283-2.0961-0.75847-2.7781-0.50565-0.68791-1.1906-1.0319-2.0549-1.0319m0-1.3758c1.4111 0.00001 2.5194 0.45862 3.3249 1.3758 0.8055 0.91723 1.2082 2.1872 1.2083 3.81-0.00001 1.6169-0.40276 2.8869-1.2083 3.81-0.80552 0.91722-1.9138 1.3758-3.3249 1.3758-1.417 0-2.5282-0.45861-3.3337-1.3758-0.79963-0.9231-1.1994-2.1931-1.1994-3.81 0-1.6228 0.39982-2.8928 1.1994-3.81 0.8055-0.91721 1.9168-1.3758 3.3337-1.3758"/>
  <path id="path3121" style="" d="m437.51 141.02c-0.18227-0.10582-0.38218-0.18226-0.59972-0.2293-0.21167-0.0529-0.44686-0.0794-0.70555-0.0794-0.91723 0.00001-1.6228 0.29987-2.1167 0.89958-0.48801 0.59385-0.73201 1.4493-0.73201 2.5665v5.2035h-1.6316v-9.8778h1.6316v1.5346c0.34101-0.59971 0.78493-1.0436 1.3317-1.3317 0.5468-0.29397 1.2112-0.44096 1.9932-0.44097 0.1117 0.00001 0.23517 0.009 0.37041 0.0264 0.13523 0.0118 0.28516 0.0324 0.44979 0.0617l0.009 1.6669"/>
  <path id="path3123" style="" d="m442.66 140.64c-0.87018 0.00001-1.5581 0.34102-2.0637 1.023-0.50565 0.67616-0.75848 1.6051-0.75847 2.7869-0.00001 1.1818 0.24988 2.1137 0.74965 2.7958 0.50564 0.67616 1.1965 1.0142 2.0726 1.0142 0.8643 0 1.5493-0.34102 2.0549-1.0231 0.50564-0.68203 0.75847-1.611 0.75847-2.7869 0-1.17-0.25283-2.0961-0.75847-2.7781-0.50565-0.68791-1.1906-1.0319-2.0549-1.0319m0-1.3758c1.4111 0.00001 2.5194 0.45862 3.3249 1.3758 0.8055 0.91723 1.2082 2.1872 1.2083 3.81-0.00001 1.6169-0.40276 2.8869-1.2083 3.81-0.80552 0.91722-1.9138 1.3758-3.3249 1.3758-1.417 0-2.5282-0.45861-3.3337-1.3758-0.79963-0.9231-1.1994-2.1931-1.1994-3.81-0.00001-1.6228 0.39981-2.8928 1.1994-3.81 0.8055-0.91721 1.9168-1.3758 3.3337-1.3758"/>
  <path id="path3125" style="" d="m458.08 143.42v5.9619h-1.6228v-5.909c-0.00001-0.93486-0.18228-1.6345-0.54681-2.099-0.36454-0.46448-0.91134-0.69673-1.6404-0.69674-0.87607 0.00001-1.5669 0.2793-2.0726 0.83785-0.50565 0.55857-0.75847 1.32-0.75847 2.2842v5.5827h-1.6316v-9.8778h1.6316v1.5346c0.38805-0.59383 0.84372-1.0377 1.367-1.3317 0.52916-0.29397 1.1377-0.44096 1.8256-0.44097 1.1348 0.00001 1.9932 0.35278 2.5753 1.0583 0.58207 0.69968 0.87311 1.7316 0.87312 3.0956"/>
 </g>
</svg>
