<?xml version="1.0" encoding="UTF-8" standalone="no"?>
<!-- Created with Inkscape (http://www.inkscape.org/) -->
<svg id="svg2" xmlns:rdf="http://www.w3.org/1999/02/22-rdf-syntax-ns#" xmlns="http://www.w3.org/2000/svg" height="182.2" width="2012.5" version="1.1" xmlns:cc="http://creativecommons.org/ns#" xmlns:dc="http://purl.org/dc/elements/1.1/" viewBox="318 74 1124.958 91.702222">
 <metadata id="metadata78">
  <rdf:RDF>
   <cc:Work rdf:about="">
    <dc:format>image/svg+xml</dc:format>
    <dc:type rdf:resource="http://purl.org/dc/dcmitype/StillImage"/>
   </cc:Work>
  </rdf:RDF>
 </metadata>
 <g id="g4" transform="translate(-1 -10.223)">
  <path id="rect6" fill="#ccc" d="m320 100h200v80h-200z"/>
  <path id="rect8" d="m320 100h200v80h-200z" stroke="#000" stroke-width="2" fill="none"/>
 </g>
 <g id="text10">
  <path id="path3020" style="" d="m395.56 114.77c-1.9668 0.00001-3.3294 0.2249-4.0878 0.67469-0.75848 0.44979-1.1377 1.2171-1.1377 2.3019 0 0.86431 0.28222 1.5522 0.84667 2.0638 0.57325 0.50271 1.3494 0.75406 2.3283 0.75406 1.3494 0 2.4297-0.47625 3.2411-1.4288 0.8202-0.96131 1.2303-2.2357 1.2303-3.8232v-0.5424h-2.4209m4.8551-1.0054v8.4534h-2.4342v-2.249c-0.55564 0.89958-1.248 1.5654-2.077 1.9976-0.82903 0.42333-1.8433 0.635-3.0427 0.635-1.517 0-2.7252-0.42334-3.6248-1.27-0.89076-0.85548-1.3361-1.9976-1.3361-3.4264 0-1.6669 0.55562-2.9236 1.6669-3.7703 1.1201-0.84666 2.7869-1.27 5.0006-1.27h3.4131v-0.23812c-0.00001-1.1201-0.37043-1.9844-1.1112-2.5929-0.73202-0.61734-1.7639-0.92602-3.0956-0.92604-0.84667 0.00002-1.6713 0.10144-2.4738 0.30427-0.80257 0.20286-1.5743 0.50713-2.3151 0.91282v-2.249c0.89076-0.34394 1.7551-0.59971 2.5929-0.76729 0.83784-0.17637 1.6536-0.26457 2.4474-0.26458 2.1431 0.00001 3.7438 0.55564 4.8022 1.6669 1.0583 1.1113 1.5875 2.7958 1.5875 5.0535m-4.445-13.216h2.6326l-4.3127 4.9742h-2.0241l3.7042-4.9742"/>
  <path id="path3022" style="" d="m407.85 103.2v4.2069h5.0138v1.8918h-5.0138v8.0433c-0.00001 1.2083 0.16315 1.9844 0.48947 2.3283 0.33514 0.34396 1.0098 0.51594 2.0241 0.51593h2.5003v2.0373h-2.5003c-1.8785 0-3.175-0.34836-3.8894-1.0451-0.71437-0.70555-1.0716-1.9844-1.0716-3.8364v-8.0433h-1.7859v-1.8918h1.7859v-4.2069h2.4474"/>
  <path id="path3024" style="" d="m416.08 101.63h2.4342v20.585h-2.4342v-20.585"/>
  <path id="path3026" style="" d="m429.33 109.11c-1.3053 0.00002-2.3372 0.51154-3.0956 1.5346-0.75847 1.0142-1.1377 2.4077-1.1377 4.1804-0.00001 1.7727 0.37482 3.1706 1.1245 4.1936 0.75847 1.0142 1.7948 1.5214 3.1088 1.5214 1.2964 0 2.3239-0.51152 3.0824-1.5346 0.75846-1.023 1.1377-2.4165 1.1377-4.1804-0.00001-1.7551-0.37924-3.1441-1.1377-4.1672-0.75849-1.0319-1.786-1.5478-3.0824-1.5478m0-2.0637c2.1167 0.00001 3.7791 0.68793 4.9874 2.0637 1.2082 1.3758 1.8124 3.2808 1.8124 5.715-0.00002 2.4254-0.60415 4.3303-1.8124 5.715-1.2083 1.3758-2.8707 2.0638-4.9874 2.0638-2.1255 0-3.7924-0.68792-5.0006-2.0638-1.1994-1.3846-1.7992-3.2896-1.7992-5.715 0-2.4342 0.59972-4.3392 1.7992-5.715 1.2082-1.3758 2.8751-2.0637 5.0006-2.0637m1.8389-6.4955h2.6326l-4.3127 4.9742h-2.0241l3.7042-4.9742"/>
  <path id="path3028" style="" d="m449.6 107.84v2.3019c-0.68792-0.35277-1.4023-0.61735-2.1431-0.79375-0.74084-0.17638-1.5081-0.26457-2.3019-0.26458-1.2083 0.00001-2.1167 0.18522-2.7252 0.55562-0.59972 0.37043-0.89958 0.92605-0.89958 1.6669 0 0.56446 0.21607 1.0098 0.64823 1.3362 0.43215 0.31751 1.3009 0.62178 2.6061 0.91281l0.83344 0.18521c1.7286 0.37042 2.9545 0.89518 3.6777 1.5743 0.732 0.67028 1.098 1.6096 1.098 2.8178-0.00001 1.3758-0.54682 2.465-1.6404 3.2676-1.0848 0.80256-2.5797 1.2038-4.4847 1.2038-0.79376 0-1.6228-0.0794-2.4871-0.23813-0.85549-0.14993-1.7595-0.37923-2.712-0.68791v-2.5135c0.89958 0.46743 1.7859 0.82021 2.6591 1.0583 0.87312 0.22931 1.7374 0.34396 2.5929 0.34396 1.1465 0 2.0285-0.19403 2.6458-0.58208 0.61735-0.39688 0.92603-0.9525 0.92604-1.6669-0.00001-0.66145-0.2249-1.1686-0.67468-1.5214-0.44098-0.35277-1.4155-0.69232-2.9236-1.0186l-0.84666-0.19844c-1.5081-0.31749-2.5973-0.80256-3.2676-1.4552-0.67028-0.66145-1.0054-1.5654-1.0054-2.712 0-1.3935 0.49389-2.4694 1.4817-3.2279 0.98777-0.75845 2.3901-1.1377 4.2069-1.1377 0.89957 0.00001 1.7462 0.0662 2.54 0.19843 0.79374 0.13231 1.5258 0.33075 2.196 0.59532"/>
  <path id="path3030" style="" d="m348.65 135.5h2.4474v12.158l7.2628-6.3897h3.1088l-7.8581 6.9321 8.1888 7.8846h-3.175l-7.5274-7.2363v7.2363h-2.4474v-20.585"/>
  <path id="path3032" style="" d="m370.72 148.64c-1.9668 0.00001-3.3294 0.2249-4.0878 0.67469-0.75848 0.44979-1.1377 1.2171-1.1377 2.3019 0 0.86431 0.28222 1.5522 0.84667 2.0638 0.57325 0.50271 1.3494 0.75406 2.3283 0.75406 1.3494 0 2.4297-0.47625 3.2411-1.4288 0.82019-0.96131 1.2303-2.2357 1.2303-3.8232v-0.5424h-2.4209m4.8551-1.0054v8.4534h-2.4342v-2.249c-0.55564 0.89958-1.248 1.5654-2.077 1.9976-0.82903 0.42333-1.8433 0.635-3.0427 0.635-1.517 0-2.7252-0.42334-3.6248-1.27-0.89076-0.85548-1.3361-1.9976-1.3361-3.4264 0-1.6669 0.55562-2.9236 1.6669-3.7703 1.1201-0.84666 2.7869-1.27 5.0006-1.27h3.4131v-0.23812c-0.00001-1.1201-0.37043-1.9844-1.1112-2.5929-0.73202-0.61734-1.7639-0.92602-3.0956-0.92604-0.84667 0.00002-1.6713 0.10144-2.4738 0.30427-0.80257 0.20286-1.5743 0.50713-2.3151 0.91282v-2.249c0.89076-0.34394 1.7551-0.59971 2.5929-0.76729 0.83784-0.17637 1.6536-0.26457 2.4474-0.26458 2.1431 0.00001 3.7438 0.55564 4.8022 1.6669 1.0583 1.1113 1.5875 2.7958 1.5875 5.0535"/>
  <path id="path3034" style="" d="m389.19 143.54c-0.27341-0.15874-0.57327-0.27339-0.89958-0.34396-0.31751-0.0794-0.67029-0.11905-1.0583-0.11906-1.3758 0.00001-2.4342 0.4498-3.175 1.3494-0.73202 0.89077-1.098 2.174-1.098 3.8497v7.8052h-2.4474v-14.817h2.4474v2.3019c0.51152-0.89957 1.1774-1.5654 1.9976-1.9976 0.8202-0.44095 1.8168-0.66144 2.9898-0.66145 0.16756 0.00001 0.35277 0.0132 0.55562 0.0397 0.20284 0.0177 0.42773 0.0485 0.67469 0.0926l0.0132 2.5003"/>
  <path id="path3036" style="" d="m398.5 148.64c-1.9667 0.00001-3.3293 0.2249-4.0878 0.67469-0.75847 0.44979-1.1377 1.2171-1.1377 2.3019 0 0.86431 0.28222 1.5522 0.84667 2.0638 0.57326 0.50271 1.3494 0.75406 2.3283 0.75406 1.3494 0 2.4298-0.47625 3.2411-1.4288 0.8202-0.96131 1.2303-2.2357 1.2303-3.8232v-0.5424h-2.4209m4.8551-1.0054v8.4534h-2.4342v-2.249c-0.55563 0.89958-1.248 1.5654-2.077 1.9976-0.82904 0.42333-1.8433 0.635-3.0427 0.635-1.517 0-2.7252-0.42334-3.6248-1.27-0.89077-0.85548-1.3362-1.9976-1.3362-3.4264 0-1.6669 0.55562-2.9236 1.6669-3.7703 1.1201-0.84666 2.7869-1.27 5.0006-1.27h3.4131v-0.23812c-0.00001-1.1201-0.37042-1.9844-1.1112-2.5929-0.73203-0.61734-1.7639-0.92602-3.0956-0.92604-0.84667 0.00002-1.6713 0.10144-2.4738 0.30427-0.80257 0.20286-1.5743 0.50713-2.3151 0.91282v-2.249c0.89076-0.34394 1.7551-0.59971 2.5929-0.76729 0.83784-0.17637 1.6536-0.26457 2.4474-0.26458 2.1431 0.00001 3.7438 0.55564 4.8022 1.6669 1.0583 1.1113 1.5875 2.7958 1.5875 5.0535"/>
  <path id="path3038" style="" d="m408.29 135.5h2.4474v12.158l7.2628-6.3897h3.1088l-7.8581 6.9321 8.1888 7.8846h-3.175l-7.5274-7.2363v7.2363h-2.4474v-20.585"/>
  <path id="path3040" style="" d="m426.51 137.06v4.2069h5.0138v1.8918h-5.0138v8.0433c0 1.2083 0.16316 1.9844 0.48948 2.3283 0.33513 0.34396 1.0098 0.51593 2.0241 0.51593h2.5003v2.0373h-2.5003c-1.8785 0-3.175-0.34837-3.8894-1.0451-0.71438-0.70555-1.0716-1.9844-1.0716-3.8364v-8.0433h-1.7859v-1.8918h1.7859v-4.2069h2.4474"/>
  <path id="path3042" style="" d="m447.41 148.07v1.1906h-11.192c0.10583 1.6757 0.60854 2.9545 1.5081 3.8364 0.90839 0.87313 2.1696 1.3097 3.7835 1.3097 0.93485 0 1.8388-0.11465 2.712-0.34396 0.88193-0.2293 1.755-0.57326 2.6194-1.0319v2.3019c-0.87314 0.37042-1.7683 0.65264-2.6855 0.84667-0.91723 0.19402-1.8477 0.29104-2.7914 0.29104-2.3636 0-4.2377-0.68792-5.6224-2.0638-1.3758-1.3758-2.0637-3.2367-2.0637-5.5827 0-2.4253 0.65263-4.348 1.9579-5.7679 1.3141-1.4287 3.0824-2.1431 5.3049-2.1431 1.9932 0.00001 3.5674 0.64383 4.7228 1.9314 1.1642 1.2788 1.7462 3.0207 1.7462 5.2255m-2.4342-0.71438c-0.0177-1.3317-0.39248-2.3945-1.1245-3.1882-0.7232-0.79374-1.6845-1.1906-2.884-1.1906-1.3582 0.00002-2.4474 0.38366-3.2676 1.1509-0.81139 0.7673-1.2788 1.8477-1.4023 3.2411l8.6783-0.0132"/>
  <path id="path3044" style="" d="m459.99 143.54c-0.27341-0.15874-0.57327-0.27339-0.89958-0.34396-0.31751-0.0794-0.67029-0.11905-1.0583-0.11906-1.3758 0.00001-2.4342 0.4498-3.175 1.3494-0.73202 0.89077-1.098 2.174-1.098 3.8497v7.8052h-2.4474v-14.817h2.4474v2.3019c0.51152-0.89957 1.1774-1.5654 1.9976-1.9976 0.8202-0.44095 1.8168-0.66144 2.9898-0.66145 0.16756 0.00001 0.35277 0.0132 0.55562 0.0397 0.20284 0.0177 0.42773 0.0485 0.67469 0.0926l0.0132 2.5003"/>
  <path id="path3046" style="" d="m474.65 148.07v1.1906h-11.192c0.10583 1.6757 0.60853 2.9545 1.5081 3.8364 0.90839 0.87313 2.1696 1.3097 3.7835 1.3097 0.93485 0 1.8388-0.11465 2.712-0.34396 0.88193-0.2293 1.7551-0.57326 2.6194-1.0319v2.3019c-0.87313 0.37042-1.7683 0.65264-2.6855 0.84667-0.91724 0.19402-1.8477 0.29104-2.7914 0.29104-2.3636 0-4.2378-0.68792-5.6224-2.0638-1.3758-1.3758-2.0638-3.2367-2.0638-5.5827 0-2.4253 0.65264-4.348 1.9579-5.7679 1.3141-1.4287 3.0824-2.1431 5.3049-2.1431 1.9932 0.00001 3.5674 0.64383 4.7228 1.9314 1.1642 1.2788 1.7462 3.0207 1.7462 5.2255m-2.4342-0.71438c-0.0177-1.3317-0.39247-2.3945-1.1245-3.1882-0.72321-0.79374-1.6845-1.1906-2.884-1.1906-1.3582 0.00002-2.4474 0.38366-3.2676 1.1509-0.81139 0.7673-1.2788 1.8477-1.4023 3.2411l8.6783-0.0132"/>
  <path id="path3048" style="" d="m478.55 135.5h2.4474v12.158l7.2628-6.3897h3.1088l-7.8581 6.9321 8.1888 7.8846h-3.175l-7.5274-7.2363v7.2363h-2.4474v-20.585"/>
 </g>
 <g id="g16" stroke="#000" stroke-width="2" fill="none" transform="translate(-1 -10.223)">
  <path id="line18" d="m520 140h155.53"/>
  <path id="polyline20" d="m667.76 145 10-5-10-5"/>
 </g>
 <g id="text22">
  <path id="path3053" style="" d="m571.83 80.567v8.9429h-2.4342v-8.8635c-0.00001-1.4023-0.27341-2.4518-0.82021-3.1485-0.54681-0.69672-1.367-1.0451-2.4606-1.0451-1.3141 0.000013-2.3504 0.41894-3.1088 1.2568-0.75847 0.83786-1.1377 1.98-1.1377 3.4264v8.3741h-2.4474v-14.817h2.4474v2.3019c0.58207-0.89075 1.2656-1.5566 2.0505-1.9976 0.79374-0.44096 1.7066-0.66144 2.7384-0.66146 1.7021 0.000015 2.9898 0.52918 3.8629 1.5875 0.87311 1.0495 1.3097 2.5973 1.3097 4.6434"/>
  <path id="path3055" style="" d="m575.48 81.004h7.1305v2.1696h-7.1305v-2.1696"/>
  <path id="path3057" style="" d="m599.17 81.493v1.1906h-11.192c0.10583 1.6757 0.60853 2.9545 1.5081 3.8365 0.90839 0.87313 2.1696 1.3097 3.7835 1.3097 0.93485 0.000002 1.8388-0.11465 2.712-0.34396 0.88193-0.2293 1.7551-0.57326 2.6194-1.0319v2.3019c-0.87313 0.37042-1.7683 0.65264-2.6855 0.84666-0.91724 0.19403-1.8477 0.29104-2.7914 0.29104-2.3636-0.000001-4.2378-0.68792-5.6224-2.0637-1.3758-1.3758-2.0638-3.2367-2.0638-5.5827 0-2.4253 0.65264-4.348 1.9579-5.7679 1.3141-1.4287 3.0824-2.1431 5.3049-2.1431 1.9932 0.000015 3.5674 0.64383 4.7228 1.9315 1.1642 1.2788 1.7462 3.0207 1.7462 5.2255m-2.4342-0.71437c-0.0177-1.3317-0.39247-2.3945-1.1245-3.1882-0.72321-0.79374-1.6845-1.1906-2.884-1.1906-1.3582 0.000013-2.4474 0.38366-3.2676 1.1509-0.81139 0.7673-1.2788 1.8477-1.4023 3.2411l8.6783-0.01323"/>
  <path id="path3059" style="" d="m612.92 76.942v-8.0169h2.4342v20.585h-2.4342v-2.2225c-0.51154 0.88194-1.1598 1.539-1.9447 1.9711-0.77612 0.42333-1.711 0.635-2.8046 0.635-1.7904-0.000001-3.25-0.71437-4.3788-2.1431-1.1201-1.4287-1.6801-3.3073-1.6801-5.6356s0.56003-4.2069 1.6801-5.6356c1.1289-1.4287 2.5885-2.1431 4.3788-2.1431 1.0936 0.000015 2.0285 0.21609 2.8046 0.64823 0.78492 0.42335 1.4332 1.076 1.9447 1.9579m-8.2947 5.1726c0 1.7904 0.366 3.197 1.098 4.2201 0.74083 1.0142 1.7551 1.5214 3.0427 1.5214 1.2876 0.000002 2.3019-0.50712 3.0427-1.5214 0.74082-1.023 1.1112-2.4297 1.1112-4.2201-0.00002-1.7903-0.37043-3.1926-1.1112-4.2069-0.74084-1.023-1.7551-1.5346-3.0427-1.5346-1.2876 0.000013-2.3019 0.51154-3.0427 1.5346-0.73202 1.0142-1.098 2.4165-1.098 4.2069"/>
  <path id="path3061" style="" d="m620.37 74.693h2.4342v14.817h-2.4342v-14.817m0-5.7679h2.4342v3.0824h-2.4342v-3.0824"/>
  <path id="path3063" style="" d="m627.79 68.925h2.4474v12.158l7.2628-6.3897h3.1088l-7.8581 6.9321 8.1888 7.8846h-3.175l-7.5274-7.2363v7.2363h-2.4474v-20.585"/>
  <path id="path3065" style="" d="m537.35 102.79h2.4474v12.158l7.2628-6.3897h3.1088l-7.8581 6.9321 8.1888 7.8846h-3.175l-7.5274-7.2364v7.2364h-2.4474v-20.585"/>
  <path id="path3067" style="" d="m559.42 115.93c-1.9667 0-3.3293 0.2249-4.0878 0.67468-0.75847 0.4498-1.1377 1.2171-1.1377 2.3019-0.00001 0.86431 0.28221 1.5522 0.84666 2.0638 0.57326 0.50271 1.3494 0.75406 2.3283 0.75406 1.3494 0 2.4298-0.47624 3.2412-1.4287 0.82019-0.96132 1.2303-2.2357 1.2303-3.8232v-0.54239h-2.4209m4.8551-1.0054v8.4534h-2.4342v-2.249c-0.55564 0.89959-1.248 1.5654-2.077 1.9976-0.82904 0.42334-1.8433 0.635-3.0427 0.635-1.517 0-2.7252-0.42333-3.6248-1.27-0.89077-0.85548-1.3362-1.9976-1.3362-3.4264 0-1.6669 0.55563-2.9236 1.6669-3.7703 1.1201-0.84666 2.7869-1.27 5.0006-1.27h3.4131v-0.23813c-0.00002-1.12-0.37043-1.9844-1.1112-2.5929-0.73203-0.61735-1.7639-0.92603-3.0956-0.92604-0.84668 0.00001-1.6713 0.10144-2.4738 0.30427-0.80258 0.20286-1.5743 0.50713-2.3151 0.91281v-2.249c0.89076-0.34395 1.7551-0.59971 2.5929-0.7673 0.83784-0.17637 1.6536-0.26456 2.4474-0.26458 2.1431 0.00002 3.7438 0.55564 4.8022 1.6669 1.0583 1.1113 1.5875 2.7958 1.5875 5.0535"/>
  <path id="path3069" style="" d="m577.89 110.84c-0.27342-0.15873-0.57328-0.27339-0.89959-0.34396-0.31751-0.0794-0.67028-0.11904-1.0583-0.11906-1.3758 0.00002-2.4342 0.44981-3.175 1.3494-0.73201 0.89077-1.098 2.174-1.098 3.8497v7.8052h-2.4474v-14.817h2.4474v2.3019c0.51152-0.89957 1.1774-1.5654 1.9976-1.9976 0.8202-0.44096 1.8168-0.66144 2.9898-0.66146 0.16756 0.00002 0.35277 0.0132 0.55563 0.0397 0.20284 0.0177 0.42773 0.0485 0.67469 0.0926l0.0132 2.5003"/>
  <path id="path3071" style="" d="m587.2 115.93c-1.9668 0-3.3294 0.2249-4.0878 0.67468-0.75848 0.4498-1.1377 1.2171-1.1377 2.3019 0 0.86431 0.28222 1.5522 0.84667 2.0638 0.57325 0.50271 1.3494 0.75406 2.3283 0.75406 1.3494 0 2.4297-0.47624 3.2411-1.4287 0.8202-0.96132 1.2303-2.2357 1.2303-3.8232v-0.54239h-2.4209m4.8551-1.0054v8.4534h-2.4342v-2.249c-0.55564 0.89959-1.248 1.5654-2.077 1.9976-0.82903 0.42334-1.8433 0.635-3.0427 0.635-1.517 0-2.7252-0.42333-3.6248-1.27-0.89076-0.85548-1.3361-1.9976-1.3361-3.4264 0-1.6669 0.55562-2.9236 1.6669-3.7703 1.1201-0.84666 2.7869-1.27 5.0006-1.27h3.4131v-0.23813c-0.00001-1.12-0.37043-1.9844-1.1112-2.5929-0.73202-0.61735-1.7639-0.92603-3.0956-0.92604-0.84667 0.00001-1.6713 0.10144-2.4738 0.30427-0.80257 0.20286-1.5743 0.50713-2.3151 0.91281v-2.249c0.89076-0.34395 1.7551-0.59971 2.5929-0.7673 0.83784-0.17637 1.6536-0.26456 2.4474-0.26458 2.1431 0.00002 3.7438 0.55564 4.8022 1.6669 1.0583 1.1113 1.5875 2.7958 1.5875 5.0535"/>
  <path id="path3073" style="" d="m596.99 102.79h2.4474v12.158l7.2628-6.3897h3.1088l-7.8581 6.9321 8.1888 7.8846h-3.175l-7.5274-7.2364v7.2364h-2.4474v-20.585"/>
  <path id="path3075" style="" d="m615.21 104.35v4.2069h5.0138v1.8918h-5.0138v8.0433c-0.00001 1.2083 0.16315 1.9844 0.48948 2.3283 0.33513 0.34396 1.0098 0.51594 2.0241 0.51594h2.5003v2.0373h-2.5003c-1.8786 0-3.175-0.34837-3.8894-1.0451-0.71438-0.70555-1.0716-1.9844-1.0716-3.8364v-8.0433h-1.7859v-1.8918h1.7859v-4.2069h2.4474"/>
  <path id="path3077" style="" d="m636.11 115.36v1.1906h-11.192c0.10583 1.6757 0.60854 2.9545 1.5081 3.8364 0.9084 0.87313 2.1696 1.3097 3.7835 1.3097 0.93485 0 1.8388-0.11466 2.712-0.34396 0.88193-0.22931 1.755-0.57326 2.6194-1.0319v2.3019c-0.87314 0.37041-1.7683 0.65263-2.6855 0.84666-0.91723 0.19403-1.8477 0.29104-2.7914 0.29104-2.3636 0-4.2377-0.68791-5.6224-2.0637-1.3758-1.3758-2.0638-3.2367-2.0638-5.5827 0-2.4253 0.65264-4.348 1.9579-5.7679 1.3141-1.4287 3.0824-2.1431 5.3049-2.1431 1.9932 0.00002 3.5674 0.64383 4.7228 1.9315 1.1642 1.2788 1.7462 3.0207 1.7462 5.2255m-2.4342-0.71437c-0.0177-1.3317-0.39248-2.3945-1.1245-3.1882-0.7232-0.79373-1.6845-1.1906-2.884-1.1906-1.3582 0.00001-2.4474 0.38366-3.2676 1.1509-0.81139 0.7673-1.2788 1.8477-1.4023 3.2411l8.6783-0.0132"/>
  <path id="path3079" style="" d="m648.69 110.84c-0.27342-0.15873-0.57328-0.27339-0.89959-0.34396-0.31751-0.0794-0.67028-0.11904-1.0583-0.11906-1.3758 0.00002-2.4342 0.44981-3.175 1.3494-0.73201 0.89077-1.098 2.174-1.098 3.8497v7.8052h-2.4474v-14.817h2.4474v2.3019c0.51152-0.89957 1.1774-1.5654 1.9976-1.9976 0.8202-0.44096 1.8168-0.66144 2.9898-0.66146 0.16755 0.00002 0.35276 0.0132 0.55562 0.0397 0.20284 0.0177 0.42773 0.0485 0.67469 0.0926l0.0132 2.5003"/>
  <path id="path3081" style="" d="m653.89 120.02h2.6855v3.3602h-2.6855v-3.3602m2.6062-1.9447h-2.5268v-2.0373c-0.00001-0.89076 0.12347-1.6228 0.37041-2.196 0.24694-0.57325 0.76729-1.2391 1.561-1.9976l1.1906-1.1774c0.5027-0.46741 0.86429-0.90838 1.0848-1.3229 0.22929-0.4145 0.34395-0.83783 0.34396-1.27-0.00001-0.78491-0.29105-1.4199-0.87313-1.905-0.57327-0.48505-1.3362-0.72758-2.2886-0.7276-0.69674 0.00002-1.442 0.15436-2.2357 0.46302-0.78493 0.3087-1.6051 0.75849-2.4606 1.3494v-2.4871c0.82903-0.50269 1.6669-0.87751 2.5135-1.1245 0.85548-0.24692 1.7374-0.37039 2.6458-0.37041 1.6228 0.00002 2.9236 0.42776 3.9026 1.2832 0.98776 0.8555 1.4816 1.9844 1.4817 3.3867-0.00001 0.67029-0.15876 1.3097-0.47625 1.9182-0.31751 0.59973-0.87313 1.2788-1.6669 2.0373l-1.1642 1.1377c-0.41453 0.41452-0.70998 0.74084-0.88636 0.97896-0.16757 0.22931-0.28664 0.45421-0.35718 0.67469-0.0529 0.18521-0.0926 0.41011-0.11907 0.67468-0.0265 0.26459-0.0397 0.62619-0.0397 1.0848v1.6272"/>
 </g>
 <g id="g28" transform="translate(-1 -10.223)">
  <path id="rect30" fill="#ccc" d="m680 100h200v80h-200z"/>
  <path id="rect32" d="m680 100h200v80h-200z" stroke="#000" stroke-width="2" fill="none"/>
 </g>
 <g id="text34">
  <path id="path3086" style="" d="m755.56 114.77c-1.9668 0.00001-3.3294 0.2249-4.0878 0.67469-0.75848 0.44979-1.1377 1.2171-1.1377 2.3019 0 0.86431 0.28222 1.5522 0.84667 2.0638 0.57325 0.50271 1.3494 0.75406 2.3283 0.75406 1.3494 0 2.4297-0.47625 3.2411-1.4288 0.8202-0.96131 1.2303-2.2357 1.2303-3.8232v-0.5424h-2.4209m4.8551-1.0054v8.4534h-2.4342v-2.249c-0.55564 0.89958-1.248 1.5654-2.077 1.9976-0.82903 0.42333-1.8433 0.635-3.0427 0.635-1.517 0-2.7252-0.42334-3.6248-1.27-0.89076-0.85548-1.3361-1.9976-1.3361-3.4264 0-1.6669 0.55562-2.9236 1.6669-3.7703 1.1201-0.84666 2.7869-1.27 5.0006-1.27h3.4131v-0.23812c-0.00001-1.1201-0.37043-1.9844-1.1112-2.5929-0.73202-0.61734-1.7639-0.92602-3.0956-0.92604-0.84667 0.00002-1.6713 0.10144-2.4738 0.30427-0.80257 0.20286-1.5743 0.50713-2.3151 0.91282v-2.249c0.89076-0.34394 1.7551-0.59971 2.5929-0.76729 0.83784-0.17637 1.6536-0.26457 2.4474-0.26458 2.1431 0.00001 3.7438 0.55564 4.8022 1.6669 1.0583 1.1113 1.5875 2.7958 1.5875 5.0535m-4.445-13.216h2.6326l-4.3127 4.9742h-2.0241l3.7042-4.9742"/>
  <path id="path3088" style="" d="m767.85 103.2v4.2069h5.0138v1.8918h-5.0138v8.0433c-0.00001 1.2083 0.16315 1.9844 0.48947 2.3283 0.33514 0.34396 1.0098 0.51594 2.0241 0.51593h2.5003v2.0373h-2.5003c-1.8785 0-3.175-0.34836-3.8894-1.0451-0.71437-0.70555-1.0716-1.9844-1.0716-3.8364v-8.0433h-1.7859v-1.8918h1.7859v-4.2069h2.4474"/>
  <path id="path3090" style="" d="m776.08 101.63h2.4342v20.585h-2.4342v-20.585"/>
  <path id="path3092" style="" d="m789.33 109.11c-1.3053 0.00002-2.3372 0.51154-3.0956 1.5346-0.75847 1.0142-1.1377 2.4077-1.1377 4.1804-0.00001 1.7727 0.37482 3.1706 1.1245 4.1936 0.75847 1.0142 1.7948 1.5214 3.1088 1.5214 1.2964 0 2.3239-0.51152 3.0824-1.5346 0.75846-1.023 1.1377-2.4165 1.1377-4.1804-0.00001-1.7551-0.37924-3.1441-1.1377-4.1672-0.75849-1.0319-1.786-1.5478-3.0824-1.5478m0-2.0637c2.1167 0.00001 3.7791 0.68793 4.9874 2.0637 1.2082 1.3758 1.8124 3.2808 1.8124 5.715-0.00002 2.4254-0.60415 4.3303-1.8124 5.715-1.2083 1.3758-2.8707 2.0638-4.9874 2.0638-2.1255 0-3.7924-0.68792-5.0006-2.0638-1.1994-1.3846-1.7992-3.2896-1.7992-5.715 0-2.4342 0.59972-4.3392 1.7992-5.715 1.2082-1.3758 2.8751-2.0637 5.0006-2.0637m1.8389-6.4955h2.6326l-4.3127 4.9742h-2.0241l3.7042-4.9742"/>
  <path id="path3094" style="" d="m809.6 107.84v2.3019c-0.68792-0.35277-1.4023-0.61735-2.1431-0.79375-0.74084-0.17638-1.5081-0.26457-2.3019-0.26458-1.2083 0.00001-2.1167 0.18522-2.7252 0.55562-0.59972 0.37043-0.89958 0.92605-0.89958 1.6669 0 0.56446 0.21607 1.0098 0.64823 1.3362 0.43215 0.31751 1.3009 0.62178 2.6061 0.91281l0.83344 0.18521c1.7286 0.37042 2.9545 0.89518 3.6777 1.5743 0.732 0.67028 1.098 1.6096 1.098 2.8178-0.00001 1.3758-0.54682 2.465-1.6404 3.2676-1.0848 0.80256-2.5797 1.2038-4.4847 1.2038-0.79376 0-1.6228-0.0794-2.4871-0.23813-0.85549-0.14993-1.7595-0.37923-2.712-0.68791v-2.5135c0.89958 0.46743 1.7859 0.82021 2.6591 1.0583 0.87312 0.22931 1.7374 0.34396 2.5929 0.34396 1.1465 0 2.0285-0.19403 2.6458-0.58208 0.61735-0.39688 0.92603-0.9525 0.92604-1.6669-0.00001-0.66145-0.2249-1.1686-0.67468-1.5214-0.44098-0.35277-1.4155-0.69232-2.9236-1.0186l-0.84666-0.19844c-1.5081-0.31749-2.5973-0.80256-3.2676-1.4552-0.67028-0.66145-1.0054-1.5654-1.0054-2.712 0-1.3935 0.49389-2.4694 1.4817-3.2279 0.98777-0.75845 2.3901-1.1377 4.2069-1.1377 0.89957 0.00001 1.7462 0.0662 2.54 0.19843 0.79374 0.13231 1.5258 0.33075 2.196 0.59532"/>
  <path id="path3096" style="" d="m708.65 135.5h2.4474v12.158l7.2628-6.3897h3.1088l-7.8581 6.9321 8.1888 7.8846h-3.175l-7.5274-7.2363v7.2363h-2.4474v-20.585"/>
  <path id="path3098" style="" d="m730.72 148.64c-1.9668 0.00001-3.3294 0.2249-4.0878 0.67469-0.75848 0.44979-1.1377 1.2171-1.1377 2.3019 0 0.86431 0.28222 1.5522 0.84667 2.0638 0.57325 0.50271 1.3494 0.75406 2.3283 0.75406 1.3494 0 2.4297-0.47625 3.2411-1.4288 0.82019-0.96131 1.2303-2.2357 1.2303-3.8232v-0.5424h-2.4209m4.8551-1.0054v8.4534h-2.4342v-2.249c-0.55564 0.89958-1.248 1.5654-2.077 1.9976-0.82903 0.42333-1.8433 0.635-3.0427 0.635-1.517 0-2.7252-0.42334-3.6248-1.27-0.89076-0.85548-1.3361-1.9976-1.3361-3.4264 0-1.6669 0.55562-2.9236 1.6669-3.7703 1.1201-0.84666 2.7869-1.27 5.0006-1.27h3.4131v-0.23812c-0.00001-1.1201-0.37043-1.9844-1.1112-2.5929-0.73202-0.61734-1.7639-0.92602-3.0956-0.92604-0.84667 0.00002-1.6713 0.10144-2.4738 0.30427-0.80257 0.20286-1.5743 0.50713-2.3151 0.91282v-2.249c0.89076-0.34394 1.7551-0.59971 2.5929-0.76729 0.83784-0.17637 1.6536-0.26457 2.4474-0.26458 2.1431 0.00001 3.7438 0.55564 4.8022 1.6669 1.0583 1.1113 1.5875 2.7958 1.5875 5.0535"/>
  <path id="path3100" style="" d="m749.19 143.54c-0.27341-0.15874-0.57327-0.27339-0.89958-0.34396-0.31751-0.0794-0.67029-0.11905-1.0583-0.11906-1.3758 0.00001-2.4342 0.4498-3.175 1.3494-0.73202 0.89077-1.098 2.174-1.098 3.8497v7.8052h-2.4474v-14.817h2.4474v2.3019c0.51152-0.89957 1.1774-1.5654 1.9976-1.9976 0.8202-0.44095 1.8168-0.66144 2.9898-0.66145 0.16756 0.00001 0.35277 0.0132 0.55562 0.0397 0.20284 0.0177 0.42773 0.0485 0.67469 0.0926l0.0132 2.5003"/>
  <path id="path3102" style="" d="m758.5 148.64c-1.9667 0.00001-3.3293 0.2249-4.0878 0.67469-0.75847 0.44979-1.1377 1.2171-1.1377 2.3019 0 0.86431 0.28222 1.5522 0.84667 2.0638 0.57326 0.50271 1.3494 0.75406 2.3283 0.75406 1.3494 0 2.4298-0.47625 3.2411-1.4288 0.8202-0.96131 1.2303-2.2357 1.2303-3.8232v-0.5424h-2.4209m4.8551-1.0054v8.4534h-2.4342v-2.249c-0.55563 0.89958-1.248 1.5654-2.077 1.9976-0.82904 0.42333-1.8433 0.635-3.0427 0.635-1.517 0-2.7252-0.42334-3.6248-1.27-0.89077-0.85548-1.3362-1.9976-1.3362-3.4264 0-1.6669 0.55562-2.9236 1.6669-3.7703 1.1201-0.84666 2.7869-1.27 5.0006-1.27h3.4131v-0.23812c-0.00001-1.1201-0.37042-1.9844-1.1112-2.5929-0.73203-0.61734-1.7639-0.92602-3.0956-0.92604-0.84667 0.00002-1.6713 0.10144-2.4738 0.30427-0.80257 0.20286-1.5743 0.50713-2.3151 0.91282v-2.249c0.89076-0.34394 1.7551-0.59971 2.5929-0.76729 0.83784-0.17637 1.6536-0.26457 2.4474-0.26458 2.1431 0.00001 3.7438 0.55564 4.8022 1.6669 1.0583 1.1113 1.5875 2.7958 1.5875 5.0535"/>
  <path id="path3104" style="" d="m768.29 135.5h2.4474v12.158l7.2628-6.3897h3.1088l-7.8581 6.9321 8.1888 7.8846h-3.175l-7.5274-7.2363v7.2363h-2.4474v-20.585"/>
  <path id="path3106" style="" d="m786.51 137.06v4.2069h5.0138v1.8918h-5.0138v8.0433c0 1.2083 0.16316 1.9844 0.48948 2.3283 0.33513 0.34396 1.0098 0.51593 2.0241 0.51593h2.5003v2.0373h-2.5003c-1.8785 0-3.175-0.34837-3.8894-1.0451-0.71438-0.70555-1.0716-1.9844-1.0716-3.8364v-8.0433h-1.7859v-1.8918h1.7859v-4.2069h2.4474"/>
  <path id="path3108" style="" d="m807.41 148.07v1.1906h-11.192c0.10583 1.6757 0.60854 2.9545 1.5081 3.8364 0.90839 0.87313 2.1696 1.3097 3.7835 1.3097 0.93485 0 1.8388-0.11465 2.712-0.34396 0.88193-0.2293 1.755-0.57326 2.6194-1.0319v2.3019c-0.87314 0.37042-1.7683 0.65264-2.6855 0.84667-0.91723 0.19402-1.8477 0.29104-2.7914 0.29104-2.3636 0-4.2377-0.68792-5.6224-2.0638-1.3758-1.3758-2.0637-3.2367-2.0637-5.5827 0-2.4253 0.65263-4.348 1.9579-5.7679 1.3141-1.4287 3.0824-2.1431 5.3049-2.1431 1.9932 0.00001 3.5674 0.64383 4.7228 1.9314 1.1642 1.2788 1.7462 3.0207 1.7462 5.2255m-2.4342-0.71438c-0.0177-1.3317-0.39248-2.3945-1.1245-3.1882-0.7232-0.79374-1.6845-1.1906-2.884-1.1906-1.3582 0.00002-2.4474 0.38366-3.2676 1.1509-0.81139 0.7673-1.2788 1.8477-1.4023 3.2411l8.6783-0.0132"/>
  <path id="path3110" style="" d="m819.99 143.54c-0.27341-0.15874-0.57327-0.27339-0.89958-0.34396-0.31751-0.0794-0.67029-0.11905-1.0583-0.11906-1.3758 0.00001-2.4342 0.4498-3.175 1.3494-0.73202 0.89077-1.098 2.174-1.098 3.8497v7.8052h-2.4474v-14.817h2.4474v2.3019c0.51152-0.89957 1.1774-1.5654 1.9976-1.9976 0.8202-0.44095 1.8168-0.66144 2.9898-0.66145 0.16756 0.00001 0.35277 0.0132 0.55562 0.0397 0.20284 0.0177 0.42773 0.0485 0.67469 0.0926l0.0132 2.5003"/>
  <path id="path3112" style="" d="m834.65 148.07v1.1906h-11.192c0.10583 1.6757 0.60853 2.9545 1.5081 3.8364 0.90839 0.87313 2.1696 1.3097 3.7835 1.3097 0.93485 0 1.8388-0.11465 2.712-0.34396 0.88193-0.2293 1.7551-0.57326 2.6194-1.0319v2.3019c-0.87313 0.37042-1.7683 0.65264-2.6855 0.84667-0.91724 0.19402-1.8477 0.29104-2.7914 0.29104-2.3636 0-4.2378-0.68792-5.6224-2.0638-1.3758-1.3758-2.0638-3.2367-2.0638-5.5827 0-2.4253 0.65264-4.348 1.9579-5.7679 1.3141-1.4287 3.0824-2.1431 5.3049-2.1431 1.9932 0.00001 3.5674 0.64383 4.7228 1.9314 1.1642 1.2788 1.7462 3.0207 1.7462 5.2255m-2.4342-0.71438c-0.0177-1.3317-0.39247-2.3945-1.1245-3.1882-0.72321-0.79374-1.6845-1.1906-2.884-1.1906-1.3582 0.00002-2.4474 0.38366-3.2676 1.1509-0.81139 0.7673-1.2788 1.8477-1.4023 3.2411l8.6783-0.0132"/>
  <path id="path3114" style="" d="m838.55 135.5h2.4474v12.158l7.2628-6.3897h3.1088l-7.8581 6.9321 8.1888 7.8846h-3.175l-7.5274-7.2363v7.2363h-2.4474v-20.585"/>
 </g>
 <g id="g40" stroke="#000" stroke-width="2" fill="none" transform="translate(-1 -10.223)">
  <path id="line42" d="m880 140h155.53"/>
  <path id="polyline44" d="m1027.8 145 10-5-10-5"/>
 </g>
 <g id="text46">
  <path id="path3119" style="" d="m931.83 80.567v8.9429h-2.4342v-8.8635c-0.00001-1.4023-0.27341-2.4518-0.82021-3.1485-0.54681-0.69672-1.367-1.0451-2.4606-1.0451-1.3141 0.000013-2.3504 0.41894-3.1088 1.2568-0.75847 0.83786-1.1377 1.98-1.1377 3.4264v8.3741h-2.4474v-14.817h2.4474v2.3019c0.58207-0.89075 1.2656-1.5566 2.0505-1.9976 0.79374-0.44096 1.7066-0.66144 2.7384-0.66146 1.7021 0.000015 2.9898 0.52918 3.8629 1.5875 0.87311 1.0495 1.3097 2.5973 1.3097 4.6434"/>
  <path id="path3121" style="" d="m935.48 81.004h7.1305v2.1696h-7.1305v-2.1696"/>
  <path id="path3123" style="" d="m959.17 81.493v1.1906h-11.192c0.10583 1.6757 0.60853 2.9545 1.5081 3.8365 0.90839 0.87313 2.1696 1.3097 3.7835 1.3097 0.93485 0.000002 1.8388-0.11465 2.712-0.34396 0.88193-0.2293 1.7551-0.57326 2.6194-1.0319v2.3019c-0.87313 0.37042-1.7683 0.65264-2.6855 0.84666-0.91724 0.19403-1.8477 0.29104-2.7914 0.29104-2.3636-0.000001-4.2378-0.68792-5.6224-2.0637-1.3758-1.3758-2.0638-3.2367-2.0638-5.5827 0-2.4253 0.65264-4.348 1.9579-5.7679 1.3141-1.4287 3.0824-2.1431 5.3049-2.1431 1.9932 0.000015 3.5674 0.64383 4.7228 1.9315 1.1642 1.2788 1.7462 3.0207 1.7462 5.2255m-2.4342-0.71437c-0.0177-1.3317-0.39247-2.3945-1.1245-3.1882-0.72321-0.79374-1.6845-1.1906-2.884-1.1906-1.3582 0.000013-2.4474 0.38366-3.2676 1.1509-0.81139 0.7673-1.2788 1.8477-1.4023 3.2411l8.6783-0.01323"/>
  <path id="path3125" style="" d="m972.92 76.942v-8.0169h2.4342v20.585h-2.4342v-2.2225c-0.51154 0.88194-1.1598 1.539-1.9447 1.9711-0.77612 0.42333-1.711 0.635-2.8046 0.635-1.7904-0.000001-3.25-0.71437-4.3788-2.1431-1.1201-1.4287-1.6801-3.3073-1.6801-5.6356s0.56003-4.2069 1.6801-5.6356c1.1289-1.4287 2.5885-2.1431 4.3788-2.1431 1.0936 0.000015 2.0285 0.21609 2.8046 0.64823 0.78492 0.42335 1.4332 1.076 1.9447 1.9579m-8.2947 5.1726c0 1.7904 0.366 3.197 1.098 4.2201 0.74083 1.0142 1.7551 1.5214 3.0427 1.5214 1.2876 0.000002 2.3019-0.50712 3.0427-1.5214 0.74082-1.023 1.1112-2.4297 1.1112-4.2201-0.00002-1.7903-0.37043-3.1926-1.1112-4.2069-0.74084-1.023-1.7551-1.5346-3.0427-1.5346-1.2876 0.000013-2.3019 0.51154-3.0427 1.5346-0.73202 1.0142-1.098 2.4165-1.098 4.2069"/>
  <path id="path3127" style="" d="m980.37 74.693h2.4342v14.817h-2.4342v-14.817m0-5.7679h2.4342v3.0824h-2.4342v-3.0824"/>
  <path id="path3129" style="" d="m987.79 68.925h2.4474v12.158l7.2628-6.3897h3.1089l-7.8581 6.9321 8.1888 7.8846h-3.175l-7.5274-7.2363v7.2363h-2.4474v-20.585"/>
  <path id="path3131" style="" d="m897.35 102.79h2.4474v12.158l7.2628-6.3897h3.1088l-7.8581 6.9321 8.1888 7.8846h-3.175l-7.5274-7.2364v7.2364h-2.4474v-20.585"/>
  <path id="path3133" style="" d="m919.42 115.93c-1.9667 0-3.3293 0.2249-4.0878 0.67468-0.75847 0.4498-1.1377 1.2171-1.1377 2.3019-0.00001 0.86431 0.28221 1.5522 0.84666 2.0638 0.57326 0.50271 1.3494 0.75406 2.3283 0.75406 1.3494 0 2.4298-0.47624 3.2412-1.4287 0.82019-0.96132 1.2303-2.2357 1.2303-3.8232v-0.54239h-2.4209m4.8551-1.0054v8.4534h-2.4342v-2.249c-0.55564 0.89959-1.248 1.5654-2.077 1.9976-0.82904 0.42334-1.8433 0.635-3.0427 0.635-1.517 0-2.7252-0.42333-3.6248-1.27-0.89077-0.85548-1.3362-1.9976-1.3362-3.4264 0-1.6669 0.55563-2.9236 1.6669-3.7703 1.1201-0.84666 2.7869-1.27 5.0006-1.27h3.4131v-0.23813c-0.00002-1.12-0.37043-1.9844-1.1112-2.5929-0.73203-0.61735-1.7639-0.92603-3.0956-0.92604-0.84668 0.00001-1.6713 0.10144-2.4738 0.30427-0.80258 0.20286-1.5743 0.50713-2.3151 0.91281v-2.249c0.89076-0.34395 1.7551-0.59971 2.5929-0.7673 0.83784-0.17637 1.6536-0.26456 2.4474-0.26458 2.1431 0.00002 3.7438 0.55564 4.8022 1.6669 1.0583 1.1113 1.5875 2.7958 1.5875 5.0535"/>
  <path id="path3135" style="" d="m937.89 110.84c-0.27342-0.15873-0.57328-0.27339-0.89959-0.34396-0.31751-0.0794-0.67028-0.11904-1.0583-0.11906-1.3758 0.00002-2.4342 0.44981-3.175 1.3494-0.73201 0.89077-1.098 2.174-1.098 3.8497v7.8052h-2.4474v-14.817h2.4474v2.3019c0.51152-0.89957 1.1774-1.5654 1.9976-1.9976 0.8202-0.44096 1.8168-0.66144 2.9898-0.66146 0.16756 0.00002 0.35277 0.0132 0.55563 0.0397 0.20284 0.0177 0.42773 0.0485 0.67469 0.0926l0.0132 2.5003"/>
  <path id="path3137" style="" d="m947.2 115.93c-1.9668 0-3.3294 0.2249-4.0878 0.67468-0.75848 0.4498-1.1377 1.2171-1.1377 2.3019 0 0.86431 0.28222 1.5522 0.84667 2.0638 0.57325 0.50271 1.3494 0.75406 2.3283 0.75406 1.3494 0 2.4297-0.47624 3.2411-1.4287 0.8202-0.96132 1.2303-2.2357 1.2303-3.8232v-0.54239h-2.4209m4.8551-1.0054v8.4534h-2.4342v-2.249c-0.55564 0.89959-1.248 1.5654-2.077 1.9976-0.82903 0.42334-1.8433 0.635-3.0427 0.635-1.517 0-2.7252-0.42333-3.6248-1.27-0.89076-0.85548-1.3361-1.9976-1.3361-3.4264 0-1.6669 0.55562-2.9236 1.6669-3.7703 1.1201-0.84666 2.7869-1.27 5.0006-1.27h3.4131v-0.23813c-0.00001-1.12-0.37043-1.9844-1.1112-2.5929-0.73202-0.61735-1.7639-0.92603-3.0956-0.92604-0.84667 0.00001-1.6713 0.10144-2.4738 0.30427-0.80257 0.20286-1.5743 0.50713-2.3151 0.91281v-2.249c0.89076-0.34395 1.7551-0.59971 2.5929-0.7673 0.83784-0.17637 1.6536-0.26456 2.4474-0.26458 2.1431 0.00002 3.7438 0.55564 4.8022 1.6669 1.0583 1.1113 1.5875 2.7958 1.5875 5.0535"/>
  <path id="path3139" style="" d="m956.99 102.79h2.4474v12.158l7.2628-6.3897h3.1088l-7.8581 6.9321 8.1888 7.8846h-3.175l-7.5274-7.2364v7.2364h-2.4474v-20.585"/>
  <path id="path3141" style="" d="m975.21 104.35v4.2069h5.0138v1.8918h-5.0138v8.0433c-0.00001 1.2083 0.16315 1.9844 0.48948 2.3283 0.33513 0.34396 1.0098 0.51594 2.0241 0.51594h2.5003v2.0373h-2.5003c-1.8786 0-3.175-0.34837-3.8894-1.0451-0.71438-0.70555-1.0716-1.9844-1.0716-3.8364v-8.0433h-1.7859v-1.8918h1.7859v-4.2069h2.4474"/>
  <path id="path3143" style="" d="m996.11 115.36v1.1906h-11.192c0.10583 1.6757 0.60854 2.9545 1.5081 3.8364 0.9084 0.87313 2.1696 1.3097 3.7835 1.3097 0.93485 0 1.8388-0.11466 2.712-0.34396 0.88193-0.22931 1.755-0.57326 2.6194-1.0319v2.3019c-0.87314 0.37041-1.7683 0.65263-2.6855 0.84666-0.91723 0.19403-1.8477 0.29104-2.7914 0.29104-2.3636 0-4.2377-0.68791-5.6224-2.0637-1.3758-1.3758-2.0638-3.2367-2.0638-5.5827 0-2.4253 0.65264-4.348 1.9579-5.7679 1.3141-1.4287 3.0824-2.1431 5.3049-2.1431 1.9932 0.00002 3.5674 0.64383 4.7228 1.9315 1.1642 1.2788 1.7462 3.0207 1.7462 5.2255m-2.4342-0.71437c-0.0177-1.3317-0.39248-2.3945-1.1245-3.1882-0.7232-0.79373-1.6845-1.1906-2.884-1.1906-1.3582 0.00001-2.4474 0.38366-3.2676 1.1509-0.81139 0.7673-1.2788 1.8477-1.4023 3.2411l8.6783-0.0132"/>
  <path id="path3145" style="" d="m1008.7 110.84c-0.2734-0.15873-0.5733-0.27339-0.8996-0.34396-0.3175-0.0794-0.6703-0.11904-1.0583-0.11906-1.3759 0.00002-2.4342 0.44981-3.175 1.3494-0.732 0.89077-1.098 2.174-1.098 3.8497v7.8052h-2.4474v-14.817h2.4474v2.3019c0.5115-0.89957 1.1773-1.5654 1.9976-1.9976 0.8202-0.44096 1.8168-0.66144 2.9897-0.66146 0.1676 0.00002 0.3528 0.0132 0.5557 0.0397 0.2028 0.0177 0.4277 0.0485 0.6747 0.0926l0.013 2.5003"/>
  <path id="path3147" style="" d="m1013.9 120.02h2.6856v3.3602h-2.6856v-3.3602m2.6062-1.9447h-2.5268v-2.0373c0-0.89076 0.1235-1.6228 0.3704-2.196 0.247-0.57325 0.7673-1.2391 1.5611-1.9976l1.1906-1.1774c0.5027-0.46741 0.8643-0.90838 1.0848-1.3229 0.2293-0.4145 0.3439-0.83783 0.3439-1.27 0-0.78491-0.291-1.4199-0.8731-1.905-0.5732-0.48505-1.3361-0.72758-2.2886-0.7276-0.6968 0.00002-1.442 0.15436-2.2357 0.46302-0.785 0.3087-1.6052 0.75849-2.4607 1.3494v-2.4871c0.8291-0.50269 1.6669-0.87751 2.5136-1.1245 0.8554-0.24692 1.7374-0.37039 2.6458-0.37041 1.6228 0.00002 2.9236 0.42776 3.9026 1.2832 0.9878 0.8555 1.4817 1.9844 1.4817 3.3867 0 0.67029-0.1588 1.3097-0.4763 1.9182-0.3175 0.59973-0.8731 1.2788-1.6669 2.0373l-1.1641 1.1377c-0.4145 0.41452-0.71 0.74084-0.8864 0.97896-0.1676 0.22931-0.2866 0.45421-0.3572 0.67469-0.053 0.18521-0.093 0.41011-0.119 0.67468-0.026 0.26459-0.04 0.62619-0.04 1.0848v1.6272"/>
 </g>
 <g id="g52" transform="translate(-1 -10.223)">
  <path id="rect54" fill="#ccc" d="m1040 100h200v80h-200z"/>
  <path id="rect56" d="m1040 100h200v80h-200z" stroke="#000" stroke-width="2" fill="none"/>
 </g>
 <g id="text58">
  <path id="path3152" style="" d="m1115.6 114.77c-1.9667 0.00001-3.3293 0.2249-4.0878 0.67469-0.7584 0.44979-1.1377 1.2171-1.1377 2.3019 0 0.86431 0.2822 1.5522 0.8467 2.0638 0.5733 0.50271 1.3494 0.75406 2.3283 0.75406 1.3494 0 2.4298-0.47625 3.2412-1.4288 0.8202-0.96131 1.2303-2.2357 1.2303-3.8232v-0.5424h-2.421m4.8551-1.0054v8.4534h-2.4341v-2.249c-0.5557 0.89958-1.248 1.5654-2.077 1.9976-0.829 0.42333-1.8433 0.635-3.0427 0.635-1.5169 0-2.7252-0.42334-3.6248-1.27-0.8908-0.85548-1.3361-1.9976-1.3361-3.4264 0-1.6669 0.5556-2.9236 1.6668-3.7703 1.1201-0.84666 2.787-1.27 5.0007-1.27h3.4131v-0.23812c0-1.1201-0.3704-1.9844-1.1113-2.5929-0.732-0.61734-1.7639-0.92602-3.0956-0.92604-0.8467 0.00002-1.6713 0.10144-2.4738 0.30427-0.8026 0.20286-1.5743 0.50713-2.3151 0.91282v-2.249c0.8907-0.34394 1.755-0.59971 2.5929-0.76729 0.8378-0.17637 1.6536-0.26457 2.4474-0.26458 2.1431 0.00001 3.7438 0.55564 4.8021 1.6669 1.0584 1.1113 1.5875 2.7958 1.5875 5.0535m-4.445-13.216h2.6327l-4.3128 4.9742h-2.024l3.7041-4.9742"/>
  <path id="path3154" style="" d="m1127.8 103.2v4.2069h5.0139v1.8918h-5.0139v8.0433c0 1.2083 0.1632 1.9844 0.4895 2.3283 0.3351 0.34396 1.0098 0.51594 2.0241 0.51593h2.5003v2.0373h-2.5003c-1.8786 0-3.175-0.34836-3.8894-1.0451-0.7144-0.70555-1.0716-1.9844-1.0716-3.8364v-8.0433h-1.7859v-1.8918h1.7859v-4.2069h2.4474"/>
  <path id="path3156" style="" d="m1136.1 101.63h2.4341v20.585h-2.4341v-20.585"/>
  <path id="path3158" style="" d="m1149.3 109.11c-1.3053 0.00002-2.3372 0.51154-3.0957 1.5346-0.7584 1.0142-1.1377 2.4077-1.1377 4.1804s0.3749 3.1706 1.1245 4.1936c0.7585 1.0142 1.7948 1.5214 3.1089 1.5214 1.2964 0 2.3239-0.51152 3.0824-1.5346 0.7584-1.023 1.1377-2.4165 1.1377-4.1804 0-1.7551-0.3793-3.1441-1.1377-4.1672-0.7585-1.0319-1.786-1.5478-3.0824-1.5478m0-2.0637c2.1166 0.00001 3.7791 0.68793 4.9874 2.0637 1.2082 1.3758 1.8123 3.2808 1.8123 5.715 0 2.4254-0.6041 4.3303-1.8123 5.715-1.2083 1.3758-2.8708 2.0638-4.9874 2.0638-2.1255 0-3.7924-0.68792-5.0007-2.0638-1.1994-1.3846-1.7991-3.2896-1.7991-5.715 0-2.4342 0.5997-4.3392 1.7991-5.715 1.2083-1.3758 2.8752-2.0637 5.0007-2.0637m1.8388-6.4955h2.6326l-4.3127 4.9742h-2.024l3.7041-4.9742"/>
  <path id="path3160" style="" d="m1169.6 107.84v2.3019c-0.6879-0.35277-1.4023-0.61735-2.1431-0.79375-0.7408-0.17638-1.5081-0.26457-2.3019-0.26458-1.2082 0.00001-2.1166 0.18522-2.7252 0.55562-0.5997 0.37043-0.8996 0.92605-0.8996 1.6669 0 0.56446 0.2161 1.0098 0.6483 1.3362 0.4321 0.31751 1.3008 0.62178 2.6061 0.91281l0.8334 0.18521c1.7286 0.37042 2.9545 0.89518 3.6778 1.5743 0.732 0.67028 1.098 1.6096 1.098 2.8178 0 1.3758-0.5468 2.465-1.6404 3.2676-1.0848 0.80256-2.5797 1.2038-4.4847 1.2038-0.7938 0-1.6228-0.0794-2.4871-0.23813-0.8555-0.14993-1.7595-0.37923-2.712-0.68791v-2.5135c0.8996 0.46743 1.786 0.82021 2.6591 1.0583 0.8731 0.22931 1.7374 0.34396 2.5929 0.34396 1.1465 0 2.0285-0.19403 2.6458-0.58208 0.6174-0.39688 0.9261-0.9525 0.9261-1.6669 0-0.66145-0.2249-1.1686-0.6747-1.5214-0.441-0.35277-1.4156-0.69232-2.9237-1.0186l-0.8466-0.19844c-1.5082-0.31749-2.5974-0.80256-3.2676-1.4552-0.6703-0.66145-1.0054-1.5654-1.0054-2.712 0-1.3935 0.4938-2.4694 1.4816-3.2279 0.9878-0.75845 2.3901-1.1377 4.2069-1.1377 0.8996 0.00001 1.7462 0.0662 2.54 0.19843 0.7937 0.13231 1.5257 0.33075 2.196 0.59532"/>
  <path id="path3162" style="" d="m1068.7 135.5h2.4474v12.158l7.2628-6.3897h3.1088l-7.8581 6.9321 8.1889 7.8846h-3.175l-7.5274-7.2363v7.2363h-2.4474v-20.585"/>
  <path id="path3164" style="" d="m1090.7 148.64c-1.9667 0.00001-3.3293 0.2249-4.0878 0.67469s-1.1377 1.2171-1.1377 2.3019c0 0.86431 0.2822 1.5522 0.8467 2.0638 0.5732 0.50271 1.3493 0.75406 2.3283 0.75406 1.3494 0 2.4297-0.47625 3.2411-1.4288 0.8202-0.96131 1.2303-2.2357 1.2303-3.8232v-0.5424h-2.4209m4.8551-1.0054v8.4534h-2.4342v-2.249c-0.5556 0.89958-1.2479 1.5654-2.0769 1.9976-0.8291 0.42333-1.8433 0.635-3.0427 0.635-1.517 0-2.7252-0.42334-3.6248-1.27-0.8908-0.85548-1.3362-1.9976-1.3362-3.4264 0-1.6669 0.5557-2.9236 1.6669-3.7703 1.1201-0.84666 2.7869-1.27 5.0006-1.27h3.4131v-0.23812c0-1.1201-0.3704-1.9844-1.1112-2.5929-0.732-0.61734-1.7639-0.92602-3.0956-0.92604-0.8467 0.00002-1.6713 0.10144-2.4739 0.30427-0.8025 0.20286-1.5742 0.50713-2.3151 0.91282v-2.249c0.8908-0.34394 1.7551-0.59971 2.5929-0.76729 0.8379-0.17637 1.6537-0.26457 2.4474-0.26458 2.1431 0.00001 3.7439 0.55564 4.8022 1.6669s1.5875 2.7958 1.5875 5.0535"/>
  <path id="path3166" style="" d="m1109.2 143.54c-0.2734-0.15874-0.5733-0.27339-0.8996-0.34396-0.3175-0.0794-0.6703-0.11905-1.0583-0.11906-1.3758 0.00001-2.4342 0.4498-3.175 1.3494-0.732 0.89077-1.098 2.174-1.098 3.8497v7.8052h-2.4474v-14.817h2.4474v2.3019c0.5115-0.89957 1.1774-1.5654 1.9976-1.9976 0.8202-0.44095 1.8168-0.66144 2.9898-0.66145 0.1675 0.00001 0.3527 0.0132 0.5556 0.0397 0.2028 0.0177 0.4277 0.0485 0.6747 0.0926l0.013 2.5003"/>
  <path id="path3168" style="" d="m1118.5 148.64c-1.9667 0.00001-3.3293 0.2249-4.0878 0.67469s-1.1377 1.2171-1.1377 2.3019c0 0.86431 0.2822 1.5522 0.8467 2.0638 0.5732 0.50271 1.3493 0.75406 2.3283 0.75406 1.3494 0 2.4298-0.47625 3.2412-1.4288 0.8201-0.96131 1.2303-2.2357 1.2303-3.8232v-0.5424h-2.421m4.8551-1.0054v8.4534h-2.4341v-2.249c-0.5557 0.89958-1.248 1.5654-2.077 1.9976-0.829 0.42333-1.8433 0.635-3.0427 0.635-1.517 0-2.7252-0.42334-3.6248-1.27-0.8908-0.85548-1.3362-1.9976-1.3361-3.4264-0.0001-1.6669 0.5556-2.9236 1.6668-3.7703 1.1201-0.84666 2.787-1.27 5.0006-1.27h3.4132v-0.23812c0-1.1201-0.3705-1.9844-1.1113-2.5929-0.732-0.61734-1.7639-0.92602-3.0956-0.92604-0.8467 0.00002-1.6713 0.10144-2.4739 0.30427-0.8025 0.20286-1.5742 0.50713-2.3151 0.91282v-2.249c0.8908-0.34394 1.7551-0.59971 2.593-0.76729 0.8378-0.17637 1.6536-0.26457 2.4473-0.26458 2.1432 0.00001 3.7439 0.55564 4.8022 1.6669s1.5875 2.7958 1.5875 5.0535"/>
  <path id="path3170" style="" d="m1128.3 135.5h2.4474v12.158l7.2628-6.3897h3.1088l-7.8581 6.9321 8.1889 7.8846h-3.175l-7.5274-7.2363v7.2363h-2.4474v-20.585"/>
  <path id="path3172" style="" d="m1146.5 137.06v4.2069h5.0139v1.8918h-5.0139v8.0433c0 1.2083 0.1632 1.9844 0.4895 2.3283 0.3352 0.34396 1.0098 0.51593 2.0241 0.51593h2.5003v2.0373h-2.5003c-1.8786 0-3.175-0.34837-3.8894-1.0451-0.7144-0.70555-1.0716-1.9844-1.0715-3.8364v-8.0433h-1.786v-1.8918h1.786v-4.2069h2.4473"/>
  <path id="path3174" style="" d="m1167.4 148.07v1.1906h-11.192c0.1059 1.6757 0.6086 2.9545 1.5082 3.8364 0.9084 0.87313 2.1695 1.3097 3.7835 1.3097 0.9348 0 1.8388-0.11465 2.712-0.34396 0.8819-0.2293 1.755-0.57326 2.6193-1.0319v2.3019c-0.8731 0.37042-1.7683 0.65264-2.6855 0.84667-0.9172 0.19402-1.8477 0.29104-2.7913 0.29104-2.3636 0-4.2378-0.68792-5.6224-2.0638-1.3758-1.3758-2.0638-3.2367-2.0638-5.5827 0-2.4253 0.6527-4.348 1.958-5.7679 1.314-1.4287 3.0823-2.1431 5.3048-2.1431 1.9932 0.00001 3.5675 0.64383 4.7228 1.9314 1.1642 1.2788 1.7463 3.0207 1.7463 5.2255m-2.4342-0.71438c-0.018-1.3317-0.3924-2.3945-1.1244-3.1882-0.7233-0.79374-1.6846-1.1906-2.884-1.1906-1.3582 0.00002-2.4474 0.38366-3.2676 1.1509-0.8114 0.7673-1.2788 1.8477-1.4023 3.2411l8.6783-0.0132"/>
  <path id="path3176" style="" d="m1180 143.54c-0.2734-0.15874-0.5733-0.27339-0.8996-0.34396-0.3175-0.0794-0.6702-0.11905-1.0583-0.11906-1.3758 0.00001-2.4342 0.4498-3.175 1.3494-0.732 0.89077-1.098 2.174-1.098 3.8497v7.8052h-2.4474v-14.817h2.4474v2.3019c0.5115-0.89957 1.1774-1.5654 1.9976-1.9976 0.8202-0.44095 1.8168-0.66144 2.9898-0.66145 0.1675 0.00001 0.3527 0.0132 0.5556 0.0397 0.2028 0.0177 0.4277 0.0485 0.6747 0.0926l0.013 2.5003"/>
  <path id="path3178" style="" d="m1194.6 148.07v1.1906h-11.192c0.1058 1.6757 0.6085 2.9545 1.5081 3.8364 0.9084 0.87313 2.1696 1.3097 3.7835 1.3097 0.9349 0 1.8389-0.11465 2.712-0.34396 0.8819-0.2293 1.755-0.57326 2.6194-1.0319v2.3019c-0.8732 0.37042-1.7683 0.65264-2.6856 0.84667-0.9172 0.19402-1.8476 0.29104-2.7913 0.29104-2.3636 0-4.2377-0.68792-5.6224-2.0638-1.3758-1.3758-2.0637-3.2367-2.0637-5.5827 0-2.4253 0.6526-4.348 1.9579-5.7679 1.3141-1.4287 3.0824-2.1431 5.3049-2.1431 1.9931 0.00001 3.5674 0.64383 4.7228 1.9314 1.1641 1.2788 1.7462 3.0207 1.7462 5.2255m-2.4341-0.71438c-0.018-1.3317-0.3925-2.3945-1.1245-3.1882-0.7232-0.79374-1.6845-1.1906-2.884-1.1906-1.3582 0.00002-2.4474 0.38366-3.2676 1.1509-0.8114 0.7673-1.2788 1.8477-1.4023 3.2411l8.6784-0.0132"/>
  <path id="path3180" style="" d="m1198.6 135.5h2.4474v12.158l7.2628-6.3897h3.1089l-7.8581 6.9321 8.1888 7.8846h-3.175l-7.5274-7.2363v7.2363h-2.4474v-20.585"/>
 </g>
 <g id="g64" stroke="#000" stroke-width="2" fill="none" transform="translate(-1 -10.223)">
  <path id="line66" d="m1240 140h155.53"/>
  <path id="polyline68" d="m1387.8 145 10-5-10-5"/>
 </g>
 <g id="text70">
  <path id="path3185" style="" d="m1422.1 129.04h2.7913v3.3602h-2.7913v-3.3602m9.0223 0h2.7913v3.3602h-2.7913v-3.3602m9.0222 0h2.7914v3.3602h-2.7914v-3.3602"/>
 </g>
</svg>
