<?xml version="1.0" encoding="UTF-8" standalone="no"?>
<!-- Created with Inkscape (http://www.inkscape.org/) -->
<svg id="svg2" xmlns:rdf="http://www.w3.org/1999/02/22-rdf-syntax-ns#" xmlns="http://www.w3.org/2000/svg" height="809.24" width="225.43" version="1.1" xmlns:cc="http://creativecommons.org/ns#" xmlns:dc="http://purl.org/dc/elements/1.1/" viewBox="399 -13 114.52041 444.85481">
 <metadata id="metadata108">
  <rdf:RDF>
   <cc:Work rdf:about="">
    <dc:format>image/svg+xml</dc:format>
    <dc:type rdf:resource="http://purl.org/dc/dcmitype/StillImage"/>
   </cc:Work>
  </rdf:RDF>
 </metadata>
 <g id="g4" transform="translate(-4.7025 -2.7077)">
  <g id="g6">
   <path id="polygon8" fill="#fff" d="m520 76v4l-52 52v36h-16v-36l-52-52v-4z"/>
   <path id="polygon10" d="m520 76v4l-52 52v36h-16v-36l-52-52v-4z" stroke="#000" stroke-width="2" fill="none"/>
  </g>
  <g id="g12">
   <path id="ellipse14" fill="#fff" d="m520 75c0 8.2843-26.863 15-60 15s-60-6.7157-60-15 26.863-15 60-15 60 6.7157 60 15z"/>
   <path id="ellipse16" d="m520 75c0 8.2843-26.863 15-60 15s-60-6.7157-60-15 26.863-15 60-15 60 6.7157 60 15z" stroke="#000" stroke-width="2" fill="none"/>
  </g>
 </g>
 <g id="text18">
  <path id="path3037" style="" d="m400.57 25.884h1.2171v7.4084h-1.2171v-7.4084m0-2.884h1.2171v1.5412h-1.2171v-1.5412"/>
  <path id="path3039" style="" d="m410.49 28.821v4.4715h-1.2171v-4.4318c-0.00001-0.70114-0.13671-1.2259-0.4101-1.5743-0.27341-0.34836-0.68352-0.52255-1.2303-0.52255-0.65705 0.000006-1.1752 0.20947-1.5544 0.62839-0.37924 0.41893-0.56886 0.98999-0.56886 1.7132v4.187h-1.2237v-7.4084h1.2237v1.1509c0.29104-0.44538 0.6328-0.77831 1.0253-0.9988 0.39687-0.22048 0.85328-0.33072 1.3692-0.33073 0.85107 0.000008 1.4949 0.26459 1.9315 0.79375 0.43656 0.52476 0.65484 1.2987 0.65485 2.3217"/>
  <path id="path3041" style="" d="m414.13 23.781v2.1034h2.5069v0.94589h-2.5069v4.0217c0 0.60414 0.0816 0.99219 0.24474 1.1642 0.16757 0.17198 0.50491 0.25797 1.012 0.25797h1.2502v1.0186h-1.2502c-0.93927 0-1.5875-0.17418-1.9447-0.52255-0.35719-0.35278-0.53578-0.99219-0.53578-1.9182v-4.0217h-0.89297v-0.94589h0.89297v-2.1034h1.2237"/>
 </g>
 <g id="text22">
  <path id="path3044" style="" d="m442.34-8.6939c0.30427-0.5468 0.66807-0.95029 1.0914-1.2105 0.42333-0.26017 0.92163-0.39025 1.4949-0.39026 0.77169 0.000008 1.367 0.27121 1.7859 0.8136 0.41892 0.53799 0.62838 1.3053 0.62839 2.3019v4.4715h-1.2237v-4.4318c-0.00001-0.70996-0.12569-1.2369-0.37703-1.5809-0.25137-0.34395-0.63501-0.51593-1.1509-0.51594-0.6306 0.0000065-1.1289 0.20947-1.4949 0.62839-0.36602 0.41893-0.54902 0.98999-0.54901 1.7132v4.187h-1.2237v-4.4318c0-0.71437-0.12568-1.2413-0.37703-1.5809-0.25136-0.34395-0.63941-0.51593-1.1642-0.51594-0.62177 0.0000065-1.1157 0.21167-1.4817 0.635-0.36601 0.41893-0.54901 0.98779-0.54901 1.7066v4.187h-1.2237v-7.4084h1.2237v1.1509c0.27781-0.4542 0.61075-0.78934 0.99881-1.0054 0.38805-0.21607 0.84886-0.32411 1.3824-0.32412 0.53798 0.000008 0.99439 0.13671 1.3692 0.41011 0.37923 0.27341 0.65925 0.67029 0.84005 1.1906"/>
  <path id="path3046" style="" d="m453.14-6.4317c-0.98337 0.0000038-1.6647 0.11245-2.0439 0.33734-0.37924 0.2249-0.56885 0.60855-0.56885 1.1509 0 0.43216 0.14111 0.77611 0.42333 1.0319 0.28663 0.25136 0.67469 0.37703 1.1642 0.37703 0.67469 8e-7 1.2149-0.23812 1.6206-0.71438 0.4101-0.48066 0.61515-1.1179 0.61516-1.9116v-0.2712h-1.2105m2.4276-0.50271v4.2267h-1.2171v-1.1245c-0.27782 0.44979-0.62399 0.78273-1.0385 0.9988-0.41452 0.21167-0.92163 0.3175-1.5214 0.3175-0.75848-2e-7 -1.3626-0.21167-1.8124-0.635-0.44539-0.42774-0.66808-0.9988-0.66808-1.7132 0-0.83344 0.27781-1.4618 0.83344-1.8852 0.56003-0.42333 1.3935-0.635 2.5003-0.635h1.7066v-0.11906c-0.00001-0.56003-0.18522-0.99218-0.55563-1.2965-0.36601-0.30867-0.88195-0.46302-1.5478-0.46302-0.42333 0.0000065-0.83564 0.050718-1.2369 0.15214-0.40128 0.10143-0.78714 0.25357-1.1576 0.45641v-1.1245c0.44538-0.17197 0.87753-0.29985 1.2965-0.38365 0.41892-0.08819 0.82682-0.13228 1.2237-0.13229 1.0716 0.000008 1.8719 0.27782 2.4011 0.83344 0.52916 0.55563 0.79375 1.3979 0.79375 2.5268"/>
  <path id="path3048" style="" d="m458.08-10.116h1.2171v7.4084h-1.2171v-7.4084m0-2.884h1.2171v1.5412h-1.2171v-1.5412"/>
  <path id="path3050" style="" d="m468-7.1792v4.4715h-1.2171v-4.4318c-0.00001-0.70114-0.13671-1.2259-0.41011-1.5743-0.27341-0.34836-0.68351-0.52255-1.2303-0.52255-0.65706 0.0000065-1.1752 0.20947-1.5544 0.62839-0.37924 0.41893-0.56886 0.98999-0.56886 1.7132v4.187h-1.2237v-7.4084h1.2237v1.1509c0.29104-0.44538 0.63279-0.77831 1.0253-0.9988 0.39688-0.22048 0.85328-0.33072 1.3692-0.33073 0.85107 0.000008 1.4949 0.26459 1.9315 0.79375 0.43655 0.52476 0.65484 1.2987 0.65484 2.3217"/>
 </g>
 <g id="text26">
  <path id="path3053" style="" d="m477.75 26.181v3.9291h-1.2237v-10.226h1.2237v1.1245c0.25576-0.44097 0.57767-0.76729 0.96573-0.97896 0.39247-0.21607 0.8599-0.32411 1.4023-0.32412 0.89958 0.000008 1.6294 0.3572 2.1894 1.0716 0.56444 0.71438 0.84666 1.6537 0.84667 2.8178-0.00001 1.1642-0.28223 2.1034-0.84667 2.8178-0.56004 0.71438-1.2898 1.0716-2.1894 1.0716-0.5424 0-1.0098-0.10583-1.4023-0.3175-0.38806-0.21608-0.70997-0.5446-0.96573-0.98558m4.1407-2.5863c-0.00001-0.89517-0.18521-1.5963-0.55563-2.1034-0.36601-0.51152-0.87092-0.76729-1.5147-0.76729-0.64382 0.000007-1.1509 0.25577-1.5214 0.76729-0.36601 0.50712-0.54901 1.2083-0.54901 2.1034 0 0.89518 0.183 1.5985 0.54901 2.1101 0.37042 0.50712 0.87754 0.76068 1.5214 0.76068 0.64382 0 1.1487-0.25356 1.5147-0.76068 0.37042-0.51153 0.55562-1.2149 0.55563-2.1101"/>
  <path id="path3055" style="" d="m489.47 21.022c-0.13671-0.07937-0.28664-0.1367-0.4498-0.17198-0.15875-0.03968-0.33514-0.05953-0.52916-0.05953-0.68793 0.000007-1.2171 0.2249-1.5875 0.67469-0.36601 0.44539-0.54901 1.087-0.54901 1.9248v3.9026h-1.2237v-7.4084h1.2237v1.1509c0.25576-0.44979 0.5887-0.78272 0.9988-0.9988 0.41011-0.22048 0.90841-0.33072 1.4949-0.33073 0.0838 0.000008 0.17639 0.0066 0.27782 0.01984 0.10142 0.0088 0.21386 0.02426 0.33734 0.0463l0.007 1.2502"/>
  <path id="path3057" style="" d="m490.76 19.884h1.2171v7.4084h-1.2171v-7.4084m0-2.884h1.2171v1.5412h-1.2171v-1.5412"/>
  <path id="path3059" style="" d="m500.67 22.821v4.4715h-1.2171v-4.4318c0-0.70114-0.13671-1.2259-0.4101-1.5743-0.27341-0.34836-0.68352-0.52255-1.2303-0.52255-0.65705 0.000006-1.1752 0.20947-1.5544 0.62839-0.37924 0.41893-0.56886 0.98999-0.56886 1.7132v4.187h-1.2237v-7.4084h1.2237v1.1509c0.29104-0.44538 0.6328-0.77831 1.0253-0.9988 0.39687-0.22048 0.85328-0.33072 1.3692-0.33073 0.85107 0.000008 1.4949 0.26459 1.9315 0.79375 0.43656 0.52476 0.65484 1.2987 0.65485 2.3217"/>
  <path id="path3061" style="" d="m504.32 17.781v2.1034h2.5069v0.94589h-2.5069v4.0217c0 0.60414 0.0816 0.99219 0.24474 1.1642 0.16757 0.17198 0.50491 0.25797 1.012 0.25797h1.2502v1.0186h-1.2502c-0.93928 0-1.5875-0.17418-1.9447-0.52255-0.35719-0.35278-0.53578-0.99219-0.53578-1.9182v-4.0217h-0.89297v-0.94589h0.89297v-2.1034h1.2237"/>
  <path id="path3063" style="" d="m512.18 17v1.012h-1.1642c-0.43656 0.000009-0.74084 0.0882-0.91281 0.26458-0.16758 0.1764-0.25136 0.4939-0.25136 0.9525v0.65484h2.0042v0.94589h-2.0042v6.4625h-1.2237v-6.4625h-1.1642v-0.94589h1.1642v-0.51594c0-0.82461 0.19182-1.4243 0.57547-1.7992 0.38365-0.37923 0.99219-0.56884 1.8256-0.56886h1.1509"/>
 </g>
 <g id="text30">
  <path id="path3066" style="" d="m458.22 22.549v0.9525h-0.4101c-1.098-0.000003-1.8345-0.16316-2.2093-0.48948-0.37042-0.32632-0.55563-0.97676-0.55563-1.9513v-1.5809c0-0.66587-0.11906-1.1267-0.35719-1.3825-0.23812-0.25576-0.67028-0.38364-1.2965-0.38365h-0.40349v-0.94589h0.40349c0.63059 0.000005 1.0628-0.12567 1.2965-0.37703 0.23813-0.25576 0.35719-0.71217 0.35719-1.3692v-1.5875c0-0.97454 0.18521-1.6228 0.55563-1.9447 0.37482-0.32631 1.1112-0.48947 2.2093-0.48948h0.4101v0.94589h-0.44979c-0.62178 0.000009-1.0275 0.09702-1.2171 0.29104-0.18962 0.19404-0.28443 0.60194-0.28443 1.2237v1.6404c0 0.69233-0.10143 1.195-0.30427 1.5081-0.19844 0.3131-0.54019 0.52476-1.0253 0.635 0.48948 0.11907 0.83343 0.33514 1.0319 0.64823 0.19843 0.31309 0.29765 0.8136 0.29765 1.5015v1.6404c0 0.62177 0.0948 1.0297 0.28443 1.2237 0.18961 0.19403 0.59531 0.29104 1.2171 0.29104h0.44979"/>
 </g>
 <g id="text34">
  <path id="path3069" style="" d="m512.99 6.5491h0.46302c0.61736-0.0000012 1.0186-0.09481 1.2039-0.28443 0.18962-0.18962 0.28443-0.59972 0.28443-1.2303v-1.6404c0-0.68792 0.0992-1.1884 0.29766-1.5015 0.19843-0.31309 0.54239-0.52916 1.0319-0.64823-0.48948-0.11024-0.83344-0.32191-1.0319-0.635-0.19845-0.31309-0.29766-0.8158-0.29766-1.5081v-1.6404c0-0.62617-0.0948-1.0341-0.28443-1.2237-0.18521-0.19402-0.5865-0.29103-1.2039-0.29104h-0.46302v-0.94589h0.41672c1.098 0.0000103 1.83 0.16317 2.196 0.48948 0.37041 0.32192 0.55562 0.97015 0.55563 1.9447v1.5875c-0.00001 0.65706 0.11905 1.1135 0.35718 1.3692 0.23812 0.25136 0.67028 0.37704 1.2965 0.37703h0.4101v0.94589h-0.4101c-0.62619 0.0000036-1.0584 0.12789-1.2965 0.38365-0.23813 0.25577-0.35719 0.71658-0.35718 1.3825v1.5809c-0.00001 0.97455-0.18522 1.625-0.55563 1.9513-0.36601 0.32632-1.098 0.48948-2.196 0.48948h-0.41672v-0.9525"/>
 </g>
 <g id="text38">
  <path id="path3072" style="" d="m413.73 3.4167v3.6711h-1.1245v-3.6711h1.1245m2.5003 0v3.6711h-1.1245v-3.6711h1.1245"/>
 </g>
 <g id="text42">
  <path id="path3075" style="" d="m406.88 50.287h1.3957v1.6801h-1.3957v-1.6801m0 5.3248h1.3957v1.1377l-1.0848 2.1167h-0.85328l0.5424-2.1167v-1.1377"/>
 </g>
 <g id="text46">
  <path id="path3078" style="" d="m449.6 38.296c-0.68792 0.000009-1.2061 0.33956-1.5544 1.0186-0.34396 0.6747-0.51594 1.6911-0.51594 3.0493 0 1.3538 0.17198 2.3702 0.51594 3.0493 0.34836 0.67469 0.86651 1.012 1.5544 1.012 0.69232 0.000001 1.2105-0.33734 1.5544-1.012 0.34836-0.6791 0.52255-1.6955 0.52255-3.0493 0-1.3582-0.17419-2.3746-0.52255-3.0493-0.34396-0.67909-0.86211-1.0186-1.5544-1.0186m0-1.0583c1.1068 0.00001 1.9513 0.43878 2.5334 1.3163 0.58649 0.87314 0.87973 2.1431 0.87974 3.81-0.00001 1.6625-0.29325 2.9325-0.87974 3.81-0.58209 0.87313-1.4266 1.3097-2.5334 1.3097s-1.9535-0.43656-2.54-1.3097c-0.58208-0.87754-0.87313-2.1475-0.87312-3.81-0.00001-1.6669 0.29104-2.9369 0.87312-3.81 0.58649-0.87753 1.4332-1.3163 2.54-1.3163"/>
 </g>
 <g id="text50">
  <path id="path3081" style="" d="m490.32 37v1.012h-1.1642c-0.43657 0.000009-0.74084 0.0882-0.91281 0.26458-0.16758 0.1764-0.25136 0.4939-0.25136 0.9525v0.65484h2.0042v0.94589h-2.0042v6.4625h-1.2237v-6.4625h-1.1642v-0.94589h1.1642v-0.51594c0-0.82461 0.19182-1.4243 0.57547-1.7992 0.38364-0.37923 0.99219-0.56884 1.8256-0.56886h1.1509"/>
  <path id="path3083" style="" d="m494.21 40.737c-0.65264 0.000007-1.1686 0.25577-1.5478 0.76729-0.37924 0.50712-0.56885 1.2039-0.56885 2.0902 0 0.88636 0.18741 1.5853 0.56224 2.0968 0.37923 0.50712 0.89738 0.76068 1.5544 0.76068 0.64823 0.000001 1.162-0.25576 1.5412-0.76729 0.37923-0.51153 0.56885-1.2083 0.56886-2.0902-0.00001-0.87753-0.18963-1.5721-0.56886-2.0836-0.37924-0.51593-0.89297-0.7739-1.5412-0.77391m0-1.0319c1.0583 0.000008 1.8896 0.34397 2.4937 1.0319 0.60413 0.68792 0.9062 1.6404 0.9062 2.8575 0 1.2127-0.30207 2.1652-0.9062 2.8575-0.60414 0.68792-1.4354 1.0319-2.4937 1.0319-1.0628 0-1.8962-0.34396-2.5003-1.0319-0.59972-0.69233-0.89958-1.6448-0.89958-2.8575 0-1.2171 0.29986-2.1696 0.89958-2.8575 0.60413-0.68791 1.4376-1.0319 2.5003-1.0319"/>
  <path id="path3085" style="" d="m503.91 41.022c-0.13671-0.07937-0.28664-0.1367-0.44979-0.17198-0.15876-0.03968-0.33515-0.05953-0.52917-0.05953-0.68792 0.000007-1.2171 0.2249-1.5875 0.67469-0.36601 0.44539-0.54901 1.087-0.54901 1.9248v3.9026h-1.2237v-7.4084h1.2237v1.1509c0.25576-0.44979 0.5887-0.78272 0.99881-0.9988 0.4101-0.22048 0.9084-0.33072 1.4949-0.33073 0.0838 0.000008 0.17638 0.0066 0.27781 0.01984 0.10142 0.0088 0.21387 0.02426 0.33734 0.0463l0.007 1.2502"/>
 </g>
 <g id="text54">
  <path id="path3088" style="" d="m434.35 97.492v4.225h-1.15v-4.1875c0-0.6625-0.12917-1.1583-0.3875-1.4875-0.25833-0.32916-0.64583-0.49374-1.1625-0.49375-0.62083 0.000006-1.1104 0.19792-1.4688 0.59375-0.35833 0.39584-0.5375 0.93542-0.5375 1.6188v3.9562h-1.1562v-9.725h1.1562v3.8125c0.275-0.42083 0.59792-0.73541 0.96875-0.94375 0.375-0.20833 0.80625-0.31249 1.2938-0.3125 0.80417 0.000007 1.4125 0.25001 1.825 0.75 0.4125 0.49584 0.61875 1.2271 0.61875 2.1938"/>
  <path id="path3090" style="" d="m442.64 97.93v0.5625h-5.2875c0.05 0.79167 0.2875 1.3958 0.7125 1.8125 0.42917 0.4125 1.025 0.61875 1.7875 0.61875 0.44167 0 0.86875-0.0542 1.2812-0.1625 0.41667-0.10833 0.82916-0.27083 1.2375-0.4875v1.0875c-0.4125 0.175-0.83542 0.30834-1.2688 0.4-0.43333 0.0917-0.87292 0.1375-1.3188 0.1375-1.1167 0-2.0021-0.325-2.6562-0.975-0.65-0.65-0.975-1.5292-0.975-2.6375 0-1.1458 0.30834-2.0542 0.925-2.725 0.62084-0.67499 1.4562-1.0125 2.5062-1.0125 0.94167 0.000007 1.6854 0.30417 2.2312 0.9125 0.55 0.60417 0.825 1.4271 0.825 2.4688m-1.15-0.3375c-0.008-0.62916-0.18542-1.1312-0.53125-1.5062-0.34167-0.37499-0.79583-0.56249-1.3625-0.5625-0.64167 0.000006-1.1562 0.18126-1.5438 0.54375-0.38333 0.36251-0.60416 0.87292-0.6625 1.5312l4.1-0.0063"/>
  <path id="path3092" style="" d="m444.53 91.992h1.15v9.725h-1.15v-9.725"/>
  <path id="path3094" style="" d="m450.99 102.37c-0.325 0.83334-0.64167 1.3771-0.95 1.6312-0.30833 0.25417-0.72083 0.38125-1.2375 0.38125h-0.91875v-0.9625h0.675c0.31667 0 0.5625-0.075 0.7375-0.225s0.36875-0.50416 0.58125-1.0625l0.20625-0.525-2.8312-6.8875h1.2188l2.1875 5.475 2.1875-5.475h1.2188l-3.075 7.65"/>
  <path id="path3096" style="" d="m461.64 97.93v0.5625h-5.2875c0.05 0.79167 0.2875 1.3958 0.7125 1.8125 0.42917 0.4125 1.025 0.61875 1.7875 0.61875 0.44167 0 0.86875-0.0542 1.2812-0.1625 0.41667-0.10833 0.82916-0.27083 1.2375-0.4875v1.0875c-0.4125 0.175-0.83542 0.30834-1.2688 0.4-0.43333 0.0917-0.87292 0.1375-1.3188 0.1375-1.1167 0-2.0021-0.325-2.6562-0.975-0.65-0.65-0.975-1.5292-0.975-2.6375 0-1.1458 0.30834-2.0542 0.925-2.725 0.62084-0.67499 1.4562-1.0125 2.5062-1.0125 0.94167 0.000007 1.6854 0.30417 2.2312 0.9125 0.55 0.60417 0.825 1.4271 0.825 2.4688m-1.15-0.3375c-0.008-0.62916-0.18542-1.1312-0.53125-1.5062-0.34167-0.37499-0.79583-0.56249-1.3625-0.5625-0.64167 0.000006-1.1562 0.18126-1.5438 0.54375-0.38333 0.36251-0.60416 0.87292-0.6625 1.5312l4.1-0.0063"/>
  <path id="path3098" style="" d="m467.99 94.924v1.0875c-0.325-0.16666-0.6625-0.29166-1.0125-0.375-0.35-0.08333-0.7125-0.12499-1.0875-0.125-0.57083 0.000006-1 0.08751-1.2875 0.2625-0.28333 0.17501-0.425 0.43751-0.425 0.7875 0 0.26667 0.10209 0.47709 0.30625 0.63125 0.20417 0.15 0.61459 0.29375 1.2312 0.43125l0.39375 0.0875c0.81667 0.175 1.3958 0.42292 1.7375 0.74375 0.34583 0.31667 0.51875 0.76042 0.51875 1.3312 0 0.65-0.25833 1.1646-0.775 1.5437-0.5125 0.37917-1.2188 0.56875-2.1188 0.56875-0.375 0-0.76666-0.0375-1.175-0.1125-0.40416-0.0708-0.83125-0.17916-1.2812-0.325v-1.1875c0.425 0.22084 0.84375 0.3875 1.2562 0.5 0.4125 0.10834 0.82084 0.1625 1.225 0.1625 0.54167 0 0.95833-0.0917 1.25-0.275 0.29167-0.1875 0.4375-0.45 0.4375-0.7875 0-0.3125-0.10625-0.55208-0.31875-0.71875-0.20833-0.16666-0.66875-0.32708-1.3812-0.48125l-0.4-0.09375c-0.7125-0.15-1.2271-0.37916-1.5438-0.6875-0.31666-0.3125-0.475-0.73958-0.475-1.2812 0-0.65833 0.23334-1.1667 0.7-1.525 0.46667-0.35833 1.1292-0.53749 1.9875-0.5375 0.425 0.000007 0.825 0.03126 1.2 0.09375 0.375 0.06251 0.72083 0.15626 1.0375 0.28125"/>
  <path id="path3100" style="" d="m475.52 103.84v0.89375h-6.65v-0.89375h6.65"/>
  <path id="path3102" style="" d="m482.59 97.93v0.5625h-5.2875c0.05 0.79167 0.28749 1.3958 0.7125 1.8125 0.42916 0.4125 1.025 0.61875 1.7875 0.61875 0.44166 0 0.86874-0.0542 1.2812-0.1625 0.41666-0.10833 0.82916-0.27083 1.2375-0.4875v1.0875c-0.41251 0.175-0.83543 0.30834-1.2688 0.4-0.43334 0.0917-0.87293 0.1375-1.3188 0.1375-1.1167 0-2.0021-0.325-2.6562-0.975-0.65001-0.65-0.97501-1.5292-0.975-2.6375-0.00001-1.1458 0.30833-2.0542 0.925-2.725 0.62083-0.67499 1.4562-1.0125 2.5062-1.0125 0.94166 0.000007 1.6854 0.30417 2.2312 0.9125 0.54999 0.60417 0.82499 1.4271 0.825 2.4688m-1.15-0.3375c-0.008-0.62916-0.18543-1.1312-0.53125-1.5062-0.34168-0.37499-0.79584-0.56249-1.3625-0.5625-0.64167 0.000006-1.1563 0.18126-1.5438 0.54375-0.38334 0.36251-0.60417 0.87292-0.6625 1.5312l4.1-0.0063"/>
 </g>
 <g id="g58" transform="translate(-4.7025 -2.7077)">
  <g id="g60">
   <path id="polygon62" fill="#fff" d="m520 196v4l-52 52v36h-16v-36l-52-52v-4z"/>
   <path id="polygon64" d="m520 196v4l-52 52v36h-16v-36l-52-52v-4z" stroke="#000" stroke-width="2" fill="none"/>
  </g>
  <g id="g66">
   <path id="ellipse68" fill="#fff" d="m520 195c0 8.2843-26.863 15-60 15s-60-6.7157-60-15 26.863-15 60-15 60 6.7157 60 15z"/>
   <path id="ellipse70" d="m520 195c0 8.2843-26.863 15-60 15s-60-6.7157-60-15 26.863-15 60-15 60 6.7157 60 15z" stroke="#000" stroke-width="2" fill="none"/>
  </g>
 </g>
 <g id="text72">
  <path id="path3109" style="" d="m427.67 214.72h1.2188l2.1875 5.875 2.1875-5.875h1.2188l-2.625 7h-1.5625l-2.625-7"/>
  <path id="path3111" style="" d="m442.05 217.93v0.5625h-5.2875c0.05 0.79166 0.2875 1.3958 0.7125 1.8125 0.42917 0.4125 1.025 0.61875 1.7875 0.61875 0.44167 0 0.86875-0.0542 1.2812-0.1625 0.41667-0.10834 0.82916-0.27084 1.2375-0.4875v1.0875c-0.4125 0.175-0.83542 0.30833-1.2688 0.4-0.43333 0.0917-0.87292 0.1375-1.3188 0.1375-1.1167 0-2.0021-0.325-2.6562-0.975-0.65-0.65-0.975-1.5292-0.975-2.6375 0-1.1458 0.30834-2.0542 0.925-2.725 0.62084-0.675 1.4562-1.0125 2.5062-1.0125 0.94167 0 1.6854 0.30417 2.2312 0.9125 0.55 0.60417 0.825 1.4271 0.825 2.4688m-1.15-0.3375c-0.008-0.62917-0.18542-1.1312-0.53125-1.5062-0.34167-0.375-0.79583-0.5625-1.3625-0.5625-0.64167 0-1.1562 0.18125-1.5438 0.54375-0.38333 0.3625-0.60416 0.87292-0.6625 1.5312l4.1-0.006m-1.1062-6.1125h1.2438l-2.0375 2.35h-0.95625l1.75-2.35"/>
  <path id="path3113" style="" d="m448.55 218.14c-0.00001-0.83333-0.17293-1.4792-0.51875-1.9375-0.34168-0.45833-0.82293-0.6875-1.4438-0.6875-0.61667 0-1.0979 0.22917-1.4438 0.6875-0.34167 0.45833-0.51251 1.1042-0.5125 1.9375-0.00001 0.82917 0.17083 1.4729 0.5125 1.9312 0.34583 0.45833 0.82708 0.6875 1.4438 0.6875 0.62082 0 1.1021-0.22917 1.4438-0.6875 0.34582-0.45834 0.51874-1.1021 0.51875-1.9312m1.15 2.7125c-0.00001 1.1917-0.26459 2.0771-0.79375 2.6562-0.52918 0.58333-1.3396 0.87499-2.4312 0.875-0.40417-0.00001-0.78542-0.0313-1.1438-0.0937-0.35834-0.0583-0.70626-0.15001-1.0438-0.275v-1.1188c0.33749 0.18333 0.67083 0.31874 1 0.40625 0.32916 0.0875 0.66458 0.13124 1.0062 0.13125 0.75416-0.00001 1.3187-0.19792 1.6938-0.59375 0.37499-0.39167 0.56249-0.98542 0.5625-1.7812v-0.56875c-0.23751 0.4125-0.54168 0.72083-0.9125 0.925-0.37084 0.20416-0.81459 0.30625-1.3312 0.30625-0.85834 0-1.55-0.32709-2.075-0.98125-0.52501-0.65417-0.78751-1.5208-0.7875-2.6-0.00001-1.0833 0.26249-1.9521 0.7875-2.6062 0.52499-0.65416 1.2167-0.98125 2.075-0.98125 0.51666 0 0.96041 0.10209 1.3312 0.30625 0.37082 0.20417 0.67499 0.5125 0.9125 0.925v-1.0625h1.15v6.1312"/>
  <path id="path3115" style="" d="m453.2 212.73v1.9875h2.3688v0.89375h-2.3688v3.8c-0.00001 0.57083 0.0771 0.9375 0.23125 1.1 0.15833 0.1625 0.47708 0.24375 0.95625 0.24375h1.1812v0.9625h-1.1812c-0.88751 0-1.5-0.16459-1.8375-0.49375-0.33751-0.33334-0.50626-0.9375-0.50625-1.8125v-3.8h-0.84375v-0.89375h0.84375v-1.9875h1.1562"/>
  <path id="path3117" style="" d="m463.08 217.93v0.5625h-5.2875c0.05 0.79166 0.2875 1.3958 0.7125 1.8125 0.42917 0.4125 1.025 0.61875 1.7875 0.61875 0.44167 0 0.86875-0.0542 1.2812-0.1625 0.41667-0.10834 0.82917-0.27084 1.2375-0.4875v1.0875c-0.4125 0.175-0.83542 0.30833-1.2688 0.4-0.43333 0.0917-0.87292 0.1375-1.3188 0.1375-1.1167 0-2.0021-0.325-2.6562-0.975-0.65-0.65-0.975-1.5292-0.975-2.6375 0-1.1458 0.30834-2.0542 0.925-2.725 0.62084-0.675 1.4562-1.0125 2.5062-1.0125 0.94167 0 1.6854 0.30417 2.2312 0.9125 0.55 0.60417 0.825 1.4271 0.825 2.4688m-1.15-0.3375c-0.008-0.62917-0.18542-1.1312-0.53125-1.5062-0.34167-0.375-0.79583-0.5625-1.3625-0.5625-0.64167 0-1.1562 0.18125-1.5438 0.54375-0.38333 0.3625-0.60416 0.87292-0.6625 1.5312l4.1-0.006"/>
  <path id="path3119" style="" d="m464.97 211.99h1.15v9.725h-1.15v-9.725"/>
  <path id="path3121" style="" d="m474.5 217.93v0.5625h-5.2875c0.05 0.79166 0.28749 1.3958 0.7125 1.8125 0.42916 0.4125 1.025 0.61875 1.7875 0.61875 0.44166 0 0.86874-0.0542 1.2812-0.1625 0.41666-0.10834 0.82916-0.27084 1.2375-0.4875v1.0875c-0.41251 0.175-0.83543 0.30833-1.2688 0.4-0.43334 0.0917-0.87293 0.1375-1.3188 0.1375-1.1167 0-2.0021-0.325-2.6562-0.975-0.65001-0.65-0.975-1.5292-0.975-2.6375 0-1.1458 0.30833-2.0542 0.925-2.725 0.62083-0.675 1.4562-1.0125 2.5062-1.0125 0.94166 0 1.6854 0.30417 2.2312 0.9125 0.54999 0.60417 0.82499 1.4271 0.825 2.4688m-1.15-0.3375c-0.008-0.62917-0.18543-1.1312-0.53125-1.5062-0.34168-0.375-0.79584-0.5625-1.3625-0.5625-0.64167 0-1.1563 0.18125-1.5438 0.54375-0.38334 0.3625-0.60417 0.87292-0.6625 1.5312l4.1-0.006"/>
  <path id="path3123" style="" d="m482.21 217.49v4.225h-1.15v-4.1875c-0.00001-0.6625-0.12918-1.1583-0.3875-1.4875-0.25834-0.32917-0.64584-0.49375-1.1625-0.49375-0.62084 0-1.1104 0.19792-1.4688 0.59375-0.35834 0.39583-0.53751 0.93542-0.5375 1.6188v3.9562h-1.1562v-7h1.1562v1.0875c0.27499-0.42083 0.59791-0.73541 0.96875-0.94375 0.37499-0.20833 0.80624-0.3125 1.2938-0.3125 0.80416 0 1.4125 0.25 1.825 0.75 0.41249 0.49583 0.61874 1.2271 0.61875 2.1938"/>
 </g>
 <g id="g76" transform="translate(-4.7025 -2.7077)">
  <g id="g78">
   <path id="polygon80" fill="#fff" d="m520 316v4l-52 52v36h-16v-36l-52-52v-4z"/>
   <path id="polygon82" d="m520 316v4l-52 52v36h-16v-36l-52-52v-4z" stroke="#000" stroke-width="2" fill="none"/>
  </g>
  <g id="g84">
   <path id="ellipse86" fill="#fff" d="m520 315c0 8.2843-26.863 15-60 15s-60-6.7157-60-15 26.863-15 60-15 60 6.7157 60 15z"/>
   <path id="ellipse88" d="m520 315c0 8.2843-26.863 15-60 15s-60-6.7157-60-15 26.863-15 60-15 60 6.7157 60 15z" stroke="#000" stroke-width="2" fill="none"/>
  </g>
 </g>
 <g id="g90" transform="translate(-4.7025 -2.7077)">
  <path id="rect92" fill="#fff" d="m433.16 334.52h53.675v30.95h-53.675z"/>
  <g id="text94">
   <path id="path3131" style="" d="m447.16 342.2v4.225h-1.15v-4.1875c-0.00001-0.6625-0.12917-1.1583-0.3875-1.4875-0.25834-0.32916-0.64584-0.49375-1.1625-0.49375-0.62084 0-1.1104 0.19792-1.4688 0.59375-0.35834 0.39584-0.5375 0.93542-0.5375 1.6188v3.9562h-1.1562v-7h1.1562v1.0875c0.275-0.42083 0.59791-0.73541 0.96875-0.94375 0.375-0.20833 0.80625-0.3125 1.2938-0.3125 0.80416 0 1.4125 0.25 1.825 0.75 0.41249 0.49584 0.61874 1.2271 0.61875 2.1938"/>
   <path id="path3133" style="" d="m448.89 342.41h3.3688v1.025h-3.3688v-1.025"/>
   <path id="path3135" style="" d="m460.08 342.64v0.5625h-5.2875c0.05 0.79167 0.2875 1.3958 0.7125 1.8125 0.42916 0.4125 1.025 0.61875 1.7875 0.61875 0.44166 0 0.86874-0.0542 1.2812-0.1625 0.41666-0.10833 0.82916-0.27083 1.2375-0.4875v1.0875c-0.41251 0.175-0.83542 0.30833-1.2688 0.4-0.43334 0.0917-0.87292 0.1375-1.3188 0.1375-1.1167 0-2.0021-0.325-2.6562-0.975-0.65-0.65-0.975-1.5292-0.975-2.6375 0-1.1458 0.30833-2.0542 0.925-2.725 0.62083-0.675 1.4562-1.0125 2.5062-1.0125 0.94166 0 1.6854 0.30417 2.2312 0.9125 0.54999 0.60417 0.82499 1.4271 0.825 2.4688m-1.15-0.3375c-0.008-0.62916-0.18542-1.1312-0.53125-1.5062-0.34167-0.375-0.79584-0.5625-1.3625-0.5625-0.64167 0-1.1562 0.18125-1.5438 0.54375-0.38334 0.3625-0.60417 0.87292-0.6625 1.5312l4.1-0.006"/>
   <path id="path3137" style="" d="m466.58 340.49v-3.7875h1.15v9.725h-1.15v-1.05c-0.24167 0.41667-0.54792 0.72708-0.91875 0.93125-0.36667 0.2-0.80834 0.3-1.325 0.3-0.84584 0-1.5354-0.3375-2.0688-1.0125-0.52917-0.675-0.79375-1.5625-0.79375-2.6625s0.26458-1.9875 0.79375-2.6625c0.53333-0.675 1.2229-1.0125 2.0688-1.0125 0.51666 0 0.95833 0.10209 1.325 0.30625 0.37083 0.2 0.67708 0.50834 0.91875 0.925m-3.9188 2.4438c0 0.84583 0.17291 1.5104 0.51875 1.9938 0.35 0.47917 0.82916 0.71875 1.4375 0.71875 0.60833 0 1.0875-0.23958 1.4375-0.71875 0.34999-0.48333 0.52499-1.1479 0.525-1.9938-0.00001-0.84583-0.17501-1.5083-0.525-1.9875-0.35001-0.48333-0.82917-0.725-1.4375-0.725-0.60834 0-1.0875 0.24167-1.4375 0.725-0.34584 0.47917-0.51875 1.1417-0.51875 1.9875"/>
   <path id="path3139" style="" d="m470.09 339.42h1.15v7h-1.15v-7m0-2.725h1.15v1.4562h-1.15v-1.4562"/>
   <path id="path3141" style="" d="m473.6 336.7h1.1562v5.7438l3.4312-3.0188h1.4688l-3.7125 3.275 3.8688 3.725h-1.5l-3.5562-3.4188v3.4188h-1.1562v-9.725"/>
   <path id="path3143" style="" d="m434.28 352.7h1.1562v5.7438l3.4312-3.0188h1.4688l-3.7125 3.275 3.8688 3.725h-1.5l-3.5562-3.4188v3.4188h-1.1562v-9.725"/>
   <path id="path3145" style="" d="m444.7 358.91c-0.92917 0-1.5729 0.10625-1.9312 0.31875-0.35834 0.2125-0.5375 0.575-0.5375 1.0875 0 0.40833 0.13333 0.73333 0.4 0.975 0.27083 0.2375 0.6375 0.35625 1.1 0.35625 0.6375 0 1.1479-0.225 1.5312-0.675 0.38749-0.45417 0.58124-1.0562 0.58125-1.8062v-0.25625h-1.1438m2.2938-0.475v3.9938h-1.15v-1.0625c-0.26251 0.425-0.58959 0.73958-0.98125 0.94375-0.39167 0.2-0.87084 0.3-1.4375 0.3-0.71667 0-1.2875-0.2-1.7125-0.6-0.42083-0.40417-0.63125-0.94375-0.63125-1.6188 0-0.7875 0.2625-1.3812 0.7875-1.7812 0.52916-0.4 1.3167-0.6 2.3625-0.6h1.6125v-0.1125c-0.00001-0.52916-0.17501-0.9375-0.525-1.225-0.34584-0.29166-0.83334-0.4375-1.4625-0.4375-0.4 0-0.78959 0.0479-1.1688 0.14375-0.37917 0.0958-0.74375 0.23959-1.0938 0.43125v-1.0625c0.42083-0.1625 0.82916-0.28333 1.225-0.3625 0.39583-0.0833 0.78125-0.125 1.1562-0.125 1.0125 0 1.7687 0.2625 2.2688 0.7875 0.49999 0.525 0.74999 1.3208 0.75 2.3875"/>
   <path id="path3147" style="" d="m453.42 356.5c-0.12917-0.075-0.27084-0.12916-0.425-0.1625-0.15-0.0375-0.31667-0.0562-0.5-0.0562-0.65 0-1.15 0.2125-1.5 0.6375-0.34584 0.42084-0.51875 1.0271-0.51875 1.8188v3.6875h-1.1562v-7h1.1562v1.0875c0.24166-0.425 0.55625-0.73958 0.94375-0.94375 0.3875-0.20833 0.85833-0.3125 1.4125-0.3125 0.0792 0 0.16666 0.006 0.2625 0.0188 0.0958 0.008 0.20208 0.0229 0.31875 0.0437l0.006 1.1812"/>
   <path id="path3149" style="" d="m457.82 358.91c-0.92917 0-1.5729 0.10625-1.9312 0.31875-0.35834 0.2125-0.5375 0.575-0.5375 1.0875 0 0.40833 0.13333 0.73333 0.4 0.975 0.27083 0.2375 0.6375 0.35625 1.1 0.35625 0.6375 0 1.1479-0.225 1.5312-0.675 0.3875-0.45417 0.58124-1.0562 0.58125-1.8062v-0.25625h-1.1438m2.2938-0.475v3.9938h-1.15v-1.0625c-0.2625 0.425-0.58959 0.73958-0.98125 0.94375-0.39167 0.2-0.87084 0.3-1.4375 0.3-0.71667 0-1.2875-0.2-1.7125-0.6-0.42083-0.40417-0.63125-0.94375-0.63125-1.6188 0-0.7875 0.2625-1.3812 0.7875-1.7812 0.52916-0.4 1.3167-0.6 2.3625-0.6h1.6125v-0.1125c-0.00001-0.52916-0.175-0.9375-0.525-1.225-0.34584-0.29166-0.83334-0.4375-1.4625-0.4375-0.4 0-0.78959 0.0479-1.1688 0.14375-0.37917 0.0958-0.74375 0.23959-1.0938 0.43125v-1.0625c0.42083-0.1625 0.82916-0.28333 1.225-0.3625 0.39583-0.0833 0.78125-0.125 1.1562-0.125 1.0125 0 1.7688 0.2625 2.2688 0.7875 0.49999 0.525 0.74999 1.3208 0.75 2.3875"/>
   <path id="path3151" style="" d="m462.45 352.7h1.1562v5.7438l3.4312-3.0188h1.4688l-3.7125 3.275 3.8688 3.725h-1.5l-3.5562-3.4188v3.4188h-1.1562v-9.725"/>
   <path id="path3153" style="" d="m471.06 353.44v1.9875h2.3688v0.89375h-2.3688v3.8c0 0.57083 0.0771 0.9375 0.23125 1.1 0.15833 0.1625 0.47708 0.24375 0.95625 0.24375h1.1812v0.9625h-1.1812c-0.8875 0-1.5-0.16459-1.8375-0.49375-0.3375-0.33333-0.50625-0.9375-0.50625-1.8125v-3.8h-0.84375v-0.89375h0.84375v-1.9875h1.1562"/>
   <path id="path3155" style="" d="m480.93 358.64v0.5625h-5.2875c0.05 0.79167 0.2875 1.3958 0.7125 1.8125 0.42916 0.4125 1.025 0.61875 1.7875 0.61875 0.44166 0 0.86874-0.0542 1.2812-0.1625 0.41666-0.10833 0.82916-0.27083 1.2375-0.4875v1.0875c-0.41251 0.175-0.83542 0.30833-1.2688 0.4-0.43334 0.0917-0.87292 0.1375-1.3188 0.1375-1.1167 0-2.0021-0.325-2.6562-0.975-0.65-0.65-0.975-1.5292-0.975-2.6375 0-1.1458 0.30833-2.0542 0.925-2.725 0.62083-0.675 1.4562-1.0125 2.5062-1.0125 0.94166 0 1.6854 0.30417 2.2312 0.9125 0.54999 0.60417 0.82499 1.4271 0.825 2.4688m-1.15-0.3375c-0.008-0.62916-0.18542-1.1312-0.53125-1.5062-0.34167-0.375-0.79584-0.5625-1.3625-0.5625-0.64167 0-1.1562 0.18125-1.5438 0.54375-0.38334 0.3625-0.60417 0.87292-0.6625 1.5312l4.1-0.006"/>
   <path id="path3157" style="" d="m486.88 356.5c-0.12917-0.075-0.27084-0.12916-0.425-0.1625-0.15001-0.0375-0.31667-0.0562-0.5-0.0562-0.65 0-1.15 0.2125-1.5 0.6375-0.34584 0.42084-0.51875 1.0271-0.51875 1.8188v3.6875h-1.1562v-7h1.1562v1.0875c0.24166-0.425 0.55625-0.73958 0.94375-0.94375 0.3875-0.20833 0.85833-0.3125 1.4125-0.3125 0.0792 0 0.16666 0.006 0.2625 0.0188 0.0958 0.008 0.20208 0.0229 0.31875 0.0437l0.006 1.1812"/>
  </g>
 </g>
 <g id="text100">
  <path id="path3160" style="" d="m410.87 422.19h1.2188l2.1875 5.875 2.1875-5.875h1.2188l-2.625 7h-1.5625l-2.625-7"/>
  <path id="path3162" style="" d="m425.08 422.19-2.5312 3.4062 2.6625 3.5938h-1.3562l-2.0375-2.75-2.0375 2.75h-1.3562l2.7188-3.6625-2.4875-3.3375h1.3562l1.8562 2.4938 1.8562-2.4938h1.3562"/>
  <path id="path3164" style="" d="m427.04 429v-1.15c0.31667 0.15 0.6375 0.26459 0.9625 0.34375 0.325 0.0792 0.64375 0.11875 0.95625 0.11875 0.83333 0 1.4688-0.27916 1.9062-0.8375 0.44167-0.5625 0.69375-1.4146 0.75625-2.5562-0.24167 0.35834-0.54792 0.63334-0.91875 0.825-0.37083 0.19167-0.78125 0.2875-1.2312 0.2875-0.93333 0-1.6729-0.28124-2.2188-0.84375-0.54166-0.56666-0.8125-1.3396-0.8125-2.3188 0-0.95832 0.28334-1.7271 0.85-2.3062 0.56667-0.57916 1.3208-0.86874 2.2625-0.86875 1.0792 0.00001 1.9021 0.41459 2.4688 1.2438 0.57083 0.82501 0.85625 2.025 0.85625 3.6 0 1.4708-0.35 2.6458-1.05 3.525-0.69583 0.875-1.6333 1.3125-2.8125 1.3125-0.31666 0-0.6375-0.0312-0.9625-0.0937s-0.6625-0.15625-1.0125-0.28125m2.5125-3.9562c0.56667 0.00001 1.0146-0.19374 1.3438-0.58125 0.33333-0.38749 0.5-0.91874 0.5-1.5938 0-0.67082-0.16667-1.2-0.5-1.5875-0.32917-0.39166-0.77708-0.58749-1.3438-0.5875-0.56667 0.00001-1.0167 0.19584-1.35 0.5875-0.32916 0.38751-0.49375 0.91668-0.49375 1.5875 0 0.67501 0.16459 1.2063 0.49375 1.5938 0.33334 0.38751 0.78333 0.58126 1.35 0.58125"/>
  <path id="path3166" style="" d="m437.85 424.76c-0.60001 0.00001-1.0729 0.16042-1.4188 0.48125-0.34167 0.32084-0.51251 0.7625-0.5125 1.325-0.00001 0.5625 0.17083 1.0042 0.5125 1.325 0.34583 0.32084 0.81874 0.48125 1.4188 0.48125 0.59999 0 1.0729-0.16041 1.4188-0.48125 0.34582-0.325 0.51874-0.76666 0.51875-1.325-0.00001-0.5625-0.17293-1.0042-0.51875-1.325-0.34168-0.32083-0.81459-0.48124-1.4188-0.48125m-1.2625-0.5375c-0.54167-0.13333-0.96459-0.38541-1.2688-0.75625-0.30001-0.37083-0.45001-0.82291-0.45-1.3562-0.00001-0.74582 0.26458-1.3354 0.79375-1.7688 0.53333-0.43332 1.2625-0.64999 2.1875-0.65 0.92916 0.00001 1.6583 0.21668 2.1875 0.65 0.52916 0.43334 0.79374 1.0229 0.79375 1.7688-0.00001 0.53334-0.15209 0.98542-0.45625 1.3562-0.30001 0.37084-0.71876 0.62292-1.2562 0.75625 0.60832 0.14167 1.0812 0.41876 1.4188 0.83125 0.34165 0.41251 0.51249 0.91667 0.5125 1.5125-0.00001 0.90417-0.27709 1.5979-0.83125 2.0812-0.55001 0.48334-1.3396 0.725-2.3688 0.725s-1.8208-0.24166-2.375-0.725c-0.55001-0.48333-0.82501-1.1771-0.825-2.0812-0.00001-0.59583 0.17083-1.1 0.5125-1.5125 0.34166-0.41249 0.81666-0.68958 1.425-0.83125m-0.4625-1.9938c-0.00001 0.48334 0.14999 0.86042 0.45 1.1312 0.30416 0.27084 0.72916 0.40626 1.275 0.40625 0.54166 0.00001 0.96457-0.13541 1.2688-0.40625 0.30832-0.27083 0.46249-0.64791 0.4625-1.1312-0.00001-0.48332-0.15418-0.86041-0.4625-1.1312-0.30418-0.27082-0.72709-0.40624-1.2688-0.40625-0.54584 0.00001-0.97084 0.13543-1.275 0.40625-0.30001 0.27084-0.45001 0.64793-0.45 1.1312"/>
  <path id="path3168" style="" d="m444.25 428.14v3.7125h-1.1562v-9.6625h1.1562v1.0625c0.24167-0.41666 0.54584-0.72499 0.9125-0.925 0.37083-0.20416 0.8125-0.30624 1.325-0.30625 0.85 0.00001 1.5396 0.33751 2.0688 1.0125 0.53332 0.67501 0.79999 1.5625 0.8 2.6625-0.00001 1.1-0.26668 1.9875-0.8 2.6625-0.52918 0.675-1.2188 1.0125-2.0688 1.0125-0.5125 0-0.95417-0.1-1.325-0.3-0.36666-0.20416-0.67083-0.51458-0.9125-0.93125m3.9125-2.4438c-0.00001-0.84583-0.17501-1.5083-0.525-1.9875-0.34584-0.48333-0.82293-0.72499-1.4313-0.725-0.60833 0.00001-1.0875 0.24167-1.4375 0.725-0.34583 0.47917-0.51875 1.1417-0.51875 1.9875 0 0.84584 0.17292 1.5104 0.51875 1.9938 0.35 0.47917 0.82917 0.71875 1.4375 0.71875s1.0854-0.23958 1.4313-0.71875c0.34999-0.48333 0.52499-1.1479 0.525-1.9938"/>
  <path id="path3170" style="" d="m456.6 430.38v0.9h-0.3875c-1.0375 0-1.7333-0.15417-2.0875-0.4625-0.35-0.30833-0.525-0.92292-0.525-1.8438v-1.4938c0-0.62916-0.1125-1.0646-0.3375-1.3062-0.225-0.24166-0.63333-0.36249-1.225-0.3625h-0.38125v-0.89375h0.38125c0.59584 0.00001 1.0042-0.11874 1.225-0.35625 0.225-0.24166 0.3375-0.67291 0.3375-1.2938v-1.5c0-0.92082 0.175-1.5333 0.525-1.8375 0.35417-0.30832 1.05-0.46249 2.0875-0.4625h0.3875v0.89375h-0.425c-0.58751 0.00001-0.97084 0.0917-1.15 0.275-0.17918 0.18334-0.26876 0.56876-0.26876 1.1562v1.55c0 0.65417-0.0958 1.1292-0.2875 1.425-0.1875 0.29584-0.51042 0.49584-0.96875 0.6 0.4625 0.11251 0.7875 0.31667 0.975 0.6125 0.1875 0.29584 0.28125 0.76875 0.28125 1.4188v1.55c0 0.5875 0.0896 0.97292 0.26876 1.1562 0.17916 0.18333 0.56249 0.275 1.15 0.275h0.425"/>
  <path id="path3172" style="" d="m462.97 425.84c-0.00001 0.59584 0.14791 1.0646 0.44375 1.4062 0.29582 0.3375 0.70207 0.50625 1.2188 0.50625 0.51249 0 0.91457-0.17083 1.2062-0.5125 0.29582-0.34166 0.44374-0.80833 0.44375-1.4-0.00001-0.58333-0.15001-1.0458-0.45-1.3875-0.30001-0.34583-0.70418-0.51874-1.2125-0.51875-0.50418 0.00001-0.90626 0.17084-1.2062 0.5125-0.29584 0.34167-0.44376 0.80626-0.44375 1.3938m3.4062 1.8688c-0.25001 0.32084-0.53751 0.55834-0.8625 0.7125-0.32084 0.15-0.69584 0.225-1.125 0.225-0.71668 0-1.3-0.25833-1.75-0.775-0.44584-0.52083-0.66876-1.1979-0.66875-2.0312-0.00001-0.83333 0.22499-1.5104 0.675-2.0312 0.44999-0.52083 1.0312-0.78124 1.7438-0.78125 0.42916 0.00001 0.80624 0.0792 1.1312 0.2375 0.32499 0.15417 0.61041 0.38959 0.85625 0.70625v-0.81875h0.89375v4.6c0.60832-0.0917 1.0833-0.36875 1.425-0.83125 0.34582-0.46666 0.51874-1.0687 0.51875-1.8062-0.00001-0.44583-0.0667-0.86458-0.2-1.2562-0.12918-0.39166-0.3271-0.75416-0.59375-1.0875-0.43335-0.54582-0.96251-0.96249-1.5875-1.25-0.62084-0.29166-1.2979-0.43749-2.0312-0.4375-0.51251 0.00001-1.0042 0.0688-1.475 0.20625-0.47084 0.13334-0.90626 0.33334-1.3062 0.6-0.65417 0.42501-1.1667 0.98334-1.5375 1.675-0.36667 0.68751-0.55001 1.4333-0.55 2.2375-0.00001 0.6625 0.11874 1.2833 0.35625 1.8625 0.24166 0.57917 0.58958 1.0896 1.0438 1.5312 0.43749 0.43333 0.94374 0.7625 1.5188 0.9875 0.57499 0.22917 1.1896 0.34375 1.8438 0.34375 0.53749 0 1.0646-0.0917 1.5812-0.275 0.52082-0.17917 0.9979-0.4375 1.4312-0.775l0.5625 0.69375c-0.52085 0.40417-1.0896 0.7125-1.7062 0.925-0.61251 0.21667-1.2354 0.325-1.8688 0.325-0.77084 0-1.4979-0.1375-2.1812-0.4125-0.68334-0.27083-1.2917-0.66667-1.825-1.1875-0.53334-0.52083-0.93959-1.1229-1.2188-1.8062-0.27917-0.6875-0.41875-1.425-0.41875-2.2125 0-0.75833 0.14166-1.4812 0.425-2.1688 0.28333-0.68749 0.68749-1.2917 1.2125-1.8125 0.53749-0.52916 1.1583-0.93332 1.8625-1.2125 0.70416-0.28332 1.45-0.42499 2.2375-0.425 0.88332 0.00001 1.7021 0.18126 2.4562 0.54375 0.75832 0.36251 1.3937 0.87709 1.9062 1.5438 0.31249 0.40834 0.54999 0.85209 0.7125 1.3312 0.16665 0.47917 0.24998 0.97501 0.25 1.4875-0.00002 1.0958-0.33126 1.9604-0.99375 2.5938-0.66251 0.63334-1.5771 0.9625-2.7438 0.9875v-0.9625"/>
  <path id="path3174" style="" d="m476.2 424.16c0.60416 0.12917 1.075 0.39792 1.4125 0.80625 0.34166 0.40834 0.51249 0.91251 0.5125 1.5125-0.00001 0.92084-0.31668 1.6333-0.95 2.1375-0.63334 0.50417-1.5333 0.75625-2.7 0.75625-0.39167 0-0.79584-0.0396-1.2125-0.11875-0.41251-0.075-0.83959-0.18958-1.2812-0.34375v-1.2188c0.34999 0.20417 0.73333 0.35834 1.15 0.4625 0.41666 0.10417 0.85208 0.15625 1.3062 0.15625 0.79166 0 1.3937-0.15625 1.8062-0.46875 0.41666-0.3125 0.62499-0.76666 0.625-1.3625-0.00001-0.55-0.19376-0.97916-0.58125-1.2875-0.38334-0.31249-0.91876-0.46874-1.6062-0.46875h-1.0875v-1.0375h1.1375c0.62082 0.00001 1.0958-0.12291 1.425-0.36875 0.32916-0.24999 0.49374-0.60833 0.49375-1.075-0.00001-0.47916-0.17084-0.84582-0.5125-1.1-0.33751-0.25832-0.82293-0.38749-1.4562-0.3875-0.34584 0.00001-0.71667 0.0375-1.1125 0.1125-0.39584 0.075-0.83126 0.19168-1.3062 0.35v-1.125c0.47916-0.13332 0.92708-0.23332 1.3438-0.3 0.42083-0.0667 0.81666-0.1 1.1875-0.1 0.95832 0.00001 1.7167 0.21876 2.275 0.65625 0.55832 0.43334 0.83749 1.0208 0.8375 1.7625-0.00001 0.51667-0.14793 0.95417-0.44375 1.3125-0.29584 0.35417-0.71668 0.60001-1.2625 0.7375"/>
  <path id="path3176" style="" d="m484 420.96-3.1875 4.9812h3.1875v-4.9812m-0.33125-1.1h1.5875v6.0812h1.3312v1.05h-1.3312v2.2h-1.2562v-2.2h-4.2125v-1.2188l3.8812-5.9125"/>
  <path id="path3178" style="" d="m493.05 427.6h1.325v1.5875h-1.325v-1.5875m4.2562 0h1.3312v1.5875h-1.3312v-1.5875m-8.5188 0h1.3312v1.5875h-1.3312v-1.5875"/>
 </g>
</svg>
