<?xml version="1.0" encoding="UTF-8" standalone="no"?>
<!-- Created with Inkscape (http://www.inkscape.org/) -->
<svg id="svg2" xmlns:rdf="http://www.w3.org/1999/02/22-rdf-syntax-ns#" xmlns="http://www.w3.org/2000/svg" height="456.21" width="484.68" version="1.1" xmlns:cc="http://creativecommons.org/ns#" xmlns:dc="http://purl.org/dc/elements/1.1/" viewBox="298 58 256.96443 246.61248">
 <metadata id="metadata124">
  <rdf:RDF>
   <cc:Work rdf:about="">
    <dc:format>image/svg+xml</dc:format>
    <dc:type rdf:resource="http://purl.org/dc/dcmitype/StillImage"/>
   </cc:Work>
  </rdf:RDF>
 </metadata>
 <g id="g4" transform="translate(-3.5178 -1)">
  <path id="polyline6" d="m340 100 40-40 20 20-100 100 20 20 140-140 20 20-180 180 20 20 220-220 20 20-13.116 13.116" stroke="#bfbfbf" stroke-width="2" fill="none"/>
  <path id="polygon8" fill="#bfbfbf" d="m546.88 93.116 5.304 1.7677-10.607 3.5356 3.536-10.607z"/>
  <path id="polygon10" d="m546.88 93.116 5.304 1.7677-10.607 3.5356 3.536-10.607z" stroke="#bfbfbf" stroke-width="2" fill="none"/>
 </g>
 <g id="text12">
  <path id="path3044" style="" d="m327.76 102.36h2.0625v-7.1187l-2.2438 0.45v-1.15l2.2312-0.45h1.2625v8.2687h2.0625v1.0625h-5.375v-1.0625"/>
  <path id="path3046" style="" d="m337.57 94.094h1.0625l-3.25 10.519h-1.0625l3.25-10.519"/>
  <path id="path3048" style="" d="m340.23 102.36h2.0625v-7.1187l-2.2438 0.45v-1.15l2.2312-0.45h1.2625v8.2687h2.0625v1.0625h-5.375v-1.0625"/>
 </g>
 <g id="text16">
  <path id="path3051" style="" d="m368.63 102.36h4.4062v1.0625h-5.925v-1.0625c0.47916-0.49583 1.1312-1.1604 1.9562-1.9938 0.82916-0.83749 1.35-1.3771 1.5625-1.6187 0.40416-0.45416 0.68541-0.8375 0.84375-1.15 0.16249-0.31666 0.24374-0.62708 0.24375-0.93125-0.00001-0.49583-0.17501-0.89999-0.525-1.2125-0.34584-0.31249-0.79792-0.46874-1.3562-0.46875-0.39584 0.000008-0.81459 0.06876-1.2562 0.20625-0.4375 0.13751-0.90625 0.34584-1.4062 0.625v-1.275c0.50833-0.20416 0.98333-0.35832 1.425-0.4625 0.44166-0.10416 0.84583-0.15624 1.2125-0.15625 0.96666 0.000009 1.7375 0.24168 2.3125 0.725 0.57499 0.48334 0.86249 1.1292 0.8625 1.9375-0.00001 0.38334-0.0729 0.74792-0.21875 1.0938-0.14167 0.34167-0.40209 0.74584-0.78125 1.2125-0.10417 0.12084-0.43542 0.47084-0.99375 1.05-0.55834 0.57501-1.3458 1.3813-2.3625 2.4187"/>
  <path id="path3053" style="" d="m377.57 94.094h1.0625l-3.25 10.519h-1.0625l3.25-10.519"/>
  <path id="path3055" style="" d="m380.23 102.36h2.0625v-7.1187l-2.2438 0.45v-1.15l2.2312-0.45h1.2625v8.2687h2.0625v1.0625h-5.375v-1.0625"/>
 </g>
 <g id="text20">
  <path id="path3058" style="" d="m411.36 98.394c0.60416 0.12917 1.075 0.39792 1.4125 0.80625 0.34166 0.40834 0.51249 0.91251 0.5125 1.5125-0.00001 0.92084-0.31668 1.6333-0.95 2.1375-0.63334 0.50417-1.5333 0.75625-2.7 0.75625-0.39167 0-0.79584-0.0396-1.2125-0.11875-0.4125-0.075-0.83959-0.18958-1.2812-0.34375v-1.2188c0.35 0.20417 0.73333 0.35834 1.15 0.4625 0.41666 0.10417 0.85208 0.15625 1.3062 0.15625 0.79166 0 1.3937-0.15625 1.8062-0.46875 0.41666-0.3125 0.62499-0.76666 0.625-1.3625-0.00001-0.54999-0.19376-0.97916-0.58125-1.2875-0.38334-0.3125-0.91876-0.46875-1.6062-0.46875h-1.0875v-1.0375h1.1375c0.62083 0.000005 1.0958-0.12291 1.425-0.36875 0.32916-0.24999 0.49374-0.60833 0.49375-1.075-0.00001-0.47916-0.17084-0.84583-0.5125-1.1-0.33751-0.25832-0.82292-0.38749-1.4562-0.3875-0.34584 0.000008-0.71667 0.03751-1.1125 0.1125-0.39584 0.07501-0.83125 0.19168-1.3062 0.35v-1.125c0.47916-0.13332 0.92708-0.23332 1.3438-0.3 0.42083-0.06666 0.81666-0.09999 1.1875-0.1 0.95833 0.000009 1.7167 0.21876 2.275 0.65625 0.55832 0.43334 0.83749 1.0208 0.8375 1.7625-0.00001 0.51667-0.14793 0.95417-0.44375 1.3125-0.29584 0.35417-0.71667 0.6-1.2625 0.7375"/>
  <path id="path3060" style="" d="m417.57 94.094h1.0625l-3.25 10.519h-1.0625l3.25-10.519"/>
  <path id="path3062" style="" d="m420.23 102.36h2.0625v-7.1187l-2.2438 0.45v-1.15l2.2312-0.45h1.2625v8.2687h2.0625v1.0625h-5.375v-1.0625"/>
 </g>
 <g id="text24">
  <path id="path3065" style="" d="m451.01 95.194-3.1875 4.9812h3.1875v-4.9812m-0.33125-1.1h1.5875v6.0812h1.3312v1.05h-1.3312v2.2h-1.2562v-2.2h-4.2125v-1.2188l3.8812-5.9125"/>
  <path id="path3067" style="" d="m457.57 94.094h1.0625l-3.25 10.519h-1.0625l3.25-10.519"/>
  <path id="path3069" style="" d="m460.23 102.36h2.0625v-7.1187l-2.2438 0.45v-1.15l2.2312-0.45h1.2625v8.2687h2.0625v1.0625h-5.375v-1.0625"/>
 </g>
 <g id="text28">
  <path id="path3072" style="" d="m487.55 94.094h4.9562v1.0625h-3.8v2.2875c0.18333-0.06249 0.36666-0.10833 0.55-0.1375 0.18333-0.03333 0.36666-0.04999 0.55-0.05 1.0417 0.000006 1.8667 0.28542 2.475 0.85625 0.60832 0.57084 0.91249 1.3438 0.9125 2.3187-0.00001 1.0042-0.31251 1.7854-0.9375 2.3438-0.62501 0.55417-1.5063 0.83125-2.6438 0.83125-0.39167 0-0.79167-0.0333-1.2-0.1-0.40417-0.0667-0.82292-0.16666-1.2562-0.3v-1.2688c0.375 0.20417 0.7625 0.35625 1.1625 0.45625s0.82291 0.15 1.2688 0.15c0.72083 0 1.2917-0.18958 1.7125-0.56875 0.42083-0.37916 0.63124-0.89374 0.63125-1.5438-0.00001-0.64999-0.21042-1.1646-0.63125-1.5437-0.42084-0.37916-0.99167-0.56874-1.7125-0.56875-0.3375 0.000005-0.675 0.0375-1.0125 0.1125-0.33334 0.07501-0.675 0.19167-1.025 0.35v-4.6875"/>
  <path id="path3074" style="" d="m497.57 94.094h1.0625l-3.25 10.519h-1.0625l3.25-10.519"/>
  <path id="path3076" style="" d="m500.23 102.36h2.0625v-7.1187l-2.2438 0.45v-1.15l2.2312-0.45h1.2625v8.2687h2.0625v1.0625h-5.375v-1.0625"/>
 </g>
 <g id="text32">
  <path id="path3079" style="" d="m335.82 303.02h1.3188v1.5875h-1.3188v-1.5875m0-8.75h1.3188v1.5875h-1.3188v-1.5875m0 4.375h1.3188v1.5875h-1.3188v-1.5875"/>
 </g>
 <g id="text36">
  <path id="path3082" style="" d="m531.56 98.65h1.3188v1.5875h-1.3188v-1.5875m4.2625 0h1.3188v1.5875h-1.3188v-1.5875m4.2625 0h1.3188v1.5875h-1.3188v-1.5875"/>
 </g>
 <g id="text40">
  <path id="path3085" style="" d="m327.76 142.36h2.0625v-7.1188l-2.2438 0.45v-1.15l2.2312-0.45h1.2625v8.2688h2.0625v1.0625h-5.375v-1.0625"/>
  <path id="path3087" style="" d="m337.57 134.09h1.0625l-3.25 10.519h-1.0625l3.25-10.519"/>
  <path id="path3089" style="" d="m341.1 142.36h4.4062v1.0625h-5.925v-1.0625c0.47916-0.49583 1.1312-1.1604 1.9562-1.9938 0.82916-0.83749 1.35-1.3771 1.5625-1.6188 0.40416-0.45416 0.68541-0.83749 0.84375-1.15 0.16249-0.31666 0.24374-0.62707 0.24375-0.93125-0.00001-0.49582-0.17501-0.89999-0.525-1.2125-0.34584-0.31249-0.79792-0.46874-1.3562-0.46875-0.39584 0.00001-0.81459 0.0688-1.2562 0.20625-0.4375 0.13751-0.90625 0.34584-1.4062 0.625v-1.275c0.50833-0.20415 0.98333-0.35832 1.425-0.4625 0.44166-0.10415 0.84583-0.15624 1.2125-0.15625 0.96666 0.00001 1.7375 0.24168 2.3125 0.725 0.57499 0.48334 0.86249 1.1292 0.8625 1.9375-0.00001 0.38334-0.0729 0.74793-0.21875 1.0938-0.14167 0.34168-0.40209 0.74584-0.78125 1.2125-0.10417 0.12084-0.43542 0.47084-0.99375 1.05-0.55834 0.57501-1.3458 1.3813-2.3625 2.4188"/>
 </g>
 <g id="text44">
  <path id="path3092" style="" d="m368.63 142.36h4.4062v1.0625h-5.925v-1.0625c0.47916-0.49583 1.1312-1.1604 1.9562-1.9938 0.82916-0.83749 1.35-1.3771 1.5625-1.6188 0.40416-0.45416 0.68541-0.83749 0.84375-1.15 0.16249-0.31666 0.24374-0.62707 0.24375-0.93125-0.00001-0.49582-0.17501-0.89999-0.525-1.2125-0.34584-0.31249-0.79792-0.46874-1.3562-0.46875-0.39584 0.00001-0.81459 0.0688-1.2562 0.20625-0.4375 0.13751-0.90625 0.34584-1.4062 0.625v-1.275c0.50833-0.20415 0.98333-0.35832 1.425-0.4625 0.44166-0.10415 0.84583-0.15624 1.2125-0.15625 0.96666 0.00001 1.7375 0.24168 2.3125 0.725 0.57499 0.48334 0.86249 1.1292 0.8625 1.9375-0.00001 0.38334-0.0729 0.74793-0.21875 1.0938-0.14167 0.34168-0.40209 0.74584-0.78125 1.2125-0.10417 0.12084-0.43542 0.47084-0.99375 1.05-0.55834 0.57501-1.3458 1.3813-2.3625 2.4188"/>
  <path id="path3094" style="" d="m377.57 134.09h1.0625l-3.25 10.519h-1.0625l3.25-10.519"/>
  <path id="path3096" style="" d="m381.1 142.36h4.4062v1.0625h-5.925v-1.0625c0.47916-0.49583 1.1312-1.1604 1.9562-1.9938 0.82916-0.83749 1.35-1.3771 1.5625-1.6188 0.40416-0.45416 0.68541-0.83749 0.84375-1.15 0.16249-0.31666 0.24374-0.62707 0.24375-0.93125-0.00001-0.49582-0.17501-0.89999-0.525-1.2125-0.34584-0.31249-0.79792-0.46874-1.3562-0.46875-0.39584 0.00001-0.81459 0.0688-1.2562 0.20625-0.4375 0.13751-0.90625 0.34584-1.4062 0.625v-1.275c0.50833-0.20415 0.98333-0.35832 1.425-0.4625 0.44166-0.10415 0.84583-0.15624 1.2125-0.15625 0.96666 0.00001 1.7375 0.24168 2.3125 0.725 0.57499 0.48334 0.86249 1.1292 0.8625 1.9375-0.00001 0.38334-0.0729 0.74793-0.21875 1.0938-0.14167 0.34168-0.40209 0.74584-0.78125 1.2125-0.10417 0.12084-0.43542 0.47084-0.99375 1.05-0.55834 0.57501-1.3458 1.3813-2.3625 2.4188"/>
 </g>
 <g id="text48">
  <path id="path3099" style="" d="m411.36 138.39c0.60416 0.12917 1.075 0.39792 1.4125 0.80625 0.34166 0.40834 0.51249 0.91251 0.5125 1.5125-0.00001 0.92084-0.31668 1.6333-0.95 2.1375-0.63334 0.50417-1.5333 0.75625-2.7 0.75625-0.39167 0-0.79584-0.0396-1.2125-0.11875-0.4125-0.075-0.83959-0.18958-1.2812-0.34375v-1.2188c0.35 0.20417 0.73333 0.35834 1.15 0.4625 0.41666 0.10417 0.85208 0.15625 1.3062 0.15625 0.79166 0 1.3937-0.15625 1.8062-0.46875 0.41666-0.3125 0.62499-0.76666 0.625-1.3625-0.00001-0.54999-0.19376-0.97916-0.58125-1.2875-0.38334-0.31249-0.91876-0.46874-1.6062-0.46875h-1.0875v-1.0375h1.1375c0.62083 0.00001 1.0958-0.12291 1.425-0.36875 0.32916-0.24999 0.49374-0.60832 0.49375-1.075-0.00001-0.47916-0.17084-0.84582-0.5125-1.1-0.33751-0.25832-0.82292-0.38749-1.4562-0.3875-0.34584 0.00001-0.71667 0.0375-1.1125 0.1125-0.39584 0.075-0.83125 0.19168-1.3062 0.35v-1.125c0.47916-0.13332 0.92708-0.23332 1.3438-0.3 0.42083-0.0667 0.81666-0.1 1.1875-0.1 0.95833 0.00001 1.7167 0.21876 2.275 0.65625 0.55832 0.43334 0.83749 1.0208 0.8375 1.7625-0.00001 0.51668-0.14793 0.95418-0.44375 1.3125-0.29584 0.35418-0.71667 0.60001-1.2625 0.7375"/>
  <path id="path3101" style="" d="m417.57 134.09h1.0625l-3.25 10.519h-1.0625l3.25-10.519"/>
  <path id="path3103" style="" d="m421.1 142.36h4.4062v1.0625h-5.925v-1.0625c0.47916-0.49583 1.1312-1.1604 1.9562-1.9938 0.82916-0.83749 1.35-1.3771 1.5625-1.6188 0.40416-0.45416 0.68541-0.83749 0.84375-1.15 0.16249-0.31666 0.24374-0.62707 0.24375-0.93125-0.00001-0.49582-0.17501-0.89999-0.525-1.2125-0.34584-0.31249-0.79792-0.46874-1.3562-0.46875-0.39584 0.00001-0.81459 0.0688-1.2562 0.20625-0.4375 0.13751-0.90625 0.34584-1.4062 0.625v-1.275c0.50833-0.20415 0.98333-0.35832 1.425-0.4625 0.44166-0.10415 0.84583-0.15624 1.2125-0.15625 0.96666 0.00001 1.7375 0.24168 2.3125 0.725 0.57499 0.48334 0.86249 1.1292 0.8625 1.9375-0.00001 0.38334-0.0729 0.74793-0.21875 1.0938-0.14167 0.34168-0.40209 0.74584-0.78125 1.2125-0.10417 0.12084-0.43542 0.47084-0.99375 1.05-0.55834 0.57501-1.3458 1.3813-2.3625 2.4188"/>
 </g>
 <g id="text52">
  <path id="path3106" style="" d="m451.01 135.19-3.1875 4.9812h3.1875v-4.9812m-0.33125-1.1h1.5875v6.0812h1.3312v1.05h-1.3312v2.2h-1.2562v-2.2h-4.2125v-1.2188l3.8812-5.9125"/>
  <path id="path3108" style="" d="m457.57 134.09h1.0625l-3.25 10.519h-1.0625l3.25-10.519"/>
  <path id="path3110" style="" d="m461.1 142.36h4.4062v1.0625h-5.925v-1.0625c0.47916-0.49583 1.1312-1.1604 1.9562-1.9938 0.82916-0.83749 1.35-1.3771 1.5625-1.6188 0.40416-0.45416 0.68541-0.83749 0.84375-1.15 0.16249-0.31666 0.24374-0.62707 0.24375-0.93125-0.00001-0.49582-0.17501-0.89999-0.525-1.2125-0.34584-0.31249-0.79792-0.46874-1.3562-0.46875-0.39584 0.00001-0.81459 0.0688-1.2562 0.20625-0.4375 0.13751-0.90625 0.34584-1.4062 0.625v-1.275c0.50833-0.20415 0.98333-0.35832 1.425-0.4625 0.44166-0.10415 0.84583-0.15624 1.2125-0.15625 0.96666 0.00001 1.7375 0.24168 2.3125 0.725 0.57499 0.48334 0.86249 1.1292 0.8625 1.9375-0.00001 0.38334-0.0729 0.74793-0.21875 1.0938-0.14167 0.34168-0.40209 0.74584-0.78125 1.2125-0.10417 0.12084-0.43542 0.47084-0.99375 1.05-0.55834 0.57501-1.3458 1.3813-2.3625 2.4188"/>
 </g>
 <g id="text56">
  <path id="path3113" style="" d="m487.55 134.09h4.9562v1.0625h-3.8v2.2875c0.18333-0.0625 0.36666-0.10832 0.55-0.1375 0.18333-0.0333 0.36666-0.05 0.55-0.05 1.0417 0.00001 1.8667 0.28543 2.475 0.85625 0.60832 0.57084 0.91249 1.3438 0.9125 2.3188-0.00001 1.0042-0.31251 1.7854-0.9375 2.3438-0.62501 0.55417-1.5063 0.83125-2.6438 0.83125-0.39167 0-0.79167-0.0333-1.2-0.1-0.40417-0.0667-0.82292-0.16666-1.2562-0.3v-1.2688c0.375 0.20417 0.7625 0.35625 1.1625 0.45625s0.82291 0.15 1.2688 0.15c0.72083 0 1.2917-0.18958 1.7125-0.56875 0.42083-0.37916 0.63124-0.89374 0.63125-1.5438-0.00001-0.64999-0.21042-1.1646-0.63125-1.5438-0.42084-0.37916-0.99167-0.56874-1.7125-0.56875-0.3375 0.00001-0.675 0.0375-1.0125 0.1125-0.33334 0.075-0.675 0.19167-1.025 0.35v-4.6875"/>
  <path id="path3115" style="" d="m497.57 134.09h1.0625l-3.25 10.519h-1.0625l3.25-10.519"/>
  <path id="path3117" style="" d="m501.1 142.36h4.4062v1.0625h-5.925v-1.0625c0.47916-0.49583 1.1312-1.1604 1.9562-1.9938 0.82916-0.83749 1.35-1.3771 1.5625-1.6188 0.40416-0.45416 0.68541-0.83749 0.84375-1.15 0.16249-0.31666 0.24374-0.62707 0.24375-0.93125-0.00001-0.49582-0.17501-0.89999-0.525-1.2125-0.34584-0.31249-0.79792-0.46874-1.3562-0.46875-0.39584 0.00001-0.81459 0.0688-1.2562 0.20625-0.4375 0.13751-0.90625 0.34584-1.4062 0.625v-1.275c0.50833-0.20415 0.98333-0.35832 1.425-0.4625 0.44166-0.10415 0.84583-0.15624 1.2125-0.15625 0.96666 0.00001 1.7375 0.24168 2.3125 0.725 0.57499 0.48334 0.86249 1.1292 0.8625 1.9375-0.00001 0.38334-0.0729 0.74793-0.21875 1.0938-0.14167 0.34168-0.40209 0.74584-0.78125 1.2125-0.10417 0.12084-0.43542 0.47084-0.99375 1.05-0.55834 0.57501-1.3458 1.3813-2.3625 2.4188"/>
 </g>
 <g id="text60">
  <path id="path3120" style="" d="m327.76 182.36h2.0625v-7.1188l-2.2438 0.45v-1.15l2.2312-0.45h1.2625v8.2688h2.0625v1.0625h-5.375v-1.0625"/>
  <path id="path3122" style="" d="m337.57 174.09h1.0625l-3.25 10.519h-1.0625l3.25-10.519"/>
  <path id="path3124" style="" d="m343.84 178.39c0.60416 0.12917 1.075 0.39792 1.4125 0.80625 0.34166 0.40834 0.51249 0.91251 0.5125 1.5125-0.00001 0.92084-0.31667 1.6333-0.95 2.1375-0.63334 0.50417-1.5333 0.75625-2.7 0.75625-0.39167 0-0.79584-0.0396-1.2125-0.11875-0.4125-0.075-0.83959-0.18958-1.2812-0.34375v-1.2188c0.35 0.20417 0.73333 0.35834 1.15 0.4625 0.41666 0.10417 0.85208 0.15625 1.3062 0.15625 0.79166 0 1.3937-0.15625 1.8062-0.46875 0.41666-0.3125 0.62499-0.76666 0.625-1.3625-0.00001-0.54999-0.19376-0.97916-0.58125-1.2875-0.38334-0.31249-0.91876-0.46874-1.6062-0.46875h-1.0875v-1.0375h1.1375c0.62083 0.00001 1.0958-0.12291 1.425-0.36875 0.32916-0.24999 0.49374-0.60832 0.49375-1.075-0.00001-0.47916-0.17084-0.84582-0.5125-1.1-0.33751-0.25832-0.82292-0.38749-1.4562-0.3875-0.34584 0.00001-0.71667 0.0375-1.1125 0.1125-0.39584 0.075-0.83125 0.19168-1.3062 0.35v-1.125c0.47916-0.13332 0.92708-0.23332 1.3438-0.3 0.42083-0.0667 0.81666-0.1 1.1875-0.1 0.95833 0.00001 1.7167 0.21876 2.275 0.65625 0.55833 0.43334 0.83749 1.0208 0.8375 1.7625-0.00001 0.51668-0.14792 0.95418-0.44375 1.3125-0.29584 0.35418-0.71667 0.60001-1.2625 0.7375"/>
 </g>
 <g id="text64">
  <path id="path3127" style="" d="m368.63 182.36h4.4062v1.0625h-5.925v-1.0625c0.47916-0.49583 1.1312-1.1604 1.9562-1.9938 0.82916-0.83749 1.35-1.3771 1.5625-1.6188 0.40416-0.45416 0.68541-0.83749 0.84375-1.15 0.16249-0.31666 0.24374-0.62707 0.24375-0.93125-0.00001-0.49582-0.17501-0.89999-0.525-1.2125-0.34584-0.31249-0.79792-0.46874-1.3562-0.46875-0.39584 0.00001-0.81459 0.0688-1.2562 0.20625-0.4375 0.13751-0.90625 0.34584-1.4062 0.625v-1.275c0.50833-0.20415 0.98333-0.35832 1.425-0.4625 0.44166-0.10415 0.84583-0.15624 1.2125-0.15625 0.96666 0.00001 1.7375 0.24168 2.3125 0.725 0.57499 0.48334 0.86249 1.1292 0.8625 1.9375-0.00001 0.38334-0.0729 0.74793-0.21875 1.0938-0.14167 0.34168-0.40209 0.74584-0.78125 1.2125-0.10417 0.12084-0.43542 0.47084-0.99375 1.05-0.55834 0.57501-1.3458 1.3813-2.3625 2.4188"/>
  <path id="path3129" style="" d="m377.57 174.09h1.0625l-3.25 10.519h-1.0625l3.25-10.519"/>
  <path id="path3131" style="" d="m383.84 178.39c0.60416 0.12917 1.075 0.39792 1.4125 0.80625 0.34166 0.40834 0.51249 0.91251 0.5125 1.5125-0.00001 0.92084-0.31667 1.6333-0.95 2.1375-0.63334 0.50417-1.5333 0.75625-2.7 0.75625-0.39167 0-0.79584-0.0396-1.2125-0.11875-0.4125-0.075-0.83959-0.18958-1.2812-0.34375v-1.2188c0.35 0.20417 0.73333 0.35834 1.15 0.4625 0.41666 0.10417 0.85208 0.15625 1.3062 0.15625 0.79166 0 1.3937-0.15625 1.8062-0.46875 0.41666-0.3125 0.62499-0.76666 0.625-1.3625-0.00001-0.54999-0.19376-0.97916-0.58125-1.2875-0.38334-0.31249-0.91876-0.46874-1.6062-0.46875h-1.0875v-1.0375h1.1375c0.62083 0.00001 1.0958-0.12291 1.425-0.36875 0.32916-0.24999 0.49374-0.60832 0.49375-1.075-0.00001-0.47916-0.17084-0.84582-0.5125-1.1-0.33751-0.25832-0.82292-0.38749-1.4562-0.3875-0.34584 0.00001-0.71667 0.0375-1.1125 0.1125-0.39584 0.075-0.83125 0.19168-1.3062 0.35v-1.125c0.47916-0.13332 0.92708-0.23332 1.3438-0.3 0.42083-0.0667 0.81666-0.1 1.1875-0.1 0.95833 0.00001 1.7167 0.21876 2.275 0.65625 0.55833 0.43334 0.83749 1.0208 0.8375 1.7625-0.00001 0.51668-0.14792 0.95418-0.44375 1.3125-0.29584 0.35418-0.71667 0.60001-1.2625 0.7375"/>
 </g>
 <g id="text68">
  <path id="path3134" style="" d="m411.36 178.39c0.60416 0.12917 1.075 0.39792 1.4125 0.80625 0.34166 0.40834 0.51249 0.91251 0.5125 1.5125-0.00001 0.92084-0.31668 1.6333-0.95 2.1375-0.63334 0.50417-1.5333 0.75625-2.7 0.75625-0.39167 0-0.79584-0.0396-1.2125-0.11875-0.4125-0.075-0.83959-0.18958-1.2812-0.34375v-1.2188c0.35 0.20417 0.73333 0.35834 1.15 0.4625 0.41666 0.10417 0.85208 0.15625 1.3062 0.15625 0.79166 0 1.3937-0.15625 1.8062-0.46875 0.41666-0.3125 0.62499-0.76666 0.625-1.3625-0.00001-0.54999-0.19376-0.97916-0.58125-1.2875-0.38334-0.31249-0.91876-0.46874-1.6062-0.46875h-1.0875v-1.0375h1.1375c0.62083 0.00001 1.0958-0.12291 1.425-0.36875 0.32916-0.24999 0.49374-0.60832 0.49375-1.075-0.00001-0.47916-0.17084-0.84582-0.5125-1.1-0.33751-0.25832-0.82292-0.38749-1.4562-0.3875-0.34584 0.00001-0.71667 0.0375-1.1125 0.1125-0.39584 0.075-0.83125 0.19168-1.3062 0.35v-1.125c0.47916-0.13332 0.92708-0.23332 1.3438-0.3 0.42083-0.0667 0.81666-0.1 1.1875-0.1 0.95833 0.00001 1.7167 0.21876 2.275 0.65625 0.55832 0.43334 0.83749 1.0208 0.8375 1.7625-0.00001 0.51668-0.14793 0.95418-0.44375 1.3125-0.29584 0.35418-0.71667 0.60001-1.2625 0.7375"/>
  <path id="path3136" style="" d="m417.57 174.09h1.0625l-3.25 10.519h-1.0625l3.25-10.519"/>
  <path id="path3138" style="" d="m423.84 178.39c0.60416 0.12917 1.075 0.39792 1.4125 0.80625 0.34166 0.40834 0.51249 0.91251 0.5125 1.5125-0.00001 0.92084-0.31667 1.6333-0.95 2.1375-0.63334 0.50417-1.5333 0.75625-2.7 0.75625-0.39167 0-0.79584-0.0396-1.2125-0.11875-0.4125-0.075-0.83959-0.18958-1.2812-0.34375v-1.2188c0.35 0.20417 0.73333 0.35834 1.15 0.4625 0.41666 0.10417 0.85208 0.15625 1.3062 0.15625 0.79166 0 1.3937-0.15625 1.8062-0.46875 0.41666-0.3125 0.62499-0.76666 0.625-1.3625-0.00001-0.54999-0.19376-0.97916-0.58125-1.2875-0.38334-0.31249-0.91876-0.46874-1.6062-0.46875h-1.0875v-1.0375h1.1375c0.62083 0.00001 1.0958-0.12291 1.425-0.36875 0.32916-0.24999 0.49374-0.60832 0.49375-1.075-0.00001-0.47916-0.17084-0.84582-0.5125-1.1-0.33751-0.25832-0.82292-0.38749-1.4562-0.3875-0.34584 0.00001-0.71667 0.0375-1.1125 0.1125-0.39584 0.075-0.83125 0.19168-1.3062 0.35v-1.125c0.47916-0.13332 0.92708-0.23332 1.3438-0.3 0.42083-0.0667 0.81666-0.1 1.1875-0.1 0.95833 0.00001 1.7167 0.21876 2.275 0.65625 0.55833 0.43334 0.83749 1.0208 0.8375 1.7625-0.00001 0.51668-0.14792 0.95418-0.44375 1.3125-0.29584 0.35418-0.71667 0.60001-1.2625 0.7375"/>
 </g>
 <g id="text72">
  <path id="path3141" style="" d="m451.01 175.19-3.1875 4.9812h3.1875v-4.9812m-0.33125-1.1h1.5875v6.0812h1.3312v1.05h-1.3312v2.2h-1.2562v-2.2h-4.2125v-1.2188l3.8812-5.9125"/>
  <path id="path3143" style="" d="m457.57 174.09h1.0625l-3.25 10.519h-1.0625l3.25-10.519"/>
  <path id="path3145" style="" d="m463.84 178.39c0.60416 0.12917 1.075 0.39792 1.4125 0.80625 0.34166 0.40834 0.51249 0.91251 0.5125 1.5125-0.00001 0.92084-0.31667 1.6333-0.95 2.1375-0.63334 0.50417-1.5333 0.75625-2.7 0.75625-0.39167 0-0.79584-0.0396-1.2125-0.11875-0.4125-0.075-0.83959-0.18958-1.2812-0.34375v-1.2188c0.35 0.20417 0.73333 0.35834 1.15 0.4625 0.41666 0.10417 0.85208 0.15625 1.3062 0.15625 0.79166 0 1.3937-0.15625 1.8062-0.46875 0.41666-0.3125 0.62499-0.76666 0.625-1.3625-0.00001-0.54999-0.19376-0.97916-0.58125-1.2875-0.38334-0.31249-0.91876-0.46874-1.6062-0.46875h-1.0875v-1.0375h1.1375c0.62083 0.00001 1.0958-0.12291 1.425-0.36875 0.32916-0.24999 0.49374-0.60832 0.49375-1.075-0.00001-0.47916-0.17084-0.84582-0.5125-1.1-0.33751-0.25832-0.82292-0.38749-1.4562-0.3875-0.34584 0.00001-0.71667 0.0375-1.1125 0.1125-0.39584 0.075-0.83125 0.19168-1.3062 0.35v-1.125c0.47916-0.13332 0.92708-0.23332 1.3438-0.3 0.42083-0.0667 0.81666-0.1 1.1875-0.1 0.95833 0.00001 1.7167 0.21876 2.275 0.65625 0.55833 0.43334 0.83749 1.0208 0.8375 1.7625-0.00001 0.51668-0.14792 0.95418-0.44375 1.3125-0.29584 0.35418-0.71667 0.60001-1.2625 0.7375"/>
 </g>
 <g id="text76">
  <path id="path3148" style="" d="m487.55 174.09h4.9562v1.0625h-3.8v2.2875c0.18333-0.0625 0.36666-0.10832 0.55-0.1375 0.18333-0.0333 0.36666-0.05 0.55-0.05 1.0417 0.00001 1.8667 0.28543 2.475 0.85625 0.60832 0.57084 0.91249 1.3438 0.9125 2.3188-0.00001 1.0042-0.31251 1.7854-0.9375 2.3438-0.62501 0.55417-1.5063 0.83125-2.6438 0.83125-0.39167 0-0.79167-0.0333-1.2-0.1-0.40417-0.0667-0.82292-0.16666-1.2562-0.3v-1.2688c0.375 0.20417 0.7625 0.35625 1.1625 0.45625s0.82291 0.15 1.2688 0.15c0.72083 0 1.2917-0.18958 1.7125-0.56875 0.42083-0.37916 0.63124-0.89374 0.63125-1.5438-0.00001-0.64999-0.21042-1.1646-0.63125-1.5438-0.42084-0.37916-0.99167-0.56874-1.7125-0.56875-0.3375 0.00001-0.675 0.0375-1.0125 0.1125-0.33334 0.075-0.675 0.19167-1.025 0.35v-4.6875"/>
  <path id="path3150" style="" d="m497.57 174.09h1.0625l-3.25 10.519h-1.0625l3.25-10.519"/>
  <path id="path3152" style="" d="m503.84 178.39c0.60416 0.12917 1.075 0.39792 1.4125 0.80625 0.34166 0.40834 0.51249 0.91251 0.5125 1.5125-0.00001 0.92084-0.31667 1.6333-0.95 2.1375-0.63334 0.50417-1.5333 0.75625-2.7 0.75625-0.39167 0-0.79584-0.0396-1.2125-0.11875-0.4125-0.075-0.83959-0.18958-1.2812-0.34375v-1.2188c0.35 0.20417 0.73333 0.35834 1.15 0.4625 0.41666 0.10417 0.85208 0.15625 1.3062 0.15625 0.79166 0 1.3937-0.15625 1.8062-0.46875 0.41666-0.3125 0.62499-0.76666 0.625-1.3625-0.00001-0.54999-0.19376-0.97916-0.58125-1.2875-0.38334-0.31249-0.91876-0.46874-1.6062-0.46875h-1.0875v-1.0375h1.1375c0.62083 0.00001 1.0958-0.12291 1.425-0.36875 0.32916-0.24999 0.49374-0.60832 0.49375-1.075-0.00001-0.47916-0.17084-0.84582-0.5125-1.1-0.33751-0.25832-0.82292-0.38749-1.4562-0.3875-0.34584 0.00001-0.71667 0.0375-1.1125 0.1125-0.39584 0.075-0.83125 0.19168-1.3062 0.35v-1.125c0.47916-0.13332 0.92708-0.23332 1.3438-0.3 0.42083-0.0667 0.81666-0.1 1.1875-0.1 0.95833 0.00001 1.7167 0.21876 2.275 0.65625 0.55833 0.43334 0.83749 1.0208 0.8375 1.7625-0.00001 0.51668-0.14792 0.95418-0.44375 1.3125-0.29584 0.35418-0.71667 0.60001-1.2625 0.7375"/>
 </g>
 <g id="text80">
  <path id="path3155" style="" d="m327.76 222.36h2.0625v-7.1188l-2.2438 0.45v-1.15l2.2312-0.45h1.2625v8.2688h2.0625v1.0625h-5.375v-1.0625"/>
  <path id="path3157" style="" d="m337.57 214.09h1.0625l-3.25 10.519h-1.0625l3.25-10.519"/>
  <path id="path3159" style="" d="m343.48 215.19-3.1875 4.9812h3.1875v-4.9812m-0.33125-1.1h1.5875v6.0812h1.3312v1.05h-1.3312v2.2h-1.2562v-2.2h-4.2125v-1.2188l3.8812-5.9125"/>
 </g>
 <g id="text84">
  <path id="path3162" style="" d="m368.63 222.36h4.4062v1.0625h-5.925v-1.0625c0.47916-0.49583 1.1312-1.1604 1.9562-1.9938 0.82916-0.83749 1.35-1.3771 1.5625-1.6188 0.40416-0.45416 0.68541-0.83749 0.84375-1.15 0.16249-0.31666 0.24374-0.62707 0.24375-0.93125-0.00001-0.49582-0.17501-0.89999-0.525-1.2125-0.34584-0.31249-0.79792-0.46874-1.3562-0.46875-0.39584 0.00001-0.81459 0.0688-1.2562 0.20625-0.4375 0.13751-0.90625 0.34584-1.4062 0.625v-1.275c0.50833-0.20415 0.98333-0.35832 1.425-0.4625 0.44166-0.10415 0.84583-0.15624 1.2125-0.15625 0.96666 0.00001 1.7375 0.24168 2.3125 0.725 0.57499 0.48334 0.86249 1.1292 0.8625 1.9375-0.00001 0.38334-0.0729 0.74793-0.21875 1.0938-0.14167 0.34168-0.40209 0.74584-0.78125 1.2125-0.10417 0.12084-0.43542 0.47084-0.99375 1.05-0.55834 0.57501-1.3458 1.3813-2.3625 2.4188"/>
  <path id="path3164" style="" d="m377.57 214.09h1.0625l-3.25 10.519h-1.0625l3.25-10.519"/>
  <path id="path3166" style="" d="m383.48 215.19-3.1875 4.9812h3.1875v-4.9812m-0.33125-1.1h1.5875v6.0812h1.3312v1.05h-1.3312v2.2h-1.2562v-2.2h-4.2125v-1.2188l3.8812-5.9125"/>
 </g>
 <g id="text88">
  <path id="path3169" style="" d="m411.36 218.39c0.60416 0.12917 1.075 0.39792 1.4125 0.80625 0.34166 0.40834 0.51249 0.91251 0.5125 1.5125-0.00001 0.92084-0.31668 1.6333-0.95 2.1375-0.63334 0.50417-1.5333 0.75625-2.7 0.75625-0.39167 0-0.79584-0.0396-1.2125-0.11875-0.4125-0.075-0.83959-0.18958-1.2812-0.34375v-1.2188c0.35 0.20417 0.73333 0.35834 1.15 0.4625 0.41666 0.10417 0.85208 0.15625 1.3062 0.15625 0.79166 0 1.3937-0.15625 1.8062-0.46875 0.41666-0.3125 0.62499-0.76666 0.625-1.3625-0.00001-0.54999-0.19376-0.97916-0.58125-1.2875-0.38334-0.31249-0.91876-0.46874-1.6062-0.46875h-1.0875v-1.0375h1.1375c0.62083 0.00001 1.0958-0.12291 1.425-0.36875 0.32916-0.24999 0.49374-0.60832 0.49375-1.075-0.00001-0.47916-0.17084-0.84582-0.5125-1.1-0.33751-0.25832-0.82292-0.38749-1.4562-0.3875-0.34584 0.00001-0.71667 0.0375-1.1125 0.1125-0.39584 0.075-0.83125 0.19168-1.3062 0.35v-1.125c0.47916-0.13332 0.92708-0.23332 1.3438-0.3 0.42083-0.0667 0.81666-0.1 1.1875-0.1 0.95833 0.00001 1.7167 0.21876 2.275 0.65625 0.55832 0.43334 0.83749 1.0208 0.8375 1.7625-0.00001 0.51668-0.14793 0.95418-0.44375 1.3125-0.29584 0.35418-0.71667 0.60001-1.2625 0.7375"/>
  <path id="path3171" style="" d="m417.57 214.09h1.0625l-3.25 10.519h-1.0625l3.25-10.519"/>
  <path id="path3173" style="" d="m423.48 215.19-3.1875 4.9812h3.1875v-4.9812m-0.33125-1.1h1.5875v6.0812h1.3312v1.05h-1.3312v2.2h-1.2562v-2.2h-4.2125v-1.2188l3.8812-5.9125"/>
 </g>
 <g id="text92">
  <path id="path3176" style="" d="m451.01 215.19-3.1875 4.9812h3.1875v-4.9812m-0.33125-1.1h1.5875v6.0812h1.3312v1.05h-1.3312v2.2h-1.2562v-2.2h-4.2125v-1.2188l3.8812-5.9125"/>
  <path id="path3178" style="" d="m457.57 214.09h1.0625l-3.25 10.519h-1.0625l3.25-10.519"/>
  <path id="path3180" style="" d="m463.48 215.19-3.1875 4.9812h3.1875v-4.9812m-0.33125-1.1h1.5875v6.0812h1.3312v1.05h-1.3312v2.2h-1.2562v-2.2h-4.2125v-1.2188l3.8812-5.9125"/>
 </g>
 <g id="text96">
  <path id="path3183" style="" d="m487.55 214.09h4.9562v1.0625h-3.8v2.2875c0.18333-0.0625 0.36666-0.10832 0.55-0.1375 0.18333-0.0333 0.36666-0.05 0.55-0.05 1.0417 0.00001 1.8667 0.28543 2.475 0.85625 0.60832 0.57084 0.91249 1.3438 0.9125 2.3188-0.00001 1.0042-0.31251 1.7854-0.9375 2.3438-0.62501 0.55417-1.5063 0.83125-2.6438 0.83125-0.39167 0-0.79167-0.0333-1.2-0.1-0.40417-0.0667-0.82292-0.16666-1.2562-0.3v-1.2688c0.375 0.20417 0.7625 0.35625 1.1625 0.45625s0.82291 0.15 1.2688 0.15c0.72083 0 1.2917-0.18958 1.7125-0.56875 0.42083-0.37916 0.63124-0.89374 0.63125-1.5438-0.00001-0.64999-0.21042-1.1646-0.63125-1.5438-0.42084-0.37916-0.99167-0.56874-1.7125-0.56875-0.3375 0.00001-0.675 0.0375-1.0125 0.1125-0.33334 0.075-0.675 0.19167-1.025 0.35v-4.6875"/>
  <path id="path3185" style="" d="m497.57 214.09h1.0625l-3.25 10.519h-1.0625l3.25-10.519"/>
  <path id="path3187" style="" d="m503.48 215.19-3.1875 4.9812h3.1875v-4.9812m-0.33125-1.1h1.5875v6.0812h1.3312v1.05h-1.3312v2.2h-1.2562v-2.2h-4.2125v-1.2188l3.8812-5.9125"/>
 </g>
 <g id="text100">
  <path id="path3190" style="" d="m327.76 262.36h2.0625v-7.1188l-2.2438 0.45v-1.15l2.2312-0.45h1.2625v8.2688h2.0625v1.0625h-5.375v-1.0625"/>
  <path id="path3192" style="" d="m337.57 254.09h1.0625l-3.25 10.519h-1.0625l3.25-10.519"/>
  <path id="path3194" style="" d="m340.03 254.09h4.9562v1.0625h-3.8v2.2875c0.18333-0.0625 0.36666-0.10833 0.55-0.1375 0.18333-0.0333 0.36666-0.05 0.55-0.05 1.0417 0 1.8667 0.28542 2.475 0.85625 0.60833 0.57084 0.91249 1.3438 0.9125 2.3188-0.00001 1.0042-0.31251 1.7854-0.9375 2.3438-0.62501 0.55416-1.5063 0.83125-2.6438 0.83125-0.39167 0-0.79167-0.0333-1.2-0.1-0.40417-0.0667-0.82292-0.16667-1.2562-0.3v-1.2688c0.375 0.20417 0.7625 0.35625 1.1625 0.45625s0.82291 0.15 1.2688 0.15c0.72083 0 1.2917-0.18958 1.7125-0.56875 0.42083-0.37917 0.63124-0.89375 0.63125-1.5438-0.00001-0.65-0.21042-1.1646-0.63125-1.5438-0.42084-0.37916-0.99167-0.56875-1.7125-0.56875-0.3375 0-0.675 0.0375-1.0125 0.1125-0.33334 0.075-0.675 0.19167-1.025 0.35v-4.6875"/>
 </g>
 <g id="text104">
  <path id="path3197" style="" d="m368.63 262.36h4.4062v1.0625h-5.925v-1.0625c0.47916-0.49583 1.1312-1.1604 1.9562-1.9938 0.82916-0.8375 1.35-1.3771 1.5625-1.6188 0.40416-0.45416 0.68541-0.8375 0.84375-1.15 0.16249-0.31666 0.24374-0.62708 0.24375-0.93125-0.00001-0.49583-0.17501-0.89999-0.525-1.2125-0.34584-0.31249-0.79792-0.46874-1.3562-0.46875-0.39584 0.00001-0.81459 0.0688-1.2562 0.20625-0.4375 0.13751-0.90625 0.34584-1.4062 0.625v-1.275c0.50833-0.20416 0.98333-0.35833 1.425-0.4625 0.44166-0.10416 0.84583-0.15624 1.2125-0.15625 0.96666 0.00001 1.7375 0.24167 2.3125 0.725 0.57499 0.48334 0.86249 1.1292 0.8625 1.9375-0.00001 0.38334-0.0729 0.74792-0.21875 1.0938-0.14167 0.34167-0.40209 0.74584-0.78125 1.2125-0.10417 0.12084-0.43542 0.47084-0.99375 1.05-0.55834 0.575-1.3458 1.3812-2.3625 2.4188"/>
  <path id="path3199" style="" d="m377.57 254.09h1.0625l-3.25 10.519h-1.0625l3.25-10.519"/>
  <path id="path3201" style="" d="m380.03 254.09h4.9562v1.0625h-3.8v2.2875c0.18333-0.0625 0.36666-0.10833 0.55-0.1375 0.18333-0.0333 0.36666-0.05 0.55-0.05 1.0417 0 1.8667 0.28542 2.475 0.85625 0.60833 0.57084 0.91249 1.3438 0.9125 2.3188-0.00001 1.0042-0.31251 1.7854-0.9375 2.3438-0.62501 0.55416-1.5063 0.83125-2.6438 0.83125-0.39167 0-0.79167-0.0333-1.2-0.1-0.40417-0.0667-0.82292-0.16667-1.2562-0.3v-1.2688c0.375 0.20417 0.7625 0.35625 1.1625 0.45625s0.82291 0.15 1.2688 0.15c0.72083 0 1.2917-0.18958 1.7125-0.56875 0.42083-0.37917 0.63124-0.89375 0.63125-1.5438-0.00001-0.65-0.21042-1.1646-0.63125-1.5438-0.42084-0.37916-0.99167-0.56875-1.7125-0.56875-0.3375 0-0.675 0.0375-1.0125 0.1125-0.33334 0.075-0.675 0.19167-1.025 0.35v-4.6875"/>
 </g>
 <g id="text108">
  <path id="path3204" style="" d="m411.36 258.39c0.60416 0.12917 1.075 0.39792 1.4125 0.80625 0.34166 0.40833 0.51249 0.9125 0.5125 1.5125-0.00001 0.92083-0.31668 1.6333-0.95 2.1375-0.63334 0.50416-1.5333 0.75625-2.7 0.75625-0.39167 0-0.79584-0.0396-1.2125-0.11875-0.4125-0.075-0.83959-0.18959-1.2812-0.34375v-1.2188c0.35 0.20417 0.73333 0.35833 1.15 0.4625 0.41666 0.10417 0.85208 0.15625 1.3062 0.15625 0.79166 0 1.3937-0.15625 1.8062-0.46875 0.41666-0.3125 0.62499-0.76667 0.625-1.3625-0.00001-0.55-0.19376-0.97917-0.58125-1.2875-0.38334-0.3125-0.91876-0.46875-1.6062-0.46875h-1.0875v-1.0375h1.1375c0.62083 0 1.0958-0.12291 1.425-0.36875 0.32916-0.25 0.49374-0.60833 0.49375-1.075-0.00001-0.47916-0.17084-0.84583-0.5125-1.1-0.33751-0.25833-0.82292-0.38749-1.4562-0.3875-0.34584 0.00001-0.71667 0.0375-1.1125 0.1125-0.39584 0.075-0.83125 0.19167-1.3062 0.35v-1.125c0.47916-0.13333 0.92708-0.23333 1.3438-0.3 0.42083-0.0667 0.81666-0.1 1.1875-0.1 0.95833 0.00001 1.7167 0.21876 2.275 0.65625 0.55832 0.43334 0.83749 1.0208 0.8375 1.7625-0.00001 0.51667-0.14793 0.95417-0.44375 1.3125-0.29584 0.35417-0.71667 0.6-1.2625 0.7375"/>
  <path id="path3206" style="" d="m417.57 254.09h1.0625l-3.25 10.519h-1.0625l3.25-10.519"/>
  <path id="path3208" style="" d="m420.03 254.09h4.9562v1.0625h-3.8v2.2875c0.18333-0.0625 0.36666-0.10833 0.55-0.1375 0.18333-0.0333 0.36666-0.05 0.55-0.05 1.0417 0 1.8667 0.28542 2.475 0.85625 0.60833 0.57084 0.91249 1.3438 0.9125 2.3188-0.00001 1.0042-0.31251 1.7854-0.9375 2.3438-0.62501 0.55416-1.5063 0.83125-2.6438 0.83125-0.39167 0-0.79167-0.0333-1.2-0.1-0.40417-0.0667-0.82292-0.16667-1.2562-0.3v-1.2688c0.375 0.20417 0.7625 0.35625 1.1625 0.45625s0.82291 0.15 1.2688 0.15c0.72083 0 1.2917-0.18958 1.7125-0.56875 0.42083-0.37917 0.63124-0.89375 0.63125-1.5438-0.00001-0.65-0.21042-1.1646-0.63125-1.5438-0.42084-0.37916-0.99167-0.56875-1.7125-0.56875-0.3375 0-0.675 0.0375-1.0125 0.1125-0.33334 0.075-0.675 0.19167-1.025 0.35v-4.6875"/>
 </g>
 <g id="text112">
  <path id="path3211" style="" d="m451.01 255.19-3.1875 4.9812h3.1875v-4.9812m-0.33125-1.1h1.5875v6.0812h1.3312v1.05h-1.3312v2.2h-1.2562v-2.2h-4.2125v-1.2188l3.8812-5.9125"/>
  <path id="path3213" style="" d="m457.57 254.09h1.0625l-3.25 10.519h-1.0625l3.25-10.519"/>
  <path id="path3215" style="" d="m460.03 254.09h4.9562v1.0625h-3.8v2.2875c0.18333-0.0625 0.36666-0.10833 0.55-0.1375 0.18333-0.0333 0.36666-0.05 0.55-0.05 1.0417 0 1.8667 0.28542 2.475 0.85625 0.60833 0.57084 0.91249 1.3438 0.9125 2.3188-0.00001 1.0042-0.31251 1.7854-0.9375 2.3438-0.62501 0.55416-1.5063 0.83125-2.6438 0.83125-0.39167 0-0.79167-0.0333-1.2-0.1-0.40417-0.0667-0.82292-0.16667-1.2562-0.3v-1.2688c0.375 0.20417 0.7625 0.35625 1.1625 0.45625s0.82291 0.15 1.2688 0.15c0.72083 0 1.2917-0.18958 1.7125-0.56875 0.42083-0.37917 0.63124-0.89375 0.63125-1.5438-0.00001-0.65-0.21042-1.1646-0.63125-1.5438-0.42084-0.37916-0.99167-0.56875-1.7125-0.56875-0.3375 0-0.675 0.0375-1.0125 0.1125-0.33334 0.075-0.675 0.19167-1.025 0.35v-4.6875"/>
 </g>
 <g id="text116">
  <path id="path3218" style="" d="m487.55 254.09h4.9562v1.0625h-3.8v2.2875c0.18333-0.0625 0.36666-0.10833 0.55-0.1375 0.18333-0.0333 0.36666-0.05 0.55-0.05 1.0417 0 1.8667 0.28542 2.475 0.85625 0.60832 0.57084 0.91249 1.3438 0.9125 2.3188-0.00001 1.0042-0.31251 1.7854-0.9375 2.3438-0.62501 0.55416-1.5063 0.83125-2.6438 0.83125-0.39167 0-0.79167-0.0333-1.2-0.1-0.40417-0.0667-0.82292-0.16667-1.2562-0.3v-1.2688c0.375 0.20417 0.7625 0.35625 1.1625 0.45625s0.82291 0.15 1.2688 0.15c0.72083 0 1.2917-0.18958 1.7125-0.56875 0.42083-0.37917 0.63124-0.89375 0.63125-1.5438-0.00001-0.65-0.21042-1.1646-0.63125-1.5438-0.42084-0.37916-0.99167-0.56875-1.7125-0.56875-0.3375 0-0.675 0.0375-1.0125 0.1125-0.33334 0.075-0.675 0.19167-1.025 0.35v-4.6875"/>
  <path id="path3220" style="" d="m497.57 254.09h1.0625l-3.25 10.519h-1.0625l3.25-10.519"/>
  <path id="path3222" style="" d="m500.03 254.09h4.9562v1.0625h-3.8v2.2875c0.18333-0.0625 0.36666-0.10833 0.55-0.1375 0.18333-0.0333 0.36666-0.05 0.55-0.05 1.0417 0 1.8667 0.28542 2.475 0.85625 0.60833 0.57084 0.91249 1.3438 0.9125 2.3188-0.00001 1.0042-0.31251 1.7854-0.9375 2.3438-0.62501 0.55416-1.5063 0.83125-2.6438 0.83125-0.39167 0-0.79167-0.0333-1.2-0.1-0.40417-0.0667-0.82292-0.16667-1.2562-0.3v-1.2688c0.375 0.20417 0.7625 0.35625 1.1625 0.45625s0.82291 0.15 1.2688 0.15c0.72083 0 1.2917-0.18958 1.7125-0.56875 0.42083-0.37917 0.63124-0.89375 0.63125-1.5438-0.00001-0.65-0.21042-1.1646-0.63125-1.5438-0.42084-0.37916-0.99167-0.56875-1.7125-0.56875-0.3375 0-0.675 0.0375-1.0125 0.1125-0.33334 0.075-0.675 0.19167-1.025 0.35v-4.6875"/>
 </g>
</svg>
