<?xml version="1.0" encoding="UTF-8" standalone="no"?>
<!-- Created with Inkscape (http://www.inkscape.org/) -->
<svg id="svg2" xmlns:rdf="http://www.w3.org/1999/02/22-rdf-syntax-ns#" xmlns="http://www.w3.org/2000/svg" height="557.61" width="742.25" version="1.1" xmlns:cc="http://creativecommons.org/ns#" xmlns:dc="http://purl.org/dc/elements/1.1/" viewBox="118 -82 402.00001 298.01891">
 <metadata id="metadata180">
  <rdf:RDF>
   <cc:Work rdf:about="">
    <dc:format>image/svg+xml</dc:format>
    <dc:type rdf:resource="http://purl.org/dc/dcmitype/StillImage"/>
   </cc:Work>
  </rdf:RDF>
 </metadata>
 <path id="rect4" d="m119-82.991h400v300h-400z" stroke="#000" stroke-width="2" fill="none"/>
 <g id="g6" transform="translate(-1 -2.9905)">
  <path id="rect8" fill="#fff" d="m260 20h100v40h-100z"/>
  <path id="rect10" d="m260 20h100v40h-100z" stroke="#000" stroke-width="2" fill="none"/>
 </g>
 <g id="g12" transform="translate(-1 -2.9905)">
  <path id="rect14" fill="#fff" d="m400 20h100v40h-100z"/>
  <path id="rect16" d="m400 20h100v40h-100z" stroke="#000" stroke-width="2" fill="none"/>
 </g>
 <g id="g18" transform="translate(-1 -2.9905)">
  <path id="polygon20" fill="#fff" d="m400 120h-40-40l20 40h80l20-40z"/>
  <path id="polygon22" d="m400 120h-40-40l20 40h80l20-40z" stroke="#000" stroke-width="2" fill="none"/>
 </g>
 <g id="g24" stroke="#000" stroke-width="2" fill="none" transform="translate(-1 -2.9905)">
  <path id="polyline26" d="m340 60v30 25.528"/>
  <path id="polyline28" d="m335 107.76 5 10 5-10"/>
 </g>
 <g id="g30" stroke="#000" stroke-width="2" fill="none" transform="translate(-1 -2.9905)">
  <path id="polyline32" d="m420 60v30 25.528"/>
  <path id="polyline34" d="m415 107.76 5 10 5-10"/>
 </g>
 <g id="text36">
  <path id="path3080" style="" d="m351.41 133.27v1.7264c-0.51595-0.26458-1.0517-0.46301-1.6074-0.59532-0.55563-0.13228-1.1311-0.19842-1.7264-0.19843-0.90621 0.00001-1.5875 0.13891-2.0439 0.41672-0.44979 0.27782-0.67469 0.69454-0.67469 1.2502 0 0.42334 0.16206 0.75738 0.48617 1.0021 0.32412 0.23813 0.97565 0.46634 1.9546 0.68461l0.62508 0.13891c1.2964 0.27782 2.2159 0.67138 2.7583 1.1807 0.549 0.50271 0.82351 1.2072 0.82352 2.1134-0.00001 1.0319-0.41011 1.8488-1.2303 2.4507-0.81361 0.60193-1.9348 0.90289-3.3635 0.90289-0.59532 0-1.2171-0.0595-1.8653-0.17859-0.64162-0.11245-1.3196-0.28443-2.034-0.51594v-1.8852c0.67469 0.35057 1.3394 0.61515 1.9943 0.79375 0.65484 0.17198 1.3031 0.25797 1.9447 0.25796 0.85989 0.00001 1.5214-0.14552 1.9844-0.43656 0.46302-0.29765 0.69453-0.71437 0.69453-1.2502 0-0.4961-0.16868-0.87643-0.50601-1.141-0.33074-0.26458-1.0616-0.51924-2.1927-0.76398l-0.635-0.14883c-1.1311-0.23812-1.948-0.60192-2.4507-1.0914-0.50271-0.49609-0.75406-1.1741-0.75406-2.034 0-1.0451 0.37041-1.8521 1.1112-2.4209 0.74083-0.56884 1.7926-0.85327 3.1552-0.85328 0.67469 0.00001 1.3097 0.0496 1.905 0.14883 0.59531 0.0992 1.1443 0.24805 1.647 0.44648"/>
  <path id="path3082" style="" d="m354.13 132.95h8.6717v1.6669l-6.8659 7.9871h6.8659v1.4585h-8.9198v-1.6669l6.8659-7.9871h-6.6179v-1.4585"/>
  <path id="path3084" style="" d="m369.9 134.23c-0.97896 0.00001-1.7529 0.38366-2.3217 1.1509-0.56886 0.76068-0.85328 1.8058-0.85328 3.1353s0.28112 2.378 0.84336 3.1452c0.56885 0.76068 1.3461 1.141 2.3316 1.141 0.97234 0 1.7429-0.38364 2.3118-1.1509 0.56884-0.76729 0.85327-1.8124 0.85328-3.1353-0.00001-1.3163-0.28444-2.3581-0.85328-3.1254-0.56887-0.7739-1.3395-1.1608-2.3118-1.1609m0-1.5478c1.5875 0.00001 2.8343 0.51595 3.7406 1.5478 0.90618 1.0319 1.3593 2.4606 1.3593 4.2862-0.00001 1.819-0.45311 3.2478-1.3593 4.2862-0.90621 1.0319-2.1531 1.5478-3.7406 1.5478-1.5941 0-2.8443-0.51593-3.7505-1.5478-0.89958-1.0385-1.3494-2.4672-1.3494-4.2862 0-1.8256 0.44979-3.2544 1.3494-4.2862 0.9062-1.0319 2.1564-1.5478 3.7505-1.5478"/>
  <path id="path3086" style="" d="m384.46 134.65c-0.20506-0.11905-0.42995-0.20504-0.67469-0.25797-0.23813-0.0595-0.50271-0.0893-0.79375-0.0893-1.0319 0.00001-1.8256 0.33735-2.3812 1.012-0.54901 0.66808-0.82352 1.6305-0.82351 2.8873v5.8539h-1.8356v-11.112h1.8356v1.7264c0.38364-0.67467 0.88304-1.1741 1.4982-1.4982 0.61515-0.33072 1.3626-0.49608 2.2423-0.49609 0.12567 0.00001 0.26458 0.01 0.41672 0.0298 0.15213 0.0132 0.3208 0.0364 0.50602 0.0695l0.01 1.8752"/>
  <path id="path3088" style="" d="m385.6 132.95h8.6717v1.6669l-6.8659 7.9871h6.8659v1.4585h-8.9198v-1.6669l6.8659-7.9871h-6.6179v-1.4585"/>
  <path id="path3090" style="" d="m402.12 138.47c-1.4751 0.00001-2.497 0.16868-3.0659 0.50602-0.56886 0.33735-0.85329 0.91281-0.85328 1.7264-0.00001 0.64824 0.21166 1.1642 0.635 1.5478 0.42994 0.37703 1.012 0.56555 1.7462 0.56554 1.012 0.00001 1.8223-0.35718 2.4309-1.0716 0.61514-0.72099 0.92272-1.6768 0.92273-2.8674v-0.4068h-1.8157m3.6413-0.75406v6.3401h-1.8256v-1.6867c-0.41673 0.67469-0.93597 1.1741-1.5577 1.4982-0.62178 0.3175-1.3825 0.47625-2.282 0.47625-1.1377 0-2.0439-0.3175-2.7186-0.9525-0.66807-0.64161-1.0021-1.4982-1.0021-2.5698 0-1.2502 0.41672-2.1927 1.2502-2.8277 0.84005-0.63499 2.0902-0.95249 3.7505-0.9525h2.5598v-0.17859c-0.00001-0.84005-0.27782-1.4883-0.83344-1.9447-0.54901-0.46301-1.3229-0.69452-2.3217-0.69453-0.635 0.00001-1.2535 0.0761-1.8554 0.2282-0.60193 0.15215-1.1807 0.38035-1.7363 0.68461v-1.6867c0.66807-0.25795 1.3163-0.44978 1.9447-0.57546 0.62838-0.13229 1.2402-0.19843 1.8356-0.19844 1.6073 0.00001 2.8079 0.41673 3.6016 1.2502 0.79374 0.83345 1.1906 2.0968 1.1906 3.7902"/>
  <path id="path3092" style="" d="m411.34 129.79v3.1552h3.7604v1.4188h-3.7604v6.0325c-0.00001 0.9062 0.12236 1.4883 0.36711 1.7462 0.25135 0.25797 0.75736 0.38695 1.518 0.38695h1.8752v1.528h-1.8752c-1.4089 0-2.3812-0.26128-2.917-0.78383-0.53578-0.52917-0.80367-1.4883-0.80367-2.8773v-6.0325h-1.3394v-1.4188h1.3394v-3.1552h1.8356"/>
 </g>
 <g id="g40" stroke="#000" stroke-width="2" fill="none" transform="translate(-1 -2.9905)">
  <path id="line42" d="m450-20v35.528"/>
  <path id="polyline44" d="m445 7.7639 5 10 5-10"/>
 </g>
 <g id="g46" stroke="#000" stroke-width="2" fill="none" transform="translate(-1 -2.9905)">
  <path id="polyline48" d="m380 200h99.258v-135.53"/>
  <path id="polyline50" d="m484.26 72.236-5-10-5 10"/>
 </g>
 <g id="g52" transform="translate(-1 -2.9905)">
  <path id="ellipse54" fill="#fff" d="m330-40c0 11.046-8.9543 20-20 20s-20-8.9543-20-20 8.9543-20 20-20 20 8.9543 20 20z"/>
  <path id="ellipse56" d="m330-40c0 11.046-8.9543 20-20 20s-20-8.9543-20-20 8.9543-20 20-20 20 8.9543 20 20z" stroke="#000" stroke-width="2" fill="none"/>
 </g>
 <g id="g58" stroke="#000" stroke-width="2" fill="none" transform="translate(-1 -2.9905)">
  <path id="line60" d="m290-40h-45.528"/>
  <path id="polyline62" d="m252.24-45-10 5 10 5"/>
 </g>
 <g id="text64">
  <path id="path3103" style="" d="m296.17-45.168h12.72v1.6669h-12.72v-1.6669m0 4.0481h12.72v1.6867h-12.72v-1.6867"/>
  <path id="path3105" style="" d="m313.56-37.627h3.2742v-11.301l-3.562 0.71438v-1.8256l3.5421-0.71438h2.0042v13.127h3.2742v1.6867h-8.5328v-1.6867"/>
 </g>
 <g id="text68">
  <path id="path3108" style="" d="m260.99-2.6039h2.6988l6.5683 12.392v-12.392h1.9447v14.813h-2.6988l-6.5683-12.392v12.392h-1.9447v-14.813"/>
 </g>
 <g id="text72">
  <path id="path3111" style="" d="m405.95-0.62945-2.7186 7.372h5.4471l-2.7285-7.372m-1.1311-1.9745h2.2721l5.6455 14.813h-2.0836l-1.3494-3.8001h-6.6774l-1.3494 3.8001h-2.1134l5.6555-14.813"/>
 </g>
 <g id="g76" transform="translate(-1 -2.9905)">
  <path id="polygon78" fill="#fff" d="m240 120h-40l20 40h40l20-40z"/>
  <path id="polygon80" d="m240 120h-40l20 40h40l20-40z" stroke="#000" stroke-width="2" fill="none"/>
 </g>
 <path id="line82" d="m379 197.01v-40" stroke="#000" stroke-width="2" fill="none"/>
 <g id="text84">
  <path id="path3117" style="" d="m229.85 137.68h5.3479v1.6272h-5.3479v-1.6272"/>
  <path id="path3119" style="" d="m238.72 142.37h3.2742v-11.301l-3.562 0.71438v-1.8256l3.5421-0.71437h2.0042v13.127h3.2742v1.6867h-8.5328v-1.6867"/>
 </g>
 <g id="g88" transform="translate(-1 -2.9905)">
  <path id="polygon90" fill="#fff" d="m360-20 40-20-40-20z"/>
  <path id="polygon92" d="m360-20 40-20-40-20z" stroke="#000" stroke-width="2" fill="none"/>
 </g>
 <g id="text94">
  <path id="path3124" style="" d="m367.99-37.627h3.2742v-11.301l-3.562 0.71438v-1.8256l3.5421-0.71438h2.0042v13.127h3.2742v1.6867h-8.5328v-1.6867"/>
 </g>
 <g id="g98" transform="translate(-1 -2.9905)">
  <path id="ellipse100" fill="#fff" d="m500 140c0 11.046-8.9543 20-20 20s-20-8.9543-20-20 8.9543-20 20-20 20 8.9543 20 20z"/>
  <path id="ellipse102" d="m500 140c0 11.046-8.9543 20-20 20s-20-8.9543-20-20 8.9543-20 20-20 20 8.9543 20 20z" stroke="#000" stroke-width="2" fill="none"/>
 </g>
 <path id="line104" d="m399-42.991h30" stroke="#000" stroke-width="2" fill="none"/>
 <g id="g106" transform="translate(-1 -2.9905)">
  <path id="ellipse108" fill="#fff" d="m470-40c0 11.046-8.9543 20-20 20s-20-8.9543-20-20 8.9543-20 20-20 20 8.9543 20 20z"/>
  <path id="ellipse110" d="m470-40c0 11.046-8.9543 20-20 20s-20-8.9543-20-20 8.9543-20 20-20 20 8.9543 20 20z" stroke="#000" stroke-width="2" fill="none"/>
 </g>
 <g id="g112" stroke="#000" stroke-width="2" fill="none" transform="translate(-1 -2.9905)">
  <path id="polyline114" d="m290 60v30h-50v25.528"/>
  <path id="polyline116" d="m235 107.76 5 10 5-10"/>
 </g>
 <g id="g118" stroke="#000" stroke-width="2" fill="none" transform="translate(-1 -2.9905)">
  <path id="polyline120" d="m240 160v40h-100v-160h115.53"/>
  <path id="polyline122" d="m247.76 45 10-5-10-5"/>
 </g>
 <g id="g124" transform="translate(-1 -2.9905)">
  <path id="ellipse126" fill="#fff" d="m220 40c0 11.046-8.9543 20-20 20s-20-8.9543-20-20 8.9543-20 20-20 20 8.9543 20 20z"/>
  <path id="ellipse128" d="m220 40c0 11.046-8.9543 20-20 20s-20-8.9543-20-20 8.9543-20 20-20 20 8.9543 20 20z" stroke="#000" stroke-width="2" fill="none"/>
 </g>
 <g id="g130" stroke="#000" stroke-width="2" fill="none" transform="translate(-1 -2.9905)">
  <path id="polyline132" d="m310 20v-20-15.528"/>
  <path id="polyline134" d="m315-7.7639-5-10-5 10"/>
 </g>
 <g id="g136" transform="translate(-1 -2.9905)">
  <path id="ellipse138" fill="#fff" d="m240-40c0 11.046-8.9543 20-20 20s-20-8.9543-20-20 8.9543-20 20-20 20 8.9543 20 20z"/>
  <path id="ellipse140" d="m240-40c0 11.046-8.9543 20-20 20s-20-8.9543-20-20 8.9543-20 20-20 20 8.9543 20 20z" stroke="#000" stroke-width="2" fill="none"/>
 </g>
 <g id="g142" transform="translate(-1 -2.9905)">
  <g id="g144">
   <path id="ellipse146" fill="#fff" d="m134-70c0 2.2091-1.7909 4-4 4s-4-1.7909-4-4 1.7909-4 4-4 4 1.7909 4 4z"/>
   <path id="ellipse148" d="m134-70c0 2.2091-1.7909 4-4 4s-4-1.7909-4-4 1.7909-4 4-4 4 1.7909 4 4z" stroke="#000" stroke-width="2" fill="none"/>
  </g>
  <path id="line150" d="m127.17-72.828 5.656 5.6568" stroke="#000" stroke-width="2" fill="none"/>
 </g>
 <g id="g152" transform="translate(-1 -2.9905)">
  <path id="ellipse154" fill="#fff" d="m134 210c0 2.2091-1.7909 4-4 4s-4-1.7909-4-4 1.7909-4 4-4 4 1.7909 4 4z"/>
  <path id="ellipse156" d="m134 210c0 2.2091-1.7909 4-4 4s-4-1.7909-4-4 1.7909-4 4-4 4 1.7909 4 4z" stroke="#000" stroke-width="2" fill="none"/>
 </g>
 <path id="line158" d="m129 203.01v8" stroke="#000" stroke-width="2" fill="none"/>
 <g id="g160" transform="translate(-1 -2.9905)">
  <path id="ellipse162" fill="#fff" d="m514 210c0 2.2091-1.7909 4-4 4s-4-1.7909-4-4 1.7909-4 4-4 4 1.7909 4 4z"/>
  <path id="ellipse164" d="m514 210c0 2.2091-1.7909 4-4 4s-4-1.7909-4-4 1.7909-4 4-4 4 1.7909 4 4z" stroke="#000" stroke-width="2" fill="none"/>
 </g>
 <path id="line166" d="m506.17 209.84 5.656-5.656" stroke="#000" stroke-width="2" fill="none"/>
 <g id="g168" transform="translate(-1 -2.9905)">
  <path id="ellipse170" fill="#fff" d="m514-70c0 2.2091-1.7909 4-4 4s-4-1.7909-4-4 1.7909-4 4-4 4 1.7909 4 4z"/>
  <path id="ellipse172" d="m514-70c0 2.2091-1.7909 4-4 4s-4-1.7909-4-4 1.7909-4 4-4 4 1.7909 4 4z" stroke="#000" stroke-width="2" fill="none"/>
 </g>
 <path id="line174" d="m505-72.991h8" stroke="#000" stroke-width="2" fill="none"/>
</svg>
