<?xml version="1.0" encoding="UTF-8" standalone="no"?>
<!-- Created with Inkscape (http://www.inkscape.org/) -->
<svg id="svg2" xmlns:rdf="http://www.w3.org/1999/02/22-rdf-syntax-ns#" xmlns="http://www.w3.org/2000/svg" height="69.287" width="188" version="1.1" xmlns:cc="http://creativecommons.org/ns#" xmlns:dc="http://purl.org/dc/elements/1.1/">
 <metadata id="metadata7">
  <rdf:RDF>
   <cc:Work rdf:about="">
    <dc:format>image/svg+xml</dc:format>
    <dc:type rdf:resource="http://purl.org/dc/dcmitype/StillImage"/>
    <dc:title/>
   </cc:Work>
  </rdf:RDF>
 </metadata>
 <g id="layer1" transform="translate(0 -983.08)">
  <g id="Layer_1" transform="matrix(.23438 0 0 .23438 128 992.36)">
   <path id="path3711" opacity=".2" d="m44 15.5c-9.374 0-17 7.626-17 17v200c0 9.374 7.626 17 17 17h176c9.375 0 17-7.626 17-17v-200c0-9.374-7.625-17-17-17h-176z" enable-background="new    "/>
   <path id="path3712" opacity=".2" d="m42 13.5c-9.374 0-17 7.626-17 17v200c0 9.374 7.626 17 17 17h176c9.375 0 17-7.626 17-17v-200c0-9.374-7.625-17-17-17h-176z" enable-background="new    "/>
   <path id="path3713" opacity=".2" d="m40 12.5c-9.374 0-17 7.626-17 17v200c0 9.374 7.626 17 17 17h176c9.375 0 17-7.626 17-17v-200c0-9.374-7.625-17-17-17h-176z" enable-background="new    "/>
   <linearGradient id="XMLID_3_" y2="278.5" gradientUnits="userSpaceOnUse" y1="512.5" gradientTransform="matrix(1,0,0,-1,178.5,523.5)" x2="-49.5" x1="-49.5">
    <stop id="stop3715" stop-color="#494949" offset="0"/>
    <stop id="stop3716" offset="1"/>
   </linearGradient>
   <path id="path3720" fill="url(#XMLID_3_)" d="m41 11c-9.374 0-17 7.626-17 17v200c0 9.374 7.626 17 17 17h176c9.375 0 17-7.626 17-17v-200c0-9.374-7.625-17-17-17h-176z"/>
   <path id="path3721" fill="#fff" d="m28 228c0 6.627 5.373 12 12 12h176c6.627 0 12-5.373 12-12v-200c0-6.627-5.373-12-12-12h-176c-6.627 0-12 5.373-12 12v200z"/>
   <linearGradient id="XMLID_4_" y2="296.55" gradientUnits="userSpaceOnUse" y1="494.45" gradientTransform="matrix(1,0,0,-1,178.5,523.5)" x2="48.448" x1="-149.45">
    <stop id="stop3723" stop-color="#fff" offset="0"/>
    <stop id="stop3724" stop-color="#DADADA" offset="1"/>
   </linearGradient>
   <path id="path3728" fill="url(#XMLID_4_)" d="m40 21c-3.86 0-7 3.14-7 7v200c0 3.859 3.14 7 7 7h176c3.859 0 7-3.141 7-7v-200c0-3.86-3.141-7-7-7h-176z"/>
   <rect id="rect3729" height="256" width="256" y="0" x="0" fill="none"/>
   <g id="g3730" enable-background="new    ">
    <path id="path3731" d="m46.544 62.938v-1.75h4.625v-13.477l-4.625 1.043v-1.43l6.938-2.168v16.031h4.625v1.75h-11.563z"/>
    <path id="path3732" d="m73.268 63.375c-1.807 0-3.249-0.824-4.324-2.474s-1.613-3.864-1.613-6.647c0-2.774 0.538-4.984 1.613-6.63s2.517-2.468 4.324-2.468 3.248 0.822 4.324 2.468 1.614 3.855 1.614 6.63c0 2.783-0.538 4.998-1.614 6.647s-2.518 2.474-4.324 2.474zm0-1.75c2.313 0 3.469-2.457 3.469-7.371 0-4.898-1.156-7.348-3.469-7.348s-3.469 2.449-3.469 7.348c0 4.914 1.156 7.371 3.469 7.371z"/>
    <path id="path3733" d="m89.866 62.938v-1.75h4.625v-13.477l-4.625 1.043v-1.43l6.938-2.168v16.031h4.625v1.75h-11.564z"/>
    <path id="path3734" d="m116.59 63.375c-1.807 0-3.249-0.824-4.324-2.474s-1.613-3.864-1.613-6.647c0-2.774 0.538-4.984 1.613-6.63s2.517-2.468 4.324-2.468 3.248 0.822 4.324 2.468 1.614 3.855 1.614 6.63c0 2.783-0.538 4.998-1.614 6.647s-2.517 2.474-4.324 2.474zm0-1.75c2.313 0 3.469-2.457 3.469-7.371 0-4.898-1.156-7.348-3.469-7.348s-3.469 2.449-3.469 7.348c0.001 4.914 1.157 7.371 3.469 7.371z"/>
    <path id="path3735" d="m133.19 62.938v-1.75h4.625v-13.477l-4.625 1.043v-1.43l6.938-2.168v16.031h4.625v1.75h-11.563z"/>
    <path id="path3736" d="m159.91 63.375c-1.808 0-3.249-0.824-4.324-2.474s-1.613-3.864-1.613-6.647c0-2.774 0.538-4.984 1.613-6.63s2.517-2.468 4.324-2.468 3.248 0.822 4.323 2.468c1.076 1.646 1.614 3.855 1.614 6.63 0 2.783-0.538 4.998-1.614 6.647-1.075 1.65-2.516 2.474-4.323 2.474zm0-1.75c2.313 0 3.469-2.457 3.469-7.371 0-4.898-1.156-7.348-3.469-7.348s-3.469 2.449-3.469 7.348c0 4.914 1.157 7.371 3.469 7.371z"/>
    <path id="path3737" d="m181.57 63.375c-1.807 0-3.248-0.824-4.324-2.474s-1.613-3.864-1.613-6.647c0-2.774 0.537-4.984 1.613-6.63s2.518-2.468 4.324-2.468 3.248 0.822 4.324 2.468c1.075 1.646 1.613 3.855 1.613 6.63 0 2.783-0.538 4.998-1.613 6.647-1.076 1.65-2.517 2.474-4.324 2.474zm0-1.75c2.313 0 3.469-2.457 3.469-7.371 0-4.898-1.156-7.348-3.469-7.348s-3.469 2.449-3.469 7.348c0.001 4.914 1.157 7.371 3.469 7.371z"/>
    <path id="path3738" d="m203.23 63.375c-1.807 0-3.248-0.824-4.324-2.474-1.075-1.649-1.613-3.864-1.613-6.647 0-2.774 0.538-4.984 1.613-6.63 1.076-1.646 2.518-2.468 4.324-2.468s3.248 0.822 4.324 2.468 1.613 3.855 1.613 6.63c0 2.783-0.537 4.998-1.613 6.647s-2.517 2.474-4.324 2.474zm0-1.75c2.313 0 3.469-2.457 3.469-7.371 0-4.898-1.156-7.348-3.469-7.348s-3.469 2.449-3.469 7.348c0.001 4.914 1.157 7.371 3.469 7.371z"/>
   </g>
   <g id="g3739" enable-background="new    ">
    <path id="path3740" d="m46.544 98.938v-1.75h4.625v-13.477l-4.625 1.043v-1.43l6.938-2.168v16.031h4.625v1.75h-11.563z"/>
    <path id="path3741" d="m73.268 99.375c-1.807 0-3.249-0.824-4.324-2.474s-1.613-3.864-1.613-6.647c0-2.774 0.538-4.984 1.613-6.63s2.517-2.468 4.324-2.468 3.248 0.822 4.324 2.468 1.614 3.855 1.614 6.63c0 2.783-0.538 4.998-1.614 6.647s-2.518 2.474-4.324 2.474zm0-1.75c2.313 0 3.469-2.457 3.469-7.371 0-4.898-1.156-7.348-3.469-7.348s-3.469 2.449-3.469 7.348c0 4.914 1.156 7.371 3.469 7.371z"/>
    <path id="path3742" d="m89.866 98.938v-1.75h4.625v-13.477l-4.625 1.043v-1.43l6.938-2.168v16.031h4.625v1.75h-11.564z"/>
    <path id="path3743" d="m116.59 99.375c-1.807 0-3.249-0.824-4.324-2.474s-1.613-3.864-1.613-6.647c0-2.774 0.538-4.984 1.613-6.63s2.517-2.468 4.324-2.468 3.248 0.822 4.324 2.468 1.614 3.855 1.614 6.63c0 2.783-0.538 4.998-1.614 6.647s-2.517 2.474-4.324 2.474zm0-1.75c2.313 0 3.469-2.457 3.469-7.371 0-4.898-1.156-7.348-3.469-7.348s-3.469 2.449-3.469 7.348c0.001 4.914 1.157 7.371 3.469 7.371z"/>
    <path id="path3744" d="m138.25 99.375c-1.807 0-3.248-0.824-4.324-2.474s-1.613-3.864-1.613-6.647c0-2.774 0.537-4.984 1.613-6.63s2.518-2.468 4.324-2.468 3.248 0.822 4.324 2.468c1.075 1.646 1.613 3.855 1.613 6.63 0 2.783-0.538 4.998-1.613 6.647-1.076 1.65-2.517 2.474-4.324 2.474zm0-1.75c2.313 0 3.469-2.457 3.469-7.371 0-4.898-1.156-7.348-3.469-7.348s-3.469 2.449-3.469 7.348c0 4.914 1.157 7.371 3.469 7.371z"/>
    <path id="path3745" d="m159.91 99.375c-1.808 0-3.249-0.824-4.324-2.474s-1.613-3.864-1.613-6.647c0-2.774 0.538-4.984 1.613-6.63s2.517-2.468 4.324-2.468 3.248 0.822 4.323 2.468c1.076 1.646 1.614 3.855 1.614 6.63 0 2.783-0.538 4.998-1.614 6.647-1.075 1.65-2.516 2.474-4.323 2.474zm0-1.75c2.313 0 3.469-2.457 3.469-7.371 0-4.898-1.156-7.348-3.469-7.348s-3.469 2.449-3.469 7.348c0 4.914 1.157 7.371 3.469 7.371z"/>
    <path id="path3746" d="m181.57 99.375c-1.807 0-3.248-0.824-4.324-2.474s-1.613-3.864-1.613-6.647c0-2.774 0.537-4.984 1.613-6.63s2.518-2.468 4.324-2.468 3.248 0.822 4.324 2.468c1.075 1.646 1.613 3.855 1.613 6.63 0 2.783-0.538 4.998-1.613 6.647-1.076 1.65-2.517 2.474-4.324 2.474zm0-1.75c2.313 0 3.469-2.457 3.469-7.371 0-4.898-1.156-7.348-3.469-7.348s-3.469 2.449-3.469 7.348c0.001 4.914 1.157 7.371 3.469 7.371z"/>
    <path id="path3747" d="m198.17 98.938v-1.75h4.625v-13.477l-4.625 1.043v-1.43l6.938-2.168v16.031h4.625v1.75h-11.57z"/>
   </g>
   <g id="g3748" enable-background="new    ">
    <path id="path3749" d="m51.606 135.38c-1.807 0-3.249-0.824-4.324-2.474s-1.613-3.864-1.613-6.647c0-2.774 0.538-4.984 1.613-6.63s2.517-2.468 4.324-2.468 3.248 0.822 4.324 2.468 1.614 3.855 1.614 6.63c0 2.783-0.538 4.998-1.614 6.647s-2.517 2.474-4.324 2.474zm0-1.75c2.313 0 3.469-2.457 3.469-7.371 0-4.898-1.156-7.348-3.469-7.348s-3.469 2.449-3.469 7.348c0.001 4.914 1.157 7.371 3.469 7.371z"/>
    <path id="path3750" d="m68.205 134.94v-1.75h4.625v-13.477l-4.625 1.043v-1.43l6.938-2.168v16.031h4.625v1.75h-11.563z"/>
    <path id="path3751" d="m94.928 135.38c-1.807 0-3.249-0.824-4.324-2.474s-1.613-3.864-1.613-6.647c0-2.774 0.538-4.984 1.613-6.63s2.517-2.468 4.324-2.468 3.248 0.822 4.324 2.468 1.614 3.855 1.614 6.63c0 2.783-0.538 4.998-1.614 6.647s-2.517 2.474-4.324 2.474zm0-1.75c2.313 0 3.469-2.457 3.469-7.371 0-4.898-1.156-7.348-3.469-7.348s-3.469 2.449-3.469 7.348c0 4.914 1.157 7.371 3.469 7.371z"/>
    <path id="path3752" d="m111.53 134.94v-1.75h4.625v-13.477l-4.625 1.043v-1.43l6.938-2.168v16.031h4.625v1.75h-11.563z"/>
    <path id="path3753" d="m133.19 134.94v-1.75h4.625v-13.477l-4.625 1.043v-1.43l6.938-2.168v16.031h4.625v1.75h-11.563z"/>
    <path id="path3754" d="m159.91 135.38c-1.808 0-3.249-0.824-4.324-2.474s-1.613-3.864-1.613-6.647c0-2.774 0.538-4.984 1.613-6.63s2.517-2.468 4.324-2.468 3.248 0.822 4.323 2.468c1.076 1.646 1.614 3.855 1.614 6.63 0 2.783-0.538 4.998-1.614 6.647-1.075 1.65-2.516 2.474-4.323 2.474zm0-1.75c2.313 0 3.469-2.457 3.469-7.371 0-4.898-1.156-7.348-3.469-7.348s-3.469 2.449-3.469 7.348c0 4.914 1.157 7.371 3.469 7.371z"/>
    <path id="path3755" d="m176.51 134.94v-1.75h4.625v-13.477l-4.625 1.043v-1.43l6.938-2.168v16.031h4.625v1.75h-11.57z"/>
    <path id="path3756" d="m203.23 135.38c-1.807 0-3.248-0.824-4.324-2.474-1.075-1.649-1.613-3.864-1.613-6.647 0-2.774 0.538-4.984 1.613-6.63 1.076-1.646 2.518-2.468 4.324-2.468s3.248 0.822 4.324 2.468 1.613 3.855 1.613 6.63c0 2.783-0.537 4.998-1.613 6.647s-2.517 2.474-4.324 2.474zm0-1.75c2.313 0 3.469-2.457 3.469-7.371 0-4.898-1.156-7.348-3.469-7.348s-3.469 2.449-3.469 7.348c0.001 4.914 1.157 7.371 3.469 7.371z"/>
   </g>
   <g id="g3757" enable-background="new    ">
    <path id="path3758" d="m51.606 171.38c-1.807 0-3.249-0.824-4.324-2.474s-1.613-3.864-1.613-6.647c0-2.774 0.538-4.984 1.613-6.63s2.517-2.468 4.324-2.468 3.248 0.822 4.324 2.468 1.614 3.855 1.614 6.63c0 2.783-0.538 4.998-1.614 6.647s-2.517 2.474-4.324 2.474zm0-1.75c2.313 0 3.469-2.457 3.469-7.371 0-4.898-1.156-7.348-3.469-7.348s-3.469 2.449-3.469 7.348c0.001 4.914 1.157 7.371 3.469 7.371z"/>
    <path id="path3759" d="m73.268 171.38c-1.807 0-3.249-0.824-4.324-2.474s-1.613-3.864-1.613-6.647c0-2.774 0.538-4.984 1.613-6.63s2.517-2.468 4.324-2.468 3.248 0.822 4.324 2.468 1.614 3.855 1.614 6.63c0 2.783-0.538 4.998-1.614 6.647s-2.518 2.474-4.324 2.474zm0-1.75c2.313 0 3.469-2.457 3.469-7.371 0-4.898-1.156-7.348-3.469-7.348s-3.469 2.449-3.469 7.348c0 4.914 1.156 7.371 3.469 7.371z"/>
    <path id="path3760" d="m89.866 170.94v-1.75h4.625v-13.477l-4.625 1.043v-1.43l6.938-2.168v16.031h4.625v1.75h-11.564z"/>
    <path id="path3761" d="m116.59 171.38c-1.807 0-3.249-0.824-4.324-2.474s-1.613-3.864-1.613-6.647c0-2.774 0.538-4.984 1.613-6.63s2.517-2.468 4.324-2.468 3.248 0.822 4.324 2.468 1.614 3.855 1.614 6.63c0 2.783-0.538 4.998-1.614 6.647s-2.517 2.474-4.324 2.474zm0-1.75c2.313 0 3.469-2.457 3.469-7.371 0-4.898-1.156-7.348-3.469-7.348s-3.469 2.449-3.469 7.348c0.001 4.914 1.157 7.371 3.469 7.371z"/>
    <path id="path3762" d="m133.19 170.94v-1.75h4.625v-13.477l-4.625 1.043v-1.43l6.938-2.168v16.031h4.625v1.75h-11.563z"/>
    <path id="path3763" d="m159.91 171.38c-1.808 0-3.249-0.824-4.324-2.474s-1.613-3.864-1.613-6.647c0-2.774 0.538-4.984 1.613-6.63s2.517-2.468 4.324-2.468 3.248 0.822 4.323 2.468c1.076 1.646 1.614 3.855 1.614 6.63 0 2.783-0.538 4.998-1.614 6.647-1.075 1.65-2.516 2.474-4.323 2.474zm0-1.75c2.313 0 3.469-2.457 3.469-7.371 0-4.898-1.156-7.348-3.469-7.348s-3.469 2.449-3.469 7.348c0 4.914 1.157 7.371 3.469 7.371z"/>
    <path id="path3764" d="m181.57 171.38c-1.807 0-3.248-0.824-4.324-2.474s-1.613-3.864-1.613-6.647c0-2.774 0.537-4.984 1.613-6.63s2.518-2.468 4.324-2.468 3.248 0.822 4.324 2.468c1.075 1.646 1.613 3.855 1.613 6.63 0 2.783-0.538 4.998-1.613 6.647-1.076 1.65-2.517 2.474-4.324 2.474zm0-1.75c2.313 0 3.469-2.457 3.469-7.371 0-4.898-1.156-7.348-3.469-7.348s-3.469 2.449-3.469 7.348c0.001 4.914 1.157 7.371 3.469 7.371z"/>
    <path id="path3765" d="m198.17 170.94v-1.75h4.625v-13.477l-4.625 1.043v-1.43l6.938-2.168v16.031h4.625v1.75h-11.57z"/>
   </g>
   <g id="g3766" enable-background="new    ">
    <path id="path3767" d="m51.606 207.38c-1.807 0-3.249-0.824-4.324-2.474s-1.613-3.864-1.613-6.647c0-2.774 0.538-4.984 1.613-6.63s2.517-2.468 4.324-2.468 3.248 0.822 4.324 2.468 1.614 3.855 1.614 6.63c0 2.783-0.538 4.998-1.614 6.647s-2.517 2.474-4.324 2.474zm0-1.75c2.313 0 3.469-2.457 3.469-7.371 0-4.898-1.156-7.348-3.469-7.348s-3.469 2.449-3.469 7.348c0.001 4.914 1.157 7.371 3.469 7.371z"/>
    <path id="path3768" d="m68.205 206.94v-1.75h4.625v-13.477l-4.625 1.043v-1.43l6.938-2.168v16.031h4.625v1.75h-11.563z"/>
    <path id="path3769" d="m94.928 207.38c-1.807 0-3.249-0.824-4.324-2.474s-1.613-3.864-1.613-6.647c0-2.774 0.538-4.984 1.613-6.63s2.517-2.468 4.324-2.468 3.248 0.822 4.324 2.468 1.614 3.855 1.614 6.63c0 2.783-0.538 4.998-1.614 6.647s-2.517 2.474-4.324 2.474zm0-1.75c2.313 0 3.469-2.457 3.469-7.371 0-4.898-1.156-7.348-3.469-7.348s-3.469 2.449-3.469 7.348c0 4.914 1.157 7.371 3.469 7.371z"/>
    <path id="path3770" d="m116.59 207.38c-1.807 0-3.249-0.824-4.324-2.474s-1.613-3.864-1.613-6.647c0-2.774 0.538-4.984 1.613-6.63s2.517-2.468 4.324-2.468 3.248 0.822 4.324 2.468 1.614 3.855 1.614 6.63c0 2.783-0.538 4.998-1.614 6.647s-2.517 2.474-4.324 2.474zm0-1.75c2.313 0 3.469-2.457 3.469-7.371 0-4.898-1.156-7.348-3.469-7.348s-3.469 2.449-3.469 7.348c0.001 4.914 1.157 7.371 3.469 7.371z"/>
    <path id="path3771" d="m138.25 207.38c-1.807 0-3.248-0.824-4.324-2.474s-1.613-3.864-1.613-6.647c0-2.774 0.537-4.984 1.613-6.63s2.518-2.468 4.324-2.468 3.248 0.822 4.324 2.468c1.075 1.646 1.613 3.855 1.613 6.63 0 2.783-0.538 4.998-1.613 6.647-1.076 1.65-2.517 2.474-4.324 2.474zm0-1.75c2.313 0 3.469-2.457 3.469-7.371 0-4.898-1.156-7.348-3.469-7.348s-3.469 2.449-3.469 7.348c0 4.914 1.157 7.371 3.469 7.371z"/>
    <path id="path3772" d="m154.85 206.94v-1.75h4.625v-13.477l-4.625 1.043v-1.43l6.938-2.168v16.031h4.625v1.75h-11.563z"/>
    <path id="path3773" d="m176.51 206.94v-1.75h4.625v-13.477l-4.625 1.043v-1.43l6.938-2.168v16.031h4.625v1.75h-11.57z"/>
    <path id="path3774" d="m198.17 206.94v-1.75h4.625v-13.477l-4.625 1.043v-1.43l6.938-2.168v16.031h4.625v1.75h-11.57z"/>
   </g>
   <rect id="_x3C_Slice_x3E_" height="256" width="256" y="0" x="0" fill="none"/>
  </g>
  <g id="g4093" transform="matrix(.23438 0 0 .23438 0 992.36)">
   <path id="path4094" opacity=".2" d="m44 15.5c-9.374 0-17 7.626-17 17v200c0 9.374 7.626 17 17 17h176c9.375 0 17-7.626 17-17v-200c0-9.374-7.625-17-17-17h-176z"/>
   <path id="path4095" opacity=".2" d="m42 13.5c-9.374 0-17 7.626-17 17v200c0 9.374 7.626 17 17 17h176c9.375 0 17-7.626 17-17v-200c0-9.374-7.625-17-17-17h-176z"/>
   <path id="path4096" opacity=".2" d="m40 12.5c-9.374 0-17 7.626-17 17v200c0 9.374 7.626 17 17 17h176c9.375 0 17-7.626 17-17v-200c0-9.374-7.625-17-17-17h-176z"/>
   <linearGradient id="XMLID_3_-2" y2="245" gradientUnits="userSpaceOnUse" x2="129" y1="11" x1="129">
    <stop id="stop4098" stop-color="#494949" offset="0"/>
    <stop id="stop4099" offset="1"/>
   </linearGradient>
   <path id="path4103" fill="url(#XMLID_3_-2)" d="m41 11c-9.374 0-17 7.626-17 17v200c0 9.374 7.626 17 17 17h176c9.375 0 17-7.626 17-17v-200c0-9.374-7.625-17-17-17h-176z"/>
   <path id="path4104" fill="#fff" d="m28 228c0 6.627 5.373 12 12 12h176c6.627 0 12-5.373 12-12v-200c0-6.627-5.373-12-12-12h-176c-6.627 0-12 5.373-12 12v200z"/>
   <linearGradient id="XMLID_4_-1" y2="226.95" gradientUnits="userSpaceOnUse" x2="226.95" y1="29.053" x1="29.053">
    <stop id="stop4106" stop-color="#fff" offset="0"/>
    <stop id="stop4107" stop-color="#DADADA" offset="1"/>
   </linearGradient>
   <path id="path4111" fill="url(#XMLID_4_-1)" d="m40 21c-3.86 0-7 3.14-7 7v200c0 3.859 3.14 7 7 7h176c3.859 0 7-3.141 7-7v-200c0-3.86-3.141-7-7-7h-176z"/>
   <rect id="rect4112" height="256" width="256" y="0" x="0" fill="none"/>
  </g>
  <g id="g4253" fill="#585868" transform="matrix(.23438 0 0 .23438 0 992.36)">
   <path id="path4254" d="m143.79 226.16v-10.25h10.25v10.25h-10.25z"/>
   <path id="path4255" d="m199.29 206.28 10.5 3.25c-1.621 5.92-4.314 10.316-8.08 13.189-3.766 2.875-8.545 4.311-14.334 4.311-7.166 0-13.055-2.439-17.668-7.32-4.613-4.879-6.918-11.551-6.918-20.016 0-8.953 2.318-15.906 6.959-20.859 4.639-4.953 10.738-7.43 18.301-7.43 6.604 0 11.967 1.932 16.092 5.791 2.453 2.283 4.295 5.561 5.523 9.834l-10.75 2.625c-0.641-2.779-1.973-4.975-4-6.584s-4.488-2.416-7.387-2.416c-4.006 0-7.256 1.434-9.748 4.301-2.494 2.867-3.74 7.512-3.74 13.932 0 6.813 1.229 11.666 3.686 14.557s5.652 4.336 9.584 4.336c2.898 0 5.393-0.924 7.482-2.773 2.09-1.849 3.588-4.759 4.498-8.728z"/>
  </g>
  <rect id="_x3C_Slice_x3E_-7" height="60" width="60" y="992.36" x="0" fill="none"/>
  <text id="text3601" style="word-spacing:0px;letter-spacing:0px" xml:space="preserve" font-size="40px" y="1023.5728" x="22.98097" font-family="Sans" line-height="125%" fill="#000000"><tspan id="tspan3603" x="22.98097" y="1023.5728"/><tspan id="tspan3605" x="22.98097" y="1073.5728"/></text>
  <path id="path3748" d="m64 1020.4h64l-8-4" stroke="#000" stroke-linecap="round" stroke-width="2" fill="none"/>
  <path id="path3757" d="m128 1020.4-8 4" stroke="#000" stroke-linecap="round" stroke-width="2" fill="none"/>
  <text id="text4697" style="word-spacing:0px;letter-spacing:0px;text-anchor:middle;text-align:center" xml:space="preserve" transform="scale(1)" line-height="125%" font-size="12px" y="1008.7108" x="94.57016" font-family="Droid Sans" fill="#000000"><tspan id="tspan4699" x="94.57016" y="1008.7108">fordítás</tspan></text>
  <g id="text4859">
   <path id="path5065" style="" d="m10.511 1000.3-0.13203 0.5268h0.31104l0.1333-0.5268h0.20312l-0.1333 0.5268h0.30976v0.1955h-0.35674l-0.10664 0.4241h0.31738v0.1942h-0.36689l-0.13203 0.5256h-0.20312l0.1333-0.5256h-0.3123l-0.1333 0.5256h-0.20186l0.13203-0.5256h-0.32754v-0.1942h0.37705l0.10664-0.4241h-0.3377v-0.1955h0.38467l0.13203-0.5268h0.20312m0.13203 0.7223h-0.31104l-0.10664 0.4241h0.3123l0.10537-0.4241"/>
   <path id="path5067" style="" d="m11.532 1000.8h0.59795v1.2404h0.46338v0.1815h-1.1604v-0.1815h0.46338v-1.0588h-0.36436v-0.1816m0.36436-0.5535h0.23359v0.2958h-0.23359v-0.2958"/>
   <path id="path5069" style="" d="m14.105 1001.3v0.8811h-0.23486v-0.8811c-0.000002-0.1278-0.02243-0.2217-0.06729-0.2818-0.04486-0.06-0.1151-0.09-0.21074-0.09-0.10918 0-0.19339 0.039-0.25264 0.1168-0.0584 0.077-0.0876 0.1879-0.0876 0.3326v0.8036h-0.23359v-1.4219h0.23359v0.2133c0.04147-0.081 0.09775-0.1426 0.16885-0.1841 0.07109-0.042 0.15531-0.063 0.25264-0.063 0.14473 0 0.25264 0.048 0.32373 0.1435 0.07194 0.095 0.10791 0.2387 0.10791 0.4316"/>
   <path id="path5071" style="" d="m15.682 1002.1c-0.06263 0.036-0.12738 0.063-0.19424 0.081-0.06602 0.019-0.13372 0.028-0.20312 0.028-0.22005 0-0.39228-0.066-0.5167-0.198-0.12357-0.1321-0.18535-0.3149-0.18535-0.5485s0.06178-0.4164 0.18535-0.5484c0.12441-0.132 0.29665-0.1981 0.5167-0.1981 0.06855 0 0.13542 0.01 0.20059 0.027 0.06517 0.018 0.13076 0.045 0.19678 0.082v0.245c-0.06179-0.055-0.12399-0.095-0.18662-0.1193-0.06178-0.024-0.13203-0.037-0.21074-0.037-0.14642 0-0.25898 0.047-0.3377 0.1422-0.07871 0.095-0.11807 0.2302-0.11807 0.4062 0 0.1752 0.03936 0.3106 0.11807 0.4063 0.07956 0.095 0.19212 0.1422 0.3377 0.1422 0.08125 0 0.15404-0.012 0.21836-0.037s0.12399-0.064 0.179-0.1167v0.2424"/>
   <path id="path5073" style="" d="m16.71 1001.7c-0.000001 0.1049 0.01904 0.184 0.05713 0.2374 0.03893 0.053 0.09606 0.08 0.17139 0.08h0.27295v0.1981h-0.2958c-0.13965 0-0.24798-0.045-0.325-0.1346-0.07617-0.09-0.11426-0.2166-0.11426-0.3808v-1.2911h-0.37451v-0.1829h0.60811v1.474"/>
   <path id="path5075" style="" d="m17.711 1001.6v-0.881h0.23359v0.881c0 0.1278 0.02243 0.2218 0.06729 0.2818 0.0457 0.06 0.11595 0.09 0.21074 0.09 0.11002 0 0.19424-0.038 0.25264-0.1155 0.0584-0.078 0.0876-0.1892 0.0876-0.3339v-0.8036h0.23486v1.4193h-0.23486v-0.2133c-0.04147 0.082-0.09818 0.1443-0.17012 0.1866-0.07109 0.042-0.15446 0.064-0.2501 0.064-0.14557 0-0.25391-0.047-0.325-0.1422-0.07109-0.096-0.10664-0.2399-0.10664-0.4329"/>
   <path id="path5077" style="" d="m20.116 1000.9v-0.7351h0.23359v1.9754h-0.23359v-0.179c-0.03893 0.07-0.09098 0.124-0.15615 0.1612-0.06432 0.036-0.1388 0.055-0.22344 0.055-0.17181 0-0.30723-0.066-0.40625-0.1993-0.09818-0.1337-0.14727-0.3178-0.14726-0.5523-0.000001-0.231 0.04951-0.4121 0.14854-0.5433 0.09902-0.132 0.23402-0.1981 0.40498-0.1981 0.08548 0 0.16081 0.019 0.22598 0.056 0.06517 0.036 0.11637 0.09 0.15361 0.16m-0.68682 0.5306c-0.000001 0.1811 0.02878 0.3178 0.08633 0.4101 0.05755 0.092 0.14261 0.1384 0.25518 0.1384 0.11256 0 0.19805-0.047 0.25645-0.1397 0.05924-0.093 0.08887-0.2293 0.08887-0.4088-0.000001-0.1802-0.02962-0.3165-0.08887-0.4088-0.0584-0.093-0.14388-0.1396-0.25645-0.1396-0.11256 0-0.19762 0.046-0.25518 0.1384-0.05755 0.092-0.08633 0.2289-0.08633 0.41"/>
   <path id="path5079" style="" d="m22.003 1001.4v0.1142h-1.0118v0.01c-0.000001 0.1549 0.0402 0.2747 0.1206 0.3593 0.08125 0.085 0.19551 0.127 0.34277 0.127 0.07448 0 0.15234-0.012 0.23359-0.036s0.168-0.06 0.26025-0.1079v0.2323c-0.08887 0.036-0.17477 0.063-0.25772 0.081-0.0821 0.019-0.16165 0.028-0.23867 0.028-0.2209 0-0.39356-0.066-0.51797-0.198-0.12442-0.1329-0.18662-0.3157-0.18662-0.5485-0.000001-0.2268 0.06094-0.4079 0.18281-0.5433 0.12188-0.1354 0.28437-0.2032 0.4875-0.2032 0.18112 0 0.32373 0.061 0.42783 0.1841 0.10495 0.1227 0.15742 0.2903 0.15742 0.5028m-0.23359-0.069c-0.0034-0.1371-0.03597-0.2412-0.09775-0.3123-0.06094-0.072-0.14896-0.1079-0.26406-0.1079-0.11257 0-0.20524 0.037-0.27803 0.1117-0.07279 0.075-0.11595 0.1777-0.12949 0.3098h0.76934"/>
   <path id="path5081" style="" d="m25.173 1001-1.0791 0.4062 1.0791 0.4025v0.2323l-1.3419-0.5307v-0.2107l1.3419-0.5307v0.2311"/>
   <path id="path5083" style="" d="m26.519 1000.8v0.2285c-0.06686-0.039-0.13415-0.068-0.20186-0.088-0.06771-0.019-0.13669-0.029-0.20693-0.029-0.1058 0.0001-0.18493 0.017-0.2374 0.052-0.05163 0.034-0.07744 0.086-0.07744 0.1562-0.000001 0.063 0.01947 0.1108 0.0584 0.1421 0.03893 0.031 0.13584 0.062 0.29072 0.091l0.09395 0.018c0.11595 0.022 0.20355 0.066 0.26279 0.1321 0.06009 0.066 0.09014 0.1519 0.09014 0.2577-0.000002 0.1405-0.04994 0.2505-0.1498 0.33-0.09987 0.079-0.23867 0.1181-0.41641 0.1181-0.07025 0-0.14388-0.01-0.2209-0.023-0.07702-0.014-0.16038-0.036-0.2501-0.066v-0.2412c0.08717 0.045 0.17054 0.079 0.2501 0.1016 0.07956 0.022 0.15488 0.033 0.22598 0.033 0.10325 0 0.18324-0.021 0.23994-0.062 0.0567-0.042 0.08506-0.1011 0.08506-0.1765-0.000001-0.1083-0.10368-0.1832-0.31104-0.2247h-0.01016l-0.0876-0.018c-0.13457-0.026-0.23275-0.07-0.29453-0.132-0.06179-0.063-0.09268-0.1477-0.09268-0.2552 0-0.1363 0.04613-0.2412 0.13838-0.3148 0.09225-0.075 0.22386-0.1118 0.39482-0.1118 0.07617 0 0.14938 0.01 0.21963 0.022 0.07025 0.014 0.13922 0.034 0.20693 0.062"/>
   <path id="path5085" style="" d="m27.627 1000.4v0.4037h0.53066v0.1816h-0.53066v0.7718c-0.000001 0.105 0.01989 0.1782 0.05967 0.2197 0.03978 0.041 0.10918 0.062 0.2082 0.062h0.26279v0.1866h-0.28564c-0.1752 0-0.29876-0.035-0.3707-0.1054-0.07194-0.07-0.10791-0.1913-0.10791-0.3631v-0.7718h-0.37959v-0.1816h0.37959v-0.4037h0.23359"/>
   <path id="path5087" style="" d="m29.501 1000.9v-0.7351h0.23359v1.9754h-0.23359v-0.179c-0.03893 0.07-0.09098 0.124-0.15615 0.1612-0.06432 0.036-0.1388 0.055-0.22344 0.055-0.17181 0-0.30723-0.066-0.40625-0.1993-0.09818-0.1337-0.14727-0.3178-0.14727-0.5523 0-0.231 0.04951-0.4121 0.14854-0.5433 0.09902-0.132 0.23402-0.1981 0.40498-0.1981 0.08548 0 0.16081 0.019 0.22598 0.056 0.06517 0.036 0.11637 0.09 0.15361 0.16m-0.68682 0.5306c0 0.1811 0.02878 0.3178 0.08633 0.4101 0.05755 0.092 0.14261 0.1384 0.25518 0.1384 0.11256 0 0.19805-0.047 0.25644-0.1397 0.05924-0.093 0.08887-0.2293 0.08887-0.4088-0.000002-0.1802-0.02962-0.3165-0.08887-0.4088-0.0584-0.093-0.14388-0.1396-0.25644-0.1396-0.11257 0-0.19762 0.046-0.25518 0.1384-0.05755 0.092-0.08633 0.2289-0.08633 0.41"/>
   <path id="path5089" style="" d="m30.301 1000.8h0.59795v1.2404h0.46338v0.1815h-1.1604v-0.1815h0.46338v-1.0588h-0.36436v-0.1816m0.36436-0.5535h0.23359v0.2958h-0.23359v-0.2958"/>
   <path id="path5091" style="" d="m32.322 1000.9c-0.11849 0-0.2082 0.046-0.26914 0.1384-0.06094 0.092-0.09141 0.2289-0.09141 0.41 0 0.1803 0.03047 0.317 0.09141 0.4101 0.06094 0.092 0.15065 0.1384 0.26914 0.1384 0.11934 0 0.20947-0.046 0.27041-0.1384 0.06094-0.093 0.09141-0.2298 0.09141-0.4101-0.000002-0.1811-0.03047-0.3178-0.09141-0.41-0.06094-0.092-0.15108-0.1384-0.27041-0.1384m0-0.1981c0.1972 0 0.34785 0.064 0.45195 0.1917 0.10495 0.1278 0.15742 0.3128 0.15742 0.5548-0.000001 0.2429-0.05205 0.4283-0.15615 0.5561-0.1041 0.1269-0.25518 0.1904-0.45322 0.1904-0.1972 0-0.34785-0.064-0.45195-0.1904-0.1041-0.1278-0.15615-0.3132-0.15615-0.5561 0-0.242 0.05205-0.427 0.15615-0.5548s0.25475-0.1917 0.45195-0.1917"/>
   <path id="path5093" style="" d="m33.725 1001.8h0.31992v0.3872h-0.31992v-0.3872"/>
   <path id="path5095" style="" d="m36.002 1001.3v0.8811h-0.23486v-0.8811c-0.000001-0.1278-0.02243-0.2217-0.06728-0.2818-0.04486-0.06-0.1151-0.09-0.21074-0.09-0.10918 0-0.19339 0.039-0.25264 0.1168-0.0584 0.077-0.0876 0.1879-0.0876 0.3326v0.8036h-0.23359v-1.9754h0.23359v0.7668c0.04147-0.081 0.09775-0.1426 0.16885-0.1841 0.07109-0.042 0.1553-0.063 0.25264-0.063 0.14472 0 0.25264 0.048 0.32373 0.1435 0.07194 0.095 0.10791 0.2387 0.10791 0.4316"/>
   <path id="path5097" style="" d="m36.344 1001v-0.2311l1.3419 0.5307v0.2107l-1.3419 0.5307v-0.2323l1.0791-0.4025-1.0791-0.4062"/>
   <path id="path5099" style="" d="m9.9679 1007.3h0.59795v1.2404h0.46338v0.1815h-1.1604v-0.1815h0.46338v-1.0588h-0.36436v-0.1816m0.36436-0.5535h0.23359v0.2958h-0.23359v-0.2958"/>
   <path id="path5101" style="" d="m12.541 1007.8v0.8811h-0.23486v-0.8811c-0.000001-0.1278-0.02243-0.2217-0.06729-0.2818-0.04486-0.06-0.1151-0.09-0.21074-0.09-0.10918 0-0.19339 0.039-0.25264 0.1168-0.0584 0.077-0.0876 0.1879-0.0876 0.3326v0.8036h-0.23359v-1.4219h0.23359v0.2133c0.04147-0.081 0.09775-0.1426 0.16885-0.1841 0.07109-0.042 0.1553-0.063 0.25264-0.063 0.14472 0 0.25264 0.048 0.32373 0.1435 0.07194 0.095 0.10791 0.2387 0.10791 0.4316"/>
   <path id="path5103" style="" d="m13.55 1006.9v0.4037h0.53066v0.1816h-0.53066v0.7718c-0.000001 0.105 0.01989 0.1782 0.05967 0.2197 0.03978 0.041 0.10918 0.062 0.2082 0.062h0.26279v0.1866h-0.28564c-0.1752 0-0.29876-0.035-0.3707-0.1054-0.07194-0.07-0.10791-0.1913-0.10791-0.3631v-0.7718h-0.37959v-0.1816h0.37959v-0.4037h0.23359"/>
   <path id="path5105" style="" d="m16.757 1007.4c0.02877-0.061 0.06517-0.1057 0.10918-0.1345 0.04486-0.03 0.0986-0.044 0.16123-0.044 0.11426 0 0.19466 0.044 0.24121 0.1333 0.04739 0.088 0.07109 0.2544 0.07109 0.499v0.8239h-0.21328v-0.8138c-0.000001-0.2006-0.01143-0.325-0.03428-0.3732-0.02201-0.049-0.06263-0.074-0.12188-0.074-0.06771 0.0001-0.11426 0.026-0.13965 0.079-0.02454 0.052-0.03682 0.1743-0.03682 0.3681v0.8138h-0.21328v-0.8138c-0.000001-0.2031-0.01227-0.3284-0.03682-0.3758-0.0237-0.047-0.06686-0.071-0.12949-0.071-0.06178 0.0001-0.10495 0.026-0.12949 0.079-0.0237 0.052-0.03555 0.1743-0.03555 0.3681v0.8138h-0.21201v-1.4219h0.21201v0.1219c0.02793-0.051 0.06263-0.089 0.1041-0.1155 0.04232-0.027 0.09014-0.041 0.14346-0.041 0.06432 0 0.11764 0.015 0.15996 0.044 0.04316 0.03 0.07659 0.075 0.10029 0.1345"/>
   <path id="path5107" style="" d="m18.354 1008h-0.07744c-0.13626 0-0.2391 0.024-0.3085 0.072-0.06855 0.047-0.10283 0.1185-0.10283 0.2133 0 0.086 0.02581 0.1519 0.07744 0.1993 0.05163 0.047 0.12314 0.071 0.21455 0.071 0.12864 0 0.22978-0.044 0.30342-0.1333 0.07363-0.09 0.11087-0.2133 0.11172-0.3707v-0.052h-0.21836m0.45322-0.096v0.8112h-0.23486v-0.2107c-0.04994 0.085-0.11299 0.1472-0.18916 0.1878-0.07533 0.04-0.16716 0.06-0.27549 0.06-0.14473 0-0.26025-0.041-0.34658-0.1219-0.08633-0.082-0.12949-0.1917-0.12949-0.3288 0-0.1582 0.0529-0.2784 0.15869-0.3605 0.10664-0.082 0.26279-0.1232 0.46846-0.1232h0.31357v-0.037c-0.000847-0.1134-0.02962-0.1955-0.08633-0.2463-0.05671-0.052-0.14727-0.077-0.27168-0.077-0.07956 0-0.15996 0.011-0.24121 0.034s-0.16038 0.056-0.2374 0.1003v-0.2336c0.08633-0.033 0.16885-0.058 0.24756-0.074 0.07956-0.017 0.15658-0.025 0.23106-0.025 0.11764 0 0.21794 0.017 0.30088 0.052 0.08379 0.035 0.1515 0.087 0.20312 0.1561 0.03216 0.042 0.05501 0.095 0.06855 0.1575 0.01354 0.062 0.02031 0.1548 0.02031 0.2793"/>
   <path id="path5109" style="" d="m19.352 1007.3h0.59795v1.2404h0.46338v0.1815h-1.1604v-0.1815h0.46338v-1.0588h-0.36436v-0.1816m0.36436-0.5535h0.23359v0.2958h-0.23359v-0.2958"/>
   <path id="path5111" style="" d="m21.926 1007.8v0.8811h-0.23486v-0.8811c-0.000001-0.1278-0.02243-0.2217-0.06728-0.2818-0.04486-0.06-0.1151-0.09-0.21074-0.09-0.10918 0-0.19339 0.039-0.25264 0.1168-0.0584 0.077-0.0876 0.1879-0.0876 0.3326v0.8036h-0.23359v-1.4219h0.23359v0.2133c0.04147-0.081 0.09775-0.1426 0.16885-0.1841 0.07109-0.042 0.1553-0.063 0.25264-0.063 0.14472 0 0.25264 0.048 0.32373 0.1435 0.07194 0.095 0.10791 0.2387 0.10791 0.4316"/>
   <path id="path5113" style="" d="m23.279 1006.7c-0.11257 0.193-0.19678 0.3856-0.25264 0.5777-0.05501 0.1913-0.08252 0.3842-0.08252 0.5789-0.000001 0.1938 0.02751 0.3868 0.08252 0.5789 0.05586 0.1921 0.14007 0.3855 0.25264 0.5802h-0.20312c-0.1278-0.2015-0.22302-0.3974-0.28564-0.5878-0.06263-0.1913-0.09395-0.3817-0.09395-0.5713-0.000001-0.1888 0.03131-0.3788 0.09395-0.57 0.06263-0.1913 0.15784-0.3868 0.28564-0.5866h0.20312"/>
   <path id="path5115" style="" d="m24.161 1006.7h0.20312c0.1278 0.1998 0.22301 0.3953 0.28564 0.5866 0.06263 0.1912 0.09394 0.3812 0.09395 0.57-0.000001 0.1904-0.03132 0.3813-0.09395 0.5725-0.06263 0.1913-0.15785 0.3868-0.28564 0.5866h-0.20312c0.11256-0.1964 0.19635-0.3906 0.25137-0.5827 0.05586-0.1922 0.08379-0.3843 0.08379-0.5764-0.000001-0.193-0.02793-0.3855-0.08379-0.5777-0.05501-0.1921-0.1388-0.385-0.25137-0.5789"/>
   <path id="path5117" style="" d="m10.928 1012.2v0.1828h-0.08125c-0.21074 0-0.35208-0.031-0.42402-0.094-0.07109-0.063-0.10664-0.1875-0.10664-0.3745v-0.3035c-0.000001-0.1278-0.02285-0.2162-0.06855-0.2653-0.04486-0.049-0.12653-0.074-0.24502-0.074h-0.078711v-0.1816h0.078711c0.11934 0 0.20143-0.024 0.24629-0.072s0.06728-0.1359 0.06729-0.2628v-0.3047c-0.000001-0.1871 0.03555-0.3115 0.10664-0.3733 0.07194-0.063 0.21328-0.094 0.42402-0.094h0.08125v0.1815h-0.08887c-0.11849 0-0.19593 0.019-0.23232 0.056-0.03555 0.036-0.05332 0.1147-0.05332 0.2349v0.3148c0 0.1329-0.01947 0.2294-0.0584 0.2895-0.03809 0.06-0.10368 0.1007-0.19678 0.1218 0.09394 0.023 0.15996 0.064 0.19805 0.1245 0.03808 0.06 0.05713 0.1561 0.05713 0.2881v0.3149c0 0.121 0.01777 0.1997 0.05332 0.2361 0.03639 0.036 0.11383 0.055 0.23232 0.055h0.08887"/>
   <path id="path5119" style="" d="m13.9 1013.3h0.24121l-0.99785 2.1366h-0.24248l0.99912-2.1366"/>
   <path id="path5121" style="" d="m15.69 1013.6-0.45449 0.2463 0.45449 0.2475-0.07236 0.1244-0.42656-0.2577v0.4786h-0.146v-0.4786l-0.42656 0.2577-0.07236-0.1244 0.45449-0.2475-0.45449-0.2463 0.07236-0.1257 0.42656 0.2577v-0.4786h0.146v0.4786l0.42656-0.2577 0.07236 0.1257"/>
   <path id="path5123" style="" d="m17.711 1014.6v-0.881h0.23359v0.881c0 0.1278 0.02243 0.2218 0.06729 0.2818 0.0457 0.06 0.11595 0.09 0.21074 0.09 0.11002 0 0.19424-0.038 0.25264-0.1155 0.0584-0.078 0.0876-0.1892 0.0876-0.3339v-0.8036h0.23486v1.4193h-0.23486v-0.2133c-0.04147 0.082-0.09818 0.1443-0.17012 0.1866-0.07109 0.042-0.15446 0.064-0.2501 0.064-0.14557 0-0.25391-0.047-0.325-0.1422-0.07109-0.096-0.10664-0.2399-0.10664-0.4329m0.15742-1.432h0.25771v0.2564h-0.25771v-0.2564m0.49766 0h0.25644v0.2564h-0.25644v-0.2564"/>
   <path id="path5125" style="" d="m20.116 1013.9v-0.7351h0.23359v1.9754h-0.23359v-0.179c-0.03893 0.07-0.09098 0.124-0.15615 0.1612-0.06432 0.036-0.1388 0.055-0.22344 0.055-0.17181 0-0.30723-0.066-0.40625-0.1993-0.09818-0.1337-0.14727-0.3178-0.14726-0.5523-0.000001-0.231 0.04951-0.4121 0.14854-0.5433 0.09902-0.132 0.23402-0.1981 0.40498-0.1981 0.08548 0 0.16081 0.019 0.22598 0.056 0.06517 0.036 0.11637 0.09 0.15361 0.16m-0.68682 0.5306c-0.000001 0.1811 0.02878 0.3178 0.08633 0.4101 0.05755 0.092 0.14261 0.1384 0.25518 0.1384 0.11256 0 0.19805-0.047 0.25645-0.1397 0.05924-0.093 0.08887-0.2293 0.08887-0.4088-0.000001-0.1802-0.02962-0.3165-0.08887-0.4088-0.0584-0.093-0.14388-0.1396-0.25645-0.1396-0.11256 0-0.19762 0.046-0.25518 0.1384-0.05755 0.092-0.08633 0.2289-0.08633 0.41"/>
   <path id="path5127" style="" d="m20.718 1013.8h0.24248l0.4126 1.1934 0.41387-1.1934h0.24248l-0.50527 1.4219h-0.30088l-0.50527-1.4219"/>
   <path id="path5129" style="" d="m22.937 1013.9c-0.11849 0-0.2082 0.046-0.26914 0.1384-0.06094 0.092-0.09141 0.2289-0.09141 0.41-0.000001 0.1803 0.03047 0.317 0.09141 0.4101 0.06094 0.092 0.15065 0.1384 0.26914 0.1384 0.11934 0 0.20947-0.046 0.27041-0.1384 0.06094-0.093 0.0914-0.2298 0.09141-0.4101-0.000001-0.1811-0.03047-0.3178-0.09141-0.41-0.06094-0.092-0.15108-0.1384-0.27041-0.1384m0-0.1981c0.1972 0 0.34785 0.064 0.45195 0.1917 0.10495 0.1278 0.15742 0.3128 0.15742 0.5548-0.000002 0.2429-0.05205 0.4283-0.15615 0.5561-0.1041 0.1269-0.25518 0.1904-0.45322 0.1904-0.1972 0-0.34785-0.064-0.45195-0.1904-0.1041-0.1278-0.15615-0.3132-0.15615-0.5561 0-0.242 0.05205-0.427 0.15615-0.5548s0.25475-0.1917 0.45195-0.1917m-0.37705-0.5141h0.25772v0.2564h-0.25772v-0.2564m0.49766 0h0.25644v0.2564h-0.25644v-0.2564"/>
   <path id="path5131" style="" d="m24.008 1013.8h1.0321v0.2133l-0.81631 1.0207h0.81631v0.1904h-1.0626v-0.2158l0.81631-1.022h-0.78584v-0.1866"/>
   <path id="path5133" style="" d="m26.095 1014.7c-0.000001 0.1049 0.01904 0.184 0.05713 0.2374 0.03893 0.053 0.09606 0.08 0.17139 0.08h0.27295v0.1981h-0.2958c-0.13965 0-0.24798-0.045-0.325-0.1346-0.07617-0.09-0.11426-0.2166-0.11426-0.3808v-1.2911h-0.37451v-0.1829h0.6081v1.474"/>
   <path id="path5135" style="" d="m28.259 1014.4v0.1142h-1.0118v0.01c0 0.1549 0.0402 0.2747 0.1206 0.3593 0.08125 0.085 0.19551 0.127 0.34277 0.127 0.07448 0 0.15234-0.012 0.23359-0.036s0.168-0.06 0.26025-0.1079v0.2323c-0.08887 0.036-0.17477 0.063-0.25772 0.081-0.0821 0.019-0.16166 0.028-0.23867 0.028-0.2209 0-0.39356-0.066-0.51797-0.198-0.12441-0.1329-0.18662-0.3157-0.18662-0.5485 0-0.2268 0.06094-0.4079 0.18281-0.5433s0.28437-0.2032 0.4875-0.2032c0.18112 0 0.32373 0.061 0.42783 0.1841 0.10495 0.1227 0.15742 0.2903 0.15742 0.5028m-0.23359-0.069c-0.0034-0.1371-0.03597-0.2412-0.09775-0.3123-0.06094-0.072-0.14896-0.1079-0.26406-0.1079-0.11257 0-0.20524 0.037-0.27803 0.1117-0.07279 0.075-0.11595 0.1777-0.12949 0.3098h0.76934"/>
   <path id="path5137" style="" d="m29.191 1013.4v0.4037h0.53066v0.1816h-0.53066v0.7718c-0.000001 0.105 0.01989 0.1782 0.05967 0.2197 0.03978 0.041 0.10918 0.062 0.2082 0.062h0.26279v0.1866h-0.28564c-0.1752 0-0.29876-0.035-0.3707-0.1054-0.07194-0.07-0.10791-0.1913-0.10791-0.3631v-0.7718h-0.37959v-0.1816h0.37959v-0.4037h0.23359"/>
   <path id="path5139" style="" d="m32.894 1013.6-0.45449 0.2463 0.45449 0.2475-0.07236 0.1244-0.42656-0.2577v0.4786h-0.146v-0.4786l-0.42656 0.2577-0.07236-0.1244 0.45449-0.2475-0.45449-0.2463 0.07236-0.1257 0.42656 0.2577v-0.4786h0.146v0.4786l0.42656-0.2577 0.07236 0.1257"/>
   <path id="path5141" style="" d="m34.232 1013.3h0.24121l-0.99785 2.1366h-0.24248l0.99912-2.1366"/>
   <path id="path5143" style="" d="m13.247 1018.3v0.7198h-0.23486v-1.9627h0.23486v0.1816c0.03893-0.07 0.09056-0.1236 0.15488-0.16 0.06517-0.037 0.14007-0.056 0.22471-0.056 0.17181 0 0.30638 0.067 0.40371 0.1994 0.09818 0.1328 0.14726 0.3169 0.14727 0.5522-0.000001 0.2311-0.04909 0.4126-0.14727 0.5446-0.09818 0.1312-0.23275 0.1968-0.40371 0.1968-0.08633 0-0.16208-0.018-0.22725-0.055-0.06432-0.037-0.1151-0.091-0.15234-0.1612m0.68555-0.5307c-0.000002-0.1811-0.02878-0.3178-0.08633-0.41-0.05671-0.092-0.14134-0.1384-0.25391-0.1384-0.11341 0-0.19932 0.046-0.25772 0.1396-0.0584 0.092-0.0876 0.2286-0.0876 0.4088-0.000001 0.1795 0.0292 0.3157 0.0876 0.4088 0.0584 0.093 0.1443 0.1397 0.25772 0.1397 0.11256 0 0.1972-0.046 0.25391-0.1384 0.05755-0.092 0.08633-0.229 0.08633-0.4101"/>
   <path id="path5145" style="" d="m15.801 1017.3c-0.04994-0.039-0.10072-0.067-0.15234-0.085-0.05163-0.018-0.10834-0.027-0.17012-0.027-0.14557 0-0.25687 0.046-0.33389 0.1371-0.07702 0.091-0.11553 0.2234-0.11553 0.3961v0.7071h-0.23486v-1.4219h0.23486v0.278c0.03893-0.1007 0.0986-0.1777 0.179-0.231 0.08125-0.054 0.17731-0.081 0.28818-0.081 0.05755 0 0.11129 0.01 0.16123 0.022 0.04993 0.014 0.09775 0.037 0.14346 0.067v0.2387"/>
   <path id="path5147" style="" d="m16.224 1017h0.59795v1.2404h0.46338v0.1815h-1.1604v-0.1815h0.46338v-1.0588h-0.36436v-0.1816m0.36436-0.5535h0.23359v0.2958h-0.23359v-0.2958"/>
   <path id="path5149" style="" d="m18.797 1017.6v0.8811h-0.23486v-0.8811c-0.000001-0.1278-0.02243-0.2217-0.06729-0.2818-0.04486-0.06-0.1151-0.09-0.21074-0.09-0.10918 0-0.19339 0.039-0.25264 0.1168-0.0584 0.077-0.0876 0.1879-0.0876 0.3326v0.8036h-0.23359v-1.4219h0.23359v0.2133c0.04147-0.081 0.09775-0.1426 0.16885-0.1841 0.07109-0.042 0.1553-0.063 0.25264-0.063 0.14472 0 0.25264 0.048 0.32373 0.1435 0.07194 0.095 0.10791 0.2387 0.10791 0.4316"/>
   <path id="path5151" style="" d="m19.807 1016.6v0.4037h0.53066v0.1816h-0.53066v0.7718c0 0.105 0.01989 0.1782 0.05967 0.2197 0.03978 0.041 0.10918 0.062 0.2082 0.062h0.26279v0.1866h-0.28564c-0.1752 0-0.29876-0.035-0.3707-0.1054-0.07194-0.07-0.10791-0.1913-0.10791-0.3631v-0.7718h-0.37959v-0.1816h0.37959v-0.4037h0.23359"/>
   <path id="path5153" style="" d="m21.941 1016.5v0.1942h-0.26533c-0.08379 0-0.14219 0.017-0.1752 0.052-0.03216 0.034-0.04824 0.094-0.04824 0.1815v0.1257h0.48877v0.1816h-0.48877v1.2403h-0.23359v-1.2403h-0.37959v-0.1816h0.37959v-0.099c-0.000001-0.1557 0.03555-0.2704 0.10664-0.344 0.07194-0.074 0.18366-0.1105 0.33516-0.1105h0.28057"/>
   <path id="path5155" style="" d="m23.279 1016.5c-0.11257 0.193-0.19678 0.3856-0.25264 0.5777-0.05501 0.1913-0.08252 0.3842-0.08252 0.5789-0.000001 0.1938 0.02751 0.3868 0.08252 0.5789 0.05586 0.1921 0.14007 0.3855 0.25264 0.5802h-0.20312c-0.1278-0.2015-0.22302-0.3974-0.28564-0.5878-0.06263-0.1913-0.09395-0.3817-0.09395-0.5713-0.000001-0.1888 0.03131-0.3788 0.09395-0.57 0.06263-0.1913 0.15784-0.3868 0.28564-0.5866h0.20312"/>
   <path id="path5157" style="" d="m24.856 1016.5v0.7046h-0.2209v-0.7046h0.2209m-0.48623 0v0.7046h-0.2209v-0.7046h0.2209"/>
   <path id="path5159" style="" d="m25.457 1016.5h0.25772v0.7769h0.70205v-0.7769h0.25772v1.8954h-0.25772v-0.9026h-0.70205v0.9026h-0.25772v-1.8954"/>
   <path id="path5161" style="" d="m28.259 1017.7v0.1142h-1.0118v0.01c0 0.1549 0.0402 0.2747 0.1206 0.3593 0.08125 0.085 0.19551 0.127 0.34277 0.127 0.07448 0 0.15234-0.012 0.23359-0.036s0.168-0.06 0.26025-0.1079v0.2323c-0.08887 0.036-0.17477 0.063-0.25772 0.081-0.0821 0.019-0.16166 0.028-0.23867 0.028-0.2209 0-0.39356-0.066-0.51797-0.198-0.12441-0.1329-0.18662-0.3157-0.18662-0.5485 0-0.2268 0.06094-0.4079 0.18281-0.5433s0.28437-0.2032 0.4875-0.2032c0.18112 0 0.32373 0.061 0.42783 0.1841 0.10495 0.1227 0.15742 0.2903 0.15742 0.5028m-0.23359-0.069c-0.0034-0.1371-0.03597-0.2412-0.09775-0.3123-0.06094-0.072-0.14896-0.1079-0.26406-0.1079-0.11257 0-0.20524 0.037-0.27803 0.1117-0.07279 0.075-0.11595 0.1777-0.12949 0.3098h0.76934"/>
   <path id="path5163" style="" d="m29.223 1017.9c-0.000001 0.1049 0.01904 0.184 0.05713 0.2374 0.03893 0.053 0.09606 0.08 0.17139 0.08h0.27295v0.1981h-0.2958c-0.13965 0-0.24798-0.045-0.325-0.1346-0.07617-0.09-0.11426-0.2166-0.11426-0.3808v-1.2911h-0.37451v-0.1829h0.6081v1.474"/>
   <path id="path5165" style="" d="m30.787 1017.9c0 0.1049 0.01904 0.184 0.05713 0.2374 0.03893 0.053 0.09606 0.08 0.17139 0.08h0.27295v0.1981h-0.2958c-0.13965 0-0.24798-0.045-0.325-0.1346-0.07617-0.09-0.11426-0.2166-0.11426-0.3808v-1.2911h-0.37451v-0.1829h0.6081v1.474"/>
   <path id="path5167" style="" d="m32.322 1017.2c-0.11849 0-0.2082 0.046-0.26914 0.1384-0.06094 0.092-0.09141 0.2289-0.09141 0.41 0 0.1803 0.03047 0.317 0.09141 0.4101 0.06094 0.092 0.15065 0.1384 0.26914 0.1384 0.11934 0 0.20947-0.046 0.27041-0.1384 0.06094-0.093 0.09141-0.2298 0.09141-0.4101-0.000002-0.1811-0.03047-0.3178-0.09141-0.41-0.06094-0.092-0.15108-0.1384-0.27041-0.1384m0-0.1981c0.1972 0 0.34785 0.064 0.45195 0.1917 0.10495 0.1278 0.15742 0.3128 0.15742 0.5548-0.000001 0.2429-0.05205 0.4283-0.15615 0.5561-0.1041 0.1269-0.25518 0.1904-0.45322 0.1904-0.1972 0-0.34785-0.064-0.45195-0.1904-0.1041-0.1278-0.15615-0.3132-0.15615-0.5561 0-0.242 0.05205-0.427 0.15615-0.5548s0.25475-0.1917 0.45195-0.1917"/>
   <path id="path5169" style="" d="m34.795 1017h0.24248l0.4126 1.1934 0.41387-1.1934h0.24248l-0.50527 1.4219h-0.30088l-0.50527-1.4219"/>
   <path id="path5171" style="" d="m36.557 1017h0.59795v1.2404h0.46338v0.1815h-1.1604v-0.1815h0.46338v-1.0588h-0.36436v-0.1816m0.36436-0.5535h0.23359v0.2958h-0.23359v-0.2958"/>
   <path id="path5173" style="" d="m38.607 1017.9c-0.000001 0.1049 0.01904 0.184 0.05713 0.2374 0.03893 0.053 0.09606 0.08 0.17139 0.08h0.27295v0.1981h-0.2958c-0.13965 0-0.24798-0.045-0.325-0.1346-0.07617-0.09-0.11426-0.2166-0.11426-0.3808v-1.2911h-0.37451v-0.1829h0.60811v1.474"/>
   <path id="path5175" style="" d="m40.251 1017.7h-0.07744c-0.13626 0-0.2391 0.024-0.3085 0.072-0.06855 0.047-0.10283 0.1185-0.10283 0.2133-0.000001 0.086 0.02581 0.1519 0.07744 0.1993 0.05163 0.047 0.12314 0.071 0.21455 0.071 0.12864 0 0.22978-0.044 0.30342-0.1333 0.07363-0.09 0.11087-0.2133 0.11172-0.3707v-0.052h-0.21836m0.45322-0.096v0.8112h-0.23486v-0.2107c-0.04994 0.085-0.11299 0.1472-0.18916 0.1878-0.07533 0.04-0.16716 0.06-0.27549 0.06-0.14473 0-0.26025-0.041-0.34658-0.1219-0.08633-0.082-0.12949-0.1917-0.12949-0.3288 0-0.1582 0.0529-0.2784 0.15869-0.3605 0.10664-0.082 0.26279-0.1232 0.46846-0.1232h0.31358v-0.037c-0.000848-0.1134-0.02962-0.1955-0.08633-0.2463-0.05671-0.052-0.14727-0.077-0.27168-0.077-0.07956 0-0.15996 0.011-0.24121 0.034s-0.16038 0.056-0.2374 0.1003v-0.2336c0.08633-0.033 0.16885-0.058 0.24756-0.074 0.07956-0.017 0.15658-0.025 0.23106-0.025 0.11764 0 0.21794 0.017 0.30088 0.052 0.08379 0.035 0.1515 0.087 0.20312 0.1561 0.03216 0.042 0.05501 0.095 0.06855 0.1575 0.01354 0.062 0.02031 0.1548 0.02031 0.2793"/>
   <path id="path5177" style="" d="m42.013 1017.7c-0.000001-0.1752-0.02878-0.308-0.08633-0.3986-0.05671-0.091-0.13965-0.1371-0.24883-0.1371-0.11426 0-0.20143 0.046-0.26152 0.1371-0.06009 0.091-0.09014 0.2234-0.09014 0.3986s0.03005 0.3089 0.09014 0.4012c0.06094 0.091 0.14896 0.1371 0.26406 0.1371 0.10749 0 0.18958-0.046 0.24629-0.1384 0.05755-0.092 0.08633-0.2255 0.08633-0.3999m0.23359 0.631c-0.000001 0.2133-0.05036 0.3749-0.15107 0.4849-0.10072 0.1101-0.24883 0.1651-0.44434 0.1651-0.06432 0-0.13161-0.01-0.20186-0.018-0.07025-0.012-0.1405-0.029-0.21074-0.052v-0.2311c0.08294 0.039 0.15827 0.068 0.22598 0.086 0.06771 0.019 0.12992 0.028 0.18662 0.028 0.12611 0 0.21794-0.034 0.27549-0.1029 0.05755-0.069 0.08633-0.1773 0.08633-0.3262v-0.01-0.1587c-0.03724 0.08-0.08802 0.1388-0.15234 0.1778s-0.14261 0.058-0.23486 0.058c-0.16589 0-0.29834-0.066-0.39736-0.1993-0.09902-0.1328-0.14854-0.3106-0.14854-0.5332 0-0.2234 0.04951-0.4016 0.14854-0.5344 0.09902-0.1329 0.23148-0.1994 0.39736-0.1994 0.09141 0 0.16885 0.018 0.23232 0.055 0.06347 0.036 0.1151 0.093 0.15488 0.1689v-0.1841h0.23359v1.3254"/>
   <path id="path5179" style="" d="m42.86 1016.5 0.99785 2.1366h-0.24121l-0.99912-2.1366h0.24248"/>
   <path id="path5181" style="" d="m45.387 1017.6v0.8811h-0.23486v-0.8811c-0.000001-0.1278-0.02243-0.2217-0.06728-0.2818-0.04486-0.06-0.1151-0.09-0.21074-0.09-0.10918 0-0.19339 0.039-0.25264 0.1168-0.0584 0.077-0.0876 0.1879-0.0876 0.3326v0.8036h-0.23359v-1.4219h0.23359v0.2133c0.04147-0.081 0.09775-0.1426 0.16885-0.1841 0.07109-0.042 0.1553-0.063 0.25264-0.063 0.14473 0 0.25264 0.048 0.32373 0.1435 0.07194 0.095 0.10791 0.2387 0.10791 0.4316"/>
   <path id="path5183" style="" d="m46.753 1016.5v0.7046h-0.2209v-0.7046h0.2209m-0.48623 0v0.7046h-0.2209v-0.7046h0.2209"/>
   <path id="path5185" style="" d="m47.622 1016.5h0.20312c0.1278 0.1998 0.22301 0.3953 0.28564 0.5866 0.06263 0.1912 0.09394 0.3812 0.09395 0.57-0.000001 0.1904-0.03132 0.3813-0.09395 0.5725-0.06263 0.1913-0.15784 0.3868-0.28564 0.5866h-0.20312c0.11256-0.1964 0.19635-0.3906 0.25137-0.5827 0.05586-0.1922 0.08379-0.3843 0.08379-0.5764-0.000001-0.193-0.02793-0.3855-0.08379-0.5777-0.05501-0.1921-0.1388-0.385-0.25137-0.5789"/>
   <path id="path5187" style="" d="m49.382 1018h0.31992v0.2628l-0.2501 0.4862h-0.19551l0.12568-0.4862v-0.2628m-0.0165-0.9648h0.31992v0.3846h-0.31992v-0.3846"/>
   <path id="path5189" style="" d="m14.237 1023.8c-0.04994-0.039-0.10072-0.067-0.15234-0.085-0.05163-0.018-0.10833-0.027-0.17012-0.027-0.14557 0-0.25687 0.046-0.33389 0.1371-0.07702 0.091-0.11553 0.2234-0.11553 0.3961v0.7071h-0.23486v-1.4219h0.23486v0.278c0.03893-0.1007 0.0986-0.1777 0.179-0.231 0.08125-0.054 0.17731-0.081 0.28818-0.081 0.05755 0 0.11129 0.01 0.16123 0.022 0.04993 0.014 0.09775 0.037 0.14346 0.067v0.2387"/>
   <path id="path5191" style="" d="m15.747 1024.2v0.1142h-1.0118v0.01c0 0.1549 0.0402 0.2747 0.12061 0.3593 0.08125 0.085 0.19551 0.127 0.34277 0.127 0.07448 0 0.15234-0.012 0.23359-0.036s0.168-0.06 0.26025-0.1079v0.2323c-0.08887 0.036-0.17477 0.063-0.25772 0.081-0.0821 0.019-0.16166 0.028-0.23867 0.028-0.2209 0-0.39356-0.066-0.51797-0.198-0.12441-0.1329-0.18662-0.3157-0.18662-0.5485 0-0.2268 0.06094-0.4079 0.18281-0.5433s0.28437-0.2032 0.4875-0.2032c0.18112 0 0.32373 0.061 0.42783 0.1841 0.10495 0.1227 0.15742 0.2903 0.15742 0.5028m-0.23359-0.069c-0.0034-0.1371-0.03597-0.2412-0.09775-0.3123-0.06094-0.072-0.14896-0.1079-0.26406-0.1079-0.11256 0-0.20524 0.037-0.27803 0.1117-0.07279 0.075-0.11595 0.1777-0.12949 0.3098h0.76934"/>
   <path id="path5193" style="" d="m16.679 1023.1v0.4037h0.53066v0.1816h-0.53066v0.7718c-0.000001 0.105 0.01989 0.1782 0.05967 0.2197 0.03978 0.041 0.10918 0.062 0.2082 0.062h0.26279v0.1866h-0.28564c-0.1752 0-0.29876-0.035-0.3707-0.1054-0.07194-0.07-0.10791-0.1913-0.10791-0.3631v-0.7718h-0.37959v-0.1816h0.37959v-0.4037h0.23359"/>
   <path id="path5195" style="" d="m17.711 1024.4v-0.881h0.23359v0.881c0 0.1278 0.02243 0.2218 0.06729 0.2818 0.0457 0.06 0.11595 0.09 0.21074 0.09 0.11002 0 0.19424-0.038 0.25264-0.1155 0.0584-0.078 0.0876-0.1892 0.0876-0.3339v-0.8036h0.23486v1.4193h-0.23486v-0.2133c-0.04147 0.082-0.09818 0.1443-0.17012 0.1866-0.07109 0.042-0.15446 0.063-0.2501 0.063-0.14557 0-0.25391-0.047-0.325-0.1422-0.07109-0.096-0.10664-0.2399-0.10664-0.4329"/>
   <path id="path5197" style="" d="m20.494 1023.8c-0.04994-0.039-0.10072-0.067-0.15234-0.085-0.05163-0.018-0.10834-0.027-0.17012-0.027-0.14557 0-0.25687 0.046-0.33389 0.1371-0.07702 0.091-0.11553 0.2234-0.11553 0.3961v0.7071h-0.23486v-1.4219h0.23486v0.278c0.03893-0.1007 0.0986-0.1777 0.179-0.231 0.08125-0.054 0.17731-0.081 0.28818-0.081 0.05755 0 0.1113 0.01 0.16123 0.022 0.04993 0.014 0.09775 0.037 0.14346 0.067v0.2387"/>
   <path id="path5199" style="" d="m21.926 1024.1v0.8811h-0.23486v-0.8811c-0.000001-0.1278-0.02243-0.2217-0.06728-0.2818-0.04486-0.06-0.1151-0.09-0.21074-0.09-0.10918 0-0.19339 0.039-0.25264 0.1168-0.0584 0.077-0.0876 0.1879-0.0876 0.3326v0.8036h-0.23359v-1.4219h0.23359v0.2133c0.04147-0.081 0.09775-0.1426 0.16885-0.1841 0.07109-0.042 0.1553-0.063 0.25264-0.063 0.14472 0 0.25264 0.048 0.32373 0.1435 0.07194 0.095 0.10791 0.2387 0.10791 0.4316"/>
   <path id="path5201" style="" d="m24.333 1024c-0.000001-0.047 0.01608-0.087 0.04824-0.1206 0.03301-0.034 0.07236-0.051 0.11807-0.051 0.04739 0 0.08802 0.017 0.12188 0.051 0.03385 0.034 0.05078 0.074 0.05078 0.1206-0.000001 0.047-0.01693 0.088-0.05078 0.1206-0.03301 0.033-0.07363 0.05-0.12188 0.05-0.0474 0-0.08718-0.016-0.11934-0.048-0.03132-0.032-0.04697-0.073-0.04697-0.1219m0.16885-0.7744c-0.11934 0-0.20863 0.064-0.26787 0.193-0.0584 0.1286-0.0876 0.3246-0.0876 0.5878 0 0.2624 0.0292 0.4579 0.0876 0.5865 0.05924 0.1287 0.14853 0.193 0.26787 0.193 0.12018 0 0.20947-0.064 0.26787-0.193 0.05924-0.1286 0.08887-0.3241 0.08887-0.5865-0.000001-0.2632-0.02962-0.4592-0.08887-0.5878-0.0584-0.1286-0.14769-0.193-0.26787-0.193m0-0.2031c0.20228 0 0.35504 0.083 0.4583 0.2488 0.1041 0.1659 0.15615 0.4109 0.15615 0.7351-0.000002 0.3233-0.05205 0.5679-0.15615 0.7338-0.10326 0.1659-0.25602 0.2488-0.4583 0.2488s-0.35505-0.083-0.4583-0.2488c-0.10326-0.1659-0.15488-0.4105-0.15488-0.7338 0-0.3242 0.05163-0.5692 0.15488-0.7351 0.10326-0.1658 0.25602-0.2488 0.4583-0.2488"/>
   <path id="path5203" style="" d="m25.921 1024.5h0.31992v0.2628l-0.2501 0.4862h-0.19551l0.12568-0.4862v-0.2628m-0.0165-0.9648h0.31992v0.3846h-0.31992v-0.3846"/>
   <path id="path5205" style="" d="m9.9234 1028.4h0.086328c0.11934 0 0.1972-0.019 0.23359-0.056s0.05459-0.1155 0.05459-0.2348v-0.3149c-0.000001-0.132 0.01904-0.2281 0.05713-0.2881s0.1041-0.1016 0.19805-0.1245c-0.0931-0.021-0.15912-0.062-0.19805-0.1218-0.03809-0.06-0.05713-0.1566-0.05713-0.2895v-0.3148c-0.000001-0.1194-0.0182-0.1977-0.05459-0.2349-0.03639-0.037-0.11426-0.056-0.23359-0.056h-0.086328v-0.1815h0.078711c0.21074 0 0.35166 0.031 0.42275 0.094 0.07109 0.062 0.10664 0.1862 0.10664 0.3733v0.3047c0 0.1269 0.02243 0.2145 0.06729 0.2628 0.0457 0.048 0.12822 0.072 0.24756 0.072h0.08125v0.1816h-0.08125c-0.11934 0-0.20186 0.025-0.24756 0.074-0.04486 0.049-0.06729 0.1375-0.06729 0.2653v0.3035c0 0.187-0.03555 0.3118-0.10664 0.3745-0.07109 0.063-0.21201 0.094-0.42275 0.094h-0.078711v-0.1828"/>
  </g>
  <text id="text4879" style="word-spacing:0px;letter-spacing:0px;text-anchor:middle;text-align:center" xml:space="preserve" transform="scale(1)" line-height="125%" font-size="8px" y="992.18915" x="30.111168" font-family="Droid Sans" fill="#000000"><tspan id="tspan4881" x="30.111168" y="992.18915">hello.c</tspan></text>
  <text id="text4879-5" style="word-spacing:0px;letter-spacing:0px;text-anchor:middle;text-align:center" xml:space="preserve" font-size="8px" line-height="125%" y="992.19226" x="156.85156" font-family="Droid Sans" fill="#000000"><tspan id="tspan4881-1" x="156.85156" y="992.19226">hello.exe</tspan></text>
 </g>
</svg>
