<?xml version="1.0" encoding="UTF-8" standalone="no"?>
<!-- Created with Inkscape (http://www.inkscape.org/) -->
<svg id="svg2" xmlns:rdf="http://www.w3.org/1999/02/22-rdf-syntax-ns#" xmlns="http://www.w3.org/2000/svg" height="334.52" width="629.3" version="1.1" xmlns:cc="http://creativecommons.org/ns#" xmlns:dc="http://purl.org/dc/elements/1.1/" viewBox="105 118 342.3779 172.76888">
 <metadata id="metadata78">
  <rdf:RDF>
   <cc:Work rdf:about="">
    <dc:format>image/svg+xml</dc:format>
    <dc:type rdf:resource="http://purl.org/dc/dcmitype/StillImage"/>
   </cc:Work>
  </rdf:RDF>
 </metadata>
 <g id="g4" transform="translate(-2.5621 -5.6156)">
  <path id="rect6" fill="#ccc" d="m180 120h180v80h-180z"/>
  <path id="rect8" d="m180 120h180v80h-180z" stroke="#000" stroke-width="2" fill="none"/>
 </g>
 <g id="text10">
  <path id="path3020" style="" d="m233.61 144.01h2.6723v17.502h9.6176v2.249h-12.29v-19.751"/>
  <path id="path3022" style="" d="m248.69 144.01h3.5983l8.7577 16.523v-16.523h2.5929v19.751h-3.5983l-8.7577-16.523v16.523h-2.5929v-19.751"/>
  <path id="path3024" style="" d="m268.96 144.01h2.6723v8.3476l8.8635-8.3476h3.4396l-9.8028 9.2075 10.504 10.544h-3.519l-9.4853-9.5118v9.5118h-2.6723v-19.751"/>
  <path id="path3026" style="" d="m293.27 145.82c-1.9403 0.00002-3.4837 0.72321-4.6302 2.1696-1.1377 1.4464-1.7066 3.4175-1.7066 5.9134 0 2.4871 0.56885 4.4538 1.7066 5.9002 1.1465 1.4464 2.6899 2.1696 4.6302 2.1696s3.4748-0.72319 4.6037-2.1696c1.1377-1.4464 1.7065-3.4131 1.7066-5.9002-0.00002-2.4959-0.56887-4.467-1.7066-5.9134-1.1289-1.4464-2.6635-2.1696-4.6037-2.1696m0-2.1696c2.7693 0.00002 4.983 0.93047 6.641 2.7914 1.658 1.8521 2.4871 4.3392 2.4871 7.4612-0.00002 3.1133-0.82905 5.6003-2.4871 7.4612-1.6581 1.8521-3.8717 2.7781-6.641 2.7781-2.7781 0-5.0006-0.92604-6.6675-2.7781-1.658-1.8521-2.4871-4.3392-2.4871-7.4612 0-3.1221 0.82903-5.6092 2.4871-7.4612 1.6669-1.8609 3.8894-2.7913 6.6675-2.7914"/>
 </g>
 <g id="g14" transform="translate(-2.5621 -5.6156)">
  <path id="rect16" fill="#ccc" d="m180 220h180v80h-180z"/>
  <path id="rect18" d="m180 220h180v80h-180z" stroke="#000" stroke-width="2" fill="none"/>
 </g>
 <g id="text20">
  <path id="path3031" style="" d="m184.68 244.01h11.351v2.249h-8.6783v5.8208h7.8317v2.249h-7.8317v9.4324h-2.6723v-19.751"/>
  <path id="path3033" style="" d="m204.41 246.64-3.6248 9.8293h7.2628l-3.638-9.8293m-1.5081-2.6326h3.0295l7.5274 19.751h-2.7781l-1.7992-5.0668h-8.9032l-1.7992 5.0668h-2.8178l7.5406-19.751"/>
  <path id="path3035" style="" d="m216.33 244.01h2.6723v8.3476l8.8635-8.3476h3.4396l-9.8028 9.2075 10.504 10.544h-3.519l-9.4853-9.5118v9.5118h-2.6723v-19.751"/>
  <path id="path3037" style="" d="m229.27 244.01h16.708v2.249h-7.0114v17.502h-2.6855v-17.502h-7.0114v-2.249"/>
  <path id="path3039" style="" d="m256.58 245.82c-1.9403 0.00002-3.4837 0.72321-4.6302 2.1696-1.1377 1.4464-1.7066 3.4176-1.7066 5.9134-0.00001 2.4871 0.56884 4.4538 1.7066 5.9002 1.1465 1.4464 2.6899 2.1696 4.6302 2.1696 1.9403 0.00001 3.4748-0.72319 4.6037-2.1696 1.1377-1.4464 1.7066-3.4131 1.7066-5.9002-0.00001-2.4959-0.56887-4.467-1.7066-5.9134-1.1289-1.4464-2.6635-2.1696-4.6037-2.1696m0-2.1696c2.7693 0.00002 4.983 0.93047 6.641 2.7914 1.658 1.8521 2.4871 4.3392 2.4871 7.4612-0.00002 3.1133-0.82904 5.6004-2.4871 7.4612-1.6581 1.8521-3.8717 2.7781-6.641 2.7781-2.7781-0.00001-5.0006-0.92604-6.6675-2.7781-1.6581-1.8521-2.4871-4.3392-2.4871-7.4612 0-3.1221 0.82902-5.6091 2.4871-7.4612 1.6669-1.8609 3.8894-2.7913 6.6675-2.7914"/>
  <path id="path3041" style="" d="m279.26 254.5c0.57325 0.19404 1.1289 0.60855 1.6669 1.2435 0.54679 0.63501 1.0936 1.5081 1.6404 2.6194l2.712 5.3975h-2.8707l-2.5268-5.0668c-0.65265-1.3229-1.2876-2.2004-1.905-2.6326-0.60855-0.43214-1.442-0.64822-2.5003-0.64822h-2.9104v8.3476h-2.6723v-19.751h6.0325c2.2578 0.00002 3.9423 0.47186 5.0535 1.4155 1.1112 0.94369 1.6669 2.368 1.6669 4.273-0.00001 1.2436-0.29106 2.2754-0.87312 3.0956-0.57328 0.82022-1.4111 1.3891-2.5135 1.7066m-6.694-8.2947v7.0114h3.3602c1.2876 0.00001 2.2578-0.29544 2.9104-0.88636 0.66144-0.59971 0.99217-1.4772 0.99218-2.6326-0.00001-1.1553-0.33074-2.024-0.99218-2.6061-0.65265-0.59088-1.6228-0.88633-2.9104-0.88635h-3.3602"/>
  <path id="path3043" style="" d="m288.73 244.01h2.6723v19.751h-2.6723v-19.751"/>
  <path id="path3045" style="" d="m303.32 246.64-3.6248 9.8293h7.2628l-3.638-9.8293m-1.5081-2.6326h3.0295l7.5274 19.751h-2.7781l-1.7992-5.0668h-8.9032l-1.7992 5.0668h-2.8178l7.5406-19.751m2.2357-5.371h2.4474l-3.0162 3.4925h-2.0241l2.5929-3.4925"/>
  <path id="path3047" style="" d="m315.24 244.01h2.6723v17.502h9.6176v2.249h-12.29v-19.751"/>
  <path id="path3049" style="" d="m330.32 244.01h2.6723v19.751h-2.6723v-19.751"/>
  <path id="path3051" style="" d="m350.15 244.66v2.6061c-1.0142-0.48505-1.9712-0.84665-2.8707-1.0848-0.8996-0.23811-1.7683-0.35717-2.6062-0.35719-1.4552 0.00002-2.5797 0.28224-3.3734 0.84667-0.78493 0.56446-1.1774 1.367-1.1774 2.4077-0.00001 0.87314 0.26017 1.5346 0.78052 1.9844 0.52916 0.44098 1.5258 0.79817 2.9898 1.0716l1.614 0.33073c1.9932 0.37924 3.4616 1.0495 4.4053 2.0108 0.95248 0.9525 1.4287 2.2313 1.4288 3.8364-0.00002 1.9138-0.64384 3.3646-1.9315 4.3524-1.2788 0.98778-3.1574 1.4817-5.6356 1.4817-0.93486-0.00001-1.9315-0.10584-2.9898-0.3175-1.0495-0.21167-2.1387-0.52476-3.2676-0.93927v-2.7517c1.0848 0.60855 2.1475 1.0672 3.1882 1.3758 1.0407 0.30869 2.0637 0.46303 3.0692 0.46302 1.5258 0.00001 2.7032-0.29985 3.5322-0.89958 0.82901-0.59972 1.2435-1.4552 1.2435-2.5664-0.00002-0.97013-0.29988-1.7286-0.89959-2.2754-0.59091-0.54679-1.5655-0.9569-2.9236-1.2303l-1.6272-0.3175c-1.9932-0.39686-3.4352-1.0186-4.3259-1.8653-0.89076-0.84665-1.3361-2.024-1.3361-3.5322 0-1.7462 0.61295-3.1221 1.8388-4.1275 1.2347-1.0054 2.9325-1.5081 5.0932-1.5081 0.92604 0.00002 1.8697 0.0838 2.831 0.25136 0.96131 0.16758 1.9447 0.41894 2.9501 0.75406"/>
 </g>
 <g id="g24" stroke="#000" stroke-width="2" fill="none" transform="translate(-2.5621 -5.6156)">
  <path id="line26" d="m140 140h35.528"/>
  <path id="polyline28" d="m167.76 145 10-5-10-5"/>
 </g>
 <g id="g30" stroke="#000" stroke-width="2" fill="none" transform="translate(-2.5621 -5.6156)">
  <path id="line32" d="m140 180h35.528"/>
  <path id="polyline34" d="m167.76 185 10-5-10-5"/>
 </g>
 <g id="g36" stroke="#000" stroke-width="2" fill="none" transform="translate(-2.5621 -5.6156)">
  <path id="line38" d="m140 260h35.528"/>
  <path id="polyline40" d="m167.76 265 10-5-10-5"/>
 </g>
 <g id="g42" stroke="#000" stroke-width="2" fill="none" transform="translate(-2.5621 -5.6156)">
  <path id="line44" d="m360 160h35.528"/>
  <path id="polyline46" d="m387.76 165 10-5-10-5"/>
 </g>
 <g id="g48" stroke="#000" stroke-width="2" fill="none" transform="translate(-2.5621 -5.6156)">
  <path id="line50" d="m360 260h35.528"/>
  <path id="polyline52" d="m387.76 265 10-5-10-5"/>
 </g>
 <g id="text54">
  <path id="path3064" style="" d="m406.38 152.82c-1.1994 0.00001-2.152 0.41011-2.8575 1.2303-0.69675 0.82022-1.0451 1.9447-1.0451 3.3734 0 1.4199 0.34836 2.5444 1.0451 3.3734 0.70554 0.8202 1.658 1.2303 2.8575 1.2303 1.1994 0 2.1475-0.41011 2.8443-1.2303 0.70554-0.82903 1.0583-1.9535 1.0583-3.3734-0.00001-1.4287-0.35279-2.5532-1.0583-3.3734-0.69675-0.8202-1.6448-1.2303-2.8443-1.2303m5.3049-8.374v2.4342c-0.67029-0.31748-1.3494-0.56002-2.0373-0.7276-0.67911-0.16756-1.3538-0.25134-2.0241-0.25136-1.7639 0.00002-3.1133 0.59533-4.0481 1.7859-0.92604 1.1906-1.4552 2.9898-1.5875 5.3975 0.52035-0.76728 1.173-1.3538 1.9579-1.7595 0.78492-0.4145 1.6492-0.62175 2.5929-0.62177 1.9844 0.00002 3.5498 0.60415 4.6964 1.8124 1.1553 1.1994 1.733 2.8354 1.733 4.908-0.00002 2.0285-0.59974 3.6557-1.7992 4.8816-1.1994 1.2259-2.7958 1.8388-4.789 1.8388-2.2842 0-4.0305-0.87312-5.2387-2.6194-1.2083-1.7551-1.8124-4.2951-1.8124-7.62 0-3.1221 0.74083-5.6092 2.2225-7.4612 1.4817-1.8609 3.4704-2.7913 5.9664-2.7914 0.67026 0.00002 1.345 0.0662 2.0241 0.19843 0.6879 0.13232 1.4023 0.33075 2.1431 0.59532"/>
 </g>
 <g id="text58">
  <path id="path3067" style="" d="m113.93 133.11c1.2788 0.27341 2.2754 0.84226 2.9898 1.7066 0.72318 0.86431 1.0848 1.9315 1.0848 3.2014-0.00002 1.9491-0.67029 3.4572-2.0108 4.5244-1.3406 1.0672-3.2456 1.6007-5.715 1.6007-0.82904 0-1.6845-0.0838-2.5665-0.25135-0.87313-0.15875-1.7771-0.40129-2.712-0.72761v-2.5797c0.74083 0.43215 1.5522 0.75847 2.4342 0.97896 0.88194 0.22048 1.8036 0.33073 2.7649 0.33072 1.6757 0.00001 2.9501-0.33072 3.8232-0.99218 0.88193-0.66146 1.3229-1.6228 1.3229-2.884-0.00001-1.1642-0.41012-2.0726-1.2303-2.7252-0.8114-0.66145-1.9447-0.99218-3.3999-0.99219h-2.3019v-2.196h2.4077c1.3141 0.00002 2.3195-0.26016 3.0162-0.78052 0.69672-0.52915 1.0451-1.2876 1.0451-2.2754-0.00001-1.0142-0.36161-1.7903-1.0848-2.3283-0.71438-0.54679-1.7418-0.82019-3.0824-0.82021-0.73202 0.00002-1.517 0.0794-2.3548 0.23813-0.83785 0.15876-1.7595 0.40571-2.7649 0.74083v-2.3812c1.0142-0.2822 1.9623-0.49387 2.8443-0.635 0.89076-0.14109 1.7286-0.21164 2.5135-0.21166 2.0285 0.00002 3.6336 0.46304 4.8154 1.3891 1.1818 0.91724 1.7727 2.1608 1.7727 3.7306-0.00002 1.0936-0.3131 2.0197-0.93927 2.7781-0.62619 0.74966-1.517 1.27-2.6723 1.561"/>
  <path id="path3069" style="" d="m128.8 125.77c-1.3758 0.00002-2.4121 0.67911-3.1088 2.0373-0.68792 1.3494-1.0319 3.3823-1.0319 6.0986 0 2.7076 0.34396 4.7404 1.0319 6.0986 0.69673 1.3494 1.733 2.0241 3.1088 2.0241 1.3846 0 2.4209-0.67469 3.1088-2.0241 0.69672-1.3582 1.0451-3.3911 1.0451-6.0986-0.00001-2.7164-0.34838-4.7492-1.0451-6.0986-0.68793-1.3582-1.7242-2.0373-3.1088-2.0373m0-2.1167c2.2137 0.00002 3.9026 0.87755 5.0668 2.6326 1.173 1.7463 1.7595 4.2863 1.7595 7.62-0.00002 3.3249-0.58651 5.8649-1.7595 7.62-1.1642 1.7462-2.8531 2.6194-5.0668 2.6194s-3.907-0.87312-5.08-2.6194c-1.1642-1.7551-1.7462-4.2951-1.7462-7.62-0.00001-3.3337 0.58208-5.8737 1.7462-7.62 1.173-1.755 2.8663-2.6326 5.08-2.6326"/>
 </g>
 <g id="text62">
  <path id="path3072" style="" d="m106.3 181.51h4.3656v-15.068l-4.7493 0.9525v-2.4342l4.7228-0.9525h2.6723v17.502h4.3656v2.249h-11.377v-2.249"/>
  <path id="path3074" style="" d="m125.39 181.51h9.3266v2.249h-12.541v-2.249c1.0142-1.0495 2.3945-2.4562 4.1407-4.2201 1.7551-1.7727 2.8575-2.9148 3.3073-3.4264 0.85548-0.96131 1.4508-1.7727 1.7859-2.4342 0.34395-0.67027 0.51592-1.3273 0.51594-1.9712-0.00002-1.0495-0.37043-1.905-1.1112-2.5664-0.73203-0.66144-1.6889-0.99217-2.8707-0.99219-0.83785 0.00002-1.7242 0.14554-2.6591 0.43656-0.92604 0.29106-1.9182 0.73203-2.9766 1.3229v-2.6988c1.076-0.43213 2.0814-0.75845 3.0162-0.97895 0.93485-0.22047 1.7903-0.33071 2.5665-0.33073 2.0461 0.00002 3.6777 0.51154 4.8948 1.5346s1.8256 2.3901 1.8256 4.101c-0.00001 0.81141-0.15435 1.5831-0.46302 2.3151-0.29987 0.7232-0.85108 1.5787-1.6536 2.5664-0.2205 0.25577-0.92164 0.99661-2.1034 2.2225-1.1818 1.2171-2.8487 2.9236-5.0006 5.1197"/>
 </g>
 <g id="text66">
  <path id="path3077" style="" d="m129.13 252.82c-1.1995 0.00001-2.152 0.41012-2.8575 1.2303-0.69674 0.82022-1.0451 1.9447-1.0451 3.3734-0.00001 1.4199 0.34836 2.5444 1.0451 3.3734 0.70555 0.82021 1.658 1.2303 2.8575 1.2303 1.1994 0 2.1475-0.4101 2.8443-1.2303 0.70554-0.82902 1.0583-1.9535 1.0583-3.3734-0.00001-1.4287-0.35279-2.5532-1.0583-3.3734-0.69674-0.82019-1.6448-1.2303-2.8443-1.2303m5.3049-8.374v2.4342c-0.67029-0.31748-1.3494-0.56001-2.0373-0.7276-0.67911-0.16755-1.3538-0.25134-2.0241-0.25135-1.7639 0.00001-3.1133 0.59533-4.0481 1.7859-0.92605 1.1906-1.4552 2.9898-1.5875 5.3975 0.52034-0.76728 1.173-1.3538 1.9579-1.7595 0.78492-0.4145 1.6492-0.62176 2.5929-0.62177 1.9844 0.00001 3.5498 0.60414 4.6964 1.8124 1.1553 1.1995 1.733 2.8355 1.733 4.908-0.00001 2.0285-0.59973 3.6556-1.7992 4.8816-1.1995 1.2259-2.7958 1.8388-4.789 1.8389-2.2842-0.00001-4.0305-0.87313-5.2388-2.6194-1.2083-1.7551-1.8124-4.295-1.8124-7.62 0-3.1221 0.74083-5.6091 2.2225-7.4612 1.4816-1.8609 3.4704-2.7913 5.9663-2.7914 0.67027 0.00002 1.345 0.0662 2.0241 0.19844 0.68791 0.13231 1.4023 0.33075 2.1431 0.59531"/>
 </g>
 <g id="text70">
  <path id="path3080" style="" d="m399.66 244.01h12.7v1.1377l-7.1702 18.613h-2.7914l6.7469-17.502h-9.4853v-2.249"/>
  <path id="path3082" style="" d="m419.89 261.51h9.3266v2.249h-12.541v-2.249c1.0142-1.0495 2.3945-2.4562 4.1407-4.2201 1.755-1.7727 2.8575-2.9148 3.3073-3.4264 0.85548-0.96131 1.4508-1.7727 1.7859-2.4342 0.34394-0.67026 0.51592-1.3273 0.51594-1.9711-0.00002-1.0495-0.37043-1.905-1.1112-2.5665-0.73203-0.66144-1.6889-0.99217-2.8707-0.99218-0.83785 0.00001-1.7242 0.14554-2.6591 0.43656-0.92604 0.29106-1.9182 0.73203-2.9766 1.3229v-2.6987c1.076-0.43214 2.0814-0.75845 3.0162-0.97896 0.93485-0.22047 1.7903-0.33071 2.5664-0.33073 2.0461 0.00002 3.6777 0.51155 4.8948 1.5346 1.2171 1.0231 1.8256 2.3901 1.8256 4.101-0.00001 0.8114-0.15435 1.5831-0.46302 2.3151-0.29987 0.72321-0.85109 1.5787-1.6536 2.5665-0.2205 0.25577-0.92164 0.9966-2.1034 2.2225-1.1818 1.2171-2.8487 2.9236-5.0006 5.1197"/>
  <path id="path3084" style="" d="m440.55 245.77c-1.3758 0.00001-2.4121 0.67911-3.1088 2.0373-0.68792 1.3494-1.0319 3.3823-1.0319 6.0986 0 2.7076 0.34396 4.7404 1.0319 6.0986 0.69673 1.3494 1.733 2.0241 3.1088 2.0241 1.3846 0 2.4209-0.67468 3.1088-2.0241 0.69672-1.3582 1.0451-3.3911 1.0451-6.0986-0.00001-2.7164-0.34838-4.7492-1.0451-6.0986-0.68793-1.3582-1.7242-2.0373-3.1088-2.0373m0-2.1167c2.2137 0.00002 3.9026 0.87755 5.0668 2.6326 1.173 1.7463 1.7595 4.2863 1.7595 7.62-0.00002 3.3249-0.58651 5.8649-1.7595 7.62-1.1642 1.7462-2.8531 2.6194-5.0668 2.6194-2.2137-0.00001-3.907-0.87313-5.08-2.6194-1.1642-1.7551-1.7462-4.295-1.7462-7.62-0.00001-3.3337 0.58208-5.8737 1.7462-7.62 1.173-1.755 2.8663-2.6326 5.08-2.6326"/>
 </g>
</svg>
