<?xml version="1.0" encoding="UTF-8" standalone="no"?>
<!-- Created with Inkscape (http://www.inkscape.org/) -->
<svg id="svg2" xmlns:rdf="http://www.w3.org/1999/02/22-rdf-syntax-ns#" xmlns="http://www.w3.org/2000/svg" height="740.43" width="240.73" version="1.1" xmlns:cc="http://creativecommons.org/ns#" xmlns:dc="http://purl.org/dc/elements/1.1/" viewBox="334 137 130.05701 404.00001">
 <metadata id="metadata106">
  <rdf:RDF>
   <cc:Work rdf:about="">
    <dc:format>image/svg+xml</dc:format>
    <dc:type rdf:resource="http://purl.org/dc/dcmitype/StillImage"/>
   </cc:Work>
  </rdf:RDF>
 </metadata>
 <g id="g4" transform="translate(-1.647 -1)">
  <path id="ellipse6" fill="#fff" d="m440 190c0 27.614-22.386 50-50 50s-50-22.386-50-50 22.386-50 50-50 50 22.386 50 50z"/>
  <path id="ellipse8" d="m440 190c0 27.614-22.386 50-50 50s-50-22.386-50-50 22.386-50 50-50 50 22.386 50 50z" stroke="#f00" stroke-width="4" fill="none"/>
 </g>
 <g id="g10" transform="translate(-1.647 -1)">
  <path id="rect12" fill="#fff" d="m340 260h100v140h-100z"/>
  <path id="rect14" d="m340 260h100v140h-100z" stroke="#00f" stroke-width="4" fill="none"/>
 </g>
 <g id="g16" stroke="#000" stroke-width="2" fill="none" transform="translate(-1.647 -1)">
  <path id="line18" d="m344.47 410h91.056"/>
  <path id="polyline20" d="m352.24 405-10 5 10 5"/>
  <path id="polyline22" d="m427.76 415 10-5-10-5"/>
 </g>
 <g id="g24" stroke="#000" stroke-width="2" fill="none" transform="translate(-1.647 -1)">
  <path id="line26" d="m450 264.47v131.06"/>
  <path id="polyline28" d="m455 272.24-5-10-5 10"/>
  <path id="polyline30" d="m445 387.76 5 10 5-10"/>
 </g>
 <g id="g32" stroke="#000" stroke-width="2" fill="none" transform="translate(-1.647 -1)">
  <path id="line34" d="m394.47 190h41.056"/>
  <path id="polyline36" d="m402.24 185-10 5 10 5"/>
  <path id="polyline38" d="m427.76 195 10-5-10-5"/>
 </g>
 <g id="text40">
  <path id="path3045" style="" d="m417.59 171.68c-0.15949-0.0926-0.33441-0.15948-0.52475-0.20064-0.18522-0.0463-0.391-0.0695-0.61736-0.0695-0.80257 0-1.4199 0.26238-1.8521 0.78713-0.42701 0.51962-0.64051 1.2682-0.64051 2.2456v4.553h-1.4276v-8.643h1.4276v1.3428c0.29839-0.52475 0.68681-0.91317 1.1653-1.1653 0.47844-0.25723 1.0598-0.38584 1.744-0.38585 0.0977 0.00001 0.20578 0.008 0.32411 0.0232 0.11832 0.0103 0.24951 0.0283 0.39357 0.054l0.008 1.4585"/>
 </g>
 <g id="text44">
  <path id="path3048" style="" d="m458.87 302.02c0.35498-0.63793 0.77941-1.1087 1.2733-1.4122 0.49388-0.30352 1.0752-0.45529 1.744-0.4553 0.9003 0.00001 1.5948 0.3164 2.0836 0.94919 0.48873 0.62766 0.7331 1.5228 0.73311 2.6855v5.2167h-1.4276v-5.1704c-0.00002-0.82829-0.14664-1.4431-0.43987-1.8444-0.29326-0.40127-0.74084-0.60191-1.3428-0.60192-0.73569 0.00001-1.317 0.24438-1.744 0.73311-0.42701 0.48875-0.64052 1.155-0.64051 1.9987v4.8849h-1.4276v-5.1704c-0.00001-0.83343-0.14663-1.4482-0.43987-1.8444-0.29325-0.40127-0.74598-0.60191-1.3582-0.60192-0.7254 0.00001-1.3016 0.24695-1.7286 0.74083-0.42701 0.48875-0.64051 1.1524-0.64051 1.991v4.8849h-1.4276v-8.643h1.4276v1.3428c0.32411-0.5299 0.71253-0.92089 1.1653-1.173 0.45272-0.25208 0.99034-0.37812 1.6128-0.37813 0.62764 0.00001 1.1601 0.15949 1.5974 0.47845 0.44243 0.31898 0.76912 0.782 0.98005 1.3891"/>
 </g>
 <g id="text48">
  <path id="path3051" style="" d="m387.08 420.61v1.3428c-0.40129-0.20578-0.818-0.36012-1.2502-0.46302-0.43216-0.10289-0.87974-0.15434-1.3428-0.15434-0.70482 0-1.2347 0.10804-1.5897 0.32411-0.34984 0.21608-0.52476 0.5402-0.52475 0.97234-0.00001 0.32927 0.12604 0.58907 0.37813 0.77942 0.25209 0.18521 0.75883 0.3627 1.5202 0.53247l0.48617 0.10804c1.0084 0.21608 1.7234 0.52219 2.1453 0.91832 0.427 0.391 0.6405 0.9389 0.64051 1.6437-0.00001 0.80257-0.31897 1.4379-0.9569 1.9061-0.6328 0.46816-1.5048 0.70224-2.6161 0.70224-0.46302 0-0.94662-0.0463-1.4508-0.1389-0.49903-0.0875-1.0264-0.22122-1.582-0.40129v-1.4662c0.52475 0.27267 1.0418 0.47846 1.5511 0.61736 0.50932 0.13377 1.0135 0.20065 1.5125 0.20065 0.6688 0 1.1833-0.11319 1.5434-0.33955 0.36012-0.23151 0.54018-0.55562 0.54019-0.97234-0.00001-0.38585-0.13119-0.68167-0.39357-0.88746-0.25723-0.20578-0.82572-0.40385-1.7054-0.59421l-0.49389-0.11575c-0.87974-0.1852-1.5151-0.46816-1.9061-0.84887-0.39099-0.38584-0.58649-0.91317-0.58649-1.582 0-0.81285 0.2881-1.4405 0.86431-1.883 0.5762-0.44243 1.3942-0.66365 2.454-0.66366 0.52475 0.00001 1.0186 0.0386 1.4817 0.11575 0.46302 0.0772 0.89002 0.19294 1.281 0.34727"/>
  <path id="path3053" style="" d="m389.19 420.36h6.7446v1.2964l-5.3402 6.2122h5.3402v1.1344h-6.9376v-1.2964l5.3402-6.2122h-5.1472v-1.1344"/>
 </g>
 <g id="g52" stroke="#000" stroke-width="2" fill="none" transform="translate(-1.647 -1)">
  <path id="line54" d="m336 256 8 8"/>
  <path id="line56" d="m336 264 8-8"/>
 </g>
 <path id="line58" d="m384.35 185 8 8" stroke="#000" stroke-width="2" fill="none"/>
 <path id="line60" d="m384.35 193 8-8" stroke="#000" stroke-width="2" fill="none"/>
 <g id="g62" transform="translate(-1.647 -1)">
  <path id="polygon64" fill="#fff" d="m420 452-30-12-50 60 20 40 36-52 44 22z"/>
  <path id="polygon66" d="m420 452-30-12-50 60 20 40 36-52 44 22z" stroke="#0f0" stroke-width="4" fill="none"/>
 </g>
 <path id="line68" d="m334.35 495 8 8" stroke="#000" stroke-width="2" fill="none"/>
 <path id="line70" d="m334.35 503 8-8" stroke="#000" stroke-width="2" fill="none"/>
 <g id="g72" stroke="#000" stroke-width="2" fill="none" transform="translate(-1.647 -1)">
  <path id="line74" d="m340 500 47.137-56.564"/>
  <path id="polyline76" d="m386.01 452.6 2.561-10.883-10.243 4.481"/>
 </g>
 <g id="g78" stroke="#000" stroke-width="2" fill="none" transform="translate(-1.647 -1)">
  <path id="line80" d="m340 500 51.627-11.063"/>
  <path id="polyline82" d="m385.08 495.45 8.731-6.984-10.826-2.794"/>
 </g>
 <g id="g84" stroke="#000" stroke-width="2" fill="none" transform="translate(-1.647 -1)">
  <path id="line86" d="m340 500 18 36"/>
  <path id="polyline88" d="m350.06 531.29 8.94 6.71v-11.18"/>
 </g>
 <g id="g90" stroke="#000" stroke-width="2" fill="none" transform="translate(-1.647 -1)">
  <path id="line92" d="m340 500 95.55 9.555"/>
  <path id="polyline94" d="m427.33 513.76 10.448-3.98-9.453-5.971"/>
 </g>
 <g id="g96" stroke="#000" stroke-width="2" fill="none" transform="translate(-1.647 -1)">
  <path id="line98" d="m340 500 76.165-45.699"/>
  <path id="polyline100" d="m412.08 462.58 6.003-9.433-11.148 0.858"/>
 </g>
</svg>
