<?xml version="1.0" encoding="UTF-8" standalone="no"?>
<!-- Created with Inkscape (http://www.inkscape.org/) -->
<svg id="svg2" xmlns:rdf="http://www.w3.org/1999/02/22-rdf-syntax-ns#" xmlns="http://www.w3.org/2000/svg" height="266.69" width="529.62" version="1.1" xmlns:cc="http://creativecommons.org/ns#" xmlns:dc="http://purl.org/dc/elements/1.1/" viewBox="108 8 282.00001 134.53622">
 <metadata id="metadata156">
  <rdf:RDF>
   <cc:Work rdf:about="">
    <dc:format>image/svg+xml</dc:format>
    <dc:type rdf:resource="http://purl.org/dc/dcmitype/StillImage"/>
   </cc:Work>
  </rdf:RDF>
 </metadata>
 <g id="g4" transform="translate(-1 -4.7319)">
  <path id="path6" d="m130 20c20 0 20 10 30.264 10" stroke="#000" stroke-width="2" fill="none"/>
  <path id="polygon8" d="m160.26 30-2.5-5 10 5-10 5z"/>
  <path id="polygon10" d="m160.26 30-2.5-5 10 5-10 5z" stroke="#000" stroke-width="2" fill="none"/>
 </g>
 <g id="g12" transform="translate(-1 -4.7319)">
  <path id="rect14" fill="#7babe3" d="m250 10h40v20h-40z"/>
  <path id="rect16" d="m250 10h40v20h-40z" stroke="#000" stroke-width="2" fill="none"/>
 </g>
 <g id="g18" transform="translate(-1 -4.7319)">
  <path id="rect20" fill="#7babe3" d="m330 10h40v20h-40z"/>
  <path id="rect22" d="m330 10h40v20h-40z" stroke="#000" stroke-width="2" fill="none"/>
 </g>
 <g id="g24" transform="translate(-1 -4.7319)">
  <path id="rect26" fill="#7babe3" d="m170 10h40v20h-40z"/>
  <path id="rect28" d="m170 10h40v20h-40z" stroke="#000" stroke-width="2" fill="none"/>
 </g>
 <g id="g30" transform="translate(-1 -4.7319)">
  <path id="rect32" fill="#fdfd04" d="m110 10h20v20h-20z"/>
  <path id="rect34" d="m110 10h20v20h-20z" stroke="#000" stroke-width="2" fill="none"/>
 </g>
 <g id="g36" transform="translate(-1 -4.7319)">
  <path id="path38" d="m290 20c20 0 20 10 30.264 10" stroke="#000" stroke-width="2" fill="none"/>
  <path id="polygon40" d="m320.26 30-2.5-5 10 5-10 5z"/>
  <path id="polygon42" d="m320.26 30-2.5-5 10 5-10 5z" stroke="#000" stroke-width="2" fill="none"/>
 </g>
 <g id="g44" transform="translate(-1 -4.7319)">
  <path id="path46" d="m210 20c20 0 20 10 30.264 10" stroke="#000" stroke-width="2" fill="none"/>
  <path id="polygon48" d="m240.26 30-2.5-5 10 5-10 5z"/>
  <path id="polygon50" d="m240.26 30-2.5-5 10 5-10 5z" stroke="#000" stroke-width="2" fill="none"/>
 </g>
 <g id="g52" transform="translate(-1 -4.7319)">
  <path id="rect54" fill="#7babe3" d="m240 80h60v70h-60z"/>
  <path id="rect56" d="m240 80h60v70h-60z" stroke="#000" stroke-width="2" fill="none"/>
 </g>
 <g id="g58" transform="translate(-1 -4.7319)">
  <path id="rect60" fill="#7babe3" d="m330 80h60v70h-60z"/>
  <path id="rect62" d="m330 80h60v70h-60z" stroke="#000" stroke-width="2" fill="none"/>
 </g>
 <g id="g64" transform="translate(-1 -4.7319)">
  <path id="rect66" fill="#7babe3" d="m150 80h60v70h-60z"/>
  <path id="rect68" d="m150 80h60v70h-60z" stroke="#000" stroke-width="2" fill="none"/>
 </g>
 <g id="g70" transform="translate(-1 -4.7319)">
  <path id="rect72" fill="#7babe3" d="m170 30h40v20h-40z"/>
  <path id="rect74" d="m170 30h40v20h-40z" stroke="#000" stroke-width="2" fill="none"/>
 </g>
 <g id="g76" transform="translate(-1 -4.7319)">
  <path id="rect78" fill="#7babe3" d="m250 30h40v20h-40z"/>
  <path id="rect80" d="m250 30h40v20h-40z" stroke="#000" stroke-width="2" fill="none"/>
 </g>
 <g id="g82" transform="translate(-1 -4.7319)">
  <path id="rect84" fill="#7babe3" d="m330 30h40v20h-40z"/>
  <path id="rect86" d="m330 30h40v20h-40z" stroke="#000" stroke-width="2" fill="none"/>
 </g>
 <g id="text88">
  <path id="path3083" style="" d="m178.98 9.9681h1.1562v5.7438l3.4312-3.0188h1.4688l-3.7125 3.275 3.8688 3.725h-1.5l-3.5562-3.4188v3.4188h-1.1562v-9.725"/>
  <path id="path3085" style="" d="m188.7 13.499c-0.61667 0.000006-1.1042 0.24167-1.4625 0.725-0.35833 0.47917-0.5375 1.1375-0.5375 1.975s0.17709 1.4979 0.53125 1.9812c0.35834 0.47917 0.84792 0.71875 1.4688 0.71875 0.6125 0 1.0979-0.24167 1.4562-0.725 0.35833-0.48333 0.5375-1.1417 0.5375-1.975 0-0.82916-0.17917-1.4854-0.5375-1.9688-0.35833-0.48749-0.84375-0.73124-1.4562-0.73125m0-0.975c1 0.000007 1.7854 0.32501 2.3562 0.975 0.57083 0.65 0.85625 1.55 0.85625 2.7 0 1.1458-0.28542 2.0458-0.85625 2.7-0.57083 0.65-1.3562 0.975-2.3562 0.975-1.0042 0-1.7917-0.325-2.3625-0.975-0.56666-0.65417-0.85-1.5542-0.85-2.7 0-1.15 0.28334-2.05 0.85-2.7 0.57084-0.64999 1.3583-0.97499 2.3625-0.975"/>
  <path id="path3087" style="" d="m192.99 12.693h1.2188l2.1875 5.875 2.1875-5.875h1.2188l-2.625 7h-1.5625l-2.625-7"/>
 </g>
 <g id="text92">
  <path id="path3090" style="" d="m258.98 9.9681h1.1562v5.7438l3.4312-3.0188h1.4688l-3.7125 3.275 3.8688 3.725h-1.5l-3.5562-3.4188v3.4188h-1.1562v-9.725"/>
  <path id="path3092" style="" d="m268.7 13.499c-0.61667 0.000006-1.1042 0.24167-1.4625 0.725-0.35833 0.47917-0.5375 1.1375-0.5375 1.975s0.17709 1.4979 0.53125 1.9812c0.35834 0.47917 0.84792 0.71875 1.4688 0.71875 0.6125 0 1.0979-0.24167 1.4562-0.725 0.35833-0.48333 0.5375-1.1417 0.5375-1.975 0-0.82916-0.17917-1.4854-0.5375-1.9688-0.35833-0.48749-0.84375-0.73124-1.4562-0.73125m0-0.975c1 0.000007 1.7854 0.32501 2.3562 0.975 0.57083 0.65 0.85625 1.55 0.85625 2.7 0 1.1458-0.28542 2.0458-0.85625 2.7-0.57083 0.65-1.3562 0.975-2.3562 0.975-1.0042 0-1.7917-0.325-2.3625-0.975-0.56666-0.65417-0.85-1.5542-0.85-2.7 0-1.15 0.28334-2.05 0.85-2.7 0.57084-0.64999 1.3583-0.97499 2.3625-0.975"/>
  <path id="path3094" style="" d="m272.99 12.693h1.2188l2.1875 5.875 2.1875-5.875h1.2188l-2.625 7h-1.5625l-2.625-7"/>
 </g>
 <g id="text96">
  <path id="path3097" style="" d="m338.98 9.9681h1.1562v5.7438l3.4312-3.0188h1.4688l-3.7125 3.275 3.8688 3.725h-1.5l-3.5562-3.4188v3.4188h-1.1562v-9.725"/>
  <path id="path3099" style="" d="m348.7 13.499c-0.61667 0.000006-1.1042 0.24167-1.4625 0.725-0.35833 0.47917-0.5375 1.1375-0.5375 1.975s0.17709 1.4979 0.53125 1.9812c0.35834 0.47917 0.84792 0.71875 1.4688 0.71875 0.6125 0 1.0979-0.24167 1.4562-0.725 0.35833-0.48333 0.5375-1.1417 0.5375-1.975 0-0.82916-0.17917-1.4854-0.5375-1.9688-0.35833-0.48749-0.84375-0.73124-1.4562-0.73125m0-0.975c1 0.000007 1.7854 0.32501 2.3562 0.975 0.57083 0.65 0.85625 1.55 0.85625 2.7 0 1.1458-0.28542 2.0458-0.85625 2.7-0.57083 0.65-1.3562 0.975-2.3562 0.975-1.0042 0-1.7917-0.325-2.3625-0.975-0.56666-0.65417-0.85-1.5542-0.85-2.7 0-1.15 0.28334-2.05 0.85-2.7 0.57084-0.64999 1.3583-0.97499 2.3625-0.975"/>
  <path id="path3101" style="" d="m352.99 12.693h1.2188l2.1875 5.875 2.1875-5.875h1.2188l-2.625 7h-1.5625l-2.625-7"/>
 </g>
 <g id="text100">
  <path id="path3104" style="" d="m178.96 36.174c-0.92917 0.000003-1.5729 0.10625-1.9312 0.31875-0.35834 0.2125-0.5375 0.575-0.5375 1.0875 0 0.40834 0.13333 0.73333 0.4 0.975 0.27083 0.2375 0.6375 0.35625 1.1 0.35625 0.6375 0.000001 1.1479-0.225 1.5312-0.675 0.38749-0.45416 0.58124-1.0562 0.58125-1.8062v-0.25625h-1.1438m2.2938-0.475v3.9938h-1.15v-1.0625c-0.26251 0.425-0.58959 0.73958-0.98125 0.94375-0.39167 0.2-0.87084 0.3-1.4375 0.3-0.71667 0-1.2875-0.2-1.7125-0.6-0.42083-0.40417-0.63125-0.94375-0.63125-1.6188 0-0.7875 0.2625-1.3812 0.7875-1.7812 0.52916-0.4 1.3167-0.6 2.3625-0.6h1.6125v-0.1125c-0.00001-0.52916-0.17501-0.9375-0.525-1.225-0.34584-0.29166-0.83334-0.43749-1.4625-0.4375-0.4 0.000006-0.78959 0.04792-1.1688 0.14375-0.37917 0.09584-0.74375 0.23959-1.0938 0.43125v-1.0625c0.42083-0.16249 0.82916-0.28333 1.225-0.3625 0.39583-0.08333 0.78125-0.12499 1.1562-0.125 1.0125 0.000007 1.7687 0.26251 2.2688 0.7875 0.49999 0.52501 0.74999 1.3208 0.75 2.3875"/>
  <path id="path3106" style="" d="m188.24 33.756v-3.7875h1.15v9.725h-1.15v-1.05c-0.24167 0.41667-0.54792 0.72708-0.91875 0.93125-0.36667 0.2-0.80834 0.3-1.325 0.3-0.84584 0-1.5354-0.3375-2.0688-1.0125-0.52917-0.675-0.79375-1.5625-0.79375-2.6625s0.26458-1.9875 0.79375-2.6625c0.53333-0.67499 1.2229-1.0125 2.0688-1.0125 0.51666 0.000007 0.95833 0.10209 1.325 0.30625 0.37083 0.20001 0.67708 0.50834 0.91875 0.925m-3.9188 2.4438c0 0.84584 0.17291 1.5104 0.51875 1.9938 0.35 0.47917 0.82916 0.71875 1.4375 0.71875 0.60833 0.000001 1.0875-0.23958 1.4375-0.71875 0.34999-0.48333 0.52499-1.1479 0.525-1.9938-0.00001-0.84583-0.17501-1.5083-0.525-1.9875-0.35001-0.48333-0.82917-0.72499-1.4375-0.725-0.60834 0.000006-1.0875 0.24167-1.4375 0.725-0.34584 0.47917-0.51875 1.1417-0.51875 1.9875"/>
  <path id="path3108" style="" d="m194.94 36.174c-0.92917 0.000003-1.5729 0.10625-1.9312 0.31875-0.35834 0.2125-0.5375 0.575-0.5375 1.0875 0 0.40834 0.13333 0.73333 0.4 0.975 0.27083 0.2375 0.6375 0.35625 1.1 0.35625 0.6375 0.000001 1.1479-0.225 1.5312-0.675 0.38749-0.45416 0.58124-1.0562 0.58125-1.8062v-0.25625h-1.1438m2.2938-0.475v3.9938h-1.15v-1.0625c-0.26251 0.425-0.58959 0.73958-0.98125 0.94375-0.39167 0.2-0.87084 0.3-1.4375 0.3-0.71667 0-1.2875-0.2-1.7125-0.6-0.42083-0.40417-0.63125-0.94375-0.63125-1.6188 0-0.7875 0.2625-1.3812 0.7875-1.7812 0.52916-0.4 1.3167-0.6 2.3625-0.6h1.6125v-0.1125c-0.00001-0.52916-0.17501-0.9375-0.525-1.225-0.34584-0.29166-0.83334-0.43749-1.4625-0.4375-0.4 0.000006-0.78959 0.04792-1.1688 0.14375-0.37917 0.09584-0.74375 0.23959-1.0938 0.43125v-1.0625c0.42083-0.16249 0.82916-0.28333 1.225-0.3625 0.39583-0.08333 0.78125-0.12499 1.1562-0.125 1.0125 0.000007 1.7687 0.26251 2.2688 0.7875 0.49999 0.52501 0.74999 1.3208 0.75 2.3875"/>
  <path id="path3110" style="" d="m200.74 30.706v1.9875h2.3688v0.89375h-2.3688v3.8c0 0.57084 0.0771 0.9375 0.23125 1.1 0.15833 0.1625 0.47708 0.24375 0.95625 0.24375h1.1812v0.9625h-1.1812c-0.8875 0-1.5-0.16458-1.8375-0.49375-0.3375-0.33333-0.50625-0.9375-0.50625-1.8125v-3.8h-0.84375v-0.89375h0.84375v-1.9875h1.1562"/>
 </g>
 <g id="text104">
  <path id="path3113" style="" d="m258.96 36.174c-0.92917 0.000003-1.5729 0.10625-1.9312 0.31875-0.35834 0.2125-0.5375 0.575-0.5375 1.0875 0 0.40834 0.13333 0.73333 0.4 0.975 0.27083 0.2375 0.6375 0.35625 1.1 0.35625 0.6375 0.000001 1.1479-0.225 1.5312-0.675 0.38749-0.45416 0.58124-1.0562 0.58125-1.8062v-0.25625h-1.1438m2.2938-0.475v3.9938h-1.15v-1.0625c-0.26251 0.425-0.58959 0.73958-0.98125 0.94375-0.39167 0.2-0.87084 0.3-1.4375 0.3-0.71667 0-1.2875-0.2-1.7125-0.6-0.42083-0.40417-0.63125-0.94375-0.63125-1.6188 0-0.7875 0.2625-1.3812 0.7875-1.7812 0.52916-0.4 1.3167-0.6 2.3625-0.6h1.6125v-0.1125c-0.00001-0.52916-0.17501-0.9375-0.525-1.225-0.34584-0.29166-0.83334-0.43749-1.4625-0.4375-0.4 0.000006-0.78959 0.04792-1.1688 0.14375-0.37917 0.09584-0.74375 0.23959-1.0938 0.43125v-1.0625c0.42083-0.16249 0.82916-0.28333 1.225-0.3625 0.39583-0.08333 0.78125-0.12499 1.1562-0.125 1.0125 0.000007 1.7687 0.26251 2.2688 0.7875 0.49999 0.52501 0.74999 1.3208 0.75 2.3875"/>
  <path id="path3115" style="" d="m268.24 33.756v-3.7875h1.15v9.725h-1.15v-1.05c-0.24167 0.41667-0.54792 0.72708-0.91875 0.93125-0.36667 0.2-0.80834 0.3-1.325 0.3-0.84584 0-1.5354-0.3375-2.0688-1.0125-0.52917-0.675-0.79375-1.5625-0.79375-2.6625s0.26458-1.9875 0.79375-2.6625c0.53333-0.67499 1.2229-1.0125 2.0688-1.0125 0.51666 0.000007 0.95833 0.10209 1.325 0.30625 0.37083 0.20001 0.67708 0.50834 0.91875 0.925m-3.9188 2.4438c0 0.84584 0.17291 1.5104 0.51875 1.9938 0.35 0.47917 0.82916 0.71875 1.4375 0.71875 0.60833 0.000001 1.0875-0.23958 1.4375-0.71875 0.34999-0.48333 0.52499-1.1479 0.525-1.9938-0.00001-0.84583-0.17501-1.5083-0.525-1.9875-0.35001-0.48333-0.82917-0.72499-1.4375-0.725-0.60834 0.000006-1.0875 0.24167-1.4375 0.725-0.34584 0.47917-0.51875 1.1417-0.51875 1.9875"/>
  <path id="path3117" style="" d="m274.94 36.174c-0.92917 0.000003-1.5729 0.10625-1.9312 0.31875-0.35834 0.2125-0.5375 0.575-0.5375 1.0875 0 0.40834 0.13333 0.73333 0.4 0.975 0.27083 0.2375 0.6375 0.35625 1.1 0.35625 0.6375 0.000001 1.1479-0.225 1.5312-0.675 0.38749-0.45416 0.58124-1.0562 0.58125-1.8062v-0.25625h-1.1438m2.2938-0.475v3.9938h-1.15v-1.0625c-0.26251 0.425-0.58959 0.73958-0.98125 0.94375-0.39167 0.2-0.87084 0.3-1.4375 0.3-0.71667 0-1.2875-0.2-1.7125-0.6-0.42083-0.40417-0.63125-0.94375-0.63125-1.6188 0-0.7875 0.2625-1.3812 0.7875-1.7812 0.52916-0.4 1.3167-0.6 2.3625-0.6h1.6125v-0.1125c-0.00001-0.52916-0.17501-0.9375-0.525-1.225-0.34584-0.29166-0.83334-0.43749-1.4625-0.4375-0.4 0.000006-0.78959 0.04792-1.1688 0.14375-0.37917 0.09584-0.74375 0.23959-1.0938 0.43125v-1.0625c0.42083-0.16249 0.82916-0.28333 1.225-0.3625 0.39583-0.08333 0.78125-0.12499 1.1562-0.125 1.0125 0.000007 1.7687 0.26251 2.2688 0.7875 0.49999 0.52501 0.74999 1.3208 0.75 2.3875"/>
  <path id="path3119" style="" d="m280.74 30.706v1.9875h2.3688v0.89375h-2.3688v3.8c0 0.57084 0.0771 0.9375 0.23125 1.1 0.15833 0.1625 0.47708 0.24375 0.95625 0.24375h1.1812v0.9625h-1.1812c-0.8875 0-1.5-0.16458-1.8375-0.49375-0.3375-0.33333-0.50625-0.9375-0.50625-1.8125v-3.8h-0.84375v-0.89375h0.84375v-1.9875h1.1562"/>
 </g>
 <g id="text108">
  <path id="path3122" style="" d="m338.96 36.174c-0.92917 0.000003-1.5729 0.10625-1.9312 0.31875-0.35834 0.2125-0.5375 0.575-0.5375 1.0875 0 0.40834 0.13333 0.73333 0.4 0.975 0.27083 0.2375 0.6375 0.35625 1.1 0.35625 0.6375 0.000001 1.1479-0.225 1.5312-0.675 0.38749-0.45416 0.58124-1.0562 0.58125-1.8062v-0.25625h-1.1438m2.2938-0.475v3.9938h-1.15v-1.0625c-0.26251 0.425-0.58959 0.73958-0.98125 0.94375-0.39167 0.2-0.87084 0.3-1.4375 0.3-0.71667 0-1.2875-0.2-1.7125-0.6-0.42083-0.40417-0.63125-0.94375-0.63125-1.6188 0-0.7875 0.2625-1.3812 0.7875-1.7812 0.52916-0.4 1.3167-0.6 2.3625-0.6h1.6125v-0.1125c-0.00001-0.52916-0.17501-0.9375-0.525-1.225-0.34584-0.29166-0.83334-0.43749-1.4625-0.4375-0.4 0.000006-0.78959 0.04792-1.1688 0.14375-0.37917 0.09584-0.74375 0.23959-1.0938 0.43125v-1.0625c0.42083-0.16249 0.82916-0.28333 1.225-0.3625 0.39583-0.08333 0.78125-0.12499 1.1562-0.125 1.0125 0.000007 1.7687 0.26251 2.2688 0.7875 0.49999 0.52501 0.74999 1.3208 0.75 2.3875"/>
  <path id="path3124" style="" d="m348.24 33.756v-3.7875h1.15v9.725h-1.15v-1.05c-0.24167 0.41667-0.54792 0.72708-0.91875 0.93125-0.36667 0.2-0.80834 0.3-1.325 0.3-0.84584 0-1.5354-0.3375-2.0688-1.0125-0.52917-0.675-0.79375-1.5625-0.79375-2.6625s0.26458-1.9875 0.79375-2.6625c0.53333-0.67499 1.2229-1.0125 2.0688-1.0125 0.51666 0.000007 0.95833 0.10209 1.325 0.30625 0.37083 0.20001 0.67708 0.50834 0.91875 0.925m-3.9188 2.4438c0 0.84584 0.17291 1.5104 0.51875 1.9938 0.35 0.47917 0.82916 0.71875 1.4375 0.71875 0.60833 0.000001 1.0875-0.23958 1.4375-0.71875 0.34999-0.48333 0.52499-1.1479 0.525-1.9938-0.00001-0.84583-0.17501-1.5083-0.525-1.9875-0.35001-0.48333-0.82917-0.72499-1.4375-0.725-0.60834 0.000006-1.0875 0.24167-1.4375 0.725-0.34584 0.47917-0.51875 1.1417-0.51875 1.9875"/>
  <path id="path3126" style="" d="m354.94 36.174c-0.92917 0.000003-1.5729 0.10625-1.9312 0.31875-0.35834 0.2125-0.5375 0.575-0.5375 1.0875 0 0.40834 0.13333 0.73333 0.4 0.975 0.27083 0.2375 0.6375 0.35625 1.1 0.35625 0.6375 0.000001 1.1479-0.225 1.5312-0.675 0.38749-0.45416 0.58124-1.0562 0.58125-1.8062v-0.25625h-1.1438m2.2938-0.475v3.9938h-1.15v-1.0625c-0.26251 0.425-0.58959 0.73958-0.98125 0.94375-0.39167 0.2-0.87084 0.3-1.4375 0.3-0.71667 0-1.2875-0.2-1.7125-0.6-0.42083-0.40417-0.63125-0.94375-0.63125-1.6188 0-0.7875 0.2625-1.3812 0.7875-1.7812 0.52916-0.4 1.3167-0.6 2.3625-0.6h1.6125v-0.1125c-0.00001-0.52916-0.17501-0.9375-0.525-1.225-0.34584-0.29166-0.83334-0.43749-1.4625-0.4375-0.4 0.000006-0.78959 0.04792-1.1688 0.14375-0.37917 0.09584-0.74375 0.23959-1.0938 0.43125v-1.0625c0.42083-0.16249 0.82916-0.28333 1.225-0.3625 0.39583-0.08333 0.78125-0.12499 1.1562-0.125 1.0125 0.000007 1.7687 0.26251 2.2688 0.7875 0.49999 0.52501 0.74999 1.3208 0.75 2.3875"/>
  <path id="path3128" style="" d="m360.74 30.706v1.9875h2.3688v0.89375h-2.3688v3.8c0 0.57084 0.0771 0.9375 0.23125 1.1 0.15833 0.1625 0.47708 0.24375 0.95625 0.24375h1.1812v0.9625h-1.1812c-0.8875 0-1.5-0.16458-1.8375-0.49375-0.3375-0.33333-0.50625-0.9375-0.50625-1.8125v-3.8h-0.84375v-0.89375h0.84375v-1.9875h1.1562"/>
 </g>
 <path id="line112" d="m329 5.2681 40 20" stroke="#000" stroke-width="2" fill="none"/>
 <path id="line114" d="m329 25.268 40-20" stroke="#000" stroke-width="2" fill="none"/>
 <g id="text116">
  <path id="path3133" style="" d="m269 106.41-1.8124 4.9146h3.6314l-1.82-4.91m-0.75406-1.3163h1.5147l3.7637 9.8756h-1.3891l-0.89959-2.5334h-4.4516l-0.89959 2.5334h-1.4089l3.7703-9.8756"/>
 </g>
 <g id="text120">
  <path id="path3136" style="" d="m357.02 110.25v3.6182h2.1431c0.71879 0 1.2502-0.14773 1.5941-0.44318 0.34837-0.29986 0.52255-0.75627 0.52256-1.3692-0.00001-0.61736-0.17419-1.0716-0.52256-1.3626-0.34396-0.29545-0.87533-0.44317-1.5941-0.44318h-2.1431m0-4.0614v2.9766h1.9778c0.65264 0 1.1377-0.12126 1.4552-0.36381 0.32191-0.24693 0.48286-0.62176 0.48287-1.1245-0.00001-0.49829-0.16096-0.87091-0.48287-1.1179-0.3175-0.24694-0.80257-0.37041-1.4552-0.37042h-1.9778m-1.3361-1.098h3.4131c1.0186 0.00001 1.8036 0.21168 2.3548 0.63501 0.55121 0.42334 0.82681 1.0253 0.82682 1.8058-0.00001 0.60414-0.14112 1.0848-0.42333 1.442-0.28223 0.3572-0.69675 0.57989-1.2436 0.66808 0.65705 0.14112 1.1664 0.43657 1.528 0.88636 0.366 0.44538 0.54901 1.0032 0.54902 1.6735-0.00001 0.88195-0.29987 1.5632-0.89959 2.0439-0.59973 0.48066-1.453 0.72099-2.5598 0.72099h-3.5454v-9.8756"/>
 </g>
 <g id="text124">
  <path id="path3139" style="" d="m182.99 105.85v1.4089c-0.4498-0.41891-0.93046-0.732-1.442-0.93927-0.50713-0.20725-1.0473-0.31088-1.6206-0.31089-1.1289 0.00001-1.9932 0.34618-2.5929 1.0385-0.59973 0.68792-0.89959 1.6845-0.89958 2.9898-0.00001 1.3009 0.29985 2.2975 0.89958 2.9898 0.59972 0.68792 1.464 1.0319 2.5929 1.0319 0.57326 0 1.1134-0.10363 1.6206-0.31088 0.51152-0.20726 0.99218-0.52035 1.442-0.93928v1.3957c-0.46744 0.3175-0.96353 0.55563-1.4883 0.71438-0.52036 0.15875-1.0716 0.23812-1.6536 0.23812-1.4949 0-2.6723-0.4564-3.5322-1.3692-0.8599-0.91722-1.2898-2.1674-1.2898-3.7505 0-1.5875 0.42994-2.8376 1.2898-3.7505 0.8599-0.91722 2.0373-1.3758 3.5322-1.3758 0.5909 0.00001 1.1465 0.0794 1.6669 0.23813 0.52475 0.15435 1.0164 0.38806 1.475 0.70114"/>
 </g>
 <g id="g128" transform="translate(-1 -4.7319)">
  <path id="path130" d="m190 50c20 20 60 10 73.116 23.116" stroke="#000" stroke-width="2" fill="none"/>
  <path id="polygon132" d="m263.12 73.116 1.767-5.3033 3.536 10.607-10.607-3.5356z"/>
  <path id="polygon134" d="m263.12 73.116 1.767-5.3033 3.536 10.607-10.607-3.5356z" stroke="#000" stroke-width="2" fill="none"/>
 </g>
 <g id="g136" transform="translate(-1 -4.7319)">
  <path id="path138" d="m270 50c20 20 70 10 83.116 23.116" stroke="#000" stroke-width="2" fill="none"/>
  <path id="polygon140" d="m353.12 73.116 1.767-5.3033 3.536 10.607-10.607-3.5356z"/>
  <path id="polygon142" d="m353.12 73.116 1.767-5.3033 3.536 10.607-10.607-3.5356z" stroke="#000" stroke-width="2" fill="none"/>
 </g>
 <g id="g144" transform="translate(-1 -4.7319)">
  <path id="path146" d="m350 50c-20 20-150 10-163.12 23.116" stroke="#000" stroke-width="2" fill="none"/>
  <path id="polygon148" d="m186.88 73.116 5.304 1.7677-10.607 3.5356 3.536-10.607z"/>
  <path id="polygon150" d="m186.88 73.116 5.304 1.7677-10.607 3.5356 3.536-10.607z" stroke="#000" stroke-width="2" fill="none"/>
 </g>
</svg>
