<?xml version="1.0" encoding="UTF-8" standalone="no"?>
<!-- Created with Inkscape (http://www.inkscape.org/) -->
<svg id="svg2" xmlns:rdf="http://www.w3.org/1999/02/22-rdf-syntax-ns#" xmlns="http://www.w3.org/2000/svg" height="266.69" width="529.62" version="1.1" xmlns:cc="http://creativecommons.org/ns#" xmlns:dc="http://purl.org/dc/elements/1.1/" viewBox="108 8 282.00001 134.53622">
 <metadata id="metadata144">
  <rdf:RDF>
   <cc:Work rdf:about="">
    <dc:format>image/svg+xml</dc:format>
    <dc:type rdf:resource="http://purl.org/dc/dcmitype/StillImage"/>
   </cc:Work>
  </rdf:RDF>
 </metadata>
 <g id="g4" transform="translate(-1 -4.7319)">
  <path id="path6" d="m130 20c20 0 20 10 30.264 10" stroke="#000" stroke-width="2" fill="none"/>
  <path id="polygon8" d="m160.26 30-2.5-5 10 5-10 5z"/>
  <path id="polygon10" d="m160.26 30-2.5-5 10 5-10 5z" stroke="#000" stroke-width="2" fill="none"/>
 </g>
 <g id="g12" transform="translate(-1 -4.7319)">
  <path id="rect14" fill="#7babe3" d="m250 10h40v20h-40z"/>
  <path id="rect16" d="m250 10h40v20h-40z" stroke="#000" stroke-width="2" fill="none"/>
 </g>
 <g id="g18" transform="translate(-1 -4.7319)">
  <path id="rect20" fill="#7babe3" d="m330 10h40v20h-40z"/>
  <path id="rect22" d="m330 10h40v20h-40z" stroke="#000" stroke-width="2" fill="none"/>
 </g>
 <g id="g24" transform="translate(-1 -4.7319)">
  <path id="rect26" fill="#7babe3" d="m170 10h40v20h-40z"/>
  <path id="rect28" d="m170 10h40v20h-40z" stroke="#000" stroke-width="2" fill="none"/>
 </g>
 <g id="g30" transform="translate(-1 -4.7319)">
  <path id="rect32" fill="#fdfd04" d="m110 10h20v20h-20z"/>
  <path id="rect34" d="m110 10h20v20h-20z" stroke="#000" stroke-width="2" fill="none"/>
 </g>
 <g id="g36" transform="translate(-1 -4.7319)">
  <path id="path38" d="m290 20c20 0 20 10 30.264 10" stroke="#000" stroke-width="2" fill="none"/>
  <path id="polygon40" d="m320.26 30-2.5-5 10 5-10 5z"/>
  <path id="polygon42" d="m320.26 30-2.5-5 10 5-10 5z" stroke="#000" stroke-width="2" fill="none"/>
 </g>
 <g id="g44" transform="translate(-1 -4.7319)">
  <path id="path46" d="m210 20c20 0 20 10 30.264 10" stroke="#000" stroke-width="2" fill="none"/>
  <path id="polygon48" d="m240.26 30-2.5-5 10 5-10 5z"/>
  <path id="polygon50" d="m240.26 30-2.5-5 10 5-10 5z" stroke="#000" stroke-width="2" fill="none"/>
 </g>
 <g id="g52" transform="translate(-1 -4.7319)">
  <path id="rect54" fill="#7babe3" d="m240 80h60v70h-60z"/>
  <path id="rect56" d="m240 80h60v70h-60z" stroke="#000" stroke-width="2" fill="none"/>
 </g>
 <g id="g58" transform="translate(-1 -4.7319)">
  <path id="rect60" fill="#7babe3" d="m330 80h60v70h-60z"/>
  <path id="rect62" d="m330 80h60v70h-60z" stroke="#000" stroke-width="2" fill="none"/>
 </g>
 <g id="g64" transform="translate(-1 -4.7319)">
  <path id="rect66" fill="#7babe3" d="m150 80h60v70h-60z"/>
  <path id="rect68" d="m150 80h60v70h-60z" stroke="#000" stroke-width="2" fill="none"/>
 </g>
 <g id="g70" transform="translate(-1 -4.7319)">
  <path id="rect72" fill="#7babe3" d="m170 30h40v20h-40z"/>
  <path id="rect74" d="m170 30h40v20h-40z" stroke="#000" stroke-width="2" fill="none"/>
 </g>
 <g id="g76" transform="translate(-1 -4.7319)">
  <path id="rect78" fill="#7babe3" d="m250 30h40v20h-40z"/>
  <path id="rect80" d="m250 30h40v20h-40z" stroke="#000" stroke-width="2" fill="none"/>
 </g>
 <g id="g82" transform="translate(-1 -4.7319)">
  <path id="rect84" fill="#7babe3" d="m330 30h40v20h-40z"/>
  <path id="rect86" d="m330 30h40v20h-40z" stroke="#000" stroke-width="2" fill="none"/>
 </g>
 <g id="text88">
  <path id="path3077" style="" d="m178.98 9.9681h1.1562v5.7438l3.4312-3.0188h1.4688l-3.7125 3.275 3.8688 3.725h-1.5l-3.5562-3.4188v3.4188h-1.1562v-9.725"/>
  <path id="path3079" style="" d="m188.7 13.499c-0.61667 0.000006-1.1042 0.24167-1.4625 0.725-0.35833 0.47917-0.5375 1.1375-0.5375 1.975s0.17709 1.4979 0.53125 1.9812c0.35834 0.47917 0.84792 0.71875 1.4688 0.71875 0.6125 0 1.0979-0.24167 1.4562-0.725 0.35833-0.48333 0.5375-1.1417 0.5375-1.975 0-0.82916-0.17917-1.4854-0.5375-1.9688-0.35833-0.48749-0.84375-0.73124-1.4562-0.73125m0-0.975c1 0.000007 1.7854 0.32501 2.3562 0.975 0.57083 0.65 0.85625 1.55 0.85625 2.7 0 1.1458-0.28542 2.0458-0.85625 2.7-0.57083 0.65-1.3562 0.975-2.3562 0.975-1.0042 0-1.7917-0.325-2.3625-0.975-0.56666-0.65417-0.85-1.5542-0.85-2.7 0-1.15 0.28334-2.05 0.85-2.7 0.57084-0.64999 1.3583-0.97499 2.3625-0.975"/>
  <path id="path3081" style="" d="m192.99 12.693h1.2188l2.1875 5.875 2.1875-5.875h1.2188l-2.625 7h-1.5625l-2.625-7"/>
 </g>
 <g id="text92">
  <path id="path3084" style="" d="m258.98 9.9681h1.1562v5.7438l3.4312-3.0188h1.4688l-3.7125 3.275 3.8688 3.725h-1.5l-3.5562-3.4188v3.4188h-1.1562v-9.725"/>
  <path id="path3086" style="" d="m268.7 13.499c-0.61667 0.000006-1.1042 0.24167-1.4625 0.725-0.35833 0.47917-0.5375 1.1375-0.5375 1.975s0.17709 1.4979 0.53125 1.9812c0.35834 0.47917 0.84792 0.71875 1.4688 0.71875 0.6125 0 1.0979-0.24167 1.4562-0.725 0.35833-0.48333 0.5375-1.1417 0.5375-1.975 0-0.82916-0.17917-1.4854-0.5375-1.9688-0.35833-0.48749-0.84375-0.73124-1.4562-0.73125m0-0.975c1 0.000007 1.7854 0.32501 2.3562 0.975 0.57083 0.65 0.85625 1.55 0.85625 2.7 0 1.1458-0.28542 2.0458-0.85625 2.7-0.57083 0.65-1.3562 0.975-2.3562 0.975-1.0042 0-1.7917-0.325-2.3625-0.975-0.56666-0.65417-0.85-1.5542-0.85-2.7 0-1.15 0.28334-2.05 0.85-2.7 0.57084-0.64999 1.3583-0.97499 2.3625-0.975"/>
  <path id="path3088" style="" d="m272.99 12.693h1.2188l2.1875 5.875 2.1875-5.875h1.2188l-2.625 7h-1.5625l-2.625-7"/>
 </g>
 <g id="text96">
  <path id="path3091" style="" d="m338.98 9.9681h1.1562v5.7438l3.4312-3.0188h1.4688l-3.7125 3.275 3.8688 3.725h-1.5l-3.5562-3.4188v3.4188h-1.1562v-9.725"/>
  <path id="path3093" style="" d="m348.7 13.499c-0.61667 0.000006-1.1042 0.24167-1.4625 0.725-0.35833 0.47917-0.5375 1.1375-0.5375 1.975s0.17709 1.4979 0.53125 1.9812c0.35834 0.47917 0.84792 0.71875 1.4688 0.71875 0.6125 0 1.0979-0.24167 1.4562-0.725 0.35833-0.48333 0.5375-1.1417 0.5375-1.975 0-0.82916-0.17917-1.4854-0.5375-1.9688-0.35833-0.48749-0.84375-0.73124-1.4562-0.73125m0-0.975c1 0.000007 1.7854 0.32501 2.3562 0.975 0.57083 0.65 0.85625 1.55 0.85625 2.7 0 1.1458-0.28542 2.0458-0.85625 2.7-0.57083 0.65-1.3562 0.975-2.3562 0.975-1.0042 0-1.7917-0.325-2.3625-0.975-0.56666-0.65417-0.85-1.5542-0.85-2.7 0-1.15 0.28334-2.05 0.85-2.7 0.57084-0.64999 1.3583-0.97499 2.3625-0.975"/>
  <path id="path3095" style="" d="m352.99 12.693h1.2188l2.1875 5.875 2.1875-5.875h1.2188l-2.625 7h-1.5625l-2.625-7"/>
 </g>
 <g id="text100">
  <path id="path3098" style="" d="m178.96 36.174c-0.92917 0.000003-1.5729 0.10625-1.9312 0.31875-0.35834 0.2125-0.5375 0.575-0.5375 1.0875 0 0.40834 0.13333 0.73333 0.4 0.975 0.27083 0.2375 0.6375 0.35625 1.1 0.35625 0.6375 0.000001 1.1479-0.225 1.5312-0.675 0.38749-0.45416 0.58124-1.0562 0.58125-1.8062v-0.25625h-1.1438m2.2938-0.475v3.9938h-1.15v-1.0625c-0.26251 0.425-0.58959 0.73958-0.98125 0.94375-0.39167 0.2-0.87084 0.3-1.4375 0.3-0.71667 0-1.2875-0.2-1.7125-0.6-0.42083-0.40417-0.63125-0.94375-0.63125-1.6188 0-0.7875 0.2625-1.3812 0.7875-1.7812 0.52916-0.4 1.3167-0.6 2.3625-0.6h1.6125v-0.1125c-0.00001-0.52916-0.17501-0.9375-0.525-1.225-0.34584-0.29166-0.83334-0.43749-1.4625-0.4375-0.4 0.000006-0.78959 0.04792-1.1688 0.14375-0.37917 0.09584-0.74375 0.23959-1.0938 0.43125v-1.0625c0.42083-0.16249 0.82916-0.28333 1.225-0.3625 0.39583-0.08333 0.78125-0.12499 1.1562-0.125 1.0125 0.000007 1.7687 0.26251 2.2688 0.7875 0.49999 0.52501 0.74999 1.3208 0.75 2.3875"/>
  <path id="path3100" style="" d="m188.24 33.756v-3.7875h1.15v9.725h-1.15v-1.05c-0.24167 0.41667-0.54792 0.72708-0.91875 0.93125-0.36667 0.2-0.80834 0.3-1.325 0.3-0.84584 0-1.5354-0.3375-2.0688-1.0125-0.52917-0.675-0.79375-1.5625-0.79375-2.6625s0.26458-1.9875 0.79375-2.6625c0.53333-0.67499 1.2229-1.0125 2.0688-1.0125 0.51666 0.000007 0.95833 0.10209 1.325 0.30625 0.37083 0.20001 0.67708 0.50834 0.91875 0.925m-3.9188 2.4438c0 0.84584 0.17291 1.5104 0.51875 1.9938 0.35 0.47917 0.82916 0.71875 1.4375 0.71875 0.60833 0.000001 1.0875-0.23958 1.4375-0.71875 0.34999-0.48333 0.52499-1.1479 0.525-1.9938-0.00001-0.84583-0.17501-1.5083-0.525-1.9875-0.35001-0.48333-0.82917-0.72499-1.4375-0.725-0.60834 0.000006-1.0875 0.24167-1.4375 0.725-0.34584 0.47917-0.51875 1.1417-0.51875 1.9875"/>
  <path id="path3102" style="" d="m194.94 36.174c-0.92917 0.000003-1.5729 0.10625-1.9312 0.31875-0.35834 0.2125-0.5375 0.575-0.5375 1.0875 0 0.40834 0.13333 0.73333 0.4 0.975 0.27083 0.2375 0.6375 0.35625 1.1 0.35625 0.6375 0.000001 1.1479-0.225 1.5312-0.675 0.38749-0.45416 0.58124-1.0562 0.58125-1.8062v-0.25625h-1.1438m2.2938-0.475v3.9938h-1.15v-1.0625c-0.26251 0.425-0.58959 0.73958-0.98125 0.94375-0.39167 0.2-0.87084 0.3-1.4375 0.3-0.71667 0-1.2875-0.2-1.7125-0.6-0.42083-0.40417-0.63125-0.94375-0.63125-1.6188 0-0.7875 0.2625-1.3812 0.7875-1.7812 0.52916-0.4 1.3167-0.6 2.3625-0.6h1.6125v-0.1125c-0.00001-0.52916-0.17501-0.9375-0.525-1.225-0.34584-0.29166-0.83334-0.43749-1.4625-0.4375-0.4 0.000006-0.78959 0.04792-1.1688 0.14375-0.37917 0.09584-0.74375 0.23959-1.0938 0.43125v-1.0625c0.42083-0.16249 0.82916-0.28333 1.225-0.3625 0.39583-0.08333 0.78125-0.12499 1.1562-0.125 1.0125 0.000007 1.7687 0.26251 2.2688 0.7875 0.49999 0.52501 0.74999 1.3208 0.75 2.3875"/>
  <path id="path3104" style="" d="m200.74 30.706v1.9875h2.3688v0.89375h-2.3688v3.8c0 0.57084 0.0771 0.9375 0.23125 1.1 0.15833 0.1625 0.47708 0.24375 0.95625 0.24375h1.1812v0.9625h-1.1812c-0.8875 0-1.5-0.16458-1.8375-0.49375-0.3375-0.33333-0.50625-0.9375-0.50625-1.8125v-3.8h-0.84375v-0.89375h0.84375v-1.9875h1.1562"/>
 </g>
 <g id="text104">
  <path id="path3107" style="" d="m258.96 36.174c-0.92917 0.000003-1.5729 0.10625-1.9312 0.31875-0.35834 0.2125-0.5375 0.575-0.5375 1.0875 0 0.40834 0.13333 0.73333 0.4 0.975 0.27083 0.2375 0.6375 0.35625 1.1 0.35625 0.6375 0.000001 1.1479-0.225 1.5312-0.675 0.38749-0.45416 0.58124-1.0562 0.58125-1.8062v-0.25625h-1.1438m2.2938-0.475v3.9938h-1.15v-1.0625c-0.26251 0.425-0.58959 0.73958-0.98125 0.94375-0.39167 0.2-0.87084 0.3-1.4375 0.3-0.71667 0-1.2875-0.2-1.7125-0.6-0.42083-0.40417-0.63125-0.94375-0.63125-1.6188 0-0.7875 0.2625-1.3812 0.7875-1.7812 0.52916-0.4 1.3167-0.6 2.3625-0.6h1.6125v-0.1125c-0.00001-0.52916-0.17501-0.9375-0.525-1.225-0.34584-0.29166-0.83334-0.43749-1.4625-0.4375-0.4 0.000006-0.78959 0.04792-1.1688 0.14375-0.37917 0.09584-0.74375 0.23959-1.0938 0.43125v-1.0625c0.42083-0.16249 0.82916-0.28333 1.225-0.3625 0.39583-0.08333 0.78125-0.12499 1.1562-0.125 1.0125 0.000007 1.7687 0.26251 2.2688 0.7875 0.49999 0.52501 0.74999 1.3208 0.75 2.3875"/>
  <path id="path3109" style="" d="m268.24 33.756v-3.7875h1.15v9.725h-1.15v-1.05c-0.24167 0.41667-0.54792 0.72708-0.91875 0.93125-0.36667 0.2-0.80834 0.3-1.325 0.3-0.84584 0-1.5354-0.3375-2.0688-1.0125-0.52917-0.675-0.79375-1.5625-0.79375-2.6625s0.26458-1.9875 0.79375-2.6625c0.53333-0.67499 1.2229-1.0125 2.0688-1.0125 0.51666 0.000007 0.95833 0.10209 1.325 0.30625 0.37083 0.20001 0.67708 0.50834 0.91875 0.925m-3.9188 2.4438c0 0.84584 0.17291 1.5104 0.51875 1.9938 0.35 0.47917 0.82916 0.71875 1.4375 0.71875 0.60833 0.000001 1.0875-0.23958 1.4375-0.71875 0.34999-0.48333 0.52499-1.1479 0.525-1.9938-0.00001-0.84583-0.17501-1.5083-0.525-1.9875-0.35001-0.48333-0.82917-0.72499-1.4375-0.725-0.60834 0.000006-1.0875 0.24167-1.4375 0.725-0.34584 0.47917-0.51875 1.1417-0.51875 1.9875"/>
  <path id="path3111" style="" d="m274.94 36.174c-0.92917 0.000003-1.5729 0.10625-1.9312 0.31875-0.35834 0.2125-0.5375 0.575-0.5375 1.0875 0 0.40834 0.13333 0.73333 0.4 0.975 0.27083 0.2375 0.6375 0.35625 1.1 0.35625 0.6375 0.000001 1.1479-0.225 1.5312-0.675 0.38749-0.45416 0.58124-1.0562 0.58125-1.8062v-0.25625h-1.1438m2.2938-0.475v3.9938h-1.15v-1.0625c-0.26251 0.425-0.58959 0.73958-0.98125 0.94375-0.39167 0.2-0.87084 0.3-1.4375 0.3-0.71667 0-1.2875-0.2-1.7125-0.6-0.42083-0.40417-0.63125-0.94375-0.63125-1.6188 0-0.7875 0.2625-1.3812 0.7875-1.7812 0.52916-0.4 1.3167-0.6 2.3625-0.6h1.6125v-0.1125c-0.00001-0.52916-0.17501-0.9375-0.525-1.225-0.34584-0.29166-0.83334-0.43749-1.4625-0.4375-0.4 0.000006-0.78959 0.04792-1.1688 0.14375-0.37917 0.09584-0.74375 0.23959-1.0938 0.43125v-1.0625c0.42083-0.16249 0.82916-0.28333 1.225-0.3625 0.39583-0.08333 0.78125-0.12499 1.1562-0.125 1.0125 0.000007 1.7687 0.26251 2.2688 0.7875 0.49999 0.52501 0.74999 1.3208 0.75 2.3875"/>
  <path id="path3113" style="" d="m280.74 30.706v1.9875h2.3688v0.89375h-2.3688v3.8c0 0.57084 0.0771 0.9375 0.23125 1.1 0.15833 0.1625 0.47708 0.24375 0.95625 0.24375h1.1812v0.9625h-1.1812c-0.8875 0-1.5-0.16458-1.8375-0.49375-0.3375-0.33333-0.50625-0.9375-0.50625-1.8125v-3.8h-0.84375v-0.89375h0.84375v-1.9875h1.1562"/>
 </g>
 <g id="text108">
  <path id="path3116" style="" d="m338.96 36.174c-0.92917 0.000003-1.5729 0.10625-1.9312 0.31875-0.35834 0.2125-0.5375 0.575-0.5375 1.0875 0 0.40834 0.13333 0.73333 0.4 0.975 0.27083 0.2375 0.6375 0.35625 1.1 0.35625 0.6375 0.000001 1.1479-0.225 1.5312-0.675 0.38749-0.45416 0.58124-1.0562 0.58125-1.8062v-0.25625h-1.1438m2.2938-0.475v3.9938h-1.15v-1.0625c-0.26251 0.425-0.58959 0.73958-0.98125 0.94375-0.39167 0.2-0.87084 0.3-1.4375 0.3-0.71667 0-1.2875-0.2-1.7125-0.6-0.42083-0.40417-0.63125-0.94375-0.63125-1.6188 0-0.7875 0.2625-1.3812 0.7875-1.7812 0.52916-0.4 1.3167-0.6 2.3625-0.6h1.6125v-0.1125c-0.00001-0.52916-0.17501-0.9375-0.525-1.225-0.34584-0.29166-0.83334-0.43749-1.4625-0.4375-0.4 0.000006-0.78959 0.04792-1.1688 0.14375-0.37917 0.09584-0.74375 0.23959-1.0938 0.43125v-1.0625c0.42083-0.16249 0.82916-0.28333 1.225-0.3625 0.39583-0.08333 0.78125-0.12499 1.1562-0.125 1.0125 0.000007 1.7687 0.26251 2.2688 0.7875 0.49999 0.52501 0.74999 1.3208 0.75 2.3875"/>
  <path id="path3118" style="" d="m348.24 33.756v-3.7875h1.15v9.725h-1.15v-1.05c-0.24167 0.41667-0.54792 0.72708-0.91875 0.93125-0.36667 0.2-0.80834 0.3-1.325 0.3-0.84584 0-1.5354-0.3375-2.0688-1.0125-0.52917-0.675-0.79375-1.5625-0.79375-2.6625s0.26458-1.9875 0.79375-2.6625c0.53333-0.67499 1.2229-1.0125 2.0688-1.0125 0.51666 0.000007 0.95833 0.10209 1.325 0.30625 0.37083 0.20001 0.67708 0.50834 0.91875 0.925m-3.9188 2.4438c0 0.84584 0.17291 1.5104 0.51875 1.9938 0.35 0.47917 0.82916 0.71875 1.4375 0.71875 0.60833 0.000001 1.0875-0.23958 1.4375-0.71875 0.34999-0.48333 0.52499-1.1479 0.525-1.9938-0.00001-0.84583-0.17501-1.5083-0.525-1.9875-0.35001-0.48333-0.82917-0.72499-1.4375-0.725-0.60834 0.000006-1.0875 0.24167-1.4375 0.725-0.34584 0.47917-0.51875 1.1417-0.51875 1.9875"/>
  <path id="path3120" style="" d="m354.94 36.174c-0.92917 0.000003-1.5729 0.10625-1.9312 0.31875-0.35834 0.2125-0.5375 0.575-0.5375 1.0875 0 0.40834 0.13333 0.73333 0.4 0.975 0.27083 0.2375 0.6375 0.35625 1.1 0.35625 0.6375 0.000001 1.1479-0.225 1.5312-0.675 0.38749-0.45416 0.58124-1.0562 0.58125-1.8062v-0.25625h-1.1438m2.2938-0.475v3.9938h-1.15v-1.0625c-0.26251 0.425-0.58959 0.73958-0.98125 0.94375-0.39167 0.2-0.87084 0.3-1.4375 0.3-0.71667 0-1.2875-0.2-1.7125-0.6-0.42083-0.40417-0.63125-0.94375-0.63125-1.6188 0-0.7875 0.2625-1.3812 0.7875-1.7812 0.52916-0.4 1.3167-0.6 2.3625-0.6h1.6125v-0.1125c-0.00001-0.52916-0.17501-0.9375-0.525-1.225-0.34584-0.29166-0.83334-0.43749-1.4625-0.4375-0.4 0.000006-0.78959 0.04792-1.1688 0.14375-0.37917 0.09584-0.74375 0.23959-1.0938 0.43125v-1.0625c0.42083-0.16249 0.82916-0.28333 1.225-0.3625 0.39583-0.08333 0.78125-0.12499 1.1562-0.125 1.0125 0.000007 1.7687 0.26251 2.2688 0.7875 0.49999 0.52501 0.74999 1.3208 0.75 2.3875"/>
  <path id="path3122" style="" d="m360.74 30.706v1.9875h2.3688v0.89375h-2.3688v3.8c0 0.57084 0.0771 0.9375 0.23125 1.1 0.15833 0.1625 0.47708 0.24375 0.95625 0.24375h1.1812v0.9625h-1.1812c-0.8875 0-1.5-0.16458-1.8375-0.49375-0.3375-0.33333-0.50625-0.9375-0.50625-1.8125v-3.8h-0.84375v-0.89375h0.84375v-1.9875h1.1562"/>
 </g>
 <g id="g112" transform="translate(-1 -4.7319)">
  <path id="line114" d="m190 50-6.921 20.764" stroke="#000" stroke-width="2" fill="none"/>
  <path id="polygon116" d="m183.08 70.764 5.534-0.7906-7.906 7.9057-1.581-11.068z"/>
  <path id="polygon118" d="m183.08 70.764 5.534-0.7906-7.906 7.9057-1.581-11.068z" stroke="#000" stroke-width="2" fill="none"/>
 </g>
 <g id="g120" transform="translate(-1 -4.7319)">
  <path id="line122" d="m270 50v20.264" stroke="#000" stroke-width="2" fill="none"/>
  <path id="polygon124" d="m270 70.264 5-2.5-5 10-5-10z"/>
  <path id="polygon126" d="m270 70.264 5-2.5-5 10-5-10z" stroke="#000" stroke-width="2" fill="none"/>
 </g>
 <g id="g128" transform="translate(-1 -4.7319)">
  <path id="line130" d="m350 50 6.921 20.764" stroke="#000" stroke-width="2" fill="none"/>
  <path id="polygon132" d="m356.92 70.764 3.953-3.9529-1.581 11.068-7.906-7.9057z"/>
  <path id="polygon134" d="m356.92 70.764 3.953-3.9529-1.581 11.068-7.906-7.9057z" stroke="#000" stroke-width="2" fill="none"/>
 </g>
 <path id="line136" d="m329 5.2681 40 20" stroke="#000" stroke-width="2" fill="none"/>
 <path id="line138" d="m329 25.268 40-20" stroke="#000" stroke-width="2" fill="none"/>
</svg>
