<?xml version="1.0" encoding="UTF-8" standalone="no"?>
<!-- Created with Inkscape (http://www.inkscape.org/) -->
<svg id="svg2" xmlns:rdf="http://www.w3.org/1999/02/22-rdf-syntax-ns#" xmlns="http://www.w3.org/2000/svg" height="379.37" width="529.62" version="1.1" xmlns:cc="http://creativecommons.org/ns#" xmlns:dc="http://purl.org/dc/elements/1.1/" viewBox="98 98 282.00001 197.58752">
 <metadata id="metadata108">
  <rdf:RDF>
   <cc:Work rdf:about="">
    <dc:format>image/svg+xml</dc:format>
    <dc:type rdf:resource="http://purl.org/dc/dcmitype/StillImage"/>
   </cc:Work>
  </rdf:RDF>
 </metadata>
 <g id="g4" transform="translate(-1 -3.2062)">
  <path id="rect6" fill="#fdfd04" d="m100 100h80v20h-80z"/>
  <path id="rect8" d="m100 100h80v20h-80z" stroke="#000" stroke-width="2" fill="none"/>
 </g>
 <g id="text10">
  <path id="path3035" style="" d="m126.35 101.98v2.1034h2.5069v0.94589h-2.5069v4.0217c0 0.60414 0.0816 0.9922 0.24474 1.1642 0.16757 0.17198 0.50491 0.25797 1.012 0.25797h1.2502v1.0186h-1.2502c-0.93928 0-1.5875-0.17418-1.9447-0.52255-0.35719-0.35278-0.53578-0.99219-0.53578-1.9182v-4.0217h-0.89297v-0.94589h0.89297v-2.1034h1.2237"/>
  <path id="path3037" style="" d="m133.54 112.18c-0.34397 0.88194-0.67911 1.4574-1.0054 1.7264-0.32633 0.26899-0.76289 0.40349-1.3097 0.40349h-0.97235v-1.0186h0.71438c0.33513 0 0.59531-0.0794 0.78052-0.23812 0.18521-0.15875 0.39026-0.53358 0.61516-1.1245l0.21828-0.55563-2.9964-7.2893h1.2898l2.3151 5.7944 2.3151-5.7944h1.2898l-3.2544 8.0963"/>
  <path id="path3039" style="" d="m139.65 110.38v3.9291h-1.2237v-10.226h1.2237v1.1245c0.25576-0.44096 0.57767-0.76728 0.96573-0.97896 0.39246-0.21607 0.85989-0.32411 1.4023-0.32411 0.89958 0 1.6294 0.35719 2.1894 1.0716 0.56444 0.71438 0.84667 1.6537 0.84667 2.8178 0 1.1642-0.28223 2.1034-0.84667 2.8178-0.56004 0.71438-1.2898 1.0716-2.1894 1.0716-0.5424 0-1.0098-0.10583-1.4023-0.3175-0.38806-0.21607-0.70997-0.5446-0.96573-0.98557m4.1407-2.5863c0-0.89517-0.18521-1.5963-0.55562-2.1034-0.36602-0.51152-0.87093-0.76729-1.5147-0.7673-0.64383 0.00001-1.151 0.25578-1.5214 0.7673-0.36601 0.50712-0.54902 1.2083-0.54901 2.1034-0.00001 0.89518 0.183 1.5985 0.54901 2.1101 0.37041 0.50712 0.87753 0.76068 1.5214 0.76068 0.64381 0 1.1487-0.25356 1.5147-0.76068 0.37041-0.51153 0.55562-1.2149 0.55562-2.1101"/>
  <path id="path3041" style="" d="m153.41 107.49v0.59532h-5.596c0.0529 0.83785 0.30427 1.4773 0.75407 1.9182 0.45419 0.43657 1.0848 0.65485 1.8918 0.65485 0.46743 0 0.91942-0.0573 1.356-0.17198 0.44097-0.11465 0.87753-0.28663 1.3097-0.51594v1.1509c-0.43657 0.18521-0.88415 0.32632-1.3428 0.42333-0.45862 0.097-0.92384 0.14552-1.3957 0.14552-1.1818 0-2.1189-0.34395-2.8112-1.0319-0.68792-0.68792-1.0319-1.6184-1.0319-2.7914 0-1.2127 0.32632-2.174 0.97896-2.884 0.65705-0.71437 1.5412-1.0716 2.6524-1.0716 0.9966 0 1.7837 0.32191 2.3614 0.96573 0.58208 0.63941 0.87312 1.5103 0.87313 2.6128m-1.2171-0.35718c-0.009-0.66587-0.19624-1.1972-0.56225-1.5941-0.3616-0.39687-0.84226-0.59531-1.442-0.59532-0.6791 0.00001-1.2237 0.19183-1.6338 0.57547-0.4057 0.38366-0.63942 0.92385-0.70115 1.6206l4.3392-0.007"/>
 </g>
 <g id="g14" transform="translate(-1 -3.2062)">
  <path id="rect16" fill="#fdfd04" d="m200 100h80v20h-80z"/>
  <path id="rect18" d="m200 100h80v20h-80z" stroke="#000" stroke-width="2" fill="none"/>
 </g>
 <g id="text20">
  <path id="path3046" style="" d="m226.35 101.98v2.1034h2.5069v0.94589h-2.5069v4.0217c0 0.60414 0.0816 0.9922 0.24474 1.1642 0.16757 0.17198 0.50491 0.25797 1.012 0.25797h1.2502v1.0186h-1.2502c-0.93928 0-1.5875-0.17418-1.9447-0.52255-0.35719-0.35278-0.53578-0.99219-0.53578-1.9182v-4.0217h-0.89297v-0.94589h0.89297v-2.1034h1.2237"/>
  <path id="path3048" style="" d="m233.54 112.18c-0.34397 0.88194-0.67911 1.4574-1.0054 1.7264-0.32633 0.26899-0.76289 0.40349-1.3097 0.40349h-0.97235v-1.0186h0.71438c0.33513 0 0.59531-0.0794 0.78052-0.23812 0.18521-0.15875 0.39026-0.53358 0.61516-1.1245l0.21828-0.55563-2.9964-7.2893h1.2898l2.3151 5.7944 2.3151-5.7944h1.2898l-3.2544 8.0963"/>
  <path id="path3050" style="" d="m239.65 110.38v3.9291h-1.2237v-10.226h1.2237v1.1245c0.25576-0.44096 0.57767-0.76728 0.96573-0.97896 0.39246-0.21607 0.85989-0.32411 1.4023-0.32411 0.89958 0 1.6294 0.35719 2.1894 1.0716 0.56444 0.71438 0.84667 1.6537 0.84667 2.8178 0 1.1642-0.28223 2.1034-0.84667 2.8178-0.56004 0.71438-1.2898 1.0716-2.1894 1.0716-0.5424 0-1.0098-0.10583-1.4023-0.3175-0.38806-0.21607-0.70997-0.5446-0.96573-0.98557m4.1407-2.5863c0-0.89517-0.18521-1.5963-0.55562-2.1034-0.36602-0.51152-0.87093-0.76729-1.5147-0.7673-0.64383 0.00001-1.151 0.25578-1.5214 0.7673-0.36601 0.50712-0.54902 1.2083-0.54901 2.1034-0.00001 0.89518 0.183 1.5985 0.54901 2.1101 0.37041 0.50712 0.87753 0.76068 1.5214 0.76068 0.64381 0 1.1487-0.25356 1.5147-0.76068 0.37041-0.51153 0.55562-1.2149 0.55562-2.1101"/>
  <path id="path3052" style="" d="m253.41 107.49v0.59532h-5.596c0.0529 0.83785 0.30427 1.4773 0.75407 1.9182 0.45419 0.43657 1.0848 0.65485 1.8918 0.65485 0.46743 0 0.91942-0.0573 1.356-0.17198 0.44097-0.11465 0.87753-0.28663 1.3097-0.51594v1.1509c-0.43657 0.18521-0.88415 0.32632-1.3428 0.42333-0.45862 0.097-0.92384 0.14552-1.3957 0.14552-1.1818 0-2.1189-0.34395-2.8112-1.0319-0.68792-0.68792-1.0319-1.6184-1.0319-2.7914 0-1.2127 0.32632-2.174 0.97896-2.884 0.65705-0.71437 1.5412-1.0716 2.6524-1.0716 0.9966 0 1.7837 0.32191 2.3614 0.96573 0.58208 0.63941 0.87312 1.5103 0.87313 2.6128m-1.2171-0.35718c-0.009-0.66587-0.19624-1.1972-0.56225-1.5941-0.3616-0.39687-0.84226-0.59531-1.442-0.59532-0.6791 0.00001-1.2237 0.19183-1.6338 0.57547-0.4057 0.38366-0.63942 0.92385-0.70115 1.6206l4.3392-0.007"/>
 </g>
 <g id="g24" transform="translate(-1 -3.2062)">
  <path id="rect26" fill="#fdfd04" d="m200 120h80v20h-80z"/>
  <path id="rect28" d="m200 120h80v20h-80z" stroke="#000" stroke-width="2" fill="none"/>
 </g>
 <g id="text30">
  <path id="path3057" style="" d="m227.83 124.3v1.1509c-0.34396-0.17638-0.70115-0.30868-1.0716-0.39688-0.37043-0.0882-0.75407-0.13228-1.1509-0.13229-0.60414 0.00001-1.0583 0.0926-1.3626 0.27782-0.29987 0.18521-0.4498 0.46302-0.44979 0.83343-0.00001 0.28223 0.10803 0.50492 0.32411 0.66808 0.21608 0.15875 0.65043 0.31089 1.3031 0.45641l0.41672 0.0926c0.8643 0.18521 1.4772 0.44759 1.8389 0.78714 0.366 0.33514 0.549 0.80478 0.54901 1.4089-0.00001 0.68792-0.27341 1.2325-0.82021 1.6338-0.5424 0.40129-1.2898 0.60193-2.2424 0.60193-0.39688 0-0.8114-0.0397-1.2436-0.11906-0.42774-0.075-0.87974-0.18962-1.356-0.34396v-1.2568c0.44979 0.23371 0.89297 0.4101 1.3295 0.52916 0.43656 0.11466 0.86871 0.17199 1.2965 0.17198 0.57326 0.00001 1.0142-0.097 1.3229-0.29104 0.30867-0.19843 0.46301-0.47625 0.46302-0.83344-0.00001-0.33073-0.11245-0.58428-0.33735-0.76068-0.22049-0.17638-0.70776-0.34616-1.4618-0.50932l-0.42334-0.0992c-0.75406-0.15875-1.2987-0.40128-1.6338-0.72761-0.33514-0.33072-0.50271-0.78272-0.50271-1.356 0-0.69673 0.24694-1.2347 0.74083-1.614 0.49389-0.37923 1.195-0.56885 2.1034-0.56886 0.44978 0.00001 0.87312 0.0331 1.27 0.0992 0.39687 0.0662 0.76288 0.16537 1.098 0.29766"/>
  <path id="path3059" style="" d="m231.37 121.98v2.1034h2.5069v0.94589h-2.5069v4.0217c-0.00001 0.60414 0.0816 0.99219 0.24474 1.1642 0.16756 0.17198 0.50491 0.25797 1.012 0.25797h1.2502v1.0186h-1.2502c-0.93928 0-1.5875-0.17419-1.9447-0.52255-0.35719-0.35278-0.53579-0.99219-0.53578-1.9182v-4.0217h-0.89297v-0.94589h0.89297v-2.1034h1.2237"/>
  <path id="path3061" style="" d="m238.85 127.77c-0.98338 0-1.6647 0.11245-2.0439 0.33734-0.37924 0.2249-0.56886 0.60855-0.56886 1.1509 0 0.43216 0.14111 0.77612 0.42334 1.0319 0.28663 0.25136 0.67468 0.37704 1.1642 0.37703 0.67468 0.00001 1.2149-0.23812 1.6206-0.71437 0.4101-0.48066 0.61515-1.1179 0.61516-1.9116v-0.2712h-1.2105m2.4276-0.50271v4.2267h-1.2171v-1.1245c-0.27782 0.44979-0.62398 0.78273-1.0385 0.9988-0.41452 0.21167-0.92164 0.3175-1.5214 0.3175-0.75848 0-1.3626-0.21166-1.8124-0.635-0.44538-0.42774-0.66807-0.9988-0.66807-1.7132 0-0.83344 0.27781-1.4618 0.83344-1.8852 0.56003-0.42333 1.3935-0.635 2.5003-0.635h1.7066v-0.11907c-0.00001-0.56003-0.18521-0.99218-0.55563-1.2965-0.36601-0.30867-0.88195-0.46301-1.5478-0.46302-0.42334 0.00001-0.83565 0.0507-1.2369 0.15214-0.40129 0.10143-0.78714 0.25356-1.1576 0.4564v-1.1245c0.44538-0.17197 0.87754-0.29985 1.2965-0.38364 0.41893-0.0882 0.82683-0.13229 1.2237-0.1323 1.0716 0.00001 1.8719 0.27782 2.4011 0.83344 0.52916 0.55564 0.79374 1.3979 0.79375 2.5268"/>
  <path id="path3063" style="" d="m245 121.98v2.1034h2.5069v0.94589h-2.5069v4.0217c0 0.60414 0.0816 0.99219 0.24474 1.1642 0.16757 0.17198 0.50491 0.25797 1.012 0.25797h1.2502v1.0186h-1.2502c-0.93928 0-1.5875-0.17419-1.9447-0.52255-0.35719-0.35278-0.53578-0.99219-0.53578-1.9182v-4.0217h-0.89297v-0.94589h0.89297v-2.1034h1.2237"/>
  <path id="path3065" style="" d="m255.45 127.49v0.59532h-5.596c0.0529 0.83785 0.30427 1.4773 0.75406 1.9182 0.4542 0.43656 1.0848 0.65485 1.8918 0.65485 0.46743 0 0.91942-0.0573 1.356-0.17198 0.44097-0.11466 0.87753-0.28664 1.3097-0.51594v1.1509c-0.43657 0.18521-0.88416 0.32632-1.3428 0.42333-0.45862 0.097-0.92385 0.14552-1.3957 0.14552-1.1818 0-2.1189-0.34396-2.8112-1.0319-0.68792-0.68792-1.0319-1.6184-1.0319-2.7914-0.00001-1.2127 0.32631-2.174 0.97896-2.884 0.65704-0.71437 1.5412-1.0716 2.6524-1.0716 0.9966 0.00001 1.7837 0.32192 2.3614 0.96574 0.58208 0.63941 0.87312 1.5103 0.87313 2.6128m-1.2171-0.35719c-0.009-0.66586-0.19624-1.1972-0.56224-1.5941-0.3616-0.39687-0.84226-0.59531-1.442-0.59532-0.6791 0.00001-1.2237 0.19183-1.6338 0.57547-0.40569 0.38365-0.63941 0.92385-0.70114 1.6206l4.3392-0.007"/>
 </g>
 <g id="g34" transform="translate(-1 -3.2062)">
  <path id="rect36" fill="#fdfd04" d="m200 140h80v100h-80z"/>
  <path id="rect38" d="m200 140h80v100h-80z" stroke="#000" stroke-width="2" fill="none"/>
 </g>
 <g id="text40">
  <path id="path3070" style="" d="m214.23 181.2h1.2237v6.0788l3.6314-3.1948h1.5544l-3.9291 3.466 4.0944 3.9423h-1.5875l-3.7637-3.6182v3.6182h-1.2237v-10.292"/>
  <path id="path3072" style="" d="m227.98 187.49v0.59532h-5.596c0.0529 0.83785 0.30427 1.4773 0.75407 1.9182 0.4542 0.43656 1.0848 0.65485 1.8918 0.65485 0.46743 0 0.91943-0.0573 1.356-0.17198 0.44096-0.11466 0.87753-0.28664 1.3097-0.51594v1.1509c-0.43657 0.18521-0.88416 0.32632-1.3428 0.42333-0.45861 0.097-0.92384 0.14552-1.3957 0.14552-1.1818 0-2.1189-0.34396-2.8112-1.0319-0.68792-0.68792-1.0319-1.6184-1.0319-2.7914 0-1.2127 0.32632-2.174 0.97896-2.884 0.65705-0.71437 1.5412-1.0716 2.6525-1.0716 0.99659 0.00001 1.7837 0.32192 2.3614 0.96574 0.58208 0.63941 0.87312 1.5103 0.87312 2.6128m-1.2171-0.35719c-0.009-0.66586-0.19624-1.1972-0.56224-1.5941-0.36161-0.39687-0.84227-0.59531-1.442-0.59532-0.67911 0.00001-1.2237 0.19183-1.6338 0.57547-0.4057 0.38365-0.63941 0.92385-0.70115 1.6206l4.3392-0.007"/>
  <path id="path3074" style="" d="m233.06 192.18c-0.34397 0.88194-0.67911 1.4574-1.0054 1.7264-0.32632 0.26899-0.76289 0.40349-1.3097 0.40349h-0.97235v-1.0186h0.71438c0.33514 0 0.59531-0.0794 0.78052-0.23813 0.18521-0.15875 0.39026-0.53357 0.61516-1.1245l0.21828-0.55562-2.9964-7.2893h1.2898l2.3151 5.7944 2.3151-5.7944h1.2898l-3.2544 8.0963"/>
  <path id="path3076" style="" d="m242.72 184.3v1.1509c-0.34396-0.17638-0.70115-0.30868-1.0716-0.39688-0.37042-0.0882-0.75407-0.13228-1.1509-0.13229-0.60414 0.00001-1.0583 0.0926-1.3626 0.27782-0.29986 0.18521-0.4498 0.46302-0.44979 0.83343-0.00001 0.28223 0.10803 0.50492 0.32411 0.66808 0.21608 0.15875 0.65043 0.31089 1.3031 0.45641l0.41672 0.0926c0.8643 0.18521 1.4772 0.44759 1.8389 0.78714 0.366 0.33514 0.549 0.80478 0.54901 1.4089-0.00001 0.68792-0.27341 1.2325-0.82021 1.6338-0.5424 0.40129-1.2898 0.60193-2.2424 0.60193-0.39688 0-0.81139-0.0397-1.2436-0.11906-0.42774-0.075-0.87974-0.18962-1.356-0.34396v-1.2568c0.44979 0.23371 0.89297 0.4101 1.3295 0.52916 0.43656 0.11466 0.86871 0.17199 1.2965 0.17198 0.57326 0.00001 1.0142-0.097 1.3229-0.29104 0.30867-0.19843 0.46301-0.47625 0.46302-0.83344-0.00001-0.33073-0.11245-0.58428-0.33735-0.76068-0.22049-0.17638-0.70776-0.34616-1.4618-0.50932l-0.42334-0.0992c-0.75406-0.15875-1.2987-0.40128-1.6338-0.72761-0.33514-0.33072-0.50271-0.78272-0.50271-1.356 0-0.69673 0.24694-1.2347 0.74083-1.614 0.49389-0.37923 1.195-0.56885 2.1034-0.56886 0.44978 0.00001 0.87312 0.0331 1.27 0.0992 0.39687 0.0662 0.76288 0.16537 1.098 0.29766"/>
  <path id="path3078" style="" d="m248.14 192.18c-0.34396 0.88194-0.6791 1.4574-1.0054 1.7264-0.32632 0.26899-0.76288 0.40349-1.3097 0.40349h-0.97234v-1.0186h0.71437c0.33514 0 0.59532-0.0794 0.78053-0.23813 0.1852-0.15875 0.39026-0.53357 0.61516-1.1245l0.21828-0.55562-2.9964-7.2893h1.2898l2.3151 5.7944 2.3151-5.7944h1.2898l-3.2544 8.0963"/>
  <path id="path3080" style="" d="m258.85 185.51c0.30427-0.5468 0.66807-0.95029 1.0914-1.2105 0.42333-0.26017 0.92163-0.39026 1.4949-0.39027 0.7717 0.00001 1.367 0.27121 1.7859 0.8136 0.41892 0.53799 0.62838 1.3053 0.62839 2.3019v4.4715h-1.2237v-4.4318c-0.00001-0.70996-0.12569-1.2369-0.37703-1.5809-0.25137-0.34395-0.63501-0.51593-1.1509-0.51594-0.6306 0.00001-1.1289 0.20947-1.4949 0.62839-0.36602 0.41893-0.54902 0.98999-0.54901 1.7132v4.187h-1.2237v-4.4318c-0.00001-0.71437-0.12569-1.2413-0.37704-1.5809-0.25136-0.34395-0.63941-0.51593-1.1642-0.51594-0.62177 0.00001-1.1157 0.21167-1.4817 0.635-0.36601 0.41893-0.54901 0.98779-0.54901 1.7066v4.187h-1.2237v-7.4084h1.2237v1.1509c0.27781-0.4542 0.61075-0.78934 0.99881-1.0054 0.38805-0.21607 0.84887-0.32411 1.3824-0.32412 0.53798 0.00001 0.99439 0.13671 1.3692 0.41011 0.37923 0.27341 0.65925 0.67028 0.84005 1.1906"/>
 </g>
 <g id="g44" transform="translate(-1 -3.2062)">
  <path id="rect46" fill="#fdfd04" d="m300 100h80v20h-80z"/>
  <path id="rect48" d="m300 100h80v20h-80z" stroke="#000" stroke-width="2" fill="none"/>
 </g>
 <g id="text50">
  <path id="path3085" style="" d="m326.35 101.98v2.1034h2.5069v0.94589h-2.5069v4.0217c0 0.60414 0.0816 0.9922 0.24474 1.1642 0.16757 0.17198 0.50491 0.25797 1.012 0.25797h1.2502v1.0186h-1.2502c-0.93928 0-1.5875-0.17418-1.9447-0.52255-0.35719-0.35278-0.53578-0.99219-0.53578-1.9182v-4.0217h-0.89297v-0.94589h0.89297v-2.1034h1.2237"/>
  <path id="path3087" style="" d="m333.54 112.18c-0.34397 0.88194-0.67911 1.4574-1.0054 1.7264-0.32633 0.26899-0.76289 0.40349-1.3097 0.40349h-0.97235v-1.0186h0.71438c0.33513 0 0.59531-0.0794 0.78052-0.23812 0.18521-0.15875 0.39026-0.53358 0.61516-1.1245l0.21828-0.55563-2.9964-7.2893h1.2898l2.3151 5.7944 2.3151-5.7944h1.2898l-3.2544 8.0963"/>
  <path id="path3089" style="" d="m339.65 110.38v3.9291h-1.2237v-10.226h1.2237v1.1245c0.25576-0.44096 0.57767-0.76728 0.96573-0.97896 0.39246-0.21607 0.85989-0.32411 1.4023-0.32411 0.89958 0 1.6294 0.35719 2.1894 1.0716 0.56444 0.71438 0.84667 1.6537 0.84667 2.8178 0 1.1642-0.28223 2.1034-0.84667 2.8178-0.56004 0.71438-1.2898 1.0716-2.1894 1.0716-0.5424 0-1.0098-0.10583-1.4023-0.3175-0.38806-0.21607-0.70997-0.5446-0.96573-0.98557m4.1407-2.5863c0-0.89517-0.18521-1.5963-0.55562-2.1034-0.36602-0.51152-0.87093-0.76729-1.5147-0.7673-0.64383 0.00001-1.151 0.25578-1.5214 0.7673-0.36601 0.50712-0.54902 1.2083-0.54901 2.1034-0.00001 0.89518 0.183 1.5985 0.54901 2.1101 0.37041 0.50712 0.87753 0.76068 1.5214 0.76068 0.64381 0 1.1487-0.25356 1.5147-0.76068 0.37041-0.51153 0.55562-1.2149 0.55562-2.1101"/>
  <path id="path3091" style="" d="m353.41 107.49v0.59532h-5.596c0.0529 0.83785 0.30427 1.4773 0.75407 1.9182 0.45419 0.43657 1.0848 0.65485 1.8918 0.65485 0.46743 0 0.91942-0.0573 1.356-0.17198 0.44097-0.11465 0.87753-0.28663 1.3097-0.51594v1.1509c-0.43657 0.18521-0.88415 0.32632-1.3428 0.42333-0.45862 0.097-0.92384 0.14552-1.3957 0.14552-1.1818 0-2.1189-0.34395-2.8112-1.0319-0.68792-0.68792-1.0319-1.6184-1.0319-2.7914 0-1.2127 0.32632-2.174 0.97896-2.884 0.65705-0.71437 1.5412-1.0716 2.6524-1.0716 0.9966 0 1.7837 0.32191 2.3614 0.96573 0.58208 0.63941 0.87312 1.5103 0.87313 2.6128m-1.2171-0.35718c-0.009-0.66587-0.19624-1.1972-0.56225-1.5941-0.3616-0.39687-0.84226-0.59531-1.442-0.59532-0.6791 0.00001-1.2237 0.19183-1.6338 0.57547-0.4057 0.38366-0.63942 0.92385-0.70115 1.6206l4.3392-0.007"/>
 </g>
 <g id="g54" transform="translate(-1 -3.2062)">
  <path id="rect56" fill="#fdfd04" d="m300 120h80v20h-80z"/>
  <path id="rect58" d="m300 120h80v20h-80z" stroke="#000" stroke-width="2" fill="none"/>
 </g>
 <g id="text60">
  <path id="path3096" style="" d="m327.83 124.3v1.1509c-0.34396-0.17638-0.70115-0.30868-1.0716-0.39688-0.37043-0.0882-0.75407-0.13228-1.1509-0.13229-0.60414 0.00001-1.0583 0.0926-1.3626 0.27782-0.29987 0.18521-0.4498 0.46302-0.44979 0.83343-0.00001 0.28223 0.10803 0.50492 0.32411 0.66808 0.21608 0.15875 0.65043 0.31089 1.3031 0.45641l0.41672 0.0926c0.8643 0.18521 1.4772 0.44759 1.8389 0.78714 0.366 0.33514 0.549 0.80478 0.54901 1.4089-0.00001 0.68792-0.27341 1.2325-0.82021 1.6338-0.5424 0.40129-1.2898 0.60193-2.2424 0.60193-0.39688 0-0.8114-0.0397-1.2436-0.11906-0.42774-0.075-0.87974-0.18962-1.356-0.34396v-1.2568c0.44979 0.23371 0.89297 0.4101 1.3295 0.52916 0.43656 0.11466 0.86871 0.17199 1.2965 0.17198 0.57326 0.00001 1.0142-0.097 1.3229-0.29104 0.30867-0.19843 0.46301-0.47625 0.46302-0.83344-0.00001-0.33073-0.11245-0.58428-0.33735-0.76068-0.22049-0.17638-0.70776-0.34616-1.4618-0.50932l-0.42334-0.0992c-0.75406-0.15875-1.2987-0.40128-1.6338-0.72761-0.33514-0.33072-0.50271-0.78272-0.50271-1.356 0-0.69673 0.24694-1.2347 0.74083-1.614 0.49389-0.37923 1.195-0.56885 2.1034-0.56886 0.44978 0.00001 0.87312 0.0331 1.27 0.0992 0.39687 0.0662 0.76288 0.16537 1.098 0.29766"/>
  <path id="path3098" style="" d="m331.37 121.98v2.1034h2.5069v0.94589h-2.5069v4.0217c-0.00001 0.60414 0.0816 0.99219 0.24474 1.1642 0.16756 0.17198 0.50491 0.25797 1.012 0.25797h1.2502v1.0186h-1.2502c-0.93928 0-1.5875-0.17419-1.9447-0.52255-0.35719-0.35278-0.53579-0.99219-0.53578-1.9182v-4.0217h-0.89297v-0.94589h0.89297v-2.1034h1.2237"/>
  <path id="path3100" style="" d="m338.85 127.77c-0.98338 0-1.6647 0.11245-2.0439 0.33734-0.37924 0.2249-0.56886 0.60855-0.56886 1.1509 0 0.43216 0.14111 0.77612 0.42334 1.0319 0.28663 0.25136 0.67468 0.37704 1.1642 0.37703 0.67468 0.00001 1.2149-0.23812 1.6206-0.71437 0.4101-0.48066 0.61515-1.1179 0.61516-1.9116v-0.2712h-1.2105m2.4276-0.50271v4.2267h-1.2171v-1.1245c-0.27782 0.44979-0.62398 0.78273-1.0385 0.9988-0.41452 0.21167-0.92164 0.3175-1.5214 0.3175-0.75848 0-1.3626-0.21166-1.8124-0.635-0.44538-0.42774-0.66807-0.9988-0.66807-1.7132 0-0.83344 0.27781-1.4618 0.83344-1.8852 0.56003-0.42333 1.3935-0.635 2.5003-0.635h1.7066v-0.11907c-0.00001-0.56003-0.18521-0.99218-0.55563-1.2965-0.36601-0.30867-0.88195-0.46301-1.5478-0.46302-0.42334 0.00001-0.83565 0.0507-1.2369 0.15214-0.40129 0.10143-0.78714 0.25356-1.1576 0.4564v-1.1245c0.44538-0.17197 0.87754-0.29985 1.2965-0.38364 0.41893-0.0882 0.82683-0.13229 1.2237-0.1323 1.0716 0.00001 1.8719 0.27782 2.4011 0.83344 0.52916 0.55564 0.79374 1.3979 0.79375 2.5268"/>
  <path id="path3102" style="" d="m345 121.98v2.1034h2.5069v0.94589h-2.5069v4.0217c0 0.60414 0.0816 0.99219 0.24474 1.1642 0.16757 0.17198 0.50491 0.25797 1.012 0.25797h1.2502v1.0186h-1.2502c-0.93928 0-1.5875-0.17419-1.9447-0.52255-0.35719-0.35278-0.53578-0.99219-0.53578-1.9182v-4.0217h-0.89297v-0.94589h0.89297v-2.1034h1.2237"/>
  <path id="path3104" style="" d="m355.45 127.49v0.59532h-5.596c0.0529 0.83785 0.30427 1.4773 0.75406 1.9182 0.4542 0.43656 1.0848 0.65485 1.8918 0.65485 0.46743 0 0.91942-0.0573 1.356-0.17198 0.44097-0.11466 0.87753-0.28664 1.3097-0.51594v1.1509c-0.43657 0.18521-0.88416 0.32632-1.3428 0.42333-0.45862 0.097-0.92385 0.14552-1.3957 0.14552-1.1818 0-2.1189-0.34396-2.8112-1.0319-0.68792-0.68792-1.0319-1.6184-1.0319-2.7914-0.00001-1.2127 0.32631-2.174 0.97896-2.884 0.65704-0.71437 1.5412-1.0716 2.6524-1.0716 0.9966 0.00001 1.7837 0.32192 2.3614 0.96574 0.58208 0.63941 0.87312 1.5103 0.87313 2.6128m-1.2171-0.35719c-0.009-0.66586-0.19624-1.1972-0.56224-1.5941-0.3616-0.39687-0.84226-0.59531-1.442-0.59532-0.6791 0.00001-1.2237 0.19183-1.6338 0.57547-0.40569 0.38365-0.63941 0.92385-0.70114 1.6206l4.3392-0.007"/>
 </g>
 <g id="g64" transform="translate(-1 -3.2062)">
  <path id="rect66" fill="#fdfd04" d="m300 140h80v40h-80z"/>
  <path id="rect68" d="m300 140h80v40h-80z" stroke="#000" stroke-width="2" fill="none"/>
 </g>
 <g id="text70">
  <path id="path3109" style="" d="m342.43 154.09-2.6789 3.605 2.8178 3.8034h-1.4354l-2.1564-2.9104-2.1564 2.9104h-1.4354l2.8774-3.8762-2.6326-3.5322h1.4354l1.9645 2.6392 1.9645-2.6392h1.4354"/>
 </g>
 <g id="g74" transform="translate(-1 -3.2062)">
  <path id="rect76" fill="#fdfd04" d="m300 180h80v40h-80z"/>
  <path id="rect78" d="m300 180h80v40h-80z" stroke="#000" stroke-width="2" fill="none"/>
 </g>
 <g id="text80">
  <path id="path3114" style="" d="m339.35 202.18c-0.34396 0.88194-0.6791 1.4574-1.0054 1.7264-0.32632 0.26899-0.76288 0.40349-1.3097 0.40349h-0.97234v-1.0186h0.71437c0.33514 0 0.59532-0.0794 0.78053-0.23813 0.1852-0.15875 0.39026-0.53357 0.61516-1.1245l0.21828-0.55562-2.9964-7.2893h1.2898l2.3151 5.7944 2.3151-5.7944h1.2898l-3.2544 8.0963"/>
 </g>
 <g id="g84" transform="translate(-1 -3.2062)">
  <path id="rect86" fill="#fdfd04" d="m300 220h80v40h-80z"/>
  <path id="rect88" d="m300 220h80v40h-80z" stroke="#000" stroke-width="2" fill="none"/>
 </g>
 <g id="text90">
  <path id="path3119" style="" d="m333.74 234.09-2.6789 3.605 2.8178 3.8034h-1.4354l-2.1564-2.9104-2.1564 2.9104h-1.4354l2.8774-3.8762-2.6326-3.5322h1.4354l1.9645 2.6392 1.9645-2.6392h1.4354"/>
  <path id="path3121" style="" d="m339.89 235.22c-0.1367-0.0794-0.28663-0.1367-0.44979-0.17198-0.15875-0.0397-0.33514-0.0595-0.52917-0.0595-0.68792 0-1.2171 0.2249-1.5875 0.67469-0.36601 0.44539-0.54902 1.087-0.54901 1.9248v3.9026h-1.2237v-7.4084h1.2237v1.1509c0.25576-0.44979 0.58869-0.78272 0.9988-0.99881 0.4101-0.22048 0.9084-0.33072 1.4949-0.33073 0.0838 0.00001 0.17639 0.007 0.27781 0.0198 0.10142 0.009 0.21387 0.0243 0.33735 0.0463l0.007 1.2502"/>
  <path id="path3123" style="" d="m347.22 237.49v0.59532h-5.596c0.0529 0.83785 0.30427 1.4773 0.75406 1.9182 0.4542 0.43656 1.0848 0.65485 1.8918 0.65485 0.46742 0 0.91942-0.0573 1.356-0.17198 0.44097-0.11466 0.87753-0.28664 1.3097-0.51594v1.1509c-0.43657 0.18521-0.88416 0.32632-1.3428 0.42333-0.45862 0.097-0.92385 0.14552-1.3957 0.14552-1.1818 0-2.1189-0.34396-2.8112-1.0319-0.68792-0.68792-1.0319-1.6184-1.0319-2.7914-0.00001-1.2127 0.32631-2.174 0.97896-2.884 0.65704-0.71437 1.5412-1.0716 2.6524-1.0716 0.99659 0.00001 1.7837 0.32192 2.3614 0.96574 0.58208 0.63941 0.87312 1.5103 0.87313 2.6128m-1.2171-0.35719c-0.009-0.66586-0.19624-1.1972-0.56224-1.5941-0.3616-0.39687-0.84226-0.59531-1.442-0.59532-0.6791 0.00001-1.2237 0.19183-1.6338 0.57547-0.40569 0.38365-0.63941 0.92385-0.70114 1.6206l4.3392-0.007"/>
  <path id="path3125" style="" d="m349.22 231.2h1.2171v10.292h-1.2171v-10.292"/>
 </g>
 <g id="g94" transform="translate(-1 -3.2062)">
  <path id="rect96" fill="#fdfd04" d="m300 260h80v40h-80z"/>
  <path id="rect98" d="m300 260h80v40h-80z" stroke="#000" stroke-width="2" fill="none"/>
 </g>
 <g id="text100">
  <path id="path3130" style="" d="m330.66 282.18c-0.34397 0.88195-0.67911 1.4574-1.0054 1.7264-0.32632 0.26899-0.76289 0.40349-1.3097 0.40349h-0.97235v-1.0186h0.71438c0.33514-0.00001 0.59531-0.0794 0.78052-0.23813 0.18521-0.15875 0.39026-0.53358 0.61516-1.1245l0.21828-0.55563-2.9964-7.2893h1.2898l2.3151 5.7944 2.3151-5.7944h1.2898l-3.2544 8.0963"/>
  <path id="path3132" style="" d="m339.89 275.22c-0.1367-0.0794-0.28663-0.13669-0.44979-0.17198-0.15875-0.0397-0.33514-0.0595-0.52917-0.0595-0.68792 0.00001-1.2171 0.22491-1.5875 0.67469-0.36601 0.44539-0.54902 1.087-0.54901 1.9248v3.9026h-1.2237v-7.4084h1.2237v1.1509c0.25576-0.44978 0.58869-0.78272 0.9988-0.9988 0.4101-0.22048 0.9084-0.33072 1.4949-0.33073 0.0838 0.00001 0.17639 0.007 0.27781 0.0198 0.10142 0.009 0.21387 0.0243 0.33735 0.0463l0.007 1.2502"/>
  <path id="path3134" style="" d="m347.22 277.49v0.59531h-5.596c0.0529 0.83785 0.30427 1.4773 0.75406 1.9182 0.4542 0.43657 1.0848 0.65485 1.8918 0.65485 0.46742 0 0.91942-0.0573 1.356-0.17198 0.44097-0.11465 0.87753-0.28663 1.3097-0.51594v1.1509c-0.43657 0.18521-0.88416 0.32632-1.3428 0.42334-0.45862 0.097-0.92385 0.14552-1.3957 0.14552-1.1818 0-2.1189-0.34396-2.8112-1.0319-0.68792-0.68792-1.0319-1.6184-1.0319-2.7914-0.00001-1.2127 0.32631-2.174 0.97896-2.884 0.65704-0.71437 1.5412-1.0716 2.6524-1.0716 0.99659 0.00001 1.7837 0.32192 2.3614 0.96573 0.58208 0.63942 0.87312 1.5103 0.87313 2.6128m-1.2171-0.35719c-0.009-0.66587-0.19624-1.1972-0.56224-1.5941-0.3616-0.39687-0.84226-0.59531-1.442-0.59531-0.6791 0-1.2237 0.19183-1.6338 0.57547-0.40569 0.38365-0.63941 0.92384-0.70114 1.6206l4.3392-0.007"/>
  <path id="path3136" style="" d="m349.22 271.2h1.2171v10.292h-1.2171v-10.292"/>
 </g>
</svg>
