<?xml version="1.0" encoding="UTF-8" standalone="no"?>
<!-- Created with Inkscape (http://www.inkscape.org/) -->
<svg id="svg2" xmlns:rdf="http://www.w3.org/1999/02/22-rdf-syntax-ns#" xmlns="http://www.w3.org/2000/svg" height="306.95" width="705.54" version="1.1" xmlns:cc="http://creativecommons.org/ns#" xmlns:dc="http://purl.org/dc/elements/1.1/" viewBox="218 108 381.31048 162.6674">
 <metadata id="metadata92">
  <rdf:RDF>
   <cc:Work rdf:about="">
    <dc:format>image/svg+xml</dc:format>
    <dc:type rdf:resource="http://purl.org/dc/dcmitype/StillImage"/>
   </cc:Work>
  </rdf:RDF>
 </metadata>
 <g id="g4" transform="translate(-1 -2.6122)">
  <path id="rect6" fill="#7babe3" d="m220 110h100v150h-100z"/>
  <path id="rect8" d="m220 110h100v150h-100z" stroke="#000" stroke-width="2" fill="none"/>
 </g>
 <g id="g10" transform="translate(-1 -2.6122)">
  <path id="rect12" fill="#fdfd04" d="m230 120h80v90h-80z"/>
  <path id="rect14" d="m230 120h80v90h-80z" stroke="#000" stroke-width="2" fill="none"/>
 </g>
 <g id="g16" transform="translate(-1 -2.6122)">
  <path id="rect18" fill="#fdfd04" d="m230 210h80v40h-80z"/>
  <path id="rect20" d="m230 210h80v40h-80z" stroke="#000" stroke-width="2" fill="none"/>
 </g>
 <g id="text22">
  <path id="path3031" style="" d="m345.61 155.8v-4.0084h1.2171v10.292h-1.2171v-1.1112c-0.25577 0.44097-0.57989 0.7695-0.97235 0.98558-0.38806 0.21166-0.85549 0.3175-1.4023 0.3175-0.89518 0-1.625-0.35719-2.1894-1.0716-0.56003-0.71437-0.84005-1.6536-0.84005-2.8178s0.28002-2.1034 0.84005-2.8178c0.56445-0.71437 1.2943-1.0716 2.1894-1.0716 0.5468 0.00001 1.0142 0.10804 1.4023 0.32411 0.39246 0.21168 0.71658 0.538 0.97235 0.97896m-4.1474 2.5863c0 0.89518 0.183 1.5985 0.54901 2.1101 0.37042 0.50712 0.87754 0.76068 1.5214 0.76068 0.64382 0 1.1509-0.25356 1.5214-0.76068 0.37041-0.51153 0.55562-1.2149 0.55563-2.1101-0.00001-0.89517-0.18522-1.5963-0.55563-2.1034-0.37042-0.51152-0.87754-0.76729-1.5214-0.76729-0.64382 0-1.1509 0.25577-1.5214 0.76729-0.36601 0.50712-0.54901 1.2083-0.54901 2.1034"/>
  <path id="path3033" style="" d="m352.21 155.53c-0.65264 0-1.1686 0.25577-1.5478 0.76729-0.37924 0.50712-0.56886 1.2039-0.56886 2.0902 0 0.88636 0.18741 1.5853 0.56224 2.0968 0.37924 0.50712 0.89738 0.76068 1.5544 0.76068 0.64823 0 1.162-0.25576 1.5412-0.76729 0.37923-0.51153 0.56885-1.2083 0.56886-2.0902-0.00001-0.87753-0.18963-1.5721-0.56886-2.0836-0.37924-0.51593-0.89297-0.7739-1.5412-0.7739m0-1.0319c1.0583 0.00001 1.8896 0.34396 2.4937 1.0319 0.60412 0.68792 0.90619 1.6404 0.9062 2.8575-0.00001 1.2127-0.30208 2.1652-0.9062 2.8575-0.60414 0.68792-1.4354 1.0319-2.4937 1.0319-1.0628 0-1.8962-0.34396-2.5003-1.0319-0.59972-0.69233-0.89958-1.6448-0.89958-2.8575 0-1.2171 0.29986-2.1696 0.89958-2.8575 0.60413-0.68792 1.4376-1.0319 2.5003-1.0319"/>
  <path id="path3035" style="" d="m357.49 159.16v-4.4847h1.2171v4.4384c0 0.70115 0.1367 1.2281 0.41011 1.5809 0.2734 0.34837 0.6835 0.52255 1.2303 0.52255 0.65704 0 1.1752-0.20946 1.5544-0.62839 0.38364-0.41892 0.57546-0.98998 0.57547-1.7132v-4.2003h1.2171v7.4084h-1.2171v-1.1377c-0.29546 0.4498-0.63942 0.78494-1.0319 1.0054-0.38806 0.21608-0.84006 0.32412-1.356 0.32412-0.85109 0-1.4971-0.26459-1.9381-0.79376-0.44098-0.52916-0.66146-1.3031-0.66146-2.3217m3.0626-4.6633"/>
  <path id="path3037" style="" d="m371.53 158.39c0-0.89517-0.18521-1.5963-0.55562-2.1034-0.36602-0.51152-0.87093-0.76729-1.5148-0.76729-0.64382 0-1.1509 0.25577-1.5214 0.76729-0.36601 0.50712-0.54901 1.2083-0.54901 2.1034 0 0.89518 0.183 1.5985 0.54901 2.1101 0.37042 0.50712 0.87754 0.76068 1.5214 0.76068 0.64382 0 1.1487-0.25356 1.5148-0.76068 0.37041-0.51153 0.55562-1.2149 0.55562-2.1101m-4.1407-2.5863c0.25576-0.44096 0.57767-0.76728 0.96573-0.97896 0.39247-0.21607 0.8599-0.3241 1.4023-0.32411 0.89958 0.00001 1.6294 0.35719 2.1894 1.0716 0.56444 0.71439 0.84666 1.6537 0.84667 2.8178-0.00001 1.1642-0.28223 2.1034-0.84667 2.8178-0.56004 0.71438-1.2898 1.0716-2.1894 1.0716-0.5424 0-1.0098-0.10584-1.4023-0.3175-0.38806-0.21608-0.70997-0.54461-0.96573-0.98558v1.1112h-1.2237v-10.292h1.2237v4.0084"/>
  <path id="path3039" style="" d="m374.81 151.8h1.2171v10.292h-1.2171v-10.292"/>
  <path id="path3041" style="" d="m384.91 158.08v0.59531h-5.596c0.0529 0.83785 0.30427 1.4773 0.75407 1.9182 0.4542 0.43657 1.0848 0.65485 1.8918 0.65485 0.46743 0 0.91943-0.0573 1.356-0.17198 0.44097-0.11465 0.87753-0.28663 1.3097-0.51594v1.1509c-0.43657 0.18521-0.88416 0.32632-1.3428 0.42334-0.45862 0.097-0.92384 0.14552-1.3957 0.14552-1.1818 0-2.1189-0.34396-2.8112-1.0319-0.68792-0.68792-1.0319-1.6184-1.0319-2.7914 0-1.2127 0.32632-2.174 0.97896-2.884 0.65705-0.71437 1.5412-1.0716 2.6524-1.0716 0.9966 0.00001 1.7837 0.32192 2.3614 0.96573 0.58207 0.63942 0.87312 1.5103 0.87312 2.6128m-1.2171-0.35719c-0.009-0.66587-0.19624-1.1972-0.56224-1.5941-0.36161-0.39687-0.84227-0.59531-1.442-0.59531-0.6791 0-1.2237 0.19183-1.6338 0.57547-0.4057 0.38365-0.63942 0.92384-0.70115 1.6206l4.3392-0.007"/>
  <path id="path3043" style="" d="m396.09 155.8v-4.0084h1.2171v10.292h-1.2171v-1.1112c-0.25577 0.44097-0.57988 0.7695-0.97235 0.98558-0.38806 0.21166-0.85549 0.3175-1.4023 0.3175-0.89518 0-1.625-0.35719-2.1894-1.0716-0.56004-0.71437-0.84006-1.6536-0.84006-2.8178s0.28002-2.1034 0.84006-2.8178c0.56444-0.71437 1.2942-1.0716 2.1894-1.0716 0.5468 0.00001 1.0142 0.10804 1.4023 0.32411 0.39247 0.21168 0.71658 0.538 0.97235 0.97896m-4.1474 2.5863c-0.00001 0.89518 0.183 1.5985 0.54901 2.1101 0.37041 0.50712 0.87753 0.76068 1.5214 0.76068 0.64381 0 1.1509-0.25356 1.5214-0.76068 0.37042-0.51153 0.55562-1.2149 0.55563-2.1101-0.00001-0.89517-0.18521-1.5963-0.55563-2.1034-0.37042-0.51152-0.87754-0.76729-1.5214-0.76729-0.64383 0-1.151 0.25577-1.5214 0.76729-0.36601 0.50712-0.54902 1.2083-0.54901 2.1034"/>
 </g>
 <g id="text26">
  <path id="path3046" style="" d="m357.4 204.68h1.2171v7.4084h-1.2171v-7.4084m0-2.884h1.2171v1.5412h-1.2171v-1.5412"/>
  <path id="path3048" style="" d="m367.32 207.62v4.4715h-1.2171v-4.4318c-0.00001-0.70114-0.13671-1.2259-0.41011-1.5743-0.27341-0.34837-0.68351-0.52255-1.2303-0.52256-0.65705 0.00001-1.1752 0.20947-1.5544 0.62839-0.37924 0.41893-0.56885 0.98999-0.56885 1.7132v4.187h-1.2237v-7.4084h1.2237v1.1509c0.29104-0.44537 0.63279-0.77831 1.0253-0.9988 0.39687-0.22048 0.85328-0.33072 1.3692-0.33073 0.85108 0.00001 1.4949 0.26459 1.9315 0.79375 0.43655 0.52476 0.65483 1.2987 0.65484 2.3217"/>
  <path id="path3050" style="" d="m370.96 202.58v2.1034h2.5069v0.94589h-2.5069v4.0217c-0.00001 0.60413 0.0816 0.99219 0.24474 1.1642 0.16756 0.17198 0.50491 0.25797 1.012 0.25796h1.2502v1.0186h-1.2502c-0.93928 0-1.5875-0.17418-1.9447-0.52255-0.35719-0.35278-0.53579-0.99219-0.53579-1.9182v-4.0217h-0.89297v-0.94589h0.89297v-2.1034h1.2237"/>
  <path id="path3052" style="" d="m379.39 204.68h1.2171v7.4084h-1.2171v-7.4084m0-2.884h1.2171v1.5412h-1.2171v-1.5412"/>
 </g>
 <g id="g30" transform="translate(-1 -2.6122)">
  <path id="rect32" fill="#7babe3" d="m420 110h100v110h-100z"/>
  <path id="rect34" d="m420 110h100v110h-100z" stroke="#000" stroke-width="2" fill="none"/>
 </g>
 <g id="g36" transform="translate(-1 -2.6122)">
  <path id="rect38" fill="#fdfd04" d="m430 120h80v90h-80z"/>
  <path id="rect40" d="m430 120h80v90h-80z" stroke="#000" stroke-width="2" fill="none"/>
 </g>
 <g id="g42" transform="translate(-1 -2.6122)">
  <path id="rect44" fill="#fdfd04" d="m434 124h72v40h-72z"/>
  <path id="rect46" d="m434 124h72v40h-72z" stroke="#000" stroke-width="2" fill="none"/>
 </g>
 <g id="text48">
  <path id="path3061" style="" d="m255.33 264.9v1.1509c-0.34396-0.17638-0.70115-0.30868-1.0716-0.39688-0.37042-0.0882-0.75407-0.13228-1.1509-0.13229-0.60414 0.00001-1.0583 0.0926-1.3626 0.27782-0.29986 0.18521-0.44979 0.46302-0.44979 0.83343 0 0.28223 0.10803 0.50492 0.32411 0.66808 0.21608 0.15875 0.65044 0.31089 1.3031 0.45641l0.41672 0.0926c0.8643 0.18521 1.4772 0.44759 1.8389 0.78714 0.366 0.33514 0.549 0.80478 0.54901 1.4089-0.00001 0.68792-0.27341 1.2325-0.82021 1.6338-0.5424 0.40129-1.2898 0.60193-2.2424 0.60193-0.39688 0-0.81139-0.0397-1.2436-0.11906-0.42774-0.075-0.87974-0.18962-1.356-0.34396v-1.2568c0.44979 0.23371 0.89297 0.4101 1.3295 0.52916 0.43656 0.11466 0.86871 0.17198 1.2965 0.17198 0.57326 0 1.0142-0.097 1.3229-0.29104 0.30867-0.19843 0.46301-0.47625 0.46302-0.83344-0.00001-0.33073-0.11245-0.58428-0.33734-0.76068-0.2205-0.17638-0.70777-0.34616-1.4618-0.50932l-0.42334-0.0992c-0.75406-0.15875-1.2987-0.40128-1.6338-0.72761-0.33514-0.33072-0.50271-0.78272-0.50271-1.356 0-0.69673 0.24694-1.2347 0.74083-1.614 0.49389-0.37923 1.195-0.56885 2.1034-0.56886 0.44979 0.00001 0.87312 0.0331 1.27 0.0992 0.39687 0.0662 0.76288 0.16537 1.098 0.29766"/>
  <path id="path3063" style="" d="m258.87 262.58v2.1034h2.5069v0.94589h-2.5069v4.0217c0 0.60414 0.0816 0.99219 0.24474 1.1642 0.16757 0.17198 0.50491 0.25797 1.012 0.25797h1.2502v1.0186h-1.2502c-0.93927 0-1.5875-0.17419-1.9447-0.52255-0.35719-0.35278-0.53578-0.99219-0.53578-1.9182v-4.0217h-0.89297v-0.94589h0.89297v-2.1034h1.2237"/>
  <path id="path3065" style="" d="m267.28 265.82c-0.1367-0.0794-0.28663-0.1367-0.44979-0.17198-0.15875-0.0397-0.33514-0.0595-0.52917-0.0595-0.68792 0-1.2171 0.2249-1.5875 0.67469-0.36601 0.44539-0.54901 1.087-0.54901 1.9248v3.9026h-1.2237v-7.4084h1.2237v1.1509c0.25576-0.44979 0.58869-0.78272 0.9988-0.99881 0.4101-0.22048 0.9084-0.33072 1.4949-0.33073 0.0838 0.00001 0.17639 0.007 0.27782 0.0198 0.10141 0.009 0.21386 0.0243 0.33734 0.0463l0.007 1.2502"/>
  <path id="path3067" style="" d="m268.44 269.16v-4.4847h1.2171v4.4384c0 0.70115 0.1367 1.2281 0.41011 1.5809 0.2734 0.34837 0.6835 0.52256 1.2303 0.52256 0.65705 0 1.1752-0.20946 1.5544-0.62839 0.38364-0.41892 0.57547-0.98998 0.57547-1.7132v-4.2003h1.2171v7.4084h-1.2171v-1.1377c-0.29546 0.44979-0.63942 0.78493-1.0319 1.0054-0.38806 0.21607-0.84005 0.32411-1.356 0.32411-0.85108 0-1.4971-0.26458-1.9381-0.79375-0.44097-0.52917-0.66146-1.3031-0.66146-2.3217m3.0626-4.6633"/>
  <path id="path3069" style="" d="m282.5 264.96v1.1377c-0.34397-0.18962-0.69013-0.33073-1.0385-0.42334-0.34397-0.097-0.69234-0.14551-1.0451-0.14552-0.78935 0.00001-1.4023 0.25136-1.8389 0.75407-0.43657 0.4983-0.65485 1.1994-0.65484 2.1034-0.00001 0.904 0.21827 1.6074 0.65484 2.1101 0.43656 0.4983 1.0495 0.74745 1.8389 0.74744 0.35277 0.00001 0.70114-0.0463 1.0451-0.1389 0.34836-0.097 0.69452-0.24033 1.0385-0.42995v1.1245c-0.33956 0.15875-0.69234 0.27781-1.0583 0.35719-0.3616 0.0794-0.74745 0.11906-1.1576 0.11906-1.1157 0-2.002-0.35057-2.6591-1.0517-0.65705-0.70114-0.98558-1.647-0.98558-2.8377 0-1.2083 0.33073-2.1586 0.99219-2.8509 0.66587-0.69233 1.5765-1.0385 2.7318-1.0385 0.37482 0.00001 0.74083 0.0397 1.098 0.11907 0.35718 0.075 0.70334 0.18962 1.0385 0.34396"/>
  <path id="path3071" style="" d="m285.83 262.58v2.1034h2.5069v0.94589h-2.5069v4.0217c0 0.60414 0.0816 0.99219 0.24474 1.1642 0.16757 0.17198 0.50492 0.25797 1.012 0.25797h1.2502v1.0186h-1.2502c-0.93928 0-1.5875-0.17419-1.9447-0.52255-0.35719-0.35278-0.53579-0.99219-0.53579-1.9182v-4.0217h-0.89297v-0.94589h0.89297v-2.1034h1.2237"/>
 </g>
 <g id="text52">
  <path id="path3074" style="" d="m451.23 269.16v-4.4847h1.2171v4.4384c0 0.70115 0.1367 1.2281 0.41011 1.5809 0.2734 0.34837 0.6835 0.52256 1.2303 0.52256 0.65705 0 1.1752-0.20946 1.5544-0.62839 0.38364-0.41892 0.57547-0.98998 0.57547-1.7132v-4.2003h1.2171v7.4084h-1.2171v-1.1377c-0.29545 0.44979-0.63941 0.78493-1.0319 1.0054-0.38806 0.21607-0.84006 0.32411-1.356 0.32411-0.85108 0-1.4971-0.26458-1.9381-0.79375-0.44098-0.52917-0.66147-1.3031-0.66146-2.3217m3.0626-4.6633"/>
  <path id="path3076" style="" d="m466.12 267.62v4.4715h-1.2171v-4.4318c-0.00001-0.70114-0.13671-1.2259-0.41011-1.5743-0.27341-0.34836-0.68351-0.52254-1.2303-0.52255-0.65706 0.00001-1.1752 0.20947-1.5544 0.62839-0.37924 0.41893-0.56886 0.98999-0.56886 1.7132v4.187h-1.2237v-7.4084h1.2237v1.1509c0.29104-0.44538 0.63279-0.77831 1.0253-0.99881 0.39688-0.22048 0.85328-0.33072 1.3692-0.33073 0.85107 0.00001 1.4949 0.26459 1.9315 0.79376 0.43656 0.52476 0.65484 1.2987 0.65484 2.3217"/>
  <path id="path3078" style="" d="m468.56 264.68h1.2171v7.4084h-1.2171v-7.4084m0-2.884h1.2171v1.5412h-1.2171v-1.5412"/>
  <path id="path3080" style="" d="m475.18 265.53c-0.65264 0.00001-1.1686 0.25577-1.5478 0.76729-0.37923 0.50713-0.56885 1.2039-0.56885 2.0902 0 0.88636 0.18741 1.5853 0.56224 2.0968 0.37923 0.50712 0.89738 0.76068 1.5544 0.76067 0.64823 0.00001 1.162-0.25576 1.5412-0.76729 0.37923-0.51153 0.56885-1.2083 0.56886-2.0902-0.00001-0.87753-0.18963-1.5721-0.56886-2.0836-0.37924-0.51593-0.89297-0.7739-1.5412-0.77391m0-1.0319c1.0583 0.00001 1.8896 0.34397 2.4937 1.0319 0.60413 0.68793 0.9062 1.6404 0.90621 2.8575-0.00001 1.2127-0.30208 2.1652-0.90621 2.8575-0.60413 0.68792-1.4354 1.0319-2.4937 1.0319-1.0628 0-1.8962-0.34396-2.5003-1.0319-0.59972-0.69232-0.89958-1.6448-0.89958-2.8575 0-1.2171 0.29986-2.1696 0.89958-2.8575 0.60413-0.68791 1.4376-1.0319 2.5003-1.0319"/>
  <path id="path3082" style="" d="m486.75 267.62v4.4715h-1.2171v-4.4318c-0.00001-0.70114-0.13671-1.2259-0.41011-1.5743-0.2734-0.34836-0.68351-0.52254-1.2303-0.52255-0.65706 0.00001-1.1752 0.20947-1.5544 0.62839-0.37924 0.41893-0.56886 0.98999-0.56886 1.7132v4.187h-1.2237v-7.4084h1.2237v1.1509c0.29104-0.44538 0.6328-0.77831 1.0253-0.99881 0.39687-0.22048 0.85327-0.33072 1.3692-0.33073 0.85107 0.00001 1.4949 0.26459 1.9315 0.79376 0.43656 0.52476 0.65484 1.2987 0.65485 2.3217"/>
 </g>
 <g id="g56" stroke="#000" stroke-width="2" fill="none" transform="translate(-1 -2.6122)">
  <path id="line58" d="m338 160-23.598 4.214"/>
  <path id="polyline60" d="m321.17 157.93-8.966 6.68 10.723 3.164"/>
 </g>
 <g id="g62" stroke="#000" stroke-width="2" fill="none" transform="translate(-1 -2.6122)">
  <path id="line64" d="m540 180-26-13"/>
  <path id="polyline66" d="m523.18 166h-11.18l6.708 8.944"/>
 </g>
 <g id="g68" stroke="#000" stroke-width="2" fill="none" transform="translate(-1 -2.6122)">
  <path id="line70" d="m554 150-43.562-5.445"/>
  <path id="polyline72" d="m518.76 140.56-10.543 3.721 9.302 6.202"/>
 </g>
 <g id="g74" stroke="#000" stroke-width="2" fill="none" transform="translate(-1 -2.6122)">
  <path id="line76" d="m354 210-39.929 18.149"/>
  <path id="polyline78" d="m319.07 220.38-7.034 8.69 11.172 0.414"/>
 </g>
 <g id="text80">
  <path id="path3093" style="" d="m547.61 175.8v-4.0084h1.2171v10.292h-1.2171v-1.1112c-0.25577 0.44097-0.57989 0.7695-0.97235 0.98558-0.38806 0.21166-0.85549 0.3175-1.4023 0.3175-0.89518 0-1.625-0.35719-2.1894-1.0716-0.56003-0.71437-0.84005-1.6536-0.84005-2.8178s0.28002-2.1034 0.84005-2.8178c0.56445-0.71437 1.2943-1.0716 2.1894-1.0716 0.5468 0.00001 1.0142 0.10804 1.4023 0.32411 0.39246 0.21168 0.71658 0.538 0.97235 0.97896m-4.1474 2.5863c0 0.89518 0.183 1.5985 0.54901 2.1101 0.37042 0.50712 0.87754 0.76068 1.5214 0.76068 0.64382 0 1.1509-0.25356 1.5214-0.76068 0.37041-0.51153 0.55562-1.2149 0.55563-2.1101-0.00001-0.89517-0.18522-1.5963-0.55563-2.1034-0.37042-0.51152-0.87754-0.76729-1.5214-0.76729-0.64382 0-1.1509 0.25577-1.5214 0.76729-0.36601 0.50712-0.54901 1.2083-0.54901 2.1034"/>
  <path id="path3095" style="" d="m554.21 175.53c-0.65264 0-1.1686 0.25577-1.5478 0.76729-0.37924 0.50712-0.56886 1.2039-0.56886 2.0902 0 0.88636 0.18741 1.5853 0.56224 2.0968 0.37924 0.50712 0.89738 0.76068 1.5544 0.76068 0.64823 0 1.162-0.25576 1.5412-0.76729 0.37923-0.51153 0.56885-1.2083 0.56886-2.0902-0.00001-0.87753-0.18963-1.5721-0.56886-2.0836-0.37924-0.51593-0.89297-0.7739-1.5412-0.7739m0-1.0319c1.0583 0.00001 1.8896 0.34396 2.4937 1.0319 0.60412 0.68792 0.90619 1.6404 0.9062 2.8575-0.00001 1.2127-0.30208 2.1652-0.9062 2.8575-0.60414 0.68792-1.4354 1.0319-2.4937 1.0319-1.0628 0-1.8962-0.34396-2.5003-1.0319-0.59972-0.69233-0.89958-1.6448-0.89958-2.8575 0-1.2171 0.29986-2.1696 0.89958-2.8575 0.60413-0.68792 1.4376-1.0319 2.5003-1.0319"/>
  <path id="path3097" style="" d="m559.49 179.16v-4.4847h1.2171v4.4384c0 0.70115 0.1367 1.2281 0.41011 1.5809 0.2734 0.34837 0.6835 0.52255 1.2303 0.52255 0.65704 0 1.1752-0.20946 1.5544-0.62839 0.38364-0.41892 0.57546-0.98998 0.57547-1.7132v-4.2003h1.2171v7.4084h-1.2171v-1.1377c-0.29546 0.4498-0.63942 0.78494-1.0319 1.0054-0.38806 0.21608-0.84006 0.32412-1.356 0.32412-0.85109 0-1.4971-0.26459-1.9381-0.79376-0.44098-0.52916-0.66146-1.3031-0.66146-2.3217m3.0626-4.6633"/>
  <path id="path3099" style="" d="m573.53 178.39c0-0.89517-0.18521-1.5963-0.55562-2.1034-0.36602-0.51152-0.87093-0.76729-1.5148-0.76729-0.64382 0-1.1509 0.25577-1.5214 0.76729-0.36601 0.50712-0.54901 1.2083-0.54901 2.1034 0 0.89518 0.183 1.5985 0.54901 2.1101 0.37042 0.50712 0.87754 0.76068 1.5214 0.76068 0.64382 0 1.1487-0.25356 1.5148-0.76068 0.37041-0.51153 0.55562-1.2149 0.55562-2.1101m-4.1407-2.5863c0.25576-0.44096 0.57767-0.76728 0.96573-0.97896 0.39247-0.21607 0.8599-0.3241 1.4023-0.32411 0.89958 0.00001 1.6294 0.35719 2.1894 1.0716 0.56444 0.71439 0.84666 1.6537 0.84667 2.8178-0.00001 1.1642-0.28223 2.1034-0.84667 2.8178-0.56004 0.71438-1.2898 1.0716-2.1894 1.0716-0.5424 0-1.0098-0.10584-1.4023-0.3175-0.38806-0.21608-0.70997-0.54461-0.96573-0.98558v1.1112h-1.2237v-10.292h1.2237v4.0084"/>
  <path id="path3101" style="" d="m576.81 171.8h1.2171v10.292h-1.2171v-10.292"/>
  <path id="path3103" style="" d="m586.91 178.08v0.59531h-5.596c0.0529 0.83785 0.30427 1.4773 0.75407 1.9182 0.4542 0.43657 1.0848 0.65485 1.8918 0.65485 0.46743 0 0.91943-0.0573 1.356-0.17198 0.44097-0.11465 0.87753-0.28663 1.3097-0.51594v1.1509c-0.43657 0.18521-0.88416 0.32632-1.3428 0.42334-0.45862 0.097-0.92384 0.14552-1.3957 0.14552-1.1818 0-2.1189-0.34396-2.8112-1.0319-0.68792-0.68792-1.0319-1.6184-1.0319-2.7914 0-1.2127 0.32632-2.174 0.97896-2.884 0.65705-0.71437 1.5412-1.0716 2.6524-1.0716 0.9966 0.00001 1.7837 0.32192 2.3614 0.96573 0.58207 0.63942 0.87312 1.5103 0.87312 2.6128m-1.2171-0.35719c-0.009-0.66587-0.19624-1.1972-0.56224-1.5941-0.36161-0.39687-0.84227-0.59531-1.442-0.59531-0.6791 0-1.2237 0.19183-1.6338 0.57547-0.4057 0.38365-0.63942 0.92384-0.70115 1.6206l4.3392-0.007"/>
  <path id="path3105" style="" d="m598.09 175.8v-4.0084h1.2171v10.292h-1.2171v-1.1112c-0.25577 0.44097-0.57988 0.7695-0.97235 0.98558-0.38806 0.21166-0.85549 0.3175-1.4023 0.3175-0.89518 0-1.625-0.35719-2.1894-1.0716-0.56004-0.71437-0.84006-1.6536-0.84006-2.8178s0.28002-2.1034 0.84006-2.8178c0.56444-0.71437 1.2942-1.0716 2.1894-1.0716 0.5468 0.00001 1.0142 0.10804 1.4023 0.32411 0.39247 0.21168 0.71658 0.538 0.97235 0.97896m-4.1474 2.5863c-0.00001 0.89518 0.183 1.5985 0.54901 2.1101 0.37041 0.50712 0.87753 0.76068 1.5214 0.76068 0.64381 0 1.1509-0.25356 1.5214-0.76068 0.37042-0.51153 0.55562-1.2149 0.55563-2.1101-0.00001-0.89517-0.18521-1.5963-0.55563-2.1034-0.37042-0.51152-0.87754-0.76729-1.5214-0.76729-0.64383 0-1.151 0.25577-1.5214 0.76729-0.36601 0.50712-0.54902 1.2083-0.54901 2.1034"/>
 </g>
 <g id="text84">
  <path id="path3108" style="" d="m557.4 144.68h1.2171v7.4084h-1.2171v-7.4084m0-2.884h1.2171v1.5412h-1.2171v-1.5412"/>
  <path id="path3110" style="" d="m567.32 147.62v4.4715h-1.2171v-4.4318c-0.00001-0.70114-0.13671-1.2259-0.41011-1.5743-0.27341-0.34837-0.68351-0.52255-1.2303-0.52256-0.65705 0.00001-1.1752 0.20947-1.5544 0.62839-0.37924 0.41893-0.56885 0.98999-0.56885 1.7132v4.187h-1.2237v-7.4084h1.2237v1.1509c0.29104-0.44537 0.63279-0.77831 1.0253-0.9988 0.39687-0.22048 0.85328-0.33072 1.3692-0.33073 0.85108 0.00001 1.4949 0.26459 1.9315 0.79375 0.43655 0.52476 0.65483 1.2987 0.65484 2.3217"/>
  <path id="path3112" style="" d="m570.96 142.58v2.1034h2.5069v0.94589h-2.5069v4.0217c-0.00001 0.60413 0.0816 0.99219 0.24474 1.1642 0.16756 0.17198 0.50491 0.25797 1.012 0.25796h1.2502v1.0186h-1.2502c-0.93928 0-1.5875-0.17418-1.9447-0.52255-0.35719-0.35278-0.53579-0.99219-0.53579-1.9182v-4.0217h-0.89297v-0.94589h0.89297v-2.1034h1.2237"/>
  <path id="path3114" style="" d="m579.39 144.68h1.2171v7.4084h-1.2171v-7.4084m0-2.884h1.2171v1.5412h-1.2171v-1.5412"/>
 </g>
</svg>
