<?xml version="1.0" encoding="UTF-8" standalone="no"?>
<!-- Created with Inkscape (http://www.inkscape.org/) -->
<svg id="svg2" xmlns:rdf="http://www.w3.org/1999/02/22-rdf-syntax-ns#" xmlns="http://www.w3.org/2000/svg" height="489.73" width="619.17" version="1.1" xmlns:cc="http://creativecommons.org/ns#" xmlns:dc="http://purl.org/dc/elements/1.1/" viewBox="78 48 332.9854 270.5">
 <metadata id="metadata90">
  <rdf:RDF>
   <cc:Work rdf:about="">
    <dc:format>image/svg+xml</dc:format>
    <dc:type rdf:resource="http://purl.org/dc/dcmitype/StillImage"/>
   </cc:Work>
  </rdf:RDF>
 </metadata>
 <g id="g4" transform="translate(-5.5073 -2.5)">
  <path id="rect6" fill="#add8e6" d="m80 280h140v40h-140z"/>
  <path id="rect8" d="m80 280h140v40h-140z" stroke="#000" stroke-width="2" fill="none"/>
  <g id="text10">
   <path id="path3026" style="" d="m95.879 299.66v4.4715h-1.2171v-4.4318c-0.000007-0.70114-0.13671-1.2259-0.41011-1.5743-0.27341-0.34836-0.68351-0.52255-1.2303-0.52255-0.65705 0-1.1752 0.20946-1.5544 0.62838-0.37924 0.41893-0.56886 0.98999-0.56886 1.7132v4.187h-1.2237v-10.292h1.2237v4.0349c0.29104-0.44537 0.63279-0.77831 1.0253-0.9988 0.39687-0.22048 0.85328-0.33072 1.3692-0.33073 0.85107 0.00001 1.4949 0.26459 1.9315 0.79375 0.43656 0.52477 0.65484 1.2987 0.65484 2.3217"/>
   <path id="path3028" style="" d="m98.631 302.45h1.3957v1.6801h-1.3957v-1.6801m0-5.3248h1.3957v1.6801h-1.3957v-1.6801"/>
   <path id="path3030" style="" d="m111.93 296.94v1.1509c-0.34396-0.17639-0.70115-0.30868-1.0716-0.39688-0.37043-0.0882-0.75407-0.13229-1.151-0.13229-0.60413 0-1.0583 0.0926-1.3626 0.27781-0.29987 0.18522-0.4498 0.46303-0.4498 0.83344 0 0.28223 0.10804 0.50492 0.32412 0.66808 0.21607 0.15875 0.65043 0.31089 1.3031 0.4564l0.41672 0.0926c0.8643 0.18521 1.4772 0.44759 1.8388 0.78713 0.36601 0.33515 0.54901 0.80478 0.54902 1.4089-0.00001 0.68792-0.27341 1.2325-0.82021 1.6338-0.54241 0.40129-1.2899 0.60193-2.2424 0.60193-0.39688 0-0.8114-0.0397-1.2436-0.11906-0.42774-0.075-0.87974-0.18962-1.356-0.34396v-1.2568c0.44979 0.23372 0.89297 0.41011 1.3295 0.52917 0.43656 0.11466 0.86872 0.17198 1.2965 0.17198 0.57326 0 1.0142-0.097 1.3229-0.29104 0.30868-0.19844 0.46302-0.47625 0.46303-0.83344-0.00001-0.33073-0.11246-0.58429-0.33735-0.76068-0.22049-0.17639-0.70776-0.34616-1.4618-0.50932l-0.42334-0.0992c-0.75407-0.15875-1.2987-0.40129-1.6338-0.72761-0.33515-0.33072-0.50271-0.78272-0.50271-1.356 0-0.69673 0.24694-1.2347 0.74083-1.614 0.49389-0.37923 1.195-0.56885 2.1034-0.56886 0.44979 0.00001 0.87313 0.0331 1.27 0.0992s0.76287 0.16537 1.098 0.29766"/>
   <path id="path3032" style="" d="m115.48 294.62v2.1034h2.5069v0.94589h-2.5069v4.0217c-0.00001 0.60413 0.0816 0.99219 0.24474 1.1642 0.16756 0.17198 0.50491 0.25797 1.012 0.25797h1.2502v1.0186h-1.2502c-0.93928 0-1.5875-0.17419-1.9447-0.52256-0.35719-0.35278-0.53579-0.99219-0.53579-1.9182v-4.0217h-0.89297v-0.94589h0.89297v-2.1034h1.2237"/>
   <path id="path3034" style="" d="m123.89 297.86c-0.13671-0.0794-0.28664-0.1367-0.44979-0.17198-0.15876-0.0397-0.33515-0.0595-0.52917-0.0595-0.68792 0.00001-1.2171 0.22491-1.5875 0.67469-0.36601 0.44539-0.54902 1.087-0.54901 1.9248v3.9026h-1.2237v-7.4084h1.2237v1.1509c0.25576-0.44978 0.58869-0.78272 0.9988-0.9988 0.4101-0.22048 0.9084-0.33072 1.4949-0.33073 0.0838 0.00001 0.17638 0.007 0.27781 0.0198 0.10142 0.009 0.21387 0.0243 0.33735 0.0463l0.007 1.2502"/>
   <path id="path3036" style="" d="m125.05 301.21v-4.4847h1.2171v4.4384c0 0.70115 0.1367 1.2281 0.4101 1.5809 0.2734 0.34837 0.68351 0.52255 1.2303 0.52255 0.65705 0 1.1752-0.20946 1.5544-0.62838 0.38364-0.41893 0.57546-0.98999 0.57547-1.7132v-4.2003h1.2171v7.4084h-1.2171v-1.1377c-0.29546 0.4498-0.63942 0.78494-1.0319 1.0054-0.38806 0.21608-0.84006 0.32412-1.356 0.32412-0.85108 0-1.4971-0.26458-1.9381-0.79375-0.44097-0.52917-0.66146-1.3031-0.66146-2.3217m3.0626-4.6633"/>
   <path id="path3038" style="" d="m139.11 297.01v1.1377c-0.34396-0.18961-0.69013-0.33072-1.0385-0.42333-0.34396-0.097-0.69233-0.14552-1.0451-0.14552-0.78934 0-1.4023 0.25136-1.8388 0.75406-0.43657 0.49831-0.65485 1.1994-0.65485 2.1034s0.21828 1.6074 0.65485 2.1101c0.43656 0.4983 1.0495 0.74745 1.8388 0.74745 0.35278 0 0.70115-0.0463 1.0451-0.13891 0.34836-0.097 0.69453-0.24032 1.0385-0.42994v1.1245c-0.33955 0.15875-0.69233 0.27781-1.0583 0.35719-0.36161 0.0794-0.74746 0.11906-1.1576 0.11906-1.1157 0-2.002-0.35057-2.6591-1.0517-0.65705-0.70115-0.98557-1.647-0.98557-2.8377 0-1.2083 0.33073-2.1586 0.99219-2.8509 0.66587-0.69232 1.5765-1.0385 2.7318-1.0385 0.37482 0.00001 0.74083 0.0397 1.098 0.11906 0.35718 0.075 0.70335 0.18963 1.0385 0.34396"/>
   <path id="path3040" style="" d="m142.44 294.62v2.1034h2.5069v0.94589h-2.5069v4.0217c0 0.60413 0.0816 0.99219 0.24474 1.1642 0.16757 0.17198 0.50491 0.25797 1.012 0.25797h1.2502v1.0186h-1.2502c-0.93928 0-1.5875-0.17419-1.9447-0.52256-0.35719-0.35278-0.53578-0.99219-0.53578-1.9182v-4.0217h-0.89297v-0.94589h0.89297v-2.1034h1.2237"/>
   <path id="path3042" style="" d="m150.92 294.26h1.3362v4.0481h4.8551v-4.0481h1.3362v9.8756h-1.3362v-4.703h-4.8551v4.703h-1.3362v-9.8756"/>
   <path id="path3044" style="" d="m164.42 300.41c-0.98338 0-1.6647 0.11245-2.0439 0.33734-0.37924 0.2249-0.56886 0.60855-0.56886 1.1509 0 0.43216 0.14111 0.77612 0.42334 1.0319 0.28662 0.25135 0.67468 0.37703 1.1642 0.37703 0.67469 0 1.2149-0.23812 1.6206-0.71438 0.4101-0.48065 0.61515-1.1179 0.61516-1.9116v-0.27119h-1.2105m2.4276-0.50271v4.2267h-1.2171v-1.1245c-0.27782 0.4498-0.62398 0.78273-1.0385 0.99881-0.41452 0.21167-0.92164 0.3175-1.5214 0.3175-0.75848 0-1.3626-0.21167-1.8124-0.635-0.44539-0.42775-0.66808-0.99881-0.66808-1.7132 0-0.83344 0.27782-1.4618 0.83344-1.8852 0.56004-0.42333 1.3935-0.635 2.5003-0.63501h1.7066v-0.11906c-0.00001-0.56003-0.18522-0.99218-0.55563-1.2965-0.36601-0.30868-0.88195-0.46302-1.5478-0.46302-0.42334 0-0.83565 0.0507-1.2369 0.15213-0.40129 0.10143-0.78714 0.25357-1.1576 0.45641v-1.1245c0.44538-0.17197 0.87754-0.29986 1.2965-0.38365 0.41892-0.0882 0.82682-0.13228 1.2237-0.13229 1.0716 0.00001 1.8719 0.27782 2.4011 0.83344 0.52916 0.55563 0.79375 1.3979 0.79376 2.5268"/>
   <path id="path3046" style="" d="m169.36 293.84h1.2171v10.292h-1.2171v-10.292"/>
   <path id="path3048" style="" d="m178.89 298.15c0.30427-0.5468 0.66807-0.95029 1.0914-1.2105 0.42333-0.26017 0.92163-0.39025 1.4949-0.39026 0.77169 0.00001 1.367 0.27121 1.7859 0.8136 0.41892 0.53799 0.62838 1.3053 0.62839 2.3019v4.4715h-1.2237v-4.4318c-0.00001-0.70996-0.12569-1.2369-0.37703-1.5809-0.25137-0.34395-0.63501-0.51593-1.1509-0.51593-0.6306 0-1.1289 0.20946-1.4949 0.62838-0.36602 0.41893-0.54902 0.98999-0.54902 1.7132v4.187h-1.2237v-4.4318c0-0.71437-0.12568-1.2413-0.37703-1.5809-0.25136-0.34395-0.63941-0.51593-1.1642-0.51593-0.62177 0-1.1157 0.21167-1.4817 0.635-0.36601 0.41893-0.54901 0.98778-0.54901 1.7066v4.187h-1.2237v-7.4084h1.2237v1.1509c0.27781-0.45419 0.61075-0.78933 0.9988-1.0054 0.38806-0.21607 0.84887-0.32411 1.3825-0.32412 0.53798 0.00001 0.99439 0.13671 1.3692 0.41011 0.37923 0.27341 0.65925 0.67028 0.84005 1.1906"/>
   <path id="path3050" style="" d="m189.69 300.41c-0.98338 0-1.6647 0.11245-2.0439 0.33734-0.37924 0.2249-0.56886 0.60855-0.56886 1.1509 0 0.43216 0.14111 0.77612 0.42333 1.0319 0.28663 0.25135 0.67469 0.37703 1.1642 0.37703 0.67469 0 1.2149-0.23812 1.6206-0.71438 0.4101-0.48065 0.61515-1.1179 0.61516-1.9116v-0.27119h-1.2105m2.4276-0.50271v4.2267h-1.2171v-1.1245c-0.27782 0.4498-0.62398 0.78273-1.0385 0.99881-0.41452 0.21167-0.92164 0.3175-1.5214 0.3175-0.75848 0-1.3626-0.21167-1.8124-0.635-0.44539-0.42775-0.66808-0.99881-0.66808-1.7132 0-0.83344 0.27782-1.4618 0.83344-1.8852 0.56004-0.42333 1.3935-0.635 2.5003-0.63501h1.7066v-0.11906c-0.00001-0.56003-0.18522-0.99218-0.55563-1.2965-0.36601-0.30868-0.88195-0.46302-1.5478-0.46302-0.42334 0-0.83565 0.0507-1.2369 0.15213-0.40129 0.10143-0.78714 0.25357-1.1576 0.45641v-1.1245c0.44538-0.17197 0.87754-0.29986 1.2965-0.38365 0.41892-0.0882 0.82682-0.13228 1.2237-0.13229 1.0716 0.00001 1.8719 0.27782 2.4011 0.83344 0.52916 0.55563 0.79375 1.3979 0.79375 2.5268"/>
   <path id="path3052" style="" d="m194.1 296.72h5.7812v1.1113l-4.5773 5.3248h4.5773v0.97235h-5.9465v-1.1113l4.5773-5.3248h-4.4119v-0.97235"/>
   <path id="path3054" style="" d="m211.15 295.88-2.3746 1.2832 2.3746 1.2898-0.38365 0.64823-2.2225-1.3428v2.4937h-0.75406v-2.4937l-2.2225 1.3428-0.38364-0.64823 2.3746-1.2898-2.3746-1.2832 0.38364-0.65485 2.2225 1.3428v-2.4937h0.75406v2.4937l2.2225-1.3428 0.38365 0.65485"/>
  </g>
 </g>
 <path id="line14" d="m74.493 277.5v-210" stroke="#000" stroke-width="2" fill="none"/>
 <path id="line16" d="m214.49 277.5v-210" stroke="#000" stroke-width="2" fill="none"/>
 <g id="g18" transform="translate(-5.5073 -2.5)">
  <path id="polygon20" fill="#fff" d="m420 80v30h-140v-30l10 10 10-10 20 10 20-20 10 10 10-10 10 10 20-10 20 20z"/>
  <path id="polygon22" d="m420 80v30h-140v-30l10 10 10-10 20 10 20-20 10 10 10-10 10 10 20-10 20 20z" stroke="#000" stroke-width="2" fill="none"/>
 </g>
 <g id="g24" transform="translate(-5.5073 -2.5)">
  <path id="polygon26" fill="#fff" d="m420 310v-20h-140v20l10 10 10-10 20 10 20-20 10 10 10-10 10 20 20-20 10 20z"/>
  <path id="polygon28" d="m420 310v-20h-140v20l10 10 10-10 20 10 20-20 10 10 10-10 10 20 20-20 10 20z" stroke="#000" stroke-width="2" fill="none"/>
 </g>
 <g id="g30" transform="translate(-5.5073 -2.5)">
  <path id="rect32" fill="#add8e6" d="m280 210h140v80h-140z"/>
  <path id="rect34" d="m280 210h140v80h-140z" stroke="#000" stroke-width="2" fill="none"/>
  <g id="text36">
   <path id="path3065" style="" d="m324.92 223.96v-3.7875h1.15v9.725h-1.15v-1.05c-0.24167 0.41667-0.54792 0.72709-0.91875 0.93125-0.36667 0.2-0.80834 0.3-1.325 0.3-0.84584 0-1.5354-0.3375-2.0688-1.0125-0.52917-0.67499-0.79375-1.5625-0.79375-2.6625s0.26458-1.9875 0.79375-2.6625c0.53333-0.67499 1.2229-1.0125 2.0688-1.0125 0.51666 0.00001 0.95833 0.10209 1.325 0.30625 0.37083 0.20001 0.67708 0.50834 0.91875 0.925m-3.9188 2.4438c0 0.84584 0.17291 1.5104 0.51875 1.9938 0.35 0.47917 0.82916 0.71875 1.4375 0.71875 0.60833 0 1.0875-0.23958 1.4375-0.71875 0.34999-0.48333 0.52499-1.1479 0.525-1.9938-0.00001-0.84583-0.17501-1.5083-0.525-1.9875-0.35001-0.48332-0.82917-0.72499-1.4375-0.725-0.60834 0.00001-1.0875 0.24168-1.4375 0.725-0.34584 0.47918-0.51875 1.1417-0.51875 1.9875"/>
   <path id="path3067" style="" d="m331.16 223.71c-0.61667 0.00001-1.1042 0.24168-1.4625 0.725-0.35834 0.47918-0.5375 1.1375-0.5375 1.975 0 0.83751 0.17708 1.4979 0.53125 1.9812 0.35833 0.47917 0.84791 0.71875 1.4688 0.71875 0.6125 0 1.0979-0.24166 1.4562-0.725 0.35833-0.48333 0.53749-1.1417 0.5375-1.975-0.00001-0.82916-0.17917-1.4854-0.5375-1.9688-0.35834-0.48749-0.84375-0.73124-1.4562-0.73125m0-0.975c0.99999 0.00001 1.7854 0.32501 2.3562 0.975 0.57083 0.65001 0.85624 1.55 0.85625 2.7-0.00001 1.1458-0.28542 2.0458-0.85625 2.7-0.57084 0.65-1.3563 0.975-2.3562 0.975-1.0042 0-1.7917-0.325-2.3625-0.975-0.56667-0.65416-0.85-1.5542-0.85-2.7 0-1.15 0.28333-2.05 0.85-2.7 0.57083-0.64999 1.3583-0.97499 2.3625-0.975"/>
   <path id="path3069" style="" d="m336.15 227.14v-4.2375h1.15v4.1938c0 0.66251 0.12916 1.1604 0.3875 1.4938 0.25833 0.32917 0.64583 0.49375 1.1625 0.49375 0.62083 0 1.1104-0.19791 1.4688-0.59375 0.36249-0.39583 0.54374-0.93541 0.54375-1.6188v-3.9688h1.15v7h-1.15v-1.075c-0.27917 0.425-0.60417 0.74167-0.975 0.95-0.36667 0.20417-0.79375 0.30625-1.2812 0.30625-0.80417 0-1.4146-0.25-1.8312-0.75-0.41667-0.5-0.625-1.2312-0.625-2.1938m2.8938-4.4062"/>
   <path id="path3071" style="" d="m349.42 226.41c-0.00001-0.84583-0.17501-1.5083-0.525-1.9875-0.34584-0.48332-0.82292-0.72499-1.4312-0.725-0.60834 0.00001-1.0875 0.24168-1.4375 0.725-0.34584 0.47918-0.51875 1.1417-0.51875 1.9875 0 0.84584 0.17291 1.5104 0.51875 1.9938 0.35 0.47917 0.82916 0.71875 1.4375 0.71875 0.60833 0 1.0854-0.23958 1.4312-0.71875 0.34999-0.48333 0.52499-1.1479 0.525-1.9938m-3.9125-2.4438c0.24166-0.41666 0.54583-0.72499 0.9125-0.925 0.37083-0.20416 0.8125-0.30624 1.325-0.30625 0.84999 0.00001 1.5396 0.33751 2.0688 1.0125 0.53333 0.67501 0.79999 1.5625 0.8 2.6625-0.00001 1.1-0.26667 1.9875-0.8 2.6625-0.52917 0.675-1.2188 1.0125-2.0688 1.0125-0.5125 0-0.95417-0.1-1.325-0.3-0.36667-0.20416-0.67084-0.51458-0.9125-0.93125v1.05h-1.1562v-9.725h1.1562v3.7875"/>
   <path id="path3073" style="" d="m352.52 220.17h1.15v9.725h-1.15v-9.725"/>
   <path id="path3075" style="" d="m362.06 226.11v0.5625h-5.2875c0.05 0.79167 0.2875 1.3958 0.7125 1.8125 0.42916 0.4125 1.025 0.61875 1.7875 0.61875 0.44166 0 0.86874-0.0542 1.2812-0.1625 0.41666-0.10833 0.82916-0.27083 1.2375-0.4875v1.0875c-0.41251 0.175-0.83542 0.30834-1.2688 0.4-0.43334 0.0917-0.87292 0.1375-1.3188 0.1375-1.1167 0-2.0021-0.325-2.6562-0.975-0.65-0.64999-0.975-1.5292-0.975-2.6375 0-1.1458 0.30833-2.0542 0.925-2.725 0.62083-0.67499 1.4562-1.0125 2.5062-1.0125 0.94166 0.00001 1.6854 0.30418 2.2312 0.9125 0.54999 0.60418 0.82499 1.4271 0.825 2.4688m-1.15-0.3375c-0.008-0.62916-0.18542-1.1312-0.53125-1.5062-0.34167-0.37499-0.79584-0.56249-1.3625-0.5625-0.64167 0.00001-1.1562 0.18126-1.5438 0.54375-0.38334 0.36251-0.60417 0.87293-0.6625 1.5312l4.1-0.006"/>
   <path id="path3077" style="" d="m363.84 220.17h2.65v0.89375h-1.5v9.625h1.5v0.89375h-2.65v-11.412"/>
   <path id="path3079" style="" d="m372.93 224.87c0.60416 0.12918 1.075 0.39793 1.4125 0.80625 0.34166 0.40834 0.51249 0.91251 0.5125 1.5125-0.00001 0.92084-0.31667 1.6333-0.95 2.1375-0.63334 0.50417-1.5333 0.75625-2.7 0.75625-0.39167 0-0.79584-0.0396-1.2125-0.11875-0.4125-0.075-0.83959-0.18958-1.2812-0.34375v-1.2188c0.35 0.20417 0.73333 0.35834 1.15 0.4625 0.41666 0.10417 0.85208 0.15625 1.3062 0.15625 0.79166 0 1.3937-0.15625 1.8062-0.46875 0.41666-0.31249 0.62499-0.76666 0.625-1.3625-0.00001-0.54999-0.19376-0.97916-0.58125-1.2875-0.38334-0.31249-0.91875-0.46874-1.6062-0.46875h-1.0875v-1.0375h1.1375c0.62083 0.00001 1.0958-0.12291 1.425-0.36875 0.32916-0.24999 0.49374-0.60832 0.49375-1.075-0.00001-0.47916-0.17084-0.84582-0.5125-1.1-0.33751-0.25832-0.82292-0.38749-1.4562-0.3875-0.34584 0.00001-0.71667 0.0375-1.1125 0.1125-0.39584 0.075-0.83125 0.19168-1.3062 0.35v-1.125c0.47916-0.13332 0.92708-0.23332 1.3438-0.3 0.42083-0.0667 0.81666-0.1 1.1875-0.1 0.95833 0.00001 1.7167 0.21876 2.275 0.65625 0.55833 0.43335 0.83749 1.0208 0.8375 1.7625-0.00001 0.51668-0.14792 0.95418-0.44375 1.3125-0.29584 0.35418-0.71667 0.60001-1.2625 0.7375"/>
   <path id="path3081" style="" d="m379.78 220.17v11.412h-2.65v-0.89375h1.4938v-9.625h-1.4938v-0.89375h2.65"/>
   <path id="path3083" style="" d="m340.93 240.87c0.60416 0.12918 1.075 0.39793 1.4125 0.80625 0.34166 0.40834 0.51249 0.91251 0.5125 1.5125-0.00001 0.92084-0.31667 1.6333-0.95 2.1375-0.63334 0.50417-1.5333 0.75625-2.7 0.75625-0.39167 0-0.79584-0.0396-1.2125-0.11875-0.4125-0.075-0.83958-0.18958-1.2812-0.34375v-1.2188c0.35 0.20417 0.73333 0.35834 1.15 0.4625 0.41666 0.10417 0.85208 0.15625 1.3062 0.15625 0.79166 0 1.3938-0.15625 1.8062-0.46875 0.41666-0.31249 0.62499-0.76666 0.625-1.3625-0.00001-0.54999-0.19376-0.97916-0.58125-1.2875-0.38334-0.31249-0.91875-0.46874-1.6062-0.46875h-1.0875v-1.0375h1.1375c0.62083 0.00001 1.0958-0.12291 1.425-0.36875 0.32916-0.24999 0.49374-0.60832 0.49375-1.075-0.00001-0.47916-0.17084-0.84582-0.5125-1.1-0.3375-0.25832-0.82292-0.38749-1.4562-0.3875-0.34584 0.00001-0.71667 0.0375-1.1125 0.1125-0.39584 0.075-0.83125 0.19168-1.3062 0.35v-1.125c0.47916-0.13332 0.92708-0.23332 1.3438-0.3 0.42083-0.0667 0.81666-0.1 1.1875-0.1 0.95833 0.00001 1.7167 0.21876 2.275 0.65625 0.55833 0.43335 0.83749 1.0208 0.8375 1.7625-0.00001 0.51668-0.14792 0.95418-0.44375 1.3125-0.29584 0.35418-0.71667 0.60001-1.2625 0.7375"/>
   <path id="path3085" style="" d="m345.26 244.31h1.3188v1.5875h-1.3188v-1.5875"/>
   <path id="path3087" style="" d="m349.55 244.84h2.0625v-7.1188l-2.2438 0.45v-1.15l2.2312-0.45h1.2625v8.2688h2.0625v1.0625h-5.375v-1.0625"/>
   <path id="path3089" style="" d="m360.95 237.67-3.1875 4.9812h3.1875v-4.9812m-0.33125-1.1h1.5875v6.0812h1.3312v1.05h-1.3312v2.2h-1.2562v-2.2h-4.2125v-1.2188l3.8812-5.9125"/>
   <path id="path3091" style="" d="m342.27 260.84h4.4062v1.0625h-5.925v-1.0625c0.47917-0.49583 1.1312-1.1604 1.9562-1.9938 0.82916-0.83749 1.35-1.3771 1.5625-1.6188 0.40416-0.45416 0.68541-0.83749 0.84375-1.15 0.16249-0.31666 0.24374-0.62707 0.24375-0.93125-0.00001-0.49582-0.17501-0.89999-0.525-1.2125-0.34584-0.31249-0.79792-0.46874-1.3562-0.46875-0.39584 0.00001-0.81459 0.0688-1.2562 0.20625-0.4375 0.13751-0.90625 0.34584-1.4062 0.625v-1.275c0.50833-0.20415 0.98333-0.35832 1.425-0.4625 0.44166-0.10415 0.84583-0.15624 1.2125-0.15625 0.96666 0.00001 1.7375 0.24168 2.3125 0.725 0.57499 0.48335 0.86249 1.1292 0.8625 1.9375-0.00001 0.38334-0.0729 0.74793-0.21875 1.0938-0.14167 0.34168-0.40209 0.74584-0.78125 1.2125-0.10417 0.12084-0.43542 0.47084-0.99375 1.05-0.55834 0.57501-1.3458 1.3813-2.3625 2.4188"/>
   <path id="path3093" style="" d="m349.33 260.31h1.3188v1.5875h-1.3188v-1.5875"/>
   <path id="path3095" style="" d="m356.11 253.4c-0.65 0.00001-1.1396 0.32085-1.4688 0.9625-0.325 0.63751-0.4875 1.5979-0.4875 2.8812 0 1.2792 0.1625 2.2396 0.4875 2.8812 0.32916 0.63751 0.81875 0.95625 1.4688 0.95625 0.65416 0 1.1438-0.31874 1.4688-0.95625 0.32916-0.64166 0.49374-1.6021 0.49375-2.8812-0.00001-1.2833-0.16459-2.2437-0.49375-2.8812-0.325-0.64165-0.81459-0.96249-1.4688-0.9625m0-1c1.0458 0.00001 1.8437 0.4146 2.3938 1.2438 0.55416 0.82501 0.83124 2.025 0.83125 3.6-0.00001 1.5708-0.27709 2.7708-0.83125 3.6-0.55001 0.825-1.3479 1.2375-2.3938 1.2375-1.0458 0-1.8458-0.4125-2.4-1.2375-0.55-0.82916-0.825-2.0292-0.825-3.6 0-1.575 0.275-2.775 0.825-3.6 0.55416-0.82915 1.3542-1.2437 2.4-1.2438"/>
   <path id="path3097" style="" d="m344.04 272.73c-0.56667 0.00001-1.0167 0.19376-1.35 0.58125-0.32917 0.38751-0.49375 0.91876-0.49375 1.5938 0 0.67084 0.16458 1.2021 0.49375 1.5938 0.33333 0.3875 0.78333 0.58125 1.35 0.58125 0.56666 0 1.0146-0.19375 1.3438-0.58125 0.33333-0.39166 0.49999-0.92291 0.5-1.5938-0.00001-0.67499-0.16667-1.2062-0.5-1.5938-0.32917-0.38749-0.77709-0.58124-1.3438-0.58125m2.5062-3.9562v1.15c-0.31667-0.14999-0.63751-0.26457-0.9625-0.34375-0.32084-0.0791-0.63959-0.11874-0.95625-0.11875-0.83334 0.00001-1.4708 0.28126-1.9125 0.84375-0.4375 0.56251-0.6875 1.4125-0.75 2.55 0.24583-0.36249 0.55416-0.63957 0.925-0.83125 0.37083-0.19582 0.77916-0.29374 1.225-0.29375 0.93749 0.00001 1.6771 0.28543 2.2188 0.85625 0.54583 0.56668 0.81874 1.3396 0.81875 2.3188-0.00001 0.95834-0.28334 1.7271-0.85 2.3062-0.56667 0.57917-1.3208 0.86875-2.2625 0.86875-1.0792 0-1.9042-0.4125-2.475-1.2375-0.57083-0.82916-0.85625-2.0292-0.85625-3.6 0-1.475 0.35-2.65 1.05-3.525 0.7-0.87915 1.6396-1.3187 2.8188-1.3188 0.31666 0.00001 0.63541 0.0313 0.95625 0.0937 0.32499 0.0625 0.66249 0.15626 1.0125 0.28125"/>
   <path id="path3099" style="" d="m349.33 276.31h1.3188v1.5875h-1.3188v-1.5875"/>
   <path id="path3101" style="" d="m353.62 276.84h2.0625v-7.1188l-2.2438 0.45v-1.15l2.2312-0.45h1.2625v8.2688h2.0625v1.0625h-5.375v-1.0625"/>
  </g>
 </g>
 <g id="g46" stroke="#000" stroke-width="2" fill="none" transform="translate(-5.5073 -2.5)">
  <path id="path48" d="m280 160c-20-4-40 60-4.472 60"/>
  <path id="polyline50" d="m267.76 225 10-5-10-5"/>
 </g>
 <g id="text52">
  <path id="path3105" style="" d="m125.71 57.5-3.5625-9.3312h1.3188l2.9562 7.8562 2.9625-7.8562h1.3125l-3.5562 9.3312h-1.4312"/>
  <path id="path3107" style="" d="m132.05 48.169h5.9v1.0625h-4.6375v2.7625h4.4438v1.0625h-4.4438v3.3812h4.75v1.0625h-6.0125v-9.3312"/>
  <path id="path3109" style="" d="m144.57 53.125c0.27083 0.09167 0.53333 0.2875 0.7875 0.5875 0.25833 0.3 0.51666 0.7125 0.775 1.2375l1.2812 2.55h-1.3562l-1.1938-2.3938c-0.30834-0.625-0.60834-1.0396-0.9-1.2438-0.2875-0.20416-0.68125-0.30625-1.1812-0.30625h-1.375v3.9438h-1.2625v-9.3312h2.85c1.0667 0.000009 1.8625 0.22293 2.3875 0.66875 0.52499 0.44584 0.78749 1.1188 0.7875 2.0188-0.00001 0.58751-0.13751 1.075-0.4125 1.4625-0.27084 0.3875-0.66667 0.65625-1.1875 0.80625m-3.1625-3.9188v3.3125h1.5875c0.60833 0.000005 1.0667-0.13958 1.375-0.41875 0.3125-0.28333 0.46875-0.69791 0.46875-1.2438 0-0.54583-0.15625-0.95624-0.46875-1.2312-0.30834-0.27916-0.76667-0.41874-1.375-0.41875h-1.5875"/>
  <path id="path3111" style="" d="m149.05 48.169h5.9v1.0625h-4.6375v2.7625h4.4438v1.0625h-4.4438v3.3812h4.75v1.0625h-6.0125v-9.3312"/>
  <path id="path3113" style="" d="m157.15 48.169h1.8812l2.3812 6.35 2.3938-6.35h1.8812v9.3312h-1.2312v-8.1938l-2.4062 6.4h-1.2688l-2.4062-6.4v8.1938h-1.225v-9.3312"/>
 </g>
 <g id="text56">
  <path id="path3116" style="" d="m324.84 48.169h1.2625v3.9438l4.1875-3.9438h1.625l-4.6312 4.35 4.9625 4.9812h-1.6625l-4.4812-4.4938v4.4938h-1.2625v-9.3312"/>
  <path id="path3118" style="" d="m332.76 48.169h1.2688v5.6688c-0.00001 1 0.18124 1.7208 0.54375 2.1625 0.36249 0.4375 0.94999 0.65625 1.7625 0.65625 0.80832 0.000001 1.3937-0.21875 1.7562-0.65625 0.36249-0.44166 0.54374-1.1625 0.54375-2.1625v-5.6688h1.2688v5.825c-0.00001 1.2167-0.30209 2.1354-0.90625 2.7562-0.60001 0.62083-1.4875 0.93125-2.6625 0.93125-1.1792 0-2.0708-0.31042-2.675-0.93125-0.6-0.62083-0.9-1.5396-0.9-2.7562v-5.825"/>
  <path id="path3120" style="" d="m343.54 49.206v3.5062h1.5875c0.58749 0.000005 1.0417-0.15208 1.3625-0.45625 0.32083-0.30416 0.48124-0.73749 0.48125-1.3-0.00001-0.55833-0.16042-0.98958-0.48125-1.2938-0.32084-0.30416-0.77501-0.45624-1.3625-0.45625h-1.5875m-1.2625-1.0375h2.85c1.0458 0.000009 1.8354 0.23751 2.3688 0.7125 0.53749 0.47084 0.80624 1.1625 0.80625 2.075-0.00001 0.92084-0.26876 1.6167-0.80625 2.0875-0.53334 0.47084-1.3229 0.70625-2.3688 0.70625h-1.5875v3.75h-1.2625v-9.3312"/>
  <path id="path3122" style="" d="m352.3 49.412-1.7125 4.6438h3.4312l-1.7188-4.6438m-0.7125-1.2438h1.4312l3.5562 9.3312h-1.3125l-0.85-2.3938h-4.2062l-0.85 2.3938h-1.3312l3.5625-9.3312"/>
  <path id="path3124" style="" d="m364.69 48.888v1.3312c-0.42501-0.39583-0.87917-0.69166-1.3625-0.8875-0.47917-0.19582-0.98959-0.29374-1.5312-0.29375-1.0667 0.000008-1.8833 0.32709-2.45 0.98125-0.56667 0.65001-0.85 1.5917-0.85 2.825 0 1.2292 0.28333 2.1708 0.85 2.825 0.56666 0.65 1.3833 0.975 2.45 0.975 0.54166 0.000001 1.0521-0.09792 1.5312-0.29375 0.48333-0.19583 0.93749-0.49166 1.3625-0.8875v1.3188c-0.44168 0.3-0.91042 0.525-1.4062 0.675-0.49167 0.15-1.0125 0.225-1.5625 0.225-1.4125 0-2.525-0.43125-3.3375-1.2938-0.8125-0.86666-1.2188-2.0479-1.2188-3.5438 0-1.5 0.40625-2.6812 1.2188-3.5438 0.8125-0.86666 1.925-1.3 3.3375-1.3 0.55833 0.000009 1.0833 0.07501 1.575 0.225 0.49583 0.14584 0.96041 0.36668 1.3938 0.6625"/>
 </g>
 <g id="g60" transform="translate(-5.5073 -2.5)">
  <path id="rect62" fill="#add8e6" d="m280 110h140v60h-140z"/>
  <path id="rect64" d="m280 110h140v60h-140z" stroke="#000" stroke-width="2" fill="none"/>
  <g id="text66">
   <path id="path3129" style="" d="m308.73 120.01v1.1509c-0.34396-0.17639-0.70115-0.30868-1.0716-0.39688-0.37042-0.0882-0.75407-0.13228-1.1509-0.13229-0.60414 0.00001-1.0583 0.0926-1.3626 0.27781-0.29986 0.18522-0.44979 0.46303-0.44979 0.83344 0 0.28223 0.10804 0.50492 0.32411 0.66808 0.21608 0.15875 0.65044 0.31089 1.3031 0.4564l0.41672 0.0926c0.8643 0.18521 1.4773 0.44759 1.8389 0.78714 0.366 0.33514 0.549 0.80477 0.54901 1.4089-0.00001 0.68792-0.27341 1.2325-0.82021 1.6338-0.5424 0.40129-1.2898 0.60193-2.2424 0.60193-0.39688 0-0.81139-0.0397-1.2435-0.11906-0.42775-0.075-0.87975-0.18962-1.356-0.34396v-1.2568c0.44979 0.23372 0.89297 0.41011 1.3295 0.52917 0.43656 0.11466 0.86871 0.17198 1.2965 0.17198 0.57326 0 1.0142-0.097 1.3229-0.29104 0.30868-0.19844 0.46302-0.47625 0.46302-0.83344 0-0.33073-0.11245-0.58429-0.33734-0.76068-0.22049-0.17639-0.70777-0.34616-1.4618-0.50932l-0.42333-0.0992c-0.75407-0.15875-1.2987-0.40128-1.6338-0.72761-0.33514-0.33072-0.50271-0.78272-0.50271-1.356 0-0.69673 0.24694-1.2347 0.74084-1.614 0.49388-0.37923 1.195-0.56885 2.1034-0.56886 0.44979 0.00001 0.87312 0.0331 1.27 0.0992 0.39687 0.0661 0.76288 0.16537 1.098 0.29766"/>
   <path id="path3131" style="" d="m312.28 117.69v2.1034h2.5069v0.94588h-2.5069v4.0217c0 0.60414 0.0816 0.99219 0.24474 1.1642 0.16757 0.17198 0.50491 0.25797 1.012 0.25797h1.2502v1.0186h-1.2502c-0.93927 0-1.5875-0.17419-1.9447-0.52256-0.35719-0.35277-0.53578-0.99218-0.53578-1.9182v-4.0217h-0.89297v-0.94588h0.89297v-2.1034h1.2237"/>
   <path id="path3133" style="" d="m320.68 120.93c-0.13671-0.0794-0.28664-0.1367-0.4498-0.17198-0.15875-0.0397-0.33514-0.0595-0.52916-0.0595-0.68793 0-1.2171 0.2249-1.5875 0.67468-0.36601 0.44539-0.54901 1.087-0.54901 1.9248v3.9026h-1.2237v-7.4084h1.2237v1.1509c0.25576-0.44979 0.5887-0.78272 0.9988-0.99881 0.41011-0.22048 0.9084-0.33072 1.4949-0.33073 0.0838 0.00001 0.17639 0.007 0.27782 0.0199 0.10142 0.009 0.21386 0.0243 0.33734 0.0463l0.007 1.2502"/>
   <path id="path3135" style="" d="m321.85 124.28v-4.4847h1.2171v4.4384c0 0.70115 0.1367 1.2281 0.41011 1.5809 0.2734 0.34837 0.6835 0.52256 1.2303 0.52255 0.65705 0.00001 1.1752-0.20946 1.5544-0.62838 0.38364-0.41893 0.57547-0.98999 0.57547-1.7132v-4.2003h1.2171v7.4084h-1.2171v-1.1377c-0.29545 0.44979-0.63941 0.78493-1.0319 1.0054-0.38807 0.21608-0.84006 0.32412-1.356 0.32412-0.85108 0-1.4971-0.26458-1.9381-0.79375-0.44098-0.52917-0.66147-1.3031-0.66146-2.3217m3.0626-4.6633"/>
   <path id="path3137" style="" d="m335.9 120.08v1.1377c-0.34397-0.18961-0.69013-0.33072-1.0385-0.42333-0.34397-0.097-0.69234-0.14551-1.0451-0.14552-0.78935 0.00001-1.4023 0.25136-1.8389 0.75406-0.43656 0.49831-0.65485 1.1995-0.65484 2.1034-0.00001 0.90399 0.21828 1.6074 0.65484 2.11 0.43656 0.4983 1.0495 0.74745 1.8389 0.74745 0.35277 0 0.70114-0.0463 1.0451-0.1389 0.34836-0.097 0.69452-0.24033 1.0385-0.42995v1.1245c-0.33956 0.15875-0.69233 0.27781-1.0583 0.35719-0.3616 0.0794-0.74745 0.11906-1.1576 0.11906-1.1157 0-2.002-0.35057-2.6591-1.0517-0.65705-0.70115-0.98558-1.647-0.98558-2.8377 0-1.2083 0.33073-2.1586 0.99219-2.8509 0.66587-0.69232 1.5765-1.0385 2.7318-1.0385 0.37483 0.00001 0.74083 0.0397 1.098 0.11906 0.35718 0.075 0.70334 0.18963 1.0385 0.34396"/>
   <path id="path3139" style="" d="m339.24 117.69v2.1034h2.5069v0.94588h-2.5069v4.0217c-0.00001 0.60414 0.0816 0.99219 0.24474 1.1642 0.16756 0.17198 0.50491 0.25797 1.012 0.25797h1.2502v1.0186h-1.2502c-0.93928 0-1.5875-0.17419-1.9447-0.52256-0.35719-0.35277-0.53579-0.99218-0.53579-1.9182v-4.0217h-0.89297v-0.94588h0.89297v-2.1034h1.2237"/>
   <path id="path3141" style="" d="m347.72 117.32h1.3362v4.0481h4.8551v-4.0481h1.3362v9.8756h-1.3362v-4.703h-4.8551v4.703h-1.3362v-9.8756"/>
   <path id="path3143" style="" d="m361.22 123.48c-0.98337 0-1.6647 0.11245-2.0439 0.33734-0.37924 0.2249-0.56886 0.60855-0.56886 1.1509 0 0.43216 0.14111 0.77612 0.42334 1.0319 0.28663 0.25136 0.67468 0.37703 1.1642 0.37703 0.67468 0 1.2149-0.23812 1.6206-0.71437 0.4101-0.48066 0.61516-1.1179 0.61516-1.9116v-0.2712h-1.2105m2.4276-0.50271v4.2267h-1.2171v-1.1245c-0.27782 0.44979-0.62398 0.78272-1.0385 0.9988-0.41452 0.21167-0.92164 0.3175-1.5214 0.3175-0.75847 0-1.3626-0.21167-1.8124-0.635-0.44538-0.42774-0.66807-0.9988-0.66807-1.7132 0-0.83344 0.27781-1.4618 0.83344-1.8852 0.56003-0.42333 1.3935-0.635 2.5003-0.635h1.7066v-0.11907c0-0.56003-0.18521-0.99218-0.55562-1.2965-0.36602-0.30867-0.88196-0.46301-1.5478-0.46302-0.42334 0.00001-0.83565 0.0507-1.2369 0.15213-0.40129 0.10143-0.78714 0.25357-1.1576 0.45641v-1.1245c0.44539-0.17197 0.87754-0.29985 1.2965-0.38365 0.41892-0.0882 0.82682-0.13228 1.2237-0.13229 1.0716 0.00001 1.8719 0.27782 2.4011 0.83344 0.52916 0.55563 0.79374 1.3979 0.79375 2.5268"/>
   <path id="path3145" style="" d="m366.16 116.91h1.2171v10.292h-1.2171v-10.292"/>
   <path id="path3147" style="" d="m375.68 121.21c0.30426-0.5468 0.66807-0.95029 1.0914-1.2105 0.42332-0.26016 0.92162-0.39025 1.4949-0.39026 0.77169 0.00001 1.367 0.27121 1.7859 0.8136 0.41891 0.53799 0.62837 1.3053 0.62839 2.3019v4.4715h-1.2237v-4.4318c-0.00001-0.70997-0.12568-1.2369-0.37703-1.5809-0.25136-0.34396-0.63501-0.51594-1.1509-0.51594-0.6306 0-1.1289 0.20947-1.4949 0.62838-0.36601 0.41893-0.54902 0.98999-0.54901 1.7132v4.187h-1.2237v-4.4318c-0.00001-0.71438-0.12568-1.2413-0.37703-1.5809-0.25136-0.34396-0.63942-0.51594-1.1642-0.51594-0.62178 0-1.1157 0.21167-1.4817 0.635-0.36601 0.41893-0.54902 0.98778-0.54901 1.7066v4.187h-1.2237v-7.4084h1.2237v1.1509c0.27781-0.4542 0.61074-0.78934 0.9988-1.0054 0.38805-0.21607 0.84887-0.32411 1.3824-0.32412 0.53798 0.00001 0.99439 0.13671 1.3692 0.41011 0.37923 0.27341 0.65925 0.67028 0.84006 1.1906"/>
   <path id="path3149" style="" d="m386.49 123.48c-0.98337 0-1.6647 0.11245-2.0439 0.33734-0.37924 0.2249-0.56886 0.60855-0.56885 1.1509-0.00001 0.43216 0.14111 0.77612 0.42333 1.0319 0.28663 0.25136 0.67469 0.37703 1.1642 0.37703 0.67468 0 1.2149-0.23812 1.6206-0.71437 0.4101-0.48066 0.61515-1.1179 0.61515-1.9116v-0.2712h-1.2105m2.4276-0.50271v4.2267h-1.2171v-1.1245c-0.27781 0.44979-0.62398 0.78272-1.0385 0.9988-0.41452 0.21167-0.92164 0.3175-1.5214 0.3175-0.75847 0-1.3626-0.21167-1.8124-0.635-0.44538-0.42774-0.66807-0.9988-0.66807-1.7132 0-0.83344 0.27781-1.4618 0.83344-1.8852 0.56003-0.42333 1.3935-0.635 2.5003-0.635h1.7066v-0.11907c0-0.56003-0.18521-0.99218-0.55562-1.2965-0.36601-0.30867-0.88195-0.46301-1.5478-0.46302-0.42334 0.00001-0.83565 0.0507-1.2369 0.15213-0.40129 0.10143-0.78714 0.25357-1.1576 0.45641v-1.1245c0.44538-0.17197 0.87753-0.29985 1.2965-0.38365 0.41892-0.0882 0.82682-0.13228 1.2237-0.13229 1.0716 0.00001 1.8719 0.27782 2.4011 0.83344 0.52916 0.55563 0.79374 1.3979 0.79375 2.5268"/>
   <path id="path3151" style="" d="m390.9 119.79h5.7812v1.1112l-4.5773 5.3248h4.5773v0.97235h-5.9465v-1.1113l4.5773-5.3248h-4.4119v-0.97234"/>
   <path id="path3153" style="" d="m331.68 136.72h1.2171v7.4084h-1.2171v-7.4084m0-2.884h1.2171v1.5412h-1.2171v-1.5412"/>
   <path id="path3155" style="" d="m341.6 139.66v4.4715h-1.2171v-4.4318c0-0.70114-0.13671-1.2259-0.4101-1.5743-0.27341-0.34836-0.68352-0.52255-1.2303-0.52255-0.65705 0-1.1752 0.20946-1.5544 0.62838-0.37924 0.41893-0.56886 0.98999-0.56885 1.7132v4.187h-1.2237v-7.4084h1.2237v1.1509c0.29104-0.44537 0.63279-0.77831 1.0253-0.9988 0.39687-0.22048 0.85328-0.33072 1.3692-0.33073 0.85107 0.00001 1.4949 0.26459 1.9315 0.79375 0.43656 0.52477 0.65484 1.2987 0.65485 2.3217"/>
   <path id="path3157" style="" d="m345.24 134.62v2.1034h2.5069v0.94589h-2.5069v4.0217c0 0.60413 0.0816 0.99219 0.24474 1.1642 0.16757 0.17198 0.50491 0.25797 1.012 0.25797h1.2502v1.0186h-1.2502c-0.93928 0-1.5875-0.17419-1.9447-0.52256-0.35719-0.35278-0.53578-0.99219-0.53578-1.9182v-4.0217h-0.89297v-0.94589h0.89297v-2.1034h1.2237"/>
   <path id="path3159" style="" d="m358.55 137.85v-4.0084h1.2171v10.292h-1.2171v-1.1113c-0.25577 0.44098-0.57988 0.7695-0.97234 0.98558-0.38806 0.21167-0.8555 0.3175-1.4023 0.3175-0.89518 0-1.625-0.35719-2.1894-1.0716-0.56004-0.71437-0.84006-1.6536-0.84005-2.8178-0.00001-1.1642 0.28001-2.1034 0.84005-2.8178 0.56444-0.71437 1.2942-1.0716 2.1894-1.0716 0.5468 0.00001 1.0142 0.10805 1.4023 0.32412 0.39246 0.21167 0.71657 0.53799 0.97234 0.97896m-4.1474 2.5863c0 0.89518 0.183 1.5985 0.54901 2.1101 0.37042 0.50712 0.87753 0.76068 1.5214 0.76068 0.64382 0 1.1509-0.25356 1.5214-0.76068 0.37041-0.51153 0.55562-1.2149 0.55562-2.1101 0-0.89517-0.18521-1.5963-0.55562-2.1034-0.37043-0.51152-0.87754-0.76729-1.5214-0.76729-0.64383 0-1.1509 0.25577-1.5214 0.76729-0.36601 0.50713-0.54901 1.2083-0.54901 2.1034"/>
   <path id="path3161" style="" d="m367.59 140.44c-0.00001-0.89517-0.18522-1.5963-0.55563-2.1034-0.36601-0.51152-0.87092-0.76729-1.5147-0.76729-0.64383 0-1.1509 0.25577-1.5214 0.76729-0.36601 0.50713-0.54901 1.2083-0.54901 2.1034 0 0.89518 0.183 1.5985 0.54901 2.1101 0.37042 0.50712 0.87753 0.76068 1.5214 0.76068 0.64382 0 1.1487-0.25356 1.5147-0.76068 0.37041-0.51153 0.55562-1.2149 0.55563-2.1101m-4.1407-2.5863c0.25576-0.44097 0.57767-0.76729 0.96573-0.97896 0.39246-0.21607 0.8599-0.32411 1.4023-0.32412 0.89958 0.00001 1.6294 0.3572 2.1894 1.0716 0.56444 0.71438 0.84666 1.6536 0.84667 2.8178-0.00001 1.1642-0.28223 2.1034-0.84667 2.8178-0.56004 0.71438-1.2898 1.0716-2.1894 1.0716-0.5424 0-1.0098-0.10583-1.4023-0.3175-0.38806-0.21608-0.70997-0.5446-0.96573-0.98558v1.1113h-1.2237v-10.292h1.2237v4.0084"/>
   <path id="path3163" style="" d="m312.26 154.78v-4.0084h1.2171v10.292h-1.2171v-1.1112c-0.25577 0.44097-0.57989 0.7695-0.97235 0.98557-0.38806 0.21167-0.85549 0.3175-1.4023 0.3175-0.89517 0-1.625-0.35718-2.1894-1.0716-0.56003-0.71438-0.84005-1.6536-0.84005-2.8178s0.28002-2.1034 0.84005-2.8178c0.56445-0.71437 1.2943-1.0716 2.1894-1.0716 0.54681 0 1.0142 0.10804 1.4023 0.32411 0.39246 0.21168 0.71658 0.538 0.97235 0.97896m-4.1474 2.5863c0 0.89518 0.183 1.5985 0.54901 2.1101 0.37042 0.50712 0.87754 0.76068 1.5214 0.76068 0.64382 0 1.1509-0.25356 1.5214-0.76068 0.37041-0.51153 0.55562-1.2149 0.55563-2.1101-0.00001-0.89517-0.18522-1.5963-0.55563-2.1034-0.37042-0.51153-0.87754-0.76729-1.5214-0.7673-0.64382 0.00001-1.1509 0.25577-1.5214 0.7673-0.36601 0.50712-0.54901 1.2083-0.54901 2.1034"/>
   <path id="path3165" style="" d="m318.85 154.51c-0.65264 0.00001-1.1686 0.25577-1.5478 0.7673-0.37924 0.50712-0.56886 1.2039-0.56886 2.0902 0 0.88636 0.18741 1.5853 0.56224 2.0968 0.37923 0.50712 0.89738 0.76068 1.5544 0.76068 0.64823 0 1.162-0.25577 1.5412-0.7673 0.37923-0.51152 0.56885-1.2083 0.56886-2.0902-0.00001-0.87753-0.18963-1.5721-0.56886-2.0836-0.37924-0.51593-0.89297-0.7739-1.5412-0.77391m0-1.0319c1.0583 0 1.8896 0.34396 2.4937 1.0319 0.60412 0.68793 0.90619 1.6404 0.9062 2.8575-0.00001 1.2127-0.30208 2.1652-0.9062 2.8575-0.60414 0.68792-1.4354 1.0319-2.4937 1.0319-1.0628 0-1.8962-0.34395-2.5003-1.0319-0.59972-0.69233-0.89958-1.6448-0.89958-2.8575 0-1.2171 0.29986-2.1696 0.89958-2.8575 0.60413-0.68791 1.4376-1.0319 2.5003-1.0319"/>
   <path id="path3167" style="" d="m324.14 158.14v-4.4847h1.2171v4.4384c0 0.70115 0.1367 1.2281 0.41011 1.5809 0.2734 0.34837 0.6835 0.52255 1.2303 0.52255 0.65705 0 1.1752-0.20946 1.5544-0.62839 0.38364-0.41892 0.57546-0.98998 0.57547-1.7132v-4.2003h1.2171v7.4084h-1.2171v-1.1377c-0.29546 0.44979-0.63942 0.78493-1.0319 1.0054-0.38806 0.21608-0.84006 0.32411-1.356 0.32411-0.85109 0-1.4971-0.26458-1.9381-0.79375-0.44098-0.52916-0.66146-1.3031-0.66146-2.3217m3.0626-4.6633"/>
   <path id="path3169" style="" d="m338.18 157.37c-0.00001-0.89517-0.18521-1.5963-0.55563-2.1034-0.36601-0.51153-0.87092-0.76729-1.5147-0.7673-0.64382 0.00001-1.1509 0.25577-1.5214 0.7673-0.36601 0.50712-0.54901 1.2083-0.54901 2.1034 0 0.89518 0.183 1.5985 0.54901 2.1101 0.37042 0.50712 0.87754 0.76068 1.5214 0.76068 0.64382 0 1.1487-0.25356 1.5147-0.76068 0.37042-0.51153 0.55562-1.2149 0.55563-2.1101m-4.1407-2.5863c0.25576-0.44096 0.57767-0.76728 0.96573-0.97896 0.39247-0.21607 0.8599-0.32411 1.4023-0.32411 0.89958 0 1.6294 0.35719 2.1894 1.0716 0.56444 0.71438 0.84666 1.6537 0.84667 2.8178-0.00001 1.1642-0.28223 2.1034-0.84667 2.8178-0.56004 0.71438-1.2898 1.0716-2.1894 1.0716-0.5424 0-1.0098-0.10583-1.4023-0.3175-0.38806-0.21607-0.70997-0.5446-0.96573-0.98557v1.1112h-1.2237v-10.292h1.2237v4.0084"/>
   <path id="path3171" style="" d="m341.46 150.77h1.2171v10.292h-1.2171v-10.292"/>
   <path id="path3173" style="" d="m351.55 157.06v0.59532h-5.596c0.0529 0.83785 0.30427 1.4773 0.75407 1.9182 0.4542 0.43657 1.0848 0.65485 1.8918 0.65485 0.46743 0 0.91943-0.0573 1.356-0.17198 0.44097-0.11465 0.87753-0.28663 1.3097-0.51594v1.1509c-0.43657 0.18521-0.88415 0.32632-1.3428 0.42333-0.45862 0.097-0.92384 0.14552-1.3957 0.14552-1.1818 0-2.1189-0.34395-2.8112-1.0319-0.68792-0.68792-1.0319-1.6184-1.0319-2.7914 0-1.2127 0.32632-2.174 0.97896-2.884 0.65705-0.71437 1.5412-1.0716 2.6524-1.0716 0.9966 0 1.7837 0.32191 2.3614 0.96573 0.58207 0.63941 0.87312 1.5103 0.87312 2.6128m-1.2171-0.35718c-0.009-0.66587-0.19624-1.1972-0.56224-1.5941-0.36161-0.39687-0.84227-0.59531-1.442-0.59532-0.6791 0.00001-1.2237 0.19183-1.6338 0.57547-0.4057 0.38366-0.63942 0.92385-0.70115 1.6206l4.3392-0.007"/>
   <path id="path3175" style="" d="m362.96 152.82-2.3746 1.2832 2.3746 1.2898-0.38364 0.64823-2.2225-1.3428v2.4937h-0.75406v-2.4937l-2.2225 1.3428-0.38365-0.64823 2.3746-1.2898-2.3746-1.2832 0.38365-0.65485 2.2225 1.3428v-2.4937h0.75406v2.4937l2.2225-1.3428 0.38364 0.65485"/>
   <path id="path3177" style="" d="m368 157.34c-0.98337 0.00001-1.6647 0.11245-2.0439 0.33735-0.37924 0.2249-0.56886 0.60854-0.56886 1.1509 0 0.43215 0.14111 0.77611 0.42334 1.0319 0.28663 0.25136 0.67468 0.37704 1.1642 0.37704 0.67468 0 1.2149-0.23813 1.6206-0.71438 0.41009-0.48066 0.61515-1.1179 0.61515-1.9116v-0.2712h-1.2105m2.4276-0.50271v4.2267h-1.2171v-1.1245c-0.27782 0.44979-0.62398 0.78273-1.0385 0.9988-0.41452 0.21167-0.92164 0.3175-1.5214 0.3175-0.75847 0-1.3626-0.21166-1.8124-0.635-0.44538-0.42774-0.66807-0.9988-0.66807-1.7132 0-0.83343 0.27781-1.4618 0.83344-1.8852 0.56003-0.42333 1.3935-0.635 2.5003-0.635h1.7066v-0.11906c0-0.56003-0.18521-0.99219-0.55562-1.2965-0.36602-0.30868-0.88195-0.46302-1.5478-0.46303-0.42334 0.00001-0.83565 0.0507-1.2369 0.15214-0.40129 0.10143-0.78714 0.25356-1.1576 0.45641v-1.1245c0.44538-0.17197 0.87753-0.29985 1.2965-0.38364 0.41892-0.0882 0.82682-0.13229 1.2237-0.13229 1.0716 0 1.8719 0.27782 2.4011 0.83344 0.52916 0.55563 0.79374 1.3979 0.79375 2.5268"/>
   <path id="path3179" style="" d="m377.82 154.78v-4.0084h1.2171v10.292h-1.2171v-1.1112c-0.25577 0.44097-0.57989 0.7695-0.97235 0.98557-0.38806 0.21167-0.85549 0.3175-1.4023 0.3175-0.89518 0-1.625-0.35718-2.1894-1.0716-0.56003-0.71438-0.84005-1.6536-0.84005-2.8178s0.28002-2.1034 0.84005-2.8178c0.56445-0.71437 1.2943-1.0716 2.1894-1.0716 0.5468 0 1.0142 0.10804 1.4023 0.32411 0.39246 0.21168 0.71658 0.538 0.97235 0.97896m-4.1474 2.5863c0 0.89518 0.18301 1.5985 0.54902 2.1101 0.37041 0.50712 0.87753 0.76068 1.5214 0.76068 0.64382 0 1.1509-0.25356 1.5214-0.76068 0.37041-0.51153 0.55562-1.2149 0.55563-2.1101-0.00001-0.89517-0.18522-1.5963-0.55563-2.1034-0.37042-0.51153-0.87754-0.76729-1.5214-0.7673-0.64382 0.00001-1.1509 0.25577-1.5214 0.7673-0.36601 0.50712-0.54902 1.2083-0.54902 2.1034"/>
   <path id="path3181" style="" d="m384.91 157.34c-0.98337 0.00001-1.6647 0.11245-2.0439 0.33735-0.37924 0.2249-0.56885 0.60854-0.56885 1.1509 0 0.43215 0.14111 0.77611 0.42333 1.0319 0.28663 0.25136 0.67469 0.37704 1.1642 0.37704 0.67469 0 1.2149-0.23813 1.6206-0.71438 0.4101-0.48066 0.61515-1.1179 0.61516-1.9116v-0.2712h-1.2105m2.4276-0.50271v4.2267h-1.2171v-1.1245c-0.27782 0.44979-0.62399 0.78273-1.0385 0.9988-0.41451 0.21167-0.92163 0.3175-1.5214 0.3175-0.75848 0-1.3626-0.21166-1.8124-0.635-0.44539-0.42774-0.66808-0.9988-0.66808-1.7132 0-0.83343 0.27781-1.4618 0.83344-1.8852 0.56004-0.42333 1.3935-0.635 2.5003-0.635h1.7066v-0.11906c-0.00001-0.56003-0.18522-0.99219-0.55563-1.2965-0.36601-0.30868-0.88195-0.46302-1.5478-0.46303-0.42333 0.00001-0.83564 0.0507-1.2369 0.15214-0.40128 0.10143-0.78714 0.25356-1.1576 0.45641v-1.1245c0.44538-0.17197 0.87753-0.29985 1.2965-0.38364 0.41892-0.0882 0.82682-0.13229 1.2237-0.13229 1.0716 0 1.8719 0.27782 2.4011 0.83344 0.52916 0.55563 0.79375 1.3979 0.79375 2.5268"/>
   <path id="path3183" style="" d="m391.06 151.56v2.1034h2.5069v0.94589h-2.5069v4.0217c0 0.60414 0.0816 0.9922 0.24474 1.1642 0.16757 0.17198 0.50491 0.25797 1.012 0.25797h1.2502v1.0186h-1.2502c-0.93927 0-1.5875-0.17418-1.9447-0.52255-0.35719-0.35278-0.53578-0.99219-0.53578-1.9182v-4.0217h-0.89297v-0.94589h0.89297v-2.1034h1.2237"/>
  </g>
 </g>
 <g id="g74" transform="translate(-5.5073 -2.5)">
  <path id="rect76" fill="#fff" d="m280 170h140v40h-140z"/>
  <path id="rect78" d="m280 170h140v40h-140z" stroke="#000" stroke-width="2" fill="none"/>
 </g>
 <g id="g80" stroke="#000" stroke-width="2" fill="none" transform="translate(-5.5073 -2.5)">
  <path id="path82" d="m220 300c60 0 0-180 55.528-180"/>
  <path id="polyline84" d="m267.76 125 10-5-10-5"/>
 </g>
</svg>
