<?xml version="1.0" encoding="UTF-8" standalone="no"?>
<!-- Created with Inkscape (http://www.inkscape.org/) -->
<svg id="svg2" xmlns:rdf="http://www.w3.org/1999/02/22-rdf-syntax-ns#" xmlns="http://www.w3.org/2000/svg" height="276.59" width="297.32" version="1.1" xmlns:cc="http://creativecommons.org/ns#" xmlns:dc="http://purl.org/dc/elements/1.1/" viewBox="253 103 156.63068 154.16743">
 <metadata id="metadata62">
  <rdf:RDF>
   <cc:Work rdf:about="">
    <dc:format>image/svg+xml</dc:format>
    <dc:type rdf:resource="http://purl.org/dc/dcmitype/StillImage"/>
   </cc:Work>
  </rdf:RDF>
 </metadata>
 <g id="g4" transform="translate(-6.8242 -3.8326)">
  <path id="rect6" fill="#bfbfbf" d="m360 200h60v60h-60z"/>
  <path id="rect8" d="m360 200h60v60h-60z" stroke="#000" stroke-width="2" fill="none"/>
 </g>
 <g id="g10" transform="translate(-6.8242 -3.8326)">
  <path id="rect12" fill="#e5e5e5" d="m360 140h60v60h-60z"/>
  <path id="rect14" d="m360 140h60v60h-60z" stroke="#000" stroke-width="2" fill="none"/>
 </g>
 <g id="g16" transform="translate(-6.8242 -3.8326)">
  <path id="rect18" fill="#e5e5e5" d="m300 200h60v60h-60z"/>
  <path id="rect20" d="m300 200h60v60h-60z" stroke="#000" stroke-width="2" fill="none"/>
 </g>
 <g id="g22" transform="translate(-6.8242 -3.8326)">
  <path id="rect24" fill="#fff" d="m300 140h60v60h-60z"/>
  <path id="rect26" d="m300 140h60v60h-60z" stroke="#000" stroke-width="2" fill="none"/>
 </g>
 <path id="line28" d="m353.18 126.17h60" stroke="#000" stroke-width="2" fill="none"/>
 <path id="line30" d="m283.18 196.17v60" stroke="#000" stroke-width="2" fill="none"/>
 <g id="text32">
  <path id="path3020" style="" d="m376.34 106.16h2.1696v2.1696h-2.1696v-2.1696m0 6.5264h2.1696v2.1608h-2.1696v-2.1608m-4.5685-2.9281h11.307v1.4993h-11.307v-1.4993"/>
  <path id="path3022" style="" d="m386.94 103h6.9938v1.4993h-5.3622v3.2279c0.2587-0.0882 0.51741-0.15286 0.77612-0.19402 0.25869-0.047 0.5174-0.0706 0.77611-0.0706 1.4699 0.00001 2.6341 0.40276 3.4925 1.2083 0.85842 0.80552 1.2876 1.8962 1.2876 3.272-0.00001 1.417-0.44098 2.5194-1.3229 3.3073-0.88195 0.78199-2.1255 1.173-3.7306 1.173-0.55269 0-1.1171-0.047-1.6933-0.14112-0.57032-0.0941-1.1612-0.23518-1.7727-0.42333v-1.7903c0.52916 0.2881 1.076 0.50271 1.6404 0.64382 0.56444 0.14111 1.1612 0.21166 1.7904 0.21166 1.0172 0 1.8227-0.26752 2.4165-0.80257 0.59383-0.53504 0.89075-1.2612 0.89076-2.1784-0.00001-0.91721-0.29693-1.6434-0.89076-2.1784-0.59385-0.53504-1.3994-0.80256-2.4165-0.80257-0.47626 0.00001-0.95251 0.0529-1.4288 0.15875-0.47038 0.10584-0.9525 0.27047-1.4464 0.49389v-6.6146"/>
 </g>
 <g id="text36">
  <path id="path3025" style="" d="m253.02 222.41h2.1696v2.1696h-2.1696v-2.1696m0 6.5264h2.1696v2.1608h-2.1696v-2.1608m-4.5685-2.928h11.307v1.4993h-11.307v-1.4993"/>
  <path id="path3027" style="" d="m269 225.32c0.85254 0.18227 1.5169 0.56151 1.9932 1.1377 0.48212 0.57621 0.72318 1.2876 0.72319 2.1343-0.00001 1.2994-0.44686 2.3048-1.3406 3.0162-0.89371 0.71144-2.1637 1.0672-3.81 1.0672-0.55269 0-1.123-0.0558-1.711-0.16757-0.58209-0.10583-1.1848-0.26752-1.808-0.48507v-1.7198c0.49389 0.2881 1.0348 0.50564 1.6228 0.65263 0.58796 0.147 1.2024 0.22049 1.8433 0.22049 1.1171 0 1.9667-0.22049 2.5488-0.66146 0.58795-0.44097 0.88193-1.0818 0.88194-1.9226-0.00001-0.77611-0.27341-1.3817-0.82021-1.8168-0.54093-0.44096-1.2965-0.66145-2.2666-0.66146h-1.5346v-1.464h1.6051c0.87606 0.00001 1.5463-0.17344 2.0108-0.52035 0.46449-0.35277 0.69673-0.85841 0.69674-1.5169-0.00001-0.67615-0.24107-1.1936-0.7232-1.5522-0.47625-0.36453-1.1612-0.54679-2.0549-0.54681-0.48802 0.00002-1.0113 0.0529-1.5699 0.15875-0.55857 0.10585-1.173 0.27048-1.8433 0.49389v-1.5875c0.67615-0.18813 1.3082-0.32924 1.8962-0.42333 0.59384-0.0941 1.1524-0.1411 1.6757-0.14111 1.3523 0.00001 2.4224 0.30869 3.2103 0.92604 0.78786 0.61149 1.1818 1.4405 1.1818 2.4871-0.00001 0.72908-0.20873 1.3464-0.62618 1.8521-0.41746 0.49978-1.0113 0.84667-1.7815 1.0407"/>
 </g>
 <g id="text40">
  <path id="path3030" style="" d="m307.38 162.83v1.5346c-0.45862-0.23518-0.93487-0.41157-1.4288-0.52917-0.4939-0.11758-1.0054-0.17638-1.5346-0.17639-0.80552 0.00001-1.4111 0.12348-1.8168 0.37042-0.39982 0.24695-0.59972 0.61737-0.59972 1.1112 0 0.3763 0.14405 0.67322 0.43215 0.89076 0.2881 0.21167 0.86724 0.41452 1.7374 0.60854l0.55563 0.12347c1.1524 0.24695 1.9697 0.59679 2.4518 1.0495 0.488 0.44686 0.732 1.073 0.73201 1.8785-0.00001 0.91723-0.36454 1.6434-1.0936 2.1784-0.7232 0.53505-1.7198 0.80257-2.9898 0.80257-0.52917 0-1.0818-0.0529-1.658-0.15875-0.57033-0.1-1.173-0.25282-1.808-0.45861v-1.6757c0.59972 0.31162 1.1906 0.54681 1.7727 0.70555 0.58208 0.15288 1.1583 0.22931 1.7286 0.22931 0.76435 0 1.3523-0.12935 1.7639-0.38805 0.41156-0.26459 0.61735-0.635 0.61736-1.1112-0.00001-0.44097-0.14994-0.77905-0.44979-1.0142-0.29399-0.23518-0.94369-0.46154-1.9491-0.67909l-0.56444-0.1323c-1.0054-0.21166-1.7316-0.53504-2.1784-0.97013-0.44685-0.44097-0.67028-1.0436-0.67028-1.808 0-0.92897 0.32926-1.6463 0.98778-2.1519 0.65851-0.50564 1.5934-0.75846 2.8046-0.75847 0.59971 0.00001 1.1642 0.0441 1.6933 0.13229 0.52916 0.0882 1.0172 0.2205 1.464 0.39687"/>
  <path id="path3032" style="" d="m309.8 162.54h7.7082v1.4817l-6.103 7.0996h6.103v1.2965h-7.9287v-1.4817l6.103-7.0996h-5.8826v-1.2965"/>
  <path id="path3034" style="" d="m324.48 167.45c-1.3112 0-2.2196 0.14993-2.7252 0.44979-0.50565 0.29986-0.75847 0.81139-0.75847 1.5346 0 0.57621 0.18815 1.0348 0.56445 1.3758 0.38217 0.33514 0.89957 0.50271 1.5522 0.50271 0.89957 0 1.6198-0.3175 2.1608-0.9525 0.54679-0.64087 0.8202-1.4905 0.8202-2.5488v-0.36159h-1.614m3.2367-0.67028v5.6356h-1.6228v-1.4993c-0.37042 0.59972-0.83197 1.0436-1.3846 1.3317-0.55269 0.28222-1.2288 0.42333-2.0285 0.42333-1.0113 0-1.8168-0.28222-2.4165-0.84666-0.59384-0.57032-0.89077-1.3317-0.89076-2.2842-0.00001-1.1112 0.37041-1.9491 1.1112-2.5135 0.74671-0.56444 1.858-0.84666 3.3338-0.84667h2.2754v-0.15875c0-0.74671-0.24695-1.3229-0.74083-1.7286-0.48801-0.41156-1.1759-0.61735-2.0638-0.61736-0.56444 0.00001-1.1142 0.0676-1.6492 0.20285-0.53505 0.13524-1.0495 0.33808-1.5434 0.60854v-1.4993c0.59384-0.22929 1.17-0.3998 1.7286-0.51152 0.55856-0.11758 1.1024-0.17638 1.6316-0.17639 1.4288 0.00001 2.4959 0.37042 3.2015 1.1112 0.70554 0.74084 1.0583 1.8638 1.0583 3.369m-2.9633-8.8106h1.7551l-2.8751 3.3161h-1.3494l2.4694-3.3161"/>
  <path id="path3036" style="" d="m338.76 164.44c0.40568-0.72906 0.89075-1.267 1.4552-1.614 0.56443-0.34689 1.2288-0.52034 1.9932-0.52035 1.0289 0.00001 1.8227 0.36161 2.3812 1.0848 0.55854 0.71732 0.83783 1.7404 0.83784 3.0692v5.9619h-1.6316v-5.909c-0.00002-0.94661-0.16759-1.6492-0.50271-2.1078-0.33515-0.4586-0.84668-0.6879-1.5346-0.68791-0.8408 0.00001-1.5052 0.27929-1.9932 0.83784-0.48802 0.55858-0.73203 1.32-0.73202 2.2842v5.5827h-1.6316v-5.909c-0.00001-0.95249-0.16758-1.6551-0.50271-2.1078-0.33515-0.4586-0.85255-0.6879-1.5522-0.68791-0.82903 0.00001-1.4876 0.28223-1.9756 0.84666-0.48802 0.55858-0.73202 1.317-0.73202 2.2754v5.5827h-1.6316v-9.8778h1.6316v1.5346c0.37042-0.6056 0.81433-1.0524 1.3317-1.3406 0.5174-0.28809 1.1318-0.43214 1.8433-0.43215 0.71731 0.00001 1.3258 0.18228 1.8256 0.5468 0.50564 0.36455 0.879 0.89372 1.1201 1.5875"/>
 </g>
 <g id="text44">
  <path id="path3039" style="" d="m317.67 222.54v9.8778h-1.6316v-8.6166h-4.4538v8.6166h-1.6316v-8.6166h-1.5522v-1.2612h1.5522v-0.68791c0-1.076 0.25282-1.8697 0.75847-2.3812 0.51153-0.51739 1.2935-0.7761 2.346-0.77611h1.6316v1.3494h-1.5522c-0.58209 0.00002-0.98779 0.11761-1.2171 0.35278-0.22343 0.2352-0.33514 0.65853-0.33513 1.27v0.87312h6.0854m-1.6316-3.8276h1.6316v2.0549h-1.6316v-2.0549"/>
  <path id="path3041" style="" d="m320.38 222.54h7.7082v1.4817l-6.103 7.0996h6.103v1.2965h-7.9287v-1.4817l6.103-7.0996h-5.8826v-1.2965"/>
  <path id="path3043" style="" d="m329.87 222.54h7.7082v1.4817l-6.103 7.0996h6.103v1.2965h-7.9287v-1.4817l6.103-7.0996h-5.8826v-1.2965"/>
 </g>
 <g id="text48">
  <path id="path3046" style="" d="m371.01 167.49c-0.00001-1.1936-0.24695-2.1284-0.74083-2.8046-0.48802-0.68203-1.1612-1.023-2.0196-1.0231-0.85843 0.00001-1.5346 0.34103-2.0285 1.0231-0.48801 0.67616-0.73202 1.611-0.73201 2.8046-0.00001 1.1936 0.244 2.1314 0.73201 2.8134 0.49388 0.67615 1.17 1.0142 2.0285 1.0142 0.85842 0 1.5316-0.33808 2.0196-1.0142 0.49388-0.68204 0.74082-1.6198 0.74083-2.8134m-5.521-3.4484c0.34101-0.58796 0.77022-1.023 1.2876-1.3053 0.52329-0.28809 1.1465-0.43214 1.8697-0.43215 1.1994 0.00001 2.1725 0.47626 2.9192 1.4288 0.75258 0.9525 1.1289 2.2049 1.1289 3.7571-0.00001 1.5522-0.3763 2.8046-1.1289 3.7571-0.74672 0.9525-1.7198 1.4288-2.9192 1.4288-0.7232 0-1.3464-0.14111-1.8697-0.42333-0.51741-0.2881-0.94662-0.72613-1.2876-1.3141v1.4817h-1.6316v-13.723h1.6316v5.3446"/>
  <path id="path3048" style="" d="m375.22 168.52v-5.9796h1.6228v5.9178c-0.00001 0.93487 0.18226 1.6375 0.5468 2.1078 0.36454 0.46449 0.91134 0.69673 1.6404 0.69673 0.87606 0 1.5669-0.27928 2.0726-0.83784 0.51152-0.55856 0.76729-1.32 0.7673-2.2842v-5.6003h1.6228v9.8778h-1.6228v-1.5169c-0.39395 0.59972-0.85256 1.0466-1.3758 1.3406-0.51741 0.2881-1.1201 0.43215-1.808 0.43215-1.1348 0-1.9961-0.35277-2.5841-1.0583-0.58797-0.70555-0.88195-1.7374-0.88195-3.0956m4.0834-6.2177"/>
  <path id="path3050" style="" d="m386.15 162.54h7.7082v1.4817l-6.103 7.0996h6.103v1.2965h-7.9287v-1.4817l6.103-7.0996h-5.8826v-1.2965"/>
  <path id="path3052" style="" d="m395.64 162.54h7.7082v1.4817l-6.103 7.0996h6.103v1.2965h-7.9287v-1.4817l6.103-7.0996h-5.8826v-1.2965"/>
 </g>
 <g id="text52">
  <path id="path3055" style="" d="m377.67 211.25v9.8778h-1.6316v-8.6166h-4.4538v8.6166h-1.6316v-8.6166h-1.5522v-1.2612h1.5522v-0.68791c0-1.076 0.25282-1.8697 0.75847-2.3812 0.51153-0.51739 1.2935-0.7761 2.346-0.77611h1.6316v1.3494h-1.5522c-0.58209 0.00001-0.98779 0.11761-1.2171 0.35278-0.22343 0.2352-0.33514 0.65853-0.33513 1.27v0.87312h6.0854m-1.6316-3.8276h1.6316v2.0549h-1.6316v-2.0549"/>
  <path id="path3057" style="" d="m380.38 211.25h7.7082v1.4817l-6.103 7.0996h6.103v1.2965h-7.9287v-1.4817l6.103-7.0996h-5.8826v-1.2965"/>
  <path id="path3059" style="" d="m389.87 211.25h7.7082v1.4817l-6.103 7.0996h6.103v1.2965h-7.9287v-1.4817l6.103-7.0996h-5.8826v-1.2965"/>
  <path id="path3061" style="" d="m371.01 238.78c-0.00001-1.1936-0.24695-2.1284-0.74083-2.8046-0.48802-0.68203-1.1612-1.023-2.0196-1.0231-0.85843 0.00001-1.5346 0.34103-2.0285 1.0231-0.48801 0.67616-0.73202 1.611-0.73201 2.8046-0.00001 1.1936 0.244 2.1314 0.73201 2.8134 0.49388 0.67615 1.17 1.0142 2.0285 1.0142 0.85842 0 1.5316-0.33808 2.0196-1.0142 0.49388-0.68204 0.74082-1.6198 0.74083-2.8134m-5.521-3.4484c0.34101-0.58795 0.77022-1.023 1.2876-1.3053 0.52329-0.28809 1.1465-0.43214 1.8697-0.43215 1.1994 0.00001 2.1725 0.47626 2.9192 1.4288 0.75258 0.95251 1.1289 2.2049 1.1289 3.7571-0.00001 1.5522-0.3763 2.8046-1.1289 3.7571-0.74672 0.9525-1.7198 1.4287-2.9192 1.4287-0.7232 0-1.3464-0.14111-1.8697-0.42333-0.51741-0.2881-0.94662-0.72613-1.2876-1.3141v1.4817h-1.6316v-13.723h1.6316v5.3446"/>
  <path id="path3063" style="" d="m375.22 239.81v-5.9796h1.6228v5.9178c-0.00001 0.93486 0.18226 1.6375 0.5468 2.1078 0.36454 0.46449 0.91134 0.69674 1.6404 0.69674 0.87606 0 1.5669-0.27929 2.0726-0.83785 0.51152-0.55856 0.76729-1.32 0.7673-2.2842v-5.6004h1.6228v9.8778h-1.6228v-1.5169c-0.39395 0.59972-0.85256 1.0466-1.3758 1.3406-0.51741 0.2881-1.1201 0.43215-1.808 0.43215-1.1348 0-1.9961-0.35277-2.5841-1.0583-0.58797-0.70555-0.88195-1.7374-0.88195-3.0956m4.0834-6.2177"/>
  <path id="path3065" style="" d="m386.15 233.83h7.7082v1.4817l-6.103 7.0996h6.103v1.2965h-7.9287v-1.4817l6.103-7.0996h-5.8826v-1.2965"/>
  <path id="path3067" style="" d="m395.64 233.83h7.7082v1.4817l-6.103 7.0996h6.103v1.2965h-7.9287v-1.4817l6.103-7.0996h-5.8826v-1.2965"/>
 </g>
</svg>
