<?xml version="1.0" encoding="UTF-8" standalone="no"?>
<!-- Created with Inkscape (http://www.inkscape.org/) -->

<svg
   xmlns:dc="http://purl.org/dc/elements/1.1/"
   xmlns:cc="http://creativecommons.org/ns#"
   xmlns:rdf="http://www.w3.org/1999/02/22-rdf-syntax-ns#"
   xmlns:svg="http://www.w3.org/2000/svg"
   xmlns="http://www.w3.org/2000/svg"
   xmlns:sodipodi="http://sodipodi.sourceforge.net/DTD/sodipodi-0.dtd"
   xmlns:inkscape="http://www.inkscape.org/namespaces/inkscape"
   version="1.1"
   width="458.73431"
   height="307.08661"
   viewBox="198 238 242 156.96296"
   id="svg2"
   inkscape:version="0.48.4 r9939"
   sodipodi:docname="fizzbuzzdontes.svg">
  <sodipodi:namedview
     pagecolor="#ffffff"
     bordercolor="#666666"
     borderopacity="1"
     objecttolerance="10"
     gridtolerance="10"
     guidetolerance="10"
     inkscape:pageopacity="0"
     inkscape:pageshadow="2"
     inkscape:window-width="640"
     inkscape:window-height="480"
     id="namedview61"
     showgrid="false"
     inkscape:zoom="0.74004937"
     inkscape:cx="228.41936"
     inkscape:cy="154.30748"
     inkscape:window-x="0"
     inkscape:window-y="25"
     inkscape:window-maximized="0"
     inkscape:current-layer="svg2" />
  <metadata
     id="metadata120">
    <rdf:RDF>
      <cc:Work
         rdf:about="">
        <dc:format>image/svg+xml</dc:format>
        <dc:type
           rdf:resource="http://purl.org/dc/dcmitype/StillImage" />
      </cc:Work>
    </rdf:RDF>
  </metadata>
  <defs
     id="defs118" />
  <g
     id="g4"
     transform="translate(-1,-3.5185169)">
    <path
       style="fill:#ffffff"
       d="m 200,240 240,0 0,40 -240,0 z"
       id="rect6" />
    <path
       style="fill:none;stroke:#000000;stroke-width:2"
       d="m 200,240 240,0 0,40 -240,0 z"
       id="rect8" />
  </g>
  <g
     id="g10"
     transform="translate(-1,-3.5185169)">
    <path
       style="fill:#ffffff"
       d="m 380,360 60,0 0,40 -60,0 z"
       id="rect12" />
    <path
       style="fill:none;stroke:#000000;stroke-width:2"
       d="m 380,360 60,0 0,40 -60,0 z"
       id="rect14" />
  </g>
  <g
     style="font-size:12.80000019px;font-style:normal;font-weight:normal;text-anchor:middle;fill:#000000;font-family:sans-serif"
     id="text16">
    <path
       d="m 397.80625,374.11271 0,1.0875 c -0.32501,-0.16666 -0.66251,-0.29166 -1.0125,-0.375 -0.35,-0.0833 -0.7125,-0.12499 -1.0875,-0.125 -0.57084,10e-6 -1,0.0875 -1.2875,0.2625 -0.28334,0.17501 -0.425,0.43751 -0.425,0.7875 0,0.26668 0.10208,0.47709 0.30625,0.63125 0.20416,0.15001 0.61458,0.29376 1.23125,0.43125 l 0.39375,0.0875 c 0.81666,0.17501 1.39583,0.42292 1.7375,0.74375 0.34583,0.31667 0.51874,0.76042 0.51875,1.33125 -10e-6,0.65 -0.25834,1.16459 -0.775,1.54375 -0.5125,0.37917 -1.21875,0.56875 -2.11875,0.56875 -0.375,0 -0.76667,-0.0375 -1.175,-0.1125 -0.40417,-0.0708 -0.83125,-0.17916 -1.28125,-0.325 l 0,-1.1875 c 0.425,0.22084 0.84375,0.3875 1.25625,0.5 0.4125,0.10834 0.82083,0.1625 1.225,0.1625 0.54166,0 0.95833,-0.0917 1.25,-0.275 0.29166,-0.1875 0.43749,-0.44999 0.4375,-0.7875 -10e-6,-0.31249 -0.10625,-0.55208 -0.31875,-0.71875 -0.20834,-0.16666 -0.66875,-0.32708 -1.38125,-0.48125 l -0.4,-0.0937 c -0.7125,-0.14999 -1.22709,-0.37916 -1.54375,-0.6875 -0.31667,-0.31249 -0.475,-0.73958 -0.475,-1.28125 0,-0.65832 0.23333,-1.16666 0.7,-1.525 0.46666,-0.35832 1.12916,-0.53749 1.9875,-0.5375 0.425,1e-5 0.825,0.0313 1.2,0.0937 0.37499,0.0625 0.72083,0.15626 1.0375,0.28125"
       style=""
       id="path3043" />
    <path
       d="m 399.51875,373.90646 5.4625,0 0,1.05 -4.325,5.03125 4.325,0 0,0.91875 -5.61875,0 0,-1.05 4.325,-5.03125 -4.16875,0 0,-0.91875"
       style=""
       id="path3045" />
    <path
       d="m 409.925,377.38771 c -0.92917,10e-6 -1.57292,0.10626 -1.93125,0.31875 -0.35834,0.21251 -0.5375,0.57501 -0.5375,1.0875 0,0.40834 0.13333,0.73334 0.4,0.975 0.27083,0.2375 0.6375,0.35625 1.1,0.35625 0.6375,0 1.14791,-0.225 1.53125,-0.675 0.38749,-0.45416 0.58124,-1.05624 0.58125,-1.80625 l 0,-0.25625 -1.14375,0 m 2.29375,-0.475 0,3.99375 -1.15,0 0,-1.0625 c -0.26251,0.425 -0.58959,0.73959 -0.98125,0.94375 -0.39167,0.2 -0.87084,0.3 -1.4375,0.3 -0.71667,0 -1.2875,-0.2 -1.7125,-0.6 -0.42083,-0.40416 -0.63125,-0.94375 -0.63125,-1.61875 0,-0.78749 0.2625,-1.38124 0.7875,-1.78125 0.52916,-0.39999 1.31666,-0.59999 2.3625,-0.6 l 1.6125,0 0,-0.1125 c -1e-5,-0.52916 -0.17501,-0.93749 -0.525,-1.225 -0.34584,-0.29166 -0.83334,-0.43749 -1.4625,-0.4375 -0.4,10e-6 -0.78959,0.0479 -1.16875,0.14375 -0.37917,0.0958 -0.74375,0.23959 -1.09375,0.43125 l 0,-1.0625 c 0.42083,-0.16249 0.82916,-0.28332 1.225,-0.3625 0.39583,-0.0833 0.78125,-0.12499 1.15625,-0.125 1.01249,1e-5 1.76874,0.26251 2.26875,0.7875 0.49999,0.52501 0.74999,1.32084 0.75,2.3875 m -2.1,-6.24375 1.24375,0 -2.0375,2.35 -0.95625,0 1.75,-2.35"
       style=""
       id="path3047" />
    <path
       d="m 420.04375,375.25021 c 0.28749,-0.51666 0.63124,-0.89791 1.03125,-1.14375 0.39999,-0.24582 0.87082,-0.36874 1.4125,-0.36875 0.72916,1e-5 1.29166,0.25626 1.6875,0.76875 0.39582,0.50834 0.59374,1.23334 0.59375,2.175 l 0,4.225 -1.15625,0 0,-4.1875 c -1e-5,-0.67082 -0.11876,-1.16874 -0.35625,-1.49375 -0.23751,-0.32499 -0.60001,-0.48749 -1.0875,-0.4875 -0.59584,1e-5 -1.06667,0.19793 -1.4125,0.59375 -0.34584,0.39584 -0.51876,0.93542 -0.51875,1.61875 l 0,3.95625 -1.15625,0 0,-4.1875 c -1e-5,-0.67499 -0.11876,-1.17291 -0.35625,-1.49375 -0.23751,-0.32499 -0.60417,-0.48749 -1.1,-0.4875 -0.5875,1e-5 -1.05417,0.20001 -1.4,0.6 -0.34584,0.39584 -0.51875,0.93334 -0.51875,1.6125 l 0,3.95625 -1.15625,0 0,-7 1.15625,0 0,1.0875 c 0.2625,-0.42916 0.57708,-0.74582 0.94375,-0.95 0.36666,-0.20416 0.80208,-0.30624 1.30625,-0.30625 0.50833,1e-5 0.93958,0.12918 1.29375,0.3875 0.35833,0.25834 0.62291,0.63334 0.79375,1.125"
       style=""
       id="path3049" />
  </g>
  <g
     id="g20"
     transform="translate(-1,-3.5185169)">
    <path
       style="fill:#ffffff"
       d="m 320,360 60,0 0,40 -60,0 z"
       id="rect22" />
    <path
       style="fill:none;stroke:#000000;stroke-width:2"
       d="m 320,360 60,0 0,40 -60,0 z"
       id="rect24" />
  </g>
  <g
     style="font-size:12.80000019px;font-style:normal;font-weight:normal;text-anchor:middle;fill:#000000;font-family:sans-serif"
     id="text26">
    <path
       d="m 340.38125,377.41271 c -1e-5,-0.84583 -0.17501,-1.50832 -0.525,-1.9875 -0.34584,-0.48332 -0.82292,-0.72499 -1.43125,-0.725 -0.60834,10e-6 -1.0875,0.24168 -1.4375,0.725 -0.34584,0.47918 -0.51875,1.14167 -0.51875,1.9875 0,0.84584 0.17291,1.51042 0.51875,1.99375 0.35,0.47917 0.82916,0.71875 1.4375,0.71875 0.60833,0 1.08541,-0.23958 1.43125,-0.71875 0.34999,-0.48333 0.52499,-1.14791 0.525,-1.99375 m -3.9125,-2.44375 c 0.24166,-0.41666 0.54583,-0.72499 0.9125,-0.925 0.37083,-0.20416 0.8125,-0.30624 1.325,-0.30625 0.84999,1e-5 1.53958,0.33751 2.06875,1.0125 0.53333,0.67501 0.79999,1.56251 0.8,2.6625 -10e-6,1.10001 -0.26667,1.98751 -0.8,2.6625 -0.52917,0.675 -1.21876,1.0125 -2.06875,1.0125 -0.5125,0 -0.95417,-0.1 -1.325,-0.3 -0.36667,-0.20416 -0.67084,-0.51458 -0.9125,-0.93125 l 0,1.05 -1.15625,0 0,-9.725 1.15625,0 0,3.7875"
       style=""
       id="path3054" />
    <path
       d="m 343.3625,378.14396 0,-4.2375 1.15,0 0,4.19375 c 0,0.66251 0.12916,1.16042 0.3875,1.49375 0.25833,0.32917 0.64583,0.49375 1.1625,0.49375 0.62083,0 1.11041,-0.19791 1.46875,-0.59375 0.36249,-0.39583 0.54374,-0.93541 0.54375,-1.61875 l 0,-3.96875 1.15,0 0,7 -1.15,0 0,-1.075 c -0.27917,0.425 -0.60417,0.74167 -0.975,0.95 -0.36667,0.20417 -0.79375,0.30625 -1.28125,0.30625 -0.80417,0 -1.41459,-0.25 -1.83125,-0.75 -0.41667,-0.5 -0.625,-1.23124 -0.625,-2.19375 m 2.89375,-4.40625 0,0"
       style=""
       id="path3056" />
    <path
       d="m 351.10625,373.90646 5.4625,0 0,1.05 -4.325,5.03125 4.325,0 0,0.91875 -5.61875,0 0,-1.05 4.325,-5.03125 -4.16875,0 0,-0.91875"
       style=""
       id="path3058" />
    <path
       d="m 357.83125,373.90646 5.4625,0 0,1.05 -4.325,5.03125 4.325,0 0,0.91875 -5.61875,0 0,-1.05 4.325,-5.03125 -4.16875,0 0,-0.91875"
       style=""
       id="path3060" />
  </g>
  <g
     id="g30"
     transform="translate(-1,-3.5185169)">
    <path
       style="fill:#ffffff"
       d="m 320,320 120,0 0,40 -120,0 z"
       id="rect32" />
    <path
       style="fill:none;stroke:#000000;stroke-width:2"
       d="m 320,320 120,0 0,40 -120,0 z"
       id="rect34" />
  </g>
  <path
     style="fill:none;stroke:#000000;stroke-width:2"
     d="m 319,316.48148 30,40"
     id="line36" />
  <path
     style="fill:none;stroke:#000000;stroke-width:2"
     d="m 439,316.48148 -30,40"
     id="line38" />
  <g
     style="font-size:12.80000019px;font-style:normal;font-weight:normal;text-anchor:middle;fill:#000000;font-family:sans-serif"
     id="text40">
    <path
       d="m 365.76875,323.57521 4.95625,0 0,1.0625 -3.8,0 0,2.2875 c 0.18333,-0.0625 0.36666,-0.10832 0.55,-0.1375 0.18333,-0.0333 0.36666,-0.05 0.55,-0.05 1.04166,1e-5 1.86666,0.28543 2.475,0.85625 0.60833,0.57084 0.91249,1.34376 0.9125,2.31875 -1e-5,1.00417 -0.31251,1.78542 -0.9375,2.34375 -0.62501,0.55417 -1.50625,0.83125 -2.64375,0.83125 -0.39167,0 -0.79167,-0.0333 -1.2,-0.1 -0.40417,-0.0667 -0.82292,-0.16666 -1.25625,-0.3 l 0,-1.26875 c 0.375,0.20417 0.7625,0.35625 1.1625,0.45625 0.4,0.1 0.82291,0.15 1.26875,0.15 0.72083,0 1.29166,-0.18958 1.7125,-0.56875 0.42083,-0.37916 0.63124,-0.89374 0.63125,-1.54375 -10e-6,-0.64999 -0.21042,-1.16458 -0.63125,-1.54375 -0.42084,-0.37916 -0.99167,-0.56874 -1.7125,-0.56875 -0.3375,1e-5 -0.675,0.0375 -1.0125,0.1125 -0.33334,0.075 -0.675,0.19168 -1.025,0.35 l 0,-4.6875"
       style=""
       id="path3067" />
    <path
       d="m 373.1625,328.88771 3.36875,0 0,1.025 -3.36875,0 0,-1.025"
       style=""
       id="path3069" />
    <path
       d="m 379.50625,323.91896 0,1.9875 2.36875,0 0,0.89375 -2.36875,0 0,3.8 c 0,0.57084 0.0771,0.9375 0.23125,1.1 0.15833,0.1625 0.47708,0.24375 0.95625,0.24375 l 1.18125,0 0,0.9625 -1.18125,0 c -0.8875,0 -1.5,-0.16458 -1.8375,-0.49375 -0.3375,-0.33333 -0.50625,-0.93749 -0.50625,-1.8125 l 0,-3.8 -0.84375,0 0,-0.89375 0.84375,0 0,-1.9875 1.15625,0"
       style=""
       id="path3071" />
    <path
       d="m 389.38125,329.11896 0,0.5625 -5.2875,0 c 0.05,0.79167 0.2875,1.39584 0.7125,1.8125 0.42916,0.4125 1.025,0.61875 1.7875,0.61875 0.44166,0 0.86875,-0.0542 1.28125,-0.1625 0.41666,-0.10833 0.82916,-0.27083 1.2375,-0.4875 l 0,1.0875 c -0.41251,0.175 -0.83542,0.30834 -1.26875,0.4 -0.43334,0.0917 -0.87292,0.1375 -1.31875,0.1375 -1.11667,0 -2.00208,-0.325 -2.65625,-0.975 -0.65,-0.64999 -0.975,-1.52916 -0.975,-2.6375 0,-1.14583 0.30833,-2.05416 0.925,-2.725 0.62083,-0.67499 1.45625,-1.01249 2.50625,-1.0125 0.94166,1e-5 1.68541,0.30418 2.23125,0.9125 0.54999,0.60418 0.82499,1.42709 0.825,2.46875 m -1.15,-0.3375 c -0.008,-0.62916 -0.18542,-1.13124 -0.53125,-1.50625 -0.34167,-0.37499 -0.79584,-0.56249 -1.3625,-0.5625 -0.64167,10e-6 -1.15625,0.18126 -1.54375,0.54375 -0.38333,0.36251 -0.60417,0.87292 -0.6625,1.53125 l 4.1,-0.006"
       style=""
       id="path3073" />
    <path
       d="m 391.26875,323.18146 1.15,0 0,9.725 -1.15,0 0,-9.725"
       style=""
       id="path3075" />
    <path
       d="m 351.98125,342.71271 c -0.61667,10e-6 -1.10417,0.24168 -1.4625,0.725 -0.35834,0.47918 -0.5375,1.13751 -0.5375,1.975 0,0.83751 0.17708,1.49792 0.53125,1.98125 0.35833,0.47917 0.84791,0.71875 1.46875,0.71875 0.6125,0 1.09791,-0.24166 1.45625,-0.725 0.35833,-0.48333 0.53749,-1.14166 0.5375,-1.975 -1e-5,-0.82916 -0.17917,-1.48541 -0.5375,-1.96875 -0.35834,-0.48749 -0.84375,-0.73124 -1.45625,-0.73125 m 0,-0.975 c 0.99999,1e-5 1.78541,0.32501 2.35625,0.975 0.57083,0.65001 0.85624,1.55001 0.85625,2.7 -1e-5,1.14584 -0.28542,2.04584 -0.85625,2.7 -0.57084,0.65 -1.35626,0.975 -2.35625,0.975 -1.00417,0 -1.79167,-0.325 -2.3625,-0.975 -0.56667,-0.65416 -0.85,-1.55416 -0.85,-2.7 0,-1.14999 0.28333,-2.04999 0.85,-2.7 0.57083,-0.64999 1.35833,-0.97499 2.3625,-0.975"
       style=""
       id="path3077" />
    <path
       d="m 361.55625,342.11271 0,1.0875 c -0.32501,-0.16666 -0.66251,-0.29166 -1.0125,-0.375 -0.35,-0.0833 -0.7125,-0.12499 -1.0875,-0.125 -0.57084,10e-6 -1,0.0875 -1.2875,0.2625 -0.28334,0.17501 -0.425,0.43751 -0.425,0.7875 0,0.26668 0.10208,0.47709 0.30625,0.63125 0.20416,0.15001 0.61458,0.29376 1.23125,0.43125 l 0.39375,0.0875 c 0.81666,0.17501 1.39583,0.42292 1.7375,0.74375 0.34583,0.31667 0.51874,0.76042 0.51875,1.33125 -10e-6,0.65 -0.25834,1.16459 -0.775,1.54375 -0.5125,0.37917 -1.21875,0.56875 -2.11875,0.56875 -0.375,0 -0.76667,-0.0375 -1.175,-0.1125 -0.40417,-0.0708 -0.83125,-0.17916 -1.28125,-0.325 l 0,-1.1875 c 0.425,0.22084 0.84375,0.3875 1.25625,0.5 0.4125,0.10834 0.82083,0.1625 1.225,0.1625 0.54166,0 0.95833,-0.0917 1.25,-0.275 0.29166,-0.1875 0.4375,-0.44999 0.4375,-0.7875 0,-0.31249 -0.10625,-0.55208 -0.31875,-0.71875 -0.20834,-0.16666 -0.66875,-0.32708 -1.38125,-0.48125 l -0.4,-0.0937 c -0.7125,-0.14999 -1.22709,-0.37916 -1.54375,-0.6875 -0.31667,-0.31249 -0.475,-0.73958 -0.475,-1.28125 0,-0.65832 0.23333,-1.16666 0.7,-1.525 0.46666,-0.35832 1.12916,-0.53749 1.9875,-0.5375 0.425,1e-5 0.825,0.0313 1.2,0.0937 0.37499,0.0625 0.72083,0.15626 1.0375,0.28125"
       style=""
       id="path3079" />
    <path
       d="m 363.26875,341.90646 5.4625,0 0,1.05 -4.325,5.03125 4.325,0 0,0.91875 -5.61875,0 0,-1.05 4.325,-5.03125 -4.16875,0 0,-0.91875"
       style=""
       id="path3081" />
    <path
       d="m 371.63125,339.91896 0,1.9875 2.36875,0 0,0.89375 -2.36875,0 0,3.8 c 0,0.57084 0.0771,0.9375 0.23125,1.1 0.15833,0.1625 0.47708,0.24375 0.95625,0.24375 l 1.18125,0 0,0.9625 -1.18125,0 c -0.8875,0 -1.5,-0.16458 -1.8375,-0.49375 -0.3375,-0.33333 -0.50625,-0.93749 -0.50625,-1.8125 l 0,-3.8 -0.84375,0 0,-0.89375 0.84375,0 0,-1.9875 1.15625,0"
       style=""
       id="path3083" />
    <path
       d="m 381.3375,344.68146 0,4.225 -1.15,0 0,-4.1875 c -10e-6,-0.66249 -0.12917,-1.15832 -0.3875,-1.4875 -0.25834,-0.32916 -0.64584,-0.49374 -1.1625,-0.49375 -0.62084,1e-5 -1.11042,0.19793 -1.46875,0.59375 -0.35834,0.39584 -0.5375,0.93542 -0.5375,1.61875 l 0,3.95625 -1.15625,0 0,-9.725 1.15625,0 0,3.8125 c 0.275,-0.42082 0.59791,-0.73541 0.96875,-0.94375 0.375,-0.20832 0.80625,-0.31249 1.29375,-0.3125 0.80416,1e-5 1.41249,0.25001 1.825,0.75 0.41249,0.49584 0.61874,1.22709 0.61875,2.19375"
       style=""
       id="path3085" />
    <path
       d="m 386.825,345.38771 c -0.92917,10e-6 -1.57292,0.10626 -1.93125,0.31875 -0.35834,0.21251 -0.5375,0.57501 -0.5375,1.0875 0,0.40834 0.13333,0.73334 0.4,0.975 0.27083,0.2375 0.6375,0.35625 1.1,0.35625 0.6375,0 1.14791,-0.225 1.53125,-0.675 0.38749,-0.45416 0.58124,-1.05624 0.58125,-1.80625 l 0,-0.25625 -1.14375,0 m 2.29375,-0.475 0,3.99375 -1.15,0 0,-1.0625 c -0.26251,0.425 -0.58959,0.73959 -0.98125,0.94375 -0.39167,0.2 -0.87084,0.3 -1.4375,0.3 -0.71667,0 -1.2875,-0.2 -1.7125,-0.6 -0.42083,-0.40416 -0.63125,-0.94375 -0.63125,-1.61875 0,-0.78749 0.2625,-1.38124 0.7875,-1.78125 0.52916,-0.39999 1.31666,-0.59999 2.3625,-0.6 l 1.6125,0 0,-0.1125 c -10e-6,-0.52916 -0.17501,-0.93749 -0.525,-1.225 -0.34584,-0.29166 -0.83334,-0.43749 -1.4625,-0.4375 -0.4,10e-6 -0.78959,0.0479 -1.16875,0.14375 -0.37917,0.0958 -0.74375,0.23959 -1.09375,0.43125 l 0,-1.0625 c 0.42083,-0.16249 0.82916,-0.28332 1.225,-0.3625 0.39583,-0.0833 0.78125,-0.12499 1.15625,-0.125 1.01249,1e-5 1.76874,0.26251 2.26875,0.7875 0.49999,0.52501 0.74999,1.32084 0.75,2.3875"
       style=""
       id="path3087" />
    <path
       d="m 392.63125,339.91896 0,1.9875 2.36875,0 0,0.89375 -2.36875,0 0,3.8 c 0,0.57084 0.0771,0.9375 0.23125,1.1 0.15833,0.1625 0.47708,0.24375 0.95625,0.24375 l 1.18125,0 0,0.9625 -1.18125,0 c -0.8875,0 -1.5,-0.16458 -1.8375,-0.49375 -0.3375,-0.33333 -0.50625,-0.93749 -0.50625,-1.8125 l 0,-3.8 -0.84375,0 0,-0.89375 0.84375,0 0,-1.9875 1.15625,0"
       style=""
       id="path3089" />
    <path
       d="m 399.23125,342.71271 c -0.61667,10e-6 -1.10417,0.24168 -1.4625,0.725 -0.35834,0.47918 -0.5375,1.13751 -0.5375,1.975 0,0.83751 0.17708,1.49792 0.53125,1.98125 0.35833,0.47917 0.84791,0.71875 1.46875,0.71875 0.6125,0 1.09791,-0.24166 1.45625,-0.725 0.35833,-0.48333 0.53749,-1.14166 0.5375,-1.975 -1e-5,-0.82916 -0.17917,-1.48541 -0.5375,-1.96875 -0.35834,-0.48749 -0.84375,-0.73124 -1.45625,-0.73125 m 0,-0.975 c 0.99999,1e-5 1.78541,0.32501 2.35625,0.975 0.57083,0.65001 0.85624,1.55001 0.85625,2.7 -1e-5,1.14584 -0.28542,2.04584 -0.85625,2.7 -0.57084,0.65 -1.35626,0.975 -2.35625,0.975 -1.00417,0 -1.79167,-0.325 -2.3625,-0.975 -0.56667,-0.65416 -0.85,-1.55416 -0.85,-2.7 0,-1.14999 0.28333,-2.04999 0.85,-2.7 0.57083,-0.64999 1.35833,-0.97499 2.3625,-0.975 m 0.86875,-3.06875 1.24375,0 -2.0375,2.35 -0.95625,0 1.75,-2.35"
       style=""
       id="path3091" />
    <path
       d="m 405.58125,347.31896 1.26875,0 0,1.5875 -1.26875,0 0,-1.5875 m 1.23125,-0.91875 -1.19375,0 0,-0.9625 c 0,-0.42083 0.0583,-0.76666 0.175,-1.0375 0.11666,-0.27083 0.3625,-0.58541 0.7375,-0.94375 l 0.5625,-0.55625 c 0.2375,-0.22082 0.40833,-0.42916 0.5125,-0.625 0.10833,-0.19582 0.1625,-0.39582 0.1625,-0.6 0,-0.37082 -0.1375,-0.67082 -0.4125,-0.9 -0.27084,-0.22915 -0.63125,-0.34374 -1.08125,-0.34375 -0.32917,10e-6 -0.68125,0.0729 -1.05625,0.21875 -0.37083,0.14584 -0.75833,0.35834 -1.1625,0.6375 l 0,-1.175 c 0.39167,-0.23749 0.7875,-0.41457 1.1875,-0.53125 0.40416,-0.11665 0.82083,-0.17499 1.25,-0.175 0.76666,1e-5 1.38125,0.2021 1.84375,0.60625 0.46666,0.40418 0.69999,0.93751 0.7,1.6 -1e-5,0.31668 -0.075,0.61876 -0.225,0.90625 -0.15001,0.28334 -0.4125,0.60418 -0.7875,0.9625 l -0.55,0.5375 c -0.19584,0.19584 -0.33542,0.35001 -0.41875,0.4625 -0.0792,0.10834 -0.13542,0.21459 -0.16875,0.31875 -0.025,0.0875 -0.0437,0.19376 -0.0562,0.31875 -0.0125,0.12501 -0.0188,0.29584 -0.0188,0.5125 l 0,0.76875"
       style=""
       id="path3093" />
  </g>
  <g
     style="font-size:12.80000019px;font-style:normal;font-weight:normal;text-anchor:middle;fill:#000000;font-family:sans-serif"
     id="text46">
    <path
       d="m 328.43125,343.90646 1.15,0 0,7 -1.15,0 0,-7 m 0,-2.725 1.15,0 0,1.45625 -1.15,0 0,-1.45625"
       style=""
       id="path3096" />
  </g>
  <g
     style="font-size:12.80000019px;font-style:normal;font-weight:normal;text-anchor:middle;fill:#000000;font-family:sans-serif"
     id="text50">
    <path
       d="m 431.9625,346.68146 0,4.225 -1.15,0 0,-4.1875 c -10e-6,-0.66249 -0.12917,-1.15832 -0.3875,-1.4875 -0.25834,-0.32916 -0.64584,-0.49374 -1.1625,-0.49375 -0.62084,1e-5 -1.11042,0.19793 -1.46875,0.59375 -0.35834,0.39584 -0.5375,0.93542 -0.5375,1.61875 l 0,3.95625 -1.15625,0 0,-7 1.15625,0 0,1.0875 c 0.275,-0.42082 0.59791,-0.73541 0.96875,-0.94375 0.375,-0.20832 0.80625,-0.31249 1.29375,-0.3125 0.80416,1e-5 1.41249,0.25001 1.825,0.75 0.41249,0.49584 0.61874,1.22709 0.61875,2.19375"
       style=""
       id="path3099" />
  </g>
  <g
     id="g54"
     transform="translate(-1,-3.5185169)">
    <path
       style="fill:#ffffff"
       d="m 270,320 50,0 0,80 -50,0 z"
       id="rect56" />
    <path
       style="fill:none;stroke:#000000;stroke-width:2"
       d="m 270,320 50,0 0,80 -50,0 z"
       id="rect58" />
  </g>
  <g
     style="font-size:12.80000019px;font-style:normal;font-weight:normal;text-anchor:middle;fill:#000000;font-family:sans-serif"
     id="text60">
    <path
       d="m 290.1,353.90646 0,7 -1.15625,0 0,-6.10625 -3.15625,0 0,6.10625 -1.15625,0 0,-6.10625 -1.1,0 0,-0.89375 1.1,0 0,-0.4875 c 0,-0.76249 0.17916,-1.32499 0.5375,-1.6875 0.3625,-0.36665 0.91666,-0.54999 1.6625,-0.55 l 1.15625,0 0,0.95625 -1.1,0 c -0.4125,10e-6 -0.7,0.0833 -0.8625,0.25 -0.15834,0.16668 -0.2375,0.46668 -0.2375,0.9 l 0,0.61875 4.3125,0 m -1.15625,-2.7125 1.15625,0 0,1.45625 -1.15625,0 0,-1.45625"
       style=""
       id="path3104" />
    <path
       d="m 292.01875,353.90646 5.4625,0 0,1.05 -4.325,5.03125 4.325,0 0,0.91875 -5.61875,0 0,-1.05 4.325,-5.03125 -4.16875,0 0,-0.91875"
       style=""
       id="path3106" />
    <path
       d="m 298.74375,353.90646 5.4625,0 0,1.05 -4.325,5.03125 4.325,0 0,0.91875 -5.61875,0 0,-1.05 4.325,-5.03125 -4.16875,0 0,-0.91875"
       style=""
       id="path3108" />
  </g>
  <g
     id="g64"
     transform="translate(-1,-3.5185169)">
    <path
       style="fill:#ffffff"
       d="m 270,280 170,0 0,40 -170,0 z"
       id="rect66" />
    <path
       style="fill:none;stroke:#000000;stroke-width:2"
       d="m 270,280 170,0 0,40 -170,0 z"
       id="rect68" />
  </g>
  <g
     style="font-size:12.80000019px;font-style:normal;font-weight:normal;text-anchor:middle;fill:#000000;font-family:sans-serif"
     id="text70">
    <path
       d="m 340.86875,287.87521 c 0.60416,0.12918 1.07499,0.39792 1.4125,0.80625 0.34166,0.40834 0.51249,0.91251 0.5125,1.5125 -10e-6,0.92084 -0.31667,1.63334 -0.95,2.1375 -0.63334,0.50417 -1.53334,0.75625 -2.7,0.75625 -0.39167,0 -0.79584,-0.0396 -1.2125,-0.11875 -0.4125,-0.075 -0.83959,-0.18958 -1.28125,-0.34375 l 0,-1.21875 c 0.35,0.20417 0.73333,0.35834 1.15,0.4625 0.41666,0.10417 0.85208,0.15625 1.30625,0.15625 0.79166,0 1.39374,-0.15625 1.80625,-0.46875 0.41666,-0.31249 0.62499,-0.76666 0.625,-1.3625 -1e-5,-0.54999 -0.19376,-0.97916 -0.58125,-1.2875 -0.38334,-0.31249 -0.91875,-0.46874 -1.60625,-0.46875 l -1.0875,0 0,-1.0375 1.1375,0 c 0.62083,10e-6 1.09583,-0.12291 1.425,-0.36875 0.32916,-0.24999 0.49374,-0.60832 0.49375,-1.075 -1e-5,-0.47916 -0.17084,-0.84582 -0.5125,-1.1 -0.3375,-0.25832 -0.82292,-0.38749 -1.45625,-0.3875 -0.34584,1e-5 -0.71667,0.0375 -1.1125,0.1125 -0.39584,0.075 -0.83125,0.19168 -1.30625,0.35 l 0,-1.125 c 0.47916,-0.13332 0.92708,-0.23332 1.34375,-0.3 0.42083,-0.0666 0.81666,-0.1 1.1875,-0.1 0.95833,1e-5 1.71666,0.21876 2.275,0.65625 0.55833,0.43335 0.83749,1.02084 0.8375,1.7625 -10e-6,0.51668 -0.14792,0.95418 -0.44375,1.3125 -0.29584,0.35418 -0.71667,0.60001 -1.2625,0.7375"
       style=""
       id="path3113" />
    <path
       d="m 344.45,288.88771 3.36875,0 0,1.025 -3.36875,0 0,-1.025"
       style=""
       id="path3115" />
    <path
       d="m 355.10625,287.25021 c 0.28749,-0.51666 0.63124,-0.89791 1.03125,-1.14375 0.39999,-0.24582 0.87083,-0.36874 1.4125,-0.36875 0.72916,1e-5 1.29166,0.25626 1.6875,0.76875 0.39582,0.50834 0.59374,1.23334 0.59375,2.175 l 0,4.225 -1.15625,0 0,-4.1875 c -1e-5,-0.67082 -0.11876,-1.16874 -0.35625,-1.49375 -0.23751,-0.32499 -0.60001,-0.48749 -1.0875,-0.4875 -0.59584,1e-5 -1.06667,0.19793 -1.4125,0.59375 -0.34584,0.39584 -0.51876,0.93542 -0.51875,1.61875 l 0,3.95625 -1.15625,0 0,-4.1875 c -1e-5,-0.67499 -0.11876,-1.17291 -0.35625,-1.49375 -0.2375,-0.32499 -0.60417,-0.48749 -1.1,-0.4875 -0.5875,1e-5 -1.05417,0.20001 -1.4,0.6 -0.34584,0.39584 -0.51875,0.93334 -0.51875,1.6125 l 0,3.95625 -1.15625,0 0,-7 1.15625,0 0,1.0875 c 0.2625,-0.42916 0.57708,-0.74582 0.94375,-0.95 0.36666,-0.20416 0.80208,-0.30624 1.30625,-0.30625 0.50833,1e-5 0.93958,0.12918 1.29375,0.3875 0.35833,0.25834 0.62291,0.63334 0.79375,1.125"
       style=""
       id="path3117" />
    <path
       d="m 365.3125,289.38771 c -0.92917,10e-6 -1.57292,0.10626 -1.93125,0.31875 -0.35834,0.21251 -0.5375,0.57501 -0.5375,1.0875 0,0.40834 0.13333,0.73334 0.4,0.975 0.27083,0.2375 0.6375,0.35625 1.1,0.35625 0.6375,0 1.14791,-0.225 1.53125,-0.675 0.38749,-0.45416 0.58124,-1.05624 0.58125,-1.80625 l 0,-0.25625 -1.14375,0 m 2.29375,-0.475 0,3.99375 -1.15,0 0,-1.0625 c -0.26251,0.425 -0.58959,0.73959 -0.98125,0.94375 -0.39167,0.2 -0.87084,0.3 -1.4375,0.3 -0.71667,0 -1.2875,-0.2 -1.7125,-0.6 -0.42083,-0.40416 -0.63125,-0.94375 -0.63125,-1.61875 0,-0.78749 0.2625,-1.38124 0.7875,-1.78125 0.52916,-0.39999 1.31666,-0.59999 2.3625,-0.6 l 1.6125,0 0,-0.1125 c -1e-5,-0.52916 -0.17501,-0.93749 -0.525,-1.225 -0.34584,-0.29166 -0.83334,-0.43749 -1.4625,-0.4375 -0.4,10e-6 -0.78959,0.0479 -1.16875,0.14375 -0.37917,0.0958 -0.74375,0.23959 -1.09375,0.43125 l 0,-1.0625 c 0.42083,-0.16249 0.82916,-0.28332 1.225,-0.3625 0.39583,-0.0833 0.78125,-0.12499 1.15625,-0.125 1.0125,1e-5 1.76874,0.26251 2.26875,0.7875 0.49999,0.52501 0.74999,1.32084 0.75,2.3875"
       style=""
       id="path3119" />
    <path
       d="m 369.98125,283.18146 1.15,0 0,9.725 -1.15,0 0,-9.725"
       style=""
       id="path3121" />
    <path
       d="m 326.98125,302.71271 c -0.61667,10e-6 -1.10417,0.24168 -1.4625,0.725 -0.35834,0.47918 -0.5375,1.13751 -0.5375,1.975 0,0.83751 0.17708,1.49792 0.53125,1.98125 0.35833,0.47917 0.84791,0.71875 1.46875,0.71875 0.6125,0 1.09791,-0.24166 1.45625,-0.725 0.35833,-0.48333 0.53749,-1.14166 0.5375,-1.975 -1e-5,-0.82916 -0.17917,-1.48541 -0.5375,-1.96875 -0.35834,-0.48749 -0.84375,-0.73124 -1.45625,-0.73125 m 0,-0.975 c 0.99999,1e-5 1.78541,0.32501 2.35625,0.975 0.57083,0.65001 0.85624,1.55001 0.85625,2.7 -1e-5,1.14584 -0.28542,2.04584 -0.85625,2.7 -0.57084,0.65 -1.35626,0.975 -2.35625,0.975 -1.00417,0 -1.79167,-0.325 -2.3625,-0.975 -0.56667,-0.65416 -0.85,-1.55416 -0.85,-2.7 0,-1.14999 0.28333,-2.04999 0.85,-2.7 0.57083,-0.64999 1.35833,-0.97499 2.3625,-0.975"
       style=""
       id="path3123" />
    <path
       d="m 336.55625,302.11271 0,1.0875 c -0.32501,-0.16666 -0.66251,-0.29166 -1.0125,-0.375 -0.35,-0.0833 -0.7125,-0.12499 -1.0875,-0.125 -0.57084,10e-6 -1,0.0875 -1.2875,0.2625 -0.28334,0.17501 -0.425,0.43751 -0.425,0.7875 0,0.26668 0.10208,0.47709 0.30625,0.63125 0.20416,0.15001 0.61458,0.29376 1.23125,0.43125 l 0.39375,0.0875 c 0.81666,0.17501 1.39583,0.42292 1.7375,0.74375 0.34583,0.31667 0.51874,0.76042 0.51875,1.33125 -10e-6,0.65 -0.25834,1.16459 -0.775,1.54375 -0.5125,0.37917 -1.21875,0.56875 -2.11875,0.56875 -0.375,0 -0.76667,-0.0375 -1.175,-0.1125 -0.40417,-0.0708 -0.83125,-0.17916 -1.28125,-0.325 l 0,-1.1875 c 0.425,0.22084 0.84375,0.3875 1.25625,0.5 0.4125,0.10834 0.82083,0.1625 1.225,0.1625 0.54166,0 0.95833,-0.0917 1.25,-0.275 0.29166,-0.1875 0.4375,-0.44999 0.4375,-0.7875 0,-0.31249 -0.10625,-0.55208 -0.31875,-0.71875 -0.20834,-0.16666 -0.66875,-0.32708 -1.38125,-0.48125 l -0.4,-0.0937 c -0.7125,-0.14999 -1.22709,-0.37916 -1.54375,-0.6875 -0.31667,-0.31249 -0.475,-0.73958 -0.475,-1.28125 0,-0.65832 0.23333,-1.16666 0.7,-1.525 0.46666,-0.35832 1.12916,-0.53749 1.9875,-0.5375 0.425,1e-5 0.825,0.0313 1.2,0.0937 0.37499,0.0625 0.72083,0.15626 1.0375,0.28125"
       style=""
       id="path3125" />
    <path
       d="m 338.26875,301.90646 5.4625,0 0,1.05 -4.325,5.03125 4.325,0 0,0.91875 -5.61875,0 0,-1.05 4.325,-5.03125 -4.16875,0 0,-0.91875"
       style=""
       id="path3127" />
    <path
       d="m 346.63125,299.91896 0,1.9875 2.36875,0 0,0.89375 -2.36875,0 0,3.8 c 0,0.57084 0.0771,0.9375 0.23125,1.1 0.15833,0.1625 0.47708,0.24375 0.95625,0.24375 l 1.18125,0 0,0.9625 -1.18125,0 c -0.8875,0 -1.5,-0.16458 -1.8375,-0.49375 -0.3375,-0.33333 -0.50625,-0.93749 -0.50625,-1.8125 l 0,-3.8 -0.84375,0 0,-0.89375 0.84375,0 0,-1.9875 1.15625,0"
       style=""
       id="path3129" />
    <path
       d="m 356.3375,304.68146 0,4.225 -1.15,0 0,-4.1875 c -10e-6,-0.66249 -0.12917,-1.15832 -0.3875,-1.4875 -0.25834,-0.32916 -0.64584,-0.49374 -1.1625,-0.49375 -0.62084,1e-5 -1.11042,0.19793 -1.46875,0.59375 -0.35834,0.39584 -0.5375,0.93542 -0.5375,1.61875 l 0,3.95625 -1.15625,0 0,-9.725 1.15625,0 0,3.8125 c 0.275,-0.42082 0.59791,-0.73541 0.96875,-0.94375 0.375,-0.20832 0.80625,-0.31249 1.29375,-0.3125 0.80416,1e-5 1.41249,0.25001 1.825,0.75 0.41249,0.49584 0.61874,1.22709 0.61875,2.19375"
       style=""
       id="path3131" />
    <path
       d="m 361.825,305.38771 c -0.92917,10e-6 -1.57292,0.10626 -1.93125,0.31875 -0.35834,0.21251 -0.5375,0.57501 -0.5375,1.0875 0,0.40834 0.13333,0.73334 0.4,0.975 0.27083,0.2375 0.6375,0.35625 1.1,0.35625 0.6375,0 1.14791,-0.225 1.53125,-0.675 0.38749,-0.45416 0.58124,-1.05624 0.58125,-1.80625 l 0,-0.25625 -1.14375,0 m 2.29375,-0.475 0,3.99375 -1.15,0 0,-1.0625 c -0.26251,0.425 -0.58959,0.73959 -0.98125,0.94375 -0.39167,0.2 -0.87084,0.3 -1.4375,0.3 -0.71667,0 -1.2875,-0.2 -1.7125,-0.6 -0.42083,-0.40416 -0.63125,-0.94375 -0.63125,-1.61875 0,-0.78749 0.2625,-1.38124 0.7875,-1.78125 0.52916,-0.39999 1.31666,-0.59999 2.3625,-0.6 l 1.6125,0 0,-0.1125 c -10e-6,-0.52916 -0.17501,-0.93749 -0.525,-1.225 -0.34584,-0.29166 -0.83334,-0.43749 -1.4625,-0.4375 -0.4,10e-6 -0.78959,0.0479 -1.16875,0.14375 -0.37917,0.0958 -0.74375,0.23959 -1.09375,0.43125 l 0,-1.0625 c 0.42083,-0.16249 0.82916,-0.28332 1.225,-0.3625 0.39583,-0.0833 0.78125,-0.12499 1.15625,-0.125 1.01249,1e-5 1.76874,0.26251 2.26875,0.7875 0.49999,0.52501 0.74999,1.32084 0.75,2.3875"
       style=""
       id="path3133" />
    <path
       d="m 367.63125,299.91896 0,1.9875 2.36875,0 0,0.89375 -2.36875,0 0,3.8 c 0,0.57084 0.0771,0.9375 0.23125,1.1 0.15833,0.1625 0.47708,0.24375 0.95625,0.24375 l 1.18125,0 0,0.9625 -1.18125,0 c -0.8875,0 -1.5,-0.16458 -1.8375,-0.49375 -0.3375,-0.33333 -0.50625,-0.93749 -0.50625,-1.8125 l 0,-3.8 -0.84375,0 0,-0.89375 0.84375,0 0,-1.9875 1.15625,0"
       style=""
       id="path3135" />
    <path
       d="m 374.23125,302.71271 c -0.61667,10e-6 -1.10417,0.24168 -1.4625,0.725 -0.35834,0.47918 -0.5375,1.13751 -0.5375,1.975 0,0.83751 0.17708,1.49792 0.53125,1.98125 0.35833,0.47917 0.84791,0.71875 1.46875,0.71875 0.6125,0 1.09791,-0.24166 1.45625,-0.725 0.35833,-0.48333 0.53749,-1.14166 0.5375,-1.975 -1e-5,-0.82916 -0.17917,-1.48541 -0.5375,-1.96875 -0.35834,-0.48749 -0.84375,-0.73124 -1.45625,-0.73125 m 0,-0.975 c 0.99999,1e-5 1.78541,0.32501 2.35625,0.975 0.57083,0.65001 0.85624,1.55001 0.85625,2.7 -1e-5,1.14584 -0.28542,2.04584 -0.85625,2.7 -0.57084,0.65 -1.35626,0.975 -2.35625,0.975 -1.00417,0 -1.79167,-0.325 -2.3625,-0.975 -0.56667,-0.65416 -0.85,-1.55416 -0.85,-2.7 0,-1.14999 0.28333,-2.04999 0.85,-2.7 0.57083,-0.64999 1.35833,-0.97499 2.3625,-0.975 m 0.86875,-3.06875 1.24375,0 -2.0375,2.35 -0.95625,0 1.75,-2.35"
       style=""
       id="path3137" />
    <path
       d="m 380.58125,307.31896 1.26875,0 0,1.5875 -1.26875,0 0,-1.5875 m 1.23125,-0.91875 -1.19375,0 0,-0.9625 c 0,-0.42083 0.0583,-0.76666 0.175,-1.0375 0.11666,-0.27083 0.3625,-0.58541 0.7375,-0.94375 l 0.5625,-0.55625 c 0.2375,-0.22082 0.40833,-0.42916 0.5125,-0.625 0.10833,-0.19582 0.1625,-0.39582 0.1625,-0.6 0,-0.37082 -0.1375,-0.67082 -0.4125,-0.9 -0.27084,-0.22915 -0.63125,-0.34374 -1.08125,-0.34375 -0.32917,10e-6 -0.68125,0.0729 -1.05625,0.21875 -0.37083,0.14584 -0.75833,0.35834 -1.1625,0.6375 l 0,-1.175 c 0.39167,-0.23749 0.7875,-0.41457 1.1875,-0.53125 0.40416,-0.11665 0.82083,-0.17499 1.25,-0.175 0.76666,1e-5 1.38125,0.2021 1.84375,0.60625 0.46666,0.40418 0.69999,0.93751 0.7,1.6 -1e-5,0.31668 -0.075,0.61876 -0.225,0.90625 -0.15001,0.28334 -0.4125,0.60418 -0.7875,0.9625 l -0.55,0.5375 c -0.19584,0.19584 -0.33542,0.35001 -0.41875,0.4625 -0.0792,0.10834 -0.13542,0.21459 -0.16875,0.31875 -0.025,0.0875 -0.0437,0.19376 -0.0562,0.31875 -0.0125,0.12501 -0.0188,0.29584 -0.0188,0.5125 l 0,0.76875"
       style=""
       id="path3139" />
  </g>
  <path
     style="fill:none;stroke:#000000;stroke-width:2"
     d="m 269,276.48148 30,40"
     id="line76" />
  <g
     style="font-size:12.80000019px;font-style:normal;font-weight:normal;text-anchor:middle;fill:#000000;font-family:sans-serif"
     id="text78">
    <path
       d="m 278.43125,303.90646 1.15,0 0,7 -1.15,0 0,-7 m 0,-2.725 1.15,0 0,1.45625 -1.15,0 0,-1.45625"
       style=""
       id="path3143" />
  </g>
  <path
     style="fill:none;stroke:#000000;stroke-width:2"
     d="m 439,276.48148 -30,40"
     id="line82" />
  <g
     style="font-size:12.80000019px;font-style:normal;font-weight:normal;text-anchor:middle;fill:#000000;font-family:sans-serif"
     id="text84">
    <path
       d="m 431.9625,306.68146 0,4.225 -1.15,0 0,-4.1875 c -10e-6,-0.66249 -0.12917,-1.15832 -0.3875,-1.4875 -0.25834,-0.32916 -0.64584,-0.49374 -1.1625,-0.49375 -0.62084,1e-5 -1.11042,0.19793 -1.46875,0.59375 -0.35834,0.39584 -0.5375,0.93542 -0.5375,1.61875 l 0,3.95625 -1.15625,0 0,-7 1.15625,0 0,1.0875 c 0.275,-0.42082 0.59791,-0.73541 0.96875,-0.94375 0.375,-0.20832 0.80625,-0.31249 1.29375,-0.3125 0.80416,1e-5 1.41249,0.25001 1.825,0.75 0.41249,0.49584 0.61874,1.22709 0.61875,2.19375"
       style=""
       id="path3147" />
  </g>
  <g
     id="g88"
     transform="translate(-1,-3.5185169)">
    <path
       style="fill:#ffffff"
       d="m 200,280 70,0 0,120 -70,0 z"
       id="rect90" />
    <path
       style="fill:none;stroke:#000000;stroke-width:2"
       d="m 200,280 70,0 0,120 -70,0 z"
       id="rect92" />
  </g>
  <g
     style="font-size:12.80000019px;font-style:normal;font-weight:normal;text-anchor:middle;fill:#000000;font-family:sans-serif"
     id="text94">
    <path
       d="m 215.25,333.90646 0,7 -1.15625,0 0,-6.10625 -3.15625,0 0,6.10625 -1.15625,0 0,-6.10625 -1.1,0 0,-0.89375 1.1,0 0,-0.4875 c 0,-0.76249 0.17916,-1.32499 0.5375,-1.6875 0.3625,-0.36665 0.91666,-0.54999 1.6625,-0.55 l 1.15625,0 0,0.95625 -1.1,0 c -0.4125,10e-6 -0.7,0.0833 -0.8625,0.25 -0.15834,0.16668 -0.2375,0.46668 -0.2375,0.9 l 0,0.61875 4.3125,0 m -1.15625,-2.7125 1.15625,0 0,1.45625 -1.15625,0 0,-1.45625"
       style=""
       id="path3152" />
    <path
       d="m 217.16875,333.90646 5.4625,0 0,1.05 -4.325,5.03125 4.325,0 0,0.91875 -5.61875,0 0,-1.05 4.325,-5.03125 -4.16875,0 0,-0.91875"
       style=""
       id="path3154" />
    <path
       d="m 223.89375,333.90646 5.4625,0 0,1.05 -4.325,5.03125 4.325,0 0,0.91875 -5.61875,0 0,-1.05 4.325,-5.03125 -4.16875,0 0,-0.91875"
       style=""
       id="path3156" />
    <path
       d="m 236.14375,337.41271 c -1e-5,-0.84583 -0.17501,-1.50832 -0.525,-1.9875 -0.34584,-0.48332 -0.82292,-0.72499 -1.43125,-0.725 -0.60834,10e-6 -1.0875,0.24168 -1.4375,0.725 -0.34584,0.47918 -0.51875,1.14167 -0.51875,1.9875 0,0.84584 0.17291,1.51042 0.51875,1.99375 0.35,0.47917 0.82916,0.71875 1.4375,0.71875 0.60833,0 1.08541,-0.23958 1.43125,-0.71875 0.34999,-0.48333 0.52499,-1.14791 0.525,-1.99375 m -3.9125,-2.44375 c 0.24166,-0.41666 0.54583,-0.72499 0.9125,-0.925 0.37083,-0.20416 0.8125,-0.30624 1.325,-0.30625 0.84999,1e-5 1.53958,0.33751 2.06875,1.0125 0.53333,0.67501 0.79999,1.56251 0.8,2.6625 -1e-5,1.10001 -0.26667,1.98751 -0.8,2.6625 -0.52917,0.675 -1.21876,1.0125 -2.06875,1.0125 -0.5125,0 -0.95417,-0.1 -1.325,-0.3 -0.36667,-0.20416 -0.67084,-0.51458 -0.9125,-0.93125 l 0,1.05 -1.15625,0 0,-9.725 1.15625,0 0,3.7875"
       style=""
       id="path3158" />
    <path
       d="m 239.125,338.14396 0,-4.2375 1.15,0 0,4.19375 c 0,0.66251 0.12916,1.16042 0.3875,1.49375 0.25833,0.32917 0.64583,0.49375 1.1625,0.49375 0.62083,0 1.11041,-0.19791 1.46875,-0.59375 0.36249,-0.39583 0.54374,-0.93541 0.54375,-1.61875 l 0,-3.96875 1.15,0 0,7 -1.15,0 0,-1.075 c -0.27917,0.425 -0.60417,0.74167 -0.975,0.95 -0.36667,0.20417 -0.79375,0.30625 -1.28125,0.30625 -0.80417,0 -1.41459,-0.25 -1.83125,-0.75 -0.41667,-0.5 -0.625,-1.23124 -0.625,-2.19375 m 2.89375,-4.40625 0,0"
       style=""
       id="path3160" />
    <path
       d="m 246.86875,333.90646 5.4625,0 0,1.05 -4.325,5.03125 4.325,0 0,0.91875 -5.61875,0 0,-1.05 4.325,-5.03125 -4.16875,0 0,-0.91875"
       style=""
       id="path3162" />
    <path
       d="m 253.59375,333.90646 5.4625,0 0,1.05 -4.325,5.03125 4.325,0 0,0.91875 -5.61875,0 0,-1.05 4.325,-5.03125 -4.16875,0 0,-0.91875"
       style=""
       id="path3164" />
  </g>
  <path
     style="fill:none;stroke:#000000;stroke-width:2"
     d="m 199,236.48148 30,40"
     id="line98" />
  <g
     style="font-size:12.80000019px;font-style:normal;font-weight:normal;text-anchor:middle;fill:#000000;font-family:sans-serif"
     id="text100">
    <path
       d="m 208.43125,263.90646 1.15,0 0,7 -1.15,0 0,-7 m 0,-2.725 1.15,0 0,1.45625 -1.15,0 0,-1.45625"
       style=""
       id="path3168" />
  </g>
  <path
     style="fill:none;stroke:#000000;stroke-width:2"
     d="m 439,236.48148 -30,40"
     id="line104" />
  <g
     style="font-size:12.80000019px;font-style:normal;font-weight:normal;text-anchor:middle;fill:#000000;font-family:sans-serif"
     id="text106">
    <path
       d="m 431.9625,266.68146 0,4.225 -1.15,0 0,-4.1875 c -10e-6,-0.66249 -0.12917,-1.15832 -0.3875,-1.4875 -0.25834,-0.32916 -0.64584,-0.49374 -1.1625,-0.49375 -0.62084,1e-5 -1.11042,0.19793 -1.46875,0.59375 -0.35834,0.39584 -0.5375,0.93542 -0.5375,1.61875 l 0,3.95625 -1.15625,0 0,-7 1.15625,0 0,1.0875 c 0.275,-0.42082 0.59791,-0.73541 0.96875,-0.94375 0.375,-0.20832 0.80625,-0.31249 1.29375,-0.3125 0.80416,1e-5 1.41249,0.25001 1.825,0.75 0.41249,0.49584 0.61874,1.22709 0.61875,2.19375"
       style=""
       id="path3172" />
  </g>
  <g
     style="font-size:12.80000019px;font-style:normal;font-weight:normal;text-anchor:middle;fill:#000000;font-family:sans-serif"
     id="text110">
    <path
       d="m 272.75625,247.87521 c 0.60416,0.12918 1.07499,0.39792 1.4125,0.80625 0.34166,0.40834 0.51249,0.91251 0.5125,1.5125 -10e-6,0.92084 -0.31667,1.63334 -0.95,2.1375 -0.63334,0.50417 -1.53334,0.75625 -2.7,0.75625 -0.39167,0 -0.79584,-0.0396 -1.2125,-0.11875 -0.4125,-0.075 -0.83959,-0.18958 -1.28125,-0.34375 l 0,-1.21875 c 0.35,0.20417 0.73333,0.35834 1.15,0.4625 0.41666,0.10417 0.85208,0.15625 1.30625,0.15625 0.79166,0 1.39374,-0.15625 1.80625,-0.46875 0.41666,-0.31249 0.62499,-0.76666 0.625,-1.3625 -1e-5,-0.54999 -0.19376,-0.97916 -0.58125,-1.2875 -0.38334,-0.31249 -0.91876,-0.46874 -1.60625,-0.46875 l -1.0875,0 0,-1.0375 1.1375,0 c 0.62083,1e-5 1.09583,-0.12291 1.425,-0.36875 0.32916,-0.24999 0.49374,-0.60832 0.49375,-1.075 -1e-5,-0.47916 -0.17084,-0.84582 -0.5125,-1.1 -0.33751,-0.25832 -0.82292,-0.38749 -1.45625,-0.3875 -0.34584,1e-5 -0.71667,0.0375 -1.1125,0.1125 -0.39584,0.075 -0.83125,0.19168 -1.30625,0.35 l 0,-1.125 c 0.47916,-0.13332 0.92708,-0.23332 1.34375,-0.3 0.42083,-0.0667 0.81666,-0.1 1.1875,-0.1 0.95833,1e-5 1.71666,0.21876 2.275,0.65625 0.55833,0.43335 0.83749,1.02084 0.8375,1.7625 -10e-6,0.51668 -0.14792,0.95418 -0.44375,1.3125 -0.29584,0.35418 -0.71667,0.60001 -1.2625,0.7375"
       style=""
       id="path3175" />
    <path
       d="m 276.3375,248.88771 3.36875,0 0,1.025 -3.36875,0 0,-1.025"
       style=""
       id="path3177" />
    <path
       d="m 286.99375,247.25021 c 0.28749,-0.51666 0.63124,-0.89791 1.03125,-1.14375 0.39999,-0.24582 0.87082,-0.36874 1.4125,-0.36875 0.72916,1e-5 1.29166,0.25626 1.6875,0.76875 0.39582,0.50834 0.59374,1.23334 0.59375,2.175 l 0,4.225 -1.15625,0 0,-4.1875 c -10e-6,-0.67082 -0.11876,-1.16874 -0.35625,-1.49375 -0.23751,-0.32499 -0.60001,-0.48749 -1.0875,-0.4875 -0.59584,1e-5 -1.06667,0.19793 -1.4125,0.59375 -0.34584,0.39584 -0.51876,0.93542 -0.51875,1.61875 l 0,3.95625 -1.15625,0 0,-4.1875 c -10e-6,-0.67499 -0.11876,-1.17291 -0.35625,-1.49375 -0.23751,-0.32499 -0.60417,-0.48749 -1.1,-0.4875 -0.5875,1e-5 -1.05417,0.20001 -1.4,0.6 -0.34584,0.39584 -0.51875,0.93334 -0.51875,1.6125 l 0,3.95625 -1.15625,0 0,-7 1.15625,0 0,1.0875 c 0.2625,-0.42916 0.57708,-0.74582 0.94375,-0.95 0.36666,-0.20416 0.80208,-0.30624 1.30625,-0.30625 0.50833,1e-5 0.93958,0.12918 1.29375,0.3875 0.35833,0.25834 0.62291,0.63334 0.79375,1.125"
       style=""
       id="path3179" />
    <path
       d="m 297.2,249.38771 c -0.92917,1e-5 -1.57292,0.10626 -1.93125,0.31875 -0.35834,0.21251 -0.5375,0.57501 -0.5375,1.0875 0,0.40834 0.13333,0.73334 0.4,0.975 0.27083,0.2375 0.6375,0.35625 1.1,0.35625 0.6375,0 1.14791,-0.225 1.53125,-0.675 0.38749,-0.45416 0.58124,-1.05624 0.58125,-1.80625 l 0,-0.25625 -1.14375,0 m 2.29375,-0.475 0,3.99375 -1.15,0 0,-1.0625 c -0.26251,0.425 -0.58959,0.73959 -0.98125,0.94375 -0.39167,0.2 -0.87084,0.3 -1.4375,0.3 -0.71667,0 -1.2875,-0.2 -1.7125,-0.6 -0.42084,-0.40416 -0.63125,-0.94375 -0.63125,-1.61875 0,-0.78749 0.2625,-1.38124 0.7875,-1.78125 0.52916,-0.39999 1.31666,-0.59999 2.3625,-0.6 l 1.6125,0 0,-0.1125 c -10e-6,-0.52916 -0.17501,-0.93749 -0.525,-1.225 -0.34584,-0.29166 -0.83334,-0.43749 -1.4625,-0.4375 -0.4,1e-5 -0.78959,0.0479 -1.16875,0.14375 -0.37917,0.0958 -0.74375,0.23959 -1.09375,0.43125 l 0,-1.0625 c 0.42083,-0.16249 0.82916,-0.28332 1.225,-0.3625 0.39583,-0.0833 0.78125,-0.12499 1.15625,-0.125 1.01249,1e-5 1.76874,0.26251 2.26875,0.7875 0.49999,0.52501 0.74999,1.32084 0.75,2.3875"
       style=""
       id="path3181" />
    <path
       d="m 301.86875,243.18146 1.15,0 0,9.725 -1.15,0 0,-9.725"
       style=""
       id="path3183" />
    <path
       d="m 315.48125,249.11896 0,0.5625 -5.2875,0 c 0.05,0.79167 0.2875,1.39584 0.7125,1.8125 0.42917,0.4125 1.025,0.61875 1.7875,0.61875 0.44166,0 0.86875,-0.0542 1.28125,-0.1625 0.41666,-0.10833 0.82916,-0.27083 1.2375,-0.4875 l 0,1.0875 c -0.4125,0.175 -0.83542,0.30834 -1.26875,0.4 -0.43334,0.0917 -0.87292,0.1375 -1.31875,0.1375 -1.11667,0 -2.00208,-0.325 -2.65625,-0.975 -0.65,-0.64999 -0.975,-1.52916 -0.975,-2.6375 0,-1.14583 0.30833,-2.05416 0.925,-2.725 0.62083,-0.67499 1.45625,-1.01249 2.50625,-1.0125 0.94166,1e-5 1.68541,0.30418 2.23125,0.9125 0.54999,0.60418 0.82499,1.42709 0.825,2.46875 m -1.15,-0.3375 c -0.008,-0.62916 -0.18542,-1.13124 -0.53125,-1.50625 -0.34167,-0.37499 -0.79584,-0.56249 -1.3625,-0.5625 -0.64167,1e-5 -1.15625,0.18126 -1.54375,0.54375 -0.38333,0.36251 -0.60417,0.87292 -0.6625,1.53125 l 4.1,-0.006 m -1.10625,-6.1125 1.24375,0 -2.0375,2.35 -0.95625,0 1.75,-2.35"
       style=""
       id="path3185" />
    <path
       d="m 321.83125,246.11271 0,1.0875 c -0.325,-0.16666 -0.6625,-0.29166 -1.0125,-0.375 -0.35,-0.0833 -0.7125,-0.12499 -1.0875,-0.125 -0.57083,1e-5 -1,0.0875 -1.2875,0.2625 -0.28333,0.17501 -0.425,0.43751 -0.425,0.7875 0,0.26668 0.10208,0.47709 0.30625,0.63125 0.20417,0.15001 0.61458,0.29376 1.23125,0.43125 l 0.39375,0.0875 c 0.81666,0.17501 1.39583,0.42292 1.7375,0.74375 0.34583,0.31667 0.51875,0.76042 0.51875,1.33125 0,0.65 -0.25834,1.16459 -0.775,1.54375 -0.5125,0.37917 -1.21875,0.56875 -2.11875,0.56875 -0.375,0 -0.76667,-0.0375 -1.175,-0.1125 -0.40417,-0.0708 -0.83125,-0.17916 -1.28125,-0.325 l 0,-1.1875 c 0.425,0.22084 0.84375,0.3875 1.25625,0.5 0.4125,0.10834 0.82083,0.1625 1.225,0.1625 0.54166,0 0.95833,-0.0917 1.25,-0.275 0.29166,-0.1875 0.4375,-0.44999 0.4375,-0.7875 0,-0.31249 -0.10625,-0.55208 -0.31875,-0.71875 -0.20834,-0.16666 -0.66875,-0.32708 -1.38125,-0.48125 l -0.4,-0.0937 c -0.7125,-0.14999 -1.22708,-0.37916 -1.54375,-0.6875 -0.31667,-0.31249 -0.475,-0.73958 -0.475,-1.28125 0,-0.65832 0.23333,-1.16666 0.7,-1.525 0.46667,-0.35832 1.12917,-0.53749 1.9875,-0.5375 0.425,1e-5 0.825,0.0313 1.2,0.0937 0.375,0.0625 0.72083,0.15626 1.0375,0.28125"
       style=""
       id="path3187" />
    <path
       d="m 328.29375,243.57521 4.95625,0 0,1.0625 -3.8,0 0,2.2875 c 0.18333,-0.0625 0.36667,-0.10832 0.55,-0.1375 0.18333,-0.0333 0.36666,-0.05 0.55,-0.05 1.04166,1e-5 1.86666,0.28543 2.475,0.85625 0.60833,0.57084 0.91249,1.34376 0.9125,2.31875 -10e-6,1.00417 -0.31251,1.78542 -0.9375,2.34375 -0.625,0.55417 -1.50625,0.83125 -2.64375,0.83125 -0.39167,0 -0.79167,-0.0333 -1.2,-0.1 -0.40417,-0.0667 -0.82292,-0.16666 -1.25625,-0.3 l 0,-1.26875 c 0.375,0.20417 0.7625,0.35625 1.1625,0.45625 0.4,0.1 0.82292,0.15 1.26875,0.15 0.72083,0 1.29166,-0.18958 1.7125,-0.56875 0.42083,-0.37916 0.63125,-0.89374 0.63125,-1.54375 0,-0.64999 -0.21042,-1.16458 -0.63125,-1.54375 -0.42084,-0.37916 -0.99167,-0.56874 -1.7125,-0.56875 -0.3375,1e-5 -0.675,0.0375 -1.0125,0.1125 -0.33333,0.075 -0.675,0.19168 -1.025,0.35 l 0,-4.6875"
       style=""
       id="path3189" />
    <path
       d="m 335.6875,248.88771 3.36875,0 0,1.025 -3.36875,0 0,-1.025"
       style=""
       id="path3191" />
    <path
       d="m 342.03125,243.91896 0,1.9875 2.36875,0 0,0.89375 -2.36875,0 0,3.8 c 0,0.57084 0.0771,0.9375 0.23125,1.1 0.15833,0.1625 0.47708,0.24375 0.95625,0.24375 l 1.18125,0 0,0.9625 -1.18125,0 c -0.8875,0 -1.5,-0.16458 -1.8375,-0.49375 -0.3375,-0.33333 -0.50625,-0.93749 -0.50625,-1.8125 l 0,-3.8 -0.84375,0 0,-0.89375 0.84375,0 0,-1.9875 1.15625,0"
       style=""
       id="path3193" />
    <path
       d="m 351.90625,249.11896 0,0.5625 -5.2875,0 c 0.05,0.79167 0.2875,1.39584 0.7125,1.8125 0.42916,0.4125 1.025,0.61875 1.7875,0.61875 0.44166,0 0.86875,-0.0542 1.28125,-0.1625 0.41666,-0.10833 0.82916,-0.27083 1.2375,-0.4875 l 0,1.0875 c -0.41251,0.175 -0.83542,0.30834 -1.26875,0.4 -0.43334,0.0917 -0.87292,0.1375 -1.31875,0.1375 -1.11667,0 -2.00208,-0.325 -2.65625,-0.975 -0.65,-0.64999 -0.975,-1.52916 -0.975,-2.6375 0,-1.14583 0.30833,-2.05416 0.925,-2.725 0.62083,-0.67499 1.45625,-1.01249 2.50625,-1.0125 0.94166,1e-5 1.68541,0.30418 2.23125,0.9125 0.54999,0.60418 0.82499,1.42709 0.825,2.46875 m -1.15,-0.3375 c -0.008,-0.62916 -0.18542,-1.13124 -0.53125,-1.50625 -0.34167,-0.37499 -0.79584,-0.56249 -1.3625,-0.5625 -0.64167,1e-5 -1.15625,0.18126 -1.54375,0.54375 -0.38333,0.36251 -0.60417,0.87292 -0.6625,1.53125 l 4.1,-0.006"
       style=""
       id="path3195" />
    <path
       d="m 353.79375,243.18146 1.15,0 0,9.725 -1.15,0 0,-9.725"
       style=""
       id="path3197" />
    <path
       d="m 361.41875,245.90646 1.15,0 0,7 -1.15,0 0,-7 m 0,-2.725 1.15,0 0,1.45625 -1.15,0 0,-1.45625"
       style=""
       id="path3199" />
    <path
       d="m 369.43125,246.11271 0,1.0875 c -0.325,-0.16666 -0.6625,-0.29166 -1.0125,-0.375 -0.35,-0.0833 -0.7125,-0.12499 -1.0875,-0.125 -0.57083,1e-5 -1,0.0875 -1.2875,0.2625 -0.28333,0.17501 -0.425,0.43751 -0.425,0.7875 0,0.26668 0.10209,0.47709 0.30625,0.63125 0.20417,0.15001 0.61458,0.29376 1.23125,0.43125 l 0.39375,0.0875 c 0.81667,0.17501 1.39583,0.42292 1.7375,0.74375 0.34583,0.31667 0.51875,0.76042 0.51875,1.33125 0,0.65 -0.25834,1.16459 -0.775,1.54375 -0.5125,0.37917 -1.21875,0.56875 -2.11875,0.56875 -0.375,0 -0.76667,-0.0375 -1.175,-0.1125 -0.40416,-0.0708 -0.83125,-0.17916 -1.28125,-0.325 l 0,-1.1875 c 0.425,0.22084 0.84375,0.3875 1.25625,0.5 0.4125,0.10834 0.82083,0.1625 1.225,0.1625 0.54167,0 0.95833,-0.0917 1.25,-0.275 0.29167,-0.1875 0.4375,-0.44999 0.4375,-0.7875 0,-0.31249 -0.10625,-0.55208 -0.31875,-0.71875 -0.20833,-0.16666 -0.66875,-0.32708 -1.38125,-0.48125 l -0.4,-0.0937 c -0.7125,-0.14999 -1.22708,-0.37916 -1.54375,-0.6875 -0.31666,-0.31249 -0.475,-0.73958 -0.475,-1.28125 0,-0.65832 0.23334,-1.16666 0.7,-1.525 0.46667,-0.35832 1.12917,-0.53749 1.9875,-0.5375 0.425,1e-5 0.825,0.0313 1.2,0.0937 0.375,0.0625 0.72083,0.15626 1.0375,0.28125"
       style=""
       id="path3201" />
    <path
       d="m 291.98125,262.71271 c -0.61667,10e-6 -1.10417,0.24168 -1.4625,0.725 -0.35834,0.47918 -0.5375,1.13751 -0.5375,1.975 0,0.83751 0.17708,1.49792 0.53125,1.98125 0.35833,0.47917 0.84791,0.71875 1.46875,0.71875 0.6125,0 1.09791,-0.24166 1.45625,-0.725 0.35833,-0.48333 0.53749,-1.14166 0.5375,-1.975 -1e-5,-0.82916 -0.17917,-1.48541 -0.5375,-1.96875 -0.35834,-0.48749 -0.84375,-0.73124 -1.45625,-0.73125 m 0,-0.975 c 0.99999,1e-5 1.78541,0.32501 2.35625,0.975 0.57083,0.65001 0.85624,1.55001 0.85625,2.7 -1e-5,1.14584 -0.28542,2.04584 -0.85625,2.7 -0.57084,0.65 -1.35626,0.975 -2.35625,0.975 -1.00417,0 -1.79167,-0.325 -2.3625,-0.975 -0.56667,-0.65416 -0.85,-1.55416 -0.85,-2.7 0,-1.14999 0.28333,-2.04999 0.85,-2.7 0.57083,-0.64999 1.35833,-0.97499 2.3625,-0.975"
       style=""
       id="path3203" />
    <path
       d="m 301.55625,262.11271 0,1.0875 c -0.32501,-0.16666 -0.66251,-0.29166 -1.0125,-0.375 -0.35,-0.0833 -0.7125,-0.12499 -1.0875,-0.125 -0.57084,10e-6 -1,0.0875 -1.2875,0.2625 -0.28334,0.17501 -0.425,0.43751 -0.425,0.7875 0,0.26668 0.10208,0.47709 0.30625,0.63125 0.20416,0.15001 0.61458,0.29376 1.23125,0.43125 l 0.39375,0.0875 c 0.81666,0.17501 1.39583,0.42292 1.7375,0.74375 0.34583,0.31667 0.51874,0.76042 0.51875,1.33125 -10e-6,0.65 -0.25834,1.16459 -0.775,1.54375 -0.5125,0.37917 -1.21875,0.56875 -2.11875,0.56875 -0.375,0 -0.76667,-0.0375 -1.175,-0.1125 -0.40417,-0.0708 -0.83125,-0.17916 -1.28125,-0.325 l 0,-1.1875 c 0.425,0.22084 0.84375,0.3875 1.25625,0.5 0.4125,0.10834 0.82083,0.1625 1.225,0.1625 0.54166,0 0.95833,-0.0917 1.25,-0.275 0.29166,-0.1875 0.4375,-0.44999 0.4375,-0.7875 0,-0.31249 -0.10625,-0.55208 -0.31875,-0.71875 -0.20834,-0.16666 -0.66875,-0.32708 -1.38125,-0.48125 l -0.4,-0.0937 c -0.7125,-0.14999 -1.22709,-0.37916 -1.54375,-0.6875 -0.31667,-0.31249 -0.475,-0.73958 -0.475,-1.28125 0,-0.65832 0.23333,-1.16666 0.7,-1.525 0.46666,-0.35832 1.12916,-0.53749 1.9875,-0.5375 0.425,1e-5 0.825,0.0313 1.2,0.0937 0.37499,0.0625 0.72083,0.15626 1.0375,0.28125"
       style=""
       id="path3205" />
    <path
       d="m 303.26875,261.90646 5.4625,0 0,1.05 -4.325,5.03125 4.325,0 0,0.91875 -5.61875,0 0,-1.05 4.325,-5.03125 -4.16875,0 0,-0.91875"
       style=""
       id="path3207" />
    <path
       d="m 311.63125,259.91896 0,1.9875 2.36875,0 0,0.89375 -2.36875,0 0,3.8 c 0,0.57084 0.0771,0.9375 0.23125,1.1 0.15833,0.1625 0.47708,0.24375 0.95625,0.24375 l 1.18125,0 0,0.9625 -1.18125,0 c -0.8875,0 -1.5,-0.16458 -1.8375,-0.49375 -0.3375,-0.33333 -0.50625,-0.93749 -0.50625,-1.8125 l 0,-3.8 -0.84375,0 0,-0.89375 0.84375,0 0,-1.9875 1.15625,0"
       style=""
       id="path3209" />
    <path
       d="m 321.3375,264.68146 0,4.225 -1.15,0 0,-4.1875 c -10e-6,-0.66249 -0.12917,-1.15832 -0.3875,-1.4875 -0.25834,-0.32916 -0.64584,-0.49374 -1.1625,-0.49375 -0.62084,1e-5 -1.11042,0.19793 -1.46875,0.59375 -0.35834,0.39584 -0.5375,0.93542 -0.5375,1.61875 l 0,3.95625 -1.15625,0 0,-9.725 1.15625,0 0,3.8125 c 0.275,-0.42082 0.59791,-0.73541 0.96875,-0.94375 0.375,-0.20832 0.80625,-0.31249 1.29375,-0.3125 0.80416,1e-5 1.41249,0.25001 1.825,0.75 0.41249,0.49584 0.61874,1.22709 0.61875,2.19375"
       style=""
       id="path3211" />
    <path
       d="m 326.825,265.38771 c -0.92917,10e-6 -1.57292,0.10626 -1.93125,0.31875 -0.35834,0.21251 -0.5375,0.57501 -0.5375,1.0875 0,0.40834 0.13333,0.73334 0.4,0.975 0.27083,0.2375 0.6375,0.35625 1.1,0.35625 0.6375,0 1.14791,-0.225 1.53125,-0.675 0.38749,-0.45416 0.58124,-1.05624 0.58125,-1.80625 l 0,-0.25625 -1.14375,0 m 2.29375,-0.475 0,3.99375 -1.15,0 0,-1.0625 c -0.26251,0.425 -0.58959,0.73959 -0.98125,0.94375 -0.39167,0.2 -0.87084,0.3 -1.4375,0.3 -0.71667,0 -1.2875,-0.2 -1.7125,-0.6 -0.42083,-0.40416 -0.63125,-0.94375 -0.63125,-1.61875 0,-0.78749 0.2625,-1.38124 0.7875,-1.78125 0.52916,-0.39999 1.31666,-0.59999 2.3625,-0.6 l 1.6125,0 0,-0.1125 c -10e-6,-0.52916 -0.17501,-0.93749 -0.525,-1.225 -0.34584,-0.29166 -0.83334,-0.43749 -1.4625,-0.4375 -0.4,10e-6 -0.78959,0.0479 -1.16875,0.14375 -0.37917,0.0958 -0.74375,0.23959 -1.09375,0.43125 l 0,-1.0625 c 0.42083,-0.16249 0.82916,-0.28332 1.225,-0.3625 0.39583,-0.0833 0.78125,-0.12499 1.15625,-0.125 1.01249,1e-5 1.76874,0.26251 2.26875,0.7875 0.49999,0.52501 0.74999,1.32084 0.75,2.3875"
       style=""
       id="path3213" />
    <path
       d="m 332.63125,259.91896 0,1.9875 2.36875,0 0,0.89375 -2.36875,0 0,3.8 c 0,0.57084 0.0771,0.9375 0.23125,1.1 0.15833,0.1625 0.47708,0.24375 0.95625,0.24375 l 1.18125,0 0,0.9625 -1.18125,0 c -0.8875,0 -1.5,-0.16458 -1.8375,-0.49375 -0.3375,-0.33333 -0.50625,-0.93749 -0.50625,-1.8125 l 0,-3.8 -0.84375,0 0,-0.89375 0.84375,0 0,-1.9875 1.15625,0"
       style=""
       id="path3215" />
    <path
       d="m 339.23125,262.71271 c -0.61667,10e-6 -1.10417,0.24168 -1.4625,0.725 -0.35834,0.47918 -0.5375,1.13751 -0.5375,1.975 0,0.83751 0.17708,1.49792 0.53125,1.98125 0.35833,0.47917 0.84791,0.71875 1.46875,0.71875 0.6125,0 1.09791,-0.24166 1.45625,-0.725 0.35833,-0.48333 0.53749,-1.14166 0.5375,-1.975 -1e-5,-0.82916 -0.17917,-1.48541 -0.5375,-1.96875 -0.35834,-0.48749 -0.84375,-0.73124 -1.45625,-0.73125 m 0,-0.975 c 0.99999,1e-5 1.78541,0.32501 2.35625,0.975 0.57083,0.65001 0.85624,1.55001 0.85625,2.7 -1e-5,1.14584 -0.28542,2.04584 -0.85625,2.7 -0.57084,0.65 -1.35626,0.975 -2.35625,0.975 -1.00417,0 -1.79167,-0.325 -2.3625,-0.975 -0.56667,-0.65416 -0.85,-1.55416 -0.85,-2.7 0,-1.14999 0.28333,-2.04999 0.85,-2.7 0.57083,-0.64999 1.35833,-0.97499 2.3625,-0.975 m 0.86875,-3.06875 1.24375,0 -2.0375,2.35 -0.95625,0 1.75,-2.35"
       style=""
       id="path3217" />
    <path
       d="m 345.58125,267.31896 1.26875,0 0,1.5875 -1.26875,0 0,-1.5875 m 1.23125,-0.91875 -1.19375,0 0,-0.9625 c 0,-0.42083 0.0583,-0.76666 0.175,-1.0375 0.11666,-0.27083 0.3625,-0.58541 0.7375,-0.94375 l 0.5625,-0.55625 c 0.2375,-0.22082 0.40833,-0.42916 0.5125,-0.625 0.10833,-0.19582 0.1625,-0.39582 0.1625,-0.6 0,-0.37082 -0.1375,-0.67082 -0.4125,-0.9 -0.27084,-0.22915 -0.63125,-0.34374 -1.08125,-0.34375 -0.32917,10e-6 -0.68125,0.0729 -1.05625,0.21875 -0.37083,0.14584 -0.75833,0.35834 -1.1625,0.6375 l 0,-1.175 c 0.39167,-0.23749 0.7875,-0.41457 1.1875,-0.53125 0.40416,-0.11665 0.82083,-0.17499 1.25,-0.175 0.76666,1e-5 1.38125,0.2021 1.84375,0.60625 0.46666,0.40418 0.69999,0.93751 0.7,1.6 -1e-5,0.31668 -0.075,0.61876 -0.225,0.90625 -0.15001,0.28334 -0.4125,0.60418 -0.7875,0.9625 l -0.55,0.5375 c -0.19584,0.19584 -0.33542,0.35001 -0.41875,0.4625 -0.0792,0.10834 -0.13542,0.21459 -0.16875,0.31875 -0.025,0.0875 -0.0437,0.19376 -0.0562,0.31875 -0.0125,0.12501 -0.0188,0.29584 -0.0188,0.5125 l 0,0.76875"
       style=""
       id="path3219" />
  </g>
</svg>
