<?xml version="1.0" encoding="UTF-8" standalone="no"?>
<!-- Created with Inkscape (http://www.inkscape.org/) -->
<svg id="svg2" xmlns:rdf="http://www.w3.org/1999/02/22-rdf-syntax-ns#" xmlns="http://www.w3.org/2000/svg" height="271.55" width="364.71" version="1.1" xmlns:cc="http://creativecommons.org/ns#" xmlns:dc="http://purl.org/dc/elements/1.1/" viewBox="338 41 189.95251 150.40361">
 <metadata id="metadata88">
  <rdf:RDF>
   <cc:Work rdf:about="">
    <dc:format>image/svg+xml</dc:format>
    <dc:type rdf:resource="http://purl.org/dc/dcmitype/StillImage"/>
   </cc:Work>
  </rdf:RDF>
 </metadata>
 <g id="g4" transform="translate(-7.0237 -3.5202)">
  <path id="rect6" fill="#7babe3" d="m340 70h40v40h-40z"/>
  <path id="rect8" d="m340 70h40v40h-40z" stroke="#000" stroke-width="2" fill="none"/>
 </g>
 <g id="g10" transform="translate(-7.0237 -3.5202)">
  <path id="rect12" fill="#7babe3" d="m380 70h40v40h-40z"/>
  <path id="rect14" d="m380 70h40v40h-40z" stroke="#000" stroke-width="2" fill="none"/>
 </g>
 <g id="g16" transform="translate(-7.0237 -3.5202)">
  <path id="rect18" fill="#7babe3" d="m420 70h40v40h-40z"/>
  <path id="rect20" d="m420 70h40v40h-40z" stroke="#000" stroke-width="2" fill="none"/>
 </g>
 <g id="g22" transform="translate(-7.0237 -3.5202)">
  <path id="rect24" fill="#7babe3" d="m460 70h40v40h-40z"/>
  <path id="rect26" d="m460 70h40v40h-40z" stroke="#000" stroke-width="2" fill="none"/>
 </g>
 <g id="g28" transform="translate(-7.0237 -3.5202)">
  <path id="rect30" fill="#7babe3" d="m500 70h40v40h-40z"/>
  <path id="rect32" d="m500 70h40v40h-40z" stroke="#000" stroke-width="2" fill="none"/>
 </g>
 <g id="g34" transform="translate(-7.0237 -3.5202)">
  <path id="rect36" fill="#fdfd04" d="m340 150h40v20h-40z"/>
  <path id="rect38" d="m340 150h40v20h-40z" stroke="#000" stroke-width="2" fill="none"/>
 </g>
 <g id="text40">
  <path id="path3035" style="" d="m350.12 183.85v-4.6765h1.4199v12.008h-1.4199v-1.2964c-0.2984 0.51447-0.67653 0.89774-1.1344 1.1498-0.45273 0.24695-0.99807 0.37042-1.636 0.37042-1.0444 0-1.8958-0.41672-2.5543-1.2502-0.65338-0.83343-0.98006-1.9292-0.98006-3.2874s0.32668-2.454 0.98006-3.2874c0.65851-0.83343 1.51-1.2502 2.5543-1.2502 0.63793 0.00001 1.1833 0.12606 1.636 0.37814 0.45787 0.24695 0.836 0.62765 1.1344 1.1421m-4.8386 3.0174c-0.00001 1.0444 0.2135 1.8649 0.64051 2.4617 0.43214 0.59163 1.0238 0.88745 1.7749 0.88745 0.75112 0 1.3428-0.29582 1.7749-0.88745 0.43215-0.59678 0.64822-1.4174 0.64823-2.4617-0.00001-1.0444-0.21608-1.8624-0.64823-2.454-0.43215-0.59677-1.0238-0.89516-1.7749-0.89517-0.75112 0.00001-1.3428 0.2984-1.7749 0.89517-0.42701 0.59164-0.64052 1.4096-0.64051 2.454"/>
  <path id="path3037" style="" d="m360.67 186.87c-0.00001-1.0444-0.21608-1.8624-0.64823-2.454-0.42701-0.59677-1.0161-0.89516-1.7672-0.89517-0.75112 0.00001-1.3428 0.2984-1.7749 0.89517-0.42701 0.59164-0.64051 1.4096-0.64051 2.454s0.2135 1.8649 0.64051 2.4617c0.43215 0.59163 1.0238 0.88745 1.7749 0.88745 0.75111 0 1.3402-0.29582 1.7672-0.88745 0.43215-0.59678 0.64822-1.4174 0.64823-2.4617m-4.8308-3.0174c0.29839-0.51446 0.67395-0.89516 1.1267-1.1421 0.45787-0.25208 1.0032-0.37813 1.636-0.37814 1.0495 0.00001 1.901 0.41673 2.5543 1.2502 0.65851 0.83344 0.98777 1.9292 0.98777 3.2874s-0.32926 2.454-0.98777 3.2874c-0.65338 0.83344-1.5048 1.2502-2.5543 1.2502-0.63279 0-1.1781-0.12347-1.636-0.37042-0.45273-0.25209-0.82829-0.63536-1.1267-1.1498v1.2964h-1.4276v-12.008h1.4276v4.6765"/>
 </g>
 <g id="g44" transform="translate(-7.0237 -3.5202)">
  <path id="path46" d="m360 149.1c0-30 80 1.902 80-28.362" stroke="#000" stroke-width="2" fill="none"/>
  <path id="polygon48" d="m440 120.74-5 2.5 5-10 5 10z"/>
  <path id="polygon50" d="m440 120.74-5 2.5 5-10 5 10z" stroke="#000" stroke-width="2" fill="none"/>
 </g>
 <g id="text52">
  <path id="path3042" style="" d="m349.33 85.743c0.74597 0.15949 1.3273 0.49132 1.744 0.99549 0.42185 0.50418 0.63278 1.1267 0.63279 1.8675-0.00001 1.137-0.391 2.0167-1.173 2.6392-0.78199 0.6225-1.8932 0.93376-3.3337 0.93376-0.4836 0-0.98263-0.04887-1.4971-0.14662-0.50932-0.0926-1.0366-0.23408-1.582-0.42443v-1.5048c0.43215 0.25209 0.90546 0.44244 1.4199 0.57106 0.51446 0.12862 1.0521 0.19293 1.6128 0.19292 0.97748 0.000002 1.7209-0.19292 2.2302-0.57877 0.51446-0.38585 0.77169-0.94662 0.7717-1.6823-0.00001-0.67909-0.23924-1.209-0.71768-1.5897-0.47332-0.38584-1.1344-0.57877-1.9833-0.57877h-1.3428v-1.281h1.4045c0.76655 0.000007 1.353-0.15176 1.7595-0.4553 0.40642-0.30867 0.60964-0.75111 0.60964-1.3273 0-0.59163-0.21093-1.0444-0.63279-1.3582-0.41672-0.31896-1.0161-0.47844-1.7981-0.47845-0.42701 0.00001-0.88488 0.04631-1.3736 0.1389-0.48875 0.09261-1.0264 0.23666-1.6129 0.43215v-1.3891c0.59164-0.16462 1.1447-0.28809 1.6592-0.37042 0.51961-0.0823 1.0084-0.12346 1.4662-0.12347 1.1833 0.000012 2.1196 0.27011 2.809 0.81028 0.68938 0.53506 1.0341 1.2605 1.0341 2.1762-0.00001 0.63795-0.18264 1.1781-0.54791 1.6206-0.36528 0.4373-0.88489 0.74084-1.5588 0.9106"/>
  <path id="path3044" style="" d="m354.27 80.433h7.4083v0.66366l-4.1826 10.858h-1.6283l3.9357-10.21h-5.5331v-1.3119"/>
 </g>
 <g id="text56">
  <path id="path3047" style="" d="m384.87 90.643h2.5466v-8.7897l-2.7704 0.55562v-1.4199l2.755-0.55562h1.5588v10.21h2.5466v1.3119h-6.6366v-1.3119"/>
  <path id="path3049" style="" d="m396.01 90.643h5.4405v1.3119h-7.3157v-1.3119c0.59163-0.61221 1.3968-1.4328 2.4154-2.4617 1.0238-1.0341 1.6669-1.7003 1.9292-1.9987 0.49903-0.56076 0.84629-1.0341 1.0418-1.4199 0.20063-0.39099 0.30095-0.77426 0.30096-1.1498-0.00001-0.61221-0.21608-1.1112-0.64823-1.4971-0.42701-0.38584-0.98521-0.57876-1.6746-0.57877-0.48874 0.00001-1.0058 0.0849-1.5511 0.25466-0.54019 0.16978-1.119 0.42702-1.7363 0.7717v-1.5743c0.62764-0.25208 1.2141-0.44243 1.7595-0.57106 0.54533-0.1286 1.0444-0.19291 1.4971-0.19292 1.1936 0.000012 2.1453 0.2984 2.8553 0.89517 0.70996 0.59679 1.0649 1.3942 1.065 2.3923-0.00001 0.47332-0.09 0.92347-0.2701 1.3505-0.17492 0.42187-0.49646 0.9209-0.96462 1.4971-0.12862 0.1492-0.53762 0.58135-1.227 1.2965-0.68939 0.70997-1.6617 1.7055-2.917 2.9865"/>
 </g>
 <g id="text60">
  <path id="path3052" style="" d="m352.97 42.235c-0.80257 0.000011-1.4071 0.39615-1.8135 1.1884-0.40129 0.78714-0.60193 1.973-0.60193 3.5575 0 1.5794 0.20064 2.7653 0.60193 3.5575 0.40642 0.78714 1.0109 1.1807 1.8135 1.1807 0.80771 0.000001 1.4122-0.39356 1.8135-1.1807 0.40642-0.79228 0.60964-1.9781 0.60965-3.5575-0.00001-1.5845-0.20323-2.7704-0.60965-3.5575-0.40129-0.79227-1.0058-1.1884-1.8135-1.1884m0-1.2347c1.2913 0.000012 2.2765 0.5119 2.9556 1.5357 0.68423 1.0187 1.0264 2.5003 1.0264 4.445-0.00001 1.9395-0.34213 3.4212-1.0264 4.445-0.6791 1.0186-1.6643 1.528-2.9556 1.528-1.2913-0.000001-2.2791-0.50932-2.9633-1.528-0.6791-1.0238-1.0186-2.5054-1.0186-4.445 0-1.9447 0.33955-3.4263 1.0186-4.445 0.68423-1.0238 1.672-1.5357 2.9633-1.5357"/>
 </g>
 <g id="text64">
  <path id="path3055" style="" d="m389.9 51.418h2.5466v-8.7897l-2.7704 0.55562v-1.4199l2.755-0.55562h1.5588v10.21h2.5466v1.3119h-6.6366v-1.3119"/>
 </g>
 <g id="text68">
  <path id="path3058" style="" d="m430.98 51.418h5.4405v1.3119h-7.3157v-1.3119c0.59163-0.61221 1.3968-1.4328 2.4154-2.4617 1.0238-1.0341 1.6669-1.7003 1.9292-1.9987 0.49903-0.56076 0.84629-1.0341 1.0418-1.4199 0.20063-0.39099 0.30095-0.77426 0.30096-1.1498-0.00001-0.61221-0.21608-1.1112-0.64823-1.4971-0.42701-0.38584-0.9852-0.57876-1.6746-0.57878-0.48875 0.000011-1.0058 0.0849-1.5511 0.25466-0.54019 0.16978-1.119 0.42702-1.7363 0.7717v-1.5743c0.62764-0.25208 1.2141-0.44243 1.7595-0.57106 0.54533-0.1286 1.0444-0.19291 1.4971-0.19292 1.1936 0.000012 2.1453 0.2984 2.8553 0.89517 0.70995 0.59679 1.0649 1.3942 1.0649 2.3923-0.00001 0.47332-0.09 0.92347-0.27009 1.3505-0.17493 0.42187-0.49647 0.9209-0.96463 1.4971-0.12862 0.1492-0.53762 0.58135-1.227 1.2965-0.68939 0.70997-1.6617 1.7055-2.917 2.9865"/>
 </g>
 <g id="text72">
  <path id="path3061" style="" d="m474.36 46.518c0.74597 0.15949 1.3273 0.49132 1.744 0.99549 0.42185 0.50418 0.63278 1.1267 0.63279 1.8675-0.00001 1.137-0.391 2.0167-1.173 2.6392s-1.8932 0.93376-3.3337 0.93376c-0.4836-0.000001-0.98263-0.04887-1.4971-0.14662-0.50932-0.0926-1.0366-0.23408-1.582-0.42444v-1.5048c0.43215 0.25209 0.90546 0.44244 1.4199 0.57106 0.51446 0.12862 1.0521 0.19293 1.6128 0.19292 0.97748 0.000001 1.7209-0.19292 2.2302-0.57877 0.51446-0.38585 0.77169-0.94662 0.7717-1.6823-0.00001-0.67909-0.23924-1.209-0.71768-1.5897-0.47332-0.38584-1.1344-0.57877-1.9833-0.57878h-1.3428v-1.281h1.4045c0.76654 0.000006 1.353-0.15176 1.7595-0.4553 0.40642-0.30867 0.60964-0.75111 0.60964-1.3273 0-0.59163-0.21094-1.0444-0.63279-1.3582-0.41672-0.31896-1.0161-0.47844-1.7981-0.47845-0.42701 0.000011-0.88489 0.04631-1.3736 0.13891-0.48875 0.09261-1.0264 0.23666-1.6129 0.43215v-1.3891c0.59164-0.16462 1.1447-0.28809 1.6592-0.37042 0.5196-0.0823 1.0084-0.12346 1.4662-0.12347 1.1833 0.000012 2.1196 0.27011 2.809 0.81028 0.68938 0.53506 1.0341 1.2605 1.0341 2.1762-0.00001 0.63795-0.18265 1.1781-0.54791 1.6206-0.36528 0.4373-0.88489 0.74084-1.5588 0.9106"/>
 </g>
 <g id="text76">
  <path id="path3064" style="" d="m513.92 42.567-3.9357 6.1504h3.9357v-6.1504m-0.409-1.3582h1.9601v7.5086h1.6437v1.2965h-1.6437v2.7164h-1.5511v-2.7164h-5.2012v-1.5048l4.7922-7.3003"/>
 </g>
 <g id="text80">
  <path id="path3067" style="" d="m350.98 160.64h5.4405v1.3119h-7.3157v-1.3119c0.59163-0.61222 1.3968-1.4328 2.4154-2.4617 1.0238-1.0341 1.6669-1.7003 1.9292-1.9987 0.49903-0.56076 0.84629-1.0341 1.0418-1.4199 0.20063-0.39099 0.30095-0.77427 0.30096-1.1498-0.00001-0.61221-0.21608-1.1112-0.64823-1.4971-0.42701-0.38584-0.9852-0.57877-1.6746-0.57878-0.48875 0.00001-1.0058 0.0849-1.5511 0.25466-0.54019 0.16979-1.119 0.42702-1.7363 0.7717v-1.5743c0.62764-0.25208 1.2141-0.44243 1.7595-0.57106 0.54533-0.1286 1.0444-0.19291 1.4971-0.19292 1.1936 0.00001 2.1453 0.2984 2.8553 0.89517 0.70995 0.59679 1.0649 1.3942 1.0649 2.3923-0.00001 0.47332-0.09 0.92348-0.27009 1.3505-0.17493 0.42187-0.49647 0.9209-0.96463 1.4971-0.12862 0.14921-0.53762 0.58136-1.227 1.2965-0.68939 0.70997-1.6617 1.7055-2.917 2.9865"/>
 </g>
</svg>
