<?xml version="1.0" encoding="UTF-8" standalone="no"?>
<!-- Created with Inkscape (http://www.inkscape.org/) -->
<svg id="svg2" xmlns:rdf="http://www.w3.org/1999/02/22-rdf-syntax-ns#" xmlns="http://www.w3.org/2000/svg" height="246.25" width="422.07" version="1.1" xmlns:cc="http://creativecommons.org/ns#" xmlns:dc="http://purl.org/dc/elements/1.1/" viewBox="210 82 235.25439 138">
 <metadata id="metadata168">
  <rdf:RDF>
   <cc:Work rdf:about="">
    <dc:format>image/svg+xml</dc:format>
    <dc:type rdf:resource="http://purl.org/dc/dcmitype/StillImage"/>
   </cc:Work>
  </rdf:RDF>
 </metadata>
 <g id="g4" transform="translate(-1.6381 -1)">
  <path id="rect6" fill="#bfbfbf" d="m222 134h16c1.108 0 2 0.892 2 2v8c0 1.108-0.892 2-2 2h-16c-1.108 0-2-0.892-2-2v-8c0-1.108 0.892-2 2-2z"/>
  <path id="rect8" stroke-linejoin="round" d="m222 134h16c1.108 0 2 0.892 2 2v8c0 1.108-0.892 2-2 2h-16c-1.108 0-2-0.892-2-2v-8c0-1.108 0.892-2 2-2z" stroke="#222" stroke-width="2" fill="none"/>
 </g>
 <g id="g10" stroke-linejoin="round" transform="translate(-1.6381 -1)" stroke="#222" stroke-width="2" fill="none">
  <path id="path12" d="m230 218a2 2 0 0 0 2 2"/>
  <path id="line14" d="m230 196v22"/>
  <path id="path16" d="m428 220a2 2 0 0 0 2 -2"/>
  <path id="line18" d="m232 220h196"/>
  <path id="line20" d="m430 218v-42"/>
 </g>
 <g id="g22" stroke-linejoin="round" transform="translate(-1.6381 -1)" stroke="#222" stroke-width="2" fill="none">
  <path id="path24" d="m232 120a2 2 0 0 0 -2 2"/>
  <path id="line26" d="m230 134v-12"/>
  <path id="path28" d="m232 122"/>
  <path id="line30" d="m232 120h48"/>
  <path id="line32" d="m280 120"/>
 </g>
 <g id="g34" stroke-linejoin="round" transform="translate(-1.6381 -1)" stroke="#000" stroke-width="2" fill="none">
  <path id="path36" d="m400 122a2 2 0 0 0 -2 -2"/>
  <path id="line38" d="m360 120h38"/>
  <path id="path40" d="m400 165.41a2 2 0 0 0 2 2"/>
  <path id="line42" d="m400 122v43.414"/>
  <path id="line44" d="m402 167.41h18.586"/>
 </g>
 <g id="g46" transform="translate(-1.6381 -1)">
  <path id="rect48" fill="#555" d="m214 144h32c1.108 0 2 0.892 2 2v48c0 1.108-0.892 2-2 2h-32c-1.108 0-2-0.892-2-2v-48c0-1.108 0.892-2 2-2z"/>
  <path id="rect50" stroke-linejoin="round" d="m214 144h32c1.108 0 2 0.892 2 2v48c0 1.108-0.892 2-2 2h-32c-1.108 0-2-0.892-2-2v-48c0-1.108 0.892-2 2-2z" stroke="#222" stroke-width="2" fill="none"/>
 </g>
 <g id="g52" transform="translate(-1.6381 -1)">
  <path id="ellipse54" fill="#fff" d="m305 100c0 2.7614-2.2386 5-5 5s-5-2.2386-5-5 2.2386-5 5-5 5 2.2386 5 5z"/>
  <path id="ellipse56" stroke-linejoin="round" d="m305 100c0 2.7614-2.2386 5-5 5s-5-2.2386-5-5 2.2386-5 5-5 5 2.2386 5 5z" stroke="#000" stroke-width="2" fill="none"/>
 </g>
 <g id="g58" transform="translate(-1.6381 -1)">
  <path id="ellipse60" fill="#fff" d="m345 100c0 2.7614-2.2386 5-5 5s-5-2.2386-5-5 2.2386-5 5-5 5 2.2386 5 5z"/>
  <path id="ellipse62" stroke-linejoin="round" d="m345 100c0 2.7614-2.2386 5-5 5s-5-2.2386-5-5 2.2386-5 5-5 5 2.2386 5 5z" stroke="#000" stroke-width="2" fill="none"/>
 </g>
 <path id="line64" stroke-linejoin="round" d="m303.93 96.773 34.43-13.773" stroke="#000" stroke-width="2" fill="none"/>
 <g id="g66" transform="translate(-1.6381 -1)">
  <path id="path68" d="m420 160h20v-4c0-8 20-36-10-36s-10 28-10 36v4z" fill="#1e90ff"/>
  <path id="path70" d="m420 160h20v-4c0-8 20-36-10-36s-10 28-10 36v4" stroke="#00f" stroke-width="2" fill="none"/>
 </g>
 <path id="polyline72" d="m426 160-4-24" transform="translate(-1.6381 -1)" stroke="#222" stroke-width="2" fill="none"/>
 <path id="polyline74" d="m434 160 4-24" transform="translate(-1.6381 -1)" stroke="#222" stroke-width="2" fill="none"/>
 <g id="g76" transform="translate(-1.6381 -1)">
  <path id="rect78" fill="#7f7f7f" d="m422 164h16c1.108 0 2 0.892 2 2s-0.892 2-2 2h-16c-1.108 0-2-0.892-2-2s0.892-2 2-2z"/>
  <path id="rect80" stroke-linejoin="round" d="m422 164h16c1.108 0 2 0.892 2 2s-0.892 2-2 2h-16c-1.108 0-2-0.892-2-2s0.892-2 2-2z" stroke="#555" stroke-width="2" fill="none"/>
 </g>
 <g id="g82" transform="translate(-1.6381 -1)">
  <path id="rect84" fill="#7f7f7f" d="m422 168h16c1.108 0 2 0.892 2 2s-0.892 2-2 2h-16c-1.108 0-2-0.892-2-2s0.892-2 2-2z"/>
  <path id="rect86" stroke-linejoin="round" d="m422 168h16c1.108 0 2 0.892 2 2s-0.892 2-2 2h-16c-1.108 0-2-0.892-2-2s0.892-2 2-2z" stroke="#555" stroke-width="2" fill="none"/>
 </g>
 <g id="g88" transform="translate(-1.6381 -1)">
  <path id="rect90" fill="#7f7f7f" d="m426 172h8c1.108 0 2 0.892 2 2s-0.892 2-2 2h-8c-1.108 0-2-0.892-2-2s0.892-2 2-2z"/>
  <path id="rect92" stroke-linejoin="round" d="m426 172h8c1.108 0 2 0.892 2 2s-0.892 2-2 2h-8c-1.108 0-2-0.892-2-2s0.892-2 2-2z" stroke="#555" stroke-width="2" fill="none"/>
 </g>
 <g id="g94" transform="translate(-1.6381 -1)">
  <path id="rect96" fill="#7f7f7f" d="m422 160h16c1.108 0 2 0.892 2 2s-0.892 2-2 2h-16c-1.108 0-2-0.892-2-2s0.892-2 2-2z"/>
  <path id="rect98" stroke-linejoin="round" d="m422 160h16c1.108 0 2 0.892 2 2s-0.892 2-2 2h-16c-1.108 0-2-0.892-2-2s0.892-2 2-2z" stroke="#555" stroke-width="2" fill="none"/>
 </g>
 <path id="polyline100" d="m423 136h14" transform="translate(-1.6381 -1)" stroke="#222" stroke-dasharray="4" stroke-width="2" fill="none"/>
 <g id="g102" transform="translate(-1.6381 -1)">
  <path id="rect104" d="m218 164h24v8h-24z"/>
  <path id="rect106" d="m218 164h24v8h-24z" stroke="#222" stroke-width="2" fill="none"/>
 </g>
 <g id="g108" transform="translate(-1.6381 -1)">
  <path id="rect110" fill="#0f0" d="m218 172h24v8h-24z"/>
  <path id="rect112" d="m218 172h24v8h-24z" stroke="#222" stroke-width="2" fill="none"/>
 </g>
 <g id="g114" transform="translate(-1.6381 -1)">
  <path id="rect116" fill="#0f0" d="m218 180h24v8h-24z"/>
  <path id="rect118" d="m218 180h24v8h-24z" stroke="#222" stroke-width="2" fill="none"/>
 </g>
 <g id="g120" transform="translate(-1.6381 -1)">
  <path id="rect122" fill="#cc9228" d="m214 140h32c1.108 0 2 0.892 2 2v12c0 1.108-0.892 2-2 2h-32c-1.108 0-2-0.892-2-2v-12c0-1.108 0.892-2 2-2z"/>
  <path id="rect124" stroke-linejoin="round" d="m214 140h32c1.108 0 2 0.892 2 2v12c0 1.108-0.892 2-2 2h-32c-1.108 0-2-0.892-2-2v-12c0-1.108 0.892-2 2-2z" stroke="#222" stroke-width="2" fill="none"/>
 </g>
 <g id="g126" transform="translate(-1.6381 -1)">
  <path id="ellipse128" fill="#fff" d="m305 140c0 2.7614-2.2386 5-5 5s-5-2.2386-5-5 2.2386-5 5-5 5 2.2386 5 5z"/>
  <path id="ellipse130" stroke-linejoin="round" d="m305 140c0 2.7614-2.2386 5-5 5s-5-2.2386-5-5 2.2386-5 5-5 5 2.2386 5 5z" stroke="#000" stroke-width="2" fill="none"/>
 </g>
 <g id="g132" transform="translate(-1.6381 -1)">
  <path id="ellipse134" fill="#fff" d="m345 140c0 2.7614-2.2386 5-5 5s-5-2.2386-5-5 2.2386-5 5-5 5 2.2386 5 5z"/>
  <path id="ellipse136" stroke-linejoin="round" d="m345 140c0 2.7614-2.2386 5-5 5s-5-2.2386-5-5 2.2386-5 5-5 5 2.2386 5 5z" stroke="#000" stroke-width="2" fill="none"/>
 </g>
 <path id="line138" stroke-linejoin="round" d="m303.72 136.32 34.64-17.32" stroke="#000" stroke-width="2" fill="none"/>
 <g id="g140" stroke-linejoin="round" transform="translate(-1.6381 -1)" stroke="#000" stroke-width="2" fill="none">
  <path id="path142" d="m280 138a2 2 0 0 0 2 2"/>
  <path id="line144" d="m295 140h-13"/>
  <path id="path146" d="m282 100a2 2 0 0 0 -2 2"/>
  <path id="line148" d="m280 138v-36"/>
  <path id="line150" d="m282 100h13"/>
 </g>
 <g id="g152" stroke-linejoin="round" transform="translate(-1.6381 -1)" stroke="#000" stroke-width="2" fill="none">
  <path id="path154" d="m360 102a2 2 0 0 0 -2 -2"/>
  <path id="line156" d="m345 100h13"/>
  <path id="path158" d="m358 140a2 2 0 0 0 2 -2"/>
  <path id="line160" d="m360 102v36"/>
  <path id="line162" d="m358 140h-13"/>
 </g>
</svg>
