<?xml version="1.0" encoding="UTF-8" standalone="no"?>
<!-- Created with Inkscape (http://www.inkscape.org/) -->
<svg id="svg2" xmlns:rdf="http://www.w3.org/1999/02/22-rdf-syntax-ns#" xmlns="http://www.w3.org/2000/svg" height="331.75" width="1592.7" version="1.1" xmlns:cc="http://creativecommons.org/ns#" xmlns:dc="http://purl.org/dc/elements/1.1/" viewBox="319 58 886.99997 174.14602">
 <metadata id="metadata124">
  <rdf:RDF>
   <cc:Work rdf:about="">
    <dc:format>image/svg+xml</dc:format>
    <dc:type rdf:resource="http://purl.org/dc/dcmitype/StillImage"/>
   </cc:Work>
  </rdf:RDF>
 </metadata>
 <g id="g4" transform="translate(0 -6.3055)">
  <path id="path6" d="m346.67 60h106.67c14.72 0 26.66 13.431 26.66 30s-11.939 30-26.667 30h-106.67c-14.72 0-26.66-13.43-26.66-30 0-16.569 11.94-30 26.67-30z" fill="#fff"/>
  <path id="path8" d="m346.67 60h106.67c14.72 0 26.66 13.431 26.66 30s-11.939 30-26.667 30h-106.67c-14.72 0-26.66-13.43-26.66-30 0-16.569 11.94-30 26.67-30" stroke="#000" stroke-width="2" fill="none"/>
  <g id="text10">
   <path id="path3041" style="" d="m384.07 83.796v1.5202c-0.59165-0.28295-1.1498-0.49388-1.6746-0.63279-0.52476-0.1389-1.0315-0.20835-1.5202-0.20836-0.84887 0.000011-1.5048 0.16464-1.9678 0.49389-0.45788 0.32927-0.68682 0.79743-0.68681 1.4045-0.00001 0.50933 0.15176 0.89518 0.4553 1.1575 0.30868 0.25724 0.89002 0.4656 1.744 0.62508l0.94147 0.19292c1.1627 0.22123 2.0193 0.61222 2.5698 1.173 0.55562 0.55563 0.83343 1.3016 0.83344 2.2379-0.00001 1.1164-0.37557 1.9627-1.1267 2.5389-0.74599 0.5762-1.8418 0.8643-3.2874 0.8643-0.54534-0.000001-1.1267-0.06174-1.744-0.18521-0.61222-0.12347-1.2476-0.30611-1.9061-0.54791v-1.6051c0.63279 0.35498 1.2527 0.6225 1.8598 0.80257 0.60706 0.18006 1.2038 0.2701 1.7903 0.2701 0.89002 0.000001 1.5768-0.17492 2.0604-0.52476s0.72539-0.84887 0.7254-1.4971c-0.00001-0.56591-0.17492-1.0084-0.52475-1.3273-0.3447-0.31896-0.91319-0.55819-1.7055-0.71768l-0.94919-0.18521c-1.1627-0.2315-2.0038-0.5942-2.5235-1.0881-0.51961-0.49388-0.77941-1.1807-0.77941-2.0604 0-1.0186 0.35755-1.8212 1.0727-2.4077 0.72025-0.58648 1.7106-0.87972 2.971-0.87974 0.54019 0.000012 1.0907 0.04889 1.6514 0.14662 0.56076 0.09776 1.1344 0.24438 1.7209 0.43987"/>
   <path id="path3043" style="" d="m385.6 83.417h9.7466v1.3119h-4.09v10.21h-1.5666v-10.21h-4.09v-1.3119"/>
   <path id="path3045" style="" d="m399.48 84.953-2.1144 5.7337h4.2366l-2.1222-5.7337m-0.87974-1.5357h1.7672l4.391 11.521h-1.6206l-1.0495-2.9556h-5.1935l-1.0495 2.9556h-1.6437l4.3987-11.521"/>
   <path id="path3047" style="" d="m411.9 89.537c0.3344 0.11319 0.65851 0.35499 0.97234 0.7254 0.31896 0.37042 0.63793 0.87974 0.95691 1.528l1.582 3.1485h-1.6746l-1.474-2.9556c-0.38071-0.7717-0.75113-1.2836-1.1112-1.5357-0.35498-0.25208-0.84115-0.37813-1.4585-0.37813h-1.6977v4.8694h-1.5588v-11.521h3.519c1.317 0.000012 2.2997 0.27525 2.9479 0.82572 0.64822 0.55049 0.97233 1.3814 0.97234 2.4926-0.00001 0.7254-0.16978 1.3273-0.50932 1.8058-0.33441 0.47846-0.82315 0.81029-1.4662 0.99549m-3.9048-4.8386v4.09h1.9601c0.75111 0.000006 1.317-0.17234 1.6977-0.51704 0.38584-0.34983 0.57877-0.86172 0.57877-1.5357 0-0.67394-0.19293-1.1807-0.57877-1.5202-0.38071-0.34468-0.94663-0.51703-1.6977-0.51704h-1.9601"/>
   <path id="path3049" style="" d="m414.68 83.417h9.7466v1.3119h-4.09v10.21h-1.5666v-10.21h-4.09v-1.3119"/>
  </g>
 </g>
 <g id="g14" transform="translate(0 -6.3055)">
  <path id="path16" d="m346.67 140h106.67c14.728 0 26.667 13.431 26.667 30s-11.939 30-26.667 30h-106.67c-14.73 0-26.67-13.43-26.67-30 0-16.569 11.939-30 26.667-30z" fill="#fff"/>
  <path id="path18" d="m346.67 140h106.67c14.728 0 26.667 13.431 26.667 30s-11.939 30-26.667 30h-106.67c-14.73 0-26.67-13.43-26.67-30 0-16.569 11.939-30 26.667-30" stroke="#000" stroke-width="2" fill="none"/>
  <g id="text20">
   <path id="path3052" style="" d="m387.62 163.8v1.5202c-0.59164-0.28295-1.1498-0.49388-1.6746-0.6328-0.52476-0.13889-1.0315-0.20835-1.5202-0.20836-0.84887 0.00001-1.5048 0.16464-1.9678 0.49389-0.45788 0.32927-0.68682 0.79743-0.68682 1.4045 0 0.50933 0.15177 0.89518 0.45531 1.1576 0.30867 0.25724 0.89002 0.4656 1.744 0.62508l0.94147 0.19292c1.1627 0.22123 2.0193 0.61222 2.5698 1.173 0.55561 0.55563 0.83342 1.3016 0.83343 2.2379-0.00001 1.1164-0.37557 1.9627-1.1267 2.5389-0.74598 0.57621-1.8418 0.86431-3.2874 0.86431-0.54533 0-1.1267-0.0617-1.744-0.18521-0.61221-0.12347-1.2476-0.30611-1.9061-0.54791v-1.6051c0.63279 0.35498 1.2527 0.6225 1.8598 0.80257 0.60707 0.18006 1.2038 0.27009 1.7903 0.27009 0.89002 0 1.5768-0.17492 2.0604-0.52475 0.48359-0.34984 0.72539-0.84887 0.7254-1.4971-0.00001-0.56591-0.17493-1.0084-0.52476-1.3273-0.3447-0.31897-0.91318-0.55819-1.7054-0.71768l-0.94919-0.18521c-1.1627-0.23151-2.0038-0.5942-2.5235-1.0881-0.51961-0.49388-0.77942-1.1807-0.77942-2.0604 0-1.0186 0.35756-1.8212 1.0727-2.4077 0.72025-0.58648 1.7106-0.87972 2.971-0.87973 0.54018 0.00001 1.0907 0.0489 1.6514 0.14662 0.56077 0.0978 1.1344 0.24438 1.7209 0.43987"/>
   <path id="path3054" style="" d="m389.15 163.42h9.7466v1.3119h-4.09v10.21h-1.5666v-10.21h-4.09v-1.3119"/>
   <path id="path3056" style="" d="m405.09 164.47c-1.1318 0.00001-2.0322 0.42188-2.701 1.2656-0.66366 0.84373-0.99549 1.9936-0.99549 3.4495 0 1.4508 0.33183 2.598 0.99549 3.4418 0.6688 0.84373 1.5691 1.2656 2.701 1.2656 1.1318 0 2.027-0.42186 2.6855-1.2656 0.66365-0.84372 0.99548-1.991 0.99549-3.4418-0.00001-1.4559-0.33184-2.6058-0.99549-3.4495-0.65852-0.84371-1.5537-1.2656-2.6855-1.2656m0-1.2656c1.6154 0.00001 2.9067 0.54277 3.8739 1.6283 0.96718 1.0804 1.4508 2.5312 1.4508 4.3524-0.00001 1.8161-0.48361 3.2669-1.4508 4.3524-0.96721 1.0804-2.2585 1.6206-3.8739 1.6206-1.6206 0-2.917-0.54019-3.8894-1.6206-0.96719-1.0804-1.4508-2.5312-1.4508-4.3524s0.4836-3.272 1.4508-4.3524c0.97234-1.0855 2.2688-1.6283 3.8894-1.6283"/>
   <path id="path3058" style="" d="m414.41 164.7v4.3292h1.9601c0.72539 0.00001 1.2862-0.18777 1.6823-0.56334 0.39613-0.37555 0.5942-0.9106 0.5942-1.6051 0-0.68937-0.19807-1.2218-0.5942-1.5974-0.39615-0.37555-0.95692-0.56333-1.6823-0.56334h-1.9601m-1.5588-1.281h3.519c1.2913 0.00001 2.2662 0.29325 2.9247 0.87973 0.66365 0.58136 0.99548 1.4354 0.99549 2.562-0.00001 1.137-0.33184 1.9961-0.99549 2.5775-0.65852 0.58135-1.6334 0.87202-2.9247 0.87202h-1.9601v4.6302h-1.5588v-11.521"/>
  </g>
 </g>
 <g id="g24" transform="translate(0 -6.3055)">
  <path id="rect26" fill="#fff" d="m540 100h160v60h-160z"/>
  <path id="rect28" d="m540 100h160v60h-160z" stroke="#000" stroke-width="2" fill="none"/>
  <g id="text30">
   <path id="path3063" style="" d="m589.48 127.17c-0.76142 0-1.3633 0.29839-1.8058 0.89517-0.44244 0.59164-0.66366 1.4045-0.66366 2.4386s0.21864 1.8495 0.65594 2.4463c0.44244 0.59164 1.0469 0.88746 1.8135 0.88746 0.75625 0 1.3556-0.29839 1.798-0.89517 0.44244-0.59678 0.66366-1.4096 0.66367-2.4386-0.00001-1.0238-0.22123-1.8341-0.66367-2.4309-0.44244-0.60191-1.0418-0.90288-1.798-0.90288m0-1.2038c1.2347 0 2.2045 0.40129 2.9093 1.2038 0.70481 0.80257 1.0572 1.9138 1.0572 3.3337-0.00001 1.4148-0.35242 2.526-1.0572 3.3337-0.70482 0.80257-1.6746 1.2038-2.9093 1.2038-1.2399 0-2.2122-0.40128-2.917-1.2038-0.69967-0.80771-1.0495-1.919-1.0495-3.3337 0-1.4199 0.34984-2.5312 1.0495-3.3337 0.70482-0.80256 1.6772-1.2038 2.917-1.2038"/>
   <path id="path3065" style="" d="m601.3 126.43v1.3428c-0.40129-0.20578-0.81801-0.36012-1.2502-0.46302-0.43215-0.10288-0.87974-0.15433-1.3428-0.15434-0.70482 0.00001-1.2347 0.10805-1.5897 0.32412-0.34984 0.21608-0.52476 0.54019-0.52476 0.97234 0 0.32926 0.12604 0.58907 0.37813 0.77941 0.25209 0.18522 0.75884 0.36271 1.5202 0.53248l0.48617 0.10803c1.0084 0.21608 1.7235 0.52219 2.1453 0.91833 0.427 0.39099 0.6405 0.9389 0.64051 1.6437-0.00001 0.80256-0.31898 1.4379-0.95691 1.9061-0.6328 0.46817-1.5048 0.70225-2.6161 0.70225-0.46302 0-0.94662-0.0463-1.4508-0.13891-0.49903-0.0875-1.0264-0.22122-1.582-0.40128v-1.4662c0.52476 0.27267 1.0418 0.47846 1.5511 0.61736 0.50932 0.13376 1.0135 0.20064 1.5125 0.20064 0.6688 0 1.1833-0.11318 1.5434-0.33955 0.36012-0.2315 0.54018-0.55562 0.54019-0.97234-0.00001-0.38584-0.1312-0.68166-0.39357-0.88745-0.25724-0.20578-0.82572-0.40385-1.7055-0.59421l-0.49388-0.11575c-0.87974-0.18521-1.5151-0.46816-1.9061-0.84887-0.391-0.38585-0.58649-0.91317-0.58649-1.582 0-0.81285 0.2881-1.4405 0.8643-1.8829 0.5762-0.44243 1.3942-0.66366 2.454-0.66366 0.52475 0 1.0186 0.0386 1.4817 0.11575 0.46301 0.0772 0.89002 0.19293 1.281 0.34727"/>
   <path id="path3067" style="" d="m603.42 126.18h6.7447v1.2965l-5.3402 6.2122h5.3402v1.1344h-6.9376v-1.2965l5.3402-6.2122h-5.1472v-1.1344"/>
   <path id="path3069" style="" d="m613.74 123.72v2.454h2.9247v1.1035h-2.9247v4.6919c0 0.70482 0.0952 1.1576 0.28553 1.3582 0.19549 0.20064 0.58906 0.30096 1.1807 0.30096h1.4585v1.1884h-1.4585c-1.0958 0-1.8521-0.20322-2.2688-0.60965-0.41672-0.41157-0.62508-1.1575-0.62508-2.2379v-4.6919h-1.0418v-1.1035h1.0418v-2.454h1.4276"/>
   <path id="path3071" style="" d="m621.89 127.17c-0.76141 0-1.3633 0.29839-1.8058 0.89517-0.44245 0.59164-0.66367 1.4045-0.66366 2.4386-0.00001 1.0341 0.21864 1.8495 0.65594 2.4463 0.44244 0.59164 1.0469 0.88746 1.8135 0.88746 0.75626 0 1.3556-0.29839 1.7981-0.89517 0.44244-0.59678 0.66366-1.4096 0.66366-2.4386 0-1.0238-0.22122-1.8341-0.66366-2.4309-0.44244-0.60191-1.0418-0.90288-1.7981-0.90288m0-1.2038c1.2347 0 2.2045 0.40129 2.9093 1.2038 0.70481 0.80257 1.0572 1.9138 1.0572 3.3337-0.00001 1.4148-0.35242 2.526-1.0572 3.3337-0.70483 0.80257-1.6746 1.2038-2.9093 1.2038-1.2399 0-2.2122-0.40128-2.917-1.2038-0.69967-0.80771-1.0495-1.919-1.0495-3.3337 0-1.4199 0.34984-2.5312 1.0495-3.3337 0.70482-0.80256 1.6772-1.2038 2.917-1.2038m1.0727-3.789h1.5357l-2.5157 2.9016h-1.1807l2.1608-2.9016"/>
   <path id="path3073" style="" d="m628.57 132.86h1.6283v1.9601h-1.6283v-1.9601m0-6.2122h1.6283v1.9601h-1.6283v-1.9601"/>
   <path id="path3075" style="" d="m633.73 127.65h9.8932v1.2965h-9.8932v-1.2965m0 3.1485h9.8932v1.3119h-9.8932v-1.3119"/>
   <path id="path3077" style="" d="m648.33 133.51h5.4405v1.3119h-7.3157v-1.3119c0.59163-0.61222 1.3968-1.4328 2.4154-2.4617 1.0238-1.0341 1.6669-1.7003 1.9292-1.9987 0.49902-0.56077 0.84629-1.0341 1.0418-1.4199 0.20063-0.39099 0.30096-0.77426 0.30096-1.1498 0-0.61221-0.21608-1.1112-0.64822-1.4971-0.42702-0.38584-0.98521-0.57876-1.6746-0.57877-0.48875 0.00001-1.0058 0.0849-1.5511 0.25466-0.54019 0.16978-1.119 0.42701-1.7363 0.7717v-1.5743c0.62765-0.25208 1.2141-0.44243 1.7595-0.57106 0.54533-0.1286 1.0444-0.19291 1.4971-0.19292 1.1936 0.00001 2.1453 0.2984 2.8553 0.89517 0.70995 0.59679 1.0649 1.3942 1.0649 2.3923-0.00001 0.47331-0.09 0.92347-0.27009 1.3505-0.17493 0.42187-0.49647 0.9209-0.96463 1.4971-0.12862 0.1492-0.53762 0.58135-1.227 1.2964-0.68939 0.70997-1.6617 1.7055-2.917 2.9865"/>
  </g>
 </g>
 <g id="g34" stroke="#000" stroke-width="2" fill="none" transform="translate(0 -6.3055)">
  <path id="line36" d="m620 60v35.528"/>
  <path id="polyline38" d="m615 87.764 5 10 5-10"/>
 </g>
 <g id="g40" stroke="#000" stroke-width="2" fill="none" transform="translate(0 -6.3055)">
  <path id="line42" d="m620 160v35.528"/>
  <path id="polyline44" d="m615 187.76 5 10 5-10"/>
 </g>
 <g id="g46" transform="translate(0 -6.3055)">
  <path id="polygon48" fill="#fff" d="m898.16 160h-138.16l21.84-60h138.16z"/>
  <path id="polygon50" d="m898.16 160h-138.16l21.84-60h138.16z" stroke="#000" stroke-width="2" fill="none"/>
  <g id="text52">
   <path id="path3086" style="" d="m806.69 129.32v4.2212h2.5003c0.83857 0 1.4585-0.17235 1.8598-0.51704 0.40642-0.34984 0.60964-0.88231 0.60965-1.5974-0.00001-0.72025-0.20323-1.2502-0.60965-1.5897-0.40129-0.34469-1.0212-0.51703-1.8598-0.51704h-2.5003m0-4.7382v3.4726h2.3074c0.76141 0.00001 1.3273-0.14147 1.6977-0.42443 0.37556-0.28809 0.56334-0.72539 0.56334-1.3119 0-0.58134-0.18778-1.0161-0.56334-1.3042-0.37042-0.28809-0.93633-0.43214-1.6977-0.43215h-2.3074m-1.5588-1.281h3.982c1.1884 0.00001 2.1042 0.24695 2.7472 0.74083 0.64307 0.4939 0.96461 1.1961 0.96462 2.1067-0.00001 0.70482-0.16464 1.2656-0.49388 1.6823-0.32927 0.41673-0.81287 0.67653-1.4508 0.77942 0.76655 0.16463 1.3608 0.50932 1.7826 1.0341 0.42699 0.51962 0.6405 1.1704 0.64051 1.9524-0.00001 1.0289-0.34985 1.8238-1.0495 2.3846-0.69969 0.56077-1.6952 0.84116-2.9865 0.84116h-4.1363v-11.521"/>
   <path id="path3088" style="" d="m815.96 123.3h7.2848v1.3119h-5.726v3.4109h5.4868v1.3119h-5.4868v4.1749h5.8649v1.3119h-7.4238v-11.521"/>
   <path id="path3090" style="" d="m826.26 132.86h1.6283v1.9601h-1.6283v-1.9601m0-6.2122h1.6283v1.9601h-1.6283v-1.9601"/>
   <path id="path3092" style="" d="m841.78 126.43v1.3428c-0.40129-0.20578-0.81801-0.36012-1.2502-0.46302-0.43215-0.10288-0.87974-0.15433-1.3428-0.15434-0.70483 0.00001-1.2347 0.10805-1.5897 0.32412-0.34984 0.21608-0.52476 0.54019-0.52476 0.97234 0 0.32926 0.12604 0.58907 0.37813 0.77941 0.25209 0.18522 0.75884 0.36271 1.5202 0.53248l0.48617 0.10803c1.0084 0.21608 1.7235 0.52219 2.1453 0.91833 0.427 0.39099 0.64051 0.9389 0.64052 1.6437-0.00001 0.80256-0.31898 1.4379-0.95691 1.9061-0.6328 0.46817-1.5048 0.70225-2.6161 0.70225-0.46303 0-0.94662-0.0463-1.4508-0.13891-0.49903-0.0875-1.0264-0.22122-1.582-0.40128v-1.4662c0.52475 0.27267 1.0418 0.47846 1.5511 0.61736 0.50931 0.13376 1.0135 0.20064 1.5125 0.20064 0.6688 0 1.1833-0.11318 1.5434-0.33955 0.36012-0.2315 0.54019-0.55562 0.54019-0.97234 0-0.38584-0.13119-0.68166-0.39356-0.88745-0.25724-0.20578-0.82573-0.40385-1.7055-0.59421l-0.49389-0.11575c-0.87974-0.18521-1.5151-0.46816-1.9061-0.84887-0.391-0.38585-0.5865-0.91317-0.58649-1.582-0.00001-0.81285 0.2881-1.4405 0.8643-1.8829 0.5762-0.44243 1.3942-0.66366 2.454-0.66366 0.52475 0 1.0186 0.0386 1.4817 0.11575 0.46302 0.0772 0.89002 0.19293 1.281 0.34727"/>
   <path id="path3094" style="" d="m843.9 126.18h6.7446v1.2965l-5.3402 6.2122h5.3402v1.1344h-6.9376v-1.2965l5.3402-6.2122h-5.1472v-1.1344"/>
   <path id="path3096" style="" d="m856.75 130.48c-1.1473 0-1.9421 0.13119-2.3846 0.39357-0.44244 0.26238-0.66366 0.70996-0.66366 1.3428 0 0.50418 0.16463 0.90546 0.49389 1.2038 0.3344 0.29325 0.78713 0.43987 1.3582 0.43987 0.78713 0 1.4174-0.27781 1.8907-0.83343 0.47845-0.56077 0.71768-1.3042 0.71768-2.2302v-0.3164h-1.4122m2.8321-0.58649v4.9312h-1.4199v-1.3119c-0.32412 0.52475-0.72797 0.91318-1.2116 1.1653-0.48361 0.24695-1.0752 0.37042-1.7749 0.37042-0.88489 0-1.5897-0.24694-2.1145-0.74083-0.51961-0.49903-0.77941-1.1653-0.77941-1.9987 0-0.97234 0.32411-1.7054 0.97234-2.1994 0.65337-0.49388 1.6257-0.74082 2.917-0.74083h1.991v-0.1389c0-0.65337-0.21608-1.1576-0.64822-1.5125-0.42702-0.36012-1.0289-0.54019-1.8058-0.54019-0.49389 0-0.97492 0.0592-1.4431 0.17749-0.46816 0.11833-0.91832 0.29582-1.3505 0.53247v-1.3119c0.51961-0.20063 1.0238-0.34983 1.5125-0.44758 0.48874-0.10289 0.96462-0.15434 1.4276-0.15434 1.2502 0 2.1839 0.32412 2.8013 0.97234 0.61735 0.64823 0.92603 1.6309 0.92604 2.9479m-2.5929-7.7093h1.5357l-2.5157 2.9016h-1.1807l2.1608-2.9016"/>
   <path id="path3098" style="" d="m869.24 127.84c0.35497-0.63793 0.7794-1.1087 1.2733-1.4122 0.49388-0.30353 1.0752-0.4553 1.744-0.4553 0.9003 0 1.5948 0.3164 2.0836 0.94919 0.48873 0.62765 0.7331 1.5228 0.73311 2.6855v5.2167h-1.4276v-5.1704c-0.00001-0.82828-0.14664-1.4431-0.43987-1.8444-0.29326-0.40128-0.74084-0.60192-1.3428-0.60193-0.73569 0.00001-1.317 0.24438-1.744 0.73312-0.42701 0.48875-0.64052 1.155-0.64051 1.9987v4.8849h-1.4276v-5.1704c-0.00001-0.83343-0.14663-1.4482-0.43987-1.8444-0.29325-0.40128-0.74598-0.60192-1.3582-0.60193-0.7254 0.00001-1.3016 0.24696-1.7286 0.74084-0.42701 0.48875-0.64051 1.1524-0.64051 1.991v4.8849h-1.4276v-8.643h1.4276v1.3428c0.32411-0.52989 0.71254-0.92088 1.1653-1.173 0.45273-0.25208 0.99034-0.37813 1.6128-0.37813 0.62764 0 1.1601 0.15949 1.5974 0.47845 0.44243 0.31898 0.76912 0.782 0.98006 1.3891"/>
  </g>
 </g>
 <g id="g56" stroke="#000" stroke-width="2" fill="none" transform="translate(0 -6.3055)">
  <path id="line58" d="m840 60v35.528"/>
  <path id="polyline60" d="m835 87.764 5 10 5-10"/>
 </g>
 <g id="g62" stroke="#000" stroke-width="2" fill="none" transform="translate(0 -6.3055)">
  <path id="line64" d="m840 160v35.528"/>
  <path id="polyline66" d="m835 187.76 5 10 5-10"/>
 </g>
 <g id="g68" transform="translate(0 -6.3055)">
  <path id="polygon70" fill="#fff" d="m1080 180-80-50 80-50 80 50z"/>
  <path id="polygon72" d="m1080 180-80-50 80-50 80 50z" stroke="#000" stroke-width="2" fill="none"/>
  <g id="text74">
   <path id="path3107" style="" d="m1050.3 126.43v1.3428c-0.4013-0.20578-0.818-0.36012-1.2502-0.46302-0.4321-0.10288-0.8797-0.15433-1.3427-0.15434-0.7049 0.00001-1.2348 0.10805-1.5897 0.32412-0.3499 0.21608-0.5248 0.54019-0.5248 0.97234 0 0.32926 0.126 0.58907 0.3781 0.77941 0.2521 0.18522 0.7589 0.36271 1.5203 0.53248l0.4861 0.10803c1.0084 0.21608 1.7235 0.52219 2.1454 0.91833 0.427 0.39099 0.6405 0.9389 0.6405 1.6437 0 0.80256-0.319 1.4379-0.9569 1.9061-0.6328 0.46817-1.5048 0.70225-2.6161 0.70225-0.463 0-0.9466-0.0463-1.4508-0.13891-0.499-0.0875-1.0263-0.22122-1.582-0.40128v-1.4662c0.5248 0.27267 1.0418 0.47846 1.5512 0.61736 0.5093 0.13376 1.0134 0.20064 1.5125 0.20064 0.6688 0 1.1833-0.11318 1.5434-0.33955 0.3601-0.2315 0.5402-0.55562 0.5402-0.97234 0-0.38584-0.1312-0.68166-0.3936-0.88745-0.2572-0.20578-0.8257-0.40385-1.7054-0.59421l-0.4939-0.11575c-0.8798-0.18521-1.5151-0.46816-1.9061-0.84887-0.391-0.38585-0.5865-0.91317-0.5865-1.582 0-0.81285 0.2881-1.4405 0.8643-1.8829 0.5762-0.44243 1.3942-0.66366 2.454-0.66366 0.5247 0 1.0186 0.0386 1.4816 0.11575 0.4631 0.0772 0.8901 0.19293 1.2811 0.34727"/>
   <path id="path3109" style="" d="m1052.4 126.18h6.7447v1.2965l-5.3402 6.2122h5.3402v1.1344h-6.9376v-1.2965l5.3402-6.2122h-5.1473v-1.1344"/>
   <path id="path3111" style="" d="m1065.3 130.48c-1.1473 0-1.9421 0.13119-2.3845 0.39357-0.4425 0.26238-0.6637 0.70996-0.6637 1.3428 0 0.50418 0.1646 0.90546 0.4939 1.2038 0.3344 0.29325 0.7871 0.43987 1.3582 0.43987 0.7871 0 1.4173-0.27781 1.8906-0.83343 0.4785-0.56077 0.7177-1.3042 0.7177-2.2302v-0.3164h-1.4122m2.8321-0.58649v4.9312h-1.4199v-1.3119c-0.3241 0.52475-0.728 0.91318-1.2115 1.1653-0.4836 0.24695-1.0753 0.37042-1.775 0.37042-0.8848 0-1.5897-0.24694-2.1144-0.74083-0.5196-0.49903-0.7794-1.1653-0.7794-1.9987 0-0.97234 0.3241-1.7054 0.9723-2.1994 0.6534-0.49388 1.6257-0.74082 2.917-0.74083h1.991v-0.1389c0-0.65337-0.2161-1.1576-0.6482-1.5125-0.427-0.36012-1.0289-0.54019-1.8058-0.54019-0.4939 0-0.9749 0.0592-1.4431 0.17749-0.4681 0.11833-0.9183 0.29582-1.3504 0.53247v-1.3119c0.5196-0.20063 1.0238-0.34983 1.5125-0.44758 0.4887-0.10289 0.9646-0.15434 1.4276-0.15434 1.2502 0 2.1839 0.32412 2.8013 0.97234 0.6174 0.64823 0.926 1.6309 0.926 2.9479m-2.5929-7.7093h1.5357l-2.5157 2.9016h-1.1807l2.1607-2.9016"/>
   <path id="path3113" style="" d="m1077.8 127.84c0.355-0.63793 0.7794-1.1087 1.2733-1.4122 0.4939-0.30353 1.0753-0.4553 1.7441-0.4553 0.9003 0 1.5948 0.3164 2.0836 0.94919 0.4887 0.62765 0.7331 1.5228 0.7331 2.6855v5.2167h-1.4277v-5.1704c0-0.82828-0.1466-1.4431-0.4398-1.8444-0.2933-0.40128-0.7409-0.60192-1.3428-0.60193-0.7357 0.00001-1.317 0.24438-1.744 0.73312-0.4271 0.48875-0.6406 1.155-0.6406 1.9987v4.8849h-1.4276v-5.1704c0-0.83343-0.1466-1.4482-0.4399-1.8444-0.2932-0.40128-0.7459-0.60192-1.3582-0.60193-0.7254 0.00001-1.3016 0.24696-1.7286 0.74084-0.427 0.48875-0.6405 1.1524-0.6405 1.991v4.8849h-1.4276v-8.643h1.4276v1.3428c0.3241-0.52989 0.7126-0.92088 1.1653-1.173 0.4527-0.25208 0.9903-0.37813 1.6128-0.37813 0.6277 0 1.1602 0.15949 1.5975 0.47845 0.4424 0.31898 0.7691 0.782 0.98 1.3891"/>
   <path id="path3115" style="" d="m1086.6 127.65h9.8932v1.2965h-9.8932v-1.2965m0 3.1485h9.8932v1.3119h-9.8932v-1.3119"/>
   <path id="path3117" style="" d="m1100.2 133.51h2.5466v-8.7897l-2.7704 0.55563v-1.4199l2.755-0.55562h1.5588v10.21h2.5466v1.3119h-6.6366v-1.3119"/>
   <path id="path3119" style="" d="m1111.3 132.86h1.5666v1.9601h-1.5666v-1.9601m1.5202-1.1344h-1.4739v-1.1884c0-0.51961 0.072-0.94662 0.2161-1.281 0.144-0.33439 0.4476-0.72281 0.9106-1.1653l0.6945-0.68681c0.2933-0.27266 0.5042-0.5299 0.6328-0.7717 0.1338-0.24179 0.2006-0.48874 0.2006-0.74083 0-0.45787-0.1697-0.82828-0.5093-1.1112-0.3344-0.28295-0.7794-0.42443-1.335-0.42444-0.4064 0.00001-0.8412 0.0901-1.3042 0.2701-0.4579 0.18007-0.9363 0.44245-1.4353 0.78713v-1.4508c0.4836-0.29324 0.9723-0.51188 1.4662-0.65595 0.499-0.14404 1.0135-0.21606 1.5434-0.21607 0.9466 0.00001 1.7054 0.24953 2.2765 0.74855 0.5762 0.49904 0.8643 1.1576 0.8643 1.9756 0 0.391-0.093 0.76399-0.2778 1.119-0.1852 0.34984-0.5093 0.74598-0.9724 1.1884l-0.6791 0.66366c-0.2418 0.2418-0.4141 0.43216-0.517 0.57106-0.098 0.13376-0.1672 0.26495-0.2083 0.39356-0.031 0.10805-0.054 0.23923-0.069 0.39357s-0.023 0.36527-0.023 0.63279v0.94919"/>
  </g>
 </g>
 <g id="g78" stroke="#000" stroke-width="2" fill="none" transform="translate(0 -6.3055)">
  <path id="polyline80" d="m1e3 130h-40v65.528"/>
  <path id="polyline82" d="m955 187.76 5 10 5-10"/>
 </g>
 <g id="g84" stroke="#000" stroke-width="2" fill="none" transform="translate(0 -6.3055)">
  <path id="polyline86" d="m1160 130h40v65.528"/>
  <path id="polyline88" d="m1195 187.76 5 10 5-10"/>
 </g>
 <g id="g90" stroke="#000" stroke-width="2" fill="none" transform="translate(0 -6.3055)">
  <path id="line92" d="m1080 60v15.528"/>
  <path id="polyline94" d="m1075 67.764 5 10 5-10"/>
 </g>
 <g id="text96">
  <path id="path3128" style="" d="m1171.5 105.05h1.4199v8.643h-1.4199v-8.643m0-3.3646h1.4199v1.7981h-1.4199v-1.7981"/>
  <path id="path3130" style="" d="m1181.6 109.27c-0.0001-1.0289-0.2136-1.8264-0.6406-2.3923-0.4218-0.56591-1.016-0.84886-1.7826-0.84887-0.7614 0.00001-1.3556 0.28296-1.7826 0.84887-0.4219 0.56592-0.6328 1.3633-0.6328 2.3923 0 1.0238 0.2109 1.8186 0.6328 2.3846 0.427 0.56591 1.0212 0.84887 1.7826 0.84887 0.7666 0 1.3608-0.28296 1.7826-0.84887 0.427-0.56591 0.6405-1.3608 0.6406-2.3846m1.4199 3.3492c0 1.4714-0.3267 2.5646-0.9801 3.2797-0.6534 0.72025-1.654 1.0804-3.0019 1.0804-0.499 0-0.9698-0.0386-1.4122-0.11575-0.4424-0.072-0.872-0.18521-1.2887-0.33955v-1.3813c0.4167 0.22636 0.8283 0.39356 1.2347 0.5016s0.8206 0.16206 1.2424 0.16206c0.9312 0 1.6283-0.24437 2.0913-0.73312 0.463-0.48359 0.6945-1.2167 0.6946-2.1993v-0.70224c-0.2933 0.50932-0.6689 0.89002-1.1267 1.1421-0.4579 0.25209-1.0058 0.37813-1.6437 0.37813-1.0598 0-1.9139-0.40385-2.5621-1.2116-0.6482-0.80771-0.9723-1.8778-0.9723-3.2103 0-1.3376 0.3241-2.4103 0.9723-3.218s1.5023-1.2116 2.5621-1.2116c0.6379 0.00001 1.1858 0.12606 1.6437 0.37814 0.4578 0.25209 0.8334 0.6328 1.1267 1.1421v-1.3119h1.4199v7.5704"/>
  <path id="path3132" style="" d="m1193.3 109.02v0.69453h-6.5286c0.062 0.97748 0.355 1.7235 0.8798 2.2379 0.5299 0.50933 1.2655 0.76399 2.207 0.76399 0.5454 0 1.0727-0.0669 1.582-0.20065 0.5145-0.13376 1.0238-0.3344 1.528-0.60192v1.3428c-0.5094 0.21608-1.0315 0.38071-1.5666 0.49389-0.535 0.11318-1.0778 0.16978-1.6283 0.16978-1.3787 0-2.472-0.40129-3.2797-1.2038-0.8026-0.80257-1.2038-1.8881-1.2038-3.2566 0-1.4148 0.3807-2.5363 1.1421-3.3646 0.7665-0.83343 1.798-1.2502 3.0945-1.2502 1.1627 0.00001 2.081 0.37557 2.755 1.1267 0.679 0.74599 1.0186 1.7621 1.0186 3.0482m-1.4199-0.41672c-0.01-0.77684-0.229-1.3968-0.656-1.8598-0.4218-0.46301-0.9826-0.69452-1.6823-0.69453-0.7923 0.00001-1.4276 0.2238-1.9061 0.67138-0.4733 0.44759-0.746 1.0778-0.818 1.8907l5.0624-0.008"/>
  <path id="path3134" style="" d="m1202.8 108.48v5.2167h-1.42v-5.1704c0-0.818-0.1595-1.4302-0.4784-1.8366-0.319-0.40642-0.7975-0.60963-1.4354-0.60964-0.7665 0.00001-1.371 0.24438-1.8135 0.73312-0.4424 0.48875-0.6636 1.155-0.6636 1.9987v4.8848h-1.4277v-8.643h1.4277v1.3428c0.3395-0.5196 0.7382-0.90803 1.1961-1.1653 0.463-0.25722 0.9955-0.38584 1.5974-0.38585 0.9929 0.00001 1.744 0.30869 2.2534 0.92604 0.5093 0.61222 0.7639 1.5151 0.764 2.7087"/>
 </g>
 <g id="text100">
  <path id="path3137" style="" d="m973.52 108.48v5.2167h-1.4199v-5.1704c-0.00001-0.818-0.1595-1.4302-0.47846-1.8366-0.31897-0.40642-0.79743-0.60963-1.4354-0.60964-0.76656 0.00001-1.371 0.24438-1.8135 0.73312-0.44245 0.48875-0.66367 1.155-0.66366 1.9987v4.8848h-1.4276v-8.643h1.4276v1.3428c0.33954-0.5196 0.73825-0.90803 1.1961-1.1653 0.46302-0.25722 0.99549-0.38584 1.5974-0.38585 0.99291 0.00001 1.744 0.30869 2.2534 0.92604 0.50931 0.61222 0.76397 1.5151 0.76398 2.7087"/>
  <path id="path3139" style="" d="m983.76 109.02v0.69453h-6.5286c0.0617 0.97748 0.35497 1.7235 0.87973 2.2379 0.5299 0.50933 1.2656 0.76399 2.2071 0.76399 0.54533 0 1.0727-0.0669 1.582-0.20065 0.51445-0.13376 1.0238-0.3344 1.528-0.60192v1.3428c-0.50933 0.21608-1.0315 0.38071-1.5666 0.49389-0.53505 0.11318-1.0778 0.16978-1.6283 0.16978-1.3788 0-2.472-0.40129-3.2797-1.2038-0.80256-0.80257-1.2038-1.8881-1.2038-3.2566 0-1.4148 0.38071-2.5363 1.1421-3.3646 0.76655-0.83343 1.798-1.2502 3.0945-1.2502 1.1627 0.00001 2.081 0.37557 2.755 1.1267 0.67908 0.74599 1.0186 1.7621 1.0186 3.0482m-1.4199-0.41672c-0.0103-0.77684-0.22894-1.3968-0.65594-1.8598-0.42187-0.46301-0.98264-0.69452-1.6823-0.69453-0.79229 0.00001-1.4276 0.2238-1.9061 0.67138-0.47331 0.44759-0.74598 1.0778-0.818 1.8907l5.0623-0.008"/>
  <path id="path3141" style="" d="m992.82 106.71c0.35497-0.63794 0.77941-1.1087 1.2733-1.4122 0.49388-0.30353 1.0752-0.4553 1.744-0.45531 0.90031 0.00001 1.5948 0.31641 2.0836 0.94919 0.48873 0.62766 0.7331 1.5228 0.73312 2.6855v5.2167h-1.4276v-5.1704c-0.00001-0.82829-0.14663-1.4431-0.43987-1.8444-0.29325-0.40128-0.74084-0.60192-1.3428-0.60193-0.7357 0.00001-1.317 0.24438-1.744 0.73312-0.42702 0.48875-0.64052 1.155-0.64051 1.9987v4.8848h-1.4276v-5.1704c0-0.83343-0.14663-1.4482-0.43987-1.8444-0.29325-0.40128-0.74598-0.60192-1.3582-0.60193-0.7254 0.00001-1.3016 0.24695-1.7286 0.74083-0.42701 0.48875-0.64052 1.1524-0.64051 1.991v4.8848h-1.4276v-8.643h1.4276v1.3428c0.32411-0.52989 0.71253-0.92089 1.1653-1.173 0.45273-0.25208 0.99035-0.37813 1.6128-0.37814 0.62765 0.00001 1.1601 0.1595 1.5974 0.47846 0.44244 0.31897 0.76912 0.78199 0.98006 1.3891"/>
 </g>
 <g id="text104">
  <path id="path3144" style="" d="m360.53 228.35v0.79375h-7.4612c0.0706 1.1171 0.40569 1.9697 1.0054 2.5576 0.60559 0.58209 1.4464 0.87313 2.5224 0.87313 0.62323 0 1.2259-0.0764 1.808-0.22931 0.58795-0.15287 1.17-0.38217 1.7462-0.68792v1.5346c-0.58209 0.24694-1.1789 0.43509-1.7904 0.56444-0.61149 0.12935-1.2318 0.19403-1.8609 0.19403-1.5757 0-2.8252-0.45861-3.7483-1.3758-0.91722-0.91722-1.3758-2.1578-1.3758-3.7218 0-1.6169 0.43509-2.8986 1.3053-3.8453 0.87606-0.95249 2.0549-1.4287 3.5366-1.4288 1.3288 0.00001 2.3783 0.42922 3.1485 1.2876 0.7761 0.85255 1.1642 2.0138 1.1642 3.4837m-1.6228-0.47625c-0.0118-0.88782-0.26165-1.5963-0.74965-2.1255-0.48214-0.52915-1.123-0.79374-1.9226-0.79375-0.90547 0.00001-1.6316 0.25578-2.1784 0.7673-0.54093 0.51153-0.85255 1.2318-0.93486 2.1608l5.7856-0.009"/>
  <path id="path3146" style="" d="m363.2 219.97h1.6228v13.723h-1.6228v-13.723"/>
  <path id="path3148" style="" d="m376.65 228.35v0.79375h-7.4612c0.0706 1.1171 0.40569 1.9697 1.0054 2.5576 0.6056 0.58209 1.4464 0.87313 2.5224 0.87313 0.62323 0 1.2259-0.0764 1.808-0.22931 0.58795-0.15287 1.17-0.38217 1.7462-0.68792v1.5346c-0.58209 0.24694-1.1789 0.43509-1.7903 0.56444-0.61149 0.12935-1.2318 0.19403-1.8609 0.19403-1.5758 0-2.8252-0.45861-3.7483-1.3758-0.91722-0.91722-1.3758-2.1578-1.3758-3.7218 0-1.6169 0.43509-2.8986 1.3053-3.8453 0.87606-0.95249 2.0549-1.4287 3.5366-1.4288 1.3288 0.00001 2.3783 0.42922 3.1485 1.2876 0.7761 0.85255 1.1642 2.0138 1.1642 3.4837m-1.6228-0.47625c-0.0118-0.88782-0.26165-1.5963-0.74965-2.1255-0.48214-0.52915-1.123-0.79374-1.9226-0.79375-0.90546 0.00001-1.6316 0.25578-2.1784 0.7673-0.54092 0.51153-0.85254 1.2318-0.93486 2.1608l5.7856-0.009"/>
  <path id="path3150" style="" d="m379.32 223.82h1.6228v10.054c0 1.2582-0.24106 2.1696-0.72319 2.734-0.47625 0.56444-1.2465 0.84666-2.3107 0.84666h-0.61736v-1.3758h0.43215c0.61736 0 1.0378-0.14405 1.2612-0.43215 0.22342-0.28223 0.33514-0.87313 0.33514-1.7727v-10.054m0-3.8453h1.6228v2.0549h-1.6228v-2.0549"/>
  <path id="path3152" style="" d="m392.78 228.35v0.79375h-7.4612c0.0706 1.1171 0.40569 1.9697 1.0054 2.5576 0.6056 0.58209 1.4464 0.87313 2.5224 0.87313 0.62323 0 1.2259-0.0764 1.808-0.22931 0.58795-0.15287 1.17-0.38217 1.7462-0.68792v1.5346c-0.58209 0.24694-1.1789 0.43509-1.7904 0.56444-0.61148 0.12935-1.2318 0.19403-1.8609 0.19403-1.5757 0-2.8252-0.45861-3.7483-1.3758-0.91722-0.91722-1.3758-2.1578-1.3758-3.7218 0-1.6169 0.43509-2.8986 1.3053-3.8453 0.87606-0.95249 2.0549-1.4287 3.5366-1.4288 1.3288 0.00001 2.3783 0.42922 3.1485 1.2876 0.7761 0.85255 1.1642 2.0138 1.1642 3.4837m-1.6228-0.47625c-0.0118-0.88782-0.26165-1.5963-0.74965-2.1255-0.48214-0.52915-1.123-0.79374-1.9226-0.79375-0.90547 0.00001-1.6316 0.25578-2.1784 0.7673-0.54093 0.51153-0.85255 1.2318-0.93486 2.1608l5.7856-0.009"/>
  <path id="path3154" style="" d="m395.85 231.45h1.8609v1.5169l-1.4464 2.8222h-1.1377l0.7232-2.8222v-1.5169"/>
  <path id="path3156" style="" d="m405.78 223.82h1.7198l3.0868 8.2903 3.0868-8.2903h1.7198l-3.7042 9.8778h-2.2049l-3.7042-9.8778"/>
  <path id="path3158" style="" d="m426.08 228.35v0.79375h-7.4612c0.0705 1.1171 0.40569 1.9697 1.0054 2.5576 0.6056 0.58209 1.4464 0.87313 2.5224 0.87313 0.62323 0 1.2259-0.0764 1.808-0.22931 0.58795-0.15287 1.17-0.38217 1.7462-0.68792v1.5346c-0.58209 0.24694-1.1789 0.43509-1.7903 0.56444-0.61149 0.12935-1.2318 0.19403-1.8609 0.19403-1.5758 0-2.8252-0.45861-3.7483-1.3758-0.91722-0.91722-1.3758-2.1578-1.3758-3.7218 0-1.6169 0.43509-2.8986 1.3053-3.8453 0.87606-0.95249 2.0549-1.4287 3.5366-1.4288 1.3288 0.00001 2.3783 0.42922 3.1485 1.2876 0.7761 0.85255 1.1642 2.0138 1.1642 3.4837m-1.6228-0.47625c-0.0118-0.88782-0.26165-1.5963-0.74965-2.1255-0.48213-0.52915-1.123-0.79374-1.9226-0.79375-0.90546 0.00001-1.6316 0.25578-2.1784 0.7673-0.54092 0.51153-0.85254 1.2318-0.93486 2.1608l5.7856-0.009m-1.561-8.6254h1.7551l-2.8751 3.3161h-1.3494l2.4694-3.3161"/>
  <path id="path3160" style="" d="m435.24 228.64c-0.00001-1.1759-0.24401-2.0873-0.73201-2.734-0.48214-0.64675-1.1612-0.97013-2.0373-0.97013-0.87019 0-1.5493 0.32338-2.0373 0.97013-0.48213 0.64677-0.7232 1.5581-0.72319 2.734-0.00001 1.17 0.24106 2.0784 0.72319 2.7252 0.48801 0.64676 1.1671 0.97014 2.0373 0.97014 0.87606 0 1.5552-0.32338 2.0373-0.97014 0.488-0.64675 0.732-1.5552 0.73201-2.7252m1.6228 3.8276c-0.00001 1.6816-0.37337 2.931-1.1201 3.7483-0.74672 0.82315-1.8903 1.2347-3.4308 1.2347-0.57033 0-1.1083-0.0441-1.614-0.13229-0.50565-0.0823-0.99659-0.21167-1.4728-0.38805v-1.5787c0.47625 0.2587 0.94661 0.44979 1.4111 0.57326 0.46448 0.12347 0.93779 0.18521 1.4199 0.18521 1.0642 0 1.8609-0.27929 2.3901-0.83785 0.52916-0.55268 0.79374-1.3905 0.79375-2.5135v-0.80257c-0.33514 0.58209-0.76436 1.0172-1.2876 1.3053-0.52329 0.2881-1.1495 0.43215-1.8785 0.43215-1.2112 0-2.1872-0.46155-2.9281-1.3846-0.74083-0.9231-1.1112-2.1461-1.1112-3.6689 0-1.5287 0.37042-2.7546 1.1112-3.6777 0.74083-0.92309 1.7168-1.3846 2.9281-1.3846 0.72906 0.00001 1.3552 0.14406 1.8785 0.43215 0.52328 0.28812 0.9525 0.72321 1.2876 1.3053v-1.4993h1.6228v8.6519"/>
  <path id="path3162" style="" d="m448.66 228.35v0.79375h-7.4612c0.0705 1.1171 0.40569 1.9697 1.0054 2.5576 0.6056 0.58209 1.4464 0.87313 2.5224 0.87313 0.62324 0 1.2259-0.0764 1.808-0.22931 0.58795-0.15287 1.17-0.38217 1.7462-0.68792v1.5346c-0.58209 0.24694-1.1789 0.43509-1.7903 0.56444-0.61149 0.12935-1.2318 0.19403-1.8609 0.19403-1.5757 0-2.8252-0.45861-3.7483-1.3758-0.91722-0.91722-1.3758-2.1578-1.3758-3.7218 0-1.6169 0.43509-2.8986 1.3053-3.8453 0.87606-0.95249 2.0549-1.4287 3.5366-1.4288 1.3288 0.00001 2.3783 0.42922 3.1485 1.2876 0.7761 0.85255 1.1642 2.0138 1.1642 3.4837m-1.6228-0.47625c-0.0118-0.88782-0.26165-1.5963-0.74965-2.1255-0.48213-0.52915-1.123-0.79374-1.9226-0.79375-0.90547 0.00001-1.6316 0.25578-2.1784 0.7673-0.54093 0.51153-0.85255 1.2318-0.93486 2.1608l5.7855-0.009"/>
 </g>
 <g id="text108">
  <path id="path3165" style="" d="m592.35 225.71c0.40569-0.72907 0.89076-1.267 1.4552-1.614 0.56443-0.34689 1.2288-0.52034 1.9932-0.52035 1.0289 0.00001 1.8227 0.36161 2.3812 1.0848 0.55855 0.71733 0.83783 1.7404 0.83785 3.0692v5.9619h-1.6316v-5.909c-0.00001-0.94661-0.16758-1.6492-0.50271-2.1078-0.33515-0.4586-0.84667-0.68791-1.5346-0.68792-0.8408 0.00001-1.5052 0.27929-1.9932 0.83785-0.48802 0.55857-0.73202 1.32-0.73201 2.2842v5.5827h-1.6316v-5.909c-0.00001-0.95249-0.16758-1.6551-0.50271-2.1078-0.33514-0.4586-0.85255-0.68791-1.5522-0.68792-0.82903 0.00001-1.4876 0.28223-1.9756 0.84667-0.48801 0.55857-0.73202 1.317-0.73201 2.2754v5.5827h-1.6316v-9.8778h1.6316v1.5346c0.37041-0.60559 0.81432-1.0524 1.3317-1.3406 0.5174-0.28809 1.1318-0.43214 1.8433-0.43215 0.71731 0.00001 1.3258 0.18228 1.8256 0.54681 0.50564 0.36454 0.87899 0.89371 1.1201 1.5875"/>
  <path id="path3167" style="" d="m608.85 219.25h1.5698l-2.1872 3.3161h-1.1906l1.808-3.3161m-2.9457 0h1.4993l-1.9667 3.3161h-1.2083l1.6757-3.3161m-3.81 10.548v-5.9796h1.6228v5.9178c-0.00001 0.93486 0.18226 1.6375 0.5468 2.1078 0.36453 0.46449 0.91134 0.69674 1.6404 0.69674 0.87606 0 1.5669-0.27928 2.0726-0.83785 0.51152-0.55856 0.76728-1.32 0.76729-2.2842v-5.6003h1.6228v9.8778h-1.6228v-1.5169c-0.39394 0.59972-0.85255 1.0466-1.3758 1.3406-0.51741 0.28811-1.1201 0.43216-1.808 0.43216-1.1348 0-1.9961-0.35278-2.5841-1.0583-0.58796-0.70555-0.88194-1.7374-0.88194-3.0956m4.0834-6.2177"/>
  <path id="path3169" style="" d="m612.57 223.82h1.7198l3.0868 8.2903 3.0868-8.2903h1.7198l-3.7042 9.8778h-2.2049l-3.7042-9.8778"/>
  <path id="path3171" style="" d="m632.87 228.35v0.79375h-7.4612c0.0706 1.1171 0.40569 1.9697 1.0054 2.5576 0.60559 0.58209 1.4464 0.87313 2.5224 0.87313 0.62323 0 1.2259-0.0764 1.808-0.22931 0.58795-0.15287 1.17-0.38217 1.7462-0.68792v1.5346c-0.58209 0.24694-1.1789 0.43509-1.7904 0.56444-0.61149 0.12935-1.2318 0.19403-1.8609 0.19403-1.5757 0-2.8252-0.45861-3.7483-1.3758-0.91722-0.91722-1.3758-2.1578-1.3758-3.7218 0-1.6169 0.43509-2.8986 1.3053-3.8453 0.87606-0.95249 2.0549-1.4287 3.5366-1.4288 1.3288 0.00001 2.3783 0.42922 3.1485 1.2876 0.7761 0.85255 1.1642 2.0138 1.1642 3.4837m-1.6228-0.47625c-0.0118-0.88782-0.26165-1.5963-0.74965-2.1255-0.48214-0.52915-1.123-0.79374-1.9226-0.79375-0.90547 0.00001-1.6316 0.25578-2.1784 0.7673-0.54093 0.51153-0.85255 1.2318-0.93486 2.1608l5.7856-0.009"/>
  <path id="path3173" style="" d="m635.53 219.97h1.6228v13.723h-1.6228v-13.723"/>
  <path id="path3175" style="" d="m648.99 228.35v0.79375h-7.4612c0.0706 1.1171 0.40569 1.9697 1.0054 2.5576 0.6056 0.58209 1.4464 0.87313 2.5224 0.87313 0.62323 0 1.2259-0.0764 1.808-0.22931 0.58795-0.15287 1.17-0.38217 1.7462-0.68792v1.5346c-0.58209 0.24694-1.1789 0.43509-1.7903 0.56444-0.61149 0.12935-1.2318 0.19403-1.8609 0.19403-1.5758 0-2.8252-0.45861-3.7483-1.3758-0.91722-0.91722-1.3758-2.1578-1.3758-3.7218 0-1.6169 0.43509-2.8986 1.3053-3.8453 0.87606-0.95249 2.0549-1.4287 3.5366-1.4288 1.3288 0.00001 2.3783 0.42922 3.1485 1.2876 0.7761 0.85255 1.1642 2.0138 1.1642 3.4837m-1.6228-0.47625c-0.0118-0.88782-0.26165-1.5963-0.74965-2.1255-0.48214-0.52915-1.123-0.79374-1.9226-0.79375-0.90546 0.00001-1.6316 0.25578-2.1784 0.7673-0.54092 0.51153-0.85254 1.2318-0.93486 2.1608l5.7856-0.009"/>
  <path id="path3177" style="" d="m653.26 221.01v2.8046h3.3426v1.2612h-3.3426v5.3622c0 0.80551 0.10877 1.3229 0.32632 1.5522 0.22342 0.22931 0.67321 0.34396 1.3494 0.34396h1.6669v1.3582h-1.6669c-1.2524 0-2.1167-0.23224-2.5929-0.69673-0.47625-0.47037-0.71438-1.3229-0.71437-2.5576v-5.3622h-1.1906v-1.2612h1.1906v-2.8046h1.6316"/>
 </g>
 <g id="text112">
  <path id="path3180" style="" d="m722.56 219.97h1.6316v8.1051l4.8419-4.2598h2.0726l-5.2387 4.6214 5.4592 5.2564h-2.1167l-5.0183-4.8242v4.8242h-1.6316v-13.723"/>
  <path id="path3182" style="" d="m737.27 228.73c-1.3112 0.00001-2.2196 0.14994-2.7252 0.44979-0.50565 0.29987-0.75848 0.81139-0.75847 1.5346-0.00001 0.57621 0.18814 1.0348 0.56444 1.3758 0.38217 0.33514 0.89958 0.50271 1.5522 0.5027 0.89958 0.00001 1.6198-0.31749 2.1608-0.95249 0.5468-0.64088 0.8202-1.4905 0.82021-2.5488v-0.3616h-1.614m3.2367-0.67027v5.6356h-1.6228v-1.4993c-0.37042 0.59972-0.83197 1.0436-1.3846 1.3317-0.55269 0.28223-1.2288 0.42334-2.0285 0.42334-1.0113 0-1.8168-0.28223-2.4165-0.84667-0.59384-0.57032-0.89076-1.3317-0.89076-2.2842 0-1.1112 0.37042-1.9491 1.1112-2.5135 0.74671-0.56444 1.858-0.84666 3.3338-0.84667h2.2754v-0.15875c-0.00001-0.7467-0.24695-1.3229-0.74083-1.7286-0.48802-0.41156-1.1759-0.61735-2.0638-0.61736-0.56445 0.00001-1.1142 0.0676-1.6492 0.20285-0.53505 0.13524-1.0495 0.33809-1.5434 0.60854v-1.4993c0.59383-0.2293 1.17-0.39981 1.7286-0.51153 0.55856-0.11758 1.1024-0.17638 1.6316-0.17639 1.4287 0.00001 2.4959 0.37043 3.2014 1.1112 0.70555 0.74084 1.0583 1.8638 1.0583 3.369"/>
  <path id="path3184" style="" d="m745.43 232.21v5.2387h-1.6316v-13.635h1.6316v1.4993c0.34101-0.58795 0.77023-1.023 1.2876-1.3053 0.52328-0.28809 1.1465-0.43214 1.8697-0.43215 1.1994 0.00001 2.1725 0.47626 2.9192 1.4288 0.75258 0.95251 1.1289 2.2049 1.1289 3.7571-0.00001 1.5522-0.37631 2.8046-1.1289 3.7571-0.74672 0.9525-1.7198 1.4288-2.9192 1.4288-0.7232 0-1.3464-0.14111-1.8697-0.42334-0.51741-0.2881-0.94663-0.72613-1.2876-1.3141m5.521-3.4484c-0.00001-1.1936-0.24696-2.1284-0.74084-2.8046-0.48801-0.68203-1.1612-1.023-2.0196-1.023-0.85843 0-1.5346 0.34102-2.0285 1.023-0.48801 0.67616-0.73201 1.611-0.73201 2.8046s0.244 2.1314 0.73201 2.8134c0.49389 0.67616 1.17 1.0142 2.0285 1.0142 0.85842 0.00001 1.5316-0.33807 2.0196-1.0142 0.49388-0.68203 0.74083-1.6198 0.74084-2.8134"/>
  <path id="path3186" style="" d="m762.43 224.2v1.517c-0.45862-0.25282-0.92017-0.44097-1.3846-0.56445-0.45862-0.12934-0.92311-0.19402-1.3935-0.19403-1.0525 0.00001-1.8697 0.33515-2.4518 1.0054-0.58209 0.6644-0.87313 1.5993-0.87313 2.8046s0.29104 2.1431 0.87313 2.8134c0.58207 0.6644 1.3993 0.9966 2.4518 0.9966 0.47036 0 0.93485-0.0617 1.3935-0.18521 0.46448-0.12935 0.92603-0.32044 1.3846-0.57327v1.4993c-0.45274 0.21166-0.92311 0.37041-1.4111 0.47625-0.48214 0.10583-0.9966 0.15875-1.5434 0.15875-1.4876 0-2.6694-0.46743-3.5454-1.4023-0.87607-0.93486-1.3141-2.196-1.3141-3.7835 0-1.611 0.44097-2.8781 1.3229-3.8012 0.88782-0.92309 2.102-1.3846 3.6424-1.3846 0.49976 0.00001 0.98777 0.0529 1.464 0.15875 0.47624 0.1 0.93779 0.25284 1.3846 0.45861"/>
  <path id="path3188" style="" d="m771.57 224.11v1.5346c-0.45862-0.23518-0.93487-0.41156-1.4288-0.52917-0.49389-0.11758-1.0054-0.17638-1.5346-0.17638-0.80551 0-1.4111 0.12348-1.8168 0.37041-0.39982 0.24695-0.59973 0.61737-0.59972 1.1112-0.00001 0.3763 0.14404 0.67322 0.43215 0.89076 0.2881 0.21168 0.86724 0.41452 1.7374 0.60854l0.55562 0.12348c1.1524 0.24695 1.9697 0.59678 2.4518 1.0495 0.488 0.44685 0.73201 1.073 0.73202 1.8785-0.00001 0.91722-0.36455 1.6434-1.0936 2.1784-0.7232 0.53504-1.7198 0.80257-2.9898 0.80257-0.52917 0-1.0819-0.0529-1.6581-0.15875-0.57032-0.1-1.173-0.25283-1.808-0.45861v-1.6757c0.59972 0.31163 1.1906 0.54681 1.7727 0.70556 0.58208 0.15287 1.1583 0.22931 1.7286 0.2293 0.76434 0.00001 1.3523-0.12935 1.7639-0.38805 0.41157-0.26458 0.61736-0.635 0.61736-1.1112 0-0.44097-0.14993-0.77905-0.44979-1.0142-0.29399-0.23519-0.94368-0.46155-1.9491-0.6791l-0.56445-0.13229c-1.0054-0.21166-1.7316-0.53504-2.1784-0.97014-0.44685-0.44097-0.67027-1.0436-0.67027-1.808 0-0.92898 0.32925-1.6463 0.98777-2.152 0.65852-0.50563 1.5934-0.75846 2.8046-0.75847 0.59972 0.00001 1.1642 0.0441 1.6933 0.13229 0.52916 0.0882 1.0172 0.2205 1.464 0.39688"/>
  <path id="path3190" style="" d="m778.52 224.95c-0.87019 0.00001-1.5581 0.34103-2.0638 1.0231-0.50565 0.67616-0.75847 1.6051-0.75847 2.7869s0.24988 2.1137 0.74965 2.7958c0.50564 0.67616 1.1965 1.0142 2.0726 1.0142 0.8643 0 1.5493-0.34102 2.0549-1.0231 0.50564-0.68203 0.75846-1.611 0.75847-2.7869-0.00001-1.17-0.25283-2.0961-0.75847-2.7781-0.50566-0.68791-1.1906-1.0319-2.0549-1.0319m0-1.3758c1.4111 0.00001 2.5194 0.45862 3.3249 1.3758 0.8055 0.91723 1.2083 2.1872 1.2083 3.81-0.00001 1.6169-0.40277 2.8869-1.2083 3.81-0.80551 0.91722-1.9138 1.3758-3.3249 1.3758-1.417 0-2.5282-0.45861-3.3338-1.3758-0.79963-0.9231-1.1994-2.1931-1.1994-3.81 0-1.6228 0.39981-2.8928 1.1994-3.81 0.80551-0.91721 1.9168-1.3758 3.3338-1.3758"/>
  <path id="path3192" style="" d="m785.73 219.97h1.6228v13.723h-1.6228v-13.723"/>
  <path id="path3194" style="" d="m795.23 228.73c-1.3112 0.00001-2.2196 0.14994-2.7252 0.44979-0.50565 0.29987-0.75848 0.81139-0.75847 1.5346-0.00001 0.57621 0.18814 1.0348 0.56444 1.3758 0.38217 0.33514 0.89958 0.50271 1.5522 0.5027 0.89958 0.00001 1.6198-0.31749 2.1608-0.95249 0.5468-0.64088 0.8202-1.4905 0.82021-2.5488v-0.3616h-1.614m3.2367-0.67027v5.6356h-1.6228v-1.4993c-0.37042 0.59972-0.83197 1.0436-1.3846 1.3317-0.55269 0.28223-1.2288 0.42334-2.0285 0.42334-1.0113 0-1.8168-0.28223-2.4165-0.84667-0.59384-0.57032-0.89076-1.3317-0.89076-2.2842 0-1.1112 0.37042-1.9491 1.1112-2.5135 0.74671-0.56444 1.858-0.84666 3.3338-0.84667h2.2754v-0.15875c-0.00001-0.7467-0.24695-1.3229-0.74083-1.7286-0.48802-0.41156-1.1759-0.61735-2.0638-0.61736-0.56445 0.00001-1.1142 0.0676-1.6492 0.20285-0.53505 0.13524-1.0495 0.33809-1.5434 0.60854v-1.4993c0.59383-0.2293 1.17-0.39981 1.7286-0.51153 0.55856-0.11758 1.1024-0.17638 1.6316-0.17639 1.4287 0.00001 2.4959 0.37043 3.2014 1.1112 0.70555 0.74084 1.0583 1.8638 1.0583 3.369"/>
  <path id="path3196" style="" d="m803.43 221.01v2.8046h3.3426v1.2612h-3.3426v5.3622c0 0.80551 0.10877 1.3229 0.32632 1.5522 0.22342 0.22931 0.67321 0.34396 1.3494 0.34396h1.6669v1.3582h-1.6669c-1.2524 0-2.1167-0.23224-2.5929-0.69673-0.47625-0.47037-0.71438-1.3229-0.71438-2.5576v-5.3622h-1.1906v-1.2612h1.1906v-2.8046h1.6316"/>
  <path id="path3198" style="" d="m819.15 228.73c-1.3112 0.00001-2.2196 0.14994-2.7252 0.44979-0.50565 0.29987-0.75847 0.81139-0.75847 1.5346 0 0.57621 0.18815 1.0348 0.56445 1.3758 0.38217 0.33514 0.89957 0.50271 1.5522 0.5027 0.89957 0.00001 1.6198-0.31749 2.1608-0.95249 0.54679-0.64088 0.8202-1.4905 0.8202-2.5488v-0.3616h-1.614m3.2367-0.67027v5.6356h-1.6228v-1.4993c-0.37042 0.59972-0.83197 1.0436-1.3846 1.3317-0.55269 0.28223-1.2288 0.42334-2.0285 0.42334-1.0113 0-1.8168-0.28223-2.4165-0.84667-0.59384-0.57032-0.89076-1.3317-0.89076-2.2842 0-1.1112 0.37041-1.9491 1.1112-2.5135 0.74671-0.56444 1.858-0.84666 3.3338-0.84667h2.2754v-0.15875c0-0.7467-0.24695-1.3229-0.74083-1.7286-0.48801-0.41156-1.1759-0.61735-2.0638-0.61736-0.56444 0.00001-1.1142 0.0676-1.6492 0.20285-0.53505 0.13524-1.0495 0.33809-1.5434 0.60854v-1.4993c0.59384-0.2293 1.17-0.39981 1.7286-0.51153 0.55856-0.11758 1.1024-0.17638 1.6316-0.17639 1.4288 0.00001 2.4959 0.37043 3.2015 1.1112 0.70554 0.74084 1.0583 1.8638 1.0583 3.369"/>
  <path id="path3200" style="" d="m836.49 219.97v1.3494h-1.5522c-0.58209 0.00001-0.98778 0.1176-1.2171 0.35277-0.22343 0.2352-0.33514 0.65853-0.33514 1.27v0.87313h2.6723v1.2612h-2.6723v8.6166h-1.6316v-8.6166h-1.5522v-1.2612h1.5522v-0.68792c-0.00001-1.0995 0.25576-1.8991 0.76729-2.3989 0.51152-0.50564 1.3229-0.75846 2.4342-0.75848h1.5346"/>
  <path id="path3202" style="" d="m846.29 228.35v0.79375h-7.4612c0.0706 1.1171 0.40569 1.9697 1.0054 2.5576 0.60559 0.58209 1.4464 0.87313 2.5224 0.87313 0.62324 0 1.2259-0.0764 1.808-0.22931 0.58795-0.15287 1.17-0.38217 1.7462-0.68792v1.5346c-0.5821 0.24694-1.1789 0.43509-1.7904 0.56444-0.61149 0.12935-1.2318 0.19403-1.8609 0.19403-1.5757 0-2.8252-0.45861-3.7483-1.3758-0.91722-0.91722-1.3758-2.1578-1.3758-3.7218 0-1.6169 0.43509-2.8986 1.3053-3.8453 0.87606-0.95249 2.0549-1.4287 3.5366-1.4288 1.3288 0.00001 2.3783 0.42922 3.1485 1.2876 0.7761 0.85255 1.1642 2.0138 1.1642 3.4837m-1.6228-0.47625c-0.0118-0.88782-0.26166-1.5963-0.74966-2.1255-0.48213-0.52915-1.123-0.79374-1.9226-0.79375-0.90547 0.00001-1.6316 0.25578-2.1784 0.7673-0.54093 0.51153-0.85255 1.2318-0.93486 2.1608l5.7856-0.009"/>
  <path id="path3204" style="" d="m848.95 219.97h1.6228v13.723h-1.6228v-13.723"/>
  <path id="path3206" style="" d="m862.17 227.73v5.9619h-1.6228v-5.909c-0.00001-0.93485-0.18228-1.6345-0.54681-2.099-0.36454-0.46448-0.91135-0.69673-1.6404-0.69674-0.87607 0.00001-1.5669 0.27929-2.0726 0.83785-0.50565 0.55857-0.75847 1.32-0.75847 2.2842v5.5827h-1.6316v-13.723h1.6316v5.3799c0.38805-0.59383 0.84372-1.0378 1.367-1.3317 0.52916-0.29397 1.1377-0.44096 1.8256-0.44097 1.1348 0.00001 1.9932 0.35279 2.5753 1.0583 0.58207 0.69969 0.87311 1.7316 0.87312 3.0956"/>
  <path id="path3208" style="" d="m869.92 228.73c-1.3112 0.00001-2.2196 0.14994-2.7252 0.44979-0.50565 0.29987-0.75848 0.81139-0.75847 1.5346-0.00001 0.57621 0.18814 1.0348 0.56444 1.3758 0.38217 0.33514 0.89958 0.50271 1.5522 0.5027 0.89958 0.00001 1.6198-0.31749 2.1608-0.95249 0.5468-0.64088 0.8202-1.4905 0.82021-2.5488v-0.3616h-1.614m3.2367-0.67027v5.6356h-1.6228v-1.4993c-0.37043 0.59972-0.83198 1.0436-1.3846 1.3317-0.55269 0.28223-1.2288 0.42334-2.0285 0.42334-1.0113 0-1.8168-0.28223-2.4165-0.84667-0.59384-0.57032-0.89076-1.3317-0.89076-2.2842 0-1.1112 0.37041-1.9491 1.1112-2.5135 0.74671-0.56444 1.858-0.84666 3.3337-0.84667h2.2754v-0.15875c-0.00001-0.7467-0.24695-1.3229-0.74083-1.7286-0.48802-0.41156-1.1759-0.61735-2.0638-0.61736-0.56445 0.00001-1.1142 0.0676-1.6492 0.20285-0.53504 0.13524-1.0495 0.33809-1.5434 0.60854v-1.4993c0.59384-0.2293 1.17-0.39981 1.7286-0.51153 0.55856-0.11758 1.1024-0.17638 1.6316-0.17639 1.4287 0.00001 2.4959 0.37043 3.2014 1.1112 0.70555 0.74084 1.0583 1.8638 1.0583 3.369"/>
  <path id="path3210" style="" d="m882.8 224.11v1.5346c-0.45862-0.23518-0.93487-0.41156-1.4288-0.52917-0.4939-0.11758-1.0054-0.17638-1.5346-0.17638-0.80552 0-1.4111 0.12348-1.8168 0.37041-0.39981 0.24695-0.59972 0.61737-0.59972 1.1112 0 0.3763 0.14405 0.67322 0.43215 0.89076 0.2881 0.21168 0.86724 0.41452 1.7374 0.60854l0.55563 0.12348c1.1524 0.24695 1.9697 0.59678 2.4518 1.0495 0.488 0.44685 0.732 1.073 0.73201 1.8785-0.00001 0.91722-0.36454 1.6434-1.0936 2.1784-0.7232 0.53504-1.7198 0.80257-2.9898 0.80257-0.52917 0-1.0818-0.0529-1.658-0.15875-0.57033-0.1-1.173-0.25283-1.808-0.45861v-1.6757c0.59972 0.31163 1.1906 0.54681 1.7727 0.70556 0.58208 0.15287 1.1583 0.22931 1.7286 0.2293 0.76435 0.00001 1.3523-0.12935 1.7639-0.38805 0.41157-0.26458 0.61735-0.635 0.61736-1.1112-0.00001-0.44097-0.14994-0.77905-0.44979-1.0142-0.29399-0.23519-0.94369-0.46155-1.9491-0.6791l-0.56444-0.13229c-1.0054-0.21166-1.7316-0.53504-2.1784-0.97014-0.44685-0.44097-0.67028-1.0436-0.67028-1.808 0-0.92898 0.32926-1.6463 0.98778-2.152 0.65851-0.50563 1.5934-0.75846 2.8046-0.75847 0.59971 0.00001 1.1642 0.0441 1.6933 0.13229 0.52916 0.0882 1.0172 0.2205 1.464 0.39688"/>
  <path id="path3212" style="" d="m885.22 223.82h7.7082v1.4817l-6.103 7.0996h6.103v1.2964h-7.9287v-1.4817l6.103-7.0996h-5.8826v-1.2964"/>
  <path id="path3214" style="" d="m903.62 227.73v5.9619h-1.6228v-5.909c-0.00001-0.93485-0.18228-1.6345-0.54681-2.099-0.36454-0.46448-0.91135-0.69673-1.6404-0.69674-0.87607 0.00001-1.5669 0.27929-2.0726 0.83785-0.50565 0.55857-0.75848 1.32-0.75847 2.2842v5.5827h-1.6316v-9.8778h1.6316v1.5346c0.38805-0.59383 0.84372-1.0378 1.367-1.3317 0.52916-0.29397 1.1377-0.44096 1.8256-0.44097 1.1348 0.00001 1.9932 0.35279 2.5753 1.0583 0.58207 0.69969 0.87311 1.7316 0.87312 3.0956"/>
  <path id="path3216" style="" d="m911.37 228.73c-1.3112 0.00001-2.2196 0.14994-2.7252 0.44979-0.50565 0.29987-0.75848 0.81139-0.75847 1.5346-0.00001 0.57621 0.18814 1.0348 0.56444 1.3758 0.38217 0.33514 0.89958 0.50271 1.5522 0.5027 0.89958 0.00001 1.6198-0.31749 2.1608-0.95249 0.5468-0.64088 0.8202-1.4905 0.82021-2.5488v-0.3616h-1.614m3.2367-0.67027v5.6356h-1.6228v-1.4993c-0.37043 0.59972-0.83198 1.0436-1.3846 1.3317-0.55269 0.28223-1.2288 0.42334-2.0285 0.42334-1.0113 0-1.8168-0.28223-2.4165-0.84667-0.59384-0.57032-0.89076-1.3317-0.89076-2.2842 0-1.1112 0.37041-1.9491 1.1112-2.5135 0.74671-0.56444 1.858-0.84666 3.3337-0.84667h2.2754v-0.15875c-0.00001-0.7467-0.24695-1.3229-0.74083-1.7286-0.48802-0.41156-1.1759-0.61735-2.0638-0.61736-0.56445 0.00001-1.1142 0.0676-1.6492 0.20285-0.53504 0.13524-1.0495 0.33809-1.5434 0.60854v-1.4993c0.59384-0.2293 1.17-0.39981 1.7286-0.51153 0.55856-0.11758 1.1024-0.17638 1.6316-0.17639 1.4287 0.00001 2.4959 0.37043 3.2014 1.1112 0.70555 0.74084 1.0583 1.8638 1.0583 3.369m-2.9633-8.8106h1.7551l-2.8751 3.3161h-1.3494l2.4694-3.3161"/>
  <path id="path3218" style="" d="m917.95 219.97h1.6228v13.723h-1.6228v-13.723"/>
  <path id="path3220" style="" d="m926.79 224.95c-0.87019 0.00001-1.5581 0.34103-2.0637 1.0231-0.50565 0.67616-0.75848 1.6051-0.75848 2.7869s0.24989 2.1137 0.74966 2.7958c0.50564 0.67616 1.1965 1.0142 2.0726 1.0142 0.8643 0 1.5493-0.34102 2.0549-1.0231 0.50564-0.68203 0.75846-1.611 0.75847-2.7869-0.00001-1.17-0.25283-2.0961-0.75847-2.7781-0.50565-0.68791-1.1906-1.0319-2.0549-1.0319m0-1.3758c1.4111 0.00001 2.5194 0.45862 3.3249 1.3758 0.8055 0.91723 1.2082 2.1872 1.2083 3.81-0.00001 1.6169-0.40276 2.8869-1.2083 3.81-0.80552 0.91722-1.9138 1.3758-3.3249 1.3758-1.417 0-2.5282-0.45861-3.3337-1.3758-0.79963-0.9231-1.1994-2.1931-1.1994-3.81 0-1.6228 0.39982-2.8928 1.1994-3.81 0.8055-0.91721 1.9168-1.3758 3.3337-1.3758m1.2259-4.3303h1.7551l-2.8751 3.3161h-1.3494l2.4694-3.3161"/>
  <path id="path3222" style="" d="m932.84 223.82h1.7198l3.0868 8.2903 3.0868-8.2903h1.7198l-3.7042 9.8778h-2.2049l-3.7042-9.8778"/>
  <path id="path3224" style="" d="m949.18 228.73c-1.3112 0.00001-2.2196 0.14994-2.7252 0.44979-0.50565 0.29987-0.75847 0.81139-0.75847 1.5346 0 0.57621 0.18814 1.0348 0.56444 1.3758 0.38217 0.33514 0.89958 0.50271 1.5522 0.5027 0.89958 0.00001 1.6198-0.31749 2.1608-0.95249 0.5468-0.64088 0.8202-1.4905 0.82021-2.5488v-0.3616h-1.614m3.2367-0.67027v5.6356h-1.6228v-1.4993c-0.37042 0.59972-0.83197 1.0436-1.3846 1.3317-0.55269 0.28223-1.2288 0.42334-2.0285 0.42334-1.0113 0-1.8168-0.28223-2.4165-0.84667-0.59385-0.57032-0.89077-1.3317-0.89077-2.2842 0-1.1112 0.37042-1.9491 1.1112-2.5135 0.74671-0.56444 1.858-0.84666 3.3338-0.84667h2.2754v-0.15875c-0.00001-0.7467-0.24695-1.3229-0.74083-1.7286-0.48802-0.41156-1.1759-0.61735-2.0638-0.61736-0.56445 0.00001-1.1142 0.0676-1.6492 0.20285-0.53505 0.13524-1.0495 0.33809-1.5434 0.60854v-1.4993c0.59384-0.2293 1.17-0.39981 1.7286-0.51153 0.55856-0.11758 1.1024-0.17638 1.6316-0.17639 1.4287 0.00001 2.4959 0.37043 3.2015 1.1112 0.70554 0.74084 1.0583 1.8638 1.0583 3.369"/>
  <path id="path3226" style="" d="m955.77 219.97h1.6228v13.723h-1.6228v-13.723"/>
 </g>
 <g id="text116">
  <path id="path3229" style="" d="m1050.3 228.35v0.79375h-7.4612c0.071 1.1171 0.4057 1.9697 1.0054 2.5576 0.6056 0.58209 1.4464 0.87313 2.5224 0.87313 0.6232 0 1.2259-0.0764 1.8079-0.22931 0.588-0.15287 1.1701-0.38217 1.7463-0.68792v1.5346c-0.5821 0.24694-1.1789 0.43509-1.7904 0.56444-0.6114 0.12935-1.2317 0.19403-1.8609 0.19403-1.5757 0-2.8251-0.45861-3.7482-1.3758-0.9172-0.91722-1.3758-2.1578-1.3758-3.7218 0-1.6169 0.435-2.8986 1.3052-3.8453 0.8761-0.95249 2.055-1.4287 3.5366-1.4288 1.3288 0.00001 2.3783 0.42922 3.1486 1.2876 0.7761 0.85255 1.1641 2.0138 1.1641 3.4837m-1.6227-0.47625c-0.012-0.88782-0.2617-1.5963-0.7497-2.1255-0.4821-0.52915-1.123-0.79374-1.9226-0.79375-0.9055 0.00001-1.6316 0.25578-2.1784 0.7673-0.541 0.51153-0.8526 1.2318-0.9349 2.1608l5.7856-0.009"/>
  <path id="path3231" style="" d="m1053 219.97h1.6228v13.723h-1.6228v-13.723"/>
  <path id="path3233" style="" d="m1062.4 228.73c-1.3111 0.00001-2.2195 0.14994-2.7252 0.44979-0.5056 0.29987-0.7585 0.81139-0.7584 1.5346-0.0001 0.57621 0.1881 1.0348 0.5644 1.3758 0.3822 0.33514 0.8996 0.50271 1.5522 0.5027 0.8996 0.00001 1.6198-0.31749 2.1608-0.95249 0.5468-0.64088 0.8202-1.4905 0.8202-2.5488v-0.3616h-1.614m3.2368-0.67027v5.6356h-1.6228v-1.4993c-0.3704 0.59972-0.832 1.0436-1.3847 1.3317-0.5527 0.28223-1.2288 0.42334-2.0284 0.42334-1.0113 0-1.8168-0.28223-2.4166-0.84667-0.5938-0.57032-0.8907-1.3317-0.8907-2.2842 0-1.1112 0.3704-1.9491 1.1112-2.5135 0.7467-0.56444 1.858-0.84666 3.3338-0.84667h2.2754v-0.15875c0-0.7467-0.247-1.3229-0.7408-1.7286-0.4881-0.41156-1.176-0.61735-2.0638-0.61736-0.5644 0.00001-1.1142 0.0676-1.6492 0.20285-0.5351 0.13524-1.0495 0.33809-1.5434 0.60854v-1.4993c0.5938-0.2293 1.17-0.39981 1.7286-0.51153 0.5585-0.11758 1.1024-0.17638 1.6316-0.17639 1.4287 0.00001 2.4959 0.37043 3.2014 1.1112 0.7056 0.74084 1.0583 1.8638 1.0584 3.369m-2.9634-8.8106h1.7551l-2.8751 3.3161h-1.3494l2.4694-3.3161"/>
  <path id="path3235" style="" d="m1075.5 228.64c0-1.1759-0.244-2.0873-0.732-2.734-0.4822-0.64675-1.1613-0.97013-2.0373-0.97013-0.8702 0-1.5493 0.32338-2.0373 0.97013-0.4822 0.64677-0.7232 1.5581-0.7232 2.734 0 1.17 0.241 2.0784 0.7232 2.7252 0.488 0.64676 1.1671 0.97014 2.0373 0.97014 0.876 0 1.5551-0.32338 2.0373-0.97014 0.488-0.64675 0.732-1.5552 0.732-2.7252m1.6227 3.8276c0 1.6816-0.3733 2.931-1.12 3.7483-0.7467 0.82315-1.8903 1.2347-3.4308 1.2347-0.5703 0-1.1083-0.0441-1.6139-0.13229-0.5057-0.0823-0.9966-0.21167-1.4729-0.38805v-1.5787c0.4763 0.2587 0.9466 0.44979 1.4111 0.57326s0.9378 0.18521 1.42 0.18521c1.0642 0 1.8608-0.27929 2.39-0.83785 0.5292-0.55268 0.7938-1.3905 0.7938-2.5135v-0.80257c-0.3352 0.58209-0.7644 1.0172-1.2877 1.3053s-1.1494 0.43215-1.8785 0.43215c-1.2112 0-2.1872-0.46155-2.9281-1.3846-0.7408-0.9231-1.1112-2.1461-1.1112-3.6689 0-1.5287 0.3704-2.7546 1.1112-3.6777 0.7409-0.92309 1.7169-1.3846 2.9281-1.3846 0.7291 0.00001 1.3552 0.14406 1.8785 0.43215 0.5233 0.28812 0.9525 0.72321 1.2877 1.3053v-1.4993h1.6227v8.6519"/>
  <path id="path3237" style="" d="m1085 228.73c-1.3112 0.00001-2.2196 0.14994-2.7252 0.44979-0.5057 0.29987-0.7585 0.81139-0.7585 1.5346 0 0.57621 0.1882 1.0348 0.5645 1.3758 0.3821 0.33514 0.8995 0.50271 1.5522 0.5027 0.8996 0.00001 1.6198-0.31749 2.1607-0.95249 0.5468-0.64088 0.8202-1.4905 0.8203-2.5488v-0.3616h-1.614m3.2367-0.67027v5.6356h-1.6227v-1.4993c-0.3705 0.59972-0.832 1.0436-1.3847 1.3317-0.5527 0.28223-1.2288 0.42334-2.0285 0.42334-1.0113 0-1.8168-0.28223-2.4165-0.84667-0.5938-0.57032-0.8908-1.3317-0.8908-2.2842 0-1.1112 0.3705-1.9491 1.1113-2.5135 0.7467-0.56444 1.858-0.84666 3.3337-0.84667h2.2755v-0.15875c-0.0001-0.7467-0.247-1.3229-0.7409-1.7286-0.488-0.41156-1.1759-0.61735-2.0637-0.61736-0.5645 0.00001-1.1142 0.0676-1.6493 0.20285-0.535 0.13524-1.0495 0.33809-1.5434 0.60854v-1.4993c0.5939-0.2293 1.1701-0.39981 1.7287-0.51153 0.5585-0.11758 1.1024-0.17638 1.6315-0.17639 1.4288 0.00001 2.4959 0.37043 3.2015 1.1112 0.7055 0.74084 1.0583 1.8638 1.0583 3.369"/>
  <path id="path3239" style="" d="m1090.9 223.82h7.7081v1.4817l-6.103 7.0996h6.103v1.2964h-7.9286v-1.4817l6.103-7.0996h-5.8825v-1.2964"/>
  <path id="path3241" style="" d="m1105.6 228.73c-1.3111 0.00001-2.2195 0.14994-2.7252 0.44979-0.5056 0.29987-0.7585 0.81139-0.7585 1.5346 0 0.57621 0.1882 1.0348 0.5645 1.3758 0.3822 0.33514 0.8996 0.50271 1.5522 0.5027 0.8996 0.00001 1.6198-0.31749 2.1608-0.95249 0.5468-0.64088 0.8202-1.4905 0.8202-2.5488v-0.3616h-1.614m3.2367-0.67027v5.6356h-1.6227v-1.4993c-0.3705 0.59972-0.832 1.0436-1.3847 1.3317-0.5527 0.28223-1.2288 0.42334-2.0284 0.42334-1.0113 0-1.8169-0.28223-2.4166-0.84667-0.5938-0.57032-0.8907-1.3317-0.8907-2.2842 0-1.1112 0.3704-1.9491 1.1112-2.5135 0.7467-0.56444 1.858-0.84666 3.3338-0.84667h2.2754v-0.15875c0-0.7467-0.247-1.3229-0.7409-1.7286-0.488-0.41156-1.1759-0.61735-2.0637-0.61736-0.5645 0.00001-1.1142 0.0676-1.6492 0.20285-0.5351 0.13524-1.0496 0.33809-1.5434 0.60854v-1.4993c0.5938-0.2293 1.17-0.39981 1.7286-0.51153 0.5585-0.11758 1.1024-0.17638 1.6316-0.17639 1.4287 0.00001 2.4959 0.37043 3.2014 1.1112 0.7056 0.74084 1.0583 1.8638 1.0583 3.369m-2.9633-8.8106h1.7551l-2.8751 3.3161h-1.3494l2.4694-3.3161"/>
  <path id="path3243" style="" d="m1118.4 224.11v1.5346c-0.4586-0.23518-0.9349-0.41156-1.4287-0.52917-0.4939-0.11758-1.0055-0.17638-1.5346-0.17638-0.8055 0-1.4111 0.12348-1.8168 0.37041-0.3998 0.24695-0.5997 0.61737-0.5997 1.1112 0 0.3763 0.144 0.67322 0.4321 0.89076 0.2881 0.21168 0.8672 0.41452 1.7374 0.60854l0.5557 0.12348c1.1524 0.24695 1.9696 0.59678 2.4518 1.0495 0.488 0.44685 0.732 1.073 0.732 1.8785 0 0.91722-0.3646 1.6434-1.0936 2.1784-0.7232 0.53504-1.7198 0.80257-2.9898 0.80257-0.5292 0-1.0819-0.0529-1.6581-0.15875-0.5703-0.1-1.173-0.25283-1.808-0.45861v-1.6757c0.5998 0.31163 1.1907 0.54681 1.7727 0.70556 0.5821 0.15287 1.1583 0.22931 1.7287 0.2293 0.7643 0.00001 1.3523-0.12935 1.7638-0.38805 0.4116-0.26458 0.6174-0.635 0.6174-1.1112 0-0.44097-0.1499-0.77905-0.4498-1.0142-0.294-0.23519-0.9437-0.46155-1.9491-0.6791l-0.5644-0.13229c-1.0054-0.21166-1.7316-0.53504-2.1784-0.97014-0.4469-0.44097-0.6703-1.0436-0.6703-1.808 0-0.92898 0.3293-1.6463 0.9878-2.152 0.6585-0.50563 1.5933-0.75846 2.8046-0.75847 0.5997 0.00001 1.1641 0.0441 1.6933 0.13229 0.5291 0.0882 1.0172 0.2205 1.464 0.39688"/>
 </g>
</svg>
