<?xml version="1.0" encoding="UTF-8" standalone="no"?>
<!-- Created with Inkscape (http://www.inkscape.org/) -->
<svg id="svg2" xmlns:rdf="http://www.w3.org/1999/02/22-rdf-syntax-ns#" xmlns="http://www.w3.org/2000/svg" height="1523.6" width="585.31" version="1.1" xmlns:cc="http://creativecommons.org/ns#" xmlns:dc="http://purl.org/dc/elements/1.1/" viewBox="382 19 315.80143 842">
 <metadata id="metadata216">
  <rdf:RDF>
   <cc:Work rdf:about="">
    <dc:format>image/svg+xml</dc:format>
    <dc:type rdf:resource="http://purl.org/dc/dcmitype/StillImage"/>
   </cc:Work>
  </rdf:RDF>
 </metadata>
 <g id="g4" transform="translate(-4.3683)">
  <path id="rect6" fill="#fff" d="m400 180h160v60h-160z"/>
  <path id="rect8" d="m400 180h160v60h-160z" stroke="#000" stroke-width="2" fill="none"/>
  <g id="text10">
   <path id="path3089" style="" d="m449.48 207.17c-0.76142 0-1.3633 0.29839-1.8058 0.89517-0.44244 0.59164-0.66366 1.4045-0.66366 2.4386s0.21864 1.8495 0.65594 2.4463c0.44244 0.59164 1.0469 0.88746 1.8135 0.88746 0.75625 0 1.3556-0.29839 1.798-0.89517 0.44244-0.59678 0.66366-1.4096 0.66367-2.4386-0.00001-1.0238-0.22123-1.8341-0.66367-2.4309-0.44244-0.60191-1.0418-0.90288-1.798-0.90288m0-1.2038c1.2347 0 2.2045 0.40129 2.9093 1.2038 0.70481 0.80257 1.0572 1.9138 1.0572 3.3337-0.00001 1.4148-0.35242 2.526-1.0572 3.3337-0.70482 0.80257-1.6746 1.2038-2.9093 1.2038-1.2399 0-2.2122-0.40128-2.917-1.2038-0.69967-0.80771-1.0495-1.919-1.0495-3.3337 0-1.4199 0.34984-2.5312 1.0495-3.3337 0.70482-0.80256 1.6772-1.2038 2.917-1.2038"/>
   <path id="path3091" style="" d="m461.3 206.43v1.3428c-0.40129-0.20578-0.81801-0.36012-1.2502-0.46302-0.43215-0.10288-0.87974-0.15433-1.3428-0.15434-0.70482 0.00001-1.2347 0.10805-1.5897 0.32412-0.34984 0.21608-0.52476 0.54019-0.52476 0.97234 0 0.32926 0.12604 0.58907 0.37813 0.77941 0.25209 0.18522 0.75884 0.36271 1.5202 0.53248l0.48617 0.10803c1.0084 0.21608 1.7235 0.52219 2.1453 0.91833 0.427 0.39099 0.6405 0.9389 0.64051 1.6437-0.00001 0.80256-0.31898 1.4379-0.95691 1.9061-0.6328 0.46817-1.5048 0.70225-2.6161 0.70225-0.46302 0-0.94662-0.0463-1.4508-0.13891-0.49903-0.0875-1.0264-0.22122-1.582-0.40128v-1.4662c0.52476 0.27267 1.0418 0.47846 1.5511 0.61736 0.50932 0.13376 1.0135 0.20064 1.5125 0.20064 0.6688 0 1.1833-0.11318 1.5434-0.33955 0.36012-0.2315 0.54018-0.55562 0.54019-0.97234-0.00001-0.38584-0.1312-0.68166-0.39357-0.88745-0.25724-0.20578-0.82572-0.40385-1.7055-0.59421l-0.49388-0.11575c-0.87974-0.18521-1.5151-0.46816-1.9061-0.84887-0.391-0.38585-0.58649-0.91317-0.58649-1.582 0-0.81285 0.2881-1.4405 0.8643-1.8829 0.5762-0.44243 1.3942-0.66366 2.454-0.66366 0.52475 0 1.0186 0.0386 1.4817 0.11575 0.46301 0.0772 0.89002 0.19293 1.281 0.34727"/>
   <path id="path3093" style="" d="m463.42 206.18h6.7447v1.2965l-5.3402 6.2122h5.3402v1.1344h-6.9376v-1.2965l5.3402-6.2122h-5.1472v-1.1344"/>
   <path id="path3095" style="" d="m473.74 203.72v2.454h2.9247v1.1035h-2.9247v4.6919c0 0.70482 0.0952 1.1576 0.28553 1.3582 0.19549 0.20064 0.58906 0.30096 1.1807 0.30096h1.4585v1.1884h-1.4585c-1.0958 0-1.8521-0.20322-2.2688-0.60965-0.41672-0.41157-0.62508-1.1575-0.62508-2.2379v-4.6919h-1.0418v-1.1035h1.0418v-2.454h1.4276"/>
   <path id="path3097" style="" d="m481.89 207.17c-0.76141 0-1.3633 0.29839-1.8058 0.89517-0.44245 0.59164-0.66367 1.4045-0.66366 2.4386-0.00001 1.0341 0.21864 1.8495 0.65594 2.4463 0.44244 0.59164 1.0469 0.88746 1.8135 0.88746 0.75626 0 1.3556-0.29839 1.7981-0.89517 0.44244-0.59678 0.66366-1.4096 0.66366-2.4386 0-1.0238-0.22122-1.8341-0.66366-2.4309-0.44244-0.60191-1.0418-0.90288-1.7981-0.90288m0-1.2038c1.2347 0 2.2045 0.40129 2.9093 1.2038 0.70481 0.80257 1.0572 1.9138 1.0572 3.3337-0.00001 1.4148-0.35242 2.526-1.0572 3.3337-0.70483 0.80257-1.6746 1.2038-2.9093 1.2038-1.2399 0-2.2122-0.40128-2.917-1.2038-0.69967-0.80771-1.0495-1.919-1.0495-3.3337 0-1.4199 0.34984-2.5312 1.0495-3.3337 0.70482-0.80256 1.6772-1.2038 2.917-1.2038m1.0727-3.789h1.5357l-2.5157 2.9016h-1.1807l2.1608-2.9016"/>
   <path id="path3099" style="" d="m488.57 212.86h1.6283v1.9601h-1.6283v-1.9601m0-6.2122h1.6283v1.9601h-1.6283v-1.9601"/>
   <path id="path3101" style="" d="m493.73 207.65h9.8932v1.2965h-9.8932v-1.2965m0 3.1485h9.8932v1.3119h-9.8932v-1.3119"/>
   <path id="path3103" style="" d="m508.33 213.51h5.4405v1.3119h-7.3157v-1.3119c0.59163-0.61222 1.3968-1.4328 2.4154-2.4617 1.0238-1.0341 1.6669-1.7003 1.9292-1.9987 0.49902-0.56077 0.84629-1.0341 1.0418-1.4199 0.20063-0.39099 0.30096-0.77426 0.30096-1.1498 0-0.61221-0.21608-1.1112-0.64822-1.4971-0.42702-0.38584-0.98521-0.57876-1.6746-0.57877-0.48875 0.00001-1.0058 0.0849-1.5511 0.25466-0.54019 0.16978-1.119 0.42701-1.7363 0.7717v-1.5743c0.62765-0.25208 1.2141-0.44243 1.7595-0.57106 0.54533-0.1286 1.0444-0.19291 1.4971-0.19292 1.1936 0.00001 2.1453 0.2984 2.8553 0.89517 0.70995 0.59679 1.0649 1.3942 1.0649 2.3923-0.00001 0.47331-0.09 0.92347-0.27009 1.3505-0.17493 0.42187-0.49647 0.9209-0.96463 1.4971-0.12862 0.1492-0.53762 0.58135-1.227 1.2964-0.68939 0.70997-1.6617 1.7055-2.917 2.9865"/>
  </g>
 </g>
 <g id="g14" transform="translate(-4.3683)">
  <path id="polygon16" fill="#fff" d="m480 388.23-96.461-48.23 96.461-48.231 96.461 48.231z"/>
  <path id="polygon18" d="m480 388.23-96.461-48.23 96.461-48.231 96.461 48.231z" stroke="#000" stroke-width="2" fill="none"/>
  <g id="text20">
   <path id="path3108" style="" d="m442.47 326.56v1.3428c-0.40129-0.20578-0.81801-0.36012-1.2502-0.46302-0.43216-0.10288-0.87975-0.15433-1.3428-0.15434-0.70482 0.00001-1.2347 0.10805-1.5897 0.32412-0.34984 0.21608-0.52476 0.54019-0.52476 0.97234 0 0.32926 0.12605 0.58907 0.37814 0.77941 0.25208 0.18522 0.75883 0.36271 1.5202 0.53248l0.48617 0.10804c1.0084 0.21608 1.7235 0.52218 2.1453 0.91832 0.427 0.391 0.6405 0.9389 0.64051 1.6437-0.00001 0.80257-0.31898 1.4379-0.95691 1.9061-0.6328 0.46817-1.5048 0.70225-2.6161 0.70225-0.46302 0-0.94662-0.0463-1.4508-0.13891-0.49904-0.0875-1.0264-0.22122-1.582-0.40128v-1.4662c0.52476 0.27267 1.0418 0.47846 1.5511 0.61736 0.50932 0.13376 1.0135 0.20064 1.5125 0.20064 0.6688 0 1.1833-0.11318 1.5434-0.33954 0.36012-0.23151 0.54018-0.55563 0.54019-0.97235-0.00001-0.38584-0.1312-0.68166-0.39357-0.88745-0.25724-0.20578-0.82572-0.40385-1.7055-0.59421l-0.49388-0.11575c-0.87974-0.18521-1.5151-0.46816-1.9061-0.84887-0.391-0.38585-0.58649-0.91317-0.58649-1.582 0-0.81284 0.2881-1.4405 0.8643-1.8829 0.5762-0.44243 1.3942-0.66365 2.454-0.66366 0.52475 0.00001 1.0186 0.0386 1.4817 0.11575 0.46301 0.0772 0.89002 0.19294 1.281 0.34727"/>
   <path id="path3110" style="" d="m444.59 326.3h6.7447v1.2964l-5.3402 6.2122h5.3402v1.1344h-6.9376v-1.2965l5.3402-6.2122h-5.1472v-1.1344"/>
   <path id="path3112" style="" d="m457.43 330.6c-1.1473 0-1.9421 0.13119-2.3846 0.39357-0.44245 0.26238-0.66367 0.70996-0.66367 1.3428 0 0.50418 0.16463 0.90547 0.49389 1.2038 0.3344 0.29325 0.78713 0.43987 1.3582 0.43987 0.78713 0 1.4174-0.27781 1.8907-0.83343 0.47844-0.56077 0.71767-1.3042 0.71768-2.2302v-0.3164h-1.4122m2.8321-0.58649v4.9312h-1.4199v-1.3119c-0.32412 0.52475-0.72798 0.91318-1.2116 1.1653-0.48361 0.24695-1.0752 0.37042-1.7749 0.37042-0.88488 0-1.5897-0.24694-2.1145-0.74083-0.51961-0.49903-0.77941-1.1653-0.77941-1.9987 0-0.97234 0.32411-1.7054 0.97234-2.1994 0.65337-0.49388 1.6257-0.74082 2.917-0.74083h1.991v-0.1389c-0.00001-0.65337-0.21609-1.1575-0.64823-1.5125-0.42701-0.36012-1.0289-0.54018-1.8058-0.54019-0.49389 0.00001-0.97491 0.0592-1.4431 0.17749-0.46816 0.11833-0.91832 0.29582-1.3505 0.53247v-1.3119c0.51961-0.20063 1.0238-0.34983 1.5125-0.44758 0.48874-0.10289 0.96462-0.15433 1.4276-0.15434 1.2501 0.00001 2.1839 0.32412 2.8013 0.97234 0.61735 0.64823 0.92603 1.6309 0.92604 2.9479m-2.5929-7.7093h1.5357l-2.5157 2.9016h-1.1807l2.1608-2.9016"/>
   <path id="path3114" style="" d="m469.93 327.96c0.35497-0.63793 0.7794-1.1087 1.2733-1.4122 0.49388-0.30353 1.0752-0.45529 1.744-0.4553 0.90031 0.00001 1.5948 0.3164 2.0836 0.94919 0.48873 0.62765 0.7331 1.5228 0.73311 2.6855v5.2167h-1.4276v-5.1704c-0.00001-0.82828-0.14664-1.4431-0.43987-1.8444-0.29326-0.40127-0.74084-0.60192-1.3428-0.60192-0.73569 0-1.317 0.24437-1.744 0.73311-0.42701 0.48875-0.64051 1.155-0.64051 1.9987v4.8849h-1.4276v-5.1704c-0.00001-0.83343-0.14663-1.4482-0.43987-1.8444-0.29325-0.40127-0.74598-0.60192-1.3582-0.60192-0.7254 0-1.3016 0.24695-1.7286 0.74083-0.42701 0.48875-0.64052 1.1524-0.64052 1.991v4.8849h-1.4276v-8.643h1.4276v1.3428c0.32412-0.52989 0.71254-0.92088 1.1653-1.173 0.45273-0.25208 0.99034-0.37812 1.6128-0.37813 0.62764 0.00001 1.1601 0.15949 1.5974 0.47845 0.44243 0.31898 0.76912 0.782 0.98006 1.3891"/>
   <path id="path3116" style="" d="m481.13 323.42h1.3119l-4.0128 12.988h-1.3119l4.0128-12.988"/>
   <path id="path3118" style="" d="m487.29 327.3c-0.76141 0.00001-1.3633 0.2984-1.8058 0.89517-0.44244 0.59164-0.66366 1.4045-0.66366 2.4386s0.21865 1.8495 0.65595 2.4463c0.44243 0.59163 1.0469 0.88745 1.8135 0.88745 0.75626 0 1.3556-0.29839 1.7981-0.89517 0.44243-0.59678 0.66365-1.4096 0.66366-2.4386-0.00001-1.0238-0.22123-1.8341-0.66366-2.4308-0.44245-0.60192-1.0418-0.90288-1.7981-0.90289m0-1.2038c1.2347 0.00001 2.2045 0.40129 2.9093 1.2038 0.70481 0.80257 1.0572 1.9138 1.0572 3.3337-0.00001 1.4148-0.35241 2.526-1.0572 3.3337-0.70483 0.80257-1.6746 1.2038-2.9093 1.2038-1.2399 0-2.2122-0.40128-2.917-1.2038-0.69968-0.80771-1.0495-1.919-1.0495-3.3337-0.00001-1.4199 0.34983-2.5312 1.0495-3.3337 0.70481-0.80256 1.6772-1.2038 2.917-1.2038"/>
   <path id="path3120" style="" d="m499.11 326.56v1.3428c-0.40129-0.20578-0.81801-0.36012-1.2502-0.46302-0.43216-0.10288-0.87974-0.15433-1.3428-0.15434-0.70482 0.00001-1.2347 0.10805-1.5897 0.32412-0.34984 0.21608-0.52476 0.54019-0.52475 0.97234-0.00001 0.32926 0.12604 0.58907 0.37813 0.77941 0.25208 0.18522 0.75883 0.36271 1.5202 0.53248l0.48617 0.10804c1.0084 0.21608 1.7234 0.52218 2.1453 0.91832 0.427 0.391 0.6405 0.9389 0.64051 1.6437-0.00001 0.80257-0.31897 1.4379-0.95691 1.9061-0.63279 0.46817-1.5048 0.70225-2.6161 0.70225-0.46302 0-0.94662-0.0463-1.4508-0.13891-0.49903-0.0875-1.0264-0.22122-1.582-0.40128v-1.4662c0.52475 0.27267 1.0418 0.47846 1.5511 0.61736 0.50932 0.13376 1.0135 0.20064 1.5125 0.20064 0.6688 0 1.1833-0.11318 1.5434-0.33954 0.36012-0.23151 0.54018-0.55563 0.54019-0.97235-0.00001-0.38584-0.13119-0.68166-0.39357-0.88745-0.25724-0.20578-0.82572-0.40385-1.7054-0.59421l-0.49389-0.11575c-0.87974-0.18521-1.5151-0.46816-1.9061-0.84887-0.39099-0.38585-0.58649-0.91317-0.58649-1.582 0-0.81284 0.2881-1.4405 0.86431-1.8829 0.57619-0.44243 1.3942-0.66365 2.454-0.66366 0.52475 0.00001 1.0186 0.0386 1.4817 0.11575 0.46301 0.0772 0.89002 0.19294 1.281 0.34727"/>
   <path id="path3122" style="" d="m501.23 326.3h6.7446v1.2964l-5.3402 6.2122h5.3402v1.1344h-6.9376v-1.2965l5.3402-6.2122h-5.1472v-1.1344"/>
   <path id="path3124" style="" d="m511.55 323.85v2.454h2.9247v1.1035h-2.9247v4.6919c-0.00001 0.70482 0.0952 1.1576 0.28553 1.3582 0.19549 0.20064 0.58906 0.30096 1.1807 0.30096h1.4585v1.1884h-1.4585c-1.0958 0-1.8521-0.20322-2.2688-0.60965-0.41672-0.41157-0.62508-1.1575-0.62508-2.2379v-4.6919h-1.0418v-1.1035h1.0418v-2.454h1.4276"/>
   <path id="path3126" style="" d="m519.7 327.3c-0.76142 0.00001-1.3633 0.2984-1.8058 0.89517-0.44244 0.59164-0.66366 1.4045-0.66366 2.4386s0.21865 1.8495 0.65595 2.4463c0.44243 0.59163 1.0469 0.88745 1.8135 0.88745 0.75626 0 1.3556-0.29839 1.7981-0.89517 0.44243-0.59678 0.66365-1.4096 0.66366-2.4386-0.00001-1.0238-0.22123-1.8341-0.66366-2.4308-0.44245-0.60192-1.0418-0.90288-1.7981-0.90289m0-1.2038c1.2347 0.00001 2.2045 0.40129 2.9093 1.2038 0.70481 0.80257 1.0572 1.9138 1.0572 3.3337-0.00001 1.4148-0.35241 2.526-1.0572 3.3337-0.70483 0.80257-1.6746 1.2038-2.9093 1.2038-1.2399 0-2.2122-0.40128-2.917-1.2038-0.69968-0.80771-1.0495-1.919-1.0495-3.3337 0-1.4199 0.34984-2.5312 1.0495-3.3337 0.70481-0.80256 1.6772-1.2038 2.917-1.2038m1.0727-3.789h1.5357l-2.5157 2.9016h-1.1807l2.1608-2.9016"/>
   <path id="path3128" style="" d="m436.65 347.72c0.35497-0.63793 0.7794-1.1087 1.2733-1.4122 0.49388-0.30353 1.0752-0.45529 1.744-0.4553 0.9003 0.00001 1.5948 0.3164 2.0836 0.94919 0.48873 0.62765 0.7331 1.5228 0.73311 2.6855v5.2167h-1.4276v-5.1704c-0.00001-0.82828-0.14664-1.4431-0.43987-1.8444-0.29326-0.40127-0.74084-0.60192-1.3428-0.60192-0.73569 0-1.317 0.24438-1.744 0.73311-0.42701 0.48875-0.64052 1.155-0.64051 1.9987v4.8849h-1.4276v-5.1704c-0.00001-0.83343-0.14663-1.4482-0.43987-1.8444-0.29325-0.40127-0.74598-0.60192-1.3582-0.60192-0.7254 0-1.3016 0.24695-1.7286 0.74083-0.42701 0.48875-0.64051 1.1524-0.64051 1.991v4.8849h-1.4276v-8.643h1.4276v1.3428c0.32411-0.52989 0.71254-0.92088 1.1653-1.173 0.45273-0.25208 0.99034-0.37812 1.6128-0.37813 0.62764 0.00001 1.1601 0.15949 1.5974 0.47845 0.44243 0.31898 0.76912 0.782 0.98006 1.3891"/>
   <path id="path3130" style="" d="m449.25 350.36c-1.1473 0.00001-1.9421 0.1312-2.3846 0.39357-0.44244 0.26238-0.66366 0.70997-0.66366 1.3428 0 0.50417 0.16463 0.90546 0.49389 1.2038 0.3344 0.29324 0.78713 0.43987 1.3582 0.43986 0.78713 0.00001 1.4174-0.27781 1.8907-0.83343 0.47845-0.56077 0.71768-1.3042 0.71769-2.2302v-0.3164h-1.4122m2.8321-0.58649v4.9312h-1.4199v-1.3119c-0.32413 0.52476-0.72798 0.91318-1.2116 1.1653-0.48361 0.24694-1.0752 0.37041-1.7749 0.37041-0.88489 0-1.5897-0.24694-2.1145-0.74083-0.51961-0.49903-0.77941-1.1653-0.77941-1.9987 0-0.97234 0.32411-1.7054 0.97234-2.1993 0.65337-0.49389 1.6257-0.74083 2.917-0.74083h1.991v-0.13891c-0.00001-0.65337-0.21609-1.1575-0.64823-1.5125-0.42701-0.36012-1.0289-0.54018-1.8058-0.54019-0.49389 0.00001-0.97492 0.0592-1.4431 0.17749-0.46816 0.11833-0.91832 0.29583-1.3505 0.53247v-1.3119c0.51961-0.20063 1.0238-0.34982 1.5125-0.44758 0.48874-0.10289 0.96462-0.15433 1.4276-0.15434 1.2502 0.00001 2.1839 0.32412 2.8013 0.97234 0.61735 0.64823 0.92603 1.6309 0.92604 2.9479"/>
   <path id="path3132" style="" d="m460.03 347.39c-0.15949-0.0926-0.33441-0.15948-0.52476-0.20064-0.18521-0.0463-0.391-0.0695-0.61736-0.0695-0.80257 0-1.4199 0.26238-1.8521 0.78713-0.42701 0.51962-0.64051 1.2682-0.64051 2.2456v4.553h-1.4276v-8.643h1.4276v1.3428c0.29839-0.52474 0.68681-0.91317 1.1653-1.1653 0.47845-0.25723 1.0598-0.38584 1.744-0.38585 0.0977 0.00001 0.20578 0.008 0.32411 0.0231 0.11832 0.0103 0.24951 0.0283 0.39357 0.054l0.008 1.4585"/>
   <path id="path3134" style="" d="m465.46 350.36c-1.1473 0.00001-1.9421 0.1312-2.3846 0.39357-0.44244 0.26238-0.66367 0.70997-0.66366 1.3428-0.00001 0.50417 0.16462 0.90546 0.49388 1.2038 0.3344 0.29324 0.78713 0.43987 1.3582 0.43986 0.78712 0.00001 1.4173-0.27781 1.8907-0.83343 0.47845-0.56077 0.71767-1.3042 0.71768-2.2302v-0.3164h-1.4122m2.8321-0.58649v4.9312h-1.4199v-1.3119c-0.32412 0.52476-0.72798 0.91318-1.2116 1.1653-0.4836 0.24694-1.0752 0.37041-1.7749 0.37041-0.88488 0-1.5897-0.24694-2.1144-0.74083-0.51962-0.49903-0.77942-1.1653-0.77942-1.9987 0-0.97234 0.32411-1.7054 0.97234-2.1993 0.65337-0.49389 1.6257-0.74083 2.917-0.74083h1.991v-0.13891c-0.00001-0.65337-0.21608-1.1575-0.64823-1.5125-0.42701-0.36012-1.0289-0.54018-1.8058-0.54019-0.4939 0.00001-0.97492 0.0592-1.4431 0.17749-0.46817 0.11833-0.91833 0.29583-1.3505 0.53247v-1.3119c0.51961-0.20063 1.0238-0.34982 1.5125-0.44758 0.48874-0.10289 0.96462-0.15433 1.4276-0.15434 1.2502 0.00001 2.1839 0.32412 2.8013 0.97234 0.61735 0.64823 0.92603 1.6309 0.92604 2.9479"/>
   <path id="path3136" style="" d="m476.91 347.37v-4.6765h1.4199v12.008h-1.4199v-1.2965c-0.29839 0.51447-0.67652 0.89775-1.1344 1.1498-0.45274 0.24694-0.99807 0.37041-1.636 0.37041-1.0444 0-1.8958-0.41672-2.5543-1.2502-0.65337-0.83343-0.98006-1.9292-0.98006-3.2874s0.32669-2.454 0.98006-3.2874c0.65851-0.83343 1.51-1.2501 2.5543-1.2502 0.63794 0.00001 1.1833 0.12605 1.636 0.37813 0.45787 0.24695 0.836 0.62766 1.1344 1.1421m-4.8386 3.0173c0 1.0444 0.2135 1.8649 0.64051 2.4617 0.43215 0.59164 1.0238 0.88746 1.7749 0.88745 0.75111 0.00001 1.3428-0.29581 1.7749-0.88745 0.43214-0.59678 0.64822-1.4174 0.64822-2.4617 0-1.0444-0.21608-1.8624-0.64822-2.454-0.43216-0.59678-1.0238-0.89517-1.7749-0.89517-0.75113 0-1.3428 0.29839-1.7749 0.89517-0.42701 0.59164-0.64051 1.4096-0.64051 2.454"/>
   <path id="path3138" style="" d="m488.65 350.02v0.69453h-6.5286c0.0617 0.97749 0.35498 1.7235 0.87973 2.2379 0.5299 0.50932 1.2656 0.76398 2.2071 0.76398 0.54533 0 1.0727-0.0669 1.582-0.20064 0.51446-0.13376 1.0238-0.3344 1.528-0.60193v1.3428c-0.50933 0.21608-1.0315 0.38071-1.5666 0.49389-0.53505 0.11318-1.0778 0.16977-1.6283 0.16977-1.3788 0-2.472-0.40128-3.2797-1.2038-0.80257-0.80256-1.2039-1.8881-1.2039-3.2566 0-1.4148 0.38071-2.5363 1.1421-3.3646 0.76655-0.83343 1.7981-1.2501 3.0945-1.2502 1.1627 0.00001 2.081 0.37557 2.755 1.1267 0.67909 0.74598 1.0186 1.762 1.0186 3.0482m-1.4199-0.41672c-0.0103-0.77683-0.22895-1.3968-0.65595-1.8598-0.42187-0.46301-0.98263-0.69452-1.6823-0.69453-0.79228 0.00001-1.4276 0.2238-1.9061 0.67138-0.47331 0.44759-0.74598 1.0778-0.818 1.8907l5.0624-0.008m-1.3659-7.5472h1.5357l-2.5157 2.9016h-1.1807l2.1608-2.9016"/>
   <path id="path3140" style="" d="m490.93 342.69h1.4276v7.0919l4.2366-3.7273h1.8135l-4.5839 4.0437 4.7768 4.5993h-1.8521l-4.391-4.2212v4.2212h-1.4276v-12.008"/>
   <path id="path3142" style="" d="m503.8 350.36c-1.1473 0.00001-1.9421 0.1312-2.3846 0.39357-0.44244 0.26238-0.66366 0.70997-0.66366 1.3428 0 0.50417 0.16463 0.90546 0.49389 1.2038 0.3344 0.29324 0.78713 0.43987 1.3582 0.43986 0.78713 0.00001 1.4174-0.27781 1.8907-0.83343 0.47845-0.56077 0.71767-1.3042 0.71768-2.2302v-0.3164h-1.4122m2.8321-0.58649v4.9312h-1.4199v-1.3119c-0.32412 0.52476-0.72797 0.91318-1.2116 1.1653-0.4836 0.24694-1.0752 0.37041-1.7749 0.37041-0.88489 0-1.5897-0.24694-2.1145-0.74083-0.51961-0.49903-0.77942-1.1653-0.77942-1.9987 0-0.97234 0.32412-1.7054 0.97234-2.1993 0.65337-0.49389 1.6257-0.74083 2.917-0.74083h1.991v-0.13891c-0.00001-0.65337-0.21608-1.1575-0.64823-1.5125-0.42701-0.36012-1.0289-0.54018-1.8058-0.54019-0.49389 0.00001-0.97492 0.0592-1.4431 0.17749-0.46817 0.11833-0.91832 0.29583-1.3505 0.53247v-1.3119c0.5196-0.20063 1.0238-0.34982 1.5125-0.44758 0.48874-0.10289 0.96462-0.15433 1.4276-0.15434 1.2502 0.00001 2.1839 0.32412 2.8013 0.97234 0.61735 0.64823 0.92603 1.6309 0.92604 2.9479"/>
   <path id="path3144" style="" d="m518.13 344.21c-0.80257 0.00001-1.4071 0.39615-1.8135 1.1884-0.40129 0.78714-0.60193 1.973-0.60193 3.5575 0 1.5794 0.20064 2.7653 0.60193 3.5575 0.40642 0.78714 1.0109 1.1807 1.8135 1.1807 0.80771 0 1.4122-0.39356 1.8135-1.1807 0.40642-0.79227 0.60964-1.9781 0.60964-3.5575 0-1.5846-0.20322-2.7704-0.60964-3.5575-0.40129-0.79227-1.0058-1.1884-1.8135-1.1884m0-1.2347c1.2913 0.00001 2.2765 0.51191 2.9556 1.5357 0.68423 1.0186 1.0264 2.5003 1.0264 4.445-0.00001 1.9395-0.34213 3.4212-1.0264 4.445-0.67911 1.0186-1.6643 1.528-2.9556 1.528s-2.2791-0.50932-2.9633-1.528c-0.67909-1.0238-1.0186-2.5054-1.0186-4.445 0-1.9447 0.33955-3.4263 1.0186-4.445 0.68424-1.0238 1.672-1.5357 2.9633-1.5357"/>
   <path id="path3146" style="" d="m526.19 352.74h1.5666v1.9601h-1.5666v-1.9601m1.5202-1.1344h-1.474v-1.1884c0-0.51961 0.072-0.94661 0.21608-1.281 0.14404-0.3344 0.44758-0.72282 0.9106-1.1653l0.69453-0.68681c0.29324-0.27266 0.50417-0.52989 0.63279-0.7717 0.13376-0.24179 0.20064-0.48873 0.20065-0.74083-0.00001-0.45787-0.16978-0.82828-0.50933-1.1112-0.3344-0.28294-0.77942-0.42442-1.335-0.42443-0.40644 0.00001-0.84116 0.09-1.3042 0.27009-0.45787 0.18007-0.93633 0.44245-1.4354 0.78714v-1.4508c0.4836-0.29323 0.97234-0.51188 1.4662-0.65594 0.49903-0.14404 1.0135-0.21607 1.5434-0.21608 0.94661 0.00001 1.7054 0.24953 2.2765 0.74855 0.5762 0.49904 0.8643 1.1576 0.86431 1.9756-0.00001 0.391-0.0926 0.76399-0.27782 1.119-0.18521 0.34985-0.50932 0.74599-0.97234 1.1884l-0.67909 0.66366c-0.24181 0.24181-0.41415 0.43216-0.51704 0.57106-0.0978 0.13376-0.16721 0.26495-0.20836 0.39356-0.0309 0.10805-0.054 0.23924-0.0694 0.39357-0.0154 0.15435-0.0232 0.36528-0.0232 0.63279v0.94919"/>
  </g>
 </g>
 <g id="g26" stroke="#000" stroke-width="2" fill="none" transform="translate(-4.3683)">
  <path id="polyline28" d="m576.46 340h23.538v34.544"/>
  <path id="polyline30" d="m595 366.78 5 10 5-10"/>
 </g>
 <g id="g32" stroke="#000" stroke-width="2" fill="none" transform="translate(-4.3683)">
  <path id="line34" d="m480 274v12.3"/>
  <path id="polyline36" d="m475 278.54 5 10 5-10"/>
 </g>
 <g id="g38" stroke="#000" stroke-width="2" fill="none" transform="translate(-4.3683)">
  <path id="line40" d="m480 160v15.528"/>
  <path id="polyline42" d="m475 167.76 5 10 5-10"/>
 </g>
 <g id="g44" transform="translate(-4.3683)">
  <path id="path46" d="m426.67 20h106.67c14.72 0 26.66 13.431 26.66 30s-11.94 30-26.67 30h-106.66c-14.73 0-26.67-13.431-26.67-30 0-16.568 11.94-30 26.67-30z" fill="#fff"/>
  <path id="path48" d="m426.67 20h106.67c14.72 0 26.66 13.431 26.66 30s-11.94 30-26.67 30h-106.66c-14.73 0-26.67-13.431-26.67-30 0-16.568 11.94-30 26.67-30" stroke="#000" stroke-width="2" fill="none"/>
  <g id="text50">
   <path id="path3155" style="" d="m464.07 43.796v1.5202c-0.59165-0.28295-1.1498-0.49388-1.6746-0.63279-0.52476-0.1389-1.0315-0.20835-1.5202-0.20836-0.84887 0.000011-1.5048 0.16464-1.9678 0.49389-0.45788 0.32927-0.68682 0.79743-0.68681 1.4045-0.00001 0.50933 0.15176 0.89518 0.4553 1.1575 0.30868 0.25724 0.89002 0.4656 1.744 0.62508l0.94147 0.19292c1.1627 0.22123 2.0193 0.61222 2.5698 1.173 0.55562 0.55563 0.83343 1.3016 0.83344 2.2379-0.00001 1.1164-0.37557 1.9627-1.1267 2.5389-0.74599 0.5762-1.8418 0.8643-3.2874 0.8643-0.54534 0-1.1267-0.06174-1.744-0.18521-0.61222-0.12347-1.2476-0.30611-1.9061-0.54791v-1.6051c0.63279 0.35498 1.2527 0.62251 1.8598 0.80257 0.60706 0.18006 1.2038 0.2701 1.7903 0.2701 0.89002 0.000001 1.5768-0.17492 2.0604-0.52476s0.72539-0.84887 0.7254-1.4971c-0.00001-0.56591-0.17492-1.0084-0.52475-1.3273-0.3447-0.31896-0.91319-0.55819-1.7055-0.71768l-0.94919-0.18521c-1.1627-0.2315-2.0038-0.5942-2.5235-1.0881-0.51961-0.49388-0.77941-1.1807-0.77941-2.0604 0-1.0186 0.35755-1.8212 1.0727-2.4077 0.72025-0.58648 1.7106-0.87973 2.971-0.87974 0.54019 0.000011 1.0907 0.04889 1.6514 0.14662 0.56076 0.09776 1.1344 0.24438 1.7209 0.43987"/>
   <path id="path3157" style="" d="m465.6 43.417h9.7466v1.3119h-4.09v10.21h-1.5666v-10.21h-4.09v-1.3119"/>
   <path id="path3159" style="" d="m479.48 44.953-2.1144 5.7337h4.2366l-2.1222-5.7337m-0.87974-1.5357h1.7672l4.391 11.521h-1.6206l-1.0495-2.9556h-5.1935l-1.0495 2.9556h-1.6437l4.3987-11.521"/>
   <path id="path3161" style="" d="m491.9 49.537c0.3344 0.11319 0.65851 0.35499 0.97234 0.7254 0.31896 0.37042 0.63793 0.87974 0.95691 1.528l1.582 3.1485h-1.6746l-1.474-2.9556c-0.38071-0.7717-0.75113-1.2836-1.1112-1.5357-0.35498-0.25208-0.84115-0.37813-1.4585-0.37813h-1.6977v4.8694h-1.5588v-11.521h3.519c1.317 0.000012 2.2997 0.27525 2.9479 0.82572 0.64822 0.55049 0.97233 1.3814 0.97234 2.4926-0.00001 0.7254-0.16978 1.3273-0.50932 1.8058-0.33441 0.47846-0.82315 0.81029-1.4662 0.99549m-3.9048-4.8386v4.09h1.9601c0.75111 0.000006 1.317-0.17234 1.6977-0.51704 0.38584-0.34983 0.57877-0.86172 0.57877-1.5357 0-0.67394-0.19293-1.1807-0.57877-1.5202-0.38071-0.34468-0.94663-0.51703-1.6977-0.51704h-1.9601"/>
   <path id="path3163" style="" d="m494.68 43.417h9.7466v1.3119h-4.09v10.21h-1.5666v-10.21h-4.09v-1.3119"/>
  </g>
 </g>
 <g id="g54" stroke="#000" stroke-width="2" fill="none" transform="translate(-4.3683)">
  <path id="line56" d="m480 80v15.528"/>
  <path id="polyline58" d="m475 87.764 5 10 5-10"/>
 </g>
 <g id="g60" transform="translate(-4.3683)">
  <path id="ellipse62" d="m484 270c0 2.2091-1.7909 4-4 4s-4-1.7909-4-4 1.7909-4 4-4 4 1.7909 4 4z"/>
  <path id="ellipse64" d="m484 270c0 2.2091-1.7909 4-4 4s-4-1.7909-4-4 1.7909-4 4-4 4 1.7909 4 4z" stroke="#000" stroke-width="2" fill="none"/>
 </g>
 <g id="g66" stroke="#000" stroke-width="2" fill="none" transform="translate(-4.3683)">
  <path id="line68" d="m480 240.98v20.548"/>
  <path id="polyline70" d="m475 253.76 5 10 5-10"/>
 </g>
 <g id="g72" transform="translate(-4.3683)">
  <path id="polygon74" fill="#fff" d="m538.16 780h-138.16l21.84-60h138.16z"/>
  <path id="polygon76" d="m538.16 780h-138.16l21.84-60h138.16z" stroke="#000" stroke-width="2" fill="none"/>
  <g id="text78">
   <path id="path3174" style="" d="m461.15 743.3h1.5588v4.8694l5.1704-4.8694h2.0064l-5.7183 5.371 6.1273 6.1504h-2.0527l-5.5331-5.5485v5.5485h-1.5588v-11.521"/>
   <path id="path3176" style="" d="m471.52 743.3h1.5588v11.521h-1.5588v-11.521"/>
   <path id="path3178" style="" d="m476.48 752.86h1.6283v1.9601h-1.6283v-1.9601m0-6.2122h1.6283v1.9601h-1.6283v-1.9601"/>
   <path id="path3180" style="" d="m486.96 753.51h2.5466v-8.7896l-2.7704 0.55562v-1.4199l2.755-0.55563h1.5588v10.21h2.5466v1.3119h-6.6366v-1.3119"/>
   <path id="path3182" style="" d="m498.38 742.74v15.804h-1.3119v-15.804h1.3119"/>
  </g>
 </g>
 <g id="g82" stroke="#000" stroke-width="2" fill="none" transform="translate(-4.3683)">
  <path id="line84" d="m480 700v14.546"/>
  <path id="polyline86" d="m475 706.78 5 10 5-10"/>
 </g>
 <g id="g88" transform="translate(-4.3683)">
  <path id="path90" d="m426.67 800h106.67c14.728 0 26.667 13.431 26.667 30s-11.939 30-26.667 30h-106.67c-14.73 0-26.67-13.43-26.67-30 0-16.569 11.939-30 26.667-30z" fill="#fff"/>
  <path id="path92" d="m426.67 800h106.67c14.728 0 26.667 13.431 26.667 30s-11.939 30-26.667 30h-106.67c-14.73 0-26.67-13.43-26.67-30 0-16.569 11.939-30 26.667-30" stroke="#000" stroke-width="2" fill="none"/>
  <g id="text94">
   <path id="path3187" style="" d="m467.62 823.8v1.5202c-0.59164-0.28295-1.1498-0.49388-1.6746-0.6328-0.52476-0.13889-1.0315-0.20835-1.5202-0.20836-0.84887 0.00001-1.5048 0.16464-1.9678 0.49389-0.45788 0.32927-0.68682 0.79743-0.68682 1.4045 0 0.50933 0.15177 0.89518 0.45531 1.1576 0.30867 0.25724 0.89002 0.4656 1.744 0.62508l0.94147 0.19292c1.1627 0.22123 2.0193 0.61223 2.5698 1.173 0.55561 0.55563 0.83342 1.3016 0.83343 2.2379-0.00001 1.1164-0.37557 1.9627-1.1267 2.5389-0.74598 0.5762-1.8418 0.8643-3.2874 0.8643-0.54533 0-1.1267-0.0617-1.744-0.18521-0.61221-0.12347-1.2476-0.30611-1.9061-0.54791v-1.6051c0.63279 0.35498 1.2527 0.62251 1.8598 0.80257 0.60707 0.18006 1.2038 0.27009 1.7903 0.27009 0.89002 0 1.5768-0.17492 2.0604-0.52475 0.48359-0.34984 0.72539-0.84887 0.7254-1.4971-0.00001-0.56591-0.17493-1.0084-0.52476-1.3273-0.3447-0.31897-0.91318-0.55819-1.7054-0.71768l-0.94919-0.18521c-1.1627-0.23151-2.0038-0.5942-2.5235-1.0881-0.51961-0.49388-0.77942-1.1807-0.77942-2.0604 0-1.0186 0.35756-1.8212 1.0727-2.4077 0.72025-0.58648 1.7106-0.87972 2.971-0.87973 0.54018 0.00001 1.0907 0.0489 1.6514 0.14662 0.56077 0.0978 1.1344 0.24438 1.7209 0.43987"/>
   <path id="path3189" style="" d="m469.15 823.42h9.7466v1.3119h-4.09v10.21h-1.5666v-10.21h-4.09v-1.3119"/>
   <path id="path3191" style="" d="m485.09 824.47c-1.1318 0.00001-2.0322 0.42188-2.701 1.2656-0.66366 0.84373-0.99549 1.9936-0.99549 3.4495 0 1.4508 0.33183 2.598 0.99549 3.4418 0.6688 0.84372 1.5691 1.2656 2.701 1.2656 1.1318 0 2.027-0.42186 2.6855-1.2656 0.66365-0.84373 0.99548-1.991 0.99549-3.4418-0.00001-1.4559-0.33184-2.6058-0.99549-3.4495-0.65852-0.84371-1.5537-1.2656-2.6855-1.2656m0-1.2656c1.6154 0.00001 2.9067 0.54277 3.8739 1.6283 0.96718 1.0804 1.4508 2.5312 1.4508 4.3524-0.00001 1.8161-0.48361 3.2669-1.4508 4.3524-0.96721 1.0804-2.2585 1.6206-3.8739 1.6206-1.6206 0-2.917-0.54019-3.8894-1.6206-0.96719-1.0804-1.4508-2.5312-1.4508-4.3524s0.4836-3.272 1.4508-4.3524c0.97234-1.0855 2.2688-1.6283 3.8894-1.6283"/>
   <path id="path3193" style="" d="m494.41 824.7v4.3292h1.9601c0.72539 0.00001 1.2862-0.18777 1.6823-0.56334 0.39613-0.37555 0.5942-0.9106 0.5942-1.6051 0-0.68937-0.19807-1.2218-0.5942-1.5974-0.39615-0.37555-0.95692-0.56333-1.6823-0.56334h-1.9601m-1.5588-1.281h3.519c1.2913 0.00001 2.2662 0.29325 2.9247 0.87973 0.66365 0.58136 0.99548 1.4354 0.99549 2.562-0.00001 1.137-0.33184 1.9961-0.99549 2.5775-0.65852 0.58135-1.6334 0.87203-2.9247 0.87202h-1.9601v4.6302h-1.5588v-11.521"/>
  </g>
 </g>
 <g id="g98" stroke="#000" stroke-width="2" fill="none" transform="translate(-4.3683)">
  <path id="line100" d="m480 780.98v13.574"/>
  <path id="polyline102" d="m475 786.79 5 10 5-10"/>
 </g>
 <g id="text104">
  <path id="path3198" style="" d="m577.12 321.36h1.4199v8.643h-1.4199v-8.643m0-3.3646h1.4199v1.7981h-1.4199v-1.7981"/>
  <path id="path3200" style="" d="m587.19 325.58c-0.00001-1.0289-0.21351-1.8264-0.64051-2.3923-0.42187-0.56591-1.0161-0.84887-1.7826-0.84887-0.76141 0-1.3556 0.28296-1.7826 0.84887-0.42187 0.56591-0.6328 1.3633-0.6328 2.3923 0 1.0238 0.21093 1.8186 0.6328 2.3846 0.427 0.56592 1.0212 0.84887 1.7826 0.84887 0.76655 0 1.3608-0.28295 1.7826-0.84887 0.427-0.56591 0.6405-1.3608 0.64051-2.3846m1.4199 3.3492c-0.00001 1.4714-0.3267 2.5646-0.98006 3.2797-0.65338 0.72025-1.654 1.0804-3.0019 1.0804-0.49904 0-0.96978-0.0386-1.4122-0.11576-0.44245-0.072-0.87203-0.18521-1.2887-0.33954v-1.3814c0.41671 0.22637 0.82829 0.39357 1.2347 0.50161 0.40642 0.10803 0.82057 0.16205 1.2424 0.16206 0.93118-0.00001 1.6283-0.24438 2.0913-0.73312 0.46301-0.4836 0.69452-1.2167 0.69453-2.1993v-0.70225c-0.29325 0.50933-0.66881 0.89003-1.1267 1.1421-0.45788 0.25209-1.0058 0.37813-1.6437 0.37813-1.0598 0-1.9138-0.40386-2.562-1.2116-0.64823-0.80771-0.97235-1.8778-0.97234-3.2103-0.00001-1.3376 0.32411-2.4103 0.97234-3.218 0.64822-0.80771 1.5022-1.2116 2.562-1.2116 0.63793 0.00001 1.1858 0.12605 1.6437 0.37813 0.45787 0.2521 0.83343 0.6328 1.1267 1.1421v-1.3119h1.4199v7.5704"/>
  <path id="path3202" style="" d="m598.93 325.32v0.69453h-6.5286c0.0617 0.97749 0.35498 1.7235 0.87974 2.2379 0.52989 0.50932 1.2656 0.76398 2.2071 0.76398 0.54532 0 1.0726-0.0669 1.582-0.20064 0.51446-0.13376 1.0238-0.3344 1.528-0.60193v1.3428c-0.50933 0.21608-1.0315 0.38071-1.5666 0.49389-0.53505 0.11318-1.0778 0.16977-1.6283 0.16977-1.3788 0-2.472-0.40128-3.2797-1.2038-0.80257-0.80256-1.2038-1.8881-1.2038-3.2566 0-1.4148 0.3807-2.5363 1.1421-3.3646 0.76655-0.83342 1.7981-1.2501 3.0945-1.2502 1.1627 0.00001 2.081 0.37557 2.755 1.1267 0.67909 0.74598 1.0186 1.762 1.0186 3.0482m-1.4199-0.41671c-0.0103-0.77684-0.22895-1.3968-0.65595-1.8598-0.42187-0.46301-0.98263-0.69452-1.6823-0.69453-0.79228 0.00001-1.4276 0.2238-1.9061 0.67138-0.47331 0.44759-0.74598 1.0778-0.818 1.8907l5.0624-0.008"/>
  <path id="path3204" style="" d="m608.44 324.78v5.2167h-1.4199v-5.1704c-0.00001-0.818-0.15949-1.4302-0.47845-1.8366-0.31898-0.40642-0.79743-0.60963-1.4354-0.60964-0.76655 0.00001-1.371 0.24438-1.8135 0.73311-0.44244 0.48875-0.66366 1.155-0.66366 1.9987v4.8849h-1.4276v-8.643h1.4276v1.3428c0.33954-0.51961 0.73826-0.90803 1.1961-1.1653 0.46302-0.25723 0.99549-0.38584 1.5974-0.38585 0.99291 0.00001 1.744 0.30869 2.2534 0.92604 0.50932 0.61222 0.76398 1.5151 0.76399 2.7087"/>
 </g>
 <g id="text108">
  <path id="path3207" style="" d="m439.15 394.78v5.2167h-1.4199v-5.1704c-0.00001-0.818-0.15949-1.4302-0.47845-1.8366-0.31898-0.40642-0.79743-0.60963-1.4354-0.60964-0.76656 0.00001-1.3711 0.24438-1.8135 0.73311-0.44244 0.48875-0.66366 1.155-0.66366 1.9987v4.8849h-1.4276v-8.643h1.4276v1.3428c0.33955-0.51961 0.73826-0.90803 1.1961-1.1653 0.46302-0.25723 0.99549-0.38584 1.5974-0.38585 0.99291 0.00001 1.744 0.30869 2.2534 0.92604 0.50932 0.61222 0.76398 1.5151 0.76399 2.7087"/>
  <path id="path3209" style="" d="m449.39 395.32v0.69453h-6.5286c0.0617 0.97749 0.35498 1.7235 0.87974 2.2379 0.52989 0.50932 1.2656 0.76398 2.2071 0.76398 0.54532 0 1.0726-0.0669 1.582-0.20064 0.51446-0.13376 1.0238-0.3344 1.528-0.60193v1.3428c-0.50933 0.21608-1.0315 0.38071-1.5666 0.49389-0.53505 0.11318-1.0778 0.16977-1.6283 0.16977-1.3788 0-2.472-0.40128-3.2797-1.2038-0.80257-0.80256-1.2038-1.8881-1.2038-3.2566 0-1.4148 0.3807-2.5363 1.1421-3.3646 0.76655-0.83342 1.7981-1.2501 3.0945-1.2502 1.1627 0.00001 2.081 0.37557 2.755 1.1267 0.67909 0.74598 1.0186 1.762 1.0186 3.0482m-1.4199-0.41671c-0.0103-0.77684-0.22895-1.3968-0.65595-1.8598-0.42186-0.46301-0.98263-0.69452-1.6823-0.69453-0.79228 0.00001-1.4276 0.2238-1.9061 0.67138-0.47331 0.44759-0.74598 1.0778-0.818 1.8907l5.0624-0.008"/>
  <path id="path3211" style="" d="m458.45 393.02c0.35498-0.63793 0.77941-1.1087 1.2733-1.4122 0.49388-0.30352 1.0752-0.45529 1.744-0.4553 0.9003 0.00001 1.5948 0.3164 2.0836 0.94919 0.48873 0.62766 0.7331 1.5228 0.73311 2.6855v5.2167h-1.4276v-5.1704c-0.00002-0.82829-0.14664-1.4431-0.43987-1.8444-0.29326-0.40127-0.74084-0.60191-1.3428-0.60192-0.7357 0.00001-1.317 0.24438-1.744 0.73311-0.42701 0.48875-0.64052 1.155-0.64051 1.9987v4.8849h-1.4276v-5.1704c-0.00001-0.83343-0.14663-1.4482-0.43987-1.8444-0.29325-0.40127-0.74598-0.60191-1.3582-0.60192-0.7254 0.00001-1.3016 0.24695-1.7286 0.74083-0.42701 0.48875-0.64051 1.1524-0.64051 1.991v4.8849h-1.4276v-8.643h1.4276v1.3428c0.32411-0.5299 0.71253-0.92089 1.1653-1.173 0.45272-0.25208 0.99034-0.37812 1.6128-0.37813 0.62764 0.00001 1.1601 0.15949 1.5974 0.47845 0.44243 0.31898 0.76912 0.782 0.98005 1.3891"/>
 </g>
 <g id="text112">
  <path id="path3214" style="" d="m487.12 701.36h1.4199v8.643h-1.4199v-8.643m0-3.3646h1.4199v1.7981h-1.4199v-1.7981"/>
  <path id="path3216" style="" d="m497.19 705.58c-0.00001-1.0289-0.21351-1.8264-0.64051-2.3923-0.42187-0.56591-1.0161-0.84887-1.7826-0.84887-0.76141 0-1.3556 0.28296-1.7826 0.84887-0.42187 0.56591-0.6328 1.3633-0.6328 2.3923 0 1.0238 0.21093 1.8186 0.6328 2.3846 0.427 0.56592 1.0212 0.84887 1.7826 0.84887 0.76655 0 1.3608-0.28295 1.7826-0.84887 0.427-0.56591 0.6405-1.3608 0.64051-2.3846m1.4199 3.3492c-0.00001 1.4714-0.3267 2.5646-0.98006 3.2797-0.65338 0.72025-1.654 1.0804-3.0019 1.0804-0.49904 0-0.96978-0.0386-1.4122-0.11576-0.44245-0.072-0.87203-0.18521-1.2887-0.33954v-1.3814c0.41671 0.22637 0.82829 0.39357 1.2347 0.50161 0.40642 0.10803 0.82057 0.16205 1.2424 0.16206 0.93118-0.00001 1.6283-0.24438 2.0913-0.73312 0.46301-0.4836 0.69452-1.2167 0.69453-2.1993v-0.70225c-0.29325 0.50933-0.66881 0.89003-1.1267 1.1421-0.45788 0.25209-1.0058 0.37813-1.6437 0.37813-1.0598 0-1.9138-0.40386-2.562-1.2116-0.64823-0.80771-0.97235-1.8778-0.97234-3.2103-0.00001-1.3376 0.32411-2.4103 0.97234-3.218 0.64822-0.80771 1.5022-1.2116 2.562-1.2116 0.63793 0.00001 1.1858 0.12605 1.6437 0.37813 0.45787 0.2521 0.83343 0.6328 1.1267 1.1421v-1.3119h1.4199v7.5704"/>
  <path id="path3218" style="" d="m508.93 705.32v0.69453h-6.5286c0.0617 0.97749 0.35498 1.7235 0.87974 2.2379 0.52989 0.50932 1.2656 0.76398 2.2071 0.76398 0.54532 0 1.0726-0.0669 1.582-0.20064 0.51446-0.13376 1.0238-0.3344 1.528-0.60193v1.3428c-0.50933 0.21608-1.0315 0.38071-1.5666 0.49389-0.53505 0.11318-1.0778 0.16977-1.6283 0.16977-1.3788 0-2.472-0.40128-3.2797-1.2038-0.80257-0.80256-1.2038-1.8881-1.2038-3.2566 0-1.4148 0.3807-2.5363 1.1421-3.3646 0.76655-0.83342 1.7981-1.2501 3.0945-1.2502 1.1627 0.00001 2.081 0.37557 2.755 1.1267 0.67909 0.74598 1.0186 1.762 1.0186 3.0482m-1.4199-0.41671c-0.0103-0.77684-0.22895-1.3968-0.65595-1.8598-0.42187-0.46301-0.98263-0.69452-1.6823-0.69453-0.79228 0.00001-1.4276 0.2238-1.9061 0.67138-0.47331 0.44759-0.74598 1.0778-0.818 1.8907l5.0624-0.008"/>
  <path id="path3220" style="" d="m518.44 704.78v5.2167h-1.4199v-5.1704c-0.00001-0.818-0.15949-1.4302-0.47845-1.8366-0.31898-0.40642-0.79743-0.60963-1.4354-0.60964-0.76655 0.00001-1.371 0.24438-1.8135 0.73311-0.44244 0.48875-0.66366 1.155-0.66366 1.9987v4.8849h-1.4276v-8.643h1.4276v1.3428c0.33954-0.51961 0.73826-0.90803 1.1961-1.1653 0.46302-0.25723 0.99549-0.38584 1.5974-0.38585 0.99291 0.00001 1.744 0.30869 2.2534 0.92604 0.50932 0.61222 0.76398 1.5151 0.76399 2.7087"/>
 </g>
 <g id="text116">
  <path id="path3223" style="" d="m574.31 644.78v5.2167h-1.4199v-5.1704c-0.00001-0.818-0.15949-1.4302-0.47846-1.8366-0.31897-0.40642-0.79743-0.60963-1.4354-0.60964-0.76656 0.00001-1.371 0.24438-1.8135 0.73311-0.44244 0.48875-0.66366 1.155-0.66366 1.9987v4.8849h-1.4276v-8.643h1.4276v1.3428c0.33954-0.51961 0.73825-0.90803 1.1961-1.1653 0.46302-0.25723 0.99549-0.38584 1.5974-0.38585 0.99291 0.00001 1.744 0.30869 2.2534 0.92604 0.50931 0.61222 0.76397 1.5151 0.76398 2.7087"/>
  <path id="path3225" style="" d="m584.55 645.32v0.69453h-6.5286c0.0617 0.97749 0.35498 1.7235 0.87973 2.2379 0.5299 0.50932 1.2656 0.76398 2.2071 0.76398 0.54533 0 1.0727-0.0669 1.582-0.20064 0.51446-0.13376 1.0238-0.3344 1.528-0.60193v1.3428c-0.50933 0.21608-1.0315 0.38071-1.5666 0.49389-0.53505 0.11318-1.0778 0.16977-1.6283 0.16977-1.3788 0-2.472-0.40128-3.2797-1.2038-0.80257-0.80256-1.2039-1.8881-1.2039-3.2566 0-1.4148 0.38071-2.5363 1.1421-3.3646 0.76655-0.83342 1.798-1.2501 3.0945-1.2502 1.1627 0.00001 2.081 0.37557 2.755 1.1267 0.67909 0.74598 1.0186 1.762 1.0186 3.0482m-1.4199-0.41671c-0.0103-0.77684-0.22895-1.3968-0.65595-1.8598-0.42187-0.46301-0.98263-0.69452-1.6823-0.69453-0.79229 0.00001-1.4276 0.2238-1.9061 0.67138-0.47331 0.44759-0.74598 1.0778-0.818 1.8907l5.0624-0.008"/>
  <path id="path3227" style="" d="m593.61 643.02c0.35497-0.63793 0.77941-1.1087 1.2733-1.4122 0.49387-0.30352 1.0752-0.45529 1.744-0.4553 0.9003 0.00001 1.5948 0.3164 2.0836 0.94919 0.48873 0.62766 0.7331 1.5228 0.73312 2.6855v5.2167h-1.4276v-5.1704c-0.00001-0.82829-0.14663-1.4431-0.43986-1.8444-0.29326-0.40127-0.74085-0.60191-1.3428-0.60192-0.7357 0.00001-1.317 0.24438-1.744 0.73311-0.42702 0.48875-0.64052 1.155-0.64051 1.9987v4.8849h-1.4276v-5.1704c0-0.83343-0.14662-1.4482-0.43986-1.8444-0.29326-0.40127-0.74599-0.60191-1.3582-0.60192-0.72541 0.00001-1.3016 0.24695-1.7286 0.74083-0.42701 0.48875-0.64051 1.1524-0.64051 1.991v4.8849h-1.4276v-8.643h1.4276v1.3428c0.32411-0.5299 0.71253-0.92089 1.1653-1.173 0.45273-0.25208 0.99035-0.37812 1.6129-0.37813 0.62764 0.00001 1.1601 0.15949 1.5974 0.47845 0.44244 0.31898 0.76912 0.782 0.98006 1.3891"/>
 </g>
 <g id="g120" transform="translate(-4.3683)">
  <path id="rect122" fill="#fff" d="m400 540h160v60h-160z"/>
  <path id="rect124" d="m400 540h160v60h-160z" stroke="#000" stroke-width="2" fill="none"/>
  <g id="text126">
   <path id="path3232" style="" d="m421.82 567.17c-0.76141 0.00001-1.3633 0.2984-1.8058 0.89517-0.44245 0.59165-0.66367 1.4045-0.66366 2.4386-0.00001 1.0341 0.21864 1.8495 0.65594 2.4463 0.44244 0.59164 1.0469 0.88745 1.8135 0.88745 0.75626 0 1.3556-0.29839 1.7981-0.89517 0.44244-0.59678 0.66366-1.4096 0.66366-2.4386 0-1.0238-0.22122-1.8341-0.66366-2.4308-0.44244-0.60192-1.0418-0.90288-1.7981-0.90289m0-1.2038c1.2347 0.00001 2.2045 0.40129 2.9093 1.2038 0.70481 0.80258 1.0572 1.9138 1.0572 3.3337-0.00001 1.4148-0.35242 2.526-1.0572 3.3337-0.70483 0.80257-1.6746 1.2038-2.9093 1.2038-1.2399 0-2.2122-0.40128-2.917-1.2038-0.69967-0.80771-1.0495-1.919-1.0495-3.3337 0-1.4199 0.34984-2.5312 1.0495-3.3337 0.70482-0.80256 1.6772-1.2038 2.917-1.2038"/>
   <path id="path3234" style="" d="m433.64 566.43v1.3428c-0.40129-0.20578-0.81801-0.36012-1.2502-0.46302-0.43215-0.10289-0.87974-0.15433-1.3428-0.15434-0.70483 0.00001-1.2347 0.10804-1.5897 0.32411-0.34984 0.21608-0.52476 0.5402-0.52476 0.97234 0 0.32927 0.12604 0.58907 0.37813 0.77942 0.25209 0.18521 0.75884 0.3627 1.5202 0.53247l0.48617 0.10804c1.0084 0.21608 1.7235 0.52219 2.1453 0.91832 0.427 0.391 0.6405 0.93891 0.64051 1.6437-0.00001 0.80257-0.31898 1.4379-0.95691 1.9061-0.6328 0.46816-1.5048 0.70224-2.6161 0.70224-0.46302 0-0.94662-0.0463-1.4508-0.1389-0.49903-0.0875-1.0264-0.22122-1.582-0.40129v-1.4662c0.52475 0.27266 1.0418 0.47845 1.5511 0.61736 0.50931 0.13376 1.0135 0.20064 1.5125 0.20064 0.6688 0 1.1833-0.11318 1.5434-0.33955 0.36012-0.23151 0.54018-0.55562 0.54018-0.97234 0-0.38585-0.13119-0.68167-0.39356-0.88746-0.25724-0.20578-0.82572-0.40385-1.7055-0.5942l-0.49388-0.11576c-0.87974-0.1852-1.5151-0.46816-1.9061-0.84887-0.391-0.38584-0.58649-0.91317-0.58649-1.582 0-0.81285 0.2881-1.4405 0.8643-1.883 0.5762-0.44243 1.3942-0.66365 2.454-0.66366 0.52475 0.00001 1.0186 0.0386 1.4817 0.11576 0.46301 0.0772 0.89002 0.19293 1.281 0.34726"/>
   <path id="path3236" style="" d="m435.76 566.18h6.7446v1.2964l-5.3402 6.2122h5.3402v1.1344h-6.9376v-1.2964l5.3402-6.2122h-5.1472v-1.1344"/>
   <path id="path3238" style="" d="m446.08 563.72v2.454h2.9247v1.1035h-2.9247v4.6919c-0.00001 0.70482 0.0952 1.1576 0.28553 1.3582 0.19549 0.20065 0.58906 0.30097 1.1807 0.30096h1.4585v1.1884h-1.4585c-1.0958 0-1.8521-0.20321-2.2688-0.60964-0.41672-0.41157-0.62508-1.1576-0.62508-2.2379v-4.6919h-1.0418v-1.1035h1.0418v-2.454h1.4276"/>
   <path id="path3240" style="" d="m454.23 567.17c-0.76141 0.00001-1.3633 0.2984-1.8058 0.89517-0.44245 0.59165-0.66367 1.4045-0.66366 2.4386-0.00001 1.0341 0.21864 1.8495 0.65594 2.4463 0.44244 0.59164 1.0469 0.88745 1.8135 0.88745 0.75626 0 1.3556-0.29839 1.7981-0.89517 0.44244-0.59678 0.66366-1.4096 0.66366-2.4386 0-1.0238-0.22122-1.8341-0.66366-2.4308-0.44244-0.60192-1.0418-0.90288-1.7981-0.90289m0-1.2038c1.2347 0.00001 2.2045 0.40129 2.9093 1.2038 0.70481 0.80258 1.0572 1.9138 1.0572 3.3337-0.00001 1.4148-0.35242 2.526-1.0572 3.3337-0.70483 0.80257-1.6746 1.2038-2.9093 1.2038-1.2399 0-2.2122-0.40128-2.917-1.2038-0.69967-0.80771-1.0495-1.919-1.0495-3.3337 0-1.4199 0.34984-2.5312 1.0495-3.3337 0.70482-0.80256 1.6772-1.2038 2.917-1.2038m1.0727-3.789h1.5357l-2.5157 2.9016h-1.1807l2.1608-2.9016"/>
   <path id="path3242" style="" d="m460.91 572.86h1.6283v1.9601h-1.6283v-1.9601m0-6.2122h1.6283v1.9601h-1.6283v-1.9601"/>
   <path id="path3244" style="" d="m466.07 567.65h9.8932v1.2964h-9.8932v-1.2964m0 3.1485h9.8932v1.3119h-9.8932v-1.3119"/>
   <path id="path3246" style="" d="m482.48 567.17c-0.76141 0.00001-1.3633 0.2984-1.8058 0.89517-0.44245 0.59165-0.66367 1.4045-0.66366 2.4386-0.00001 1.0341 0.21864 1.8495 0.65594 2.4463 0.44244 0.59164 1.0469 0.88745 1.8135 0.88745 0.75626 0 1.3556-0.29839 1.7981-0.89517 0.44244-0.59678 0.66366-1.4096 0.66366-2.4386 0-1.0238-0.22122-1.8341-0.66366-2.4308-0.44244-0.60192-1.0418-0.90288-1.7981-0.90289m0-1.2038c1.2347 0.00001 2.2045 0.40129 2.9093 1.2038 0.70481 0.80258 1.0572 1.9138 1.0572 3.3337-0.00001 1.4148-0.35242 2.526-1.0572 3.3337-0.70483 0.80257-1.6746 1.2038-2.9093 1.2038-1.2399 0-2.2122-0.40128-2.917-1.2038-0.69967-0.80771-1.0495-1.919-1.0495-3.3337 0-1.4199 0.34984-2.5312 1.0495-3.3337 0.70482-0.80256 1.6772-1.2038 2.917-1.2038"/>
   <path id="path3248" style="" d="m494.3 566.43v1.3428c-0.40129-0.20578-0.81801-0.36012-1.2502-0.46302-0.43216-0.10289-0.87974-0.15433-1.3428-0.15434-0.70482 0.00001-1.2347 0.10804-1.5897 0.32411-0.34984 0.21608-0.52476 0.5402-0.52476 0.97234 0 0.32927 0.12605 0.58907 0.37814 0.77942 0.25208 0.18521 0.75883 0.3627 1.5202 0.53247l0.48618 0.10804c1.0083 0.21608 1.7234 0.52219 2.1453 0.91832 0.427 0.391 0.6405 0.93891 0.64051 1.6437-0.00001 0.80257-0.31898 1.4379-0.95691 1.9061-0.6328 0.46816-1.5048 0.70224-2.6161 0.70224-0.46302 0-0.94662-0.0463-1.4508-0.1389-0.49904-0.0875-1.0264-0.22122-1.582-0.40129v-1.4662c0.52476 0.27266 1.0418 0.47845 1.5511 0.61736 0.50932 0.13376 1.0135 0.20064 1.5125 0.20064 0.6688 0 1.1833-0.11318 1.5434-0.33955 0.36012-0.23151 0.54018-0.55562 0.54019-0.97234-0.00001-0.38585-0.1312-0.68167-0.39357-0.88746-0.25724-0.20578-0.82572-0.40385-1.7054-0.5942l-0.49389-0.11576c-0.87974-0.1852-1.5151-0.46816-1.9061-0.84887-0.39099-0.38584-0.58649-0.91317-0.58649-1.582 0-0.81285 0.2881-1.4405 0.8643-1.883 0.5762-0.44243 1.3942-0.66365 2.454-0.66366 0.52475 0.00001 1.0186 0.0386 1.4817 0.11576 0.46301 0.0772 0.89002 0.19293 1.281 0.34726"/>
   <path id="path3250" style="" d="m496.41 566.18h6.7446v1.2964l-5.3402 6.2122h5.3402v1.1344h-6.9376v-1.2964l5.3402-6.2122h-5.1472v-1.1344"/>
   <path id="path3252" style="" d="m506.74 563.72v2.454h2.9247v1.1035h-2.9247v4.6919c-0.00001 0.70482 0.0952 1.1576 0.28553 1.3582 0.19549 0.20065 0.58906 0.30097 1.1807 0.30096h1.4585v1.1884h-1.4585c-1.0958 0-1.8521-0.20321-2.2688-0.60964-0.41672-0.41157-0.62508-1.1576-0.62508-2.2379v-4.6919h-1.0418v-1.1035h1.0418v-2.454h1.4276"/>
   <path id="path3254" style="" d="m514.89 567.17c-0.76142 0.00001-1.3633 0.2984-1.8058 0.89517-0.44244 0.59165-0.66366 1.4045-0.66366 2.4386s0.21864 1.8495 0.65594 2.4463c0.44244 0.59164 1.0469 0.88745 1.8135 0.88745 0.75626 0 1.3556-0.29839 1.7981-0.89517 0.44243-0.59678 0.66365-1.4096 0.66366-2.4386-0.00001-1.0238-0.22123-1.8341-0.66366-2.4308-0.44245-0.60192-1.0418-0.90288-1.7981-0.90289m0-1.2038c1.2347 0.00001 2.2045 0.40129 2.9093 1.2038 0.70481 0.80258 1.0572 1.9138 1.0572 3.3337-0.00001 1.4148-0.35242 2.526-1.0572 3.3337-0.70482 0.80257-1.6746 1.2038-2.9093 1.2038-1.2399 0-2.2122-0.40128-2.917-1.2038-0.69967-0.80771-1.0495-1.919-1.0495-3.3337 0-1.4199 0.34984-2.5312 1.0495-3.3337 0.70482-0.80256 1.6772-1.2038 2.917-1.2038m1.0727-3.789h1.5357l-2.5157 2.9016h-1.1807l2.1608-2.9016"/>
   <path id="path3256" style="" d="m526.98 564.91v4.2984h4.2984v1.3119h-4.2984v4.2984h-1.2964v-4.2984h-4.2984v-1.3119h4.2984v-4.2984h1.2964"/>
   <path id="path3258" style="" d="m534.91 573.51h2.5466v-8.7896l-2.7704 0.55562v-1.4199l2.755-0.55563h1.5588v10.21h2.5466v1.3119h-6.6366v-1.3119"/>
  </g>
 </g>
 <g id="g130" transform="translate(-4.3683)">
  <path id="polygon132" fill="#fff" d="m658.16 440h-138.16l21.84-60h138.16z"/>
  <path id="polygon134" d="m658.16 440h-138.16l21.84-60h138.16z" stroke="#000" stroke-width="2" fill="none"/>
  <g id="text136">
   <path id="path3263" style="" d="m544.32 403.3h1.5588v4.8694l5.1704-4.8694h2.0064l-5.7183 5.371 6.1273 6.1504h-2.0527l-5.5331-5.5485v5.5485h-1.5588v-11.521"/>
   <path id="path3265" style="" d="m554.69 403.3h1.5588v11.521h-1.5588v-11.521"/>
   <path id="path3267" style="" d="m559.66 412.86h1.6283v1.9601h-1.6283v-1.9601m0-6.2122h1.6283v1.9601h-1.6283v-1.9601"/>
   <path id="path3269" style="" d="m575.17 406.43v1.3428c-0.40129-0.20578-0.81801-0.36012-1.2502-0.46302-0.43215-0.10289-0.87974-0.15433-1.3428-0.15434-0.70483 0.00001-1.2347 0.10804-1.5897 0.32411-0.34984 0.21608-0.52476 0.5402-0.52476 0.97234 0 0.32927 0.12604 0.58907 0.37813 0.77942 0.25209 0.18521 0.75884 0.3627 1.5202 0.53247l0.48617 0.10804c1.0084 0.21608 1.7235 0.52219 2.1453 0.91832 0.427 0.391 0.64051 0.9389 0.64051 1.6437 0 0.80257-0.31897 1.4379-0.9569 1.9061-0.6328 0.46816-1.5048 0.70224-2.6161 0.70224-0.46303 0-0.94662-0.0463-1.4508-0.1389-0.49903-0.0875-1.0264-0.22122-1.582-0.40129v-1.4662c0.52475 0.27266 1.0418 0.47845 1.5511 0.61736 0.50932 0.13376 1.0135 0.20064 1.5125 0.20064 0.6688 0 1.1833-0.11318 1.5434-0.33955 0.36012-0.23151 0.54019-0.55562 0.54019-0.97234 0-0.38585-0.13119-0.68167-0.39356-0.88746-0.25724-0.20578-0.82573-0.40385-1.7055-0.5942l-0.49389-0.11576c-0.87974-0.1852-1.5151-0.46816-1.9061-0.84887-0.391-0.38584-0.5865-0.91317-0.58649-1.582-0.00001-0.81285 0.2881-1.4405 0.8643-1.883 0.5762-0.44243 1.3942-0.66365 2.454-0.66366 0.52475 0.00001 1.0186 0.0386 1.4817 0.11576 0.46302 0.0772 0.89002 0.19293 1.281 0.34726"/>
   <path id="path3271" style="" d="m577.29 406.18h6.7446v1.2964l-5.3402 6.2122h5.3402v1.1344h-6.9376v-1.2964l5.3402-6.2122h-5.1472v-1.1344"/>
   <path id="path3273" style="" d="m590.14 410.48c-1.1473 0.00001-1.9421 0.1312-2.3846 0.39357-0.44244 0.26238-0.66366 0.70997-0.66366 1.3428 0 0.50418 0.16463 0.90546 0.49389 1.2038 0.3344 0.29325 0.78713 0.43987 1.3582 0.43987 0.78713 0 1.4174-0.27781 1.8907-0.83344 0.47845-0.56076 0.71768-1.3042 0.71768-2.2302v-0.3164h-1.4122m2.8321-0.58649v4.9312h-1.4199v-1.3119c-0.32412 0.52476-0.72797 0.91318-1.2116 1.1653-0.4836 0.24694-1.0752 0.37041-1.7749 0.37041-0.88489 0-1.5897-0.24694-2.1145-0.74083-0.51961-0.49903-0.77942-1.1653-0.77942-1.9987 0-0.97234 0.32412-1.7054 0.97235-2.1993 0.65336-0.49388 1.6257-0.74083 2.917-0.74083h1.991v-0.13891c0-0.65336-0.21608-1.1575-0.64823-1.5125-0.42701-0.36012-1.0289-0.54018-1.8058-0.54019-0.49389 0.00001-0.97492 0.0592-1.4431 0.17749-0.46817 0.11834-0.91832 0.29583-1.3505 0.53247v-1.3119c0.51961-0.20064 1.0238-0.34983 1.5125-0.44759 0.48874-0.10288 0.96462-0.15433 1.4276-0.15434 1.2502 0.00001 2.1839 0.32412 2.8013 0.97234 0.61735 0.64824 0.92603 1.6309 0.92604 2.9479m-2.5929-7.7093h1.5357l-2.5157 2.9016h-1.1807l2.1608-2.9016"/>
   <path id="path3275" style="" d="m602.63 407.84c0.35498-0.63793 0.77941-1.1087 1.2733-1.4122 0.49388-0.30352 1.0752-0.45529 1.744-0.4553 0.9003 0.00001 1.5948 0.31641 2.0836 0.94919 0.48872 0.62766 0.7331 1.5228 0.73311 2.6855v5.2167h-1.4276v-5.1704c-0.00002-0.82829-0.14664-1.4431-0.43987-1.8444-0.29326-0.40127-0.74084-0.60191-1.3428-0.60192-0.7357 0.00001-1.317 0.24438-1.744 0.73311-0.42701 0.48875-0.64052 1.155-0.64051 1.9987v4.8849h-1.4276v-5.1704c-0.00001-0.83343-0.14663-1.4482-0.43987-1.8444-0.29325-0.40127-0.74598-0.60191-1.3582-0.60192-0.7254 0.00001-1.3016 0.24695-1.7286 0.74083-0.42701 0.48875-0.64051 1.1524-0.64051 1.991v4.8849h-1.4276v-8.643h1.4276v1.3428c0.32411-0.5299 0.71253-0.92089 1.1653-1.173 0.45272-0.25208 0.99034-0.37812 1.6128-0.37813 0.62764 0.00001 1.1601 0.15949 1.5974 0.47845 0.44243 0.31898 0.76911 0.782 0.98005 1.3891"/>
   <path id="path3277" style="" d="m613.13 402.74v15.804h-1.3119v-15.804h1.3119"/>
   <path id="path3279" style="" d="m619.99 407.17c-0.76141 0.00001-1.3633 0.2984-1.8058 0.89517-0.44244 0.59164-0.66366 1.4045-0.66366 2.4386s0.21865 1.8495 0.65595 2.4463c0.44243 0.59164 1.0469 0.88745 1.8135 0.88745 0.75626 0 1.3556-0.29839 1.7981-0.89517 0.44243-0.59678 0.66365-1.4096 0.66366-2.4386-0.00001-1.0238-0.22123-1.8341-0.66366-2.4308-0.44245-0.60192-1.0418-0.90288-1.7981-0.90289m0-1.2038c1.2347 0.00001 2.2045 0.40129 2.9093 1.2038 0.70481 0.80258 1.0572 1.9138 1.0572 3.3337 0 1.4148-0.35241 2.526-1.0572 3.3337-0.70483 0.80257-1.6746 1.2038-2.9093 1.2038-1.2399 0-2.2122-0.40128-2.917-1.2038-0.69968-0.80771-1.0495-1.919-1.0495-3.3337-0.00001-1.4199 0.34983-2.5312 1.0495-3.3337 0.70481-0.80256 1.6772-1.2038 2.917-1.2038"/>
   <path id="path3281" style="" d="m631.82 406.43v1.3428c-0.40129-0.20578-0.81801-0.36012-1.2502-0.46302-0.43216-0.10289-0.87974-0.15433-1.3428-0.15434-0.70482 0.00001-1.2347 0.10804-1.5897 0.32411-0.34984 0.21608-0.52476 0.5402-0.52475 0.97234-0.00001 0.32927 0.12604 0.58907 0.37813 0.77942 0.25208 0.18521 0.75883 0.3627 1.5202 0.53247l0.48617 0.10804c1.0084 0.21608 1.7234 0.52219 2.1453 0.91832 0.427 0.391 0.6405 0.9389 0.64051 1.6437-0.00001 0.80257-0.31897 1.4379-0.95691 1.9061-0.63279 0.46816-1.5048 0.70224-2.6161 0.70224-0.46302 0-0.94662-0.0463-1.4508-0.1389-0.49903-0.0875-1.0264-0.22122-1.582-0.40129v-1.4662c0.52475 0.27266 1.0418 0.47845 1.5511 0.61736 0.50932 0.13376 1.0135 0.20064 1.5125 0.20064 0.6688 0 1.1833-0.11318 1.5434-0.33955 0.36012-0.23151 0.54018-0.55562 0.54019-0.97234-0.00001-0.38585-0.13119-0.68167-0.39357-0.88746-0.25723-0.20578-0.82572-0.40385-1.7054-0.5942l-0.49389-0.11576c-0.87974-0.1852-1.5151-0.46816-1.9061-0.84887-0.39099-0.38584-0.58649-0.91317-0.58649-1.582 0-0.81285 0.2881-1.4405 0.86431-1.883 0.5762-0.44243 1.3942-0.66365 2.454-0.66366 0.52475 0.00001 1.0186 0.0386 1.4817 0.11576 0.46301 0.0772 0.89002 0.19293 1.281 0.34726"/>
   <path id="path3283" style="" d="m633.93 406.18h6.7446v1.2964l-5.3402 6.2122h5.3402v1.1344h-6.9376v-1.2964l5.3402-6.2122h-5.1472v-1.1344"/>
   <path id="path3285" style="" d="m644.26 403.72v2.454h2.9247v1.1035h-2.9247v4.6919c0 0.70482 0.0952 1.1576 0.28553 1.3582 0.19549 0.20064 0.58906 0.30097 1.1807 0.30096h1.4585v1.1884h-1.4585c-1.0958 0-1.8521-0.20321-2.2688-0.60964-0.41672-0.41157-0.62508-1.1576-0.62507-2.2379v-4.6919h-1.0418v-1.1035h1.0418v-2.454h1.4276"/>
   <path id="path3287" style="" d="m652.41 407.17c-0.76141 0.00001-1.3633 0.2984-1.8058 0.89517-0.44245 0.59164-0.66367 1.4045-0.66367 2.4386s0.21865 1.8495 0.65595 2.4463c0.44244 0.59164 1.0469 0.88745 1.8135 0.88745 0.75626 0 1.3556-0.29839 1.7981-0.89517 0.44243-0.59678 0.66365-1.4096 0.66366-2.4386-0.00001-1.0238-0.22123-1.8341-0.66366-2.4308-0.44245-0.60192-1.0418-0.90288-1.7981-0.90289m0-1.2038c1.2347 0.00001 2.2045 0.40129 2.9093 1.2038 0.70481 0.80258 1.0572 1.9138 1.0572 3.3337-0.00001 1.4148-0.35242 2.526-1.0572 3.3337-0.70483 0.80257-1.6746 1.2038-2.9093 1.2038-1.2399 0-2.2122-0.40128-2.917-1.2038-0.69968-0.80771-1.0495-1.919-1.0495-3.3337 0-1.4199 0.34983-2.5312 1.0495-3.3337 0.70481-0.80256 1.6772-1.2038 2.917-1.2038m1.0727-3.789h1.5357l-2.5157 2.9016h-1.1807l2.1608-2.9016"/>
  </g>
 </g>
 <g id="g140" transform="translate(-4.3683)">
  <path id="rect142" fill="#fff" d="m520 460h160v60h-160z"/>
  <path id="rect144" d="m520 460h160v60h-160z" stroke="#000" stroke-width="2" fill="none"/>
  <g id="text146">
   <path id="path3292" style="" d="m532.36 486.43v1.3428c-0.40129-0.20578-0.81801-0.36012-1.2502-0.46302-0.43216-0.10289-0.87974-0.15433-1.3428-0.15434-0.70482 0.00001-1.2347 0.10804-1.5897 0.32411-0.34984 0.21608-0.52476 0.5402-0.52475 0.97234-0.00001 0.32927 0.12604 0.58907 0.37813 0.77942 0.25208 0.18521 0.75883 0.3627 1.5202 0.53247l0.48617 0.10804c1.0083 0.21608 1.7234 0.52219 2.1453 0.91832 0.427 0.391 0.6405 0.9389 0.64051 1.6437-0.00001 0.80257-0.31898 1.4379-0.95691 1.9061-0.6328 0.46816-1.5048 0.70224-2.6161 0.70224-0.46302 0-0.94662-0.0463-1.4508-0.1389-0.49904-0.0875-1.0264-0.22122-1.582-0.40129v-1.4662c0.52475 0.27266 1.0418 0.47845 1.5511 0.61736 0.50932 0.13376 1.0135 0.20064 1.5125 0.20064 0.6688 0 1.1833-0.11318 1.5434-0.33955 0.36012-0.23151 0.54018-0.55562 0.54019-0.97234-0.00001-0.38585-0.1312-0.68167-0.39357-0.88746-0.25724-0.20578-0.82572-0.40385-1.7054-0.5942l-0.49389-0.11576c-0.87974-0.1852-1.5151-0.46816-1.9061-0.84887-0.39099-0.38584-0.58649-0.91317-0.58649-1.582 0-0.81285 0.2881-1.4405 0.8643-1.883 0.5762-0.44243 1.3942-0.66365 2.454-0.66366 0.52475 0.00001 1.0186 0.0386 1.4817 0.11576 0.46301 0.0772 0.89002 0.19293 1.281 0.34726"/>
   <path id="path3294" style="" d="m534.48 486.18h6.7446v1.2964l-5.3402 6.2122h5.3402v1.1344h-6.9376v-1.2964l5.3402-6.2122h-5.1472v-1.1344"/>
   <path id="path3296" style="" d="m547.32 490.48c-1.1473 0.00001-1.9421 0.1312-2.3846 0.39357-0.44245 0.26238-0.66367 0.70997-0.66366 1.3428-0.00001 0.50418 0.16462 0.90546 0.49388 1.2038 0.3344 0.29325 0.78713 0.43987 1.3582 0.43987 0.78712 0 1.4173-0.27781 1.8907-0.83344 0.47845-0.56076 0.71767-1.3042 0.71768-2.2302v-0.3164h-1.4122m2.8321-0.58649v4.9312h-1.4199v-1.3119c-0.32412 0.52476-0.72798 0.91318-1.2116 1.1653-0.4836 0.24694-1.0752 0.37041-1.7749 0.37041-0.88488 0-1.5897-0.24694-2.1144-0.74083-0.51962-0.49903-0.77942-1.1653-0.77942-1.9987 0-0.97234 0.32411-1.7054 0.97234-2.1993 0.65337-0.49388 1.6257-0.74083 2.917-0.74083h1.991v-0.13891c-0.00001-0.65336-0.21608-1.1575-0.64823-1.5125-0.42701-0.36012-1.0289-0.54018-1.8058-0.54019-0.4939 0.00001-0.97492 0.0592-1.4431 0.17749-0.46817 0.11834-0.91833 0.29583-1.3505 0.53247v-1.3119c0.51961-0.20064 1.0238-0.34983 1.5125-0.44759 0.48874-0.10288 0.96462-0.15433 1.4276-0.15434 1.2501 0.00001 2.1839 0.32412 2.8013 0.97234 0.61735 0.64824 0.92603 1.6309 0.92604 2.9479m-2.5929-7.7093h1.5357l-2.5157 2.9016h-1.1807l2.1608-2.9016"/>
   <path id="path3298" style="" d="m559.82 487.84c0.35497-0.63793 0.77941-1.1087 1.2733-1.4122 0.49388-0.30352 1.0752-0.45529 1.744-0.4553 0.90031 0.00001 1.5948 0.31641 2.0836 0.94919 0.48873 0.62766 0.7331 1.5228 0.73312 2.6855v5.2167h-1.4276v-5.1704c-0.00001-0.82829-0.14663-1.4431-0.43987-1.8444-0.29325-0.40127-0.74084-0.60191-1.3428-0.60192-0.7357 0.00001-1.317 0.24438-1.744 0.73311-0.42702 0.48875-0.64052 1.155-0.64051 1.9987v4.8849h-1.4276v-5.1704c0-0.83343-0.14663-1.4482-0.43987-1.8444-0.29325-0.40127-0.74598-0.60191-1.3582-0.60192-0.7254 0.00001-1.3016 0.24695-1.7286 0.74083-0.42701 0.48875-0.64052 1.1524-0.64051 1.991v4.8849h-1.4276v-8.643h1.4276v1.3428c0.32411-0.5299 0.71253-0.92089 1.1653-1.173 0.45273-0.25208 0.99035-0.37812 1.6128-0.37813 0.62765 0.00001 1.1601 0.15949 1.5974 0.47845 0.44244 0.31898 0.76912 0.782 0.98006 1.3891"/>
   <path id="path3300" style="" d="m568.85 492.86h1.6283v1.9601h-1.6283v-1.9601m0-6.2122h1.6283v1.9601h-1.6283v-1.9601"/>
   <path id="path3302" style="" d="m574.02 487.65h9.8932v1.2964h-9.8932v-1.2964m0 3.1485h9.8932v1.3119h-9.8932v-1.3119"/>
   <path id="path3304" style="" d="m592.58 486.43v1.3428c-0.40129-0.20578-0.81801-0.36012-1.2502-0.46302-0.43216-0.10289-0.87975-0.15433-1.3428-0.15434-0.70482 0.00001-1.2347 0.10804-1.5897 0.32411-0.34984 0.21608-0.52476 0.5402-0.52476 0.97234 0 0.32927 0.12605 0.58907 0.37814 0.77942 0.25208 0.18521 0.75883 0.3627 1.5202 0.53247l0.48617 0.10804c1.0084 0.21608 1.7235 0.52219 2.1453 0.91832 0.427 0.391 0.6405 0.9389 0.64051 1.6437-0.00001 0.80257-0.31898 1.4379-0.95691 1.9061-0.6328 0.46816-1.5048 0.70224-2.6161 0.70224-0.46302 0-0.94662-0.0463-1.4508-0.1389-0.49904-0.0875-1.0264-0.22122-1.582-0.40129v-1.4662c0.52476 0.27266 1.0418 0.47845 1.5511 0.61736 0.50932 0.13376 1.0135 0.20064 1.5125 0.20064 0.6688 0 1.1833-0.11318 1.5434-0.33955 0.36012-0.23151 0.54018-0.55562 0.54019-0.97234-0.00001-0.38585-0.1312-0.68167-0.39357-0.88746-0.25724-0.20578-0.82572-0.40385-1.7054-0.5942l-0.49389-0.11576c-0.87974-0.1852-1.5151-0.46816-1.9061-0.84887-0.39099-0.38584-0.58649-0.91317-0.58649-1.582 0-0.81285 0.2881-1.4405 0.8643-1.883 0.5762-0.44243 1.3942-0.66365 2.454-0.66366 0.52475 0.00001 1.0186 0.0386 1.4817 0.11576 0.46301 0.0772 0.89002 0.19293 1.281 0.34726"/>
   <path id="path3306" style="" d="m594.7 486.18h6.7446v1.2964l-5.3402 6.2122h5.3402v1.1344h-6.9376v-1.2964l5.3402-6.2122h-5.1472v-1.1344"/>
   <path id="path3308" style="" d="m607.55 490.48c-1.1473 0.00001-1.9421 0.1312-2.3846 0.39357-0.44245 0.26238-0.66367 0.70997-0.66367 1.3428 0 0.50418 0.16463 0.90546 0.49389 1.2038 0.3344 0.29325 0.78713 0.43987 1.3582 0.43987 0.78713 0 1.4174-0.27781 1.8907-0.83344 0.47844-0.56076 0.71767-1.3042 0.71768-2.2302v-0.3164h-1.4122m2.8321-0.58649v4.9312h-1.4199v-1.3119c-0.32412 0.52476-0.72798 0.91318-1.2116 1.1653-0.4836 0.24694-1.0752 0.37041-1.7749 0.37041-0.88488 0-1.5897-0.24694-2.1145-0.74083-0.51961-0.49903-0.77941-1.1653-0.77941-1.9987 0-0.97234 0.32411-1.7054 0.97234-2.1993 0.65337-0.49388 1.6257-0.74083 2.917-0.74083h1.991v-0.13891c-0.00001-0.65336-0.21609-1.1575-0.64823-1.5125-0.42701-0.36012-1.0289-0.54018-1.8058-0.54019-0.49389 0.00001-0.97491 0.0592-1.4431 0.17749-0.46817 0.11834-0.91833 0.29583-1.3505 0.53247v-1.3119c0.51961-0.20064 1.0238-0.34983 1.5125-0.44759 0.48874-0.10288 0.96462-0.15433 1.4276-0.15434 1.2501 0.00001 2.1839 0.32412 2.8013 0.97234 0.61736 0.64824 0.92603 1.6309 0.92604 2.9479m-2.5929-7.7093h1.5357l-2.5157 2.9016h-1.1807l2.1608-2.9016"/>
   <path id="path3310" style="" d="m620.04 487.84c0.35497-0.63793 0.77941-1.1087 1.2733-1.4122 0.49388-0.30352 1.0752-0.45529 1.744-0.4553 0.90031 0.00001 1.5948 0.31641 2.0836 0.94919 0.48873 0.62766 0.7331 1.5228 0.73311 2.6855v5.2167h-1.4276v-5.1704c-0.00001-0.82829-0.14663-1.4431-0.43987-1.8444-0.29326-0.40127-0.74084-0.60191-1.3428-0.60192-0.7357 0.00001-1.317 0.24438-1.744 0.73311-0.42702 0.48875-0.64052 1.155-0.64052 1.9987v4.8849h-1.4276v-5.1704c-0.00001-0.83343-0.14663-1.4482-0.43987-1.8444-0.29325-0.40127-0.74598-0.60191-1.3582-0.60192-0.7254 0.00001-1.3016 0.24695-1.7286 0.74083-0.42701 0.48875-0.64052 1.1524-0.64051 1.991v4.8849h-1.4276v-8.643h1.4276v1.3428c0.32411-0.5299 0.71253-0.92089 1.1653-1.173 0.45273-0.25208 0.99034-0.37812 1.6128-0.37813 0.62765 0.00001 1.1601 0.15949 1.5974 0.47845 0.44243 0.31898 0.76912 0.782 0.98006 1.3891"/>
   <path id="path3312" style="" d="m631.24 483.3h1.3119l-4.0128 12.988h-1.3119l4.0128-12.988"/>
   <path id="path3314" style="" d="m637.4 487.17c-0.76141 0.00001-1.3633 0.2984-1.8058 0.89517-0.44245 0.59164-0.66367 1.4045-0.66366 2.4386-0.00001 1.0341 0.21864 1.8495 0.65594 2.4463 0.44244 0.59164 1.0469 0.88745 1.8135 0.88745 0.75626 0 1.3556-0.29839 1.7981-0.89517 0.44244-0.59678 0.66366-1.4096 0.66366-2.4386 0-1.0238-0.22122-1.8341-0.66366-2.4308-0.44244-0.60192-1.0418-0.90288-1.7981-0.90289m0-1.2038c1.2347 0.00001 2.2045 0.40129 2.9093 1.2038 0.70481 0.80258 1.0572 1.9138 1.0572 3.3337-0.00001 1.4148-0.35242 2.526-1.0572 3.3337-0.70483 0.80257-1.6746 1.2038-2.9093 1.2038-1.2399 0-2.2122-0.40128-2.917-1.2038-0.69967-0.80771-1.0495-1.919-1.0495-3.3337 0-1.4199 0.34984-2.5312 1.0495-3.3337 0.70482-0.80256 1.6772-1.2038 2.917-1.2038"/>
   <path id="path3316" style="" d="m649.23 486.43v1.3428c-0.40129-0.20578-0.81801-0.36012-1.2502-0.46302-0.43215-0.10289-0.87974-0.15433-1.3428-0.15434-0.70483 0.00001-1.2347 0.10804-1.5897 0.32411-0.34984 0.21608-0.52476 0.5402-0.52476 0.97234 0 0.32927 0.12604 0.58907 0.37813 0.77942 0.25209 0.18521 0.75884 0.3627 1.5202 0.53247l0.48617 0.10804c1.0084 0.21608 1.7235 0.52219 2.1453 0.91832 0.427 0.391 0.6405 0.9389 0.64051 1.6437-0.00001 0.80257-0.31898 1.4379-0.95691 1.9061-0.6328 0.46816-1.5048 0.70224-2.6161 0.70224-0.46302 0-0.94662-0.0463-1.4508-0.1389-0.49903-0.0875-1.0264-0.22122-1.582-0.40129v-1.4662c0.52475 0.27266 1.0418 0.47845 1.5511 0.61736 0.50931 0.13376 1.0135 0.20064 1.5125 0.20064 0.6688 0 1.1833-0.11318 1.5434-0.33955 0.36013-0.23151 0.54019-0.55562 0.54019-0.97234 0-0.38585-0.13119-0.68167-0.39356-0.88746-0.25724-0.20578-0.82573-0.40385-1.7055-0.5942l-0.49389-0.11576c-0.87973-0.1852-1.5151-0.46816-1.9061-0.84887-0.391-0.38584-0.58649-0.91317-0.58649-1.582 0-0.81285 0.2881-1.4405 0.8643-1.883 0.5762-0.44243 1.3942-0.66365 2.454-0.66366 0.52475 0.00001 1.0186 0.0386 1.4817 0.11576 0.46301 0.0772 0.89002 0.19293 1.281 0.34726"/>
   <path id="path3318" style="" d="m651.34 486.18h6.7446v1.2964l-5.3402 6.2122h5.3402v1.1344h-6.9376v-1.2964l5.3402-6.2122h-5.1472v-1.1344"/>
   <path id="path3320" style="" d="m661.67 483.72v2.454h2.9247v1.1035h-2.9247v4.6919c0 0.70482 0.0952 1.1576 0.28553 1.3582 0.1955 0.20064 0.58906 0.30097 1.1807 0.30096h1.4585v1.1884h-1.4585c-1.0958 0-1.8521-0.20321-2.2688-0.60964-0.41672-0.41157-0.62508-1.1576-0.62508-2.2379v-4.6919h-1.0418v-1.1035h1.0418v-2.454h1.4276"/>
   <path id="path3322" style="" d="m669.82 487.17c-0.76141 0.00001-1.3633 0.2984-1.8058 0.89517-0.44245 0.59164-0.66367 1.4045-0.66366 2.4386-0.00001 1.0341 0.21864 1.8495 0.65594 2.4463 0.44244 0.59164 1.0469 0.88745 1.8135 0.88745 0.75626 0 1.3556-0.29839 1.7981-0.89517 0.44244-0.59678 0.66366-1.4096 0.66366-2.4386 0-1.0238-0.22122-1.8341-0.66366-2.4308-0.44244-0.60192-1.0418-0.90288-1.7981-0.90289m0-1.2038c1.2347 0.00001 2.2045 0.40129 2.9093 1.2038 0.70481 0.80258 1.0572 1.9138 1.0572 3.3337-0.00001 1.4148-0.35242 2.526-1.0572 3.3337-0.70483 0.80257-1.6746 1.2038-2.9093 1.2038-1.2399 0-2.2122-0.40128-2.917-1.2038-0.69968-0.80771-1.0495-1.919-1.0495-3.3337 0-1.4199 0.34983-2.5312 1.0495-3.3337 0.70482-0.80256 1.6772-1.2038 2.917-1.2038m1.0727-3.789h1.5357l-2.5157 2.9016h-1.1807l2.1608-2.9016"/>
  </g>
 </g>
 <g id="g150" stroke="#000" stroke-width="2" fill="none" transform="translate(-4.3683)">
  <path id="line152" d="m600 440.98v14.546"/>
  <path id="polyline154" d="m595 447.76 5 10 5-10"/>
 </g>
 <g id="g156" stroke="#000" stroke-width="2" fill="none" transform="translate(-4.3683)">
  <path id="line158" d="m480 388.23v146.3"/>
  <path id="polyline160" d="m475 526.77 5 10 5-10"/>
 </g>
 <g id="g162" transform="translate(-4.3683)">
  <path id="polygon164" fill="#fff" d="m480 700-80-42 80-42 80 42z"/>
  <path id="polygon166" d="m480 700-80-42 80-42 80 42z" stroke="#000" stroke-width="2" fill="none"/>
  <g id="text168">
   <path id="path3331" style="" d="m450.33 654.43v1.3428c-0.40129-0.20578-0.818-0.36012-1.2502-0.46302-0.43216-0.10289-0.87974-0.15433-1.3428-0.15434-0.70482 0.00001-1.2347 0.10804-1.5897 0.32411-0.34984 0.21608-0.52475 0.5402-0.52475 0.97234 0 0.32927 0.12604 0.58907 0.37813 0.77942 0.25209 0.18521 0.75884 0.3627 1.5202 0.53247l0.48617 0.10804c1.0084 0.21608 1.7234 0.52219 2.1453 0.91832 0.427 0.391 0.64051 0.93891 0.64051 1.6437 0 0.80257-0.31897 1.4379-0.9569 1.9061-0.6328 0.46816-1.5048 0.70224-2.6161 0.70224-0.46303 0-0.94662-0.0463-1.4508-0.1389-0.49903-0.0875-1.0264-0.22122-1.582-0.40129v-1.4662c0.52475 0.27266 1.0418 0.47845 1.5511 0.61736 0.50932 0.13376 1.0135 0.20064 1.5125 0.20064 0.66881 0 1.1833-0.11318 1.5434-0.33955 0.36012-0.23151 0.54019-0.55562 0.54019-0.97234 0-0.38585-0.13119-0.68167-0.39356-0.88746-0.25724-0.20578-0.82573-0.40385-1.7055-0.5942l-0.49389-0.11576c-0.87974-0.1852-1.5151-0.46816-1.9061-0.84887-0.391-0.38584-0.5865-0.91317-0.5865-1.582 0-0.81285 0.2881-1.4405 0.86431-1.883 0.5762-0.44243 1.3942-0.66365 2.454-0.66366 0.52475 0.00001 1.0186 0.0386 1.4817 0.11576 0.46302 0.0772 0.89002 0.19293 1.281 0.34726"/>
   <path id="path3333" style="" d="m452.44 654.18h6.7446v1.2964l-5.3402 6.2122h5.3402v1.1344h-6.9376v-1.2964l5.3402-6.2122h-5.1472v-1.1344"/>
   <path id="path3335" style="" d="m465.29 658.48c-1.1473 0.00001-1.9421 0.1312-2.3846 0.39357-0.44244 0.26238-0.66366 0.70997-0.66366 1.3428 0 0.50418 0.16463 0.90546 0.49389 1.2038 0.3344 0.29325 0.78713 0.43987 1.3582 0.43987 0.78713 0 1.4174-0.27781 1.8907-0.83344 0.47845-0.56076 0.71767-1.3042 0.71768-2.2302v-0.3164h-1.4122m2.8321-0.58649v4.9312h-1.4199v-1.3119c-0.32412 0.52476-0.72797 0.91318-1.2116 1.1653-0.4836 0.24694-1.0752 0.37041-1.7749 0.37041-0.88489 0-1.5897-0.24694-2.1145-0.74083-0.51961-0.49903-0.77942-1.1653-0.77942-1.9987 0-0.97234 0.32412-1.7054 0.97234-2.1993 0.65337-0.49388 1.6257-0.74083 2.917-0.74083h1.991v-0.13891c-0.00001-0.65336-0.21608-1.1575-0.64823-1.5125-0.42701-0.36012-1.0289-0.54018-1.8058-0.54019-0.49389 0.00001-0.97492 0.0592-1.4431 0.17749-0.46817 0.11834-0.91832 0.29583-1.3505 0.53248v-1.3119c0.51961-0.20064 1.0238-0.34983 1.5125-0.44759 0.48874-0.10288 0.96462-0.15433 1.4276-0.15434 1.2502 0.00001 2.1839 0.32412 2.8013 0.97234 0.61735 0.64824 0.92603 1.6309 0.92604 2.9479m-2.5929-7.7093h1.5357l-2.5157 2.9016h-1.1807l2.1608-2.9016"/>
   <path id="path3337" style="" d="m477.79 655.84c0.35498-0.63793 0.77941-1.1087 1.2733-1.4122 0.49387-0.30352 1.0752-0.45529 1.744-0.4553 0.9003 0.00001 1.5948 0.31641 2.0836 0.94919 0.48873 0.62766 0.73311 1.5228 0.73312 2.6855v5.2167h-1.4276v-5.1704c-0.00002-0.82829-0.14664-1.4431-0.43987-1.8444-0.29326-0.40128-0.74085-0.60192-1.3428-0.60193-0.7357 0.00001-1.317 0.24438-1.744 0.73311-0.42702 0.48875-0.64052 1.155-0.64051 1.9987v4.8848h-1.4276v-5.1704c-0.00001-0.83343-0.14663-1.4482-0.43987-1.8444-0.29325-0.40128-0.74598-0.60192-1.3582-0.60193-0.7254 0.00001-1.3016 0.24695-1.7286 0.74083-0.42701 0.48875-0.64051 1.1524-0.64051 1.991v4.8848h-1.4276v-8.643h1.4276v1.3428c0.32411-0.5299 0.71253-0.92089 1.1653-1.173 0.45272-0.25208 0.99034-0.37812 1.6128-0.37813 0.62764 0.00001 1.1601 0.15949 1.5974 0.47845 0.44244 0.31898 0.76912 0.782 0.98006 1.3891"/>
   <path id="path3339" style="" d="m486.64 655.65h9.8932v1.2964h-9.8932v-1.2964m0 3.1485h9.8932v1.3119h-9.8932v-1.3119"/>
   <path id="path3341" style="" d="m500.17 661.51h2.5466v-8.7896l-2.7704 0.55562v-1.4199l2.755-0.55563h1.5588v10.21h2.5466v1.3119h-6.6366v-1.3119"/>
   <path id="path3343" style="" d="m511.29 660.86h1.5666v1.9601h-1.5666v-1.9601m1.5202-1.1344h-1.474v-1.1884c0-0.51961 0.072-0.94661 0.21608-1.281 0.14405-0.3344 0.44758-0.72282 0.9106-1.1653l0.69453-0.68681c0.29324-0.27266 0.50417-0.52989 0.6328-0.7717 0.13375-0.24179 0.20063-0.48873 0.20064-0.74083-0.00001-0.45786-0.16978-0.82828-0.50932-1.1112-0.33441-0.28294-0.77942-0.42442-1.335-0.42443-0.40643 0.00001-0.84116 0.09-1.3042 0.27009-0.45788 0.18008-0.93633 0.44246-1.4354 0.78714v-1.4508c0.48359-0.29323 0.97233-0.51188 1.4662-0.65594 0.49903-0.14404 1.0135-0.21607 1.5434-0.21608 0.94661 0.00001 1.7054 0.24953 2.2765 0.74855 0.5762 0.49904 0.8643 1.1576 0.86431 1.9756-0.00001 0.391-0.0926 0.76399-0.27781 1.119-0.18522 0.34984-0.50933 0.74598-0.97234 1.1884l-0.6791 0.66366c-0.2418 0.24181-0.41415 0.43216-0.51704 0.57106-0.0978 0.13377-0.1672 0.26496-0.20836 0.39357-0.0309 0.10804-0.054 0.23923-0.0695 0.39356-0.0154 0.15435-0.0232 0.36528-0.0231 0.6328v0.94919"/>
  </g>
 </g>
 <g id="g172" stroke="#000" stroke-width="2" fill="none" transform="translate(-4.3683)">
  <path id="line174" d="m480 600v11.528"/>
  <path id="polyline176" d="m475 603.76 5 10 5-10"/>
 </g>
 <g id="g178" transform="translate(-4.3683)">
  <path id="ellipse180" d="m704 540c0 2.2091-1.7909 4-4 4s-4-1.7909-4-4 1.7909-4 4-4 4 1.7909 4 4z"/>
  <path id="ellipse182" d="m704 540c0 2.2091-1.7909 4-4 4s-4-1.7909-4-4 1.7909-4 4-4 4 1.7909 4 4z" stroke="#000" stroke-width="2" fill="none"/>
 </g>
 <g id="g184" stroke="#000" stroke-width="2" fill="none" transform="translate(-4.3683)">
  <path id="polyline186" d="m600 520v20h47.5 44.028"/>
  <path id="polyline188" d="m683.76 545 10-5-10-5"/>
 </g>
 <g id="g190" stroke="#000" stroke-width="2" fill="none" transform="translate(-4.3683)">
  <path id="polyline192" d="m700 540v-270h-211.53"/>
  <path id="polyline194" d="m496.24 265-10 5 10 5"/>
 </g>
 <g id="g196" stroke="#000" stroke-width="2" fill="none" transform="translate(-4.3683)">
  <path id="polyline198" d="m560 658h140v-109.53"/>
  <path id="polyline200" d="m705 556.24-5-10-5 10"/>
 </g>
 <g id="g202" transform="translate(-4.3683)">
  <path id="polygon204" fill="#fff" d="m538.16 160h-138.16l21.84-60h138.16z"/>
  <path id="polygon206" d="m538.16 160h-138.16l21.84-60h138.16z" stroke="#000" stroke-width="2" fill="none"/>
  <g id="text208">
   <path id="path3358" style="" d="m446.69 129.32v4.2212h2.5003c0.83857 0 1.4585-0.17235 1.8598-0.51704 0.40642-0.34984 0.60964-0.88231 0.60965-1.5974-0.00001-0.72025-0.20323-1.2502-0.60965-1.5897-0.40129-0.34469-1.0212-0.51703-1.8598-0.51704h-2.5003m0-4.7382v3.4726h2.3074c0.76141 0.00001 1.3273-0.14147 1.6977-0.42443 0.37556-0.28809 0.56334-0.72539 0.56334-1.3119 0-0.58134-0.18778-1.0161-0.56334-1.3042-0.37042-0.28809-0.93633-0.43214-1.6977-0.43215h-2.3074m-1.5588-1.281h3.982c1.1884 0.00001 2.1042 0.24695 2.7472 0.74083 0.64307 0.4939 0.96461 1.1961 0.96462 2.1067-0.00001 0.70482-0.16464 1.2656-0.49388 1.6823-0.32927 0.41673-0.81287 0.67653-1.4508 0.77942 0.76655 0.16463 1.3608 0.50932 1.7826 1.0341 0.42699 0.51962 0.6405 1.1704 0.64051 1.9524-0.00001 1.0289-0.34985 1.8238-1.0495 2.3846-0.69969 0.56077-1.6952 0.84116-2.9865 0.84116h-4.1363v-11.521"/>
   <path id="path3360" style="" d="m455.96 123.3h7.2848v1.3119h-5.726v3.4109h5.4868v1.3119h-5.4868v4.1749h5.8649v1.3119h-7.4238v-11.521"/>
   <path id="path3362" style="" d="m466.26 132.86h1.6283v1.9601h-1.6283v-1.9601m0-6.2122h1.6283v1.9601h-1.6283v-1.9601"/>
   <path id="path3364" style="" d="m481.78 126.43v1.3428c-0.40129-0.20578-0.81801-0.36012-1.2502-0.46302-0.43215-0.10288-0.87974-0.15433-1.3428-0.15434-0.70483 0.00001-1.2347 0.10805-1.5897 0.32412-0.34984 0.21608-0.52476 0.54019-0.52476 0.97234 0 0.32926 0.12604 0.58907 0.37813 0.77941 0.25209 0.18522 0.75884 0.36271 1.5202 0.53248l0.48617 0.10803c1.0084 0.21608 1.7235 0.52219 2.1453 0.91833 0.427 0.39099 0.64051 0.9389 0.64052 1.6437-0.00001 0.80256-0.31898 1.4379-0.95691 1.9061-0.6328 0.46817-1.5048 0.70225-2.6161 0.70225-0.46303 0-0.94662-0.0463-1.4508-0.13891-0.49903-0.0875-1.0264-0.22122-1.582-0.40128v-1.4662c0.52475 0.27267 1.0418 0.47846 1.5511 0.61736 0.50931 0.13376 1.0135 0.20064 1.5125 0.20064 0.6688 0 1.1833-0.11318 1.5434-0.33955 0.36012-0.2315 0.54019-0.55562 0.54019-0.97234 0-0.38584-0.13119-0.68166-0.39356-0.88745-0.25724-0.20578-0.82573-0.40385-1.7055-0.59421l-0.49389-0.11575c-0.87974-0.18521-1.5151-0.46816-1.9061-0.84887-0.391-0.38585-0.5865-0.91317-0.58649-1.582-0.00001-0.81285 0.2881-1.4405 0.8643-1.8829 0.5762-0.44243 1.3942-0.66366 2.454-0.66366 0.52475 0 1.0186 0.0386 1.4817 0.11575 0.46302 0.0772 0.89002 0.19293 1.281 0.34727"/>
   <path id="path3366" style="" d="m483.9 126.18h6.7446v1.2965l-5.3402 6.2122h5.3402v1.1344h-6.9376v-1.2965l5.3402-6.2122h-5.1472v-1.1344"/>
   <path id="path3368" style="" d="m496.75 130.48c-1.1473 0-1.9421 0.13119-2.3846 0.39357-0.44244 0.26238-0.66366 0.70996-0.66366 1.3428 0 0.50418 0.16463 0.90546 0.49389 1.2038 0.3344 0.29325 0.78713 0.43987 1.3582 0.43987 0.78713 0 1.4174-0.27781 1.8907-0.83343 0.47845-0.56077 0.71768-1.3042 0.71768-2.2302v-0.3164h-1.4122m2.8321-0.58649v4.9312h-1.4199v-1.3119c-0.32412 0.52475-0.72797 0.91318-1.2116 1.1653-0.48361 0.24695-1.0752 0.37042-1.7749 0.37042-0.88489 0-1.5897-0.24694-2.1145-0.74083-0.51961-0.49903-0.77941-1.1653-0.77941-1.9987 0-0.97234 0.32411-1.7054 0.97234-2.1994 0.65337-0.49388 1.6257-0.74082 2.917-0.74083h1.991v-0.1389c0-0.65337-0.21608-1.1576-0.64822-1.5125-0.42702-0.36012-1.0289-0.54019-1.8058-0.54019-0.49389 0-0.97492 0.0592-1.4431 0.17749-0.46816 0.11833-0.91832 0.29582-1.3505 0.53247v-1.3119c0.51961-0.20063 1.0238-0.34983 1.5125-0.44758 0.48874-0.10289 0.96462-0.15434 1.4276-0.15434 1.2502 0 2.1839 0.32412 2.8013 0.97234 0.61735 0.64823 0.92603 1.6309 0.92604 2.9479m-2.5929-7.7093h1.5357l-2.5157 2.9016h-1.1807l2.1608-2.9016"/>
   <path id="path3370" style="" d="m509.24 127.84c0.35497-0.63793 0.7794-1.1087 1.2733-1.4122 0.49388-0.30353 1.0752-0.4553 1.744-0.4553 0.9003 0 1.5948 0.3164 2.0836 0.94919 0.48873 0.62765 0.7331 1.5228 0.73311 2.6855v5.2167h-1.4276v-5.1704c-0.00001-0.82828-0.14664-1.4431-0.43987-1.8444-0.29326-0.40128-0.74084-0.60192-1.3428-0.60193-0.73569 0.00001-1.317 0.24438-1.744 0.73312-0.42701 0.48875-0.64052 1.155-0.64051 1.9987v4.8849h-1.4276v-5.1704c-0.00001-0.83343-0.14663-1.4482-0.43987-1.8444-0.29325-0.40128-0.74598-0.60192-1.3582-0.60193-0.7254 0.00001-1.3016 0.24696-1.7286 0.74084-0.42701 0.48875-0.64051 1.1524-0.64051 1.991v4.8849h-1.4276v-8.643h1.4276v1.3428c0.32411-0.52989 0.71254-0.92088 1.1653-1.173 0.45273-0.25208 0.99034-0.37813 1.6128-0.37813 0.62764 0 1.1601 0.15949 1.5974 0.47845 0.44243 0.31898 0.76912 0.782 0.98006 1.3891"/>
  </g>
 </g>
</svg>
