<?xml version="1.0" encoding="UTF-8" standalone="no"?>
<!-- Created with Inkscape (http://www.inkscape.org/) -->
<svg id="svg2" xmlns:rdf="http://www.w3.org/1999/02/22-rdf-syntax-ns#" xmlns="http://www.w3.org/2000/svg" height="686.3" width="636.19" version="1.1" xmlns:cc="http://creativecommons.org/ns#" xmlns:dc="http://purl.org/dc/elements/1.1/" viewBox="298 158 354.10445 370.91661">
 <metadata id="metadata318">
  <rdf:RDF>
   <cc:Work rdf:about="">
    <dc:format>image/svg+xml</dc:format>
    <dc:type rdf:resource="http://purl.org/dc/dcmitype/StillImage"/>
   </cc:Work>
  </rdf:RDF>
 </metadata>
 <g id="g4" transform="translate(-1 -6.5417)">
  <path id="rect6" fill="#7babe3" d="m300 160h60v40h-60z"/>
  <path id="rect8" d="m300 160h60v40h-60z" stroke="#000" stroke-width="2" fill="none"/>
 </g>
 <g id="g10" transform="translate(-1 -6.5417)">
  <path id="rect12" fill="#7babe3" d="m360 160h60v40h-60z"/>
  <path id="rect14" d="m360 160h60v40h-60z" stroke="#000" stroke-width="2" fill="none"/>
 </g>
 <g id="g16" transform="translate(-1 -6.5417)">
  <path id="rect18" fill="#7babe3" d="m420 160h60v40h-60z"/>
  <path id="rect20" d="m420 160h60v40h-60z" stroke="#000" stroke-width="2" fill="none"/>
 </g>
 <g id="g22" transform="translate(-1 -6.5417)">
  <path id="rect24" fill="#7babe3" d="m480 160h60v40h-60z"/>
  <path id="rect26" d="m480 160h60v40h-60z" stroke="#000" stroke-width="2" fill="none"/>
 </g>
 <g id="g28" transform="translate(-1 -6.5417)">
  <path id="rect30" fill="#7babe3" d="m540 160h60v40h-60z"/>
  <path id="rect32" d="m540 160h60v40h-60z" stroke="#000" stroke-width="2" fill="none"/>
 </g>
 <g id="text34">
  <path id="path3148" style="" d="m329 165.71-3.6248 9.8293h7.2628l-3.64-9.83m-1.5081-2.6326h3.0295l7.5274 19.751h-2.7781l-1.7992-5.0668h-8.9032l-1.7992 5.0668h-2.8178l7.5406-19.751"/>
 </g>
 <g id="text38">
  <path id="path3151" style="" d="m385.04 173.4v7.2364h4.2862c1.4376 0 2.5003-0.29545 3.1882-0.88635 0.69673-0.59972 1.0451-1.5125 1.0451-2.7384-0.00002-1.2347-0.34838-2.1431-1.0451-2.7252-0.68792-0.5909-1.7507-0.88635-3.1882-0.88636h-4.2862m0-8.1227v5.9531h3.9555c1.3053 0.00001 2.2754-0.24252 2.9104-0.7276 0.64381-0.49388 0.96572-1.2435 0.96573-2.249-0.00001-0.99658-0.32192-1.7418-0.96573-2.2357-0.63501-0.49387-1.6051-0.74082-2.9104-0.74083h-3.9555m-2.6723-2.196h6.8262c2.0373 0.00002 3.6071 0.42335 4.7096 1.27 1.1024 0.84669 1.6536 2.0505 1.6536 3.6116-0.00002 1.2083-0.28224 2.1696-0.84667 2.884-0.56446 0.71438-1.3935 1.1598-2.4871 1.3361 1.3141 0.28223 2.3327 0.87314 3.0559 1.7727 0.73199 0.89077 1.098 2.0064 1.098 3.347-0.00002 1.7639-0.59974 3.1265-1.7992 4.0878-1.1995 0.96132-2.906 1.442-5.1197 1.442h-7.0908v-19.751"/>
 </g>
 <g id="text42">
  <path id="path3154" style="" d="m456.98 164.6v2.8178c-0.8996-0.83783-1.8609-1.464-2.884-1.8785-1.0142-0.4145-2.0946-0.62175-3.2411-0.62177-2.2578 0.00002-3.9864 0.69234-5.1858 2.077-1.1994 1.3758-1.7992 3.369-1.7992 5.9796 0 2.6017 0.59972 4.5949 1.7992 5.9796 1.1994 1.3758 2.928 2.0638 5.1858 2.0637 1.1465 0.00001 2.2269-0.20725 3.2411-0.62177 1.023-0.41451 1.9844-1.0407 2.884-1.8785v2.7914c-0.93488 0.635-1.9271 1.1112-2.9766 1.4287-1.0407 0.3175-2.1431 0.47625-3.3073 0.47625-2.9898 0-5.3446-0.91281-7.0644-2.7384-1.7198-1.8344-2.5797-4.3348-2.5797-7.5009 0-3.175 0.85989-5.6753 2.5797-7.5009 1.7198-1.8344 4.0746-2.7516 7.0644-2.7517 1.1818 0.00002 2.293 0.15877 3.3338 0.47625 1.0495 0.3087 2.0329 0.77613 2.9501 1.4023"/>
 </g>
 <g id="text46">
  <path id="path3157" style="" d="m503.91 165.28v15.359h3.2279c2.7252 0 4.7184-0.61736 5.9796-1.8521 1.27-1.2347 1.905-3.1838 1.905-5.8473-0.00001-2.6458-0.63501-4.5817-1.905-5.8076-1.2612-1.2347-3.2544-1.8521-5.9796-1.8521h-3.2279m-2.6723-2.196h5.4901c3.8276 0.00002 6.6366 0.79817 8.427 2.3945 1.7903 1.5875 2.6855 4.0746 2.6855 7.4612-0.00002 3.4043-0.8996 5.9046-2.6987 7.5009-1.7992 1.5963-4.6038 2.3945-8.4137 2.3945h-5.4901v-19.751"/>
 </g>
 <g id="text50">
  <path id="path3160" style="" d="m563.09 163.08h12.488v2.249h-9.816v5.8473h9.4059v2.249h-9.4059v7.157h10.054v2.249h-12.726v-19.751"/>
 </g>
 <g id="g54" transform="translate(-1 -6.5417)">
  <g id="g56">
   <path id="rect58" fill="#fff" d="m560 240h40v40h-40z"/>
   <path id="rect60" d="m560 240h40v40h-40z" stroke="#f00" stroke-width="2" fill="none"/>
  </g>
  <path id="line62" d="m580 240v40" stroke="#f00" stroke-width="2" fill="none"/>
  <path id="line64" d="m560 260h40" stroke="#f00" stroke-width="2" fill="none"/>
 </g>
 <g id="g66" transform="translate(-1 -6.5417)">
  <g id="g68">
   <path id="rect70" fill="#fff" d="m560 300h40v40h-40z"/>
   <path id="rect72" d="m560 300h40v40h-40z" stroke="#f00" stroke-width="2" fill="none"/>
  </g>
  <path id="line74" d="m580 300v40" stroke="#f00" stroke-width="2" fill="none"/>
  <path id="line76" d="m560 320h40" stroke="#f00" stroke-width="2" fill="none"/>
 </g>
 <g id="g78" transform="translate(-1 -6.5417)">
  <g id="g80">
   <path id="rect82" fill="#fff" d="m560 360h40v40h-40z"/>
   <path id="rect84" d="m560 360h40v40h-40z" stroke="#f00" stroke-width="2" fill="none"/>
  </g>
  <path id="line86" d="m580 360v40" stroke="#f00" stroke-width="2" fill="none"/>
  <path id="line88" d="m560 380h40" stroke="#f00" stroke-width="2" fill="none"/>
 </g>
 <g id="g90" stroke="#000" stroke-width="2" fill="none" transform="translate(-1 -6.5417)">
  <path id="line92" d="m580 200v35.528"/>
  <path id="polyline94" d="m575 227.76 5 10 5-10"/>
 </g>
 <g id="g96" stroke="#000" stroke-width="2" fill="none" transform="translate(-1 -6.5417)">
  <path id="line98" d="m580 280v15.528"/>
  <path id="polyline100" d="m575 287.76 5 10 5-10"/>
 </g>
 <g id="g102" stroke="#000" stroke-width="2" fill="none" transform="translate(-1 -6.5417)">
  <path id="line104" d="m580 340v15.528"/>
  <path id="polyline106" d="m575 347.76 5 10 5-10"/>
 </g>
 <g id="g108" transform="translate(-1 -6.5417)">
  <g id="g110">
   <path id="rect112" fill="#fff" d="m560 420h40v40h-40z"/>
   <path id="rect114" d="m560 420h40v40h-40z" stroke="#f00" stroke-width="2" fill="none"/>
  </g>
  <path id="line116" d="m580 420v40" stroke="#f00" stroke-width="2" fill="none"/>
  <path id="line118" d="m560 440h40" stroke="#f00" stroke-width="2" fill="none"/>
 </g>
 <g id="g120" stroke="#000" stroke-width="2" fill="none" transform="translate(-1 -6.5417)">
  <path id="line122" d="m580 400v15.528"/>
  <path id="polyline124" d="m575 407.76 5 10 5-10"/>
 </g>
 <g id="g126" stroke="#000" stroke-width="2" fill="none" transform="translate(-1 -6.5417)">
  <path id="line128" d="m620 380h-15.528"/>
  <path id="polyline130" d="m612.24 375-10 5 10 5"/>
 </g>
 <g id="g132" stroke="#000" stroke-width="2" fill="none" transform="translate(-1 -6.5417)">
  <path id="line134" d="m620 440h-15.528"/>
  <path id="polyline136" d="m612.24 435-10 5 10 5"/>
 </g>
 <g id="g138" transform="translate(-1 -6.5417)">
  <path id="rect140" fill="#0f0" d="m450 240h60v40h-60z"/>
  <path id="rect142" d="m450 240h60v40h-60z" stroke="#000" stroke-width="2" fill="none"/>
 </g>
 <g id="g144" stroke="#000" stroke-width="2" fill="none" transform="translate(-1 -6.5417)">
  <path id="polyline146" d="m510 200v10h-10v25.528"/>
  <path id="polyline148" d="m495 227.76 5 10 5-10"/>
 </g>
 <g id="g150" stroke="#000" stroke-width="2" fill="none" transform="translate(-1 -6.5417)">
  <path id="polyline152" d="m450 200v10h30v25.528"/>
  <path id="polyline154" d="m475 227.76 5 10 5-10"/>
 </g>
 <g id="g156" stroke="#000" stroke-width="2" fill="none" transform="translate(-1 -6.5417)">
  <path id="polyline158" d="m410 200v20h50v15.528"/>
  <path id="polyline160" d="m455 227.76 5 10 5-10"/>
 </g>
 <g id="g162" transform="translate(-1 -6.5417)">
  <path id="rect164" fill="#ff0" d="m320 300h70v40h-70z"/>
  <path id="rect166" d="m320 300h70v40h-70z" stroke="#000" stroke-width="2" fill="none"/>
 </g>
 <g id="g168" transform="translate(-1 -6.5417)">
  <path id="rect170" fill="#ff0" d="m360 390h70v40h-70z"/>
  <path id="rect172" d="m360 390h70v40h-70z" stroke="#000" stroke-width="2" fill="none"/>
 </g>
 <g id="g174" transform="translate(-1 -6.5417)">
  <path id="rect176" fill="#7babe3" d="m300 500h60v40h-60z"/>
  <path id="rect178" d="m300 500h60v40h-60z" stroke="#000" stroke-width="2" fill="none"/>
 </g>
 <g id="g180" transform="translate(-1 -6.5417)">
  <path id="rect182" fill="#7babe3" d="m360 500h60v40h-60z"/>
  <path id="rect184" d="m360 500h60v40h-60z" stroke="#000" stroke-width="2" fill="none"/>
 </g>
 <g id="g186" transform="translate(-1 -6.5417)">
  <path id="rect188" fill="#7babe3" d="m420 500h60v40h-60z"/>
  <path id="rect190" d="m420 500h60v40h-60z" stroke="#000" stroke-width="2" fill="none"/>
 </g>
 <g id="g192" transform="translate(-1 -6.5417)">
  <path id="rect194" fill="#7babe3" d="m480 500h60v40h-60z"/>
  <path id="rect196" d="m480 500h60v40h-60z" stroke="#000" stroke-width="2" fill="none"/>
 </g>
 <g id="g198" transform="translate(-1 -6.5417)">
  <path id="rect200" fill="#7babe3" d="m540 500h60v40h-60z"/>
  <path id="rect202" d="m540 500h60v40h-60z" stroke="#000" stroke-width="2" fill="none"/>
 </g>
 <g id="text204">
  <path id="path3213" style="" d="m329 505.71-3.6248 9.8293h7.2628l-3.64-9.83m-1.5081-2.6326h3.0295l7.5274 19.751h-2.7781l-1.7992-5.0668h-8.9032l-1.7992 5.0668h-2.8178l7.5406-19.751"/>
 </g>
 <g id="text208">
  <path id="path3216" style="" d="m385.04 513.4v7.2363h4.2862c1.4376 0.00001 2.5003-0.29544 3.1882-0.88635 0.69673-0.59972 1.0451-1.5125 1.0451-2.7384-0.00002-1.2347-0.34838-2.1431-1.0451-2.7252-0.68792-0.59089-1.7507-0.88634-3.1882-0.88635h-4.2862m0-8.1227v5.9531h3.9555c1.3053 0.00001 2.2754-0.24252 2.9104-0.72761 0.64381-0.49387 0.96572-1.2435 0.96573-2.249-0.00001-0.99658-0.32192-1.7418-0.96573-2.2357-0.63501-0.49387-1.6051-0.74081-2.9104-0.74083h-3.9555m-2.6723-2.196h6.8262c2.0373 0.00002 3.6071 0.42335 4.7096 1.27 1.1024 0.84668 1.6536 2.0505 1.6536 3.6116-0.00002 1.2083-0.28224 2.1696-0.84667 2.884-0.56446 0.71439-1.3935 1.1598-2.4871 1.3362 1.3141 0.28223 2.3327 0.87313 3.0559 1.7727 0.73199 0.89077 1.098 2.0064 1.098 3.347-0.00002 1.7639-0.59974 3.1265-1.7992 4.0878-1.1995 0.96131-2.906 1.442-5.1197 1.442h-7.0908v-19.751"/>
 </g>
 <g id="text212">
  <path id="path3219" style="" d="m456.98 504.6v2.8178c-0.8996-0.83783-1.8609-1.464-2.884-1.8785-1.0142-0.41449-2.0946-0.62175-3.2411-0.62177-2.2578 0.00002-3.9864 0.69235-5.1858 2.077-1.1994 1.3758-1.7992 3.369-1.7992 5.9796 0 2.6017 0.59972 4.5949 1.7992 5.9796 1.1994 1.3758 2.928 2.0638 5.1858 2.0638 1.1465 0 2.2269-0.20726 3.2411-0.62177 1.023-0.41451 1.9844-1.0407 2.884-1.8785v2.7914c-0.93488 0.635-1.9271 1.1112-2.9766 1.4288-1.0407 0.3175-2.1431 0.47625-3.3073 0.47625-2.9898 0-5.3446-0.91281-7.0644-2.7384-1.7198-1.8344-2.5797-4.3347-2.5797-7.5009 0-3.175 0.85989-5.6753 2.5797-7.5009 1.7198-1.8344 4.0746-2.7516 7.0644-2.7517 1.1818 0.00002 2.293 0.15877 3.3338 0.47625 1.0495 0.3087 2.0329 0.77613 2.9501 1.4023"/>
 </g>
 <g id="text216">
  <path id="path3222" style="" d="m503.91 505.28v15.359h3.2279c2.7252 0.00001 4.7184-0.61735 5.9796-1.8521 1.27-1.2347 1.905-3.1838 1.905-5.8473-0.00001-2.6458-0.63501-4.5817-1.905-5.8076-1.2612-1.2347-3.2544-1.8521-5.9796-1.8521h-3.2279m-2.6723-2.196h5.4901c3.8276 0.00002 6.6366 0.79818 8.427 2.3945 1.7903 1.5875 2.6855 4.0746 2.6855 7.4612-0.00002 3.4043-0.8996 5.9046-2.6987 7.5009-1.7992 1.5963-4.6038 2.3945-8.4137 2.3945h-5.4901v-19.751"/>
 </g>
 <g id="text220">
  <path id="path3225" style="" d="m563.09 503.08h12.488v2.249h-9.816v5.8473h9.4059v2.249h-9.4059v7.157h10.054v2.249h-12.726v-19.751"/>
 </g>
 <g id="g224" stroke="#000" stroke-width="2" fill="none" transform="translate(-1 -6.5417)">
  <path id="line226" d="m340 200v95.528"/>
  <path id="polyline228" d="m335 287.76 5 10 5-10"/>
 </g>
 <g id="g230" stroke="#000" stroke-width="2" fill="none" transform="translate(-1 -6.5417)">
  <path id="line232" d="m390 320h165.53"/>
  <path id="polyline234" d="m547.76 325 10-5-10-5"/>
 </g>
 <g id="g236" stroke="#000" stroke-width="2" fill="none" transform="translate(-1 -6.5417)">
  <path id="line238" d="m400 200v185.53"/>
  <path id="polyline240" d="m395 377.76 5 10 5-10"/>
 </g>
 <g id="g242" stroke="#000" stroke-width="2" fill="none" transform="translate(-1 -6.5417)">
  <path id="line244" d="m510 260h45.528"/>
  <path id="polyline246" d="m547.76 265 10-5-10-5"/>
 </g>
 <g id="g248" stroke="#000" stroke-width="2" fill="none" transform="translate(-1 -6.5417)">
  <path id="polyline250" d="m310 200v220l76.838 76.838"/>
  <path id="polyline252" d="m377.81 494.88 10.607 3.536-3.536-10.607"/>
 </g>
 <g id="g254" stroke="#000" stroke-width="2" fill="none" transform="translate(-1 -6.5417)">
  <path id="polyline256" d="m400 430v20l46.838 46.838"/>
  <path id="polyline258" d="m437.81 494.88 10.607 3.536-3.536-10.607"/>
 </g>
 <g id="g260" stroke="#000" stroke-width="2" fill="none" transform="translate(-1 -6.5417)">
  <path id="polyline262" d="m440 200v230l66.838 66.838"/>
  <path id="polyline264" d="m497.81 494.88 10.607 3.536-3.536-10.607"/>
 </g>
 <g id="g266" stroke="#000" stroke-width="2" fill="none" transform="translate(-1 -6.5417)">
  <path id="polyline268" d="m520 200v250l46.838 46.838"/>
  <path id="polyline270" d="m557.81 494.88 10.607 3.536-3.536-10.607"/>
 </g>
 <g id="g272" stroke="#000" stroke-width="2" fill="none" transform="translate(-1 -6.5417)">
  <path id="polyline274" d="m580 460-20 20h-210l-16.838 16.838"/>
  <path id="polyline276" d="m335.12 487.81-3.536 10.607 10.607-3.536"/>
 </g>
 <g id="text278">
  <path id="path3246" style="" d="m473.85 243.08h11.351v2.249h-8.6783v5.8208h7.8317v2.249h-7.8317v9.4324h-2.6723v-19.751"/>
 </g>
 <g id="text282">
  <path id="path3249" style="" d="m619.9 363.08h2.6988l4.154 16.695 4.1407-16.695h3.003l4.154 16.695 4.1407-16.695h2.712l-4.9609 19.751h-3.3602l-4.1672-17.145-4.2069 17.145h-3.3602l-4.9477-19.751"/>
 </g>
 <g id="text286">
  <path id="path3252" style="" d="m648.76 377.03v2.8046h3.3426v1.2612h-3.3426v5.3622c-0.00001 0.80551 0.10876 1.3229 0.32631 1.5522 0.22343 0.22931 0.67322 0.34396 1.3494 0.34396h1.6669v1.3582h-1.6669c-1.2524 0-2.1167-0.23224-2.5929-0.69673-0.47625-0.47037-0.71437-1.3229-0.71437-2.5576v-5.3622h-1.1906v-1.2612h1.1906v-2.8046h1.6316"/>
 </g>
 <g id="text290">
  <path id="path3255" style="" d="m621.66 423.08h2.6723v8.3476l8.8635-8.3476h3.4396l-9.8028 9.2075 10.504 10.544h-3.519l-9.4853-9.5118v9.5118h-2.6723v-19.751"/>
 </g>
 <g id="text294">
  <path id="path3258" style="" d="m642.76 437.03v2.8046h3.3426v1.2612h-3.3426v5.3622c-0.00001 0.80551 0.10876 1.3229 0.32631 1.5522 0.22343 0.22931 0.67322 0.34396 1.3494 0.34396h1.6669v1.3582h-1.6669c-1.2524 0-2.1167-0.23224-2.5929-0.69673-0.47625-0.47037-0.71437-1.3229-0.71437-2.5576v-5.3622h-1.1906v-1.2612h1.1906v-2.8046h1.6316"/>
 </g>
 <g id="text298">
  <path id="path3261" style="" d="m340.57 311.15-7.9639 2.8321 7.9639 2.8167v1.4045l-9.8932-3.5884v-1.281l9.8932-3.5884v1.4045"/>
  <path id="path3263" style="" d="m353.81 311.15-7.9639 2.8321 7.9639 2.8167v1.4045l-9.8932-3.5884v-1.281l9.8932-3.5884v1.4045"/>
  <path id="path3265" style="" d="m367.05 311.15-7.9639 2.8321 7.9639 2.8167v1.4045l-9.8932-3.5884v-1.281l9.8932-3.5884v1.4045"/>
 </g>
 <g id="text302">
  <path id="path3268" style="" d="m372.95 314.54h6.9938v1.4993h-5.3622v3.2279c0.2587-0.0882 0.5174-0.15286 0.77611-0.19402 0.2587-0.047 0.5174-0.0706 0.77611-0.0706 1.4699 0.00001 2.6341 0.40276 3.4925 1.2083 0.85841 0.80552 1.2876 1.8962 1.2876 3.272-0.00001 1.417-0.44098 2.5194-1.3229 3.3073-0.88195 0.78199-2.1255 1.173-3.7306 1.173-0.55269 0-1.1171-0.047-1.6933-0.14111-0.57033-0.0941-1.1612-0.23519-1.7727-0.42334v-1.7903c0.52916 0.2881 1.076 0.50271 1.6404 0.64382 0.56444 0.14111 1.1612 0.21166 1.7903 0.21166 1.0172 0 1.8227-0.26752 2.4165-0.80257 0.59383-0.53504 0.89075-1.2612 0.89076-2.1784-0.00001-0.91721-0.29693-1.6433-0.89076-2.1784-0.59385-0.53503-1.3994-0.80256-2.4165-0.80256-0.47625 0-0.9525 0.0529-1.4288 0.15875-0.47037 0.10584-0.9525 0.27046-1.4464 0.49388v-6.6146"/>
 </g>
 <g id="text306">
  <path id="path3271" style="" d="m374.57 401.15-7.9639 2.8321 7.9639 2.8167v1.4045l-9.8932-3.5884v-1.281l9.8932-3.5884v1.4045"/>
  <path id="path3273" style="" d="m387.81 401.15-7.9639 2.8321 7.9639 2.8167v1.4045l-9.8932-3.5884v-1.281l9.8932-3.5884v1.4045"/>
  <path id="path3275" style="" d="m401.05 401.15-7.9639 2.8321 7.9639 2.8167v1.4045l-9.8932-3.5884v-1.281l9.8932-3.5884v1.4045"/>
 </g>
 <g id="text310">
  <path id="path3278" style="" d="m410.33 410.61c0.85254 0.18227 1.5169 0.56151 1.9932 1.1377 0.48212 0.5762 0.72319 1.2876 0.7232 2.1343-0.00001 1.2994-0.44687 2.3048-1.3406 3.0162-0.89371 0.71143-2.1637 1.0672-3.81 1.0672-0.55269 0-1.123-0.0559-1.711-0.16757-0.58209-0.10584-1.1848-0.26753-1.808-0.48507v-1.7198c0.49389 0.2881 1.0348 0.50565 1.6228 0.65264 0.58796 0.14699 1.2024 0.22048 1.8433 0.22048 1.1171 0 1.9667-0.22048 2.5488-0.66145 0.58795-0.44097 0.88193-1.0818 0.88194-1.9226-0.00001-0.77611-0.27341-1.3817-0.82021-1.8168-0.54093-0.44097-1.2965-0.66146-2.2666-0.66146h-1.5346v-1.464h1.6051c0.87606 0.00001 1.5463-0.17344 2.0108-0.52034 0.46449-0.35277 0.69673-0.85842 0.69674-1.517-0.00001-0.67614-0.24107-1.1936-0.72319-1.5522-0.47626-0.36452-1.1612-0.54679-2.0549-0.5468-0.48802 0.00001-1.0113 0.0529-1.5699 0.15875-0.55857 0.10584-1.173 0.27047-1.8433 0.49389v-1.5875c0.67615-0.18814 1.3082-0.32925 1.8962-0.42334 0.59384-0.0941 1.1524-0.14109 1.6757-0.14111 1.3523 0.00002 2.4224 0.3087 3.2103 0.92604 0.78786 0.6115 1.1818 1.4405 1.1818 2.4871 0 0.72909-0.20873 1.3464-0.62617 1.8521-0.41747 0.49977-1.0113 0.84667-1.7815 1.0407"/>
  <path id="path3280" style="" d="m420.24 405.71c-0.91722 0.00001-1.6081 0.45275-2.0726 1.3582-0.45862 0.89959-0.68792 2.2548-0.68792 4.0658 0 1.805 0.2293 3.1603 0.68792 4.0658 0.46448 0.89959 1.1553 1.3494 2.0726 1.3494 0.9231 0 1.614-0.44979 2.0726-1.3494 0.46448-0.90545 0.69673-2.2607 0.69674-4.0658-0.00001-1.8109-0.23226-3.1662-0.69674-4.0658-0.45862-0.90545-1.1495-1.3582-2.0726-1.3582m0-1.4111c1.4758 0.00002 2.6017 0.58504 3.3778 1.7551 0.78198 1.1642 1.173 2.8575 1.173 5.08-0.00001 2.2166-0.391 3.91-1.173 5.08-0.77612 1.1642-1.9021 1.7462-3.3778 1.7462-1.4758 0-2.6047-0.58209-3.3867-1.7462-0.77611-1.17-1.1642-2.8634-1.1642-5.08-0.00001-2.2225 0.38805-3.9158 1.1642-5.08 0.78199-1.17 1.9109-1.755 3.3867-1.7551"/>
 </g>
</svg>
