<?xml version="1.0" encoding="UTF-8" standalone="no"?>
<!-- Created with Inkscape (http://www.inkscape.org/) -->
<svg id="svg2" xmlns:rdf="http://www.w3.org/1999/02/22-rdf-syntax-ns#" xmlns="http://www.w3.org/2000/svg" height="108.14" width="208.45" version="1.1" xmlns:cc="http://creativecommons.org/ns#" xmlns:dc="http://purl.org/dc/elements/1.1/" viewBox="209 79 110.79644 47.306643">
 <metadata id="metadata40">
  <rdf:RDF>
   <cc:Work rdf:about="">
    <dc:format>image/svg+xml</dc:format>
    <dc:type rdf:resource="http://purl.org/dc/dcmitype/StillImage"/>
   </cc:Work>
  </rdf:RDF>
 </metadata>
 <g id="text4">
  <path id="path2999" style="" d="m216.21 82.583c-0.00001-1.1759-0.24401-2.0873-0.73201-2.734-0.48214-0.64675-1.1612-0.97013-2.0373-0.97014-0.87019 0.000009-1.5493 0.32339-2.0373 0.97014-0.48213 0.64677-0.72319 1.5581-0.72319 2.734 0 1.17 0.24106 2.0784 0.72319 2.7252 0.48801 0.64676 1.1671 0.97014 2.0373 0.97014 0.87606 0.000002 1.5552-0.32338 2.0373-0.97014 0.488-0.64676 0.732-1.5552 0.73201-2.7252m1.6228 3.8276c-0.00001 1.6816-0.37337 2.931-1.1201 3.7483-0.74672 0.82314-1.8903 1.2347-3.4308 1.2347-0.57033-0.000004-1.1083-0.0441-1.614-0.13229-0.50565-0.08232-0.99659-0.21167-1.4728-0.38806v-1.5787c0.47625 0.2587 0.94662 0.44979 1.4111 0.57326s0.93779 0.18521 1.4199 0.18521c1.0642-0.000002 1.8609-0.27928 2.3901-0.83785 0.52916-0.55269 0.79374-1.3905 0.79375-2.5135v-0.80257c-0.33514 0.58208-0.76436 1.0172-1.2876 1.3053-0.5233 0.2881-1.1495 0.43215-1.8785 0.43215-1.2112 0-2.1872-0.46155-2.9281-1.3847-0.74083-0.9231-1.1112-2.1461-1.1112-3.6689-0.00001-1.5287 0.37041-2.7546 1.1112-3.6777 0.74083-0.92309 1.7168-1.3846 2.9281-1.3847 0.72906 0.000011 1.3552 0.14406 1.8785 0.43215 0.52327 0.28811 0.95249 0.7232 1.2876 1.3053v-1.4993h1.6228v8.6519"/>
  <path id="path3001" style="" d="m225.28 88.554c-0.45861 1.1759-0.90547 1.9432-1.3406 2.3019-0.4351 0.35865-1.0172 0.53798-1.7462 0.53799h-1.2965v-1.3582h0.9525c0.44685-0.000002 0.79375-0.10584 1.0407-0.3175 0.24694-0.21167 0.52035-0.71144 0.82021-1.4993l0.29104-0.74083-3.9952-9.719h1.7198l3.0868 7.7258 3.0868-7.7258h1.7198l-4.3392 10.795"/>
  <path id="path3003" style="" d="m235.69 78.896c-0.87019 0.000009-1.5581 0.34103-2.0637 1.0231-0.50565 0.67616-0.75848 1.6051-0.75848 2.7869s0.24989 2.1137 0.74966 2.7958c0.50564 0.67616 1.1965 1.0142 2.0726 1.0142 0.8643 0.000001 1.5493-0.34102 2.0549-1.0231 0.50564-0.68203 0.75846-1.611 0.75847-2.7869-0.00001-1.17-0.25283-2.0961-0.75847-2.7781-0.50565-0.68791-1.1906-1.0319-2.0549-1.0319m0-1.3758c1.4111 0.000011 2.5194 0.45862 3.3249 1.3758 0.8055 0.91723 1.2082 2.1872 1.2083 3.81-0.00001 1.6169-0.40276 2.8869-1.2083 3.81-0.80552 0.91722-1.9138 1.3758-3.3249 1.3758-1.417-0.000001-2.5282-0.45861-3.3337-1.3758-0.79963-0.9231-1.1994-2.1931-1.1994-3.81 0-1.6228 0.39982-2.8928 1.1994-3.81 0.8055-0.91721 1.9168-1.3758 3.3337-1.3758"/>
  <path id="path3005" style="" d="m242.84 73.913h1.6316v8.1051l4.8419-4.2598h2.0726l-5.2388 4.6214 5.4592 5.2564h-2.1167l-5.0183-4.8242v4.8242h-1.6316v-13.723"/>
  <path id="path3007" style="" d="m261.18 82.292v0.79375h-7.4612c0.0706 1.1171 0.4057 1.9697 1.0054 2.5576 0.6056 0.58208 1.4464 0.87312 2.5224 0.87312 0.62323 0.000001 1.2259-0.07643 1.808-0.2293 0.58796-0.15287 1.17-0.38217 1.7462-0.68792v1.5346c-0.58209 0.24694-1.1789 0.43509-1.7903 0.56444-0.61149 0.12935-1.2318 0.19403-1.8609 0.19403-1.5757-0.000001-2.8252-0.45861-3.7482-1.3758-0.91723-0.91722-1.3758-2.1578-1.3758-3.7218 0-1.6169 0.43509-2.8986 1.3053-3.8453 0.87606-0.95249 2.0549-1.4287 3.5366-1.4287 1.3288 0.000011 2.3783 0.42922 3.1485 1.2876 0.7761 0.85255 1.1642 2.0138 1.1642 3.4837m-1.6228-0.47625c-0.0118-0.88782-0.26165-1.5963-0.74965-2.1255-0.48214-0.52916-1.123-0.79374-1.9226-0.79375-0.90547 0.000009-1.6316 0.25577-2.1784 0.76729-0.54093 0.51154-0.85255 1.2318-0.93486 2.1608l5.7856-0.0088"/>
  <path id="path3009" style="" d="m269.57 79.275c-0.18228-0.10582-0.38218-0.18226-0.59972-0.2293-0.21168-0.05291-0.44686-0.07937-0.70556-0.07937-0.91722 0.000008-1.6228 0.29987-2.1167 0.89958-0.48801 0.59385-0.73202 1.4493-0.73201 2.5665v5.2035h-1.6316v-9.8778h1.6316v1.5346c0.34101-0.59971 0.78492-1.0436 1.3317-1.3317 0.5468-0.29397 1.2112-0.44096 1.9932-0.44097 0.11171 0.000011 0.23518 0.0088 0.37042 0.02646 0.13522 0.01177 0.28515 0.03235 0.44979 0.06174l0.009 1.6669"/>
 </g>
 <g id="g8" stroke="#000" stroke-width="2" fill="none" transform="translate(-1.2036 -8.6137)">
  <path id="line10" d="m270 90 25.023 12.512"/>
  <path id="polyline12" d="m285.84 103.51h11.18l-6.708-8.9446"/>
 </g>
 <g id="text14">
  <path id="path3014" style="" d="m217.87 119.65c0.40568-0.72906 0.89075-1.267 1.4552-1.614 0.56444-0.34689 1.2288-0.52034 1.9932-0.52035 1.0289 0.00001 1.8227 0.36161 2.3812 1.0848 0.55855 0.71732 0.83783 1.7404 0.83785 3.0692v5.9619h-1.6316v-5.909c-0.00001-0.94661-0.16758-1.6492-0.5027-2.1078-0.33516-0.4586-0.84668-0.6879-1.5346-0.68791-0.84079 0.00001-1.5052 0.27929-1.9932 0.83784-0.48802 0.55858-0.73202 1.32-0.73201 2.2842v5.5827h-1.6316v-5.909c0-0.95249-0.16757-1.6551-0.5027-2.1078-0.33515-0.4586-0.85256-0.6879-1.5522-0.68791-0.82904 0.00001-1.4876 0.28223-1.9756 0.84666-0.48801 0.55858-0.73201 1.317-0.73201 2.2754v5.5827h-1.6316v-9.8778h1.6316v1.5346c0.37041-0.60559 0.81432-1.0524 1.3317-1.3406 0.51741-0.28809 1.1318-0.43214 1.8433-0.43215 0.7173 0.00001 1.3258 0.18228 1.8256 0.5468 0.50564 0.36455 0.87899 0.89371 1.1201 1.5875"/>
  <path id="path3016" style="" d="m231.61 118.9c-0.87018 0.00001-1.5581 0.34103-2.0637 1.023-0.50565 0.67617-0.75848 1.6052-0.75847 2.787-0.00001 1.1818 0.24988 2.1137 0.74965 2.7958 0.50564 0.67615 1.1965 1.0142 2.0726 1.0142 0.8643 0 1.5493-0.34102 2.0549-1.023 0.50564-0.68204 0.75847-1.611 0.75847-2.7869 0-1.17-0.25283-2.0961-0.75847-2.7781-0.50565-0.6879-1.1906-1.0319-2.0549-1.0319m0-1.3758c1.4111 0.00001 2.5194 0.45862 3.3249 1.3758 0.8055 0.91723 1.2082 2.1872 1.2083 3.81-0.00001 1.6169-0.40276 2.8869-1.2083 3.81-0.80552 0.91722-1.9138 1.3758-3.3249 1.3758-1.417 0-2.5282-0.45861-3.3337-1.3758-0.79963-0.9231-1.1994-2.1931-1.1994-3.81-0.00001-1.6228 0.39981-2.8928 1.1994-3.81 0.8055-0.91721 1.9168-1.3758 3.3337-1.3758"/>
  <path id="path3018" style="" d="m238.12 117.76h7.7082v1.4817l-6.103 7.0996h6.103v1.2965h-7.9287v-1.4817l6.103-7.0996h-5.8826v-1.2965"/>
  <path id="path3020" style="" d="m254.81 122.58c0-1.1759-0.24401-2.0873-0.73201-2.734-0.48214-0.64675-1.1612-0.97013-2.0373-0.97014-0.87019 0.00001-1.5493 0.32339-2.0373 0.97014-0.48213 0.64676-0.72319 1.5581-0.72319 2.734 0 1.17 0.24106 2.0784 0.72319 2.7252 0.48801 0.64676 1.1671 0.97014 2.0373 0.97014 0.87606 0 1.5552-0.32338 2.0373-0.97014 0.488-0.64676 0.73201-1.5552 0.73201-2.7252m1.6228 3.8276c-0.00001 1.6816-0.37337 2.931-1.1201 3.7483-0.74672 0.82314-1.8903 1.2347-3.4308 1.2347-0.57033-0.00001-1.1083-0.0441-1.614-0.13229-0.50566-0.0823-0.9966-0.21167-1.4728-0.38806v-1.5787c0.47625 0.2587 0.94662 0.44979 1.4111 0.57327 0.46449 0.12347 0.93779 0.1852 1.4199 0.1852 1.0642 0 1.8609-0.27928 2.3901-0.83784 0.52916-0.55269 0.79375-1.3905 0.79375-2.5135v-0.80257c-0.33514 0.58208-0.76435 1.0172-1.2876 1.3053-0.5233 0.2881-1.1495 0.43215-1.8785 0.43215-1.2112 0-2.1872-0.46155-2.928-1.3846-0.74084-0.9231-1.1112-2.1461-1.1112-3.6689 0-1.5287 0.37041-2.7546 1.1112-3.6777 0.74082-0.92309 1.7168-1.3846 2.928-1.3846 0.72906 0.00001 1.3552 0.14406 1.8785 0.43215 0.52328 0.28811 0.95249 0.7232 1.2876 1.3053v-1.4993h1.6228v8.6519"/>
  <path id="path3022" style="" d="m263.61 118.9c-0.87019 0.00001-1.5581 0.34103-2.0638 1.023-0.50565 0.67617-0.75847 1.6052-0.75847 2.787s0.24988 2.1137 0.74965 2.7958c0.50565 0.67615 1.1965 1.0142 2.0726 1.0142 0.8643 0 1.5493-0.34102 2.0549-1.023 0.50564-0.68204 0.75846-1.611 0.75847-2.7869-0.00001-1.17-0.25283-2.0961-0.75847-2.7781-0.50566-0.6879-1.1906-1.0319-2.0549-1.0319m0-1.3758c1.4111 0.00001 2.5194 0.45862 3.3249 1.3758 0.80549 0.91723 1.2082 2.1872 1.2083 3.81-0.00001 1.6169-0.40277 2.8869-1.2083 3.81-0.80552 0.91722-1.9138 1.3758-3.3249 1.3758-1.417 0-2.5282-0.45861-3.3338-1.3758-0.79963-0.9231-1.1994-2.1931-1.1994-3.81 0-1.6228 0.39981-2.8928 1.1994-3.81 0.80551-0.91721 1.9168-1.3758 3.3338-1.3758"/>
 </g>
 <g id="g18" stroke="#000" stroke-width="2" fill="none" transform="translate(-1.2036 -8.6137)">
  <path id="line20" d="m270 130 25.023-12.512"/>
  <path id="polyline22" d="m290.32 125.43 6.708-8.945h-11.18"/>
 </g>
 <g id="g24" transform="translate(-1.2036 -8.6137)">
  <g id="g26">
   <path id="rect28" fill="#fff" d="m300 100h20v20h-20z"/>
   <path id="rect30" d="m300 100h20v20h-20z" stroke="#000" stroke-width="2" fill="none"/>
  </g>
  <path id="line32" d="m300 100 20 20" stroke="#000" stroke-width="2" fill="none"/>
  <path id="line34" d="m300 120 20-20" stroke="#000" stroke-width="2" fill="none"/>
 </g>
</svg>
