<?xml version="1.0" encoding="UTF-8" standalone="no"?>
<!-- Created with Inkscape (http://www.inkscape.org/) -->
<svg id="svg2" xmlns:rdf="http://www.w3.org/1999/02/22-rdf-syntax-ns#" xmlns="http://www.w3.org/2000/svg" height="437.18" width="529.68" version="1.1" xmlns:cc="http://creativecommons.org/ns#" xmlns:dc="http://purl.org/dc/elements/1.1/" viewBox="178 78 292.00001 229.6812">
 <metadata id="metadata184">
  <rdf:RDF>
   <cc:Work rdf:about="">
    <dc:format>image/svg+xml</dc:format>
    <dc:type rdf:resource="http://purl.org/dc/dcmitype/StillImage"/>
   </cc:Work>
  </rdf:RDF>
 </metadata>
 <g id="g4" transform="translate(-1 -6.6629)">
  <path id="rect6" fill="#7babe3" d="m300 80h40v40h-40z"/>
  <path id="rect8" d="m300 80h40v40h-40z" stroke="#000" stroke-width="2" fill="none"/>
 </g>
 <g id="g10" transform="translate(-1 -6.6629)">
  <path id="rect12" fill="#7babe3" d="m220 140h40v40h-40z"/>
  <path id="rect14" d="m220 140h40v40h-40z" stroke="#000" stroke-width="2" fill="none"/>
 </g>
 <g id="g16" transform="translate(-1 -6.6629)">
  <path id="rect18" fill="#7babe3" d="m180 200h40v40h-40z"/>
  <path id="rect20" d="m180 200h40v40h-40z" stroke="#000" stroke-width="2" fill="none"/>
 </g>
 <g id="g22" transform="translate(-1 -6.6629)">
  <path id="rect24" fill="#7babe3" d="m260 200h40v40h-40z"/>
  <path id="rect26" d="m260 200h40v40h-40z" stroke="#000" stroke-width="2" fill="none"/>
 </g>
 <g id="g28" transform="translate(-1 -6.6629)">
  <path id="rect30" fill="#7babe3" d="m380 140h40v40h-40z"/>
  <path id="rect32" d="m380 140h40v40h-40z" stroke="#000" stroke-width="2" fill="none"/>
 </g>
 <g id="g34" stroke="#000" stroke-width="2" fill="none" transform="translate(-1 -6.6629)">
  <path id="line36" d="m299.02 115.73-34.469 25.852"/>
  <path id="polyline38" d="m267.76 132.93-5 10 11-2"/>
 </g>
 <g id="g40" stroke="#000" stroke-width="2" fill="none" transform="translate(-1 -6.6629)">
  <path id="line42" d="m226.01 180.99-9.531 14.297"/>
  <path id="polyline44" d="m216.62 186.05-1.387 11.094 9.708-5.547"/>
 </g>
 <g id="g46" stroke="#000" stroke-width="2" fill="none" transform="translate(-1 -6.6629)">
  <path id="line48" d="m253.99 180.99 9.531 14.297"/>
  <path id="polyline50" d="m255.06 191.6 9.708 5.547-1.387-11.094"/>
 </g>
 <g id="g52" stroke="#000" stroke-width="2" fill="none" transform="translate(-1 -6.6629)">
  <path id="line54" d="m340.98 115.73 34.469 25.852"/>
  <path id="polyline56" d="m366.24 140.93 11 2-5-10"/>
 </g>
 <g id="text58">
  <path id="path3089" style="" d="m313.3 82.961h10.491v2.249h-8.0433v4.8419c0.38805-0.13228 0.7761-0.22929 1.1642-0.29104 0.38805-0.07054 0.77611-0.10582 1.1642-0.10583 2.2048 0.000013 3.9511 0.60414 5.2387 1.8124s1.9314 2.8443 1.9315 4.908c-0.00002 2.1255-0.66147 3.7791-1.9844 4.9609-1.3229 1.173-3.1882 1.7595-5.5959 1.7595-0.82904 0-1.6757-0.0705-2.54-0.21166-0.85549-0.14111-1.7418-0.35278-2.6591-0.635v-2.6855c0.79375 0.43216 1.614 0.75407 2.4606 0.96573 0.84666 0.21167 1.7418 0.3175 2.6855 0.3175 1.5258 0 2.734-0.40128 3.6248-1.2039 0.89075-0.80256 1.3361-1.8918 1.3361-3.2676-0.00001-1.3758-0.44539-2.465-1.3361-3.2676-0.89078-0.80256-2.099-1.2038-3.6248-1.2039-0.71438 0.000011-1.4288 0.07939-2.1431 0.23812-0.70556 0.15876-1.4288 0.4057-2.1696 0.74083v-9.9219"/>
 </g>
 <g id="text62">
  <path id="path3092" style="" d="m241.37 152.06c1.2788 0.27341 2.2754 0.84226 2.9898 1.7066 0.72317 0.86431 1.0848 1.9315 1.0848 3.2014-0.00002 1.9491-0.6703 3.4572-2.0108 4.5244-1.3406 1.0672-3.2456 1.6007-5.715 1.6007-0.82903 0-1.6845-0.0838-2.5664-0.25136-0.87313-0.15875-1.7771-0.40128-2.712-0.7276v-2.5797c0.74083 0.43215 1.5522 0.75847 2.4342 0.97895 0.88193 0.22049 1.8036 0.33073 2.7649 0.33073 1.6757 0 2.9501-0.33073 3.8232-0.99219 0.88193-0.66145 1.3229-1.6228 1.3229-2.884-0.00002-1.1642-0.41012-2.0726-1.2303-2.7252-0.8114-0.66145-1.9447-0.99218-3.3999-0.99219h-2.3019v-2.196h2.4077c1.3141 0.00001 2.3195-0.26016 3.0162-0.78052 0.69673-0.52915 1.0451-1.2876 1.0451-2.2754-0.00002-1.0142-0.36161-1.7903-1.0848-2.3283-0.71439-0.54679-1.7418-0.82019-3.0824-0.82021-0.73202 0.00002-1.5169 0.0794-2.3548 0.23812-0.83786 0.15877-1.7595 0.40571-2.7649 0.74084v-2.3812c1.0142-0.2822 1.9623-0.49387 2.8443-0.635 0.89076-0.14109 1.7286-0.21165 2.5135-0.21167 2.0285 0.00002 3.6336 0.46304 4.8154 1.3891 1.1818 0.91724 1.7727 2.1608 1.7727 3.7306-0.00002 1.0936-0.31311 2.0197-0.93927 2.7781-0.6262 0.74966-1.517 1.27-2.6723 1.561"/>
 </g>
 <g id="text66">
  <path id="path3095" style="" d="m193.73 220.46h4.3656v-15.068l-4.7493 0.9525v-2.4342l4.7228-0.9525h2.6723v17.502h4.3656v2.249h-11.377v-2.249"/>
 </g>
 <g id="text70">
  <path id="path3098" style="" d="m280.61 205.29-6.7469 10.544h6.7469v-10.544m-0.70115-2.3283h3.3602v12.872h2.8178v2.2225h-2.8178v4.6567h-2.6591v-4.6567h-8.9164v-2.5797l8.2153-12.515"/>
 </g>
 <g id="text74">
  <path id="path3101" style="" d="m398.99 153.33c-1.27 0.00001-2.271 0.33956-3.003 1.0186-0.72319 0.6791-1.0848 1.614-1.0848 2.8046s0.3616 2.1255 1.0848 2.8046c0.73201 0.6791 1.733 1.0186 3.003 1.0186s2.271-0.33954 3.003-1.0186c0.732-0.68791 1.098-1.6228 1.098-2.8046-0.00002-1.1906-0.36602-2.1255-1.098-2.8046-0.72321-0.67909-1.7242-1.0186-3.003-1.0186m-2.6723-1.1377c-1.1465-0.28221-2.0417-0.81579-2.6855-1.6007-0.635-0.78492-0.9525-1.7418-0.95249-2.8707-0.00001-1.5787 0.56003-2.8266 1.6801-3.7438 1.1289-0.9172 2.6723-1.3758 4.6302-1.3758 1.9667 0.00002 3.5101 0.45863 4.6302 1.3758 1.1201 0.91724 1.6801 2.1652 1.6801 3.7438-0.00002 1.1289-0.32193 2.0858-0.96573 2.8707-0.63501 0.78494-1.5214 1.3185-2.6591 1.6007 1.2876 0.29987 2.2886 0.88636 3.003 1.7595 0.72317 0.87314 1.0848 1.9403 1.0848 3.2015-0.00002 1.9138-0.58651 3.3822-1.7595 4.4053-1.1642 1.023-2.8355 1.5346-5.0138 1.5346-2.1784 0-3.8541-0.51153-5.0271-1.5346-1.1642-1.0231-1.7462-2.4915-1.7462-4.4053-0.00001-1.2612 0.36159-2.3283 1.0848-3.2015 0.72319-0.87311 1.7286-1.4596 3.0162-1.7595m-0.97895-4.2201c-0.00001 1.0231 0.31749 1.8212 0.95249 2.3945 0.64382 0.57328 1.5434 0.85991 2.6988 0.8599 1.1465 0.00001 2.0417-0.28662 2.6855-0.8599 0.65262-0.57325 0.97894-1.3714 0.97896-2.3945-0.00002-1.023-0.32634-1.8212-0.97896-2.3945-0.64383-0.57324-1.539-0.85988-2.6855-0.85989-1.1554 0.00001-2.0549 0.28665-2.6988 0.85989-0.635 0.57328-0.9525 1.3714-0.95249 2.3945"/>
 </g>
 <g id="g78" transform="translate(-1 -6.6629)">
  <path id="rect80" fill="#7babe3" d="m200 260h40v40h-40z"/>
  <path id="rect82" d="m200 260h40v40h-40z" stroke="#000" stroke-width="2" fill="none"/>
 </g>
 <g id="text84">
  <path id="path3106" style="" d="m215.57 280.46h9.3266v2.249h-12.541v-2.249c1.0142-1.0495 2.3945-2.4562 4.1407-4.2201 1.7551-1.7727 2.8575-2.9148 3.3073-3.4264 0.85547-0.96131 1.4508-1.7727 1.7859-2.4342 0.34395-0.67027 0.51593-1.3273 0.51594-1.9711-0.00001-1.0495-0.37043-1.905-1.1112-2.5665-0.73202-0.66144-1.6889-0.99217-2.8707-0.99219-0.83786 0.00002-1.7242 0.14554-2.6591 0.43657-0.92605 0.29105-1.9182 0.73203-2.9766 1.3229v-2.6988c1.076-0.43213 2.0814-0.75845 3.0162-0.97895 0.93486-0.22047 1.7903-0.33071 2.5665-0.33073 2.0461 0.00002 3.6777 0.51154 4.8948 1.5346s1.8256 2.3901 1.8256 4.101c-0.00002 0.8114-0.15436 1.5831-0.46302 2.3151-0.29988 0.7232-0.85109 1.5787-1.6536 2.5664-0.22049 0.25578-0.92164 0.99661-2.1034 2.2225-1.1818 1.2171-2.8487 2.9236-5.0006 5.1197"/>
 </g>
 <g id="g88" transform="translate(-1 -6.6629)">
  <path id="rect90" fill="#7babe3" d="m340 200h40v40h-40z"/>
  <path id="rect92" d="m340 200h40v40h-40z" stroke="#000" stroke-width="2" fill="none"/>
 </g>
 <g id="text94">
  <path id="path3111" style="" d="m359.32 211.77c-1.1994 0.00002-2.152 0.41012-2.8575 1.2303-0.69674 0.82021-1.0451 1.9447-1.0451 3.3734 0 1.4199 0.34836 2.5444 1.0451 3.3734 0.70555 0.82021 1.658 1.2303 2.8575 1.2303 1.1994 0 2.1475-0.4101 2.8443-1.2303 0.70554-0.82902 1.0583-1.9535 1.0583-3.3734-0.00001-1.4287-0.35279-2.5532-1.0583-3.3734-0.69675-0.8202-1.6448-1.2303-2.8443-1.2303m5.3049-8.374v2.4342c-0.67029-0.31749-1.3494-0.56002-2.0373-0.72761-0.67911-0.16755-1.3538-0.25133-2.0241-0.25135-1.7639 0.00002-3.1133 0.59533-4.0481 1.7859-0.92605 1.1906-1.4552 2.9898-1.5875 5.3975 0.52034-0.76728 1.173-1.3538 1.9579-1.7595 0.78492-0.4145 1.6492-0.62176 2.5929-0.62177 1.9844 0.00001 3.5498 0.60414 4.6964 1.8124 1.1553 1.1995 1.733 2.8355 1.733 4.908-0.00002 2.0285-0.59974 3.6557-1.7992 4.8816-1.1994 1.2259-2.7958 1.8389-4.789 1.8389-2.2842 0-4.0305-0.87313-5.2387-2.6194-1.2083-1.7551-1.8124-4.295-1.8124-7.62 0-3.1221 0.74083-5.6091 2.2225-7.4612 1.4817-1.8609 3.4704-2.7913 5.9664-2.7914 0.67026 0.00002 1.345 0.0662 2.0241 0.19844 0.6879 0.13231 1.4023 0.33075 2.1431 0.59531"/>
 </g>
 <g id="g98" transform="translate(-1 -6.6629)">
  <path id="rect100" fill="#7babe3" d="m360 260h40v40h-40z"/>
  <path id="rect102" d="m360 260h40v40h-40z" stroke="#000" stroke-width="2" fill="none"/>
 </g>
 <g id="text104">
  <path id="path3116" style="" d="m372.6 262.96h12.7v1.1377l-7.1702 18.613h-2.7914l6.7469-17.502h-9.4853v-2.249"/>
 </g>
 <g id="g108" transform="translate(-1 -6.6629)">
  <path id="rect110" fill="#7babe3" d="m420 200h40v40h-40z"/>
  <path id="rect112" d="m420 200h40v40h-40z" stroke="#000" stroke-width="2" fill="none"/>
 </g>
 <g id="text114">
  <path id="path3121" style="" d="m433.35 222.3v-2.4342c0.67028 0.31751 1.3494 0.56004 2.0373 0.72761 0.68791 0.16757 1.3626 0.25135 2.0241 0.25135 1.7639 0 3.1088-0.5909 4.0349-1.7727 0.93485-1.1906 1.4684-2.9942 1.6007-5.4107-0.51154 0.75848-1.1598 1.3406-1.9447 1.7462-0.78493 0.4057-1.6536 0.60855-2.6061 0.60854-1.9756 0.00001-3.541-0.5953-4.6964-1.7859-1.1465-1.1994-1.7198-2.8354-1.7198-4.908 0-2.0284 0.59972-3.6556 1.7992-4.8816 1.1994-1.2259 2.7958-1.8388 4.789-1.8388 2.2842 0.00002 4.0261 0.87756 5.2255 2.6326 1.2082 1.7463 1.8124 4.2863 1.8124 7.62-0.00002 3.1133-0.74085 5.6004-2.2225 7.4612-1.4729 1.8521-3.4572 2.7781-5.9531 2.7781-0.67028 0-1.3494-0.0661-2.0373-0.19844-0.68793-0.13229-1.4023-0.33073-2.1431-0.59531m5.3181-8.374c1.1994 0 2.1475-0.4101 2.8443-1.2303 0.70554-0.82019 1.0583-1.9447 1.0583-3.3734-0.00001-1.4199-0.35279-2.54-1.0583-3.3602-0.69675-0.82901-1.6448-1.2435-2.8443-1.2435-1.1994 0.00001-2.152 0.41453-2.8575 1.2435-0.69674 0.82022-1.0451 1.9403-1.0451 3.3602 0 1.4288 0.34836 2.5532 1.0451 3.3734 0.70555 0.82022 1.658 1.2303 2.8575 1.2303"/>
 </g>
 <g id="g118" stroke="#000" stroke-width="2" fill="none" transform="translate(-1 -6.6629)">
  <path id="line120" d="m207 240.99 4.592 13.775"/>
  <path id="polyline122" d="m204.39 248.98 7.906 7.905 1.581-11.068"/>
 </g>
 <g id="g124" stroke="#000" stroke-width="2" fill="none" transform="translate(-1 -6.6629)">
  <path id="line126" d="m367 240.99 4.592 13.775"/>
  <path id="polyline128" d="m364.39 248.98 7.906 7.905 1.581-11.068"/>
 </g>
 <g id="g130" stroke="#000" stroke-width="2" fill="none" transform="translate(-1 -6.6629)">
  <path id="line132" d="m386.01 180.99-9.531 14.297"/>
  <path id="polyline134" d="m376.62 186.05-1.387 11.094 9.708-5.547"/>
 </g>
 <g id="g136" stroke="#000" stroke-width="2" fill="none" transform="translate(-1 -6.6629)">
  <path id="line138" d="m413.99 180.99 9.531 14.297"/>
  <path id="polyline140" d="m415.06 191.6 9.708 5.547-1.387-11.094"/>
 </g>
 <g id="text142">
  <path id="path3132" style="" d="m216.41 84.534c-0.00001-1.1759-0.24401-2.0873-0.73201-2.734-0.48214-0.64675-1.1612-0.97013-2.0373-0.97014-0.87019 0.000008-1.5493 0.32339-2.0373 0.97014-0.48213 0.64677-0.7232 1.5581-0.72319 2.734-0.00001 1.17 0.24106 2.0784 0.72319 2.7252 0.488 0.64676 1.1671 0.97014 2.0373 0.97014 0.87606 0.000001 1.5552-0.32338 2.0373-0.97014 0.488-0.64676 0.732-1.5552 0.73201-2.7252m1.6228 3.8276c-0.00001 1.6816-0.37337 2.931-1.1201 3.7483-0.74672 0.82314-1.8903 1.2347-3.4308 1.2347-0.57033-0.000004-1.1083-0.0441-1.614-0.13229-0.50565-0.08232-0.9966-0.21167-1.4728-0.38806v-1.5787c0.47624 0.2587 0.94661 0.44979 1.4111 0.57326 0.46448 0.12347 0.93779 0.18521 1.4199 0.18521 1.0642-0.000002 1.8609-0.27928 2.3901-0.83785 0.52916-0.55268 0.79374-1.3905 0.79375-2.5135v-0.80257c-0.33515 0.58208-0.76436 1.0172-1.2876 1.3053-0.52329 0.2881-1.1495 0.43215-1.8785 0.43215-1.2112 0-2.1872-0.46155-2.928-1.3847-0.74083-0.9231-1.1112-2.1461-1.1112-3.6689 0-1.5287 0.37042-2.7546 1.1112-3.6777 0.74083-0.92309 1.7168-1.3846 2.928-1.3847 0.72907 0.00001 1.3552 0.14406 1.8785 0.43215 0.52328 0.28811 0.95249 0.7232 1.2876 1.3053v-1.4993h1.6228v8.6519"/>
  <path id="path3134" style="" d="m225.48 90.504c-0.45862 1.1759-0.90547 1.9432-1.3406 2.3019-0.43509 0.35865-1.0172 0.53798-1.7462 0.53798h-1.2965v-1.3582h0.9525c0.44685-0.000002 0.79374-0.10584 1.0407-0.3175 0.24694-0.21167 0.52034-0.71144 0.82021-1.4993l0.29104-0.74083-3.9952-9.719h1.7198l3.0868 7.7258 3.0868-7.7258h1.7198l-4.3392 10.795"/>
  <path id="path3136" style="" d="m235.89 80.847c-0.87019 0.000009-1.5581 0.34103-2.0638 1.0231-0.50565 0.67616-0.75847 1.6051-0.75847 2.7869s0.24988 2.1137 0.74965 2.7958c0.50565 0.67616 1.1965 1.0142 2.0726 1.0142 0.8643 0.000001 1.5493-0.34102 2.0549-1.0231 0.50564-0.68203 0.75846-1.611 0.75847-2.7869-0.00001-1.17-0.25283-2.0961-0.75847-2.7781-0.50566-0.68791-1.1906-1.0319-2.0549-1.0319m0-1.3758c1.4111 0.00001 2.5194 0.45862 3.3249 1.3758 0.8055 0.91723 1.2082 2.1872 1.2083 3.81-0.00001 1.6169-0.40276 2.8869-1.2083 3.81-0.80552 0.91722-1.9138 1.3758-3.3249 1.3758-1.417 0-2.5282-0.45861-3.3338-1.3758-0.79963-0.9231-1.1994-2.1931-1.1994-3.81 0-1.6228 0.39981-2.8928 1.1994-3.81 0.80551-0.91721 1.9168-1.3758 3.3338-1.3758"/>
  <path id="path3138" style="" d="m243.04 75.864h1.6316v8.1051l4.8419-4.2598h2.0726l-5.2387 4.6214 5.4592 5.2564h-2.1167l-5.0182-4.8242v4.8242h-1.6316v-13.723"/>
  <path id="path3140" style="" d="m261.39 84.242v0.79375h-7.4612c0.0706 1.1171 0.40569 1.9697 1.0054 2.5576 0.60559 0.58208 1.4464 0.87312 2.5224 0.87312 0.62323 0.000001 1.2259-0.07643 1.808-0.2293 0.58795-0.15287 1.17-0.38217 1.7462-0.68792v1.5346c-0.58209 0.24694-1.1789 0.43509-1.7904 0.56444-0.61149 0.12935-1.2318 0.19403-1.8609 0.19403-1.5757 0-2.8252-0.45861-3.7483-1.3758-0.91722-0.91722-1.3758-2.1578-1.3758-3.7218 0-1.6169 0.43509-2.8986 1.3053-3.8453 0.87606-0.95249 2.0549-1.4287 3.5366-1.4287 1.3288 0.00001 2.3783 0.42922 3.1485 1.2876 0.7761 0.85255 1.1642 2.0138 1.1642 3.4837m-1.6228-0.47625c-0.0118-0.88782-0.26165-1.5963-0.74965-2.1255-0.48214-0.52916-1.123-0.79374-1.9226-0.79375-0.90547 0.000009-1.6316 0.25577-2.1784 0.76729-0.54093 0.51154-0.85255 1.2318-0.93486 2.1608l5.7856-0.0088"/>
  <path id="path3142" style="" d="m269.78 81.226c-0.18228-0.10582-0.38219-0.18226-0.59973-0.2293-0.21167-0.05291-0.44685-0.07937-0.70555-0.07937-0.91723 0.000009-1.6228 0.29987-2.1167 0.89958-0.48802 0.59385-0.73202 1.4493-0.73202 2.5665v5.2035h-1.6316v-9.8778h1.6316v1.5346c0.34102-0.59971 0.78493-1.0436 1.3317-1.3317 0.5468-0.29397 1.2112-0.44096 1.9932-0.44097 0.1117 0.00001 0.23518 0.0088 0.37042 0.02646 0.13522 0.01177 0.28515 0.03235 0.44979 0.06174l0.009 1.6669"/>
 </g>
 <g id="g146" stroke="#000" stroke-width="2" fill="none" transform="translate(-1 -6.6629)">
  <path id="line148" d="m270 90 24.613 4.9225"/>
  <path id="polyline150" d="m286.02 98.303 10.78-2.942-8.82-6.864"/>
 </g>
 <g id="text152">
  <path id="path3147" style="" d="m408.07 301.61c0.40569-0.72907 0.89076-1.267 1.4552-1.614 0.56443-0.34689 1.2288-0.52033 1.9932-0.52034 1.0289 0.00001 1.8227 0.3616 2.3812 1.0848 0.55855 0.71732 0.83783 1.7404 0.83785 3.0692v5.9619h-1.6316v-5.909c-0.00001-0.94662-0.16758-1.6492-0.50271-2.1078-0.33515-0.4586-0.84668-0.68791-1.5346-0.68791-0.8408 0-1.5052 0.27929-1.9932 0.83784-0.48802 0.55857-0.73202 1.32-0.73201 2.2842v5.5827h-1.6316v-5.909c-0.00001-0.9525-0.16758-1.6551-0.50271-2.1078-0.33514-0.4586-0.85255-0.68791-1.5522-0.68791-0.82903 0-1.4876 0.28223-1.9756 0.84666-0.48801 0.55857-0.73202 1.317-0.73201 2.2754v5.5827h-1.6316v-9.8778h1.6316v1.5346c0.37041-0.60559 0.81432-1.0524 1.3317-1.3406 0.5174-0.28809 1.1318-0.43214 1.8433-0.43215 0.71731 0.00001 1.3258 0.18227 1.8256 0.5468 0.50563 0.36455 0.87899 0.89371 1.1201 1.5875"/>
  <path id="path3149" style="" d="m421.81 300.85c-0.87019 0.00001-1.5581 0.34102-2.0638 1.023-0.50565 0.67617-0.75847 1.6052-0.75847 2.7869 0 1.1818 0.24988 2.1137 0.74965 2.7958 0.50565 0.67616 1.1965 1.0142 2.0726 1.0142 0.8643 0 1.5493-0.34102 2.0549-1.0231 0.50564-0.68203 0.75846-1.611 0.75847-2.7869-0.00001-1.17-0.25283-2.0961-0.75847-2.7781-0.50566-0.68791-1.1906-1.0319-2.0549-1.0319m0-1.3758c1.4111 0.00001 2.5194 0.45862 3.3249 1.3758 0.8055 0.91723 1.2082 2.1872 1.2083 3.81-0.00001 1.6169-0.40276 2.8869-1.2083 3.81-0.80552 0.91722-1.9138 1.3758-3.3249 1.3758-1.417 0-2.5282-0.45861-3.3337-1.3758-0.79963-0.9231-1.1994-2.1931-1.1994-3.81 0-1.6228 0.39982-2.8928 1.1994-3.81 0.8055-0.91721 1.9168-1.3758 3.3337-1.3758"/>
  <path id="path3151" style="" d="m428.32 299.71h7.7082v1.4817l-6.103 7.0996h6.103v1.2965h-7.9287v-1.4817l6.103-7.0996h-5.8826v-1.2965"/>
  <path id="path3153" style="" d="m445.02 304.53c-0.00001-1.1759-0.24401-2.0873-0.73201-2.734-0.48214-0.64675-1.1612-0.97013-2.0373-0.97014-0.87019 0.00001-1.5493 0.32339-2.0373 0.97014-0.48213 0.64676-0.7232 1.5581-0.72319 2.734-0.00001 1.17 0.24106 2.0784 0.72319 2.7252 0.488 0.64676 1.1671 0.97014 2.0373 0.97013 0.87606 0.00001 1.5552-0.32337 2.0373-0.97013 0.488-0.64676 0.732-1.5552 0.73201-2.7252m1.6228 3.8276c-0.00001 1.6816-0.37337 2.931-1.1201 3.7482-0.74672 0.82315-1.8903 1.2347-3.4308 1.2347-0.57033-0.00001-1.1083-0.0441-1.614-0.1323-0.50565-0.0823-0.9966-0.21167-1.4728-0.38805v-1.5787c0.47624 0.2587 0.94661 0.44979 1.4111 0.57326 0.46448 0.12347 0.93779 0.18521 1.4199 0.18521 1.0642 0 1.8609-0.27928 2.3901-0.83784 0.52916-0.55269 0.79374-1.3905 0.79375-2.5135v-0.80257c-0.33515 0.58208-0.76436 1.0172-1.2876 1.3053-0.52329 0.28811-1.1495 0.43216-1.8785 0.43216-1.2112 0-2.1872-0.46155-2.928-1.3846-0.74083-0.9231-1.1112-2.1461-1.1112-3.6689 0-1.5287 0.37042-2.7546 1.1112-3.6777 0.74083-0.92309 1.7168-1.3846 2.928-1.3846 0.72907 0.00001 1.3552 0.14406 1.8785 0.43215 0.52328 0.28811 0.95249 0.7232 1.2876 1.3053v-1.4993h1.6228v8.6519"/>
  <path id="path3155" style="" d="m453.81 300.85c-0.87019 0.00001-1.5581 0.34102-2.0638 1.023-0.50565 0.67617-0.75848 1.6052-0.75847 2.7869-0.00001 1.1818 0.24988 2.1137 0.74965 2.7958 0.50564 0.67616 1.1965 1.0142 2.0726 1.0142 0.86429 0 1.5493-0.34102 2.0549-1.0231 0.50564-0.68203 0.75847-1.611 0.75848-2.7869-0.00001-1.17-0.25284-2.0961-0.75848-2.7781-0.50565-0.68791-1.1906-1.0319-2.0549-1.0319m0-1.3758c1.4111 0.00001 2.5194 0.45862 3.3249 1.3758 0.8055 0.91723 1.2082 2.1872 1.2083 3.81-0.00001 1.6169-0.40276 2.8869-1.2083 3.81-0.80551 0.91722-1.9138 1.3758-3.3249 1.3758-1.417 0-2.5282-0.45861-3.3338-1.3758-0.79963-0.9231-1.1994-2.1931-1.1994-3.81 0-1.6228 0.39981-2.8928 1.1994-3.81 0.80551-0.91721 1.9168-1.3758 3.3338-1.3758"/>
 </g>
 <g id="g156" stroke="#000" stroke-width="2" fill="none" transform="translate(-1 -6.6629)">
  <path id="line158" d="m430 300 15.381-10.254"/>
  <path id="polyline160" d="m441.69 298.21 5.547-9.707-11.094 1.387"/>
 </g>
 <g id="g162" stroke="#000" stroke-width="2" fill="none" transform="translate(-1 -6.6629)">
  <path id="line164" d="m447 240.99 7.956 23.868"/>
  <path id="polyline166" d="m447.75 259.08 7.906 7.905 1.581-11.068"/>
 </g>
 <g id="g168" transform="translate(-1 -6.6629)">
  <g id="g170">
   <path id="rect172" fill="#fff" d="m450 270h20v20h-20z"/>
   <path id="rect174" d="m450 270h20v20h-20z" stroke="#000" stroke-width="2" fill="none"/>
  </g>
  <path id="line176" d="m450 270 20 20" stroke="#000" stroke-width="2" fill="none"/>
  <path id="line178" d="m450 290 20-20" stroke="#000" stroke-width="2" fill="none"/>
 </g>
</svg>
