<?xml version="1.0" encoding="UTF-8" standalone="no"?>
<!-- Created with Inkscape (http://www.inkscape.org/) -->
<svg id="svg2" xmlns:rdf="http://www.w3.org/1999/02/22-rdf-syntax-ns#" xmlns="http://www.w3.org/2000/svg" height="458.81" width="549.84" version="1.1" xmlns:cc="http://creativecommons.org/ns#" xmlns:dc="http://purl.org/dc/elements/1.1/" viewBox="98 88 293.86808 252">
 <metadata id="metadata162">
  <rdf:RDF>
   <cc:Work rdf:about="">
    <dc:format>image/svg+xml</dc:format>
    <dc:type rdf:resource="http://purl.org/dc/dcmitype/StillImage"/>
   </cc:Work>
  </rdf:RDF>
 </metadata>
 <g id="g4" transform="translate(-5.066 -1)">
  <path id="rect6" fill="#7babe3" d="m260 90h40v40h-40z"/>
  <path id="rect8" d="m260 90h40v40h-40z" stroke="#000" stroke-width="2" fill="none"/>
 </g>
 <g id="g10" transform="translate(-5.066 -1)">
  <path id="rect12" fill="#7babe3" d="m160 160h40v40h-40z"/>
  <path id="rect14" d="m160 160h40v40h-40z" stroke="#000" stroke-width="2" fill="none"/>
 </g>
 <g id="g16" stroke="#000" stroke-width="2" fill="none" transform="translate(-5.066 -1)">
  <path id="line18" d="m255.33 127.27-50.668 35.468"/>
  <path id="polyline20" d="m251.84 135.82 5.325-9.831-11.06 1.638"/>
  <path id="polyline22" d="m208.16 154.18-5.325 9.831 11.06-1.638"/>
 </g>
 <g id="g24" stroke="#000" stroke-width="2" fill="none" transform="translate(-5.066 -1)">
  <path id="line26" d="m159.09 204.39-18.188 21.22"/>
  <path id="polyline28" d="m157.84 213.54 2.711-10.846-10.304 4.338"/>
  <path id="polyline30" d="m142.16 216.46-2.711 10.846 10.304-4.338"/>
 </g>
 <g id="g32" stroke="#000" stroke-width="2" fill="none" transform="translate(-5.066 -1)">
  <path id="line34" d="m200.91 204.39 18.188 21.22"/>
  <path id="polyline36" d="m209.76 207.03-10.304-4.338 2.711 10.846"/>
  <path id="polyline38" d="m210.24 222.97 10.304 4.338-2.711-10.846"/>
 </g>
 <g id="g40" stroke="#000" stroke-width="2" fill="none" transform="translate(-5.066 -1)">
  <path id="line42" d="m304.67 127.27 50.668 35.468"/>
  <path id="polyline44" d="m313.89 127.62-11.06-1.638 5.325 9.831"/>
  <path id="polyline46" d="m346.11 162.38 11.06 1.638-5.325-9.831"/>
 </g>
 <g id="text48">
  <path id="path3076" style="" d="m260.61 98.624h10.491v2.249h-8.0433v4.8419c0.38805-0.13228 0.77611-0.22929 1.1642-0.29104 0.38805-0.0705 0.7761-0.10582 1.1642-0.10583 2.2048 0.00001 3.9511 0.60414 5.2388 1.8124 1.2876 1.2083 1.9314 2.8443 1.9314 4.908-0.00001 2.1255-0.66147 3.7791-1.9844 4.9609-1.3229 1.173-3.1882 1.7595-5.5959 1.7595-0.82903-0.00001-1.6757-0.0706-2.54-0.21167-0.85549-0.14111-1.7418-0.35278-2.6591-0.635v-2.6855c0.79375 0.43216 1.614 0.75407 2.4606 0.96573 0.84666 0.21167 1.7418 0.3175 2.6855 0.3175 1.5258 0 2.734-0.40128 3.6248-1.2038 0.89075-0.80257 1.3361-1.8918 1.3362-3.2676-0.00002-1.3758-0.4454-2.465-1.3362-3.2676-0.89077-0.80256-2.099-1.2038-3.6248-1.2039-0.71438 0.00001-1.4288 0.0794-2.1431 0.23813-0.70556 0.15876-1.4288 0.4057-2.1696 0.74083v-9.9219"/>
  <path id="path3078" style="" d="m283.55 100.38c-1.3758 0.00001-2.4121 0.67911-3.1088 2.0373-0.68792 1.3494-1.0319 3.3823-1.0319 6.0986 0 2.7076 0.34396 4.7404 1.0319 6.0986 0.69673 1.3494 1.733 2.0241 3.1088 2.0241 1.3846 0 2.4209-0.67468 3.1088-2.0241 0.69672-1.3582 1.0451-3.3911 1.0451-6.0986-0.00001-2.7164-0.34838-4.7492-1.0451-6.0986-0.68793-1.3582-1.7242-2.0373-3.1088-2.0373m0-2.1167c2.2137 0.00002 3.9026 0.87755 5.0668 2.6326 1.173 1.7463 1.7595 4.2863 1.7595 7.62-0.00002 3.3249-0.58651 5.8649-1.7595 7.62-1.1642 1.7462-2.8531 2.6194-5.0668 2.6194-2.2137-0.00001-3.907-0.87313-5.08-2.6194-1.1642-1.7551-1.7462-4.295-1.7462-7.62 0-3.3337 0.58208-5.8737 1.7462-7.62 1.173-1.755 2.8663-2.6326 5.08-2.6326"/>
 </g>
 <g id="text52">
  <path id="path3081" style="" d="m161.04 186.13h4.3656v-15.068l-4.7493 0.9525v-2.4342l4.7228-0.9525h2.6723v17.502h4.3656v2.249h-11.377v-2.249"/>
  <path id="path3083" style="" d="m177.16 168.62h12.7v1.1377l-7.1702 18.613h-2.7914l6.7469-17.502h-9.4853v-2.249"/>
 </g>
 <g id="g56" transform="translate(-5.066 -1)">
  <path id="rect58" fill="#7babe3" d="m360 160h40v40h-40z"/>
  <path id="rect60" d="m360 160h40v40h-40z" stroke="#000" stroke-width="2" fill="none"/>
 </g>
 <g id="text62">
  <path id="path3088" style="" d="m359.91 168.62h12.7v1.1377l-7.1702 18.613h-2.7914l6.7469-17.502h-9.4853v-2.249"/>
  <path id="path3090" style="" d="m383.88 177.43c-1.1994 0.00001-2.152 0.41012-2.8575 1.2303-0.69674 0.82022-1.0451 1.9447-1.0451 3.3734-0.00001 1.4199 0.34836 2.5444 1.0451 3.3734 0.70555 0.82021 1.658 1.2303 2.8575 1.2303 1.1994 0 2.1475-0.4101 2.8443-1.2303 0.70555-0.82902 1.0583-1.9535 1.0583-3.3734-0.00002-1.4287-0.35279-2.5532-1.0583-3.3734-0.69674-0.82019-1.6448-1.2303-2.8443-1.2303m5.3049-8.374v2.4342c-0.67029-0.31748-1.3494-0.56001-2.0373-0.7276-0.67911-0.16755-1.3538-0.25134-2.0241-0.25135-1.7639 0.00001-3.1133 0.59533-4.0481 1.7859-0.92605 1.1906-1.4552 2.9898-1.5875 5.3975 0.52034-0.76728 1.173-1.3538 1.9579-1.7595 0.78493-0.4145 1.6492-0.62176 2.5929-0.62177 1.9844 0.00001 3.5498 0.60414 4.6964 1.8124 1.1553 1.1995 1.733 2.8355 1.733 4.908-0.00001 2.0285-0.59973 3.6556-1.7992 4.8816-1.1995 1.2259-2.7958 1.8388-4.789 1.8389-2.2842-0.00001-4.0305-0.87313-5.2388-2.6194-1.2083-1.7551-1.8124-4.295-1.8124-7.62 0-3.1221 0.74083-5.6091 2.2225-7.4612 1.4817-1.8609 3.4704-2.7913 5.9663-2.7914 0.67027 0.00002 1.345 0.0662 2.0241 0.19844 0.68791 0.13231 1.4023 0.33075 2.1431 0.59531"/>
 </g>
 <g id="g66" transform="translate(-5.066 -1)">
  <path id="rect68" fill="#7babe3" d="m300 230h40v40h-40z"/>
  <path id="rect70" d="m300 230h40v40h-40z" stroke="#000" stroke-width="2" fill="none"/>
 </g>
 <g id="text72">
  <path id="path3095" style="" d="m300.61 238.62h10.491v2.249h-8.0433v4.8419c0.38805-0.13228 0.77611-0.22929 1.1642-0.29104 0.38805-0.0705 0.7761-0.10582 1.1642-0.10583 2.2048 0.00001 3.9511 0.60414 5.2388 1.8124 1.2876 1.2083 1.9314 2.8443 1.9314 4.908-0.00001 2.1255-0.66147 3.7791-1.9844 4.9609-1.3229 1.173-3.1882 1.7595-5.5959 1.7595-0.82903-0.00001-1.6757-0.0706-2.54-0.21167-0.85549-0.14111-1.7418-0.35278-2.6591-0.635v-2.6855c0.79375 0.43216 1.614 0.75407 2.4606 0.96573 0.84666 0.21167 1.7418 0.3175 2.6855 0.3175 1.5258 0 2.734-0.40128 3.6248-1.2038 0.89075-0.80257 1.3361-1.8918 1.3362-3.2676-0.00002-1.3758-0.4454-2.465-1.3362-3.2676-0.89077-0.80256-2.099-1.2038-3.6248-1.2039-0.71438 0.00001-1.4288 0.0794-2.1431 0.23813-0.70556 0.15876-1.4288 0.4057-2.1696 0.74083v-9.9219"/>
  <path id="path3097" style="" d="m325.17 240.95-6.7469 10.544h6.7469v-10.544m-0.70114-2.3283h3.3602v12.872h2.8178v2.2225h-2.8178v4.6567h-2.6591v-4.6567h-8.9164v-2.5797l8.2153-12.515"/>
 </g>
 <g id="g76" transform="translate(-5.066 -1)">
  <path id="rect78" fill="#7babe3" d="m330 300h40v40h-40z"/>
  <path id="rect80" d="m330 300h40v40h-40z" stroke="#000" stroke-width="2" fill="none"/>
 </g>
 <g id="text82">
  <path id="path3102" style="" d="m329.91 308.62h12.7v1.1377l-7.1702 18.613h-2.7914l6.7469-17.502h-9.4853v-2.249"/>
  <path id="path3104" style="" d="m350.13 326.13h9.3266v2.249h-12.541v-2.249c1.0142-1.0495 2.3945-2.4562 4.1407-4.2201 1.7551-1.7727 2.8575-2.9148 3.3073-3.4264 0.85547-0.96131 1.4508-1.7727 1.7859-2.4342 0.34395-0.67026 0.51593-1.3273 0.51594-1.9711-0.00001-1.0495-0.37043-1.905-1.1112-2.5665-0.73202-0.66144-1.6889-0.99217-2.8707-0.99218-0.83785 0.00001-1.7242 0.14554-2.6591 0.43656-0.92604 0.29106-1.9182 0.73203-2.9766 1.3229v-2.6987c1.076-0.43214 2.0814-0.75845 3.0162-0.97896 0.93486-0.22047 1.7903-0.33071 2.5665-0.33073 2.0461 0.00002 3.6777 0.51155 4.8948 1.5346 1.2171 1.0231 1.8256 2.3901 1.8256 4.101-0.00002 0.8114-0.15436 1.5831-0.46302 2.3151-0.29988 0.72321-0.85109 1.5787-1.6536 2.5665-0.2205 0.25577-0.92164 0.9966-2.1034 2.2225-1.1818 1.2171-2.8487 2.9236-5.0006 5.1197"/>
 </g>
 <g id="g86" transform="translate(-5.066 -1)">
  <path id="rect88" fill="#7babe3" d="m100 230h40v40h-40z"/>
  <path id="rect90" d="m100 230h40v40h-40z" stroke="#000" stroke-width="2" fill="none"/>
 </g>
 <g id="text92">
  <path id="path3109" style="" d="m109.29 257.96v-2.4342c0.67027 0.3175 1.3494 0.56004 2.0373 0.72761 0.68791 0.16757 1.3626 0.25135 2.0241 0.25135 1.7639 0 3.1088-0.5909 4.0349-1.7727 0.93485-1.1906 1.4684-2.9942 1.6007-5.4107-0.51154 0.75848-1.1598 1.3406-1.9447 1.7462-0.78494 0.4057-1.6536 0.60855-2.6061 0.60854-1.9756 0.00001-3.541-0.5953-4.6964-1.7859-1.1465-1.1994-1.7198-2.8354-1.7198-4.908 0-2.0284 0.59972-3.6556 1.7992-4.8816 1.1994-1.2259 2.7958-1.8388 4.789-1.8388 2.2842 0.00002 4.0261 0.87755 5.2255 2.6326 1.2082 1.7463 1.8124 4.2863 1.8124 7.62-0.00002 3.1133-0.74085 5.6004-2.2225 7.4612-1.4729 1.8521-3.4572 2.7781-5.9531 2.7781-0.67028-0.00001-1.3494-0.0661-2.0373-0.19844-0.68792-0.13229-1.4023-0.33073-2.1431-0.59531m5.3181-8.3741c1.1994 0.00001 2.1475-0.41009 2.8443-1.2303 0.70555-0.82019 1.0583-1.9447 1.0583-3.3734-0.00002-1.4199-0.35279-2.54-1.0583-3.3602-0.69674-0.82901-1.6448-1.2435-2.8443-1.2435-1.1994 0.00001-2.152 0.41453-2.8575 1.2435-0.69674 0.82022-1.0451 1.9403-1.0451 3.3602-0.00001 1.4288 0.34836 2.5532 1.0451 3.3734 0.70555 0.82022 1.658 1.2303 2.8575 1.2303"/>
 </g>
 <g id="g96" transform="translate(-5.066 -1)">
  <path id="rect98" fill="#7babe3" d="m220 230h40v40h-40z"/>
  <path id="rect100" d="m220 230h40v40h-40z" stroke="#000" stroke-width="2" fill="none"/>
 </g>
 <g id="text102">
  <path id="path3114" style="" d="m222.88 256.13h9.3266v2.249h-12.541v-2.249c1.0142-1.0495 2.3945-2.4562 4.1407-4.2201 1.7551-1.7727 2.8575-2.9148 3.3073-3.4264 0.85547-0.96131 1.4508-1.7727 1.7859-2.4342 0.34395-0.67026 0.51593-1.3273 0.51594-1.9711-0.00001-1.0495-0.37043-1.905-1.1112-2.5665-0.73202-0.66144-1.6889-0.99217-2.8707-0.99218-0.83786 0.00001-1.7242 0.14554-2.6591 0.43656-0.92605 0.29106-1.9182 0.73203-2.9766 1.3229v-2.6987c1.076-0.43214 2.0814-0.75845 3.0162-0.97896 0.93486-0.22047 1.7903-0.33071 2.5665-0.33073 2.0461 0.00002 3.6777 0.51155 4.8948 1.5346 1.2171 1.0231 1.8256 2.3901 1.8256 4.101-0.00002 0.8114-0.15436 1.5831-0.46302 2.3151-0.29988 0.72321-0.85109 1.5787-1.6536 2.5665-0.22049 0.25577-0.92164 0.9966-2.1034 2.2225-1.1818 1.2171-2.8487 2.9236-5.0006 5.1197"/>
  <path id="path3116" style="" d="m245.93 247.73c1.2788 0.27342 2.2754 0.84227 2.9898 1.7066 0.72318 0.86432 1.0848 1.9315 1.0848 3.2015-0.00002 1.9491-0.67029 3.4572-2.0108 4.5244-1.3406 1.0672-3.2456 1.6007-5.715 1.6007-0.82904-0.00001-1.6845-0.0838-2.5665-0.25136-0.87313-0.15875-1.7771-0.40128-2.712-0.7276v-2.5797c0.74083 0.43216 1.5522 0.75848 2.4342 0.97896 0.88194 0.22049 1.8036 0.33073 2.7649 0.33073 1.6757 0 2.9501-0.33073 3.8232-0.99219 0.88194-0.66145 1.3229-1.6228 1.3229-2.884-0.00001-1.1642-0.41012-2.0726-1.2303-2.7252-0.8114-0.66144-1.9447-0.99217-3.3999-0.99218h-2.3019v-2.196h2.4077c1.3141 0.00001 2.3195-0.26016 3.0162-0.78052 0.69672-0.52915 1.0451-1.2876 1.0451-2.2754-0.00001-1.0142-0.36161-1.7903-1.0848-2.3283-0.71439-0.54678-1.7418-0.82019-3.0824-0.8202-0.73202 0.00001-1.517 0.0794-2.3548 0.23812-0.83785 0.15877-1.7595 0.40571-2.7649 0.74083v-2.3812c1.0142-0.28221 1.9623-0.49387 2.8443-0.635 0.89076-0.14109 1.7286-0.21165 2.5135-0.21167 2.0285 0.00002 3.6336 0.46304 4.8154 1.3891 1.1818 0.91724 1.7727 2.1608 1.7727 3.7306-0.00002 1.0936-0.31311 2.0197-0.93927 2.7781-0.62619 0.74967-1.517 1.27-2.6723 1.561"/>
 </g>
 <g id="g106" transform="translate(-5.066 -1)">
  <path id="rect108" fill="#7babe3" d="m190 300h40v40h-40z"/>
  <path id="rect110" d="m190 300h40v40h-40z" stroke="#000" stroke-width="2" fill="none"/>
 </g>
 <g id="text112">
  <path id="path3121" style="" d="m191.04 326.13h4.3656v-15.068l-4.7493 0.9525v-2.4342l4.7228-0.9525h2.6723v17.502h4.3656v2.249h-11.377v-2.249"/>
  <path id="path3123" style="" d="m207.91 327.96v-2.4342c0.67027 0.3175 1.3494 0.56004 2.0373 0.72761 0.68791 0.16757 1.3626 0.25135 2.0241 0.25135 1.7639 0 3.1088-0.5909 4.0349-1.7727 0.93484-1.1906 1.4684-2.9942 1.6007-5.4107-0.51154 0.75848-1.1598 1.3406-1.9447 1.7462-0.78494 0.4057-1.6537 0.60855-2.6061 0.60854-1.9756 0.00001-3.541-0.5953-4.6964-1.7859-1.1465-1.1994-1.7198-2.8354-1.7198-4.908 0-2.0284 0.59972-3.6556 1.7992-4.8816 1.1994-1.2259 2.7958-1.8388 4.789-1.8388 2.2842 0.00002 4.0261 0.87755 5.2255 2.6326 1.2082 1.7463 1.8124 4.2863 1.8124 7.62-0.00001 3.1133-0.74085 5.6004-2.2225 7.4612-1.4728 1.8521-3.4572 2.7781-5.9531 2.7781-0.67029-0.00001-1.3494-0.0661-2.0373-0.19844-0.68792-0.13229-1.4023-0.33073-2.1431-0.59531m5.3181-8.3741c1.1994 0.00001 2.1475-0.41009 2.8443-1.2303 0.70554-0.82019 1.0583-1.9447 1.0583-3.3734-0.00001-1.4199-0.35279-2.54-1.0583-3.3602-0.69674-0.82901-1.6448-1.2435-2.8443-1.2435-1.1994 0.00001-2.1519 0.41453-2.8575 1.2435-0.69674 0.82022-1.0451 1.9403-1.0451 3.3602 0 1.4288 0.34837 2.5532 1.0451 3.3734 0.70555 0.82022 1.658 1.2303 2.8575 1.2303"/>
 </g>
 <g id="g116" transform="translate(-5.066 -1)">
  <path id="rect118" fill="#7babe3" d="m130 300h40v40h-40z"/>
  <path id="rect120" d="m130 300h40v40h-40z" stroke="#000" stroke-width="2" fill="none"/>
 </g>
 <g id="text122">
  <path id="path3128" style="" d="m131.04 326.13h4.3656v-15.068l-4.7493 0.9525v-2.4342l4.7228-0.9525h2.6723v17.502h4.3656v2.249h-11.377v-2.249"/>
  <path id="path3130" style="" d="m155.17 310.95-6.7469 10.544h6.7469v-10.544m-0.70115-2.3283h3.3602v12.872h2.8178v2.2225h-2.8178v4.6567h-2.6591v-4.6567h-8.9164v-2.5797l8.2153-12.515"/>
 </g>
 <g id="g126" stroke="#000" stroke-width="2" fill="none" transform="translate(-5.066 -1)">
  <path id="line128" d="m130.76 275.11 8.482 19.79"/>
  <path id="polyline130" d="m138.41 280.27-8.535-7.222-0.657 11.161"/>
  <path id="polyline132" d="m131.59 289.73 8.535 7.222 0.657-11.161"/>
 </g>
 <g id="g134" stroke="#000" stroke-width="2" fill="none" transform="translate(-5.066 -1)">
  <path id="line136" d="m229.24 275.11-8.482 19.79"/>
  <path id="polyline138" d="m230.78 284.21-0.657-11.161-8.535 7.222"/>
  <path id="polyline140" d="m219.22 285.79 0.657 11.161 8.535-7.222"/>
 </g>
 <g id="g142" stroke="#000" stroke-width="2" fill="none" transform="translate(-5.066 -1)">
  <path id="line144" d="m359.09 204.39-18.188 21.22"/>
  <path id="polyline146" d="m357.84 213.54 2.711-10.846-10.304 4.338"/>
  <path id="polyline148" d="m342.16 216.46-2.711 10.846 10.304-4.338"/>
 </g>
 <g id="g150" stroke="#000" stroke-width="2" fill="none" transform="translate(-5.066 -1)">
  <path id="line152" d="m330.76 275.11 8.482 19.79"/>
  <path id="polyline154" d="m338.41 280.27-8.535-7.222-0.657 11.161"/>
  <path id="polyline156" d="m331.59 289.73 8.535 7.222 0.657-11.161"/>
 </g>
</svg>
