<?xml version="1.0" encoding="UTF-8" standalone="no"?>
<!-- Created with Inkscape (http://www.inkscape.org/) -->
<svg id="svg2" xmlns:rdf="http://www.w3.org/1999/02/22-rdf-syntax-ns#" xmlns="http://www.w3.org/2000/svg" height="449.17" width="456.41" version="1.1" xmlns:cc="http://creativecommons.org/ns#" xmlns:dc="http://purl.org/dc/elements/1.1/" viewBox="177 78 243.748 237.92876">
 <metadata id="metadata130">
  <rdf:RDF>
   <cc:Work rdf:about="">
    <dc:format>image/svg+xml</dc:format>
    <dc:type rdf:resource="http://purl.org/dc/dcmitype/StillImage"/>
   </cc:Work>
  </rdf:RDF>
 </metadata>
 <g id="g4" transform="translate(-1.126 -1.9751)">
  <path id="rect6" fill="#7babe3" d="m300 80h40v40h-40z"/>
  <path id="rect8" d="m300 80h40v40h-40z" stroke="#000" stroke-width="2" fill="none"/>
 </g>
 <g id="g10" transform="translate(-1.126 -1.9751)">
  <path id="rect12" fill="#7babe3" d="m220 160h40v40h-40z"/>
  <path id="rect14" d="m220 160h40v40h-40z" stroke="#000" stroke-width="2" fill="none"/>
 </g>
 <g id="g16" transform="translate(-1.126 -1.9751)">
  <path id="rect18" fill="#7babe3" d="m180 240h40v40h-40z"/>
  <path id="rect20" d="m180 240h40v40h-40z" stroke="#000" stroke-width="2" fill="none"/>
 </g>
 <g id="g22" transform="translate(-1.126 -1.9751)">
  <path id="rect24" fill="#7babe3" d="m260 240h40v40h-40z"/>
  <path id="rect26" d="m260 240h40v40h-40z" stroke="#000" stroke-width="2" fill="none"/>
 </g>
 <g id="g28" transform="translate(-1.126 -1.9751)">
  <path id="rect30" fill="#7babe3" d="m380 160h40v40h-40z"/>
  <path id="rect32" d="m380 160h40v40h-40z" stroke="#000" stroke-width="2" fill="none"/>
 </g>
 <g id="g34" stroke="#000" stroke-width="2" fill="none" transform="translate(-1.126 -1.9751)">
  <path id="line36" d="m299 121-34.836 34.836"/>
  <path id="polyline38" d="m266.12 146.81-3.536 10.607 10.607-3.536"/>
 </g>
 <g id="g40" stroke="#000" stroke-width="2" fill="none" transform="translate(-1.126 -1.9751)">
  <path id="line42" d="m229.51 200.98-17.024 34.046"/>
  <path id="polyline44" d="m211.49 225.84v11.18l8.945-6.708"/>
 </g>
 <g id="g46" stroke="#000" stroke-width="2" fill="none" transform="translate(-1.126 -1.9751)">
  <path id="line48" d="m250.49 200.98 17.024 34.046"/>
  <path id="polyline50" d="m259.57 230.32 8.945 6.708v-11.18"/>
 </g>
 <g id="g52" stroke="#000" stroke-width="2" fill="none" transform="translate(-1.126 -1.9751)">
  <path id="line54" d="m341 121 34.836 34.836"/>
  <path id="polyline56" d="m366.81 153.88 10.607 3.536-3.536-10.607"/>
 </g>
 <g id="text58">
  <path id="path3062" style="" d="m232.96 167.65h12.488v2.249h-9.816v5.8473h9.4059v2.249h-9.4059v7.157h10.054v2.249h-12.726v-19.751"/>
 </g>
 <g id="text62">
  <path id="path3065" style="" d="m197.54 247.65h2.6723v19.751h-2.6723v-19.751"/>
 </g>
 <g id="text66">
  <path id="path3068" style="" d="m278.87 250.28-3.6248 9.8293h7.2628l-3.638-9.8293m-1.5081-2.6326h3.0295l7.5274 19.751h-2.7781l-1.7992-5.0668h-8.9032l-1.7992 5.0668h-2.8178l7.5406-19.751"/>
 </g>
 <g id="text70">
  <path id="path3071" style="" d="m390.51 167.65h16.708v2.249h-7.0114v17.502h-2.6855v-17.502h-7.0114v-2.249"/>
 </g>
 <g id="text74">
  <path id="path3074" style="" d="m270.08 125.34v2.8046h3.3426v1.2612h-3.3426v5.3622c-0.00001 0.80551 0.10877 1.3229 0.32632 1.5522 0.22342 0.2293 0.67321 0.34396 1.3494 0.34395h1.6669v1.3582h-1.6669c-1.2524 0-2.1167-0.23225-2.5929-0.69674-0.47626-0.47037-0.71438-1.3229-0.71438-2.5576v-5.3622h-1.1906v-1.2612h1.1906v-2.8046h1.6316"/>
  <path id="path3076" style="" d="m275.57 128.15h1.6228v9.8778h-1.6228v-9.8778m0-3.8453h1.6228v2.0549h-1.6228v-2.0549"/>
 </g>
 <g id="text78">
  <path id="path3079" style="" d="m362.18 125.34v2.8046h3.3426v1.2612h-3.3426v5.3622c0 0.80551 0.10877 1.3229 0.32632 1.5522 0.22342 0.2293 0.67321 0.34396 1.3494 0.34395h1.6669v1.3582h-1.6669c-1.2524 0-2.1167-0.23225-2.5929-0.69674-0.47625-0.47037-0.71438-1.3229-0.71437-2.5576v-5.3622h-1.1906v-1.2612h1.1906v-2.8046h1.6316"/>
  <path id="path3081" style="" d="m372.16 133.06c-1.3112 0-2.2196 0.14993-2.7252 0.44979-0.50566 0.29986-0.75848 0.81139-0.75848 1.5346 0 0.5762 0.18815 1.0348 0.56445 1.3758 0.38217 0.33514 0.89958 0.50271 1.5522 0.50271 0.89957 0 1.6198-0.3175 2.1608-0.9525 0.5468-0.64088 0.8202-1.4905 0.82021-2.5488v-0.36159h-1.614m3.2367-0.67028v5.6356h-1.6228v-1.4993c-0.37043 0.59973-0.83198 1.0436-1.3846 1.3317-0.5527 0.28222-1.2288 0.42333-2.0285 0.42333-1.0113 0-1.8168-0.28222-2.4165-0.84666-0.59384-0.57033-0.89076-1.3317-0.89076-2.2842 0-1.1112 0.37041-1.9491 1.1112-2.5135 0.74671-0.56443 1.858-0.84666 3.3337-0.84666h2.2754v-0.15875c-0.00001-0.74671-0.24696-1.3229-0.74084-1.7286-0.48801-0.41157-1.1759-0.61735-2.0637-0.61736-0.56445 0.00001-1.1142 0.0676-1.6492 0.20285-0.53505 0.13523-1.0495 0.33808-1.5434 0.60854v-1.4993c0.59384-0.22929 1.17-0.3998 1.7286-0.51152 0.55856-0.11759 1.1024-0.17638 1.6316-0.17639 1.4287 0.00001 2.4959 0.37042 3.2014 1.1112 0.70555 0.74084 1.0583 1.8638 1.0583 3.369m-2.9633-8.8106h1.7551l-2.8751 3.3161h-1.3494l2.4694-3.3161"/>
 </g>
 <g id="text82">
  <path id="path3084" style="" d="m210.08 205.34v2.8046h3.3426v1.2612h-3.3426v5.3622c-0.00001 0.80551 0.10877 1.3229 0.32632 1.5522 0.22342 0.2293 0.67321 0.34396 1.3494 0.34395h1.6669v1.3582h-1.6669c-1.2524 0-2.1167-0.23225-2.5929-0.69674-0.47626-0.47037-0.71438-1.3229-0.71438-2.5576v-5.3622h-1.1906v-1.2612h1.1906v-2.8046h1.6316"/>
  <path id="path3086" style="" d="m215.57 208.15h1.6228v9.8778h-1.6228v-9.8778m0-3.8453h1.6228v2.0549h-1.6228v-2.0549"/>
 </g>
 <g id="text86">
  <path id="path3089" style="" d="m262.18 205.34v2.8046h3.3426v1.2612h-3.3426v5.3622c0 0.80551 0.10877 1.3229 0.32632 1.5522 0.22342 0.2293 0.67321 0.34396 1.3494 0.34395h1.6669v1.3582h-1.6669c-1.2524 0-2.1167-0.23225-2.5929-0.69674-0.47625-0.47037-0.71438-1.3229-0.71437-2.5576v-5.3622h-1.1906v-1.2612h1.1906v-2.8046h1.6316"/>
  <path id="path3091" style="" d="m272.16 213.06c-1.3112 0-2.2196 0.14993-2.7252 0.44979-0.50566 0.29986-0.75848 0.81139-0.75848 1.5346 0 0.5762 0.18815 1.0348 0.56445 1.3758 0.38217 0.33514 0.89958 0.50271 1.5522 0.50271 0.89957 0 1.6198-0.3175 2.1608-0.9525 0.5468-0.64088 0.8202-1.4905 0.82021-2.5488v-0.36159h-1.614m3.2367-0.67028v5.6356h-1.6228v-1.4993c-0.37043 0.59973-0.83198 1.0436-1.3846 1.3317-0.5527 0.28222-1.2288 0.42333-2.0285 0.42333-1.0113 0-1.8168-0.28222-2.4165-0.84666-0.59384-0.57033-0.89076-1.3317-0.89076-2.2842 0-1.1112 0.37041-1.9491 1.1112-2.5135 0.74671-0.56443 1.858-0.84666 3.3337-0.84666h2.2754v-0.15875c-0.00001-0.74671-0.24696-1.3229-0.74084-1.7286-0.48801-0.41157-1.1759-0.61735-2.0637-0.61736-0.56445 0.00001-1.1142 0.0676-1.6492 0.20285-0.53505 0.13523-1.0495 0.33808-1.5434 0.60854v-1.4993c0.59384-0.22929 1.17-0.3998 1.7286-0.51152 0.55856-0.11759 1.1024-0.17638 1.6316-0.17639 1.4287 0.00001 2.4959 0.37042 3.2014 1.1112 0.70555 0.74084 1.0583 1.8638 1.0583 3.369m-2.9633-8.8106h1.7551l-2.8751 3.3161h-1.3494l2.4694-3.3161"/>
 </g>
 <g id="g90" stroke="#000" stroke-width="2" fill="none" transform="translate(-1.126 -1.9751)">
  <path id="line92" d="m193 280.99-11.59 34.77"/>
  <path id="polyline94" d="m179.13 306.81 1.581 11.068 7.906-7.906"/>
 </g>
 <g id="g96" stroke="#000" stroke-width="2" fill="none" transform="translate(-1.126 -1.9751)">
  <path id="line98" d="m207 280.99 11.59 34.77"/>
  <path id="polyline100" d="m211.39 309.97 7.906 7.906 1.581-11.068"/>
 </g>
 <g id="g102" stroke="#000" stroke-width="2" fill="none" transform="translate(-1.126 -1.9751)">
  <path id="line104" d="m273 280.99-11.59 34.77"/>
  <path id="polyline106" d="m259.13 306.81 1.581 11.068 7.906-7.906"/>
 </g>
 <g id="g108" stroke="#000" stroke-width="2" fill="none" transform="translate(-1.126 -1.9751)">
  <path id="line110" d="m287 280.99 11.59 34.77"/>
  <path id="polyline112" d="m291.39 309.97 7.906 7.906 1.581-11.068"/>
 </g>
 <g id="g114" stroke="#000" stroke-width="2" fill="none" transform="translate(-1.126 -1.9751)">
  <path id="line116" d="m393 200.99-11.59 34.77"/>
  <path id="polyline118" d="m379.13 226.81 1.581 11.068 7.906-7.906"/>
 </g>
 <g id="g120" stroke="#000" stroke-width="2" fill="none" transform="translate(-1.126 -1.9751)">
  <path id="line122" d="m407 200.99 11.59 34.77"/>
  <path id="polyline124" d="m411.39 229.97 7.906 7.906 1.581-11.068"/>
 </g>
</svg>
