<?xml version="1.0" encoding="UTF-8" standalone="no"?>
<!-- Created with Inkscape (http://www.inkscape.org/) -->
<svg id="svg2" xmlns:rdf="http://www.w3.org/1999/02/22-rdf-syntax-ns#" xmlns="http://www.w3.org/2000/svg" height="449.99" width="635.94" version="1.1" xmlns:cc="http://creativecommons.org/ns#" xmlns:dc="http://purl.org/dc/elements/1.1/" viewBox="98 78 342.00001 237.38687">
 <metadata id="metadata146">
  <rdf:RDF>
   <cc:Work rdf:about="">
    <dc:format>image/svg+xml</dc:format>
    <dc:type rdf:resource="http://purl.org/dc/dcmitype/StillImage"/>
   </cc:Work>
  </rdf:RDF>
 </metadata>
 <g id="g4" transform="translate(-1 -3.3066)">
  <path id="rect6" fill="#7babe3" d="m260 80h40v40h-40z"/>
  <path id="rect8" d="m260 80h40v40h-40z" stroke="#000" stroke-width="2" fill="none"/>
 </g>
 <g id="g10" transform="translate(-1 -3.3066)">
  <path id="rect12" fill="#7babe3" d="m160 160h40v40h-40z"/>
  <path id="rect14" d="m160 160h40v40h-40z" stroke="#000" stroke-width="2" fill="none"/>
 </g>
 <g id="g16" stroke="#000" stroke-width="2" fill="none" transform="translate(-1 -3.3066)">
  <path id="line18" d="m259 116.8-54.51 43.6"/>
  <path id="polyline20" d="m207.43 151.65-4.685 10.151 10.932-2.342"/>
 </g>
 <g id="g22" stroke="#000" stroke-width="2" fill="none" transform="translate(-1 -3.3066)">
  <path id="line24" d="m159.01 200.99-14.856 14.856"/>
  <path id="polyline26" d="m146.11 206.82-3.536 10.607 10.607-3.536"/>
 </g>
 <g id="g28" stroke="#000" stroke-width="2" fill="none" transform="translate(-1 -3.3066)">
  <path id="line30" d="m200.99 200.99 14.856 14.856"/>
  <path id="polyline32" d="m206.82 213.89 10.607 3.536-3.536-10.607"/>
 </g>
 <g id="g34" stroke="#000" stroke-width="2" fill="none" transform="translate(-1 -3.3066)">
  <path id="line36" d="m301 116.8 54.504 43.603"/>
  <path id="polyline38" d="m346.32 159.46 10.932 2.342-4.685-10.151"/>
 </g>
 <g id="text40">
  <path id="path3064" style="" d="m273.3 86.317h10.491v2.249h-8.0433v4.8419c0.38805-0.13228 0.7761-0.22929 1.1642-0.29104 0.38805-0.07054 0.77611-0.10582 1.1642-0.10583 2.2048 0.000013 3.9511 0.60414 5.2387 1.8124s1.9314 2.8443 1.9315 4.908c-0.00002 2.1255-0.66147 3.7791-1.9844 4.9609-1.3229 1.173-3.1882 1.7595-5.5959 1.7595-0.82904 0-1.6757-0.0706-2.54-0.21167-0.85549-0.14111-1.7418-0.35277-2.6591-0.635v-2.6855c0.79375 0.43215 1.614 0.75406 2.4606 0.96572 0.84666 0.21167 1.7418 0.3175 2.6855 0.3175 1.5258 0 2.734-0.40128 3.6248-1.2038 0.89075-0.80256 1.3361-1.8918 1.3361-3.2676-0.00001-1.3758-0.44539-2.465-1.3361-3.2676-0.89078-0.80256-2.099-1.2038-3.6248-1.2039-0.71438 0.000011-1.4288 0.07939-2.1431 0.23812-0.70556 0.15876-1.4288 0.4057-2.1696 0.74083v-9.9219"/>
 </g>
 <g id="text44">
  <path id="path3067" style="" d="m181.37 175.42c1.2788 0.27341 2.2754 0.84227 2.9898 1.7066 0.72317 0.86431 1.0848 1.9315 1.0848 3.2014-0.00002 1.9491-0.6703 3.4572-2.0108 4.5244-1.3406 1.0672-3.2456 1.6007-5.715 1.6007-0.82903 0-1.6845-0.0838-2.5664-0.25135-0.87313-0.15875-1.7771-0.40129-2.712-0.72761v-2.5797c0.74083 0.43215 1.5522 0.75847 2.4342 0.97896 0.88193 0.22048 1.8036 0.33073 2.7649 0.33073 1.6757 0 2.9501-0.33073 3.8232-0.99219 0.88193-0.66145 1.3229-1.6228 1.3229-2.884-0.00002-1.1642-0.41012-2.0726-1.2303-2.7252-0.8114-0.66145-1.9447-0.99218-3.3999-0.99219h-2.3019v-2.196h2.4077c1.3141 0.00002 2.3195-0.26016 3.0162-0.78052 0.69673-0.52915 1.0451-1.2876 1.0451-2.2754-0.00002-1.0142-0.36161-1.7903-1.0848-2.3283-0.71439-0.54679-1.7418-0.82019-3.0824-0.82021-0.73202 0.00002-1.5169 0.0794-2.3548 0.23813-0.83786 0.15876-1.7595 0.40571-2.7649 0.74083v-2.3812c1.0142-0.2822 1.9623-0.49387 2.8443-0.635 0.89076-0.14109 1.7286-0.21164 2.5135-0.21166 2.0285 0.00002 3.6336 0.46304 4.8154 1.3891 1.1818 0.91724 1.7727 2.1608 1.7727 3.7306-0.00002 1.0936-0.31311 2.0197-0.93927 2.7781-0.6262 0.74966-1.517 1.27-2.6723 1.561"/>
 </g>
 <g id="g48" transform="translate(-1 -3.3066)">
  <path id="rect50" fill="#7babe3" d="m360 160h40v40h-40z"/>
  <path id="rect52" d="m360 160h40v40h-40z" stroke="#000" stroke-width="2" fill="none"/>
 </g>
 <g id="text54">
  <path id="path3072" style="" d="m378.99 176.69c-1.27 0.00001-2.271 0.33956-3.003 1.0186-0.72319 0.67911-1.0848 1.614-1.0848 2.8046s0.3616 2.1255 1.0848 2.8046c0.73201 0.6791 1.733 1.0186 3.003 1.0186s2.271-0.33955 3.003-1.0186c0.732-0.68791 1.098-1.6228 1.098-2.8046-0.00002-1.1906-0.36602-2.1255-1.098-2.8046-0.72321-0.67908-1.7242-1.0186-3.003-1.0186m-2.6723-1.1377c-1.1465-0.28221-2.0417-0.81579-2.6855-1.6007-0.635-0.78491-0.9525-1.7418-0.95249-2.8707-0.00001-1.5787 0.56003-2.8266 1.6801-3.7438 1.1289-0.9172 2.6723-1.3758 4.6302-1.3758 1.9667 0.00002 3.5101 0.45863 4.6302 1.3758 1.1201 0.91724 1.6801 2.1652 1.6801 3.7438-0.00002 1.1289-0.32193 2.0858-0.96573 2.8707-0.63501 0.78494-1.5214 1.3185-2.6591 1.6007 1.2876 0.29987 2.2886 0.88636 3.003 1.7595 0.72317 0.87313 1.0848 1.9403 1.0848 3.2014-0.00002 1.9138-0.58651 3.3823-1.7595 4.4053-1.1642 1.023-2.8355 1.5346-5.0138 1.5346-2.1784 0-3.8541-0.51153-5.0271-1.5346-1.1642-1.023-1.7462-2.4915-1.7462-4.4053-0.00001-1.2612 0.36159-2.3283 1.0848-3.2014 0.72319-0.87312 1.7286-1.4596 3.0162-1.7595m-0.97895-4.2201c-0.00001 1.0231 0.31749 1.8212 0.95249 2.3945 0.64382 0.57327 1.5434 0.8599 2.6988 0.85989 1.1465 0.00001 2.0417-0.28662 2.6855-0.85989 0.65262-0.57325 0.97894-1.3714 0.97896-2.3945-0.00002-1.023-0.32634-1.8212-0.97896-2.3945-0.64383-0.57325-1.539-0.85988-2.6855-0.8599-1.1554 0.00002-2.0549 0.28665-2.6988 0.8599-0.635 0.57328-0.9525 1.3714-0.95249 2.3945"/>
 </g>
 <g id="g58" transform="translate(-1 -3.3066)">
  <path id="rect60" fill="#7babe3" d="m320 220h40v40h-40z"/>
  <path id="rect62" d="m320 220h40v40h-40z" stroke="#000" stroke-width="2" fill="none"/>
 </g>
 <g id="text64">
  <path id="path3077" style="" d="m339.32 235.13c-1.1994 0.00001-2.152 0.41011-2.8575 1.2303-0.69674 0.82022-1.0451 1.9447-1.0451 3.3734 0 1.4199 0.34836 2.5444 1.0451 3.3734 0.70555 0.82021 1.658 1.2303 2.8575 1.2303 1.1994 0 2.1475-0.4101 2.8443-1.2303 0.70554-0.82903 1.0583-1.9535 1.0583-3.3734-0.00001-1.4287-0.35279-2.5532-1.0583-3.3734-0.69675-0.8202-1.6448-1.2303-2.8443-1.2303m5.3049-8.374v2.4342c-0.67029-0.31748-1.3494-0.56002-2.0373-0.7276-0.67911-0.16755-1.3538-0.25134-2.0241-0.25136-1.7639 0.00002-3.1133 0.59533-4.0481 1.7859-0.92605 1.1906-1.4552 2.9898-1.5875 5.3975 0.52034-0.76728 1.173-1.3538 1.9579-1.7595 0.78492-0.4145 1.6492-0.62175 2.5929-0.62177 1.9844 0.00002 3.5498 0.60415 4.6964 1.8124 1.1553 1.1994 1.733 2.8354 1.733 4.908-0.00002 2.0285-0.59974 3.6557-1.7992 4.8816-1.1994 1.2259-2.7958 1.8388-4.789 1.8388-2.2842 0-4.0305-0.87312-5.2387-2.6194-1.2083-1.7551-1.8124-4.2951-1.8124-7.62 0-3.1221 0.74083-5.6092 2.2225-7.4612 1.4817-1.8609 3.4704-2.7913 5.9664-2.7914 0.67026 0.00002 1.345 0.0662 2.0241 0.19843 0.6879 0.13232 1.4023 0.33075 2.1431 0.59532"/>
 </g>
 <g id="g68" transform="translate(-1 -3.3066)">
  <path id="rect70" fill="#7babe3" d="m360 280h40v40h-40z"/>
  <path id="rect72" d="m360 280h40v40h-40z" stroke="#000" stroke-width="2" fill="none"/>
 </g>
 <g id="text74">
  <path id="path3082" style="" d="m372.6 286.32h12.7v1.1377l-7.1702 18.613h-2.7914l6.7469-17.502h-9.4853v-2.249"/>
 </g>
 <g id="g78" transform="translate(-1 -3.3066)">
  <path id="rect80" fill="#7babe3" d="m100 220h40v40h-40z"/>
  <path id="rect82" d="m100 220h40v40h-40z" stroke="#000" stroke-width="2" fill="none"/>
 </g>
 <g id="text84">
  <path id="path3087" style="" d="m113.73 243.82h4.3656v-15.068l-4.7493 0.9525v-2.4342l4.7228-0.9525h2.6723v17.502h4.3656v2.249h-11.377v-2.249"/>
 </g>
 <g id="g88" transform="translate(-1 -3.3066)">
  <path id="rect90" fill="#7babe3" d="m220 220h40v40h-40z"/>
  <path id="rect92" d="m220 220h40v40h-40z" stroke="#000" stroke-width="2" fill="none"/>
 </g>
 <g id="text94">
  <path id="path3092" style="" d="m240.61 228.65-6.7469 10.544h6.7469v-10.544m-0.70115-2.3283h3.3602v12.872h2.8178v2.2225h-2.8178v4.6567h-2.6591v-4.6567h-8.9164v-2.5797l8.2153-12.515"/>
 </g>
 <g id="g98" transform="translate(-1 -3.3066)">
  <path id="rect100" fill="#7babe3" d="m140 280h40v40h-40z"/>
  <path id="rect102" d="m140 280h40v40h-40z" stroke="#000" stroke-width="2" fill="none"/>
 </g>
 <g id="text104">
  <path id="path3097" style="" d="m155.57 303.82h9.3266v2.249h-12.541v-2.249c1.0142-1.0495 2.3945-2.4562 4.1407-4.2201 1.7551-1.7727 2.8575-2.9148 3.3073-3.4264 0.85547-0.96131 1.4508-1.7727 1.7859-2.4342 0.34395-0.67026 0.51593-1.3273 0.51594-1.9711-0.00001-1.0495-0.37043-1.905-1.1112-2.5665-0.73202-0.66144-1.6889-0.99216-2.8707-0.99218-0.83786 0.00002-1.7242 0.14554-2.6591 0.43656-0.92605 0.29106-1.9182 0.73203-2.9766 1.3229v-2.6987c1.076-0.43214 2.0814-0.75845 3.0162-0.97896 0.93486-0.22047 1.7903-0.33071 2.5665-0.33073 2.0461 0.00002 3.6777 0.51155 4.8948 1.5346 1.2171 1.0231 1.8256 2.3901 1.8256 4.101-0.00002 0.8114-0.15436 1.5831-0.46302 2.3151-0.29988 0.72321-0.85109 1.5787-1.6536 2.5665-0.22049 0.25577-0.92164 0.9966-2.1034 2.2225-1.1818 1.2171-2.8487 2.9236-5.0006 5.1197"/>
 </g>
 <g id="g108" stroke="#000" stroke-width="2" fill="none" transform="translate(-1 -3.3066)">
  <path id="line110" d="m133.99 260.99 9.531 14.297"/>
  <path id="polyline112" d="m135.06 271.6 9.708 5.547-1.387-11.094"/>
 </g>
 <g id="g114" stroke="#000" stroke-width="2" fill="none" transform="translate(-1 -3.3066)">
  <path id="line116" d="m366.01 200.99-9.531 14.297"/>
  <path id="polyline118" d="m356.62 206.05-1.387 11.094 9.708-5.547"/>
 </g>
 <g id="g120" stroke="#000" stroke-width="2" fill="none" transform="translate(-1 -3.3066)">
  <path id="line122" d="m353.99 260.99 9.531 14.297"/>
  <path id="polyline124" d="m355.06 271.6 9.708 5.547-1.387-11.094"/>
 </g>
 <g id="g126" transform="translate(-1 -3.3066)">
  <path id="rect128" fill="#7babe3" d="m400 220h40v40h-40z"/>
  <path id="rect130" d="m400 220h40v40h-40z" stroke="#000" stroke-width="2" fill="none"/>
 </g>
 <g id="text132">
  <path id="path3108" style="" d="m413.35 245.66v-2.4342c0.67028 0.3175 1.3494 0.56003 2.0373 0.7276 0.68791 0.16757 1.3626 0.25136 2.0241 0.25136 1.7639 0 3.1088-0.5909 4.0349-1.7727 0.93485-1.1906 1.4684-2.9942 1.6007-5.4107-0.51154 0.75848-1.1598 1.3406-1.9447 1.7462-0.78493 0.40571-1.6536 0.60855-2.6061 0.60855-1.9756 0-3.541-0.59531-4.6964-1.7859-1.1465-1.1994-1.7198-2.8354-1.7198-4.908 0-2.0285 0.59972-3.6556 1.7992-4.8816 1.1994-1.2259 2.7958-1.8388 4.789-1.8388 2.2842 0.00002 4.0261 0.87755 5.2255 2.6326 1.2082 1.7463 1.8124 4.2863 1.8124 7.62-0.00002 3.1133-0.74085 5.6003-2.2225 7.4612-1.4729 1.8521-3.4572 2.7781-5.9531 2.7781-0.67028 0-1.3494-0.0661-2.0373-0.19844-0.68793-0.13229-1.4023-0.33072-2.1431-0.59531m5.3181-8.374c1.1994 0.00001 2.1475-0.41009 2.8443-1.2303 0.70554-0.8202 1.0583-1.9447 1.0583-3.3734-0.00001-1.4199-0.35279-2.54-1.0583-3.3602-0.69675-0.82901-1.6448-1.2435-2.8443-1.2435-1.1994 0.00002-2.152 0.41453-2.8575 1.2435-0.69674 0.82022-1.0451 1.9403-1.0451 3.3602 0 1.4288 0.34836 2.5532 1.0451 3.3734 0.70555 0.82022 1.658 1.2303 2.8575 1.2303"/>
 </g>
 <g id="g136" stroke="#000" stroke-width="2" fill="none" transform="translate(-1 -3.3066)">
  <path id="line138" d="m393.99 200.99 9.531 14.297"/>
  <path id="polyline140" d="m395.06 211.6 9.708 5.547-1.387-11.094"/>
 </g>
</svg>
