<?xml version="1.0" encoding="UTF-8" standalone="no"?>
<!-- Created with Inkscape (http://www.inkscape.org/) -->
<svg id="svg2" xmlns:rdf="http://www.w3.org/1999/02/22-rdf-syntax-ns#" xmlns="http://www.w3.org/2000/svg" height="558.07" width="991.22" version="1.1" xmlns:cc="http://creativecommons.org/ns#" xmlns:dc="http://purl.org/dc/elements/1.1/" viewBox="78 -2 543.50205 302.20312">
 <metadata id="metadata348">
  <rdf:RDF>
   <cc:Work rdf:about="">
    <dc:format>image/svg+xml</dc:format>
    <dc:type rdf:resource="http://purl.org/dc/dcmitype/StillImage"/>
   </cc:Work>
  </rdf:RDF>
 </metadata>
 <g id="g4" transform="translate(-1 -2.8984)">
  <path id="rect6" fill="#7babe3" d="m320 80h40v30h-40z"/>
  <path id="rect8" d="m320 80h40v30h-40z" stroke="#000" stroke-width="2" fill="none"/>
 </g>
 <g id="text10">
  <path id="path3155" style="" d="m333.3 81.725h10.491v2.249h-8.0433v4.8419c0.38805-0.13228 0.7761-0.22929 1.1642-0.29104 0.38805-0.07054 0.77611-0.10582 1.1642-0.10583 2.2048 0.000013 3.9511 0.60414 5.2387 1.8124s1.9314 2.8443 1.9315 4.908c-0.00002 2.1255-0.66147 3.7791-1.9844 4.9609-1.3229 1.173-3.1882 1.7595-5.5959 1.7595-0.82904 0-1.6757-0.0706-2.54-0.21167-0.85549-0.14111-1.7418-0.35278-2.6591-0.635v-2.6855c0.79375 0.43216 1.614 0.75406 2.4606 0.96573 0.84666 0.21167 1.7418 0.3175 2.6855 0.3175 1.5258 0.000002 2.734-0.40128 3.6248-1.2039 0.89075-0.80256 1.3361-1.8918 1.3361-3.2676-0.00001-1.3758-0.44539-2.465-1.3361-3.2676-0.89078-0.80256-2.099-1.2038-3.6248-1.2039-0.71438 0.00001-1.4288 0.07939-2.1431 0.23812-0.70556 0.15876-1.4288 0.4057-2.1696 0.74083v-9.9219"/>
 </g>
 <g id="g14" transform="translate(-1 -2.8984)">
  <path id="rect16" fill="#7babe3" d="m160 140h40v30h-40z"/>
  <path id="rect18" d="m160 140h40v30h-40z" stroke="#000" stroke-width="2" fill="none"/>
 </g>
 <g id="text20">
  <path id="path3160" style="" d="m181.37 150.83c1.2788 0.27341 2.2754 0.84226 2.9898 1.7066 0.72317 0.86431 1.0848 1.9315 1.0848 3.2014-0.00002 1.9491-0.6703 3.4572-2.0108 4.5244-1.3406 1.0672-3.2456 1.6007-5.715 1.6007-0.82903 0-1.6845-0.0838-2.5664-0.25136-0.87313-0.15875-1.7771-0.40128-2.712-0.7276v-2.5797c0.74083 0.43215 1.5522 0.75847 2.4342 0.97895 0.88193 0.22049 1.8036 0.33073 2.7649 0.33073 1.6757 0 2.9501-0.33072 3.8232-0.99218 0.88193-0.66146 1.3229-1.6228 1.3229-2.884-0.00002-1.1642-0.41012-2.0726-1.2303-2.7252-0.8114-0.66145-1.9447-0.99218-3.3999-0.99219h-2.3019v-2.196h2.4077c1.3141 0.00001 2.3195-0.26016 3.0162-0.78052 0.69673-0.52915 1.0451-1.2876 1.0451-2.2754-0.00002-1.0142-0.36161-1.7903-1.0848-2.3283-0.71439-0.54679-1.7418-0.82019-3.0824-0.82021-0.73202 0.00002-1.5169 0.0794-2.3548 0.23812-0.83786 0.15877-1.7595 0.40572-2.7649 0.74084v-2.3812c1.0142-0.2822 1.9623-0.49387 2.8443-0.635 0.89076-0.14109 1.7286-0.21165 2.5135-0.21167 2.0285 0.00002 3.6336 0.46304 4.8154 1.3891 1.1818 0.91724 1.7727 2.1608 1.7727 3.7306-0.00002 1.0936-0.31311 2.0197-0.93927 2.7781-0.6262 0.74966-1.517 1.27-2.6723 1.561"/>
 </g>
 <g id="g24" transform="translate(-1 -2.8984)">
  <path id="rect26" fill="#7babe3" d="m480 140h40v30h-40z"/>
  <path id="rect28" d="m480 140h40v30h-40z" stroke="#000" stroke-width="2" fill="none"/>
 </g>
 <g id="text30">
  <path id="path3165" style="" d="m492.6 141.73h12.7v1.1377l-7.1702 18.613h-2.7914l6.7469-17.502h-9.4853v-2.249"/>
 </g>
 <g id="g34" transform="translate(-1 -2.8984)">
  <path id="rect36" fill="#7babe3" d="m80 200h40v30h-40z"/>
  <path id="rect38" d="m80 200h40v30h-40z" stroke="#000" stroke-width="2" fill="none"/>
 </g>
 <g id="text40">
  <path id="path3170" style="" d="m93.735 219.23h4.3656v-15.068l-4.7493 0.9525v-2.4342l4.7228-0.9525h2.6723v17.502h4.3656v2.249h-11.377v-2.249"/>
 </g>
 <g id="g44" transform="translate(-1 -2.8984)">
  <path id="rect46" fill="#7babe3" d="m240 200h40v30h-40z"/>
  <path id="rect48" d="m240 200h40v30h-40z" stroke="#000" stroke-width="2" fill="none"/>
 </g>
 <g id="text50">
  <path id="path3175" style="" d="m260.61 204.05-6.7469 10.544h6.7469v-10.544m-0.70115-2.3283h3.3602v12.872h2.8178v2.2225h-2.8178v4.6567h-2.6591v-4.6567h-8.9164v-2.5797l8.2153-12.515"/>
 </g>
 <g id="g54" transform="translate(-1 -2.8984)">
  <path id="rect56" fill="#7babe3" d="m400 200h40v30h-40z"/>
  <path id="rect58" d="m400 200h40v30h-40z" stroke="#000" stroke-width="2" fill="none"/>
 </g>
 <g id="text60">
  <path id="path3180" style="" d="m419.32 210.54c-1.1994 0.00001-2.152 0.41011-2.8575 1.2303-0.69674 0.82021-1.0451 1.9447-1.0451 3.3734 0 1.4199 0.34836 2.5444 1.0451 3.3734 0.70555 0.82021 1.658 1.2303 2.8575 1.2303 1.1994 0.00001 2.1475-0.4101 2.8443-1.2303 0.70554-0.82902 1.0583-1.9535 1.0583-3.3734-0.00001-1.4287-0.35279-2.5532-1.0583-3.3734-0.69675-0.8202-1.6448-1.2303-2.8443-1.2303m5.3049-8.3741v2.4342c-0.67029-0.31749-1.3494-0.56002-2.0373-0.72761-0.67911-0.16755-1.3538-0.25133-2.0241-0.25135-1.7639 0.00002-3.1133 0.59533-4.0481 1.7859-0.92605 1.1906-1.4552 2.9898-1.5875 5.3975 0.52034-0.76728 1.173-1.3538 1.9579-1.7595 0.78492-0.4145 1.6492-0.62176 2.5929-0.62177 1.9844 0.00001 3.5498 0.60414 4.6964 1.8124 1.1553 1.1995 1.733 2.8355 1.733 4.908-0.00002 2.0285-0.59974 3.6557-1.7992 4.8816-1.1994 1.2259-2.7958 1.8388-4.789 1.8388-2.2842 0-4.0305-0.87313-5.2387-2.6194-1.2083-1.7551-1.8124-4.2951-1.8124-7.62 0-3.1221 0.74083-5.6092 2.2225-7.4612 1.4817-1.8609 3.4704-2.7913 5.9664-2.7914 0.67026 0.00002 1.345 0.0662 2.0241 0.19844 0.6879 0.13231 1.4023 0.33075 2.1431 0.59531"/>
 </g>
 <g id="g64" transform="translate(-1 -2.8984)">
  <path id="rect66" fill="#7babe3" d="m560 200h40v30h-40z"/>
  <path id="rect68" d="m560 200h40v30h-40z" stroke="#000" stroke-width="2" fill="none"/>
 </g>
 <g id="text70">
  <path id="path3185" style="" d="m573.35 221.07v-2.4342c0.67028 0.3175 1.3494 0.56003 2.0373 0.7276 0.68791 0.16757 1.3626 0.25135 2.0241 0.25135 1.7639 0 3.1088-0.5909 4.0349-1.7727 0.93485-1.1906 1.4684-2.9942 1.6007-5.4107-0.51154 0.75848-1.1598 1.3406-1.9447 1.7462-0.78493 0.4057-1.6536 0.60855-2.6061 0.60854-1.9756 0.00001-3.541-0.5953-4.6964-1.7859-1.1465-1.1994-1.7198-2.8354-1.7198-4.908 0-2.0284 0.59972-3.6556 1.7992-4.8816 1.1994-1.2259 2.7958-1.8388 4.789-1.8389 2.2842 0.00002 4.0261 0.87756 5.2255 2.6326 1.2082 1.7463 1.8124 4.2863 1.8124 7.62-0.00002 3.1133-0.74085 5.6003-2.2225 7.4612-1.4729 1.8521-3.4572 2.7781-5.9531 2.7781-0.67028 0-1.3494-0.0661-2.0373-0.19844-0.68793-0.13229-1.4023-0.33073-2.1431-0.59531m5.3181-8.374c1.1994 0.00001 2.1475-0.4101 2.8443-1.2303 0.70554-0.8202 1.0583-1.9447 1.0583-3.3734-0.00001-1.4199-0.35279-2.54-1.0583-3.3602-0.69675-0.82901-1.6448-1.2435-2.8443-1.2435-1.1994 0.00002-2.152 0.41453-2.8575 1.2435-0.69674 0.82022-1.0451 1.9403-1.0451 3.3602 0 1.4288 0.34836 2.5532 1.0451 3.3734 0.70555 0.82021 1.658 1.2303 2.8575 1.2303"/>
 </g>
 <g id="g74" transform="translate(-1 -2.8984)">
  <path id="rect76" fill="#7babe3" d="m120 260h40v30h-40z"/>
  <path id="rect78" d="m120 260h40v30h-40z" stroke="#000" stroke-width="2" fill="none"/>
 </g>
 <g id="text80">
  <path id="path3190" style="" d="m135.57 279.23h9.3266v2.249h-12.541v-2.249c1.0142-1.0495 2.3945-2.4562 4.1407-4.2201 1.7551-1.7727 2.8575-2.9148 3.3073-3.4264 0.85547-0.96131 1.4508-1.7727 1.7859-2.4342 0.34395-0.67026 0.51593-1.3273 0.51594-1.9711-0.00001-1.0495-0.37043-1.905-1.1112-2.5664-0.73202-0.66144-1.6889-0.99217-2.8707-0.99219-0.83786 0.00002-1.7242 0.14554-2.6591 0.43656-0.92605 0.29106-1.9182 0.73203-2.9766 1.3229v-2.6988c1.076-0.43213 2.0814-0.75845 3.0162-0.97896 0.93486-0.22046 1.7903-0.33071 2.5665-0.33073 2.0461 0.00002 3.6777 0.51155 4.8948 1.5346 1.2171 1.0231 1.8256 2.3901 1.8256 4.101-0.00002 0.8114-0.15436 1.5831-0.46302 2.3151-0.29988 0.72321-0.85109 1.5787-1.6536 2.5665-0.22049 0.25577-0.92164 0.9966-2.1034 2.2225-1.1818 1.2171-2.8487 2.9236-5.0006 5.1197"/>
 </g>
 <g id="g84" transform="translate(-1 -2.8984)">
  <path id="rect86" fill="#7babe3" d="m520 260h40v30h-40z"/>
  <path id="rect88" d="m520 260h40v30h-40z" stroke="#000" stroke-width="2" fill="none"/>
 </g>
 <g id="text90">
  <path id="path3195" style="" d="m538.99 272.1c-1.27 0.00001-2.271 0.33956-3.003 1.0186-0.72319 0.6791-1.0848 1.614-1.0848 2.8046s0.3616 2.1255 1.0848 2.8046c0.73201 0.6791 1.733 1.0186 3.003 1.0186 1.27 0.00001 2.271-0.33954 3.003-1.0186 0.732-0.68791 1.098-1.6228 1.098-2.8046-0.00002-1.1906-0.36602-2.1255-1.098-2.8046-0.72321-0.67909-1.7242-1.0186-3.003-1.0186m-2.6723-1.1377c-1.1465-0.28221-2.0417-0.81579-2.6855-1.6007-0.635-0.78492-0.9525-1.7418-0.95249-2.8707-0.00001-1.5787 0.56003-2.8266 1.6801-3.7438 1.1289-0.91721 2.6723-1.3758 4.6302-1.3758 1.9667 0.00002 3.5101 0.45863 4.6302 1.3758 1.1201 0.91723 1.6801 2.1652 1.6801 3.7438-0.00002 1.1289-0.32193 2.0858-0.96573 2.8707-0.63501 0.78494-1.5214 1.3185-2.6591 1.6007 1.2876 0.29987 2.2886 0.88636 3.003 1.7595 0.72317 0.87314 1.0848 1.9403 1.0848 3.2015-0.00002 1.9138-0.58651 3.3822-1.7595 4.4053-1.1642 1.023-2.8355 1.5346-5.0138 1.5346-2.1784 0-3.8541-0.51153-5.0271-1.5346-1.1642-1.0231-1.7462-2.4915-1.7462-4.4053-0.00001-1.2612 0.36159-2.3283 1.0848-3.2015 0.72319-0.87311 1.7286-1.4596 3.0162-1.7595m-0.97895-4.2201c-0.00001 1.0231 0.31749 1.8212 0.95249 2.3945 0.64382 0.57328 1.5434 0.85991 2.6988 0.8599 1.1465 0.00001 2.0417-0.28662 2.6855-0.8599 0.65262-0.57325 0.97894-1.3714 0.97896-2.3945-0.00002-1.023-0.32634-1.8212-0.97896-2.3945-0.64383-0.57324-1.539-0.85987-2.6855-0.85989-1.1554 0.00002-2.0549 0.28665-2.6988 0.85989-0.635 0.57328-0.9525 1.3714-0.95249 2.3945"/>
 </g>
 <g id="g94" transform="translate(-1 -2.8984)">
  <path id="line96" d="m320 124-109.5 24.25" stroke="#000" stroke-width="2" fill="none"/>
  <path id="polygon98" d="m210.5 148.25 3.522 4.342-10.845-2.72 8.683-7.044z"/>
  <path id="polygon100" d="m210.5 148.25 3.522 4.342-10.845-2.72 8.683-7.044z" stroke="#000" stroke-width="2" fill="none"/>
 </g>
 <g id="g102" transform="translate(-1 -2.8984)">
  <path id="line104" d="m160 184-30.359 15.685" stroke="#000" stroke-width="2" fill="none"/>
  <path id="polygon106" d="m129.64 199.68 4.516 3.295-11.179 0.148 6.589-9.032z"/>
  <path id="polygon108" d="m129.64 199.68 4.516 3.295-11.179 0.148 6.589-9.032z" stroke="#000" stroke-width="2" fill="none"/>
 </g>
 <g id="g110" transform="translate(-1 -2.8984)">
  <path id="line112" d="m200 184 30.359 15.685" stroke="#000" stroke-width="2" fill="none"/>
  <path id="polygon114" d="m230.36 199.68 0.074-5.589 6.589 9.032-11.179-0.148z"/>
  <path id="polygon116" d="m230.36 199.68 0.074-5.589 6.589 9.032-11.179-0.148z" stroke="#000" stroke-width="2" fill="none"/>
 </g>
 <g id="g118" transform="translate(-1 -2.8984)">
  <path id="line120" d="m120 244 4.4 6.819" stroke="#000" stroke-width="2" fill="none"/>
  <path id="polygon122" d="m124.4 250.82 2.846-4.811 1.22 11.114-9.623-5.693z"/>
  <path id="polygon124" d="m124.4 250.82 2.846-4.811 1.22 11.114-9.623-5.693z" stroke="#000" stroke-width="2" fill="none"/>
 </g>
 <g id="g126" transform="translate(-1 -2.8984)">
  <path id="line128" d="m480 184-30.359 15.685" stroke="#000" stroke-width="2" fill="none"/>
  <path id="polygon130" d="m449.64 199.68 4.516 3.295-11.179 0.148 6.589-9.032z"/>
  <path id="polygon132" d="m449.64 199.68 4.516 3.295-11.179 0.148 6.589-9.032z" stroke="#000" stroke-width="2" fill="none"/>
 </g>
 <g id="g134" transform="translate(-1 -2.8984)">
  <path id="line136" d="m520 184 30.359 15.685" stroke="#000" stroke-width="2" fill="none"/>
  <path id="polygon138" d="m550.36 199.68 0.074-5.589 6.589 9.032-11.179-0.148z"/>
  <path id="polygon140" d="m550.36 199.68 0.074-5.589 6.589 9.032-11.179-0.148z" stroke="#000" stroke-width="2" fill="none"/>
 </g>
 <g id="g142" transform="translate(-1 -2.8984)">
  <path id="line144" d="m560 244-4.4 6.819" stroke="#000" stroke-width="2" fill="none"/>
  <path id="polygon146" d="m555.6 250.82 5.557 0.61-9.623 5.693 1.22-11.114z"/>
  <path id="polygon148" d="m555.6 250.82 5.557 0.61-9.623 5.693 1.22-11.114z" stroke="#000" stroke-width="2" fill="none"/>
 </g>
 <g id="g150" transform="translate(-1 -2.8984)">
  <path id="line152" d="m360 124 109.5 24.246" stroke="#000" stroke-width="2" fill="none"/>
  <path id="polygon154" d="m469.5 148.25-1.36-5.422 8.683 7.044-10.845 2.72z"/>
  <path id="polygon156" d="m469.5 148.25-1.36-5.422 8.683 7.044-10.845 2.72z" stroke="#000" stroke-width="2" fill="none"/>
 </g>
 <g id="g158" transform="translate(-1 -2.8984)">
  <path id="line160" d="m340 60v10.264" stroke="#000" stroke-width="2" fill="none"/>
  <path id="polygon162" d="m340 70.264 5-2.5-5 10-5-10z"/>
  <path id="polygon164" d="m340 70.264 5-2.5-5 10-5-10z" stroke="#000" stroke-width="2" fill="none"/>
 </g>
 <g id="g166" transform="translate(-1 -2.8984)">
  <path id="rect168" fill="#fff" d="m330 40h20v20h-20z"/>
  <path id="rect170" d="m330 40h20v20h-20z" stroke="#000" stroke-width="2" fill="none"/>
 </g>
 <g id="g172" transform="translate(-1 -2.8984)">
  <path id="rect174" fill="#bfbfbf" d="m80 230h20v14h-20z"/>
  <path id="rect176" d="m80 230h20v14h-20z" stroke="#000" stroke-width="2" fill="none"/>
 </g>
 <g id="g178" transform="translate(-1 -2.8984)">
  <path id="rect180" fill="#fff" d="m100 230h20v14h-20z"/>
  <path id="rect182" d="m100 230h20v14h-20z" stroke="#000" stroke-width="2" fill="none"/>
 </g>
 <g id="g184" transform="translate(-1 -2.8984)">
  <path id="rect186" fill="#fff" d="m160 170h20v14h-20z"/>
  <path id="rect188" d="m160 170h20v14h-20z" stroke="#000" stroke-width="2" fill="none"/>
 </g>
 <g id="g190" transform="translate(-1 -2.8984)">
  <path id="rect192" fill="#fff" d="m180 170h20v14h-20z"/>
  <path id="rect194" d="m180 170h20v14h-20z" stroke="#000" stroke-width="2" fill="none"/>
 </g>
 <g id="g196" transform="translate(-1 -2.8984)">
  <path id="rect198" fill="#bfbfbf" d="m240 230h20v14h-20z"/>
  <path id="rect200" d="m240 230h20v14h-20z" stroke="#000" stroke-width="2" fill="none"/>
 </g>
 <g id="g202" transform="translate(-1 -2.8984)">
  <path id="rect204" fill="#bfbfbf" d="m260 230h20v14h-20z"/>
  <path id="rect206" d="m260 230h20v14h-20z" stroke="#000" stroke-width="2" fill="none"/>
 </g>
 <g id="g208" transform="translate(-1 -2.8984)">
  <path id="rect210" fill="#bfbfbf" d="m120 290h20v14h-20z"/>
  <path id="rect212" d="m120 290h20v14h-20z" stroke="#000" stroke-width="2" fill="none"/>
 </g>
 <g id="g214" transform="translate(-1 -2.8984)">
  <path id="rect216" fill="#bfbfbf" d="m140 290h20v14h-20z"/>
  <path id="rect218" d="m140 290h20v14h-20z" stroke="#000" stroke-width="2" fill="none"/>
 </g>
 <g id="g220" transform="translate(-1 -2.8984)">
  <path id="rect222" fill="#bfbfbf" d="m400 230h20v14h-20z"/>
  <path id="rect224" d="m400 230h20v14h-20z" stroke="#000" stroke-width="2" fill="none"/>
 </g>
 <g id="g226" transform="translate(-1 -2.8984)">
  <path id="rect228" fill="#bfbfbf" d="m420 230h20v14h-20z"/>
  <path id="rect230" d="m420 230h20v14h-20z" stroke="#000" stroke-width="2" fill="none"/>
 </g>
 <g id="g232" transform="translate(-1 -2.8984)">
  <path id="rect234" fill="#fff" d="m480 170h20v14h-20z"/>
  <path id="rect236" d="m480 170h20v14h-20z" stroke="#000" stroke-width="2" fill="none"/>
 </g>
 <g id="g238" transform="translate(-1 -2.8984)">
  <path id="rect240" fill="#fff" d="m500 170h20v14h-20z"/>
  <path id="rect242" d="m500 170h20v14h-20z" stroke="#000" stroke-width="2" fill="none"/>
 </g>
 <g id="g244" transform="translate(-1 -2.8984)">
  <path id="rect246" fill="#fff" d="m320 110h20v14h-20z"/>
  <path id="rect248" d="m320 110h20v14h-20z" stroke="#000" stroke-width="2" fill="none"/>
 </g>
 <g id="g250" transform="translate(-1 -2.8984)">
  <path id="rect252" fill="#fff" d="m340 110h20v14h-20z"/>
  <path id="rect254" d="m340 110h20v14h-20z" stroke="#000" stroke-width="2" fill="none"/>
 </g>
 <g id="g256" transform="translate(-1 -2.8984)">
  <path id="rect258" fill="#bfbfbf" d="m520 290h20v14h-20z"/>
  <path id="rect260" d="m520 290h20v14h-20z" stroke="#000" stroke-width="2" fill="none"/>
 </g>
 <g id="g262" transform="translate(-1 -2.8984)">
  <path id="rect264" fill="#bfbfbf" d="m540 290h20v14h-20z"/>
  <path id="rect266" d="m540 290h20v14h-20z" stroke="#000" stroke-width="2" fill="none"/>
 </g>
 <g id="g268" transform="translate(-1 -2.8984)">
  <path id="rect270" fill="#fff" d="m560 230h20v14h-20z"/>
  <path id="rect272" d="m560 230h20v14h-20z" stroke="#000" stroke-width="2" fill="none"/>
 </g>
 <g id="g274" transform="translate(-1 -2.8984)">
  <path id="rect276" fill="#bfbfbf" d="m580 230h20v14h-20z"/>
  <path id="rect278" d="m580 230h20v14h-20z" stroke="#000" stroke-width="2" fill="none"/>
 </g>
 <g id="g280" transform="translate(-1 -2.8984)">
  <path id="rect282" fill="#fdfd04" d="m330 0h20v20h-20z"/>
  <path id="rect284" d="m330 0h20v20h-20z" stroke="#000" stroke-width="2" fill="none"/>
 </g>
 <g id="g286" transform="translate(-1 -2.8984)">
  <path id="line288" d="m340 20v10.264" stroke="#000" stroke-width="2" fill="none"/>
  <path id="polygon290" d="m340 30.264 5-2.5-5 10-5-10z"/>
  <path id="polygon292" d="m340 30.264 5-2.5-5 10-5-10z" stroke="#000" stroke-width="2" fill="none"/>
 </g>
 <g id="text294">
  <path id="path3268" style="" d="m197.4 10.69v3.9291h-1.2237v-10.226h1.2237v1.1245c0.25576-0.44097 0.57767-0.76729 0.96573-0.97896 0.39246-0.21607 0.85989-0.32411 1.4023-0.32412 0.89958 0.0000076 1.6294 0.3572 2.1894 1.0716 0.56444 0.71438 0.84666 1.6537 0.84667 2.8178-0.00001 1.1642-0.28223 2.1034-0.84667 2.8178-0.56004 0.71438-1.2898 1.0716-2.1894 1.0716-0.5424 0-1.0098-0.10583-1.4023-0.3175-0.38806-0.21608-0.70997-0.5446-0.96573-0.98558m4.1407-2.5863c0-0.89517-0.18521-1.5963-0.55562-2.1034-0.36602-0.51152-0.87093-0.76729-1.5148-0.76729-0.64382 0.0000066-1.1509 0.25577-1.5214 0.76729-0.36601 0.50712-0.54902 1.2083-0.54901 2.1034-0.00001 0.89518 0.183 1.5985 0.54901 2.1101 0.37041 0.50712 0.87753 0.76068 1.5214 0.76068 0.64382 0.000001 1.1487-0.25356 1.5148-0.76068 0.37041-0.51153 0.55562-1.2149 0.55562-2.1101"/>
  <path id="path3270" style="" d="m209.69 8.0114c-0.00001-0.88194-0.18301-1.5654-0.54902-2.0505-0.3616-0.48506-0.87092-0.7276-1.528-0.72761-0.65264 0.0000066-1.162 0.24254-1.528 0.72761-0.3616 0.48508-0.5424 1.1686-0.5424 2.0505 0 0.87754 0.1808 1.5588 0.5424 2.0439 0.366 0.48507 0.87533 0.72761 1.528 0.72761 0.65705 0.000001 1.1664-0.24253 1.528-0.72761 0.36601-0.48507 0.54901-1.1664 0.54902-2.0439m1.2171 2.8707c-0.00001 1.2612-0.28002 2.1983-0.84005 2.8112-0.56004 0.61736-1.4177 0.92604-2.5731 0.92604-0.42775-0.000003-0.83124-0.03308-1.2105-0.09922-0.37924-0.06174-0.74746-0.15875-1.1046-0.29104v-1.184c0.35718 0.19403 0.70996 0.33734 1.0583 0.42995 0.34837 0.0926 0.70335 0.1389 1.065 0.13891 0.79816-0.000002 1.3957-0.20946 1.7926-0.62839 0.39687-0.41452 0.59531-1.0429 0.59532-1.8852v-0.60193c-0.25137 0.43656-0.57328 0.76288-0.96574 0.97896-0.39247 0.21608-0.8621 0.32412-1.4089 0.32412-0.9084 0-1.6404-0.34616-2.196-1.0385-0.55563-0.69233-0.83344-1.6095-0.83344-2.7517 0-1.1465 0.27781-2.066 0.83344-2.7583 0.55562-0.69232 1.2876-1.0385 2.196-1.0385 0.54681 0.0000076 1.0164 0.10805 1.4089 0.32412 0.39246 0.21608 0.71437 0.5424 0.96574 0.97896v-1.1245h1.2171v6.4889"/>
  <path id="path3272" style="" d="m216.5 12.489c-0.34397 0.88194-0.6791 1.4574-1.0054 1.7264-0.32632 0.26899-0.76289 0.40349-1.3097 0.40349h-0.97235v-1.0186h0.71438c0.33514-0.000001 0.59531-0.07938 0.78052-0.23812 0.18521-0.15875 0.39026-0.53358 0.61516-1.1245l0.21828-0.55563-2.9964-7.2893h1.2898l2.3151 5.7944 2.3151-5.7944h1.2898l-3.2544 8.0963"/>
  <path id="path3274" style="" d="m224.31 5.2465c-0.65264 0.0000066-1.1686 0.25577-1.5478 0.76729-0.37924 0.50712-0.56886 1.2039-0.56886 2.0902 0 0.88636 0.18741 1.5853 0.56224 2.0968 0.37924 0.50712 0.89738 0.76068 1.5544 0.76068 0.64823 0.000001 1.162-0.25576 1.5412-0.76729 0.37923-0.51153 0.56884-1.2083 0.56885-2.0902-0.00001-0.87753-0.18962-1.5721-0.56885-2.0836-0.37925-0.51593-0.89298-0.7739-1.5412-0.77391m0-1.0319c1.0583 0.0000076 1.8896 0.34397 2.4937 1.0319 0.60412 0.68792 0.90619 1.6404 0.9062 2.8575-0.00001 1.2127-0.30208 2.1652-0.9062 2.8575-0.60414 0.68792-1.4354 1.0319-2.4937 1.0319-1.0627 0-1.8962-0.34396-2.5003-1.0319-0.59973-0.69233-0.89959-1.6448-0.89959-2.8575 0-1.2171 0.29986-2.1696 0.89959-2.8575 0.60413-0.68791 1.4376-1.0319 2.5003-1.0319"/>
  <path id="path3276" style="" d="m229.67 1.5092h1.2237v6.0788l3.6314-3.1949h1.5544l-3.9291 3.4661 4.0944 3.9423h-1.5875l-3.7637-3.6182v3.6182h-1.2237v-10.292"/>
  <path id="path3278" style="" d="m243.43 7.7931v0.59531h-5.596c0.0529 0.83785 0.30427 1.4773 0.75406 1.9182 0.4542 0.43656 1.0848 0.65485 1.8918 0.65484 0.46743 0.000001 0.91942-0.05733 1.356-0.17198 0.44097-0.11465 0.87753-0.28663 1.3097-0.51594v1.1509c-0.43657 0.18521-0.88415 0.32632-1.3428 0.42334-0.45862 0.09701-0.92384 0.14552-1.3957 0.14552-1.1818 0-2.1189-0.34396-2.8112-1.0319-0.68791-0.68792-1.0319-1.6184-1.0319-2.7914 0-1.2127 0.32632-2.174 0.97896-2.884 0.65705-0.71437 1.5412-1.0716 2.6524-1.0716 0.9966 0.0000076 1.7837 0.32192 2.3614 0.96573 0.58208 0.63942 0.87312 1.5103 0.87313 2.6128m-1.2171-0.35719c-0.009-0.66586-0.19624-1.1972-0.56225-1.5941-0.3616-0.39687-0.84226-0.59531-1.442-0.59531-0.6791 0.0000066-1.2237 0.19183-1.6338 0.57547-0.4057 0.38365-0.63942 0.92384-0.70115 1.6206l4.3392-0.00661"/>
  <path id="path3280" style="" d="m249.72 5.5309c-0.13671-0.079369-0.28664-0.1367-0.4498-0.17198-0.15875-0.039681-0.33514-0.059525-0.52916-0.059531-0.68793 0.0000065-1.2171 0.2249-1.5875 0.67469-0.36601 0.44539-0.54901 1.087-0.54901 1.9248v3.9026h-1.2237v-7.4084h1.2237v1.1509c0.25576-0.44979 0.5887-0.78272 0.9988-0.9988 0.41011-0.22048 0.90841-0.33072 1.4949-0.33073 0.0838 0.0000076 0.17639 0.00662 0.27782 0.019844 0.10142 0.00883 0.21386 0.024261 0.33734 0.046302l0.007 1.2502"/>
  <path id="path3282" style="" d="m258.24 1.5225c-0.5909 1.0142-1.0297 2.0175-1.3163 3.0096-0.28664 0.9922-0.42995 1.9976-0.42995 3.0163s0.14331 2.0285 0.42995 3.0295c0.29104 0.9966 0.72981 1.9998 1.3163 3.0096h-1.0583c-0.66146-1.0363-1.1576-2.0549-1.4883-3.0559-0.32632-1.001-0.48948-1.9954-0.48948-2.9832 0-0.98337 0.16316-1.9733 0.48948-2.97 0.32632-0.99659 0.82242-2.0152 1.4883-3.0559h1.0583"/>
  <path id="path3284" style="" d="m262 7.0854v3.6182h2.1431c0.71878 0.000001 1.2502-0.14772 1.5941-0.44318 0.34836-0.29986 0.52254-0.75627 0.52255-1.3692-0.00001-0.61736-0.17419-1.0716-0.52255-1.3626-0.34397-0.29545-0.87534-0.44317-1.5941-0.44318h-2.1431m0-4.0614v2.9766h1.9778c0.65264 0.0000058 1.1377-0.12126 1.4552-0.3638 0.3219-0.24694 0.48286-0.62177 0.48286-1.1245 0-0.49829-0.16096-0.87091-0.48286-1.1179-0.31751-0.24694-0.80258-0.37041-1.4552-0.37042h-1.9778m-1.3362-1.098h3.4131c1.0186 0.0000099 1.8036 0.21168 2.3548 0.635 0.55121 0.42334 0.82682 1.0253 0.82683 1.8058-0.00001 0.60414-0.14112 1.0848-0.42334 1.442-0.28223 0.35719-0.69674 0.57989-1.2435 0.66807 0.65704 0.14112 1.1664 0.43657 1.528 0.88636 0.366 0.44539 0.549 1.0032 0.54901 1.6735-0.00001 0.88195-0.29987 1.5633-0.89958 2.0439-0.59973 0.48066-1.453 0.72099-2.5598 0.72099h-3.5454v-9.8756"/>
  <path id="path3286" style="" d="m269.9 4.3932h1.2171v7.4084h-1.2171v-7.4084m0-2.884h1.2171v1.5412h-1.2171v-1.5412"/>
  <path id="path3288" style="" d="m279.82 7.3301v4.4715h-1.2171v-4.4318c-0.00001-0.70114-0.13671-1.2259-0.4101-1.5743-0.27341-0.34836-0.68352-0.52255-1.2303-0.52255-0.65705 0.0000065-1.1752 0.20947-1.5544 0.62839-0.37924 0.41893-0.56886 0.98999-0.56886 1.7132v4.187h-1.2237v-7.4084h1.2237v1.1509c0.29104-0.44538 0.6328-0.77831 1.0253-0.9988 0.39687-0.22048 0.85328-0.33072 1.3692-0.33073 0.85107 0.0000076 1.4949 0.26459 1.9315 0.79375 0.43656 0.52476 0.65484 1.2987 0.65485 2.3217"/>
  <path id="path3290" style="" d="m282.31 1.926h5.6753v1.1245h-4.3392v2.9104h3.9158v1.1245h-3.9158v4.7162h-1.3362v-9.8756"/>
  <path id="path3292" style="" d="m292.18 8.0775c-0.98338 0.0000037-1.6647 0.11245-2.0439 0.33734-0.37923 0.2249-0.56885 0.60855-0.56885 1.1509 0 0.43216 0.14111 0.77611 0.42333 1.0319 0.28663 0.25136 0.67469 0.37703 1.1642 0.37703 0.67469 0.000001 1.2149-0.23812 1.6206-0.71438 0.4101-0.48066 0.61515-1.1179 0.61516-1.9116v-0.2712h-1.2105m2.4276-0.50271v4.2267h-1.2171v-1.1245c-0.27782 0.44979-0.62398 0.78273-1.0385 0.9988-0.41452 0.21167-0.92164 0.3175-1.5214 0.3175-0.75848 0-1.3626-0.21167-1.8124-0.635-0.44539-0.42774-0.66808-0.9988-0.66808-1.7132 0-0.83344 0.27781-1.4618 0.83344-1.8852 0.56004-0.42333 1.3935-0.635 2.5003-0.635h1.7066v-0.11906c-0.00001-0.56003-0.18522-0.99218-0.55563-1.2965-0.36601-0.30867-0.88195-0.46302-1.5478-0.46302-0.42333 0.0000066-0.83564 0.050718-1.2369 0.15214-0.40128 0.10143-0.78713 0.25357-1.1576 0.45641v-1.1245c0.44538-0.17197 0.87753-0.29985 1.2965-0.38365 0.41892-0.088187 0.82682-0.13228 1.2237-0.13229 1.0716 0.0000076 1.8719 0.27782 2.4011 0.83344 0.52916 0.55563 0.79375 1.3979 0.79375 2.5268"/>
  <path id="path3294" style="" d="m306.53 3.5532-2.3746 1.2832 2.3746 1.2898-0.38365 0.64823-2.2225-1.3428v2.4937h-0.75407v-2.4937l-2.2225 1.3428-0.38365-0.64823 2.3746-1.2898-2.3746-1.2832 0.38365-0.65485 2.2225 1.3428v-2.4937h0.75407v2.4937l2.2225-1.3428 0.38365 0.65485"/>
  <path id="path3296" style="" d="m313.3 3.5532-2.3746 1.2832 2.3746 1.2898-0.38365 0.64823-2.2225-1.3428v2.4937h-0.75407v-2.4937l-2.2225 1.3428-0.38365-0.64823 2.3746-1.2898-2.3746-1.2832 0.38365-0.65485 2.2225 1.3428v-2.4937h0.75407v2.4937l2.2225-1.3428 0.38365 0.65485"/>
  <path id="path3298" style="" d="m314.79 1.5225h1.0583c0.66146 1.0407 1.1553 2.0594 1.4817 3.0559 0.33072 0.99661 0.49609 1.9866 0.49609 2.97 0 0.98778-0.16537 1.9822-0.49609 2.9832-0.32633 1.001-0.82021 2.0197-1.4817 3.0559h-1.0583c0.58649-1.0098 1.0231-2.013 1.3097-3.0096 0.29104-1.001 0.43656-2.0108 0.43657-3.0295-0.00001-1.0186-0.14553-2.0241-0.43657-3.0163-0.28663-0.99218-0.7232-1.9954-1.3097-3.0096"/>
 </g>
 <g id="text298" fill="#7f7f7f">
  <path id="path3301" style="" d="m216.47 48.011c-0.00001-0.88194-0.18301-1.5654-0.54902-2.0505-0.3616-0.48506-0.87092-0.7276-1.528-0.72761-0.65264 0.000007-1.162 0.24254-1.528 0.72761-0.3616 0.48508-0.5424 1.1686-0.5424 2.0505 0 0.87754 0.1808 1.5588 0.5424 2.0439 0.366 0.48507 0.87533 0.72761 1.528 0.72761 0.65705 0.000001 1.1664-0.24253 1.528-0.72761 0.36601-0.48507 0.54901-1.1664 0.54902-2.0439m1.2171 2.8707c-0.00001 1.2612-0.28002 2.1983-0.84005 2.8112-0.56004 0.61736-1.4177 0.92604-2.5731 0.92604-0.42775-0.000003-0.83124-0.03308-1.2105-0.09922-0.37924-0.06174-0.74746-0.15875-1.1046-0.29104v-1.184c0.35718 0.19403 0.70996 0.33734 1.0583 0.42995 0.34837 0.0926 0.70335 0.1389 1.065 0.13891 0.79816-0.000002 1.3957-0.20946 1.7926-0.62839 0.39687-0.41452 0.59531-1.0429 0.59532-1.8852v-0.60193c-0.25137 0.43656-0.57328 0.76288-0.96574 0.97896-0.39247 0.21608-0.8621 0.32412-1.4089 0.32412-0.9084 0-1.6404-0.34616-2.196-1.0385-0.55563-0.69233-0.83344-1.6096-0.83344-2.7517 0-1.1465 0.27781-2.066 0.83344-2.7583 0.55562-0.69232 1.2876-1.0385 2.196-1.0385 0.54681 0.000008 1.0164 0.10805 1.4089 0.32412 0.39246 0.21608 0.71437 0.5424 0.96574 0.97896v-1.1245h1.2171v6.4889"/>
  <path id="path3303" style="" d="m223.27 52.489c-0.34397 0.88194-0.6791 1.4574-1.0054 1.7264-0.32632 0.26899-0.76289 0.40349-1.3097 0.40349h-0.97235v-1.0186h0.71438c0.33514-0.000001 0.59531-0.07938 0.78052-0.23812 0.18521-0.15875 0.39026-0.53358 0.61516-1.1245l0.21828-0.55563-2.9964-7.2893h1.2898l2.3151 5.7944 2.3151-5.7944h1.2898l-3.2544 8.0963"/>
  <path id="path3305" style="" d="m231.08 45.246c-0.65264 0.000007-1.1686 0.25577-1.5478 0.76729-0.37924 0.50712-0.56886 1.2039-0.56886 2.0902 0 0.88636 0.18741 1.5853 0.56224 2.0968 0.37924 0.50712 0.89738 0.76068 1.5544 0.76068 0.64823 0.000001 1.162-0.25576 1.5412-0.76729 0.37923-0.51153 0.56885-1.2083 0.56885-2.0902 0-0.87753-0.18962-1.5721-0.56885-2.0836-0.37925-0.51593-0.89298-0.7739-1.5412-0.77391m0-1.0319c1.0583 0.000008 1.8896 0.34397 2.4937 1.0319 0.60412 0.68792 0.90619 1.6404 0.9062 2.8575-0.00001 1.2127-0.30208 2.1652-0.9062 2.8575-0.60414 0.68792-1.4354 1.0319-2.4937 1.0319-1.0627 0-1.8962-0.34396-2.5003-1.0319-0.59973-0.69233-0.89959-1.6448-0.89959-2.8575 0-1.2171 0.29986-2.1696 0.89959-2.8575 0.60413-0.68791 1.4376-1.0319 2.5003-1.0319"/>
  <path id="path3307" style="" d="m236.44 41.509h1.2237v6.0788l3.6314-3.1949h1.5544l-3.9291 3.466 4.0944 3.9423h-1.5875l-3.7637-3.6182v3.6182h-1.2237v-10.292"/>
  <path id="path3309" style="" d="m250.2 47.793v0.59531h-5.596c0.0529 0.83785 0.30427 1.4773 0.75406 1.9182 0.4542 0.43656 1.0848 0.65485 1.8918 0.65484 0.46743 0.000001 0.91942-0.05733 1.356-0.17198 0.44097-0.11465 0.87753-0.28663 1.3097-0.51594v1.1509c-0.43657 0.18521-0.88416 0.32632-1.3428 0.42334-0.45862 0.09701-0.92385 0.14552-1.3957 0.14552-1.1818 0-2.1189-0.34396-2.8112-1.0319-0.68792-0.68792-1.0319-1.6184-1.0319-2.7914 0-1.2127 0.32632-2.174 0.97896-2.884 0.65704-0.71437 1.5412-1.0716 2.6524-1.0716 0.9966 0.000008 1.7837 0.32192 2.3614 0.96573 0.58208 0.63942 0.87312 1.5103 0.87313 2.6128m-1.2171-0.35719c-0.009-0.66586-0.19624-1.1972-0.56224-1.5941-0.3616-0.39687-0.84226-0.59531-1.442-0.59531-0.6791 0.000007-1.2237 0.19183-1.6338 0.57547-0.40569 0.38365-0.63941 0.92384-0.70114 1.6206l4.3392-0.0066"/>
  <path id="path3311" style="" d="m256.49 45.531c-0.13671-0.07937-0.28664-0.1367-0.4498-0.17198-0.15875-0.03968-0.33514-0.05952-0.52917-0.05953-0.68792 0.000007-1.2171 0.2249-1.5875 0.67469-0.36601 0.44539-0.54901 1.087-0.54901 1.9248v3.9026h-1.2237v-7.4084h1.2237v1.1509c0.25576-0.44979 0.5887-0.78272 0.9988-0.9988 0.4101-0.22048 0.9084-0.33072 1.4949-0.33073 0.0838 0.000008 0.17639 0.0066 0.27782 0.01984 0.10141 0.0088 0.21386 0.02426 0.33734 0.0463l0.007 1.2502"/>
  <path id="path3313" style="" d="m265.02 41.522c-0.59091 1.0142-1.0297 2.0175-1.3163 3.0096-0.28663 0.9922-0.42995 1.9976-0.42995 3.0163s0.14332 2.0285 0.42995 3.0295c0.29104 0.9966 0.72981 1.9998 1.3163 3.0096h-1.0583c-0.66146-1.0363-1.1576-2.0549-1.4883-3.0559-0.32633-1.001-0.48949-1.9954-0.48948-2.9832-0.00001-0.98336 0.16315-1.9733 0.48948-2.97 0.32631-0.99659 0.82241-2.0152 1.4883-3.0559h1.0583"/>
  <path id="path3315" style="" d="m268.78 47.085v3.6182h2.1431c0.71878 0.000001 1.2502-0.14772 1.5941-0.44318 0.34836-0.29986 0.52254-0.75627 0.52255-1.3692-0.00001-0.61736-0.17419-1.0716-0.52255-1.3626-0.34397-0.29545-0.87534-0.44317-1.5941-0.44318h-2.1431m0-4.0614v2.9766h1.9778c0.65264 0.000006 1.1377-0.12126 1.4552-0.3638 0.3219-0.24694 0.48285-0.62177 0.48286-1.1245-0.00001-0.49829-0.16096-0.87091-0.48286-1.1179-0.31751-0.24694-0.80258-0.37041-1.4552-0.37042h-1.9778m-1.3362-1.098h3.4131c1.0186 0.000009 1.8036 0.21168 2.3548 0.635 0.55121 0.42334 0.82682 1.0253 0.82683 1.8058-0.00001 0.60414-0.14112 1.0848-0.42334 1.442-0.28223 0.35719-0.69674 0.57989-1.2435 0.66808 0.65704 0.14112 1.1664 0.43657 1.528 0.88636 0.366 0.44539 0.549 1.0032 0.54901 1.6735-0.00001 0.88195-0.29987 1.5633-0.89959 2.0439-0.59973 0.48066-1.453 0.72099-2.5598 0.72099h-3.5454v-9.8756"/>
  <path id="path3317" style="" d="m276.67 44.393h1.2171v7.4084h-1.2171v-7.4084m0-2.884h1.2171v1.5412h-1.2171v-1.5412"/>
  <path id="path3319" style="" d="m286.59 47.33v4.4715h-1.2171v-4.4318c-0.00001-0.70114-0.13671-1.2259-0.41011-1.5743-0.27341-0.34836-0.68351-0.52255-1.2303-0.52255-0.65706 0.000006-1.1752 0.20947-1.5544 0.62839-0.37924 0.41893-0.56885 0.98999-0.56885 1.7132v4.187h-1.2237v-7.4084h1.2237v1.1509c0.29104-0.44538 0.63279-0.77831 1.0253-0.9988 0.39687-0.22048 0.85328-0.33072 1.3692-0.33073 0.85108 0.000008 1.4949 0.26459 1.9315 0.79375 0.43655 0.52476 0.65483 1.2987 0.65484 2.3217"/>
  <path id="path3321" style="" d="m289.08 41.926h5.6753v1.1245h-4.3392v2.9104h3.9158v1.1245h-3.9158v4.7162h-1.3362v-9.8756"/>
  <path id="path3323" style="" d="m298.96 48.078c-0.98337 0.000004-1.6647 0.11245-2.0439 0.33734-0.37924 0.2249-0.56886 0.60854-0.56886 1.1509 0 0.43216 0.14111 0.77611 0.42334 1.0319 0.28663 0.25136 0.67468 0.37703 1.1642 0.37703 0.67468 0 1.2149-0.23812 1.6206-0.71438 0.4101-0.48066 0.61516-1.1179 0.61516-1.9116v-0.2712h-1.2105m2.4276-0.50271v4.2267h-1.2171v-1.1245c-0.27782 0.44979-0.62398 0.78273-1.0385 0.9988-0.41452 0.21167-0.92164 0.3175-1.5214 0.3175-0.75847 0-1.3626-0.21167-1.8124-0.635-0.44538-0.42774-0.66807-0.9988-0.66807-1.7132 0-0.83344 0.27781-1.4618 0.83344-1.8852 0.56003-0.42333 1.3935-0.635 2.5003-0.635h1.7066v-0.11906c0-0.56003-0.18521-0.99218-0.55562-1.2965-0.36602-0.30867-0.88195-0.46302-1.5478-0.46302-0.42334 0.000007-0.83565 0.05072-1.2369 0.15214-0.40129 0.10143-0.78714 0.25357-1.1576 0.45641v-1.1245c0.44538-0.17197 0.87753-0.29986 1.2965-0.38365 0.41892-0.08819 0.82682-0.13228 1.2237-0.13229 1.0716 0.000008 1.8719 0.27782 2.4011 0.83344 0.52916 0.55563 0.79374 1.3979 0.79375 2.5268"/>
  <path id="path3325" style="" d="m313.3 43.553-2.3746 1.2832 2.3746 1.2898-0.38365 0.64823-2.2225-1.3428v2.4937h-0.75407v-2.4937l-2.2225 1.3428-0.38365-0.64823 2.3746-1.2898-2.3746-1.2832 0.38365-0.65484 2.2225 1.3428v-2.4937h0.75407v2.4937l2.2225-1.3428 0.38365 0.65484"/>
  <path id="path3327" style="" d="m314.79 41.522h1.0583c0.66146 1.0407 1.1554 2.0594 1.4817 3.0559 0.33072 0.99661 0.49609 1.9866 0.49609 2.97 0 0.98778-0.16537 1.9822-0.49609 2.9832-0.32633 1.001-0.82022 2.0197-1.4817 3.0559h-1.0583c0.58649-1.0098 1.023-2.013 1.3097-3.0096 0.29104-1.001 0.43656-2.0108 0.43656-3.0295 0-1.0186-0.14552-2.0241-0.43656-3.0163-0.28664-0.99218-0.7232-1.9954-1.3097-3.0096"/>
 </g>
 <g id="g302" transform="translate(-1 -2.8984)">
  <path id="rect304" fill="#fdfd04" d="m520 0h20v20h-20z"/>
  <path id="rect306" d="m520 0h20v20h-20z" stroke="#000" stroke-width="2" fill="none"/>
 </g>
 <g id="text308">
  <path id="path3332" style="" d="m388.1 10.69v3.9291h-1.2237v-10.226h1.2237v1.1245c0.25576-0.44097 0.57767-0.76729 0.96573-0.97896 0.39246-0.21607 0.85989-0.32411 1.4023-0.32412 0.89958 0.0000076 1.6294 0.3572 2.1894 1.0716 0.56443 0.71438 0.84666 1.6537 0.84666 2.8178 0 1.1642-0.28223 2.1034-0.84666 2.8178-0.56005 0.71438-1.2899 1.0716-2.1894 1.0716-0.5424 0-1.0098-0.10583-1.4023-0.3175-0.38806-0.21608-0.70997-0.5446-0.96573-0.98558m4.1407-2.5863c-0.00001-0.89517-0.18522-1.5963-0.55563-2.1034-0.36601-0.51152-0.87093-0.76729-1.5147-0.76729-0.64383 0.0000066-1.151 0.25577-1.5214 0.76729-0.36601 0.50712-0.54902 1.2083-0.54901 2.1034-0.00001 0.89518 0.183 1.5985 0.54901 2.1101 0.37041 0.50712 0.87753 0.76068 1.5214 0.76068 0.64381 0.000001 1.1487-0.25356 1.5147-0.76068 0.37041-0.51153 0.55562-1.2149 0.55563-2.1101"/>
  <path id="path3334" style="" d="m401.29 5.8153c0.30426-0.5468 0.66806-0.95029 1.0914-1.2105 0.42332-0.26017 0.92162-0.39025 1.4949-0.39026 0.77169 0.0000076 1.367 0.27121 1.7859 0.8136 0.41891 0.53799 0.62837 1.3053 0.62839 2.3019v4.4715h-1.2237v-4.4318c-0.00001-0.70996-0.12568-1.2369-0.37703-1.5809-0.25136-0.34395-0.63501-0.51593-1.1509-0.51594-0.6306 0.0000065-1.1289 0.20947-1.4949 0.62839-0.36601 0.41893-0.54902 0.98999-0.54901 1.7132v4.187h-1.2237v-4.4318c-0.00001-0.71437-0.12568-1.2413-0.37703-1.5809-0.25136-0.34395-0.63942-0.51593-1.1642-0.51594-0.62178 0.0000065-1.1157 0.21167-1.4817 0.635-0.36601 0.41893-0.54902 0.98778-0.54901 1.7066v4.187h-1.2237v-7.4084h1.2237v1.1509c0.27781-0.4542 0.61074-0.78934 0.9988-1.0054 0.38805-0.21607 0.84887-0.32411 1.3824-0.32412 0.53798 0.0000076 0.99439 0.13671 1.3692 0.41011 0.37923 0.27341 0.65925 0.67029 0.84006 1.1906"/>
  <path id="path3336" style="" d="m411.6 5.2465c-0.65264 0.0000066-1.1686 0.25577-1.5478 0.76729-0.37924 0.50712-0.56886 1.2039-0.56886 2.0902 0 0.88636 0.18741 1.5853 0.56224 2.0968 0.37924 0.50712 0.89738 0.76068 1.5544 0.76068 0.64823 0.000001 1.162-0.25576 1.5412-0.76729 0.37923-0.51153 0.56885-1.2083 0.56885-2.0902 0-0.87753-0.18962-1.5721-0.56885-2.0836-0.37925-0.51593-0.89298-0.7739-1.5412-0.77391m0-1.0319c1.0583 0.0000076 1.8896 0.34397 2.4937 1.0319 0.60412 0.68792 0.90619 1.6404 0.9062 2.8575-0.00001 1.2127-0.30208 2.1652-0.9062 2.8575-0.60414 0.68792-1.4354 1.0319-2.4937 1.0319-1.0627 0-1.8962-0.34396-2.5003-1.0319-0.59973-0.69233-0.89959-1.6448-0.89959-2.8575 0-1.2171 0.29986-2.1696 0.89959-2.8575 0.60413-0.68791 1.4376-1.0319 2.5003-1.0319"/>
  <path id="path3338" style="" d="m416.48 4.3932h5.7812v1.1113l-4.5773 5.3248h4.5773v0.97235h-5.9465v-1.1113l4.5773-5.3248h-4.4119v-0.97235"/>
  <path id="path3340" style="" d="m429 8.0114c-0.00001-0.88194-0.18301-1.5654-0.54902-2.0505-0.3616-0.48506-0.87092-0.7276-1.528-0.72761-0.65264 0.0000066-1.162 0.24254-1.528 0.72761-0.3616 0.48508-0.5424 1.1686-0.5424 2.0505 0 0.87754 0.1808 1.5588 0.5424 2.0439 0.366 0.48507 0.87533 0.72761 1.528 0.72761 0.65705 0.000001 1.1664-0.24253 1.528-0.72761 0.36601-0.48507 0.54901-1.1664 0.54902-2.0439m1.2171 2.8707c0 1.2612-0.28002 2.1983-0.84005 2.8112-0.56004 0.61736-1.4177 0.92604-2.5731 0.92604-0.42775-0.000003-0.83124-0.03308-1.2105-0.09922-0.37924-0.06174-0.74745-0.15875-1.1046-0.29104v-1.184c0.35719 0.19403 0.70996 0.33734 1.0583 0.42995 0.34836 0.0926 0.70334 0.1389 1.065 0.13891 0.79815-0.000002 1.3957-0.20946 1.7926-0.62839 0.39687-0.41452 0.59531-1.0429 0.59532-1.8852v-0.60193c-0.25136 0.43656-0.57327 0.76288-0.96574 0.97896s-0.8621 0.32412-1.4089 0.32412c-0.90841 0-1.6404-0.34616-2.196-1.0385-0.55563-0.69233-0.83344-1.6095-0.83344-2.7517 0-1.1465 0.27781-2.066 0.83344-2.7583 0.55562-0.69232 1.2876-1.0385 2.196-1.0385 0.5468 0.0000076 1.0164 0.10805 1.4089 0.32412 0.39247 0.21608 0.71438 0.5424 0.96574 0.97896v-1.1245h1.2171v6.4889"/>
  <path id="path3342" style="" d="m435.6 5.2465c-0.65264 0.0000066-1.1686 0.25577-1.5478 0.76729-0.37924 0.50712-0.56886 1.2039-0.56886 2.0902 0 0.88636 0.18741 1.5853 0.56224 2.0968 0.37924 0.50712 0.89738 0.76068 1.5544 0.76068 0.64823 0.000001 1.162-0.25576 1.5412-0.76729 0.37924-0.51153 0.56885-1.2083 0.56886-2.0902-0.00001-0.87753-0.18962-1.5721-0.56886-2.0836-0.37924-0.51593-0.89297-0.7739-1.5412-0.77391m0-1.0319c1.0583 0.0000076 1.8896 0.34397 2.4937 1.0319 0.60412 0.68792 0.90619 1.6404 0.9062 2.8575-0.00001 1.2127-0.30208 2.1652-0.9062 2.8575-0.60414 0.68792-1.4354 1.0319-2.4937 1.0319-1.0628 0-1.8962-0.34396-2.5003-1.0319-0.59972-0.69233-0.89958-1.6448-0.89958-2.8575 0-1.2171 0.29986-2.1696 0.89958-2.8575 0.60414-0.68791 1.4376-1.0319 2.5003-1.0319"/>
  <path id="path3344" style="" d="m448.24 1.5225c-0.59091 1.0142-1.0297 2.0175-1.3163 3.0096-0.28663 0.9922-0.42995 1.9976-0.42995 3.0163s0.14332 2.0285 0.42995 3.0295c0.29104 0.9966 0.72981 1.9998 1.3163 3.0096h-1.0583c-0.66146-1.0363-1.1576-2.0549-1.4883-3.0559-0.32633-1.001-0.48949-1.9954-0.48949-2.9832 0-0.98337 0.16316-1.9733 0.48949-2.97 0.32631-0.99659 0.82241-2.0152 1.4883-3.0559h1.0583"/>
  <path id="path3346" style="" d="m452 7.0854v3.6182h2.1431c0.71878 0.000001 1.2502-0.14772 1.5941-0.44318 0.34836-0.29986 0.52254-0.75627 0.52255-1.3692-0.00001-0.61736-0.17419-1.0716-0.52255-1.3626-0.34397-0.29545-0.87534-0.44317-1.5941-0.44318h-2.1431m0-4.0614v2.9766h1.9778c0.65264 0.0000058 1.1377-0.12126 1.4552-0.3638 0.3219-0.24694 0.48285-0.62177 0.48286-1.1245-0.00001-0.49829-0.16096-0.87091-0.48286-1.1179-0.31751-0.24694-0.80258-0.37041-1.4552-0.37042h-1.9778m-1.3362-1.098h3.4131c1.0186 0.0000099 1.8036 0.21168 2.3548 0.635 0.55121 0.42334 0.82682 1.0253 0.82682 1.8058 0 0.60414-0.14111 1.0848-0.42333 1.442-0.28223 0.35719-0.69674 0.57989-1.2435 0.66807 0.65704 0.14112 1.1664 0.43657 1.528 0.88636 0.366 0.44539 0.549 1.0032 0.54901 1.6735-0.00001 0.88195-0.29987 1.5633-0.89959 2.0439-0.59973 0.48066-1.453 0.72099-2.5598 0.72099h-3.5454v-9.8756"/>
  <path id="path3348" style="" d="m459.9 4.3932h1.2171v7.4084h-1.2171v-7.4084m0-2.884h1.2171v1.5412h-1.2171v-1.5412"/>
  <path id="path3350" style="" d="m469.82 7.3301v4.4715h-1.2171v-4.4318c-0.00001-0.70114-0.13671-1.2259-0.41011-1.5743-0.27341-0.34836-0.68351-0.52255-1.2303-0.52255-0.65706 0.0000065-1.1752 0.20947-1.5544 0.62839-0.37924 0.41893-0.56886 0.98999-0.56886 1.7132v4.187h-1.2237v-7.4084h1.2237v1.1509c0.29104-0.44538 0.6328-0.77831 1.0253-0.9988 0.39688-0.22048 0.85328-0.33072 1.3692-0.33073 0.85107 0.0000076 1.4949 0.26459 1.9315 0.79375 0.43656 0.52476 0.65484 1.2987 0.65485 2.3217"/>
  <path id="path3352" style="" d="m472.31 1.926h5.6753v1.1245h-4.3392v2.9104h3.9158v1.1245h-3.9158v4.7162h-1.3362v-9.8756"/>
  <path id="path3354" style="" d="m482.18 8.0775c-0.98337 0.0000037-1.6647 0.11245-2.0439 0.33734-0.37924 0.2249-0.56885 0.60855-0.56885 1.1509 0 0.43216 0.14111 0.77611 0.42333 1.0319 0.28663 0.25136 0.67469 0.37703 1.1642 0.37703 0.67469 0.000001 1.2149-0.23812 1.6206-0.71438 0.4101-0.48066 0.61515-1.1179 0.61516-1.9116v-0.2712h-1.2105m2.4276-0.50271v4.2267h-1.2171v-1.1245c-0.27782 0.44979-0.62399 0.78273-1.0385 0.9988-0.41452 0.21167-0.92163 0.3175-1.5214 0.3175-0.75848 0-1.3626-0.21167-1.8124-0.635-0.44539-0.42774-0.66808-0.9988-0.66808-1.7132 0-0.83344 0.27781-1.4618 0.83344-1.8852 0.56003-0.42333 1.3935-0.635 2.5003-0.635h1.7066v-0.11906c-0.00001-0.56003-0.18522-0.99218-0.55563-1.2965-0.36601-0.30867-0.88195-0.46302-1.5478-0.46302-0.42333 0.0000066-0.83564 0.050718-1.2369 0.15214-0.40128 0.10143-0.78714 0.25357-1.1576 0.45641v-1.1245c0.44538-0.17197 0.87753-0.29985 1.2965-0.38365 0.41892-0.088187 0.82682-0.13228 1.2237-0.13229 1.0716 0.0000076 1.8719 0.27782 2.4011 0.83344 0.52916 0.55563 0.79375 1.3979 0.79375 2.5268"/>
  <path id="path3356" style="" d="m496.53 3.5532-2.3746 1.2832 2.3746 1.2898-0.38364 0.64823-2.2225-1.3428v2.4937h-0.75406v-2.4937l-2.2225 1.3428-0.38365-0.64823 2.3746-1.2898-2.3746-1.2832 0.38365-0.65485 2.2225 1.3428v-2.4937h0.75406v2.4937l2.2225-1.3428 0.38364 0.65485"/>
  <path id="path3358" style="" d="m503.3 3.5532-2.3746 1.2832 2.3746 1.2898-0.38365 0.64823-2.2225-1.3428v2.4937h-0.75407v-2.4937l-2.2225 1.3428-0.38365-0.64823 2.3746-1.2898-2.3746-1.2832 0.38365-0.65485 2.2225 1.3428v-2.4937h0.75407v2.4937l2.2225-1.3428 0.38365 0.65485"/>
  <path id="path3360" style="" d="m504.79 1.5225h1.0583c0.66146 1.0407 1.1554 2.0594 1.4817 3.0559 0.33073 0.99661 0.4961 1.9866 0.4961 2.97 0 0.98778-0.16537 1.9822-0.4961 2.9832-0.32632 1.001-0.82021 2.0197-1.4817 3.0559h-1.0583c0.58649-1.0098 1.023-2.013 1.3097-3.0096 0.29104-1.001 0.43656-2.0108 0.43656-3.0295 0-1.0186-0.14552-2.0241-0.43656-3.0163-0.28664-0.99218-0.7232-1.9954-1.3097-3.0096"/>
 </g>
 <g id="g312" transform="translate(-1 -2.8984)">
  <path id="path314" d="m519 21.002c-30 30-129 48.998-160.29 33.352" stroke="#f62e2e" stroke-width="2" fill="none"/>
  <path id="polygon316" fill="#f62e2e" d="m358.71 54.354v5.5902l-6.71-8.944h11.18z"/>
  <path id="polygon318" d="m358.71 54.354v5.5902l-6.71-8.944h11.18z" stroke="#f62e2e" stroke-width="2" fill="none"/>
 </g>
 <g id="g320" transform="translate(-1 -2.8984)">
  <path id="path322" d="m519 20.999c-40 40-108 87.461-148.36 93.111" stroke="#f62e2e" stroke-width="2" fill="none"/>
  <path id="polygon324" fill="#f62e2e" d="m370.64 114.11 3.169 4.605-10.596-3.565 9.21-6.338z"/>
  <path id="polygon326" d="m370.64 114.11 3.169 4.605-10.596-3.565 9.21-6.338z" stroke="#f62e2e" stroke-width="2" fill="none"/>
 </g>
 <g id="g328" transform="translate(-1 -2.8984)">
  <path id="path330" d="m519.01 20.99c-60 60 61.983 135.89 11.35 150.24" stroke="#f62e2e" stroke-width="2" fill="none"/>
  <path id="polygon332" fill="#f62e2e" d="m530.36 171.23 3.769 4.129-10.985-2.084 8.259-7.537z"/>
  <path id="polygon334" d="m530.36 171.23 3.769 4.129-10.985-2.084 8.259-7.537z" stroke="#f62e2e" stroke-width="2" fill="none"/>
 </g>
 <g id="g336" transform="translate(-1 -2.8984)">
  <path id="path338" d="m522.2 20.915c-50 70 148.8 173.27 87.408 205.72" stroke="#f62e2e" stroke-width="2" fill="none"/>
  <path id="polygon340" fill="#f62e2e" d="m609.61 226.63 4.547 3.252-11.177 0.253 6.504-9.094z"/>
  <path id="polygon342" d="m609.61 226.63 4.547 3.252-11.177 0.253 6.504-9.094z" stroke="#f62e2e" stroke-width="2" fill="none"/>
 </g>
</svg>
