<?xml version="1.0" encoding="UTF-8" standalone="no"?>
<!-- Created with Inkscape (http://www.inkscape.org/) -->
<svg id="svg2" xmlns:rdf="http://www.w3.org/1999/02/22-rdf-syntax-ns#" xmlns="http://www.w3.org/2000/svg" height="539.3" width="667.76" version="1.1" xmlns:cc="http://creativecommons.org/ns#" xmlns:dc="http://purl.org/dc/elements/1.1/" viewBox="79 78 373.93934 288.23177">
 <metadata id="metadata192">
  <rdf:RDF>
   <cc:Work rdf:about="">
    <dc:format>image/svg+xml</dc:format>
    <dc:type rdf:resource="http://purl.org/dc/dcmitype/StillImage"/>
   </cc:Work>
  </rdf:RDF>
 </metadata>
 <path id="line4" d="m80 92.116h340" stroke="#bfbfbf" stroke-width="2" fill="none"/>
 <path id="line6" d="m80 172.12h340" stroke="#bfbfbf" stroke-width="2" fill="none"/>
 <path id="line8" d="m80 232.12h340" stroke="#bfbfbf" stroke-width="2" fill="none"/>
 <path id="line10" d="m80 292.12h340" stroke="#bfbfbf" stroke-width="2" fill="none"/>
 <path id="line12" d="m80 352.12h340" stroke="#bfbfbf" stroke-width="2" fill="none"/>
 <g id="g14" transform="translate(0 -7.8841)">
  <path id="rect16" fill="#7babe3" d="m260 80h40v40h-40z"/>
  <path id="rect18" d="m260 80h40v40h-40z" stroke="#000" stroke-width="2" fill="none"/>
 </g>
 <g id="g20" transform="translate(0 -7.8841)">
  <path id="rect22" fill="#7babe3" d="m160 160h40v40h-40z"/>
  <path id="rect24" d="m160 160h40v40h-40z" stroke="#000" stroke-width="2" fill="none"/>
 </g>
 <g id="g26" stroke="#000" stroke-width="2" fill="none" transform="translate(0 -7.8841)">
  <path id="line28" d="m259 116.8-54.51 43.6"/>
  <path id="polyline30" d="m207.43 151.65-4.685 10.151 10.932-2.342"/>
 </g>
 <g id="g32" stroke="#000" stroke-width="2" fill="none" transform="translate(0 -7.8841)">
  <path id="line34" d="m159.01 200.99-14.856 14.856"/>
  <path id="polyline36" d="m146.11 206.82-3.536 10.607 10.607-3.536"/>
 </g>
 <g id="g38" stroke="#000" stroke-width="2" fill="none" transform="translate(0 -7.8841)">
  <path id="line40" d="m200.99 200.99 14.856 14.856"/>
  <path id="polyline42" d="m206.82 213.89 10.607 3.536-3.536-10.607"/>
 </g>
 <g id="g44" stroke="#000" stroke-width="2" fill="none" transform="translate(0 -7.8841)">
  <path id="line46" d="m301 116.8 54.504 43.603"/>
  <path id="polyline48" d="m346.32 159.46 10.932 2.342-4.685-10.151"/>
 </g>
 <g id="text50">
  <path id="path3092" style="" d="m265.67 81.74h10.491v2.249h-8.0433v4.8419c0.38805-0.13228 0.77611-0.22929 1.1642-0.29104 0.38805-0.07054 0.7761-0.10582 1.1642-0.10583 2.2048 0.000013 3.9511 0.60414 5.2388 1.8124 1.2876 1.2083 1.9314 2.8443 1.9314 4.908-0.00001 2.1255-0.66147 3.7791-1.9844 4.9609-1.3229 1.173-3.1882 1.7595-5.5959 1.7595-0.82903 0-1.6757-0.0706-2.54-0.21167-0.85549-0.14111-1.7418-0.35278-2.6591-0.635v-2.6855c0.79375 0.43216 1.614 0.75406 2.4606 0.96573 0.84666 0.21167 1.7418 0.3175 2.6855 0.3175 1.5258 0.000002 2.734-0.40128 3.6248-1.2039 0.89075-0.80256 1.3361-1.8918 1.3361-3.2676-0.00001-1.3758-0.44539-2.465-1.3361-3.2676-0.89077-0.80256-2.099-1.2038-3.6248-1.2039-0.71438 0.000011-1.4288 0.07939-2.1431 0.23812-0.70556 0.15876-1.4288 0.4057-2.1696 0.74083v-9.9219"/>
  <path id="path3094" style="" d="m288.61 83.499c-1.3758 0.000018-2.4121 0.67911-3.1088 2.0373-0.68792 1.3494-1.0319 3.3823-1.0319 6.0986 0 2.7076 0.34396 4.7405 1.0319 6.0986 0.69673 1.3494 1.733 2.0241 3.1088 2.0241 1.3846 0.000002 2.4209-0.67468 3.1088-2.0241 0.69672-1.3582 1.0451-3.3911 1.0451-6.0986-0.00001-2.7164-0.34838-4.7492-1.0451-6.0986-0.68793-1.3582-1.7242-2.0373-3.1088-2.0373m0-2.1167c2.2137 0.00002 3.9026 0.87755 5.0668 2.6326 1.173 1.7463 1.7595 4.2863 1.7595 7.62-0.00002 3.3249-0.58651 5.8649-1.7595 7.62-1.1642 1.7462-2.8531 2.6194-5.0668 2.6194s-3.907-0.87313-5.08-2.6194c-1.1642-1.7551-1.7462-4.2951-1.7462-7.62-0.00001-3.3337 0.58208-5.8737 1.7462-7.62 1.173-1.755 2.8663-2.6326 5.08-2.6326"/>
 </g>
 <g id="text54">
  <path id="path3097" style="" d="m166.11 179.24h4.3656v-15.068l-4.7493 0.9525v-2.4342l4.7228-0.9525h2.6723v17.502h4.3656v2.249h-11.377v-2.249"/>
  <path id="path3099" style="" d="m182.22 161.74h12.7v1.1377l-7.1702 18.613h-2.7914l6.7469-17.502h-9.4853v-2.249"/>
 </g>
 <g id="g58" transform="translate(0 -7.8841)">
  <path id="rect60" fill="#7babe3" d="m360 160h40v40h-40z"/>
  <path id="rect62" d="m360 160h40v40h-40z" stroke="#000" stroke-width="2" fill="none"/>
 </g>
 <g id="text64">
  <path id="path3104" style="" d="m364.97 161.74h12.7v1.1377l-7.1702 18.613h-2.7914l6.7469-17.502h-9.4853v-2.249"/>
  <path id="path3106" style="" d="m388.94 170.55c-1.1994 0.00001-2.152 0.41011-2.8575 1.2303-0.69674 0.82022-1.0451 1.9447-1.0451 3.3734-0.00001 1.4199 0.34836 2.5444 1.0451 3.3734 0.70555 0.82021 1.658 1.2303 2.8575 1.2303 1.1994 0 2.1475-0.4101 2.8443-1.2303 0.70555-0.82903 1.0583-1.9535 1.0583-3.3734-0.00002-1.4287-0.35279-2.5532-1.0583-3.3734-0.69674-0.8202-1.6448-1.2303-2.8443-1.2303m5.3049-8.374v2.4342c-0.6703-0.31748-1.3494-0.56002-2.0373-0.7276-0.67911-0.16756-1.3538-0.25134-2.0241-0.25136-1.7639 0.00002-3.1133 0.59533-4.0481 1.7859-0.92605 1.1906-1.4552 2.9898-1.5875 5.3975 0.52034-0.76728 1.173-1.3538 1.9579-1.7595 0.78492-0.4145 1.6492-0.62175 2.5929-0.62177 1.9844 0.00002 3.5498 0.60415 4.6963 1.8124 1.1553 1.1994 1.733 2.8354 1.733 4.908-0.00001 2.0285-0.59973 3.6557-1.7992 4.8816s-2.7958 1.8388-4.789 1.8388c-2.2842 0-4.0305-0.87312-5.2388-2.6194-1.2083-1.7551-1.8124-4.2951-1.8124-7.62 0-3.1221 0.74083-5.6092 2.2225-7.4612 1.4817-1.8609 3.4704-2.7913 5.9663-2.7914 0.67027 0.00002 1.345 0.0662 2.0241 0.19843 0.68791 0.13232 1.4023 0.33075 2.1431 0.59532"/>
 </g>
 <g id="g68" transform="translate(0 -7.8841)">
  <path id="rect70" fill="#7babe3" d="m320 220h40v40h-40z"/>
  <path id="rect72" d="m320 220h40v40h-40z" stroke="#000" stroke-width="2" fill="none"/>
 </g>
 <g id="text74">
  <path id="path3111" style="" d="m325.67 221.74h10.491v2.249h-8.0433v4.8419c0.38805-0.13228 0.77611-0.22929 1.1642-0.29104 0.38805-0.0705 0.7761-0.10582 1.1642-0.10584 2.2048 0.00002 3.9511 0.60415 5.2388 1.8124 1.2876 1.2083 1.9314 2.8443 1.9314 4.908-0.00001 2.1255-0.66147 3.7791-1.9844 4.9609-1.3229 1.173-3.1882 1.7595-5.5959 1.7595-0.82903 0-1.6757-0.0706-2.54-0.21167-0.85549-0.14111-1.7418-0.35277-2.6591-0.635v-2.6855c0.79375 0.43215 1.614 0.75406 2.4606 0.96573 0.84666 0.21166 1.7418 0.3175 2.6855 0.3175 1.5258 0 2.734-0.40129 3.6248-1.2039 0.89075-0.80256 1.3361-1.8918 1.3361-3.2676-0.00001-1.3758-0.44539-2.465-1.3361-3.2676-0.89077-0.80256-2.099-1.2038-3.6248-1.2038-0.71438 0.00001-1.4288 0.0794-2.1431 0.23812-0.70556 0.15876-1.4288 0.40571-2.1696 0.74084v-9.9219"/>
  <path id="path3113" style="" d="m350.24 224.07-6.7469 10.544h6.7469v-10.544m-0.70114-2.3283h3.3602v12.872h2.8178v2.2225h-2.8178v4.6567h-2.6591v-4.6567h-8.9164v-2.5797l8.2153-12.515"/>
 </g>
 <g id="g78" transform="translate(0 -7.8841)">
  <path id="rect80" fill="#fdfd04" d="m360 280h40v40h-40z"/>
  <path id="rect82" d="m360 280h40v40h-40z" stroke="#000" stroke-width="2" fill="none"/>
 </g>
 <g id="text84">
  <path id="path3118" style="" d="m364.97 281.74h12.7v1.1377l-7.1702 18.613h-2.7914l6.7469-17.502h-9.4853v-2.249"/>
  <path id="path3120" style="" d="m385.2 299.24h9.3266v2.249h-12.541v-2.249c1.0142-1.0495 2.3945-2.4562 4.1407-4.2201 1.7551-1.7727 2.8575-2.9148 3.3073-3.4264 0.85548-0.96131 1.4508-1.7727 1.7859-2.4342 0.34395-0.67027 0.51593-1.3273 0.51594-1.9712-0.00001-1.0495-0.37043-1.905-1.1112-2.5664-0.73202-0.66144-1.6889-0.99217-2.8707-0.99219-0.83785 0.00002-1.7242 0.14554-2.6591 0.43656-0.92604 0.29106-1.9182 0.73203-2.9766 1.3229v-2.6988c1.076-0.43213 2.0814-0.75845 3.0162-0.97895 0.93485-0.22047 1.7903-0.33071 2.5665-0.33073 2.0461 0.00002 3.6777 0.51154 4.8948 1.5346s1.8256 2.3901 1.8256 4.101c-0.00001 0.81141-0.15435 1.5831-0.46302 2.3151-0.29987 0.7232-0.85108 1.5787-1.6536 2.5664-0.2205 0.25577-0.92164 0.99661-2.1034 2.2225-1.1818 1.2171-2.8487 2.9236-5.0006 5.1197"/>
 </g>
 <g id="g88" transform="translate(0 -7.8841)">
  <path id="rect90" fill="#7babe3" d="m100 220h40v40h-40z"/>
  <path id="rect92" d="m100 220h40v40h-40z" stroke="#000" stroke-width="2" fill="none"/>
 </g>
 <g id="text94">
  <path id="path3125" style="" d="m114.35 241.08v-2.4342c0.67028 0.3175 1.3494 0.56003 2.0373 0.7276 0.68791 0.16757 1.3626 0.25136 2.0241 0.25136 1.7639 0 3.1088-0.5909 4.0349-1.7727 0.93485-1.1906 1.4684-2.9942 1.6007-5.4107-0.51154 0.75848-1.1598 1.3406-1.9447 1.7462-0.78493 0.40571-1.6536 0.60855-2.6061 0.60855-1.9756 0-3.541-0.59531-4.6964-1.7859-1.1465-1.1994-1.7198-2.8354-1.7198-4.908 0-2.0285 0.59972-3.6556 1.7992-4.8816 1.1994-1.2259 2.7958-1.8388 4.789-1.8388 2.2842 0.00002 4.0261 0.87755 5.2255 2.6326 1.2082 1.7463 1.8124 4.2863 1.8124 7.62-0.00002 3.1133-0.74085 5.6003-2.2225 7.4612-1.4729 1.8521-3.4572 2.7781-5.9531 2.7781-0.67028 0-1.3494-0.0661-2.0373-0.19844-0.68793-0.13229-1.4023-0.33073-2.1431-0.59531m5.3181-8.374c1.1994 0.00001 2.1475-0.4101 2.8443-1.2303 0.70554-0.8202 1.0583-1.9447 1.0583-3.3734-0.00001-1.4199-0.35279-2.54-1.0583-3.3602-0.69675-0.82901-1.6448-1.2435-2.8443-1.2435-1.1994 0.00002-2.152 0.41453-2.8575 1.2435-0.69674 0.82022-1.0451 1.9403-1.0451 3.3602 0 1.4288 0.34836 2.5532 1.0451 3.3734 0.70555 0.82021 1.658 1.2303 2.8575 1.2303"/>
 </g>
 <g id="g98" transform="translate(0 -7.8841)">
  <path id="rect100" fill="#7babe3" d="m220 220h40v40h-40z"/>
  <path id="rect102" d="m220 220h40v40h-40z" stroke="#000" stroke-width="2" fill="none"/>
 </g>
 <g id="text104">
  <path id="path3130" style="" d="m227.95 239.24h9.3266v2.249h-12.541v-2.249c1.0142-1.0495 2.3945-2.4562 4.1407-4.2201 1.7551-1.7727 2.8575-2.9148 3.3073-3.4264 0.85548-0.96131 1.4508-1.7727 1.7859-2.4342 0.34394-0.67027 0.51592-1.3273 0.51593-1.9712-0.00001-1.0495-0.37042-1.905-1.1112-2.5664-0.73203-0.66144-1.6889-0.99217-2.8707-0.99219-0.83785 0.00002-1.7242 0.14554-2.6591 0.43656-0.92604 0.29106-1.9182 0.73203-2.9766 1.3229v-2.6988c1.076-0.43213 2.0814-0.75845 3.0162-0.97895 0.93485-0.22047 1.7903-0.33071 2.5664-0.33073 2.0461 0.00002 3.6777 0.51154 4.8948 1.5346s1.8256 2.3901 1.8256 4.101c-0.00001 0.81141-0.15435 1.5831-0.46302 2.3151-0.29987 0.7232-0.85109 1.5787-1.6536 2.5664-0.2205 0.25577-0.92164 0.99661-2.1034 2.2225-1.1818 1.2171-2.8487 2.9236-5.0006 5.1197"/>
  <path id="path3132" style="" d="m250.99 230.84c1.2788 0.27341 2.2754 0.84226 2.9898 1.7066 0.72318 0.86431 1.0848 1.9315 1.0848 3.2014-0.00001 1.9491-0.67029 3.4572-2.0108 4.5244-1.3406 1.0672-3.2456 1.6007-5.715 1.6007-0.82903 0-1.6845-0.0838-2.5665-0.25135-0.87312-0.15875-1.7771-0.40129-2.712-0.72761v-2.5797c0.74083 0.43215 1.5522 0.75847 2.4342 0.97896 0.88194 0.22048 1.8036 0.33073 2.7649 0.33073 1.6757 0 2.9501-0.33073 3.8232-0.99219 0.88193-0.66146 1.3229-1.6228 1.3229-2.884-0.00001-1.1642-0.41011-2.0726-1.2303-2.7252-0.8114-0.66145-1.9447-0.99218-3.3999-0.99219h-2.3019v-2.196h2.4077c1.3141 0.00002 2.3195-0.26016 3.0162-0.78052 0.69672-0.52915 1.0451-1.2876 1.0451-2.2754-0.00001-1.0142-0.36161-1.7903-1.0848-2.3283-0.71438-0.54679-1.7418-0.82019-3.0824-0.82021-0.73202 0.00002-1.517 0.0794-2.3548 0.23813-0.83785 0.15876-1.7595 0.40571-2.7649 0.74083v-2.3812c1.0142-0.2822 1.9623-0.49387 2.8443-0.635 0.89075-0.14109 1.7286-0.21164 2.5135-0.21166 2.0285 0.00002 3.6336 0.46304 4.8154 1.3891 1.1818 0.91724 1.7727 2.1608 1.7727 3.7306-0.00001 1.0936-0.3131 2.0197-0.93927 2.7781-0.62619 0.74966-1.517 1.27-2.6723 1.561"/>
 </g>
 <g id="g108" transform="translate(0 -7.8841)">
  <path id="rect110" fill="#fdfd04" d="m200 280h40v40h-40z"/>
  <path id="rect112" d="m200 280h40v40h-40z" stroke="#000" stroke-width="2" fill="none"/>
 </g>
 <g id="text114">
  <path id="path3137" style="" d="m206.11 299.24h4.3656v-15.068l-4.7493 0.9525v-2.4342l4.7228-0.9525h2.6723v17.502h4.3656v2.249h-11.377v-2.249"/>
  <path id="path3139" style="" d="m222.98 301.08v-2.4342c0.67027 0.3175 1.3494 0.56003 2.0373 0.7276 0.68791 0.16757 1.3626 0.25136 2.0241 0.25136 1.7639 0 3.1088-0.5909 4.0349-1.7727 0.93485-1.1906 1.4684-2.9942 1.6007-5.4107-0.51154 0.75848-1.1598 1.3406-1.9447 1.7462-0.78494 0.40571-1.6536 0.60855-2.6061 0.60855-1.9756 0-3.541-0.59531-4.6964-1.7859-1.1465-1.1994-1.7198-2.8354-1.7198-4.908 0-2.0285 0.59972-3.6556 1.7992-4.8816 1.1994-1.2259 2.7958-1.8388 4.789-1.8388 2.2842 0.00002 4.0261 0.87755 5.2255 2.6326 1.2082 1.7463 1.8124 4.2863 1.8124 7.62-0.00002 3.1133-0.74085 5.6003-2.2225 7.4612-1.4729 1.8521-3.4572 2.7781-5.9531 2.7781-0.67028 0-1.3494-0.0661-2.0373-0.19844-0.68792-0.13229-1.4023-0.33073-2.1431-0.59531m5.3181-8.374c1.1994 0.00001 2.1475-0.4101 2.8443-1.2303 0.70554-0.8202 1.0583-1.9447 1.0583-3.3734-0.00002-1.4199-0.35279-2.54-1.0583-3.3602-0.69675-0.82901-1.6448-1.2435-2.8443-1.2435-1.1994 0.00002-2.152 0.41453-2.8575 1.2435-0.69674 0.82022-1.0451 1.9403-1.0451 3.3602-0.00001 1.4288 0.34836 2.5532 1.0451 3.3734 0.70555 0.82021 1.658 1.2303 2.8575 1.2303"/>
 </g>
 <g id="g118" transform="translate(0 -7.8841)">
  <path id="rect120" fill="#fdfd04" d="m140 280h40v40h-40z"/>
  <path id="rect122" d="m140 280h40v40h-40z" stroke="#000" stroke-width="2" fill="none"/>
 </g>
 <g id="text124">
  <path id="path3144" style="" d="m146.11 299.24h4.3656v-15.068l-4.7493 0.9525v-2.4342l4.7228-0.9525h2.6723v17.502h4.3656v2.249h-11.377v-2.249"/>
  <path id="path3146" style="" d="m170.24 284.07-6.7469 10.544h6.7469v-10.544m-0.70114-2.3283h3.3602v12.872h2.8178v2.2225h-2.8178v4.6567h-2.6591v-4.6567h-8.9164v-2.5797l8.2153-12.515"/>
 </g>
 <g id="g128" stroke="#000" stroke-width="2" fill="none" transform="translate(0 -7.8841)">
  <path id="line130" d="m133.99 260.99 9.531 14.297"/>
  <path id="polyline132" d="m135.06 271.6 9.708 5.547-1.387-11.094"/>
 </g>
 <g id="g134" stroke="#000" stroke-width="2" fill="none" transform="translate(0 -7.8841)">
  <path id="line136" d="m233 260.99-4.59 13.78"/>
  <path id="polyline138" d="m226.12 265.82 1.581 11.068 7.906-7.905"/>
 </g>
 <g id="g140" stroke="#000" stroke-width="2" fill="none" transform="translate(0 -7.8841)">
  <path id="line142" d="m366.01 200.99-9.531 14.297"/>
  <path id="polyline144" d="m356.62 206.05-1.387 11.094 9.708-5.547"/>
 </g>
 <g id="g146" stroke="#000" stroke-width="2" fill="none" transform="translate(0 -7.8841)">
  <path id="line148" d="m353.99 260.99 9.531 14.297"/>
  <path id="polyline150" d="m355.06 271.6 9.708 5.547-1.387-11.094"/>
 </g>
 <g id="g152" transform="translate(0 -7.8841)">
  <path id="rect154" fill="#7babe3" d="m120 340h40v40h-40z"/>
  <path id="rect156" d="m120 340h40v40h-40z" stroke="#000" stroke-width="2" fill="none"/>
 </g>
 <g id="text158">
  <path id="path3159" style="" d="m126.11 359.24h4.3656v-15.068l-4.7493 0.9525v-2.4342l4.7228-0.9525h2.6723v17.502h4.3656v2.249h-11.377v-2.249"/>
  <path id="path3161" style="" d="m145.2 359.24h9.3266v2.249h-12.541v-2.249c1.0142-1.0495 2.3945-2.4562 4.1407-4.2201 1.7551-1.7727 2.8575-2.9148 3.3073-3.4264 0.85548-0.96131 1.4508-1.7727 1.7859-2.4342 0.34395-0.67027 0.51593-1.3273 0.51594-1.9712-0.00001-1.0495-0.37043-1.905-1.1112-2.5664-0.73202-0.66144-1.6889-0.99217-2.8707-0.99219-0.83785 0.00002-1.7242 0.14554-2.6591 0.43656-0.92604 0.29106-1.9182 0.73203-2.9766 1.3229v-2.6988c1.076-0.43213 2.0814-0.75845 3.0162-0.97895 0.93485-0.22047 1.7903-0.33071 2.5665-0.33073 2.0461 0.00002 3.6777 0.51154 4.8948 1.5346s1.8256 2.3901 1.8256 4.101c-0.00001 0.81141-0.15435 1.5831-0.46302 2.3151-0.29987 0.7232-0.85108 1.5787-1.6536 2.5664-0.2205 0.25577-0.92164 0.99661-2.1034 2.2225-1.1818 1.2171-2.8487 2.9236-5.0006 5.1197"/>
 </g>
 <g id="g162" stroke="#000" stroke-width="2" fill="none" transform="translate(0 -7.8841)">
  <path id="line164" d="m153 320.99-4.59 13.78"/>
  <path id="polyline166" d="m146.12 325.82 1.581 11.068 7.906-7.905"/>
 </g>
 <g id="text168">
  <path id="path3166" style="" d="m438.61 83.499c-1.3758 0.000018-2.4121 0.67911-3.1088 2.0373-0.68792 1.3494-1.0319 3.3823-1.0319 6.0986 0 2.7076 0.34396 4.7405 1.0319 6.0986 0.69673 1.3494 1.733 2.0241 3.1088 2.0241 1.3846 0.000002 2.4209-0.67468 3.1088-2.0241 0.69672-1.3582 1.0451-3.3911 1.0451-6.0986-0.00001-2.7164-0.34838-4.7492-1.0451-6.0986-0.68793-1.3582-1.7242-2.0373-3.1088-2.0373m0-2.1167c2.2137 0.00002 3.9026 0.87755 5.0668 2.6326 1.173 1.7463 1.7595 4.2863 1.7595 7.62-0.00002 3.3249-0.58651 5.8649-1.7595 7.62-1.1642 1.7462-2.8531 2.6194-5.0668 2.6194s-3.907-0.87313-5.08-2.6194c-1.1642-1.7551-1.7462-4.2951-1.7462-7.62-0.00001-3.3337 0.58208-5.8737 1.7462-7.62 1.173-1.755 2.8663-2.6326 5.08-2.6326"/>
  <path id="path3168" style="" d="m450.15 98.131h2.7914v3.3602h-2.7914v-3.3602"/>
 </g>
 <g id="text172">
  <path id="path3171" style="" d="m433.36 179.24h4.3656v-15.068l-4.7493 0.9525v-2.4342l4.7228-0.9525h2.6723v17.502h4.3656v2.249h-11.377v-2.249"/>
  <path id="path3173" style="" d="m450.15 178.13h2.7914v3.3602h-2.7914v-3.3602"/>
 </g>
 <g id="text176">
  <path id="path3176" style="" d="m435.2 239.24h9.3266v2.249h-12.541v-2.249c1.0142-1.0495 2.3945-2.4562 4.1407-4.2201 1.7551-1.7727 2.8575-2.9148 3.3073-3.4264 0.85548-0.96131 1.4508-1.7727 1.7859-2.4342 0.34395-0.67027 0.51592-1.3273 0.51594-1.9712-0.00002-1.0495-0.37043-1.905-1.1112-2.5664-0.73203-0.66144-1.6889-0.99217-2.8707-0.99219-0.83785 0.00002-1.7242 0.14554-2.6591 0.43656-0.92604 0.29106-1.9182 0.73203-2.9766 1.3229v-2.6988c1.076-0.43213 2.0814-0.75845 3.0162-0.97895 0.93485-0.22047 1.7903-0.33071 2.5665-0.33073 2.0461 0.00002 3.6777 0.51154 4.8948 1.5346s1.8256 2.3901 1.8256 4.101c-0.00001 0.81141-0.15435 1.5831-0.46302 2.3151-0.29987 0.7232-0.85108 1.5787-1.6536 2.5664-0.2205 0.25577-0.92164 0.99661-2.1034 2.2225-1.1818 1.2171-2.8487 2.9236-5.0006 5.1197"/>
  <path id="path3178" style="" d="m450.15 238.13h2.7914v3.3602h-2.7914v-3.3602"/>
 </g>
 <g id="text180">
  <path id="path3181" style="" d="m440.99 290.84c1.2788 0.27341 2.2754 0.84226 2.9898 1.7066 0.72318 0.86431 1.0848 1.9315 1.0848 3.2014-0.00001 1.9491-0.67029 3.4572-2.0108 4.5244-1.3406 1.0672-3.2456 1.6007-5.715 1.6007-0.82903 0-1.6845-0.0838-2.5665-0.25135-0.87312-0.15875-1.7771-0.40129-2.712-0.72761v-2.5797c0.74083 0.43215 1.5522 0.75847 2.4342 0.97896 0.88194 0.22048 1.8036 0.33073 2.7649 0.33073 1.6757 0 2.9501-0.33073 3.8232-0.99219 0.88193-0.66146 1.3229-1.6228 1.3229-2.884-0.00001-1.1642-0.41011-2.0726-1.2303-2.7252-0.8114-0.66145-1.9447-0.99218-3.3999-0.99219h-2.3019v-2.196h2.4077c1.3141 0.00002 2.3195-0.26016 3.0162-0.78052 0.69672-0.52915 1.0451-1.2876 1.0451-2.2754-0.00001-1.0142-0.36161-1.7903-1.0848-2.3283-0.71438-0.54679-1.7418-0.82019-3.0824-0.82021-0.73202 0.00002-1.517 0.0794-2.3548 0.23813-0.83785 0.15876-1.7595 0.40571-2.7649 0.74083v-2.3812c1.0142-0.2822 1.9623-0.49387 2.8443-0.635 0.89075-0.14109 1.7286-0.21164 2.5135-0.21166 2.0284 0.00002 3.6336 0.46304 4.8154 1.3891 1.1818 0.91724 1.7727 2.1608 1.7727 3.7306-0.00001 1.0936-0.3131 2.0197-0.93927 2.7781-0.62619 0.74966-1.517 1.27-2.6723 1.561"/>
  <path id="path3183" style="" d="m450.15 298.13h2.7914v3.3602h-2.7914v-3.3602"/>
 </g>
 <g id="text184">
  <path id="path3186" style="" d="m440.24 344.07-6.7469 10.544h6.7469v-10.544m-0.70114-2.3283h3.3602v12.872h2.8178v2.2225h-2.8178v4.6567h-2.6591v-4.6567h-8.9164v-2.5797l8.2153-12.515"/>
  <path id="path3188" style="" d="m450.15 358.13h2.7914v3.3602h-2.7914v-3.3602"/>
 </g>
</svg>
