<?xml version="1.0" encoding="UTF-8" standalone="no"?>
<!-- Created with Inkscape (http://www.inkscape.org/) -->
<svg id="svg2" xmlns:rdf="http://www.w3.org/1999/02/22-rdf-syntax-ns#" xmlns="http://www.w3.org/2000/svg" height="382.91" width="458.73" version="1.1" xmlns:cc="http://creativecommons.org/ns#" xmlns:dc="http://purl.org/dc/elements/1.1/" viewBox="178 78 242 199.43059">
 <metadata id="metadata82">
  <rdf:RDF>
   <cc:Work rdf:about="">
    <dc:format>image/svg+xml</dc:format>
    <dc:type rdf:resource="http://purl.org/dc/dcmitype/StillImage"/>
   </cc:Work>
  </rdf:RDF>
 </metadata>
 <g id="g4" transform="translate(-1 -2.2847)">
  <path id="rect6" fill="#7babe3" d="m300 80h40v40h-40z"/>
  <path id="rect8" d="m300 80h40v40h-40z" stroke="#000" stroke-width="2" fill="none"/>
 </g>
 <g id="g10" transform="translate(-1 -2.2847)">
  <path id="rect12" fill="#7babe3" d="m220 160h40v40h-40z"/>
  <path id="rect14" d="m220 160h40v40h-40z" stroke="#000" stroke-width="2" fill="none"/>
 </g>
 <g id="g16" transform="translate(-1 -2.2847)">
  <path id="rect18" fill="#fdfd04" d="m180 240h40v40h-40z"/>
  <path id="rect20" d="m180 240h40v40h-40z" stroke="#000" stroke-width="2" fill="none"/>
 </g>
 <g id="g22" transform="translate(-1 -2.2847)">
  <path id="rect24" fill="#fdfd04" d="m260 240h40v40h-40z"/>
  <path id="rect26" d="m260 240h40v40h-40z" stroke="#000" stroke-width="2" fill="none"/>
 </g>
 <g id="g28" transform="translate(-1 -2.2847)">
  <path id="rect30" fill="#fdfd04" d="m380 160h40v40h-40z"/>
  <path id="rect32" d="m380 160h40v40h-40z" stroke="#000" stroke-width="2" fill="none"/>
 </g>
 <g id="g34" stroke="#000" stroke-width="2" fill="none" transform="translate(-1 -2.2847)">
  <path id="line36" d="m299 121-34.836 34.836"/>
  <path id="polyline38" d="m266.12 146.81-3.536 10.607 10.607-3.536"/>
 </g>
 <g id="g40" stroke="#000" stroke-width="2" fill="none" transform="translate(-1 -2.2847)">
  <path id="line42" d="m229.51 200.98-17.024 34.046"/>
  <path id="polyline44" d="m211.49 225.84v11.18l8.945-6.708"/>
 </g>
 <g id="g46" stroke="#000" stroke-width="2" fill="none" transform="translate(-1 -2.2847)">
  <path id="line48" d="m250.49 200.98 17.024 34.046"/>
  <path id="polyline50" d="m259.57 230.32 8.945 6.708v-11.18"/>
 </g>
 <g id="g52" stroke="#000" stroke-width="2" fill="none" transform="translate(-1 -2.2847)">
  <path id="line54" d="m341 121 34.836 34.836"/>
  <path id="polyline56" d="m366.81 153.88 10.607 3.536-3.536-10.607"/>
 </g>
 <g id="text58">
  <path id="path3038" style="" d="m324.97 90.594-4.7493 2.5665 4.7493 2.5797-0.76729 1.2965-4.445-2.6855v4.9874h-1.5081v-4.9874l-4.445 2.6855-0.76729-1.2965 4.7493-2.5797-4.7493-2.5665 0.76729-1.3097 4.445 2.6855v-4.9874h1.5081v4.9874l4.445-2.6855 0.76729 1.3097"/>
 </g>
 <g id="text62">
  <path id="path3041" style="" d="m240.11 170.1v7.3686h7.3686v2.249h-7.3686v7.3686h-2.2225v-7.3686h-7.3686v-2.249h7.3686v-7.3686h2.2225"/>
 </g>
 <g id="text66">
  <path id="path3044" style="" d="m195.57 264.84h9.3266v2.249h-12.541v-2.249c1.0142-1.0495 2.3945-2.4562 4.1407-4.2201 1.7551-1.7727 2.8575-2.9148 3.3073-3.4264 0.85547-0.96131 1.4508-1.7727 1.7859-2.4342 0.34395-0.67026 0.51593-1.3273 0.51594-1.9711-0.00001-1.0495-0.37043-1.905-1.1112-2.5665-0.73202-0.66144-1.6889-0.99216-2.8707-0.99218-0.83786 0.00002-1.7242 0.14554-2.6591 0.43656-0.92605 0.29106-1.9182 0.73203-2.9766 1.3229v-2.6988c1.076-0.43213 2.0814-0.75845 3.0162-0.97896 0.93486-0.22046 1.7903-0.33071 2.5665-0.33073 2.0461 0.00002 3.6777 0.51155 4.8948 1.5346 1.2171 1.0231 1.8256 2.3901 1.8256 4.101-0.00002 0.8114-0.15436 1.5831-0.46302 2.3151-0.29988 0.72321-0.85109 1.5787-1.6536 2.5665-0.22049 0.25577-0.92164 0.9966-2.1034 2.2225-1.1818 1.2171-2.8487 2.9236-5.0006 5.1197"/>
 </g>
 <g id="text70">
  <path id="path3047" style="" d="m281.37 256.44c1.2788 0.27342 2.2754 0.84227 2.9898 1.7066 0.72317 0.86431 1.0848 1.9315 1.0848 3.2014-0.00002 1.9491-0.6703 3.4572-2.0108 4.5244-1.3406 1.0672-3.2456 1.6007-5.715 1.6007-0.82903 0-1.6845-0.0838-2.5664-0.25136-0.87313-0.15875-1.7771-0.40128-2.712-0.7276v-2.5797c0.74083 0.43216 1.5522 0.75848 2.4342 0.97896 0.88193 0.22049 1.8036 0.33073 2.7649 0.33073 1.6757 0 2.9501-0.33073 3.8232-0.99219 0.88193-0.66145 1.3229-1.6228 1.3229-2.884-0.00002-1.1642-0.41012-2.0726-1.2303-2.7252-0.8114-0.66144-1.9447-0.99217-3.3999-0.99218h-2.3019v-2.196h2.4077c1.3141 0.00001 2.3195-0.26016 3.0162-0.78052 0.69673-0.52915 1.0451-1.2876 1.0451-2.2754-0.00002-1.0142-0.36161-1.7903-1.0848-2.3283-0.71439-0.54679-1.7418-0.82019-3.0824-0.82021-0.73202 0.00002-1.5169 0.0794-2.3548 0.23812-0.83786 0.15877-1.7595 0.40571-2.7649 0.74084v-2.3812c1.0142-0.2822 1.9623-0.49387 2.8443-0.635 0.89076-0.14109 1.7286-0.21165 2.5135-0.21167 2.0285 0.00002 3.6336 0.46304 4.8154 1.3891 1.1818 0.91724 1.7727 2.1608 1.7727 3.7306-0.00002 1.0936-0.31311 2.0197-0.93927 2.7781-0.6262 0.74966-1.517 1.27-2.6723 1.561"/>
 </g>
 <g id="text74">
  <path id="path3050" style="" d="m393.3 167.34h10.491v2.249h-8.0433v4.8419c0.38805-0.13227 0.7761-0.22929 1.1642-0.29104 0.38805-0.0705 0.77611-0.10582 1.1642-0.10583 2.2048 0.00001 3.9511 0.60414 5.2387 1.8124s1.9314 2.8443 1.9315 4.908c-0.00002 2.1255-0.66147 3.7791-1.9844 4.9609-1.3229 1.173-3.1882 1.7595-5.5959 1.7595-0.82904 0-1.6757-0.0706-2.54-0.21167-0.85549-0.14111-1.7418-0.35278-2.6591-0.635v-2.6855c0.79375 0.43216 1.614 0.75407 2.4606 0.96573 0.84666 0.21167 1.7418 0.3175 2.6855 0.3175 1.5258 0 2.734-0.40128 3.6248-1.2038 0.89075-0.80257 1.3361-1.8918 1.3361-3.2676-0.00001-1.3758-0.44539-2.465-1.3361-3.2676-0.89078-0.80256-2.099-1.2038-3.6248-1.2038-0.71438 0.00001-1.4288 0.0794-2.1431 0.23812-0.70556 0.15876-1.4288 0.4057-2.1696 0.74083v-9.9219"/>
 </g>
</svg>
