<?xml version="1.0" encoding="UTF-8" standalone="no"?>
<svg
   xmlns:dc="http://purl.org/dc/elements/1.1/"
   xmlns:cc="http://creativecommons.org/ns#"
   xmlns:rdf="http://www.w3.org/1999/02/22-rdf-syntax-ns#"
   xmlns:svg="http://www.w3.org/2000/svg"
   xmlns="http://www.w3.org/2000/svg"
   xmlns:xlink="http://www.w3.org/1999/xlink"
   xmlns:sodipodi="http://sodipodi.sourceforge.net/DTD/sodipodi-0.dtd"
   xmlns:inkscape="http://www.inkscape.org/namespaces/inkscape"
   width="342.15616"
   height="292.50497"
   id="svg2"
   version="1.1"
   inkscape:version="0.48.2 r9819"
   sodipodi:docname="heddddsds.svg">
  <metadata
     id="metadata46">
    <rdf:RDF>
      <cc:Work
         rdf:about="">
        <dc:format>image/svg+xml</dc:format>
        <dc:type
           rdf:resource="http://purl.org/dc/dcmitype/StillImage" />
        <dc:title>heddddsds</dc:title>
      </cc:Work>
    </rdf:RDF>
  </metadata>
  <sodipodi:namedview
     pagecolor="#ffffff"
     bordercolor="#666666"
     borderopacity="1"
     objecttolerance="10"
     gridtolerance="10"
     guidetolerance="10"
     inkscape:pageopacity="0"
     inkscape:pageshadow="2"
     inkscape:window-width="1280"
     inkscape:window-height="749"
     id="namedview44"
     showgrid="false"
     fit-margin-top="0"
     fit-margin-left="0"
     fit-margin-right="0"
     fit-margin-bottom="0"
     inkscape:zoom="1"
     inkscape:cx="140.81136"
     inkscape:cy="20.493618"
     inkscape:window-x="0"
     inkscape:window-y="26"
     inkscape:window-maximized="1"
     inkscape:current-layer="svg2" />
  <title
     id="title4">heddddsds</title>
  <defs
     id="defs6">
    <pattern
       xlink:href="#pattern2380"
       patternTransform="translate(481.808, 272.061)"
       id="pattern2390" />
    <pattern
       xlink:href="#pattern2380"
       patternTransform="translate(522.525, 272.061)"
       id="pattern2388" />
    <pattern
       xlink:href="#pattern2374"
       patternTransform="translate(-598.213, 273.079)"
       id="pattern2386" />
    <pattern
       xlink:href="#pattern2374"
       patternTransform="translate(-471.99, 274.097)"
       id="pattern2384" />
    <pattern
       xlink:href="#pattern2374"
       patternTransform="translate(-364.09, 272.061)"
       id="pattern2382" />
    <pattern
       xlink:href="#pattern2372"
       patternTransform="translate(393.248, 273.079)"
       id="pattern2380" />
    <pattern
       xlink:href="#pattern2372"
       patternTransform="translate(282.294, 272.061)"
       id="pattern2378" />
    <pattern
       xlink:href="#pattern2372"
       patternTransform="translate(237.505, 272.061)"
       id="pattern2376" />
    <pattern
       xlink:href="#pattern2372"
       patternTransform="translate(-227.688, 272.061)"
       id="pattern2374" />
    <pattern
       xlink:href="#pattern2368"
       patternTransform="translate(147.8, 271.552)"
       id="pattern2372" />
    <linearGradient
       id="linearGradient2362">
      <stop
         stop-color="#00b207"
         offset="0"
         id="stop2363" />
      <stop
         stop-color="#83d400"
         offset="0.5"
         id="stop2365" />
      <stop
         stop-color="#00b207"
         offset="1"
         id="stop2364" />
    </linearGradient>
    <linearGradient
       y2="154.81216"
       y1="154.81216"
       xlink:href="#linearGradient2362"
       x2="138.49277"
       x1="104.28708"
       id="linearGradient2367"
       gradientUnits="userSpaceOnUse"
       gradientTransform="matrix(0.961323,0,0,1.04023,-103.649,-150.874)" />
    <pattern
       width="35.989169"
       patternUnits="userSpaceOnUse"
       patternTransform="translate(93.8502, 187.064)"
       id="pattern2368"
       height="35.26939">
      <path
         fill="url(#linearGradient2367)"
         fill-rule="evenodd"
         stroke-width="0.25000000pt"
         id="path2369"
         d="m32.210312,34.999252l3.778862,0.134964l-34.549599,-0.044998c-0.929726,-11.786438 -1.22963,-18.444443 -1.439575,-35.089432c1.709496,17.154831 1.619514,21.443542 2.159355,32.570206c0.089966,-6.568039 0.539841,-12.506241 1.619507,-18.894333c0.059982,7.197845 -0.239929,13.765869 -0.899727,20.51384c0.359886,0.239929 0.719788,0.479858 1.079681,0.719788l3.059074,0c-1.139656,-2.279327 -1.649498,-4.648605 -1.799461,-6.298111c0.899734,1.499542 1.619514,3.179047 2.159355,5.578323c-0.779762,-4.76857 -1.289612,-9.267227 -1.259621,-14.035782c0.959709,5.578323 1.559532,8.637405 1.799461,12.9561c0.179947,-2.939117 0.089966,-5.698273 0.539841,-8.817337c0.389877,3.718887 0.419876,7.257813 0,10.52684l5.578316,0.089966c-0.779762,-5.098465 -1.289612,-9.20723 -1.259621,-15.295395c1.199638,5.818237 1.319603,9.477142 1.979401,14.215714c-0.239929,-5.818253 -0.749771,-7.947617 0.9897,-16.824936c-0.569832,9.357193 -0.869736,11.246613 0.629814,18.264511l5.938217,0c0.20993,-9.357193 0.149948,-13.585922 -0.719788,-25.372375c2.309311,10.316895 1.829445,14.065765 1.349594,23.213013c0.539841,-7.677689 0.359894,-24.442642 3.329002,-30.500824c-1.829453,9.74707 -2.129356,21.113647 -2.699188,32.300293l6.298096,0c-0.839737,-4.138763 -1.589516,-8.277512 -1.43956,-12.416275c0.929726,6.148148 1.319603,8.607407 2.609215,11.066666c-0.449875,-5.368378 0.179947,-10.826736 1.529541,-15.745255c-0.599823,6.687988 -1.245705,14.735336 -0.359894,17.18483z" />
    </pattern>
  </defs>
  <path
     id="svg_17"
     d="m 166.03002,195.569 c -3.0538,11.19721 -26.46612,21.37648 -42.75294,18.3227 -10.17926,13.91166 -36.645392,20.69784 -42.752962,-7.12549 -70.23702,39.02054 -107.900314,-16.62616 -51.91429,-66.16529 -46.48538,15.60822 -33.93094,-78.719736 20.35853,-84.487985 -8.82202,-32.23439 39.35987,-53.2715613 68.201152,-29.519913 -3.3931,-18.3226933 40.03846,-43.770874 58.02186,-10.17926 17.64407,-28.501953 57.68256,-3.053772 72.27286,16.286835 27.82336,1.357239 56.66461,20.019226 52.93225,43.770889 30.19849,8.143417 53.27155,33.591614 35.62744,73.290774 12.89374,26.80542 -28.16266,55.64671 -74.30871,37.66333 -26.46613,11.53651 -61.07566,25.10887 -82.45212,9.16134"
     inkscape:connector-curvature="0"
     style="fill:#028700;fill-rule:evenodd;stroke-width:0.25pt" />
  <path
     id="svg_30"
     d="m 151.77905,187.42558 c 6.56952,12.87429 7.7005,32.75998 7.12549,48.86049 -0.44291,12.40146 -3.30613,26.3404 -10.17926,36.64542 l -5.43146,8.1434 c -8.69392,9.34643 -8.23138,11.32181 -8.23138,11.32181 0,0 1.63259,-0.031 20.49991,0.0439 l 23.38089,-0.0857 c 15.62133,-0.20711 17.21538,0.6418 29.40868,-0.31695 -3.17927,-7.87664 -12.83792,-6.85479 -21.96335,-26.23196 -4.50302,-9.56179 -6.38842,-21.02401 -6.10757,-31.55572 0.39777,-14.91649 -0.39185,-33.18086 8.14343,-44.7888 16.91294,-23.00161 41.34146,-41.3803 64.12943,-61.07567 7.68805,-6.64469 16.31051,-3.57634 30.03967,-14.9646 -33.5448,10.25702 -34.59625,9.08209 -30.99969,-12.95192 -6.48041,6.75732 -4.7139,22.88647 -12.46888,31.04266 -17.405,18.30547 -37.28622,33.71861 -49.68261,35.55512 -5.9263,0.87796 -0.35956,-24.26992 4.07171,-34.60953 5.74802,-13.41202 33.32273,-38.472306 26.46613,-36.645402 -3.95682,1.054276 -27.09595,28.807862 -32.5737,30.537822 -4.80857,1.51863 -2.95481,-35.61674 -5.08963,-29.519892 -1.75843,5.021882 -0.52545,24.251192 1.01791,36.136432 1.35504,10.43469 -8.5664,33.49545 -11.98932,31.41726 -6.07776,-3.69006 -20.59063,-19.56831 -16.81079,-50.33624 1.12995,-9.19768 -2.09936,-58.320006 -3.77356,-42.86148 -2.11694,19.54657 0.46002,29.9808 -4.07171,33.78744 -3.95099,3.31885 -12.987,-3.49626 -21.37645,-3.05378 -7.5633,0.39891 16.50053,4.92625 20.35856,11.1972 4.80597,7.81177 -0.84936,21.22663 -3.69244,31.28758 -12.4258,-1.11543 -25.5382,-5.94772 -39.23519,-13.08837 -7.084132,-3.6932 -5.640042,-34.83849 -8.986692,-32.450184 -3.72675,2.659594 1.88123,31.096724 -1.52689,33.591594 -3.60144,2.6364 -31.25293,20.97763 -30.02887,21.37648 5.32911,1.73644 27.3736,-17.30545 36.13642,-14.75995 6.291932,1.82773 52.862592,26.78101 58.530842,36.13643 3.33456,5.5037 -30.79537,-2.7321 -33.08263,1.5269 -2.06198,3.83944 22.59041,0.10079 27.993,10.68823 z"
     inkscape:connector-curvature="0"
     style="fill:#7b5517;fill-rule:evenodd;stroke-width:0.25pt"
     sodipodi:nodetypes="ssscccccssssccssssssssssssscssssssss" />
</svg>
