<?xml version="1.0" encoding="UTF-8" standalone="no"?>
<!-- Created with Inkscape (http://www.inkscape.org/) -->
<svg id="svg2" xmlns:rdf="http://www.w3.org/1999/02/22-rdf-syntax-ns#" xmlns="http://www.w3.org/2000/svg" height="738.12" width="665" version="1.1" xmlns:cc="http://creativecommons.org/ns#" xmlns:dc="http://purl.org/dc/elements/1.1/" viewBox="199 13 360.53744 404.72305">
 <metadata id="metadata220">
  <rdf:RDF>
   <cc:Work rdf:about="">
    <dc:format>image/svg+xml</dc:format>
    <dc:type rdf:resource="http://purl.org/dc/dcmitype/StillImage"/>
   </cc:Work>
  </rdf:RDF>
 </metadata>
 <g id="g4" transform="translate(-2.0461 -3.277)">
  <path id="path6" d="m540 320c28 0 28 40 11 40" stroke="#eb680e" stroke-width="2" fill="none"/>
  <path id="polygon8" fill="#eb680e" d="m541 360 10 5v-10z"/>
  <path id="polygon10" d="m541 360 10 5v-10z" stroke="#eb680e" stroke-width="2" fill="none"/>
 </g>
 <g id="g12" transform="translate(-2.0461 -3.277)">
  <path id="path14" d="m540 280c28 0 28 30 11 30" stroke="#eb680e" stroke-width="2" fill="none"/>
  <path id="polygon16" fill="#eb680e" d="m541 310 10 5v-10z"/>
  <path id="polygon18" d="m541 310 10 5v-10z" stroke="#eb680e" stroke-width="2" fill="none"/>
 </g>
 <g id="g20" transform="translate(-2.0461 -3.277)">
  <path id="rect22" fill="#fff" d="m200 140h100v40h-100z"/>
  <path id="rect24" d="m200 140h100v40h-100z" stroke="#000" stroke-width="2" fill="none"/>
  <g id="text26">
   <path id="path3095" style="" d="m228.98 165.24v-1.6228c0.44685 0.21167 0.89958 0.37336 1.3582 0.48507 0.45861 0.11172 0.9084 0.16757 1.3494 0.16757 1.1759 0 2.0726-0.39393 2.6899-1.1818 0.62323-0.79375 0.97895-1.9961 1.0672-3.6072-0.34102 0.50565-0.77317 0.89371-1.2964 1.1642-0.5233 0.27047-1.1024 0.4057-1.7374 0.4057-1.317 0-2.3607-0.39687-3.1309-1.1906-0.76435-0.79962-1.1465-1.8903-1.1465-3.272 0-1.3523 0.39982-2.4371 1.1994-3.2544 0.79962-0.81725 1.8638-1.2259 3.1926-1.2259 1.5228 0.00002 2.684 0.58504 3.4837 1.7551 0.8055 1.1642 1.2082 2.8575 1.2083 5.08-0.00001 2.0755-0.4939 3.7336-1.4817 4.9742-0.98191 1.2347-2.3048 1.8521-3.9688 1.8521-0.44686-0.00001-0.89959-0.0441-1.3582-0.1323-0.45862-0.0882-0.93487-0.22048-1.4288-0.39687m3.5454-5.5827c0.79962 0 1.4317-0.2734 1.8962-0.82021 0.47036-0.5468 0.70555-1.2964 0.70555-2.249 0-0.9466-0.23519-1.6933-0.70555-2.2401-0.4645-0.55267-1.0966-0.82902-1.8962-0.82903-0.79963 0.00001-1.4346 0.27636-1.905 0.82903-0.46449 0.54681-0.69673 1.2935-0.69673 2.2401 0 0.95251 0.23224 1.7022 0.69673 2.249 0.47037 0.54681 1.1054 0.82021 1.905 0.82021"/>
   <path id="path3097" style="" d="m240.48 165.24v-1.6228c0.44685 0.21167 0.89958 0.37336 1.3582 0.48507 0.45861 0.11172 0.9084 0.16757 1.3494 0.16757 1.1759 0 2.0726-0.39393 2.6899-1.1818 0.62324-0.79375 0.97895-1.9961 1.0672-3.6072-0.34103 0.50565-0.77318 0.89371-1.2965 1.1642-0.52329 0.27047-1.1024 0.4057-1.7374 0.4057-1.317 0-2.3607-0.39687-3.1309-1.1906-0.76435-0.79962-1.1465-1.8903-1.1465-3.272-0.00001-1.3523 0.39981-2.4371 1.1994-3.2544 0.79962-0.81725 1.8638-1.2259 3.1926-1.2259 1.5228 0.00002 2.684 0.58504 3.4837 1.7551 0.8055 1.1642 1.2082 2.8575 1.2083 5.08-0.00001 2.0755-0.4939 3.7336-1.4817 4.9742-0.98191 1.2347-2.3048 1.8521-3.9688 1.8521-0.44685-0.00001-0.89958-0.0441-1.3582-0.1323-0.45861-0.0882-0.93486-0.22048-1.4288-0.39687m3.5454-5.5827c0.79963 0 1.4317-0.2734 1.8962-0.82021 0.47036-0.5468 0.70555-1.2964 0.70556-2.249-0.00001-0.9466-0.2352-1.6933-0.70556-2.2401-0.4645-0.55267-1.0966-0.82902-1.8962-0.82903-0.79963 0.00001-1.4346 0.27636-1.905 0.82903-0.4645 0.54681-0.69674 1.2935-0.69674 2.2401 0 0.95251 0.23224 1.7022 0.69674 2.249 0.47036 0.54681 1.1054 0.82021 1.905 0.82021"/>
   <path id="path3099" style="" d="m251.95 152.34h6.9938v1.4993h-5.3622v3.2279c0.2587-0.0882 0.5174-0.15286 0.77611-0.19402 0.2587-0.047 0.5174-0.0705 0.77611-0.0706 1.4699 0.00001 2.6341 0.40276 3.4925 1.2083 0.85841 0.80552 1.2876 1.8962 1.2876 3.272-0.00001 1.417-0.44098 2.5194-1.3229 3.3073-0.88195 0.78199-2.1255 1.173-3.7306 1.173-0.55269-0.00001-1.1171-0.047-1.6933-0.14112-0.57033-0.0941-1.1612-0.23518-1.7727-0.42333v-1.7903c0.52916 0.2881 1.076 0.50271 1.6404 0.64381 0.56444 0.14112 1.1612 0.21167 1.7903 0.21167 1.0172 0 1.8227-0.26752 2.4165-0.80257 0.59383-0.53504 0.89075-1.2612 0.89076-2.1784-0.00001-0.91721-0.29693-1.6434-0.89076-2.1784-0.59385-0.53504-1.3994-0.80256-2.4165-0.80257-0.47625 0.00001-0.9525 0.0529-1.4288 0.15875-0.47037 0.10584-0.9525 0.27047-1.4464 0.49389v-6.6146"/>
   <path id="path3101" style="" d="m262.98 152.34h8.4666v0.75847l-4.7801 12.409h-1.8609l4.4979-11.668h-6.3235v-1.4993"/>
  </g>
 </g>
 <g id="g30" transform="translate(-2.0461 -3.277)">
  <path id="rect32" fill="#fff" d="m200 200h101.9v40h-101.9z"/>
  <path id="rect34" d="m200 200h101.9v40h-101.9z" stroke="#000" stroke-width="2" fill="none"/>
  <g id="text36">
   <path id="path3106" style="" d="m230.19 224.01h2.9104v-10.045l-3.1662 0.635v-1.6228l3.1485-0.635h1.7815v11.668h2.9104v1.4993h-7.5847v-1.4993"/>
   <path id="path3108" style="" d="m245.19 213.52c-0.91723 0.00001-1.6081 0.45274-2.0726 1.3582-0.45861 0.8996-0.68792 2.2548-0.68792 4.0658 0 1.805 0.22931 3.1603 0.68792 4.0658 0.46449 0.89959 1.1553 1.3494 2.0726 1.3494 0.92309 0 1.614-0.44979 2.0726-1.3494 0.46449-0.90546 0.69673-2.2607 0.69674-4.0658-0.00001-1.8109-0.23225-3.1662-0.69674-4.0658-0.45861-0.90545-1.1495-1.3582-2.0726-1.3582m0-1.4111c1.4758 0.00002 2.6017 0.58504 3.3778 1.7551 0.78198 1.1642 1.173 2.8575 1.173 5.08-0.00001 2.2166-0.391 3.91-1.173 5.08-0.77612 1.1642-1.9021 1.7462-3.3778 1.7462-1.4758-0.00001-2.6047-0.58209-3.3867-1.7462-0.77611-1.17-1.1642-2.8634-1.1642-5.08 0-2.2225 0.38805-3.9158 1.1642-5.08 0.78199-1.17 1.9109-1.755 3.3867-1.7551"/>
   <path id="path3110" style="" d="m254.42 224.01h6.2177v1.4993h-8.3608v-1.4993c0.67616-0.69968 1.5963-1.6375 2.7605-2.8134 1.17-1.1818 1.905-1.9432 2.2049-2.2842 0.57032-0.64088 0.96719-1.1818 1.1906-1.6228 0.22929-0.44684 0.34395-0.88487 0.34395-1.3141 0-0.69966-0.24695-1.27-0.74083-1.711-0.48801-0.44096-1.126-0.66144-1.9138-0.66145-0.55857 0.00001-1.1495 0.097-1.7727 0.29104-0.61736 0.19404-1.2788 0.48802-1.9844 0.88194v-1.7992c0.71731-0.28809 1.3876-0.50564 2.0108-0.65264 0.62323-0.14698 1.1936-0.22047 1.711-0.22049 1.3641 0.00002 2.4518 0.34103 3.2632 1.0231 0.81138 0.68204 1.2171 1.5934 1.2171 2.734-0.00001 0.54094-0.1029 1.0554-0.30868 1.5434-0.19992 0.48214-0.56739 1.0525-1.1024 1.711-0.147 0.17052-0.61443 0.66441-1.4023 1.4817-0.78788 0.81139-1.8991 1.9491-3.3338 3.4131"/>
   <path id="path3112" style="" d="m269.28 213.9-4.4979 7.0291h4.4979v-7.0291m-0.46743-1.5522h2.2401v8.5813h1.8785v1.4817h-1.8785v3.1044h-1.7727v-3.1044h-5.9443v-1.7198l5.4769-8.3432"/>
  </g>
 </g>
 <g id="g40" transform="translate(-2.0461 -3.277)">
  <path id="rect42" fill="#fff" d="m200 260h100v40h-100z"/>
  <path id="rect44" d="m200 260h100v40h-100z" stroke="#000" stroke-width="2" fill="none"/>
  <g id="text46">
   <path id="path3117" style="" d="m223.49 284.01h2.9104v-10.045l-3.1662 0.635v-1.6228l3.1485-0.635h1.7815v11.668h2.9104v1.4993h-7.5847v-1.4993"/>
   <path id="path3119" style="" d="m240.08 278.41c0.85253 0.18228 1.5169 0.56151 1.9932 1.1377 0.48212 0.57621 0.72318 1.2876 0.72319 2.1343-0.00001 1.2994-0.44686 2.3048-1.3406 3.0162-0.89371 0.71143-2.1637 1.0672-3.81 1.0672-0.55269 0-1.123-0.0559-1.711-0.16757-0.58208-0.10583-1.1847-0.26752-1.808-0.48507v-1.7198c0.49389 0.28811 1.0348 0.50565 1.6228 0.65264 0.58796 0.14699 1.2024 0.22049 1.8433 0.22049 1.1171 0 1.9667-0.22049 2.5488-0.66146 0.58796-0.44097 0.88194-1.0818 0.88195-1.9226-0.00001-0.7761-0.27341-1.3817-0.82021-1.8168-0.54093-0.44097-1.2965-0.66145-2.2666-0.66146h-1.5346v-1.464h1.6051c0.87606 0 1.5463-0.17345 2.0108-0.52035 0.46448-0.35277 0.69673-0.85842 0.69674-1.5169-0.00001-0.67615-0.24108-1.1936-0.7232-1.5522-0.47625-0.36453-1.1612-0.5468-2.0549-0.54681-0.48801 0.00001-1.0113 0.0529-1.5698 0.15875-0.55857 0.10585-1.173 0.27047-1.8433 0.49389v-1.5875c0.67616-0.18813 1.3082-0.32925 1.8962-0.42333 0.59384-0.0941 1.1524-0.1411 1.6757-0.14111 1.3523 0.00001 2.4224 0.30869 3.2103 0.92604 0.78786 0.61149 1.1818 1.4405 1.1818 2.4871-0.00001 0.72908-0.20873 1.3464-0.62618 1.8521-0.41746 0.49977-1.0113 0.84667-1.7815 1.0407"/>
   <path id="path3121" style="" d="m251.08 273.9-4.4979 7.0291h4.4979v-7.0291m-0.46743-1.5522h2.2401v8.5813h1.8785v1.4817h-1.8785v3.1044h-1.7727v-3.1044h-5.9443v-1.7198l5.4769-8.3432"/>
   <path id="path3123" style="" d="m257.7 272.34h6.9938v1.4993h-5.3622v3.2279c0.2587-0.0882 0.5174-0.15286 0.77611-0.19403 0.2587-0.047 0.5174-0.0705 0.77611-0.0705 1.4699 0 2.6341 0.40276 3.4925 1.2083 0.85841 0.80551 1.2876 1.8962 1.2876 3.272-0.00001 1.417-0.44098 2.5194-1.3229 3.3073-0.88195 0.78199-2.1255 1.173-3.7306 1.173-0.55269 0-1.1171-0.047-1.6933-0.14111-0.57033-0.0941-1.1612-0.23519-1.7727-0.42333v-1.7904c0.52917 0.2881 1.076 0.50271 1.6404 0.64382 0.56444 0.14111 1.1612 0.21167 1.7903 0.21167 1.0172 0 1.8227-0.26753 2.4165-0.80257 0.59383-0.53505 0.89075-1.2612 0.89076-2.1784-0.00001-0.91722-0.29693-1.6434-0.89076-2.1784-0.59385-0.53504-1.3994-0.80256-2.4165-0.80257-0.47625 0.00001-0.9525 0.0529-1.4288 0.15875-0.47037 0.10584-0.9525 0.27047-1.4464 0.49389v-6.6146"/>
   <path id="path3125" style="" d="m268.73 272.34h8.4666v0.75847l-4.7801 12.409h-1.8609l4.4979-11.668h-6.3235v-1.4993"/>
  </g>
 </g>
 <g id="text50">
  <path id="path3128" style="" d="m215.95 113h1.6316v8.1051l4.8419-4.2598h2.0726l-5.2387 4.6214 5.4592 5.2564h-2.1167l-5.0183-4.8242v4.8242h-1.6316v-13.723"/>
  <path id="path3130" style="" d="m225.77 122.82v-5.9796h1.6228v5.9178c0 0.93486 0.18227 1.6375 0.54681 2.1078 0.36453 0.46449 0.91134 0.69673 1.6404 0.69673 0.87606 0 1.5669-0.27928 2.0726-0.83784 0.51152-0.55857 0.76728-1.32 0.76729-2.2842v-5.6003h1.6228v9.8778h-1.6228v-1.5169c-0.39394 0.59972-0.85255 1.0466-1.3758 1.3406-0.51741 0.2881-1.1201 0.43215-1.808 0.43215-1.1348 0-1.9961-0.35278-2.5841-1.0583-0.58796-0.70555-0.88194-1.7374-0.88194-3.0956m4.0834-6.2177"/>
  <path id="path3132" style="" d="m237.4 113h1.6228v13.723h-1.6228v-13.723"/>
  <path id="path3134" style="" d="m249.52 117.22v1.5169c-0.45862-0.25282-0.92017-0.44096-1.3846-0.56444-0.45862-0.12935-0.9231-0.19402-1.3935-0.19403-1.0525 0.00001-1.8697 0.33515-2.4518 1.0054-0.58209 0.66441-0.87313 1.5993-0.87312 2.8046-0.00001 1.2053 0.29103 2.1431 0.87312 2.8134 0.58208 0.6644 1.3993 0.9966 2.4518 0.9966 0.47037 0 0.93485-0.0617 1.3935-0.18521 0.46448-0.12935 0.92603-0.32044 1.3846-0.57326v1.4993c-0.45274 0.21167-0.92311 0.37042-1.4111 0.47625-0.48213 0.10583-0.9966 0.15875-1.5434 0.15875-1.4876 0-2.6694-0.46743-3.5454-1.4023-0.87606-0.93486-1.3141-2.196-1.3141-3.7835-0.00001-1.611 0.44097-2.8781 1.3229-3.8012 0.88782-0.92309 2.102-1.3846 3.6424-1.3846 0.49976 0.00001 0.98777 0.0529 1.464 0.15875 0.47624 0.1 0.93779 0.25283 1.3846 0.45861"/>
  <path id="path3136" style="" d="m258.66 117.14v1.5346c-0.45862-0.23517-0.93487-0.41156-1.4288-0.52916-0.4939-0.11759-1.0054-0.17638-1.5346-0.17639-0.80552 0.00001-1.4111 0.12348-1.8168 0.37042-0.39981 0.24695-0.59972 0.61736-0.59972 1.1112 0 0.37631 0.14405 0.67323 0.43215 0.89077 0.2881 0.21167 0.86724 0.41452 1.7374 0.60854l0.55563 0.12347c1.1524 0.24695 1.9697 0.59679 2.4518 1.0495 0.488 0.44686 0.732 1.073 0.73201 1.8785-0.00001 0.91723-0.36454 1.6434-1.0936 2.1784-0.7232 0.53505-1.7198 0.80257-2.9898 0.80257-0.52917 0-1.0818-0.0529-1.658-0.15875-0.57032-0.0999-1.173-0.25282-1.808-0.45861v-1.6757c0.59972 0.31162 1.1906 0.5468 1.7727 0.70555 0.58208 0.15287 1.1583 0.22931 1.7286 0.22931 0.76435 0 1.3523-0.12935 1.7639-0.38806 0.41157-0.26458 0.61735-0.63499 0.61736-1.1112-0.00001-0.44096-0.14994-0.77904-0.44979-1.0142-0.29399-0.23518-0.94369-0.46155-1.9491-0.6791l-0.56444-0.13229c-1.0054-0.21166-1.7316-0.53504-2.1784-0.97014-0.44685-0.44096-0.67028-1.0436-0.67028-1.808 0-0.92897 0.32926-1.6463 0.98778-2.1519 0.65851-0.50564 1.5934-0.75846 2.8046-0.75847 0.59971 0.00001 1.1642 0.0441 1.6933 0.13229 0.52916 0.0882 1.0172 0.22049 1.464 0.39687"/>
  <path id="path3138" style="" d="m265.61 117.98c-0.87019 0.00001-1.5581 0.34103-2.0638 1.023-0.50565 0.67617-0.75847 1.6052-0.75847 2.7869 0 1.1818 0.24988 2.1137 0.74965 2.7958 0.50565 0.67616 1.1965 1.0142 2.0726 1.0142 0.8643 0 1.5493-0.34102 2.0549-1.023 0.50564-0.68204 0.75846-1.611 0.75847-2.787-0.00001-1.17-0.25283-2.0961-0.75847-2.7781-0.50566-0.6879-1.1906-1.0319-2.0549-1.0319m0-1.3758c1.4111 0.00001 2.5194 0.45862 3.3249 1.3758 0.80549 0.91723 1.2082 2.1872 1.2083 3.81-0.00001 1.6169-0.40277 2.8869-1.2083 3.81-0.80552 0.91722-1.9138 1.3758-3.3249 1.3758-1.417 0-2.5282-0.45861-3.3338-1.3758-0.79963-0.9231-1.1994-2.1931-1.1994-3.81 0-1.6228 0.39981-2.8928 1.1994-3.81 0.80551-0.91721 1.9168-1.3758 3.3338-1.3758"/>
  <path id="path3140" style="" d="m272.76 113h1.6316v8.1051l4.8419-4.2598h2.0726l-5.2387 4.6214 5.4592 5.2564h-2.1167l-5.0182-4.8242v4.8242h-1.6316v-13.723"/>
 </g>
 <g id="g54" transform="translate(-2.0461 -3.277)">
  <path id="rect56" fill="#3a739a" d="m340 60h40v360h-40z"/>
  <path id="rect58" d="m340 60h40v360h-40z" stroke="#3a739a" stroke-width="2" fill="none"/>
 </g>
 <g id="g60" stroke="#000" stroke-width="2" fill="none" transform="translate(-2.0461 -3.277)">
  <path id="polyline62" d="m300 160h58.1l59.85 116.02"/>
  <path id="polyline64" d="m409.95 271.42 9.028 6.595-0.141-11.18"/>
 </g>
 <g id="g66" stroke="#000" stroke-width="2" fill="none" transform="translate(-2.0461 -3.277)">
  <path id="polyline68" d="m301.9 220h58.1l56.838-56.838"/>
  <path id="polyline70" d="m414.88 172.19 3.536-10.607-10.607 3.536"/>
 </g>
 <g id="g72" stroke="#000" stroke-width="2" fill="none" transform="translate(-2.0461 -3.277)">
  <path id="polyline74" d="m300 280h60 55.528"/>
  <path id="polyline76" d="m407.76 285 10-5-10-5"/>
 </g>
 <g id="text78">
  <path id="path3151" style="" d="m434.09 34.041v2.8046h3.3426v1.2612h-3.3426v5.3622c0 0.80551 0.10877 1.3229 0.32632 1.5522 0.22342 0.22931 0.67322 0.34396 1.3494 0.34396h1.6669v1.3582h-1.6669c-1.2524 0-2.1167-0.23224-2.5929-0.69674-0.47625-0.47037-0.71437-1.3229-0.71437-2.5576v-5.3622h-1.1906v-1.2612h1.1906v-2.8046h1.6316"/>
  <path id="path3153" style="" d="m444.07 41.758c-1.3112 0.000005-2.2196 0.14994-2.7252 0.44979-0.50565 0.29986-0.75848 0.81139-0.75847 1.5346-0.00001 0.5762 0.18814 1.0348 0.56444 1.3758 0.38217 0.33514 0.89958 0.50271 1.5522 0.50271 0.89958 0.000002 1.6198-0.3175 2.1608-0.9525 0.5468-0.64088 0.8202-1.4905 0.82021-2.5488v-0.3616h-1.614m3.2367-0.67028v5.6356h-1.6228v-1.4993c-0.37042 0.59972-0.83197 1.0436-1.3846 1.3317-0.55269 0.28222-1.2288 0.42333-2.0285 0.42333-1.0113 0-1.8168-0.28222-2.4165-0.84666-0.59384-0.57032-0.89076-1.3317-0.89076-2.2842 0-1.1112 0.37042-1.9491 1.1112-2.5135 0.74671-0.56444 1.858-0.84666 3.3338-0.84667h2.2754v-0.15875c-0.00001-0.7467-0.24695-1.3229-0.74083-1.7286-0.48802-0.41156-1.1759-0.61735-2.0638-0.61736-0.56445 0.000009-1.1142 0.06762-1.6492 0.20285-0.53505 0.13524-1.0495 0.33809-1.5434 0.60854v-1.4993c0.59384-0.2293 1.17-0.3998 1.7286-0.51153 0.55856-0.11758 1.1024-0.17638 1.6316-0.17639 1.4287 0.00001 2.4959 0.37043 3.2014 1.1112 0.70555 0.74084 1.0583 1.8638 1.0583 3.369m-2.9633-8.8106h1.7551l-2.8751 3.3161h-1.3494l2.4694-3.3161"/>
  <path id="path3155" style="" d="m457.75 41.793c-0.00001-1.1936-0.24696-2.1284-0.74084-2.8046-0.48801-0.68203-1.1612-1.023-2.0196-1.0231-0.85843 0.000009-1.5346 0.34103-2.0285 1.0231-0.48801 0.67616-0.73201 1.611-0.73201 2.8046s0.244 2.1314 0.73201 2.8134c0.49389 0.67616 1.17 1.0142 2.0285 1.0142 0.85842 0.000002 1.5316-0.33808 2.0196-1.0142 0.49388-0.68203 0.74083-1.6198 0.74084-2.8134m-5.521-3.4484c0.34101-0.58795 0.77023-1.023 1.2876-1.3053 0.52328-0.28809 1.1465-0.43214 1.8697-0.43215 1.1994 0.00001 2.1725 0.47626 2.9192 1.4287 0.75258 0.95251 1.1289 2.2049 1.1289 3.7571-0.00001 1.5522-0.37631 2.8046-1.1289 3.7571-0.74672 0.9525-1.7198 1.4287-2.9192 1.4287-0.7232 0-1.3464-0.14111-1.8697-0.42333-0.51741-0.2881-0.94663-0.72613-1.2876-1.3141v1.4817h-1.6316v-13.723h1.6316v5.3446"/>
  <path id="path3157" style="" d="m462.12 33h1.6228v13.723h-1.6228v-13.723"/>
  <path id="path3159" style="" d="m471.62 41.758c-1.3112 0.000005-2.2196 0.14994-2.7252 0.44979-0.50565 0.29986-0.75848 0.81139-0.75847 1.5346-0.00001 0.5762 0.18814 1.0348 0.56444 1.3758 0.38217 0.33514 0.89958 0.50271 1.5522 0.50271 0.89958 0.000002 1.6198-0.3175 2.1608-0.9525 0.5468-0.64088 0.8202-1.4905 0.82021-2.5488v-0.3616h-1.614m3.2367-0.67028v5.6356h-1.6228v-1.4993c-0.37042 0.59972-0.83197 1.0436-1.3846 1.3317-0.55269 0.28222-1.2288 0.42333-2.0285 0.42333-1.0113 0-1.8168-0.28222-2.4165-0.84666-0.59384-0.57032-0.89076-1.3317-0.89076-2.2842 0-1.1112 0.37042-1.9491 1.1112-2.5135 0.74671-0.56444 1.858-0.84666 3.3338-0.84667h2.2754v-0.15875c-0.00001-0.7467-0.24695-1.3229-0.74083-1.7286-0.48802-0.41156-1.1759-0.61735-2.0638-0.61736-0.56445 0.000009-1.1142 0.06762-1.6492 0.20285-0.53505 0.13524-1.0495 0.33809-1.5434 0.60854v-1.4993c0.59384-0.2293 1.17-0.3998 1.7286-0.51153 0.55856-0.11758 1.1024-0.17638 1.6316-0.17639 1.4287 0.00001 2.4959 0.37043 3.2014 1.1112 0.70555 0.74084 1.0583 1.8638 1.0583 3.369"/>
  <path id="path3161" style="" d="m478.06 33h3.7394v1.2612h-2.1167v13.582h2.1167v1.2612h-3.7394v-16.104"/>
  <path id="path3163" style="" d="m485.8 45.224h2.9104v-10.045l-3.1662 0.635v-1.6228l3.1485-0.635h1.7815v11.668h2.9104v1.4993h-7.5847v-1.4993"/>
  <path id="path3165" style="" d="m500.81 34.729c-0.91723 0.000012-1.6081 0.45274-2.0726 1.3582-0.45861 0.89959-0.68792 2.2548-0.68791 4.0658-0.00001 1.805 0.2293 3.1603 0.68791 4.0658 0.46449 0.89958 1.1553 1.3494 2.0726 1.3494 0.92309 0.000001 1.614-0.44979 2.0726-1.3494 0.46448-0.90546 0.69672-2.2607 0.69673-4.0658-0.00001-1.8109-0.23225-3.1662-0.69673-4.0658-0.45862-0.90545-1.1495-1.3582-2.0726-1.3582m0-1.4111c1.4758 0.000014 2.6017 0.58504 3.3778 1.7551 0.78198 1.1642 1.173 2.8575 1.173 5.08-0.00001 2.2166-0.39101 3.91-1.173 5.08-0.77612 1.1642-1.9021 1.7462-3.3778 1.7462-1.4758 0-2.6047-0.58208-3.3867-1.7462-0.77612-1.17-1.1642-2.8634-1.1642-5.08 0-2.2225 0.38805-3.9158 1.1642-5.08 0.78198-1.17 1.9109-1.7551 3.3867-1.7551"/>
  <path id="path3167" style="" d="m512.31 34.729c-0.91723 0.000012-1.6081 0.45274-2.0726 1.3582-0.45861 0.89959-0.68791 2.2548-0.68791 4.0658 0 1.805 0.2293 3.1603 0.68791 4.0658 0.46449 0.89958 1.1553 1.3494 2.0726 1.3494 0.92309 0.000001 1.614-0.44979 2.0726-1.3494 0.46448-0.90546 0.69672-2.2607 0.69673-4.0658-0.00001-1.8109-0.23225-3.1662-0.69673-4.0658-0.45862-0.90545-1.1495-1.3582-2.0726-1.3582m0-1.4111c1.4758 0.000014 2.6017 0.58504 3.3778 1.7551 0.78198 1.1642 1.173 2.8575 1.173 5.08-0.00001 2.2166-0.39101 3.91-1.173 5.08-0.77611 1.1642-1.9021 1.7462-3.3778 1.7462-1.4758 0-2.6047-0.58208-3.3867-1.7462-0.77611-1.17-1.1642-2.8634-1.1642-5.08 0-2.2225 0.38806-3.9158 1.1642-5.08 0.78198-1.17 1.9109-1.7551 3.3867-1.7551"/>
  <path id="path3169" style="" d="m523.56 33v16.104h-3.7394v-1.2612h2.1078v-13.582h-2.1078v-1.2612h3.7394"/>
 </g>
 <g id="text82">
  <path id="path3172" style="" d="m336.05 20.761v5.9619h-1.6228v-5.909c-0.00001-0.93485-0.18228-1.6345-0.54681-2.099-0.36454-0.46448-0.91134-0.69673-1.6404-0.69674-0.87607 0.000009-1.5669 0.27929-2.0726 0.83785-0.50565 0.55857-0.75847 1.32-0.75847 2.2842v5.5827h-1.6316v-13.723h1.6316v5.3799c0.38805-0.59383 0.84372-1.0377 1.367-1.3317 0.52916-0.29397 1.1377-0.44096 1.8256-0.44097 1.1348 0.00001 1.9932 0.35279 2.5753 1.0583 0.58207 0.69968 0.87311 1.7316 0.87312 3.0956"/>
  <path id="path3174" style="" d="m343.79 21.758c-1.3112 0.000005-2.2196 0.14994-2.7252 0.44979-0.50565 0.29986-0.75847 0.81139-0.75847 1.5346 0 0.5762 0.18815 1.0348 0.56445 1.3758 0.38217 0.33514 0.89957 0.50271 1.5522 0.50271 0.89957 0.000001 1.6198-0.3175 2.1608-0.9525 0.54679-0.64088 0.8202-1.4905 0.8202-2.5488v-0.3616h-1.614m3.2367-0.67028v5.6356h-1.6228v-1.4993c-0.37042 0.59972-0.83197 1.0436-1.3846 1.3317-0.55269 0.28222-1.2288 0.42333-2.0285 0.42333-1.0113 0-1.8168-0.28222-2.4165-0.84666-0.59384-0.57032-0.89077-1.3317-0.89076-2.2842-0.00001-1.1112 0.37041-1.9491 1.1112-2.5135 0.74671-0.56444 1.858-0.84666 3.3338-0.84667h2.2754v-0.15875c0-0.7467-0.24695-1.3229-0.74083-1.7286-0.48801-0.41156-1.1759-0.61735-2.0638-0.61736-0.56444 0.000008-1.1142 0.06762-1.6492 0.20285-0.53505 0.13524-1.0495 0.33809-1.5434 0.60854v-1.4993c0.59384-0.2293 1.17-0.3998 1.7286-0.51153 0.55856-0.11758 1.1024-0.17638 1.6316-0.17639 1.4288 0.00001 2.4959 0.37043 3.2015 1.1112 0.70554 0.74084 1.0583 1.8638 1.0583 3.369"/>
  <path id="path3176" style="" d="m356.68 17.136v1.5346c-0.45862-0.23518-0.93487-0.41157-1.4288-0.52917-0.49389-0.11758-1.0054-0.17638-1.5346-0.17639-0.80551 0.000009-1.4111 0.12348-1.8168 0.37042-0.39982 0.24695-0.59973 0.61737-0.59972 1.1112-0.00001 0.3763 0.14404 0.67322 0.43215 0.89076 0.2881 0.21167 0.86724 0.41452 1.7374 0.60854l0.55562 0.12347c1.1524 0.24695 1.9697 0.59679 2.4518 1.0495 0.488 0.44686 0.73201 1.073 0.73202 1.8785-0.00001 0.91722-0.36455 1.6434-1.0936 2.1784-0.7232 0.53504-1.7198 0.80257-2.9898 0.80257-0.52917 0-1.0819-0.05292-1.658-0.15875-0.57033-0.09995-1.173-0.25282-1.808-0.45861v-1.6757c0.59972 0.31162 1.1906 0.54681 1.7727 0.70556 0.58208 0.15287 1.1583 0.22931 1.7286 0.2293 0.76434 0.000001 1.3523-0.12935 1.7639-0.38806 0.41157-0.26458 0.61736-0.635 0.61736-1.1112 0-0.44097-0.14993-0.77905-0.44979-1.0142-0.29398-0.23518-0.94368-0.46155-1.9491-0.6791l-0.56445-0.13229c-1.0054-0.21166-1.7316-0.53504-2.1784-0.97014-0.44685-0.44097-0.67027-1.0436-0.67027-1.808 0-0.92897 0.32925-1.6463 0.98777-2.1519 0.65852-0.50564 1.5934-0.75846 2.8046-0.75847 0.59972 0.00001 1.1642 0.04411 1.6933 0.13229 0.52916 0.08821 1.0172 0.2205 1.464 0.39688"/>
  <path id="path3178" style="" d="m368.01 20.761v5.9619h-1.6228v-5.909c-0.00001-0.93485-0.18228-1.6345-0.54681-2.099-0.36454-0.46448-0.91135-0.69673-1.6404-0.69674-0.87607 0.000009-1.5669 0.27929-2.0726 0.83785-0.50565 0.55857-0.75847 1.32-0.75847 2.2842v5.5827h-1.6316v-13.723h1.6316v5.3799c0.38805-0.59383 0.84372-1.0377 1.367-1.3317 0.52916-0.29397 1.1377-0.44096 1.8256-0.44097 1.1348 0.00001 1.9932 0.35279 2.5753 1.0583 0.58207 0.69968 0.87311 1.7316 0.87312 3.0956"/>
  <path id="path3180" style="" d="m375.16 13.018c-0.78787 1.3523-1.3729 2.6899-1.7551 4.0128-0.38218 1.3229-0.57327 2.6635-0.57327 4.0217s0.19109 2.7046 0.57327 4.0393c0.38805 1.3288 0.97307 2.6664 1.7551 4.0128h-1.4111c-0.88194-1.3817-1.5434-2.7399-1.9844-4.0746-0.43509-1.3347-0.65264-2.6605-0.65264-3.9776 0-1.3111 0.21755-2.6311 0.65264-3.9599s1.0966-2.687 1.9844-4.0746h1.4111"/>
  <path id="path3182" style="" d="m378.06 13.018h1.4111c0.88194 1.3876 1.5405 2.7458 1.9756 4.0746 0.44097 1.3288 0.66145 2.6488 0.66146 3.9599-0.00001 1.317-0.22049 2.6429-0.66146 3.9776-0.43509 1.3347-1.0936 2.6929-1.9756 4.0746h-1.4111c0.78199-1.3464 1.3641-2.684 1.7462-4.0128 0.38805-1.3347 0.58208-2.6811 0.58208-4.0393s-0.19403-2.6987-0.58208-4.0217c-0.38218-1.3229-0.96426-2.6605-1.7462-4.0128"/>
  <path id="path3184" style="" d="m385.79 24.483h1.8609v2.2401h-1.8609v-2.2401m0-7.0996h1.8609v2.2401h-1.8609v-2.2401"/>
  <path id="path3186" style="" d="m310.87 35.578h1.6316v8.1051l4.8419-4.2598h2.0726l-5.2387 4.6214 5.4592 5.2564h-2.1167l-5.0182-4.8242v4.8242h-1.6316v-13.723"/>
  <path id="path3188" style="" d="m320.69 45.403v-5.9796h1.6228v5.9178c-0.00001 0.93486 0.18226 1.6375 0.5468 2.1078 0.36453 0.46449 0.91134 0.69674 1.6404 0.69674 0.87605 0.000001 1.5669-0.27928 2.0726-0.83785 0.51152-0.55856 0.76729-1.32 0.76729-2.2842v-5.6003h1.6228v9.8778h-1.6228v-1.5169c-0.39394 0.59972-0.85255 1.0466-1.3758 1.3406-0.51741 0.2881-1.1201 0.43215-1.808 0.43215-1.1348 0-1.9961-0.35278-2.5841-1.0583-0.58796-0.70555-0.88194-1.7374-0.88194-3.0956m4.0834-6.2177"/>
  <path id="path3190" style="" d="m332.32 35.578h1.6228v13.723h-1.6228v-13.723"/>
  <path id="path3192" style="" d="m344.44 39.802v1.5169c-0.45862-0.25282-0.92017-0.44096-1.3846-0.56444-0.45862-0.12934-0.92311-0.19402-1.3935-0.19403-1.0525 0.000008-1.8697 0.33515-2.4518 1.0054-0.58208 0.6644-0.87312 1.5993-0.87312 2.8046s0.29104 2.1431 0.87312 2.8134c0.58208 0.6644 1.3994 0.9966 2.4518 0.9966 0.47036 0.000001 0.93485-0.06173 1.3935-0.18521 0.46448-0.12935 0.92603-0.32044 1.3846-0.57326v1.4993c-0.45274 0.21167-0.92311 0.37042-1.4111 0.47625-0.48214 0.10583-0.9966 0.15875-1.5434 0.15875-1.4876 0-2.6694-0.46743-3.5454-1.4023-0.87606-0.93486-1.3141-2.196-1.3141-3.7835 0-1.611 0.44097-2.8781 1.3229-3.8012 0.88782-0.92309 2.102-1.3846 3.6424-1.3847 0.49976 0.00001 0.98777 0.05293 1.464 0.15875 0.47624 0.09996 0.93779 0.25283 1.3846 0.45861"/>
  <path id="path3194" style="" d="m353.58 39.714v1.5346c-0.45862-0.23518-0.93487-0.41156-1.4288-0.52917-0.49389-0.11758-1.0054-0.17638-1.5346-0.17639-0.80551 0.000008-1.4111 0.12348-1.8168 0.37042-0.39982 0.24695-0.59973 0.61737-0.59973 1.1112 0 0.3763 0.14405 0.67322 0.43216 0.89076 0.2881 0.21167 0.86724 0.41452 1.7374 0.60854l0.55562 0.12347c1.1524 0.24695 1.9697 0.59679 2.4518 1.0495 0.488 0.44686 0.73201 1.073 0.73202 1.8785-0.00001 0.91722-0.36455 1.6434-1.0936 2.1784-0.7232 0.53504-1.7198 0.80257-2.9898 0.80257-0.52917 0-1.0819-0.05292-1.6581-0.15875-0.57032-0.09995-1.173-0.25282-1.808-0.45861v-1.6757c0.59972 0.31162 1.1906 0.54681 1.7727 0.70556 0.58208 0.15287 1.1583 0.22931 1.7286 0.2293 0.76434 0.000001 1.3523-0.12935 1.7639-0.38806 0.41157-0.26458 0.61736-0.635 0.61736-1.1112 0-0.44097-0.14993-0.77905-0.44979-1.0142-0.29399-0.23518-0.94368-0.46155-1.9491-0.6791l-0.56445-0.13229c-1.0054-0.21166-1.7316-0.53504-2.1784-0.97014-0.44685-0.44097-0.67028-1.0436-0.67027-1.808-0.00001-0.92897 0.32925-1.6463 0.98777-2.1519 0.65852-0.50564 1.5934-0.75846 2.8046-0.75847 0.59972 0.00001 1.1642 0.04411 1.6933 0.13229 0.52916 0.08821 1.0172 0.2205 1.464 0.39688"/>
  <path id="path3196" style="" d="m368.13 43.506c-0.51154 0.000006-0.9143 0.21755-1.2083 0.65264-0.28811 0.4351-0.43216 1.0407-0.43215 1.8168-0.00001 0.76435 0.14404 1.367 0.43215 1.808 0.29397 0.43509 0.69673 0.65264 1.2083 0.65264 0.49975 0.000001 0.89368-0.21754 1.1818-0.65264 0.29397-0.44097 0.44096-1.0436 0.44097-1.808-0.00001-0.77023-0.147-1.3729-0.44097-1.808-0.28812-0.44097-0.68205-0.66145-1.1818-0.66146m0-1.1201c0.92896 0.000007 1.6668 0.32339 2.2137 0.97014 0.54679 0.64676 0.82019 1.5199 0.82021 2.6194-0.00002 1.0995-0.27636 1.9726-0.82903 2.6194-0.54682 0.64088-1.2818 0.96132-2.2048 0.96132-0.94076 0-1.6845-0.32044-2.2313-0.96132-0.54682-0.64676-0.82022-1.5199-0.82021-2.6194-0.00001-1.1054 0.27339-1.9785 0.82021-2.6194 0.55267-0.64675 1.2964-0.97013 2.2313-0.97014m-9.1017-5.371c-0.50565 0.000012-0.90547 0.2205-1.1994 0.66146-0.28811 0.4351-0.43216 1.0348-0.43216 1.7992 0 0.77612 0.14405 1.3817 0.43216 1.8168 0.28809 0.4351 0.68791 0.65264 1.1994 0.65264 0.51152 0.000007 0.91134-0.21754 1.1994-0.65264 0.29398-0.43508 0.44097-1.0407 0.44097-1.8168 0-0.75846-0.14699-1.3582-0.44097-1.7992-0.29398-0.44096-0.6938-0.66145-1.1994-0.66146m7.964-1.1201h1.4111l-8.2374 13.661h-1.4111l8.2374-13.661m-7.964 0c0.92897 0.000013 1.6698 0.32339 2.2225 0.97014 0.55267 0.64089 0.82902 1.5111 0.82902 2.6106 0 1.1113-0.27635 1.9873-0.82902 2.6282-0.54681 0.64089-1.2876 0.96132-2.2225 0.96132-0.93486 0.000006-1.6757-0.32043-2.2225-0.96132-0.54092-0.64675-0.81139-1.5228-0.81139-2.6282 0-1.0936 0.27341-1.9638 0.82021-2.6106 0.5468-0.64675 1.2847-0.97012 2.2137-0.97014"/>
  <path id="path3198" style="" d="m374.42 47.802h2.9104v-10.045l-3.1662 0.635v-1.6228l3.1485-0.635h1.7815v11.668h2.9104v1.4993h-7.5847v-1.4993"/>
  <path id="path3200" style="" d="m389.42 37.306c-0.91723 0.000012-1.6081 0.45274-2.0726 1.3582-0.45861 0.89959-0.68792 2.2548-0.68792 4.0658 0 1.805 0.22931 3.1603 0.68792 4.0658 0.46449 0.89958 1.1553 1.3494 2.0726 1.3494 0.92309 0.000001 1.614-0.44979 2.0726-1.3494 0.46449-0.90546 0.69673-2.2607 0.69674-4.0658-0.00001-1.8109-0.23225-3.1662-0.69674-4.0658-0.45861-0.90545-1.1495-1.3582-2.0726-1.3582m0-1.4111c1.4758 0.000013 2.6017 0.58504 3.3778 1.7551 0.78198 1.1642 1.173 2.8575 1.173 5.08-0.00001 2.2166-0.391 3.91-1.173 5.08-0.77612 1.1642-1.9021 1.7462-3.3778 1.7462-1.4758 0-2.6047-0.58208-3.3867-1.7462-0.77611-1.17-1.1642-2.8634-1.1642-5.08 0-2.2225 0.38805-3.9158 1.1642-5.08 0.78199-1.17 1.9109-1.7551 3.3867-1.7551"/>
  <path id="path3202" style="" d="m400.92 37.306c-0.91723 0.000012-1.6081 0.45274-2.0726 1.3582-0.45861 0.89959-0.68792 2.2548-0.68791 4.0658-0.00001 1.805 0.2293 3.1603 0.68791 4.0658 0.46449 0.89958 1.1553 1.3494 2.0726 1.3494 0.92309 0.000001 1.614-0.44979 2.0726-1.3494 0.46448-0.90546 0.69672-2.2607 0.69673-4.0658-0.00001-1.8109-0.23225-3.1662-0.69673-4.0658-0.45862-0.90545-1.1495-1.3582-2.0726-1.3582m0-1.4111c1.4758 0.000013 2.6017 0.58504 3.3778 1.7551 0.78198 1.1642 1.173 2.8575 1.173 5.08-0.00001 2.2166-0.39101 3.91-1.173 5.08-0.77612 1.1642-1.9021 1.7462-3.3778 1.7462-1.4758 0-2.6047-0.58208-3.3867-1.7462-0.77612-1.17-1.1642-2.8634-1.1642-5.08 0-2.2225 0.38805-3.9158 1.1642-5.08 0.78198-1.17 1.9109-1.7551 3.3867-1.7551"/>
 </g>
 <g id="g88" transform="translate(-2.0461 -3.277)">
  <path id="rect90" fill="#a3bbcc" d="m420 260h120v40h-120z"/>
  <path id="rect92" d="m420 260h120v40h-120z" stroke="#000" stroke-width="2" fill="none"/>
  <g id="text94">
   <path id="path3207" style="" d="m458.98 285.24v-1.6228c0.44685 0.21167 0.89958 0.37336 1.3582 0.48507 0.45861 0.11171 0.9084 0.16757 1.3494 0.16757 1.1759 0 2.0726-0.39394 2.6899-1.1818 0.62323-0.79374 0.97895-1.9961 1.0672-3.6072-0.34102 0.50566-0.77317 0.89371-1.2964 1.1642-0.5233 0.27047-1.1024 0.4057-1.7374 0.40569-1.317 0.00001-2.3607-0.39687-3.1309-1.1906-0.76435-0.79962-1.1465-1.8903-1.1465-3.272 0-1.3523 0.39982-2.4371 1.1994-3.2544 0.79962-0.81726 1.8638-1.2259 3.1926-1.2259 1.5228 0.00001 2.684 0.58503 3.4837 1.7551 0.8055 1.1642 1.2082 2.8575 1.2083 5.08-0.00001 2.0755-0.4939 3.7336-1.4817 4.9742-0.98191 1.2347-2.3048 1.8521-3.9688 1.8521-0.44686 0-0.89959-0.0441-1.3582-0.13229-0.45862-0.0882-0.93487-0.22049-1.4288-0.39688m3.5454-5.5827c0.79962 0.00001 1.4317-0.27339 1.8962-0.82021 0.47036-0.54679 0.70555-1.2964 0.70555-2.249 0-0.94661-0.23519-1.6933-0.70555-2.2401-0.4645-0.55267-1.0966-0.82901-1.8962-0.82902-0.79963 0.00001-1.4346 0.27635-1.905 0.82902-0.46449 0.54682-0.69673 1.2935-0.69673 2.2401 0 0.95251 0.23224 1.7022 0.69673 2.249 0.47037 0.54682 1.1054 0.82022 1.905 0.82021"/>
   <path id="path3209" style="" d="m470.48 285.24v-1.6228c0.44685 0.21167 0.89958 0.37336 1.3582 0.48507 0.45861 0.11171 0.9084 0.16757 1.3494 0.16757 1.1759 0 2.0726-0.39394 2.6899-1.1818 0.62324-0.79374 0.97895-1.9961 1.0672-3.6072-0.34103 0.50566-0.77318 0.89371-1.2965 1.1642-0.52329 0.27047-1.1024 0.4057-1.7374 0.40569-1.317 0.00001-2.3607-0.39687-3.1309-1.1906-0.76435-0.79962-1.1465-1.8903-1.1465-3.272-0.00001-1.3523 0.39981-2.4371 1.1994-3.2544 0.79962-0.81726 1.8638-1.2259 3.1926-1.2259 1.5228 0.00001 2.684 0.58503 3.4837 1.7551 0.8055 1.1642 1.2082 2.8575 1.2083 5.08-0.00001 2.0755-0.4939 3.7336-1.4817 4.9742-0.98191 1.2347-2.3048 1.8521-3.9688 1.8521-0.44685 0-0.89958-0.0441-1.3582-0.13229-0.45861-0.0882-0.93486-0.22049-1.4288-0.39688m3.5454-5.5827c0.79963 0.00001 1.4317-0.27339 1.8962-0.82021 0.47036-0.54679 0.70555-1.2964 0.70556-2.249-0.00001-0.94661-0.2352-1.6933-0.70556-2.2401-0.4645-0.55267-1.0966-0.82901-1.8962-0.82902-0.79963 0.00001-1.4346 0.27635-1.905 0.82902-0.4645 0.54682-0.69674 1.2935-0.69674 2.2401 0 0.95251 0.23224 1.7022 0.69674 2.249 0.47036 0.54682 1.1054 0.82022 1.905 0.82021"/>
   <path id="path3211" style="" d="m481.95 272.34h6.9938v1.4993h-5.3622v3.2279c0.2587-0.0882 0.5174-0.15286 0.77611-0.19403 0.2587-0.047 0.5174-0.0705 0.77611-0.0705 1.4699 0 2.6341 0.40276 3.4925 1.2083 0.85841 0.80551 1.2876 1.8962 1.2876 3.272-0.00001 1.417-0.44098 2.5194-1.3229 3.3073-0.88195 0.78199-2.1255 1.173-3.7306 1.173-0.55269 0-1.1171-0.047-1.6933-0.14111-0.57033-0.0941-1.1612-0.23519-1.7727-0.42333v-1.7904c0.52916 0.2881 1.076 0.50271 1.6404 0.64382 0.56444 0.14111 1.1612 0.21167 1.7903 0.21167 1.0172 0 1.8227-0.26753 2.4165-0.80257 0.59383-0.53505 0.89075-1.2612 0.89076-2.1784-0.00001-0.91722-0.29693-1.6434-0.89076-2.1784-0.59385-0.53504-1.3994-0.80256-2.4165-0.80257-0.47625 0.00001-0.9525 0.0529-1.4288 0.15875-0.47037 0.10584-0.9525 0.27047-1.4464 0.49389v-6.6146"/>
   <path id="path3213" style="" d="m492.98 272.34h8.4666v0.75847l-4.7801 12.409h-1.8609l4.4979-11.668h-6.3235v-1.4993"/>
  </g>
 </g>
 <g id="g98" transform="translate(-2.0461 -3.277)">
  <path id="rect100" fill="#a3bbcc" d="m420 300h120v40h-120z"/>
  <path id="rect102" d="m420 300h120v40h-120z" stroke="#000" stroke-width="2" fill="none"/>
  <g id="text104">
   <path id="path3218" style="" d="m453.49 324.01h2.9104v-10.045l-3.1662 0.635v-1.6228l3.1485-0.635h1.7815v11.668h2.9104v1.4993h-7.5847v-1.4993"/>
   <path id="path3220" style="" d="m470.08 318.41c0.85253 0.18228 1.5169 0.56151 1.9932 1.1377 0.48212 0.57621 0.72318 1.2876 0.72319 2.1343-0.00001 1.2994-0.44686 2.3048-1.3406 3.0162-0.89371 0.71143-2.1637 1.0672-3.81 1.0672-0.55269 0-1.123-0.0559-1.711-0.16757-0.58208-0.10583-1.1847-0.26752-1.808-0.48507v-1.7198c0.49389 0.28811 1.0348 0.50565 1.6228 0.65264 0.58796 0.14699 1.2024 0.22049 1.8433 0.22049 1.1171 0 1.9667-0.22049 2.5488-0.66146 0.58796-0.44097 0.88194-1.0818 0.88195-1.9226-0.00001-0.7761-0.27341-1.3817-0.82021-1.8168-0.54093-0.44097-1.2965-0.66145-2.2666-0.66146h-1.5346v-1.464h1.6051c0.87606 0 1.5463-0.17345 2.0108-0.52035 0.46448-0.35277 0.69673-0.85842 0.69674-1.5169-0.00001-0.67615-0.24108-1.1936-0.7232-1.5522-0.47625-0.36453-1.1612-0.5468-2.0549-0.54681-0.48801 0.00001-1.0113 0.0529-1.5698 0.15875-0.55857 0.10585-1.173 0.27047-1.8433 0.49389v-1.5875c0.67616-0.18813 1.3082-0.32925 1.8962-0.42333 0.59384-0.0941 1.1524-0.1411 1.6757-0.14111 1.3523 0.00001 2.4224 0.30869 3.2103 0.92604 0.78786 0.61149 1.1818 1.4405 1.1818 2.4871-0.00001 0.72908-0.20873 1.3464-0.62618 1.8521-0.41746 0.49977-1.0113 0.84667-1.7815 1.0407"/>
   <path id="path3222" style="" d="m481.08 313.9-4.4979 7.0291h4.4979v-7.0291m-0.46743-1.5522h2.2401v8.5813h1.8785v1.4817h-1.8785v3.1044h-1.7727v-3.1044h-5.9443v-1.7198l5.4769-8.3432"/>
   <path id="path3224" style="" d="m487.7 312.34h6.9938v1.4993h-5.3622v3.2279c0.2587-0.0882 0.5174-0.15286 0.77611-0.19403 0.2587-0.047 0.5174-0.0705 0.77611-0.0705 1.4699 0 2.6341 0.40276 3.4925 1.2083 0.85841 0.80551 1.2876 1.8962 1.2876 3.272-0.00001 1.417-0.44098 2.5194-1.3229 3.3073-0.88195 0.78199-2.1255 1.173-3.7306 1.173-0.55269 0-1.1171-0.047-1.6933-0.14111-0.57033-0.0941-1.1612-0.23519-1.7727-0.42333v-1.7904c0.52917 0.2881 1.076 0.50271 1.6404 0.64382 0.56444 0.14111 1.1612 0.21167 1.7903 0.21167 1.0172 0 1.8227-0.26753 2.4165-0.80257 0.59383-0.53505 0.89075-1.2612 0.89076-2.1784-0.00001-0.91722-0.29693-1.6434-0.89076-2.1784-0.59385-0.53504-1.3994-0.80256-2.4165-0.80257-0.47625 0.00001-0.9525 0.0529-1.4288 0.15875-0.47037 0.10584-0.9525 0.27047-1.4464 0.49389v-6.6146"/>
   <path id="path3226" style="" d="m498.73 312.34h8.4666v0.75847l-4.7801 12.409h-1.8609l4.4979-11.668h-6.3235v-1.4993"/>
  </g>
 </g>
 <g id="g108" transform="translate(-2.0461 -3.277)">
  <path id="rect110" fill="#a3bbcc" d="m420 140h120v40h-120z"/>
  <path id="rect112" d="m420 140h120v40h-120z" stroke="#000" stroke-width="2" fill="none"/>
  <g id="text114">
   <path id="path3231" style="" d="m459.24 164.01h2.9104v-10.045l-3.1662 0.635v-1.6228l3.1485-0.635h1.7815v11.668h2.9104v1.4993h-7.5847v-1.4993"/>
   <path id="path3233" style="" d="m474.24 153.52c-0.91723 0.00001-1.6081 0.45274-2.0726 1.3582-0.45861 0.8996-0.68792 2.2548-0.68791 4.0658-0.00001 1.805 0.2293 3.1603 0.68791 4.0658 0.46449 0.89959 1.1553 1.3494 2.0726 1.3494 0.92309 0 1.614-0.44979 2.0726-1.3494 0.46448-0.90546 0.69672-2.2607 0.69673-4.0658-0.00001-1.8109-0.23225-3.1662-0.69673-4.0658-0.45862-0.90545-1.1495-1.3582-2.0726-1.3582m0-1.4111c1.4758 0.00002 2.6017 0.58504 3.3778 1.7551 0.78198 1.1642 1.173 2.8575 1.173 5.08-0.00001 2.2166-0.39101 3.91-1.173 5.08-0.77612 1.1642-1.9021 1.7462-3.3778 1.7462-1.4758-0.00001-2.6047-0.58209-3.3867-1.7462-0.77611-1.17-1.1642-2.8634-1.1642-5.08 0-2.2225 0.38806-3.9158 1.1642-5.08 0.78198-1.17 1.9109-1.755 3.3867-1.7551"/>
   <path id="path3235" style="" d="m483.47 164.01h6.2177v1.4993h-8.3608v-1.4993c0.67616-0.69968 1.5963-1.6375 2.7605-2.8134 1.17-1.1818 1.905-1.9432 2.2049-2.2842 0.57031-0.64088 0.96719-1.1818 1.1906-1.6228 0.2293-0.44684 0.34395-0.88487 0.34396-1.3141-0.00001-0.69966-0.24695-1.27-0.74083-1.711-0.48802-0.44096-1.126-0.66144-1.9138-0.66145-0.55857 0.00001-1.1495 0.097-1.7727 0.29104-0.61736 0.19404-1.2788 0.48802-1.9844 0.88194v-1.7992c0.71731-0.28809 1.3876-0.50564 2.0108-0.65264 0.62324-0.14698 1.1936-0.22047 1.711-0.22049 1.3641 0.00002 2.4518 0.34103 3.2632 1.0231 0.81138 0.68204 1.2171 1.5934 1.2171 2.734-0.00001 0.54094-0.1029 1.0554-0.30868 1.5434-0.19991 0.48214-0.56739 1.0525-1.1024 1.711-0.147 0.17052-0.61442 0.66441-1.4023 1.4817-0.78787 0.81139-1.8991 1.9491-3.3337 3.4131"/>
   <path id="path3237" style="" d="m498.33 153.9-4.4979 7.0291h4.4979v-7.0291m-0.46743-1.5522h2.2401v8.5813h1.8785v1.4817h-1.8785v3.1044h-1.7727v-3.1044h-5.9443v-1.7198l5.4769-8.3432"/>
  </g>
 </g>
 <g id="g118" transform="translate(-2.0461 -3.277)">
  <path id="rect120" fill="#fff" d="m420 100h120v40h-120z"/>
  <path id="rect122" d="m420 100h120v40h-120z" stroke="#000" stroke-width="2" fill="none"/>
 </g>
 <g id="g128" transform="translate(-2.0461 -3.277)">
  <path id="rect130" fill="#fff" d="m420 60h120v40h-120z"/>
  <path id="rect132" d="m420 60h120v40h-120z" stroke="#000" stroke-width="2" fill="none"/>
 </g>
 <g id="g138" transform="translate(-2.0461 -3.277)">
  <path id="rect140" fill="#fff" d="m420 180h120v40h-120z"/>
  <path id="rect142" d="m420 180h120v40h-120z" stroke="#000" stroke-width="2" fill="none"/>
 </g>
 <g id="g148" transform="translate(-2.0461 -3.277)">
  <path id="rect150" fill="#a3bbcc" d="m420 340h120v40h-120z"/>
  <path id="rect152" d="m420 340h120v40h-120z" stroke="#000" stroke-width="2" fill="none"/>
  <g id="text154">
   <path id="path3251" style="" d="m463.83 353.9-4.4979 7.0291h4.4979v-7.0291m-0.46743-1.5522h2.2401v8.5813h1.8785v1.4817h-1.8785v3.1044h-1.7727v-3.1044h-5.9443v-1.7198l5.4769-8.3432"/>
   <path id="path3253" style="" d="m475.33 353.9-4.4979 7.0291h4.4979v-7.0291m-0.46743-1.5522h2.2401v8.5813h1.8785v1.4817h-1.8785v3.1044h-1.7727v-3.1044h-5.9443v-1.7198l5.4769-8.3432"/>
   <path id="path3255" style="" d="m481.95 352.34h6.9938v1.4993h-5.3622v3.2279c0.2587-0.0882 0.5174-0.15286 0.77611-0.19403 0.2587-0.047 0.5174-0.0705 0.77611-0.0705 1.4699 0 2.6341 0.40276 3.4925 1.2083 0.85841 0.80551 1.2876 1.8962 1.2876 3.272-0.00001 1.417-0.44098 2.5194-1.3229 3.3073-0.88195 0.78199-2.1255 1.173-3.7306 1.173-0.55269 0-1.1171-0.047-1.6933-0.14111-0.57033-0.0941-1.1612-0.23519-1.7727-0.42333v-1.7904c0.52916 0.2881 1.076 0.50271 1.6404 0.64382 0.56444 0.14111 1.1612 0.21167 1.7903 0.21167 1.0172 0 1.8227-0.26753 2.4165-0.80257 0.59383-0.53505 0.89075-1.2612 0.89076-2.1784-0.00001-0.91722-0.29693-1.6434-0.89076-2.1784-0.59385-0.53504-1.3994-0.80256-2.4165-0.80257-0.47625 0.00001-0.9525 0.0529-1.4288 0.15875-0.47037 0.10584-0.9525 0.27047-1.4464 0.49389v-6.6146"/>
   <path id="path3257" style="" d="m497.24 359.26c-0.84667 0-1.514 0.22637-2.002 0.67909-0.48213 0.45274-0.7232 1.076-0.72319 1.8697-0.00001 0.79376 0.24106 1.417 0.72319 1.8697 0.48801 0.45274 1.1553 0.6791 2.002 0.6791 0.84666 0 1.514-0.22636 2.002-0.6791 0.488-0.4586 0.73201-1.0818 0.73202-1.8697-0.00001-0.79374-0.24402-1.417-0.73202-1.8697-0.48213-0.45272-1.1495-0.67909-2.002-0.67909m-1.7815-0.75847c-0.76436-0.18814-1.3611-0.54386-1.7904-1.0672-0.42333-0.52327-0.635-1.1612-0.635-1.9138 0-1.0524 0.37336-1.8844 1.1201-2.4959 0.75259-0.61147 1.7815-0.91721 3.0868-0.91722 1.3112 0.00001 2.3401 0.30575 3.0868 0.91722 0.74671 0.61149 1.1201 1.4435 1.1201 2.4959-0.00001 0.7526-0.21461 1.3905-0.64382 1.9138-0.42334 0.5233-1.0142 0.87902-1.7727 1.0672 0.85841 0.19991 1.5258 0.5909 2.002 1.173 0.48212 0.58209 0.72318 1.2935 0.72319 2.1343-0.00001 1.2759-0.391 2.2548-1.173 2.9369-0.77612 0.68203-1.8903 1.023-3.3426 1.023s-2.5694-0.34102-3.3514-1.023c-0.77611-0.68204-1.1642-1.661-1.1642-2.9369 0-0.84078 0.24107-1.5522 0.7232-2.1343 0.48212-0.58208 1.1524-0.97307 2.0108-1.173m-0.65264-2.8134c0 0.68204 0.21166 1.2142 0.635 1.5963 0.42921 0.38219 1.0289 0.57328 1.7992 0.57327 0.76435 0.00001 1.3611-0.19108 1.7904-0.57327 0.43508-0.38216 0.65263-0.91427 0.65264-1.5963-0.00001-0.68203-0.21756-1.2141-0.65264-1.5963-0.42922-0.38216-1.026-0.57325-1.7904-0.57326-0.77023 0.00001-1.37 0.1911-1.7992 0.57326-0.42334 0.38219-0.635 0.91429-0.635 1.5963"/>
  </g>
 </g>
 <g id="g158" transform="translate(-2.0461 -3.277)">
  <path id="rect160" fill="#fff" d="m420 380h120v40h-120z"/>
  <path id="rect162" d="m420 380h120v40h-120z" stroke="#000" stroke-width="2" fill="none"/>
 </g>
 <g id="g168" transform="translate(-2.0461 -3.277)">
  <path id="rect170" fill="#fff" d="m200 320h100v40h-100z"/>
  <path id="rect172" d="m200 320h100v40h-100z" stroke="#000" stroke-width="2" fill="none"/>
  <g id="text174">
   <path id="path3265" style="" d="m233.83 333.9-4.4979 7.0291h4.4979v-7.0291m-0.46743-1.5522h2.2401v8.5813h1.8785v1.4817h-1.8785v3.1044h-1.7727v-3.1044h-5.9443v-1.7198l5.4769-8.3432"/>
   <path id="path3267" style="" d="m245.33 333.9-4.4979 7.0291h4.4979v-7.0291m-0.46743-1.5522h2.2401v8.5813h1.8785v1.4817h-1.8785v3.1044h-1.7727v-3.1044h-5.9443v-1.7198l5.4769-8.3432"/>
   <path id="path3269" style="" d="m251.95 332.34h6.9938v1.4993h-5.3622v3.2279c0.2587-0.0882 0.5174-0.15286 0.77611-0.19403 0.2587-0.047 0.5174-0.0705 0.77611-0.0705 1.4699 0 2.6341 0.40276 3.4925 1.2083 0.85841 0.80551 1.2876 1.8962 1.2876 3.272-0.00001 1.417-0.44098 2.5194-1.3229 3.3073-0.88195 0.78199-2.1255 1.173-3.7306 1.173-0.55269 0-1.1171-0.047-1.6933-0.14111-0.57033-0.0941-1.1612-0.23519-1.7727-0.42333v-1.7904c0.52916 0.2881 1.076 0.50271 1.6404 0.64382 0.56444 0.14111 1.1612 0.21167 1.7903 0.21167 1.0172 0 1.8227-0.26753 2.4165-0.80257 0.59383-0.53505 0.89075-1.2612 0.89076-2.1784-0.00001-0.91722-0.29693-1.6434-0.89076-2.1784-0.59385-0.53504-1.3994-0.80256-2.4165-0.80257-0.47625 0.00001-0.9525 0.0529-1.4288 0.15875-0.47037 0.10584-0.9525 0.27047-1.4464 0.49389v-6.6146"/>
   <path id="path3271" style="" d="m267.24 339.26c-0.84667 0-1.514 0.22637-2.002 0.67909-0.48213 0.45274-0.7232 1.076-0.72319 1.8697-0.00001 0.79376 0.24106 1.417 0.72319 1.8697 0.48801 0.45274 1.1553 0.6791 2.002 0.6791 0.84666 0 1.514-0.22636 2.002-0.6791 0.488-0.4586 0.73201-1.0818 0.73202-1.8697-0.00001-0.79374-0.24402-1.417-0.73202-1.8697-0.48213-0.45272-1.1495-0.67909-2.002-0.67909m-1.7815-0.75847c-0.76436-0.18814-1.3611-0.54386-1.7904-1.0672-0.42333-0.52327-0.635-1.1612-0.635-1.9138 0-1.0524 0.37336-1.8844 1.1201-2.4959 0.75259-0.61147 1.7815-0.91721 3.0868-0.91722 1.3112 0.00001 2.3401 0.30575 3.0868 0.91722 0.74671 0.61149 1.1201 1.4435 1.1201 2.4959-0.00001 0.7526-0.21461 1.3905-0.64382 1.9138-0.42334 0.5233-1.0142 0.87902-1.7727 1.0672 0.85841 0.19991 1.5258 0.5909 2.002 1.173 0.48212 0.58209 0.72318 1.2935 0.72319 2.1343-0.00001 1.2759-0.391 2.2548-1.173 2.9369-0.77612 0.68203-1.8903 1.023-3.3426 1.023s-2.5694-0.34102-3.3514-1.023c-0.77611-0.68204-1.1642-1.661-1.1642-2.9369 0-0.84078 0.24107-1.5522 0.7232-2.1343 0.48212-0.58208 1.1524-0.97307 2.0108-1.173m-0.65264-2.8134c0 0.68204 0.21166 1.2142 0.635 1.5963 0.42921 0.38219 1.0289 0.57328 1.7992 0.57327 0.76435 0.00001 1.3611-0.19108 1.7904-0.57327 0.43508-0.38216 0.65263-0.91427 0.65264-1.5963-0.00001-0.68203-0.21756-1.2141-0.65264-1.5963-0.42922-0.38216-1.026-0.57325-1.7904-0.57326-0.77023 0.00001-1.37 0.1911-1.7992 0.57326-0.42334 0.38219-0.635 0.91429-0.635 1.5963"/>
  </g>
 </g>
 <g id="g178" stroke="#000" stroke-width="2" fill="none" transform="translate(-2.0461 -3.277)">
  <path id="polyline180" d="m300 340h60l55.757-18.586"/>
  <path id="polyline182" d="m409.97 328.61 7.906-7.906-11.068-1.581"/>
 </g>
 <path id="line184" d="m417.95 216.72v16" stroke="#000" stroke-width="2" fill="none"/>
 <path id="line186" d="m417.95 237.72v19" stroke="#000" stroke-width="2" fill="none"/>
 <path id="line188" d="m537.95 216.72v16" stroke="#000" stroke-width="2" fill="none"/>
 <path id="line190" d="m537.95 236.72v20" stroke="#000" stroke-width="2" fill="none"/>
 <path id="line192" d="m409.95 236.72 4 2" stroke="#000" fill="none"/>
 <path id="line194" d="m413.95 238.72 8-2" stroke="#000" fill="none"/>
 <path id="line196" d="m421.95 236.72 4 2.75" stroke="#000" fill="none"/>
 <path id="line198" d="m409.95 231.52 4 2" stroke="#000" fill="none"/>
 <path id="line200" d="m413.95 233.52 8-2" stroke="#000" fill="none"/>
 <path id="line202" d="m421.95 231.52 4 2.75" stroke="#000" fill="none"/>
 <path id="line204" d="m529.95 236.32 4 2" stroke="#000" fill="none"/>
 <path id="line206" d="m533.95 238.32 8-2" stroke="#000" fill="none"/>
 <path id="line208" d="m541.95 236.32 4 2.75" stroke="#000" fill="none"/>
 <path id="line210" d="m529.95 231.12 4 2" stroke="#000" fill="none"/>
 <path id="line212" d="m533.95 233.12 8-2" stroke="#000" fill="none"/>
 <path id="line214" d="m541.95 231.12 4 2.75" stroke="#000" fill="none"/>
</svg>
