<?xml version="1.0" encoding="UTF-8" standalone="no"?>
<!-- Created with Inkscape (http://www.inkscape.org/) -->
<svg id="svg2" xmlns:rdf="http://www.w3.org/1999/02/22-rdf-syntax-ns#" xmlns="http://www.w3.org/2000/svg" height="832.94" width="708.21" version="1.1" xmlns:cc="http://creativecommons.org/ns#" xmlns:dc="http://purl.org/dc/elements/1.1/" viewBox="149 13 395.75 458.39406">
 <metadata id="metadata246">
  <rdf:RDF>
   <cc:Work rdf:about="">
    <dc:format>image/svg+xml</dc:format>
    <dc:type rdf:resource="http://purl.org/dc/dcmitype/StillImage"/>
   </cc:Work>
  </rdf:RDF>
 </metadata>
 <g id="g4" transform="translate(0 -6.0799)">
  <path id="rect6" fill="#fff" d="m150 140h150.2v40h-150.2z"/>
  <path id="rect8" d="m150 140h150.2v40h-150.2z" stroke="#000" stroke-width="2" fill="none"/>
  <g id="text10">
   <path id="path3104" style="" d="m157.35 153.3h1.5588v10.21h5.6103v1.3119h-7.1691v-11.521"/>
   <path id="path3106" style="" d="m169.16 157.17c-0.76141 0-1.3633 0.29839-1.8058 0.89517-0.44244 0.59164-0.66366 1.4045-0.66366 2.4386s0.21865 1.8495 0.65595 2.4463c0.44243 0.59164 1.0469 0.88746 1.8135 0.88746 0.75626 0 1.3556-0.29839 1.7981-0.89517 0.44243-0.59678 0.66365-1.4096 0.66366-2.4386-0.00001-1.0238-0.22123-1.8341-0.66366-2.4309-0.44245-0.60191-1.0418-0.90288-1.7981-0.90288m0-1.2038c1.2347 0 2.2045 0.40129 2.9093 1.2038 0.70481 0.80257 1.0572 1.9138 1.0572 3.3337 0 1.4148-0.35241 2.526-1.0572 3.3337-0.70483 0.80257-1.6746 1.2038-2.9093 1.2038-1.2399 0-2.2122-0.40128-2.917-1.2038-0.69968-0.80771-1.0495-1.919-1.0495-3.3337-0.00001-1.4199 0.34983-2.5312 1.0495-3.3337 0.70481-0.80256 1.6772-1.2038 2.917-1.2038"/>
   <path id="path3108" style="" d="m178.82 157.17c-0.76141 0-1.3633 0.29839-1.8058 0.89517-0.44245 0.59164-0.66367 1.4045-0.66366 2.4386-0.00001 1.0341 0.21864 1.8495 0.65594 2.4463 0.44244 0.59164 1.0469 0.88746 1.8135 0.88746 0.75626 0 1.3556-0.29839 1.7981-0.89517 0.44244-0.59678 0.66366-1.4096 0.66366-2.4386 0-1.0238-0.22122-1.8341-0.66366-2.4309-0.44244-0.60191-1.0418-0.90288-1.7981-0.90288m0-1.2038c1.2347 0 2.2045 0.40129 2.9093 1.2038 0.70481 0.80257 1.0572 1.9138 1.0572 3.3337-0.00001 1.4148-0.35242 2.526-1.0572 3.3337-0.70483 0.80257-1.6746 1.2038-2.9093 1.2038-1.2399 0-2.2122-0.40128-2.917-1.2038-0.69967-0.80771-1.0495-1.919-1.0495-3.3337 0-1.4199 0.34984-2.5312 1.0495-3.3337 0.70482-0.80256 1.6772-1.2038 2.917-1.2038"/>
   <path id="path3110" style="" d="m192.31 159.61v5.2167h-1.4199v-5.1704c-0.00001-0.81799-0.15949-1.4302-0.47846-1.8366-0.31897-0.40642-0.79742-0.60964-1.4354-0.60965-0.76656 0.00001-1.371 0.24438-1.8135 0.73312-0.44244 0.48875-0.66366 1.155-0.66366 1.9987v4.8849h-1.4276v-8.643h1.4276v1.3428c0.33954-0.5196 0.73825-0.90802 1.1961-1.1653 0.46302-0.25723 0.99549-0.38585 1.5974-0.38585 0.99291 0 1.744 0.30868 2.2534 0.92604 0.50931 0.61222 0.76398 1.5151 0.76398 2.7087"/>
   <path id="path3112" style="" d="m202.55 160.15v0.69453h-6.5286c0.0617 0.97749 0.35498 1.7235 0.87974 2.2379 0.52989 0.50932 1.2656 0.76398 2.2071 0.76398 0.54532 0 1.0726-0.0669 1.582-0.20064 0.51446-0.13376 1.0238-0.33441 1.528-0.60193v1.3428c-0.50933 0.21607-1.0315 0.3807-1.5666 0.49389-0.53505 0.11318-1.0778 0.16977-1.6283 0.16977-1.3788 0-2.472-0.40128-3.2797-1.2038-0.80257-0.80257-1.2038-1.8881-1.2038-3.2566 0-1.4148 0.3807-2.5363 1.1421-3.3646 0.76655-0.83343 1.7981-1.2502 3.0945-1.2502 1.1627 0 2.081 0.37556 2.755 1.1267 0.67909 0.74598 1.0186 1.762 1.0186 3.0482m-1.4199-0.41672c-0.0103-0.77684-0.22895-1.3968-0.65595-1.8598-0.42187-0.46302-0.98263-0.69453-1.6823-0.69453-0.79228 0-1.4276 0.2238-1.9061 0.67138-0.47331 0.44759-0.74598 1.0778-0.818 1.8907l5.0624-0.008"/>
   <path id="path3114" style="" d="m208.48 165.62c-0.40129 1.0289-0.79229 1.7003-1.173 2.0141-0.38071 0.31382-0.89003 0.47073-1.528 0.47073h-1.1344v-1.1884h0.83344c0.39099 0 0.69452-0.0926 0.9106-0.27781 0.21607-0.18521 0.4553-0.62251 0.71768-1.3119l0.25466-0.64823-3.4958-8.5041h1.5048l2.7009 6.7601 2.701-6.7601h1.5048l-3.7968 9.4456"/>
   <path id="path3116" style="" d="m220.81 167.45v1.1035h-8.2109v-1.1035h8.2109"/>
   <path id="path3118" style="" d="m220.6 153.3h9.7466v1.3119h-4.09v10.21h-1.5666v-10.21h-4.09v-1.3119"/>
   <path id="path3120" style="" d="m229.26 161.41v-5.2321h1.4199v5.1781c0 0.818 0.15949 1.4328 0.47846 1.8444 0.31896 0.40643 0.79742 0.60964 1.4354 0.60964 0.76655 0 1.371-0.24437 1.8135-0.73311 0.44758-0.48874 0.67137-1.155 0.67138-1.9987v-4.9003h1.4199v8.643h-1.4199v-1.3273c-0.3447 0.52476-0.74598 0.91575-1.2038 1.173-0.45274 0.25208-0.98006 0.37813-1.582 0.37813-0.99293 0-1.7466-0.30868-2.2611-0.92604-0.51447-0.61736-0.7717-1.5202-0.7717-2.7087m3.573-5.4405"/>
   <path id="path3122" style="" d="m246.62 159.61v5.2167h-1.4199v-5.1704c0-0.81799-0.15949-1.4302-0.47845-1.8366-0.31898-0.40642-0.79743-0.60964-1.4354-0.60965-0.76656 0.00001-1.3711 0.24438-1.8135 0.73312-0.44245 0.48875-0.66367 1.155-0.66367 1.9987v4.8849h-1.4276v-8.643h1.4276v1.3428c0.33955-0.5196 0.73826-0.90802 1.1961-1.1653 0.46301-0.25723 0.99549-0.38585 1.5974-0.38585 0.99291 0 1.744 0.30868 2.2534 0.92604 0.50931 0.61222 0.76397 1.5151 0.76398 2.7087"/>
   <path id="path3124" style="" d="m256.86 160.15v0.69453h-6.5286c0.0617 0.97749 0.35498 1.7235 0.87974 2.2379 0.5299 0.50932 1.2656 0.76398 2.2071 0.76398 0.54533 0 1.0726-0.0669 1.582-0.20064 0.51446-0.13376 1.0238-0.33441 1.528-0.60193v1.3428c-0.50933 0.21607-1.0315 0.3807-1.5666 0.49389-0.53505 0.11318-1.0778 0.16977-1.6283 0.16977-1.3788 0-2.472-0.40128-3.2797-1.2038-0.80257-0.80257-1.2038-1.8881-1.2038-3.2566 0-1.4148 0.3807-2.5363 1.1421-3.3646 0.76656-0.83343 1.7981-1.2502 3.0945-1.2502 1.1627 0 2.081 0.37556 2.755 1.1267 0.67909 0.74598 1.0186 1.762 1.0186 3.0482m-1.4199-0.41672c-0.0103-0.77684-0.22894-1.3968-0.65594-1.8598-0.42187-0.46302-0.98264-0.69453-1.6823-0.69453-0.79228 0-1.4276 0.2238-1.9061 0.67138-0.47332 0.44759-0.74598 1.0778-0.81801 1.8907l5.0624-0.008"/>
   <path id="path3126" style="" d="m264.7 156.43v1.3428c-0.40129-0.20578-0.818-0.36012-1.2502-0.46302-0.43216-0.10288-0.87974-0.15433-1.3428-0.15434-0.70482 0.00001-1.2347 0.10805-1.5897 0.32412-0.34984 0.21608-0.52475 0.54019-0.52475 0.97234 0 0.32926 0.12604 0.58907 0.37813 0.77941 0.25209 0.18522 0.75883 0.36271 1.5202 0.53248l0.48617 0.10803c1.0084 0.21608 1.7234 0.52219 2.1453 0.91833 0.427 0.39099 0.64051 0.9389 0.64051 1.6437 0 0.80256-0.31897 1.4379-0.9569 1.9061-0.6328 0.46817-1.5048 0.70225-2.6161 0.70225-0.46303 0-0.94663-0.0463-1.4508-0.13891-0.49903-0.0875-1.0264-0.22122-1.582-0.40128v-1.4662c0.52475 0.27267 1.0418 0.47846 1.5511 0.61736 0.50932 0.13376 1.0135 0.20064 1.5125 0.20064 0.6688 0 1.1833-0.11318 1.5434-0.33955 0.36012-0.2315 0.54019-0.55562 0.54019-0.97234 0-0.38584-0.13119-0.68166-0.39357-0.88745-0.25723-0.20578-0.82572-0.40385-1.7054-0.59421l-0.49389-0.11575c-0.87974-0.18521-1.5151-0.46816-1.9061-0.84887-0.39099-0.38585-0.58649-0.91317-0.58649-1.582 0-0.81285 0.2881-1.4405 0.86431-1.8829 0.5762-0.44243 1.3942-0.66366 2.454-0.66366 0.52475 0 1.0186 0.0386 1.4817 0.11575 0.46302 0.0772 0.89002 0.19293 1.281 0.34727"/>
   <path id="path3128" style="" d="m267.63 162.86h1.6283v1.9601h-1.6283v-1.9601"/>
   <path id="path3130" style="" d="m276.39 160.48c-1.1473 0-1.9421 0.13119-2.3846 0.39357-0.44244 0.26238-0.66366 0.70996-0.66366 1.3428 0 0.50418 0.16463 0.90546 0.49389 1.2038 0.3344 0.29325 0.78713 0.43987 1.3582 0.43987 0.78713 0 1.4174-0.27781 1.8907-0.83343 0.47845-0.56077 0.71768-1.3042 0.71768-2.2302v-0.3164h-1.4122m2.8321-0.58649v4.9312h-1.4199v-1.3119c-0.32412 0.52475-0.72797 0.91318-1.2116 1.1653-0.48361 0.24695-1.0752 0.37042-1.7749 0.37042-0.88489 0-1.5897-0.24694-2.1145-0.74083-0.51961-0.49903-0.77942-1.1653-0.77941-1.9987-0.00001-0.97234 0.32411-1.7054 0.97234-2.1994 0.65337-0.49388 1.6257-0.74082 2.917-0.74083h1.991v-0.1389c0-0.65337-0.21608-1.1576-0.64822-1.5125-0.42702-0.36012-1.0289-0.54019-1.8058-0.54019-0.49389 0-0.97492 0.0592-1.4431 0.17749-0.46816 0.11833-0.91832 0.29582-1.3505 0.53247v-1.3119c0.51961-0.20063 1.0238-0.34983 1.5125-0.44758 0.48874-0.10289 0.96462-0.15434 1.4276-0.15434 1.2502 0 2.1839 0.32412 2.8013 0.97234 0.61735 0.64823 0.92603 1.6309 0.92604 2.9479"/>
   <path id="path3132" style="" d="m281.14 156.18h1.5048l2.701 7.254 2.7009-7.254h1.5048l-3.2411 8.643h-1.9292l-3.2411-8.643"/>
   <path id="path3134" style="" d="m291.51 156.18h1.4199v8.643h-1.4199v-8.643m0-3.3646h1.4199v1.7981h-1.4199v-1.7981"/>
  </g>
 </g>
 <g id="g14" transform="translate(0 -6.0799)">
  <path id="rect16" fill="#fff" d="m150 200h150.35v40h-150.35z"/>
  <path id="rect18" d="m150 200h150.35v40h-150.35z" stroke="#000" stroke-width="2" fill="none"/>
  <g id="text20">
   <path id="path3139" style="" d="m158.91 214.58v8.9594h1.883c1.5897 0 2.7524-0.36013 3.4881-1.0804 0.74082-0.72025 1.1112-1.8572 1.1112-3.4109-0.00001-1.5434-0.37042-2.6726-1.1112-3.3878-0.7357-0.72025-1.8984-1.0804-3.4881-1.0804h-1.883m-1.5588-1.281h3.2026c2.2328 0.00001 3.8714 0.4656 4.9157 1.3968 1.0444 0.92605 1.5665 2.3768 1.5666 4.3524-0.00001 1.9858-0.52476 3.4444-1.5743 4.3755-1.0495 0.93118-2.6855 1.3968-4.908 1.3968h-3.2026v-11.521"/>
   <path id="path3141" style="" d="m172.8 217.17c-0.76142 0-1.3633 0.29839-1.8058 0.89517-0.44244 0.59164-0.66366 1.4045-0.66366 2.4386s0.21864 1.8495 0.65594 2.4463c0.44244 0.59164 1.0469 0.88746 1.8135 0.88746 0.75625 0 1.3556-0.29839 1.798-0.89517 0.44244-0.59678 0.66366-1.4096 0.66367-2.4386-0.00001-1.0238-0.22123-1.8341-0.66367-2.4309-0.44244-0.60191-1.0418-0.90288-1.798-0.90288m0-1.2038c1.2347 0 2.2045 0.40129 2.9093 1.2038 0.70481 0.80257 1.0572 1.9138 1.0572 3.3337-0.00001 1.4148-0.35242 2.526-1.0572 3.3337-0.70482 0.80257-1.6746 1.2038-2.9093 1.2038-1.2399 0-2.2122-0.40128-2.917-1.2038-0.69967-0.80771-1.0495-1.919-1.0495-3.3337 0-1.4199 0.34984-2.5312 1.0495-3.3337 0.70482-0.80256 1.6772-1.2038 2.917-1.2038"/>
   <path id="path3143" style="" d="m186.3 219.61v5.2167h-1.4199v-5.1704c-0.00001-0.81799-0.15949-1.4302-0.47846-1.8366-0.31897-0.40642-0.79742-0.60964-1.4354-0.60965-0.76655 0.00001-1.371 0.24438-1.8135 0.73312-0.44244 0.48875-0.66366 1.155-0.66366 1.9987v4.8849h-1.4276v-8.643h1.4276v1.3428c0.33954-0.5196 0.73826-0.90802 1.1961-1.1653 0.46302-0.25723 0.99549-0.38585 1.5974-0.38585 0.99291 0 1.744 0.30868 2.2534 0.92604 0.50932 0.61222 0.76398 1.5151 0.76398 2.7087"/>
   <path id="path3145" style="" d="m193.07 220.48c-1.1473 0-1.9421 0.13119-2.3846 0.39357-0.44244 0.26238-0.66366 0.70996-0.66366 1.3428 0 0.50418 0.16463 0.90546 0.49389 1.2038 0.3344 0.29325 0.78713 0.43987 1.3582 0.43987 0.78713 0 1.4174-0.27781 1.8907-0.83343 0.47845-0.56077 0.71768-1.3042 0.71768-2.2302v-0.3164h-1.4122m2.8321-0.58649v4.9312h-1.4199v-1.3119c-0.32412 0.52475-0.72797 0.91318-1.2116 1.1653-0.48361 0.24695-1.0752 0.37042-1.7749 0.37042-0.88489 0-1.5897-0.24694-2.1145-0.74083-0.51961-0.49903-0.77942-1.1653-0.77942-1.9987 0-0.97234 0.32412-1.7054 0.97235-2.1994 0.65337-0.49388 1.6257-0.74082 2.917-0.74083h1.991v-0.1389c0-0.65337-0.21608-1.1576-0.64822-1.5125-0.42702-0.36012-1.0289-0.54019-1.8058-0.54019-0.49389 0-0.97492 0.0592-1.4431 0.17749-0.46816 0.11833-0.91832 0.29582-1.3505 0.53247v-1.3119c0.51961-0.20063 1.0238-0.34983 1.5125-0.44758 0.48874-0.10289 0.96462-0.15434 1.4276-0.15434 1.2502 0 2.1839 0.32412 2.8013 0.97234 0.61735 0.64823 0.92603 1.6309 0.92604 2.9479"/>
   <path id="path3147" style="" d="m198.84 212.81h1.4199v12.008h-1.4199v-12.008"/>
   <path id="path3149" style="" d="m208.91 217.49v-4.6765h1.4199v12.008h-1.4199v-1.2965c-0.2984 0.51447-0.67653 0.89775-1.1344 1.1498-0.45273 0.24695-0.99807 0.37042-1.636 0.37042-1.0444 0-1.8958-0.41672-2.5543-1.2502-0.65338-0.83344-0.98006-1.9292-0.98006-3.2874s0.32668-2.454 0.98006-3.2874c0.65851-0.83343 1.51-1.2502 2.5543-1.2502 0.63793 0 1.1833 0.12605 1.636 0.37813 0.45787 0.24695 0.836 0.62766 1.1344 1.1421m-4.8386 3.0174c0 1.0444 0.2135 1.8649 0.64051 2.4617 0.43215 0.59164 1.0238 0.88745 1.7749 0.88745 0.75111 0 1.3428-0.29581 1.7749-0.88745 0.43215-0.59678 0.64822-1.4174 0.64823-2.4617-0.00001-1.0444-0.21608-1.8624-0.64823-2.454-0.43215-0.59677-1.0238-0.89516-1.7749-0.89517-0.75113 0.00001-1.3428 0.2984-1.7749 0.89517-0.42701 0.59165-0.64051 1.4096-0.64051 2.454"/>
   <path id="path3151" style="" d="m219.82 227.45v1.1035h-8.2109v-1.1035h8.2109"/>
   <path id="path3153" style="" d="m221.22 213.3h1.5588v4.8694l5.1704-4.8694h2.0064l-5.7183 5.371 6.1273 6.1504h-2.0527l-5.5331-5.5485v5.5485h-1.5588v-11.521"/>
   <path id="path3155" style="" d="m235.18 220.48c-1.1473 0-1.9421 0.13119-2.3846 0.39357-0.44245 0.26238-0.66367 0.70996-0.66367 1.3428 0 0.50418 0.16463 0.90546 0.49389 1.2038 0.3344 0.29325 0.78713 0.43987 1.3582 0.43987 0.78713 0 1.4174-0.27781 1.8907-0.83343 0.47844-0.56077 0.71767-1.3042 0.71768-2.2302v-0.3164h-1.4122m2.8321-0.58649v4.9312h-1.4199v-1.3119c-0.32412 0.52475-0.72798 0.91318-1.2116 1.1653-0.48361 0.24695-1.0752 0.37042-1.7749 0.37042-0.88489 0-1.5897-0.24694-2.1145-0.74083-0.51961-0.49903-0.77941-1.1653-0.77941-1.9987 0-0.97234 0.32411-1.7054 0.97234-2.1994 0.65337-0.49388 1.6257-0.74082 2.917-0.74083h1.991v-0.1389c-0.00001-0.65337-0.21609-1.1576-0.64823-1.5125-0.42701-0.36012-1.0289-0.54019-1.8058-0.54019-0.49389 0-0.97491 0.0592-1.4431 0.17749-0.46816 0.11833-0.91832 0.29582-1.3505 0.53247v-1.3119c0.51961-0.20063 1.0238-0.34983 1.5125-0.44758 0.48874-0.10289 0.96462-0.15434 1.4276-0.15434 1.2502 0 2.1839 0.32412 2.8013 0.97234 0.61735 0.64823 0.92603 1.6309 0.92604 2.9479"/>
   <path id="path3157" style="" d="m247.16 216.51v1.3273c-0.4013-0.22122-0.80515-0.38584-1.2116-0.49389-0.40129-0.11317-0.80772-0.16977-1.2193-0.16977-0.9209 0-1.636 0.29325-2.1453 0.87973-0.50933 0.58136-0.76399 1.3994-0.76398 2.454-0.00001 1.0547 0.25465 1.8752 0.76398 2.4617 0.50932 0.58135 1.2244 0.87202 2.1453 0.87202 0.41157 0 0.818-0.054 1.2193-0.16206 0.40642-0.11318 0.81027-0.28038 1.2116-0.5016v1.3119c-0.39615 0.1852-0.80772 0.32411-1.2347 0.41671-0.42187 0.0926-0.87203 0.13891-1.3505 0.13891-1.3016 0-2.3357-0.409-3.1022-1.227-0.76655-0.818-1.1498-1.9215-1.1498-3.3106 0-1.4096 0.38585-2.5183 1.1576-3.326 0.77684-0.8077 1.8392-1.2116 3.1871-1.2116 0.43729 0 0.86429 0.0463 1.281 0.1389 0.41671 0.0875 0.82056 0.22123 1.2116 0.40129"/>
   <path id="path3159" style="" d="m255.16 216.43v1.3428c-0.40129-0.20578-0.81801-0.36012-1.2502-0.46302-0.43215-0.10288-0.87974-0.15433-1.3428-0.15434-0.70482 0.00001-1.2347 0.10805-1.5897 0.32412-0.34984 0.21608-0.52476 0.54019-0.52476 0.97234 0 0.32926 0.12604 0.58907 0.37813 0.77941 0.25209 0.18522 0.75884 0.36271 1.5202 0.53248l0.48617 0.10803c1.0084 0.21608 1.7235 0.52219 2.1453 0.91833 0.427 0.39099 0.6405 0.9389 0.64051 1.6437-0.00001 0.80256-0.31898 1.4379-0.95691 1.9061-0.6328 0.46817-1.5048 0.70225-2.6161 0.70225-0.46302 0-0.94662-0.0463-1.4508-0.13891-0.49904-0.0875-1.0264-0.22122-1.582-0.40128v-1.4662c0.52476 0.27267 1.0418 0.47846 1.5511 0.61736 0.50932 0.13376 1.0135 0.20064 1.5125 0.20064 0.6688 0 1.1833-0.11318 1.5434-0.33955 0.36012-0.2315 0.54018-0.55562 0.54019-0.97234-0.00001-0.38584-0.1312-0.68166-0.39357-0.88745-0.25724-0.20578-0.82572-0.40385-1.7055-0.59421l-0.49388-0.11575c-0.87974-0.18521-1.5151-0.46816-1.9061-0.84887-0.391-0.38585-0.58649-0.91317-0.58649-1.582 0-0.81285 0.2881-1.4405 0.8643-1.8829 0.5762-0.44243 1.3942-0.66366 2.454-0.66366 0.52476 0 1.0186 0.0386 1.4817 0.11575 0.46301 0.0772 0.89002 0.19293 1.281 0.34727"/>
   <path id="path3161" style="" d="m261.82 220.48c-1.1473 0-1.9421 0.13119-2.3846 0.39357-0.44245 0.26238-0.66367 0.70996-0.66366 1.3428-0.00001 0.50418 0.16462 0.90546 0.49388 1.2038 0.3344 0.29325 0.78713 0.43987 1.3582 0.43987 0.78712 0 1.4173-0.27781 1.8907-0.83343 0.47845-0.56077 0.71767-1.3042 0.71768-2.2302v-0.3164h-1.4122m2.8321-0.58649v4.9312h-1.4199v-1.3119c-0.32412 0.52475-0.72798 0.91318-1.2116 1.1653-0.4836 0.24695-1.0752 0.37042-1.7749 0.37042-0.88488 0-1.5897-0.24694-2.1144-0.74083-0.51962-0.49903-0.77942-1.1653-0.77942-1.9987 0-0.97234 0.32411-1.7054 0.97234-2.1994 0.65337-0.49388 1.6257-0.74082 2.917-0.74083h1.991v-0.1389c-0.00001-0.65337-0.21608-1.1576-0.64823-1.5125-0.42701-0.36012-1.0289-0.54019-1.8058-0.54019-0.4939 0-0.97492 0.0592-1.4431 0.17749-0.46817 0.11833-0.91833 0.29582-1.3505 0.53247v-1.3119c0.51961-0.20063 1.0238-0.34983 1.5125-0.44758 0.48874-0.10289 0.96462-0.15434 1.4276-0.15434 1.2501 0 2.1839 0.32412 2.8013 0.97234 0.61735 0.64823 0.92603 1.6309 0.92604 2.9479"/>
   <path id="path3163" style="" d="m267.78 222.86h1.6283v1.9601h-1.6283v-1.9601"/>
   <path id="path3165" style="" d="m276.54 220.48c-1.1473 0-1.9421 0.13119-2.3846 0.39357-0.44244 0.26238-0.66366 0.70996-0.66366 1.3428 0 0.50418 0.16463 0.90546 0.49389 1.2038 0.3344 0.29325 0.78713 0.43987 1.3582 0.43987 0.78713 0 1.4174-0.27781 1.8907-0.83343 0.47845-0.56077 0.71767-1.3042 0.71768-2.2302v-0.3164h-1.4122m2.8321-0.58649v4.9312h-1.4199v-1.3119c-0.32412 0.52475-0.72798 0.91318-1.2116 1.1653-0.4836 0.24695-1.0752 0.37042-1.7749 0.37042-0.88488 0-1.5897-0.24694-2.1144-0.74083-0.51961-0.49903-0.77942-1.1653-0.77942-1.9987 0-0.97234 0.32411-1.7054 0.97234-2.1994 0.65337-0.49388 1.6257-0.74082 2.917-0.74083h1.991v-0.1389c-0.00001-0.65337-0.21608-1.1576-0.64823-1.5125-0.42701-0.36012-1.0289-0.54019-1.8058-0.54019-0.49389 0-0.97492 0.0592-1.4431 0.17749-0.46817 0.11833-0.91832 0.29582-1.3505 0.53247v-1.3119c0.5196-0.20063 1.0238-0.34983 1.5125-0.44758 0.48874-0.10289 0.96462-0.15434 1.4276-0.15434 1.2502 0 2.1839 0.32412 2.8013 0.97234 0.61735 0.64823 0.92603 1.6309 0.92604 2.9479"/>
   <path id="path3167" style="" d="m281.29 216.18h1.5048l2.7009 7.254 2.701-7.254h1.5048l-3.2411 8.643h-1.9292l-3.2411-8.643"/>
   <path id="path3169" style="" d="m291.66 216.18h1.4199v8.643h-1.4199v-8.643m0-3.3646h1.4199v1.7981h-1.4199v-1.7981"/>
  </g>
 </g>
 <g id="g24" transform="translate(0 -6.0799)">
  <path id="rect26" fill="#fff" d="m150 260h150v40h-150z"/>
  <path id="rect28" d="m150 260h150v40h-150z" stroke="#000" stroke-width="2" fill="none"/>
  <g id="text30">
   <path id="path3174" style="" d="m160.7 273.3h9.7466v1.3119h-4.09v10.21h-1.5665v-10.21h-4.09v-1.3119"/>
   <path id="path3176" style="" d="m172.56 277.17c-0.76142 0.00001-1.3633 0.2984-1.8058 0.89517-0.44244 0.59164-0.66366 1.4045-0.66366 2.4386s0.21864 1.8495 0.65594 2.4463c0.44244 0.59164 1.0469 0.88745 1.8135 0.88745 0.75626 0 1.3556-0.29839 1.7981-0.89517 0.44243-0.59678 0.66365-1.4096 0.66366-2.4386-0.00001-1.0238-0.22123-1.8341-0.66366-2.4308-0.44245-0.60192-1.0418-0.90288-1.7981-0.90289m0-1.2038c1.2347 0.00001 2.2045 0.40129 2.9093 1.2038 0.70481 0.80258 1.0572 1.9138 1.0572 3.3337-0.00001 1.4148-0.35242 2.526-1.0572 3.3337-0.70482 0.80257-1.6746 1.2038-2.9093 1.2038-1.2399 0-2.2122-0.40128-2.917-1.2038-0.69967-0.80771-1.0495-1.919-1.0495-3.3337 0-1.4199 0.34984-2.5312 1.0495-3.3337 0.70482-0.80256 1.6772-1.2038 2.917-1.2038"/>
   <path id="path3178" style="" d="m185.6 277.84c0.35498-0.63793 0.77941-1.1087 1.2733-1.4122 0.49388-0.30352 1.0752-0.45529 1.744-0.4553 0.9003 0.00001 1.5948 0.31641 2.0836 0.94919 0.48873 0.62766 0.7331 1.5228 0.73311 2.6855v5.2167h-1.4276v-5.1704c-0.00002-0.82829-0.14664-1.4431-0.43987-1.8444-0.29326-0.40127-0.74084-0.60191-1.3428-0.60192-0.73569 0.00001-1.317 0.24438-1.744 0.73311-0.42701 0.48875-0.64052 1.155-0.64051 1.9987v4.8849h-1.4276v-5.1704c-0.00001-0.83343-0.14663-1.4482-0.43987-1.8444-0.29325-0.40127-0.74598-0.60191-1.3582-0.60192-0.7254 0.00001-1.3016 0.24695-1.7286 0.74083-0.42701 0.48875-0.64051 1.1524-0.64051 1.991v4.8849h-1.4276v-8.643h1.4276v1.3428c0.32411-0.5299 0.71253-0.92089 1.1653-1.173 0.45272-0.25208 0.99034-0.37812 1.6128-0.37813 0.62764 0.00001 1.1601 0.15949 1.5974 0.47845 0.44243 0.31898 0.76912 0.782 0.98005 1.3891"/>
   <path id="path3180" style="" d="m200.85 287.45v1.1035h-8.2109v-1.1035h8.2109"/>
   <path id="path3182" style="" d="m209.57 280.15v0.69453h-6.5286c0.0617 0.97749 0.35498 1.7235 0.87973 2.2379 0.5299 0.50932 1.2656 0.76398 2.2071 0.76398 0.54533 0 1.0727-0.0669 1.582-0.20064 0.51446-0.13376 1.0238-0.3344 1.528-0.60192v1.3428c-0.50933 0.21608-1.0315 0.38071-1.5666 0.49389-0.53505 0.11318-1.0778 0.16977-1.6283 0.16977-1.3788 0-2.472-0.40128-3.2797-1.2038-0.80257-0.80256-1.2039-1.8881-1.2039-3.2566 0-1.4148 0.38071-2.5363 1.1421-3.3646 0.76655-0.83342 1.7981-1.2501 3.0945-1.2502 1.1627 0.00001 2.081 0.37557 2.755 1.1267 0.67909 0.74598 1.0186 1.762 1.0186 3.0482m-1.4199-0.41671c-0.0103-0.77684-0.22895-1.3968-0.65595-1.8598-0.42187-0.46301-0.98263-0.69452-1.6823-0.69453-0.79228 0.00001-1.4276 0.2238-1.9061 0.67138-0.47331 0.44759-0.74598 1.0778-0.818 1.8907l5.0624-0.008"/>
   <path id="path3184" style="" d="m217.41 276.43v1.3428c-0.40129-0.20578-0.81801-0.36012-1.2502-0.46302-0.43216-0.10289-0.87975-0.15433-1.3428-0.15434-0.70482 0.00001-1.2347 0.10804-1.5897 0.32411-0.34984 0.21608-0.52476 0.5402-0.52476 0.97234 0 0.32927 0.12604 0.58907 0.37814 0.77942 0.25208 0.18521 0.75883 0.3627 1.5202 0.53247l0.48617 0.10804c1.0084 0.21608 1.7235 0.52219 2.1453 0.91832 0.427 0.391 0.6405 0.9389 0.64051 1.6437-0.00001 0.80257-0.31898 1.4379-0.95691 1.9061-0.6328 0.46816-1.5048 0.70224-2.6161 0.70224-0.46302 0-0.94662-0.0463-1.4508-0.1389-0.49904-0.0875-1.0264-0.22122-1.582-0.40129v-1.4662c0.52476 0.27266 1.0418 0.47845 1.5511 0.61736 0.50932 0.13376 1.0135 0.20064 1.5125 0.20064 0.6688 0 1.1833-0.11318 1.5434-0.33955 0.36012-0.23151 0.54018-0.55562 0.54019-0.97234-0.00001-0.38585-0.1312-0.68167-0.39357-0.88746-0.25724-0.20578-0.82572-0.40385-1.7055-0.5942l-0.49388-0.11576c-0.87974-0.1852-1.5151-0.46816-1.9061-0.84887-0.391-0.38584-0.58649-0.91317-0.58649-1.582 0-0.81285 0.2881-1.4405 0.8643-1.883 0.5762-0.44243 1.3942-0.66365 2.454-0.66366 0.52475 0.00001 1.0186 0.0386 1.4817 0.11576 0.46301 0.0772 0.89002 0.19293 1.281 0.34726"/>
   <path id="path3186" style="" d="m226.71 287.45v1.1035h-8.2109v-1.1035h8.2109"/>
   <path id="path3188" style="" d="m228.11 273.3h1.5588v10.719c-0.00001 1.3891-0.26496 2.3974-0.79485 3.0251-0.52476 0.62765-1.3711 0.94147-2.5389 0.94148h-0.59421v-1.3119h0.48617c0.68938 0 1.1756-0.19293 1.4585-0.57878 0.28296-0.38585 0.42443-1.0778 0.42444-2.0759v-10.719"/>
   <path id="path3190" style="" d="m240.1 280.15v0.69453h-6.5286c0.0617 0.97749 0.35498 1.7235 0.87973 2.2379 0.5299 0.50932 1.2656 0.76398 2.2071 0.76398 0.54533 0 1.0727-0.0669 1.582-0.20064 0.51446-0.13376 1.0238-0.3344 1.528-0.60192v1.3428c-0.50933 0.21608-1.0315 0.38071-1.5666 0.49389-0.53505 0.11318-1.0778 0.16977-1.6283 0.16977-1.3788 0-2.472-0.40128-3.2797-1.2038-0.80257-0.80256-1.2039-1.8881-1.2039-3.2566 0-1.4148 0.38071-2.5363 1.1421-3.3646 0.76655-0.83342 1.798-1.2501 3.0945-1.2502 1.1627 0.00001 2.081 0.37557 2.755 1.1267 0.67909 0.74598 1.0186 1.762 1.0186 3.0482m-1.4199-0.41671c-0.0103-0.77684-0.22895-1.3968-0.65595-1.8598-0.42187-0.46301-0.98263-0.69452-1.6823-0.69453-0.79229 0.00001-1.4276 0.2238-1.9061 0.67138-0.47331 0.44759-0.74598 1.0778-0.818 1.8907l5.0624-0.008"/>
   <path id="path3192" style="" d="m247.44 277.51c-0.15949-0.0926-0.33441-0.15947-0.52475-0.20064-0.18522-0.0463-0.391-0.0694-0.61736-0.0694-0.80257 0.00001-1.4199 0.26238-1.8521 0.78713-0.42701 0.51962-0.64051 1.2682-0.64051 2.2456v4.553h-1.4276v-8.643h1.4276v1.3428c0.29839-0.52475 0.68681-0.91317 1.1653-1.1653 0.47844-0.25722 1.0598-0.38584 1.744-0.38585 0.0977 0.00001 0.20578 0.008 0.32411 0.0231 0.11832 0.0103 0.24951 0.0283 0.39357 0.054l0.008 1.4585"/>
   <path id="path3194" style="" d="m253.68 277.51c-0.15949-0.0926-0.33441-0.15947-0.52475-0.20064-0.18522-0.0463-0.391-0.0694-0.61736-0.0694-0.80257 0.00001-1.4199 0.26238-1.8521 0.78713-0.42701 0.51962-0.64051 1.2682-0.64051 2.2456v4.553h-1.4276v-8.643h1.4276v1.3428c0.29839-0.52475 0.68681-0.91317 1.1653-1.1653 0.47845-0.25722 1.0598-0.38584 1.744-0.38585 0.0977 0.00001 0.20579 0.008 0.32412 0.0231 0.11832 0.0103 0.24951 0.0283 0.39356 0.054l0.008 1.4585"/>
   <path id="path3196" style="" d="m258.78 285.62c-0.40129 1.0289-0.79228 1.7003-1.173 2.0141-0.3807 0.31382-0.89002 0.47074-1.528 0.47074h-1.1344v-1.1884h0.83344c0.39099 0 0.69452-0.0926 0.9106-0.27781s0.4553-0.6225 0.71768-1.3119l0.25466-0.64822-3.4958-8.5041h1.5048l2.701 6.7601 2.7009-6.7601h1.5048l-3.7968 9.4456"/>
   <path id="path3198" style="" d="m262.48 282.86h1.6283v1.9601h-1.6283v-1.9601"/>
   <path id="path3200" style="" d="m271.24 280.48c-1.1473 0.00001-1.9421 0.1312-2.3846 0.39357-0.44244 0.26238-0.66366 0.70997-0.66366 1.3428 0 0.50418 0.16462 0.90546 0.49389 1.2038 0.33439 0.29325 0.78712 0.43987 1.3582 0.43987 0.78712 0 1.4173-0.27781 1.8907-0.83344 0.47845-0.56076 0.71767-1.3042 0.71768-2.2302v-0.3164h-1.4122m2.8321-0.58649v4.9312h-1.4199v-1.3119c-0.32412 0.52476-0.72798 0.91318-1.2116 1.1653-0.4836 0.24694-1.0752 0.37041-1.7749 0.37041-0.88488 0-1.5897-0.24694-2.1144-0.74083-0.51961-0.49903-0.77942-1.1653-0.77942-1.9987 0-0.97234 0.32411-1.7054 0.97234-2.1993 0.65337-0.49388 1.6257-0.74083 2.917-0.74083h1.991v-0.13891c-0.00001-0.65336-0.21608-1.1575-0.64823-1.5125-0.42701-0.36012-1.0289-0.54018-1.8058-0.54019-0.4939 0.00001-0.97492 0.0592-1.4431 0.17749-0.46817 0.11834-0.91833 0.29583-1.3505 0.53247v-1.3119c0.51961-0.20064 1.0238-0.34983 1.5125-0.44759 0.48874-0.10288 0.96462-0.15433 1.4276-0.15434 1.2502 0.00001 2.1839 0.32412 2.8013 0.97234 0.61735 0.64824 0.92603 1.6309 0.92604 2.9479"/>
   <path id="path3202" style="" d="m275.99 276.18h1.5048l2.701 7.254 2.701-7.254h1.5048l-3.2411 8.643h-1.9292l-3.2411-8.643"/>
   <path id="path3204" style="" d="m286.36 276.18h1.4199v8.643h-1.4199v-8.643m0-3.3646h1.4199v1.7981h-1.4199v-1.7981"/>
  </g>
 </g>
 <g id="text34">
  <path id="path3207" style="" d="m189.55 112.2v1.3494h-1.5522c-0.58209 0.00001-0.98778 0.11761-1.2171 0.35278-0.22343 0.2352-0.33514 0.65853-0.33514 1.27v0.87312h2.6723v1.2612h-2.6723v8.6166h-1.6316v-8.6166h-1.5522v-1.2612h1.5522v-0.68791c-0.00001-1.0995 0.25576-1.8991 0.76729-2.3989 0.51152-0.50563 1.3229-0.75846 2.4342-0.75847h1.5346"/>
  <path id="path3209" style="" d="m195.39 120.95c-1.3112 0-2.2196 0.14993-2.7252 0.44979-0.50565 0.29986-0.75847 0.81139-0.75847 1.5346 0 0.5762 0.18815 1.0348 0.56444 1.3758 0.38218 0.33514 0.89958 0.50271 1.5522 0.50271 0.89958 0 1.6198-0.3175 2.1608-0.9525 0.54679-0.64088 0.8202-1.4905 0.8202-2.5488v-0.36159h-1.614m3.2367-0.67028v5.6356h-1.6228v-1.4993c-0.37042 0.59973-0.83197 1.0436-1.3846 1.3317-0.55269 0.28222-1.2288 0.42333-2.0285 0.42333-1.0113 0-1.8168-0.28222-2.4165-0.84666-0.59385-0.57033-0.89077-1.3317-0.89077-2.2842 0-1.1112 0.37042-1.9491 1.1112-2.5135 0.74671-0.56443 1.858-0.84666 3.3338-0.84666h2.2754v-0.15875c0-0.74671-0.24695-1.3229-0.74083-1.7286-0.48801-0.41157-1.1759-0.61735-2.0638-0.61736-0.56445 0.00001-1.1142 0.0676-1.6492 0.20285-0.53505 0.13524-1.0495 0.33808-1.5434 0.60854v-1.4993c0.59384-0.22929 1.17-0.3998 1.7286-0.51152 0.55856-0.11759 1.1024-0.17638 1.6316-0.17639 1.4287 0.00001 2.4959 0.37042 3.2015 1.1112 0.70554 0.74084 1.0583 1.8638 1.0583 3.369m-2.9633-8.8106h1.7551l-2.8751 3.3161h-1.3494l2.4694-3.3161"/>
  <path id="path3211" style="" d="m201.98 116.04h1.6228v10.054c0 1.2582-0.24107 2.1696-0.7232 2.734-0.47625 0.56444-1.2465 0.84666-2.3107 0.84667h-0.61736v-1.3758h0.43216c0.61735-0.00001 1.0378-0.14406 1.2612-0.43216 0.22343-0.28222 0.33514-0.87312 0.33514-1.7727v-10.054m0-3.8453h1.6228v2.0549h-1.6228v-2.0549"/>
  <path id="path3213" style="" d="m206.99 112.2h1.6228v13.723h-1.6228v-13.723"/>
  <path id="path3215" style="" d="m220.21 119.96v5.9619h-1.6228v-5.909c-0.00001-0.93486-0.18228-1.6345-0.54681-2.099-0.36454-0.46448-0.91135-0.69672-1.6404-0.69673-0.87607 0.00001-1.5669 0.27929-2.0726 0.83784-0.50565 0.55857-0.75847 1.32-0.75847 2.2842v5.5827h-1.6316v-9.8778h1.6316v1.5346c0.38805-0.59383 0.84372-1.0377 1.367-1.3317 0.52916-0.29397 1.1377-0.44096 1.8256-0.44097 1.1348 0.00001 1.9932 0.35278 2.5753 1.0583 0.58207 0.69968 0.87311 1.7316 0.87312 3.0956"/>
  <path id="path3217" style="" d="m231.91 120.58v0.79375h-7.4612c0.0705 1.1171 0.40569 1.9697 1.0054 2.5576 0.60559 0.58208 1.4464 0.87312 2.5224 0.87312 0.62323 0 1.2259-0.0764 1.808-0.22931 0.58795-0.15286 1.17-0.38217 1.7462-0.68791v1.5346c-0.58209 0.24694-1.1789 0.43509-1.7904 0.56444-0.61149 0.12936-1.2318 0.19403-1.8609 0.19403-1.5757 0-2.8252-0.45861-3.7483-1.3758-0.91722-0.91722-1.3758-2.1578-1.3758-3.7218 0-1.6169 0.43509-2.8986 1.3053-3.8453 0.87606-0.95249 2.0549-1.4287 3.5366-1.4288 1.3288 0.00001 2.3783 0.42922 3.1485 1.2876 0.7761 0.85256 1.1642 2.0138 1.1642 3.4837m-1.6228-0.47625c-0.0118-0.88781-0.26165-1.5963-0.74966-2.1255-0.48213-0.52916-1.123-0.79374-1.9226-0.79375-0.90547 0.00001-1.6316 0.25577-2.1784 0.76729-0.54093 0.51153-0.85255 1.2318-0.93486 2.1608l5.7856-0.009"/>
  <path id="path3219" style="" d="m233.41 116.04h1.7198l3.0868 8.2903 3.0868-8.2903h1.7198l-3.7042 9.8778h-2.2049l-3.7042-9.8778"/>
  <path id="path3221" style="" d="m253.71 120.58v0.79375h-7.4612c0.0705 1.1171 0.40569 1.9697 1.0054 2.5576 0.60559 0.58208 1.4464 0.87312 2.5224 0.87312 0.62324 0 1.2259-0.0764 1.808-0.22931 0.58795-0.15286 1.17-0.38217 1.7462-0.68791v1.5346c-0.5821 0.24694-1.1789 0.43509-1.7904 0.56444-0.61149 0.12936-1.2318 0.19403-1.8609 0.19403-1.5757 0-2.8252-0.45861-3.7483-1.3758-0.91722-0.91722-1.3758-2.1578-1.3758-3.7218 0-1.6169 0.43509-2.8986 1.3053-3.8453 0.87606-0.95249 2.0549-1.4287 3.5366-1.4288 1.3288 0.00001 2.3783 0.42922 3.1485 1.2876 0.7761 0.85256 1.1642 2.0138 1.1642 3.4837m-1.6228-0.47625c-0.0118-0.88781-0.26166-1.5963-0.74966-2.1255-0.48213-0.52916-1.123-0.79374-1.9226-0.79375-0.90547 0.00001-1.6316 0.25577-2.1784 0.76729-0.54093 0.51153-0.85255 1.2318-0.93486 2.1608l5.7856-0.009"/>
  <path id="path3223" style="" d="m256.31 112.2h1.6316v8.1051l4.8419-4.2598h2.0726l-5.2388 4.6214 5.4592 5.2564h-2.1167l-5.0183-4.8242v4.8242h-1.6316v-13.723"/>
 </g>
 <g id="g38" transform="translate(0 -6.0799)">
  <path id="rect40" fill="#3a739a" d="m340 40h40v440h-40z"/>
  <path id="rect42" d="m340 40h40v440h-40z" stroke="#3a739a" stroke-width="2" fill="none"/>
 </g>
 <g id="g44" transform="translate(0 -6.0799)">
  <path id="rect46" fill="#a3bbcc" d="m460 160h83.75v40h-83.75z"/>
  <path id="rect48" d="m460 160h83.75v40h-83.75z" stroke="#000" stroke-width="2" fill="none"/>
  <g id="text50">
   <path id="path3230" style="" d="m490.7 172.81v1.1807h-1.3582c-0.50932 0.00001-0.8643 0.1029-1.0649 0.30868-0.1955 0.20579-0.29325 0.57621-0.29325 1.1112v0.76398h2.3382v1.1035h-2.3382v7.5395h-1.4276v-7.5395h-1.3582v-1.1035h1.3582v-0.60192c0-0.96204 0.22379-1.6617 0.67138-2.099 0.44758-0.44243 1.1575-0.66365 2.1299-0.66366h1.3428"/>
   <path id="path3232" style="" d="m495.81 180.48c-1.1473 0-1.9421 0.13119-2.3846 0.39357-0.44244 0.26238-0.66366 0.70996-0.66366 1.3428 0 0.50418 0.16463 0.90546 0.49389 1.2038 0.3344 0.29325 0.78713 0.43987 1.3582 0.43987 0.78713 0 1.4174-0.27781 1.8907-0.83343 0.47845-0.56077 0.71768-1.3042 0.71768-2.2302v-0.3164h-1.4122m2.8321-0.58649v4.9312h-1.4199v-1.3119c-0.32412 0.52475-0.72797 0.91318-1.2116 1.1653-0.48361 0.24695-1.0752 0.37042-1.7749 0.37042-0.88489 0-1.5897-0.24694-2.1145-0.74083-0.51961-0.49903-0.77942-1.1653-0.77941-1.9987-0.00001-0.97234 0.32411-1.7054 0.97234-2.1994 0.65337-0.49388 1.6257-0.74082 2.917-0.74083h1.991v-0.1389c0-0.65337-0.21608-1.1576-0.64822-1.5125-0.42702-0.36012-1.0289-0.54019-1.8058-0.54019-0.49389 0-0.97492 0.0592-1.4431 0.17749-0.46816 0.11833-0.91832 0.29582-1.3505 0.53247v-1.3119c0.51961-0.20063 1.0238-0.34983 1.5125-0.44758 0.48874-0.10289 0.96462-0.15434 1.4276-0.15434 1.2502 0 2.1839 0.32412 2.8013 0.97234 0.61735 0.64823 0.92603 1.6309 0.92604 2.9479m-2.5929-7.7093h1.5357l-2.5157 2.9016h-1.1807l2.1608-2.9016"/>
   <path id="path3234" style="" d="m501.57 176.18h1.4199v8.7974c0 1.101-0.21093 1.8984-0.63279 2.3923-0.41672 0.49389-1.0907 0.74083-2.0218 0.74083h-0.54019v-1.2038h0.37813c0.54019 0 0.90803-0.12604 1.1035-0.37813 0.1955-0.24694 0.29325-0.76398 0.29325-1.5511v-8.7974m0-3.3646h1.4199v1.7981h-1.4199v-1.7981"/>
   <path id="path3236" style="" d="m505.96 172.81h1.4199v12.008h-1.4199v-12.008"/>
   <path id="path3238" style="" d="m510.81 183.51h2.5466v-8.7897l-2.7704 0.55563v-1.4199l2.755-0.55562h1.5588v10.21h2.5466v1.3119h-6.6366v-1.3119"/>
  </g>
 </g>
 <g id="g54" transform="translate(0 -6.0799)">
  <path id="rect56" fill="#a3bbcc" d="m460 320h83.75v40h-83.75z"/>
  <path id="rect58" d="m460 320h83.75v40h-83.75z" stroke="#000" stroke-width="2" fill="none"/>
  <g id="text60">
   <path id="path3243" style="" d="m490.7 332.81v1.1807h-1.3582c-0.50932 0.00001-0.8643 0.1029-1.0649 0.30868-0.1955 0.2058-0.29325 0.57621-0.29325 1.1112v0.76398h2.3382v1.1035h-2.3382v7.5395h-1.4276v-7.5395h-1.3582v-1.1035h1.3582v-0.60193c0-0.96204 0.22379-1.6617 0.67138-2.099 0.44758-0.44243 1.1575-0.66365 2.1299-0.66366h1.3428"/>
   <path id="path3245" style="" d="m495.81 340.48c-1.1473 0.00001-1.9421 0.1312-2.3846 0.39357-0.44244 0.26238-0.66366 0.70997-0.66366 1.3428 0 0.50418 0.16463 0.90546 0.49389 1.2038 0.3344 0.29325 0.78713 0.43987 1.3582 0.43987 0.78713 0 1.4174-0.27781 1.8907-0.83344 0.47845-0.56076 0.71768-1.3042 0.71768-2.2302v-0.3164h-1.4122m2.8321-0.58649v4.9312h-1.4199v-1.3119c-0.32412 0.52476-0.72797 0.91318-1.2116 1.1653-0.48361 0.24694-1.0752 0.37041-1.7749 0.37041-0.88489 0-1.5897-0.24694-2.1145-0.74083-0.51961-0.49903-0.77942-1.1653-0.77941-1.9987-0.00001-0.97234 0.32411-1.7054 0.97234-2.1993 0.65337-0.49388 1.6257-0.74083 2.917-0.74083h1.991v-0.13891c0-0.65336-0.21608-1.1575-0.64822-1.5125-0.42702-0.36012-1.0289-0.54018-1.8058-0.54019-0.49389 0.00001-0.97492 0.0592-1.4431 0.17749-0.46816 0.11834-0.91832 0.29583-1.3505 0.53247v-1.3119c0.51961-0.20064 1.0238-0.34983 1.5125-0.44759 0.48874-0.10288 0.96462-0.15433 1.4276-0.15434 1.2502 0.00001 2.1839 0.32412 2.8013 0.97234 0.61735 0.64824 0.92603 1.6309 0.92604 2.9479m-2.5929-7.7093h1.5357l-2.5157 2.9016h-1.1807l2.1608-2.9016"/>
   <path id="path3247" style="" d="m501.57 336.18h1.4199v8.7974c0 1.101-0.21093 1.8984-0.63279 2.3923-0.41672 0.49388-1.0907 0.74083-2.0218 0.74083h-0.54019v-1.2038h0.37813c0.54019 0 0.90803-0.12605 1.1035-0.37813 0.1955-0.24695 0.29325-0.76399 0.29325-1.5511v-8.7974m0-3.3646h1.4199v1.7981h-1.4199v-1.7981"/>
   <path id="path3249" style="" d="m505.96 332.81h1.4199v12.008h-1.4199v-12.008"/>
   <path id="path3251" style="" d="m511.88 343.51h5.4405v1.3119h-7.3157v-1.3119c0.59163-0.61221 1.3968-1.4328 2.4154-2.4617 1.0238-1.0341 1.6669-1.7003 1.9292-1.9987 0.49902-0.56076 0.84629-1.0341 1.0418-1.4199 0.20064-0.39098 0.30096-0.77426 0.30096-1.1498 0-0.6122-0.21608-1.1112-0.64822-1.4971-0.42702-0.38584-0.98521-0.57877-1.6746-0.57878-0.48875 0.00001-1.0058 0.0849-1.5511 0.25466-0.54019 0.16979-1.119 0.42702-1.7363 0.7717v-1.5743c0.62765-0.25207 1.2141-0.44242 1.7595-0.57105 0.54533-0.12861 1.0444-0.19292 1.4971-0.19293 1.1936 0.00001 2.1453 0.2984 2.8553 0.89517 0.70995 0.59679 1.0649 1.3942 1.0649 2.3923-0.00001 0.47332-0.09 0.92348-0.27009 1.3505-0.17493 0.42187-0.49647 0.92091-0.96463 1.4971-0.12862 0.1492-0.53762 0.58135-1.227 1.2965-0.68939 0.70996-1.6617 1.7054-2.917 2.9865"/>
  </g>
 </g>
 <g id="g64" transform="translate(0 -6.0799)">
  <path id="rect66" fill="#a3bbcc" d="m460 440h83.75v40h-83.75z"/>
  <path id="rect68" d="m460 440h83.75v40h-83.75z" stroke="#000" stroke-width="2" fill="none"/>
  <g id="text70">
   <path id="path3256" style="" d="m490.7 452.81v1.1807h-1.3582c-0.50932 0.00001-0.8643 0.1029-1.0649 0.30868-0.1955 0.2058-0.29325 0.57621-0.29325 1.1112v0.76398h2.3382v1.1035h-2.3382v7.5395h-1.4276v-7.5395h-1.3582v-1.1035h1.3582v-0.60193c0-0.96204 0.22379-1.6617 0.67138-2.099 0.44758-0.44243 1.1575-0.66365 2.1299-0.66366h1.3428"/>
   <path id="path3258" style="" d="m495.81 460.48c-1.1473 0.00001-1.9421 0.1312-2.3846 0.39357-0.44244 0.26238-0.66366 0.70997-0.66366 1.3428 0 0.50418 0.16463 0.90546 0.49389 1.2038 0.3344 0.29325 0.78713 0.43987 1.3582 0.43987 0.78713 0 1.4174-0.27781 1.8907-0.83344 0.47845-0.56076 0.71768-1.3042 0.71768-2.2302v-0.3164h-1.4122m2.8321-0.58649v4.9312h-1.4199v-1.3119c-0.32412 0.52476-0.72797 0.91318-1.2116 1.1653-0.48361 0.24694-1.0752 0.37041-1.7749 0.37041-0.88489 0-1.5897-0.24694-2.1145-0.74083-0.51961-0.49903-0.77942-1.1653-0.77941-1.9987-0.00001-0.97234 0.32411-1.7054 0.97234-2.1993 0.65337-0.49388 1.6257-0.74083 2.917-0.74083h1.991v-0.13891c0-0.65336-0.21608-1.1575-0.64822-1.5125-0.42702-0.36012-1.0289-0.54018-1.8058-0.54019-0.49389 0.00001-0.97492 0.0592-1.4431 0.17749-0.46816 0.11834-0.91832 0.29583-1.3505 0.53247v-1.3119c0.51961-0.20064 1.0238-0.34983 1.5125-0.44759 0.48874-0.10288 0.96462-0.15433 1.4276-0.15434 1.2502 0.00001 2.1839 0.32412 2.8013 0.97234 0.61735 0.64824 0.92603 1.6309 0.92604 2.9479m-2.5929-7.7093h1.5357l-2.5157 2.9016h-1.1807l2.1608-2.9016"/>
   <path id="path3260" style="" d="m501.57 456.18h1.4199v8.7974c0 1.101-0.21093 1.8984-0.63279 2.3923-0.41672 0.49388-1.0907 0.74083-2.0218 0.74083h-0.54019v-1.2038h0.37813c0.54019 0 0.90803-0.12605 1.1035-0.37813 0.1955-0.24695 0.29325-0.76399 0.29325-1.5511v-8.7974m0-3.3646h1.4199v1.7981h-1.4199v-1.7981"/>
   <path id="path3262" style="" d="m505.96 452.81h1.4199v12.008h-1.4199v-12.008"/>
   <path id="path3264" style="" d="m515.26 458.61c0.74597 0.15949 1.3273 0.49132 1.744 0.99549 0.42186 0.50419 0.63279 1.1267 0.63279 1.8675 0 1.137-0.391 2.0167-1.173 2.6392-0.78199 0.6225-1.8932 0.93375-3.3337 0.93375-0.4836 0-0.98263-0.0489-1.4971-0.14662-0.50932-0.0926-1.0366-0.23408-1.582-0.42443v-1.5048c0.43215 0.25209 0.90546 0.44245 1.4199 0.57106 0.51446 0.12862 1.0521 0.19293 1.6128 0.19293 0.97748 0 1.7209-0.19293 2.2302-0.57878 0.51446-0.38585 0.77169-0.94661 0.7717-1.6823-0.00001-0.6791-0.23923-1.209-0.71768-1.5897-0.47332-0.38585-1.1344-0.57877-1.9833-0.57878h-1.3428v-1.281h1.4045c0.76655 0.00001 1.353-0.15176 1.7595-0.4553 0.40642-0.30867 0.60964-0.75111 0.60964-1.3273 0-0.59163-0.21093-1.0444-0.63279-1.3582-0.41672-0.31895-1.0161-0.47844-1.7981-0.47845-0.42701 0.00001-0.88488 0.0463-1.3736 0.13891-0.48875 0.0926-1.0264 0.23666-1.6128 0.43215v-1.3891c0.59163-0.16462 1.1447-0.28809 1.6592-0.37042 0.51961-0.0823 1.0084-0.12346 1.4662-0.12347 1.1833 0.00001 2.1196 0.27011 2.809 0.81029 0.68938 0.53505 1.0341 1.2604 1.0341 2.1762-0.00001 0.63794-0.18264 1.1781-0.54791 1.6206-0.36527 0.4373-0.88489 0.74083-1.5588 0.9106"/>
  </g>
 </g>
 <g id="g74" stroke="#000" stroke-width="2" fill="none" transform="translate(0 -6.0799)">
  <path id="polyline76" d="m300.2 160h59.8l58.586 175.76"/>
  <path id="polyline78" d="m411.39 329.97 7.906 7.906 1.581-11.068"/>
 </g>
 <g id="g80" stroke="#000" stroke-width="2" fill="none" transform="translate(0 -6.0799)">
  <path id="polyline82" d="m300.35 220h59.65l56.279-37.519"/>
  <path id="polyline84" d="m412.59 190.95 5.547-9.708-11.094 1.387"/>
 </g>
 <g id="g86" stroke="#000" stroke-width="2" fill="none" transform="translate(0 -6.0799)">
  <path id="polyline88" d="m300 280h60l58.586 175.76"/>
  <path id="polyline90" d="m411.39 449.97 7.906 7.906 1.581-11.068"/>
 </g>
 <g id="text92">
  <path id="path3273" style="" d="m341.14 17.958v5.9619h-1.6228v-5.909c0-0.93485-0.18227-1.6345-0.5468-2.099-0.36454-0.46448-0.91135-0.69673-1.6404-0.69674-0.87606 0.000009-1.5669 0.27929-2.0726 0.83785-0.50565 0.55857-0.75848 1.32-0.75847 2.2842v5.5827h-1.6316v-13.723h1.6316v5.3799c0.38805-0.59383 0.84372-1.0377 1.367-1.3317 0.52916-0.29397 1.1377-0.44096 1.8256-0.44097 1.1348 0.00001 1.9932 0.35279 2.5753 1.0583 0.58207 0.69968 0.87311 1.7316 0.87312 3.0956"/>
  <path id="path3275" style="" d="m348.89 18.955c-1.3112 0.000005-2.2196 0.14994-2.7252 0.44979-0.50565 0.29986-0.75848 0.81139-0.75847 1.5346-0.00001 0.5762 0.18814 1.0348 0.56444 1.3758 0.38217 0.33514 0.89958 0.50271 1.5522 0.50271 0.89958 0.000001 1.6198-0.3175 2.1608-0.9525 0.5468-0.64088 0.8202-1.4905 0.82021-2.5488v-0.3616h-1.614m3.2367-0.67028v5.6356h-1.6228v-1.4993c-0.37042 0.59972-0.83197 1.0436-1.3846 1.3317-0.55269 0.28222-1.2288 0.42333-2.0285 0.42333-1.0113 0-1.8168-0.28222-2.4165-0.84667-0.59384-0.57032-0.89076-1.3317-0.89076-2.2842 0-1.1112 0.37042-1.9491 1.1112-2.5135 0.74671-0.56444 1.858-0.84666 3.3338-0.84666h2.2754v-0.15875c-0.00001-0.7467-0.24695-1.3229-0.74083-1.7286-0.48802-0.41156-1.1759-0.61735-2.0638-0.61736-0.56445 0.000009-1.1142 0.06762-1.6492 0.20285-0.53505 0.13524-1.0495 0.33809-1.5434 0.60854v-1.4993c0.59383-0.2293 1.17-0.3998 1.7286-0.51153 0.55856-0.11758 1.1024-0.17638 1.6316-0.17639 1.4287 0.00001 2.4959 0.37043 3.2014 1.1112 0.70555 0.74084 1.0583 1.8638 1.0583 3.369"/>
  <path id="path3277" style="" d="m361.77 14.333v1.5346c-0.45862-0.23518-0.93487-0.41156-1.4288-0.52917-0.4939-0.11758-1.0054-0.17638-1.5346-0.17639-0.80552 0.000009-1.4111 0.12348-1.8168 0.37042-0.39981 0.24695-0.59972 0.61737-0.59972 1.1112 0 0.3763 0.14405 0.67322 0.43215 0.89076 0.2881 0.21167 0.86724 0.41452 1.7374 0.60854l0.55563 0.12347c1.1524 0.24695 1.9697 0.59679 2.4518 1.0495 0.488 0.44686 0.732 1.073 0.73201 1.8785-0.00001 0.91722-0.36454 1.6434-1.0936 2.1784-0.7232 0.53505-1.7198 0.80257-2.9898 0.80257-0.52917 0-1.0818-0.05292-1.658-0.15875-0.57032-0.09995-1.173-0.25282-1.808-0.45861v-1.6757c0.59972 0.31162 1.1906 0.54681 1.7727 0.70556 0.58208 0.15287 1.1583 0.22931 1.7286 0.2293 0.76435 0.000001 1.3523-0.12935 1.7639-0.38806 0.41157-0.26458 0.61735-0.635 0.61736-1.1112-0.00001-0.44097-0.14994-0.77905-0.44979-1.0142-0.29399-0.23518-0.94369-0.46155-1.9491-0.6791l-0.56444-0.13229c-1.0054-0.21166-1.7316-0.53504-2.1784-0.97014-0.44685-0.44097-0.67028-1.0436-0.67028-1.808 0-0.92897 0.32926-1.6463 0.98778-2.1519 0.65851-0.50564 1.5934-0.75846 2.8046-0.75847 0.59971 0.00001 1.1642 0.04411 1.6933 0.13229 0.52916 0.0882 1.0172 0.2205 1.464 0.39688"/>
  <path id="path3279" style="" d="m373.11 17.958v5.9619h-1.6228v-5.909c-0.00001-0.93485-0.18227-1.6345-0.5468-2.099-0.36455-0.46448-0.91135-0.69673-1.6404-0.69674-0.87607 0.000009-1.5669 0.27929-2.0726 0.83785-0.50566 0.55857-0.75848 1.32-0.75848 2.2842v5.5827h-1.6316v-13.723h1.6316v5.3799c0.38806-0.59383 0.84373-1.0377 1.367-1.3317 0.52916-0.29397 1.1377-0.44096 1.8256-0.44097 1.1348 0.00001 1.9932 0.35279 2.5753 1.0583 0.58208 0.69968 0.87312 1.7316 0.87313 3.0956"/>
  <path id="path3281" style="" d="m380.26 10.215c-0.78788 1.3523-1.3729 2.6899-1.7551 4.0128-0.38218 1.3229-0.57327 2.6635-0.57326 4.0217-0.00001 1.3582 0.19108 2.7046 0.57326 4.0393 0.38805 1.3288 0.97307 2.6664 1.7551 4.0128h-1.4111c-0.88195-1.3817-1.5434-2.7399-1.9844-4.0746-0.4351-1.3347-0.65264-2.6605-0.65264-3.9776 0-1.3111 0.21754-2.6311 0.65264-3.9599 0.43509-1.3288 1.0965-2.687 1.9844-4.0746h1.4111"/>
  <path id="path3283" style="" d="m383.16 10.215h1.4111c0.88194 1.3876 1.5405 2.7458 1.9756 4.0746 0.44096 1.3288 0.66145 2.6488 0.66145 3.9599 0 1.317-0.22049 2.6429-0.66145 3.9776-0.4351 1.3347-1.0936 2.6929-1.9756 4.0746h-1.4111c0.78199-1.3464 1.3641-2.684 1.7462-4.0128 0.38805-1.3347 0.58208-2.6811 0.58209-4.0393-0.00001-1.3582-0.19404-2.6987-0.58209-4.0217-0.38218-1.3229-0.96426-2.6605-1.7462-4.0128"/>
 </g>
 <g id="g96" transform="translate(0 -6.0799)">
  <path id="rect98" fill="#eee" d="m460 80h83.75v40h-83.75z"/>
  <path id="rect100" d="m460 80h83.75v40h-83.75z" stroke="#000" stroke-width="2" fill="none"/>
 </g>
 <g id="g106" transform="translate(0 -6.0799)">
  <path id="rect108" fill="#eee" d="m460 200h83.75v40h-83.75z"/>
  <path id="rect110" d="m460 200h83.75v40h-83.75z" stroke="#000" stroke-width="2" fill="none"/>
 </g>
 <g id="g116" transform="translate(0 -6.0799)">
  <path id="rect118" fill="#eee" d="m460 40h83.75v40h-83.75z"/>
  <path id="rect120" d="m460 40h83.75v40h-83.75z" stroke="#000" stroke-width="2" fill="none"/>
 </g>
 <g id="g126" transform="translate(0 -6.0799)">
  <path id="rect128" fill="#eee" d="m460 280h83.75v40h-83.75z"/>
  <path id="rect130" d="m460 280h83.75v40h-83.75z" stroke="#000" stroke-width="2" fill="none"/>
 </g>
 <g id="g136" transform="translate(0 -6.0799)">
  <path id="rect138" fill="#eee" d="m460 400h83.75v40h-83.75z"/>
  <path id="rect140" d="m460 400h83.75v40h-83.75z" stroke="#000" stroke-width="2" fill="none"/>
 </g>
 <g id="g146" transform="translate(0 -6.0799)">
  <path id="rect148" fill="#eee" d="m420 40h40v40h-40z"/>
  <path id="rect150" d="m420 40h40v40h-40z" stroke="#000" stroke-width="2" fill="none"/>
  <g id="text152">
   <path id="path3303" style="" d="m439.99 54.327c-0.80257 0.000011-1.4071 0.39615-1.8135 1.1884-0.40129 0.78714-0.60193 1.973-0.60193 3.5575 0 1.5794 0.20064 2.7653 0.60193 3.5575 0.40642 0.78714 1.0109 1.1807 1.8135 1.1807 0.80771 0.000001 1.4122-0.39356 1.8135-1.1807 0.40642-0.79228 0.60963-1.9781 0.60964-3.5575-0.00001-1.5845-0.20322-2.7704-0.60964-3.5575-0.40129-0.79227-1.0058-1.1884-1.8135-1.1884m0-1.2347c1.2913 0.000011 2.2765 0.5119 2.9556 1.5357 0.68423 1.0187 1.0264 2.5003 1.0264 4.445-0.00001 1.9395-0.34213 3.4212-1.0264 4.445-0.6791 1.0186-1.6643 1.528-2.9556 1.528s-2.2791-0.50932-2.9633-1.528c-0.6791-1.0238-1.0186-2.5054-1.0186-4.445 0-1.9447 0.33955-3.4263 1.0186-4.445 0.68424-1.0238 1.672-1.5357 2.9633-1.5357"/>
  </g>
 </g>
 <g id="g156" transform="translate(0 -6.0799)">
  <path id="rect158" fill="#eee" d="m420 80h40v40h-40z"/>
  <path id="rect160" d="m420 80h40v40h-40z" stroke="#000" stroke-width="2" fill="none"/>
  <g id="text162">
   <path id="path3308" style="" d="m436.93 103.51h2.5466v-8.7897l-2.7704 0.55562v-1.4199l2.755-0.55562h1.5588v10.21h2.5466v1.3119h-6.6366v-1.3119"/>
  </g>
 </g>
 <g id="g166" transform="translate(0 -6.0799)">
  <path id="rect168" fill="#eee" d="m420 160h40v40h-40z"/>
  <path id="rect170" d="m420 160h40v40h-40z" stroke="#000" stroke-width="2" fill="none"/>
  <g id="text172">
   <path id="path3313" style="" d="m438 183.51h5.4405v1.3119h-7.3157v-1.3119c0.59163-0.61222 1.3968-1.4328 2.4154-2.4617 1.0238-1.0341 1.6669-1.7003 1.9292-1.9987 0.49902-0.56077 0.84629-1.0341 1.0418-1.4199 0.20064-0.39099 0.30096-0.77426 0.30096-1.1498 0-0.61221-0.21608-1.1112-0.64822-1.4971-0.42702-0.38584-0.98521-0.57876-1.6746-0.57877-0.48875 0.00001-1.0058 0.0849-1.5511 0.25466-0.54019 0.16978-1.119 0.42701-1.7363 0.7717v-1.5743c0.62765-0.25208 1.2141-0.44243 1.7595-0.57106 0.54533-0.1286 1.0444-0.19291 1.4971-0.19292 1.1936 0.00001 2.1453 0.2984 2.8553 0.89517 0.70995 0.59679 1.0649 1.3942 1.0649 2.3923-0.00001 0.47331-0.09 0.92347-0.27009 1.3505-0.17493 0.42187-0.49647 0.9209-0.96463 1.4971-0.12862 0.1492-0.53762 0.58135-1.227 1.2964-0.68939 0.70997-1.6617 1.7055-2.917 2.9865"/>
  </g>
 </g>
 <g id="g176" transform="translate(0 -6.0799)">
  <path id="rect178" fill="#eee" d="m420 200h40v40h-40z"/>
  <path id="rect180" d="m420 200h40v40h-40z" stroke="#000" stroke-width="2" fill="none"/>
  <g id="text182">
   <path id="path3318" style="" d="m441.38 218.61c0.74597 0.15949 1.3273 0.49132 1.744 0.99549 0.42186 0.50418 0.63279 1.1267 0.6328 1.8675-0.00001 1.137-0.39101 2.0167-1.173 2.6392-0.78199 0.62251-1.8932 0.93376-3.3337 0.93376-0.4836 0-0.98263-0.0489-1.4971-0.14662-0.50933-0.0926-1.0367-0.23409-1.582-0.42444v-1.5048c0.43215 0.25209 0.90546 0.44244 1.4199 0.57106 0.51446 0.12861 1.0521 0.19292 1.6128 0.19292 0.97748 0 1.7209-0.19292 2.2302-0.57877 0.51446-0.38585 0.77169-0.94662 0.7717-1.6823-0.00001-0.67909-0.23923-1.209-0.71768-1.5897-0.47332-0.38584-1.1344-0.57877-1.9833-0.57877h-1.3428v-1.281h1.4045c0.76655 0 1.353-0.15176 1.7595-0.45531 0.40642-0.30867 0.60964-0.75111 0.60965-1.3273-0.00001-0.59163-0.21094-1.0444-0.6328-1.3582-0.41672-0.31896-1.0161-0.47844-1.7981-0.47845-0.42701 0.00001-0.88488 0.0463-1.3736 0.1389-0.48875 0.0926-1.0264 0.23667-1.6128 0.43215v-1.389c0.59163-0.16462 1.1447-0.28809 1.6592-0.37042 0.51961-0.0823 1.0084-0.12346 1.4662-0.12347 1.1833 0.00001 2.1196 0.2701 2.809 0.81028 0.68938 0.53506 1.0341 1.2604 1.0341 2.1762-0.00001 0.63795-0.18264 1.1781-0.54791 1.6206-0.36527 0.43731-0.88488 0.74084-1.5588 0.91061"/>
  </g>
 </g>
 <g id="g186" transform="translate(0 -6.0799)">
  <path id="rect188" fill="#eee" d="m420 280h40v40h-40z"/>
  <path id="rect190" d="m420 280h40v40h-40z" stroke="#000" stroke-width="2" fill="none"/>
  <g id="text192">
   <path id="path3323" style="" d="m440.94 294.66-3.9357 6.1504h3.9357v-6.1504m-0.409-1.3582h1.9601v7.5086h1.6437v1.2965h-1.6437v2.7164h-1.5511v-2.7164h-5.2012v-1.5048l4.7922-7.3003"/>
  </g>
 </g>
 <g id="g196" transform="translate(0 -6.0799)">
  <path id="rect198" fill="#eee" d="m420 320h40v40h-40z"/>
  <path id="rect200" d="m420 320h40v40h-40z" stroke="#000" stroke-width="2" fill="none"/>
  <g id="text202">
   <path id="path3328" style="" d="m436.67 333.3h6.1196v1.3119h-4.6919v2.8244c0.22636-0.0772 0.45273-0.13375 0.6791-0.16977 0.22636-0.0412 0.45272-0.0617 0.67909-0.0617 1.2862 0.00001 2.3048 0.35242 3.0559 1.0572 0.75111 0.70482 1.1267 1.6592 1.1267 2.863-0.00001 1.2399-0.38586 2.2045-1.1576 2.8939-0.7717 0.68424-1.8598 1.0264-3.2643 1.0264-0.4836 0-0.97749-0.0411-1.4817-0.12347-0.49903-0.0823-1.0161-0.20578-1.5511-0.37041v-1.5666c0.46301 0.25209 0.94147 0.43987 1.4354 0.56334 0.49388 0.12347 1.0161 0.18521 1.5666 0.18521 0.89002 0 1.5948-0.23409 2.1144-0.70225 0.51961-0.46816 0.77941-1.1035 0.77942-1.9061-0.00001-0.80256-0.25981-1.4379-0.77942-1.9061-0.51961-0.46815-1.2244-0.70224-2.1144-0.70224-0.41673 0-0.83344 0.0463-1.2502 0.1389-0.41157 0.0926-0.83343 0.23666-1.2656 0.43216v-5.7878"/>
  </g>
 </g>
 <g id="g206" transform="translate(0 -6.0799)">
  <path id="rect208" fill="#eee" d="m420 400h40v40h-40z"/>
  <path id="rect210" d="m420 400h40v40h-40z" stroke="#000" stroke-width="2" fill="none"/>
  <g id="text212">
   <path id="path3333" style="" d="m440.19 418.44c-0.69968 0-1.2553 0.23923-1.6669 0.71768-0.40643 0.47846-0.60965 1.1344-0.60964 1.9678-0.00001 0.82829 0.20321 1.4842 0.60964 1.9678 0.41157 0.47846 0.96719 0.71769 1.6669 0.71768 0.69967 0.00001 1.2527-0.23922 1.6592-0.71768 0.41157-0.48359 0.61735-1.1395 0.61736-1.9678-0.00001-0.83343-0.20579-1.4894-0.61736-1.9678-0.40643-0.47845-0.95948-0.71768-1.6592-0.71768m3.0945-4.8849v1.4199c-0.391-0.1852-0.78714-0.32668-1.1884-0.42444-0.39614-0.0977-0.78971-0.14661-1.1807-0.14662-1.0289 0.00001-1.8161 0.34728-2.3614 1.0418-0.5402 0.69453-0.84888 1.744-0.92604 3.1485 0.30353-0.44758 0.68423-0.7897 1.1421-1.0264 0.45787-0.24179 0.96205-0.36269 1.5125-0.3627 1.1575 0.00001 2.0707 0.35242 2.7395 1.0572 0.67395 0.69968 1.0109 1.654 1.0109 2.863-0.00001 1.1833-0.34985 2.1325-1.0495 2.8476-0.69968 0.71511-1.6309 1.0727-2.7936 1.0727-1.3325 0-2.3511-0.50932-3.0559-1.528-0.70482-1.0238-1.0572-2.5054-1.0572-4.445 0-1.8212 0.43215-3.272 1.2965-4.3524 0.8643-1.0855 2.0244-1.6283 3.4804-1.6283 0.39099 0.00001 0.78455 0.0386 1.1807 0.11576 0.40128 0.0772 0.81799 0.19293 1.2502 0.34726"/>
  </g>
 </g>
 <g id="g216" transform="translate(0 -6.0799)">
  <path id="rect218" fill="#eee" d="m420 440h40v40h-40z"/>
  <path id="rect220" d="m420 440h40v40h-40z" stroke="#000" stroke-width="2" fill="none"/>
  <g id="text222">
   <path id="path3338" style="" d="m436.26 453.3h7.4083v0.66366l-4.1826 10.858h-1.6283l3.9357-10.21h-5.5331v-1.3119"/>
  </g>
 </g>
 <g id="text226">
  <path id="path3341" style="" d="m496.91 18.867c-0.00001-1.1759-0.24402-2.0873-0.73202-2.734-0.48213-0.64675-1.1612-0.97013-2.0373-0.97014-0.87018 0.000009-1.5493 0.32339-2.0373 0.97014-0.48213 0.64677-0.72319 1.5581-0.72319 2.734 0 1.17 0.24106 2.0784 0.72319 2.7252 0.48801 0.64676 1.1671 0.97014 2.0373 0.97014 0.87606 0.000002 1.5552-0.32338 2.0373-0.97014 0.488-0.64676 0.73201-1.5552 0.73202-2.7252m1.6228 3.8276c-0.00001 1.6816-0.37336 2.931-1.1201 3.7483-0.74672 0.82314-1.8903 1.2347-3.4308 1.2347-0.57032-0.000004-1.1083-0.0441-1.614-0.13229-0.50565-0.08232-0.9966-0.21167-1.4728-0.38806v-1.5787c0.47625 0.2587 0.94662 0.44979 1.4111 0.57326 0.46449 0.12347 0.9378 0.18521 1.4199 0.18521 1.0642-0.000002 1.8609-0.27928 2.3901-0.83785 0.52916-0.55269 0.79374-1.3905 0.79375-2.5135v-0.80257c-0.33515 0.58208-0.76436 1.0172-1.2876 1.3053-0.52329 0.2881-1.1495 0.43215-1.8785 0.43215-1.2112 0-2.1872-0.46155-2.928-1.3847-0.74084-0.9231-1.1112-2.1461-1.1112-3.6689 0-1.5287 0.37041-2.7546 1.1112-3.6777 0.74083-0.92309 1.7168-1.3846 2.928-1.3847 0.72907 0.00001 1.3552 0.14406 1.8785 0.43215 0.52328 0.28811 0.95249 0.7232 1.2876 1.3053v-1.4993h1.6228v8.6519"/>
  <path id="path3343" style="" d="m510.32 18.576v0.79375h-7.4612c0.0706 1.1171 0.4057 1.9697 1.0054 2.5576 0.6056 0.58208 1.4464 0.87312 2.5224 0.87312 0.62323 0.000001 1.2259-0.07643 1.808-0.2293 0.58796-0.15287 1.17-0.38217 1.7462-0.68792v1.5346c-0.58209 0.24694-1.1789 0.43509-1.7904 0.56444-0.61148 0.12935-1.2318 0.19403-1.8609 0.19403-1.5757 0-2.8252-0.45861-3.7483-1.3758-0.91722-0.91722-1.3758-2.1578-1.3758-3.7218 0-1.6169 0.43509-2.8986 1.3053-3.8453 0.87606-0.95249 2.0549-1.4287 3.5366-1.4287 1.3288 0.00001 2.3783 0.42922 3.1485 1.2876 0.7761 0.85255 1.1642 2.0138 1.1642 3.4837m-1.6228-0.47625c-0.0118-0.88782-0.26165-1.5963-0.74965-2.1255-0.48214-0.52916-1.123-0.79374-1.9226-0.79375-0.90547 0.000009-1.6316 0.25577-2.1784 0.76729-0.54093 0.51154-0.85255 1.2318-0.93486 2.1608l5.7856-0.0088m-1.561-8.6254h1.7551l-2.8751 3.3161h-1.3494l2.4694-3.3161"/>
  <path id="path3345" style="" d="m514.56 22.438v5.2387h-1.6316v-13.635h1.6316v1.4993c0.34102-0.58795 0.77023-1.023 1.2876-1.3053 0.52328-0.28809 1.1465-0.43214 1.8697-0.43215 1.1994 0.00001 2.1725 0.47626 2.9192 1.4287 0.75259 0.95251 1.1289 2.2049 1.1289 3.7571-0.00001 1.5522-0.3763 2.8046-1.1289 3.7571-0.74672 0.9525-1.7198 1.4287-2.9192 1.4287-0.7232 0-1.3464-0.14111-1.8697-0.42333-0.51741-0.2881-0.94662-0.72613-1.2876-1.3141m5.521-3.4484c-0.00001-1.1936-0.24695-2.1284-0.74083-2.8046-0.48802-0.68203-1.1612-1.023-2.0196-1.0231-0.85843 0.000009-1.5346 0.34103-2.0285 1.0231-0.48802 0.67616-0.73202 1.611-0.73202 2.8046s0.244 2.1314 0.73202 2.8134c0.49388 0.67616 1.17 1.0142 2.0285 1.0142 0.85841 0.000001 1.5316-0.33808 2.0196-1.0142 0.49388-0.68203 0.74082-1.6198 0.74083-2.8134"/>
  <path id="path3347" style="" d="m530.74 22.421h2.9104v-10.045l-3.1662 0.635v-1.6228l3.1485-0.635h1.7815v11.668h2.9104v1.4993h-7.5847v-1.4993"/>
 </g>
 <g id="text230">
  <path id="path3350" style="" d="m496.91 138.87c-0.00001-1.1759-0.24402-2.0873-0.73202-2.734-0.48213-0.64675-1.1612-0.97013-2.0373-0.97014-0.87018 0.00001-1.5493 0.32339-2.0373 0.97014-0.48213 0.64677-0.72319 1.5581-0.72319 2.734 0 1.17 0.24106 2.0784 0.72319 2.7252 0.48801 0.64676 1.1671 0.97014 2.0373 0.97014 0.87606 0 1.5552-0.32338 2.0373-0.97014 0.488-0.64676 0.73201-1.5552 0.73202-2.7252m1.6228 3.8276c-0.00001 1.6816-0.37336 2.931-1.1201 3.7483-0.74672 0.82314-1.8903 1.2347-3.4308 1.2347-0.57032 0-1.1083-0.0441-1.614-0.13229-0.50565-0.0823-0.9966-0.21167-1.4728-0.38806v-1.5787c0.47625 0.25871 0.94662 0.44979 1.4111 0.57327 0.46449 0.12347 0.9378 0.1852 1.4199 0.18521 1.0642-0.00001 1.8609-0.27929 2.3901-0.83785 0.52916-0.55269 0.79374-1.3905 0.79375-2.5135v-0.80257c-0.33515 0.58209-0.76436 1.0172-1.2876 1.3053-0.52329 0.2881-1.1495 0.43215-1.8785 0.43215-1.2112 0-2.1872-0.46155-2.928-1.3846-0.74084-0.9231-1.1112-2.1461-1.1112-3.6689 0-1.5287 0.37041-2.7546 1.1112-3.6777 0.74083-0.92309 1.7168-1.3846 2.928-1.3846 0.72907 0.00001 1.3552 0.14406 1.8785 0.43215 0.52328 0.28811 0.95249 0.7232 1.2876 1.3053v-1.4993h1.6228v8.6519"/>
  <path id="path3352" style="" d="m510.32 138.58v0.79375h-7.4612c0.0706 1.1171 0.4057 1.9697 1.0054 2.5576 0.6056 0.58208 1.4464 0.87312 2.5224 0.87312 0.62323 0 1.2259-0.0764 1.808-0.2293 0.58796-0.15287 1.17-0.38218 1.7462-0.68792v1.5346c-0.58209 0.24695-1.1789 0.4351-1.7904 0.56445-0.61148 0.12935-1.2318 0.19402-1.8609 0.19402-1.5757 0-2.8252-0.45861-3.7483-1.3758-0.91722-0.91722-1.3758-2.1578-1.3758-3.7218 0-1.6169 0.43509-2.8986 1.3053-3.8453 0.87606-0.95249 2.0549-1.4287 3.5366-1.4288 1.3288 0.00001 2.3783 0.42922 3.1485 1.2876 0.7761 0.85255 1.1642 2.0138 1.1642 3.4837m-1.6228-0.47625c-0.0118-0.88781-0.26165-1.5963-0.74965-2.1255-0.48214-0.52916-1.123-0.79374-1.9226-0.79375-0.90547 0.00001-1.6316 0.25577-2.1784 0.76729-0.54093 0.51154-0.85255 1.2318-0.93486 2.1608l5.7856-0.009m-1.561-8.6254h1.7551l-2.8751 3.3161h-1.3494l2.4694-3.3161"/>
  <path id="path3354" style="" d="m514.56 142.44v5.2387h-1.6316v-13.635h1.6316v1.4993c0.34102-0.58795 0.77023-1.023 1.2876-1.3053 0.52328-0.28809 1.1465-0.43214 1.8697-0.43215 1.1994 0.00001 2.1725 0.47626 2.9192 1.4288 0.75259 0.9525 1.1289 2.2049 1.1289 3.7571-0.00001 1.5522-0.3763 2.8046-1.1289 3.7571-0.74672 0.9525-1.7198 1.4287-2.9192 1.4287-0.7232 0-1.3464-0.14111-1.8697-0.42333-0.51741-0.2881-0.94662-0.72613-1.2876-1.3141m5.521-3.4484c-0.00001-1.1936-0.24695-2.1284-0.74083-2.8046-0.48802-0.68203-1.1612-1.023-2.0196-1.0231-0.85843 0.00001-1.5346 0.34103-2.0285 1.0231-0.48802 0.67616-0.73202 1.611-0.73202 2.8046s0.244 2.1314 0.73202 2.8134c0.49388 0.67615 1.17 1.0142 2.0285 1.0142 0.85841 0 1.5316-0.33808 2.0196-1.0142 0.49388-0.68204 0.74082-1.6198 0.74083-2.8134"/>
  <path id="path3356" style="" d="m531.97 142.42h6.2177v1.4993h-8.3608v-1.4993c0.67616-0.69968 1.5963-1.6375 2.7605-2.8134 1.17-1.1818 1.905-1.9432 2.2048-2.2842 0.57032-0.64087 0.9672-1.1818 1.1906-1.6228 0.2293-0.44684 0.34395-0.88488 0.34396-1.3141-0.00001-0.69966-0.24696-1.27-0.74084-1.711-0.48801-0.44096-1.126-0.66144-1.9138-0.66145-0.55857 0.00001-1.1495 0.097-1.7727 0.29104-0.61736 0.19404-1.2788 0.48802-1.9844 0.88194v-1.7992c0.71731-0.28809 1.3876-0.50564 2.0108-0.65264 0.62323-0.14698 1.1936-0.22048 1.711-0.22049 1.3641 0.00001 2.4518 0.34103 3.2632 1.0231 0.81138 0.68204 1.2171 1.5934 1.2171 2.734-0.00001 0.54093-0.1029 1.0554-0.30868 1.5434-0.19992 0.48214-0.56739 1.0525-1.1024 1.711-0.147 0.17052-0.61443 0.6644-1.4023 1.4817-0.78787 0.81139-1.8991 1.9491-3.3337 3.4131"/>
 </g>
 <g id="text234">
  <path id="path3359" style="" d="m496.91 258.87c-0.00001-1.1759-0.24402-2.0873-0.73202-2.734-0.48213-0.64675-1.1612-0.97013-2.0373-0.97014-0.87018 0.00001-1.5493 0.32339-2.0373 0.97014-0.48213 0.64676-0.72319 1.5581-0.72319 2.734 0 1.17 0.24106 2.0784 0.72319 2.7252 0.48801 0.64677 1.1671 0.97014 2.0373 0.97014 0.87606 0 1.5552-0.32337 2.0373-0.97014 0.488-0.64675 0.73201-1.5552 0.73202-2.7252m1.6228 3.8276c-0.00001 1.6816-0.37336 2.931-1.1201 3.7483-0.74672 0.82315-1.8903 1.2347-3.4308 1.2347-0.57032 0-1.1083-0.0441-1.614-0.13229-0.50565-0.0823-0.9966-0.21167-1.4728-0.38805v-1.5787c0.47625 0.2587 0.94662 0.44979 1.4111 0.57326 0.46449 0.12347 0.9378 0.18521 1.4199 0.18521 1.0642 0 1.8609-0.27928 2.3901-0.83785 0.52916-0.55268 0.79374-1.3905 0.79375-2.5135v-0.80257c-0.33515 0.58208-0.76436 1.0172-1.2876 1.3053-0.52329 0.2881-1.1495 0.43216-1.8785 0.43216-1.2112 0-2.1872-0.46155-2.928-1.3847-0.74084-0.92309-1.1112-2.146-1.1112-3.6689 0-1.5287 0.37041-2.7546 1.1112-3.6777 0.74083-0.9231 1.7168-1.3846 2.928-1.3847 0.72907 0.00001 1.3552 0.14407 1.8785 0.43216 0.52328 0.28811 0.95249 0.7232 1.2876 1.3053v-1.4993h1.6228v8.6519"/>
  <path id="path3361" style="" d="m510.32 258.58v0.79375h-7.4612c0.0706 1.1171 0.4057 1.9697 1.0054 2.5576 0.6056 0.58209 1.4464 0.87313 2.5224 0.87313 0.62323 0 1.2259-0.0764 1.808-0.22931 0.58796-0.15287 1.17-0.38217 1.7462-0.68791v1.5346c-0.58209 0.24694-1.1789 0.43509-1.7904 0.56444-0.61148 0.12935-1.2318 0.19403-1.8609 0.19403-1.5757 0-2.8252-0.45861-3.7483-1.3758-0.91722-0.91722-1.3758-2.1578-1.3758-3.7218 0-1.6169 0.43509-2.8986 1.3053-3.8453 0.87606-0.95249 2.0549-1.4287 3.5366-1.4288 1.3288 0.00001 2.3783 0.42923 3.1485 1.2876 0.7761 0.85256 1.1642 2.0138 1.1642 3.4837m-1.6228-0.47625c-0.0118-0.88782-0.26165-1.5963-0.74965-2.1255-0.48214-0.52916-1.123-0.79374-1.9226-0.79375-0.90547 0.00001-1.6316 0.25577-2.1784 0.76729-0.54093 0.51153-0.85255 1.2318-0.93486 2.1608l5.7856-0.009m-1.561-8.6254h1.7551l-2.8751 3.3161h-1.3494l2.4694-3.3161"/>
  <path id="path3363" style="" d="m514.56 262.44v5.2387h-1.6316v-13.635h1.6316v1.4993c0.34102-0.58795 0.77023-1.023 1.2876-1.3053 0.52328-0.28809 1.1465-0.43215 1.8697-0.43216 1.1994 0.00001 2.1725 0.47626 2.9192 1.4288 0.75259 0.95251 1.1289 2.2049 1.1289 3.7571-0.00001 1.5522-0.3763 2.8046-1.1289 3.7571-0.74672 0.9525-1.7198 1.4288-2.9192 1.4288-0.7232 0-1.3464-0.14111-1.8697-0.42333-0.51741-0.2881-0.94662-0.72614-1.2876-1.3141m5.521-3.4484c-0.00001-1.1936-0.24695-2.1284-0.74083-2.8046-0.48802-0.68203-1.1612-1.023-2.0196-1.023-0.85843 0.00001-1.5346 0.34102-2.0285 1.023-0.48802 0.67617-0.73202 1.611-0.73202 2.8046s0.244 2.1314 0.73202 2.8134c0.49388 0.67616 1.17 1.0142 2.0285 1.0142 0.85841 0 1.5316-0.33808 2.0196-1.0142 0.49388-0.68203 0.74082-1.6198 0.74083-2.8134"/>
  <path id="path3365" style="" d="m535.83 256.82c0.85253 0.18228 1.5169 0.56151 1.9932 1.1377 0.48212 0.57621 0.72318 1.2876 0.72319 2.1343-0.00001 1.2994-0.44686 2.3048-1.3406 3.0162-0.89371 0.71143-2.1637 1.0672-3.81 1.0672-0.55269 0-1.123-0.0559-1.711-0.16757-0.58208-0.10583-1.1847-0.26752-1.808-0.48507v-1.7198c0.49389 0.2881 1.0348 0.50565 1.6228 0.65264 0.58795 0.14699 1.2024 0.22049 1.8433 0.22049 1.1171 0 1.9667-0.22049 2.5488-0.66146 0.58796-0.44097 0.88194-1.0818 0.88195-1.9226-0.00001-0.7761-0.27341-1.3817-0.82021-1.8168-0.54093-0.44097-1.2965-0.66145-2.2666-0.66146h-1.5346v-1.464h1.6051c0.87606 0.00001 1.5463-0.17344 2.0108-0.52034 0.46448-0.35277 0.69673-0.85842 0.69674-1.5169-0.00001-0.67615-0.24108-1.1936-0.7232-1.5522-0.47625-0.36452-1.1612-0.54679-2.0549-0.5468-0.48802 0.00001-1.0113 0.0529-1.5699 0.15875-0.55857 0.10584-1.173 0.27047-1.8433 0.49389v-1.5875c0.67616-0.18814 1.3082-0.32925 1.8962-0.42333 0.59384-0.0941 1.1524-0.1411 1.6757-0.14111 1.3523 0.00001 2.4224 0.30869 3.2103 0.92604 0.78786 0.61149 1.1818 1.4405 1.1818 2.4871-0.00001 0.72908-0.20873 1.3464-0.62618 1.8521-0.41746 0.49977-1.0113 0.84667-1.7815 1.0407"/>
 </g>
 <g id="text238">
  <path id="path3368" style="" d="m496.91 378.87c-0.00001-1.1759-0.24402-2.0873-0.73202-2.734-0.48213-0.64675-1.1612-0.97013-2.0373-0.97014-0.87018 0.00001-1.5493 0.32339-2.0373 0.97014-0.48213 0.64676-0.72319 1.5581-0.72319 2.734 0 1.17 0.24106 2.0784 0.72319 2.7252 0.48801 0.64677 1.1671 0.97014 2.0373 0.97014 0.87606 0 1.5552-0.32337 2.0373-0.97014 0.488-0.64675 0.73201-1.5552 0.73202-2.7252m1.6228 3.8276c-0.00001 1.6816-0.37336 2.931-1.1201 3.7483-0.74672 0.82315-1.8903 1.2347-3.4308 1.2347-0.57032 0-1.1083-0.0441-1.614-0.13229-0.50565-0.0823-0.9966-0.21167-1.4728-0.38805v-1.5787c0.47625 0.2587 0.94662 0.44979 1.4111 0.57326 0.46449 0.12347 0.9378 0.18521 1.4199 0.18521 1.0642 0 1.8609-0.27928 2.3901-0.83785 0.52916-0.55268 0.79374-1.3905 0.79375-2.5135v-0.80257c-0.33515 0.58208-0.76436 1.0172-1.2876 1.3053-0.52329 0.2881-1.1495 0.43216-1.8785 0.43216-1.2112 0-2.1872-0.46155-2.928-1.3847-0.74084-0.92309-1.1112-2.146-1.1112-3.6689 0-1.5287 0.37041-2.7546 1.1112-3.6777 0.74083-0.9231 1.7168-1.3846 2.928-1.3847 0.72907 0.00001 1.3552 0.14407 1.8785 0.43216 0.52328 0.28811 0.95249 0.7232 1.2876 1.3053v-1.4993h1.6228v8.6519"/>
  <path id="path3370" style="" d="m510.32 378.58v0.79375h-7.4612c0.0706 1.1171 0.4057 1.9697 1.0054 2.5576 0.6056 0.58209 1.4464 0.87313 2.5224 0.87313 0.62323 0 1.2259-0.0764 1.808-0.22931 0.58796-0.15287 1.17-0.38217 1.7462-0.68791v1.5346c-0.58209 0.24694-1.1789 0.43509-1.7904 0.56444-0.61148 0.12935-1.2318 0.19403-1.8609 0.19403-1.5757 0-2.8252-0.45861-3.7483-1.3758-0.91722-0.91722-1.3758-2.1578-1.3758-3.7218 0-1.6169 0.43509-2.8986 1.3053-3.8453 0.87606-0.95249 2.0549-1.4287 3.5366-1.4288 1.3288 0.00001 2.3783 0.42923 3.1485 1.2876 0.7761 0.85256 1.1642 2.0138 1.1642 3.4837m-1.6228-0.47625c-0.0118-0.88782-0.26165-1.5963-0.74965-2.1255-0.48214-0.52916-1.123-0.79374-1.9226-0.79375-0.90547 0.00001-1.6316 0.25577-2.1784 0.76729-0.54093 0.51153-0.85255 1.2318-0.93486 2.1608l5.7856-0.009m-1.561-8.6254h1.7551l-2.8751 3.3161h-1.3494l2.4694-3.3161"/>
  <path id="path3372" style="" d="m514.56 382.44v5.2387h-1.6316v-13.635h1.6316v1.4993c0.34102-0.58795 0.77023-1.023 1.2876-1.3053 0.52328-0.28809 1.1465-0.43215 1.8697-0.43216 1.1994 0.00001 2.1725 0.47626 2.9192 1.4288 0.75259 0.95251 1.1289 2.2049 1.1289 3.7571-0.00001 1.5522-0.3763 2.8046-1.1289 3.7571-0.74672 0.9525-1.7198 1.4288-2.9192 1.4288-0.7232 0-1.3464-0.14111-1.8697-0.42333-0.51741-0.2881-0.94662-0.72614-1.2876-1.3141m5.521-3.4484c-0.00001-1.1936-0.24695-2.1284-0.74083-2.8046-0.48802-0.68203-1.1612-1.023-2.0196-1.023-0.85843 0.00001-1.5346 0.34102-2.0285 1.023-0.48802 0.67617-0.73202 1.611-0.73202 2.8046s0.244 2.1314 0.73202 2.8134c0.49388 0.67616 1.17 1.0142 2.0285 1.0142 0.85841 0 1.5316-0.33808 2.0196-1.0142 0.49388-0.68203 0.74082-1.6198 0.74083-2.8134"/>
  <path id="path3374" style="" d="m535.33 372.3-4.4979 7.0291h4.4979v-7.0291m-0.46743-1.5522h2.2401v8.5813h1.8785v1.4817h-1.8785v3.1044h-1.7727v-3.1044h-5.9443v-1.7198l5.4769-8.3432"/>
 </g>
</svg>
