<?xml version="1.0" encoding="UTF-8" standalone="no"?>
<!-- Created with Inkscape (http://www.inkscape.org/) -->
<svg id="svg2" xmlns:rdf="http://www.w3.org/1999/02/22-rdf-syntax-ns#" xmlns="http://www.w3.org/2000/svg" height="688.05" width="1027.6" version="1.1" xmlns:cc="http://creativecommons.org/ns#" xmlns:dc="http://purl.org/dc/elements/1.1/" viewBox="199 15 572 374.77164">
 <metadata id="metadata262">
  <rdf:RDF>
   <cc:Work rdf:about="">
    <dc:format>image/svg+xml</dc:format>
    <dc:type rdf:resource="http://purl.org/dc/dcmitype/StillImage"/>
   </cc:Work>
  </rdf:RDF>
 </metadata>
 <g id="g4" transform="translate(0 -7.1104)">
  <path id="rect6" fill="#fff" d="m200 140h120v40h-120z"/>
  <path id="rect8" d="m200 140h120v40h-120z" stroke="#000" stroke-width="2" fill="none"/>
  <g id="text10">
   <path id="path3112" style="" d="m215.62 153.3h9.7466v1.3119h-4.09v10.21h-1.5666v-10.21h-4.09v-1.3119"/>
   <path id="path3114" style="" d="m228.13 160.48c-1.1473 0-1.9421 0.13119-2.3846 0.39357-0.44244 0.26238-0.66366 0.70996-0.66366 1.3428 0 0.50418 0.16462 0.90546 0.49389 1.2038 0.3344 0.29325 0.78713 0.43987 1.3582 0.43987 0.78712 0 1.4173-0.27781 1.8907-0.83343 0.47845-0.56077 0.71767-1.3042 0.71768-2.2302v-0.3164h-1.4122m2.8321-0.58649v4.9312h-1.4199v-1.3119c-0.32412 0.52475-0.72798 0.91318-1.2116 1.1653-0.4836 0.24695-1.0752 0.37042-1.7749 0.37042-0.88488 0-1.5897-0.24694-2.1144-0.74083-0.51961-0.49903-0.77942-1.1653-0.77942-1.9987 0-0.97234 0.32411-1.7054 0.97234-2.1994 0.65337-0.49388 1.6257-0.74082 2.917-0.74083h1.991v-0.1389c-0.00001-0.65337-0.21608-1.1576-0.64823-1.5125-0.42701-0.36012-1.0289-0.54019-1.8058-0.54019-0.4939 0-0.97492 0.0592-1.4431 0.17749-0.46817 0.11833-0.91833 0.29582-1.3505 0.53247v-1.3119c0.51961-0.20063 1.0238-0.34983 1.5125-0.44758 0.48873-0.10289 0.96462-0.15434 1.4276-0.15434 1.2502 0 2.1839 0.32412 2.8013 0.97234 0.61735 0.64823 0.92603 1.6309 0.92604 2.9479"/>
   <path id="path3116" style="" d="m235.27 163.53v4.5839h-1.4276v-11.93h1.4276v1.3119c0.29838-0.51445 0.67394-0.89516 1.1267-1.1421 0.45787-0.25208 1.0032-0.37813 1.636-0.37813 1.0495 0 1.9009 0.41672 2.5543 1.2502 0.65851 0.83344 0.98777 1.9292 0.98778 3.2874-0.00001 1.3582-0.32927 2.454-0.98778 3.2874-0.65338 0.83343-1.5048 1.2502-2.5543 1.2502-0.6328 0-1.1781-0.12347-1.636-0.37042-0.45274-0.25208-0.8283-0.63536-1.1267-1.1498m4.8308-3.0173c0-1.0444-0.21608-1.8624-0.64822-2.454-0.42702-0.59677-1.0161-0.89516-1.7672-0.89517-0.75113 0.00001-1.3428 0.2984-1.7749 0.89517-0.42701 0.59165-0.64052 1.4096-0.64051 2.454-0.00001 1.0444 0.2135 1.8649 0.64051 2.4617 0.43214 0.59164 1.0238 0.88745 1.7749 0.88745 0.75111 0 1.3402-0.29581 1.7672-0.88745 0.43214-0.59678 0.64822-1.4174 0.64822-2.4617"/>
   <path id="path3118" style="" d="m249.44 156.43v1.3428c-0.40129-0.20578-0.81801-0.36012-1.2502-0.46302-0.43215-0.10288-0.87974-0.15433-1.3428-0.15434-0.70483 0.00001-1.2347 0.10805-1.5897 0.32412-0.34984 0.21608-0.52476 0.54019-0.52476 0.97234 0 0.32926 0.12604 0.58907 0.37813 0.77941 0.25209 0.18522 0.75884 0.36271 1.5202 0.53248l0.48617 0.10803c1.0084 0.21608 1.7235 0.52219 2.1453 0.91833 0.427 0.39099 0.64051 0.9389 0.64052 1.6437-0.00001 0.80256-0.31898 1.4379-0.95691 1.9061-0.6328 0.46817-1.5048 0.70225-2.6161 0.70225-0.46303 0-0.94662-0.0463-1.4508-0.13891-0.49903-0.0875-1.0264-0.22122-1.582-0.40128v-1.4662c0.52475 0.27267 1.0418 0.47846 1.5511 0.61736 0.50931 0.13376 1.0135 0.20064 1.5125 0.20064 0.6688 0 1.1833-0.11318 1.5434-0.33955 0.36012-0.2315 0.54019-0.55562 0.54019-0.97234 0-0.38584-0.13119-0.68166-0.39356-0.88745-0.25724-0.20578-0.82573-0.40385-1.7055-0.59421l-0.49389-0.11575c-0.87974-0.18521-1.5151-0.46816-1.9061-0.84887-0.391-0.38585-0.5865-0.91317-0.58649-1.582-0.00001-0.81285 0.2881-1.4405 0.8643-1.8829 0.5762-0.44243 1.3942-0.66366 2.454-0.66366 0.52475 0 1.0186 0.0386 1.4817 0.11575 0.46301 0.0772 0.89001 0.19293 1.281 0.34727"/>
   <path id="path3120" style="" d="m252.17 156.18h1.4199v8.643h-1.4199v-8.643m0-3.3646h1.4199v1.7981h-1.4199v-1.7981"/>
   <path id="path3122" style="" d="m261.65 153.3h1.5588v4.7228h5.6643v-4.7228h1.5588v11.521h-1.5588v-5.4868h-5.6643v5.4868h-1.5588v-11.521"/>
   <path id="path3124" style="" d="m277.4 160.48c-1.1473 0-1.9421 0.13119-2.3846 0.39357-0.44244 0.26238-0.66366 0.70996-0.66366 1.3428 0 0.50418 0.16462 0.90546 0.49389 1.2038 0.3344 0.29325 0.78712 0.43987 1.3582 0.43987 0.78712 0 1.4173-0.27781 1.8907-0.83343 0.47845-0.56077 0.71767-1.3042 0.71768-2.2302v-0.3164h-1.4122m2.8321-0.58649v4.9312h-1.4199v-1.3119c-0.32412 0.52475-0.72798 0.91318-1.2116 1.1653-0.4836 0.24695-1.0752 0.37042-1.7749 0.37042-0.88488 0-1.5897-0.24694-2.1144-0.74083-0.51961-0.49903-0.77942-1.1653-0.77942-1.9987 0-0.97234 0.32411-1.7054 0.97234-2.1994 0.65337-0.49388 1.6257-0.74082 2.917-0.74083h1.991v-0.1389c-0.00001-0.65337-0.21608-1.1576-0.64823-1.5125-0.42701-0.36012-1.0289-0.54019-1.8058-0.54019-0.4939 0-0.97492 0.0592-1.4431 0.17749-0.46817 0.11833-0.91833 0.29582-1.3505 0.53247v-1.3119c0.51961-0.20063 1.0238-0.34983 1.5125-0.44758 0.48873-0.10289 0.96462-0.15434 1.4276-0.15434 1.2502 0 2.1839 0.32412 2.8013 0.97234 0.61735 0.64823 0.92603 1.6309 0.92604 2.9479"/>
   <path id="path3126" style="" d="m284.54 163.53v4.5839h-1.4276v-11.93h1.4276v1.3119c0.29839-0.51445 0.67395-0.89516 1.1267-1.1421 0.45787-0.25208 1.0032-0.37813 1.636-0.37813 1.0495 0 1.9009 0.41672 2.5543 1.2502 0.65851 0.83344 0.98777 1.9292 0.98778 3.2874-0.00001 1.3582-0.32927 2.454-0.98778 3.2874-0.65338 0.83343-1.5048 1.2502-2.5543 1.2502-0.6328 0-1.1781-0.12347-1.636-0.37042-0.45274-0.25208-0.8283-0.63536-1.1267-1.1498m4.8308-3.0173c-0.00001-1.0444-0.21608-1.8624-0.64823-2.454-0.42701-0.59677-1.0161-0.89516-1.7672-0.89517-0.75112 0.00001-1.3428 0.2984-1.7749 0.89517-0.42701 0.59165-0.64051 1.4096-0.64051 2.454s0.2135 1.8649 0.64051 2.4617c0.43215 0.59164 1.0238 0.88745 1.7749 0.88745 0.75112 0 1.3402-0.29581 1.7672-0.88745 0.43215-0.59678 0.64822-1.4174 0.64823-2.4617"/>
   <path id="path3128" style="" d="m298.7 156.43v1.3428c-0.40129-0.20578-0.81801-0.36012-1.2502-0.46302-0.43216-0.10288-0.87974-0.15433-1.3428-0.15434-0.70482 0.00001-1.2347 0.10805-1.5897 0.32412-0.34984 0.21608-0.52476 0.54019-0.52475 0.97234-0.00001 0.32926 0.12604 0.58907 0.37813 0.77941 0.25208 0.18522 0.75883 0.36271 1.5202 0.53248l0.48617 0.10803c1.0083 0.21608 1.7234 0.52219 2.1453 0.91833 0.427 0.39099 0.6405 0.9389 0.64051 1.6437-0.00001 0.80256-0.31897 1.4379-0.95691 1.9061-0.6328 0.46817-1.5048 0.70225-2.6161 0.70225-0.46302 0-0.94662-0.0463-1.4508-0.13891-0.49903-0.0875-1.0264-0.22122-1.582-0.40128v-1.4662c0.52475 0.27267 1.0418 0.47846 1.5511 0.61736 0.50932 0.13376 1.0135 0.20064 1.5125 0.20064 0.6688 0 1.1833-0.11318 1.5434-0.33955 0.36012-0.2315 0.54018-0.55562 0.54019-0.97234-0.00001-0.38584-0.1312-0.68166-0.39357-0.88745-0.25724-0.20578-0.82572-0.40385-1.7054-0.59421l-0.49389-0.11575c-0.87974-0.18521-1.5151-0.46816-1.9061-0.84887-0.39099-0.38585-0.58649-0.91317-0.58649-1.582 0-0.81285 0.2881-1.4405 0.8643-1.8829 0.5762-0.44243 1.3942-0.66366 2.454-0.66366 0.52475 0 1.0186 0.0386 1.4817 0.11575 0.46301 0.0772 0.89002 0.19293 1.281 0.34727"/>
   <path id="path3130" style="" d="m301.44 156.18h1.4199v8.643h-1.4199v-8.643m0-3.3646h1.4199v1.7981h-1.4199v-1.7981"/>
  </g>
 </g>
 <g id="g14" transform="translate(0 -7.1104)">
  <path id="rect16" fill="#fff" d="m200 200h120v40h-120z"/>
  <path id="rect18" d="m200 200h120v40h-120z" stroke="#000" stroke-width="2" fill="none"/>
  <g id="text20">
   <path id="path3135" style="" d="m209.4 214.58v8.9594h1.883c1.5897 0 2.7524-0.36013 3.4881-1.0804 0.74082-0.72025 1.1112-1.8572 1.1112-3.4109-0.00001-1.5434-0.37042-2.6726-1.1112-3.3878-0.7357-0.72025-1.8984-1.0804-3.4881-1.0804h-1.883m-1.5588-1.281h3.2026c2.2328 0.00001 3.8714 0.4656 4.9157 1.3968 1.0444 0.92605 1.5665 2.3768 1.5666 4.3524-0.00001 1.9858-0.52476 3.4444-1.5743 4.3755-1.0495 0.93118-2.6855 1.3968-4.908 1.3968h-3.2026v-11.521"/>
   <path id="path3137" style="" d="m223.29 217.17c-0.76142 0-1.3633 0.29839-1.8058 0.89517-0.44244 0.59164-0.66366 1.4045-0.66366 2.4386s0.21864 1.8495 0.65594 2.4463c0.44244 0.59164 1.0469 0.88746 1.8135 0.88746 0.75626 0 1.3556-0.29839 1.7981-0.89517 0.44243-0.59678 0.66365-1.4096 0.66366-2.4386-0.00001-1.0238-0.22123-1.8341-0.66366-2.4309-0.44245-0.60191-1.0418-0.90288-1.7981-0.90288m0-1.2038c1.2347 0 2.2045 0.40129 2.9093 1.2038 0.70481 0.80257 1.0572 1.9138 1.0572 3.3337-0.00001 1.4148-0.35242 2.526-1.0572 3.3337-0.70482 0.80257-1.6746 1.2038-2.9093 1.2038-1.2399 0-2.2122-0.40128-2.917-1.2038-0.69967-0.80771-1.0495-1.919-1.0495-3.3337 0-1.4199 0.34984-2.5312 1.0495-3.3337 0.70482-0.80256 1.6772-1.2038 2.917-1.2038"/>
   <path id="path3139" style="" d="m236.79 219.61v5.2167h-1.4199v-5.1704c-0.00001-0.81799-0.15949-1.4302-0.47845-1.8366-0.31898-0.40642-0.79743-0.60964-1.4354-0.60965-0.76656 0.00001-1.3711 0.24438-1.8135 0.73312-0.44244 0.48875-0.66366 1.155-0.66366 1.9987v4.8849h-1.4276v-8.643h1.4276v1.3428c0.33955-0.5196 0.73826-0.90802 1.1961-1.1653 0.46301-0.25723 0.99548-0.38585 1.5974-0.38585 0.99292 0 1.744 0.30868 2.2534 0.92604 0.50932 0.61222 0.76398 1.5151 0.76399 2.7087"/>
   <path id="path3141" style="" d="m243.56 220.48c-1.1473 0-1.9421 0.13119-2.3846 0.39357-0.44244 0.26238-0.66366 0.70996-0.66366 1.3428 0 0.50418 0.16463 0.90546 0.49389 1.2038 0.3344 0.29325 0.78713 0.43987 1.3582 0.43987 0.78713 0 1.4174-0.27781 1.8907-0.83343 0.47845-0.56077 0.71768-1.3042 0.71768-2.2302v-0.3164h-1.4122m2.8321-0.58649v4.9312h-1.4199v-1.3119c-0.32412 0.52475-0.72797 0.91318-1.2116 1.1653-0.48361 0.24695-1.0752 0.37042-1.7749 0.37042-0.88489 0-1.5897-0.24694-2.1145-0.74083-0.51961-0.49903-0.77941-1.1653-0.77941-1.9987 0-0.97234 0.32411-1.7054 0.97234-2.1994 0.65337-0.49388 1.6257-0.74082 2.917-0.74083h1.991v-0.1389c0-0.65337-0.21608-1.1576-0.64822-1.5125-0.42702-0.36012-1.0289-0.54019-1.8058-0.54019-0.49389 0-0.97492 0.0592-1.4431 0.17749-0.46816 0.11833-0.91832 0.29582-1.3505 0.53247v-1.3119c0.51961-0.20063 1.0238-0.34983 1.5125-0.44758 0.48874-0.10289 0.96462-0.15434 1.4276-0.15434 1.2502 0 2.1839 0.32412 2.8013 0.97234 0.61735 0.64823 0.92603 1.6309 0.92604 2.9479"/>
   <path id="path3143" style="" d="m249.33 212.81h1.4199v12.008h-1.4199v-12.008"/>
   <path id="path3145" style="" d="m259.4 217.49v-4.6765h1.4199v12.008h-1.4199v-1.2965c-0.29839 0.51447-0.67653 0.89775-1.1344 1.1498-0.45274 0.24695-0.99807 0.37042-1.636 0.37042-1.0444 0-1.8958-0.41672-2.5543-1.2502-0.65337-0.83344-0.98006-1.9292-0.98006-3.2874s0.32669-2.454 0.98006-3.2874c0.65851-0.83343 1.51-1.2502 2.5543-1.2502 0.63794 0 1.1833 0.12605 1.636 0.37813 0.45786 0.24695 0.836 0.62766 1.1344 1.1421m-4.8386 3.0174c0 1.0444 0.2135 1.8649 0.64051 2.4617 0.43215 0.59164 1.0238 0.88745 1.7749 0.88745 0.75111 0 1.3428-0.29581 1.7749-0.88745 0.43214-0.59678 0.64822-1.4174 0.64822-2.4617 0-1.0444-0.21608-1.8624-0.64822-2.454-0.43216-0.59677-1.0238-0.89516-1.7749-0.89517-0.75113 0.00001-1.3428 0.2984-1.7749 0.89517-0.42701 0.59165-0.64051 1.4096-0.64051 2.454"/>
   <path id="path3147" style="" d="m268.84 213.3h1.5588v4.8694l5.1704-4.8694h2.0064l-5.7183 5.371 6.1273 6.1504h-2.0527l-5.5331-5.5485v5.5485h-1.5588v-11.521"/>
   <path id="path3149" style="" d="m282.8 220.48c-1.1473 0-1.9421 0.13119-2.3846 0.39357-0.44245 0.26238-0.66367 0.70996-0.66366 1.3428-0.00001 0.50418 0.16462 0.90546 0.49388 1.2038 0.3344 0.29325 0.78713 0.43987 1.3582 0.43987 0.78713 0 1.4174-0.27781 1.8907-0.83343 0.47844-0.56077 0.71767-1.3042 0.71768-2.2302v-0.3164h-1.4122m2.8321-0.58649v4.9312h-1.4199v-1.3119c-0.32412 0.52475-0.72798 0.91318-1.2116 1.1653-0.4836 0.24695-1.0752 0.37042-1.7749 0.37042-0.88488 0-1.5897-0.24694-2.1144-0.74083-0.51962-0.49903-0.77942-1.1653-0.77942-1.9987 0-0.97234 0.32411-1.7054 0.97234-2.1994 0.65337-0.49388 1.6257-0.74082 2.917-0.74083h1.991v-0.1389c-0.00001-0.65337-0.21609-1.1576-0.64823-1.5125-0.42701-0.36012-1.0289-0.54019-1.8058-0.54019-0.49389 0-0.97491 0.0592-1.4431 0.17749-0.46817 0.11833-0.91833 0.29582-1.3505 0.53247v-1.3119c0.51961-0.20063 1.0238-0.34983 1.5125-0.44758 0.48874-0.10289 0.96462-0.15434 1.4276-0.15434 1.2501 0 2.1839 0.32412 2.8013 0.97234 0.61736 0.64823 0.92604 1.6309 0.92604 2.9479"/>
   <path id="path3151" style="" d="m294.78 216.51v1.3273c-0.40129-0.22122-0.80515-0.38584-1.2116-0.49389-0.40129-0.11317-0.80772-0.16977-1.2193-0.16977-0.92089 0-1.636 0.29325-2.1453 0.87973-0.50932 0.58136-0.76398 1.3994-0.76398 2.454 0 1.0547 0.25466 1.8752 0.76398 2.4617 0.50932 0.58135 1.2244 0.87202 2.1453 0.87202 0.41157 0 0.818-0.054 1.2193-0.16206 0.40642-0.11318 0.81028-0.28038 1.2116-0.5016v1.3119c-0.39615 0.1852-0.80772 0.32411-1.2347 0.41671-0.42187 0.0926-0.87203 0.13891-1.3505 0.13891-1.3016 0-2.3357-0.409-3.1022-1.227-0.76655-0.818-1.1498-1.9215-1.1498-3.3106 0-1.4096 0.38585-2.5183 1.1576-3.326 0.77684-0.8077 1.8392-1.2116 3.1871-1.2116 0.43729 0 0.8643 0.0463 1.281 0.1389 0.41671 0.0875 0.82057 0.22123 1.2116 0.40129"/>
   <path id="path3153" style="" d="m302.78 216.43v1.3428c-0.40129-0.20578-0.81801-0.36012-1.2502-0.46302-0.43216-0.10288-0.87975-0.15433-1.3428-0.15434-0.70482 0.00001-1.2347 0.10805-1.5897 0.32412-0.34984 0.21608-0.52476 0.54019-0.52476 0.97234 0 0.32926 0.12605 0.58907 0.37814 0.77941 0.25208 0.18522 0.75883 0.36271 1.5202 0.53248l0.48617 0.10803c1.0084 0.21608 1.7235 0.52219 2.1453 0.91833 0.427 0.39099 0.6405 0.9389 0.64051 1.6437-0.00001 0.80256-0.31898 1.4379-0.95691 1.9061-0.6328 0.46817-1.5048 0.70225-2.6161 0.70225-0.46302 0-0.94662-0.0463-1.4508-0.13891-0.49904-0.0875-1.0264-0.22122-1.582-0.40128v-1.4662c0.52476 0.27267 1.0418 0.47846 1.5511 0.61736 0.50932 0.13376 1.0135 0.20064 1.5125 0.20064 0.6688 0 1.1833-0.11318 1.5434-0.33955 0.36012-0.2315 0.54018-0.55562 0.54019-0.97234-0.00001-0.38584-0.1312-0.68166-0.39357-0.88745-0.25724-0.20578-0.82572-0.40385-1.7054-0.59421l-0.49389-0.11575c-0.87974-0.18521-1.5151-0.46816-1.9061-0.84887-0.39099-0.38585-0.58649-0.91317-0.58649-1.582 0-0.81285 0.2881-1.4405 0.8643-1.8829 0.5762-0.44243 1.3942-0.66366 2.454-0.66366 0.52475 0 1.0186 0.0386 1.4817 0.11575 0.46301 0.0772 0.89002 0.19293 1.281 0.34727"/>
   <path id="path3155" style="" d="m309.44 220.48c-1.1473 0-1.9421 0.13119-2.3846 0.39357-0.44244 0.26238-0.66366 0.70996-0.66366 1.3428 0 0.50418 0.16463 0.90546 0.49389 1.2038 0.3344 0.29325 0.78713 0.43987 1.3582 0.43987 0.78713 0 1.4174-0.27781 1.8907-0.83343 0.47845-0.56077 0.71767-1.3042 0.71768-2.2302v-0.3164h-1.4122m2.8321-0.58649v4.9312h-1.4199v-1.3119c-0.32412 0.52475-0.72798 0.91318-1.2116 1.1653-0.4836 0.24695-1.0752 0.37042-1.7749 0.37042-0.88488 0-1.5897-0.24694-2.1144-0.74083-0.51961-0.49903-0.77942-1.1653-0.77942-1.9987 0-0.97234 0.32411-1.7054 0.97234-2.1994 0.65337-0.49388 1.6257-0.74082 2.917-0.74083h1.991v-0.1389c-0.00001-0.65337-0.21608-1.1576-0.64823-1.5125-0.42701-0.36012-1.0289-0.54019-1.8058-0.54019-0.49389 0-0.97492 0.0592-1.4431 0.17749-0.46817 0.11833-0.91832 0.29582-1.3505 0.53247v-1.3119c0.5196-0.20063 1.0238-0.34983 1.5125-0.44758 0.48874-0.10289 0.96462-0.15434 1.4276-0.15434 1.2502 0 2.1839 0.32412 2.8013 0.97234 0.61735 0.64823 0.92603 1.6309 0.92604 2.9479"/>
  </g>
 </g>
 <g id="g24" transform="translate(0 -7.1104)">
  <path id="rect26" fill="#fff" d="m200 260h120v40h-120z"/>
  <path id="rect28" d="m200 260h120v40h-120z" stroke="#000" stroke-width="2" fill="none"/>
  <g id="text30">
   <path id="path3160" style="" d="m247.43 273.3h9.7466v1.3119h-4.09v10.21h-1.5666v-10.21h-4.09v-1.3119"/>
   <path id="path3162" style="" d="m259.94 280.48c-1.1473 0.00001-1.9421 0.1312-2.3846 0.39357-0.44244 0.26238-0.66366 0.70997-0.66366 1.3428 0 0.50418 0.16463 0.90546 0.49389 1.2038 0.3344 0.29325 0.78713 0.43987 1.3582 0.43987 0.78713 0 1.4174-0.27781 1.8907-0.83344 0.47845-0.56076 0.71768-1.3042 0.71768-2.2302v-0.3164h-1.4122m2.8321-0.58649v4.9312h-1.4199v-1.3119c-0.32412 0.52476-0.72797 0.91318-1.2116 1.1653-0.4836 0.24694-1.0752 0.37041-1.7749 0.37041-0.88489 0-1.5897-0.24694-2.1145-0.74083-0.51961-0.49903-0.77942-1.1653-0.77942-1.9987 0-0.97234 0.32412-1.7054 0.97235-2.1993 0.65336-0.49388 1.6257-0.74083 2.917-0.74083h1.991v-0.13891c0-0.65336-0.21608-1.1575-0.64823-1.5125-0.42701-0.36012-1.0289-0.54018-1.8058-0.54019-0.49389 0.00001-0.97492 0.0592-1.4431 0.17749-0.46817 0.11834-0.91832 0.29583-1.3505 0.53247v-1.3119c0.51961-0.20064 1.0238-0.34983 1.5125-0.44759 0.48874-0.10288 0.96462-0.15433 1.4276-0.15434 1.2502 0.00001 2.1839 0.32412 2.8013 0.97234 0.61735 0.64824 0.92603 1.6309 0.92604 2.9479"/>
   <path id="path3164" style="" d="m265.09 276.18h6.7446v1.2964l-5.3402 6.2122h5.3402v1.1344h-6.9376v-1.2964l5.3402-6.2122h-5.1472v-1.1344"/>
  </g>
 </g>
 <g id="text34">
  <path id="path3167" style="" d="m244.67 117.67v5.2167h-1.4199v-5.1704c-0.00001-0.818-0.1595-1.4302-0.47846-1.8366-0.31897-0.40642-0.79743-0.60963-1.4354-0.60964-0.76656 0.00001-1.371 0.24438-1.8135 0.73312-0.44244 0.48875-0.66367 1.155-0.66366 1.9987v4.8848h-1.4276v-8.643h1.4276v1.3428c0.33954-0.5196 0.73825-0.90803 1.1961-1.1653 0.46302-0.25722 0.99549-0.38584 1.5974-0.38585 0.99291 0.00001 1.744 0.30869 2.2534 0.92604 0.50931 0.61222 0.76397 1.5151 0.76398 2.7087"/>
  <path id="path3169" style="" d="m254.91 118.21v0.69453h-6.5286c0.0617 0.97748 0.35498 1.7235 0.87973 2.2379 0.5299 0.50933 1.2656 0.76399 2.2071 0.76399 0.54533 0 1.0727-0.0669 1.582-0.20065 0.51446-0.13376 1.0238-0.3344 1.528-0.60192v1.3428c-0.50933 0.21608-1.0315 0.38071-1.5666 0.49389-0.53505 0.11318-1.0778 0.16978-1.6283 0.16978-1.3788 0-2.472-0.40129-3.2797-1.2038-0.80256-0.80257-1.2038-1.8881-1.2038-3.2566 0-1.4148 0.38071-2.5363 1.1421-3.3646 0.76655-0.83343 1.798-1.2502 3.0945-1.2502 1.1627 0.00001 2.081 0.37557 2.755 1.1267 0.67909 0.74599 1.0186 1.7621 1.0186 3.0482m-1.4199-0.41672c-0.0103-0.77684-0.22895-1.3968-0.65595-1.8598-0.42187-0.46301-0.98264-0.69452-1.6823-0.69453-0.79229 0.00001-1.4276 0.2238-1.9061 0.67138-0.47331 0.44759-0.74598 1.0778-0.818 1.8907l5.0624-0.008"/>
  <path id="path3171" style="" d="m256.23 114.25h1.5048l2.701 7.254 2.701-7.254h1.5048l-3.2411 8.643h-1.9292l-3.2411-8.643"/>
  <path id="path3173" style="" d="m273.99 118.21v0.69453h-6.5286c0.0617 0.97748 0.35498 1.7235 0.87974 2.2379 0.5299 0.50933 1.2656 0.76399 2.2071 0.76399 0.54533 0 1.0726-0.0669 1.582-0.20065 0.51446-0.13376 1.0238-0.3344 1.528-0.60192v1.3428c-0.50933 0.21608-1.0315 0.38071-1.5666 0.49389-0.53505 0.11318-1.0778 0.16978-1.6283 0.16978-1.3788 0-2.472-0.40129-3.2797-1.2038-0.80257-0.80257-1.2038-1.8881-1.2038-3.2566 0-1.4148 0.3807-2.5363 1.1421-3.3646 0.76656-0.83343 1.7981-1.2502 3.0945-1.2502 1.1627 0.00001 2.081 0.37557 2.755 1.1267 0.67909 0.74599 1.0186 1.7621 1.0186 3.0482m-1.4199-0.41672c-0.0103-0.77684-0.22894-1.3968-0.65594-1.8598-0.42187-0.46301-0.98264-0.69452-1.6823-0.69453-0.79228 0.00001-1.4276 0.2238-1.9061 0.67138-0.47332 0.44759-0.74598 1.0778-0.81801 1.8907l5.0624-0.008"/>
  <path id="path3175" style="" d="m276.27 110.88h1.4276v7.0919l4.2366-3.7273h1.8135l-4.5839 4.0437 4.7768 4.5993h-1.8521l-4.391-4.2212v4.2212h-1.4276v-12.008"/>
 </g>
 <g id="g38" transform="translate(0 -7.1104)">
  <path id="rect40" fill="#3a739a" d="m360 40h40v360h-40z"/>
  <path id="rect42" d="m360 40h40v360h-40z" stroke="#3a739a" stroke-width="2" fill="none"/>
 </g>
 <g id="g44" transform="translate(0 -7.1104)">
  <path id="rect46" fill="#fff" d="m680 140h90v40h-90z"/>
  <path id="rect48" d="m680 140h90v40h-90z" stroke="#000" stroke-width="2" fill="none"/>
  <g id="text50">
   <path id="path3182" style="" d="m688.63 153.3h6.1196v1.3119h-4.6919v2.8244c0.22636-0.0772 0.45273-0.13375 0.67909-0.16977 0.22636-0.0411 0.45273-0.0617 0.6791-0.0617 1.2862 0.00001 2.3048 0.35242 3.0559 1.0572 0.75111 0.70483 1.1267 1.6592 1.1267 2.863-0.00001 1.2399-0.38586 2.2045-1.1576 2.8939-0.77171 0.68424-1.8598 1.0264-3.2643 1.0264-0.4836 0-0.97749-0.0412-1.4817-0.12347-0.49903-0.0823-1.0161-0.20579-1.5511-0.37042v-1.5666c0.46302 0.25209 0.94148 0.43987 1.4354 0.56334 0.49389 0.12348 1.0161 0.18521 1.5666 0.18521 0.89003 0 1.5948-0.23408 2.1145-0.70225 0.5196-0.46816 0.77941-1.1035 0.77942-1.9061-0.00001-0.80257-0.25982-1.4379-0.77942-1.9061-0.51962-0.46816-1.2244-0.70224-2.1145-0.70225-0.41672 0.00001-0.83343 0.0463-1.2502 0.13891-0.41157 0.0926-0.83344 0.23666-1.2656 0.43215v-5.7877"/>
   <path id="path3184" style="" d="m698.69 153.3h6.1196v1.3119h-4.6919v2.8244c0.22636-0.0772 0.45272-0.13375 0.67909-0.16977 0.22636-0.0411 0.45273-0.0617 0.6791-0.0617 1.2862 0.00001 2.3048 0.35242 3.0559 1.0572 0.75111 0.70483 1.1267 1.6592 1.1267 2.863-0.00001 1.2399-0.38586 2.2045-1.1576 2.8939-0.77171 0.68424-1.8598 1.0264-3.2643 1.0264-0.4836 0-0.97749-0.0412-1.4817-0.12347-0.49904-0.0823-1.0161-0.20579-1.5511-0.37042v-1.5666c0.46302 0.25209 0.94147 0.43987 1.4354 0.56334 0.49389 0.12348 1.0161 0.18521 1.5666 0.18521 0.89002 0 1.5948-0.23408 2.1145-0.70225 0.5196-0.46816 0.77941-1.1035 0.77941-1.9061 0-0.80257-0.25981-1.4379-0.77941-1.9061-0.51962-0.46816-1.2244-0.70224-2.1145-0.70225-0.41672 0.00001-0.83344 0.0463-1.2502 0.13891-0.41158 0.0926-0.83344 0.23666-1.2656 0.43215v-5.7877"/>
   <path id="path3186" style="" d="m708.76 153.3h6.1196v1.3119h-4.6919v2.8244c0.22637-0.0772 0.45273-0.13375 0.6791-0.16977 0.22636-0.0411 0.45273-0.0617 0.67909-0.0617 1.2862 0.00001 2.3048 0.35242 3.0559 1.0572 0.75112 0.70483 1.1267 1.6592 1.1267 2.863 0 1.2399-0.38585 2.2045-1.1575 2.8939-0.77171 0.68424-1.8598 1.0264-3.2643 1.0264-0.4836 0-0.97749-0.0412-1.4817-0.12347-0.49904-0.0823-1.0161-0.20579-1.5511-0.37042v-1.5666c0.46302 0.25209 0.94147 0.43987 1.4354 0.56334 0.49388 0.12348 1.0161 0.18521 1.5666 0.18521 0.89002 0 1.5948-0.23408 2.1145-0.70225 0.5196-0.46816 0.7794-1.1035 0.77941-1.9061-0.00001-0.80257-0.25981-1.4379-0.77941-1.9061-0.51962-0.46816-1.2244-0.70224-2.1145-0.70225-0.41672 0.00001-0.83344 0.0463-1.2502 0.13891-0.41158 0.0926-0.83344 0.23666-1.2656 0.43215v-5.7877"/>
   <path id="path3188" style="" d="m717.88 159.86h4.1595v1.2656h-4.1595v-1.2656"/>
   <path id="path3190" style="" d="m724.78 163.51h2.5466v-8.7897l-2.7704 0.55563v-1.4199l2.755-0.55562h1.5588v10.21h2.5466v1.3119h-6.6366v-1.3119"/>
   <path id="path3192" style="" d="m735.92 163.51h5.4405v1.3119h-7.3157v-1.3119c0.59164-0.61222 1.3968-1.4328 2.4154-2.4617 1.0238-1.0341 1.6669-1.7003 1.9292-1.9987 0.49903-0.56077 0.84629-1.0341 1.0418-1.4199 0.20063-0.39099 0.30095-0.77426 0.30096-1.1498-0.00001-0.61221-0.21608-1.1112-0.64823-1.4971-0.42701-0.38584-0.98521-0.57876-1.6746-0.57877-0.48874 0.00001-1.0058 0.0849-1.5511 0.25466-0.54019 0.16978-1.119 0.42701-1.7363 0.7717v-1.5743c0.62765-0.25208 1.2141-0.44243 1.7595-0.57106 0.54533-0.1286 1.0444-0.19291 1.4971-0.19292 1.1936 0.00001 2.1453 0.2984 2.8553 0.89517 0.70996 0.59679 1.0649 1.3942 1.065 2.3923-0.00001 0.47331-0.09 0.92347-0.2701 1.3505-0.17492 0.42187-0.49646 0.9209-0.96462 1.4971-0.12863 0.1492-0.53763 0.58135-1.227 1.2964-0.68939 0.70997-1.6617 1.7055-2.917 2.9865"/>
   <path id="path3194" style="" d="m744.69 164.58v-1.4199c0.39099 0.18521 0.78713 0.32669 1.1884 0.42444 0.40128 0.0977 0.79485 0.14662 1.1807 0.14662 1.0289 0 1.8135-0.34469 2.3537-1.0341 0.54532-0.69452 0.85657-1.7466 0.93375-3.1562-0.2984 0.44245-0.67653 0.782-1.1344 1.0186-0.45788 0.23665-0.96463 0.35498-1.5202 0.35498-1.1524 0-2.0656-0.34726-2.7395-1.0418-0.6688-0.69966-1.0032-1.654-1.0032-2.863-0.00001-1.1833 0.34983-2.1324 1.0495-2.8476 0.69967-0.7151 1.6308-1.0726 2.7936-1.0727 1.3325 0.00001 2.3485 0.5119 3.0482 1.5357 0.70481 1.0186 1.0572 2.5003 1.0572 4.445-0.00001 1.8161-0.43216 3.2669-1.2965 4.3524-0.85916 1.0804-2.0167 1.6206-3.4726 1.6206-0.391 0-0.78714-0.0386-1.1884-0.11576-0.40129-0.0772-0.818-0.19292-1.2502-0.34726m3.1022-4.8849c0.69967 0.00001 1.2527-0.23922 1.6592-0.71768 0.41157-0.47844 0.61735-1.1344 0.61736-1.9678-0.00001-0.82828-0.20579-1.4816-0.61736-1.9601-0.40643-0.48358-0.95948-0.72538-1.6592-0.72539-0.69968 0.00001-1.2553 0.24181-1.6669 0.72539-0.40643 0.47847-0.60965 1.1318-0.60965 1.9601 0 0.83344 0.20322 1.4894 0.60965 1.9678 0.41157 0.47846 0.96719 0.71769 1.6669 0.71768"/>
   <path id="path3196" style="" d="m758.04 159.35c-0.74084 0-1.3248 0.19807-1.7518 0.59421-0.42186 0.39614-0.63279 0.94147-0.63279 1.636s0.21093 1.2399 0.63279 1.636c0.42701 0.39614 1.0109 0.59421 1.7518 0.59421 0.74082 0 1.3247-0.19807 1.7518-0.59421 0.427-0.40128 0.6405-0.94661 0.64051-1.636-0.00001-0.69453-0.21351-1.2399-0.64051-1.636-0.42187-0.39614-1.0058-0.59421-1.7518-0.59421m-1.5588-0.66366c-0.66881-0.16463-1.191-0.47588-1.5666-0.93376-0.37042-0.45787-0.55563-1.0161-0.55563-1.6746 0-0.92088 0.32669-1.6488 0.98006-2.1839 0.65852-0.53503 1.5588-0.80255 2.701-0.80256 1.1472 0.00001 2.0476 0.26753 2.701 0.80256 0.65336 0.53506 0.98005 1.263 0.98005 2.1839 0 0.65853-0.18778 1.2167-0.56334 1.6746-0.37042 0.45788-0.88746 0.76913-1.5511 0.93376 0.75111 0.17492 1.335 0.51704 1.7518 1.0264 0.42185 0.50932 0.63278 1.1318 0.63279 1.8675-0.00001 1.1164-0.34213 1.973-1.0264 2.5698-0.6791 0.59678-1.654 0.89517-2.9247 0.89517s-2.2482-0.29839-2.9325-0.89517c-0.67909-0.59678-1.0186-1.4534-1.0186-2.5698 0-0.73568 0.21093-1.3582 0.63279-1.8675 0.42186-0.50932 1.0084-0.85144 1.7595-1.0264m-0.57106-2.4617c0 0.59679 0.1852 1.0624 0.55562 1.3968 0.37556 0.33441 0.90031 0.50161 1.5743 0.50161 0.6688 0 1.191-0.1672 1.5666-0.50161 0.3807-0.33439 0.57105-0.79998 0.57106-1.3968-0.00001-0.59677-0.19036-1.0624-0.57106-1.3968-0.37557-0.33439-0.89775-0.50159-1.5666-0.5016-0.67396 0.00001-1.1987 0.16721-1.5743 0.5016-0.37042 0.33441-0.55562 0.80001-0.55562 1.3968"/>
  </g>
 </g>
 <g id="g54" transform="translate(0 -7.1104)">
  <path id="rect56" fill="#fff" d="m680 220h90v40h-90z"/>
  <path id="rect58" d="m680 220h90v40h-90z" stroke="#000" stroke-width="2" fill="none"/>
  <g id="text60">
   <path id="path3201" style="" d="m688.63 233.3h6.1196v1.3119h-4.6919v2.8244c0.22636-0.0772 0.45273-0.13375 0.67909-0.16977 0.22636-0.0411 0.45273-0.0617 0.6791-0.0617 1.2862 0.00001 2.3048 0.35242 3.0559 1.0572 0.75111 0.70483 1.1267 1.6592 1.1267 2.863-0.00001 1.2399-0.38586 2.2045-1.1576 2.8939-0.77171 0.68424-1.8598 1.0264-3.2643 1.0264-0.4836 0-0.97749-0.0412-1.4817-0.12347-0.49903-0.0823-1.0161-0.20579-1.5511-0.37042v-1.5666c0.46302 0.25209 0.94148 0.43987 1.4354 0.56334 0.49389 0.12348 1.0161 0.18521 1.5666 0.18521 0.89003 0 1.5948-0.23408 2.1145-0.70225 0.5196-0.46816 0.77941-1.1035 0.77942-1.9061-0.00001-0.80257-0.25982-1.4379-0.77942-1.9061-0.51962-0.46816-1.2244-0.70224-2.1145-0.70225-0.41672 0.00001-0.83343 0.0463-1.2502 0.13891-0.41157 0.0926-0.83344 0.23666-1.2656 0.43215v-5.7877"/>
   <path id="path3203" style="" d="m698.69 233.3h6.1196v1.3119h-4.6919v2.8244c0.22636-0.0772 0.45272-0.13375 0.67909-0.16977 0.22636-0.0411 0.45273-0.0617 0.6791-0.0617 1.2862 0.00001 2.3048 0.35242 3.0559 1.0572 0.75111 0.70483 1.1267 1.6592 1.1267 2.863-0.00001 1.2399-0.38586 2.2045-1.1576 2.8939-0.77171 0.68424-1.8598 1.0264-3.2643 1.0264-0.4836 0-0.97749-0.0412-1.4817-0.12347-0.49904-0.0823-1.0161-0.20579-1.5511-0.37042v-1.5666c0.46302 0.25209 0.94147 0.43987 1.4354 0.56334 0.49389 0.12348 1.0161 0.18521 1.5666 0.18521 0.89002 0 1.5948-0.23408 2.1145-0.70225 0.5196-0.46816 0.77941-1.1035 0.77941-1.9061 0-0.80257-0.25981-1.4379-0.77941-1.9061-0.51962-0.46816-1.2244-0.70224-2.1145-0.70225-0.41672 0.00001-0.83344 0.0463-1.2502 0.13891-0.41158 0.0926-0.83344 0.23666-1.2656 0.43215v-5.7877"/>
   <path id="path3205" style="" d="m708.76 233.3h6.1196v1.3119h-4.6919v2.8244c0.22637-0.0772 0.45273-0.13375 0.6791-0.16977 0.22636-0.0411 0.45273-0.0617 0.67909-0.0617 1.2862 0.00001 2.3048 0.35242 3.0559 1.0572 0.75112 0.70483 1.1267 1.6592 1.1267 2.863 0 1.2399-0.38585 2.2045-1.1575 2.8939-0.77171 0.68424-1.8598 1.0264-3.2643 1.0264-0.4836 0-0.97749-0.0412-1.4817-0.12347-0.49904-0.0823-1.0161-0.20579-1.5511-0.37042v-1.5666c0.46302 0.25209 0.94147 0.43987 1.4354 0.56334 0.49388 0.12348 1.0161 0.18521 1.5666 0.18521 0.89002 0 1.5948-0.23408 2.1145-0.70225 0.5196-0.46816 0.7794-1.1035 0.77941-1.9061-0.00001-0.80257-0.25981-1.4379-0.77941-1.9061-0.51962-0.46816-1.2244-0.70224-2.1145-0.70225-0.41672 0.00001-0.83344 0.0463-1.2502 0.13891-0.41158 0.0926-0.83344 0.23666-1.2656 0.43215v-5.7877"/>
   <path id="path3207" style="" d="m717.88 239.86h4.1595v1.2656h-4.1595v-1.2656"/>
   <path id="path3209" style="" d="m724.56 244.58v-1.4199c0.39099 0.18521 0.78713 0.32669 1.1884 0.42444 0.40128 0.0977 0.79484 0.14662 1.1807 0.14662 1.0289 0 1.8135-0.34469 2.3537-1.0341 0.54533-0.69452 0.85658-1.7466 0.93376-3.1562-0.2984 0.44245-0.67653 0.782-1.1344 1.0186-0.45788 0.23665-0.96463 0.35498-1.5202 0.35498-1.1524 0-2.0656-0.34726-2.7395-1.0418-0.66881-0.69966-1.0032-1.654-1.0032-2.863 0-1.1833 0.34984-2.1324 1.0495-2.8476 0.69967-0.7151 1.6308-1.0726 2.7936-1.0727 1.3325 0.00001 2.3485 0.5119 3.0482 1.5357 0.70481 1.0186 1.0572 2.5003 1.0572 4.445-0.00001 1.8161-0.43216 3.2669-1.2964 4.3524-0.85917 1.0804-2.0167 1.6206-3.4726 1.6206-0.391 0-0.78714-0.0386-1.1884-0.11576-0.40128-0.0772-0.818-0.19292-1.2502-0.34726m3.1022-4.8849c0.69967 0.00001 1.2527-0.23922 1.6592-0.71768 0.41156-0.47844 0.61735-1.1344 0.61735-1.9678 0-0.82828-0.20579-1.4816-0.61735-1.9601-0.40644-0.48358-0.95949-0.72538-1.6592-0.72539-0.69968 0.00001-1.2553 0.24181-1.6669 0.72539-0.40643 0.47847-0.60964 1.1318-0.60964 1.9601 0 0.83344 0.20321 1.4894 0.60964 1.9678 0.41157 0.47846 0.96719 0.71769 1.6669 0.71768"/>
   <path id="path3211" style="" d="m734.62 244.58v-1.4199c0.39099 0.18521 0.78713 0.32669 1.1884 0.42444 0.40128 0.0977 0.79484 0.14662 1.1807 0.14662 1.0289 0 1.8135-0.34469 2.3537-1.0341 0.54533-0.69452 0.85658-1.7466 0.93375-3.1562-0.29839 0.44245-0.67653 0.782-1.1344 1.0186-0.45788 0.23665-0.96463 0.35498-1.5202 0.35498-1.1524 0-2.0656-0.34726-2.7395-1.0418-0.66881-0.69966-1.0032-1.654-1.0032-2.863 0-1.1833 0.34983-2.1324 1.0495-2.8476 0.69967-0.7151 1.6308-1.0726 2.7936-1.0727 1.3325 0.00001 2.3485 0.5119 3.0482 1.5357 0.70481 1.0186 1.0572 2.5003 1.0572 4.445-0.00001 1.8161-0.43216 3.2669-1.2964 4.3524-0.85917 1.0804-2.0167 1.6206-3.4726 1.6206-0.391 0-0.78714-0.0386-1.1884-0.11576-0.40128-0.0772-0.818-0.19292-1.2502-0.34726m3.1022-4.8849c0.69967 0.00001 1.2527-0.23922 1.6592-0.71768 0.41157-0.47844 0.61736-1.1344 0.61736-1.9678 0-0.82828-0.20579-1.4816-0.61736-1.9601-0.40643-0.48358-0.95948-0.72538-1.6592-0.72539-0.69968 0.00001-1.2553 0.24181-1.6669 0.72539-0.40643 0.47847-0.60965 1.1318-0.60964 1.9601-0.00001 0.83344 0.20321 1.4894 0.60964 1.9678 0.41157 0.47846 0.96719 0.71769 1.6669 0.71768"/>
   <path id="path3213" style="" d="m744.91 243.51h2.5466v-8.7897l-2.7704 0.55563v-1.4199l2.755-0.55562h1.5588v10.21h2.5466v1.3119h-6.6366v-1.3119"/>
   <path id="path3215" style="" d="m756.05 243.51h5.4405v1.3119h-7.3157v-1.3119c0.59163-0.61222 1.3968-1.4328 2.4154-2.4617 1.0238-1.0341 1.6669-1.7003 1.9292-1.9987 0.49903-0.56077 0.84629-1.0341 1.0418-1.4199 0.20063-0.39099 0.30095-0.77426 0.30096-1.1498-0.00001-0.61221-0.21608-1.1112-0.64823-1.4971-0.42701-0.38584-0.98521-0.57876-1.6746-0.57877-0.48874 0.00001-1.0058 0.0849-1.5511 0.25466-0.54019 0.16978-1.119 0.42701-1.7363 0.7717v-1.5743c0.62764-0.25208 1.2141-0.44243 1.7595-0.57106 0.54533-0.1286 1.0444-0.19291 1.4971-0.19292 1.1936 0.00001 2.1453 0.2984 2.8553 0.89517 0.70996 0.59679 1.0649 1.3942 1.065 2.3923-0.00001 0.47331-0.09 0.92347-0.2701 1.3505-0.17492 0.42187-0.49646 0.9209-0.96462 1.4971-0.12862 0.1492-0.53762 0.58135-1.227 1.2964-0.68939 0.70997-1.6617 1.7055-2.917 2.9865"/>
  </g>
 </g>
 <g id="g64" transform="translate(0 -7.1104)">
  <path id="rect66" fill="#fff" d="m680 280h90v40h-90z"/>
  <path id="rect68" d="m680 280h90v40h-90z" stroke="#000" stroke-width="2" fill="none"/>
  <g id="text70">
   <path id="path3220" style="" d="m688.63 293.3h6.1196v1.3119h-4.6919v2.8244c0.22636-0.0772 0.45273-0.13375 0.67909-0.16977 0.22636-0.0412 0.45273-0.0617 0.6791-0.0617 1.2862 0.00001 2.3048 0.35242 3.0559 1.0572 0.75111 0.70482 1.1267 1.6592 1.1267 2.863-0.00001 1.2399-0.38586 2.2045-1.1576 2.8939-0.77171 0.68424-1.8598 1.0264-3.2643 1.0264-0.4836 0-0.97749-0.0411-1.4817-0.12347-0.49903-0.0823-1.0161-0.20578-1.5511-0.37041v-1.5666c0.46302 0.25209 0.94148 0.43987 1.4354 0.56334 0.49389 0.12347 1.0161 0.18521 1.5666 0.18521 0.89003 0 1.5948-0.23409 2.1145-0.70225 0.5196-0.46816 0.77941-1.1035 0.77942-1.9061-0.00001-0.80256-0.25982-1.4379-0.77942-1.9061-0.51962-0.46815-1.2244-0.70224-2.1145-0.70224-0.41672 0-0.83343 0.0463-1.2502 0.1389-0.41157 0.0926-0.83344 0.23666-1.2656 0.43216v-5.7878"/>
   <path id="path3222" style="" d="m698.69 293.3h6.1196v1.3119h-4.6919v2.8244c0.22636-0.0772 0.45272-0.13375 0.67909-0.16977 0.22636-0.0412 0.45273-0.0617 0.6791-0.0617 1.2862 0.00001 2.3048 0.35242 3.0559 1.0572 0.75111 0.70482 1.1267 1.6592 1.1267 2.863-0.00001 1.2399-0.38586 2.2045-1.1576 2.8939-0.77171 0.68424-1.8598 1.0264-3.2643 1.0264-0.4836 0-0.97749-0.0411-1.4817-0.12347-0.49904-0.0823-1.0161-0.20578-1.5511-0.37041v-1.5666c0.46302 0.25209 0.94147 0.43987 1.4354 0.56334 0.49389 0.12347 1.0161 0.18521 1.5666 0.18521 0.89002 0 1.5948-0.23409 2.1145-0.70225 0.5196-0.46816 0.77941-1.1035 0.77941-1.9061 0-0.80256-0.25981-1.4379-0.77941-1.9061-0.51962-0.46815-1.2244-0.70224-2.1145-0.70224-0.41672 0-0.83344 0.0463-1.2502 0.1389-0.41158 0.0926-0.83344 0.23666-1.2656 0.43216v-5.7878"/>
   <path id="path3224" style="" d="m708.76 293.3h6.1196v1.3119h-4.6919v2.8244c0.22637-0.0772 0.45273-0.13375 0.6791-0.16977 0.22636-0.0412 0.45273-0.0617 0.67909-0.0617 1.2862 0.00001 2.3048 0.35242 3.0559 1.0572 0.75112 0.70482 1.1267 1.6592 1.1267 2.863 0 1.2399-0.38585 2.2045-1.1575 2.8939-0.77171 0.68424-1.8598 1.0264-3.2643 1.0264-0.4836 0-0.97749-0.0411-1.4817-0.12347-0.49904-0.0823-1.0161-0.20578-1.5511-0.37041v-1.5666c0.46302 0.25209 0.94147 0.43987 1.4354 0.56334 0.49388 0.12347 1.0161 0.18521 1.5666 0.18521 0.89002 0 1.5948-0.23409 2.1145-0.70225 0.5196-0.46816 0.7794-1.1035 0.77941-1.9061-0.00001-0.80256-0.25981-1.4379-0.77941-1.9061-0.51962-0.46815-1.2244-0.70224-2.1145-0.70224-0.41672 0-0.83344 0.0463-1.2502 0.1389-0.41158 0.0926-0.83344 0.23666-1.2656 0.43216v-5.7878"/>
   <path id="path3226" style="" d="m717.88 299.86h4.1595v1.2656h-4.1595v-1.2656"/>
   <path id="path3228" style="" d="m724.56 304.58v-1.4199c0.39099 0.18521 0.78713 0.32668 1.1884 0.42443 0.40128 0.0978 0.79484 0.14663 1.1807 0.14663 1.0289 0 1.8135-0.3447 2.3537-1.0341 0.54533-0.69453 0.85658-1.7466 0.93376-3.1562-0.2984 0.44244-0.67653 0.78199-1.1344 1.0186-0.45788 0.23666-0.96463 0.35499-1.5202 0.35498-1.1524 0.00001-2.0656-0.34726-2.7395-1.0418-0.66881-0.69967-1.0032-1.654-1.0032-2.863 0-1.1833 0.34984-2.1324 1.0495-2.8476 0.69967-0.71509 1.6308-1.0726 2.7936-1.0727 1.3325 0.00001 2.3485 0.51191 3.0482 1.5357 0.70481 1.0187 1.0572 2.5003 1.0572 4.445-0.00001 1.8161-0.43216 3.2669-1.2964 4.3524-0.85917 1.0804-2.0167 1.6206-3.4726 1.6206-0.391 0-0.78714-0.0386-1.1884-0.11575-0.40128-0.0772-0.818-0.19293-1.2502-0.34727m3.1022-4.8848c0.69967 0 1.2527-0.23922 1.6592-0.71768 0.41156-0.47845 0.61735-1.1344 0.61735-1.9678 0-0.82828-0.20579-1.4816-0.61735-1.9601-0.40644-0.48359-0.95949-0.72539-1.6592-0.7254-0.69968 0.00001-1.2553 0.24181-1.6669 0.7254-0.40643 0.47846-0.60964 1.1318-0.60964 1.9601 0 0.83345 0.20321 1.4894 0.60964 1.9678 0.41157 0.47846 0.96719 0.71768 1.6669 0.71768"/>
   <path id="path3230" style="" d="m738.86 294.66-3.9357 6.1504h3.9357v-6.1504m-0.409-1.3582h1.9601v7.5086h1.6437v1.2965h-1.6437v2.7164h-1.5511v-2.7164h-5.2013v-1.5048l4.7923-7.3003"/>
   <path id="path3232" style="" d="m748.92 294.66-3.9357 6.1504h3.9357v-6.1504m-0.40901-1.3582h1.9601v7.5086h1.6437v1.2965h-1.6437v2.7164h-1.5511v-2.7164h-5.2013v-1.5048l4.7922-7.3003"/>
   <path id="path3234" style="" d="m756.05 303.51h5.4405v1.3119h-7.3157v-1.3119c0.59163-0.61221 1.3968-1.4328 2.4154-2.4617 1.0238-1.0341 1.6669-1.7003 1.9292-1.9987 0.49903-0.56076 0.84629-1.0341 1.0418-1.4199 0.20063-0.39098 0.30095-0.77426 0.30096-1.1498-0.00001-0.6122-0.21608-1.1112-0.64823-1.4971-0.42701-0.38584-0.98521-0.57877-1.6746-0.57878-0.48874 0.00001-1.0058 0.0849-1.5511 0.25466-0.54019 0.16979-1.119 0.42702-1.7363 0.7717v-1.5743c0.62764-0.25207 1.2141-0.44242 1.7595-0.57105 0.54533-0.12861 1.0444-0.19292 1.4971-0.19293 1.1936 0.00001 2.1453 0.2984 2.8553 0.89517 0.70996 0.59679 1.0649 1.3942 1.065 2.3923-0.00001 0.47332-0.09 0.92348-0.2701 1.3505-0.17492 0.42187-0.49646 0.92091-0.96462 1.4971-0.12862 0.1492-0.53762 0.58135-1.227 1.2965-0.68939 0.70996-1.6617 1.7054-2.917 2.9865"/>
  </g>
 </g>
 <g id="g74" stroke="#000" stroke-width="2" fill="none" transform="translate(0 -7.1104)">
  <path id="polyline76" d="m320 160h60l57.317 76.422"/>
  <path id="polyline78" d="m428.66 233.21 10 5-2-11"/>
 </g>
 <g id="g80" stroke="#000" stroke-width="2" fill="none" transform="translate(0 -7.1104)">
  <path id="polyline82" d="m320 220h60l56.838-56.838"/>
  <path id="polyline84" d="m434.88 172.19 3.536-10.607-10.607 3.536"/>
 </g>
 <g id="g86" stroke="#000" stroke-width="2" fill="none" transform="translate(0 -7.1104)">
  <path id="polyline88" d="m320 280h60l56.279-37.519"/>
  <path id="polyline90" d="m432.59 250.95 5.547-9.708-11.094 1.387"/>
 </g>
 <g id="text92">
  <path id="path3243" style="" d="m436.72 31.793v2.454h2.9247v1.1035h-2.9247v4.6919c0 0.70482 0.0952 1.1576 0.28553 1.3582 0.1955 0.20064 0.58906 0.30096 1.1807 0.30096h1.4585v1.1884h-1.4585c-1.0958 0-1.8521-0.20321-2.2688-0.60964-0.41672-0.41157-0.62508-1.1575-0.62508-2.2379v-4.6919h-1.0418v-1.1035h1.0418v-2.454h1.4276"/>
  <path id="path3245" style="" d="m445.45 38.545c-1.1473 0.000005-1.9421 0.13119-2.3846 0.39357-0.44244 0.26238-0.66366 0.70997-0.66366 1.3428 0 0.50418 0.16463 0.90546 0.49389 1.2038 0.3344 0.29325 0.78713 0.43987 1.3582 0.43987 0.78713 0.000001 1.4174-0.27781 1.8907-0.83344 0.47845-0.56077 0.71768-1.3042 0.71768-2.2302v-0.3164h-1.4122m2.8321-0.58649v4.9312h-1.4199v-1.3119c-0.32412 0.52476-0.72797 0.91318-1.2116 1.1653-0.4836 0.24694-1.0752 0.37042-1.7749 0.37042-0.88489 0-1.5897-0.24694-2.1145-0.74083-0.51961-0.49903-0.77942-1.1653-0.77942-1.9987 0-0.97234 0.32412-1.7055 0.97234-2.1993 0.65337-0.49388 1.6257-0.74083 2.917-0.74083h1.991v-0.1389c0-0.65337-0.21608-1.1575-0.64823-1.5125-0.42701-0.36012-1.0289-0.54018-1.8058-0.54019-0.49389 0.000007-0.97492 0.05917-1.4431 0.17749-0.46817 0.11834-0.91832 0.29583-1.3505 0.53247v-1.3119c0.51961-0.20063 1.0238-0.34983 1.5125-0.44758 0.48874-0.10288 0.96462-0.15433 1.4276-0.15434 1.2502 0.000009 2.1839 0.32412 2.8013 0.97234 0.61735 0.64823 0.92603 1.6309 0.92604 2.9479m-2.5929-7.7093h1.5357l-2.5157 2.9016h-1.1807l2.1608-2.9016"/>
  <path id="path3247" style="" d="m457.41 38.576c-0.00001-1.0444-0.21609-1.8624-0.64823-2.454-0.42701-0.59677-1.0161-0.89516-1.7672-0.89517-0.75113 0.000007-1.3428 0.2984-1.7749 0.89517-0.42701 0.59164-0.64051 1.4096-0.64051 2.454s0.2135 1.8649 0.64051 2.4617c0.43215 0.59164 1.0238 0.88746 1.7749 0.88745 0.75111 0.000001 1.3402-0.29582 1.7672-0.88745 0.43214-0.59678 0.64822-1.4174 0.64823-2.4617m-4.8308-3.0173c0.29839-0.51446 0.67395-0.89516 1.1267-1.1421 0.45787-0.25208 1.0032-0.37812 1.636-0.37813 1.0495 0.000009 1.901 0.41673 2.5543 1.2502 0.65851 0.83344 0.98776 1.9293 0.98777 3.2874-0.00001 1.3582-0.32926 2.454-0.98777 3.2874-0.65338 0.83344-1.5048 1.2502-2.5543 1.2502-0.6328 0-1.1781-0.12347-1.636-0.37042-0.45273-0.25209-0.82829-0.63536-1.1267-1.1498v1.2965h-1.4276v-12.008h1.4276v4.6765"/>
  <path id="path3249" style="" d="m461.24 30.882h1.4199v12.008h-1.4199v-12.008"/>
  <path id="path3251" style="" d="m469.55 38.545c-1.1473 0.000005-1.9421 0.13119-2.3846 0.39357-0.44245 0.26238-0.66367 0.70997-0.66367 1.3428 0 0.50418 0.16463 0.90546 0.49389 1.2038 0.3344 0.29325 0.78713 0.43987 1.3582 0.43987 0.78713 0.000001 1.4174-0.27781 1.8907-0.83344 0.47844-0.56077 0.71767-1.3042 0.71768-2.2302v-0.3164h-1.4122m2.8321-0.58649v4.9312h-1.4199v-1.3119c-0.32412 0.52476-0.72798 0.91318-1.2116 1.1653-0.48361 0.24694-1.0752 0.37042-1.7749 0.37042-0.88489 0-1.5897-0.24694-2.1145-0.74083-0.51961-0.49903-0.77941-1.1653-0.77941-1.9987 0-0.97234 0.32411-1.7055 0.97234-2.1993 0.65337-0.49388 1.6257-0.74083 2.917-0.74083h1.991v-0.1389c-0.00001-0.65337-0.21609-1.1575-0.64823-1.5125-0.42701-0.36012-1.0289-0.54018-1.8058-0.54019-0.49389 0.000007-0.97491 0.05917-1.4431 0.17749-0.46816 0.11834-0.91832 0.29583-1.3505 0.53247v-1.3119c0.51961-0.20063 1.0238-0.34983 1.5125-0.44758 0.48874-0.10288 0.96462-0.15433 1.4276-0.15434 1.2502 0.000009 2.1839 0.32412 2.8013 0.97234 0.61735 0.64823 0.92603 1.6309 0.92604 2.9479"/>
  <path id="path3253" style="" d="m475.19 30.882h3.272v1.1035h-1.8521v11.884h1.8521v1.1035h-3.272v-14.091"/>
  <path id="path3255" style="" d="m484.81 30.882v14.091h-3.272v-1.1035h1.8444v-11.884h-1.8444v-1.1035h3.272"/>
 </g>
 <g id="text96">
  <path id="path3258" style="" d="m363.5 17.673v5.2167h-1.4199v-5.1704c0-0.818-0.15949-1.4302-0.47845-1.8366-0.31898-0.40642-0.79743-0.60964-1.4354-0.60964-0.76656 0.000008-1.3711 0.24438-1.8135 0.73312-0.44245 0.48875-0.66367 1.155-0.66367 1.9987v4.8849h-1.4276v-12.008h1.4276v4.7074c0.33955-0.5196 0.73826-0.90802 1.1961-1.1653 0.46301-0.25722 0.99549-0.38584 1.5974-0.38585 0.99291 0.000009 1.744 0.30869 2.2534 0.92604 0.50931 0.61222 0.76397 1.5151 0.76398 2.7087"/>
  <path id="path3260" style="" d="m370.28 18.545c-1.1473 0.000005-1.9421 0.13119-2.3846 0.39357-0.44244 0.26238-0.66366 0.70997-0.66366 1.3428 0 0.50418 0.16462 0.90546 0.49389 1.2038 0.33439 0.29325 0.78712 0.43987 1.3582 0.43987 0.78712 0.000001 1.4173-0.27781 1.8907-0.83344 0.47845-0.56077 0.71767-1.3042 0.71768-2.2302v-0.3164h-1.4122m2.8321-0.58649v4.9312h-1.4199v-1.3119c-0.32412 0.52476-0.72798 0.91318-1.2116 1.1653-0.4836 0.24694-1.0752 0.37042-1.7749 0.37042-0.88488 0-1.5897-0.24694-2.1144-0.74083-0.51961-0.49903-0.77942-1.1653-0.77942-1.9987 0-0.97234 0.32411-1.7055 0.97234-2.1993 0.65337-0.49388 1.6257-0.74083 2.917-0.74083h1.991v-0.1389c-0.00001-0.65337-0.21608-1.1575-0.64823-1.5125-0.42701-0.36012-1.0289-0.54018-1.8058-0.54019-0.4939 0.000007-0.97492 0.05917-1.4431 0.17749-0.46817 0.11834-0.91833 0.29583-1.3505 0.53247v-1.3119c0.51961-0.20063 1.0238-0.34983 1.5125-0.44758 0.48874-0.10288 0.96462-0.15433 1.4276-0.15434 1.2502 0.000009 2.1839 0.32412 2.8013 0.97234 0.61735 0.64823 0.92603 1.6309 0.92604 2.9479"/>
  <path id="path3262" style="" d="m381.55 14.501v1.3428c-0.4013-0.20578-0.81801-0.36012-1.2502-0.46302-0.43215-0.10288-0.87974-0.15433-1.3428-0.15434-0.70483 0.000007-1.2347 0.10804-1.5897 0.32411-0.34984 0.21608-0.52476 0.5402-0.52476 0.97234 0 0.32926 0.12604 0.58907 0.37813 0.77942 0.25209 0.18521 0.75884 0.3627 1.5202 0.53247l0.48617 0.10804c1.0084 0.21608 1.7235 0.52219 2.1453 0.91832 0.427 0.391 0.64051 0.9389 0.64051 1.6437 0 0.80257-0.31897 1.4379-0.9569 1.9061-0.6328 0.46816-1.5048 0.70225-2.6161 0.70225-0.46303 0-0.94662-0.0463-1.4508-0.13891-0.49903-0.08746-1.0264-0.22122-1.582-0.40128v-1.4662c0.52475 0.27267 1.0418 0.47846 1.5511 0.61736 0.50932 0.13376 1.0135 0.20064 1.5125 0.20064 0.6688 0.000001 1.1833-0.11318 1.5434-0.33955 0.36012-0.23151 0.54019-0.55562 0.54019-0.97234 0-0.38585-0.13119-0.68166-0.39356-0.88745-0.25724-0.20578-0.82573-0.40385-1.7055-0.59421l-0.49389-0.11576c-0.87974-0.1852-1.5151-0.46816-1.9061-0.84887-0.391-0.38584-0.5865-0.91317-0.58649-1.582-0.00001-0.81285 0.28809-1.4405 0.8643-1.8829 0.5762-0.44243 1.3942-0.66365 2.454-0.66366 0.52475 0.000009 1.0186 0.03859 1.4817 0.11576 0.46302 0.07718 0.89002 0.19293 1.281 0.34726"/>
  <path id="path3264" style="" d="m391.47 17.673v5.2167h-1.4199v-5.1704c0-0.818-0.15949-1.4302-0.47845-1.8366-0.31897-0.40642-0.79743-0.60964-1.4354-0.60964-0.76656 0.000008-1.3711 0.24438-1.8135 0.73312-0.44245 0.48875-0.66367 1.155-0.66366 1.9987v4.8849h-1.4276v-12.008h1.4276v4.7074c0.33954-0.5196 0.73825-0.90802 1.1961-1.1653 0.46301-0.25722 0.99549-0.38584 1.5974-0.38585 0.99291 0.000009 1.744 0.30869 2.2534 0.92604 0.50931 0.61222 0.76397 1.5151 0.76398 2.7087"/>
  <path id="path3266" style="" d="m397.73 10.897c-0.68939 1.1833-1.2013 2.3537-1.5357 3.5112-0.33441 1.1576-0.50161 2.3305-0.5016 3.5189-0.00001 1.1884 0.16719 2.3665 0.5016 3.5344 0.33954 1.1627 0.85144 2.3331 1.5357 3.5112h-1.2347c-0.7717-1.209-1.3505-2.3974-1.7363-3.5653-0.38071-1.1678-0.57106-2.328-0.57106-3.4804 0-1.1473 0.19035-2.3022 0.57106-3.4649 0.3807-1.1627 0.95948-2.3511 1.7363-3.5652h1.2347"/>
  <path id="path3268" style="" d="m400.26 10.897h1.2347c0.7717 1.2142 1.3479 2.4026 1.7286 3.5652 0.38584 1.1627 0.57877 2.3177 0.57877 3.4649 0 1.1524-0.19293 2.3125-0.57877 3.4804-0.38071 1.1678-0.95691 2.3563-1.7286 3.5653h-1.2347c0.68424-1.1781 1.1936-2.3485 1.528-3.5112 0.33954-1.1678 0.50932-2.346 0.50932-3.5344s-0.16978-2.3614-0.50932-3.5189c-0.33441-1.1575-0.84373-2.3279-1.528-3.5112"/>
 </g>
 <g id="g100" transform="translate(0 -7.1104)">
  <path id="rect102" fill="#fff" d="m560 220h120v40h-120z"/>
  <path id="rect104" d="m560 220h120v40h-120z" stroke="#000" stroke-width="2" fill="none"/>
  <g id="text106">
   <path id="path3273" style="" d="m575.62 233.3h9.7466v1.3119h-4.09v10.21h-1.5666v-10.21h-4.09v-1.3119"/>
   <path id="path3275" style="" d="m588.13 240.48c-1.1473 0-1.9421 0.13119-2.3846 0.39357-0.44244 0.26238-0.66366 0.70996-0.66366 1.3428 0 0.50418 0.16462 0.90546 0.49389 1.2038 0.3344 0.29325 0.78713 0.43987 1.3582 0.43987 0.78712 0 1.4173-0.27781 1.8907-0.83343 0.47845-0.56077 0.71767-1.3042 0.71768-2.2302v-0.3164h-1.4122m2.8321-0.58649v4.9312h-1.4199v-1.3119c-0.32412 0.52475-0.72798 0.91318-1.2116 1.1653-0.4836 0.24695-1.0752 0.37042-1.7749 0.37042-0.88488 0-1.5897-0.24694-2.1144-0.74083-0.51961-0.49903-0.77942-1.1653-0.77942-1.9987 0-0.97234 0.32411-1.7054 0.97234-2.1994 0.65337-0.49388 1.6257-0.74082 2.917-0.74083h1.991v-0.1389c-0.00001-0.65337-0.21608-1.1576-0.64823-1.5125-0.42701-0.36012-1.0289-0.54019-1.8058-0.54019-0.4939 0-0.97492 0.0592-1.4431 0.17749-0.46817 0.11833-0.91833 0.29582-1.3505 0.53247v-1.3119c0.51961-0.20063 1.0238-0.34983 1.5125-0.44758 0.48873-0.10289 0.96462-0.15434 1.4276-0.15434 1.2502 0 2.1839 0.32412 2.8013 0.97234 0.61735 0.64823 0.92603 1.6309 0.92604 2.9479"/>
   <path id="path3277" style="" d="m595.27 243.53v4.5839h-1.4276v-11.93h1.4276v1.3119c0.29838-0.51445 0.67394-0.89516 1.1267-1.1421 0.45787-0.25208 1.0032-0.37813 1.636-0.37813 1.0495 0 1.9009 0.41672 2.5543 1.2502 0.65851 0.83344 0.98777 1.9292 0.98778 3.2874-0.00001 1.3582-0.32927 2.454-0.98778 3.2874-0.65338 0.83343-1.5048 1.2502-2.5543 1.2502-0.6328 0-1.1781-0.12347-1.636-0.37042-0.45274-0.25208-0.8283-0.63536-1.1267-1.1498m4.8308-3.0173c0-1.0444-0.21608-1.8624-0.64822-2.454-0.42702-0.59677-1.0161-0.89516-1.7672-0.89517-0.75113 0.00001-1.3428 0.2984-1.7749 0.89517-0.42701 0.59165-0.64052 1.4096-0.64051 2.454-0.00001 1.0444 0.2135 1.8649 0.64051 2.4617 0.43214 0.59164 1.0238 0.88745 1.7749 0.88745 0.75111 0 1.3402-0.29581 1.7672-0.88745 0.43214-0.59678 0.64822-1.4174 0.64822-2.4617"/>
   <path id="path3279" style="" d="m609.44 236.43v1.3428c-0.40129-0.20578-0.81801-0.36012-1.2502-0.46302-0.43215-0.10288-0.87974-0.15433-1.3428-0.15434-0.70483 0.00001-1.2347 0.10805-1.5897 0.32412-0.34984 0.21608-0.52476 0.54019-0.52476 0.97234 0 0.32926 0.12604 0.58907 0.37813 0.77941 0.25209 0.18522 0.75884 0.36271 1.5202 0.53248l0.48617 0.10803c1.0084 0.21608 1.7235 0.52219 2.1453 0.91833 0.427 0.39099 0.64051 0.9389 0.64052 1.6437-0.00001 0.80256-0.31898 1.4379-0.95691 1.9061-0.6328 0.46817-1.5048 0.70225-2.6161 0.70225-0.46303 0-0.94662-0.0463-1.4508-0.13891-0.49903-0.0875-1.0264-0.22122-1.582-0.40128v-1.4662c0.52475 0.27267 1.0418 0.47846 1.5511 0.61736 0.50931 0.13376 1.0135 0.20064 1.5125 0.20064 0.6688 0 1.1833-0.11318 1.5434-0.33955 0.36012-0.2315 0.54019-0.55562 0.54019-0.97234 0-0.38584-0.13119-0.68166-0.39356-0.88745-0.25724-0.20578-0.82573-0.40385-1.7055-0.59421l-0.49389-0.11575c-0.87974-0.18521-1.5151-0.46816-1.9061-0.84887-0.391-0.38585-0.5865-0.91317-0.58649-1.582-0.00001-0.81285 0.2881-1.4405 0.8643-1.8829 0.5762-0.44243 1.3942-0.66366 2.454-0.66366 0.52475 0 1.0186 0.0386 1.4817 0.11575 0.46301 0.0772 0.89001 0.19293 1.281 0.34727"/>
   <path id="path3281" style="" d="m612.17 236.18h1.4199v8.643h-1.4199v-8.643m0-3.3646h1.4199v1.7981h-1.4199v-1.7981"/>
   <path id="path3283" style="" d="m621.65 233.3h1.5588v4.7228h5.6643v-4.7228h1.5588v11.521h-1.5588v-5.4868h-5.6643v5.4868h-1.5588v-11.521"/>
   <path id="path3285" style="" d="m637.4 240.48c-1.1473 0-1.9421 0.13119-2.3846 0.39357-0.44244 0.26238-0.66366 0.70996-0.66366 1.3428 0 0.50418 0.16462 0.90546 0.49389 1.2038 0.3344 0.29325 0.78712 0.43987 1.3582 0.43987 0.78712 0 1.4173-0.27781 1.8907-0.83343 0.47845-0.56077 0.71767-1.3042 0.71768-2.2302v-0.3164h-1.4122m2.8321-0.58649v4.9312h-1.4199v-1.3119c-0.32412 0.52475-0.72798 0.91318-1.2116 1.1653-0.4836 0.24695-1.0752 0.37042-1.7749 0.37042-0.88488 0-1.5897-0.24694-2.1144-0.74083-0.51961-0.49903-0.77942-1.1653-0.77942-1.9987 0-0.97234 0.32411-1.7054 0.97234-2.1994 0.65337-0.49388 1.6257-0.74082 2.917-0.74083h1.991v-0.1389c-0.00001-0.65337-0.21608-1.1576-0.64823-1.5125-0.42701-0.36012-1.0289-0.54019-1.8058-0.54019-0.4939 0-0.97492 0.0592-1.4431 0.17749-0.46817 0.11833-0.91833 0.29582-1.3505 0.53247v-1.3119c0.51961-0.20063 1.0238-0.34983 1.5125-0.44758 0.48873-0.10289 0.96462-0.15434 1.4276-0.15434 1.2502 0 2.1839 0.32412 2.8013 0.97234 0.61735 0.64823 0.92603 1.6309 0.92604 2.9479"/>
   <path id="path3287" style="" d="m644.54 243.53v4.5839h-1.4276v-11.93h1.4276v1.3119c0.29839-0.51445 0.67395-0.89516 1.1267-1.1421 0.45787-0.25208 1.0032-0.37813 1.636-0.37813 1.0495 0 1.9009 0.41672 2.5543 1.2502 0.65851 0.83344 0.98777 1.9292 0.98778 3.2874-0.00001 1.3582-0.32927 2.454-0.98778 3.2874-0.65338 0.83343-1.5048 1.2502-2.5543 1.2502-0.6328 0-1.1781-0.12347-1.636-0.37042-0.45274-0.25208-0.8283-0.63536-1.1267-1.1498m4.8308-3.0173c-0.00001-1.0444-0.21608-1.8624-0.64823-2.454-0.42701-0.59677-1.0161-0.89516-1.7672-0.89517-0.75112 0.00001-1.3428 0.2984-1.7749 0.89517-0.42701 0.59165-0.64051 1.4096-0.64051 2.454s0.2135 1.8649 0.64051 2.4617c0.43215 0.59164 1.0238 0.88745 1.7749 0.88745 0.75112 0 1.3402-0.29581 1.7672-0.88745 0.43215-0.59678 0.64822-1.4174 0.64823-2.4617"/>
   <path id="path3289" style="" d="m658.7 236.43v1.3428c-0.40129-0.20578-0.81801-0.36012-1.2502-0.46302-0.43216-0.10288-0.87974-0.15433-1.3428-0.15434-0.70482 0.00001-1.2347 0.10805-1.5897 0.32412-0.34984 0.21608-0.52476 0.54019-0.52475 0.97234-0.00001 0.32926 0.12604 0.58907 0.37813 0.77941 0.25208 0.18522 0.75883 0.36271 1.5202 0.53248l0.48617 0.10803c1.0083 0.21608 1.7234 0.52219 2.1453 0.91833 0.427 0.39099 0.6405 0.9389 0.64051 1.6437-0.00001 0.80256-0.31897 1.4379-0.95691 1.9061-0.6328 0.46817-1.5048 0.70225-2.6161 0.70225-0.46302 0-0.94662-0.0463-1.4508-0.13891-0.49903-0.0875-1.0264-0.22122-1.582-0.40128v-1.4662c0.52475 0.27267 1.0418 0.47846 1.5511 0.61736 0.50932 0.13376 1.0135 0.20064 1.5125 0.20064 0.6688 0 1.1833-0.11318 1.5434-0.33955 0.36012-0.2315 0.54018-0.55562 0.54019-0.97234-0.00001-0.38584-0.1312-0.68166-0.39357-0.88745-0.25724-0.20578-0.82572-0.40385-1.7054-0.59421l-0.49389-0.11575c-0.87974-0.18521-1.5151-0.46816-1.9061-0.84887-0.39099-0.38585-0.58649-0.91317-0.58649-1.582 0-0.81285 0.2881-1.4405 0.8643-1.8829 0.5762-0.44243 1.3942-0.66366 2.454-0.66366 0.52475 0 1.0186 0.0386 1.4817 0.11575 0.46301 0.0772 0.89002 0.19293 1.281 0.34727"/>
   <path id="path3291" style="" d="m661.44 236.18h1.4199v8.643h-1.4199v-8.643m0-3.3646h1.4199v1.7981h-1.4199v-1.7981"/>
  </g>
 </g>
 <g id="g110" transform="translate(0 -7.1104)">
  <path id="rect112" fill="#fff" d="m560 280h120v40h-120z"/>
  <path id="rect114" d="m560 280h120v40h-120z" stroke="#000" stroke-width="2" fill="none"/>
  <g id="text116">
   <path id="path3296" style="" d="m607.43 293.3h9.7466v1.3119h-4.09v10.21h-1.5666v-10.21h-4.09v-1.3119"/>
   <path id="path3298" style="" d="m619.94 300.48c-1.1473 0.00001-1.9421 0.1312-2.3846 0.39357-0.44244 0.26238-0.66366 0.70997-0.66366 1.3428 0 0.50418 0.16463 0.90546 0.49389 1.2038 0.3344 0.29325 0.78713 0.43987 1.3582 0.43987 0.78713 0 1.4174-0.27781 1.8907-0.83344 0.47845-0.56076 0.71768-1.3042 0.71768-2.2302v-0.3164h-1.4122m2.8321-0.58649v4.9312h-1.4199v-1.3119c-0.32412 0.52476-0.72797 0.91318-1.2116 1.1653-0.4836 0.24694-1.0752 0.37041-1.7749 0.37041-0.88489 0-1.5897-0.24694-2.1145-0.74083-0.51961-0.49903-0.77942-1.1653-0.77942-1.9987 0-0.97234 0.32412-1.7054 0.97235-2.1993 0.65336-0.49388 1.6257-0.74083 2.917-0.74083h1.991v-0.13891c0-0.65336-0.21608-1.1575-0.64823-1.5125-0.42701-0.36012-1.0289-0.54018-1.8058-0.54019-0.49389 0.00001-0.97492 0.0592-1.4431 0.17749-0.46817 0.11834-0.91832 0.29583-1.3505 0.53247v-1.3119c0.51961-0.20064 1.0238-0.34983 1.5125-0.44759 0.48874-0.10288 0.96462-0.15433 1.4276-0.15434 1.2502 0.00001 2.1839 0.32412 2.8013 0.97234 0.61735 0.64824 0.92603 1.6309 0.92604 2.9479"/>
   <path id="path3300" style="" d="m625.09 296.18h6.7446v1.2964l-5.3402 6.2122h5.3402v1.1344h-6.9376v-1.2964l5.3402-6.2122h-5.1472v-1.1344"/>
  </g>
 </g>
 <g id="g120" transform="translate(0 -7.1104)">
  <path id="rect122" fill="#a3bbcc" d="m520 220h40v40h-40z"/>
  <path id="rect124" d="m520 220h40v40h-40z" stroke="#000" stroke-width="2" fill="none"/>
 </g>
 <g id="g130" transform="translate(0 -7.1104)">
  <path id="rect132" fill="#fff" d="m520 280h40v40h-40z"/>
  <path id="rect134" d="m520 280h40v40h-40z" stroke="#000" stroke-width="2" fill="none"/>
  <g id="text136">
   <path id="path3308" style="" d="m544.46 296.33-3.5267 3.5421 3.5267 3.5267-0.91832 0.93376-3.5421-3.5421-3.5421 3.5421-0.9106-0.93376 3.5189-3.5267-3.5189-3.5421 0.9106-0.93376 3.5421 3.5421 3.5421-3.5421 0.91832 0.93376"/>
  </g>
 </g>
 <g id="g140" transform="translate(0 -7.1104)">
  <path id="rect142" fill="#fff" d="m560 140h120v40h-120z"/>
  <path id="rect144" d="m560 140h120v40h-120z" stroke="#000" stroke-width="2" fill="none"/>
  <g id="text146">
   <path id="path3313" style="" d="m569.4 154.58v8.9594h1.883c1.5897 0 2.7524-0.36013 3.4881-1.0804 0.74082-0.72025 1.1112-1.8572 1.1112-3.4109-0.00001-1.5434-0.37042-2.6726-1.1112-3.3878-0.7357-0.72025-1.8984-1.0804-3.4881-1.0804h-1.883m-1.5588-1.281h3.2026c2.2328 0.00001 3.8714 0.4656 4.9157 1.3968 1.0444 0.92605 1.5665 2.3768 1.5666 4.3524-0.00001 1.9858-0.52476 3.4444-1.5743 4.3755-1.0495 0.93118-2.6855 1.3968-4.908 1.3968h-3.2026v-11.521"/>
   <path id="path3315" style="" d="m583.29 157.17c-0.76142 0-1.3633 0.29839-1.8058 0.89517-0.44244 0.59164-0.66366 1.4045-0.66366 2.4386s0.21864 1.8495 0.65594 2.4463c0.44244 0.59164 1.0469 0.88746 1.8135 0.88746 0.75626 0 1.3556-0.29839 1.7981-0.89517 0.44243-0.59678 0.66365-1.4096 0.66366-2.4386-0.00001-1.0238-0.22123-1.8341-0.66366-2.4309-0.44245-0.60191-1.0418-0.90288-1.7981-0.90288m0-1.2038c1.2347 0 2.2045 0.40129 2.9093 1.2038 0.70481 0.80257 1.0572 1.9138 1.0572 3.3337-0.00001 1.4148-0.35242 2.526-1.0572 3.3337-0.70482 0.80257-1.6746 1.2038-2.9093 1.2038-1.2399 0-2.2122-0.40128-2.917-1.2038-0.69967-0.80771-1.0495-1.919-1.0495-3.3337 0-1.4199 0.34984-2.5312 1.0495-3.3337 0.70482-0.80256 1.6772-1.2038 2.917-1.2038"/>
   <path id="path3317" style="" d="m596.79 159.61v5.2167h-1.4199v-5.1704c-0.00001-0.81799-0.15949-1.4302-0.47845-1.8366-0.31898-0.40642-0.79743-0.60964-1.4354-0.60965-0.76656 0.00001-1.3711 0.24438-1.8135 0.73312-0.44244 0.48875-0.66366 1.155-0.66366 1.9987v4.8849h-1.4276v-8.643h1.4276v1.3428c0.33955-0.5196 0.73826-0.90802 1.1961-1.1653 0.46301-0.25723 0.99548-0.38585 1.5974-0.38585 0.99292 0 1.744 0.30868 2.2534 0.92604 0.50932 0.61222 0.76398 1.5151 0.76399 2.7087"/>
   <path id="path3319" style="" d="m603.56 160.48c-1.1473 0-1.9421 0.13119-2.3846 0.39357-0.44244 0.26238-0.66366 0.70996-0.66366 1.3428 0 0.50418 0.16463 0.90546 0.49389 1.2038 0.3344 0.29325 0.78713 0.43987 1.3582 0.43987 0.78713 0 1.4174-0.27781 1.8907-0.83343 0.47845-0.56077 0.71768-1.3042 0.71768-2.2302v-0.3164h-1.4122m2.8321-0.58649v4.9312h-1.4199v-1.3119c-0.32412 0.52475-0.72797 0.91318-1.2116 1.1653-0.48361 0.24695-1.0752 0.37042-1.7749 0.37042-0.88489 0-1.5897-0.24694-2.1145-0.74083-0.51961-0.49903-0.77941-1.1653-0.77941-1.9987 0-0.97234 0.32411-1.7054 0.97234-2.1994 0.65337-0.49388 1.6257-0.74082 2.917-0.74083h1.991v-0.1389c0-0.65337-0.21608-1.1576-0.64822-1.5125-0.42702-0.36012-1.0289-0.54019-1.8058-0.54019-0.49389 0-0.97492 0.0592-1.4431 0.17749-0.46816 0.11833-0.91832 0.29582-1.3505 0.53247v-1.3119c0.51961-0.20063 1.0238-0.34983 1.5125-0.44758 0.48874-0.10289 0.96462-0.15434 1.4276-0.15434 1.2502 0 2.1839 0.32412 2.8013 0.97234 0.61735 0.64823 0.92603 1.6309 0.92604 2.9479"/>
   <path id="path3321" style="" d="m609.33 152.81h1.4199v12.008h-1.4199v-12.008"/>
   <path id="path3323" style="" d="m619.4 157.49v-4.6765h1.4199v12.008h-1.4199v-1.2965c-0.29839 0.51447-0.67653 0.89775-1.1344 1.1498-0.45274 0.24695-0.99807 0.37042-1.636 0.37042-1.0444 0-1.8958-0.41672-2.5543-1.2502-0.65337-0.83344-0.98006-1.9292-0.98006-3.2874s0.32669-2.454 0.98006-3.2874c0.65851-0.83343 1.51-1.2502 2.5543-1.2502 0.63794 0 1.1833 0.12605 1.636 0.37813 0.45786 0.24695 0.836 0.62766 1.1344 1.1421m-4.8386 3.0174c0 1.0444 0.2135 1.8649 0.64051 2.4617 0.43215 0.59164 1.0238 0.88745 1.7749 0.88745 0.75111 0 1.3428-0.29581 1.7749-0.88745 0.43214-0.59678 0.64822-1.4174 0.64822-2.4617 0-1.0444-0.21608-1.8624-0.64822-2.454-0.43216-0.59677-1.0238-0.89516-1.7749-0.89517-0.75113 0.00001-1.3428 0.2984-1.7749 0.89517-0.42701 0.59165-0.64051 1.4096-0.64051 2.454"/>
   <path id="path3325" style="" d="m628.84 153.3h1.5588v4.8694l5.1704-4.8694h2.0064l-5.7183 5.371 6.1273 6.1504h-2.0527l-5.5331-5.5485v5.5485h-1.5588v-11.521"/>
   <path id="path3327" style="" d="m642.8 160.48c-1.1473 0-1.9421 0.13119-2.3846 0.39357-0.44245 0.26238-0.66367 0.70996-0.66366 1.3428-0.00001 0.50418 0.16462 0.90546 0.49388 1.2038 0.3344 0.29325 0.78713 0.43987 1.3582 0.43987 0.78713 0 1.4174-0.27781 1.8907-0.83343 0.47844-0.56077 0.71767-1.3042 0.71768-2.2302v-0.3164h-1.4122m2.8321-0.58649v4.9312h-1.4199v-1.3119c-0.32412 0.52475-0.72798 0.91318-1.2116 1.1653-0.4836 0.24695-1.0752 0.37042-1.7749 0.37042-0.88488 0-1.5897-0.24694-2.1144-0.74083-0.51962-0.49903-0.77942-1.1653-0.77942-1.9987 0-0.97234 0.32411-1.7054 0.97234-2.1994 0.65337-0.49388 1.6257-0.74082 2.917-0.74083h1.991v-0.1389c-0.00001-0.65337-0.21609-1.1576-0.64823-1.5125-0.42701-0.36012-1.0289-0.54019-1.8058-0.54019-0.49389 0-0.97491 0.0592-1.4431 0.17749-0.46817 0.11833-0.91833 0.29582-1.3505 0.53247v-1.3119c0.51961-0.20063 1.0238-0.34983 1.5125-0.44758 0.48874-0.10289 0.96462-0.15434 1.4276-0.15434 1.2501 0 2.1839 0.32412 2.8013 0.97234 0.61736 0.64823 0.92604 1.6309 0.92604 2.9479"/>
   <path id="path3329" style="" d="m654.78 156.51v1.3273c-0.40129-0.22122-0.80515-0.38584-1.2116-0.49389-0.40129-0.11317-0.80772-0.16977-1.2193-0.16977-0.92089 0-1.636 0.29325-2.1453 0.87973-0.50932 0.58136-0.76398 1.3994-0.76398 2.454 0 1.0547 0.25466 1.8752 0.76398 2.4617 0.50932 0.58135 1.2244 0.87202 2.1453 0.87202 0.41157 0 0.818-0.054 1.2193-0.16206 0.40642-0.11318 0.81028-0.28038 1.2116-0.5016v1.3119c-0.39615 0.1852-0.80772 0.32411-1.2347 0.41671-0.42187 0.0926-0.87203 0.13891-1.3505 0.13891-1.3016 0-2.3357-0.409-3.1022-1.227-0.76655-0.818-1.1498-1.9215-1.1498-3.3106 0-1.4096 0.38585-2.5183 1.1576-3.326 0.77684-0.8077 1.8392-1.2116 3.1871-1.2116 0.43729 0 0.8643 0.0463 1.281 0.1389 0.41671 0.0875 0.82057 0.22123 1.2116 0.40129"/>
   <path id="path3331" style="" d="m662.78 156.43v1.3428c-0.40129-0.20578-0.81801-0.36012-1.2502-0.46302-0.43216-0.10288-0.87975-0.15433-1.3428-0.15434-0.70482 0.00001-1.2347 0.10805-1.5897 0.32412-0.34984 0.21608-0.52476 0.54019-0.52476 0.97234 0 0.32926 0.12605 0.58907 0.37814 0.77941 0.25208 0.18522 0.75883 0.36271 1.5202 0.53248l0.48617 0.10803c1.0084 0.21608 1.7235 0.52219 2.1453 0.91833 0.427 0.39099 0.6405 0.9389 0.64051 1.6437-0.00001 0.80256-0.31898 1.4379-0.95691 1.9061-0.6328 0.46817-1.5048 0.70225-2.6161 0.70225-0.46302 0-0.94662-0.0463-1.4508-0.13891-0.49904-0.0875-1.0264-0.22122-1.582-0.40128v-1.4662c0.52476 0.27267 1.0418 0.47846 1.5511 0.61736 0.50932 0.13376 1.0135 0.20064 1.5125 0.20064 0.6688 0 1.1833-0.11318 1.5434-0.33955 0.36012-0.2315 0.54018-0.55562 0.54019-0.97234-0.00001-0.38584-0.1312-0.68166-0.39357-0.88745-0.25724-0.20578-0.82572-0.40385-1.7054-0.59421l-0.49389-0.11575c-0.87974-0.18521-1.5151-0.46816-1.9061-0.84887-0.39099-0.38585-0.58649-0.91317-0.58649-1.582 0-0.81285 0.2881-1.4405 0.8643-1.8829 0.5762-0.44243 1.3942-0.66366 2.454-0.66366 0.52475 0 1.0186 0.0386 1.4817 0.11575 0.46301 0.0772 0.89002 0.19293 1.281 0.34727"/>
   <path id="path3333" style="" d="m669.44 160.48c-1.1473 0-1.9421 0.13119-2.3846 0.39357-0.44244 0.26238-0.66366 0.70996-0.66366 1.3428 0 0.50418 0.16463 0.90546 0.49389 1.2038 0.3344 0.29325 0.78713 0.43987 1.3582 0.43987 0.78713 0 1.4174-0.27781 1.8907-0.83343 0.47845-0.56077 0.71767-1.3042 0.71768-2.2302v-0.3164h-1.4122m2.8321-0.58649v4.9312h-1.4199v-1.3119c-0.32412 0.52475-0.72798 0.91318-1.2116 1.1653-0.4836 0.24695-1.0752 0.37042-1.7749 0.37042-0.88488 0-1.5897-0.24694-2.1144-0.74083-0.51961-0.49903-0.77942-1.1653-0.77942-1.9987 0-0.97234 0.32411-1.7054 0.97234-2.1994 0.65337-0.49388 1.6257-0.74082 2.917-0.74083h1.991v-0.1389c-0.00001-0.65337-0.21608-1.1576-0.64823-1.5125-0.42701-0.36012-1.0289-0.54019-1.8058-0.54019-0.49389 0-0.97492 0.0592-1.4431 0.17749-0.46817 0.11833-0.91832 0.29582-1.3505 0.53247v-1.3119c0.5196-0.20063 1.0238-0.34983 1.5125-0.44758 0.48874-0.10289 0.96462-0.15434 1.4276-0.15434 1.2502 0 2.1839 0.32412 2.8013 0.97234 0.61735 0.64823 0.92603 1.6309 0.92604 2.9479"/>
  </g>
 </g>
 <g id="g150" transform="translate(0 -7.1104)">
  <path id="rect152" fill="#fff" d="m520 140h40v40h-40z"/>
  <path id="rect154" d="m520 140h40v40h-40z" stroke="#000" stroke-width="2" fill="none"/>
  <g id="text156">
   <path id="path3338" style="" d="m544.46 156.33-3.5267 3.5421 3.5267 3.5267-0.91832 0.93376-3.5421-3.5421-3.5421 3.5421-0.9106-0.93376 3.5189-3.5267-3.5189-3.5421 0.9106-0.93375 3.5421 3.5421 3.5421-3.5421 0.91832 0.93375"/>
  </g>
 </g>
 <g id="g160" stroke="#000" stroke-width="2" fill="none" transform="translate(0 -7.1104)">
  <path id="line162" d="m540 260v15.528"/>
  <path id="polyline164" d="m535 267.76 5 10 5-10"/>
 </g>
 <g id="g166" stroke="#000" stroke-width="2" fill="none" transform="translate(0 -7.1104)">
  <path id="line168" d="m480 160h35.528"/>
  <path id="polyline170" d="m507.76 165 10-5-10-5"/>
 </g>
 <g id="g172" stroke="#000" stroke-width="2" fill="none" transform="translate(0 -7.1104)">
  <path id="line174" d="m480 240h35.528"/>
  <path id="polyline176" d="m507.76 245 10-5-10-5"/>
 </g>
 <g id="g178" transform="translate(0 -7.1104)">
  <path id="rect180" fill="#fff" d="m440 100h40v40h-40z"/>
  <path id="rect182" d="m440 100h40v40h-40z" stroke="#000" stroke-width="2" fill="none"/>
  <g id="text184">
   <path id="path3349" style="" d="m464.46 116.33-3.5267 3.5421 3.5267 3.5267-0.91832 0.93376-3.5421-3.5421-3.5421 3.5421-0.9106-0.93376 3.5189-3.5267-3.5189-3.5421 0.9106-0.93376 3.5421 3.5421 3.5421-3.5421 0.91832 0.93376"/>
  </g>
 </g>
 <g id="g188" transform="translate(0 -7.1104)">
  <path id="rect190" fill="#fff" d="m440 60h40v40h-40z"/>
  <path id="rect192" d="m440 60h40v40h-40z" stroke="#000" stroke-width="2" fill="none"/>
  <g id="text194">
   <path id="path3354" style="" d="m464.46 76.334-3.5267 3.5421 3.5267 3.5267-0.91832 0.93376-3.5421-3.5421-3.5421 3.5421-0.9106-0.93376 3.5189-3.5267-3.5189-3.5421 0.9106-0.93376 3.5421 3.5421 3.5421-3.5421 0.91832 0.93376"/>
  </g>
 </g>
 <g id="g198" transform="translate(0 -7.1104)">
  <path id="rect200" fill="#fff" d="m440 180h40v40h-40z"/>
  <path id="rect202" d="m440 180h40v40h-40z" stroke="#000" stroke-width="2" fill="none"/>
  <g id="text204">
   <path id="path3359" style="" d="m464.46 196.33-3.5267 3.5421 3.5267 3.5267-0.91832 0.93376-3.5421-3.5421-3.5421 3.5421-0.9106-0.93376 3.5189-3.5267-3.5189-3.5421 0.9106-0.93375 3.5421 3.5421 3.5421-3.5421 0.91832 0.93375"/>
  </g>
 </g>
 <g id="g208" transform="translate(0 -7.1104)">
  <path id="rect210" fill="#fff" d="m440 260h40v40h-40z"/>
  <path id="rect212" d="m440 260h40v40h-40z" stroke="#000" stroke-width="2" fill="none"/>
  <g id="text214">
   <path id="path3364" style="" d="m464.46 276.33-3.5267 3.5421 3.5267 3.5267-0.91832 0.93376-3.5421-3.5421-3.5421 3.5421-0.9106-0.93376 3.5189-3.5267-3.5189-3.5421 0.9106-0.93376 3.5421 3.5421 3.5421-3.5421 0.91832 0.93376"/>
  </g>
 </g>
 <g id="g218" transform="translate(0 -7.1104)">
  <path id="rect220" fill="#fff" d="m440 300h40v40h-40z"/>
  <path id="rect222" d="m440 300h40v40h-40z" stroke="#000" stroke-width="2" fill="none"/>
  <g id="text224">
   <path id="path3369" style="" d="m464.46 316.33-3.5267 3.5421 3.5267 3.5267-0.91832 0.93376-3.5421-3.5421-3.5421 3.5421-0.9106-0.93376 3.5189-3.5267-3.5189-3.5421 0.9106-0.93376 3.5421 3.5421 3.5421-3.5421 0.91832 0.93376"/>
  </g>
 </g>
 <g id="g228" transform="translate(0 -7.1104)">
  <path id="rect230" fill="#fff" d="m440 340h40v40h-40z"/>
  <path id="rect232" d="m440 340h40v40h-40z" stroke="#000" stroke-width="2" fill="none"/>
  <g id="text234">
   <path id="path3374" style="" d="m464.46 356.33-3.5267 3.5421 3.5267 3.5267-0.91832 0.93376-3.5421-3.5421-3.5421 3.5421-0.9106-0.93376 3.5189-3.5267-3.5189-3.5421 0.9106-0.93376 3.5421 3.5421 3.5421-3.5421 0.91832 0.93376"/>
  </g>
 </g>
 <g id="g238" transform="translate(0 -7.1104)">
  <path id="rect240" fill="#a3bbcc" d="m440 140h40v40h-40z"/>
  <path id="rect242" d="m440 140h40v40h-40z" stroke="#000" stroke-width="2" fill="none"/>
 </g>
 <g id="g248" transform="translate(0 -7.1104)">
  <path id="rect250" fill="#a3bbcc" d="m440 220h40v40h-40z"/>
  <path id="rect252" d="m440 220h40v40h-40z" stroke="#000" stroke-width="2" fill="none"/>
 </g>
</svg>
