<?xml version="1.0" encoding="UTF-8" standalone="no"?>
<!-- Created with Inkscape (http://www.inkscape.org/) -->
<svg id="svg2" xmlns:rdf="http://www.w3.org/1999/02/22-rdf-syntax-ns#" xmlns="http://www.w3.org/2000/svg" height="696.25" width="673.23" version="1.1" xmlns:cc="http://creativecommons.org/ns#" xmlns:dc="http://purl.org/dc/elements/1.1/" viewBox="189 13 372 381.20674">
 <metadata id="metadata234">
  <rdf:RDF>
   <cc:Work rdf:about="">
    <dc:format>image/svg+xml</dc:format>
    <dc:type rdf:resource="http://purl.org/dc/dcmitype/StillImage"/>
   </cc:Work>
  </rdf:RDF>
 </metadata>
 <g id="g4" transform="translate(0 -5.0351)">
  <path id="rect6" fill="#fff" d="m190 140h120v40h-120z"/>
  <path id="rect8" d="m190 140h120v40h-120z" stroke="#000" stroke-width="2" fill="none"/>
  <g id="text10">
   <path id="path3098" style="" d="m199.28 152.34h11.139v1.4993h-4.6743v11.668h-1.7903v-11.668h-4.6743v-1.4993"/>
   <path id="path3100" style="" d="m213.58 160.55c-1.3112 0.00001-2.2196 0.14994-2.7252 0.44979-0.50565 0.29987-0.75847 0.81139-0.75847 1.5346 0 0.57621 0.18815 1.0348 0.56445 1.3758 0.38217 0.33514 0.89957 0.50271 1.5522 0.50271 0.89957 0 1.6198-0.3175 2.1608-0.9525 0.54679-0.64087 0.8202-1.4905 0.8202-2.5488v-0.3616h-1.614m3.2367-0.67028v5.6356h-1.6228v-1.4993c-0.37042 0.59972-0.83197 1.0436-1.3846 1.3317-0.55269 0.28222-1.2288 0.42333-2.0285 0.42334-1.0113-0.00001-1.8168-0.28223-2.4165-0.84667-0.59384-0.57032-0.89077-1.3317-0.89076-2.2842-0.00001-1.1112 0.37041-1.9491 1.1112-2.5135 0.74671-0.56444 1.858-0.84666 3.3338-0.84667h2.2754v-0.15875c0-0.7467-0.24695-1.3229-0.74083-1.7286-0.48801-0.41156-1.1759-0.61735-2.0638-0.61736-0.56444 0.00001-1.1142 0.0676-1.6492 0.20285-0.53505 0.13524-1.0495 0.33809-1.5434 0.60854v-1.4993c0.59384-0.2293 1.17-0.39981 1.7286-0.51153 0.55856-0.11758 1.1024-0.17638 1.6316-0.17639 1.4288 0.00001 2.4959 0.37043 3.2015 1.1112 0.70554 0.74084 1.0583 1.8638 1.0583 3.369"/>
   <path id="path3102" style="" d="m221.74 164.03v5.2387h-1.6316v-13.635h1.6316v1.4993c0.34102-0.58795 0.77023-1.023 1.2876-1.3053 0.52328-0.28809 1.1465-0.43214 1.8697-0.43215 1.1994 0.00001 2.1725 0.47626 2.9192 1.4288 0.75259 0.95251 1.1289 2.2049 1.1289 3.7571-0.00001 1.5522-0.3763 2.8046-1.1289 3.7571-0.74672 0.9525-1.7198 1.4287-2.9192 1.4288-0.7232-0.00001-1.3464-0.14112-1.8697-0.42334-0.51741-0.2881-0.94662-0.72613-1.2876-1.3141m5.521-3.4484c-0.00001-1.1936-0.24695-2.1284-0.74083-2.8046-0.48802-0.68203-1.1612-1.023-2.0196-1.0231-0.85843 0.00001-1.5346 0.34103-2.0285 1.0231-0.48801 0.67616-0.73202 1.611-0.73202 2.8046s0.24401 2.1314 0.73202 2.8134c0.49388 0.67616 1.17 1.0142 2.0285 1.0142 0.85842 0 1.5316-0.33807 2.0196-1.0142 0.49388-0.68204 0.74082-1.6198 0.74083-2.8134"/>
   <path id="path3104" style="" d="m237.93 155.92v1.5346c-0.45861-0.23518-0.93486-0.41157-1.4287-0.52917-0.4939-0.11758-1.0054-0.17638-1.5346-0.17639-0.80551 0.00001-1.4111 0.12348-1.8168 0.37042-0.39982 0.24695-0.59972 0.61737-0.59972 1.1112 0 0.3763 0.14405 0.67322 0.43215 0.89076 0.2881 0.21167 0.86724 0.41452 1.7374 0.60854l0.55563 0.12347c1.1524 0.24695 1.9697 0.59679 2.4518 1.0495 0.488 0.44685 0.732 1.073 0.73201 1.8785-0.00001 0.91722-0.36454 1.6434-1.0936 2.1784-0.7232 0.53504-1.7198 0.80256-2.9898 0.80257-0.52917-0.00001-1.0818-0.0529-1.658-0.15875-0.57033-0.1-1.173-0.25283-1.808-0.45862v-1.6757c0.59972 0.31162 1.1906 0.54681 1.7727 0.70556 0.58208 0.15287 1.1583 0.2293 1.7286 0.2293 0.76435 0 1.3523-0.12935 1.7639-0.38805 0.41156-0.26458 0.61735-0.635 0.61736-1.1112-0.00001-0.44097-0.14994-0.77905-0.44979-1.0142-0.29399-0.23518-0.94369-0.46154-1.9491-0.67909l-0.56444-0.13229c-1.0054-0.21167-1.7316-0.53504-2.1784-0.97014-0.44685-0.44097-0.67028-1.0436-0.67028-1.808 0-0.92897 0.32926-1.6463 0.98778-2.1519 0.65851-0.50564 1.5934-0.75846 2.8046-0.75847 0.59971 0.00001 1.1642 0.0441 1.6933 0.13229 0.52916 0.0882 1.0172 0.2205 1.464 0.39688"/>
   <path id="path3106" style="" d="m241.05 155.63h1.6228v9.8778h-1.6228v-9.8778m0-3.8453h1.6228v2.0549h-1.6228v-2.0549"/>
   <path id="path3108" style="" d="m251.88 152.34h1.7815v5.3975h6.4735v-5.3975h1.7815v13.167h-1.7815v-6.2706h-6.4735v6.2706h-1.7815v-13.167"/>
   <path id="path3110" style="" d="m269.88 160.55c-1.3112 0.00001-2.2196 0.14994-2.7252 0.44979-0.50565 0.29987-0.75848 0.81139-0.75847 1.5346-0.00001 0.57621 0.18814 1.0348 0.56444 1.3758 0.38217 0.33514 0.89958 0.50271 1.5522 0.50271 0.89958 0 1.6198-0.3175 2.1608-0.9525 0.5468-0.64087 0.8202-1.4905 0.82021-2.5488v-0.3616h-1.614m3.2367-0.67028v5.6356h-1.6228v-1.4993c-0.37042 0.59972-0.83197 1.0436-1.3846 1.3317-0.55269 0.28222-1.2288 0.42333-2.0285 0.42334-1.0113-0.00001-1.8168-0.28223-2.4165-0.84667-0.59384-0.57032-0.89076-1.3317-0.89076-2.2842 0-1.1112 0.37042-1.9491 1.1112-2.5135 0.74671-0.56444 1.858-0.84666 3.3337-0.84667h2.2754v-0.15875c-0.00001-0.7467-0.24695-1.3229-0.74083-1.7286-0.48802-0.41156-1.1759-0.61735-2.0638-0.61736-0.56445 0.00001-1.1142 0.0676-1.6492 0.20285-0.53504 0.13524-1.0495 0.33809-1.5434 0.60854v-1.4993c0.59384-0.2293 1.17-0.39981 1.7286-0.51153 0.55856-0.11758 1.1024-0.17638 1.6316-0.17639 1.4287 0.00001 2.4959 0.37043 3.2014 1.1112 0.70555 0.74084 1.0583 1.8638 1.0583 3.369"/>
   <path id="path3112" style="" d="m278.04 164.03v5.2387h-1.6316v-13.635h1.6316v1.4993c0.34101-0.58795 0.77023-1.023 1.2876-1.3053 0.52328-0.28809 1.1465-0.43214 1.8697-0.43215 1.1994 0.00001 2.1725 0.47626 2.9192 1.4288 0.75258 0.95251 1.1289 2.2049 1.1289 3.7571-0.00001 1.5522-0.37631 2.8046-1.1289 3.7571-0.74672 0.9525-1.7198 1.4287-2.9192 1.4288-0.7232-0.00001-1.3464-0.14112-1.8697-0.42334-0.51741-0.2881-0.94663-0.72613-1.2876-1.3141m5.521-3.4484c0-1.1936-0.24695-2.1284-0.74083-2.8046-0.48801-0.68203-1.1612-1.023-2.0196-1.0231-0.85843 0.00001-1.5346 0.34103-2.0285 1.0231-0.48801 0.67616-0.73201 1.611-0.73201 2.8046s0.244 2.1314 0.73201 2.8134c0.49389 0.67616 1.17 1.0142 2.0285 1.0142 0.85842 0 1.5316-0.33807 2.0196-1.0142 0.49388-0.68204 0.74083-1.6198 0.74083-2.8134"/>
   <path id="path3114" style="" d="m294.23 155.92v1.5346c-0.45862-0.23518-0.93487-0.41157-1.4288-0.52917-0.49389-0.11758-1.0054-0.17638-1.5346-0.17639-0.80551 0.00001-1.4111 0.12348-1.8168 0.37042-0.39982 0.24695-0.59973 0.61737-0.59973 1.1112 0 0.3763 0.14405 0.67322 0.43216 0.89076 0.2881 0.21167 0.86724 0.41452 1.7374 0.60854l0.55562 0.12347c1.1524 0.24695 1.9697 0.59679 2.4518 1.0495 0.488 0.44685 0.73201 1.073 0.73202 1.8785-0.00001 0.91722-0.36455 1.6434-1.0936 2.1784-0.7232 0.53504-1.7198 0.80256-2.9898 0.80257-0.52917-0.00001-1.0819-0.0529-1.6581-0.15875-0.57032-0.1-1.173-0.25283-1.808-0.45862v-1.6757c0.59972 0.31162 1.1906 0.54681 1.7727 0.70556 0.58208 0.15287 1.1583 0.2293 1.7286 0.2293 0.76434 0 1.3523-0.12935 1.7639-0.38805 0.41157-0.26458 0.61736-0.635 0.61736-1.1112 0-0.44097-0.14993-0.77905-0.44979-1.0142-0.29399-0.23518-0.94368-0.46154-1.9491-0.67909l-0.56445-0.13229c-1.0054-0.21167-1.7316-0.53504-2.1784-0.97014-0.44685-0.44097-0.67028-1.0436-0.67027-1.808-0.00001-0.92897 0.32925-1.6463 0.98777-2.1519 0.65852-0.50564 1.5934-0.75846 2.8046-0.75847 0.59972 0.00001 1.1642 0.0441 1.6933 0.13229 0.52916 0.0882 1.0172 0.2205 1.464 0.39688"/>
   <path id="path3116" style="" d="m297.36 155.63h1.6228v9.8778h-1.6228v-9.8778m0-3.8453h1.6228v2.0549h-1.6228v-2.0549"/>
  </g>
 </g>
 <g id="g14" transform="translate(0 -5.0351)">
  <path id="rect16" fill="#fff" d="m190 200h120v40h-120z"/>
  <path id="rect18" d="m190 200h120v40h-120z" stroke="#000" stroke-width="2" fill="none"/>
  <g id="text20">
   <path id="path3121" style="" d="m195.05 213.81v10.239h2.1519c1.8168 0 3.1456-0.41158 3.9864-1.2347 0.84666-0.82314 1.27-2.1225 1.27-3.8982-0.00001-1.7639-0.42334-3.0545-1.27-3.8717-0.84079-0.82313-2.1696-1.2347-3.9864-1.2347h-2.1519m-1.7815-1.464h3.6601c2.5518 0.00001 4.4244 0.53212 5.618 1.5963 1.1936 1.0584 1.7903 2.7164 1.7903 4.9742-0.00001 2.2695-0.59973 3.9364-1.7992 5.0006s-3.0692 1.5963-5.6092 1.5963h-3.6601v-13.167"/>
   <path id="path3123" style="" d="m210.92 216.77c-0.87019 0.00001-1.5581 0.34103-2.0638 1.0231-0.50565 0.67616-0.75847 1.6051-0.75847 2.7869s0.24988 2.1137 0.74965 2.7958c0.50564 0.67616 1.1965 1.0142 2.0726 1.0142 0.8643 0 1.5493-0.34101 2.0549-1.023 0.50564-0.68203 0.75846-1.611 0.75847-2.7869-0.00001-1.17-0.25283-2.0961-0.75847-2.7781-0.50566-0.68791-1.1906-1.0319-2.0549-1.0319m0-1.3758c1.4111 0.00001 2.5194 0.45862 3.3249 1.3758 0.8055 0.91723 1.2083 2.1872 1.2083 3.81-0.00001 1.6169-0.40277 2.8869-1.2083 3.81-0.80551 0.91722-1.9138 1.3758-3.3249 1.3758-1.417-0.00001-2.5282-0.45862-3.3338-1.3758-0.79963-0.9231-1.1994-2.1931-1.1994-3.81 0-1.6228 0.39981-2.8928 1.1994-3.81 0.80551-0.91721 1.9168-1.3758 3.3338-1.3758"/>
   <path id="path3125" style="" d="m226.35 219.55v5.9619h-1.6228v-5.909c-0.00001-0.93485-0.18227-1.6345-0.5468-2.099-0.36455-0.46449-0.91135-0.69673-1.6404-0.69674-0.87607 0.00001-1.5669 0.27929-2.0726 0.83785-0.50566 0.55857-0.75848 1.32-0.75848 2.2842v5.5827h-1.6316v-9.8778h1.6316v1.5346c0.38806-0.59384 0.84373-1.0378 1.367-1.3317 0.52916-0.29397 1.1377-0.44096 1.8256-0.44097 1.1348 0.00001 1.9932 0.35279 2.5753 1.0583 0.58208 0.69969 0.87312 1.7316 0.87313 3.0956"/>
   <path id="path3127" style="" d="m234.09 220.55c-1.3112 0.00001-2.2196 0.14994-2.7252 0.44979-0.50565 0.29987-0.75848 0.81139-0.75847 1.5346-0.00001 0.57621 0.18814 1.0348 0.56444 1.3758 0.38217 0.33514 0.89958 0.50271 1.5522 0.50271 0.89958 0 1.6198-0.3175 2.1608-0.9525 0.5468-0.64087 0.8202-1.4905 0.82021-2.5488v-0.3616h-1.614m3.2367-0.67028v5.6356h-1.6228v-1.4993c-0.37043 0.59972-0.83197 1.0436-1.3846 1.3317-0.55269 0.28222-1.2288 0.42333-2.0285 0.42334-1.0113-0.00001-1.8168-0.28223-2.4165-0.84667-0.59384-0.57032-0.89076-1.3317-0.89076-2.2842 0-1.1112 0.37041-1.9491 1.1112-2.5135 0.74671-0.56444 1.858-0.84666 3.3337-0.84667h2.2754v-0.15875c-0.00001-0.7467-0.24695-1.3229-0.74083-1.7286-0.48802-0.41156-1.1759-0.61735-2.0638-0.61736-0.56445 0.00001-1.1142 0.0676-1.6492 0.20285-0.53504 0.13524-1.0495 0.33809-1.5434 0.60854v-1.4993c0.59384-0.2293 1.17-0.39981 1.7286-0.51153 0.55856-0.11758 1.1024-0.17638 1.6316-0.17639 1.4287 0.00001 2.4959 0.37043 3.2014 1.1112 0.70555 0.74084 1.0583 1.8638 1.0583 3.369"/>
   <path id="path3129" style="" d="m240.68 211.79h1.6228v13.723h-1.6228v-13.723"/>
   <path id="path3131" style="" d="m252.19 217.13v-5.3446h1.6228v13.723h-1.6228v-1.4817c-0.34103 0.58796-0.77318 1.026-1.2965 1.3141-0.51741 0.28222-1.1406 0.42333-1.8697 0.42334-1.1936-0.00001-2.1666-0.47625-2.9192-1.4288-0.74671-0.9525-1.1201-2.2049-1.1201-3.7571s0.37336-2.8046 1.1201-3.7571c0.75259-0.95249 1.7257-1.4287 2.9192-1.4288 0.72907 0.00001 1.3523 0.14406 1.8697 0.43215 0.52328 0.28223 0.95543 0.71733 1.2965 1.3053m-5.5298 3.4484c-0.00001 1.1936 0.244 2.1314 0.73201 2.8134 0.49388 0.67616 1.17 1.0142 2.0285 1.0142 0.85842 0 1.5346-0.33807 2.0285-1.0142 0.49388-0.68204 0.74082-1.6198 0.74083-2.8134-0.00001-1.1936-0.24695-2.1284-0.74083-2.8046-0.4939-0.68203-1.17-1.023-2.0285-1.0231-0.85843 0.00001-1.5346 0.34103-2.0285 1.0231-0.48801 0.67616-0.73202 1.611-0.73201 2.8046"/>
   <path id="path3133" style="" d="m257.22 212.34h1.7815v5.5651l5.909-5.5651h2.2931l-6.5352 6.1383 7.0026 7.0291h-2.346l-6.3235-6.3412v6.3412h-1.7815v-13.167"/>
   <path id="path3135" style="" d="m273.18 220.55c-1.3112 0.00001-2.2196 0.14994-2.7252 0.44979-0.50565 0.29987-0.75848 0.81139-0.75847 1.5346-0.00001 0.57621 0.18814 1.0348 0.56444 1.3758 0.38217 0.33514 0.89958 0.50271 1.5522 0.50271 0.89958 0 1.6198-0.3175 2.1608-0.9525 0.5468-0.64087 0.8202-1.4905 0.82021-2.5488v-0.3616h-1.614m3.2367-0.67028v5.6356h-1.6228v-1.4993c-0.37042 0.59972-0.83197 1.0436-1.3846 1.3317-0.55269 0.28222-1.2288 0.42333-2.0285 0.42334-1.0113-0.00001-1.8168-0.28223-2.4165-0.84667-0.59384-0.57032-0.89076-1.3317-0.89076-2.2842 0-1.1112 0.37042-1.9491 1.1112-2.5135 0.74671-0.56444 1.858-0.84666 3.3338-0.84667h2.2754v-0.15875c-0.00001-0.7467-0.24695-1.3229-0.74083-1.7286-0.48802-0.41156-1.1759-0.61735-2.0638-0.61736-0.56445 0.00001-1.1142 0.0676-1.6492 0.20285-0.53504 0.13524-1.0495 0.33809-1.5434 0.60854v-1.4993c0.59384-0.2293 1.17-0.39981 1.7286-0.51153 0.55856-0.11758 1.1024-0.17638 1.6316-0.17639 1.4287 0.00001 2.4959 0.37043 3.2014 1.1112 0.70555 0.74084 1.0583 1.8638 1.0583 3.369"/>
   <path id="path3137" style="" d="m286.87 216.01v1.5169c-0.45861-0.25281-0.92016-0.44096-1.3846-0.56444-0.45861-0.12934-0.9231-0.19402-1.3935-0.19403-1.0525 0.00001-1.8697 0.33515-2.4518 1.0054-0.58209 0.6644-0.87313 1.5993-0.87312 2.8046-0.00001 1.2053 0.29103 2.1431 0.87312 2.8134 0.58208 0.6644 1.3993 0.99659 2.4518 0.99659 0.47037 0 0.93486-0.0617 1.3935-0.1852 0.46449-0.12935 0.92604-0.32044 1.3846-0.57327v1.4993c-0.45274 0.21166-0.9231 0.37041-1.4111 0.47625-0.48213 0.10583-0.9966 0.15874-1.5434 0.15875-1.4876-0.00001-2.6694-0.46743-3.5454-1.4023-0.87606-0.93486-1.3141-2.196-1.3141-3.7835-0.00001-1.611 0.44097-2.8781 1.3229-3.8012 0.88782-0.92309 2.102-1.3846 3.6424-1.3846 0.49976 0.00001 0.98777 0.0529 1.464 0.15875 0.47624 0.1 0.93779 0.25283 1.3846 0.45861"/>
   <path id="path3139" style="" d="m296.01 215.92v1.5346c-0.45861-0.23518-0.93486-0.41157-1.4287-0.52917-0.4939-0.11758-1.0054-0.17638-1.5346-0.17639-0.80551 0.00001-1.4111 0.12348-1.8168 0.37042-0.39982 0.24695-0.59972 0.61737-0.59972 1.1112 0 0.3763 0.14405 0.67322 0.43215 0.89076 0.2881 0.21167 0.86724 0.41452 1.7374 0.60854l0.55562 0.12347c1.1524 0.24695 1.9697 0.59679 2.4518 1.0495 0.488 0.44685 0.732 1.073 0.73201 1.8785-0.00001 0.91722-0.36454 1.6434-1.0936 2.1784-0.7232 0.53504-1.7198 0.80256-2.9898 0.80257-0.52917-0.00001-1.0818-0.0529-1.658-0.15875-0.57033-0.1-1.173-0.25283-1.808-0.45862v-1.6757c0.59972 0.31162 1.1906 0.54681 1.7727 0.70556 0.58208 0.15287 1.1583 0.2293 1.7286 0.2293 0.76435 0 1.3523-0.12935 1.7639-0.38805 0.41156-0.26458 0.61735-0.635 0.61736-1.1112-0.00001-0.44097-0.14994-0.77905-0.44979-1.0142-0.29399-0.23518-0.94369-0.46154-1.9491-0.67909l-0.56444-0.13229c-1.0054-0.21167-1.7316-0.53504-2.1784-0.97014-0.44686-0.44097-0.67028-1.0436-0.67028-1.808 0-0.92897 0.32926-1.6463 0.98778-2.1519 0.65851-0.50564 1.5934-0.75846 2.8046-0.75847 0.59971 0.00001 1.1642 0.0441 1.6933 0.13229 0.52916 0.0882 1.0172 0.2205 1.464 0.39688"/>
   <path id="path3141" style="" d="m303.62 220.55c-1.3112 0.00001-2.2196 0.14994-2.7252 0.44979-0.50565 0.29987-0.75847 0.81139-0.75847 1.5346 0 0.57621 0.18815 1.0348 0.56445 1.3758 0.38217 0.33514 0.89957 0.50271 1.5522 0.50271 0.89957 0 1.6198-0.3175 2.1608-0.9525 0.5468-0.64087 0.8202-1.4905 0.82021-2.5488v-0.3616h-1.614m3.2367-0.67028v5.6356h-1.6228v-1.4993c-0.37043 0.59972-0.83198 1.0436-1.3847 1.3317-0.55269 0.28222-1.2288 0.42333-2.0285 0.42334-1.0113-0.00001-1.8168-0.28223-2.4165-0.84667-0.59384-0.57032-0.89076-1.3317-0.89076-2.2842 0-1.1112 0.37041-1.9491 1.1112-2.5135 0.74671-0.56444 1.858-0.84666 3.3337-0.84667h2.2754v-0.15875c-0.00001-0.7467-0.24696-1.3229-0.74084-1.7286-0.48801-0.41156-1.1759-0.61735-2.0637-0.61736-0.56445 0.00001-1.1142 0.0676-1.6492 0.20285-0.53505 0.13524-1.0495 0.33809-1.5434 0.60854v-1.4993c0.59384-0.2293 1.17-0.39981 1.7286-0.51153 0.55856-0.11758 1.1024-0.17638 1.6316-0.17639 1.4287 0.00001 2.4959 0.37043 3.2014 1.1112 0.70555 0.74084 1.0583 1.8638 1.0583 3.369"/>
  </g>
 </g>
 <g id="g24" transform="translate(0 -5.0351)">
  <path id="rect26" fill="#fff" d="m190 260h120v40h-120z"/>
  <path id="rect28" d="m190 260h120v40h-120z" stroke="#000" stroke-width="2" fill="none"/>
  <g id="text30">
   <path id="path3146" style="" d="m235.64 272.34h11.139v1.4993h-4.6743v11.668h-1.7904v-11.668h-4.6743v-1.4993"/>
   <path id="path3148" style="" d="m249.93 280.55c-1.3112 0-2.2196 0.14993-2.7252 0.44979-0.50565 0.29986-0.75847 0.81139-0.75847 1.5346 0 0.5762 0.18814 1.0348 0.56444 1.3758 0.38217 0.33514 0.89958 0.50271 1.5522 0.50271 0.89958 0 1.6198-0.3175 2.1608-0.9525 0.5468-0.64088 0.8202-1.4905 0.82021-2.5488v-0.36159h-1.614m3.2367-0.67028v5.6356h-1.6228v-1.4993c-0.37042 0.59972-0.83197 1.0436-1.3846 1.3317-0.55269 0.28222-1.2288 0.42333-2.0285 0.42333-1.0113 0-1.8168-0.28222-2.4165-0.84667-0.59384-0.57032-0.89076-1.3317-0.89076-2.2842 0-1.1112 0.37042-1.9491 1.1112-2.5135 0.74671-0.56444 1.858-0.84666 3.3338-0.84666h2.2754v-0.15875c-0.00001-0.74671-0.24695-1.3229-0.74083-1.7286-0.48802-0.41157-1.1759-0.61735-2.0638-0.61736-0.56445 0.00001-1.1142 0.0676-1.6492 0.20284-0.53505 0.13524-1.0495 0.33809-1.5434 0.60855v-1.4993c0.59384-0.22929 1.17-0.3998 1.7286-0.51153 0.55856-0.11758 1.1024-0.17637 1.6316-0.17638 1.4287 0.00001 2.4959 0.37042 3.2014 1.1112 0.70555 0.74085 1.0583 1.8638 1.0583 3.369"/>
   <path id="path3150" style="" d="m255.82 275.63h7.7082v1.4817l-6.103 7.0996h6.103v1.2965h-7.9287v-1.4817l6.103-7.0996h-5.8826v-1.2965"/>
  </g>
 </g>
 <g id="text34">
  <path id="path3153" style="" d="m232.48 119v5.9619h-1.6228v-5.909c-0.00001-0.93486-0.18228-1.6345-0.54681-2.099-0.36454-0.46448-0.91134-0.69673-1.6404-0.69673-0.87607 0-1.5669 0.27929-2.0726 0.83784-0.50565 0.55857-0.75847 1.32-0.75847 2.2842v5.5827h-1.6316v-9.8778h1.6316v1.5346c0.38805-0.59383 0.84372-1.0377 1.367-1.3317 0.52916-0.29397 1.1377-0.44096 1.8256-0.44097 1.1348 0.00001 1.9932 0.35278 2.5753 1.0583 0.58207 0.69968 0.87311 1.7316 0.87312 3.0956"/>
  <path id="path3155" style="" d="m244.19 119.62v0.79375h-7.4612c0.0706 1.1171 0.40569 1.9697 1.0054 2.5576 0.60559 0.58208 1.4464 0.87312 2.5224 0.87312 0.62323 0 1.2259-0.0764 1.808-0.22931 0.58795-0.15286 1.17-0.38217 1.7462-0.68791v1.5346c-0.58209 0.24694-1.1789 0.43509-1.7904 0.56444-0.61149 0.12935-1.2318 0.19403-1.8609 0.19403-1.5757 0-2.8252-0.45861-3.7483-1.3758-0.91722-0.91722-1.3758-2.1578-1.3758-3.7218 0-1.6169 0.43509-2.8986 1.3053-3.8453 0.87606-0.95248 2.0549-1.4287 3.5366-1.4287 1.3288 0.00001 2.3783 0.42922 3.1485 1.2876 0.7761 0.85256 1.1642 2.0138 1.1642 3.4837m-1.6228-0.47625c-0.0118-0.88782-0.26165-1.5963-0.74965-2.1255-0.48214-0.52916-1.123-0.79374-1.9226-0.79375-0.90547 0.00001-1.6316 0.25577-2.1784 0.76729-0.54093 0.51153-0.85255 1.2318-0.93486 2.1608l5.7856-0.009"/>
  <path id="path3157" style="" d="m245.69 115.09h1.7198l3.0868 8.2903 3.0868-8.2903h1.7198l-3.7042 9.8778h-2.2049l-3.7042-9.8778"/>
  <path id="path3159" style="" d="m265.99 119.62v0.79375h-7.4612c0.0706 1.1171 0.4057 1.9697 1.0054 2.5576 0.6056 0.58208 1.4464 0.87312 2.5224 0.87312 0.62323 0 1.2259-0.0764 1.808-0.22931 0.58796-0.15286 1.17-0.38217 1.7462-0.68791v1.5346c-0.58209 0.24694-1.1789 0.43509-1.7903 0.56444-0.61149 0.12935-1.2318 0.19403-1.8609 0.19403-1.5757 0-2.8252-0.45861-3.7482-1.3758-0.91723-0.91722-1.3758-2.1578-1.3758-3.7218 0-1.6169 0.43509-2.8986 1.3053-3.8453 0.87606-0.95248 2.0549-1.4287 3.5366-1.4287 1.3288 0.00001 2.3783 0.42922 3.1485 1.2876 0.7761 0.85256 1.1642 2.0138 1.1642 3.4837m-1.6228-0.47625c-0.0118-0.88782-0.26165-1.5963-0.74965-2.1255-0.48214-0.52916-1.123-0.79374-1.9226-0.79375-0.90547 0.00001-1.6316 0.25577-2.1784 0.76729-0.54093 0.51153-0.85255 1.2318-0.93486 2.1608l5.7856-0.009"/>
  <path id="path3161" style="" d="m268.59 111.24h1.6316v8.1051l4.8419-4.2598h2.0726l-5.2388 4.6214 5.4592 5.2564h-2.1167l-5.0183-4.8242v4.8242h-1.6316v-13.723"/>
 </g>
 <g id="g38" transform="translate(0 -5.0351)">
  <path id="rect40" fill="#3a739a" d="m340 40h40v360h-40z"/>
  <path id="rect42" d="m340 40h40v360h-40z" stroke="#3a739a" stroke-width="2" fill="none"/>
 </g>
 <g id="g44" transform="translate(0 -5.0351)">
  <path id="rect46" fill="#fff" d="m460 140h100v40h-100z"/>
  <path id="rect48" d="m460 140h100v40h-100z" stroke="#000" stroke-width="2" fill="none"/>
  <g id="text50">
   <path id="path3168" style="" d="m468.43 152.34h6.9938v1.4993h-5.3622v3.2279c0.2587-0.0882 0.51741-0.15286 0.77611-0.19402 0.2587-0.047 0.51741-0.0705 0.77611-0.0706 1.4699 0.00001 2.6341 0.40276 3.4925 1.2083 0.85842 0.80552 1.2876 1.8962 1.2876 3.272-0.00001 1.417-0.44098 2.5194-1.3229 3.3073-0.88195 0.78199-2.1255 1.173-3.7306 1.173-0.55269-0.00001-1.1171-0.047-1.6933-0.14112-0.57033-0.0941-1.1612-0.23518-1.7727-0.42333v-1.7903c0.52917 0.2881 1.076 0.50271 1.6404 0.64381 0.56444 0.14112 1.1612 0.21167 1.7903 0.21167 1.0172 0 1.8227-0.26752 2.4165-0.80257 0.59383-0.53504 0.89075-1.2612 0.89076-2.1784-0.00001-0.91721-0.29693-1.6434-0.89076-2.1784-0.59385-0.53504-1.3994-0.80256-2.4165-0.80257-0.47625 0.00001-0.9525 0.0529-1.4287 0.15875-0.47038 0.10584-0.95251 0.27047-1.4464 0.49389v-6.6146"/>
   <path id="path3170" style="" d="m479.93 152.34h6.9938v1.4993h-5.3622v3.2279c0.25869-0.0882 0.5174-0.15286 0.77611-0.19402 0.25869-0.047 0.5174-0.0705 0.77611-0.0706 1.4699 0.00001 2.6341 0.40276 3.4925 1.2083 0.85842 0.80552 1.2876 1.8962 1.2876 3.272-0.00001 1.417-0.44098 2.5194-1.3229 3.3073-0.88195 0.78199-2.1255 1.173-3.7306 1.173-0.55269-0.00001-1.1171-0.047-1.6933-0.14112-0.57032-0.0941-1.1612-0.23518-1.7727-0.42333v-1.7903c0.52916 0.2881 1.076 0.50271 1.6404 0.64381 0.56444 0.14112 1.1612 0.21167 1.7904 0.21167 1.0172 0 1.8227-0.26752 2.4165-0.80257 0.59383-0.53504 0.89075-1.2612 0.89076-2.1784-0.00001-0.91721-0.29693-1.6434-0.89076-2.1784-0.59385-0.53504-1.3994-0.80256-2.4165-0.80257-0.47626 0.00001-0.95251 0.0529-1.4288 0.15875-0.47038 0.10584-0.9525 0.27047-1.4464 0.49389v-6.6146"/>
   <path id="path3172" style="" d="m491.44 152.34h6.9938v1.4993h-5.3622v3.2279c0.2587-0.0882 0.5174-0.15286 0.77611-0.19402 0.2587-0.047 0.5174-0.0705 0.77611-0.0706 1.4699 0.00001 2.6341 0.40276 3.4925 1.2083 0.85842 0.80552 1.2876 1.8962 1.2876 3.272-0.00001 1.417-0.44098 2.5194-1.3229 3.3073-0.88196 0.78199-2.1255 1.173-3.7306 1.173-0.55268-0.00001-1.1171-0.047-1.6933-0.14112-0.57032-0.0941-1.1612-0.23518-1.7727-0.42333v-1.7903c0.52916 0.2881 1.076 0.50271 1.6404 0.64381 0.56444 0.14112 1.1612 0.21167 1.7904 0.21167 1.0172 0 1.8227-0.26752 2.4165-0.80257 0.59384-0.53504 0.89076-1.2612 0.89076-2.1784 0-0.91721-0.29692-1.6434-0.89076-2.1784-0.59385-0.53504-1.3994-0.80256-2.4165-0.80257-0.47626 0.00001-0.95251 0.0529-1.4288 0.15875-0.47037 0.10584-0.9525 0.27047-1.4464 0.49389v-6.6146"/>
   <path id="path3174" style="" d="m501.87 159.84h4.7537v1.4464h-4.7537v-1.4464"/>
   <path id="path3176" style="" d="m509.75 164.01h2.9104v-10.045l-3.1662 0.635v-1.6228l3.1485-0.635h1.7815v11.668h2.9104v1.4993h-7.5847v-1.4993"/>
   <path id="path3178" style="" d="m522.48 164.01h6.2177v1.4993h-8.3608v-1.4993c0.67615-0.69968 1.5963-1.6375 2.7605-2.8134 1.17-1.1818 1.905-1.9432 2.2049-2.2842 0.57032-0.64088 0.96719-1.1818 1.1906-1.6228 0.2293-0.44684 0.34395-0.88487 0.34396-1.3141-0.00001-0.69966-0.24695-1.27-0.74083-1.711-0.48802-0.44096-1.126-0.66144-1.9138-0.66145-0.55857 0.00001-1.1495 0.097-1.7727 0.29104-0.61736 0.19404-1.2788 0.48802-1.9844 0.88194v-1.7992c0.71731-0.28809 1.3876-0.50564 2.0108-0.65264 0.62324-0.14698 1.1936-0.22047 1.711-0.22049 1.3641 0.00002 2.4518 0.34103 3.2632 1.0231 0.81138 0.68204 1.2171 1.5934 1.2171 2.734-0.00001 0.54094-0.10291 1.0554-0.30868 1.5434-0.19992 0.48214-0.5674 1.0525-1.1024 1.711-0.147 0.17052-0.61443 0.66441-1.4023 1.4817-0.78788 0.81139-1.8991 1.9491-3.3338 3.4131"/>
   <path id="path3180" style="" d="m532.5 165.24v-1.6228c0.44685 0.21167 0.89958 0.37336 1.3582 0.48507 0.45861 0.11172 0.9084 0.16757 1.3494 0.16757 1.1759 0 2.0726-0.39393 2.6899-1.1818 0.62323-0.79375 0.97895-1.9961 1.0672-3.6072-0.34102 0.50565-0.77318 0.89371-1.2964 1.1642-0.5233 0.27047-1.1024 0.4057-1.7374 0.4057-1.317 0-2.3607-0.39687-3.1309-1.1906-0.76435-0.79962-1.1465-1.8903-1.1465-3.272 0-1.3523 0.39981-2.4371 1.1994-3.2544 0.79963-0.81725 1.8638-1.2259 3.1926-1.2259 1.5228 0.00002 2.684 0.58504 3.4837 1.7551 0.80549 1.1642 1.2082 2.8575 1.2083 5.08-0.00001 2.0755-0.4939 3.7336-1.4817 4.9742-0.9819 1.2347-2.3048 1.8521-3.9687 1.8521-0.44686-0.00001-0.89959-0.0441-1.3582-0.1323-0.45862-0.0882-0.93487-0.22048-1.4288-0.39687m3.5454-5.5827c0.79962 0 1.4317-0.2734 1.8962-0.82021 0.47036-0.5468 0.70554-1.2964 0.70555-2.249-0.00001-0.9466-0.23519-1.6933-0.70555-2.2401-0.4645-0.55267-1.0966-0.82902-1.8962-0.82903-0.79963 0.00001-1.4346 0.27636-1.905 0.82903-0.46449 0.54681-0.69674 1.2935-0.69673 2.2401-0.00001 0.95251 0.23224 1.7022 0.69673 2.249 0.47037 0.54681 1.1054 0.82021 1.905 0.82021"/>
   <path id="path3182" style="" d="m547.76 159.26c-0.84667 0.00001-1.514 0.22637-2.002 0.6791-0.48214 0.45274-0.7232 1.076-0.7232 1.8697 0 0.79375 0.24106 1.417 0.7232 1.8697 0.488 0.45273 1.1553 0.6791 2.002 0.6791 0.84666 0 1.514-0.22637 2.002-0.6791 0.488-0.45861 0.732-1.0818 0.73201-1.8697-0.00001-0.79375-0.24401-1.417-0.73201-1.8697-0.48214-0.45273-1.1495-0.67909-2.002-0.6791m-1.7815-0.75847c-0.76435-0.18814-1.3611-0.54386-1.7903-1.0672-0.42334-0.52328-0.635-1.1612-0.635-1.9138 0-1.0524 0.37335-1.8844 1.1201-2.4959 0.75258-0.61146 1.7815-0.9172 3.0868-0.91722 1.3112 0.00002 2.3401 0.30576 3.0868 0.91722 0.7467 0.6115 1.1201 1.4435 1.1201 2.4959-0.00001 0.7526-0.21462 1.3905-0.64382 1.9138-0.42334 0.52329-1.0142 0.87901-1.7727 1.0672 0.85842 0.19992 1.5258 0.59091 2.002 1.173 0.48212 0.58208 0.72319 1.2935 0.7232 2.1343-0.00001 1.2759-0.39101 2.2548-1.173 2.9369-0.77612 0.68204-1.8903 1.023-3.3426 1.0231-1.4523-0.00001-2.5694-0.34102-3.3514-1.0231-0.77611-0.68203-1.1642-1.661-1.1642-2.9369 0-0.84078 0.24106-1.5522 0.72319-2.1343 0.48213-0.58208 1.1524-0.97307 2.0108-1.173m-0.65264-2.8134c0 0.68205 0.21167 1.2142 0.635 1.5963 0.42921 0.38218 1.0289 0.57327 1.7992 0.57326 0.76434 0.00001 1.3611-0.19108 1.7903-0.57326 0.43509-0.38217 0.65263-0.91427 0.65264-1.5963-0.00001-0.68202-0.21755-1.2141-0.65264-1.5963-0.42922-0.38216-1.026-0.57325-1.7903-0.57326-0.77024 0.00001-1.37 0.1911-1.7992 0.57326-0.42333 0.38219-0.635 0.9143-0.635 1.5963"/>
  </g>
 </g>
 <g id="g54" transform="translate(0 -5.0351)">
  <path id="rect56" fill="#fff" d="m460 220h100v40h-100z"/>
  <path id="rect58" d="m460 220h100v40h-100z" stroke="#000" stroke-width="2" fill="none"/>
  <g id="text60">
   <path id="path3187" style="" d="m468.43 232.34h6.9938v1.4993h-5.3622v3.2279c0.2587-0.0882 0.51741-0.15286 0.77611-0.19402 0.2587-0.047 0.51741-0.0705 0.77611-0.0706 1.4699 0.00001 2.6341 0.40276 3.4925 1.2083 0.85842 0.80552 1.2876 1.8962 1.2876 3.272-0.00001 1.417-0.44098 2.5194-1.3229 3.3073-0.88195 0.78199-2.1255 1.173-3.7306 1.173-0.55269-0.00001-1.1171-0.047-1.6933-0.14112-0.57033-0.0941-1.1612-0.23518-1.7727-0.42333v-1.7903c0.52917 0.2881 1.076 0.50271 1.6404 0.64381 0.56444 0.14112 1.1612 0.21167 1.7903 0.21167 1.0172 0 1.8227-0.26752 2.4165-0.80257 0.59383-0.53504 0.89075-1.2612 0.89076-2.1784-0.00001-0.91721-0.29693-1.6434-0.89076-2.1784-0.59385-0.53504-1.3994-0.80256-2.4165-0.80257-0.47625 0.00001-0.9525 0.0529-1.4287 0.15875-0.47038 0.10584-0.95251 0.27047-1.4464 0.49389v-6.6146"/>
   <path id="path3189" style="" d="m479.93 232.34h6.9938v1.4993h-5.3622v3.2279c0.25869-0.0882 0.5174-0.15286 0.77611-0.19402 0.25869-0.047 0.5174-0.0705 0.77611-0.0706 1.4699 0.00001 2.6341 0.40276 3.4925 1.2083 0.85842 0.80552 1.2876 1.8962 1.2876 3.272-0.00001 1.417-0.44098 2.5194-1.3229 3.3073-0.88195 0.78199-2.1255 1.173-3.7306 1.173-0.55269-0.00001-1.1171-0.047-1.6933-0.14112-0.57032-0.0941-1.1612-0.23518-1.7727-0.42333v-1.7903c0.52916 0.2881 1.076 0.50271 1.6404 0.64381 0.56444 0.14112 1.1612 0.21167 1.7904 0.21167 1.0172 0 1.8227-0.26752 2.4165-0.80257 0.59383-0.53504 0.89075-1.2612 0.89076-2.1784-0.00001-0.91721-0.29693-1.6434-0.89076-2.1784-0.59385-0.53504-1.3994-0.80256-2.4165-0.80257-0.47626 0.00001-0.95251 0.0529-1.4288 0.15875-0.47038 0.10584-0.9525 0.27047-1.4464 0.49389v-6.6146"/>
   <path id="path3191" style="" d="m491.44 232.34h6.9938v1.4993h-5.3622v3.2279c0.2587-0.0882 0.5174-0.15286 0.77611-0.19402 0.2587-0.047 0.5174-0.0705 0.77611-0.0706 1.4699 0.00001 2.6341 0.40276 3.4925 1.2083 0.85842 0.80552 1.2876 1.8962 1.2876 3.272-0.00001 1.417-0.44098 2.5194-1.3229 3.3073-0.88196 0.78199-2.1255 1.173-3.7306 1.173-0.55268-0.00001-1.1171-0.047-1.6933-0.14112-0.57032-0.0941-1.1612-0.23518-1.7727-0.42333v-1.7903c0.52916 0.2881 1.076 0.50271 1.6404 0.64381 0.56444 0.14112 1.1612 0.21167 1.7904 0.21167 1.0172 0 1.8227-0.26752 2.4165-0.80257 0.59384-0.53504 0.89076-1.2612 0.89076-2.1784 0-0.91721-0.29692-1.6434-0.89076-2.1784-0.59385-0.53504-1.3994-0.80256-2.4165-0.80257-0.47626 0.00001-0.95251 0.0529-1.4288 0.15875-0.47037 0.10584-0.9525 0.27047-1.4464 0.49389v-6.6146"/>
   <path id="path3193" style="" d="m501.87 239.84h4.7537v1.4464h-4.7537v-1.4464"/>
   <path id="path3195" style="" d="m509.5 245.24v-1.6228c0.44685 0.21167 0.89958 0.37336 1.3582 0.48507 0.4586 0.11172 0.90839 0.16757 1.3494 0.16757 1.1759 0 2.0726-0.39393 2.6899-1.1818 0.62323-0.79375 0.97895-1.9961 1.0672-3.6072-0.34103 0.50565-0.77318 0.89371-1.2965 1.1642-0.52329 0.27047-1.1024 0.4057-1.7374 0.4057-1.317 0-2.3607-0.39687-3.1309-1.1906-0.76435-0.79962-1.1465-1.8903-1.1465-3.272 0-1.3523 0.39981-2.4371 1.1994-3.2544 0.79963-0.81725 1.8638-1.2259 3.1926-1.2259 1.5228 0.00002 2.684 0.58504 3.4837 1.7551 0.8055 1.1642 1.2082 2.8575 1.2083 5.08-0.00001 2.0755-0.49389 3.7336-1.4817 4.9742-0.9819 1.2347-2.3048 1.8521-3.9688 1.8521-0.44685-0.00001-0.89958-0.0441-1.3582-0.1323-0.45861-0.0882-0.93486-0.22048-1.4288-0.39687m3.5454-5.5827c0.79962 0 1.4317-0.2734 1.8962-0.82021 0.47037-0.5468 0.70555-1.2964 0.70556-2.249-0.00001-0.9466-0.23519-1.6933-0.70556-2.2401-0.46449-0.55267-1.0966-0.82902-1.8962-0.82903-0.79964 0.00001-1.4346 0.27636-1.905 0.82903-0.4645 0.54681-0.69674 1.2935-0.69674 2.2401 0 0.95251 0.23224 1.7022 0.69674 2.249 0.47036 0.54681 1.1054 0.82021 1.905 0.82021"/>
   <path id="path3197" style="" d="m521 245.24v-1.6228c0.44684 0.21167 0.89957 0.37336 1.3582 0.48507 0.4586 0.11172 0.9084 0.16757 1.3494 0.16757 1.1759 0 2.0726-0.39393 2.6899-1.1818 0.62323-0.79375 0.97895-1.9961 1.0672-3.6072-0.34103 0.50565-0.77318 0.89371-1.2965 1.1642-0.52329 0.27047-1.1024 0.4057-1.7374 0.4057-1.317 0-2.3607-0.39687-3.1309-1.1906-0.76436-0.79962-1.1465-1.8903-1.1465-3.272 0-1.3523 0.39981-2.4371 1.1994-3.2544 0.79963-0.81725 1.8638-1.2259 3.1926-1.2259 1.5228 0.00002 2.684 0.58504 3.4837 1.7551 0.8055 1.1642 1.2083 2.8575 1.2083 5.08-0.00001 2.0755-0.4939 3.7336-1.4817 4.9742-0.9819 1.2347-2.3048 1.8521-3.9687 1.8521-0.44686-0.00001-0.89959-0.0441-1.3582-0.1323s-0.93486-0.22048-1.4287-0.39687m3.5454-5.5827c0.79962 0 1.4317-0.2734 1.8962-0.82021 0.47036-0.5468 0.70554-1.2964 0.70555-2.249-0.00001-0.9466-0.23519-1.6933-0.70555-2.2401-0.4645-0.55267-1.0966-0.82902-1.8962-0.82903-0.79964 0.00001-1.4346 0.27636-1.905 0.82903-0.46449 0.54681-0.69674 1.2935-0.69674 2.2401 0 0.95251 0.23225 1.7022 0.69674 2.249 0.47037 0.54681 1.1054 0.82021 1.905 0.82021"/>
   <path id="path3199" style="" d="m533.98 244.01h6.2177v1.4993h-8.3608v-1.4993c0.67615-0.69968 1.5963-1.6375 2.7605-2.8134 1.17-1.1818 1.905-1.9432 2.2049-2.2842 0.57032-0.64088 0.96719-1.1818 1.1906-1.6228 0.2293-0.44684 0.34395-0.88487 0.34396-1.3141-0.00001-0.69966-0.24695-1.27-0.74083-1.711-0.48802-0.44096-1.126-0.66144-1.9138-0.66145-0.55857 0.00001-1.1495 0.097-1.7727 0.29104-0.61737 0.19404-1.2788 0.48802-1.9844 0.88194v-1.7992c0.71732-0.28809 1.3876-0.50564 2.0108-0.65264 0.62324-0.14698 1.1936-0.22047 1.711-0.22049 1.3641 0.00002 2.4518 0.34103 3.2632 1.0231 0.81137 0.68204 1.2171 1.5934 1.2171 2.734-0.00001 0.54094-0.10291 1.0554-0.30868 1.5434-0.19992 0.48214-0.5674 1.0525-1.1024 1.711-0.147 0.17052-0.61443 0.66441-1.4023 1.4817-0.78788 0.81139-1.8991 1.9491-3.3338 3.4131"/>
   <path id="path3201" style="" d="m548.84 233.9-4.4979 7.0291h4.4979v-7.0291m-0.46743-1.5522h2.2401v8.5813h1.8785v1.4817h-1.8785v3.1044h-1.7727v-3.1044h-5.9443v-1.7198l5.4769-8.3432"/>
  </g>
 </g>
 <g id="g64" transform="translate(0 -5.0351)">
  <path id="rect66" fill="#fff" d="m460 300h100v40h-100z"/>
  <path id="rect68" d="m460 300h100v40h-100z" stroke="#000" stroke-width="2" fill="none"/>
  <g id="text70">
   <path id="path3206" style="" d="m468.43 312.34h6.9938v1.4993h-5.3622v3.2279c0.2587-0.0882 0.51741-0.15286 0.77611-0.19403 0.2587-0.047 0.51741-0.0705 0.77611-0.0705 1.4699 0 2.6341 0.40276 3.4925 1.2083 0.85842 0.80551 1.2876 1.8962 1.2876 3.272-0.00001 1.417-0.44098 2.5194-1.3229 3.3073-0.88195 0.78199-2.1255 1.173-3.7306 1.173-0.55269 0-1.1171-0.047-1.6933-0.14111-0.57033-0.0941-1.1612-0.23519-1.7727-0.42333v-1.7904c0.52917 0.2881 1.076 0.50271 1.6404 0.64382 0.56444 0.14111 1.1612 0.21167 1.7903 0.21167 1.0172 0 1.8227-0.26753 2.4165-0.80257 0.59383-0.53505 0.89075-1.2612 0.89076-2.1784-0.00001-0.91722-0.29693-1.6434-0.89076-2.1784-0.59385-0.53504-1.3994-0.80256-2.4165-0.80257-0.47625 0.00001-0.9525 0.0529-1.4287 0.15875-0.47038 0.10584-0.95251 0.27047-1.4464 0.49389v-6.6146"/>
   <path id="path3208" style="" d="m479.93 312.34h6.9938v1.4993h-5.3622v3.2279c0.25869-0.0882 0.5174-0.15286 0.77611-0.19403 0.25869-0.047 0.5174-0.0705 0.77611-0.0705 1.4699 0 2.6341 0.40276 3.4925 1.2083 0.85842 0.80551 1.2876 1.8962 1.2876 3.272-0.00001 1.417-0.44098 2.5194-1.3229 3.3073-0.88195 0.78199-2.1255 1.173-3.7306 1.173-0.55269 0-1.1171-0.047-1.6933-0.14111-0.57032-0.0941-1.1612-0.23519-1.7727-0.42333v-1.7904c0.52916 0.2881 1.076 0.50271 1.6404 0.64382 0.56444 0.14111 1.1612 0.21167 1.7904 0.21167 1.0172 0 1.8227-0.26753 2.4165-0.80257 0.59383-0.53505 0.89075-1.2612 0.89076-2.1784-0.00001-0.91722-0.29693-1.6434-0.89076-2.1784-0.59385-0.53504-1.3994-0.80256-2.4165-0.80257-0.47626 0.00001-0.95251 0.0529-1.4288 0.15875-0.47038 0.10584-0.9525 0.27047-1.4464 0.49389v-6.6146"/>
   <path id="path3210" style="" d="m491.44 312.34h6.9938v1.4993h-5.3622v3.2279c0.2587-0.0882 0.5174-0.15286 0.77611-0.19403 0.2587-0.047 0.5174-0.0705 0.77611-0.0705 1.4699 0 2.6341 0.40276 3.4925 1.2083 0.85842 0.80551 1.2876 1.8962 1.2876 3.272-0.00001 1.417-0.44098 2.5194-1.3229 3.3073-0.88196 0.78199-2.1255 1.173-3.7306 1.173-0.55268 0-1.1171-0.047-1.6933-0.14111-0.57032-0.0941-1.1612-0.23519-1.7727-0.42333v-1.7904c0.52916 0.2881 1.076 0.50271 1.6404 0.64382 0.56444 0.14111 1.1612 0.21167 1.7904 0.21167 1.0172 0 1.8227-0.26753 2.4165-0.80257 0.59384-0.53505 0.89076-1.2612 0.89076-2.1784 0-0.91722-0.29692-1.6434-0.89076-2.1784-0.59385-0.53504-1.3994-0.80256-2.4165-0.80257-0.47626 0.00001-0.95251 0.0529-1.4288 0.15875-0.47037 0.10584-0.9525 0.27047-1.4464 0.49389v-6.6146"/>
   <path id="path3212" style="" d="m501.87 319.84h4.7537v1.4464h-4.7537v-1.4464"/>
   <path id="path3214" style="" d="m509.5 325.24v-1.6228c0.44685 0.21167 0.89958 0.37336 1.3582 0.48507 0.4586 0.11171 0.90839 0.16757 1.3494 0.16757 1.1759 0 2.0726-0.39394 2.6899-1.1818 0.62323-0.79374 0.97895-1.9961 1.0672-3.6072-0.34103 0.50566-0.77318 0.89371-1.2965 1.1642-0.52329 0.27047-1.1024 0.4057-1.7374 0.40569-1.317 0.00001-2.3607-0.39687-3.1309-1.1906-0.76435-0.79962-1.1465-1.8903-1.1465-3.272 0-1.3523 0.39981-2.4371 1.1994-3.2544 0.79963-0.81726 1.8638-1.2259 3.1926-1.2259 1.5228 0.00001 2.684 0.58503 3.4837 1.7551 0.8055 1.1642 1.2082 2.8575 1.2083 5.08-0.00001 2.0755-0.49389 3.7336-1.4817 4.9742-0.9819 1.2347-2.3048 1.8521-3.9688 1.8521-0.44685 0-0.89958-0.0441-1.3582-0.13229-0.45861-0.0882-0.93486-0.22049-1.4288-0.39688m3.5454-5.5827c0.79962 0.00001 1.4317-0.27339 1.8962-0.82021 0.47037-0.54679 0.70555-1.2964 0.70556-2.249-0.00001-0.94661-0.23519-1.6933-0.70556-2.2401-0.46449-0.55267-1.0966-0.82901-1.8962-0.82902-0.79964 0.00001-1.4346 0.27635-1.905 0.82902-0.4645 0.54682-0.69674 1.2935-0.69674 2.2401 0 0.95251 0.23224 1.7022 0.69674 2.249 0.47036 0.54682 1.1054 0.82022 1.905 0.82021"/>
   <path id="path3216" style="" d="m525.84 313.9-4.4979 7.0291h4.4979v-7.0291m-0.46743-1.5522h2.2401v8.5813h1.8785v1.4817h-1.8785v3.1044h-1.7727v-3.1044h-5.9443v-1.7198l5.4769-8.3432"/>
   <path id="path3218" style="" d="m533.98 324.01h6.2177v1.4993h-8.3608v-1.4993c0.67615-0.69967 1.5963-1.6375 2.7605-2.8134 1.17-1.1818 1.905-1.9432 2.2049-2.2842 0.57032-0.64087 0.96719-1.1818 1.1906-1.6228 0.2293-0.44684 0.34395-0.88487 0.34396-1.3141-0.00001-0.69967-0.24695-1.27-0.74083-1.711-0.48802-0.44096-1.126-0.66145-1.9138-0.66146-0.55857 0.00001-1.1495 0.097-1.7727 0.29104-0.61737 0.19404-1.2788 0.48802-1.9844 0.88195v-1.7992c0.71732-0.28809 1.3876-0.50563 2.0108-0.65264 0.62324-0.14697 1.1936-0.22047 1.711-0.22048 1.3641 0.00001 2.4518 0.34103 3.2632 1.023 0.81137 0.68205 1.2171 1.5934 1.2171 2.734-0.00001 0.54093-0.10291 1.0554-0.30868 1.5434-0.19992 0.48213-0.5674 1.0525-1.1024 1.711-0.147 0.17051-0.61443 0.6644-1.4023 1.4817-0.78788 0.81139-1.8991 1.9491-3.3338 3.4131"/>
   <path id="path3220" style="" d="m547.76 319.26c-0.84667 0-1.514 0.22637-2.002 0.67909-0.48214 0.45274-0.7232 1.076-0.7232 1.8697 0 0.79376 0.24106 1.417 0.7232 1.8697 0.488 0.45274 1.1553 0.6791 2.002 0.6791 0.84666 0 1.514-0.22636 2.002-0.6791 0.488-0.4586 0.732-1.0818 0.73201-1.8697-0.00001-0.79374-0.24401-1.417-0.73201-1.8697-0.48214-0.45272-1.1495-0.67909-2.002-0.67909m-1.7815-0.75847c-0.76435-0.18814-1.3611-0.54386-1.7903-1.0672-0.42334-0.52327-0.635-1.1612-0.635-1.9138 0-1.0524 0.37335-1.8844 1.1201-2.4959 0.75258-0.61147 1.7815-0.91721 3.0868-0.91722 1.3112 0.00001 2.3401 0.30575 3.0868 0.91722 0.7467 0.61149 1.1201 1.4435 1.1201 2.4959-0.00001 0.7526-0.21462 1.3905-0.64382 1.9138-0.42334 0.5233-1.0142 0.87902-1.7727 1.0672 0.85842 0.19991 1.5258 0.5909 2.002 1.173 0.48212 0.58209 0.72319 1.2935 0.7232 2.1343-0.00001 1.2759-0.39101 2.2548-1.173 2.9369-0.77612 0.68203-1.8903 1.023-3.3426 1.023s-2.5694-0.34102-3.3514-1.023c-0.77611-0.68204-1.1642-1.661-1.1642-2.9369 0-0.84078 0.24106-1.5522 0.72319-2.1343 0.48213-0.58208 1.1524-0.97307 2.0108-1.173m-0.65264-2.8134c0 0.68204 0.21167 1.2142 0.635 1.5963 0.42921 0.38219 1.0289 0.57328 1.7992 0.57327 0.76434 0.00001 1.3611-0.19108 1.7903-0.57327 0.43509-0.38216 0.65263-0.91427 0.65264-1.5963-0.00001-0.68203-0.21755-1.2141-0.65264-1.5963-0.42922-0.38216-1.026-0.57325-1.7903-0.57326-0.77024 0.00001-1.37 0.1911-1.7992 0.57326-0.42333 0.38219-0.635 0.91429-0.635 1.5963"/>
  </g>
 </g>
 <g id="g74" stroke="#000" stroke-width="2" fill="none" transform="translate(0 -5.0351)">
  <path id="polyline76" d="m310 160h50l57.317 76.422"/>
  <path id="polyline78" d="m408.66 233.21 10 5-2-11"/>
 </g>
 <g id="g80" stroke="#000" stroke-width="2" fill="none" transform="translate(0 -5.0351)">
  <path id="polyline82" d="m310 220h50l56.838-56.838"/>
  <path id="polyline84" d="m414.88 172.19 3.536-10.607-10.607 3.536"/>
 </g>
 <g id="g86" stroke="#000" stroke-width="2" fill="none" transform="translate(0 -5.0351)">
  <path id="polyline88" d="m310 280h50l56.279 37.519"/>
  <path id="polyline90" d="m407.04 317.37 11.094 1.387-5.547-9.708"/>
 </g>
 <g id="text92">
  <path id="path3229" style="" d="m440.09 32.283v2.8046h3.3426v1.2612h-3.3426v5.3622c0 0.80551 0.10877 1.3229 0.32632 1.5522 0.22342 0.22931 0.67322 0.34396 1.3494 0.34396h1.6669v1.3582h-1.6669c-1.2524 0-2.1167-0.23224-2.5929-0.69674-0.47625-0.47037-0.71437-1.3229-0.71437-2.5576v-5.3622h-1.1906v-1.2612h1.1906v-2.8046h1.6316"/>
  <path id="path3231" style="" d="m454.03 39.62v0.79375h-7.4612c0.0705 1.1171 0.40569 1.9697 1.0054 2.5576 0.6056 0.58208 1.4464 0.87312 2.5224 0.87312 0.62323 0.000001 1.2259-0.07643 1.808-0.22931 0.58795-0.15287 1.17-0.38217 1.7462-0.68792v1.5346c-0.58209 0.24694-1.1789 0.43509-1.7903 0.56444-0.61149 0.12935-1.2318 0.19403-1.8609 0.19403-1.5758 0-2.8252-0.45861-3.7483-1.3758-0.91722-0.91722-1.3758-2.1578-1.3758-3.7218 0-1.6169 0.43509-2.8986 1.3053-3.8453 0.87606-0.95249 2.0549-1.4287 3.5366-1.4287 1.3288 0.00001 2.3783 0.42922 3.1485 1.2876 0.7761 0.85255 1.1642 2.0138 1.1642 3.4837m-1.6228-0.47625c-0.0118-0.88782-0.26165-1.5963-0.74965-2.1255-0.48213-0.52916-1.123-0.79374-1.9226-0.79375-0.90546 0.000008-1.6316 0.25577-2.1784 0.76729-0.54092 0.51153-0.85254 1.2318-0.93486 2.1608l5.7856-0.0088"/>
  <path id="path3233" style="" d="m456.69 31.242h1.6228v13.723h-1.6228v-13.723"/>
  <path id="path3235" style="" d="m468 35.378v1.5346c-0.45862-0.23518-0.93486-0.41157-1.4288-0.52917-0.49389-0.11758-1.0054-0.17638-1.5346-0.17639-0.80551 0.000009-1.4111 0.12348-1.8168 0.37042-0.39982 0.24695-0.59973 0.61737-0.59972 1.1112-0.00001 0.3763 0.14405 0.67322 0.43215 0.89076 0.2881 0.21167 0.86724 0.41452 1.7374 0.60854l0.55562 0.12347c1.1524 0.24695 1.9697 0.59679 2.4518 1.0495 0.488 0.44686 0.732 1.073 0.73201 1.8785-0.00001 0.91722-0.36455 1.6434-1.0936 2.1784-0.7232 0.53504-1.7198 0.80257-2.9898 0.80257-0.52917 0-1.0818-0.05292-1.658-0.15875-0.57033-0.09995-1.173-0.25282-1.808-0.45861v-1.6757c0.59972 0.31162 1.1906 0.54681 1.7727 0.70556 0.58208 0.15287 1.1583 0.22931 1.7286 0.2293 0.76434 0.000002 1.3523-0.12935 1.7639-0.38806 0.41157-0.26458 0.61736-0.635 0.61737-1.1112-0.00001-0.44097-0.14994-0.77905-0.4498-1.0142-0.29398-0.23518-0.94368-0.46155-1.9491-0.6791l-0.56444-0.13229c-1.0054-0.21166-1.7316-0.53504-2.1784-0.97014-0.44686-0.44097-0.67028-1.0436-0.67028-1.808 0-0.92897 0.32926-1.6463 0.98777-2.1519 0.65852-0.50564 1.5934-0.75846 2.8046-0.75847 0.59972 0.00001 1.1642 0.04411 1.6933 0.13229 0.52916 0.0882 1.0172 0.2205 1.464 0.39687"/>
  <path id="path3237" style="" d="m470.41 35.087h7.7082v1.4817l-6.103 7.0996h6.103v1.2965h-7.9287v-1.4817l6.103-7.0996h-5.8826v-1.2965"/>
  <path id="path3239" style="" d="m485.1 40c-1.3112 0.000005-2.2196 0.14994-2.7252 0.44979-0.50565 0.29986-0.75847 0.81139-0.75847 1.5346 0 0.5762 0.18814 1.0348 0.56444 1.3758 0.38217 0.33514 0.89958 0.50271 1.5522 0.50271 0.89958 0.000002 1.6198-0.3175 2.1608-0.9525 0.5468-0.64088 0.8202-1.4905 0.82021-2.5488v-0.3616h-1.614m3.2367-0.67028v5.6356h-1.6228v-1.4993c-0.37042 0.59972-0.83197 1.0436-1.3846 1.3317-0.55269 0.28222-1.2288 0.42333-2.0285 0.42333-1.0113 0-1.8168-0.28222-2.4165-0.84666-0.59385-0.57032-0.89077-1.3317-0.89077-2.2842 0-1.1112 0.37042-1.9491 1.1112-2.5135 0.74671-0.56444 1.858-0.84666 3.3338-0.84667h2.2754v-0.15875c-0.00001-0.7467-0.24695-1.3229-0.74083-1.7286-0.48802-0.41156-1.1759-0.61735-2.0638-0.61736-0.56445 0.000008-1.1142 0.06762-1.6492 0.20285-0.53505 0.13524-1.0495 0.33809-1.5434 0.60854v-1.4993c0.59384-0.2293 1.17-0.3998 1.7286-0.51153 0.55856-0.11758 1.1024-0.17638 1.6316-0.17639 1.4287 0.00001 2.4959 0.37043 3.2015 1.1112 0.70554 0.74084 1.0583 1.8638 1.0583 3.369m-2.9633-8.8106h1.7551l-2.8751 3.3161h-1.3494l2.4694-3.3161"/>
  <path id="path3241" style="" d="m499.38 36.983c0.40568-0.72906 0.89075-1.267 1.4552-1.614 0.56443-0.34689 1.2288-0.52034 1.9932-0.52035 1.0289 0.00001 1.8227 0.36161 2.3812 1.0848 0.55855 0.71732 0.83783 1.7404 0.83785 3.0692v5.9619h-1.6316v-5.909c-0.00002-0.94661-0.16759-1.6492-0.50271-2.1078-0.33515-0.4586-0.84668-0.68791-1.5346-0.68792-0.8408 0.000009-1.5052 0.27929-1.9932 0.83785-0.48801 0.55857-0.73202 1.32-0.73201 2.2842v5.5827h-1.6316v-5.909c-0.00001-0.95249-0.16758-1.6551-0.50271-2.1078-0.33515-0.4586-0.85255-0.68791-1.5522-0.68792-0.82903 0.000009-1.4876 0.28223-1.9756 0.84667-0.48801 0.55857-0.73201 1.317-0.73201 2.2754v5.5827h-1.6316v-9.8778h1.6316v1.5346c0.37041-0.60559 0.81433-1.0524 1.3317-1.3406 0.5174-0.28809 1.1318-0.43214 1.8433-0.43215 0.7173 0.00001 1.3258 0.18228 1.8256 0.5468 0.50564 0.36455 0.879 0.89371 1.1201 1.5875"/>
  <path id="path3243" style="" d="m513.12 36.225c-0.87019 0.000008-1.5581 0.34103-2.0638 1.0231-0.50565 0.67616-0.75848 1.6051-0.75847 2.7869-0.00001 1.1818 0.24988 2.1137 0.74965 2.7958 0.50564 0.67616 1.1965 1.0142 2.0726 1.0142 0.86429 0.000001 1.5493-0.34102 2.0549-1.0231 0.50564-0.68203 0.75847-1.611 0.75847-2.7869 0-1.17-0.25283-2.0961-0.75847-2.7781-0.50565-0.68791-1.1906-1.0319-2.0549-1.0319m0-1.3758c1.4111 0.00001 2.5194 0.45862 3.3249 1.3758 0.8055 0.91723 1.2082 2.1872 1.2083 3.81-0.00001 1.6169-0.40276 2.8869-1.2083 3.81-0.80551 0.91722-1.9138 1.3758-3.3249 1.3758-1.417 0-2.5282-0.45861-3.3338-1.3758-0.79963-0.9231-1.1994-2.1931-1.1994-3.81 0-1.6228 0.39981-2.8928 1.1994-3.81 0.8055-0.91721 1.9168-1.3758 3.3338-1.3758"/>
  <path id="path3245" style="" d="m520.27 31.242h1.6316v8.1051l4.8419-4.2598h2.0726l-5.2388 4.6214 5.4592 5.2564h-2.1167l-5.0183-4.8242v4.8242h-1.6316v-13.723"/>
  <path id="path3247" style="" d="m530.66 31.242h3.7394v1.2612h-2.1167v13.582h2.1167v1.2612h-3.7394v-16.104"/>
  <path id="path3249" style="" d="m541.66 31.242v16.104h-3.7394v-1.2612h2.1078v-13.582h-2.1078v-1.2612h3.7394"/>
 </g>
 <g id="text96">
  <path id="path3252" style="" d="m341.14 19.003v5.9619h-1.6228v-5.909c0-0.93485-0.18227-1.6345-0.5468-2.099-0.36454-0.46448-0.91135-0.69673-1.6404-0.69674-0.87606 0.000009-1.5669 0.27929-2.0726 0.83785-0.50565 0.55857-0.75848 1.32-0.75847 2.2842v5.5827h-1.6316v-13.723h1.6316v5.3799c0.38805-0.59383 0.84372-1.0377 1.367-1.3317 0.52916-0.29397 1.1377-0.44096 1.8256-0.44097 1.1348 0.00001 1.9932 0.35279 2.5753 1.0583 0.58207 0.69968 0.87311 1.7316 0.87312 3.0956"/>
  <path id="path3254" style="" d="m348.89 20c-1.3112 0.000005-2.2196 0.14994-2.7252 0.44979-0.50565 0.29986-0.75848 0.81139-0.75847 1.5346-0.00001 0.5762 0.18814 1.0348 0.56444 1.3758 0.38217 0.33514 0.89958 0.50271 1.5522 0.50271 0.89958 0.000001 1.6198-0.3175 2.1608-0.9525 0.5468-0.64088 0.8202-1.4905 0.82021-2.5488v-0.3616h-1.614m3.2367-0.67028v5.6356h-1.6228v-1.4993c-0.37042 0.59972-0.83197 1.0436-1.3846 1.3317-0.55269 0.28222-1.2288 0.42333-2.0285 0.42333-1.0113 0-1.8168-0.28222-2.4165-0.84666-0.59384-0.57032-0.89076-1.3317-0.89076-2.2842 0-1.1112 0.37042-1.9491 1.1112-2.5135 0.74671-0.56444 1.858-0.84666 3.3338-0.84667h2.2754v-0.15875c-0.00001-0.7467-0.24695-1.3229-0.74083-1.7286-0.48802-0.41156-1.1759-0.61735-2.0638-0.61736-0.56445 0.000008-1.1142 0.06762-1.6492 0.20285-0.53505 0.13524-1.0495 0.33809-1.5434 0.60854v-1.4993c0.59383-0.2293 1.17-0.3998 1.7286-0.51153 0.55856-0.11758 1.1024-0.17638 1.6316-0.17639 1.4287 0.00001 2.4959 0.37043 3.2014 1.1112 0.70555 0.74084 1.0583 1.8638 1.0583 3.369"/>
  <path id="path3256" style="" d="m361.77 15.378v1.5346c-0.45862-0.23518-0.93487-0.41157-1.4288-0.52917-0.4939-0.11758-1.0054-0.17638-1.5346-0.17639-0.80552 0.000009-1.4111 0.12348-1.8168 0.37042-0.39981 0.24695-0.59972 0.61737-0.59972 1.1112 0 0.3763 0.14405 0.67322 0.43215 0.89076 0.2881 0.21167 0.86724 0.41452 1.7374 0.60854l0.55563 0.12347c1.1524 0.24695 1.9697 0.59679 2.4518 1.0495 0.488 0.44686 0.732 1.073 0.73201 1.8785-0.00001 0.91722-0.36454 1.6434-1.0936 2.1784-0.7232 0.53504-1.7198 0.80257-2.9898 0.80257-0.52917 0-1.0818-0.05292-1.658-0.15875-0.57032-0.09995-1.173-0.25282-1.808-0.45861v-1.6757c0.59972 0.31162 1.1906 0.54681 1.7727 0.70556 0.58208 0.15287 1.1583 0.22931 1.7286 0.2293 0.76435 0.000001 1.3523-0.12935 1.7639-0.38806 0.41157-0.26458 0.61735-0.635 0.61736-1.1112-0.00001-0.44097-0.14994-0.77905-0.44979-1.0142-0.29399-0.23518-0.94369-0.46155-1.9491-0.6791l-0.56444-0.13229c-1.0054-0.21166-1.7316-0.53504-2.1784-0.97014-0.44685-0.44097-0.67028-1.0436-0.67028-1.808 0-0.92897 0.32926-1.6463 0.98778-2.1519 0.65851-0.50564 1.5934-0.75846 2.8046-0.75847 0.59971 0.00001 1.1642 0.04411 1.6933 0.13229 0.52916 0.08821 1.0172 0.2205 1.464 0.39688"/>
  <path id="path3258" style="" d="m373.11 19.003v5.9619h-1.6228v-5.909c-0.00001-0.93485-0.18227-1.6345-0.5468-2.099-0.36455-0.46448-0.91135-0.69673-1.6404-0.69674-0.87607 0.000009-1.5669 0.27929-2.0726 0.83785-0.50566 0.55857-0.75848 1.32-0.75848 2.2842v5.5827h-1.6316v-13.723h1.6316v5.3799c0.38806-0.59383 0.84373-1.0377 1.367-1.3317 0.52916-0.29397 1.1377-0.44096 1.8256-0.44097 1.1348 0.00001 1.9932 0.35279 2.5753 1.0583 0.58208 0.69968 0.87312 1.7316 0.87313 3.0956"/>
  <path id="path3260" style="" d="m380.26 11.259c-0.78788 1.3523-1.3729 2.6899-1.7551 4.0128-0.38218 1.3229-0.57327 2.6635-0.57326 4.0217-0.00001 1.3582 0.19108 2.7046 0.57326 4.0393 0.38805 1.3288 0.97307 2.6664 1.7551 4.0128h-1.4111c-0.88195-1.3817-1.5434-2.7399-1.9844-4.0746-0.4351-1.3347-0.65264-2.6605-0.65264-3.9776 0-1.3111 0.21754-2.6311 0.65264-3.9599 0.43509-1.3288 1.0965-2.687 1.9844-4.0746h1.4111"/>
  <path id="path3262" style="" d="m383.16 11.259h1.4111c0.88194 1.3876 1.5405 2.7458 1.9756 4.0746 0.44096 1.3288 0.66145 2.6488 0.66145 3.9599 0 1.317-0.22049 2.6429-0.66145 3.9776-0.4351 1.3347-1.0936 2.6929-1.9756 4.0746h-1.4111c0.78199-1.3464 1.3641-2.684 1.7462-4.0128 0.38805-1.3347 0.58208-2.6811 0.58209-4.0393-0.00001-1.3582-0.19404-2.6987-0.58209-4.0217-0.38218-1.3229-0.96426-2.6605-1.7462-4.0128"/>
 </g>
 <g id="g100" transform="translate(0 -5.0351)">
  <path id="rect102" fill="#fff" d="m460 100h100v40h-100z"/>
  <path id="rect104" d="m460 100h100v40h-100z" stroke="#000" stroke-width="2" fill="none"/>
 </g>
 <g id="g110" transform="translate(0 -5.0351)">
  <path id="rect112" fill="#fff" d="m460 180h100v40h-100z"/>
  <path id="rect114" d="m460 180h100v40h-100z" stroke="#000" stroke-width="2" fill="none"/>
 </g>
 <g id="g120" transform="translate(0 -5.0351)">
  <path id="rect122" fill="#fff" d="m460 60h100v40h-100z"/>
  <path id="rect124" d="m460 60h100v40h-100z" stroke="#000" stroke-width="2" fill="none"/>
 </g>
 <g id="g130" transform="translate(0 -5.0351)">
  <path id="rect132" fill="#fff" d="m460 260h100v40h-100z"/>
  <path id="rect134" d="m460 260h100v40h-100z" stroke="#000" stroke-width="2" fill="none"/>
 </g>
 <g id="g140" transform="translate(0 -5.0351)">
  <path id="rect142" fill="#fff" d="m460 340h100v40h-100z"/>
  <path id="rect144" d="m460 340h100v40h-100z" stroke="#000" stroke-width="2" fill="none"/>
 </g>
 <g id="g150" transform="translate(0 -5.0351)">
  <path id="rect152" fill="#fff" d="m420 60h40v40h-40z"/>
  <path id="rect154" d="m420 60h40v40h-40z" stroke="#000" stroke-width="2" fill="none"/>
  <g id="text156">
   <path id="path3282" style="" d="m439.99 73.517c-0.91723 0.000012-1.6081 0.45274-2.0726 1.3582-0.45861 0.89959-0.68792 2.2548-0.68791 4.0658-0.00001 1.805 0.2293 3.1603 0.68791 4.0658 0.46449 0.89958 1.1553 1.3494 2.0726 1.3494 0.92309 0.000001 1.614-0.44979 2.0726-1.3494 0.46448-0.90546 0.69672-2.2607 0.69673-4.0658-0.00001-1.8109-0.23225-3.1662-0.69673-4.0658-0.45862-0.90545-1.1495-1.3582-2.0726-1.3582m0-1.4111c1.4758 0.000014 2.6017 0.58504 3.3778 1.7551 0.78198 1.1642 1.173 2.8575 1.173 5.08-0.00001 2.2166-0.39101 3.91-1.173 5.08-0.77611 1.1642-1.9021 1.7462-3.3778 1.7462-1.4758 0-2.6047-0.58208-3.3867-1.7462-0.77611-1.17-1.1642-2.8634-1.1642-5.08 0-2.2225 0.38806-3.9158 1.1642-5.08 0.78198-1.17 1.9109-1.7551 3.3867-1.7551"/>
  </g>
 </g>
 <g id="g160" transform="translate(0 -5.0351)">
  <path id="rect162" fill="#fff" d="m420 100h40v40h-40z"/>
  <path id="rect164" d="m420 100h40v40h-40z" stroke="#000" stroke-width="2" fill="none"/>
  <g id="text166">
   <path id="path3287" style="" d="m436.49 124.01h2.9104v-10.045l-3.1662 0.635v-1.6228l3.1485-0.635h1.7815v11.668h2.9104v1.4993h-7.5847v-1.4993"/>
  </g>
 </g>
 <g id="g170" transform="translate(0 -5.0351)">
  <path id="rect172" fill="#fff" d="m420 140h40v40h-40z"/>
  <path id="rect174" d="m420 140h40v40h-40z" stroke="#000" stroke-width="2" fill="none"/>
  <g id="text176">
   <path id="path3292" style="" d="m437.72 164.01h6.2177v1.4993h-8.3608v-1.4993c0.67616-0.69968 1.5963-1.6375 2.7605-2.8134 1.17-1.1818 1.905-1.9432 2.2049-2.2842 0.57031-0.64088 0.96719-1.1818 1.1906-1.6228 0.2293-0.44684 0.34395-0.88487 0.34396-1.3141-0.00001-0.69966-0.24695-1.27-0.74084-1.711-0.48801-0.44096-1.126-0.66144-1.9138-0.66145-0.55857 0.00001-1.1495 0.097-1.7727 0.29104-0.61736 0.19404-1.2788 0.48802-1.9844 0.88194v-1.7992c0.71731-0.28809 1.3876-0.50564 2.0108-0.65264 0.62324-0.14698 1.1936-0.22047 1.711-0.22049 1.3641 0.00002 2.4518 0.34103 3.2632 1.0231 0.81138 0.68204 1.2171 1.5934 1.2171 2.734-0.00001 0.54094-0.1029 1.0554-0.30868 1.5434-0.19991 0.48214-0.56739 1.0525-1.1024 1.711-0.147 0.17052-0.61443 0.66441-1.4023 1.4817-0.78787 0.81139-1.8991 1.9491-3.3337 3.4131"/>
  </g>
 </g>
 <g id="g180" transform="translate(0 -5.0351)">
  <path id="rect182" fill="#fff" d="m420 180h40v40h-40z"/>
  <path id="rect184" d="m420 180h40v40h-40z" stroke="#000" stroke-width="2" fill="none"/>
  <g id="text186">
   <path id="path3297" style="" d="m441.58 198.41c0.85254 0.18227 1.5169 0.56151 1.9932 1.1377 0.48212 0.57621 0.72318 1.2876 0.72319 2.1343-0.00001 1.2994-0.44686 2.3048-1.3406 3.0162-0.89371 0.71144-2.1637 1.0672-3.81 1.0672-0.55268-0.00001-1.123-0.0559-1.711-0.16757-0.58208-0.10584-1.1847-0.26753-1.808-0.48507v-1.7198c0.49389 0.2881 1.0348 0.50565 1.6228 0.65264 0.58796 0.14699 1.2024 0.22048 1.8433 0.22048 1.1171 0 1.9667-0.22048 2.5488-0.66146 0.58796-0.44097 0.88194-1.0818 0.88195-1.9226-0.00001-0.77611-0.27341-1.3817-0.82021-1.8168-0.54093-0.44096-1.2965-0.66145-2.2666-0.66145h-1.5346v-1.464h1.6051c0.87606 0.00001 1.5463-0.17344 2.0108-0.52035 0.46449-0.35276 0.69673-0.85841 0.69674-1.5169-0.00001-0.67614-0.24107-1.1936-0.7232-1.5522-0.47625-0.36452-1.1612-0.54679-2.0549-0.5468-0.48802 0.00001-1.0113 0.0529-1.5699 0.15875-0.55857 0.10584-1.173 0.27047-1.8433 0.49388v-1.5875c0.67615-0.18814 1.3082-0.32925 1.8962-0.42334 0.59384-0.0941 1.1524-0.14109 1.6757-0.14111 1.3523 0.00002 2.4224 0.3087 3.2103 0.92604 0.78786 0.6115 1.1818 1.4405 1.1818 2.4871-0.00001 0.72909-0.20873 1.3464-0.62618 1.8521-0.41746 0.49978-1.0113 0.84668-1.7815 1.0407"/>
  </g>
 </g>
 <g id="g190" transform="translate(0 -5.0351)">
  <path id="rect192" fill="#fff" d="m420 220h40v40h-40z"/>
  <path id="rect194" d="m420 220h40v40h-40z" stroke="#000" stroke-width="2" fill="none"/>
  <g id="text196">
   <path id="path3302" style="" d="m441.08 233.9-4.4979 7.0291h4.4979v-7.0291m-0.46743-1.5522h2.2401v8.5813h1.8785v1.4817h-1.8785v3.1044h-1.7727v-3.1044h-5.9443v-1.7198l5.4769-8.3432"/>
  </g>
 </g>
 <g id="g200" transform="translate(0 -5.0351)">
  <path id="rect202" fill="#fff" d="m420 260h40v40h-40z"/>
  <path id="rect204" d="m420 260h40v40h-40z" stroke="#000" stroke-width="2" fill="none"/>
  <g id="text206">
   <path id="path3307" style="" d="m436.2 272.34h6.9938v1.4993h-5.3622v3.2279c0.2587-0.0882 0.5174-0.15286 0.77611-0.19403 0.2587-0.047 0.5174-0.0705 0.77611-0.0705 1.4699 0 2.6341 0.40276 3.4925 1.2083 0.85841 0.80551 1.2876 1.8962 1.2876 3.272-0.00001 1.417-0.44098 2.5194-1.3229 3.3073-0.88195 0.78199-2.1255 1.173-3.7306 1.173-0.55269 0-1.1171-0.047-1.6933-0.14111-0.57033-0.0941-1.1612-0.23519-1.7727-0.42333v-1.7904c0.52916 0.2881 1.076 0.50271 1.6404 0.64382 0.56444 0.14111 1.1612 0.21167 1.7904 0.21167 1.0172 0 1.8227-0.26753 2.4165-0.80257 0.59384-0.53505 0.89076-1.2612 0.89077-2.1784-0.00001-0.91722-0.29693-1.6434-0.89077-2.1784-0.59384-0.53504-1.3994-0.80256-2.4165-0.80257-0.47625 0.00001-0.9525 0.0529-1.4288 0.15875-0.47037 0.10584-0.9525 0.27047-1.4464 0.49389v-6.6146"/>
  </g>
 </g>
 <g id="g210" transform="translate(0 -5.0351)">
  <path id="rect212" fill="#fff" d="m420 300h40v40h-40z"/>
  <path id="rect214" d="m420 300h40v40h-40z" stroke="#000" stroke-width="2" fill="none"/>
  <g id="text216">
   <path id="path3312" style="" d="m440.21 318.22c-0.79964 0.00001-1.4346 0.27341-1.905 0.82021-0.4645 0.54681-0.69674 1.2965-0.69674 2.249 0 0.94662 0.23224 1.6963 0.69674 2.249 0.47036 0.54681 1.1054 0.82021 1.905 0.82021 0.79962 0 1.4317-0.2734 1.8962-0.82021 0.47037-0.55268 0.70555-1.3023 0.70556-2.249-0.00001-0.9525-0.23519-1.7022-0.70556-2.249-0.46449-0.5468-1.0966-0.8202-1.8962-0.82021m3.5366-5.5827v1.6228c-0.44686-0.21166-0.89959-0.37335-1.3582-0.48507-0.45274-0.1117-0.90253-0.16756-1.3494-0.16757-1.1759 0.00001-2.0755 0.39689-2.6987 1.1906-0.61737 0.79376-0.97014 1.9932-1.0583 3.5983 0.3469-0.51152 0.78199-0.90251 1.3053-1.173 0.52328-0.27634 1.0995-0.41451 1.7286-0.41451 1.3229 0 2.3665 0.40276 3.1309 1.2083 0.77022 0.79963 1.1553 1.8903 1.1553 3.272-0.00001 1.3523-0.39982 2.4371-1.1994 3.2544-0.79964 0.81727-1.8638 1.2259-3.1926 1.2259-1.5228 0-2.687-0.58208-3.4925-1.7462-0.80551-1.17-1.2083-2.8634-1.2083-5.08 0-2.0814 0.49388-3.7394 1.4817-4.9742 0.98778-1.2406 2.3136-1.8609 3.9776-1.8609 0.44684 0.00001 0.89663 0.0441 1.3494 0.13229 0.4586 0.0882 0.93485 0.2205 1.4288 0.39687"/>
  </g>
 </g>
 <g id="g220" transform="translate(0 -5.0351)">
  <path id="rect222" fill="#fff" d="m420 340h40v40h-40z"/>
  <path id="rect224" d="m420 340h40v40h-40z" stroke="#000" stroke-width="2" fill="none"/>
  <g id="text226">
   <path id="path3317" style="" d="m435.73 352.34h8.4667v0.75847l-4.7801 12.409h-1.8609l4.4979-11.668h-6.3235v-1.4993"/>
  </g>
 </g>
</svg>
