<?xml version="1.0" encoding="UTF-8" standalone="no"?>
<!-- Created with Inkscape (http://www.inkscape.org/) -->
<svg id="svg2" xmlns:rdf="http://www.w3.org/1999/02/22-rdf-syntax-ns#" xmlns="http://www.w3.org/2000/svg" height="313.63" width="229.82" version="1.1" xmlns:cc="http://creativecommons.org/ns#" xmlns:dc="http://purl.org/dc/elements/1.1/" viewBox="138 63 119.52797 175.05901">
 <metadata id="metadata48">
  <rdf:RDF>
   <cc:Work rdf:about="">
    <dc:format>image/svg+xml</dc:format>
    <dc:type rdf:resource="http://purl.org/dc/dcmitype/StillImage"/>
   </cc:Work>
  </rdf:RDF>
 </metadata>
 <g id="g4" transform="translate(-5.3755 -2.941)">
  <path id="rect6" fill="#fdfd04" d="m140 80h80v60h-80z"/>
  <path id="rect8" d="m140 80h80v60h-80z" stroke="#000" stroke-width="2" fill="none"/>
  <g id="text10">
   <path id="path3005" style="" d="m164.89 106.72-2.6789 3.605 2.8178 3.8034h-1.4354l-2.1564-2.9104-2.1564 2.9104h-1.4354l2.8774-3.8762-2.6326-3.5322h1.4354l1.9645 2.6392 1.9645-2.6392h1.4354"/>
   <path id="path3007" style="" d="m176.4 107.01v1.1377c-0.34396-0.18961-0.69013-0.33072-1.0385-0.42333-0.34396-0.097-0.69233-0.14552-1.0451-0.14552-0.78934 0-1.4023 0.25136-1.8388 0.75406-0.43657 0.4983-0.65485 1.1994-0.65485 2.1034s0.21828 1.6074 0.65485 2.1101c0.43656 0.4983 1.0495 0.74745 1.8388 0.74745 0.35278 0 0.70115-0.0463 1.0451-0.13891 0.34836-0.097 0.69453-0.24033 1.0385-0.42995v1.1245c-0.33955 0.15875-0.69233 0.27781-1.0583 0.35718-0.36161 0.0794-0.74746 0.11907-1.1576 0.11907-1.1157 0-2.002-0.35058-2.6591-1.0517-0.65705-0.70115-0.98557-1.647-0.98557-2.8377 0-1.2083 0.33073-2.1586 0.99219-2.8509 0.66586-0.69232 1.5765-1.0385 2.7318-1.0385 0.37482 0.00001 0.74083 0.0397 1.098 0.11906 0.35718 0.075 0.70335 0.18963 1.0385 0.34396"/>
   <path id="path3009" style="" d="m180.05 103.3h1.3163l-2.1564 2.4871h-1.012l1.8521-2.4871m-1.528 3.4264h1.2171v7.4084h-1.2171v-7.4084m0.60854-0.17859"/>
   <path id="path3011" style="" d="m188.05 108.15c0.30426-0.5468 0.66806-0.95029 1.0914-1.2105 0.42332-0.26017 0.92162-0.39025 1.4949-0.39026 0.77169 0.00001 1.367 0.2712 1.7859 0.81359 0.41891 0.538 0.62837 1.3053 0.62838 2.3019v4.4715h-1.2237v-4.4318c-0.00001-0.70996-0.12568-1.2369-0.37703-1.5809-0.25136-0.34395-0.63501-0.51593-1.1509-0.51594-0.6306 0.00001-1.1289 0.20947-1.4949 0.62839-0.36601 0.41893-0.54902 0.98999-0.54901 1.7132v4.187h-1.2237v-4.4318c-0.00001-0.71437-0.12568-1.2413-0.37703-1.5809-0.25136-0.34395-0.63942-0.51593-1.1642-0.51594-0.62178 0.00001-1.1157 0.21168-1.4817 0.63501-0.36601 0.41893-0.54902 0.98778-0.54901 1.7066v4.187h-1.2237v-7.4084h1.2237v1.1509c0.27781-0.45419 0.61074-0.78933 0.9988-1.0054 0.38805-0.21607 0.84887-0.3241 1.3824-0.32411 0.53798 0.00001 0.99439 0.13671 1.3692 0.4101 0.37923 0.27341 0.65925 0.67029 0.84006 1.1906"/>
   <path id="path3013" style="" d="m201.82 110.12v0.59531h-5.596c0.0529 0.83785 0.30427 1.4773 0.75407 1.9182 0.4542 0.43657 1.0848 0.65485 1.8918 0.65485 0.46743 0 0.91942-0.0573 1.356-0.17198 0.44097-0.11465 0.87753-0.28663 1.3097-0.51594v1.1509c-0.43657 0.18521-0.88415 0.32632-1.3428 0.42334-0.45862 0.097-0.92384 0.14552-1.3957 0.14552-1.1818 0-2.1189-0.34396-2.8112-1.0319-0.68792-0.68792-1.0319-1.6184-1.0319-2.7914 0-1.2127 0.32632-2.174 0.97896-2.884 0.65705-0.71437 1.5412-1.0716 2.6524-1.0716 0.9966 0.00001 1.7837 0.32192 2.3614 0.96573 0.58207 0.63942 0.87311 1.5103 0.87312 2.6128m-1.2171-0.35719c-0.009-0.66587-0.19624-1.1972-0.56224-1.5941-0.36161-0.39687-0.84227-0.59531-1.442-0.59531-0.6791 0-1.2237 0.19182-1.6338 0.57547-0.4057 0.38365-0.63942 0.92384-0.70115 1.6206l4.3392-0.007"/>
  </g>
 </g>
 <g id="g14" transform="translate(-5.3755 -2.941)">
  <path id="path16" d="m220 110c60 10 60 100 9.604 108.4" stroke="#000" stroke-width="2" fill="none"/>
  <path id="polygon18" d="m229.6 218.4 3.288 4.521-10.686-3.288 9.042-6.576z"/>
  <path id="polygon20" d="m229.6 218.4 3.288 4.521-10.686-3.288 9.042-6.576z" stroke="#000" stroke-width="2" fill="none"/>
 </g>
 <g id="g22" transform="translate(-5.3755 -2.941)">
  <path id="rect24" fill="#7babe3" d="m140 200h80v40h-80z"/>
  <path id="rect26" d="m140 200h80v40h-80z" stroke="#000" stroke-width="2" fill="none"/>
  <g id="text28">
   <path id="path3020" style="" d="m181.18 218.81c0.63941 0.13671 1.1377 0.42114 1.4949 0.85329 0.36159 0.43215 0.54239 0.96573 0.5424 1.6007-0.00001 0.97455-0.33515 1.7286-1.0054 2.2622-0.67028 0.53358-1.6228 0.80037-2.8575 0.80037-0.41451 0-0.84226-0.0419-1.2832-0.12568-0.43656-0.0794-0.88856-0.20064-1.356-0.3638v-1.2898c0.37041 0.21608 0.77611 0.37924 1.2171 0.48948 0.44098 0.11025 0.90179 0.16537 1.3825 0.16537 0.83784 0 1.475-0.16537 1.9116-0.4961 0.44096-0.33073 0.66145-0.81139 0.66146-1.442-0.00001-0.58208-0.20506-1.0363-0.61516-1.3626-0.4057-0.33072-0.97235-0.49609-1.7-0.49609h-1.1509v-1.098h1.2038c0.65705 0.00001 1.1598-0.13008 1.5081-0.39026 0.34836-0.26458 0.52255-0.64381 0.52255-1.1377 0-0.50711-0.1808-0.89517-0.54239-1.1642-0.3572-0.27339-0.87093-0.41009-1.5412-0.4101-0.36602 0.00001-0.75848 0.0397-1.1774 0.11906-0.41893 0.0794-0.87975 0.20286-1.3824 0.37042v-1.1906c0.50711-0.1411 0.98116-0.24694 1.4221-0.3175 0.44538-0.0705 0.86431-0.10583 1.2568-0.10584 1.0142 0.00001 1.8168 0.23153 2.4077 0.69454 0.5909 0.45862 0.88635 1.0804 0.88636 1.8653-0.00001 0.54682-0.15655 1.0098-0.46964 1.3891-0.3131 0.37483-0.75848 0.63501-1.3362 0.78052"/>
  </g>
 </g>
 <g id="text32">
  <path id="path3023" style="" d="m135.9 185.88h1.2171v7.4084h-1.2171v-7.4084m0-2.884h1.2171v1.5412h-1.2171v-1.5412"/>
  <path id="path3025" style="" d="m145.82 188.82v4.4715h-1.2171v-4.4318c0-0.70114-0.1367-1.2259-0.4101-1.5743-0.27341-0.34837-0.68352-0.52255-1.2303-0.52256-0.65705 0.00001-1.1752 0.20947-1.5544 0.62839-0.37924 0.41893-0.56886 0.98999-0.56885 1.7132v4.187h-1.2237v-7.4084h1.2237v1.1509c0.29104-0.44537 0.63279-0.77831 1.0253-0.9988 0.39687-0.22048 0.85328-0.33073 1.3692-0.33073 0.85107 0 1.4949 0.26459 1.9315 0.79375 0.43656 0.52476 0.65484 1.2987 0.65485 2.3217"/>
  <path id="path3027" style="" d="m149.46 183.78v2.1034h2.5069v0.94589h-2.5069v4.0217c0 0.60413 0.0816 0.99219 0.24474 1.1642 0.16757 0.17198 0.50491 0.25797 1.012 0.25796h1.2502v1.0186h-1.2502c-0.93928 0-1.5875-0.17418-1.9447-0.52255-0.35718-0.35278-0.53578-0.99219-0.53578-1.9182v-4.0217h-0.89297v-0.94589h0.89297v-2.1034h1.2237"/>
  <path id="path3029" style="" d="m164.05 185.88-2.6789 3.605 2.8178 3.8034h-1.4354l-2.1564-2.9104-2.1564 2.9104h-1.4354l2.8774-3.8762-2.6326-3.5322h1.4354l1.9645 2.6392 1.9645-2.6392h1.4354"/>
 </g>
 <g id="text38">
  <path id="path3032" style="" d="m135.9 65.884h1.2171v7.4084h-1.2171v-7.4084m0-2.884h1.2171v1.5412h-1.2171v-1.5412"/>
  <path id="path3034" style="" d="m145.82 68.821v4.4715h-1.2171v-4.4318c0-0.70114-0.1367-1.2259-0.4101-1.5743-0.27341-0.34836-0.68352-0.52255-1.2303-0.52255-0.65705 0.000006-1.1752 0.20947-1.5544 0.62839-0.37924 0.41893-0.56886 0.98999-0.56885 1.7132v4.187h-1.2237v-7.4084h1.2237v1.1509c0.29104-0.44538 0.63279-0.77831 1.0253-0.9988 0.39687-0.22048 0.85328-0.33072 1.3692-0.33073 0.85107 0.000007 1.4949 0.26459 1.9315 0.79375 0.43656 0.52476 0.65484 1.2987 0.65485 2.3217"/>
  <path id="path3036" style="" d="m149.46 63.781v2.1034h2.5069v0.94589h-2.5069v4.0217c0 0.60414 0.0816 0.99219 0.24474 1.1642 0.16757 0.17198 0.50491 0.25797 1.012 0.25797h1.2502v1.0186h-1.2502c-0.93928 0-1.5875-0.17418-1.9447-0.52255-0.35718-0.35278-0.53578-0.99219-0.53578-1.9182v-4.0217h-0.89297v-0.94589h0.89297v-2.1034h1.2237"/>
  <path id="path3038" style="" d="m162.98 65.044-2.3746 1.2832 2.3746 1.2898-0.38365 0.64823-2.2225-1.3428v2.4937h-0.75406v-2.4937l-2.2225 1.3428-0.38364-0.64823 2.3746-1.2898-2.3746-1.2832 0.38364-0.65485 2.2225 1.3428v-2.4937h0.75406v2.4937l2.2225-1.3428 0.38365 0.65485"/>
  <path id="path3040" style="" d="m165.84 72.181v3.9291h-1.2237v-10.226h1.2237v1.1245c0.25576-0.44097 0.57767-0.76729 0.96573-0.97896 0.39247-0.21607 0.8599-0.32411 1.4023-0.32412 0.89958 0.000007 1.6294 0.3572 2.1894 1.0716 0.56444 0.71438 0.84666 1.6537 0.84667 2.8178-0.00001 1.1642-0.28223 2.1034-0.84667 2.8178-0.56004 0.71438-1.2898 1.0716-2.1894 1.0716-0.5424-0.000001-1.0098-0.10583-1.4023-0.3175-0.38806-0.21608-0.70997-0.5446-0.96573-0.98558m4.1407-2.5863c-0.00001-0.89517-0.18521-1.5963-0.55563-2.1034-0.36601-0.51152-0.87092-0.76729-1.5147-0.76729-0.64382 0.000007-1.1509 0.25577-1.5214 0.76729-0.36601 0.50712-0.54901 1.2083-0.54901 2.1034 0 0.89518 0.183 1.5985 0.54901 2.1101 0.37042 0.50712 0.87754 0.76068 1.5214 0.76068 0.64382 0.000001 1.1487-0.25356 1.5147-0.76068 0.37042-0.51153 0.55562-1.2149 0.55563-2.1101"/>
  <path id="path3042" style="" d="m173.26 65.884h1.2171v7.4084h-1.2171v-7.4084m0-2.884h1.2171v1.5412h-1.2171v-1.5412"/>
 </g>
</svg>
