<?xml version="1.0" encoding="UTF-8" standalone="no"?>
<!-- Created with Inkscape (http://www.inkscape.org/) -->
<svg id="svg2" xmlns:rdf="http://www.w3.org/1999/02/22-rdf-syntax-ns#" xmlns="http://www.w3.org/2000/svg" height="310.77" width="1270.1" version="1.1" xmlns:cc="http://creativecommons.org/ns#" xmlns:dc="http://purl.org/dc/elements/1.1/" viewBox="-134 98 702.95376 168.58924">
 <metadata id="metadata202">
  <rdf:RDF>
   <cc:Work rdf:about="">
    <dc:format>image/svg+xml</dc:format>
    <dc:type rdf:resource="http://purl.org/dc/dcmitype/StillImage"/>
   </cc:Work>
  </rdf:RDF>
 </metadata>
 <g id="g4" transform="translate(-2.0463 -2.7054)">
  <path id="path6" d="m410 230c20 0 20 5.2 30.264 5.097" stroke="#000" stroke-width="2" fill="none"/>
  <path id="polygon8" d="m440.26 235.1-2.549-4.974 10.049 4.899-9.949 5.1z"/>
  <path id="polygon10" d="m440.26 235.1-2.549-4.974 10.049 4.899-9.949 5.1z" stroke="#000" stroke-width="2" fill="none"/>
 </g>
 <g id="g12" transform="translate(-2.0463 -2.7054)">
  <path id="rect14" fill="#7babe3" d="m280 100h60v70h-60z"/>
  <path id="rect16" d="m280 100h60v70h-60z" stroke="#000" stroke-width="2" fill="none"/>
 </g>
 <g id="g18" transform="translate(-2.0463 -2.7054)">
  <path id="rect20" fill="#7babe3" d="m380 100h60v70h-60z"/>
  <path id="rect22" d="m380 100h60v70h-60z" stroke="#000" stroke-width="2" fill="none"/>
 </g>
 <g id="g24" transform="translate(-2.0463 -2.7054)">
  <path id="path26" d="m440 156c40 0 70-26 100.26-26" stroke="#000" stroke-width="2" fill="none"/>
  <path id="polygon28" d="m540.26 130-2.5-5 10 5-10 5z"/>
  <path id="polygon30" d="m540.26 130-2.5-5 10 5-10 5z" stroke="#000" stroke-width="2" fill="none"/>
 </g>
 <g id="g32" transform="translate(-2.0463 -2.7054)">
  <path id="path34" d="m240 156c36 0 0-21 30.264-21" stroke="#000" stroke-width="2" fill="none"/>
  <path id="polygon36" d="m270.26 135-2.5-5 10 5-10 5z"/>
  <path id="polygon38" d="m270.26 135-2.5-5 10 5-10 5z" stroke="#000" stroke-width="2" fill="none"/>
 </g>
 <g id="g40" transform="translate(-2.0463 -2.7054)">
  <path id="path42" d="m510 256c30 0 9.213-26 29.477-26" stroke="#f62e2e" stroke-width="2" fill="none"/>
  <path id="polygon44" fill="#f62e2e" d="m539.48 230-2.5-5 10 5-10 5z"/>
  <path id="polygon46" d="m539.48 230-2.5-5 10 5-10 5z" stroke="#f62e2e" stroke-width="2" fill="none"/>
 </g>
 <g id="g48" transform="translate(-2.0463 -2.7054)">
  <path id="path50" d="m472.07 189.4c-6.33-36.41-20.07-29.4-32.07-33.4" stroke="#f62e2e" stroke-width="2" fill="none"/>
  <path id="polygon52" fill="#f62e2e" d="m472.07 189.4 4.498-3.319-3.213 10.708-6.639-8.995z"/>
  <path id="polygon54" d="m472.07 189.4 4.498-3.319-3.213 10.708-6.639-8.995z" stroke="#f62e2e" stroke-width="2" fill="none"/>
 </g>
 <g id="g56" transform="translate(-2.0463 -2.7054)">
  <path id="rect58" fill="#fdfd04" d="m390 220h20v20h-20z"/>
  <path id="rect60" d="m390 220h20v20h-20z" stroke="#000" stroke-width="2" fill="none"/>
 </g>
 <g id="text62">
  <path id="path3096" style="" d="m260.66 220.38h1.7815v11.668h6.4117v1.4993h-8.1933v-13.167"/>
  <path id="path3098" style="" d="m270.65 223.67h1.6228v9.8778h-1.6228v-9.8778m0-3.8453h1.6228v2.0549h-1.6228v-2.0549"/>
  <path id="path3100" style="" d="m281.95 223.96v1.5346c-0.45862-0.23517-0.93487-0.41156-1.4288-0.52916-0.4939-0.11759-1.0054-0.17638-1.5346-0.17639-0.80551 0.00001-1.4111 0.12348-1.8168 0.37042-0.39981 0.24695-0.59972 0.61736-0.59972 1.1112 0 0.37631 0.14405 0.67323 0.43216 0.89077 0.28809 0.21167 0.86724 0.41452 1.7374 0.60854l0.55563 0.12347c1.1524 0.24695 1.9697 0.59679 2.4518 1.0495 0.488 0.44686 0.73201 1.073 0.73201 1.8785 0 0.91722-0.36454 1.6434-1.0936 2.1784-0.7232 0.53505-1.7198 0.80257-2.9898 0.80257-0.52917 0-1.0819-0.0529-1.6581-0.15875-0.57032-0.0999-1.173-0.25282-1.808-0.45861v-1.6757c0.59972 0.31162 1.1906 0.5468 1.7727 0.70555 0.58208 0.15287 1.1583 0.22931 1.7286 0.22931 0.76435 0 1.3523-0.12935 1.7639-0.38806 0.41157-0.26458 0.61735-0.63499 0.61736-1.1112-0.00001-0.44096-0.14994-0.77904-0.44979-1.0142-0.29399-0.23518-0.94369-0.46155-1.9491-0.6791l-0.56444-0.13229c-1.0054-0.21166-1.7316-0.53504-2.1784-0.97014-0.44685-0.44096-0.67028-1.0436-0.67028-1.808 0-0.92897 0.32926-1.6463 0.98778-2.1519 0.65852-0.50564 1.5934-0.75846 2.8046-0.75847 0.59972 0.00001 1.1642 0.0441 1.6933 0.13229 0.52916 0.0882 1.0172 0.22049 1.464 0.39687"/>
  <path id="path3102" style="" d="m286.68 220.86v2.8046h3.3426v1.2612h-3.3426v5.3622c0 0.80551 0.10877 1.3229 0.32632 1.5522 0.22342 0.2293 0.67322 0.34396 1.3494 0.34395h1.6669v1.3582h-1.6669c-1.2524 0-2.1167-0.23225-2.5929-0.69674-0.47625-0.47037-0.71437-1.3229-0.71437-2.5576v-5.3622h-1.1906v-1.2612h1.1906v-2.8046h1.6316"/>
  <path id="path3104" style="" d="m296.66 228.58c-1.3112 0-2.2196 0.14993-2.7252 0.44979-0.50565 0.29986-0.75848 0.81139-0.75847 1.5346-0.00001 0.5762 0.18814 1.0348 0.56444 1.3758 0.38217 0.33514 0.89958 0.50271 1.5522 0.50271 0.89958 0 1.6198-0.3175 2.1608-0.9525 0.5468-0.64088 0.8202-1.4905 0.82021-2.5488v-0.36159h-1.614m3.2367-0.67028v5.6356h-1.6228v-1.4993c-0.37042 0.59973-0.83197 1.0436-1.3846 1.3317-0.55269 0.28222-1.2288 0.42333-2.0285 0.42333-1.0113 0-1.8168-0.28222-2.4165-0.84667-0.59384-0.57032-0.89076-1.3317-0.89076-2.2842 0-1.1112 0.37042-1.9491 1.1112-2.5135 0.74671-0.56444 1.858-0.84666 3.3338-0.84666h2.2754v-0.15875c-0.00001-0.74671-0.24695-1.3229-0.74083-1.7286-0.48802-0.41157-1.1759-0.61735-2.0638-0.61736-0.56445 0.00001-1.1142 0.0676-1.6492 0.20284-0.53505 0.13524-1.0495 0.33809-1.5434 0.60855v-1.4993c0.59384-0.22929 1.17-0.3998 1.7286-0.51153 0.55856-0.11758 1.1024-0.17637 1.6316-0.17638 1.4287 0.00001 2.4959 0.37042 3.2014 1.1112 0.70555 0.74085 1.0583 1.8638 1.0583 3.369"/>
  <path id="path3106" style="" d="m303.31 220.38h8.3256v1.4993h-6.544v3.8982h6.2706v1.4993h-6.2706v4.7713h6.7028v1.4993h-8.4843v-13.167"/>
  <path id="path3108" style="" d="m314.67 219.82h1.6228v13.723h-1.6228v-13.723"/>
  <path id="path3110" style="" d="m328.13 228.2v0.79375h-7.4612c0.0705 1.1171 0.40569 1.9697 1.0054 2.5576 0.60559 0.58209 1.4464 0.87313 2.5224 0.87313 0.62323 0 1.2259-0.0764 1.808-0.22931 0.58795-0.15287 1.17-0.38217 1.7462-0.68791v1.5346c-0.58209 0.24694-1.1789 0.43509-1.7904 0.56444-0.61149 0.12935-1.2318 0.19403-1.8609 0.19403-1.5757 0-2.8252-0.45861-3.7483-1.3758-0.91722-0.91722-1.3758-2.1578-1.3758-3.7218 0-1.6169 0.43509-2.8986 1.3053-3.8453 0.87606-0.95248 2.0549-1.4287 3.5366-1.4287 1.3288 0.00001 2.3783 0.42922 3.1485 1.2876 0.7761 0.85256 1.1642 2.0138 1.1642 3.4837m-1.6228-0.47625c-0.0118-0.88782-0.26165-1.5963-0.74965-2.1255-0.48214-0.52916-1.123-0.79374-1.9226-0.79375-0.90547 0.00001-1.6316 0.25577-2.1784 0.76729-0.54093 0.51153-0.85255 1.2318-0.93486 2.1608l5.7856-0.009"/>
  <path id="path3112" style="" d="m338.49 225.56c0.40568-0.72907 0.89075-1.267 1.4552-1.614 0.56443-0.34689 1.2288-0.52033 1.9932-0.52034 1.0289 0.00001 1.8227 0.3616 2.3812 1.0848 0.55855 0.71732 0.83783 1.7404 0.83785 3.0692v5.9619h-1.6316v-5.909c-0.00001-0.94662-0.16758-1.6492-0.50271-2.1078-0.33515-0.4586-0.84667-0.68791-1.5346-0.68791-0.84079 0-1.5052 0.27929-1.9932 0.83784-0.48802 0.55857-0.73202 1.32-0.73201 2.2842v5.5827h-1.6316v-5.909c-0.00001-0.9525-0.16757-1.6551-0.50271-2.1078-0.33514-0.4586-0.85255-0.68791-1.5522-0.68791-0.82903 0-1.4875 0.28223-1.9756 0.84666-0.48801 0.55857-0.73201 1.317-0.73201 2.2754v5.5827h-1.6316v-9.8778h1.6316v1.5346c0.37041-0.60559 0.81432-1.0524 1.3317-1.3406 0.5174-0.28809 1.1318-0.43214 1.8433-0.43215 0.71731 0.00001 1.3258 0.18227 1.8256 0.5468 0.50564 0.36455 0.87899 0.89371 1.1201 1.5875"/>
  <path id="path3114" style="" d="m360.94 222.55-3.1662 1.711 3.1662 1.7198-0.51153 0.86431-2.9633-1.7904v3.3249h-1.0054v-3.3249l-2.9633 1.7904-0.51153-0.86431 3.1662-1.7198-3.1662-1.711 0.51153-0.87312 2.9633 1.7903v-3.3249h1.0054v3.3249l2.9633-1.7903 0.51153 0.87312"/>
  <path id="path3116" style="" d="m363.01 229.65v-5.9796h1.6228v5.9178c0 0.93486 0.18226 1.6375 0.5468 2.1078 0.36454 0.46449 0.91134 0.69673 1.6404 0.69673 0.87606 0 1.5669-0.27928 2.0726-0.83785 0.51152-0.55856 0.76728-1.32 0.76729-2.2842v-5.6003h1.6228v9.8778h-1.6228v-1.517c-0.39395 0.59973-0.85256 1.0466-1.3758 1.3406-0.51742 0.2881-1.1201 0.43215-1.808 0.43215-1.1348 0-1.9961-0.35278-2.5841-1.0583-0.58797-0.70555-0.88195-1.7374-0.88195-3.0956m4.0834-6.2177"/>
  <path id="path3118" style="" d="m374.65 223.67h1.6228v10.054c0 1.2582-0.24107 2.1696-0.72319 2.734-0.47625 0.56444-1.2465 0.84666-2.3107 0.84667h-0.61736v-1.3758h0.43215c0.61736 0 1.0378-0.14405 1.2612-0.43215 0.22342-0.28222 0.33513-0.87312 0.33514-1.7727v-10.054m0-3.8453h1.6228v2.0549h-1.6228v-2.0549"/>
 </g>
 <g id="g66" transform="translate(-2.0463 -2.7054)">
  <path id="rect68" fill="#7be38e" d="m450 200h60v70h-60z"/>
  <path id="rect70" d="m450 200h60v70h-60z" stroke="#000" stroke-width="2" fill="none"/>
 </g>
 <g id="g72" stroke="#f62e2e" stroke-width="2" fill="none" transform="translate(-2.0463 -2.7054)">
  <path id="line74" d="m488 132 20 20"/>
  <path id="line76" d="m488 152 20-20"/>
 </g>
 <g id="g78" transform="translate(-2.0463 -2.7054)">
  <path id="rect80" fill="#fdfd04" d="m120 120h20v20h-20z"/>
  <path id="rect82" d="m120 120h20v20h-20z" stroke="#000" stroke-width="2" fill="none"/>
 </g>
 <g id="text84">
  <path id="path3127" style="" d="m-116.71 120.38h1.7815v11.668h6.4117v1.4993h-8.1932v-13.167"/>
  <path id="path3129" style="" d="m-106.73 123.67h1.6228v9.8778h-1.6228v-9.8778m0-3.8453h1.6228v2.0549h-1.6228v-2.0549"/>
  <path id="path3131" style="" d="m-95.424 123.96v1.5346c-0.45862-0.23517-0.93487-0.41156-1.4287-0.52916-0.49389-0.11759-1.0054-0.17638-1.5346-0.17639-0.80551 0.00001-1.4111 0.12348-1.8168 0.37042-0.39982 0.24695-0.59972 0.61736-0.59972 1.1112 0 0.37631 0.14405 0.67323 0.43215 0.89077 0.2881 0.21167 0.86724 0.41452 1.7374 0.60854l0.55562 0.12347c1.1524 0.24695 1.9697 0.59679 2.4518 1.0495 0.488 0.44686 0.732 1.073 0.73201 1.8785-0.000009 0.91722-0.36454 1.6434-1.0936 2.1784-0.7232 0.53505-1.7198 0.80257-2.9898 0.80257-0.52917 0-1.0819-0.0529-1.6581-0.15875-0.57033-0.0999-1.173-0.25282-1.808-0.45861v-1.6757c0.59972 0.31162 1.1906 0.5468 1.7727 0.70555 0.58208 0.15287 1.1583 0.22931 1.7286 0.22931 0.76434 0 1.3523-0.12935 1.7639-0.38806 0.41157-0.26458 0.61735-0.63499 0.61736-1.1112-0.000007-0.44096-0.14994-0.77904-0.44979-1.0142-0.29399-0.23518-0.94368-0.46155-1.9491-0.6791l-0.56444-0.13229c-1.0054-0.21166-1.7315-0.53504-2.1784-0.97014-0.44686-0.44096-0.67028-1.0436-0.67028-1.808 0-0.92897 0.32926-1.6463 0.98778-2.1519 0.65851-0.50564 1.5934-0.75846 2.8046-0.75847 0.59972 0.00001 1.1642 0.0441 1.6933 0.13229 0.52916 0.0882 1.0172 0.22049 1.464 0.39687"/>
  <path id="path3133" style="" d="m-90.697 120.86v2.8046h3.3426v1.2612h-3.3426v5.3622c-0.000003 0.80551 0.10877 1.3229 0.32632 1.5522 0.22342 0.2293 0.67321 0.34396 1.3494 0.34395h1.6669v1.3582h-1.6669c-1.2524 0-2.1167-0.23225-2.5929-0.69674-0.47625-0.47037-0.71438-1.3229-0.71437-2.5576v-5.3622h-1.1906v-1.2612h1.1906v-2.8046h1.6316"/>
  <path id="path3135" style="" d="m-80.722 128.58c-1.3112 0-2.2196 0.14993-2.7252 0.44979-0.50565 0.29986-0.75847 0.81139-0.75847 1.5346-0.000003 0.5762 0.18814 1.0348 0.56444 1.3758 0.38217 0.33514 0.89958 0.50271 1.5522 0.50271 0.89958 0 1.6198-0.3175 2.1608-0.9525 0.5468-0.64088 0.8202-1.4905 0.82021-2.5488v-0.36159h-1.614m3.2367-0.67028v5.6356h-1.6228v-1.4993c-0.37042 0.59973-0.83197 1.0436-1.3847 1.3317-0.55269 0.28222-1.2288 0.42333-2.0285 0.42333-1.0113 0-1.8168-0.28222-2.4165-0.84667-0.59384-0.57032-0.89076-1.3317-0.89076-2.2842-0.000001-1.1112 0.37042-1.9491 1.1112-2.5135 0.74671-0.56444 1.858-0.84666 3.3337-0.84666h2.2754v-0.15875c-0.000007-0.74671-0.24695-1.3229-0.74083-1.7286-0.48802-0.41157-1.1759-0.61735-2.0637-0.61736-0.56445 0.00001-1.1142 0.0676-1.6492 0.20284-0.53505 0.13524-1.0495 0.33809-1.5434 0.60855v-1.4993c0.59384-0.22929 1.17-0.3998 1.7286-0.51153 0.55856-0.11758 1.1024-0.17637 1.6316-0.17638 1.4287 0.00001 2.4959 0.37042 3.2015 1.1112 0.70555 0.74085 1.0583 1.8638 1.0583 3.369"/>
  <path id="path3137" style="" d="m-74.063 120.38h8.3255v1.4993h-6.544v3.8982h6.2706v1.4993h-6.2706v4.7713h6.7028v1.4993h-8.4843v-13.167"/>
  <path id="path3139" style="" d="m-62.704 119.82h1.6228v13.723h-1.6228v-13.723"/>
  <path id="path3141" style="" d="m-49.245 128.2v0.79375h-7.4612c0.07055 1.1171 0.40569 1.9697 1.0054 2.5576 0.6056 0.58209 1.4464 0.87313 2.5224 0.87313 0.62323 0 1.2259-0.0764 1.808-0.22931 0.58795-0.15287 1.17-0.38217 1.7462-0.68791v1.5346c-0.58209 0.24694-1.1789 0.43509-1.7903 0.56444-0.61149 0.12935-1.2318 0.19403-1.8609 0.19403-1.5757 0-2.8252-0.45861-3.7483-1.3758-0.91722-0.91722-1.3758-2.1578-1.3758-3.7218-0.000001-1.6169 0.43509-2.8986 1.3053-3.8453 0.87606-0.95248 2.0549-1.4287 3.5366-1.4287 1.3288 0.00001 2.3783 0.42922 3.1485 1.2876 0.7761 0.85256 1.1642 2.0138 1.1642 3.4837m-1.6228-0.47625c-0.01177-0.88782-0.26165-1.5963-0.74965-2.1255-0.48214-0.52916-1.123-0.79374-1.9226-0.79375-0.90547 0.00001-1.6316 0.25577-2.1784 0.76729-0.54093 0.51153-0.85255 1.2318-0.93486 2.1608l5.7855-0.009"/>
  <path id="path3143" style="" d="m-38.891 125.56c0.40568-0.72907 0.89075-1.267 1.4552-1.614 0.56443-0.34689 1.2288-0.52033 1.9932-0.52034 1.0289 0.00001 1.8227 0.3616 2.3812 1.0848 0.55855 0.71732 0.83783 1.7404 0.83785 3.0692v5.9619h-1.6316v-5.909c-0.000014-0.94662-0.16758-1.6492-0.50271-2.1078-0.33515-0.4586-0.84668-0.68791-1.5346-0.68791-0.8408 0-1.5052 0.27929-1.9932 0.83784-0.48802 0.55857-0.73202 1.32-0.73201 2.2842v5.5827h-1.6316v-5.909c-0.000008-0.9525-0.16758-1.6551-0.50271-2.1078-0.33515-0.4586-0.85255-0.68791-1.5522-0.68791-0.82903 0-1.4875 0.28223-1.9756 0.84666-0.48801 0.55857-0.73202 1.317-0.73201 2.2754v5.5827h-1.6316v-9.8778h1.6316v1.5346c0.37041-0.60559 0.81432-1.0524 1.3317-1.3406 0.5174-0.28809 1.1318-0.43214 1.8433-0.43215 0.71731 0.00001 1.3258 0.18227 1.8256 0.5468 0.50564 0.36455 0.879 0.89371 1.1201 1.5875"/>
  <path id="path3145" style="" d="m-16.437 122.55-3.1662 1.711 3.1662 1.7198-0.51153 0.86431-2.9633-1.7904v3.3249h-1.0054v-3.3249l-2.9633 1.7904-0.51153-0.86431 3.1662-1.7198-3.1662-1.711 0.51153-0.87312 2.9633 1.7903v-3.3249h1.0054v3.3249l2.9633-1.7903 0.51153 0.87312"/>
  <path id="path3147" style="" d="m-7.4058 122.55-3.1662 1.711 3.1662 1.7198-0.51153 0.86431-2.9633-1.7904v3.3249h-1.0054v-3.3249l-2.9633 1.7904-0.51153-0.86431 3.1662-1.7198-3.1662-1.711 0.51153-0.87312 2.9633 1.7903v-3.3249h1.0054v3.3249l2.9633-1.7903 0.51153 0.87312"/>
  <path id="path3149" style="" d="m-3.5959 132.06v5.2388h-1.6316v-13.635h1.6316v1.4993c0.34101-0.58795 0.77023-1.023 1.2876-1.3053 0.52328-0.28809 1.1465-0.43214 1.8697-0.43215 1.1994 0.00001 2.1725 0.47626 2.9192 1.4287 0.75258 0.95251 1.1289 2.2049 1.1289 3.7571-0.0000105 1.5522-0.37631 2.8046-1.1289 3.7571-0.74672 0.9525-1.7198 1.4288-2.9192 1.4288-0.7232 0-1.3464-0.14111-1.8697-0.42333-0.51741-0.2881-0.94662-0.72614-1.2876-1.3141m5.521-3.4484c-0.0000088-1.1936-0.24695-2.1284-0.74083-2.8046-0.48802-0.68202-1.1612-1.023-2.0197-1.023-0.85843 0.00001-1.5346 0.34103-2.0285 1.023-0.48801 0.67617-0.73202 1.611-0.73201 2.8046-0.0000032 1.1936 0.244 2.1314 0.73201 2.8134 0.49388 0.67616 1.17 1.0142 2.0285 1.0142 0.85842 0 1.5316-0.33808 2.0197-1.0142 0.49388-0.68203 0.74082-1.6198 0.74083-2.8134"/>
  <path id="path3151" style="" d="m14.749 128.2v0.79375h-7.4612c0.070553 1.1171 0.40569 1.9697 1.0054 2.5576 0.6056 0.58209 1.4464 0.87313 2.5224 0.87313 0.62323 0 1.2259-0.0764 1.808-0.22931 0.58795-0.15287 1.17-0.38217 1.7462-0.68791v1.5346c-0.58209 0.24694-1.1789 0.43509-1.7903 0.56444-0.61149 0.12935-1.2318 0.19403-1.8609 0.19403-1.5757 0-2.8252-0.45861-3.7483-1.3758-0.91722-0.91722-1.3758-2.1578-1.3758-3.7218-0.000001-1.6169 0.43509-2.8986 1.3053-3.8453 0.87606-0.95248 2.0549-1.4287 3.5366-1.4287 1.3288 0.00001 2.3783 0.42922 3.1485 1.2876 0.7761 0.85256 1.1642 2.0138 1.1642 3.4837m-1.6228-0.47625c-0.01177-0.88782-0.26165-1.5963-0.74965-2.1255-0.48214-0.52916-1.123-0.79374-1.9226-0.79375-0.90547 0.00001-1.6316 0.25577-2.1784 0.76729-0.54093 0.51153-0.85255 1.2318-0.93486 2.1608l5.7855-0.009"/>
  <path id="path3153" style="" d="m17.412 119.82h1.6228v13.723h-1.6228v-13.723"/>
  <path id="path3155" style="" d="m30.87 128.2v0.79375h-7.4612c0.07055 1.1171 0.40569 1.9697 1.0054 2.5576 0.6056 0.58209 1.4464 0.87313 2.5224 0.87313 0.62323 0 1.2259-0.0764 1.808-0.22931 0.58795-0.15287 1.17-0.38217 1.7462-0.68791v1.5346c-0.58209 0.24694-1.1789 0.43509-1.7903 0.56444-0.61149 0.12935-1.2318 0.19403-1.8609 0.19403-1.5757 0-2.8252-0.45861-3.7483-1.3758-0.91722-0.91722-1.3758-2.1578-1.3758-3.7218-0.000001-1.6169 0.43509-2.8986 1.3053-3.8453 0.87606-0.95248 2.0549-1.4287 3.5366-1.4287 1.3288 0.00001 2.3783 0.42922 3.1485 1.2876 0.7761 0.85256 1.1642 2.0138 1.1642 3.4837m-1.6228-0.47625c-0.01177-0.88782-0.26165-1.5963-0.74965-2.1255-0.48214-0.52916-1.123-0.79374-1.9226-0.79375-0.90547 0.00001-1.6316 0.25577-2.1784 0.76729-0.54093 0.51153-0.85255 1.2318-0.93486 2.1608l5.7855-0.009"/>
  <path id="path3157" style="" d="m33.534 123.67h1.6228v10.054c-0.000004 1.2582-0.24107 2.1696-0.72319 2.734-0.47625 0.56444-1.2465 0.84666-2.3107 0.84667h-0.61736v-1.3758h0.43215c0.61736 0 1.0378-0.14405 1.2612-0.43215 0.22342-0.28222 0.33514-0.87312 0.33514-1.7727v-10.054m0-3.8453h1.6228v2.0549h-1.6228v-2.0549"/>
  <path id="path3159" style="" d="m46.992 128.2v0.79375h-7.4612c0.07055 1.1171 0.40569 1.9697 1.0054 2.5576 0.6056 0.58209 1.4464 0.87313 2.5224 0.87313 0.62323 0 1.2259-0.0764 1.808-0.22931 0.58795-0.15287 1.17-0.38217 1.7462-0.68791v1.5346c-0.58209 0.24694-1.1789 0.43509-1.7903 0.56444-0.61149 0.12935-1.2318 0.19403-1.8609 0.19403-1.5757 0-2.8252-0.45861-3.7483-1.3758-0.91722-0.91722-1.3758-2.1578-1.3758-3.7218-0.000001-1.6169 0.43509-2.8986 1.3053-3.8453 0.87606-0.95248 2.0549-1.4287 3.5366-1.4287 1.3288 0.00001 2.3783 0.42922 3.1485 1.2876 0.7761 0.85256 1.1642 2.0138 1.1642 3.4837m-1.6228-0.47625c-0.01177-0.88782-0.26165-1.5963-0.74965-2.1255-0.48214-0.52916-1.123-0.79374-1.9226-0.79375-0.90547 0.00001-1.6316 0.25577-2.1784 0.76729-0.54093 0.51153-0.85255 1.2318-0.93486 2.1608l5.7855-0.009"/>
 </g>
 <g id="g88" transform="translate(-2.0463 -2.7054)">
  <path id="rect90" fill="#7babe3" d="m180 100h60v70h-60z"/>
  <path id="rect92" d="m180 100h60v70h-60z" stroke="#000" stroke-width="2" fill="none"/>
 </g>
 <g id="g94" transform="translate(-2.0463 -2.7054)">
  <path id="path96" d="m139.5 130c20.5 0 20.5 5.2 30.764 5.097" stroke="#000" stroke-width="2" fill="none"/>
  <path id="polygon98" d="m170.26 135.1-2.549-4.974 10.049 4.899-9.949 5.1z"/>
  <path id="polygon100" d="m170.26 135.1-2.549-4.974 10.049 4.899-9.949 5.1z" stroke="#000" stroke-width="2" fill="none"/>
 </g>
 <g id="g102" transform="translate(-2.0463 -2.7054)">
  <path id="rect104" fill="#fdfd04" d="m60 120h20v20h-20z"/>
  <path id="rect106" d="m60 120h20v20h-20z" stroke="#000" stroke-width="2" fill="none"/>
 </g>
 <g id="g108" transform="translate(-2.0463 -2.7054)">
  <path id="path110" d="m80 130h30.264" stroke="#000" stroke-width="2" fill="none"/>
  <path id="polygon112" d="m110.26 130-2.5-5 10 5-10 5z"/>
  <path id="polygon114" d="m110.26 130-2.5-5 10 5-10 5z" stroke="#000" stroke-width="2" fill="none"/>
 </g>
 <g id="text116">
  <path id="path3170" style="" d="m-134 220.38h1.7815v11.668h6.4117v1.4993h-8.1932v-13.167"/>
  <path id="path3172" style="" d="m-124.02 223.67h1.6228v9.8778h-1.6228v-9.8778m0-3.8453h1.6228v2.0549h-1.6228v-2.0549"/>
  <path id="path3174" style="" d="m-112.71 223.96v1.5346c-0.45862-0.23517-0.93486-0.41156-1.4288-0.52916-0.49389-0.11759-1.0054-0.17638-1.5346-0.17639-0.80551 0.00001-1.4111 0.12348-1.8168 0.37042-0.39982 0.24695-0.59972 0.61736-0.59972 1.1112 0 0.37631 0.14405 0.67323 0.43215 0.89077 0.2881 0.21167 0.86724 0.41452 1.7374 0.60854l0.55562 0.12347c1.1524 0.24695 1.9697 0.59679 2.4518 1.0495 0.488 0.44686 0.732 1.073 0.73201 1.8785-0.00001 0.91722-0.36455 1.6434-1.0936 2.1784-0.7232 0.53505-1.7198 0.80257-2.9898 0.80257-0.52917 0-1.0818-0.0529-1.658-0.15875-0.57033-0.0999-1.173-0.25282-1.808-0.45861v-1.6757c0.59972 0.31162 1.1906 0.5468 1.7727 0.70555 0.58208 0.15287 1.1583 0.22931 1.7286 0.22931 0.76434 0 1.3523-0.12935 1.7639-0.38806 0.41156-0.26458 0.61735-0.63499 0.61736-1.1112-0.00001-0.44096-0.14994-0.77904-0.4498-1.0142-0.29398-0.23518-0.94368-0.46155-1.9491-0.6791l-0.56444-0.13229c-1.0054-0.21166-1.7316-0.53504-2.1784-0.97014-0.44686-0.44096-0.67028-1.0436-0.67028-1.808 0-0.92897 0.32926-1.6463 0.98778-2.1519 0.65851-0.50564 1.5934-0.75846 2.8046-0.75847 0.59971 0.00001 1.1642 0.0441 1.6933 0.13229 0.52916 0.0882 1.0172 0.22049 1.464 0.39687"/>
  <path id="path3176" style="" d="m-107.98 220.86v2.8046h3.3426v1.2612h-3.3426v5.3622c0 0.80551 0.10877 1.3229 0.32632 1.5522 0.22342 0.2293 0.67321 0.34396 1.3494 0.34395h1.6669v1.3582h-1.6669c-1.2524 0-2.1167-0.23225-2.5929-0.69674-0.47625-0.47037-0.71438-1.3229-0.71438-2.5576v-5.3622h-1.1906v-1.2612h1.1906v-2.8046h1.6316"/>
  <path id="path3178" style="" d="m-98.008 228.58c-1.3112 0-2.2196 0.14993-2.7252 0.44979-0.50565 0.29986-0.75847 0.81139-0.75847 1.5346 0 0.5762 0.18815 1.0348 0.56445 1.3758 0.38217 0.33514 0.89957 0.50271 1.5522 0.50271 0.89958 0 1.6198-0.3175 2.1608-0.9525 0.5468-0.64088 0.8202-1.4905 0.82021-2.5488v-0.36159h-1.614m3.2367-0.67028v5.6356h-1.6228v-1.4993c-0.37042 0.59973-0.83197 1.0436-1.3847 1.3317-0.55269 0.28222-1.2288 0.42333-2.0285 0.42333-1.0113 0-1.8168-0.28222-2.4165-0.84667-0.59384-0.57032-0.89077-1.3317-0.89076-2.2842-0.00001-1.1112 0.37041-1.9491 1.1112-2.5135 0.74671-0.56444 1.858-0.84666 3.3338-0.84666h2.2754v-0.15875c-0.000008-0.74671-0.24695-1.3229-0.74083-1.7286-0.48802-0.41157-1.1759-0.61735-2.0637-0.61736-0.56445 0.00001-1.1142 0.0676-1.6492 0.20284-0.53505 0.13524-1.0495 0.33809-1.5434 0.60855v-1.4993c0.59384-0.22929 1.17-0.3998 1.7286-0.51153 0.55856-0.11758 1.1024-0.17637 1.6316-0.17638 1.4287 0.00001 2.4959 0.37042 3.2015 1.1112 0.70555 0.74085 1.0583 1.8638 1.0583 3.369"/>
  <path id="path3180" style="" d="m-91.349 220.38h8.3255v1.4993h-6.544v3.8982h6.2706v1.4993h-6.2706v4.7713h6.7028v1.4993h-8.4843v-13.167"/>
  <path id="path3182" style="" d="m-79.99 219.82h1.6228v13.723h-1.6228v-13.723"/>
  <path id="path3184" style="" d="m-66.531 228.2v0.79375h-7.4612c0.07055 1.1171 0.40569 1.9697 1.0054 2.5576 0.6056 0.58209 1.4464 0.87313 2.5224 0.87313 0.62323 0 1.2259-0.0764 1.808-0.22931 0.58795-0.15287 1.17-0.38217 1.7462-0.68791v1.5346c-0.58209 0.24694-1.1789 0.43509-1.7903 0.56444-0.61149 0.12935-1.2318 0.19403-1.8609 0.19403-1.5757 0-2.8252-0.45861-3.7483-1.3758-0.91722-0.91722-1.3758-2.1578-1.3758-3.7218-0.000001-1.6169 0.43509-2.8986 1.3053-3.8453 0.87606-0.95248 2.0549-1.4287 3.5366-1.4287 1.3288 0.00001 2.3783 0.42922 3.1485 1.2876 0.7761 0.85256 1.1642 2.0138 1.1642 3.4837m-1.6228-0.47625c-0.01177-0.88782-0.26165-1.5963-0.74965-2.1255-0.48214-0.52916-1.123-0.79374-1.9226-0.79375-0.90547 0.00001-1.6316 0.25577-2.1784 0.76729-0.54093 0.51153-0.85255 1.2318-0.93486 2.1608l5.7855-0.009"/>
  <path id="path3186" style="" d="m-56.177 225.56c0.40568-0.72907 0.89075-1.267 1.4552-1.614 0.56443-0.34689 1.2288-0.52033 1.9932-0.52034 1.0289 0.00001 1.8227 0.3616 2.3812 1.0848 0.55855 0.71732 0.83783 1.7404 0.83785 3.0692v5.9619h-1.6316v-5.909c-0.000015-0.94662-0.16758-1.6492-0.50271-2.1078-0.33515-0.4586-0.84668-0.68791-1.5346-0.68791-0.8408 0-1.5052 0.27929-1.9932 0.83784-0.48802 0.55857-0.73202 1.32-0.73201 2.2842v5.5827h-1.6316v-5.909c-0.000008-0.9525-0.16758-1.6551-0.50271-2.1078-0.33515-0.4586-0.85255-0.68791-1.5522-0.68791-0.82903 0-1.4875 0.28223-1.9756 0.84666-0.48801 0.55857-0.73202 1.317-0.73201 2.2754v5.5827h-1.6316v-9.8778h1.6316v1.5346c0.37041-0.60559 0.81432-1.0524 1.3317-1.3406 0.5174-0.28809 1.1318-0.43214 1.8433-0.43215 0.71731 0.00001 1.3258 0.18227 1.8256 0.5468 0.50564 0.36455 0.87899 0.89371 1.1201 1.5875"/>
  <path id="path3188" style="" d="m-33.723 222.55-3.1662 1.711 3.1662 1.7198-0.51153 0.86431-2.9633-1.7904v3.3249h-1.0054v-3.3249l-2.9633 1.7904-0.51153-0.86431 3.1662-1.7198-3.1662-1.711 0.51153-0.87312 2.9633 1.7903v-3.3249h1.0054v3.3249l2.9633-1.7903 0.51153 0.87312"/>
  <path id="path3190" style="" d="m-24.692 222.55-3.1662 1.711 3.1662 1.7198-0.51153 0.86431-2.9633-1.7904v3.3249h-1.0054v-3.3249l-2.9633 1.7904-0.51153-0.86431 3.1662-1.7198-3.1662-1.711 0.51153-0.87312 2.9633 1.7903v-3.3249h1.0054v3.3249l2.9633-1.7903 0.51153 0.87312"/>
  <path id="path3192" style="" d="m-20.882 232.06v5.2388h-1.6316v-13.635h1.6316v1.4993c0.34102-0.58795 0.77023-1.023 1.2876-1.3053 0.52328-0.28809 1.1465-0.43214 1.8697-0.43215 1.1994 0.00001 2.1725 0.47626 2.9192 1.4287 0.75258 0.95251 1.1289 2.2049 1.1289 3.7571-0.000011 1.5522-0.37631 2.8046-1.1289 3.7571-0.74672 0.9525-1.7198 1.4288-2.9192 1.4288-0.7232 0-1.3464-0.14111-1.8697-0.42333-0.51741-0.2881-0.94662-0.72614-1.2876-1.3141m5.521-3.4484c-0.000009-1.1936-0.24695-2.1284-0.74083-2.8046-0.48802-0.68202-1.1612-1.023-2.0197-1.023-0.85843 0.00001-1.5346 0.34103-2.0285 1.023-0.48801 0.67617-0.73202 1.611-0.73201 2.8046-0.000003 1.1936 0.244 2.1314 0.73201 2.8134 0.49388 0.67616 1.17 1.0142 2.0285 1.0142 0.85842 0 1.5316-0.33808 2.0197-1.0142 0.49388-0.68203 0.74082-1.6198 0.74083-2.8134"/>
  <path id="path3194" style="" d="m-3.296 225.56c0.40568-0.72907 0.89075-1.267 1.4552-1.614 0.56443-0.34689 1.2288-0.52033 1.9932-0.52034 1.0289 0.00001 1.8227 0.3616 2.3812 1.0848 0.55855 0.71732 0.83783 1.7404 0.83785 3.0692v5.9619h-1.6316v-5.909c-0.0000145-0.94662-0.16758-1.6492-0.50271-2.1078-0.33515-0.4586-0.84668-0.68791-1.5346-0.68791-0.8408 0-1.5052 0.27929-1.9932 0.83784-0.48802 0.55857-0.73202 1.32-0.73201 2.2842v5.5827h-1.6316v-5.909c-0.000008-0.9525-0.16758-1.6551-0.50271-2.1078-0.33515-0.4586-0.85255-0.68791-1.5522-0.68791-0.82903 0-1.4875 0.28223-1.9756 0.84666-0.48801 0.55857-0.73202 1.317-0.73201 2.2754v5.5827h-1.6316v-9.8778h1.6316v1.5346c0.37041-0.60559 0.81432-1.0524 1.3317-1.3406 0.5174-0.28809 1.1318-0.43214 1.8433-0.43215 0.71731 0.00001 1.3258 0.18227 1.8256 0.5468 0.50564 0.36455 0.87899 0.89371 1.1201 1.5875"/>
  <path id="path3196" style="" d="m10.445 224.8c-0.87019 0.00001-1.5581 0.34102-2.0637 1.023-0.50565 0.67617-0.75847 1.6052-0.75847 2.7869-0.0000027 1.1818 0.24988 2.1137 0.74965 2.7958 0.50564 0.67616 1.1965 1.0142 2.0726 1.0142 0.8643 0 1.5493-0.34102 2.0549-1.0231 0.50564-0.68203 0.75846-1.611 0.75847-2.7869-0.000008-1.17-0.25283-2.0961-0.75847-2.7781-0.50566-0.68791-1.1906-1.0319-2.0549-1.0319m0-1.3758c1.4111 0.00001 2.5194 0.45862 3.3249 1.3758 0.8055 0.91723 1.2083 2.1872 1.2083 3.81-0.00001 1.6169-0.40276 2.8869-1.2083 3.81-0.80552 0.91722-1.9138 1.3758-3.3249 1.3758-1.417 0-2.5282-0.45861-3.3337-1.3758-0.79963-0.9231-1.1994-2.1931-1.1994-3.81-0.000001-1.6228 0.39981-2.8928 1.1994-3.81 0.80551-0.91721 1.9168-1.3758 3.3337-1.3758"/>
  <path id="path3198" style="" d="m16.953 223.67h7.7082v1.4817l-6.103 7.0996h6.103v1.2965h-7.9287v-1.4817l6.103-7.0996h-5.8826v-1.2965"/>
  <path id="path3200" style="" d="m33.649 228.49c-0.000008-1.1759-0.24401-2.0873-0.73201-2.734-0.48214-0.64675-1.1612-0.97013-2.0373-0.97014-0.87019 0.00001-1.5493 0.32339-2.0373 0.97014-0.48213 0.64676-0.7232 1.5581-0.72319 2.734-0.000003 1.17 0.24106 2.0784 0.72319 2.7252 0.488 0.64676 1.1671 0.97014 2.0373 0.97013 0.87606 0.00001 1.5552-0.32337 2.0373-0.97013 0.488-0.64676 0.732-1.5552 0.73201-2.7252m1.6228 3.8276c-0.00001 1.6816-0.37337 2.931-1.1201 3.7482-0.74672 0.82315-1.8903 1.2347-3.4308 1.2347-0.57033-0.00001-1.1083-0.0441-1.614-0.1323-0.50565-0.0823-0.9966-0.21167-1.4728-0.38805v-1.5787c0.47625 0.2587 0.94662 0.44979 1.4111 0.57326 0.46449 0.12347 0.9378 0.18521 1.4199 0.18521 1.0642 0 1.8609-0.27928 2.3901-0.83784 0.52916-0.55269 0.79374-1.3905 0.79375-2.5135v-0.80257c-0.33515 0.58208-0.76436 1.0172-1.2876 1.3053-0.52329 0.28811-1.1495 0.43216-1.8785 0.43216-1.2112 0-2.1872-0.46155-2.9281-1.3846-0.74083-0.9231-1.1112-2.1461-1.1112-3.6689-0.000001-1.5287 0.37041-2.7546 1.1112-3.6777 0.74083-0.92309 1.7168-1.3846 2.9281-1.3846 0.72907 0.00001 1.3552 0.14406 1.8785 0.43215 0.52328 0.28811 0.95249 0.7232 1.2876 1.3053v-1.4993h1.6228v8.6519"/>
  <path id="path3202" style="" d="m42.442 224.8c-0.87019 0.00001-1.5581 0.34102-2.0637 1.023-0.50565 0.67617-0.75847 1.6052-0.75847 2.7869-0.000002 1.1818 0.24988 2.1137 0.74965 2.7958 0.50564 0.67616 1.1965 1.0142 2.0726 1.0142 0.8643 0 1.5493-0.34102 2.0549-1.0231 0.50564-0.68203 0.75846-1.611 0.75847-2.7869-0.000009-1.17-0.25283-2.0961-0.75847-2.7781-0.50565-0.68791-1.1906-1.0319-2.0549-1.0319m0-1.3758c1.4111 0.00001 2.5194 0.45862 3.3249 1.3758 0.8055 0.91723 1.2083 2.1872 1.2083 3.81-0.00001 1.6169-0.40276 2.8869-1.2083 3.81-0.80552 0.91722-1.9138 1.3758-3.3249 1.3758-1.417 0-2.5282-0.45861-3.3337-1.3758-0.79963-0.9231-1.1994-2.1931-1.1994-3.81-0.000001-1.6228 0.39981-2.8928 1.1994-3.81 0.80551-0.91721 1.9168-1.3758 3.3337-1.3758"/>
 </g>
 <g id="g120" transform="translate(-2.0463 -2.7054)">
  <path id="rect122" fill="#fdfd04" d="m60 220h20v20h-20z"/>
  <path id="rect124" d="m60 220h20v20h-20z" stroke="#000" stroke-width="2" fill="none"/>
 </g>
 <path id="line126" d="m177.95 147.29h60" stroke="#000" stroke-width="2" fill="none"/>
 <path id="line128" d="m277.95 147.29h60" stroke="#000" stroke-width="2" fill="none"/>
 <path id="line130" d="m377.95 147.29h60" stroke="#000" stroke-width="2" fill="none"/>
 <g id="g132" transform="translate(-2.0463 -2.7054)">
  <path id="path134" d="m340 156c36 0 0-21 30.264-21" stroke="#000" stroke-width="2" fill="none"/>
  <path id="polygon136" d="m370.26 135-2.5-5 10 5-10 5z"/>
  <path id="polygon138" d="m370.26 135-2.5-5 10 5-10 5z" stroke="#000" stroke-width="2" fill="none"/>
 </g>
 <g id="g140" transform="translate(-2.0463 -2.7054)">
  <path id="path142" d="m112.21 145.84c-32.21 24.16 7.79 54.16-32.21 84.16" stroke="#f62e2e" stroke-width="2" fill="none"/>
  <path id="polygon144" fill="#f62e2e" d="m112.21 145.84-5-2.5 11-2-5 10z"/>
  <path id="polygon146" d="m112.21 145.84-5-2.5 11-2-5 10z" stroke="#f62e2e" stroke-width="2" fill="none"/>
 </g>
 <g id="g148" transform="translate(-2.0463 -2.7054)">
  <path id="path150" d="m172.21 175.84c-32.21 24.16-52.21 54.16-92.21 54.16" stroke="#f62e2e" stroke-width="2" fill="none"/>
  <path id="polygon152" fill="#f62e2e" d="m172.21 175.84-5-2.5 11-2-5 10z"/>
  <path id="polygon154" d="m172.21 175.84-5-2.5 11-2-5 10z" stroke="#f62e2e" stroke-width="2" fill="none"/>
 </g>
 <g id="g156" transform="translate(-2.0463 -2.7054)">
  <path id="path158" d="m272.21 175.84c-32.21 24.16-152.21 54.16-192.21 54.16" stroke="#f62e2e" stroke-width="2" fill="none"/>
  <path id="polygon160" fill="#f62e2e" d="m272.21 175.84-5-2.5 11-2-5 10z"/>
  <path id="polygon162" d="m272.21 175.84-5-2.5 11-2-5 10z" stroke="#f62e2e" stroke-width="2" fill="none"/>
 </g>
 <g id="g164" transform="translate(-2.0463 -2.7054)">
  <path id="path166" d="m372.21 175.84c-32.21 24.16-222.21 54.16-292.21 54.16" stroke="#f62e2e" stroke-width="2" fill="none"/>
  <path id="polygon168" fill="#f62e2e" d="m372.21 175.84-5-2.5 11-2-5 10z"/>
  <path id="polygon170" d="m372.21 175.84-5-2.5 11-2-5 10z" stroke="#f62e2e" stroke-width="2" fill="none"/>
 </g>
 <g id="g172" transform="translate(-2.0463 -2.7054)">
  <g id="g174">
   <path id="rect176" fill="#fdfd04" d="m550 220h20v20h-20z"/>
   <path id="rect178" d="m550 220h20v20h-20z" stroke="#000" stroke-width="2" fill="none"/>
  </g>
  <path id="line180" d="m550 220 20 20" stroke="#000" stroke-width="2" fill="none"/>
  <path id="line182" d="m550 240 20-20" stroke="#000" stroke-width="2" fill="none"/>
 </g>
 <path id="line184" d="m447.95 247.29h60" stroke="#000" stroke-width="2" fill="none"/>
 <g id="g186" transform="translate(-2.0463 -2.7054)">
  <g id="g188">
   <path id="rect190" fill="#fdfd04" d="m550 120h20v20h-20z"/>
   <path id="rect192" d="m550 120h20v20h-20z" stroke="#000" stroke-width="2" fill="none"/>
  </g>
  <path id="line194" d="m550 120 20 20" stroke="#000" stroke-width="2" fill="none"/>
  <path id="line196" d="m550 140 20-20" stroke="#000" stroke-width="2" fill="none"/>
 </g>
</svg>
