<?xml version="1.0" encoding="UTF-8" standalone="no"?>
<!-- Created with Inkscape (http://www.inkscape.org/) -->
<svg id="svg2" xmlns:rdf="http://www.w3.org/1999/02/22-rdf-syntax-ns#" xmlns="http://www.w3.org/2000/svg" height="376.71" width="673.23" version="1.1" xmlns:cc="http://creativecommons.org/ns#" xmlns:dc="http://purl.org/dc/elements/1.1/" viewBox="140 78 360.99899 196.20094">
 <metadata id="metadata110">
  <rdf:RDF>
   <cc:Work rdf:about="">
    <dc:format>image/svg+xml</dc:format>
    <dc:type rdf:resource="http://purl.org/dc/dcmitype/StillImage"/>
   </cc:Work>
  </rdf:RDF>
 </metadata>
 <g id="g4" transform="translate(-.0010071 -3.8995)">
  <path id="rect6" fill="#7babe3" d="m300 80h40v40h-40z"/>
  <path id="rect8" d="m300 80h40v40h-40z" stroke="#000" stroke-width="2" fill="none"/>
 </g>
 <g id="g10" transform="translate(-.0010071 -3.8995)">
  <path id="rect12" fill="#7babe3" d="m201 159h40v40h-40z"/>
  <path id="rect14" d="m201 159h40v40h-40z" stroke="#000" stroke-width="2" fill="none"/>
 </g>
 <g id="g16" transform="translate(-.0010071 -3.8995)">
  <path id="rect18" fill="#7babe3" d="m141 239h40v40h-40z"/>
  <path id="rect20" d="m141 239h40v40h-40z" stroke="#000" stroke-width="2" fill="none"/>
 </g>
 <g id="g22" transform="translate(-.0010071 -3.8995)">
  <path id="rect24" fill="#7babe3" d="m201 239h40v40h-40z"/>
  <path id="rect26" d="m201 239h40v40h-40z" stroke="#000" stroke-width="2" fill="none"/>
 </g>
 <g id="g28" transform="translate(-.0010071 -3.8995)">
  <path id="rect30" fill="#7babe3" d="m400 160h40v40h-40z"/>
  <path id="rect32" d="m400 160h40v40h-40z" stroke="#000" stroke-width="2" fill="none"/>
 </g>
 <g id="g34" stroke="#000" stroke-width="2" fill="none" transform="translate(-.0010071 -3.8995)">
  <path id="line36" d="m299.01 116.75-53.521 42.708"/>
  <path id="polyline38" d="m248.44 150.71-4.698 10.146 10.935-2.329"/>
 </g>
 <g id="g40" stroke="#000" stroke-width="2" fill="none" transform="translate(-.0010071 -3.8995)">
  <path id="line42" d="m205.27 199.98-25.85 34.47"/>
  <path id="polyline44" d="m180.08 225.23-2 11 10-5"/>
 </g>
 <g id="g46" stroke="#000" stroke-width="2" fill="none" transform="translate(-.0010071 -3.8995)">
  <path id="line48" d="m221 199.98v33.575"/>
  <path id="polyline50" d="m216 225.79 5 10 5-10"/>
 </g>
 <g id="g52" stroke="#000" stroke-width="2" fill="none" transform="translate(-.0010071 -3.8995)">
  <path id="line54" d="m341 116.8 54.504 43.603"/>
  <path id="polyline56" d="m386.32 159.46 10.932 2.342-4.685-10.151"/>
 </g>
 <g id="g58" stroke="#000" stroke-width="2" fill="none" transform="translate(-.0010071 -3.8995)">
  <path id="line60" d="m320 120.99v34.537"/>
  <path id="polyline62" d="m315 147.76 5 10 5-10"/>
 </g>
 <g id="g64" transform="translate(-.0010071 -3.8995)">
  <path id="rect66" fill="#7babe3" d="m300 160h40v40h-40z"/>
  <path id="rect68" d="m300 160h40v40h-40z" stroke="#000" stroke-width="2" fill="none"/>
 </g>
 <g id="g70" transform="translate(-.0010071 -3.8995)">
  <path id="rect72" fill="#7babe3" d="m400 240h40v40h-40z"/>
  <path id="rect74" d="m400 240h40v40h-40z" stroke="#000" stroke-width="2" fill="none"/>
 </g>
 <g id="g76" transform="translate(-.0010071 -3.8995)">
  <path id="rect78" fill="#7babe3" d="m340 240h40v40h-40z"/>
  <path id="rect80" d="m340 240h40v40h-40z" stroke="#000" stroke-width="2" fill="none"/>
 </g>
 <g id="g82" transform="translate(-.0010071 -3.8995)">
  <path id="rect84" fill="#7babe3" d="m460 240h40v40h-40z"/>
  <path id="rect86" d="m460 240h40v40h-40z" stroke="#000" stroke-width="2" fill="none"/>
 </g>
 <g id="g88" stroke="#000" stroke-width="2" fill="none" transform="translate(-.0010071 -3.8995)">
  <path id="line90" d="m420 200.98v33.574"/>
  <path id="polyline92" d="m415 226.79 5 10 5-10"/>
 </g>
 <g id="g94" stroke="#000" stroke-width="2" fill="none" transform="translate(-.0010071 -3.8995)">
  <path id="line96" d="m404.27 200.98-25.85 34.47"/>
  <path id="polyline98" d="m379.07 226.24-2 11 10-5"/>
 </g>
 <g id="g100" stroke="#000" stroke-width="2" fill="none" transform="translate(-.0010071 -3.8995)">
  <path id="line102" d="m435.73 200.98 25.85 34.47"/>
  <path id="polyline104" d="m452.93 232.24 10 5-2-11"/>
 </g>
</svg>
