<?xml version="1.0" encoding="UTF-8" standalone="no"?>
<!-- Created with Inkscape (http://www.inkscape.org/) -->
<svg id="svg2" xmlns:rdf="http://www.w3.org/1999/02/22-rdf-syntax-ns#" xmlns="http://www.w3.org/2000/svg" height="294.6" width="1167.5" version="1.1" xmlns:cc="http://creativecommons.org/ns#" xmlns:dc="http://purl.org/dc/elements/1.1/" viewBox="218 -82 642.00001 150.57853">
 <metadata id="metadata146">
  <rdf:RDF>
   <cc:Work rdf:about="">
    <dc:format>image/svg+xml</dc:format>
    <dc:type rdf:resource="http://purl.org/dc/dcmitype/StillImage"/>
   </cc:Work>
  </rdf:RDF>
 </metadata>
 <g id="g4" transform="translate(-1 -6.7107)">
  <path id="rect6" fill="#7babe3" d="m720-80h40v40h-40z"/>
  <path id="rect8" d="m720-80h40v40h-40z" stroke="#000" stroke-width="2" fill="none"/>
 </g>
 <g id="g10" transform="translate(-1 -6.7107)">
  <path id="rect12" fill="#7babe3" d="m620-20h40v40h-40z"/>
  <path id="rect14" d="m620-20h40v40h-40z" stroke="#000" stroke-width="2" fill="none"/>
 </g>
 <g id="g16" transform="translate(-1 -6.7107)">
  <path id="rect18" fill="#7babe3" d="m580 40h40v40h-40z"/>
  <path id="rect20" d="m580 40h40v40h-40z" stroke="#000" stroke-width="2" fill="none"/>
 </g>
 <g id="g22" transform="translate(-1 -6.7107)">
  <path id="rect24" fill="#7babe3" d="m660 40h40v40h-40z"/>
  <path id="rect26" d="m660 40h40v40h-40z" stroke="#000" stroke-width="2" fill="none"/>
 </g>
 <g id="g28" transform="translate(-1 -6.7107)">
  <path id="rect30" fill="#7babe3" d="m820-20h40v40h-40z"/>
  <path id="rect32" d="m820-20h40v40h-40z" stroke="#000" stroke-width="2" fill="none"/>
 </g>
 <g id="g34" stroke="#000" stroke-width="2" fill="none" transform="translate(-1 -6.7107)">
  <path id="line36" d="m719-47.399-54.16 32.497"/>
  <path id="polyline38" d="m668.92-23.184-6.002 9.4324 11.147-0.8575"/>
 </g>
 <g id="g40" stroke="#000" stroke-width="2" fill="none" transform="translate(-1 -6.7107)">
  <path id="line42" d="m626.01 20.991-9.531 14.297"/>
  <path id="polyline44" d="m616.62 26.054-1.387 11.094 9.708-5.547"/>
 </g>
 <g id="g46" stroke="#000" stroke-width="2" fill="none" transform="translate(-1 -6.7107)">
  <path id="line48" d="m653.99 20.991 9.531 14.297"/>
  <path id="polyline50" d="m655.06 31.601 9.708 5.547-1.387-11.094"/>
 </g>
 <g id="g52" stroke="#000" stroke-width="2" fill="none" transform="translate(-1 -6.7107)">
  <path id="line54" d="m761-47.399 54.16 32.497"/>
  <path id="polyline56" d="m805.93-14.609 11.147 0.8575-6.002-9.4324"/>
 </g>
 <g id="g58" transform="translate(-1 -6.7107)">
  <path id="rect60" fill="#7babe3" d="m260-80h40v40h-40z"/>
  <path id="rect62" d="m260-80h40v40h-40z" stroke="#000" stroke-width="2" fill="none"/>
 </g>
 <g id="g64" transform="translate(-1 -6.7107)">
  <path id="rect66" fill="#7babe3" d="m300-80h40v40h-40z"/>
  <path id="rect68" d="m300-80h40v40h-40z" stroke="#000" stroke-width="2" fill="none"/>
 </g>
 <g id="g70" transform="translate(-1 -6.7107)">
  <path id="rect72" fill="#7babe3" d="m340-80h40v40h-40z"/>
  <path id="rect74" d="m340-80h40v40h-40z" stroke="#000" stroke-width="2" fill="none"/>
 </g>
 <g id="g76" transform="translate(-1 -6.7107)">
  <path id="rect78" fill="#7babe3" d="m380-80h40v40h-40z"/>
  <path id="rect80" d="m380-80h40v40h-40z" stroke="#000" stroke-width="2" fill="none"/>
 </g>
 <g id="g82" transform="translate(-1 -6.7107)">
  <path id="rect84" fill="#7babe3" d="m420-80h40v40h-40z"/>
  <path id="rect86" d="m420-80h40v40h-40z" stroke="#000" stroke-width="2" fill="none"/>
 </g>
 <g id="g88" transform="translate(-1 -6.7107)">
  <path id="rect90" fill="#7babe3" d="m220 40h40v40h-40z"/>
  <path id="rect92" d="m220 40h40v40h-40z" stroke="#000" stroke-width="2" fill="none"/>
 </g>
 <g id="g94" transform="translate(-1 -6.7107)">
  <path id="rect96" fill="#7babe3" d="m280 40h40v40h-40z"/>
  <path id="rect98" d="m280 40h40v40h-40z" stroke="#000" stroke-width="2" fill="none"/>
 </g>
 <g id="g100" transform="translate(-1 -6.7107)">
  <path id="rect102" fill="#7babe3" d="m340 40h40v40h-40z"/>
  <path id="rect104" d="m340 40h40v40h-40z" stroke="#000" stroke-width="2" fill="none"/>
 </g>
 <g id="g106" transform="translate(-1 -6.7107)">
  <path id="rect108" fill="#7babe3" d="m400 40h40v40h-40z"/>
  <path id="rect110" d="m400 40h40v40h-40z" stroke="#000" stroke-width="2" fill="none"/>
 </g>
 <g id="g112" transform="translate(-1 -6.7107)">
  <path id="rect114" fill="#7babe3" d="m460 40h40v40h-40z"/>
  <path id="rect116" d="m460 40h40v40h-40z" stroke="#000" stroke-width="2" fill="none"/>
 </g>
 <g id="g118" stroke="#000" stroke-width="2" fill="none" transform="translate(-1 -6.7107)">
  <path id="line120" d="m260.99 60h13.546"/>
  <path id="polyline122" d="m266.77 65 10-5-10-5"/>
 </g>
 <g id="g124" stroke="#000" stroke-width="2" fill="none" transform="translate(-1 -6.7107)">
  <path id="line126" d="m320.99 60h13.546"/>
  <path id="polyline128" d="m326.77 65 10-5-10-5"/>
 </g>
 <g id="g130" stroke="#000" stroke-width="2" fill="none" transform="translate(-1 -6.7107)">
  <path id="line132" d="m380.99 60h13.546"/>
  <path id="polyline134" d="m386.77 65 10-5-10-5"/>
 </g>
 <g id="g136" stroke="#000" stroke-width="2" fill="none" transform="translate(-1 -6.7107)">
  <path id="line138" d="m440.99 60h13.546"/>
  <path id="polyline140" d="m446.77 65 10-5-10-5"/>
 </g>
</svg>
