<?xml version="1.0" encoding="UTF-8" standalone="no"?>
<!-- Created with Inkscape (http://www.inkscape.org/) -->
<svg id="svg2" xmlns:rdf="http://www.w3.org/1999/02/22-rdf-syntax-ns#" xmlns="http://www.w3.org/2000/svg" height="340.77" width="370.59" version="1.1" xmlns:cc="http://creativecommons.org/ns#" xmlns:dc="http://purl.org/dc/elements/1.1/" viewBox="239 137 193.96409 183.68781">
 <metadata id="metadata82">
  <rdf:RDF>
   <cc:Work rdf:about="">
    <dc:format>image/svg+xml</dc:format>
    <dc:type rdf:resource="http://purl.org/dc/dcmitype/StillImage"/>
   </cc:Work>
  </rdf:RDF>
 </metadata>
 <g id="g4" stroke="#000" stroke-width="2" fill="none" transform="translate(-2.9 -4.236)">
  <path id="line6" d="m248 320v-175.53"/>
  <path id="polyline8" d="m253 152.24-5-10-5 10"/>
 </g>
 <g id="g10" stroke="#000" stroke-width="2" fill="none" transform="translate(-2.9 -4.236)">
  <path id="line12" d="m240 300h195.53"/>
  <path id="polyline14" d="m427.76 305 10-5-10-5"/>
 </g>
 <path id="line16" d="m397.1 155.76v140" stroke="#000" stroke-width="2" fill="none"/>
 <g id="g18" transform="translate(-2.9 -4.236)">
  <path id="rect20" fill="#f62e2e" d="m260 280h20v20h-20z"/>
  <path id="rect22" d="m260 280h20v20h-20z" stroke="#000" fill="none"/>
 </g>
 <g id="g24" transform="translate(-2.9 -4.236)">
  <path id="rect26" fill="#f62e2e" d="m280 270h20v30h-20z"/>
  <path id="rect28" d="m280 270h20v30h-20z" stroke="#000" fill="none"/>
 </g>
 <g id="g30" transform="translate(-2.9 -4.236)">
  <path id="rect32" fill="#f62e2e" d="m300 256h20v44h-20z"/>
  <path id="rect34" d="m300 256h20v44h-20z" stroke="#000" fill="none"/>
 </g>
 <g id="g36" transform="translate(-2.9 -4.236)">
  <path id="rect38" fill="#f62e2e" d="m320 228h20v72h-20z"/>
  <path id="rect40" d="m320 228h20v72h-20z" stroke="#000" fill="none"/>
 </g>
 <g id="g42" transform="translate(-2.9 -4.236)">
  <path id="rect44" fill="#f62e2e" d="m340 184.4h20v115.6h-20z"/>
  <path id="rect46" d="m340 184.4h20v115.6h-20z" stroke="#000" fill="none"/>
 </g>
 <g id="g48" transform="translate(-2.9 -4.236)">
  <path id="rect50" fill="#f62e2e" d="m360 167.2h20v132.8h-20z"/>
  <path id="rect52" d="m360 167.2h20v132.8h-20z" stroke="#000" fill="none"/>
 </g>
 <g id="g54" transform="translate(-2.9 -4.236)">
  <path id="rect56" fill="#f62e2e" d="m380 162h20v138h-20z"/>
  <path id="rect58" d="m380 162h20v138h-20z" stroke="#000" fill="none"/>
 </g>
 <path id="path60" d="m297.1 297.76c0 6 10 0 10 8" stroke="#000" stroke-width="2" fill="none"/>
 <path id="path62" d="m307.1 305.76c0-8 10-2 10-8" stroke="#000" stroke-width="2" fill="none"/>
 <g id="text64">
  <path id="path3039" style="" d="m304.58 313.13v-4.6765h1.4199v12.008h-1.4199v-1.2964c-0.2984 0.51446-0.67653 0.89774-1.1344 1.1498-0.45274 0.24694-0.99807 0.37041-1.636 0.37041-1.0444 0-1.8958-0.41671-2.5543-1.2502-0.65337-0.83343-0.98006-1.9292-0.98006-3.2874s0.32669-2.454 0.98006-3.2874c0.65852-0.83342 1.51-1.2501 2.5543-1.2502 0.63793 0.00001 1.1833 0.12605 1.636 0.37813 0.45787 0.24695 0.836 0.62766 1.1344 1.1421m-4.8386 3.0173c0 1.0444 0.2135 1.8649 0.64051 2.4617 0.43215 0.59164 1.0238 0.88746 1.7749 0.88746 0.75112 0 1.3428-0.29582 1.7749-0.88746 0.43214-0.59678 0.64822-1.4174 0.64823-2.4617-0.00001-1.0444-0.21609-1.8624-0.64823-2.454-0.43216-0.59678-1.0238-0.89517-1.7749-0.89517-0.75112 0-1.3428 0.29839-1.7749 0.89517-0.42701 0.59164-0.64051 1.4096-0.64051 2.454"/>
  <path id="path3041" style="" d="m316.11 311.82-3.1254 4.2058 3.2874 4.4373h-1.6746l-2.5157-3.3955-2.5157 3.3955h-1.6746l3.3569-4.5222-3.0714-4.1209h1.6746l2.292 3.0791 2.292-3.0791h1.6746"/>
 </g>
 <path id="line68" d="m257.1 275.76-12 4" stroke="#000" stroke-width="2" fill="none"/>
 <path id="path70" d="m397.1 155.76c7.968 0 16-4 24-12" stroke="#000" stroke-width="2" fill="none"/>
 <g id="text72">
  <path id="path3045" style="" d="m315.71 164.41v1.1807h-1.3582c-0.50932 0.00001-0.8643 0.10291-1.0649 0.30868-0.1955 0.2058-0.29325 0.57621-0.29325 1.1112v0.76398h2.3382v1.1035h-2.3382v7.5395h-1.4276v-7.5395h-1.3582v-1.1035h1.3582v-0.60193c0-0.96204 0.22379-1.6617 0.67138-2.099 0.44758-0.44243 1.1575-0.66365 2.1299-0.66366h1.3428"/>
  <path id="path3047" style="" d="m320.3 164.42c-0.68938 1.1833-1.2013 2.3537-1.5357 3.5112-0.3344 1.1576-0.5016 2.3305-0.5016 3.519 0 1.1884 0.1672 2.3665 0.5016 3.5344 0.33955 1.1627 0.85144 2.3331 1.5357 3.5112h-1.2347c-0.77171-1.209-1.3505-2.3974-1.7363-3.5652-0.3807-1.1678-0.57106-2.328-0.57106-3.4804 0-1.1473 0.19036-2.3022 0.57106-3.4649 0.38071-1.1627 0.95948-2.3511 1.7363-3.5652h1.2347"/>
  <path id="path3049" style="" d="m330.25 167.77-3.1254 4.2058 3.2874 4.4373h-1.6746l-2.5157-3.3955-2.5157 3.3955h-1.6746l3.3569-4.5222-3.0714-4.1209h1.6746l2.2919 3.0791 2.292-3.0791h1.6746"/>
  <path id="path3051" style="" d="m332.19 164.42h1.2347c0.77169 1.2142 1.3479 2.4026 1.7286 3.5652 0.38585 1.1627 0.57877 2.3177 0.57878 3.4649-0.00001 1.1524-0.19293 2.3125-0.57878 3.4804-0.3807 1.1678-0.95691 2.3562-1.7286 3.5652h-1.2347c0.68424-1.1781 1.1936-2.3485 1.528-3.5112 0.33955-1.1678 0.50932-2.346 0.50933-3.5344-0.00001-1.1884-0.16978-2.3614-0.50933-3.519-0.3344-1.1575-0.84372-2.328-1.528-3.5112"/>
 </g>
 <path id="path76" d="m257.1 275.76c100-40 40-120 140-120" stroke="#000" stroke-width="2" fill="none"/>
</svg>
