<?xml version="1.0" encoding="UTF-8" standalone="no"?>
<!-- Created with Inkscape (http://www.inkscape.org/) -->
<svg id="svg2" xmlns:rdf="http://www.w3.org/1999/02/22-rdf-syntax-ns#" xmlns="http://www.w3.org/2000/svg" height="383.48" width="1166" version="1.1" xmlns:cc="http://creativecommons.org/ns#" xmlns:dc="http://purl.org/dc/elements/1.1/" viewBox="279 80 655.12376 202.02326">
 <metadata id="metadata150">
  <rdf:RDF>
   <cc:Work rdf:about="">
    <dc:format>image/svg+xml</dc:format>
    <dc:type rdf:resource="http://purl.org/dc/dcmitype/StillImage"/>
   </cc:Work>
  </rdf:RDF>
 </metadata>
 <g id="text4">
  <path id="path3054" style="" d="m347.85 254.5-2.4165 6.5528h4.8419l-2.4253-6.5528m-1.0054-1.7551h2.0196l5.0183 13.167h-1.8521l-1.1994-3.3778h-5.9355l-1.1994 3.3778h-1.8785l5.0271-13.167"/>
  <path id="path3056" style="" d="m367.98 260.86c0-1.1759-0.24401-2.0873-0.73201-2.734-0.48213-0.64675-1.1612-0.97013-2.0373-0.97014-0.87019 0.00001-1.5493 0.32339-2.0373 0.97014-0.48213 0.64676-0.72319 1.5581-0.72319 2.734 0 1.17 0.24106 2.0784 0.72319 2.7252 0.48801 0.64676 1.1671 0.97014 2.0373 0.97014 0.87606 0 1.5552-0.32338 2.0373-0.97014 0.488-0.64676 0.73201-1.5552 0.73201-2.7252m1.6228 3.8276c-0.00001 1.6816-0.37337 2.931-1.1201 3.7483-0.74672 0.82314-1.8903 1.2347-3.4308 1.2347-0.57033-0.00001-1.1083-0.0441-1.614-0.13229-0.50565-0.0823-0.9966-0.21167-1.4728-0.38806v-1.5787c0.47625 0.2587 0.94662 0.44979 1.4111 0.57327 0.46449 0.12347 0.9378 0.1852 1.4199 0.1852 1.0642 0 1.8609-0.27928 2.3901-0.83784 0.52915-0.55269 0.79374-1.3905 0.79374-2.5135v-0.80257c-0.33514 0.58208-0.76435 1.0172-1.2876 1.3053-0.5233 0.2881-1.1495 0.43215-1.8785 0.43215-1.2112 0-2.1872-0.46155-2.928-1.3846-0.74084-0.9231-1.1112-2.1461-1.1112-3.6689 0-1.5287 0.37041-2.7546 1.1112-3.6777 0.74083-0.92309 1.7168-1.3846 2.928-1.3846 0.72907 0.00001 1.3552 0.14406 1.8785 0.43215 0.52328 0.28811 0.95249 0.7232 1.2876 1.3053v-1.4993h1.6228v8.6519"/>
  <path id="path3058" style="" d="m381.39 260.57v0.79375h-7.4612c0.0706 1.1171 0.40569 1.9697 1.0054 2.5576 0.6056 0.58208 1.4464 0.87312 2.5224 0.87312 0.62323 0 1.2259-0.0764 1.808-0.2293 0.58795-0.15287 1.17-0.38218 1.7462-0.68792v1.5346c-0.58209 0.24695-1.1789 0.43509-1.7904 0.56444-0.61148 0.12936-1.2318 0.19403-1.8609 0.19403-1.5757 0-2.8252-0.45861-3.7483-1.3758-0.91722-0.91722-1.3758-2.1578-1.3758-3.7218 0-1.6169 0.43509-2.8986 1.3053-3.8453 0.87606-0.95249 2.0549-1.4287 3.5366-1.4288 1.3288 0.00001 2.3783 0.42922 3.1485 1.2876 0.7761 0.85255 1.1642 2.0138 1.1642 3.4837m-1.6228-0.47625c-0.0118-0.88781-0.26165-1.5963-0.74965-2.1255-0.48214-0.52916-1.123-0.79374-1.9226-0.79375-0.90547 0.00001-1.6316 0.25577-2.1784 0.76729-0.54093 0.51154-0.85255 1.2318-0.93486 2.1608l5.7856-0.009m-1.561-8.6254h1.7551l-2.8751 3.3161h-1.3494l2.4694-3.3161"/>
  <path id="path3060" style="" d="m385.62 264.43v5.2388h-1.6316v-13.635h1.6316v1.4993c0.34102-0.58796 0.77023-1.023 1.2876-1.3053 0.52328-0.28809 1.1465-0.43214 1.8697-0.43215 1.1994 0.00001 2.1725 0.47626 2.9192 1.4288 0.75258 0.9525 1.1289 2.2049 1.1289 3.7571-0.00001 1.5522-0.37631 2.8046-1.1289 3.7571-0.74672 0.9525-1.7198 1.4288-2.9192 1.4288-0.7232 0-1.3464-0.14111-1.8697-0.42333-0.51741-0.2881-0.94662-0.72613-1.2876-1.3141m5.521-3.4484c-0.00001-1.1936-0.24696-2.1284-0.74083-2.8046-0.48802-0.68203-1.1612-1.023-2.0197-1.0231-0.85843 0.00001-1.5346 0.34103-2.0285 1.0231-0.48801 0.67616-0.73201 1.611-0.73201 2.8046s0.244 2.1314 0.73201 2.8134c0.49389 0.67616 1.17 1.0142 2.0285 1.0142 0.85842 0 1.5316-0.33808 2.0197-1.0142 0.49387-0.68203 0.74082-1.6198 0.74083-2.8134"/>
  <path id="path3062" style="" d="m403.97 260.57v0.79375h-7.4612c0.0705 1.1171 0.40569 1.9697 1.0054 2.5576 0.6056 0.58208 1.4464 0.87312 2.5224 0.87312 0.62323 0 1.2259-0.0764 1.808-0.2293 0.58796-0.15287 1.17-0.38218 1.7462-0.68792v1.5346c-0.58209 0.24695-1.1789 0.43509-1.7903 0.56444-0.61149 0.12936-1.2318 0.19403-1.8609 0.19403-1.5758 0-2.8252-0.45861-3.7483-1.3758-0.91723-0.91722-1.3758-2.1578-1.3758-3.7218-0.00001-1.6169 0.43509-2.8986 1.3053-3.8453 0.87606-0.95249 2.0549-1.4287 3.5366-1.4288 1.3288 0.00001 2.3783 0.42922 3.1485 1.2876 0.7761 0.85255 1.1642 2.0138 1.1642 3.4837m-1.6228-0.47625c-0.0118-0.88781-0.26165-1.5963-0.74965-2.1255-0.48214-0.52916-1.123-0.79374-1.9226-0.79375-0.90546 0.00001-1.6316 0.25577-2.1784 0.76729-0.54093 0.51154-0.85254 1.2318-0.93486 2.1608l5.7856-0.009"/>
  <path id="path3064" style="" d="m413.13 257.53v-5.3446h1.6228v13.723h-1.6228v-1.4817c-0.34103 0.58797-0.77318 1.026-1.2965 1.3141-0.51741 0.28222-1.1406 0.42333-1.8697 0.42333-1.1936 0-2.1666-0.47625-2.9192-1.4288-0.74672-0.95249-1.1201-2.2048-1.1201-3.7571 0-1.5522 0.37335-2.8046 1.1201-3.7571 0.75259-0.95249 1.7257-1.4287 2.9192-1.4288 0.72907 0.00001 1.3523 0.14406 1.8697 0.43215 0.52328 0.28223 0.95543 0.71732 1.2965 1.3053m-5.5298 3.4484c0 1.1936 0.244 2.1314 0.73201 2.8134 0.49389 0.67616 1.17 1.0142 2.0285 1.0142 0.85842 0 1.5346-0.33808 2.0285-1.0142 0.49388-0.68203 0.74083-1.6198 0.74084-2.8134-0.00001-1.1936-0.24696-2.1284-0.74084-2.8046-0.49389-0.68203-1.17-1.023-2.0285-1.0231-0.85843 0.00001-1.5346 0.34103-2.0285 1.0231-0.48801 0.67616-0.73201 1.611-0.73201 2.8046"/>
  <path id="path3066" style="" d="m338.15 286.99h2.9104v-10.045l-3.1662 0.635v-1.6228l3.1485-0.635h1.7815v11.668h2.9104v1.4993h-7.5847v-1.4993"/>
  <path id="path3068" style="" d="m349.39 288.22v-1.6228c0.44685 0.21167 0.89958 0.37336 1.3582 0.48507 0.45861 0.11172 0.9084 0.16757 1.3494 0.16757 1.1759 0 2.0726-0.39393 2.6899-1.1818 0.62323-0.79375 0.97895-1.9961 1.0672-3.6072-0.34102 0.50565-0.77317 0.89371-1.2964 1.1642-0.5233 0.27047-1.1024 0.4057-1.7374 0.4057-1.317 0-2.3607-0.39687-3.1309-1.1906-0.76435-0.79962-1.1465-1.8903-1.1465-3.272 0-1.3523 0.39982-2.4371 1.1994-3.2544 0.79962-0.81725 1.8638-1.2259 3.1926-1.2259 1.5228 0.00002 2.684 0.58504 3.4837 1.7551 0.8055 1.1642 1.2082 2.8575 1.2083 5.08-0.00001 2.0755-0.4939 3.7336-1.4817 4.9742-0.9819 1.2347-2.3048 1.8521-3.9687 1.8521-0.44686-0.00001-0.89959-0.0441-1.3582-0.1323-0.45862-0.0882-0.93487-0.22048-1.4288-0.39687m3.5454-5.5827c0.79962 0 1.4317-0.2734 1.8962-0.82021 0.47036-0.5468 0.70555-1.2964 0.70555-2.249 0-0.9466-0.23519-1.6933-0.70555-2.2401-0.4645-0.55267-1.0966-0.82902-1.8962-0.82903-0.79963 0.00001-1.4346 0.27636-1.905 0.82903-0.46449 0.54681-0.69674 1.2935-0.69673 2.2401-0.00001 0.95251 0.23224 1.7022 0.69673 2.249 0.47037 0.54681 1.1054 0.82021 1.905 0.82021"/>
  <path id="path3070" style="" d="m362.38 286.99h6.2177v1.4993h-8.3608v-1.4993c0.67616-0.69968 1.5963-1.6375 2.7605-2.8134 1.17-1.1818 1.905-1.9432 2.2048-2.2842 0.57032-0.64088 0.96719-1.1818 1.1906-1.6228 0.2293-0.44684 0.34395-0.88487 0.34396-1.3141-0.00001-0.69966-0.24696-1.27-0.74084-1.711-0.48801-0.44096-1.126-0.66144-1.9138-0.66145-0.55857 0.00001-1.1495 0.097-1.7727 0.29104-0.61736 0.19404-1.2788 0.48802-1.9844 0.88194v-1.7992c0.71731-0.28809 1.3876-0.50564 2.0108-0.65264 0.62323-0.14698 1.1936-0.22047 1.711-0.22049 1.3641 0.00002 2.4518 0.34103 3.2632 1.0231 0.81138 0.68204 1.2171 1.5934 1.2171 2.734-0.00001 0.54094-0.1029 1.0554-0.30868 1.5434-0.19992 0.48214-0.56739 1.0525-1.1024 1.711-0.147 0.17052-0.61443 0.66441-1.4023 1.4817-0.78787 0.81139-1.8991 1.9491-3.3337 3.4131"/>
  <path id="path3072" style="" d="m372.34 286.25h1.8609v2.2401h-1.8609v-2.2401"/>
  <path id="path3074" style="" d="m381.9 276.5c-0.91722 0.00001-1.6081 0.45274-2.0726 1.3582-0.45861 0.8996-0.68791 2.2548-0.68791 4.0658 0 1.805 0.2293 3.1603 0.68791 4.0658 0.46449 0.89959 1.1554 1.3494 2.0726 1.3494 0.9231 0 1.614-0.44979 2.0726-1.3494 0.46448-0.90546 0.69673-2.2607 0.69673-4.0658 0-1.8109-0.23225-3.1662-0.69673-4.0658-0.45862-0.90545-1.1495-1.3582-2.0726-1.3582m0-1.4111c1.4758 0.00002 2.6017 0.58504 3.3778 1.7551 0.78198 1.1642 1.173 2.8575 1.173 5.08-0.00001 2.2166-0.39101 3.91-1.173 5.08-0.77611 1.1642-1.9021 1.7462-3.3778 1.7462-1.4758-0.00001-2.6047-0.58209-3.3867-1.7462-0.77611-1.17-1.1642-2.8634-1.1642-5.08 0-2.2225 0.38806-3.9158 1.1642-5.08 0.78199-1.17 1.9109-1.755 3.3867-1.7551"/>
  <path id="path3076" style="" d="m389.59 286.25h1.8609v2.2401h-1.8609v-2.2401"/>
  <path id="path3078" style="" d="m396.88 286.99h6.2177v1.4993h-8.3608v-1.4993c0.67615-0.69968 1.5963-1.6375 2.7605-2.8134 1.17-1.1818 1.905-1.9432 2.2049-2.2842 0.57032-0.64088 0.96719-1.1818 1.1906-1.6228 0.2293-0.44684 0.34395-0.88487 0.34396-1.3141-0.00001-0.69966-0.24695-1.27-0.74083-1.711-0.48802-0.44096-1.126-0.66144-1.9138-0.66145-0.55857 0.00001-1.1495 0.097-1.7727 0.29104-0.61736 0.19404-1.2788 0.48802-1.9844 0.88194v-1.7992c0.71731-0.28809 1.3876-0.50564 2.0108-0.65264 0.62324-0.14698 1.1936-0.22047 1.711-0.22049 1.3641 0.00002 2.4518 0.34103 3.2632 1.0231 0.81138 0.68204 1.2171 1.5934 1.2171 2.734-0.00001 0.54094-0.10291 1.0554-0.30868 1.5434-0.19992 0.48214-0.5674 1.0525-1.1024 1.711-0.147 0.17052-0.61443 0.66441-1.4023 1.4817-0.78788 0.81139-1.8991 1.9491-3.3338 3.4131"/>
  <path id="path3080" style="" d="m406.84 286.25h1.8609v2.2401h-1.8609v-2.2401"/>
  <path id="path3082" style="" d="m412.9 286.99h2.9104v-10.045l-3.1662 0.635v-1.6228l3.1485-0.635h1.7815v11.668h2.9104v1.4993h-7.5847v-1.4993"/>
 </g>
 <g id="text10">
  <path id="path3085" style="" d="m783.99 256.03h1.6228v9.8778h-1.6228v-9.8778m0-3.8453h1.6228v2.0549h-1.6228v-2.0549"/>
  <path id="path3087" style="" d="m797.21 259.95v5.9619h-1.6228v-5.909c-0.00001-0.93486-0.18228-1.6345-0.54681-2.099-0.36454-0.46448-0.91135-0.69672-1.6404-0.69673-0.87607 0.00001-1.5669 0.27929-2.0726 0.83784-0.50565 0.55858-0.75847 1.32-0.75847 2.2842v5.5827h-1.6316v-9.8778h1.6316v1.5346c0.38805-0.59383 0.84372-1.0377 1.367-1.3317 0.52916-0.29397 1.1377-0.44096 1.8256-0.44097 1.1348 0.00001 1.9932 0.35279 2.5753 1.0583 0.58207 0.69968 0.87311 1.7316 0.87312 3.0956"/>
  <path id="path3089" style="" d="m805.47 252.19v1.3494h-1.5522c-0.58208 0.00002-0.98778 0.11761-1.2171 0.35278-0.22343 0.2352-0.33514 0.65853-0.33514 1.27v0.87312h2.6723v1.2612h-2.6723v8.6166h-1.6316v-8.6166h-1.5522v-1.2612h1.5522v-0.68791c0-1.0995 0.25576-1.8991 0.76729-2.3989 0.51152-0.50563 1.3229-0.75846 2.4342-0.75847h1.5346"/>
  <path id="path3091" style="" d="m810.64 257.17c-0.87019 0.00001-1.5581 0.34103-2.0638 1.023-0.50565 0.67617-0.75847 1.6052-0.75847 2.787s0.24988 2.1137 0.74966 2.7958c0.50564 0.67615 1.1965 1.0142 2.0726 1.0142 0.8643 0 1.5493-0.34102 2.0549-1.023 0.50564-0.68204 0.75846-1.611 0.75847-2.7869-0.00001-1.17-0.25283-2.0961-0.75847-2.7781-0.50565-0.6879-1.1906-1.0319-2.0549-1.0319m0-1.3758c1.4111 0.00001 2.5194 0.45862 3.3249 1.3758 0.8055 0.91723 1.2082 2.1872 1.2083 3.81-0.00001 1.6169-0.40276 2.8869-1.2083 3.81-0.80552 0.91722-1.9138 1.3758-3.3249 1.3758-1.417 0-2.5282-0.45861-3.3337-1.3758-0.79963-0.9231-1.1994-2.1931-1.1994-3.81 0-1.6228 0.39982-2.8928 1.1994-3.81 0.8055-0.91721 1.9168-1.3758 3.3337-1.3758"/>
  <path id="path3093" style="" d="m824.97 256.41v1.5169c-0.45862-0.25281-0.92017-0.44096-1.3846-0.56444-0.45862-0.12935-0.92311-0.19402-1.3935-0.19403-1.0525 0.00001-1.8697 0.33515-2.4518 1.0054-0.58209 0.6644-0.87313 1.5993-0.87313 2.8046s0.29104 2.1431 0.87313 2.8134c0.58208 0.6644 1.3993 0.9966 2.4518 0.9966 0.47036 0 0.93485-0.0617 1.3935-0.18521 0.46448-0.12935 0.92603-0.32044 1.3846-0.57326v1.4993c-0.45274 0.21167-0.92311 0.37042-1.4111 0.47625-0.48213 0.10584-0.9966 0.15875-1.5434 0.15875-1.4876 0-2.6694-0.46743-3.5454-1.4023-0.87607-0.93486-1.3141-2.196-1.3141-3.7835 0-1.611 0.44097-2.8781 1.3229-3.8012 0.88782-0.92309 2.102-1.3846 3.6424-1.3846 0.49976 0.00001 0.98777 0.0529 1.464 0.15875 0.47624 0.1 0.93779 0.25283 1.3846 0.45861"/>
  <path id="path3095" style="" d="m828.03 263.67h1.8609v2.2401h-1.8609v-2.2401"/>
  <path id="path3097" style="" d="m842 260.57v0.79375h-7.4612c0.0705 1.1171 0.40569 1.9697 1.0054 2.5576 0.6056 0.58208 1.4464 0.87312 2.5224 0.87312 0.62324 0 1.2259-0.0764 1.808-0.2293 0.58795-0.15287 1.17-0.38218 1.7462-0.68792v1.5346c-0.58209 0.24695-1.1789 0.43509-1.7903 0.56444-0.61149 0.12936-1.2318 0.19403-1.8609 0.19403-1.5757 0-2.8252-0.45861-3.7483-1.3758-0.91722-0.91722-1.3758-2.1578-1.3758-3.7218 0-1.6169 0.43509-2.8986 1.3053-3.8453 0.87606-0.95249 2.0549-1.4287 3.5366-1.4288 1.3288 0.00001 2.3783 0.42922 3.1485 1.2876 0.77611 0.85255 1.1642 2.0138 1.1642 3.4837m-1.6228-0.47625c-0.0118-0.88781-0.26165-1.5963-0.74965-2.1255-0.48213-0.52916-1.123-0.79374-1.9226-0.79375-0.90547 0.00001-1.6316 0.25577-2.1784 0.76729-0.54093 0.51154-0.85255 1.2318-0.93486 2.1608l5.7855-0.009"/>
  <path id="path3099" style="" d="m853.12 260.57v0.79375h-7.4612c0.0706 1.1171 0.40569 1.9697 1.0054 2.5576 0.6056 0.58208 1.4464 0.87312 2.5224 0.87312 0.62323 0 1.2259-0.0764 1.808-0.2293 0.58795-0.15287 1.17-0.38218 1.7462-0.68792v1.5346c-0.58209 0.24695-1.1789 0.43509-1.7904 0.56444-0.61148 0.12936-1.2318 0.19403-1.8609 0.19403-1.5757 0-2.8252-0.45861-3.7483-1.3758-0.91722-0.91722-1.3758-2.1578-1.3758-3.7218 0-1.6169 0.43509-2.8986 1.3053-3.8453 0.87606-0.95249 2.0549-1.4287 3.5366-1.4288 1.3288 0.00001 2.3783 0.42922 3.1485 1.2876 0.7761 0.85255 1.1642 2.0138 1.1642 3.4837m-1.6228-0.47625c-0.0118-0.88781-0.26165-1.5963-0.74965-2.1255-0.48214-0.52916-1.123-0.79374-1.9226-0.79375-0.90547 0.00001-1.6316 0.25577-2.1784 0.76729-0.54093 0.51154-0.85255 1.2318-0.93486 2.1608l5.7856-0.009"/>
  <path id="path3101" style="" d="m857.39 253.23v2.8046h3.3426v1.2612h-3.3426v5.3622c0 0.80551 0.10877 1.3229 0.32632 1.5522 0.22342 0.2293 0.67321 0.34396 1.3494 0.34396h1.6669v1.3582h-1.6669c-1.2524 0-2.1167-0.23225-2.5929-0.69674-0.47625-0.47037-0.71438-1.3229-0.71437-2.5576v-5.3622h-1.1906v-1.2612h1.1906v-2.8046h1.6316"/>
  <path id="path3103" style="" d="m863.1 263.67h1.8609v2.2401h-1.8609v-2.2401"/>
  <path id="path3105" style="" d="m875.71 260.98c0-1.1936-0.24695-2.1284-0.74083-2.8046-0.48801-0.68203-1.1612-1.023-2.0196-1.0231-0.85843 0.00001-1.5346 0.34103-2.0285 1.0231-0.48801 0.67616-0.73201 1.611-0.73201 2.8046s0.244 2.1314 0.73201 2.8134c0.49389 0.67616 1.17 1.0142 2.0285 1.0142 0.85842 0 1.5316-0.33808 2.0196-1.0142 0.49388-0.68203 0.74083-1.6198 0.74083-2.8134m-5.521-3.4484c0.34101-0.58796 0.77022-1.023 1.2876-1.3053 0.52328-0.28809 1.1465-0.43214 1.8697-0.43215 1.1994 0.00001 2.1725 0.47626 2.9192 1.4288 0.75258 0.9525 1.1289 2.2049 1.1289 3.7571-0.00001 1.5522-0.37631 2.8046-1.1289 3.7571-0.74672 0.9525-1.7198 1.4288-2.9192 1.4288-0.7232 0-1.3464-0.14111-1.8697-0.42333-0.51742-0.2881-0.94663-0.72613-1.2876-1.3141v1.4817h-1.6316v-13.723h1.6316v5.3446"/>
  <path id="path3107" style="" d="m887.78 257.93c0.40568-0.72906 0.89075-1.267 1.4552-1.614 0.56443-0.34688 1.2288-0.52033 1.9932-0.52034 1.0289 0.00001 1.8227 0.3616 2.3812 1.0848 0.55855 0.71732 0.83783 1.7404 0.83785 3.0692v5.9619h-1.6316v-5.909c-0.00002-0.94661-0.16759-1.6492-0.50271-2.1078-0.33515-0.4586-0.84668-0.6879-1.5346-0.68791-0.8408 0.00001-1.5052 0.27929-1.9932 0.83784-0.48801 0.55858-0.73202 1.32-0.73201 2.2842v5.5827h-1.6316v-5.909c-0.00001-0.95249-0.16758-1.6551-0.50271-2.1078-0.33515-0.4586-0.85255-0.6879-1.5522-0.68791-0.82903 0.00001-1.4876 0.28223-1.9756 0.84666-0.48801 0.55857-0.73201 1.317-0.73201 2.2754v5.5827h-1.6316v-9.8778h1.6316v1.5346c0.37041-0.60559 0.81433-1.0524 1.3317-1.3406 0.5174-0.28809 1.1318-0.43214 1.8433-0.43215 0.7173 0.00001 1.3258 0.18228 1.8256 0.5468 0.50564 0.36455 0.879 0.89371 1.1201 1.5875"/>
  <path id="path3109" style="" d="m906.14 260.57v0.79375h-7.4612c0.0706 1.1171 0.40569 1.9697 1.0054 2.5576 0.60559 0.58208 1.4464 0.87312 2.5224 0.87312 0.62324 0 1.2259-0.0764 1.808-0.2293 0.58795-0.15287 1.17-0.38218 1.7462-0.68792v1.5346c-0.5821 0.24695-1.1789 0.43509-1.7904 0.56444-0.61149 0.12936-1.2318 0.19403-1.8609 0.19403-1.5757 0-2.8252-0.45861-3.7483-1.3758-0.91722-0.91722-1.3758-2.1578-1.3758-3.7218 0-1.6169 0.43509-2.8986 1.3053-3.8453 0.87606-0.95249 2.0549-1.4287 3.5366-1.4288 1.3288 0.00001 2.3783 0.42922 3.1485 1.2876 0.7761 0.85255 1.1642 2.0138 1.1642 3.4837m-1.6228-0.47625c-0.0118-0.88781-0.26166-1.5963-0.74966-2.1255-0.48213-0.52916-1.123-0.79374-1.9226-0.79375-0.90547 0.00001-1.6316 0.25577-2.1784 0.76729-0.54093 0.51154-0.85255 1.2318-0.93486 2.1608l5.7856-0.009"/>
  <path id="path3111" style="" d="m909.03 263.67h1.8609v2.2401h-1.8609v-2.2401"/>
  <path id="path3113" style="" d="m922.76 259.95v5.9619h-1.6228v-5.909c-0.00001-0.93486-0.18228-1.6345-0.54681-2.099-0.36454-0.46448-0.91135-0.69672-1.6404-0.69673-0.87607 0.00001-1.5669 0.27929-2.0726 0.83784-0.50565 0.55858-0.75847 1.32-0.75847 2.2842v5.5827h-1.6316v-13.723h1.6316v5.3798c0.38805-0.59383 0.84372-1.0377 1.367-1.3317 0.52916-0.29397 1.1377-0.44096 1.8256-0.44097 1.1348 0.00001 1.9932 0.35279 2.5753 1.0583 0.58207 0.69968 0.87311 1.7316 0.87312 3.0956"/>
  <path id="path3115" style="" d="m925.85 262.01v-5.9796h1.6228v5.9178c-0.00001 0.93487 0.18226 1.6375 0.5468 2.1078 0.36453 0.46449 0.91134 0.69673 1.6404 0.69673 0.87605 0 1.5669-0.27928 2.0726-0.83784 0.51152-0.55856 0.76729-1.32 0.76729-2.2842v-5.6003h1.6228v9.8778h-1.6228v-1.5169c-0.39394 0.59972-0.85255 1.0466-1.3758 1.3406-0.51741 0.2881-1.1201 0.43215-1.808 0.43215-1.1348 0-1.9961-0.35277-2.5841-1.0583-0.58796-0.70555-0.88194-1.7374-0.88194-3.0956m4.0834-6.2177"/>
  <path id="path3117" style="" d="m800.9 286.99h2.9104v-10.045l-3.1662 0.635v-1.6228l3.1485-0.635h1.7815v11.668h2.9104v1.4993h-7.5847v-1.4993"/>
  <path id="path3119" style="" d="m812.11 275.32h6.9938v1.4993h-5.3622v3.2279c0.2587-0.0882 0.51741-0.15286 0.77611-0.19402 0.2587-0.047 0.5174-0.0706 0.77611-0.0706 1.4699 0.00001 2.6341 0.40276 3.4925 1.2083 0.85841 0.80552 1.2876 1.8962 1.2876 3.272-0.00001 1.417-0.44098 2.5194-1.3229 3.3073-0.88195 0.78199-2.1255 1.173-3.7306 1.173-0.55269-0.00001-1.1171-0.047-1.6933-0.14112-0.57033-0.0941-1.1612-0.23518-1.7727-0.42333v-1.7903c0.52917 0.2881 1.076 0.50271 1.6404 0.64382 0.56444 0.14111 1.1612 0.21166 1.7903 0.21166 1.0172 0 1.8227-0.26752 2.4165-0.80257 0.59383-0.53504 0.89075-1.2612 0.89076-2.1784-0.00001-0.91721-0.29693-1.6434-0.89076-2.1784-0.59385-0.53504-1.3994-0.80256-2.4165-0.80257-0.47625 0.00001-0.9525 0.0529-1.4288 0.15875-0.47037 0.10584-0.9525 0.27047-1.4464 0.49389v-6.6146"/>
  <path id="path3121" style="" d="m825.12 286.99h6.2177v1.4993h-8.3608v-1.4993c0.67615-0.69968 1.5963-1.6375 2.7605-2.8134 1.17-1.1818 1.905-1.9432 2.2049-2.2842 0.57032-0.64088 0.96719-1.1818 1.1906-1.6228 0.2293-0.44684 0.34395-0.88487 0.34396-1.3141-0.00001-0.69966-0.24695-1.27-0.74083-1.711-0.48802-0.44096-1.126-0.66144-1.9138-0.66145-0.55857 0.00001-1.1495 0.097-1.7727 0.29104-0.61737 0.19404-1.2788 0.48802-1.9844 0.88194v-1.7992c0.71732-0.28809 1.3876-0.50564 2.0108-0.65264 0.62324-0.14698 1.1936-0.22047 1.711-0.22049 1.3641 0.00002 2.4518 0.34103 3.2632 1.0231 0.81137 0.68204 1.2171 1.5934 1.2171 2.734-0.00001 0.54094-0.10291 1.0554-0.30868 1.5434-0.19992 0.48214-0.5674 1.0525-1.1024 1.711-0.147 0.17052-0.61443 0.66441-1.4023 1.4817-0.78788 0.81139-1.8991 1.9491-3.3338 3.4131"/>
  <path id="path3123" style="" d="m835.09 286.25h1.8609v2.2401h-1.8609v-2.2401"/>
  <path id="path3125" style="" d="m844.87 281.2c-0.79963 0.00001-1.4346 0.27341-1.905 0.82021-0.4645 0.54681-0.69674 1.2965-0.69674 2.249 0 0.94663 0.23224 1.6963 0.69674 2.249 0.47036 0.5468 1.1054 0.82021 1.905 0.82021 0.79963 0 1.4317-0.27341 1.8962-0.82021 0.47036-0.55268 0.70555-1.3023 0.70556-2.249-0.00001-0.95249-0.2352-1.7021-0.70556-2.249-0.4645-0.5468-1.0966-0.8202-1.8962-0.82021m3.5366-5.5827v1.6228c-0.44686-0.21165-0.89959-0.37334-1.3582-0.48506-0.45273-0.11171-0.90252-0.16756-1.3494-0.16757-1.1759 0.00001-2.0755 0.39688-2.6988 1.1906-0.61736 0.79376-0.97014 1.9932-1.0583 3.5983 0.3469-0.51152 0.78199-0.90252 1.3053-1.173 0.52328-0.27633 1.0995-0.4145 1.7286-0.41451 1.3229 0.00001 2.3665 0.40276 3.1309 1.2083 0.77022 0.79964 1.1553 1.8903 1.1553 3.272-0.00001 1.3523-0.39982 2.4371-1.1994 3.2544-0.79964 0.81727-1.8638 1.2259-3.1926 1.2259-1.5228-0.00001-2.687-0.58209-3.4925-1.7462-0.80551-1.17-1.2083-2.8634-1.2083-5.08-0.00001-2.0814 0.49388-3.7394 1.4817-4.9742 0.98777-1.2406 2.3136-1.8609 3.9776-1.8609 0.44684 0.00002 0.89663 0.0441 1.3494 0.13229 0.4586 0.0882 0.93485 0.2205 1.4288 0.39688"/>
  <path id="path3127" style="" d="m856.37 281.2c-0.79964 0.00001-1.4346 0.27341-1.905 0.82021-0.4645 0.54681-0.69674 1.2965-0.69674 2.249 0 0.94663 0.23224 1.6963 0.69674 2.249 0.47036 0.5468 1.1054 0.82021 1.905 0.82021 0.79962 0 1.4317-0.27341 1.8962-0.82021 0.47037-0.55268 0.70555-1.3023 0.70556-2.249-0.00001-0.95249-0.23519-1.7021-0.70556-2.249-0.46449-0.5468-1.0966-0.8202-1.8962-0.82021m3.5366-5.5827v1.6228c-0.44686-0.21165-0.89959-0.37334-1.3582-0.48506-0.45274-0.11171-0.90253-0.16756-1.3494-0.16757-1.1759 0.00001-2.0755 0.39688-2.6987 1.1906-0.61737 0.79376-0.97014 1.9932-1.0583 3.5983 0.3469-0.51152 0.78199-0.90252 1.3053-1.173 0.52328-0.27633 1.0995-0.4145 1.7286-0.41451 1.3229 0.00001 2.3665 0.40276 3.1309 1.2083 0.77022 0.79964 1.1553 1.8903 1.1553 3.272-0.00001 1.3523-0.39982 2.4371-1.1994 3.2544-0.79964 0.81727-1.8638 1.2259-3.1926 1.2259-1.5228-0.00001-2.687-0.58209-3.4925-1.7462-0.80551-1.17-1.2083-2.8634-1.2083-5.08 0-2.0814 0.49388-3.7394 1.4817-4.9742 0.98778-1.2406 2.3136-1.8609 3.9776-1.8609 0.44684 0.00002 0.89663 0.0441 1.3494 0.13229 0.4586 0.0882 0.93485 0.2205 1.4288 0.39688"/>
  <path id="path3129" style="" d="m863.84 286.25h1.8609v2.2401h-1.8609v-2.2401"/>
  <path id="path3131" style="" d="m869.14 275.32h8.4666v0.75847l-4.7801 12.409h-1.8609l4.4979-11.668h-6.3235v-1.4993"/>
  <path id="path3133" style="" d="m882.63 286.99h6.2177v1.4993h-8.3608v-1.4993c0.67615-0.69968 1.5963-1.6375 2.7605-2.8134 1.17-1.1818 1.905-1.9432 2.2049-2.2842 0.57032-0.64088 0.96719-1.1818 1.1906-1.6228 0.2293-0.44684 0.34395-0.88487 0.34396-1.3141-0.00001-0.69966-0.24695-1.27-0.74083-1.711-0.48802-0.44096-1.126-0.66144-1.9138-0.66145-0.55857 0.00001-1.1495 0.097-1.7727 0.29104-0.61736 0.19404-1.2788 0.48802-1.9844 0.88194v-1.7992c0.71731-0.28809 1.3876-0.50564 2.0108-0.65264 0.62324-0.14698 1.1936-0.22047 1.711-0.22049 1.3641 0.00002 2.4518 0.34103 3.2632 1.0231 0.81138 0.68204 1.2171 1.5934 1.2171 2.734-0.00001 0.54094-0.10291 1.0554-0.30868 1.5434-0.19992 0.48214-0.5674 1.0525-1.1024 1.711-0.147 0.17052-0.61443 0.66441-1.4023 1.4817-0.78788 0.81139-1.8991 1.9491-3.3338 3.4131"/>
  <path id="path3135" style="" d="m892.59 286.25h1.8609v2.2401h-1.8609v-2.2401"/>
  <path id="path3137" style="" d="m903.74 281.39c0.85254 0.18227 1.5169 0.56151 1.9932 1.1377 0.48212 0.57621 0.72318 1.2876 0.72319 2.1343-0.00001 1.2994-0.44686 2.3048-1.3406 3.0162-0.89371 0.71144-2.1637 1.0672-3.81 1.0672-0.55268-0.00001-1.123-0.0559-1.711-0.16757-0.58208-0.10584-1.1847-0.26753-1.808-0.48507v-1.7198c0.49389 0.2881 1.0348 0.50565 1.6228 0.65264 0.58796 0.14699 1.2024 0.22048 1.8433 0.22048 1.1171 0 1.9667-0.22048 2.5488-0.66146 0.58796-0.44097 0.88194-1.0818 0.88195-1.9226-0.00001-0.77611-0.27341-1.3817-0.82021-1.8168-0.54093-0.44096-1.2965-0.66145-2.2666-0.66145h-1.5346v-1.464h1.6051c0.87606 0.00001 1.5463-0.17344 2.0108-0.52035 0.46449-0.35276 0.69673-0.85841 0.69674-1.5169-0.00001-0.67614-0.24107-1.1936-0.7232-1.5522-0.47625-0.36452-1.1612-0.54679-2.0549-0.5468-0.48802 0.00001-1.0113 0.0529-1.5699 0.15875-0.55857 0.10584-1.173 0.27047-1.8433 0.49388v-1.5875c0.67615-0.18814 1.3082-0.32925 1.8962-0.42334 0.59384-0.0941 1.1524-0.14109 1.6757-0.14111 1.3523 0.00002 2.4224 0.3087 3.2103 0.92604 0.78786 0.6115 1.1818 1.4405 1.1818 2.4871-0.00001 0.72909-0.20873 1.3464-0.62618 1.8521-0.41746 0.49978-1.0113 0.84668-1.7815 1.0407"/>
  <path id="path3139" style="" d="m913.65 282.24c-0.84667 0.00001-1.514 0.22637-2.002 0.6791-0.48213 0.45274-0.72319 1.076-0.72319 1.8697 0 0.79375 0.24106 1.417 0.72319 1.8697 0.48801 0.45273 1.1553 0.6791 2.002 0.6791 0.84666 0 1.514-0.22637 2.002-0.6791 0.488-0.45861 0.732-1.0818 0.73201-1.8697-0.00001-0.79375-0.24401-1.417-0.73201-1.8697-0.48214-0.45273-1.1495-0.67909-2.002-0.6791m-1.7815-0.75847c-0.76436-0.18814-1.3611-0.54386-1.7904-1.0672-0.42333-0.52328-0.635-1.1612-0.635-1.9138 0-1.0524 0.37336-1.8844 1.1201-2.4959 0.75259-0.61146 1.7815-0.9172 3.0868-0.91722 1.3112 0.00002 2.3401 0.30576 3.0868 0.91722 0.7467 0.6115 1.12 1.4435 1.1201 2.4959-0.00001 0.7526-0.21461 1.3905-0.64381 1.9138-0.42335 0.52329-1.0142 0.87901-1.7727 1.0672 0.85842 0.19992 1.5258 0.59091 2.002 1.173 0.48212 0.58208 0.72318 1.2935 0.72319 2.1343-0.00001 1.2759-0.391 2.2548-1.173 2.9369-0.77612 0.68204-1.8903 1.023-3.3426 1.0231-1.4523-0.00001-2.5694-0.34102-3.3514-1.0231-0.77611-0.68203-1.1642-1.661-1.1642-2.9369 0-0.84078 0.24107-1.5522 0.7232-2.1343 0.48212-0.58208 1.1524-0.97307 2.0108-1.173m-0.65264-2.8134c0 0.68205 0.21166 1.2142 0.635 1.5963 0.42921 0.38218 1.0289 0.57327 1.7992 0.57326 0.76435 0.00001 1.3611-0.19108 1.7904-0.57326 0.43508-0.38217 0.65263-0.91427 0.65264-1.5963-0.00001-0.68202-0.21756-1.2141-0.65264-1.5963-0.42922-0.38216-1.026-0.57325-1.7904-0.57326-0.77023 0.00001-1.37 0.1911-1.7992 0.57326-0.42334 0.38219-0.635 0.9143-0.635 1.5963"/>
 </g>
 <path id="line16" d="m439.04 149.11h360" stroke="#000" stroke-width="2" fill="none"/>
 <g id="g18" transform="translate(-.96488 -10.887)">
  <path id="path20" d="m580.99 126.49c-13.944-0.541-40.986 10.81-37.183 35.135 3.803 24.324 21.972 29.729 29.577 22.702 7.606-7.027-11.831 34.054 25.352 44.865s56.197-6.486 50.704-18.919c-5.492-12.432 32.536 29.189 50.282 5.406 17.747-23.784-18.169-46.487-10.563-43.243 7.606 3.243 30.845-1.082 23.239-41.622-7.605-40.541-76.056-9.189-68.45-15.135 7.605-5.946-11.409-35.676-35.071-29.73s-25.34 16.736-27.875 40.52l-0.012 0.021z" fill="#1e90ff"/>
  <path id="path22" d="m580.99 126.49c-13.944-0.541-40.986 10.81-37.183 35.135 3.803 24.324 21.972 29.729 29.577 22.702 7.606-7.027-11.831 34.054 25.352 44.865s56.197-6.486 50.704-18.919c-5.492-12.432 32.536 29.189 50.282 5.406 17.747-23.784-18.169-46.487-10.563-43.243 7.606 3.243 30.845-1.082 23.239-41.622-7.605-40.541-76.056-9.189-68.45-15.135 7.605-5.946-11.409-35.676-35.071-29.73s-25.34 16.736-27.875 40.52l-0.012 0.021" stroke="#000" stroke-width="2" fill="none"/>
 </g>
 <g id="text28">
  <path id="path3144" style="" d="m594.91 252.75h1.7815v13.167h-1.7815v-13.167"/>
  <path id="path3146" style="" d="m608.38 259.95v5.9619h-1.6228v-5.909c-0.00001-0.93486-0.18228-1.6345-0.54681-2.099-0.36454-0.46448-0.91135-0.69672-1.6404-0.69673-0.87607 0.00001-1.5669 0.27929-2.0726 0.83784-0.50565 0.55858-0.75848 1.32-0.75847 2.2842v5.5827h-1.6316v-9.8778h1.6316v1.5346c0.38805-0.59383 0.84372-1.0377 1.367-1.3317 0.52916-0.29397 1.1377-0.44096 1.8256-0.44097 1.1348 0.00001 1.9932 0.35279 2.5753 1.0583 0.58207 0.69968 0.87311 1.7316 0.87312 3.0956"/>
  <path id="path3148" style="" d="m613.24 253.23v2.8046h3.3426v1.2612h-3.3426v5.3622c0 0.80551 0.10877 1.3229 0.32632 1.5522 0.22342 0.2293 0.67321 0.34396 1.3494 0.34396h1.6669v1.3582h-1.6669c-1.2524 0-2.1167-0.23225-2.5929-0.69674-0.47625-0.47037-0.71438-1.3229-0.71438-2.5576v-5.3622h-1.1906v-1.2612h1.1906v-2.8046h1.6316"/>
  <path id="path3150" style="" d="m627.17 260.57v0.79375h-7.4612c0.0706 1.1171 0.40569 1.9697 1.0054 2.5576 0.6056 0.58208 1.4464 0.87312 2.5224 0.87312 0.62323 0 1.2259-0.0764 1.808-0.2293 0.58795-0.15287 1.17-0.38218 1.7462-0.68792v1.5346c-0.58209 0.24695-1.1789 0.43509-1.7904 0.56444-0.61148 0.12936-1.2318 0.19403-1.8609 0.19403-1.5757 0-2.8252-0.45861-3.7483-1.3758-0.91722-0.91722-1.3758-2.1578-1.3758-3.7218 0-1.6169 0.43509-2.8986 1.3053-3.8453 0.87606-0.95249 2.0549-1.4287 3.5366-1.4288 1.3288 0.00001 2.3783 0.42922 3.1485 1.2876 0.7761 0.85255 1.1642 2.0138 1.1642 3.4837m-1.6228-0.47625c-0.0118-0.88781-0.26165-1.5963-0.74965-2.1255-0.48214-0.52916-1.123-0.79374-1.9226-0.79375-0.90547 0.00001-1.6316 0.25577-2.1784 0.76729-0.54093 0.51154-0.85255 1.2318-0.93486 2.1608l5.7856-0.009"/>
  <path id="path3152" style="" d="m635.56 257.55c-0.18228-0.10583-0.38219-0.18226-0.59972-0.22931-0.21168-0.0529-0.44686-0.0794-0.70556-0.0794-0.91723 0-1.6228 0.29986-2.1167 0.89958-0.48802 0.59385-0.73202 1.4493-0.73202 2.5664v5.2035h-1.6316v-9.8778h1.6316v1.5346c0.34102-0.59971 0.78493-1.0436 1.3317-1.3317 0.5468-0.29397 1.2112-0.44096 1.9932-0.44097 0.11171 0.00001 0.23518 0.009 0.37042 0.0265 0.13522 0.0118 0.28515 0.0323 0.44979 0.0617l0.009 1.6669"/>
  <path id="path3154" style="" d="m645.17 259.95v5.9619h-1.6228v-5.909c0-0.93486-0.18227-1.6345-0.5468-2.099-0.36455-0.46448-0.91135-0.69672-1.6404-0.69673-0.87606 0.00001-1.5669 0.27929-2.0726 0.83784-0.50565 0.55858-0.75848 1.32-0.75847 2.2842v5.5827h-1.6316v-9.8778h1.6316v1.5346c0.38805-0.59383 0.84372-1.0377 1.367-1.3317 0.52916-0.29397 1.1377-0.44096 1.8256-0.44097 1.1348 0.00001 1.9932 0.35279 2.5753 1.0583 0.58207 0.69968 0.87311 1.7316 0.87312 3.0956"/>
  <path id="path3156" style="" d="m656.88 260.57v0.79375h-7.4612c0.0705 1.1171 0.40569 1.9697 1.0054 2.5576 0.6056 0.58208 1.4464 0.87312 2.5224 0.87312 0.62323 0 1.2259-0.0764 1.808-0.2293 0.58796-0.15287 1.17-0.38218 1.7462-0.68792v1.5346c-0.58209 0.24695-1.1789 0.43509-1.7903 0.56444-0.61149 0.12936-1.2318 0.19403-1.8609 0.19403-1.5758 0-2.8252-0.45861-3.7483-1.3758-0.91723-0.91722-1.3758-2.1578-1.3758-3.7218-0.00001-1.6169 0.43509-2.8986 1.3053-3.8453 0.87606-0.95249 2.0549-1.4287 3.5366-1.4288 1.3288 0.00001 2.3783 0.42922 3.1485 1.2876 0.7761 0.85255 1.1642 2.0138 1.1642 3.4837m-1.6228-0.47625c-0.0118-0.88781-0.26165-1.5963-0.74965-2.1255-0.48214-0.52916-1.123-0.79374-1.9226-0.79375-0.90546 0.00001-1.6316 0.25577-2.1784 0.76729-0.54093 0.51154-0.85255 1.2318-0.93486 2.1608l5.7856-0.009"/>
  <path id="path3158" style="" d="m661.15 253.23v2.8046h3.3426v1.2612h-3.3426v5.3622c0 0.80551 0.10877 1.3229 0.32632 1.5522 0.22342 0.2293 0.67321 0.34396 1.3494 0.34396h1.6669v1.3582h-1.6669c-1.2524 0-2.1167-0.23225-2.5929-0.69674-0.47625-0.47037-0.71438-1.3229-0.71438-2.5576v-5.3622h-1.1906v-1.2612h1.1906v-2.8046h1.6316"/>
 </g>
 <g id="g32" transform="translate(-.96488 -10.887)">
  <path id="path34" d="m331.15 186.5h121.65l-51.15 51.324h-121.65l51.151-51.324z" fill="#c9c9b6"/>
  <path id="path36" d="m331.15 186.5h121.65l-51.15 51.324h-121.65l51.151-51.324" stroke="#494936" stroke-width=".02" fill="none"/>
  <path id="path38" d="m335.82 229.16v0.273l0.05 0.224 0.074 0.298 0.1 0.298 0.149 0.224 0.174 0.273 0.223 0.248 0.224 0.224 0.223 0.273 0.298 0.274 0.299 0.223 0.323 0.199 0.372 0.199 0.348 0.223 0.447 0.174 0.398 0.224 0.447 0.174 0.497 0.174 0.496 0.149 0.472 0.149 0.522 0.149 0.522 0.149 0.546 0.074 0.597 0.1 0.571 0.049 0.596 0.1 0.547 0.074 0.621 0.075 0.621 0.025 0.596 0.024h0.596" stroke="#dbdbce" stroke-width=".02" fill="none"/>
  <path id="path40" d="m346.45 234.47h0.596l0.571-0.024 0.572-0.05 0.596-0.075 0.596-0.049 0.547-0.1 0.546-0.049 0.572-0.125 0.521-0.124 0.547-0.149 0.472-0.149 0.497-0.149 0.472-0.174 0.447-0.174 0.397-0.174 0.423-0.198 0.397-0.224 0.348-0.199 0.348-0.248 0.298-0.249 0.273-0.248 0.224-0.224 0.248-0.273 0.199-0.273 0.149-0.224 0.174-0.273 0.074-0.323 0.075-0.273 0.074-0.249 0.025-0.273" stroke="#dbdbce" stroke-width=".02" fill="none"/>
  <path id="path42" d="m349.09 219.19h-0.621l-0.596 0.025h-0.621l-0.547 0.05-0.596 0.074-0.596 0.05-0.572 0.05-0.596 0.124-0.522 0.099-0.521 0.075-0.522 0.124-0.522 0.149-0.472 0.124-0.447 0.149-0.447 0.199-0.497 0.149-0.348 0.174-0.397 0.149-0.373 0.199-0.298 0.223-0.323 0.199-0.273 0.174-0.273 0.224-0.199 0.223-0.199 0.249-0.199 0.223-0.099 0.199-0.124 0.248-0.075 0.199-0.025 0.273-0.024 0.199" stroke="#dbdbce" stroke-width=".02" fill="none"/>
  <path id="path44" d="m359.02 223.79v-0.223l-0.025-0.249-0.099-0.223-0.1-0.274-0.124-0.198-0.199-0.274-0.198-0.198-0.199-0.249-0.298-0.174-0.224-0.248-0.298-0.199-0.397-0.174-0.323-0.248-0.373-0.124-0.397-0.199-0.448-0.199-0.472-0.149-0.472-0.149-0.472-0.124-0.496-0.1-0.522-0.124-0.547-0.124-0.521-0.075-0.547-0.099-0.546-0.05-0.572-0.074-0.596-0.05h-0.621l-0.596-0.025h-0.572" stroke="#dbdbce" stroke-width=".02" fill="none"/>
  <path id="path46" d="m280 243.14h121.65v-5.316h-121.65v5.316z" fill="#a5a585"/>
  <path id="path48" d="m280 243.14h121.65v-5.316h-121.65v5.316" stroke="#494936" stroke-width=".02" fill="none"/>
  <path id="path50" d="m331.15 186.5h121.65v-83.223h-121.65v83.223z" fill="#a5a585"/>
  <path id="path52" d="m331.15 186.5h121.65v-83.223h-121.65v83.223" stroke="#494936" stroke-width=".02" fill="none"/>
  <path id="path54" d="m456.13 183.22v-83.222l-3.329 3.279v83.223l3.329-3.28z" fill="#7a7a5a"/>
  <path id="path56" d="m456.13 183.22v-83.222l-3.329 3.279v83.223l3.329-3.28" stroke="#494936" stroke-width=".02" fill="none"/>
  <path id="path58" d="m337.16 181.21h109.68v-71.248h-109.68v71.248z" fill="#fff"/>
  <path id="path60" d="m337.16 181.21h109.68v-71.248h-109.68v71.248" stroke="#494936" stroke-width=".02" fill="none"/>
  <path id="path62" d="m337.16 190.53h102.33l-26.582 26.656h-102.33l26.582-26.656z" fill="#93936c"/>
  <path id="path64" d="m337.16 190.53h102.33l-26.582 26.656h-102.33l26.582-26.656" stroke="#494936" stroke-width=".02" fill="none"/>
  <path id="path66" d="m353.09 227.47v-0.149l-0.025-0.149-0.025-0.149-0.075-0.174-0.024-0.149-0.1-0.124-0.049-0.15-0.125-0.099-0.124-0.149-0.074-0.149-0.125-0.124-0.149-0.124-0.149-0.15-0.174-0.124-0.149-0.074-0.174-0.124-0.198-0.1-0.224-0.074-0.174-0.125-0.223-0.049-0.224-0.1-0.199-0.049-0.248-0.075-0.224-0.05-0.273-0.049-0.224-0.075-0.248-0.025h-0.224l-0.248-0.024h-0.298-0.199-0.273-0.273l-0.224 0.024h-0.248l-0.224 0.025-0.273 0.075-0.224 0.049-0.248 0.05-0.224 0.075-0.223 0.049-0.199 0.1-0.249 0.049-0.174 0.125-0.198 0.074-0.199 0.1-0.174 0.124-0.149 0.074-0.174 0.124-0.149 0.15-0.124 0.124-0.174 0.124-0.075 0.149-0.149 0.149-0.074 0.099-0.075 0.15-0.074 0.124-0.05 0.149-0.025 0.174-0.049 0.149-0.05 0.149v0.149 0.174l0.05 0.149 0.049 0.149 0.025 0.149 0.05 0.149 0.074 0.124 0.075 0.174 0.074 0.124 0.149 0.149 0.075 0.1 0.174 0.149 0.124 0.124 0.149 0.149 0.174 0.099 0.149 0.1 0.174 0.124 0.199 0.099 0.198 0.075 0.174 0.124 0.249 0.05 0.199 0.099 0.223 0.05 0.224 0.074 0.248 0.05 0.224 0.05 0.273 0.049 0.224 0.05h0.248 0.224l0.273 0.025h0.273 0.199l0.298-0.025h0.248 0.224l0.248-0.05 0.224-0.049 0.273-0.05 0.224-0.05 0.248-0.074 0.199-0.05 0.224-0.099 0.223-0.05 0.174-0.124 0.224-0.075 0.198-0.099 0.174-0.124 0.149-0.1 0.174-0.099 0.149-0.149 0.149-0.124 0.125-0.149 0.074-0.1 0.124-0.149 0.125-0.124 0.049-0.174 0.1-0.124 0.024-0.149 0.075-0.149 0.025-0.149 0.025-0.149v-0.174z" fill="#7a7a5a"/>
  <path id="path68" d="m352.44 227.17v-0.149l-0.025-0.149v-0.125l-0.075-0.099-0.049-0.199-0.025-0.074-0.124-0.149-0.1-0.149-0.074-0.1-0.1-0.099-0.149-0.099-0.124-0.174-0.149-0.1-0.149-0.074-0.124-0.124-0.199-0.1-0.149-0.05-0.174-0.124-0.174-0.049-0.223-0.1-0.199-0.049-0.224-0.05-0.198-0.075-0.224-0.049-0.224-0.025-0.248-0.075-0.199-0.025-0.273-0.024h-0.199-0.248-0.224-0.248-0.224-0.248l-0.199 0.024-0.248 0.025-0.199 0.075-0.273 0.025-0.199 0.049-0.174 0.075-0.248 0.05-0.199 0.049-0.249 0.1-0.124 0.049-0.223 0.124-0.15 0.05-0.173 0.1-0.149 0.124-0.15 0.074-0.149 0.1-0.124 0.174-0.124 0.099-0.099 0.099-0.125 0.1-0.049 0.149-0.1 0.149-0.049 0.074-0.05 0.199-0.05 0.099-0.025 0.125-0.024 0.149v0.149 0.124l0.024 0.149 0.025 0.149 0.05 0.075 0.05 0.149 0.049 0.149 0.1 0.124 0.049 0.124 0.125 0.149 0.099 0.075 0.124 0.124 0.124 0.124 0.149 0.124 0.15 0.075 0.149 0.124 0.173 0.075 0.15 0.099 0.223 0.099 0.124 0.05 0.249 0.099 0.199 0.075 0.248 0.025 0.174 0.074 0.199 0.05 0.273 0.025 0.199 0.074 0.248 0.05h0.199 0.248 0.224 0.248 0.224 0.248 0.199 0.273l0.199-0.05 0.248-0.074 0.224-0.025 0.224-0.05 0.198-0.074 0.224-0.025 0.199-0.075 0.223-0.099 0.174-0.05 0.174-0.099 0.149-0.099 0.199-0.075 0.124-0.124 0.149-0.075 0.149-0.124 0.124-0.124 0.149-0.124 0.1-0.075 0.074-0.149 0.1-0.124 0.124-0.124 0.025-0.149 0.049-0.149 0.075-0.075v-0.149l0.025-0.149v-0.124" stroke="#dbdbce" stroke-width=".02" fill="none"/>
  <path id="path70" d="m336.52 229.8v0.298l0.049 0.224 0.1 0.273 0.074 0.298 0.149 0.249 0.149 0.223 0.224 0.273 0.224 0.274 0.248 0.223 0.248 0.249 0.323 0.223 0.298 0.249 0.398 0.198 0.373 0.199 0.397 0.174 0.422 0.224 0.472 0.174 0.423 0.173 0.546 0.149 0.497 0.15 0.522 0.173 0.521 0.125 0.547 0.074 0.547 0.1 0.596 0.099 0.571 0.05 0.572 0.099 0.596 0.05 0.621 0.024h0.596 0.596" stroke="#626248" stroke-width=".02" fill="none"/>
  <path id="path72" d="m347.08 235.09h0.621 0.571l0.621-0.049 0.547-0.075 0.571-0.049 0.596-0.05 0.522-0.099 0.571-0.125 0.497-0.124 0.547-0.099 0.522-0.149 0.472-0.149 0.472-0.174 0.447-0.224 0.447-0.174 0.372-0.198 0.398-0.199 0.348-0.249 0.323-0.198 0.323-0.274 0.273-0.198 0.273-0.249 0.224-0.298 0.149-0.273 0.223-0.224 0.1-0.298 0.124-0.273 0.099-0.298v-0.224l0.05-0.298" stroke="#626248" stroke-width=".02" fill="none"/>
  <path id="path74" d="m349.73 219.84h-0.571l-0.597 0.025h-0.596l-0.596 0.05-0.621 0.074-0.596 0.025-0.522 0.099-0.596 0.075-0.547 0.149-0.522 0.05-0.521 0.149-0.497 0.099-0.497 0.174-0.447 0.149-0.447 0.149-0.472 0.149-0.373 0.174-0.397 0.174-0.348 0.224-0.323 0.198-0.298 0.174-0.298 0.249-0.299 0.174-0.173 0.198-0.199 0.274-0.174 0.198-0.149 0.249-0.099 0.198-0.075 0.224-0.025 0.273-0.025 0.249" stroke="#626248" stroke-width=".02" fill="none"/>
  <path id="path76" d="m359.72 224.49-0.05-0.274-0.025-0.248-0.05-0.224-0.124-0.248-0.149-0.224-0.174-0.248-0.199-0.199-0.223-0.223-0.249-0.249-0.298-0.198-0.298-0.224-0.323-0.199-0.397-0.174-0.348-0.174-0.422-0.173-0.398-0.199-0.447-0.149-0.472-0.124-0.522-0.15-0.497-0.099-0.496-0.149-0.522-0.099-0.547-0.1-0.596-0.099-0.522-0.05-0.571-0.074-0.596-0.05h-0.621l-0.547-0.025h-0.621" stroke="#626248" stroke-width=".02" fill="none"/>
  <path id="path78" d="m452.8 191.17-51.15 51.325v-4.671l51.15-51.324v4.67z" fill="#7a7a5a"/>
  <path id="path80" d="m452.8 191.17-51.15 51.325v-4.671l51.15-51.324v4.67" stroke="#494936" stroke-width=".02" fill="none"/>
  <path id="path82" d="m435.54 182.58v1.267h9.962v-1.267h-9.962z" fill="#7a7a5a"/>
  <path id="path84" d="m435.54 182.58v1.267h9.962v-1.267h-9.962" stroke="#494936" stroke-width=".02" fill="none"/>
  <path id="path86" d="m432.81 197.18h-101.66" stroke="#000" stroke-width=".02" fill="none"/>
  <path id="path88" d="m426.2 203.87h-101.66" stroke="#000" stroke-width=".02" fill="none"/>
  <path id="path90" d="m419.56 210.52h-101.68" stroke="#000" stroke-width=".02" fill="none"/>
  <path id="path92" d="m334.48 100h121.65l-3.329 3.279h-121.65l3.329-3.279z" fill="#c9c9b6"/>
  <path id="path94" d="m334.48 100h121.65l-3.329 3.279h-121.65l3.329-3.279" stroke="#494936" stroke-width=".02" fill="none"/>
 </g>
 <g id="g96" transform="translate(-.96488 -10.887)">
  <path id="path98" d="m800 236.71v-112.8h45.613v112.8h-45.613z" fill="#b7b79d"/>
  <path id="path100" d="m800 236.71v-112.8h45.613v112.8h-45.613" stroke="#494936" stroke-width=".02" fill="none"/>
  <path id="path102" d="m845.61 236.71v-112.8h45.649v112.8h-45.649z" fill="#a5a585"/>
  <path id="path104" d="m845.61 236.71v-112.8h45.649v112.8h-45.649" stroke="#494936" stroke-width=".02" fill="none"/>
  <path id="path106" d="m915.09 212.8v-112.8l-23.824 23.914v112.8l23.824-23.914z" fill="#7a7a5a"/>
  <path id="path108" d="m915.09 212.8v-112.8l-23.824 23.914v112.8l23.824-23.914" stroke="#494936" stroke-width=".02" fill="none"/>
  <path id="path110" d="m823.8 100-23.8 23.91h91.262l23.824-23.914h-91.281z" fill="#c9c9b6"/>
  <path id="path112" d="m823.8 100-23.8 23.91h91.262l23.824-23.914h-91.281" stroke="#494936" stroke-width=".02" fill="none"/>
  <path id="path114" d="m866.73 102.72-18.376 18.448" stroke="#7a7a5a" stroke-width=".02" fill="none"/>
  <path id="path116" d="m823.12 236h-23.115l0.018 0.508 0.091 0.509 0.145 0.526 0.2 0.509 0.29 0.49 0.309 0.526 0.381 0.491 0.436 0.454 0.472 0.472 0.545 0.472 0.599 0.454 0.654 0.417 0.69 0.418 0.745 0.418 0.78 0.381 0.817 0.363 0.89 0.363 0.908 0.309 0.926 0.309 0.999 0.29 0.999 0.254 1.035 0.255 1.071 0.199 1.089 0.182 1.09 0.182 1.144 0.127 1.126 0.145 1.162 0.073 1.18 0.072 1.162 0.037 1.162 0.018 1.162-0.018 1.162-0.037 1.163-0.072 1.162-0.073 1.144-0.145 1.125-0.127 1.09-0.182 1.108-0.182 1.071-0.199 1.035-0.255 1.017-0.254 0.98-0.29 0.944-0.309 0.908-0.309 0.854-0.363 0.853-0.363 0.745-0.381 0.762-0.418 0.708-0.418 0.636-0.417 0.599-0.454 0.545-0.472 0.454-0.472 0.436-0.454 0.399-0.491 0.309-0.526 0.272-0.49 0.218-0.509 0.127-0.526 0.109-0.509 0.037-0.508h-23.134z" fill="#b7b79d"/>
  <path id="path118" d="m800 236 0.018 0.508 0.091 0.509 0.145 0.526 0.2 0.509 0.29 0.49 0.309 0.526 0.381 0.491 0.436 0.454 0.472 0.472 0.545 0.472 0.599 0.454 0.654 0.417 0.69 0.418 0.745 0.418 0.798 0.381 0.836 0.363 0.853 0.363 0.908 0.309 0.944 0.309 0.981 0.29 1.017 0.254 1.017 0.255 1.071 0.199 1.089 0.182 1.108 0.182 1.144 0.127 1.108 0.145 1.162 0.073 1.18 0.072 1.162 0.037 1.199 0.018 1.143-0.018 1.181-0.037 1.144-0.072 1.18-0.073 1.108-0.145 1.125-0.127 1.126-0.182 1.09-0.182 1.071-0.199 1.017-0.255 1.017-0.254 0.98-0.29 0.944-0.309 0.908-0.309 0.908-0.363 0.799-0.363 0.781-0.381 0.744-0.418 0.709-0.418 0.635-0.417 0.599-0.454 0.563-0.472 0.472-0.472 0.436-0.454 0.363-0.491 0.309-0.526 0.291-0.49 0.199-0.509 0.127-0.526 0.128-0.509 0.018-0.508" stroke="#494936" stroke-width=".02" fill="none"/>
  <path id="path120" d="m832.01 132.81v5.465 6.156 7.517 7.518 17.068 17.777 8.225 8.19 6.845 6.156 5.465 4.086 2.07 1.362h13.6v-112.13h-0.672l0.672 0.708v0.672l-2.016 2.052-3.45 2.052-4.049 1.362-4.085 1.38z" fill="#93936c"/>
  <path id="path122" d="m832.01 244.9 4.757-1.362 4.086-2.033 2.033-0.709 1.38-1.361 0.672-2.052 0.672-1.362h-1.344-1.38-2.033-4.086-4.757v2.742 2.742 1.361 1.362 0.672z" fill="#93936c"/>
  <path id="path124" d="m802.03 122.55-2.034 2.034h45.613v-2.034h-43.579z" fill="#c9c9b6"/>
  <path id="path126" d="m823.12 123.9h-23.115l0.018 0.49 0.091 0.545 0.145 0.508 0.2 0.527 0.29 0.49 0.309 0.509 0.381 0.49 0.436 0.472 0.472 0.454 0.545 0.472 0.599 0.454 0.654 0.418 0.69 0.417 0.745 0.418 0.78 0.381 0.817 0.363 0.89 0.345 0.908 0.327 0.926 0.309 0.999 0.272 0.999 0.273 1.035 0.254 1.071 0.218 1.089 0.163 1.09 0.2 1.144 0.127 1.126 0.127 1.162 0.073 1.18 0.072 1.162 0.037 1.162 0.018 1.162-0.018 1.162-0.037 1.163-0.072 1.162-0.073 1.144-0.127 1.125-0.127 1.09-0.2 1.108-0.163 1.071-0.218 1.035-0.254 1.017-0.273 0.98-0.272 0.944-0.309 0.908-0.327 0.854-0.345 0.853-0.363 0.745-0.381 0.762-0.418 0.708-0.417 0.636-0.418 0.599-0.454 0.545-0.472 0.454-0.454 0.436-0.472 0.399-0.49 0.309-0.509 0.272-0.49 0.218-0.527 0.127-0.508 0.109-0.545 0.037-0.49h-23.134z" fill="#c9c9b6"/>
  <path id="path128" d="m800 123.9 0.018 0.49 0.091 0.545 0.145 0.508 0.2 0.527 0.29 0.49 0.309 0.509 0.381 0.49 0.436 0.472 0.472 0.454 0.545 0.472 0.599 0.454 0.654 0.418 0.69 0.417 0.745 0.418 0.798 0.381 0.836 0.363 0.853 0.345 0.908 0.327 0.944 0.309 0.981 0.272 1.017 0.273 1.017 0.254 1.071 0.218 1.089 0.163 1.108 0.2 1.144 0.127 1.108 0.127 1.162 0.073 1.18 0.072 1.162 0.037 1.199 0.018 1.143-0.018 1.181-0.037 1.144-0.072 1.18-0.073 1.108-0.127 1.125-0.127 1.126-0.2 1.09-0.163 1.071-0.218 1.017-0.254 1.017-0.273 0.98-0.272 0.944-0.309 0.908-0.327 0.908-0.345 0.799-0.363 0.781-0.381 0.744-0.418 0.709-0.417 0.635-0.418 0.599-0.454 0.563-0.472 0.472-0.454 0.436-0.472 0.363-0.49 0.309-0.509 0.291-0.49 0.199-0.527 0.127-0.508 0.128-0.545 0.018-0.49" stroke="#494936" stroke-width=".02" fill="none"/>
  <path id="path130" d="m804.09 123.91h37.441" stroke="#7a7a5a" stroke-width=".02" fill="none"/>
  <path id="path132" d="m846.3 236.02v-111.44h8.189v111.44h-8.189z" fill="#93936c"/>
  <path id="path134" d="m853.11 157.4v-25.966h30.651v25.966h-30.651z" fill="#93936c"/>
  <path id="path136" d="m853.11 157.4v-25.966h30.651v25.966h-30.651" stroke="#494936" stroke-width=".02" fill="none"/>
  <path id="path138" d="m853.78 157.4v-25.258h0.708v25.258h-0.708z" fill="#7a7a5a"/>
  <path id="path140" d="m800.69 125.97 2.034 2.052v112.11l-2.034-2.034v-112.13z" fill="#d4000a"/>
  <path id="path142" d="m800 123.9 0.018 0.49 0.091 0.545 0.145 0.508 0.2 0.527 0.29 0.49 0.309 0.509 0.381 0.49 0.436 0.472 0.472 0.454 0.545 0.472 0.599 0.454 0.654 0.418 0.69 0.417 0.745 0.418 0.798 0.381 0.836 0.363 0.853 0.345 0.908 0.327 0.944 0.309 0.981 0.272 1.017 0.273 1.017 0.254 1.071 0.218 1.089 0.163 1.108 0.2 1.144 0.127 1.108 0.127 1.162 0.073 1.18 0.072 1.162 0.037 1.199 0.018 1.143-0.018 1.181-0.037 1.144-0.072 1.18-0.073 1.108-0.127 1.125-0.127 1.126-0.2 1.09-0.163 1.071-0.218 1.017-0.254 1.017-0.273 0.98-0.272 0.944-0.309 0.908-0.327 0.908-0.345 0.799-0.363 0.781-0.381 0.744-0.418 0.709-0.417 0.635-0.418 0.599-0.454 0.563-0.472 0.472-0.454 0.436-0.472 0.363-0.49 0.309-0.509 0.291-0.49 0.199-0.527 0.127-0.508 0.128-0.545 0.018-0.49" stroke="#494936" stroke-width=".02" fill="none"/>
  <path id="path144" d="m800 236.31 0.018 0.491 0.073 0.49 0.163 0.508 0.2 0.472 0.236 0.491 0.309 0.49 0.363 0.454 0.454 0.472 0.417 0.436 0.545 0.472 0.563 0.418 0.654 0.399 0.672 0.418 0.726 0.381 0.781 0.363 0.799 0.363 0.817 0.345 0.908 0.327 0.944 0.291 0.944 0.29 1.017 0.254 0.999 0.237 1.035 0.199 1.089 0.2 1.09 0.163 1.107 0.146 1.126 0.145 1.126 0.073 1.162 0.072 1.162 0.055 1.199 0.018h1.107l1.162-0.018 1.162-0.055 1.163-0.072 1.143-0.109 1.09-0.127 1.108-0.146 1.107-0.181 1.072-0.182 1.035-0.236 0.998-0.236 1.017-0.254 0.926-0.291 0.944-0.308 0.872-0.309 0.835-0.345 0.799-0.345 0.763-0.4 0.708-0.381 0.672-0.418 0.635-0.417 0.581-0.436 0.509-0.436 0.472-0.472 0.381-0.454 0.345-0.472 0.309-0.472 0.254-0.49 0.182-0.491 0.145-0.49 0.055-0.49 0.018-0.509" stroke="#494936" stroke-width=".02" fill="none"/>
 </g>
</svg>
