<?xml version="1.0" encoding="UTF-8" standalone="no"?>
<!-- Created with Inkscape (http://www.inkscape.org/) -->
<svg id="svg2" xmlns:rdf="http://www.w3.org/1999/02/22-rdf-syntax-ns#" xmlns="http://www.w3.org/2000/svg" height="434.55" width="814.96" version="1.1" xmlns:cc="http://creativecommons.org/ns#" xmlns:dc="http://purl.org/dc/elements/1.1/" viewBox="179 77 442 227.35346">
 <metadata id="metadata150">
  <rdf:RDF>
   <cc:Work rdf:about="">
    <dc:format>image/svg+xml</dc:format>
    <dc:type rdf:resource="http://purl.org/dc/dcmitype/StillImage"/>
   </cc:Work>
  </rdf:RDF>
 </metadata>
 <g id="g4" transform="translate(0 -6.1632)">
  <path id="rect6" fill="#fff" d="m180 100h160v40h-160z"/>
  <path id="rect8" d="m180 100h160v40h-160z" stroke="#000" stroke-width="2" fill="none"/>
 </g>
 <g id="g10" transform="translate(0 -6.1632)">
  <path id="rect12" fill="#fff" d="m180 140h160v40h-160z"/>
  <path id="rect14" d="m180 140h160v40h-160z" stroke="#000" stroke-width="2" fill="none"/>
 </g>
 <g id="g16" transform="translate(0 -6.1632)">
  <path id="rect18" fill="#fff" d="m180 180h160v40h-160z"/>
  <path id="rect20" d="m180 180h160v40h-160z" stroke="#000" stroke-width="2" fill="none"/>
 </g>
 <g id="g22" transform="translate(0 -6.1632)">
  <path id="rect24" fill="#fff" d="m180 220h160v40h-160z"/>
  <path id="rect26" d="m180 220h160v40h-160z" stroke="#000" stroke-width="2" fill="none"/>
 </g>
 <g id="text28">
  <path id="path3062" style="" d="m220.66 109.33-2.1144 5.7337h4.2366l-2.1222-5.7337m-0.87973-1.5357h1.7672l4.391 11.521h-1.6206l-1.0495-2.9556h-5.1935l-1.0495 2.9556h-1.6437l4.3987-11.521"/>
  <path id="path3064" style="" d="m227.55 107.3h1.4199v12.008h-1.4199v-12.008"/>
  <path id="path3066" style="" d="m231.88 107.3h1.4276v7.0919l4.2366-3.7273h1.8135l-4.5839 4.0437 4.7768 4.5993h-1.8521l-4.391-4.2212v4.2212h-1.4276v-12.008"/>
  <path id="path3068" style="" d="m244.75 114.97c-1.1473 0-1.9421 0.13119-2.3846 0.39357-0.44244 0.26238-0.66366 0.70996-0.66366 1.3428 0 0.50418 0.16463 0.90546 0.49389 1.2038 0.3344 0.29325 0.78713 0.43987 1.3582 0.43987 0.78713 0 1.4174-0.27781 1.8907-0.83343 0.47845-0.56077 0.71768-1.3042 0.71768-2.2302v-0.3164h-1.4122m2.8321-0.58649v4.9312h-1.4199v-1.3119c-0.32412 0.52475-0.72797 0.91318-1.2116 1.1653-0.48361 0.24695-1.0752 0.37042-1.7749 0.37042-0.88489 0-1.5897-0.24694-2.1145-0.74083-0.51961-0.49903-0.77942-1.1653-0.77942-1.9987 0-0.97234 0.32412-1.7054 0.97235-2.1994 0.65337-0.49388 1.6257-0.74082 2.917-0.74083h1.991v-0.1389c0-0.65337-0.21608-1.1576-0.64822-1.5125-0.42702-0.36012-1.0289-0.54019-1.8058-0.54019-0.49389 0-0.97492 0.0592-1.4431 0.17749-0.46816 0.11833-0.91832 0.29582-1.3505 0.53247v-1.3119c0.51961-0.20063 1.0238-0.34983 1.5125-0.44758 0.48874-0.10289 0.96462-0.15434 1.4276-0.15434 1.2502 0 2.1839 0.32412 2.8013 0.97234 0.61735 0.64823 0.92603 1.6309 0.92604 2.9479"/>
  <path id="path3070" style="" d="m250.52 107.3h1.4199v12.008h-1.4199v-12.008"/>
  <path id="path3072" style="" d="m261.63 112.33c0.35498-0.63793 0.77941-1.1087 1.2733-1.4122 0.49388-0.30353 1.0752-0.4553 1.744-0.4553 0.9003 0 1.5948 0.3164 2.0836 0.94919 0.48873 0.62765 0.7331 1.5228 0.73311 2.6855v5.2167h-1.4276v-5.1704c-0.00002-0.82828-0.14664-1.4431-0.43987-1.8444-0.29326-0.40128-0.74084-0.60192-1.3428-0.60193-0.7357 0.00001-1.317 0.24438-1.744 0.73312-0.42701 0.48875-0.64052 1.155-0.64051 1.9987v4.8849h-1.4276v-5.1704c-0.00001-0.83343-0.14663-1.4482-0.43987-1.8444-0.29325-0.40128-0.74598-0.60192-1.3582-0.60193-0.7254 0.00001-1.3016 0.24696-1.7286 0.74084-0.42701 0.48875-0.64051 1.1524-0.64051 1.991v4.8849h-1.4276v-8.643h1.4276v1.3428c0.32411-0.52989 0.71253-0.92088 1.1653-1.173 0.45272-0.25208 0.99034-0.37813 1.6128-0.37813 0.62764 0 1.1601 0.15949 1.5974 0.47845 0.44243 0.31898 0.76911 0.782 0.98005 1.3891"/>
  <path id="path3074" style="" d="m274.23 114.97c-1.1473 0-1.9421 0.13119-2.3846 0.39357-0.44244 0.26238-0.66366 0.70996-0.66366 1.3428 0 0.50418 0.16463 0.90546 0.49389 1.2038 0.3344 0.29325 0.78713 0.43987 1.3582 0.43987 0.78713 0 1.4174-0.27781 1.8907-0.83343 0.47845-0.56077 0.71768-1.3042 0.71768-2.2302v-0.3164h-1.4122m2.8321-0.58649v4.9312h-1.4199v-1.3119c-0.32412 0.52475-0.72797 0.91318-1.2116 1.1653-0.48361 0.24695-1.0752 0.37042-1.7749 0.37042-0.88489 0-1.5897-0.24694-2.1145-0.74083-0.51961-0.49903-0.77942-1.1653-0.77941-1.9987-0.00001-0.97234 0.32411-1.7054 0.97234-2.1994 0.65337-0.49388 1.6257-0.74082 2.917-0.74083h1.991v-0.1389c0-0.65337-0.21608-1.1576-0.64822-1.5125-0.42702-0.36012-1.0289-0.54019-1.8058-0.54019-0.49389 0-0.97492 0.0592-1.4431 0.17749-0.46816 0.11833-0.91832 0.29582-1.3505 0.53247v-1.3119c0.51961-0.20063 1.0238-0.34983 1.5125-0.44758 0.48874-0.10289 0.96462-0.15434 1.4276-0.15434 1.2502 0 2.1839 0.32412 2.8013 0.97234 0.61735 0.64823 0.92603 1.6309 0.92604 2.9479"/>
  <path id="path3076" style="" d="m279.38 110.67h6.7446v1.2965l-5.3402 6.2122h5.3402v1.1344h-6.9376v-1.2965l5.3402-6.2122h-5.1472v-1.1344"/>
  <path id="path3078" style="" d="m292.23 114.97c-1.1473 0-1.9421 0.13119-2.3846 0.39357-0.44244 0.26238-0.66366 0.70996-0.66366 1.3428 0 0.50418 0.16463 0.90546 0.49389 1.2038 0.3344 0.29325 0.78713 0.43987 1.3582 0.43987 0.78713 0 1.4174-0.27781 1.8907-0.83343 0.47845-0.56077 0.71768-1.3042 0.71768-2.2302v-0.3164h-1.4122m2.8321-0.58649v4.9312h-1.4199v-1.3119c-0.32412 0.52475-0.72797 0.91318-1.2116 1.1653-0.4836 0.24695-1.0752 0.37042-1.7749 0.37042-0.88489 0-1.5897-0.24694-2.1145-0.74083-0.51961-0.49903-0.77942-1.1653-0.77942-1.9987 0-0.97234 0.32412-1.7054 0.97235-2.1994 0.65336-0.49388 1.6257-0.74082 2.917-0.74083h1.991v-0.1389c0-0.65337-0.21608-1.1576-0.64822-1.5125-0.42702-0.36012-1.0289-0.54019-1.8058-0.54019-0.49389 0-0.97492 0.0592-1.4431 0.17749-0.46817 0.11833-0.91832 0.29582-1.3505 0.53247v-1.3119c0.51961-0.20063 1.0238-0.34983 1.5125-0.44758 0.48874-0.10289 0.96462-0.15434 1.4276-0.15434 1.2502 0 2.1839 0.32412 2.8013 0.97234 0.61735 0.64823 0.92603 1.6309 0.92604 2.9479m-2.5929-7.7093h1.5357l-2.5157 2.9016h-1.1807l2.1608-2.9016"/>
  <path id="path3080" style="" d="m303.5 110.92v1.3428c-0.40129-0.20578-0.81801-0.36012-1.2502-0.46302-0.43216-0.10288-0.87974-0.15433-1.3428-0.15434-0.70482 0.00001-1.2347 0.10805-1.5897 0.32412-0.34984 0.21608-0.52476 0.54019-0.52475 0.97234-0.00001 0.32926 0.12604 0.58907 0.37813 0.77941 0.25208 0.18522 0.75883 0.36271 1.5202 0.53248l0.48617 0.10803c1.0084 0.21608 1.7234 0.52219 2.1453 0.91833 0.427 0.39099 0.6405 0.9389 0.64051 1.6437-0.00001 0.80256-0.31897 1.4379-0.95691 1.9061-0.6328 0.46817-1.5048 0.70225-2.6161 0.70225-0.46302 0-0.94662-0.0463-1.4508-0.13891-0.49903-0.0875-1.0264-0.22122-1.582-0.40128v-1.4662c0.52475 0.27267 1.0418 0.47846 1.5511 0.61736 0.50932 0.13376 1.0135 0.20064 1.5125 0.20064 0.6688 0 1.1833-0.11318 1.5434-0.33955 0.36012-0.2315 0.54018-0.55562 0.54019-0.97234-0.00001-0.38584-0.1312-0.68166-0.39357-0.88745-0.25724-0.20578-0.82572-0.40385-1.7054-0.59421l-0.49389-0.11575c-0.87974-0.18521-1.5151-0.46816-1.9061-0.84887-0.39099-0.38585-0.58649-0.91317-0.58649-1.582 0-0.81285 0.2881-1.4405 0.8643-1.8829 0.5762-0.44243 1.3942-0.66366 2.454-0.66366 0.52475 0 1.0186 0.0386 1.4817 0.11575 0.46301 0.0772 0.89002 0.19293 1.281 0.34727"/>
 </g>
 <g id="text32">
  <path id="path3083" style="" d="m245.29 147.79h9.7466v1.3119h-4.09v10.21h-1.5666v-10.21h-4.09v-1.3119"/>
  <path id="path3085" style="" d="m264.25 148.68v1.6437c-0.52476-0.48873-1.0855-0.854-1.6823-1.0958-0.59165-0.24179-1.2219-0.36269-1.8907-0.3627-1.317 0.00001-2.3254 0.40387-3.0251 1.2116-0.69967 0.80257-1.0495 1.9653-1.0495 3.4881 0 1.5177 0.34984 2.6804 1.0495 3.4881 0.69967 0.80257 1.708 1.2038 3.0251 1.2038 0.66879 0 1.299-0.1209 1.8907-0.3627 0.59677-0.24179 1.1575-0.60707 1.6823-1.0958v1.6283c-0.54534 0.37041-1.1241 0.64822-1.7363 0.83343-0.60708 0.18521-1.2502 0.27781-1.9292 0.27781-1.744 0-3.1177-0.53247-4.1209-1.5974-1.0032-1.0701-1.5048-2.5286-1.5048-4.3755 0-1.8521 0.50161-3.3106 1.5048-4.3755 1.0032-1.0701 2.3768-1.6051 4.1209-1.6051 0.68938 0.00001 1.3376 0.0926 1.9447 0.27781 0.61221 0.18008 1.1858 0.45274 1.7209 0.818"/>
  <path id="path3087" style="" d="m268.23 149.07v4.3292h1.9601c0.72539 0.00001 1.2862-0.18777 1.6823-0.56334 0.39613-0.37555 0.5942-0.9106 0.59421-1.6051-0.00001-0.68938-0.19808-1.2218-0.59421-1.5974-0.39614-0.37555-0.95691-0.56333-1.6823-0.56334h-1.9601m-1.5588-1.281h3.519c1.2913 0.00001 2.2662 0.29326 2.9247 0.87974 0.66365 0.58135 0.99548 1.4354 0.99549 2.562-0.00001 1.137-0.33184 1.9961-0.99549 2.5775-0.65853 0.58136-1.6334 0.87203-2.9247 0.87202h-1.9601v4.6302h-1.5588v-11.521"/>
 </g>
 <g id="text36">
  <path id="path3090" style="" d="m254.45 187.79h1.5588v11.521h-1.5588v-11.521"/>
  <path id="path3092" style="" d="m260.67 189.07v4.3292h1.9601c0.7254 0.00001 1.2862-0.18777 1.6823-0.56334 0.39613-0.37555 0.5942-0.9106 0.59421-1.6051-0.00001-0.68938-0.19808-1.2218-0.59421-1.5974-0.39615-0.37555-0.95691-0.56333-1.6823-0.56334h-1.9601m-1.5588-1.281h3.5189c1.2913 0.00001 2.2662 0.29326 2.9247 0.87974 0.66366 0.58135 0.99549 1.4354 0.9955 2.562-0.00001 1.137-0.33184 1.9961-0.9955 2.5775-0.65852 0.58136-1.6334 0.87203-2.9247 0.87202h-1.9601v4.6302h-1.5588v-11.521"/>
 </g>
 <g id="text40">
  <path id="path3095" style="" d="m216.45 227.79h6.6212v1.3119h-5.0624v3.3955h4.5685v1.3119h-4.5685v5.5022h-1.5588v-11.521"/>
  <path id="path3097" style="" d="m224.36 230.67h1.4199v8.643h-1.4199v-8.643m0-3.3646h1.4199v1.7981h-1.4199v-1.7981"/>
  <path id="path3099" style="" d="m228.12 230.67h6.7447v1.2964l-5.3402 6.2122h5.3402v1.1344h-6.9376v-1.2965l5.3402-6.2122h-5.1472v-1.1344"/>
  <path id="path3101" style="" d="m237.04 230.67h1.4199v8.643h-1.4199v-8.643m0-3.3646h1.4199v1.7981h-1.4199v-1.7981"/>
  <path id="path3103" style="" d="m241.37 227.3h1.4276v7.0919l4.2366-3.7273h1.8135l-4.5839 4.0437 4.7768 4.5993h-1.8521l-4.391-4.2212v4.2212h-1.4276v-12.008"/>
  <path id="path3105" style="" d="m254.24 234.97c-1.1473 0.00001-1.9421 0.1312-2.3846 0.39357-0.44245 0.26238-0.66367 0.70997-0.66367 1.3428 0 0.50417 0.16463 0.90546 0.49389 1.2038 0.3344 0.29324 0.78713 0.43987 1.3582 0.43987 0.78713 0 1.4174-0.27782 1.8907-0.83344 0.47845-0.56077 0.71768-1.3042 0.71769-2.2302v-0.3164h-1.4122m2.8321-0.58649v4.9312h-1.4199v-1.3119c-0.32412 0.52476-0.72798 0.91318-1.2116 1.1653-0.48361 0.24694-1.0752 0.37041-1.7749 0.37041-0.88489 0-1.5897-0.24694-2.1145-0.74083-0.51961-0.49903-0.77941-1.1653-0.77941-1.9987 0-0.97234 0.32411-1.7054 0.97234-2.1993 0.65337-0.49389 1.6257-0.74083 2.917-0.74083h1.991v-0.13891c-0.00001-0.65337-0.21609-1.1575-0.64823-1.5125-0.42701-0.36012-1.0289-0.54018-1.8058-0.54019-0.49389 0.00001-0.97492 0.0592-1.4431 0.17749-0.46816 0.11834-0.91832 0.29583-1.3505 0.53247v-1.3119c0.51961-0.20063 1.0238-0.34982 1.5125-0.44758 0.48874-0.10289 0.96462-0.15433 1.4276-0.15434 1.2502 0.00001 2.1839 0.32412 2.8013 0.97234 0.61735 0.64823 0.92603 1.6309 0.92604 2.9479"/>
  <path id="path3107" style="" d="m260.01 230.67h1.4199v8.643h-1.4199v-8.643m0-3.3646h1.4199v1.7981h-1.4199v-1.7981"/>
  <path id="path3109" style="" d="m274.93 230.92v1.3428c-0.40129-0.20578-0.81801-0.36012-1.2502-0.46302-0.43216-0.10289-0.87974-0.15434-1.3428-0.15434-0.70482 0-1.2347 0.10804-1.5897 0.32411-0.34984 0.21608-0.52476 0.5402-0.52475 0.97234-0.00001 0.32926 0.12604 0.58907 0.37813 0.77942 0.25208 0.18521 0.75883 0.3627 1.5202 0.53247l0.48617 0.10804c1.0084 0.21608 1.7234 0.52218 2.1453 0.91832 0.427 0.391 0.6405 0.9389 0.64051 1.6437-0.00001 0.80257-0.31897 1.4379-0.95691 1.9061-0.63279 0.46816-1.5048 0.70224-2.6161 0.70224-0.46302 0-0.94662-0.0463-1.4508-0.1389-0.49903-0.0875-1.0264-0.22122-1.582-0.40129v-1.4662c0.52475 0.27267 1.0418 0.47846 1.5511 0.61736 0.50932 0.13377 1.0135 0.20065 1.5125 0.20065 0.6688 0 1.1833-0.11319 1.5434-0.33955 0.36012-0.23151 0.54018-0.55562 0.54019-0.97234-0.00001-0.38585-0.13119-0.68167-0.39357-0.88746-0.25723-0.20578-0.82572-0.40385-1.7054-0.59421l-0.49389-0.11575c-0.87974-0.1852-1.5151-0.46816-1.9061-0.84887-0.39099-0.38584-0.58649-0.91317-0.58649-1.582 0-0.81285 0.2881-1.4405 0.86431-1.883 0.5762-0.44243 1.3942-0.66365 2.454-0.66366 0.52475 0.00001 1.0186 0.0386 1.4817 0.11575 0.46301 0.0772 0.89002 0.19294 1.281 0.34727"/>
  <path id="path3111" style="" d="m277.05 230.67h6.7446v1.2964l-5.3402 6.2122h5.3402v1.1344h-6.9376v-1.2965l5.3402-6.2122h-5.1472v-1.1344"/>
  <path id="path3113" style="" d="m285.97 230.67h1.4199v8.643h-1.4199v-8.643m0-3.3646h1.4199v1.7981h-1.4199v-1.7981"/>
  <path id="path3115" style="" d="m297.54 234.1v5.2167h-1.4199v-5.1704c-0.00001-0.81799-0.1595-1.4302-0.47846-1.8366-0.31897-0.40642-0.79743-0.60963-1.4354-0.60964-0.76656 0.00001-1.3711 0.24438-1.8135 0.73311-0.44245 0.48875-0.66367 1.155-0.66366 1.9987v4.8849h-1.4276v-8.643h1.4276v1.3428c0.33954-0.5196 0.73825-0.90802 1.1961-1.1653 0.46302-0.25723 0.99549-0.38584 1.5974-0.38585 0.99291 0.00001 1.744 0.30869 2.2534 0.92604 0.50931 0.61222 0.76397 1.5151 0.76398 2.7087"/>
  <path id="path3117" style="" d="m301.79 228.21v2.454h2.9247v1.1035h-2.9247v4.6919c0 0.70482 0.0952 1.1576 0.28553 1.3582 0.1955 0.20064 0.58906 0.30096 1.1807 0.30096h1.4585v1.1884h-1.4585c-1.0958 0-1.8521-0.20321-2.2688-0.60964-0.41672-0.41158-0.62508-1.1576-0.62508-2.2379v-4.6919h-1.0418v-1.1035h1.0418v-2.454h1.4276"/>
 </g>
 <g id="text44">
  <path id="path3120" style="" d="m232.71 278.55-2.1144 5.7337h4.2366l-2.1222-5.7337m-0.87973-1.5357h1.7672l4.391 11.521h-1.6206l-1.0495-2.9556h-5.1935l-1.0495 2.9556h-1.6437l4.3987-11.521"/>
  <path id="path3122" style="" d="m250.32 284.12c-0.00001-1.0289-0.21351-1.8264-0.64051-2.3923-0.42187-0.5659-1.0161-0.84886-1.7826-0.84887-0.76142 0.00001-1.3556 0.28297-1.7826 0.84887-0.42186 0.56592-0.6328 1.3633-0.63279 2.3923-0.00001 1.0238 0.21093 1.8186 0.63279 2.3846 0.427 0.56591 1.0212 0.84887 1.7826 0.84887 0.76654 0 1.3608-0.28296 1.7826-0.84887 0.427-0.56591 0.6405-1.3608 0.64051-2.3846m1.4199 3.3492c-0.00001 1.4714-0.3267 2.5646-0.98006 3.2797-0.65338 0.72025-1.654 1.0804-3.0019 1.0804-0.49904 0-0.96977-0.0386-1.4122-0.11575-0.44244-0.072-0.87202-0.18521-1.2887-0.33955v-1.3813c0.41672 0.22636 0.82829 0.39356 1.2347 0.5016 0.40643 0.10804 0.82057 0.16206 1.2424 0.16206 0.93118 0 1.6283-0.24437 2.0913-0.73311 0.46301-0.4836 0.69452-1.2167 0.69453-2.1994v-0.70224c-0.29325 0.50932-0.66881 0.89002-1.1267 1.1421-0.45788 0.25209-1.0058 0.37813-1.6437 0.37813-1.0598 0-1.9138-0.40385-2.562-1.2116-0.64823-0.80771-0.97234-1.8778-0.97234-3.2103 0-1.3376 0.32411-2.4103 0.97234-3.218 0.64822-0.8077 1.5022-1.2116 2.562-1.2116 0.63793 0.00001 1.1858 0.12606 1.6437 0.37814 0.45787 0.25209 0.83343 0.6328 1.1267 1.1421v-1.3119h1.4199v7.5704"/>
  <path id="path3124" style="" d="m262.06 283.86v0.69453h-6.5286c0.0617 0.97749 0.35498 1.7235 0.87974 2.2379 0.5299 0.50933 1.2656 0.76399 2.2071 0.76399 0.54533 0 1.0726-0.0669 1.582-0.20065 0.51446-0.13376 1.0238-0.3344 1.528-0.60192v1.3428c-0.50933 0.21607-1.0315 0.3807-1.5666 0.49388-0.53505 0.11319-1.0778 0.16978-1.6283 0.16978-1.3788 0-2.472-0.40129-3.2797-1.2038-0.80257-0.80257-1.2038-1.8881-1.2038-3.2566 0-1.4148 0.3807-2.5363 1.1421-3.3646 0.76656-0.83343 1.7981-1.2502 3.0945-1.2502 1.1627 0.00001 2.081 0.37557 2.755 1.1267 0.67909 0.74598 1.0186 1.762 1.0186 3.0482m-1.4199-0.41672c-0.0103-0.77684-0.22894-1.3968-0.65594-1.8598-0.42187-0.46301-0.98264-0.69452-1.6823-0.69452-0.79228 0-1.4276 0.2238-1.9061 0.67137-0.47332 0.4476-0.74598 1.0778-0.81801 1.8907l5.0624-0.008m-1.3659-7.5472h1.5357l-2.5157 2.9016h-1.1807l2.1608-2.9016"/>
  <path id="path3126" style="" d="m265.76 287.24v4.5839h-1.4276v-11.93h1.4276v1.3119c0.29839-0.51446 0.67395-0.89516 1.1267-1.1421 0.45787-0.25208 1.0032-0.37813 1.636-0.37814 1.0495 0.00001 1.901 0.41673 2.5543 1.2502 0.65851 0.83344 0.98776 1.9292 0.98777 3.2874-0.00001 1.3582-0.32926 2.454-0.98777 3.2874-0.65338 0.83344-1.5048 1.2502-2.5543 1.2502-0.63279 0-1.1781-0.12347-1.636-0.37042-0.45273-0.25209-0.82829-0.63536-1.1267-1.1498m4.8308-3.0173c-0.00001-1.0444-0.21608-1.8624-0.64823-2.454-0.42701-0.59677-1.0161-0.89516-1.7672-0.89517-0.75113 0.00001-1.3428 0.2984-1.7749 0.89517-0.42701 0.59164-0.64051 1.4096-0.64051 2.454s0.2135 1.8649 0.64051 2.4617c0.43215 0.59163 1.0238 0.88745 1.7749 0.88745 0.75111 0 1.3402-0.29582 1.7672-0.88745 0.43215-0.59678 0.64822-1.4174 0.64823-2.4617"/>
  <path id="path3128" style="" d="m281.82 283.86v0.69453h-6.5286c0.0617 0.97749 0.35498 1.7235 0.87974 2.2379 0.5299 0.50933 1.2656 0.76399 2.2071 0.76399 0.54533 0 1.0727-0.0669 1.582-0.20065 0.51446-0.13376 1.0238-0.3344 1.528-0.60192v1.3428c-0.50933 0.21607-1.0315 0.3807-1.5666 0.49388-0.53505 0.11319-1.0778 0.16978-1.6283 0.16978-1.3788 0-2.472-0.40129-3.2797-1.2038-0.80257-0.80257-1.2038-1.8881-1.2038-3.2566 0-1.4148 0.3807-2.5363 1.1421-3.3646 0.76655-0.83343 1.798-1.2502 3.0945-1.2502 1.1627 0.00001 2.081 0.37557 2.755 1.1267 0.67908 0.74598 1.0186 1.762 1.0186 3.0482m-1.4199-0.41672c-0.0103-0.77684-0.22894-1.3968-0.65594-1.8598-0.42187-0.46301-0.98264-0.69452-1.6823-0.69452-0.79228 0-1.4276 0.2238-1.9061 0.67137-0.47332 0.4476-0.74598 1.0778-0.81801 1.8907l5.0624-0.008"/>
  <path id="path3130" style="" d="m289.83 281.21v-4.6765h1.4199v12.008h-1.4199v-1.2964c-0.2984 0.51447-0.67653 0.89774-1.1344 1.1498-0.45273 0.24695-0.99807 0.37042-1.636 0.37042-1.0444 0-1.8958-0.41672-2.5543-1.2502-0.65338-0.83343-0.98006-1.9292-0.98006-3.2874s0.32668-2.454 0.98006-3.2874c0.65851-0.83343 1.51-1.2502 2.5543-1.2502 0.63793 0.00001 1.1833 0.12606 1.636 0.37814 0.45787 0.24695 0.836 0.62765 1.1344 1.1421m-4.8386 3.0174c-0.00001 1.0444 0.2135 1.8649 0.64051 2.4617 0.43215 0.59163 1.0238 0.88745 1.7749 0.88745 0.75111 0 1.3428-0.29582 1.7749-0.88745 0.43215-0.59678 0.64822-1.4174 0.64823-2.4617-0.00001-1.0444-0.21608-1.8624-0.64823-2.454-0.43215-0.59677-1.0238-0.89516-1.7749-0.89517-0.75113 0.00001-1.3428 0.2984-1.7749 0.89517-0.42701 0.59164-0.64052 1.4096-0.64051 2.454"/>
  <path id="path3132" style="" d="m224.22 306.98h2.5466v-8.7897l-2.7704 0.55563v-1.4199l2.755-0.55562h1.5588v10.21h2.5466v1.3119h-6.6366v-1.3119"/>
  <path id="path3134" style="" d="m234.06 308.05v-1.4199c0.39099 0.18521 0.78713 0.32669 1.1884 0.42444 0.40128 0.0977 0.79484 0.14662 1.1807 0.14662 1.0289 0 1.8135-0.34469 2.3537-1.0341 0.54532-0.69452 0.85658-1.7466 0.93375-3.1562-0.29839 0.44245-0.67653 0.782-1.1344 1.0186-0.45788 0.23665-0.96463 0.35498-1.5202 0.35498-1.1524 0-2.0656-0.34726-2.7395-1.0418-0.66881-0.69966-1.0032-1.654-1.0032-2.863 0-1.1833 0.34983-2.1324 1.0495-2.8476 0.69967-0.7151 1.6308-1.0726 2.7936-1.0727 1.3325 0.00001 2.3485 0.5119 3.0482 1.5357 0.70481 1.0186 1.0572 2.5003 1.0572 4.445-0.00001 1.8161-0.43216 3.2669-1.2965 4.3524-0.85916 1.0804-2.0167 1.6206-3.4726 1.6206-0.391 0-0.78714-0.0386-1.1884-0.11576-0.40129-0.0772-0.818-0.19292-1.2502-0.34726m3.1022-4.8849c0.69967 0.00001 1.2527-0.23922 1.6592-0.71768 0.41157-0.47844 0.61735-1.1344 0.61736-1.9678-0.00001-0.82828-0.20579-1.4816-0.61736-1.9601-0.40643-0.48358-0.95948-0.72538-1.6592-0.72539-0.69968 0.00001-1.2553 0.24181-1.6669 0.72539-0.40643 0.47847-0.60965 1.1318-0.60964 1.9601-0.00001 0.83344 0.20321 1.4894 0.60964 1.9678 0.41157 0.47846 0.96719 0.71769 1.6669 0.71768"/>
  <path id="path3136" style="" d="m245.42 306.98h5.4405v1.3119h-7.3157v-1.3119c0.59164-0.61222 1.3968-1.4328 2.4154-2.4617 1.0238-1.0341 1.6669-1.7003 1.9292-1.9987 0.49902-0.56077 0.84629-1.0341 1.0418-1.4199 0.20064-0.39099 0.30096-0.77426 0.30096-1.1498 0-0.61221-0.21608-1.1112-0.64822-1.4971-0.42702-0.38584-0.98521-0.57876-1.6746-0.57877-0.48875 0.00001-1.0058 0.0849-1.5511 0.25466-0.54019 0.16978-1.119 0.42701-1.7363 0.7717v-1.5743c0.62765-0.25208 1.2141-0.44243 1.7595-0.57106 0.54533-0.1286 1.0444-0.19291 1.4971-0.19292 1.1936 0.00001 2.1453 0.2984 2.8553 0.89517 0.70995 0.59679 1.0649 1.3942 1.0649 2.3923 0 0.47331-0.09 0.92347-0.27009 1.3505-0.17493 0.42187-0.49647 0.9209-0.96462 1.4971-0.12863 0.1492-0.53763 0.58135-1.227 1.2964-0.68939 0.70997-1.6617 1.7055-2.917 2.9865"/>
  <path id="path3138" style="" d="m254.14 306.33h1.6283v1.9601h-1.6283v-1.9601"/>
  <path id="path3140" style="" d="m262.51 297.8c-0.80257 0.00001-1.4071 0.39615-1.8135 1.1884-0.40129 0.78715-0.60193 1.973-0.60193 3.5575 0 1.5794 0.20064 2.7653 0.60193 3.5575 0.40642 0.78713 1.0109 1.1807 1.8135 1.1807 0.80771 0 1.4122-0.39357 1.8135-1.1807 0.40643-0.79227 0.60964-1.9781 0.60965-3.5575-0.00001-1.5846-0.20322-2.7704-0.60965-3.5575-0.40129-0.79226-1.0058-1.1884-1.8135-1.1884m0-1.2347c1.2913 0.00001 2.2765 0.5119 2.9556 1.5357 0.68423 1.0186 1.0264 2.5003 1.0264 4.445-0.00001 1.9395-0.34213 3.4212-1.0264 4.445-0.6791 1.0186-1.6643 1.528-2.9556 1.528s-2.2791-0.50932-2.9633-1.528c-0.6791-1.0238-1.0186-2.5054-1.0186-4.445 0-1.9447 0.33955-3.4263 1.0186-4.445 0.68423-1.0238 1.672-1.5357 2.9633-1.5357"/>
  <path id="path3142" style="" d="m269.24 306.33h1.6283v1.9601h-1.6283v-1.9601"/>
  <path id="path3144" style="" d="m275.61 306.98h5.4405v1.3119h-7.3157v-1.3119c0.59164-0.61222 1.3968-1.4328 2.4154-2.4617 1.0238-1.0341 1.6669-1.7003 1.9292-1.9987 0.49903-0.56077 0.84629-1.0341 1.0418-1.4199 0.20063-0.39099 0.30095-0.77426 0.30096-1.1498-0.00001-0.61221-0.21608-1.1112-0.64823-1.4971-0.42701-0.38584-0.98521-0.57876-1.6746-0.57877-0.48874 0.00001-1.0058 0.0849-1.5511 0.25466-0.54019 0.16978-1.119 0.42701-1.7363 0.7717v-1.5743c0.62765-0.25208 1.2141-0.44243 1.7595-0.57106 0.54533-0.1286 1.0444-0.19291 1.4971-0.19292 1.1936 0.00001 2.1453 0.2984 2.8553 0.89517 0.70996 0.59679 1.0649 1.3942 1.065 2.3923-0.00001 0.47331-0.09 0.92347-0.2701 1.3505-0.17492 0.42187-0.49646 0.9209-0.96462 1.4971-0.12862 0.1492-0.53762 0.58135-1.227 1.2964-0.68939 0.70997-1.6617 1.7055-2.917 2.9865"/>
  <path id="path3146" style="" d="m284.33 306.33h1.6283v1.9601h-1.6283v-1.9601"/>
  <path id="path3148" style="" d="m289.63 306.98h2.5466v-8.7897l-2.7704 0.55563v-1.4199l2.755-0.55562h1.5588v10.21h2.5466v1.3119h-6.6366v-1.3119"/>
 </g>
 <g id="text50">
  <path id="path3151" style="" d="m474.34 279.89h1.4199v8.643h-1.4199v-8.643m0-3.3646h1.4199v1.7981h-1.4199v-1.7981"/>
  <path id="path3153" style="" d="m485.9 283.32v5.2167h-1.4199v-5.1704c-0.00001-0.818-0.15949-1.4302-0.47846-1.8366-0.31897-0.40643-0.79743-0.60964-1.4354-0.60965-0.76656 0.00001-1.371 0.24438-1.8135 0.73312-0.44244 0.48875-0.66366 1.155-0.66366 1.9987v4.8848h-1.4276v-8.643h1.4276v1.3428c0.33954-0.5196 0.73825-0.90802 1.1961-1.1653 0.46302-0.25722 0.99549-0.38584 1.5974-0.38585 0.99291 0.00001 1.744 0.30869 2.2534 0.92604 0.50931 0.61223 0.76397 1.5151 0.76398 2.7087"/>
  <path id="path3155" style="" d="m493.13 276.53v1.1807h-1.3582c-0.50933 0.00002-0.86431 0.10291-1.065 0.30868-0.1955 0.2058-0.29325 0.57622-0.29324 1.1112v0.76398h2.3382v1.1035h-2.3382v7.5395h-1.4276v-7.5395h-1.3582v-1.1035h1.3582v-0.60192c0-0.96204 0.22379-1.6617 0.67138-2.099 0.44758-0.44243 1.1576-0.66365 2.1299-0.66367h1.3428"/>
  <path id="path3157" style="" d="m497.66 280.89c-0.76141 0-1.3633 0.29839-1.8058 0.89517-0.44245 0.59164-0.66367 1.4045-0.66366 2.4386-0.00001 1.0341 0.21864 1.8495 0.65594 2.4463 0.44244 0.59164 1.0469 0.88746 1.8135 0.88746 0.75626 0 1.3556-0.29839 1.7981-0.89517 0.44244-0.59678 0.66366-1.4096 0.66366-2.4386 0-1.0238-0.22122-1.8341-0.66366-2.4309-0.44244-0.60191-1.0418-0.90288-1.7981-0.90288m0-1.2039c1.2347 0.00001 2.2045 0.4013 2.9093 1.2039 0.70481 0.80257 1.0572 1.9138 1.0572 3.3337-0.00001 1.4148-0.35242 2.526-1.0572 3.3337-0.70483 0.80256-1.6746 1.2038-2.9093 1.2038-1.2399 0-2.2122-0.40129-2.917-1.2038-0.69968-0.80771-1.0495-1.919-1.0495-3.3337 0-1.4199 0.34983-2.5312 1.0495-3.3337 0.70482-0.80256 1.6772-1.2038 2.917-1.2039"/>
  <path id="path3159" style="" d="m510.19 280.23v1.3273c-0.40129-0.22122-0.80515-0.38585-1.2116-0.49389-0.40129-0.11318-0.80772-0.16977-1.2193-0.16977-0.9209 0-1.636 0.29325-2.1453 0.87973-0.50932 0.58136-0.76398 1.3994-0.76398 2.454s0.25466 1.8752 0.76398 2.4617c0.50932 0.58134 1.2244 0.87202 2.1453 0.87202 0.41156 0 0.81799-0.054 1.2193-0.16206 0.40642-0.11318 0.81028-0.28038 1.2116-0.5016v1.3119c-0.39615 0.18521-0.80772 0.32412-1.2347 0.41672-0.42187 0.0926-0.87203 0.13891-1.3505 0.13891-1.3016 0-2.3357-0.409-3.1022-1.227-0.76656-0.818-1.1498-1.9215-1.1498-3.3106 0-1.4096 0.38585-2.5183 1.1576-3.326 0.77684-0.8077 1.8392-1.2116 3.1871-1.2116 0.43729 0.00001 0.8643 0.0463 1.281 0.13891 0.41671 0.0875 0.82057 0.22123 1.2116 0.40128"/>
  <path id="path3161" style="" d="m512.87 286.58h1.6283v1.9601h-1.6283v-1.9601"/>
  <path id="path3163" style="" d="m525.1 283.86v0.69453h-6.5286c0.0617 0.97749 0.35498 1.7235 0.87974 2.2379 0.52989 0.50933 1.2656 0.76399 2.2071 0.76399 0.54533 0 1.0726-0.0669 1.582-0.20065 0.51446-0.13376 1.0238-0.3344 1.528-0.60192v1.3428c-0.50933 0.21607-1.0315 0.3807-1.5666 0.49388-0.53506 0.11319-1.0778 0.16978-1.6283 0.16978-1.3788 0-2.472-0.40129-3.2797-1.2038-0.80257-0.80257-1.2038-1.8881-1.2038-3.2566 0-1.4148 0.3807-2.5363 1.1421-3.3646 0.76655-0.83343 1.7981-1.2502 3.0945-1.2502 1.1627 0.00001 2.081 0.37557 2.755 1.1267 0.67909 0.74598 1.0186 1.762 1.0186 3.0482m-1.4199-0.41672c-0.0103-0.77684-0.22895-1.3968-0.65595-1.8598-0.42186-0.46301-0.98263-0.69452-1.6823-0.69452-0.79228 0-1.4276 0.2238-1.9061 0.67137-0.47331 0.4476-0.74598 1.0778-0.818 1.8907l5.0624-0.008"/>
  <path id="path3165" style="" d="m534.82 283.86v0.69453h-6.5286c0.0617 0.97749 0.35498 1.7235 0.87974 2.2379 0.5299 0.50933 1.2656 0.76399 2.2071 0.76399 0.54533 0 1.0726-0.0669 1.582-0.20065 0.51446-0.13376 1.0238-0.3344 1.528-0.60192v1.3428c-0.50933 0.21607-1.0315 0.3807-1.5666 0.49388-0.53505 0.11319-1.0778 0.16978-1.6283 0.16978-1.3788 0-2.472-0.40129-3.2797-1.2038-0.80257-0.80257-1.2038-1.8881-1.2038-3.2566 0-1.4148 0.3807-2.5363 1.1421-3.3646 0.76656-0.83343 1.7981-1.2502 3.0945-1.2502 1.1627 0.00001 2.081 0.37557 2.755 1.1267 0.67909 0.74598 1.0186 1.762 1.0186 3.0482m-1.4199-0.41672c-0.0103-0.77684-0.22894-1.3968-0.65594-1.8598-0.42187-0.46301-0.98264-0.69452-1.6823-0.69452-0.79228 0-1.4276 0.2238-1.9061 0.67137-0.47331 0.4476-0.74597 1.0778-0.818 1.8907l5.0624-0.008"/>
  <path id="path3167" style="" d="m538.56 277.44v2.454h2.9247v1.1035h-2.9247v4.6919c0 0.70483 0.0952 1.1576 0.28553 1.3582 0.1955 0.20064 0.58906 0.30096 1.1807 0.30096h1.4585v1.1884h-1.4585c-1.0958 0-1.8521-0.20321-2.2688-0.60964-0.41672-0.41157-0.62508-1.1575-0.62508-2.2379v-4.6919h-1.0418v-1.1035h1.0418v-2.454h1.4276"/>
  <path id="path3169" style="" d="m543.56 286.58h1.6283v1.9601h-1.6283v-1.9601"/>
  <path id="path3171" style="" d="m554.59 284.22c0-1.0444-0.21608-1.8624-0.64822-2.454-0.42702-0.59677-1.0161-0.89516-1.7672-0.89517-0.75113 0.00001-1.3428 0.2984-1.7749 0.89517-0.42701 0.59164-0.64052 1.4096-0.64051 2.454-0.00001 1.0444 0.2135 1.8649 0.64051 2.4617 0.43215 0.59163 1.0238 0.88745 1.7749 0.88745 0.75111 0 1.3402-0.29582 1.7672-0.88745 0.43214-0.59678 0.64822-1.4174 0.64822-2.4617m-4.8308-3.0174c0.29838-0.51446 0.67394-0.89516 1.1267-1.1421 0.45787-0.25208 1.0032-0.37813 1.636-0.37814 1.0495 0.00001 1.901 0.41673 2.5543 1.2502 0.6585 0.83344 0.98776 1.9292 0.98777 3.2874-0.00001 1.3582-0.32927 2.454-0.98777 3.2874-0.65338 0.83344-1.5048 1.2502-2.5543 1.2502-0.6328 0-1.1781-0.12347-1.636-0.37042-0.45274-0.25209-0.8283-0.63536-1.1267-1.1498v1.2964h-1.4276v-12.008h1.4276v4.6765"/>
  <path id="path3173" style="" d="m565.15 281.55c0.35497-0.63793 0.77941-1.1087 1.2733-1.4122 0.49388-0.30353 1.0752-0.4553 1.744-0.45531 0.90031 0.00001 1.5948 0.31641 2.0836 0.94919 0.48873 0.62766 0.7331 1.5228 0.73312 2.6855v5.2167h-1.4276v-5.1704c-0.00001-0.82828-0.14663-1.4431-0.43987-1.8444-0.29325-0.40128-0.74084-0.60192-1.3428-0.60193-0.7357 0.00001-1.317 0.24438-1.744 0.73312-0.42702 0.48875-0.64052 1.155-0.64051 1.9987v4.8848h-1.4276v-5.1704c0-0.83343-0.14663-1.4482-0.43987-1.8444-0.29325-0.40128-0.74598-0.60192-1.3582-0.60193-0.7254 0.00001-1.3016 0.24695-1.7286 0.74083-0.42701 0.48875-0.64052 1.1524-0.64051 1.991v4.8848h-1.4276v-8.643h1.4276v1.3428c0.32411-0.52989 0.71253-0.92089 1.1653-1.173 0.45273-0.25208 0.99035-0.37813 1.6128-0.37814 0.62765 0.00001 1.1601 0.1595 1.5974 0.47846 0.44243 0.31898 0.76912 0.78199 0.98006 1.3891"/>
  <path id="path3175" style="" d="m581.22 283.86v0.69453h-6.5286c0.0617 0.97749 0.35498 1.7235 0.87974 2.2379 0.52989 0.50933 1.2656 0.76399 2.2071 0.76399 0.54532 0 1.0726-0.0669 1.582-0.20065 0.51446-0.13376 1.0238-0.3344 1.528-0.60192v1.3428c-0.50932 0.21607-1.0315 0.3807-1.5665 0.49388-0.53506 0.11319-1.0778 0.16978-1.6283 0.16978-1.3788 0-2.472-0.40129-3.2797-1.2038-0.80257-0.80257-1.2038-1.8881-1.2038-3.2566 0-1.4148 0.3807-2.5363 1.1421-3.3646 0.76655-0.83343 1.7981-1.2502 3.0945-1.2502 1.1627 0.00001 2.081 0.37557 2.755 1.1267 0.67909 0.74598 1.0186 1.762 1.0186 3.0482m-1.4199-0.41672c-0.0103-0.77684-0.22895-1.3968-0.65595-1.8598-0.42186-0.46301-0.98263-0.69452-1.6823-0.69452-0.79228 0-1.4276 0.2238-1.9061 0.67137-0.47331 0.4476-0.74598 1.0778-0.818 1.8907l5.0624-0.008"/>
  <path id="path3177" style="" d="m583.75 286.58h1.6283v1.9601h-1.6283v-1.9601"/>
  <path id="path3179" style="" d="m595.76 283.32v5.2167h-1.4199v-5.1704c-0.00001-0.818-0.15949-1.4302-0.47845-1.8366-0.31898-0.40643-0.79743-0.60964-1.4354-0.60965-0.76656 0.00001-1.3711 0.24438-1.8135 0.73312-0.44244 0.48875-0.66366 1.155-0.66366 1.9987v4.8848h-1.4276v-12.008h1.4276v4.7074c0.33955-0.5196 0.73826-0.90802 1.1961-1.1653 0.46301-0.25722 0.99548-0.38584 1.5974-0.38585 0.99292 0.00001 1.744 0.30869 2.2534 0.92604 0.50932 0.61223 0.76398 1.5151 0.76399 2.7087"/>
  <path id="path3181" style="" d="m598.46 285.13v-5.2321h1.4199v5.1781c0 0.818 0.15948 1.4328 0.47845 1.8444 0.31897 0.40643 0.79742 0.60964 1.4354 0.60964 0.76655 0 1.371-0.24437 1.8135-0.73312 0.44758-0.48874 0.67137-1.155 0.67138-1.9987v-4.9003h1.4199v8.643h-1.4199v-1.3273c-0.3447 0.52476-0.74599 0.91575-1.2039 1.173-0.45273 0.25209-0.98006 0.37814-1.582 0.37814-0.99292 0-1.7466-0.30868-2.2611-0.92604-0.51447-0.61736-0.7717-1.5202-0.7717-2.7087m3.573-5.4405"/>
  <path id="path3183" style="" d="m489.13 306.98h2.5466v-8.7897l-2.7704 0.55563v-1.4199l2.755-0.55562h1.5588v10.21h2.5466v1.3119h-6.6366v-1.3119"/>
  <path id="path3185" style="" d="m498.94 296.77h6.1196v1.3119h-4.6919v2.8244c0.22636-0.0772 0.45272-0.13375 0.67909-0.16977 0.22636-0.0412 0.45273-0.0617 0.6791-0.0617 1.2862 0.00001 2.3048 0.35242 3.0559 1.0572 0.75111 0.70483 1.1267 1.6592 1.1267 2.863-0.00001 1.2399-0.38586 2.2045-1.1576 2.8939-0.77171 0.68424-1.8598 1.0264-3.2643 1.0264-0.4836 0-0.97749-0.0412-1.4817-0.12347-0.49904-0.0823-1.0161-0.20579-1.5511-0.37042v-1.5666c0.46302 0.25209 0.94147 0.43987 1.4354 0.56334 0.49389 0.12348 1.0161 0.18521 1.5666 0.18521 0.89002 0 1.5948-0.23408 2.1145-0.70225 0.5196-0.46816 0.77941-1.1035 0.77941-1.9061 0-0.80257-0.25981-1.4379-0.77941-1.9061-0.51962-0.46816-1.2244-0.70224-2.1145-0.70225-0.41672 0.00001-0.83344 0.0463-1.2502 0.13891-0.41158 0.0926-0.83344 0.23666-1.2656 0.43215v-5.7877"/>
  <path id="path3187" style="" d="m510.33 306.98h5.4405v1.3119h-7.3157v-1.3119c0.59164-0.61222 1.3968-1.4328 2.4154-2.4617 1.0238-1.0341 1.6669-1.7003 1.9292-1.9987 0.49903-0.56077 0.84629-1.0341 1.0418-1.4199 0.20063-0.39099 0.30095-0.77426 0.30096-1.1498-0.00001-0.61221-0.21608-1.1112-0.64823-1.4971-0.42701-0.38584-0.98521-0.57876-1.6746-0.57877-0.48874 0.00001-1.0058 0.0849-1.5511 0.25466-0.54019 0.16978-1.119 0.42701-1.7363 0.7717v-1.5743c0.62765-0.25208 1.2141-0.44243 1.7595-0.57106 0.54533-0.1286 1.0444-0.19291 1.4971-0.19292 1.1936 0.00001 2.1453 0.2984 2.8553 0.89517 0.70996 0.59679 1.0649 1.3942 1.065 2.3923-0.00001 0.47331-0.09 0.92347-0.2701 1.3505-0.17492 0.42187-0.49646 0.9209-0.96462 1.4971-0.12863 0.1492-0.53763 0.58135-1.227 1.2964-0.68939 0.70997-1.6617 1.7055-2.917 2.9865"/>
  <path id="path3189" style="" d="m519.05 306.33h1.6283v1.9601h-1.6283v-1.9601"/>
  <path id="path3191" style="" d="m527.61 301.91c-0.69968 0.00001-1.2553 0.23924-1.6669 0.71768-0.40643 0.47846-0.60965 1.1344-0.60964 1.9678-0.00001 0.82829 0.20321 1.4842 0.60964 1.9678 0.41157 0.47845 0.96719 0.71768 1.6669 0.71768 0.69967 0 1.2527-0.23923 1.6592-0.71768 0.41157-0.4836 0.61735-1.1395 0.61736-1.9678-0.00001-0.83343-0.20579-1.4894-0.61736-1.9678-0.40643-0.47844-0.95948-0.71767-1.6592-0.71768m3.0945-4.8848v1.4199c-0.391-0.18519-0.78714-0.32667-1.1884-0.42443-0.39615-0.0977-0.78972-0.14661-1.1807-0.14662-1.0289 0.00001-1.8161 0.34727-2.3614 1.0418-0.5402 0.69454-0.84888 1.744-0.92604 3.1485 0.30353-0.44758 0.68423-0.7897 1.1421-1.0264 0.45787-0.24179 0.96205-0.36269 1.5125-0.3627 1.1576 0.00001 2.0707 0.35242 2.7395 1.0572 0.67394 0.69968 1.0109 1.654 1.0109 2.863-0.00001 1.1833-0.34984 2.1325-1.0495 2.8476-0.69968 0.71511-1.6309 1.0727-2.7936 1.0727-1.3325 0-2.3511-0.50932-3.0559-1.528-0.70482-1.0238-1.0572-2.5054-1.0572-4.445 0-1.8212 0.43215-3.272 1.2965-4.3524 0.8643-1.0855 2.0244-1.6283 3.4804-1.6283 0.39099 0.00001 0.78455 0.0386 1.1807 0.11575 0.40128 0.0772 0.81799 0.19294 1.2502 0.34727"/>
  <path id="path3193" style="" d="m537.67 301.91c-0.69968 0.00001-1.2553 0.23924-1.6669 0.71768-0.40643 0.47846-0.60965 1.1344-0.60965 1.9678 0 0.82829 0.20322 1.4842 0.60965 1.9678 0.41157 0.47845 0.96719 0.71768 1.6669 0.71768 0.69966 0 1.2527-0.23923 1.6592-0.71768 0.41157-0.4836 0.61735-1.1395 0.61736-1.9678-0.00001-0.83343-0.20579-1.4894-0.61736-1.9678-0.40643-0.47844-0.95949-0.71767-1.6592-0.71768m3.0945-4.8848v1.4199c-0.391-0.18519-0.78714-0.32667-1.1884-0.42443-0.39614-0.0977-0.78971-0.14661-1.1807-0.14662-1.0289 0.00001-1.8161 0.34727-2.3614 1.0418-0.54019 0.69454-0.84887 1.744-0.92603 3.1485 0.30353-0.44758 0.68423-0.7897 1.1421-1.0264 0.45787-0.24179 0.96205-0.36269 1.5125-0.3627 1.1575 0.00001 2.0707 0.35242 2.7395 1.0572 0.67394 0.69968 1.0109 1.654 1.0109 2.863-0.00001 1.1833-0.34985 2.1325-1.0495 2.8476-0.69968 0.71511-1.6309 1.0727-2.7936 1.0727-1.3325 0-2.3511-0.50932-3.0559-1.528-0.70482-1.0238-1.0572-2.5054-1.0572-4.445 0-1.8212 0.43215-3.272 1.2964-4.3524 0.8643-1.0855 2.0244-1.6283 3.4804-1.6283 0.39099 0.00001 0.78455 0.0386 1.1807 0.11575 0.40127 0.0772 0.81799 0.19294 1.2502 0.34727"/>
  <path id="path3195" style="" d="m544.21 306.33h1.6283v1.9601h-1.6283v-1.9601"/>
  <path id="path3197" style="" d="m548.84 296.77h7.4083v0.66366l-4.1826 10.858h-1.6283l3.9357-10.21h-5.5331v-1.3119"/>
  <path id="path3199" style="" d="m560.64 306.98h5.4405v1.3119h-7.3157v-1.3119c0.59164-0.61222 1.3968-1.4328 2.4154-2.4617 1.0238-1.0341 1.6669-1.7003 1.9292-1.9987 0.49903-0.56077 0.84629-1.0341 1.0418-1.4199 0.20064-0.39099 0.30096-0.77426 0.30097-1.1498-0.00001-0.61221-0.21609-1.1112-0.64823-1.4971-0.42701-0.38584-0.98521-0.57876-1.6746-0.57877-0.48874 0.00001-1.0058 0.0849-1.5511 0.25466-0.5402 0.16978-1.119 0.42701-1.7363 0.7717v-1.5743c0.62765-0.25208 1.2141-0.44243 1.7595-0.57106 0.54533-0.1286 1.0444-0.19291 1.4971-0.19292 1.1936 0.00001 2.1453 0.2984 2.8553 0.89517 0.70996 0.59679 1.0649 1.3942 1.065 2.3923-0.00001 0.47331-0.09 0.92347-0.2701 1.3505-0.17493 0.42187-0.49647 0.9209-0.96462 1.4971-0.12863 0.1492-0.53763 0.58135-1.227 1.2964-0.68939 0.70997-1.6617 1.7055-2.917 2.9865"/>
  <path id="path3201" style="" d="m569.36 306.33h1.6283v1.9601h-1.6283v-1.9601"/>
  <path id="path3203" style="" d="m579.12 302.08c0.74597 0.15949 1.3273 0.49132 1.744 0.99549 0.42186 0.50418 0.63279 1.1267 0.6328 1.8675-0.00001 1.137-0.39101 2.0167-1.173 2.6392-0.78199 0.62251-1.8932 0.93376-3.3337 0.93376-0.4836 0-0.98263-0.0489-1.4971-0.14662-0.50933-0.0926-1.0367-0.23409-1.582-0.42444v-1.5048c0.43215 0.25209 0.90546 0.44244 1.4199 0.57106 0.51446 0.12861 1.0521 0.19292 1.6128 0.19292 0.97748 0 1.7209-0.19292 2.2302-0.57877 0.51446-0.38585 0.77169-0.94662 0.7717-1.6823-0.00001-0.67909-0.23923-1.209-0.71768-1.5897-0.47332-0.38584-1.1344-0.57877-1.9833-0.57877h-1.3428v-1.281h1.4045c0.76655 0 1.353-0.15176 1.7595-0.45531 0.40642-0.30867 0.60964-0.75111 0.60965-1.3273-0.00001-0.59163-0.21094-1.0444-0.6328-1.3582-0.41672-0.31896-1.0161-0.47844-1.7981-0.47845-0.42701 0.00001-0.88488 0.0463-1.3736 0.1389-0.48875 0.0926-1.0264 0.23667-1.6128 0.43215v-1.389c0.59163-0.16462 1.1447-0.28809 1.6592-0.37042 0.51961-0.0823 1.0084-0.12346 1.4662-0.12347 1.1833 0.00001 2.1196 0.2701 2.809 0.81028 0.68938 0.53506 1.0341 1.2604 1.0341 2.1762-0.00001 0.63795-0.18264 1.1781-0.54791 1.6206-0.36527 0.43731-0.88488 0.74084-1.5588 0.91061"/>
  <path id="path3205" style="" d="m587.79 302.82c-0.74083 0-1.3248 0.19807-1.7518 0.59421-0.42186 0.39614-0.63279 0.94147-0.63279 1.636s0.21093 1.2399 0.63279 1.636c0.42701 0.39614 1.0109 0.59421 1.7518 0.59421 0.74083 0 1.3247-0.19807 1.7518-0.59421 0.427-0.40128 0.6405-0.94661 0.64051-1.636-0.00001-0.69453-0.21351-1.2399-0.64051-1.636-0.42187-0.39614-1.0058-0.59421-1.7518-0.59421m-1.5588-0.66366c-0.66881-0.16463-1.191-0.47588-1.5666-0.93376-0.37042-0.45787-0.55563-1.0161-0.55562-1.6746-0.00001-0.92088 0.32668-1.6488 0.98005-2.1839 0.65852-0.53503 1.5588-0.80255 2.701-0.80256 1.1472 0.00001 2.0476 0.26753 2.701 0.80256 0.65336 0.53506 0.98005 1.263 0.98006 2.1839-0.00001 0.65853-0.18779 1.2167-0.56334 1.6746-0.37043 0.45788-0.88747 0.76913-1.5511 0.93376 0.75111 0.17492 1.335 0.51704 1.7518 1.0264 0.42185 0.50932 0.63278 1.1318 0.63279 1.8675-0.00001 1.1164-0.34213 1.973-1.0264 2.5698-0.6791 0.59678-1.654 0.89517-2.9247 0.89517s-2.2482-0.29839-2.9325-0.89517c-0.67909-0.59678-1.0186-1.4534-1.0186-2.5698 0-0.73568 0.21093-1.3582 0.63279-1.8675 0.42186-0.50932 1.0084-0.85144 1.7595-1.0264m-0.57106-2.4617c0 0.59679 0.18521 1.0624 0.55562 1.3968 0.37556 0.33441 0.90032 0.50161 1.5743 0.50161 0.6688 0 1.191-0.1672 1.5666-0.50161 0.3807-0.33439 0.57105-0.79998 0.57106-1.3968-0.00001-0.59677-0.19036-1.0624-0.57106-1.3968-0.37557-0.33439-0.89775-0.50159-1.5666-0.5016-0.67395 0.00001-1.1987 0.16721-1.5743 0.5016-0.37041 0.33441-0.55562 0.80001-0.55562 1.3968"/>
 </g>
 <g id="g56" stroke="#000" stroke-width="2" fill="none" transform="translate(0 -6.1632)">
  <path id="line58" d="m320 80v155.53"/>
  <path id="polyline60" d="m315 227.76 5 10 5-10"/>
 </g>
 <g id="g62" transform="translate(0 -6.1632)">
  <path id="rect64" fill="#fff" d="m460 100h160v40h-160z"/>
  <path id="rect66" d="m460 100h160v40h-160z" stroke="#000" stroke-width="2" fill="none"/>
 </g>
 <g id="g68" transform="translate(0 -6.1632)">
  <path id="rect70" fill="#fff" d="m460 140h160v40h-160z"/>
  <path id="rect72" d="m460 140h160v40h-160z" stroke="#000" stroke-width="2" fill="none"/>
 </g>
 <g id="g74" transform="translate(0 -6.1632)">
  <path id="rect76" fill="#fff" d="m460 180h160v40h-160z"/>
  <path id="rect78" d="m460 180h160v40h-160z" stroke="#000" stroke-width="2" fill="none"/>
 </g>
 <g id="g80" transform="translate(0 -6.1632)">
  <path id="rect82" fill="#fff" d="m460 220h160v40h-160z"/>
  <path id="rect84" d="m460 220h160v40h-160z" stroke="#000" stroke-width="2" fill="none"/>
 </g>
 <g id="text86">
  <path id="path3218" style="" d="m500.66 109.33-2.1144 5.7337h4.2366l-2.1222-5.7337m-0.87973-1.5357h1.7672l4.391 11.521h-1.6206l-1.0495-2.9556h-5.1935l-1.0495 2.9556h-1.6437l4.3987-11.521"/>
  <path id="path3220" style="" d="m507.55 107.3h1.4199v12.008h-1.4199v-12.008"/>
  <path id="path3222" style="" d="m511.88 107.3h1.4276v7.0919l4.2366-3.7273h1.8135l-4.5839 4.0437 4.7768 4.5993h-1.8521l-4.391-4.2212v4.2212h-1.4276v-12.008"/>
  <path id="path3224" style="" d="m524.75 114.97c-1.1473 0-1.9421 0.13119-2.3846 0.39357-0.44244 0.26238-0.66366 0.70996-0.66366 1.3428 0 0.50418 0.16463 0.90546 0.49389 1.2038 0.3344 0.29325 0.78713 0.43987 1.3582 0.43987 0.78713 0 1.4174-0.27781 1.8907-0.83343 0.47845-0.56077 0.71768-1.3042 0.71768-2.2302v-0.3164h-1.4122m2.8321-0.58649v4.9312h-1.4199v-1.3119c-0.32412 0.52475-0.72797 0.91318-1.2116 1.1653-0.48361 0.24695-1.0752 0.37042-1.7749 0.37042-0.88489 0-1.5897-0.24694-2.1145-0.74083-0.51961-0.49903-0.77942-1.1653-0.77942-1.9987 0-0.97234 0.32412-1.7054 0.97235-2.1994 0.65337-0.49388 1.6257-0.74082 2.917-0.74083h1.991v-0.1389c0-0.65337-0.21608-1.1576-0.64822-1.5125-0.42702-0.36012-1.0289-0.54019-1.8058-0.54019-0.49389 0-0.97492 0.0592-1.4431 0.17749-0.46816 0.11833-0.91832 0.29582-1.3505 0.53247v-1.3119c0.51961-0.20063 1.0238-0.34983 1.5125-0.44758 0.48874-0.10289 0.96462-0.15434 1.4276-0.15434 1.2502 0 2.1839 0.32412 2.8013 0.97234 0.61735 0.64823 0.92603 1.6309 0.92604 2.9479"/>
  <path id="path3226" style="" d="m530.52 107.3h1.4199v12.008h-1.4199v-12.008"/>
  <path id="path3228" style="" d="m541.63 112.33c0.35498-0.63793 0.77941-1.1087 1.2733-1.4122 0.49388-0.30353 1.0752-0.4553 1.744-0.4553 0.9003 0 1.5948 0.3164 2.0836 0.94919 0.48873 0.62765 0.7331 1.5228 0.73311 2.6855v5.2167h-1.4276v-5.1704c-0.00002-0.82828-0.14664-1.4431-0.43987-1.8444-0.29326-0.40128-0.74084-0.60192-1.3428-0.60193-0.7357 0.00001-1.317 0.24438-1.744 0.73312-0.42701 0.48875-0.64052 1.155-0.64051 1.9987v4.8849h-1.4276v-5.1704c-0.00001-0.83343-0.14663-1.4482-0.43987-1.8444-0.29325-0.40128-0.74598-0.60192-1.3582-0.60193-0.7254 0.00001-1.3016 0.24696-1.7286 0.74084-0.42701 0.48875-0.64051 1.1524-0.64051 1.991v4.8849h-1.4276v-8.643h1.4276v1.3428c0.32411-0.52989 0.71253-0.92088 1.1653-1.173 0.45272-0.25208 0.99034-0.37813 1.6128-0.37813 0.62764 0 1.1601 0.15949 1.5974 0.47845 0.44243 0.31898 0.76911 0.782 0.98005 1.3891"/>
  <path id="path3230" style="" d="m554.23 114.97c-1.1473 0-1.9421 0.13119-2.3846 0.39357-0.44244 0.26238-0.66366 0.70996-0.66366 1.3428 0 0.50418 0.16463 0.90546 0.49389 1.2038 0.3344 0.29325 0.78713 0.43987 1.3582 0.43987 0.78713 0 1.4174-0.27781 1.8907-0.83343 0.47845-0.56077 0.71768-1.3042 0.71768-2.2302v-0.3164h-1.4122m2.8321-0.58649v4.9312h-1.4199v-1.3119c-0.32412 0.52475-0.72797 0.91318-1.2116 1.1653-0.48361 0.24695-1.0752 0.37042-1.7749 0.37042-0.88489 0-1.5897-0.24694-2.1145-0.74083-0.51961-0.49903-0.77942-1.1653-0.77941-1.9987-0.00001-0.97234 0.32411-1.7054 0.97234-2.1994 0.65337-0.49388 1.6257-0.74082 2.917-0.74083h1.991v-0.1389c0-0.65337-0.21608-1.1576-0.64822-1.5125-0.42702-0.36012-1.0289-0.54019-1.8058-0.54019-0.49389 0-0.97492 0.0592-1.4431 0.17749-0.46816 0.11833-0.91832 0.29582-1.3505 0.53247v-1.3119c0.51961-0.20063 1.0238-0.34983 1.5125-0.44758 0.48874-0.10289 0.96462-0.15434 1.4276-0.15434 1.2502 0 2.1839 0.32412 2.8013 0.97234 0.61735 0.64823 0.92603 1.6309 0.92604 2.9479"/>
  <path id="path3232" style="" d="m559.38 110.67h6.7446v1.2965l-5.3402 6.2122h5.3402v1.1344h-6.9376v-1.2965l5.3402-6.2122h-5.1472v-1.1344"/>
  <path id="path3234" style="" d="m572.23 114.97c-1.1473 0-1.9421 0.13119-2.3846 0.39357-0.44244 0.26238-0.66366 0.70996-0.66366 1.3428 0 0.50418 0.16463 0.90546 0.49389 1.2038 0.3344 0.29325 0.78713 0.43987 1.3582 0.43987 0.78713 0 1.4174-0.27781 1.8907-0.83343 0.47845-0.56077 0.71768-1.3042 0.71768-2.2302v-0.3164h-1.4122m2.8321-0.58649v4.9312h-1.4199v-1.3119c-0.32412 0.52475-0.72797 0.91318-1.2116 1.1653-0.4836 0.24695-1.0752 0.37042-1.7749 0.37042-0.88489 0-1.5897-0.24694-2.1145-0.74083-0.51961-0.49903-0.77942-1.1653-0.77942-1.9987 0-0.97234 0.32412-1.7054 0.97235-2.1994 0.65336-0.49388 1.6257-0.74082 2.917-0.74083h1.991v-0.1389c0-0.65337-0.21608-1.1576-0.64822-1.5125-0.42702-0.36012-1.0289-0.54019-1.8058-0.54019-0.49389 0-0.97492 0.0592-1.4431 0.17749-0.46817 0.11833-0.91832 0.29582-1.3505 0.53247v-1.3119c0.51961-0.20063 1.0238-0.34983 1.5125-0.44758 0.48874-0.10289 0.96462-0.15434 1.4276-0.15434 1.2502 0 2.1839 0.32412 2.8013 0.97234 0.61735 0.64823 0.92603 1.6309 0.92604 2.9479m-2.5929-7.7093h1.5357l-2.5157 2.9016h-1.1807l2.1608-2.9016"/>
  <path id="path3236" style="" d="m583.5 110.92v1.3428c-0.40129-0.20578-0.81801-0.36012-1.2502-0.46302-0.43216-0.10288-0.87974-0.15433-1.3428-0.15434-0.70482 0.00001-1.2347 0.10805-1.5897 0.32412-0.34984 0.21608-0.52476 0.54019-0.52475 0.97234-0.00001 0.32926 0.12604 0.58907 0.37813 0.77941 0.25208 0.18522 0.75883 0.36271 1.5202 0.53248l0.48617 0.10803c1.0084 0.21608 1.7234 0.52219 2.1453 0.91833 0.427 0.39099 0.6405 0.9389 0.64051 1.6437-0.00001 0.80256-0.31897 1.4379-0.95691 1.9061-0.6328 0.46817-1.5048 0.70225-2.6161 0.70225-0.46302 0-0.94662-0.0463-1.4508-0.13891-0.49903-0.0875-1.0264-0.22122-1.582-0.40128v-1.4662c0.52475 0.27267 1.0418 0.47846 1.5511 0.61736 0.50932 0.13376 1.0135 0.20064 1.5125 0.20064 0.6688 0 1.1833-0.11318 1.5434-0.33955 0.36012-0.2315 0.54018-0.55562 0.54019-0.97234-0.00001-0.38584-0.1312-0.68166-0.39357-0.88745-0.25724-0.20578-0.82572-0.40385-1.7054-0.59421l-0.49389-0.11575c-0.87974-0.18521-1.5151-0.46816-1.9061-0.84887-0.39099-0.38585-0.58649-0.91317-0.58649-1.582 0-0.81285 0.2881-1.4405 0.8643-1.8829 0.5762-0.44243 1.3942-0.66366 2.454-0.66366 0.52475 0 1.0186 0.0386 1.4817 0.11575 0.46301 0.0772 0.89002 0.19293 1.281 0.34727"/>
 </g>
 <g id="text90">
  <path id="path3239" style="" d="m525.29 147.79h9.7466v1.3119h-4.09v10.21h-1.5666v-10.21h-4.09v-1.3119"/>
  <path id="path3241" style="" d="m544.25 148.68v1.6437c-0.52476-0.48873-1.0855-0.854-1.6823-1.0958-0.59165-0.24179-1.2219-0.36269-1.8907-0.3627-1.317 0.00001-2.3254 0.40387-3.0251 1.2116-0.69967 0.80257-1.0495 1.9653-1.0495 3.4881 0 1.5177 0.34984 2.6804 1.0495 3.4881 0.69967 0.80257 1.708 1.2038 3.0251 1.2038 0.66879 0 1.299-0.1209 1.8907-0.3627 0.59677-0.24179 1.1575-0.60707 1.6823-1.0958v1.6283c-0.54534 0.37041-1.1241 0.64822-1.7363 0.83343-0.60708 0.18521-1.2502 0.27781-1.9292 0.27781-1.744 0-3.1177-0.53247-4.1209-1.5974-1.0032-1.0701-1.5048-2.5286-1.5048-4.3755 0-1.8521 0.50161-3.3106 1.5048-4.3755 1.0032-1.0701 2.3768-1.6051 4.1209-1.6051 0.68938 0.00001 1.3376 0.0926 1.9447 0.27781 0.61221 0.18008 1.1858 0.45274 1.7209 0.818"/>
  <path id="path3243" style="" d="m548.23 149.07v4.3292h1.9601c0.72539 0.00001 1.2862-0.18777 1.6823-0.56334 0.39613-0.37555 0.5942-0.9106 0.59421-1.6051-0.00001-0.68938-0.19808-1.2218-0.59421-1.5974-0.39614-0.37555-0.95691-0.56333-1.6823-0.56334h-1.9601m-1.5588-1.281h3.519c1.2913 0.00001 2.2662 0.29326 2.9247 0.87974 0.66365 0.58135 0.99548 1.4354 0.99549 2.562-0.00001 1.137-0.33184 1.9961-0.99549 2.5775-0.65853 0.58136-1.6334 0.87203-2.9247 0.87202h-1.9601v4.6302h-1.5588v-11.521"/>
 </g>
 <g id="text94">
  <path id="path3246" style="" d="m534.45 187.79h1.5588v11.521h-1.5588v-11.521"/>
  <path id="path3248" style="" d="m540.67 189.07v4.3292h1.9601c0.7254 0.00001 1.2862-0.18777 1.6823-0.56334 0.39613-0.37555 0.5942-0.9106 0.59421-1.6051-0.00001-0.68938-0.19808-1.2218-0.59421-1.5974-0.39615-0.37555-0.95691-0.56333-1.6823-0.56334h-1.9601m-1.5588-1.281h3.5189c1.2913 0.00001 2.2662 0.29326 2.9247 0.87974 0.66366 0.58135 0.99549 1.4354 0.9955 2.562-0.00001 1.137-0.33184 1.9961-0.9955 2.5775-0.65852 0.58136-1.6334 0.87203-2.9247 0.87202h-1.9601v4.6302h-1.5588v-11.521"/>
 </g>
 <g id="text98">
  <path id="path3251" style="" d="m496.45 227.79h6.6212v1.3119h-5.0624v3.3955h4.5685v1.3119h-4.5685v5.5022h-1.5588v-11.521"/>
  <path id="path3253" style="" d="m504.36 230.67h1.4199v8.643h-1.4199v-8.643m0-3.3646h1.4199v1.7981h-1.4199v-1.7981"/>
  <path id="path3255" style="" d="m508.12 230.67h6.7447v1.2964l-5.3402 6.2122h5.3402v1.1344h-6.9376v-1.2965l5.3402-6.2122h-5.1472v-1.1344"/>
  <path id="path3257" style="" d="m517.04 230.67h1.4199v8.643h-1.4199v-8.643m0-3.3646h1.4199v1.7981h-1.4199v-1.7981"/>
  <path id="path3259" style="" d="m521.37 227.3h1.4276v7.0919l4.2366-3.7273h1.8135l-4.5839 4.0437 4.7768 4.5993h-1.8521l-4.391-4.2212v4.2212h-1.4276v-12.008"/>
  <path id="path3261" style="" d="m534.24 234.97c-1.1473 0.00001-1.9421 0.1312-2.3846 0.39357-0.44245 0.26238-0.66367 0.70997-0.66367 1.3428 0 0.50417 0.16463 0.90546 0.49389 1.2038 0.3344 0.29324 0.78713 0.43987 1.3582 0.43987 0.78713 0 1.4174-0.27782 1.8907-0.83344 0.47845-0.56077 0.71768-1.3042 0.71769-2.2302v-0.3164h-1.4122m2.8321-0.58649v4.9312h-1.4199v-1.3119c-0.32412 0.52476-0.72798 0.91318-1.2116 1.1653-0.48361 0.24694-1.0752 0.37041-1.7749 0.37041-0.88489 0-1.5897-0.24694-2.1145-0.74083-0.51961-0.49903-0.77941-1.1653-0.77941-1.9987 0-0.97234 0.32411-1.7054 0.97234-2.1993 0.65337-0.49389 1.6257-0.74083 2.917-0.74083h1.991v-0.13891c-0.00001-0.65337-0.21609-1.1575-0.64823-1.5125-0.42701-0.36012-1.0289-0.54018-1.8058-0.54019-0.49389 0.00001-0.97492 0.0592-1.4431 0.17749-0.46816 0.11834-0.91832 0.29583-1.3505 0.53247v-1.3119c0.51961-0.20063 1.0238-0.34982 1.5125-0.44758 0.48874-0.10289 0.96462-0.15433 1.4276-0.15434 1.2502 0.00001 2.1839 0.32412 2.8013 0.97234 0.61735 0.64823 0.92603 1.6309 0.92604 2.9479"/>
  <path id="path3263" style="" d="m540.01 230.67h1.4199v8.643h-1.4199v-8.643m0-3.3646h1.4199v1.7981h-1.4199v-1.7981"/>
  <path id="path3265" style="" d="m554.93 230.92v1.3428c-0.40129-0.20578-0.81801-0.36012-1.2502-0.46302-0.43216-0.10289-0.87974-0.15434-1.3428-0.15434-0.70482 0-1.2347 0.10804-1.5897 0.32411-0.34984 0.21608-0.52476 0.5402-0.52475 0.97234-0.00001 0.32926 0.12604 0.58907 0.37813 0.77942 0.25208 0.18521 0.75883 0.3627 1.5202 0.53247l0.48617 0.10804c1.0084 0.21608 1.7234 0.52218 2.1453 0.91832 0.427 0.391 0.6405 0.9389 0.64051 1.6437-0.00001 0.80257-0.31897 1.4379-0.95691 1.9061-0.63279 0.46816-1.5048 0.70224-2.6161 0.70224-0.46302 0-0.94662-0.0463-1.4508-0.1389-0.49903-0.0875-1.0264-0.22122-1.582-0.40129v-1.4662c0.52475 0.27267 1.0418 0.47846 1.5511 0.61736 0.50932 0.13377 1.0135 0.20065 1.5125 0.20065 0.6688 0 1.1833-0.11319 1.5434-0.33955 0.36012-0.23151 0.54018-0.55562 0.54019-0.97234-0.00001-0.38585-0.13119-0.68167-0.39357-0.88746-0.25723-0.20578-0.82572-0.40385-1.7054-0.59421l-0.49389-0.11575c-0.87974-0.1852-1.5151-0.46816-1.9061-0.84887-0.39099-0.38584-0.58649-0.91317-0.58649-1.582 0-0.81285 0.2881-1.4405 0.86431-1.883 0.5762-0.44243 1.3942-0.66365 2.454-0.66366 0.52475 0.00001 1.0186 0.0386 1.4817 0.11575 0.46301 0.0772 0.89002 0.19294 1.281 0.34727"/>
  <path id="path3267" style="" d="m557.05 230.67h6.7446v1.2964l-5.3402 6.2122h5.3402v1.1344h-6.9376v-1.2965l5.3402-6.2122h-5.1472v-1.1344"/>
  <path id="path3269" style="" d="m565.97 230.67h1.4199v8.643h-1.4199v-8.643m0-3.3646h1.4199v1.7981h-1.4199v-1.7981"/>
  <path id="path3271" style="" d="m577.54 234.1v5.2167h-1.4199v-5.1704c-0.00001-0.81799-0.1595-1.4302-0.47846-1.8366-0.31897-0.40642-0.79743-0.60963-1.4354-0.60964-0.76656 0.00001-1.3711 0.24438-1.8135 0.73311-0.44245 0.48875-0.66367 1.155-0.66366 1.9987v4.8849h-1.4276v-8.643h1.4276v1.3428c0.33954-0.5196 0.73825-0.90802 1.1961-1.1653 0.46302-0.25723 0.99549-0.38584 1.5974-0.38585 0.99291 0.00001 1.744 0.30869 2.2534 0.92604 0.50931 0.61222 0.76397 1.5151 0.76398 2.7087"/>
  <path id="path3273" style="" d="m581.79 228.21v2.454h2.9247v1.1035h-2.9247v4.6919c0 0.70482 0.0952 1.1576 0.28553 1.3582 0.1955 0.20064 0.58906 0.30096 1.1807 0.30096h1.4585v1.1884h-1.4585c-1.0958 0-1.8521-0.20321-2.2688-0.60964-0.41672-0.41158-0.62508-1.1576-0.62508-2.2379v-4.6919h-1.0418v-1.1035h1.0418v-2.454h1.4276"/>
 </g>
 <g id="g102" stroke="#000" stroke-width="2" fill="none" transform="translate(0 -6.1632)">
  <path id="line104" d="m480 240v-155.53"/>
  <path id="polyline106" d="m485 92.236-5-10-5 10"/>
 </g>
 <g id="g108" stroke="#000" stroke-width="2" fill="none" transform="translate(0 -6.1632)">
  <path id="line110" d="m364.47 120h71.056"/>
  <path id="polyline112" d="m372.24 115-10 5 10 5"/>
  <path id="polyline114" d="m427.76 125 10-5-10-5"/>
 </g>
 <g id="g116" stroke="#000" stroke-width="2" fill="none" transform="translate(0 -6.1632)">
  <path id="line118" d="m364.47 160h71.056"/>
  <path id="polyline120" d="m372.24 155-10 5 10 5"/>
  <path id="polyline122" d="m427.76 165 10-5-10-5"/>
 </g>
 <g id="g124" stroke="#000" stroke-width="2" fill="none" transform="translate(0 -6.1632)">
  <path id="line126" d="m364.47 200h71.056"/>
  <path id="polyline128" d="m372.24 195-10 5 10 5"/>
  <path id="polyline130" d="m427.76 205 10-5-10-5"/>
 </g>
 <g id="g132" stroke="#000" stroke-width="2" fill="none" transform="translate(0 -6.1632)">
  <path id="line134" d="m364.47 240h71.056"/>
  <path id="polyline136" d="m372.24 235-10 5 10 5"/>
  <path id="polyline138" d="m427.76 245 10-5-10-5"/>
 </g>
 <g id="g140" stroke="#000" stroke-width="2" fill="none" transform="translate(0 -6.1632)">
  <path id="polyline142" d="m320 260v20h160v-15.528"/>
  <path id="polyline144" d="m485 272.24-5-10-5 10"/>
 </g>
</svg>
