<?xml version="1.0" encoding="UTF-8" standalone="no"?>
<!-- Created with Inkscape (http://www.inkscape.org/) -->
<svg id="svg2" xmlns:rdf="http://www.w3.org/1999/02/22-rdf-syntax-ns#" xmlns="http://www.w3.org/2000/svg" height="488.93" width="455.74" version="1.1" xmlns:cc="http://creativecommons.org/ns#" xmlns:dc="http://purl.org/dc/elements/1.1/" viewBox="280 99 242.39788 261.19182">
 <metadata id="metadata60">
  <rdf:RDF>
   <cc:Work rdf:about="">
    <dc:format>image/svg+xml</dc:format>
    <dc:type rdf:resource="http://purl.org/dc/dcmitype/StillImage"/>
   </cc:Work>
  </rdf:RDF>
 </metadata>
 <path id="line4" d="m297.92 100v240" stroke="#000" stroke-width="2" fill="none"/>
 <path id="line6" d="m497.92 100v240" stroke="#000" stroke-width="2" fill="none"/>
 <g id="text8">
  <path id="path3011" style="" d="m279.47 349.71h1.2237v6.0788l3.6314-3.1948h1.5544l-3.9291 3.466 4.0944 3.9423h-1.5875l-3.7637-3.6182v3.6182h-1.2237v-10.292"/>
  <path id="path3013" style="" d="m287.37 349.71h1.2171v10.292h-1.2171v-10.292"/>
  <path id="path3015" style="" d="m291.13 352.59h1.2171v7.4084h-1.2171v-7.4084m0-2.884h1.2171v1.5412h-1.2171v-1.5412"/>
  <path id="path3017" style="" d="m301.23 355.99v0.59532h-5.596c0.0529 0.83785 0.30427 1.4773 0.75406 1.9182 0.4542 0.43657 1.0848 0.65485 1.8918 0.65485 0.46742 0 0.91942-0.0573 1.356-0.17198 0.44097-0.11466 0.87753-0.28664 1.3097-0.51594v1.1509c-0.43657 0.18521-0.88416 0.32632-1.3428 0.42333-0.45862 0.097-0.92385 0.14552-1.3957 0.14552-1.1818 0-2.1189-0.34396-2.8112-1.0319-0.68792-0.68792-1.0319-1.6184-1.0319-2.7914 0-1.2127 0.32632-2.174 0.97897-2.884 0.65704-0.71437 1.5412-1.0716 2.6524-1.0716 0.99659 0.00001 1.7837 0.32192 2.3614 0.96574 0.58208 0.63941 0.87312 1.5103 0.87313 2.6128m-1.2171-0.35719c-0.009-0.66586-0.19624-1.1972-0.56224-1.5941-0.3616-0.39687-0.84226-0.59531-1.442-0.59532-0.6791 0.00001-1.2237 0.19183-1.6338 0.57547-0.40569 0.38365-0.63941 0.92385-0.70114 1.6206l4.3392-0.007"/>
  <path id="path3019" style="" d="m309.38 355.53v4.4715h-1.2171v-4.4318c0-0.70114-0.1367-1.2259-0.4101-1.5743-0.27341-0.34836-0.68352-0.52254-1.2303-0.52255-0.65705 0.00001-1.1752 0.20947-1.5544 0.62839-0.37924 0.41893-0.56886 0.98999-0.56885 1.7132v4.187h-1.2237v-7.4084h1.2237v1.1509c0.29104-0.44538 0.63279-0.77831 1.0253-0.99881 0.39687-0.22047 0.85328-0.33072 1.3692-0.33073 0.85107 0.00001 1.4949 0.2646 1.9315 0.79376 0.43656 0.52476 0.65484 1.2987 0.65485 2.3217"/>
  <path id="path3021" style="" d="m316.54 352.81v1.1509c-0.34397-0.17638-0.70115-0.30867-1.0716-0.39688-0.37042-0.0882-0.75406-0.13228-1.1509-0.13229-0.60413 0.00001-1.0583 0.0926-1.3626 0.27782-0.29987 0.18521-0.4498 0.46302-0.4498 0.83344 0 0.28222 0.10804 0.50491 0.32412 0.66807 0.21607 0.15876 0.65043 0.31089 1.3031 0.45641l0.41671 0.0926c0.86431 0.18521 1.4773 0.44759 1.8389 0.78714 0.36601 0.33514 0.54901 0.80478 0.54902 1.4089-0.00001 0.68792-0.27341 1.2325-0.82022 1.6338-0.5424 0.40129-1.2898 0.60193-2.2423 0.60193-0.39688 0-0.8114-0.0397-1.2436-0.11906-0.42774-0.075-0.87974-0.18962-1.356-0.34396v-1.2568c0.44979 0.23371 0.89297 0.4101 1.3295 0.52917 0.43656 0.11465 0.86872 0.17198 1.2965 0.17198 0.57327 0 1.0142-0.097 1.3229-0.29105 0.30868-0.19843 0.46302-0.47625 0.46303-0.83344-0.00001-0.33072-0.11246-0.58428-0.33735-0.76068-0.22049-0.17638-0.70776-0.34616-1.4618-0.50932l-0.42333-0.0992c-0.75407-0.15875-1.2987-0.40128-1.6338-0.7276-0.33514-0.33073-0.50271-0.78273-0.50271-1.356 0-0.69673 0.24695-1.2347 0.74084-1.614 0.49389-0.37923 1.195-0.56885 2.1034-0.56886 0.44979 0.00001 0.87313 0.0331 1.27 0.0992 0.39687 0.0662 0.76287 0.16538 1.098 0.29766"/>
 </g>
 <g id="text12">
  <path id="path3024" style="" d="m478.91 352.81v1.1509c-0.34396-0.17638-0.70115-0.30867-1.0716-0.39688-0.37042-0.0882-0.75406-0.13228-1.1509-0.13229-0.60413 0.00001-1.0583 0.0926-1.3626 0.27782-0.29987 0.18521-0.4498 0.46302-0.4498 0.83344 0 0.28222 0.10804 0.50491 0.32412 0.66807 0.21607 0.15876 0.65043 0.31089 1.3031 0.45641l0.41672 0.0926c0.8643 0.18521 1.4772 0.44759 1.8388 0.78714 0.36601 0.33514 0.54901 0.80478 0.54902 1.4089-0.00001 0.68792-0.27341 1.2325-0.82021 1.6338-0.54241 0.40129-1.2899 0.60193-2.2424 0.60193-0.39688 0-0.8114-0.0397-1.2436-0.11906-0.42774-0.075-0.87974-0.18962-1.356-0.34396v-1.2568c0.44979 0.23371 0.89297 0.4101 1.3295 0.52917 0.43656 0.11465 0.86872 0.17198 1.2965 0.17198 0.57327 0 1.0142-0.097 1.3229-0.29105 0.30868-0.19843 0.46302-0.47625 0.46303-0.83344-0.00001-0.33072-0.11246-0.58428-0.33735-0.76068-0.22049-0.17638-0.70776-0.34616-1.4618-0.50932l-0.42334-0.0992c-0.75407-0.15875-1.2987-0.40128-1.6338-0.7276-0.33515-0.33073-0.50272-0.78273-0.50271-1.356-0.00001-0.69673 0.24694-1.2347 0.74083-1.614 0.49389-0.37923 1.195-0.56885 2.1034-0.56886 0.44979 0.00001 0.87313 0.0331 1.27 0.0992 0.39687 0.0662 0.76287 0.16538 1.098 0.29766"/>
  <path id="path3026" style="" d="m480.72 352.59h5.7812v1.1112l-4.5773 5.3248h4.5773v0.97235h-5.9465v-1.1112l4.5773-5.3248h-4.4119v-0.97234"/>
  <path id="path3028" style="" d="m494.7 355.99v0.59532h-5.596c0.0529 0.83785 0.30427 1.4773 0.75407 1.9182 0.4542 0.43657 1.0848 0.65485 1.8918 0.65485 0.46743 0 0.91943-0.0573 1.356-0.17198 0.44096-0.11466 0.87753-0.28664 1.3097-0.51594v1.1509c-0.43657 0.18521-0.88416 0.32632-1.3428 0.42333-0.45862 0.097-0.92384 0.14552-1.3957 0.14552-1.1818 0-2.1189-0.34396-2.8112-1.0319-0.68792-0.68792-1.0319-1.6184-1.0319-2.7914 0-1.2127 0.32632-2.174 0.97896-2.884 0.65705-0.71437 1.5412-1.0716 2.6524-1.0716 0.9966 0.00001 1.7837 0.32192 2.3614 0.96574 0.58207 0.63941 0.87312 1.5103 0.87312 2.6128m-1.2171-0.35719c-0.009-0.66586-0.19624-1.1972-0.56224-1.5941-0.36161-0.39687-0.84227-0.59531-1.442-0.59532-0.6791 0.00001-1.2237 0.19183-1.6338 0.57547-0.4057 0.38365-0.63942 0.92385-0.70115 1.6206l4.3392-0.007"/>
  <path id="path3030" style="" d="m500.99 353.73c-0.13671-0.0794-0.28664-0.1367-0.4498-0.17198-0.15875-0.0397-0.33514-0.0595-0.52916-0.0595-0.68793 0.00001-1.2171 0.2249-1.5875 0.67469-0.36601 0.44539-0.54901 1.087-0.54901 1.9248v3.9026h-1.2237v-7.4084h1.2237v1.1509c0.25576-0.44979 0.5887-0.78272 0.99881-0.99881 0.4101-0.22047 0.9084-0.33072 1.4949-0.33073 0.0838 0.00001 0.17639 0.007 0.27782 0.0199 0.10142 0.009 0.21386 0.0243 0.33734 0.0463l0.007 1.2502"/>
  <path id="path3032" style="" d="m501.41 352.59h1.2898l2.3151 6.2177 2.3151-6.2177h1.2898l-2.7781 7.4084h-1.6536l-2.7781-7.4084"/>
  <path id="path3034" style="" d="m516.64 355.99v0.59532h-5.596c0.0529 0.83785 0.30427 1.4773 0.75407 1.9182 0.4542 0.43657 1.0848 0.65485 1.8918 0.65485 0.46743 0 0.91943-0.0573 1.356-0.17198 0.44097-0.11466 0.87753-0.28664 1.3097-0.51594v1.1509c-0.43657 0.18521-0.88416 0.32632-1.3428 0.42333-0.45862 0.097-0.92384 0.14552-1.3957 0.14552-1.1818 0-2.1189-0.34396-2.8112-1.0319-0.68792-0.68792-1.0319-1.6184-1.0319-2.7914 0-1.2127 0.32632-2.174 0.97896-2.884 0.65705-0.71437 1.5412-1.0716 2.6524-1.0716 0.9966 0.00001 1.7837 0.32192 2.3614 0.96574 0.58207 0.63941 0.87312 1.5103 0.87312 2.6128m-1.2171-0.35719c-0.009-0.66586-0.19624-1.1972-0.56224-1.5941-0.36161-0.39687-0.84227-0.59531-1.442-0.59532-0.6791 0.00001-1.2237 0.19183-1.6338 0.57547-0.4057 0.38365-0.63942 0.92385-0.70115 1.6206l4.3392-0.007"/>
  <path id="path3036" style="" d="m522.93 353.73c-0.13671-0.0794-0.28664-0.1367-0.44979-0.17198-0.15876-0.0397-0.33515-0.0595-0.52917-0.0595-0.68792 0.00001-1.2171 0.2249-1.5875 0.67469-0.36601 0.44539-0.54901 1.087-0.54901 1.9248v3.9026h-1.2237v-7.4084h1.2237v1.1509c0.25576-0.44979 0.5887-0.78272 0.99881-0.99881 0.4101-0.22047 0.9084-0.33072 1.4949-0.33073 0.0838 0.00001 0.17638 0.007 0.27781 0.0199 0.10142 0.009 0.21387 0.0243 0.33734 0.0463l0.007 1.2502"/>
 </g>
 <g id="g16" stroke="#000" stroke-width="2" fill="none" transform="translate(-2.0753)">
  <path id="line18" d="m300 140 195.55 19.555"/>
  <path id="polyline20" d="m487.33 163.76 10.448-3.98-9.453-5.971"/>
 </g>
 <g id="g22" stroke="#000" stroke-width="2" fill="none" transform="translate(-2.0753)">
  <path id="line24" d="m500 180-195.55 19.55"/>
  <path id="polyline26" d="m311.68 193.81-9.453 5.971 10.448 3.98"/>
 </g>
 <g id="text28">
  <path id="path3043" style="" d="m388.82 130.67h5.3625v1.0625h-4.1v2.75h3.7v1.0625h-3.7v4.4562h-1.2625v-9.3312"/>
  <path id="path3045" style="" d="m396.19 130.67h1.2625v9.3312h-1.2625v-9.3312"/>
  <path id="path3047" style="" d="m399.97 130.67h1.7l4.1375 7.8062v-7.8062h1.225v9.3312h-1.7l-4.1375-7.8062v7.8062h-1.225v-9.3312"/>
 </g>
 <g id="text32">
  <path id="path3050" style="" d="m389.36 171.91-1.7125 4.6438h3.4312l-1.7188-4.6438m-0.7125-1.2438h1.4312l3.5562 9.3312h-1.3125l-0.85-2.3938h-4.2062l-0.85 2.3938h-1.3312l3.5625-9.3312"/>
  <path id="path3052" style="" d="m401.76 171.39v1.3312c-0.425-0.39583-0.87917-0.69166-1.3625-0.8875-0.47917-0.19583-0.98959-0.29374-1.5312-0.29375-1.0667 0.00001-1.8833 0.32709-2.45 0.98125-0.56667 0.65001-0.85 1.5917-0.85 2.825 0 1.2292 0.28333 2.1708 0.85 2.825 0.56667 0.65 1.3833 0.975 2.45 0.975 0.54166 0 1.0521-0.0979 1.5312-0.29375 0.48333-0.19583 0.9375-0.49167 1.3625-0.8875v1.3188c-0.44167 0.3-0.91042 0.525-1.4062 0.675-0.49167 0.15-1.0125 0.225-1.5625 0.225-1.4125 0-2.525-0.43125-3.3375-1.2938-0.8125-0.86666-1.2188-2.0479-1.2188-3.5438 0-1.5 0.40625-2.6812 1.2188-3.5438 0.8125-0.86666 1.925-1.3 3.3375-1.3 0.55833 0.00001 1.0833 0.075 1.575 0.225 0.49583 0.14584 0.96041 0.36668 1.3938 0.6625"/>
  <path id="path3054" style="" d="m403.72 170.67h1.2625v3.9438l4.1875-3.9438h1.625l-4.6312 4.35 4.9625 4.9812h-1.6625l-4.4812-4.4938v4.4938h-1.2625v-9.3312"/>
 </g>
 <g id="g36" stroke="#000" stroke-width="2" fill="none" transform="translate(-2.0753)">
  <path id="line38" d="m300 280 195.55 19.555"/>
  <path id="polyline40" d="m487.33 303.76 10.448-3.98-9.453-5.971"/>
 </g>
 <g id="text42">
  <path id="path3059" style="" d="m389.36 271.91-1.7125 4.6438h3.4312l-1.7188-4.6438m-0.7125-1.2438h1.4312l3.5562 9.3312h-1.3125l-0.85-2.3938h-4.2062l-0.85 2.3938h-1.3312l3.5625-9.3312"/>
  <path id="path3061" style="" d="m401.76 271.39v1.3312c-0.425-0.39583-0.87917-0.69166-1.3625-0.8875-0.47917-0.19583-0.98959-0.29374-1.5312-0.29375-1.0667 0.00001-1.8833 0.32709-2.45 0.98125-0.56667 0.65001-0.85 1.5917-0.85 2.825 0 1.2292 0.28333 2.1708 0.85 2.825 0.56667 0.65 1.3833 0.975 2.45 0.975 0.54166 0 1.0521-0.0979 1.5312-0.29375 0.48333-0.19583 0.9375-0.49167 1.3625-0.8875v1.3188c-0.44167 0.3-0.91042 0.525-1.4062 0.675-0.49167 0.15-1.0125 0.225-1.5625 0.225-1.4125 0-2.525-0.43125-3.3375-1.2938-0.8125-0.86666-1.2188-2.0479-1.2188-3.5438 0-1.5 0.40625-2.6812 1.2188-3.5438 0.8125-0.86666 1.925-1.3 3.3375-1.3 0.55833 0.00001 1.0833 0.075 1.575 0.225 0.49583 0.14584 0.96041 0.36668 1.3938 0.6625"/>
  <path id="path3063" style="" d="m403.72 270.67h1.2625v3.9438l4.1875-3.9438h1.625l-4.6312 4.35 4.9625 4.9812h-1.6625l-4.4812-4.4938v4.4938h-1.2625v-9.3312"/>
 </g>
 <g id="g46" stroke="#000" stroke-width="2" fill="none" transform="translate(-2.0753)">
  <path id="line48" d="m500 240-195.55 19.55"/>
  <path id="polyline50" d="m311.68 253.81-9.453 5.971 10.448 3.98"/>
 </g>
 <g id="text52">
  <path id="path3068" style="" d="m388.82 230.67h5.3625v1.0625h-4.1v2.75h3.7v1.0625h-3.7v4.4562h-1.2625v-9.3312"/>
  <path id="path3070" style="" d="m396.19 230.67h1.2625v9.3312h-1.2625v-9.3312"/>
  <path id="path3072" style="" d="m399.97 230.67h1.7l4.1375 7.8062v-7.8062h1.225v9.3312h-1.7l-4.1375-7.8062v7.8062h-1.225v-9.3312"/>
 </g>
</svg>
