<?xml version="1.0" encoding="UTF-8" standalone="no"?>
<!-- Created with Inkscape (http://www.inkscape.org/) -->
<svg id="svg2" xmlns:rdf="http://www.w3.org/1999/02/22-rdf-syntax-ns#" xmlns="http://www.w3.org/2000/svg" height="448.57" width="1414" version="1.1" xmlns:cc="http://creativecommons.org/ns#" xmlns:dc="http://purl.org/dc/elements/1.1/" viewBox="-21 120 795.12384 238.72361">
 <metadata id="metadata170">
  <rdf:RDF>
   <cc:Work rdf:about="">
    <dc:format>image/svg+xml</dc:format>
    <dc:type rdf:resource="http://purl.org/dc/dcmitype/StillImage"/>
   </cc:Work>
  </rdf:RDF>
 </metadata>
 <path id="line4" d="m119.04 225.85h560" stroke="#000" stroke-width="2" fill="none"/>
 <g id="g6" transform="translate(-.96485 -14.151)">
  <path id="path8" d="m291.08 195.54c-30.986-0.879-91.08 17.567-82.629 57.094 8.45 39.527 48.826 48.311 65.727 36.892 16.902-11.419-26.291 55.338 56.339 72.905 82.628 17.568 124.88-10.54 112.68-30.743-12.206-20.203 72.301 47.433 111.74 8.784 39.437-38.649-40.375-75.54-23.474-70.27 16.902 5.27 68.545-1.757 51.644-67.635-16.902-65.879-169.02-14.933-152.11-24.595 16.901-9.662-25.353-57.973-77.934-48.311-52.582 9.662-56.312 27.196-61.946 65.844l-0.026 0.035z" fill="#1e90ff"/>
  <path id="path10" d="m291.08 195.54c-30.986-0.879-91.08 17.567-82.629 57.094 8.45 39.527 48.826 48.311 65.727 36.892 16.902-11.419-26.291 55.338 56.339 72.905 82.628 17.568 124.88-10.54 112.68-30.743-12.206-20.203 72.301 47.433 111.74 8.784 39.437-38.649-40.375-75.54-23.474-70.27 16.902 5.27 68.545-1.757 51.644-67.635-16.902-65.879-169.02-14.933-152.11-24.595 16.901-9.662-25.353-57.973-77.934-48.311-52.582 9.662-56.312 27.196-61.946 65.844l-0.026 0.035" stroke="#000" stroke-width="2" fill="none"/>
 </g>
 <g id="g16" transform="translate(-.96485 -14.151)">
  <path id="rect18" fill="#fff" d="m300 200h220v120h-220z"/>
  <path id="rect20" d="m300 200h220v120h-220z" stroke="#000" stroke-width="2" fill="none"/>
 </g>
 <path id="line22" d="m299.04 185.85 110 60" stroke="#e5e5e5" stroke-width="2" fill="none"/>
 <path id="line24" d="m409.04 245.85 110-60" stroke="#e5e5e5" stroke-width="2" fill="none"/>
 <g id="text26">
  <path id="path3070" style="" d="m320.29 208.42h5.3625v1.0625h-4.1v2.75h3.7v1.0625h-3.7v4.4562h-1.2625v-9.3312"/>
  <path id="path3072" style="" d="m332.9 213.96v0.5625h-5.2875c0.05 0.79167 0.28749 1.3958 0.7125 1.8125 0.42916 0.41251 1.025 0.61876 1.7875 0.61875 0.44166 0.00001 0.86874-0.0542 1.2812-0.1625 0.41666-0.10833 0.82916-0.27083 1.2375-0.4875v1.0875c-0.41251 0.17501-0.83543 0.30834-1.2688 0.4-0.43334 0.0917-0.87292 0.1375-1.3188 0.1375-1.1167 0-2.0021-0.32499-2.6562-0.975-0.65-0.64999-0.975-1.5292-0.975-2.6375 0-1.1458 0.30833-2.0542 0.925-2.725 0.62083-0.67499 1.4562-1.0125 2.5062-1.0125 0.94166 0.00001 1.6854 0.30418 2.2312 0.9125 0.54999 0.60418 0.82499 1.4271 0.825 2.4688m-1.15-0.3375c-0.008-0.62916-0.18543-1.1312-0.53125-1.5062-0.34168-0.37499-0.79584-0.56249-1.3625-0.5625-0.64167 0.00001-1.1563 0.18126-1.5438 0.54375-0.38334 0.36251-0.60417 0.87293-0.6625 1.5312l4.1-0.006"/>
  <path id="path3074" style="" d="m334.79 208.02h1.15v9.725h-1.15v-9.725"/>
  <path id="path3076" style="" d="m341.52 214.23c-0.92917 0.00001-1.5729 0.10626-1.9312 0.31875-0.35834 0.21251-0.53751 0.57501-0.5375 1.0875-0.00001 0.40834 0.13333 0.73334 0.4 0.975 0.27083 0.23751 0.63749 0.35626 1.1 0.35625 0.63749 0.00001 1.1479-0.22499 1.5312-0.675 0.38749-0.45416 0.58124-1.0562 0.58125-1.8062v-0.25625h-1.1438m2.2938-0.475v3.9938h-1.15v-1.0625c-0.26251 0.42501-0.58959 0.73959-0.98125 0.94375-0.39167 0.2-0.87084 0.3-1.4375 0.3-0.71667 0-1.2875-0.19999-1.7125-0.6-0.42084-0.40416-0.63125-0.94374-0.63125-1.6188 0-0.78749 0.2625-1.3812 0.7875-1.7812 0.52916-0.39999 1.3167-0.59999 2.3625-0.6h1.6125v-0.1125c-0.00001-0.52916-0.17501-0.93749-0.525-1.225-0.34584-0.29166-0.83334-0.43749-1.4625-0.4375-0.40001 0.00001-0.78959 0.0479-1.1688 0.14375-0.37917 0.0958-0.74375 0.23959-1.0938 0.43125v-1.0625c0.42083-0.16249 0.82916-0.28332 1.225-0.3625 0.39583-0.0833 0.78124-0.12499 1.1562-0.125 1.0125 0.00001 1.7687 0.26251 2.2688 0.7875 0.49999 0.52501 0.74999 1.3208 0.75 2.3875"/>
  <path id="path3078" style="" d="m350.8 211.81v-3.7875h1.15v9.725h-1.15v-1.05c-0.24168 0.41667-0.54792 0.72709-0.91875 0.93125-0.36667 0.2-0.80834 0.3-1.325 0.3-0.84584 0-1.5354-0.33749-2.0688-1.0125-0.52917-0.67499-0.79375-1.5625-0.79375-2.6625s0.26458-1.9875 0.79375-2.6625c0.53333-0.67499 1.2229-1.0125 2.0688-1.0125 0.51666 0.00001 0.95833 0.1021 1.325 0.30625 0.37083 0.20001 0.67707 0.50834 0.91875 0.925m-3.9188 2.4438c0 0.84584 0.17291 1.5104 0.51875 1.9938 0.34999 0.47917 0.82916 0.71876 1.4375 0.71875 0.60833 0.00001 1.0875-0.23958 1.4375-0.71875 0.34999-0.48333 0.52499-1.1479 0.525-1.9938-0.00001-0.84582-0.17501-1.5083-0.525-1.9875-0.35001-0.48332-0.82917-0.72499-1.4375-0.725-0.60834 0.00001-1.0875 0.24168-1.4375 0.725-0.34584 0.47918-0.51875 1.1417-0.51875 1.9875"/>
  <path id="path3080" style="" d="m357.03 211.56c-0.61667 0.00001-1.1042 0.24168-1.4625 0.725-0.35834 0.47918-0.5375 1.1375-0.5375 1.975 0 0.83751 0.17708 1.4979 0.53125 1.9812 0.35833 0.47917 0.84791 0.71876 1.4688 0.71875 0.61249 0.00001 1.0979-0.24166 1.4562-0.725 0.35832-0.48333 0.53749-1.1417 0.5375-1.975-0.00001-0.82916-0.17918-1.4854-0.5375-1.9688-0.35834-0.48749-0.84376-0.73124-1.4562-0.73125m0-0.975c0.99999 0.00001 1.7854 0.32501 2.3562 0.975 0.57082 0.65001 0.85624 1.55 0.85625 2.7-0.00001 1.1458-0.28543 2.0458-0.85625 2.7-0.57084 0.65001-1.3563 0.975-2.3562 0.975-1.0042 0-1.7917-0.32499-2.3625-0.975-0.56667-0.65416-0.85-1.5542-0.85-2.7 0-1.15 0.28333-2.05 0.85-2.7 0.57083-0.64999 1.3583-0.97499 2.3625-0.975m0.86875-3.0688h1.2438l-2.0375 2.35h-0.95625l1.75-2.35"/>
  <path id="path3082" style="" d="m362.44 216.16h1.3188v1.5875h-1.3188v-1.5875m0-5.0312h1.3188v1.5875h-1.3188v-1.5875"/>
  <path id="path3084" style="" d="m320.62 232.69h2.0625v-7.1188l-2.2438 0.45v-1.15l2.2312-0.45h1.2625v8.2688h2.0625v1.0625h-5.375v-1.0625"/>
  <path id="path3086" style="" d="m328.59 233.56v-1.15c0.31666 0.15001 0.63749 0.26459 0.9625 0.34375 0.32499 0.0792 0.64374 0.11876 0.95625 0.11875 0.83333 0.00001 1.4687-0.27916 1.9062-0.8375 0.44166-0.56249 0.69374-1.4146 0.75625-2.5562-0.24168 0.35834-0.54793 0.63334-0.91875 0.825-0.37084 0.19167-0.78126 0.28751-1.2312 0.2875-0.93334 0.00001-1.6729-0.28124-2.2188-0.84375-0.54167-0.56666-0.8125-1.3396-0.8125-2.3188 0-0.95832 0.28333-1.7271 0.85-2.3062 0.56666-0.57915 1.3208-0.86874 2.2625-0.86875 1.0792 0.00001 1.9021 0.4146 2.4688 1.2438 0.57082 0.82501 0.85624 2.025 0.85625 3.6-0.00001 1.4708-0.35001 2.6458-1.05 3.525-0.69584 0.87501-1.6333 1.3125-2.8125 1.3125-0.31667 0-0.63751-0.0312-0.9625-0.0937-0.32501-0.0625-0.6625-0.15624-1.0125-0.28125m2.5125-3.9562c0.56666 0.00001 1.0146-0.19374 1.3438-0.58125 0.33332-0.38749 0.49999-0.91874 0.5-1.5938-0.00001-0.67082-0.16668-1.2-0.5-1.5875-0.32917-0.39165-0.77709-0.58749-1.3438-0.5875-0.56667 0.00001-1.0167 0.19585-1.35 0.5875-0.32917 0.38751-0.49376 0.91668-0.49375 1.5875-0.00001 0.67501 0.16458 1.2063 0.49375 1.5938 0.33333 0.38751 0.78333 0.58126 1.35 0.58125"/>
  <path id="path3088" style="" d="m337.79 232.69h4.4062v1.0625h-5.925v-1.0625c0.47916-0.49583 1.1312-1.1604 1.9562-1.9938 0.82916-0.83749 1.35-1.3771 1.5625-1.6188 0.40416-0.45416 0.68541-0.83749 0.84375-1.15 0.16249-0.31666 0.24374-0.62707 0.24375-0.93125-0.00001-0.49582-0.17501-0.89999-0.525-1.2125-0.34584-0.31249-0.79792-0.46874-1.3562-0.46875-0.39584 0.00001-0.81459 0.0688-1.2562 0.20625-0.4375 0.13751-0.90625 0.34585-1.4062 0.625v-1.275c0.50833-0.20415 0.98333-0.35832 1.425-0.4625 0.44166-0.10415 0.84583-0.15624 1.2125-0.15625 0.96666 0.00001 1.7375 0.24168 2.3125 0.725 0.57499 0.48335 0.86249 1.1292 0.8625 1.9375-0.00001 0.38334-0.0729 0.74793-0.21875 1.0938-0.14168 0.34168-0.40209 0.74584-0.78125 1.2125-0.10417 0.12084-0.43542 0.47084-0.99375 1.05-0.55834 0.57501-1.3458 1.3813-2.3625 2.4188"/>
  <path id="path3090" style="" d="m344.85 232.16h1.3188v1.5875h-1.3188v-1.5875"/>
  <path id="path3092" style="" d="m351.63 225.25c-0.65001 0.00001-1.1396 0.32085-1.4688 0.9625-0.325 0.63751-0.4875 1.5979-0.4875 2.8812 0 1.2792 0.1625 2.2396 0.4875 2.8812 0.32916 0.63751 0.81874 0.95626 1.4688 0.95625 0.65416 0.00001 1.1437-0.31874 1.4688-0.95625 0.32916-0.64166 0.49374-1.6021 0.49375-2.8812-0.00001-1.2833-0.16459-2.2437-0.49375-2.8812-0.32501-0.64165-0.81459-0.96249-1.4688-0.9625m0-1c1.0458 0.00001 1.8437 0.4146 2.3938 1.2438 0.55416 0.82501 0.83124 2.025 0.83125 3.6-0.00001 1.5708-0.27709 2.7708-0.83125 3.6-0.55001 0.82501-1.3479 1.2375-2.3938 1.2375-1.0458 0-1.8458-0.41249-2.4-1.2375-0.55-0.82916-0.825-2.0292-0.825-3.6 0-1.575 0.275-2.775 0.825-3.6 0.55416-0.82915 1.3542-1.2437 2.4-1.2438"/>
  <path id="path3094" style="" d="m357.08 232.16h1.3188v1.5875h-1.3188v-1.5875"/>
  <path id="path3096" style="" d="m362.24 232.69h4.4062v1.0625h-5.925v-1.0625c0.47917-0.49583 1.1312-1.1604 1.9562-1.9938 0.82916-0.83749 1.35-1.3771 1.5625-1.6188 0.40416-0.45416 0.68541-0.83749 0.84375-1.15 0.16249-0.31666 0.24374-0.62707 0.24375-0.93125-0.00001-0.49582-0.17501-0.89999-0.525-1.2125-0.34584-0.31249-0.79792-0.46874-1.3562-0.46875-0.39584 0.00001-0.81459 0.0688-1.2562 0.20625-0.4375 0.13751-0.90625 0.34585-1.4062 0.625v-1.275c0.50833-0.20415 0.98333-0.35832 1.425-0.4625 0.44166-0.10415 0.84583-0.15624 1.2125-0.15625 0.96666 0.00001 1.7375 0.24168 2.3125 0.725 0.57499 0.48335 0.86249 1.1292 0.8625 1.9375-0.00001 0.38334-0.0729 0.74793-0.21875 1.0938-0.14167 0.34168-0.40209 0.74584-0.78125 1.2125-0.10417 0.12084-0.43542 0.47084-0.99375 1.05-0.55834 0.57501-1.3458 1.3813-2.3625 2.4188"/>
  <path id="path3098" style="" d="m369.3 232.16h1.3188v1.5875h-1.3188v-1.5875"/>
  <path id="path3100" style="" d="m373.6 232.69h2.0625v-7.1188l-2.2438 0.45v-1.15l2.2312-0.45h1.2625v8.2688h2.0625v1.0625h-5.375v-1.0625"/>
  <path id="path3102" style="" d="m323.26 244.58c-0.56667 0.00001-1.0167 0.19376-1.35 0.58125-0.32917 0.38751-0.49376 0.91876-0.49375 1.5938-0.00001 0.67084 0.16458 1.2021 0.49375 1.5938 0.33333 0.38751 0.78333 0.58126 1.35 0.58125 0.56666 0.00001 1.0146-0.19374 1.3438-0.58125 0.33332-0.39166 0.49999-0.92291 0.5-1.5938-0.00001-0.67499-0.16668-1.2062-0.5-1.5938-0.32918-0.38749-0.77709-0.58124-1.3438-0.58125m2.5062-3.9562v1.15c-0.31668-0.14999-0.63751-0.26457-0.9625-0.34375-0.32084-0.0791-0.63959-0.11874-0.95625-0.11875-0.83334 0.00001-1.4708 0.28126-1.9125 0.84375-0.43751 0.56251-0.68751 1.4125-0.75 2.55 0.24583-0.36249 0.55416-0.63957 0.925-0.83125 0.37083-0.19582 0.77916-0.29374 1.225-0.29375 0.93749 0.00001 1.6771 0.28543 2.2188 0.85625 0.54582 0.56668 0.81874 1.3396 0.81875 2.3188-0.00001 0.95834-0.28334 1.7271-0.85 2.3062-0.56668 0.57917-1.3208 0.86875-2.2625 0.86875-1.0792 0-1.9042-0.41249-2.475-1.2375-0.57084-0.82916-0.85625-2.0292-0.85625-3.6 0-1.475 0.35-2.65 1.05-3.525 0.69999-0.87915 1.6396-1.3187 2.8188-1.3188 0.31666 0.00001 0.63541 0.0313 0.95625 0.0937 0.32499 0.0625 0.66249 0.15626 1.0125 0.28125"/>
  <path id="path3104" style="" d="m328.24 240.42h6v0.5375l-3.3875 8.7938h-1.3188l3.1875-8.2688h-4.4812v-1.0625"/>
  <path id="path3106" style="" d="m339.4 245.32c-0.60001 0.00001-1.0729 0.16043-1.4188 0.48125-0.34167 0.32084-0.5125 0.76251-0.5125 1.325 0 0.56251 0.17083 1.0042 0.5125 1.325 0.34583 0.32084 0.81874 0.48126 1.4188 0.48125 0.59999 0.00001 1.0729-0.16041 1.4188-0.48125 0.34582-0.32499 0.51874-0.76666 0.51875-1.325-0.00001-0.56249-0.17293-1.0042-0.51875-1.325-0.34167-0.32082-0.81459-0.48124-1.4188-0.48125m-1.2625-0.5375c-0.54167-0.13332-0.96459-0.38541-1.2688-0.75625-0.3-0.37082-0.45-0.82291-0.45-1.3562 0-0.74582 0.26458-1.3354 0.79375-1.7688 0.53333-0.43332 1.2625-0.64999 2.1875-0.65 0.92916 0.00001 1.6583 0.21668 2.1875 0.65 0.52916 0.43335 0.79374 1.0229 0.79375 1.7688-0.00001 0.53334-0.15209 0.98543-0.45625 1.3562-0.30001 0.37084-0.71876 0.62293-1.2562 0.75625 0.60832 0.14168 1.0812 0.41876 1.4188 0.83125 0.34166 0.41251 0.51249 0.91667 0.5125 1.5125-0.00001 0.90417-0.27709 1.5979-0.83125 2.0812-0.55001 0.48334-1.3396 0.725-2.3688 0.725s-1.8208-0.24166-2.375-0.725c-0.55-0.48333-0.825-1.1771-0.825-2.0812 0-0.59583 0.17083-1.1 0.5125-1.5125 0.34166-0.41249 0.81666-0.68957 1.425-0.83125m-0.4625-1.9938c0 0.48334 0.14999 0.86043 0.45 1.1312 0.30416 0.27084 0.72916 0.40626 1.275 0.40625 0.54166 0.00001 0.96458-0.13541 1.2688-0.40625 0.30833-0.27082 0.46249-0.64791 0.4625-1.1312-0.00001-0.48332-0.15417-0.8604-0.4625-1.1312-0.30417-0.27082-0.72709-0.40624-1.2688-0.40625-0.54584 0.00001-0.97084 0.13543-1.275 0.40625-0.30001 0.27085-0.45 0.64793-0.45 1.1312"/>
  <path id="path3108" style="" d="m344.87 240.42h4.9562v1.0625h-3.8v2.2875c0.18333-0.0625 0.36666-0.10832 0.55-0.1375 0.18333-0.0333 0.36666-0.05 0.55-0.05 1.0417 0.00001 1.8667 0.28543 2.475 0.85625 0.60832 0.57084 0.91249 1.3438 0.9125 2.3188-0.00001 1.0042-0.31251 1.7854-0.9375 2.3438-0.62501 0.55417-1.5063 0.83125-2.6438 0.83125-0.39167 0-0.79167-0.0333-1.2-0.1-0.40417-0.0667-0.82292-0.16666-1.2562-0.3v-1.2688c0.375 0.20417 0.7625 0.35626 1.1625 0.45625 0.39999 0.10001 0.82291 0.15001 1.2688 0.15 0.72083 0.00001 1.2917-0.18958 1.7125-0.56875 0.42082-0.37916 0.63124-0.89374 0.63125-1.5438-0.00001-0.64999-0.21043-1.1646-0.63125-1.5438-0.42084-0.37916-0.99167-0.56874-1.7125-0.56875-0.33751 0.00001-0.67501 0.0375-1.0125 0.1125-0.33334 0.075-0.675 0.19168-1.025 0.35v-4.6875"/>
 </g>
 <g id="text34">
  <path id="path3111" style="" d="m427.28 249.14v1.3312c-0.42501-0.39583-0.87918-0.69166-1.3625-0.8875-0.47918-0.19583-0.98959-0.29375-1.5312-0.29375-1.0667 0-1.8833 0.32709-2.45 0.98125-0.56667 0.65-0.85001 1.5917-0.85 2.825-0.00001 1.2292 0.28333 2.1708 0.85 2.825 0.56666 0.65 1.3833 0.975 2.45 0.975 0.54166 0 1.0521-0.0979 1.5312-0.29375 0.48332-0.19584 0.93749-0.49167 1.3625-0.8875v1.3188c-0.44168 0.3-0.91043 0.525-1.4062 0.675-0.49168 0.15-1.0125 0.225-1.5625 0.225-1.4125 0-2.525-0.43125-3.3375-1.2938-0.8125-0.86667-1.2188-2.0479-1.2188-3.5438 0-1.5 0.40625-2.6812 1.2188-3.5438 0.81249-0.86666 1.925-1.3 3.3375-1.3 0.55832 0 1.0833 0.075 1.575 0.225 0.49582 0.14584 0.96041 0.36667 1.3938 0.6625"/>
  <path id="path3113" style="" d="m430.64 247.51h1.2438l-2.0375 2.35h-0.95625l1.75-2.35m-1.4438 3.2375h1.15v7h-1.15v-7m0.575-0.16875"/>
  <path id="path3115" style="" d="m438.19 252.09c0.28749-0.51667 0.63124-0.89791 1.0312-1.1438 0.39999-0.24583 0.87082-0.36875 1.4125-0.36875 0.72915 0 1.2916 0.25625 1.6875 0.76875 0.39582 0.50833 0.59374 1.2333 0.59375 2.175v4.225h-1.1562v-4.1875c-0.00001-0.67083-0.11876-1.1688-0.35625-1.4938-0.23751-0.325-0.60001-0.4875-1.0875-0.4875-0.59585 0-1.0667 0.19792-1.4125 0.59375-0.34584 0.39583-0.51876 0.93542-0.51875 1.6188v3.9562h-1.1562v-4.1875c-0.00001-0.675-0.11876-1.1729-0.35625-1.4938-0.23751-0.325-0.60418-0.4875-1.1-0.4875-0.58751 0-1.0542 0.2-1.4 0.6-0.34584 0.39583-0.51876 0.93333-0.51875 1.6125v3.9562h-1.1562v-7h1.1562v1.0875c0.26249-0.42916 0.57708-0.74583 0.94375-0.95 0.36666-0.20416 0.80208-0.30625 1.3062-0.30625 0.50832 0 0.93957 0.12917 1.2938 0.3875 0.35832 0.25834 0.62291 0.63333 0.79375 1.125"/>
  <path id="path3117" style="" d="m444.72 250.75h5.4625v1.05l-4.325 5.0312h4.325v0.91875h-5.6188v-1.05l4.325-5.0312h-4.1688v-0.91875"/>
  <path id="path3119" style="" d="m457.93 253.96v0.5625h-5.2875c0.05 0.79166 0.28749 1.3958 0.7125 1.8125 0.42916 0.4125 1.025 0.61875 1.7875 0.61875 0.44166 0 0.86874-0.0542 1.2812-0.1625 0.41666-0.10834 0.82916-0.27084 1.2375-0.4875v1.0875c-0.41251 0.175-0.83543 0.30833-1.2688 0.4-0.43334 0.0917-0.87292 0.1375-1.3188 0.1375-1.1167 0-2.0021-0.325-2.6562-0.975-0.65-0.65-0.975-1.5292-0.975-2.6375 0-1.1458 0.30833-2.0542 0.925-2.725 0.62083-0.675 1.4562-1.0125 2.5062-1.0125 0.94166 0 1.6854 0.30417 2.2312 0.9125 0.54999 0.60417 0.82499 1.4271 0.825 2.4688m-1.15-0.3375c-0.008-0.62917-0.18543-1.1312-0.53125-1.5062-0.34167-0.375-0.79584-0.5625-1.3625-0.5625-0.64167 0-1.1563 0.18125-1.5438 0.54375-0.38334 0.3625-0.60417 0.87292-0.6625 1.5312l4.1-0.006"/>
  <path id="path3121" style="" d="m460.95 248.76v1.9875h2.3688v0.89375h-2.3688v3.8c-0.00001 0.57083 0.0771 0.9375 0.23125 1.1 0.15833 0.1625 0.47708 0.24375 0.95625 0.24375h1.1812v0.9625h-1.1812c-0.88751 0-1.5-0.16459-1.8375-0.49375-0.3375-0.33334-0.50625-0.9375-0.50625-1.8125v-3.8h-0.84375v-0.89375h0.84375v-1.9875h1.1562"/>
  <path id="path3123" style="" d="m465.98 248.76v1.9875h2.3688v0.89375h-2.3688v3.8c0 0.57083 0.0771 0.9375 0.23125 1.1 0.15834 0.1625 0.47709 0.24375 0.95625 0.24375h1.1812v0.9625h-1.1812c-0.8875 0-1.5-0.16459-1.8375-0.49375-0.3375-0.33334-0.50625-0.9375-0.50625-1.8125v-3.8h-0.84375v-0.89375h0.84375v-1.9875h1.1562"/>
  <path id="path3125" style="" d="m470.16 256.16h1.3188v1.5875h-1.3188v-1.5875m0-5.0312h1.3188v1.5875h-1.3188v-1.5875"/>
  <path id="path3127" style="" d="m420.62 272.69h2.0625v-7.1188l-2.2438 0.45v-1.15l2.2312-0.45h1.2625v8.2688h2.0625v1.0625h-5.375v-1.0625"/>
  <path id="path3129" style="" d="m428.57 264.42h4.9562v1.0625h-3.8v2.2875c0.18333-0.0625 0.36666-0.10833 0.55-0.1375 0.18333-0.0333 0.36666-0.05 0.55-0.05 1.0417 0 1.8667 0.28542 2.475 0.85625 0.60832 0.57083 0.91249 1.3438 0.9125 2.3188-0.00001 1.0042-0.31251 1.7854-0.9375 2.3438-0.62501 0.55416-1.5063 0.83125-2.6438 0.83125-0.39167 0-0.79167-0.0333-1.2-0.1-0.40417-0.0667-0.82292-0.16667-1.2562-0.3v-1.2688c0.375 0.20416 0.7625 0.35625 1.1625 0.45625 0.39999 0.1 0.82291 0.15 1.2688 0.15 0.72083 0 1.2917-0.18959 1.7125-0.56875 0.42082-0.37917 0.63124-0.89375 0.63125-1.5438-0.00001-0.65-0.21043-1.1646-0.63125-1.5438-0.42084-0.37917-0.99167-0.56875-1.7125-0.56875-0.33751 0-0.67501 0.0375-1.0125 0.1125-0.33334 0.075-0.675 0.19167-1.025 0.35v-4.6875"/>
  <path id="path3131" style="" d="m437.79 272.69h4.4062v1.0625h-5.925v-1.0625c0.47916-0.49584 1.1312-1.1604 1.9562-1.9938 0.82916-0.8375 1.35-1.3771 1.5625-1.6188 0.40416-0.45417 0.68541-0.8375 0.84375-1.15 0.16249-0.31667 0.24374-0.62708 0.24375-0.93125-0.00001-0.49583-0.17501-0.9-0.525-1.2125-0.34584-0.3125-0.79792-0.46875-1.3562-0.46875-0.39584 0-0.81459 0.0688-1.2562 0.20625-0.4375 0.1375-0.90625 0.34584-1.4062 0.625v-1.275c0.50833-0.20416 0.98333-0.35833 1.425-0.4625 0.44166-0.10416 0.84583-0.15625 1.2125-0.15625 0.96666 0 1.7375 0.24167 2.3125 0.725 0.57499 0.48334 0.86249 1.1292 0.8625 1.9375-0.00001 0.38334-0.0729 0.74792-0.21875 1.0938-0.14168 0.34167-0.40209 0.74583-0.78125 1.2125-0.10417 0.12083-0.43542 0.47083-0.99375 1.05-0.55834 0.575-1.3458 1.3812-2.3625 2.4188"/>
  <path id="path3133" style="" d="m444.85 272.16h1.3188v1.5875h-1.3188v-1.5875"/>
  <path id="path3135" style="" d="m451.79 268.58c-0.56667 0-1.0167 0.19375-1.35 0.58125-0.32917 0.3875-0.49375 0.91875-0.49375 1.5938 0 0.67083 0.16458 1.2021 0.49375 1.5938 0.33333 0.3875 0.78333 0.58125 1.35 0.58125 0.56666 0 1.0146-0.19375 1.3438-0.58125 0.33333-0.39167 0.49999-0.92292 0.5-1.5938-0.00001-0.675-0.16667-1.2062-0.5-1.5938-0.32917-0.3875-0.77709-0.58125-1.3438-0.58125m2.5062-3.9562v1.15c-0.31668-0.15-0.63751-0.26458-0.9625-0.34375-0.32084-0.0792-0.63959-0.11875-0.95625-0.11875-0.83334 0-1.4708 0.28125-1.9125 0.84375-0.4375 0.5625-0.6875 1.4125-0.75 2.55 0.24583-0.3625 0.55416-0.63958 0.925-0.83125 0.37083-0.19583 0.77916-0.29375 1.225-0.29375 0.93749 0 1.6771 0.28542 2.2188 0.85625 0.54582 0.56667 0.81874 1.3396 0.81875 2.3188-0.00001 0.95833-0.28334 1.7271-0.85 2.3062-0.56667 0.57916-1.3208 0.86875-2.2625 0.86875-1.0792 0-1.9042-0.4125-2.475-1.2375-0.57084-0.82917-0.85625-2.0292-0.85625-3.6 0-1.475 0.35-2.65 1.05-3.525 0.7-0.87916 1.6396-1.3188 2.8188-1.3188 0.31666 0 0.63541 0.0312 0.95625 0.0937 0.32499 0.0625 0.66249 0.15625 1.0125 0.28125"/>
  <path id="path3137" style="" d="m459.94 268.58c-0.56667 0-1.0167 0.19375-1.35 0.58125-0.32917 0.3875-0.49375 0.91875-0.49375 1.5938 0 0.67083 0.16458 1.2021 0.49375 1.5938 0.33333 0.3875 0.78333 0.58125 1.35 0.58125 0.56666 0 1.0146-0.19375 1.3438-0.58125 0.33333-0.39167 0.49999-0.92292 0.5-1.5938-0.00001-0.675-0.16667-1.2062-0.5-1.5938-0.32917-0.3875-0.77709-0.58125-1.3438-0.58125m2.5062-3.9562v1.15c-0.31667-0.15-0.63751-0.26458-0.9625-0.34375-0.32084-0.0792-0.63959-0.11875-0.95625-0.11875-0.83334 0-1.4708 0.28125-1.9125 0.84375-0.4375 0.5625-0.6875 1.4125-0.75 2.55 0.24583-0.3625 0.55416-0.63958 0.925-0.83125 0.37083-0.19583 0.77916-0.29375 1.225-0.29375 0.93749 0 1.6771 0.28542 2.2188 0.85625 0.54583 0.56667 0.81874 1.3396 0.81875 2.3188-0.00001 0.95833-0.28334 1.7271-0.85 2.3062-0.56667 0.57916-1.3208 0.86875-2.2625 0.86875-1.0792 0-1.9042-0.4125-2.475-1.2375-0.57084-0.82917-0.85625-2.0292-0.85625-3.6 0-1.475 0.35-2.65 1.05-3.525 0.7-0.87916 1.6396-1.3188 2.8188-1.3188 0.31666 0 0.63541 0.0312 0.95625 0.0937 0.32499 0.0625 0.66249 0.15625 1.0125 0.28125"/>
  <path id="path3139" style="" d="m465.23 272.16h1.3188v1.5875h-1.3188v-1.5875"/>
  <path id="path3141" style="" d="m468.99 264.42h6v0.5375l-3.3875 8.7938h-1.3188l3.1875-8.2688h-4.4812v-1.0625"/>
  <path id="path3143" style="" d="m478.54 272.69h4.4062v1.0625h-5.925v-1.0625c0.47916-0.49584 1.1312-1.1604 1.9562-1.9938 0.82916-0.8375 1.35-1.3771 1.5625-1.6188 0.40416-0.45417 0.68541-0.8375 0.84375-1.15 0.16249-0.31667 0.24374-0.62708 0.24375-0.93125-0.00001-0.49583-0.17501-0.9-0.525-1.2125-0.34584-0.3125-0.79792-0.46875-1.3562-0.46875-0.39584 0-0.81459 0.0688-1.2562 0.20625-0.4375 0.1375-0.90625 0.34584-1.4062 0.625v-1.275c0.50833-0.20416 0.98333-0.35833 1.425-0.4625 0.44166-0.10416 0.84583-0.15625 1.2125-0.15625 0.96666 0 1.7375 0.24167 2.3125 0.725 0.57499 0.48334 0.86249 1.1292 0.8625 1.9375-0.00001 0.38334-0.0729 0.74792-0.21875 1.0938-0.14167 0.34167-0.40209 0.74583-0.78125 1.2125-0.10417 0.12083-0.43542 0.47083-0.99375 1.05-0.55834 0.575-1.3458 1.3812-2.3625 2.4188"/>
  <path id="path3145" style="" d="m485.6 272.16h1.3188v1.5875h-1.3188v-1.5875"/>
  <path id="path3147" style="" d="m493.5 268.72c0.60416 0.12917 1.075 0.39792 1.4125 0.80625 0.34166 0.40833 0.51249 0.9125 0.5125 1.5125-0.00001 0.92083-0.31668 1.6333-0.95 2.1375-0.63334 0.50416-1.5333 0.75625-2.7 0.75625-0.39167 0-0.79584-0.0396-1.2125-0.11875-0.4125-0.075-0.83959-0.18959-1.2812-0.34375v-1.2188c0.35 0.20416 0.73333 0.35833 1.15 0.4625 0.41666 0.10416 0.85208 0.15625 1.3062 0.15625 0.79166 0 1.3937-0.15625 1.8062-0.46875 0.41666-0.3125 0.62499-0.76667 0.625-1.3625-0.00001-0.55-0.19376-0.97917-0.58125-1.2875-0.38334-0.3125-0.91876-0.46875-1.6062-0.46875h-1.0875v-1.0375h1.1375c0.62083 0 1.0958-0.12292 1.425-0.36875 0.32916-0.25 0.49374-0.60833 0.49375-1.075-0.00001-0.47916-0.17084-0.84583-0.5125-1.1-0.33751-0.25833-0.82292-0.3875-1.4562-0.3875-0.34584 0-0.71667 0.0375-1.1125 0.1125-0.39584 0.075-0.83125 0.19167-1.3062 0.35v-1.125c0.47916-0.13333 0.92708-0.23333 1.3438-0.3 0.42083-0.0667 0.81666-0.1 1.1875-0.1 0.95833 0 1.7167 0.21875 2.275 0.65625 0.55832 0.43334 0.83749 1.0208 0.8375 1.7625-0.00001 0.51667-0.14793 0.95417-0.44375 1.3125-0.29584 0.35417-0.71667 0.6-1.2625 0.7375"/>
  <path id="path3149" style="" d="m500.53 269.32c-0.6 0-1.0729 0.16042-1.4188 0.48125-0.34167 0.32083-0.5125 0.7625-0.5125 1.325s0.17083 1.0042 0.5125 1.325c0.34583 0.32083 0.81875 0.48125 1.4188 0.48125 0.59999 0 1.0729-0.16042 1.4188-0.48125 0.34583-0.325 0.51874-0.76667 0.51875-1.325-0.00001-0.5625-0.17292-1.0042-0.51875-1.325-0.34167-0.32083-0.81459-0.48125-1.4188-0.48125m-1.2625-0.5375c-0.54167-0.13333-0.96459-0.38542-1.2688-0.75625-0.3-0.37083-0.45-0.82291-0.45-1.3562 0-0.74583 0.26458-1.3354 0.79375-1.7688 0.53333-0.43333 1.2625-0.65 2.1875-0.65 0.92916 0 1.6583 0.21667 2.1875 0.65 0.52916 0.43334 0.79374 1.0229 0.79375 1.7688-0.00001 0.53334-0.15209 0.98542-0.45625 1.3562-0.30001 0.37083-0.71876 0.62292-1.2562 0.75625 0.60833 0.14167 1.0812 0.41875 1.4188 0.83125 0.34166 0.4125 0.51249 0.91667 0.5125 1.5125-0.00001 0.90416-0.27709 1.5979-0.83125 2.0812-0.55001 0.48333-1.3396 0.725-2.3688 0.725s-1.8208-0.24167-2.375-0.725c-0.55-0.48334-0.825-1.1771-0.825-2.0812 0-0.59583 0.17083-1.1 0.5125-1.5125 0.34166-0.4125 0.81666-0.68958 1.425-0.83125m-0.4625-1.9938c0 0.48334 0.15 0.86042 0.45 1.1312 0.30416 0.27083 0.72916 0.40625 1.275 0.40625 0.54166 0 0.96458-0.13542 1.2688-0.40625 0.30833-0.27083 0.46249-0.64791 0.4625-1.1312-0.00001-0.48333-0.15417-0.86041-0.4625-1.1312-0.30417-0.27083-0.72709-0.40625-1.2688-0.40625-0.54584 0-0.97084 0.13542-1.275 0.40625-0.3 0.27084-0.45 0.64792-0.45 1.1312"/>
  <path id="path3151" style="" d="m420.62 288.69h2.0625v-7.1188l-2.2438 0.45v-1.15l2.2312-0.45h1.2625v8.2688h2.0625v1.0625h-5.375v-1.0625"/>
  <path id="path3153" style="" d="m428.77 288.69h2.0625v-7.1188l-2.2438 0.45v-1.15l2.2312-0.45h1.2625v8.2688h2.0625v1.0625h-5.375v-1.0625"/>
  <path id="path3155" style="" d="m437.79 288.69h4.4062v1.0625h-5.925v-1.0625c0.47916-0.49584 1.1312-1.1604 1.9562-1.9938 0.82916-0.8375 1.35-1.3771 1.5625-1.6188 0.40416-0.45417 0.68541-0.8375 0.84375-1.15 0.16249-0.31667 0.24374-0.62708 0.24375-0.93125-0.00001-0.49583-0.17501-0.9-0.525-1.2125-0.34584-0.3125-0.79792-0.46875-1.3562-0.46875-0.39584 0-0.81459 0.0688-1.2562 0.20625-0.4375 0.1375-0.90625 0.34584-1.4062 0.625v-1.275c0.50833-0.20416 0.98333-0.35833 1.425-0.4625 0.44166-0.10416 0.84583-0.15625 1.2125-0.15625 0.96666 0 1.7375 0.24167 2.3125 0.725 0.57499 0.48334 0.86249 1.1292 0.8625 1.9375-0.00001 0.38334-0.0729 0.74792-0.21875 1.0938-0.14168 0.34167-0.40209 0.74583-0.78125 1.2125-0.10417 0.12083-0.43542 0.47083-0.99375 1.05-0.55834 0.575-1.3458 1.3812-2.3625 2.4188"/>
  <path id="path3157" style="" d="m444.89 289.56v-1.15c0.31666 0.15 0.63749 0.26458 0.9625 0.34375 0.32499 0.0792 0.64374 0.11875 0.95625 0.11875 0.83333 0 1.4687-0.27917 1.9062-0.8375 0.44166-0.5625 0.69374-1.4146 0.75625-2.5562-0.24168 0.35833-0.54793 0.63333-0.91875 0.825-0.37084 0.19167-0.78126 0.2875-1.2312 0.2875-0.93334 0-1.6729-0.28125-2.2188-0.84375-0.54167-0.56667-0.8125-1.3396-0.8125-2.3188 0-0.95833 0.28333-1.7271 0.85-2.3062 0.56666-0.57916 1.3208-0.86875 2.2625-0.86875 1.0792 0 1.9021 0.41459 2.4688 1.2438 0.57082 0.825 0.85624 2.025 0.85625 3.6-0.00001 1.4708-0.35001 2.6458-1.05 3.525-0.69584 0.875-1.6333 1.3125-2.8125 1.3125-0.31667 0-0.63751-0.0312-0.9625-0.0937-0.32501-0.0625-0.6625-0.15625-1.0125-0.28125m2.5125-3.9562c0.56666 0 1.0146-0.19375 1.3438-0.58125 0.33332-0.3875 0.49999-0.91875 0.5-1.5938-0.00001-0.67083-0.16668-1.2-0.5-1.5875-0.32917-0.39166-0.77709-0.5875-1.3438-0.5875-0.56667 0-1.0167 0.19584-1.35 0.5875-0.32917 0.3875-0.49376 0.91667-0.49375 1.5875-0.00001 0.675 0.16458 1.2062 0.49375 1.5938 0.33333 0.3875 0.78333 0.58125 1.35 0.58125"/>
  <path id="path3159" style="" d="m452.69 280.42h6v0.5375l-3.3875 8.7938h-1.3188l3.1875-8.2688h-4.4812v-1.0625"/>
 </g>
 <g id="text42">
  <path id="path3162" style="" d="m40.148 341.15h2.9104v-10.045l-3.1662 0.635v-1.6228l3.1485-0.635h1.7815v11.668h2.9104v1.4993h-7.5847v-1.4993"/>
  <path id="path3164" style="" d="m51.393 342.38v-1.6228c0.44685 0.21167 0.89958 0.37336 1.3582 0.48507 0.45861 0.11171 0.9084 0.16757 1.3494 0.16757 1.1759 0 2.0726-0.39393 2.6899-1.1818 0.62323-0.79375 0.97895-1.9961 1.0672-3.6072-0.34103 0.50565-0.77318 0.8937-1.2965 1.1642-0.52329 0.27047-1.1024 0.4057-1.7374 0.4057-1.317 0-2.3607-0.39687-3.1309-1.1906-0.76435-0.79962-1.1465-1.8903-1.1465-3.272-0.000001-1.3523 0.39981-2.4371 1.1994-3.2544 0.79962-0.81725 1.8638-1.2259 3.1926-1.2259 1.5228 0.00001 2.684 0.58504 3.4837 1.7551 0.8055 1.1642 1.2083 2.8575 1.2083 5.08-0.000011 2.0755-0.4939 3.7336-1.4817 4.9742-0.9819 1.2347-2.3048 1.8521-3.9687 1.8521-0.44686 0-0.89959-0.0441-1.3582-0.13229-0.45861-0.0882-0.93486-0.22048-1.4287-0.39687m3.5454-5.5827c0.79962 0 1.4317-0.2734 1.8962-0.82021 0.47036-0.5468 0.70555-1.2964 0.70556-2.249-0.000008-0.94661-0.23519-1.6933-0.70556-2.2401-0.4645-0.55268-1.0966-0.82902-1.8962-0.82903-0.79963 0.00001-1.4346 0.27635-1.905 0.82903-0.46449 0.54681-0.69674 1.2935-0.69674 2.2401-0.000003 0.95251 0.23224 1.7022 0.69674 2.249 0.47037 0.54681 1.1054 0.82021 1.905 0.82021"/>
  <path id="path3166" style="" d="m64.375 341.15h6.2177v1.4993h-8.3608v-1.4993c0.67616-0.69968 1.5963-1.6375 2.7605-2.8134 1.17-1.1818 1.905-1.9432 2.2049-2.2842 0.57032-0.64087 0.96719-1.1818 1.1906-1.6228 0.2293-0.44685 0.34395-0.88488 0.34396-1.3141-0.000008-0.69966-0.24695-1.27-0.74083-1.711-0.48802-0.44096-1.126-0.66144-1.9138-0.66146-0.55857 0.00002-1.1495 0.097-1.7727 0.29105-0.61736 0.19403-1.2788 0.48801-1.9844 0.88194v-1.7992c0.71731-0.28808 1.3876-0.50563 2.0108-0.65263 0.62324-0.14698 1.1936-0.22048 1.711-0.22049 1.3641 0.00001 2.4518 0.34103 3.2632 1.023 0.81138 0.68205 1.2171 1.5934 1.2171 2.734-0.000009 0.54093-0.1029 1.0554-0.30868 1.5434-0.19992 0.48214-0.56739 1.0525-1.1024 1.711-0.147 0.17052-0.61443 0.6644-1.4023 1.4817-0.78788 0.8114-1.8991 1.9491-3.3337 3.4131"/>
  <path id="path3168" style="" d="m74.341 340.41h1.8609v2.2401h-1.8609v-2.2401"/>
  <path id="path3170" style="" d="m83.901 330.65c-0.91723 0.00001-1.6081 0.45274-2.0726 1.3582-0.45861 0.89959-0.68792 2.2548-0.68792 4.0658-0.000003 1.805 0.2293 3.1603 0.68792 4.0658 0.46449 0.89958 1.1553 1.3494 2.0726 1.3494 0.92309 0 1.6139-0.44979 2.0726-1.3494 0.46448-0.90546 0.69673-2.2607 0.69674-4.0658-0.000009-1.8109-0.23225-3.1662-0.69674-4.0658-0.45862-0.90545-1.1495-1.3582-2.0726-1.3582m0-1.4111c1.4758 0.00001 2.6017 0.58504 3.3778 1.7551 0.78198 1.1642 1.173 2.8575 1.173 5.08-0.00001 2.2166-0.391 3.91-1.173 5.08-0.77612 1.1642-1.9021 1.7462-3.3778 1.7462-1.4758 0-2.6047-0.58208-3.3867-1.7462-0.77611-1.17-1.1642-2.8634-1.1642-5.08-0.000002-2.2225 0.38805-3.9158 1.1642-5.08 0.78199-1.17 1.9109-1.7551 3.3867-1.7551"/>
  <path id="path3172" style="" d="m91.592 340.41h1.8609v2.2401h-1.8609v-2.2401"/>
  <path id="path3174" style="" d="m98.877 341.15h6.2177v1.4993h-8.3608v-1.4993c0.67615-0.69968 1.5963-1.6375 2.7605-2.8134 1.17-1.1818 1.905-1.9432 2.2049-2.2842 0.57032-0.64087 0.96719-1.1818 1.1906-1.6228 0.22929-0.44685 0.34395-0.88488 0.34395-1.3141 0-0.69966-0.24695-1.27-0.74083-1.711-0.48801-0.44096-1.126-0.66144-1.9138-0.66146-0.55857 0.00002-1.1495 0.097-1.7727 0.29105-0.61736 0.19403-1.2788 0.48801-1.9844 0.88194v-1.7992c0.71731-0.28808 1.3876-0.50563 2.0108-0.65263 0.62324-0.14698 1.1936-0.22048 1.711-0.22049 1.3641 0.00001 2.4518 0.34103 3.2632 1.023 0.81138 0.68205 1.2171 1.5934 1.2171 2.734-0.00001 0.54093-0.1029 1.0554-0.30868 1.5434-0.19992 0.48214-0.56739 1.0525-1.1024 1.711-0.147 0.17052-0.61443 0.6644-1.4023 1.4817-0.78788 0.8114-1.8991 1.9491-3.3337 3.4131"/>
  <path id="path3176" style="" d="m108.84 340.41h1.8609v2.2401h-1.8609v-2.2401"/>
  <path id="path3178" style="" d="m114.9 341.15h2.9104v-10.045l-3.1662 0.635v-1.6228l3.1485-0.635h1.7815v11.668h2.9104v1.4993h-7.5847v-1.4993"/>
 </g>
 <g id="g46" transform="translate(-.96485 -14.151)">
  <path id="path48" d="m31.151 266.5h121.65l-51.15 51.324h-121.65l51.151-51.324z" fill="#c9c9b6"/>
  <path id="path50" d="m31.151 266.5h121.65l-51.15 51.324h-121.65l51.151-51.324" stroke="#494936" stroke-width=".02" fill="none"/>
  <path id="path52" d="m35.821 309.16v0.273l0.0497 0.224 0.0745 0.298 0.0994 0.298 0.149 0.224 0.1739 0.273 0.2236 0.248 0.2236 0.224 0.2236 0.273 0.2981 0.274 0.2981 0.223 0.3229 0.199 0.3727 0.199 0.3478 0.223 0.4471 0.174 0.3975 0.224 0.4472 0.174 0.4968 0.174 0.4969 0.149 0.472 0.149 0.5217 0.149 0.5217 0.149 0.5465 0.074 0.5962 0.1 0.5714 0.049 0.5962 0.1 0.5466 0.074 0.621 0.075 0.6211 0.025 0.5962 0.024h0.5962" stroke="#dbdbce" stroke-width=".02" fill="none"/>
  <path id="path54" d="m46.454 314.47h0.5962l0.5714-0.024 0.5713-0.05 0.5963-0.075 0.5962-0.049 0.5465-0.1 0.5466-0.049 0.5713-0.125 0.5217-0.124 0.5466-0.149 0.472-0.149 0.4968-0.149 0.472-0.174 0.4472-0.174 0.3975-0.174 0.4223-0.198 0.3975-0.224 0.3478-0.199 0.3478-0.248 0.2981-0.249 0.2732-0.248 0.2236-0.224 0.2484-0.273 0.1988-0.273 0.149-0.224 0.1739-0.273 0.0746-0.323 0.0745-0.273 0.0745-0.249 0.0249-0.273" stroke="#dbdbce" stroke-width=".02" fill="none"/>
  <path id="path56" d="m49.087 299.19h-0.6211l-0.5962 0.025h-0.6211l-0.5465 0.05-0.5962 0.074-0.5962 0.05-0.5714 0.05-0.5962 0.124-0.5217 0.099-0.5217 0.075-0.5217 0.124-0.5217 0.149-0.472 0.124-0.4472 0.149-0.4471 0.199-0.4969 0.149-0.3478 0.174-0.3975 0.149-0.3726 0.199-0.2981 0.223-0.323 0.199-0.2732 0.174-0.2733 0.224-0.1987 0.223-0.1988 0.249-0.1987 0.223-0.0994 0.199-0.1242 0.248-0.0745 0.199-0.0249 0.273-0.0248 0.199" stroke="#dbdbce" stroke-width=".02" fill="none"/>
  <path id="path58" d="m59.024 303.79v-0.223l-0.0249-0.249-0.0993-0.223-0.0994-0.274-0.1242-0.198-0.1988-0.274-0.1987-0.198-0.1987-0.249-0.2981-0.174-0.2236-0.248-0.2981-0.199-0.3975-0.174-0.323-0.248-0.3726-0.124-0.3975-0.199-0.4472-0.199-0.472-0.149-0.472-0.149-0.472-0.124-0.4968-0.1-0.5217-0.124-0.5466-0.124-0.5216-0.075-0.5466-0.099-0.5465-0.05-0.5714-0.074-0.5962-0.05h-0.6211l-0.5962-0.025h-0.5714" stroke="#dbdbce" stroke-width=".02" fill="none"/>
  <path id="path60" d="m-20 323.14h121.65v-5.316h-121.65v5.316z" fill="#a5a585"/>
  <path id="path62" d="m-20 323.14h121.65v-5.316h-121.65v5.316" stroke="#494936" stroke-width=".02" fill="none"/>
  <path id="path64" d="m31.151 266.5h121.65v-83.223h-121.65v83.223z" fill="#a5a585"/>
  <path id="path66" d="m31.151 266.5h121.65v-83.223h-121.65v83.223" stroke="#494936" stroke-width=".02" fill="none"/>
  <path id="path68" d="m156.13 263.22v-83.222l-3.329 3.279v83.223l3.329-3.28z" fill="#7a7a5a"/>
  <path id="path70" d="m156.13 263.22v-83.222l-3.329 3.279v83.223l3.329-3.28" stroke="#494936" stroke-width=".02" fill="none"/>
  <path id="path72" d="m37.163 261.21h109.68v-71.248h-109.68v71.248z" fill="#fff"/>
  <path id="path74" d="m37.163 261.21h109.68v-71.248h-109.68v71.248" stroke="#494936" stroke-width=".02" fill="none"/>
  <path id="path76" d="m37.163 270.53h102.33l-26.582 26.656h-102.33l26.582-26.656z" fill="#93936c"/>
  <path id="path78" d="m37.163 270.53h102.33l-26.582 26.656h-102.33l26.582-26.656" stroke="#494936" stroke-width=".02" fill="none"/>
  <path id="path80" d="m53.087 307.47v-0.149l-0.0248-0.149-0.0249-0.149-0.0745-0.174-0.0248-0.149-0.0994-0.124-0.0497-0.15-0.1242-0.099-0.1242-0.149-0.0745-0.149-0.1243-0.124-0.149-0.124-0.1491-0.15-0.1739-0.124-0.149-0.074-0.1739-0.124-0.1988-0.1-0.2235-0.074-0.1739-0.125-0.2236-0.049-0.2236-0.1-0.1987-0.049-0.2485-0.075-0.2235-0.05-0.2733-0.049-0.2236-0.075-0.2484-0.025h-0.2236l-0.2484-0.024h-0.2981-0.1988-0.2732-0.2733l-0.2236 0.024h-0.2484l-0.2236 0.025-0.2733 0.075-0.2236 0.049-0.2484 0.05-0.2236 0.075-0.2235 0.049-0.1988 0.1-0.2484 0.049-0.1739 0.125-0.1987 0.074-0.1988 0.1-0.1739 0.124-0.149 0.074-0.1739 0.124-0.1491 0.15-0.1242 0.124-0.1739 0.124-0.0745 0.149-0.1491 0.149-0.0745 0.099-0.0745 0.15-0.0746 0.124-0.0497 0.149-0.0248 0.174-0.0497 0.149-0.0497 0.149v0.149 0.174l0.0497 0.149 0.0497 0.149 0.0248 0.149 0.0497 0.149 0.0746 0.124 0.0745 0.174 0.0745 0.124 0.1491 0.149 0.0745 0.1 0.1739 0.149 0.1242 0.124 0.1491 0.149 0.1739 0.099 0.149 0.1 0.1739 0.124 0.1988 0.099 0.1987 0.075 0.1739 0.124 0.2484 0.05 0.1988 0.099 0.2235 0.05 0.2236 0.074 0.2484 0.05 0.2236 0.05 0.2733 0.049 0.2236 0.05h0.2484 0.2236l0.2733 0.025h0.2732 0.1988l0.2981-0.025h0.2484 0.2236l0.2484-0.05 0.2236-0.049 0.2733-0.05 0.2235-0.05 0.2485-0.074 0.1987-0.05 0.2236-0.099 0.2236-0.05 0.1739-0.124 0.2235-0.075 0.1988-0.099 0.1739-0.124 0.149-0.1 0.1739-0.099 0.1491-0.149 0.149-0.124 0.1243-0.149 0.0745-0.1 0.1242-0.149 0.1242-0.124 0.0497-0.174 0.0994-0.124 0.0248-0.149 0.0745-0.149 0.0249-0.149 0.0248-0.149v-0.174z" fill="#7a7a5a"/>
  <path id="path82" d="m52.441 307.17v-0.149l-0.0248-0.149v-0.125l-0.0746-0.099-0.0496-0.199-0.0249-0.074-0.1242-0.149-0.0994-0.149-0.0745-0.1-0.0994-0.099-0.149-0.099-0.1242-0.174-0.1491-0.1-0.149-0.074-0.1243-0.124-0.1987-0.1-0.149-0.05-0.1739-0.124-0.1739-0.049-0.2236-0.1-0.1988-0.049-0.2235-0.05-0.1988-0.075-0.2236-0.049-0.2236-0.025-0.2484-0.075-0.1987-0.025-0.2733-0.024h-0.1987-0.2484-0.2236-0.2485-0.2235-0.2485l-0.1987 0.024-0.2484 0.025-0.1988 0.075-0.2732 0.025-0.1988 0.049-0.1739 0.075-0.2484 0.05-0.1987 0.049-0.2485 0.1-0.1242 0.049-0.2236 0.124-0.149 0.05-0.1739 0.1-0.1491 0.124-0.149 0.074-0.1491 0.1-0.1242 0.174-0.1242 0.099-0.0994 0.099-0.1242 0.1-0.0497 0.149-0.0993 0.149-0.0497 0.074-0.0497 0.199-0.0497 0.099-0.0248 0.125-0.0249 0.149v0.149 0.124l0.0249 0.149 0.0248 0.149 0.0497 0.075 0.0497 0.149 0.0497 0.149 0.0993 0.124 0.0497 0.124 0.1242 0.149 0.0994 0.075 0.1242 0.124 0.1242 0.124 0.1491 0.124 0.149 0.075 0.1491 0.124 0.1739 0.075 0.149 0.099 0.2236 0.099 0.1242 0.05 0.2485 0.099 0.1987 0.075 0.2484 0.025 0.1739 0.074 0.1988 0.05 0.2732 0.025 0.1988 0.074 0.2484 0.05h0.1987 0.2485 0.2235 0.2485 0.2236 0.2484 0.1987 0.2733l0.1987-0.05 0.2484-0.074 0.2236-0.025 0.2236-0.05 0.1988-0.074 0.2235-0.025 0.1988-0.075 0.2236-0.099 0.1739-0.05 0.1739-0.099 0.149-0.099 0.1987-0.075 0.1243-0.124 0.149-0.075 0.1491-0.124 0.1242-0.124 0.149-0.124 0.0994-0.075 0.0745-0.149 0.0994-0.124 0.1242-0.124 0.0249-0.149 0.0496-0.149 0.0746-0.075v-0.149l0.0248-0.149v-0.124" stroke="#dbdbce" stroke-width=".02" fill="none"/>
  <path id="path84" d="m36.517 309.8v0.298l0.0497 0.224 0.0993 0.273 0.0746 0.298 0.149 0.249 0.1491 0.223 0.2236 0.273 0.2235 0.274 0.2485 0.223 0.2484 0.249 0.3229 0.223 0.2981 0.249 0.3975 0.198 0.3727 0.199 0.3974 0.174 0.4224 0.224 0.472 0.174 0.4223 0.173 0.5465 0.149 0.4969 0.15 0.5217 0.173 0.5217 0.125 0.5465 0.074 0.5465 0.1 0.5963 0.099 0.5713 0.05 0.5714 0.099 0.5962 0.05 0.6211 0.024h0.5962 0.5962" stroke="#626248" stroke-width=".02" fill="none"/>
  <path id="path86" d="m47.075 315.09h0.6211 0.5714l0.621-0.049 0.5466-0.075 0.5713-0.049 0.5963-0.05 0.5217-0.099 0.5713-0.125 0.4969-0.124 0.5465-0.099 0.5217-0.149 0.472-0.149 0.472-0.174 0.4472-0.224 0.4472-0.174 0.3726-0.198 0.3975-0.199 0.3478-0.249 0.3229-0.198 0.323-0.274 0.2732-0.198 0.2733-0.249 0.2236-0.298 0.1491-0.273 0.2235-0.224 0.0994-0.298 0.1242-0.273 0.0994-0.298v-0.224l0.0497-0.298" stroke="#626248" stroke-width=".02" fill="none"/>
  <path id="path88" d="m49.733 299.84h-0.5714l-0.5962 0.025h-0.5962l-0.5963 0.05-0.621 0.074-0.5962 0.025-0.5217 0.099-0.5962 0.075-0.5466 0.149-0.5217 0.05-0.5217 0.149-0.4968 0.099-0.4969 0.174-0.4471 0.149-0.4472 0.149-0.472 0.149-0.3726 0.174-0.3975 0.174-0.3478 0.224-0.323 0.198-0.2981 0.174-0.2981 0.249-0.2981 0.174-0.1739 0.198-0.1987 0.274-0.1739 0.198-0.1491 0.249-0.0994 0.198-0.0745 0.224-0.0248 0.273-0.0249 0.249" stroke="#626248" stroke-width=".02" fill="none"/>
  <path id="path90" d="m59.72 304.49-0.0497-0.274-0.0249-0.248-0.0496-0.224-0.1243-0.248-0.149-0.224-0.1739-0.248-0.1988-0.199-0.2235-0.223-0.2485-0.249-0.2981-0.198-0.2981-0.224-0.3229-0.199-0.3975-0.174-0.3478-0.174-0.4223-0.173-0.3975-0.199-0.4472-0.149-0.472-0.124-0.5217-0.15-0.4968-0.099-0.4969-0.149-0.5217-0.099-0.5465-0.1-0.5962-0.099-0.5217-0.05-0.5714-0.074-0.5962-0.05h-0.6211l-0.5465-0.025h-0.6211" stroke="#626248" stroke-width=".02" fill="none"/>
  <path id="path92" d="m152.8 271.17-51.15 51.325v-4.671l51.15-51.324v4.67z" fill="#7a7a5a"/>
  <path id="path94" d="m152.8 271.17-51.15 51.325v-4.671l51.15-51.324v4.67" stroke="#494936" stroke-width=".02" fill="none"/>
  <path id="path96" d="m135.54 262.58v1.267h9.962v-1.267h-9.962z" fill="#7a7a5a"/>
  <path id="path98" d="m135.54 262.58v1.267h9.962v-1.267h-9.962" stroke="#494936" stroke-width=".02" fill="none"/>
  <path id="path100" d="m132.81 277.18h-101.66" stroke="#000" stroke-width=".02" fill="none"/>
  <path id="path102" d="m126.2 283.87h-101.66" stroke="#000" stroke-width=".02" fill="none"/>
  <path id="path104" d="m119.56 290.52h-101.68" stroke="#000" stroke-width=".02" fill="none"/>
  <path id="path106" d="m34.48 180h121.65l-3.329 3.279h-121.65l3.3289-3.279z" fill="#c9c9b6"/>
  <path id="path108" d="m34.48 180h121.65l-3.329 3.279h-121.65l3.3289-3.279" stroke="#494936" stroke-width=".02" fill="none"/>
 </g>
 <g id="text110">
  <path id="path3181" style="" d="m623.99 332.77h1.6228v9.8778h-1.6228v-9.8778m0-3.8453h1.6228v2.0549h-1.6228v-2.0549"/>
  <path id="path3183" style="" d="m637.21 336.69v5.9619h-1.6228v-5.909c-0.00001-0.93485-0.18228-1.6345-0.54681-2.099-0.36454-0.46448-0.91134-0.69672-1.6404-0.69673-0.87607 0.00001-1.5669 0.27929-2.0726 0.83784-0.50565 0.55858-0.75847 1.32-0.75847 2.2842v5.5827h-1.6316v-9.8778h1.6316v1.5346c0.38805-0.59383 0.84372-1.0377 1.367-1.3317 0.52916-0.29397 1.1377-0.44096 1.8256-0.44097 1.1348 0.00001 1.9932 0.35279 2.5753 1.0583 0.58207 0.69968 0.87312 1.7316 0.87312 3.0956"/>
  <path id="path3185" style="" d="m645.47 328.93v1.3494h-1.5522c-0.58209 0.00002-0.98779 0.11761-1.2171 0.35278-0.22343 0.2352-0.33514 0.65853-0.33514 1.27v0.87312h2.6723v1.2612h-2.6723v8.6166h-1.6316v-8.6166h-1.5522v-1.2612h1.5522v-0.68791c0-1.0995 0.25576-1.8991 0.76729-2.3989 0.51152-0.50563 1.3229-0.75846 2.4342-0.75847h1.5346"/>
  <path id="path3187" style="" d="m650.64 333.91c-0.87019 0.00001-1.5581 0.34103-2.0637 1.023-0.50565 0.67617-0.75848 1.6052-0.75848 2.787s0.24989 2.1137 0.74966 2.7958c0.50564 0.67615 1.1965 1.0142 2.0726 1.0142 0.8643 0 1.5493-0.34102 2.0549-1.023 0.50564-0.68204 0.75846-1.611 0.75847-2.7869-0.00001-1.17-0.25283-2.0961-0.75847-2.7781-0.50565-0.6879-1.1906-1.0319-2.0549-1.0319m0-1.3758c1.4111 0.00001 2.5194 0.45862 3.3249 1.3758 0.8055 0.91723 1.2082 2.1872 1.2083 3.81-0.00001 1.6169-0.40276 2.8869-1.2083 3.81-0.80552 0.91722-1.9138 1.3758-3.3249 1.3758-1.417 0-2.5282-0.45861-3.3337-1.3758-0.79963-0.9231-1.1994-2.1931-1.1994-3.81 0-1.6228 0.39982-2.8928 1.1994-3.81 0.8055-0.91721 1.9168-1.3758 3.3337-1.3758"/>
  <path id="path3189" style="" d="m664.97 333.15v1.5169c-0.45861-0.25281-0.92016-0.44096-1.3846-0.56444-0.45861-0.12935-0.9231-0.19402-1.3935-0.19403-1.0525 0.00001-1.8697 0.33515-2.4518 1.0054-0.58209 0.6644-0.87313 1.5993-0.87312 2.8046-0.00001 1.2053 0.29103 2.1431 0.87312 2.8134 0.58208 0.66439 1.3993 0.99659 2.4518 0.99659 0.47037 0 0.93486-0.0617 1.3935-0.18521 0.46449-0.12935 0.92604-0.32043 1.3846-0.57326v1.4993c-0.45274 0.21167-0.9231 0.37042-1.4111 0.47625-0.48213 0.10584-0.9966 0.15875-1.5434 0.15875-1.4876 0-2.6694-0.46743-3.5454-1.4023-0.87606-0.93485-1.3141-2.196-1.3141-3.7835-0.00001-1.611 0.44097-2.8781 1.3229-3.8012 0.88782-0.92309 2.102-1.3846 3.6424-1.3846 0.49976 0.00001 0.98777 0.0529 1.464 0.15875 0.47624 0.1 0.93779 0.25283 1.3846 0.45861"/>
  <path id="path3191" style="" d="m668.03 340.41h1.8609v2.2401h-1.8609v-2.2401"/>
  <path id="path3193" style="" d="m682 337.3v0.79375h-7.4612c0.0706 1.1171 0.40569 1.9697 1.0054 2.5576 0.60559 0.58208 1.4464 0.87312 2.5224 0.87312 0.62324 0 1.2259-0.0764 1.808-0.2293 0.58795-0.15287 1.17-0.38218 1.7462-0.68792v1.5346c-0.5821 0.24695-1.1789 0.43509-1.7904 0.56445-0.61149 0.12935-1.2318 0.19402-1.8609 0.19402-1.5757 0-2.8252-0.45861-3.7483-1.3758-0.91722-0.91722-1.3758-2.1578-1.3758-3.7218 0-1.6169 0.43509-2.8986 1.3053-3.8453 0.87607-0.95249 2.0549-1.4287 3.5366-1.4288 1.3288 0.00001 2.3783 0.42922 3.1485 1.2876 0.7761 0.85255 1.1642 2.0138 1.1642 3.4837m-1.6228-0.47625c-0.0118-0.88781-0.26166-1.5963-0.74966-2.1255-0.48213-0.52916-1.123-0.79374-1.9226-0.79375-0.90547 0.00001-1.6316 0.25577-2.1784 0.76729-0.54093 0.51154-0.85255 1.2318-0.93486 2.1608l5.7856-0.009"/>
  <path id="path3195" style="" d="m693.12 337.3v0.79375h-7.4612c0.0706 1.1171 0.40569 1.9697 1.0054 2.5576 0.6056 0.58208 1.4464 0.87312 2.5224 0.87312 0.62323 0 1.2259-0.0764 1.808-0.2293 0.58796-0.15287 1.17-0.38218 1.7462-0.68792v1.5346c-0.58209 0.24695-1.1789 0.43509-1.7904 0.56445-0.61148 0.12935-1.2318 0.19402-1.8609 0.19402-1.5757 0-2.8252-0.45861-3.7483-1.3758-0.91722-0.91722-1.3758-2.1578-1.3758-3.7218 0-1.6169 0.43509-2.8986 1.3053-3.8453 0.87606-0.95249 2.0549-1.4287 3.5366-1.4288 1.3288 0.00001 2.3783 0.42922 3.1485 1.2876 0.7761 0.85255 1.1642 2.0138 1.1642 3.4837m-1.6228-0.47625c-0.0118-0.88781-0.26165-1.5963-0.74965-2.1255-0.48214-0.52916-1.123-0.79374-1.9226-0.79375-0.90547 0.00001-1.6316 0.25577-2.1784 0.76729-0.54093 0.51154-0.85255 1.2318-0.93486 2.1608l5.7856-0.009"/>
  <path id="path3197" style="" d="m697.39 329.97v2.8046h3.3426v1.2612h-3.3426v5.3622c0 0.80551 0.10877 1.3229 0.32632 1.5522 0.22342 0.22931 0.67321 0.34396 1.3494 0.34396h1.6669v1.3582h-1.6669c-1.2524 0-2.1167-0.23225-2.5929-0.69674-0.47625-0.47036-0.71437-1.3229-0.71437-2.5576v-5.3622h-1.1906v-1.2612h1.1906v-2.8046h1.6316"/>
  <path id="path3199" style="" d="m703.1 340.41h1.8609v2.2401h-1.8609v-2.2401"/>
  <path id="path3201" style="" d="m715.71 337.72c0-1.1936-0.24695-2.1284-0.74083-2.8046-0.48801-0.68203-1.1612-1.023-2.0196-1.0231-0.85843 0.00001-1.5346 0.34103-2.0285 1.0231-0.48801 0.67616-0.73201 1.611-0.73201 2.8046s0.244 2.1314 0.73201 2.8134c0.49389 0.67615 1.17 1.0142 2.0285 1.0142 0.85842 0 1.5316-0.33808 2.0196-1.0142 0.49388-0.68204 0.74083-1.6198 0.74083-2.8134m-5.521-3.4484c0.34101-0.58796 0.77023-1.023 1.2876-1.3053 0.52328-0.28809 1.1465-0.43214 1.8697-0.43215 1.1994 0.00001 2.1725 0.47626 2.9192 1.4288 0.75258 0.9525 1.1289 2.2049 1.1289 3.7571-0.00001 1.5522-0.37631 2.8046-1.1289 3.7571-0.74672 0.9525-1.7198 1.4288-2.9192 1.4288-0.7232 0-1.3464-0.14111-1.8697-0.42333-0.51741-0.2881-0.94663-0.72613-1.2876-1.3141v1.4817h-1.6316v-13.723h1.6316v5.3446"/>
  <path id="path3203" style="" d="m727.78 334.67c0.40568-0.72906 0.89075-1.267 1.4552-1.614 0.56443-0.34689 1.2288-0.52034 1.9932-0.52035 1.0289 0.00001 1.8227 0.36161 2.3812 1.0848 0.55854 0.71732 0.83783 1.7404 0.83784 3.0692v5.9619h-1.6316v-5.909c-0.00002-0.94661-0.16759-1.6492-0.50271-2.1078-0.33515-0.4586-0.84668-0.6879-1.5346-0.68791-0.8408 0.00001-1.5052 0.27929-1.9932 0.83784-0.48802 0.55858-0.73203 1.32-0.73202 2.2842v5.5827h-1.6316v-5.909c-0.00001-0.95249-0.16758-1.6551-0.50271-2.1078-0.33515-0.4586-0.85255-0.6879-1.5522-0.68791-0.82903 0.00001-1.4876 0.28223-1.9756 0.84666-0.48802 0.55858-0.73202 1.317-0.73202 2.2754v5.5827h-1.6316v-9.8778h1.6316v1.5346c0.37042-0.60559 0.81433-1.0524 1.3317-1.3406 0.5174-0.28809 1.1318-0.43214 1.8433-0.43215 0.71731 0.00001 1.3258 0.18228 1.8256 0.5468 0.50564 0.36455 0.879 0.89371 1.1201 1.5875"/>
  <path id="path3205" style="" d="m746.14 337.3v0.79375h-7.4612c0.0706 1.1171 0.40569 1.9697 1.0054 2.5576 0.60559 0.58208 1.4464 0.87312 2.5224 0.87312 0.62323 0 1.2259-0.0764 1.808-0.2293 0.58795-0.15287 1.17-0.38218 1.7462-0.68792v1.5346c-0.58209 0.24695-1.1789 0.43509-1.7904 0.56445-0.61149 0.12935-1.2318 0.19402-1.8609 0.19402-1.5757 0-2.8252-0.45861-3.7483-1.3758-0.91722-0.91722-1.3758-2.1578-1.3758-3.7218 0-1.6169 0.43509-2.8986 1.3053-3.8453 0.87606-0.95249 2.0549-1.4287 3.5366-1.4288 1.3288 0.00001 2.3783 0.42922 3.1485 1.2876 0.7761 0.85255 1.1642 2.0138 1.1642 3.4837m-1.6228-0.47625c-0.0118-0.88781-0.26165-1.5963-0.74965-2.1255-0.48214-0.52916-1.123-0.79374-1.9226-0.79375-0.90547 0.00001-1.6316 0.25577-2.1784 0.76729-0.54093 0.51154-0.85255 1.2318-0.93486 2.1608l5.7856-0.009"/>
  <path id="path3207" style="" d="m749.03 340.41h1.8609v2.2401h-1.8609v-2.2401"/>
  <path id="path3209" style="" d="m762.76 336.69v5.9619h-1.6228v-5.909c-0.00001-0.93485-0.18228-1.6345-0.54681-2.099-0.36454-0.46448-0.91135-0.69672-1.6404-0.69673-0.87607 0.00001-1.5669 0.27929-2.0726 0.83784-0.50565 0.55858-0.75847 1.32-0.75847 2.2842v5.5827h-1.6316v-13.723h1.6316v5.3798c0.38805-0.59383 0.84372-1.0377 1.367-1.3317 0.52916-0.29397 1.1377-0.44096 1.8256-0.44097 1.1348 0.00001 1.9932 0.35279 2.5753 1.0583 0.58207 0.69968 0.87311 1.7316 0.87312 3.0956"/>
  <path id="path3211" style="" d="m765.85 338.75v-5.9796h1.6228v5.9178c-0.00001 0.93487 0.18226 1.6375 0.5468 2.1078 0.36454 0.46449 0.91134 0.69673 1.6404 0.69673 0.87605 0 1.5669-0.27928 2.0726-0.83784 0.51152-0.55856 0.76729-1.32 0.7673-2.2842v-5.6003h1.6228v9.8778h-1.6228v-1.5169c-0.39395 0.59972-0.85256 1.0466-1.3758 1.3406-0.51741 0.2881-1.1201 0.43215-1.808 0.43215-1.1348 0-1.9961-0.35277-2.5841-1.0583-0.58797-0.70555-0.88195-1.7374-0.88195-3.0956m4.0834-6.2177"/>
  <path id="path3213" style="" d="m640.9 363.73h2.9104v-10.045l-3.1662 0.635v-1.6228l3.1485-0.635h1.7815v11.668h2.9104v1.4993h-7.5847v-1.4993"/>
  <path id="path3215" style="" d="m652.11 352.06h6.9938v1.4993h-5.3622v3.2279c0.2587-0.0882 0.51741-0.15286 0.77611-0.19402 0.2587-0.047 0.51741-0.0705 0.77611-0.0706 1.4699 0.00001 2.6341 0.40276 3.4925 1.2083 0.85842 0.80552 1.2876 1.8962 1.2876 3.272-0.00001 1.417-0.44098 2.5194-1.3229 3.3073-0.88195 0.78199-2.1255 1.173-3.7306 1.173-0.55269 0-1.1171-0.047-1.6933-0.14112-0.57033-0.0941-1.1612-0.23518-1.7727-0.42333v-1.7903c0.52917 0.2881 1.076 0.50271 1.6404 0.64382 0.56444 0.14111 1.1612 0.21166 1.7903 0.21166 1.0172 0 1.8227-0.26752 2.4165-0.80257 0.59383-0.53504 0.89075-1.2612 0.89076-2.1784-0.00001-0.91721-0.29693-1.6434-0.89076-2.1784-0.59385-0.53504-1.3994-0.80256-2.4165-0.80257-0.47625 0.00001-0.9525 0.0529-1.4287 0.15875-0.47038 0.10584-0.95251 0.27047-1.4464 0.49389v-6.6146"/>
  <path id="path3217" style="" d="m665.12 363.73h6.2177v1.4993h-8.3608v-1.4993c0.67616-0.69967 1.5963-1.6375 2.7605-2.8134 1.17-1.1818 1.905-1.9432 2.2049-2.2842 0.57032-0.64088 0.96719-1.1818 1.1906-1.6228 0.22929-0.44684 0.34395-0.88487 0.34395-1.3141 0-0.69966-0.24695-1.27-0.74083-1.711-0.48801-0.44096-1.126-0.66144-1.9138-0.66145-0.55857 0.00001-1.1495 0.097-1.7727 0.29104-0.61737 0.19404-1.2788 0.48802-1.9844 0.88194v-1.7992c0.71732-0.28809 1.3876-0.50564 2.0108-0.65264 0.62323-0.14698 1.1936-0.22047 1.711-0.22049 1.3641 0.00002 2.4518 0.34103 3.2632 1.0231 0.81138 0.68205 1.2171 1.5934 1.2171 2.734-0.00001 0.54094-0.1029 1.0554-0.30868 1.5434-0.19992 0.48214-0.56739 1.0525-1.1024 1.711-0.147 0.17052-0.61443 0.66441-1.4023 1.4817-0.78788 0.81139-1.8991 1.9491-3.3338 3.4131"/>
  <path id="path3219" style="" d="m675.09 362.99h1.8609v2.2401h-1.8609v-2.2401"/>
  <path id="path3221" style="" d="m684.87 357.93c-0.79964 0.00001-1.4346 0.27341-1.905 0.82021-0.4645 0.54681-0.69674 1.2965-0.69674 2.249 0 0.94663 0.23224 1.6963 0.69674 2.249 0.47036 0.54681 1.1054 0.82021 1.905 0.82021 0.79962 0 1.4317-0.2734 1.8962-0.82021 0.47036-0.55268 0.70555-1.3023 0.70556-2.249-0.00001-0.95249-0.2352-1.7021-0.70556-2.249-0.46449-0.5468-1.0966-0.8202-1.8962-0.82021m3.5366-5.5827v1.6228c-0.44686-0.21165-0.89959-0.37334-1.3582-0.48506-0.45274-0.11171-0.90253-0.16756-1.3494-0.16757-1.1759 0.00001-2.0755 0.39688-2.6987 1.1906-0.61737 0.79376-0.97015 1.9932-1.0583 3.5983 0.3469-0.51152 0.78199-0.90251 1.3053-1.173 0.52328-0.27633 1.0995-0.4145 1.7286-0.41451 1.3229 0.00001 2.3665 0.40276 3.1309 1.2083 0.77022 0.79964 1.1553 1.8903 1.1553 3.272-0.00001 1.3523-0.39982 2.4371-1.1994 3.2544-0.79964 0.81727-1.8638 1.2259-3.1926 1.2259-1.5228 0-2.687-0.58209-3.4925-1.7462-0.80551-1.17-1.2083-2.8634-1.2083-5.08 0-2.0814 0.49388-3.7394 1.4817-4.9742 0.98777-1.2406 2.3136-1.8609 3.9776-1.8609 0.44684 0.00002 0.89663 0.0441 1.3494 0.13229 0.4586 0.0882 0.93485 0.2205 1.4288 0.39688"/>
  <path id="path3223" style="" d="m696.37 357.93c-0.79964 0.00001-1.4346 0.27341-1.905 0.82021-0.46449 0.54681-0.69674 1.2965-0.69674 2.249 0 0.94663 0.23225 1.6963 0.69674 2.249 0.47036 0.54681 1.1054 0.82021 1.905 0.82021 0.79962 0 1.4317-0.2734 1.8962-0.82021 0.47036-0.55268 0.70554-1.3023 0.70555-2.249-0.00001-0.95249-0.23519-1.7021-0.70555-2.249-0.4645-0.5468-1.0966-0.8202-1.8962-0.82021m3.5366-5.5827v1.6228c-0.44686-0.21165-0.89959-0.37334-1.3582-0.48506-0.45274-0.11171-0.90253-0.16756-1.3494-0.16757-1.1759 0.00001-2.0755 0.39688-2.6987 1.1906-0.61737 0.79376-0.97014 1.9932-1.0583 3.5983 0.3469-0.51152 0.78199-0.90251 1.3053-1.173 0.52328-0.27633 1.0995-0.4145 1.7286-0.41451 1.3229 0.00001 2.3665 0.40276 3.1309 1.2083 0.77022 0.79964 1.1553 1.8903 1.1553 3.272-0.00001 1.3523-0.39982 2.4371-1.1994 3.2544-0.79964 0.81727-1.8638 1.2259-3.1926 1.2259-1.5228 0-2.687-0.58209-3.4925-1.7462-0.80551-1.17-1.2083-2.8634-1.2083-5.08 0-2.0814 0.49389-3.7394 1.4817-4.9742 0.98778-1.2406 2.3136-1.8609 3.9776-1.8609 0.44684 0.00002 0.89663 0.0441 1.3494 0.13229 0.4586 0.0882 0.93485 0.2205 1.4288 0.39688"/>
  <path id="path3225" style="" d="m703.84 362.99h1.8609v2.2401h-1.8609v-2.2401"/>
  <path id="path3227" style="" d="m709.14 352.06h8.4666v0.75847l-4.7801 12.409h-1.8609l4.4979-11.668h-6.3235v-1.4993"/>
  <path id="path3229" style="" d="m722.63 363.73h6.2177v1.4993h-8.3608v-1.4993c0.67615-0.69967 1.5963-1.6375 2.7605-2.8134 1.17-1.1818 1.905-1.9432 2.2049-2.2842 0.57032-0.64088 0.96719-1.1818 1.1906-1.6228 0.2293-0.44684 0.34395-0.88487 0.34396-1.3141-0.00001-0.69966-0.24695-1.27-0.74083-1.711-0.48802-0.44096-1.126-0.66144-1.9138-0.66145-0.55857 0.00001-1.1495 0.097-1.7727 0.29104-0.61737 0.19404-1.2788 0.48802-1.9844 0.88194v-1.7992c0.71732-0.28809 1.3876-0.50564 2.0108-0.65264 0.62324-0.14698 1.1936-0.22047 1.711-0.22049 1.3641 0.00002 2.4518 0.34103 3.2632 1.0231 0.81138 0.68205 1.2171 1.5934 1.2171 2.734-0.00001 0.54094-0.10291 1.0554-0.30868 1.5434-0.19992 0.48214-0.5674 1.0525-1.1024 1.711-0.147 0.17052-0.61443 0.66441-1.4023 1.4817-0.78788 0.81139-1.8991 1.9491-3.3338 3.4131"/>
  <path id="path3231" style="" d="m732.59 362.99h1.8609v2.2401h-1.8609v-2.2401"/>
  <path id="path3233" style="" d="m743.74 358.13c0.85254 0.18227 1.5169 0.56151 1.9932 1.1377 0.48212 0.5762 0.72319 1.2876 0.7232 2.1343-0.00001 1.2994-0.44687 2.3048-1.3406 3.0162-0.89371 0.71144-2.1637 1.0672-3.81 1.0672-0.55269 0-1.123-0.0559-1.711-0.16757-0.58209-0.10584-1.1848-0.26753-1.808-0.48507v-1.7198c0.49389 0.2881 1.0348 0.50565 1.6228 0.65264 0.58796 0.14699 1.2024 0.22048 1.8433 0.22048 1.1171 0 1.9667-0.22048 2.5488-0.66146 0.58795-0.44096 0.88193-1.0818 0.88194-1.9226-0.00001-0.77611-0.27341-1.3817-0.82021-1.8168-0.54093-0.44096-1.2965-0.66145-2.2666-0.66145h-1.5346v-1.464h1.6051c0.87606 0.00001 1.5463-0.17344 2.0108-0.52035 0.46449-0.35276 0.69673-0.85841 0.69674-1.5169-0.00001-0.67614-0.24107-1.1936-0.72319-1.5522-0.47626-0.36452-1.1612-0.54679-2.0549-0.5468-0.48802 0.00001-1.0113 0.0529-1.5699 0.15875-0.55857 0.10584-1.173 0.27047-1.8433 0.49388v-1.5875c0.67615-0.18814 1.3082-0.32925 1.8962-0.42334 0.59384-0.0941 1.1524-0.14109 1.6757-0.14111 1.3523 0.00002 2.4224 0.3087 3.2103 0.92604 0.78786 0.6115 1.1818 1.4405 1.1818 2.4871-0.00001 0.72909-0.20874 1.3464-0.62618 1.8521-0.41747 0.49978-1.0113 0.84668-1.7815 1.0407"/>
  <path id="path3235" style="" d="m753.65 358.97c-0.84667 0.00001-1.514 0.22638-2.002 0.6791-0.48213 0.45274-0.72319 1.076-0.72319 1.8697 0 0.79375 0.24106 1.417 0.72319 1.8697 0.48801 0.45273 1.1554 0.6791 2.002 0.6791 0.84665 0 1.514-0.22637 2.002-0.6791 0.488-0.45861 0.732-1.0818 0.73201-1.8697-0.00001-0.79374-0.24401-1.417-0.73201-1.8697-0.48214-0.45272-1.1495-0.67909-2.002-0.6791m-1.7815-0.75847c-0.76435-0.18814-1.3611-0.54386-1.7904-1.0672-0.42333-0.52328-0.635-1.1612-0.63499-1.9138-0.00001-1.0524 0.37335-1.8844 1.1201-2.4959 0.75259-0.61146 1.7815-0.9172 3.0868-0.91722 1.3111 0.00002 2.3401 0.30576 3.0868 0.91722 0.7467 0.6115 1.1201 1.4435 1.1201 2.4959-0.00001 0.7526-0.21462 1.3905-0.64382 1.9138-0.42334 0.52329-1.0142 0.87901-1.7727 1.0672 0.85842 0.19992 1.5258 0.59091 2.002 1.173 0.48212 0.58209 0.72319 1.2935 0.7232 2.1343-0.00001 1.2759-0.39101 2.2548-1.173 2.9369-0.77612 0.68204-1.8903 1.0231-3.3426 1.0231s-2.5694-0.34102-3.3514-1.0231c-0.77611-0.68203-1.1642-1.661-1.1642-2.9369-0.00001-0.84078 0.24106-1.5522 0.72319-2.1343 0.48213-0.58208 1.1524-0.97307 2.0108-1.173m-0.65264-2.8134c0 0.68205 0.21166 1.2142 0.635 1.5963 0.42921 0.38218 1.0289 0.57327 1.7992 0.57326 0.76434 0.00001 1.3611-0.19108 1.7903-0.57326 0.43508-0.38217 0.65263-0.91427 0.65264-1.5963-0.00001-0.68202-0.21756-1.2141-0.65264-1.5963-0.42922-0.38217-1.026-0.57326-1.7903-0.57327-0.77024 0.00001-1.37 0.1911-1.7992 0.57327-0.42334 0.38218-0.635 0.91429-0.635 1.5963"/>
 </g>
 <g id="g116" transform="translate(-.96485 -14.151)">
  <path id="path118" d="m640 316.71v-112.8h45.613v112.8h-45.613z" fill="#b7b79d"/>
  <path id="path120" d="m640 316.71v-112.8h45.613v112.8h-45.613" stroke="#494936" stroke-width=".02" fill="none"/>
  <path id="path122" d="m685.61 316.71v-112.8h45.649v112.8h-45.649z" fill="#a5a585"/>
  <path id="path124" d="m685.61 316.71v-112.8h45.649v112.8h-45.649" stroke="#494936" stroke-width=".02" fill="none"/>
  <path id="path126" d="m755.09 292.8v-112.8l-23.824 23.914v112.8l23.824-23.914z" fill="#7a7a5a"/>
  <path id="path128" d="m755.09 292.8v-112.8l-23.824 23.914v112.8l23.824-23.914" stroke="#494936" stroke-width=".02" fill="none"/>
  <path id="path130" d="m663.8 180-23.8 23.91h91.262l23.824-23.914h-91.281z" fill="#c9c9b6"/>
  <path id="path132" d="m663.8 180-23.8 23.91h91.262l23.824-23.914h-91.281" stroke="#494936" stroke-width=".02" fill="none"/>
  <path id="path134" d="m706.73 182.72-18.376 18.448" stroke="#7a7a5a" stroke-width=".02" fill="none"/>
  <path id="path136" d="m663.12 316h-23.115l0.018 0.508 0.091 0.509 0.145 0.526 0.2 0.509 0.29 0.49 0.309 0.526 0.381 0.491 0.436 0.454 0.472 0.472 0.545 0.472 0.599 0.454 0.654 0.417 0.69 0.418 0.745 0.418 0.78 0.381 0.817 0.363 0.89 0.363 0.908 0.309 0.926 0.309 0.999 0.29 0.999 0.254 1.035 0.255 1.071 0.199 1.089 0.182 1.09 0.182 1.144 0.127 1.126 0.145 1.162 0.073 1.18 0.072 1.162 0.037 1.162 0.018 1.162-0.018 1.162-0.037 1.163-0.072 1.162-0.073 1.144-0.145 1.125-0.127 1.09-0.182 1.108-0.182 1.071-0.199 1.035-0.255 1.017-0.254 0.98-0.29 0.944-0.309 0.908-0.309 0.854-0.363 0.853-0.363 0.745-0.381 0.762-0.418 0.708-0.418 0.636-0.417 0.599-0.454 0.545-0.472 0.454-0.472 0.436-0.454 0.399-0.491 0.309-0.526 0.272-0.49 0.218-0.509 0.127-0.526 0.109-0.509 0.037-0.508h-23.134z" fill="#b7b79d"/>
  <path id="path138" d="m640 316 0.018 0.508 0.091 0.509 0.145 0.526 0.2 0.509 0.29 0.49 0.309 0.526 0.381 0.491 0.436 0.454 0.472 0.472 0.545 0.472 0.599 0.454 0.654 0.417 0.69 0.418 0.745 0.418 0.798 0.381 0.836 0.363 0.853 0.363 0.908 0.309 0.944 0.309 0.981 0.29 1.017 0.254 1.017 0.255 1.071 0.199 1.089 0.182 1.108 0.182 1.144 0.127 1.108 0.145 1.162 0.073 1.18 0.072 1.162 0.037 1.199 0.018 1.143-0.018 1.181-0.037 1.144-0.072 1.18-0.073 1.108-0.145 1.125-0.127 1.126-0.182 1.09-0.182 1.071-0.199 1.017-0.255 1.017-0.254 0.98-0.29 0.944-0.309 0.908-0.309 0.908-0.363 0.799-0.363 0.781-0.381 0.744-0.418 0.709-0.418 0.635-0.417 0.599-0.454 0.563-0.472 0.472-0.472 0.436-0.454 0.363-0.491 0.309-0.526 0.291-0.49 0.199-0.509 0.127-0.526 0.128-0.509 0.018-0.508" stroke="#494936" stroke-width=".02" fill="none"/>
  <path id="path140" d="m672.01 212.81v5.465 6.156 7.517 7.518 17.068 17.777 8.225 8.19 6.845 6.156 5.465 4.086 2.07 1.362h13.6v-112.13h-0.672l0.672 0.708v0.672l-2.016 2.052-3.45 2.052-4.049 1.362-4.085 1.38z" fill="#93936c"/>
  <path id="path142" d="m672.01 324.9 4.757-1.362 4.086-2.033 2.033-0.709 1.38-1.361 0.672-2.052 0.672-1.362h-1.344-1.38-2.033-4.086-4.757v2.742 2.742 1.361 1.362 0.672z" fill="#93936c"/>
  <path id="path144" d="m642.03 202.55-2.034 2.034h45.613v-2.034h-43.579z" fill="#c9c9b6"/>
  <path id="path146" d="m663.12 203.9h-23.115l0.018 0.49 0.091 0.545 0.145 0.508 0.2 0.527 0.29 0.49 0.309 0.509 0.381 0.49 0.436 0.472 0.472 0.454 0.545 0.472 0.599 0.454 0.654 0.418 0.69 0.417 0.745 0.418 0.78 0.381 0.817 0.363 0.89 0.345 0.908 0.327 0.926 0.309 0.999 0.272 0.999 0.273 1.035 0.254 1.071 0.218 1.089 0.163 1.09 0.2 1.144 0.127 1.126 0.127 1.162 0.073 1.18 0.072 1.162 0.037 1.162 0.018 1.162-0.018 1.162-0.037 1.163-0.072 1.162-0.073 1.144-0.127 1.125-0.127 1.09-0.2 1.108-0.163 1.071-0.218 1.035-0.254 1.017-0.273 0.98-0.272 0.944-0.309 0.908-0.327 0.854-0.345 0.853-0.363 0.745-0.381 0.762-0.418 0.708-0.417 0.636-0.418 0.599-0.454 0.545-0.472 0.454-0.454 0.436-0.472 0.399-0.49 0.309-0.509 0.272-0.49 0.218-0.527 0.127-0.508 0.109-0.545 0.037-0.49h-23.134z" fill="#c9c9b6"/>
  <path id="path148" d="m640 203.9 0.018 0.49 0.091 0.545 0.145 0.508 0.2 0.527 0.29 0.49 0.309 0.509 0.381 0.49 0.436 0.472 0.472 0.454 0.545 0.472 0.599 0.454 0.654 0.418 0.69 0.417 0.745 0.418 0.798 0.381 0.836 0.363 0.853 0.345 0.908 0.327 0.944 0.309 0.981 0.272 1.017 0.273 1.017 0.254 1.071 0.218 1.089 0.163 1.108 0.2 1.144 0.127 1.108 0.127 1.162 0.073 1.18 0.072 1.162 0.037 1.199 0.018 1.143-0.018 1.181-0.037 1.144-0.072 1.18-0.073 1.108-0.127 1.125-0.127 1.126-0.2 1.09-0.163 1.071-0.218 1.017-0.254 1.017-0.273 0.98-0.272 0.944-0.309 0.908-0.327 0.908-0.345 0.799-0.363 0.781-0.381 0.744-0.418 0.709-0.417 0.635-0.418 0.599-0.454 0.563-0.472 0.472-0.454 0.436-0.472 0.363-0.49 0.309-0.509 0.291-0.49 0.199-0.527 0.127-0.508 0.128-0.545 0.018-0.49" stroke="#494936" stroke-width=".02" fill="none"/>
  <path id="path150" d="m644.09 203.91h37.441" stroke="#7a7a5a" stroke-width=".02" fill="none"/>
  <path id="path152" d="m686.3 316.02v-111.44h8.189v111.44h-8.189z" fill="#93936c"/>
  <path id="path154" d="m693.11 237.4v-25.966h30.651v25.966h-30.651z" fill="#93936c"/>
  <path id="path156" d="m693.11 237.4v-25.966h30.651v25.966h-30.651" stroke="#494936" stroke-width=".02" fill="none"/>
  <path id="path158" d="m693.78 237.4v-25.258h0.708v25.258h-0.708z" fill="#7a7a5a"/>
  <path id="path160" d="m640.69 205.97 2.034 2.052v112.11l-2.034-2.034v-112.13z" fill="#d4000a"/>
  <path id="path162" d="m640 203.9 0.018 0.49 0.091 0.545 0.145 0.508 0.2 0.527 0.29 0.49 0.309 0.509 0.381 0.49 0.436 0.472 0.472 0.454 0.545 0.472 0.599 0.454 0.654 0.418 0.69 0.417 0.745 0.418 0.798 0.381 0.836 0.363 0.853 0.345 0.908 0.327 0.944 0.309 0.981 0.272 1.017 0.273 1.017 0.254 1.071 0.218 1.089 0.163 1.108 0.2 1.144 0.127 1.108 0.127 1.162 0.073 1.18 0.072 1.162 0.037 1.199 0.018 1.143-0.018 1.181-0.037 1.144-0.072 1.18-0.073 1.108-0.127 1.125-0.127 1.126-0.2 1.09-0.163 1.071-0.218 1.017-0.254 1.017-0.273 0.98-0.272 0.944-0.309 0.908-0.327 0.908-0.345 0.799-0.363 0.781-0.381 0.744-0.418 0.709-0.417 0.635-0.418 0.599-0.454 0.563-0.472 0.472-0.454 0.436-0.472 0.363-0.49 0.309-0.509 0.291-0.49 0.199-0.527 0.127-0.508 0.128-0.545 0.018-0.49" stroke="#494936" stroke-width=".02" fill="none"/>
  <path id="path164" d="m640 316.31 0.018 0.491 0.073 0.49 0.163 0.508 0.2 0.472 0.236 0.491 0.309 0.49 0.363 0.454 0.454 0.472 0.417 0.436 0.545 0.472 0.563 0.418 0.654 0.399 0.672 0.418 0.726 0.381 0.781 0.363 0.799 0.363 0.817 0.345 0.908 0.327 0.944 0.291 0.944 0.29 1.017 0.254 0.999 0.237 1.035 0.199 1.089 0.2 1.09 0.163 1.107 0.146 1.126 0.145 1.126 0.073 1.162 0.072 1.162 0.055 1.199 0.018h1.107l1.162-0.018 1.162-0.055 1.163-0.072 1.143-0.109 1.09-0.127 1.108-0.146 1.107-0.181 1.072-0.182 1.035-0.236 0.998-0.236 1.017-0.254 0.926-0.291 0.944-0.308 0.872-0.309 0.835-0.345 0.799-0.345 0.763-0.4 0.708-0.381 0.672-0.418 0.635-0.417 0.581-0.436 0.509-0.436 0.472-0.472 0.381-0.454 0.345-0.472 0.309-0.472 0.254-0.49 0.182-0.491 0.145-0.49 0.055-0.49 0.018-0.509" stroke="#494936" stroke-width=".02" fill="none"/>
 </g>
</svg>
