<?xml version="1.0" encoding="UTF-8" standalone="no"?>
<!-- Created with Inkscape (http://www.inkscape.org/) -->
<svg id="svg2" xmlns:rdf="http://www.w3.org/1999/02/22-rdf-syntax-ns#" xmlns="http://www.w3.org/2000/svg" height="469.74" width="917.81" version="1.1" xmlns:cc="http://creativecommons.org/ns#" xmlns:dc="http://purl.org/dc/elements/1.1/" viewBox="-67 28 506.09749 249.04381">
 <metadata id="metadata290">
  <rdf:RDF>
   <cc:Work rdf:about="">
    <dc:format>image/svg+xml</dc:format>
    <dc:type rdf:resource="http://purl.org/dc/dcmitype/StillImage"/>
   </cc:Work>
  </rdf:RDF>
 </metadata>
 <g id="g4" transform="translate(-1.9025 -8.9666)">
  <path id="path6" d="m340 160c40 0 0-30 30.264-30" stroke="#000" stroke-width="2" fill="none"/>
  <path id="polygon8" d="m370.26 130-2.5-5 10 5-10 5z"/>
  <path id="polygon10" d="m370.26 130-2.5-5 10 5-10 5z" stroke="#000" stroke-width="2" fill="none"/>
 </g>
 <g id="g12" transform="translate(-1.9025 -8.9666)">
  <path id="path14" d="m240 160c40 0 0-30 30.264-30" stroke="#000" stroke-width="2" fill="none"/>
  <path id="polygon16" d="m270.26 130-2.5-5 10 5-10 5z"/>
  <path id="polygon18" d="m270.26 130-2.5-5 10 5-10 5z" stroke="#000" stroke-width="2" fill="none"/>
 </g>
 <g id="g20" transform="translate(-1.9025 -8.9666)">
  <path id="path22" d="m40 130h30.264" stroke="#000" stroke-width="2" fill="none"/>
  <path id="polygon24" d="m70.264 130-2.5-5 10 5-10 5z"/>
  <path id="polygon26" d="m70.264 130-2.5-5 10 5-10 5z" stroke="#000" stroke-width="2" fill="none"/>
 </g>
 <g id="g28" transform="translate(-1.9025 -8.9666)">
  <path id="rect30" fill="#7babe3" d="m280 100h60v60h-60z"/>
  <path id="rect32" d="m280 100h60v60h-60z" stroke="#000" stroke-width="2" fill="none"/>
 </g>
 <g id="g34" transform="translate(-1.9025 -8.9666)">
  <path id="rect36" fill="#7babe3" d="m380 100h60v60h-60z"/>
  <path id="rect38" d="m380 100h60v60h-60z" stroke="#000" stroke-width="2" fill="none"/>
 </g>
 <g id="g40" transform="translate(-1.9025 -8.9666)">
  <path id="rect42" fill="#7babe3" d="m180 100h60v60h-60z"/>
  <path id="rect44" d="m180 100h60v60h-60z" stroke="#000" stroke-width="2" fill="none"/>
 </g>
 <g id="g46" transform="translate(-1.9025 -8.9666)">
  <path id="rect48" fill="#fdfd04" d="m20 120h20v20h-20z"/>
  <path id="rect50" d="m20 120h20v20h-20z" stroke="#000" stroke-width="2" fill="none"/>
 </g>
 <g id="text52">
  <path id="path3138" style="" d="m402.4 110.66h10.491v2.249h-8.0433v4.8419c0.38805-0.13228 0.77611-0.22929 1.1642-0.29104 0.38805-0.0705 0.7761-0.10582 1.1642-0.10583 2.2048 0.00001 3.9511 0.60414 5.2388 1.8124 1.2876 1.2083 1.9314 2.8443 1.9314 4.908-0.00001 2.1255-0.66147 3.7791-1.9844 4.9609-1.3229 1.173-3.1882 1.7595-5.5959 1.7595-0.82903 0-1.6757-0.0705-2.54-0.21166-0.85549-0.14112-1.7418-0.35278-2.6591-0.635v-2.6855c0.79375 0.43215 1.614 0.75406 2.4606 0.96573 0.84667 0.21167 1.7418 0.3175 2.6855 0.3175 1.5258 0 2.734-0.40129 3.6248-1.2039 0.89075-0.80256 1.3361-1.8918 1.3361-3.2676-0.00001-1.3758-0.44539-2.465-1.3361-3.2676-0.89077-0.80255-2.099-1.2038-3.6248-1.2038-0.71438 0.00001-1.4288 0.0794-2.1431 0.23813-0.70556 0.15876-1.4288 0.4057-2.1696 0.74083v-9.9219"/>
 </g>
 <g id="text56">
  <path id="path3141" style="" d="m309.71 112.99-6.7469 10.544h6.7469v-10.544m-0.70115-2.3283h3.3602v12.872h2.8178v2.2225h-2.8178v4.6567h-2.6591v-4.6567h-8.9164v-2.5797l8.2153-12.515"/>
 </g>
 <g id="text60">
  <path id="path3144" style="" d="m210.47 119.76c1.2788 0.27341 2.2754 0.84227 2.9898 1.7066 0.72318 0.86431 1.0848 1.9315 1.0848 3.2015-0.00002 1.9491-0.67029 3.4572-2.0108 4.5244-1.3406 1.0672-3.2456 1.6007-5.715 1.6007-0.82904 0-1.6845-0.0838-2.5665-0.25135-0.87313-0.15875-1.7771-0.40129-2.712-0.72761v-2.5797c0.74083 0.43216 1.5522 0.75847 2.4342 0.97896 0.88194 0.22049 1.8036 0.33073 2.7649 0.33073 1.6757 0 2.9501-0.33073 3.8232-0.99219 0.88193-0.66145 1.3229-1.6228 1.3229-2.884-0.00001-1.1642-0.41012-2.0726-1.2303-2.7252-0.8114-0.66145-1.9447-0.99218-3.3999-0.99219h-2.3019v-2.196h2.4077c1.3141 0.00001 2.3195-0.26017 3.0162-0.78052 0.69672-0.52916 1.0451-1.2876 1.0451-2.2754-0.00001-1.0142-0.36161-1.7903-1.0848-2.3283-0.71438-0.54679-1.7418-0.82019-3.0824-0.82021-0.73202 0.00002-1.517 0.0794-2.3548 0.23813-0.83785 0.15877-1.7595 0.40571-2.7649 0.74083v-2.3812c1.0142-0.2822 1.9623-0.49386 2.8443-0.635 0.89076-0.14109 1.7286-0.21164 2.5135-0.21166 2.0285 0.00002 3.6336 0.46304 4.8154 1.3891 1.1818 0.91724 1.7727 2.1608 1.7727 3.7306-0.00002 1.0936-0.31311 2.0197-0.93927 2.7781-0.62619 0.74966-1.517 1.27-2.6723 1.561"/>
 </g>
 <g id="text64">
  <path id="path3147" style="" d="m-25.108 121.94v0.79375h-7.4612c0.07055 1.1171 0.40569 1.9697 1.0054 2.5576 0.6056 0.58209 1.4464 0.87313 2.5224 0.87313 0.62323 0 1.2259-0.0764 1.808-0.22931 0.58795-0.15287 1.17-0.38217 1.7462-0.68791v1.5346c-0.58209 0.24694-1.1789 0.43509-1.7903 0.56444-0.61149 0.12935-1.2318 0.19403-1.8609 0.19403-1.5757 0-2.8252-0.45861-3.7483-1.3758-0.91722-0.91722-1.3758-2.1578-1.3758-3.7218-0.000001-1.6169 0.43509-2.8986 1.3053-3.8453 0.87606-0.95248 2.0549-1.4287 3.5366-1.4287 1.3288 0.00001 2.3783 0.42922 3.1485 1.2876 0.7761 0.85256 1.1642 2.0138 1.1642 3.4837m-1.6228-0.47625c-0.01177-0.88782-0.26165-1.5963-0.74965-2.1255-0.48214-0.52916-1.123-0.79374-1.9226-0.79375-0.90547 0.00001-1.6316 0.25577-2.1784 0.76729-0.54093 0.51153-0.85255 1.2318-0.93486 2.1608l5.7855-0.009"/>
  <path id="path3149" style="" d="m-22.444 113.56h1.6228v13.723h-1.6228v-13.723"/>
  <path id="path3151" style="" d="m-8.9858 121.94v0.79375h-7.4612c0.07055 1.1171 0.40569 1.9697 1.0054 2.5576 0.6056 0.58209 1.4464 0.87313 2.5224 0.87313 0.62323 0 1.2259-0.0764 1.808-0.22931 0.58795-0.15287 1.17-0.38217 1.7462-0.68791v1.5346c-0.58209 0.24694-1.1789 0.43509-1.7903 0.56444-0.61149 0.12935-1.2318 0.19403-1.8609 0.19403-1.5757 0-2.8252-0.45861-3.7483-1.3758-0.91722-0.91722-1.3758-2.1578-1.3758-3.7218-0.000001-1.6169 0.43509-2.8986 1.3053-3.8453 0.87606-0.95248 2.0549-1.4287 3.5366-1.4287 1.3288 0.00001 2.3783 0.42922 3.1485 1.2876 0.7761 0.85256 1.1642 2.0138 1.1642 3.4837m-1.6228-0.47625c-0.01177-0.88782-0.26165-1.5963-0.74965-2.1255-0.48214-0.52916-1.123-0.79374-1.9226-0.79375-0.90547 0.00001-1.6316 0.25577-2.1784 0.76729-0.54093 0.51153-0.85255 1.2318-0.93486 2.1608l5.7855-0.009"/>
  <path id="path3153" style="" d="m-6.3223 117.41h1.6228v10.054c-0.0000033 1.2582-0.24107 2.1696-0.72319 2.734-0.47625 0.56444-1.2465 0.84666-2.3107 0.84667h-0.61736v-1.3758h0.43215c0.61736 0 1.0378-0.14405 1.2612-0.43215 0.22342-0.28222 0.33514-0.87312 0.33514-1.7727v-10.054m0-3.8453h1.6228v2.0549h-1.6228v-2.0549"/>
  <path id="path3155" style="" d="m7.1362 121.94v0.79375h-7.4612c0.070553 1.1171 0.40569 1.9697 1.0054 2.5576 0.6056 0.58209 1.4464 0.87313 2.5224 0.87313 0.62323 0 1.2259-0.0764 1.808-0.22931 0.58795-0.15287 1.17-0.38217 1.7462-0.68791v1.5346c-0.58209 0.24694-1.1789 0.43509-1.7903 0.56444-0.61149 0.12935-1.2318 0.19403-1.8609 0.19403-1.5757 0-2.8252-0.45861-3.7483-1.3758-0.91722-0.91722-1.3758-2.1578-1.3758-3.7218-0.000001-1.6169 0.43509-2.8986 1.3053-3.8453 0.87606-0.95248 2.0549-1.4287 3.5366-1.4287 1.3288 0.00001 2.3783 0.42922 3.1485 1.2876 0.7761 0.85256 1.1642 2.0138 1.1642 3.4837m-1.6228-0.47625c-0.011768-0.88782-0.26165-1.5963-0.74965-2.1255-0.48214-0.52916-1.123-0.79374-1.9226-0.79375-0.90547 0.00001-1.6316 0.25577-2.1784 0.76729-0.54093 0.51153-0.85255 1.2318-0.93486 2.1608l5.7855-0.009"/>
 </g>
 <g id="g68" transform="translate(-1.9025 -8.9666)">
  <path id="line70" d="m310 70v20.264" stroke="#000" stroke-width="2" fill="none"/>
  <path id="polygon72" d="m310 90.264 5-2.5-5 10-5-10z"/>
  <path id="polygon74" d="m310 90.264 5-2.5-5 10-5-10z" stroke="#000" stroke-width="2" fill="none"/>
 </g>
 <g id="text76">
  <path id="path3161" style="" d="m294.47 26.856h1.6228v9.8778h-1.6228v-9.8778m0-3.8453h1.6228v2.0549h-1.6228v-2.0549"/>
  <path id="path3163" style="" d="m301.09 24.051v2.8046h3.3426v1.2612h-3.3426v5.3622c0 0.80551 0.10877 1.3229 0.32632 1.5522 0.22342 0.22931 0.67321 0.34396 1.3494 0.34396h1.6669v1.3582h-1.6669c-1.2524 0-2.1167-0.23224-2.5929-0.69674-0.47625-0.47037-0.71437-1.3229-0.71437-2.5576v-5.3622h-1.1906v-1.2612h1.1906v-2.8046h1.6316"/>
  <path id="path3165" style="" d="m315.02 31.389v0.79375h-7.4612c0.0706 1.1171 0.40569 1.9697 1.0054 2.5576 0.6056 0.58208 1.4464 0.87312 2.5224 0.87312 0.62323 0.000001 1.2259-0.07643 1.808-0.2293 0.58795-0.15287 1.17-0.38217 1.7462-0.68792v1.5346c-0.58209 0.24694-1.1789 0.43509-1.7903 0.56444-0.61149 0.12935-1.2318 0.19403-1.8609 0.19403-1.5758 0-2.8252-0.45861-3.7483-1.3758-0.91722-0.91722-1.3758-2.1578-1.3758-3.7218 0-1.6169 0.43509-2.8986 1.3053-3.8453 0.87606-0.95249 2.0549-1.4287 3.5366-1.4287 1.3288 0.00001 2.3783 0.42922 3.1485 1.2876 0.7761 0.85255 1.1642 2.0138 1.1642 3.4837m-1.6228-0.47625c-0.0118-0.88782-0.26165-1.5963-0.74965-2.1255-0.48213-0.52916-1.123-0.79374-1.9226-0.79375-0.90546 0.000009-1.6316 0.25577-2.1784 0.76729-0.54092 0.51154-0.85254 1.2318-0.93486 2.1608l5.7856-0.0088"/>
  <path id="path3167" style="" d="m323.41 28.373c-0.18228-0.10582-0.38218-0.18226-0.59972-0.2293-0.21167-0.05291-0.44686-0.07937-0.70556-0.07937-0.91722 0.000009-1.6228 0.29987-2.1167 0.89958-0.48801 0.59385-0.73202 1.4493-0.73201 2.5665v5.2035h-1.6316v-9.8778h1.6316v1.5346c0.34101-0.59971 0.78492-1.0436 1.3317-1.3317 0.5468-0.29397 1.2112-0.44096 1.9932-0.44097 0.11171 0.00001 0.23518 0.0088 0.37042 0.02646 0.13522 0.01177 0.28515 0.03235 0.44979 0.06174l0.009 1.6669"/>
 </g>
 <g id="g80" transform="translate(-1.9025 -8.9666)">
  <path id="line82" d="m210 70v20.264" stroke="#000" stroke-width="2" fill="none"/>
  <path id="polygon84" d="m210 90.264 5-2.5-5 10-5-10z"/>
  <path id="polygon86" d="m210 90.264 5-2.5-5 10-5-10z" stroke="#000" stroke-width="2" fill="none"/>
 </g>
 <g id="text88">
  <path id="path3173" style="" d="m166.88 23.01h1.6228v13.723h-1.6228v-13.723"/>
  <path id="path3175" style="" d="m180.34 31.389v0.79375h-7.4612c0.0706 1.1171 0.40569 1.9697 1.0054 2.5576 0.6056 0.58208 1.4464 0.87312 2.5224 0.87312 0.62323 0.000001 1.2259-0.07643 1.808-0.2293 0.58795-0.15287 1.17-0.38217 1.7462-0.68792v1.5346c-0.58209 0.24694-1.1789 0.43509-1.7904 0.56444-0.61148 0.12935-1.2318 0.19403-1.8609 0.19403-1.5757 0-2.8252-0.45861-3.7483-1.3758-0.91722-0.91722-1.3758-2.1578-1.3758-3.7218 0-1.6169 0.43509-2.8986 1.3053-3.8453 0.87606-0.95249 2.0549-1.4287 3.5366-1.4287 1.3288 0.00001 2.3783 0.42922 3.1485 1.2876 0.7761 0.85255 1.1642 2.0138 1.1642 3.4837m-1.6228-0.47625c-0.0118-0.88782-0.26165-1.5963-0.74965-2.1255-0.48214-0.52916-1.123-0.79374-1.9226-0.79375-0.90547 0.000009-1.6316 0.25577-2.1784 0.76729-0.54093 0.51154-0.85255 1.2318-0.93486 2.1608l5.7856-0.0088"/>
  <path id="path3177" style="" d="m190.7 28.752c0.40568-0.72906 0.89075-1.267 1.4552-1.614 0.56443-0.34689 1.2288-0.52034 1.9932-0.52035 1.0289 0.00001 1.8227 0.36161 2.3812 1.0848 0.55854 0.71732 0.83783 1.7404 0.83784 3.0692v5.9619h-1.6316v-5.909c-0.00002-0.94661-0.16759-1.6492-0.50271-2.1078-0.33515-0.4586-0.84668-0.68791-1.5346-0.68792-0.8408 0.000009-1.5052 0.27929-1.9932 0.83785-0.48802 0.55857-0.73203 1.32-0.73202 2.2842v5.5827h-1.6316v-5.909c-0.00001-0.95249-0.16758-1.6551-0.50271-2.1078-0.33515-0.4586-0.85255-0.68791-1.5522-0.68792-0.82903 0.000009-1.4876 0.28223-1.9756 0.84667-0.48802 0.55857-0.73202 1.317-0.73202 2.2754v5.5827h-1.6316v-9.8778h1.6316v1.5346c0.37042-0.60559 0.81433-1.0524 1.3317-1.3406 0.5174-0.28809 1.1318-0.43214 1.8433-0.43215 0.71731 0.00001 1.3258 0.18228 1.8256 0.5468 0.50564 0.36454 0.879 0.89371 1.1201 1.5875"/>
  <path id="path3179" style="" d="m205.1 31.768c-1.3112 0.000005-2.2196 0.14994-2.7252 0.44979-0.50565 0.29986-0.75847 0.81139-0.75847 1.5346 0 0.5762 0.18815 1.0348 0.56445 1.3758 0.38217 0.33514 0.89957 0.50271 1.5522 0.50271 0.89957 0.000001 1.6198-0.3175 2.1608-0.9525 0.54679-0.64088 0.8202-1.4905 0.8202-2.5488v-0.3616h-1.614m3.2367-0.67028v5.6356h-1.6228v-1.4993c-0.37042 0.59972-0.83197 1.0436-1.3846 1.3317-0.55269 0.28222-1.2288 0.42333-2.0285 0.42333-1.0113 0-1.8168-0.28222-2.4165-0.84667-0.59384-0.57032-0.89077-1.3317-0.89076-2.2842-0.00001-1.1112 0.37041-1.9491 1.1112-2.5135 0.74671-0.56444 1.858-0.84666 3.3338-0.84666h2.2754v-0.15875c0-0.7467-0.24695-1.3229-0.74083-1.7286-0.48801-0.41156-1.1759-0.61735-2.0638-0.61736-0.56444 0.000009-1.1142 0.06762-1.6492 0.20285-0.53505 0.13524-1.0495 0.33809-1.5434 0.60854v-1.4993c0.59384-0.2293 1.17-0.3998 1.7286-0.51153 0.55856-0.11758 1.1024-0.17638 1.6316-0.17639 1.4288 0.00001 2.4959 0.37043 3.2015 1.1112 0.70554 0.74084 1.0583 1.8638 1.0583 3.369"/>
  <path id="path3181" style="" d="m217.41 28.373c-0.18227-0.10582-0.38218-0.18226-0.59972-0.2293-0.21167-0.05291-0.44685-0.07937-0.70555-0.07937-0.91723 0.000009-1.6228 0.29987-2.1167 0.89958-0.48801 0.59385-0.73201 1.4493-0.73201 2.5665v5.2035h-1.6316v-9.8778h1.6316v1.5346c0.34102-0.59971 0.78493-1.0436 1.3317-1.3317 0.5468-0.29397 1.2112-0.44096 1.9932-0.44097 0.1117 0.00001 0.23518 0.0088 0.37041 0.02646 0.13523 0.01177 0.28516 0.03235 0.44979 0.06174l0.009 1.6669"/>
  <path id="path3183" style="" d="m223.62 31.768c-1.3112 0.000005-2.2196 0.14994-2.7252 0.44979-0.50565 0.29986-0.75847 0.81139-0.75847 1.5346 0 0.5762 0.18815 1.0348 0.56444 1.3758 0.38218 0.33514 0.89958 0.50271 1.5522 0.50271 0.89958 0.000001 1.6198-0.3175 2.1608-0.9525 0.54679-0.64088 0.8202-1.4905 0.8202-2.5488v-0.3616h-1.614m3.2367-0.67028v5.6356h-1.6228v-1.4993c-0.37042 0.59972-0.83197 1.0436-1.3846 1.3317-0.55269 0.28222-1.2288 0.42333-2.0285 0.42333-1.0113 0-1.8168-0.28222-2.4165-0.84667-0.59385-0.57032-0.89077-1.3317-0.89077-2.2842 0-1.1112 0.37042-1.9491 1.1112-2.5135 0.74671-0.56444 1.858-0.84666 3.3338-0.84666h2.2754v-0.15875c0-0.7467-0.24695-1.3229-0.74083-1.7286-0.48801-0.41156-1.1759-0.61735-2.0638-0.61736-0.56444 0.000009-1.1142 0.06762-1.6492 0.20285-0.53505 0.13524-1.0495 0.33809-1.5434 0.60854v-1.4993c0.59384-0.2293 1.17-0.3998 1.7286-0.51153 0.55856-0.11758 1.1024-0.17638 1.6316-0.17639 1.4287 0.00001 2.4959 0.37043 3.2015 1.1112 0.70554 0.74084 1.0583 1.8638 1.0583 3.369"/>
  <path id="path3185" style="" d="m236.71 28.355v-5.3446h1.6228v13.723h-1.6228v-1.4817c-0.34103 0.58796-0.77318 1.026-1.2965 1.3141-0.51741 0.28222-1.1406 0.42333-1.8697 0.42333-1.1936 0-2.1666-0.47625-2.9192-1.4287-0.74672-0.9525-1.1201-2.2049-1.1201-3.7571s0.37335-2.8046 1.1201-3.7571c0.75259-0.95249 1.7257-1.4287 2.9192-1.4287 0.72907 0.00001 1.3523 0.14406 1.8697 0.43215 0.52328 0.28223 0.95543 0.71732 1.2965 1.3053m-5.5298 3.4484c0 1.1936 0.244 2.1314 0.73202 2.8134 0.49388 0.67616 1.17 1.0142 2.0285 1.0142 0.85841 0.000001 1.5346-0.33808 2.0285-1.0142 0.49389-0.68203 0.74083-1.6198 0.74084-2.8134-0.00001-1.1936-0.24695-2.1284-0.74084-2.8046-0.49389-0.68203-1.17-1.023-2.0285-1.0231-0.85843 0.000008-1.5346 0.34103-2.0285 1.0231-0.48802 0.67616-0.73202 1.611-0.73202 2.8046"/>
  <path id="path3187" style="" d="m245.5 27.993c-0.87019 0.000009-1.5581 0.34103-2.0638 1.0231-0.50565 0.67616-0.75847 1.6051-0.75847 2.7869s0.24988 2.1137 0.74965 2.7958c0.50565 0.67616 1.1965 1.0142 2.0726 1.0142 0.8643 0.000001 1.5493-0.34102 2.0549-1.0231 0.50564-0.68203 0.75846-1.611 0.75847-2.7869-0.00001-1.17-0.25283-2.0961-0.75847-2.7781-0.50566-0.68791-1.1906-1.0319-2.0549-1.0319m0-1.3758c1.4111 0.00001 2.5194 0.45862 3.3249 1.3758 0.80549 0.91723 1.2082 2.1872 1.2083 3.81-0.00001 1.6169-0.40277 2.8869-1.2083 3.81-0.80552 0.91722-1.9138 1.3758-3.3249 1.3758-1.417 0-2.5282-0.45861-3.3338-1.3758-0.79963-0.9231-1.1994-2.1931-1.1994-3.81 0-1.6228 0.39981-2.8928 1.1994-3.81 0.80551-0.91721 1.9168-1.3758 3.3338-1.3758"/>
 </g>
 <g id="text92">
  <path id="path3190" style="" d="m-62.952 133.58c-0.78788 1.3523-1.3729 2.6899-1.7551 4.0128-0.38218 1.3229-0.57327 2.6635-0.57326 4.0217-0.000003 1.3582 0.19108 2.7046 0.57326 4.0393 0.38805 1.3288 0.97307 2.6664 1.7551 4.0128h-1.4111c-0.88195-1.3817-1.5434-2.7399-1.9844-4.0746-0.43509-1.3347-0.65264-2.6605-0.65264-3.9776-0.000002-1.3112 0.21754-2.6311 0.65264-3.9599 0.43509-1.3288 1.0965-2.687 1.9844-4.0746h1.4111"/>
  <path id="path3192" style="" d="m-54.071 138.92c-0.18228-0.10582-0.38218-0.18226-0.59972-0.2293-0.21167-0.0529-0.44686-0.0794-0.70555-0.0794-0.91723 0.00001-1.6228 0.29987-2.1167 0.89959-0.48801 0.59384-0.73202 1.4493-0.73201 2.5664v5.2035h-1.6316v-9.8778h1.6316v1.5346c0.34102-0.59971 0.78493-1.0436 1.3317-1.3317 0.5468-0.29397 1.2112-0.44096 1.9932-0.44097 0.11171 0.00001 0.23518 0.009 0.37042 0.0265 0.13522 0.0118 0.28516 0.0323 0.44979 0.0617l0.0088 1.6669"/>
  <path id="path3194" style="" d="m-44.299 141.94v0.79375h-7.4612c0.07055 1.1171 0.40569 1.9697 1.0054 2.5576 0.6056 0.58209 1.4464 0.87313 2.5224 0.87313 0.62323 0 1.2259-0.0764 1.808-0.22931 0.58795-0.15287 1.17-0.38217 1.7462-0.68791v1.5346c-0.58209 0.24694-1.1789 0.43509-1.7903 0.56444-0.61149 0.12935-1.2318 0.19403-1.8609 0.19403-1.5757 0-2.8252-0.45861-3.7483-1.3758-0.91722-0.91722-1.3758-2.1578-1.3758-3.7218-0.000001-1.6169 0.43509-2.8986 1.3053-3.8453 0.87606-0.95248 2.0549-1.4287 3.5366-1.4287 1.3288 0.00001 2.3783 0.42922 3.1485 1.2876 0.7761 0.85256 1.1642 2.0138 1.1642 3.4837m-1.6228-0.47625c-0.01177-0.88782-0.26165-1.5963-0.74965-2.1255-0.48214-0.52916-1.123-0.79374-1.9226-0.79375-0.90547 0.00001-1.6316 0.25577-2.1784 0.76729-0.54093 0.51153-0.85255 1.2318-0.93486 2.1608l5.7855-0.009"/>
  <path id="path3196" style="" d="m-40.03 134.6v2.8046h3.3426v1.2612h-3.3426v5.3622c-0.000004 0.80551 0.10877 1.3229 0.32632 1.5522 0.22342 0.2293 0.67321 0.34396 1.3494 0.34395h1.6669v1.3582h-1.6669c-1.2524 0-2.1167-0.23225-2.5929-0.69674-0.47625-0.47037-0.71438-1.3229-0.71437-2.5576v-5.3622h-1.1906v-1.2612h1.1906v-2.8046h1.6316"/>
  <path id="path3198" style="" d="m-34.712 143.39v-5.9796h1.6228v5.9178c-0.000003 0.93486 0.18226 1.6375 0.5468 2.1078 0.36453 0.46449 0.91134 0.69673 1.6404 0.69673 0.87606 0 1.5669-0.27928 2.0726-0.83785 0.51152-0.55856 0.76728-1.32 0.76729-2.2842v-5.6003h1.6228v9.8778h-1.6228v-1.517c-0.39394 0.59973-0.85255 1.0466-1.3758 1.3406-0.51741 0.2881-1.1201 0.43215-1.808 0.43215-1.1348 0-1.9961-0.35278-2.5841-1.0583-0.58796-0.70555-0.88194-1.7374-0.88194-3.0956m4.0834-6.2177"/>
  <path id="path3200" style="" d="m-17.355 138.92c-0.18228-0.10582-0.38218-0.18226-0.59972-0.2293-0.21167-0.0529-0.44686-0.0794-0.70556-0.0794-0.91723 0.00001-1.6228 0.29987-2.1167 0.89959-0.48801 0.59384-0.73202 1.4493-0.73201 2.5664v5.2035h-1.6316v-9.8778h1.6316v1.5346c0.34102-0.59971 0.78493-1.0436 1.3317-1.3317 0.5468-0.29397 1.2112-0.44096 1.9932-0.44097 0.11171 0.00001 0.23518 0.009 0.37042 0.0265 0.13522 0.0118 0.28516 0.0323 0.44979 0.0617l0.0088 1.6669"/>
  <path id="path3202" style="" d="m-7.7422 141.32v5.9619h-1.6228v-5.909c-0.0000083-0.93486-0.18228-1.6345-0.5468-2.099-0.36454-0.46448-0.91135-0.69673-1.6404-0.69673-0.87607 0-1.5669 0.27929-2.0726 0.83784-0.50565 0.55857-0.75848 1.32-0.75847 2.2842v5.5827h-1.6316v-9.8778h1.6316v1.5346c0.38805-0.59383 0.84372-1.0377 1.367-1.3317 0.52916-0.29397 1.1377-0.44096 1.8256-0.44097 1.1348 0.00001 1.9932 0.35278 2.5753 1.0583 0.58207 0.69968 0.87311 1.7316 0.87312 3.0956"/>
  <path id="path3204" style="" d="m-3.4648 145.04h1.7903v2.2401h-1.7903v-2.2401m0-10.927h1.7903v5.7767l-0.17639 3.1485h-1.4287l-0.18521-3.1485v-5.7767"/>
  <path id="path3206" style="" d="m2.4883 133.58h1.4111c0.88194 1.3876 1.5405 2.7458 1.9756 4.0746 0.44097 1.3288 0.66145 2.6488 0.66146 3.9599-0.0000055 1.317-0.22049 2.6429-0.66146 3.9776-0.4351 1.3347-1.0936 2.6929-1.9756 4.0746h-1.4111c0.78199-1.3464 1.3641-2.684 1.7462-4.0128 0.38805-1.3347 0.58208-2.6811 0.58208-4.0393-0.0000037-1.3582-0.19403-2.6987-0.58208-4.0217-0.38218-1.3229-0.96426-2.6605-1.7462-4.0128"/>
 </g>
 <g id="g96" transform="translate(-1.9025 -8.9666)">
  <path id="rect98" fill="#7babe3" d="m80 100h60v60h-60z"/>
  <path id="rect100" d="m80 100h60v60h-60z" stroke="#000" stroke-width="2" fill="none"/>
 </g>
 <g id="text102">
  <path id="path3211" style="" d="m104.67 128.16h9.3266v2.249h-12.541v-2.249c1.0142-1.0495 2.3945-2.4562 4.1407-4.2201 1.7551-1.7727 2.8575-2.9148 3.3073-3.4264 0.85547-0.96131 1.4508-1.7727 1.7859-2.4342 0.34395-0.67027 0.51593-1.3273 0.51594-1.9711-0.00001-1.0495-0.37043-1.905-1.1112-2.5665-0.73202-0.66144-1.6889-0.99217-2.8707-0.99219-0.83786 0.00002-1.7242 0.14554-2.6591 0.43657-0.92605 0.29105-1.9182 0.73203-2.9766 1.3229v-2.6988c1.076-0.43213 2.0814-0.75845 3.0162-0.97895 0.93485-0.22047 1.7903-0.33071 2.5664-0.33073 2.0461 0.00002 3.6777 0.51154 4.8948 1.5346s1.8256 2.3901 1.8256 4.101c-0.00002 0.8114-0.15436 1.5831-0.46302 2.3151-0.29988 0.7232-0.85109 1.5787-1.6536 2.5664-0.22049 0.25578-0.92164 0.99661-2.1034 2.2225-1.1818 1.2171-2.8487 2.9236-5.0006 5.1197"/>
 </g>
 <g id="g106" transform="translate(-1.9025 -8.9666)">
  <path id="path108" d="m26.367 140.9c-20 60 23.298 48.099 30.22 68.862" stroke="#f62e2e" stroke-width="2" fill="none"/>
  <path id="polygon110" fill="#f62e2e" d="m56.587 209.76 3.9529-3.953-1.5812 11.068-7.9057-7.905z"/>
  <path id="polygon112" d="m56.587 209.76 3.9529-3.953-1.5812 11.068-7.9057-7.905z" stroke="#f62e2e" stroke-width="2" fill="none"/>
 </g>
 <g id="text114" fill="#173b8f">
  <path id="path3216" style="" d="m10.892 213.03c-0.78787 1.3523-1.3729 2.6899-1.7551 4.0128-0.38218 1.3229-0.57327 2.6635-0.57326 4.0217-0.0000033 1.3582 0.19108 2.7046 0.57326 4.0393 0.38805 1.3288 0.97307 2.6664 1.7551 4.0128h-1.4111c-0.88195-1.3817-1.5434-2.7399-1.9844-4.0746-0.43509-1.3347-0.65264-2.6605-0.65264-3.9776-0.0000016-1.3112 0.21754-2.6311 0.65264-3.9599 0.43509-1.3288 1.0965-2.687 1.9844-4.0746h1.4111"/>
  <path id="path3218" style="" d="m14.587 225.23h2.9104v-10.045l-3.1662 0.635v-1.6228l3.1485-0.635h1.7815v11.668h2.9104v1.4993h-7.5847v-1.4993"/>
  <path id="path3220" style="" d="m25.294 213.03h1.4111c0.88194 1.3876 1.5405 2.7458 1.9756 4.0746 0.44097 1.3288 0.66145 2.6488 0.66146 3.9599-0.000006 1.317-0.22049 2.6429-0.66146 3.9776-0.4351 1.3347-1.0936 2.6929-1.9756 4.0746h-1.4111c0.78199-1.3464 1.3641-2.684 1.7462-4.0128 0.38805-1.3347 0.58208-2.6811 0.58208-4.0393-0.000004-1.3582-0.19403-2.6987-0.58208-4.0217-0.38218-1.3229-0.96426-2.6605-1.7462-4.0128"/>
 </g>
 <g id="g118" transform="translate(-1.9025 -8.9666)">
  <path id="rect120" fill="#90ee90" d="m40 220h60v60h-60z"/>
  <path id="rect122" d="m40 220h60v60h-60z" stroke="#000" stroke-width="2" fill="none"/>
 </g>
 <g id="text124">
  <path id="path3225" style="" d="m55.9 241.9h7.1305v2.1696h-7.1305v-2.1696"/>
  <path id="path3227" style="" d="m69.566 248.16h9.3266v2.249h-12.541v-2.249c1.0142-1.0495 2.3945-2.4562 4.1407-4.2201 1.7551-1.7727 2.8575-2.9148 3.3073-3.4264 0.85548-0.96131 1.4508-1.7727 1.7859-2.4342 0.34395-0.67027 0.51593-1.3273 0.51594-1.9711-0.000011-1.0495-0.37043-1.905-1.1112-2.5665-0.73202-0.66144-1.6889-0.99217-2.8707-0.99219-0.83785 0.00002-1.7242 0.14554-2.6591 0.43657-0.92604 0.29105-1.9182 0.73203-2.9766 1.3229v-2.6988c1.076-0.43213 2.0814-0.75845 3.0162-0.97895 0.93485-0.22047 1.7903-0.33071 2.5665-0.33073 2.0461 0.00002 3.6777 0.51154 4.8948 1.5346s1.8256 2.3901 1.8256 4.101c-0.000015 0.8114-0.15436 1.5831-0.46302 2.3151-0.29988 0.7232-0.85109 1.5787-1.6536 2.5664-0.2205 0.25578-0.92164 0.99661-2.1034 2.2225-1.1818 1.2171-2.8487 2.9236-5.0006 5.1197"/>
 </g>
 <g id="g128" transform="translate(-1.9025 -8.9666)">
  <path id="rect130" fill="#fdfd04" d="m-10 240h20v20h-20z"/>
  <path id="rect132" d="m-10 240h20v20h-20z" stroke="#000" stroke-width="2" fill="none"/>
 </g>
 <g id="g134" transform="translate(-1.9025 -8.9666)">
  <path id="path136" d="m10 250h20.264" stroke="#f62e2e" stroke-width="2" fill="none"/>
  <path id="polygon138" fill="#f62e2e" d="m30.264 250-2.5-5 10 5-10 5z"/>
  <path id="polygon140" d="m30.264 250-2.5-5 10 5-10 5z" stroke="#f62e2e" stroke-width="2" fill="none"/>
 </g>
 <g id="text142">
  <path id="path3234" style="" d="m-36.843 243.39v-5.9796h1.6228v5.9178c-0.000003 0.93486 0.18226 1.6375 0.5468 2.1078 0.36453 0.46449 0.91134 0.69673 1.6404 0.69673 0.87606 0 1.5669-0.27928 2.0726-0.83785 0.51152-0.55856 0.76728-1.32 0.76729-2.2842v-5.6003h1.6228v9.8778h-1.6228v-1.517c-0.39394 0.59973-0.85255 1.0466-1.3758 1.3406-0.51741 0.2881-1.1201 0.43215-1.808 0.43215-1.1348 0-1.9961-0.35278-2.5841-1.0583-0.58796-0.70555-0.88194-1.7374-0.88194-3.0956m4.0834-6.2177"/>
  <path id="path3236" style="" d="m-25.21 237.41h1.6228v10.054c-0.000003 1.2582-0.24107 2.1696-0.72319 2.734-0.47625 0.56444-1.2465 0.84666-2.3107 0.84667h-0.61736v-1.3758h0.43215c0.61736 0 1.0378-0.14405 1.2612-0.43215 0.22342-0.28222 0.33514-0.87312 0.33514-1.7727v-10.054m0-3.8453h1.6228v2.0549h-1.6228v-2.0549"/>
 </g>
 <g id="text146" fill="#173b8f">
  <path id="path3239" style="" d="m120.89 193.03c-0.78788 1.3523-1.3729 2.6899-1.7551 4.0128-0.38218 1.3229-0.57327 2.6635-0.57326 4.0217-0.00001 1.3582 0.19108 2.7046 0.57326 4.0393 0.38805 1.3288 0.97307 2.6664 1.7551 4.0128h-1.4111c-0.88195-1.3817-1.5434-2.7399-1.9844-4.0746-0.43509-1.3347-0.65264-2.6605-0.65263-3.9776-0.00001-1.3112 0.21754-2.6311 0.65263-3.9599s1.0966-2.687 1.9844-4.0746h1.4111"/>
  <path id="path3241" style="" d="m125.81 205.23h6.2177v1.4993h-8.3608v-1.4993c0.67615-0.69967 1.5963-1.6375 2.7605-2.8134 1.17-1.1818 1.905-1.9432 2.2049-2.2842 0.57032-0.64087 0.96719-1.1818 1.1906-1.6228 0.2293-0.44684 0.34395-0.88487 0.34396-1.3141-0.00001-0.69967-0.24695-1.27-0.74083-1.711-0.48802-0.44096-1.126-0.66145-1.9138-0.66146-0.55857 0.00001-1.1495 0.097-1.7727 0.29104-0.61736 0.19404-1.2788 0.48802-1.9844 0.88194v-1.7992c0.71731-0.28809 1.3876-0.50564 2.0108-0.65264 0.62324-0.14698 1.1936-0.22047 1.711-0.22049 1.3641 0.00002 2.4518 0.34104 3.2632 1.0231 0.81138 0.68205 1.2171 1.5934 1.2171 2.734-0.00001 0.54094-0.10291 1.0554-0.30868 1.5434-0.19992 0.48214-0.5674 1.0525-1.1024 1.711-0.147 0.17052-0.61443 0.66441-1.4023 1.4817-0.78788 0.81139-1.8991 1.9491-3.3338 3.4131"/>
  <path id="path3243" style="" d="m135.29 193.03h1.4111c0.88194 1.3876 1.5405 2.7458 1.9756 4.0746 0.44097 1.3288 0.66146 2.6488 0.66146 3.9599 0 1.317-0.22049 2.6429-0.66146 3.9776-0.43509 1.3347-1.0936 2.6929-1.9756 4.0746h-1.4111c0.78199-1.3464 1.3641-2.684 1.7462-4.0128 0.38805-1.3347 0.58208-2.6811 0.58208-4.0393s-0.19403-2.6987-0.58208-4.0217c-0.38218-1.3229-0.96426-2.6605-1.7462-4.0128"/>
 </g>
 <g id="text150" fill="#173b8f">
  <path id="path3246" style="" d="m35.159 163.03c-0.78787 1.3523-1.3729 2.6899-1.7551 4.0128-0.38218 1.3229-0.57327 2.6635-0.57326 4.0217-0.000004 1.3582 0.19108 2.7046 0.57326 4.0393 0.38805 1.3288 0.97307 2.6664 1.7551 4.0128h-1.4111c-0.88195-1.3817-1.5434-2.7399-1.9844-4.0746-0.43509-1.3347-0.65264-2.6605-0.65264-3.9776-0.000001-1.3112 0.21754-2.6311 0.65264-3.9599 0.43509-1.3288 1.0965-2.687 1.9844-4.0746h1.4111"/>
  <path id="path3248" style="" d="m43.944 169.63c0.85254 0.18227 1.5169 0.56151 1.9932 1.1377 0.48212 0.5762 0.72318 1.2876 0.72319 2.1343-0.00001 1.2994-0.44686 2.3048-1.3406 3.0162-0.89371 0.71143-2.1637 1.0672-3.81 1.0672-0.55269 0-1.123-0.0559-1.711-0.16757-0.58209-0.10584-1.1847-0.26752-1.808-0.48507v-1.7198c0.49389 0.2881 1.0348 0.50565 1.6228 0.65264 0.58796 0.14699 1.2024 0.22048 1.8433 0.22048 1.1171 0 1.9667-0.22048 2.5488-0.66145 0.58795-0.44097 0.88194-1.0818 0.88194-1.9226-0.000008-0.77611-0.27341-1.3817-0.82021-1.8168-0.54093-0.44097-1.2965-0.66146-2.2666-0.66146h-1.5346v-1.464h1.6051c0.87606 0.00001 1.5463-0.17344 2.0108-0.52034 0.46448-0.35277 0.69673-0.85842 0.69674-1.517-0.000008-0.67614-0.24107-1.1936-0.72319-1.5522-0.47626-0.36452-1.1612-0.54679-2.0549-0.5468-0.48801 0.00001-1.0113 0.0529-1.5699 0.15875-0.55857 0.10584-1.173 0.27047-1.8433 0.49389v-1.5875c0.67615-0.18814 1.3082-0.32925 1.8962-0.42333 0.59384-0.0941 1.1524-0.1411 1.6757-0.14112 1.3523 0.00002 2.4224 0.3087 3.2103 0.92604 0.78786 0.6115 1.1818 1.4405 1.1818 2.4871-0.00001 0.72908-0.20874 1.3464-0.62618 1.8521-0.41746 0.49977-1.0113 0.84667-1.7815 1.0407"/>
  <path id="path3250" style="" d="m56.908 171.8c-0.000009-1.1936-0.24695-2.1284-0.74083-2.8046-0.48802-0.68203-1.1612-1.023-2.0196-1.023-0.85843 0-1.5346 0.34102-2.0285 1.023-0.48801 0.67616-0.73202 1.611-0.73201 2.8046-0.000003 1.1936 0.244 2.1314 0.73201 2.8134 0.49388 0.67616 1.17 1.0142 2.0285 1.0142 0.85842 0.00001 1.5316-0.33807 2.0196-1.0142 0.49388-0.68203 0.74082-1.6198 0.74083-2.8134m-5.521-3.4484c0.34102-0.58795 0.77023-1.023 1.2876-1.3053 0.52328-0.2881 1.1465-0.43215 1.8697-0.43216 1.1994 0.00001 2.1725 0.47626 2.9192 1.4288 0.75258 0.95251 1.1289 2.2049 1.1289 3.7571-0.000011 1.5522-0.37631 2.8046-1.1289 3.7571-0.74672 0.9525-1.7198 1.4288-2.9192 1.4288-0.7232 0-1.3464-0.14111-1.8697-0.42334-0.51741-0.2881-0.94662-0.72613-1.2876-1.3141v1.4817h-1.6316v-13.723h1.6316v5.3446"/>
  <path id="path3252" style="" d="m61.027 163.03h1.4111c0.88194 1.3876 1.5405 2.7458 1.9756 4.0746 0.44097 1.3288 0.66145 2.6488 0.66146 3.9599-0.000006 1.317-0.22049 2.6429-0.66146 3.9776-0.4351 1.3347-1.0936 2.6929-1.9756 4.0746h-1.4111c0.78199-1.3464 1.3641-2.684 1.7462-4.0128 0.38805-1.3347 0.58208-2.6811 0.58208-4.0393-0.000004-1.3582-0.19403-2.6987-0.58208-4.0217-0.38218-1.3229-0.96426-2.6605-1.7462-4.0128"/>
 </g>
 <g id="text154" fill="#173b8f">
  <path id="path3255" style="" d="m200.89 213.03c-0.78788 1.3523-1.3729 2.6899-1.7551 4.0128-0.38218 1.3229-0.57327 2.6635-0.57326 4.0217-0.00001 1.3582 0.19108 2.7046 0.57326 4.0393 0.38805 1.3288 0.97307 2.6664 1.7551 4.0128h-1.4111c-0.88195-1.3817-1.5434-2.7399-1.9844-4.0746-0.43509-1.3347-0.65264-2.6605-0.65263-3.9776-0.00001-1.3112 0.21754-2.6311 0.65263-3.9599s1.0966-2.687 1.9844-4.0746h1.4111"/>
  <path id="path3257" style="" d="m204.59 225.23h2.9104v-10.045l-3.1662 0.635v-1.6228l3.1485-0.635h1.7815v11.668h2.9104v1.4993h-7.5847v-1.4993"/>
  <path id="path3259" style="" d="m215.29 213.03h1.4111c0.88194 1.3876 1.5405 2.7458 1.9756 4.0746 0.44097 1.3288 0.66146 2.6488 0.66146 3.9599 0 1.317-0.22049 2.6429-0.66146 3.9776-0.43509 1.3347-1.0936 2.6929-1.9756 4.0746h-1.4111c0.78199-1.3464 1.3641-2.684 1.7462-4.0128 0.38805-1.3347 0.58208-2.6811 0.58208-4.0393s-0.19403-2.6987-0.58208-4.0217c-0.38218-1.3229-0.96426-2.6605-1.7462-4.0128"/>
 </g>
 <g id="g158" transform="translate(-1.9025 -8.9666)">
  <path id="rect160" fill="#90ee90" d="m230 220h60v60h-60z"/>
  <path id="rect162" d="m230 220h60v60h-60z" stroke="#000" stroke-width="2" fill="none"/>
 </g>
 <g id="text164">
  <path id="path3264" style="" d="m245.9 241.9h7.1305v2.1696h-7.1305v-2.1696"/>
  <path id="path3266" style="" d="m264.61 232.99-6.7469 10.544h6.7469v-10.544m-0.70114-2.3283h3.3602v12.872h2.8178v2.2225h-2.8178v4.6567h-2.6591v-4.6567h-8.9164v-2.5797l8.2153-12.515"/>
 </g>
 <g id="g168" transform="translate(-1.9025 -8.9666)">
  <path id="path170" d="m290 280c40 0 20-70 20-100.26" stroke="#f62e2e" stroke-width="2" fill="none"/>
  <path id="polygon172" fill="#f62e2e" d="m310 179.74-5 2.5 5-10 5 10z"/>
  <path id="polygon174" d="m310 179.74-5 2.5 5-10 5 10z" stroke="#f62e2e" stroke-width="2" fill="none"/>
 </g>
 <g id="g176" transform="translate(-1.9025 -8.9666)">
  <path id="rect178" fill="#fdfd04" d="m180 240h20v20h-20z"/>
  <path id="rect180" d="m180 240h20v20h-20z" stroke="#000" stroke-width="2" fill="none"/>
 </g>
 <g id="g182" transform="translate(-1.9025 -8.9666)">
  <path id="path184" d="m200 250h20.264" stroke="#f62e2e" stroke-width="2" fill="none"/>
  <path id="polygon186" fill="#f62e2e" d="m220.26 250-2.5-5 10 5-10 5z"/>
  <path id="polygon188" d="m220.26 250-2.5-5 10 5-10 5z" stroke="#f62e2e" stroke-width="2" fill="none"/>
 </g>
 <g id="text190">
  <path id="path3275" style="" d="m153.16 243.39v-5.9796h1.6228v5.9178c-0.00001 0.93486 0.18226 1.6375 0.5468 2.1078 0.36454 0.46449 0.91134 0.69673 1.6404 0.69673 0.87606 0 1.5669-0.27928 2.0726-0.83785 0.51152-0.55856 0.76729-1.32 0.7673-2.2842v-5.6003h1.6228v9.8778h-1.6228v-1.517c-0.39395 0.59973-0.85256 1.0466-1.3758 1.3406-0.51741 0.2881-1.1201 0.43215-1.808 0.43215-1.1348 0-1.9961-0.35278-2.5841-1.0583-0.58797-0.70555-0.88195-1.7374-0.88195-3.0956m4.0834-6.2177"/>
  <path id="path3277" style="" d="m164.79 237.41h1.6228v10.054c0 1.2582-0.24107 2.1696-0.72319 2.734-0.47625 0.56444-1.2465 0.84666-2.3107 0.84667h-0.61736v-1.3758h0.43215c0.61736 0 1.0378-0.14405 1.2612-0.43215 0.22342-0.28222 0.33513-0.87312 0.33514-1.7727v-10.054m0-3.8453h1.6228v2.0549h-1.6228v-2.0549"/>
 </g>
 <g id="text194" fill="#173b8f">
  <path id="path3280" style="" d="m320.89 193.03c-0.78788 1.3523-1.3729 2.6899-1.7551 4.0128-0.38218 1.3229-0.57327 2.6635-0.57326 4.0217-0.00001 1.3582 0.19108 2.7046 0.57326 4.0393 0.38805 1.3288 0.97307 2.6664 1.7551 4.0128h-1.4111c-0.88195-1.3817-1.5434-2.7399-1.9844-4.0746-0.43509-1.3347-0.65264-2.6605-0.65263-3.9776-0.00001-1.3112 0.21754-2.6311 0.65263-3.9599s1.0966-2.687 1.9844-4.0746h1.4111"/>
  <path id="path3282" style="" d="m325.81 205.23h6.2177v1.4993h-8.3608v-1.4993c0.67615-0.69967 1.5963-1.6375 2.7605-2.8134 1.17-1.1818 1.905-1.9432 2.2049-2.2842 0.57032-0.64087 0.96719-1.1818 1.1906-1.6228 0.2293-0.44684 0.34395-0.88487 0.34396-1.3141-0.00001-0.69967-0.24695-1.27-0.74083-1.711-0.48802-0.44096-1.126-0.66145-1.9138-0.66146-0.55857 0.00001-1.1495 0.097-1.7727 0.29104-0.61736 0.19404-1.2788 0.48802-1.9844 0.88194v-1.7992c0.71731-0.28809 1.3876-0.50564 2.0108-0.65264 0.62324-0.14698 1.1936-0.22047 1.711-0.22049 1.3641 0.00002 2.4518 0.34104 3.2632 1.0231 0.81138 0.68205 1.2171 1.5934 1.2171 2.734-0.00001 0.54094-0.10291 1.0554-0.30868 1.5434-0.19992 0.48214-0.5674 1.0525-1.1024 1.711-0.147 0.17052-0.61443 0.66441-1.4023 1.4817-0.78788 0.81139-1.8991 1.9491-3.3338 3.4131"/>
  <path id="path3284" style="" d="m335.29 193.03h1.4111c0.88194 1.3876 1.5405 2.7458 1.9756 4.0746 0.44097 1.3288 0.66146 2.6488 0.66146 3.9599 0 1.317-0.22049 2.6429-0.66146 3.9776-0.43509 1.3347-1.0936 2.6929-1.9756 4.0746h-1.4111c0.78199-1.3464 1.3641-2.684 1.7462-4.0128 0.38805-1.3347 0.58208-2.6811 0.58208-4.0393s-0.19403-2.6987-0.58208-4.0217c-0.38218-1.3229-0.96426-2.6605-1.7462-4.0128"/>
 </g>
 <g id="text198" fill="#173b8f">
  <path id="path3287" style="" d="m215.35 163.03c-0.78787 1.3523-1.3729 2.6899-1.7551 4.0128-0.38218 1.3229-0.57326 2.6635-0.57326 4.0217s0.19108 2.7046 0.57326 4.0393c0.38805 1.3288 0.97308 2.6664 1.7551 4.0128h-1.4111c-0.88194-1.3817-1.5434-2.7399-1.9844-4.0746-0.43509-1.3347-0.65264-2.6605-0.65264-3.9776 0-1.3112 0.21755-2.6311 0.65264-3.9599s1.0966-2.687 1.9844-4.0746h1.4111"/>
  <path id="path3289" style="" d="m224.14 169.63c0.85253 0.18227 1.5169 0.56151 1.9932 1.1377 0.48212 0.5762 0.72318 1.2876 0.72319 2.1343-0.00001 1.2994-0.44686 2.3048-1.3406 3.0162-0.89371 0.71143-2.1637 1.0672-3.81 1.0672-0.55269 0-1.123-0.0559-1.711-0.16757-0.58208-0.10584-1.1847-0.26752-1.808-0.48507v-1.7198c0.49389 0.2881 1.0348 0.50565 1.6228 0.65264 0.58795 0.14699 1.2024 0.22048 1.8433 0.22048 1.1171 0 1.9667-0.22048 2.5488-0.66145 0.58796-0.44097 0.88194-1.0818 0.88195-1.9226-0.00001-0.77611-0.27341-1.3817-0.82021-1.8168-0.54093-0.44097-1.2965-0.66146-2.2666-0.66146h-1.5346v-1.464h1.6051c0.87606 0.00001 1.5463-0.17344 2.0108-0.52034 0.46448-0.35277 0.69673-0.85842 0.69674-1.517-0.00001-0.67614-0.24108-1.1936-0.7232-1.5522-0.47625-0.36452-1.1612-0.54679-2.0549-0.5468-0.48802 0.00001-1.0113 0.0529-1.5699 0.15875-0.55857 0.10584-1.173 0.27047-1.8433 0.49389v-1.5875c0.67616-0.18814 1.3082-0.32925 1.8962-0.42333 0.59384-0.0941 1.1524-0.1411 1.6757-0.14112 1.3523 0.00002 2.4224 0.3087 3.2103 0.92604 0.78786 0.6115 1.1818 1.4405 1.1818 2.4871-0.00001 0.72908-0.20873 1.3464-0.62618 1.8521-0.41746 0.49977-1.0113 0.84667-1.7815 1.0407"/>
  <path id="path3291" style="" d="m234.5 171.77c-1.3112 0.00001-2.2196 0.14994-2.7252 0.44979-0.50565 0.29987-0.75848 0.8114-0.75847 1.5346-0.00001 0.5762 0.18814 1.0348 0.56444 1.3758 0.38217 0.33514 0.89958 0.50271 1.5522 0.5027 0.89958 0.00001 1.6198-0.31749 2.1608-0.95249 0.5468-0.64088 0.8202-1.4905 0.82021-2.5488v-0.3616h-1.614m3.2367-0.67027v5.6356h-1.6228v-1.4993c-0.37042 0.59972-0.83197 1.0436-1.3846 1.3317-0.55269 0.28223-1.2288 0.42334-2.0285 0.42334-1.0113 0-1.8168-0.28222-2.4165-0.84667-0.59384-0.57032-0.89076-1.3317-0.89076-2.2842 0-1.1112 0.37042-1.9491 1.1112-2.5135 0.74671-0.56444 1.858-0.84666 3.3338-0.84667h2.2754v-0.15875c-0.00001-0.7467-0.24695-1.3229-0.74083-1.7286-0.48802-0.41157-1.1759-0.61736-2.0638-0.61737-0.56445 0.00001-1.1142 0.0676-1.6492 0.20285-0.53504 0.13524-1.0495 0.33809-1.5434 0.60854v-1.4993c0.59384-0.2293 1.17-0.39981 1.7286-0.51153 0.55856-0.11758 1.1024-0.17638 1.6316-0.17639 1.4287 0.00001 2.4959 0.37043 3.2014 1.1112 0.70555 0.74084 1.0583 1.8638 1.0583 3.369"/>
  <path id="path3293" style="" d="m240.83 163.03h1.4111c0.88194 1.3876 1.5405 2.7458 1.9756 4.0746 0.44096 1.3288 0.66145 2.6488 0.66145 3.9599 0 1.317-0.22049 2.6429-0.66145 3.9776-0.4351 1.3347-1.0936 2.6929-1.9756 4.0746h-1.4111c0.78199-1.3464 1.3641-2.684 1.7462-4.0128 0.38805-1.3347 0.58208-2.6811 0.58209-4.0393-0.00001-1.3582-0.19404-2.6987-0.58209-4.0217-0.38218-1.3229-0.96426-2.6605-1.7462-4.0128"/>
 </g>
 <g id="g202" transform="translate(-1.9025 -8.9666)">
  <path id="path204" d="m240 160c30 0-0.321 29.037 6.6 49.801" stroke="#f62e2e" stroke-width="2" fill="none"/>
  <path id="polygon206" fill="#f62e2e" d="m246.6 209.8 3.953-3.953-1.581 11.068-7.906-7.906z"/>
  <path id="polygon208" d="m246.6 209.8 3.953-3.953-1.581 11.068-7.906-7.906z" stroke="#f62e2e" stroke-width="2" fill="none"/>
 </g>
 <g id="g210" transform="translate(-1.9025 -8.9666)">
  <path id="rect212" fill="#fdfd04" d="m40 270h60v20h-60z"/>
  <path id="rect214" d="m40 270h60v20h-60z" stroke="#000" stroke-width="2" fill="none"/>
 </g>
 <g id="g216" transform="translate(-1.9025 -8.9666)">
  <path id="rect218" fill="#fdfd04" d="m230 270h60v20h-60z"/>
  <path id="rect220" d="m230 270h60v20h-60z" stroke="#000" stroke-width="2" fill="none"/>
 </g>
 <g id="g222" transform="translate(-1.9025 -8.9666)">
  <path id="rect224" fill="#fdfd04" d="m80 150h60v20h-60z"/>
  <path id="rect226" d="m80 150h60v20h-60z" stroke="#000" stroke-width="2" fill="none"/>
 </g>
 <g id="g228" transform="translate(-1.9025 -8.9666)">
  <path id="rect230" fill="#fdfd04" d="m380 150h60v20h-60z"/>
  <path id="rect232" d="m380 150h60v20h-60z" stroke="#000" stroke-width="2" fill="none"/>
 </g>
 <g id="g234" transform="translate(-1.9025 -8.9666)">
  <path id="rect236" fill="#fdfd04" d="m180 150h60v20h-60z"/>
  <path id="rect238" d="m180 150h60v20h-60z" stroke="#000" stroke-width="2" fill="none"/>
 </g>
 <g id="g240" transform="translate(-1.9025 -8.9666)">
  <path id="rect242" fill="#fdfd04" d="m280 150h60v20h-60z"/>
  <path id="rect244" d="m280 150h60v20h-60z" stroke="#000" stroke-width="2" fill="none"/>
 </g>
 <g id="g246" transform="translate(-1.9025 -8.9666)">
  <path id="path248" d="m100 280c40 0 10-70 10-100.26" stroke="#f62e2e" stroke-width="2" fill="none"/>
  <path id="polygon250" fill="#f62e2e" d="m110 179.74-5 2.5 5-10 5 10z"/>
  <path id="polygon252" d="m110 179.74-5 2.5 5-10 5 10z" stroke="#f62e2e" stroke-width="2" fill="none"/>
 </g>
 <path id="line254" d="m378.1 141.03 60 20" stroke="#000" stroke-width="2" fill="none"/>
 <path id="line256" d="m378.1 161.03 60-20" stroke="#000" stroke-width="2" fill="none"/>
 <g id="g258" transform="translate(-1.9025 -8.9666)">
  <path id="rect260" fill="#fdfd04" d="m200 50h20v20h-20z"/>
  <path id="rect262" d="m200 50h20v20h-20z" stroke="#000" stroke-width="2" fill="none"/>
 </g>
 <g id="g264" transform="translate(-1.9025 -8.9666)">
  <path id="rect266" fill="#fdfd04" d="m300 50h20v20h-20z"/>
  <path id="rect268" d="m300 50h20v20h-20z" stroke="#000" stroke-width="2" fill="none"/>
 </g>
 <path id="line270" d="m48.097 111.03 20 20" stroke="#f62e2e" stroke-width="2" fill="none"/>
 <path id="line272" d="m68.097 111.03-20 20" stroke="#f62e2e" stroke-width="2" fill="none"/>
 <path id="line274" d="m248.1 111.03 20 20" stroke="#f62e2e" stroke-width="2" fill="none"/>
 <path id="line276" d="m268.1 111.03-20 20" stroke="#f62e2e" stroke-width="2" fill="none"/>
 <g id="g278" transform="translate(-1.9025 -8.9666)">
  <path id="path280" d="m140 160c40 0 0-30 30.264-30" stroke="#000" stroke-width="2" fill="none"/>
  <path id="polygon282" d="m170.26 130-2.5-5 10 5-10 5z"/>
  <path id="polygon284" d="m170.26 130-2.5-5 10 5-10 5z" stroke="#000" stroke-width="2" fill="none"/>
 </g>
</svg>
