<?xml version="1.0" encoding="UTF-8" standalone="no"?>
<!-- Created with Inkscape (http://www.inkscape.org/) -->
<svg id="svg2" xmlns:rdf="http://www.w3.org/1999/02/22-rdf-syntax-ns#" xmlns="http://www.w3.org/2000/svg" height="320.08" width="775.44" version="1.1" xmlns:cc="http://creativecommons.org/ns#" xmlns:dc="http://purl.org/dc/elements/1.1/" viewBox="20 28 433.71284 165.30889">
 <metadata id="metadata184">
  <rdf:RDF>
   <cc:Work rdf:about="">
    <dc:format>image/svg+xml</dc:format>
    <dc:type rdf:resource="http://purl.org/dc/dcmitype/StillImage"/>
   </cc:Work>
  </rdf:RDF>
 </metadata>
 <g id="g4" transform="translate(-2.1345 -10.834)">
  <path id="path6" d="m120 130h30.264" stroke="#000" stroke-width="2" fill="none"/>
  <path id="polygon8" d="m150.26 130-2.5-5 10 5-10 5z"/>
  <path id="polygon10" d="m150.26 130-2.5-5 10 5-10 5z" stroke="#000" stroke-width="2" fill="none"/>
 </g>
 <g id="g12" transform="translate(-2.1345 -10.834)">
  <path id="rect14" fill="#7babe3" d="m280 100h60v60h-60z"/>
  <path id="rect16" d="m280 100h60v60h-60z" stroke="#000" stroke-width="2" fill="none"/>
 </g>
 <g id="g18" transform="translate(-2.1345 -10.834)">
  <path id="rect20" fill="#7babe3" d="m380 100h60v60h-60z"/>
  <path id="rect22" d="m380 100h60v60h-60z" stroke="#000" stroke-width="2" fill="none"/>
 </g>
 <g id="g24" transform="translate(-2.1345 -10.834)">
  <path id="rect26" fill="#7be38e" d="m160 100h60v60h-60z"/>
  <path id="rect28" d="m160 100h60v60h-60z" stroke="#000" stroke-width="2" fill="none"/>
 </g>
 <g id="g30" transform="translate(-2.1345 -10.834)">
  <path id="rect32" fill="#fdfd04" d="m100 120h20v20h-20z"/>
  <path id="rect34" d="m100 120h20v20h-20z" stroke="#000" stroke-width="2" fill="none"/>
 </g>
 <g id="g36" transform="translate(-2.1345 -10.834)">
  <path id="path38" d="m440 130c40 50 0 80-130 80s-190-30-156.08-72.397" stroke="#f62e2e" stroke-width="2" fill="none"/>
  <path id="polygon40" fill="#f62e2e" d="m153.92 137.6-5.466-1.172 10.151-4.685-2.342 10.932z"/>
  <path id="polygon42" d="m153.92 137.6-5.466-1.172 10.151-4.685-2.342 10.932z" stroke="#f62e2e" stroke-width="2" fill="none"/>
 </g>
 <g id="g44" transform="translate(-2.1345 -10.834)">
  <path id="path46" d="m340 130h30.264" stroke="#000" stroke-width="2" fill="none"/>
  <path id="polygon48" d="m370.26 130-2.5-5 10 5-10 5z"/>
  <path id="polygon50" d="m370.26 130-2.5-5 10 5-10 5z" stroke="#000" stroke-width="2" fill="none"/>
 </g>
 <g id="text52">
  <path id="path3085" style="" d="m402.16 108.79h10.491v2.249h-8.0433v4.8419c0.38805-0.13228 0.7761-0.22929 1.1642-0.29104 0.38805-0.0705 0.77611-0.10582 1.1642-0.10583 2.2048 0.00001 3.9511 0.60414 5.2387 1.8124s1.9314 2.8443 1.9315 4.908c-0.00002 2.1255-0.66147 3.7791-1.9844 4.9609-1.3229 1.173-3.1882 1.7595-5.5959 1.7595-0.82904-0.00001-1.6757-0.0706-2.54-0.21167-0.85549-0.14111-1.7418-0.35278-2.6591-0.635v-2.6855c0.79375 0.43216 1.614 0.75407 2.4606 0.96573 0.84666 0.21167 1.7418 0.3175 2.6855 0.3175 1.5258 0 2.734-0.40128 3.6248-1.2038 0.89075-0.80257 1.3361-1.8918 1.3361-3.2676-0.00001-1.3758-0.44539-2.465-1.3361-3.2676-0.89078-0.80256-2.099-1.2038-3.6248-1.2039-0.71438 0.00001-1.4288 0.0794-2.1431 0.23813-0.70556 0.15876-1.4288 0.4057-2.1696 0.74083v-9.9219"/>
 </g>
 <g id="text56">
  <path id="path3088" style="" d="m309.48 111.12-6.7469 10.544h6.7469v-10.544m-0.70115-2.3283h3.3602v12.872h2.8178v2.2225h-2.8178v4.6567h-2.6591v-4.6567h-8.9164v-2.5797l8.2153-12.515"/>
 </g>
 <g id="text60">
  <path id="path3091" style="" d="m190.23 117.89c1.2788 0.27342 2.2754 0.84227 2.9898 1.7066 0.72317 0.86432 1.0848 1.9315 1.0848 3.2015-0.00002 1.9491-0.6703 3.4572-2.0108 4.5244-1.3406 1.0672-3.2456 1.6007-5.715 1.6007-0.82903-0.00001-1.6845-0.0838-2.5664-0.25136-0.87313-0.15875-1.7771-0.40128-2.712-0.7276v-2.5797c0.74083 0.43216 1.5522 0.75848 2.4342 0.97896 0.88194 0.22049 1.8036 0.33073 2.7649 0.33073 1.6757 0 2.9501-0.33073 3.8232-0.99219 0.88193-0.66145 1.3229-1.6228 1.3229-2.884-0.00002-1.1642-0.41012-2.0726-1.2303-2.7252-0.8114-0.66144-1.9447-0.99217-3.3999-0.99218h-2.3019v-2.196h2.4077c1.3141 0.00001 2.3195-0.26016 3.0162-0.78052 0.69673-0.52915 1.0451-1.2876 1.0451-2.2754-0.00002-1.0142-0.36161-1.7903-1.0848-2.3283-0.71439-0.54678-1.7418-0.82019-3.0824-0.8202-0.73202 0.00001-1.5169 0.0794-2.3548 0.23812-0.83786 0.15877-1.7595 0.40571-2.7649 0.74083v-2.3812c1.0142-0.28221 1.9623-0.49387 2.8443-0.635 0.89076-0.14109 1.7286-0.21165 2.5135-0.21167 2.0285 0.00002 3.6336 0.46304 4.8154 1.3891 1.1818 0.91724 1.7727 2.1608 1.7727 3.7306-0.00002 1.0936-0.31311 2.0197-0.93927 2.7781-0.6262 0.74967-1.517 1.27-2.6723 1.561"/>
 </g>
 <g id="text64" fill="#173b8f">
  <path id="path3094" style="" d="m177.85 52.261c-0.78787 1.3523-1.3729 2.6899-1.7551 4.0128-0.38218 1.3229-0.57327 2.6635-0.57327 4.0217s0.19109 2.7046 0.57327 4.0393c0.38805 1.3288 0.97307 2.6664 1.7551 4.0128h-1.4111c-0.88194-1.3817-1.5434-2.7399-1.9844-4.0746-0.43509-1.3347-0.65264-2.6605-0.65264-3.9776 0-1.3111 0.21755-2.6311 0.65264-3.9599s1.0966-2.687 1.9844-4.0746h1.4111"/>
  <path id="path3096" style="" d="m186.64 58.866c0.85254 0.18228 1.5169 0.56151 1.9932 1.1377 0.48212 0.57621 0.72319 1.2876 0.7232 2.1343-0.00001 1.2994-0.44686 2.3048-1.3406 3.0162-0.89371 0.71144-2.1637 1.0672-3.81 1.0672-0.55269 0-1.123-0.05586-1.711-0.16757-0.58209-0.10583-1.1848-0.26752-1.808-0.48507v-1.7198c0.49389 0.2881 1.0348 0.50565 1.6228 0.65264 0.58796 0.14699 1.2024 0.22049 1.8433 0.22049 1.1171 0.000001 1.9667-0.22048 2.5488-0.66146 0.58795-0.44097 0.88193-1.0818 0.88194-1.9226-0.00001-0.77611-0.27341-1.3817-0.82021-1.8168-0.54093-0.44097-1.2965-0.66145-2.2666-0.66146h-1.5346v-1.464h1.6051c0.87606 0.000008 1.5463-0.17344 2.0108-0.52035 0.46449-0.35277 0.69673-0.85842 0.69674-1.5169-0.00001-0.67615-0.24107-1.1936-0.72319-1.5522-0.47626-0.36452-1.1612-0.54679-2.0549-0.5468-0.48802 0.000011-1.0113 0.05293-1.5699 0.15875-0.55857 0.10584-1.173 0.27047-1.8433 0.49389v-1.5875c0.67615-0.18814 1.3082-0.32925 1.8962-0.42333 0.59383-0.09406 1.1524-0.1411 1.6757-0.14111 1.3523 0.000013 2.4224 0.30869 3.2103 0.92604 0.78786 0.61149 1.1818 1.4405 1.1818 2.4871-0.00001 0.72908-0.20874 1.3464-0.62618 1.8521-0.41747 0.49978-1.0113 0.84667-1.7815 1.0407"/>
  <path id="path3098" style="" d="m192.26 52.261h1.4111c0.88194 1.3876 1.5405 2.7458 1.9756 4.0746 0.44097 1.3288 0.66145 2.6488 0.66146 3.9599-0.00001 1.317-0.22049 2.6429-0.66146 3.9776-0.43509 1.3347-1.0936 2.6929-1.9756 4.0746h-1.4111c0.78199-1.3464 1.3641-2.684 1.7462-4.0128 0.38805-1.3347 0.58208-2.6811 0.58208-4.0393s-0.19403-2.6987-0.58208-4.0217c-0.38218-1.3229-0.96426-2.6605-1.7462-4.0128"/>
 </g>
 <g id="g68" transform="translate(-2.1345 -10.834)">
  <path id="path70" d="m220 130h50.264" stroke="#000" stroke-width="2" fill="none"/>
  <path id="polygon72" d="m270.26 130-2.5-5 10 5-10 5z"/>
  <path id="polygon74" d="m270.26 130-2.5-5 10 5-10 5z" stroke="#000" stroke-width="2" fill="none"/>
 </g>
 <g id="text76">
  <path id="path3103" style="" d="m61.434 120.07v0.79374h-7.4612c0.07055 1.1171 0.40569 1.9697 1.0054 2.5576 0.6056 0.58208 1.4464 0.87313 2.5224 0.87312 0.62323 0.00001 1.2259-0.0764 1.808-0.2293 0.58795-0.15287 1.17-0.38217 1.7462-0.68792v1.5346c-0.58209 0.24695-1.1789 0.4351-1.7903 0.56445-0.61149 0.12935-1.2318 0.19403-1.8609 0.19403-1.5757 0-2.8252-0.45861-3.7483-1.3758-0.91722-0.91721-1.3758-2.1578-1.3758-3.7218-0.000001-1.6169 0.43509-2.8986 1.3053-3.8453 0.87606-0.95249 2.0549-1.4287 3.5366-1.4288 1.3288 0.00001 2.3783 0.42922 3.1485 1.2876 0.7761 0.85255 1.1642 2.0138 1.1642 3.4837m-1.6228-0.47625c-0.01177-0.88782-0.26165-1.5963-0.74965-2.1255-0.48214-0.52916-1.123-0.79374-1.9226-0.79375-0.90547 0.00001-1.6316 0.25578-2.1784 0.76729-0.54093 0.51154-0.85255 1.2318-0.93486 2.1608l5.7855-0.009"/>
  <path id="path3105" style="" d="m64.097 111.69h1.6228v13.723h-1.6228v-13.723"/>
  <path id="path3107" style="" d="m75.404 115.83v1.5346c-0.45862-0.23518-0.93487-0.41157-1.4287-0.52917-0.49389-0.11758-1.0054-0.17638-1.5346-0.17639-0.80551 0.00001-1.4111 0.12349-1.8168 0.37042-0.39982 0.24695-0.59972 0.61737-0.59972 1.1112-0.000003 0.3763 0.14405 0.67322 0.43215 0.89076 0.2881 0.21167 0.86724 0.41452 1.7374 0.60854l0.55562 0.12348c1.1524 0.24694 1.9697 0.59678 2.4518 1.0495 0.488 0.44685 0.732 1.073 0.73201 1.8785-0.000008 0.91722-0.36454 1.6434-1.0936 2.1784-0.7232 0.53504-1.7198 0.80257-2.9898 0.80257-0.52917 0-1.0819-0.0529-1.6581-0.15875-0.57033-0.1-1.173-0.25283-1.808-0.45861v-1.6757c0.59972 0.31162 1.1906 0.54681 1.7727 0.70556 0.58208 0.15287 1.1583 0.2293 1.7286 0.2293 0.76435 0 1.3523-0.12935 1.7639-0.38805 0.41157-0.26458 0.61735-0.635 0.61736-1.1112-0.000006-0.44097-0.14994-0.77905-0.44979-1.0142-0.29399-0.23518-0.94368-0.46154-1.9491-0.67909l-0.56444-0.13229c-1.0054-0.21167-1.7316-0.53504-2.1784-0.97014-0.44685-0.44097-0.67028-1.0436-0.67028-1.808-0.000002-0.92897 0.32926-1.6463 0.98778-2.1519 0.65852-0.50563 1.5934-0.75846 2.8046-0.75847 0.59972 0.00001 1.1642 0.0441 1.6933 0.13229 0.52916 0.0882 1.0172 0.2205 1.464 0.39688"/>
  <path id="path3109" style="" d="m82.353 116.68c-0.87019 0.00001-1.5581 0.34103-2.0637 1.0231-0.50565 0.67616-0.75848 1.6051-0.75847 2.7869-0.000003 1.1818 0.24988 2.1137 0.74965 2.7958 0.50564 0.67616 1.1965 1.0142 2.0726 1.0142 0.8643 0.00001 1.5493-0.34101 2.0549-1.023 0.50564-0.68203 0.75846-1.611 0.75847-2.7869-0.000008-1.17-0.25283-2.0961-0.75847-2.7781-0.50565-0.68791-1.1906-1.0319-2.0549-1.0319m0-1.3758c1.4111 0.00001 2.5194 0.45862 3.3249 1.3758 0.8055 0.91723 1.2083 2.1872 1.2083 3.81-0.00001 1.6169-0.40276 2.8869-1.2083 3.81-0.80552 0.91723-1.9138 1.3758-3.3249 1.3758-1.417 0-2.5282-0.45861-3.3337-1.3758-0.79963-0.92309-1.1994-2.1931-1.1994-3.81-0.000001-1.6228 0.39981-2.8928 1.1994-3.81 0.8055-0.91721 1.9168-1.3758 3.3337-1.3758"/>
 </g>
 <g id="g80" transform="translate(-2.1345 -10.834)">
  <path id="path82" d="m274.42 122.02c-15.42-22.02-14.42-42.02-64.42-42.02h-90" stroke="#f62e2e" stroke-width="2" fill="none"/>
  <path id="polygon84" fill="#f62e2e" d="m274.42 122.02 2.662-4.915 1.639 11.059-9.831-5.325z"/>
  <path id="polygon86" d="m274.42 122.02 2.662-4.915 1.639 11.059-9.831-5.325z" stroke="#f62e2e" stroke-width="2" fill="none"/>
 </g>
 <g id="text88" fill="#173b8f">
  <path id="path3114" style="" d="m300.66 181.16c-0.78787 1.3523-1.3729 2.6899-1.7551 4.0128-0.38217 1.3229-0.57326 2.6635-0.57326 4.0217s0.19109 2.7046 0.57326 4.0393c0.38806 1.3288 0.97308 2.6664 1.7551 4.0128h-1.4111c-0.88194-1.3817-1.5434-2.7399-1.9844-4.0746-0.43509-1.3347-0.65264-2.6605-0.65264-3.9776 0-1.3112 0.21755-2.6311 0.65264-3.9599s1.0966-2.687 1.9844-4.0746h1.4111"/>
  <path id="path3116" style="" d="m304.36 193.37h2.9104v-10.045l-3.1662 0.635v-1.6228l3.1485-0.635h1.7815v11.668h2.9104v1.4993h-7.5847v-1.4993"/>
  <path id="path3118" style="" d="m315.06 181.16h1.4111c0.88194 1.3876 1.5404 2.7458 1.9756 4.0746 0.44097 1.3288 0.66145 2.6488 0.66146 3.9599-0.00001 1.317-0.22049 2.6429-0.66146 3.9776-0.4351 1.3347-1.0936 2.6929-1.9756 4.0746h-1.4111c0.78199-1.3464 1.3641-2.684 1.7462-4.0128 0.38805-1.3347 0.58207-2.6811 0.58208-4.0393-0.00001-1.3582-0.19403-2.6987-0.58208-4.0217-0.38218-1.3229-0.96426-2.6605-1.7462-4.0128"/>
 </g>
 <g id="g92" transform="translate(-2.1345 -10.834)">
  <path id="line94" d="m410 70v20.264" stroke="#000" stroke-width="2" fill="none"/>
  <path id="polygon96" d="m410 90.264 5-2.5-5 10-5-10z"/>
  <path id="polygon98" d="m410 90.264 5-2.5-5 10-5-10z" stroke="#000" stroke-width="2" fill="none"/>
 </g>
 <g id="text100">
  <path id="path3124" style="" d="m394.24 24.988h1.6228v9.8778h-1.6228v-9.8778m0-3.8453h1.6228v2.0549h-1.6228v-2.0549"/>
  <path id="path3126" style="" d="m400.85 22.184v2.8046h3.3426v1.2612h-3.3426v5.3622c0 0.80551 0.10877 1.3229 0.32632 1.5522 0.22342 0.22931 0.67321 0.34396 1.3494 0.34396h1.6669v1.3582h-1.6669c-1.2524 0-2.1167-0.23224-2.5929-0.69674-0.47625-0.47037-0.71438-1.3229-0.71438-2.5576v-5.3622h-1.1906v-1.2612h1.1906v-2.8046h1.6316"/>
  <path id="path3128" style="" d="m414.79 29.521v0.79375h-7.4612c0.0706 1.1171 0.4057 1.9697 1.0054 2.5576 0.6056 0.58208 1.4464 0.87312 2.5224 0.87312 0.62323 0.000001 1.2259-0.07643 1.808-0.2293 0.58796-0.15287 1.17-0.38217 1.7462-0.68792v1.5346c-0.58209 0.24694-1.1789 0.43509-1.7904 0.56444-0.61148 0.12935-1.2318 0.19403-1.8609 0.19403-1.5757-0.000001-2.8252-0.45861-3.7483-1.3758-0.91722-0.91722-1.3758-2.1578-1.3758-3.7218 0-1.6169 0.43509-2.8986 1.3053-3.8453 0.87606-0.95249 2.0549-1.4287 3.5366-1.4287 1.3288 0.00001 2.3783 0.42922 3.1485 1.2876 0.7761 0.85255 1.1642 2.0138 1.1642 3.4837m-1.6228-0.47625c-0.0118-0.88782-0.26165-1.5963-0.74965-2.1255-0.48214-0.52916-1.123-0.79374-1.9226-0.79375-0.90547 0.000009-1.6316 0.25577-2.1784 0.76729-0.54093 0.51153-0.85255 1.2318-0.93486 2.1608l5.7856-0.0088"/>
  <path id="path3130" style="" d="m423.18 26.505c-0.18228-0.10582-0.38219-0.18226-0.59973-0.22931-0.21167-0.05291-0.44685-0.07937-0.70555-0.07937-0.91723 0.000009-1.6228 0.29987-2.1167 0.89958-0.48802 0.59385-0.73202 1.4493-0.73202 2.5665v5.2035h-1.6316v-9.8778h1.6316v1.5346c0.34102-0.59971 0.78493-1.0436 1.3317-1.3317 0.5468-0.29397 1.2112-0.44096 1.9932-0.44097 0.11171 0.00001 0.23518 0.0088 0.37042 0.02646 0.13522 0.01177 0.28515 0.03235 0.44979 0.06174l0.009 1.6669"/>
 </g>
 <g id="g104" stroke="#f62e2e" stroke-width="2" fill="none" transform="translate(-2.1345 -10.834)">
  <path id="line106" d="m255.6 124.8 10 10"/>
  <path id="line108" d="m255.6 134.8 10-10"/>
 </g>
 <g id="g110" transform="translate(-2.1345 -10.834)">
  <path id="line112" d="m310 70v20.264" stroke="#000" stroke-width="2" fill="none"/>
  <path id="polygon114" d="m310 90.264 5-2.5-5 10-5-10z"/>
  <path id="polygon116" d="m310 90.264 5-2.5-5 10-5-10z" stroke="#000" stroke-width="2" fill="none"/>
 </g>
 <g id="text118">
  <path id="path3138" style="" d="m279.21 26.884c0.40568-0.72906 0.89075-1.267 1.4552-1.614 0.56443-0.34689 1.2288-0.52034 1.9932-0.52035 1.0289 0.00001 1.8227 0.36161 2.3812 1.0848 0.55855 0.71732 0.83783 1.7404 0.83785 3.0692v5.9619h-1.6316v-5.909c-0.00002-0.94661-0.16759-1.6492-0.50271-2.1078-0.33515-0.4586-0.84668-0.68791-1.5346-0.68792-0.8408 0.000008-1.5052 0.27929-1.9932 0.83785-0.48801 0.55857-0.73202 1.32-0.73201 2.2842v5.5827h-1.6316v-5.909c-0.00001-0.95249-0.16758-1.6551-0.50271-2.1078-0.33515-0.4586-0.85255-0.68791-1.5522-0.68792-0.82903 0.000008-1.4876 0.28223-1.9756 0.84666-0.48801 0.55857-0.73201 1.317-0.73201 2.2754v5.5827h-1.6316v-9.8778h1.6316v1.5346c0.37041-0.60559 0.81433-1.0524 1.3317-1.3406 0.5174-0.28809 1.1318-0.43214 1.8433-0.43215 0.7173 0.00001 1.3258 0.18228 1.8256 0.5468 0.50564 0.36455 0.879 0.89371 1.1201 1.5875"/>
  <path id="path3140" style="" d="m293.61 29.901c-1.3112 0.000005-2.2196 0.14994-2.7252 0.44979-0.50565 0.29986-0.75847 0.81139-0.75847 1.5346 0 0.57621 0.18814 1.0348 0.56444 1.3758 0.38217 0.33514 0.89958 0.50271 1.5522 0.50271 0.89958 0.000001 1.6198-0.3175 2.1608-0.9525 0.5468-0.64088 0.8202-1.4905 0.82021-2.5488v-0.3616h-1.614m3.2367-0.67028v5.6356h-1.6228v-1.4993c-0.37042 0.59972-0.83197 1.0436-1.3846 1.3317-0.55269 0.28222-1.2288 0.42333-2.0285 0.42333-1.0113-0.000001-1.8168-0.28222-2.4165-0.84667-0.59385-0.57032-0.89077-1.3317-0.89077-2.2842 0-1.1112 0.37042-1.9491 1.1112-2.5135 0.74671-0.56444 1.858-0.84666 3.3338-0.84667h2.2754v-0.15875c-0.00001-0.7467-0.24695-1.3229-0.74083-1.7286-0.48802-0.41156-1.1759-0.61735-2.0638-0.61736-0.56445 0.000009-1.1142 0.06762-1.6492 0.20285-0.53505 0.13524-1.0495 0.33809-1.5434 0.60854v-1.4993c0.59384-0.2293 1.17-0.3998 1.7286-0.51153 0.55856-0.11758 1.1024-0.17638 1.6316-0.17639 1.4287 0.00001 2.4959 0.37043 3.2014 1.1112 0.70555 0.74084 1.0583 1.8638 1.0583 3.369"/>
  <path id="path3142" style="" d="m306.5 25.279v1.5346c-0.45862-0.23518-0.93487-0.41156-1.4288-0.52917-0.4939-0.11758-1.0054-0.17638-1.5346-0.17639-0.80552 0.000009-1.4111 0.12348-1.8168 0.37042-0.39981 0.24695-0.59972 0.61737-0.59972 1.1112 0 0.3763 0.14405 0.67322 0.43215 0.89076 0.2881 0.21167 0.86724 0.41452 1.7374 0.60854l0.55563 0.12347c1.1524 0.24695 1.9697 0.59679 2.4518 1.0495 0.488 0.44686 0.732 1.073 0.73201 1.8785-0.00001 0.91722-0.36454 1.6434-1.0936 2.1784-0.7232 0.53505-1.7198 0.80257-2.9898 0.80257-0.52917-0.000001-1.0818-0.05292-1.658-0.15875-0.57033-0.09995-1.173-0.25282-1.808-0.45861v-1.6757c0.59972 0.31162 1.1906 0.54681 1.7727 0.70555 0.58208 0.15287 1.1583 0.22931 1.7286 0.22931 0.76435 0.000001 1.3523-0.12935 1.7639-0.38806 0.41157-0.26458 0.61735-0.635 0.61736-1.1112-0.00001-0.44097-0.14994-0.77905-0.44979-1.0142-0.29399-0.23518-0.94369-0.46155-1.9491-0.6791l-0.56444-0.13229c-1.0054-0.21166-1.7316-0.53504-2.1784-0.97014-0.44685-0.44096-0.67028-1.0436-0.67028-1.808 0-0.92897 0.32926-1.6463 0.98778-2.1519 0.65851-0.50564 1.5934-0.75846 2.8046-0.75847 0.59971 0.00001 1.1642 0.04411 1.6933 0.13229 0.52916 0.0882 1.0172 0.2205 1.464 0.39687"/>
  <path id="path3144" style="" d="m313.45 26.126c-0.87019 0.000009-1.5581 0.34103-2.0638 1.0231-0.50565 0.67616-0.75847 1.6051-0.75847 2.7869s0.24988 2.1137 0.74965 2.7958c0.50565 0.67616 1.1965 1.0142 2.0726 1.0142 0.8643 0.000001 1.5493-0.34102 2.0549-1.0231 0.50564-0.68203 0.75846-1.611 0.75847-2.7869-0.00001-1.17-0.25283-2.0961-0.75847-2.7781-0.50566-0.68791-1.1906-1.0319-2.0549-1.0319m0-1.3758c1.4111 0.00001 2.5194 0.45862 3.3249 1.3758 0.80549 0.91723 1.2082 2.1872 1.2083 3.81-0.00001 1.6169-0.40277 2.8869-1.2083 3.81-0.80552 0.91722-1.9138 1.3758-3.3249 1.3758-1.417-0.000001-2.5282-0.45861-3.3338-1.3758-0.79963-0.9231-1.1994-2.1931-1.1994-3.81 0-1.6228 0.39981-2.8928 1.1994-3.81 0.80551-0.91721 1.9168-1.3758 3.3338-1.3758"/>
  <path id="path3146" style="" d="m327.16 26.488v-5.3446h1.6228v13.723h-1.6228v-1.4817c-0.34103 0.58796-0.77318 1.026-1.2965 1.3141-0.51741 0.28222-1.1406 0.42333-1.8697 0.42333-1.1936-0.000001-2.1666-0.47625-2.9192-1.4287-0.74671-0.9525-1.1201-2.2049-1.1201-3.7571s0.37336-2.8046 1.1201-3.7571c0.75259-0.95249 1.7257-1.4287 2.9192-1.4287 0.72907 0.00001 1.3523 0.14406 1.8697 0.43215 0.52328 0.28223 0.95543 0.71732 1.2965 1.3053m-5.5298 3.4484c0 1.1936 0.24401 2.1314 0.73202 2.8134 0.49388 0.67616 1.17 1.0142 2.0285 1.0142 0.85842 0.000001 1.5346-0.33808 2.0285-1.0142 0.49388-0.68203 0.74082-1.6198 0.74083-2.8134-0.00001-1.1936-0.24695-2.1284-0.74083-2.8046-0.4939-0.68203-1.17-1.023-2.0285-1.0231-0.85843 0.000009-1.5346 0.34103-2.0285 1.0231-0.48801 0.67616-0.73202 1.611-0.73202 2.8046"/>
  <path id="path3148" style="" d="m332.13 24.988h1.6228v9.8778h-1.6228v-9.8778m0-3.8453h1.6228v2.0549h-1.6228v-2.0549"/>
  <path id="path3150" style="" d="m337.08 21.143h1.6316v8.1051l4.8419-4.2598h2.0726l-5.2387 4.6214 5.4592 5.2564h-2.1167l-5.0182-4.8242v4.8242h-1.6316v-13.723"/>
 </g>
 <g id="g122" transform="translate(-2.1345 -10.834)">
  <path id="rect124" fill="#fdfd04" d="m100 70h20v20h-20z"/>
  <path id="rect126" d="m100 70h20v20h-20z" stroke="#000" stroke-width="2" fill="none"/>
 </g>
 <g id="text128">
  <path id="path3155" style="" d="m24.048 61.711c-0.78787 1.3523-1.3729 2.6899-1.7551 4.0128-0.38218 1.3229-0.57327 2.6635-0.57326 4.0217-0.000003 1.3582 0.19108 2.7046 0.57326 4.0393 0.38805 1.3288 0.97307 2.6664 1.7551 4.0128h-1.4111c-0.88195-1.3817-1.5434-2.7399-1.9844-4.0746-0.43509-1.3347-0.65264-2.6605-0.65264-3.9776-0.000002-1.3111 0.21754-2.6311 0.65264-3.9599 0.43509-1.3288 1.0965-2.687 1.9844-4.0746h1.4111"/>
  <path id="path3157" style="" d="m32.929 67.055c-0.18228-0.10582-0.38218-0.18226-0.59972-0.2293-0.21167-0.05291-0.44686-0.07937-0.70555-0.07937-0.91723 0.000008-1.6228 0.29987-2.1167 0.89958-0.48801 0.59385-0.73202 1.4493-0.73201 2.5665v5.2035h-1.6316v-9.8778h1.6316v1.5346c0.34102-0.59971 0.78493-1.0436 1.3317-1.3317 0.5468-0.29397 1.2112-0.44096 1.9932-0.44097 0.11171 0.00001 0.23518 0.0088 0.37042 0.02646 0.13522 0.01177 0.28516 0.03235 0.44979 0.06174l0.0088 1.6669"/>
  <path id="path3159" style="" d="m42.701 70.071v0.79375h-7.4612c0.07055 1.1171 0.40569 1.9697 1.0054 2.5576 0.6056 0.58208 1.4464 0.87312 2.5224 0.87312 0.62323 0.000001 1.2259-0.07643 1.808-0.2293 0.58795-0.15287 1.17-0.38217 1.7462-0.68792v1.5346c-0.58209 0.24694-1.1789 0.43509-1.7903 0.56444-0.61149 0.12935-1.2318 0.19403-1.8609 0.19403-1.5757 0-2.8252-0.45861-3.7483-1.3758-0.91722-0.91722-1.3758-2.1578-1.3758-3.7218-0.000001-1.6169 0.43509-2.8986 1.3053-3.8453 0.87606-0.95249 2.0549-1.4287 3.5366-1.4287 1.3288 0.00001 2.3783 0.42922 3.1485 1.2876 0.7761 0.85255 1.1642 2.0138 1.1642 3.4837m-1.6228-0.47625c-0.01177-0.88782-0.26165-1.5963-0.74965-2.1255-0.48214-0.52916-1.123-0.79374-1.9226-0.79375-0.90547 0.000009-1.6316 0.25577-2.1784 0.76729-0.54093 0.51154-0.85255 1.2318-0.93486 2.1608l5.7855-0.0088"/>
  <path id="path3161" style="" d="m46.97 62.734v2.8046h3.3426v1.2612h-3.3426v5.3622c-0.000004 0.80551 0.10877 1.3229 0.32632 1.5522 0.22342 0.22931 0.67321 0.34396 1.3494 0.34396h1.6669v1.3582h-1.6669c-1.2524 0-2.1167-0.23224-2.5929-0.69674-0.47625-0.47037-0.71438-1.3229-0.71438-2.5576v-5.3622h-1.1906v-1.2612h1.1906v-2.8046h1.6316"/>
  <path id="path3163" style="" d="m52.288 71.518v-5.9796h1.6228v5.9178c-0.000003 0.93486 0.18226 1.6375 0.5468 2.1078 0.36453 0.46449 0.91134 0.69674 1.6404 0.69674 0.87606 0.000002 1.5669-0.27928 2.0726-0.83785 0.51152-0.55856 0.76728-1.32 0.76729-2.2842v-5.6003h1.6228v9.8778h-1.6228v-1.5169c-0.39394 0.59972-0.85255 1.0466-1.3758 1.3406-0.51741 0.2881-1.1201 0.43215-1.808 0.43215-1.1348 0-1.9961-0.35278-2.5841-1.0583-0.58796-0.70555-0.88194-1.7374-0.88194-3.0956m4.0834-6.2177"/>
  <path id="path3165" style="" d="m69.645 67.055c-0.18228-0.10582-0.38218-0.18226-0.59972-0.2293-0.21167-0.05291-0.44686-0.07937-0.70556-0.07937-0.91723 0.000008-1.6228 0.29987-2.1167 0.89958-0.48801 0.59385-0.73202 1.4493-0.73201 2.5665v5.2035h-1.6316v-9.8778h1.6316v1.5346c0.34102-0.59971 0.78493-1.0436 1.3317-1.3317 0.5468-0.29397 1.2112-0.44096 1.9932-0.44097 0.11171 0.00001 0.23518 0.0088 0.37042 0.02646 0.13522 0.01177 0.28516 0.03235 0.44979 0.06174l0.0088 1.6669"/>
  <path id="path3167" style="" d="m79.258 69.454v5.9619h-1.6228v-5.909c-0.000009-0.93485-0.18228-1.6345-0.5468-2.099-0.36454-0.46448-0.91135-0.69673-1.6404-0.69674-0.87607 0.000009-1.5669 0.27929-2.0726 0.83785-0.50565 0.55857-0.75847 1.32-0.75847 2.2842v5.5827h-1.6316v-9.8778h1.6316v1.5346c0.38805-0.59383 0.84372-1.0377 1.367-1.3317 0.52916-0.29397 1.1377-0.44096 1.8256-0.44097 1.1348 0.00001 1.9932 0.35279 2.5753 1.0583 0.58207 0.69968 0.87311 1.7316 0.87312 3.0956"/>
  <path id="path3169" style="" d="m82.256 61.711h1.4111c0.88194 1.3876 1.5405 2.7458 1.9756 4.0746 0.44097 1.3288 0.66145 2.6488 0.66146 3.9599-0.000006 1.317-0.22049 2.6429-0.66146 3.9776-0.4351 1.3347-1.0936 2.6929-1.9756 4.0746h-1.4111c0.78199-1.3464 1.3641-2.684 1.7462-4.0128 0.38805-1.3347 0.58208-2.6811 0.58208-4.0393-0.000004-1.3582-0.19403-2.6987-0.58208-4.0217-0.38218-1.3229-0.96426-2.6605-1.7462-4.0128"/>
 </g>
 <g id="g132" transform="translate(-2.1345 -10.834)">
  <path id="rect134" fill="#fdfd04" d="m160 150h60v20h-60z"/>
  <path id="rect136" d="m160 150h60v20h-60z" stroke="#000" stroke-width="2" fill="none"/>
 </g>
 <g id="g138" transform="translate(-2.1345 -10.834)">
  <path id="rect140" fill="#fdfd04" d="m280 150h60v20h-60z"/>
  <path id="rect142" d="m280 150h60v20h-60z" stroke="#000" stroke-width="2" fill="none"/>
 </g>
 <g id="g144" transform="translate(-2.1345 -10.834)">
  <path id="rect146" fill="#fdfd04" d="m380 150h60v20h-60z"/>
  <path id="rect148" d="m380 150h60v20h-60z" stroke="#000" stroke-width="2" fill="none"/>
 </g>
 <path id="line150" d="m157.87 139.17 60 20" stroke="#f62e2e" stroke-width="2" fill="none"/>
 <path id="line152" d="m217.87 139.17-60 20" stroke="#f62e2e" stroke-width="2" fill="none"/>
 <g id="text154" fill="#173b8f">
  <path id="path3180" style="" d="m233.47 141.71c-0.78787 1.3523-1.3729 2.6899-1.7551 4.0128-0.38218 1.3229-0.57326 2.6635-0.57326 4.0217s0.19108 2.7046 0.57326 4.0393c0.38805 1.3288 0.97308 2.6664 1.7551 4.0128h-1.4111c-0.88195-1.3817-1.5434-2.7399-1.9844-4.0746-0.4351-1.3347-0.65264-2.6605-0.65264-3.9776 0-1.3111 0.21754-2.6311 0.65264-3.9599 0.43509-1.3288 1.0965-2.687 1.9844-4.0746h1.4111"/>
  <path id="path3182" style="" d="m238.39 153.92h6.2177v1.4993h-8.3608v-1.4993c0.67616-0.69968 1.5963-1.6375 2.7605-2.8134 1.17-1.1818 1.905-1.9432 2.2049-2.2842 0.57032-0.64087 0.96719-1.1818 1.1906-1.6228 0.22929-0.44685 0.34395-0.88488 0.34395-1.3141 0-0.69966-0.24695-1.27-0.74083-1.711-0.48801-0.44096-1.126-0.66144-1.9138-0.66146-0.55857 0.00002-1.1495 0.097-1.7727 0.29105-0.61736 0.19403-1.2788 0.48802-1.9844 0.88194v-1.7992c0.71731-0.28808 1.3876-0.50563 2.0108-0.65263 0.62323-0.14698 1.1936-0.22048 1.711-0.22049 1.3641 0.00001 2.4518 0.34103 3.2632 1.023 0.81138 0.68205 1.2171 1.5934 1.2171 2.734-0.00001 0.54093-0.1029 1.0554-0.30868 1.5434-0.19992 0.48214-0.56739 1.0525-1.1024 1.711-0.147 0.17052-0.61443 0.6644-1.4023 1.4817-0.78788 0.81139-1.8991 1.9491-3.3338 3.4131"/>
  <path id="path3184" style="" d="m247.87 141.71h1.4111c0.88194 1.3876 1.5404 2.7458 1.9756 4.0746 0.44097 1.3288 0.66145 2.6488 0.66146 3.9599-0.00001 1.317-0.22049 2.6429-0.66146 3.9776-0.4351 1.3347-1.0936 2.6929-1.9756 4.0746h-1.4111c0.78198-1.3464 1.3641-2.684 1.7462-4.0128 0.38806-1.3347 0.58208-2.6811 0.58209-4.0393-0.00001-1.3582-0.19403-2.6987-0.58209-4.0217-0.38217-1.3229-0.96426-2.6605-1.7462-4.0128"/>
 </g>
 <path id="line158" d="m377.87 139.17 60 20" stroke="#000" stroke-width="2" fill="none"/>
 <path id="line160" d="m437.87 139.17-60 20" stroke="#000" stroke-width="2" fill="none"/>
 <g id="g162" stroke="#f62e2e" stroke-width="2" fill="none" transform="translate(-2.1345 -10.834)">
  <path id="line164" d="m405 154 10 10"/>
  <path id="line166" d="m405 164 10-10"/>
 </g>
 <g id="g168" transform="translate(-2.1345 -10.834)">
  <path id="rect170" fill="#fdfd04" d="m300 50h20v20h-20z"/>
  <path id="rect172" d="m300 50h20v20h-20z" stroke="#000" stroke-width="2" fill="none"/>
 </g>
 <g id="g174" transform="translate(-2.1345 -10.834)">
  <path id="rect176" fill="#fdfd04" d="m400 50h20v20h-20z"/>
  <path id="rect178" d="m400 50h20v20h-20z" stroke="#000" stroke-width="2" fill="none"/>
 </g>
</svg>
