<?xml version="1.0" encoding="UTF-8" standalone="no"?>
<!-- Created with Inkscape (http://www.inkscape.org/) -->
<svg id="svg2" xmlns:rdf="http://www.w3.org/1999/02/22-rdf-syntax-ns#" xmlns="http://www.w3.org/2000/svg" height="337.36" width="1201.8" version="1.1" xmlns:cc="http://creativecommons.org/ns#" xmlns:dc="http://purl.org/dc/elements/1.1/" viewBox="-134 28 673.35974 183.75839">
 <metadata id="metadata222">
  <rdf:RDF>
   <cc:Work rdf:about="">
    <dc:format>image/svg+xml</dc:format>
    <dc:type rdf:resource="http://purl.org/dc/dcmitype/StillImage"/>
   </cc:Work>
  </rdf:RDF>
 </metadata>
 <g id="g4" transform="translate(-1.6403 -6.6093)">
  <path id="path6" d="m-60 130h30.264" stroke="#000" stroke-width="2" fill="none"/>
  <path id="polygon8" d="m-29.736 130-2.5-5 10 5-10 5z"/>
  <path id="polygon10" d="m-29.736 130-2.5-5 10 5-10 5z" stroke="#000" stroke-width="2" fill="none"/>
 </g>
 <g id="g12" transform="translate(-1.6403 -6.6093)">
  <path id="rect14" fill="#7babe3" d="m280 100h60v60h-60z"/>
  <path id="rect16" d="m280 100h60v60h-60z" stroke="#000" stroke-width="2" fill="none"/>
 </g>
 <g id="g18" transform="translate(-1.6403 -6.6093)">
  <path id="rect20" fill="#7be38e" d="m380 100h60v60h-60z"/>
  <path id="rect22" d="m380 100h60v60h-60z" stroke="#000" stroke-width="2" fill="none"/>
 </g>
 <g id="g24" transform="translate(-1.6403 -6.6093)">
  <path id="rect26" fill="#7babe3" d="m180 100h60v60h-60z"/>
  <path id="rect28" d="m180 100h60v60h-60z" stroke="#000" stroke-width="2" fill="none"/>
 </g>
 <g id="g30" transform="translate(-1.6403 -6.6093)">
  <path id="rect32" fill="#fdfd04" d="m-80 120h20v20h-20z"/>
  <path id="rect34" d="m-80 120h20v20h-20z" stroke="#000" stroke-width="2" fill="none"/>
 </g>
 <g id="text36">
  <path id="path3100" style="" d="m399.21 112.18h2.4474v12.158l7.2628-6.3897h3.1088l-7.8581 6.9321 8.1888 7.8846h-3.175l-7.5274-7.2364v7.2364h-2.4474v-20.585"/>
  <path id="path3102" style="" d="m415.01 117.95h2.4342v14.817h-2.4342v-14.817m0-5.7679h2.4342v3.0824h-2.4342v-3.0824"/>
 </g>
 <g id="text40">
  <path id="path3105" style="" d="m300.94 120.79c0.60852-1.0936 1.3361-1.9006 2.1828-2.4209 0.84665-0.52033 1.8432-0.7805 2.9898-0.78052 1.5434 0.00002 2.734 0.54241 3.5719 1.6272 0.83782 1.076 1.2567 2.6106 1.2568 4.6037v8.9429h-2.4474v-8.8635c-0.00002-1.4199-0.25137-2.4738-0.75406-3.1618-0.50273-0.6879-1.27-1.0319-2.3019-1.0319-1.2612 0.00001-2.2578 0.41893-2.9898 1.2568-0.73203 0.83786-1.098 1.98-1.098 3.4264v8.3741h-2.4474v-8.8635c-0.00001-1.4287-0.25137-2.4827-0.75406-3.1618-0.50272-0.6879-1.2788-1.0319-2.3283-1.0319-1.2436 0.00001-2.2313 0.42334-2.9633 1.27-0.73202 0.83786-1.098 1.9756-1.098 3.4131v8.3741h-2.4474v-14.817h2.4474v2.3019c0.55562-0.90839 1.2215-1.5787 1.9976-2.0108 0.7761-0.43214 1.6977-0.64821 2.7649-0.64823 1.076 0.00002 1.9888 0.27342 2.7384 0.82021 0.75845 0.54682 1.3185 1.3406 1.6801 2.3812"/>
  <path id="path3107" style="" d="m322.54 125.32c-1.9667 0.00001-3.3293 0.22491-4.0878 0.67469-0.75847 0.4498-1.1377 1.2171-1.1377 2.3019-0.00001 0.86431 0.28221 1.5522 0.84666 2.0638 0.57326 0.50271 1.3494 0.75406 2.3283 0.75406 1.3494 0 2.4298-0.47624 3.2411-1.4288 0.8202-0.96131 1.2303-2.2357 1.2303-3.8232v-0.5424h-2.4209m4.8551-1.0054v8.4534h-2.4342v-2.249c-0.55563 0.89958-1.248 1.5654-2.077 1.9976-0.82904 0.42334-1.8433 0.635-3.0427 0.635-1.5169 0-2.7252-0.42333-3.6248-1.27-0.89077-0.85548-1.3362-1.9976-1.3362-3.4264 0-1.6669 0.55562-2.9236 1.6669-3.7703 1.1201-0.84666 2.7869-1.27 5.0006-1.27h3.4131v-0.23813c-0.00001-1.12-0.37042-1.9844-1.1112-2.5929-0.73203-0.61735-1.7639-0.92603-3.0956-0.92604-0.84668 0.00001-1.6713 0.10144-2.4739 0.30427-0.80257 0.20286-1.5743 0.50713-2.3151 0.91281v-2.249c0.89076-0.34394 1.7551-0.5997 2.5929-0.76729 0.83784-0.17637 1.6536-0.26456 2.4474-0.26458 2.1431 0.00002 3.7438 0.55564 4.8022 1.6669 1.0583 1.1113 1.5875 2.7958 1.5875 5.0535"/>
 </g>
 <g id="text44">
  <path id="path3110" style="" d="m195.94 113.74v4.2069h5.0138v1.8918h-5.0138v8.0433c-0.00001 1.2083 0.16315 1.9844 0.48948 2.3283 0.33513 0.34396 1.0098 0.51594 2.0241 0.51594h2.5003v2.0373h-2.5003c-1.8786 0-3.175-0.34837-3.8894-1.0451-0.71438-0.70555-1.0716-1.9844-1.0716-3.8364v-8.0433h-1.7859v-1.8918h1.7859v-4.2069h2.4474"/>
  <path id="path3112" style="" d="m210.9 125.32c-1.9667 0.00001-3.3293 0.22491-4.0878 0.67469-0.75847 0.4498-1.1377 1.2171-1.1377 2.3019 0 0.86431 0.28222 1.5522 0.84667 2.0638 0.57326 0.50271 1.3494 0.75406 2.3283 0.75406 1.3494 0 2.4297-0.47624 3.2411-1.4288 0.8202-0.96131 1.2303-2.2357 1.2303-3.8232v-0.5424h-2.4209m4.8551-1.0054v8.4534h-2.4342v-2.249c-0.55563 0.89958-1.248 1.5654-2.077 1.9976-0.82904 0.42334-1.8433 0.635-3.0427 0.635-1.517 0-2.7252-0.42333-3.6248-1.27-0.89076-0.85548-1.3361-1.9976-1.3361-3.4264 0-1.6669 0.55562-2.9236 1.6669-3.7703 1.1201-0.84666 2.7869-1.27 5.0006-1.27h3.4131v-0.23813c-0.00001-1.12-0.37042-1.9844-1.1112-2.5929-0.73202-0.61735-1.7639-0.92603-3.0956-0.92604-0.84667 0.00001-1.6713 0.10144-2.4738 0.30427-0.80257 0.20286-1.5743 0.50713-2.3151 0.91281v-2.249c0.89076-0.34394 1.7551-0.5997 2.5929-0.76729 0.83784-0.17637 1.6536-0.26456 2.4474-0.26458 2.1431 0.00002 3.7438 0.55564 4.8022 1.6669 1.0583 1.1113 1.5875 2.7958 1.5875 5.0535m-4.445-13.216h2.6326l-4.3127 4.9742h-2.0241l3.7042-4.9742"/>
  <path id="path3114" style="" d="m220.78 112.18h2.4342v20.585h-2.4342v-20.585"/>
 </g>
 <g id="text48" fill="#173b8f">
  <path id="path3117" style="" d="m401.15 166.49c-0.78787 1.3523-1.3729 2.6899-1.7551 4.0128-0.38218 1.3229-0.57327 2.6635-0.57327 4.0217s0.19109 2.7046 0.57327 4.0393c0.38805 1.3288 0.97307 2.6664 1.7551 4.0128h-1.4111c-0.88194-1.3817-1.5434-2.7399-1.9844-4.0746-0.43509-1.3347-0.65264-2.6605-0.65264-3.9776 0-1.3112 0.21755-2.6311 0.65264-3.9599s1.0966-2.687 1.9844-4.0746h1.4111"/>
  <path id="path3119" style="" d="m406.08 178.69h6.2177v1.4993h-8.3608v-1.4993c0.67615-0.69968 1.5963-1.6375 2.7605-2.8134 1.17-1.1818 1.905-1.9432 2.2049-2.2842 0.57031-0.64087 0.96719-1.1818 1.1906-1.6228 0.2293-0.44685 0.34395-0.88488 0.34396-1.3141-0.00001-0.69966-0.24695-1.27-0.74083-1.711-0.48802-0.44096-1.126-0.66144-1.9138-0.66146-0.55857 0.00002-1.1495 0.097-1.7727 0.29105-0.61736 0.19403-1.2788 0.48802-1.9844 0.88194v-1.7992c0.71731-0.28808 1.3876-0.50563 2.0108-0.65263 0.62324-0.14698 1.1936-0.22048 1.711-0.22049 1.3641 0.00001 2.4518 0.34103 3.2632 1.023 0.81138 0.68205 1.2171 1.5934 1.2171 2.734-0.00001 0.54093-0.1029 1.0554-0.30868 1.5434-0.19991 0.48214-0.56739 1.0525-1.1024 1.711-0.14699 0.17052-0.61442 0.6644-1.4023 1.4817-0.78787 0.8114-1.8991 1.9491-3.3337 3.4131"/>
  <path id="path3121" style="" d="m415.56 166.49h1.4111c0.88194 1.3876 1.5405 2.7458 1.9756 4.0746 0.44097 1.3288 0.66145 2.6488 0.66146 3.9599-0.00001 1.317-0.22049 2.6429-0.66146 3.9776-0.43509 1.3347-1.0936 2.6929-1.9756 4.0746h-1.4111c0.78199-1.3464 1.3641-2.684 1.7462-4.0128 0.38805-1.3347 0.58208-2.6811 0.58208-4.0393s-0.19403-2.6987-0.58208-4.0217c-0.38218-1.3229-0.96426-2.6605-1.7462-4.0128"/>
 </g>
 <g id="text52">
  <path id="path3124" style="" d="m-124.85 124.3v0.79375h-7.4612c0.0705 1.1171 0.40569 1.9697 1.0054 2.5576 0.60559 0.58209 1.4464 0.87313 2.5224 0.87313 0.62323 0 1.2259-0.0764 1.808-0.22931 0.58795-0.15287 1.17-0.38217 1.7462-0.68791v1.5346c-0.58209 0.24694-1.1789 0.43509-1.7904 0.56444-0.61149 0.12935-1.2318 0.19403-1.8609 0.19403-1.5757 0-2.8252-0.45861-3.7483-1.3758-0.91722-0.91722-1.3758-2.1578-1.3758-3.7218 0-1.6169 0.43509-2.8986 1.3053-3.8453 0.87606-0.95249 2.0549-1.4287 3.5366-1.4287 1.3288 0.00001 2.3783 0.42922 3.1485 1.2876 0.7761 0.85256 1.1642 2.0138 1.1642 3.4837m-1.6228-0.47625c-0.0118-0.88782-0.26165-1.5963-0.74965-2.1255-0.48214-0.52916-1.123-0.79374-1.9226-0.79375-0.90547 0.00001-1.6316 0.25577-2.1784 0.76729-0.54093 0.51153-0.85255 1.2318-0.93486 2.1608l5.7856-0.009"/>
  <path id="path3126" style="" d="m-122.18 115.92h1.6228v13.723h-1.6228v-13.723"/>
  <path id="path3128" style="" d="m-108.72 124.3v0.79375h-7.4612c0.0706 1.1171 0.40569 1.9697 1.0054 2.5576 0.6056 0.58209 1.4464 0.87313 2.5224 0.87313 0.62323 0 1.2259-0.0764 1.808-0.22931 0.58796-0.15287 1.17-0.38217 1.7462-0.68791v1.5346c-0.58209 0.24694-1.1789 0.43509-1.7903 0.56444-0.61149 0.12935-1.2318 0.19403-1.8609 0.19403-1.5758 0-2.8252-0.45861-3.7483-1.3758-0.91723-0.91722-1.3758-2.1578-1.3758-3.7218-0.00001-1.6169 0.43509-2.8986 1.3053-3.8453 0.87606-0.95249 2.0549-1.4287 3.5366-1.4287 1.3288 0.00001 2.3783 0.42922 3.1485 1.2876 0.7761 0.85256 1.1642 2.0138 1.1642 3.4837m-1.6228-0.47625c-0.0118-0.88782-0.26165-1.5963-0.74965-2.1255-0.48214-0.52916-1.123-0.79374-1.9226-0.79375-0.90546 0.00001-1.6316 0.25577-2.1784 0.76729-0.54092 0.51153-0.85254 1.2318-0.93486 2.1608l5.7856-0.009"/>
  <path id="path3130" style="" d="m-106.06 119.76h1.6228v10.054c0 1.2582-0.24106 2.1696-0.72319 2.734-0.47625 0.56444-1.2465 0.84666-2.3107 0.84667h-0.61736v-1.3758h0.43215c0.61736 0 1.0378-0.14405 1.2612-0.43215 0.22342-0.28222 0.33514-0.87312 0.33514-1.7727v-10.054m0-3.8453h1.6228v2.0549h-1.6228v-2.0549"/>
  <path id="path3132" style="" d="m-92.602 124.3v0.79375h-7.4612c0.07055 1.1171 0.40569 1.9697 1.0054 2.5576 0.6056 0.58209 1.4464 0.87313 2.5224 0.87313 0.62323 0 1.2259-0.0764 1.808-0.22931 0.58795-0.15287 1.17-0.38217 1.7462-0.68791v1.5346c-0.58209 0.24694-1.1789 0.43509-1.7903 0.56444-0.61149 0.12935-1.2318 0.19403-1.8609 0.19403-1.5757 0-2.8252-0.45861-3.7483-1.3758-0.91722-0.91722-1.3758-2.1578-1.3758-3.7218 0-1.6169 0.43509-2.8986 1.3053-3.8453 0.87606-0.95249 2.0549-1.4287 3.5366-1.4287 1.3288 0.00001 2.3783 0.42922 3.1485 1.2876 0.7761 0.85256 1.1642 2.0138 1.1642 3.4837m-1.6228-0.47625c-0.01177-0.88782-0.26165-1.5963-0.74965-2.1255-0.48214-0.52916-1.123-0.79374-1.9226-0.79375-0.90547 0.00001-1.6316 0.25577-2.1784 0.76729-0.54093 0.51153-0.85255 1.2318-0.93486 2.1608l5.7855-0.009"/>
 </g>
 <g id="g56" transform="translate(-1.6403 -6.6093)">
  <path id="path58" d="m475.65 138.71c-15.65 31.29-25.65 81.29-65.65 81.29s-50-30-70-60" stroke="#f62e2e" stroke-width="2" fill="none"/>
  <path id="polygon60" fill="#f62e2e" d="m475.65 138.71h-5.59l8.94-6.71v11.18z"/>
  <path id="polygon62" d="m475.65 138.71h-5.59l8.94-6.71v11.18z" stroke="#f62e2e" stroke-width="2" fill="none"/>
 </g>
 <g id="text64" fill="#173b8f">
  <path id="path3137" style="" d="m401.15 195.39c-0.78787 1.3523-1.3729 2.6899-1.7551 4.0128-0.38218 1.3229-0.57327 2.6635-0.57327 4.0217s0.19109 2.7046 0.57327 4.0393c0.38805 1.3288 0.97307 2.6664 1.7551 4.0128h-1.4111c-0.88194-1.3817-1.5434-2.7399-1.9844-4.0746-0.43509-1.3347-0.65264-2.6605-0.65264-3.9776 0-1.3112 0.21755-2.6311 0.65264-3.9599s1.0966-2.687 1.9844-4.0746h1.4111"/>
  <path id="path3139" style="" d="m404.85 207.59h2.9104v-10.045l-3.1662 0.635v-1.6228l3.1485-0.635h1.7815v11.668h2.9104v1.4993h-7.5847v-1.4993"/>
  <path id="path3141" style="" d="m415.56 195.39h1.4111c0.88194 1.3876 1.5405 2.7458 1.9756 4.0746 0.44097 1.3288 0.66145 2.6488 0.66146 3.9599-0.00001 1.317-0.22049 2.6429-0.66146 3.9776-0.43509 1.3347-1.0936 2.6929-1.9756 4.0746h-1.4111c0.78199-1.3464 1.3641-2.684 1.7462-4.0128 0.38805-1.3347 0.58208-2.6811 0.58208-4.0393s-0.19403-2.6987-0.58208-4.0217c-0.38218-1.3229-0.96426-2.6605-1.7462-4.0128"/>
 </g>
 <g id="g68" transform="translate(-1.6403 -6.6093)">
  <path id="line70" d="m310 70v20.264" stroke="#000" stroke-width="2" fill="none"/>
  <path id="polygon72" d="m310 90.264 5-2.5-5 10-5-10z"/>
  <path id="polygon74" d="m310 90.264 5-2.5-5 10-5-10z" stroke="#000" stroke-width="2" fill="none"/>
 </g>
 <g id="text76">
  <path id="path3147" style="" d="m276.87 33.129v5.9619h-1.6228v-5.909c-0.00001-0.93485-0.18228-1.6345-0.54681-2.099-0.36454-0.46448-0.91135-0.69673-1.6404-0.69674-0.87607 0.000009-1.5669 0.27929-2.0726 0.83785-0.50565 0.55857-0.75847 1.32-0.75847 2.2842v5.5827h-1.6316v-9.8778h1.6316v1.5346c0.38805-0.59383 0.84372-1.0377 1.367-1.3317 0.52916-0.29397 1.1377-0.44096 1.8256-0.44097 1.1348 0.00001 1.9932 0.35279 2.5753 1.0583 0.58207 0.69968 0.87311 1.7316 0.87312 3.0956"/>
  <path id="path3149" style="" d="m288.58 33.746v0.79375h-7.4612c0.0705 1.1171 0.40569 1.9697 1.0054 2.5576 0.60559 0.58208 1.4464 0.87313 2.5224 0.87312 0.62324 0.000002 1.2259-0.07643 1.808-0.2293 0.58795-0.15287 1.17-0.38217 1.7462-0.68792v1.5346c-0.5821 0.24694-1.1789 0.43509-1.7904 0.56444-0.61149 0.12935-1.2318 0.19403-1.8609 0.19403-1.5757 0-2.8252-0.45861-3.7483-1.3758-0.91722-0.91722-1.3758-2.1578-1.3758-3.7218 0-1.6169 0.43509-2.8986 1.3053-3.8453 0.87606-0.95249 2.0549-1.4287 3.5366-1.4287 1.3288 0.00001 2.3783 0.42922 3.1485 1.2876 0.7761 0.85255 1.1642 2.0138 1.1642 3.4837m-1.6228-0.47625c-0.0118-0.88782-0.26166-1.5963-0.74966-2.1255-0.48213-0.52916-1.123-0.79374-1.9226-0.79375-0.90547 0.000008-1.6316 0.25577-2.1784 0.76729-0.54093 0.51154-0.85255 1.2318-0.93486 2.1608l5.7856-0.0088"/>
  <path id="path3151" style="" d="m297.74 34.037c0-1.1759-0.24401-2.0873-0.73201-2.734-0.48214-0.64675-1.1612-0.97013-2.0373-0.97014-0.87019 0.000008-1.5493 0.32339-2.0373 0.97014-0.48213 0.64677-0.72319 1.5581-0.72319 2.734 0 1.17 0.24106 2.0784 0.72319 2.7252 0.48801 0.64676 1.1671 0.97014 2.0373 0.97014 0.87606 0.000001 1.5552-0.32338 2.0373-0.97014 0.488-0.64676 0.73201-1.5552 0.73201-2.7252m1.6228 3.8276c-0.00001 1.6816-0.37337 2.931-1.1201 3.7483-0.74672 0.82314-1.8903 1.2347-3.4308 1.2347-0.57033-0.000003-1.1083-0.0441-1.614-0.13229-0.50565-0.08232-0.99659-0.21167-1.4728-0.38806v-1.5787c0.47625 0.2587 0.94662 0.44979 1.4111 0.57326s0.93779 0.18521 1.4199 0.18521c1.0642-0.000002 1.8609-0.27928 2.3901-0.83785 0.52916-0.55268 0.79375-1.3905 0.79375-2.5135v-0.80257c-0.33514 0.58208-0.76436 1.0172-1.2876 1.3053-0.5233 0.2881-1.1495 0.43215-1.8785 0.43215-1.2112 0-2.1872-0.46155-2.9281-1.3847-0.74083-0.9231-1.1112-2.1461-1.1112-3.6689-0.00001-1.5287 0.37041-2.7546 1.1112-3.6777 0.74083-0.92309 1.7168-1.3846 2.9281-1.3847 0.72906 0.00001 1.3552 0.14406 1.8785 0.43215 0.52327 0.28811 0.95249 0.7232 1.2876 1.3053v-1.4993h1.6228v8.6519"/>
  <path id="path3153" style="" d="m306.82 40.008c-0.45862 1.1759-0.90547 1.9432-1.3406 2.3019-0.4351 0.35865-1.0172 0.53798-1.7462 0.53798h-1.2965v-1.3582h0.9525c0.44685-0.000003 0.79375-0.10584 1.0407-0.3175 0.24694-0.21167 0.52035-0.71144 0.82021-1.4993l0.29104-0.74083-3.9952-9.719h1.7198l3.0868 7.7258 3.0868-7.7258h1.7198l-4.3392 10.795"/>
  <path id="path3155" style="" d="m321.84 33.746v0.79375h-7.4612c0.0706 1.1171 0.40569 1.9697 1.0054 2.5576 0.6056 0.58208 1.4464 0.87313 2.5224 0.87312 0.62323 0.000002 1.2259-0.07643 1.808-0.2293 0.58796-0.15287 1.17-0.38217 1.7462-0.68792v1.5346c-0.58209 0.24694-1.1789 0.43509-1.7903 0.56444-0.61149 0.12935-1.2318 0.19403-1.8609 0.19403-1.5758 0-2.8252-0.45861-3.7483-1.3758-0.91723-0.91722-1.3758-2.1578-1.3758-3.7218 0-1.6169 0.4351-2.8986 1.3053-3.8453 0.87606-0.95249 2.0549-1.4287 3.5366-1.4287 1.3288 0.00001 2.3783 0.42922 3.1485 1.2876 0.7761 0.85255 1.1642 2.0138 1.1642 3.4837m-1.6228-0.47625c-0.0118-0.88782-0.26165-1.5963-0.74965-2.1255-0.48214-0.52916-1.123-0.79374-1.9226-0.79375-0.90546 0.000008-1.6316 0.25577-2.1784 0.76729-0.54093 0.51154-0.85255 1.2318-0.93486 2.1608l5.7856-0.0088"/>
  <path id="path3157" style="" d="m331.01 30.712v-5.3446h1.6228v13.723h-1.6228v-1.4817c-0.34103 0.58796-0.77318 1.026-1.2965 1.3141-0.51741 0.28222-1.1406 0.42333-1.8697 0.42333-1.1936 0-2.1666-0.47625-2.9192-1.4287-0.74671-0.9525-1.1201-2.2049-1.1201-3.7571s0.37336-2.8046 1.1201-3.7571c0.75259-0.95249 1.7257-1.4287 2.9192-1.4287 0.72907 0.00001 1.3523 0.14406 1.8697 0.43215 0.52328 0.28223 0.95543 0.71732 1.2965 1.3053m-5.5298 3.4484c-0.00001 1.1936 0.244 2.1314 0.73201 2.8134 0.49388 0.67616 1.17 1.0142 2.0285 1.0142 0.85842 0.000001 1.5346-0.33808 2.0285-1.0142 0.49388-0.68203 0.74082-1.6198 0.74083-2.8134-0.00001-1.1936-0.24695-2.1284-0.74083-2.8046-0.4939-0.68203-1.17-1.023-2.0285-1.0231-0.85843 0.000008-1.5346 0.34103-2.0285 1.0231-0.48801 0.67616-0.73202 1.611-0.73201 2.8046"/>
  <path id="path3159" style="" d="m335.97 29.213h1.6228v9.8778h-1.6228v-9.8778m0-3.8453h1.6228v2.0549h-1.6228v-2.0549"/>
  <path id="path3161" style="" d="m340.92 25.368h1.6316v8.1051l4.8419-4.2598h2.0726l-5.2387 4.6214 5.4592 5.2564h-2.1167l-5.0183-4.8242v4.8242h-1.6316v-13.723"/>
 </g>
 <g id="g80" transform="translate(-1.6403 -6.6093)">
  <path id="line82" d="m410 70v20.264" stroke="#000" stroke-width="2" fill="none"/>
  <path id="polygon84" d="m410 90.264 5-2.5-5 10-5-10z"/>
  <path id="polygon86" d="m410 90.264 5-2.5-5 10-5-10z" stroke="#000" stroke-width="2" fill="none"/>
 </g>
 <g id="text88">
  <path id="path3167" style="" d="m385.83 30.351c-0.87019 0.000008-1.5581 0.34103-2.0638 1.0231-0.50565 0.67616-0.75847 1.6051-0.75847 2.7869s0.24988 2.1137 0.74965 2.7958c0.50564 0.67616 1.1965 1.0142 2.0726 1.0142 0.8643 0.000002 1.5493-0.34102 2.0549-1.0231 0.50564-0.68203 0.75846-1.611 0.75847-2.7869-0.00001-1.17-0.25283-2.0961-0.75847-2.7781-0.50566-0.68791-1.1906-1.0319-2.0549-1.0319m0-1.3758c1.4111 0.00001 2.5194 0.45862 3.3249 1.3758 0.8055 0.91723 1.2083 2.1872 1.2083 3.81-0.00001 1.6169-0.40277 2.8869-1.2083 3.81-0.80551 0.91722-1.9138 1.3758-3.3249 1.3758-1.417 0-2.5282-0.45861-3.3338-1.3758-0.79963-0.9231-1.1994-2.1931-1.1994-3.81 0-1.6228 0.39981-2.8928 1.1994-3.81 0.80551-0.91721 1.9168-1.3758 3.3338-1.3758m0.82902-3.5719h1.7904v1.7815h-1.7904v-1.7815m-3.4484 0h1.7903v1.7815h-1.7903v-1.7815"/>
  <path id="path3169" style="" d="m394.65 26.408v2.8046h3.3426v1.2612h-3.3426v5.3622c0 0.80551 0.10877 1.3229 0.32632 1.5522 0.22342 0.22931 0.67321 0.34396 1.3494 0.34396h1.6669v1.3582h-1.6669c-1.2524 0-2.1167-0.23224-2.5929-0.69674-0.47625-0.47037-0.71438-1.3229-0.71437-2.5576v-5.3622h-1.1906v-1.2612h1.1906v-2.8046h1.6316"/>
  <path id="path3171" style="" d="m403.96 30.351c-0.87019 0.000008-1.5581 0.34103-2.0637 1.0231-0.50566 0.67616-0.75848 1.6051-0.75848 2.7869s0.24989 2.1137 0.74966 2.7958c0.50564 0.67616 1.1965 1.0142 2.0726 1.0142 0.8643 0.000002 1.5493-0.34102 2.0549-1.0231 0.50564-0.68203 0.75846-1.611 0.75847-2.7869-0.00001-1.17-0.25283-2.0961-0.75847-2.7781-0.50565-0.68791-1.1906-1.0319-2.0549-1.0319m0-1.3758c1.4111 0.00001 2.5194 0.45862 3.3249 1.3758 0.8055 0.91723 1.2082 2.1872 1.2083 3.81-0.00001 1.6169-0.40276 2.8869-1.2083 3.81-0.80552 0.91722-1.9138 1.3758-3.3249 1.3758-1.417 0-2.5282-0.45861-3.3337-1.3758-0.79963-0.9231-1.1994-2.1931-1.1994-3.81 0-1.6228 0.39982-2.8928 1.1994-3.81 0.8055-0.91721 1.9168-1.3758 3.3337-1.3758m0.82903-3.5719h1.7903v1.7815h-1.7903v-1.7815m-3.4484 0h1.7904v1.7815h-1.7904v-1.7815"/>
  <path id="path3173" style="" d="m417.67 30.712v-5.3446h1.6228v13.723h-1.6228v-1.4817c-0.34102 0.58796-0.77318 1.026-1.2964 1.3141-0.51742 0.28222-1.1407 0.42333-1.8697 0.42333-1.1936 0-2.1666-0.47625-2.9192-1.4287-0.74671-0.9525-1.1201-2.2049-1.1201-3.7571-0.00001-1.5522 0.37335-2.8046 1.1201-3.7571 0.75259-0.95249 1.7257-1.4287 2.9192-1.4287 0.72906 0.00001 1.3523 0.14406 1.8697 0.43215 0.52327 0.28223 0.95543 0.71732 1.2964 1.3053m-5.5298 3.4484c-0.00001 1.1936 0.244 2.1314 0.73201 2.8134 0.49388 0.67616 1.17 1.0142 2.0285 1.0142 0.85842 0.000001 1.5346-0.33808 2.0285-1.0142 0.49388-0.68203 0.74082-1.6198 0.74083-2.8134-0.00001-1.1936-0.24695-2.1284-0.74083-2.8046-0.4939-0.68203-1.17-1.023-2.0285-1.0231-0.85843 0.000008-1.5346 0.34103-2.0285 1.0231-0.48801 0.67616-0.73202 1.611-0.73201 2.8046"/>
  <path id="path3175" style="" d="m422.64 29.213h1.6228v9.8778h-1.6228v-9.8778m0-3.8453h1.6228v2.0549h-1.6228v-2.0549"/>
  <path id="path3177" style="" d="m427.59 25.368h1.6316v8.1051l4.8419-4.2598h2.0726l-5.2387 4.6214 5.4592 5.2564h-2.1167l-5.0183-4.8242v4.8242h-1.6316v-13.723"/>
 </g>
 <g id="g92" transform="translate(-1.6403 -6.6093)">
  <path id="rect94" fill="#7babe3" d="m480 100h60v60h-60z"/>
  <path id="rect96" d="m480 100h60v60h-60z" stroke="#000" stroke-width="2" fill="none"/>
 </g>
 <g id="text98">
  <path id="path3182" style="" d="m504.62 125.37c-0.00001-1.7903-0.37043-3.1926-1.1112-4.2069-0.73202-1.023-1.7418-1.5346-3.0295-1.5346-1.2876 0.00001-2.3019 0.51154-3.0427 1.5346-0.73202 1.0142-1.098 2.4165-1.098 4.2069s0.366 3.197 1.098 4.2201c0.74083 1.0142 1.7551 1.5214 3.0427 1.5214s2.2974-0.50711 3.0295-1.5214c0.74082-1.023 1.1112-2.4298 1.1112-4.2201m-8.2814-5.1726c0.51153-0.88193 1.1553-1.5346 1.9315-1.9579 0.78492-0.43214 1.7198-0.64821 2.8046-0.64823 1.7992 0.00002 3.2588 0.71439 4.3788 2.1431 1.1289 1.4288 1.6933 3.3073 1.6933 5.6356-0.00002 2.3283-0.56446 4.2069-1.6933 5.6356-1.1201 1.4288-2.5797 2.1431-4.3788 2.1431-1.0848 0-2.0197-0.21166-2.8046-0.635-0.77612-0.43215-1.4199-1.0892-1.9315-1.9711v2.2225h-2.4474v-20.585h2.4474v8.0169"/>
  <path id="path3184" style="" d="m523.85 124.75v1.1906h-11.192c0.10583 1.6757 0.60854 2.9545 1.5081 3.8365 0.90839 0.87312 2.1696 1.3097 3.7835 1.3097 0.93485 0.00001 1.8388-0.11465 2.712-0.34395 0.88193-0.22931 1.755-0.57326 2.6194-1.0319v2.3019c-0.87314 0.37042-1.7683 0.65264-2.6855 0.84667-0.91723 0.19403-1.8477 0.29104-2.7914 0.29104-2.3636 0-4.2377-0.68791-5.6224-2.0638-1.3758-1.3758-2.0638-3.2367-2.0638-5.5827 0-2.4253 0.65263-4.348 1.9579-5.7679 1.3141-1.4287 3.0824-2.1431 5.3049-2.1431 1.9932 0.00002 3.5674 0.64383 4.7228 1.9315 1.1642 1.2788 1.7462 3.0207 1.7462 5.2255m-2.4342-0.71437c-0.0177-1.3317-0.39247-2.3945-1.1245-3.1882-0.7232-0.79373-1.6845-1.1906-2.884-1.1906-1.3582 0.00001-2.4474 0.38366-3.2676 1.1509-0.81139 0.76731-1.2788 1.8477-1.4023 3.2412l8.6783-0.0132"/>
 </g>
 <g id="g102" transform="translate(-1.6403 -6.6093)">
  <path id="rect104" fill="#7babe3" d="m80 100h60v60h-60z"/>
  <path id="rect106" d="m80 100h60v60h-60z" stroke="#000" stroke-width="2" fill="none"/>
 </g>
 <g id="text108">
  <path id="path3189" style="" d="m99.721 113.74v4.2069h5.0138v1.8918h-5.0138v8.0433c-0.000005 1.2083 0.16315 1.9844 0.48947 2.3283 0.33514 0.34396 1.0098 0.51594 2.0241 0.51594h2.5003v2.0373h-2.5003c-1.8785 0-3.175-0.34837-3.8894-1.0451-0.71438-0.70555-1.0716-1.9844-1.0716-3.8364v-8.0433h-1.7859v-1.8918h1.7859v-4.2069h2.4474"/>
  <path id="path3191" style="" d="m113.69 119.66c-1.3053 0.00001-2.3372 0.51154-3.0956 1.5346-0.75848 1.0142-1.1377 2.4077-1.1377 4.1804s0.37482 3.1706 1.1245 4.1936c0.75846 1.0142 1.7948 1.5214 3.1088 1.5214 1.2964 0.00001 2.3239-0.51152 3.0824-1.5346 0.75846-1.023 1.1377-2.4165 1.1377-4.1804-0.00001-1.7551-0.37925-3.1441-1.1377-4.1672-0.75848-1.0319-1.7859-1.5478-3.0824-1.5478m0-2.0638c2.1166 0.00002 3.7791 0.68793 4.9874 2.0638 1.2082 1.3758 1.8124 3.2808 1.8124 5.715-0.00001 2.4254-0.60414 4.3304-1.8124 5.715-1.2083 1.3758-2.8707 2.0638-4.9874 2.0638-2.1255 0-3.7924-0.68791-5.0006-2.0638-1.1994-1.3846-1.7992-3.2896-1.7992-5.715-0.00001-2.4342 0.59972-4.3392 1.7992-5.715 1.2083-1.3758 2.8751-2.0637 5.0006-2.0638m1.8388-6.4955h2.6326l-4.3127 4.9742h-2.0241l3.7042-4.9742"/>
 </g>
 <g id="g112" transform="translate(-1.6403 -6.6093)">
  <path id="rect114" fill="#7babe3" d="m-20 100h60v60h-60z"/>
  <path id="rect116" d="m-20 100h60v60h-60z" stroke="#000" stroke-width="2" fill="none"/>
 </g>
 <g id="text118">
  <path id="path3196" style="" d="m1.5864 112.18v2.0241h-2.3283c-0.87313 0.00002-1.4817 0.17641-1.8256 0.52916-0.33514 0.3528-0.50271 0.9878-0.50271 1.905v1.3097h4.0084v1.8918h-4.0084v12.925h-2.4474v-12.925h-2.3283v-1.8918h2.3283v-1.0319c-0.0000029-1.6492 0.38364-2.8486 1.1509-3.5983 0.76729-0.75846 1.9844-1.1377 3.6512-1.1377h2.3019"/>
  <path id="path3198" style="" d="m10.344 125.32c-1.9667 0.00001-3.3293 0.22491-4.0878 0.67469-0.75848 0.4498-1.1377 1.2171-1.1377 2.3019-0.000004 0.86431 0.28222 1.5522 0.84667 2.0638 0.57326 0.50271 1.3494 0.75406 2.3283 0.75406 1.3494 0 2.4297-0.47624 3.2411-1.4288 0.8202-0.96131 1.2303-2.2357 1.2303-3.8232v-0.5424h-2.4209m4.8551-1.0054v8.4534h-2.4342v-2.249c-0.55564 0.89958-1.248 1.5654-2.077 1.9976-0.82904 0.42334-1.8433 0.635-3.0427 0.635-1.5169 0-2.7252-0.42333-3.6248-1.27-0.89076-0.85548-1.3361-1.9976-1.3361-3.4264-0.0000017-1.6669 0.55562-2.9236 1.6669-3.7703 1.1201-0.84666 2.7869-1.27 5.0006-1.27h3.4131v-0.23813c-0.000011-1.12-0.37043-1.9844-1.1112-2.5929-0.73202-0.61735-1.7639-0.92603-3.0956-0.92604-0.84667 0.00001-1.6713 0.10144-2.4739 0.30427-0.80257 0.20286-1.5743 0.50713-2.3151 0.91281v-2.249c0.89076-0.34394 1.7551-0.5997 2.5929-0.76729 0.83784-0.17637 1.6536-0.26456 2.4474-0.26458 2.1431 0.00002 3.7438 0.55564 4.8022 1.6669 1.0583 1.1113 1.5875 2.7958 1.5875 5.0535"/>
  <path id="path3200" style="" d="m20.226 112.18h2.4342v20.585h-2.4342v-20.585"/>
 </g>
 <g id="g122" transform="translate(-1.6403 -6.6093)">
  <path id="rect124" fill="#fdfd04" d="m300 50h20v20h-20z"/>
  <path id="rect126" d="m300 50h20v20h-20z" stroke="#000" stroke-width="2" fill="none"/>
 </g>
 <g id="g128" transform="translate(-1.6403 -6.6093)">
  <path id="rect130" fill="#fdfd04" d="m400 50h20v20h-20z"/>
  <path id="rect132" d="m400 50h20v20h-20z" stroke="#000" stroke-width="2" fill="none"/>
 </g>
 <g id="g134" transform="translate(-1.6403 -6.6093)">
  <path id="rect136" fill="#fdfd04" d="m-20 150h60v20h-60z"/>
  <path id="rect138" d="m-20 150h60v20h-60z" stroke="#000" stroke-width="2" fill="none"/>
 </g>
 <g id="g140" transform="translate(-1.6403 -6.6093)">
  <path id="rect142" fill="#fdfd04" d="m80 150h60v20h-60z"/>
  <path id="rect144" d="m80 150h60v20h-60z" stroke="#000" stroke-width="2" fill="none"/>
 </g>
 <g id="g146" transform="translate(-1.6403 -6.6093)">
  <path id="rect148" fill="#fdfd04" d="m180 150h60v20h-60z"/>
  <path id="rect150" d="m180 150h60v20h-60z" stroke="#000" stroke-width="2" fill="none"/>
 </g>
 <g id="g152" transform="translate(-1.6403 -6.6093)">
  <path id="rect154" fill="#fdfd04" d="m280 150h60v20h-60z"/>
  <path id="rect156" d="m280 150h60v20h-60z" stroke="#000" stroke-width="2" fill="none"/>
 </g>
 <g id="g158" transform="translate(-1.6403 -6.6093)">
  <path id="rect160" fill="#fdfd04" d="m480 150h60v20h-60z"/>
  <path id="rect162" d="m480 150h60v20h-60z" stroke="#000" stroke-width="2" fill="none"/>
 </g>
 <g id="g164" transform="translate(-1.6403 -6.6093)">
  <path id="rect166" fill="#fdfd04" d="m380 150h60v20h-60z"/>
  <path id="rect168" d="m380 150h60v20h-60z" stroke="#000" stroke-width="2" fill="none"/>
 </g>
 <path id="line170" d="m478.36 143.39 60 20" stroke="#000" stroke-width="2" fill="none"/>
 <path id="line172" d="m538.36 143.39-60 20" stroke="#000" stroke-width="2" fill="none"/>
 <path id="line174" d="m378.36 83.391 60 90" stroke="#f62e2e" stroke-width="2" fill="none"/>
 <path id="line176" d="m378.36 173.39 60-90" stroke="#f62e2e" stroke-width="2" fill="none"/>
 <g id="g178" transform="translate(-1.6403 -6.6093)">
  <path id="path180" d="m40 160c40 0 0-30 30.264-30" stroke="#000" stroke-width="2" fill="none"/>
  <path id="polygon182" d="m70.264 130-2.5-5 10 5-10 5z"/>
  <path id="polygon184" d="m70.264 130-2.5-5 10 5-10 5z" stroke="#000" stroke-width="2" fill="none"/>
 </g>
 <g id="g186" transform="translate(-1.6403 -6.6093)">
  <path id="path188" d="m140 160c40 0 0-30 30.264-30" stroke="#000" stroke-width="2" fill="none"/>
  <path id="polygon190" d="m170.26 130-2.5-5 10 5-10 5z"/>
  <path id="polygon192" d="m170.26 130-2.5-5 10 5-10 5z" stroke="#000" stroke-width="2" fill="none"/>
 </g>
 <g id="g194" transform="translate(-1.6403 -6.6093)">
  <path id="path196" d="m240 160c40 0 0-30 30.264-30" stroke="#000" stroke-width="2" fill="none"/>
  <path id="polygon198" d="m270.26 130-2.5-5 10 5-10 5z"/>
  <path id="polygon200" d="m270.26 130-2.5-5 10 5-10 5z" stroke="#000" stroke-width="2" fill="none"/>
 </g>
 <g id="g202" transform="translate(-1.6403 -6.6093)">
  <path id="path204" d="m340 160c40 0 0-30 30.264-30" stroke="#000" stroke-width="2" fill="none"/>
  <path id="polygon206" d="m370.26 130-2.5-5 10 5-10 5z"/>
  <path id="polygon208" d="m370.26 130-2.5-5 10 5-10 5z" stroke="#000" stroke-width="2" fill="none"/>
 </g>
 <g id="g210" transform="translate(-1.6403 -6.6093)">
  <path id="path212" d="m440 160c40 0 0-30 30.264-30" stroke="#000" stroke-width="2" fill="none"/>
  <path id="polygon214" d="m470.26 130-2.5-5 10 5-10 5z"/>
  <path id="polygon216" d="m470.26 130-2.5-5 10 5-10 5z" stroke="#000" stroke-width="2" fill="none"/>
 </g>
</svg>
