<?xml version="1.0" encoding="UTF-8" standalone="no"?>
<!-- Created with Inkscape (http://www.inkscape.org/) -->
<svg id="svg2" xmlns:rdf="http://www.w3.org/1999/02/22-rdf-syntax-ns#" xmlns="http://www.w3.org/2000/svg" height="515.84" width="1201.8" version="1.1" xmlns:cc="http://creativecommons.org/ns#" xmlns:dc="http://purl.org/dc/elements/1.1/" viewBox="-134 28 673.35974 284.37012">
 <metadata id="metadata250">
  <rdf:RDF>
   <cc:Work rdf:about="">
    <dc:format>image/svg+xml</dc:format>
    <dc:type rdf:resource="http://purl.org/dc/dcmitype/StillImage"/>
   </cc:Work>
  </rdf:RDF>
 </metadata>
 <g id="g4" transform="translate(-1.6403 -6.3034)">
  <path id="path6" d="m340 160c40 0 0-30 30.264-30" stroke="#000" stroke-width="2" fill="none"/>
  <path id="polygon8" d="m370.26 130-2.5-5 10 5-10 5z"/>
  <path id="polygon10" d="m370.26 130-2.5-5 10 5-10 5z" stroke="#000" stroke-width="2" fill="none"/>
 </g>
 <g id="g12" transform="translate(-1.6403 -6.3034)">
  <path id="path14" d="m-60 130h30.264" stroke="#000" stroke-width="2" fill="none"/>
  <path id="polygon16" d="m-29.736 130-2.5-5 10 5-10 5z"/>
  <path id="polygon18" d="m-29.736 130-2.5-5 10 5-10 5z" stroke="#000" stroke-width="2" fill="none"/>
 </g>
 <g id="g20" transform="translate(-1.6403 -6.3034)">
  <path id="rect22" fill="#7babe3" d="m280 100h60v60h-60z"/>
  <path id="rect24" d="m280 100h60v60h-60z" stroke="#000" stroke-width="2" fill="none"/>
 </g>
 <g id="g26" transform="translate(-1.6403 -6.3034)">
  <path id="rect28" fill="#7babe3" d="m380 100h60v60h-60z"/>
  <path id="rect30" d="m380 100h60v60h-60z" stroke="#000" stroke-width="2" fill="none"/>
 </g>
 <g id="g32" transform="translate(-1.6403 -6.3034)">
  <path id="rect34" fill="#7babe3" d="m180 100h60v60h-60z"/>
  <path id="rect36" d="m180 100h60v60h-60z" stroke="#000" stroke-width="2" fill="none"/>
 </g>
 <g id="g38" transform="translate(-1.6403 -6.3034)">
  <path id="rect40" fill="#fdfd04" d="m-80 120h20v20h-20z"/>
  <path id="rect42" d="m-80 120h20v20h-20z" stroke="#000" stroke-width="2" fill="none"/>
 </g>
 <g id="text44">
  <path id="path3116" style="" d="m398.95 115.13c-1.9403 0.00002-3.4837 0.72321-4.6302 2.1696-1.1377 1.4464-1.7066 3.4175-1.7066 5.9134 0 2.4871 0.56885 4.4538 1.7066 5.9002 1.1465 1.4464 2.6899 2.1696 4.6302 2.1696 1.9403 0.00001 3.4748-0.72319 4.6037-2.1696 1.1377-1.4464 1.7065-3.4131 1.7066-5.9002-0.00002-2.4959-0.56887-4.467-1.7066-5.9134-1.1289-1.4464-2.6635-2.1696-4.6037-2.1696m3.7438 17.582 3.519 3.8497h-3.2279l-2.9236-3.1618c-0.29105 0.0176-0.51594 0.0309-0.67468 0.0397-0.14994 0.009-0.29546 0.0132-0.43656 0.0132-2.7781 0-5.0006-0.92604-6.6675-2.7781-1.658-1.8609-2.4871-4.348-2.4871-7.4612 0-3.1221 0.82903-5.6091 2.4871-7.4612 1.6669-1.8609 3.8894-2.7913 6.6675-2.7914 2.7693 0.00002 4.983 0.93047 6.641 2.7914 1.658 1.8521 2.4871 4.3392 2.4871 7.4612-0.00002 2.2931-0.46304 4.2554-1.3891 5.887-0.91724 1.6316-2.249 2.8354-3.9952 3.6116"/>
  <path id="path3118" style="" d="m421.63 123.81c0.57325 0.19404 1.1289 0.60855 1.6669 1.2435 0.54679 0.63501 1.0936 1.5081 1.6404 2.6194l2.712 5.3975h-2.8707l-2.5268-5.0668c-0.65265-1.3229-1.2876-2.2004-1.905-2.6326-0.60855-0.43214-1.442-0.64822-2.5003-0.64822h-2.9104v8.3476h-2.6723v-19.751h6.0325c2.2578 0.00002 3.9423 0.47186 5.0535 1.4155 1.1112 0.94369 1.6669 2.368 1.6669 4.273-0.00001 1.2436-0.29106 2.2754-0.87312 3.0956-0.57328 0.82022-1.4111 1.3891-2.5135 1.7066m-6.694-8.2947v7.0114h3.3602c1.2876 0.00001 2.2578-0.29544 2.9104-0.88636 0.66144-0.59971 0.99217-1.4772 0.99218-2.6326-0.00001-1.1553-0.33074-2.024-0.99218-2.6061-0.65265-0.59089-1.6228-0.88634-2.9104-0.88635h-3.3602"/>
 </g>
 <g id="text48">
  <path id="path3121" style="" d="m287.63 113.32h3.982l5.0403 13.441 5.0668-13.441h3.982v19.751h-2.6061v-17.343l-5.0932 13.547h-2.6855l-5.0932-13.547v17.343h-2.5929v-19.751"/>
  <path id="path3123" style="" d="m311.02 113.32h3.982l5.0403 13.441 5.0668-13.441h3.982v19.751h-2.6061v-17.343l-5.0932 13.547h-2.6855l-5.0932-13.547v17.343h-2.5929v-19.751"/>
 </g>
 <g id="text52">
  <path id="path3126" style="" d="m205.91 114.84v2.8178c-0.8996-0.83783-1.8609-1.464-2.884-1.8785-1.0142-0.4145-2.0946-0.62175-3.2411-0.62177-2.2578 0.00002-3.9864 0.69234-5.1858 2.077-1.1994 1.3758-1.7992 3.369-1.7992 5.9796 0 2.6017 0.59972 4.5949 1.7992 5.9796 1.1994 1.3758 2.928 2.0638 5.1858 2.0638 1.1465 0 2.2269-0.20726 3.2411-0.62177 1.023-0.41452 1.9844-1.0407 2.884-1.8785v2.7914c-0.93488 0.635-1.9271 1.1112-2.9766 1.4287-1.0407 0.3175-2.1431 0.47625-3.3073 0.47625-2.9898 0-5.3446-0.91281-7.0644-2.7384-1.7198-1.8344-2.5797-4.3347-2.5797-7.5009 0-3.175 0.85989-5.6753 2.5797-7.5009 1.7198-1.8344 4.0746-2.7516 7.0644-2.7517 1.1818 0.00002 2.293 0.15877 3.3338 0.47625 1.0495 0.3087 2.0329 0.77613 2.9501 1.4023"/>
  <path id="path3128" style="" d="m212.74 115.52v15.359h3.2279c2.7252 0 4.7184-0.61736 5.9796-1.8521 1.27-1.2347 1.905-3.1838 1.905-5.8473-0.00002-2.6458-0.63502-4.5817-1.905-5.8076-1.2612-1.2347-3.2544-1.8521-5.9796-1.8521h-3.2279m-2.6723-2.196h5.4901c3.8276 0.00002 6.6366 0.79818 8.427 2.3945 1.7903 1.5875 2.6855 4.0746 2.6855 7.4612-0.00002 3.4043-0.89961 5.9046-2.6988 7.5009s-4.6038 2.3945-8.4137 2.3945h-5.4901v-19.751"/>
 </g>
 <g id="text56" fill="#173b8f">
  <path id="path3131" style="" d="m288.35 195.69c-0.78788 1.3523-1.3729 2.6899-1.7551 4.0128-0.38218 1.3229-0.57327 2.6635-0.57326 4.0217-0.00001 1.3582 0.19108 2.7046 0.57326 4.0393 0.38805 1.3288 0.97307 2.6664 1.7551 4.0128h-1.4111c-0.88195-1.3817-1.5434-2.7399-1.9844-4.0746-0.43509-1.3347-0.65264-2.6605-0.65263-3.9776-0.00001-1.3112 0.21754-2.6311 0.65263-3.9599s1.0966-2.687 1.9844-4.0746h1.4111"/>
  <path id="path3133" style="" d="m297.13 202.3c0.85254 0.18228 1.5169 0.56151 1.9932 1.1377 0.48212 0.57621 0.72319 1.2876 0.7232 2.1343-0.00001 1.2994-0.44686 2.3048-1.3406 3.0162-0.89371 0.71143-2.1637 1.0672-3.81 1.0672-0.55269 0-1.123-0.0559-1.711-0.16757-0.58209-0.10583-1.1848-0.26752-1.808-0.48507v-1.7198c0.49389 0.28811 1.0348 0.50565 1.6228 0.65264 0.58796 0.14699 1.2024 0.22049 1.8433 0.22049 1.1171 0 1.9667-0.22049 2.5488-0.66146 0.58795-0.44097 0.88193-1.0818 0.88194-1.9226-0.00001-0.7761-0.27341-1.3817-0.82021-1.8168-0.54093-0.44097-1.2965-0.66145-2.2666-0.66146h-1.5346v-1.464h1.6051c0.87605 0.00001 1.5463-0.17344 2.0108-0.52034 0.46448-0.35277 0.69672-0.85842 0.69673-1.5169-0.00001-0.67615-0.24107-1.1936-0.72319-1.5522-0.47626-0.36453-1.1612-0.5468-2.0549-0.54681-0.48801 0.00001-1.0113 0.0529-1.5699 0.15875-0.55857 0.10584-1.173 0.27047-1.8433 0.49389v-1.5875c0.67615-0.18813 1.3082-0.32925 1.8962-0.42333 0.59383-0.0941 1.1524-0.1411 1.6757-0.14111 1.3523 0.00001 2.4224 0.30869 3.2103 0.92604 0.78786 0.61149 1.1818 1.4405 1.1818 2.4871-0.00001 0.72908-0.20874 1.3464-0.62618 1.8521-0.41746 0.49977-1.0113 0.84667-1.7815 1.0407"/>
  <path id="path3135" style="" d="m302.75 195.69h1.4111c0.88194 1.3876 1.5405 2.7458 1.9756 4.0746 0.44097 1.3288 0.66146 2.6488 0.66146 3.9599 0 1.317-0.22049 2.6429-0.66146 3.9776-0.43509 1.3347-1.0936 2.6929-1.9756 4.0746h-1.4111c0.78199-1.3464 1.3641-2.684 1.7462-4.0128 0.38805-1.3347 0.58208-2.6811 0.58208-4.0393s-0.19403-2.6987-0.58208-4.0217c-0.38218-1.3229-0.96426-2.6605-1.7462-4.0128"/>
 </g>
 <g id="text60">
  <path id="path3138" style="" d="m-124.85 124.6v0.79375h-7.4612c0.0705 1.1171 0.40569 1.9697 1.0054 2.5576 0.60559 0.58208 1.4464 0.87312 2.5224 0.87312 0.62323 0 1.2259-0.0764 1.808-0.2293 0.58795-0.15287 1.17-0.38218 1.7462-0.68792v1.5346c-0.58209 0.24695-1.1789 0.43509-1.7904 0.56445-0.61149 0.12935-1.2318 0.19402-1.8609 0.19402-1.5757 0-2.8252-0.45861-3.7483-1.3758-0.91722-0.91722-1.3758-2.1578-1.3758-3.7218 0-1.6169 0.43509-2.8986 1.3053-3.8453 0.87606-0.95249 2.0549-1.4287 3.5366-1.4288 1.3288 0.00001 2.3783 0.42922 3.1485 1.2876 0.7761 0.85255 1.1642 2.0138 1.1642 3.4837m-1.6228-0.47625c-0.0118-0.88781-0.26165-1.5963-0.74965-2.1255-0.48214-0.52916-1.123-0.79374-1.9226-0.79375-0.90547 0.00001-1.6316 0.25577-2.1784 0.76729-0.54093 0.51154-0.85255 1.2318-0.93486 2.1608l5.7856-0.009"/>
  <path id="path3140" style="" d="m-122.18 116.22h1.6228v13.723h-1.6228v-13.723"/>
  <path id="path3142" style="" d="m-108.72 124.6v0.79375h-7.4612c0.0706 1.1171 0.40569 1.9697 1.0054 2.5576 0.6056 0.58208 1.4464 0.87312 2.5224 0.87312 0.62323 0 1.2259-0.0764 1.808-0.2293 0.58796-0.15287 1.17-0.38218 1.7462-0.68792v1.5346c-0.58209 0.24695-1.1789 0.43509-1.7903 0.56445-0.61149 0.12935-1.2318 0.19402-1.8609 0.19402-1.5758 0-2.8252-0.45861-3.7483-1.3758-0.91723-0.91722-1.3758-2.1578-1.3758-3.7218-0.00001-1.6169 0.43509-2.8986 1.3053-3.8453 0.87606-0.95249 2.0549-1.4287 3.5366-1.4288 1.3288 0.00001 2.3783 0.42922 3.1485 1.2876 0.7761 0.85255 1.1642 2.0138 1.1642 3.4837m-1.6228-0.47625c-0.0118-0.88781-0.26165-1.5963-0.74965-2.1255-0.48214-0.52916-1.123-0.79374-1.9226-0.79375-0.90546 0.00001-1.6316 0.25577-2.1784 0.76729-0.54092 0.51154-0.85254 1.2318-0.93486 2.1608l5.7856-0.009"/>
  <path id="path3144" style="" d="m-106.06 120.07h1.6228v10.054c0 1.2582-0.24106 2.1696-0.72319 2.734-0.47625 0.56444-1.2465 0.84666-2.3107 0.84667h-0.61736v-1.3758h0.43215c0.61736-0.00001 1.0378-0.14406 1.2612-0.43216 0.22342-0.28222 0.33514-0.87312 0.33514-1.7727v-10.054m0-3.8453h1.6228v2.0549h-1.6228v-2.0549"/>
  <path id="path3146" style="" d="m-92.602 124.6v0.79375h-7.4612c0.07055 1.1171 0.40569 1.9697 1.0054 2.5576 0.6056 0.58208 1.4464 0.87312 2.5224 0.87312 0.62323 0 1.2259-0.0764 1.808-0.2293 0.58795-0.15287 1.17-0.38218 1.7462-0.68792v1.5346c-0.58209 0.24695-1.1789 0.43509-1.7903 0.56445-0.61149 0.12935-1.2318 0.19402-1.8609 0.19402-1.5757 0-2.8252-0.45861-3.7483-1.3758-0.91722-0.91722-1.3758-2.1578-1.3758-3.7218 0-1.6169 0.43509-2.8986 1.3053-3.8453 0.87606-0.95249 2.0549-1.4287 3.5366-1.4288 1.3288 0.00001 2.3783 0.42922 3.1485 1.2876 0.7761 0.85255 1.1642 2.0138 1.1642 3.4837m-1.6228-0.47625c-0.01177-0.88781-0.26165-1.5963-0.74965-2.1255-0.48214-0.52916-1.123-0.79374-1.9226-0.79375-0.90547 0.00001-1.6316 0.25577-2.1784 0.76729-0.54093 0.51154-0.85255 1.2318-0.93486 2.1608l5.7855-0.009"/>
 </g>
 <g id="g64" transform="translate(-1.6403 -6.3034)">
  <path id="path66" d="m321.29 225.65c-31.29-15.65 58.71-45.65 18.71-65.65" stroke="#f62e2e" stroke-width="2" fill="none"/>
  <path id="polygon68" fill="#f62e2e" d="m321.29 225.65v-5.59l6.708 8.944h-11.18z"/>
  <path id="polygon70" d="m321.29 225.65v-5.59l6.708 8.944h-11.18z" stroke="#f62e2e" stroke-width="2" fill="none"/>
 </g>
 <g id="text72" fill="#173b8f">
  <path id="path3151" style="" d="m413.96 195.69c-0.78787 1.3523-1.3729 2.6899-1.7551 4.0128-0.38217 1.3229-0.57326 2.6635-0.57326 4.0217s0.19109 2.7046 0.57326 4.0393c0.38806 1.3288 0.97308 2.6664 1.7551 4.0128h-1.4111c-0.88194-1.3817-1.5434-2.7399-1.9844-4.0746-0.43509-1.3347-0.65264-2.6605-0.65264-3.9776 0-1.3112 0.21755-2.6311 0.65264-3.9599s1.0966-2.687 1.9844-4.0746h1.4111"/>
  <path id="path3153" style="" d="m418.88 207.9h6.2177v1.4993h-8.3608v-1.4993c0.67616-0.69967 1.5963-1.6375 2.7605-2.8134 1.17-1.1818 1.905-1.9432 2.2048-2.2842 0.57032-0.64087 0.9672-1.1818 1.1906-1.6228 0.2293-0.44684 0.34395-0.88487 0.34396-1.3141-0.00001-0.69967-0.24696-1.27-0.74084-1.711-0.48801-0.44096-1.126-0.66145-1.9138-0.66146-0.55857 0.00001-1.1495 0.097-1.7727 0.29104-0.61736 0.19404-1.2788 0.48802-1.9844 0.88194v-1.7992c0.71731-0.28809 1.3876-0.50563 2.0108-0.65264 0.62323-0.14697 1.1936-0.22047 1.711-0.22048 1.3641 0.00001 2.4518 0.34103 3.2632 1.023 0.81138 0.68205 1.2171 1.5934 1.2171 2.734-0.00001 0.54093-0.1029 1.0554-0.30868 1.5434-0.19992 0.48213-0.56739 1.0525-1.1024 1.711-0.147 0.17051-0.61443 0.6644-1.4023 1.4817-0.78787 0.81139-1.8991 1.9491-3.3337 3.4131"/>
  <path id="path3155" style="" d="m428.36 195.69h1.4111c0.88194 1.3876 1.5404 2.7458 1.9756 4.0746 0.44097 1.3288 0.66145 2.6488 0.66146 3.9599-0.00001 1.317-0.22049 2.6429-0.66146 3.9776-0.4351 1.3347-1.0936 2.6929-1.9756 4.0746h-1.4111c0.78199-1.3464 1.3641-2.684 1.7462-4.0128 0.38805-1.3347 0.58207-2.6811 0.58208-4.0393-0.00001-1.3582-0.19403-2.6987-0.58208-4.0217-0.38218-1.3229-0.96426-2.6605-1.7462-4.0128"/>
 </g>
 <g id="g76" transform="translate(-1.6403 -6.3034)">
  <path id="line78" d="m310 70v20.264" stroke="#000" stroke-width="2" fill="none"/>
  <path id="polygon80" d="m310 90.264 5-2.5-5 10-5-10z"/>
  <path id="polygon82" d="m310 90.264 5-2.5-5 10-5-10z" stroke="#000" stroke-width="2" fill="none"/>
 </g>
 <g id="text84">
  <path id="path3161" style="" d="m294.73 29.519h1.6228v9.8778h-1.6228v-9.8778m0-3.8453h1.6228v2.0549h-1.6228v-2.0549"/>
  <path id="path3163" style="" d="m301.35 26.714v2.8046h3.3426v1.2612h-3.3426v5.3622c0 0.80551 0.10877 1.3229 0.32632 1.5522 0.22342 0.22931 0.67321 0.34396 1.3494 0.34396h1.6669v1.3582h-1.6669c-1.2524 0-2.1167-0.23224-2.5929-0.69674-0.47625-0.47037-0.71438-1.3229-0.71437-2.5576v-5.3622h-1.1906v-1.2612h1.1906v-2.8046h1.6316"/>
  <path id="path3165" style="" d="m315.28 34.052v0.79375h-7.4612c0.0706 1.1171 0.40569 1.9697 1.0054 2.5576 0.6056 0.58208 1.4464 0.87312 2.5224 0.87312 0.62323 0.000002 1.2259-0.07643 1.808-0.2293 0.58796-0.15287 1.17-0.38217 1.7462-0.68792v1.5346c-0.58209 0.24694-1.1789 0.43509-1.7903 0.56444-0.61149 0.12935-1.2318 0.19403-1.8609 0.19403-1.5758 0-2.8252-0.45861-3.7483-1.3758-0.91723-0.91722-1.3758-2.1578-1.3758-3.7218 0-1.6169 0.4351-2.8986 1.3053-3.8453 0.87606-0.95249 2.0549-1.4287 3.5366-1.4287 1.3288 0.00001 2.3783 0.42922 3.1485 1.2876 0.7761 0.85255 1.1642 2.0138 1.1642 3.4837m-1.6228-0.47625c-0.0118-0.88782-0.26165-1.5963-0.74965-2.1255-0.48214-0.52916-1.123-0.79374-1.9226-0.79375-0.90546 0.000008-1.6316 0.25577-2.1784 0.76729-0.54093 0.51154-0.85255 1.2318-0.93486 2.1608l5.7856-0.0088"/>
  <path id="path3167" style="" d="m323.67 31.036c-0.18228-0.10582-0.38218-0.18226-0.59972-0.2293-0.21168-0.05291-0.44686-0.07937-0.70556-0.07937-0.91722 0.000009-1.6228 0.29987-2.1167 0.89958-0.48801 0.59385-0.73202 1.4493-0.73202 2.5665v5.2035h-1.6316v-9.8778h1.6316v1.5346c0.34102-0.59971 0.78493-1.0436 1.3317-1.3317 0.5468-0.29397 1.2112-0.44096 1.9932-0.44097 0.11171 0.00001 0.23518 0.0088 0.37042 0.02646 0.13522 0.01177 0.28515 0.03235 0.44979 0.06174l0.009 1.6669"/>
 </g>
 <g id="g88" transform="translate(-1.6403 -6.3034)">
  <path id="line90" d="m360 300v-20.264" stroke="#f62e2e" stroke-width="2" fill="none"/>
  <path id="polygon92" fill="#f62e2e" d="m360 279.74-5 2.5 5-10 5 10z"/>
  <path id="polygon94" d="m360 279.74-5 2.5 5-10 5 10z" stroke="#f62e2e" stroke-width="2" fill="none"/>
 </g>
 <g id="text96">
  <path id="path3173" style="" d="m321.66 305.5v-5.9796h1.6228v5.9178c-0.00001 0.93486 0.18226 1.6375 0.5468 2.1078 0.36453 0.4645 0.91134 0.69674 1.6404 0.69674 0.87605 0 1.5669-0.27928 2.0726-0.83785 0.51152-0.55856 0.76729-1.32 0.76729-2.2842v-5.6003h1.6228v9.8778h-1.6228v-1.517c-0.39394 0.59973-0.85255 1.0466-1.3758 1.3406-0.51741 0.2881-1.1201 0.43215-1.808 0.43215-1.1348 0-1.9961-0.35278-2.5841-1.0583-0.58796-0.70556-0.88194-1.7374-0.88194-3.0956m4.0834-6.2177m1.2083-4.3304h1.7551l-2.8751 3.3161h-1.3494l2.4694-3.3161"/>
  <path id="path3175" style="" d="m333.29 299.52h1.6228v10.054c0 1.2582-0.24107 2.1696-0.72319 2.734-0.47625 0.56444-1.2465 0.84666-2.3107 0.84666h-0.61736v-1.3758h0.43215c0.61736 0 1.0378-0.14405 1.2612-0.43215 0.22342-0.28222 0.33513-0.87312 0.33514-1.7727v-10.054m0-3.8453h1.6228v2.0549h-1.6228v-2.0549"/>
 </g>
 <g id="g100" transform="translate(-1.6403 -6.3034)">
  <path id="rect102" fill="#7babe3" d="m480 100h60v60h-60z"/>
  <path id="rect104" d="m480 100h60v60h-60z" stroke="#000" stroke-width="2" fill="none"/>
 </g>
 <g id="text106">
  <path id="path3180" style="" d="m497.34 115.52v7.4216h3.3602c1.2435 0.00001 2.2048-0.3219 2.884-0.96573 0.67908-0.64381 1.0186-1.561 1.0186-2.7517-0.00001-1.1818-0.33956-2.0946-1.0186-2.7384-0.67911-0.6438-1.6404-0.96571-2.884-0.96572h-3.3602m-2.6723-2.196h6.0325c2.2137 0.00002 3.885 0.50272 5.0138 1.5081 1.1377 0.99661 1.7066 2.4606 1.7066 4.3921-0.00001 1.9491-0.56887 3.422-1.7066 4.4185-1.1289 0.99661-2.8002 1.4949-5.0138 1.4949h-3.3602v7.9375h-2.6723v-19.751"/>
  <path id="path3182" style="" d="m513.69 115.52v7.4216h3.3602c1.2435 0.00001 2.2048-0.3219 2.884-0.96573 0.67908-0.64381 1.0186-1.561 1.0186-2.7517-0.00001-1.1818-0.33956-2.0946-1.0186-2.7384-0.67911-0.6438-1.6404-0.96571-2.884-0.96572h-3.3602m-2.6723-2.196h6.0325c2.2137 0.00002 3.885 0.50272 5.0138 1.5081 1.1377 0.99661 1.7066 2.4606 1.7066 4.3921-0.00001 1.9491-0.56887 3.422-1.7066 4.4185-1.1289 0.99661-2.8002 1.4949-5.0138 1.4949h-3.3602v7.9375h-2.6723v-19.751"/>
 </g>
 <g id="g110" transform="translate(-1.6403 -6.3034)">
  <path id="rect112" fill="#7babe3" d="m80 100h60v60h-60z"/>
  <path id="rect114" d="m80 100h60v60h-60z" stroke="#000" stroke-width="2" fill="none"/>
 </g>
 <g id="text116">
  <path id="path3187" style="" d="m99.073 115.95-3.6248 9.8293h7.2628l-3.638-9.8293m-1.5081-2.6326h3.0295l7.5274 19.751h-2.7781l-1.7992-5.0668h-8.9032l-1.7992 5.0668h-2.8178l7.5406-19.751"/>
  <path id="path3189" style="" d="m113.66 123.64v7.2364h4.2862c1.4376 0 2.5003-0.29545 3.1882-0.88635 0.69672-0.59972 1.0451-1.5125 1.0451-2.7384-0.00001-1.2347-0.34838-2.1431-1.0451-2.7252-0.68793-0.5909-1.7507-0.88635-3.1882-0.88636h-4.2862m0-8.1227v5.9531h3.9555c1.3053 0.00002 2.2754-0.24252 2.9104-0.7276 0.64381-0.49387 0.96571-1.2435 0.96573-2.249-0.00002-0.99659-0.32192-1.7418-0.96573-2.2357-0.63501-0.49387-1.6052-0.74082-2.9104-0.74083h-3.9555m-2.6723-2.196h6.8262c2.0373 0.00002 3.6071 0.42335 4.7096 1.27 1.1024 0.84668 1.6536 2.0505 1.6536 3.6116-0.00002 1.2083-0.28224 2.1696-0.84667 2.884-0.56446 0.71438-1.3935 1.1598-2.4871 1.3361 1.3141 0.28224 2.3327 0.87314 3.0559 1.7727 0.732 0.89077 1.098 2.0064 1.098 3.347-0.00001 1.7639-0.59973 3.1265-1.7992 4.0878-1.1995 0.96132-2.906 1.442-5.1197 1.442h-7.0908v-19.751"/>
 </g>
 <g id="g120" transform="translate(-1.6403 -6.3034)">
  <path id="rect122" fill="#7babe3" d="m-20 100h60v60h-60z"/>
  <path id="rect124" d="m-20 100h60v60h-60z" stroke="#000" stroke-width="2" fill="none"/>
 </g>
 <g id="text126">
  <path id="path3194" style="" d="m-7.502 113.32h2.8707l4.908 7.3422 4.9345-7.3422h2.8707l-6.35 9.4853 6.7733 10.266h-2.8707l-5.5562-8.4005-5.5959 8.4005h-2.884l7.0511-10.544-6.1516-9.2075"/>
  <path id="path3196" style="" d="m9.3122 113.32h2.8707l5.4769 8.1227 5.4372-8.1227h2.8707l-6.985 10.345v9.4059h-2.6855v-9.4059l-6.985-10.345"/>
 </g>
 <g id="g130" transform="translate(-1.6403 -6.3034)">
  <path id="rect132" fill="#7be38e" d="m330 200h60v60h-60z"/>
  <path id="rect134" d="m330 200h60v60h-60z" stroke="#000" stroke-width="2" fill="none"/>
 </g>
 <g id="text136">
  <path id="path3201" style="" d="m338.82 213.32h3.982l5.0403 13.441 5.0668-13.441h3.982v19.751h-2.6062v-17.343l-5.0932 13.547h-2.6855l-5.0932-13.547v17.343h-2.5929v-19.751"/>
  <path id="path3203" style="" d="m375.68 230.25v-5.3049h-4.3656v-2.196h7.0114v8.4799c-1.0319 0.73201-2.1696 1.2876-3.4131 1.6669-1.2436 0.37042-2.5709 0.55562-3.982 0.55562-3.0868 0-5.5033-0.89958-7.2496-2.6987-1.7374-1.808-2.6062-4.3215-2.6061-7.5406-0.00001-3.2279 0.86871-5.7414 2.6061-7.5406 1.7462-1.808 4.1628-2.712 7.2496-2.712 1.2876 0.00002 2.5091 0.15877 3.6645 0.47625 1.1642 0.31752 2.2357 0.78495 3.2147 1.4023v2.8443c-0.98779-0.83783-2.0373-1.4684-3.1485-1.8918-1.1113-0.42332-2.2798-0.63498-3.5057-0.635-2.4165 0.00002-4.2333 0.6747-5.4504 2.0241-1.2083 1.3494-1.8124 3.3602-1.8124 6.0325-0.00001 2.6635 0.60412 4.6699 1.8124 6.0193 1.2171 1.3494 3.0339 2.0241 5.4504 2.0241 0.94367 0 1.7859-0.0794 2.5268-0.23813 0.74081-0.16757 1.4067-0.42333 1.9976-0.76729"/>
 </g>
 <g id="g140" transform="translate(-1.6403 -6.3034)">
  <path id="path142" d="m390 260c60-40-60-100-18.35-124.99" stroke="#f62e2e" stroke-width="2" fill="none"/>
  <path id="polygon144" fill="#f62e2e" d="m371.65 135.01-4.716-3.001 11.148-0.858-6.003 9.433z"/>
  <path id="polygon146" d="m371.65 135.01-4.716-3.001 11.148-0.858-6.003 9.433z" stroke="#f62e2e" stroke-width="2" fill="none"/>
 </g>
 <g id="text148" fill="#173b8f">
  <path id="path3208" style="" d="m371.15 276.79c-0.78787 1.3523-1.3729 2.6899-1.7551 4.0128-0.38218 1.3229-0.57327 2.6635-0.57327 4.0217s0.19109 2.7046 0.57327 4.0393c0.38805 1.3288 0.97307 2.6664 1.7551 4.0128h-1.4111c-0.88194-1.3817-1.5434-2.7399-1.9844-4.0746-0.43509-1.3347-0.65264-2.6605-0.65264-3.9776 0-1.3112 0.21755-2.6311 0.65264-3.9599s1.0966-2.687 1.9844-4.0746h1.4111"/>
  <path id="path3210" style="" d="m374.85 289h2.9104v-10.045l-3.1662 0.635v-1.6228l3.1485-0.635h1.7815v11.668h2.9104v1.4993h-7.5847v-1.4993"/>
  <path id="path3212" style="" d="m385.56 276.79h1.4111c0.88194 1.3876 1.5405 2.7458 1.9756 4.0746 0.44097 1.3288 0.66145 2.6488 0.66146 3.9599-0.00001 1.317-0.22049 2.6429-0.66146 3.9776-0.43509 1.3347-1.0936 2.6929-1.9756 4.0746h-1.4111c0.78199-1.3464 1.3641-2.684 1.7462-4.0128 0.38805-1.3347 0.58208-2.6811 0.58208-4.0393s-0.19403-2.6987-0.58208-4.0217c-0.38218-1.3229-0.96426-2.6605-1.7462-4.0128"/>
 </g>
 <g id="g152" transform="translate(-1.6403 -6.3034)">
  <path id="rect154" fill="#fdfd04" d="m-20 150h60v20h-60z"/>
  <path id="rect156" d="m-20 150h60v20h-60z" stroke="#000" stroke-width="2" fill="none"/>
 </g>
 <g id="g158" transform="translate(-1.6403 -6.3034)">
  <path id="rect160" fill="#fdfd04" d="m80 150h60v20h-60z"/>
  <path id="rect162" d="m80 150h60v20h-60z" stroke="#000" stroke-width="2" fill="none"/>
 </g>
 <g id="g164" transform="translate(-1.6403 -6.3034)">
  <path id="rect166" fill="#fdfd04" d="m180 150h60v20h-60z"/>
  <path id="rect168" d="m180 150h60v20h-60z" stroke="#000" stroke-width="2" fill="none"/>
 </g>
 <g id="g170" transform="translate(-1.6403 -6.3034)">
  <path id="rect172" fill="#fdfd04" d="m280 150h60v20h-60z"/>
  <path id="rect174" d="m280 150h60v20h-60z" stroke="#000" stroke-width="2" fill="none"/>
 </g>
 <g id="g176" transform="translate(-1.6403 -6.3034)">
  <path id="rect178" fill="#fdfd04" d="m380 150h60v20h-60z"/>
  <path id="rect180" d="m380 150h60v20h-60z" stroke="#000" stroke-width="2" fill="none"/>
 </g>
 <g id="g182" transform="translate(-1.6403 -6.3034)">
  <path id="rect184" fill="#fdfd04" d="m480 150h60v20h-60z"/>
  <path id="rect186" d="m480 150h60v20h-60z" stroke="#000" stroke-width="2" fill="none"/>
 </g>
 <path id="line188" d="m478.36 143.7 60 20" stroke="#000" stroke-width="2" fill="none"/>
 <path id="line190" d="m538.36 143.7-60 20" stroke="#000" stroke-width="2" fill="none"/>
 <path id="line192" d="m362.36 117.7-12 12" stroke="#f62e2e" stroke-width="2" fill="none"/>
 <path id="line194" d="m350.36 117.7 12 12" stroke="#f62e2e" stroke-width="2" fill="none"/>
 <g id="g196" transform="translate(-1.6403 -6.3034)">
  <path id="rect198" fill="#fdfd04" d="m330 250h60v20h-60z"/>
  <path id="rect200" d="m330 250h60v20h-60z" stroke="#000" stroke-width="2" fill="none"/>
 </g>
 <g id="g202" transform="translate(-1.6403 -6.3034)">
  <path id="rect204" fill="#fdfd04" d="m350 300h20v20h-20z"/>
  <path id="rect206" d="m350 300h20v20h-20z" stroke="#000" stroke-width="2" fill="none"/>
 </g>
 <g id="g208" transform="translate(-1.6403 -6.3034)">
  <path id="rect210" fill="#fdfd04" d="m300 50h20v20h-20z"/>
  <path id="rect212" d="m300 50h20v20h-20z" stroke="#000" stroke-width="2" fill="none"/>
 </g>
 <g id="g214" transform="translate(-1.6403 -6.3034)">
  <path id="path216" d="m40 160c40 0 0-30 30.264-30" stroke="#000" stroke-width="2" fill="none"/>
  <path id="polygon218" d="m70.264 130-2.5-5 10 5-10 5z"/>
  <path id="polygon220" d="m70.264 130-2.5-5 10 5-10 5z" stroke="#000" stroke-width="2" fill="none"/>
 </g>
 <g id="g222" transform="translate(-1.6403 -6.3034)">
  <path id="path224" d="m140 160c40 0 0-30 30.264-30" stroke="#000" stroke-width="2" fill="none"/>
  <path id="polygon226" d="m170.26 130-2.5-5 10 5-10 5z"/>
  <path id="polygon228" d="m170.26 130-2.5-5 10 5-10 5z" stroke="#000" stroke-width="2" fill="none"/>
 </g>
 <g id="g230" transform="translate(-1.6403 -6.3034)">
  <path id="path232" d="m240 160c40 0 0-30 30.264-30" stroke="#000" stroke-width="2" fill="none"/>
  <path id="polygon234" d="m270.26 130-2.5-5 10 5-10 5z"/>
  <path id="polygon236" d="m270.26 130-2.5-5 10 5-10 5z" stroke="#000" stroke-width="2" fill="none"/>
 </g>
 <g id="g238" transform="translate(-1.6403 -6.3034)">
  <path id="path240" d="m440 160c40 0 0-30 30.264-30" stroke="#000" stroke-width="2" fill="none"/>
  <path id="polygon242" d="m470.26 130-2.5-5 10 5-10 5z"/>
  <path id="polygon244" d="m470.26 130-2.5-5 10 5-10 5z" stroke="#000" stroke-width="2" fill="none"/>
 </g>
</svg>
