<?xml version="1.0" encoding="UTF-8" standalone="no"?>
<!-- Created with Inkscape (http://www.inkscape.org/) -->
<svg id="svg2" xmlns:rdf="http://www.w3.org/1999/02/22-rdf-syntax-ns#" xmlns="http://www.w3.org/2000/svg" height="325.74" width="424.84" version="1.1" xmlns:cc="http://creativecommons.org/ns#" xmlns:dc="http://purl.org/dc/elements/1.1/" viewBox="-82 179 233.805 168.23236">
 <metadata id="metadata100">
  <rdf:RDF>
   <cc:Work rdf:about="">
    <dc:format>image/svg+xml</dc:format>
    <dc:type rdf:resource="http://purl.org/dc/dcmitype/StillImage"/>
   </cc:Work>
  </rdf:RDF>
 </metadata>
 <g id="g4" transform="translate(-1 -6.0158)">
  <path id="polygon6" fill="#fff" d="m40 270-60-30 60-30 60 30z"/>
  <path id="polygon8" d="m40 270-60-30 60-30 60 30z" stroke="#f00" stroke-width="2" fill="none"/>
  <g id="text10">
   <path id="path3031" style="" d="m28 242.51h3.8861v0.93707h-5.2255v-0.93707c0.4226-0.43729 0.9977-1.0234 1.7253-1.7584 0.73128-0.73862 1.1906-1.2145 1.378-1.4276 0.35645-0.40055 0.6045-0.73863 0.74414-1.0142 0.14331-0.27928 0.21497-0.55305 0.21497-0.82131-0.000004-0.43729-0.15434-0.79375-0.46302-1.0694-0.30501-0.2756-0.70372-0.41341-1.1961-0.41341-0.34911 0-0.71842 0.0606-1.1079 0.1819-0.38585 0.12127-0.79926 0.30501-1.2402 0.55121v-1.1245c0.44832-0.18005 0.86724-0.31602 1.2568-0.4079 0.38952-0.0919 0.74598-0.13779 1.0694-0.1378 0.85254 0.00001 1.5324 0.21314 2.0395 0.63941 0.50711 0.42628 0.76067 0.99587 0.76068 1.7088-0.000006 0.33808-0.06432 0.65963-0.19293 0.96463-0.12495 0.30133-0.35462 0.65779-0.68902 1.0694-0.09187 0.10657-0.38402 0.41525-0.87643 0.92604-0.49242 0.50712-1.187 1.2182-2.0836 2.1332"/>
   <path id="path3033" style="" d="m35.392 234.82v11.289h-0.93707v-11.289h0.93707"/>
   <path id="path3035" style="" d="m37.547 235.21h1.1961l2.045 3.0592 2.056-3.0592h1.1961l-2.6458 3.9522 2.8222 4.2774h-1.1961l-2.3151-3.5002-2.3316 3.5002h-1.2017l2.938-4.3932-2.5632-3.8365"/>
   <path id="path3037" style="" d="m50.324 242.04h1.119v1.4001h-1.119v-1.4001m1.0859-0.81029h-1.0528v-0.84887c-0.000002-0.37115 0.05145-0.67615 0.15434-0.91502 0.10289-0.23885 0.3197-0.5163 0.65044-0.83233l0.49609-0.49058c0.20946-0.19476 0.36012-0.3785 0.452-0.55122 0.09554-0.17271 0.14331-0.3491 0.14332-0.52917-0.000004-0.32705-0.12127-0.59163-0.3638-0.79375-0.23886-0.2021-0.55673-0.30316-0.9536-0.30317-0.29031 0.00001-0.60083 0.0643-0.93156 0.19293-0.32706 0.12862-0.66881 0.31604-1.0253 0.56224v-1.0363c0.34543-0.20945 0.69453-0.36563 1.0473-0.46853 0.35645-0.10289 0.72393-0.15433 1.1024-0.15434 0.67616 0.00001 1.2182 0.17823 1.6261 0.53468 0.41157 0.35646 0.61736 0.82683 0.61736 1.4111-0.000006 0.27929-0.06615 0.54571-0.19844 0.79926-0.1323 0.24989-0.36381 0.53285-0.69453 0.84888l-0.48507 0.47404c-0.17272 0.17272-0.29582 0.30869-0.36932 0.4079-0.06982 0.0956-0.11943 0.18926-0.14883 0.28112-0.02205 0.0772-0.03859 0.17088-0.04961 0.28112-0.01103 0.11025-0.01654 0.26091-0.01654 0.452v0.67799"/>
  </g>
 </g>
 <g id="g14" transform="translate(-1 -6.0158)">
  <path id="line16" d="m40 180.5v22.014" stroke="#000" stroke-width="2" fill="none"/>
  <path id="polygon18" d="m40 202.51 3.5-1.75-3.5 7-3.5-7z"/>
  <path id="polygon20" d="m40 202.51 3.5-1.75-3.5 7-3.5-7z" stroke="#000" stroke-width="2" fill="none"/>
 </g>
 <g id="g22" transform="translate(-1 -6.0158)">
  <path id="polygon24" fill="#fff" d="m9.0809 310h-89.081l10.919-30h89.081z"/>
  <path id="polygon26" d="m9.0809 310h-89.081l10.919-30h89.081z" stroke="#000" stroke-width="2" fill="none"/>
  <g id="text28">
   <path id="path3045" style="" d="m-53.606 290.21h1.1135v3.4782l3.6931-3.4782h1.4332l-4.0845 3.8365 4.3767 4.3932h-1.4662l-3.9522-3.9632v3.9632h-1.1135v-8.2296"/>
   <path id="path3047" style="" d="m-46.197 290.21h1.1135v8.2296h-1.1135v-8.2296"/>
   <path id="path3049" style="" d="m-42.653 297.04h1.1631v1.4001h-1.1631v-1.4001m0-4.4373h1.1631v1.4001h-1.1631v-1.4001"/>
   <path id="path3051" style="" d="m-34.523 297.52v3.2742h-1.0197v-8.5218h1.0197v0.93707c0.21314-0.36747 0.48139-0.6394 0.80478-0.8158 0.32705-0.18006 0.71658-0.27009 1.1686-0.2701 0.74965 0.00001 1.3578 0.29767 1.8245 0.89297 0.47036 0.59532 0.70555 1.378 0.70556 2.3482-0.000007 0.97015-0.23519 1.7529-0.70556 2.3482-0.4667 0.59532-1.0749 0.89297-1.8245 0.89297-0.452 0-0.84153-0.0882-1.1686-0.26458-0.32338-0.18006-0.59164-0.45383-0.80478-0.82131m3.4506-2.1553c-0.000005-0.74597-0.15434-1.3303-0.46302-1.7529-0.30501-0.42627-0.72577-0.63941-1.2623-0.63941-0.53652 0-0.95912 0.21314-1.2678 0.63941-0.30501 0.4226-0.45751 1.0069-0.45751 1.7529-0.000002 0.74598 0.1525 1.3321 0.45751 1.7584 0.30868 0.4226 0.73128 0.6339 1.2678 0.6339 0.53651 0 0.95727-0.2113 1.2623-0.6339 0.30868-0.42627 0.46302-1.0124 0.46302-1.7584"/>
   <path id="path3053" style="" d="m-25.532 295.34c-0.81948 0-1.3872 0.0937-1.7033 0.28112-0.31603 0.18741-0.47405 0.50712-0.47405 0.95911-0.000002 0.36013 0.11759 0.64676 0.35278 0.8599 0.23886 0.20946 0.56224 0.31419 0.97014 0.31419 0.56224 0 1.0124-0.19844 1.3505-0.59531 0.34175-0.40055 0.51263-0.93156 0.51263-1.593v-0.22599h-1.0087m2.023-0.41893v3.5223h-1.0142v-0.93707c-0.23152 0.37483-0.51998 0.65228-0.86541 0.83234-0.34543 0.17639-0.76803 0.26458-1.2678 0.26458-0.63206 0-1.1355-0.17639-1.5103-0.52916-0.37115-0.35646-0.55673-0.83234-0.55673-1.4276-0.000001-0.69453 0.23151-1.2182 0.69453-1.571 0.46669-0.35277 1.1612-0.52916 2.0836-0.52917h1.4221v-0.0992c-0.000005-0.4667-0.15435-0.82682-0.46302-1.0804-0.30501-0.25723-0.73496-0.38584-1.2898-0.38585-0.35278 0.00001-0.69637 0.0423-1.0308 0.12678-0.33441 0.0845-0.65595 0.21131-0.96463 0.38034v-0.93707c0.37115-0.14331 0.73128-0.24988 1.0804-0.3197 0.3491-0.0735 0.68902-0.11024 1.0197-0.11025 0.89297 0.00001 1.5599 0.23152 2.0009 0.69454 0.44097 0.46302 0.66145 1.1649 0.66146 2.1056m-1.8521-5.5066h1.0969l-1.797 2.0726h-0.84336l1.5434-2.0726"/>
   <path id="path3055" style="" d="m-17.837 293.22c-0.11392-0.0661-0.23886-0.11391-0.37483-0.14331-0.1323-0.0331-0.27929-0.0496-0.44097-0.0496-0.57327 0-1.0142 0.18742-1.3229 0.56224-0.30501 0.37116-0.45751 0.90583-0.45751 1.604v3.2522h-1.0197v-6.1736h1.0197v0.95912c0.21314-0.37482 0.49058-0.65227 0.83234-0.83234 0.34175-0.18373 0.757-0.2756 1.2457-0.27561 0.06982 0.00001 0.14699 0.006 0.23151 0.0165 0.08451 0.007 0.17822 0.0202 0.28112 0.0386l0.0055 1.0418"/>
   <path id="path3057" style="" d="m-14.618 292.98c-0.54387 0.00001-0.97382 0.21314-1.2898 0.63941-0.31603 0.4226-0.47405 1.0032-0.47405 1.7418-0.000002 0.73864 0.15618 1.3211 0.46853 1.7474 0.31603 0.4226 0.74781 0.6339 1.2954 0.6339 0.54019 0 0.9683-0.21314 1.2843-0.63941 0.31602-0.42628 0.47404-1.0069 0.47404-1.7418-0.000005-0.73127-0.15802-1.31-0.47404-1.7363-0.31604-0.42994-0.74415-0.64491-1.2843-0.64492m0-0.8599c0.88194 0.00001 1.5746 0.28664 2.0781 0.8599 0.50344 0.57327 0.75516 1.367 0.75517 2.3812-0.000006 1.0106-0.25173 1.8043-0.75517 2.3813-0.50345 0.57326-1.1961 0.85989-2.0781 0.85989-0.88562 0-1.5802-0.28663-2.0836-0.85989-0.49977-0.57694-0.74965-1.3707-0.74965-2.3813 0-1.0142 0.24988-1.808 0.74965-2.3812 0.50344-0.57326 1.198-0.85989 2.0836-0.8599"/>
   <path id="path3059" style="" d="m-6.1737 292.45v0.95912c-0.28664-0.14699-0.58429-0.25723-0.89297-0.33073s-0.62839-0.11024-0.95912-0.11024c-0.50345 0-0.88195 0.0772-1.1355 0.23151-0.24989 0.15434-0.37483 0.38585-0.37483 0.69453-0.0000016 0.23519 0.09003 0.42077 0.2701 0.55673 0.18006 0.13229 0.54203 0.25907 1.0859 0.38034l0.34727 0.0772c0.72025 0.15434 1.231 0.37299 1.5324 0.65594 0.305 0.27929 0.4575 0.67065 0.45751 1.1741-0.0000053 0.57327-0.22784 1.0271-0.68351 1.3615-0.452 0.3344-1.0749 0.5016-1.8686 0.5016-0.33073 0-0.67616-0.0331-1.0363-0.0992-0.35645-0.0625-0.73312-0.15801-1.13-0.28663v-1.0473c0.37483 0.19477 0.74414 0.34176 1.1079 0.44097 0.3638 0.0956 0.72393 0.14332 1.0804 0.14332 0.47772 0 0.84519-0.0808 1.1024-0.24253 0.25723-0.16537 0.38585-0.39688 0.38585-0.69454-0.0000043-0.2756-0.093711-0.4869-0.28112-0.63389-0.18374-0.14699-0.5898-0.28847-1.2182-0.42444l-0.35278-0.0827c-0.62839-0.13229-1.0822-0.3344-1.3615-0.60634-0.27928-0.2756-0.41892-0.65227-0.41892-1.13-0.000001-0.58061 0.20579-1.0289 0.61736-1.345 0.41157-0.31602 0.99586-0.47404 1.7529-0.47405 0.37482 0.00001 0.7276 0.0276 1.0583 0.0827 0.33073 0.0551 0.63573 0.13781 0.91502 0.24804"/>
  </g>
 </g>
 <g id="g32" transform="translate(-1 -6.0158)">
  <path id="polygon34" fill="#fff" d="m140.89 310h-90.89l10.919-30h90.886z"/>
  <path id="polygon36" d="m140.89 310h-90.89l10.919-30h90.886z" stroke="#000" stroke-width="2" fill="none"/>
  <g id="text38">
   <path id="path3064" style="" d="m69.28 290.21h1.1135v3.4782l3.6931-3.4782h1.4332l-4.0845 3.8365 4.3767 4.3932h-1.4662l-3.9522-3.9632v3.9632h-1.1135v-8.2296"/>
   <path id="path3066" style="" d="m76.688 290.21h1.1135v8.2296h-1.1135v-8.2296"/>
   <path id="path3068" style="" d="m80.232 297.04h1.1631v1.4001h-1.1631v-1.4001m0-4.4373h1.1631v1.4001h-1.1631v-1.4001"/>
   <path id="path3070" style="" d="m88.363 297.52v3.2742h-1.0197v-8.5218h1.0197v0.93707c0.21313-0.36747 0.48139-0.6394 0.80478-0.8158 0.32705-0.18006 0.71658-0.27009 1.1686-0.2701 0.74965 0.00001 1.3578 0.29767 1.8245 0.89297 0.47036 0.59532 0.70555 1.378 0.70556 2.3482-0.000006 0.97015-0.23519 1.7529-0.70556 2.3482-0.4667 0.59532-1.0749 0.89297-1.8245 0.89297-0.452 0-0.84153-0.0882-1.1686-0.26458-0.32338-0.18006-0.59164-0.45383-0.80478-0.82131m3.4506-2.1553c-0.000006-0.74597-0.15435-1.3303-0.46302-1.7529-0.30501-0.42627-0.72577-0.63941-1.2623-0.63941-0.53652 0-0.95912 0.21314-1.2678 0.63941-0.30501 0.4226-0.45751 1.0069-0.45751 1.7529-0.000002 0.74598 0.1525 1.3321 0.45751 1.7584 0.30868 0.4226 0.73128 0.6339 1.2678 0.6339 0.53651 0 0.95727-0.2113 1.2623-0.6339 0.30868-0.42627 0.46302-1.0124 0.46302-1.7584"/>
   <path id="path3072" style="" d="m97.353 295.34c-0.81948 0-1.3872 0.0937-1.7033 0.28112-0.31603 0.18741-0.47405 0.50712-0.47404 0.95911-0.000002 0.36013 0.11759 0.64676 0.35278 0.8599 0.23886 0.20946 0.56224 0.31419 0.97014 0.31419 0.56224 0 1.0124-0.19844 1.3505-0.59531 0.34175-0.40055 0.51263-0.93156 0.51263-1.593v-0.22599h-1.0087m2.023-0.41893v3.5223h-1.0142v-0.93707c-0.23152 0.37483-0.51998 0.65228-0.86541 0.83234-0.34543 0.17639-0.76803 0.26458-1.2678 0.26458-0.63206 0-1.1355-0.17639-1.5103-0.52916-0.37115-0.35646-0.55673-0.83234-0.55673-1.4276 0-0.69453 0.23151-1.2182 0.69453-1.571 0.4667-0.35277 1.1612-0.52916 2.0836-0.52917h1.4221v-0.0992c-0.000005-0.4667-0.15434-0.82682-0.46302-1.0804-0.30501-0.25723-0.73496-0.38584-1.2898-0.38585-0.35278 0.00001-0.69637 0.0423-1.0308 0.12678-0.33441 0.0845-0.65595 0.21131-0.96463 0.38034v-0.93707c0.37115-0.14331 0.73128-0.24988 1.0804-0.3197 0.3491-0.0735 0.68902-0.11024 1.0198-0.11025 0.89296 0.00001 1.5599 0.23152 2.0009 0.69454 0.44097 0.46302 0.66145 1.1649 0.66146 2.1056m-1.8521-5.5066h1.0969l-1.797 2.0726h-0.84336l1.5434-2.0726"/>
   <path id="path3074" style="" d="m105.05 293.22c-0.11392-0.0661-0.23886-0.11391-0.37482-0.14331-0.1323-0.0331-0.27929-0.0496-0.44098-0.0496-0.57326 0-1.0142 0.18742-1.3229 0.56224-0.30501 0.37116-0.45751 0.90583-0.45751 1.604v3.2522h-1.0198v-6.1736h1.0198v0.95912c0.21313-0.37482 0.49058-0.65227 0.83233-0.83234 0.34175-0.18373 0.757-0.2756 1.2458-0.27561 0.0698 0.00001 0.14699 0.006 0.23151 0.0165 0.0845 0.007 0.17822 0.0202 0.28112 0.0386l0.006 1.0418"/>
   <path id="path3076" style="" d="m108.93 295.34c-0.81948 0-1.3872 0.0937-1.7032 0.28112-0.31604 0.18741-0.47405 0.50712-0.47405 0.95911 0 0.36013 0.11759 0.64676 0.35278 0.8599 0.23886 0.20946 0.56224 0.31419 0.97014 0.31419 0.56223 0 1.0124-0.19844 1.3505-0.59531 0.34175-0.40055 0.51262-0.93156 0.51263-1.593v-0.22599h-1.0087m2.023-0.41893v3.5223h-1.0142v-0.93707c-0.23152 0.37483-0.51999 0.65228-0.86541 0.83234-0.34543 0.17639-0.76803 0.26458-1.2678 0.26458-0.63206 0-1.1355-0.17639-1.5103-0.52916-0.37115-0.35646-0.55673-0.83234-0.55673-1.4276 0-0.69453 0.23151-1.2182 0.69453-1.571 0.4667-0.35277 1.1612-0.52916 2.0836-0.52917h1.4221v-0.0992c-0.00001-0.4667-0.15435-0.82682-0.46302-1.0804-0.30501-0.25723-0.73496-0.38584-1.2898-0.38585-0.35278 0.00001-0.69637 0.0423-1.0308 0.12678-0.33441 0.0845-0.65595 0.21131-0.96463 0.38034v-0.93707c0.37115-0.14331 0.73128-0.24988 1.0804-0.3197 0.3491-0.0735 0.68902-0.11024 1.0198-0.11025 0.89297 0.00001 1.5599 0.23152 2.0009 0.69454 0.44096 0.46302 0.66145 1.1649 0.66145 2.1056"/>
   <path id="path3078" style="" d="m114.05 290.52v1.7529h2.0891v0.78824h-2.0891v3.3514c0 0.50345 0.068 0.82683 0.20395 0.97014 0.13964 0.14332 0.42076 0.21498 0.84336 0.21498h1.0418v0.84887h-1.0418c-0.78273 0-1.3229-0.14515-1.6206-0.43546-0.29765-0.29398-0.44648-0.82682-0.44648-1.5985v-3.3514h-0.74414v-0.78824h0.74414v-1.7529h1.0198"/>
   <path id="path3080" style="" d="m117.48 289.87h1.0142v8.5769h-1.0142v-8.5769"/>
   <path id="path3082" style="" d="m123.41 295.34c-0.81947 0-1.3872 0.0937-1.7032 0.28112-0.31604 0.18741-0.47405 0.50712-0.47405 0.95911 0 0.36013 0.11759 0.64676 0.35278 0.8599 0.23886 0.20946 0.56224 0.31419 0.97014 0.31419 0.56223 0 1.0124-0.19844 1.3505-0.59531 0.34175-0.40055 0.51262-0.93156 0.51263-1.593v-0.22599h-1.0087m2.023-0.41893v3.5223h-1.0142v-0.93707c-0.23152 0.37483-0.51999 0.65228-0.86541 0.83234-0.34543 0.17639-0.76803 0.26458-1.2678 0.26458-0.63206 0-1.1355-0.17639-1.5103-0.52916-0.37115-0.35646-0.55673-0.83234-0.55673-1.4276 0-0.69453 0.23151-1.2182 0.69453-1.571 0.4667-0.35277 1.1612-0.52916 2.0836-0.52917h1.4221v-0.0992c-0.00001-0.4667-0.15435-0.82682-0.46302-1.0804-0.30501-0.25723-0.73496-0.38584-1.2898-0.38585-0.35278 0.00001-0.69637 0.0423-1.0308 0.12678-0.33441 0.0845-0.65595 0.21131-0.96463 0.38034v-0.93707c0.37115-0.14331 0.73128-0.24988 1.0804-0.3197 0.3491-0.0735 0.68902-0.11024 1.0198-0.11025 0.89297 0.00001 1.5599 0.23152 2.0009 0.69454 0.44096 0.46302 0.66145 1.1649 0.66145 2.1056"/>
   <path id="path3084" style="" d="m132.66 294.72v3.7262h-1.0142v-3.6932c-0.00001-0.58428-0.11393-1.0216-0.34176-1.3119-0.22784-0.2903-0.56959-0.43545-1.0253-0.43546-0.54754 0.00001-0.97933 0.17456-1.2954 0.52365-0.31603 0.34911-0.47404 0.825-0.47404 1.4276v3.4892h-1.0198v-6.1736h1.0198v0.95912c0.24253-0.37115 0.52733-0.64859 0.85438-0.83234 0.33073-0.18373 0.71107-0.2756 1.141-0.27561 0.70923 0.00001 1.2457 0.2205 1.6096 0.66146 0.3638 0.43731 0.5457 1.0822 0.5457 1.9348"/>
  </g>
 </g>
 <g id="g42" transform="translate(-1 -6.0158)">
  <path id="polyline44" d="m-20 240h-28v30.264" stroke="#f00" stroke-width="2" fill="none"/>
  <path id="polygon46" fill="#f00" d="m-48 270.26 5-2.5-5 10-5-10z"/>
  <path id="polygon48" d="m-48 270.26 5-2.5-5 10-5-10z" stroke="#f00" stroke-width="2" fill="none"/>
 </g>
 <g id="g50" transform="translate(-1 -6.0158)">
  <path id="polyline52" d="m100 240h29.084v30.264" stroke="#f00" stroke-width="2" fill="none"/>
  <path id="polygon54" fill="#f00" d="m129.08 270.26 5-2.5-5 10-5-10z"/>
  <path id="polygon56" d="m129.08 270.26 5-2.5-5 10-5-10z" stroke="#f00" stroke-width="2" fill="none"/>
 </g>
 <g id="text58" fill="#f00">
  <path id="path3093" style="" d="m-47.794 222.98h1.15v7h-1.15v-7m0-2.725h1.15v1.4562h-1.15v-1.4562"/>
  <path id="path3095" style="" d="m-39.638 226.4c-0.000006-0.83333-0.17292-1.4792-0.51875-1.9375-0.34167-0.45833-0.82292-0.6875-1.4438-0.6875-0.61667 0-1.0979 0.22917-1.4438 0.6875-0.34167 0.45833-0.5125 1.1042-0.5125 1.9375-0.000002 0.82917 0.17083 1.4729 0.5125 1.9312 0.34583 0.45833 0.82708 0.6875 1.4438 0.6875 0.62083 0 1.1021-0.22917 1.4438-0.6875 0.34583-0.45833 0.51874-1.1021 0.51875-1.9312m1.15 2.7125c-0.000007 1.1917-0.26459 2.0771-0.79375 2.6562-0.52917 0.58333-1.3396 0.87499-2.4312 0.875-0.40417-0.00001-0.78542-0.0313-1.1438-0.0937-0.35834-0.0583-0.70625-0.15001-1.0438-0.275v-1.1188c0.3375 0.18333 0.67083 0.31875 1 0.40625 0.32916 0.0875 0.66458 0.13124 1.0062 0.13125 0.75416-0.00001 1.3187-0.19792 1.6938-0.59375 0.37499-0.39167 0.56249-0.98542 0.5625-1.7812v-0.56875c-0.23751 0.4125-0.54167 0.72083-0.9125 0.925-0.37084 0.20416-0.81459 0.30625-1.3312 0.30625-0.85834 0-1.55-0.32709-2.075-0.98125-0.525-0.65417-0.7875-1.5208-0.7875-2.6-0.000001-1.0833 0.2625-1.9521 0.7875-2.6062 0.525-0.65416 1.2167-0.98125 2.075-0.98125 0.51666 0 0.96041 0.10209 1.3312 0.30625 0.37083 0.20417 0.67499 0.5125 0.9125 0.925v-1.0625h1.15v6.1312"/>
  <path id="path3097" style="" d="m-30.131 226.2v0.5625h-5.2875c0.05 0.79167 0.2875 1.3958 0.7125 1.8125 0.42916 0.4125 1.025 0.61875 1.7875 0.61875 0.44166 0 0.86874-0.0542 1.2812-0.1625 0.41666-0.10834 0.82916-0.27084 1.2375-0.4875v1.0875c-0.41251 0.175-0.83542 0.30833-1.2688 0.4-0.43334 0.0917-0.87292 0.1375-1.3188 0.1375-1.1167 0-2.0021-0.325-2.6562-0.975-0.65-0.65-0.975-1.5292-0.975-2.6375-0.000001-1.1458 0.30833-2.0542 0.925-2.725 0.62083-0.675 1.4562-1.0125 2.5062-1.0125 0.94166 0 1.6854 0.30417 2.2312 0.9125 0.54999 0.60417 0.82499 1.4271 0.825 2.4688m-1.15-0.3375c-0.0083-0.62917-0.18542-1.1312-0.53125-1.5062-0.34167-0.375-0.79584-0.5625-1.3625-0.5625-0.64167 0-1.1563 0.18125-1.5438 0.54375-0.38334 0.3625-0.60417 0.87292-0.6625 1.5312l4.1-0.006"/>
  <path id="path3099" style="" d="m-22.425 225.76v4.225h-1.15v-4.1875c-0.000006-0.6625-0.12917-1.1583-0.3875-1.4875-0.25834-0.32916-0.64584-0.49375-1.1625-0.49375-0.62084 0-1.1104 0.19792-1.4688 0.59375-0.35834 0.39584-0.5375 0.93542-0.5375 1.6188v3.9562h-1.1562v-7h1.1562v1.0875c0.275-0.42083 0.59791-0.73541 0.96875-0.94375 0.375-0.20833 0.80625-0.3125 1.2938-0.3125 0.80416 0 1.4125 0.25 1.825 0.75 0.41249 0.49584 0.61874 1.2271 0.61875 2.1938"/>
 </g>
 <g id="text62" fill="#f00">
  <path id="path3102" style="" d="m107.55 225.76v4.225h-1.15v-4.1875c-0.00001-0.6625-0.12917-1.1583-0.3875-1.4875-0.25834-0.32916-0.64584-0.49375-1.1625-0.49375-0.62084 0-1.1104 0.19792-1.4688 0.59375-0.35834 0.39584-0.5375 0.93542-0.5375 1.6188v3.9562h-1.1562v-7h1.1562v1.0875c0.275-0.42083 0.59791-0.73541 0.96875-0.94375 0.375-0.20833 0.80625-0.3125 1.2938-0.3125 0.80416 0 1.4125 0.25 1.825 0.75 0.41249 0.49584 0.61874 1.2271 0.61875 2.1938"/>
  <path id="path3104" style="" d="m115.84 226.2v0.5625h-5.2875c0.05 0.79167 0.2875 1.3958 0.7125 1.8125 0.42916 0.4125 1.025 0.61875 1.7875 0.61875 0.44166 0 0.86874-0.0542 1.2812-0.1625 0.41666-0.10834 0.82916-0.27084 1.2375-0.4875v1.0875c-0.41251 0.175-0.83542 0.30833-1.2688 0.4-0.43334 0.0917-0.87292 0.1375-1.3188 0.1375-1.1167 0-2.0021-0.325-2.6562-0.975-0.65-0.65-0.975-1.5292-0.975-2.6375 0-1.1458 0.30833-2.0542 0.925-2.725 0.62083-0.675 1.4562-1.0125 2.5062-1.0125 0.94166 0 1.6854 0.30417 2.2312 0.9125 0.54999 0.60417 0.82499 1.4271 0.825 2.4688m-1.15-0.3375c-0.008-0.62917-0.18542-1.1312-0.53125-1.5062-0.34167-0.375-0.79584-0.5625-1.3625-0.5625-0.64167 0-1.1562 0.18125-1.5438 0.54375-0.38334 0.3625-0.60417 0.87292-0.6625 1.5312l4.1-0.006"/>
  <path id="path3106" style="" d="m123.18 224.33c0.28749-0.51666 0.63124-0.89791 1.0312-1.1438 0.39999-0.24583 0.87082-0.36875 1.4125-0.36875 0.72916 0 1.2917 0.25625 1.6875 0.76875 0.39582 0.50834 0.59374 1.2333 0.59375 2.175v4.225h-1.1562v-4.1875c-0.00001-0.67083-0.11876-1.1688-0.35625-1.4938-0.23751-0.325-0.60001-0.4875-1.0875-0.4875-0.59584 0-1.0667 0.19792-1.4125 0.59375-0.34584 0.39584-0.51876 0.93542-0.51875 1.6188v3.9562h-1.1562v-4.1875c-0.00001-0.675-0.11876-1.1729-0.35625-1.4938-0.23751-0.325-0.60417-0.4875-1.1-0.4875-0.5875 0-1.0542 0.2-1.4 0.6-0.34584 0.39584-0.51875 0.93333-0.51875 1.6125v3.9562h-1.1562v-7h1.1562v1.0875c0.2625-0.42916 0.57708-0.74583 0.94375-0.95 0.36666-0.20416 0.80208-0.30625 1.3062-0.30625 0.50833 0 0.93958 0.12917 1.2938 0.3875 0.35833 0.25834 0.62291 0.63334 0.79375 1.125"/>
 </g>
 <g id="g66" transform="translate(-1 -6.0158)">
  <path id="ellipse68" d="m42 330c0 1.1046-0.89543 2-2 2s-2-0.89543-2-2 0.89543-2 2-2 2 0.89543 2 2z"/>
  <path id="ellipse70" d="m42 330c0 1.1046-0.89543 2-2 2s-2-0.89543-2-2 0.89543-2 2-2 2 0.89543 2 2z" stroke="#000" stroke-width="2" fill="none"/>
 </g>
 <g id="g72" transform="translate(-1 -6.0158)">
  <path id="polyline74" d="m-48 310v20h76.264" stroke="#f00" stroke-width="2" fill="none"/>
  <path id="polygon76" fill="#f00" d="m28.264 330-2.5-5 10 5-10 5z"/>
  <path id="polygon78" d="m28.264 330-2.5-5 10 5-10 5z" stroke="#f00" stroke-width="2" fill="none"/>
 </g>
 <g id="g80" transform="translate(-1 -6.0158)">
  <path id="polyline82" d="m130 310v20h-78.264" stroke="#f00" stroke-width="2" fill="none"/>
  <path id="polygon84" fill="#f00" d="m51.736 330 2.5 5-10-5 10-5z"/>
  <path id="polygon86" d="m51.736 330 2.5 5-10-5 10-5z" stroke="#f00" stroke-width="2" fill="none"/>
 </g>
 <g id="g88" transform="translate(-1 -6.0158)">
  <path id="line90" d="m40 333v19.511" stroke="#000" stroke-width="2" fill="none"/>
  <path id="polygon92" d="m40 352.51 3.5-1.75-3.5 7-3.5-7z"/>
  <path id="polygon94" d="m40 352.51 3.5-1.75-3.5 7-3.5-7z" stroke="#000" stroke-width="2" fill="none"/>
 </g>
</svg>
