<?xml version="1.0" encoding="UTF-8" standalone="no"?>
<!-- Created with Inkscape (http://www.inkscape.org/) -->
<svg id="svg2" xmlns:rdf="http://www.w3.org/1999/02/22-rdf-syntax-ns#" xmlns="http://www.w3.org/2000/svg" height="423.37" width="186.14" version="1.1" xmlns:cc="http://creativecommons.org/ns#" xmlns:dc="http://purl.org/dc/elements/1.1/" viewBox="-12 108 90.180254 231.99999">
 <metadata id="metadata90">
  <rdf:RDF>
   <cc:Work rdf:about="">
    <dc:format>image/svg+xml</dc:format>
    <dc:type rdf:resource="http://purl.org/dc/dcmitype/StillImage"/>
   </cc:Work>
  </rdf:RDF>
 </metadata>
 <g id="g4" transform="translate(-6.9099 -1)">
  <path id="path6" d="m6.6667 110h66.667c9.204 0 16.666 6.72 16.666 15 0 8.284-7.4619 15-16.667 15h-66.666c-9.2051 0-16.667-6.72-16.667-15 0-8.284 7.4619-15 16.667-15z" fill="#fff"/>
  <path id="path8" d="m6.6667 110h66.667c9.204 0 16.666 6.72 16.666 15 0 8.284-7.4619 15-16.667 15h-66.666c-9.2051 0-16.667-6.72-16.667-15 0-8.284 7.4619-15 16.667-15" stroke="#000" stroke-width="2" fill="none"/>
  <g id="text10">
   <path id="path3024" style="" d="m28.623 120.57v1.0859c-0.4226-0.20211-0.82132-0.35277-1.1961-0.452-0.37483-0.0992-0.7368-0.14882-1.0859-0.14883-0.60634 0.00001-1.0749 0.1176-1.4056 0.35278-0.32706 0.23519-0.49058 0.5696-0.49058 1.0032-0.000002 0.36381 0.1084 0.63942 0.32522 0.82683 0.22048 0.18374 0.63573 0.33257 1.2457 0.44648l0.67248 0.13781c0.83049 0.15802 1.4423 0.4373 1.8355 0.83784 0.39687 0.39688 0.59531 0.92973 0.59531 1.5985-0.000006 0.79743-0.26826 1.4019-0.80478 1.8135-0.53285 0.41158-1.3156 0.61736-2.3482 0.61736-0.38953 0-0.80478-0.0441-1.2457-0.13229-0.4373-0.0882-0.89113-0.21865-1.3615-0.39136v-1.1465c0.452 0.25356 0.8948 0.44465 1.3284 0.57326 0.43362 0.12862 0.85989 0.19293 1.2788 0.19293 0.63573 0 1.1263-0.12494 1.4717-0.37483 0.34542-0.24988 0.51814-0.60633 0.51814-1.0694-0.000005-0.40422-0.12495-0.72025-0.37483-0.94809-0.24621-0.22783-0.65228-0.39871-1.2182-0.51263l-0.678-0.13229c-0.8305-0.16536-1.4313-0.42443-1.8025-0.77722-0.37115-0.35277-0.55673-0.84335-0.55673-1.4717-0.000001-0.7276 0.2554-1.3009 0.76619-1.7198 0.51447-0.41892 1.2219-0.62838 2.1222-0.62839 0.38585 0.00001 0.77905 0.0349 1.1796 0.10473 0.40054 0.0698 0.81028 0.17456 1.2292 0.31419"/>
   <path id="path3026" style="" d="m29.714 120.3h6.9619v0.93706h-2.9214v7.2926h-1.119v-7.2926h-2.9214v-0.93706"/>
   <path id="path3028" style="" d="m39.631 121.4-1.5103 4.0955h3.0262l-1.5158-4.0955m-0.62839-1.0969h1.2623l3.1364 8.2296h-1.1576l-0.74965-2.1112h-3.7097l-0.74965 2.1112h-1.1741l3.1419-8.2296"/>
   <path id="path3030" style="" d="m48.5 124.67c0.23886 0.0808 0.47036 0.25356 0.69453 0.51814 0.22783 0.26459 0.45567 0.62839 0.68351 1.0914l1.13 2.249h-1.1961l-1.0528-2.1112c-0.27194-0.55121-0.53652-0.91685-0.79375-1.0969-0.25356-0.18006-0.60083-0.27009-1.0418-0.27009h-1.2127v3.4782h-1.1135v-8.2296h2.5135c0.94074 0.00001 1.6426 0.19661 2.1056 0.5898 0.46302 0.39321 0.69452 0.98668 0.69453 1.7804-0.000007 0.51814-0.12127 0.94809-0.3638 1.2898-0.23887 0.34176-0.58797 0.57878-1.0473 0.71107m-2.7892-3.4561v2.9214h1.4001c0.53651 0 0.94074-0.1231 1.2127-0.36931 0.2756-0.24988 0.41341-0.61552 0.41341-1.0969-0.000005-0.48139-0.13781-0.84336-0.41341-1.0859-0.27194-0.2462-0.67616-0.36931-1.2127-0.36931h-1.4001"/>
   <path id="path3032" style="" d="m50.484 120.3h6.9619v0.93706h-2.9214v7.2926h-1.119v-7.2926h-2.9214v-0.93706"/>
  </g>
 </g>
 <g id="g14" transform="translate(-6.9099 -1)">
  <path id="path16" d="m6.6667 310h66.667c9.204 0 16.666 6.72 16.666 15 0 8.284-7.4619 15-16.667 15h-66.666c-9.2051 0-16.667-6.72-16.667-15 0-8.284 7.4619-15 16.667-15z" fill="#fff"/>
  <path id="path18" d="m6.6667 310h66.667c9.204 0 16.666 6.72 16.666 15 0 8.284-7.4619 15-16.667 15h-66.666c-9.2051 0-16.667-6.72-16.667-15 0-8.284 7.4619-15 16.667-15" stroke="#000" stroke-width="2" fill="none"/>
  <g id="text20">
   <path id="path3035" style="" d="m31.158 320.57v1.0859c-0.4226-0.2021-0.82132-0.35277-1.1961-0.45199-0.37483-0.0992-0.7368-0.14882-1.0859-0.14883-0.60634 0.00001-1.0749 0.1176-1.4056 0.35278-0.32706 0.23519-0.49058 0.56959-0.49058 1.0032-0.000002 0.36381 0.1084 0.63942 0.32522 0.82682 0.22048 0.18375 0.63573 0.33257 1.2457 0.44649l0.67248 0.1378c0.83049 0.15802 1.4423 0.4373 1.8355 0.83785 0.39687 0.39688 0.59531 0.92972 0.59531 1.5985-0.000006 0.79742-0.26826 1.4019-0.80478 1.8135-0.53285 0.41157-1.3156 0.61736-2.3482 0.61736-0.38953 0-0.80478-0.0441-1.2457-0.13229-0.4373-0.0882-0.89113-0.21865-1.3615-0.39137v-1.1465c0.452 0.25356 0.8948 0.44465 1.3284 0.57327 0.43362 0.12862 0.85989 0.19292 1.2788 0.19292 0.63573 0 1.1263-0.12494 1.4717-0.37482 0.34542-0.24989 0.51814-0.60634 0.51814-1.0694-0.000006-0.40422-0.12495-0.72025-0.37483-0.94809-0.24621-0.22784-0.65228-0.39871-1.2182-0.51263l-0.678-0.1323c-0.8305-0.16536-1.4313-0.42443-1.8025-0.77721-0.37115-0.35277-0.55673-0.84335-0.55673-1.4718-0.000001-0.72759 0.2554-1.3009 0.76619-1.7198 0.51447-0.41892 1.2219-0.62838 2.1222-0.62839 0.38585 0.00001 0.77905 0.0349 1.1796 0.10474 0.40054 0.0698 0.81028 0.17456 1.2292 0.31419"/>
   <path id="path3037" style="" d="m32.25 320.3h6.9619v0.93707h-2.9214v7.2926h-1.119v-7.2926h-2.9214v-0.93707"/>
   <path id="path3039" style="" d="m43.633 321.05c-0.80845 0.00001-1.4515 0.30134-1.9293 0.90399-0.47405 0.60267-0.71107 1.424-0.71107 2.4639-0.000001 1.0363 0.23702 1.8558 0.71107 2.4584 0.47772 0.60266 1.1208 0.90399 1.9293 0.90399 0.80844 0 1.4479-0.30133 1.9182-0.90399 0.47404-0.60266 0.71106-1.4221 0.71107-2.4584-0.000007-1.04-0.23703-1.8613-0.71107-2.4639-0.47038-0.60265-1.1098-0.90398-1.9182-0.90399m0-0.904c1.1539 0.00001 2.0762 0.3877 2.7671 1.1631 0.69085 0.77171 1.0363 1.808 1.0363 3.1089-0.000009 1.2972-0.34544 2.3335-1.0363 3.1088-0.69086 0.77171-1.6132 1.1576-2.7671 1.1576-1.1576 0-2.0836-0.38585-2.7781-1.1576-0.69086-0.7717-1.0363-1.808-1.0363-3.1088-0.000001-1.3009 0.34543-2.3372 1.0363-3.1089 0.69453-0.77537 1.6206-1.1631 2.7781-1.1631"/>
   <path id="path3041" style="" d="m50.291 321.21v3.0923h1.4001c0.51814 0.00001 0.91869-0.13412 1.2016-0.40239 0.28295-0.26825 0.42443-0.65043 0.42444-1.1465-0.000005-0.49242-0.14148-0.87276-0.42444-1.141-0.28296-0.26825-0.68351-0.40238-1.2016-0.40239h-1.4001m-1.1135-0.91502h2.5135c0.92236 0.00001 1.6187 0.20947 2.0891 0.62839 0.47404 0.41526 0.71106 1.0253 0.71107 1.83-0.000006 0.81212-0.23703 1.4258-0.71107 1.8411-0.47038 0.41525-1.1667 0.62287-2.0891 0.62287h-1.4001v3.3073h-1.1135v-8.2297"/>
  </g>
 </g>
 <g id="g24" transform="translate(-6.9099 -1)">
  <path id="line26" d="m40 140v12.514" stroke="#000" stroke-width="2" fill="none"/>
  <path id="polygon28" d="m40 152.51 3.5-1.75-3.5 7-3.5-7z"/>
  <path id="polygon30" d="m40 152.51 3.5-1.75-3.5 7-3.5-7z" stroke="#000" stroke-width="2" fill="none"/>
 </g>
 <g id="g32" transform="translate(-6.9099 -1)">
  <path id="line34" d="m40 191v9.514" stroke="#000" stroke-width="2" fill="none"/>
  <path id="polygon36" d="m40 200.51 3.5-1.75-3.5 7-3.5-7z"/>
  <path id="polygon38" d="m40 200.51 3.5-1.75-3.5 7-3.5-7z" stroke="#000" stroke-width="2" fill="none"/>
 </g>
 <g id="g40" transform="translate(-6.9099 -1)">
  <path id="polygon42" fill="#fff" d="m79.081 190h-89.081l10.919-30h89.081z"/>
  <path id="polygon44" d="m79.081 190h-89.081l10.919-30h89.081z" stroke="#000" stroke-width="2" fill="none"/>
  <g id="text46">
   <path id="path3052" style="" d="m27.217 174.51v3.0152h1.7859c0.59898 0 1.0418-0.1231 1.3284-0.36931 0.2903-0.24989 0.43546-0.63022 0.43546-1.141-0.000006-0.51446-0.14516-0.89297-0.43546-1.1355-0.28664-0.24621-0.72945-0.36931-1.3284-0.36932h-1.7859m0-3.3845v2.4805h1.6481c0.54386 0 0.94809-0.10105 1.2127-0.30317 0.26825-0.20578 0.40238-0.51814 0.40239-0.93707-0.000005-0.41524-0.13413-0.72576-0.40239-0.93155-0.26459-0.20578-0.66881-0.30868-1.2127-0.30868h-1.6481m-1.1135-0.91502h2.8443c0.84887 0.00001 1.503 0.17639 1.9623 0.52916 0.45934 0.35279 0.68901 0.8544 0.68902 1.5048-0.000007 0.50345-0.1176 0.904-0.35278 1.2016-0.23519 0.29767-0.58062 0.48324-1.0363 0.55673 0.54754 0.1176 0.97197 0.36381 1.2733 0.73863 0.305 0.37116 0.4575 0.83602 0.45751 1.3946-0.000007 0.73495-0.24989 1.3027-0.74965 1.7032-0.49978 0.40056-1.2108 0.60083-2.1332 0.60083h-2.9545v-8.2296"/>
   <path id="path3054" style="" d="m33.843 170.21h5.2035v0.93706h-4.09v2.4364h3.9191v0.93707h-3.9191v2.9821h4.1892v0.93707h-5.3027v-8.2296"/>
   <path id="path3056" style="" d="m41.202 177.04h1.1631v1.4001h-1.1631v-1.4001m0-4.4373h1.1631v1.4001h-1.1631v-1.4001"/>
   <path id="path3058" style="" d="m51.146 171.31-1.5103 4.0955h3.0262l-1.5158-4.0955m-0.62839-1.0969h1.2623l3.1364 8.2296h-1.1576l-0.74965-2.1112h-3.7097l-0.74965 2.1112h-1.1741l3.1419-8.2296"/>
  </g>
 </g>
 <g id="g50" transform="translate(-6.9099 -1)">
  <path id="rect52" fill="#fff" d="m-10 210h100v30h-100z"/>
  <path id="rect54" d="m-10 210h100v30h-100z" stroke="#000" stroke-width="2" fill="none"/>
  <g id="text56">
   <path id="path3063" style="" d="m25.757 221.31-1.5103 4.0955h3.0262l-1.5158-4.0955m-0.62839-1.0969h1.2623l3.1364 8.2296h-1.1576l-0.74965-2.1112h-3.7097l-0.74965 2.1112h-1.1741l3.1419-8.2296"/>
   <path id="path3065" style="" d="m30.811 223.32h7.0666v0.92605h-7.0666v-0.92605m0 2.249h7.0666v0.93707h-7.0666v-0.93707"/>
   <path id="path3067" style="" d="m42.932 221.31-1.5103 4.0955h3.0262l-1.5158-4.0955m-0.62839-1.0969h1.2623l3.1364 8.2296h-1.1576l-0.74965-2.1112h-3.7097l-0.74965 2.1112h-1.1741l3.1419-8.2296"/>
   <path id="path3069" style="" d="m47.998 223.82h1.1631v1.4001h-1.1631v-1.4001"/>
   <path id="path3071" style="" d="m54.243 221.31-1.5103 4.0955h3.0262l-1.5158-4.0955m-0.62839-1.0969h1.2623l3.1364 8.2296h-1.1576l-0.74965-2.1112h-3.7097l-0.74965 2.1112h-1.1741l3.1419-8.2296"/>
  </g>
 </g>
 <g id="g60" transform="translate(-6.9099 -1)">
  <path id="polygon62" fill="#fff" d="m79.081 290h-89.081l10.919-30h89.081z"/>
  <path id="polygon64" d="m79.081 290h-89.081l10.919-30h89.081z" stroke="#000" stroke-width="2" fill="none"/>
  <g id="text66">
   <path id="path3076" style="" d="m28.176 270.21h1.1135v3.4782l3.6931-3.4782h1.4332l-4.0845 3.8365 4.3767 4.3932h-1.4662l-3.9522-3.9632v3.9632h-1.1135v-8.2296"/>
   <path id="path3078" style="" d="m35.585 270.21h1.1135v8.2296h-1.1135v-8.2296"/>
   <path id="path3080" style="" d="m39.129 277.04h1.1631v1.4001h-1.1631v-1.4001m0-4.4373h1.1631v1.4001h-1.1631v-1.4001"/>
   <path id="path3082" style="" d="m49.073 271.31-1.5103 4.0955h3.0262l-1.5158-4.0955m-0.62839-1.0969h1.2623l3.1364 8.2296h-1.1576l-0.74965-2.1112h-3.7097l-0.74965 2.1112h-1.1741l3.1419-8.2296"/>
  </g>
 </g>
 <g id="g70" transform="translate(-6.9099 -1)">
  <path id="line72" d="m40 240v11.51" stroke="#000" stroke-width="2" fill="none"/>
  <path id="polygon74" d="m40 251.51 3.5-1.75-3.5 7-3.5-7z"/>
  <path id="polygon76" d="m40 251.51 3.5-1.75-3.5 7-3.5-7z" stroke="#000" stroke-width="2" fill="none"/>
 </g>
 <g id="g78" transform="translate(-6.9099 -1)">
  <path id="line80" d="m40 290v11.51" stroke="#000" stroke-width="2" fill="none"/>
  <path id="polygon82" d="m40 301.51 3.5-1.75-3.5 7-3.5-7z"/>
  <path id="polygon84" d="m40 301.51 3.5-1.75-3.5 7-3.5-7z" stroke="#000" stroke-width="2" fill="none"/>
 </g>
</svg>
