<?xml version="1.0" encoding="UTF-8" standalone="no"?>
<!-- Created with Inkscape (http://www.inkscape.org/) -->

<svg
   xmlns:dc="http://purl.org/dc/elements/1.1/"
   xmlns:cc="http://creativecommons.org/ns#"
   xmlns:rdf="http://www.w3.org/1999/02/22-rdf-syntax-ns#"
   xmlns:svg="http://www.w3.org/2000/svg"
   xmlns="http://www.w3.org/2000/svg"
   xmlns:sodipodi="http://sodipodi.sourceforge.net/DTD/sodipodi-0.dtd"
   xmlns:inkscape="http://www.inkscape.org/namespaces/inkscape"
   version="1.1"
   width="234.84496"
   height="523.83813"
   viewBox="-31 138 124.98225 289.76399"
   id="svg2"
   inkscape:version="0.48.4 r9939"
   sodipodi:docname="folyamatciklus.svg">
  <sodipodi:namedview
     pagecolor="#ffffff"
     bordercolor="#666666"
     borderopacity="1"
     objecttolerance="10"
     gridtolerance="10"
     guidetolerance="10"
     inkscape:pageopacity="0"
     inkscape:pageshadow="2"
     inkscape:window-width="640"
     inkscape:window-height="480"
     id="namedview66"
     showgrid="false"
     inkscape:zoom="0.44402965"
     inkscape:cx="115.77941"
     inkscape:cy="259.89798"
     inkscape:window-x="0"
     inkscape:window-y="25"
     inkscape:window-maximized="0"
     inkscape:current-layer="svg2" />
  <metadata
     id="metadata130">
    <rdf:RDF>
      <cc:Work
         rdf:about="">
        <dc:format>image/svg+xml</dc:format>
        <dc:type
           rdf:resource="http://purl.org/dc/dcmitype/StillImage" />
      </cc:Work>
    </rdf:RDF>
  </metadata>
  <defs
     id="defs128" />
  <g
     id="g4"
     transform="translate(-4.555975,-1)">
    <path
       style="fill:#ffffff"
       d="m 0,160 80,0 0,30 -80,0 z"
       id="rect6" />
    <path
       style="fill:none;stroke:#000000;stroke-width:2"
       d="m 0,160 80,0 0,30 -80,0 z"
       id="rect8" />
    <g
       style="font-size:13.54669952px;font-style:normal;font-weight:normal;text-anchor:middle;fill:#000000;font-family:sans-serif"
       id="text10">
      <path
         d="m 26.221789,169.2574 1.435369,0 2.454016,3.6711 2.467245,-3.6711 1.435369,0 -3.175008,4.74267 3.386675,5.13293 -1.435368,0 -2.778132,-4.20027 -2.797976,4.20027 -1.441982,0 3.525581,-5.27184 -3.075789,-4.60376"
         style=""
         id="path3046" />
      <path
         d="m 36.090772,172.98142 8.479916,0 0,1.11125 -8.479916,0 0,-1.11125 m 0,2.69875 8.479916,0 0,1.12449 -8.479916,0 0,-1.12449"
         style=""
         id="path3048" />
      <path
         d="m 47.686165,178.00851 2.182818,0 0,-7.53402 -2.374642,0.47625 0,-1.21709 2.361412,-0.47625 1.336149,0 0,8.75111 2.182818,0 0,1.12449 -5.688555,0 0,-1.12449"
         style=""
         id="path3050" />
    </g>
  </g>
  <g
     id="g14"
     transform="translate(-4.555975,-1)">
    <path
       style="fill:none;stroke:#000000;stroke-width:2"
       d="m 40,140 0,12.51401"
       id="line16" />
    <path
       style="fill:#000000"
       d="m 40,152.514 3.5,-1.75 -3.5,7 -3.5,-7 z"
       id="polygon18" />
    <path
       style="fill:none;stroke:#000000;stroke-width:2"
       d="m 40,152.514 3.5,-1.75 -3.5,7 -3.5,-7 z"
       id="polygon20" />
  </g>
  <path
     style="fill:none;stroke:#ff0000;stroke-width:2"
     d="m 95.444023,389 0,-180"
     id="line22" />
  <g
     style="font-size:13.54669952px;font-style:normal;font-weight:normal;text-anchor:start;fill:#ff0000;font-family:sans-serif"
     id="text24">
    <path
       d="m 48.720645,275.59165 1.217086,0 0,7.40835 -1.217086,0 0,-7.40835 m 0,-2.88397 1.217086,0 0,1.54121 -1.217086,0 0,-1.54121"
       style=""
       id="path3057" />
    <path
       d="m 57.352697,279.20983 c -6e-6,-0.88194 -0.18301,-1.56545 -0.549012,-2.05052 -0.361603,-0.48507 -0.870927,-0.7276 -1.527972,-0.72761 -0.652644,1e-5 -1.161968,0.24254 -1.527973,0.72761 -0.3616,0.48507 -0.542399,1.16858 -0.542397,2.05052 -2e-6,0.87754 0.180797,1.55885 0.542397,2.04392 0.366005,0.48507 0.875329,0.7276 1.527973,0.7276 0.657045,0 1.166369,-0.24253 1.527972,-0.7276 0.366002,-0.48507 0.549006,-1.16638 0.549012,-2.04392 m 1.217086,2.87074 c -7e-6,1.26118 -0.280025,2.19825 -0.840054,2.81121 -0.560042,0.61736 -1.417734,0.92604 -2.573079,0.92604 -0.427748,0 -0.831238,-0.0331 -1.210472,-0.0992 -0.379239,-0.0617 -0.747452,-0.15875 -1.104638,-0.29104 l 0,-1.18402 c 0.357186,0.19403 0.709965,0.33735 1.058336,0.42995 0.348366,0.0926 0.703349,0.13891 1.06495,0.13891 0.798158,0 1.395676,-0.20946 1.792557,-0.62839 0.39687,-0.41451 0.595308,-1.0429 0.595314,-1.88516 l 0,-0.60193 c -0.251361,0.43657 -0.573271,0.76289 -0.965732,0.97896 C 55.994494,282.89196 55.524858,283 54.978056,283 c -0.908408,0 -1.640423,-0.34616 -2.196047,-1.03849 -0.555628,-0.69233 -0.833441,-1.60955 -0.83344,-2.75168 -10e-7,-1.14652 0.277812,-2.06595 0.83344,-2.75828 0.555624,-0.69232 1.287639,-1.03849 2.196047,-1.0385 0.546802,10e-6 1.016438,0.10805 1.408909,0.32412 0.392461,0.21608 0.714371,0.5424 0.965732,0.97896 l 0,-1.12448 1.217086,0 0,6.48892"
       style=""
       id="path3059" />
    <path
       d="m 67.413502,278.99155 0,0.59532 -5.595951,0 c 0.05291,0.83785 0.304269,1.47726 0.754065,1.91823 0.454199,0.43657 1.08479,0.65485 1.891775,0.65485 0.467427,0 0.919424,-0.0573 1.355993,-0.17198 0.440967,-0.11466 0.87753,-0.28664 1.309691,-0.51594 l 0,1.15094 c -0.436571,0.18521 -0.884158,0.32632 -1.342764,0.42333 -0.458618,0.097 -0.923844,0.14552 -1.395681,0.14552 -1.181811,0 -2.118879,-0.34396 -2.811204,-1.03187 -0.68792,-0.68792 -1.031879,-1.61837 -1.031878,-2.79137 -10e-7,-1.21267 0.326319,-2.17399 0.978961,-2.88396 0.657048,-0.71437 1.541198,-1.07156 2.652454,-1.07157 0.996594,10e-6 1.783731,0.32192 2.361412,0.96574 0.582078,0.63941 0.87312,1.51033 0.873127,2.61276 m -1.217086,-0.35719 c -0.0088,-0.66586 -0.196239,-1.19723 -0.562241,-1.59411 -0.361604,-0.39687 -0.842264,-0.59531 -1.441983,-0.59532 -0.679102,10e-6 -1.223704,0.19183 -1.633806,0.57547 -0.405697,0.38365 -0.639413,0.92385 -0.701147,1.62058 l 4.339177,-0.007"
       style=""
       id="path3061" />
    <path
       d="m 75.569304,278.52853 0,4.47147 -1.217086,0 0,-4.43178 c -6e-6,-0.70114 -0.136708,-1.2259 -0.410105,-1.57428 -0.273409,-0.34836 -0.683514,-0.52254 -1.230315,-0.52255 -0.657055,1e-5 -1.175198,0.20947 -1.554431,0.62839 -0.37924,0.41893 -0.568858,0.98999 -0.568856,1.71318 l 0,4.18704 -1.223701,0 0,-7.40835 1.223701,0 0,1.15094 c 0.29104,-0.44538 0.632794,-0.77831 1.025263,-0.99881 0.396872,-0.22047 0.853279,-0.33072 1.369222,-0.33073 0.851073,10e-6 1.494893,0.2646 1.931463,0.79376 0.436556,0.52476 0.654838,1.29867 0.654845,2.32172"
       style=""
       id="path3063" />
  </g>
  <g
     style="font-size:13.54669952px;font-style:normal;font-weight:normal;text-anchor:end;fill:#ff0000;font-family:sans-serif"
     id="text28">
    <path
       d="m -27.25728,238.52853 0,4.47147 -1.217086,0 0,-4.43178 c -7e-6,-0.70114 -0.136708,-1.2259 -0.410105,-1.57428 -0.273409,-0.34836 -0.683514,-0.52254 -1.230316,-0.52255 -0.657054,10e-6 -1.175197,0.20947 -1.554431,0.62839 -0.379239,0.41893 -0.568858,0.98999 -0.568855,1.71318 l 0,4.18704 -1.223701,0 0,-7.40835 1.223701,0 0,1.15094 c 0.291039,-0.44538 0.632793,-0.77831 1.025263,-0.99881 0.396872,-0.22047 0.853279,-0.33072 1.369222,-0.33073 0.851072,1e-5 1.494893,0.2646 1.931463,0.79376 0.436556,0.52476 0.654838,1.29867 0.654845,2.32172"
       style=""
       id="path3066" />
    <path
       d="m -18.479707,238.99155 0,0.59532 -5.595951,0 c 0.05292,0.83785 0.304269,1.47726 0.754064,1.91823 0.4542,0.43657 1.084791,0.65485 1.891776,0.65485 0.467426,0 0.919424,-0.0573 1.355993,-0.17198 0.440967,-0.11466 0.87753,-0.28664 1.30969,-0.51594 l 0,1.15094 c -0.43657,0.18521 -0.884158,0.32632 -1.342763,0.42333 -0.458618,0.097 -0.923844,0.14552 -1.395681,0.14552 -1.181812,0 -2.118879,-0.34396 -2.811204,-1.03187 -0.68792,-0.68792 -1.031879,-1.61837 -1.031878,-2.79137 -1e-6,-1.21267 0.326319,-2.17399 0.978961,-2.88396 0.657048,-0.71437 1.541198,-1.07156 2.652454,-1.07157 0.996594,1e-5 1.783731,0.32192 2.361412,0.96574 0.582077,0.63941 0.87312,1.51033 0.873127,2.61276 m -1.217086,-0.35719 c -0.0088,-0.66586 -0.196239,-1.19723 -0.562241,-1.59411 -0.361604,-0.39687 -0.842264,-0.59531 -1.441983,-0.59532 -0.679102,1e-5 -1.223704,0.19183 -1.633806,0.57547 -0.405698,0.38365 -0.639413,0.92385 -0.701147,1.62058 l 4.339177,-0.007"
       style=""
       id="path3068" />
    <path
       d="m -10.714167,237.01379 c 0.304264,-0.5468 0.668067,-0.95029 1.0914089,-1.21047 0.4233258,-0.26017 0.9216251,-0.39026 1.4948995,-0.39027 0.7716928,1e-5 1.3670062,0.27121 1.7859418,0.8136 0.4189128,0.53799 0.6283749,1.30529 0.6283869,2.30188 l 0,4.47147 -1.2237008,0 0,-4.43178 c -1.09e-5,-0.70996 -0.1256881,-1.23693 -0.3770322,-1.58089 -0.251365,-0.34395 -0.6350114,-0.51593 -1.1509403,-0.51594 -0.6306005,10e-6 -1.1288998,0.20947 -1.4948995,0.62839 -0.3660153,0.41893 -0.5490193,0.98999 -0.5490113,1.71318 l 0,4.18704 -1.223701,0 0,-4.43178 c -6e-6,-0.71437 -0.125684,-1.24134 -0.377032,-1.58089 -0.251361,-0.34395 -0.639417,-0.51593 -1.16417,-0.51594 -0.621776,10e-6 -1.115666,0.21167 -1.48167,0.635 -0.366011,0.41893 -0.549014,0.98779 -0.549012,1.70657 l 0,4.18704 -1.223701,0 0,-7.40835 1.223701,0 0,1.15094 c 0.27781,-0.4542 0.610745,-0.78934 0.998805,-1.00542 0.388052,-0.21607 0.848869,-0.32411 1.382451,-0.32412 0.537982,1e-5 0.994389,0.13671 1.369222,0.41011 0.37923,0.27341 0.659248,0.67029 0.840054,1.19063"
       style=""
       id="path3070" />
  </g>
  <g
     id="g32"
     transform="translate(-4.555975,-1)">
    <path
       style="fill:#ffffff"
       d="M 40.3,271.378 -2.15834,250.149 40.3,228.92 82.7583,250.149 z"
       id="polygon34" />
    <path
       style="fill:none;stroke:#ff0000;stroke-width:2"
       d="M 40.3,271.378 -2.15834,250.149 40.3,228.92 82.7583,250.149 z"
       id="polygon36" />
    <g
       style="font-size:13.54669952px;font-style:normal;font-weight:normal;text-anchor:middle;fill:#ff0000;font-family:sans-serif"
       id="text38">
      <path
         d="m 18.610728,244.40741 1.435368,0 2.454016,3.6711 2.467246,-3.6711 1.435368,0 -3.175008,4.74267 3.386675,5.13292 -1.435368,0 -2.778132,-4.20027 -2.797975,4.20027 -1.441983,0 3.525582,-5.27183 -3.075789,-4.60376"
         style=""
         id="path3075" />
      <path
         d="m 36.959627,247.56257 -6.350016,1.83225 6.350016,1.8124 0,1.17739 -8.479917,-2.43417 0,-1.12448 8.479917,-2.42756 0,1.16417 m -8.479917,5.59595 8.479917,0 0,1.12448 -8.479917,0 0,-1.12448"
         style=""
         id="path3077" />
      <path
         d="m 40.075103,253.15852 2.182818,0 0,-7.53403 -2.374641,0.47626 0,-1.21709 2.361412,-0.47625 1.336149,0 0,8.75111 2.182818,0 0,1.12448 -5.688556,0 0,-1.12448"
         style=""
         id="path3079" />
      <path
         d="m 51.326538,245.28715 c -0.687922,1e-5 -1.206065,0.33956 -1.554431,1.01865 -0.343962,0.67469 -0.515941,1.69114 -0.515939,3.04933 -2e-6,1.35379 0.171977,2.37023 0.515939,3.04933 0.348366,0.67469 0.866509,1.01203 1.554431,1.01203 0.692323,0 1.210466,-0.33734 1.554431,-1.01203 0.348362,-0.6791 0.522547,-1.69554 0.522553,-3.04933 -6e-6,-1.35819 -0.174191,-2.37464 -0.522553,-3.04933 -0.343965,-0.67909 -0.862108,-1.01864 -1.554431,-1.01865 m 0,-1.05834 c 1.106837,1e-5 1.9513,0.43878 2.533391,1.31631 0.586487,0.87313 0.879734,2.14314 0.879742,3.81001 -8e-6,1.66247 -0.293255,2.93247 -0.879742,3.81001 -0.582091,0.87312 -1.426554,1.30969 -2.533391,1.30969 -1.106846,0 -1.953514,-0.43657 -2.540006,-1.30969 -0.582086,-0.87754 -0.873128,-2.14754 -0.873127,-3.81001 -10e-7,-1.66687 0.291041,-2.93688 0.873127,-3.81001 0.586492,-0.87753 1.43316,-1.3163 2.540006,-1.31631"
         style=""
         id="path3081" />
      <path
         d="m 58.232181,252.6029 1.342763,0 0,1.6801 -1.342763,0 0,-1.6801 m 1.303076,-0.97235 -1.263389,0 0,-1.01865 c -2e-6,-0.44538 0.06173,-0.81138 0.185209,-1.09802 0.12347,-0.28663 0.383644,-0.61956 0.780523,-0.99881 l 0.595314,-0.5887 c 0.25135,-0.2337 0.432149,-0.45419 0.542397,-0.66146 0.114648,-0.20725 0.171975,-0.41891 0.171979,-0.635 -4e-6,-0.39245 -0.145526,-0.70996 -0.436563,-0.9525 -0.286637,-0.24253 -0.668078,-0.36379 -1.144326,-0.3638 -0.348372,10e-6 -0.720994,0.0772 -1.117867,0.23151 -0.392468,0.15435 -0.802573,0.37924 -1.230316,0.67469 l 0,-1.24355 c 0.414514,-0.25134 0.833438,-0.43876 1.256774,-0.56224 0.427742,-0.12346 0.868715,-0.1852 1.32292,-0.18521 0.811387,1e-5 1.461822,0.21389 1.951307,0.64162 0.493884,0.42775 0.740829,0.9922 0.740835,1.69334 -6e-6,0.33514 -0.07938,0.65485 -0.238125,0.95911 -0.158757,0.29987 -0.43657,0.63942 -0.83344,1.01865 l -0.582085,0.56886 c -0.207262,0.20726 -0.354987,0.37042 -0.443178,0.48948 -0.08379,0.11466 -0.14332,0.2271 -0.178594,0.33734 -0.02646,0.0926 -0.04631,0.20506 -0.05953,0.33735 -0.01323,0.13229 -0.01985,0.31309 -0.01984,0.54239 l 0,0.8136"
         style=""
         id="path3083" />
    </g>
  </g>
  <g
     id="g42"
     transform="translate(-4.555975,-1)">
    <path
       style="fill:#000000"
       d="m 42,210 c 0,1.10457 -0.895431,2 -2,2 -1.104569,0 -2,-0.89543 -2,-2 0,-1.10457 0.895431,-2 2,-2 1.104569,0 2,0.89543 2,2 z"
       id="ellipse44" />
    <path
       style="fill:none;stroke:#000000;stroke-width:2"
       d="m 42,210 c 0,1.10457 -0.895431,2 -2,2 -1.104569,0 -2,-0.89543 -2,-2 0,-1.10457 0.895431,-2 2,-2 1.104569,0 2,0.89543 2,2 z"
       id="ellipse46" />
  </g>
  <g
     id="g48"
     transform="translate(-4.555975,-1)">
    <path
       style="fill:none;stroke:#000000;stroke-width:2"
       d="m 40,190 0,10.51401"
       id="line50" />
    <path
       style="fill:#000000"
       d="m 40,200.514 3.5,-1.75 -3.5,7 -3.5,-7 z"
       id="polygon52" />
    <path
       style="fill:none;stroke:#000000;stroke-width:2"
       d="m 40,200.514 3.5,-1.75 -3.5,7 -3.5,-7 z"
       id="polygon54" />
  </g>
  <g
     id="g56"
     transform="translate(-4.555975,-1)">
    <path
       style="fill:none;stroke:#ff0000;stroke-width:2"
       d="m 40.0476,213.002 0.133701,8.433"
       id="line58" />
    <path
       style="fill:#ff0000"
       d="m 40.1813,221.435 3.4718,-1.805 -3.3886,7.054 -3.6105,-6.943 z"
       id="polygon60" />
    <path
       style="fill:none;stroke:#ff0000;stroke-width:2"
       d="m 40.1813,221.435 3.4718,-1.805 -3.3886,7.054 -3.6105,-6.943 z"
       id="polygon62" />
  </g>
  <g
     id="g64"
     transform="translate(-4.555975,-1)">
    <path
       style="fill:#ffffff"
       d="M 69.0809,320 0,320 10.9191,290 80,290 z"
       id="polygon66" />
    <path
       style="fill:none;stroke:#000000;stroke-width:2"
       d="M 69.0809,320 0,320 10.9191,290 80,290 z"
       id="polygon68" />
    <g
       style="font-size:13.54669952px;font-style:normal;font-weight:normal;text-anchor:middle;fill:#000000;font-family:sans-serif"
       id="text70">
      <path
         d="m 25.798455,299.2574 1.336149,0 0,4.17381 4.431782,-4.17381 1.719796,0 -4.901419,4.60376 5.251992,5.27184 -1.759483,0 -4.742668,-4.7559 0,4.7559 -1.336149,0 0,-9.8756"
         style=""
         id="path3096" />
      <path
         d="m 34.688476,299.2574 1.33615,0 0,9.8756 -1.33615,0 0,-9.8756"
         style=""
         id="path3098" />
      <path
         d="m 38.941664,307.45289 1.395681,0 0,1.68011 -1.395681,0 0,-1.68011 m 0,-5.32476 1.395681,0 0,1.68011 -1.395681,0 0,-1.68011"
         style=""
         id="path3100" />
      <path
         d="m 47.097465,299.2574 1.435368,0 2.454016,3.6711 2.467246,-3.6711 1.435368,0 -3.175008,4.74267 3.386675,5.13293 -1.435368,0 -2.778132,-4.20027 -2.797975,4.20027 -1.441983,0 3.525582,-5.27184 -3.075789,-4.60376"
         style=""
         id="path3102" />
    </g>
  </g>
  <g
     id="g74"
     transform="translate(-4.555975,-1)">
    <path
       style="fill:#ffffff"
       d="m 0,340 80,0 0,30 -80,0 z"
       id="rect76" />
    <path
       style="fill:none;stroke:#000000;stroke-width:2"
       d="m 0,340 80,0 0,30 -80,0 z"
       id="rect78" />
    <g
       style="font-size:13.54669952px;font-style:normal;font-weight:normal;text-anchor:middle;fill:#000000;font-family:sans-serif"
       id="text80">
      <path
         d="m 15.903014,349.2574 1.435369,0 2.454016,3.6711 2.467245,-3.6711 1.435369,0 -3.175008,4.74267 3.386675,5.13293 -1.435368,0 -2.778132,-4.20027 -2.797976,4.20027 -1.441982,0 3.525581,-5.27184 -3.075789,-4.60376"
         style=""
         id="path3107" />
      <path
         d="m 25.771997,352.98142 8.479916,0 0,1.11125 -8.479916,0 0,-1.11125 m 0,2.69875 8.479916,0 0,1.12449 -8.479916,0 0,-1.12449"
         style=""
         id="path3109" />
      <path
         d="m 36.540565,349.2574 1.435368,0 2.454016,3.6711 2.467246,-3.6711 1.435368,0 -3.175008,4.74267 3.386675,5.13293 -1.435368,0 -2.778132,-4.20027 -2.797975,4.20027 -1.441983,0 3.525582,-5.27184 -3.075789,-4.60376"
         style=""
         id="path3111" />
      <path
         d="m 51.205132,350.63985 0,3.68433 3.684332,0 0,1.12448 -3.684332,0 0,3.68434 -1.111253,0 0,-3.68434 -3.684332,0 0,-1.12448 3.684332,0 0,-3.68433 1.111253,0"
         style=""
         id="path3113" />
      <path
         d="m 58.00494,358.00851 2.182818,0 0,-7.53402 -2.374641,0.47625 0,-1.21709 2.361412,-0.47625 1.336149,0 0,8.75111 2.182818,0 0,1.12449 -5.688556,0 0,-1.12449"
         style=""
         id="path3115" />
    </g>
  </g>
  <g
     id="g84"
     transform="translate(-4.555975,-1)">
    <path
       style="fill:none;stroke:#ff0000;stroke-width:2"
       d="m 40.299999,271.38 0,11.13401"
       id="line86" />
    <path
       style="fill:#ff0000"
       d="m 40.3,282.514 3.5,-1.75 -3.5,7 -3.5,-7 z"
       id="polygon88" />
    <path
       style="fill:none;stroke:#ff0000;stroke-width:2"
       d="m 40.3,282.514 3.5,-1.75 -3.5,7 -3.5,-7 z"
       id="polygon90" />
  </g>
  <g
     id="g92"
     transform="translate(-4.555975,-1)">
    <path
       style="fill:none;stroke:#000000;stroke-width:2"
       d="m 40,320 0,12.51401"
       id="line94" />
    <path
       style="fill:#000000"
       d="m 40,332.514 3.5,-1.75 -3.5,7 -3.5,-7 z"
       id="polygon96" />
    <path
       style="fill:none;stroke:#000000;stroke-width:2"
       d="m 40,332.514 3.5,-1.75 -3.5,7 -3.5,-7 z"
       id="polygon98" />
  </g>
  <path
     style="fill:none;stroke:#ff0000;stroke-width:2"
     d="m 35.444027,369 0.299999,20"
     id="line100" />
  <path
     style="fill:none;stroke:#ff0000;stroke-width:2"
     d="m 35.444027,389 59.999996,0"
     id="line102" />
  <g
     id="g104"
     transform="translate(-4.555975,-1)">
    <path
       style="fill:none;stroke:#ff0000;stroke-width:2"
       d="m 100,210 -49.511002,0"
       id="line106" />
    <path
       style="fill:#ff0000"
       d="m 50.489,210 1.75,3.5 -7,-3.5 7,-3.5 z"
       id="polygon108" />
    <path
       style="fill:none;stroke:#ff0000;stroke-width:2"
       d="m 50.489,210 1.75,3.5 -7,-3.5 7,-3.5 z"
       id="polygon110" />
  </g>
  <path
     style="fill:none;stroke:#ff0000;stroke-width:2"
     d="m -24.555975,249 17.8416601,0.14999"
     id="line112" />
  <path
     style="fill:none;stroke:#ff0000;stroke-width:2"
     d="m -24.555975,409 0,-160"
     id="line114" />
  <path
     style="fill:none;stroke:#ff0000;stroke-width:2"
     d="m -24.555975,409 60.000002,0"
     id="line116" />
  <g
     id="g118"
     transform="translate(-4.555975,-1)">
    <path
       style="fill:none;stroke:#ff0000;stroke-width:2"
       d="m 40.299999,410.29999 -0.186001,12.21502"
       id="line120" />
    <path
       style="fill:#ff0000"
       d="m 40.114,422.515 3.5262,-1.697 -3.6062,6.946 -3.393,-7.052 z"
       id="polygon122" />
    <path
       style="fill:none;stroke:#ff0000;stroke-width:2"
       d="m 40.114,422.515 3.5262,-1.697 -3.6062,6.946 -3.393,-7.052 z"
       id="polygon124" />
  </g>
</svg>
