<?xml version="1.0" encoding="UTF-8" standalone="no"?>
<!-- Created with Inkscape (http://www.inkscape.org/) -->
<svg id="svg2" xmlns:rdf="http://www.w3.org/1999/02/22-rdf-syntax-ns#" xmlns="http://www.w3.org/2000/svg" height="523.84" width="226.14" version="1.1" xmlns:cc="http://creativecommons.org/ns#" xmlns:dc="http://purl.org/dc/elements/1.1/" viewBox="-26 138 115.78858 289.76399">
 <metadata id="metadata130">
  <rdf:RDF>
   <cc:Work rdf:about="">
    <dc:format>image/svg+xml</dc:format>
    <dc:type rdf:resource="http://purl.org/dc/dcmitype/StillImage"/>
   </cc:Work>
  </rdf:RDF>
 </metadata>
 <g id="g4" transform="translate(-6.5616 -1)">
  <path id="rect6" fill="#fff" d="m0 160h80v30h-80z"/>
  <path id="rect8" d="m0 160h80v30h-80z" stroke="#000" stroke-width="2" fill="none"/>
  <g id="text10">
   <path id="path3046" style="" d="m28.518 170.21h1.1961l2.045 3.0592 2.056-3.0592h1.1961l-2.6458 3.9522 2.8222 4.2774h-1.1961l-2.3151-3.5002-2.3316 3.5002h-1.2017l2.938-4.3932-2.5632-3.8365"/>
   <path id="path3048" style="" d="m36.742 173.32h7.0666v0.92605h-7.0666v-0.92605m0 2.249h7.0666v0.93707h-7.0666v-0.93707"/>
   <path id="path3050" style="" d="m46.405 177.51h1.819v-6.2784l-1.9789 0.39688v-1.0142l1.9678-0.39687h1.1135v7.2926h1.819v0.93707h-4.7405v-0.93707"/>
  </g>
 </g>
 <g id="g14" transform="translate(-6.5616 -1)">
  <path id="line16" d="m40 140v12.514" stroke="#000" stroke-width="2" fill="none"/>
  <path id="polygon18" d="m40 152.51 3.5-1.75-3.5 7-3.5-7z"/>
  <path id="polygon20" d="m40 152.51 3.5-1.75-3.5 7-3.5-7z" stroke="#000" stroke-width="2" fill="none"/>
 </g>
 <path id="line22" d="m93.438 389v-180" stroke="#000" stroke-width="2" fill="none"/>
 <g id="text24">
  <path id="path3057" style="" d="m46.502 276.83h1.0142v6.1736h-1.0142v-6.1736m0-2.4033h1.0142v1.2843h-1.0142v-1.2843"/>
  <path id="path3059" style="" d="m53.696 279.84c-0.000005-0.73495-0.15251-1.3045-0.45751-1.7088-0.30134-0.40422-0.72577-0.60633-1.2733-0.60633-0.54387 0-0.9683 0.20211-1.2733 0.60633-0.30133 0.40423-0.452 0.97382-0.452 1.7088-0.000002 0.73129 0.15066 1.299 0.452 1.7033 0.305 0.40423 0.72944 0.60634 1.2733 0.60634 0.54754 0 0.97197-0.20211 1.2733-0.60634 0.305-0.40422 0.4575-0.97197 0.45751-1.7033m1.0142 2.3923c-0.000006 1.051-0.23335 1.8319-0.70004 2.3427-0.4667 0.51446-1.1814 0.7717-2.1442 0.7717-0.35646 0-0.6927-0.0276-1.0087-0.0827-0.31603-0.0514-0.62288-0.1323-0.92053-0.24254v-0.98667c0.29766 0.16168 0.59164 0.28111 0.88194 0.35829 0.2903 0.0772 0.58612 0.11575 0.88746 0.11575 0.66513 0 1.1631-0.17455 1.4938-0.52365 0.33072-0.34543 0.49609-0.86909 0.49609-1.571v-0.50161c-0.20947 0.36381-0.47772 0.63574-0.80478 0.8158-0.32706 0.18007-0.71842 0.2701-1.1741 0.2701-0.757 0-1.367-0.28847-1.83-0.86541-0.46302-0.57694-0.69453-1.3413-0.69453-2.2931 0-0.95543 0.23151-1.7216 0.69453-2.2986 0.46302-0.57693 1.073-0.8654 1.83-0.86541 0.45567 0.00001 0.84703 0.09 1.1741 0.2701 0.32705 0.18007 0.59531 0.452 0.80478 0.8158v-0.93707h1.0142v5.4074"/>
  <path id="path3061" style="" d="m62.08 279.66v0.4961h-4.6633c0.04409 0.69821 0.25356 1.231 0.62839 1.5985 0.3785 0.36381 0.90399 0.54571 1.5765 0.54571 0.38952 0 0.76619-0.0478 1.13-0.14332 0.36747-0.0955 0.73127-0.23886 1.0914-0.42995v0.95912c-0.36381 0.15434-0.7368 0.27193-1.119 0.35278-0.38218 0.0808-0.76987 0.12126-1.1631 0.12126-0.98484 0-1.7657-0.28663-2.3427-0.85989-0.57326-0.57327-0.8599-1.3486-0.8599-2.3261 0-1.0106 0.27193-1.8117 0.8158-2.4033 0.54754-0.5953 1.2843-0.89296 2.2104-0.89297 0.8305 0.00001 1.4864 0.26827 1.9678 0.80478 0.48506 0.53285 0.7276 1.2586 0.7276 2.1773m-1.0142-0.29765c-0.0074-0.55489-0.16353-0.9977-0.46853-1.3284-0.30134-0.33073-0.70188-0.49609-1.2016-0.4961-0.56592 0.00001-1.0198 0.15986-1.3615 0.47956-0.33808 0.31971-0.53284 0.76987-0.58429 1.3505l3.616-0.006"/>
  <path id="path3063" style="" d="m68.876 279.27v3.7262h-1.0142v-3.6932c-0.000006-0.58428-0.11392-1.0216-0.34175-1.3119-0.22784-0.2903-0.56959-0.43545-1.0253-0.43546-0.54754 0.00001-0.97933 0.17456-1.2954 0.52365-0.31603 0.34911-0.47405 0.825-0.47404 1.4276v3.4892h-1.0198v-6.1736h1.0198v0.95912c0.24253-0.37115 0.52733-0.64859 0.85438-0.83234 0.33073-0.18373 0.71106-0.2756 1.141-0.27561 0.70923 0.00001 1.2457 0.2205 1.6096 0.66146 0.3638 0.43731 0.5457 1.0822 0.5457 1.9348"/>
 </g>
 <g id="text28">
  <path id="path3066" style="" d="m-25.479 239.27v3.7262h-1.0142v-3.6932c-0.000005-0.58428-0.11392-1.0216-0.34175-1.3119-0.22784-0.2903-0.56959-0.43545-1.0253-0.43546-0.54754 0.00001-0.97933 0.17456-1.2954 0.52365-0.31603 0.34911-0.47405 0.825-0.47404 1.4276v3.4892h-1.0198v-6.1736h1.0198v0.95912c0.24253-0.37115 0.52733-0.64859 0.85438-0.83234 0.33073-0.18373 0.71106-0.2756 1.141-0.27561 0.70923 0.00001 1.2457 0.2205 1.6096 0.66146 0.3638 0.43731 0.5457 1.0822 0.5457 1.9348"/>
  <path id="path3068" style="" d="m-18.165 239.66v0.4961h-4.6633c0.0441 0.69821 0.25356 1.231 0.62839 1.5985 0.3785 0.36381 0.90399 0.54571 1.5765 0.54571 0.38952 0 0.76618-0.0478 1.13-0.14332 0.36747-0.0955 0.73127-0.23886 1.0914-0.42995v0.95912c-0.36381 0.15434-0.7368 0.27193-1.119 0.35278-0.38218 0.0808-0.76987 0.12126-1.1631 0.12126-0.98484 0-1.7657-0.28663-2.3427-0.85989-0.57326-0.57327-0.8599-1.3486-0.8599-2.3261-0.000001-1.0106 0.27193-1.8117 0.8158-2.4033 0.54754-0.5953 1.2843-0.89296 2.2104-0.89297 0.83049 0.00001 1.4864 0.26827 1.9678 0.80478 0.48506 0.53285 0.7276 1.2586 0.7276 2.1773m-1.0142-0.29765c-0.0074-0.55489-0.16353-0.9977-0.46853-1.3284-0.30134-0.33073-0.70189-0.49609-1.2017-0.4961-0.56592 0.00001-1.0198 0.15986-1.3615 0.47956-0.33808 0.31971-0.53284 0.76987-0.58429 1.3505l3.616-0.006"/>
  <path id="path3070" style="" d="m-11.693 238.01c0.25355-0.45567 0.55672-0.79191 0.90951-1.0087 0.35277-0.2168 0.76802-0.32521 1.2457-0.32522 0.64308 0.00001 1.1392 0.22601 1.4883 0.678 0.34909 0.44833 0.52365 1.0877 0.52366 1.9182v3.7262h-1.0197v-3.6932c-0.000009-0.59163-0.10474-1.0308-0.31419-1.3174-0.20947-0.28663-0.52918-0.42994-0.95912-0.42995-0.5255 0.00001-0.94075 0.17456-1.2457 0.52365-0.30501 0.34911-0.45752 0.825-0.45751 1.4276v3.4892h-1.0198v-3.6932c-0.000005-0.5953-0.10474-1.0344-0.31419-1.3174-0.20947-0.28663-0.53285-0.42994-0.97014-0.42995-0.51815 0.00001-0.92972 0.17639-1.2347 0.52917-0.30501 0.3491-0.45751 0.82315-0.45751 1.4221v3.4892h-1.0198v-6.1736h1.0198v0.95912c0.23151-0.3785 0.50895-0.65778 0.83234-0.83785 0.32338-0.18006 0.70739-0.27009 1.152-0.2701 0.44832 0.00001 0.82866 0.11393 1.141 0.34176 0.31602 0.22784 0.54937 0.55857 0.70004 0.99219"/>
 </g>
 <g id="g32" transform="translate(-6.5616 -1)">
  <path id="polygon34" fill="#fff" d="m40.3 271.1-41.911-20.95 41.911-20.96 41.911 20.96z"/>
  <path id="polygon36" d="m40.3 271.1-41.911-20.95 41.911-20.96 41.911 20.96z" stroke="#000" stroke-width="2" fill="none"/>
  <g id="text38">
   <path id="path3075" style="" d="m22.226 245.36h1.1961l2.045 3.0592 2.056-3.0592h1.1961l-2.6458 3.9522 2.8222 4.2774h-1.1961l-2.3151-3.5002-2.3316 3.5002h-1.2017l2.938-4.3932-2.5632-3.8365"/>
   <path id="path3077" style="" d="m37.516 247.99-5.2917 1.5269 5.2917 1.5103v0.98116l-7.0666-2.0285v-0.93707l7.0666-2.023v0.97014m-7.0666 4.6633h7.0666v0.93706h-7.0666v-0.93706"/>
   <path id="path3079" style="" d="m40.113 252.66h1.819v-6.2784l-1.9789 0.39687v-1.0142l1.9678-0.39688h1.1135v7.2926h1.819v0.93706h-4.7405v-0.93706"/>
   <path id="path3081" style="" d="m49.489 246.1c-0.57327 0.00001-1.0051 0.28296-1.2954 0.84887-0.28663 0.56225-0.42995 1.4093-0.42995 2.5411-0.000002 1.1282 0.14331 1.9752 0.42995 2.5411 0.2903 0.56224 0.72209 0.84336 1.2954 0.84336 0.57694 0 1.0087-0.28112 1.2954-0.84336 0.2903-0.56591 0.43546-1.413 0.43546-2.5411-0.000005-1.1318-0.14516-1.9789-0.43546-2.5411-0.28664-0.56591-0.71842-0.84886-1.2954-0.84887m0-0.88195c0.92236 0.00001 1.6261 0.36565 2.1112 1.0969 0.48874 0.72761 0.73311 1.786 0.73312 3.175-0.000006 1.3854-0.24438 2.4437-0.73312 3.175-0.48508 0.7276-1.1888 1.0914-2.1112 1.0914-0.92237 0-1.6279-0.36381-2.1167-1.0914-0.48507-0.73128-0.72761-1.7896-0.7276-3.175-0.000001-1.3891 0.24253-2.4474 0.7276-3.175 0.48874-0.73127 1.1943-1.0969 2.1167-1.0969"/>
   <path id="path3083" style="" d="m55.243 252.19h1.119v1.4001h-1.119v-1.4001m1.0859-0.81029h-1.0528v-0.84887c-0.000002-0.37115 0.05144-0.67616 0.15434-0.91502 0.10289-0.23886 0.3197-0.5163 0.65044-0.83234l0.49609-0.49058c0.20946-0.19476 0.36012-0.3785 0.452-0.55122 0.09554-0.1727 0.14331-0.34909 0.14332-0.52916-0.000004-0.32705-0.12127-0.59163-0.3638-0.79375-0.23886-0.20211-0.55673-0.30317-0.9536-0.30317-0.29031 0-0.60083 0.0643-0.93156 0.19292-0.32706 0.12863-0.66881 0.31604-1.0253 0.56224v-1.0363c0.34543-0.20946 0.69453-0.36563 1.0473-0.46854 0.35645-0.10288 0.72393-0.15433 1.1024-0.15434 0.67616 0.00001 1.2182 0.17824 1.6261 0.53468 0.41157 0.35646 0.61736 0.82683 0.61736 1.4111-0.000006 0.27928-0.06615 0.5457-0.19844 0.79926-0.1323 0.24989-0.36381 0.53285-0.69453 0.84887l-0.48507 0.47405c-0.17272 0.17271-0.29582 0.30868-0.36932 0.4079-0.06982 0.0955-0.11943 0.18925-0.14883 0.28112-0.02205 0.0772-0.03859 0.17088-0.04961 0.28112-0.01103 0.11024-0.01654 0.26091-0.01654 0.45199v0.678"/>
  </g>
 </g>
 <g id="g42" transform="translate(-6.5616 -1)">
  <path id="ellipse44" d="m42 210c0 1.1046-0.89543 2-2 2s-2-0.89543-2-2 0.89543-2 2-2 2 0.89543 2 2z"/>
  <path id="ellipse46" d="m42 210c0 1.1046-0.89543 2-2 2s-2-0.89543-2-2 0.89543-2 2-2 2 0.89543 2 2z" stroke="#000" stroke-width="2" fill="none"/>
 </g>
 <g id="g48" transform="translate(-6.5616 -1)">
  <path id="line50" d="m40 190v10.514" stroke="#000" stroke-width="2" fill="none"/>
  <path id="polygon52" d="m40 200.51 3.5-1.75-3.5 7-3.5-7z"/>
  <path id="polygon54" d="m40 200.51 3.5-1.75-3.5 7-3.5-7z" stroke="#000" stroke-width="2" fill="none"/>
 </g>
 <g id="g56" transform="translate(-6.5616 -1)">
  <path id="line58" d="m40.047 213.01 0.136 8.701" stroke="#000" stroke-width="2" fill="none"/>
  <path id="polygon60" d="m40.183 221.71 3.4722-1.805-3.3901 7.054-3.609-6.944z"/>
  <path id="polygon62" d="m40.183 221.71 3.4722-1.805-3.3901 7.054-3.609-6.944z" stroke="#000" stroke-width="2" fill="none"/>
 </g>
 <g id="g64" transform="translate(-6.5616 -1)">
  <path id="polygon66" fill="#fff" d="m69.081 320h-69.081l10.919-30h69.081z"/>
  <path id="polygon68" d="m69.081 320h-69.081l10.919-30h69.081z" stroke="#000" stroke-width="2" fill="none"/>
  <g id="text70">
   <path id="path3096" style="" d="m28.165 300.21h1.1135v3.4782l3.6931-3.4782h1.4332l-4.0845 3.8365 4.3767 4.3932h-1.4662l-3.9522-3.9632v3.9632h-1.1135v-8.2296"/>
   <path id="path3098" style="" d="m35.574 300.21h1.1135v8.2296h-1.1135v-8.2296"/>
   <path id="path3100" style="" d="m39.118 307.04h1.1631v1.4001h-1.1631v-1.4001m0-4.4373h1.1631v1.4001h-1.1631v-1.4001"/>
   <path id="path3102" style="" d="m45.915 300.21h1.1961l2.045 3.0592 2.056-3.0592h1.1961l-2.6458 3.9522 2.8222 4.2774h-1.1961l-2.3151-3.5002-2.3316 3.5002h-1.2017l2.938-4.3932-2.5632-3.8365"/>
  </g>
 </g>
 <g id="g74" transform="translate(-6.5616 -1)">
  <path id="rect76" fill="#fff" d="m0 340h80v30h-80z"/>
  <path id="rect78" d="m0 340h80v30h-80z" stroke="#000" stroke-width="2" fill="none"/>
  <g id="text80">
   <path id="path3107" style="" d="m19.919 350.21h1.1961l2.045 3.0592 2.056-3.0592h1.1961l-2.6458 3.9522 2.8222 4.2774h-1.1961l-2.3151-3.5002-2.3316 3.5002h-1.2017l2.938-4.3932-2.5632-3.8365"/>
   <path id="path3109" style="" d="m28.143 353.32h7.0666v0.92605h-7.0666v-0.92605m0 2.249h7.0666v0.93707h-7.0666v-0.93707"/>
   <path id="path3111" style="" d="m37.117 350.21h1.1961l2.045 3.0592 2.056-3.0592h1.1961l-2.6458 3.9522 2.8222 4.2774h-1.1961l-2.3151-3.5002-2.3316 3.5002h-1.2017l2.938-4.3932-2.5632-3.8365"/>
   <path id="path3113" style="" d="m49.338 351.37v3.0703h3.0703v0.93707h-3.0703v3.0703h-0.92604v-3.0703h-3.0703v-0.93707h3.0703v-3.0703h0.92604"/>
   <path id="path3115" style="" d="m55.004 357.51h1.819v-6.2784l-1.9789 0.39688v-1.0142l1.9678-0.39687h1.1135v7.2926h1.819v0.93707h-4.7405v-0.93707"/>
  </g>
 </g>
 <g id="g84" transform="translate(-6.5616 -1)">
  <path id="line86" d="m40.3 271.11v11.408" stroke="#000" stroke-width="2" fill="none"/>
  <path id="polygon88" d="m40.3 282.51 3.5-1.75-3.5 7-3.5-7z"/>
  <path id="polygon90" d="m40.3 282.51 3.5-1.75-3.5 7-3.5-7z" stroke="#000" stroke-width="2" fill="none"/>
 </g>
 <g id="g92" transform="translate(-6.5616 -1)">
  <path id="line94" d="m40 320v12.514" stroke="#000" stroke-width="2" fill="none"/>
  <path id="polygon96" d="m40 332.51 3.5-1.75-3.5 7-3.5-7z"/>
  <path id="polygon98" d="m40 332.51 3.5-1.75-3.5 7-3.5-7z" stroke="#000" stroke-width="2" fill="none"/>
 </g>
 <path id="line100" d="m33.438 369 0.3 20" stroke="#000" stroke-width="2" fill="none"/>
 <path id="line102" d="m33.438 389h60" stroke="#000" stroke-width="2" fill="none"/>
 <g id="g104" transform="translate(-6.5616 -1)">
  <path id="line106" d="m100 210h-49.511" stroke="#000" stroke-width="2" fill="none"/>
  <path id="polygon108" d="m50.489 210 1.75 3.5-7-3.5 7-3.5z"/>
  <path id="polygon110" d="m50.489 210 1.75 3.5-7-3.5 7-3.5z" stroke="#000" stroke-width="2" fill="none"/>
 </g>
 <path id="line112" d="m-26.562 249 18.389 0.14999" stroke="#000" stroke-width="2" fill="none"/>
 <path id="line114" d="m-26.562 409v-160" stroke="#000" stroke-width="2" fill="none"/>
 <path id="line116" d="m-26.562 409h60" stroke="#000" stroke-width="2" fill="none"/>
 <g id="g118" transform="translate(-6.5616 -1)">
  <path id="line120" d="m40.3 410.3-0.186 12.215" stroke="#000" stroke-width="2" fill="none"/>
  <path id="polygon122" d="m40.114 422.52 3.5262-1.697-3.6062 6.946-3.393-7.052z"/>
  <path id="polygon124" d="m40.114 422.52 3.5262-1.697-3.6062 6.946-3.393-7.052z" stroke="#000" stroke-width="2" fill="none"/>
 </g>
</svg>
