<?xml version="1.0" encoding="UTF-8" standalone="no"?>
<!-- Created with Inkscape (http://www.inkscape.org/) -->
<svg id="svg2" xmlns:rdf="http://www.w3.org/1999/02/22-rdf-syntax-ns#" xmlns="http://www.w3.org/2000/svg" height="207.17" width="310.66" version="1.1" xmlns:cc="http://creativecommons.org/ns#" xmlns:dc="http://purl.org/dc/elements/1.1/" viewBox="399 480 159.76399 106.21584">
 <metadata id="metadata98">
  <rdf:RDF>
   <cc:Work rdf:about="">
    <dc:format>image/svg+xml</dc:format>
    <dc:type rdf:resource="http://purl.org/dc/dcmitype/StillImage"/>
   </cc:Work>
  </rdf:RDF>
 </metadata>
 <g id="g4" transform="translate(0 -2.6218)">
  <path id="rect6" fill="#add8e6" d="m454 532h16v16h-16z"/>
  <path id="rect8" fill="none" d="m454 532h16v16h-16z" stroke="#add8e6"/>
 </g>
 <g id="g10" transform="translate(0 -2.6218)">
  <path id="rect12" fill="#add8e6" d="m420 492h100v16h-100z"/>
  <path id="rect14" fill="none" d="m420 492h100v16h-100z" stroke="#add8e6"/>
 </g>
 <g id="g16" transform="translate(0 -2.6218)">
  <path id="line18" d="m400 500h150.26" stroke="#000" stroke-width="2" fill="none"/>
  <path id="polygon20" d="m550.26 500-2.5-5 10 5-10 5z"/>
  <path id="polygon22" d="m550.26 500-2.5-5 10 5-10 5z" stroke="#000" stroke-width="2" fill="none"/>
 </g>
 <g id="text24">
  <path id="path3035" style="" d="m518.72 486.53h3.4975v0.84336h-4.703v-0.84336c0.38034-0.39356 0.89793-0.92107 1.5528-1.5825 0.65815-0.66477 1.0716-1.0931 1.2402-1.2849 0.3208-0.36049 0.54404-0.66476 0.66972-0.91281 0.12898-0.25135 0.19348-0.49774 0.19348-0.73918 0-0.39356-0.13891-0.71437-0.41672-0.96242-0.27451-0.24804-0.63335-0.37206-1.0765-0.37207-0.3142 0.00001-0.64658 0.0546-0.99715 0.16371-0.34727 0.10915-0.71934 0.27451-1.1162 0.49609v-1.012c0.40349-0.16205 0.78052-0.28442 1.1311-0.36711 0.35057-0.0827 0.67138-0.12401 0.96242-0.12402 0.76729 0.00001 1.3791 0.19183 1.8356 0.57547 0.4564 0.38365 0.68461 0.89628 0.68461 1.5379 0 0.30427-0.0579 0.59366-0.17363 0.86816-0.11246 0.27121-0.31916 0.59201-0.62012 0.96242-0.0827 0.0959-0.34562 0.37373-0.78879 0.83344-0.44318 0.45641-1.0683 1.0964-1.8752 1.9199"/>
 </g>
 <path id="line28" d="m520 489.38v16" stroke="#000" stroke-width="2" fill="none"/>
 <path id="line30" d="m420 489.38v16" stroke="#000" stroke-width="2" fill="none"/>
 <g id="text32">
  <path id="path3040" style="" d="m418.03 486.53h1.6371v-5.6505l-1.781 0.35718v-0.91281l1.771-0.35719h1.0021v6.5633h1.6371v0.84336h-4.2664v-0.84336"/>
 </g>
 <g id="g36" transform="translate(0 -2.6218)">
  <path id="line38" d="m400 540h150.26" stroke="#000" stroke-width="2" fill="none"/>
  <path id="polygon40" d="m550.26 540-2.5-5 10 5-10 5z"/>
  <path id="polygon42" d="m550.26 540-2.5-5 10 5-10 5z" stroke="#000" stroke-width="2" fill="none"/>
 </g>
 <path id="line44" d="m520 529.38v16" stroke="#000" stroke-width="2" fill="none"/>
 <path id="line46" d="m454 529.38v16" stroke="#000" stroke-width="2" fill="none"/>
 <path id="line48" d="m470 489.38v16" stroke="#000" stroke-width="2" fill="none"/>
 <path id="line50" d="m470 529.38v16" stroke="#000" stroke-width="2" fill="none"/>
 <path id="line52" d="m462 529.38v16" stroke="#000" stroke-width="2" fill="none"/>
 <g id="text54">
  <path id="path3051" style="" d="m471.26 526.53h1.6371v-5.6505l-1.781 0.35719v-0.91282l1.7711-0.35718h1.0021v6.5633h1.6371v0.84335h-4.2664v-0.84335"/>
  <path id="path3053" style="" d="m477.56 526.12h1.0468v1.2601h-1.0468v-1.2601"/>
  <path id="path3055" style="" d="m480.8 519.97h3.934v0.84335h-3.0162v1.8157c0.14552-0.0496 0.29104-0.086 0.43657-0.10914 0.14551-0.0265 0.29104-0.0397 0.43656-0.0397 0.82682 0 1.4817 0.22655 1.9645 0.67965 0.48286 0.4531 0.72429 1.0666 0.7243 1.8405-0.00001 0.79705-0.24806 1.4172-0.74414 1.8604-0.4961 0.43987-1.1956 0.6598-2.0985 0.6598-0.31089 0-0.62839-0.0265-0.9525-0.0794-0.32081-0.0529-0.65319-0.13229-0.99715-0.23813v-1.0071c0.29766 0.16206 0.60523 0.28278 0.92274 0.36215 0.31749 0.0794 0.65318 0.11906 1.0071 0.11906 0.57215 0 1.0252-0.15048 1.3593-0.45144 0.33403-0.30096 0.50105-0.70941 0.50106-1.2254-0.00001-0.51594-0.16703-0.92439-0.50106-1.2254-0.33404-0.30096-0.78714-0.45144-1.3593-0.45144-0.2679 0-0.53579 0.0298-0.80368 0.0893-0.26458 0.0595-0.53578 0.15214-0.81359 0.27781v-3.7207"/>
 </g>
 <g id="text58">
  <path id="path3058" style="" d="m432.62 526.53h1.6371v-5.6505l-1.781 0.35719v-0.91282l1.7711-0.35718h1.0021v6.5633h1.6371v0.84335h-4.2664v-0.84335"/>
  <path id="path3060" style="" d="m438.91 526.12h1.0468v1.2601h-1.0468v-1.2601"/>
  <path id="path3062" style="" d="m445.18 523.38c0.47956 0.10253 0.85328 0.31585 1.1212 0.63996 0.27119 0.32412 0.40679 0.7243 0.40679 1.2006 0 0.73091-0.25136 1.2965-0.75406 1.6966-0.50271 0.40018-1.2171 0.60027-2.1431 0.60027-0.31089 0-0.6317-0.0314-0.96243-0.0943-0.32742-0.0595-0.66642-0.15048-1.017-0.27285v-0.96738c0.27781 0.16206 0.58208 0.28443 0.91281 0.36711 0.33073 0.0827 0.67634 0.12402 1.0368 0.12402 0.62838 0 1.1063-0.12402 1.4337-0.37207 0.33073-0.24804 0.49609-0.60854 0.49609-1.0815 0-0.43656-0.15379-0.77721-0.46136-1.022-0.30428-0.24804-0.72926-0.37206-1.275-0.37207h-0.86321v-0.82351h0.90289c0.49279 0 0.86982-0.0976 1.1311-0.2927 0.26127-0.19843 0.39191-0.48286 0.39191-0.85328 0-0.38033-0.1356-0.67137-0.4068-0.87312-0.26789-0.20505-0.65319-0.30757-1.1559-0.30758-0.27451 0.00001-0.56886 0.0298-0.88305 0.0893-0.3142 0.0595-0.65981 0.15214-1.0368 0.27781v-0.89297c0.38034-0.10583 0.73587-0.1852 1.0666-0.23813 0.33404-0.0529 0.64823-0.0794 0.94258-0.0794 0.76068 0.00001 1.3626 0.17364 1.8058 0.5209 0.44318 0.34396 0.66476 0.81029 0.66477 1.399-0.00001 0.41011-0.11741 0.75738-0.35223 1.0418-0.23482 0.28112-0.56886 0.47625-1.0021 0.58539"/>
  <path id="path3064" style="" d="m451.65 523.38c0.47955 0.10253 0.85327 0.31585 1.1212 0.63996 0.27119 0.32412 0.40679 0.7243 0.40679 1.2006 0 0.73091-0.25136 1.2965-0.75406 1.6966-0.50271 0.40018-1.2171 0.60027-2.1431 0.60027-0.31089 0-0.6317-0.0314-0.96242-0.0943-0.32743-0.0595-0.66643-0.15048-1.017-0.27285v-0.96738c0.27781 0.16206 0.58208 0.28443 0.91282 0.36711 0.33072 0.0827 0.67633 0.12402 1.0368 0.12402 0.62838 0 1.1063-0.12402 1.4337-0.37207 0.33073-0.24804 0.49609-0.60854 0.4961-1.0815-0.00001-0.43656-0.1538-0.77721-0.46137-1.022-0.30428-0.24804-0.72926-0.37206-1.275-0.37207h-0.86321v-0.82351h0.9029c0.49278 0 0.86981-0.0976 1.1311-0.2927 0.26127-0.19843 0.39191-0.48286 0.39191-0.85328 0-0.38033-0.1356-0.67137-0.40679-0.87312-0.2679-0.20505-0.6532-0.30757-1.1559-0.30758-0.27451 0.00001-0.56886 0.0298-0.88305 0.0893s-0.65981 0.15214-1.0368 0.27781v-0.89297c0.38033-0.10583 0.73587-0.1852 1.0666-0.23813 0.33403-0.0529 0.64822-0.0794 0.94257-0.0794 0.76068 0.00001 1.3626 0.17364 1.8058 0.5209 0.44317 0.34396 0.66476 0.81029 0.66476 1.399 0 0.41011-0.11741 0.75738-0.35222 1.0418-0.23483 0.28112-0.56886 0.47625-1.0021 0.58539"/>
 </g>
 <g id="g62" transform="translate(0 -2.6218)">
  <path id="rect64" fill="#add8e6" d="m462 572h4v16h-4z"/>
  <path id="rect66" fill="none" d="m462 572h4v16h-4z" stroke="#add8e6"/>
 </g>
 <g id="g68" transform="translate(0 -2.6218)">
  <path id="line70" d="m400 580h150.26" stroke="#000" stroke-width="2" fill="none"/>
  <path id="polygon72" d="m550.26 580-2.5-5 10 5-10 5z"/>
  <path id="polygon74" d="m550.26 580-2.5-5 10 5-10 5z" stroke="#000" stroke-width="2" fill="none"/>
 </g>
 <path id="line76" d="m520 569.38v16" stroke="#000" stroke-width="2" fill="none"/>
 <path id="line78" d="m462 569.38v16" stroke="#000" stroke-width="2" fill="none"/>
 <path id="line80" d="m466 569.38v16" stroke="#000" stroke-width="2" fill="none"/>
 <g id="text82">
  <path id="path3075" style="" d="m467.26 566.53h1.6371v-5.6505l-1.781 0.35719v-0.91282l1.7711-0.35718h1.0021v6.5633h1.6371v0.84335h-4.2664v-0.84335"/>
  <path id="path3077" style="" d="m473.56 566.12h1.0468v1.2601h-1.0468v-1.2601"/>
  <path id="path3079" style="" d="m479.54 560.84-2.5301 3.9539h2.5301v-3.9539m-0.26293-0.87312h1.2601v4.827h1.0567v0.83343h-1.0567v1.7462h-0.99715v-1.7462h-3.3437v-0.96738l3.0807-4.693"/>
  <path id="path3081" style="" d="m483.43 566.53h1.6371v-5.6505l-1.781 0.35719v-0.91282l1.771-0.35718h1.0021v6.5633h1.6371v0.84335h-4.2664v-0.84335"/>
  <path id="path3083" style="" d="m489.48 559.97h4.7625v0.42664l-2.6888 6.98h-1.0468l2.5301-6.5633h-3.557v-0.84335"/>
 </g>
 <g id="text86">
  <path id="path3086" style="" d="m434.15 566.53h1.6371v-5.6505l-1.781 0.35719v-0.91282l1.771-0.35718h1.0021v6.5633h1.6371v0.84335h-4.2664v-0.84335"/>
  <path id="path3088" style="" d="m440.44 566.12h1.0468v1.2601h-1.0468v-1.2601"/>
  <path id="path3090" style="" d="m446.43 560.84-2.5301 3.9539h2.5301v-3.9539m-0.26293-0.87312h1.2601v4.827h1.0567v0.83343h-1.0567v1.7462h-0.99715v-1.7462h-3.3437v-0.96738l3.0807-4.693"/>
  <path id="path3092" style="" d="m450.32 566.53h1.6371v-5.6505l-1.781 0.35719v-0.91282l1.771-0.35718h1.0021v6.5633h1.6371v0.84335h-4.2664v-0.84335"/>
  <path id="path3094" style="" d="m457.48 566.53h3.4975v0.84335h-4.703v-0.84335c0.38034-0.39357 0.89793-0.92108 1.5528-1.5825 0.65815-0.66477 1.0716-1.0931 1.2402-1.2849 0.3208-0.36049 0.54404-0.66476 0.66972-0.91281 0.12898-0.25135 0.19347-0.49774 0.19348-0.73918-0.00001-0.39356-0.13891-0.71437-0.41672-0.96242-0.27451-0.24804-0.63335-0.37206-1.0765-0.37207-0.3142 0.00001-0.64658 0.0546-0.99715 0.16371-0.34727 0.10915-0.71934 0.27451-1.1162 0.49609v-1.012c0.40349-0.16205 0.78052-0.28442 1.1311-0.36711 0.35057-0.0827 0.67138-0.12401 0.96242-0.12402 0.76729 0.00001 1.3791 0.19183 1.8356 0.57547 0.4564 0.38365 0.6846 0.89628 0.68461 1.5379-0.00001 0.30428-0.0579 0.59366-0.17363 0.86816-0.11246 0.27121-0.31916 0.59201-0.62012 0.96243-0.0827 0.0959-0.34562 0.37372-0.78879 0.83343-0.44318 0.45641-1.0683 1.0964-1.8752 1.9199"/>
 </g>
 <path id="line90" d="m420 529.38v16" stroke="#000" stroke-width="2" fill="none"/>
 <path id="line92" d="m420 569.38v16" stroke="#000" stroke-width="2" fill="none"/>
</svg>
