<?xml version="1.0" encoding="UTF-8" standalone="no"?>
<!-- Created with Inkscape (http://www.inkscape.org/) -->

<svg
   xmlns:dc="http://purl.org/dc/elements/1.1/"
   xmlns:cc="http://creativecommons.org/ns#"
   xmlns:rdf="http://www.w3.org/1999/02/22-rdf-syntax-ns#"
   xmlns:svg="http://www.w3.org/2000/svg"
   xmlns="http://www.w3.org/2000/svg"
   xmlns:sodipodi="http://sodipodi.sourceforge.net/DTD/sodipodi-0.dtd"
   xmlns:inkscape="http://www.inkscape.org/namespaces/inkscape"
   version="1.1"
   width="590.14392"
   height="630.0318"
   viewBox="-52 115 315.46858 343.76401"
   id="svg2"
   inkscape:version="0.48.4 r9939"
   sodipodi:docname="poznullaneg.svg">
  <sodipodi:namedview
     pagecolor="#ffffff"
     bordercolor="#666666"
     borderopacity="1"
     objecttolerance="10"
     gridtolerance="10"
     guidetolerance="10"
     inkscape:pageopacity="0"
     inkscape:pageshadow="2"
     inkscape:window-width="640"
     inkscape:window-height="480"
     id="namedview108"
     showgrid="false"
     inkscape:zoom="0.37002468"
     inkscape:cx="293.36313"
     inkscape:cy="311.1341"
     inkscape:window-x="0"
     inkscape:window-y="25"
     inkscape:window-maximized="0"
     inkscape:current-layer="svg2" />
  <metadata
     id="metadata214">
    <rdf:RDF>
      <cc:Work
         rdf:about="">
        <dc:format>image/svg+xml</dc:format>
        <dc:type
           rdf:resource="http://purl.org/dc/dcmitype/StillImage" />
      </cc:Work>
    </rdf:RDF>
  </metadata>
  <defs
     id="defs212" />
  <g
     id="g4"
     transform="translate(-4.2657111,0)">
    <path
       style="fill:#ffffff"
       d="m 40,200 -60,-30 60,-30 60,30 z"
       id="polygon6" />
    <path
       style="fill:none;stroke:#000000;stroke-width:2"
       d="m 40,200 -60,-30 60,-30 60,30 z"
       id="polygon8" />
    <g
       style="font-size:13.54669952px;font-style:normal;font-weight:normal;text-anchor:middle;fill:#000000;font-family:sans-serif"
       id="text10">
      <path
         d="m 14.566865,166.94293 0,1.15094 c -0.343964,-0.17639 -0.701152,-0.30868 -1.071565,-0.39688 -0.370422,-0.0882 -0.754068,-0.13229 -1.15094,-0.13229 -0.604137,0 -1.058339,0.0926 -1.362607,0.27781 -0.299864,0.18522 -0.449795,0.46303 -0.449793,0.83344 -2e-6,0.28223 0.108036,0.50492 0.324115,0.66808 0.216075,0.15875 0.650433,0.31089 1.303076,0.4564 l 0.41672,0.0926 c 0.864303,0.18521 1.477255,0.44759 1.838859,0.78713 0.366001,0.33515 0.549005,0.80478 0.549011,1.40891 -6e-6,0.68792 -0.273409,1.23253 -0.82021,1.63381 -0.542402,0.40129 -1.289851,0.60193 -2.242349,0.60193 -0.396879,0 -0.811394,-0.0397 -1.243545,-0.11906 -0.427746,-0.075 -0.8797428,-0.18962 -1.3559927,-0.34396 l 0,-1.25678 c 0.4497916,0.23372 0.8929697,0.41011 1.3295347,0.52917 0.436561,0.11466 0.868714,0.17198 1.296461,0.17198 0.573262,0 1.014234,-0.097 1.32292,-0.29104 0.308676,-0.19844 0.463017,-0.47625 0.463022,-0.83344 -5e-6,-0.33073 -0.112453,-0.58429 -0.337344,-0.76068 -0.220492,-0.17639 -0.707767,-0.34616 -1.461827,-0.50932 l -0.423334,-0.0992 c -0.754067,-0.15875 -1.298668,-0.40129 -1.6338064,-0.72761 -0.3351406,-0.33072 -0.5027103,-0.78272 -0.5027095,-1.35599 -8e-7,-0.69673 0.246944,-1.23472 0.7408349,-1.61396 0.493888,-0.37923 1.195035,-0.56885 2.103443,-0.56886 0.449788,1e-5 0.873122,0.0331 1.270003,0.0992 0.396871,0.0661 0.762878,0.16537 1.098023,0.29766"
         style=""
         id="path3088" />
      <path
         d="m 16.379266,166.72464 5.781159,0 0,1.11126 -4.577302,5.32475 4.577302,0 0,0.97235 -5.946524,0 0,-1.11126 4.577302,-5.32475 -4.411937,0 0,-0.97235"
         style=""
         id="path3090" />
      <path
         d="m 27.392574,170.40898 c -0.983374,0 -1.664677,0.11245 -2.043911,0.33734 -0.379239,0.2249 -0.568858,0.60855 -0.568856,1.15094 -2e-6,0.43216 0.14111,0.77612 0.423335,1.03188 0.28663,0.25135 0.674686,0.37703 1.164169,0.37703 0.674685,0 1.214877,-0.23812 1.620577,-0.71438 0.4101,-0.48065 0.615152,-1.11786 0.615158,-1.91162 l 0,-0.27119 -1.210472,0 m 2.427558,-0.50271 0,4.22673 -1.217086,0 0,-1.12449 c -0.277819,0.4498 -0.623983,0.78273 -1.038492,0.99881 -0.41452,0.21167 -0.921638,0.3175 -1.521358,0.3175 -0.758477,0 -1.362609,-0.21167 -1.8124,-0.635 -0.445384,-0.42775 -0.668076,-0.99881 -0.668075,-1.71318 -1e-6,-0.83344 0.277812,-1.46183 0.83344,-1.88516 0.560034,-0.42333 1.393472,-0.635 2.500318,-0.63501 l 1.706567,0 0,-0.11906 c -6e-6,-0.56003 -0.185215,-0.99218 -0.555626,-1.29646 -0.366013,-0.30868 -0.881951,-0.46302 -1.547817,-0.46302 -0.423337,0 -0.835647,0.0507 -1.23693,0.15213 -0.401288,0.10143 -0.787139,0.25357 -1.157555,0.45641 l 0,-1.12448 c 0.445382,-0.17197 0.877535,-0.29986 1.296462,-0.38365 0.418921,-0.0882 0.826821,-0.13228 1.223701,-0.13229 1.07156,1e-5 1.871926,0.27782 2.401099,0.83344 0.529161,0.55563 0.793745,1.39789 0.793752,2.52678"
         style=""
         id="path3092" />
      <path
         d="m 38.101609,168.14678 c 0.304265,-0.5468 0.668067,-0.95029 1.091409,-1.21047 0.423326,-0.26017 0.921625,-0.39025 1.4949,-0.39026 0.771693,1e-5 1.367006,0.27121 1.785942,0.8136 0.418912,0.53799 0.628375,1.30528 0.628387,2.30188 l 0,4.47147 -1.223701,0 0,-4.43179 c -1.1e-5,-0.70996 -0.125688,-1.23692 -0.377032,-1.58089 -0.251365,-0.34395 -0.635012,-0.51593 -1.150941,-0.51593 -0.6306,0 -1.1289,0.20946 -1.494899,0.62838 -0.366015,0.41893 -0.549019,0.98999 -0.549012,1.71318 l 0,4.18705 -1.223701,0 0,-4.43179 c -6e-6,-0.71437 -0.125683,-1.24133 -0.377032,-1.58089 -0.25136,-0.34395 -0.639416,-0.51593 -1.164169,-0.51593 -0.621777,0 -1.115666,0.21167 -1.481671,0.635 -0.36601,0.41893 -0.549014,0.98778 -0.549011,1.70656 l 0,4.18705 -1.223701,0 0,-7.40836 1.223701,0 0,1.15094 c 0.27781,-0.45419 0.610744,-0.78933 0.998804,-1.00541 0.388053,-0.21607 0.848869,-0.32411 1.382451,-0.32412 0.537982,1e-5 0.994389,0.13671 1.369222,0.41011 0.379231,0.27341 0.659249,0.67028 0.840054,1.19062"
         style=""
         id="path3094" />
      <path
         d="m 45.695171,167.46548 0,-1.20386 8.479916,3.07579 0,1.09802 -8.479916,3.07579 0,-1.20385 6.813037,-2.41433 -6.813037,-2.42756"
         style=""
         id="path3096" />
      <path
         d="m 59.916558,165.13714 c -0.687922,1e-5 -1.206065,0.33956 -1.554431,1.01865 -0.343962,0.6747 -0.515941,1.69114 -0.515939,3.04933 -2e-6,1.35379 0.171977,2.37023 0.515939,3.04933 0.348366,0.67469 0.866509,1.01203 1.554431,1.01203 0.692323,0 1.210466,-0.33734 1.554431,-1.01203 0.348362,-0.6791 0.522547,-1.69554 0.522553,-3.04933 -6e-6,-1.35819 -0.174191,-2.37463 -0.522553,-3.04933 -0.343965,-0.67909 -0.862108,-1.01864 -1.554431,-1.01865 m 0,-1.05834 c 1.106837,1e-5 1.9513,0.43878 2.533391,1.31631 0.586487,0.87313 0.879734,2.14314 0.879742,3.81001 -8e-6,1.66247 -0.293255,2.93247 -0.879742,3.81001 -0.582091,0.87313 -1.426554,1.30969 -2.533391,1.30969 -1.106846,0 -1.953514,-0.43656 -2.540006,-1.30969 -0.582086,-0.87754 -0.873128,-2.14754 -0.873128,-3.81001 0,-1.66687 0.291042,-2.93688 0.873128,-3.81001 0.586492,-0.87753 1.43316,-1.3163 2.540006,-1.31631"
         style=""
         id="path3098" />
      <path
         d="m 66.822201,172.45289 1.342763,0 0,1.68011 -1.342763,0 0,-1.68011 m 1.303076,-0.97235 -1.263389,0 0,-1.01865 c -2e-6,-0.44538 0.06173,-0.81138 0.185209,-1.09802 0.12347,-0.28663 0.383644,-0.61956 0.780523,-0.99881 l 0.595314,-0.58869 c 0.25135,-0.23371 0.432149,-0.4542 0.542397,-0.66146 0.114648,-0.20725 0.171974,-0.41892 0.171979,-0.63501 -5e-6,-0.39245 -0.145526,-0.70995 -0.436563,-0.9525 -0.286637,-0.24252 -0.668079,-0.36379 -1.144326,-0.3638 -0.348372,1e-5 -0.720994,0.0772 -1.117867,0.23151 -0.392468,0.15435 -0.802573,0.37925 -1.230316,0.67469 l 0,-1.24355 c 0.414514,-0.25134 0.833438,-0.43875 1.256774,-0.56224 0.427742,-0.12346 0.868715,-0.1852 1.32292,-0.18521 0.811387,1e-5 1.461822,0.21389 1.951307,0.64162 0.493884,0.42775 0.740829,0.9922 0.740835,1.69334 -6e-6,0.33515 -0.07938,0.65485 -0.238126,0.95912 -0.158756,0.29986 -0.436569,0.63941 -0.833439,1.01864 l -0.582085,0.56886 c -0.207262,0.20726 -0.354988,0.37042 -0.443178,0.48948 -0.08379,0.11466 -0.14332,0.2271 -0.178594,0.33734 -0.02646,0.0926 -0.04631,0.20506 -0.05953,0.33735 -0.01323,0.13229 -0.01985,0.31309 -0.01984,0.5424 l 0,0.81359"
         style=""
         id="path3100" />
    </g>
  </g>
  <g
     id="g14"
     transform="translate(-4.2657111,0)">
    <path
       style="fill:#ffffff"
       d="m 40,310 -60,-30 60,-30 60,30 z"
       id="polygon16" />
    <path
       style="fill:none;stroke:#000000;stroke-width:2"
       d="m 40,310 -60,-30 60,-30 60,30 z"
       id="polygon18" />
    <g
       style="font-size:13.54669952px;font-style:normal;font-weight:normal;text-anchor:middle;fill:#000000;font-family:sans-serif"
       id="text20">
      <path
         d="m 14.566865,276.94293 0,1.15094 c -0.343964,-0.17639 -0.701152,-0.30868 -1.071565,-0.39688 -0.370422,-0.0882 -0.754068,-0.13229 -1.15094,-0.13229 -0.604137,0 -1.058339,0.0926 -1.362607,0.27781 -0.299864,0.18522 -0.449795,0.46303 -0.449793,0.83344 -2e-6,0.28223 0.108036,0.50492 0.324115,0.66808 0.216075,0.15875 0.650433,0.31089 1.303076,0.4564 l 0.41672,0.0926 c 0.864303,0.18521 1.477255,0.44759 1.838859,0.78713 0.366001,0.33515 0.549005,0.80478 0.549011,1.40891 -6e-6,0.68792 -0.273409,1.23253 -0.82021,1.63381 -0.542402,0.40129 -1.289851,0.60193 -2.242349,0.60193 -0.396879,0 -0.811394,-0.0397 -1.243545,-0.11906 -0.427746,-0.075 -0.8797428,-0.18962 -1.3559927,-0.34396 l 0,-1.25678 c 0.4497916,0.23372 0.8929697,0.41011 1.3295347,0.52917 0.436561,0.11466 0.868714,0.17198 1.296461,0.17198 0.573262,0 1.014234,-0.097 1.32292,-0.29104 0.308676,-0.19844 0.463017,-0.47625 0.463022,-0.83344 -5e-6,-0.33073 -0.112453,-0.58429 -0.337344,-0.76068 -0.220492,-0.17639 -0.707767,-0.34616 -1.461827,-0.50932 l -0.423334,-0.0992 c -0.754067,-0.15875 -1.298668,-0.40129 -1.6338064,-0.72761 -0.3351406,-0.33072 -0.5027103,-0.78272 -0.5027095,-1.35599 -8e-7,-0.69673 0.246944,-1.23472 0.7408349,-1.61396 0.493888,-0.37923 1.195035,-0.56885 2.103443,-0.56886 0.449788,1e-5 0.873122,0.0331 1.270003,0.0992 0.396871,0.0661 0.762878,0.16537 1.098023,0.29766"
         style=""
         id="path3105" />
      <path
         d="m 16.379266,276.72464 5.781159,0 0,1.11126 -4.577302,5.32475 4.577302,0 0,0.97235 -5.946524,0 0,-1.11126 4.577302,-5.32475 -4.411937,0 0,-0.97235"
         style=""
         id="path3107" />
      <path
         d="m 27.392574,280.40898 c -0.983374,0 -1.664677,0.11245 -2.043911,0.33734 -0.379239,0.2249 -0.568858,0.60855 -0.568856,1.15094 -2e-6,0.43216 0.14111,0.77612 0.423335,1.03188 0.28663,0.25135 0.674686,0.37703 1.164169,0.37703 0.674685,0 1.214877,-0.23812 1.620577,-0.71438 0.4101,-0.48065 0.615152,-1.11786 0.615158,-1.91162 l 0,-0.27119 -1.210472,0 m 2.427558,-0.50271 0,4.22673 -1.217086,0 0,-1.12449 c -0.277819,0.4498 -0.623983,0.78273 -1.038492,0.99881 -0.41452,0.21167 -0.921638,0.3175 -1.521358,0.3175 -0.758477,0 -1.362609,-0.21167 -1.8124,-0.635 -0.445384,-0.42775 -0.668076,-0.99881 -0.668075,-1.71318 -1e-6,-0.83344 0.277812,-1.46183 0.83344,-1.88516 0.560034,-0.42333 1.393472,-0.635 2.500318,-0.63501 l 1.706567,0 0,-0.11906 c -6e-6,-0.56003 -0.185215,-0.99218 -0.555626,-1.29646 -0.366013,-0.30868 -0.881951,-0.46302 -1.547817,-0.46302 -0.423337,0 -0.835647,0.0507 -1.23693,0.15213 -0.401288,0.10143 -0.787139,0.25357 -1.157555,0.45641 l 0,-1.12448 c 0.445382,-0.17197 0.877535,-0.29986 1.296462,-0.38365 0.418921,-0.0882 0.826821,-0.13228 1.223701,-0.13229 1.07156,1e-5 1.871926,0.27782 2.401099,0.83344 0.529161,0.55563 0.793745,1.39789 0.793752,2.52678"
         style=""
         id="path3109" />
      <path
         d="m 38.101609,278.14678 c 0.304265,-0.5468 0.668067,-0.95029 1.091409,-1.21047 0.423326,-0.26017 0.921625,-0.39025 1.4949,-0.39026 0.771693,1e-5 1.367006,0.27121 1.785942,0.8136 0.418912,0.53799 0.628375,1.30528 0.628387,2.30188 l 0,4.47147 -1.223701,0 0,-4.43179 c -1.1e-5,-0.70996 -0.125688,-1.23692 -0.377032,-1.58089 -0.251365,-0.34395 -0.635012,-0.51593 -1.150941,-0.51593 -0.6306,0 -1.1289,0.20946 -1.494899,0.62838 -0.366015,0.41893 -0.549019,0.98999 -0.549012,1.71318 l 0,4.18705 -1.223701,0 0,-4.43179 c -6e-6,-0.71437 -0.125683,-1.24133 -0.377032,-1.58089 -0.25136,-0.34395 -0.639416,-0.51593 -1.164169,-0.51593 -0.621777,0 -1.115666,0.21167 -1.481671,0.635 -0.36601,0.41893 -0.549014,0.98778 -0.549011,1.70656 l 0,4.18705 -1.223701,0 0,-7.40836 1.223701,0 0,1.15094 c 0.27781,-0.45419 0.610744,-0.78933 0.998804,-1.00541 0.388053,-0.21607 0.848869,-0.32411 1.382451,-0.32412 0.537982,1e-5 0.994389,0.13671 1.369222,0.41011 0.379231,0.27341 0.659249,0.67028 0.840054,1.19062"
         style=""
         id="path3111" />
      <path
         d="m 45.695171,277.98142 8.479916,0 0,1.11125 -8.479916,0 0,-1.11125 m 0,2.69875 8.479916,0 0,1.12449 -8.479916,0 0,-1.12449"
         style=""
         id="path3113" />
      <path
         d="m 59.916558,275.13714 c -0.687922,1e-5 -1.206065,0.33956 -1.554431,1.01865 -0.343962,0.6747 -0.515941,1.69114 -0.515939,3.04933 -2e-6,1.35379 0.171977,2.37023 0.515939,3.04933 0.348366,0.67469 0.866509,1.01203 1.554431,1.01203 0.692323,0 1.210466,-0.33734 1.554431,-1.01203 0.348362,-0.6791 0.522547,-1.69554 0.522553,-3.04933 -6e-6,-1.35819 -0.174191,-2.37463 -0.522553,-3.04933 -0.343965,-0.67909 -0.862108,-1.01864 -1.554431,-1.01865 m 0,-1.05834 c 1.106837,10e-6 1.9513,0.43878 2.533391,1.31631 0.586487,0.87313 0.879734,2.14314 0.879742,3.81001 -8e-6,1.66247 -0.293255,2.93247 -0.879742,3.81001 -0.582091,0.87313 -1.426554,1.30969 -2.533391,1.30969 -1.106846,0 -1.953514,-0.43656 -2.540006,-1.30969 -0.582086,-0.87754 -0.873128,-2.14754 -0.873128,-3.81001 0,-1.66687 0.291042,-2.93688 0.873128,-3.81001 0.586492,-0.87753 1.43316,-1.3163 2.540006,-1.31631"
         style=""
         id="path3115" />
      <path
         d="m 66.822201,282.45289 1.342763,0 0,1.68011 -1.342763,0 0,-1.68011 m 1.303076,-0.97235 -1.263389,0 0,-1.01865 c -2e-6,-0.44538 0.06173,-0.81138 0.185209,-1.09802 0.12347,-0.28663 0.383644,-0.61956 0.780523,-0.99881 l 0.595314,-0.58869 c 0.25135,-0.23371 0.432149,-0.4542 0.542397,-0.66146 0.114648,-0.20725 0.171974,-0.41892 0.171979,-0.63501 -5e-6,-0.39245 -0.145526,-0.70995 -0.436563,-0.9525 -0.286637,-0.24252 -0.668079,-0.36379 -1.144326,-0.3638 -0.348372,1e-5 -0.720994,0.0772 -1.117867,0.23151 -0.392468,0.15435 -0.802573,0.37925 -1.230316,0.67469 l 0,-1.24355 c 0.414514,-0.25134 0.833438,-0.43875 1.256774,-0.56224 0.427742,-0.12346 0.868715,-0.1852 1.32292,-0.18521 0.811387,10e-6 1.461822,0.21389 1.951307,0.64162 0.493884,0.42775 0.740829,0.9922 0.740835,1.69334 -6e-6,0.33515 -0.07938,0.65485 -0.238126,0.95912 -0.158756,0.29986 -0.436569,0.63941 -0.833439,1.01864 l -0.582085,0.56886 c -0.207262,0.20726 -0.354988,0.37042 -0.443178,0.48948 -0.08379,0.11466 -0.14332,0.2271 -0.178594,0.33734 -0.02646,0.0926 -0.04631,0.20506 -0.05953,0.33735 -0.01323,0.13229 -0.01985,0.31309 -0.01984,0.5424 l 0,0.81359"
         style=""
         id="path3117" />
    </g>
  </g>
  <g
     id="g24"
     transform="translate(-4.2657111,0)">
    <path
       style="fill:#ffffff"
       d="m 40,420 -60,-30 60,-30 60,30 z"
       id="polygon26" />
    <path
       style="fill:none;stroke:#000000;stroke-width:2"
       d="m 40,420 -60,-30 60,-30 60,30 z"
       id="polygon28" />
    <g
       style="font-size:13.54669952px;font-style:normal;font-weight:normal;text-anchor:middle;fill:#000000;font-family:sans-serif"
       id="text30">
      <path
         d="m 14.566865,386.94293 0,1.15094 c -0.343964,-0.17639 -0.701152,-0.30868 -1.071565,-0.39688 -0.370422,-0.0882 -0.754068,-0.13229 -1.15094,-0.13229 -0.604137,0 -1.058339,0.0926 -1.362607,0.27781 -0.299864,0.18522 -0.449795,0.46303 -0.449793,0.83344 -2e-6,0.28223 0.108036,0.50492 0.324115,0.66808 0.216075,0.15875 0.650433,0.31089 1.303076,0.4564 l 0.41672,0.0926 c 0.864303,0.18521 1.477255,0.44759 1.838859,0.78713 0.366001,0.33515 0.549005,0.80478 0.549011,1.40891 -6e-6,0.68792 -0.273409,1.23253 -0.82021,1.63381 -0.542402,0.40129 -1.289851,0.60193 -2.242349,0.60193 -0.396879,0 -0.811394,-0.0397 -1.243545,-0.11906 -0.427746,-0.075 -0.8797428,-0.18962 -1.3559927,-0.34396 l 0,-1.25678 c 0.4497916,0.23372 0.8929697,0.41011 1.3295347,0.52917 0.436561,0.11466 0.868714,0.17198 1.296461,0.17198 0.573262,0 1.014234,-0.097 1.32292,-0.29104 0.308676,-0.19844 0.463017,-0.47625 0.463022,-0.83344 -5e-6,-0.33073 -0.112453,-0.58429 -0.337344,-0.76068 -0.220492,-0.17639 -0.707767,-0.34616 -1.461827,-0.50932 l -0.423334,-0.0992 c -0.754067,-0.15875 -1.298668,-0.40129 -1.6338064,-0.72761 -0.3351406,-0.33072 -0.5027103,-0.78272 -0.5027095,-1.35599 -8e-7,-0.69673 0.246944,-1.23472 0.7408349,-1.61396 0.493888,-0.37923 1.195035,-0.56885 2.103443,-0.56886 0.449788,1e-5 0.873122,0.0331 1.270003,0.0992 0.396871,0.0661 0.762878,0.16537 1.098023,0.29766"
         style=""
         id="path3122" />
      <path
         d="m 16.379266,386.72464 5.781159,0 0,1.11126 -4.577302,5.32475 4.577302,0 0,0.97235 -5.946524,0 0,-1.11126 4.577302,-5.32475 -4.411937,0 0,-0.97235"
         style=""
         id="path3124" />
      <path
         d="m 27.392574,390.40898 c -0.983374,0 -1.664677,0.11245 -2.043911,0.33734 -0.379239,0.2249 -0.568858,0.60855 -0.568856,1.15094 -2e-6,0.43216 0.14111,0.77612 0.423335,1.03188 0.28663,0.25135 0.674686,0.37703 1.164169,0.37703 0.674685,0 1.214877,-0.23812 1.620577,-0.71438 0.4101,-0.48065 0.615152,-1.11786 0.615158,-1.91162 l 0,-0.27119 -1.210472,0 m 2.427558,-0.50271 0,4.22673 -1.217086,0 0,-1.12449 c -0.277819,0.4498 -0.623983,0.78273 -1.038492,0.99881 -0.41452,0.21167 -0.921638,0.3175 -1.521358,0.3175 -0.758477,0 -1.362609,-0.21167 -1.8124,-0.635 -0.445384,-0.42775 -0.668076,-0.99881 -0.668075,-1.71318 -1e-6,-0.83344 0.277812,-1.46183 0.83344,-1.88516 0.560034,-0.42333 1.393472,-0.635 2.500318,-0.63501 l 1.706567,0 0,-0.11906 c -6e-6,-0.56003 -0.185215,-0.99218 -0.555626,-1.29646 -0.366013,-0.30868 -0.881951,-0.46302 -1.547817,-0.46302 -0.423337,0 -0.835647,0.0507 -1.23693,0.15213 -0.401288,0.10143 -0.787139,0.25357 -1.157555,0.45641 l 0,-1.12448 c 0.445382,-0.17197 0.877535,-0.29986 1.296462,-0.38365 0.418921,-0.0882 0.826821,-0.13228 1.223701,-0.13229 1.07156,1e-5 1.871926,0.27782 2.401099,0.83344 0.529161,0.55563 0.793745,1.39789 0.793752,2.52678"
         style=""
         id="path3126" />
      <path
         d="m 38.101609,388.14678 c 0.304265,-0.5468 0.668067,-0.95029 1.091409,-1.21047 0.423326,-0.26017 0.921625,-0.39025 1.4949,-0.39026 0.771693,1e-5 1.367006,0.27121 1.785942,0.8136 0.418912,0.53799 0.628375,1.30528 0.628387,2.30188 l 0,4.47147 -1.223701,0 0,-4.43179 c -1.1e-5,-0.70996 -0.125688,-1.23692 -0.377032,-1.58089 -0.251365,-0.34395 -0.635012,-0.51593 -1.150941,-0.51593 -0.6306,0 -1.1289,0.20946 -1.494899,0.62838 -0.366015,0.41893 -0.549019,0.98999 -0.549012,1.71318 l 0,4.18705 -1.223701,0 0,-4.43179 c -6e-6,-0.71437 -0.125683,-1.24133 -0.377032,-1.58089 -0.25136,-0.34395 -0.639416,-0.51593 -1.164169,-0.51593 -0.621777,0 -1.115666,0.21167 -1.481671,0.635 -0.36601,0.41893 -0.549014,0.98778 -0.549011,1.70656 l 0,4.18705 -1.223701,0 0,-7.40836 1.223701,0 0,1.15094 c 0.27781,-0.45419 0.610744,-0.78933 0.998804,-1.00541 0.388053,-0.21607 0.848869,-0.32411 1.382451,-0.32412 0.537982,1e-5 0.994389,0.13671 1.369222,0.41011 0.379231,0.27341 0.659249,0.67028 0.840054,1.19062"
         style=""
         id="path3128" />
      <path
         d="m 54.175087,387.46548 -6.826266,2.42756 6.826266,2.41433 0,1.20385 -8.479916,-3.07579 0,-1.09802 8.479916,-3.07579 0,1.20386"
         style=""
         id="path3130" />
      <path
         d="m 59.916558,385.13714 c -0.687922,1e-5 -1.206065,0.33956 -1.554431,1.01865 -0.343962,0.6747 -0.515941,1.69114 -0.515939,3.04933 -2e-6,1.35379 0.171977,2.37023 0.515939,3.04933 0.348366,0.67469 0.866509,1.01203 1.554431,1.01203 0.692323,0 1.210466,-0.33734 1.554431,-1.01203 0.348362,-0.6791 0.522547,-1.69554 0.522553,-3.04933 -6e-6,-1.35819 -0.174191,-2.37463 -0.522553,-3.04933 -0.343965,-0.67909 -0.862108,-1.01864 -1.554431,-1.01865 m 0,-1.05834 c 1.106837,10e-6 1.9513,0.43878 2.533391,1.31631 0.586487,0.87313 0.879734,2.14314 0.879742,3.81001 -8e-6,1.66247 -0.293255,2.93247 -0.879742,3.81001 -0.582091,0.87313 -1.426554,1.30969 -2.533391,1.30969 -1.106846,0 -1.953514,-0.43656 -2.540006,-1.30969 -0.582086,-0.87754 -0.873128,-2.14754 -0.873128,-3.81001 0,-1.66687 0.291042,-2.93688 0.873128,-3.81001 0.586492,-0.87753 1.43316,-1.3163 2.540006,-1.31631"
         style=""
         id="path3132" />
      <path
         d="m 66.822201,392.45289 1.342763,0 0,1.68011 -1.342763,0 0,-1.68011 m 1.303076,-0.97235 -1.263389,0 0,-1.01865 c -2e-6,-0.44538 0.06173,-0.81138 0.185209,-1.09802 0.12347,-0.28663 0.383644,-0.61956 0.780523,-0.99881 l 0.595314,-0.58869 c 0.25135,-0.23371 0.432149,-0.4542 0.542397,-0.66146 0.114648,-0.20725 0.171974,-0.41892 0.171979,-0.63501 -5e-6,-0.39245 -0.145526,-0.70995 -0.436563,-0.9525 -0.286637,-0.24252 -0.668079,-0.36379 -1.144326,-0.3638 -0.348372,1e-5 -0.720994,0.0772 -1.117867,0.23151 -0.392468,0.15435 -0.802573,0.37925 -1.230316,0.67469 l 0,-1.24355 c 0.414514,-0.25134 0.833438,-0.43875 1.256774,-0.56224 0.427742,-0.12346 0.868715,-0.1852 1.32292,-0.18521 0.811387,10e-6 1.461822,0.21389 1.951307,0.64162 0.493884,0.42775 0.740829,0.9922 0.740835,1.69334 -6e-6,0.33515 -0.07938,0.65485 -0.238126,0.95912 -0.158756,0.29986 -0.436569,0.63941 -0.833439,1.01864 l -0.582085,0.56886 c -0.207262,0.20726 -0.354988,0.37042 -0.443178,0.48948 -0.08379,0.11466 -0.14332,0.2271 -0.178594,0.33734 -0.02646,0.0926 -0.04631,0.20506 -0.05953,0.33735 -0.01323,0.13229 -0.01985,0.31309 -0.01984,0.5424 l 0,0.81359"
         style=""
         id="path3134" />
    </g>
  </g>
  <g
     id="g34"
     transform="translate(-4.2657111,0)">
    <path
       style="fill:none;stroke:#000000;stroke-width:2"
       d="m 100,170 36.91701,0"
       id="line36" />
    <path
       style="fill:#000000"
       d="m 136.917,170 -2.5,-5 10,5 -10,5 z"
       id="polygon38" />
    <path
       style="fill:none;stroke:#000000;stroke-width:2"
       d="m 136.917,170 -2.5,-5 10,5 -10,5 z"
       id="polygon40" />
  </g>
  <g
     id="g42"
     transform="translate(-4.2657111,0)">
    <path
       style="fill:none;stroke:#000000;stroke-width:2"
       d="m 100,280 37.543,0"
       id="line44" />
    <path
       style="fill:#000000"
       d="m 137.543,280 -2.5,-5 10,5 -10,5 z"
       id="polygon46" />
    <path
       style="fill:none;stroke:#000000;stroke-width:2"
       d="m 137.543,280 -2.5,-5 10,5 -10,5 z"
       id="polygon48" />
  </g>
  <g
     id="g50"
     transform="translate(-4.2657111,0)">
    <path
       style="fill:none;stroke:#000000;stroke-width:2"
       d="m 100,390 37.543,0"
       id="line52" />
    <path
       style="fill:#000000"
       d="m 137.543,390 -2.5,-5 10,5 -10,5 z"
       id="polygon54" />
    <path
       style="fill:none;stroke:#000000;stroke-width:2"
       d="m 137.543,390 -2.5,-5 10,5 -10,5 z"
       id="polygon56" />
  </g>
  <g
     id="g58"
     transform="translate(-4.2657111,0)">
    <path
       style="fill:#ffffff"
       d="M 235.441,190 140,190 154.559,150 250,150 z"
       id="polygon60" />
    <path
       style="fill:none;stroke:#000000;stroke-width:2"
       d="M 235.441,190 140,190 154.559,150 250,150 z"
       id="polygon62" />
    <g
       style="font-size:12.80000019px;font-style:normal;font-weight:normal;text-anchor:middle;fill:#000000;font-family:sans-serif"
       id="text64">
      <path
         d="m 164.78125,164.56874 1.2625,0 0,3.94375 4.1875,-3.94375 1.625,0 -4.63125,4.35 4.9625,4.98125 -1.6625,0 -4.48125,-4.49375 0,4.49375 -1.2625,0 0,-9.33125"
         style=""
         id="path3148" />
      <path
         d="m 173.18125,164.56874 1.2625,0 0,9.33125 -1.2625,0 0,-9.33125"
         style=""
         id="path3150" />
      <path
         d="m 177.2,172.31249 1.31875,0 0,1.5875 -1.31875,0 0,-1.5875 m 0,-5.03125 1.31875,0 0,1.5875 -1.31875,0 0,-1.5875"
         style=""
         id="path3152" />
      <path
         d="m 186.41875,172.84999 0,3.7125 -1.15625,0 0,-9.6625 1.15625,0 0,1.0625 c 0.24166,-0.41666 0.54583,-0.72499 0.9125,-0.925 0.37083,-0.20416 0.8125,-0.30624 1.325,-0.30625 0.84999,10e-6 1.53958,0.33751 2.06875,1.0125 0.53333,0.67501 0.79999,1.56251 0.8,2.6625 -1e-5,1.10001 -0.26667,1.98751 -0.8,2.6625 -0.52917,0.675 -1.21876,1.0125 -2.06875,1.0125 -0.5125,0 -0.95417,-0.1 -1.325,-0.3 -0.36667,-0.20416 -0.67084,-0.51458 -0.9125,-0.93125 m 3.9125,-2.44375 c -1e-5,-0.84583 -0.17501,-1.50832 -0.525,-1.9875 -0.34584,-0.48332 -0.82292,-0.72499 -1.43125,-0.725 -0.60834,1e-5 -1.0875,0.24168 -1.4375,0.725 -0.34584,0.47918 -0.51875,1.14167 -0.51875,1.9875 0,0.84584 0.17291,1.51042 0.51875,1.99375 0.35,0.47917 0.82916,0.71875 1.4375,0.71875 0.60833,0 1.08541,-0.23958 1.43125,-0.71875 0.34999,-0.48333 0.52499,-1.14791 0.525,-1.99375"
         style=""
         id="path3154" />
      <path
         d="m 196.14375,167.70624 c -0.61667,1e-5 -1.10417,0.24168 -1.4625,0.725 -0.35834,0.47918 -0.5375,1.13751 -0.5375,1.975 0,0.83751 0.17708,1.49792 0.53125,1.98125 0.35833,0.47917 0.84791,0.71875 1.46875,0.71875 0.6125,0 1.09791,-0.24166 1.45625,-0.725 0.35833,-0.48333 0.53749,-1.14166 0.5375,-1.975 -10e-6,-0.82916 -0.17917,-1.48541 -0.5375,-1.96875 -0.35834,-0.48749 -0.84375,-0.73124 -1.45625,-0.73125 m 0,-0.975 c 1,10e-6 1.78541,0.32501 2.35625,0.975 0.57083,0.65001 0.85624,1.55001 0.85625,2.7 -10e-6,1.14584 -0.28542,2.04584 -0.85625,2.7 -0.57084,0.65 -1.35625,0.975 -2.35625,0.975 -1.00417,0 -1.79167,-0.325 -2.3625,-0.975 -0.56667,-0.65416 -0.85,-1.55416 -0.85,-2.7 0,-1.14999 0.28333,-2.04999 0.85,-2.7 0.57083,-0.64999 1.35833,-0.97499 2.3625,-0.975"
         style=""
         id="path3156" />
      <path
         d="m 200.75625,166.89999 5.4625,0 0,1.05 -4.325,5.03125 4.325,0 0,0.91875 -5.61875,0 0,-1.05 4.325,-5.03125 -4.16875,0 0,-0.91875"
         style=""
         id="path3158" />
      <path
         d="m 207.98125,166.89999 1.15,0 0,7 -1.15,0 0,-7 m 0,-2.725 1.15,0 0,1.45625 -1.15,0 0,-1.45625"
         style=""
         id="path3160" />
      <path
         d="m 212.66875,164.91249 0,1.9875 2.36875,0 0,0.89375 -2.36875,0 0,3.8 c 0,0.57084 0.0771,0.93751 0.23125,1.1 0.15833,0.1625 0.47708,0.24375 0.95625,0.24375 l 1.18125,0 0,0.9625 -1.18125,0 c -0.8875,0 -1.5,-0.16458 -1.8375,-0.49375 -0.3375,-0.33333 -0.50625,-0.93749 -0.50625,-1.8125 l 0,-3.8 -0.84375,0 0,-0.89375 0.84375,0 0,-1.9875 1.15625,0"
         style=""
         id="path3162" />
      <path
         d="m 218,163.66249 1.24375,0 -2.0375,2.35 -0.95625,0 1.75,-2.35 m -1.44375,3.2375 1.15,0 0,7 -1.15,0 0,-7 m 0.575,-0.16875 0,0"
         style=""
         id="path3164" />
      <path
         d="m 219.28125,166.89999 1.21875,0 2.1875,5.875 2.1875,-5.875 1.21875,0 -2.625,7 -1.5625,0 -2.625,-7"
         style=""
         id="path3166" />
    </g>
  </g>
  <g
     id="g68"
     transform="translate(-4.2657111,0)">
    <path
       style="fill:#ffffff"
       d="M 235.441,300 140,300 154.559,260 250,260 z"
       id="polygon70" />
    <path
       style="fill:none;stroke:#000000;stroke-width:2"
       d="M 235.441,300 140,300 154.559,260 250,260 z"
       id="polygon72" />
    <g
       style="font-size:12.80000019px;font-style:normal;font-weight:normal;text-anchor:middle;fill:#000000;font-family:sans-serif"
       id="text74">
      <path
         d="m 170.36875,274.56874 1.2625,0 0,3.94375 4.1875,-3.94375 1.625,0 -4.63125,4.35 4.9625,4.98125 -1.6625,0 -4.48125,-4.49375 0,4.49375 -1.2625,0 0,-9.33125"
         style=""
         id="path3171" />
      <path
         d="m 178.76875,274.56874 1.2625,0 0,9.33125 -1.2625,0 0,-9.33125"
         style=""
         id="path3173" />
      <path
         d="m 182.7875,282.31249 1.31875,0 0,1.5875 -1.31875,0 0,-1.5875 m 0,-5.03125 1.31875,0 0,1.5875 -1.31875,0 0,-1.5875"
         style=""
         id="path3175" />
      <path
         d="m 196.7125,279.67499 0,4.225 -1.15,0 0,-4.1875 c -1e-5,-0.66249 -0.12917,-1.15832 -0.3875,-1.4875 -0.25834,-0.32916 -0.64584,-0.49374 -1.1625,-0.49375 -0.62084,10e-6 -1.11042,0.19793 -1.46875,0.59375 -0.35834,0.39584 -0.5375,0.93543 -0.5375,1.61875 l 0,3.95625 -1.15625,0 0,-7 1.15625,0 0,1.0875 c 0.275,-0.42082 0.59791,-0.73541 0.96875,-0.94375 0.375,-0.20832 0.80625,-0.31249 1.29375,-0.3125 0.80416,10e-6 1.41249,0.25001 1.825,0.75 0.41249,0.49584 0.61874,1.22709 0.61875,2.19375"
         style=""
         id="path3177" />
      <path
         d="m 198.9,281.13749 0,-4.2375 1.15,0 0,4.19375 c 0,0.66251 0.12916,1.16042 0.3875,1.49375 0.25833,0.32917 0.64583,0.49375 1.1625,0.49375 0.62083,0 1.11041,-0.19791 1.46875,-0.59375 0.36249,-0.39583 0.54374,-0.93541 0.54375,-1.61875 l 0,-3.96875 1.15,0 0,7 -1.15,0 0,-1.075 c -0.27917,0.425 -0.60417,0.74167 -0.975,0.95 -0.36667,0.20417 -0.79375,0.30625 -1.28125,0.30625 -0.80417,0 -1.41459,-0.25 -1.83125,-0.75 -0.41667,-0.5 -0.625,-1.23124 -0.625,-2.19375 m 2.89375,-4.40625 0,0"
         style=""
         id="path3179" />
      <path
         d="m 207.14375,274.17499 1.15,0 0,9.725 -1.15,0 0,-9.725"
         style=""
         id="path3181" />
      <path
         d="m 210.69375,274.17499 1.15,0 0,9.725 -1.15,0 0,-9.725"
         style=""
         id="path3183" />
      <path
         d="m 217.425,280.38124 c -0.92917,1e-5 -1.57292,0.10626 -1.93125,0.31875 -0.35833,0.21251 -0.5375,0.57501 -0.5375,1.0875 0,0.40834 0.13333,0.73334 0.4,0.975 0.27083,0.2375 0.6375,0.35625 1.1,0.35625 0.6375,0 1.14791,-0.225 1.53125,-0.675 0.3875,-0.45416 0.58125,-1.05624 0.58125,-1.80625 l 0,-0.25625 -1.14375,0 m 2.29375,-0.475 0,3.99375 -1.15,0 0,-1.0625 c -0.2625,0.425 -0.58959,0.73959 -0.98125,0.94375 -0.39167,0.2 -0.87083,0.3 -1.4375,0.3 -0.71667,0 -1.2875,-0.2 -1.7125,-0.6 -0.42083,-0.40416 -0.63125,-0.94374 -0.63125,-1.61875 0,-0.78749 0.2625,-1.38124 0.7875,-1.78125 0.52917,-0.39999 1.31667,-0.59999 2.3625,-0.6 l 1.6125,0 0,-0.1125 c 0,-0.52916 -0.175,-0.93749 -0.525,-1.225 -0.34584,-0.29166 -0.83333,-0.43749 -1.4625,-0.4375 -0.4,1e-5 -0.78958,0.0479 -1.16875,0.14375 -0.37917,0.0958 -0.74375,0.23959 -1.09375,0.43125 l 0,-1.0625 c 0.42083,-0.16249 0.82917,-0.28332 1.225,-0.3625 0.39583,-0.0833 0.78125,-0.12499 1.15625,-0.125 1.0125,10e-6 1.76875,0.26251 2.26875,0.7875 0.5,0.52501 0.75,1.32084 0.75,2.3875"
         style=""
         id="path3185" />
    </g>
  </g>
  <g
     id="g78"
     transform="translate(-4.2657111,0)">
    <path
       style="fill:#ffffff"
       d="m 236.524,410 -96.524,0 14.559,-40 96.523,0 z"
       id="polygon80" />
    <path
       style="fill:none;stroke:#000000;stroke-width:2"
       d="m 236.524,410 -96.524,0 14.559,-40 96.523,0 z"
       id="polygon82" />
    <g
       style="font-size:12.80000019px;font-style:normal;font-weight:normal;text-anchor:middle;fill:#000000;font-family:sans-serif"
       id="text84">
      <path
         d="m 162.44725,384.56874 1.2625,0 0,3.94375 4.1875,-3.94375 1.625,0 -4.63125,4.35 4.9625,4.98125 -1.6625,0 -4.48125,-4.49375 0,4.49375 -1.2625,0 0,-9.33125"
         style=""
         id="path3190" />
      <path
         d="m 170.84725,384.56874 1.2625,0 0,9.33125 -1.2625,0 0,-9.33125"
         style=""
         id="path3192" />
      <path
         d="m 174.866,392.31249 1.31875,0 0,1.5875 -1.31875,0 0,-1.5875 m 0,-5.03125 1.31875,0 0,1.5875 -1.31875,0 0,-1.5875"
         style=""
         id="path3194" />
      <path
         d="m 188.791,389.67499 0,4.225 -1.15,0 0,-4.1875 c -1e-5,-0.66249 -0.12917,-1.15832 -0.3875,-1.4875 -0.25834,-0.32916 -0.64584,-0.49374 -1.1625,-0.49375 -0.62084,10e-6 -1.11042,0.19793 -1.46875,0.59375 -0.35834,0.39584 -0.5375,0.93543 -0.5375,1.61875 l 0,3.95625 -1.15625,0 0,-7 1.15625,0 0,1.0875 c 0.275,-0.42082 0.59791,-0.73541 0.96875,-0.94375 0.375,-0.20832 0.80625,-0.31249 1.29375,-0.3125 0.80416,10e-6 1.41249,0.25001 1.825,0.75 0.41249,0.49584 0.61874,1.22709 0.61875,2.19375"
         style=""
         id="path3196" />
      <path
         d="m 197.08475,390.11249 0,0.5625 -5.2875,0 c 0.05,0.79167 0.2875,1.39584 0.7125,1.8125 0.42916,0.4125 1.025,0.61875 1.7875,0.61875 0.44166,0 0.86875,-0.0542 1.28125,-0.1625 0.41666,-0.10833 0.82916,-0.27083 1.2375,-0.4875 l 0,1.0875 c -0.41251,0.175 -0.83542,0.30834 -1.26875,0.4 -0.43334,0.0917 -0.87292,0.1375 -1.31875,0.1375 -1.11667,0 -2.00209,-0.325 -2.65625,-0.975 -0.65,-0.64999 -0.975,-1.52916 -0.975,-2.6375 0,-1.14582 0.30833,-2.05416 0.925,-2.725 0.62083,-0.67499 1.45625,-1.01249 2.50625,-1.0125 0.94166,10e-6 1.68541,0.30418 2.23125,0.9125 0.54999,0.60418 0.82499,1.42709 0.825,2.46875 m -1.15,-0.3375 c -0.008,-0.62916 -0.18542,-1.13124 -0.53125,-1.50625 -0.34167,-0.37499 -0.79584,-0.56249 -1.3625,-0.5625 -0.64167,1e-5 -1.15625,0.18126 -1.54375,0.54375 -0.38333,0.36251 -0.60417,0.87293 -0.6625,1.53125 l 4.1,-0.006"
         style=""
         id="path3198" />
      <path
         d="m 203.5785,390.31874 c -1e-5,-0.83333 -0.17292,-1.47916 -0.51875,-1.9375 -0.34167,-0.45832 -0.82292,-0.68749 -1.44375,-0.6875 -0.61667,1e-5 -1.09792,0.22918 -1.44375,0.6875 -0.34167,0.45834 -0.5125,1.10417 -0.5125,1.9375 0,0.82917 0.17083,1.47292 0.5125,1.93125 0.34583,0.45834 0.82708,0.6875 1.44375,0.6875 0.62083,0 1.10208,-0.22916 1.44375,-0.6875 0.34583,-0.45833 0.51874,-1.10208 0.51875,-1.93125 m 1.15,2.7125 c -1e-5,1.19167 -0.26459,2.07709 -0.79375,2.65625 -0.52917,0.58333 -1.33959,0.875 -2.43125,0.875 -0.40417,0 -0.78542,-0.0312 -1.14375,-0.0937 -0.35833,-0.0583 -0.70625,-0.15 -1.04375,-0.275 l 0,-1.11875 c 0.3375,0.18334 0.67083,0.31875 1,0.40625 0.32916,0.0875 0.66458,0.13125 1.00625,0.13125 0.75416,0 1.31875,-0.19791 1.69375,-0.59375 0.375,-0.39166 0.56249,-0.98541 0.5625,-1.78125 l 0,-0.56875 c -0.2375,0.4125 -0.54167,0.72084 -0.9125,0.925 -0.37084,0.20417 -0.81459,0.30625 -1.33125,0.30625 -0.85834,0 -1.55,-0.32708 -2.075,-0.98125 -0.525,-0.65416 -0.7875,-1.52083 -0.7875,-2.6 0,-1.08332 0.2625,-1.95207 0.7875,-2.60625 0.525,-0.65416 1.21666,-0.98124 2.075,-0.98125 0.51666,10e-6 0.96041,0.10209 1.33125,0.30625 0.37083,0.20418 0.675,0.51251 0.9125,0.925 l 0,-1.0625 1.15,0 0,6.13125"
         style=""
         id="path3200" />
      <path
         d="m 210.2785,390.38124 c -0.92917,1e-5 -1.57292,0.10626 -1.93125,0.31875 -0.35833,0.21251 -0.5375,0.57501 -0.5375,1.0875 0,0.40834 0.13333,0.73334 0.4,0.975 0.27083,0.2375 0.6375,0.35625 1.1,0.35625 0.6375,0 1.14791,-0.225 1.53125,-0.675 0.3875,-0.45416 0.58125,-1.05624 0.58125,-1.80625 l 0,-0.25625 -1.14375,0 m 2.29375,-0.475 0,3.99375 -1.15,0 0,-1.0625 c -0.2625,0.425 -0.58959,0.73959 -0.98125,0.94375 -0.39167,0.2 -0.87084,0.3 -1.4375,0.3 -0.71667,0 -1.2875,-0.2 -1.7125,-0.6 -0.42083,-0.40416 -0.63125,-0.94374 -0.63125,-1.61875 0,-0.78749 0.2625,-1.38124 0.7875,-1.78125 0.52917,-0.39999 1.31666,-0.59999 2.3625,-0.6 l 1.6125,0 0,-0.1125 c 0,-0.52916 -0.175,-0.93749 -0.525,-1.225 -0.34584,-0.29166 -0.83334,-0.43749 -1.4625,-0.4375 -0.4,1e-5 -0.78959,0.0479 -1.16875,0.14375 -0.37917,0.0958 -0.74375,0.23959 -1.09375,0.43125 l 0,-1.0625 c 0.42083,-0.16249 0.82917,-0.28332 1.225,-0.3625 0.39583,-0.0833 0.78125,-0.12499 1.15625,-0.125 1.0125,10e-6 1.76875,0.26251 2.26875,0.7875 0.49999,0.52501 0.74999,1.32084 0.75,2.3875"
         style=""
         id="path3202" />
      <path
         d="m 216.08475,384.91249 0,1.9875 2.36875,0 0,0.89375 -2.36875,0 0,3.8 c 0,0.57084 0.0771,0.93751 0.23125,1.1 0.15833,0.1625 0.47708,0.24375 0.95625,0.24375 l 1.18125,0 0,0.9625 -1.18125,0 c -0.8875,0 -1.5,-0.16458 -1.8375,-0.49375 -0.3375,-0.33333 -0.50625,-0.93749 -0.50625,-1.8125 l 0,-3.8 -0.84375,0 0,-0.89375 0.84375,0 0,-1.9875 1.15625,0"
         style=""
         id="path3204" />
      <path
         d="m 221.416,383.66249 1.24375,0 -2.0375,2.35 -0.95625,0 1.75,-2.35 m -1.44375,3.2375 1.15,0 0,7 -1.15,0 0,-7 m 0.575,-0.16875 0,0"
         style=""
         id="path3206" />
      <path
         d="m 222.69725,386.89999 1.21875,0 2.1875,5.875 2.1875,-5.875 1.21875,0 -2.625,7 -1.5625,0 -2.625,-7"
         style=""
         id="path3208" />
    </g>
  </g>
  <g
     id="g88"
     transform="translate(-4.2657111,0)">
    <path
       style="fill:#000000"
       d="m 44,210 c 0,2.20914 -1.790861,4 -4,4 -2.209139,0 -4,-1.79086 -4,-4 0,-2.20914 1.790861,-4 4,-4 2.209139,0 4,1.79086 4,4 z"
       id="ellipse90" />
    <path
       style="fill:none;stroke:#000000"
       d="m 44,210 c 0,2.20914 -1.790861,4 -4,4 -2.209139,0 -4,-1.79086 -4,-4 0,-2.20914 1.790861,-4 4,-4 2.209139,0 4,1.79086 4,4 z"
       id="ellipse92" />
  </g>
  <g
     id="g94"
     transform="translate(-4.2657111,0)">
    <path
       style="fill:none;stroke:#000000;stroke-width:2"
       d="m 243.358,170 26.642,0 0,40 -216.2639,0"
       id="polyline96" />
    <path
       style="fill:#000000"
       d="m 53.7361,210 2.5,5 -10,-5 10,-5 z"
       id="polygon98" />
    <path
       style="fill:none;stroke:#000000;stroke-width:2"
       d="m 53.7361,210 2.5,5 -10,-5 10,-5 z"
       id="polygon100" />
  </g>
  <g
     id="g102"
     transform="translate(-4.2657111,0)">
    <path
       style="fill:#000000"
       d="m 44,320 c 0,2.20914 -1.790861,4 -4,4 -2.209139,0 -4,-1.79086 -4,-4 0,-2.20914 1.790861,-4 4,-4 2.209139,0 4,1.79086 4,4 z"
       id="ellipse104" />
    <path
       style="fill:none;stroke:#000000"
       d="m 44,320 c 0,2.20914 -1.790861,4 -4,4 -2.209139,0 -4,-1.79086 -4,-4 0,-2.20914 1.790861,-4 4,-4 2.209139,0 4,1.79086 4,4 z"
       id="ellipse106" />
  </g>
  <g
     id="g108"
     transform="translate(-4.2657111,0)">
    <path
       style="fill:none;stroke:#000000;stroke-width:2"
       d="m 243.358,280 26.642,0 0,40 -216.2639,0"
       id="polyline110" />
    <path
       style="fill:#000000"
       d="m 53.7361,320 2.5,5 -10,-5 10,-5 z"
       id="polygon112" />
    <path
       style="fill:none;stroke:#000000;stroke-width:2"
       d="m 53.7361,320 2.5,5 -10,-5 10,-5 z"
       id="polygon114" />
  </g>
  <g
     id="g116"
     transform="translate(-4.2657111,0)">
    <path
       style="fill:#000000"
       d="m 44,430 c 0,2.20914 -1.790861,4 -4,4 -2.209139,0 -4,-1.79086 -4,-4 0,-2.20914 1.790861,-4 4,-4 2.209139,0 4,1.79086 4,4 z"
       id="ellipse118" />
    <path
       style="fill:none;stroke:#000000"
       d="m 44,430 c 0,2.20914 -1.790861,4 -4,4 -2.209139,0 -4,-1.79086 -4,-4 0,-2.20914 1.790861,-4 4,-4 2.209139,0 4,1.79086 4,4 z"
       id="ellipse120" />
  </g>
  <g
     id="g122"
     transform="translate(-4.2657111,0)">
    <path
       style="fill:none;stroke:#000000;stroke-width:2"
       d="m 244.423,390 25.577,0 0,40 -216.2639,0"
       id="polyline124" />
    <path
       style="fill:#000000"
       d="m 53.7361,430 2.5,5 -10,-5 10,-5 z"
       id="polygon126" />
    <path
       style="fill:none;stroke:#000000;stroke-width:2"
       d="m 53.7361,430 2.5,5 -10,-5 10,-5 z"
       id="polygon128" />
  </g>
  <g
     style="font-size:13.54669952px;font-style:normal;font-weight:normal;text-anchor:start;fill:#000000;font-family:sans-serif"
     id="text130">
    <path
       d="m 97.010909,156.59165 1.217086,0 0,7.40835 -1.217086,0 0,-7.40835 m 0,-2.88397 1.217086,0 0,1.54121 -1.217086,0 0,-1.54121"
       style=""
       id="path3226" />
    <path
       d="m 105.64296,160.20983 c -1e-5,-0.88194 -0.18301,-1.56545 -0.54901,-2.05052 -0.3616,-0.48507 -0.87093,-0.7276 -1.52797,-0.72761 -0.65265,1e-5 -1.16197,0.24254 -1.52798,0.72761 -0.3616,0.48507 -0.54239,1.16858 -0.54239,2.05052 0,0.87754 0.18079,1.55885 0.54239,2.04392 0.36601,0.48507 0.87533,0.7276 1.52798,0.7276 0.65704,0 1.16637,-0.24253 1.52797,-0.7276 0.366,-0.48507 0.549,-1.16638 0.54901,-2.04392 m 1.21709,2.87074 c -1e-5,1.26118 -0.28003,2.19825 -0.84006,2.81121 -0.56004,0.61736 -1.41773,0.92604 -2.57308,0.92604 -0.42774,0 -0.83123,-0.0331 -1.21047,-0.0992 -0.37924,-0.0617 -0.74745,-0.15875 -1.10464,-0.29104 l 0,-1.18402 c 0.35719,0.19403 0.70997,0.33735 1.05834,0.42995 0.34837,0.0926 0.70335,0.13891 1.06495,0.13891 0.79816,0 1.39568,-0.20946 1.79256,-0.62839 0.39687,-0.41451 0.5953,-1.0429 0.59531,-1.88516 l 0,-0.60193 c -0.25136,0.43657 -0.57327,0.76289 -0.96573,0.97896 -0.39247,0.21608 -0.86211,0.32412 -1.40891,0.32412 -0.90841,0 -1.64042,-0.34616 -2.19605,-1.03849 -0.55562,-0.69233 -0.83344,-1.60955 -0.83344,-2.75168 0,-1.14652 0.27782,-2.06595 0.83344,-2.75828 0.55563,-0.69232 1.28764,-1.03849 2.19605,-1.0385 0.5468,1e-5 1.01644,0.10805 1.40891,0.32412 0.39246,0.21608 0.71437,0.5424 0.96573,0.97896 l 0,-1.12448 1.21709,0 0,6.48892"
       style=""
       id="path3228" />
    <path
       d="m 115.70377,159.99155 0,0.59532 -5.59595,0 c 0.0529,0.83785 0.30426,1.47726 0.75406,1.91823 0.4542,0.43657 1.08479,0.65485 1.89178,0.65485 0.46742,0 0.91942,-0.0573 1.35599,-0.17198 0.44096,-0.11466 0.87753,-0.28664 1.30969,-0.51594 l 0,1.15094 c -0.43657,0.18521 -0.88416,0.32632 -1.34277,0.42333 -0.45861,0.097 -0.92384,0.14552 -1.39568,0.14552 -1.18181,0 -2.11887,-0.34396 -2.8112,-1.03187 -0.68792,-0.68792 -1.03188,-1.61837 -1.03188,-2.79137 0,-1.21267 0.32632,-2.17399 0.97896,-2.88396 0.65705,-0.71437 1.5412,-1.07156 2.65246,-1.07157 0.99659,1e-5 1.78373,0.32192 2.36141,0.96574 0.58208,0.63941 0.87312,1.51033 0.87313,2.61276 m -1.21709,-0.35719 c -0.009,-0.66586 -0.19624,-1.19723 -0.56224,-1.59411 -0.3616,-0.39687 -0.84226,-0.59531 -1.44198,-0.59532 -0.67911,1e-5 -1.22371,0.19183 -1.63381,0.57547 -0.4057,0.38365 -0.63941,0.92385 -0.70115,1.62058 l 4.33918,-0.007"
       style=""
       id="path3230" />
    <path
       d="m 123.85957,159.52853 0,4.47147 -1.21709,0 0,-4.43178 c 0,-0.70114 -0.13671,-1.2259 -0.4101,-1.57428 -0.27341,-0.34836 -0.68352,-0.52254 -1.23032,-0.52255 -0.65705,10e-6 -1.1752,0.20947 -1.55443,0.62839 -0.37924,0.41893 -0.56886,0.98999 -0.56885,1.71318 l 0,4.18704 -1.22371,0 0,-7.40835 1.22371,0 0,1.15094 c 0.29103,-0.44538 0.63279,-0.77831 1.02526,-0.99881 0.39687,-0.22047 0.85328,-0.33072 1.36922,-0.33073 0.85107,1e-5 1.49489,0.2646 1.93146,0.79376 0.43656,0.52476 0.65484,1.29867 0.65485,2.32172"
       style=""
       id="path3232" />
  </g>
  <g
     style="font-size:13.54669952px;font-style:normal;font-weight:normal;text-anchor:start;fill:#000000;font-family:sans-serif"
     id="text134">
    <path
       d="m -44.830903,159.52853 0,4.47147 -1.217086,0 0,-4.43178 c -7e-6,-0.70114 -0.136708,-1.2259 -0.410105,-1.57428 -0.273409,-0.34836 -0.683514,-0.52254 -1.230316,-0.52255 -0.657054,10e-6 -1.175197,0.20947 -1.554431,0.62839 -0.379239,0.41893 -0.568858,0.98999 -0.568855,1.71318 l 0,4.18704 -1.223701,0 0,-7.40835 1.223701,0 0,1.15094 c 0.291039,-0.44538 0.632793,-0.77831 1.025263,-0.99881 0.396872,-0.22047 0.853279,-0.33072 1.369222,-0.33073 0.851072,1e-5 1.494893,0.2646 1.931463,0.79376 0.436556,0.52476 0.654838,1.29867 0.654845,2.32172"
       style=""
       id="path3235" />
    <path
       d="m -36.05333,159.99155 0,0.59532 -5.595951,0 c 0.05291,0.83785 0.304269,1.47726 0.754064,1.91823 0.4542,0.43657 1.084791,0.65485 1.891776,0.65485 0.467426,0 0.919424,-0.0573 1.355993,-0.17198 0.440967,-0.11466 0.87753,-0.28664 1.30969,-0.51594 l 0,1.15094 c -0.43657,0.18521 -0.884158,0.32632 -1.342763,0.42333 -0.458618,0.097 -0.923844,0.14552 -1.395681,0.14552 -1.181812,0 -2.118879,-0.34396 -2.811205,-1.03187 -0.687919,-0.68792 -1.031878,-1.61837 -1.031877,-2.79137 -1e-6,-1.21267 0.326319,-2.17399 0.978961,-2.88396 0.657048,-0.71437 1.541198,-1.07156 2.652454,-1.07157 0.996594,1e-5 1.783731,0.32192 2.361412,0.96574 0.582077,0.63941 0.87312,1.51033 0.873127,2.61276 m -1.217086,-0.35719 c -0.0088,-0.66586 -0.196239,-1.19723 -0.562241,-1.59411 -0.361604,-0.39687 -0.842264,-0.59531 -1.441983,-0.59532 -0.679102,1e-5 -1.223704,0.19183 -1.633806,0.57547 -0.405698,0.38365 -0.639413,0.92385 -0.701147,1.62058 l 4.339177,-0.007"
       style=""
       id="path3237" />
    <path
       d="m -28.28779,158.01379 c 0.304264,-0.5468 0.668067,-0.95029 1.091409,-1.21047 0.423326,-0.26017 0.921625,-0.39026 1.494899,-0.39027 0.771693,1e-5 1.367007,0.27121 1.785942,0.8136 0.418913,0.53799 0.628375,1.30529 0.628387,2.30188 l 0,4.47147 -1.223701,0 0,-4.43178 c -1.1e-5,-0.70996 -0.125688,-1.23693 -0.377032,-1.58089 -0.251365,-0.34395 -0.635011,-0.51593 -1.15094,-0.51594 -0.630601,10e-6 -1.1289,0.20947 -1.4949,0.62839 -0.366015,0.41893 -0.549019,0.98999 -0.549011,1.71318 l 0,4.18704 -1.223701,0 0,-4.43178 c -6e-6,-0.71437 -0.125684,-1.24134 -0.377032,-1.58089 -0.251361,-0.34395 -0.639417,-0.51593 -1.16417,-0.51594 -0.621776,10e-6 -1.115666,0.21167 -1.48167,0.635 -0.366011,0.41893 -0.549014,0.98779 -0.549012,1.70657 l 0,4.18704 -1.223701,0 0,-7.40835 1.223701,0 0,1.15094 c 0.27781,-0.4542 0.610745,-0.78934 0.998805,-1.00542 0.388052,-0.21607 0.848869,-0.32411 1.382451,-0.32412 0.537982,1e-5 0.994389,0.13671 1.369222,0.41011 0.37923,0.27341 0.659248,0.67029 0.840054,1.19063"
       style=""
       id="path3239" />
  </g>
  <g
     style="font-size:13.54669952px;font-style:normal;font-weight:normal;text-anchor:start;fill:#000000;font-family:sans-serif"
     id="text138">
    <path
       d="m 97.010909,266.59165 1.217086,0 0,7.40835 -1.217086,0 0,-7.40835 m 0,-2.88397 1.217086,0 0,1.54121 -1.217086,0 0,-1.54121"
       style=""
       id="path3242" />
    <path
       d="m 105.64296,270.20983 c -1e-5,-0.88194 -0.18301,-1.56545 -0.54901,-2.05052 -0.3616,-0.48507 -0.87093,-0.7276 -1.52797,-0.72761 -0.65265,1e-5 -1.16197,0.24254 -1.52798,0.72761 -0.3616,0.48507 -0.54239,1.16858 -0.54239,2.05052 0,0.87754 0.18079,1.55885 0.54239,2.04392 0.36601,0.48507 0.87533,0.7276 1.52798,0.7276 0.65704,0 1.16637,-0.24253 1.52797,-0.7276 0.366,-0.48507 0.549,-1.16638 0.54901,-2.04392 m 1.21709,2.87074 c -1e-5,1.26118 -0.28003,2.19825 -0.84006,2.81121 -0.56004,0.61736 -1.41773,0.92604 -2.57308,0.92604 -0.42774,0 -0.83123,-0.0331 -1.21047,-0.0992 -0.37924,-0.0617 -0.74745,-0.15875 -1.10464,-0.29104 l 0,-1.18402 c 0.35719,0.19403 0.70997,0.33735 1.05834,0.42995 0.34837,0.0926 0.70335,0.13891 1.06495,0.13891 0.79816,0 1.39568,-0.20946 1.79256,-0.62839 0.39687,-0.41451 0.5953,-1.0429 0.59531,-1.88516 l 0,-0.60193 c -0.25136,0.43657 -0.57327,0.76289 -0.96573,0.97896 -0.39247,0.21608 -0.86211,0.32412 -1.40891,0.32412 -0.90841,0 -1.64042,-0.34616 -2.19605,-1.03849 -0.55562,-0.69233 -0.83344,-1.60955 -0.83344,-2.75168 0,-1.14652 0.27782,-2.06595 0.83344,-2.75828 0.55563,-0.69232 1.28764,-1.03849 2.19605,-1.0385 0.5468,10e-6 1.01644,0.10805 1.40891,0.32412 0.39246,0.21608 0.71437,0.5424 0.96573,0.97896 l 0,-1.12448 1.21709,0 0,6.48892"
       style=""
       id="path3244" />
    <path
       d="m 115.70377,269.99155 0,0.59532 -5.59595,0 c 0.0529,0.83785 0.30426,1.47726 0.75406,1.91823 0.4542,0.43657 1.08479,0.65485 1.89178,0.65485 0.46742,0 0.91942,-0.0573 1.35599,-0.17198 0.44096,-0.11466 0.87753,-0.28664 1.30969,-0.51594 l 0,1.15094 c -0.43657,0.18521 -0.88416,0.32632 -1.34277,0.42333 -0.45861,0.097 -0.92384,0.14552 -1.39568,0.14552 -1.18181,0 -2.11887,-0.34396 -2.8112,-1.03187 -0.68792,-0.68792 -1.03188,-1.61837 -1.03188,-2.79137 0,-1.21267 0.32632,-2.17399 0.97896,-2.88396 0.65705,-0.71437 1.5412,-1.07156 2.65246,-1.07157 0.99659,10e-6 1.78373,0.32192 2.36141,0.96574 0.58208,0.63941 0.87312,1.51033 0.87313,2.61276 m -1.21709,-0.35719 c -0.009,-0.66586 -0.19624,-1.19723 -0.56224,-1.59411 -0.3616,-0.39687 -0.84226,-0.59531 -1.44198,-0.59532 -0.67911,10e-6 -1.22371,0.19183 -1.63381,0.57547 -0.4057,0.38365 -0.63941,0.92385 -0.70115,1.62058 l 4.33918,-0.007"
       style=""
       id="path3246" />
    <path
       d="m 123.85957,269.52853 0,4.47147 -1.21709,0 0,-4.43178 c 0,-0.70114 -0.13671,-1.2259 -0.4101,-1.57428 -0.27341,-0.34836 -0.68352,-0.52254 -1.23032,-0.52255 -0.65705,1e-5 -1.1752,0.20947 -1.55443,0.62839 -0.37924,0.41893 -0.56886,0.98999 -0.56885,1.71318 l 0,4.18704 -1.22371,0 0,-7.40835 1.22371,0 0,1.15094 c 0.29103,-0.44538 0.63279,-0.77831 1.02526,-0.99881 0.39687,-0.22047 0.85328,-0.33072 1.36922,-0.33073 0.85107,10e-6 1.49489,0.2646 1.93146,0.79376 0.43656,0.52476 0.65484,1.29867 0.65485,2.32172"
       style=""
       id="path3248" />
  </g>
  <g
     style="font-size:13.54669952px;font-style:normal;font-weight:normal;text-anchor:start;fill:#000000;font-family:sans-serif"
     id="text142">
    <path
       d="m 97.010909,376.59165 1.217086,0 0,7.40835 -1.217086,0 0,-7.40835 m 0,-2.88397 1.217086,0 0,1.54121 -1.217086,0 0,-1.54121"
       style=""
       id="path3251" />
    <path
       d="m 105.64296,380.20983 c -1e-5,-0.88194 -0.18301,-1.56545 -0.54901,-2.05052 -0.3616,-0.48507 -0.87093,-0.7276 -1.52797,-0.72761 -0.65265,1e-5 -1.16197,0.24254 -1.52798,0.72761 -0.3616,0.48507 -0.54239,1.16858 -0.54239,2.05052 0,0.87754 0.18079,1.55885 0.54239,2.04392 0.36601,0.48507 0.87533,0.7276 1.52798,0.7276 0.65704,0 1.16637,-0.24253 1.52797,-0.7276 0.366,-0.48507 0.549,-1.16638 0.54901,-2.04392 m 1.21709,2.87074 c -1e-5,1.26118 -0.28003,2.19825 -0.84006,2.81121 -0.56004,0.61736 -1.41773,0.92604 -2.57308,0.92604 -0.42774,0 -0.83123,-0.0331 -1.21047,-0.0992 -0.37924,-0.0617 -0.74745,-0.15875 -1.10464,-0.29104 l 0,-1.18402 c 0.35719,0.19403 0.70997,0.33735 1.05834,0.42995 0.34837,0.0926 0.70335,0.13891 1.06495,0.13891 0.79816,0 1.39568,-0.20946 1.79256,-0.62839 0.39687,-0.41451 0.5953,-1.0429 0.59531,-1.88516 l 0,-0.60193 c -0.25136,0.43657 -0.57327,0.76289 -0.96573,0.97896 -0.39247,0.21608 -0.86211,0.32412 -1.40891,0.32412 -0.90841,0 -1.64042,-0.34616 -2.19605,-1.03849 -0.55562,-0.69233 -0.83344,-1.60955 -0.83344,-2.75168 0,-1.14652 0.27782,-2.06595 0.83344,-2.75828 0.55563,-0.69232 1.28764,-1.03849 2.19605,-1.0385 0.5468,10e-6 1.01644,0.10805 1.40891,0.32412 0.39246,0.21608 0.71437,0.5424 0.96573,0.97896 l 0,-1.12448 1.21709,0 0,6.48892"
       style=""
       id="path3253" />
    <path
       d="m 115.70377,379.99155 0,0.59532 -5.59595,0 c 0.0529,0.83785 0.30426,1.47726 0.75406,1.91823 0.4542,0.43657 1.08479,0.65485 1.89178,0.65485 0.46742,0 0.91942,-0.0573 1.35599,-0.17198 0.44096,-0.11466 0.87753,-0.28664 1.30969,-0.51594 l 0,1.15094 c -0.43657,0.18521 -0.88416,0.32632 -1.34277,0.42333 -0.45861,0.097 -0.92384,0.14552 -1.39568,0.14552 -1.18181,0 -2.11887,-0.34396 -2.8112,-1.03187 -0.68792,-0.68792 -1.03188,-1.61837 -1.03188,-2.79137 0,-1.21267 0.32632,-2.17399 0.97896,-2.88396 0.65705,-0.71437 1.5412,-1.07156 2.65246,-1.07157 0.99659,10e-6 1.78373,0.32192 2.36141,0.96574 0.58208,0.63941 0.87312,1.51033 0.87313,2.61276 m -1.21709,-0.35719 c -0.009,-0.66586 -0.19624,-1.19723 -0.56224,-1.59411 -0.3616,-0.39687 -0.84226,-0.59531 -1.44198,-0.59532 -0.67911,10e-6 -1.22371,0.19183 -1.63381,0.57547 -0.4057,0.38365 -0.63941,0.92385 -0.70115,1.62058 l 4.33918,-0.007"
       style=""
       id="path3255" />
    <path
       d="m 123.85957,379.52853 0,4.47147 -1.21709,0 0,-4.43178 c 0,-0.70114 -0.13671,-1.2259 -0.4101,-1.57428 -0.27341,-0.34836 -0.68352,-0.52254 -1.23032,-0.52255 -0.65705,1e-5 -1.1752,0.20947 -1.55443,0.62839 -0.37924,0.41893 -0.56886,0.98999 -0.56885,1.71318 l 0,4.18704 -1.22371,0 0,-7.40835 1.22371,0 0,1.15094 c 0.29103,-0.44538 0.63279,-0.77831 1.02526,-0.99881 0.39687,-0.22047 0.85328,-0.33072 1.36922,-0.33073 0.85107,10e-6 1.49489,0.2646 1.93146,0.79376 0.43656,0.52476 0.65484,1.29867 0.65485,2.32172"
       style=""
       id="path3257" />
  </g>
  <g
     id="g146"
     transform="translate(-4.2657111,0)">
    <path
       style="fill:none;stroke:#000000;stroke-width:2"
       d="m -21,170 -29,0 0,40 76.2594,0"
       id="polyline148" />
    <path
       style="fill:#000000"
       d="m 26.2594,210 -2.5,-5 10,5 -10,5 z"
       id="polygon150" />
    <path
       style="fill:none;stroke:#000000;stroke-width:2"
       d="m 26.2594,210 -2.5,-5 10,5 -10,5 z"
       id="polygon152" />
  </g>
  <g
     id="g154"
     transform="translate(-4.2657111,0)">
    <path
       style="fill:none;stroke:#000000;stroke-width:2"
       d="m 40,214.008 0,25.25601"
       id="line156" />
    <path
       style="fill:#000000"
       d="m 40,239.264 5,-2.5 -5,10 -5,-10 z"
       id="polygon158" />
    <path
       style="fill:none;stroke:#000000;stroke-width:2"
       d="m 40,239.264 5,-2.5 -5,10 -5,-10 z"
       id="polygon160" />
  </g>
  <g
     style="font-size:13.54669952px;font-style:normal;font-weight:normal;text-anchor:start;fill:#000000;font-family:sans-serif"
     id="text162">
    <path
       d="m -44.830903,269.52853 0,4.47147 -1.217086,0 0,-4.43178 c -7e-6,-0.70114 -0.136708,-1.2259 -0.410105,-1.57428 -0.273409,-0.34836 -0.683514,-0.52254 -1.230316,-0.52255 -0.657054,1e-5 -1.175197,0.20947 -1.554431,0.62839 -0.379239,0.41893 -0.568858,0.98999 -0.568855,1.71318 l 0,4.18704 -1.223701,0 0,-7.40835 1.223701,0 0,1.15094 c 0.291039,-0.44538 0.632793,-0.77831 1.025263,-0.99881 0.396872,-0.22047 0.853279,-0.33072 1.369222,-0.33073 0.851072,10e-6 1.494893,0.2646 1.931463,0.79376 0.436556,0.52476 0.654838,1.29867 0.654845,2.32172"
       style=""
       id="path3266" />
    <path
       d="m -36.05333,269.99155 0,0.59532 -5.595951,0 c 0.05291,0.83785 0.304269,1.47726 0.754064,1.91823 0.4542,0.43657 1.084791,0.65485 1.891776,0.65485 0.467426,0 0.919424,-0.0573 1.355993,-0.17198 0.440967,-0.11466 0.87753,-0.28664 1.30969,-0.51594 l 0,1.15094 c -0.43657,0.18521 -0.884158,0.32632 -1.342763,0.42333 -0.458618,0.097 -0.923844,0.14552 -1.395681,0.14552 -1.181812,0 -2.118879,-0.34396 -2.811205,-1.03187 -0.687919,-0.68792 -1.031878,-1.61837 -1.031877,-2.79137 -1e-6,-1.21267 0.326319,-2.17399 0.978961,-2.88396 0.657048,-0.71437 1.541198,-1.07156 2.652454,-1.07157 0.996594,10e-6 1.783731,0.32192 2.361412,0.96574 0.582077,0.63941 0.87312,1.51033 0.873127,2.61276 m -1.217086,-0.35719 c -0.0088,-0.66586 -0.196239,-1.19723 -0.562241,-1.59411 -0.361604,-0.39687 -0.842264,-0.59531 -1.441983,-0.59532 -0.679102,10e-6 -1.223704,0.19183 -1.633806,0.57547 -0.405698,0.38365 -0.639413,0.92385 -0.701147,1.62058 l 4.339177,-0.007"
       style=""
       id="path3268" />
    <path
       d="m -28.28779,268.01379 c 0.304264,-0.5468 0.668067,-0.95029 1.091409,-1.21047 0.423326,-0.26017 0.921625,-0.39026 1.494899,-0.39027 0.771693,10e-6 1.367007,0.27121 1.785942,0.8136 0.418913,0.53799 0.628375,1.30529 0.628387,2.30188 l 0,4.47147 -1.223701,0 0,-4.43178 c -1.1e-5,-0.70996 -0.125688,-1.23693 -0.377032,-1.58089 -0.251365,-0.34395 -0.635011,-0.51593 -1.15094,-0.51594 -0.630601,1e-5 -1.1289,0.20947 -1.4949,0.62839 -0.366015,0.41893 -0.549019,0.98999 -0.549011,1.71318 l 0,4.18704 -1.223701,0 0,-4.43178 c -6e-6,-0.71437 -0.125684,-1.24134 -0.377032,-1.58089 -0.251361,-0.34395 -0.639417,-0.51593 -1.16417,-0.51594 -0.621776,1e-5 -1.115666,0.21167 -1.48167,0.635 -0.366011,0.41893 -0.549014,0.98779 -0.549012,1.70657 l 0,4.18704 -1.223701,0 0,-7.40835 1.223701,0 0,1.15094 c 0.27781,-0.4542 0.610745,-0.78934 0.998805,-1.00542 0.388052,-0.21607 0.848869,-0.32411 1.382451,-0.32412 0.537982,10e-6 0.994389,0.13671 1.369222,0.41011 0.37923,0.27341 0.659248,0.67029 0.840054,1.19063"
       style=""
       id="path3270" />
  </g>
  <g
     id="g166"
     transform="translate(-4.2657111,0)">
    <path
       style="fill:none;stroke:#000000;stroke-width:2"
       d="m -21,280 -29,0 0,40 76.2594,0"
       id="polyline168" />
    <path
       style="fill:#000000"
       d="m 26.2594,320 -2.5,-5 10,5 -10,5 z"
       id="polygon170" />
    <path
       style="fill:none;stroke:#000000;stroke-width:2"
       d="m 26.2594,320 -2.5,-5 10,5 -10,5 z"
       id="polygon172" />
  </g>
  <g
     style="font-size:13.54669952px;font-style:normal;font-weight:normal;text-anchor:start;fill:#000000;font-family:sans-serif"
     id="text174">
    <path
       d="m -44.830903,379.52853 0,4.47147 -1.217086,0 0,-4.43178 c -7e-6,-0.70114 -0.136708,-1.2259 -0.410105,-1.57428 -0.273409,-0.34836 -0.683514,-0.52254 -1.230316,-0.52255 -0.657054,1e-5 -1.175197,0.20947 -1.554431,0.62839 -0.379239,0.41893 -0.568858,0.98999 -0.568855,1.71318 l 0,4.18704 -1.223701,0 0,-7.40835 1.223701,0 0,1.15094 c 0.291039,-0.44538 0.632793,-0.77831 1.025263,-0.99881 0.396872,-0.22047 0.853279,-0.33072 1.369222,-0.33073 0.851072,10e-6 1.494893,0.2646 1.931463,0.79376 0.436556,0.52476 0.654838,1.29867 0.654845,2.32172"
       style=""
       id="path3276" />
    <path
       d="m -36.05333,379.99155 0,0.59532 -5.595951,0 c 0.05291,0.83785 0.304269,1.47726 0.754064,1.91823 0.4542,0.43657 1.084791,0.65485 1.891776,0.65485 0.467426,0 0.919424,-0.0573 1.355993,-0.17198 0.440967,-0.11466 0.87753,-0.28664 1.30969,-0.51594 l 0,1.15094 c -0.43657,0.18521 -0.884158,0.32632 -1.342763,0.42333 -0.458618,0.097 -0.923844,0.14552 -1.395681,0.14552 -1.181812,0 -2.118879,-0.34396 -2.811205,-1.03187 -0.687919,-0.68792 -1.031878,-1.61837 -1.031877,-2.79137 -1e-6,-1.21267 0.326319,-2.17399 0.978961,-2.88396 0.657048,-0.71437 1.541198,-1.07156 2.652454,-1.07157 0.996594,10e-6 1.783731,0.32192 2.361412,0.96574 0.582077,0.63941 0.87312,1.51033 0.873127,2.61276 m -1.217086,-0.35719 c -0.0088,-0.66586 -0.196239,-1.19723 -0.562241,-1.59411 -0.361604,-0.39687 -0.842264,-0.59531 -1.441983,-0.59532 -0.679102,10e-6 -1.223704,0.19183 -1.633806,0.57547 -0.405698,0.38365 -0.639413,0.92385 -0.701147,1.62058 l 4.339177,-0.007"
       style=""
       id="path3278" />
    <path
       d="m -28.28779,378.01379 c 0.304264,-0.5468 0.668067,-0.95029 1.091409,-1.21047 0.423326,-0.26017 0.921625,-0.39026 1.494899,-0.39027 0.771693,10e-6 1.367007,0.27121 1.785942,0.8136 0.418913,0.53799 0.628375,1.30529 0.628387,2.30188 l 0,4.47147 -1.223701,0 0,-4.43178 c -1.1e-5,-0.70996 -0.125688,-1.23693 -0.377032,-1.58089 -0.251365,-0.34395 -0.635011,-0.51593 -1.15094,-0.51594 -0.630601,1e-5 -1.1289,0.20947 -1.4949,0.62839 -0.366015,0.41893 -0.549019,0.98999 -0.549011,1.71318 l 0,4.18704 -1.223701,0 0,-4.43178 c -6e-6,-0.71437 -0.125684,-1.24134 -0.377032,-1.58089 -0.251361,-0.34395 -0.639417,-0.51593 -1.16417,-0.51594 -0.621776,1e-5 -1.115666,0.21167 -1.48167,0.635 -0.366011,0.41893 -0.549014,0.98779 -0.549012,1.70657 l 0,4.18704 -1.223701,0 0,-7.40835 1.223701,0 0,1.15094 c 0.27781,-0.4542 0.610745,-0.78934 0.998805,-1.00542 0.388052,-0.21607 0.848869,-0.32411 1.382451,-0.32412 0.537982,10e-6 0.994389,0.13671 1.369222,0.41011 0.37923,0.27341 0.659248,0.67029 0.840054,1.19063"
       style=""
       id="path3280" />
  </g>
  <g
     id="g178"
     transform="translate(-4.2657111,0)">
    <path
       style="fill:none;stroke:#000000;stroke-width:2"
       d="m -21,390 -29,0 0,40 76.2594,0"
       id="polyline180" />
    <path
       style="fill:#000000"
       d="m 26.2594,430 -2.5,-5 10,5 -10,5 z"
       id="polygon182" />
    <path
       style="fill:none;stroke:#000000;stroke-width:2"
       d="m 26.2594,430 -2.5,-5 10,5 -10,5 z"
       id="polygon184" />
  </g>
  <g
     id="g186"
     transform="translate(-4.2657111,0)">
    <path
       style="fill:none;stroke:#000000;stroke-width:2"
       d="m 40,324.008 0,25.25601"
       id="line188" />
    <path
       style="fill:#000000"
       d="m 40,349.264 5,-2.5 -5,10 -5,-10 z"
       id="polygon190" />
    <path
       style="fill:none;stroke:#000000;stroke-width:2"
       d="m 40,349.264 5,-2.5 -5,10 -5,-10 z"
       id="polygon192" />
  </g>
  <g
     id="g194"
     transform="translate(-4.2657111,0)">
    <path
       style="fill:none;stroke:#000000;stroke-width:2"
       d="m 40,433.99899 0,16.26502"
       id="line196" />
    <path
       style="fill:#000000"
       d="m 40,450.264 5,-2.5 -5,10 -5,-10 z"
       id="polygon198" />
    <path
       style="fill:none;stroke:#000000;stroke-width:2"
       d="m 40,450.264 5,-2.5 -5,10 -5,-10 z"
       id="polygon200" />
  </g>
  <g
     id="g202"
     transform="translate(-4.2657111,0)">
    <path
       style="fill:none;stroke:#000000;stroke-width:2"
       d="m 40,116 0,14.26401"
       id="line204" />
    <path
       style="fill:#000000"
       d="m 40,130.264 5,-2.5 -5,10 -5,-10 z"
       id="polygon206" />
    <path
       style="fill:none;stroke:#000000;stroke-width:2"
       d="m 40,130.264 5,-2.5 -5,10 -5,-10 z"
       id="polygon208" />
  </g>
</svg>
