<?xml version="1.0" encoding="UTF-8" standalone="no"?>
<!-- Created with Inkscape (http://www.inkscape.org/) -->
<svg id="svg2" xmlns:rdf="http://www.w3.org/1999/02/22-rdf-syntax-ns#" xmlns="http://www.w3.org/2000/svg" height="238.68" width="316.94" version="1.1" xmlns:cc="http://creativecommons.org/ns#" xmlns:dc="http://purl.org/dc/elements/1.1/" viewBox="-22 -11 162 117.40227">
 <metadata id="metadata62">
  <rdf:RDF>
   <cc:Work rdf:about="">
    <dc:format>image/svg+xml</dc:format>
    <dc:type rdf:resource="http://purl.org/dc/dcmitype/StillImage"/>
   </cc:Work>
  </rdf:RDF>
 </metadata>
 <g id="g4" transform="translate(-1 -2.2989)">
  <path id="rect6" fill="#fff" d="m60 50h80v40h-80z"/>
  <path id="rect8" d="m60 50h80v40h-80z" stroke="#f00" stroke-width="2" fill="none"/>
  <g id="text10">
   <path id="path3012" style="" d="m93.832 58.159h1.1135v3.4782l3.6931-3.4782h1.4332l-4.0845 3.8365 4.3767 4.3932h-1.4662l-3.9522-3.9632v3.9632h-1.1135v-8.2297"/>
   <path id="path3014" style="" d="m101.24 58.159h1.1134v8.2297h-1.1134v-8.2297"/>
   <path id="path3016" style="" d="m104.78 64.989h1.1631v1.4001h-1.1631v-1.4001m0-4.4373h1.1631v1.4001h-1.1631v-1.4001"/>
   <path id="path3018" style="" d="m78.387 79.574v3.2742h-1.0197v-8.5218h1.0197v0.93707c0.21313-0.36747 0.48139-0.6394 0.80478-0.8158 0.32705-0.18006 0.71658-0.27009 1.1686-0.2701 0.74965 0.000007 1.3578 0.29766 1.8245 0.89297 0.47036 0.59532 0.70555 1.378 0.70556 2.3482-0.000006 0.97014-0.23519 1.7529-0.70556 2.3482-0.4667 0.59531-1.0749 0.89297-1.8245 0.89297-0.452-0.000001-0.84153-0.08819-1.1686-0.26458-0.32338-0.18006-0.59164-0.45383-0.80478-0.82131m3.4506-2.1553c-0.000005-0.74597-0.15435-1.3303-0.46302-1.7529-0.30501-0.42627-0.72577-0.6394-1.2623-0.63941-0.53652 0.000005-0.95912 0.21314-1.2678 0.63941-0.30501 0.4226-0.45751 1.0069-0.45751 1.7529-0.000002 0.74598 0.1525 1.3321 0.45751 1.7584 0.30868 0.4226 0.73128 0.6339 1.2678 0.6339 0.53651 0.000001 0.95727-0.2113 1.2623-0.6339 0.30868-0.42627 0.46302-1.0124 0.46302-1.7584"/>
   <path id="path3020" style="" d="m87.377 77.397c-0.81948 0.000003-1.3872 0.09371-1.7033 0.28112-0.31603 0.18742-0.47405 0.50712-0.47404 0.95912-0.000002 0.36013 0.11759 0.64676 0.35278 0.8599 0.23886 0.20946 0.56224 0.31419 0.97014 0.31419 0.56224 0.000001 1.0124-0.19844 1.3505-0.59531 0.34175-0.40055 0.51263-0.93155 0.51263-1.593v-0.226h-1.0087m2.023-0.41892v3.5223h-1.0142v-0.93707c-0.23152 0.37483-0.51998 0.65227-0.86541 0.83234-0.34543 0.17639-0.76803 0.26458-1.2678 0.26458-0.63206-0.000001-1.1355-0.17639-1.5103-0.52917-0.37115-0.35645-0.55673-0.83233-0.55673-1.4276-0.000001-0.69453 0.23151-1.2182 0.69453-1.571 0.4667-0.35277 1.1612-0.52916 2.0836-0.52917h1.4221v-0.09922c-0.000005-0.46669-0.15434-0.82682-0.46302-1.0804-0.30501-0.25723-0.73496-0.38584-1.2898-0.38585-0.35278 0.000006-0.69637 0.04227-1.0308 0.12678-0.33441 0.08452-0.65595 0.2113-0.96463 0.38034v-0.93707c0.37115-0.14331 0.73128-0.24988 1.0804-0.31971 0.3491-0.07349 0.68902-0.11024 1.0197-0.11024 0.89296 0.000007 1.5599 0.23152 2.0009 0.69453 0.44097 0.46303 0.66145 1.1649 0.66146 2.1056m-1.8521-5.5066h1.0969l-1.797 2.0726h-0.84336l1.5434-2.0726"/>
   <path id="path3022" style="" d="m95.072 75.274c-0.11392-0.06614-0.23886-0.11391-0.37483-0.14332-0.1323-0.03307-0.27929-0.0496-0.44097-0.04961-0.57327 0.000006-1.0142 0.18742-1.3229 0.56224-0.30501 0.37116-0.45751 0.90584-0.45751 1.604v3.2522h-1.0197v-6.1736h1.0197v0.95912c0.21313-0.37482 0.49058-0.65227 0.83234-0.83234 0.34175-0.18373 0.757-0.2756 1.2457-0.27561 0.06982 0.000007 0.14699 0.0055 0.23151 0.01654 0.08452 0.0074 0.17822 0.02022 0.28112 0.03858l0.0055 1.0418"/>
   <path id="path3024" style="" d="m98.953 77.397c-0.81948 0.000003-1.3872 0.09371-1.7033 0.28112-0.31603 0.18742-0.47405 0.50712-0.47404 0.95912-0.000002 0.36013 0.11759 0.64676 0.35278 0.8599 0.23886 0.20946 0.56224 0.31419 0.97014 0.31419 0.56224 0.000001 1.0124-0.19844 1.3505-0.59531 0.34175-0.40055 0.51263-0.93155 0.51263-1.593v-0.226h-1.0087m2.023-0.41892v3.5223h-1.0142v-0.93707c-0.23152 0.37483-0.51998 0.65227-0.86541 0.83234-0.34543 0.17639-0.76803 0.26458-1.2678 0.26458-0.63206-0.000001-1.1355-0.17639-1.5103-0.52917-0.37115-0.35645-0.55673-0.83233-0.55673-1.4276 0-0.69453 0.23151-1.2182 0.69453-1.571 0.4667-0.35277 1.1612-0.52916 2.0836-0.52917h1.4221v-0.09922c-0.000005-0.46669-0.15434-0.82682-0.46302-1.0804-0.30501-0.25723-0.73496-0.38584-1.2898-0.38585-0.35278 0.000006-0.69637 0.04227-1.0308 0.12678-0.33441 0.08452-0.65595 0.2113-0.96463 0.38034v-0.93707c0.37115-0.14331 0.73128-0.24988 1.0804-0.31971 0.3491-0.07349 0.68902-0.11024 1.0198-0.11024 0.89296 0.000007 1.5599 0.23152 2.0009 0.69453 0.44097 0.46303 0.66146 1.1649 0.66146 2.1056"/>
   <path id="path3026" style="" d="m104.07 72.574v1.7529h2.0891v0.78824h-2.0891v3.3514c0 0.50344 0.068 0.82682 0.20395 0.97014 0.13964 0.14332 0.42076 0.21498 0.84336 0.21498h1.0418v0.84887h-1.0418c-0.78273 0-1.3229-0.14515-1.6206-0.43546-0.29766-0.29398-0.44649-0.82682-0.44649-1.5985v-3.3514h-0.74414v-0.78824h0.74414v-1.7529h1.0198"/>
   <path id="path3028" style="" d="m107.5 71.923h1.0142v8.5769h-1.0142v-8.5769"/>
   <path id="path3030" style="" d="m113.44 77.397c-0.81947 0.000003-1.3872 0.09371-1.7032 0.28112-0.31604 0.18742-0.47405 0.50712-0.47405 0.95912 0 0.36013 0.11759 0.64676 0.35278 0.8599 0.23886 0.20946 0.56224 0.31419 0.97014 0.31419 0.56223 0.000001 1.0124-0.19844 1.3505-0.59531 0.34175-0.40055 0.51262-0.93155 0.51263-1.593v-0.226h-1.0087m2.023-0.41892v3.5223h-1.0142v-0.93707c-0.23152 0.37483-0.51999 0.65227-0.86541 0.83234-0.34543 0.17639-0.76803 0.26458-1.2678 0.26458-0.63206-0.000001-1.1355-0.17639-1.5103-0.52917-0.37115-0.35645-0.55673-0.83233-0.55673-1.4276 0-0.69453 0.23151-1.2182 0.69453-1.571 0.4667-0.35277 1.1612-0.52916 2.0836-0.52917h1.4221v-0.09922c-0.00001-0.46669-0.15435-0.82682-0.46302-1.0804-0.30501-0.25723-0.73496-0.38584-1.2898-0.38585-0.35278 0.000006-0.69637 0.04227-1.0308 0.12678-0.33441 0.08452-0.65595 0.2113-0.96463 0.38034v-0.93707c0.37115-0.14331 0.73128-0.24988 1.0804-0.31971 0.3491-0.07349 0.68902-0.11024 1.0198-0.11024 0.89297 0.000007 1.5599 0.23152 2.0009 0.69453 0.44096 0.46303 0.66145 1.1649 0.66145 2.1056"/>
   <path id="path3032" style="" d="m122.69 76.774v3.7262h-1.0142v-3.6931c-0.00001-0.58428-0.11393-1.0216-0.34176-1.3119-0.22784-0.2903-0.56959-0.43546-1.0253-0.43546-0.54754 0.000005-0.97933 0.17456-1.2954 0.52366-0.31603 0.34911-0.47404 0.82499-0.47404 1.4276v3.4892h-1.0198v-6.1736h1.0198v0.95912c0.24253-0.37115 0.52733-0.64859 0.85438-0.83234 0.33073-0.18373 0.71107-0.2756 1.141-0.27561 0.70923 0.000007 1.2457 0.22049 1.6096 0.66146 0.3638 0.4373 0.5457 1.0822 0.5457 1.9348"/>
  </g>
 </g>
 <g id="g16" transform="translate(-1 -2.2989)">
  <path id="rect18" fill="#fff" d="m-20 50h80v40h-80z"/>
  <path id="rect20" d="m-20 50h80v40h-80z" stroke="#f00" stroke-width="2" fill="none"/>
  <g id="text22">
   <path id="path3037" style="" d="m13.832 58.159h1.1135v3.4782l3.6931-3.4782h1.4332l-4.0845 3.8365 4.3767 4.3932h-1.4662l-3.9522-3.9632v3.9632h-1.1135v-8.2297"/>
   <path id="path3039" style="" d="m21.24 58.159h1.1135v8.2297h-1.1135v-8.2297"/>
   <path id="path3041" style="" d="m24.785 64.989h1.1631v1.4001h-1.1631v-1.4001m0-4.4373h1.1631v1.4001h-1.1631v-1.4001"/>
   <path id="path3043" style="" d="m6.4043 79.574v3.2742h-1.0197v-8.5218h1.0197v0.93707c0.21313-0.36747 0.48139-0.6394 0.80478-0.8158 0.32705-0.18006 0.71658-0.27009 1.1686-0.2701 0.74965 0.000007 1.3578 0.29766 1.8245 0.89297 0.47036 0.59532 0.70555 1.378 0.70556 2.3482-0.000007 0.97014-0.23519 1.7529-0.70556 2.3482-0.4667 0.59531-1.0749 0.89297-1.8245 0.89297-0.452-0.000001-0.84153-0.08819-1.1686-0.26458-0.3234-0.18-0.5917-0.454-0.8048-0.821m3.4506-2.155c0-0.746-0.1544-1.331-0.463-1.753-0.3051-0.426-0.7258-0.64-1.2623-0.64-0.53652 0.000005-0.95912 0.21314-1.2678 0.63941-0.30501 0.4226-0.45751 1.0069-0.45751 1.7529-0.000002 0.74598 0.1525 1.3321 0.45751 1.7584 0.30868 0.4226 0.73128 0.6339 1.2678 0.6339 0.53651 0.000001 0.95727-0.2113 1.2623-0.6339 0.30868-0.42627 0.46302-1.0124 0.46302-1.7584"/>
   <path id="path3045" style="" d="m15.395 77.397c-0.81948 0.000003-1.3872 0.09371-1.7033 0.28112-0.31603 0.18742-0.47405 0.50712-0.47405 0.95912-0.000002 0.36013 0.11759 0.64676 0.35278 0.8599 0.23886 0.20946 0.56224 0.31419 0.97014 0.31419 0.56224 0.000001 1.0124-0.19844 1.3505-0.59531 0.34175-0.40055 0.51263-0.93155 0.51263-1.593v-0.226h-1.0087m2.023-0.41892v3.5223h-1.0142v-0.93707c-0.23152 0.37483-0.51998 0.65227-0.86541 0.83234-0.34543 0.17639-0.76803 0.26458-1.2678 0.26458-0.63206-0.000001-1.1355-0.17639-1.5103-0.52917-0.37115-0.35645-0.55673-0.83233-0.55673-1.4276-0.000001-0.69453 0.23151-1.2182 0.69453-1.571 0.46669-0.35277 1.1612-0.52916 2.0836-0.52917h1.4221v-0.09922c-0.000005-0.46669-0.15435-0.82682-0.46302-1.0804-0.30501-0.25723-0.73496-0.38584-1.2898-0.38585-0.35278 0.000006-0.69637 0.04227-1.0308 0.12678-0.33441 0.08452-0.65595 0.2113-0.96463 0.38034v-0.93707c0.37115-0.14331 0.73128-0.24988 1.0804-0.31971 0.3491-0.07349 0.68902-0.11024 1.0197-0.11024 0.89297 0.000007 1.5599 0.23152 2.0009 0.69453 0.44097 0.46303 0.66145 1.1649 0.66146 2.1056m-1.8521-5.5066h1.0969l-1.797 2.0726h-0.84336l1.5434-2.0726"/>
   <path id="path3047" style="" d="m23.09 75.274c-0.11392-0.06614-0.23886-0.11391-0.37483-0.14332-0.1323-0.03307-0.27929-0.0496-0.44097-0.04961-0.57327 0.000006-1.0142 0.18742-1.3229 0.56224-0.30501 0.37116-0.45751 0.90584-0.45751 1.604v3.2522h-1.0197v-6.1736h1.0197v0.95912c0.21314-0.37482 0.49058-0.65227 0.83234-0.83234 0.34175-0.18373 0.757-0.2756 1.2457-0.27561 0.06982 0.000007 0.14699 0.0055 0.23151 0.01654 0.08451 0.0074 0.17822 0.02022 0.28112 0.03858l0.0055 1.0418"/>
   <path id="path3049" style="" d="m26.309 75.037c-0.54387 0.000006-0.97382 0.21314-1.2898 0.63941-0.31603 0.4226-0.47405 1.0032-0.47405 1.7418-0.000002 0.73863 0.15618 1.3211 0.46853 1.7474 0.31603 0.4226 0.74781 0.6339 1.2954 0.6339 0.54019 0.000001 0.9683-0.21314 1.2843-0.63941 0.31602-0.42627 0.47404-1.0069 0.47404-1.7418-0.000005-0.73128-0.15802-1.3101-0.47404-1.7363-0.31604-0.42994-0.74415-0.64492-1.2843-0.64492m0-0.8599c0.88194 0.000007 1.5746 0.28664 2.0781 0.8599 0.50344 0.57327 0.75516 1.367 0.75516 2.3813-0.000006 1.0106-0.25173 1.8043-0.75516 2.3813-0.50345 0.57326-1.1961 0.8599-2.0781 0.8599-0.88562-0.000001-1.5802-0.28663-2.0836-0.8599-0.49977-0.57694-0.74965-1.3707-0.74965-2.3813 0-1.0142 0.24988-1.808 0.74965-2.3813 0.50344-0.57326 1.198-0.85989 2.0836-0.8599"/>
   <path id="path3051" style="" d="m34.753 74.508v0.95912c-0.28664-0.14698-0.58429-0.25723-0.89297-0.33073-0.30868-0.07349-0.62839-0.11024-0.95912-0.11024-0.50345 0.000005-0.88195 0.07717-1.1355 0.23151-0.24989 0.15435-0.37483 0.38586-0.37483 0.69453-0.000002 0.23519 0.09003 0.42077 0.2701 0.55673 0.18006 0.1323 0.54203 0.25908 1.0859 0.38034l0.34727 0.07717c0.72025 0.15434 1.231 0.37299 1.5324 0.65595 0.305 0.27929 0.4575 0.67065 0.45751 1.1741-0.000005 0.57327-0.22784 1.0271-0.68351 1.3615-0.452 0.3344-1.0749 0.50161-1.8686 0.50161-0.33073-0.000001-0.67616-0.03307-1.0363-0.09922-0.35645-0.06247-0.73312-0.15802-1.13-0.28663v-1.0473c0.37483 0.19476 0.74414 0.34176 1.1079 0.44097 0.3638 0.09555 0.72393 0.14332 1.0804 0.14332 0.47772 0.000001 0.84519-0.08084 1.1024-0.24254 0.25723-0.16536 0.38585-0.39687 0.38585-0.69453-0.000004-0.27561-0.09371-0.4869-0.28112-0.6339-0.18374-0.14699-0.5898-0.28847-1.2182-0.42444l-0.35278-0.08268c-0.62839-0.13229-1.0822-0.3344-1.3615-0.60634-0.27928-0.2756-0.41892-0.65227-0.41892-1.13-0.000001-0.58061 0.20579-1.0289 0.61736-1.345 0.41157-0.31602 0.99586-0.47404 1.7529-0.47405 0.37482 0.000007 0.7276 0.02757 1.0583 0.08268 0.33072 0.05513 0.63573 0.13781 0.91502 0.24805"/>
  </g>
 </g>
 <g id="g28" transform="translate(-1 -2.2989)">
  <path id="rect30" fill="#fff" d="m-20 10h160v40h-160z"/>
  <path id="rect32" d="m-20 10h160v40h-160z" stroke="#f00" stroke-width="2" fill="none"/>
  <g id="text34">
   <path id="path3056" style="" d="m48 32.507h3.8861v0.93707h-5.2255v-0.93707c0.4226-0.4373 0.9977-1.0234 1.7253-1.7584 0.73128-0.73862 1.1906-1.2145 1.378-1.4276 0.35645-0.40054 0.6045-0.73862 0.74414-1.0142 0.14331-0.27928 0.21497-0.55305 0.21497-0.82131-0.000004-0.43729-0.15434-0.79374-0.46302-1.0694-0.30501-0.2756-0.70372-0.4134-1.1961-0.41341-0.34911 0.000007-0.71842 0.06064-1.1079 0.1819-0.38585 0.12128-0.79926 0.30501-1.2402 0.55122v-1.1245c0.44832-0.18006 0.86724-0.31602 1.2568-0.4079 0.38952-0.09186 0.74598-0.1378 1.0694-0.1378 0.85254 0.000008 1.5324 0.21314 2.0395 0.63941 0.50711 0.42628 0.76067 0.99587 0.76068 1.7088-0.000006 0.33808-0.06432 0.65963-0.19293 0.96463-0.12495 0.30134-0.35462 0.65779-0.68902 1.0694-0.09187 0.10657-0.38402 0.41525-0.87643 0.92604-0.49242 0.50712-1.187 1.2182-2.0836 2.1332"/>
   <path id="path3058" style="" d="m55.392 24.818v11.289h-0.93707v-11.289h0.93707"/>
   <path id="path3060" style="" d="m57.547 25.215h1.1961l2.045 3.0592 2.056-3.0592h1.1961l-2.6458 3.9522 2.8222 4.2774h-1.1961l-2.3151-3.5002-2.3316 3.5002h-1.2017l2.938-4.3932-2.5632-3.8365"/>
   <path id="path3062" style="" d="m70.324 32.044h1.119v1.4001h-1.119v-1.4001m1.0859-0.81029h-1.0528v-0.84887c-0.000002-0.37115 0.05144-0.67615 0.15434-0.91502 0.10289-0.23886 0.3197-0.5163 0.65044-0.83234l0.49609-0.49058c0.20946-0.19476 0.36012-0.3785 0.452-0.55122 0.09554-0.17271 0.14331-0.3491 0.14332-0.52917-0.000004-0.32705-0.12127-0.59163-0.3638-0.79375-0.23886-0.2021-0.55673-0.30316-0.9536-0.30317-0.29031 0.000007-0.60083 0.06432-0.93156 0.19293-0.32706 0.12862-0.66881 0.31604-1.0253 0.56224v-1.0363c0.34543-0.20945 0.69453-0.36563 1.0473-0.46853 0.35645-0.10288 0.72393-0.15433 1.1024-0.15434 0.67616 0.000008 1.2182 0.17824 1.6261 0.53468 0.41157 0.35646 0.61736 0.82683 0.61736 1.4111-0.000006 0.27929-0.06615 0.54571-0.19844 0.79926-0.1323 0.24989-0.36381 0.53285-0.69453 0.84887l-0.48507 0.47405c-0.17272 0.17272-0.29582 0.30868-0.36932 0.4079-0.06982 0.09555-0.11943 0.18925-0.14883 0.28112-0.02205 0.07717-0.03859 0.17088-0.04961 0.28112-0.01103 0.11025-0.01654 0.26091-0.01654 0.452v0.678"/>
  </g>
 </g>
 <path id="line38" d="m-21 7.7011 40 40" stroke="#f00" stroke-width="2" fill="none"/>
 <path id="line40" d="m139 7.7011-40 40" stroke="#f00" stroke-width="2" fill="none"/>
 <g id="text42" fill="#f00">
  <path id="path3067" style="" d="m-9.5016 31.528h1.0142v6.1736h-1.0142v-6.1736m0-2.4033h1.0142v1.2843h-1.0142v-1.2843"/>
 </g>
 <g id="text46" fill="#f00">
  <path id="path3070" style="" d="m129.61 33.975v3.7262h-1.0142v-3.6931c-0.00001-0.58428-0.11393-1.0216-0.34176-1.3119-0.22784-0.2903-0.56959-0.43546-1.0253-0.43546-0.54754 0.000005-0.97933 0.17456-1.2954 0.52366-0.31603 0.34911-0.47404 0.82499-0.47404 1.4276v3.4892h-1.0198v-6.1736h1.0198v0.95912c0.24253-0.37115 0.52733-0.64859 0.85438-0.83234 0.33073-0.18373 0.71107-0.2756 1.141-0.27561 0.70923 0.000006 1.2457 0.22049 1.6096 0.66146 0.3638 0.4373 0.5457 1.0822 0.5457 1.9348"/>
 </g>
 <path id="line50" d="m-21-12.299v20" stroke="#000" stroke-width="2" fill="none"/>
 <path id="line52" d="m139-12.299v20" stroke="#000" stroke-width="2" fill="none"/>
 <path id="line54" d="m-21 87.701v20" stroke="#000" stroke-width="2" fill="none"/>
 <path id="line56" d="m139 87.701v20" stroke="#000" stroke-width="2" fill="none"/>
</svg>
