<?xml version="1.0" encoding="UTF-8" standalone="no"?>
<!-- Created with Inkscape (http://www.inkscape.org/) -->
<svg id="svg2" xmlns:rdf="http://www.w3.org/1999/02/22-rdf-syntax-ns#" xmlns="http://www.w3.org/2000/svg" height="246.01" width="205.68" version="1.1" xmlns:cc="http://creativecommons.org/ns#" xmlns:dc="http://purl.org/dc/elements/1.1/" viewBox="148 49 99.650412 122">
 <metadata id="metadata38">
  <rdf:RDF>
   <cc:Work rdf:about="">
    <dc:format>image/svg+xml</dc:format>
    <dc:type rdf:resource="http://purl.org/dc/dcmitype/StillImage"/>
   </cc:Work>
  </rdf:RDF>
 </metadata>
 <g id="g4" transform="translate(-2.1748)">
  <path id="rect6" fill="#fff" d="m150 50h100v40h-100z"/>
  <path id="rect8" d="m150 50h100v40h-100z" stroke="#000" stroke-width="2" fill="none"/>
  <g id="text10">
   <path id="path3000" style="" d="m185.51 69.444v3.4188h2.025c0.67916 0.000001 1.1812-0.13958 1.5062-0.41875 0.32916-0.28333 0.49374-0.71458 0.49375-1.2938-0.00001-0.58333-0.16459-1.0125-0.49375-1.2875-0.32501-0.27916-0.82709-0.41874-1.5062-0.41875h-2.025m0-3.8375v2.8125h1.8688c0.61666 0.000006 1.075-0.11458 1.375-0.34375 0.30416-0.23333 0.45624-0.58749 0.45625-1.0625-0.00001-0.47083-0.15209-0.82291-0.45625-1.0562-0.30001-0.23332-0.75834-0.34999-1.375-0.35h-1.8688m-1.2625-1.0375h3.225c0.96249 0.00001 1.7042 0.20001 2.225 0.6 0.52083 0.40001 0.78124 0.96876 0.78125 1.7062-0.00001 0.57084-0.13334 1.025-0.4 1.3625-0.26667 0.33751-0.65834 0.54792-1.175 0.63125 0.62083 0.13334 1.1021 0.4125 1.4438 0.8375 0.34583 0.42084 0.51874 0.94792 0.51875 1.5812-0.00001 0.83334-0.28334 1.4771-0.85 1.9313-0.56667 0.45417-1.3729 0.68125-2.4188 0.68125h-3.35v-9.3313"/>
   <path id="path3002" style="" d="m193.02 64.569h5.9v1.0625h-4.6375v2.7625h4.4438v1.0625h-4.4438v3.3813h4.75v1.0625h-6.0125v-9.3313"/>
   <path id="path3004" style="" d="m201.36 72.313h1.3188v1.5875h-1.3188v-1.5875m0-5.0313h1.3188v1.5875h-1.3188v-1.5875"/>
   <path id="path3006" style="" d="m212.64 65.813-1.7125 4.6438h3.4312l-1.7188-4.6438m-0.7125-1.2438h1.4312l3.5562 9.3313h-1.3125l-0.85-2.3938h-4.2062l-0.85 2.3938h-1.3312l3.5625-9.3313"/>
  </g>
 </g>
 <g id="g14" transform="translate(-2.1748)">
  <path id="rect16" fill="#fff" d="m150 90h100v40h-100z"/>
  <path id="rect18" d="m150 90h100v40h-100z" stroke="#000" stroke-width="2" fill="none"/>
  <g id="text20">
   <path id="path3011" style="" d="m183.85 105.81-1.7125 4.6438h3.4312l-1.7188-4.6438m-0.7125-1.2438h1.4312l3.5562 9.3312h-1.3125l-0.85-2.3938h-4.2062l-0.85 2.3938h-1.3312l3.5625-9.3312"/>
   <path id="path3013" style="" d="m189.58 108.09h8.0125v1.05h-8.0125v-1.05m0 2.55h8.0125v1.0625h-8.0125v-1.0625"/>
   <path id="path3015" style="" d="m203.32 105.81-1.7125 4.6438h3.4312l-1.7188-4.6438m-0.7125-1.2438h1.4312l3.5562 9.3312h-1.3125l-0.85-2.3938h-4.2062l-0.85 2.3938h-1.3312l3.5625-9.3312"/>
   <path id="path3017" style="" d="m209.07 108.66h1.3188v1.5875h-1.3188v-1.5875"/>
   <path id="path3019" style="" d="m216.15 105.81-1.7125 4.6438h3.4312l-1.7188-4.6438m-0.7125-1.2438h1.4312l3.5562 9.3312h-1.3125l-0.85-2.3938h-4.2062l-0.85 2.3938h-1.3312l3.5625-9.3312"/>
  </g>
 </g>
 <g id="g24" transform="translate(-2.1748)">
  <path id="rect26" fill="#fff" d="m150 130h100v40h-100z"/>
  <path id="rect28" d="m150 130h100v40h-100z" stroke="#000" stroke-width="2" fill="none"/>
  <g id="text30">
   <path id="path3024" style="" d="m186.59 144.57h1.2625v3.9438l4.1875-3.9438h1.625l-4.6312 4.35 4.9625 4.9812h-1.6625l-4.4812-4.4938v4.4938h-1.2625v-9.3312"/>
   <path id="path3026" style="" d="m194.99 144.57h1.2625v9.3312h-1.2625v-9.3312"/>
   <path id="path3028" style="" d="m199.01 152.31h1.3188v1.5875h-1.3188v-1.5875m0-5.0312h1.3188v1.5875h-1.3188v-1.5875"/>
   <path id="path3030" style="" d="m210.29 145.81-1.7125 4.6438h3.4312l-1.7188-4.6438m-0.7125-1.2438h1.4312l3.5562 9.3312h-1.3125l-0.85-2.3938h-4.2062l-0.85 2.3938h-1.3312l3.5625-9.3312"/>
  </g>
 </g>
</svg>
