<?xml version="1.0" encoding="UTF-8" standalone="no"?>
<!-- Created with Inkscape (http://www.inkscape.org/) -->
<svg id="svg2" xmlns:rdf="http://www.w3.org/1999/02/22-rdf-syntax-ns#" xmlns="http://www.w3.org/2000/svg" height="387.84" width="195.84" version="1.1" xmlns:cc="http://creativecommons.org/ns#" xmlns:dc="http://purl.org/dc/elements/1.1/" viewBox="138 29 94.881785 202">
 <metadata id="metadata74">
  <rdf:RDF>
   <cc:Work rdf:about="">
    <dc:format>image/svg+xml</dc:format>
    <dc:type rdf:resource="http://purl.org/dc/dcmitype/StillImage"/>
   </cc:Work>
  </rdf:RDF>
 </metadata>
 <g id="g4" transform="translate(-4.5591)">
  <path id="rect6" fill="#fff" d="m140 50h100v40h-100z"/>
  <path id="rect8" d="m140 50h100v40h-100z" stroke="#000" stroke-width="2" fill="none"/>
  <g id="text10">
   <path id="path3018" style="" d="m176.98 64.569h1.3562l2.3188 3.4688 2.3312-3.4688h1.3562l-3 4.4812 3.2 4.85h-1.3562l-2.625-3.9688-2.6438 3.9688h-1.3625l3.3312-4.9813-2.9062-4.35"/>
   <path id="path3020" style="" d="m186.31 68.088h8.0125v1.05h-8.0125v-1.05m0 2.55h8.0125v1.0625h-8.0125v-1.0625"/>
   <path id="path3022" style="" d="m197.26 72.838h2.0625v-7.1188l-2.2438 0.45v-1.15l2.2312-0.45h1.2625v8.2688h2.0625v1.0625h-5.375v-1.0625"/>
  </g>
 </g>
 <g id="g14" transform="translate(-4.5591)">
  <path id="rect16" fill="#fff" d="m140 90h100v120h-100z"/>
  <path id="rect18" d="m140 90h100v120h-100z" stroke="#000" stroke-width="2" fill="none"/>
 </g>
 <g id="g24" transform="translate(-4.5591)">
  <path id="rect26" d="m140 90h100v40h-100z" stroke="#fff" stroke-width="2" fill="none"/>
  <g id="text28">
   <path id="path3029" style="" d="m169.51 104.57h1.3562l2.3188 3.4688 2.3312-3.4688h1.3562l-3 4.4812 3.2 4.85h-1.3562l-2.625-3.9688-2.6438 3.9688h-1.3625l3.3312-4.9812-2.9062-4.35"/>
   <path id="path3031" style="" d="m186.84 107.55-6 1.7312 6 1.7125v1.1125l-8.0125-2.3v-1.0625l8.0125-2.2938v1.1m-8.0125 5.2875h8.0125v1.0625h-8.0125v-1.0625"/>
   <path id="path3033" style="" d="m189.79 112.84h2.0625v-7.1188l-2.2438 0.45v-1.15l2.2312-0.45h1.2625v8.2688h2.0625v1.0625h-5.375v-1.0625"/>
   <path id="path3035" style="" d="m200.42 105.4c-0.65 0.00001-1.1396 0.32084-1.4688 0.9625-0.325 0.63751-0.4875 1.5979-0.4875 2.8812 0 1.2792 0.1625 2.2396 0.4875 2.8812 0.32916 0.6375 0.81875 0.95625 1.4688 0.95625 0.65416 0 1.1438-0.31875 1.4688-0.95625 0.32916-0.64166 0.49375-1.6021 0.49375-2.8812 0-1.2833-0.16459-2.2437-0.49375-2.8812-0.325-0.64166-0.81459-0.96249-1.4688-0.9625m0-1c1.0458 0.00001 1.8438 0.41459 2.3938 1.2438 0.55416 0.82501 0.83124 2.025 0.83125 3.6-0.00001 1.5708-0.27709 2.7708-0.83125 3.6-0.55 0.825-1.3479 1.2375-2.3938 1.2375-1.0458 0-1.8458-0.4125-2.4-1.2375-0.55-0.82916-0.825-2.0292-0.825-3.6 0-1.575 0.275-2.775 0.825-3.6 0.55417-0.82916 1.3542-1.2437 2.4-1.2438"/>
   <path id="path3037" style="" d="m206.94 112.31h1.2688v1.5875h-1.2688v-1.5875m1.2312-0.91875h-1.1938v-0.9625c0-0.42083 0.0583-0.76666 0.175-1.0375 0.11667-0.27083 0.3625-0.58541 0.7375-0.94375l0.5625-0.55625c0.2375-0.22083 0.40833-0.42916 0.5125-0.625 0.10833-0.19583 0.1625-0.39582 0.1625-0.6 0-0.37082-0.1375-0.67082-0.4125-0.9-0.27083-0.22916-0.63125-0.34374-1.0812-0.34375-0.32917 0.00001-0.68125 0.0729-1.0562 0.21875-0.37083 0.14584-0.75833 0.35834-1.1625 0.6375v-1.175c0.39167-0.23749 0.7875-0.41457 1.1875-0.53125 0.40417-0.11666 0.82083-0.17499 1.25-0.175 0.76667 0.00001 1.3812 0.20209 1.8438 0.60625 0.46666 0.40418 0.7 0.93751 0.7 1.6 0 0.31668-0.075 0.61876-0.225 0.90625-0.15 0.28334-0.4125 0.60417-0.7875 0.9625l-0.55 0.5375c-0.19583 0.19584-0.33542 0.35001-0.41875 0.4625-0.0792 0.10834-0.13542 0.21459-0.16875 0.31875-0.025 0.0875-0.0437 0.19376-0.0563 0.31875-0.0125 0.12501-0.0187 0.29584-0.0187 0.5125v0.76875"/>
  </g>
 </g>
 <g id="g32" transform="translate(-4.5591)">
  <path id="rect34" fill="#fff" d="m170 130h70v40h-70z"/>
  <path id="rect36" d="m170 130h70v40h-70z" stroke="#f00" stroke-width="2" fill="none"/>
  <g id="text38">
   <path id="path3042" style="" d="m191.58 144.57h1.2625v3.9438l4.1875-3.9438h1.625l-4.6312 4.35 4.9625 4.9812h-1.6625l-4.4812-4.4938v4.4938h-1.2625v-9.3312"/>
   <path id="path3044" style="" d="m199.98 144.57h1.2625v9.3312h-1.2625v-9.3312"/>
   <path id="path3046" style="" d="m204 152.31h1.3188v1.5875h-1.3188v-1.5875m0-5.0312h1.3188v1.5875h-1.3188v-1.5875"/>
   <path id="path3048" style="" d="m211.71 144.57h1.3562l2.3188 3.4688 2.3312-3.4688h1.3562l-3 4.4812 3.2 4.85h-1.3562l-2.625-3.9688-2.6438 3.9688h-1.3625l3.3312-4.9812-2.9062-4.35"/>
  </g>
 </g>
 <g id="g42" transform="translate(-4.5591)">
  <path id="rect44" fill="#fff" d="m170 170h70v40h-70z"/>
  <path id="rect46" d="m170 170h70v40h-70z" stroke="#f00" stroke-width="2" fill="none"/>
  <g id="text48">
   <path id="path3053" style="" d="m182.23 184.57h1.3562l2.3188 3.4688 2.3312-3.4688h1.3562l-3 4.4812 3.2 4.85h-1.3562l-2.625-3.9688-2.6438 3.9688h-1.3625l3.3312-4.9812-2.9062-4.35"/>
   <path id="path3055" style="" d="m191.56 188.09h8.0125v1.05h-8.0125v-1.05m0 2.55h8.0125v1.0625h-8.0125v-1.0625"/>
   <path id="path3057" style="" d="m201.73 184.57h1.3562l2.3188 3.4688 2.3312-3.4688h1.3562l-3 4.4812 3.2 4.85h-1.3562l-2.625-3.9688-2.6438 3.9688h-1.3625l3.3312-4.9812-2.9062-4.35"/>
   <path id="path3059" style="" d="m215.59 185.87v3.4812h3.4812v1.0625h-3.4812v3.4812h-1.05v-3.4812h-3.4812v-1.0625h3.4812v-3.4812h1.05"/>
   <path id="path3061" style="" d="m222.01 192.84h2.0625v-7.1188l-2.2438 0.45v-1.15l2.2312-0.45h1.2625v8.2688h2.0625v1.0625h-5.375v-1.0625"/>
  </g>
 </g>
 <g id="g52" transform="translate(-4.5591)">
  <path id="rect54" d="m140 90h100v120h-100z" stroke="#f00" stroke-width="2" fill="none"/>
 </g>
 <path id="line60" d="m135.44 230v-20" stroke="#000" stroke-width="2" fill="none"/>
 <path id="line62" d="m235.44 230v-20" stroke="#000" stroke-width="2" fill="none"/>
 <path id="line64" d="m135.44 30v20" stroke="#000" stroke-width="2" fill="none"/>
 <path id="line66" d="m235.44 30v20" stroke="#000" stroke-width="2" fill="none"/>
 <path id="line68" d="m165.44 170h70" stroke="#000" stroke-width="2" fill="none"/>
</svg>
