<?xml version="1.0" encoding="UTF-8" standalone="no"?>
<!-- Created with Inkscape (http://www.inkscape.org/) -->
<svg id="svg2" xmlns:rdf="http://www.w3.org/1999/02/22-rdf-syntax-ns#" xmlns="http://www.w3.org/2000/svg" height="73.628" width="416.41" version="1.1" xmlns:cc="http://creativecommons.org/ns#" xmlns:dc="http://purl.org/dc/elements/1.1/" viewBox="-4 478 221.32881 30.476453">
 <metadata id="metadata52">
  <rdf:RDF>
   <cc:Work rdf:about="">
    <dc:format>image/svg+xml</dc:format>
    <dc:type rdf:resource="http://purl.org/dc/dcmitype/StillImage"/>
   </cc:Work>
  </rdf:RDF>
 </metadata>
 <g id="g4" transform="translate(-1.4352 -6.7884)">
  <path id="rect6" fill="#add8e6" d="m10 492h30v16h-30z"/>
  <path id="rect8" fill="none" d="m10 492h30v16h-30z" stroke="#add8e6"/>
 </g>
 <g id="g10" transform="translate(-1.4352 -6.7884)">
  <path id="line12" d="m0 500h210.26" stroke="#000" stroke-width="2" fill="none"/>
  <path id="polygon14" d="m210.26 500-2.5-5 10 5-10 5z"/>
  <path id="polygon16" d="m210.26 500-2.5-5 10 5-10 5z" stroke="#000" stroke-width="2" fill="none"/>
 </g>
 <g id="text18">
  <path id="path3010" style="" d="m34.045 480.37h3.4975v0.84336h-4.703v-0.84336c0.38034-0.39357 0.89793-0.92108 1.5528-1.5825 0.65815-0.66476 1.0716-1.0931 1.2402-1.2849 0.3208-0.36049 0.54404-0.66476 0.66973-0.91282 0.12898-0.25134 0.19347-0.49774 0.19348-0.73917-0.000004-0.39357-0.13891-0.71437-0.41672-0.96243-0.27451-0.24804-0.63335-0.37206-1.0765-0.37207-0.3142 0.00001-0.64658 0.0546-0.99715 0.16371-0.34727 0.10915-0.71934 0.27452-1.1162 0.4961v-1.012c0.40349-0.16205 0.78052-0.28442 1.1311-0.36711 0.35057-0.0827 0.67138-0.12402 0.96242-0.12403 0.76729 0.00001 1.3791 0.19183 1.8355 0.57547 0.4564 0.38365 0.6846 0.89628 0.68461 1.5379-0.000005 0.30428-0.05788 0.59367-0.17363 0.86817-0.11245 0.2712-0.31916 0.59201-0.62012 0.96242-0.08269 0.0959-0.34562 0.37373-0.78879 0.83344-0.44318 0.4564-1.0683 1.0964-1.8752 1.9199"/>
  <path id="path3012" style="" d="m41.794 474.46c-0.51594 0.00001-0.90455 0.25467-1.1658 0.76399-0.25797 0.50602-0.38696 1.2684-0.38695 2.287-0.000002 1.0153 0.12898 1.7777 0.38695 2.287 0.26127 0.50602 0.64988 0.75903 1.1658 0.75903 0.51924 0 0.90785-0.25301 1.1658-0.75903 0.26127-0.50932 0.39191-1.2716 0.39191-2.287-0.000005-1.0186-0.13064-1.781-0.39191-2.287-0.25797-0.50932-0.64658-0.76398-1.1658-0.76399m0-0.79375c0.83013 0.00001 1.4635 0.32909 1.9 0.98723 0.43986 0.65485 0.6598 1.6074 0.6598 2.8575-0.000006 1.2468-0.21994 2.1994-0.6598 2.8575-0.43657 0.65484-1.0699 0.98227-1.9 0.98227-0.83013 0-1.4651-0.32743-1.905-0.98227-0.43656-0.65815-0.65484-1.6106-0.65484-2.8575-0.000001-1.2502 0.21828-2.2026 0.65484-2.8575 0.43987-0.65814 1.0749-0.98722 1.905-0.98723"/>
 </g>
 <path id="line22" d="m38.565 485.21v16" stroke="#000" stroke-width="2" fill="none"/>
 <path id="line24" d="m-1.4352 485.21v16" stroke="#000" stroke-width="2" fill="none"/>
 <g id="text26">
  <path id="path3017" style="" d="m-1.4402 505.91c-0.51594 0-0.90455 0.25466-1.1658 0.76398-0.25797 0.50602-0.38695 1.2684-0.38695 2.287-0.0000017 1.0153 0.12898 1.7777 0.38695 2.287 0.26127 0.50602 0.64988 0.75903 1.1658 0.75903 0.51924 0 0.90785-0.25301 1.1658-0.75903 0.26127-0.50932 0.39191-1.2716 0.39191-2.287-0.00000479-1.0186-0.13064-1.781-0.39191-2.287-0.25797-0.50932-0.64658-0.76398-1.1658-0.76398m0-0.79375c0.83013 0 1.4635 0.32908 1.9 0.98722 0.43986 0.65485 0.6598 1.6074 0.6598 2.8575-0.0000057 1.2468-0.21994 2.1994-0.6598 2.8575-0.43657 0.65485-1.0699 0.98227-1.9 0.98227-0.83013 0-1.4651-0.32742-1.905-0.98227-0.43656-0.65815-0.65484-1.6106-0.65484-2.8575-6e-7 -1.2502 0.21828-2.2026 0.65484-2.8575 0.43987-0.65814 1.0749-0.98722 1.905-0.98722"/>
 </g>
 <path id="line30" d="m8.5648 485.21v16" stroke="#000" stroke-width="2" fill="none"/>
 <path id="line32" d="m198.56 485.21v16" stroke="#000" stroke-width="2" fill="none"/>
 <g id="text34">
  <path id="path3022" style="" d="m6.4266 473.8h3.934v0.84336h-3.0162v1.8157c0.14552-0.0496 0.29104-0.086 0.43656-0.10914 0.14552-0.0265 0.29104-0.0397 0.43656-0.0397 0.82682 0.00001 1.4817 0.22656 1.9645 0.67965 0.48286 0.4531 0.72429 1.0666 0.7243 1.8405-0.000005 0.79706-0.24805 1.4172-0.74414 1.8604-0.4961 0.43987-1.1956 0.65981-2.0985 0.65981-0.31089 0-0.62839-0.0265-0.9525-0.0794-0.32081-0.0529-0.65319-0.13229-0.99715-0.23812v-1.0071c0.29766 0.16205 0.60523 0.28277 0.92273 0.36214 0.3175 0.0794 0.65319 0.11907 1.0071 0.11907 0.57216 0 1.0253-0.15048 1.3593-0.45145 0.33403-0.30096 0.50105-0.70941 0.50105-1.2254-0.0000045-0.51594-0.16702-0.92439-0.50105-1.2254-0.33404-0.30096-0.78714-0.45144-1.3593-0.45145-0.26789 0.00001-0.53578 0.0298-0.80367 0.0893-0.26458 0.0595-0.53578 0.15214-0.81359 0.27781v-3.7207"/>
 </g>
 <path id="line38" d="m18.565 485.21v16" stroke="#f00" stroke-width="2" fill="none"/>
 <g id="text40" fill="#f00">
  <path id="path3026" style="" d="m13.356 511.82h1.6371v-5.6505l-1.781 0.35719v-0.91281l1.7711-0.35719h1.0021v6.5633h1.6371v0.84336h-4.2664v-0.84336"/>
  <path id="path3028" style="" d="m21.794 505.91c-0.51594 0-0.90455 0.25466-1.1658 0.76398-0.25797 0.50602-0.38696 1.2684-0.38695 2.287-0.000002 1.0153 0.12898 1.7777 0.38695 2.287 0.26127 0.50602 0.64988 0.75903 1.1658 0.75903 0.51924 0 0.90785-0.25301 1.1658-0.75903 0.26127-0.50932 0.39191-1.2716 0.39191-2.287-0.000005-1.0186-0.13064-1.781-0.39191-2.287-0.25797-0.50932-0.64658-0.76398-1.1658-0.76398m0-0.79375c0.83013 0 1.4635 0.32908 1.9 0.98722 0.43986 0.65485 0.6598 1.6074 0.6598 2.8575-0.000006 1.2468-0.21994 2.1994-0.6598 2.8575-0.43657 0.65485-1.0699 0.98227-1.9 0.98227-0.83013 0-1.4651-0.32742-1.905-0.98227-0.43656-0.65815-0.65484-1.6106-0.65484-2.8575-0.000001-1.2502 0.21828-2.2026 0.65484-2.8575 0.43987-0.65814 1.0749-0.98722 1.905-0.98722"/>
 </g>
 <g id="text44">
  <path id="path3031" style="" d="m190.12 511.82h1.6371v-5.6505l-1.781 0.35719v-0.91281l1.7711-0.35719h1.0021v6.5633h1.6371v0.84336h-4.2664v-0.84336"/>
  <path id="path3033" style="" d="m198.56 505.91c-0.51594 0-0.90454 0.25466-1.1658 0.76398-0.25797 0.50602-0.38695 1.2684-0.38695 2.287 0 1.0153 0.12898 1.7777 0.38695 2.287 0.26128 0.50602 0.64988 0.75903 1.1658 0.75903 0.51924 0 0.90785-0.25301 1.1658-0.75903 0.26127-0.50932 0.39191-1.2716 0.39192-2.287-0.00001-1.0186-0.13065-1.781-0.39192-2.287-0.25797-0.50932-0.64658-0.76398-1.1658-0.76398m0-0.79375c0.83013 0 1.4635 0.32908 1.9 0.98722 0.43987 0.65485 0.6598 1.6074 0.65981 2.8575-0.00001 1.2468-0.21994 2.1994-0.65981 2.8575-0.43657 0.65485-1.0699 0.98227-1.9 0.98227-0.83013 0-1.4651-0.32742-1.905-0.98227-0.44-0.65-0.66-1.61-0.66-2.85 0-1.2502 0.21828-2.2026 0.65484-2.8575 0.43987-0.65814 1.0749-0.98722 1.905-0.98722"/>
  <path id="path3035" style="" d="m205.03 505.91c-0.51594 0-0.90455 0.25466-1.1658 0.76398-0.25798 0.50602-0.38696 1.2684-0.38696 2.287 0 1.0153 0.12898 1.7777 0.38696 2.287 0.26127 0.50602 0.64988 0.75903 1.1658 0.75903 0.51924 0 0.90784-0.25301 1.1658-0.75903 0.26127-0.50932 0.3919-1.2716 0.39191-2.287-0.00001-1.0186-0.13064-1.781-0.39191-2.287-0.25798-0.50932-0.64658-0.76398-1.1658-0.76398m0-0.79375c0.83012 0 1.4635 0.32908 1.9 0.98722 0.43987 0.65485 0.6598 1.6074 0.65981 2.8575-0.00001 1.2468-0.21994 2.1994-0.65981 2.8575-0.43656 0.65485-1.0699 0.98227-1.9 0.98227-0.83014 0-1.4651-0.32742-1.905-0.98227-0.43657-0.65815-0.65485-1.6106-0.65485-2.8575 0-1.2502 0.21828-2.2026 0.65485-2.8575 0.43986-0.65814 1.0749-0.98722 1.905-0.98722"/>
 </g>
</svg>
