<?xml version="1.0" encoding="UTF-8" standalone="no"?>
<!-- Created with Inkscape (http://www.inkscape.org/) -->
<svg id="svg2" xmlns:rdf="http://www.w3.org/1999/02/22-rdf-syntax-ns#" xmlns="http://www.w3.org/2000/svg" height="330.95" width="1769.9" version="1.1" xmlns:cc="http://creativecommons.org/ns#" xmlns:dc="http://purl.org/dc/elements/1.1/" viewBox="-264 58 984.00003 172.79188">
 <metadata id="metadata294">
  <rdf:RDF>
   <cc:Work rdf:about="">
    <dc:format>image/svg+xml</dc:format>
    <dc:type rdf:resource="http://purl.org/dc/dcmitype/StillImage"/>
   </cc:Work>
  </rdf:RDF>
 </metadata>
 <g id="g4" transform="translate(-1 -6.6041)">
  <path id="ellipse6" fill="#ccc" d="m720 160c0 22.091-53.726 40-120 40s-120-17.909-120-40 53.726-40 120-40 120 17.909 120 40z"/>
  <path id="ellipse8" d="m720 160c0 22.091-53.726 40-120 40s-120-17.909-120-40 53.726-40 120-40 120 17.909 120 40z" stroke="#000" stroke-width="2" fill="none"/>
 </g>
 <g id="g10" transform="translate(-1 -6.6041)">
  <path id="ellipse12" fill="#ccc" d="m720 100c0 22.091-53.726 40-120 40s-120-17.909-120-40 53.726-40 120-40 120 17.909 120 40z"/>
  <path id="ellipse14" d="m720 100c0 22.091-53.726 40-120 40s-120-17.909-120-40 53.726-40 120-40 120 17.909 120 40z" stroke="#000" stroke-width="2" fill="none"/>
 </g>
 <g id="g16" transform="translate(-1 -6.6041)">
  <path id="ellipse18" fill="#fff" d="m620 98c0 3.3137-8.9543 6-20 6s-20-2.6863-20-6 8.9543-6 20-6 20 2.6863 20 6z"/>
  <path id="ellipse20" d="m620 98c0 3.3137-8.9543 6-20 6s-20-2.6863-20-6 8.9543-6 20-6 20 2.6863 20 6z" stroke="#000" stroke-width="2" fill="none"/>
 </g>
 <g id="g22" transform="translate(-1 -6.6041)">
  <path id="ellipse24" fill="#ccc" d="m-20 160c0 22.091-53.726 40-120 40s-120-17.909-120-40 53.726-40 120-40 120 17.909 120 40z"/>
  <path id="ellipse26" d="m-20 160c0 22.091-53.726 40-120 40s-120-17.909-120-40 53.726-40 120-40 120 17.909 120 40z" stroke="#000" stroke-width="2" fill="none"/>
 </g>
 <g id="g28" transform="translate(-1 -6.6041)">
  <path id="ellipse30" fill="#ccc" d="m-22 100c0 22.091-53.726 40-120 40s-120-17.909-120-40 53.726-40 120-40 120 17.909 120 40z"/>
  <path id="ellipse32" d="m-22 100c0 22.091-53.726 40-120 40s-120-17.909-120-40 53.726-40 120-40 120 17.909 120 40z" stroke="#000" stroke-width="2" fill="none"/>
 </g>
 <g id="g34" transform="translate(-1 -6.6041)">
  <path id="ellipse36" fill="#fff" d="m-120 98c0 3.3137-8.9543 6-20 6s-20-2.6863-20-6 8.9543-6 20-6 20 2.6863 20 6z"/>
  <path id="ellipse38" d="m-120 98c0 3.3137-8.9543 6-20 6s-20-2.6863-20-6 8.9543-6 20-6 20 2.6863 20 6z" stroke="#000" stroke-width="2" fill="none"/>
 </g>
 <g id="g40" transform="translate(-1 -6.6041)">
  <path id="rect42" fill="#fff" d="m100 140h40v40h-40z"/>
  <path id="rect44" d="m100 140h40v40h-40z" stroke="#000" stroke-width="2" fill="none"/>
 </g>
 <g id="g46" transform="translate(-1 -6.6041)">
  <path id="rect48" fill="#fff" d="m140 140h40v40h-40z"/>
  <path id="rect50" d="m140 140h40v40h-40z" stroke="#000" stroke-width="2" fill="none"/>
 </g>
 <g id="g52" transform="translate(-1 -6.6041)">
  <path id="rect54" fill="#fff" d="m180 140h40v40h-40z"/>
  <path id="rect56" d="m180 140h40v40h-40z" stroke="#000" stroke-width="2" fill="none"/>
 </g>
 <g id="g58" transform="translate(-1 -6.6041)">
  <path id="rect60" fill="#fff" d="m220 140h40v40h-40z"/>
  <path id="rect62" d="m220 140h40v40h-40z" stroke="#000" stroke-width="2" fill="none"/>
 </g>
 <g id="g64" transform="translate(-1 -6.6041)">
  <path id="rect66" fill="#add8e6" d="m260 140h40v40h-40z"/>
  <path id="rect68" d="m260 140h40v40h-40z" stroke="#000" stroke-width="2" fill="none"/>
 </g>
 <g id="g70" transform="translate(-1 -6.6041)">
  <path id="rect72" fill="#fff" d="m300 140h40v40h-40z"/>
  <path id="rect74" d="m300 140h40v40h-40z" stroke="#000" stroke-width="2" fill="none"/>
 </g>
 <g id="g76" transform="translate(-1 -6.6041)">
  <path id="rect78" fill="#fff" d="m340 140h40v40h-40z"/>
  <path id="rect80" d="m340 140h40v40h-40z" stroke="#000" stroke-width="2" fill="none"/>
 </g>
 <g id="g82" transform="translate(-1 -6.6041)">
  <path id="rect84" fill="#fff" d="m380 140h40v40h-40z"/>
  <path id="rect86" d="m380 140h40v40h-40z" stroke="#000" stroke-width="2" fill="none"/>
 </g>
 <g id="g88" transform="translate(-1 -6.6041)">
  <path id="rect90" fill="#fff" d="m420 140h40v40h-40z"/>
  <path id="rect92" d="m420 140h40v40h-40z" stroke="#000" stroke-width="2" fill="none"/>
 </g>
 <g id="g94" transform="translate(-1 -6.6041)">
  <path id="rect96" fill="#fff" d="m460 140h40v40h-40z"/>
  <path id="rect98" d="m460 140h40v40h-40z" stroke="#000" stroke-width="2" fill="none"/>
 </g>
 <g id="g100" transform="translate(-1 -6.6041)">
  <path id="rect102" fill="#fff" d="m-20 140h40v40h-40z"/>
  <path id="rect104" d="m-20 140h40v40h-40z" stroke="#000" stroke-width="2" fill="none"/>
 </g>
 <g id="g106" transform="translate(-1 -6.6041)">
  <path id="rect108" fill="#fff" d="m20 140h40v40h-40z"/>
  <path id="rect110" d="m20 140h40v40h-40z" stroke="#000" stroke-width="2" fill="none"/>
 </g>
 <g id="g112" transform="translate(-1 -6.6041)">
  <path id="rect114" fill="#fff" d="m60 140h40v40h-40z"/>
  <path id="rect116" d="m60 140h40v40h-40z" stroke="#000" stroke-width="2" fill="none"/>
 </g>
 <g id="g118" transform="translate(-1 -6.6041)">
  <path id="rect120" fill="#fff" d="m580 140h40v40h-40z"/>
  <path id="rect122" d="m580 140h40v40h-40z" stroke="#000" stroke-width="2" fill="none"/>
 </g>
 <g id="g124" transform="translate(-1 -6.6041)">
  <path id="polygon126" fill="#fff" d="m674 132-22 4v40l22-4z"/>
  <path id="polygon128" d="m674 132-22 4v40l22-4z" stroke="#000" stroke-width="2" fill="none"/>
 </g>
 <g id="g130" transform="translate(-1 -6.6041)">
  <path id="polygon132" fill="#fff" d="m690 126-16 6v40l16-6z"/>
  <path id="polygon134" d="m690 126-16 6v40l16-6z" stroke="#000" stroke-width="2" fill="none"/>
 </g>
 <g id="g136" transform="translate(-1 -6.6041)">
  <path id="polygon138" fill="#fff" d="m696 124-6 2v40l6-4z"/>
  <path id="polygon140" d="m696 124-6 2v40l6-4z" stroke="#000" stroke-width="2" fill="none"/>
 </g>
 <g id="g142" transform="translate(-1 -6.6041)">
  <path id="polygon144" fill="#fff" d="m652 136-32 4v40l32-4z"/>
  <path id="polygon146" d="m652 136-32 4v40l32-4z" stroke="#000" stroke-width="2" fill="none"/>
 </g>
 <g id="g148" transform="translate(-1 -6.6041)">
  <path id="polygon150" fill="#fff" d="m540 136-28-8v40l28-2z"/>
  <path id="polygon152" d="m540 136-28-8v40l28-2z" stroke="#000" stroke-width="2" fill="none"/>
 </g>
 <g id="g154" transform="translate(-1 -6.6041)">
  <path id="rect156" fill="#fff" d="m500 140h40v40h-40z"/>
  <path id="rect158" d="m500 140h40v40h-40z" stroke="#000" stroke-width="2" fill="none"/>
 </g>
 <g id="g160" transform="translate(-1 -6.6041)">
  <path id="polygon162" fill="#fff" d="m560 138-20-2v40l20-2z"/>
  <path id="polygon164" d="m560 138-20-2v40l20-2z" stroke="#000" stroke-width="2" fill="none"/>
 </g>
 <g id="g166" transform="translate(-1 -6.6041)">
  <path id="rect168" fill="#fff" d="m540 140h40v40h-40z"/>
  <path id="rect170" d="m540 140h40v40h-40z" stroke="#000" stroke-width="2" fill="none"/>
 </g>
 <g id="g172" transform="translate(-1 -6.6041)">
  <path id="rect174" fill="#fff" d="m-174 140h34v40h-34z"/>
  <path id="rect176" d="m-174 140h34v40h-34z" stroke="#000" stroke-width="2" fill="none"/>
 </g>
 <g id="g178" transform="translate(-1 -6.6041)">
  <path id="polygon180" fill="#fff" d="m-196 136-14-2v38l14 4z"/>
  <path id="polygon182" d="m-196 136-14-2v38l14 4z" stroke="#000" stroke-width="2" fill="none"/>
 </g>
 <g id="g184" transform="translate(-1 -6.6041)">
  <path id="polygon186" fill="#fff" d="m-174 140-22-4v40l22 4z"/>
  <path id="polygon188" d="m-174 140-22-4v40l22 4z" stroke="#000" stroke-width="2" fill="none"/>
 </g>
 <g id="g190" transform="translate(-1 -6.6041)">
  <path id="polygon192" fill="#fff" d="m-210 134-10-2v36l10 4z"/>
  <path id="polygon194" d="m-210 134-10-2v36l10 4z" stroke="#000" stroke-width="2" fill="none"/>
 </g>
 <g id="g196" transform="translate(-1 -6.6041)">
  <path id="polygon198" fill="#fff" d="m-220 132-6-2v34l6 4z"/>
  <path id="polygon200" d="m-220 132-6-2v34l6 4z" stroke="#000" stroke-width="2" fill="none"/>
 </g>
 <g id="g202" transform="translate(-1 -6.6041)">
  <path id="polygon204" fill="#fff" d="m-66 132 8-2v34l-8-4z"/>
  <path id="polygon206" d="m-66 132 8-2v34l-8-4z" stroke="#000" stroke-width="2" fill="none"/>
 </g>
 <g id="g208" transform="translate(-1 -6.6041)">
  <path id="rect210" fill="#fff" d="m-60 140h40v40h-40z"/>
  <path id="rect212" d="m-60 140h40v40h-40z" stroke="#000" stroke-width="2" fill="none"/>
 </g>
 <g id="g214" transform="translate(-1 -6.6041)">
  <path id="polygon216" fill="#fff" d="m-80 134 14-2v34h-14z"/>
  <path id="polygon218" d="m-80 134 14-2v34h-14z" stroke="#000" stroke-width="2" fill="none"/>
 </g>
 <g id="g220" transform="translate(-1 -6.6041)">
  <path id="polygon222" fill="#fff" d="m-108 138 28-4v34h-14z"/>
  <path id="polygon224" d="m-108 138 28-4v34h-14z" stroke="#000" stroke-width="2" fill="none"/>
 </g>
 <g id="g226" transform="translate(-1 -6.6041)">
  <path id="rect228" fill="#fff" d="m-100 140h40v40h-40z"/>
  <path id="rect230" d="m-100 140h40v40h-40z" stroke="#000" stroke-width="2" fill="none"/>
 </g>
 <g id="g232" transform="translate(-1 -6.6041)">
  <path id="rect234" fill="#fff" d="m-140 140h40v40h-40z"/>
  <path id="rect236" d="m-140 140h40v40h-40z" stroke="#000" stroke-width="2" fill="none"/>
 </g>
 <g id="text238">
  <path id="path3204" style="" d="m-8.5274 143.02h2.6723v8.0962h9.7102v-8.0962h2.6723v19.751h-2.6723v-9.4059h-9.7102v9.4059h-2.6723v-19.751"/>
 </g>
 <g id="text242">
  <path id="path3207" style="" d="m45.892 154.75v1.1906h-11.192c0.10583 1.6757 0.60854 2.9545 1.5081 3.8365 0.9084 0.87312 2.1696 1.3097 3.7835 1.3097 0.93485 0 1.8388-0.11465 2.712-0.34395 0.88193-0.22931 1.7551-0.57327 2.6194-1.0319v2.3019c-0.87314 0.37042-1.7683 0.65264-2.6855 0.84667-0.91723 0.19403-1.8477 0.29104-2.7914 0.29104-2.3636 0-4.2377-0.68792-5.6224-2.0638-1.3758-1.3758-2.0637-3.2367-2.0637-5.5827-0.000001-2.4253 0.65264-4.348 1.9579-5.7679 1.3141-1.4287 3.0824-2.1431 5.3049-2.1431 1.9932 0.00001 3.5674 0.64383 4.7228 1.9315 1.1642 1.2788 1.7462 3.0207 1.7462 5.2255m-2.4342-0.71437c-0.01765-1.3317-0.39248-2.3945-1.1245-3.1882-0.7232-0.79374-1.6845-1.1906-2.884-1.1906-1.3582 0.00001-2.4474 0.38366-3.2676 1.1509-0.81139 0.76731-1.2788 1.8477-1.4023 3.2411l8.6783-0.0132"/>
 </g>
 <g id="text246">
  <path id="path3210" style="" d="m77.796 142.19h2.4342v20.585h-2.4342v-20.585"/>
 </g>
 <g id="text250">
  <path id="path3213" style="" d="m117.8 142.19h2.4342v20.585h-2.4342v-20.585"/>
 </g>
 <g id="text254">
  <path id="path3216" style="" d="m159.01 149.66c-1.3053 0.00001-2.3372 0.51154-3.0956 1.5346-0.75848 1.0142-1.1377 2.4077-1.1377 4.1804s0.37482 3.1706 1.1245 4.1936c0.75846 1.0142 1.7948 1.5214 3.1088 1.5214 1.2964 0 2.3239-0.51152 3.0824-1.5346 0.75846-1.023 1.1377-2.4165 1.1377-4.1804-0.00001-1.7551-0.37925-3.1441-1.1377-4.1672-0.75848-1.0319-1.7859-1.5478-3.0824-1.5478m0-2.0638c2.1166 0.00001 3.7791 0.68793 4.9874 2.0638 1.2082 1.3758 1.8124 3.2808 1.8124 5.715-0.00001 2.4254-0.60414 4.3303-1.8124 5.715-1.2083 1.3758-2.8707 2.0638-4.9874 2.0638-2.1255 0-3.7924-0.68792-5.0006-2.0638-1.1994-1.3846-1.7992-3.2896-1.7992-5.715-0.00001-2.4342 0.59972-4.3392 1.7992-5.715 1.2083-1.3758 2.8751-2.0637 5.0006-2.0638"/>
 </g>
 <g id="text258">
  <path id="path3219" style="" d="m231.79 147.95h2.5797l4.6302 12.435 4.6302-12.435h2.5797l-5.5562 14.817h-3.3073l-5.5562-14.817"/>
 </g>
 <g id="text262">
  <path id="path3222" style="" d="m277.8 147.95h2.4342v14.817h-2.4342v-14.817m0-5.7679h2.4342v3.0824h-2.4342v-3.0824"/>
 </g>
 <g id="text266">
  <path id="path3225" style="" d="m317.8 142.19h2.4342v20.585h-2.4342v-20.585"/>
 </g>
 <g id="text270">
  <path id="path3228" style="" d="m359.98 155.32c-1.9667 0.00001-3.3293 0.22491-4.0878 0.67469-0.75848 0.4498-1.1377 1.2171-1.1377 2.3019 0 0.86431 0.28222 1.5522 0.84667 2.0638 0.57326 0.50271 1.3494 0.75406 2.3283 0.75406 1.3494 0 2.4297-0.47625 3.2411-1.4288 0.8202-0.96131 1.2303-2.2357 1.2303-3.8232v-0.5424h-2.4209m4.8551-1.0054v8.4534h-2.4342v-2.249c-0.55563 0.89958-1.248 1.5654-2.077 1.9976-0.82904 0.42333-1.8433 0.635-3.0427 0.635-1.517 0-2.7252-0.42333-3.6248-1.27-0.89076-0.85548-1.3361-1.9976-1.3361-3.4264 0-1.6669 0.55562-2.9236 1.6669-3.7703 1.1201-0.84665 2.7869-1.27 5.0006-1.27h3.4131v-0.23813c-0.00001-1.1201-0.37043-1.9844-1.1112-2.5929-0.73202-0.61735-1.7639-0.92603-3.0956-0.92604-0.84667 0.00001-1.6713 0.10143-2.4738 0.30427-0.80257 0.20286-1.5743 0.50713-2.3151 0.91281v-2.249c0.89076-0.34394 1.7551-0.5997 2.5929-0.76729 0.83784-0.17637 1.6536-0.26457 2.4474-0.26458 2.1431 0.00001 3.7438 0.55564 4.8022 1.6669 1.0583 1.1113 1.5875 2.7958 1.5875 5.0535"/>
 </g>
 <g id="text274">
  <path id="path3231" style="" d="m402.7 155.19c-0.00001-1.7639-0.36602-3.1309-1.098-4.101-0.7232-0.97013-1.7418-1.4552-3.0559-1.4552-1.3053 0.00001-2.3239 0.48508-3.0559 1.4552-0.7232 0.97014-1.0848 2.3372-1.0848 4.101 0 1.7551 0.3616 3.1177 1.0848 4.0878 0.732 0.97014 1.7506 1.4552 3.0559 1.4552 1.3141 0 2.3327-0.48507 3.0559-1.4552 0.732-0.97013 1.098-2.3327 1.098-4.0878m2.4342 5.7414c-0.00002 2.5224-0.56005 4.3965-1.6801 5.6224-1.1201 1.2347-2.8354 1.8521-5.1461 1.8521-0.85549 0-1.6625-0.0662-2.4209-0.19843-0.75848-0.12348-1.4949-0.31751-2.2093-0.58209v-2.368c0.71437 0.38805 1.4199 0.67468 2.1167 0.85989 0.69672 0.1852 1.4067 0.27781 2.1299 0.27781 1.5963 0 2.7913-0.41892 3.5851-1.2568 0.79374-0.82903 1.1906-2.0858 1.1906-3.7703v-1.2039c-0.50272 0.87313-1.1465 1.5258-1.9314 1.9579-0.78494 0.43215-1.7242 0.64823-2.8178 0.64823-1.8168 0-3.2808-0.69233-4.3921-2.077-1.1112-1.3846-1.6669-3.2191-1.6669-5.5033-0.00001-2.293 0.55562-4.1319 1.6669-5.5166 1.1112-1.3846 2.5753-2.077 4.3921-2.077 1.0936 0.00001 2.0329 0.21609 2.8178 0.64823 0.78491 0.43216 1.4287 1.0848 1.9314 1.9579v-2.249h2.4342v12.978"/>
 </g>
 <g id="g278" transform="translate(-1 -6.6041)">
  <path id="polygon280" fill="#fff" d="m316 204h-72l16-20h40z"/>
  <path id="polygon282" d="m316 204h-72l16-20h40z" stroke="#f00" stroke-width="6" fill="none"/>
 </g>
 <g id="g284" transform="translate(-1 -6.6041)">
  <path id="rect286" fill="#fff" d="m240 204h80v36h-80z"/>
  <path id="rect288" d="m240 204h80v36h-80z" stroke="#f00" stroke-width="6" fill="none"/>
 </g>
</svg>
