<?xml version="1.0" encoding="UTF-8" standalone="no"?>
<!-- Created with Inkscape (http://www.inkscape.org/) -->
<svg id="svg2" xmlns:rdf="http://www.w3.org/1999/02/22-rdf-syntax-ns#" xmlns="http://www.w3.org/2000/svg" height="378.31" width="1415.5" version="1.1" xmlns:cc="http://creativecommons.org/ns#" xmlns:dc="http://purl.org/dc/elements/1.1/" viewBox="-62 58 782.00003 204.80204">
 <metadata id="metadata246">
  <rdf:RDF>
   <cc:Work rdf:about="">
    <dc:format>image/svg+xml</dc:format>
    <dc:type rdf:resource="http://purl.org/dc/dcmitype/StillImage"/>
   </cc:Work>
  </rdf:RDF>
 </metadata>
 <g id="g4" transform="translate(-1 -3.099)">
  <path id="ellipse6" fill="#ccc" d="m720 160c0 22.091-53.726 40-120 40s-120-17.909-120-40 53.726-40 120-40 120 17.909 120 40z"/>
  <path id="ellipse8" d="m720 160c0 22.091-53.726 40-120 40s-120-17.909-120-40 53.726-40 120-40 120 17.909 120 40z" stroke="#000" stroke-width="2" fill="none"/>
 </g>
 <g id="g10" transform="translate(-1 -3.099)">
  <path id="ellipse12" fill="#ccc" d="m720 100c0 22.091-53.726 40-120 40s-120-17.909-120-40 53.726-40 120-40 120 17.909 120 40z"/>
  <path id="ellipse14" d="m720 100c0 22.091-53.726 40-120 40s-120-17.909-120-40 53.726-40 120-40 120 17.909 120 40z" stroke="#000" stroke-width="2" fill="none"/>
 </g>
 <g id="g16" transform="translate(-1 -3.099)">
  <path id="ellipse18" fill="#fff" d="m620 98c0 3.3137-8.9543 6-20 6s-20-2.6863-20-6 8.9543-6 20-6 20 2.6863 20 6z"/>
  <path id="ellipse20" d="m620 98c0 3.3137-8.9543 6-20 6s-20-2.6863-20-6 8.9543-6 20-6 20 2.6863 20 6z" stroke="#000" stroke-width="2" fill="none"/>
 </g>
 <g id="g22" transform="translate(-1 -3.099)">
  <path id="ellipse24" fill="#ccc" d="m182 160c0 22.091-53.726 40-120 40s-120-17.909-120-40 53.726-40 120-40 120 17.909 120 40z"/>
  <path id="ellipse26" d="m182 160c0 22.091-53.726 40-120 40s-120-17.909-120-40 53.726-40 120-40 120 17.909 120 40z" stroke="#000" stroke-width="2" fill="none"/>
 </g>
 <g id="g28" transform="translate(-1 -3.099)">
  <path id="ellipse30" fill="#ccc" d="m180 100c0 22.091-53.726 40-120 40s-120-17.909-120-40 53.726-40 120-40 120 17.909 120 40z"/>
  <path id="ellipse32" d="m180 100c0 22.091-53.726 40-120 40s-120-17.909-120-40 53.726-40 120-40 120 17.909 120 40z" stroke="#000" stroke-width="2" fill="none"/>
 </g>
 <g id="g34" transform="translate(-1 -3.099)">
  <path id="ellipse36" fill="#fff" d="m82 98c0 3.3137-8.9543 6-20 6s-20-2.6863-20-6 8.9543-6 20-6 20 2.6863 20 6z"/>
  <path id="ellipse38" d="m82 98c0 3.3137-8.9543 6-20 6s-20-2.6863-20-6 8.9543-6 20-6 20 2.6863 20 6z" stroke="#000" stroke-width="2" fill="none"/>
 </g>
 <g id="g40" transform="translate(-1 -3.099)">
  <path id="rect42" fill="#fff" d="m220 140h40v40h-40z"/>
  <path id="rect44" d="m220 140h40v40h-40z" stroke="#000" stroke-width="2" fill="none"/>
 </g>
 <g id="g46" transform="translate(-1 -3.099)">
  <path id="rect48" fill="#fff" d="m260 140h40v40h-40z"/>
  <path id="rect50" d="m260 140h40v40h-40z" stroke="#000" stroke-width="2" fill="none"/>
 </g>
 <g id="g52" transform="translate(-1 -3.099)">
  <path id="rect54" fill="#fff" d="m300 140h40v40h-40z"/>
  <path id="rect56" d="m300 140h40v40h-40z" stroke="#000" stroke-width="2" fill="none"/>
 </g>
 <g id="g58" transform="translate(-1 -3.099)">
  <path id="rect60" fill="#add8e6" d="m340 140h40v40h-40z"/>
  <path id="rect62" d="m340 140h40v40h-40z" stroke="#000" stroke-width="2" fill="none"/>
 </g>
 <g id="g64" transform="translate(-1 -3.099)">
  <path id="rect66" fill="#fff" d="m380 140h40v40h-40z"/>
  <path id="rect68" d="m380 140h40v40h-40z" stroke="#000" stroke-width="2" fill="none"/>
 </g>
 <g id="g70" transform="translate(-1 -3.099)">
  <path id="rect72" fill="#fff" d="m420 140h40v40h-40z"/>
  <path id="rect74" d="m420 140h40v40h-40z" stroke="#000" stroke-width="2" fill="none"/>
 </g>
 <g id="g76" transform="translate(-1 -3.099)">
  <path id="rect78" fill="#fff" d="m460 140h40v40h-40z"/>
  <path id="rect80" d="m460 140h40v40h-40z" stroke="#000" stroke-width="2" fill="none"/>
 </g>
 <g id="g82" transform="translate(-1 -3.099)">
  <path id="rect84" fill="#fff" d="m580 140h40v40h-40z"/>
  <path id="rect86" d="m580 140h40v40h-40z" stroke="#000" stroke-width="2" fill="none"/>
 </g>
 <g id="g88" transform="translate(-1 -3.099)">
  <path id="polygon90" fill="#fff" d="m674 132-22 4v40l22-4z"/>
  <path id="polygon92" d="m674 132-22 4v40l22-4z" stroke="#000" stroke-width="2" fill="none"/>
 </g>
 <g id="g94" transform="translate(-1 -3.099)">
  <path id="polygon96" fill="#fff" d="m690 126-16 6v40l16-6z"/>
  <path id="polygon98" d="m690 126-16 6v40l16-6z" stroke="#000" stroke-width="2" fill="none"/>
 </g>
 <g id="g100" transform="translate(-1 -3.099)">
  <path id="polygon102" fill="#fff" d="m696 124-6 2v40l6-4z"/>
  <path id="polygon104" d="m696 124-6 2v40l6-4z" stroke="#000" stroke-width="2" fill="none"/>
 </g>
 <g id="g106" transform="translate(-1 -3.099)">
  <path id="polygon108" fill="#fff" d="m652 136-32 4v40l32-4z"/>
  <path id="polygon110" d="m652 136-32 4v40l32-4z" stroke="#000" stroke-width="2" fill="none"/>
 </g>
 <g id="g112" transform="translate(-1 -3.099)">
  <path id="polygon114" fill="#fff" d="m540 136-28-8v40l28-2z"/>
  <path id="polygon116" d="m540 136-28-8v40l28-2z" stroke="#000" stroke-width="2" fill="none"/>
 </g>
 <g id="g118" transform="translate(-1 -3.099)">
  <path id="rect120" fill="#fff" d="m500 140h40v40h-40z"/>
  <path id="rect122" d="m500 140h40v40h-40z" stroke="#000" stroke-width="2" fill="none"/>
 </g>
 <g id="g124" transform="translate(-1 -3.099)">
  <path id="polygon126" fill="#fff" d="m560 138-20-2v40l20-2z"/>
  <path id="polygon128" d="m560 138-20-2v40l20-2z" stroke="#000" stroke-width="2" fill="none"/>
 </g>
 <g id="g130" transform="translate(-1 -3.099)">
  <path id="rect132" fill="#fff" d="m540 140h40v40h-40z"/>
  <path id="rect134" d="m540 140h40v40h-40z" stroke="#000" stroke-width="2" fill="none"/>
 </g>
 <g id="g136" transform="translate(-1 -3.099)">
  <path id="rect138" fill="#fff" d="m28 140h34v40h-34z"/>
  <path id="rect140" d="m28 140h34v40h-34z" stroke="#000" stroke-width="2" fill="none"/>
 </g>
 <g id="g142" transform="translate(-1 -3.099)">
  <path id="polygon144" fill="#fff" d="m6 136-14-2v38l14 4z"/>
  <path id="polygon146" d="m6 136-14-2v38l14 4z" stroke="#000" stroke-width="2" fill="none"/>
 </g>
 <g id="g148" transform="translate(-1 -3.099)">
  <path id="polygon150" fill="#fff" d="m28 140-22-4v40l22 4z"/>
  <path id="polygon152" d="m28 140-22-4v40l22 4z" stroke="#000" stroke-width="2" fill="none"/>
 </g>
 <g id="g154" transform="translate(-1 -3.099)">
  <path id="polygon156" fill="#fff" d="m-8 134-10-2v36l10 4z"/>
  <path id="polygon158" d="m-8 134-10-2v36l10 4z" stroke="#000" stroke-width="2" fill="none"/>
 </g>
 <g id="g160" transform="translate(-1 -3.099)">
  <path id="polygon162" fill="#fff" d="m-18 132-6-2v34l6 4z"/>
  <path id="polygon164" d="m-18 132-6-2v34l6 4z" stroke="#000" stroke-width="2" fill="none"/>
 </g>
 <g id="g166" transform="translate(-1 -3.099)">
  <path id="polygon168" fill="#fff" d="m136 132 8-2v34l-8-4z"/>
  <path id="polygon170" d="m136 132 8-2v34l-8-4z" stroke="#000" stroke-width="2" fill="none"/>
 </g>
 <g id="g172" transform="translate(-1 -3.099)">
  <path id="rect174" fill="#fff" d="m140 140h40v40h-40z"/>
  <path id="rect176" d="m140 140h40v40h-40z" stroke="#000" stroke-width="2" fill="none"/>
 </g>
 <g id="g178" transform="translate(-1 -3.099)">
  <path id="polygon180" fill="#fff" d="m122 134 14-2v34h-14z"/>
  <path id="polygon182" d="m122 134 14-2v34h-14z" stroke="#000" stroke-width="2" fill="none"/>
 </g>
 <g id="g184" transform="translate(-1 -3.099)">
  <path id="polygon186" fill="#fff" d="m94 138 28-4v34h-14z"/>
  <path id="polygon188" d="m94 138 28-4v34h-14z" stroke="#000" stroke-width="2" fill="none"/>
 </g>
 <g id="g190" transform="translate(-1 -3.099)">
  <path id="rect192" fill="#fff" d="m102 140h40v40h-40z"/>
  <path id="rect194" d="m102 140h40v40h-40z" stroke="#000" stroke-width="2" fill="none"/>
 </g>
 <g id="g196" transform="translate(-1 -3.099)">
  <path id="rect198" fill="#fff" d="m62 140h40v40h-40z"/>
  <path id="rect200" d="m62 140h40v40h-40z" stroke="#000" stroke-width="2" fill="none"/>
 </g>
 <g id="text202">
  <path id="path3168" style="" d="m233.73 164.03h4.3656v-15.068l-4.7493 0.9525v-2.4342l4.7228-0.9525h2.6723v17.502h4.3656v2.249h-11.377v-2.249"/>
 </g>
 <g id="text206">
  <path id="path3171" style="" d="m278.99 148.28c-1.3758 0.00002-2.4121 0.67912-3.1088 2.0373-0.68792 1.3494-1.0319 3.3823-1.0319 6.0986-0.00001 2.7076 0.34395 4.7404 1.0319 6.0986 0.69673 1.3494 1.733 2.0241 3.1088 2.0241 1.3846 0 2.4209-0.67469 3.1088-2.0241 0.69672-1.3582 1.0451-3.3911 1.0451-6.0986-0.00001-2.7164-0.34838-4.7492-1.0451-6.0986-0.68793-1.3582-1.7242-2.0373-3.1088-2.0373m0-2.1167c2.2137 0.00002 3.9026 0.87755 5.0668 2.6326 1.173 1.7463 1.7595 4.2863 1.7595 7.62-0.00001 3.3249-0.5865 5.8649-1.7595 7.62-1.1642 1.7462-2.8531 2.6194-5.0668 2.6194s-3.907-0.87312-5.08-2.6194c-1.1642-1.7551-1.7462-4.2951-1.7462-7.62 0-3.3337 0.58208-5.8737 1.7462-7.62 1.173-1.755 2.8663-2.6326 5.08-2.6326"/>
 </g>
 <g id="text210">
  <path id="path3174" style="" d="m313.73 164.03h4.3656v-15.068l-4.7493 0.9525v-2.4342l4.7228-0.9525h2.6723v17.502h4.3656v2.249h-11.377v-2.249"/>
 </g>
 <g id="text214">
  <path id="path3177" style="" d="m353.73 164.03h4.3656v-15.068l-4.7493 0.9525v-2.4342l4.7228-0.9525h2.6723v17.502h4.3656v2.249h-11.377v-2.249"/>
 </g>
 <g id="g218" transform="translate(-1 -3.099)">
  <path id="polygon220" fill="#fff" d="m396 204h-72l16-20h40z"/>
  <path id="polygon222" d="m396 204h-72l16-20h40z" stroke="#f00" stroke-width="6" fill="none"/>
 </g>
 <g id="g224" transform="translate(-1 -3.099)">
  <path id="rect226" fill="#fff" d="m320 204h80v36h-80z"/>
  <path id="rect228" d="m320 204h80v36h-80z" stroke="#f00" stroke-width="6" fill="none"/>
 </g>
 <g id="g230" stroke="#f00" stroke-width="6" fill="none" transform="translate(-1 -3.099)">
  <path id="line232" d="m360 260h-106.58"/>
  <path id="polyline234" d="m256.71 255-10 5 10 5"/>
 </g>
 <g id="g236" transform="translate(-1 -3.099)">
  <path id="rect238" fill="#fff" d="m180 140h40v40h-40z"/>
  <path id="rect240" d="m180 140h40v40h-40z" stroke="#000" stroke-width="2" fill="none"/>
 </g>
</svg>
