<?xml version="1.0" encoding="UTF-8" standalone="no"?>
<!-- Created with Inkscape (http://www.inkscape.org/) -->
<svg id="svg2" xmlns:rdf="http://www.w3.org/1999/02/22-rdf-syntax-ns#" xmlns="http://www.w3.org/2000/svg" height="229.56" width="387.36" version="1.1" xmlns:cc="http://creativecommons.org/ns#" xmlns:dc="http://purl.org/dc/elements/1.1/" viewBox="338 68 217.648 120.32098">
 <metadata id="metadata112">
  <rdf:RDF>
   <cc:Work rdf:about="">
    <dc:format>image/svg+xml</dc:format>
    <dc:type rdf:resource="http://purl.org/dc/dcmitype/StillImage"/>
   </cc:Work>
  </rdf:RDF>
 </metadata>
 <g id="g4" transform="translate(-1 -5.3332)">
  <path id="rect6" fill="#7babe3" d="m340 70h40v40h-40z"/>
  <path id="rect8" d="m340 70h40v40h-40z" stroke="#000" stroke-width="2" fill="none"/>
 </g>
 <g id="g10" transform="translate(-1 -5.3332)">
  <path id="rect12" fill="#7babe3" d="m380 70h40v40h-40z"/>
  <path id="rect14" d="m380 70h40v40h-40z" stroke="#000" stroke-width="2" fill="none"/>
 </g>
 <g id="g16" transform="translate(-1 -5.3332)">
  <path id="rect18" fill="#7babe3" d="m420 70h40v40h-40z"/>
  <path id="rect20" d="m420 70h40v40h-40z" stroke="#000" stroke-width="2" fill="none"/>
 </g>
 <g id="g22" transform="translate(-1 -5.3332)">
  <path id="rect24" fill="#7babe3" d="m460 70h40v40h-40z"/>
  <path id="rect26" d="m460 70h40v40h-40z" stroke="#000" stroke-width="2" fill="none"/>
 </g>
 <g id="g28" transform="translate(-1 -5.3332)">
  <path id="rect30" fill="#7babe3" d="m500 70h40v40h-40z"/>
  <path id="rect32" d="m500 70h40v40h-40z" stroke="#000" stroke-width="2" fill="none"/>
 </g>
 <g id="g34" transform="translate(-1 -5.3332)">
  <path id="rect36" fill="#fdfd04" d="m340 150h40v20h-40z"/>
  <path id="rect38" d="m340 150h40v20h-40z" stroke="#000" stroke-width="2" fill="none"/>
 </g>
 <g id="text40">
  <path id="path3047" style="" d="m351.82 188.07v4.5839h-1.4276v-11.93h1.4276v1.3119c0.29839-0.51446 0.67395-0.89516 1.1267-1.1421 0.45787-0.25208 1.0032-0.37813 1.636-0.37813 1.0495 0 1.901 0.41672 2.5543 1.2502 0.65851 0.83344 0.98776 1.9292 0.98777 3.2874-0.00001 1.3582-0.32926 2.454-0.98777 3.2874-0.65338 0.83343-1.5048 1.2502-2.5543 1.2502-0.6328 0-1.1781-0.12347-1.636-0.37042-0.45273-0.25209-0.82829-0.63536-1.1267-1.1498m4.8308-3.0173c-0.00001-1.0444-0.21609-1.8624-0.64823-2.454-0.42701-0.59677-1.0161-0.89516-1.7672-0.89517-0.75113 0.00001-1.3428 0.2984-1.7749 0.89517-0.42701 0.59165-0.64051 1.4096-0.64051 2.454s0.2135 1.8649 0.64051 2.4617c0.43215 0.59163 1.0238 0.88745 1.7749 0.88745 0.75111 0 1.3402-0.29582 1.7672-0.88745 0.43214-0.59678 0.64822-1.4174 0.64823-2.4617"/>
  <path id="path3049" style="" d="m360.94 188.05h2.5466v-8.7897l-2.7704 0.55563v-1.4199l2.755-0.55562h1.5588v10.21h2.5466v1.3119h-6.6366v-1.3119"/>
 </g>
 <g id="g44" transform="translate(-1 -5.3332)">
  <path id="rect46" fill="#fdfd04" d="m420 150h40v20h-40z"/>
  <path id="rect48" d="m420 150h40v20h-40z" stroke="#000" stroke-width="2" fill="none"/>
 </g>
 <g id="text50">
  <path id="path3054" style="" d="m431.82 188.07v4.5839h-1.4276v-11.93h1.4276v1.3119c0.29839-0.51446 0.67395-0.89516 1.1267-1.1421 0.45787-0.25208 1.0032-0.37813 1.636-0.37813 1.0495 0 1.901 0.41672 2.5543 1.2502 0.65851 0.83344 0.98776 1.9292 0.98777 3.2874-0.00001 1.3582-0.32926 2.454-0.98777 3.2874-0.65338 0.83343-1.5048 1.2502-2.5543 1.2502-0.6328 0-1.1781-0.12347-1.636-0.37042-0.45273-0.25209-0.82829-0.63536-1.1267-1.1498m4.8308-3.0173c-0.00001-1.0444-0.21609-1.8624-0.64823-2.454-0.42701-0.59677-1.0161-0.89516-1.7672-0.89517-0.75113 0.00001-1.3428 0.2984-1.7749 0.89517-0.42701 0.59165-0.64051 1.4096-0.64051 2.454s0.2135 1.8649 0.64051 2.4617c0.43215 0.59163 1.0238 0.88745 1.7749 0.88745 0.75111 0 1.3402-0.29582 1.7672-0.88745 0.43214-0.59678 0.64822-1.4174 0.64823-2.4617"/>
  <path id="path3056" style="" d="m442.02 188.05h5.4405v1.3119h-7.3157v-1.3119c0.59164-0.61222 1.3968-1.4328 2.4154-2.4617 1.0238-1.0341 1.6669-1.7003 1.9292-1.9987 0.49903-0.56077 0.84629-1.0341 1.0418-1.4199 0.20063-0.39099 0.30095-0.77427 0.30096-1.1498-0.00001-0.61221-0.21608-1.1112-0.64823-1.4971-0.42701-0.38584-0.98521-0.57876-1.6746-0.57877-0.48874 0.00001-1.0058 0.0849-1.5511 0.25466-0.54019 0.16978-1.119 0.42701-1.7363 0.7717v-1.5743c0.62765-0.25208 1.2141-0.44243 1.7595-0.57106 0.54533-0.1286 1.0444-0.19291 1.4971-0.19292 1.1936 0.00001 2.1453 0.2984 2.8553 0.89517 0.70996 0.59679 1.0649 1.3942 1.065 2.3923-0.00001 0.47331-0.09 0.92347-0.2701 1.3505-0.17492 0.42187-0.49646 0.9209-0.96462 1.4971-0.12862 0.1492-0.53762 0.58135-1.227 1.2964-0.68939 0.70997-1.6617 1.7055-2.917 2.9865"/>
 </g>
 <g id="g54" transform="translate(-1 -5.3332)">
  <path id="path56" d="m360 149.03v-28.297" stroke="#000" stroke-width="2" fill="none"/>
  <path id="polygon58" d="m360 120.73-5 2.5 5-10 5 10z"/>
  <path id="polygon60" d="m360 120.73-5 2.5 5-10 5 10z" stroke="#000" stroke-width="2" fill="none"/>
 </g>
 <g id="g62" transform="translate(-1 -5.3332)">
  <path id="path64" d="m440 149.01c0-30 40 1.985 40-28.279" stroke="#000" stroke-width="2" fill="none"/>
  <path id="polygon66" d="m480 120.73-5 2.5 5-10 5 10z"/>
  <path id="polygon68" d="m480 120.73-5 2.5 5-10 5 10z" stroke="#000" stroke-width="2" fill="none"/>
 </g>
 <g id="text70">
  <path id="path3063" style="" d="m358.99 79.647c-0.80257 0.000011-1.4071 0.39615-1.8135 1.1884-0.40129 0.78714-0.60193 1.973-0.60193 3.5575 0 1.5794 0.20064 2.7653 0.60193 3.5575 0.40642 0.78714 1.0109 1.1807 1.8135 1.1807 0.80771 0.000001 1.4122-0.39356 1.8135-1.1807 0.40642-0.79228 0.60963-1.9781 0.60964-3.5575-0.00001-1.5845-0.20322-2.7704-0.60964-3.5575-0.40129-0.79227-1.0058-1.1884-1.8135-1.1884m0-1.2347c1.2913 0.000012 2.2765 0.5119 2.9556 1.5357 0.68423 1.0187 1.0264 2.5003 1.0264 4.445-0.00001 1.9395-0.34213 3.4212-1.0264 4.445-0.6791 1.0186-1.6643 1.528-2.9556 1.528-1.2913-0.000001-2.2791-0.50932-2.9633-1.528-0.6791-1.0238-1.0186-2.5054-1.0186-4.445 0-1.9447 0.33955-3.4263 1.0186-4.445 0.68424-1.0238 1.672-1.5357 2.9633-1.5357"/>
 </g>
 <g id="text74">
  <path id="path3066" style="" d="m395.93 88.83h2.5466v-8.7897l-2.7704 0.55562v-1.4199l2.755-0.55562h1.5588v10.21h2.5466v1.3119h-6.6366v-1.3119"/>
 </g>
 <g id="text78">
  <path id="path3069" style="" d="m437 88.83h5.4405v1.3119h-7.3157v-1.3119c0.59163-0.61221 1.3968-1.4328 2.4154-2.4617 1.0238-1.0341 1.6669-1.7003 1.9292-1.9987 0.49902-0.56076 0.84629-1.0341 1.0418-1.4199 0.20064-0.39099 0.30096-0.77426 0.30096-1.1498 0-0.61221-0.21608-1.1112-0.64822-1.4971-0.42702-0.38584-0.98521-0.57876-1.6746-0.57877-0.48875 0.00001-1.0058 0.0849-1.5511 0.25466-0.54019 0.16978-1.119 0.42702-1.7363 0.7717v-1.5743c0.62765-0.25208 1.2141-0.44243 1.7595-0.57106 0.54533-0.1286 1.0444-0.19291 1.4971-0.19292 1.1936 0.000012 2.1453 0.2984 2.8553 0.89517 0.70995 0.59679 1.0649 1.3942 1.0649 2.3923-0.00001 0.47332-0.09 0.92347-0.27009 1.3505-0.17493 0.42187-0.49647 0.9209-0.96463 1.4971-0.12862 0.1492-0.53762 0.58135-1.227 1.2965-0.68939 0.70997-1.6617 1.7055-2.917 2.9865"/>
 </g>
 <g id="text82">
  <path id="path3072" style="" d="m480.38 83.93c0.74597 0.15949 1.3273 0.49132 1.744 0.99549 0.42186 0.50418 0.63279 1.1267 0.6328 1.8675-0.00001 1.137-0.39101 2.0167-1.173 2.6392s-1.8932 0.93376-3.3337 0.93376c-0.4836-0.000001-0.98263-0.04887-1.4971-0.14662-0.50933-0.0926-1.0367-0.23408-1.582-0.42444v-1.5048c0.43215 0.25209 0.90546 0.44244 1.4199 0.57106 0.51446 0.12862 1.0521 0.19293 1.6128 0.19292 0.97748 0.000001 1.7209-0.19292 2.2302-0.57878 0.51446-0.38585 0.77169-0.94662 0.7717-1.6823-0.00001-0.67909-0.23923-1.209-0.71768-1.5897-0.47332-0.38584-1.1344-0.57877-1.9833-0.57878h-1.3428v-1.281h1.4045c0.76655 0.000007 1.353-0.15176 1.7595-0.4553 0.40642-0.30867 0.60964-0.75111 0.60965-1.3273-0.00001-0.59163-0.21094-1.0444-0.6328-1.3582-0.41672-0.31896-1.0161-0.47844-1.7981-0.47845-0.42701 0.00001-0.88488 0.04631-1.3736 0.13891-0.48875 0.09261-1.0264 0.23666-1.6128 0.43215v-1.3891c0.59163-0.16462 1.1447-0.28809 1.6592-0.37042 0.51961-0.0823 1.0084-0.12346 1.4662-0.12347 1.1833 0.000012 2.1196 0.27011 2.809 0.81028 0.68938 0.53506 1.0341 1.2605 1.0341 2.1762-0.00001 0.63795-0.18264 1.1781-0.54791 1.6206-0.36527 0.4373-0.88488 0.74084-1.5588 0.9106"/>
 </g>
 <g id="text86">
  <path id="path3075" style="" d="m519.94 79.978-3.9357 6.1504h3.9357v-6.1504m-0.409-1.3582h1.9601v7.5086h1.6437v1.2965h-1.6437v2.7164h-1.5511v-2.7164h-5.2012v-1.5048l4.7922-7.3003"/>
 </g>
 <g id="g90" transform="translate(-1 -5.3332)">
  <path id="rect92" fill="#fdfd04" d="m500 150h40v20h-40z"/>
  <path id="rect94" d="m500 150h40v20h-40z" stroke="#000" stroke-width="2" fill="none"/>
 </g>
 <g id="text96">
  <path id="path3080" style="" d="m484.83 183.17c-0.46817 0.41672-0.81286 0.83344-1.0341 1.2502-0.21608 0.41158-0.32412 0.84373-0.32411 1.2965-0.00001 0.75112 0.27266 1.3762 0.818 1.8752 0.54533 0.49903 1.2296 0.74855 2.0527 0.74855 0.48874 0 0.94661-0.0797 1.3736-0.23923 0.427-0.16463 0.82829-0.41157 1.2038-0.74083l-4.09-4.1903m1.0881-0.8643 3.9202 4.0128c0.30352-0.45787 0.54018-0.94661 0.70996-1.4662 0.16976-0.52475 0.27008-1.0804 0.30096-1.6669h1.4354c-0.0617 0.67911-0.22637 1.3505-0.49389 2.0141-0.26753 0.66366-0.64052 1.3196-1.119 1.9678l2.153 2.1994h-1.9447l-1.1035-1.1344c-0.53505 0.45787-1.0958 0.79999-1.6823 1.0264-0.5865 0.22122-1.2167 0.33183-1.8907 0.33183-1.2399 0-2.2534-0.35241-3.0405-1.0572-0.78714-0.70996-1.1807-1.618-1.1807-2.7241 0-0.65851 0.17234-1.2759 0.51704-1.8521 0.34469-0.58134 0.86172-1.1267 1.5511-1.636-0.24695-0.3241-0.43473-0.64565-0.56334-0.96462-0.12862-0.32411-0.19293-0.6405-0.19292-0.94919-0.00001-0.83343 0.28552-1.5022 0.85658-2.0064 0.57106-0.50931 1.3299-0.76397 2.2765-0.76398 0.427 0.00001 0.85143 0.0463 1.2733 0.1389 0.427 0.0926 0.85915 0.23152 1.2964 0.41672v1.4045c-0.44759-0.24179-0.8746-0.42442-1.281-0.5479-0.40643-0.12861-0.78456-0.19292-1.1344-0.19293-0.54019 0.00001-0.98006 0.14406-1.3196 0.43215-0.33441 0.28297-0.50161 0.65081-0.50161 1.1035 0 0.26239 0.0746 0.52734 0.2238 0.79485 0.15433 0.26239 0.46558 0.63538 0.93375 1.119"/>
  <path id="path3082" style="" d="m496.2 178.27v2.454h2.9247v1.1035h-2.9247v4.6919c-0.00001 0.70482 0.0952 1.1576 0.28553 1.3582 0.19549 0.20064 0.58906 0.30096 1.1807 0.30096h1.4585v1.1884h-1.4585c-1.0958 0-1.8521-0.20322-2.2688-0.60965-0.41672-0.41157-0.62508-1.1575-0.62508-2.2379v-4.6919h-1.0418v-1.1035h1.0418v-2.454h1.4276"/>
  <path id="path3084" style="" d="m504.35 181.72c-0.76141 0-1.3633 0.29839-1.8058 0.89517-0.44245 0.59164-0.66367 1.4045-0.66367 2.4386s0.21865 1.8495 0.65595 2.4463c0.44244 0.59164 1.0469 0.88746 1.8135 0.88746 0.75626 0 1.3556-0.29839 1.7981-0.89517 0.44244-0.59678 0.66366-1.4096 0.66366-2.4386 0-1.0238-0.22122-1.8341-0.66366-2.4309-0.44245-0.60191-1.0418-0.90288-1.7981-0.90288m0-1.2038c1.2347 0 2.2045 0.40129 2.9093 1.2038 0.70481 0.80257 1.0572 1.9138 1.0572 3.3337-0.00001 1.4148-0.35242 2.526-1.0572 3.3337-0.70483 0.80256-1.6746 1.2038-2.9093 1.2038-1.2399 0-2.2122-0.40129-2.917-1.2038-0.69968-0.80771-1.0495-1.919-1.0495-3.3337 0-1.4199 0.34983-2.5312 1.0495-3.3337 0.70482-0.80256 1.6772-1.2038 2.917-1.2038"/>
  <path id="path3086" style="" d="m517.39 182.38c0.35497-0.63793 0.77941-1.1087 1.2733-1.4122 0.49388-0.30353 1.0752-0.4553 1.744-0.4553 0.90031 0 1.5948 0.3164 2.0836 0.94919 0.48873 0.62765 0.7331 1.5228 0.73312 2.6855v5.2167h-1.4276v-5.1704c-0.00001-0.82828-0.14663-1.4431-0.43987-1.8444-0.29325-0.40128-0.74084-0.60192-1.3428-0.60193-0.7357 0.00001-1.317 0.24438-1.744 0.73312-0.42702 0.48875-0.64052 1.155-0.64051 1.9987v4.8849h-1.4276v-5.1704c0-0.83343-0.14663-1.4482-0.43987-1.8444-0.29325-0.40128-0.74598-0.60192-1.3582-0.60193-0.7254 0.00001-1.3016 0.24696-1.7286 0.74084-0.42701 0.48874-0.64052 1.1524-0.64051 1.991v4.8849h-1.4276v-8.643h1.4276v1.3428c0.32411-0.52989 0.71253-0.92089 1.1653-1.173 0.45273-0.25208 0.99034-0.37813 1.6128-0.37813 0.62765 0 1.1601 0.15949 1.5974 0.47845 0.44243 0.31898 0.76912 0.78199 0.98006 1.3891"/>
  <path id="path3088" style="" d="m532.27 185.05c-0.00001-1.0444-0.21609-1.8624-0.64823-2.454-0.42701-0.59677-1.0161-0.89516-1.7672-0.89517-0.75113 0.00001-1.3428 0.2984-1.7749 0.89517-0.42701 0.59165-0.64051 1.4096-0.64051 2.454s0.2135 1.8649 0.64051 2.4617c0.43215 0.59163 1.0238 0.88745 1.7749 0.88745 0.75111 0 1.3402-0.29582 1.7672-0.88745 0.43214-0.59678 0.64822-1.4174 0.64823-2.4617m-4.8308-3.0174c0.29839-0.51446 0.67395-0.89516 1.1267-1.1421 0.45787-0.25208 1.0032-0.37813 1.636-0.37813 1.0495 0 1.901 0.41672 2.5543 1.2502 0.65851 0.83344 0.98776 1.9292 0.98777 3.2874-0.00001 1.3582-0.32926 2.454-0.98777 3.2874-0.65338 0.83343-1.5048 1.2502-2.5543 1.2502-0.63279 0-1.1781-0.12347-1.636-0.37042-0.45273-0.25209-0.82829-0.63536-1.1267-1.1498v1.2965h-1.4276v-12.008h1.4276v4.6765"/>
  <path id="path3090" style="" d="m535.96 177.36h3.272v1.1035h-1.8521v11.884h1.8521v1.1035h-3.272v-14.091"/>
  <path id="path3092" style="" d="m546.75 179.2-3.9357 6.1504h3.9357v-6.1504m-0.409-1.3582h1.9601v7.5086h1.6437v1.2964h-1.6437v2.7164h-1.5511v-2.7164h-5.2012v-1.5048l4.7922-7.3003"/>
  <path id="path3094" style="" d="m555.65 177.36v14.091h-3.272v-1.1035h1.8444v-11.884h-1.8444v-1.1035h3.272"/>
 </g>
 <g id="g100" transform="translate(-1 -5.3332)">
  <path id="path102" d="m520 150v-30.264" stroke="#000" stroke-width="2" fill="none"/>
  <path id="polygon104" d="m520 119.74-5 2.5 5-10 5 10z"/>
  <path id="polygon106" d="m520 119.74-5 2.5 5-10 5 10z" stroke="#000" stroke-width="2" fill="none"/>
 </g>
</svg>
