<?xml version="1.0" encoding="UTF-8" standalone="no"?>
<!-- Created with Inkscape (http://www.inkscape.org/) -->
<svg id="svg2" xmlns:rdf="http://www.w3.org/1999/02/22-rdf-syntax-ns#" xmlns="http://www.w3.org/2000/svg" height="226.89" width="673.23" version="1.1" xmlns:cc="http://creativecommons.org/ns#" xmlns:dc="http://purl.org/dc/elements/1.1/" viewBox="239 179 362 112.51539">
 <metadata id="metadata74">
  <rdf:RDF>
   <cc:Work rdf:about="">
    <dc:format>image/svg+xml</dc:format>
    <dc:type rdf:resource="http://purl.org/dc/dcmitype/StillImage"/>
   </cc:Work>
  </rdf:RDF>
 </metadata>
 <path id="line4" d="m240 295.26h360" stroke="#000" stroke-width="2" fill="none"/>
 <g id="g6" transform="translate(0 -4.7423)">
  <path id="rect8" fill="#fff" d="m430 180h140v90h-140z"/>
  <path id="rect10" d="m430 180h140v90h-140z" stroke="#000" stroke-width="2" fill="none"/>
 </g>
 <g id="g12" transform="translate(0 -4.7423)">
  <path id="rect14" fill="#fff" d="m550 190h10v10h-10z"/>
  <path id="rect16" d="m550 190h10v10h-10z" stroke="#000" stroke-dasharray="0.4" stroke-width="2" fill="none"/>
 </g>
 <g id="text18">
  <path id="path3021" style="" d="m487.02 228.26-2.5312 3.4062 2.6625 3.5938h-1.3562l-2.0375-2.75-2.0375 2.75h-1.3562l2.7188-3.6625-2.4875-3.3375h1.3562l1.8562 2.4938 1.8562-2.4938h1.3562"/>
  <path id="path3023" style="" d="m492.03 228.26h1.2188l2.1875 5.875 2.1875-5.875h1.2188l-2.625 7h-1.5625l-2.625-7"/>
  <path id="path3025" style="" d="m503.61 231.74c-0.92917 0-1.5729 0.10625-1.9312 0.31875-0.35834 0.2125-0.5375 0.575-0.5375 1.0875 0 0.40833 0.13333 0.73333 0.4 0.975 0.27083 0.2375 0.6375 0.35625 1.1 0.35625 0.6375 0 1.1479-0.225 1.5312-0.675 0.3875-0.45417 0.58124-1.0562 0.58125-1.8062v-0.25625h-1.1438m2.2938-0.475v3.9938h-1.15v-1.0625c-0.2625 0.425-0.58959 0.73958-0.98125 0.94375-0.39167 0.2-0.87084 0.3-1.4375 0.3-0.71667 0-1.2875-0.2-1.7125-0.6-0.42083-0.40417-0.63125-0.94375-0.63125-1.6188 0-0.7875 0.2625-1.3812 0.7875-1.7812 0.52916-0.4 1.3167-0.6 2.3625-0.6h1.6125v-0.1125c-0.00001-0.52917-0.175-0.9375-0.525-1.225-0.34584-0.29167-0.83334-0.4375-1.4625-0.4375-0.4 0-0.78959 0.0479-1.1688 0.14375-0.37917 0.0958-0.74375 0.23958-1.0938 0.43125v-1.0625c0.42083-0.1625 0.82916-0.28333 1.225-0.3625 0.39583-0.0833 0.78125-0.125 1.1562-0.125 1.0125 0 1.7688 0.2625 2.2688 0.7875 0.49999 0.525 0.74999 1.3208 0.75 2.3875m-2.1-6.2438h1.2438l-2.0375 2.35h-0.95625l1.75-2.35"/>
  <path id="path3027" style="" d="m508.28 225.53h1.15v9.725h-1.15v-9.725"/>
  <path id="path3029" style="" d="m512.97 226.27v1.9875h2.3688v0.89375h-2.3688v3.8c0 0.57083 0.0771 0.9375 0.23125 1.1 0.15833 0.1625 0.47708 0.24375 0.95625 0.24375h1.1812v0.9625h-1.1812c-0.8875 0-1.5-0.16459-1.8375-0.49375-0.3375-0.33334-0.50625-0.9375-0.50625-1.8125v-3.8h-0.84375v-0.89375h0.84375v-1.9875h1.1562"/>
  <path id="path3031" style="" d="m519.57 229.06c-0.61667 0-1.1042 0.24167-1.4625 0.725-0.35833 0.47917-0.5375 1.1375-0.5375 1.975s0.17708 1.4979 0.53125 1.9812c0.35833 0.47916 0.84791 0.71875 1.4688 0.71875 0.6125 0 1.0979-0.24167 1.4562-0.725 0.35833-0.48334 0.5375-1.1417 0.5375-1.975 0-0.82917-0.17917-1.4854-0.5375-1.9688-0.35834-0.4875-0.84375-0.73125-1.4562-0.73125m0-0.975c1 0 1.7854 0.325 2.3562 0.975 0.57083 0.65 0.85624 1.55 0.85625 2.7-0.00001 1.1458-0.28542 2.0458-0.85625 2.7-0.57084 0.65-1.3562 0.975-2.3562 0.975-1.0042 0-1.7917-0.325-2.3625-0.975-0.56667-0.65417-0.85-1.5542-0.85-2.7 0-1.15 0.28333-2.05 0.85-2.7 0.57083-0.65 1.3583-0.975 2.3625-0.975"/>
  <path id="path3033" style="" d="m524.18 228.26h5.4625v1.05l-4.325 5.0312h4.325v0.91875h-5.6188v-1.05l4.325-5.0312h-4.1688v-0.91875"/>
  <path id="path3035" style="" d="m534.12 229.06c-0.61667 0-1.1042 0.24167-1.4625 0.725-0.35833 0.47917-0.5375 1.1375-0.5375 1.975s0.17708 1.4979 0.53125 1.9812c0.35833 0.47916 0.84791 0.71875 1.4688 0.71875 0.6125 0 1.0979-0.24167 1.4562-0.725 0.35833-0.48334 0.53749-1.1417 0.5375-1.975-0.00001-0.82917-0.17917-1.4854-0.5375-1.9688-0.35834-0.4875-0.84375-0.73125-1.4562-0.73125m0-0.975c1 0 1.7854 0.325 2.3562 0.975 0.57083 0.65 0.85624 1.55 0.85625 2.7-0.00001 1.1458-0.28542 2.0458-0.85625 2.7-0.57084 0.65-1.3562 0.975-2.3562 0.975-1.0042 0-1.7917-0.325-2.3625-0.975-0.56667-0.65417-0.85-1.5542-0.85-2.7 0-1.15 0.28333-2.05 0.85-2.7 0.57083-0.65 1.3583-0.975 2.3625-0.975m0.86875-3.0688h1.2438l-2.0375 2.35h-0.95625l1.75-2.35"/>
  <path id="path3037" style="" d="m481.26 241.93h1.2625v3.9438l4.1875-3.9438h1.625l-4.6312 4.35 4.9625 4.9812h-1.6625l-4.4812-4.4938v4.4938h-1.2625v-9.3312"/>
  <path id="path3039" style="" d="m491.68 245.06c-0.61667 0-1.1042 0.24167-1.4625 0.725-0.35834 0.47917-0.5375 1.1375-0.5375 1.975s0.17708 1.4979 0.53125 1.9812c0.35833 0.47916 0.84791 0.71875 1.4688 0.71875 0.6125 0 1.0979-0.24167 1.4562-0.725 0.35833-0.48334 0.53749-1.1417 0.5375-1.975-0.00001-0.82917-0.17917-1.4854-0.5375-1.9688-0.35834-0.4875-0.84375-0.73125-1.4562-0.73125m0-0.975c1 0 1.7854 0.325 2.3562 0.975 0.57083 0.65 0.85624 1.55 0.85625 2.7-0.00001 1.1458-0.28542 2.0458-0.85625 2.7-0.57084 0.65-1.3562 0.975-2.3562 0.975-1.0042 0-1.7917-0.325-2.3625-0.975-0.56667-0.65417-0.85-1.5542-0.85-2.7 0-1.15 0.28333-2.05 0.85-2.7 0.57083-0.65 1.3583-0.975 2.3625-0.975m0.5875-2.5312h1.2688v1.2625h-1.2688v-1.2625m-2.4438 0h1.2688v1.2625h-1.2688v-1.2625"/>
  <path id="path3041" style="" d="m496.75 241.53h1.1562v5.7438l3.4312-3.0188h1.4688l-3.7125 3.275 3.8688 3.725h-1.5l-3.5562-3.4188v3.4188h-1.1562v-9.725"/>
  <path id="path3043" style="" d="m506.48 245.06c-0.61667 0-1.1042 0.24167-1.4625 0.725-0.35833 0.47917-0.5375 1.1375-0.5375 1.975s0.17708 1.4979 0.53125 1.9812c0.35833 0.47916 0.84791 0.71875 1.4688 0.71875 0.6125 0 1.0979-0.24167 1.4562-0.725 0.35833-0.48334 0.5375-1.1417 0.5375-1.975 0-0.82917-0.17917-1.4854-0.5375-1.9688-0.35834-0.4875-0.84375-0.73125-1.4562-0.73125m0-0.975c1 0 1.7854 0.325 2.3562 0.975 0.57083 0.65 0.85624 1.55 0.85625 2.7-0.00001 1.1458-0.28542 2.0458-0.85625 2.7-0.57084 0.65-1.3562 0.975-2.3562 0.975-1.0042 0-1.7917-0.325-2.3625-0.975-0.56667-0.65417-0.85-1.5542-0.85-2.7 0-1.15 0.28333-2.05 0.85-2.7 0.57083-0.65 1.3583-0.975 2.3625-0.975m0.5875-2.5312h1.2688v1.2625h-1.2688v-1.2625m-2.4438 0h1.2688v1.2625h-1.2688v-1.2625"/>
  <path id="path3045" style="" d="m515.64 245.33c-0.12917-0.075-0.27084-0.12917-0.425-0.1625-0.15-0.0375-0.31667-0.0563-0.5-0.0563-0.65 0-1.15 0.2125-1.5 0.6375-0.34584 0.42083-0.51875 1.0271-0.51875 1.8188v3.6875h-1.1562v-7h1.1562v1.0875c0.24166-0.425 0.55625-0.73958 0.94375-0.94375 0.3875-0.20833 0.85833-0.3125 1.4125-0.3125 0.0792 0 0.16666 0.006 0.2625 0.0188 0.0958 0.008 0.20208 0.0229 0.31875 0.0437l0.006 1.1812"/>
  <path id="path3047" style="" d="m521.62 244.53v1.075c-0.32501-0.17917-0.65209-0.3125-0.98125-0.4-0.325-0.0917-0.65417-0.1375-0.9875-0.1375-0.74584 0-1.325 0.2375-1.7375 0.7125-0.4125 0.47083-0.61875 1.1333-0.61875 1.9875 0 0.85416 0.20625 1.5188 0.61875 1.9938 0.4125 0.47083 0.99166 0.70625 1.7375 0.70625 0.33333 0 0.6625-0.0437 0.9875-0.13125 0.32916-0.0917 0.65624-0.22709 0.98125-0.40625v1.0625c-0.32084 0.15-0.65417 0.2625-1 0.3375-0.34167 0.075-0.70625 0.1125-1.0938 0.1125-1.0542 0-1.8917-0.33125-2.5125-0.99375-0.62083-0.6625-0.93125-1.5562-0.93125-2.6812 0-1.1417 0.3125-2.0396 0.9375-2.6938 0.62916-0.65416 1.4896-0.98125 2.5812-0.98125 0.35416 0 0.7 0.0375 1.0375 0.1125 0.33749 0.0708 0.66458 0.17917 0.98125 0.325"/>
  <path id="path3049" style="" d="m528.09 244.46v1.0875c-0.325-0.16667-0.6625-0.29167-1.0125-0.375-0.35-0.0833-0.7125-0.125-1.0875-0.125-0.57083 0-1 0.0875-1.2875 0.2625-0.28333 0.175-0.425 0.4375-0.425 0.7875 0 0.26667 0.10208 0.47708 0.30625 0.63125 0.20417 0.15 0.61458 0.29375 1.2312 0.43125l0.39375 0.0875c0.81667 0.175 1.3958 0.42292 1.7375 0.74375 0.34583 0.31667 0.51875 0.76041 0.51875 1.3312 0 0.65-0.25834 1.1646-0.775 1.5438-0.5125 0.37916-1.2188 0.56875-2.1188 0.56875-0.375 0-0.76667-0.0375-1.175-0.1125-0.40417-0.0708-0.83125-0.17917-1.2812-0.325v-1.1875c0.425 0.22083 0.84375 0.3875 1.2562 0.5 0.4125 0.10833 0.82083 0.1625 1.225 0.1625 0.54167 0 0.95833-0.0917 1.25-0.275 0.29167-0.1875 0.4375-0.45 0.4375-0.7875 0-0.3125-0.10625-0.55209-0.31875-0.71875-0.20833-0.16667-0.66875-0.32708-1.3812-0.48125l-0.4-0.0937c-0.7125-0.15-1.2271-0.37917-1.5438-0.6875-0.31666-0.3125-0.475-0.73958-0.475-1.2812 0-0.65833 0.23334-1.1667 0.7-1.525 0.46667-0.35833 1.1292-0.5375 1.9875-0.5375 0.425 0 0.825 0.0312 1.2 0.0937s0.72083 0.15625 1.0375 0.28125"/>
  <path id="path3051" style="" d="m530.31 244.26h1.15v7h-1.15v-7m0-2.725h1.15v1.4562h-1.15v-1.4562"/>
  <path id="path3053" style="" d="m539.68 247.03v4.225h-1.15v-4.1875c0-0.6625-0.12917-1.1583-0.3875-1.4875-0.25834-0.32917-0.64584-0.49375-1.1625-0.49375-0.62084 0-1.1104 0.19792-1.4688 0.59375-0.35833 0.39583-0.5375 0.93542-0.5375 1.6188v3.9562h-1.1562v-7h1.1562v1.0875c0.275-0.42083 0.59792-0.73541 0.96875-0.94375 0.375-0.20833 0.80625-0.3125 1.2938-0.3125 0.80416 0 1.4125 0.25 1.825 0.75 0.41249 0.49583 0.61874 1.2271 0.61875 2.1938"/>
  <path id="path3055" style="" d="m546.44 250.2h2.0625v-7.1188l-2.2438 0.45v-1.15l2.2312-0.45h1.2625v8.2688h2.0625v1.0625h-5.375v-1.0625"/>
  <path id="path3057" style="" d="m555.46 250.2h4.4062v1.0625h-5.925v-1.0625c0.47917-0.49584 1.1312-1.1604 1.9562-1.9938 0.82916-0.8375 1.35-1.3771 1.5625-1.6188 0.40416-0.45417 0.68541-0.8375 0.84375-1.15 0.16249-0.31666 0.24374-0.62708 0.24375-0.93125-0.00001-0.49583-0.17501-0.9-0.525-1.2125-0.34584-0.3125-0.79792-0.46875-1.3562-0.46875-0.39584 0-0.81459 0.0687-1.2562 0.20625-0.4375 0.1375-0.90625 0.34584-1.4062 0.625v-1.275c0.50833-0.20416 0.98333-0.35833 1.425-0.4625 0.44166-0.10416 0.84583-0.15624 1.2125-0.15625 0.96666 0.00001 1.7375 0.24167 2.3125 0.725 0.57499 0.48334 0.86249 1.1292 0.8625 1.9375-0.00001 0.38334-0.0729 0.74792-0.21875 1.0938-0.14167 0.34167-0.40209 0.74583-0.78125 1.2125-0.10417 0.12083-0.43542 0.47083-0.99375 1.05-0.55834 0.575-1.3458 1.3812-2.3625 2.4188"/>
  <path id="path3059" style="" d="m562.52 249.67h1.3188v1.5875h-1.3188v-1.5875"/>
 </g>
 <g id="g24" transform="translate(0 -4.7423)">
  <path id="rect26" fill="#fff" d="m350 200h10v30h-10z"/>
  <path id="rect28" d="m350 200h10v30h-10z" stroke="#000" stroke-width="2" fill="none"/>
 </g>
 <g id="g30" transform="translate(0 -4.7423)">
  <path id="rect32" fill="#add8e6" d="m290 240h80v60h-80z"/>
  <path id="rect34" d="m290 240h80v60h-80z" stroke="#000" stroke-width="2" fill="none"/>
 </g>
 <g id="g36" transform="translate(0 -4.7423)">
  <path id="polygon38" fill="#ff4040" d="m380 240-50-40-50 40z"/>
  <path id="polygon40" d="m380 240-50-40-50 40z" stroke="#000" stroke-width="2" fill="none"/>
 </g>
 <g id="g42" transform="translate(0 -4.7423)">
  <path id="rect44" fill="#a52a2a" d="m340 260h20v40h-20z"/>
  <path id="rect46" d="m340 260h20v40h-20z" stroke="#000" stroke-width="2" fill="none"/>
 </g>
 <g id="g48" transform="translate(0 -4.7423)">
  <path id="rect50" fill="#1e90ff" d="m298 260h32v20h-32z"/>
  <path id="rect52" d="m298 260h32v20h-32z" stroke="#000" stroke-width="2" fill="none"/>
 </g>
 <g id="g54" transform="translate(0 -4.7423)">
  <path id="polygon56" fill="#fff" d="m330 260v16l-16-16z"/>
  <path id="polygon58" d="m330 260v16l-16-16z" stroke="#000" stroke-width="2" fill="none"/>
 </g>
 <g id="g60" transform="translate(0 -4.7423)">
  <path id="polygon62" fill="#fff" d="m314 260-16 16v-16z"/>
  <path id="polygon64" d="m314 260-16 16v-16z" stroke="#000" stroke-width="2" fill="none"/>
 </g>
 <g id="text66">
  <path id="path3076" style="" d="m293.05 248.83h2.1828v-7.534l-2.3746 0.47625v-1.2171l2.3614-0.47625h1.3362v8.7511h2.1828v1.1245h-5.6886v-1.1245"/>
  <path id="path3078" style="" d="m302.6 248.83h4.6633v1.1245h-6.2706v-1.1245c0.50712-0.52476 1.1972-1.2281 2.0704-2.1101 0.87753-0.88635 1.4288-1.4574 1.6536-1.7132 0.42774-0.48065 0.7254-0.88635 0.89297-1.2171 0.17197-0.33514 0.25796-0.66366 0.25797-0.98558-0.00001-0.52475-0.18521-0.95249-0.55563-1.2832-0.36601-0.33072-0.84446-0.49609-1.4354-0.4961-0.41893 0.00001-0.86211 0.0728-1.3295 0.21829-0.46302 0.14553-0.95912 0.36601-1.4883 0.66146v-1.3494c0.53798-0.21607 1.0407-0.37923 1.5081-0.48948 0.46743-0.11024 0.89518-0.16536 1.2832-0.16537 1.023 0.00001 1.8388 0.25578 2.4474 0.7673 0.60853 0.51153 0.91281 1.195 0.91281 2.0505 0 0.4057-0.0772 0.79155-0.23151 1.1576-0.14994 0.3616-0.42554 0.78934-0.82682 1.2832-0.11025 0.12789-0.46083 0.4983-1.0517 1.1112-0.59091 0.60855-1.4244 1.4618-2.5003 2.5598"/>
 </g>
</svg>
