<?xml version="1.0" encoding="UTF-8" standalone="no"?>
<!-- Created with Inkscape (http://www.inkscape.org/) -->
<svg id="svg2" xmlns:rdf="http://www.w3.org/1999/02/22-rdf-syntax-ns#" xmlns="http://www.w3.org/2000/svg" height="189.22" width="708.66" version="1.1" xmlns:cc="http://creativecommons.org/ns#" xmlns:dc="http://purl.org/dc/elements/1.1/" viewBox="259 198 382 91.675407">
 <metadata id="metadata148">
  <rdf:RDF>
   <cc:Work rdf:about="">
    <dc:format>image/svg+xml</dc:format>
    <dc:type rdf:resource="http://purl.org/dc/dcmitype/StillImage"/>
   </cc:Work>
  </rdf:RDF>
 </metadata>
 <g id="g4" transform="translate(0 -6.1623)">
  <path id="rect6" fill="#fff" d="m600 200h10v30h-10z"/>
  <path id="rect8" d="m600 200h10v30h-10z" stroke="#000" stroke-width="2" fill="none"/>
 </g>
 <path id="line10" d="m260 293.84h380" stroke="#000" stroke-width="2" fill="none"/>
 <g id="g12" transform="translate(0 -6.1623)">
  <path id="rect14" fill="#add8e6" d="m540 240h80v60h-80z"/>
  <path id="rect16" d="m540 240h80v60h-80z" stroke="#000" stroke-width="2" fill="none"/>
 </g>
 <g id="g18" transform="translate(0 -6.1623)">
  <path id="polygon20" fill="#ff4040" d="m630 240-50-40-50 40z"/>
  <path id="polygon22" d="m630 240-50-40-50 40z" stroke="#000" stroke-width="2" fill="none"/>
 </g>
 <g id="g24" transform="translate(0 -6.1623)">
  <path id="rect26" fill="#a52a2a" d="m590 260h20v40h-20z"/>
  <path id="rect28" d="m590 260h20v40h-20z" stroke="#000" stroke-width="2" fill="none"/>
 </g>
 <g id="g30" transform="translate(0 -6.1623)">
  <path id="rect32" fill="#1e90ff" d="m548 260h32v20h-32z"/>
  <path id="rect34" d="m548 260h32v20h-32z" stroke="#000" stroke-width="2" fill="none"/>
 </g>
 <g id="text36">
  <path id="path3064" style="" d="m543.05 247.41h2.1828v-7.534l-2.3746 0.47625v-1.2171l2.3614-0.47625h1.3362v8.7511h2.1828v1.1245h-5.6886v-1.1245"/>
  <path id="path3066" style="" d="m554.47 243.07c-0.59973 0-1.076 0.20505-1.4288 0.61515-0.34838 0.41011-0.52256 0.97235-0.52256 1.6867 0 0.70997 0.17418 1.2722 0.52256 1.6867 0.35277 0.41011 0.82902 0.61516 1.4288 0.61516 0.59972 0 1.0738-0.20505 1.4221-0.61516 0.35277-0.41451 0.52916-0.97675 0.52917-1.6867-0.00001-0.71438-0.1764-1.2766-0.52917-1.6867-0.34838-0.4101-0.82242-0.61515-1.4221-0.61515m2.6524-4.187v1.2171c-0.33514-0.15874-0.67469-0.28001-1.0186-0.3638-0.33956-0.0838-0.6769-0.12567-1.012-0.12568-0.88195 0.00001-1.5566 0.29767-2.0241 0.89297-0.46302 0.59532-0.7276 1.4949-0.79375 2.6988 0.26017-0.38364 0.58649-0.67689 0.97896-0.87974 0.39247-0.20726 0.82462-0.31088 1.2965-0.31089 0.99219 0.00001 1.7749 0.30207 2.3482 0.9062 0.57766 0.59973 0.8665 1.4177 0.86651 2.454-0.00001 1.0142-0.29987 1.8278-0.89959 2.4408-0.59973 0.61296-1.3979 0.91943-2.3945 0.91943-1.1421 0-2.0152-0.43656-2.6194-1.3097-0.60414-0.87753-0.9062-2.1475-0.9062-3.81 0-1.561 0.37041-2.8046 1.1112-3.7306 0.74083-0.93045 1.7352-1.3957 2.9832-1.3957 0.33514 0.00001 0.67248 0.0331 1.012 0.0992 0.34395 0.0661 0.70114 0.16537 1.0716 0.29765"/>
 </g>
 <g id="g40" transform="translate(0 -6.1623)">
  <path id="polygon42" fill="#fff" d="m580 260v16l-16-16z"/>
  <path id="polygon44" d="m580 260v16l-16-16z" stroke="#000" stroke-width="2" fill="none"/>
 </g>
 <g id="g46" transform="translate(0 -6.1623)">
  <path id="polygon48" fill="#fff" d="m564 260-16 16v-16z"/>
  <path id="polygon50" d="m564 260-16 16v-16z" stroke="#000" stroke-width="2" fill="none"/>
 </g>
 <g id="g52" transform="translate(0 -6.1623)">
  <path id="rect54" fill="#fff" d="m340 200h10v30h-10z"/>
  <path id="rect56" d="m340 200h10v30h-10z" stroke="#000" stroke-width="2" fill="none"/>
 </g>
 <g id="g58" transform="translate(0 -6.1623)">
  <path id="rect60" fill="#add8e6" d="m280 240h80v60h-80z"/>
  <path id="rect62" d="m280 240h80v60h-80z" stroke="#000" stroke-width="2" fill="none"/>
 </g>
 <g id="g64" transform="translate(0 -6.1623)">
  <path id="polygon66" fill="#ff4040" d="m370 240-50-40-50 40z"/>
  <path id="polygon68" d="m370 240-50-40-50 40z" stroke="#000" stroke-width="2" fill="none"/>
 </g>
 <g id="g70" transform="translate(0 -6.1623)">
  <path id="rect72" fill="#a52a2a" d="m330 260h20v40h-20z"/>
  <path id="rect74" d="m330 260h20v40h-20z" stroke="#000" stroke-width="2" fill="none"/>
 </g>
 <g id="g76" transform="translate(0 -6.1623)">
  <path id="rect78" fill="#1e90ff" d="m288 260h32v20h-32z"/>
  <path id="rect80" d="m288 260h32v20h-32z" stroke="#000" stroke-width="2" fill="none"/>
 </g>
 <g id="g82" transform="translate(0 -6.1623)">
  <path id="polygon84" fill="#fff" d="m320 260v16l-16-16z"/>
  <path id="polygon86" d="m320 260v16l-16-16z" stroke="#000" stroke-width="2" fill="none"/>
 </g>
 <g id="g88" transform="translate(0 -6.1623)">
  <path id="polygon90" fill="#fff" d="m304 260-16 16v-16z"/>
  <path id="polygon92" d="m304 260-16 16v-16z" stroke="#000" stroke-width="2" fill="none"/>
 </g>
 <g id="g94" transform="translate(0 -6.1623)">
  <path id="rect96" fill="#fff" d="m470 200h10v30h-10z"/>
  <path id="rect98" d="m470 200h10v30h-10z" stroke="#000" stroke-width="2" fill="none"/>
 </g>
 <g id="g100" transform="translate(0 -6.1623)">
  <path id="rect102" fill="#add8e6" d="m410 240h80v60h-80z"/>
  <path id="rect104" d="m410 240h80v60h-80z" stroke="#000" stroke-width="2" fill="none"/>
 </g>
 <g id="g106" transform="translate(0 -6.1623)">
  <path id="polygon108" fill="#ff4040" d="m500 240-50-40-50 40z"/>
  <path id="polygon110" d="m500 240-50-40-50 40z" stroke="#000" stroke-width="2" fill="none"/>
 </g>
 <g id="g112" transform="translate(0 -6.1623)">
  <path id="rect114" fill="#a52a2a" d="m460 260h20v40h-20z"/>
  <path id="rect116" d="m460 260h20v40h-20z" stroke="#000" stroke-width="2" fill="none"/>
 </g>
 <g id="g118" transform="translate(0 -6.1623)">
  <path id="rect120" fill="#1e90ff" d="m418 260h32v20h-32z"/>
  <path id="rect122" d="m418 260h32v20h-32z" stroke="#000" stroke-width="2" fill="none"/>
 </g>
 <g id="g124" transform="translate(0 -6.1623)">
  <path id="polygon126" fill="#fff" d="m450 260v16l-16-16z"/>
  <path id="polygon128" d="m450 260v16l-16-16z" stroke="#000" stroke-width="2" fill="none"/>
 </g>
 <g id="g130" transform="translate(0 -6.1623)">
  <path id="polygon132" fill="#fff" d="m434 260-16 16v-16z"/>
  <path id="polygon134" d="m434 260-16 16v-16z" stroke="#000" stroke-width="2" fill="none"/>
 </g>
 <g id="text136">
  <path id="path3101" style="" d="m283.05 247.41h2.1828v-7.534l-2.3746 0.47625v-1.2171l2.3614-0.47625h1.3362v8.7511h2.1828v1.1245h-5.6886v-1.1245"/>
  <path id="path3103" style="" d="m292.6 247.41h4.6633v1.1245h-6.2706v-1.1245c0.50712-0.52476 1.1972-1.2281 2.0704-2.1101 0.87753-0.88635 1.4288-1.4574 1.6536-1.7132 0.42774-0.48066 0.7254-0.88635 0.89297-1.2171 0.17197-0.33513 0.25796-0.66366 0.25797-0.98557-0.00001-0.52475-0.18521-0.9525-0.55563-1.2832-0.36601-0.33073-0.84446-0.49609-1.4354-0.4961-0.41893 0.00001-0.86211 0.0728-1.3295 0.21828-0.46302 0.14553-0.95912 0.36602-1.4883 0.66146v-1.3494c0.53798-0.21606 1.0407-0.37922 1.5081-0.48948 0.46743-0.11023 0.89518-0.16535 1.2832-0.16536 1.023 0.00001 1.8388 0.25577 2.4474 0.76729 0.60853 0.51154 0.91281 1.195 0.91281 2.0505 0 0.4057-0.0772 0.79155-0.23151 1.1576-0.14994 0.36161-0.42554 0.78935-0.82682 1.2832-0.11025 0.12789-0.46083 0.49831-1.0517 1.1113-0.59091 0.60854-1.4244 1.4618-2.5003 2.5598"/>
 </g>
 <g id="text140">
  <path id="path3106" style="" d="m413.05 247.41h2.1828v-7.534l-2.3746 0.47625v-1.2171l2.3614-0.47625h1.3362v8.7511h2.1828v1.1245h-5.6886v-1.1245"/>
  <path id="path3108" style="" d="m425.12 239.83-3.3734 5.2718h3.3734v-5.2718m-0.35057-1.1642h1.6801v6.436h1.4089v1.1112h-1.4089v2.3283h-1.3295v-2.3283h-4.4582v-1.2898l4.1077-6.2574"/>
 </g>
</svg>
