<?xml version="1.0" encoding="UTF-8" standalone="no"?>
<!-- Created with Inkscape (http://www.inkscape.org/) -->
<svg id="svg2" xmlns:rdf="http://www.w3.org/1999/02/22-rdf-syntax-ns#" xmlns="http://www.w3.org/2000/svg" height="206.67" width="338.04" version="1.1" xmlns:cc="http://creativecommons.org/ns#" xmlns:dc="http://purl.org/dc/elements/1.1/" viewBox="100 87 180.3085 114.71014">
 <metadata id="metadata68">
  <rdf:RDF>
   <cc:Work rdf:about="">
    <dc:format>image/svg+xml</dc:format>
    <dc:type rdf:resource="http://purl.org/dc/dcmitype/StillImage"/>
   </cc:Work>
  </rdf:RDF>
 </metadata>
 <g id="text4">
  <path id="path3013" style="" d="m102.18 96.915c-0.32632 0.18962-0.66367 0.33073-1.012 0.42333-0.34397 0.09701-0.69674 0.14552-1.0583 0.14552-1.1465-0.000001-2.0439-0.34396-2.6921-1.0319-0.64382-0.68792-0.96573-1.6404-0.96573-2.8575-0.000001-1.2171 0.32191-2.1696 0.96573-2.8575 0.64823-0.68791 1.5456-1.0319 2.6921-1.0319 0.35719 0.000007 0.70555 0.04631 1.0451 0.13891 0.33954 0.09261 0.6813 0.23593 1.0253 0.42995v1.2766c-0.32191-0.28663-0.64603-0.49388-0.97234-0.62177-0.32192-0.12788-0.68793-0.19182-1.098-0.19182-0.76288 0.000007-1.3494 0.24695-1.7595 0.74084-0.41011 0.4939-0.61516 1.1995-0.61516 2.1167-0.000003 0.91282 0.20505 1.6184 0.61516 2.1167 0.41451 0.49389 1.001 0.74084 1.7595 0.74084 0.42333 0.000001 0.80257-0.06394 1.1377-0.19182 0.33514-0.13229 0.64602-0.33514 0.93266-0.60854v1.2634"/>
  <path id="path3015" style="" d="m109.75 90.142v1.1906c-0.34837-0.20284-0.69894-0.35498-1.0517-0.45641-0.35278-0.10142-0.71217-0.15213-1.0782-0.15214-0.55122 0.000007-0.96353 0.09041-1.2369 0.2712-0.26899 0.1764-0.40349 0.44759-0.40349 0.8136 0 0.33074 0.10142 0.57768 0.30427 0.74084s0.70776 0.32192 1.5148 0.47625l0.48948 0.0926c0.60413 0.11466 1.0605 0.34396 1.3692 0.68792 0.31308 0.34396 0.46963 0.79155 0.46964 1.3428-0.00001 0.73202-0.26018 1.3053-0.78053 1.7198-0.52035 0.4101-1.2436 0.61516-2.1696 0.61516-0.36601-0.000001-0.74965-0.03969-1.1509-0.11906-0.40128-0.07497-0.83564-0.18962-1.3031-0.34396v-1.2568c0.4542 0.23372 0.88856 0.41011 1.3031 0.52917 0.41452 0.11465 0.80698 0.17198 1.1774 0.17198 0.53799 0.000001 0.95471-0.10804 1.2502-0.32412 0.29545-0.22048 0.44318-0.52696 0.44318-0.91943 0-0.56444-0.5402-0.9547-1.6206-1.1708l-0.0529-0.01323-0.45641-0.0926c-0.70115-0.1367-1.2127-0.366-1.5346-0.68792-0.32191-0.32632-0.48286-0.76949-0.48286-1.3295 0-0.70996 0.24033-1.2568 0.72099-1.6404 0.48066-0.38805 1.1664-0.58208 2.0571-0.58208 0.39687 0.000007 0.77831 0.03749 1.1443 0.11245 0.36601 0.07056 0.7254 0.1786 1.0782 0.32412"/>
  <path id="path3017" style="" d="m118.82 93.284v0.59531h-5.2718v0.03969c0 0.80698 0.20946 1.431 0.62839 1.8719 0.42333 0.44098 1.0186 0.66146 1.7859 0.66146 0.38805 0.000001 0.79375-0.06173 1.2171-0.18521 0.42333-0.12347 0.87532-0.31088 1.356-0.56224v1.2105c-0.46303 0.18962-0.91061 0.33073-1.3428 0.42333-0.42775 0.09701-0.84227 0.14552-1.2436 0.14552-1.1509-0.000001-2.0505-0.34396-2.6988-1.0319-0.64824-0.69233-0.97235-1.6448-0.97235-2.8575 0-1.1818 0.3175-2.1255 0.9525-2.831 0.635-0.70555 1.4817-1.0583 2.54-1.0583 0.94368 0.000007 1.6867 0.31971 2.2291 0.95912 0.5468 0.63942 0.8202 1.5125 0.82021 2.6194m-1.2171-0.35719c-0.0176-0.71437-0.18742-1.2568-0.50932-1.6272-0.31751-0.37482-0.77612-0.56223-1.3758-0.56224-0.5865 0.000007-1.0694 0.19404-1.4486 0.58208-0.37924 0.38806-0.60414 0.92605-0.67469 1.614l4.0084-0.0066"/>
  <path id="path3019" style="" d="m127.25 91.412c-0.26018-0.20284-0.52476-0.35057-0.79375-0.44318-0.269-0.0926-0.56445-0.1389-0.88635-0.13891-0.75848 0.000006-1.3384 0.23813-1.7396 0.71438-0.40129 0.47626-0.60194 1.1642-0.60193 2.0638v3.6843h-1.2237v-7.4084h1.2237v1.4486c0.20284-0.52475 0.51373-0.92604 0.93266-1.2039 0.42333-0.28222 0.92383-0.42333 1.5015-0.42333 0.29986 0.000007 0.57987 0.03749 0.84005 0.11245 0.26017 0.07497 0.50932 0.19183 0.74745 0.35057v1.2435"/>
  <path id="path3021" style="" d="m135.12 93.284v0.59531h-5.2718v0.03969c-0.00001 0.80698 0.20946 1.431 0.62838 1.8719 0.42333 0.44098 1.0186 0.66146 1.7859 0.66146 0.38806 0.000001 0.79375-0.06173 1.2171-0.18521 0.42333-0.12347 0.87533-0.31088 1.356-0.56224v1.2105c-0.46302 0.18962-0.91061 0.33073-1.3428 0.42333-0.42775 0.09701-0.84226 0.14552-1.2435 0.14552-1.151-0.000001-2.0505-0.34396-2.6988-1.0319-0.64823-0.69233-0.97235-1.6448-0.97235-2.8575 0-1.1818 0.3175-2.1255 0.95251-2.831 0.63499-0.70555 1.4817-1.0583 2.54-1.0583 0.94368 0.000007 1.6867 0.31971 2.2291 0.95912 0.5468 0.63942 0.8202 1.5125 0.82021 2.6194m-1.2171-0.35719c-0.0177-0.71437-0.18742-1.2568-0.50933-1.6272-0.3175-0.37482-0.77612-0.56223-1.3758-0.56224-0.58649 0.000007-1.0694 0.19404-1.4486 0.58208-0.37924 0.38806-0.60414 0.92605-0.67469 1.614l4.0084-0.0066"/>
  <path id="path3023" style="" d="m141.77 87.013c-0.5865 1.0054-1.0253 2.0086-1.3163 3.0096-0.28664 0.9966-0.42996 2.002-0.42995 3.0163-0.00001 1.0098 0.14331 2.0152 0.42995 3.0163 0.29104 1.001 0.7298 2.0086 1.3163 3.0229h-1.0583c-0.66588-1.0495-1.162-2.0704-1.4883-3.0626-0.32632-0.9966-0.48948-1.9888-0.48948-2.9766 0-0.98336 0.16316-1.9733 0.48948-2.97 0.32632-0.99659 0.82241-2.0152 1.4883-3.0559h1.0583"/>
  <path id="path3025" style="" d="m145.75 89.884h3.1155v6.4625h2.4143v0.94589h-6.0457v-0.94589h2.4143v-5.5166h-1.8984v-0.94589m1.8984-2.884h1.2171v1.5412h-1.2171v-1.5412"/>
  <path id="path3027" style="" d="m159.16 92.702v4.5905h-1.2237v-4.5905c-0.00001-0.66586-0.11686-1.1553-0.35057-1.4684-0.23373-0.31308-0.59973-0.46963-1.098-0.46964-0.56886 0.000006-1.0076 0.20285-1.3163 0.60854-0.30428 0.40129-0.45641 0.97896-0.45641 1.733v4.187h-1.2171v-7.4084h1.2171v1.1113c0.21607-0.42333 0.50932-0.74303 0.87974-0.95912 0.37042-0.22048 0.80918-0.33072 1.3163-0.33073 0.75406 0.000007 1.3163 0.24916 1.6867 0.74745 0.37482 0.4939 0.56223 1.2436 0.56224 2.249"/>
  <path id="path3029" style="" d="m164.42 87.781v2.1034h2.7649v0.94589h-2.7649v4.0217c-0.00001 0.54681 0.10362 0.92825 0.31088 1.1443 0.20725 0.21608 0.56885 0.32412 1.0848 0.32412h1.3692v0.97235h-1.4883c-0.91282 0-1.5566-0.183-1.9315-0.54901-0.37483-0.36601-0.56224-0.9966-0.56224-1.8918v-4.0217h-1.9778v-0.94589h1.9778v-2.1034h1.2171"/>
  <path id="path3031" style="" d="m183.72 89.044-2.368 1.2832 2.368 1.2898-0.37703 0.64823-2.2225-1.3428v2.4937h-0.76068v-2.4937l-2.2225 1.3428-0.37703-0.64823 2.368-1.2898-2.368-1.2832 0.37703-0.65485 2.2225 1.3428v-2.4937h0.76068v2.4937l2.2225-1.3428 0.37703 0.65485"/>
  <path id="path3033" style="" d="m187.29 96.36v3.7505h-1.2237v-10.226h1.2237v0.94589c0.20285-0.366 0.47184-0.64381 0.80698-0.83344 0.33955-0.19402 0.72981-0.29104 1.1708-0.29104 0.89517 0.000007 1.5963 0.34617 2.1034 1.0385 0.51152 0.69233 0.76729 1.6514 0.76729 2.8774 0 1.2039-0.25577 2.1497-0.76729 2.8377-0.51154 0.68351-1.2127 1.0253-2.1034 1.0253-0.4498-0.000001-0.84447-0.09481-1.184-0.28443-0.33514-0.19403-0.59972-0.47405-0.79375-0.84005m3.5719-2.7649c-0.00001-0.94368-0.14994-1.6558-0.4498-2.1365-0.29545-0.48066-0.73643-0.72098-1.3229-0.72099-0.5909 0.000007-1.0385 0.24254-1.3428 0.72761-0.30427 0.48067-0.45641 1.1906-0.45641 2.1299 0 0.93487 0.15214 1.6448 0.45641 2.1299 0.30427 0.48507 0.75186 0.72761 1.3428 0.72761 0.58649 0.000001 1.0275-0.24033 1.3229-0.72099 0.29986-0.48066 0.44979-1.1928 0.4498-2.1365"/>
  <path id="path3035" style="" d="m197.6 93.568h-0.40349c-0.70997 0.000004-1.2458 0.12568-1.6074 0.37703-0.35719 0.24695-0.53578 0.61736-0.53578 1.1113 0 0.44538 0.13449 0.79155 0.40349 1.0385 0.26899 0.24695 0.64161 0.37042 1.1179 0.37042 0.67027 0.000001 1.1972-0.23151 1.5809-0.69453 0.38364-0.46743 0.57766-1.1112 0.58208-1.9315v-0.2712h-1.1377m2.3614-0.50271v4.2267h-1.2237v-1.098c-0.26018 0.44097-0.5887 0.76729-0.98558 0.97896-0.39247 0.20726-0.87092 0.31089-1.4354 0.31089-0.75407-0.000001-1.356-0.21167-1.8058-0.635-0.44979-0.42774-0.67469-0.9988-0.67469-1.7132 0-0.82462 0.27561-1.4508 0.82683-1.8785 0.55562-0.42774 1.3692-0.64161 2.4408-0.64162h1.6338v-0.19182c-0.004-0.5909-0.15435-1.0186-0.44979-1.2832-0.29546-0.26899-0.7673-0.40348-1.4155-0.40349-0.41452 0.000007-0.83344 0.05954-1.2568 0.17859-0.42334 0.11907-0.83565 0.29325-1.2369 0.52255v-1.2171c0.44979-0.17197 0.87974-0.29986 1.2898-0.38365 0.41451-0.08819 0.81579-0.13228 1.2038-0.13229 0.61295 0.000007 1.1355 0.09041 1.5677 0.2712 0.43656 0.18081 0.78934 0.452 1.0583 0.8136 0.16756 0.22049 0.28662 0.4939 0.35719 0.82021 0.0706 0.32192 0.10582 0.80699 0.10583 1.4552"/>
  <path id="path3037" style="" d="m204.43 95.288h1.6669v1.3692l-1.3031 2.5334h-1.0186l0.65484-2.5334v-1.3692"/>
  <path id="path3039" style="" d="m219.1 89.884h3.1155v6.4625h2.4143v0.94589h-6.0458v-0.94589h2.4143v-5.5166h-1.8984v-0.94589m1.8984-2.884h1.2171v1.5412h-1.2171v-1.5412"/>
  <path id="path3041" style="" d="m232.5 92.702v4.5905h-1.2237v-4.5905c0-0.66586-0.11686-1.1553-0.35057-1.4684-0.23372-0.31308-0.59973-0.46963-1.098-0.46964-0.56886 0.000006-1.0076 0.20285-1.3163 0.60854-0.30427 0.40129-0.45641 0.97896-0.45641 1.733v4.187h-1.2171v-7.4084h1.2171v1.1113c0.21608-0.42333 0.50933-0.74303 0.87975-0.95912 0.37041-0.22048 0.80918-0.33072 1.3163-0.33073 0.75406 0.000007 1.3163 0.24916 1.6867 0.74745 0.37482 0.4939 0.56224 1.2436 0.56224 2.249"/>
  <path id="path3043" style="" d="m237.76 87.781v2.1034h2.7649v0.94589h-2.7649v4.0217c0 0.54681 0.10362 0.92825 0.31089 1.1443 0.20725 0.21608 0.56885 0.32412 1.0848 0.32412h1.3692v0.97235h-1.4883c-0.91282 0-1.5566-0.183-1.9315-0.54901-0.37483-0.36601-0.56224-0.9966-0.56224-1.8918v-4.0217h-1.9778v-0.94589h1.9778v-2.1034h1.2171"/>
  <path id="path3045" style="" d="m257.06 89.044-2.368 1.2832 2.368 1.2898-0.37703 0.64823-2.2225-1.3428v2.4937h-0.76068v-2.4937l-2.2225 1.3428-0.37703-0.64823 2.368-1.2898-2.368-1.2832 0.37703-0.65485 2.2225 1.3428v-2.4937h0.76068v2.4937l2.2225-1.3428 0.37703 0.65485"/>
  <path id="path3047" style="" d="m260.63 96.36v3.7505h-1.2237v-10.226h1.2237v0.94589c0.20284-0.366 0.47183-0.64381 0.80698-0.83344 0.33954-0.19402 0.7298-0.29104 1.1708-0.29104 0.89517 0.000007 1.5963 0.34617 2.1034 1.0385 0.51153 0.69233 0.76729 1.6514 0.7673 2.8774-0.00001 1.2039-0.25577 2.1497-0.7673 2.8377-0.51153 0.68351-1.2127 1.0253-2.1034 1.0253-0.4498-0.000001-0.84447-0.09481-1.184-0.28443-0.33514-0.19403-0.59973-0.47405-0.79375-0.84005m3.5719-2.7649c-0.00001-0.94368-0.14994-1.6558-0.44979-2.1365-0.29546-0.48066-0.73643-0.72098-1.3229-0.72099-0.59091 0.000007-1.0385 0.24254-1.3428 0.72761-0.30427 0.48067-0.45641 1.1906-0.4564 2.1299-0.00001 0.93487 0.15213 1.6448 0.4564 2.1299 0.30427 0.48507 0.75186 0.72761 1.3428 0.72761 0.58649 0.000001 1.0275-0.24033 1.3229-0.72099 0.29985-0.48066 0.44978-1.1928 0.44979-2.1365"/>
  <path id="path3049" style="" d="m272.37 93.595c-0.00001-0.94368-0.14994-1.6558-0.44979-2.1365-0.29987-0.48066-0.74305-0.72098-1.3295-0.72099-0.59091 0.000007-1.0385 0.24254-1.3428 0.72761-0.30428 0.48067-0.45641 1.1906-0.45641 2.1299 0 0.93487 0.15213 1.6448 0.45641 2.1299 0.30427 0.48507 0.75185 0.72761 1.3428 0.72761 0.58649 0.000001 1.0297-0.24033 1.3295-0.72099 0.29985-0.48066 0.44978-1.1928 0.44979-2.1365m-3.5785-2.7649c0.19403-0.36159 0.46081-0.6394 0.80037-0.83344 0.34395-0.19402 0.74083-0.29104 1.1906-0.29104 0.89076 0.000007 1.5919 0.34397 2.1034 1.0319 0.51152 0.68352 0.76728 1.6272 0.76729 2.831-0.00001 1.2215-0.25798 2.1806-0.77391 2.8774-0.51153 0.69233-1.2149 1.0385-2.11 1.0385-0.44098-0.000001-0.83124-0.09481-1.1708-0.28443-0.33514-0.19403-0.60413-0.47405-0.80698-0.84005v0.93266h-1.2171v-10.292h1.2171v3.8299"/>
  <path id="path3051" style="" d="m276.75 87.013h1.0583c0.66586 1.0407 1.162 2.0594 1.4883 3.0559 0.32632 0.99661 0.48948 1.9866 0.48948 2.97 0 0.99219-0.16316 1.9866-0.48948 2.9832s-0.82242 2.0152-1.4883 3.0559h-1.0583c0.58649-1.0231 1.0231-2.0351 1.3097-3.0361 0.29104-1.001 0.43656-2.002 0.43657-3.003-0.00001-1.0054-0.14553-2.0086-0.43657-3.0096-0.28663-1.001-0.7232-2.0064-1.3097-3.0163"/>
  <path id="path3053" style="" d="m96.859 174.55h3.1155v6.4625h2.4143v0.94589h-6.0457v-0.94589h2.4143v-5.5166h-1.8984v-0.94589m1.8984-2.884h1.2171v1.5412h-1.2171v-1.5412"/>
  <path id="path3055" style="" d="m110.27 177.37v4.5905h-1.2237v-4.5905c0-0.66587-0.11686-1.1554-0.35057-1.4684-0.23372-0.31309-0.59973-0.46963-1.098-0.46964-0.56885 0.00001-1.0076 0.20285-1.3163 0.60854-0.30427 0.40129-0.45641 0.97897-0.45641 1.733v4.187h-1.2171v-7.4084h1.2171v1.1112c0.21608-0.42333 0.50932-0.74303 0.87974-0.95912 0.37042-0.22047 0.80919-0.33072 1.3163-0.33073 0.75406 0.00001 1.3163 0.24916 1.6867 0.74745 0.37482 0.4939 0.56224 1.2436 0.56224 2.249"/>
  <path id="path3057" style="" d="m115.53 172.45v2.1034h2.7649v0.94589h-2.7649v4.0217c-0.00001 0.54681 0.10362 0.92825 0.31089 1.1443 0.20725 0.21608 0.56885 0.32411 1.0848 0.32411h1.3692v0.97235h-1.4883c-0.91282 0-1.5566-0.183-1.9315-0.54901-0.37483-0.36601-0.56224-0.9966-0.56224-1.8918v-4.0217h-1.9778v-0.94589h1.9778v-2.1034h1.2171"/>
  <path id="path3059" style="" d="m135.16 174.55-2.6525 3.5454 2.9104 3.8629h-1.4089l-2.1696-2.97-2.163 2.97h-1.4089l2.9104-3.8629-2.6524-3.5454h1.3494l1.9645 2.6789 1.9513-2.6789h1.3692"/>
  <path id="path3061" style="" d="m144.64 178.49h6.9916v1.1377h-6.9916v-1.1377m0-2.6855h6.9916v1.1245h-6.9916v-1.1245"/>
  <path id="path3063" style="" d="m165.49 176.67c0.64823 0.17198 1.1443 0.47846 1.4883 0.91942 0.34395 0.43657 0.51593 0.98338 0.51593 1.6404 0 0.9084-0.30648 1.6228-0.91942 2.1431-0.60855 0.51593-1.453 0.7739-2.5334 0.7739-0.4542 0-0.91722-0.0419-1.3891-0.12567-0.47185-0.0838-0.93487-0.20506-1.3891-0.36381v-1.3295c0.44979 0.23372 0.89297 0.4079 1.3295 0.52255 0.43656 0.11466 0.87092 0.17198 1.3031 0.17198 0.73201 0 1.2942-0.16536 1.6867-0.49609 0.39246-0.33073 0.58869-0.80698 0.58869-1.4288 0-0.57326-0.19623-1.0275-0.58869-1.3626-0.39248-0.33955-0.92385-0.50932-1.5941-0.50933h-1.0186v-1.098h1.0186c0.61295 0 1.0914-0.13449 1.4354-0.40349 0.34396-0.26899 0.51594-0.64382 0.51594-1.1245 0-0.50712-0.16096-0.89517-0.48286-1.1642-0.31751-0.2734-0.77171-0.4101-1.3626-0.41011-0.39247 0.00001-0.79816 0.0441-1.2171 0.13229-0.41892 0.0882-0.85769 0.2205-1.3163 0.39688v-1.2303c0.53357-0.1411 1.0076-0.24693 1.4221-0.3175 0.41892-0.0705 0.78934-0.10582 1.1112-0.10583 0.96132 0.00001 1.7286 0.24254 2.3019 0.7276 0.57767 0.48067 0.86651 1.1201 0.86651 1.9182 0 0.5424-0.15214 0.9944-0.4564 1.356-0.29987 0.36161-0.73864 0.61737-1.3163 0.7673"/>
  <path id="path3065" style="" d="m171.83 179.96h1.6669v1.3692l-1.3031 2.5334h-1.0186l0.65485-2.5334v-1.3692"/>
  <path id="path3067" style="" d="m190.48 179.58c-0.20285 0.51594-0.46082 1.195-0.7739 2.0373-0.43657 1.1642-0.72982 1.8741-0.87975 2.1299-0.20285 0.34396-0.45641 0.60193-0.76068 0.77391s-0.65925 0.25797-1.065 0.25797h-0.97896v-1.0186h0.72099c0.35719 0 0.63721-0.10363 0.84006-0.31089 0.20284-0.20725 0.46081-0.74304 0.77391-1.6073l-2.8641-7.2893h1.2898l2.196 5.7944 2.163-5.7944h1.2898l-1.9513 5.0271"/>
  <path id="path3069" style="" d="m201.69 178.49h6.9916v1.1377h-6.9916v-1.1377m0-2.6855h6.9916v1.1245h-6.9916v-1.1245"/>
  <path id="path3071" style="" d="m222.27 173.3-3.1155 5.2189h3.1155v-5.2189m-0.21829-1.2171h1.5478v6.436h1.3163v1.0848h-1.3163v2.3548h-1.3295v-2.3548h-4.187v-1.2634l3.9688-6.2574"/>
  <path id="path3073" style="" d="m228.87 179.96h1.6669v1.3692l-1.3031 2.5334h-1.0186l0.65485-2.5334v-1.3692m-0.086-5.0271h1.6669v2.0042h-1.6669v-2.0042"/>
  <path id="path3075" style="" d="m102.18 198.52c-0.32632 0.18962-0.66367 0.33073-1.012 0.42333-0.34397 0.097-0.69674 0.14552-1.0583 0.14552-1.1465 0-2.0439-0.34396-2.6921-1.0319-0.64382-0.68791-0.96573-1.6404-0.96573-2.8575-0.000001-1.2171 0.32191-2.1696 0.96573-2.8575 0.64823-0.68791 1.5456-1.0319 2.6921-1.0319 0.35719 0.00001 0.70555 0.0463 1.0451 0.13891 0.33954 0.0926 0.6813 0.23593 1.0253 0.42995v1.2766c-0.32191-0.28663-0.64603-0.49389-0.97234-0.62178-0.32192-0.12787-0.68793-0.19181-1.098-0.19182-0.76288 0.00001-1.3494 0.24695-1.7595 0.74084-0.41011 0.49389-0.61516 1.1994-0.61516 2.1167-0.000003 0.91282 0.20505 1.6184 0.61516 2.1167 0.41451 0.49389 1.001 0.74084 1.7595 0.74083 0.42333 0.00001 0.80257-0.0639 1.1377-0.19182 0.33514-0.13229 0.64602-0.33514 0.93266-0.60854v1.2634"/>
  <path id="path3077" style="" d="m109.75 191.74v1.1906c-0.34837-0.20284-0.69894-0.35497-1.0517-0.4564-0.35278-0.10142-0.71217-0.15213-1.0782-0.15214-0.55122 0.00001-0.96353 0.0904-1.2369 0.2712-0.26899 0.1764-0.40349 0.44759-0.40349 0.8136 0 0.33073 0.10142 0.57768 0.30427 0.74083 0.20285 0.16317 0.70776 0.32192 1.5148 0.47625l0.48948 0.0926c0.60413 0.11465 1.0605 0.34396 1.3692 0.68791 0.31308 0.34397 0.46963 0.79155 0.46964 1.3428-0.00001 0.73202-0.26018 1.3053-0.78053 1.7198-0.52035 0.41011-1.2436 0.61516-2.1696 0.61516-0.36601 0-0.74965-0.0397-1.1509-0.11906-0.40128-0.075-0.83564-0.18962-1.3031-0.34396v-1.2568c0.4542 0.23371 0.88856 0.4101 1.3031 0.52916 0.41452 0.11466 0.80698 0.17198 1.1774 0.17198 0.53799 0 0.95471-0.10803 1.2502-0.32411 0.29545-0.22049 0.44318-0.52696 0.44318-0.91943 0-0.56444-0.5402-0.95471-1.6206-1.1708l-0.0529-0.0132-0.45641-0.0926c-0.70115-0.1367-1.2127-0.366-1.5346-0.68792-0.32191-0.32631-0.48286-0.76949-0.48286-1.3295 0-0.70996 0.24033-1.2568 0.72099-1.6404 0.48066-0.38805 1.1664-0.58208 2.0571-0.58209 0.39687 0.00001 0.77831 0.0375 1.1443 0.11245 0.36601 0.0706 0.7254 0.1786 1.0782 0.32412"/>
  <path id="path3079" style="" d="m118.82 194.88v0.59532h-5.2718v0.0397c0 0.80699 0.20946 1.431 0.62839 1.8719 0.42333 0.44098 1.0186 0.66147 1.7859 0.66146 0.38805 0.00001 0.79375-0.0617 1.2171-0.1852 0.42333-0.12348 0.87532-0.31089 1.356-0.56225v1.2105c-0.46303 0.18962-0.91061 0.33073-1.3428 0.42333-0.42775 0.097-0.84227 0.14552-1.2436 0.14552-1.1509 0-2.0505-0.34396-2.6988-1.0319-0.64824-0.69232-0.97235-1.6448-0.97235-2.8575 0-1.1818 0.3175-2.1255 0.9525-2.831 0.635-0.70555 1.4817-1.0583 2.54-1.0583 0.94368 0.00001 1.6867 0.31972 2.2291 0.95912 0.5468 0.63942 0.8202 1.5125 0.82021 2.6194m-1.2171-0.35719c-0.0176-0.71437-0.18742-1.2568-0.50932-1.6272-0.31751-0.37482-0.77612-0.56223-1.3758-0.56224-0.5865 0.00001-1.0694 0.19404-1.4486 0.58209-0.37924 0.38806-0.60414 0.92604-0.67469 1.614l4.0084-0.007"/>
  <path id="path3081" style="" d="m127.25 193.01c-0.26018-0.20284-0.52476-0.35057-0.79375-0.44318-0.269-0.0926-0.56445-0.1389-0.88635-0.1389-0.75848 0-1.3384 0.23813-1.7396 0.71437-0.40129 0.47626-0.60194 1.1642-0.60193 2.0638v3.6843h-1.2237v-7.4084h1.2237v1.4486c0.20284-0.52475 0.51373-0.92603 0.93266-1.2038 0.42333-0.28222 0.92383-0.42333 1.5015-0.42334 0.29986 0.00001 0.57987 0.0375 0.84005 0.11245 0.26017 0.075 0.50932 0.19183 0.74745 0.35058v1.2435"/>
  <path id="path3083" style="" d="m135.12 194.88v0.59532h-5.2718v0.0397c-0.00001 0.80699 0.20946 1.431 0.62838 1.8719 0.42333 0.44098 1.0186 0.66147 1.7859 0.66146 0.38806 0.00001 0.79375-0.0617 1.2171-0.1852 0.42333-0.12348 0.87533-0.31089 1.356-0.56225v1.2105c-0.46302 0.18962-0.91061 0.33073-1.3428 0.42333-0.42775 0.097-0.84226 0.14552-1.2435 0.14552-1.151 0-2.0505-0.34396-2.6988-1.0319-0.64823-0.69232-0.97235-1.6448-0.97235-2.8575 0-1.1818 0.3175-2.1255 0.95251-2.831 0.63499-0.70555 1.4817-1.0583 2.54-1.0583 0.94368 0.00001 1.6867 0.31972 2.2291 0.95912 0.5468 0.63942 0.8202 1.5125 0.82021 2.6194m-1.2171-0.35719c-0.0177-0.71437-0.18742-1.2568-0.50933-1.6272-0.3175-0.37482-0.77612-0.56223-1.3758-0.56224-0.58649 0.00001-1.0694 0.19404-1.4486 0.58209-0.37924 0.38806-0.60414 0.92604-0.67469 1.614l4.0084-0.007"/>
  <path id="path3085" style="" d="m141.77 188.61c-0.5865 1.0054-1.0253 2.0086-1.3163 3.0096-0.28664 0.99661-0.42996 2.002-0.42995 3.0163-0.00001 1.0098 0.14331 2.0152 0.42995 3.0163 0.29104 1.001 0.7298 2.0086 1.3163 3.0229h-1.0583c-0.66588-1.0495-1.162-2.0704-1.4883-3.0626-0.32632-0.9966-0.48948-1.9888-0.48948-2.9766 0-0.98336 0.16316-1.9734 0.48948-2.97s0.82241-2.0152 1.4883-3.056h1.0583"/>
  <path id="path3087" style="" d="m147.68 192.89 2.7517 3.6976c0.17197-0.21608 0.29986-0.48948 0.38365-0.82021 0.0838-0.33073 0.12567-0.7254 0.12567-1.184 0-0.1411-0.007-0.366-0.0198-0.67468l-0.007-0.0463h1.0848v0.25797c-0.00001 0.70997-0.0816 1.334-0.24474 1.8719-0.16317 0.53358-0.41011 0.9944-0.74083 1.3825l1.1245 1.5147h-1.4089l-0.51594-0.72099c-0.36601 0.30868-0.75407 0.53798-1.1642 0.68792-0.41011 0.14993-0.84888 0.22489-1.3163 0.22489-0.9525 0-1.7396-0.29545-2.3614-0.88635-0.62177-0.59532-0.93266-1.3428-0.93266-2.2424 0-0.60413 0.15214-1.1642 0.45641-1.6801 0.30427-0.51594 0.76288-0.99439 1.3758-1.4354-0.22049-0.31749-0.38365-0.62838-0.48948-0.93266-0.10584-0.30426-0.15875-0.61294-0.15875-0.92604 0-0.66145 0.21828-1.184 0.65484-1.5677 0.44097-0.38364 1.0429-0.57546 1.8058-0.57547 0.28663 0.00001 0.57326 0.0265 0.8599 0.0794 0.29103 0.0529 0.59089 0.1301 0.89958 0.23151v1.2105c-0.26018-0.17198-0.52917-0.29765-0.80698-0.37704-0.27341-0.0838-0.56225-0.12566-0.86651-0.12567-0.42775 0.00001-0.76509 0.10143-1.012 0.30427-0.24694 0.19844-0.37042 0.46744-0.37041 0.80698-0.00001 0.26018 0.0639 0.53358 0.19182 0.82021 0.12788 0.28223 0.36159 0.65044 0.70115 1.1046m-0.86652 0.68792c-0.40569 0.32191-0.70996 0.66366-0.91281 1.0253-0.19844 0.35719-0.29766 0.73863-0.29766 1.1443 0 0.66588 0.22049 1.2193 0.66146 1.6603 0.44097 0.43656 1.0032 0.65484 1.6867 0.65484 0.1852 0 0.37923-0.0265 0.58208-0.0794 0.20284-0.0529 0.40128-0.13009 0.59531-0.23151 0.11906-0.0662 0.21608-0.12347 0.29105-0.17198 0.0794-0.0529 0.15433-0.10804 0.22489-0.16537l-2.831-3.8365"/>
  <path id="path3089" style="" d="m159.6 191.48-2.6525 3.5454 2.9104 3.8629h-1.4089l-2.1696-2.97-2.163 2.97h-1.4089l2.9104-3.8629-2.6524-3.5454h1.3494l1.9645 2.6789 1.9513-2.6789h1.3692"/>
  <path id="path3091" style="" d="m163.68 196.89h1.6669v1.3692l-1.3031 2.5334h-1.0186l0.65484-2.5334v-1.3692"/>
  <path id="path3093" style="" d="m180.28 192.89 2.7517 3.6976c0.17197-0.21608 0.29986-0.48948 0.38365-0.82021 0.0838-0.33073 0.12567-0.7254 0.12568-1.184-0.00001-0.1411-0.007-0.366-0.0198-0.67468l-0.007-0.0463h1.0848v0.25797c-0.00001 0.70997-0.0816 1.334-0.24474 1.8719-0.16317 0.53358-0.41011 0.9944-0.74083 1.3825l1.1245 1.5147h-1.4089l-0.51594-0.72099c-0.36601 0.30868-0.75407 0.53798-1.1642 0.68792-0.41011 0.14993-0.84888 0.22489-1.3163 0.22489-0.9525 0-1.7396-0.29545-2.3614-0.88635-0.62177-0.59532-0.93266-1.3428-0.93266-2.2424 0-0.60413 0.15214-1.1642 0.45641-1.6801 0.30427-0.51594 0.76288-0.99439 1.3758-1.4354-0.22049-0.31749-0.38365-0.62838-0.48948-0.93266-0.10584-0.30426-0.15875-0.61294-0.15875-0.92604 0-0.66145 0.21828-1.184 0.65484-1.5677 0.44097-0.38364 1.0429-0.57546 1.8058-0.57547 0.28663 0.00001 0.57326 0.0265 0.8599 0.0794 0.29103 0.0529 0.5909 0.1301 0.89958 0.23151v1.2105c-0.26018-0.17198-0.52917-0.29765-0.80698-0.37704-0.27341-0.0838-0.56224-0.12566-0.86651-0.12567-0.42775 0.00001-0.76509 0.10143-1.012 0.30427-0.24694 0.19844-0.37042 0.46744-0.37041 0.80698-0.00001 0.26018 0.0639 0.53358 0.19182 0.82021 0.12788 0.28223 0.3616 0.65044 0.70115 1.1046m-0.86651 0.68792c-0.4057 0.32191-0.70997 0.66366-0.91282 1.0253-0.19844 0.35719-0.29766 0.73863-0.29766 1.1443 0 0.66588 0.22049 1.2193 0.66146 1.6603 0.44097 0.43656 1.0032 0.65484 1.6867 0.65484 0.1852 0 0.37923-0.0265 0.58208-0.0794 0.20284-0.0529 0.40128-0.13009 0.59532-0.23151 0.11905-0.0662 0.21607-0.12347 0.29104-0.17198 0.0794-0.0529 0.15433-0.10804 0.22489-0.16537l-2.831-3.8365"/>
  <path id="path3095" style="" d="m190.48 196.51c-0.20285 0.51594-0.46082 1.195-0.7739 2.0373-0.43657 1.1642-0.72982 1.8741-0.87975 2.1299-0.20285 0.34396-0.45641 0.60193-0.76068 0.77391s-0.65925 0.25797-1.065 0.25797h-0.97896v-1.0186h0.72099c0.35719 0 0.63721-0.10363 0.84006-0.31089 0.20284-0.20726 0.46081-0.74304 0.77391-1.6073l-2.8641-7.2893h1.2898l2.196 5.7944 2.163-5.7944h1.2898l-1.9513 5.0271"/>
  <path id="path3097" style="" d="m195.26 188.61h1.0583c0.66586 1.0407 1.162 2.0594 1.4883 3.056 0.32632 0.9966 0.48948 1.9866 0.48948 2.97 0 0.99219-0.16316 1.9866-0.48948 2.9832s-0.82242 2.0152-1.4883 3.0559h-1.0583c0.58649-1.0231 1.0231-2.0351 1.3097-3.0361 0.29104-1.001 0.43656-2.002 0.43656-3.003 0-1.0054-0.14552-2.0086-0.43656-3.0096-0.28663-1.001-0.7232-2.0064-1.3097-3.0163"/>
  <path id="path3099" style="" d="m204.43 196.89h1.6669v1.3692l-1.3031 2.5334h-1.0186l0.65484-2.5334v-1.3692m-0.086-5.0271h1.6669v2.0042h-1.6669v-2.0042"/>
 </g>
 <g id="g20" transform="translate(-4.8345 -2.7077)">
  <path id="rect22" fill="#fdfd04" d="m182 108h32v20h-32z"/>
  <path id="rect24" d="m182 108h32v20h-32z" stroke="#000" stroke-width="1.6" fill="none"/>
 </g>
 <g id="g26" transform="translate(-4.8345 -2.7077)">
  <path id="rect28" fill="#fdfd04" d="m254 108h34v20h-34z"/>
  <path id="rect30" d="m254 108h34v20h-34z" stroke="#000" stroke-width="1.6" fill="none"/>
 </g>
 <g id="g32" transform="translate(-4.8345 -2.7077)">
  <path id="rect34" fill="#7babe3" d="m126 148h20v20h-20z"/>
  <path id="rect36" d="m126 148h20v20h-20z" stroke="#000" stroke-width="1.6" fill="none"/>
 </g>
 <g id="g38" transform="translate(-4.8345 -2.7077)">
  <path id="rect40" fill="#7babe3" d="m184 148h20v20h-20z"/>
  <path id="rect42" d="m184 148h20v20h-20z" stroke="#000" stroke-width="1.5" fill="none"/>
 </g>
 <g id="text44">
  <path id="path3110" style="" d="m132.22 154.71c0.64822 0.17199 1.1443 0.47847 1.4883 0.91943 0.34396 0.43657 0.51593 0.98338 0.51594 1.6404-0.00001 0.90841-0.30648 1.6228-0.91943 2.1431-0.60855 0.51594-1.453 0.77391-2.5334 0.77391-0.4542 0-0.91723-0.0419-1.3891-0.12567-0.47185-0.0838-0.93487-0.20506-1.3891-0.36381v-1.3295c0.44979 0.23372 0.89297 0.4079 1.3295 0.52255 0.43656 0.11466 0.87092 0.17198 1.3031 0.17198 0.73201 0 1.2942-0.16536 1.6867-0.49609 0.39246-0.33073 0.5887-0.80698 0.5887-1.4288 0-0.57326-0.19624-1.0275-0.5887-1.3626-0.39247-0.33955-0.92384-0.50932-1.5941-0.50933h-1.0186v-1.098h1.0186c0.61295 0 1.0914-0.13449 1.4354-0.40349 0.34396-0.26899 0.51594-0.64382 0.51594-1.1245 0-0.50712-0.16096-0.89517-0.48286-1.1642-0.31751-0.2734-0.77171-0.4101-1.3626-0.41011-0.39247 0.00001-0.79817 0.0441-1.2171 0.13229-0.41892 0.0882-0.85769 0.2205-1.3163 0.39688v-1.2303c0.53357-0.1411 1.0076-0.24693 1.4221-0.3175 0.41892-0.0705 0.78933-0.10582 1.1112-0.10583 0.96132 0.00001 1.7286 0.24254 2.3019 0.7276 0.57767 0.48067 0.8665 1.1201 0.86651 1.9182-0.00001 0.5424-0.15214 0.9944-0.45641 1.356-0.29986 0.3616-0.73863 0.61737-1.3163 0.76729"/>
 </g>
 <g id="text48">
  <path id="path3113" style="" d="m189.95 151.33-3.1155 5.2189h3.1155v-5.2189m-0.21828-1.2171h1.5478v6.436h1.3163v1.0848h-1.3163v2.3548h-1.3295v-2.3548h-4.187v-1.2634l3.9688-6.2574"/>
 </g>
 <g id="g52" stroke="#000" stroke-width="2" fill="none" transform="translate(-4.8345 -2.7077)">
  <path id="path54" d="m181.19 122.94c-34 10 9.543 12.665-30.318 28.971"/>
  <path id="polyline56" d="m156.17 144.35-7.362 8.414 11.148 0.841"/>
 </g>
 <g id="g58" stroke="#000" stroke-width="2" fill="none" transform="translate(-4.8345 -2.7077)">
  <path id="path60" d="m253.22 123.08c-35 10-2.476 12.716-44.312 29.086"/>
  <path id="polyline62" d="m214.31 144.68-7.49 8.3 11.134 1.012"/>
 </g>
</svg>
