<?xml version="1.0" encoding="UTF-8" standalone="no"?>
<!-- Created with Inkscape (http://www.inkscape.org/) -->

<svg
   xmlns:dc="http://purl.org/dc/elements/1.1/"
   xmlns:cc="http://creativecommons.org/ns#"
   xmlns:rdf="http://www.w3.org/1999/02/22-rdf-syntax-ns#"
   xmlns:svg="http://www.w3.org/2000/svg"
   xmlns="http://www.w3.org/2000/svg"
   xmlns:sodipodi="http://sodipodi.sourceforge.net/DTD/sodipodi-0.dtd"
   xmlns:inkscape="http://www.inkscape.org/namespaces/inkscape"
   version="1.1"
   width="317.07394"
   height="254.40149"
   viewBox="99 59 176.98206 127.44101"
   id="svg2"
   inkscape:version="0.48.4 r9939"
   sodipodi:docname="indirekcio.svg">
  <sodipodi:namedview
     pagecolor="#ffffff"
     bordercolor="#666666"
     borderopacity="1"
     objecttolerance="10"
     gridtolerance="10"
     guidetolerance="10"
     inkscape:pageopacity="0"
     inkscape:pageshadow="2"
     inkscape:window-width="640"
     inkscape:window-height="480"
     id="namedview48"
     showgrid="false"
     inkscape:zoom="0.83255555"
     inkscape:cx="159.44882"
     inkscape:cy="125.71085"
     inkscape:window-x="0"
     inkscape:window-y="25"
     inkscape:window-maximized="0"
     inkscape:current-layer="svg2" />
  <metadata
     id="metadata94">
    <rdf:RDF>
      <cc:Work
         rdf:about="">
        <dc:format>image/svg+xml</dc:format>
        <dc:type
           rdf:resource="http://purl.org/dc/dcmitype/StillImage" />
      </cc:Work>
    </rdf:RDF>
  </metadata>
  <defs
     id="defs92" />
  <path
     style="fill:none;stroke:#000000;stroke-width:2"
     d="M 130,52.720505 130,192.7205"
     id="line4" />
  <path
     style="fill:none;stroke:#000000;stroke-width:2"
     d="M 220,52.720505 220,192.7205"
     id="line6" />
  <g
     id="g8"
     transform="translate(0,-7.2794929)">
    <path
       style="fill:#fdfd04"
       d="m 130,140 90,0 0,40 -90,0 z"
       id="rect10" />
    <path
       style="fill:none;stroke:#000000;stroke-width:2"
       d="m 130,140 90,0 0,40 -90,0 z"
       id="rect12" />
    <g
       style="font-size:15.80440044px;font-style:normal;font-weight:normal;text-anchor:middle;fill:#000000;font-family:sans-serif"
       id="text14">
      <path
         d="m 169.96852,154.83622 -2.11445,5.73372 4.23662,0 -2.12217,-5.73372 m -0.87974,-1.53568 1.7672,0 4.39096,11.52147 -1.62056,0 -1.04952,-2.95561 -5.19353,0 -1.04951,2.95561 -1.64372,0 4.39868,-11.52147"
         style=""
         id="path3030" />
      <path
         d="m 178.40319,163.51012 5.44048,0 0,1.31189 -7.31571,0 0,-1.31189 c 0.59164,-0.61222 1.39678,-1.43279 2.41542,-2.46172 1.02379,-1.03408 1.66687,-1.70031 1.92925,-1.9987 0.49903,-0.56077 0.84629,-1.03407 1.04179,-1.41993 0.20064,-0.39099 0.30096,-0.77426 0.30097,-1.14983 -1e-5,-0.61221 -0.21608,-1.11124 -0.64823,-1.4971 -0.42701,-0.38584 -0.98521,-0.57876 -1.67459,-0.57877 -0.48874,1e-5 -1.00578,0.0849 -1.55111,0.25466 -0.54019,0.16978 -1.11897,0.42701 -1.73633,0.7717 l 0,-1.57427 c 0.62765,-0.25208 1.21414,-0.44243 1.75948,-0.57106 0.54533,-0.1286 1.04436,-0.19291 1.49709,-0.19292 1.19356,10e-6 2.14532,0.2984 2.85529,0.89517 0.70996,0.59679 1.06494,1.39421 1.06495,2.39227 -1e-5,0.47331 -0.09,0.92347 -0.2701,1.35047 -0.17492,0.42187 -0.49647,0.9209 -0.96462,1.4971 -0.12863,0.1492 -0.53763,0.58135 -1.227,1.29645 -0.68939,0.70997 -1.66173,1.70546 -2.91703,2.98648"
         style=""
         id="path3032" />
    </g>
  </g>
  <g
     id="g18"
     transform="translate(0,-7.2794929)">
    <path
       d="m 220,160 c 30,5 30,-55 9.604,-51.601"
       inkscape:connector-curvature="0"
       id="path20"
       style="fill:none;stroke:#000000;stroke-width:2" />
    <path
       style="fill:#000000"
       d="m 229.604,108.399 3.288,4.521 -10.686,-3.288 9.042,-6.576 z"
       id="polygon22" />
    <path
       style="fill:none;stroke:#000000;stroke-width:2"
       d="m 229.604,108.399 3.288,4.521 -10.686,-3.288 9.042,-6.576 z"
       id="polygon24" />
  </g>
  <g
     style="font-size:18.06220055px;font-style:normal;font-weight:normal;text-anchor:start;fill:#000000;font-family:sans-serif"
     id="text26">
    <path
       d="m 259.91304,109.09275 -3.57187,4.80659 3.75708,5.07117 -1.91382,0 -2.87513,-3.88055 -2.87514,3.88055 -1.91381,0 3.83645,-5.16819 -3.51013,-4.70957 1.91381,0 2.61937,3.51895 2.61938,-3.51895 1.91381,0"
       style=""
       id="path3037" />
  </g>
  <g
     style="font-size:18.06220055px;font-style:normal;font-weight:normal;text-anchor:start;fill:#000000;font-family:sans-serif"
     id="text30">
    <path
       d="m 253.27201,157.48884 0,5.23874 -1.6316,0 0,-13.63484 1.6316,0 0,1.4993 c 0.34101,-0.58795 0.77023,-1.02304 1.28764,-1.30527 0.52328,-0.2881 1.14652,-0.43215 1.86972,-0.43216 1.19943,1e-5 2.17251,0.47626 2.91923,1.42875 0.75258,0.95251 1.12888,2.20487 1.12889,3.75708 -10e-6,1.55222 -0.37631,2.80458 -1.12889,3.75708 -0.74672,0.9525 -1.7198,1.42875 -2.91923,1.42875 -0.7232,0 -1.34644,-0.14111 -1.86972,-0.42333 -0.51741,-0.28811 -0.94663,-0.72614 -1.28764,-1.3141 m 5.52097,-3.4484 c -10e-6,-1.19356 -0.24696,-2.12842 -0.74084,-2.80458 -0.48801,-0.68203 -1.16123,-1.02304 -2.01965,-1.02305 -0.85843,1e-5 -1.53458,0.34102 -2.02847,1.02305 -0.48801,0.67616 -0.73201,1.61102 -0.73201,2.80458 0,1.19357 0.244,2.13137 0.73201,2.8134 0.49389,0.67616 1.17004,1.01424 2.02847,1.01424 0.85842,0 1.53164,-0.33808 2.01965,-1.01424 0.49388,-0.68203 0.74083,-1.61983 0.74084,-2.8134"
       style=""
       id="path3040" />
    <path
       d="m 264.77255,146.28816 0,2.80458 3.34257,0 0,1.26118 -3.34257,0 0,5.36221 c 0,0.80551 0.10877,1.32292 0.32632,1.55222 0.22342,0.22931 0.67321,0.34396 1.34937,0.34396 l 1.66688,0 0,1.35819 -1.66688,0 c -1.25236,0 -2.11666,-0.23224 -2.59291,-0.69673 -0.47625,-0.47037 -0.71437,-1.32291 -0.71437,-2.55764 l 0,-5.36221 -1.19063,0 0,-1.26118 1.19063,0 0,-2.80458 1.63159,0"
       style=""
       id="path3042" />
    <path
       d="m 275.98205,150.60968 c -0.18227,-0.10582 -0.38218,-0.18226 -0.59972,-0.2293 -0.21167,-0.0529 -0.44686,-0.0794 -0.70555,-0.0794 -0.91723,1e-5 -1.62278,0.29987 -2.11667,0.89958 -0.48801,0.59385 -0.73201,1.44934 -0.73201,2.56646 l 0,5.20346 -1.6316,0 0,-9.87776 1.6316,0 0,1.53458 c 0.34101,-0.59971 0.78492,-1.04362 1.33173,-1.33173 0.5468,-0.29398 1.2112,-0.44097 1.9932,-0.44098 0.1117,1e-5 0.23517,0.009 0.37041,0.0265 0.13523,0.0118 0.28516,0.0324 0.44979,0.0617 l 0.009,1.66687"
       style=""
       id="path3044" />
  </g>
  <path
     style="fill:none;stroke:#000000;stroke-width:2"
     d="M 100,52.720505 100,192.7205"
     id="line34" />
  <path
     style="fill:none;stroke:#000000;stroke-width:2"
     d="m 100,72.720512 30,0"
     id="line36" />
  <path
     style="fill:none;stroke:#000000;stroke-width:2"
     d="m 100,132.7205 30,0"
     id="line38" />
  <path
     style="fill:none;stroke:#000000;stroke-width:2"
     d="m 130,112.72051 -30,0"
     id="line40" />
  <path
     style="fill:none;stroke:#000000;stroke-width:2"
     d="m 100,92.720512 30,0"
     id="line42" />
  <path
     style="fill:none;stroke:#000000;stroke-width:2"
     d="m 100,152.7205 30,0"
     id="line44" />
  <path
     style="fill:none;stroke:#000000;stroke-width:2"
     d="m 100,172.7205 30,0"
     id="line46" />
  <g
     style="font-size:12.80000019px;font-style:normal;font-weight:normal;text-anchor:start;fill:#000000;font-family:sans-serif"
     id="text48" />
  <g
     style="font-size:13.54669952px;font-style:normal;font-weight:normal;text-anchor:middle;fill:#000000;font-family:sans-serif"
     id="text52">
    <path
       d="m 111.68728,78.861218 -1.8124,4.914647 3.63142,0 -1.81902,-4.914647 m -0.75406,-1.316306 1.51474,0 3.76371,9.875597 -1.38907,0 -0.89958,-2.533391 -4.45163,0 -0.89959,2.533391 -1.4089,0 3.77032,-9.875597"
       style=""
       id="path3055" />
    <path
       d="m 117.99761,86.296027 2.18282,0 0,-7.534028 -2.37464,0.476251 0,-1.217086 2.36141,-0.476252 1.33615,0 0,8.751115 2.18281,0 0,1.124482 -5.68855,0 0,-1.124482"
       style=""
       id="path3057" />
  </g>
  <g
     style="font-size:13.54669952px;font-style:normal;font-weight:normal;text-anchor:middle;fill:#000000;font-family:sans-serif"
     id="text56">
    <path
       d="m 111.68728,98.861218 -1.8124,4.914652 3.63142,0 -1.81902,-4.914652 m -0.75406,-1.316306 1.51474,0 3.76371,9.875598 -1.38907,0 -0.89958,-2.53339 -4.45163,0 -0.89959,2.53339 -1.4089,0 3.77032,-9.875598"
       style=""
       id="path3060" />
    <path
       d="m 118.91704,106.29603 4.66329,0 0,1.12448 -6.27064,0 0,-1.12448 c 0.50712,-0.52476 1.19724,-1.22811 2.07037,-2.11006 0.87753,-0.88635 1.42875,-1.45741 1.65365,-1.71318 0.42774,-0.48066 0.7254,-0.88635 0.89297,-1.21709 0.17197,-0.33513 0.25796,-0.66366 0.25797,-0.98557 -1e-5,-0.524753 -0.18521,-0.952497 -0.55563,-1.283235 -0.36601,-0.330721 -0.84446,-0.496086 -1.43536,-0.496095 -0.41893,9e-6 -0.86211,0.07277 -1.32954,0.218282 -0.46302,0.14553 -0.95912,0.366016 -1.48828,0.66146 l 0,-1.349378 c 0.53798,-0.216068 1.04069,-0.379228 1.50813,-0.489481 0.46742,-0.110233 0.89517,-0.165355 1.28323,-0.165365 1.02305,10e-6 1.83885,0.255775 2.4474,0.767294 0.60854,0.511538 0.91281,1.195046 0.91281,2.050528 0,0.4057 -0.0772,0.79155 -0.23151,1.15755 -0.14993,0.36161 -0.42554,0.78935 -0.82682,1.28323 -0.11025,0.12789 -0.46082,0.49831 -1.05172,1.11126 -0.59091,0.60854 -1.42435,1.46183 -2.50032,2.55985"
       style=""
       id="path3062" />
  </g>
  <g
     style="font-size:13.54669952px;font-style:normal;font-weight:normal;text-anchor:middle;fill:#000000;font-family:sans-serif"
     id="text60">
    <path
       d="m 111.68728,118.86122 -1.8124,4.91465 3.63142,0 -1.81902,-4.91465 m -0.75406,-1.31631 1.51474,0 3.76371,9.8756 -1.38907,0 -0.89958,-2.53339 -4.45163,0 -0.89959,2.53339 -1.4089,0 3.77032,-9.8756"
       style=""
       id="path3065" />
    <path
       d="m 121.81423,122.09576 c 0.63941,0.1367 1.13771,0.42113 1.4949,0.85328 0.36159,0.43216 0.54239,0.96574 0.5424,1.60073 -1e-5,0.97456 -0.33515,1.72862 -1.00542,2.2622 -0.67029,0.53357 -1.62279,0.80036 -2.85751,0.80036 -0.41451,0 -0.84226,-0.0419 -1.28323,-0.12567 -0.43656,-0.0794 -0.88856,-0.20065 -1.35599,-0.36381 l 0,-1.28984 c 0.37041,0.21607 0.77611,0.37923 1.21708,0.48948 0.44097,0.11024 0.90179,0.16536 1.38246,0.16536 0.83784,0 1.47505,-0.16536 1.91161,-0.49609 0.44097,-0.33073 0.66146,-0.81139 0.66146,-1.44199 0,-0.58208 -0.20505,-1.03628 -0.61515,-1.3626 -0.4057,-0.33073 -0.97235,-0.49609 -1.69996,-0.4961 l -1.15094,0 0,-1.09802 1.20386,0 c 0.65705,0 1.15976,-0.13008 1.50813,-0.39026 0.34836,-0.26458 0.52255,-0.64382 0.52255,-1.13772 0,-0.50711 -0.1808,-0.89516 -0.54239,-1.16416 -0.3572,-0.2734 -0.87093,-0.4101 -1.54121,-0.41011 -0.36601,1e-5 -0.75847,0.0397 -1.17739,0.11906 -0.41893,0.0794 -0.87975,0.20286 -1.38245,0.37042 l 0,-1.19063 c 0.50711,-0.1411 0.98116,-0.24693 1.42213,-0.3175 0.44538,-0.0705 0.86431,-0.10582 1.25678,-0.10583 1.01423,1e-5 1.8168,0.23152 2.40771,0.69453 0.5909,0.45862 0.88635,1.08039 0.88636,1.86532 -1e-5,0.54681 -0.15655,1.00983 -0.46964,1.38906 -0.3131,0.37484 -0.75848,0.63501 -1.33615,0.78053"
       style=""
       id="path3067" />
  </g>
  <g
     style="font-size:13.54669952px;font-style:normal;font-weight:normal;text-anchor:middle;fill:#000000;font-family:sans-serif"
     id="text64">
    <path
       d="m 111.68728,138.86121 -1.8124,4.91465 3.63142,0 -1.81902,-4.91465 m -0.75406,-1.31631 1.51474,0 3.76371,9.8756 -1.38907,0 -0.89958,-2.53339 -4.45163,0 -0.89959,2.53339 -1.4089,0 3.77032,-9.8756"
       style=""
       id="path3070" />
    <path
       d="m 121.4372,138.70907 -3.37345,5.27184 3.37345,0 0,-5.27184 m -0.35057,-1.16417 1.6801,0 0,6.43601 1.40891,0 0,1.11125 -1.40891,0 0,2.32834 -1.32953,0 0,-2.32834 -4.45824,0 0,-1.28984 4.10767,-6.25742"
       style=""
       id="path3072" />
  </g>
  <g
     style="font-size:13.54669952px;font-style:normal;font-weight:normal;text-anchor:middle;fill:#000000;font-family:sans-serif"
     id="text68">
    <path
       d="m 111.68728,158.86121 -1.8124,4.91465 3.63142,0 -1.81902,-4.91465 m -0.75406,-1.31631 1.51474,0 3.76371,9.8756 -1.38907,0 -0.89958,-2.53339 -4.45163,0 -0.89959,2.53339 -1.4089,0 3.77032,-9.8756"
       style=""
       id="path3075" />
    <path
       d="m 117.77933,157.5449 5.24537,0 0,1.12449 -4.02167,0 0,2.42094 c 0.19402,-0.0661 0.38805,-0.11465 0.58208,-0.14552 0.19403,-0.0353 0.38806,-0.0529 0.58209,-0.0529 1.10243,1e-5 1.97555,0.30208 2.61938,0.9062 0.64381,0.60414 0.96572,1.42215 0.96573,2.45402 -10e-6,1.06275 -0.33074,1.88957 -0.99219,2.48047 -0.66147,0.5865 -1.59412,0.87974 -2.79798,0.87975 -0.41451,-10e-6 -0.83785,-0.0353 -1.27,-0.10584 -0.42774,-0.0706 -0.87092,-0.17639 -1.32953,-0.3175 l 0,-1.34276 c 0.39687,0.21608 0.80698,0.37703 1.23031,0.48286 0.42333,0.10584 0.87092,0.15875 1.34277,0.15875 0.76288,0 1.36701,-0.20064 1.8124,-0.60193 0.44537,-0.40128 0.66807,-0.94588 0.66807,-1.6338 0,-0.68792 -0.2227,-1.23252 -0.66807,-1.63381 -0.44539,-0.40128 -1.04952,-0.60192 -1.8124,-0.60193 -0.3572,1e-5 -0.71438,0.0397 -1.07157,0.11907 -0.35278,0.0794 -0.71438,0.20285 -1.08479,0.37041 l 0,-4.96095"
       style=""
       id="path3077" />
  </g>
  <g
     style="font-size:13.54669952px;font-style:normal;font-weight:normal;text-anchor:middle;fill:#000000;font-family:sans-serif"
     id="text72">
    <path
       d="m 111.68728,178.86121 -1.8124,4.91465 3.63142,0 -1.81902,-4.91465 m -0.75406,-1.31631 1.51474,0 3.76371,9.8756 -1.38907,0 -0.89958,-2.53339 -4.45163,0 -0.89959,2.53339 -1.4089,0 3.77032,-9.8756"
       style=""
       id="path3080" />
    <path
       d="m 120.78897,181.95023 c -0.59973,0 -1.07598,0.20506 -1.42875,0.61516 -0.34838,0.41011 -0.52256,0.97235 -0.52256,1.68672 0,0.70997 0.17418,1.27221 0.52256,1.68672 0.35277,0.41011 0.82902,0.61516 1.42875,0.61516 0.59972,0 1.07376,-0.20505 1.42214,-0.61516 0.35277,-0.41451 0.52916,-0.97675 0.52917,-1.68672 -1e-5,-0.71437 -0.1764,-1.27661 -0.52917,-1.68672 -0.34838,-0.4101 -0.82242,-0.61516 -1.42214,-0.61516 m 2.65245,-4.18704 0,1.21708 c -0.33514,-0.15874 -0.67469,-0.28001 -1.01864,-0.3638 -0.33956,-0.0838 -0.6769,-0.12567 -1.01204,-0.12568 -0.88195,1e-5 -1.55664,0.29767 -2.02407,0.89297 -0.46302,0.59532 -0.7276,1.49491 -0.79375,2.69876 0.26017,-0.38364 0.58649,-0.67689 0.97896,-0.87974 0.39247,-0.20725 0.82462,-0.31088 1.29646,-0.31089 0.99219,1e-5 1.77492,0.30208 2.34819,0.9062 0.57767,0.59973 0.8665,1.41774 0.86651,2.45402 -1e-5,1.01424 -0.29987,1.82783 -0.89959,2.44079 -0.59973,0.61295 -1.39789,0.91942 -2.39448,0.91943 -1.14212,-10e-6 -2.01525,-0.43657 -2.61938,-1.3097 -0.60414,-0.87753 -0.9062,-2.14753 -0.9062,-3.81 0,-1.56104 0.37041,-2.80459 1.11125,-3.73064 0.74083,-0.93044 1.73523,-1.39567 2.98319,-1.39568 0.33513,1e-5 0.67247,0.0331 1.01203,0.0992 0.34395,0.0662 0.70114,0.16537 1.07156,0.29766"
       style=""
       id="path3082" />
  </g>
  <g
     style="font-size:13.54669952px;font-style:normal;font-weight:normal;text-anchor:middle;fill:#000000;font-family:sans-serif"
     id="text76">
    <path
       d="m 111.68728,58.861218 -1.8124,4.914647 3.63142,0 -1.81902,-4.914647 m -0.75406,-1.316306 1.51474,0 3.76371,9.875597 -1.38907,0 -0.89958,-2.533391 -4.45163,0 -0.89959,2.533391 -1.4089,0 3.77032,-9.875597"
       style=""
       id="path3085" />
    <path
       d="m 120.6236,58.424654 c -0.68792,9e-6 -1.20606,0.339558 -1.55443,1.018648 -0.34396,0.674697 -0.51594,1.691139 -0.51593,3.049331 -1e-5,1.353791 0.17197,2.370234 0.51593,3.04933 0.34837,0.67469 0.86651,1.012035 1.55443,1.012034 0.69233,1e-6 1.21047,-0.337344 1.55444,-1.012034 0.34836,-0.679096 0.52254,-1.695539 0.52255,-3.04933 -1e-5,-1.358192 -0.17419,-2.374634 -0.52255,-3.049331 -0.34397,-0.67909 -0.86211,-1.018639 -1.55444,-1.018648 m 0,-1.058336 c 1.10684,1e-5 1.95131,0.438778 2.5334,1.316306 0.58648,0.873135 0.87973,2.143136 0.87974,3.810009 -10e-6,1.662472 -0.29326,2.932474 -0.87974,3.810009 -0.58209,0.873127 -1.42656,1.309691 -2.5334,1.309691 -1.10684,0 -1.95351,-0.436564 -2.54,-1.309691 -0.58209,-0.877535 -0.87313,-2.147537 -0.87313,-3.810009 0,-1.666873 0.29104,-2.936874 0.87313,-3.810009 0.58649,-0.877528 1.43316,-1.316296 2.54,-1.316306"
       style=""
       id="path3087" />
  </g>
  <g
     id="g80"
     transform="translate(0,-7.2794929)">
    <path
       style="fill:#7babe3"
       d="m 130,100 90,0 0,20 -90,0 z"
       id="rect82" />
    <path
       style="fill:none;stroke:#000000;stroke-width:2"
       d="m 130,100 90,0 0,20 -90,0 z"
       id="rect84" />
  </g>
  <g
     style="font-size:13.54669952px;font-style:normal;font-weight:normal;text-anchor:middle;fill:#000000;font-family:sans-serif"
     id="text86">
    <path
       d="m 165.40222,102.09576 c 0.6394,0.1367 1.1377,0.42113 1.4949,0.85328 0.36159,0.43216 0.54239,0.96574 0.54239,1.60073 0,0.97456 -0.33514,1.72862 -1.00542,2.2622 -0.67028,0.53357 -1.62278,0.80036 -2.8575,0.80036 -0.41452,0 -0.84226,-0.0419 -1.28324,-0.12567 -0.43656,-0.0794 -0.88856,-0.20065 -1.35599,-0.36381 l 0,-1.28984 c 0.37042,0.21607 0.77611,0.37923 1.21709,0.48948 0.44097,0.11024 0.90179,0.16536 1.38245,0.16536 0.83784,0 1.47505,-0.16536 1.91162,-0.49609 0.44097,-0.33073 0.66145,-0.81139 0.66146,-1.44199 -1e-5,-0.58208 -0.20506,-1.03628 -0.61516,-1.3626 -0.4057,-0.33073 -0.97235,-0.49609 -1.69995,-0.4961 l -1.15094,0 0,-1.09802 1.20386,0 c 0.65704,0 1.15975,-0.13008 1.50812,-0.39026 0.34837,-0.26458 0.52255,-0.64382 0.52256,-1.13772 -1e-5,-0.507107 -0.18081,-0.895163 -0.5424,-1.164165 -0.35719,-0.273394 -0.87093,-0.410096 -1.5412,-0.410105 -0.36601,9e-6 -0.75848,0.0397 -1.1774,0.119063 -0.41893,0.07938 -0.87974,0.202856 -1.38245,0.370418 l 0,-1.190628 c 0.50712,-0.141102 0.98116,-0.246936 1.42214,-0.317501 0.44538,-0.07055 0.8643,-0.105824 1.25677,-0.105834 1.01423,10e-6 1.81681,0.231521 2.40772,0.694533 0.59089,0.458621 0.88634,1.080393 0.88635,1.865317 -1e-5,0.546812 -0.15655,1.009832 -0.46963,1.389062 -0.3131,0.37484 -0.75848,0.63501 -1.33615,0.78053"
       style=""
       id="path3092" />
    <path
       d="m 169.97952,105.7404 1.39568,0 0,1.68011 -1.39568,0 0,-1.68011"
       style=""
       id="path3094" />
    <path
       d="m 174.52375,106.29603 2.18282,0 0,-7.534031 -2.37464,0.476251 0,-1.217086 2.36141,-0.476252 1.33615,0 0,8.751118 2.18281,0 0,1.12448 -5.68855,0 0,-1.12448"
       style=""
       id="path3096" />
    <path
       d="m 186.58878,98.709082 -3.37345,5.271838 3.37345,0 0,-5.271838 m -0.35057,-1.16417 1.6801,0 0,6.436008 1.40891,0 0,1.11125 -1.40891,0 0,2.32834 -1.32953,0 0,-2.32834 -4.45824,0 0,-1.28985 4.10767,-6.257408"
       style=""
       id="path3098" />
  </g>
</svg>
