<?xml version="1.0" encoding="UTF-8" standalone="no"?>
<!-- Created with Inkscape (http://www.inkscape.org/) -->
<svg id="svg2" xmlns:rdf="http://www.w3.org/1999/02/22-rdf-syntax-ns#" xmlns="http://www.w3.org/2000/svg" height="353.57" width="1271.9" version="1.1" xmlns:cc="http://creativecommons.org/ns#" xmlns:dc="http://purl.org/dc/elements/1.1/" viewBox="371 -43 704.96776 183.24208">
 <metadata id="metadata162">
  <rdf:RDF>
   <cc:Work rdf:about="">
    <dc:format>image/svg+xml</dc:format>
    <dc:type rdf:resource="http://purl.org/dc/dcmitype/StillImage"/>
   </cc:Work>
  </rdf:RDF>
 </metadata>
 <g id="g4" transform="translate(-1.5161 -8.9721)">
  <path id="path6" d="m699.72 95.244c-39.72 34.756 100.28 34.756 60.28-7.244" stroke="#000" stroke-width="2" fill="none"/>
  <path id="polygon8" d="m707.25 88.658-10.818 2.8222 6.585 7.5257z"/>
  <path id="polygon10" d="m707.25 88.658-10.818 2.8222 6.585 7.5257z" stroke="#000" stroke-width="2" fill="none"/>
 </g>
 <g id="g12" transform="translate(-1.5161 -8.9721)">
  <path id="path14" d="m469.15 48.192c-49.15-8.192-29.15-48.192 30.85-18.192" stroke="#000" stroke-width="2" fill="none"/>
  <path id="polygon16" d="m479.01 49.836-9.042-6.576-1.644 9.864z"/>
  <path id="polygon18" d="m479.01 49.836-9.042-6.576-1.644 9.864z" stroke="#000" stroke-width="2" fill="none"/>
 </g>
 <g id="g20" transform="translate(-1.5161 -8.9721)">
  <path id="ellipse22" fill="#7babe3" d="m587 55.5c0 19.606-23.95 35.5-53.5 35.5s-53.5-15.894-53.5-35.5 23.95-35.5 53.5-35.5 53.5 15.894 53.5 35.5z"/>
  <path id="ellipse24" d="m587 55.5c0 19.606-23.95 35.5-53.5 35.5s-53.5-15.894-53.5-35.5 23.95-35.5 53.5-35.5 53.5 15.894 53.5 35.5z" stroke="#000" stroke-width="2" fill="none"/>
 </g>
 <g id="text26">
  <path id="path3066" style="" d="m507.85 40.829v4.5839h-1.4276v-11.93h1.4276v1.3119c0.29839-0.51446 0.67395-0.89516 1.1267-1.1421 0.45787-0.25208 1.0032-0.37812 1.636-0.37813 1.0495 0.000009 1.901 0.41673 2.5543 1.2502 0.65851 0.83344 0.98777 1.9293 0.98777 3.2874 0 1.3582-0.32926 2.454-0.98777 3.2874-0.65338 0.83344-1.5048 1.2502-2.5543 1.2502-0.63279 0-1.1781-0.12347-1.636-0.37042-0.45273-0.25209-0.82829-0.63536-1.1267-1.1498m4.8308-3.0173c-0.00001-1.0444-0.21608-1.8624-0.64823-2.454-0.42701-0.59677-1.0161-0.89516-1.7672-0.89517-0.75113 0.000007-1.3428 0.2984-1.7749 0.89517-0.42701 0.59164-0.64051 1.4096-0.64051 2.454s0.2135 1.8649 0.64051 2.4617c0.43215 0.59164 1.0238 0.88746 1.7749 0.88745 0.75111 0.000001 1.3402-0.29582 1.7672-0.88745 0.43215-0.59678 0.64822-1.4174 0.64823-2.4617"/>
  <path id="path3068" style="" d="m523.9 37.449v0.69453h-6.5286c0.0617 0.97749 0.35498 1.7235 0.87974 2.2379 0.52989 0.50932 1.2656 0.76398 2.2071 0.76398 0.54533 0.000001 1.0726-0.06688 1.582-0.20064 0.51446-0.13376 1.0238-0.3344 1.528-0.60192v1.3428c-0.50933 0.21608-1.0315 0.3807-1.5666 0.49389-0.53506 0.11318-1.0778 0.16977-1.6283 0.16977-1.3788 0-2.472-0.40128-3.2797-1.2039-0.80257-0.80256-1.2038-1.8881-1.2038-3.2566 0-1.4148 0.3807-2.5363 1.1421-3.3646 0.76655-0.83343 1.7981-1.2501 3.0945-1.2502 1.1627 0.000009 2.081 0.37557 2.755 1.1267 0.67909 0.74598 1.0186 1.7621 1.0186 3.0482m-1.4199-0.41672c-0.0103-0.77684-0.22895-1.3968-0.65595-1.8598-0.42186-0.46301-0.98263-0.69452-1.6823-0.69453-0.79228 0.000007-1.4276 0.2238-1.9061 0.67138-0.47331 0.44759-0.74598 1.0778-0.818 1.8907l5.0624-0.0077m-1.3659-7.5472h1.5357l-2.5157 2.9016h-1.1807l2.1608-2.9016"/>
  <path id="path3070" style="" d="m533.42 36.908v5.2167h-1.4199v-5.1704c-0.00001-0.818-0.15949-1.4302-0.47845-1.8366-0.31898-0.40642-0.79743-0.60964-1.4354-0.60964-0.76656 0.000007-1.3711 0.24438-1.8135 0.73311-0.44244 0.48875-0.66366 1.155-0.66366 1.9987v4.8849h-1.4276v-8.643h1.4276v1.3428c0.33955-0.5196 0.73826-0.90802 1.1961-1.1653 0.46301-0.25722 0.99548-0.38584 1.5974-0.38585 0.99292 0.000009 1.744 0.30869 2.2534 0.92604 0.50931 0.61222 0.76397 1.5151 0.76398 2.7087"/>
  <path id="path3072" style="" d="m535.65 33.482h6.7446v1.2965l-5.3402 6.2122h5.3402v1.1344h-6.9376v-1.2965l5.3402-6.2122h-5.1472v-1.1344"/>
  <path id="path3074" style="" d="m549.58 34.809c-0.15949-0.0926-0.33441-0.15948-0.52475-0.20064-0.18522-0.0463-0.391-0.06945-0.61736-0.06945-0.80258 0.000007-1.4199 0.26238-1.8521 0.78713-0.42701 0.51962-0.64052 1.2682-0.64051 2.2456v4.553h-1.4276v-8.643h1.4276v1.3428c0.29838-0.52475 0.68681-0.91317 1.1653-1.1653 0.47845-0.25722 1.0598-0.38584 1.744-0.38585 0.0977 0.000009 0.20578 0.0077 0.32412 0.02315 0.11832 0.0103 0.24951 0.0283 0.39356 0.05402l0.008 1.4585"/>
  <path id="path3076" style="" d="m558.14 37.449v0.69453h-6.5286c0.0617 0.97749 0.35498 1.7235 0.87973 2.2379 0.5299 0.50932 1.2656 0.76398 2.2071 0.76398 0.54533 0.000001 1.0727-0.06688 1.582-0.20064 0.51446-0.13376 1.0238-0.3344 1.528-0.60192v1.3428c-0.50933 0.21608-1.0315 0.3807-1.5666 0.49389-0.53505 0.11318-1.0778 0.16977-1.6283 0.16977-1.3788 0-2.472-0.40128-3.2797-1.2039-0.80257-0.80256-1.2039-1.8881-1.2039-3.2566 0-1.4148 0.38071-2.5363 1.1421-3.3646 0.76655-0.83343 1.7981-1.2501 3.0945-1.2502 1.1627 0.000009 2.081 0.37557 2.755 1.1267 0.67909 0.74598 1.0186 1.7621 1.0186 3.0482m-1.4199-0.41672c-0.0103-0.77684-0.22895-1.3968-0.65595-1.8598-0.42187-0.46301-0.98263-0.69452-1.6823-0.69453-0.79228 0.000007-1.4276 0.2238-1.9061 0.67138-0.47331 0.44759-0.74598 1.0778-0.818 1.8907l5.0624-0.0077"/>
  <path id="path3078" style="" d="m519.68 53.238h1.5048l2.7009 7.254 2.701-7.254h1.5048l-3.2411 8.643h-1.9292l-3.2411-8.643"/>
  <path id="path3080" style="" d="m533.97 57.536c-1.1473 0.000005-1.9421 0.13119-2.3846 0.39357-0.44244 0.26238-0.66366 0.70997-0.66366 1.3428 0 0.50418 0.16463 0.90546 0.49389 1.2039 0.3344 0.29325 0.78713 0.43987 1.3582 0.43987 0.78713 0.000001 1.4174-0.27781 1.8907-0.83344 0.47845-0.56077 0.71767-1.3042 0.71768-2.2302v-0.3164h-1.4122m2.8321-0.58649v4.9312h-1.4199v-1.3119c-0.32412 0.52476-0.72798 0.91318-1.2116 1.1653-0.4836 0.24694-1.0752 0.37042-1.7749 0.37042-0.88488 0-1.5897-0.24694-2.1144-0.74083-0.51961-0.49903-0.77942-1.1653-0.77942-1.9987 0-0.97234 0.32411-1.7055 0.97234-2.1993 0.65337-0.49388 1.6257-0.74083 2.917-0.74083h1.991v-0.13891c-0.00001-0.65337-0.21608-1.1575-0.64823-1.5125-0.42701-0.36012-1.0289-0.54018-1.8058-0.54019-0.49389 0.000007-0.97492 0.05917-1.4431 0.17749-0.46817 0.11833-0.91832 0.29582-1.3505 0.53247v-1.3119c0.5196-0.20063 1.0238-0.34983 1.5125-0.44758 0.48874-0.10288 0.96462-0.15433 1.4276-0.15434 1.2502 0.000009 2.1839 0.32412 2.8013 0.97234 0.61735 0.64824 0.92603 1.6309 0.92604 2.9479m-2.5929-7.7093h1.5357l-2.5157 2.9016h-1.1807l2.1608-2.9016"/>
  <path id="path3082" style="" d="m544.75 54.565c-0.15949-0.0926-0.33441-0.15948-0.52475-0.20064-0.18522-0.04629-0.391-0.06945-0.61736-0.06945-0.80258 0.000007-1.4199 0.26238-1.8521 0.78713-0.42701 0.51962-0.64052 1.2682-0.64051 2.2456v4.553h-1.4276v-8.643h1.4276v1.3428c0.29838-0.52475 0.68681-0.91317 1.1653-1.1653 0.47845-0.25722 1.0598-0.38584 1.744-0.38585 0.0978 0.000009 0.20578 0.0077 0.32412 0.02315 0.11832 0.0103 0.24951 0.0283 0.39356 0.05402l0.008 1.4585"/>
 </g>
 <g id="g32" transform="translate(-1.5161 -8.9721)">
  <path id="ellipse34" fill="#7babe3" d="m787 55.5c0 19.606-23.95 35.5-53.5 35.5s-53.5-15.894-53.5-35.5 23.95-35.5 53.5-35.5 53.5 15.894 53.5 35.5z"/>
  <path id="ellipse36" d="m787 55.5c0 19.606-23.95 35.5-53.5 35.5s-53.5-15.894-53.5-35.5 23.95-35.5 53.5-35.5 53.5 15.894 53.5 35.5z" stroke="#000" stroke-width="2" fill="none"/>
 </g>
 <g id="text38">
  <path id="path3087" style="" d="m703.5 43.36h1.5048l2.701 7.254 2.701-7.254h1.5048l-3.2411 8.643h-1.9292l-3.2411-8.643"/>
  <path id="path3089" style="" d="m717.8 47.658c-1.1473 0.000005-1.9421 0.13119-2.3846 0.39357-0.44244 0.26238-0.66366 0.70997-0.66366 1.3428 0 0.50418 0.16463 0.90546 0.49389 1.2039 0.3344 0.29325 0.78713 0.43987 1.3582 0.43987 0.78713 0.000001 1.4174-0.27781 1.8907-0.83344 0.47845-0.56077 0.71768-1.3042 0.71768-2.2302v-0.3164h-1.4122m2.8321-0.58649v4.9312h-1.4199v-1.3119c-0.32412 0.52476-0.72797 0.91318-1.2116 1.1653-0.48361 0.24694-1.0752 0.37042-1.7749 0.37042-0.88489 0-1.5897-0.24694-2.1145-0.74083-0.51961-0.49903-0.77941-1.1653-0.77941-1.9987 0-0.97234 0.32411-1.7055 0.97234-2.1993 0.65337-0.49388 1.6257-0.74083 2.917-0.74083h1.991v-0.13891c0-0.65337-0.21608-1.1575-0.64822-1.5125-0.42702-0.36012-1.0289-0.54018-1.8058-0.54019-0.49389 0.000007-0.97492 0.05917-1.4431 0.17749-0.46816 0.11833-0.91832 0.29582-1.3505 0.53247v-1.3119c0.51961-0.20063 1.0238-0.34983 1.5125-0.44758 0.48874-0.10288 0.96462-0.15433 1.4276-0.15434 1.2502 0.000009 2.1839 0.32412 2.8013 0.97234 0.61735 0.64824 0.92603 1.6309 0.92604 2.9479m-2.5929-7.7093h1.5357l-2.5157 2.9016h-1.1807l2.1608-2.9016"/>
  <path id="path3091" style="" d="m723.56 39.995h1.4199v12.008h-1.4199v-12.008"/>
  <path id="path3093" style="" d="m731.88 47.658c-1.1473 0.000005-1.9421 0.13119-2.3846 0.39357-0.44245 0.26238-0.66367 0.70997-0.66366 1.3428-0.00001 0.50418 0.16462 0.90546 0.49388 1.2039 0.3344 0.29325 0.78713 0.43987 1.3582 0.43987 0.78712 0.000001 1.4173-0.27781 1.8907-0.83344 0.47845-0.56077 0.71767-1.3042 0.71768-2.2302v-0.3164h-1.4122m2.8321-0.58649v4.9312h-1.4199v-1.3119c-0.32412 0.52476-0.72798 0.91318-1.2116 1.1653-0.4836 0.24694-1.0752 0.37042-1.7749 0.37042-0.88488 0-1.5897-0.24694-2.1144-0.74083-0.51962-0.49903-0.77942-1.1653-0.77942-1.9987 0-0.97234 0.32411-1.7055 0.97234-2.1993 0.65337-0.49388 1.6257-0.74083 2.917-0.74083h1.991v-0.13891c-0.00001-0.65337-0.21608-1.1575-0.64823-1.5125-0.42701-0.36012-1.0289-0.54018-1.8058-0.54019-0.4939 0.000007-0.97492 0.05917-1.4431 0.17749-0.46817 0.11833-0.91833 0.29582-1.3505 0.53247v-1.3119c0.51961-0.20063 1.0238-0.34983 1.5125-0.44758 0.48874-0.10288 0.96462-0.15433 1.4276-0.15434 1.2501 0.000009 2.1839 0.32412 2.8013 0.97234 0.61735 0.64824 0.92603 1.6309 0.92604 2.9479"/>
  <path id="path3095" style="" d="m743.15 43.614v1.3428c-0.40129-0.20578-0.818-0.36012-1.2502-0.46302-0.43216-0.10289-0.87974-0.15433-1.3428-0.15434-0.70482 0.000007-1.2347 0.10804-1.5897 0.32411-0.34984 0.21608-0.52475 0.5402-0.52475 0.97234 0 0.32926 0.12604 0.58907 0.37813 0.77942 0.25209 0.18521 0.75884 0.3627 1.5202 0.53247l0.48617 0.10804c1.0084 0.21608 1.7234 0.52219 2.1453 0.91832 0.427 0.391 0.64051 0.9389 0.64051 1.6437 0 0.80257-0.31897 1.4379-0.9569 1.9061-0.6328 0.46816-1.5048 0.70225-2.6161 0.70225-0.46303 0-0.94663-0.0463-1.4508-0.13891-0.49903-0.08746-1.0264-0.22122-1.582-0.40128v-1.4662c0.52475 0.27267 1.0418 0.47846 1.5511 0.61736 0.50932 0.13376 1.0135 0.20064 1.5125 0.20064 0.66881 0.000001 1.1833-0.11318 1.5434-0.33955 0.36012-0.23151 0.54019-0.55562 0.54019-0.97234 0-0.38585-0.13119-0.68166-0.39357-0.88745-0.25723-0.20578-0.82572-0.40385-1.7054-0.59421l-0.49389-0.11576c-0.87974-0.1852-1.5151-0.46816-1.9061-0.84887-0.39099-0.38584-0.58649-0.91317-0.58649-1.582 0-0.81285 0.2881-1.4405 0.86431-1.8829 0.5762-0.44243 1.3942-0.66365 2.454-0.66366 0.52475 0.000009 1.0186 0.03859 1.4817 0.11576 0.46302 0.07718 0.89002 0.19293 1.281 0.34726"/>
  <path id="path3097" style="" d="m751.39 43.614v1.3428c-0.40129-0.20578-0.818-0.36012-1.2502-0.46302-0.43216-0.10289-0.87974-0.15433-1.3428-0.15434-0.70482 0.000007-1.2347 0.10804-1.5897 0.32411-0.34984 0.21608-0.52476 0.5402-0.52475 0.97234-0.00001 0.32926 0.12604 0.58907 0.37813 0.77942 0.25209 0.18521 0.75883 0.3627 1.5202 0.53247l0.48617 0.10804c1.0084 0.21608 1.7234 0.52219 2.1453 0.91832 0.427 0.391 0.6405 0.9389 0.64051 1.6437-0.00001 0.80257-0.31897 1.4379-0.95691 1.9061-0.63279 0.46816-1.5048 0.70225-2.6161 0.70225-0.46302 0-0.94662-0.0463-1.4508-0.13891-0.49903-0.08746-1.0264-0.22122-1.582-0.40128v-1.4662c0.52475 0.27267 1.0418 0.47846 1.5511 0.61736 0.50932 0.13376 1.0135 0.20064 1.5125 0.20064 0.6688 0.000001 1.1833-0.11318 1.5434-0.33955 0.36012-0.23151 0.54018-0.55562 0.54019-0.97234-0.00001-0.38585-0.13119-0.68166-0.39357-0.88745-0.25723-0.20578-0.82572-0.40385-1.7054-0.59421l-0.49389-0.11576c-0.87974-0.1852-1.5151-0.46816-1.9061-0.84887-0.39099-0.38584-0.58649-0.91317-0.58649-1.582 0-0.81285 0.2881-1.4405 0.86431-1.8829 0.5762-0.44243 1.3942-0.66365 2.454-0.66366 0.52475 0.000009 1.0186 0.03859 1.4817 0.11576 0.46302 0.07718 0.89002 0.19293 1.281 0.34726"/>
  <path id="path3099" style="" d="m753.51 43.36h6.7446v1.2965l-5.3402 6.2122h5.3402v1.1344h-6.9376v-1.2965l5.3402-6.2122h-5.1472v-1.1344"/>
 </g>
 <g id="g42" transform="translate(-1.5161 -8.9721)">
  <path id="ellipse44" fill="#7babe3" d="m967 55.5c0 19.606-23.95 35.5-53.5 35.5s-53.5-15.894-53.5-35.5 23.95-35.5 53.5-35.5 53.5 15.894 53.5 35.5z"/>
  <path id="ellipse46" d="m967 55.5c0 19.606-23.95 35.5-53.5 35.5s-53.5-15.894-53.5-35.5 23.95-35.5 53.5-35.5 53.5 15.894 53.5 35.5z" stroke="#000" stroke-width="2" fill="none"/>
 </g>
 <g id="text48">
  <path id="path3104" style="" d="m901.14 33.482h1.4199v8.643h-1.4199v-8.643m0-3.3646h1.4199v1.7981h-1.4199v-1.7981"/>
  <path id="path3106" style="" d="m906.93 31.028v2.454h2.9247v1.1035h-2.9247v4.6919c-0.00001 0.70482 0.0952 1.1576 0.28553 1.3582 0.19549 0.20064 0.58906 0.30096 1.1807 0.30096h1.4585v1.1884h-1.4585c-1.0958 0-1.8521-0.20321-2.2688-0.60964-0.41672-0.41157-0.62508-1.1575-0.62508-2.2379v-4.6919h-1.0418v-1.1035h1.0418v-2.454h1.4276"/>
  <path id="path3108" style="" d="m915.66 37.78c-1.1473 0.000005-1.9421 0.13119-2.3846 0.39357-0.44244 0.26238-0.66366 0.70997-0.66366 1.3428 0 0.50418 0.16463 0.90546 0.49389 1.2039 0.3344 0.29325 0.78713 0.43987 1.3582 0.43987 0.78713 0.000001 1.4174-0.27781 1.8907-0.83344 0.47845-0.56077 0.71768-1.3042 0.71768-2.2302v-0.3164h-1.4122m2.8321-0.58649v4.9312h-1.4199v-1.3119c-0.32412 0.52476-0.72797 0.91318-1.2116 1.1653-0.48361 0.24694-1.0752 0.37042-1.7749 0.37042-0.88489 0-1.5897-0.24694-2.1145-0.74083-0.51961-0.49903-0.77941-1.1653-0.77941-1.9987 0-0.97234 0.32411-1.7055 0.97234-2.1993 0.65337-0.49388 1.6257-0.74083 2.917-0.74083h1.991v-0.13891c0-0.65337-0.21608-1.1575-0.64822-1.5125-0.42702-0.36012-1.0289-0.54018-1.8058-0.54019-0.49389 0.000007-0.97492 0.05917-1.4431 0.17749-0.46816 0.11833-0.91832 0.29582-1.3505 0.53247v-1.3119c0.51961-0.20063 1.0238-0.34983 1.5125-0.44758 0.48874-0.10288 0.96462-0.15433 1.4276-0.15434 1.2502 0.000009 2.1839 0.32412 2.8013 0.97234 0.61735 0.64824 0.92603 1.6309 0.92604 2.9479"/>
  <path id="path3110" style="" d="m921.42 30.117h1.4199v12.008h-1.4199v-12.008"/>
  <path id="path3112" style="" d="m886.46 57.204v0.69453h-6.5286c0.0617 0.97749 0.35498 1.7235 0.87973 2.2379 0.5299 0.50932 1.2656 0.76398 2.2071 0.76398 0.54533 0.000001 1.0727-0.06688 1.582-0.20064 0.51446-0.13376 1.0238-0.3344 1.528-0.60192v1.3428c-0.50933 0.21608-1.0315 0.3807-1.5666 0.49389-0.53505 0.11318-1.0778 0.16977-1.6283 0.16977-1.3788 0-2.472-0.40128-3.2797-1.2039-0.80257-0.80256-1.2039-1.8881-1.2039-3.2566 0-1.4148 0.38071-2.5363 1.1421-3.3646 0.76655-0.83343 1.7981-1.2501 3.0945-1.2502 1.1627 0.000009 2.081 0.37557 2.755 1.1267 0.67909 0.74598 1.0186 1.7621 1.0186 3.0482m-1.4199-0.41672c-0.0103-0.77684-0.22895-1.3968-0.65595-1.8598-0.42187-0.46301-0.98263-0.69452-1.6823-0.69453-0.79228 0.000007-1.4276 0.2238-1.9061 0.67138-0.47331 0.44759-0.74598 1.0778-0.818 1.8907l5.0624-0.0077"/>
  <path id="path3114" style="" d="m888.79 49.873h1.4199v12.008h-1.4199v-12.008"/>
  <path id="path3116" style="" d="m892.16 53.238h1.5048l2.7009 7.254 2.701-7.254h1.5048l-3.2411 8.643h-1.9292l-3.2411-8.643"/>
  <path id="path3118" style="" d="m909.92 57.204v0.69453h-6.5286c0.0617 0.97749 0.35498 1.7235 0.87974 2.2379 0.5299 0.50932 1.2656 0.76398 2.2071 0.76398 0.54533 0.000001 1.0727-0.06688 1.582-0.20064 0.51445-0.13376 1.0238-0.3344 1.528-0.60192v1.3428c-0.50933 0.21608-1.0315 0.3807-1.5666 0.49389-0.53505 0.11318-1.0778 0.16977-1.6283 0.16977-1.3788 0-2.472-0.40128-3.2797-1.2039-0.80257-0.80256-1.2038-1.8881-1.2038-3.2566 0-1.4148 0.38071-2.5363 1.1421-3.3646 0.76655-0.83343 1.798-1.2501 3.0945-1.2502 1.1627 0.000009 2.081 0.37557 2.755 1.1267 0.67908 0.74598 1.0186 1.7621 1.0186 3.0482m-1.4199-0.41672c-0.0103-0.77684-0.22894-1.3968-0.65594-1.8598-0.42187-0.46301-0.98264-0.69452-1.6823-0.69453-0.79229 0.000007-1.4276 0.2238-1.9061 0.67138-0.47331 0.44759-0.74598 1.0778-0.818 1.8907l5.0623-0.0077"/>
  <path id="path3120" style="" d="m919.44 56.664v5.2167h-1.4199v-5.1704c0-0.818-0.15949-1.4302-0.47845-1.8366-0.31897-0.40642-0.79743-0.60964-1.4354-0.60964-0.76656 0.000007-1.3711 0.24438-1.8135 0.73311-0.44245 0.48875-0.66367 1.155-0.66366 1.9987v4.8849h-1.4276v-12.008h1.4276v4.7074c0.33954-0.5196 0.73825-0.90802 1.1961-1.1653 0.46301-0.25722 0.99549-0.38584 1.5974-0.38585 0.99291 0.000009 1.744 0.30869 2.2534 0.92604 0.50931 0.61222 0.76397 1.5151 0.76398 2.7087"/>
  <path id="path3122" style="" d="m929.68 57.204v0.69453h-6.5286c0.0617 0.97749 0.35498 1.7235 0.87974 2.2379 0.5299 0.50932 1.2656 0.76398 2.2071 0.76398 0.54533 0.000001 1.0727-0.06688 1.582-0.20064 0.51446-0.13376 1.0238-0.3344 1.528-0.60192v1.3428c-0.50933 0.21608-1.0315 0.3807-1.5666 0.49389-0.53505 0.11318-1.0778 0.16977-1.6283 0.16977-1.3788 0-2.472-0.40128-3.2797-1.2039-0.80257-0.80256-1.2038-1.8881-1.2038-3.2566 0-1.4148 0.3807-2.5363 1.1421-3.3646 0.76655-0.83343 1.798-1.2501 3.0945-1.2502 1.1627 0.000009 2.081 0.37557 2.755 1.1267 0.67908 0.74598 1.0186 1.7621 1.0186 3.0482m-1.4199-0.41672c-0.0103-0.77684-0.22894-1.3968-0.65594-1.8598-0.42187-0.46301-0.98264-0.69452-1.6823-0.69453-0.79228 0.000007-1.4276 0.2238-1.9061 0.67138-0.47331 0.44759-0.74598 1.0778-0.818 1.8907l5.0623-0.0077"/>
  <path id="path3124" style="" d="m933.41 50.784v2.454h2.9247v1.1035h-2.9247v4.6919c0 0.70482 0.0952 1.1576 0.28553 1.3582 0.1955 0.20064 0.58906 0.30096 1.1807 0.30096h1.4585v1.1884h-1.4585c-1.0958 0-1.8521-0.20321-2.2688-0.60964-0.41672-0.41157-0.62508-1.1575-0.62508-2.2379v-4.6919h-1.0418v-1.1035h1.0418v-2.454h1.4276"/>
  <path id="path3126" style="" d="m943.86 49.24h1.3736l-1.9138 2.9016h-1.0418l1.582-2.9016m-2.5775 0h1.3119l-1.7209 2.9016h-1.0572l1.4662-2.9016m0.28553 4.9929c-0.76141 0.000007-1.3633 0.2984-1.8058 0.89517-0.44244 0.59164-0.66366 1.4045-0.66366 2.4386s0.21865 1.8495 0.65595 2.4463c0.44244 0.59164 1.0469 0.88746 1.8135 0.88745 0.75626 0.000001 1.3556-0.29839 1.7981-0.89517 0.44243-0.59678 0.66365-1.4096 0.66366-2.4386-0.00001-1.0238-0.22123-1.8341-0.66366-2.4309-0.44245-0.60192-1.0418-0.90288-1.7981-0.90289m0-1.2039c1.2347 0.000009 2.2045 0.40129 2.9093 1.2039 0.70481 0.80257 1.0572 1.9138 1.0572 3.3337 0 1.4148-0.35241 2.526-1.0572 3.3337-0.70483 0.80257-1.6746 1.2039-2.9093 1.2039-1.2399 0-2.2122-0.40128-2.917-1.2039-0.69968-0.80771-1.0495-1.919-1.0495-3.3337 0-1.4199 0.34983-2.5312 1.0495-3.3337 0.70481-0.80256 1.6772-1.2038 2.917-1.2039"/>
 </g>
 <g id="g54" transform="translate(-1.5161 -8.9721)">
  <path id="path56" d="m878.68 27.581a276.82 276.82 0 0 0 -301.13 -5.98" stroke="#000" stroke-width="2" fill="none"/>
  <path id="polygon58" d="m569.15 27.021 11.084-1.465-5.606-8.2811z"/>
  <path id="polygon60" d="m569.15 27.021 11.084-1.465-5.606-8.2811z" stroke="#000" stroke-width="2" fill="none"/>
 </g>
 <g id="text62">
  <path id="path3131" style="" d="m698.5 117.98h1.5048l2.701 7.254 2.701-7.254h1.5048l-3.2411 8.643h-1.9292l-3.2411-8.643"/>
  <path id="path3133" style="" d="m712.8 122.28c-1.1473 0-1.9421 0.13119-2.3846 0.39356-0.44245 0.26238-0.66367 0.70997-0.66366 1.3428-0.00001 0.50418 0.16462 0.90546 0.49388 1.2038 0.3344 0.29325 0.78713 0.43987 1.3582 0.43987 0.78713 0 1.4174-0.27781 1.8907-0.83344 0.47844-0.56076 0.71767-1.3042 0.71768-2.2302v-0.31639h-1.4122m2.8321-0.5865v4.9312h-1.4199v-1.3119c-0.32412 0.52476-0.72798 0.91318-1.2116 1.1653-0.4836 0.24694-1.0752 0.37042-1.7749 0.37042-0.88488 0-1.5897-0.24695-2.1144-0.74084-0.51962-0.49903-0.77942-1.1653-0.77942-1.9987 0-0.97233 0.32411-1.7054 0.97234-2.1993 0.65337-0.49388 1.6257-0.74083 2.917-0.74083h1.991v-0.13891c-0.00001-0.65336-0.21608-1.1575-0.64823-1.5125-0.42701-0.36012-1.0289-0.54018-1.8058-0.54019-0.49389 0.00001-0.97491 0.0592-1.4431 0.17749-0.46817 0.11834-0.91833 0.29583-1.3505 0.53248v-1.3119c0.51961-0.20064 1.0238-0.34983 1.5125-0.44759 0.48874-0.10288 0.96462-0.15433 1.4276-0.15434 1.2501 0.00001 2.1839 0.32412 2.8013 0.97234 0.61735 0.64824 0.92603 1.6309 0.92603 2.9479m-2.5929-7.7093h1.5357l-2.5157 2.9016h-1.1807l2.1608-2.9016"/>
  <path id="path3135" style="" d="m718.57 114.62h1.4199v12.008h-1.4199v-12.008"/>
  <path id="path3137" style="" d="m726.88 122.28c-1.1473 0-1.9421 0.13119-2.3846 0.39356-0.44244 0.26238-0.66366 0.70997-0.66366 1.3428 0 0.50418 0.16463 0.90546 0.49389 1.2038 0.3344 0.29325 0.78713 0.43987 1.3582 0.43987 0.78713 0 1.4174-0.27781 1.8907-0.83344 0.47845-0.56076 0.71768-1.3042 0.71768-2.2302v-0.31639h-1.4122m2.8321-0.5865v4.9312h-1.4199v-1.3119c-0.32412 0.52476-0.72797 0.91318-1.2116 1.1653-0.4836 0.24694-1.0752 0.37042-1.7749 0.37042-0.88489 0-1.5897-0.24695-2.1145-0.74084-0.51961-0.49903-0.77942-1.1653-0.77942-1.9987 0-0.97233 0.32412-1.7054 0.97234-2.1993 0.65337-0.49388 1.6257-0.74083 2.917-0.74083h1.991v-0.13891c0-0.65336-0.21608-1.1575-0.64823-1.5125-0.42701-0.36012-1.0289-0.54018-1.8058-0.54019-0.49389 0.00001-0.97492 0.0592-1.4431 0.17749-0.46817 0.11834-0.91832 0.29583-1.3505 0.53248v-1.3119c0.51961-0.20064 1.0238-0.34983 1.5125-0.44759 0.48874-0.10288 0.96462-0.15433 1.4276-0.15434 1.2502 0.00001 2.1839 0.32412 2.8013 0.97234 0.61735 0.64824 0.92603 1.6309 0.92604 2.9479"/>
  <path id="path3139" style="" d="m738.15 118.24v1.3428c-0.40129-0.20578-0.81801-0.36012-1.2502-0.46302-0.43215-0.10289-0.87974-0.15433-1.3428-0.15434-0.70482 0.00001-1.2347 0.10804-1.5897 0.32411-0.34984 0.21609-0.52476 0.5402-0.52476 0.97234 0 0.32927 0.12604 0.58907 0.37813 0.77942 0.25209 0.18521 0.75884 0.3627 1.5202 0.53247l0.48617 0.10804c1.0084 0.21608 1.7235 0.52219 2.1453 0.91832 0.427 0.391 0.6405 0.93891 0.64051 1.6437-0.00001 0.80257-0.31898 1.4379-0.95691 1.9061-0.6328 0.46816-1.5048 0.70225-2.6161 0.70225-0.46302 0-0.94662-0.0463-1.4508-0.13891-0.49903-0.0875-1.0264-0.22122-1.582-0.40128v-1.4662c0.52476 0.27267 1.0418 0.47845 1.5511 0.61736 0.50932 0.13376 1.0135 0.20064 1.5125 0.20064 0.6688 0 1.1833-0.11318 1.5434-0.33955 0.36012-0.23151 0.54018-0.55562 0.54019-0.97234-0.00001-0.38585-0.1312-0.68166-0.39357-0.88745-0.25724-0.20579-0.82572-0.40386-1.7055-0.59421l-0.49388-0.11576c-0.87974-0.1852-1.5151-0.46816-1.9061-0.84887-0.391-0.38584-0.58649-0.91317-0.58649-1.582 0-0.81285 0.2881-1.4405 0.8643-1.883 0.5762-0.44243 1.3942-0.66365 2.454-0.66366 0.52475 0.00001 1.0186 0.0386 1.4817 0.11576 0.46301 0.0772 0.89002 0.19293 1.281 0.34726"/>
  <path id="path3141" style="" d="m740.27 117.98h6.7447v1.2965l-5.3402 6.2122h5.3402v1.1344h-6.9376v-1.2964l5.3402-6.2122h-5.1472v-1.1344"/>
  <path id="path3143" style="" d="m750.59 115.53v2.454h2.9247v1.1035h-2.9247v4.6919c0 0.70482 0.0952 1.1576 0.28553 1.3582 0.19549 0.20065 0.58906 0.30097 1.1807 0.30097h1.4585v1.1884h-1.4585c-1.0958 0-1.8521-0.20321-2.2688-0.60964-0.41672-0.41157-0.62508-1.1576-0.62508-2.2379v-4.6919h-1.0418v-1.1035h1.0418v-2.454h1.4276"/>
  <path id="path3145" style="" d="m755.76 124.66h1.6283v1.3273l-1.2656 2.4694h-0.9955l0.6328-2.4694v-1.3273"/>
  <path id="path3147" style="" d="m702.57 139.05v-4.6765h1.4199v12.008h-1.4199v-1.2965c-0.2984 0.51447-0.67653 0.89775-1.1344 1.1498-0.45274 0.24694-0.99807 0.37041-1.636 0.37041-1.0444 0-1.8958-0.41672-2.5543-1.2502-0.65337-0.83343-0.98006-1.9292-0.98006-3.2874s0.32669-2.454 0.98006-3.2874c0.65852-0.83342 1.51-1.2501 2.5543-1.2502 0.63793 0.00001 1.1833 0.12605 1.636 0.37813 0.45787 0.24695 0.836 0.62766 1.1344 1.1421m-4.8386 3.0173c0 1.0444 0.2135 1.8649 0.64051 2.4617 0.43215 0.59164 1.0238 0.88746 1.7749 0.88746 0.75112 0 1.3428-0.29582 1.7749-0.88746 0.43214-0.59678 0.64822-1.4174 0.64823-2.4617-0.00001-1.0444-0.21609-1.8624-0.64823-2.454-0.43216-0.59678-1.0238-0.89517-1.7749-0.89517-0.75112 0-1.3428 0.29839-1.7749 0.89517-0.42701 0.59164-0.64051 1.4096-0.64051 2.454"/>
  <path id="path3149" style="" d="m714.31 141.7v0.69453h-6.5286c0.0617 0.97749 0.35498 1.7235 0.87973 2.2379 0.5299 0.50932 1.2656 0.76398 2.2071 0.76398 0.54533 0 1.0727-0.0669 1.582-0.20064 0.51446-0.13376 1.0238-0.3344 1.528-0.60193v1.3428c-0.50933 0.21608-1.0315 0.38071-1.5666 0.49389-0.53505 0.11318-1.0778 0.16977-1.6283 0.16977-1.3788 0-2.472-0.40128-3.2797-1.2038-0.80256-0.80256-1.2038-1.8881-1.2038-3.2566 0-1.4148 0.38071-2.5363 1.1421-3.3646 0.76655-0.83342 1.798-1.2501 3.0945-1.2502 1.1627 0.00001 2.081 0.37557 2.755 1.1267 0.67909 0.74598 1.0186 1.762 1.0186 3.0482m-1.4199-0.41672c-0.0103-0.77683-0.22895-1.3968-0.65595-1.8598-0.42187-0.46301-0.98264-0.69452-1.6823-0.69453-0.79229 0.00001-1.4276 0.2238-1.9061 0.67138-0.47331 0.44759-0.74598 1.0778-0.818 1.8907l5.0624-0.008"/>
  <path id="path3151" style="" d="m728.85 141.16v5.2167h-1.4199v-5.1704c-0.00001-0.81799-0.1595-1.4302-0.47846-1.8366-0.31897-0.40642-0.79743-0.60963-1.4354-0.60964-0.76656 0.00001-1.371 0.24438-1.8135 0.73311-0.44245 0.48875-0.66367 1.155-0.66366 1.9987v4.8849h-1.4276v-8.643h1.4276v1.3428c0.33954-0.5196 0.73825-0.90802 1.1961-1.1653 0.46302-0.25723 0.99549-0.38584 1.5974-0.38585 0.99291 0.00001 1.744 0.30869 2.2534 0.92604 0.50931 0.61222 0.76397 1.5151 0.76398 2.7087"/>
  <path id="path3153" style="" d="m731.7 137.74h1.4199v8.643h-1.4199v-8.643m0-3.3646h1.4199v1.7981h-1.4199v-1.7981"/>
  <path id="path3155" style="" d="m743.27 141.16v5.2167h-1.4199v-5.1704c-0.00001-0.81799-0.1595-1.4302-0.47846-1.8366-0.31897-0.40642-0.79743-0.60963-1.4354-0.60964-0.76656 0.00001-1.371 0.24438-1.8135 0.73311-0.44245 0.48875-0.66367 1.155-0.66366 1.9987v4.8849h-1.4276v-8.643h1.4276v1.3428c0.33954-0.5196 0.73825-0.90802 1.1961-1.1653 0.46302-0.25723 0.99549-0.38584 1.5974-0.38585 0.99291 0.00001 1.744 0.30869 2.2534 0.92604 0.50931 0.61222 0.76397 1.5151 0.76398 2.7087"/>
  <path id="path3157" style="" d="m752.34 138.07v1.3273c-0.40129-0.22121-0.80514-0.38584-1.2116-0.49389-0.40129-0.11317-0.80771-0.16976-1.2193-0.16977-0.9209 0.00001-1.636 0.29325-2.1453 0.87974-0.50933 0.58135-0.76399 1.3994-0.76399 2.454 0 1.0547 0.25466 1.8752 0.76399 2.4617 0.50931 0.58135 1.2244 0.87202 2.1453 0.87202 0.41157 0 0.81799-0.054 1.2193-0.16206 0.40643-0.11318 0.81028-0.28038 1.2116-0.5016v1.3119c-0.39614 0.18521-0.80772 0.32411-1.2347 0.41672-0.42187 0.0926-0.87202 0.1389-1.3505 0.1389-1.3016 0-2.3357-0.409-3.1022-1.227-0.76656-0.818-1.1498-1.9215-1.1498-3.3106 0-1.4096 0.38584-2.5183 1.1576-3.326 0.77684-0.80771 1.8392-1.2116 3.1871-1.2116 0.43729 0.00001 0.8643 0.0463 1.281 0.1389 0.41671 0.0875 0.82057 0.22123 1.2116 0.40129"/>
  <path id="path3159" style="" d="m760.33 137.99v1.3428c-0.40129-0.20578-0.818-0.36012-1.2502-0.46302-0.43216-0.10289-0.87974-0.15434-1.3428-0.15434-0.70482 0-1.2347 0.10804-1.5897 0.32411-0.34984 0.21608-0.52475 0.5402-0.52475 0.97234 0 0.32927 0.12604 0.58907 0.37813 0.77942 0.25209 0.18521 0.75884 0.3627 1.5202 0.53247l0.48617 0.10804c1.0084 0.21608 1.7234 0.52218 2.1453 0.91832 0.427 0.391 0.64051 0.9389 0.64051 1.6437 0 0.80257-0.31897 1.4379-0.9569 1.9061-0.6328 0.46816-1.5048 0.70224-2.6161 0.70224-0.46303 0-0.94662-0.0463-1.4508-0.1389-0.49903-0.0875-1.0264-0.22122-1.582-0.40129v-1.4662c0.52475 0.27267 1.0418 0.47846 1.5511 0.61736 0.50932 0.13377 1.0135 0.20065 1.5125 0.20065 0.66881 0 1.1833-0.11319 1.5434-0.33955 0.36012-0.23151 0.54019-0.55562 0.54019-0.97234 0-0.38585-0.13119-0.68167-0.39356-0.88746-0.25724-0.20578-0.82573-0.40385-1.7055-0.59421l-0.49389-0.11575c-0.87974-0.1852-1.5151-0.46816-1.9061-0.84887-0.391-0.38584-0.5865-0.91317-0.5865-1.582 0-0.81285 0.2881-1.4405 0.86431-1.883 0.5762-0.44243 1.3942-0.66365 2.454-0.66366 0.52475 0.00001 1.0186 0.0386 1.4817 0.11575 0.46302 0.0772 0.89002 0.19294 1.281 0.34727"/>
 </g>
 <g id="text68">
  <path id="path3162" style="" d="m705.24-41.399v0.69453h-6.5286c0.0617 0.97749 0.35498 1.7235 0.87974 2.2379 0.5299 0.50932 1.2656 0.76398 2.2071 0.76398 0.54533 0.000001 1.0727-0.06688 1.582-0.20064 0.51446-0.13376 1.0238-0.3344 1.528-0.60193v1.3428c-0.50933 0.21608-1.0315 0.3807-1.5666 0.49389-0.53505 0.11318-1.0778 0.16977-1.6283 0.16977-1.3788-0.000001-2.472-0.40128-3.2797-1.2039-0.80257-0.80257-1.2038-1.8881-1.2038-3.2566 0-1.4148 0.3807-2.5363 1.1421-3.3646 0.76655-0.83343 1.798-1.2501 3.0945-1.2502 1.1627 0.000009 2.081 0.37557 2.755 1.1267 0.67908 0.74598 1.0186 1.7621 1.0186 3.0482m-1.4199-0.41672c-0.0103-0.77684-0.22894-1.3968-0.65594-1.8598-0.42187-0.46301-0.98264-0.69452-1.6823-0.69453-0.79228 0.000008-1.4276 0.2238-1.9061 0.67138-0.47332 0.44759-0.74598 1.0778-0.818 1.8907l5.0623-0.0077"/>
  <path id="path3164" style="" d="m707.57-48.73h1.4199v12.008h-1.4199v-12.008"/>
  <path id="path3166" style="" d="m710.93-45.365h1.5048l2.701 7.254 2.701-7.254h1.5048l-3.2411 8.643h-1.9292l-3.2411-8.643"/>
  <path id="path3168" style="" d="m728.7-41.399v0.69453h-6.5286c0.0617 0.97749 0.35498 1.7235 0.87974 2.2379 0.52989 0.50932 1.2656 0.76398 2.2071 0.76398 0.54533 0.000001 1.0726-0.06688 1.582-0.20064 0.51446-0.13376 1.0238-0.3344 1.528-0.60193v1.3428c-0.50933 0.21608-1.0315 0.3807-1.5666 0.49389-0.53506 0.11318-1.0778 0.16977-1.6283 0.16977-1.3788-0.000001-2.472-0.40128-3.2797-1.2039-0.80257-0.80257-1.2038-1.8881-1.2038-3.2566 0-1.4148 0.3807-2.5363 1.1421-3.3646 0.76655-0.83343 1.7981-1.2501 3.0945-1.2502 1.1627 0.000009 2.081 0.37557 2.755 1.1267 0.67909 0.74598 1.0186 1.7621 1.0186 3.0482m-1.4199-0.41672c-0.0103-0.77684-0.22894-1.3968-0.65594-1.8598-0.42187-0.46301-0.98264-0.69452-1.6823-0.69453-0.79228 0.000008-1.4276 0.2238-1.9061 0.67138-0.47331 0.44759-0.74597 1.0778-0.818 1.8907l5.0624-0.0077m-1.3659-7.5472h1.5357l-2.5157 2.9016h-1.1807l2.1608-2.9016"/>
  <path id="path3170" style="" d="m730.01-45.365h1.5048l2.701 7.254 2.7009-7.254h1.5048l-3.2411 8.643h-1.9292l-3.2411-8.643"/>
  <path id="path3172" style="" d="m747.77-41.399v0.69453h-6.5286c0.0617 0.97749 0.35498 1.7235 0.87973 2.2379 0.5299 0.50932 1.2656 0.76398 2.2071 0.76398 0.54533 0.000001 1.0727-0.06688 1.582-0.20064 0.51446-0.13376 1.0238-0.3344 1.528-0.60193v1.3428c-0.50933 0.21608-1.0315 0.3807-1.5666 0.49389-0.53505 0.11318-1.0778 0.16977-1.6283 0.16977-1.3788-0.000001-2.472-0.40128-3.2797-1.2039-0.80257-0.80257-1.2039-1.8881-1.2039-3.2566 0-1.4148 0.38071-2.5363 1.1421-3.3646 0.76655-0.83343 1.7981-1.2501 3.0945-1.2502 1.1627 0.000009 2.081 0.37557 2.755 1.1267 0.67909 0.74598 1.0186 1.7621 1.0186 3.0482m-1.4199-0.41672c-0.0103-0.77684-0.22895-1.3968-0.65595-1.8598-0.42187-0.46301-0.98263-0.69452-1.6823-0.69453-0.79228 0.000008-1.4276 0.2238-1.9061 0.67138-0.47331 0.44759-0.74598 1.0778-0.818 1.8907l5.0624-0.0077"/>
 </g>
 <g id="text72">
  <path id="path3175" style="" d="m788.5 57.982h1.5048l2.701 7.254 2.701-7.254h1.5048l-3.2411 8.643h-1.9292l-3.2411-8.643"/>
  <path id="path3177" style="" d="m802.8 62.28c-1.1473 0.000004-1.9421 0.13119-2.3846 0.39357-0.44245 0.26238-0.66367 0.70997-0.66366 1.3428-0.00001 0.50418 0.16462 0.90546 0.49388 1.2039 0.3344 0.29325 0.78713 0.43987 1.3582 0.43987 0.78713 0.000001 1.4174-0.27781 1.8907-0.83344 0.47844-0.56077 0.71767-1.3042 0.71768-2.2302v-0.3164h-1.4122m2.8321-0.58649v4.9312h-1.4199v-1.3119c-0.32412 0.52476-0.72798 0.91318-1.2116 1.1653-0.4836 0.24694-1.0752 0.37042-1.7749 0.37042-0.88488 0-1.5897-0.24694-2.1144-0.74083-0.51962-0.49903-0.77942-1.1653-0.77942-1.9987 0-0.97234 0.32411-1.7055 0.97234-2.1993 0.65337-0.49388 1.6257-0.74083 2.917-0.74083h1.991v-0.13891c-0.00001-0.65337-0.21608-1.1575-0.64823-1.5125-0.42701-0.36012-1.0289-0.54018-1.8058-0.54019-0.49389 0.000008-0.97491 0.05917-1.4431 0.17749-0.46817 0.11833-0.91833 0.29582-1.3505 0.53247v-1.3119c0.51961-0.20063 1.0238-0.34983 1.5125-0.44759 0.48874-0.10288 0.96462-0.15433 1.4276-0.15434 1.2501 0.000009 2.1839 0.32412 2.8013 0.97234 0.61735 0.64824 0.92603 1.6309 0.92603 2.9479m-2.5929-7.7093h1.5357l-2.5157 2.9016h-1.1807l2.1608-2.9016"/>
  <path id="path3179" style="" d="m808.57 54.617h1.4199v12.008h-1.4199v-12.008"/>
  <path id="path3181" style="" d="m816.88 62.28c-1.1473 0.000004-1.9421 0.13119-2.3846 0.39357-0.44244 0.26238-0.66366 0.70997-0.66366 1.3428 0 0.50418 0.16463 0.90546 0.49389 1.2039 0.3344 0.29325 0.78713 0.43987 1.3582 0.43987 0.78713 0.000001 1.4174-0.27781 1.8907-0.83344 0.47845-0.56077 0.71768-1.3042 0.71768-2.2302v-0.3164h-1.4122m2.8321-0.58649v4.9312h-1.4199v-1.3119c-0.32412 0.52476-0.72797 0.91318-1.2116 1.1653-0.4836 0.24694-1.0752 0.37042-1.7749 0.37042-0.88489 0-1.5897-0.24694-2.1145-0.74083-0.51961-0.49903-0.77942-1.1653-0.77942-1.9987 0-0.97234 0.32412-1.7055 0.97234-2.1993 0.65337-0.49388 1.6257-0.74083 2.917-0.74083h1.991v-0.13891c0-0.65337-0.21608-1.1575-0.64823-1.5125-0.42701-0.36012-1.0289-0.54018-1.8058-0.54019-0.49389 0.000008-0.97492 0.05917-1.4431 0.17749-0.46817 0.11833-0.91832 0.29582-1.3505 0.53247v-1.3119c0.51961-0.20063 1.0238-0.34983 1.5125-0.44759 0.48874-0.10288 0.96462-0.15433 1.4276-0.15434 1.2502 0.000009 2.1839 0.32412 2.8013 0.97234 0.61735 0.64824 0.92603 1.6309 0.92604 2.9479"/>
  <path id="path3183" style="" d="m828.15 58.237v1.3428c-0.40129-0.20578-0.81801-0.36012-1.2502-0.46302-0.43215-0.10289-0.87974-0.15433-1.3428-0.15434-0.70482 0.000008-1.2347 0.10804-1.5897 0.32411-0.34984 0.21608-0.52476 0.5402-0.52476 0.97234 0 0.32926 0.12604 0.58907 0.37813 0.77942 0.25209 0.18521 0.75884 0.3627 1.5202 0.53247l0.48617 0.10804c1.0084 0.21608 1.7235 0.52219 2.1453 0.91832 0.427 0.391 0.6405 0.9389 0.64051 1.6437-0.00001 0.80257-0.31898 1.4379-0.95691 1.9061-0.6328 0.46816-1.5048 0.70225-2.6161 0.70225-0.46302 0-0.94662-0.0463-1.4508-0.13891-0.49903-0.08746-1.0264-0.22122-1.582-0.40128v-1.4662c0.52476 0.27267 1.0418 0.47846 1.5511 0.61736 0.50932 0.13376 1.0135 0.20064 1.5125 0.20064 0.6688 0.000001 1.1833-0.11318 1.5434-0.33955 0.36012-0.23151 0.54018-0.55562 0.54019-0.97234-0.00001-0.38585-0.1312-0.68166-0.39357-0.88745-0.25724-0.20578-0.82572-0.40385-1.7055-0.59421l-0.49388-0.11576c-0.87974-0.1852-1.5151-0.46816-1.9061-0.84887-0.391-0.38584-0.58649-0.91317-0.58649-1.582 0-0.81285 0.2881-1.4405 0.8643-1.8829 0.5762-0.44243 1.3942-0.66365 2.454-0.66366 0.52475 0.000009 1.0186 0.03859 1.4817 0.11576 0.46301 0.07718 0.89002 0.19293 1.281 0.34726"/>
  <path id="path3185" style="" d="m830.27 57.982h6.7447v1.2965l-5.3402 6.2122h5.3402v1.1344h-6.9376v-1.2965l5.3402-6.2122h-5.1472v-1.1344"/>
  <path id="path3187" style="" d="m840.59 55.528v2.454h2.9247v1.1035h-2.9247v4.6919c0 0.70482 0.0952 1.1576 0.28553 1.3582 0.19549 0.20064 0.58906 0.30096 1.1807 0.30096h1.4585v1.1884h-1.4585c-1.0958 0-1.8521-0.20321-2.2688-0.60964-0.41672-0.41157-0.62508-1.1575-0.62508-2.2379v-4.6919h-1.0418v-1.1035h1.0418v-2.454h1.4276"/>
  <path id="path3189" style="" d="m845.76 64.665h1.6283v1.3273l-1.2656 2.4694h-0.9955l0.6328-2.4694v-1.3273"/>
  <path id="path3191" style="" d="m801.33 81.704v0.69453h-6.5286c0.0617 0.97749 0.35498 1.7235 0.87973 2.2379 0.5299 0.50932 1.2656 0.76398 2.2071 0.76398 0.54533 0.000001 1.0727-0.06688 1.582-0.20064 0.51446-0.13376 1.0238-0.3344 1.528-0.60193v1.3428c-0.50933 0.21608-1.0315 0.3807-1.5666 0.49389-0.53505 0.11318-1.0778 0.16977-1.6283 0.16977-1.3788 0-2.472-0.40128-3.2797-1.2039-0.80257-0.80256-1.2039-1.8881-1.2039-3.2566 0-1.4148 0.38071-2.5363 1.1421-3.3646 0.76655-0.83343 1.798-1.2501 3.0945-1.2502 1.1627 0.000009 2.081 0.37557 2.755 1.1267 0.67909 0.74598 1.0186 1.7621 1.0186 3.0482m-1.4199-0.41672c-0.0103-0.77684-0.22895-1.3968-0.65595-1.8598-0.42187-0.46301-0.98263-0.69452-1.6823-0.69453-0.79228 0.000008-1.4276 0.2238-1.9061 0.67138-0.47331 0.44759-0.74598 1.0778-0.818 1.8907l5.0624-0.0077m-1.3659-7.5472h1.5357l-2.5157 2.9016h-1.1807l2.1608-2.9016"/>
  <path id="path3193" style="" d="m809.17 77.992v1.3428c-0.40129-0.20578-0.81801-0.36012-1.2502-0.46302-0.43215-0.10289-0.87974-0.15433-1.3428-0.15434-0.70482 0.000008-1.2347 0.10804-1.5897 0.32411-0.34984 0.21608-0.52476 0.5402-0.52476 0.97234 0 0.32926 0.12604 0.58907 0.37813 0.77942 0.25209 0.18521 0.75884 0.3627 1.5202 0.53247l0.48617 0.10804c1.0084 0.21608 1.7235 0.52219 2.1453 0.91832 0.427 0.391 0.6405 0.9389 0.64051 1.6437-0.00001 0.80257-0.31898 1.4379-0.95691 1.9061-0.6328 0.46816-1.5048 0.70225-2.6161 0.70225-0.46302 0-0.94662-0.0463-1.4508-0.13891-0.49903-0.08746-1.0264-0.22122-1.582-0.40128v-1.4662c0.52476 0.27267 1.0418 0.47846 1.5511 0.61736 0.50932 0.13376 1.0135 0.20064 1.5125 0.20064 0.6688 0.000001 1.1833-0.11318 1.5434-0.33955 0.36012-0.23151 0.54018-0.55562 0.54019-0.97234-0.00001-0.38585-0.1312-0.68166-0.39357-0.88746-0.25724-0.20578-0.82572-0.40385-1.7055-0.59421l-0.49388-0.11576c-0.87974-0.1852-1.5151-0.46816-1.9061-0.84887-0.391-0.38584-0.58649-0.91317-0.58649-1.582 0-0.81285 0.2881-1.4405 0.8643-1.8829 0.5762-0.44243 1.3942-0.66365 2.454-0.66366 0.52475 0.000009 1.0186 0.03859 1.4817 0.11576 0.46301 0.07718 0.89002 0.19293 1.281 0.34726"/>
  <path id="path3195" style="" d="m815.91 77.738h1.5048l2.701 7.254 2.701-7.254h1.5048l-3.2411 8.643h-1.9292l-3.2411-8.643"/>
  <path id="path3197" style="" d="m830.21 82.036c-1.1473 0.000004-1.9421 0.13119-2.3846 0.39357-0.44244 0.26238-0.66366 0.70997-0.66366 1.3428 0 0.50418 0.16463 0.90546 0.49389 1.2039 0.3344 0.29325 0.78713 0.43987 1.3582 0.43987 0.78713 0.000001 1.4174-0.27781 1.8907-0.83344 0.47845-0.56077 0.71768-1.3042 0.71768-2.2302v-0.3164h-1.4122m2.8321-0.58649v4.9312h-1.4199v-1.3119c-0.32412 0.52476-0.72797 0.91318-1.2116 1.1653-0.48361 0.24694-1.0752 0.37042-1.7749 0.37042-0.88489 0-1.5897-0.24694-2.1145-0.74083-0.51961-0.49903-0.77941-1.1653-0.77941-1.9987 0-0.97234 0.32411-1.7055 0.97234-2.1993 0.65337-0.49388 1.6257-0.74083 2.917-0.74083h1.991v-0.13891c0-0.65337-0.21608-1.1575-0.64822-1.5125-0.42702-0.36012-1.0289-0.54018-1.8058-0.54019-0.49389 0.000008-0.97492 0.05917-1.4431 0.17749-0.46816 0.11833-0.91832 0.29582-1.3505 0.53247v-1.3119c0.51961-0.20063 1.0238-0.34983 1.5125-0.44759 0.48874-0.10288 0.96462-0.15433 1.4276-0.15434 1.2502 0.000009 2.1839 0.32412 2.8013 0.97234 0.61735 0.64824 0.92603 1.6309 0.92604 2.9479"/>
  <path id="path3199" style="" d="m843.16 81.164v5.2167h-1.4199v-5.1704c0-0.818-0.15949-1.4302-0.47845-1.8366-0.31898-0.40642-0.79743-0.60964-1.4354-0.60964-0.76656 0.000007-1.3711 0.24438-1.8135 0.73311-0.44245 0.48875-0.66367 1.155-0.66367 1.9987v4.8849h-1.4276v-8.643h1.4276v1.3428c0.33955-0.5196 0.73826-0.90802 1.1961-1.1653 0.46301-0.25722 0.99548-0.38584 1.5974-0.38585 0.99291 0.000009 1.744 0.30869 2.2534 0.92604 0.50931 0.61222 0.76397 1.5151 0.76398 2.7087"/>
 </g>
 <g id="text78">
  <path id="path3202" style="" d="m373.08 17.86h1.5048l2.701 7.254 2.701-7.254h1.5048l-3.2411 8.643h-1.9292l-3.2411-8.643"/>
  <path id="path3204" style="" d="m387.38 22.158c-1.1473 0.000005-1.9421 0.13119-2.3846 0.39357-0.44244 0.26238-0.66366 0.70997-0.66366 1.3428 0 0.50418 0.16463 0.90546 0.49389 1.2038 0.3344 0.29325 0.78713 0.43987 1.3582 0.43987 0.78713 0.000001 1.4174-0.27781 1.8907-0.83344 0.47845-0.56077 0.71768-1.3042 0.71768-2.2302v-0.3164h-1.4122m2.8321-0.58649v4.9312h-1.4199v-1.3119c-0.32412 0.52476-0.72797 0.91318-1.2116 1.1653-0.48361 0.24694-1.0752 0.37042-1.7749 0.37042-0.88489 0-1.5897-0.24694-2.1145-0.74083-0.51961-0.49903-0.77941-1.1653-0.77941-1.9987 0-0.97234 0.32411-1.7055 0.97234-2.1993 0.65337-0.49388 1.6257-0.74083 2.917-0.74083h1.991v-0.1389c0-0.65337-0.21608-1.1575-0.64822-1.5125-0.42702-0.36012-1.0289-0.54018-1.8058-0.54019-0.49389 0.000007-0.97492 0.05917-1.4431 0.17749-0.46816 0.11834-0.91832 0.29583-1.3505 0.53247v-1.3119c0.51961-0.20063 1.0238-0.34983 1.5125-0.44758 0.48874-0.10288 0.96462-0.15433 1.4276-0.15434 1.2502 0.000009 2.1839 0.32412 2.8013 0.97234 0.61735 0.64823 0.92603 1.6309 0.92604 2.9479m-2.5929-7.7093h1.5357l-2.5157 2.9016h-1.1807l2.1608-2.9016"/>
  <path id="path3206" style="" d="m393.15 14.495h1.4199v12.008h-1.4199v-12.008"/>
  <path id="path3208" style="" d="m401.46 22.158c-1.1473 0.000005-1.9421 0.13119-2.3846 0.39357-0.44244 0.26238-0.66366 0.70997-0.66366 1.3428 0 0.50418 0.16462 0.90546 0.49389 1.2038 0.33439 0.29325 0.78712 0.43987 1.3582 0.43987 0.78712 0.000001 1.4173-0.27781 1.8907-0.83344 0.47845-0.56077 0.71767-1.3042 0.71768-2.2302v-0.3164h-1.4122m2.8321-0.58649v4.9312h-1.4199v-1.3119c-0.32412 0.52476-0.72798 0.91318-1.2116 1.1653-0.4836 0.24694-1.0752 0.37042-1.7749 0.37042-0.88488 0-1.5897-0.24694-2.1144-0.74083-0.51961-0.49903-0.77942-1.1653-0.77942-1.9987 0-0.97234 0.32411-1.7055 0.97234-2.1993 0.65337-0.49388 1.6257-0.74083 2.917-0.74083h1.991v-0.1389c-0.00001-0.65337-0.21608-1.1575-0.64823-1.5125-0.42701-0.36012-1.0289-0.54018-1.8058-0.54019-0.4939 0.000007-0.97492 0.05917-1.4431 0.17749-0.46817 0.11834-0.91833 0.29583-1.3505 0.53247v-1.3119c0.51961-0.20063 1.0238-0.34983 1.5125-0.44758 0.48874-0.10288 0.96462-0.15433 1.4276-0.15434 1.2502 0.000009 2.1839 0.32412 2.8013 0.97234 0.61735 0.64823 0.92603 1.6309 0.92604 2.9479"/>
  <path id="path3210" style="" d="m412.73 18.114v1.3428c-0.40129-0.20578-0.818-0.36012-1.2502-0.46302-0.43216-0.10289-0.87974-0.15433-1.3428-0.15434-0.70482 0.000007-1.2347 0.10804-1.5897 0.32411-0.34984 0.21608-0.52475 0.5402-0.52475 0.97234 0 0.32926 0.12604 0.58907 0.37813 0.77942 0.25209 0.18521 0.75884 0.3627 1.5202 0.53247l0.48617 0.10804c1.0084 0.21608 1.7234 0.52219 2.1453 0.91832 0.427 0.391 0.64051 0.9389 0.64051 1.6437 0 0.80257-0.31897 1.4379-0.9569 1.9061-0.6328 0.46816-1.5048 0.70225-2.6161 0.70225-0.46303 0-0.94662-0.0463-1.4508-0.13891-0.49903-0.08746-1.0264-0.22122-1.582-0.40128v-1.4662c0.52475 0.27267 1.0418 0.47846 1.5511 0.61736 0.50932 0.13376 1.0135 0.20064 1.5125 0.20064 0.66881 0.000001 1.1833-0.11318 1.5434-0.33955 0.36012-0.23151 0.54019-0.55562 0.54019-0.97234 0-0.38585-0.13119-0.68166-0.39356-0.88745-0.25724-0.20578-0.82573-0.40385-1.7055-0.59421l-0.49389-0.11576c-0.87974-0.1852-1.5151-0.46816-1.9061-0.84887-0.391-0.38584-0.5865-0.91317-0.5865-1.582 0-0.81285 0.2881-1.4405 0.86431-1.8829 0.5762-0.44243 1.3942-0.66365 2.454-0.66366 0.52475 0.000009 1.0186 0.03859 1.4817 0.11576 0.46302 0.07718 0.89002 0.19293 1.281 0.34726"/>
  <path id="path3212" style="" d="m414.85 17.86h6.7446v1.2965l-5.3402 6.2122h5.3402v1.1344h-6.9376v-1.2965l5.3402-6.2122h-5.1472v-1.1344"/>
  <path id="path3214" style="" d="m425.17 15.406v2.454h2.9248v1.1035h-2.9248v4.6919c0 0.70482 0.0952 1.1576 0.28553 1.3582 0.1955 0.20064 0.58906 0.30096 1.1807 0.30096h1.4585v1.1884h-1.4585c-1.0958 0-1.8521-0.20321-2.2688-0.60964-0.41672-0.41157-0.62508-1.1575-0.62508-2.2379v-4.6919h-1.0418v-1.1035h1.0418v-2.454h1.4276"/>
 </g>
 <g id="text82">
  <path id="path3217" style="" d="m377.14 68.114v1.3428c-0.40129-0.20578-0.81801-0.36012-1.2502-0.46302-0.43215-0.10289-0.87974-0.15433-1.3428-0.15434-0.70483 0.000008-1.2347 0.10804-1.5897 0.32411-0.34984 0.21608-0.52476 0.5402-0.52476 0.97234 0 0.32926 0.12604 0.58907 0.37813 0.77942 0.25209 0.18521 0.75884 0.3627 1.5202 0.53247l0.48617 0.10804c1.0084 0.21608 1.7235 0.52219 2.1453 0.91832 0.427 0.391 0.6405 0.9389 0.64051 1.6437-0.00001 0.80257-0.31898 1.4379-0.95691 1.9061-0.6328 0.46816-1.5048 0.70225-2.6161 0.70225-0.46302 0-0.94662-0.0463-1.4508-0.13891-0.49903-0.08746-1.0264-0.22122-1.582-0.40128v-1.4662c0.52475 0.27267 1.0418 0.47846 1.5511 0.61736 0.50931 0.13376 1.0135 0.20064 1.5125 0.20064 0.6688 0.000001 1.1833-0.11318 1.5434-0.33955 0.36013-0.23151 0.54019-0.55562 0.54019-0.97234 0-0.38585-0.13119-0.68166-0.39356-0.88745-0.25724-0.20578-0.82573-0.40385-1.7055-0.59421l-0.49389-0.11576c-0.87973-0.1852-1.5151-0.46816-1.9061-0.84887-0.391-0.38584-0.58649-0.91317-0.58649-1.582 0-0.81285 0.2881-1.4405 0.8643-1.8829 0.5762-0.44243 1.3942-0.66365 2.454-0.66366 0.52475 0.000009 1.0186 0.03859 1.4817 0.11576 0.46301 0.07718 0.89002 0.19293 1.281 0.34726"/>
  <path id="path3219" style="" d="m379.26 67.86h6.7446v1.2965l-5.3402 6.2122h5.3402v1.1344h-6.9376v-1.2965l5.3402-6.2122h-5.1472v-1.1344"/>
  <path id="path3221" style="" d="m389.58 65.406v2.454h2.9247v1.1035h-2.9247v4.6919c-0.00001 0.70482 0.0952 1.1576 0.28553 1.3582 0.19549 0.20064 0.58906 0.30096 1.1807 0.30096h1.4585v1.1884h-1.4585c-1.0958 0-1.8521-0.20321-2.2688-0.60964-0.41672-0.41157-0.62508-1.1575-0.62508-2.2379v-4.6919h-1.0418v-1.1035h1.0418v-2.454h1.4276"/>
  <path id="path3223" style="" d="m397.73 68.855c-0.76141 0.000008-1.3633 0.2984-1.8058 0.89517-0.44245 0.59164-0.66367 1.4045-0.66366 2.4386-0.00001 1.0341 0.21864 1.8495 0.65594 2.4463 0.44244 0.59164 1.0469 0.88746 1.8135 0.88745 0.75626 0.000001 1.3556-0.29839 1.7981-0.89517 0.44244-0.59678 0.66366-1.4096 0.66366-2.4386 0-1.0238-0.22122-1.8341-0.66366-2.4309-0.44244-0.60192-1.0418-0.90288-1.7981-0.90289m0-1.2039c1.2347 0.000009 2.2045 0.40129 2.9093 1.2039 0.70481 0.80257 1.0572 1.9138 1.0572 3.3337-0.00001 1.4148-0.35242 2.526-1.0572 3.3337-0.70483 0.80257-1.6746 1.2039-2.9093 1.2039-1.2399 0-2.2122-0.40128-2.917-1.2039-0.69968-0.80771-1.0495-1.919-1.0495-3.3337 0-1.4199 0.34983-2.5312 1.0495-3.3337 0.70482-0.80256 1.6772-1.2038 2.917-1.2039"/>
  <path id="path3225" style="" d="m409.05 69.187c-0.15949-0.0926-0.33441-0.15948-0.52475-0.20064-0.18522-0.0463-0.391-0.06945-0.61736-0.06945-0.80258 0.000007-1.4199 0.26238-1.8521 0.78713-0.42701 0.51962-0.64052 1.2682-0.64051 2.2456v4.553h-1.4276v-8.643h1.4276v1.3428c0.29838-0.52475 0.68681-0.91317 1.1653-1.1653 0.47845-0.25722 1.0598-0.38584 1.744-0.38585 0.0978 0.000009 0.20578 0.0077 0.32412 0.02315 0.11832 0.0103 0.24951 0.0283 0.39356 0.05402l0.008 1.4585"/>
  <path id="path3227" style="" d="m417.46 71.286v5.2167h-1.4199v-5.1704c-0.00001-0.818-0.1595-1.4302-0.47846-1.8366-0.31897-0.40642-0.79743-0.60963-1.4354-0.60964-0.76656 0.000008-1.3711 0.24438-1.8135 0.73311-0.44245 0.48875-0.66367 1.155-0.66366 1.9987v4.8849h-1.4276v-8.643h1.4276v1.3428c0.33954-0.5196 0.73825-0.90802 1.1961-1.1653 0.46302-0.25722 0.99549-0.38584 1.5974-0.38585 0.99291 0.000009 1.744 0.30869 2.2534 0.92604 0.50931 0.61222 0.76397 1.5151 0.76398 2.7087"/>
  <path id="path3229" style="" d="m423.66 68.855c-0.76142 0.000008-1.3633 0.2984-1.8058 0.89517-0.44244 0.59164-0.66366 1.4045-0.66366 2.4386s0.21864 1.8495 0.65594 2.4463c0.44244 0.59164 1.0469 0.88746 1.8135 0.88745 0.75626 0.000001 1.3556-0.29839 1.798-0.89517 0.44244-0.59678 0.66366-1.4096 0.66367-2.4386-0.00001-1.0238-0.22123-1.8341-0.66367-2.4309-0.44244-0.60192-1.0418-0.90288-1.798-0.90289m0-1.2039c1.2347 0.000009 2.2045 0.40129 2.9093 1.2039 0.70481 0.80257 1.0572 1.9138 1.0572 3.3337-0.00001 1.4148-0.35242 2.526-1.0572 3.3337-0.70482 0.80257-1.6746 1.2039-2.9093 1.2039-1.2399 0-2.2122-0.40128-2.917-1.2039-0.69967-0.80771-1.0495-1.919-1.0495-3.3337 0-1.4199 0.34984-2.5312 1.0495-3.3337 0.70482-0.80256 1.6772-1.2038 2.917-1.2039m1.0727-3.789h1.5357l-2.5157 2.9016h-1.1807l2.1608-2.9016"/>
 </g>
 <g id="g86" transform="translate(-1.5161 -8.9721)">
  <path id="path88" d="m564.96 95.54a96.369 96.369 0 0 0 130.71 -14.938" stroke="#000" stroke-width="2" fill="none"/>
  <path id="polygon90" d="m557.27 89.218 3.896 10.48 6.825-7.3087z"/>
  <path id="polygon92" d="m557.27 89.218 3.896 10.48 6.825-7.3087z" stroke="#000" stroke-width="2" fill="none"/>
 </g>
 <g id="text94">
  <path id="path3234" style="" d="m597.14 112.11v1.3428c-0.40129-0.20578-0.81801-0.36012-1.2502-0.46302-0.43215-0.10289-0.87974-0.15433-1.3428-0.15434-0.70483 0.00001-1.2347 0.10804-1.5897 0.32411-0.34984 0.21608-0.52476 0.5402-0.52476 0.97234 0 0.32927 0.12604 0.58907 0.37813 0.77942 0.25209 0.18521 0.75884 0.3627 1.5202 0.53247l0.48617 0.10804c1.0084 0.21608 1.7235 0.52219 2.1453 0.91832 0.427 0.391 0.6405 0.9389 0.64051 1.6437-0.00001 0.80257-0.31898 1.4379-0.95691 1.9061-0.6328 0.46816-1.5048 0.70224-2.6161 0.70224-0.46302 0-0.94662-0.0463-1.4508-0.1389-0.49903-0.0875-1.0264-0.22122-1.582-0.40129v-1.4662c0.52475 0.27266 1.0418 0.47845 1.5511 0.61736 0.50931 0.13376 1.0135 0.20064 1.5125 0.20064 0.6688 0 1.1833-0.11318 1.5434-0.33955 0.36013-0.23151 0.54019-0.55562 0.54019-0.97234 0-0.38585-0.13119-0.68167-0.39356-0.88746-0.25724-0.20578-0.82573-0.40385-1.7055-0.5942l-0.49389-0.11576c-0.87973-0.1852-1.5151-0.46816-1.9061-0.84887-0.391-0.38584-0.58649-0.91317-0.58649-1.582 0-0.81285 0.2881-1.4405 0.8643-1.883 0.5762-0.44243 1.3942-0.66365 2.454-0.66366 0.52475 0.00001 1.0186 0.0386 1.4817 0.11576 0.46301 0.0772 0.89002 0.19293 1.281 0.34726"/>
  <path id="path3236" style="" d="m599.26 111.86h6.7446v1.2964l-5.3402 6.2122h5.3402v1.1344h-6.9376v-1.2964l5.3402-6.2122h-5.1472v-1.1344"/>
  <path id="path3238" style="" d="m609.58 109.41v2.454h2.9247v1.1035h-2.9247v4.6919c-0.00001 0.70482 0.0952 1.1576 0.28553 1.3582 0.19549 0.20064 0.58906 0.30097 1.1807 0.30096h1.4585v1.1884h-1.4585c-1.0958 0-1.8521-0.20321-2.2688-0.60964-0.41672-0.41157-0.62508-1.1576-0.62508-2.2379v-4.6919h-1.0418v-1.1035h1.0418v-2.454h1.4276"/>
  <path id="path3240" style="" d="m617.73 112.86c-0.76141 0.00001-1.3633 0.2984-1.8058 0.89517-0.44245 0.59164-0.66367 1.4045-0.66366 2.4386-0.00001 1.0341 0.21864 1.8495 0.65594 2.4463 0.44244 0.59164 1.0469 0.88745 1.8135 0.88745 0.75626 0 1.3556-0.29839 1.7981-0.89517 0.44244-0.59678 0.66366-1.4096 0.66366-2.4386 0-1.0238-0.22122-1.8341-0.66366-2.4308-0.44244-0.60192-1.0418-0.90288-1.7981-0.90289m0-1.2038c1.2347 0.00001 2.2045 0.40129 2.9093 1.2038 0.70481 0.80258 1.0572 1.9138 1.0572 3.3337-0.00001 1.4148-0.35242 2.526-1.0572 3.3337-0.70483 0.80257-1.6746 1.2038-2.9093 1.2038-1.2399 0-2.2122-0.40128-2.917-1.2038-0.69968-0.80771-1.0495-1.919-1.0495-3.3337 0-1.4199 0.34983-2.5312 1.0495-3.3337 0.70482-0.80256 1.6772-1.2038 2.917-1.2038"/>
  <path id="path3242" style="" d="m629.05 113.19c-0.15949-0.0926-0.33441-0.15947-0.52475-0.20064-0.18522-0.0463-0.391-0.0694-0.61736-0.0694-0.80258 0.00001-1.4199 0.26238-1.8521 0.78713-0.42701 0.51962-0.64052 1.2682-0.64051 2.2456v4.553h-1.4276v-8.643h1.4276v1.3428c0.29838-0.52475 0.68681-0.91317 1.1653-1.1653 0.47845-0.25722 1.0598-0.38584 1.744-0.38585 0.0978 0.00001 0.20578 0.008 0.32412 0.0232 0.11832 0.0103 0.24951 0.0283 0.39356 0.054l0.008 1.4585"/>
  <path id="path3244" style="" d="m637.46 115.29v5.2167h-1.4199v-5.1704c-0.00001-0.818-0.1595-1.4302-0.47846-1.8366-0.31897-0.40642-0.79743-0.60963-1.4354-0.60964-0.76656 0.00001-1.3711 0.24438-1.8135 0.73311-0.44245 0.48875-0.66367 1.155-0.66366 1.9987v4.8849h-1.4276v-8.643h1.4276v1.3428c0.33954-0.51961 0.73825-0.90803 1.1961-1.1653 0.46302-0.25722 0.99549-0.38584 1.5974-0.38585 0.99291 0.00001 1.744 0.30869 2.2534 0.92604 0.50931 0.61222 0.76397 1.5151 0.76398 2.7087"/>
  <path id="path3246" style="" d="m643.66 112.86c-0.76142 0.00001-1.3633 0.2984-1.8058 0.89517-0.44244 0.59164-0.66366 1.4045-0.66366 2.4386s0.21864 1.8495 0.65594 2.4463c0.44244 0.59164 1.0469 0.88745 1.8135 0.88745 0.75626 0 1.3556-0.29839 1.798-0.89517 0.44244-0.59678 0.66366-1.4096 0.66367-2.4386-0.00001-1.0238-0.22123-1.8341-0.66367-2.4308-0.44244-0.60192-1.0418-0.90288-1.798-0.90289m0-1.2038c1.2347 0.00001 2.2045 0.40129 2.9093 1.2038 0.70481 0.80258 1.0572 1.9138 1.0572 3.3337-0.00001 1.4148-0.35242 2.526-1.0572 3.3337-0.70482 0.80257-1.6746 1.2038-2.9093 1.2038-1.2399 0-2.2122-0.40128-2.917-1.2038-0.69967-0.80771-1.0495-1.919-1.0495-3.3337 0-1.4199 0.34984-2.5312 1.0495-3.3337 0.70482-0.80256 1.6772-1.2038 2.917-1.2038m1.0727-3.789h1.5357l-2.5157 2.9016h-1.1807l2.1608-2.9016"/>
 </g>
 <g id="g98" transform="translate(-1.5161 -8.9721)">
  <path id="path100" d="m469.15 61.808c-49.15 8.192-29.15 48.192 26.52 18.794" stroke="#000" stroke-width="2" fill="none"/>
  <path id="polygon102" d="m479.01 60.164-10.686-3.288 1.644 9.864z"/>
  <path id="polygon104" d="m479.01 60.164-10.686-3.288 1.644 9.864z" stroke="#000" stroke-width="2" fill="none"/>
 </g>
 <g id="g106" transform="translate(-1.5161 -8.9721)">
  <path id="line108" d="m588 55.5h79.992" stroke="#000" stroke-width="2" fill="none"/>
  <path id="polygon110" d="m678 55.5-10-5v10z"/>
  <path id="polygon112" d="m678 55.5-10-5v10z" stroke="#000" stroke-width="2" fill="none"/>
 </g>
 <g id="g114" transform="translate(-1.5161 -8.9721)">
  <path id="line116" d="m788 55.5h59.994" stroke="#000" stroke-width="2" fill="none"/>
  <path id="polygon118" d="m858 55.5-10-5v10z"/>
  <path id="polygon120" d="m858 55.5-10-5v10z" stroke="#000" stroke-width="2" fill="none"/>
 </g>
 <g id="g122" transform="translate(-1.5161 -8.9721)">
  <path id="path124" d="m440-20c20 0 39.588-13.816 67.404 32.266" stroke="#000" stroke-width="2" fill="none"/>
  <path id="polygon126" d="m512.57 20.828-0.89-11.146-8.56 5.168z"/>
  <path id="polygon128" d="m512.57 20.828-0.89-11.146-8.56 5.168z" stroke="#000" stroke-width="2" fill="none"/>
 </g>
 <g id="text130">
  <path id="path3259" style="" d="m601.35 35.206v4.5839h-1.4276v-11.93h1.4276v1.3119c0.29839-0.51446 0.67395-0.89516 1.1267-1.1421 0.45787-0.25208 1.0032-0.37812 1.636-0.37813 1.0495 0.000009 1.901 0.41673 2.5543 1.2502 0.65851 0.83344 0.98776 1.9293 0.98777 3.2874-0.00001 1.3582-0.32926 2.454-0.98777 3.2874-0.65338 0.83344-1.5048 1.2502-2.5543 1.2502-0.63279 0-1.1781-0.12347-1.636-0.37042-0.45273-0.25209-0.82829-0.63536-1.1267-1.1498m4.8308-3.0173c-0.00001-1.0444-0.21609-1.8624-0.64823-2.454-0.42701-0.59677-1.0161-0.89516-1.7672-0.89517-0.75113 0.000007-1.3428 0.2984-1.7749 0.89517-0.42701 0.59164-0.64051 1.4096-0.64051 2.454s0.2135 1.8649 0.64051 2.4617c0.43215 0.59164 1.0238 0.88746 1.7749 0.88745 0.75111 0.000001 1.3402-0.29582 1.7672-0.88745 0.43214-0.59678 0.64822-1.4174 0.64823-2.4617"/>
  <path id="path3261" style="" d="m617.4 31.826v0.69453h-6.5286c0.0617 0.97749 0.35498 1.7235 0.87974 2.2379 0.52989 0.50932 1.2656 0.76398 2.2071 0.76398 0.54532 0.000001 1.0726-0.06688 1.582-0.20064 0.51446-0.13376 1.0238-0.3344 1.528-0.60192v1.3428c-0.50933 0.21608-1.0315 0.3807-1.5665 0.49389-0.53506 0.11318-1.0778 0.16977-1.6283 0.16977-1.3788 0-2.472-0.40128-3.2797-1.2039-0.80257-0.80256-1.2038-1.8881-1.2038-3.2566 0-1.4148 0.3807-2.5363 1.1421-3.3646 0.76655-0.83343 1.7981-1.2501 3.0945-1.2502 1.1627 0.000009 2.081 0.37557 2.755 1.1267 0.67909 0.74598 1.0186 1.7621 1.0186 3.0482m-1.4199-0.41672c-0.0103-0.77684-0.22895-1.3968-0.65595-1.8598-0.42186-0.46301-0.98263-0.69452-1.6823-0.69453-0.79228 0.000007-1.4276 0.2238-1.9061 0.67138-0.47331 0.44759-0.74598 1.0778-0.818 1.8907l5.0624-0.0077m-1.3659-7.5472h1.5357l-2.5157 2.9016h-1.1807l2.1608-2.9016"/>
  <path id="path3263" style="" d="m626.91 31.286v5.2167h-1.4199v-5.1704c-0.00001-0.818-0.15949-1.4302-0.47845-1.8366-0.31898-0.40642-0.79743-0.60964-1.4354-0.60964-0.76656 0.000007-1.3711 0.24438-1.8135 0.73311-0.44244 0.48875-0.66366 1.155-0.66366 1.9987v4.8849h-1.4276v-8.643h1.4276v1.3428c0.33955-0.5196 0.73826-0.90802 1.1961-1.1653 0.46301-0.25722 0.99548-0.38584 1.5974-0.38585 0.99292 0.000009 1.744 0.30869 2.2534 0.92604 0.50932 0.61222 0.76398 1.5151 0.76399 2.7087"/>
  <path id="path3265" style="" d="m629.14 27.86h6.7446v1.2965l-5.3402 6.2122h5.3402v1.1344h-6.9376v-1.2965l5.3402-6.2122h-5.1472v-1.1344"/>
  <path id="path3267" style="" d="m649.3 32.189c0-1.0444-0.21608-1.8624-0.64822-2.454-0.42702-0.59677-1.0161-0.89516-1.7672-0.89517-0.75112 0.000007-1.3428 0.2984-1.7749 0.89517-0.42701 0.59164-0.64052 1.4096-0.64051 2.454-0.00001 1.0444 0.2135 1.8649 0.64051 2.4617 0.43214 0.59164 1.0238 0.88746 1.7749 0.88745 0.75112 0.000001 1.3402-0.29582 1.7672-0.88745 0.43214-0.59678 0.64822-1.4174 0.64822-2.4617m-4.8308-3.0173c0.29838-0.51446 0.67394-0.89516 1.1267-1.1421 0.45787-0.25208 1.0032-0.37812 1.636-0.37813 1.0495 0.000009 1.9009 0.41673 2.5543 1.2502 0.65851 0.83344 0.98777 1.9293 0.98778 3.2874-0.00001 1.3582-0.32927 2.454-0.98778 3.2874-0.65338 0.83344-1.5048 1.2502-2.5543 1.2502-0.6328 0-1.1781-0.12347-1.636-0.37042-0.45274-0.25209-0.8283-0.63536-1.1267-1.1498v1.2965h-1.4276v-12.008h1.4276v4.6765"/>
  <path id="path3269" style="" d="m660.52 31.826v0.69453h-6.5286c0.0617 0.97749 0.35498 1.7235 0.87974 2.2379 0.5299 0.50932 1.2656 0.76398 2.2071 0.76398 0.54533 0.000001 1.0727-0.06688 1.582-0.20064 0.51446-0.13376 1.0238-0.3344 1.528-0.60192v1.3428c-0.50933 0.21608-1.0315 0.3807-1.5666 0.49389-0.53505 0.11318-1.0778 0.16977-1.6283 0.16977-1.3788 0-2.472-0.40128-3.2797-1.2039-0.80257-0.80256-1.2038-1.8881-1.2038-3.2566 0-1.4148 0.3807-2.5363 1.1421-3.3646 0.76655-0.83343 1.798-1.2501 3.0945-1.2502 1.1627 0.000009 2.081 0.37557 2.755 1.1267 0.67908 0.74598 1.0186 1.7621 1.0186 3.0482m-1.4199-0.41672c-0.0103-0.77684-0.22894-1.3968-0.65594-1.8598-0.42187-0.46301-0.98264-0.69452-1.6823-0.69453-0.79228 0.000007-1.4276 0.2238-1.9061 0.67138-0.47332 0.44759-0.74598 1.0778-0.818 1.8907l5.0623-0.0077"/>
 </g>
 <g id="g134" transform="translate(-1.5161 -8.9721)">
  <path id="path136" d="m977.76 53.215c62.24-13.215 22.24-53.215-26.43-22.817" stroke="#000" stroke-width="2" fill="none"/>
  <path id="polygon138" d="m967.98 55.292 10.821 2.814-2.077-9.7819z"/>
  <path id="polygon140" d="m967.98 55.292 10.821 2.814-2.077-9.7819z" stroke="#000" stroke-width="2" fill="none"/>
 </g>
 <g id="text142">
  <path id="path3274" style="" d="m1019 7.8598h1.5048l2.701 7.254 2.7009-7.254h1.5048l-3.2411 8.643h-1.9292l-3.2412-8.643"/>
  <path id="path3276" style="" d="m1033.3 12.158c-1.1473 0.000005-1.9421 0.13119-2.3845 0.39357-0.4425 0.26238-0.6637 0.70997-0.6637 1.3428 0 0.50418 0.1646 0.90546 0.4939 1.2038 0.3344 0.29325 0.7871 0.43987 1.3582 0.43987 0.7871 0.000001 1.4173-0.27781 1.8906-0.83344 0.4785-0.56077 0.7177-1.3042 0.7177-2.2302v-0.3164h-1.4122m2.8321-0.58649v4.9312h-1.4199v-1.3119c-0.3241 0.52476-0.728 0.91318-1.2115 1.1653-0.4837 0.24694-1.0753 0.37042-1.775 0.37042-0.8848 0-1.5897-0.24694-2.1144-0.74083-0.5196-0.49903-0.7794-1.1653-0.7794-1.9987 0-0.97234 0.3241-1.7055 0.9723-2.1993 0.6534-0.49388 1.6257-0.74083 2.917-0.74083h1.991v-0.1389c0-0.65337-0.2161-1.1575-0.6482-1.5125-0.427-0.36012-1.0289-0.54018-1.8058-0.54019-0.4939 0.0000076-0.9749 0.059171-1.4431 0.17749-0.4681 0.11833-0.9183 0.29583-1.3504 0.53247v-1.3119c0.5196-0.20063 1.0238-0.34983 1.5125-0.44759 0.4887-0.10288 0.9646-0.15433 1.4276-0.15434 1.2502 0.0000089 2.1839 0.32412 2.8013 0.97234 0.6174 0.64823 0.926 1.6309 0.926 2.9479m-2.5929-7.7093h1.5357l-2.5157 2.9016h-1.1807l2.1607-2.9016"/>
  <path id="path3278" style="" d="m1039 4.4952h1.4199v12.008h-1.4199v-12.008"/>
  <path id="path3280" style="" d="m1047.3 12.158c-1.1473 0.000005-1.9421 0.13119-2.3845 0.39357-0.4425 0.26238-0.6637 0.70997-0.6637 1.3428 0 0.50418 0.1646 0.90546 0.4939 1.2038 0.3344 0.29325 0.7871 0.43987 1.3582 0.43987 0.7871 0.000001 1.4173-0.27781 1.8906-0.83344 0.4785-0.56077 0.7177-1.3042 0.7177-2.2302v-0.3164h-1.4122m2.8321-0.58649v4.9312h-1.4199v-1.3119c-0.3241 0.52476-0.728 0.91318-1.2116 1.1653-0.4836 0.24694-1.0752 0.37042-1.7749 0.37042-0.8848 0-1.5897-0.24694-2.1144-0.74083-0.5196-0.49903-0.7794-1.1653-0.7794-1.9987 0-0.97234 0.3241-1.7055 0.9723-2.1993 0.6534-0.49388 1.6257-0.74083 2.917-0.74083h1.991v-0.1389c0-0.65337-0.2161-1.1575-0.6482-1.5125-0.427-0.36012-1.029-0.54018-1.8058-0.54019-0.4939 0.0000076-0.9749 0.059171-1.4431 0.17749-0.4681 0.11833-0.9183 0.29583-1.3504 0.53247v-1.3119c0.5196-0.20063 1.0237-0.34983 1.5125-0.44759 0.4887-0.10288 0.9646-0.15433 1.4276-0.15434 1.2502 0.0000089 2.1839 0.32412 2.8013 0.97234 0.6174 0.64823 0.926 1.6309 0.926 2.9479"/>
  <path id="path3282" style="" d="m1058.6 8.1145v1.3428c-0.4013-0.20578-0.818-0.36012-1.2501-0.46302-0.4322-0.10289-0.8798-0.15433-1.3428-0.15434-0.7048 0.0000076-1.2347 0.10805-1.5897 0.32411-0.3498 0.21608-0.5247 0.5402-0.5247 0.97234 0 0.32926 0.126 0.58907 0.3781 0.77942 0.2521 0.18521 0.7588 0.3627 1.5202 0.53247l0.4862 0.10804c1.0084 0.21608 1.7235 0.52219 2.1453 0.91832 0.427 0.391 0.6405 0.9389 0.6405 1.6437 0 0.80257-0.3189 1.4379-0.9569 1.9061-0.6328 0.46816-1.5048 0.70225-2.616 0.70225-0.463 0-0.9466-0.0463-1.4508-0.13891-0.499-0.08746-1.0264-0.22122-1.582-0.40128v-1.4662c0.5248 0.27267 1.0418 0.47846 1.5511 0.61736 0.5093 0.13376 1.0135 0.20064 1.5125 0.20064 0.6689 0.000001 1.1833-0.11318 1.5434-0.33955 0.3602-0.23151 0.5402-0.55562 0.5402-0.97234 0-0.38585-0.1312-0.68166-0.3935-0.88745-0.2573-0.20578-0.8258-0.40385-1.7055-0.59421l-0.4939-0.11576c-0.8797-0.1852-1.5151-0.46816-1.9061-0.84887-0.391-0.38584-0.5865-0.91317-0.5865-1.582 0-0.81285 0.2881-1.4405 0.8643-1.8829 0.5762-0.44243 1.3942-0.66365 2.454-0.66366 0.5248 0.0000089 1.0187 0.038594 1.4817 0.11575 0.463 0.077179 0.89 0.19293 1.281 0.34726"/>
  <path id="path3284" style="" d="m1060.7 7.8598h6.7446v1.2965l-5.3401 6.2122h5.3401v1.1344h-6.9375v-1.2965l5.3401-6.2122h-5.1472v-1.1344"/>
  <path id="path3286" style="" d="m1071 5.4058v2.454h2.9248v1.1035h-2.9248v4.6919c0 0.70482 0.095 1.1576 0.2855 1.3582 0.1955 0.20064 0.5891 0.30096 1.1807 0.30096h1.4586v1.1884h-1.4586c-1.0958 0-1.852-0.20321-2.2687-0.60964-0.4168-0.41157-0.6251-1.1575-0.6251-2.2379v-4.6919h-1.0418v-1.1035h1.0418v-2.454h1.4276"/>
 </g>
 <g id="g146" transform="translate(-1.5161 -8.9721)">
  <path id="path148" d="m970.63 74.834c49.37 13.166 57.37 81.166-30.63 13.166" stroke="#000" stroke-width="2" fill="none"/>
  <path id="polygon150" d="m960.97 72.258 8.374 7.4078 2.577-9.6624z"/>
  <path id="polygon152" d="m960.97 72.258 8.374 7.4078 2.577-9.6624z" stroke="#000" stroke-width="2" fill="none"/>
 </g>
 <g id="text154">
  <path id="path3291" style="" d="m1025.5 88.114v1.3428c-0.4013-0.20578-0.818-0.36012-1.2502-0.46302-0.4321-0.10289-0.8797-0.15433-1.3427-0.15434-0.7048 0.000008-1.2347 0.10804-1.5897 0.32411-0.3499 0.21608-0.5248 0.5402-0.5248 0.97234 0 0.32926 0.1261 0.58907 0.3782 0.77942 0.2521 0.18521 0.7588 0.3627 1.5202 0.53247l0.4862 0.10804c1.0083 0.21608 1.7234 0.52219 2.1453 0.91832 0.427 0.391 0.6405 0.9389 0.6405 1.6437 0 0.80257-0.319 1.4379-0.9569 1.9061-0.6328 0.46816-1.5048 0.70225-2.616 0.70225-0.4631 0-0.9467-0.0463-1.4508-0.13891-0.4991-0.08746-1.0264-0.22122-1.582-0.40128v-1.4662c0.5247 0.27267 1.0418 0.47846 1.5511 0.61736 0.5093 0.13376 1.0135 0.20064 1.5125 0.20064 0.6688 0.000001 1.1833-0.11318 1.5434-0.33955 0.3601-0.23151 0.5402-0.55562 0.5402-0.97234 0-0.38585-0.1312-0.68166-0.3936-0.88745-0.2572-0.20578-0.8257-0.40385-1.7054-0.59421l-0.4939-0.11576c-0.8797-0.1852-1.5151-0.46816-1.9061-0.84887-0.391-0.38584-0.5865-0.91317-0.5865-1.582 0-0.81285 0.2881-1.4405 0.8643-1.8829 0.5762-0.44243 1.3942-0.66365 2.454-0.66366 0.5248 0.000009 1.0187 0.03859 1.4817 0.11576 0.463 0.07718 0.89 0.19293 1.281 0.34726"/>
  <path id="path3293" style="" d="m1027.6 87.86h6.7446v1.2965l-5.3402 6.2122h5.3402v1.1344h-6.9376v-1.2965l5.3402-6.2122h-5.1472v-1.1344"/>
  <path id="path3295" style="" d="m1037.9 85.406v2.454h2.9247v1.1035h-2.9247v4.6919c0 0.70482 0.095 1.1576 0.2855 1.3582 0.1955 0.20064 0.5891 0.30096 1.1807 0.30096h1.4585v1.1884h-1.4585c-1.0958 0-1.8521-0.20321-2.2688-0.60964-0.4167-0.41157-0.6251-1.1575-0.6251-2.2379v-4.6919h-1.0417v-1.1035h1.0417v-2.454h1.4277"/>
  <path id="path3297" style="" d="m1046.1 88.855c-0.7614 0.000008-1.3633 0.2984-1.8057 0.89517-0.4425 0.59164-0.6637 1.4045-0.6637 2.4386s0.2186 1.8495 0.6559 2.4463c0.4425 0.59164 1.047 0.88746 1.8135 0.88745 0.7563 0.000001 1.3556-0.29839 1.7981-0.89517 0.4424-0.59678 0.6636-1.4096 0.6637-2.4386-0.0001-1.0238-0.2213-1.8341-0.6637-2.4309-0.4425-0.60192-1.0418-0.90288-1.7981-0.90289m0-1.2039c1.2347 0.000009 2.2045 0.40129 2.9093 1.2039 0.7049 0.80257 1.0573 1.9138 1.0573 3.3337 0 1.4148-0.3524 2.526-1.0573 3.3337-0.7048 0.80257-1.6746 1.2039-2.9093 1.2039-1.2398 0-2.2122-0.40128-2.917-1.2039-0.6997-0.80771-1.0495-1.919-1.0495-3.3337 0-1.4199 0.3498-2.5312 1.0495-3.3337 0.7048-0.80256 1.6772-1.2038 2.917-1.2039"/>
  <path id="path3299" style="" d="m1057.4 89.187c-0.1595-0.0926-0.3344-0.15948-0.5248-0.20064-0.1852-0.0463-0.391-0.06945-0.6174-0.06945-0.8025 0.000007-1.4199 0.26238-1.852 0.78713-0.427 0.51962-0.6405 1.2682-0.6405 2.2456v4.553h-1.4277v-8.643h1.4277v1.3428c0.2983-0.52475 0.6868-0.91317 1.1652-1.1653 0.4785-0.25722 1.0598-0.38584 1.7441-0.38585 0.098 0.000009 0.2057 0.0077 0.3241 0.02315 0.1183 0.0103 0.2495 0.0283 0.3935 0.05402l0.01 1.4585"/>
  <path id="path3301" style="" d="m1065.8 91.286v5.2167h-1.4199v-5.1704c0-0.818-0.1595-1.4302-0.4785-1.8366-0.319-0.40642-0.7974-0.60963-1.4354-0.60964-0.7665 0.000008-1.371 0.24438-1.8134 0.73311-0.4425 0.48875-0.6637 1.155-0.6637 1.9987v4.8849h-1.4277v-8.643h1.4277v1.3428c0.3395-0.5196 0.7382-0.90802 1.1961-1.1653 0.463-0.25722 0.9955-0.38584 1.5974-0.38585 0.993 0.000009 1.7441 0.30869 2.2534 0.92604 0.5093 0.61222 0.764 1.5151 0.764 2.7087"/>
  <path id="path3303" style="" d="m1072 88.855c-0.7614 0.000008-1.3633 0.2984-1.8057 0.89517-0.4425 0.59164-0.6637 1.4045-0.6637 2.4386s0.2186 1.8495 0.6559 2.4463c0.4425 0.59164 1.047 0.88746 1.8135 0.88745 0.7563 0.000001 1.3556-0.29839 1.7981-0.89517 0.4424-0.59678 0.6636-1.4096 0.6636-2.4386 0-1.0238-0.2212-1.8341-0.6636-2.4309-0.4425-0.60192-1.0418-0.90288-1.7981-0.90289m0-1.2039c1.2347 0.000009 2.2045 0.40129 2.9093 1.2039 0.7048 0.80257 1.0573 1.9138 1.0573 3.3337 0 1.4148-0.3525 2.526-1.0573 3.3337-0.7048 0.80257-1.6746 1.2039-2.9093 1.2039-1.2398 0-2.2122-0.40128-2.917-1.2039-0.6997-0.80771-1.0495-1.919-1.0495-3.3337 0-1.4199 0.3498-2.5312 1.0495-3.3337 0.7048-0.80256 1.6772-1.2038 2.917-1.2039m1.0727-3.789h1.5357l-2.5158 2.9016h-1.1807l2.1608-2.9016"/>
 </g>
</svg>
