<?xml version="1.0" encoding="UTF-8" standalone="no"?>
<!-- Created with Inkscape (http://www.inkscape.org/) -->
<svg id="svg2" xmlns:rdf="http://www.w3.org/1999/02/22-rdf-syntax-ns#" xmlns="http://www.w3.org/2000/svg" height="139.82" width="231.75" version="1.1" xmlns:cc="http://creativecommons.org/ns#" xmlns:dc="http://purl.org/dc/elements/1.1/" viewBox="159 249 113.99228 73.000001">
 <metadata id="metadata188">
  <rdf:RDF>
   <cc:Work rdf:about="">
    <dc:format>image/svg+xml</dc:format>
    <dc:type rdf:resource="http://purl.org/dc/dcmitype/StillImage"/>
   </cc:Work>
  </rdf:RDF>
 </metadata>
 <g id="g4" transform="translate(-4.0039 -.5)">
  <g id="g6">
   <path id="rect8" fill="#7babe3" d="m220 250h10v10h-10z"/>
   <path id="rect10" d="m220 250h10v10h-10z" stroke="#000" fill="none"/>
  </g>
  <g id="g12">
   <path id="rect14" fill="#7babe3" d="m230 250h10v10h-10z"/>
   <path id="rect16" d="m230 250h10v10h-10z" stroke="#000" fill="none"/>
  </g>
  <g id="g18">
   <path id="rect20" fill="#7babe3" d="m240 250h10v10h-10z"/>
   <path id="rect22" d="m240 250h10v10h-10z" stroke="#000" fill="none"/>
  </g>
  <g id="g24">
   <path id="rect26" fill="#7babe3" d="m250 250h10v10h-10z"/>
   <path id="rect28" d="m250 250h10v10h-10z" stroke="#000" fill="none"/>
  </g>
 </g>
 <g id="g30" transform="translate(-4.0039 -.5)">
  <g id="g32">
   <path id="rect34" fill="#fdfd04" d="m220 260h10v10h-10z"/>
   <path id="rect36" d="m220 260h10v10h-10z" stroke="#000" fill="none"/>
  </g>
  <g id="g38">
   <path id="rect40" fill="#fdfd04" d="m230 260h10v10h-10z"/>
   <path id="rect42" d="m230 260h10v10h-10z" stroke="#000" fill="none"/>
  </g>
  <g id="g44">
   <path id="rect46" fill="#fdfd04" d="m240 260h10v10h-10z"/>
   <path id="rect48" d="m240 260h10v10h-10z" stroke="#000" fill="none"/>
  </g>
  <g id="g50">
   <path id="rect52" fill="#fdfd04" d="m250 260h10v10h-10z"/>
   <path id="rect54" d="m250 260h10v10h-10z" stroke="#000" fill="none"/>
  </g>
 </g>
 <g id="g56" transform="translate(-4.0039 -.5)">
  <g id="g58">
   <path id="rect60" fill="#7babe3" d="m220 270h10v10h-10z"/>
   <path id="rect62" d="m220 270h10v10h-10z" stroke="#000" fill="none"/>
  </g>
  <g id="g64">
   <path id="rect66" fill="#7babe3" d="m230 270h10v10h-10z"/>
   <path id="rect68" d="m230 270h10v10h-10z" stroke="#000" fill="none"/>
  </g>
  <g id="g70">
   <path id="rect72" fill="#7babe3" d="m240 270h10v10h-10z"/>
   <path id="rect74" d="m240 270h10v10h-10z" stroke="#000" fill="none"/>
  </g>
  <g id="g76">
   <path id="rect78" fill="#7babe3" d="m250 270h10v10h-10z"/>
   <path id="rect80" d="m250 270h10v10h-10z" stroke="#000" fill="none"/>
  </g>
 </g>
 <g id="g82" transform="translate(-4.0039 -.5)">
  <g id="g84">
   <path id="rect86" fill="#fdfd04" d="m200 312h10v10h-10z"/>
   <path id="rect88" d="m200 312h10v10h-10z" stroke="#000" fill="none"/>
  </g>
  <g id="g90">
   <path id="rect92" fill="#fdfd04" d="m210 312h10v10h-10z"/>
   <path id="rect94" d="m210 312h10v10h-10z" stroke="#000" fill="none"/>
  </g>
  <g id="g96">
   <path id="rect98" fill="#fdfd04" d="m220 312h10v10h-10z"/>
   <path id="rect100" d="m220 312h10v10h-10z" stroke="#000" fill="none"/>
  </g>
  <g id="g102">
   <path id="rect104" fill="#fdfd04" d="m230 312h10v10h-10z"/>
   <path id="rect106" d="m230 312h10v10h-10z" stroke="#000" fill="none"/>
  </g>
 </g>
 <g id="g108" transform="translate(-4.0039 -.5)">
  <g id="g110">
   <path id="rect112" fill="#7babe3" d="m240 312h10v10h-10z"/>
   <path id="rect114" d="m240 312h10v10h-10z" stroke="#000" fill="none"/>
  </g>
  <g id="g116">
   <path id="rect118" fill="#7babe3" d="m250 312h10v10h-10z"/>
   <path id="rect120" d="m250 312h10v10h-10z" stroke="#000" fill="none"/>
  </g>
  <g id="g122">
   <path id="rect124" fill="#7babe3" d="m260 312h10v10h-10z"/>
   <path id="rect126" d="m260 312h10v10h-10z" stroke="#000" fill="none"/>
  </g>
  <g id="g128">
   <path id="rect130" fill="#7babe3" d="m270 312h10v10h-10z"/>
   <path id="rect132" d="m270 312h10v10h-10z" stroke="#000" fill="none"/>
  </g>
 </g>
 <g id="g134" transform="translate(-4.0039 -.5)">
  <g id="g136">
   <path id="rect138" fill="#7babe3" d="m160 312h10v10h-10z"/>
   <path id="rect140" d="m160 312h10v10h-10z" stroke="#000" fill="none"/>
  </g>
  <g id="g142">
   <path id="rect144" fill="#7babe3" d="m170 312h10v10h-10z"/>
   <path id="rect146" d="m170 312h10v10h-10z" stroke="#000" fill="none"/>
  </g>
  <g id="g148">
   <path id="rect150" fill="#7babe3" d="m180 312h10v10h-10z"/>
   <path id="rect152" d="m180 312h10v10h-10z" stroke="#000" fill="none"/>
  </g>
  <g id="g154">
   <path id="rect156" fill="#7babe3" d="m190 312h10v10h-10z"/>
   <path id="rect158" d="m190 312h10v10h-10z" stroke="#000" fill="none"/>
  </g>
 </g>
 <g id="g160" transform="translate(-4.0039 -.5)">
  <path id="path162" d="m220 255c-28 1-52 17-54.636 52.146" stroke="#000" fill="none"/>
  <path id="polygon164" d="m165.36 307.15 2.587-1.06-2.867 4.799-2.119-5.173z"/>
  <path id="polygon166" d="m165.36 307.15 2.587-1.06-2.867 4.799-2.119-5.173z" stroke="#000" fill="none"/>
 </g>
 <g id="g168" transform="translate(-4.0039 -.5)">
  <path id="path170" d="m220 265c-36 7-16 27-15.243 42.138" stroke="#000" fill="none"/>
  <path id="polygon172" d="m204.76 307.14 2.434-1.373-2.247 5.118-2.746-4.869z"/>
  <path id="polygon174" d="m204.76 307.14 2.434-1.373-2.247 5.118-2.746-4.869z" stroke="#000" fill="none"/>
 </g>
 <g id="g176" transform="translate(-4.0039 -.5)">
  <path id="path178" d="m220 275c-28 13 24 13 24.797 32.136" stroke="#000" fill="none"/>
  <path id="polygon180" d="m244.8 307.14 2.446-1.353-2.29 5.1-2.706-4.892z"/>
  <path id="polygon182" d="m244.8 307.14 2.446-1.353-2.29 5.1-2.706-4.892z" stroke="#000" fill="none"/>
 </g>
</svg>
