<?xml version="1.0" encoding="UTF-8" standalone="no"?>
<!-- Created with Inkscape (http://www.inkscape.org/) -->
<svg id="svg2" xmlns:rdf="http://www.w3.org/1999/02/22-rdf-syntax-ns#" xmlns="http://www.w3.org/2000/svg" height="478.64" width="493.29" version="1.1" xmlns:cc="http://creativecommons.org/ns#" xmlns:dc="http://purl.org/dc/elements/1.1/" viewBox="94 51 266.501 251.83193">
 <metadata id="metadata146">
  <rdf:RDF>
   <cc:Work rdf:about="">
    <dc:format>image/svg+xml</dc:format>
    <dc:type rdf:resource="http://purl.org/dc/dcmitype/StillImage"/>
   </cc:Work>
  </rdf:RDF>
 </metadata>
 <g id="g4" transform="translate(-.64183 -6.0847)">
  <path id="path6" d="m189.22 258.98c-45 5-114.68-73.522-87.455-100.74" stroke="#000" stroke-width="2" fill="none"/>
  <path id="polygon8" d="m108.84 151.16-9.1928 4.95 4.2428 4.243z"/>
  <path id="polygon10" d="m108.84 151.16-9.1928 4.95 4.2428 4.243z" stroke="#000" stroke-width="2" fill="none"/>
 </g>
 <g id="text12">
  <path id="path3054" style="" d="m110.63 233.62h1.2171v10.292h-1.2171v-10.292"/>
 </g>
 <g id="g16" transform="translate(-.64183 -6.0847)">
  <path id="path18" d="m170 125h99" stroke="#000" stroke-width="2" fill="none"/>
  <path id="polygon20" d="m279 125-10-3v6z"/>
  <path id="polygon22" d="m279 125-10-3v6z" stroke="#000" stroke-width="2" fill="none"/>
 </g>
 <g id="text24">
  <path id="path3059" style="" d="m210.63 103.62h1.2171v10.292h-1.2171v-10.292"/>
 </g>
 <g id="g28" transform="translate(-.64183 -6.0847)">
  <path id="path30" d="m129.91 160.64c-5 35 39.224 60.845 54.792 70.186" stroke="#000" stroke-width="2" fill="none"/>
  <path id="polygon32" d="m193.28 235.97-7.032-7.718-3.087 5.145z"/>
  <path id="polygon34" d="m193.28 235.97-7.032-7.718-3.087 5.145z" stroke="#000" stroke-width="2" fill="none"/>
 </g>
 <g id="text36">
  <path id="path3064" style="" d="m216.97 169.91v0.59531h-5.596c0.0529 0.83785 0.30427 1.4773 0.75407 1.9182 0.4542 0.43657 1.0848 0.65485 1.8918 0.65485 0.46743 0 0.91943-0.0573 1.356-0.17198 0.44097-0.11465 0.87753-0.28663 1.3097-0.51594v1.1509c-0.43657 0.18521-0.88416 0.32632-1.3428 0.42333-0.45862 0.097-0.92384 0.14553-1.3957 0.14553-1.1818 0-2.1189-0.34396-2.8112-1.0319-0.68792-0.68792-1.0319-1.6184-1.0319-2.7914 0-1.2127 0.32632-2.174 0.97896-2.884 0.65705-0.71437 1.5412-1.0716 2.6524-1.0716 0.9966 0 1.7837 0.32191 2.3614 0.96573 0.58207 0.63942 0.87312 1.5103 0.87312 2.6128m-1.2171-0.35719c-0.009-0.66587-0.19624-1.1972-0.56224-1.5941-0.36161-0.39687-0.84227-0.59531-1.442-0.59532-0.6791 0.00001-1.2237 0.19183-1.6338 0.57547-0.4057 0.38366-0.63942 0.92385-0.70115 1.6206l4.3392-0.007"/>
  <path id="path3066" style="" d="m223.84 170.13c0-0.88194-0.18301-1.5654-0.54901-2.0505-0.3616-0.48506-0.87093-0.7276-1.528-0.7276-0.65265 0-1.162 0.24254-1.528 0.7276-0.3616 0.48508-0.5424 1.1686-0.5424 2.0505 0 0.87754 0.1808 1.5588 0.5424 2.0439 0.366 0.48507 0.87532 0.72761 1.528 0.7276 0.65704 0.00001 1.1664-0.24253 1.528-0.7276 0.366-0.48507 0.54901-1.1664 0.54901-2.0439m1.2171 2.8707c-0.00001 1.2612-0.28003 2.1982-0.84006 2.8112-0.56004 0.61736-1.4177 0.92604-2.5731 0.92604-0.42775 0-0.83124-0.0331-1.2105-0.0992-0.37924-0.0617-0.74745-0.15875-1.1046-0.29104v-1.184c0.35718 0.19402 0.70996 0.33734 1.0583 0.42995 0.34837 0.0926 0.70335 0.1389 1.065 0.1389 0.79816 0 1.3957-0.20946 1.7926-0.62838 0.39687-0.41452 0.59531-1.0429 0.59531-1.8852v-0.60193c-0.25136 0.43656-0.57327 0.76288-0.96573 0.97896-0.39247 0.21607-0.86211 0.32411-1.4089 0.32411-0.90841 0-1.6404-0.34616-2.196-1.0385-0.55562-0.69233-0.83344-1.6096-0.83344-2.7517 0-1.1465 0.27782-2.066 0.83344-2.7583 0.55563-0.69232 1.2876-1.0385 2.196-1.0385 0.5468 0 1.0164 0.10804 1.4089 0.32411 0.39246 0.21609 0.71437 0.54241 0.96573 0.97896v-1.1245h1.2171v6.4889"/>
  <path id="path3068" style="" d="m230.65 174.6c-0.34396 0.88195-0.6791 1.4574-1.0054 1.7264-0.32633 0.26899-0.76289 0.40349-1.3097 0.40349h-0.97235v-1.0186h0.71438c0.33513 0 0.59531-0.0794 0.78052-0.23812 0.1852-0.15875 0.39026-0.53358 0.61516-1.1245l0.21828-0.55563-2.9964-7.2893h1.2898l2.3151 5.7944 2.3151-5.7944h1.2898l-3.2544 8.0963"/>
  <path id="path3070" style="" d="m241.92 169.91v0.59531h-5.596c0.0529 0.83785 0.30427 1.4773 0.75406 1.9182 0.4542 0.43657 1.0848 0.65485 1.8918 0.65485 0.46743 0 0.91942-0.0573 1.356-0.17198 0.44097-0.11465 0.87753-0.28663 1.3097-0.51594v1.1509c-0.43657 0.18521-0.88415 0.32632-1.3428 0.42333-0.45862 0.097-0.92384 0.14553-1.3957 0.14553-1.1818 0-2.1189-0.34396-2.8112-1.0319-0.68791-0.68792-1.0319-1.6184-1.0319-2.7914 0-1.2127 0.32632-2.174 0.97896-2.884 0.65705-0.71437 1.5412-1.0716 2.6524-1.0716 0.9966 0 1.7837 0.32191 2.3614 0.96573 0.58208 0.63942 0.87312 1.5103 0.87313 2.6128m-1.2171-0.35719c-0.009-0.66587-0.19623-1.1972-0.56224-1.5941-0.3616-0.39687-0.84226-0.59531-1.442-0.59532-0.6791 0.00001-1.2237 0.19183-1.6338 0.57547-0.4057 0.38366-0.63942 0.92385-0.70115 1.6206l4.3392-0.007m-1.1708-6.4691h1.3163l-2.1564 2.4871h-1.012l1.8521-2.4871"/>
  <path id="path3072" style="" d="m249.24 170.22c-0.00001-0.89517-0.18522-1.5963-0.55563-2.1034-0.36601-0.51152-0.87092-0.76729-1.5147-0.76729-0.64383 0-1.1509 0.25577-1.5214 0.76729-0.36601 0.50712-0.54901 1.2083-0.54901 2.1034 0 0.89518 0.183 1.5985 0.54901 2.1101 0.37042 0.50712 0.87753 0.76068 1.5214 0.76068 0.64382 0 1.1487-0.25356 1.5147-0.76068 0.37041-0.51153 0.55562-1.2149 0.55563-2.1101m-4.1407-2.5863c0.25576-0.44096 0.57767-0.76728 0.96573-0.97896 0.39246-0.21607 0.8599-0.32411 1.4023-0.32411 0.89958 0 1.6294 0.35719 2.1894 1.0716 0.56444 0.71438 0.84666 1.6537 0.84667 2.8178-0.00001 1.1642-0.28223 2.1034-0.84667 2.8178-0.56004 0.71438-1.2898 1.0716-2.1894 1.0716-0.5424 0-1.0098-0.10584-1.4023-0.3175-0.38806-0.21608-0.70997-0.54461-0.96573-0.98558v1.1112h-1.2237v-10.292h1.2237v4.0084"/>
 </g>
 <g id="text40">
  <path id="path3075" style="" d="m155.72 186.6c-0.34396 0.88195-0.6791 1.4574-1.0054 1.7264-0.32632 0.26899-0.76288 0.40349-1.3097 0.40349h-0.97235v-1.0186h0.71438c0.33514 0 0.59531-0.0794 0.78052-0.23812 0.18521-0.15875 0.39026-0.53358 0.61516-1.1245l0.21828-0.55563-2.9964-7.2893h1.2898l2.3151 5.7944 2.3151-5.7944h1.2898l-3.2544 8.0963"/>
  <path id="path3077" style="" d="m157.59 194.36v3.6843h3.6843v1.1245h-3.6843v3.6843h-1.1112v-3.6843h-3.6843v-1.1245h3.6843v-3.6843h1.1112"/>
  <path id="path3079" style="" d="m164.39 201.72h2.1828v-7.534l-2.3746 0.47625v-1.2171l2.3614-0.47626h1.3362v8.7511h2.1828v1.1245h-5.6886v-1.1245"/>
 </g>
 <g id="g46" transform="translate(-.64183 -6.0847)">
  <path id="path48" d="m300.82 158.09c-15 35-15.367 36.461-42.589 63.683" stroke="#000" stroke-width="2" fill="none"/>
  <path id="polygon50" d="m251.16 228.84 9.193-4.95-4.243-4.243z"/>
  <path id="polygon52" d="m251.16 228.84 9.193-4.95-4.243-4.243z" stroke="#000" stroke-width="2" fill="none"/>
 </g>
 <g id="text54">
  <path id="path3084" style="" d="m293.72 194.6c-0.34397 0.88195-0.67911 1.4574-1.0054 1.7264-0.32633 0.26899-0.76289 0.40349-1.3097 0.40349h-0.97235v-1.0186h0.71438c0.33513 0 0.59531-0.0794 0.78052-0.23812 0.18521-0.15875 0.39026-0.53358 0.61516-1.1245l0.21828-0.55563-2.9964-7.2893h1.2898l2.3151 5.7944 2.3151-5.7944h1.2898l-3.2544 8.0963"/>
  <path id="path3086" style="" d="m295.59 202.36v3.6843h3.6843v1.1245h-3.6843v3.6843h-1.1113v-3.6843h-3.6843v-1.1245h3.6843v-3.6843h1.1113"/>
  <path id="path3088" style="" d="m303.31 209.72h4.6633v1.1245h-6.2706v-1.1245c0.50712-0.52476 1.1972-1.2281 2.0704-2.1101 0.87753-0.88635 1.4288-1.4574 1.6536-1.7132 0.42774-0.48065 0.72539-0.88635 0.89297-1.2171 0.17197-0.33513 0.25796-0.66365 0.25797-0.98557-0.00001-0.52475-0.18522-0.95249-0.55563-1.2832-0.36601-0.33072-0.84447-0.49609-1.4354-0.4961-0.41893 0.00001-0.8621 0.0728-1.3295 0.21828-0.46303 0.14553-0.95912 0.36602-1.4883 0.66146v-1.3494c0.53799-0.21607 1.0407-0.37923 1.5081-0.48948 0.46743-0.11024 0.89517-0.16536 1.2832-0.16537 1.0231 0.00001 1.8389 0.25577 2.4474 0.76729 0.60853 0.51154 0.9128 1.195 0.91281 2.0505-0.00001 0.4057-0.0772 0.79155-0.23151 1.1576-0.14994 0.36161-0.42555 0.78935-0.82683 1.2832-0.11024 0.12788-0.46082 0.4983-1.0517 1.1112-0.59091 0.60855-1.4243 1.4618-2.5003 2.5598"/>
 </g>
 <g id="g60" transform="translate(-.64183 -6.0847)">
  <path id="path62" d="m159.75 149.75c20.25 10.25 60.25 50.25 62.58 59.58" stroke="#000" stroke-width="2" fill="none"/>
  <path id="polygon64" d="m224.76 219.03 0.486-10.429-5.821 1.455z"/>
  <path id="polygon66" d="m224.76 219.03 0.486-10.429-5.821 1.455z" stroke="#000" stroke-width="2" fill="none"/>
 </g>
 <g id="text68">
  <path id="path3093" style="" d="m326.97 239.91v0.59531h-5.596c0.0529 0.83785 0.30427 1.4773 0.75406 1.9182 0.4542 0.43657 1.0848 0.65485 1.8918 0.65485 0.46742 0 0.91942-0.0573 1.356-0.17198 0.44097-0.11465 0.87753-0.28663 1.3097-0.51594v1.1509c-0.43657 0.18521-0.88416 0.32632-1.3428 0.42333-0.45862 0.097-0.92385 0.14553-1.3957 0.14553-1.1818 0-2.1189-0.34396-2.8112-1.0319-0.68792-0.68792-1.0319-1.6184-1.0319-2.7914 0-1.2127 0.32632-2.174 0.97897-2.884 0.65704-0.71437 1.5412-1.0716 2.6524-1.0716 0.99659 0 1.7837 0.32191 2.3614 0.96573 0.58208 0.63942 0.87312 1.5103 0.87313 2.6128m-1.2171-0.35719c-0.009-0.66587-0.19624-1.1972-0.56224-1.5941-0.3616-0.39687-0.84226-0.59531-1.442-0.59532-0.6791 0.00001-1.2237 0.19183-1.6338 0.57547-0.4057 0.38366-0.63941 0.92385-0.70114 1.6206l4.3392-0.007"/>
  <path id="path3095" style="" d="m333.84 240.13c-0.00001-0.88194-0.18301-1.5654-0.54901-2.0505-0.36161-0.48506-0.87093-0.7276-1.528-0.7276-0.65264 0-1.162 0.24254-1.528 0.7276-0.3616 0.48508-0.5424 1.1686-0.5424 2.0505 0 0.87754 0.1808 1.5588 0.5424 2.0439 0.36601 0.48507 0.87533 0.72761 1.528 0.7276 0.65705 0.00001 1.1664-0.24253 1.528-0.7276 0.366-0.48507 0.549-1.1664 0.54901-2.0439m1.2171 2.8707c0 1.2612-0.28002 2.1982-0.84005 2.8112-0.56004 0.61736-1.4177 0.92604-2.5731 0.92604-0.42775 0-0.83124-0.0331-1.2105-0.0992-0.37924-0.0617-0.74745-0.15875-1.1046-0.29104v-1.184c0.35719 0.19402 0.70997 0.33734 1.0583 0.42995 0.34836 0.0926 0.70335 0.1389 1.065 0.1389 0.79815 0 1.3957-0.20946 1.7926-0.62838 0.39687-0.41452 0.59531-1.0429 0.59532-1.8852v-0.60193c-0.25136 0.43656-0.57327 0.76288-0.96573 0.97896-0.39247 0.21607-0.86211 0.32411-1.4089 0.32411-0.90841 0-1.6404-0.34616-2.196-1.0385-0.55563-0.69233-0.83344-1.6096-0.83344-2.7517 0-1.1465 0.27781-2.066 0.83344-2.7583 0.55562-0.69232 1.2876-1.0385 2.196-1.0385 0.5468 0 1.0164 0.10804 1.4089 0.32411 0.39246 0.21609 0.71437 0.54241 0.96573 0.97896v-1.1245h1.2171v6.4889"/>
  <path id="path3097" style="" d="m340.65 244.6c-0.34396 0.88195-0.6791 1.4574-1.0054 1.7264-0.32632 0.26899-0.76289 0.40349-1.3097 0.40349h-0.97235v-1.0186h0.71438c0.33514 0 0.59531-0.0794 0.78052-0.23812 0.18521-0.15875 0.39026-0.53358 0.61516-1.1245l0.21828-0.55563-2.9964-7.2893h1.2898l2.3151 5.7944 2.3151-5.7944h1.2898l-3.2544 8.0963"/>
  <path id="path3099" style="" d="m351.92 239.91v0.59531h-5.596c0.0529 0.83785 0.30426 1.4773 0.75406 1.9182 0.4542 0.43657 1.0848 0.65485 1.8918 0.65485 0.46742 0 0.91942-0.0573 1.356-0.17198 0.44096-0.11465 0.87753-0.28663 1.3097-0.51594v1.1509c-0.43657 0.18521-0.88416 0.32632-1.3428 0.42333-0.45862 0.097-0.92385 0.14553-1.3957 0.14553-1.1818 0-2.1189-0.34396-2.8112-1.0319-0.68792-0.68792-1.0319-1.6184-1.0319-2.7914 0-1.2127 0.32632-2.174 0.97896-2.884 0.65705-0.71437 1.5412-1.0716 2.6525-1.0716 0.99659 0 1.7837 0.32191 2.3614 0.96573 0.58208 0.63942 0.87312 1.5103 0.87313 2.6128m-1.2171-0.35719c-0.009-0.66587-0.19624-1.1972-0.56224-1.5941-0.3616-0.39687-0.84226-0.59531-1.442-0.59532-0.67911 0.00001-1.2237 0.19183-1.6338 0.57547-0.4057 0.38366-0.63941 0.92385-0.70115 1.6206l4.3392-0.007m-1.1708-6.4691h1.3163l-2.1564 2.4871h-1.012l1.8521-2.4871"/>
  <path id="path3101" style="" d="m359.24 240.22c0-0.89517-0.18521-1.5963-0.55562-2.1034-0.36602-0.51152-0.87093-0.76729-1.5148-0.76729-0.64382 0-1.1509 0.25577-1.5214 0.76729-0.36601 0.50712-0.54902 1.2083-0.54901 2.1034-0.00001 0.89518 0.183 1.5985 0.54901 2.1101 0.37041 0.50712 0.87753 0.76068 1.5214 0.76068 0.64382 0 1.1487-0.25356 1.5148-0.76068 0.37041-0.51153 0.55562-1.2149 0.55562-2.1101m-4.1407-2.5863c0.25576-0.44096 0.57767-0.76728 0.96573-0.97896 0.39246-0.21607 0.85989-0.32411 1.4023-0.32411 0.89958 0 1.6294 0.35719 2.1894 1.0716 0.56444 0.71438 0.84667 1.6537 0.84667 2.8178 0 1.1642-0.28223 2.1034-0.84667 2.8178-0.56004 0.71438-1.2898 1.0716-2.1894 1.0716-0.5424 0-1.0098-0.10584-1.4023-0.3175-0.38806-0.21608-0.70997-0.54461-0.96573-0.98558v1.1112h-1.2237v-10.292h1.2237v4.0084"/>
 </g>
 <g id="g72" transform="translate(-.64183 -6.0847)">
  <path id="path74" d="m343.41 147.1c45 35-27.565 116.16-71.611 112.16" stroke="#000" stroke-width="2" fill="none"/>
  <path id="polygon76" d="m261.84 258.35 9.688 3.894 0.543-5.976z"/>
  <path id="polygon78" d="m261.84 258.35 9.688 3.894 0.543-5.976z" stroke="#000" stroke-width="2" fill="none"/>
 </g>
 <g id="g80" transform="translate(-.64183 -6.0847)">
  <path id="path82" d="m290.25 100.25c-30.25-40.25 69.75-40.25 54.44-9.825" stroke="#000" stroke-width="2" fill="none"/>
  <path id="polygon84" d="m340.2 99.358 7.175-7.5847-5.36-2.6967z"/>
  <path id="polygon86" d="m340.2 99.358 7.175-7.5847-5.36-2.6967z" stroke="#000" stroke-width="2" fill="none"/>
 </g>
 <g id="text88">
  <path id="path3108" style="" d="m312.63 47.623h1.2171v10.292h-1.2171v-10.292"/>
 </g>
 <g id="g92" transform="translate(-.64183 -6.0847)">
  <path id="path94" d="m249.75 279.75c30.25 40.25-69.75 40.25-54.44 9.82" stroke="#000" stroke-width="2" fill="none"/>
  <path id="polygon96" d="m199.8 280.64-7.175 7.585 5.36 2.697z"/>
  <path id="polygon98" d="m199.8 280.64-7.175 7.585 5.36 2.697z" stroke="#000" stroke-width="2" fill="none"/>
 </g>
 <g id="text100">
  <path id="path3113" style="" d="m266.97 289.91v0.59531h-5.596c0.0529 0.83785 0.30427 1.4773 0.75406 1.9182 0.4542 0.43657 1.0848 0.65485 1.8918 0.65485 0.46742 0 0.91942-0.0573 1.356-0.17198 0.44097-0.11465 0.87753-0.28663 1.3097-0.51594v1.1509c-0.43657 0.18521-0.88416 0.32632-1.3428 0.42334-0.45862 0.097-0.92385 0.14552-1.3957 0.14552-1.1818 0-2.1189-0.34396-2.8112-1.0319-0.68792-0.68792-1.0319-1.6184-1.0319-2.7914 0-1.2127 0.32632-2.174 0.97897-2.884 0.65704-0.71437 1.5412-1.0716 2.6524-1.0716 0.99659 0.00001 1.7837 0.32192 2.3614 0.96573 0.58208 0.63942 0.87312 1.5103 0.87313 2.6128m-1.2171-0.35719c-0.009-0.66587-0.19624-1.1972-0.56224-1.5941-0.3616-0.39687-0.84226-0.59531-1.442-0.59531-0.6791 0-1.2237 0.19182-1.6338 0.57547-0.4057 0.38365-0.63941 0.92384-0.70114 1.6206l4.3392-0.007"/>
  <path id="path3115" style="" d="m273.84 290.13c-0.00001-0.88194-0.18301-1.5654-0.54901-2.0505-0.36161-0.48506-0.87093-0.7276-1.528-0.7276-0.65264 0-1.162 0.24254-1.528 0.7276-0.3616 0.48508-0.5424 1.1686-0.5424 2.0505 0 0.87754 0.1808 1.5588 0.5424 2.0439 0.36601 0.48507 0.87533 0.72761 1.528 0.7276 0.65705 0.00001 1.1664-0.24253 1.528-0.7276 0.366-0.48507 0.549-1.1664 0.54901-2.0439m1.2171 2.8707c0 1.2612-0.28002 2.1982-0.84005 2.8112-0.56004 0.61736-1.4177 0.92604-2.5731 0.92604-0.42775 0-0.83124-0.0331-1.2105-0.0992-0.37924-0.0617-0.74745-0.15875-1.1046-0.29104v-1.184c0.35719 0.19402 0.70997 0.33734 1.0583 0.42995 0.34836 0.0926 0.70335 0.1389 1.065 0.1389 0.79815 0 1.3957-0.20946 1.7926-0.62838 0.39687-0.41452 0.59531-1.0429 0.59532-1.8852v-0.60193c-0.25136 0.43656-0.57327 0.76288-0.96573 0.97896-0.39247 0.21607-0.86211 0.32411-1.4089 0.32411-0.90841 0-1.6404-0.34616-2.196-1.0385-0.55563-0.69233-0.83344-1.6096-0.83344-2.7517 0-1.1465 0.27781-2.066 0.83344-2.7583 0.55562-0.69232 1.2876-1.0385 2.196-1.0385 0.5468 0.00001 1.0164 0.10804 1.4089 0.32411 0.39246 0.21609 0.71437 0.54241 0.96573 0.97896v-1.1245h1.2171v6.4889"/>
  <path id="path3117" style="" d="m280.65 294.6c-0.34396 0.88195-0.6791 1.4574-1.0054 1.7264-0.32632 0.26899-0.76289 0.40349-1.3097 0.40349h-0.97235v-1.0186h0.71438c0.33514 0 0.59531-0.0794 0.78052-0.23812 0.18521-0.15875 0.39026-0.53358 0.61516-1.1245l0.21828-0.55563-2.9964-7.2893h1.2898l2.3151 5.7944 2.3151-5.7944h1.2898l-3.2544 8.0963"/>
  <path id="path3119" style="" d="m291.92 289.91v0.59531h-5.596c0.0529 0.83785 0.30426 1.4773 0.75406 1.9182 0.4542 0.43657 1.0848 0.65485 1.8918 0.65485 0.46742 0 0.91942-0.0573 1.356-0.17198 0.44096-0.11465 0.87753-0.28663 1.3097-0.51594v1.1509c-0.43657 0.18521-0.88416 0.32632-1.3428 0.42334-0.45862 0.097-0.92385 0.14552-1.3957 0.14552-1.1818 0-2.1189-0.34396-2.8112-1.0319-0.68792-0.68792-1.0319-1.6184-1.0319-2.7914 0-1.2127 0.32632-2.174 0.97896-2.884 0.65705-0.71437 1.5412-1.0716 2.6525-1.0716 0.99659 0.00001 1.7837 0.32192 2.3614 0.96573 0.58208 0.63942 0.87312 1.5103 0.87313 2.6128m-1.2171-0.35719c-0.009-0.66587-0.19624-1.1972-0.56224-1.5941-0.3616-0.39687-0.84226-0.59531-1.442-0.59531-0.67911 0-1.2237 0.19182-1.6338 0.57547-0.4057 0.38365-0.63941 0.92384-0.70115 1.6206l4.3392-0.007m-1.1708-6.4691h1.3163l-2.1564 2.4871h-1.012l1.8521-2.4871"/>
  <path id="path3121" style="" d="m299.24 290.22c0-0.89517-0.18521-1.5963-0.55562-2.1034-0.36602-0.51152-0.87093-0.76729-1.5148-0.76729-0.64382 0-1.1509 0.25577-1.5214 0.76729-0.36601 0.50712-0.54902 1.2083-0.54901 2.1034-0.00001 0.89518 0.183 1.5985 0.54901 2.1101 0.37041 0.50712 0.87753 0.76068 1.5214 0.76068 0.64382 0 1.1487-0.25356 1.5148-0.76068 0.37041-0.51153 0.55562-1.2149 0.55562-2.1101m-4.1407-2.5863c0.25576-0.44096 0.57767-0.76728 0.96573-0.97896 0.39246-0.21607 0.85989-0.3241 1.4023-0.32411 0.89958 0.00001 1.6294 0.35719 2.1894 1.0716 0.56444 0.71439 0.84667 1.6537 0.84667 2.8178 0 1.1642-0.28223 2.1034-0.84667 2.8178-0.56004 0.71438-1.2898 1.0716-2.1894 1.0716-0.5424 0-1.0098-0.10584-1.4023-0.3175-0.38806-0.21608-0.70997-0.54461-0.96573-0.98558v1.1112h-1.2237v-10.292h1.2237v4.0084"/>
 </g>
 <g id="g104" transform="translate(-.64183 -6.0847)">
  <path id="ellipse106" fill="#7babe3" d="m260 255c0 19.33-15.67 35-35 35s-35-15.67-35-35 15.67-35 35-35 35 15.67 35 35z"/>
  <path id="ellipse108" d="m260 255c0 19.33-15.67 35-35 35s-35-15.67-35-35 15.67-35 35-35 35 15.67 35 35z" stroke="#000" stroke-width="2" fill="none"/>
  <g id="text110">
   <path id="path3126" style="" d="m215.16 255.41c-0.98338 0-1.6647 0.11245-2.0439 0.33734-0.37923 0.2249-0.56885 0.60855-0.56885 1.1509 0 0.43216 0.14111 0.77612 0.42333 1.0319 0.28663 0.25135 0.67469 0.37703 1.1642 0.37703 0.67469 0 1.2149-0.23812 1.6206-0.71438 0.4101-0.48065 0.61515-1.1179 0.61516-1.9116v-0.27119h-1.2105m2.4276-0.50271v4.2267h-1.2171v-1.1245c-0.27782 0.4498-0.62398 0.78273-1.0385 0.99881-0.41452 0.21167-0.92164 0.3175-1.5214 0.3175-0.75848 0-1.3626-0.21167-1.8124-0.635-0.44539-0.42775-0.66808-0.99881-0.66808-1.7132 0-0.83344 0.27782-1.4618 0.83344-1.8852 0.56004-0.42333 1.3935-0.635 2.5003-0.63501h1.7066v-0.11906c-0.00001-0.56003-0.18522-0.99218-0.55563-1.2965-0.36601-0.30868-0.88195-0.46302-1.5478-0.46302-0.42334 0-0.83565 0.0507-1.2369 0.15213-0.40129 0.10143-0.78714 0.25357-1.1576 0.45641v-1.1245c0.44538-0.17197 0.87753-0.29986 1.2965-0.38365 0.41892-0.0882 0.82682-0.13228 1.2237-0.13229 1.0716 0.00001 1.8719 0.27782 2.4011 0.83344 0.52916 0.55563 0.79375 1.3979 0.79375 2.5268"/>
   <path id="path3128" style="" d="m220.1 248.84h1.2171v10.292h-1.2171v-10.292"/>
   <path id="path3130" style="" d="m227.22 255.41c-0.98338 0-1.6647 0.11245-2.0439 0.33734-0.37924 0.2249-0.56885 0.60855-0.56885 1.1509 0 0.43216 0.14111 0.77612 0.42333 1.0319 0.28663 0.25135 0.67469 0.37703 1.1642 0.37703 0.67469 0 1.2149-0.23812 1.6206-0.71438 0.4101-0.48065 0.61515-1.1179 0.61516-1.9116v-0.27119h-1.2105m2.4276-0.50271v4.2267h-1.2171v-1.1245c-0.27782 0.4498-0.62399 0.78273-1.0385 0.99881-0.41451 0.21167-0.92163 0.3175-1.5214 0.3175-0.75848 0-1.3626-0.21167-1.8124-0.635-0.44539-0.42775-0.66808-0.99881-0.66808-1.7132 0-0.83344 0.27781-1.4618 0.83344-1.8852 0.56004-0.42333 1.3935-0.635 2.5003-0.63501h1.7066v-0.11906c-0.00001-0.56003-0.18522-0.99218-0.55563-1.2965-0.36601-0.30868-0.88195-0.46302-1.5478-0.46302-0.42333 0-0.83564 0.0507-1.2369 0.15213-0.40128 0.10143-0.78713 0.25357-1.1576 0.45641v-1.1245c0.44538-0.17197 0.87753-0.29986 1.2965-0.38365 0.41892-0.0882 0.82682-0.13228 1.2237-0.13229 1.0716 0.00001 1.8719 0.27782 2.4011 0.83344 0.52916 0.55563 0.79375 1.3979 0.79375 2.5268"/>
   <path id="path3132" style="" d="m233.34 258.02v3.9291h-1.2237v-10.226h1.2237v1.1245c0.25576-0.44097 0.57767-0.76729 0.96573-0.97896 0.39246-0.21607 0.8599-0.32411 1.4023-0.32412 0.89958 0.00001 1.6294 0.3572 2.1894 1.0716 0.56444 0.71438 0.84666 1.6536 0.84667 2.8178-0.00001 1.1642-0.28223 2.1034-0.84667 2.8178-0.56004 0.71438-1.2898 1.0716-2.1894 1.0716-0.5424 0-1.0098-0.10583-1.4023-0.3175-0.38806-0.21608-0.70997-0.5446-0.96573-0.98558m4.1407-2.5863c-0.00001-0.89517-0.18522-1.5963-0.55563-2.1034-0.36601-0.51152-0.87092-0.76729-1.5147-0.76729-0.64382 0-1.1509 0.25577-1.5214 0.76729-0.36601 0.50713-0.54901 1.2083-0.54901 2.1034 0 0.89518 0.183 1.5985 0.54901 2.1101 0.37042 0.50712 0.87754 0.76068 1.5214 0.76068 0.64382 0 1.1487-0.25356 1.5147-0.76068 0.37041-0.51153 0.55562-1.2149 0.55563-2.1101"/>
  </g>
 </g>
 <g id="g114" transform="translate(-.64183 -6.0847)">
  <path id="ellipse116" fill="#7babe3" d="m170 125c0 19.33-15.67 35-35 35s-35-15.67-35-35 15.67-35 35-35 35 15.67 35 35z"/>
  <path id="ellipse118" d="m170 125c0 19.33-15.67 35-35 35s-35-15.67-35-35 15.67-35 35-35 35 15.67 35 35z" stroke="#000" stroke-width="2" fill="none"/>
  <g id="text120">
   <path id="path3137" style="" d="m118.32 118.84h1.2171v10.292h-1.2171v-10.292"/>
   <path id="path3139" style="" d="m127.71 131.38v0.94589h-7.0379v-0.94589h7.0379"/>
   <path id="path3141" style="" d="m127.98 121.72h1.2898l2.3151 6.2177 2.3151-6.2177h1.2898l-2.7781 7.4084h-1.6536l-2.7781-7.4084"/>
   <path id="path3143" style="" d="m139.74 122.58c-0.65265 0-1.1686 0.25577-1.5478 0.76729-0.37924 0.50713-0.56886 1.2039-0.56885 2.0902-0.00001 0.88636 0.18741 1.5853 0.56224 2.0968 0.37923 0.50712 0.89737 0.76068 1.5544 0.76068 0.64822 0 1.162-0.25576 1.5412-0.76729 0.37923-0.51153 0.56885-1.2083 0.56885-2.0902 0-0.87753-0.18962-1.5721-0.56885-2.0836-0.37924-0.51594-0.89298-0.77391-1.5412-0.77391m0-1.0319c1.0583 0.00001 1.8896 0.34397 2.4937 1.0319 0.60413 0.68792 0.90619 1.6404 0.9062 2.8575-0.00001 1.2127-0.30207 2.1652-0.9062 2.8575-0.60414 0.68792-1.4354 1.0319-2.4937 1.0319-1.0628 0-1.8962-0.34396-2.5003-1.0319-0.59973-0.69233-0.89959-1.6448-0.89959-2.8575 0-1.2171 0.29986-2.1696 0.89959-2.8575 0.60413-0.68791 1.4376-1.0319 2.5003-1.0319"/>
   <path id="path3145" style="" d="m145.15 118.84h1.2171v10.292h-1.2171v-10.292"/>
   <path id="path3147" style="" d="m150.11 119.62v2.1034h2.5069v0.94589h-2.5069v4.0217c0 0.60413 0.0816 0.99219 0.24474 1.1642 0.16757 0.17198 0.50491 0.25797 1.012 0.25797h1.2502v1.0186h-1.2502c-0.93927 0-1.5875-0.17419-1.9447-0.52256-0.35719-0.35278-0.53578-0.99219-0.53578-1.9182v-4.0217h-0.89297v-0.94589h0.89297v-2.1034h1.2237"/>
  </g>
 </g>
 <g id="g124" transform="translate(-.64183 -6.0847)">
  <path id="ellipse126" fill="#7babe3" d="m350 125c0 19.33-15.67 35-35 35s-35-15.67-35-35 15.67-35 35-35 35 15.67 35 35z"/>
  <path id="ellipse128" d="m350 125c0 19.33-15.67 35-35 35s-35-15.67-35-35 15.67-35 35-35 35 15.67 35 35z" stroke="#000" stroke-width="2" fill="none"/>
  <g id="text130">
   <path id="path3152" style="" d="m296.45 118.84h1.2171v10.292h-1.2171v-10.292"/>
   <path id="path3154" style="" d="m300.2 118.84h1.2171v10.292h-1.2171v-10.292"/>
   <path id="path3156" style="" d="m309.59 131.38v0.94589h-7.0379v-0.94589h7.0379"/>
   <path id="path3158" style="" d="m309.86 121.72h1.2898l2.3151 6.2177 2.3151-6.2177h1.2898l-2.7781 7.4084h-1.6536l-2.7781-7.4084"/>
   <path id="path3160" style="" d="m321.62 122.58c-0.65264 0-1.1686 0.25577-1.5478 0.76729-0.37924 0.50713-0.56886 1.2039-0.56886 2.0902 0 0.88636 0.18741 1.5853 0.56224 2.0968 0.37924 0.50712 0.89738 0.76068 1.5544 0.76068 0.64823 0 1.162-0.25576 1.5412-0.76729 0.37924-0.51153 0.56885-1.2083 0.56886-2.0902-0.00001-0.87753-0.18962-1.5721-0.56886-2.0836-0.37924-0.51594-0.89297-0.77391-1.5412-0.77391m0-1.0319c1.0583 0.00001 1.8896 0.34397 2.4937 1.0319 0.60412 0.68792 0.90619 1.6404 0.9062 2.8575-0.00001 1.2127-0.30208 2.1652-0.9062 2.8575-0.60414 0.68792-1.4354 1.0319-2.4937 1.0319-1.0628 0-1.8962-0.34396-2.5003-1.0319-0.59972-0.69233-0.89958-1.6448-0.89958-2.8575 0-1.2171 0.29986-2.1696 0.89958-2.8575 0.60414-0.68791 1.4376-1.0319 2.5003-1.0319"/>
   <path id="path3162" style="" d="m327.03 118.84h1.2171v10.292h-1.2171v-10.292"/>
   <path id="path3164" style="" d="m331.99 119.62v2.1034h2.5069v0.94589h-2.5069v4.0217c0 0.60413 0.0816 0.99219 0.24474 1.1642 0.16757 0.17198 0.50491 0.25797 1.012 0.25797h1.2502v1.0186h-1.2502c-0.93927 0-1.5875-0.17419-1.9447-0.52256-0.35719-0.35278-0.53578-0.99219-0.53578-1.9182v-4.0217h-0.89297v-0.94589h0.89297v-2.1034h1.2237"/>
  </g>
 </g>
 <g id="g134" transform="translate(-.64183 -6.0847)">
  <path id="path136" d="m100 300c20 0 48.556-2.531 83.941-22.189" stroke="#000" stroke-width="2" fill="none"/>
  <path id="polygon138" d="m192.68 272.95-10.198 2.234 2.914 5.245z"/>
  <path id="polygon140" d="m192.68 272.95-10.198 2.234 2.914 5.245z" stroke="#000" stroke-width="2" fill="none"/>
 </g>
</svg>
