<?xml version="1.0" encoding="UTF-8" standalone="no"?>
<!-- Created with Inkscape (http://www.inkscape.org/) -->
<svg id="svg2" xmlns:rdf="http://www.w3.org/1999/02/22-rdf-syntax-ns#" xmlns="http://www.w3.org/2000/svg" height="302.84" width="458.73" version="1.1" xmlns:cc="http://creativecommons.org/ns#" xmlns:dc="http://purl.org/dc/elements/1.1/" viewBox="138 138 242 155.74424">
 <metadata id="metadata68">
  <rdf:RDF>
   <cc:Work rdf:about="">
    <dc:format>image/svg+xml</dc:format>
    <dc:type rdf:resource="http://purl.org/dc/dcmitype/StillImage"/>
   </cc:Work>
  </rdf:RDF>
 </metadata>
 <g id="g4" transform="translate(-1 -5.2469)">
  <path id="rect6" fill="#fdfd04" d="m140 160h90v50h-90z"/>
  <path id="rect8" d="m140 160h90v50h-90z" stroke="#000" stroke-width="2" fill="none"/>
  <g id="text10">
   <path id="path3015" style="" d="m162.67 181.18h1.4199v8.643h-1.4199v-8.643m0-3.3646h1.4199v1.7981h-1.4199v-1.7981"/>
   <path id="path3017" style="" d="m178.31 181.51v1.3273c-0.40129-0.22122-0.80515-0.38584-1.2116-0.49389-0.40129-0.11317-0.80772-0.16977-1.2193-0.16977-0.92089 0-1.636 0.29325-2.1453 0.87973-0.50932 0.58136-0.76398 1.3994-0.76398 2.454 0 1.0547 0.25466 1.8752 0.76398 2.4617 0.50932 0.58135 1.2244 0.87202 2.1453 0.87202 0.41157 0 0.818-0.054 1.2193-0.16206 0.40642-0.11318 0.81028-0.28038 1.2116-0.5016v1.3119c-0.39615 0.1852-0.80772 0.32411-1.2347 0.41671-0.42187 0.0926-0.87203 0.13891-1.3505 0.13891-1.3016 0-2.3357-0.409-3.1022-1.227-0.76655-0.818-1.1498-1.9215-1.1498-3.3106 0-1.4096 0.38585-2.5183 1.1576-3.326 0.77684-0.8077 1.8392-1.2116 3.1871-1.2116 0.43729 0 0.8643 0.0463 1.281 0.1389 0.41671 0.0875 0.82057 0.22123 1.2116 0.40129"/>
   <path id="path3019" style="" d="m182.58 177.18h1.5357l-2.5157 2.9016h-1.1807l2.1608-2.9016m-1.7826 3.9974h1.4199v8.643h-1.4199v-8.643m0.70996-0.20835"/>
   <path id="path3021" style="" d="m191.91 182.84c0.35497-0.63793 0.77941-1.1087 1.2733-1.4122 0.49388-0.30353 1.0752-0.4553 1.744-0.4553 0.90031 0 1.5948 0.3164 2.0836 0.94919 0.48873 0.62765 0.7331 1.5228 0.73312 2.6855v5.2167h-1.4276v-5.1704c-0.00001-0.82828-0.14663-1.4431-0.43987-1.8444-0.29325-0.40128-0.74084-0.60192-1.3428-0.60193-0.7357 0.00001-1.317 0.24438-1.744 0.73312-0.42702 0.48875-0.64052 1.155-0.64051 1.9987v4.8849h-1.4276v-5.1704c-0.00001-0.83343-0.14663-1.4482-0.43987-1.8444-0.29325-0.40128-0.74598-0.60192-1.3582-0.60193-0.7254 0.00001-1.3016 0.24696-1.7286 0.74084-0.42701 0.48875-0.64052 1.1524-0.64051 1.991v4.8849h-1.4276v-8.643h1.4276v1.3428c0.32411-0.52989 0.71253-0.92088 1.1653-1.173 0.45273-0.25208 0.99034-0.37813 1.6128-0.37813 0.62765 0 1.1601 0.15949 1.5974 0.47845 0.44243 0.31898 0.76912 0.782 0.98006 1.3891"/>
   <path id="path3023" style="" d="m207.97 185.15v0.69453h-6.5286c0.0617 0.97749 0.35498 1.7235 0.87974 2.2379 0.5299 0.50932 1.2656 0.76398 2.2071 0.76398 0.54533 0 1.0727-0.0669 1.582-0.20064 0.51446-0.13376 1.0238-0.33441 1.528-0.60193v1.3428c-0.50933 0.21607-1.0315 0.3807-1.5666 0.49389-0.53505 0.11318-1.0778 0.16977-1.6283 0.16977-1.3788 0-2.472-0.40128-3.2797-1.2038-0.80257-0.80257-1.2038-1.8881-1.2038-3.2566 0-1.4148 0.3807-2.5363 1.1421-3.3646 0.76656-0.83343 1.7981-1.2502 3.0945-1.2502 1.1627 0 2.081 0.37556 2.755 1.1267 0.67908 0.74598 1.0186 1.762 1.0186 3.0482m-1.4199-0.41672c-0.0103-0.77684-0.22894-1.3968-0.65594-1.8598-0.42187-0.46302-0.98264-0.69453-1.6823-0.69453-0.79228 0-1.4276 0.2238-1.9061 0.67138-0.47332 0.44759-0.74598 1.0778-0.81801 1.8907l5.0624-0.008"/>
  </g>
 </g>
 <g id="g14" transform="translate(-1 -5.2469)">
  <path id="rect16" fill="#7babe3" d="m290 170h90v30h-90z"/>
  <path id="rect18" d="m290 170h90v30h-90z" stroke="#000" stroke-width="2" fill="none"/>
  <g id="text20">
   <path id="path3028" style="" d="m314.24 189.01h2.9104v-10.045l-3.1662 0.635v-1.6228l3.1485-0.635h1.7815v11.668h2.9104v1.4993h-7.5847v-1.4993"/>
   <path id="path3030" style="" d="m326.97 189.01h6.2177v1.4993h-8.3608v-1.4993c0.67616-0.69968 1.5963-1.6375 2.7605-2.8134 1.17-1.1818 1.905-1.9432 2.2048-2.2842 0.57032-0.64088 0.9672-1.1818 1.1906-1.6228 0.2293-0.44684 0.34395-0.88487 0.34396-1.3141-0.00001-0.69966-0.24696-1.27-0.74084-1.711-0.48801-0.44096-1.126-0.66144-1.9138-0.66145-0.55857 0.00001-1.1495 0.097-1.7727 0.29104-0.61736 0.19404-1.2788 0.48802-1.9844 0.88194v-1.7992c0.71731-0.28809 1.3876-0.50564 2.0108-0.65264 0.62323-0.14698 1.1936-0.22047 1.711-0.22049 1.3641 0.00002 2.4518 0.34103 3.2632 1.0231 0.81138 0.68204 1.2171 1.5934 1.2171 2.734-0.00001 0.54094-0.1029 1.0554-0.30868 1.5434-0.19992 0.48214-0.56739 1.0525-1.1024 1.711-0.147 0.17052-0.61443 0.66441-1.4023 1.4817-0.78787 0.81139-1.8991 1.9491-3.3337 3.4131"/>
   <path id="path3032" style="" d="m342.33 183.41c0.85254 0.18227 1.5169 0.56151 1.9932 1.1377 0.48212 0.57621 0.72318 1.2876 0.7232 2.1343-0.00002 1.2994-0.44687 2.3048-1.3406 3.0162-0.89371 0.71144-2.1637 1.0672-3.81 1.0672-0.55269-0.00001-1.123-0.0559-1.711-0.16757-0.58209-0.10584-1.1848-0.26753-1.808-0.48507v-1.7198c0.49389 0.2881 1.0348 0.50565 1.6228 0.65264 0.58796 0.14699 1.2024 0.22048 1.8433 0.22048 1.1171 0 1.9667-0.22048 2.5488-0.66146 0.58795-0.44097 0.88193-1.0818 0.88194-1.9226-0.00001-0.77611-0.27341-1.3817-0.82021-1.8168-0.54093-0.44096-1.2965-0.66145-2.2666-0.66145h-1.5346v-1.464h1.6051c0.87606 0.00001 1.5463-0.17344 2.0108-0.52035 0.46449-0.35276 0.69673-0.85841 0.69674-1.5169-0.00001-0.67614-0.24107-1.1936-0.72319-1.5522-0.47626-0.36452-1.1612-0.54679-2.0549-0.5468-0.48802 0.00001-1.0113 0.0529-1.5699 0.15875-0.55857 0.10584-1.173 0.27047-1.8433 0.49388v-1.5875c0.67615-0.18814 1.3082-0.32925 1.8962-0.42334 0.59384-0.0941 1.1524-0.14109 1.6757-0.14111 1.3523 0.00002 2.4224 0.3087 3.2103 0.92604 0.78786 0.6115 1.1818 1.4405 1.1818 2.4871 0 0.72909-0.20873 1.3464-0.62617 1.8521-0.41747 0.49978-1.0113 0.84668-1.7815 1.0407"/>
   <path id="path3034" style="" d="m353.33 178.9-4.4979 7.0291h4.4979v-7.0291m-0.46743-1.5522h2.2401v8.5813h1.8785v1.4817h-1.8785v3.1044h-1.7727v-3.1044h-5.9443v-1.7198l5.4769-8.3432"/>
  </g>
 </g>
 <g id="text24">
  <path id="path3037" style="" d="m290.7 149.84h1.6228v9.8778h-1.6228v-9.8778m0-3.8453h1.6228v2.0549h-1.6228v-2.0549"/>
  <path id="path3039" style="" d="m303.92 153.75v5.9619h-1.6228v-5.909c-0.00001-0.93485-0.18228-1.6345-0.54681-2.099-0.36454-0.46449-0.91135-0.69673-1.6404-0.69674-0.87607 0.00001-1.5669 0.27929-2.0726 0.83785-0.50565 0.55857-0.75847 1.32-0.75847 2.2842v5.5827h-1.6316v-9.8778h1.6316v1.5346c0.38805-0.59384 0.84372-1.0378 1.367-1.3317 0.52916-0.29397 1.1377-0.44096 1.8256-0.44097 1.1348 0.00001 1.9932 0.35279 2.5753 1.0583 0.58207 0.69969 0.87311 1.7316 0.87312 3.0956"/>
  <path id="path3041" style="" d="m308.78 147.03v2.8046h3.3426v1.2612h-3.3426v5.3622c0 0.80551 0.10877 1.3229 0.32632 1.5522 0.22342 0.22931 0.67321 0.34396 1.3494 0.34396h1.6669v1.3582h-1.6669c-1.2524 0-2.1167-0.23224-2.5929-0.69673-0.47625-0.47037-0.71438-1.3229-0.71437-2.5576v-5.3622h-1.1906v-1.2612h1.1906v-2.8046h1.6316"/>
  <path id="path3043" style="" d="m320.02 149.84h1.6228v9.8778h-1.6228v-9.8778m0-3.8453h1.6228v2.0549h-1.6228v-2.0549"/>
 </g>
 <g id="text30">
  <path id="path3046" style="" d="m140.7 139.84h1.6228v9.8778h-1.6228v-9.8778m0-3.8453h1.6228v2.0549h-1.6228v-2.0549"/>
  <path id="path3048" style="" d="m153.92 143.75v5.9619h-1.6228v-5.909c-0.00001-0.93485-0.18228-1.6345-0.54681-2.099-0.36454-0.46449-0.91135-0.69673-1.6404-0.69674-0.87607 0.00001-1.5669 0.27929-2.0726 0.83785-0.50565 0.55857-0.75847 1.32-0.75847 2.2842v5.5827h-1.6316v-9.8778h1.6316v1.5346c0.38805-0.59384 0.84372-1.0378 1.367-1.3317 0.52916-0.29397 1.1377-0.44096 1.8256-0.44097 1.1348 0.00001 1.9932 0.35279 2.5753 1.0583 0.58207 0.69969 0.87311 1.7316 0.87312 3.0956"/>
  <path id="path3050" style="" d="m158.78 137.03v2.8046h3.3426v1.2612h-3.3426v5.3622c0 0.80551 0.10877 1.3229 0.32632 1.5522 0.22342 0.22931 0.67321 0.34396 1.3494 0.34396h1.6669v1.3582h-1.6669c-1.2524 0-2.1167-0.23224-2.5929-0.69673-0.47625-0.47037-0.71438-1.3229-0.71437-2.5576v-5.3622h-1.1906v-1.2612h1.1906v-2.8046h1.6316"/>
  <path id="path3052" style="" d="m176.81 138.72-3.1662 1.711 3.1662 1.7198-0.51152 0.8643-2.9633-1.7903v3.3249h-1.0054v-3.3249l-2.9633 1.7903-0.51153-0.8643 3.1662-1.7198-3.1662-1.711 0.51153-0.87313 2.9633 1.7904v-3.3249h1.0054v3.3249l2.9633-1.7904 0.51152 0.87313"/>
  <path id="path3054" style="" d="m180.62 148.23v5.2387h-1.6316v-13.635h1.6316v1.4993c0.34101-0.58795 0.77022-1.023 1.2876-1.3053 0.52329-0.28809 1.1465-0.43214 1.8697-0.43215 1.1994 0.00001 2.1725 0.47626 2.9192 1.4288 0.75258 0.95251 1.1289 2.2049 1.1289 3.7571-0.00001 1.5522-0.3763 2.8046-1.1289 3.7571-0.74672 0.9525-1.7198 1.4288-2.9192 1.4288-0.72319 0-1.3464-0.14112-1.8697-0.42334-0.51741-0.2881-0.94662-0.72613-1.2876-1.3141m5.521-3.4484c-0.00001-1.1936-0.24695-2.1284-0.74083-2.8046-0.48802-0.68203-1.1612-1.023-2.0196-1.0231-0.85843 0.00001-1.5346 0.34103-2.0285 1.0231-0.48801 0.67616-0.73202 1.611-0.73201 2.8046-0.00001 1.1936 0.244 2.1314 0.73201 2.8134 0.49388 0.67616 1.17 1.0142 2.0285 1.0142 0.85842 0 1.5316-0.33807 2.0196-1.0142 0.49388-0.68204 0.74082-1.6198 0.74083-2.8134"/>
  <path id="path3056" style="" d="m192.12 137.03v2.8046h3.3426v1.2612h-3.3426v5.3622c0 0.80551 0.10877 1.3229 0.32632 1.5522 0.22342 0.22931 0.67321 0.34396 1.3494 0.34396h1.6669v1.3582h-1.6669c-1.2524 0-2.1167-0.23224-2.5929-0.69673-0.47625-0.47037-0.71437-1.3229-0.71437-2.5576v-5.3622h-1.1906v-1.2612h1.1906v-2.8046h1.6316"/>
  <path id="path3058" style="" d="m203.33 141.35c-0.18227-0.10583-0.38218-0.18226-0.59972-0.22931-0.21167-0.0529-0.44686-0.0794-0.70555-0.0794-0.91723 0.00001-1.6228 0.29987-2.1167 0.89958-0.48801 0.59385-0.73201 1.4493-0.73201 2.5665v5.2035h-1.6316v-9.8778h1.6316v1.5346c0.34101-0.59972 0.78492-1.0436 1.3317-1.3317 0.5468-0.29397 1.2112-0.44096 1.9932-0.44097 0.11171 0.00001 0.23518 0.009 0.37042 0.0265 0.13523 0.0118 0.28516 0.0324 0.44979 0.0617l0.009 1.6669"/>
 </g>
 <g id="g36" transform="translate(-1 -5.2469)">
  <path id="line38" d="m230 185h50.264" stroke="#000" stroke-width="2" fill="none"/>
  <path id="polygon40" d="m280.26 185-2.5-5 10 5-10 5z"/>
  <path id="polygon42" d="m280.26 185-2.5-5 10 5-10 5z" stroke="#000" stroke-width="2" fill="none"/>
 </g>
 <g id="g44" transform="translate(-1 -5.2469)">
  <path id="rect46" fill="#fdfd04" d="m140 250h90v50h-90z"/>
  <path id="rect48" d="m140 250h90v50h-90z" stroke="#000" stroke-width="2" fill="none"/>
 </g>
 <g id="text54">
  <path id="path3067" style="" d="m140.7 229.84h1.6228v9.8778h-1.6228v-9.8778m0-3.8453h1.6228v2.0549h-1.6228v-2.0549"/>
  <path id="path3069" style="" d="m153.92 233.75v5.9619h-1.6228v-5.909c-0.00001-0.93485-0.18228-1.6345-0.54681-2.099-0.36454-0.46449-0.91135-0.69673-1.6404-0.69674-0.87607 0.00001-1.5669 0.27929-2.0726 0.83785-0.50565 0.55857-0.75847 1.32-0.75847 2.2842v5.5827h-1.6316v-9.8778h1.6316v1.5346c0.38805-0.59384 0.84372-1.0378 1.367-1.3317 0.52916-0.29397 1.1377-0.44096 1.8256-0.44097 1.1348 0.00001 1.9932 0.35279 2.5753 1.0583 0.58207 0.69969 0.87311 1.7316 0.87312 3.0956"/>
  <path id="path3071" style="" d="m158.78 227.03v2.8046h3.3426v1.2612h-3.3426v5.3622c0 0.80551 0.10877 1.3229 0.32632 1.5522 0.22342 0.22931 0.67321 0.34396 1.3494 0.34396h1.6669v1.3582h-1.6669c-1.2524 0-2.1167-0.23224-2.5929-0.69673-0.47625-0.47037-0.71438-1.3229-0.71437-2.5576v-5.3622h-1.1906v-1.2612h1.1906v-2.8046h1.6316"/>
  <path id="path3073" style="" d="m176.81 228.72-3.1662 1.711 3.1662 1.7198-0.51152 0.8643-2.9633-1.7903v3.3249h-1.0054v-3.3249l-2.9633 1.7903-0.51153-0.8643 3.1662-1.7198-3.1662-1.711 0.51153-0.87313 2.9633 1.7904v-3.3249h1.0054v3.3249l2.9633-1.7904 0.51152 0.87313"/>
  <path id="path3075" style="" d="m180.62 238.23v5.2387h-1.6316v-13.635h1.6316v1.4993c0.34101-0.58795 0.77022-1.023 1.2876-1.3053 0.52329-0.28809 1.1465-0.43214 1.8697-0.43215 1.1994 0.00001 2.1725 0.47626 2.9192 1.4288 0.75258 0.95251 1.1289 2.2049 1.1289 3.7571-0.00001 1.5522-0.3763 2.8046-1.1289 3.7571-0.74672 0.9525-1.7198 1.4288-2.9192 1.4288-0.72319 0-1.3464-0.14112-1.8697-0.42334-0.51741-0.2881-0.94662-0.72613-1.2876-1.3141m5.521-3.4484c-0.00001-1.1936-0.24695-2.1284-0.74083-2.8046-0.48802-0.68203-1.1612-1.023-2.0196-1.0231-0.85843 0.00001-1.5346 0.34103-2.0285 1.0231-0.48801 0.67616-0.73202 1.611-0.73201 2.8046-0.00001 1.1936 0.244 2.1314 0.73201 2.8134 0.49388 0.67616 1.17 1.0142 2.0285 1.0142 0.85842 0 1.5316-0.33807 2.0196-1.0142 0.49388-0.68204 0.74082-1.6198 0.74083-2.8134"/>
  <path id="path3077" style="" d="m192.12 227.03v2.8046h3.3426v1.2612h-3.3426v5.3622c0 0.80551 0.10877 1.3229 0.32632 1.5522 0.22342 0.22931 0.67321 0.34396 1.3494 0.34396h1.6669v1.3582h-1.6669c-1.2524 0-2.1167-0.23224-2.5929-0.69673-0.47625-0.47037-0.71437-1.3229-0.71437-2.5576v-5.3622h-1.1906v-1.2612h1.1906v-2.8046h1.6316"/>
  <path id="path3079" style="" d="m203.33 231.35c-0.18227-0.10583-0.38218-0.18226-0.59972-0.22931-0.21167-0.0529-0.44686-0.0794-0.70555-0.0794-0.91723 0.00001-1.6228 0.29987-2.1167 0.89958-0.48801 0.59385-0.73201 1.4493-0.73201 2.5665v5.2035h-1.6316v-9.8778h1.6316v1.5346c0.34101-0.59972 0.78492-1.0436 1.3317-1.3317 0.5468-0.29397 1.2112-0.44096 1.9932-0.44097 0.11171 0.00001 0.23518 0.009 0.37042 0.0265 0.13523 0.0118 0.28516 0.0324 0.44979 0.0617l0.009 1.6669"/>
 </g>
 <path id="line60" d="m139 244.75 90 50" stroke="#000" stroke-width="2" fill="none"/>
 <path id="line62" d="m229 244.75-90 50" stroke="#000" stroke-width="2" fill="none"/>
</svg>
