<?xml version="1.0" encoding="UTF-8" standalone="no"?>
<!-- Created with Inkscape (http://www.inkscape.org/) -->
<svg id="svg2" xmlns:rdf="http://www.w3.org/1999/02/22-rdf-syntax-ns#" xmlns="http://www.w3.org/2000/svg" height="306" width="845.36" version="1.1" xmlns:cc="http://creativecommons.org/ns#" xmlns:dc="http://purl.org/dc/elements/1.1/" viewBox="-36 98 475.17129 166.00278">
 <metadata id="metadata124">
  <rdf:RDF>
   <cc:Work rdf:about="">
    <dc:format>image/svg+xml</dc:format>
    <dc:type rdf:resource="http://purl.org/dc/dcmitype/StillImage"/>
   </cc:Work>
  </rdf:RDF>
 </metadata>
 <g id="g4" transform="translate(-1.8287 -3.9986)">
  <path id="path6" d="m140 230h30.264" stroke="#f62e2e" stroke-width="2" fill="none"/>
  <path id="polygon8" fill="#f62e2e" d="m170.26 230-2.5-5 10 5-10 5z"/>
  <path id="polygon10" d="m170.26 230-2.5-5 10 5-10 5z" stroke="#f62e2e" stroke-width="2" fill="none"/>
 </g>
 <g id="g12" transform="translate(-1.8287 -3.9986)">
  <path id="rect14" fill="#7babe3" d="m280 100h60v60h-60z"/>
  <path id="rect16" d="m280 100h60v60h-60z" stroke="#000" stroke-width="2" fill="none"/>
 </g>
 <g id="g18" transform="translate(-1.8287 -3.9986)">
  <path id="rect20" fill="#7babe3" d="m380 100h60v60h-60z"/>
  <path id="rect22" d="m380 100h60v60h-60z" stroke="#000" stroke-width="2" fill="none"/>
 </g>
 <g id="g24" transform="translate(-1.8287 -3.9986)">
  <path id="rect26" fill="#fdfd04" d="m120 120h20v20h-20z"/>
  <path id="rect28" d="m120 120h20v20h-20z" stroke="#000" stroke-width="2" fill="none"/>
 </g>
 <g id="g30" transform="translate(-1.8287 -3.9986)">
  <path id="path32" d="m340 160c40 0 0-30 30.264-30" stroke="#000" stroke-width="2" fill="none"/>
  <path id="polygon34" d="m370.26 130-2.5-5 10 5-10 5z"/>
  <path id="polygon36" d="m370.26 130-2.5-5 10 5-10 5z" stroke="#000" stroke-width="2" fill="none"/>
 </g>
 <g id="g38" transform="translate(-1.8287 -3.9986)">
  <path id="rect40" fill="#fdfd04" d="m380 150h60v20h-60z"/>
  <path id="rect42" d="m380 150h60v20h-60z" stroke="#000" stroke-width="2" fill="none"/>
 </g>
 <path id="line44" d="m378.17 146 60 20" stroke="#000" stroke-width="2" fill="none"/>
 <path id="line46" d="m378.17 166 60-20" stroke="#000" stroke-width="2" fill="none"/>
 <g id="text48" fill="#173b8f">
  <path id="path3055" style="" d="m238.16 148.55c-0.78787 1.3523-1.3729 2.6899-1.7551 4.0128-0.38218 1.3229-0.57326 2.6635-0.57326 4.0217s0.19108 2.7046 0.57326 4.0393c0.38805 1.3288 0.97308 2.6664 1.7551 4.0128h-1.4111c-0.88195-1.3817-1.5434-2.7399-1.9844-4.0746-0.4351-1.3347-0.65264-2.6605-0.65264-3.9776 0-1.3112 0.21754-2.6311 0.65264-3.9599 0.43509-1.3288 1.0965-2.687 1.9844-4.0746h1.4111"/>
  <path id="path3057" style="" d="m243.08 160.75h6.2177v1.4993h-8.3608v-1.4993c0.67616-0.69967 1.5963-1.6375 2.7605-2.8134 1.17-1.1818 1.905-1.9432 2.2049-2.2842 0.57032-0.64087 0.96719-1.1818 1.1906-1.6228 0.22929-0.44685 0.34395-0.88488 0.34395-1.3141 0-0.69966-0.24695-1.27-0.74083-1.711-0.48801-0.44096-1.126-0.66145-1.9138-0.66146-0.55856 0.00001-1.1495 0.097-1.7727 0.29104-0.61736 0.19404-1.2788 0.48802-1.9844 0.88195v-1.7992c0.71731-0.28809 1.3876-0.50563 2.0108-0.65264 0.62323-0.14697 1.1936-0.22047 1.711-0.22048 1.3641 0.00001 2.4518 0.34103 3.2632 1.023 0.81138 0.68205 1.2171 1.5934 1.2171 2.734-0.00001 0.54093-0.1029 1.0554-0.30868 1.5434-0.19992 0.48214-0.56739 1.0525-1.1024 1.711-0.147 0.17051-0.61443 0.6644-1.4023 1.4817-0.78788 0.8114-1.8991 1.9491-3.3338 3.4131"/>
  <path id="path3059" style="" d="m252.56 148.55h1.4111c0.88193 1.3876 1.5404 2.7458 1.9756 4.0746 0.44096 1.3288 0.66145 2.6488 0.66146 3.9599-0.00001 1.317-0.2205 2.6429-0.66146 3.9776-0.4351 1.3347-1.0936 2.6929-1.9756 4.0746h-1.4111c0.78198-1.3464 1.3641-2.684 1.7462-4.0128 0.38806-1.3347 0.58208-2.6811 0.58209-4.0393-0.00001-1.3582-0.19403-2.6987-0.58209-4.0217-0.38217-1.3229-0.96426-2.6605-1.7462-4.0128"/>
 </g>
 <g id="g52" transform="translate(-1.8287 -3.9986)">
  <path id="path54" d="m140 130h130.26" stroke="#000" stroke-width="2" fill="none"/>
  <path id="polygon56" d="m270.26 130-2.5-5 10 5-10 5z"/>
  <path id="polygon58" d="m270.26 130-2.5-5 10 5-10 5z" stroke="#000" stroke-width="2" fill="none"/>
 </g>
 <g id="text60">
  <path id="path3064" style="" d="m-36 119.08h1.7815v11.668h6.4117v1.4993h-8.1933v-13.167"/>
  <path id="path3066" style="" d="m-26.016 122.37h1.6228v9.8778h-1.6228v-9.8778m0-3.8453h1.6228v2.0549h-1.6228v-2.0549"/>
  <path id="path3068" style="" d="m-14.71 122.66v1.5346c-0.45862-0.23518-0.93487-0.41157-1.4287-0.52917-0.49389-0.11758-1.0054-0.17638-1.5346-0.17639-0.80551 0.00001-1.4111 0.12348-1.8168 0.37042-0.39982 0.24695-0.59972 0.61737-0.59972 1.1112-0.000003 0.3763 0.14405 0.67322 0.43215 0.89076 0.2881 0.21167 0.86724 0.41452 1.7374 0.60854l0.55562 0.12347c1.1524 0.24695 1.9697 0.59679 2.4518 1.0495 0.488 0.44686 0.732 1.073 0.73201 1.8785-0.000008 0.91723-0.36454 1.6434-1.0936 2.1784-0.7232 0.53505-1.7198 0.80257-2.9898 0.80257-0.52917 0-1.0819-0.0529-1.6581-0.15875-0.57033-0.1-1.173-0.25282-1.808-0.45861v-1.6757c0.59972 0.31162 1.1906 0.54681 1.7727 0.70555 0.58208 0.15288 1.1583 0.22931 1.7286 0.22931 0.76435 0 1.3523-0.12935 1.7639-0.38806 0.41157-0.26458 0.61735-0.63499 0.61736-1.1112-0.000006-0.44097-0.14994-0.77905-0.44979-1.0142-0.29399-0.23518-0.94368-0.46155-1.9491-0.6791l-0.56444-0.13229c-1.0054-0.21166-1.7316-0.53504-2.1784-0.97013-0.44685-0.44097-0.67028-1.0436-0.67028-1.808-0.000001-0.92897 0.32926-1.6463 0.98778-2.1519 0.65852-0.50564 1.5934-0.75846 2.8046-0.75847 0.59972 0.00001 1.1642 0.0441 1.6933 0.13229 0.52916 0.0882 1.0172 0.2205 1.464 0.39687"/>
  <path id="path3070" style="" d="m-9.9827 119.57v2.8046h3.3426v1.2612h-3.3426v5.3622c-0.0000033 0.80551 0.10877 1.3229 0.32632 1.5522 0.22342 0.2293 0.67321 0.34396 1.3494 0.34396h1.6669v1.3582h-1.6669c-1.2524 0-2.1167-0.23225-2.5929-0.69674-0.47625-0.47037-0.71438-1.3229-0.71438-2.5576v-5.3622h-1.1906v-1.2612h1.1906v-2.8046h1.6316"/>
  <path id="path3072" style="" d="m-0.0078893 127.29c-1.3112 0-2.2196 0.14993-2.7252 0.44979-0.50565 0.29986-0.75847 0.81139-0.75847 1.5346-0.0000027 0.57621 0.18814 1.0348 0.56444 1.3758 0.38217 0.33514 0.89958 0.50271 1.5522 0.50271 0.89958 0 1.6198-0.3175 2.1608-0.9525 0.5468-0.64088 0.8202-1.4905 0.82021-2.5488v-0.36159h-1.614m3.2367-0.67028v5.6356h-1.6228v-1.4993c-0.37042 0.59973-0.83197 1.0436-1.3847 1.3317-0.55269 0.28222-1.2288 0.42333-2.0285 0.42333-1.0113 0-1.8168-0.28222-2.4165-0.84666-0.59384-0.57033-0.89076-1.3317-0.89076-2.2842-0.000001-1.1112 0.37041-1.9491 1.1112-2.5135 0.74671-0.56443 1.858-0.84665 3.3337-0.84666h2.2754v-0.15875c-0.0000078-0.74671-0.24695-1.3229-0.74083-1.7286-0.48802-0.41157-1.1759-0.61735-2.0637-0.61736-0.56445 0.00001-1.1142 0.0676-1.6492 0.20285-0.53505 0.13524-1.0495 0.33808-1.5434 0.60854v-1.4993c0.59384-0.22929 1.17-0.3998 1.7286-0.51152 0.55856-0.11759 1.1024-0.17638 1.6316-0.17639 1.4287 0.00001 2.4959 0.37042 3.2015 1.1112 0.70555 0.74084 1.0583 1.8638 1.0583 3.369"/>
  <path id="path3074" style="" d="m6.6508 119.08h8.3255v1.4993h-6.544v3.8982h6.2706v1.4993h-6.2706v4.7713h6.7028v1.4993h-8.4843v-13.167"/>
  <path id="path3076" style="" d="m18.01 118.53h1.6228v13.723h-1.6228v-13.723"/>
  <path id="path3078" style="" d="m31.469 126.91v0.79375h-7.4612c0.07055 1.1171 0.40569 1.9697 1.0054 2.5576 0.6056 0.58208 1.4464 0.87312 2.5224 0.87312 0.62323 0 1.2259-0.0764 1.808-0.2293 0.58795-0.15287 1.17-0.38218 1.7462-0.68792v1.5346c-0.58209 0.24695-1.1789 0.43509-1.7903 0.56444-0.61149 0.12936-1.2318 0.19403-1.8609 0.19403-1.5757 0-2.8252-0.45861-3.7483-1.3758-0.91722-0.91722-1.3758-2.1578-1.3758-3.7218-0.000001-1.6169 0.43509-2.8986 1.3053-3.8453 0.87606-0.95249 2.0549-1.4287 3.5366-1.4288 1.3288 0.00001 2.3783 0.42922 3.1485 1.2876 0.7761 0.85255 1.1642 2.0138 1.1642 3.4837m-1.6228-0.47625c-0.01177-0.88781-0.26165-1.5963-0.74965-2.1255-0.48214-0.52916-1.123-0.79374-1.9226-0.79375-0.90547 0.00001-1.6316 0.25577-2.1784 0.76729-0.54093 0.51153-0.85255 1.2318-0.93486 2.1608l5.7855-0.009"/>
  <path id="path3080" style="" d="m41.823 124.27c0.40568-0.72906 0.89075-1.267 1.4552-1.614 0.56443-0.34688 1.2288-0.52033 1.9932-0.52034 1.0289 0.00001 1.8227 0.3616 2.3812 1.0848 0.55855 0.71732 0.83783 1.7404 0.83785 3.0692v5.9619h-1.6316v-5.909c-0.000014-0.94661-0.16758-1.6492-0.50271-2.1078-0.33515-0.4586-0.84668-0.6879-1.5346-0.68791-0.8408 0.00001-1.5052 0.27929-1.9932 0.83784-0.48802 0.55857-0.73202 1.32-0.73201 2.2842v5.5827h-1.6316v-5.909c-0.000008-0.95249-0.16758-1.6551-0.50271-2.1078-0.33515-0.4586-0.85255-0.6879-1.5522-0.68791-0.82903 0.00001-1.4875 0.28223-1.9756 0.84666-0.48801 0.55857-0.73202 1.317-0.73201 2.2754v5.5827h-1.6316v-9.8778h1.6316v1.5346c0.37041-0.60559 0.81432-1.0524 1.3317-1.3406 0.5174-0.28809 1.1318-0.43214 1.8433-0.43215 0.71731 0.00001 1.3258 0.18228 1.8256 0.5468 0.50564 0.36455 0.879 0.89371 1.1201 1.5875"/>
  <path id="path3082" style="" d="m64.277 121.25-3.1662 1.711 3.1662 1.7198-0.51153 0.86431-2.9633-1.7904v3.3249h-1.0054v-3.3249l-2.9633 1.7904-0.51153-0.86431 3.1662-1.7198-3.1662-1.711 0.51153-0.87312 2.9633 1.7904v-3.3249h1.0054v3.3249l2.9633-1.7904 0.51153 0.87312"/>
  <path id="path3084" style="" d="m74.966 126.91v0.79375h-7.4612c0.07055 1.1171 0.40569 1.9697 1.0054 2.5576 0.6056 0.58208 1.4464 0.87312 2.5224 0.87312 0.62323 0 1.2259-0.0764 1.808-0.2293 0.58795-0.15287 1.17-0.38218 1.7462-0.68792v1.5346c-0.58209 0.24695-1.1789 0.43509-1.7903 0.56444-0.61149 0.12936-1.2318 0.19403-1.8609 0.19403-1.5757 0-2.8252-0.45861-3.7483-1.3758-0.91722-0.91722-1.3758-2.1578-1.3758-3.7218-0.000001-1.6169 0.43509-2.8986 1.3053-3.8453 0.87606-0.95249 2.0549-1.4287 3.5366-1.4288 1.3288 0.00001 2.3783 0.42922 3.1485 1.2876 0.7761 0.85255 1.1642 2.0138 1.1642 3.4837m-1.6228-0.47625c-0.01177-0.88781-0.26165-1.5963-0.74965-2.1255-0.48214-0.52916-1.123-0.79374-1.9226-0.79375-0.90547 0.00001-1.6316 0.25577-2.1784 0.76729-0.54093 0.51153-0.85255 1.2318-0.93486 2.1608l5.7855-0.009"/>
  <path id="path3086" style="" d="m77.63 118.53h1.6228v13.723h-1.6228v-13.723"/>
  <path id="path3088" style="" d="m91.088 126.91v0.79375h-7.4612c0.07055 1.1171 0.40569 1.9697 1.0054 2.5576 0.6056 0.58208 1.4464 0.87312 2.5224 0.87312 0.62323 0 1.2259-0.0764 1.808-0.2293 0.58795-0.15287 1.17-0.38218 1.7462-0.68792v1.5346c-0.58209 0.24695-1.1789 0.43509-1.7903 0.56444-0.61149 0.12936-1.2318 0.19403-1.8609 0.19403-1.5757 0-2.8252-0.45861-3.7483-1.3758-0.91722-0.91722-1.3758-2.1578-1.3758-3.7218-0.000001-1.6169 0.43509-2.8986 1.3053-3.8453 0.87606-0.95249 2.0549-1.4287 3.5366-1.4288 1.3288 0.00001 2.3783 0.42922 3.1485 1.2876 0.7761 0.85255 1.1642 2.0138 1.1642 3.4837m-1.6228-0.47625c-0.01177-0.88781-0.26165-1.5963-0.74965-2.1255-0.48214-0.52916-1.123-0.79374-1.9226-0.79375-0.90547 0.00001-1.6316 0.25577-2.1784 0.76729-0.54093 0.51153-0.85255 1.2318-0.93486 2.1608l5.7855-0.009"/>
  <path id="path3090" style="" d="m93.752 122.37h1.6228v10.054c-0.000003 1.2582-0.24107 2.1696-0.72319 2.734-0.47625 0.56444-1.2465 0.84666-2.3107 0.84667h-0.61736v-1.3758h0.43215c0.61736-0.00001 1.0378-0.14406 1.2612-0.43216 0.22342-0.28222 0.33514-0.87312 0.33514-1.7727v-10.054m0-3.8453h1.6228v2.0549h-1.6228v-2.0549"/>
  <path id="path3092" style="" d="m107.21 126.91v0.79375h-7.4612c0.07055 1.1171 0.40569 1.9697 1.0054 2.5576 0.60559 0.58208 1.4464 0.87312 2.5224 0.87312 0.62324 0 1.2259-0.0764 1.808-0.2293 0.58795-0.15287 1.17-0.38218 1.7462-0.68792v1.5346c-0.5821 0.24695-1.1789 0.43509-1.7904 0.56444-0.61149 0.12936-1.2318 0.19403-1.8609 0.19403-1.5757 0-2.8252-0.45861-3.7483-1.3758-0.91722-0.91722-1.3758-2.1578-1.3758-3.7218-0.000001-1.6169 0.43509-2.8986 1.3053-3.8453 0.87606-0.95249 2.0549-1.4287 3.5366-1.4288 1.3288 0.00001 2.3783 0.42922 3.1485 1.2876 0.7761 0.85255 1.1642 2.0138 1.1642 3.4837m-1.6228-0.47625c-0.0118-0.88781-0.26166-1.5963-0.74966-2.1255-0.48213-0.52916-1.123-0.79374-1.9226-0.79375-0.90547 0.00001-1.6316 0.25577-2.1784 0.76729-0.54093 0.51153-0.85255 1.2318-0.93486 2.1608l5.7856-0.009"/>
 </g>
 <g id="g64" transform="translate(-1.8287 -3.9986)">
  <path id="path66" d="m240 260c40 0-1.982-77.33 31.161-101.58" stroke="#f62e2e" stroke-width="2" fill="none"/>
  <path id="polygon68" fill="#f62e2e" d="m271.16 158.42-4.97-2.559 11.023-1.87-5.118 9.94z"/>
  <path id="polygon70" d="m271.16 158.42-4.97-2.559 11.023-1.87-5.118 9.94z" stroke="#f62e2e" stroke-width="2" fill="none"/>
 </g>
 <g id="g72" transform="translate(-1.8287 -3.9986)">
  <path id="path74" d="m171.3 200.97c-32.211-24.158 9.609-32.793-30.391-62.793" stroke="#f62e2e" stroke-width="2" fill="none"/>
  <path id="polygon76" fill="#f62e2e" d="m171.3 200.97 1-5.5 5 10-11-2z"/>
  <path id="polygon78" d="m171.3 200.97 1-5.5 5 10-11-2z" stroke="#f62e2e" stroke-width="2" fill="none"/>
 </g>
 <g id="text80" fill="#173b8f">
  <path id="path3099" style="" d="m150.97 238c-0.78787 1.3523-1.3729 2.6899-1.7551 4.0128-0.38218 1.3229-0.57327 2.6635-0.57327 4.0217s0.19109 2.7046 0.57327 4.0393c0.38805 1.3288 0.97307 2.6664 1.7551 4.0128h-1.4111c-0.88194-1.3817-1.5434-2.7399-1.9844-4.0746-0.43509-1.3347-0.65264-2.6605-0.65264-3.9776 0-1.3112 0.21755-2.6311 0.65264-3.9599s1.0966-2.687 1.9844-4.0746h1.4111"/>
  <path id="path3101" style="" d="m154.66 250.2h2.9104v-10.045l-3.1662 0.635v-1.6228l3.1485-0.635h1.7815v11.668h2.9104v1.4993h-7.5847v-1.4993"/>
  <path id="path3103" style="" d="m165.37 238h1.4111c0.88194 1.3876 1.5404 2.7458 1.9756 4.0746 0.44097 1.3288 0.66145 2.6488 0.66146 3.9599-0.00001 1.317-0.22049 2.6429-0.66146 3.9776-0.4351 1.3347-1.0936 2.6929-1.9756 4.0746h-1.4111c0.78199-1.3464 1.3641-2.684 1.7462-4.0128 0.38805-1.3347 0.58208-2.6811 0.58208-4.0393s-0.19403-2.6987-0.58208-4.0217c-0.38218-1.3229-0.96426-2.6605-1.7462-4.0128"/>
 </g>
 <g id="text84" fill="#173b8f">
  <path id="path3106" style="" d="m163.77 148.55c-0.78787 1.3523-1.3729 2.6899-1.7551 4.0128-0.38218 1.3229-0.57326 2.6635-0.57326 4.0217s0.19108 2.7046 0.57326 4.0393c0.38805 1.3288 0.97308 2.6664 1.7551 4.0128h-1.4111c-0.88195-1.3817-1.5434-2.7399-1.9844-4.0746-0.4351-1.3347-0.65264-2.6605-0.65264-3.9776 0-1.3112 0.21754-2.6311 0.65264-3.9599 0.43509-1.3288 1.0965-2.687 1.9844-4.0746h1.4111"/>
  <path id="path3108" style="" d="m172.56 155.15c0.85253 0.18228 1.5169 0.56151 1.9932 1.1377 0.48212 0.57621 0.72318 1.2876 0.72319 2.1343-0.00001 1.2994-0.44686 2.3048-1.3406 3.0162-0.89371 0.71144-2.1637 1.0672-3.81 1.0672-0.55269 0-1.123-0.0558-1.711-0.16757-0.58208-0.10583-1.1847-0.26752-1.808-0.48507v-1.7198c0.49389 0.28811 1.0348 0.50565 1.6228 0.65264 0.58796 0.14699 1.2024 0.22049 1.8433 0.22049 1.1171 0 1.9667-0.22049 2.5488-0.66146 0.58796-0.44097 0.88194-1.0818 0.88195-1.9226-0.00001-0.7761-0.27341-1.3817-0.82021-1.8168-0.54093-0.44096-1.2965-0.66145-2.2666-0.66146h-1.5346v-1.464h1.6051c0.87606 0.00001 1.5463-0.17344 2.0108-0.52035 0.46448-0.35277 0.69673-0.85842 0.69674-1.5169-0.00001-0.67615-0.24108-1.1936-0.7232-1.5522-0.47625-0.36453-1.1612-0.5468-2.0549-0.54681-0.48801 0.00001-1.0113 0.0529-1.5698 0.15875-0.55857 0.10585-1.173 0.27048-1.8433 0.49389v-1.5875c0.67616-0.18813 1.3082-0.32924 1.8962-0.42333 0.59384-0.0941 1.1524-0.1411 1.6757-0.14111 1.3523 0.00001 2.4224 0.30869 3.2103 0.92604 0.78786 0.61149 1.1818 1.4405 1.1818 2.4871-0.00001 0.72908-0.20873 1.3464-0.62618 1.8521-0.41746 0.49978-1.0113 0.84667-1.7815 1.0407"/>
  <path id="path3110" style="" d="m178.17 148.55h1.4111c0.88194 1.3876 1.5404 2.7458 1.9756 4.0746 0.44097 1.3288 0.66145 2.6488 0.66146 3.9599-0.00001 1.317-0.22049 2.6429-0.66146 3.9776-0.4351 1.3347-1.0936 2.6929-1.9756 4.0746h-1.4111c0.78198-1.3464 1.3641-2.684 1.7462-4.0128 0.38806-1.3347 0.58208-2.6811 0.58209-4.0393-0.00001-1.3582-0.19403-2.6987-0.58209-4.0217-0.38217-1.3229-0.96426-2.6605-1.7462-4.0128"/>
 </g>
 <path id="line88" d="m198.17 116 20 20" stroke="#f62e2e" stroke-width="2" fill="none"/>
 <path id="line90" d="m198.17 136 20-20" stroke="#f62e2e" stroke-width="2" fill="none"/>
 <g id="g92" transform="translate(-1.8287 -3.9986)">
  <path id="rect94" fill="#fdfd04" d="m120 220h20v20h-20z"/>
  <path id="rect96" d="m120 220h20v20h-20z" stroke="#000" stroke-width="2" fill="none"/>
 </g>
 <g id="text98">
  <path id="path3117" style="" d="m-9.1184 219.08h1.7815v11.668h6.4117v1.4993h-8.1933v-13.167"/>
  <path id="path3119" style="" d="m0.86524 222.37h1.6228v9.8778h-1.6228v-9.8778m0-3.8453h1.6228v2.0549h-1.6228v-2.0549"/>
  <path id="path3121" style="" d="m12.172 222.66v1.5346c-0.45862-0.23518-0.93487-0.41157-1.4287-0.52917-0.4939-0.11758-1.0054-0.17638-1.5346-0.17639-0.80551 0.00001-1.4111 0.12348-1.8168 0.37042-0.39982 0.24695-0.59972 0.61737-0.59972 1.1112-0.0000026 0.3763 0.14405 0.67322 0.43215 0.89076 0.2881 0.21167 0.86724 0.41452 1.7374 0.60854l0.55562 0.12347c1.1524 0.24695 1.9697 0.59679 2.4518 1.0495 0.488 0.44686 0.732 1.073 0.73201 1.8785-0.000009 0.91723-0.36454 1.6434-1.0936 2.1784-0.7232 0.53505-1.7198 0.80257-2.9898 0.80257-0.52917 0-1.0819-0.0529-1.6581-0.15875-0.57033-0.1-1.173-0.25282-1.808-0.45861v-1.6757c0.59972 0.31162 1.1906 0.54681 1.7727 0.70555 0.58208 0.15288 1.1583 0.22931 1.7286 0.22931 0.76435 0 1.3523-0.12935 1.7639-0.38806 0.41157-0.26458 0.61735-0.63499 0.61736-1.1112-0.000007-0.44097-0.14994-0.77905-0.44979-1.0142-0.29399-0.23518-0.94369-0.46155-1.9491-0.6791l-0.56444-0.13229c-1.0054-0.21166-1.7316-0.53504-2.1784-0.97013-0.44685-0.44097-0.67028-1.0436-0.67028-1.808-0.0000011-0.92897 0.32926-1.6463 0.98778-2.1519 0.65852-0.50564 1.5934-0.75846 2.8046-0.75847 0.59972 0.00001 1.1642 0.0441 1.6933 0.13229 0.52916 0.0882 1.0172 0.2205 1.464 0.39687"/>
  <path id="path3123" style="" d="m16.899 219.57v2.8046h3.3426v1.2612h-3.3426v5.3622c-0.000003 0.80551 0.10877 1.3229 0.32632 1.5522 0.22342 0.2293 0.67321 0.34396 1.3494 0.34396h1.6669v1.3582h-1.6669c-1.2524 0-2.1167-0.23225-2.5929-0.69674-0.47625-0.47037-0.71438-1.3229-0.71437-2.5576v-5.3622h-1.1906v-1.2612h1.1906v-2.8046h1.6316"/>
  <path id="path3125" style="" d="m26.874 227.29c-1.3112 0-2.2196 0.14993-2.7252 0.44979-0.50565 0.29986-0.75847 0.81139-0.75847 1.5346-0.000003 0.57621 0.18814 1.0348 0.56444 1.3758 0.38217 0.33514 0.89958 0.50271 1.5522 0.50271 0.89958 0 1.6198-0.3175 2.1608-0.9525 0.5468-0.64088 0.8202-1.4905 0.82021-2.5488v-0.36159h-1.614m3.2367-0.67028v5.6356h-1.6228v-1.4993c-0.37042 0.59973-0.83197 1.0436-1.3847 1.3317-0.55269 0.28222-1.2288 0.42333-2.0285 0.42333-1.0113 0-1.8168-0.28222-2.4165-0.84666-0.59384-0.57033-0.89076-1.3317-0.89076-2.2842-0.000001-1.1112 0.37042-1.9491 1.1112-2.5135 0.74671-0.56443 1.858-0.84665 3.3337-0.84666h2.2754v-0.15875c-0.000008-0.74671-0.24695-1.3229-0.74083-1.7286-0.48802-0.41157-1.1759-0.61735-2.0637-0.61736-0.56445 0.00001-1.1142 0.0676-1.6492 0.20285-0.53505 0.13524-1.0495 0.33808-1.5434 0.60854v-1.4993c0.59384-0.22929 1.17-0.3998 1.7286-0.51152 0.55856-0.11759 1.1024-0.17638 1.6316-0.17639 1.4287 0.00001 2.4959 0.37042 3.2015 1.1112 0.70555 0.74084 1.0583 1.8638 1.0583 3.369"/>
  <path id="path3127" style="" d="m33.532 219.08h8.3255v1.4993h-6.544v3.8982h6.2706v1.4993h-6.2706v4.7713h6.7028v1.4993h-8.4843v-13.167"/>
  <path id="path3129" style="" d="m44.892 218.53h1.6228v13.723h-1.6228v-13.723"/>
  <path id="path3131" style="" d="m58.35 226.91v0.79375h-7.4612c0.07055 1.1171 0.40569 1.9697 1.0054 2.5576 0.6056 0.58208 1.4464 0.87312 2.5224 0.87312 0.62323 0 1.2259-0.0764 1.808-0.2293 0.58795-0.15287 1.17-0.38218 1.7462-0.68792v1.5346c-0.58209 0.24695-1.1789 0.43509-1.7903 0.56444-0.61149 0.12936-1.2318 0.19403-1.8609 0.19403-1.5757 0-2.8252-0.45861-3.7483-1.3758-0.91722-0.91722-1.3758-2.1578-1.3758-3.7218-0.000001-1.6169 0.43509-2.8986 1.3053-3.8453 0.87606-0.95249 2.0549-1.4287 3.5366-1.4288 1.3288 0.00001 2.3783 0.42922 3.1485 1.2876 0.7761 0.85255 1.1642 2.0138 1.1642 3.4837m-1.6228-0.47625c-0.01177-0.88781-0.26165-1.5963-0.74965-2.1255-0.48214-0.52916-1.123-0.79374-1.9226-0.79375-0.90547 0.00001-1.6316 0.25577-2.1784 0.76729-0.54093 0.51153-0.85255 1.2318-0.93486 2.1608l5.7855-0.009"/>
  <path id="path3133" style="" d="m68.704 224.27c0.40568-0.72906 0.89075-1.267 1.4552-1.614 0.56443-0.34688 1.2288-0.52033 1.9932-0.52034 1.0289 0.00001 1.8227 0.3616 2.3812 1.0848 0.55855 0.71732 0.83783 1.7404 0.83785 3.0692v5.9619h-1.6316v-5.909c-0.000014-0.94661-0.16758-1.6492-0.50271-2.1078-0.33515-0.4586-0.84668-0.6879-1.5346-0.68791-0.8408 0.00001-1.5052 0.27929-1.9932 0.83784-0.48802 0.55857-0.73202 1.32-0.73201 2.2842v5.5827h-1.6316v-5.909c-0.000008-0.95249-0.16758-1.6551-0.50271-2.1078-0.33515-0.4586-0.85255-0.6879-1.5522-0.68791-0.82903 0.00001-1.4875 0.28223-1.9756 0.84666-0.48801 0.55857-0.73202 1.317-0.73201 2.2754v5.5827h-1.6316v-9.8778h1.6316v1.5346c0.37041-0.60559 0.81432-1.0524 1.3317-1.3406 0.5174-0.28809 1.1318-0.43214 1.8433-0.43215 0.71731 0.00001 1.3258 0.18228 1.8256 0.5468 0.50564 0.36455 0.87899 0.89371 1.1201 1.5875"/>
  <path id="path3135" style="" d="m91.159 221.25-3.1662 1.711 3.1662 1.7198-0.51153 0.86431-2.9633-1.7904v3.3249h-1.0054v-3.3249l-2.9633 1.7904-0.51153-0.86431 3.1662-1.7198-3.1662-1.711 0.51153-0.87312 2.9633 1.7904v-3.3249h1.0054v3.3249l2.9633-1.7904 0.51153 0.87312"/>
  <path id="path3137" style="" d="m93.231 228.35v-5.9796h1.6228v5.9178c-0.000003 0.93487 0.18226 1.6375 0.5468 2.1078 0.36453 0.46449 0.91134 0.69673 1.6404 0.69673 0.87606 0 1.5669-0.27928 2.0726-0.83784 0.51152-0.55857 0.76728-1.32 0.76729-2.2842v-5.6003h1.6228v9.8778h-1.6228v-1.5169c-0.39394 0.59972-0.85255 1.0466-1.3758 1.3406-0.51741 0.2881-1.1201 0.43215-1.808 0.43215-1.1348 0-1.9961-0.35278-2.5841-1.0583-0.58796-0.70555-0.88194-1.7374-0.88194-3.0956m4.0834-6.2177"/>
  <path id="path3139" style="" d="m104.86 222.37h1.6228v10.054c0 1.2582-0.24106 2.1696-0.72319 2.734-0.47625 0.56444-1.2465 0.84666-2.3107 0.84667h-0.61736v-1.3758h0.43215c0.61736-0.00001 1.0378-0.14406 1.2612-0.43216 0.22342-0.28222 0.33514-0.87312 0.33514-1.7727v-10.054m0-3.8453h1.6228v2.0549h-1.6228v-2.0549"/>
 </g>
 <g id="g102" transform="translate(-1.8287 -3.9986)">
  <path id="rect104" fill="#7be38e" d="m180 200h60v60h-60z"/>
  <path id="rect106" d="m180 200h60v60h-60z" stroke="#000" stroke-width="2" fill="none"/>
 </g>
 <g id="g108" transform="translate(-1.8287 -3.9986)">
  <path id="rect110" fill="#fdfd04" d="m180 250h60v20h-60z"/>
  <path id="rect112" d="m180 250h60v20h-60z" stroke="#000" stroke-width="2" fill="none"/>
 </g>
 <g id="g114" transform="translate(-1.8287 -3.9986)">
  <path id="rect116" fill="#fdfd04" d="m280 150h60v20h-60z"/>
  <path id="rect118" d="m280 150h60v20h-60z" stroke="#000" stroke-width="2" fill="none"/>
 </g>
</svg>
