<?xml version="1.0" encoding="UTF-8" standalone="no"?>
<!-- Created with Inkscape (http://www.inkscape.org/) -->
<svg id="svg2" xmlns:rdf="http://www.w3.org/1999/02/22-rdf-syntax-ns#" xmlns="http://www.w3.org/2000/svg" height="376.24" width="1020.7" version="1.1" xmlns:cc="http://creativecommons.org/ns#" xmlns:dc="http://purl.org/dc/elements/1.1/" viewBox="-36 48 575.14867 205.60905">
 <metadata id="metadata164">
  <rdf:RDF>
   <cc:Work rdf:about="">
    <dc:format>image/svg+xml</dc:format>
    <dc:type rdf:resource="http://purl.org/dc/dcmitype/StillImage"/>
   </cc:Work>
  </rdf:RDF>
 </metadata>
 <g id="g4" transform="translate(-1.8287 -4.1955)">
  <path id="path6" d="m390 220h40.264" stroke="#f62e2e" stroke-width="2" fill="none"/>
  <path id="polygon8" fill="#f62e2e" d="m430.26 220-2.5-5 10 5-10 5z"/>
  <path id="polygon10" d="m430.26 220-2.5-5 10 5-10 5z" stroke="#f62e2e" stroke-width="2" fill="none"/>
 </g>
 <g id="g12" transform="translate(-1.8287 -4.1955)">
  <path id="rect14" fill="#7babe3" d="m280 100h60v60h-60z"/>
  <path id="rect16" d="m280 100h60v60h-60z" stroke="#000" stroke-width="2" fill="none"/>
 </g>
 <g id="g18" transform="translate(-1.8287 -4.1955)">
  <path id="rect20" fill="#7babe3" d="m380 100h60v60h-60z"/>
  <path id="rect22" d="m380 100h60v60h-60z" stroke="#000" stroke-width="2" fill="none"/>
 </g>
 <g id="text24" fill="#173b8f">
  <path id="path3067" style="" d="m433.77 48.349c-0.78788 1.3523-1.3729 2.6899-1.7551 4.0128-0.38218 1.3229-0.57327 2.6635-0.57326 4.0217-0.00001 1.3582 0.19108 2.7046 0.57326 4.0393 0.38805 1.3288 0.97307 2.6664 1.7551 4.0128h-1.4111c-0.88195-1.3817-1.5434-2.7399-1.9844-4.0746-0.43509-1.3347-0.65264-2.6605-0.65263-3.9776-0.00001-1.3111 0.21754-2.6311 0.65263-3.9599s1.0966-2.687 1.9844-4.0746h1.4111"/>
  <path id="path3069" style="" d="m437.47 60.555h2.9104v-10.045l-3.1662 0.635v-1.6228l3.1485-0.635h1.7815v11.668h2.9104v1.4993h-7.5847v-1.4993"/>
  <path id="path3071" style="" d="m448.17 48.349h1.4111c0.88194 1.3876 1.5405 2.7458 1.9756 4.0746 0.44097 1.3288 0.66146 2.6488 0.66146 3.9599 0 1.317-0.22049 2.6429-0.66146 3.9776-0.43509 1.3347-1.0936 2.6929-1.9756 4.0746h-1.4111c0.78199-1.3464 1.3641-2.684 1.7462-4.0128 0.38805-1.3347 0.58208-2.6811 0.58208-4.0393s-0.19403-2.6987-0.58208-4.0217c-0.38218-1.3229-0.96426-2.6605-1.7462-4.0128"/>
 </g>
 <g id="g28" transform="translate(-1.8287 -4.1955)">
  <path id="path30" d="m240 160c40 0 0-30 30.264-30" stroke="#000" stroke-width="2" fill="none"/>
  <path id="polygon32" d="m270.26 130-2.5-5 10 5-10 5z"/>
  <path id="polygon34" d="m270.26 130-2.5-5 10 5-10 5z" stroke="#000" stroke-width="2" fill="none"/>
 </g>
 <g id="g36" transform="translate(-1.8287 -4.1955)">
  <path id="path38" d="m431.2 190.9c-32.21-24.15 38.8-5.9 8.8-30.9" stroke="#f62e2e" stroke-width="2" fill="none"/>
  <path id="polygon40" fill="#f62e2e" d="m431.2 190.9 1-5.5 5 10-11-2z"/>
  <path id="polygon42" d="m431.2 190.9 1-5.5 5 10-11-2z" stroke="#f62e2e" stroke-width="2" fill="none"/>
 </g>
 <g id="text44" fill="#173b8f">
  <path id="path3078" style="" d="m402.97 226.9c-0.78788 1.3523-1.3729 2.6899-1.7551 4.0128-0.38218 1.3229-0.57327 2.6635-0.57326 4.0217-0.00001 1.3582 0.19108 2.7046 0.57326 4.0393 0.38805 1.3288 0.97307 2.6664 1.7551 4.0128h-1.4111c-0.88195-1.3817-1.5434-2.7399-1.9844-4.0746-0.4351-1.3347-0.65264-2.6605-0.65264-3.9776 0-1.3112 0.21754-2.6311 0.65264-3.9599 0.43509-1.3288 1.0965-2.687 1.9844-4.0746h1.4111"/>
  <path id="path3080" style="" d="m407.89 239.11h6.2177v1.4993h-8.3608v-1.4993c0.67615-0.69967 1.5963-1.6375 2.7605-2.8134 1.17-1.1818 1.905-1.9432 2.2049-2.2842 0.57032-0.64088 0.96719-1.1818 1.1906-1.6228 0.2293-0.44684 0.34395-0.88487 0.34396-1.3141-0.00001-0.69966-0.24695-1.27-0.74083-1.711-0.48802-0.44096-1.126-0.66144-1.9138-0.66145-0.55857 0.00001-1.1495 0.097-1.7727 0.29104-0.61737 0.19404-1.2788 0.48802-1.9844 0.88194v-1.7992c0.71732-0.28809 1.3876-0.50564 2.0108-0.65264 0.62324-0.14698 1.1936-0.22047 1.711-0.22049 1.3641 0.00002 2.4518 0.34103 3.2632 1.0231 0.81137 0.68205 1.2171 1.5934 1.2171 2.734-0.00001 0.54094-0.10291 1.0554-0.30868 1.5434-0.19992 0.48214-0.5674 1.0525-1.1024 1.711-0.147 0.17052-0.61443 0.66441-1.4023 1.4817-0.78788 0.81139-1.8991 1.9491-3.3338 3.4131"/>
  <path id="path3082" style="" d="m417.37 226.9h1.4111c0.88194 1.3876 1.5405 2.7458 1.9756 4.0746 0.44096 1.3288 0.66145 2.6488 0.66145 3.9599 0 1.317-0.22049 2.6429-0.66145 3.9776-0.4351 1.3347-1.0936 2.6929-1.9756 4.0746h-1.4111c0.78199-1.3464 1.3641-2.684 1.7462-4.0128 0.38805-1.3347 0.58208-2.6811 0.58208-4.0393s-0.19403-2.6987-0.58208-4.0217c-0.38218-1.3229-0.96426-2.6605-1.7462-4.0128"/>
 </g>
 <g id="text48" fill="#173b8f">
  <path id="path3085" style="" d="m463.77 156.35c-0.78788 1.3523-1.3729 2.6899-1.7551 4.0128-0.38218 1.3229-0.57327 2.6635-0.57326 4.0217-0.00001 1.3582 0.19108 2.7046 0.57326 4.0393 0.38805 1.3288 0.97307 2.6664 1.7551 4.0128h-1.4111c-0.88195-1.3817-1.5434-2.7399-1.9844-4.0746-0.43509-1.3347-0.65264-2.6605-0.65263-3.9776-0.00001-1.3112 0.21754-2.6311 0.65263-3.9599s1.0966-2.687 1.9844-4.0746h1.4111"/>
  <path id="path3087" style="" d="m472.56 162.95c0.85254 0.18227 1.5169 0.56151 1.9932 1.1377 0.48212 0.57621 0.72319 1.2876 0.7232 2.1343-0.00001 1.2994-0.44686 2.3048-1.3406 3.0162-0.89371 0.71144-2.1637 1.0672-3.81 1.0672-0.55269 0-1.123-0.0558-1.711-0.16757-0.58209-0.10583-1.1848-0.26752-1.808-0.48506v-1.7198c0.49389 0.2881 1.0348 0.50564 1.6228 0.65263 0.58796 0.147 1.2024 0.22049 1.8433 0.22049 1.1171 0 1.9667-0.22048 2.5488-0.66146 0.58795-0.44097 0.88193-1.0818 0.88194-1.9226-0.00001-0.77611-0.27341-1.3817-0.82021-1.8168-0.54093-0.44096-1.2965-0.66145-2.2666-0.66146h-1.5346v-1.464h1.6051c0.87606 0.00001 1.5463-0.17344 2.0108-0.52035 0.46448-0.35277 0.69672-0.85841 0.69673-1.5169-0.00001-0.67615-0.24107-1.1936-0.72319-1.5522-0.47626-0.36453-1.1612-0.54679-2.0549-0.54681-0.48801 0.00002-1.0113 0.0529-1.5699 0.15875-0.55857 0.10585-1.173 0.27048-1.8433 0.49389v-1.5875c0.67615-0.18813 1.3082-0.32924 1.8962-0.42333 0.59383-0.0941 1.1524-0.1411 1.6757-0.14111 1.3523 0.00001 2.4224 0.30869 3.2103 0.92604 0.78786 0.61149 1.1818 1.4405 1.1818 2.4871-0.00001 0.72908-0.20874 1.3464-0.62618 1.8521-0.41746 0.49978-1.0113 0.84668-1.7815 1.0407"/>
  <path id="path3089" style="" d="m482.92 165.09c-1.3112 0-2.2196 0.14993-2.7252 0.44979-0.50565 0.29986-0.75847 0.81139-0.75847 1.5346 0 0.57621 0.18815 1.0348 0.56444 1.3758 0.38218 0.33514 0.89958 0.50271 1.5522 0.50271 0.89958 0 1.6198-0.3175 2.1608-0.9525 0.54679-0.64087 0.8202-1.4905 0.8202-2.5488v-0.3616h-1.614m3.2367-0.67028v5.6356h-1.6228v-1.4993c-0.37042 0.59972-0.83197 1.0436-1.3846 1.3317-0.55269 0.28222-1.2288 0.42333-2.0285 0.42333-1.0113 0-1.8168-0.28222-2.4165-0.84666-0.59385-0.57032-0.89077-1.3317-0.89077-2.2842 0-1.1112 0.37042-1.9491 1.1112-2.5135 0.74671-0.56444 1.858-0.84666 3.3338-0.84667h2.2754v-0.15875c0-0.7467-0.24695-1.3229-0.74083-1.7286-0.48801-0.41156-1.1759-0.61735-2.0638-0.61736-0.56444 0.00001-1.1142 0.0676-1.6492 0.20285-0.53505 0.13524-1.0495 0.33808-1.5434 0.60854v-1.4993c0.59384-0.22929 1.17-0.3998 1.7286-0.51152 0.55856-0.11758 1.1024-0.17638 1.6316-0.17639 1.4287 0.00001 2.4959 0.37042 3.2015 1.1112 0.70554 0.74084 1.0583 1.8638 1.0583 3.369"/>
  <path id="path3091" style="" d="m489.25 156.35h1.4111c0.88194 1.3876 1.5405 2.7458 1.9756 4.0746 0.44097 1.3288 0.66145 2.6488 0.66146 3.9599-0.00001 1.317-0.22049 2.6429-0.66146 3.9776-0.43509 1.3347-1.0936 2.6929-1.9756 4.0746h-1.4111c0.78199-1.3464 1.3641-2.684 1.7462-4.0128 0.38805-1.3347 0.58208-2.6811 0.58208-4.0393s-0.19403-2.6987-0.58208-4.0217c-0.38218-1.3229-0.96426-2.6605-1.7462-4.0128"/>
 </g>
 <g id="g52" transform="translate(-1.8287 -4.1955)">
  <path id="rect54" fill="#fdfd04" d="m370 210h20v20h-20z"/>
  <path id="rect56" d="m370 210h20v20h-20z" stroke="#000" stroke-width="2" fill="none"/>
 </g>
 <g id="text58">
  <path id="path3096" style="" d="m240.88 208.89h1.7815v11.668h6.4117v1.4993h-8.1933v-13.167"/>
  <path id="path3098" style="" d="m250.87 212.18h1.6228v9.8778h-1.6228v-9.8778m0-3.8453h1.6228v2.0549h-1.6228v-2.0549"/>
  <path id="path3100" style="" d="m262.17 212.47v1.5346c-0.45862-0.23518-0.93487-0.41157-1.4288-0.52917-0.4939-0.11758-1.0054-0.17638-1.5346-0.17639-0.80551 0.00001-1.4111 0.12348-1.8168 0.37042-0.39981 0.24695-0.59972 0.61737-0.59972 1.1112 0 0.3763 0.14405 0.67322 0.43216 0.89076 0.28809 0.21167 0.86724 0.41452 1.7374 0.60854l0.55563 0.12347c1.1524 0.24695 1.9697 0.59679 2.4518 1.0495 0.488 0.44685 0.732 1.073 0.73201 1.8785-0.00001 0.91723-0.36454 1.6434-1.0936 2.1784-0.7232 0.53505-1.7198 0.80257-2.9898 0.80257-0.52917 0-1.0819-0.0529-1.6581-0.15875-0.57032-0.1-1.173-0.25282-1.808-0.45861v-1.6757c0.59972 0.31162 1.1906 0.54681 1.7727 0.70556 0.58208 0.15287 1.1583 0.2293 1.7286 0.2293 0.76435 0 1.3523-0.12935 1.7639-0.38805 0.41157-0.26459 0.61735-0.635 0.61736-1.1112-0.00001-0.44097-0.14994-0.77905-0.44979-1.0142-0.29399-0.23518-0.94369-0.46154-1.9491-0.67909l-0.56444-0.1323c-1.0054-0.21166-1.7316-0.53504-2.1784-0.97013-0.44685-0.44097-0.67028-1.0436-0.67028-1.808 0-0.92897 0.32926-1.6463 0.98778-2.1519 0.65852-0.50564 1.5934-0.75846 2.8046-0.75847 0.59972 0.00001 1.1642 0.0441 1.6933 0.13229 0.52916 0.0882 1.0172 0.2205 1.464 0.39688"/>
  <path id="path3102" style="" d="m266.9 209.37v2.8046h3.3426v1.2612h-3.3426v5.3622c0 0.80551 0.10877 1.3229 0.32632 1.5522 0.22342 0.22931 0.67322 0.34396 1.3494 0.34396h1.6669v1.3582h-1.6669c-1.2524 0-2.1167-0.23225-2.5929-0.69674-0.47625-0.47036-0.71437-1.3229-0.71437-2.5576v-5.3622h-1.1906v-1.2612h1.1906v-2.8046h1.6316"/>
  <path id="path3104" style="" d="m276.87 217.09c-1.3112 0-2.2196 0.14993-2.7252 0.44979-0.50565 0.29986-0.75848 0.81139-0.75847 1.5346-0.00001 0.57621 0.18814 1.0348 0.56444 1.3758 0.38217 0.33514 0.89958 0.50271 1.5522 0.50271 0.89958 0 1.6198-0.3175 2.1608-0.9525 0.5468-0.64087 0.8202-1.4905 0.82021-2.5488v-0.3616h-1.614m3.2367-0.67028v5.6356h-1.6228v-1.4993c-0.37042 0.59972-0.83197 1.0436-1.3846 1.3317-0.55269 0.28222-1.2288 0.42333-2.0285 0.42333-1.0113 0-1.8168-0.28222-2.4165-0.84666-0.59384-0.57032-0.89076-1.3317-0.89076-2.2842 0-1.1112 0.37042-1.9491 1.1112-2.5135 0.74671-0.56444 1.858-0.84666 3.3338-0.84667h2.2754v-0.15875c-0.00001-0.7467-0.24695-1.3229-0.74083-1.7286-0.48802-0.41156-1.1759-0.61735-2.0638-0.61736-0.56445 0.00001-1.1142 0.0676-1.6492 0.20285-0.53505 0.13524-1.0495 0.33808-1.5434 0.60854v-1.4993c0.59384-0.22929 1.17-0.3998 1.7286-0.51152 0.55856-0.11758 1.1024-0.17638 1.6316-0.17639 1.4287 0.00001 2.4959 0.37042 3.2014 1.1112 0.70555 0.74084 1.0583 1.8638 1.0583 3.369"/>
  <path id="path3106" style="" d="m283.53 208.89h8.3256v1.4993h-6.544v3.8982h6.2706v1.4993h-6.2706v4.7713h6.7028v1.4993h-8.4843v-13.167"/>
  <path id="path3108" style="" d="m294.89 208.33h1.6228v13.723h-1.6228v-13.723"/>
  <path id="path3110" style="" d="m308.35 216.71v0.79375h-7.4612c0.0705 1.1171 0.40569 1.9697 1.0054 2.5576 0.60559 0.58208 1.4464 0.87312 2.5224 0.87312 0.62323 0 1.2259-0.0764 1.808-0.2293 0.58795-0.15287 1.17-0.38218 1.7462-0.68792v1.5346c-0.58209 0.24695-1.1789 0.43509-1.7904 0.56445-0.61149 0.12935-1.2318 0.19402-1.8609 0.19402-1.5757 0-2.8252-0.45861-3.7483-1.3758-0.91722-0.91722-1.3758-2.1578-1.3758-3.7218 0-1.6169 0.43509-2.8986 1.3053-3.8453 0.87606-0.95249 2.0549-1.4287 3.5366-1.4288 1.3288 0.00001 2.3783 0.42922 3.1485 1.2876 0.7761 0.85255 1.1642 2.0138 1.1642 3.4837m-1.6228-0.47625c-0.0118-0.88781-0.26165-1.5963-0.74966-2.1255-0.48213-0.52916-1.123-0.79374-1.9226-0.79375-0.90547 0.00001-1.6316 0.25577-2.1784 0.76729-0.54093 0.51154-0.85255 1.2318-0.93486 2.1608l5.7856-0.009"/>
  <path id="path3112" style="" d="m318.7 214.07c0.40568-0.72906 0.89075-1.267 1.4552-1.614 0.56443-0.34689 1.2288-0.52034 1.9932-0.52035 1.0289 0.00001 1.8227 0.36161 2.3812 1.0848 0.55855 0.71732 0.83783 1.7404 0.83785 3.0692v5.9619h-1.6316v-5.909c-0.00001-0.94661-0.16758-1.6492-0.50271-2.1078-0.33515-0.4586-0.84667-0.6879-1.5346-0.68791-0.84079 0.00001-1.5052 0.27929-1.9932 0.83784-0.48802 0.55858-0.73202 1.32-0.73201 2.2842v5.5827h-1.6316v-5.909c-0.00001-0.95249-0.16757-1.6551-0.50271-2.1078-0.33514-0.4586-0.85255-0.6879-1.5522-0.68791-0.82903 0.00001-1.4875 0.28223-1.9756 0.84666-0.48801 0.55858-0.73202 1.317-0.73201 2.2754v5.5827h-1.6316v-9.8778h1.6316v1.5346c0.37041-0.6056 0.81432-1.0524 1.3317-1.3406 0.5174-0.28809 1.1318-0.43214 1.8433-0.43215 0.71731 0.00001 1.3258 0.18228 1.8256 0.5468 0.50564 0.36455 0.87899 0.89372 1.1201 1.5875"/>
  <path id="path3114" style="" d="m341.16 211.06-3.1662 1.711 3.1662 1.7198-0.51153 0.8643-2.9633-1.7904v3.3249h-1.0054v-3.3249l-2.9633 1.7904-0.51153-0.8643 3.1662-1.7198-3.1662-1.711 0.51153-0.87313 2.9633 1.7904v-3.3249h1.0054v3.3249l2.9633-1.7904 0.51153 0.87313"/>
  <path id="path3116" style="" d="m343.23 218.16v-5.9796h1.6228v5.9178c0 0.93487 0.18226 1.6375 0.5468 2.1078 0.36454 0.46449 0.91134 0.69673 1.6404 0.69673 0.87606 0 1.5669-0.27928 2.0726-0.83784 0.51152-0.55856 0.76728-1.32 0.76729-2.2842v-5.6003h1.6228v9.8778h-1.6228v-1.5169c-0.39395 0.59972-0.85256 1.0466-1.3758 1.3406-0.51742 0.2881-1.1201 0.43215-1.808 0.43215-1.1348 0-1.9961-0.35277-2.5841-1.0583-0.58797-0.70555-0.88195-1.7374-0.88195-3.0956m4.0834-6.2177"/>
  <path id="path3118" style="" d="m354.86 212.18h1.6228v10.054c0 1.2582-0.24107 2.1696-0.72319 2.734-0.47625 0.56444-1.2465 0.84666-2.3107 0.84667h-0.61736v-1.3758h0.43215c0.61736-0.00001 1.0378-0.14406 1.2612-0.43216 0.22342-0.28222 0.33513-0.87312 0.33514-1.7727v-10.054m0-3.8453h1.6228v2.0549h-1.6228v-2.0549"/>
 </g>
 <g id="g62" transform="translate(-1.8287 -4.1955)">
  <path id="rect64" fill="#7be38e" d="m440 190h60v60h-60z"/>
  <path id="rect66" d="m440 190h60v60h-60z" stroke="#000" stroke-width="2" fill="none"/>
 </g>
 <g id="g68" transform="translate(-1.8287 -4.1955)">
  <path id="line70" d="m410 70v20.264" stroke="#000" stroke-width="2" fill="none"/>
  <path id="polygon72" d="m410 90.264 5-2.5-5 10-5-10z"/>
  <path id="polygon74" d="m410 90.264 5-2.5-5 10-5-10z" stroke="#000" stroke-width="2" fill="none"/>
 </g>
 <g id="text76">
  <path id="path3126" style="" d="m226.71 48.887h1.7815v11.668h6.4117v1.4993h-8.1932v-13.167"/>
  <path id="path3128" style="" d="m236.7 52.177h1.6228v9.8778h-1.6228v-9.8778m0-3.8453h1.6228v2.0549h-1.6228v-2.0549"/>
  <path id="path3130" style="" d="m248 52.468v1.5346c-0.45862-0.23518-0.93486-0.41156-1.4288-0.52917-0.49389-0.11758-1.0054-0.17638-1.5346-0.17639-0.80551 0.000008-1.4111 0.12348-1.8168 0.37042-0.39982 0.24695-0.59972 0.61737-0.59972 1.1112 0 0.3763 0.14405 0.67322 0.43215 0.89076 0.2881 0.21167 0.86724 0.41452 1.7374 0.60854l0.55562 0.12347c1.1524 0.24695 1.9697 0.59679 2.4518 1.0495 0.488 0.44686 0.732 1.073 0.73201 1.8785-0.00001 0.91722-0.36455 1.6434-1.0936 2.1784-0.7232 0.53504-1.7198 0.80257-2.9898 0.80257-0.52917 0-1.0818-0.05292-1.658-0.15875-0.57033-0.09995-1.173-0.25282-1.808-0.45861v-1.6757c0.59972 0.31162 1.1906 0.54681 1.7727 0.70556 0.58208 0.15287 1.1583 0.22931 1.7286 0.2293 0.76434 0.000001 1.3523-0.12935 1.7639-0.38806 0.41156-0.26458 0.61735-0.635 0.61736-1.1112-0.00001-0.44097-0.14994-0.77905-0.4498-1.0142-0.29398-0.23518-0.94368-0.46155-1.9491-0.6791l-0.56-0.132c-1.0054-0.21166-1.7316-0.53504-2.1784-0.97014-0.44686-0.44097-0.67028-1.0436-0.67028-1.808 0-0.92897 0.32926-1.6463 0.98778-2.1519 0.65851-0.50564 1.5934-0.75846 2.8046-0.75847 0.59971 0.00001 1.1642 0.04411 1.6933 0.13229 0.52916 0.08821 1.0172 0.2205 1.464 0.39688"/>
  <path id="path3132" style="" d="m252.73 49.372v2.8046h3.3426v1.2612h-3.3426v5.3622c0 0.80551 0.10877 1.3229 0.32632 1.5522 0.22342 0.22931 0.67321 0.34396 1.3494 0.34396h1.6669v1.3582h-1.6669c-1.2524 0-2.1167-0.23224-2.5929-0.69674-0.47625-0.47037-0.71438-1.3229-0.71438-2.5576v-5.3622h-1.1906v-1.2612h1.1906v-2.8046h1.6316"/>
  <path id="path3134" style="" d="m262.71 57.089c-1.3112 0.000005-2.2196 0.14994-2.7252 0.44979-0.50565 0.29986-0.75847 0.81139-0.75847 1.5346 0 0.5762 0.18815 1.0348 0.56445 1.3758 0.38217 0.33514 0.89957 0.50271 1.5522 0.50271 0.89957 0.000001 1.6198-0.3175 2.1608-0.9525 0.54679-0.64088 0.8202-1.4905 0.8202-2.5488v-0.3616h-1.614m3.2367-0.67028v5.6356h-1.6228v-1.4993c-0.37042 0.59972-0.83197 1.0436-1.3846 1.3317-0.55269 0.28222-1.2288 0.42333-2.0285 0.42333-1.0113 0-1.8168-0.28222-2.4165-0.84667-0.59384-0.57032-0.89077-1.3317-0.89076-2.2842-0.00001-1.1112 0.37041-1.9491 1.1112-2.5135 0.74671-0.56444 1.858-0.84666 3.3338-0.84666h2.2754v-0.15875c0-0.7467-0.24695-1.3229-0.74083-1.7286-0.48801-0.41156-1.1759-0.61735-2.0638-0.61736-0.56444 0.000008-1.1142 0.06762-1.6492 0.20285-0.53505 0.13524-1.0495 0.33809-1.5434 0.60854v-1.4993c0.59384-0.2293 1.17-0.3998 1.7286-0.51153 0.55856-0.11758 1.1024-0.17638 1.6316-0.17639 1.4288 0.00001 2.4959 0.37043 3.2015 1.1112 0.70554 0.74084 1.0583 1.8638 1.0583 3.369"/>
  <path id="path3136" style="" d="m269.36 48.887h8.3255v1.4993h-6.544v3.8982h6.2706v1.4993h-6.2706v4.7713h6.7028v1.4993h-8.4843v-13.167"/>
  <path id="path3138" style="" d="m280.72 48.331h1.6228v13.723h-1.6228v-13.723"/>
  <path id="path3140" style="" d="m294.18 56.71v0.79375h-7.4612c0.0706 1.1171 0.40569 1.9697 1.0054 2.5576 0.6056 0.58208 1.4464 0.87312 2.5224 0.87312 0.62323 0.000001 1.2259-0.07643 1.808-0.2293 0.58796-0.15287 1.17-0.38217 1.7462-0.68792v1.5346c-0.58209 0.24694-1.1789 0.43509-1.7903 0.56444-0.61149 0.12935-1.2318 0.19403-1.8609 0.19403-1.5758 0-2.8252-0.45861-3.7483-1.3758-0.91723-0.91722-1.3758-2.1578-1.3758-3.7218-0.00001-1.6169 0.43509-2.8986 1.3053-3.8453 0.87606-0.95249 2.0549-1.4287 3.5366-1.4287 1.3288 0.00001 2.3783 0.42922 3.1485 1.2876 0.7761 0.85255 1.1642 2.0138 1.1642 3.4837m-1.6228-0.47625c-0.0118-0.88782-0.26165-1.5963-0.74965-2.1255-0.48214-0.52916-1.123-0.79374-1.9226-0.79375-0.90546 0.000008-1.6316 0.25577-2.1784 0.76729-0.54093 0.51154-0.85254 1.2318-0.93486 2.1608l5.7856-0.0088"/>
  <path id="path3142" style="" d="m304.54 54.073c0.40568-0.72906 0.89075-1.267 1.4552-1.614 0.56443-0.34689 1.2288-0.52034 1.9932-0.52035 1.0289 0.00001 1.8227 0.36161 2.3812 1.0848 0.55854 0.71732 0.83783 1.7404 0.83784 3.0692v5.9619h-1.6316v-5.909c-0.00002-0.94661-0.16759-1.6492-0.50271-2.1078-0.33515-0.4586-0.84668-0.68791-1.5346-0.68792-0.8408 0.000009-1.5052 0.27929-1.9932 0.83785-0.48802 0.55857-0.73203 1.32-0.73202 2.2842v5.5827h-1.6316v-5.909c-0.00001-0.95249-0.16758-1.6551-0.50271-2.1078-0.33515-0.4586-0.85255-0.68791-1.5522-0.68792-0.82903 0.000009-1.4876 0.28223-1.9756 0.84667-0.48802 0.55857-0.73202 1.317-0.73202 2.2754v5.5827h-1.6316v-9.8778h1.6316v1.5346c0.37042-0.60559 0.81433-1.0524 1.3317-1.3406 0.5174-0.28809 1.1318-0.43214 1.8433-0.43215 0.71731 0.00001 1.3258 0.18228 1.8256 0.5468 0.50564 0.36455 0.879 0.89371 1.1201 1.5875"/>
  <path id="path3144" style="" d="m326.99 51.057-3.1662 1.711 3.1662 1.7198-0.51152 0.8643-2.9633-1.7903v3.3249h-1.0054v-3.3249l-2.9633 1.7903-0.51152-0.8643 3.1662-1.7198-3.1662-1.711 0.51152-0.87312 2.9633 1.7903v-3.3249h1.0054v3.3249l2.9633-1.7903 0.51152 0.87312"/>
  <path id="path3146" style="" d="m336.92 54.073c0.40569-0.72906 0.89076-1.267 1.4552-1.614 0.56443-0.34689 1.2288-0.52034 1.9932-0.52035 1.0289 0.00001 1.8227 0.36161 2.3812 1.0848 0.55855 0.71732 0.83783 1.7404 0.83785 3.0692v5.9619h-1.6316v-5.909c-0.00001-0.94661-0.16758-1.6492-0.50271-2.1078-0.33515-0.4586-0.84668-0.68791-1.5346-0.68792-0.8408 0.000009-1.5052 0.27929-1.9932 0.83785-0.48802 0.55857-0.73202 1.32-0.73201 2.2842v5.5827h-1.6316v-5.909c-0.00001-0.95249-0.16758-1.6551-0.50271-2.1078-0.33514-0.4586-0.85255-0.68791-1.5522-0.68792-0.82903 0.000009-1.4876 0.28223-1.9756 0.84667-0.48801 0.55857-0.73202 1.317-0.73201 2.2754v5.5827h-1.6316v-9.8778h1.6316v1.5346c0.37041-0.60559 0.81432-1.0524 1.3317-1.3406 0.5174-0.28809 1.1318-0.43214 1.8433-0.43215 0.71731 0.00001 1.3258 0.18228 1.8256 0.5468 0.50564 0.36455 0.87899 0.89371 1.1201 1.5875"/>
  <path id="path3148" style="" d="m350.66 53.314c-0.87018 0.000008-1.5581 0.34103-2.0637 1.0231-0.50565 0.67616-0.75848 1.6051-0.75847 2.7869-0.00001 1.1818 0.24988 2.1137 0.74965 2.7958 0.50564 0.67616 1.1965 1.0142 2.0726 1.0142 0.8643 0.000001 1.5493-0.34102 2.0549-1.0231 0.50564-0.68203 0.75847-1.611 0.75847-2.7869 0-1.17-0.25283-2.0961-0.75847-2.7781-0.50565-0.68791-1.1906-1.0319-2.0549-1.0319m0-1.3758c1.4111 0.00001 2.5194 0.45862 3.3249 1.3758 0.8055 0.91723 1.2082 2.1872 1.2083 3.81-0.00001 1.6169-0.40276 2.8869-1.2083 3.81-0.80552 0.91722-1.9138 1.3758-3.3249 1.3758-1.417 0-2.5282-0.45861-3.3337-1.3758-0.79963-0.9231-1.1994-2.1931-1.1994-3.81-0.00001-1.6228 0.39981-2.8928 1.1994-3.81 0.8055-0.91721 1.9168-1.3758 3.3337-1.3758"/>
  <path id="path3150" style="" d="m357.17 52.177h7.7082v1.4817l-6.103 7.0996h6.103v1.2965h-7.9287v-1.4817l6.103-7.0996h-5.8826v-1.2965"/>
  <path id="path3152" style="" d="m373.87 57.001c-0.00001-1.1759-0.24401-2.0873-0.73201-2.734-0.48214-0.64675-1.1612-0.97013-2.0373-0.97014-0.87019 0.000008-1.5493 0.32339-2.0373 0.97014-0.48213 0.64677-0.7232 1.5581-0.72319 2.734-0.00001 1.17 0.24106 2.0784 0.72319 2.7252 0.48801 0.64676 1.1671 0.97014 2.0373 0.97014 0.87606 0.000001 1.5552-0.32338 2.0373-0.97014 0.488-0.64676 0.732-1.5552 0.73201-2.7252m1.6228 3.8276c-0.00001 1.6816-0.37337 2.931-1.1201 3.7483-0.74672 0.82314-1.8903 1.2347-3.4308 1.2347-0.57033-0.000003-1.1083-0.0441-1.614-0.13229-0.50565-0.08232-0.9966-0.21167-1.4728-0.38806v-1.5787c0.47624 0.2587 0.94661 0.44979 1.4111 0.57326 0.46448 0.12347 0.93779 0.18521 1.4199 0.18521 1.0642-0.000002 1.8609-0.27928 2.3901-0.83785 0.52916-0.55268 0.79374-1.3905 0.79375-2.5135v-0.80257c-0.33514 0.58208-0.76436 1.0172-1.2876 1.3053-0.52329 0.2881-1.1495 0.43215-1.8785 0.43215-1.2112 0-2.1872-0.46155-2.9281-1.3847-0.74083-0.9231-1.1112-2.1461-1.1112-3.6689 0-1.5287 0.37042-2.7546 1.1112-3.6777 0.74083-0.92309 1.7168-1.3846 2.9281-1.3847 0.72906 0.00001 1.3552 0.14406 1.8785 0.43215 0.52328 0.28811 0.9525 0.7232 1.2876 1.3053v-1.4993h1.6228v8.6519"/>
  <path id="path3154" style="" d="m382.66 53.314c-0.87018 0.000008-1.5581 0.34103-2.0637 1.0231-0.50565 0.67616-0.75848 1.6051-0.75847 2.7869-0.00001 1.1818 0.24988 2.1137 0.74965 2.7958 0.50564 0.67616 1.1965 1.0142 2.0726 1.0142 0.8643 0.000001 1.5493-0.34102 2.0549-1.0231 0.50564-0.68203 0.75847-1.611 0.75847-2.7869 0-1.17-0.25283-2.0961-0.75847-2.7781-0.50565-0.68791-1.1906-1.0319-2.0549-1.0319m0-1.3758c1.4111 0.00001 2.5194 0.45862 3.3249 1.3758 0.8055 0.91723 1.2082 2.1872 1.2083 3.81-0.00001 1.6169-0.40276 2.8869-1.2083 3.81-0.80552 0.91722-1.9138 1.3758-3.3249 1.3758-1.417 0-2.5282-0.45861-3.3337-1.3758-0.79963-0.9231-1.1994-2.1931-1.1994-3.81-0.00001-1.6228 0.39981-2.8928 1.1994-3.81 0.8055-0.91721 1.9168-1.3758 3.3337-1.3758"/>
 </g>
 <g id="g80" transform="translate(-1.8287 -4.1955)">
  <path id="rect82" fill="#fdfd04" d="m120 120h20v20h-20z"/>
  <path id="rect84" d="m120 120h20v20h-20z" stroke="#000" stroke-width="2" fill="none"/>
 </g>
 <g id="text86">
  <path id="path3159" style="" d="m-36 118.89h1.7815v11.668h6.4117v1.4993h-8.1933v-13.167"/>
  <path id="path3161" style="" d="m-26.016 122.18h1.6228v9.8778h-1.6228v-9.8778m0-3.8453h1.6228v2.0549h-1.6228v-2.0549"/>
  <path id="path3163" style="" d="m-14.71 122.47v1.5346c-0.45862-0.23518-0.93487-0.41157-1.4287-0.52917-0.49389-0.11758-1.0054-0.17638-1.5346-0.17639-0.80551 0.00001-1.4111 0.12348-1.8168 0.37042-0.39982 0.24695-0.59972 0.61737-0.59972 1.1112-0.000003 0.3763 0.14405 0.67322 0.43215 0.89076 0.2881 0.21167 0.86724 0.41452 1.7374 0.60854l0.55562 0.12347c1.1524 0.24695 1.9697 0.59679 2.4518 1.0495 0.488 0.44685 0.732 1.073 0.73201 1.8785-0.000008 0.91723-0.36454 1.6434-1.0936 2.1784-0.7232 0.53505-1.7198 0.80257-2.9898 0.80257-0.52917 0-1.0819-0.0529-1.6581-0.15875-0.57033-0.1-1.173-0.25282-1.808-0.45861v-1.6757c0.59972 0.31162 1.1906 0.54681 1.7727 0.70556 0.58208 0.15287 1.1583 0.2293 1.7286 0.2293 0.76435 0 1.3523-0.12935 1.7639-0.38805 0.41157-0.26459 0.61735-0.635 0.61736-1.1112-0.000006-0.44097-0.14994-0.77905-0.44979-1.0142-0.29399-0.23518-0.94368-0.46154-1.9491-0.67909l-0.56444-0.1323c-1.0054-0.21166-1.7316-0.53504-2.1784-0.97013-0.44685-0.44097-0.67028-1.0436-0.67028-1.808-0.000001-0.92897 0.32926-1.6463 0.98778-2.1519 0.65852-0.50564 1.5934-0.75846 2.8046-0.75847 0.59972 0.00001 1.1642 0.0441 1.6933 0.13229 0.52916 0.0882 1.0172 0.2205 1.464 0.39688"/>
  <path id="path3165" style="" d="m-9.9827 119.37v2.8046h3.3426v1.2612h-3.3426v5.3622c-0.0000033 0.80551 0.10877 1.3229 0.32632 1.5522 0.22342 0.22931 0.67321 0.34396 1.3494 0.34396h1.6669v1.3582h-1.6669c-1.2524 0-2.1167-0.23225-2.5929-0.69674-0.47625-0.47036-0.71438-1.3229-0.71438-2.5576v-5.3622h-1.1906v-1.2612h1.1906v-2.8046h1.6316"/>
  <path id="path3167" style="" d="m-0.0078893 127.09c-1.3112 0-2.2196 0.14993-2.7252 0.44979-0.50565 0.29986-0.75847 0.81139-0.75847 1.5346-0.0000027 0.57621 0.18814 1.0348 0.56444 1.3758 0.38217 0.33514 0.89958 0.50271 1.5522 0.50271 0.89958 0 1.6198-0.3175 2.1608-0.9525 0.5468-0.64087 0.8202-1.4905 0.82021-2.5488v-0.3616h-1.614m3.2367-0.67028v5.6356h-1.6228v-1.4993c-0.37042 0.59972-0.83197 1.0436-1.3847 1.3317-0.55269 0.28222-1.2288 0.42333-2.0285 0.42333-1.0113 0-1.8168-0.28222-2.4165-0.84666-0.59384-0.57032-0.89076-1.3317-0.89076-2.2842-0.000001-1.1112 0.37041-1.9491 1.1112-2.5135 0.74671-0.56444 1.858-0.84666 3.3337-0.84667h2.2754v-0.15875c-0.0000078-0.7467-0.24695-1.3229-0.74083-1.7286-0.48802-0.41156-1.1759-0.61735-2.0637-0.61736-0.56445 0.00001-1.1142 0.0676-1.6492 0.20285-0.53505 0.13524-1.0495 0.33808-1.5434 0.60854v-1.4993c0.59384-0.22929 1.17-0.3998 1.7286-0.51152 0.55856-0.11758 1.1024-0.17638 1.6316-0.17639 1.4287 0.00001 2.4959 0.37042 3.2015 1.1112 0.70555 0.74084 1.0583 1.8638 1.0583 3.369"/>
  <path id="path3169" style="" d="m6.6508 118.89h8.3255v1.4993h-6.544v3.8982h6.2706v1.4993h-6.2706v4.7713h6.7028v1.4993h-8.4843v-13.167"/>
  <path id="path3171" style="" d="m18.01 118.33h1.6228v13.723h-1.6228v-13.723"/>
  <path id="path3173" style="" d="m31.469 126.71v0.79375h-7.4612c0.07055 1.1171 0.40569 1.9697 1.0054 2.5576 0.6056 0.58208 1.4464 0.87312 2.5224 0.87312 0.62323 0 1.2259-0.0764 1.808-0.2293 0.58795-0.15287 1.17-0.38218 1.7462-0.68792v1.5346c-0.58209 0.24695-1.1789 0.43509-1.7903 0.56445-0.61149 0.12935-1.2318 0.19402-1.8609 0.19402-1.5757 0-2.8252-0.45861-3.7483-1.3758-0.91722-0.91722-1.3758-2.1578-1.3758-3.7218-0.000001-1.6169 0.43509-2.8986 1.3053-3.8453 0.87606-0.95249 2.0549-1.4287 3.5366-1.4288 1.3288 0.00001 2.3783 0.42922 3.1485 1.2876 0.7761 0.85255 1.1642 2.0138 1.1642 3.4837m-1.6228-0.47625c-0.01177-0.88781-0.26165-1.5963-0.74965-2.1255-0.48214-0.52916-1.123-0.79374-1.9226-0.79375-0.90547 0.00001-1.6316 0.25577-2.1784 0.76729-0.54093 0.51154-0.85255 1.2318-0.93486 2.1608l5.7855-0.009"/>
  <path id="path3175" style="" d="m41.823 124.07c0.40568-0.72906 0.89075-1.267 1.4552-1.614 0.56443-0.34689 1.2288-0.52034 1.9932-0.52035 1.0289 0.00001 1.8227 0.36161 2.3812 1.0848 0.55855 0.71732 0.83783 1.7404 0.83785 3.0692v5.9619h-1.6316v-5.909c-0.000014-0.94661-0.16758-1.6492-0.50271-2.1078-0.33515-0.4586-0.84668-0.6879-1.5346-0.68791-0.8408 0.00001-1.5052 0.27929-1.9932 0.83784-0.48802 0.55858-0.73202 1.32-0.73201 2.2842v5.5827h-1.6316v-5.909c-0.000008-0.95249-0.16758-1.6551-0.50271-2.1078-0.33515-0.4586-0.85255-0.6879-1.5522-0.68791-0.82903 0.00001-1.4875 0.28223-1.9756 0.84666-0.48801 0.55858-0.73202 1.317-0.73201 2.2754v5.5827h-1.6316v-9.8778h1.6316v1.5346c0.37041-0.6056 0.81432-1.0524 1.3317-1.3406 0.5174-0.28809 1.1318-0.43214 1.8433-0.43215 0.71731 0.00001 1.3258 0.18228 1.8256 0.5468 0.50564 0.36455 0.879 0.89372 1.1201 1.5875"/>
  <path id="path3177" style="" d="m64.277 121.06-3.1662 1.711 3.1662 1.7198-0.51153 0.8643-2.9633-1.7904v3.3249h-1.0054v-3.3249l-2.9633 1.7904-0.51153-0.8643 3.1662-1.7198-3.1662-1.711 0.51153-0.87313 2.9633 1.7904v-3.3249h1.0054v3.3249l2.9633-1.7904 0.51153 0.87313"/>
  <path id="path3179" style="" d="m74.966 126.71v0.79375h-7.4612c0.07055 1.1171 0.40569 1.9697 1.0054 2.5576 0.6056 0.58208 1.4464 0.87312 2.5224 0.87312 0.62323 0 1.2259-0.0764 1.808-0.2293 0.58795-0.15287 1.17-0.38218 1.7462-0.68792v1.5346c-0.58209 0.24695-1.1789 0.43509-1.7903 0.56445-0.61149 0.12935-1.2318 0.19402-1.8609 0.19402-1.5757 0-2.8252-0.45861-3.7483-1.3758-0.91722-0.91722-1.3758-2.1578-1.3758-3.7218-0.000001-1.6169 0.43509-2.8986 1.3053-3.8453 0.87606-0.95249 2.0549-1.4287 3.5366-1.4288 1.3288 0.00001 2.3783 0.42922 3.1485 1.2876 0.7761 0.85255 1.1642 2.0138 1.1642 3.4837m-1.6228-0.47625c-0.01177-0.88781-0.26165-1.5963-0.74965-2.1255-0.48214-0.52916-1.123-0.79374-1.9226-0.79375-0.90547 0.00001-1.6316 0.25577-2.1784 0.76729-0.54093 0.51154-0.85255 1.2318-0.93486 2.1608l5.7855-0.009"/>
  <path id="path3181" style="" d="m77.63 118.33h1.6228v13.723h-1.6228v-13.723"/>
  <path id="path3183" style="" d="m91.088 126.71v0.79375h-7.4612c0.07055 1.1171 0.40569 1.9697 1.0054 2.5576 0.6056 0.58208 1.4464 0.87312 2.5224 0.87312 0.62323 0 1.2259-0.0764 1.808-0.2293 0.58795-0.15287 1.17-0.38218 1.7462-0.68792v1.5346c-0.58209 0.24695-1.1789 0.43509-1.7903 0.56445-0.61149 0.12935-1.2318 0.19402-1.8609 0.19402-1.5757 0-2.8252-0.45861-3.7483-1.3758-0.91722-0.91722-1.3758-2.1578-1.3758-3.7218-0.000001-1.6169 0.43509-2.8986 1.3053-3.8453 0.87606-0.95249 2.0549-1.4287 3.5366-1.4288 1.3288 0.00001 2.3783 0.42922 3.1485 1.2876 0.7761 0.85255 1.1642 2.0138 1.1642 3.4837m-1.6228-0.47625c-0.01177-0.88781-0.26165-1.5963-0.74965-2.1255-0.48214-0.52916-1.123-0.79374-1.9226-0.79375-0.90547 0.00001-1.6316 0.25577-2.1784 0.76729-0.54093 0.51154-0.85255 1.2318-0.93486 2.1608l5.7855-0.009"/>
  <path id="path3185" style="" d="m93.752 122.18h1.6228v10.054c-0.000003 1.2582-0.24107 2.1696-0.72319 2.734-0.47625 0.56444-1.2465 0.84666-2.3107 0.84667h-0.61736v-1.3758h0.43215c0.61736-0.00001 1.0378-0.14406 1.2612-0.43216 0.22342-0.28222 0.33514-0.87312 0.33514-1.7727v-10.054m0-3.8453h1.6228v2.0549h-1.6228v-2.0549"/>
  <path id="path3187" style="" d="m107.21 126.71v0.79375h-7.4612c0.07055 1.1171 0.40569 1.9697 1.0054 2.5576 0.60559 0.58208 1.4464 0.87312 2.5224 0.87312 0.62324 0 1.2259-0.0764 1.808-0.2293 0.58795-0.15287 1.17-0.38218 1.7462-0.68792v1.5346c-0.5821 0.24695-1.1789 0.43509-1.7904 0.56445-0.61149 0.12935-1.2318 0.19402-1.8609 0.19402-1.5757 0-2.8252-0.45861-3.7483-1.3758-0.91722-0.91722-1.3758-2.1578-1.3758-3.7218-0.000001-1.6169 0.43509-2.8986 1.3053-3.8453 0.87606-0.95249 2.0549-1.4287 3.5366-1.4288 1.3288 0.00001 2.3783 0.42922 3.1485 1.2876 0.7761 0.85255 1.1642 2.0138 1.1642 3.4837m-1.6228-0.47625c-0.0118-0.88781-0.26166-1.5963-0.74966-2.1255-0.48213-0.52916-1.123-0.79374-1.9226-0.79375-0.90547 0.00001-1.6316 0.25577-2.1784 0.76729-0.54093 0.51154-0.85255 1.2318-0.93486 2.1608l5.7856-0.009"/>
 </g>
 <g id="g90" transform="translate(-1.8287 -4.1955)">
  <path id="rect92" fill="#7babe3" d="m180 100h60v60h-60z"/>
  <path id="rect94" d="m180 100h60v60h-60z" stroke="#000" stroke-width="2" fill="none"/>
 </g>
 <g id="g96" transform="translate(-1.8287 -4.1955)">
  <path id="path98" d="m139.5 130h30.764" stroke="#000" stroke-width="2" fill="none"/>
  <path id="polygon100" d="m170.26 130-2.5-5 10 5-10 5z"/>
  <path id="polygon102" d="m170.26 130-2.5-5 10 5-10 5z" stroke="#000" stroke-width="2" fill="none"/>
 </g>
 <g id="text104" fill="#173b8f">
  <path id="path3194" style="" d="m509.23 232.9c-0.78788 1.3523-1.3729 2.6899-1.7551 4.0128-0.38218 1.3229-0.57327 2.6635-0.57327 4.0217s0.19109 2.7046 0.57327 4.0393c0.38805 1.3288 0.97307 2.6664 1.7551 4.0128h-1.4111c-0.88195-1.3817-1.5434-2.7399-1.9844-4.0746-0.43509-1.3347-0.65264-2.6605-0.65263-3.9776-0.00001-1.3112 0.21754-2.6311 0.65263-3.9599s1.0966-2.687 1.9844-4.0746h1.4111"/>
  <path id="path3196" style="" d="m518.02 239.5c0.85254 0.18227 1.5169 0.56151 1.9932 1.1377 0.48212 0.5762 0.72319 1.2876 0.7232 2.1343-0.00001 1.2994-0.44686 2.3048-1.3406 3.0162-0.89371 0.71144-2.1637 1.0672-3.81 1.0672-0.55269 0-1.123-0.0559-1.711-0.16757-0.58209-0.10584-1.1848-0.26753-1.808-0.48507v-1.7198c0.49389 0.2881 1.0348 0.50565 1.6228 0.65264 0.58796 0.14699 1.2024 0.22048 1.8433 0.22048 1.1171 0 1.9667-0.22048 2.5488-0.66146 0.58795-0.44096 0.88193-1.0818 0.88194-1.9226-0.00001-0.77611-0.27341-1.3817-0.82021-1.8168-0.54093-0.44097-1.2965-0.66146-2.2666-0.66146h-1.5346v-1.464h1.6051c0.87606 0.00001 1.5463-0.17344 2.0108-0.52035 0.46448-0.35276 0.69672-0.85841 0.69673-1.5169-0.00001-0.67614-0.24107-1.1936-0.72319-1.5522-0.47626-0.36452-1.1612-0.54679-2.0549-0.5468-0.48801 0.00001-1.0113 0.0529-1.5699 0.15875-0.55857 0.10584-1.173 0.27047-1.8433 0.49389v-1.5875c0.67615-0.18814 1.3082-0.32925 1.8962-0.42334 0.59383-0.0941 1.1524-0.14109 1.6757-0.14111 1.3523 0.00002 2.4224 0.3087 3.2103 0.92604 0.78786 0.6115 1.1818 1.4405 1.1818 2.4871-0.00001 0.72909-0.20874 1.3464-0.62618 1.8521-0.41746 0.49977-1.0113 0.84667-1.7815 1.0407"/>
  <path id="path3198" style="" d="m530.98 241.67c-0.00001-1.1936-0.24695-2.1284-0.74083-2.8046-0.48802-0.68203-1.1612-1.023-2.0196-1.0231-0.85843 0.00001-1.5346 0.34103-2.0285 1.0231-0.48802 0.67616-0.73202 1.611-0.73202 2.8046s0.244 2.1314 0.73202 2.8134c0.49388 0.67616 1.17 1.0142 2.0285 1.0142 0.85841 0 1.5316-0.33807 2.0196-1.0142 0.49388-0.68203 0.74082-1.6198 0.74083-2.8134m-5.521-3.4484c0.34102-0.58795 0.77023-1.023 1.2876-1.3053 0.52328-0.28809 1.1465-0.43214 1.8697-0.43215 1.1994 0.00001 2.1725 0.47626 2.9192 1.4288 0.75259 0.95251 1.1289 2.2049 1.1289 3.7571-0.00001 1.5522-0.3763 2.8046-1.1289 3.7571-0.74672 0.9525-1.7198 1.4288-2.9192 1.4288-0.7232 0-1.3464-0.14111-1.8697-0.42334-0.51741-0.2881-0.94662-0.72613-1.2876-1.3141v1.4817h-1.6316v-13.723h1.6316v5.3446"/>
  <path id="path3200" style="" d="m535.1 232.9h1.4111c0.88194 1.3876 1.5405 2.7458 1.9756 4.0746 0.44096 1.3288 0.66145 2.6488 0.66145 3.9599 0 1.317-0.22049 2.6429-0.66145 3.9776-0.4351 1.3347-1.0936 2.6929-1.9756 4.0746h-1.4111c0.78199-1.3464 1.3641-2.684 1.7462-4.0128 0.38805-1.3347 0.58208-2.6811 0.58209-4.0393-0.00001-1.3582-0.19404-2.6987-0.58209-4.0217-0.38218-1.3229-0.96426-2.6605-1.7462-4.0128"/>
 </g>
 <g id="g108" transform="translate(-1.8287 -4.1955)">
  <path id="rect110" fill="#fdfd04" d="m180 150h60v20h-60z"/>
  <path id="rect112" d="m180 150h60v20h-60z" stroke="#000" stroke-width="2" fill="none"/>
 </g>
 <g id="g114" transform="translate(-1.8287 -4.1955)">
  <path id="rect116" fill="#fdfd04" d="m280 150h60v20h-60z"/>
  <path id="rect118" d="m280 150h60v20h-60z" stroke="#000" stroke-width="2" fill="none"/>
 </g>
 <g id="g120" transform="translate(-1.8287 -4.1955)">
  <path id="rect122" fill="#fdfd04" d="m380 150h60v20h-60z"/>
  <path id="rect124" d="m380 150h60v20h-60z" stroke="#000" stroke-width="2" fill="none"/>
 </g>
 <path id="line126" d="m378.17 165.8 60-20" stroke="#000" stroke-width="2" fill="none"/>
 <path id="line128" d="m378.17 145.8 60 20" stroke="#000" stroke-width="2" fill="none"/>
 <g id="g130" transform="translate(-1.8287 -4.1955)">
  <path id="rect132" fill="#fdfd04" d="m440 240h60v20h-60z"/>
  <path id="rect134" d="m440 240h60v20h-60z" stroke="#000" stroke-width="2" fill="none"/>
 </g>
 <path id="line136" d="m438.17 235.8 60 20" stroke="#f62e2e" stroke-width="2" fill="none"/>
 <g id="g138" stroke="#f62e2e" stroke-width="2" fill="none" transform="translate(-1.8287 -4.1955)">
  <path id="line140" d="m400 150 20 20"/>
  <path id="line142" d="m400 170 20-20"/>
 </g>
 <path id="line144" d="m438.17 255.8 60-20" stroke="#f62e2e" stroke-width="2" fill="none"/>
 <g id="g146" transform="translate(-1.8287 -4.1955)">
  <path id="rect148" fill="#fdfd04" d="m400 50h20v20h-20z"/>
  <path id="rect150" d="m400 50h20v20h-20z" stroke="#000" stroke-width="2" fill="none"/>
 </g>
 <g id="g152" transform="translate(-1.8287 -4.1955)">
  <path id="path154" d="m340 160c40 0 0-30 30.264-30" stroke="#000" stroke-width="2" fill="none"/>
  <path id="polygon156" d="m370.26 130-2.5-5 10 5-10 5z"/>
  <path id="polygon158" d="m370.26 130-2.5-5 10 5-10 5z" stroke="#000" stroke-width="2" fill="none"/>
 </g>
</svg>
