<?xml version="1.0" encoding="UTF-8" standalone="no"?>
<!-- Created with Inkscape (http://www.inkscape.org/) -->
<svg id="svg2" xmlns:rdf="http://www.w3.org/1999/02/22-rdf-syntax-ns#" xmlns="http://www.w3.org/2000/svg" height="218.32" width="881.28" version="1.1" xmlns:cc="http://creativecommons.org/ns#" xmlns:dc="http://purl.org/dc/elements/1.1/" viewBox="-54 48 492.45739 108.2684">
 <metadata id="metadata128">
  <rdf:RDF>
   <cc:Work rdf:about="">
    <dc:format>image/svg+xml</dc:format>
    <dc:type rdf:resource="http://purl.org/dc/dcmitype/StillImage"/>
   </cc:Work>
  </rdf:RDF>
 </metadata>
 <g id="g4" transform="translate(-2.5426 -7.8658)">
  <path id="path6" d="m140 130h30.264" stroke="#000" stroke-width="2" fill="none"/>
  <path id="polygon8" d="m170.26 130-2.5-5 10 5-10 5z"/>
  <path id="polygon10" d="m170.26 130-2.5-5 10 5-10 5z" stroke="#000" stroke-width="2" fill="none"/>
 </g>
 <g id="g12" transform="translate(-2.5426 -7.8658)">
  <path id="rect14" fill="#7babe3" d="m280 100h60v60h-60z"/>
  <path id="rect16" d="m280 100h60v60h-60z" stroke="#000" stroke-width="2" fill="none"/>
 </g>
 <g id="g18" transform="translate(-2.5426 -7.8658)">
  <path id="rect20" fill="#7babe3" d="m380 100h60v60h-60z"/>
  <path id="rect22" d="m380 100h60v60h-60z" stroke="#000" stroke-width="2" fill="none"/>
 </g>
 <g id="g24" transform="translate(-2.5426 -7.8658)">
  <path id="rect26" fill="#7babe3" d="m180 100h60v60h-60z"/>
  <path id="rect28" d="m180 100h60v60h-60z" stroke="#000" stroke-width="2" fill="none"/>
 </g>
 <g id="g30" transform="translate(-2.5426 -7.8658)">
  <path id="rect32" fill="#fdfd04" d="m120 120h20v20h-20z"/>
  <path id="rect34" d="m120 120h20v20h-20z" stroke="#000" stroke-width="2" fill="none"/>
 </g>
 <g id="text36">
  <path id="path3053" style="" d="m401.76 111.76h10.491v2.249h-8.0433v4.8419c0.38805-0.13227 0.7761-0.22929 1.1642-0.29104 0.38805-0.0705 0.7761-0.10582 1.1642-0.10583 2.2048 0.00001 3.9511 0.60414 5.2387 1.8124s1.9314 2.8443 1.9315 4.908c-0.00002 2.1255-0.66148 3.7791-1.9844 4.9609-1.3229 1.173-3.1882 1.7595-5.5959 1.7595-0.82903 0-1.6757-0.0706-2.54-0.21167-0.85549-0.14111-1.7418-0.35278-2.6591-0.635v-2.6855c0.79374 0.43216 1.614 0.75407 2.4606 0.96573 0.84666 0.21167 1.7418 0.3175 2.6855 0.3175 1.5258 0 2.734-0.40128 3.6248-1.2038 0.89075-0.80257 1.3361-1.8918 1.3362-3.2676-0.00001-1.3758-0.4454-2.465-1.3362-3.2676-0.89077-0.80256-2.099-1.2038-3.6248-1.2038-0.71438 0.00001-1.4288 0.0794-2.1431 0.23812-0.70556 0.15876-1.4288 0.4057-2.1696 0.74083v-9.9219"/>
 </g>
 <g id="text40">
  <path id="path3056" style="" d="m309.07 114.09-6.7469 10.544h6.7469v-10.544m-0.70114-2.3283h3.3602v12.872h2.8178v2.2225h-2.8178v4.6567h-2.6591v-4.6567h-8.9164v-2.5797l8.2153-12.515"/>
 </g>
 <g id="text44">
  <path id="path3059" style="" d="m209.83 120.86c1.2788 0.27341 2.2754 0.84226 2.9898 1.7066 0.72318 0.86431 1.0848 1.9315 1.0848 3.2014-0.00001 1.9491-0.67029 3.4572-2.0108 4.5244-1.3406 1.0672-3.2456 1.6007-5.715 1.6007-0.82903 0-1.6845-0.0838-2.5665-0.25136-0.87312-0.15875-1.7771-0.40128-2.712-0.7276v-2.5797c0.74083 0.43216 1.5522 0.75848 2.4342 0.97896 0.88194 0.22049 1.8036 0.33073 2.7649 0.33073 1.6757 0 2.9501-0.33073 3.8232-0.99219 0.88193-0.66145 1.3229-1.6228 1.3229-2.884-0.00001-1.1642-0.41011-2.0726-1.2303-2.7252-0.81139-0.66144-1.9447-0.99217-3.3999-0.99218h-2.3019v-2.196h2.4077c1.3141 0.00001 2.3195-0.26016 3.0162-0.78052 0.69672-0.52915 1.0451-1.2876 1.0451-2.2754-0.00001-1.0142-0.3616-1.7903-1.0848-2.3283-0.71438-0.54679-1.7418-0.82019-3.0824-0.82021-0.73202 0.00002-1.517 0.0794-2.3548 0.23812-0.83785 0.15877-1.7595 0.40571-2.7649 0.74084v-2.3812c1.0142-0.2822 1.9623-0.49387 2.8443-0.635 0.89075-0.14109 1.7286-0.21165 2.5135-0.21167 2.0285 0.00002 3.6336 0.46304 4.8154 1.3891 1.1818 0.91724 1.7727 2.1608 1.7727 3.7306-0.00001 1.0936-0.3131 2.0197-0.93927 2.7781-0.62619 0.74966-1.517 1.27-2.6723 1.561"/>
 </g>
 <g id="g48" transform="translate(-2.5426 -7.8658)">
  <path id="path50" d="m240 160c40 0 0-30 30.264-30" stroke="#000" stroke-width="2" fill="none"/>
  <path id="polygon52" d="m270.26 130-2.5-5 10 5-10 5z"/>
  <path id="polygon54" d="m270.26 130-2.5-5 10 5-10 5z" stroke="#000" stroke-width="2" fill="none"/>
 </g>
 <g id="text56">
  <path id="path3064" style="" d="m-36.714 115.22h1.7815v11.668h6.4117v1.4993h-8.1933v-13.167"/>
  <path id="path3066" style="" d="m-26.73 118.51h1.6228v9.8778h-1.6228v-9.8778m0-3.8453h1.6228v2.0549h-1.6228v-2.0549"/>
  <path id="path3068" style="" d="m-15.424 118.8v1.5346c-0.45862-0.23518-0.93487-0.41157-1.4287-0.52917-0.49389-0.11758-1.0054-0.17638-1.5346-0.17639-0.80551 0.00001-1.4111 0.12348-1.8168 0.37042-0.39982 0.24695-0.59972 0.61737-0.59972 1.1112-0.000003 0.3763 0.14405 0.67322 0.43215 0.89076 0.2881 0.21167 0.86724 0.41452 1.7374 0.60854l0.55562 0.12347c1.1524 0.24695 1.9697 0.59679 2.4518 1.0495 0.488 0.44685 0.732 1.073 0.73201 1.8785-0.000009 0.91722-0.36454 1.6434-1.0936 2.1784-0.7232 0.53504-1.7198 0.80256-2.9898 0.80256-0.52917 0-1.0819-0.0529-1.6581-0.15875-0.57033-0.1-1.173-0.25282-1.808-0.45861v-1.6757c0.59972 0.31162 1.1906 0.54681 1.7727 0.70556 0.58208 0.15287 1.1583 0.2293 1.7286 0.2293 0.76435 0 1.3523-0.12935 1.7639-0.38805 0.41157-0.26458 0.61735-0.635 0.61736-1.1112-0.000007-0.44097-0.14994-0.77905-0.44979-1.0142-0.29399-0.23518-0.94368-0.46154-1.9491-0.67909l-0.56444-0.13229c-1.0054-0.21167-1.7316-0.53505-2.1784-0.97014-0.44685-0.44097-0.67028-1.0436-0.67028-1.808-0.000001-0.92897 0.32926-1.6463 0.98778-2.1519 0.65852-0.50564 1.5934-0.75846 2.8046-0.75847 0.59972 0.00001 1.1642 0.0441 1.6933 0.13229 0.52916 0.0882 1.0172 0.2205 1.464 0.39688"/>
  <path id="path3070" style="" d="m-10.697 115.7v2.8046h3.3426v1.2612h-3.3426v5.3622c-0.000004 0.80551 0.10877 1.3229 0.32632 1.5522 0.22342 0.22931 0.67321 0.34396 1.3494 0.34396h1.6669v1.3582h-1.6669c-1.2524 0-2.1167-0.23224-2.5929-0.69673-0.47625-0.47037-0.71438-1.3229-0.71437-2.5576v-5.3622h-1.1906v-1.2612h1.1906v-2.8046h1.6316"/>
  <path id="path3072" style="" d="m-0.7218 123.42c-1.3112 0-2.2196 0.14993-2.7252 0.44979-0.50565 0.29987-0.75847 0.81139-0.75847 1.5346-0.0000027 0.57621 0.18814 1.0348 0.56444 1.3758 0.38217 0.33514 0.89958 0.50271 1.5522 0.50271 0.89958 0 1.6198-0.3175 2.1608-0.9525 0.5468-0.64087 0.8202-1.4905 0.82021-2.5488v-0.3616h-1.614m3.2367-0.67028v5.6356h-1.6228v-1.4993c-0.37042 0.59972-0.83197 1.0436-1.3847 1.3317-0.55269 0.28222-1.2288 0.42333-2.0285 0.42333-1.0113 0-1.8168-0.28222-2.4165-0.84666-0.59384-0.57032-0.89076-1.3317-0.89076-2.2842-0.0000011-1.1112 0.37041-1.9491 1.1112-2.5135 0.74671-0.56444 1.858-0.84666 3.3337-0.84667h2.2754v-0.15875c-0.0000078-0.7467-0.24695-1.3229-0.74083-1.7286-0.48802-0.41156-1.1759-0.61735-2.0637-0.61736-0.56445 0.00001-1.1142 0.0676-1.6492 0.20285-0.53505 0.13524-1.0495 0.33809-1.5434 0.60854v-1.4993c0.59384-0.2293 1.17-0.39981 1.7286-0.51153 0.55856-0.11758 1.1024-0.17638 1.6316-0.17639 1.4287 0.00001 2.4959 0.37043 3.2015 1.1112 0.70555 0.74084 1.0583 1.8638 1.0583 3.369"/>
  <path id="path3074" style="" d="m5.9369 115.22h8.3255v1.4993h-6.544v3.8982h6.2706v1.4993h-6.2706v4.7713h6.7028v1.4993h-8.4843v-13.167"/>
  <path id="path3076" style="" d="m17.296 114.66h1.6228v13.723h-1.6228v-13.723"/>
  <path id="path3078" style="" d="m30.755 123.04v0.79375h-7.4612c0.07055 1.1171 0.40569 1.9697 1.0054 2.5576 0.6056 0.58208 1.4464 0.87312 2.5224 0.87312 0.62323 0 1.2259-0.0764 1.808-0.2293 0.58795-0.15287 1.17-0.38218 1.7462-0.68792v1.5346c-0.58209 0.24695-1.1789 0.4351-1.7903 0.56445-0.61149 0.12935-1.2318 0.19402-1.8609 0.19402-1.5757 0-2.8252-0.45861-3.7483-1.3758-0.91722-0.91722-1.3758-2.1578-1.3758-3.7218-0.000001-1.6169 0.43509-2.8986 1.3053-3.8453 0.87606-0.95249 2.0549-1.4287 3.5366-1.4288 1.3288 0.00001 2.3783 0.42922 3.1485 1.2876 0.7761 0.85255 1.1642 2.0138 1.1642 3.4837m-1.6228-0.47625c-0.01177-0.88781-0.26165-1.5963-0.74965-2.1255-0.48214-0.52916-1.123-0.79374-1.9226-0.79375-0.90547 0.00001-1.6316 0.25577-2.1784 0.76729-0.54093 0.51154-0.85255 1.2318-0.93486 2.1608l5.7855-0.009"/>
  <path id="path3080" style="" d="m41.109 120.4c0.40568-0.72906 0.89075-1.267 1.4552-1.614 0.56443-0.34689 1.2288-0.52034 1.9932-0.52035 1.0289 0.00001 1.8227 0.36161 2.3812 1.0848 0.55855 0.71732 0.83783 1.7404 0.83785 3.0692v5.9619h-1.6316v-5.909c-0.000014-0.94661-0.16758-1.6492-0.50271-2.1078-0.33515-0.45861-0.84668-0.68791-1.5346-0.68792-0.8408 0.00001-1.5052 0.27929-1.9932 0.83785-0.48802 0.55857-0.73202 1.32-0.73201 2.2842v5.5827h-1.6316v-5.909c-0.000008-0.95249-0.16758-1.6551-0.50271-2.1078-0.33515-0.45861-0.85255-0.68791-1.5522-0.68792-0.82903 0.00001-1.4875 0.28223-1.9756 0.84667-0.48801 0.55857-0.73202 1.317-0.73201 2.2754v5.5827h-1.6316v-9.8778h1.6316v1.5346c0.37041-0.6056 0.81432-1.0524 1.3317-1.3406 0.5174-0.28809 1.1318-0.43214 1.8433-0.43215 0.71731 0.00001 1.3258 0.18228 1.8256 0.54681 0.50564 0.36454 0.879 0.89371 1.1201 1.5875"/>
  <path id="path3082" style="" d="m63.563 117.39-3.1662 1.711 3.1662 1.7198-0.51153 0.8643-2.9633-1.7903v3.3249h-1.0054v-3.3249l-2.9633 1.7903-0.51153-0.8643 3.1662-1.7198-3.1662-1.711 0.51153-0.87313 2.9633 1.7904v-3.3249h1.0054v3.3249l2.9633-1.7904 0.51153 0.87313"/>
  <path id="path3084" style="" d="m74.252 123.04v0.79375h-7.4612c0.07055 1.1171 0.40569 1.9697 1.0054 2.5576 0.6056 0.58208 1.4464 0.87312 2.5224 0.87312 0.62323 0 1.2259-0.0764 1.808-0.2293 0.58795-0.15287 1.17-0.38218 1.7462-0.68792v1.5346c-0.58209 0.24695-1.1789 0.4351-1.7903 0.56445-0.61149 0.12935-1.2318 0.19402-1.8609 0.19402-1.5757 0-2.8252-0.45861-3.7483-1.3758-0.91722-0.91722-1.3758-2.1578-1.3758-3.7218-0.000001-1.6169 0.43509-2.8986 1.3053-3.8453 0.87606-0.95249 2.0549-1.4287 3.5366-1.4288 1.3288 0.00001 2.3783 0.42922 3.1485 1.2876 0.7761 0.85255 1.1642 2.0138 1.1642 3.4837m-1.6228-0.47625c-0.01177-0.88781-0.26165-1.5963-0.74965-2.1255-0.48214-0.52916-1.123-0.79374-1.9226-0.79375-0.90547 0.00001-1.6316 0.25577-2.1784 0.76729-0.54093 0.51154-0.85255 1.2318-0.93486 2.1608l5.7855-0.009"/>
  <path id="path3086" style="" d="m76.916 114.66h1.6228v13.723h-1.6228v-13.723"/>
  <path id="path3088" style="" d="m90.374 123.04v0.79375h-7.4612c0.07055 1.1171 0.40569 1.9697 1.0054 2.5576 0.6056 0.58208 1.4464 0.87312 2.5224 0.87312 0.62323 0 1.2259-0.0764 1.808-0.2293 0.58795-0.15287 1.17-0.38218 1.7462-0.68792v1.5346c-0.58209 0.24695-1.1789 0.4351-1.7903 0.56445-0.61149 0.12935-1.2318 0.19402-1.8609 0.19402-1.5757 0-2.8252-0.45861-3.7483-1.3758-0.91722-0.91722-1.3758-2.1578-1.3758-3.7218-0.000001-1.6169 0.43509-2.8986 1.3053-3.8453 0.87606-0.95249 2.0549-1.4287 3.5366-1.4288 1.3288 0.00001 2.3783 0.42922 3.1485 1.2876 0.7761 0.85255 1.1642 2.0138 1.1642 3.4837m-1.6228-0.47625c-0.01177-0.88781-0.26165-1.5963-0.74965-2.1255-0.48214-0.52916-1.123-0.79374-1.9226-0.79375-0.90547 0.00001-1.6316 0.25577-2.1784 0.76729-0.54093 0.51154-0.85255 1.2318-0.93486 2.1608l5.7855-0.009"/>
  <path id="path3090" style="" d="m93.038 118.51h1.6228v10.054c-0.000003 1.2582-0.24107 2.1696-0.72319 2.734-0.47625 0.56444-1.2465 0.84667-2.3107 0.84667h-0.61736v-1.3758h0.43215c0.61736 0 1.0378-0.14405 1.2612-0.43215 0.22342-0.28223 0.33514-0.87313 0.33514-1.7727v-10.054m0-3.8453h1.6228v2.0549h-1.6228v-2.0549"/>
  <path id="path3092" style="" d="m106.5 123.04v0.79375h-7.4612c0.07055 1.1171 0.40569 1.9697 1.0054 2.5576 0.6056 0.58208 1.4464 0.87312 2.5224 0.87312 0.62323 0 1.2259-0.0764 1.808-0.2293 0.58795-0.15287 1.17-0.38218 1.7462-0.68792v1.5346c-0.58209 0.24695-1.1789 0.4351-1.7903 0.56445-0.61149 0.12935-1.2318 0.19402-1.8609 0.19402-1.5758 0-2.8252-0.45861-3.7483-1.3758-0.91722-0.91722-1.3758-2.1578-1.3758-3.7218-0.000001-1.6169 0.43509-2.8986 1.3053-3.8453 0.87606-0.95249 2.0549-1.4287 3.5366-1.4288 1.3288 0.00001 2.3783 0.42922 3.1485 1.2876 0.7761 0.85255 1.1642 2.0138 1.1642 3.4837m-1.6228-0.47625c-0.0118-0.88781-0.26165-1.5963-0.74965-2.1255-0.48214-0.52916-1.123-0.79374-1.9226-0.79375-0.90546 0.00001-1.6316 0.25577-2.1784 0.76729-0.54092 0.51154-0.85254 1.2318-0.93486 2.1608l5.7855-0.009"/>
 </g>
 <g id="g60" transform="translate(-2.5426 -7.8658)">
  <path id="rect62" fill="#fdfd04" d="m120 50h20v20h-20z"/>
  <path id="rect64" d="m120 50h20v20h-20z" stroke="#000" stroke-width="2" fill="none"/>
 </g>
 <g id="text66">
  <path id="path3097" style="" d="m-54 45.217h1.7815v11.668h6.4117v1.4993h-8.1933v-13.167"/>
  <path id="path3099" style="" d="m-44.016 48.506h1.6228v9.8778h-1.6228v-9.8778m0-3.8453h1.6228v2.0549h-1.6228v-2.0549"/>
  <path id="path3101" style="" d="m-32.71 48.797v1.5346c-0.45862-0.23518-0.93487-0.41156-1.4287-0.52917-0.4939-0.11758-1.0054-0.17638-1.5346-0.17639-0.80551 0.000009-1.4111 0.12348-1.8168 0.37042-0.39982 0.24695-0.59972 0.61737-0.59972 1.1112-0.000002 0.3763 0.14405 0.67322 0.43215 0.89076 0.2881 0.21167 0.86724 0.41452 1.7374 0.60854l0.55562 0.12347c1.1524 0.24695 1.9697 0.59679 2.4518 1.0495 0.488 0.44686 0.732 1.073 0.73201 1.8785-0.000008 0.91722-0.36454 1.6434-1.0936 2.1784-0.7232 0.53505-1.7198 0.80257-2.9898 0.80257-0.52917-0.000001-1.0819-0.05292-1.6581-0.15875-0.57033-0.09995-1.173-0.25282-1.808-0.45861v-1.6757c0.59972 0.31162 1.1906 0.54681 1.7727 0.70556 0.58208 0.15287 1.1583 0.22931 1.7286 0.2293 0.76435 0.000001 1.3523-0.12935 1.7639-0.38806 0.41157-0.26458 0.61735-0.635 0.61736-1.1112-0.000007-0.44097-0.14994-0.77905-0.44979-1.0142-0.29399-0.23518-0.94368-0.46155-1.9491-0.6791l-0.56444-0.13229c-1.0054-0.21166-1.7316-0.53504-2.1784-0.97014-0.44685-0.44097-0.67028-1.0436-0.67028-1.808-0.000001-0.92897 0.32926-1.6463 0.98778-2.1519 0.65852-0.50564 1.5934-0.75846 2.8046-0.75847 0.59972 0.000011 1.1642 0.04411 1.6933 0.13229 0.52916 0.0882 1.0172 0.2205 1.464 0.39687"/>
  <path id="path3103" style="" d="m-27.983 45.702v2.8046h3.3426v1.2612h-3.3426v5.3622c-0.000003 0.80551 0.10877 1.3229 0.32632 1.5522 0.22342 0.22931 0.67321 0.34396 1.3494 0.34396h1.6669v1.3582h-1.6669c-1.2524 0-2.1167-0.23224-2.5929-0.69674-0.47625-0.47037-0.71438-1.3229-0.71437-2.5576v-5.3622h-1.1906v-1.2612h1.1906v-2.8046h1.6316"/>
  <path id="path3105" style="" d="m-18.008 53.419c-1.3112 0.000005-2.2196 0.14994-2.7252 0.44979-0.50565 0.29986-0.75847 0.81139-0.75847 1.5346-0.000003 0.57621 0.18814 1.0348 0.56444 1.3758 0.38217 0.33514 0.89958 0.50271 1.5522 0.50271 0.89958 0.000001 1.6198-0.3175 2.1608-0.9525 0.5468-0.64088 0.8202-1.4905 0.82021-2.5488v-0.3616h-1.614m3.2367-0.67028v5.6356h-1.6228v-1.4993c-0.37042 0.59972-0.83197 1.0436-1.3847 1.3317-0.55269 0.28222-1.2288 0.42333-2.0285 0.42333-1.0113-0.000001-1.8168-0.28222-2.4165-0.84667-0.59384-0.57032-0.89076-1.3317-0.89076-2.2842-0.000001-1.1112 0.37042-1.9491 1.1112-2.5135 0.74671-0.56444 1.858-0.84666 3.3337-0.84667h2.2754v-0.15875c-0.000008-0.7467-0.24695-1.3229-0.74083-1.7286-0.48802-0.41156-1.1759-0.61735-2.0637-0.61736-0.56445 0.000009-1.1142 0.06762-1.6492 0.20285-0.53505 0.13524-1.0495 0.33809-1.5434 0.60854v-1.4993c0.59384-0.2293 1.17-0.3998 1.7286-0.51153 0.55856-0.11758 1.1024-0.17638 1.6316-0.17639 1.4287 0.000011 2.4959 0.37043 3.2015 1.1112 0.70554 0.74084 1.0583 1.8638 1.0583 3.369"/>
  <path id="path3107" style="" d="m-11.349 45.217h8.3255v1.4993h-6.544v3.8982h6.2706v1.4993h-6.2706v4.7713h6.7028v1.4993h-8.4843v-13.167"/>
  <path id="path3109" style="" d="m0.010212 44.661h1.6228v13.723h-1.6228v-13.723"/>
  <path id="path3111" style="" d="m13.469 53.04v0.79375h-7.4612c0.070553 1.1171 0.40569 1.9697 1.0054 2.5576 0.6056 0.58208 1.4464 0.87312 2.5224 0.87312 0.62323 0.000001 1.2259-0.07643 1.808-0.2293 0.58795-0.15287 1.17-0.38217 1.7462-0.68792v1.5346c-0.58209 0.24694-1.1789 0.43509-1.7903 0.56444-0.61149 0.12935-1.2318 0.19403-1.8609 0.19403-1.5764-0.001-2.8258-0.46-3.7489-1.377-0.9172-0.917-1.3758-2.158-1.3758-3.722-0.000001-1.6169 0.43509-2.8986 1.3053-3.8453 0.87606-0.95249 2.0549-1.4287 3.5366-1.4287 1.3288 0.000011 2.3783 0.42922 3.1485 1.2876 0.7761 0.85255 1.1642 2.0138 1.1642 3.4837m-1.6228-0.47625c-0.01177-0.88782-0.26165-1.5963-0.74965-2.1255-0.48214-0.52916-1.123-0.79374-1.9226-0.79375-0.90547 0.000009-1.6316 0.25577-2.1784 0.76729-0.54093 0.51153-0.85255 1.2318-0.93486 2.1608l5.7855-0.0088"/>
  <path id="path3113" style="" d="m23.823 50.403c0.40568-0.72906 0.89075-1.267 1.4552-1.614 0.56443-0.34689 1.2288-0.52034 1.9932-0.52035 1.0289 0.000011 1.8227 0.36161 2.3812 1.0848 0.55855 0.71732 0.83783 1.7404 0.83785 3.0692v5.9619h-1.6316v-5.909c-0.000015-0.94661-0.16758-1.6492-0.50271-2.1078-0.33515-0.4586-0.84668-0.68791-1.5346-0.68792-0.8408 0.000009-1.5052 0.27929-1.9932 0.83785-0.48802 0.55857-0.73202 1.32-0.73201 2.2842v5.5827h-1.6316v-5.909c-0.000008-0.95249-0.16758-1.6551-0.50271-2.1078-0.33514-0.4586-0.85255-0.68791-1.5522-0.68792-0.82903 0.000009-1.4875 0.28223-1.9756 0.84666-0.48801 0.55857-0.73202 1.317-0.73201 2.2754v5.5827h-1.6316v-9.8778h1.6316v1.5346c0.37041-0.60559 0.81432-1.0524 1.3317-1.3406 0.5174-0.28809 1.1318-0.43214 1.8433-0.43215 0.71731 0.000011 1.3258 0.18228 1.8256 0.5468 0.50564 0.36455 0.87899 0.89371 1.1201 1.5875"/>
  <path id="path3115" style="" d="m46.277 47.386-3.1662 1.711 3.1662 1.7198-0.51153 0.8643-2.9633-1.7903v3.3249h-1.0054v-3.3249l-2.9633 1.7903-0.51153-0.8643 3.1662-1.7198-3.1662-1.711 0.51153-0.87312 2.9633 1.7903v-3.3249h1.0054v3.3249l2.9633-1.7903 0.51153 0.87312"/>
  <path id="path3117" style="" d="m56.208 50.403c0.40568-0.72906 0.89075-1.267 1.4552-1.614 0.56443-0.34689 1.2288-0.52034 1.9932-0.52035 1.0289 0.000011 1.8227 0.36161 2.3812 1.0848 0.55855 0.71732 0.83783 1.7404 0.83785 3.0692v5.9619h-1.6316v-5.909c-0.000015-0.94661-0.16758-1.6492-0.50271-2.1078-0.33515-0.4586-0.84668-0.68791-1.5346-0.68792-0.8408 0.000009-1.5052 0.27929-1.9932 0.83785-0.48802 0.55857-0.73202 1.32-0.73201 2.2842v5.5827h-1.6316v-5.909c-0.000008-0.95249-0.16758-1.6551-0.50271-2.1078-0.33514-0.4586-0.85255-0.68791-1.5522-0.68792-0.82903 0.000009-1.4875 0.28223-1.9756 0.84666-0.48801 0.55857-0.73202 1.317-0.73201 2.2754v5.5827h-1.6316v-9.8778h1.6316v1.5346c0.37041-0.60559 0.81432-1.0524 1.3317-1.3406 0.5174-0.28809 1.1318-0.43214 1.8433-0.43215 0.71731 0.000011 1.3258 0.18228 1.8256 0.5468 0.50564 0.36455 0.87899 0.89371 1.1201 1.5875"/>
  <path id="path3119" style="" d="m69.948 49.644c-0.87019 0.000009-1.5581 0.34103-2.0637 1.0231-0.50565 0.67616-0.75847 1.6051-0.75847 2.7869-0.000003 1.1818 0.24988 2.1137 0.74965 2.7958 0.50564 0.67616 1.1965 1.0142 2.0726 1.0142 0.8643 0.000001 1.5493-0.34102 2.0549-1.0231 0.50564-0.68203 0.75846-1.611 0.75847-2.7869-0.000008-1.17-0.25283-2.0961-0.75847-2.7781-0.50566-0.68791-1.1906-1.0319-2.0549-1.0319m0-1.3758c1.4111 0.000011 2.5194 0.45862 3.3249 1.3758 0.8055 0.91723 1.2083 2.1872 1.2083 3.81-0.00001 1.6169-0.40276 2.8869-1.2083 3.81-0.80552 0.91722-1.9138 1.3758-3.3249 1.3758-1.417-0.000001-2.5282-0.45861-3.3337-1.3758-0.79963-0.9231-1.1994-2.1931-1.1994-3.81-0.000001-1.6228 0.39981-2.8928 1.1994-3.81 0.8055-0.91721 1.9168-1.3758 3.3337-1.3758"/>
  <path id="path3121" style="" d="m76.457 48.506h7.7082v1.4817l-6.103 7.0996h6.103v1.2965h-7.9287v-1.4817l6.103-7.0996h-5.8826v-1.2965"/>
  <path id="path3123" style="" d="m93.152 53.331c-0.000008-1.1759-0.24401-2.0873-0.73201-2.734-0.48214-0.64675-1.1612-0.97013-2.0373-0.97014-0.87019 0.000009-1.5493 0.32339-2.0373 0.97014-0.48213 0.64677-0.7232 1.5581-0.72319 2.734-0.000002 1.17 0.24106 2.0784 0.72319 2.7252 0.488 0.64676 1.1671 0.97014 2.0373 0.97014 0.87606 0.000002 1.5552-0.32338 2.0373-0.97014 0.488-0.64676 0.732-1.5552 0.73201-2.7252m1.6228 3.8276c-0.00001 1.6816-0.37336 2.931-1.1201 3.7483-0.74672 0.82314-1.8903 1.2347-3.4308 1.2347-0.57033-0.000004-1.1083-0.0441-1.614-0.13229-0.50565-0.08232-0.9966-0.21167-1.4728-0.38806v-1.5787c0.47625 0.2587 0.94662 0.44979 1.4111 0.57326 0.46449 0.12347 0.9378 0.18521 1.4199 0.18521 1.0642-0.000002 1.8609-0.27928 2.3901-0.83785 0.52916-0.55269 0.79374-1.3905 0.79375-2.5135v-0.80257c-0.33515 0.58208-0.76436 1.0172-1.2876 1.3053-0.52329 0.2881-1.1495 0.43215-1.8785 0.43215-1.2112 0-2.1872-0.46155-2.9281-1.3847-0.74083-0.9231-1.1112-2.1461-1.1112-3.6689-0.000001-1.5287 0.37042-2.7546 1.1112-3.6777 0.74083-0.92309 1.7168-1.3846 2.9281-1.3847 0.72907 0.000011 1.3552 0.14406 1.8785 0.43215 0.52328 0.28811 0.95249 0.7232 1.2876 1.3053v-1.4993h1.6228v8.6519"/>
  <path id="path3125" style="" d="m101.95 49.644c-0.87018 0.000009-1.5581 0.34103-2.0637 1.0231-0.50565 0.67616-0.75847 1.6051-0.75847 2.7869-0.000003 1.1818 0.24988 2.1137 0.74965 2.7958 0.50564 0.67616 1.1965 1.0142 2.0726 1.0142 0.8643 0.000001 1.5493-0.34102 2.0549-1.0231 0.50564-0.68203 0.75846-1.611 0.75847-2.7869-0.00001-1.17-0.25283-2.0961-0.75847-2.7781-0.50565-0.68791-1.1906-1.0319-2.0549-1.0319m0-1.3758c1.4111 0.000011 2.5194 0.45862 3.3249 1.3758 0.8055 0.91723 1.2082 2.1872 1.2083 3.81-0.00001 1.6169-0.40276 2.8869-1.2083 3.81-0.80552 0.91722-1.9138 1.3758-3.3249 1.3758-1.417-0.000001-2.5282-0.45861-3.3337-1.3758-0.79963-0.9231-1.1994-2.1931-1.1994-3.81-0.000001-1.6228 0.39981-2.8928 1.1994-3.81 0.8055-0.91721 1.9168-1.3758 3.3337-1.3758"/>
 </g>
 <g id="g70" transform="translate(-2.5426 -7.8658)">
  <path id="path72" d="m140 60c23.24 0 70-10.953 70 29.311" stroke="#000" stroke-width="2" fill="none"/>
  <path id="polygon74" d="m210 89.311 5-2.5-5 10-5-10z"/>
  <path id="polygon76" d="m210 89.311 5-2.5-5 10-5-10z" stroke="#000" stroke-width="2" fill="none"/>
 </g>
 <g id="g78" transform="translate(-2.5426 -7.8658)">
  <path id="path80" d="m140 60c23.24 0 170-20.993 170 29.271" stroke="#000" stroke-width="2" fill="none"/>
  <path id="polygon82" d="m310 89.271 5-2.5-5 10-5-10z"/>
  <path id="polygon84" d="m310 89.271 5-2.5-5 10-5-10z" stroke="#000" stroke-width="2" fill="none"/>
 </g>
 <g id="g86" transform="translate(-2.5426 -7.8658)">
  <path id="path88" d="m140 60c23.24 0 270-31.001 270 29.263" stroke="#000" stroke-width="2" fill="none"/>
  <path id="polygon90" d="m410 89.263 5-2.5-5 10-5-10z"/>
  <path id="polygon92" d="m410 89.263 5-2.5-5 10-5-10z" stroke="#000" stroke-width="2" fill="none"/>
 </g>
 <g id="g94" transform="translate(-2.5426 -7.8658)">
  <path id="rect96" fill="#fdfd04" d="m180 150h60v20h-60z"/>
  <path id="rect98" d="m180 150h60v20h-60z" stroke="#000" stroke-width="2" fill="none"/>
 </g>
 <g id="g100" transform="translate(-2.5426 -7.8658)">
  <path id="rect102" fill="#fdfd04" d="m280 150h60v20h-60z"/>
  <path id="rect104" d="m280 150h60v20h-60z" stroke="#000" stroke-width="2" fill="none"/>
 </g>
 <g id="g106" transform="translate(-2.5426 -7.8658)">
  <path id="rect108" fill="#fdfd04" d="m380 150h60v20h-60z"/>
  <path id="rect110" d="m380 150h60v20h-60z" stroke="#000" stroke-width="2" fill="none"/>
 </g>
 <g id="g112" transform="translate(-2.5426 -7.8658)">
  <path id="path114" d="m340 160c40 0 0-30 30.264-30" stroke="#000" stroke-width="2" fill="none"/>
  <path id="polygon116" d="m370.26 130-2.5-5 10 5-10 5z"/>
  <path id="polygon118" d="m370.26 130-2.5-5 10 5-10 5z" stroke="#000" stroke-width="2" fill="none"/>
 </g>
 <path id="line120" d="m377.46 162.13 60-20" stroke="#000" stroke-width="2" fill="none"/>
 <path id="line122" d="m377.46 142.13 60 20" stroke="#000" stroke-width="2" fill="none"/>
</svg>
