<?xml version="1.0" encoding="UTF-8" standalone="no"?>
<!-- Created with Inkscape (http://www.inkscape.org/) -->
<svg id="svg2" xmlns:rdf="http://www.w3.org/1999/02/22-rdf-syntax-ns#" xmlns="http://www.w3.org/2000/svg" height="398.29" width="705.72" version="1.1" xmlns:cc="http://creativecommons.org/ns#" xmlns:dc="http://purl.org/dc/elements/1.1/" viewBox="66 48 393.35974 208.88609">
 <metadata id="metadata162">
  <rdf:RDF>
   <cc:Work rdf:about="">
    <dc:format>image/svg+xml</dc:format>
    <dc:type rdf:resource="http://purl.org/dc/dcmitype/StillImage"/>
   </cc:Work>
  </rdf:RDF>
 </metadata>
 <g id="g4" transform="translate(-1.6403 -7.557)">
  <path id="rect6" fill="#7babe3" d="m280 100h60v60h-60z"/>
  <path id="rect8" d="m280 100h60v60h-60z" stroke="#000" stroke-width="2" fill="none"/>
 </g>
 <g id="g10" transform="translate(-1.6403 -7.557)">
  <path id="rect12" fill="#7babe3" d="m400 100h60v60h-60z"/>
  <path id="rect14" d="m400 100h60v60h-60z" stroke="#000" stroke-width="2" fill="none"/>
 </g>
 <g id="g16" transform="translate(-1.6403 -7.557)">
  <path id="path18" d="m240 160c40 0 0-30 30.264-30" stroke="#000" stroke-width="2" fill="none"/>
  <path id="polygon20" d="m270.26 130-2.5-5 10 5-10 5z"/>
  <path id="polygon22" d="m270.26 130-2.5-5 10 5-10 5z" stroke="#000" stroke-width="2" fill="none"/>
 </g>
 <g id="g24" transform="translate(-1.6403 -7.557)">
  <path id="rect26" fill="#fdfd04" d="m120 220h20v20h-20z"/>
  <path id="rect28" d="m120 220h20v20h-20z" stroke="#000" stroke-width="2" fill="none"/>
 </g>
 <g id="text30">
  <path id="path3068" style="" d="m93.42 224.79v-5.9796h1.6228v5.9178c-0.000003 0.93487 0.18226 1.6375 0.5468 2.1078 0.36453 0.46449 0.91134 0.69673 1.6404 0.69673 0.87606 0 1.5669-0.27928 2.0726-0.83784 0.51152-0.55856 0.76729-1.32 0.76729-2.2842v-5.6003h1.6228v9.8778h-1.6228v-1.5169c-0.39394 0.59972-0.85255 1.0466-1.3758 1.3406-0.51741 0.2881-1.1201 0.43215-1.808 0.43215-1.1348 0-1.9961-0.35277-2.5841-1.0583-0.58796-0.70555-0.88194-1.7374-0.88194-3.0956m4.0834-6.2177"/>
  <path id="path3070" style="" d="m105.05 218.82h1.6228v10.054c0 1.2582-0.24107 2.1696-0.72319 2.734-0.47626 0.56444-1.2465 0.84666-2.3107 0.84667h-0.61736v-1.3758h0.43216c0.61736-0.00001 1.0378-0.14406 1.2612-0.43216 0.22342-0.28222 0.33513-0.87312 0.33513-1.7727v-10.054m0-3.8453h1.6228v2.0549h-1.6228v-2.0549"/>
 </g>
 <g id="g34" transform="translate(-1.6403 -7.557)">
  <path id="line36" d="m430 70v20.264" stroke="#000" stroke-width="2" fill="none"/>
  <path id="polygon38" d="m430 90.264 5-2.5-5 10-5-10z"/>
  <path id="polygon40" d="m430 90.264 5-2.5-5 10-5-10z" stroke="#000" stroke-width="2" fill="none"/>
 </g>
 <g id="g42" transform="translate(-1.6403 -7.557)">
  <path id="rect44" fill="#fdfd04" d="m120 120h20v20h-20z"/>
  <path id="rect46" d="m120 120h20v20h-20z" stroke="#000" stroke-width="2" fill="none"/>
 </g>
 <g id="text48">
  <path id="path3078" style="" d="m75.155 123.35v0.79375h-7.4612c0.07055 1.1171 0.40569 1.9697 1.0054 2.5576 0.6056 0.58208 1.4464 0.87312 2.5224 0.87312 0.62323 0 1.2259-0.0764 1.808-0.2293 0.58795-0.15287 1.17-0.38218 1.7462-0.68792v1.5346c-0.58209 0.24695-1.1789 0.43509-1.7903 0.56444-0.61149 0.12936-1.2318 0.19403-1.8609 0.19403-1.5757 0-2.8252-0.45861-3.7483-1.3758-0.91722-0.91722-1.3758-2.1578-1.3758-3.7218-0.000001-1.6169 0.43509-2.8986 1.3053-3.8453 0.87606-0.95249 2.0549-1.4287 3.5366-1.4288 1.3288 0.00001 2.3783 0.42922 3.1485 1.2876 0.7761 0.85255 1.1642 2.0138 1.1642 3.4837m-1.6228-0.47625c-0.01177-0.88781-0.26165-1.5963-0.74965-2.1255-0.48214-0.52916-1.123-0.79374-1.9226-0.79375-0.90547 0.00001-1.6316 0.25577-2.1784 0.76729-0.54093 0.51154-0.85255 1.2318-0.93486 2.1608l5.7855-0.009"/>
  <path id="path3080" style="" d="m77.818 114.97h1.6228v13.723h-1.6228v-13.723"/>
  <path id="path3082" style="" d="m91.276 123.35v0.79375h-7.4612c0.07055 1.1171 0.40569 1.9697 1.0054 2.5576 0.6056 0.58208 1.4464 0.87312 2.5224 0.87312 0.62323 0 1.2259-0.0764 1.808-0.2293 0.58795-0.15287 1.17-0.38218 1.7462-0.68792v1.5346c-0.58209 0.24695-1.1789 0.43509-1.7903 0.56444-0.61149 0.12936-1.2318 0.19403-1.8609 0.19403-1.5757 0-2.8252-0.45861-3.7483-1.3758-0.91722-0.91722-1.3758-2.1578-1.3758-3.7218-0.000001-1.6169 0.43509-2.8986 1.3053-3.8453 0.87606-0.95249 2.0549-1.4287 3.5366-1.4288 1.3288 0.00001 2.3783 0.42922 3.1485 1.2876 0.7761 0.85255 1.1642 2.0138 1.1642 3.4837m-1.6228-0.47625c-0.01177-0.88781-0.26165-1.5963-0.74965-2.1255-0.48214-0.52916-1.123-0.79374-1.9226-0.79375-0.90547 0.00001-1.6316 0.25577-2.1784 0.76729-0.54093 0.51154-0.85255 1.2318-0.93486 2.1608l5.7855-0.009"/>
  <path id="path3084" style="" d="m93.94 118.82h1.6228v10.054c-0.000003 1.2582-0.24107 2.1696-0.72319 2.734-0.47625 0.56444-1.2465 0.84666-2.3107 0.84667h-0.61736v-1.3758h0.43215c0.61736-0.00001 1.0378-0.14406 1.2612-0.43216 0.22342-0.28222 0.33514-0.87312 0.33514-1.7727v-10.054m0-3.8453h1.6228v2.0549h-1.6228v-2.0549"/>
  <path id="path3086" style="" d="m107.4 123.35v0.79375h-7.4612c0.07056 1.1171 0.40569 1.9697 1.0054 2.5576 0.60559 0.58208 1.4464 0.87312 2.5224 0.87312 0.62323 0 1.2259-0.0764 1.808-0.2293 0.58795-0.15287 1.17-0.38218 1.7462-0.68792v1.5346c-0.58209 0.24695-1.1789 0.43509-1.7904 0.56444-0.61149 0.12936-1.2318 0.19403-1.8609 0.19403-1.5757 0-2.8252-0.45861-3.7483-1.3758-0.91722-0.91722-1.3758-2.1578-1.3758-3.7218-0.000001-1.6169 0.43509-2.8986 1.3053-3.8453 0.87606-0.95249 2.0549-1.4287 3.5366-1.4288 1.3288 0.00001 2.3783 0.42922 3.1485 1.2876 0.7761 0.85255 1.1642 2.0138 1.1642 3.4837m-1.6228-0.47625c-0.0118-0.88781-0.26165-1.5963-0.74965-2.1255-0.48214-0.52916-1.123-0.79374-1.9226-0.79375-0.90547 0.00001-1.6316 0.25577-2.1784 0.76729-0.54093 0.51154-0.85255 1.2318-0.93486 2.1608l5.7856-0.009"/>
 </g>
 <g id="g52" transform="translate(-1.6403 -7.557)">
  <path id="rect54" fill="#7babe3" d="m180 100h60v60h-60z"/>
  <path id="rect56" d="m180 100h60v60h-60z" stroke="#000" stroke-width="2" fill="none"/>
 </g>
 <g id="g58" transform="translate(-1.6403 -7.557)">
  <path id="path60" d="m139.5 130h30.764" stroke="#000" stroke-width="2" fill="none"/>
  <path id="polygon62" d="m170.26 130-2.5-5 10 5-10 5z"/>
  <path id="polygon64" d="m170.26 130-2.5-5 10 5-10 5z" stroke="#000" stroke-width="2" fill="none"/>
 </g>
 <g id="text66">
  <path id="path3093" style="" d="m194.47 129.57h4.3656v-15.068l-4.7493 0.9525v-2.4342l4.7228-0.9525h2.6723v17.502h4.3656v2.249h-11.377v-2.249"/>
  <path id="path3095" style="" d="m213.56 129.57h9.3266v2.249h-12.541v-2.249c1.0142-1.0495 2.3945-2.4562 4.1407-4.2201 1.7551-1.7727 2.8575-2.9148 3.3073-3.4264 0.85547-0.9613 1.4508-1.7727 1.7859-2.4342 0.34395-0.67026 0.51593-1.3273 0.51594-1.9711-0.00001-1.0495-0.37043-1.905-1.1112-2.5665-0.73202-0.66144-1.6889-0.99217-2.8707-0.99218-0.83785 0.00001-1.7242 0.14553-2.6591 0.43656-0.92604 0.29106-1.9182 0.73203-2.9766 1.3229v-2.6987c1.076-0.43214 2.0814-0.75846 3.0162-0.97896 0.93486-0.22047 1.7903-0.33071 2.5665-0.33073 2.0461 0.00002 3.6777 0.51155 4.8948 1.5346 1.2171 1.0231 1.8256 2.3901 1.8256 4.101-0.00002 0.8114-0.15436 1.5831-0.46302 2.3151-0.29988 0.7232-0.85109 1.5787-1.6536 2.5664-0.2205 0.25578-0.92164 0.99661-2.1034 2.2225-1.1818 1.2171-2.8487 2.9236-5.0006 5.1197"/>
 </g>
 <g id="text70">
  <path id="path3098" style="" d="m302.1 121.17c1.2788 0.27342 2.2754 0.84227 2.9898 1.7066 0.72318 0.86432 1.0848 1.9315 1.0848 3.2015-0.00001 1.9491-0.67029 3.4572-2.0108 4.5244-1.3406 1.0672-3.2456 1.6007-5.715 1.6007-0.82904 0-1.6845-0.0838-2.5665-0.25135-0.87313-0.15875-1.7771-0.40128-2.712-0.7276v-2.5797c0.74083 0.43216 1.5522 0.75848 2.4342 0.97896 0.88194 0.22049 1.8036 0.33073 2.7649 0.33073 1.6757 0 2.9501-0.33073 3.8232-0.99219 0.88193-0.66145 1.3229-1.6228 1.3229-2.884-0.00001-1.1642-0.41011-2.0726-1.2303-2.7252-0.8114-0.66145-1.9447-0.99217-3.3999-0.99218h-2.3019v-2.196h2.4077c1.3141 0.00001 2.3195-0.26016 3.0162-0.78052 0.69672-0.52916 1.0451-1.2876 1.0451-2.2754-0.00001-1.0142-0.36161-1.7903-1.0848-2.3283-0.71438-0.54678-1.7418-0.82019-3.0824-0.8202-0.73202 0.00001-1.517 0.0794-2.3548 0.23812-0.83785 0.15877-1.7595 0.40571-2.7649 0.74083v-2.3812c1.0142-0.28221 1.9623-0.49387 2.8443-0.635 0.89075-0.14109 1.7286-0.21165 2.5135-0.21167 2.0285 0.00002 3.6336 0.46304 4.8154 1.3891 1.1818 0.91724 1.7727 2.1608 1.7727 3.7306-0.00001 1.0936-0.3131 2.0197-0.93927 2.7781-0.62619 0.74967-1.517 1.27-2.6723 1.561"/>
  <path id="path3100" style="" d="m317.3 120.88c-1.1994 0.00001-2.152 0.41012-2.8575 1.2303-0.69674 0.82022-1.0451 1.9447-1.0451 3.3734-0.00001 1.4199 0.34836 2.5444 1.0451 3.3734 0.70555 0.82021 1.658 1.2303 2.8575 1.2303 1.1994 0 2.1475-0.4101 2.8443-1.2303 0.70555-0.82902 1.0583-1.9535 1.0583-3.3734-0.00002-1.4287-0.35279-2.5532-1.0583-3.3734-0.69674-0.82019-1.6448-1.2303-2.8443-1.2303m5.3049-8.374v2.4342c-0.67029-0.31748-1.3494-0.56001-2.0373-0.7276-0.67911-0.16755-1.3538-0.25134-2.0241-0.25135-1.7639 0.00001-3.1133 0.59533-4.0481 1.7859-0.92605 1.1906-1.4552 2.9898-1.5875 5.3975 0.52034-0.76727 1.173-1.3538 1.9579-1.7595 0.78493-0.4145 1.6492-0.62176 2.5929-0.62177 1.9844 0.00001 3.5498 0.60414 4.6964 1.8124 1.1553 1.1994 1.733 2.8355 1.733 4.908-0.00001 2.0285-0.59973 3.6556-1.7992 4.8816-1.1995 1.2259-2.7958 1.8388-4.789 1.8388-2.2842 0-4.0305-0.87312-5.2388-2.6194-1.2083-1.7551-1.8124-4.2951-1.8124-7.62 0-3.1221 0.74083-5.6091 2.2225-7.4612 1.4817-1.8609 3.4704-2.7913 5.9663-2.7914 0.67027 0.00002 1.345 0.0662 2.0241 0.19844 0.68791 0.13231 1.4023 0.33075 2.1431 0.59531"/>
 </g>
 <g id="text74">
  <path id="path3103" style="" d="m419.72 122.44c-1.27 0.00001-2.271 0.33956-3.003 1.0186-0.7232 0.6791-1.0848 1.614-1.0848 2.8046-0.00001 1.1906 0.36159 2.1255 1.0848 2.8046 0.73201 0.67909 1.733 1.0186 3.003 1.0186s2.271-0.33955 3.003-1.0186c0.732-0.68792 1.098-1.6228 1.098-2.8046-0.00001-1.1906-0.36602-2.1255-1.098-2.8046-0.7232-0.67909-1.7242-1.0186-3.003-1.0186m-2.6723-1.1377c-1.1465-0.28221-2.0417-0.81578-2.6855-1.6007-0.635-0.78492-0.9525-1.7418-0.9525-2.8707 0-1.5787 0.56003-2.8266 1.6801-3.7438 1.1289-0.9172 2.6723-1.3758 4.6302-1.3758 1.9667 0.00002 3.5101 0.45863 4.6302 1.3758 1.12 0.91724 1.6801 2.1652 1.6801 3.7438-0.00001 1.1289-0.32192 2.0858-0.96573 2.8707-0.63501 0.78494-1.5214 1.3185-2.6591 1.6007 1.2876 0.29988 2.2886 0.88637 3.003 1.7595 0.72318 0.87313 1.0848 1.9403 1.0848 3.2015-0.00001 1.9138-0.58651 3.3822-1.7595 4.4053-1.1642 1.0231-2.8354 1.5346-5.0138 1.5346s-3.8541-0.51152-5.0271-1.5346c-1.1642-1.023-1.7462-2.4915-1.7462-4.4053 0-1.2612 0.3616-2.3283 1.0848-3.2015 0.72319-0.87311 1.7286-1.4596 3.0162-1.7595m-0.97896-4.2201c0 1.0231 0.31749 1.8212 0.9525 2.3945 0.64381 0.57328 1.5434 0.85991 2.6988 0.8599 1.1465 0.00001 2.0417-0.28662 2.6855-0.8599 0.65263-0.57325 0.97895-1.3714 0.97896-2.3945-0.00001-1.023-0.32633-1.8212-0.97896-2.3945-0.64383-0.57325-1.539-0.85988-2.6855-0.8599-1.1554 0.00002-2.0549 0.28665-2.6988 0.8599-0.63501 0.57328-0.9525 1.3714-0.9525 2.3945"/>
  <path id="path3105" style="" d="m433.56 129.57h9.3266v2.249h-12.541v-2.249c1.0142-1.0495 2.3945-2.4562 4.1407-4.2201 1.7551-1.7727 2.8575-2.9148 3.3073-3.4264 0.85547-0.9613 1.4508-1.7727 1.7859-2.4342 0.34395-0.67026 0.51593-1.3273 0.51594-1.9711-0.00001-1.0495-0.37043-1.905-1.1112-2.5665-0.73202-0.66144-1.6889-0.99217-2.8707-0.99218-0.83785 0.00001-1.7242 0.14553-2.6591 0.43656-0.92604 0.29106-1.9182 0.73203-2.9766 1.3229v-2.6987c1.076-0.43214 2.0814-0.75846 3.0162-0.97896 0.93486-0.22047 1.7903-0.33071 2.5665-0.33073 2.0461 0.00002 3.6777 0.51155 4.8948 1.5346 1.2171 1.0231 1.8256 2.3901 1.8256 4.101-0.00002 0.8114-0.15436 1.5831-0.46302 2.3151-0.29988 0.7232-0.85109 1.5787-1.6536 2.5664-0.2205 0.25578-0.92164 0.99661-2.1034 2.2225-1.1818 1.2171-2.8487 2.9236-5.0006 5.1197"/>
 </g>
 <g id="g78" transform="translate(-1.6403 -7.557)">
  <path id="rect80" fill="#fdfd04" d="m180 150h60v20h-60z"/>
  <path id="rect82" d="m180 150h60v20h-60z" stroke="#000" stroke-width="2" fill="none"/>
 </g>
 <g id="g84" transform="translate(-1.6403 -7.557)">
  <path id="rect86" fill="#fdfd04" d="m280 150h60v20h-60z"/>
  <path id="rect88" d="m280 150h60v20h-60z" stroke="#000" stroke-width="2" fill="none"/>
 </g>
 <g id="g90" transform="translate(-1.6403 -7.557)">
  <path id="rect92" fill="#fdfd04" d="m400 150h60v20h-60z"/>
  <path id="rect94" d="m400 150h60v20h-60z" stroke="#000" stroke-width="2" fill="none"/>
 </g>
 <g id="g96" transform="translate(-1.6403 -7.557)">
  <path id="rect98" fill="#fdfd04" d="m420 50h20v20h-20z"/>
  <path id="rect100" d="m420 50h20v20h-20z" stroke="#000" stroke-width="2" fill="none"/>
 </g>
 <g id="g102" transform="translate(-1.6403 -7.557)">
  <path id="path104" d="m340 160c40 0 20-30 50.264-30" stroke="#000" stroke-width="2" fill="none"/>
  <path id="polygon106" d="m390.26 130-2.5-5 10 5-10 5z"/>
  <path id="polygon108" d="m390.26 130-2.5-5 10 5-10 5z" stroke="#000" stroke-width="2" fill="none"/>
 </g>
 <path id="line110" d="m398.36 142.44 60 20" stroke="#000" stroke-width="2" fill="none"/>
 <path id="line112" d="m398.36 162.44 60-20" stroke="#000" stroke-width="2" fill="none"/>
 <g id="text114">
  <path id="path3120" style="" d="m357.11 50.711c0.40569-0.72906 0.89075-1.267 1.4552-1.614 0.56443-0.34689 1.2288-0.52034 1.9932-0.52035 1.0289 0.00001 1.8227 0.36161 2.3812 1.0848 0.55855 0.71732 0.83783 1.7404 0.83784 3.0692v5.9619h-1.6316v-5.909c-0.00002-0.94661-0.16759-1.6492-0.50271-2.1078-0.33515-0.4586-0.84668-0.68791-1.5346-0.68792-0.8408 0.000009-1.5052 0.27929-1.9932 0.83785-0.48802 0.55857-0.73203 1.32-0.73202 2.2842v5.5827h-1.6316v-5.909c-0.00001-0.95249-0.16758-1.6551-0.50271-2.1078-0.33515-0.4586-0.85255-0.68791-1.5522-0.68792-0.82903 0.000009-1.4876 0.28223-1.9756 0.84667-0.48802 0.55857-0.73202 1.317-0.73202 2.2754v5.5827h-1.6316v-9.8778h1.6316v1.5346c0.37042-0.60559 0.81433-1.0524 1.3317-1.3406 0.5174-0.28809 1.1318-0.43214 1.8433-0.43215 0.71731 0.00001 1.3258 0.18228 1.8256 0.5468 0.50564 0.36455 0.879 0.89371 1.1201 1.5875"/>
  <path id="path3122" style="" d="m370.85 49.953c-0.87019 0.000008-1.5581 0.34103-2.0638 1.0231-0.50565 0.67616-0.75847 1.6051-0.75847 2.7869s0.24988 2.1137 0.74965 2.7958c0.50565 0.67616 1.1965 1.0142 2.0726 1.0142 0.8643 0.000002 1.5493-0.34102 2.0549-1.0231 0.50564-0.68203 0.75846-1.611 0.75847-2.7869-0.00001-1.17-0.25283-2.0961-0.75847-2.7781-0.50566-0.68791-1.1906-1.0319-2.0549-1.0319m0-1.3758c1.4111 0.00001 2.5194 0.45862 3.3249 1.3758 0.80549 0.91723 1.2082 2.1872 1.2083 3.81-0.00001 1.6169-0.40277 2.8869-1.2083 3.81-0.80552 0.91722-1.9138 1.3758-3.3249 1.3758-1.417 0-2.5282-0.45861-3.3338-1.3758-0.79963-0.9231-1.1994-2.1931-1.1994-3.81 0-1.6228 0.39981-2.8928 1.1994-3.81 0.80551-0.91721 1.9168-1.3758 3.3338-1.3758"/>
  <path id="path3124" style="" d="m377.36 48.815h7.7082v1.4817l-6.103 7.0996h6.103v1.2965h-7.9287v-1.4817l6.103-7.0996h-5.8826v-1.2965"/>
  <path id="path3126" style="" d="m394.05 53.64c-0.00001-1.1759-0.24401-2.0873-0.73201-2.734-0.48214-0.64675-1.1612-0.97013-2.0373-0.97014-0.87019 0.000009-1.5493 0.32339-2.0373 0.97014-0.48213 0.64677-0.7232 1.5581-0.7232 2.734 0 1.17 0.24107 2.0784 0.7232 2.7252 0.488 0.64676 1.1671 0.97014 2.0373 0.97014 0.87605 0.000001 1.5552-0.32338 2.0373-0.97014 0.488-0.64676 0.732-1.5552 0.73201-2.7252m1.6228 3.8276c-0.00001 1.6816-0.37336 2.931-1.1201 3.7483-0.74672 0.82314-1.8903 1.2347-3.4308 1.2347-0.57033-0.000003-1.1083-0.0441-1.614-0.13229-0.50565-0.08232-0.9966-0.21167-1.4728-0.38806v-1.5787c0.47625 0.2587 0.94662 0.44979 1.4111 0.57326 0.46449 0.12347 0.9378 0.18521 1.4199 0.18521 1.0642-0.000002 1.8609-0.27928 2.3901-0.83785 0.52916-0.55268 0.79374-1.3905 0.79375-2.5135v-0.80257c-0.33515 0.58208-0.76436 1.0172-1.2876 1.3053-0.52329 0.2881-1.1495 0.43215-1.8785 0.43215-1.2112 0-2.1872-0.46155-2.928-1.3847-0.74083-0.9231-1.1112-2.1461-1.1112-3.6689 0-1.5287 0.37042-2.7546 1.1112-3.6777 0.74083-0.92309 1.7168-1.3846 2.928-1.3847 0.72907 0.00001 1.3552 0.14406 1.8785 0.43215 0.52328 0.28811 0.95249 0.7232 1.2876 1.3053v-1.4993h1.6228v8.6519"/>
  <path id="path3128" style="" d="m402.85 49.953c-0.87019 0.000008-1.5581 0.34103-2.0637 1.0231-0.50565 0.67616-0.75848 1.6051-0.75848 2.7869s0.24989 2.1137 0.74966 2.7958c0.50564 0.67616 1.1965 1.0142 2.0726 1.0142 0.8643 0.000002 1.5493-0.34102 2.0549-1.0231 0.50564-0.68203 0.75846-1.611 0.75847-2.7869-0.00001-1.17-0.25283-2.0961-0.75847-2.7781-0.50565-0.68791-1.1906-1.0319-2.0549-1.0319m0-1.3758c1.4111 0.00001 2.5194 0.45862 3.3249 1.3758 0.8055 0.91723 1.2082 2.1872 1.2083 3.81-0.00001 1.6169-0.40276 2.8869-1.2083 3.81-0.80552 0.91722-1.9138 1.3758-3.3249 1.3758-1.417 0-2.5282-0.45861-3.3337-1.3758-0.79963-0.9231-1.1994-2.1931-1.1994-3.81 0-1.6228 0.39982-2.8928 1.1994-3.81 0.8055-0.91721 1.9168-1.3758 3.3337-1.3758"/>
 </g>
 <g id="g118" transform="translate(-1.6403 -7.557)">
  <path id="path120" d="m140 230h190.26" stroke="#000" stroke-width="2" fill="none"/>
  <path id="polygon122" d="m330.26 230-2.5-5 10 5-10 5z"/>
  <path id="polygon124" d="m330.26 230-2.5-5 10 5-10 5z" stroke="#000" stroke-width="2" fill="none"/>
 </g>
 <g id="g126" transform="translate(-1.6403 -7.557)">
  <path id="rect128" fill="#7be38e" d="m340 200h60v60h-60z"/>
  <path id="rect130" d="m340 200h60v60h-60z" stroke="#000" stroke-width="2" fill="none"/>
 </g>
 <g id="text132">
  <path id="path3135" style="" d="m354.03 212.07h10.491v2.249h-8.0433v4.8419c0.38805-0.13228 0.77611-0.22929 1.1642-0.29104 0.38805-0.0705 0.7761-0.10582 1.1642-0.10583 2.2048 0.00001 3.9511 0.60414 5.2388 1.8124 1.2876 1.2083 1.9314 2.8443 1.9314 4.908-0.00001 2.1255-0.66147 3.7791-1.9844 4.9609-1.3229 1.173-3.1882 1.7595-5.5959 1.7595-0.82903 0-1.6757-0.0705-2.54-0.21166-0.85548-0.14111-1.7418-0.35278-2.6591-0.635v-2.6855c0.79375 0.43216 1.614 0.75407 2.4606 0.96573 0.84666 0.21167 1.7418 0.3175 2.6855 0.3175 1.5258 0 2.734-0.40128 3.6248-1.2038 0.89075-0.80257 1.3361-1.8918 1.3362-3.2676-0.00002-1.3758-0.4454-2.465-1.3362-3.2676-0.89077-0.80256-2.099-1.2038-3.6248-1.2039-0.71438 0.00001-1.4288 0.0794-2.1431 0.23813-0.70556 0.15876-1.4288 0.4057-2.1696 0.74083v-9.9219"/>
  <path id="path3137" style="" d="m379.35 221.17c1.2788 0.27342 2.2754 0.84227 2.9898 1.7066 0.72318 0.86432 1.0848 1.9315 1.0848 3.2015-0.00001 1.9491-0.67029 3.4572-2.0108 4.5244-1.3406 1.0672-3.2456 1.6007-5.715 1.6007-0.82903 0-1.6845-0.0838-2.5665-0.25135-0.87312-0.15875-1.7771-0.40128-2.712-0.7276v-2.5797c0.74083 0.43216 1.5522 0.75848 2.4342 0.97896 0.88194 0.22049 1.8036 0.33073 2.7649 0.33073 1.6757 0 2.9501-0.33073 3.8232-0.99219 0.88193-0.66145 1.3229-1.6228 1.3229-2.884-0.00001-1.1642-0.41011-2.0726-1.2303-2.7252-0.81139-0.66145-1.9447-0.99217-3.3999-0.99218h-2.3019v-2.196h2.4077c1.3141 0.00001 2.3195-0.26016 3.0162-0.78052 0.69673-0.52916 1.0451-1.2876 1.0451-2.2754-0.00001-1.0142-0.3616-1.7903-1.0848-2.3283-0.71438-0.54678-1.7418-0.82019-3.0824-0.8202-0.73202 0.00001-1.517 0.0794-2.3548 0.23812-0.83785 0.15877-1.7595 0.40571-2.7649 0.74083v-2.3812c1.0142-0.28221 1.9623-0.49387 2.8443-0.635 0.89075-0.14109 1.7286-0.21165 2.5135-0.21167 2.0285 0.00002 3.6336 0.46304 4.8154 1.3891 1.1818 0.91724 1.7727 2.1608 1.7727 3.7306-0.00001 1.0936-0.3131 2.0197-0.93927 2.7781-0.62619 0.74967-1.517 1.27-2.6723 1.561"/>
 </g>
 <g id="g136" transform="translate(-1.6403 -7.557)">
  <path id="path138" d="m340 160c30 20-50.97 37.612-10.01 53.996" stroke="#f62e2e" stroke-width="2" fill="none"/>
  <path id="polygon140" fill="#f62e2e" d="m329.99 214-0.464-5.571 7.427 8.356-11.141 0.929z"/>
  <path id="polygon142" d="m329.99 214-0.464-5.571 7.427 8.356-11.141 0.929z" stroke="#f62e2e" stroke-width="2" fill="none"/>
 </g>
 <g id="g144" transform="translate(-1.6403 -7.557)">
  <path id="path146" d="m400 260c70-70-40.983-76.763-8.772-100.92" stroke="#f62e2e" stroke-width="2" fill="none"/>
  <path id="polygon148" fill="#f62e2e" d="m391.23 159.08-5-2.5 11-2-5 10z"/>
  <path id="polygon150" d="m391.23 159.08-5-2.5 11-2-5 10z" stroke="#f62e2e" stroke-width="2" fill="none"/>
 </g>
 <g id="g152" transform="translate(-1.6403 -7.557)">
  <path id="rect154" fill="#fdfd04" d="m340 250h60v20h-60z"/>
  <path id="rect156" d="m340 250h60v20h-60z" stroke="#000" stroke-width="2" fill="none"/>
 </g>
</svg>
