<?xml version="1.0" encoding="UTF-8" standalone="no"?>
<!-- Created with Inkscape (http://www.inkscape.org/) -->
<svg id="svg2" xmlns:rdf="http://www.w3.org/1999/02/22-rdf-syntax-ns#" xmlns="http://www.w3.org/2000/svg" height="290.35" width="847.46" version="1.1" xmlns:cc="http://creativecommons.org/ns#" xmlns:dc="http://purl.org/dc/elements/1.1/" viewBox="66 48 473.35973 150.23106">
 <metadata id="metadata178">
  <rdf:RDF>
   <cc:Work rdf:about="">
    <dc:format>image/svg+xml</dc:format>
    <dc:type rdf:resource="http://purl.org/dc/dcmitype/StillImage"/>
   </cc:Work>
  </rdf:RDF>
 </metadata>
 <g id="g4" transform="translate(-1.6403 -6.9751)">
  <path id="rect6" fill="#7babe3" d="m280 100h60v60h-60z"/>
  <path id="rect8" d="m280 100h60v60h-60z" stroke="#000" stroke-width="2" fill="none"/>
 </g>
 <g id="g10" transform="translate(-1.6403 -6.9751)">
  <path id="rect12" fill="#7babe3" d="m480 100h60v60h-60z"/>
  <path id="rect14" d="m480 100h60v60h-60z" stroke="#000" stroke-width="2" fill="none"/>
 </g>
 <g id="g16" transform="translate(-1.6403 -6.9751)">
  <path id="path18" d="m240 160c40 0-0.976-30 29.288-30" stroke="#000" stroke-width="2" fill="none"/>
  <path id="polygon20" d="m269.29 130-2.5-5 10 5-10 5z"/>
  <path id="polygon22" d="m269.29 130-2.5-5 10 5-10 5z" stroke="#000" stroke-width="2" fill="none"/>
 </g>
 <g id="g24" transform="translate(-1.6403 -6.9751)">
  <path id="rect26" fill="#7be38e" d="m380 100h60v60h-60z"/>
  <path id="rect28" d="m380 100h60v60h-60z" stroke="#000" stroke-width="2" fill="none"/>
 </g>
 <g id="g30" transform="translate(-1.6403 -6.9751)">
  <path id="line32" d="m410 70v20.264" stroke="#000" stroke-width="2" fill="none"/>
  <path id="polygon34" d="m410 90.264 5-2.5-5 10-5-10z"/>
  <path id="polygon36" d="m410 90.264 5-2.5-5 10-5-10z" stroke="#000" stroke-width="2" fill="none"/>
 </g>
 <g id="text38">
  <path id="path3079" style="" d="m437.75 51.293c0.40568-0.72906 0.89075-1.267 1.4552-1.614 0.56444-0.34689 1.2288-0.52034 1.9932-0.52035 1.0289 0.00001 1.8227 0.36161 2.3812 1.0848 0.55855 0.71732 0.83783 1.7404 0.83785 3.0692v5.9619h-1.6316v-5.909c-0.00002-0.94661-0.16759-1.6492-0.50271-2.1078-0.33515-0.4586-0.84668-0.68791-1.5346-0.68792-0.8408 0.000009-1.5052 0.27929-1.9932 0.83785-0.48801 0.55857-0.73202 1.32-0.73201 2.2842v5.5827h-1.6316v-5.909c-0.00001-0.95249-0.16758-1.6551-0.50271-2.1078-0.33515-0.4586-0.85255-0.68791-1.5522-0.68792-0.82903 0.000009-1.4876 0.28223-1.9756 0.84667-0.48801 0.55857-0.73201 1.317-0.73201 2.2754v5.5827h-1.6316v-9.8778h1.6316v1.5346c0.37041-0.60559 0.81432-1.0524 1.3317-1.3406 0.5174-0.28809 1.1318-0.43214 1.8433-0.43215 0.7173 0.00001 1.3258 0.18228 1.8256 0.5468 0.50564 0.36455 0.87899 0.89371 1.1201 1.5875"/>
  <path id="path3081" style="" d="m451.49 50.535c-0.87019 0.000008-1.5581 0.34103-2.0638 1.0231-0.50565 0.67616-0.75848 1.6051-0.75847 2.7869-0.00001 1.1818 0.24988 2.1137 0.74965 2.7958 0.50564 0.67616 1.1965 1.0142 2.0726 1.0142 0.86429 0.000002 1.5493-0.34102 2.0549-1.0231 0.50564-0.68203 0.75847-1.611 0.75848-2.7869-0.00001-1.17-0.25284-2.0961-0.75848-2.7781-0.50565-0.68791-1.1906-1.0319-2.0549-1.0319m0-1.3758c1.4111 0.00001 2.5194 0.45862 3.3249 1.3758 0.8055 0.91723 1.2083 2.1872 1.2083 3.81-0.00001 1.6169-0.40277 2.8869-1.2083 3.81-0.80551 0.91722-1.9138 1.3758-3.3249 1.3758-1.417 0-2.5282-0.45861-3.3338-1.3758-0.79963-0.9231-1.1994-2.1931-1.1994-3.81 0-1.6228 0.39981-2.8928 1.1994-3.81 0.80551-0.91721 1.9168-1.3758 3.3338-1.3758"/>
  <path id="path3083" style="" d="m458 49.397h7.7082v1.4817l-6.103 7.0996h6.103v1.2965h-7.9287v-1.4817l6.103-7.0996h-5.8826v-1.2965"/>
  <path id="path3085" style="" d="m474.7 54.221c-0.00001-1.1759-0.24402-2.0873-0.73202-2.734-0.48213-0.64675-1.1612-0.97013-2.0373-0.97014-0.87019 0.000008-1.5493 0.32339-2.0373 0.97014-0.48213 0.64677-0.72319 1.5581-0.72319 2.734 0 1.17 0.24106 2.0784 0.72319 2.7252 0.48801 0.64676 1.1671 0.97014 2.0373 0.97014 0.87606 0.000001 1.5552-0.32338 2.0373-0.97014 0.488-0.64676 0.73201-1.5552 0.73202-2.7252m1.6228 3.8276c-0.00001 1.6816-0.37336 2.931-1.1201 3.7483-0.74672 0.82314-1.8903 1.2347-3.4308 1.2347-0.57032-0.000003-1.1083-0.0441-1.614-0.13229-0.50565-0.08232-0.9966-0.21167-1.4728-0.38806v-1.5787c0.47625 0.2587 0.94662 0.44979 1.4111 0.57326 0.46449 0.12347 0.9378 0.18521 1.4199 0.18521 1.0642-0.000002 1.8609-0.27928 2.3901-0.83785 0.52915-0.55268 0.79374-1.3905 0.79375-2.5135v-0.80257c-0.33515 0.58208-0.76436 1.0172-1.2876 1.3053-0.52329 0.2881-1.1495 0.43215-1.8785 0.43215-1.2112 0-2.1872-0.46155-2.928-1.3847-0.74084-0.9231-1.1112-2.1461-1.1112-3.6689 0-1.5287 0.37041-2.7546 1.1112-3.6777 0.74083-0.92309 1.7168-1.3846 2.928-1.3847 0.72907 0.00001 1.3552 0.14406 1.8785 0.43215 0.52328 0.28811 0.95249 0.7232 1.2876 1.3053v-1.4993h1.6228v8.6519"/>
  <path id="path3087" style="" d="m483.49 50.535c-0.87019 0.000008-1.5581 0.34103-2.0638 1.0231-0.50565 0.67616-0.75847 1.6051-0.75847 2.7869s0.24988 2.1137 0.74965 2.7958c0.50565 0.67616 1.1965 1.0142 2.0726 1.0142 0.8643 0.000002 1.5493-0.34102 2.0549-1.0231 0.50564-0.68203 0.75846-1.611 0.75847-2.7869-0.00001-1.17-0.25283-2.0961-0.75847-2.7781-0.50566-0.68791-1.1906-1.0319-2.0549-1.0319m0-1.3758c1.4111 0.00001 2.5194 0.45862 3.3249 1.3758 0.8055 0.91723 1.2082 2.1872 1.2083 3.81-0.00001 1.6169-0.40276 2.8869-1.2083 3.81-0.80552 0.91722-1.9138 1.3758-3.3249 1.3758-1.417 0-2.5282-0.45861-3.3338-1.3758-0.79963-0.9231-1.1994-2.1931-1.1994-3.81 0-1.6228 0.39981-2.8928 1.1994-3.81 0.80551-0.91721 1.9168-1.3758 3.3338-1.3758"/>
 </g>
 <g id="g42" transform="translate(-1.6403 -6.9751)">
  <path id="rect44" fill="#fdfd04" d="m120 120h20v20h-20z"/>
  <path id="rect46" d="m120 120h20v20h-20z" stroke="#000" stroke-width="2" fill="none"/>
 </g>
 <g id="text48">
  <path id="path3092" style="" d="m75.155 123.93v0.79374h-7.4612c0.07055 1.1171 0.40569 1.9697 1.0054 2.5576 0.6056 0.58208 1.4464 0.87313 2.5224 0.87312 0.62323 0.00001 1.2259-0.0764 1.808-0.2293 0.58795-0.15287 1.17-0.38217 1.7462-0.68792v1.5346c-0.58209 0.24695-1.1789 0.4351-1.7903 0.56445-0.61149 0.12935-1.2318 0.19403-1.8609 0.19403-1.5757 0-2.8252-0.45861-3.7483-1.3758-0.91722-0.91721-1.3758-2.1578-1.3758-3.7218-0.000001-1.6169 0.43509-2.8986 1.3053-3.8453 0.87606-0.95249 2.0549-1.4287 3.5366-1.4288 1.3288 0.00001 2.3783 0.42922 3.1485 1.2876 0.7761 0.85255 1.1642 2.0138 1.1642 3.4837m-1.6228-0.47625c-0.01177-0.88782-0.26165-1.5963-0.74965-2.1255-0.48214-0.52916-1.123-0.79374-1.9226-0.79375-0.90547 0.00001-1.6316 0.25578-2.1784 0.76729-0.54093 0.51154-0.85255 1.2318-0.93486 2.1608l5.7855-0.009"/>
  <path id="path3094" style="" d="m77.818 115.55h1.6228v13.723h-1.6228v-13.723"/>
  <path id="path3096" style="" d="m91.276 123.93v0.79374h-7.4612c0.07055 1.1171 0.40569 1.9697 1.0054 2.5576 0.6056 0.58208 1.4464 0.87313 2.5224 0.87312 0.62323 0.00001 1.2259-0.0764 1.808-0.2293 0.58795-0.15287 1.17-0.38217 1.7462-0.68792v1.5346c-0.58209 0.24695-1.1789 0.4351-1.7903 0.56445-0.61149 0.12935-1.2318 0.19403-1.8609 0.19403-1.5757 0-2.8252-0.45861-3.7483-1.3758-0.91722-0.91721-1.3758-2.1578-1.3758-3.7218-0.000001-1.6169 0.43509-2.8986 1.3053-3.8453 0.87606-0.95249 2.0549-1.4287 3.5366-1.4288 1.3288 0.00001 2.3783 0.42922 3.1485 1.2876 0.7761 0.85255 1.1642 2.0138 1.1642 3.4837m-1.6228-0.47625c-0.01177-0.88782-0.26165-1.5963-0.74965-2.1255-0.48214-0.52916-1.123-0.79374-1.9226-0.79375-0.90547 0.00001-1.6316 0.25578-2.1784 0.76729-0.54093 0.51154-0.85255 1.2318-0.93486 2.1608l5.7855-0.009"/>
  <path id="path3098" style="" d="m93.94 119.4h1.6228v10.054c-0.000003 1.2582-0.24107 2.1696-0.72319 2.734-0.47625 0.56444-1.2465 0.84666-2.3107 0.84666h-0.61736v-1.3758h0.43215c0.61736 0 1.0378-0.14405 1.2612-0.43215 0.22342-0.28223 0.33514-0.87313 0.33514-1.7727v-10.054m0-3.8453h1.6228v2.0549h-1.6228v-2.0549"/>
  <path id="path3100" style="" d="m107.4 123.93v0.79374h-7.4612c0.07056 1.1171 0.40569 1.9697 1.0054 2.5576 0.60559 0.58208 1.4464 0.87313 2.5224 0.87312 0.62323 0.00001 1.2259-0.0764 1.808-0.2293 0.58795-0.15287 1.17-0.38217 1.7462-0.68792v1.5346c-0.58209 0.24695-1.1789 0.4351-1.7904 0.56445-0.61149 0.12935-1.2318 0.19403-1.8609 0.19403-1.5757 0-2.8252-0.45861-3.7483-1.3758-0.91722-0.91721-1.3758-2.1578-1.3758-3.7218-0.000001-1.6169 0.43509-2.8986 1.3053-3.8453 0.87606-0.95249 2.0549-1.4287 3.5366-1.4288 1.3288 0.00001 2.3783 0.42922 3.1485 1.2876 0.7761 0.85255 1.1642 2.0138 1.1642 3.4837m-1.6228-0.47625c-0.0118-0.88782-0.26165-1.5963-0.74965-2.1255-0.48214-0.52916-1.123-0.79374-1.9226-0.79375-0.90547 0.00001-1.6316 0.25578-2.1784 0.76729-0.54093 0.51154-0.85255 1.2318-0.93486 2.1608l5.7856-0.009"/>
 </g>
 <g id="g52" transform="translate(-1.6403 -6.9751)">
  <path id="rect54" fill="#7babe3" d="m180 100h60v60h-60z"/>
  <path id="rect56" d="m180 100h60v60h-60z" stroke="#000" stroke-width="2" fill="none"/>
 </g>
 <g id="g58" transform="translate(-1.6403 -6.9751)">
  <path id="path60" d="m139.5 130h30.764" stroke="#000" stroke-width="2" fill="none"/>
  <path id="polygon62" d="m170.26 130-2.5-5 10 5-10 5z"/>
  <path id="polygon64" d="m170.26 130-2.5-5 10 5-10 5z" stroke="#000" stroke-width="2" fill="none"/>
 </g>
 <g id="text66">
  <path id="path3107" style="" d="m194.47 130.15h4.3656v-15.068l-4.7493 0.9525v-2.4342l4.7228-0.9525h2.6723v17.502h4.3656v2.249h-11.377v-2.249"/>
  <path id="path3109" style="" d="m213.56 130.15h9.3266v2.249h-12.541v-2.249c1.0142-1.0495 2.3945-2.4562 4.1407-4.2201 1.7551-1.7727 2.8575-2.9148 3.3073-3.4264 0.85547-0.96131 1.4508-1.7727 1.7859-2.4342 0.34395-0.67026 0.51593-1.3273 0.51594-1.9711-0.00001-1.0495-0.37043-1.905-1.1112-2.5664-0.73202-0.66144-1.6889-0.99217-2.8707-0.99219-0.83785 0.00002-1.7242 0.14554-2.6591 0.43656-0.92604 0.29106-1.9182 0.73203-2.9766 1.3229v-2.6988c1.076-0.43213 2.0814-0.75845 3.0162-0.97896 0.93486-0.22046 1.7903-0.33071 2.5665-0.33073 2.0461 0.00002 3.6777 0.51155 4.8948 1.5346 1.2171 1.0231 1.8256 2.3901 1.8256 4.101-0.00002 0.8114-0.15436 1.5831-0.46302 2.3151-0.29988 0.72321-0.85109 1.5787-1.6536 2.5665-0.2205 0.25577-0.92164 0.9966-2.1034 2.2225-1.1818 1.2171-2.8487 2.9236-5.0006 5.1197"/>
 </g>
 <g id="text70">
  <path id="path3112" style="" d="m302.1 121.75c1.2788 0.27341 2.2754 0.84226 2.9898 1.7066 0.72318 0.86431 1.0848 1.9315 1.0848 3.2014-0.00001 1.9491-0.67029 3.4572-2.0108 4.5244-1.3406 1.0672-3.2456 1.6007-5.715 1.6007-0.82904 0-1.6845-0.0838-2.5665-0.25136-0.87313-0.15875-1.7771-0.40128-2.712-0.7276v-2.5797c0.74083 0.43215 1.5522 0.75847 2.4342 0.97895 0.88194 0.22049 1.8036 0.33073 2.7649 0.33073 1.6757 0 2.9501-0.33072 3.8232-0.99218 0.88193-0.66146 1.3229-1.6228 1.3229-2.884-0.00001-1.1642-0.41011-2.0726-1.2303-2.7252-0.8114-0.66145-1.9447-0.99218-3.3999-0.99219h-2.3019v-2.196h2.4077c1.3141 0.00001 2.3195-0.26016 3.0162-0.78052 0.69672-0.52915 1.0451-1.2876 1.0451-2.2754-0.00001-1.0142-0.36161-1.7903-1.0848-2.3283-0.71438-0.54679-1.7418-0.82019-3.0824-0.82021-0.73202 0.00002-1.517 0.0794-2.3548 0.23812-0.83785 0.15877-1.7595 0.40572-2.7649 0.74084v-2.3812c1.0142-0.2822 1.9623-0.49387 2.8443-0.635 0.89075-0.14109 1.7286-0.21165 2.5135-0.21167 2.0285 0.00002 3.6336 0.46304 4.8154 1.3891 1.1818 0.91724 1.7727 2.1608 1.7727 3.7306-0.00001 1.0936-0.3131 2.0197-0.93927 2.7781-0.62619 0.74966-1.517 1.27-2.6723 1.561"/>
  <path id="path3114" style="" d="m317.3 121.46c-1.1994 0.00001-2.152 0.41011-2.8575 1.2303-0.69674 0.82021-1.0451 1.9447-1.0451 3.3734-0.00001 1.4199 0.34836 2.5444 1.0451 3.3734 0.70555 0.82021 1.658 1.2303 2.8575 1.2303 1.1994 0.00001 2.1475-0.4101 2.8443-1.2303 0.70555-0.82902 1.0583-1.9535 1.0583-3.3734-0.00002-1.4287-0.35279-2.5532-1.0583-3.3734-0.69674-0.8202-1.6448-1.2303-2.8443-1.2303m5.3049-8.3741v2.4342c-0.67029-0.31749-1.3494-0.56002-2.0373-0.72761-0.67911-0.16755-1.3538-0.25133-2.0241-0.25135-1.7639 0.00002-3.1133 0.59533-4.0481 1.7859-0.92605 1.1906-1.4552 2.9898-1.5875 5.3975 0.52034-0.76728 1.173-1.3538 1.9579-1.7595 0.78493-0.4145 1.6492-0.62176 2.5929-0.62177 1.9844 0.00001 3.5498 0.60414 4.6964 1.8124 1.1553 1.1995 1.733 2.8355 1.733 4.908-0.00001 2.0285-0.59973 3.6557-1.7992 4.8816s-2.7958 1.8388-4.789 1.8388c-2.2842 0-4.0305-0.87313-5.2388-2.6194-1.2083-1.7551-1.8124-4.2951-1.8124-7.62 0-3.1221 0.74083-5.6092 2.2225-7.4612 1.4817-1.8609 3.4704-2.7913 5.9663-2.7914 0.67027 0.00002 1.345 0.0662 2.0241 0.19844 0.68791 0.13231 1.4023 0.33075 2.1431 0.59531"/>
 </g>
 <g id="text74">
  <path id="path3117" style="" d="m499.72 123.02c-1.27 0.00001-2.271 0.33956-3.003 1.0186-0.7232 0.6791-1.0848 1.614-1.0848 2.8046-0.00001 1.1906 0.36159 2.1255 1.0848 2.8046 0.73201 0.6791 1.733 1.0186 3.003 1.0186 1.27 0.00001 2.271-0.33954 3.003-1.0186 0.732-0.68791 1.098-1.6228 1.098-2.8046-0.00001-1.1906-0.36602-2.1255-1.098-2.8046-0.7232-0.67909-1.7242-1.0186-3.003-1.0186m-2.6723-1.1377c-1.1465-0.28221-2.0417-0.81579-2.6855-1.6007-0.635-0.78492-0.9525-1.7418-0.9525-2.8707 0-1.5787 0.56003-2.8266 1.6801-3.7438 1.1289-0.91721 2.6723-1.3758 4.6302-1.3758 1.9667 0.00002 3.5101 0.45863 4.6302 1.3758 1.12 0.91723 1.6801 2.1652 1.6801 3.7438-0.00001 1.1289-0.32192 2.0858-0.96573 2.8707-0.63501 0.78494-1.5214 1.3185-2.6591 1.6007 1.2876 0.29987 2.2886 0.88636 3.003 1.7595 0.72318 0.87314 1.0848 1.9403 1.0848 3.2015-0.00001 1.9138-0.58651 3.3822-1.7595 4.4053-1.1642 1.023-2.8354 1.5346-5.0138 1.5346s-3.8541-0.51153-5.0271-1.5346c-1.1642-1.0231-1.7462-2.4915-1.7462-4.4053 0-1.2612 0.3616-2.3283 1.0848-3.2015 0.72319-0.87311 1.7286-1.4596 3.0162-1.7595m-0.97896-4.2201c0 1.0231 0.31749 1.8212 0.9525 2.3945 0.64381 0.57327 1.5434 0.8599 2.6988 0.85989 1.1465 0.00001 2.0417-0.28662 2.6855-0.85989 0.65263-0.57326 0.97895-1.3714 0.97896-2.3945-0.00001-1.023-0.32633-1.8212-0.97896-2.3945-0.64383-0.57324-1.539-0.85987-2.6855-0.85989-1.1554 0.00002-2.0549 0.28665-2.6988 0.85989-0.63501 0.57328-0.9525 1.3714-0.9525 2.3945"/>
  <path id="path3119" style="" d="m513.56 130.15h9.3266v2.249h-12.541v-2.249c1.0142-1.0495 2.3945-2.4562 4.1407-4.2201 1.7551-1.7727 2.8575-2.9148 3.3073-3.4264 0.85547-0.96131 1.4508-1.7727 1.7859-2.4342 0.34395-0.67026 0.51593-1.3273 0.51594-1.9711-0.00001-1.0495-0.37043-1.905-1.1112-2.5664-0.73202-0.66144-1.6889-0.99217-2.8707-0.99219-0.83785 0.00002-1.7242 0.14554-2.6591 0.43656-0.92604 0.29106-1.9182 0.73203-2.9766 1.3229v-2.6988c1.076-0.43213 2.0814-0.75845 3.0162-0.97896 0.93486-0.22046 1.7903-0.33071 2.5665-0.33073 2.0461 0.00002 3.6777 0.51155 4.8948 1.5346 1.2171 1.0231 1.8256 2.3901 1.8256 4.101-0.00002 0.8114-0.15436 1.5831-0.46302 2.3151-0.29988 0.72321-0.85109 1.5787-1.6536 2.5665-0.2205 0.25577-0.92164 0.9966-2.1034 2.2225-1.1818 1.2171-2.8487 2.9236-5.0006 5.1197"/>
 </g>
 <g id="text78">
  <path id="path3122" style="" d="m394.03 112.65h10.491v2.249h-8.0433v4.8419c0.38805-0.13228 0.77611-0.2293 1.1642-0.29105 0.38805-0.0705 0.7761-0.10582 1.1642-0.10583 2.2048 0.00001 3.9511 0.60414 5.2388 1.8124 1.2876 1.2083 1.9314 2.8443 1.9314 4.908-0.00001 2.1255-0.66147 3.7791-1.9844 4.9609-1.3229 1.173-3.1882 1.7595-5.5959 1.7595-0.82903 0-1.6757-0.0706-2.54-0.21167-0.85548-0.14111-1.7418-0.35278-2.6591-0.635v-2.6855c0.79375 0.43216 1.614 0.75407 2.4606 0.96573 0.84666 0.21167 1.7418 0.3175 2.6855 0.3175 1.5258 0 2.734-0.40128 3.6248-1.2038 0.89075-0.80257 1.3361-1.8918 1.3362-3.2676-0.00002-1.3758-0.4454-2.465-1.3362-3.2676-0.89077-0.80256-2.099-1.2038-3.6248-1.2038-0.71438 0.00001-1.4288 0.0794-2.1431 0.23812-0.70556 0.15876-1.4288 0.40571-2.1696 0.74083v-9.9219"/>
  <path id="path3124" style="" d="m419.35 121.75c1.2788 0.27341 2.2754 0.84226 2.9898 1.7066 0.72318 0.86431 1.0848 1.9315 1.0848 3.2014-0.00001 1.9491-0.67029 3.4572-2.0108 4.5244-1.3406 1.0672-3.2456 1.6007-5.715 1.6007-0.82903 0-1.6845-0.0838-2.5665-0.25136-0.87312-0.15875-1.7771-0.40128-2.712-0.7276v-2.5797c0.74083 0.43215 1.5522 0.75847 2.4342 0.97895 0.88194 0.22049 1.8036 0.33073 2.7649 0.33073 1.6757 0 2.9501-0.33072 3.8232-0.99218 0.88193-0.66146 1.3229-1.6228 1.3229-2.884-0.00001-1.1642-0.41011-2.0726-1.2303-2.7252-0.81139-0.66145-1.9447-0.99218-3.3999-0.99219h-2.3019v-2.196h2.4077c1.3141 0.00001 2.3195-0.26016 3.0162-0.78052 0.69673-0.52915 1.0451-1.2876 1.0451-2.2754-0.00001-1.0142-0.3616-1.7903-1.0848-2.3283-0.71438-0.54679-1.7418-0.82019-3.0824-0.82021-0.73202 0.00002-1.517 0.0794-2.3548 0.23812-0.83785 0.15877-1.7595 0.40572-2.7649 0.74084v-2.3812c1.0142-0.2822 1.9623-0.49387 2.8443-0.635 0.89075-0.14109 1.7286-0.21165 2.5135-0.21167 2.0285 0.00002 3.6336 0.46304 4.8154 1.3891 1.1818 0.91724 1.7727 2.1608 1.7727 3.7306-0.00001 1.0936-0.3131 2.0197-0.93927 2.7781-0.62619 0.74966-1.517 1.27-2.6723 1.561"/>
 </g>
 <g id="g82" transform="translate(-1.6403 -6.9751)">
  <path id="path84" d="m340.97 160.97c40 40 98.06 40 131.18 6.885" stroke="#f62e2e" stroke-width="2" fill="none"/>
  <path id="polygon86" fill="#f62e2e" d="m472.14 167.86-5.303-1.768 10.606-3.535-3.535 10.606z"/>
  <path id="polygon88" d="m472.14 167.86-5.303-1.768 10.606-3.535-3.535 10.606z" stroke="#f62e2e" stroke-width="2" fill="none"/>
 </g>
 <g id="text90">
  <path id="path3129" style="" d="m204.23 45.552h1.6228v13.723h-1.6228v-13.723"/>
  <path id="path3131" style="" d="m217.69 53.93v0.79375h-7.4612c0.0706 1.1171 0.40569 1.9697 1.0054 2.5576 0.6056 0.58208 1.4464 0.87313 2.5224 0.87312 0.62323 0.000002 1.2259-0.07643 1.808-0.2293 0.58796-0.15287 1.17-0.38217 1.7462-0.68792v1.5346c-0.58209 0.24694-1.1789 0.43509-1.7903 0.56444-0.61149 0.12935-1.2318 0.19403-1.8609 0.19403-1.5758 0-2.8252-0.45861-3.7483-1.3758-0.91723-0.91722-1.3758-2.1578-1.3758-3.7218-0.00001-1.6169 0.43509-2.8986 1.3053-3.8453 0.87606-0.95249 2.0549-1.4287 3.5366-1.4287 1.3288 0.00001 2.3783 0.42922 3.1485 1.2876 0.7761 0.85255 1.1642 2.0138 1.1642 3.4837m-1.6228-0.47625c-0.0118-0.88782-0.26165-1.5963-0.74965-2.1255-0.48214-0.52916-1.123-0.79374-1.9226-0.79375-0.90546 0.000008-1.6316 0.25577-2.1784 0.76729-0.54093 0.51154-0.85254 1.2318-0.93486 2.1608l5.7856-0.0088"/>
  <path id="path3133" style="" d="m228.04 51.293c0.40569-0.72906 0.89076-1.267 1.4552-1.614 0.56443-0.34689 1.2288-0.52034 1.9932-0.52035 1.0289 0.00001 1.8227 0.36161 2.3812 1.0848 0.55855 0.71732 0.83783 1.7404 0.83785 3.0692v5.9619h-1.6316v-5.909c-0.00001-0.94661-0.16758-1.6492-0.50271-2.1078-0.33515-0.4586-0.84668-0.68791-1.5346-0.68792-0.8408 0.000009-1.5052 0.27929-1.9932 0.83785-0.48802 0.55857-0.73202 1.32-0.73201 2.2842v5.5827h-1.6316v-5.909c-0.00001-0.95249-0.16758-1.6551-0.50271-2.1078-0.33514-0.4586-0.85255-0.68791-1.5522-0.68792-0.82903 0.000009-1.4876 0.28223-1.9756 0.84667-0.48801 0.55857-0.73202 1.317-0.73201 2.2754v5.5827h-1.6316v-9.8778h1.6316v1.5346c0.37041-0.60559 0.81432-1.0524 1.3317-1.3406 0.5174-0.28809 1.1318-0.43214 1.8433-0.43215 0.71731 0.00001 1.3258 0.18228 1.8256 0.5468 0.50563 0.36455 0.87899 0.89371 1.1201 1.5875"/>
  <path id="path3135" style="" d="m242.45 54.31c-1.3112 0.000005-2.2196 0.14994-2.7252 0.44979-0.50565 0.29986-0.75848 0.81139-0.75848 1.5346 0 0.5762 0.18815 1.0348 0.56445 1.3758 0.38217 0.33514 0.89958 0.50271 1.5522 0.50271 0.89958 0.000001 1.6198-0.3175 2.1608-0.9525 0.5468-0.64088 0.8202-1.4905 0.82021-2.5488v-0.3616h-1.614m3.2367-0.67028v5.6356h-1.6228v-1.4993c-0.37043 0.59972-0.83198 1.0436-1.3846 1.3317-0.55269 0.28222-1.2288 0.42333-2.0285 0.42333-1.0113 0-1.8168-0.28222-2.4165-0.84667-0.59384-0.57032-0.89076-1.3317-0.89076-2.2842 0-1.1112 0.37041-1.9491 1.1112-2.5135 0.74671-0.56444 1.858-0.84666 3.3337-0.84666h2.2754v-0.15875c-0.00001-0.7467-0.24695-1.3229-0.74084-1.7286-0.48801-0.41156-1.1759-0.61735-2.0637-0.61736-0.56445 0.000008-1.1142 0.06762-1.6492 0.20285-0.53505 0.13524-1.0495 0.33809-1.5434 0.60854v-1.4993c0.59384-0.2293 1.17-0.3998 1.7286-0.51153 0.55856-0.11758 1.1024-0.17638 1.6316-0.17639 1.4287 0.00001 2.4959 0.37043 3.2014 1.1112 0.70555 0.74084 1.0583 1.8638 1.0583 3.369"/>
  <path id="path3137" style="" d="m254.76 50.914c-0.18228-0.10582-0.38219-0.18226-0.59972-0.2293-0.21168-0.05291-0.44686-0.07937-0.70556-0.07937-0.91723 0.000009-1.6228 0.29987-2.1167 0.89958-0.48802 0.59385-0.73202 1.4493-0.73202 2.5665v5.2035h-1.6316v-9.8778h1.6316v1.5346c0.34102-0.59971 0.78493-1.0436 1.3317-1.3317 0.5468-0.29397 1.2112-0.44096 1.9932-0.44097 0.11171 0.00001 0.23518 0.0088 0.37042 0.02646 0.13522 0.01177 0.28515 0.03235 0.44979 0.06174l0.009 1.6669"/>
  <path id="path3139" style="" d="m260.97 54.31c-1.3112 0.000005-2.2196 0.14994-2.7252 0.44979-0.50565 0.29986-0.75847 0.81139-0.75847 1.5346 0 0.5762 0.18815 1.0348 0.56445 1.3758 0.38217 0.33514 0.89958 0.50271 1.5522 0.50271 0.89957 0.000001 1.6198-0.3175 2.1608-0.9525 0.5468-0.64088 0.8202-1.4905 0.82021-2.5488v-0.3616h-1.614m3.2367-0.67028v5.6356h-1.6228v-1.4993c-0.37043 0.59972-0.83198 1.0436-1.3846 1.3317-0.5527 0.28222-1.2288 0.42333-2.0285 0.42333-1.0113 0-1.8168-0.28222-2.4165-0.84667-0.59384-0.57032-0.89076-1.3317-0.89076-2.2842 0-1.1112 0.37041-1.9491 1.1112-2.5135 0.74671-0.56444 1.858-0.84666 3.3337-0.84666h2.2754v-0.15875c-0.00001-0.7467-0.24696-1.3229-0.74084-1.7286-0.48801-0.41156-1.1759-0.61735-2.0637-0.61736-0.56445 0.000008-1.1142 0.06762-1.6492 0.20285-0.53505 0.13524-1.0495 0.33809-1.5434 0.60854v-1.4993c0.59384-0.2293 1.17-0.3998 1.7286-0.51153 0.55856-0.11758 1.1024-0.17638 1.6316-0.17639 1.4287 0.00001 2.4959 0.37043 3.2014 1.1112 0.70555 0.74084 1.0583 1.8638 1.0583 3.369"/>
  <path id="path3141" style="" d="m274.05 50.896v-5.3446h1.6228v13.723h-1.6228v-1.4817c-0.34103 0.58796-0.77318 1.026-1.2965 1.3141-0.51741 0.28222-1.1406 0.42333-1.8697 0.42333-1.1936 0-2.1666-0.47625-2.9192-1.4287-0.74671-0.9525-1.1201-2.2049-1.1201-3.7571s0.37336-2.8046 1.1201-3.7571c0.75259-0.95249 1.7257-1.4287 2.9192-1.4287 0.72907 0.00001 1.3523 0.14406 1.8697 0.43215 0.52328 0.28223 0.95543 0.71732 1.2965 1.3053m-5.5298 3.4484c-0.00001 1.1936 0.244 2.1314 0.73201 2.8134 0.49388 0.67616 1.17 1.0142 2.0285 1.0142 0.85842 0.000001 1.5346-0.33808 2.0285-1.0142 0.49388-0.68203 0.74082-1.6198 0.74083-2.8134-0.00001-1.1936-0.24695-2.1284-0.74083-2.8046-0.4939-0.68203-1.17-1.023-2.0285-1.0231-0.85843 0.000008-1.5346 0.34103-2.0285 1.0231-0.48801 0.67616-0.73202 1.611-0.73201 2.8046"/>
  <path id="path3143" style="" d="m282.85 50.535c-0.87019 0.000008-1.5581 0.34103-2.0638 1.0231-0.50565 0.67616-0.75847 1.6051-0.75847 2.7869s0.24988 2.1137 0.74965 2.7958c0.50565 0.67616 1.1965 1.0142 2.0726 1.0142 0.8643 0.000002 1.5493-0.34102 2.0549-1.0231 0.50564-0.68203 0.75846-1.611 0.75847-2.7869-0.00001-1.17-0.25283-2.0961-0.75847-2.7781-0.50566-0.68791-1.1906-1.0319-2.0549-1.0319m0-1.3758c1.4111 0.00001 2.5194 0.45862 3.3249 1.3758 0.8055 0.91723 1.2082 2.1872 1.2083 3.81-0.00001 1.6169-0.40276 2.8869-1.2083 3.81-0.80552 0.91722-1.9138 1.3758-3.3249 1.3758-1.417 0-2.5282-0.45861-3.3337-1.3758-0.79963-0.9231-1.1994-2.1931-1.1994-3.81 0-1.6228 0.39982-2.8928 1.1994-3.81 0.8055-0.91721 1.9168-1.3758 3.3337-1.3758"/>
 </g>
 <g id="g94" transform="translate(-1.6403 -6.9751)">
  <path id="line96" d="m310 70v20.264" stroke="#000" stroke-width="2" fill="none"/>
  <path id="polygon98" d="m310 90.264 5-2.5-5 10-5-10z"/>
  <path id="polygon100" d="m310 90.264 5-2.5-5 10-5-10z" stroke="#000" stroke-width="2" fill="none"/>
 </g>
 <g id="text102" fill="#173b8f">
  <path id="path3149" style="" d="m407.15 188.12c-0.78787 1.3523-1.3729 2.6899-1.7551 4.0128-0.38218 1.3229-0.57327 2.6635-0.57327 4.0217s0.19109 2.7046 0.57327 4.0393c0.38805 1.3288 0.97307 2.6664 1.7551 4.0128h-1.4111c-0.88194-1.3817-1.5434-2.7399-1.9844-4.0746-0.43509-1.3347-0.65264-2.6605-0.65264-3.9776 0-1.3112 0.21755-2.6311 0.65264-3.9599s1.0966-2.687 1.9844-4.0746h1.4111"/>
  <path id="path3151" style="" d="m410.85 200.33h2.9104v-10.045l-3.1662 0.635v-1.6228l3.1485-0.635h1.7815v11.668h2.9104v1.4993h-7.5847v-1.4993"/>
  <path id="path3153" style="" d="m421.56 188.12h1.4111c0.88194 1.3876 1.5405 2.7458 1.9756 4.0746 0.44097 1.3288 0.66145 2.6488 0.66146 3.9599-0.00001 1.317-0.22049 2.6429-0.66146 3.9776-0.43509 1.3347-1.0936 2.6929-1.9756 4.0746h-1.4111c0.78199-1.3464 1.3641-2.684 1.7462-4.0128 0.38805-1.3347 0.58208-2.6811 0.58208-4.0393s-0.19403-2.6987-0.58208-4.0217c-0.38218-1.3229-0.96426-2.6605-1.7462-4.0128"/>
 </g>
 <g id="text106" fill="#173b8f">
  <path id="path3156" style="" d="m451.15 86.119c-0.78787 1.3523-1.3729 2.6899-1.7551 4.0128-0.38218 1.3229-0.57327 2.6635-0.57327 4.0217s0.19109 2.7046 0.57327 4.0393c0.38805 1.3288 0.97307 2.6664 1.7551 4.0128h-1.4111c-0.88194-1.3817-1.5434-2.7399-1.9844-4.0746-0.43509-1.3347-0.65264-2.6605-0.65264-3.9776 0-1.3111 0.21755-2.6311 0.65264-3.9599s1.0966-2.687 1.9844-4.0746h1.4111"/>
  <path id="path3158" style="" d="m456.08 98.326h6.2177v1.4993h-8.3608v-1.4993c0.67615-0.69967 1.5963-1.6375 2.7605-2.8134 1.17-1.1818 1.905-1.9432 2.2049-2.2842 0.57031-0.64087 0.96719-1.1818 1.1906-1.6228 0.2293-0.44684 0.34395-0.88487 0.34396-1.3141-0.00001-0.69966-0.24695-1.27-0.74083-1.711-0.48802-0.44096-1.126-0.66145-1.9138-0.66146-0.55857 0.000012-1.1495 0.09703-1.7727 0.29104-0.61736 0.19404-1.2788 0.48802-1.9844 0.88194v-1.7992c0.71731-0.28809 1.3876-0.50563 2.0108-0.65264 0.62324-0.14698 1.1936-0.22047 1.711-0.22049 1.3641 0.000014 2.4518 0.34103 3.2632 1.0231 0.81138 0.68205 1.2171 1.5934 1.2171 2.734-0.00001 0.54094-0.1029 1.0554-0.30868 1.5434-0.19991 0.48214-0.56739 1.0525-1.1024 1.711-0.14699 0.17052-0.61442 0.6644-1.4023 1.4817-0.78787 0.81139-1.8991 1.9491-3.3337 3.4131"/>
  <path id="path3160" style="" d="m465.56 86.119h1.4111c0.88194 1.3876 1.5405 2.7458 1.9756 4.0746 0.44097 1.3288 0.66145 2.6488 0.66146 3.9599-0.00001 1.317-0.22049 2.6429-0.66146 3.9776-0.43509 1.3347-1.0936 2.6929-1.9756 4.0746h-1.4111c0.78199-1.3464 1.3641-2.684 1.7462-4.0128 0.38805-1.3347 0.58208-2.6811 0.58208-4.0393s-0.19403-2.6987-0.58208-4.0217c-0.38218-1.3229-0.96426-2.6605-1.7462-4.0128"/>
 </g>
 <g id="g110" transform="translate(-1.6403 -6.9751)">
  <path id="rect112" fill="#fdfd04" d="m180 150h60v20h-60z"/>
  <path id="rect114" d="m180 150h60v20h-60z" stroke="#000" stroke-width="2" fill="none"/>
 </g>
 <g id="g116" transform="translate(-1.6403 -6.9751)">
  <path id="rect118" fill="#fdfd04" d="m280 150h60v20h-60z"/>
  <path id="rect120" d="m280 150h60v20h-60z" stroke="#000" stroke-width="2" fill="none"/>
 </g>
 <g id="g122" transform="translate(-1.6403 -6.9751)">
  <path id="rect124" fill="#fdfd04" d="m380 150h60v20h-60z"/>
  <path id="rect126" d="m380 150h60v20h-60z" stroke="#000" stroke-width="2" fill="none"/>
 </g>
 <g id="g128" transform="translate(-1.6403 -6.9751)">
  <path id="rect130" fill="#fdfd04" d="m480 150h60v20h-60z"/>
  <path id="rect132" d="m480 150h60v20h-60z" stroke="#000" stroke-width="2" fill="none"/>
 </g>
 <path id="line134" d="m478.36 143.02 60 20" stroke="#000" stroke-width="2" fill="none"/>
 <path id="line136" d="m478.36 163.02 60-20" stroke="#000" stroke-width="2" fill="none"/>
 <g id="g138" transform="translate(-1.6403 -6.9751)">
  <path id="path140" d="m340 160c40 0-0.976-30 29.288-30" stroke="#000" stroke-width="2" fill="none"/>
  <path id="polygon142" d="m369.29 130-2.5-5 10 5-10 5z"/>
  <path id="polygon144" d="m369.29 130-2.5-5 10 5-10 5z" stroke="#000" stroke-width="2" fill="none"/>
 </g>
 <path id="line146" d="m368.36 163.02 80-80" stroke="#f62e2e" stroke-width="2" fill="none"/>
 <g id="g148" transform="translate(-1.6403 -6.9751)">
  <path id="path150" d="m440 160c40 0-0.976-30 29.288-30" stroke="#000" stroke-width="2" fill="none"/>
  <path id="polygon152" d="m469.29 130-2.5-5 10 5-10 5z"/>
  <path id="polygon154" d="m469.29 130-2.5-5 10 5-10 5z" stroke="#000" stroke-width="2" fill="none"/>
 </g>
 <g id="g156" transform="translate(-1.6403 -6.9751)">
  <path id="rect158" fill="#fdfd04" d="m300 50h20v20h-20z"/>
  <path id="rect160" d="m300 50h20v20h-20z" stroke="#000" stroke-width="2" fill="none"/>
 </g>
 <g id="g162" transform="translate(-1.6403 -6.9751)">
  <path id="rect164" fill="#fdfd04" d="m400 50h20v20h-20z"/>
  <path id="rect166" d="m400 50h20v20h-20z" stroke="#000" stroke-width="2" fill="none"/>
 </g>
 <path id="line168" d="m368.36 83.025 80 80" stroke="#f62e2e" stroke-width="2" fill="none"/>
 <path id="line170" d="m348.36 123.02 20 20" stroke="#f62e2e" stroke-width="2" fill="none"/>
 <path id="line172" d="m348.36 143.02 20-20" stroke="#f62e2e" stroke-width="2" fill="none"/>
</svg>
