<?xml version="1.0" encoding="UTF-8" standalone="no"?>
<!-- Created with Inkscape (http://www.inkscape.org/) -->
<svg id="svg2" xmlns:rdf="http://www.w3.org/1999/02/22-rdf-syntax-ns#" xmlns="http://www.w3.org/2000/svg" height="257.61" width="847.46" version="1.1" xmlns:cc="http://creativecommons.org/ns#" xmlns:dc="http://purl.org/dc/elements/1.1/" viewBox="66 48 473.35973 130.86553">
 <metadata id="metadata152">
  <rdf:RDF>
   <cc:Work rdf:about="">
    <dc:format>image/svg+xml</dc:format>
    <dc:type rdf:resource="http://purl.org/dc/dcmitype/StillImage"/>
   </cc:Work>
  </rdf:RDF>
 </metadata>
 <g id="g4" transform="translate(-1.6403 -7.513)">
  <path id="rect6" fill="#7babe3" d="m280 100h60v60h-60z"/>
  <path id="rect8" d="m280 100h60v60h-60z" stroke="#000" stroke-width="2" fill="none"/>
 </g>
 <g id="g10" transform="translate(-1.6403 -7.513)">
  <path id="rect12" fill="#7babe3" d="m480 100h60v60h-60z"/>
  <path id="rect14" d="m480 100h60v60h-60z" stroke="#000" stroke-width="2" fill="none"/>
 </g>
 <g id="g16" transform="translate(-1.6403 -7.513)">
  <path id="path18" d="m240 160c40 0-0.976-30 29.288-30" stroke="#000" stroke-width="2" fill="none"/>
  <path id="polygon20" d="m269.29 130-2.5-5 10 5-10 5z"/>
  <path id="polygon22" d="m269.29 130-2.5-5 10 5-10 5z" stroke="#000" stroke-width="2" fill="none"/>
 </g>
 <g id="g24" transform="translate(-1.6403 -7.513)">
  <path id="rect26" fill="#7be38e" d="m380 100h60v60h-60z"/>
  <path id="rect28" d="m380 100h60v60h-60z" stroke="#000" stroke-width="2" fill="none"/>
 </g>
 <g id="g30" transform="translate(-1.6403 -7.513)">
  <path id="line32" d="m410 70v20.264" stroke="#000" stroke-width="2" fill="none"/>
  <path id="polygon34" d="m410 90.264 5-2.5-5 10-5-10z"/>
  <path id="polygon36" d="m410 90.264 5-2.5-5 10-5-10z" stroke="#000" stroke-width="2" fill="none"/>
 </g>
 <g id="text38">
  <path id="path3066" style="" d="m431.67 46.055v2.8046h3.3426v1.2612h-3.3426v5.3622c0 0.80551 0.10877 1.3229 0.32632 1.5522 0.22342 0.22931 0.67321 0.34396 1.3494 0.34396h1.6669v1.3582h-1.6669c-1.2524 0-2.1167-0.23224-2.5929-0.69674-0.47625-0.47037-0.71438-1.3229-0.71438-2.5576v-5.3622h-1.1906v-1.2612h1.1906v-2.8046h1.6316"/>
  <path id="path3068" style="" d="m440.98 49.997c-0.87019 0.000009-1.5581 0.34103-2.0638 1.0231-0.50565 0.67616-0.75847 1.6051-0.75847 2.7869s0.24988 2.1137 0.74965 2.7958c0.50565 0.67616 1.1965 1.0142 2.0726 1.0142 0.8643 0.000001 1.5493-0.34102 2.0549-1.0231 0.50564-0.68203 0.75846-1.611 0.75847-2.7869-0.00001-1.17-0.25283-2.0961-0.75847-2.7781-0.50566-0.68791-1.1906-1.0319-2.0549-1.0319m0-1.3758c1.4111 0.00001 2.5194 0.45862 3.3249 1.3758 0.8055 0.91723 1.2082 2.1872 1.2083 3.81-0.00001 1.6169-0.40276 2.8869-1.2083 3.81-0.80552 0.91722-1.9138 1.3758-3.3249 1.3758-1.417 0-2.5282-0.45861-3.3338-1.3758-0.79963-0.9231-1.1994-2.1931-1.1994-3.81 0-1.6228 0.39981-2.8928 1.1994-3.81 0.80551-0.91721 1.9168-1.3758 3.3338-1.3758"/>
  <path id="path3070" style="" d="m453.92 50.376c-0.18228-0.10582-0.38218-0.18226-0.59972-0.2293-0.21167-0.05291-0.44686-0.07937-0.70556-0.07937-0.91722 0.000009-1.6228 0.29987-2.1167 0.89958-0.48801 0.59385-0.73202 1.4493-0.73201 2.5665v5.2035h-1.6316v-9.8778h1.6316v1.5346c0.34101-0.59971 0.78492-1.0436 1.3317-1.3317 0.5468-0.29397 1.2112-0.44096 1.9932-0.44097 0.11171 0.00001 0.23518 0.0088 0.37042 0.02646 0.13522 0.01177 0.28515 0.03235 0.44979 0.06174l0.009 1.6669"/>
  <path id="path3072" style="" d="m455.64 45.014h1.6228v13.723h-1.6228v-13.723"/>
  <path id="path3074" style="" d="m469.1 53.392v0.79375h-7.4612c0.0706 1.1171 0.4057 1.9697 1.0054 2.5576 0.6056 0.58208 1.4464 0.87312 2.5224 0.87312 0.62323 0.000001 1.2259-0.07643 1.808-0.22931 0.58796-0.15287 1.17-0.38217 1.7462-0.68792v1.5346c-0.58209 0.24694-1.1789 0.43509-1.7903 0.56444-0.61149 0.12935-1.2318 0.19403-1.8609 0.19403-1.5757 0-2.8252-0.45861-3.7482-1.3758-0.91723-0.91722-1.3758-2.1578-1.3758-3.7218 0-1.6169 0.43509-2.8986 1.3053-3.8453 0.87606-0.95249 2.0549-1.4287 3.5366-1.4287 1.3288 0.00001 2.3783 0.42922 3.1485 1.2876 0.7761 0.85255 1.1642 2.0138 1.1642 3.4837m-1.6228-0.47625c-0.0118-0.88782-0.26165-1.5963-0.74965-2.1255-0.48214-0.52916-1.123-0.79374-1.9226-0.79375-0.90547 0.000009-1.6316 0.25577-2.1784 0.76729-0.54093 0.51153-0.85255 1.2318-0.93486 2.1608l5.7856-0.0088"/>
  <path id="path3076" style="" d="m479.97 52.775v5.9619h-1.6228v-5.909c-0.00001-0.93485-0.18227-1.6345-0.5468-2.099-0.36455-0.46448-0.91135-0.69673-1.6404-0.69674-0.87607 0.000008-1.5669 0.27929-2.0726 0.83785-0.50565 0.55857-0.75848 1.32-0.75847 2.2842v5.5827h-1.6316v-9.8778h1.6316v1.5346c0.38805-0.59383 0.84372-1.0377 1.367-1.3317 0.52916-0.29397 1.1377-0.44096 1.8256-0.44097 1.1348 0.00001 1.9932 0.35279 2.5753 1.0583 0.58207 0.69968 0.87311 1.7316 0.87312 3.0956"/>
  <path id="path3078" style="" d="m489.73 50.359v-5.3446h1.6228v13.723h-1.6228v-1.4817c-0.34102 0.58796-0.77318 1.026-1.2964 1.3141-0.51742 0.28222-1.1407 0.42333-1.8697 0.42333-1.1936 0-2.1666-0.47625-2.9192-1.4287-0.74671-0.9525-1.1201-2.2049-1.1201-3.7571s0.37336-2.8046 1.1201-3.7571c0.75259-0.95249 1.7257-1.4287 2.9192-1.4287 0.72906 0.00001 1.3523 0.14406 1.8697 0.43215 0.52327 0.28223 0.95543 0.71732 1.2964 1.3053m-5.5298 3.4484c-0.00001 1.1936 0.244 2.1314 0.73201 2.8134 0.49388 0.67616 1.17 1.0142 2.0285 1.0142 0.85842 0.000001 1.5346-0.33808 2.0285-1.0142 0.49388-0.68203 0.74082-1.6198 0.74083-2.8134-0.00001-1.1936-0.24695-2.1284-0.74083-2.8046-0.4939-0.68203-1.17-1.023-2.0285-1.0231-0.85843 0.000009-1.5346 0.34103-2.0285 1.0231-0.48801 0.67616-0.73202 1.611-0.73201 2.8046"/>
  <path id="path3080" style="" d="m498.52 49.997c-0.87019 0.000009-1.5581 0.34103-2.0638 1.0231-0.50565 0.67616-0.75847 1.6051-0.75847 2.7869s0.24988 2.1137 0.74965 2.7958c0.50565 0.67616 1.1965 1.0142 2.0726 1.0142 0.8643 0.000001 1.5493-0.34102 2.0549-1.0231 0.50564-0.68203 0.75846-1.611 0.75847-2.7869-0.00001-1.17-0.25283-2.0961-0.75847-2.7781-0.50566-0.68791-1.1906-1.0319-2.0549-1.0319m0-1.3758c1.4111 0.00001 2.5194 0.45862 3.3249 1.3758 0.8055 0.91723 1.2082 2.1872 1.2083 3.81-0.00001 1.6169-0.40276 2.8869-1.2083 3.81-0.80552 0.91722-1.9138 1.3758-3.3249 1.3758-1.417 0-2.5282-0.45861-3.3338-1.3758-0.79963-0.9231-1.1994-2.1931-1.1994-3.81 0-1.6228 0.39981-2.8928 1.1994-3.81 0.80551-0.91721 1.9168-1.3758 3.3338-1.3758"/>
 </g>
 <g id="g42" transform="translate(-1.6403 -7.513)">
  <path id="rect44" fill="#fdfd04" d="m120 120h20v20h-20z"/>
  <path id="rect46" d="m120 120h20v20h-20z" stroke="#000" stroke-width="2" fill="none"/>
 </g>
 <g id="text48">
  <path id="path3085" style="" d="m75.155 123.39v0.79375h-7.4612c0.07055 1.1171 0.40569 1.9697 1.0054 2.5576 0.6056 0.58209 1.4464 0.87313 2.5224 0.87313 0.62323 0 1.2259-0.0764 1.808-0.22931 0.58795-0.15287 1.17-0.38217 1.7462-0.68791v1.5346c-0.58209 0.24694-1.1789 0.43509-1.7903 0.56444-0.61149 0.12935-1.2318 0.19403-1.8609 0.19403-1.5757 0-2.8252-0.45861-3.7483-1.3758-0.91722-0.91722-1.3758-2.1578-1.3758-3.7218-0.000001-1.6169 0.43509-2.8986 1.3053-3.8453 0.87606-0.95249 2.0549-1.4287 3.5366-1.4288 1.3288 0.00001 2.3783 0.42923 3.1485 1.2876 0.7761 0.85255 1.1642 2.0138 1.1642 3.4837m-1.6228-0.47625c-0.01177-0.88782-0.26165-1.5963-0.74965-2.1255-0.48214-0.52915-1.123-0.79374-1.9226-0.79374-0.90547 0-1.6316 0.25577-2.1784 0.76729-0.54093 0.51153-0.85255 1.2318-0.93486 2.1608l5.7855-0.009"/>
  <path id="path3087" style="" d="m77.818 115.01h1.6228v13.723h-1.6228v-13.723"/>
  <path id="path3089" style="" d="m91.276 123.39v0.79375h-7.4612c0.07055 1.1171 0.40569 1.9697 1.0054 2.5576 0.6056 0.58209 1.4464 0.87313 2.5224 0.87313 0.62323 0 1.2259-0.0764 1.808-0.22931 0.58795-0.15287 1.17-0.38217 1.7462-0.68791v1.5346c-0.58209 0.24694-1.1789 0.43509-1.7903 0.56444-0.61149 0.12935-1.2318 0.19403-1.8609 0.19403-1.5757 0-2.8252-0.45861-3.7483-1.3758-0.91722-0.91722-1.3758-2.1578-1.3758-3.7218-0.000001-1.6169 0.43509-2.8986 1.3053-3.8453 0.87606-0.95249 2.0549-1.4287 3.5366-1.4288 1.3288 0.00001 2.3783 0.42923 3.1485 1.2876 0.7761 0.85255 1.1642 2.0138 1.1642 3.4837m-1.6228-0.47625c-0.01177-0.88782-0.26165-1.5963-0.74965-2.1255-0.48214-0.52915-1.123-0.79374-1.9226-0.79374-0.90547 0-1.6316 0.25577-2.1784 0.76729-0.54093 0.51153-0.85255 1.2318-0.93486 2.1608l5.7855-0.009"/>
  <path id="path3091" style="" d="m93.94 118.86h1.6228v10.054c-0.000003 1.2582-0.24107 2.1696-0.72319 2.734-0.47625 0.56444-1.2465 0.84666-2.3107 0.84666h-0.61736v-1.3758h0.43215c0.61736 0 1.0378-0.14405 1.2612-0.43215 0.22342-0.28222 0.33514-0.87313 0.33514-1.7727v-10.054m0-3.8453h1.6228v2.0549h-1.6228v-2.0549"/>
  <path id="path3093" style="" d="m107.4 123.39v0.79375h-7.4612c0.07056 1.1171 0.40569 1.9697 1.0054 2.5576 0.60559 0.58209 1.4464 0.87313 2.5224 0.87313 0.62323 0 1.2259-0.0764 1.808-0.22931 0.58795-0.15287 1.17-0.38217 1.7462-0.68791v1.5346c-0.58209 0.24694-1.1789 0.43509-1.7904 0.56444-0.61149 0.12935-1.2318 0.19403-1.8609 0.19403-1.5757 0-2.8252-0.45861-3.7483-1.3758-0.91722-0.91722-1.3758-2.1578-1.3758-3.7218-0.000001-1.6169 0.43509-2.8986 1.3053-3.8453 0.87606-0.95249 2.0549-1.4287 3.5366-1.4288 1.3288 0.00001 2.3783 0.42923 3.1485 1.2876 0.7761 0.85255 1.1642 2.0138 1.1642 3.4837m-1.6228-0.47625c-0.0118-0.88782-0.26165-1.5963-0.74965-2.1255-0.48214-0.52915-1.123-0.79374-1.9226-0.79374-0.90547 0-1.6316 0.25577-2.1784 0.76729-0.54093 0.51153-0.85255 1.2318-0.93486 2.1608l5.7856-0.009"/>
 </g>
 <g id="g52" transform="translate(-1.6403 -7.513)">
  <path id="rect54" fill="#7babe3" d="m180 100h60v60h-60z"/>
  <path id="rect56" d="m180 100h60v60h-60z" stroke="#000" stroke-width="2" fill="none"/>
 </g>
 <g id="g58" transform="translate(-1.6403 -7.513)">
  <path id="path60" d="m139.5 130h30.764" stroke="#000" stroke-width="2" fill="none"/>
  <path id="polygon62" d="m170.26 130-2.5-5 10 5-10 5z"/>
  <path id="polygon64" d="m170.26 130-2.5-5 10 5-10 5z" stroke="#000" stroke-width="2" fill="none"/>
 </g>
 <g id="text66">
  <path id="path3100" style="" d="m194.47 129.61h4.3656v-15.068l-4.7493 0.9525v-2.4342l4.7228-0.9525h2.6723v17.502h4.3656v2.249h-11.377v-2.249"/>
  <path id="path3102" style="" d="m213.56 129.61h9.3266v2.249h-12.541v-2.249c1.0142-1.0495 2.3945-2.4562 4.1407-4.2201 1.7551-1.7727 2.8575-2.9148 3.3073-3.4264 0.85547-0.96131 1.4508-1.7727 1.7859-2.4342 0.34395-0.67027 0.51593-1.3273 0.51594-1.9712-0.00001-1.0495-0.37043-1.905-1.1112-2.5664-0.73202-0.66144-1.6889-0.99217-2.8707-0.99219-0.83785 0.00002-1.7242 0.14554-2.6591 0.43656-0.92604 0.29106-1.9182 0.73203-2.9766 1.3229v-2.6988c1.076-0.43213 2.0814-0.75845 3.0162-0.97895 0.93486-0.22047 1.7903-0.33071 2.5665-0.33073 2.0461 0.00002 3.6777 0.51154 4.8948 1.5346s1.8256 2.3901 1.8256 4.101c-0.00002 0.81141-0.15436 1.5831-0.46302 2.3151-0.29988 0.7232-0.85109 1.5787-1.6536 2.5664-0.2205 0.25577-0.92164 0.99661-2.1034 2.2225-1.1818 1.2171-2.8487 2.9236-5.0006 5.1197"/>
 </g>
 <g id="text70">
  <path id="path3105" style="" d="m302.1 121.21c1.2788 0.27341 2.2754 0.84226 2.9898 1.7066 0.72318 0.86431 1.0848 1.9315 1.0848 3.2014-0.00001 1.9491-0.67029 3.4572-2.0108 4.5244-1.3406 1.0672-3.2456 1.6007-5.715 1.6007-0.82904 0-1.6845-0.0838-2.5665-0.25135-0.87313-0.15875-1.7771-0.40129-2.712-0.72761v-2.5797c0.74083 0.43215 1.5522 0.75847 2.4342 0.97896 0.88194 0.22048 1.8036 0.33073 2.7649 0.33072 1.6757 0.00001 2.9501-0.33072 3.8232-0.99218 0.88193-0.66146 1.3229-1.6228 1.3229-2.884-0.00001-1.1642-0.41011-2.0726-1.2303-2.7252-0.8114-0.66145-1.9447-0.99218-3.3999-0.99219h-2.3019v-2.196h2.4077c1.3141 0.00001 2.3195-0.26016 3.0162-0.78052 0.69672-0.52915 1.0451-1.2876 1.0451-2.2754-0.00001-1.0142-0.36161-1.7903-1.0848-2.3283-0.71438-0.54679-1.7418-0.82019-3.0824-0.82021-0.73202 0.00002-1.517 0.0794-2.3548 0.23813-0.83785 0.15876-1.7595 0.40571-2.7649 0.74083v-2.3812c1.0142-0.2822 1.9623-0.49387 2.8443-0.635 0.89075-0.14109 1.7286-0.21164 2.5135-0.21166 2.0285 0.00002 3.6336 0.46304 4.8154 1.3891 1.1818 0.91724 1.7727 2.1608 1.7727 3.7306-0.00001 1.0936-0.3131 2.0197-0.93927 2.7781-0.62619 0.74966-1.517 1.27-2.6723 1.561"/>
  <path id="path3107" style="" d="m317.3 120.92c-1.1994 0.00001-2.152 0.41011-2.8575 1.2303-0.69674 0.82021-1.0451 1.9447-1.0451 3.3734-0.00001 1.4199 0.34836 2.5444 1.0451 3.3734 0.70555 0.8202 1.658 1.2303 2.8575 1.2303 1.1994 0 2.1475-0.41011 2.8443-1.2303 0.70555-0.82903 1.0583-1.9535 1.0583-3.3734-0.00002-1.4287-0.35279-2.5532-1.0583-3.3734-0.69674-0.8202-1.6448-1.2303-2.8443-1.2303m5.3049-8.374v2.4342c-0.67029-0.31748-1.3494-0.56002-2.0373-0.7276-0.67911-0.16756-1.3538-0.25134-2.0241-0.25136-1.7639 0.00002-3.1133 0.59533-4.0481 1.7859-0.92605 1.1906-1.4552 2.9898-1.5875 5.3975 0.52034-0.76728 1.173-1.3538 1.9579-1.7595 0.78493-0.4145 1.6492-0.62175 2.5929-0.62177 1.9844 0.00002 3.5498 0.60415 4.6964 1.8124 1.1553 1.1994 1.733 2.8354 1.733 4.908-0.00001 2.0285-0.59973 3.6557-1.7992 4.8816s-2.7958 1.8388-4.789 1.8388c-2.2842 0-4.0305-0.87312-5.2388-2.6194-1.2083-1.7551-1.8124-4.2951-1.8124-7.62 0-3.1221 0.74083-5.6092 2.2225-7.4612 1.4817-1.8609 3.4704-2.7913 5.9663-2.7914 0.67027 0.00002 1.345 0.0662 2.0241 0.19843 0.68791 0.13231 1.4023 0.33075 2.1431 0.59532"/>
 </g>
 <g id="text74">
  <path id="path3110" style="" d="m499.72 122.48c-1.27 0.00001-2.271 0.33955-3.003 1.0186-0.7232 0.67911-1.0848 1.614-1.0848 2.8046-0.00001 1.1906 0.36159 2.1255 1.0848 2.8046 0.73201 0.6791 1.733 1.0186 3.003 1.0186s2.271-0.33955 3.003-1.0186c0.732-0.68791 1.098-1.6228 1.098-2.8046-0.00001-1.1906-0.36602-2.1255-1.098-2.8046-0.7232-0.67909-1.7242-1.0186-3.003-1.0186m-2.6723-1.1377c-1.1465-0.28221-2.0417-0.81579-2.6855-1.6007-0.635-0.78491-0.9525-1.7418-0.9525-2.8707 0-1.5787 0.56003-2.8266 1.6801-3.7438 1.1289-0.9172 2.6723-1.3758 4.6302-1.3758 1.9667 0.00002 3.5101 0.45863 4.6302 1.3758 1.12 0.91724 1.6801 2.1652 1.6801 3.7438-0.00001 1.1289-0.32192 2.0858-0.96573 2.8707-0.63501 0.78494-1.5214 1.3185-2.6591 1.6007 1.2876 0.29987 2.2886 0.88636 3.003 1.7595 0.72318 0.87313 1.0848 1.9403 1.0848 3.2014-0.00001 1.9138-0.58651 3.3823-1.7595 4.4053-1.1642 1.023-2.8354 1.5346-5.0138 1.5346s-3.8541-0.51153-5.0271-1.5346c-1.1642-1.023-1.7462-2.4915-1.7462-4.4053 0-1.2612 0.3616-2.3283 1.0848-3.2014 0.72319-0.87312 1.7286-1.4596 3.0162-1.7595m-0.97896-4.2201c0 1.0231 0.31749 1.8212 0.9525 2.3945 0.64381 0.57327 1.5434 0.8599 2.6988 0.85989 1.1465 0.00001 2.0417-0.28662 2.6855-0.85989 0.65263-0.57325 0.97895-1.3714 0.97896-2.3945-0.00001-1.023-0.32633-1.8212-0.97896-2.3945-0.64383-0.57325-1.539-0.85988-2.6855-0.8599-1.1554 0.00002-2.0549 0.28665-2.6988 0.8599-0.63501 0.57327-0.9525 1.3714-0.9525 2.3945"/>
  <path id="path3112" style="" d="m513.56 129.61h9.3266v2.249h-12.541v-2.249c1.0142-1.0495 2.3945-2.4562 4.1407-4.2201 1.7551-1.7727 2.8575-2.9148 3.3073-3.4264 0.85547-0.96131 1.4508-1.7727 1.7859-2.4342 0.34395-0.67027 0.51593-1.3273 0.51594-1.9712-0.00001-1.0495-0.37043-1.905-1.1112-2.5664-0.73202-0.66144-1.6889-0.99217-2.8707-0.99219-0.83785 0.00002-1.7242 0.14554-2.6591 0.43656-0.92604 0.29106-1.9182 0.73203-2.9766 1.3229v-2.6988c1.076-0.43213 2.0814-0.75845 3.0162-0.97895 0.93486-0.22047 1.7903-0.33071 2.5665-0.33073 2.0461 0.00002 3.6777 0.51154 4.8948 1.5346s1.8256 2.3901 1.8256 4.101c-0.00002 0.81141-0.15436 1.5831-0.46302 2.3151-0.29988 0.7232-0.85109 1.5787-1.6536 2.5664-0.2205 0.25577-0.92164 0.99661-2.1034 2.2225-1.1818 1.2171-2.8487 2.9236-5.0006 5.1197"/>
 </g>
 <g id="text78">
  <path id="path3115" style="" d="m394.03 112.11h10.491v2.249h-8.0433v4.8419c0.38805-0.13228 0.77611-0.22929 1.1642-0.29104 0.38805-0.0705 0.7761-0.10582 1.1642-0.10584 2.2048 0.00002 3.9511 0.60415 5.2388 1.8124 1.2876 1.2083 1.9314 2.8443 1.9314 4.908-0.00001 2.1255-0.66147 3.7791-1.9844 4.9609-1.3229 1.173-3.1882 1.7595-5.5959 1.7595-0.82903 0-1.6757-0.0706-2.54-0.21167-0.85548-0.14111-1.7418-0.35277-2.6591-0.635v-2.6855c0.79375 0.43215 1.614 0.75406 2.4606 0.96572 0.84666 0.21167 1.7418 0.31751 2.6855 0.3175 1.5258 0.00001 2.734-0.40128 3.6248-1.2038 0.89075-0.80256 1.3361-1.8918 1.3362-3.2676-0.00002-1.3758-0.4454-2.465-1.3362-3.2676-0.89077-0.80256-2.099-1.2038-3.6248-1.2038-0.71438 0.00001-1.4288 0.0794-2.1431 0.23812-0.70556 0.15876-1.4288 0.40571-2.1696 0.74084v-9.9219"/>
  <path id="path3117" style="" d="m419.35 121.21c1.2788 0.27341 2.2754 0.84226 2.9898 1.7066 0.72318 0.86431 1.0848 1.9315 1.0848 3.2014-0.00001 1.9491-0.67029 3.4572-2.0108 4.5244-1.3406 1.0672-3.2456 1.6007-5.715 1.6007-0.82903 0-1.6845-0.0838-2.5665-0.25135-0.87312-0.15875-1.7771-0.40129-2.712-0.72761v-2.5797c0.74083 0.43215 1.5522 0.75847 2.4342 0.97896 0.88194 0.22048 1.8036 0.33073 2.7649 0.33072 1.6757 0.00001 2.9501-0.33072 3.8232-0.99218 0.88193-0.66146 1.3229-1.6228 1.3229-2.884-0.00001-1.1642-0.41011-2.0726-1.2303-2.7252-0.81139-0.66145-1.9447-0.99218-3.3999-0.99219h-2.3019v-2.196h2.4077c1.3141 0.00001 2.3195-0.26016 3.0162-0.78052 0.69673-0.52915 1.0451-1.2876 1.0451-2.2754-0.00001-1.0142-0.3616-1.7903-1.0848-2.3283-0.71438-0.54679-1.7418-0.82019-3.0824-0.82021-0.73202 0.00002-1.517 0.0794-2.3548 0.23813-0.83785 0.15876-1.7595 0.40571-2.7649 0.74083v-2.3812c1.0142-0.2822 1.9623-0.49387 2.8443-0.635 0.89075-0.14109 1.7286-0.21164 2.5135-0.21166 2.0285 0.00002 3.6336 0.46304 4.8154 1.3891 1.1818 0.91724 1.7727 2.1608 1.7727 3.7306-0.00001 1.0936-0.3131 2.0197-0.93927 2.7781-0.62619 0.74966-1.517 1.27-2.6723 1.561"/>
 </g>
 <g id="g82" transform="translate(-1.6403 -7.513)">
  <path id="path84" d="m340.97 160.97c40 40 98.06 40 131.18 6.885" stroke="#f62e2e" stroke-width="2" fill="none"/>
  <path id="polygon86" fill="#f62e2e" d="m472.14 167.86-5.303-1.768 10.606-3.535-3.535 10.606z"/>
  <path id="polygon88" d="m472.14 167.86-5.303-1.768 10.606-3.535-3.535 10.606z" stroke="#f62e2e" stroke-width="2" fill="none"/>
 </g>
 <g id="g90" transform="translate(-1.6403 -7.513)">
  <path id="rect92" fill="#fdfd04" d="m180 150h60v20h-60z"/>
  <path id="rect94" d="m180 150h60v20h-60z" stroke="#000" stroke-width="2" fill="none"/>
 </g>
 <g id="g96" transform="translate(-1.6403 -7.513)">
  <path id="rect98" fill="#fdfd04" d="m280 150h60v20h-60z"/>
  <path id="rect100" d="m280 150h60v20h-60z" stroke="#000" stroke-width="2" fill="none"/>
 </g>
 <g id="g102" transform="translate(-1.6403 -7.513)">
  <path id="rect104" fill="#fdfd04" d="m380 150h60v20h-60z"/>
  <path id="rect106" d="m380 150h60v20h-60z" stroke="#000" stroke-width="2" fill="none"/>
 </g>
 <g id="g108" transform="translate(-1.6403 -7.513)">
  <path id="rect110" fill="#fdfd04" d="m480 150h60v20h-60z"/>
  <path id="rect112" d="m480 150h60v20h-60z" stroke="#000" stroke-width="2" fill="none"/>
 </g>
 <path id="line114" d="m478.36 142.49 60 20" stroke="#000" stroke-width="2" fill="none"/>
 <path id="line116" d="m478.36 162.49 60-20" stroke="#000" stroke-width="2" fill="none"/>
 <g id="g118" transform="translate(-1.6403 -7.513)">
  <path id="path120" d="m340 160c40 0-0.976-30 29.288-30" stroke="#000" stroke-width="2" fill="none"/>
  <path id="polygon122" d="m369.29 130-2.5-5 10 5-10 5z"/>
  <path id="polygon124" d="m369.29 130-2.5-5 10 5-10 5z" stroke="#000" stroke-width="2" fill="none"/>
 </g>
 <path id="line126" d="m368.36 162.49 80-80" stroke="#f62e2e" stroke-width="2" fill="none"/>
 <g id="g128" transform="translate(-1.6403 -7.513)">
  <path id="path130" d="m440 160c40 0-0.976-30 29.288-30" stroke="#000" stroke-width="2" fill="none"/>
  <path id="polygon132" d="m469.29 130-2.5-5 10 5-10 5z"/>
  <path id="polygon134" d="m469.29 130-2.5-5 10 5-10 5z" stroke="#000" stroke-width="2" fill="none"/>
 </g>
 <g id="g136" transform="translate(-1.6403 -7.513)">
  <path id="rect138" fill="#fdfd04" d="m400 50h20v20h-20z"/>
  <path id="rect140" d="m400 50h20v20h-20z" stroke="#000" stroke-width="2" fill="none"/>
 </g>
 <path id="line142" d="m368.36 82.487 80 80" stroke="#f62e2e" stroke-width="2" fill="none"/>
 <path id="line144" d="m348.36 122.49 20 20" stroke="#f62e2e" stroke-width="2" fill="none"/>
 <path id="line146" d="m348.36 142.49 20-20" stroke="#f62e2e" stroke-width="2" fill="none"/>
</svg>
