<?xml version="1.0" encoding="UTF-8" standalone="no"?>
<!-- Created with Inkscape (http://www.inkscape.org/) -->
<svg id="svg2" xmlns:rdf="http://www.w3.org/1999/02/22-rdf-syntax-ns#" xmlns="http://www.w3.org/2000/svg" height="458.73" width="345" version="1.1" xmlns:cc="http://creativecommons.org/ns#" xmlns:dc="http://purl.org/dc/elements/1.1/" viewBox="198 58 178.18024 242">
 <metadata id="metadata116">
  <rdf:RDF>
   <cc:Work rdf:about="">
    <dc:format>image/svg+xml</dc:format>
    <dc:type rdf:resource="http://purl.org/dc/dcmitype/StillImage"/>
   </cc:Work>
  </rdf:RDF>
 </metadata>
 <g id="g4" transform="translate(-2.9099 -1)">
  <path id="rect6" fill="#7babe3" d="m280 120h20v20h-20z"/>
  <path id="rect8" d="m280 120h20v20h-20z" stroke="#000" stroke-width="2" fill="none"/>
 </g>
 <g id="g10" transform="translate(-2.9099 -1)">
  <path id="rect12" fill="#7babe3" d="m340 140h20v20h-20z"/>
  <path id="rect14" d="m340 140h20v20h-20z" stroke="#000" stroke-width="2" fill="none"/>
 </g>
 <g id="g16" transform="translate(-2.9099 -1)">
  <path id="rect18" fill="#7babe3" d="m360 200h20v20h-20z"/>
  <path id="rect20" d="m360 200h20v20h-20z" stroke="#000" stroke-width="2" fill="none"/>
 </g>
 <g id="g22" transform="translate(-2.9099 -1)">
  <path id="rect24" fill="#7babe3" d="m340 260h20v20h-20z"/>
  <path id="rect26" d="m340 260h20v20h-20z" stroke="#000" stroke-width="2" fill="none"/>
 </g>
 <g id="g28" transform="translate(-2.9099 -1)">
  <path id="rect30" fill="#7babe3" d="m280 280h20v20h-20z"/>
  <path id="rect32" d="m280 280h20v20h-20z" stroke="#000" stroke-width="2" fill="none"/>
 </g>
 <g id="g34" transform="translate(-2.9099 -1)">
  <path id="rect36" fill="#7babe3" d="m220 140h20v20h-20z"/>
  <path id="rect38" d="m220 140h20v20h-20z" stroke="#000" stroke-width="2" fill="none"/>
 </g>
 <g id="g40" transform="translate(-2.9099 -1)">
  <path id="rect42" fill="#7babe3" d="m200 200h20v20h-20z"/>
  <path id="rect44" d="m200 200h20v20h-20z" stroke="#000" stroke-width="2" fill="none"/>
 </g>
 <g id="g46" transform="translate(-2.9099 -1)">
  <path id="rect48" fill="#7babe3" d="m220 260h20v20h-20z"/>
  <path id="rect50" d="m220 260h20v20h-20z" stroke="#000" stroke-width="2" fill="none"/>
 </g>
 <g id="g52" stroke="#000" stroke-width="2" fill="none" transform="translate(-2.9099 -1)">
  <path id="line54" d="m300 130 36 18"/>
  <path id="polyline56" d="m326.82 149h11.18l-6.708-8.944"/>
 </g>
 <g id="g58" stroke="#000" stroke-width="2" fill="none" transform="translate(-2.9099 -1)">
  <path id="line60" d="m350 160 18 36"/>
  <path id="polyline62" d="m360.06 191.29 8.94 6.71v-11.18"/>
 </g>
 <g id="g64" stroke="#000" stroke-width="2" fill="none" transform="translate(-2.9099 -1)">
  <path id="line66" d="m370 220-18 36"/>
  <path id="polyline68" d="m351 246.82v11.18l8.944-6.708"/>
 </g>
 <g id="g70" stroke="#000" stroke-width="2" fill="none" transform="translate(-2.9099 -1)">
  <path id="line72" d="m340 270-36 18"/>
  <path id="polyline74" d="m308.71 280.06-6.71 8.94h11.18"/>
 </g>
 <g id="g76" stroke="#000" stroke-width="2" fill="none" transform="translate(-2.9099 -1)">
  <path id="line78" d="m280 290-36-18"/>
  <path id="polyline80" d="m253.18 271h-11.18l6.708 8.944"/>
 </g>
 <g id="g82" stroke="#000" stroke-width="2" fill="none" transform="translate(-2.9099 -1)">
  <path id="line84" d="m230 260-18-36"/>
  <path id="polyline86" d="m219.94 228.71-8.94-6.71v11.18"/>
 </g>
 <g id="g88" stroke="#000" stroke-width="2" fill="none" transform="translate(-2.9099 -1)">
  <path id="line90" d="m214.4 199 13.94-34.849"/>
  <path id="polyline92" d="m230.1 173.22-0.928-11.142-8.357 7.428"/>
 </g>
 <g id="g94" stroke="#000" stroke-width="2" fill="none" transform="translate(-2.9099 -1)">
  <path id="line96" d="m240 150 36-18"/>
  <path id="polyline98" d="m271.29 139.94 6.71-8.94h-11.18"/>
 </g>
 <g id="g100" transform="translate(-2.9099 -1)">
  <path id="rect102" fill="#fdfd04" d="m280 60h20v20h-20z"/>
  <path id="rect104" d="m280 60h20v20h-20z" stroke="#000" stroke-width="2" fill="none"/>
 </g>
 <g id="g106" stroke="#000" stroke-width="2" fill="none" transform="translate(-2.9099 -1)">
  <path id="line108" d="m290 80v35.528"/>
  <path id="polyline110" d="m285 107.76 5 10 5-10"/>
 </g>
</svg>
