<?xml version="1.0" encoding="UTF-8" standalone="no"?>
<!-- Created with Inkscape (http://www.inkscape.org/) -->
<svg id="svg2" xmlns:rdf="http://www.w3.org/1999/02/22-rdf-syntax-ns#" xmlns="http://www.w3.org/2000/svg" height="367.96" width="1202.9" version="1.1" xmlns:cc="http://creativecommons.org/ns#" xmlns:dc="http://purl.org/dc/elements/1.1/" viewBox="3998 498 661.99997 191.64334">
 <metadata id="metadata214">
  <rdf:RDF>
   <cc:Work rdf:about="">
    <dc:format>image/svg+xml</dc:format>
    <dc:type rdf:resource="http://purl.org/dc/dcmitype/StillImage"/>
   </cc:Work>
  </rdf:RDF>
 </metadata>
 <g id="g4" transform="translate(-1 -5.9283)">
  <path id="rect6" fill="#7f7f7f" d="m4380 620h20v40h-20z"/>
  <path id="rect8" d="m4380 620h20v40h-20z" stroke="#7f7f7f" stroke-width="2" fill="none"/>
 </g>
 <g id="g10" transform="translate(-1 -5.9283)">
  <path id="rect12" fill="#7f7f7f" d="m4540 620h20v40h-20z"/>
  <path id="rect14" d="m4540 620h20v40h-20z" stroke="#7f7f7f" stroke-width="2" fill="none"/>
 </g>
 <g id="g16" transform="translate(-1 -5.9283)">
  <path id="rect18" fill="#00f" d="m4300 660h340v40h-340z"/>
  <path id="rect20" d="m4300 660h340v40h-340z" stroke="#00f" stroke-width="2" fill="none"/>
 </g>
 <g id="g22" transform="translate(-1 -5.9283)">
  <path id="rect24" fill="#0f0" d="m4e3 620h300v80h-300z"/>
  <path id="rect26" d="m4e3 620h300v80h-300z" stroke="#0f0" stroke-width="2" fill="none"/>
 </g>
 <g id="g28" transform="translate(-1 -5.9283)">
  <path id="rect30" fill="#0f0" d="m4640 620h20v80h-20z"/>
  <path id="rect32" d="m4640 620h20v80h-20z" stroke="#0f0" stroke-width="2" fill="none"/>
 </g>
 <g id="g34" transform="translate(-1 -5.9283)">
  <path id="rect36" fill="#7f7f7f" d="m4e3 600h300v20h-300z"/>
  <path id="rect38" d="m4e3 600h300v20h-300z" stroke="#7f7f7f" stroke-width="2" fill="none"/>
 </g>
 <g id="g40" transform="translate(-1 -5.9283)">
  <g id="g42">
   <path id="polygon44" fill="#ffa500" d="m4188 580h-20l-8-12h-32l-8 8v4 12h68z"/>
   <path id="polygon46" d="m4188 580h-20l-8-12h-32l-8 8v4 12h68z" stroke="#000" stroke-width="2" fill="none"/>
  </g>
  <g id="g48">
   <path id="ellipse50" fill="#3f3f3f" d="m4144 592c0 3.3137-2.6863 6-6 6s-6-2.6863-6-6 2.6863-6 6-6 6 2.6863 6 6z"/>
   <path id="ellipse52" d="m4144 592c0 3.3137-2.6863 6-6 6s-6-2.6863-6-6 2.6863-6 6-6 6 2.6863 6 6z" stroke="#000" stroke-width="2" fill="none"/>
  </g>
  <g id="g54">
   <path id="ellipse56" fill="#3f3f3f" d="m4180 592c0 3.3137-2.6863 6-6 6s-6-2.6863-6-6 2.6863-6 6-6 6 2.6863 6 6z"/>
   <path id="ellipse58" d="m4180 592c0 3.3137-2.6863 6-6 6s-6-2.6863-6-6 2.6863-6 6-6 6 2.6863 6 6z" stroke="#000" stroke-width="2" fill="none"/>
  </g>
 </g>
 <g id="g60" transform="translate(-1 -5.9283)">
  <path id="rect62" fill="#5f5f5f" d="m4280 508h20v52h-20z"/>
  <path id="rect64" d="m4280 508h20v52h-20z" stroke="#000" stroke-width="2" fill="none"/>
 </g>
 <g id="g66" transform="translate(-1 -5.9283)">
  <path id="ellipse68" fill="#004000" d="m4296 550c0 3.3137-2.6863 6-6 6s-6-2.6863-6-6 2.6863-6 6-6 6 2.6863 6 6z"/>
  <path id="ellipse70" d="m4296 550c0 3.3137-2.6863 6-6 6s-6-2.6863-6-6 2.6863-6 6-6 6 2.6863 6 6z" stroke="#000" stroke-width="2" fill="none"/>
 </g>
 <g id="g72" transform="translate(-1 -5.9283)">
  <path id="ellipse74" fill="#544300" d="m4296 534c0 3.3137-2.6863 6-6 6s-6-2.6863-6-6 2.6863-6 6-6 6 2.6863 6 6z"/>
  <path id="ellipse76" d="m4296 534c0 3.3137-2.6863 6-6 6s-6-2.6863-6-6 2.6863-6 6-6 6 2.6863 6 6z" stroke="#000" stroke-width="2" fill="none"/>
 </g>
 <g id="g78" transform="translate(-1 -5.9283)">
  <path id="ellipse80" fill="#f00" d="m4296 518c0 3.3137-2.6863 6-6 6s-6-2.6863-6-6 2.6863-6 6-6 6 2.6863 6 6z"/>
  <path id="ellipse82" d="m4296 518c0 3.3137-2.6863 6-6 6s-6-2.6863-6-6 2.6863-6 6-6 6 2.6863 6 6z" stroke="#000" stroke-width="2" fill="none"/>
 </g>
 <g id="g84" transform="translate(-1 -5.9283)">
  <path id="rect86" fill="#7f7f7f" d="m4288 560h4v40h-4z"/>
  <path id="rect88" d="m4288 560h4v40h-4z" stroke="#000" stroke-width="2" fill="none"/>
 </g>
 <g id="g90" transform="translate(-1 -5.9283)">
  <path id="rect92" fill="#7f7f7f" d="m4300 600h340v20h-340z"/>
  <path id="rect94" d="m4300 600h340v20h-340z" stroke="#7f7f7f" stroke-width="2" fill="none"/>
 </g>
 <g id="g96" transform="translate(-1 -5.9283)">
  <path id="rect98" fill="#7f7f7f" d="m4640 600h20v20h-20z"/>
  <path id="rect100" d="m4640 600h20v20h-20z" stroke="#7f7f7f" stroke-width="2" fill="none"/>
 </g>
 <g id="g102" transform="translate(-1 -5.9283)">
  <path id="polygon104" fill="#1e90ff" d="m4476 592v-8l-4-4h-12l-8-12h-24l-4 4-4 8v12z"/>
  <path id="polygon106" d="m4476 592v-8l-4-4h-12l-8-12h-24l-4 4-4 8v12z" stroke="#000" stroke-width="2" fill="none"/>
 </g>
 <g id="g108" transform="translate(-1 -5.9283)">
  <path id="ellipse110" fill="#3f3f3f" d="m4438 592c0 3.3137-2.6863 6-6 6s-6-2.6863-6-6 2.6863-6 6-6 6 2.6863 6 6z"/>
  <path id="ellipse112" d="m4438 592c0 3.3137-2.6863 6-6 6s-6-2.6863-6-6 2.6863-6 6-6 6 2.6863 6 6z" stroke="#000" stroke-width="2" fill="none"/>
 </g>
 <g id="g114" transform="translate(-1 -5.9283)">
  <path id="ellipse116" fill="#3f3f3f" d="m4468 592c0 3.3137-2.6863 6-6 6s-6-2.6863-6-6 2.6863-6 6-6 6 2.6863 6 6z"/>
  <path id="ellipse118" d="m4468 592c0 3.3137-2.6863 6-6 6s-6-2.6863-6-6 2.6863-6 6-6 6 2.6863 6 6z" stroke="#000" stroke-width="2" fill="none"/>
 </g>
 <path id="line120" d="m4415 566.07h-20" stroke="#7f7f7f" fill="none"/>
 <path id="line122" d="m4411 574.07h-24" stroke="#7f7f7f" fill="none"/>
 <path id="line124" d="m4411 582.07h-20" stroke="#7f7f7f" fill="none"/>
 <g id="g126" transform="translate(-1 -5.9283)">
  <path id="polygon128" fill="#a52a2a" d="m4604 580h-20l-8-12h-20l-8 12h-12v12h68z"/>
  <path id="polygon130" d="m4604 580h-20l-8-12h-20l-8 12h-12v12h68z" stroke="#000" stroke-width="2" fill="none"/>
 </g>
 <g id="g132" transform="translate(-1 -5.9283)">
  <path id="ellipse134" fill="#3f3f3f" d="m4560 592c0 3.3137-2.6863 6-6 6s-6-2.6863-6-6 2.6863-6 6-6 6 2.6863 6 6z"/>
  <path id="ellipse136" d="m4560 592c0 3.3137-2.6863 6-6 6s-6-2.6863-6-6 2.6863-6 6-6 6 2.6863 6 6z" stroke="#000" stroke-width="2" fill="none"/>
 </g>
 <g id="g138" transform="translate(-1 -5.9283)">
  <path id="ellipse140" fill="#3f3f3f" d="m4596 592c0 3.3137-2.6863 6-6 6s-6-2.6863-6-6 2.6863-6 6-6 6 2.6863 6 6z"/>
  <path id="ellipse142" d="m4596 592c0 3.3137-2.6863 6-6 6s-6-2.6863-6-6 2.6863-6 6-6 6 2.6863 6 6z" stroke="#000" stroke-width="2" fill="none"/>
 </g>
 <path id="line144" d="m4531 566.07h-20" stroke="#7f7f7f" fill="none"/>
 <path id="line146" d="m4527 574.07h-24" stroke="#7f7f7f" fill="none"/>
 <path id="line148" d="m4527 582.07h-20" stroke="#7f7f7f" fill="none"/>
 <g id="g150" stroke="#f00" stroke-width="3" fill="none" transform="translate(-1 -5.9283)">
  <path id="line152" d="m4282 518h-8"/>
  <path id="line154" d="m4290 526v8"/>
  <path id="line156" d="m4306 518h-8"/>
  <path id="line158" d="m4290 500v8"/>
  <path id="line160" d="m4284 512-6-6"/>
  <path id="line162" d="m4284 524-6 6"/>
  <path id="line164" d="m4296 524 6 6"/>
  <path id="line166" d="m4296 512 6-6"/>
 </g>
 <path id="rect168" d="m3999 594.07h660v100h-660z" stroke="#000" stroke-width="2" fill="none"/>
 <g id="g170" transform="translate(-1 -5.9283)">
  <g id="g172">
   <path id="polygon174" fill="#f00" d="m4268 580h-16l-8-12h-24l-8 12h-12v12h68z"/>
   <path id="polygon176" d="m4268 580h-16l-8-12h-24l-8 12h-12v12h68z" stroke="#000" stroke-width="2" fill="none"/>
  </g>
  <g id="g178">
   <path id="ellipse180" fill="#3f3f3f" d="m4224 592c0 3.3137-2.6863 6-6 6s-6-2.6863-6-6 2.6863-6 6-6 6 2.6863 6 6z"/>
   <path id="ellipse182" d="m4224 592c0 3.3137-2.6863 6-6 6s-6-2.6863-6-6 2.6863-6 6-6 6 2.6863 6 6z" stroke="#000" stroke-width="2" fill="none"/>
  </g>
  <g id="g184">
   <path id="ellipse186" fill="#3f3f3f" d="m4260 592c0 3.3137-2.6863 6-6 6s-6-2.6863-6-6 2.6863-6 6-6 6 2.6863 6 6z"/>
   <path id="ellipse188" d="m4260 592c0 3.3137-2.6863 6-6 6s-6-2.6863-6-6 2.6863-6 6-6 6 2.6863 6 6z" stroke="#000" stroke-width="2" fill="none"/>
  </g>
 </g>
 <g id="g190" transform="translate(-1 -5.9283)">
  <g id="g192">
   <path id="polygon194" fill="#00f" d="m4098 544h-92v46h92z"/>
   <path id="polygon196" d="m4098 544h-92v46h92z" stroke="#000" stroke-width="2" fill="none"/>
  </g>
  <g id="g198">
   <path id="ellipse200" fill="#3f3f3f" d="m4034 590c0 4.4183-3.5817 8-8 8s-8-3.5817-8-8 3.5817-8 8-8 8 3.5817 8 8z"/>
   <path id="ellipse202" d="m4034 590c0 4.4183-3.5817 8-8 8s-8-3.5817-8-8 3.5817-8 8-8 8 3.5817 8 8z" stroke="#000" stroke-width="2" fill="none"/>
  </g>
  <g id="g204">
   <path id="ellipse206" fill="#3f3f3f" d="m4086 590c0 4.4183-3.5817 8-8 8s-8-3.5817-8-8 3.5817-8 8-8 8 3.5817 8 8z"/>
   <path id="ellipse208" d="m4086 590c0 4.4183-3.5817 8-8 8s-8-3.5817-8-8 3.5817-8 8-8 8 3.5817 8 8z" stroke="#000" stroke-width="2" fill="none"/>
  </g>
 </g>
</svg>
