<?xml version="1.0" encoding="UTF-8" standalone="no"?>
<!-- Created with Inkscape (http://www.inkscape.org/) -->
<svg id="svg2" xmlns:rdf="http://www.w3.org/1999/02/22-rdf-syntax-ns#" xmlns="http://www.w3.org/2000/svg" height="217.91" width="670.32" version="1.1" xmlns:cc="http://creativecommons.org/ns#" xmlns:dc="http://purl.org/dc/elements/1.1/" viewBox="66 47 378.35973 108.94285">
 <metadata id="metadata136">
  <rdf:RDF>
   <cc:Work rdf:about="">
    <dc:format>image/svg+xml</dc:format>
    <dc:type rdf:resource="http://purl.org/dc/dcmitype/StillImage"/>
   </cc:Work>
  </rdf:RDF>
 </metadata>
 <g id="g4" transform="translate(-1.6403 -8.0286)">
  <path id="path6" d="m140 120c40 0 0 20 30.264 20" stroke="#000" stroke-width="2" fill="none"/>
  <path id="polygon8" d="m170.26 140-2.5-5 10 5-10 5z"/>
  <path id="polygon10" d="m170.26 140-2.5-5 10 5-10 5z" stroke="#000" stroke-width="2" fill="none"/>
 </g>
 <g id="g12" transform="translate(-1.6403 -8.0286)">
  <path id="rect14" fill="#7babe3" d="m280 130h60v20h-60z"/>
  <path id="rect16" d="m280 130h60v20h-60z" stroke="#000" stroke-width="2" fill="none"/>
 </g>
 <g id="g18" transform="translate(-1.6403 -8.0286)">
  <path id="rect20" fill="#7babe3" d="m380 130h60v20h-60z"/>
  <path id="rect22" d="m380 130h60v20h-60z" stroke="#000" stroke-width="2" fill="none"/>
 </g>
 <g id="g24" transform="translate(-1.6403 -8.0286)">
  <path id="rect26" fill="#7babe3" d="m180 130h60v20h-60z"/>
  <path id="rect28" d="m180 130h60v20h-60z" stroke="#000" stroke-width="2" fill="none"/>
 </g>
 <g id="g30" transform="translate(-1.6403 -8.0286)">
  <path id="rect32" fill="#fdfd04" d="m120 110h20v20h-20z"/>
  <path id="rect34" d="m120 110h20v20h-20z" stroke="#000" stroke-width="2" fill="none"/>
 </g>
 <g id="g36" transform="translate(-1.6403 -8.0286)">
  <path id="path38" d="m240 160c40 0 0-20 30.264-20" stroke="#000" stroke-width="2" fill="none"/>
  <path id="polygon40" d="m270.26 140-2.5-5 10 5-10 5z"/>
  <path id="polygon42" d="m270.26 140-2.5-5 10 5-10 5z" stroke="#000" stroke-width="2" fill="none"/>
 </g>
 <g id="text44">
  <path id="path3059" style="" d="m75.155 112.88v0.79375h-7.4612c0.07055 1.1171 0.40569 1.9697 1.0054 2.5576 0.6056 0.58208 1.4464 0.87312 2.5224 0.87312 0.62323 0 1.2259-0.0764 1.808-0.22931 0.58795-0.15286 1.17-0.38217 1.7462-0.68791v1.5346c-0.58209 0.24694-1.1789 0.43509-1.7903 0.56444-0.61149 0.12936-1.2318 0.19403-1.8609 0.19403-1.5757 0-2.8252-0.45861-3.7483-1.3758-0.91722-0.91722-1.3758-2.1578-1.3758-3.7218-0.000001-1.6169 0.43509-2.8986 1.3053-3.8453 0.87606-0.95249 2.0549-1.4287 3.5366-1.4288 1.3288 0.00001 2.3783 0.42922 3.1485 1.2876 0.7761 0.85256 1.1642 2.0138 1.1642 3.4837m-1.6228-0.47625c-0.01177-0.88781-0.26165-1.5963-0.74965-2.1255-0.48214-0.52916-1.123-0.79374-1.9226-0.79375-0.90547 0.00001-1.6316 0.25577-2.1784 0.76729-0.54093 0.51153-0.85255 1.2318-0.93486 2.1608l5.7855-0.009"/>
  <path id="path3061" style="" d="m77.818 104.5h1.6228v13.723h-1.6228v-13.723"/>
  <path id="path3063" style="" d="m91.276 112.88v0.79375h-7.4612c0.07055 1.1171 0.40569 1.9697 1.0054 2.5576 0.6056 0.58208 1.4464 0.87312 2.5224 0.87312 0.62323 0 1.2259-0.0764 1.808-0.22931 0.58795-0.15286 1.17-0.38217 1.7462-0.68791v1.5346c-0.58209 0.24694-1.1789 0.43509-1.7903 0.56444-0.61149 0.12936-1.2318 0.19403-1.8609 0.19403-1.5757 0-2.8252-0.45861-3.7483-1.3758-0.91722-0.91722-1.3758-2.1578-1.3758-3.7218-0.000001-1.6169 0.43509-2.8986 1.3053-3.8453 0.87606-0.95249 2.0549-1.4287 3.5366-1.4288 1.3288 0.00001 2.3783 0.42922 3.1485 1.2876 0.7761 0.85256 1.1642 2.0138 1.1642 3.4837m-1.6228-0.47625c-0.01177-0.88781-0.26165-1.5963-0.74965-2.1255-0.48214-0.52916-1.123-0.79374-1.9226-0.79375-0.90547 0.00001-1.6316 0.25577-2.1784 0.76729-0.54093 0.51153-0.85255 1.2318-0.93486 2.1608l5.7855-0.009"/>
  <path id="path3065" style="" d="m93.94 108.34h1.6228v10.054c-0.000003 1.2582-0.24107 2.1696-0.72319 2.734-0.47625 0.56444-1.2465 0.84666-2.3107 0.84667h-0.61736v-1.3758h0.43215c0.61736-0.00001 1.0378-0.14406 1.2612-0.43216 0.22342-0.28222 0.33514-0.87312 0.33514-1.7727v-10.054m0-3.8453h1.6228v2.0549h-1.6228v-2.0549"/>
  <path id="path3067" style="" d="m107.4 112.88v0.79375h-7.4612c0.07056 1.1171 0.40569 1.9697 1.0054 2.5576 0.60559 0.58208 1.4464 0.87312 2.5224 0.87312 0.62323 0 1.2259-0.0764 1.808-0.22931 0.58795-0.15286 1.17-0.38217 1.7462-0.68791v1.5346c-0.58209 0.24694-1.1789 0.43509-1.7904 0.56444-0.61149 0.12936-1.2318 0.19403-1.8609 0.19403-1.5757 0-2.8252-0.45861-3.7483-1.3758-0.91722-0.91722-1.3758-2.1578-1.3758-3.7218-0.000001-1.6169 0.43509-2.8986 1.3053-3.8453 0.87606-0.95249 2.0549-1.4287 3.5366-1.4288 1.3288 0.00001 2.3783 0.42922 3.1485 1.2876 0.7761 0.85256 1.1642 2.0138 1.1642 3.4837m-1.6228-0.47625c-0.0118-0.88781-0.26165-1.5963-0.74965-2.1255-0.48214-0.52916-1.123-0.79374-1.9226-0.79375-0.90547 0.00001-1.6316 0.25577-2.1784 0.76729-0.54093 0.51153-0.85255 1.2318-0.93486 2.1608l5.7856-0.009"/>
 </g>
 <g id="g48" transform="translate(-1.6403 -8.0286)">
  <path id="rect50" fill="#fdfd04" d="m180 150h60v20h-60z"/>
  <path id="rect52" d="m180 150h60v20h-60z" stroke="#000" stroke-width="2" fill="none"/>
 </g>
 <g id="g54" transform="translate(-1.6403 -8.0286)">
  <path id="rect56" fill="#fdfd04" d="m280 150h60v20h-60z"/>
  <path id="rect58" d="m280 150h60v20h-60z" stroke="#000" stroke-width="2" fill="none"/>
 </g>
 <g id="g60" transform="translate(-1.6403 -8.0286)">
  <path id="rect62" fill="#fdfd04" d="m380 150h60v20h-60z"/>
  <path id="rect64" d="m380 150h60v20h-60z" stroke="#000" stroke-width="2" fill="none"/>
 </g>
 <path id="line66" d="m378.36 141.97 60 20" stroke="#000" stroke-width="2" fill="none"/>
 <path id="line68" d="m378.36 161.97 60-20" stroke="#000" stroke-width="2" fill="none"/>
 <g id="g70" transform="translate(-1.6403 -8.0286)">
  <path id="path72" d="m340 160c40 0 0-20 30.264-20" stroke="#000" stroke-width="2" fill="none"/>
  <path id="polygon74" d="m370.26 140-2.5-5 10 5-10 5z"/>
  <path id="polygon76" d="m370.26 140-2.5-5 10 5-10 5z" stroke="#000" stroke-width="2" fill="none"/>
 </g>
 <g id="g78" transform="translate(-1.6403 -8.0286)">
  <path id="rect80" fill="#7babe3" d="m196 50h28v40h-28z"/>
  <path id="rect82" d="m196 50h28v40h-28z" stroke="#000" stroke-width="2" fill="none"/>
 </g>
 <g id="g84" transform="translate(-1.6403 -8.0286)">
  <path id="line86" d="m210 130v-29.273" stroke="#000" stroke-width="2" fill="none"/>
  <path id="polygon88" d="m210 100.73-5 2.5 5-9.9997 5 9.9997z"/>
  <path id="polygon90" d="m210 100.73-5 2.5 5-9.9997 5 9.9997z" stroke="#000" stroke-width="2" fill="none"/>
 </g>
 <g id="text92">
  <path id="path3085" style="" d="m209.01 63.256c-1.3112 0.000005-2.2196 0.14994-2.7252 0.44979-0.50565 0.29986-0.75847 0.81139-0.75847 1.5346 0 0.57621 0.18815 1.0348 0.56445 1.3758 0.38217 0.33514 0.89957 0.50271 1.5522 0.50271 0.89957 0.000001 1.6198-0.3175 2.1608-0.9525 0.5468-0.64088 0.8202-1.4905 0.82021-2.5488v-0.3616h-1.614m3.2367-0.67028v5.6356h-1.6228v-1.4993c-0.37043 0.59972-0.83198 1.0436-1.3847 1.3317-0.55269 0.28222-1.2288 0.42333-2.0285 0.42333-1.0113 0-1.8168-0.28222-2.4165-0.84666-0.59384-0.57032-0.89076-1.3317-0.89076-2.2842 0-1.1112 0.37041-1.9491 1.1112-2.5135 0.7467-0.56444 1.858-0.84666 3.3337-0.84667h2.2754v-0.15875c-0.00001-0.7467-0.24696-1.3229-0.74084-1.7286-0.48801-0.41156-1.1759-0.61735-2.0637-0.61736-0.56445 0.000009-1.1142 0.06762-1.6492 0.20285-0.53505 0.13524-1.0495 0.33809-1.5434 0.60854v-1.4993c0.59384-0.2293 1.17-0.3998 1.7286-0.51153 0.55856-0.11758 1.1024-0.17638 1.6316-0.17639 1.4288 0.00001 2.4959 0.37043 3.2015 1.1112 0.70555 0.74084 1.0583 1.8638 1.0583 3.369"/>
 </g>
 <g id="g96" transform="translate(-1.6403 -8.0286)">
  <path id="rect98" fill="#7babe3" d="m280 49.019h60v40.981h-60z"/>
  <path id="rect100" d="m280 49.019h60v40.981h-60z" stroke="#000" stroke-width="2" fill="none"/>
 </g>
 <g id="g102" transform="translate(-1.6403 -8.0286)">
  <path id="line104" d="m310 130v-29.37" stroke="#000" stroke-width="2" fill="none"/>
  <path id="polygon106" d="m310 100.63-5 2.5 5-10 5 10z"/>
  <path id="polygon108" d="m310 100.63-5 2.5 5-10 5 10z" stroke="#000" stroke-width="2" fill="none"/>
 </g>
 <g id="text110">
  <path id="path3093" style="" d="m284.88 54.008h1.6316v8.1051l4.8419-4.2598h2.0726l-5.2387 4.6214 5.4592 5.2564h-2.1167l-5.0183-4.8242v4.8242h-1.6316v-13.723"/>
  <path id="path3095" style="" d="m294.69 63.833v-5.9796h1.6228v5.9178c0 0.93486 0.18227 1.6375 0.54681 2.1078 0.36453 0.46449 0.91134 0.69674 1.6404 0.69674 0.87606 0.000002 1.5669-0.27928 2.0726-0.83785 0.51152-0.55856 0.76728-1.32 0.76729-2.2842v-5.6003h1.6228v9.8778h-1.6228v-1.5169c-0.39394 0.59972-0.85255 1.0466-1.3758 1.3406-0.51741 0.2881-1.1201 0.43215-1.808 0.43215-1.1348 0-1.9961-0.35278-2.5841-1.0583-0.58796-0.70555-0.88194-1.7374-0.88194-3.0956m4.0834-6.2177"/>
  <path id="path3097" style="" d="m307.93 55.048v2.8046h3.3426v1.2612h-3.3426v5.3622c0 0.80551 0.10877 1.3229 0.32632 1.5522 0.22342 0.22931 0.67321 0.34396 1.3494 0.34396h1.6669v1.3582h-1.6669c-1.2524 0-2.1167-0.23224-2.5929-0.69674-0.47625-0.47037-0.71438-1.3229-0.71438-2.5576v-5.3622h-1.1906v-1.2612h1.1906v-2.8046h1.6316"/>
  <path id="path3099" style="" d="m317.53 68.648c-0.45861 1.1759-0.90546 1.9432-1.3406 2.3019-0.4351 0.35865-1.0172 0.53798-1.7462 0.53798h-1.2964v-1.3582h0.95249c0.44685-0.000002 0.79375-0.10584 1.0407-0.3175 0.24694-0.21167 0.52034-0.71144 0.8202-1.4993l0.29105-0.74083-3.9952-9.719h1.7198l3.0868 7.7258 3.0868-7.7258h1.7198l-4.3392 10.795"/>
  <path id="path3101" style="" d="m328.6 62.765c-1.3112 0.000005-2.2196 0.14994-2.7252 0.44979-0.50565 0.29986-0.75848 0.81139-0.75847 1.5346-0.00001 0.5762 0.18814 1.0348 0.56444 1.3758 0.38217 0.33514 0.89958 0.50271 1.5522 0.50271 0.89958 0.000001 1.6198-0.3175 2.1608-0.9525 0.5468-0.64088 0.8202-1.4905 0.82021-2.5488v-0.3616h-1.614m3.2367-0.67028v5.6356h-1.6228v-1.4993c-0.37042 0.59972-0.83197 1.0436-1.3846 1.3317-0.55269 0.28222-1.2288 0.42333-2.0285 0.42333-1.0113 0-1.8168-0.28222-2.4165-0.84667-0.59384-0.57032-0.89076-1.3317-0.89076-2.2842 0-1.1112 0.37042-1.9491 1.1112-2.5135 0.74671-0.56444 1.858-0.84666 3.3338-0.84666h2.2754v-0.15875c-0.00001-0.7467-0.24695-1.3229-0.74083-1.7286-0.48802-0.41156-1.1759-0.61735-2.0638-0.61736-0.56445 0.000009-1.1142 0.06762-1.6492 0.20285-0.53505 0.13524-1.0495 0.33809-1.5434 0.60854v-1.4993c0.59384-0.2293 1.17-0.3998 1.7286-0.51153 0.55856-0.11758 1.1024-0.17638 1.6316-0.17639 1.4287 0.00001 2.4959 0.37043 3.2014 1.1112 0.70555 0.74084 1.0583 1.8638 1.0583 3.369"/>
 </g>
 <g id="g114" transform="translate(-1.6403 -8.0286)">
  <path id="rect116" fill="#7babe3" d="m375 49h70v40.981h-70z"/>
  <path id="rect118" d="m375 49h70v40.981h-70z" stroke="#000" stroke-width="2" fill="none"/>
 </g>
 <g id="g120" transform="translate(-1.6403 -8.0286)">
  <path id="line122" d="m410 130v-29.382" stroke="#000" stroke-width="2" fill="none"/>
  <path id="polygon124" d="m410 100.62-5 2.5 5-10 5 10z"/>
  <path id="polygon126" d="m410 100.62-5 2.5 5-10 5 10z" stroke="#000" stroke-width="2" fill="none"/>
 </g>
 <g id="text128">
  <path id="path3109" style="" d="m389.31 62.747c-1.3112 0.000005-2.2196 0.14994-2.7252 0.44979-0.50565 0.29986-0.75848 0.81139-0.75847 1.5346-0.00001 0.57621 0.18814 1.0348 0.56444 1.3758 0.38217 0.33514 0.89958 0.50271 1.5522 0.50271 0.89958 0.000001 1.6198-0.3175 2.1608-0.9525 0.5468-0.64088 0.8202-1.4905 0.82021-2.5488v-0.3616h-1.614m3.2367-0.67028v5.6356h-1.6228v-1.4993c-0.37042 0.59972-0.83197 1.0436-1.3846 1.3317-0.55269 0.28222-1.2288 0.42333-2.0285 0.42333-1.0113 0-1.8168-0.28222-2.4165-0.84666-0.59384-0.57032-0.89076-1.3317-0.89076-2.2842 0-1.1112 0.37042-1.9491 1.1112-2.5135 0.74671-0.56444 1.858-0.84666 3.3338-0.84667h2.2754v-0.15875c-0.00001-0.7467-0.24695-1.3229-0.74083-1.7286-0.48802-0.41156-1.1759-0.61735-2.0638-0.61736-0.56445 0.000009-1.1142 0.06762-1.6492 0.20285-0.53505 0.13524-1.0495 0.33809-1.5434 0.60854v-1.4993c0.59383-0.2293 1.17-0.3998 1.7286-0.51153 0.55856-0.11758 1.1024-0.17638 1.6316-0.17639 1.4287 0.00001 2.4959 0.37043 3.2014 1.1112 0.70555 0.74084 1.0583 1.8638 1.0583 3.369"/>
  <path id="path3111" style="" d="m395.9 53.989h1.6228v13.723h-1.6228v-13.723"/>
  <path id="path3113" style="" d="m407.2 58.126v1.5346c-0.45862-0.23518-0.93487-0.41156-1.4288-0.52917-0.4939-0.11758-1.0054-0.17638-1.5346-0.17639-0.80552 0.000009-1.4111 0.12348-1.8168 0.37042-0.39982 0.24695-0.59972 0.61737-0.59972 1.1112 0 0.3763 0.14405 0.67322 0.43215 0.89076 0.2881 0.21167 0.86724 0.41452 1.7374 0.60854l0.55563 0.12347c1.1524 0.24695 1.9697 0.59679 2.4518 1.0495 0.488 0.44686 0.732 1.073 0.73201 1.8785-0.00001 0.91722-0.36454 1.6434-1.0936 2.1784-0.7232 0.53505-1.7198 0.80257-2.9898 0.80257-0.52917 0-1.0818-0.05292-1.658-0.15875-0.57033-0.09995-1.173-0.25282-1.808-0.45861v-1.6757c0.59972 0.31162 1.1906 0.54681 1.7727 0.70555 0.58208 0.15287 1.1583 0.22931 1.7286 0.22931 0.76435 0.000001 1.3523-0.12935 1.7639-0.38806 0.41156-0.26458 0.61735-0.635 0.61736-1.1112-0.00001-0.44097-0.14994-0.77905-0.44979-1.0142-0.29399-0.23518-0.94369-0.46155-1.9491-0.6791l-0.56444-0.13229c-1.0054-0.21166-1.7316-0.53504-2.1784-0.97014-0.44685-0.44097-0.67028-1.0436-0.67028-1.808 0-0.92897 0.32926-1.6463 0.98778-2.1519 0.65851-0.50564 1.5934-0.75846 2.8046-0.75847 0.59971 0.00001 1.1642 0.04411 1.6933 0.13229 0.52916 0.0882 1.0172 0.2205 1.464 0.39687"/>
  <path id="path3115" style="" d="m409.62 57.834h7.7082v1.4817l-6.103 7.0996h6.103v1.2965h-7.9287v-1.4817l6.103-7.0996h-5.8826v-1.2965"/>
  <path id="path3117" style="" d="m419.82 57.834h1.6228v9.8778h-1.6228v-9.8778m0-3.8453h1.6228v2.0549h-1.6228v-2.0549"/>
  <path id="path3119" style="" d="m424.76 53.989h1.6316v8.1051l4.8419-4.2598h2.0726l-5.2387 4.6214 5.4592 5.2564h-2.1167l-5.0183-4.8242v4.8242h-1.6316v-13.723"/>
 </g>
</svg>
