<?xml version="1.0" encoding="UTF-8" standalone="no"?>
<!-- Created with Inkscape (http://www.inkscape.org/) -->
<svg id="svg2" xmlns:rdf="http://www.w3.org/1999/02/22-rdf-syntax-ns#" xmlns="http://www.w3.org/2000/svg" height="262.51" width="636.53" version="1.1" xmlns:cc="http://creativecommons.org/ns#" xmlns:dc="http://purl.org/dc/elements/1.1/" viewBox="128 58 344.31295 132.43044">
 <metadata id="metadata164">
  <rdf:RDF>
   <cc:Work rdf:about="">
    <dc:format>image/svg+xml</dc:format>
    <dc:type rdf:resource="http://purl.org/dc/dcmitype/StillImage"/>
   </cc:Work>
  </rdf:RDF>
 </metadata>
 <g id="g4" transform="translate(-1 -5.7848)">
  <path id="path6" d="m150 90h30.264" stroke="#000" stroke-width="2" fill="none"/>
  <path id="polygon8" d="m180.26 90-2.5-5 10 5-10 5z"/>
  <path id="polygon10" d="m180.26 90-2.5-5 10 5-10 5z" stroke="#000" stroke-width="2" fill="none"/>
 </g>
 <g id="g12" transform="translate(-1 -5.7848)">
  <path id="rect14" fill="#7babe3" d="m290 70h60v40h-60z"/>
  <path id="rect16" d="m290 70h60v40h-60z" stroke="#000" stroke-width="2" fill="none"/>
 </g>
 <g id="g18" transform="translate(-1 -5.7848)">
  <path id="rect20" fill="#7babe3" d="m390 70h60v40h-60z"/>
  <path id="rect22" d="m390 70h60v40h-60z" stroke="#000" stroke-width="2" fill="none"/>
 </g>
 <g id="g24" transform="translate(-1 -5.7848)">
  <path id="rect26" fill="#7babe3" d="m190 70h60v40h-60z"/>
  <path id="rect28" d="m190 70h60v40h-60z" stroke="#000" stroke-width="2" fill="none"/>
 </g>
 <g id="g30" transform="translate(-1 -5.7848)">
  <path id="rect32" fill="#fdfd04" d="m130 80h20v20h-20z"/>
  <path id="rect34" d="m130 80h20v20h-20z" stroke="#000" stroke-width="2" fill="none"/>
 </g>
 <g id="g36" transform="translate(-1 -5.7848)">
  <path id="rect38" fill="#fdfd04" d="m390 100h60v20h-60z"/>
  <path id="rect40" d="m390 100h60v20h-60z" stroke="#000" stroke-width="2" fill="none"/>
 </g>
 <path id="line42" d="m389 94.215 60 20" stroke="#000" stroke-width="2" fill="none"/>
 <path id="line44" d="m389 114.22 60-20.005" stroke="#000" stroke-width="2" fill="none"/>
 <g id="g46" transform="translate(-1 -5.7848)">
  <path id="path48" d="m250 110c40 0 0-20 30.264-20" stroke="#000" stroke-width="2" fill="none"/>
  <path id="polygon50" d="m280.26 90-2.5-5 10 5-10 5z"/>
  <path id="polygon52" d="m280.26 90-2.5-5 10 5-10 5z" stroke="#000" stroke-width="2" fill="none"/>
 </g>
 <g id="g54" transform="translate(-1 -5.7848)">
  <path id="path56" d="m150 170h30.264" stroke="#000" stroke-width="2" fill="none"/>
  <path id="polygon58" d="m180.26 170-2.5-5 10 5-10 5z"/>
  <path id="polygon60" d="m180.26 170-2.5-5 10 5-10 5z" stroke="#000" stroke-width="2" fill="none"/>
 </g>
 <g id="g62" transform="translate(-1 -5.7848)">
  <path id="rect64" fill="#7babe3" d="m290 150h60v40h-60z"/>
  <path id="rect66" d="m290 150h60v40h-60z" stroke="#000" stroke-width="2" fill="none"/>
 </g>
 <g id="g68" transform="translate(-1 -5.7848)">
  <path id="rect70" fill="#7babe3" d="m390 150h60v40h-60z"/>
  <path id="rect72" d="m390 150h60v40h-60z" stroke="#000" stroke-width="2" fill="none"/>
 </g>
 <g id="g74" transform="translate(-1 -5.7848)">
  <path id="rect76" fill="#7babe3" d="m190 150h60v40h-60z"/>
  <path id="rect78" d="m190 150h60v40h-60z" stroke="#000" stroke-width="2" fill="none"/>
 </g>
 <g id="g80" transform="translate(-1 -5.7848)">
  <path id="rect82" fill="#fdfd04" d="m130 160h20v20h-20z"/>
  <path id="rect84" d="m130 160h20v20h-20z" stroke="#000" stroke-width="2" fill="none"/>
 </g>
 <g id="g86" transform="translate(-1 -5.7848)">
  <path id="path88" d="m450 110c140 50-430.98 0.888-270.32 48.14" stroke="#f62e2e" stroke-width="2" fill="none"/>
  <path id="polygon90" fill="#f62e2e" d="m179.68 158.14-0.987-5.502 8.183 7.619-11.005 1.975z"/>
  <path id="polygon92" d="m179.68 158.14-0.987-5.502 8.183 7.619-11.005 1.975z" stroke="#f62e2e" stroke-width="2" fill="none"/>
 </g>
 <g id="g94" transform="translate(-1 -5.7848)">
  <path id="path96" d="m150 60c30 10 10 20 30.764 26.921" stroke="#f62e2e" stroke-width="2" fill="none"/>
  <path id="polygon98" fill="#f62e2e" d="m180.76 86.921-0.791-5.534 7.906 7.9057-11.068 1.5811z"/>
  <path id="polygon100" d="m180.76 86.921-0.791-5.534 7.906 7.9057-11.068 1.5811z" stroke="#f62e2e" stroke-width="2" fill="none"/>
 </g>
 <g id="g102" transform="translate(-1 -5.7848)">
  <path id="rect104" fill="#fdfd04" d="m390 180h60v20h-60z"/>
  <path id="rect106" d="m390 180h60v20h-60z" stroke="#000" stroke-width="2" fill="none"/>
 </g>
 <path id="line108" d="m389 174.22 60 20" stroke="#000" stroke-width="2" fill="none"/>
 <path id="line110" d="m389 194.22 60-20" stroke="#000" stroke-width="2" fill="none"/>
 <g id="g112" transform="translate(-1 -5.7848)">
  <path id="rect114" fill="#fdfd04" d="m190 100h60v20h-60z"/>
  <path id="rect116" d="m190 100h60v20h-60z" stroke="#000" stroke-width="2" fill="none"/>
 </g>
 <g id="g118" transform="translate(-1 -5.7848)">
  <path id="rect120" fill="#fdfd04" d="m290 100h60v20h-60z"/>
  <path id="rect122" d="m290 100h60v20h-60z" stroke="#000" stroke-width="2" fill="none"/>
 </g>
 <g id="g124" transform="translate(-1 -5.7848)">
  <path id="rect126" fill="#fdfd04" d="m190 180h60v20h-60z"/>
  <path id="rect128" d="m190 180h60v20h-60z" stroke="#000" stroke-width="2" fill="none"/>
 </g>
 <g id="g130" transform="translate(-1 -5.7848)">
  <path id="rect132" fill="#fdfd04" d="m290 180h60v20h-60z"/>
  <path id="rect134" d="m290 180h60v20h-60z" stroke="#000" stroke-width="2" fill="none"/>
 </g>
 <g id="g136" transform="translate(-1 -5.7848)">
  <path id="path138" d="m350 110c40 0 0-20 30.264-20" stroke="#000" stroke-width="2" fill="none"/>
  <path id="polygon140" d="m380.26 90-2.5-5 10 5-10 5z"/>
  <path id="polygon142" d="m380.26 90-2.5-5 10 5-10 5z" stroke="#000" stroke-width="2" fill="none"/>
 </g>
 <g id="g144" transform="translate(-1 -5.7848)">
  <path id="path146" d="m250 190c40 0 0-20 30.264-20" stroke="#000" stroke-width="2" fill="none"/>
  <path id="polygon148" d="m280.26 170-2.5-5 10 5-10 5z"/>
  <path id="polygon150" d="m280.26 170-2.5-5 10 5-10 5z" stroke="#000" stroke-width="2" fill="none"/>
 </g>
 <g id="g152" transform="translate(-1 -5.7848)">
  <path id="path154" d="m350 190c40 0-1.006-20 29.258-20" stroke="#000" stroke-width="2" fill="none"/>
  <path id="polygon156" d="m379.26 170-2.5-5 10 5-10 5z"/>
  <path id="polygon158" d="m379.26 170-2.5-5 10 5-10 5z" stroke="#000" stroke-width="2" fill="none"/>
 </g>
</svg>
