<?xml version="1.0" encoding="UTF-8" standalone="no"?>
<!-- Created with Inkscape (http://www.inkscape.org/) -->
<svg id="svg2" xmlns:rdf="http://www.w3.org/1999/02/22-rdf-syntax-ns#" xmlns="http://www.w3.org/2000/svg" height="272.13" width="846.28" version="1.1" xmlns:cc="http://creativecommons.org/ns#" xmlns:dc="http://purl.org/dc/elements/1.1/" viewBox="118 29 459.76399 144.96006">
 <metadata id="metadata168">
  <rdf:RDF>
   <cc:Work rdf:about="">
    <dc:format>image/svg+xml</dc:format>
    <dc:type rdf:resource="http://purl.org/dc/dcmitype/StillImage"/>
   </cc:Work>
  </rdf:RDF>
 </metadata>
 <g id="g4" transform="translate(-1 -5.517)">
  <path id="rect6" fill="#7babe3" d="m280 100h60v60h-60z"/>
  <path id="rect8" d="m280 100h60v60h-60z" stroke="#000" stroke-width="2" fill="none"/>
 </g>
 <g id="g10" transform="translate(-1 -5.517)">
  <path id="rect12" fill="#7babe3" d="m380 100h60v60h-60z"/>
  <path id="rect14" d="m380 100h60v60h-60z" stroke="#000" stroke-width="2" fill="none"/>
 </g>
 <g id="g16" transform="translate(-1 -5.517)">
  <path id="path18" d="m240 160c40 0 0-30 30.264-30" stroke="#000" stroke-width="2" fill="none"/>
  <path id="polygon20" d="m270.26 130-2.5-5 10 5-10 5z"/>
  <path id="polygon22" d="m270.26 130-2.5-5 10 5-10 5z" stroke="#000" stroke-width="2" fill="none"/>
 </g>
 <g id="g24" transform="translate(-1 -5.517)">
  <path id="line26" d="m410 70v20.264" stroke="#000" stroke-width="2" fill="none"/>
  <path id="polygon28" d="m410 90.264 5-2.5-5 10-5-10z"/>
  <path id="polygon30" d="m410 90.264 5-2.5-5 10-5-10z" stroke="#000" stroke-width="2" fill="none"/>
 </g>
 <g id="text32">
  <path id="path3072" style="" d="m395.37 31.405h1.6228v9.8778h-1.6228v-9.8778m0-3.8453h1.6228v2.0549h-1.6228v-2.0549"/>
  <path id="path3074" style="" d="m401.99 28.601v2.8046h3.3426v1.2612h-3.3426v5.3622c0 0.80551 0.10877 1.3229 0.32632 1.5522 0.22342 0.22931 0.67321 0.34396 1.3494 0.34396h1.6669v1.3582h-1.6669c-1.2524 0-2.1167-0.23224-2.5929-0.69674-0.47625-0.47037-0.71438-1.3229-0.71438-2.5576v-5.3622h-1.1906v-1.2612h1.1906v-2.8046h1.6316"/>
  <path id="path3076" style="" d="m415.92 35.938v0.79375h-7.4612c0.0706 1.1171 0.4057 1.9697 1.0054 2.5576 0.6056 0.58208 1.4464 0.87312 2.5224 0.87312 0.62323 0.000001 1.2259-0.07643 1.808-0.2293 0.58796-0.15287 1.17-0.38217 1.7462-0.68792v1.5346c-0.58209 0.24694-1.1789 0.43509-1.7903 0.56444-0.61149 0.12935-1.2318 0.19403-1.8609 0.19403-1.5757 0-2.8252-0.45861-3.7482-1.3758-0.91723-0.91722-1.3758-2.1578-1.3758-3.7218 0-1.6169 0.43509-2.8986 1.3053-3.8453 0.87606-0.95249 2.0549-1.4287 3.5366-1.4287 1.3288 0.00001 2.3783 0.42922 3.1485 1.2876 0.7761 0.85255 1.1642 2.0138 1.1642 3.4837m-1.6228-0.47625c-0.0118-0.88782-0.26165-1.5963-0.74965-2.1255-0.48214-0.52916-1.123-0.79374-1.9226-0.79375-0.90547 0.000009-1.6316 0.25577-2.1784 0.76729-0.54093 0.51154-0.85255 1.2318-0.93486 2.1608l5.7856-0.0088"/>
  <path id="path3078" style="" d="m424.31 32.922c-0.18228-0.10582-0.38219-0.18226-0.59972-0.2293-0.21168-0.05291-0.44686-0.07937-0.70556-0.07937-0.91723 0.000008-1.6228 0.29987-2.1167 0.89958-0.48802 0.59385-0.73202 1.4493-0.73202 2.5665v5.2035h-1.6316v-9.8778h1.6316v1.5346c0.34102-0.59971 0.78493-1.0436 1.3317-1.3317 0.5468-0.29397 1.2112-0.44096 1.9932-0.44097 0.11171 0.00001 0.23518 0.0088 0.37042 0.02646 0.13522 0.01177 0.28515 0.03235 0.44979 0.06174l0.009 1.6669"/>
 </g>
 <g id="g36" transform="translate(-1 -5.517)">
  <path id="rect38" fill="#7babe3" d="m480 100h60v60h-60z"/>
  <path id="rect40" d="m480 100h60v60h-60z" stroke="#000" stroke-width="2" fill="none"/>
 </g>
 <g id="g42" transform="translate(-1 -5.517)">
  <path id="rect44" fill="#fdfd04" d="m180 100h60v60h-60z"/>
  <path id="rect46" d="m180 100h60v60h-60z" stroke="#000" stroke-width="2" fill="none"/>
 </g>
 <g id="g48" transform="translate(-1 -5.517)">
  <path id="rect50" fill="#fdfd04" d="m120 120h20v20h-20z"/>
  <path id="rect52" d="m120 120h20v20h-20z" stroke="#000" stroke-width="2" fill="none"/>
 </g>
 <g id="g54" transform="translate(-1 -5.517)">
  <path id="path56" d="m140 130h30.264" stroke="#000" stroke-width="2" fill="none"/>
  <path id="polygon58" d="m170.26 130-2.5-5 10 5-10 5z"/>
  <path id="polygon60" d="m170.26 130-2.5-5 10 5-10 5z" stroke="#000" stroke-width="2" fill="none"/>
 </g>
 <g id="g62" transform="translate(-1 -5.517)">
  <path id="line64" d="m310 70v20.264" stroke="#000" stroke-width="2" fill="none"/>
  <path id="polygon66" d="m310 90.264 5-2.5-5 10-5-10z"/>
  <path id="polygon68" d="m310 90.264 5-2.5-5 10-5-10z" stroke="#000" stroke-width="2" fill="none"/>
 </g>
 <g id="text70">
  <path id="path3092" style="" d="m267.79 27.56h1.6228v13.723h-1.6228v-13.723"/>
  <path id="path3094" style="" d="m281.25 35.938v0.79375h-7.4612c0.0706 1.1171 0.40569 1.9697 1.0054 2.5576 0.60559 0.58208 1.4464 0.87312 2.5224 0.87312 0.62324 0.000001 1.2259-0.07643 1.808-0.2293 0.58795-0.15287 1.17-0.38217 1.7462-0.68792v1.5346c-0.5821 0.24694-1.1789 0.43509-1.7904 0.56444-0.61149 0.12935-1.2318 0.19403-1.8609 0.19403-1.5757 0-2.8252-0.45861-3.7483-1.3758-0.91722-0.91722-1.3758-2.1578-1.3758-3.7218 0-1.6169 0.43509-2.8986 1.3053-3.8453 0.87606-0.95249 2.0549-1.4287 3.5366-1.4287 1.3288 0.00001 2.3783 0.42922 3.1485 1.2876 0.7761 0.85255 1.1642 2.0138 1.1642 3.4837m-1.6228-0.47625c-0.0118-0.88782-0.26166-1.5963-0.74966-2.1255-0.48213-0.52916-1.123-0.79374-1.9226-0.79375-0.90547 0.000009-1.6316 0.25577-2.1784 0.76729-0.54093 0.51154-0.85255 1.2318-0.93486 2.1608l5.7856-0.0088"/>
  <path id="path3096" style="" d="m291.6 33.301c0.40568-0.72906 0.89075-1.267 1.4552-1.614 0.56444-0.34689 1.2288-0.52034 1.9932-0.52035 1.0289 0.00001 1.8227 0.36161 2.3812 1.0848 0.55855 0.71732 0.83783 1.7404 0.83785 3.0692v5.9619h-1.6316v-5.909c-0.00001-0.94661-0.16758-1.6492-0.5027-2.1078-0.33516-0.4586-0.84668-0.68791-1.5346-0.68792-0.84079 0.000009-1.5052 0.27929-1.9932 0.83785-0.48802 0.55857-0.73202 1.32-0.73201 2.2842v5.5827h-1.6316v-5.909c0-0.95249-0.16757-1.6551-0.5027-2.1078-0.33515-0.4586-0.85256-0.68791-1.5522-0.68792-0.82904 0.000009-1.4876 0.28223-1.9756 0.84667-0.48801 0.55857-0.73201 1.317-0.73201 2.2754v5.5827h-1.6316v-9.8778h1.6316v1.5346c0.37041-0.60559 0.81432-1.0524 1.3317-1.3406 0.51741-0.28809 1.1318-0.43214 1.8433-0.43215 0.7173 0.00001 1.3258 0.18228 1.8256 0.5468 0.50564 0.36454 0.87899 0.89371 1.1201 1.5875"/>
  <path id="path3098" style="" d="m306 36.318c-1.3112 0.000005-2.2196 0.14994-2.7252 0.44979-0.50565 0.29986-0.75847 0.81139-0.75847 1.5346 0 0.5762 0.18814 1.0348 0.56444 1.3758 0.38217 0.33514 0.89958 0.50271 1.5522 0.50271 0.89958 0.000001 1.6198-0.3175 2.1608-0.9525 0.5468-0.64088 0.8202-1.4905 0.82021-2.5488v-0.3616h-1.614m3.2367-0.67028v5.6356h-1.6228v-1.4993c-0.37042 0.59972-0.83197 1.0436-1.3846 1.3317-0.55269 0.28222-1.2288 0.42333-2.0285 0.42333-1.0113 0-1.8168-0.28222-2.4165-0.84667-0.59385-0.57032-0.89077-1.3317-0.89077-2.2842 0-1.1112 0.37042-1.9491 1.1112-2.5135 0.74671-0.56444 1.858-0.84666 3.3338-0.84666h2.2754v-0.15875c-0.00001-0.7467-0.24695-1.3229-0.74083-1.7286-0.48802-0.41156-1.1759-0.61735-2.0638-0.61736-0.56445 0.000009-1.1142 0.06762-1.6492 0.20285-0.53505 0.13524-1.0495 0.33809-1.5434 0.60854v-1.4993c0.59384-0.2293 1.17-0.3998 1.7286-0.51153 0.55856-0.11758 1.1024-0.17638 1.6316-0.17639 1.4287 0.00001 2.4959 0.37043 3.2014 1.1112 0.70555 0.74084 1.0583 1.8638 1.0583 3.369"/>
  <path id="path3100" style="" d="m318.31 32.922c-0.18227-0.10582-0.38218-0.18226-0.59972-0.2293-0.21167-0.05291-0.44686-0.07937-0.70556-0.07937-0.91722 0.000008-1.6228 0.29987-2.1167 0.89958-0.48801 0.59385-0.73202 1.4493-0.73201 2.5665v5.2035h-1.6316v-9.8778h1.6316v1.5346c0.34101-0.59971 0.78492-1.0436 1.3317-1.3317 0.5468-0.29397 1.2112-0.44096 1.9932-0.44097 0.11171 0.00001 0.23518 0.0088 0.37042 0.02646 0.13522 0.01177 0.28515 0.03235 0.44979 0.06174l0.009 1.6669"/>
  <path id="path3102" style="" d="m324.52 36.318c-1.3112 0.000005-2.2196 0.14994-2.7252 0.44979-0.50565 0.29986-0.75848 0.81139-0.75847 1.5346-0.00001 0.5762 0.18814 1.0348 0.56444 1.3758 0.38217 0.33514 0.89958 0.50271 1.5522 0.50271 0.89958 0.000001 1.6198-0.3175 2.1608-0.9525 0.5468-0.64088 0.8202-1.4905 0.82021-2.5488v-0.3616h-1.614m3.2367-0.67028v5.6356h-1.6228v-1.4993c-0.37042 0.59972-0.83197 1.0436-1.3846 1.3317-0.55269 0.28222-1.2288 0.42333-2.0285 0.42333-1.0113 0-1.8168-0.28222-2.4165-0.84667-0.59384-0.57032-0.89076-1.3317-0.89076-2.2842 0-1.1112 0.37042-1.9491 1.1112-2.5135 0.74671-0.56444 1.858-0.84666 3.3338-0.84666h2.2754v-0.15875c-0.00001-0.7467-0.24695-1.3229-0.74083-1.7286-0.48802-0.41156-1.1759-0.61735-2.0638-0.61736-0.56445 0.000009-1.1142 0.06762-1.6492 0.20285-0.53505 0.13524-1.0495 0.33809-1.5434 0.60854v-1.4993c0.59383-0.2293 1.17-0.3998 1.7286-0.51153 0.55856-0.11758 1.1024-0.17638 1.6316-0.17639 1.4287 0.00001 2.4959 0.37043 3.2014 1.1112 0.70555 0.74084 1.0583 1.8638 1.0583 3.369"/>
  <path id="path3104" style="" d="m337.61 32.905v-5.3446h1.6228v13.723h-1.6228v-1.4817c-0.34102 0.58796-0.77317 1.026-1.2964 1.3141-0.51742 0.28222-1.1407 0.42333-1.8697 0.42333-1.1936 0-2.1666-0.47625-2.9192-1.4287-0.74671-0.9525-1.1201-2.2049-1.1201-3.7571s0.37335-2.8046 1.1201-3.7571c0.75259-0.95249 1.7257-1.4287 2.9192-1.4287 0.72906 0.00001 1.3523 0.14406 1.8697 0.43215 0.52328 0.28223 0.95543 0.71732 1.2964 1.3053m-5.5298 3.4484c0 1.1936 0.244 2.1314 0.73201 2.8134 0.49389 0.67616 1.17 1.0142 2.0285 1.0142 0.85842 0.000001 1.5346-0.33808 2.0285-1.0142 0.49388-0.68203 0.74083-1.6198 0.74083-2.8134s-0.24695-2.1284-0.74083-2.8046c-0.49389-0.68203-1.17-1.023-2.0285-1.0231-0.85843 0.000009-1.5346 0.34103-2.0285 1.0231-0.48801 0.67616-0.73201 1.611-0.73201 2.8046"/>
  <path id="path3106" style="" d="m346.4 32.543c-0.87019 0.000009-1.5581 0.34103-2.0638 1.0231-0.50565 0.67616-0.75848 1.6051-0.75847 2.7869-0.00001 1.1818 0.24988 2.1137 0.74965 2.7958 0.50564 0.67616 1.1965 1.0142 2.0726 1.0142 0.86429 0.000001 1.5493-0.34102 2.0549-1.0231 0.50564-0.68203 0.75847-1.611 0.75847-2.7869 0-1.17-0.25283-2.0961-0.75847-2.7781-0.50565-0.68791-1.1906-1.0319-2.0549-1.0319m0-1.3758c1.4111 0.00001 2.5194 0.45862 3.3249 1.3758 0.8055 0.91723 1.2082 2.1872 1.2083 3.81-0.00001 1.6169-0.40276 2.8869-1.2083 3.81-0.80551 0.91722-1.9138 1.3758-3.3249 1.3758-1.417 0-2.5282-0.45861-3.3338-1.3758-0.79963-0.9231-1.1994-2.1931-1.1994-3.81 0-1.6228 0.39981-2.8928 1.1994-3.81 0.8055-0.91721 1.9168-1.3758 3.3338-1.3758"/>
 </g>
 <g id="g74" transform="translate(-1 -5.517)">
  <path id="line76" d="m510 70v20.264" stroke="#000" stroke-width="2" fill="none"/>
  <path id="polygon78" d="m510 90.264 5-2.5-5 10-5-10z"/>
  <path id="polygon80" d="m510 90.264 5-2.5-5 10-5-10z" stroke="#000" stroke-width="2" fill="none"/>
 </g>
 <g id="text82">
  <path id="path3112" style="" d="m465.01 27.56h1.6316v8.1051l4.8419-4.2598h2.0726l-5.2388 4.6214 5.4592 5.2564h-2.1167l-5.0183-4.8242v4.8242h-1.6316v-13.723"/>
  <path id="path3114" style="" d="m478.74 32.543c-0.87019 0.000009-1.5581 0.34103-2.0637 1.0231-0.50566 0.67616-0.75848 1.6051-0.75848 2.7869s0.24988 2.1137 0.74966 2.7958c0.50564 0.67616 1.1965 1.0142 2.0726 1.0142 0.8643 0.000001 1.5493-0.34102 2.0549-1.0231 0.50564-0.68203 0.75846-1.611 0.75847-2.7869-0.00001-1.17-0.25283-2.0961-0.75847-2.7781-0.50565-0.68791-1.1906-1.0319-2.0549-1.0319m0-1.3758c1.4111 0.00001 2.5194 0.45862 3.3249 1.3758 0.8055 0.91723 1.2082 2.1872 1.2083 3.81-0.00001 1.6169-0.40276 2.8869-1.2083 3.81-0.80552 0.91722-1.9138 1.3758-3.3249 1.3758-1.417 0-2.5282-0.45861-3.3337-1.3758-0.79963-0.9231-1.1994-2.1931-1.1994-3.81 0-1.6228 0.39982-2.8928 1.1994-3.81 0.8055-0.91721 1.9168-1.3758 3.3337-1.3758"/>
  <path id="path3116" style="" d="m484.79 31.405h1.7198l3.0868 8.2903 3.0868-8.2903h1.7198l-3.7042 9.8778h-2.2048l-3.7042-9.8778"/>
  <path id="path3118" style="" d="m505.09 35.938v0.79375h-7.4612c0.0705 1.1171 0.40569 1.9697 1.0054 2.5576 0.60559 0.58208 1.4464 0.87312 2.5224 0.87312 0.62324 0.000001 1.2259-0.07643 1.808-0.2293 0.58795-0.15287 1.17-0.38217 1.7462-0.68792v1.5346c-0.5821 0.24694-1.1789 0.43509-1.7904 0.56444-0.61149 0.12935-1.2318 0.19403-1.8609 0.19403-1.5757 0-2.8252-0.45861-3.7483-1.3758-0.91722-0.91722-1.3758-2.1578-1.3758-3.7218 0-1.6169 0.43509-2.8986 1.3053-3.8453 0.87606-0.95249 2.0549-1.4287 3.5366-1.4287 1.3288 0.00001 2.3783 0.42922 3.1485 1.2876 0.7761 0.85255 1.1642 2.0138 1.1642 3.4837m-1.6228-0.47625c-0.0118-0.88782-0.26166-1.5963-0.74966-2.1255-0.48213-0.52916-1.123-0.79374-1.9226-0.79375-0.90547 0.000009-1.6316 0.25577-2.1784 0.76729-0.54093 0.51154-0.85255 1.2318-0.93486 2.1608l5.7856-0.0088"/>
  <path id="path3120" style="" d="m509.36 28.601v2.8046h3.3426v1.2612h-3.3426v5.3622c0 0.80551 0.10877 1.3229 0.32632 1.5522 0.22343 0.22931 0.67322 0.34396 1.3494 0.34396h1.6669v1.3582h-1.6669c-1.2524 0-2.1167-0.23224-2.5929-0.69674-0.48-0.47-0.72-1.323-0.72-2.557v-5.3622h-1.1906v-1.2612h1.1906v-2.8046h1.6316"/>
  <path id="path3122" style="" d="m514.79 27.56h1.6316v8.1051l4.8419-4.2598h2.0726l-5.2387 4.6214 5.4592 5.2564h-2.1167l-5.0182-4.8242v4.8242h-1.6316v-13.723"/>
  <path id="path3124" style="" d="m533.14 35.938v0.79375h-7.4612c0.0706 1.1171 0.40569 1.9697 1.0054 2.5576 0.60559 0.58208 1.4464 0.87312 2.5224 0.87312 0.62324 0.000001 1.2259-0.07643 1.808-0.2293 0.58795-0.15287 1.17-0.38217 1.7462-0.68792v1.5346c-0.5821 0.24694-1.1789 0.43509-1.7904 0.56444-0.61149 0.12935-1.2318 0.19403-1.8609 0.19403-1.5757 0-2.8252-0.45861-3.7483-1.3758-0.91722-0.91722-1.3758-2.1578-1.3758-3.7218 0-1.6169 0.43509-2.8986 1.3053-3.8453 0.87607-0.95249 2.0549-1.4287 3.5366-1.4287 1.3288 0.00001 2.3783 0.42922 3.1485 1.2876 0.7761 0.85255 1.1642 2.0138 1.1642 3.4837m-1.6228-0.47625c-0.0118-0.88782-0.26166-1.5963-0.74966-2.1255-0.48213-0.52916-1.123-0.79374-1.9226-0.79375-0.90547 0.000009-1.6316 0.25577-2.1784 0.76729-0.54093 0.51154-0.85255 1.2318-0.93486 2.1608l5.7856-0.0088"/>
  <path id="path3126" style="" d="m535.1 31.405h7.7082v1.4817l-6.103 7.0996h6.103v1.2965h-7.9287v-1.4817l6.103-7.0996h-5.8826v-1.2965"/>
  <path id="path3128" style="" d="m549.12 32.543c-0.87019 0.000009-1.5581 0.34103-2.0638 1.0231-0.50565 0.67616-0.75847 1.6051-0.75847 2.7869s0.24988 2.1137 0.74965 2.7958c0.50564 0.67616 1.1965 1.0142 2.0726 1.0142 0.8643 0.000001 1.5493-0.34102 2.0549-1.0231 0.50563-0.68203 0.75846-1.611 0.75847-2.7869-0.00001-1.17-0.25284-2.0961-0.75847-2.7781-0.50566-0.68791-1.1906-1.0319-2.0549-1.0319m0-1.3758c1.4111 0.00001 2.5194 0.45862 3.3249 1.3758 0.8055 0.91723 1.2083 2.1872 1.2083 3.81-0.00001 1.6169-0.40277 2.8869-1.2083 3.81-0.80551 0.91722-1.9138 1.3758-3.3249 1.3758-1.417 0-2.5282-0.45861-3.3338-1.3758-0.79963-0.9231-1.1994-2.1931-1.1994-3.81 0-1.6228 0.39981-2.8928 1.1994-3.81 0.80551-0.91721 1.9168-1.3758 3.3338-1.3758"/>
 </g>
 <g id="g86" transform="translate(-1 -5.517)">
  <path id="rect88" fill="#fdfd04" d="m280 150h60v20h-60z"/>
  <path id="rect90" d="m280 150h60v20h-60z" stroke="#000" stroke-width="2" fill="none"/>
 </g>
 <g id="g92" transform="translate(-1 -5.517)">
  <path id="rect94" fill="#fdfd04" d="m380 150h60v20h-60z"/>
  <path id="rect96" d="m380 150h60v20h-60z" stroke="#000" stroke-width="2" fill="none"/>
 </g>
 <g id="g98" transform="translate(-1 -5.517)">
  <path id="rect100" fill="#fdfd04" d="m480 150h60v20h-60z"/>
  <path id="rect102" d="m480 150h60v20h-60z" stroke="#000" stroke-width="2" fill="none"/>
 </g>
 <g id="g104" transform="translate(-1 -5.517)">
  <path id="rect106" fill="#fdfd04" d="m180 150h60v20h-60z"/>
  <path id="rect108" d="m180 150h60v20h-60z" stroke="#000" stroke-width="2" fill="none"/>
 </g>
 <g id="g110" transform="translate(-1 -5.517)">
  <path id="path112" d="m340 160c40 0 0-30 30.264-30" stroke="#000" stroke-width="2" fill="none"/>
  <path id="polygon114" d="m370.26 130-2.5-5 10 5-10 5z"/>
  <path id="polygon116" d="m370.26 130-2.5-5 10 5-10 5z" stroke="#000" stroke-width="2" fill="none"/>
 </g>
 <g id="g118" transform="translate(-1 -5.517)">
  <path id="path120" d="m440 160c40 0 0-30 30.264-30" stroke="#000" stroke-width="2" fill="none"/>
  <path id="polygon122" d="m470.26 130-2.5-5 10 5-10 5z"/>
  <path id="polygon124" d="m470.26 130-2.5-5 10 5-10 5z" stroke="#000" stroke-width="2" fill="none"/>
 </g>
 <path id="line126" d="m349 114.48 20 20" stroke="#f62e2e" stroke-width="2" fill="none"/>
 <path id="line128" d="m349 134.48 20-20" stroke="#f62e2e" stroke-width="2" fill="none"/>
 <g id="g130" transform="translate(-1 -5.517)">
  <path id="path132" d="m540 160c40 0 0-30 30.264-30" stroke="#000" stroke-width="2" fill="none"/>
  <path id="polygon134" d="m570.26 130-2.5-5 10 5-10 5z"/>
  <path id="polygon136" d="m570.26 130-2.5-5 10 5-10 5z" stroke="#000" stroke-width="2" fill="none"/>
 </g>
 <g id="g138" transform="translate(-1 -5.517)">
  <path id="path140" d="m340 160c39.5 30 99.116 23.163 131.33-0.995" stroke="#f62e2e" stroke-width="2" fill="none"/>
  <path id="polygon142" fill="#f62e2e" d="m471.33 159-5-2.5 11-2-5 10z"/>
  <path id="polygon144" d="m471.33 159-5-2.5 11-2-5 10z" stroke="#f62e2e" stroke-width="2" fill="none"/>
 </g>
 <g id="g146" transform="translate(-1 -5.517)">
  <path id="rect148" fill="#fdfd04" d="m300 50h20v20h-20z"/>
  <path id="rect150" d="m300 50h20v20h-20z" stroke="#000" stroke-width="2" fill="none"/>
 </g>
 <g id="g152" transform="translate(-1 -5.517)">
  <path id="rect154" fill="#fdfd04" d="m500 50h20v20h-20z"/>
  <path id="rect156" d="m500 50h20v20h-20z" stroke="#000" stroke-width="2" fill="none"/>
 </g>
 <g id="g158" transform="translate(-1 -5.517)">
  <path id="rect160" fill="#fdfd04" d="m400 50h20v20h-20z"/>
  <path id="rect162" d="m400 50h20v20h-20z" stroke="#000" stroke-width="2" fill="none"/>
 </g>
</svg>
