<?xml version="1.0" encoding="UTF-8" standalone="no"?>
<!-- Created with Inkscape (http://www.inkscape.org/) -->
<svg id="svg2" xmlns:rdf="http://www.w3.org/1999/02/22-rdf-syntax-ns#" xmlns="http://www.w3.org/2000/svg" height="374.95" width="813.12" version="1.1" xmlns:cc="http://creativecommons.org/ns#" xmlns:dc="http://purl.org/dc/elements/1.1/" viewBox="158 97 441.99999 198.17132">
 <metadata id="metadata62">
  <rdf:RDF>
   <cc:Work rdf:about="">
    <dc:format>image/svg+xml</dc:format>
    <dc:type rdf:resource="http://purl.org/dc/dcmitype/StillImage"/>
   </cc:Work>
  </rdf:RDF>
 </metadata>
 <path id="line4" d="m399 215.18-240 80" stroke="#000" stroke-width="2" fill="none"/>
 <g id="g6" transform="translate(-1 -4.8233)">
  <path id="polygon8" fill="#fff" d="m600 260-200-40v-120l200 40z"/>
  <path id="polygon10" d="m600 260-200-40v-120l200 40z" stroke="#000" stroke-width="2" fill="none"/>
 </g>
 <g id="g12" transform="translate(-1 -4.8233)">
  <path id="polygon14" fill="#fff" d="m380 280-100-20v-60l100 20z"/>
  <path id="polygon16" d="m380 280-100-20v-60l100 20z" stroke="#000" stroke-width="2" fill="none"/>
 </g>
 <path id="line18" d="m399 95.177-240 200" stroke="#000" stroke-width="2" fill="none"/>
 <path id="line20" d="m159 295.18 440-40" stroke="#000" stroke-width="2" fill="none"/>
 <g id="g22" transform="translate(-1 -4.8233)">
  <path id="ellipse24" fill="#fff" d="m470 200c0 16.569-13.431 30-30 30s-30-13.431-30-30 13.431-30 30-30 30 13.431 30 30z"/>
  <path id="ellipse26" d="m470 200c0 16.569-13.431 30-30 30s-30-13.431-30-30 13.431-30 30-30 30 13.431 30 30z" stroke="#00f" stroke-width="2" fill="none"/>
 </g>
 <g id="g28" transform="translate(-1 -4.8233)">
  <path id="ellipse30" fill="#fff" d="m470 200c0 5.5228-13.431 10-30 10s-30-4.4772-30-10 13.431-10 30-10 30 4.4772 30 10z"/>
  <path id="ellipse32" d="m470 200c0 5.5228-13.431 10-30 10s-30-4.4772-30-10 13.431-10 30-10 30 4.4772 30 10z" stroke="#00f" stroke-width="2" fill="none"/>
 </g>
 <g id="g34" transform="translate(-1 -4.8233)">
  <path id="ellipse36" fill="#fff" d="m341.14 235.57c0 8.599-6.9709 15.57-15.57 15.57-8.599 0-15.57-6.9709-15.57-15.57 0-8.599 6.9709-15.57 15.57-15.57 8.599 0 15.57 6.9709 15.57 15.57z"/>
  <path id="ellipse38" d="m341.14 235.57c0 8.599-6.9709 15.57-15.57 15.57-8.599 0-15.57-6.9709-15.57-15.57 0-8.599 6.9709-15.57 15.57-15.57 8.599 0 15.57 6.9709 15.57 15.57z" stroke="#00f" stroke-width="2" fill="none"/>
 </g>
 <path id="line40" d="m599 135.18-440 160" stroke="#000" stroke-width="2" fill="none"/>
 <g id="text42">
  <path id="path3024" style="" d="m240.23 174.88h1.2237v6.0788l3.6314-3.1948h1.5544l-3.9291 3.466 4.0944 3.9423h-1.5875l-3.7637-3.6182v3.6182h-1.2237v-10.292"/>
  <path id="path3026" style="" d="m250.52 178.62c-0.65264 0.00001-1.1686 0.25578-1.5478 0.7673-0.37924 0.50712-0.56886 1.2039-0.56886 2.0902 0 0.88636 0.18741 1.5853 0.56224 2.0968 0.37924 0.50712 0.89738 0.76068 1.5544 0.76068 0.64823 0 1.162-0.25576 1.5412-0.7673 0.37923-0.51152 0.56885-1.2083 0.56886-2.0902-0.00001-0.87753-0.18963-1.5721-0.56886-2.0836-0.37924-0.51593-0.89297-0.7739-1.5412-0.77391m0-1.0319c1.0583 0 1.8896 0.34396 2.4937 1.0319 0.60412 0.68793 0.90619 1.6404 0.9062 2.8575-0.00001 1.2127-0.30208 2.1652-0.9062 2.8575-0.60414 0.68792-1.4354 1.0319-2.4937 1.0319-1.0628 0-1.8962-0.34396-2.5003-1.0319-0.59972-0.69233-0.89958-1.6448-0.89958-2.8575 0-1.2171 0.29986-2.1696 0.89958-2.8575 0.60413-0.68791 1.4376-1.0319 2.5003-1.0319m0.62177-2.6789h1.3428v1.3362h-1.3428v-1.3362m-2.5863 0h1.3428v1.3362h-1.3428v-1.3362"/>
  <path id="path3028" style="" d="m255.4 177.77h5.7812v1.1112l-4.5773 5.3248h4.5773v0.97234h-5.9465v-1.1112l4.5773-5.3248h-4.4119v-0.97235"/>
  <path id="path3030" style="" d="m269.39 181.17v0.59531h-5.596c0.0529 0.83785 0.30427 1.4773 0.75406 1.9182 0.4542 0.43657 1.0848 0.65485 1.8918 0.65485 0.46743 0 0.91942-0.0573 1.356-0.17198 0.44097-0.11465 0.87753-0.28663 1.3097-0.51594v1.1509c-0.43657 0.18521-0.88415 0.32632-1.3428 0.42333-0.45862 0.097-0.92384 0.14553-1.3957 0.14553-1.1818 0-2.1189-0.34396-2.8112-1.0319-0.68792-0.68792-1.0319-1.6184-1.0319-2.7914 0-1.2127 0.32632-2.174 0.97896-2.884 0.65705-0.71437 1.5412-1.0716 2.6524-1.0716 0.9966 0 1.7837 0.32191 2.3614 0.96573 0.58208 0.63942 0.87312 1.5103 0.87313 2.6128m-1.2171-0.35719c-0.009-0.66587-0.19623-1.1972-0.56224-1.5941-0.3616-0.39687-0.84226-0.59531-1.442-0.59532-0.6791 0.00001-1.2237 0.19183-1.6338 0.57547-0.40569 0.38366-0.63941 0.92385-0.70114 1.6206l4.3392-0.007"/>
  <path id="path3032" style="" d="m271.39 174.88h1.2171v10.292h-1.2171v-10.292"/>
  <path id="path3034" style="" d="m275.14 177.77h1.2171v7.4084h-1.2171v-7.4084m0-2.884h1.2171v1.5412h-1.2171v-1.5412"/>
  <path id="path3036" style="" d="m245 194.92v1.1509c-0.34396-0.17638-0.70115-0.30867-1.0716-0.39687-0.37043-0.0882-0.75407-0.13229-1.1509-0.1323-0.60414 0.00001-1.0583 0.0926-1.3626 0.27782-0.29987 0.18521-0.4498 0.46302-0.44979 0.83344-0.00001 0.28222 0.10803 0.50492 0.32411 0.66807 0.21608 0.15876 0.65043 0.31089 1.3031 0.45641l0.41672 0.0926c0.8643 0.18522 1.4772 0.44759 1.8389 0.78714 0.366 0.33514 0.549 0.80478 0.54901 1.4089-0.00001 0.68792-0.27341 1.2325-0.82021 1.6338-0.5424 0.40128-1.2898 0.60192-2.2424 0.60192-0.39688 0-0.8114-0.0397-1.2436-0.11906-0.42774-0.075-0.87974-0.18962-1.356-0.34396v-1.2568c0.44979 0.23372 0.89297 0.41011 1.3295 0.52917 0.43656 0.11465 0.86871 0.17198 1.2965 0.17198 0.57326 0 1.0142-0.097 1.3229-0.29105 0.30867-0.19843 0.46301-0.47625 0.46302-0.83344-0.00001-0.33072-0.11245-0.58428-0.33735-0.76067-0.22049-0.17639-0.70776-0.34617-1.4618-0.50933l-0.42334-0.0992c-0.75406-0.15874-1.2987-0.40128-1.6338-0.7276-0.33514-0.33073-0.50271-0.78273-0.50271-1.356 0-0.69673 0.24694-1.2347 0.74083-1.614 0.49389-0.37923 1.195-0.56885 2.1034-0.56885 0.44978 0 0.87312 0.0331 1.27 0.0992 0.39687 0.0662 0.76288 0.16538 1.098 0.29766"/>
  <path id="path3038" style="" d="m248.87 191.28h1.3163l-2.1564 2.4871h-1.012l1.8521-2.4871m-1.528 3.4264h1.2171v7.4084h-1.2171v-7.4084m0.60854-0.17859"/>
  <path id="path3040" style="" d="m251.05 191.82h1.2237v6.0788l3.6314-3.1948h1.5544l-3.9291 3.466 4.0944 3.9423h-1.5875l-3.7637-3.6182v3.6182h-1.2237v-10.292"/>
 </g>
 <g id="text48">
  <path id="path3043" style="" d="m341.48 95.665v2.1034h2.5069v0.94589h-2.5069v4.0217c0 0.60414 0.0816 0.99219 0.24474 1.1642 0.16757 0.17198 0.50492 0.25797 1.012 0.25797h1.2502v1.0186h-1.2502c-0.93928 0-1.5875-0.17419-1.9447-0.52256-0.35719-0.35277-0.53579-0.99218-0.53579-1.9182v-4.0217h-0.89297v-0.94589h0.89297v-2.1034h1.2237"/>
  <path id="path3045" style="" d="m348.96 101.45c-0.98338 0-1.6647 0.11245-2.0439 0.33734-0.37924 0.2249-0.56886 0.60855-0.56886 1.1509 0 0.43216 0.14111 0.77612 0.42333 1.0319 0.28663 0.25136 0.67469 0.37703 1.1642 0.37703 0.67469 0 1.2149-0.23812 1.6206-0.71437 0.4101-0.48066 0.61515-1.1179 0.61516-1.9116v-0.2712h-1.2105m2.4276-0.50271v4.2267h-1.2171v-1.1245c-0.27782 0.44979-0.62398 0.78272-1.0385 0.9988-0.41452 0.21167-0.92164 0.3175-1.5214 0.3175-0.75848 0-1.3626-0.21167-1.8124-0.635-0.44539-0.42774-0.66808-0.9988-0.66808-1.7132 0-0.83344 0.27782-1.4618 0.83344-1.8852 0.56004-0.42333 1.3935-0.635 2.5003-0.635h1.7066v-0.11907c-0.00001-0.56003-0.18522-0.99218-0.55563-1.2965-0.36601-0.30868-0.88195-0.46302-1.5478-0.46302-0.42334 0.000006-0.83565 0.05072-1.2369 0.15214-0.40129 0.10143-0.78714 0.25356-1.1576 0.45641v-1.1245c0.44538-0.17197 0.87754-0.29985 1.2965-0.38365 0.41892-0.08819 0.82682-0.13228 1.2237-0.13229 1.0716 0.000008 1.8719 0.27782 2.4011 0.83344 0.52916 0.55563 0.79375 1.3979 0.79375 2.5268m-2.2225-6.608h1.3163l-2.1564 2.4871h-1.012l1.8521-2.4871"/>
  <path id="path3047" style="" d="m353.03 97.768h1.2898l2.3151 6.2177 2.3151-6.2177h1.2898l-2.7781 7.4084h-1.6536l-2.7781-7.4084"/>
  <path id="path3049" style="" d="m364.79 98.622c-0.65264 0.000006-1.1686 0.25577-1.5478 0.76729-0.37924 0.50712-0.56886 1.2039-0.56886 2.0902 0 0.88636 0.18741 1.5853 0.56224 2.0968 0.37924 0.50713 0.89738 0.76068 1.5544 0.76068 0.64823 0 1.162-0.25576 1.5412-0.76729 0.37924-0.51153 0.56885-1.2083 0.56886-2.0902-0.00001-0.87754-0.18962-1.5721-0.56886-2.0836-0.37924-0.51593-0.89297-0.7739-1.5412-0.77391m0-1.0319c1.0583 0.000008 1.8896 0.34397 2.4937 1.0319 0.60412 0.68792 0.90619 1.6404 0.9062 2.8575-0.00001 1.2127-0.30208 2.1652-0.9062 2.8575-0.60414 0.68792-1.4354 1.0319-2.4937 1.0319-1.0628 0-1.8962-0.34396-2.5003-1.0319-0.59972-0.69232-0.89958-1.6448-0.89958-2.8575 0-1.2171 0.29986-2.1696 0.89958-2.8575 0.60414-0.68791 1.4376-1.0319 2.5003-1.0319"/>
  <path id="path3051" style="" d="m370.2 94.884h1.2171v10.292h-1.2171v-10.292"/>
  <path id="path3053" style="" d="m373.96 97.768h1.2171v7.4084h-1.2171v-7.4084m0-2.884h1.2171v1.5412h-1.2171v-1.5412"/>
  <path id="path3055" style="" d="m345 114.92v1.1509c-0.34396-0.17638-0.70115-0.30867-1.0716-0.39687-0.37043-0.0882-0.75407-0.13229-1.1509-0.1323-0.60414 0.00001-1.0583 0.0926-1.3626 0.27782-0.29987 0.18521-0.4498 0.46302-0.44979 0.83344-0.00001 0.28222 0.10803 0.50492 0.32411 0.66807 0.21608 0.15876 0.65043 0.31089 1.3031 0.45641l0.41672 0.0926c0.8643 0.18522 1.4772 0.44759 1.8389 0.78714 0.366 0.33514 0.549 0.80478 0.54901 1.4089-0.00001 0.68792-0.27341 1.2325-0.82021 1.6338-0.5424 0.40128-1.2898 0.60192-2.2424 0.60192-0.39688 0-0.8114-0.0397-1.2436-0.11906-0.42774-0.075-0.87974-0.18962-1.356-0.34396v-1.2568c0.44979 0.23372 0.89297 0.41011 1.3295 0.52917 0.43656 0.11465 0.86871 0.17198 1.2965 0.17198 0.57326 0 1.0142-0.097 1.3229-0.29105 0.30867-0.19843 0.46301-0.47625 0.46302-0.83344-0.00001-0.33072-0.11245-0.58428-0.33735-0.76067-0.22049-0.17639-0.70776-0.34617-1.4618-0.50933l-0.42334-0.0992c-0.75406-0.15874-1.2987-0.40128-1.6338-0.7276-0.33514-0.33073-0.50271-0.78273-0.50271-1.356 0-0.69673 0.24694-1.2347 0.74083-1.614 0.49389-0.37923 1.195-0.56885 2.1034-0.56885 0.44978 0 0.87312 0.0331 1.27 0.0992 0.39687 0.0662 0.76288 0.16538 1.098 0.29766"/>
  <path id="path3057" style="" d="m348.87 111.28h1.3163l-2.1564 2.4871h-1.012l1.8521-2.4871m-1.528 3.4264h1.2171v7.4084h-1.2171v-7.4084m0.60854-0.17859"/>
  <path id="path3059" style="" d="m351.05 111.82h1.2237v6.0788l3.6314-3.1948h1.5544l-3.9291 3.466 4.0944 3.9423h-1.5875l-3.7637-3.6182v3.6182h-1.2237v-10.292"/>
 </g>
 <g id="text54">
  <path id="path3062" style="" d="m379.4 287.77h1.2898l2.3151 6.2177 2.3151-6.2177h1.2898l-2.7781 7.4084h-1.6536l-2.7781-7.4084"/>
  <path id="path3064" style="" d="m394.63 291.17v0.59531h-5.596c0.0529 0.83786 0.30427 1.4773 0.75406 1.9182 0.4542 0.43656 1.0848 0.65484 1.8918 0.65484 0.46742 0 0.91942-0.0573 1.356-0.17198 0.44097-0.11465 0.87753-0.28663 1.3097-0.51593v1.1509c-0.43657 0.1852-0.88416 0.32632-1.3428 0.42333-0.45862 0.097-0.92385 0.14552-1.3957 0.14552-1.1818 0-2.1189-0.34396-2.8112-1.0319-0.68792-0.68791-1.0319-1.6184-1.0319-2.7914 0-1.2127 0.32632-2.174 0.97896-2.884 0.65705-0.71437 1.5412-1.0716 2.6525-1.0716 0.99659 0.00001 1.7837 0.32192 2.3614 0.96573 0.58208 0.63942 0.87312 1.5103 0.87313 2.6128m-1.2171-0.35719c-0.009-0.66586-0.19624-1.1972-0.56224-1.5941-0.3616-0.39687-0.84226-0.5953-1.442-0.59531-0.6791 0.00001-1.2237 0.19183-1.6338 0.57547-0.4057 0.38365-0.63941 0.92384-0.70115 1.6206l4.3392-0.007"/>
  <path id="path3066" style="" d="m397.83 285.66v2.1034h2.5069v0.94588h-2.5069v4.0217c0 0.60414 0.0816 0.99219 0.24474 1.1642 0.16757 0.17198 0.50492 0.25797 1.012 0.25797h1.2502v1.0186h-1.2502c-0.93928 0-1.5875-0.17419-1.9447-0.52256-0.35719-0.35277-0.53579-0.99218-0.53579-1.9182v-4.0217h-0.89297v-0.94588h0.89297v-2.1034h1.2237"/>
  <path id="path3068" style="" d="m403.47 284.34h1.3163l-2.1564 2.4871h-1.012l1.8521-2.4871m-1.528 3.4264h1.2171v7.4084h-1.2171v-7.4084m0.60854-0.1786"/>
  <path id="path3070" style="" d="m406.91 285.66v2.1034h2.5069v0.94588h-2.5069v4.0217c-0.00001 0.60414 0.0816 0.99219 0.24474 1.1642 0.16756 0.17198 0.50491 0.25797 1.012 0.25797h1.2502v1.0186h-1.2502c-0.93928 0-1.5875-0.17419-1.9447-0.52256-0.35719-0.35277-0.53579-0.99218-0.53578-1.9182v-4.0217h-0.89298v-0.94588h0.89298v-2.1034h1.2237"/>
  <path id="path3072" style="" d="m417.36 291.17v0.59531h-5.596c0.0529 0.83786 0.30427 1.4773 0.75407 1.9182 0.4542 0.43656 1.0848 0.65484 1.8918 0.65484 0.46743 0 0.91943-0.0573 1.356-0.17198 0.44097-0.11465 0.87753-0.28663 1.3097-0.51593v1.1509c-0.43657 0.1852-0.88416 0.32632-1.3428 0.42333-0.45862 0.097-0.92384 0.14552-1.3957 0.14552-1.1818 0-2.1189-0.34396-2.8112-1.0319-0.68792-0.68791-1.0319-1.6184-1.0319-2.7914 0-1.2127 0.32632-2.174 0.97896-2.884 0.65705-0.71437 1.5412-1.0716 2.6524-1.0716 0.9966 0.00001 1.7837 0.32192 2.3614 0.96573 0.58207 0.63942 0.87312 1.5103 0.87312 2.6128m-1.2171-0.35719c-0.009-0.66586-0.19624-1.1972-0.56224-1.5941-0.36161-0.39687-0.84227-0.5953-1.442-0.59531-0.6791 0.00001-1.2237 0.19183-1.6338 0.57547-0.4057 0.38365-0.63942 0.92384-0.70115 1.6206l4.3392-0.007m-1.1708-6.4691h1.3163l-2.1564 2.4871h-1.012l1.8521-2.4871"/>
  <path id="path3074" style="" d="m424.08 287.99v1.1509c-0.34397-0.17638-0.70116-0.30868-1.0716-0.39688-0.37042-0.0882-0.75407-0.13228-1.1509-0.13229-0.60413 0.00001-1.0583 0.0926-1.3626 0.27781-0.29986 0.18522-0.44979 0.46303-0.44979 0.83344 0 0.28223 0.10804 0.50492 0.32412 0.66808 0.21607 0.15875 0.65043 0.31089 1.3031 0.45641l0.41672 0.0926c0.86431 0.18521 1.4773 0.44759 1.8389 0.78714 0.366 0.33514 0.54901 0.80478 0.54901 1.4089 0 0.68792-0.27341 1.2325-0.82021 1.6338-0.5424 0.40129-1.2898 0.60193-2.2424 0.60193-0.39688 0-0.81139-0.0397-1.2435-0.11906-0.42775-0.075-0.87974-0.18962-1.356-0.34396v-1.2568c0.44979 0.23371 0.89297 0.4101 1.3295 0.52916 0.43656 0.11466 0.86872 0.17198 1.2965 0.17198 0.57326 0 1.0142-0.097 1.3229-0.29104 0.30868-0.19844 0.46302-0.47625 0.46302-0.83344 0-0.33073-0.11245-0.58429-0.33734-0.76068-0.22049-0.17638-0.70777-0.34616-1.4618-0.50932l-0.42333-0.0992c-0.75407-0.15875-1.2987-0.40128-1.6338-0.72761-0.33514-0.33072-0.50271-0.78272-0.50271-1.356 0-0.69673 0.24695-1.2347 0.74084-1.614 0.49389-0.37923 1.195-0.56885 2.1034-0.56886 0.44979 0.00001 0.87312 0.0331 1.27 0.0992 0.39687 0.0661 0.76288 0.16537 1.098 0.29766"/>
  <path id="path3076" style="" d="m435.46 287.99v1.1509c-0.34397-0.17638-0.70116-0.30868-1.0716-0.39688-0.37042-0.0882-0.75407-0.13228-1.1509-0.13229-0.60414 0.00001-1.0583 0.0926-1.3626 0.27781-0.29986 0.18522-0.44979 0.46303-0.44979 0.83344 0 0.28223 0.10804 0.50492 0.32412 0.66808 0.21607 0.15875 0.65043 0.31089 1.3031 0.45641l0.41672 0.0926c0.86431 0.18521 1.4773 0.44759 1.8389 0.78714 0.366 0.33514 0.54901 0.80478 0.54901 1.4089 0 0.68792-0.27341 1.2325-0.82021 1.6338-0.5424 0.40129-1.2898 0.60193-2.2424 0.60193-0.39688 0-0.81139-0.0397-1.2435-0.11906-0.42775-0.075-0.87974-0.18962-1.356-0.34396v-1.2568c0.44979 0.23371 0.89297 0.4101 1.3295 0.52916 0.43656 0.11466 0.86871 0.17198 1.2965 0.17198 0.57326 0 1.0142-0.097 1.3229-0.29104 0.30868-0.19844 0.46302-0.47625 0.46302-0.83344 0-0.33073-0.11245-0.58429-0.33734-0.76068-0.22049-0.17638-0.70777-0.34616-1.4618-0.50932l-0.42333-0.0992c-0.75407-0.15875-1.2987-0.40128-1.6338-0.72761-0.33514-0.33072-0.50271-0.78272-0.50271-1.356 0-0.69673 0.24695-1.2347 0.74084-1.614 0.49389-0.37923 1.195-0.56885 2.1034-0.56886 0.44979 0.00001 0.87312 0.0331 1.27 0.0992 0.39687 0.0661 0.76288 0.16537 1.098 0.29766"/>
  <path id="path3078" style="" d="m439.33 284.34h1.3163l-2.1564 2.4871h-1.012l1.8521-2.4871m-1.528 3.4264h1.2171v7.4084h-1.2171v-7.4084m0.60854-0.1786"/>
  <path id="path3080" style="" d="m441.51 284.88h1.2237v6.0788l3.6314-3.1948h1.5544l-3.9291 3.466 4.0944 3.9423h-1.5875l-3.7637-3.6182v3.6182h-1.2237v-10.292"/>
  <path id="path3082" style="" d="m449.41 287.77h1.2171v7.5406c0 0.94368-0.1808 1.6272-0.5424 2.0505-0.35719 0.42333-0.93486 0.63499-1.733 0.635h-0.46302v-1.0319h0.32411c0.46302 0 0.77832-0.10804 0.94589-0.32412 0.16757-0.21166 0.25135-0.65484 0.25135-1.3295v-7.5406m0-2.884h1.2171v1.5412h-1.2171v-1.5412"/>
  <path id="path3084" style="" d="m456.54 291.45c-0.98337 0-1.6647 0.11245-2.0439 0.33734-0.37924 0.2249-0.56886 0.60855-0.56885 1.1509-0.00001 0.43216 0.1411 0.77612 0.42333 1.0319 0.28663 0.25136 0.67469 0.37703 1.1642 0.37703 0.67468 0 1.2149-0.23812 1.6206-0.71437 0.4101-0.48066 0.61515-1.1179 0.61515-1.9116v-0.2712h-1.2105m2.4276-0.50271v4.2267h-1.2171v-1.1245c-0.27782 0.44979-0.62398 0.78272-1.0385 0.9988-0.41452 0.21167-0.92164 0.3175-1.5214 0.3175-0.75847 0-1.3626-0.21167-1.8124-0.635-0.44538-0.42774-0.66807-0.9988-0.66807-1.7132 0-0.83344 0.27781-1.4618 0.83344-1.8852 0.56003-0.42333 1.3935-0.635 2.5003-0.635h1.7066v-0.11907c0-0.56003-0.18521-0.99218-0.55562-1.2965-0.36602-0.30867-0.88195-0.46301-1.5478-0.46302-0.42334 0.00001-0.83565 0.0507-1.2369 0.15214-0.40129 0.10143-0.78714 0.25356-1.1576 0.4564v-1.1245c0.44538-0.17197 0.87753-0.29985 1.2965-0.38365 0.41892-0.0882 0.82682-0.13228 1.2237-0.13229 1.0716 0.00001 1.8719 0.27782 2.4011 0.83344 0.52916 0.55563 0.79374 1.3979 0.79375 2.5268"/>
 </g>
</svg>
