<?xml version="1.0" encoding="UTF-8" standalone="no"?>
<!-- Created with Inkscape (http://www.inkscape.org/) -->
<svg id="svg2" xmlns:rdf="http://www.w3.org/1999/02/22-rdf-syntax-ns#" xmlns="http://www.w3.org/2000/svg" height="290.9" width="706.32" version="1.1" xmlns:cc="http://creativecommons.org/ns#" xmlns:dc="http://purl.org/dc/elements/1.1/" viewBox="210 48 390.70624 150.51632">
 <metadata id="metadata388">
  <rdf:RDF>
   <cc:Work rdf:about="">
    <dc:format>image/svg+xml</dc:format>
    <dc:type rdf:resource="http://purl.org/dc/dcmitype/StillImage"/>
   </cc:Work>
  </rdf:RDF>
 </metadata>
 <g id="g4" transform="translate(-.29376 -7.4747)">
  <path id="rect6" fill="#fff" d="m230 70h20v20h-20z"/>
  <path id="rect8" d="m230 70h20v20h-20z" stroke="#000" stroke-width="2" fill="none"/>
 </g>
 <g id="g10" transform="translate(-.29376 -7.4747)">
  <path id="rect12" fill="#fff" d="m250 70h20v20h-20z"/>
  <path id="rect14" d="m250 70h20v20h-20z" stroke="#000" stroke-width="2" fill="none"/>
 </g>
 <g id="g16" transform="translate(-.29376 -7.4747)">
  <path id="rect18" fill="#fff" d="m270 70h20v20h-20z"/>
  <path id="rect20" d="m270 70h20v20h-20z" stroke="#000" stroke-width="2" fill="none"/>
 </g>
 <g id="g22" transform="translate(-.29376 -7.4747)">
  <path id="rect24" fill="#fff" d="m290 70h20v20h-20z"/>
  <path id="rect26" d="m290 70h20v20h-20z" stroke="#000" stroke-width="2" fill="none"/>
 </g>
 <g id="g28" transform="translate(-.29376 -7.4747)">
  <path id="rect30" fill="#3a739a" d="m310 70h20v20h-20z"/>
  <path id="rect32" d="m310 70h20v20h-20z" stroke="#000" stroke-width="2" fill="none"/>
 </g>
 <g id="g34" transform="translate(-.29376 -7.4747)">
  <path id="rect36" fill="#fff" d="m230 120h20v20h-20z"/>
  <path id="rect38" d="m230 120h20v20h-20z" stroke="#000" stroke-width="2" fill="none"/>
 </g>
 <g id="g40" transform="translate(-.29376 -7.4747)">
  <path id="rect42" fill="#fff" d="m250 120h20v20h-20z"/>
  <path id="rect44" d="m250 120h20v20h-20z" stroke="#000" stroke-width="2" fill="none"/>
 </g>
 <g id="g46" transform="translate(-.29376 -7.4747)">
  <path id="rect48" fill="#3a739a" d="m270 120h20v20h-20z"/>
  <path id="rect50" d="m270 120h20v20h-20z" stroke="#000" stroke-width="2" fill="none"/>
 </g>
 <g id="text52">
  <path id="path3189" style="" d="m215.95 45.794v1.075c-0.325-0.17916-0.65209-0.31249-0.98125-0.4-0.325-0.09166-0.65417-0.13749-0.9875-0.1375-0.74583 0.000006-1.325 0.23751-1.7375 0.7125-0.4125 0.47084-0.61875 1.1333-0.61875 1.9875 0 0.85417 0.20625 1.5188 0.61875 1.9938 0.4125 0.47083 0.99167 0.70625 1.7375 0.70625 0.33333 0.000001 0.6625-0.04375 0.9875-0.13125 0.32916-0.09167 0.65625-0.22708 0.98125-0.40625v1.0625c-0.32084 0.15-0.65417 0.2625-1 0.3375-0.34167 0.075-0.70625 0.1125-1.0938 0.1125-1.0542 0-1.8917-0.33125-2.5125-0.99375-0.62083-0.6625-0.93125-1.5562-0.93125-2.6812 0-1.1417 0.3125-2.0396 0.9375-2.6938 0.62917-0.65416 1.4896-0.98124 2.5812-0.98125 0.35417 0.000007 0.7 0.03751 1.0375 0.1125 0.3375 0.07084 0.66458 0.17917 0.98125 0.325"/>
  <path id="path3191" style="" d="m223.95 48.738v0.5625h-5.2875c0.05 0.79167 0.2875 1.3958 0.7125 1.8125 0.42917 0.4125 1.025 0.61875 1.7875 0.61875 0.44167 0.000001 0.86875-0.05417 1.2812-0.1625 0.41666-0.10833 0.82916-0.27083 1.2375-0.4875v1.0875c-0.4125 0.175-0.83542 0.30833-1.2688 0.4-0.43334 0.09167-0.87292 0.1375-1.3188 0.1375-1.1167 0-2.0021-0.325-2.6562-0.975-0.65-0.65-0.975-1.5292-0.975-2.6375 0-1.1458 0.30834-2.0542 0.925-2.725 0.62083-0.67499 1.4562-1.0125 2.5062-1.0125 0.94166 0.000007 1.6854 0.30417 2.2312 0.9125 0.55 0.60417 0.825 1.4271 0.825 2.4688m-1.15-0.3375c-0.008-0.62916-0.18542-1.1312-0.53125-1.5062-0.34167-0.37499-0.79583-0.56249-1.3625-0.5625-0.64167 0.000006-1.1562 0.18126-1.5438 0.54375-0.38333 0.3625-0.60417 0.87292-0.6625 1.5312l4.1-0.0063"/>
  <path id="path3193" style="" d="m225.84 42.8h1.15v9.725h-1.15v-9.725"/>
  <path id="path3195" style="" d="m229.28 42.8h2.65v0.89375h-1.5v9.625h1.5v0.89375h-2.65v-11.412"/>
  <path id="path3197" style="" d="m237.08 42.8v11.412h-2.65v-0.89375h1.4938v-9.625h-1.4938v-0.89375h2.65"/>
  <path id="path3199" style="" d="m246.22 42.813c-0.55833 0.95834-0.97292 1.9063-1.2438 2.8438-0.27083 0.93751-0.40625 1.8875-0.40625 2.85s0.13542 1.9167 0.40625 2.8625c0.275 0.94167 0.68958 1.8896 1.2438 2.8438h-1c-0.625-0.97917-1.0938-1.9417-1.4062-2.8875-0.30833-0.94583-0.4625-1.8854-0.4625-2.8188 0-0.92916 0.15417-1.8646 0.4625-2.8062 0.30833-0.94166 0.77708-1.9042 1.4062-2.8875h1"/>
  <path id="path3201" style="" d="m254.45 48.738v0.5625h-5.2875c0.05 0.79167 0.2875 1.3958 0.7125 1.8125 0.42917 0.4125 1.025 0.61875 1.7875 0.61875 0.44166 0.000001 0.86875-0.05417 1.2812-0.1625 0.41666-0.10833 0.82916-0.27083 1.2375-0.4875v1.0875c-0.4125 0.175-0.83542 0.30833-1.2688 0.4-0.43334 0.09167-0.87292 0.1375-1.3188 0.1375-1.1167 0-2.0021-0.325-2.6562-0.975-0.65-0.65-0.975-1.5292-0.975-2.6375 0-1.1458 0.30833-2.0542 0.925-2.725 0.62083-0.67499 1.4562-1.0125 2.5062-1.0125 0.94166 0.000007 1.6854 0.30417 2.2312 0.9125 0.55 0.60417 0.825 1.4271 0.825 2.4688m-1.15-0.3375c-0.008-0.62916-0.18542-1.1312-0.53125-1.5062-0.34167-0.37499-0.79584-0.56249-1.3625-0.5625-0.64167 0.000006-1.1562 0.18126-1.5438 0.54375-0.38333 0.3625-0.60417 0.87292-0.6625 1.5312l4.1-0.0063"/>
  <path id="path3203" style="" d="m260.39 46.6c-0.12917-0.07499-0.27084-0.12916-0.425-0.1625-0.15-0.03749-0.31667-0.05624-0.5-0.05625-0.65 0.000006-1.15 0.21251-1.5 0.6375-0.34583 0.42084-0.51875 1.0271-0.51875 1.8188v3.6875h-1.1562v-7h1.1562v1.0875c0.24167-0.42499 0.55625-0.73958 0.94375-0.94375 0.3875-0.20833 0.85833-0.31249 1.4125-0.3125 0.0792 0.000007 0.16666 0.0063 0.2625 0.01875 0.0958 0.0083 0.20208 0.02292 0.31875 0.04375l0.006 1.1812"/>
  <path id="path3205" style="" d="m267.32 48.738v0.5625h-5.2875c0.05 0.79167 0.2875 1.3958 0.7125 1.8125 0.42917 0.4125 1.025 0.61875 1.7875 0.61875 0.44167 0.000001 0.86875-0.05417 1.2812-0.1625 0.41666-0.10833 0.82916-0.27083 1.2375-0.4875v1.0875c-0.4125 0.175-0.83542 0.30833-1.2688 0.4-0.43333 0.09167-0.87292 0.1375-1.3188 0.1375-1.1167 0-2.0021-0.325-2.6562-0.975-0.65-0.65-0.975-1.5292-0.975-2.6375 0-1.1458 0.30834-2.0542 0.925-2.725 0.62083-0.67499 1.4562-1.0125 2.5062-1.0125 0.94167 0.000007 1.6854 0.30417 2.2312 0.9125 0.55 0.60417 0.825 1.4271 0.825 2.4688m-1.15-0.3375c-0.008-0.62916-0.18542-1.1312-0.53125-1.5062-0.34167-0.37499-0.79583-0.56249-1.3625-0.5625-0.64167 0.000006-1.1562 0.18126-1.5438 0.54375-0.38333 0.3625-0.60416 0.87292-0.6625 1.5312l4.1-0.0063"/>
  <path id="path3207" style="" d="m273.81 46.588v-3.7875h1.15v9.725h-1.15v-1.05c-0.24167 0.41667-0.54792 0.72708-0.91875 0.93125-0.36667 0.2-0.80833 0.3-1.325 0.3-0.84583 0-1.5354-0.3375-2.0688-1.0125-0.52916-0.675-0.79375-1.5625-0.79375-2.6625s0.26459-1.9875 0.79375-2.6625c0.53334-0.67499 1.2229-1.0125 2.0688-1.0125 0.51667 0.000007 0.95833 0.10209 1.325 0.30625 0.37083 0.20001 0.67708 0.50834 0.91875 0.925m-3.9188 2.4438c0 0.84584 0.17292 1.5104 0.51875 1.9938 0.35 0.47917 0.82917 0.71875 1.4375 0.71875 0.60833 0.000001 1.0875-0.23958 1.4375-0.71875 0.35-0.48333 0.525-1.1479 0.525-1.9938 0-0.84583-0.175-1.5083-0.525-1.9875-0.35-0.48333-0.82917-0.72499-1.4375-0.725-0.60833 0.000006-1.0875 0.24167-1.4375 0.725-0.34583 0.47917-0.51875 1.1417-0.51875 1.9875"/>
  <path id="path3209" style="" d="m283.32 48.738v0.5625h-5.2875c0.05 0.79167 0.2875 1.3958 0.7125 1.8125 0.42916 0.4125 1.025 0.61875 1.7875 0.61875 0.44166 0.000001 0.86874-0.05417 1.2812-0.1625 0.41666-0.10833 0.82916-0.27083 1.2375-0.4875v1.0875c-0.41251 0.175-0.83542 0.30833-1.2688 0.4-0.43334 0.09167-0.87292 0.1375-1.3188 0.1375-1.1167 0-2.0021-0.325-2.6562-0.975-0.65-0.65-0.975-1.5292-0.975-2.6375 0-1.1458 0.30833-2.0542 0.925-2.725 0.62083-0.67499 1.4562-1.0125 2.5062-1.0125 0.94166 0.000007 1.6854 0.30417 2.2312 0.9125 0.54999 0.60417 0.82499 1.4271 0.825 2.4688m-1.15-0.3375c-0.008-0.62916-0.18542-1.1312-0.53125-1.5062-0.34167-0.37499-0.79584-0.56249-1.3625-0.5625-0.64167 0.000006-1.1562 0.18126-1.5438 0.54375-0.38334 0.3625-0.60417 0.87292-0.6625 1.5312l4.1-0.0063"/>
  <path id="path3211" style="" d="m286.34 43.538v1.9875h2.3688v0.89375h-2.3688v3.8c0 0.57084 0.0771 0.9375 0.23125 1.1 0.15833 0.1625 0.47708 0.24375 0.95625 0.24375h1.1812v0.9625h-1.1812c-0.8875 0-1.5-0.16458-1.8375-0.49375-0.3375-0.33333-0.50625-0.9375-0.50625-1.8125v-3.8h-0.84375v-0.89375h0.84375v-1.9875h1.1562"/>
  <path id="path3213" style="" d="m290.23 45.525h1.15v7h-1.15v-7m0-2.725h1.15v1.4562h-1.15v-1.4562"/>
  <path id="path3215" style="" d="m293.78 42.8h1.15v9.725h-1.15v-9.725"/>
  <path id="path3217" style="" d="m303.32 48.738v0.5625h-5.2875c0.05 0.79167 0.2875 1.3958 0.7125 1.8125 0.42916 0.4125 1.025 0.61875 1.7875 0.61875 0.44166 0.000001 0.86874-0.05417 1.2812-0.1625 0.41666-0.10833 0.82916-0.27083 1.2375-0.4875v1.0875c-0.41251 0.175-0.83542 0.30833-1.2688 0.4-0.43334 0.09167-0.87292 0.1375-1.3188 0.1375-1.1167 0-2.0021-0.325-2.6562-0.975-0.65-0.65-0.975-1.5292-0.975-2.6375 0-1.1458 0.30833-2.0542 0.925-2.725 0.62083-0.67499 1.4562-1.0125 2.5062-1.0125 0.94166 0.000007 1.6854 0.30417 2.2312 0.9125 0.54999 0.60417 0.82499 1.4271 0.825 2.4688m-1.15-0.3375c-0.008-0.62916-0.18542-1.1312-0.53125-1.5062-0.34167-0.37499-0.79584-0.56249-1.3625-0.5625-0.64167 0.000006-1.1562 0.18126-1.5438 0.54375-0.38334 0.3625-0.60417 0.87292-0.6625 1.5312l4.1-0.0063"/>
  <path id="path3219" style="" d="m309.81 48.944c-0.00001-0.83333-0.17292-1.4792-0.51875-1.9375-0.34167-0.45833-0.82292-0.68749-1.4438-0.6875-0.61667 0.000006-1.0979 0.22917-1.4438 0.6875-0.34167 0.45834-0.5125 1.1042-0.5125 1.9375 0 0.82917 0.17083 1.4729 0.5125 1.9312 0.34583 0.45833 0.82708 0.6875 1.4438 0.6875 0.62083 0.000001 1.1021-0.22917 1.4438-0.6875 0.34583-0.45833 0.51874-1.1021 0.51875-1.9312m1.15 2.7125c-0.00001 1.1917-0.26459 2.0771-0.79375 2.6562-0.52917 0.58333-1.3396 0.875-2.4312 0.875-0.40417-0.000003-0.78542-0.03125-1.1438-0.09375-0.35834-0.05834-0.70625-0.15-1.0438-0.275v-1.1188c0.3375 0.18333 0.67083 0.31875 1 0.40625 0.32916 0.0875 0.66458 0.13125 1.0062 0.13125 0.75416-0.000002 1.3188-0.19792 1.6938-0.59375 0.37499-0.39167 0.56249-0.98542 0.5625-1.7812v-0.56875c-0.23751 0.4125-0.54167 0.72083-0.9125 0.925-0.37084 0.20417-0.81459 0.30625-1.3312 0.30625-0.85834 0-1.55-0.32708-2.075-0.98125-0.525-0.65416-0.7875-1.5208-0.7875-2.6 0-1.0833 0.2625-1.9521 0.7875-2.6062 0.525-0.65416 1.2167-0.98124 2.075-0.98125 0.51666 0.000007 0.96041 0.10209 1.3312 0.30625 0.37083 0.20417 0.67499 0.51251 0.9125 0.925v-1.0625h1.15v6.1312"/>
  <path id="path3221" style="" d="m313.15 42.813h1c0.625 0.98334 1.0917 1.9458 1.4 2.8875 0.3125 0.94167 0.46875 1.8771 0.46875 2.8062 0 0.93334-0.15625 1.8729-0.46875 2.8188-0.30834 0.94583-0.775 1.9083-1.4 2.8875h-1c0.55417-0.95417 0.96666-1.9021 1.2375-2.8438 0.275-0.94583 0.4125-1.9 0.4125-2.8625s-0.1375-1.9125-0.4125-2.85c-0.27084-0.93749-0.68333-1.8854-1.2375-2.8438"/>
 </g>
 <g id="text56">
  <path id="path3224" style="" d="m240.17 73.432c-0.92917 0.000003-1.5729 0.10625-1.9312 0.31875-0.35833 0.2125-0.5375 0.575-0.5375 1.0875 0 0.40834 0.13333 0.73334 0.4 0.975 0.27083 0.2375 0.6375 0.35625 1.1 0.35625 0.6375 0.000001 1.1479-0.225 1.5312-0.675 0.3875-0.45416 0.58125-1.0562 0.58125-1.8062v-0.25625h-1.1438m2.2938-0.475v3.9938h-1.15v-1.0625c-0.2625 0.425-0.58959 0.73958-0.98125 0.94375-0.39167 0.2-0.87083 0.3-1.4375 0.3-0.71667 0-1.2875-0.2-1.7125-0.6-0.42083-0.40417-0.63125-0.94375-0.63125-1.6188 0-0.7875 0.2625-1.3812 0.7875-1.7812 0.52917-0.4 1.3167-0.6 2.3625-0.6h1.6125v-0.1125c0-0.52916-0.175-0.9375-0.525-1.225-0.34583-0.29166-0.83333-0.43749-1.4625-0.4375-0.4 0.000006-0.78958 0.04792-1.1688 0.14375-0.37917 0.09584-0.74375 0.23959-1.0938 0.43125v-1.0625c0.42083-0.16249 0.82917-0.28333 1.225-0.3625 0.39583-0.08333 0.78125-0.12499 1.1562-0.125 1.0125 0.000007 1.7688 0.26251 2.2688 0.7875 0.5 0.52501 0.75 1.3208 0.75 2.3875"/>
 </g>
 <g id="text60">
  <path id="path3227" style="" d="m259.14 67.225h1.15v9.725h-1.15v-9.725"/>
 </g>
 <g id="text64">
  <path id="path3230" style="" d="m280.12 71.294c0.28749-0.51666 0.63124-0.89791 1.0312-1.1438 0.39999-0.24583 0.87082-0.36874 1.4125-0.36875 0.72915 0.000007 1.2916 0.25626 1.6875 0.76875 0.39582 0.50834 0.59374 1.2333 0.59375 2.175v4.225h-1.1562v-4.1875c-0.00001-0.67083-0.11876-1.1687-0.35625-1.4938-0.23751-0.32499-0.60001-0.48749-1.0875-0.4875-0.59584 0.000006-1.0667 0.19792-1.4125 0.59375-0.34584 0.39584-0.51876 0.93542-0.51875 1.6188v3.9562h-1.1562v-4.1875c-0.00001-0.675-0.11876-1.1729-0.35625-1.4938-0.23751-0.32499-0.60417-0.48749-1.1-0.4875-0.58751 0.000006-1.0542 0.20001-1.4 0.6-0.34584 0.39584-0.51875 0.93334-0.51875 1.6125v3.9562h-1.1562v-7h1.1562v1.0875c0.2625-0.42916 0.57708-0.74583 0.94375-0.95 0.36666-0.20416 0.80208-0.30624 1.3062-0.30625 0.50833 0.000007 0.93958 0.12917 1.2938 0.3875 0.35832 0.25834 0.62291 0.63334 0.79375 1.125"/>
 </g>
 <g id="text68">
  <path id="path3233" style="" d="m300.17 73.432c-0.92917 0.000003-1.5729 0.10625-1.9312 0.31875-0.35834 0.2125-0.5375 0.575-0.5375 1.0875 0 0.40834 0.13333 0.73334 0.4 0.975 0.27083 0.2375 0.63749 0.35625 1.1 0.35625 0.63749 0.000001 1.1479-0.225 1.5312-0.675 0.38749-0.45416 0.58124-1.0562 0.58125-1.8062v-0.25625h-1.1438m2.2938-0.475v3.9938h-1.15v-1.0625c-0.26251 0.425-0.58959 0.73958-0.98125 0.94375-0.39167 0.2-0.87084 0.3-1.4375 0.3-0.71667 0-1.2875-0.2-1.7125-0.6-0.42084-0.40417-0.63125-0.94375-0.63125-1.6188 0-0.7875 0.2625-1.3812 0.7875-1.7812 0.52916-0.4 1.3167-0.6 2.3625-0.6h1.6125v-0.1125c-0.00001-0.52916-0.17501-0.9375-0.525-1.225-0.34584-0.29166-0.83334-0.43749-1.4625-0.4375-0.40001 0.000006-0.78959 0.04792-1.1688 0.14375-0.37917 0.09584-0.74375 0.23959-1.0938 0.43125v-1.0625c0.42083-0.16249 0.82916-0.28333 1.225-0.3625 0.39583-0.08333 0.78124-0.12499 1.1562-0.125 1.0125 0.000007 1.7687 0.26251 2.2688 0.7875 0.49999 0.52501 0.74999 1.3208 0.75 2.3875"/>
 </g>
 <g id="text72">
  <path id="path3236" style="" d="m314.53 67.619 3.25 10.519h-1.0625l-3.25-10.519h1.0625"/>
  <path id="path3238" style="" d="m321.86 68.45c-0.65001 0.000008-1.1396 0.32084-1.4688 0.9625-0.325 0.63751-0.4875 1.5979-0.4875 2.8812 0 1.2792 0.1625 2.2396 0.4875 2.8812 0.32916 0.6375 0.81874 0.95625 1.4688 0.95625 0.65416 0.000001 1.1437-0.31875 1.4688-0.95625 0.32916-0.64166 0.49374-1.6021 0.49375-2.8812-0.00001-1.2833-0.16459-2.2437-0.49375-2.8812-0.32501-0.64166-0.81459-0.96249-1.4688-0.9625m0-1c1.0458 0.000009 1.8437 0.41459 2.3938 1.2438 0.55416 0.82501 0.83124 2.025 0.83125 3.6-0.00001 1.5708-0.27709 2.7708-0.83125 3.6-0.55001 0.825-1.3479 1.2375-2.3938 1.2375-1.0458 0-1.8458-0.4125-2.4-1.2375-0.55-0.82916-0.825-2.0292-0.825-3.6 0-1.575 0.275-2.775 0.825-3.6 0.55416-0.82916 1.3542-1.2437 2.4-1.2438"/>
 </g>
 <g id="text76">
  <path id="path3241" style="" d="m239.14 117.23h1.15v9.725h-1.15v-9.725"/>
 </g>
 <g id="text80">
  <path id="path3244" style="" d="m262.96 123.16v0.5625h-5.2875c0.05 0.79167 0.2875 1.3958 0.7125 1.8125 0.42916 0.4125 1.025 0.61875 1.7875 0.61875 0.44166 0 0.86874-0.0542 1.2812-0.1625 0.41666-0.10833 0.82916-0.27083 1.2375-0.4875v1.0875c-0.41251 0.175-0.83542 0.30833-1.2688 0.4-0.43334 0.0917-0.87292 0.1375-1.3188 0.1375-1.1167 0-2.0021-0.325-2.6562-0.975-0.65-0.65-0.975-1.5292-0.975-2.6375 0-1.1458 0.30833-2.0542 0.925-2.725 0.62083-0.67499 1.4562-1.0125 2.5062-1.0125 0.94166 0.00001 1.6854 0.30417 2.2312 0.9125 0.54999 0.60417 0.82499 1.4271 0.825 2.4688m-1.15-0.3375c-0.008-0.62916-0.18542-1.1312-0.53125-1.5062-0.34167-0.37499-0.79584-0.56249-1.3625-0.5625-0.64167 0.00001-1.1563 0.18126-1.5438 0.54375-0.38334 0.36251-0.60417 0.87292-0.6625 1.5312l4.1-0.006"/>
 </g>
 <g id="text84">
  <path id="path3247" style="" d="m274.53 117.62 3.25 10.519h-1.0625l-3.25-10.519h1.0625"/>
  <path id="path3249" style="" d="m281.86 118.45c-0.65001 0.00001-1.1396 0.32084-1.4688 0.9625-0.325 0.63751-0.4875 1.5979-0.4875 2.8812 0 1.2792 0.1625 2.2396 0.4875 2.8812 0.32916 0.6375 0.81874 0.95625 1.4688 0.95625 0.65416 0 1.1437-0.31875 1.4688-0.95625 0.32916-0.64166 0.49374-1.6021 0.49375-2.8812-0.00001-1.2833-0.16459-2.2437-0.49375-2.8812-0.32501-0.64166-0.81459-0.96249-1.4688-0.9625m0-1c1.0458 0.00001 1.8437 0.41459 2.3938 1.2438 0.55416 0.82501 0.83124 2.025 0.83125 3.6-0.00001 1.5708-0.27709 2.7708-0.83125 3.6-0.55001 0.825-1.3479 1.2375-2.3938 1.2375-1.0458 0-1.8458-0.4125-2.4-1.2375-0.55-0.82916-0.825-2.0292-0.825-3.6 0-1.575 0.275-2.775 0.825-3.6 0.55416-0.82916 1.3542-1.2437 2.4-1.2438"/>
 </g>
 <g id="text92">
  <path id="path3253" style="" d="m214.46 92.8v0.95625h-1.1c-0.4125 0.000009-0.7 0.08334-0.8625 0.25-0.15833 0.16668-0.2375 0.46668-0.2375 0.9v0.61875h1.8938v0.89375h-1.8938v6.1063h-1.1562v-6.1063h-1.1v-0.89375h1.1v-0.4875c0-0.77916 0.18125-1.3458 0.54375-1.7 0.3625-0.35832 0.9375-0.53749 1.725-0.5375h1.0875"/>
  <path id="path3255" style="" d="m218.12 96.332c-0.61667 0.000006-1.1042 0.24167-1.4625 0.725-0.35833 0.47917-0.5375 1.1375-0.5375 1.975s0.17708 1.4979 0.53125 1.9813c0.35833 0.47916 0.84792 0.71875 1.4688 0.71875 0.6125 0 1.0979-0.24167 1.4562-0.725 0.35833-0.48333 0.5375-1.1417 0.5375-1.975 0-0.82916-0.17917-1.4854-0.5375-1.9688-0.35834-0.48749-0.84375-0.73124-1.4562-0.73125m0-0.975c1 0.000007 1.7854 0.32501 2.3562 0.975 0.57083 0.65001 0.85625 1.55 0.85625 2.7 0 1.1458-0.28542 2.0458-0.85625 2.7-0.57084 0.65-1.3562 0.975-2.3562 0.975-1.0042 0-1.7917-0.325-2.3625-0.975-0.56666-0.65417-0.85-1.5542-0.85-2.7 0-1.15 0.28334-2.05 0.85-2.7 0.57083-0.64999 1.3583-0.97499 2.3625-0.975"/>
  <path id="path3257" style="" d="m227.29 96.6c-0.12917-0.07499-0.27083-0.12916-0.425-0.1625-0.15-0.03749-0.31667-0.05624-0.5-0.05625-0.65 0.000006-1.15 0.21251-1.5 0.6375-0.34583 0.42084-0.51875 1.0271-0.51875 1.8188v3.6875h-1.1562v-7h1.1562v1.0875c0.24167-0.42499 0.55625-0.73958 0.94375-0.94375 0.3875-0.20833 0.85833-0.31249 1.4125-0.3125 0.0792 0.000007 0.16667 0.0063 0.2625 0.01875 0.0958 0.0083 0.20208 0.02292 0.31875 0.04375l0.006 1.1812"/>
  <path id="path3259" style="" d="m232.34 96.6c-0.12917-0.07499-0.27084-0.12916-0.425-0.1625-0.15-0.03749-0.31667-0.05624-0.5-0.05625-0.65 0.000006-1.15 0.21251-1.5 0.6375-0.34583 0.42084-0.51875 1.0271-0.51875 1.8188v3.6875h-1.1562v-7h1.1562v1.0875c0.24167-0.42499 0.55625-0.73958 0.94375-0.94375 0.3875-0.20833 0.85833-0.31249 1.4125-0.3125 0.0792 0.000007 0.16666 0.0063 0.2625 0.01875 0.0958 0.0083 0.20208 0.02292 0.31875 0.04375l0.006 1.1812"/>
  <path id="path3261" style="" d="m236.74 99.007c-0.92917 0.000004-1.5729 0.10625-1.9312 0.31875-0.35833 0.2125-0.5375 0.575-0.5375 1.0875 0 0.40833 0.13334 0.73333 0.4 0.975 0.27084 0.2375 0.6375 0.35625 1.1 0.35625 0.6375 0 1.1479-0.225 1.5312-0.675 0.3875-0.45417 0.58125-1.0562 0.58125-1.8063v-0.25625h-1.1438m2.2938-0.475v3.9938h-1.15v-1.0625c-0.2625 0.425-0.58958 0.73958-0.98125 0.94375-0.39167 0.2-0.87083 0.3-1.4375 0.3-0.71666 0-1.2875-0.2-1.7125-0.6-0.42083-0.40417-0.63125-0.94375-0.63125-1.6188 0-0.7875 0.2625-1.3812 0.7875-1.7813 0.52917-0.4 1.3167-0.6 2.3625-0.6h1.6125v-0.1125c0-0.52916-0.175-0.93749-0.525-1.225-0.34583-0.29166-0.83333-0.43749-1.4625-0.4375-0.4 0.000006-0.78958 0.04792-1.1688 0.14375-0.37916 0.09584-0.74375 0.23959-1.0938 0.43125v-1.0625c0.42084-0.16249 0.82917-0.28333 1.225-0.3625 0.39584-0.08333 0.78125-0.12499 1.1562-0.125 1.0125 0.000007 1.7688 0.26251 2.2688 0.7875 0.5 0.52501 0.75 1.3208 0.75 2.3875"/>
  <path id="path3263" style="" d="m245.88 95.732v1.0875c-0.325-0.16666-0.6625-0.29166-1.0125-0.375-0.35-0.08333-0.7125-0.12499-1.0875-0.125-0.57083 0.000006-1 0.08751-1.2875 0.2625-0.28333 0.17501-0.425 0.43751-0.425 0.7875 0 0.26667 0.10208 0.47709 0.30625 0.63125 0.20417 0.15 0.61458 0.29375 1.2312 0.43125l0.39375 0.0875c0.81667 0.175 1.3958 0.42292 1.7375 0.74375 0.34583 0.31667 0.51875 0.76042 0.51875 1.3313 0 0.65-0.25834 1.1646-0.775 1.5438-0.5125 0.37916-1.2188 0.56875-2.1188 0.56875-0.375 0-0.76667-0.0375-1.175-0.1125-0.40417-0.0708-0.83125-0.17917-1.2812-0.325v-1.1875c0.425 0.22083 0.84375 0.3875 1.2562 0.5 0.4125 0.10833 0.82083 0.1625 1.225 0.1625 0.54167 0 0.95833-0.0917 1.25-0.275 0.29167-0.1875 0.4375-0.45 0.4375-0.7875 0-0.3125-0.10625-0.55208-0.31875-0.71875-0.20833-0.16666-0.66875-0.32708-1.3812-0.48125l-0.4-0.09375c-0.7125-0.15-1.2271-0.37916-1.5438-0.6875-0.31666-0.3125-0.475-0.73958-0.475-1.2812 0-0.65833 0.23334-1.1667 0.7-1.525 0.46667-0.35833 1.1292-0.53749 1.9875-0.5375 0.425 0.000007 0.825 0.03126 1.2 0.09375 0.375 0.06251 0.72083 0.15626 1.0375 0.28125"/>
  <path id="path3265" style="" d="m247.98 92.8h2.65v0.89375h-1.5v9.625h1.5v0.89375h-2.65v-11.413"/>
  <path id="path3267" style="" d="m255.78 92.8v11.413h-2.65v-0.89375h1.4938v-9.625h-1.4938v-0.89375h2.65"/>
 </g>
 <g id="g96" transform="translate(-.29376 -7.4747)">
  <path id="rect98" fill="#a3bbcc" d="m330 70h20v20h-20z"/>
  <path id="rect100" d="m330 70h20v20h-20z" stroke="#000" stroke-width="2" fill="none"/>
 </g>
 <g id="g102" transform="translate(-.29376 -7.4747)">
  <path id="rect104" fill="#fff" d="m230 180h20v20h-20z"/>
  <path id="rect106" d="m230 180h20v20h-20z" stroke="#000" stroke-width="2" fill="none"/>
 </g>
 <g id="g108" transform="translate(-.29376 -7.4747)">
  <path id="rect110" fill="#fff" d="m250 180h20v20h-20z"/>
  <path id="rect112" d="m250 180h20v20h-20z" stroke="#000" stroke-width="2" fill="none"/>
 </g>
 <g id="g114" transform="translate(-.29376 -7.4747)">
  <path id="rect116" fill="#fff" d="m270 180h20v20h-20z"/>
  <path id="rect118" d="m270 180h20v20h-20z" stroke="#000" stroke-width="2" fill="none"/>
 </g>
 <g id="g120" transform="translate(-.29376 -7.4747)">
  <path id="rect122" fill="#fff" d="m290 180h20v20h-20z"/>
  <path id="rect124" d="m290 180h20v20h-20z" stroke="#000" stroke-width="2" fill="none"/>
 </g>
 <g id="g126" transform="translate(-.29376 -7.4747)">
  <path id="rect128" fill="#3a739a" d="m330 180h20v20h-20z"/>
  <path id="rect130" d="m330 180h20v20h-20z" stroke="#000" stroke-width="2" fill="none"/>
 </g>
 <g id="text132">
  <path id="path3282" style="" d="m215.95 155.79v1.075c-0.325-0.17916-0.65209-0.31249-0.98125-0.4-0.325-0.0917-0.65417-0.13749-0.9875-0.1375-0.74583 0.00001-1.325 0.23751-1.7375 0.7125-0.4125 0.47084-0.61875 1.1333-0.61875 1.9875 0 0.85417 0.20625 1.5188 0.61875 1.9938 0.4125 0.47084 0.99167 0.70626 1.7375 0.70625 0.33333 0.00001 0.6625-0.0437 0.9875-0.13125 0.32916-0.0917 0.65625-0.22708 0.98125-0.40625v1.0625c-0.32084 0.15-0.65417 0.2625-1 0.3375-0.34167 0.075-0.70625 0.1125-1.0938 0.1125-1.0542 0-1.8917-0.33125-2.5125-0.99375-0.62083-0.66249-0.93125-1.5562-0.93125-2.6812 0-1.1417 0.3125-2.0396 0.9375-2.6938 0.62917-0.65416 1.4896-0.98124 2.5812-0.98125 0.35417 0.00001 0.7 0.0375 1.0375 0.1125 0.3375 0.0709 0.66458 0.17918 0.98125 0.325"/>
  <path id="path3284" style="" d="m223.95 158.74v0.5625h-5.2875c0.05 0.79167 0.2875 1.3958 0.7125 1.8125 0.42917 0.41251 1.025 0.61876 1.7875 0.61875 0.44167 0.00001 0.86875-0.0542 1.2812-0.1625 0.41666-0.10833 0.82916-0.27083 1.2375-0.4875v1.0875c-0.4125 0.17501-0.83542 0.30834-1.2688 0.4-0.43334 0.0917-0.87292 0.1375-1.3188 0.1375-1.1167 0-2.0021-0.325-2.6562-0.975-0.65-0.64999-0.975-1.5292-0.975-2.6375 0-1.1458 0.30834-2.0542 0.925-2.725 0.62083-0.67499 1.4562-1.0125 2.5062-1.0125 0.94166 0.00001 1.6854 0.30418 2.2312 0.9125 0.55 0.60418 0.825 1.4271 0.825 2.4688m-1.15-0.3375c-0.008-0.62916-0.18542-1.1312-0.53125-1.5062-0.34167-0.37499-0.79583-0.56249-1.3625-0.5625-0.64167 0.00001-1.1562 0.18126-1.5438 0.54375-0.38333 0.36251-0.60417 0.87293-0.6625 1.5312l4.1-0.006"/>
  <path id="path3286" style="" d="m225.84 152.8h1.15v9.725h-1.15v-9.725"/>
  <path id="path3288" style="" d="m229.28 152.8h2.65v0.89375h-1.5v9.625h1.5v0.89375h-2.65v-11.412"/>
  <path id="path3290" style="" d="m237.08 152.8v11.412h-2.65v-0.89375h1.4938v-9.625h-1.4938v-0.89375h2.65"/>
  <path id="path3292" style="" d="m246.22 152.81c-0.55833 0.95835-0.97292 1.9063-1.2438 2.8438-0.27083 0.93751-0.40625 1.8875-0.40625 2.85 0 0.96251 0.13542 1.9167 0.40625 2.8625 0.275 0.94167 0.68958 1.8896 1.2438 2.8438h-1c-0.625-0.97916-1.0938-1.9417-1.4062-2.8875-0.30833-0.94583-0.4625-1.8854-0.4625-2.8188 0-0.92916 0.15417-1.8646 0.4625-2.8062 0.30833-0.94165 0.77708-1.9042 1.4062-2.8875h1"/>
  <path id="path3294" style="" d="m253.91 156.87c0.2875-0.51666 0.63125-0.89791 1.0312-1.1438 0.39999-0.24582 0.87083-0.36874 1.4125-0.36875 0.72916 0.00001 1.2917 0.25626 1.6875 0.76875 0.39582 0.50834 0.59374 1.2333 0.59375 2.175v4.225h-1.1562v-4.1875c-0.00001-0.67082-0.11876-1.1687-0.35625-1.4938-0.23751-0.32499-0.60001-0.48749-1.0875-0.4875-0.59584 0.00001-1.0667 0.19793-1.4125 0.59375-0.34584 0.39584-0.51875 0.93543-0.51875 1.6188v3.9562h-1.1562v-4.1875c0-0.67499-0.11875-1.1729-0.35625-1.4938-0.2375-0.32499-0.60417-0.48749-1.1-0.4875-0.5875 0.00001-1.0542 0.20001-1.4 0.6-0.34583 0.39584-0.51875 0.93334-0.51875 1.6125v3.9562h-1.1562v-7h1.1562v1.0875c0.2625-0.42916 0.57708-0.74582 0.94375-0.95 0.36667-0.20415 0.80208-0.30624 1.3062-0.30625 0.50833 0.00001 0.93958 0.12918 1.2938 0.3875 0.35833 0.25834 0.62291 0.63334 0.79375 1.125"/>
  <path id="path3296" style="" d="m264.12 159.01c-0.92917 0.00001-1.5729 0.10626-1.9312 0.31875-0.35833 0.21251-0.5375 0.57501-0.5375 1.0875 0 0.40834 0.13334 0.73334 0.4 0.975 0.27084 0.23751 0.6375 0.35626 1.1 0.35625 0.6375 0.00001 1.1479-0.22499 1.5312-0.675 0.3875-0.45416 0.58125-1.0562 0.58125-1.8062v-0.25625h-1.1438m2.2938-0.475v3.9938h-1.15v-1.0625c-0.2625 0.42501-0.58958 0.73959-0.98125 0.94375-0.39167 0.2-0.87083 0.3-1.4375 0.3-0.71666 0-1.2875-0.2-1.7125-0.6-0.42083-0.40416-0.63125-0.94374-0.63125-1.6188 0-0.78749 0.2625-1.3812 0.7875-1.7812 0.52917-0.39999 1.3167-0.59999 2.3625-0.6h1.6125v-0.1125c0-0.52916-0.175-0.93749-0.525-1.225-0.34583-0.29166-0.83333-0.43749-1.4625-0.4375-0.4 0.00001-0.78958 0.0479-1.1688 0.14375-0.37916 0.0958-0.74375 0.23959-1.0938 0.43125v-1.0625c0.42084-0.16249 0.82917-0.28332 1.225-0.3625 0.39584-0.0833 0.78125-0.12499 1.1562-0.125 1.0125 0.00001 1.7688 0.26251 2.2688 0.7875 0.5 0.52501 0.75 1.3208 0.75 2.3875m-2.1-6.2438h1.2438l-2.0375 2.35h-0.95625l1.75-2.35"/>
  <path id="path3298" style="" d="m273.25 155.73v1.0875c-0.325-0.16666-0.6625-0.29166-1.0125-0.375-0.35-0.0833-0.7125-0.12499-1.0875-0.125-0.57083 0.00001-1 0.0875-1.2875 0.2625-0.28333 0.17501-0.425 0.43751-0.425 0.7875 0 0.26668 0.10208 0.47709 0.30625 0.63125 0.20417 0.15001 0.61458 0.29376 1.2312 0.43125l0.39375 0.0875c0.81667 0.17501 1.3958 0.42293 1.7375 0.74375 0.34583 0.31667 0.51875 0.76042 0.51875 1.3312 0 0.65001-0.25834 1.1646-0.775 1.5438-0.5125 0.37917-1.2188 0.56875-2.1188 0.56875-0.375 0-0.76667-0.0375-1.175-0.1125-0.40417-0.0708-0.83125-0.17916-1.2812-0.325v-1.1875c0.425 0.22084 0.84375 0.38751 1.2562 0.5 0.4125 0.10834 0.82083 0.16251 1.225 0.1625 0.54167 0.00001 0.95833-0.0917 1.25-0.275 0.29167-0.18749 0.4375-0.44999 0.4375-0.7875 0-0.31249-0.10625-0.55208-0.31875-0.71875-0.20833-0.16666-0.66875-0.32708-1.3812-0.48125l-0.4-0.0937c-0.7125-0.14999-1.2271-0.37916-1.5438-0.6875-0.31666-0.31249-0.475-0.73957-0.475-1.2812 0-0.65832 0.23334-1.1667 0.7-1.525 0.46667-0.35832 1.1292-0.53749 1.9875-0.5375 0.425 0.00001 0.825 0.0313 1.2 0.0937 0.375 0.0625 0.72083 0.15626 1.0375 0.28125"/>
  <path id="path3300" style="" d="m278.18 156.33c-0.61667 0.00001-1.1042 0.24168-1.4625 0.725-0.35834 0.47918-0.53751 1.1375-0.5375 1.975-0.00001 0.83751 0.17708 1.4979 0.53125 1.9812 0.35833 0.47917 0.84791 0.71876 1.4688 0.71875 0.61249 0.00001 1.0979-0.24166 1.4562-0.725 0.35832-0.48333 0.53749-1.1417 0.5375-1.975-0.00001-0.82916-0.17918-1.4854-0.5375-1.9688-0.35834-0.48749-0.84376-0.73124-1.4562-0.73125m0-0.975c0.99999 0.00001 1.7854 0.32501 2.3562 0.975 0.57082 0.65001 0.85624 1.55 0.85625 2.7-0.00001 1.1458-0.28543 2.0458-0.85625 2.7-0.57084 0.65-1.3563 0.975-2.3562 0.975-1.0042 0-1.7917-0.325-2.3625-0.975-0.56667-0.65416-0.85-1.5542-0.85-2.7 0-1.15 0.28333-2.05 0.85-2.7 0.57083-0.64999 1.3583-0.97499 2.3625-0.975"/>
  <path id="path3302" style="" d="m283.29 152.8h1.15v9.725h-1.15v-9.725"/>
  <path id="path3304" style="" d="m290.02 159.01c-0.92917 0.00001-1.5729 0.10626-1.9312 0.31875-0.35834 0.21251-0.53751 0.57501-0.5375 1.0875-0.00001 0.40834 0.13333 0.73334 0.4 0.975 0.27083 0.23751 0.63749 0.35626 1.1 0.35625 0.63749 0.00001 1.1479-0.22499 1.5312-0.675 0.38749-0.45416 0.58124-1.0562 0.58125-1.8062v-0.25625h-1.1438m2.2938-0.475v3.9938h-1.15v-1.0625c-0.26251 0.42501-0.58959 0.73959-0.98125 0.94375-0.39167 0.2-0.87084 0.3-1.4375 0.3-0.71667 0-1.2875-0.2-1.7125-0.6-0.42084-0.40416-0.63125-0.94374-0.63125-1.6188 0-0.78749 0.2625-1.3812 0.7875-1.7812 0.52916-0.39999 1.3167-0.59999 2.3625-0.6h1.6125v-0.1125c-0.00001-0.52916-0.17501-0.93749-0.525-1.225-0.34584-0.29166-0.83334-0.43749-1.4625-0.4375-0.40001 0.00001-0.78959 0.0479-1.1688 0.14375-0.37917 0.0958-0.74376 0.23959-1.0938 0.43125v-1.0625c0.42083-0.16249 0.82916-0.28332 1.225-0.3625 0.39583-0.0833 0.78124-0.12499 1.1562-0.125 1.0125 0.00001 1.7687 0.26251 2.2688 0.7875 0.49999 0.52501 0.74999 1.3208 0.75 2.3875m-2.1-6.2438h1.2438l-2.0375 2.35h-0.95625l1.75-2.35"/>
  <path id="path3306" style="" d="m299.15 155.73v1.0875c-0.325-0.16666-0.6625-0.29166-1.0125-0.375-0.35-0.0833-0.7125-0.12499-1.0875-0.125-0.57083 0.00001-1 0.0875-1.2875 0.2625-0.28333 0.17501-0.425 0.43751-0.425 0.7875 0 0.26668 0.10209 0.47709 0.30625 0.63125 0.20417 0.15001 0.61459 0.29376 1.2312 0.43125l0.39375 0.0875c0.81667 0.17501 1.3958 0.42293 1.7375 0.74375 0.34583 0.31667 0.51875 0.76042 0.51875 1.3312 0 0.65001-0.25833 1.1646-0.775 1.5438-0.5125 0.37917-1.2188 0.56875-2.1188 0.56875-0.375 0-0.76666-0.0375-1.175-0.1125-0.40416-0.0708-0.83125-0.17916-1.2812-0.325v-1.1875c0.425 0.22084 0.84375 0.38751 1.2562 0.5 0.4125 0.10834 0.82084 0.16251 1.225 0.1625 0.54167 0.00001 0.95833-0.0917 1.25-0.275 0.29167-0.18749 0.4375-0.44999 0.4375-0.7875 0-0.31249-0.10625-0.55208-0.31875-0.71875-0.20833-0.16666-0.66875-0.32708-1.3812-0.48125l-0.4-0.0937c-0.7125-0.14999-1.2271-0.37916-1.5438-0.6875-0.31666-0.31249-0.475-0.73957-0.475-1.2812 0-0.65832 0.23334-1.1667 0.7-1.525 0.46667-0.35832 1.1292-0.53749 1.9875-0.5375 0.425 0.00001 0.825 0.0313 1.2 0.0937 0.375 0.0625 0.72083 0.15626 1.0375 0.28125"/>
  <path id="path3308" style="" d="m305.32 159.76v-4.2375h1.15v4.1938c0 0.66251 0.12917 1.1604 0.3875 1.4938 0.25834 0.32917 0.64583 0.49376 1.1625 0.49375 0.62083 0.00001 1.1104-0.19791 1.4688-0.59375 0.3625-0.39583 0.54375-0.93541 0.54375-1.6188v-3.9688h1.15v7h-1.15v-1.075c-0.27917 0.42501-0.60417 0.74167-0.975 0.95-0.36667 0.20417-0.79375 0.30625-1.2812 0.30625-0.80416 0-1.4146-0.25-1.8312-0.75-0.41666-0.49999-0.625-1.2312-0.625-2.1938m2.8938-4.4062"/>
  <path id="path3310" style="" d="m314.7 153.54v1.9875h2.3688v0.89375h-2.3688v3.8c0 0.57084 0.0771 0.93751 0.23125 1.1 0.15834 0.16251 0.47708 0.24376 0.95625 0.24375h1.1812v0.9625h-1.1812c-0.8875 0-1.5-0.16458-1.8375-0.49375-0.3375-0.33333-0.50625-0.93749-0.50625-1.8125v-3.8h-0.84375v-0.89375h0.84375v-1.9875h1.1562"/>
  <path id="path3312" style="" d="m321.77 159.01c-0.92917 0.00001-1.5729 0.10626-1.9312 0.31875-0.35834 0.21251-0.53751 0.57501-0.5375 1.0875-0.00001 0.40834 0.13333 0.73334 0.4 0.975 0.27083 0.23751 0.63749 0.35626 1.1 0.35625 0.63749 0.00001 1.1479-0.22499 1.5312-0.675 0.38749-0.45416 0.58124-1.0562 0.58125-1.8062v-0.25625h-1.1438m2.2938-0.475v3.9938h-1.15v-1.0625c-0.26251 0.42501-0.58959 0.73959-0.98125 0.94375-0.39167 0.2-0.87084 0.3-1.4375 0.3-0.71667 0-1.2875-0.2-1.7125-0.6-0.42084-0.40416-0.63125-0.94374-0.63125-1.6188 0-0.78749 0.2625-1.3812 0.7875-1.7812 0.52916-0.39999 1.3167-0.59999 2.3625-0.6h1.6125v-0.1125c-0.00001-0.52916-0.17501-0.93749-0.525-1.225-0.34584-0.29166-0.83334-0.43749-1.4625-0.4375-0.40001 0.00001-0.78959 0.0479-1.1688 0.14375-0.37917 0.0958-0.74376 0.23959-1.0938 0.43125v-1.0625c0.42083-0.16249 0.82916-0.28332 1.225-0.3625 0.39583-0.0833 0.78124-0.12499 1.1562-0.125 1.0125 0.00001 1.7687 0.26251 2.2688 0.7875 0.49999 0.52501 0.74999 1.3208 0.75 2.3875m-2.1-6.2438h1.2438l-2.0375 2.35h-0.95625l1.75-2.35"/>
  <path id="path3314" style="" d="m332.26 158.3v4.225h-1.15v-4.1875c0-0.66249-0.12917-1.1583-0.3875-1.4875-0.25833-0.32916-0.64583-0.49374-1.1625-0.49375-0.62083 0.00001-1.1104 0.19793-1.4688 0.59375-0.35833 0.39584-0.5375 0.93543-0.5375 1.6188v3.9562h-1.1562v-7h1.1562v1.0875c0.275-0.42082 0.59792-0.73541 0.96875-0.94375 0.375-0.20832 0.80625-0.31249 1.2938-0.3125 0.80417 0.00001 1.4125 0.25001 1.825 0.75 0.4125 0.49584 0.61875 1.2271 0.61875 2.1938"/>
  <path id="path3316" style="" d="m334.38 152.81h1c0.625 0.98335 1.0917 1.9458 1.4 2.8875 0.3125 0.94168 0.46875 1.8771 0.46875 2.8062 0 0.93334-0.15625 1.8729-0.46875 2.8188-0.30833 0.94584-0.775 1.9083-1.4 2.8875h-1c0.55417-0.95416 0.96667-1.9021 1.2375-2.8438 0.275-0.94583 0.4125-1.9 0.4125-2.8625 0-0.96249-0.1375-1.9125-0.4125-2.85-0.27083-0.93749-0.68333-1.8854-1.2375-2.8438"/>
 </g>
 <g id="text136">
  <path id="path3319" style="" d="m240.17 183.43c-0.92917 0-1.5729 0.10625-1.9312 0.31875-0.35833 0.2125-0.5375 0.575-0.5375 1.0875 0 0.40833 0.13333 0.73333 0.4 0.975 0.27083 0.2375 0.6375 0.35625 1.1 0.35625 0.6375 0 1.1479-0.225 1.5312-0.675 0.3875-0.45417 0.58125-1.0562 0.58125-1.8062v-0.25625h-1.1438m2.2938-0.475v3.9938h-1.15v-1.0625c-0.2625 0.425-0.58959 0.73958-0.98125 0.94375-0.39167 0.2-0.87083 0.3-1.4375 0.3-0.71667 0-1.2875-0.2-1.7125-0.6-0.42083-0.40417-0.63125-0.94375-0.63125-1.6188 0-0.7875 0.2625-1.3812 0.7875-1.7812 0.52917-0.4 1.3167-0.6 2.3625-0.6h1.6125v-0.1125c0-0.52916-0.175-0.9375-0.525-1.225-0.34583-0.29166-0.83333-0.4375-1.4625-0.4375-0.4 0-0.78958 0.0479-1.1688 0.14375-0.37917 0.0958-0.74375 0.23959-1.0938 0.43125v-1.0625c0.42083-0.1625 0.82917-0.28333 1.225-0.3625 0.39583-0.0833 0.78125-0.125 1.1562-0.125 1.0125 0 1.7688 0.2625 2.2688 0.7875s0.75 1.3208 0.75 2.3875"/>
 </g>
 <g id="text140">
  <path id="path3322" style="" d="m259.14 177.23h1.15v9.725h-1.15v-9.725"/>
 </g>
 <g id="text144">
  <path id="path3325" style="" d="m280.12 181.29c0.28749-0.51666 0.63124-0.89791 1.0312-1.1438 0.39999-0.24583 0.87082-0.36875 1.4125-0.36875 0.72915 0 1.2916 0.25625 1.6875 0.76875 0.39582 0.50834 0.59374 1.2333 0.59375 2.175v4.225h-1.1562v-4.1875c-0.00001-0.67083-0.11876-1.1688-0.35625-1.4938-0.23751-0.325-0.60001-0.4875-1.0875-0.4875-0.59584 0-1.0667 0.19792-1.4125 0.59375-0.34584 0.39584-0.51876 0.93542-0.51875 1.6188v3.9562h-1.1562v-4.1875c-0.00001-0.675-0.11876-1.1729-0.35625-1.4938-0.23751-0.325-0.60417-0.4875-1.1-0.4875-0.58751 0-1.0542 0.2-1.4 0.6-0.34584 0.39584-0.51875 0.93334-0.51875 1.6125v3.9562h-1.1562v-7h1.1562v1.0875c0.2625-0.42916 0.57708-0.74583 0.94375-0.95 0.36666-0.20416 0.80208-0.30625 1.3062-0.30625 0.50833 0 0.93958 0.12917 1.2938 0.3875 0.35832 0.25834 0.62291 0.63334 0.79375 1.125"/>
 </g>
 <g id="text148">
  <path id="path3328" style="" d="m300.17 183.43c-0.92917 0-1.5729 0.10625-1.9312 0.31875-0.35834 0.2125-0.5375 0.575-0.5375 1.0875 0 0.40833 0.13333 0.73333 0.4 0.975 0.27083 0.2375 0.63749 0.35625 1.1 0.35625 0.63749 0 1.1479-0.225 1.5312-0.675 0.38749-0.45417 0.58124-1.0562 0.58125-1.8062v-0.25625h-1.1438m2.2938-0.475v3.9938h-1.15v-1.0625c-0.26251 0.425-0.58959 0.73958-0.98125 0.94375-0.39167 0.2-0.87084 0.3-1.4375 0.3-0.71667 0-1.2875-0.2-1.7125-0.6-0.42084-0.40417-0.63125-0.94375-0.63125-1.6188 0-0.7875 0.2625-1.3812 0.7875-1.7812 0.52916-0.4 1.3167-0.6 2.3625-0.6h1.6125v-0.1125c-0.00001-0.52916-0.17501-0.9375-0.525-1.225-0.34584-0.29166-0.83334-0.4375-1.4625-0.4375-0.40001 0-0.78959 0.0479-1.1688 0.14375-0.37917 0.0958-0.74375 0.23959-1.0938 0.43125v-1.0625c0.42083-0.1625 0.82916-0.28333 1.225-0.3625 0.39583-0.0833 0.78124-0.125 1.1562-0.125 1.0125 0 1.7687 0.2625 2.2688 0.7875 0.49999 0.525 0.74999 1.3208 0.75 2.3875"/>
 </g>
 <g id="text152">
  <path id="path3331" style="" d="m334.53 177.62 3.25 10.519h-1.0625l-3.25-10.519h1.0625"/>
  <path id="path3333" style="" d="m341.86 178.45c-0.65001 0.00001-1.1396 0.32084-1.4688 0.9625-0.325 0.6375-0.4875 1.5979-0.4875 2.8812 0 1.2792 0.1625 2.2396 0.4875 2.8812 0.32916 0.6375 0.81874 0.95625 1.4688 0.95625 0.65416 0 1.1437-0.31875 1.4688-0.95625 0.32916-0.64167 0.49374-1.6021 0.49375-2.8812-0.00001-1.2833-0.16459-2.2438-0.49375-2.8812-0.32501-0.64166-0.81459-0.96249-1.4688-0.9625m0-1c1.0458 0.00001 1.8437 0.41459 2.3938 1.2438 0.55416 0.82501 0.83124 2.025 0.83125 3.6-0.00001 1.5708-0.27709 2.7708-0.83125 3.6-0.55001 0.825-1.3479 1.2375-2.3938 1.2375-1.0458 0-1.8458-0.4125-2.4-1.2375-0.55-0.82917-0.825-2.0292-0.825-3.6 0-1.575 0.275-2.775 0.825-3.6 0.55416-0.82916 1.3542-1.2437 2.4-1.2438"/>
 </g>
 <g id="g156" transform="translate(-.29376 -7.4747)">
  <path id="rect158" fill="#fff" d="m310 180h20v20h-20z"/>
  <path id="rect160" d="m310 180h20v20h-20z" stroke="#000" stroke-width="2" fill="none"/>
 </g>
 <g id="text162">
  <path id="path3338" style="" d="m319.14 177.23h1.15v9.725h-1.15v-9.725"/>
 </g>
 <g id="g166" transform="translate(-.29376 -7.4747)">
  <path id="rect168" fill="#fff" d="m420 70h20v20h-20z"/>
  <path id="rect170" d="m420 70h20v20h-20z" stroke="#000" stroke-width="2" fill="none"/>
 </g>
 <g id="g172" transform="translate(-.29376 -7.4747)">
  <path id="rect174" fill="#fff" d="m440 70h20v20h-20z"/>
  <path id="rect176" d="m440 70h20v20h-20z" stroke="#000" stroke-width="2" fill="none"/>
 </g>
 <g id="g178" transform="translate(-.29376 -7.4747)">
  <path id="rect180" fill="#fff" d="m460 70h20v20h-20z"/>
  <path id="rect182" d="m460 70h20v20h-20z" stroke="#000" stroke-width="2" fill="none"/>
 </g>
 <g id="g184" transform="translate(-.29376 -7.4747)">
  <path id="rect186" fill="#fff" d="m480 70h20v20h-20z"/>
  <path id="rect188" d="m480 70h20v20h-20z" stroke="#000" stroke-width="2" fill="none"/>
 </g>
 <g id="g190" transform="translate(-.29376 -7.4747)">
  <path id="rect192" fill="#3a739a" d="m500 70h20v20h-20z"/>
  <path id="rect194" d="m500 70h20v20h-20z" stroke="#000" stroke-width="2" fill="none"/>
 </g>
 <g id="g196" transform="translate(-.29376 -7.4747)">
  <path id="rect198" fill="#fff" d="m420 120h20v20h-20z"/>
  <path id="rect200" d="m420 120h20v20h-20z" stroke="#000" stroke-width="2" fill="none"/>
 </g>
 <g id="g202" transform="translate(-.29376 -7.4747)">
  <path id="rect204" fill="#fff" d="m440 120h20v20h-20z"/>
  <path id="rect206" d="m440 120h20v20h-20z" stroke="#000" stroke-width="2" fill="none"/>
 </g>
 <g id="g208" transform="translate(-.29376 -7.4747)">
  <path id="rect210" fill="#3a739a" d="m460 120h20v20h-20z"/>
  <path id="rect212" d="m460 120h20v20h-20z" stroke="#000" stroke-width="2" fill="none"/>
 </g>
 <g id="text214">
  <path id="path3357" style="" d="m405.95 45.794v1.075c-0.32501-0.17916-0.65209-0.31249-0.98125-0.4-0.32501-0.09166-0.65417-0.13749-0.9875-0.1375-0.74584 0.000006-1.325 0.23751-1.7375 0.7125-0.4125 0.47084-0.61875 1.1333-0.61875 1.9875 0 0.85417 0.20625 1.5188 0.61875 1.9938 0.41249 0.47083 0.99166 0.70625 1.7375 0.70625 0.33333 0.000001 0.66249-0.04375 0.9875-0.13125 0.32916-0.09167 0.65624-0.22708 0.98125-0.40625v1.0625c-0.32084 0.15-0.65417 0.2625-1 0.3375-0.34167 0.075-0.70626 0.1125-1.0938 0.1125-1.0542 0-1.8917-0.33125-2.5125-0.99375-0.62084-0.6625-0.93125-1.5562-0.93125-2.6812 0-1.1417 0.3125-2.0396 0.9375-2.6938 0.62916-0.65416 1.4896-0.98124 2.5812-0.98125 0.35416 0.000007 0.69999 0.03751 1.0375 0.1125 0.33749 0.07084 0.66458 0.17917 0.98125 0.325"/>
  <path id="path3359" style="" d="m413.95 48.738v0.5625h-5.2875c0.05 0.79167 0.2875 1.3958 0.7125 1.8125 0.42916 0.4125 1.025 0.61875 1.7875 0.61875 0.44166 0.000001 0.86874-0.05417 1.2812-0.1625 0.41666-0.10833 0.82916-0.27083 1.2375-0.4875v1.0875c-0.41251 0.175-0.83542 0.30833-1.2688 0.4-0.43334 0.09167-0.87292 0.1375-1.3188 0.1375-1.1167 0-2.0021-0.325-2.6562-0.975-0.65-0.65-0.975-1.5292-0.975-2.6375 0-1.1458 0.30833-2.0542 0.925-2.725 0.62083-0.67499 1.4562-1.0125 2.5062-1.0125 0.94166 0.000007 1.6854 0.30417 2.2312 0.9125 0.54999 0.60417 0.82499 1.4271 0.825 2.4688m-1.15-0.3375c-0.008-0.62916-0.18542-1.1312-0.53125-1.5062-0.34167-0.37499-0.79584-0.56249-1.3625-0.5625-0.64167 0.000006-1.1562 0.18126-1.5438 0.54375-0.38334 0.3625-0.60417 0.87292-0.6625 1.5312l4.1-0.0063"/>
  <path id="path3361" style="" d="m415.84 42.8h1.15v9.725h-1.15v-9.725"/>
  <path id="path3363" style="" d="m419.28 42.8h2.65v0.89375h-1.5v9.625h1.5v0.89375h-2.65v-11.412"/>
  <path id="path3365" style="" d="m427.07 42.8v11.412h-2.65v-0.89375h1.4938v-9.625h-1.4938v-0.89375h2.65"/>
  <path id="path3367" style="" d="m436.22 42.813c-0.55834 0.95834-0.97292 1.9063-1.2438 2.8438-0.27084 0.93751-0.40626 1.8875-0.40625 2.85-0.00001 0.9625 0.13541 1.9167 0.40625 2.8625 0.27499 0.94167 0.68958 1.8896 1.2438 2.8438h-1c-0.62501-0.97917-1.0938-1.9417-1.4062-2.8875-0.30834-0.94583-0.4625-1.8854-0.4625-2.8188 0-0.92916 0.15416-1.8646 0.4625-2.8062 0.30833-0.94166 0.77708-1.9042 1.4062-2.8875h1"/>
  <path id="path3369" style="" d="m444.45 48.738v0.5625h-5.2875c0.05 0.79167 0.28749 1.3958 0.7125 1.8125 0.42916 0.4125 1.025 0.61875 1.7875 0.61875 0.44166 0.000001 0.86874-0.05417 1.2812-0.1625 0.41666-0.10833 0.82916-0.27083 1.2375-0.4875v1.0875c-0.41251 0.175-0.83543 0.30833-1.2688 0.4-0.43334 0.09167-0.87292 0.1375-1.3188 0.1375-1.1167 0-2.0021-0.325-2.6562-0.975-0.65-0.65-0.975-1.5292-0.975-2.6375 0-1.1458 0.30833-2.0542 0.925-2.725 0.62083-0.67499 1.4562-1.0125 2.5062-1.0125 0.94166 0.000007 1.6854 0.30417 2.2312 0.9125 0.54999 0.60417 0.82499 1.4271 0.825 2.4688m-1.15-0.3375c-0.008-0.62916-0.18543-1.1312-0.53125-1.5062-0.34167-0.37499-0.79584-0.56249-1.3625-0.5625-0.64167 0.000006-1.1563 0.18126-1.5438 0.54375-0.38334 0.3625-0.60417 0.87292-0.6625 1.5312l4.1-0.0063"/>
  <path id="path3371" style="" d="m450.39 46.6c-0.12917-0.07499-0.27084-0.12916-0.425-0.1625-0.15001-0.03749-0.31667-0.05624-0.5-0.05625-0.65001 0.000006-1.15 0.21251-1.5 0.6375-0.34584 0.42084-0.51876 1.0271-0.51875 1.8188v3.6875h-1.1562v-7h1.1562v1.0875c0.24166-0.42499 0.55624-0.73958 0.94375-0.94375 0.38749-0.20833 0.85833-0.31249 1.4125-0.3125 0.0792 0.000007 0.16666 0.0063 0.2625 0.01875 0.0958 0.0083 0.20208 0.02292 0.31875 0.04375l0.006 1.1812"/>
  <path id="path3373" style="" d="m457.32 48.738v0.5625h-5.2875c0.05 0.79167 0.2875 1.3958 0.7125 1.8125 0.42916 0.4125 1.025 0.61875 1.7875 0.61875 0.44166 0.000001 0.86874-0.05417 1.2812-0.1625 0.41666-0.10833 0.82916-0.27083 1.2375-0.4875v1.0875c-0.41251 0.175-0.83542 0.30833-1.2688 0.4-0.43334 0.09167-0.87292 0.1375-1.3188 0.1375-1.1167 0-2.0021-0.325-2.6562-0.975-0.65-0.65-0.975-1.5292-0.975-2.6375 0-1.1458 0.30833-2.0542 0.925-2.725 0.62083-0.67499 1.4562-1.0125 2.5062-1.0125 0.94166 0.000007 1.6854 0.30417 2.2312 0.9125 0.54999 0.60417 0.82499 1.4271 0.825 2.4688m-1.15-0.3375c-0.008-0.62916-0.18542-1.1312-0.53125-1.5062-0.34167-0.37499-0.79584-0.56249-1.3625-0.5625-0.64167 0.000006-1.1562 0.18126-1.5438 0.54375-0.38334 0.3625-0.60417 0.87292-0.6625 1.5312l4.1-0.0063"/>
  <path id="path3375" style="" d="m463.81 46.588v-3.7875h1.15v9.725h-1.15v-1.05c-0.24167 0.41667-0.54792 0.72708-0.91875 0.93125-0.36667 0.2-0.80834 0.3-1.325 0.3-0.84584 0-1.5354-0.3375-2.0688-1.0125-0.52917-0.675-0.79375-1.5625-0.79375-2.6625s0.26458-1.9875 0.79375-2.6625c0.53333-0.67499 1.2229-1.0125 2.0688-1.0125 0.51666 0.000007 0.95833 0.10209 1.325 0.30625 0.37083 0.20001 0.67708 0.50834 0.91875 0.925m-3.9188 2.4438c0 0.84584 0.17291 1.5104 0.51875 1.9938 0.35 0.47917 0.82916 0.71875 1.4375 0.71875 0.60833 0.000001 1.0875-0.23958 1.4375-0.71875 0.34999-0.48333 0.52499-1.1479 0.525-1.9938-0.00001-0.84583-0.17501-1.5083-0.525-1.9875-0.35001-0.48333-0.82917-0.72499-1.4375-0.725-0.60834 0.000006-1.0875 0.24167-1.4375 0.725-0.34584 0.47917-0.51875 1.1417-0.51875 1.9875"/>
  <path id="path3377" style="" d="m473.32 48.738v0.5625h-5.2875c0.05 0.79167 0.2875 1.3958 0.7125 1.8125 0.42917 0.4125 1.025 0.61875 1.7875 0.61875 0.44167 0.000001 0.86875-0.05417 1.2812-0.1625 0.41667-0.10833 0.82916-0.27083 1.2375-0.4875v1.0875c-0.4125 0.175-0.83542 0.30833-1.2688 0.4-0.43333 0.09167-0.87292 0.1375-1.3188 0.1375-1.1167 0-2.0021-0.325-2.6562-0.975-0.65-0.65-0.975-1.5292-0.975-2.6375 0-1.1458 0.30834-2.0542 0.925-2.725 0.62084-0.67499 1.4562-1.0125 2.5062-1.0125 0.94167 0.000007 1.6854 0.30417 2.2312 0.9125 0.55 0.60417 0.825 1.4271 0.825 2.4688m-1.15-0.3375c-0.008-0.62916-0.18542-1.1312-0.53125-1.5062-0.34167-0.37499-0.79583-0.56249-1.3625-0.5625-0.64167 0.000006-1.1562 0.18126-1.5438 0.54375-0.38333 0.3625-0.60416 0.87292-0.6625 1.5312l4.1-0.0063"/>
  <path id="path3379" style="" d="m476.34 43.538v1.9875h2.3688v0.89375h-2.3688v3.8c0 0.57084 0.0771 0.9375 0.23125 1.1 0.15834 0.1625 0.47709 0.24375 0.95625 0.24375h1.1812v0.9625h-1.1812c-0.8875 0-1.5-0.16458-1.8375-0.49375-0.3375-0.33333-0.50625-0.9375-0.50625-1.8125v-3.8h-0.84375v-0.89375h0.84375v-1.9875h1.1562"/>
  <path id="path3381" style="" d="m480.23 45.525h1.15v7h-1.15v-7m0-2.725h1.15v1.4562h-1.15v-1.4562"/>
  <path id="path3383" style="" d="m483.78 42.8h1.15v9.725h-1.15v-9.725"/>
  <path id="path3385" style="" d="m493.32 48.738v0.5625h-5.2875c0.05 0.79167 0.2875 1.3958 0.7125 1.8125 0.42917 0.4125 1.025 0.61875 1.7875 0.61875 0.44167 0.000001 0.86875-0.05417 1.2812-0.1625 0.41667-0.10833 0.82916-0.27083 1.2375-0.4875v1.0875c-0.4125 0.175-0.83542 0.30833-1.2688 0.4-0.43333 0.09167-0.87292 0.1375-1.3188 0.1375-1.1167 0-2.0021-0.325-2.6562-0.975-0.65-0.65-0.975-1.5292-0.975-2.6375 0-1.1458 0.30834-2.0542 0.925-2.725 0.62084-0.67499 1.4562-1.0125 2.5062-1.0125 0.94167 0.000007 1.6854 0.30417 2.2312 0.9125 0.55 0.60417 0.825 1.4271 0.825 2.4688m-1.15-0.3375c-0.008-0.62916-0.18542-1.1312-0.53125-1.5062-0.34167-0.37499-0.79583-0.56249-1.3625-0.5625-0.64167 0.000006-1.1562 0.18126-1.5438 0.54375-0.38333 0.3625-0.60416 0.87292-0.6625 1.5312l4.1-0.0063"/>
  <path id="path3387" style="" d="m499.81 48.944c0-0.83333-0.17292-1.4792-0.51875-1.9375-0.34167-0.45833-0.82292-0.68749-1.4438-0.6875-0.61667 0.000006-1.0979 0.22917-1.4438 0.6875-0.34166 0.45834-0.5125 1.1042-0.5125 1.9375 0 0.82917 0.17084 1.4729 0.5125 1.9312 0.34584 0.45833 0.82708 0.6875 1.4438 0.6875 0.62083 0.000001 1.1021-0.22917 1.4438-0.6875 0.34583-0.45833 0.51875-1.1021 0.51875-1.9312m1.15 2.7125c0 1.1917-0.26459 2.0771-0.79375 2.6562-0.52917 0.58333-1.3396 0.875-2.4312 0.875-0.40417-0.000003-0.78541-0.03125-1.1438-0.09375-0.35833-0.05834-0.70625-0.15-1.0438-0.275v-1.1188c0.3375 0.18333 0.67084 0.31875 1 0.40625 0.32917 0.0875 0.66458 0.13125 1.0062 0.13125 0.75417-0.000002 1.3188-0.19792 1.6938-0.59375 0.375-0.39167 0.5625-0.98542 0.5625-1.7812v-0.56875c-0.2375 0.4125-0.54167 0.72083-0.9125 0.925s-0.81458 0.30625-1.3312 0.30625c-0.85833 0-1.55-0.32708-2.075-0.98125-0.525-0.65416-0.7875-1.5208-0.7875-2.6 0-1.0833 0.2625-1.9521 0.7875-2.6062 0.525-0.65416 1.2167-0.98124 2.075-0.98125 0.51667 0.000007 0.96042 0.10209 1.3312 0.30625 0.37083 0.20417 0.675 0.51251 0.9125 0.925v-1.0625h1.15v6.1312"/>
  <path id="path3389" style="" d="m503.15 42.813h1c0.625 0.98334 1.0917 1.9458 1.4 2.8875 0.3125 0.94167 0.46875 1.8771 0.46875 2.8062 0 0.93334-0.15625 1.8729-0.46875 2.8188-0.30833 0.94583-0.775 1.9083-1.4 2.8875h-1c0.55417-0.95417 0.96667-1.9021 1.2375-2.8438 0.275-0.94583 0.4125-1.9 0.4125-2.8625s-0.1375-1.9125-0.4125-2.85c-0.27083-0.93749-0.68333-1.8854-1.2375-2.8438"/>
 </g>
 <g id="text218">
  <path id="path3392" style="" d="m430.17 73.432c-0.92917 0.000003-1.5729 0.10625-1.9312 0.31875-0.35834 0.2125-0.5375 0.575-0.5375 1.0875 0 0.40834 0.13333 0.73334 0.4 0.975 0.27083 0.2375 0.63749 0.35625 1.1 0.35625 0.63749 0.000001 1.1479-0.225 1.5312-0.675 0.38749-0.45416 0.58124-1.0562 0.58125-1.8062v-0.25625h-1.1438m2.2938-0.475v3.9938h-1.15v-1.0625c-0.26251 0.425-0.58959 0.73958-0.98125 0.94375-0.39167 0.2-0.87084 0.3-1.4375 0.3-0.71667 0-1.2875-0.2-1.7125-0.6-0.42084-0.40417-0.63125-0.94375-0.63125-1.6188 0-0.7875 0.2625-1.3812 0.7875-1.7812 0.52916-0.4 1.3167-0.6 2.3625-0.6h1.6125v-0.1125c-0.00001-0.52916-0.17501-0.9375-0.525-1.225-0.34584-0.29166-0.83334-0.43749-1.4625-0.4375-0.40001 0.000006-0.78959 0.04792-1.1688 0.14375-0.37917 0.09584-0.74375 0.23959-1.0938 0.43125v-1.0625c0.42083-0.16249 0.82916-0.28333 1.225-0.3625 0.39583-0.08333 0.78124-0.12499 1.1562-0.125 1.0125 0.000007 1.7687 0.26251 2.2688 0.7875 0.49999 0.52501 0.74999 1.3208 0.75 2.3875"/>
 </g>
 <g id="text222">
  <path id="path3395" style="" d="m449.14 67.225h1.15v9.725h-1.15v-9.725"/>
 </g>
 <g id="text226">
  <path id="path3398" style="" d="m470.12 71.294c0.28749-0.51666 0.63124-0.89791 1.0312-1.1438 0.39999-0.24583 0.87082-0.36874 1.4125-0.36875 0.72915 0.000007 1.2916 0.25626 1.6875 0.76875 0.39582 0.50834 0.59374 1.2333 0.59375 2.175v4.225h-1.1562v-4.1875c-0.00001-0.67083-0.11876-1.1687-0.35625-1.4938-0.23751-0.32499-0.60001-0.48749-1.0875-0.4875-0.59584 0.000006-1.0667 0.19792-1.4125 0.59375-0.34584 0.39584-0.51876 0.93542-0.51875 1.6188v3.9562h-1.1562v-4.1875c-0.00001-0.675-0.11876-1.1729-0.35625-1.4938-0.23751-0.32499-0.60417-0.48749-1.1-0.4875-0.58751 0.000006-1.0542 0.20001-1.4 0.6-0.34584 0.39584-0.51875 0.93334-0.51875 1.6125v3.9562h-1.1562v-7h1.1562v1.0875c0.2625-0.42916 0.57708-0.74583 0.94375-0.95 0.36666-0.20416 0.80208-0.30624 1.3062-0.30625 0.50833 0.000007 0.93958 0.12917 1.2938 0.3875 0.35832 0.25834 0.62291 0.63334 0.79375 1.125"/>
 </g>
 <g id="text230">
  <path id="path3401" style="" d="m490.17 73.432c-0.92917 0.000003-1.5729 0.10625-1.9312 0.31875-0.35834 0.2125-0.5375 0.575-0.5375 1.0875 0 0.40834 0.13333 0.73334 0.4 0.975 0.27083 0.2375 0.63749 0.35625 1.1 0.35625 0.63749 0.000001 1.1479-0.225 1.5312-0.675 0.38749-0.45416 0.58124-1.0562 0.58125-1.8062v-0.25625h-1.1438m2.2938-0.475v3.9938h-1.15v-1.0625c-0.26251 0.425-0.58959 0.73958-0.98125 0.94375-0.39167 0.2-0.87084 0.3-1.4375 0.3-0.71667 0-1.2875-0.2-1.7125-0.6-0.42084-0.40417-0.63125-0.94375-0.63125-1.6188 0-0.7875 0.2625-1.3812 0.7875-1.7812 0.52916-0.4 1.3167-0.6 2.3625-0.6h1.6125v-0.1125c-0.00001-0.52916-0.17501-0.9375-0.525-1.225-0.34584-0.29166-0.83334-0.43749-1.4625-0.4375-0.40001 0.000006-0.78959 0.04792-1.1688 0.14375-0.37917 0.09584-0.74375 0.23959-1.0938 0.43125v-1.0625c0.42083-0.16249 0.82916-0.28333 1.225-0.3625 0.39583-0.08333 0.78124-0.12499 1.1562-0.125 1.0125 0.000007 1.7687 0.26251 2.2688 0.7875 0.49999 0.52501 0.74999 1.3208 0.75 2.3875"/>
 </g>
 <g id="text234">
  <path id="path3404" style="" d="m504.53 67.619 3.25 10.519h-1.0625l-3.25-10.519h1.0625"/>
  <path id="path3406" style="" d="m511.86 68.45c-0.65001 0.000008-1.1396 0.32084-1.4688 0.9625-0.325 0.63751-0.4875 1.5979-0.4875 2.8812 0 1.2792 0.1625 2.2396 0.4875 2.8812 0.32916 0.6375 0.81874 0.95625 1.4688 0.95625 0.65416 0.000001 1.1437-0.31875 1.4688-0.95625 0.32916-0.64166 0.49374-1.6021 0.49375-2.8812-0.00001-1.2833-0.16459-2.2437-0.49375-2.8812-0.32501-0.64166-0.81459-0.96249-1.4688-0.9625m0-1c1.0458 0.000009 1.8437 0.41459 2.3938 1.2438 0.55416 0.82501 0.83124 2.025 0.83125 3.6-0.00001 1.5708-0.27709 2.7708-0.83125 3.6-0.55001 0.825-1.3479 1.2375-2.3938 1.2375-1.0458 0-1.8458-0.4125-2.4-1.2375-0.55-0.82916-0.825-2.0292-0.825-3.6 0-1.575 0.275-2.775 0.825-3.6 0.55416-0.82916 1.3542-1.2437 2.4-1.2438"/>
 </g>
 <g id="text238">
  <path id="path3409" style="" d="m429.14 117.23h1.15v9.725h-1.15v-9.725"/>
 </g>
 <g id="text242">
  <path id="path3412" style="" d="m452.96 123.16v0.5625h-5.2875c0.05 0.79167 0.2875 1.3958 0.7125 1.8125 0.42916 0.4125 1.025 0.61875 1.7875 0.61875 0.44166 0 0.86874-0.0542 1.2812-0.1625 0.41666-0.10833 0.82916-0.27083 1.2375-0.4875v1.0875c-0.41251 0.175-0.83542 0.30833-1.2688 0.4-0.43334 0.0917-0.87292 0.1375-1.3188 0.1375-1.1167 0-2.0021-0.325-2.6562-0.975-0.65-0.65-0.975-1.5292-0.975-2.6375 0-1.1458 0.30833-2.0542 0.925-2.725 0.62083-0.67499 1.4562-1.0125 2.5062-1.0125 0.94166 0.00001 1.6854 0.30417 2.2312 0.9125 0.54999 0.60417 0.82499 1.4271 0.825 2.4688m-1.15-0.3375c-0.008-0.62916-0.18542-1.1312-0.53125-1.5062-0.34167-0.37499-0.79584-0.56249-1.3625-0.5625-0.64167 0.00001-1.1563 0.18126-1.5438 0.54375-0.38334 0.36251-0.60417 0.87292-0.6625 1.5312l4.1-0.006"/>
 </g>
 <g id="text246">
  <path id="path3415" style="" d="m464.53 117.62 3.25 10.519h-1.0625l-3.25-10.519h1.0625"/>
  <path id="path3417" style="" d="m471.86 118.45c-0.65001 0.00001-1.1396 0.32084-1.4688 0.9625-0.325 0.63751-0.4875 1.5979-0.4875 2.8812 0 1.2792 0.1625 2.2396 0.4875 2.8812 0.32916 0.6375 0.81874 0.95625 1.4688 0.95625 0.65416 0 1.1437-0.31875 1.4688-0.95625 0.32916-0.64166 0.49374-1.6021 0.49375-2.8812-0.00001-1.2833-0.16459-2.2437-0.49375-2.8812-0.32501-0.64166-0.81459-0.96249-1.4688-0.9625m0-1c1.0458 0.00001 1.8437 0.41459 2.3938 1.2438 0.55416 0.82501 0.83124 2.025 0.83125 3.6-0.00001 1.5708-0.27709 2.7708-0.83125 3.6-0.55001 0.825-1.3479 1.2375-2.3938 1.2375-1.0458 0-1.8458-0.4125-2.4-1.2375-0.55-0.82916-0.825-2.0292-0.825-3.6 0-1.575 0.275-2.775 0.825-3.6 0.55416-0.82916 1.3542-1.2437 2.4-1.2438"/>
 </g>
 <g id="text254">
  <path id="path3421" style="" d="m404.46 92.8v0.95625h-1.1c-0.41251 0.000009-0.70001 0.08334-0.8625 0.25-0.15834 0.16668-0.2375 0.46668-0.2375 0.9v0.61875h1.8938v0.89375h-1.8938v6.1063h-1.1562v-6.1063h-1.1v-0.89375h1.1v-0.4875c0-0.77916 0.18125-1.3458 0.54375-1.7 0.3625-0.35832 0.93749-0.53749 1.725-0.5375h1.0875"/>
  <path id="path3423" style="" d="m408.12 96.332c-0.61667 0.000006-1.1042 0.24167-1.4625 0.725-0.35834 0.47917-0.5375 1.1375-0.5375 1.975s0.17708 1.4979 0.53125 1.9813c0.35833 0.47916 0.84791 0.71875 1.4688 0.71875 0.61249 0 1.0979-0.24167 1.4562-0.725 0.35833-0.48333 0.53749-1.1417 0.5375-1.975-0.00001-0.82916-0.17917-1.4854-0.5375-1.9688-0.35834-0.48749-0.84376-0.73124-1.4562-0.73125m0-0.975c0.99999 0.000007 1.7854 0.32501 2.3562 0.975 0.57082 0.65001 0.85624 1.55 0.85625 2.7-0.00001 1.1458-0.28543 2.0458-0.85625 2.7-0.57084 0.65-1.3563 0.975-2.3562 0.975-1.0042 0-1.7917-0.325-2.3625-0.975-0.56667-0.65417-0.85-1.5542-0.85-2.7 0-1.15 0.28333-2.05 0.85-2.7 0.57083-0.64999 1.3583-0.97499 2.3625-0.975"/>
  <path id="path3425" style="" d="m417.29 96.6c-0.12917-0.07499-0.27084-0.12916-0.425-0.1625-0.15001-0.03749-0.31667-0.05624-0.5-0.05625-0.65001 0.000006-1.15 0.21251-1.5 0.6375-0.34584 0.42084-0.51875 1.0271-0.51875 1.8188v3.6875h-1.1562v-7h1.1562v1.0875c0.24166-0.42499 0.55625-0.73958 0.94375-0.94375 0.38749-0.20833 0.85833-0.31249 1.4125-0.3125 0.0792 0.000007 0.16666 0.0063 0.2625 0.01875 0.0958 0.0083 0.20208 0.02292 0.31875 0.04375l0.006 1.1812"/>
  <path id="path3427" style="" d="m422.34 96.6c-0.12917-0.07499-0.27084-0.12916-0.425-0.1625-0.15001-0.03749-0.31667-0.05624-0.5-0.05625-0.65001 0.000006-1.15 0.21251-1.5 0.6375-0.34584 0.42084-0.51875 1.0271-0.51875 1.8188v3.6875h-1.1562v-7h1.1562v1.0875c0.24166-0.42499 0.55624-0.73958 0.94375-0.94375 0.38749-0.20833 0.85833-0.31249 1.4125-0.3125 0.0792 0.000007 0.16666 0.0063 0.2625 0.01875 0.0958 0.0083 0.20208 0.02292 0.31875 0.04375l0.006 1.1812"/>
  <path id="path3429" style="" d="m426.74 99.007c-0.92917 0.000004-1.5729 0.10625-1.9312 0.31875-0.35834 0.2125-0.5375 0.575-0.5375 1.0875 0 0.40833 0.13333 0.73333 0.4 0.975 0.27083 0.2375 0.6375 0.35625 1.1 0.35625 0.6375 0 1.1479-0.225 1.5312-0.675 0.38749-0.45417 0.58124-1.0562 0.58125-1.8063v-0.25625h-1.1438m2.2938-0.475v3.9938h-1.15v-1.0625c-0.26251 0.425-0.58959 0.73958-0.98125 0.94375-0.39167 0.2-0.87084 0.3-1.4375 0.3-0.71667 0-1.2875-0.2-1.7125-0.6-0.42083-0.40417-0.63125-0.94375-0.63125-1.6188 0-0.7875 0.2625-1.3812 0.7875-1.7813 0.52916-0.4 1.3167-0.6 2.3625-0.6h1.6125v-0.1125c-0.00001-0.52916-0.17501-0.93749-0.525-1.225-0.34584-0.29166-0.83334-0.43749-1.4625-0.4375-0.4 0.000006-0.78959 0.04792-1.1688 0.14375-0.37917 0.09584-0.74375 0.23959-1.0938 0.43125v-1.0625c0.42083-0.16249 0.82916-0.28333 1.225-0.3625 0.39583-0.08333 0.78125-0.12499 1.1562-0.125 1.0125 0.000007 1.7687 0.26251 2.2688 0.7875 0.49999 0.52501 0.74999 1.3208 0.75 2.3875"/>
  <path id="path3431" style="" d="m435.87 95.732v1.0875c-0.32501-0.16666-0.66251-0.29166-1.0125-0.375-0.35001-0.08333-0.71251-0.12499-1.0875-0.125-0.57084 0.000006-1 0.08751-1.2875 0.2625-0.28334 0.17501-0.425 0.43751-0.425 0.7875 0 0.26667 0.10208 0.47709 0.30625 0.63125 0.20416 0.15 0.61458 0.29375 1.2312 0.43125l0.39375 0.0875c0.81666 0.175 1.3958 0.42292 1.7375 0.74375 0.34583 0.31667 0.51874 0.76042 0.51875 1.3313-0.00001 0.65-0.25834 1.1646-0.775 1.5438-0.51251 0.37916-1.2188 0.56875-2.1188 0.56875-0.375 0-0.76667-0.0375-1.175-0.1125-0.40417-0.0708-0.83125-0.17917-1.2812-0.325v-1.1875c0.425 0.22083 0.84375 0.3875 1.2562 0.5 0.4125 0.10833 0.82083 0.1625 1.225 0.1625 0.54166 0 0.95833-0.0917 1.25-0.275 0.29166-0.1875 0.43749-0.45 0.4375-0.7875-0.00001-0.3125-0.10626-0.55208-0.31875-0.71875-0.20834-0.16666-0.66876-0.32708-1.3812-0.48125l-0.4-0.09375c-0.7125-0.15-1.2271-0.37916-1.5438-0.6875-0.31667-0.3125-0.475-0.73958-0.475-1.2812 0-0.65833 0.23333-1.1667 0.7-1.525 0.46666-0.35833 1.1292-0.53749 1.9875-0.5375 0.42499 0.000007 0.82499 0.03126 1.2 0.09375 0.37499 0.06251 0.72083 0.15626 1.0375 0.28125"/>
  <path id="path3433" style="" d="m437.98 92.8h2.65v0.89375h-1.5v9.625h1.5v0.89375h-2.65v-11.413"/>
  <path id="path3435" style="" d="m445.77 92.8v11.413h-2.65v-0.89375h1.4938v-9.625h-1.4938v-0.89375h2.65"/>
 </g>
 <g id="g258" transform="translate(-.29376 -7.4747)">
  <path id="rect260" fill="#a3bbcc" d="m520 70h20v20h-20z"/>
  <path id="rect262" d="m520 70h20v20h-20z" stroke="#000" stroke-width="2" fill="none"/>
 </g>
 <g id="g264" transform="translate(-.29376 -7.4747)">
  <path id="rect266" fill="#fff" d="m420 180h20v20h-20z"/>
  <path id="rect268" d="m420 180h20v20h-20z" stroke="#000" stroke-width="2" fill="none"/>
 </g>
 <g id="g270" transform="translate(-.29376 -7.4747)">
  <path id="rect272" fill="#fff" d="m440 180h20v20h-20z"/>
  <path id="rect274" d="m440 180h20v20h-20z" stroke="#000" stroke-width="2" fill="none"/>
 </g>
 <g id="g276" transform="translate(-.29376 -7.4747)">
  <path id="rect278" fill="#fff" d="m460 180h20v20h-20z"/>
  <path id="rect280" d="m460 180h20v20h-20z" stroke="#000" stroke-width="2" fill="none"/>
 </g>
 <g id="g282" transform="translate(-.29376 -7.4747)">
  <path id="rect284" fill="#fff" d="m480 180h20v20h-20z"/>
  <path id="rect286" d="m480 180h20v20h-20z" stroke="#000" stroke-width="2" fill="none"/>
 </g>
 <g id="g288" transform="translate(-.29376 -7.4747)">
  <path id="rect290" fill="#3a739a" d="m540 180h20v20h-20z"/>
  <path id="rect292" d="m540 180h20v20h-20z" stroke="#000" stroke-width="2" fill="none"/>
 </g>
 <g id="text294">
  <path id="path3450" style="" d="m405.95 155.79v1.075c-0.32501-0.17916-0.65209-0.31249-0.98125-0.4-0.32501-0.0917-0.65417-0.13749-0.9875-0.1375-0.74584 0.00001-1.325 0.23751-1.7375 0.7125-0.4125 0.47084-0.61875 1.1333-0.61875 1.9875 0 0.85417 0.20625 1.5188 0.61875 1.9938 0.41249 0.47084 0.99166 0.70626 1.7375 0.70625 0.33333 0.00001 0.66249-0.0437 0.9875-0.13125 0.32916-0.0917 0.65624-0.22708 0.98125-0.40625v1.0625c-0.32084 0.15-0.65417 0.2625-1 0.3375-0.34167 0.075-0.70626 0.1125-1.0938 0.1125-1.0542 0-1.8917-0.33125-2.5125-0.99375-0.62084-0.66249-0.93125-1.5562-0.93125-2.6812 0-1.1417 0.3125-2.0396 0.9375-2.6938 0.62916-0.65416 1.4896-0.98124 2.5812-0.98125 0.35416 0.00001 0.69999 0.0375 1.0375 0.1125 0.33749 0.0709 0.66458 0.17918 0.98125 0.325"/>
  <path id="path3452" style="" d="m413.95 158.74v0.5625h-5.2875c0.05 0.79167 0.2875 1.3958 0.7125 1.8125 0.42916 0.41251 1.025 0.61876 1.7875 0.61875 0.44166 0.00001 0.86874-0.0542 1.2812-0.1625 0.41666-0.10833 0.82916-0.27083 1.2375-0.4875v1.0875c-0.41251 0.17501-0.83542 0.30834-1.2688 0.4-0.43334 0.0917-0.87292 0.1375-1.3188 0.1375-1.1167 0-2.0021-0.325-2.6562-0.975-0.65-0.64999-0.975-1.5292-0.975-2.6375 0-1.1458 0.30833-2.0542 0.925-2.725 0.62083-0.67499 1.4562-1.0125 2.5062-1.0125 0.94166 0.00001 1.6854 0.30418 2.2312 0.9125 0.54999 0.60418 0.82499 1.4271 0.825 2.4688m-1.15-0.3375c-0.008-0.62916-0.18542-1.1312-0.53125-1.5062-0.34167-0.37499-0.79584-0.56249-1.3625-0.5625-0.64167 0.00001-1.1562 0.18126-1.5438 0.54375-0.38334 0.36251-0.60417 0.87293-0.6625 1.5312l4.1-0.006"/>
  <path id="path3454" style="" d="m415.84 152.8h1.15v9.725h-1.15v-9.725"/>
  <path id="path3456" style="" d="m419.28 152.8h2.65v0.89375h-1.5v9.625h1.5v0.89375h-2.65v-11.412"/>
  <path id="path3458" style="" d="m427.07 152.8v11.412h-2.65v-0.89375h1.4938v-9.625h-1.4938v-0.89375h2.65"/>
  <path id="path3460" style="" d="m436.22 152.81c-0.55834 0.95835-0.97292 1.9063-1.2438 2.8438-0.27084 0.93751-0.40626 1.8875-0.40625 2.85-0.00001 0.96251 0.13541 1.9167 0.40625 2.8625 0.27499 0.94167 0.68958 1.8896 1.2438 2.8438h-1c-0.62501-0.97916-1.0938-1.9417-1.4062-2.8875-0.30834-0.94583-0.4625-1.8854-0.4625-2.8188 0-0.92916 0.15416-1.8646 0.4625-2.8062 0.30833-0.94165 0.77708-1.9042 1.4062-2.8875h1"/>
  <path id="path3462" style="" d="m443.91 156.87c0.28749-0.51666 0.63124-0.89791 1.0312-1.1438 0.39999-0.24582 0.87082-0.36874 1.4125-0.36875 0.72915 0.00001 1.2916 0.25626 1.6875 0.76875 0.39582 0.50834 0.59374 1.2333 0.59375 2.175v4.225h-1.1562v-4.1875c-0.00001-0.67082-0.11876-1.1687-0.35625-1.4938-0.23751-0.32499-0.60001-0.48749-1.0875-0.4875-0.59584 0.00001-1.0667 0.19793-1.4125 0.59375-0.34584 0.39584-0.51876 0.93543-0.51875 1.6188v3.9562h-1.1562v-4.1875c-0.00001-0.67499-0.11876-1.1729-0.35625-1.4938-0.23751-0.32499-0.60417-0.48749-1.1-0.4875-0.58751 0.00001-1.0542 0.20001-1.4 0.6-0.34584 0.39584-0.51876 0.93334-0.51875 1.6125v3.9562h-1.1562v-7h1.1562v1.0875c0.26249-0.42916 0.57708-0.74582 0.94375-0.95 0.36666-0.20415 0.80208-0.30624 1.3062-0.30625 0.50833 0.00001 0.93957 0.12918 1.2938 0.3875 0.35832 0.25834 0.62291 0.63334 0.79375 1.125"/>
  <path id="path3464" style="" d="m454.12 159.01c-0.92917 0.00001-1.5729 0.10626-1.9312 0.31875-0.35834 0.21251-0.5375 0.57501-0.5375 1.0875 0 0.40834 0.13333 0.73334 0.4 0.975 0.27083 0.23751 0.6375 0.35626 1.1 0.35625 0.6375 0.00001 1.1479-0.22499 1.5312-0.675 0.38749-0.45416 0.58124-1.0562 0.58125-1.8062v-0.25625h-1.1438m2.2938-0.475v3.9938h-1.15v-1.0625c-0.26251 0.42501-0.58959 0.73959-0.98125 0.94375-0.39167 0.2-0.87084 0.3-1.4375 0.3-0.71667 0-1.2875-0.2-1.7125-0.6-0.42083-0.40416-0.63125-0.94374-0.63125-1.6188 0-0.78749 0.2625-1.3812 0.7875-1.7812 0.52916-0.39999 1.3167-0.59999 2.3625-0.6h1.6125v-0.1125c-0.00001-0.52916-0.17501-0.93749-0.525-1.225-0.34584-0.29166-0.83334-0.43749-1.4625-0.4375-0.4 0.00001-0.78959 0.0479-1.1688 0.14375-0.37917 0.0958-0.74375 0.23959-1.0938 0.43125v-1.0625c0.42083-0.16249 0.82916-0.28332 1.225-0.3625 0.39583-0.0833 0.78125-0.12499 1.1562-0.125 1.0125 0.00001 1.7687 0.26251 2.2688 0.7875 0.49999 0.52501 0.74999 1.3208 0.75 2.3875m-2.1-6.2438h1.2438l-2.0375 2.35h-0.95625l1.75-2.35"/>
  <path id="path3466" style="" d="m463.25 155.73v1.0875c-0.32501-0.16666-0.66251-0.29166-1.0125-0.375-0.35001-0.0833-0.71251-0.12499-1.0875-0.125-0.57084 0.00001-1 0.0875-1.2875 0.2625-0.28334 0.17501-0.425 0.43751-0.425 0.7875 0 0.26668 0.10208 0.47709 0.30625 0.63125 0.20416 0.15001 0.61458 0.29376 1.2312 0.43125l0.39375 0.0875c0.81666 0.17501 1.3958 0.42293 1.7375 0.74375 0.34583 0.31667 0.51874 0.76042 0.51875 1.3312-0.00001 0.65001-0.25834 1.1646-0.775 1.5438-0.51251 0.37917-1.2188 0.56875-2.1188 0.56875-0.375 0-0.76667-0.0375-1.175-0.1125-0.40417-0.0708-0.83125-0.17916-1.2812-0.325v-1.1875c0.425 0.22084 0.84375 0.38751 1.2562 0.5 0.4125 0.10834 0.82083 0.16251 1.225 0.1625 0.54166 0.00001 0.95833-0.0917 1.25-0.275 0.29166-0.18749 0.43749-0.44999 0.4375-0.7875-0.00001-0.31249-0.10626-0.55208-0.31875-0.71875-0.20834-0.16666-0.66876-0.32708-1.3812-0.48125l-0.4-0.0937c-0.7125-0.14999-1.2271-0.37916-1.5438-0.6875-0.31667-0.31249-0.475-0.73957-0.475-1.2812 0-0.65832 0.23333-1.1667 0.7-1.525 0.46666-0.35832 1.1292-0.53749 1.9875-0.5375 0.42499 0.00001 0.82499 0.0313 1.2 0.0937 0.37499 0.0625 0.72083 0.15626 1.0375 0.28125"/>
  <path id="path3468" style="" d="m468.17 156.33c-0.61667 0.00001-1.1042 0.24168-1.4625 0.725-0.35833 0.47918-0.5375 1.1375-0.5375 1.975 0 0.83751 0.17708 1.4979 0.53125 1.9812 0.35833 0.47917 0.84791 0.71876 1.4688 0.71875 0.6125 0.00001 1.0979-0.24166 1.4562-0.725 0.35833-0.48333 0.5375-1.1417 0.5375-1.975 0-0.82916-0.17917-1.4854-0.5375-1.9688-0.35834-0.48749-0.84375-0.73124-1.4562-0.73125m0-0.975c1 0.00001 1.7854 0.32501 2.3562 0.975 0.57083 0.65001 0.85624 1.55 0.85625 2.7-0.00001 1.1458-0.28542 2.0458-0.85625 2.7-0.57084 0.65-1.3562 0.975-2.3562 0.975-1.0042 0-1.7917-0.325-2.3625-0.975-0.56667-0.65416-0.85-1.5542-0.85-2.7 0-1.15 0.28333-2.05 0.85-2.7 0.57083-0.64999 1.3583-0.97499 2.3625-0.975"/>
  <path id="path3470" style="" d="m473.29 152.8h1.15v9.725h-1.15v-9.725"/>
  <path id="path3472" style="" d="m480.02 159.01c-0.92917 0.00001-1.5729 0.10626-1.9312 0.31875-0.35833 0.21251-0.5375 0.57501-0.5375 1.0875 0 0.40834 0.13333 0.73334 0.4 0.975 0.27083 0.23751 0.6375 0.35626 1.1 0.35625 0.6375 0.00001 1.1479-0.22499 1.5312-0.675 0.3875-0.45416 0.58125-1.0562 0.58125-1.8062v-0.25625h-1.1438m2.2938-0.475v3.9938h-1.15v-1.0625c-0.2625 0.42501-0.58959 0.73959-0.98125 0.94375-0.39167 0.2-0.87084 0.3-1.4375 0.3-0.71667 0-1.2875-0.2-1.7125-0.6-0.42083-0.40416-0.63125-0.94374-0.63125-1.6188 0-0.78749 0.2625-1.3812 0.7875-1.7812 0.52917-0.39999 1.3167-0.59999 2.3625-0.6h1.6125v-0.1125c0-0.52916-0.175-0.93749-0.525-1.225-0.34584-0.29166-0.83334-0.43749-1.4625-0.4375-0.4 0.00001-0.78959 0.0479-1.1688 0.14375-0.37917 0.0958-0.74375 0.23959-1.0938 0.43125v-1.0625c0.42083-0.16249 0.82917-0.28332 1.225-0.3625 0.39583-0.0833 0.78125-0.12499 1.1562-0.125 1.0125 0.00001 1.7688 0.26251 2.2688 0.7875 0.49999 0.52501 0.74999 1.3208 0.75 2.3875m-2.1-6.2438h1.2438l-2.0375 2.35h-0.95625l1.75-2.35"/>
  <path id="path3474" style="" d="m489.15 155.73v1.0875c-0.32501-0.16666-0.66251-0.29166-1.0125-0.375-0.35-0.0833-0.7125-0.12499-1.0875-0.125-0.57084 0.00001-1 0.0875-1.2875 0.2625-0.28334 0.17501-0.425 0.43751-0.425 0.7875 0 0.26668 0.10208 0.47709 0.30625 0.63125 0.20416 0.15001 0.61458 0.29376 1.2312 0.43125l0.39375 0.0875c0.81666 0.17501 1.3958 0.42293 1.7375 0.74375 0.34583 0.31667 0.51874 0.76042 0.51875 1.3312-0.00001 0.65001-0.25834 1.1646-0.775 1.5438-0.51251 0.37917-1.2188 0.56875-2.1188 0.56875-0.375 0-0.76667-0.0375-1.175-0.1125-0.40417-0.0708-0.83125-0.17916-1.2812-0.325v-1.1875c0.425 0.22084 0.84375 0.38751 1.2562 0.5 0.4125 0.10834 0.82083 0.16251 1.225 0.1625 0.54166 0.00001 0.95833-0.0917 1.25-0.275 0.29166-0.18749 0.43749-0.44999 0.4375-0.7875-0.00001-0.31249-0.10626-0.55208-0.31875-0.71875-0.20834-0.16666-0.66875-0.32708-1.3812-0.48125l-0.4-0.0937c-0.7125-0.14999-1.2271-0.37916-1.5438-0.6875-0.31667-0.31249-0.475-0.73957-0.475-1.2812 0-0.65832 0.23333-1.1667 0.7-1.525 0.46666-0.35832 1.1292-0.53749 1.9875-0.5375 0.425 0.00001 0.825 0.0313 1.2 0.0937 0.37499 0.0625 0.72083 0.15626 1.0375 0.28125"/>
  <path id="path3476" style="" d="m495.32 159.76v-4.2375h1.15v4.1938c0 0.66251 0.12916 1.1604 0.3875 1.4938 0.25833 0.32917 0.64583 0.49376 1.1625 0.49375 0.62083 0.00001 1.1104-0.19791 1.4688-0.59375 0.36249-0.39583 0.54374-0.93541 0.54375-1.6188v-3.9688h1.15v7h-1.15v-1.075c-0.27917 0.42501-0.60417 0.74167-0.975 0.95-0.36667 0.20417-0.79375 0.30625-1.2812 0.30625-0.80417 0-1.4146-0.25-1.8312-0.75-0.41667-0.49999-0.625-1.2312-0.625-2.1938m2.8938-4.4062"/>
  <path id="path3478" style="" d="m504.7 153.54v1.9875h2.3688v0.89375h-2.3688v3.8c0 0.57084 0.0771 0.93751 0.23125 1.1 0.15833 0.16251 0.47708 0.24376 0.95625 0.24375h1.1812v0.9625h-1.1812c-0.8875 0-1.5-0.16458-1.8375-0.49375-0.3375-0.33333-0.50625-0.93749-0.50625-1.8125v-3.8h-0.84375v-0.89375h0.84375v-1.9875h1.1562"/>
  <path id="path3480" style="" d="m511.77 159.01c-0.92917 0.00001-1.5729 0.10626-1.9312 0.31875-0.35833 0.21251-0.5375 0.57501-0.5375 1.0875 0 0.40834 0.13333 0.73334 0.4 0.975 0.27083 0.23751 0.6375 0.35626 1.1 0.35625 0.6375 0.00001 1.1479-0.22499 1.5312-0.675 0.3875-0.45416 0.58125-1.0562 0.58125-1.8062v-0.25625h-1.1438m2.2938-0.475v3.9938h-1.15v-1.0625c-0.2625 0.42501-0.58959 0.73959-0.98125 0.94375-0.39167 0.2-0.87084 0.3-1.4375 0.3-0.71667 0-1.2875-0.2-1.7125-0.6-0.42083-0.40416-0.63125-0.94374-0.63125-1.6188 0-0.78749 0.2625-1.3812 0.7875-1.7812 0.52917-0.39999 1.3167-0.59999 2.3625-0.6h1.6125v-0.1125c0-0.52916-0.175-0.93749-0.525-1.225-0.34584-0.29166-0.83334-0.43749-1.4625-0.4375-0.4 0.00001-0.78959 0.0479-1.1688 0.14375-0.37917 0.0958-0.74375 0.23959-1.0938 0.43125v-1.0625c0.42083-0.16249 0.82917-0.28332 1.225-0.3625 0.39583-0.0833 0.78125-0.12499 1.1562-0.125 1.0125 0.00001 1.7688 0.26251 2.2688 0.7875 0.49999 0.52501 0.74999 1.3208 0.75 2.3875m-2.1-6.2438h1.2438l-2.0375 2.35h-0.95625l1.75-2.35"/>
  <path id="path3482" style="" d="m522.26 158.3v4.225h-1.15v-4.1875c-0.00001-0.66249-0.12917-1.1583-0.3875-1.4875-0.25834-0.32916-0.64584-0.49374-1.1625-0.49375-0.62084 0.00001-1.1104 0.19793-1.4688 0.59375-0.35834 0.39584-0.5375 0.93543-0.5375 1.6188v3.9562h-1.1562v-7h1.1562v1.0875c0.275-0.42082 0.59791-0.73541 0.96875-0.94375 0.375-0.20832 0.80625-0.31249 1.2938-0.3125 0.80416 0.00001 1.4125 0.25001 1.825 0.75 0.41249 0.49584 0.61874 1.2271 0.61875 2.1938"/>
  <path id="path3484" style="" d="m524.38 152.81h1c0.625 0.98335 1.0917 1.9458 1.4 2.8875 0.3125 0.94168 0.46875 1.8771 0.46875 2.8062 0 0.93334-0.15625 1.8729-0.46875 2.8188-0.30834 0.94584-0.775 1.9083-1.4 2.8875h-1c0.55416-0.95416 0.96666-1.9021 1.2375-2.8438 0.275-0.94583 0.4125-1.9 0.4125-2.8625 0-0.96249-0.1375-1.9125-0.4125-2.85-0.27084-0.93749-0.68334-1.8854-1.2375-2.8438"/>
 </g>
 <g id="text298">
  <path id="path3487" style="" d="m430.17 183.43c-0.92917 0-1.5729 0.10625-1.9312 0.31875-0.35834 0.2125-0.5375 0.575-0.5375 1.0875 0 0.40833 0.13333 0.73333 0.4 0.975 0.27083 0.2375 0.63749 0.35625 1.1 0.35625 0.63749 0 1.1479-0.225 1.5312-0.675 0.38749-0.45417 0.58124-1.0562 0.58125-1.8062v-0.25625h-1.1438m2.2938-0.475v3.9938h-1.15v-1.0625c-0.26251 0.425-0.58959 0.73958-0.98125 0.94375-0.39167 0.2-0.87084 0.3-1.4375 0.3-0.71667 0-1.2875-0.2-1.7125-0.6-0.42084-0.40417-0.63125-0.94375-0.63125-1.6188 0-0.7875 0.2625-1.3812 0.7875-1.7812 0.52916-0.4 1.3167-0.6 2.3625-0.6h1.6125v-0.1125c-0.00001-0.52916-0.17501-0.9375-0.525-1.225-0.34584-0.29166-0.83334-0.4375-1.4625-0.4375-0.40001 0-0.78959 0.0479-1.1688 0.14375-0.37917 0.0958-0.74375 0.23959-1.0938 0.43125v-1.0625c0.42083-0.1625 0.82916-0.28333 1.225-0.3625 0.39583-0.0833 0.78124-0.125 1.1562-0.125 1.0125 0 1.7687 0.2625 2.2688 0.7875 0.49999 0.525 0.74999 1.3208 0.75 2.3875"/>
 </g>
 <g id="text302">
  <path id="path3490" style="" d="m449.14 177.23h1.15v9.725h-1.15v-9.725"/>
 </g>
 <g id="text306">
  <path id="path3493" style="" d="m470.12 181.29c0.28749-0.51666 0.63124-0.89791 1.0312-1.1438 0.39999-0.24583 0.87082-0.36875 1.4125-0.36875 0.72915 0 1.2916 0.25625 1.6875 0.76875 0.39582 0.50834 0.59374 1.2333 0.59375 2.175v4.225h-1.1562v-4.1875c-0.00001-0.67083-0.11876-1.1688-0.35625-1.4938-0.23751-0.325-0.60001-0.4875-1.0875-0.4875-0.59584 0-1.0667 0.19792-1.4125 0.59375-0.34584 0.39584-0.51876 0.93542-0.51875 1.6188v3.9562h-1.1562v-4.1875c-0.00001-0.675-0.11876-1.1729-0.35625-1.4938-0.23751-0.325-0.60417-0.4875-1.1-0.4875-0.58751 0-1.0542 0.2-1.4 0.6-0.34584 0.39584-0.51875 0.93334-0.51875 1.6125v3.9562h-1.1562v-7h1.1562v1.0875c0.2625-0.42916 0.57708-0.74583 0.94375-0.95 0.36666-0.20416 0.80208-0.30625 1.3062-0.30625 0.50833 0 0.93958 0.12917 1.2938 0.3875 0.35832 0.25834 0.62291 0.63334 0.79375 1.125"/>
 </g>
 <g id="text310">
  <path id="path3496" style="" d="m490.17 183.43c-0.92917 0-1.5729 0.10625-1.9312 0.31875-0.35834 0.2125-0.5375 0.575-0.5375 1.0875 0 0.40833 0.13333 0.73333 0.4 0.975 0.27083 0.2375 0.63749 0.35625 1.1 0.35625 0.63749 0 1.1479-0.225 1.5312-0.675 0.38749-0.45417 0.58124-1.0562 0.58125-1.8062v-0.25625h-1.1438m2.2938-0.475v3.9938h-1.15v-1.0625c-0.26251 0.425-0.58959 0.73958-0.98125 0.94375-0.39167 0.2-0.87084 0.3-1.4375 0.3-0.71667 0-1.2875-0.2-1.7125-0.6-0.42084-0.40417-0.63125-0.94375-0.63125-1.6188 0-0.7875 0.2625-1.3812 0.7875-1.7812 0.52916-0.4 1.3167-0.6 2.3625-0.6h1.6125v-0.1125c-0.00001-0.52916-0.17501-0.9375-0.525-1.225-0.34584-0.29166-0.83334-0.4375-1.4625-0.4375-0.40001 0-0.78959 0.0479-1.1688 0.14375-0.37917 0.0958-0.74375 0.23959-1.0938 0.43125v-1.0625c0.42083-0.1625 0.82916-0.28333 1.225-0.3625 0.39583-0.0833 0.78124-0.125 1.1562-0.125 1.0125 0 1.7687 0.2625 2.2688 0.7875 0.49999 0.525 0.74999 1.3208 0.75 2.3875"/>
 </g>
 <g id="text314">
  <path id="path3499" style="" d="m544.53 177.62 3.25 10.519h-1.0625l-3.25-10.519h1.0625"/>
  <path id="path3501" style="" d="m551.86 178.45c-0.65001 0.00001-1.1396 0.32084-1.4688 0.9625-0.325 0.6375-0.4875 1.5979-0.4875 2.8812 0 1.2792 0.1625 2.2396 0.4875 2.8812 0.32916 0.6375 0.81874 0.95625 1.4688 0.95625 0.65416 0 1.1437-0.31875 1.4688-0.95625 0.32916-0.64167 0.49374-1.6021 0.49375-2.8812-0.00001-1.2833-0.16459-2.2438-0.49375-2.8812-0.32501-0.64166-0.81459-0.96249-1.4688-0.9625m0-1c1.0458 0.00001 1.8437 0.41459 2.3938 1.2438 0.55416 0.82501 0.83124 2.025 0.83125 3.6-0.00001 1.5708-0.27709 2.7708-0.83125 3.6-0.55001 0.825-1.3479 1.2375-2.3938 1.2375-1.0458 0-1.8458-0.4125-2.4-1.2375-0.55-0.82917-0.825-2.0292-0.825-3.6 0-1.575 0.275-2.775 0.825-3.6 0.55416-0.82916 1.3542-1.2437 2.4-1.2438"/>
 </g>
 <g id="g318" transform="translate(-.29376 -7.4747)">
  <path id="rect320" fill="#fff" d="m500 180h20v20h-20z"/>
  <path id="rect322" d="m500 180h20v20h-20z" stroke="#000" stroke-width="2" fill="none"/>
 </g>
 <g id="text324">
  <path id="path3506" style="" d="m509.14 177.23h1.15v9.725h-1.15v-9.725"/>
 </g>
 <g id="g328" transform="translate(-.29376 -7.4747)">
  <path id="rect330" fill="#a3bbcc" d="m540 70h20v20h-20z"/>
  <path id="rect332" d="m540 70h20v20h-20z" stroke="#000" stroke-width="2" fill="none"/>
 </g>
 <g id="g334" transform="translate(-.29376 -7.4747)">
  <path id="rect336" fill="#a3bbcc" d="m560 70h20v20h-20z"/>
  <path id="rect338" d="m560 70h20v20h-20z" stroke="#000" stroke-width="2" fill="none"/>
 </g>
 <g id="g340" transform="translate(-.29376 -7.4747)">
  <path id="rect342" fill="#a3bbcc" d="m580 70h20v20h-20z"/>
  <path id="rect344" d="m580 70h20v20h-20z" stroke="#000" stroke-width="2" fill="none"/>
 </g>
 <g id="g346" transform="translate(-.29376 -7.4747)">
  <path id="rect348" fill="#fff" d="m520 180h20v20h-20z"/>
  <path id="rect350" d="m520 180h20v20h-20z" stroke="#000" stroke-width="2" fill="none"/>
 </g>
 <g id="text352">
  <path id="path3517" style="" d="m532.96 183.16v0.5625h-5.2875c0.05 0.79167 0.2875 1.3958 0.7125 1.8125 0.42916 0.4125 1.025 0.61875 1.7875 0.61875 0.44166 0 0.86874-0.0542 1.2812-0.1625 0.41666-0.10833 0.82916-0.27083 1.2375-0.4875v1.0875c-0.41251 0.175-0.83542 0.30833-1.2688 0.4-0.43334 0.0917-0.87292 0.1375-1.3188 0.1375-1.1167 0-2.0021-0.325-2.6562-0.975-0.65-0.65-0.975-1.5292-0.975-2.6375 0-1.1458 0.30833-2.0542 0.925-2.725 0.62083-0.675 1.4562-1.0125 2.5062-1.0125 0.94166 0 1.6854 0.30417 2.2312 0.9125 0.54999 0.60417 0.82499 1.4271 0.825 2.4688m-1.15-0.3375c-0.008-0.62916-0.18542-1.1312-0.53125-1.5062-0.34167-0.375-0.79584-0.5625-1.3625-0.5625-0.64167 0-1.1563 0.18125-1.5438 0.54375-0.38334 0.3625-0.60417 0.87292-0.6625 1.5312l4.1-0.006"/>
 </g>
 <g id="g356" transform="translate(-.29376 -7.4747)">
  <path id="rect358" fill="#a3bbcc" d="m560 180h20v20h-20z"/>
  <path id="rect360" d="m560 180h20v20h-20z" stroke="#000" stroke-width="2" fill="none"/>
 </g>
 <g id="g362" transform="translate(-.29376 -7.4747)">
  <path id="rect364" fill="#a3bbcc" d="m580 180h20v20h-20z"/>
  <path id="rect366" d="m580 180h20v20h-20z" stroke="#000" stroke-width="2" fill="none"/>
 </g>
 <g id="text368">
  <path id="path3524" style="" d="m260.16 195.67c-0.39393 0.67616-0.68645 1.345-0.87753 2.0064-0.19109 0.66146-0.28663 1.3317-0.28663 2.0108s0.0955 1.3523 0.28663 2.0197c0.19402 0.66439 0.48654 1.3332 0.87753 2.0064h-0.70555c-0.44098-0.69086-0.7717-1.37-0.99219-2.0373-0.21755-0.66734-0.32632-1.3303-0.32632-1.9888 0-0.65557 0.10877-1.3156 0.32632-1.98 0.21755-0.66439 0.54827-1.3435 0.99219-2.0373h0.70555"/>
  <path id="path3526" style="" d="m265.84 199.54v2.981h-0.81138v-2.9545c-0.00001-0.46743-0.0911-0.81726-0.27341-1.0495-0.18227-0.23224-0.45567-0.34837-0.82021-0.34837-0.43803 0-0.78346 0.13965-1.0363 0.41892-0.25283 0.27929-0.37924 0.65999-0.37924 1.1421v2.7914h-0.81579v-4.9389h0.81579v0.76729c0.19403-0.29692 0.42187-0.51887 0.68351-0.66587 0.26458-0.14699 0.56885-0.22048 0.91281-0.22049 0.56738 0.00001 0.9966 0.1764 1.2876 0.52917 0.29104 0.34984 0.43656 0.86578 0.43656 1.5478"/>
  <path id="path3528" style="" d="m271.69 199.85v0.39688h-3.7306c0.0353 0.55856 0.20285 0.98484 0.50271 1.2788 0.3028 0.29104 0.72319 0.43656 1.2612 0.43656 0.31162 0 0.61295-0.0382 0.90399-0.11465 0.29398-0.0764 0.58502-0.19109 0.87313-0.34396v0.76729c-0.29105 0.12347-0.58944 0.21755-0.89518 0.28222-0.30574 0.0647-0.61589 0.097-0.93045 0.097-0.78787 0-1.4126-0.22931-1.8741-0.68792-0.45861-0.45861-0.68792-1.0789-0.68792-1.8609 0-0.80845 0.21755-1.4493 0.65264-1.9226 0.43803-0.47625 1.0275-0.71437 1.7683-0.71438 0.6644 0.00001 1.1892 0.21462 1.5743 0.64382 0.38805 0.42628 0.58208 1.0069 0.58208 1.7418m-0.81138-0.23812c-0.006-0.44391-0.13083-0.79816-0.37483-1.0627-0.24107-0.26458-0.56151-0.39687-0.96132-0.39688-0.45273 0.00001-0.8158 0.12789-1.0892 0.38365-0.27047 0.25576-0.42628 0.61589-0.46743 1.0804l2.8928-0.004"/>
  <path id="path3530" style="" d="m276.87 198.53c0.20284-0.36454 0.44537-0.63353 0.7276-0.80698 0.28222-0.17345 0.61442-0.26017 0.9966-0.26018 0.51446 0.00001 0.91133 0.18081 1.1906 0.5424 0.27928 0.35866 0.41892 0.87019 0.41893 1.5346v2.981h-0.8158v-2.9545c-0.00001-0.47331-0.0838-0.82461-0.25136-1.0539-0.16757-0.2293-0.42334-0.34396-0.76729-0.34396-0.4204 0-0.7526 0.13965-0.99659 0.41892-0.24401 0.27929-0.36602 0.65999-0.36601 1.1421v2.7914h-0.8158v-2.9545c0-0.47625-0.0838-0.82755-0.25135-1.0539-0.16758-0.2293-0.42628-0.34396-0.77611-0.34396-0.41452 0-0.74378 0.14111-0.98778 0.42333-0.24401 0.27929-0.36601 0.65852-0.36601 1.1377v2.7914h-0.8158v-4.9389h0.8158v0.76729c0.18521-0.3028 0.40716-0.52622 0.66587-0.67028 0.2587-0.14405 0.56591-0.21607 0.92163-0.21608 0.35865 0.00001 0.66292 0.0911 0.91281 0.27341 0.25282 0.18227 0.4395 0.44685 0.56004 0.79375"/>
  <path id="path3532" style="" d="m287.2 195.66v0.67469h-0.77612c-0.29104 0-0.49389 0.0588-0.60854 0.17638-0.11171 0.1176-0.16757 0.32927-0.16757 0.635v0.43657h1.3362v0.63059h-1.3362v4.3083h-0.8158v-4.3083h-0.77611v-0.63059h0.77611v-0.34396c0-0.54974 0.12789-0.94956 0.38365-1.1994 0.25576-0.25281 0.66146-0.37923 1.2171-0.37923h0.7673"/>
  <path id="path3534" style="" d="m292.1 199.85v0.39688h-3.7306c0.0353 0.55856 0.20285 0.98484 0.50271 1.2788 0.3028 0.29104 0.72319 0.43656 1.2612 0.43656 0.31162 0 0.61295-0.0382 0.90399-0.11465 0.29398-0.0764 0.58502-0.19109 0.87313-0.34396v0.76729c-0.29105 0.12347-0.58944 0.21755-0.89518 0.28222-0.30574 0.0647-0.61589 0.097-0.93045 0.097-0.78787 0-1.4126-0.22931-1.8741-0.68792-0.45861-0.45861-0.68792-1.0789-0.68792-1.8609 0-0.80845 0.21755-1.4493 0.65264-1.9226 0.43803-0.47625 1.0275-0.71437 1.7683-0.71438 0.6644 0.00001 1.1892 0.21462 1.5743 0.64382 0.38805 0.42628 0.58208 1.0069 0.58209 1.7418m-0.81139-0.23812c-0.006-0.44391-0.13083-0.79816-0.37483-1.0627-0.24107-0.26458-0.56151-0.39687-0.96132-0.39688-0.45273 0.00001-0.8158 0.12789-1.0892 0.38365-0.27046 0.25576-0.42627 0.61589-0.46743 1.0804l2.8928-0.004m-0.78052-4.3127h0.87753l-1.4376 1.6581h-0.67469l1.2347-1.6581"/>
  <path id="path3536" style="" d="m296.29 198.34c-0.0911-0.0529-0.19109-0.0911-0.29986-0.11465-0.10583-0.0265-0.22343-0.0397-0.35278-0.0397-0.45861 0-0.81139 0.14993-1.0583 0.44979-0.24401 0.29692-0.36601 0.72467-0.36601 1.2832v2.6017h-0.81579v-4.9389h0.81579v0.76729c0.17051-0.29986 0.39247-0.52181 0.66587-0.66587 0.2734-0.14699 0.6056-0.22048 0.9966-0.22049 0.0559 0.00001 0.11759 0.004 0.18521 0.0132 0.0676 0.006 0.14257 0.0162 0.22489 0.0309l0.004 0.83344"/>
  <path id="path3538" style="" d="m303.57 200.06c0-0.59678-0.12347-1.0642-0.37041-1.4023-0.24401-0.34102-0.58062-0.51152-1.0098-0.51153-0.42922 0.00001-0.76729 0.17051-1.0142 0.51153-0.244 0.33808-0.366 0.80551-0.366 1.4023 0 0.59678 0.122 1.0657 0.366 1.4067 0.24695 0.33808 0.58502 0.50712 1.0142 0.50712 0.42921 0 0.76582-0.16904 1.0098-0.50712 0.24694-0.34102 0.37041-0.80992 0.37041-1.4067m-2.7605-1.7242c0.1705-0.29398 0.38511-0.51152 0.64382-0.65264 0.26164-0.14405 0.57326-0.21607 0.93486-0.21608 0.59972 0.00001 1.0862 0.23813 1.4596 0.71438 0.37629 0.47625 0.56443 1.1024 0.56444 1.8785-0.00001 0.77611-0.18815 1.4023-0.56444 1.8785-0.37337 0.47625-0.8599 0.71438-1.4596 0.71438-0.3616 0-0.67322-0.0706-0.93486-0.21167-0.25871-0.14405-0.47332-0.36307-0.64382-0.65705v0.74083h-0.8158v-6.8615h0.8158v2.6723"/>
  <path id="path3540" style="" d="m309.99 199.85v0.39688h-3.7306c0.0353 0.55856 0.20285 0.98484 0.50271 1.2788 0.3028 0.29104 0.72319 0.43656 1.2612 0.43656 0.31162 0 0.61295-0.0382 0.90399-0.11465 0.29398-0.0764 0.58502-0.19109 0.87313-0.34396v0.76729c-0.29105 0.12347-0.58944 0.21755-0.89518 0.28222-0.30574 0.0647-0.61589 0.097-0.93045 0.097-0.78787 0-1.4126-0.22931-1.8741-0.68792-0.45861-0.45861-0.68792-1.0789-0.68792-1.8609 0-0.80845 0.21755-1.4493 0.65264-1.9226 0.43803-0.47625 1.0275-0.71437 1.7683-0.71438 0.6644 0.00001 1.1892 0.21462 1.5743 0.64382 0.38805 0.42628 0.58208 1.0069 0.58209 1.7418m-0.81139-0.23812c-0.006-0.44391-0.13083-0.79816-0.37483-1.0627-0.24107-0.26458-0.56151-0.39687-0.96132-0.39688-0.45273 0.00001-0.8158 0.12789-1.0892 0.38365-0.27046 0.25576-0.42627 0.61589-0.46743 1.0804l2.8928-0.004"/>
  <path id="path3542" style="" d="m311.32 195.66h0.81139v6.8615h-0.81139v-6.8615"/>
  <path id="path3544" style="" d="m318.05 199.85v0.39688h-3.7306c0.0353 0.55856 0.20284 0.98484 0.5027 1.2788 0.3028 0.29104 0.7232 0.43656 1.2612 0.43656 0.31162 0 0.61295-0.0382 0.904-0.11465 0.29397-0.0764 0.58502-0.19109 0.87312-0.34396v0.76729c-0.29104 0.12347-0.58944 0.21755-0.89517 0.28222-0.30575 0.0647-0.6159 0.097-0.93045 0.097-0.78788 0-1.4126-0.22931-1.8741-0.68792-0.45862-0.45861-0.68792-1.0789-0.68792-1.8609 0-0.80845 0.21754-1.4493 0.65264-1.9226 0.43803-0.47625 1.0275-0.71437 1.7683-0.71438 0.66439 0.00001 1.1892 0.21462 1.5743 0.64382 0.38805 0.42628 0.58207 1.0069 0.58208 1.7418m-0.81139-0.23812c-0.006-0.44391-0.13083-0.79816-0.37483-1.0627-0.24106-0.26458-0.5615-0.39687-0.96131-0.39688-0.45274 0.00001-0.81581 0.12789-1.0892 0.38365-0.27046 0.25576-0.42627 0.61589-0.46743 1.0804l2.8928-0.004"/>
  <path id="path3546" style="" d="m319.25 195.67h0.70556c0.44097 0.6938 0.77023 1.3729 0.98778 2.0373 0.22048 0.6644 0.33072 1.3244 0.33072 1.98 0 0.65852-0.11024 1.3214-0.33072 1.9888-0.21755 0.66734-0.54681 1.3464-0.98778 2.0373h-0.70556c0.391-0.67322 0.68204-1.342 0.87313-2.0064 0.19402-0.66734 0.29104-1.3406 0.29104-2.0197 0-0.67909-0.097-1.3494-0.29104-2.0108-0.19109-0.66145-0.48213-1.3303-0.87313-2.0064"/>
 </g>
 <g id="text372">
  <path id="path3549" style="" d="m493.08 195.67c-0.39394 0.67616-0.68645 1.345-0.87754 2.0064-0.19109 0.66146-0.28663 1.3317-0.28663 2.0108s0.0955 1.3523 0.28663 2.0197c0.19403 0.66439 0.48654 1.3332 0.87754 2.0064h-0.70556c-0.44097-0.69086-0.7717-1.37-0.99219-2.0373-0.21754-0.66734-0.32632-1.3303-0.32631-1.9888-0.00001-0.65557 0.10877-1.3156 0.32631-1.98 0.21755-0.66439 0.54828-1.3435 0.99219-2.0373h0.70556"/>
  <path id="path3551" style="" d="m498.2 200.06c0-0.59678-0.12347-1.0642-0.37041-1.4023-0.24401-0.34102-0.58062-0.51152-1.0098-0.51153-0.42921 0.00001-0.76729 0.17051-1.0142 0.51153-0.24401 0.33808-0.36601 0.80551-0.36601 1.4023 0 0.59678 0.122 1.0657 0.36601 1.4067 0.24694 0.33808 0.58502 0.50712 1.0142 0.50712 0.42921 0 0.76582-0.16904 1.0098-0.50712 0.24694-0.34102 0.37041-0.80992 0.37041-1.4067m-2.7605-1.7242c0.17051-0.29398 0.38511-0.51152 0.64382-0.65264 0.26164-0.14405 0.57326-0.21607 0.93486-0.21608 0.59972 0.00001 1.0863 0.23813 1.4596 0.71438 0.37629 0.47625 0.56444 1.1024 0.56444 1.8785 0 0.77611-0.18815 1.4023-0.56444 1.8785-0.37336 0.47625-0.8599 0.71438-1.4596 0.71438-0.3616 0-0.67322-0.0706-0.93486-0.21167-0.25871-0.14405-0.47331-0.36307-0.64382-0.65705v0.74083h-0.8158v-6.8615h0.8158v2.6723"/>
  <path id="path3553" style="" d="m504.61 199.85v0.39688h-3.7306c0.0353 0.55856 0.20285 0.98484 0.50271 1.2788 0.3028 0.29104 0.72319 0.43656 1.2612 0.43656 0.31162 0 0.61295-0.0382 0.904-0.11465 0.29397-0.0764 0.58501-0.19109 0.87312-0.34396v0.76729c-0.29105 0.12347-0.58944 0.21755-0.89517 0.28222-0.30575 0.0647-0.6159 0.097-0.93045 0.097-0.78788 0-1.4126-0.22931-1.8741-0.68792-0.45861-0.45861-0.68791-1.0789-0.68791-1.8609 0-0.80845 0.21754-1.4493 0.65264-1.9226 0.43803-0.47625 1.0275-0.71437 1.7683-0.71438 0.66439 0.00001 1.1892 0.21462 1.5743 0.64382 0.38805 0.42628 0.58207 1.0069 0.58208 1.7418m-0.81139-0.23812c-0.006-0.44391-0.13083-0.79816-0.37483-1.0627-0.24106-0.26458-0.5615-0.39687-0.96132-0.39688-0.45273 0.00001-0.8158 0.12789-1.0892 0.38365-0.27046 0.25576-0.42627 0.61589-0.46743 1.0804l2.8928-0.004"/>
  <path id="path3555" style="" d="m505.94 195.66h0.81139v6.8615h-0.81139v-6.8615"/>
  <path id="path3557" style="" d="m512.67 199.85v0.39688h-3.7306c0.0353 0.55856 0.20284 0.98484 0.5027 1.2788 0.3028 0.29104 0.7232 0.43656 1.2612 0.43656 0.31162 0 0.61295-0.0382 0.904-0.11465 0.29397-0.0764 0.58502-0.19109 0.87312-0.34396v0.76729c-0.29104 0.12347-0.58943 0.21755-0.89517 0.28222-0.30575 0.0647-0.6159 0.097-0.93045 0.097-0.78787 0-1.4126-0.22931-1.8741-0.68792-0.45862-0.45861-0.68792-1.0789-0.68792-1.8609 0-0.80845 0.21754-1.4493 0.65264-1.9226 0.43803-0.47625 1.0275-0.71437 1.7683-0.71438 0.66439 0.00001 1.1892 0.21462 1.5743 0.64382 0.38805 0.42628 0.58208 1.0069 0.58208 1.7418m-0.81139-0.23812c-0.006-0.44391-0.13082-0.79816-0.37482-1.0627-0.24107-0.26458-0.56151-0.39687-0.96132-0.39688-0.45274 0.00001-0.8158 0.12789-1.0892 0.38365-0.27046 0.25576-0.42627 0.61589-0.46743 1.0804l2.8928-0.004"/>
  <path id="path3559" style="" d="m516.51 195.66v0.67469h-0.77611c-0.29105 0-0.49389 0.0588-0.60854 0.17638-0.11172 0.1176-0.16757 0.32927-0.16757 0.635v0.43657h1.3361v0.63059h-1.3361v4.3083h-0.8158v-4.3083h-0.77611v-0.63059h0.77611v-0.34396c0-0.54974 0.12788-0.94956 0.38364-1.1994 0.25577-0.25281 0.66146-0.37923 1.2171-0.37923h0.76729"/>
  <path id="path3561" style="" d="m521.41 199.85v0.39688h-3.7306c0.0353 0.55856 0.20285 0.98484 0.50271 1.2788 0.3028 0.29104 0.72319 0.43656 1.2612 0.43656 0.31162 0 0.61295-0.0382 0.904-0.11465 0.29397-0.0764 0.58501-0.19109 0.87312-0.34396v0.76729c-0.29105 0.12347-0.58944 0.21755-0.89517 0.28222-0.30575 0.0647-0.6159 0.097-0.93045 0.097-0.78788 0-1.4126-0.22931-1.8741-0.68792-0.45861-0.45861-0.68791-1.0789-0.68791-1.8609 0-0.80845 0.21754-1.4493 0.65264-1.9226 0.43803-0.47625 1.0275-0.71437 1.7683-0.71438 0.66439 0.00001 1.1892 0.21462 1.5743 0.64382 0.38805 0.42628 0.58207 1.0069 0.58208 1.7418m-0.81139-0.23812c-0.006-0.44391-0.13083-0.79816-0.37483-1.0627-0.24106-0.26458-0.5615-0.39687-0.96132-0.39688-0.45273 0.00001-0.8158 0.12789-1.0892 0.38365-0.27046 0.25576-0.42627 0.61589-0.46743 1.0804l2.8928-0.004m-0.78052-4.3127h0.87753l-1.4376 1.6581h-0.67469l1.2347-1.6581"/>
  <path id="path3563" style="" d="m525.6 198.34c-0.0911-0.0529-0.19109-0.0911-0.29986-0.11465-0.10583-0.0265-0.22343-0.0397-0.35278-0.0397-0.45861 0-0.81139 0.14993-1.0583 0.44979-0.24401 0.29692-0.36601 0.72467-0.36601 1.2832v2.6017h-0.81579v-4.9389h0.81579v0.76729c0.17051-0.29986 0.39247-0.52181 0.66587-0.66587 0.2734-0.14699 0.6056-0.22048 0.9966-0.22049 0.0559 0.00001 0.11759 0.004 0.18521 0.0132 0.0676 0.006 0.14257 0.0162 0.22489 0.0309l0.004 0.83344"/>
  <path id="path3565" style="" d="m526.33 195.67h0.70555c0.44097 0.6938 0.77023 1.3729 0.98778 2.0373 0.22048 0.6644 0.33073 1.3244 0.33073 1.98 0 0.65852-0.11025 1.3214-0.33073 1.9888-0.21755 0.66734-0.54681 1.3464-0.98778 2.0373h-0.70555c0.39099-0.67322 0.68203-1.342 0.87312-2.0064 0.19403-0.66734 0.29104-1.3406 0.29104-2.0197 0-0.67909-0.097-1.3494-0.29104-2.0108-0.19109-0.66145-0.48213-1.3303-0.87312-2.0064"/>
 </g>
 <g id="text376">
  <path id="path3568" style="" d="m314.1 88.535c0.20284-0.36453 0.44537-0.63353 0.7276-0.80698 0.28222-0.17344 0.61441-0.26017 0.9966-0.26017 0.51446 0.000005 0.91133 0.1808 1.1906 0.5424 0.27928 0.35866 0.41892 0.87019 0.41893 1.5346v2.981h-0.8158v-2.9545c-0.00001-0.47331-0.0838-0.82461-0.25136-1.0539-0.16757-0.2293-0.42334-0.34395-0.76729-0.34396-0.4204 0.000004-0.7526 0.13964-0.9966 0.41892-0.24401 0.27929-0.36601 0.65999-0.366 1.1421v2.7914h-0.8158v-2.9545c-0.00001-0.47625-0.0838-0.82755-0.25136-1.0539-0.16757-0.2293-0.42627-0.34395-0.77611-0.34396-0.41451 0.000004-0.74377 0.14112-0.98777 0.42333-0.24401 0.27929-0.36601 0.65852-0.36601 1.1377v2.7914h-0.8158v-4.9389h0.8158v0.76729c0.18521-0.3028 0.40716-0.52622 0.66587-0.67028 0.2587-0.14405 0.56591-0.21607 0.92163-0.21608 0.35865 0.000005 0.66292 0.09114 0.91281 0.2734 0.25282 0.18227 0.4395 0.44686 0.56004 0.79375"/>
  <path id="path3570" style="" d="m323.28 89.853v0.39688h-3.7306c0.0353 0.55857 0.20285 0.98484 0.50271 1.2788 0.3028 0.29104 0.72319 0.43656 1.2612 0.43656 0.31162 0.000001 0.61295-0.03822 0.90399-0.11465 0.29398-0.07643 0.58502-0.19109 0.87313-0.34396v0.76729c-0.29105 0.12347-0.58944 0.21755-0.89518 0.28222-0.30574 0.06468-0.61589 0.09701-0.93045 0.09701-0.78787 0-1.4126-0.22931-1.8741-0.68792-0.45861-0.45861-0.68792-1.0789-0.68791-1.8609-0.00001-0.80845 0.21754-1.4493 0.65263-1.9226 0.43803-0.47624 1.0275-0.71437 1.7683-0.71438 0.6644 0.000005 1.1892 0.21461 1.5743 0.64382 0.38805 0.42628 0.58208 1.0069 0.58209 1.7418m-0.81139-0.23812c-0.006-0.44391-0.13083-0.79816-0.37483-1.0627-0.24107-0.26458-0.56151-0.39687-0.96132-0.39688-0.45273 0.000004-0.8158 0.12789-1.0892 0.38365-0.27046 0.25577-0.42627 0.61589-0.46743 1.0804l2.8928-0.0044"/>
  <path id="path3572" style="" d="m327.48 88.345c-0.0911-0.05291-0.19109-0.09113-0.29986-0.11465-0.10584-0.02645-0.22343-0.03968-0.35278-0.03969-0.45861 0.000004-0.81139 0.14993-1.0583 0.44979-0.24401 0.29692-0.36601 0.72467-0.36601 1.2832v2.6017h-0.8158v-4.9389h0.8158v0.76729c0.17051-0.29986 0.39247-0.52181 0.66587-0.66587 0.2734-0.14698 0.6056-0.22048 0.9966-0.22049 0.0559 0.000005 0.11759 0.0044 0.18521 0.01323 0.0676 0.0059 0.14257 0.01617 0.22489 0.03087l0.004 0.83344"/>
  <path id="path3574" style="" d="m332.36 89.853v0.39688h-3.7306c0.0353 0.55857 0.20284 0.98484 0.50271 1.2788 0.3028 0.29104 0.72319 0.43656 1.2612 0.43656 0.31161 0.000001 0.61295-0.03822 0.90399-0.11465 0.29398-0.07643 0.58502-0.19109 0.87313-0.34396v0.76729c-0.29105 0.12347-0.58944 0.21755-0.89518 0.28222-0.30574 0.06468-0.61589 0.09701-0.93045 0.09701-0.78787 0-1.4126-0.22931-1.8741-0.68792-0.45861-0.45861-0.68792-1.0789-0.68792-1.8609 0-0.80845 0.21755-1.4493 0.65264-1.9226 0.43803-0.47624 1.0275-0.71437 1.7683-0.71438 0.66439 0.000005 1.1892 0.21461 1.5743 0.64382 0.38805 0.42628 0.58208 1.0069 0.58208 1.7418m-0.81138-0.23812c-0.006-0.44391-0.13083-0.79816-0.37483-1.0627-0.24107-0.26458-0.56151-0.39687-0.96132-0.39688-0.45273 0.000004-0.8158 0.12789-1.0892 0.38365-0.27047 0.25577-0.42628 0.61589-0.46743 1.0804l2.8928-0.0044"/>
  <path id="path3576" style="" d="m334.5 86.184v1.4023h1.6713v0.63059h-1.6713v2.6811c0 0.40276 0.0544 0.66146 0.16316 0.77611 0.11171 0.11465 0.3366 0.17198 0.67468 0.17198h0.83344v0.6791h-0.83344c-0.62618 0-1.0583-0.11612-1.2964-0.34837-0.23813-0.23518-0.35719-0.66146-0.35719-1.2788v-2.6811h-0.59531v-0.63059h0.59531v-1.4023h0.8158"/>
  <path id="path3578" style="" d="m337.35 88.424h5.6533v0.74083h-5.6533v-0.74083m0 1.7992h5.6533v0.74965h-5.6533v-0.74965"/>
  <path id="path3580" style="" d="m346.94 88.879c-0.39981 0.000004-0.71731 0.1367-0.95249 0.4101-0.23225 0.27341-0.34837 0.64823-0.34837 1.1245 0 0.47331 0.11612 0.84814 0.34837 1.1245 0.23518 0.2734 0.55268 0.4101 0.95249 0.4101 0.39982 0.000001 0.71585-0.1367 0.9481-0.4101 0.23518-0.27634 0.35277-0.65117 0.35277-1.1245 0-0.47625-0.11759-0.85107-0.35277-1.1245-0.23225-0.2734-0.54828-0.4101-0.9481-0.4101m1.7683-2.7914v0.81139c-0.22343-0.10583-0.44979-0.18667-0.67909-0.24254-0.22637-0.05585-0.45127-0.08378-0.67469-0.08378-0.58797 0.000006-1.0378 0.19844-1.3494 0.59531-0.30868 0.39688-0.48507 0.9966-0.52916 1.7992 0.17344-0.25576 0.39099-0.45126 0.65264-0.58649 0.26164-0.13817 0.54974-0.20725 0.8643-0.20726 0.66146 0.000004 1.1833 0.20138 1.5654 0.60413 0.38511 0.39982 0.57767 0.94515 0.57768 1.636-0.00001 0.67616-0.19992 1.2186-0.59973 1.6272-0.39981 0.40864-0.93192 0.61295-1.5963 0.61295-0.76141 0-1.3435-0.29104-1.7462-0.87312-0.40276-0.58502-0.60414-1.4317-0.60414-2.54 0-1.0407 0.24695-1.8697 0.74084-2.4871 0.49388-0.62029 1.1568-0.93044 1.9888-0.93045 0.22342 0.000007 0.44832 0.02205 0.67469 0.06615 0.2293 0.0441 0.46742 0.11025 0.71437 0.19844"/>
 </g>
 <g id="text380">
  <path id="path3583" style="" d="m564.1 88.535c0.20284-0.36453 0.44537-0.63353 0.7276-0.80698 0.28222-0.17344 0.61441-0.26017 0.9966-0.26017 0.51446 0.000005 0.91133 0.1808 1.1906 0.5424 0.27928 0.35866 0.41892 0.87019 0.41893 1.5346v2.981h-0.8158v-2.9545c-0.00001-0.47331-0.0838-0.82461-0.25136-1.0539-0.16757-0.2293-0.42334-0.34395-0.76729-0.34396-0.4204 0.000004-0.7526 0.13964-0.9966 0.41892-0.24401 0.27929-0.36601 0.65999-0.366 1.1421v2.7914h-0.8158v-2.9545c-0.00001-0.47625-0.0838-0.82755-0.25136-1.0539-0.16757-0.2293-0.42627-0.34395-0.77611-0.34396-0.41451 0.000004-0.74377 0.14112-0.98777 0.42333-0.24401 0.27929-0.36601 0.65852-0.36601 1.1377v2.7914h-0.8158v-4.9389h0.8158v0.76729c0.18521-0.3028 0.40716-0.52622 0.66587-0.67028 0.2587-0.14405 0.56591-0.21607 0.92163-0.21608 0.35865 0.000005 0.66292 0.09114 0.91281 0.2734 0.25282 0.18227 0.4395 0.44686 0.56004 0.79375"/>
  <path id="path3585" style="" d="m573.28 89.853v0.39688h-3.7306c0.0353 0.55857 0.20285 0.98484 0.50271 1.2788 0.3028 0.29104 0.72319 0.43656 1.2612 0.43656 0.31162 0.000001 0.61295-0.03822 0.90399-0.11465 0.29398-0.07643 0.58502-0.19109 0.87313-0.34396v0.76729c-0.29105 0.12347-0.58944 0.21755-0.89518 0.28222-0.30574 0.06468-0.61589 0.09701-0.93045 0.09701-0.78787 0-1.4126-0.22931-1.8741-0.68792-0.45861-0.45861-0.68792-1.0789-0.68791-1.8609-0.00001-0.80845 0.21754-1.4493 0.65263-1.9226 0.43803-0.47624 1.0275-0.71437 1.7683-0.71438 0.6644 0.000005 1.1892 0.21461 1.5743 0.64382 0.38805 0.42628 0.58208 1.0069 0.58209 1.7418m-0.81139-0.23812c-0.006-0.44391-0.13083-0.79816-0.37483-1.0627-0.24107-0.26458-0.56151-0.39687-0.96132-0.39688-0.45273 0.000004-0.8158 0.12789-1.0892 0.38365-0.27046 0.25577-0.42627 0.61589-0.46743 1.0804l2.8928-0.0044"/>
  <path id="path3587" style="" d="m577.48 88.345c-0.0911-0.05291-0.19109-0.09113-0.29986-0.11465-0.10584-0.02645-0.22343-0.03968-0.35278-0.03969-0.45861 0.000004-0.81139 0.14993-1.0583 0.44979-0.24401 0.29692-0.36601 0.72467-0.36601 1.2832v2.6017h-0.8158v-4.9389h0.8158v0.76729c0.17051-0.29986 0.39247-0.52181 0.66587-0.66587 0.2734-0.14698 0.6056-0.22048 0.9966-0.22049 0.0558 0.000005 0.11759 0.0044 0.18521 0.01323 0.0676 0.0059 0.14257 0.01617 0.22489 0.03087l0.004 0.83344"/>
  <path id="path3589" style="" d="m582.36 89.853v0.39688h-3.7306c0.0353 0.55857 0.20284 0.98484 0.50271 1.2788 0.3028 0.29104 0.72319 0.43656 1.2612 0.43656 0.31161 0.000001 0.61295-0.03822 0.90399-0.11465 0.29398-0.07643 0.58502-0.19109 0.87313-0.34396v0.76729c-0.29105 0.12347-0.58944 0.21755-0.89518 0.28222-0.30574 0.06468-0.61589 0.09701-0.93045 0.09701-0.78787 0-1.4126-0.22931-1.8741-0.68792-0.45861-0.45861-0.68792-1.0789-0.68792-1.8609 0-0.80845 0.21755-1.4493 0.65264-1.9226 0.43803-0.47624 1.0275-0.71437 1.7683-0.71438 0.66439 0.000005 1.1892 0.21461 1.5743 0.64382 0.38805 0.42628 0.58208 1.0069 0.58208 1.7418m-0.81138-0.23812c-0.006-0.44391-0.13083-0.79816-0.37483-1.0627-0.24107-0.26458-0.56151-0.39687-0.96132-0.39688-0.45273 0.000004-0.8158 0.12789-1.0892 0.38365-0.27047 0.25577-0.42628 0.61589-0.46743 1.0804l2.8928-0.0044"/>
  <path id="path3591" style="" d="m584.5 86.184v1.4023h1.6713v0.63059h-1.6713v2.6811c0 0.40276 0.0544 0.66146 0.16316 0.77611 0.11171 0.11465 0.3366 0.17198 0.67468 0.17198h0.83344v0.6791h-0.83344c-0.62618 0-1.0583-0.11612-1.2964-0.34837-0.23813-0.23518-0.35719-0.66146-0.35719-1.2788v-2.6811h-0.59531v-0.63059h0.59531v-1.4023h0.8158"/>
  <path id="path3593" style="" d="m587.35 88.424h5.6533v0.74083h-5.6533v-0.74083m0 1.7992h5.6533v0.74965h-5.6533v-0.74965"/>
  <path id="path3595" style="" d="m594.95 92.389v-0.81139c0.22343 0.10583 0.44979 0.18668 0.6791 0.24253 0.2293 0.05586 0.4542 0.08379 0.67468 0.08379 0.58796 0.000001 1.0363-0.19697 1.345-0.5909 0.31162-0.39687 0.48947-0.99806 0.53358-1.8036-0.17052 0.25283-0.38659 0.44686-0.64823 0.58208-0.26165 0.13523-0.55122 0.20285-0.86872 0.20285-0.65852 0.000002-1.1803-0.19844-1.5654-0.59531-0.38218-0.39981-0.57326-0.94515-0.57326-1.636 0-0.67615 0.1999-1.2185 0.59972-1.6272 0.39981-0.40863 0.93192-0.61294 1.5963-0.61295 0.76141 0.000007 1.342 0.29252 1.7418 0.87754 0.40275 0.58209 0.60413 1.4288 0.60413 2.54 0 1.0378-0.24695 1.8668-0.74083 2.4871-0.49096 0.61736-1.1524 0.92604-1.9844 0.92604-0.22343 0-0.44979-0.02205-0.67909-0.06615-0.22931-0.0441-0.46744-0.11024-0.71438-0.19844m1.7727-2.7914c0.39981 0.000003 0.71584-0.1367 0.94809-0.4101 0.23518-0.2734 0.35277-0.64822 0.35278-1.1245-0.00001-0.47331-0.1176-0.84666-0.35278-1.1201-0.23225-0.27634-0.54828-0.41451-0.94809-0.41451-0.39982 0.000006-0.71732 0.13818-0.9525 0.41451-0.23225 0.27341-0.34837 0.64676-0.34837 1.1201 0 0.47625 0.11612 0.85108 0.34837 1.1245 0.23518 0.2734 0.55268 0.41011 0.9525 0.4101"/>
 </g>
</svg>
