<?xml version="1.0" encoding="UTF-8" standalone="no"?>
<!-- Created with Inkscape (http://www.inkscape.org/) -->
<svg id="svg2" xmlns:rdf="http://www.w3.org/1999/02/22-rdf-syntax-ns#" xmlns="http://www.w3.org/2000/svg" height="671.45" width="1470.8" version="1.1" xmlns:cc="http://creativecommons.org/ns#" xmlns:dc="http://purl.org/dc/elements/1.1/" viewBox="295 -75 820.30156 378.00001">
 <metadata id="metadata128">
  <rdf:RDF>
   <cc:Work rdf:about="">
    <dc:format>image/svg+xml</dc:format>
    <dc:type rdf:resource="http://purl.org/dc/dcmitype/StillImage"/>
   </cc:Work>
  </rdf:RDF>
 </metadata>
 <path id="polygon4" d="m1010 170-140-140-60 60 140 140z" transform="translate(-4.8492 -1)" stroke="#bfbfbf" stroke-dasharray="4" stroke-width="2" fill="none"/>
 <path id="rect6" d="m555.15-51h240v350h-240z" stroke="#bfbfbf" stroke-dasharray="4" stroke-width="2" fill="none"/>
 <path id="line8" d="m295.15 99v200" stroke="#000" stroke-width="8" fill="none"/>
 <path id="line10" d="m435.15 99v200" stroke="#000" stroke-width="8" fill="none"/>
 <path id="line12" d="m355.15 119 80 80" stroke="#00f" stroke-width="8" fill="none"/>
 <path id="line14" d="m515.15 119-80 80" stroke="#00f" stroke-width="8" fill="none"/>
 <path id="line16" d="m435.15-1v100" stroke="#00f" stroke-width="8" fill="none"/>
 <path id="line18" d="m675.15 99v200" stroke="#000" stroke-width="8" fill="none"/>
 <path id="line20" d="m595.15 119 80 80" stroke="#00f" stroke-width="8" fill="none"/>
 <path id="line22" d="m755.15 119-80 80" stroke="#00f" stroke-width="8" fill="none"/>
 <path id="line24" d="m675.15-1v100" stroke="#00f" stroke-width="8" fill="none"/>
 <path id="line26" d="m675.15-51v50" stroke="#f00" stroke-width="8" fill="none"/>
 <path id="line28" d="m675.15 49-30-30" stroke="#f00" stroke-width="8" fill="none"/>
 <path id="line30" d="m675.15 49 30-30" stroke="#f00" stroke-width="8" fill="none"/>
 <path id="line32" d="m595.15 119-40-40" stroke="#f00" stroke-width="8" fill="none"/>
 <path id="line34" d="m755.15 119 40-40" stroke="#f00" stroke-width="8" fill="none"/>
 <path id="line36" d="m635.15 159h-40" stroke="#f00" stroke-width="8" fill="none"/>
 <path id="line38" d="m635.15 119v40" stroke="#f00" stroke-width="8" fill="none"/>
 <path id="line40" d="m715.15 159v-40" stroke="#f00" stroke-width="8" fill="none"/>
 <path id="line42" d="m715.15 159h40" stroke="#f00" stroke-width="8" fill="none"/>
 <path id="line44" d="m975.15 99v200" stroke="#000" stroke-width="8" fill="none"/>
 <path id="line46" d="m895.15 119 80 80" stroke="#00f" stroke-width="8" fill="none"/>
 <path id="line48" d="m1055.2 119-80 80" stroke="#00f" stroke-width="8" fill="none"/>
 <path id="line50" d="m975.15-1v100" stroke="#00f" stroke-width="8" fill="none"/>
 <path id="line52" d="m975.15 49-30-30" stroke="#f00" stroke-width="8" fill="none"/>
 <path id="line54" d="m975.15 49 30.05-30" stroke="#f00" stroke-width="8" fill="none"/>
 <path id="line56" d="m895.15 119-40-40" stroke="#f00" stroke-width="8" fill="none"/>
 <path id="line58" d="m1055.2 119 40-40" stroke="#f00" stroke-width="8" fill="none"/>
 <path id="line60" d="m935.15 159h-40" stroke="#f00" stroke-width="8" fill="none"/>
 <path id="line62" d="m935.15 119v40" stroke="#f00" stroke-width="8" fill="none"/>
 <path id="line64" d="m1015.2 159v-40" stroke="#f00" stroke-width="8" fill="none"/>
 <path id="line66" d="m1015.2 159h40" stroke="#f00" stroke-width="8" fill="none"/>
 <path id="line68" d="m975.15-51v50" stroke="#f00" stroke-width="8" fill="none"/>
 <path id="line70" d="m895.15 159h-20" stroke="#0f0" stroke-width="8" fill="none"/>
 <path id="line72" d="m935.15 99v20" stroke="#0f0" stroke-width="8" fill="none"/>
 <path id="line74" d="m855.15 79-20-20" stroke="#0f0" stroke-width="8" fill="none"/>
 <path id="line76" d="m1015.2 119v-20" stroke="#0f0" stroke-width="8" fill="none"/>
 <path id="line78" d="m1055.2 159h20" stroke="#0f0" stroke-width="8" fill="none"/>
 <path id="line80" d="m1075.2 71v28" stroke="#0f0" stroke-width="8" fill="none"/>
 <path id="line82" d="m1075.2 99h28" stroke="#0f0" stroke-width="8" fill="none"/>
 <path id="line84" d="m1095.2 79 20-20" stroke="#0f0" stroke-width="8" fill="none"/>
 <path id="line86" d="m1005.2 19 20-20" stroke="#0f0" stroke-width="8" fill="none"/>
 <path id="line88" d="m975.15-51v-20" stroke="#0f0" stroke-width="8" fill="none"/>
 <path id="line90" d="m945.15 19-20-20" stroke="#0f0" stroke-width="8" fill="none"/>
 <path id="line92" d="m875.15 71v28" stroke="#0f0" stroke-width="8" fill="none"/>
 <path id="line94" d="m847.15 99h28" stroke="#0f0" stroke-width="8" fill="none"/>
 <path id="line96" d="m915.15 119 20 20" stroke="#0f0" stroke-width="8" fill="none"/>
 <path id="line98" d="m955.15 119-20 20" stroke="#0f0" stroke-width="8" fill="none"/>
 <path id="line100" d="m895.15 139 20 20" stroke="#0f0" stroke-width="8" fill="none"/>
 <path id="line102" d="m915.15 159-20 20" stroke="#0f0" stroke-width="8" fill="none"/>
 <path id="line104" d="m995.15 119 20 20" stroke="#0f0" stroke-width="8" fill="none"/>
 <path id="line106" d="m1035.2 119-20 20" stroke="#0f0" stroke-width="8" fill="none"/>
 <path id="line108" d="m1055.2 139-20 20" stroke="#0f0" stroke-width="8" fill="none"/>
 <path id="line110" d="m1035.2 159 20 20" stroke="#0f0" stroke-width="8" fill="none"/>
 <path id="line112" d="m975.15-26-24-23" stroke="#0f0" stroke-width="8" fill="none"/>
 <path id="line114" d="m975.15-26 24-23" stroke="#0f0" stroke-width="8" fill="none"/>
 <path id="line116" d="m960.15 34h-20" stroke="#0f0" stroke-width="8" fill="none"/>
 <path id="line118" d="m960.15 14v20" stroke="#0f0" stroke-width="8" fill="none"/>
 <path id="line120" d="m990.15 34v-20" stroke="#0f0" stroke-width="8" fill="none"/>
 <path id="line122" d="m990.15 34h20" stroke="#0f0" stroke-width="8" fill="none"/>
</svg>
