<?xml version="1.0" encoding="UTF-8" standalone="no"?>
<!-- Created with Inkscape (http://www.inkscape.org/) -->
<svg id="svg2" xmlns:rdf="http://www.w3.org/1999/02/22-rdf-syntax-ns#" xmlns="http://www.w3.org/2000/svg" height="381.67" width="381.67" version="1.1" xmlns:cc="http://creativecommons.org/ns#" xmlns:dc="http://purl.org/dc/elements/1.1/" viewBox="279 179 199.764 199.764">
 <metadata id="metadata50">
  <rdf:RDF>
   <cc:Work rdf:about="">
    <dc:format>image/svg+xml</dc:format>
    <dc:type rdf:resource="http://purl.org/dc/dcmitype/StillImage"/>
   </cc:Work>
  </rdf:RDF>
 </metadata>
 <g id="g4" stroke="#000" stroke-width="2" fill="none">
  <path id="line6" d="m300 180v195.53"/>
  <path id="polyline8" d="m295 367.76 5 10 5-10"/>
 </g>
 <g id="g10" stroke="#000" stroke-width="2" fill="none">
  <path id="line12" d="m280 200h195.53"/>
  <path id="polyline14" d="m467.76 205 10-5-10-5"/>
 </g>
 <path id="line16" d="m340 240 20 20" stroke="#000" stroke-width="2" fill="none"/>
 <path id="line18" d="m360 240-20 20" stroke="#000" stroke-width="2" fill="none"/>
 <path id="line20" d="m378 300 20 20" stroke="#000" stroke-width="2" fill="none"/>
 <path id="line22" d="m398 300-20 20" stroke="#000" stroke-width="2" fill="none"/>
 <g id="g24" stroke="#000" stroke-width="2" fill="none">
  <path id="line26" d="m354.28 256.76 27.047 42.704"/>
  <path id="polyline28" d="m372.95 295.58 9.574 5.773-1.126-11.123"/>
 </g>
 <g id="text30">
  <path id="path3014" style="" d="m338.6 219.72c-0.59091 1.0142-1.0297 2.0175-1.3163 3.0096-0.28664 0.99219-0.42995 1.9976-0.42995 3.0162s0.14331 2.0285 0.42995 3.0295c0.29104 0.9966 0.72981 1.9998 1.3163 3.0096h-1.0583c-0.66146-1.0363-1.1576-2.0549-1.4883-3.0559-0.32632-1.001-0.48948-1.9954-0.48948-2.9832 0-0.98336 0.16316-1.9734 0.48948-2.97 0.32632-0.99659 0.82242-2.0152 1.4883-3.056h1.0583"/>
  <path id="path3016" style="" d="m347.13 222.59-2.6789 3.605 2.8178 3.8034h-1.4354l-2.1564-2.9104-2.1564 2.9104h-1.4354l2.8774-3.8762-2.6326-3.5322h1.4354l1.9645 2.6392 1.9645-2.6392h1.4354"/>
  <path id="path3018" style="" d="m349.3 223h1.3957v1.6801h-1.3957v-1.6801m0 5.3248h1.3957v1.1377l-1.0848 2.1167h-0.85328l0.54239-2.1167v-1.1377"/>
  <path id="path3020" style="" d="m356.65 230.69c-0.34396 0.88194-0.6791 1.4574-1.0054 1.7264-0.32632 0.26899-0.76288 0.40349-1.3097 0.40349h-0.97234v-1.0186h0.71437c0.33514 0 0.59531-0.0794 0.78052-0.23812 0.18521-0.15876 0.39026-0.53358 0.61516-1.1245l0.21828-0.55562-2.9964-7.2893h1.2898l2.3151 5.7944 2.3151-5.7944h1.2898l-3.2544 8.0963"/>
  <path id="path3022" style="" d="m361.39 219.72h1.0583c0.66145 1.0407 1.1553 2.0594 1.4817 3.056 0.33072 0.9966 0.49609 1.9866 0.49609 2.97 0 0.98779-0.16537 1.9822-0.49609 2.9832-0.32633 1.001-0.82022 2.0196-1.4817 3.0559h-1.0583c0.58649-1.0098 1.0231-2.013 1.3097-3.0096 0.29104-1.001 0.43656-2.0108 0.43656-3.0295 0-1.0186-0.14552-2.0241-0.43656-3.0162-0.28663-0.99219-0.7232-1.9954-1.3097-3.0096"/>
 </g>
 <g id="text34">
  <path id="path3025" style="" d="m329.94 322.32c-0.59091 1.0142-1.0297 2.0175-1.3163 3.0096-0.28664 0.9922-0.42996 1.9976-0.42995 3.0163-0.00001 1.0186 0.14331 2.0285 0.42995 3.0295 0.29104 0.9966 0.7298 1.9998 1.3163 3.0096h-1.0583c-0.66147-1.0363-1.1576-2.0549-1.4883-3.056-0.32632-1.001-0.48948-1.9954-0.48948-2.9832 0-0.98337 0.16316-1.9734 0.48948-2.97 0.32632-0.99659 0.82241-2.0152 1.4883-3.0559h1.0583"/>
  <path id="path3027" style="" d="m338.47 325.19-2.6789 3.605 2.8178 3.8034h-1.4354l-2.1564-2.9104-2.1564 2.9104h-1.4354l2.8774-3.8762-2.6326-3.5322h1.4354l1.9645 2.6392 1.9645-2.6392h1.4354"/>
  <path id="path3029" style="" d="m345.28 324.11v3.6843h3.6843v1.1245h-3.6843v3.6843h-1.1113v-3.6843h-3.6843v-1.1245h3.6843v-3.6843h1.1113"/>
  <path id="path3031" style="" d="m357.84 328.13v4.4715h-1.2171v-4.4318c-0.00001-0.70114-0.13671-1.2259-0.41011-1.5743-0.2734-0.34836-0.68351-0.52255-1.2303-0.52255-0.65706 0-1.1752 0.20947-1.5544 0.62838-0.37924 0.41893-0.56886 0.98999-0.56886 1.7132v4.187h-1.2237v-10.292h1.2237v4.0349c0.29104-0.44538 0.6328-0.77832 1.0253-0.99881 0.39687-0.22048 0.85327-0.33072 1.3692-0.33073 0.85107 0.00001 1.4949 0.26459 1.9315 0.79375 0.43656 0.52477 0.65484 1.2987 0.65485 2.3217"/>
  <path id="path3033" style="" d="m365.61 325.48v1.1377c-0.34396-0.18961-0.69013-0.33072-1.0385-0.42333-0.34397-0.097-0.69233-0.14552-1.0451-0.14552-0.78934 0-1.4023 0.25136-1.8389 0.75406-0.43656 0.49831-0.65484 1.1994-0.65484 2.1034 0 0.90399 0.21828 1.6073 0.65484 2.11 0.43656 0.4983 1.0495 0.74745 1.8389 0.74745 0.35278 0 0.70114-0.0463 1.0451-0.1389 0.34836-0.097 0.69453-0.24033 1.0385-0.42995v1.1245c-0.33955 0.15875-0.69233 0.27781-1.0583 0.35719-0.3616 0.0794-0.74745 0.11906-1.1576 0.11906-1.1157 0-2.002-0.35057-2.6591-1.0517-0.65705-0.70115-0.98557-1.647-0.98557-2.8377 0-1.2083 0.33072-2.1586 0.99219-2.8509 0.66586-0.69232 1.5765-1.0385 2.7318-1.0385 0.37482 0.00001 0.74083 0.0397 1.098 0.11906 0.35718 0.075 0.70334 0.18963 1.0385 0.34396"/>
  <path id="path3035" style="" d="m370.61 326.04c-0.65264 0-1.1686 0.25577-1.5478 0.76729-0.37924 0.50713-0.56885 1.2039-0.56885 2.0902 0 0.88635 0.18741 1.5853 0.56224 2.0968 0.37923 0.50712 0.89738 0.76068 1.5544 0.76068 0.64823 0 1.162-0.25576 1.5412-0.76729 0.37923-0.51153 0.56885-1.2083 0.56886-2.0902-0.00001-0.87754-0.18963-1.5721-0.56886-2.0836-0.37924-0.51594-0.89297-0.77391-1.5412-0.77391m0-1.0319c1.0583 0.00001 1.8896 0.34397 2.4937 1.0319 0.60413 0.68792 0.9062 1.6404 0.9062 2.8575 0 1.2127-0.30207 2.1652-0.9062 2.8575-0.60414 0.68792-1.4354 1.0319-2.4937 1.0319-1.0628 0-1.8962-0.34396-2.5003-1.0319-0.59972-0.69232-0.89959-1.6448-0.89958-2.8575-0.00001-1.2171 0.29986-2.1696 0.89958-2.8575 0.60413-0.68791 1.4376-1.0319 2.5003-1.0319"/>
  <path id="path3037" style="" d="m380.74 325.41v1.1509c-0.34397-0.17639-0.70116-0.30868-1.0716-0.39688-0.37042-0.0882-0.75407-0.13228-1.1509-0.13229-0.60414 0.00001-1.0583 0.0926-1.3626 0.27781-0.29986 0.18522-0.44979 0.46303-0.44979 0.83344 0 0.28223 0.10804 0.50492 0.32412 0.66808 0.21607 0.15875 0.65043 0.31089 1.3031 0.4564l0.41672 0.0926c0.8643 0.18521 1.4773 0.44759 1.8389 0.78714 0.366 0.33514 0.54901 0.80477 0.54901 1.4089 0 0.68792-0.27341 1.2325-0.82021 1.6338-0.5424 0.40129-1.2898 0.60193-2.2424 0.60193-0.39688 0-0.81139-0.0397-1.2435-0.11906-0.42775-0.075-0.87975-0.18962-1.356-0.34396v-1.2568c0.4498 0.23372 0.89297 0.41011 1.3295 0.52917 0.43656 0.11466 0.86871 0.17198 1.2965 0.17198 0.57326 0 1.0142-0.097 1.3229-0.29104 0.30868-0.19844 0.46302-0.47625 0.46302-0.83344 0-0.33073-0.11245-0.58429-0.33734-0.76068-0.22049-0.17639-0.70777-0.34616-1.4618-0.50932l-0.42333-0.0992c-0.75407-0.15875-1.2987-0.40128-1.6338-0.72761-0.33514-0.33072-0.50271-0.78272-0.50271-1.356 0-0.69673 0.24695-1.2347 0.74084-1.614 0.49388-0.37923 1.195-0.56885 2.1034-0.56886 0.44979 0.00001 0.87312 0.0331 1.27 0.0992 0.39687 0.0661 0.76288 0.16537 1.098 0.29766"/>
  <path id="path3039" style="" d="m387.29 326.18c-0.28664 0.00001-0.42995 0.31971-0.42995 0.95912v4.5376c0.41892 0 0.83784-0.2293 1.2568-0.68792 0.37482-0.4101 0.56224-1.1068 0.56225-2.0902-0.00001-0.91722-0.18963-1.6228-0.56886-2.1167-0.30869-0.40128-0.58209-0.60192-0.82021-0.60193m0-1.0385c0.61736 0.00001 1.206 0.29105 1.7661 0.87313 0.60412 0.62177 0.90619 1.5831 0.9062 2.884-0.00001 1.195-0.30208 2.1475-0.9062 2.8575-0.56886 0.67028-1.3009 1.0054-2.196 1.0054v2.6591h-1.2105v-2.6525c-0.87754 0-1.6118-0.33734-2.2027-1.012-0.59973-0.68792-0.89959-1.6382-0.89959-2.8509 0-1.2612 0.29986-2.2137 0.89959-2.8575 0.44979-0.48066 1.0407-0.78272 1.7727-0.9062v1.0782c-0.29105 0.10143-0.56445 0.32412-0.82021 0.66807-0.37924 0.50713-0.56886 1.1796-0.56886 2.0175 0 0.89076 0.18962 1.5897 0.56886 2.0968 0.33955 0.45421 0.75627 0.68131 1.2502 0.68131v-4.5442c-0.00001-1.3317 0.5468-1.9976 1.6404-1.9976"/>
  <path id="path3041" style="" d="m392.34 325.6h1.3957v1.6801h-1.3957v-1.6801m0 5.3248h1.3957v1.1377l-1.0848 2.1167h-0.85329l0.5424-2.1167v-1.1377"/>
  <path id="path3043" style="" d="m399.69 333.29c-0.34396 0.88195-0.6791 1.4574-1.0054 1.7264-0.32632 0.269-0.76289 0.40349-1.3097 0.4035h-0.97235v-1.0186h0.71438c0.33514 0 0.59531-0.0794 0.78052-0.23813 0.18521-0.15875 0.39026-0.53358 0.61516-1.1245l0.21828-0.55563-2.9964-7.2893h1.2898l2.3151 5.7944 2.3151-5.7944h1.2898l-3.2544 8.0963"/>
  <path id="path3045" style="" d="m403.77 328.35h3.5653v1.0848h-3.5653v-1.0848"/>
  <path id="path3047" style="" d="m415.44 328.13v4.4715h-1.2171v-4.4318c-0.00001-0.70114-0.13671-1.2259-0.41011-1.5743-0.2734-0.34836-0.68351-0.52255-1.2303-0.52255-0.65706 0-1.1752 0.20947-1.5544 0.62838-0.37924 0.41893-0.56886 0.98999-0.56886 1.7132v4.187h-1.2237v-10.292h1.2237v4.0349c0.29104-0.44538 0.6328-0.77832 1.0253-0.99881 0.39687-0.22048 0.85327-0.33072 1.3692-0.33073 0.85107 0.00001 1.4949 0.26459 1.9315 0.79375 0.43656 0.52477 0.65484 1.2987 0.65485 2.3217"/>
  <path id="path3049" style="" d="m422.6 325.41v1.1509c-0.34396-0.17639-0.70115-0.30868-1.0716-0.39688-0.37043-0.0882-0.75407-0.13228-1.1509-0.13229-0.60414 0.00001-1.0583 0.0926-1.3626 0.27781-0.29987 0.18522-0.4498 0.46303-0.44979 0.83344-0.00001 0.28223 0.10803 0.50492 0.32411 0.66808 0.21608 0.15875 0.65043 0.31089 1.3031 0.4564l0.41672 0.0926c0.8643 0.18521 1.4772 0.44759 1.8389 0.78714 0.366 0.33514 0.549 0.80477 0.54901 1.4089-0.00001 0.68792-0.27341 1.2325-0.82021 1.6338-0.54241 0.40129-1.2898 0.60193-2.2424 0.60193-0.39688 0-0.8114-0.0397-1.2436-0.11906-0.42774-0.075-0.87974-0.18962-1.356-0.34396v-1.2568c0.44979 0.23372 0.89297 0.41011 1.3295 0.52917 0.43657 0.11466 0.86872 0.17198 1.2965 0.17198 0.57326 0 1.0142-0.097 1.3229-0.29104 0.30867-0.19844 0.46301-0.47625 0.46302-0.83344-0.00001-0.33073-0.11246-0.58429-0.33735-0.76068-0.22049-0.17639-0.70776-0.34616-1.4618-0.50932l-0.42334-0.0992c-0.75406-0.15875-1.2987-0.40128-1.6338-0.72761-0.33514-0.33072-0.50271-0.78272-0.50271-1.356 0-0.69673 0.24694-1.2347 0.74083-1.614 0.49389-0.37923 1.195-0.56885 2.1034-0.56886 0.44979 0.00001 0.87313 0.0331 1.27 0.0992s0.76288 0.16537 1.098 0.29766"/>
  <path id="path3051" style="" d="m424.94 325.19h1.2171v7.4084h-1.2171v-7.4084m0-2.884h1.2171v1.5412h-1.2171v-1.5412"/>
  <path id="path3053" style="" d="m434.86 328.13v4.4715h-1.2171v-4.4318c0-0.70114-0.1367-1.2259-0.4101-1.5743-0.27341-0.34836-0.68352-0.52255-1.2303-0.52255-0.65705 0-1.1752 0.20947-1.5544 0.62838-0.37924 0.41893-0.56886 0.98999-0.56885 1.7132v4.187h-1.2237v-7.4084h1.2237v1.151c0.29104-0.44538 0.63279-0.77832 1.0253-0.99881 0.39687-0.22048 0.85328-0.33072 1.3692-0.33073 0.85107 0.00001 1.4949 0.26459 1.9315 0.79375 0.43656 0.52477 0.65484 1.2987 0.65485 2.3217"/>
  <path id="path3055" style="" d="m441.51 326.18c-0.28664 0.00001-0.42996 0.31971-0.42995 0.95912v4.5376c0.41892 0 0.83784-0.2293 1.2568-0.68792 0.37482-0.4101 0.56224-1.1068 0.56224-2.0902 0-0.91722-0.18962-1.6228-0.56885-2.1167-0.30869-0.40128-0.58209-0.60192-0.82021-0.60193m0-1.0385c0.61735 0.00001 1.206 0.29105 1.7661 0.87313 0.60413 0.62177 0.9062 1.5831 0.9062 2.884 0 1.195-0.30207 2.1475-0.9062 2.8575-0.56886 0.67028-1.3009 1.0054-2.196 1.0054v2.6591h-1.2105v-2.6525c-0.87754 0-1.6118-0.33734-2.2027-1.012-0.59972-0.68792-0.89958-1.6382-0.89958-2.8509 0-1.2612 0.29986-2.2137 0.89958-2.8575 0.44979-0.48066 1.0407-0.78272 1.7727-0.9062v1.0782c-0.29105 0.10143-0.56445 0.32412-0.82021 0.66807-0.37924 0.50713-0.56886 1.1796-0.56886 2.0175 0 0.89076 0.18962 1.5897 0.56886 2.0968 0.33954 0.45421 0.75626 0.68131 1.2502 0.68131v-4.5442c-0.00001-1.3317 0.5468-1.9976 1.6404-1.9976"/>
  <path id="path3057" style="" d="m446.05 322.32h1.0583c0.66146 1.0407 1.1554 2.0594 1.4817 3.0559 0.33073 0.99661 0.49609 1.9866 0.4961 2.97-0.00001 0.98778-0.16537 1.9822-0.4961 2.9832-0.32632 1.001-0.82021 2.0197-1.4817 3.056h-1.0583c0.58649-1.0098 1.023-2.013 1.3097-3.0096 0.29104-1.001 0.43656-2.0108 0.43656-3.0295 0-1.0186-0.14552-2.0241-0.43656-3.0163-0.28664-0.99218-0.7232-1.9954-1.3097-3.0096"/>
 </g>
 <g id="text38">
  <path id="path3060" style="" d="m473.43 209.39-2.6789 3.605 2.8178 3.8034h-1.4354l-2.1564-2.9104-2.1564 2.9104h-1.4354l2.8774-3.8762-2.6326-3.5322h1.4354l1.9645 2.6392 1.9645-2.6392h1.4354"/>
 </g>
 <g id="text42">
  <path id="path3063" style="" d="m310.35 367.49c-0.34396 0.88194-0.6791 1.4574-1.0054 1.7264-0.32632 0.26899-0.76288 0.40348-1.3097 0.40349h-0.97234v-1.0186h0.71437c0.33514 0 0.59532-0.0794 0.78053-0.23813 0.1852-0.15875 0.39026-0.53358 0.61516-1.1245l0.21828-0.55562-2.9964-7.2893h1.2898l2.3151 5.7944 2.3151-5.7944h1.2898l-3.2544 8.0963"/>
 </g>
</svg>
