<?xml version="1.0" encoding="UTF-8" standalone="no"?>
<!-- Created with Inkscape (http://www.inkscape.org/) -->
<svg id="svg2" xmlns:rdf="http://www.w3.org/1999/02/22-rdf-syntax-ns#" xmlns="http://www.w3.org/2000/svg" height="643.69" width="457.49" version="1.1" xmlns:cc="http://creativecommons.org/ns#" xmlns:dc="http://purl.org/dc/elements/1.1/" viewBox="148 -23 258.225 351.85293">
 <metadata id="metadata236">
  <rdf:RDF>
   <cc:Work rdf:about="">
    <dc:format>image/svg+xml</dc:format>
    <dc:type rdf:resource="http://purl.org/dc/dcmitype/StillImage"/>
   </cc:Work>
  </rdf:RDF>
 </metadata>
 <g id="g4" transform="translate(-.93126 -9.9728)">
  <g id="g6">
   <path id="polygon8" fill="#008000" d="m350 140-10-30-10 30z"/>
   <path id="polygon10" d="m350 140-10-30-10 30z" stroke="#000" fill="none"/>
  </g>
  <g id="g12">
   <path id="rect14" fill="#8b6914" d="m338 142h4v4h-4z"/>
   <path id="rect16" d="m338 142h4v4h-4z" stroke="#000" fill="none"/>
  </g>
 </g>
 <g id="g18" transform="translate(-.93126 -9.9728)">
  <g id="g20">
   <path id="polygon22" fill="#008000" d="m250 30-10-30-10 30z"/>
   <path id="polygon24" d="m250 30-10-30-10 30z" stroke="#000" fill="none"/>
  </g>
  <g id="g26">
   <path id="rect28" fill="#8b6914" d="m238 32h4v4h-4z"/>
   <path id="rect30" d="m238 32h4v4h-4z" stroke="#000" fill="none"/>
  </g>
 </g>
 <g id="g32" transform="translate(-.93126 -9.9728)">
  <g id="g34">
   <path id="polygon36" fill="#008000" d="m360 60-10-30-10 30z"/>
   <path id="polygon38" d="m360 60-10-30-10 30z" stroke="#000" fill="none"/>
  </g>
  <g id="g40">
   <path id="rect42" fill="#8b6914" d="m348 62h4v4h-4z"/>
   <path id="rect44" d="m348 62h4v4h-4z" stroke="#000" fill="none"/>
  </g>
 </g>
 <g id="g46" transform="translate(-.93126 -9.9728)">
  <g id="g48">
   <path id="polygon50" fill="#008000" d="m260 130-10-30-10 30z"/>
   <path id="polygon52" d="m260 130-10-30-10 30z" stroke="#000" fill="none"/>
  </g>
  <g id="g54">
   <path id="rect56" fill="#8b6914" d="m248 132h4v4h-4z"/>
   <path id="rect58" d="m248 132h4v4h-4z" stroke="#000" fill="none"/>
  </g>
 </g>
 <g id="g60" transform="translate(-.93126 -9.9728)">
  <g id="g62">
   <path id="polygon64" fill="#008000" d="m240 260-10-30-10 30z"/>
   <path id="polygon66" d="m240 260-10-30-10 30z" stroke="#000" fill="none"/>
  </g>
  <g id="g68">
   <path id="rect70" fill="#8b6914" d="m228 262h4v4h-4z"/>
   <path id="rect72" d="m228 262h4v4h-4z" stroke="#000" fill="none"/>
  </g>
 </g>
 <g id="g74" transform="translate(-.93126 -9.9728)">
  <g id="g76">
   <path id="polygon78" fill="#008000" d="m380 200-10-30-10 30z"/>
   <path id="polygon80" d="m380 200-10-30-10 30z" stroke="#000" fill="none"/>
  </g>
  <g id="g82">
   <path id="rect84" fill="#8b6914" d="m368 202h4v4h-4z"/>
   <path id="rect86" d="m368 202h4v4h-4z" stroke="#000" fill="none"/>
  </g>
 </g>
 <g id="g88" transform="translate(-.93126 -9.9728)">
  <g id="g90">
   <path id="polygon92" fill="#008000" d="m270 200-10-30-10 30z"/>
   <path id="polygon94" d="m270 200-10-30-10 30z" stroke="#000" fill="none"/>
  </g>
  <g id="g96">
   <path id="rect98" fill="#8b6914" d="m258 202h4v4h-4z"/>
   <path id="rect100" d="m258 202h4v4h-4z" stroke="#000" fill="none"/>
  </g>
 </g>
 <g id="g102" transform="translate(-.93126 -9.9728)">
  <path id="line104" d="m270 170v-28" stroke="#000" fill="none"/>
  <g id="g106">
   <path id="polygon108" fill="#a020f0" d="m270 142 8 4-8 4z"/>
   <path id="polygon110" d="m270 142 8 4-8 4z" stroke="#000" fill="none"/>
  </g>
 </g>
 <g id="g112" transform="translate(-.93126 -9.9728)">
  <path id="line114" d="m368 140v-28" stroke="#000" fill="none"/>
  <g id="g116">
   <path id="polygon118" fill="#a020f0" d="m368 112 8 4-8 4z"/>
   <path id="polygon120" d="m368 112 8 4-8 4z" stroke="#000" fill="none"/>
  </g>
 </g>
 <g id="g122" transform="translate(-.93126 -9.9728)">
  <path id="line124" d="m280 80v-28" stroke="#000" fill="none"/>
  <g id="g126">
   <path id="polygon128" fill="#a020f0" d="m280 52 8 4-8 4z"/>
   <path id="polygon130" d="m280 52 8 4-8 4z" stroke="#000" fill="none"/>
  </g>
 </g>
 <g id="g132" transform="translate(-.93126 -9.9728)">
  <path id="line134" d="m320 70v-28" stroke="#000" fill="none"/>
  <g id="g136">
   <path id="polygon138" fill="#a020f0" d="m320 42 8 4-8 4z"/>
   <path id="polygon140" d="m320 42 8 4-8 4z" stroke="#000" fill="none"/>
  </g>
 </g>
 <g id="g142" transform="translate(-.93126 -9.9728)">
  <path id="line144" d="m340 240v-28" stroke="#000" fill="none"/>
  <g id="g146">
   <path id="polygon148" fill="#a020f0" d="m340 212 8 4-8 4z"/>
   <path id="polygon150" d="m340 212 8 4-8 4z" stroke="#000" fill="none"/>
  </g>
 </g>
 <g id="g152" stroke="#7f7f7f" stroke-width="2" fill="none" transform="translate(-.93126 -9.9728)">
  <path id="line154" d="m180 300h215.53"/>
  <path id="polyline156" d="m387.76 305 10-5-10-5"/>
 </g>
 <g id="g158" transform="translate(-.93126 -9.9728)">
  <path id="polygon160" fill="#00f" d="m260 320-4-2 8-40 4 2z"/>
  <path id="polygon162" d="m260 320-4-2 8-40 4 2z" stroke="#000" fill="none"/>
 </g>
 <g id="g164" transform="translate(-.93126 -9.9728)">
  <path id="polygon166" fill="#00f" d="m268 322-4-2 8-40 4 2z"/>
  <path id="polygon168" d="m268 322-4-2 8-40 4 2z" stroke="#000" fill="none"/>
 </g>
 <g id="g170" transform="translate(-.93126 -9.9728)">
  <path id="ellipse172" fill="#f00" d="m272 300c0 3.3137-2.6863 6-6 6s-6-2.6863-6-6 2.6863-6 6-6 6 2.6863 6 6z"/>
  <path id="ellipse174" d="m272 300c0 3.3137-2.6863 6-6 6s-6-2.6863-6-6 2.6863-6 6-6 6 2.6863 6 6z" stroke="#000" stroke-width="2" fill="none"/>
 </g>
 <path id="line176" d="m255.07 280.03-4 6" stroke="#00f" stroke-width="2" fill="none"/>
 <path id="line178" d="m255.07 280.03 5.059 5.059" stroke="#000" stroke-width="4" fill="none"/>
 <path id="line180" d="m277.07 286.03 2 6" stroke="#00f" stroke-width="2" fill="none"/>
 <path id="line182" d="m271.68 287.82 5.391-1.797" stroke="#000" stroke-width="4" fill="none"/>
 <g id="text184" fill="#7f7f7f">
  <path id="path3152" style="" d="m406.09 273.03-2.5312 3.4062 2.6625 3.5938h-1.3562l-2.0375-2.75-2.0375 2.75h-1.3562l2.7188-3.6625-2.4875-3.3375h1.3562l1.8562 2.4938 1.8562-2.4938h1.3562"/>
 </g>
 <g id="g188" stroke="#7f7f7f" stroke-width="2" fill="none" transform="translate(-.93126 -9.9728)">
  <path id="line190" d="m300 310v-325.53"/>
  <path id="polyline192" d="m305-7.7639-5-10-5 10"/>
 </g>
 <g id="text194" fill="#7f7f7f">
  <path id="path3157" style="" d="m309.78-26.973h5.4625v1.05l-4.325 5.0312h4.325v0.91875h-5.6188v-1.05l4.325-5.0312h-4.1688v-0.91875"/>
 </g>
 <path id="line198" d="m266.53 283.2 16.537-77.171" stroke="#7f7f7f" stroke-width="2" fill="none"/>
 <path id="path200" d="m311.07 290.03a48.01 48.01 0 0 0 -36.268 -45.414" stroke="#7f7f7f" stroke-width="2" fill="none"/>
 <path id="path202" d="m265.07 316.03c0 6 18 0 18 6" stroke="#7f7f7f" stroke-width="2" fill="none"/>
 <path id="path204" d="m283.07 322.03c0-6 16 0 16-6" stroke="#7f7f7f" stroke-width="2" fill="none"/>
 <g id="text206" fill="#7f7f7f">
  <path id="path3161" style="" d="m274.99 324.93-2.5312 3.4062 2.6625 3.5938h-1.3562l-2.0375-2.75-2.0375 2.75h-1.3562l2.7188-3.6625-2.4875-3.3375h1.3562l1.8562 2.4938 1.8562-2.4938h1.3562"/>
  <path id="path3163" style="" d="m277.86 330.88v3.7125h-1.1562v-9.6625h1.1562v1.0625c0.24166-0.41666 0.54583-0.72499 0.9125-0.925 0.37083-0.20416 0.81249-0.30624 1.325-0.30625 0.84999 0.00001 1.5396 0.33751 2.0688 1.0125 0.53332 0.67501 0.79999 1.5625 0.8 2.6625-0.00001 1.1-0.26668 1.9875-0.8 2.6625-0.52918 0.675-1.2188 1.0125-2.0688 1.0125-0.51251 0-0.95417-0.1-1.325-0.3-0.36667-0.20416-0.67084-0.51458-0.9125-0.93125m3.9125-2.4438c-0.00001-0.84582-0.17501-1.5083-0.525-1.9875-0.34584-0.48332-0.82293-0.72499-1.4312-0.725-0.60834 0.00001-1.0875 0.24168-1.4375 0.725-0.34584 0.47918-0.51876 1.1417-0.51875 1.9875-0.00001 0.84584 0.17291 1.5104 0.51875 1.9938 0.34999 0.47917 0.82916 0.71876 1.4375 0.71875 0.60832 0.00001 1.0854-0.23958 1.4312-0.71875 0.34999-0.48333 0.52499-1.1479 0.525-1.9938"/>
  <path id="path3165" style="" d="m287.59 325.73c-0.61667 0.00001-1.1042 0.24168-1.4625 0.725-0.35834 0.47918-0.53751 1.1375-0.5375 1.975-0.00001 0.83751 0.17708 1.4979 0.53125 1.9812 0.35833 0.47917 0.84791 0.71876 1.4688 0.71875 0.61249 0.00001 1.0979-0.24166 1.4562-0.725 0.35832-0.48333 0.53749-1.1417 0.5375-1.975-0.00001-0.82916-0.17918-1.4854-0.5375-1.9688-0.35834-0.48749-0.84376-0.73124-1.4562-0.73125m0-0.975c0.99999 0.00001 1.7854 0.32501 2.3562 0.975 0.57082 0.65001 0.85624 1.55 0.85625 2.7-0.00001 1.1458-0.28543 2.0458-0.85625 2.7-0.57084 0.65-1.3563 0.975-2.3562 0.975-1.0042 0-1.7917-0.325-2.3625-0.975-0.56667-0.65416-0.85-1.5542-0.85-2.7 0-1.15 0.28333-2.05 0.85-2.7 0.57083-0.64999 1.3583-0.97499 2.3625-0.975"/>
  <path id="path3167" style="" d="m297.16 325.13v1.0875c-0.32501-0.16666-0.66251-0.29166-1.0125-0.375-0.35001-0.0833-0.71251-0.12499-1.0875-0.125-0.57084 0.00001-1 0.0875-1.2875 0.2625-0.28334 0.17501-0.425 0.43751-0.425 0.7875 0 0.26668 0.10208 0.47709 0.30625 0.63125 0.20416 0.15001 0.61458 0.29376 1.2312 0.43125l0.39375 0.0875c0.81666 0.17501 1.3958 0.42292 1.7375 0.74375 0.34582 0.31667 0.51874 0.76042 0.51875 1.3312-0.00001 0.65001-0.25834 1.1646-0.775 1.5438-0.51251 0.37917-1.2188 0.56875-2.1188 0.56875-0.37501 0-0.76667-0.0375-1.175-0.1125-0.40417-0.0708-0.83125-0.17916-1.2812-0.325v-1.1875c0.425 0.22084 0.84375 0.38751 1.2562 0.5 0.4125 0.10834 0.82083 0.16251 1.225 0.1625 0.54166 0.00001 0.95833-0.0917 1.25-0.275 0.29166-0.18749 0.43749-0.44999 0.4375-0.7875-0.00001-0.31249-0.10626-0.55208-0.31875-0.71875-0.20834-0.16666-0.66876-0.32708-1.3812-0.48125l-0.4-0.0937c-0.7125-0.14999-1.2271-0.37916-1.5438-0.6875-0.31667-0.31249-0.475-0.73957-0.475-1.2812 0-0.65832 0.23333-1.1667 0.7-1.525 0.46666-0.35832 1.1292-0.53749 1.9875-0.5375 0.42499 0.00001 0.82499 0.0313 1.2 0.0937 0.37499 0.0625 0.72083 0.15626 1.0375 0.28125"/>
 </g>
 <g id="text210" fill="#7f7f7f">
  <path id="path3170" style="" d="m314.06 259.13v1.0875c-0.32501-0.16666-0.66251-0.29166-1.0125-0.375-0.35001-0.0833-0.71251-0.12499-1.0875-0.125-0.57084 0.00001-1 0.0875-1.2875 0.2625-0.28334 0.17501-0.42501 0.43751-0.425 0.7875-0.00001 0.26668 0.10208 0.47709 0.30625 0.63125 0.20416 0.15001 0.61458 0.29376 1.2312 0.43125l0.39375 0.0875c0.81666 0.17501 1.3958 0.42292 1.7375 0.74375 0.34582 0.31667 0.51874 0.76042 0.51875 1.3312-0.00001 0.65001-0.25834 1.1646-0.775 1.5438-0.51251 0.37917-1.2188 0.56875-2.1188 0.56875-0.37501 0-0.76667-0.0375-1.175-0.1125-0.40417-0.0708-0.83126-0.17916-1.2812-0.325v-1.1875c0.42499 0.22084 0.84374 0.38751 1.2562 0.5 0.41249 0.10834 0.82083 0.16251 1.225 0.1625 0.54166 0.00001 0.95833-0.0917 1.25-0.275 0.29166-0.18749 0.43749-0.44999 0.4375-0.7875-0.00001-0.31249-0.10626-0.55208-0.31875-0.71875-0.20834-0.16666-0.66876-0.32708-1.3812-0.48125l-0.4-0.0937c-0.71251-0.14999-1.2271-0.37916-1.5438-0.6875-0.31667-0.31249-0.475-0.73957-0.475-1.2812 0-0.65832 0.23333-1.1667 0.7-1.525 0.46666-0.35832 1.1292-0.53749 1.9875-0.5375 0.42499 0.00001 0.82499 0.0313 1.2 0.0937 0.37499 0.0625 0.72082 0.15626 1.0375 0.28125"/>
  <path id="path3172" style="" d="m315.78 258.93h5.4625v1.05l-4.325 5.0312h4.325v0.91875h-5.6188v-1.05l4.325-5.0312h-4.1688v-0.91875"/>
  <path id="path3174" style="" d="m325.71 259.73c-0.61667 0.00001-1.1042 0.24168-1.4625 0.725-0.35834 0.47918-0.53751 1.1375-0.5375 1.975-0.00001 0.83751 0.17708 1.4979 0.53125 1.9812 0.35833 0.47917 0.84791 0.71876 1.4688 0.71875 0.61249 0.00001 1.0979-0.24166 1.4562-0.725 0.35832-0.48333 0.53749-1.1417 0.5375-1.975-0.00001-0.82916-0.17918-1.4854-0.5375-1.9688-0.35834-0.48749-0.84376-0.73124-1.4562-0.73125m0-0.975c0.99999 0.00001 1.7854 0.32501 2.3562 0.975 0.57082 0.65001 0.85624 1.55 0.85625 2.7-0.00001 1.1458-0.28543 2.0458-0.85625 2.7-0.57084 0.65-1.3563 0.975-2.3562 0.975-1.0042 0-1.7917-0.325-2.3625-0.975-0.56667-0.65416-0.85001-1.5542-0.85-2.7-0.00001-1.15 0.28333-2.05 0.85-2.7 0.57083-0.64999 1.3583-0.97499 2.3625-0.975"/>
  <path id="path3176" style="" d="m335.43 262.35c-0.00001-0.83332-0.17293-1.4792-0.51875-1.9375-0.34168-0.45832-0.82292-0.68749-1.4438-0.6875-0.61667 0.00001-1.0979 0.22918-1.4438 0.6875-0.34167 0.45834-0.51251 1.1042-0.5125 1.9375-0.00001 0.82917 0.17083 1.4729 0.5125 1.9312 0.34583 0.45834 0.82708 0.68751 1.4438 0.6875 0.62083 0.00001 1.1021-0.22916 1.4438-0.6875 0.34582-0.45833 0.51874-1.1021 0.51875-1.9312m1.15 2.7125c-0.00001 1.1917-0.26459 2.0771-0.79375 2.6562-0.52918 0.58334-1.3396 0.875-2.4312 0.875-0.40417 0-0.78542-0.0312-1.1438-0.0937-0.35834-0.0583-0.70626-0.15-1.0438-0.275v-1.1188c0.33749 0.18334 0.67083 0.31875 1 0.40625 0.32916 0.0875 0.66458 0.13125 1.0062 0.13125 0.75416 0 1.3187-0.19791 1.6938-0.59375 0.37499-0.39166 0.56249-0.98541 0.5625-1.7812v-0.56875c-0.23751 0.41251-0.54168 0.72084-0.9125 0.925-0.37084 0.20417-0.81459 0.30625-1.3312 0.30625-0.85834 0-1.55-0.32708-2.075-0.98125-0.525-0.65416-0.7875-1.5208-0.7875-2.6 0-1.0833 0.2625-1.9521 0.7875-2.6062 0.52499-0.65416 1.2167-0.98124 2.075-0.98125 0.51666 0.00001 0.96041 0.10209 1.3312 0.30625 0.37082 0.20418 0.67499 0.51251 0.9125 0.925v-1.0625h1.15v6.1312"/>
 </g>
 <g id="g214" stroke="#7f7f7f" stroke-width="2" fill="none" transform="translate(-.93126 -9.9728)">
  <path id="line216" d="m200 0v275.53"/>
  <path id="polyline218" d="m195 267.76 5 10 5-10"/>
 </g>
 <g id="text220" fill="#7f7f7f">
  <path id="path3181" style="" d="m153.63-3.2728h1.15v9.725h-1.15v-9.725"/>
  <path id="path3183" style="" d="m157.18-0.54783h1.15v7h-1.15v-7m0-2.725h1.15v1.4562h-1.15v-1.4562"/>
  <path id="path3185" style="" d="m165.19-0.34158v1.0875c-0.32501-0.16666-0.66251-0.29166-1.0125-0.375-0.35001-0.083327-0.71251-0.12499-1.0875-0.125-0.57084 0.00000621-1 0.087506-1.2875 0.2625-0.28334 0.17501-0.42501 0.43751-0.425 0.7875-0.00001 0.26667 0.10208 0.47709 0.30625 0.63125 0.20416 0.15 0.61458 0.29375 1.2312 0.43125l0.39375 0.0875c0.81666 0.175 1.3958 0.42292 1.7375 0.74375 0.34582 0.31667 0.51874 0.76042 0.51875 1.3312-0.00001 0.65-0.25834 1.1646-0.775 1.5438-0.51251 0.37917-1.2188 0.56875-2.1188 0.56875-0.37501-1e-7 -0.76667-0.0375-1.175-0.1125-0.40417-0.070833-0.83126-0.17917-1.2812-0.325v-1.1875c0.42499 0.22083 0.84374 0.3875 1.2562 0.5 0.41249 0.10833 0.82083 0.1625 1.225 0.1625 0.54166 8e-7 0.95832-0.091666 1.25-0.275 0.29166-0.1875 0.43749-0.45 0.4375-0.7875-0.00001-0.3125-0.10626-0.55208-0.31875-0.71875-0.20834-0.16666-0.66876-0.32708-1.3812-0.48125l-0.4-0.09375c-0.71251-0.15-1.2271-0.37916-1.5438-0.6875-0.31667-0.3125-0.47501-0.73958-0.475-1.2812-0.00001-0.65833 0.23333-1.1667 0.7-1.525 0.46666-0.35833 1.1292-0.53749 1.9875-0.5375 0.42499 0.00000717 0.82499 0.031257 1.2 0.09375 0.37499 0.062507 0.72082 0.15626 1.0375 0.28125"/>
  <path id="path3187" style="" d="m168.54-2.5353v1.9875h2.3688v0.89375h-2.3688v3.8c-0.00001 0.57084 0.0771 0.9375 0.23125 1.1 0.15833 0.1625 0.47708 0.24375 0.95625 0.24375h1.1812v0.9625h-1.1812c-0.88751 0-1.5-0.16458-1.8375-0.49375-0.33751-0.33333-0.50626-0.9375-0.50625-1.8125v-3.8h-0.84375v-0.89375h0.84375v-1.9875h1.1562"/>
  <path id="path3189" style="" d="m175.61 2.9334c-0.92918 0.0000035-1.5729 0.10625-1.9313 0.31875-0.35833 0.2125-0.5375 0.575-0.5375 1.0875 0 0.40834 0.13334 0.73333 0.4 0.975 0.27084 0.2375 0.6375 0.35625 1.1 0.35625 0.6375 8e-7 1.1479-0.225 1.5313-0.675 0.38749-0.45416 0.58124-1.0562 0.58125-1.8062v-0.25625h-1.1438m2.2938-0.475v3.9938h-1.15v-1.0625c-0.26251 0.425-0.58959 0.73958-0.98125 0.94375-0.39168 0.2-0.87084 0.3-1.4375 0.3-0.71666-1e-7 -1.2875-0.2-1.7125-0.6-0.42083-0.40417-0.63125-0.94375-0.63125-1.6188 0-0.7875 0.2625-1.3812 0.7875-1.7812 0.52917-0.4 1.3167-0.6 2.3625-0.6h1.6125v-0.1125c-0.00001-0.52916-0.17501-0.93749-0.525-1.225-0.34584-0.29166-0.83334-0.43749-1.4625-0.4375-0.4 0.00000619-0.78958 0.047923-1.1688 0.14375-0.38 0.09581-0.74 0.23956-1.09 0.43122v-1.0625c0.42084-0.16249 0.82917-0.28333 1.225-0.3625 0.39584-0.083326 0.78125-0.12499 1.1562-0.125 1.0125 0.00000717 1.7688 0.26251 2.2688 0.7875 0.49999 0.52501 0.74999 1.3208 0.75 2.3875"/>
  <path id="path3191" style="" d="m155.54 18.665v0.5625h-5.2875c0.05 0.79167 0.28749 1.3958 0.7125 1.8125 0.42916 0.4125 1.025 0.61875 1.7875 0.61875 0.44166 0.000001 0.86874-0.05417 1.2812-0.1625 0.41666-0.10833 0.82916-0.27083 1.2375-0.4875v1.0875c-0.41251 0.175-0.83543 0.30833-1.2688 0.4-0.43334 0.09167-0.87293 0.1375-1.3188 0.1375-1.1167 0-2.0021-0.325-2.6562-0.975-0.65001-0.65-0.97501-1.5292-0.975-2.6375-0.00001-1.1458 0.30833-2.0542 0.925-2.725 0.62083-0.67499 1.4562-1.0125 2.5062-1.0125 0.94166 0.000007 1.6854 0.30417 2.2312 0.9125 0.54999 0.60417 0.82499 1.4271 0.825 2.4688m-1.15-0.3375c-0.008-0.62916-0.18543-1.1312-0.53125-1.5062-0.34168-0.37499-0.79584-0.56249-1.3625-0.5625-0.64167 0.000006-1.1563 0.18126-1.5438 0.54375-0.38334 0.3625-0.60417 0.87292-0.6625 1.5312l4.1-0.0062"/>
  <path id="path3193" style="" d="m157.43 12.727h1.15v9.725h-1.15v-9.725"/>
  <path id="path3195" style="" d="m166.96 18.665v0.5625h-5.2875c0.05 0.79167 0.28749 1.3958 0.7125 1.8125 0.42916 0.4125 1.025 0.61875 1.7875 0.61875 0.44166 0.000001 0.86874-0.05417 1.2812-0.1625 0.41666-0.10833 0.82916-0.27083 1.2375-0.4875v1.0875c-0.41251 0.175-0.83543 0.30833-1.2688 0.4-0.43334 0.09167-0.87293 0.1375-1.3188 0.1375-1.1167 0-2.0021-0.325-2.6562-0.975-0.65001-0.65-0.975-1.5292-0.975-2.6375 0-1.1458 0.30833-2.0542 0.925-2.725 0.62083-0.67499 1.4562-1.0125 2.5062-1.0125 0.94166 0.000007 1.6854 0.30417 2.2312 0.9125 0.54999 0.60417 0.82499 1.4271 0.825 2.4688m-1.15-0.3375c-0.008-0.62916-0.18543-1.1312-0.53125-1.5062-0.34168-0.37499-0.79584-0.56249-1.3625-0.5625-0.64167 0.000006-1.1563 0.18126-1.5438 0.54375-0.38334 0.3625-0.60417 0.87292-0.6625 1.5312l4.1-0.0062"/>
  <path id="path3197" style="" d="m168.85 15.452h1.15v7.125c0 0.89167-0.17083 1.5375-0.5125 1.9375-0.3375 0.4-0.88333 0.6-1.6375 0.6h-0.4375v-0.975h0.30625c0.4375-0.000002 0.73542-0.10208 0.89375-0.30625 0.15834-0.2 0.2375-0.61875 0.2375-1.2562v-7.125m0-2.725h1.15v1.4562h-1.15v-1.4562"/>
  <path id="path3199" style="" d="m178.39 18.665v0.5625h-5.2875c0.05 0.79167 0.28749 1.3958 0.7125 1.8125 0.42916 0.4125 1.025 0.61875 1.7875 0.61875 0.44166 0.000001 0.86874-0.05417 1.2812-0.1625 0.41666-0.10833 0.82916-0.27083 1.2375-0.4875v1.0875c-0.41251 0.175-0.83543 0.30833-1.2688 0.4-0.43334 0.09167-0.87293 0.1375-1.3188 0.1375-1.1167 0-2.0021-0.325-2.6562-0.975-0.65-0.65-0.975-1.5292-0.975-2.6375 0-1.1458 0.30833-2.0542 0.925-2.725 0.62083-0.67499 1.4562-1.0125 2.5062-1.0125 0.94166 0.000007 1.6854 0.30417 2.2312 0.9125 0.54999 0.60417 0.82499 1.4271 0.825 2.4688m-1.15-0.3375c-0.008-0.62916-0.18543-1.1312-0.53125-1.5062-0.34168-0.37499-0.79584-0.56249-1.3625-0.5625-0.64167 0.000006-1.1563 0.18126-1.5438 0.54375-0.38334 0.3625-0.60417 0.87292-0.6625 1.5312l4.1-0.0062"/>
 </g>
 <g id="text226" fill="#7f7f7f">
  <path id="path3202" style="" d="m153.63 236.73h1.15v9.725h-1.15v-9.725"/>
  <path id="path3204" style="" d="m157.18 239.45h1.15v7h-1.15v-7m0-2.725h1.15v1.4562h-1.15v-1.4562"/>
  <path id="path3206" style="" d="m165.19 239.66v1.0875c-0.32501-0.16666-0.66251-0.29166-1.0125-0.375-0.35001-0.0833-0.71251-0.12499-1.0875-0.125-0.57084 0.00001-1 0.0875-1.2875 0.2625-0.28334 0.17501-0.42501 0.43751-0.425 0.7875-0.00001 0.26668 0.10208 0.47709 0.30625 0.63125 0.20416 0.15001 0.61458 0.29376 1.2312 0.43125l0.39375 0.0875c0.81666 0.17501 1.3958 0.42292 1.7375 0.74375 0.34582 0.31667 0.51874 0.76042 0.51875 1.3312-0.00001 0.65-0.25834 1.1646-0.775 1.5438-0.51251 0.37917-1.2188 0.56875-2.1188 0.56875-0.37501 0-0.76667-0.0375-1.175-0.1125-0.40417-0.0708-0.83126-0.17916-1.2812-0.325v-1.1875c0.42499 0.22084 0.84374 0.3875 1.2562 0.5 0.41249 0.10834 0.82083 0.1625 1.225 0.1625 0.54166 0 0.95832-0.0917 1.25-0.275 0.29166-0.1875 0.43749-0.44999 0.4375-0.7875-0.00001-0.31249-0.10626-0.55208-0.31875-0.71875-0.20834-0.16666-0.66876-0.32708-1.3812-0.48125l-0.4-0.0937c-0.71251-0.14999-1.2271-0.37916-1.5438-0.6875-0.31667-0.31249-0.47501-0.73958-0.475-1.2812-0.00001-0.65832 0.23333-1.1667 0.7-1.525 0.46666-0.35832 1.1292-0.53749 1.9875-0.5375 0.42499 0.00001 0.82499 0.0313 1.2 0.0937 0.37499 0.0625 0.72082 0.15626 1.0375 0.28125"/>
  <path id="path3208" style="" d="m168.54 237.46v1.9875h2.3688v0.89375h-2.3688v3.8c-0.00001 0.57084 0.0771 0.93751 0.23125 1.1 0.15833 0.1625 0.47708 0.24375 0.95625 0.24375h1.1812v0.9625h-1.1812c-0.88751 0-1.5-0.16458-1.8375-0.49375-0.33751-0.33333-0.50626-0.93749-0.50625-1.8125v-3.8h-0.84375v-0.89375h0.84375v-1.9875h1.1562"/>
  <path id="path3210" style="" d="m175.61 242.93c-0.92918 0.00001-1.5729 0.10626-1.9313 0.31875-0.35833 0.21251-0.5375 0.57501-0.5375 1.0875 0 0.40834 0.13334 0.73334 0.4 0.975 0.27084 0.2375 0.6375 0.35625 1.1 0.35625 0.6375 0 1.1479-0.225 1.5313-0.675 0.38749-0.45416 0.58124-1.0562 0.58125-1.8062v-0.25625h-1.1438m2.2938-0.475v3.9938h-1.15v-1.0625c-0.26251 0.425-0.58959 0.73959-0.98125 0.94375-0.39168 0.2-0.87084 0.3-1.4375 0.3-0.71666 0-1.2875-0.2-1.7125-0.6-0.42083-0.40416-0.63125-0.94374-0.63125-1.6188 0-0.78749 0.2625-1.3812 0.7875-1.7812 0.52917-0.39999 1.3167-0.59999 2.3625-0.6h1.6125v-0.1125c-0.00001-0.52916-0.17501-0.93749-0.525-1.225-0.34584-0.29166-0.83334-0.43749-1.4625-0.4375-0.4 0.00001-0.78958 0.0479-1.1688 0.14375-0.37916 0.0958-0.74375 0.23959-1.0938 0.43125v-1.0625c0.42084-0.16249 0.82917-0.28332 1.225-0.3625 0.39584-0.0833 0.78125-0.12499 1.1562-0.125 1.0125 0.00001 1.7688 0.26251 2.2688 0.7875 0.49999 0.52501 0.74999 1.3208 0.75 2.3875"/>
  <path id="path3212" style="" d="m148 255.45h1.2188l2.1875 5.875 2.1875-5.875h1.2188l-2.625 7h-1.5625l-2.625-7"/>
  <path id="path3214" style="" d="m162.39 258.66v0.5625h-5.2875c0.05 0.79167 0.28749 1.3958 0.7125 1.8125 0.42916 0.4125 1.025 0.61875 1.7875 0.61875 0.44166 0 0.86874-0.0542 1.2812-0.1625 0.41666-0.10833 0.82916-0.27083 1.2375-0.4875v1.0875c-0.41251 0.175-0.83543 0.30833-1.2688 0.4-0.43334 0.0917-0.87293 0.1375-1.3188 0.1375-1.1167 0-2.0021-0.325-2.6562-0.975-0.65001-0.65-0.975-1.5292-0.975-2.6375 0-1.1458 0.30833-2.0542 0.925-2.725 0.62083-0.67499 1.4562-1.0125 2.5062-1.0125 0.94166 0.00001 1.6854 0.30417 2.2312 0.9125 0.54999 0.60417 0.82499 1.4271 0.825 2.4688m-1.15-0.3375c-0.008-0.62916-0.18543-1.1312-0.53125-1.5062-0.34168-0.375-0.79584-0.5625-1.3625-0.5625-0.64167 0-1.1563 0.18125-1.5438 0.54375-0.38334 0.3625-0.60417 0.87292-0.6625 1.5312l4.1-0.006m-1.1062-6.1125h1.2438l-2.0375 2.35h-0.95625l1.75-2.35"/>
  <path id="path3216" style="" d="m168.88 258.87c-0.00001-0.83333-0.17293-1.4792-0.51875-1.9375-0.34168-0.45833-0.82292-0.6875-1.4438-0.6875-0.61667 0-1.0979 0.22917-1.4438 0.6875-0.34167 0.45834-0.51251 1.1042-0.5125 1.9375-0.00001 0.82917 0.17083 1.4729 0.5125 1.9312 0.34583 0.45833 0.82708 0.6875 1.4438 0.6875 0.62083 0 1.1021-0.22917 1.4438-0.6875 0.34582-0.45833 0.51874-1.1021 0.51875-1.9312m1.15 2.7125c-0.00001 1.1917-0.26459 2.0771-0.79375 2.6562-0.52918 0.58333-1.3396 0.875-2.4312 0.875-0.40417 0-0.78542-0.0312-1.1438-0.0937-0.35834-0.0583-0.70626-0.15-1.0438-0.275v-1.1188c0.33749 0.18333 0.67083 0.31875 1 0.40625 0.32916 0.0875 0.66458 0.13125 1.0062 0.13125 0.75416 0 1.3187-0.19792 1.6938-0.59375 0.37499-0.39167 0.56249-0.98542 0.5625-1.7812v-0.56875c-0.23751 0.4125-0.54168 0.72083-0.9125 0.925-0.37084 0.20417-0.81459 0.30625-1.3312 0.30625-0.85834 0-1.55-0.32708-2.075-0.98125s-0.7875-1.5208-0.7875-2.6c0-1.0833 0.2625-1.9521 0.7875-2.6062 0.52499-0.65416 1.2167-0.98124 2.075-0.98125 0.51666 0.00001 0.96041 0.10209 1.3312 0.30625 0.37082 0.20417 0.67499 0.5125 0.9125 0.925v-1.0625h1.15v6.1312"/>
  <path id="path3218" style="" d="m178.39 258.66v0.5625h-5.2875c0.05 0.79167 0.28749 1.3958 0.7125 1.8125 0.42916 0.4125 1.025 0.61875 1.7875 0.61875 0.44166 0 0.86874-0.0542 1.2812-0.1625 0.41666-0.10833 0.82916-0.27083 1.2375-0.4875v1.0875c-0.41251 0.175-0.83543 0.30833-1.2688 0.4-0.43334 0.0917-0.87292 0.1375-1.3188 0.1375-1.1167 0-2.0021-0.325-2.6562-0.975-0.65-0.65-0.975-1.5292-0.975-2.6375 0-1.1458 0.30833-2.0542 0.925-2.725 0.62083-0.67499 1.4562-1.0125 2.5062-1.0125 0.94166 0.00001 1.6854 0.30417 2.2312 0.9125 0.54999 0.60417 0.82499 1.4271 0.825 2.4688m-1.15-0.3375c-0.008-0.62916-0.18543-1.1312-0.53125-1.5062-0.34168-0.375-0.79584-0.5625-1.3625-0.5625-0.64167 0-1.1563 0.18125-1.5438 0.54375-0.38334 0.3625-0.60417 0.87292-0.6625 1.5312l4.1-0.006"/>
 </g>
</svg>
