<?xml version="1.0" encoding="UTF-8" standalone="no"?>
<!-- Created with Inkscape (http://www.inkscape.org/) -->
<svg id="svg2" xmlns:rdf="http://www.w3.org/1999/02/22-rdf-syntax-ns#" xmlns="http://www.w3.org/2000/svg" height="727.28" width="1450.9" version="1.1" xmlns:cc="http://creativecommons.org/ns#" xmlns:dc="http://purl.org/dc/elements/1.1/" viewBox="198 78 801.99998 393.89468">
 <metadata id="metadata98">
  <rdf:RDF>
   <cc:Work rdf:about="">
    <dc:format>image/svg+xml</dc:format>
    <dc:type rdf:resource="http://purl.org/dc/dcmitype/StillImage"/>
   </cc:Work>
  </rdf:RDF>
 </metadata>
 <path id="line4" d="m199 174.95 400-100" stroke="#000" stroke-width="2" fill="none"/>
 <path id="line6" d="m599 74.947 400 100" stroke="#000" stroke-width="2" fill="none"/>
 <path id="line8" d="m199 294.95 400-100" stroke="#e5e5e5" stroke-width="2" fill="none"/>
 <path id="line10" d="m599 194.95 400 100" stroke="#e5e5e5" stroke-width="2" fill="none"/>
 <path id="line12" d="m199 294.95 200-80" stroke="#000" stroke-width="2" fill="none"/>
 <path id="line14" d="m399 214.95 200-20" stroke="#000" stroke-width="2" fill="none"/>
 <path id="line16" d="m599 194.95 200 80" stroke="#000" stroke-width="2" fill="none"/>
 <path id="line18" d="m799 274.95 200 20" stroke="#000" stroke-width="2" fill="none"/>
 <path id="line20" d="m199 394.95 200-80" stroke="#e5e5e5" stroke-width="2" fill="none"/>
 <path id="line22" d="m399 314.95 200-20" stroke="#e5e5e5" stroke-width="2" fill="none"/>
 <path id="line24" d="m599 294.95 200 80" stroke="#e5e5e5" stroke-width="2" fill="none"/>
 <path id="line26" d="m799 374.95 200 20" stroke="#e5e5e5" stroke-width="2" fill="none"/>
 <path id="line28" d="m199 394.95 100-60" stroke="#000" stroke-width="2" fill="none"/>
 <path id="line30" d="m299 334.95 100-20" stroke="#000" stroke-width="2" fill="none"/>
 <path id="line32" d="m399 314.95h100" stroke="#000" stroke-width="2" fill="none"/>
 <path id="line34" d="m499 314.95 100-20" stroke="#000" stroke-width="2" fill="none"/>
 <path id="line36" d="m599 294.95 100 20" stroke="#000" stroke-width="2" fill="none"/>
 <path id="line38" d="m699 314.95 100 60" stroke="#000" stroke-width="2" fill="none"/>
 <path id="line40" d="m799 374.95 100 20" stroke="#000" stroke-width="2" fill="none"/>
 <path id="line42" d="m899 394.95h100" stroke="#000" stroke-width="2" fill="none"/>
 <path id="line44" d="m199 474.95 100-60" stroke="#e5e5e5" stroke-width="2" fill="none"/>
 <path id="line46" d="m299 414.95 100-20" stroke="#e5e5e5" stroke-width="2" fill="none"/>
 <path id="line48" d="m399 394.95h100" stroke="#e5e5e5" stroke-width="2" fill="none"/>
 <path id="line50" d="m499 394.95 100-20" stroke="#e5e5e5" stroke-width="2" fill="none"/>
 <path id="line52" d="m599 374.95 100 20" stroke="#e5e5e5" stroke-width="2" fill="none"/>
 <path id="line54" d="m699 394.95 100 60" stroke="#e5e5e5" stroke-width="2" fill="none"/>
 <path id="line56" d="m799 454.95 100 20" stroke="#e5e5e5" stroke-width="2" fill="none"/>
 <path id="line58" d="m899 474.95h100" stroke="#e5e5e5" stroke-width="2" fill="none"/>
 <path id="line60" d="m199 474.95 50-20" stroke="#000" stroke-width="2" fill="none"/>
 <path id="line62" d="m249 454.95 50-40" stroke="#000" stroke-width="2" fill="none"/>
 <path id="line64" d="m299 414.95 50-20" stroke="#000" stroke-width="2" fill="none"/>
 <path id="line66" d="m349 394.95h50" stroke="#000" stroke-width="2" fill="none"/>
 <path id="line68" d="m399 394.95 50 10" stroke="#000" stroke-width="2" fill="none"/>
 <path id="line70" d="m449 404.95 50-10" stroke="#000" stroke-width="2" fill="none"/>
 <path id="line72" d="m499 394.95 50-20" stroke="#000" stroke-width="2" fill="none"/>
 <path id="line74" d="m549 374.95h50" stroke="#000" stroke-width="2" fill="none"/>
 <path id="line76" d="m599 374.95 50 20" stroke="#000" stroke-width="2" fill="none"/>
 <path id="line78" d="m649 394.95h50" stroke="#000" stroke-width="2" fill="none"/>
 <path id="line80" d="m699 394.95 50 20" stroke="#000" stroke-width="2" fill="none"/>
 <path id="line82" d="m749 414.95 50 40" stroke="#000" stroke-width="2" fill="none"/>
 <path id="line84" d="m799 454.95h50" stroke="#000" stroke-width="2" fill="none"/>
 <path id="line86" d="m849 454.95 50 20" stroke="#000" stroke-width="2" fill="none"/>
 <path id="line88" d="m899 474.95 50-10" stroke="#000" stroke-width="2" fill="none"/>
 <path id="line90" d="m949 464.95 50 10" stroke="#000" stroke-width="2" fill="none"/>
 <path id="line92" d="m199 174.95h800" stroke="#e5e5e5" stroke-width="2" fill="none"/>
</svg>
