<?xml version="1.0" encoding="UTF-8" standalone="no"?>
<!-- Created with Inkscape (http://www.inkscape.org/) -->
<svg id="svg2" xmlns:rdf="http://www.w3.org/1999/02/22-rdf-syntax-ns#" xmlns="http://www.w3.org/2000/svg" height="423.86" width="384.21" version="1.1" xmlns:cc="http://creativecommons.org/ns#" xmlns:dc="http://purl.org/dc/elements/1.1/" viewBox="199 79 198.13561 221.3002">
 <metadata id="metadata206">
  <rdf:RDF>
   <cc:Work rdf:about="">
    <dc:format>image/svg+xml</dc:format>
    <dc:type rdf:resource="http://purl.org/dc/dcmitype/StillImage"/>
   </cc:Work>
  </rdf:RDF>
 </metadata>
 <g id="g4" transform="translate(-1.9322 .00020198)">
  <path id="rect6" fill="#f00" d="m200 100h40v40h-40z"/>
  <path id="rect8" d="m200 100h40v40h-40z" stroke="#000" stroke-width="0.6" fill="none"/>
 </g>
 <g id="g10" transform="translate(-1.9322 .00020198)">
  <path id="rect12" fill="#fff" d="m240 100h40v40h-40z"/>
  <path id="rect14" d="m240 100h40v40h-40z" stroke="#000" stroke-width="0.6" fill="none"/>
 </g>
 <g id="g16" transform="translate(-1.9322 .00020198)">
  <path id="rect18" fill="#800080" d="m280 100h40v40h-40z"/>
  <path id="rect20" d="m280 100h40v40h-40z" stroke="#000" stroke-width="0.6" fill="none"/>
 </g>
 <g id="g22" transform="translate(-1.9322 .00020198)">
  <path id="rect24" fill="#fff" d="m320 100h40v40h-40z"/>
  <path id="rect26" d="m320 100h40v40h-40z" stroke="#000" stroke-width="0.6" fill="none"/>
 </g>
 <g id="g28" transform="translate(-1.9322 .00020198)">
  <path id="rect30" fill="#00f" d="m360 100h40v40h-40z"/>
  <path id="rect32" d="m360 100h40v40h-40z" stroke="#000" stroke-width="0.6" fill="none"/>
 </g>
 <g id="g34" transform="translate(-1.9322 .00020198)">
  <path id="rect36" fill="#fff" d="m200 140h40v40h-40z"/>
  <path id="rect38" d="m200 140h40v40h-40z" stroke="#000" stroke-width="0.6" fill="none"/>
 </g>
 <g id="g40" transform="translate(-1.9322 .00020198)">
  <path id="rect42" fill="#fff" d="m240 140h40v40h-40z"/>
  <path id="rect44" d="m240 140h40v40h-40z" stroke="#000" stroke-width="0.6" fill="none"/>
 </g>
 <g id="g46" transform="translate(-1.9322 .00020198)">
  <path id="rect48" fill="#fff" d="m280 140h40v40h-40z"/>
  <path id="rect50" d="m280 140h40v40h-40z" stroke="#000" stroke-width="0.6" fill="none"/>
 </g>
 <g id="g52" transform="translate(-1.9322 .00020198)">
  <path id="rect54" fill="#fff" d="m320 140h40v40h-40z"/>
  <path id="rect56" d="m320 140h40v40h-40z" stroke="#000" stroke-width="0.6" fill="none"/>
 </g>
 <g id="g58" transform="translate(-1.9322 .00020198)">
  <path id="rect60" fill="#fff" d="m360 140h40v40h-40z"/>
  <path id="rect62" d="m360 140h40v40h-40z" stroke="#000" stroke-width="0.6" fill="none"/>
 </g>
 <g id="g64" transform="translate(-1.9322 .00020198)">
  <path id="rect66" fill="#fff" d="m240 180h40v40h-40z"/>
  <path id="rect68" d="m240 180h40v40h-40z" stroke="#000" stroke-width="0.6" fill="none"/>
 </g>
 <g id="g70" transform="translate(-1.9322 .00020198)">
  <path id="rect72" fill="#eb683e" d="m280 180h40v40h-40z"/>
  <path id="rect74" d="m280 180h40v40h-40z" stroke="#000" stroke-width="0.6" fill="none"/>
 </g>
 <g id="g76" transform="translate(-1.9322 .00020198)">
  <path id="rect78" fill="#fff" d="m320 180h40v40h-40z"/>
  <path id="rect80" d="m320 180h40v40h-40z" stroke="#000" stroke-width="0.6" fill="none"/>
 </g>
 <g id="g82" transform="translate(-1.9322 .00020198)">
  <path id="rect84" fill="#008080" d="m360 180h40v40h-40z"/>
  <path id="rect86" d="m360 180h40v40h-40z" stroke="#000" stroke-width="0.6" fill="none"/>
 </g>
 <g id="g88" transform="translate(-1.9322 .00020198)">
  <path id="rect90" fill="#fff" d="m200 220h40v40h-40z"/>
  <path id="rect92" d="m200 220h40v40h-40z" stroke="#000" stroke-width="0.6" fill="none"/>
 </g>
 <g id="g94" transform="translate(-1.9322 .00020198)">
  <path id="rect96" fill="#fff" d="m240 220h40v40h-40z"/>
  <path id="rect98" d="m240 220h40v40h-40z" stroke="#000" stroke-width="0.6" fill="none"/>
 </g>
 <g id="g100" transform="translate(-1.9322 .00020198)">
  <path id="rect102" fill="#fff" d="m280 220h40v40h-40z"/>
  <path id="rect104" d="m280 220h40v40h-40z" stroke="#000" stroke-width="0.6" fill="none"/>
 </g>
 <g id="g106" transform="translate(-1.9322 .00020198)">
  <path id="rect108" fill="#fff" d="m320 220h40v40h-40z"/>
  <path id="rect110" d="m320 220h40v40h-40z" stroke="#000" stroke-width="0.6" fill="none"/>
 </g>
 <g id="g112" transform="translate(-1.9322 .00020198)">
  <path id="rect114" fill="#fff" d="m360 220h40v40h-40z"/>
  <path id="rect116" d="m360 220h40v40h-40z" stroke="#000" stroke-width="0.6" fill="none"/>
 </g>
 <g id="g118" transform="translate(-1.9322 .00020198)">
  <path id="rect120" fill="#00f" d="m200 260h40v40h-40z"/>
  <path id="rect122" d="m200 260h40v40h-40z" stroke="#000" stroke-width="0.6" fill="none"/>
 </g>
 <g id="g124" transform="translate(-1.9322 .00020198)">
  <path id="rect126" fill="#fff" d="m240 260h40v40h-40z"/>
  <path id="rect128" d="m240 260h40v40h-40z" stroke="#000" stroke-width="0.6" fill="none"/>
 </g>
 <g id="g130" transform="translate(-1.9322 .00020198)">
  <path id="rect132" fill="#008080" d="m280 260h40v40h-40z"/>
  <path id="rect134" d="m280 260h40v40h-40z" stroke="#000" stroke-width="0.6" fill="none"/>
 </g>
 <g id="g136" transform="translate(-1.9322 .00020198)">
  <path id="rect138" fill="#fff" d="m320 260h40v40h-40z"/>
  <path id="rect140" d="m320 260h40v40h-40z" stroke="#000" stroke-width="0.6" fill="none"/>
 </g>
 <g id="g142" transform="translate(-1.9322 .00020198)">
  <path id="rect144" fill="#0f0" d="m360 260h40v40h-40z"/>
  <path id="rect146" d="m360 260h40v40h-40z" stroke="#000" stroke-width="0.6" fill="none"/>
 </g>
 <g id="g148" transform="translate(-1.9322 .00020198)">
  <path id="rect150" fill="#800080" d="m200 180h40v40h-40z"/>
  <path id="rect152" d="m200 180h40v40h-40z" stroke="#000" stroke-width="0.6" fill="none"/>
 </g>
 <g id="g154" transform="translate(-1.9322 .00020198)">
  <path id="path156" d="m293.53 92.908a50 50 0 0 0 -73.53 7.092" stroke="#000" stroke-width="2" fill="none"/>
  <path id="polygon158" d="m294.16 92.211 2.5-5 2 11-10-5z"/>
  <path id="polygon160" d="m294.16 92.211 2.5-5 2 11-10-5z" stroke="#000" stroke-width="2" fill="none"/>
 </g>
 <g id="g162" transform="translate(-1.9322 .00020198)">
  <path id="path164" d="m380 100a50 50 0 0 0 -73.53 -7.092" stroke="#000" stroke-width="2" fill="none"/>
  <path id="polygon166" d="m305.84 92.211 5.5 1-10 5 2-11z"/>
  <path id="polygon168" d="m305.84 92.211 5.5 1-10 5 2-11z" stroke="#000" stroke-width="2" fill="none"/>
 </g>
 <g id="g170" transform="translate(-1.9322 .00020198)">
  <path id="line172" d="m240 140 33.116 33.116" stroke="#000" stroke-width="2" fill="none"/>
  <path id="polygon174" d="m273.12 173.12 1.767-5.304 3.536 10.607-10.607-3.536z"/>
  <path id="polygon176" d="m273.12 173.12 1.767-5.304 3.536 10.607-10.607-3.536z" stroke="#000" stroke-width="2" fill="none"/>
 </g>
 <g id="g178" transform="translate(-1.9322 .00020198)">
  <path id="line180" d="m240 260 33.116-33.116" stroke="#000" stroke-width="2" fill="none"/>
  <path id="polygon182" d="m273.12 226.88-5.304-1.767 10.607-3.536-3.536 10.607z"/>
  <path id="polygon184" d="m273.12 226.88-5.304-1.767 10.607-3.536-3.536 10.607z" stroke="#000" stroke-width="2" fill="none"/>
 </g>
 <g id="g186" transform="translate(-1.9322 .00020198)">
  <path id="line188" d="m360 260-33.12-33.12" stroke="#000" stroke-width="2" fill="none"/>
  <path id="polygon190" d="m326.88 226.88-1.767 5.304-3.536-10.607 10.607 3.536z"/>
  <path id="polygon192" d="m326.88 226.88-1.767 5.304-3.536-10.607 10.607 3.536z" stroke="#000" stroke-width="2" fill="none"/>
 </g>
 <g id="g194" transform="translate(-1.9322 .00020198)">
  <path id="line196" d="m360 140-33.116 33.116" stroke="#000" stroke-width="2" fill="none"/>
  <path id="polygon198" d="m326.88 173.12 5.304 1.767-10.607 3.536 3.536-10.607z"/>
  <path id="polygon200" d="m326.88 173.12 5.304 1.767-10.607 3.536 3.536-10.607z" stroke="#000" stroke-width="2" fill="none"/>
 </g>
</svg>
