<?xml version="1.0" encoding="UTF-8" standalone="no"?>
<!-- Created with Inkscape (http://www.inkscape.org/) -->
<svg id="svg2" xmlns:rdf="http://www.w3.org/1999/02/22-rdf-syntax-ns#" xmlns="http://www.w3.org/2000/svg" height="244.56" width="281.61" version="1.1" xmlns:cc="http://creativecommons.org/ns#" xmlns:dc="http://purl.org/dc/elements/1.1/" viewBox="228 38 151.99999 131.13726">
 <metadata id="metadata68">
  <rdf:RDF>
   <cc:Work rdf:about="">
    <dc:format>image/svg+xml</dc:format>
    <dc:type rdf:resource="http://purl.org/dc/dcmitype/StillImage"/>
   </cc:Work>
  </rdf:RDF>
 </metadata>
 <g id="g4" transform="translate(-1 -1.4314)">
  <path id="rect6" fill="#7be38e" d="m340 40h40v100h-40z"/>
  <path id="rect8" d="m340 40h40v100h-40z" stroke="#7be38e" stroke-width="2" fill="none"/>
 </g>
 <g id="g10" transform="translate(-1 -1.4314)">
  <path id="rect12" fill="#7be38e" d="m230 140h150v30h-150z"/>
  <path id="rect14" d="m230 140h150v30h-150z" stroke="#7be38e" stroke-width="2" fill="none"/>
 </g>
 <path id="line16" d="m229 138.57h110" stroke="#808080" stroke-width="2" fill="none"/>
 <path id="line18" d="m229 158.57 20-20" stroke="#808080" stroke-width="2" fill="none"/>
 <path id="line20" d="m259 168.57 30-30" stroke="#808080" stroke-width="2" fill="none"/>
 <path id="line22" d="m299 168.57 30-30" stroke="#808080" stroke-width="2" fill="none"/>
 <path id="line24" d="m339 168.57 40-40" stroke="#808080" stroke-width="2" fill="none"/>
 <g id="g26" transform="translate(-1 -1.4314)">
  <path id="ellipse28" fill="#f62e2e" d="m340 90c0 27.614-22.386 50-50 50s-50-22.386-50-50 22.386-50 50-50 50 22.386 50 50z"/>
  <path id="ellipse30" d="m340 90c0 27.614-22.386 50-50 50s-50-22.386-50-50 22.386-50 50-50 50 22.386 50 50z" stroke="#cc2626" stroke-width="2" fill="none"/>
 </g>
 <g id="g32" stroke="#000" stroke-width="2" fill="none" transform="translate(-1 -1.4314)">
  <path id="line34" d="m290 90h-27.528"/>
  <path id="polyline36" d="m270.24 85-10 5 10 5"/>
 </g>
 <path id="line38" d="m287 88.569 10-12" stroke="#000" stroke-width="2" fill="none"/>
 <path id="line40" d="m297 76.569v24" stroke="#000" stroke-width="2" fill="none"/>
 <path id="line42" d="m297 100.57 20-24.001" stroke="#000" stroke-width="2" fill="none"/>
 <path id="line44" d="m339 128.57 40-40.001" stroke="#808080" stroke-width="2" fill="none"/>
 <path id="line46" d="m317 76.569v24" stroke="#000" stroke-width="2" fill="none"/>
 <path id="line48" d="m317 100.57 20-24.001" stroke="#000" stroke-width="2" fill="none"/>
 <path id="line50" d="m337 76.569v24" stroke="#000" stroke-width="2" fill="none"/>
 <g id="text52">
  <path id="path3033" style="" d="m249.28 114.78h7.5671v1.4993h-5.7856v3.8806h5.2211v1.4993h-5.2211v6.2883h-1.7815v-13.167"/>
  <path id="path3035" style="" d="m259.83 119.74h11.307v1.4817h-11.307v-1.4817m0 3.5983h11.307v1.4993h-11.307v-1.4993"/>
  <path id="path3037" style="" d="m273.93 122.28h4.7537v1.4464h-4.7537v-1.4464"/>
  <path id="path3039" style="" d="m283.13 116.24v10.239h2.1519c1.8168 0.00001 3.1456-0.41157 3.9864-1.2347 0.84665-0.82314 1.27-2.1225 1.27-3.8982-0.00002-1.7639-0.42335-3.0544-1.27-3.8717-0.8408-0.82313-2.1696-1.2347-3.9864-1.2347h-2.1519m-1.7815-1.464h3.6601c2.5518 0.00001 4.4244 0.53211 5.618 1.5963 1.1936 1.0584 1.7903 2.7164 1.7903 4.9742-0.00001 2.2695-0.59973 3.9364-1.7992 5.0006-1.1994 1.0642-3.0692 1.5963-5.6092 1.5963h-3.6601v-13.167"/>
  <path id="path3041" style="" d="m295.18 114.22h1.6228v13.723h-1.6228v-13.723"/>
 </g>
 <path id="line58" d="m339 138.57v-100" stroke="#808080" stroke-width="2" fill="none"/>
 <path id="line60" d="m339 88.569 40-40" stroke="#808080" stroke-width="2" fill="none"/>
 <path id="line62" d="m339 48.569 10-10" stroke="#808080" stroke-width="2" fill="none"/>
</svg>
