<?xml version="1.0" encoding="UTF-8" standalone="no"?>
<!-- Created with Inkscape (http://www.inkscape.org/) -->
<svg id="svg2" xmlns:rdf="http://www.w3.org/1999/02/22-rdf-syntax-ns#" xmlns="http://www.w3.org/2000/svg" height="435.14" width="740.54" version="1.1" xmlns:cc="http://creativecommons.org/ns#" xmlns:dc="http://purl.org/dc/elements/1.1/" viewBox="293 99 408.03933 230.49732">
 <metadata id="metadata134">
  <rdf:RDF>
   <cc:Work rdf:about="">
    <dc:format>image/svg+xml</dc:format>
    <dc:type rdf:resource="http://purl.org/dc/dcmitype/StillImage"/>
   </cc:Work>
  </rdf:RDF>
 </metadata>
 <g id="g4" stroke="#000" stroke-width="2" fill="none" transform="translate(-1 -4.6333)">
  <path id="line6" d="m300 100v235.53"/>
  <path id="polyline8" d="m295 327.76 5 10 5-10"/>
 </g>
 <g id="text10">
  <path id="path3048" style="" d="m620.96 159.53h2.5466v-8.7897l-2.7704 0.55563v-1.4199l2.755-0.55562h1.5588v10.21h2.5466v1.3119h-6.6366v-1.3119"/>
  <path id="path3050" style="" d="m630.75 158.88h1.6283v1.9601h-1.6283v-1.9601"/>
  <path id="path3052" style="" d="m640.47 157.43v-5.2321h1.4199v5.1781c0 0.818 0.15948 1.4328 0.47845 1.8444 0.31897 0.40643 0.79742 0.60964 1.4354 0.60964 0.76655 0 1.371-0.24437 1.8135-0.73312 0.44757-0.48874 0.67137-1.155 0.67137-1.9987v-4.9003h1.4199v8.643h-1.4199v-1.3273c-0.34469 0.52476-0.74598 0.91575-1.2038 1.173-0.45273 0.25209-0.98006 0.37814-1.582 0.37814-0.99292 0-1.7466-0.30868-2.2611-0.92604-0.51447-0.61736-0.7717-1.5202-0.7717-2.7087m3.573-5.4405"/>
  <path id="path3054" style="" d="m652.05 149.74v2.454h2.9247v1.1035h-2.9247v4.6919c-0.00001 0.70483 0.0952 1.1576 0.28553 1.3582 0.19549 0.20064 0.58906 0.30096 1.1807 0.30096h1.4585v1.1884h-1.4585c-1.0958 0-1.8521-0.20321-2.2688-0.60964-0.41672-0.41157-0.62508-1.1575-0.62508-2.2379v-4.6919h-1.0418v-1.1035h1.0418v-2.454h1.4276"/>
  <path id="path3056" style="" d="m660.78 156.5c-1.1473 0-1.9421 0.13119-2.3846 0.39356-0.44245 0.26239-0.66367 0.70997-0.66366 1.3428-0.00001 0.50418 0.16462 0.90546 0.49388 1.2038 0.3344 0.29325 0.78713 0.43987 1.3582 0.43987 0.78713 0 1.4174-0.27781 1.8907-0.83343 0.47844-0.56077 0.71767-1.3042 0.71768-2.2302v-0.31639h-1.4122m2.8321-0.58649v4.9312h-1.4199v-1.3119c-0.32412 0.52475-0.72798 0.91317-1.2116 1.1653-0.4836 0.24695-1.0752 0.37042-1.7749 0.37042-0.88488 0-1.5897-0.24695-2.1144-0.74083-0.51962-0.49903-0.77942-1.1653-0.77942-1.9987 0-0.97234 0.32411-1.7055 0.97234-2.1994 0.65337-0.49388 1.6257-0.74082 2.917-0.74083h1.991v-0.1389c-0.00001-0.65337-0.21609-1.1576-0.64823-1.5125-0.42701-0.36011-1.0289-0.54018-1.8058-0.54018-0.49389 0-0.97491 0.0592-1.4431 0.17749-0.46817 0.11833-0.91833 0.29582-1.3505 0.53247v-1.3119c0.51961-0.20063 1.0238-0.34983 1.5125-0.44759 0.48874-0.10288 0.96462-0.15433 1.4276-0.15434 1.2501 0.00001 2.1839 0.32413 2.8013 0.97235 0.61736 0.64823 0.92604 1.6309 0.92604 2.9479"/>
  <path id="path3058" style="" d="m672.05 152.45v1.3428c-0.40129-0.20578-0.81801-0.36012-1.2502-0.46302-0.43216-0.10288-0.87974-0.15433-1.3428-0.15434-0.70482 0.00001-1.2347 0.10805-1.5897 0.32412-0.34984 0.21608-0.52476 0.54019-0.52476 0.97234 0 0.32926 0.12605 0.58907 0.37814 0.77941 0.25208 0.18522 0.75883 0.36271 1.5202 0.53247l0.48618 0.10804c1.0083 0.21608 1.7234 0.52219 2.1453 0.91832 0.427 0.391 0.6405 0.93891 0.64051 1.6437-0.00001 0.80257-0.31898 1.4379-0.95691 1.9061-0.6328 0.46817-1.5048 0.70225-2.6161 0.70225-0.46302 0-0.94662-0.0463-1.4508-0.13891-0.49904-0.0875-1.0264-0.22122-1.582-0.40128v-1.4662c0.52476 0.27267 1.0418 0.47845 1.5511 0.61736 0.50932 0.13376 1.0135 0.20064 1.5125 0.20064 0.6688 0 1.1833-0.11318 1.5434-0.33955 0.36012-0.23151 0.54018-0.55562 0.54019-0.97234-0.00001-0.38584-0.1312-0.68166-0.39357-0.88745-0.25724-0.20579-0.82572-0.40385-1.7054-0.59421l-0.49389-0.11576c-0.87974-0.1852-1.5151-0.46816-1.9061-0.84886-0.39099-0.38585-0.58649-0.91318-0.58649-1.582 0-0.81285 0.2881-1.4405 0.8643-1.8829 0.5762-0.44244 1.3942-0.66366 2.454-0.66367 0.52475 0.00001 1.0186 0.0386 1.4817 0.11576 0.46301 0.0772 0.89002 0.19293 1.281 0.34726"/>
  <path id="path3060" style="" d="m676.57 148.2h1.5357l-2.5157 2.9016h-1.1807l2.1608-2.9016m-1.7826 3.9974h1.4199v8.643h-1.4199v-8.643m0.70996-0.20836"/>
  <path id="path3062" style="" d="m680.57 149.74v2.454h2.9247v1.1035h-2.9247v4.6919c0 0.70483 0.0952 1.1576 0.28553 1.3582 0.19549 0.20064 0.58906 0.30096 1.1807 0.30096h1.4585v1.1884h-1.4585c-1.0958 0-1.8521-0.20321-2.2688-0.60964-0.41672-0.41157-0.62507-1.1575-0.62507-2.2379v-4.6919h-1.0418v-1.1035h1.0418v-2.454h1.4276"/>
  <path id="path3064" style="" d="m689.3 156.5c-1.1473 0-1.9421 0.13119-2.3846 0.39356-0.44245 0.26239-0.66367 0.70997-0.66367 1.3428 0 0.50418 0.16463 0.90546 0.49389 1.2038 0.3344 0.29325 0.78713 0.43987 1.3582 0.43987 0.78713 0 1.4174-0.27781 1.8907-0.83343 0.47844-0.56077 0.71767-1.3042 0.71768-2.2302v-0.31639h-1.4122m2.8321-0.58649v4.9312h-1.4199v-1.3119c-0.32412 0.52475-0.72798 0.91317-1.2116 1.1653-0.4836 0.24695-1.0752 0.37042-1.7749 0.37042-0.88488 0-1.5897-0.24695-2.1145-0.74083-0.51961-0.49903-0.77941-1.1653-0.77941-1.9987 0-0.97234 0.32411-1.7055 0.97234-2.1994 0.65337-0.49388 1.6257-0.74082 2.917-0.74083h1.991v-0.1389c-0.00001-0.65337-0.21609-1.1576-0.64823-1.5125-0.42701-0.36011-1.0289-0.54018-1.8058-0.54018-0.49389 0-0.97491 0.0592-1.4431 0.17749-0.46817 0.11833-0.91833 0.29582-1.3505 0.53247v-1.3119c0.51961-0.20063 1.0238-0.34983 1.5125-0.44759 0.48874-0.10288 0.96462-0.15433 1.4276-0.15434 1.2501 0.00001 2.1839 0.32413 2.8013 0.97235 0.61736 0.64823 0.92603 1.6309 0.92604 2.9479m-2.5929-7.7093h1.5357l-2.5157 2.9016h-1.1807l2.1608-2.9016"/>
  <path id="path3066" style="" d="m700.58 152.45v1.3428c-0.40129-0.20578-0.818-0.36012-1.2502-0.46302-0.43216-0.10288-0.87974-0.15433-1.3428-0.15434-0.70482 0.00001-1.2347 0.10805-1.5897 0.32412-0.34984 0.21608-0.52475 0.54019-0.52475 0.97234 0 0.32926 0.12604 0.58907 0.37813 0.77941 0.25209 0.18522 0.75883 0.36271 1.5202 0.53247l0.48617 0.10804c1.0084 0.21608 1.7234 0.52219 2.1453 0.91832 0.427 0.391 0.64051 0.93891 0.64051 1.6437 0 0.80257-0.31897 1.4379-0.9569 1.9061-0.6328 0.46817-1.5048 0.70225-2.6161 0.70225-0.46303 0-0.94663-0.0463-1.4508-0.13891-0.49903-0.0875-1.0264-0.22122-1.582-0.40128v-1.4662c0.52475 0.27267 1.0418 0.47845 1.5511 0.61736 0.50932 0.13376 1.0135 0.20064 1.5125 0.20064 0.6688 0 1.1833-0.11318 1.5434-0.33955 0.36012-0.23151 0.54019-0.55562 0.54019-0.97234 0-0.38584-0.13119-0.68166-0.39357-0.88745-0.25723-0.20579-0.82572-0.40385-1.7054-0.59421l-0.49389-0.11576c-0.87974-0.1852-1.5151-0.46816-1.9061-0.84886-0.39099-0.38585-0.58649-0.91318-0.58649-1.582 0-0.81285 0.2881-1.4405 0.86431-1.8829 0.5762-0.44244 1.3942-0.66366 2.454-0.66367 0.52475 0.00001 1.0186 0.0386 1.4817 0.11576 0.46302 0.0772 0.89002 0.19293 1.281 0.34726"/>
 </g>
 <g id="text14">
  <path id="path3069" style="" d="m622.03 199.53h5.4405v1.3119h-7.3157v-1.3119c0.59163-0.61222 1.3968-1.4328 2.4154-2.4617 1.0238-1.0341 1.6669-1.7003 1.9292-1.9987 0.49902-0.56076 0.84629-1.0341 1.0418-1.4199 0.20063-0.39099 0.30096-0.77427 0.30096-1.1498 0-0.61221-0.21608-1.1112-0.64823-1.4971-0.42701-0.38584-0.9852-0.57876-1.6746-0.57877-0.48875 0.00001-1.0058 0.0849-1.5511 0.25466-0.54019 0.16978-1.119 0.42701-1.7363 0.7717v-1.5743c0.62765-0.25208 1.2141-0.44243 1.7595-0.57106 0.54533-0.1286 1.0444-0.19291 1.4971-0.19292 1.1936 0.00001 2.1453 0.2984 2.8553 0.89517 0.70995 0.59679 1.0649 1.3942 1.0649 2.3923-0.00001 0.47331-0.09 0.92347-0.27009 1.3505-0.17493 0.42187-0.49647 0.9209-0.96463 1.4971-0.12862 0.1492-0.53762 0.58135-1.227 1.2964-0.68939 0.70997-1.6617 1.7055-2.917 2.9865"/>
  <path id="path3071" style="" d="m630.75 198.88h1.6283v1.9601h-1.6283v-1.9601"/>
  <path id="path3073" style="" d="m640.47 197.43v-5.2321h1.4199v5.1781c0 0.818 0.15948 1.4328 0.47845 1.8444 0.31897 0.40643 0.79742 0.60964 1.4354 0.60964 0.76655 0 1.371-0.24437 1.8135-0.73312 0.44757-0.48874 0.67137-1.155 0.67137-1.9987v-4.9003h1.4199v8.643h-1.4199v-1.3273c-0.34469 0.52476-0.74598 0.91575-1.2038 1.173-0.45273 0.25209-0.98006 0.37814-1.582 0.37814-0.99292 0-1.7466-0.30868-2.2611-0.92604-0.51447-0.61736-0.7717-1.5202-0.7717-2.7087m3.573-5.4405"/>
  <path id="path3075" style="" d="m652.05 189.74v2.454h2.9247v1.1035h-2.9247v4.6919c-0.00001 0.70483 0.0952 1.1576 0.28553 1.3582 0.19549 0.20064 0.58906 0.30096 1.1807 0.30096h1.4585v1.1884h-1.4585c-1.0958 0-1.8521-0.20321-2.2688-0.60964-0.41672-0.41157-0.62508-1.1575-0.62508-2.2379v-4.6919h-1.0418v-1.1035h1.0418v-2.454h1.4276"/>
  <path id="path3077" style="" d="m660.78 196.5c-1.1473 0-1.9421 0.13119-2.3846 0.39356-0.44245 0.26239-0.66367 0.70997-0.66366 1.3428-0.00001 0.50418 0.16462 0.90546 0.49388 1.2038 0.3344 0.29325 0.78713 0.43987 1.3582 0.43987 0.78713 0 1.4174-0.27781 1.8907-0.83343 0.47844-0.56077 0.71767-1.3042 0.71768-2.2302v-0.31639h-1.4122m2.8321-0.58649v4.9312h-1.4199v-1.3119c-0.32412 0.52475-0.72798 0.91317-1.2116 1.1653-0.4836 0.24695-1.0752 0.37042-1.7749 0.37042-0.88488 0-1.5897-0.24695-2.1144-0.74083-0.51962-0.49903-0.77942-1.1653-0.77942-1.9987 0-0.97234 0.32411-1.7055 0.97234-2.1994 0.65337-0.49388 1.6257-0.74082 2.917-0.74083h1.991v-0.1389c-0.00001-0.65337-0.21609-1.1576-0.64823-1.5125-0.42701-0.36011-1.0289-0.54018-1.8058-0.54018-0.49389 0-0.97491 0.0592-1.4431 0.17749-0.46817 0.11833-0.91833 0.29582-1.3505 0.53247v-1.3119c0.51961-0.20063 1.0238-0.34983 1.5125-0.44759 0.48874-0.10288 0.96462-0.15433 1.4276-0.15434 1.2501 0.00001 2.1839 0.32413 2.8013 0.97235 0.61736 0.64823 0.92604 1.6309 0.92604 2.9479"/>
  <path id="path3079" style="" d="m672.05 192.45v1.3428c-0.40129-0.20578-0.81801-0.36012-1.2502-0.46302-0.43216-0.10288-0.87974-0.15433-1.3428-0.15434-0.70482 0.00001-1.2347 0.10805-1.5897 0.32412-0.34984 0.21608-0.52476 0.54019-0.52476 0.97234 0 0.32926 0.12605 0.58907 0.37814 0.77941 0.25208 0.18522 0.75883 0.36271 1.5202 0.53247l0.48618 0.10804c1.0083 0.21608 1.7234 0.52219 2.1453 0.91832 0.427 0.391 0.6405 0.93891 0.64051 1.6437-0.00001 0.80257-0.31898 1.4379-0.95691 1.9061-0.6328 0.46817-1.5048 0.70225-2.6161 0.70225-0.46302 0-0.94662-0.0463-1.4508-0.13891-0.49904-0.0875-1.0264-0.22122-1.582-0.40128v-1.4662c0.52476 0.27267 1.0418 0.47845 1.5511 0.61736 0.50932 0.13376 1.0135 0.20064 1.5125 0.20064 0.6688 0 1.1833-0.11318 1.5434-0.33955 0.36012-0.23151 0.54018-0.55562 0.54019-0.97234-0.00001-0.38584-0.1312-0.68166-0.39357-0.88745-0.25724-0.20579-0.82572-0.40385-1.7054-0.59421l-0.49389-0.11576c-0.87974-0.1852-1.5151-0.46816-1.9061-0.84886-0.39099-0.38585-0.58649-0.91318-0.58649-1.582 0-0.81285 0.2881-1.4405 0.8643-1.8829 0.5762-0.44244 1.3942-0.66366 2.454-0.66367 0.52475 0.00001 1.0186 0.0386 1.4817 0.11576 0.46301 0.0772 0.89002 0.19293 1.281 0.34726"/>
  <path id="path3081" style="" d="m676.57 188.2h1.5357l-2.5157 2.9016h-1.1807l2.1608-2.9016m-1.7826 3.9974h1.4199v8.643h-1.4199v-8.643m0.70996-0.20836"/>
  <path id="path3083" style="" d="m680.57 189.74v2.454h2.9247v1.1035h-2.9247v4.6919c0 0.70483 0.0952 1.1576 0.28553 1.3582 0.19549 0.20064 0.58906 0.30096 1.1807 0.30096h1.4585v1.1884h-1.4585c-1.0958 0-1.8521-0.20321-2.2688-0.60964-0.41672-0.41157-0.62507-1.1575-0.62507-2.2379v-4.6919h-1.0418v-1.1035h1.0418v-2.454h1.4276"/>
  <path id="path3085" style="" d="m689.3 196.5c-1.1473 0-1.9421 0.13119-2.3846 0.39356-0.44245 0.26239-0.66367 0.70997-0.66367 1.3428 0 0.50418 0.16463 0.90546 0.49389 1.2038 0.3344 0.29325 0.78713 0.43987 1.3582 0.43987 0.78713 0 1.4174-0.27781 1.8907-0.83343 0.47844-0.56077 0.71767-1.3042 0.71768-2.2302v-0.31639h-1.4122m2.8321-0.58649v4.9312h-1.4199v-1.3119c-0.32412 0.52475-0.72798 0.91317-1.2116 1.1653-0.4836 0.24695-1.0752 0.37042-1.7749 0.37042-0.88488 0-1.5897-0.24695-2.1145-0.74083-0.51961-0.49903-0.77941-1.1653-0.77941-1.9987 0-0.97234 0.32411-1.7055 0.97234-2.1994 0.65337-0.49388 1.6257-0.74082 2.917-0.74083h1.991v-0.1389c-0.00001-0.65337-0.21609-1.1576-0.64823-1.5125-0.42701-0.36011-1.0289-0.54018-1.8058-0.54018-0.49389 0-0.97491 0.0592-1.4431 0.17749-0.46817 0.11833-0.91833 0.29582-1.3505 0.53247v-1.3119c0.51961-0.20063 1.0238-0.34983 1.5125-0.44759 0.48874-0.10288 0.96462-0.15433 1.4276-0.15434 1.2501 0.00001 2.1839 0.32413 2.8013 0.97235 0.61736 0.64823 0.92603 1.6309 0.92604 2.9479m-2.5929-7.7093h1.5357l-2.5157 2.9016h-1.1807l2.1608-2.9016"/>
  <path id="path3087" style="" d="m700.58 192.45v1.3428c-0.40129-0.20578-0.818-0.36012-1.2502-0.46302-0.43216-0.10288-0.87974-0.15433-1.3428-0.15434-0.70482 0.00001-1.2347 0.10805-1.5897 0.32412-0.34984 0.21608-0.52475 0.54019-0.52475 0.97234 0 0.32926 0.12604 0.58907 0.37813 0.77941 0.25209 0.18522 0.75883 0.36271 1.5202 0.53247l0.48617 0.10804c1.0084 0.21608 1.7234 0.52219 2.1453 0.91832 0.427 0.391 0.64051 0.93891 0.64051 1.6437 0 0.80257-0.31897 1.4379-0.9569 1.9061-0.6328 0.46817-1.5048 0.70225-2.6161 0.70225-0.46303 0-0.94663-0.0463-1.4508-0.13891-0.49903-0.0875-1.0264-0.22122-1.582-0.40128v-1.4662c0.52475 0.27267 1.0418 0.47845 1.5511 0.61736 0.50932 0.13376 1.0135 0.20064 1.5125 0.20064 0.6688 0 1.1833-0.11318 1.5434-0.33955 0.36012-0.23151 0.54019-0.55562 0.54019-0.97234 0-0.38584-0.13119-0.68166-0.39357-0.88745-0.25723-0.20579-0.82572-0.40385-1.7054-0.59421l-0.49389-0.11576c-0.87974-0.1852-1.5151-0.46816-1.9061-0.84886-0.39099-0.38585-0.58649-0.91318-0.58649-1.582 0-0.81285 0.2881-1.4405 0.86431-1.8829 0.5762-0.44244 1.3942-0.66366 2.454-0.66367 0.52475 0.00001 1.0186 0.0386 1.4817 0.11576 0.46302 0.0772 0.89002 0.19293 1.281 0.34726"/>
 </g>
 <g id="text18">
  <path id="path3090" style="" d="m625.41 234.63c0.74597 0.15949 1.3273 0.49132 1.744 0.99549 0.42185 0.50418 0.63279 1.1267 0.63279 1.8675 0 1.137-0.391 2.0167-1.173 2.6392-0.78199 0.62251-1.8932 0.93376-3.3337 0.93376-0.4836 0-0.98263-0.0489-1.4971-0.14663-0.50932-0.0926-1.0366-0.23408-1.582-0.42443v-1.5048c0.43215 0.25209 0.90546 0.44244 1.4199 0.57105 0.51446 0.12862 1.0521 0.19293 1.6128 0.19293 0.97748 0 1.7209-0.19292 2.2302-0.57878 0.51446-0.38584 0.77169-0.94661 0.7717-1.6823-0.00001-0.67909-0.23923-1.209-0.71768-1.5897-0.47332-0.38584-1.1344-0.57877-1.9833-0.57877h-1.3428v-1.281h1.4045c0.76655 0.00001 1.353-0.15176 1.7595-0.4553 0.40642-0.30867 0.60964-0.75111 0.60964-1.3273 0-0.59163-0.21093-1.0444-0.63279-1.3582-0.41672-0.31896-1.0161-0.47844-1.7981-0.47845-0.42701 0.00001-0.88488 0.0463-1.3736 0.1389-0.48875 0.0926-1.0264 0.23667-1.6128 0.43215v-1.3891c0.59163-0.16461 1.1447-0.28809 1.6592-0.37041 0.51961-0.0823 1.0084-0.12346 1.4662-0.12347 1.1833 0.00001 2.1196 0.2701 2.809 0.81028 0.68938 0.53506 1.0341 1.2604 1.0341 2.1762-0.00001 0.63795-0.18264 1.1781-0.54791 1.6206-0.36528 0.4373-0.88489 0.74084-1.5588 0.91061"/>
  <path id="path3092" style="" d="m630.75 238.88h1.6283v1.9601h-1.6283v-1.9601"/>
  <path id="path3094" style="" d="m640.47 237.43v-5.2321h1.4199v5.1781c0 0.818 0.15948 1.4328 0.47845 1.8444 0.31897 0.40643 0.79742 0.60964 1.4354 0.60964 0.76655 0 1.371-0.24437 1.8135-0.73312 0.44757-0.48874 0.67137-1.155 0.67137-1.9987v-4.9003h1.4199v8.643h-1.4199v-1.3273c-0.34469 0.52476-0.74598 0.91575-1.2038 1.173-0.45273 0.25209-0.98006 0.37814-1.582 0.37814-0.99292 0-1.7466-0.30868-2.2611-0.92604-0.51447-0.61736-0.7717-1.5202-0.7717-2.7087m3.573-5.4405"/>
  <path id="path3096" style="" d="m652.05 229.74v2.454h2.9247v1.1035h-2.9247v4.6919c-0.00001 0.70483 0.0952 1.1576 0.28553 1.3582 0.19549 0.20064 0.58906 0.30096 1.1807 0.30096h1.4585v1.1884h-1.4585c-1.0958 0-1.8521-0.20321-2.2688-0.60964-0.41672-0.41157-0.62508-1.1575-0.62508-2.2379v-4.6919h-1.0418v-1.1035h1.0418v-2.454h1.4276"/>
  <path id="path3098" style="" d="m660.78 236.5c-1.1473 0-1.9421 0.13119-2.3846 0.39356-0.44245 0.26239-0.66367 0.70997-0.66366 1.3428-0.00001 0.50418 0.16462 0.90546 0.49388 1.2038 0.3344 0.29325 0.78713 0.43987 1.3582 0.43987 0.78713 0 1.4174-0.27781 1.8907-0.83343 0.47844-0.56077 0.71767-1.3042 0.71768-2.2302v-0.31639h-1.4122m2.8321-0.58649v4.9312h-1.4199v-1.3119c-0.32412 0.52475-0.72798 0.91317-1.2116 1.1653-0.4836 0.24695-1.0752 0.37042-1.7749 0.37042-0.88488 0-1.5897-0.24695-2.1144-0.74083-0.51962-0.49903-0.77942-1.1653-0.77942-1.9987 0-0.97234 0.32411-1.7055 0.97234-2.1994 0.65337-0.49388 1.6257-0.74082 2.917-0.74083h1.991v-0.1389c-0.00001-0.65337-0.21609-1.1576-0.64823-1.5125-0.42701-0.36011-1.0289-0.54018-1.8058-0.54018-0.49389 0-0.97491 0.0592-1.4431 0.17749-0.46817 0.11833-0.91833 0.29582-1.3505 0.53247v-1.3119c0.51961-0.20063 1.0238-0.34983 1.5125-0.44759 0.48874-0.10288 0.96462-0.15433 1.4276-0.15434 1.2501 0.00001 2.1839 0.32413 2.8013 0.97235 0.61736 0.64823 0.92604 1.6309 0.92604 2.9479"/>
  <path id="path3100" style="" d="m672.05 232.45v1.3428c-0.40129-0.20578-0.81801-0.36012-1.2502-0.46302-0.43216-0.10288-0.87974-0.15433-1.3428-0.15434-0.70482 0.00001-1.2347 0.10805-1.5897 0.32412-0.34984 0.21608-0.52476 0.54019-0.52476 0.97234 0 0.32926 0.12605 0.58907 0.37814 0.77941 0.25208 0.18522 0.75883 0.36271 1.5202 0.53247l0.48618 0.10804c1.0083 0.21608 1.7234 0.52219 2.1453 0.91832 0.427 0.391 0.6405 0.93891 0.64051 1.6437-0.00001 0.80257-0.31898 1.4379-0.95691 1.9061-0.6328 0.46817-1.5048 0.70225-2.6161 0.70225-0.46302 0-0.94662-0.0463-1.4508-0.13891-0.49904-0.0875-1.0264-0.22122-1.582-0.40128v-1.4662c0.52476 0.27267 1.0418 0.47845 1.5511 0.61736 0.50932 0.13376 1.0135 0.20064 1.5125 0.20064 0.6688 0 1.1833-0.11318 1.5434-0.33955 0.36012-0.23151 0.54018-0.55562 0.54019-0.97234-0.00001-0.38584-0.1312-0.68166-0.39357-0.88745-0.25724-0.20579-0.82572-0.40385-1.7054-0.59421l-0.49389-0.11576c-0.87974-0.1852-1.5151-0.46816-1.9061-0.84886-0.39099-0.38585-0.58649-0.91318-0.58649-1.582 0-0.81285 0.2881-1.4405 0.8643-1.8829 0.5762-0.44244 1.3942-0.66366 2.454-0.66367 0.52475 0.00001 1.0186 0.0386 1.4817 0.11576 0.46301 0.0772 0.89002 0.19293 1.281 0.34726"/>
  <path id="path3102" style="" d="m676.57 228.2h1.5357l-2.5157 2.9016h-1.1807l2.1608-2.9016m-1.7826 3.9974h1.4199v8.643h-1.4199v-8.643m0.70996-0.20836"/>
  <path id="path3104" style="" d="m680.57 229.74v2.454h2.9247v1.1035h-2.9247v4.6919c0 0.70483 0.0952 1.1576 0.28553 1.3582 0.19549 0.20064 0.58906 0.30096 1.1807 0.30096h1.4585v1.1884h-1.4585c-1.0958 0-1.8521-0.20321-2.2688-0.60964-0.41672-0.41157-0.62507-1.1575-0.62507-2.2379v-4.6919h-1.0418v-1.1035h1.0418v-2.454h1.4276"/>
  <path id="path3106" style="" d="m689.3 236.5c-1.1473 0-1.9421 0.13119-2.3846 0.39356-0.44245 0.26239-0.66367 0.70997-0.66367 1.3428 0 0.50418 0.16463 0.90546 0.49389 1.2038 0.3344 0.29325 0.78713 0.43987 1.3582 0.43987 0.78713 0 1.4174-0.27781 1.8907-0.83343 0.47844-0.56077 0.71767-1.3042 0.71768-2.2302v-0.31639h-1.4122m2.8321-0.58649v4.9312h-1.4199v-1.3119c-0.32412 0.52475-0.72798 0.91317-1.2116 1.1653-0.4836 0.24695-1.0752 0.37042-1.7749 0.37042-0.88488 0-1.5897-0.24695-2.1145-0.74083-0.51961-0.49903-0.77941-1.1653-0.77941-1.9987 0-0.97234 0.32411-1.7055 0.97234-2.1994 0.65337-0.49388 1.6257-0.74082 2.917-0.74083h1.991v-0.1389c-0.00001-0.65337-0.21609-1.1576-0.64823-1.5125-0.42701-0.36011-1.0289-0.54018-1.8058-0.54018-0.49389 0-0.97491 0.0592-1.4431 0.17749-0.46817 0.11833-0.91833 0.29582-1.3505 0.53247v-1.3119c0.51961-0.20063 1.0238-0.34983 1.5125-0.44759 0.48874-0.10288 0.96462-0.15433 1.4276-0.15434 1.2501 0.00001 2.1839 0.32413 2.8013 0.97235 0.61736 0.64823 0.92603 1.6309 0.92604 2.9479m-2.5929-7.7093h1.5357l-2.5157 2.9016h-1.1807l2.1608-2.9016"/>
  <path id="path3108" style="" d="m700.58 232.45v1.3428c-0.40129-0.20578-0.818-0.36012-1.2502-0.46302-0.43216-0.10288-0.87974-0.15433-1.3428-0.15434-0.70482 0.00001-1.2347 0.10805-1.5897 0.32412-0.34984 0.21608-0.52475 0.54019-0.52475 0.97234 0 0.32926 0.12604 0.58907 0.37813 0.77941 0.25209 0.18522 0.75883 0.36271 1.5202 0.53247l0.48617 0.10804c1.0084 0.21608 1.7234 0.52219 2.1453 0.91832 0.427 0.391 0.64051 0.93891 0.64051 1.6437 0 0.80257-0.31897 1.4379-0.9569 1.9061-0.6328 0.46817-1.5048 0.70225-2.6161 0.70225-0.46303 0-0.94663-0.0463-1.4508-0.13891-0.49903-0.0875-1.0264-0.22122-1.582-0.40128v-1.4662c0.52475 0.27267 1.0418 0.47845 1.5511 0.61736 0.50932 0.13376 1.0135 0.20064 1.5125 0.20064 0.6688 0 1.1833-0.11318 1.5434-0.33955 0.36012-0.23151 0.54019-0.55562 0.54019-0.97234 0-0.38584-0.13119-0.68166-0.39357-0.88745-0.25723-0.20579-0.82572-0.40385-1.7054-0.59421l-0.49389-0.11576c-0.87974-0.1852-1.5151-0.46816-1.9061-0.84886-0.39099-0.38585-0.58649-0.91318-0.58649-1.582 0-0.81285 0.2881-1.4405 0.86431-1.8829 0.5762-0.44244 1.3942-0.66366 2.454-0.66367 0.52475 0.00001 1.0186 0.0386 1.4817 0.11576 0.46302 0.0772 0.89002 0.19293 1.281 0.34726"/>
 </g>
 <g id="text22">
  <path id="path3111" style="" d="m624.97 270.68-3.9357 6.1504h3.9357v-6.1504m-0.409-1.3582h1.9601v7.5086h1.6437v1.2964h-1.6437v2.7164h-1.5511v-2.7164h-5.2012v-1.5048l4.7922-7.3003"/>
  <path id="path3113" style="" d="m630.75 278.88h1.6283v1.9601h-1.6283v-1.9601"/>
  <path id="path3115" style="" d="m640.47 277.43v-5.2321h1.4199v5.1781c0 0.818 0.15948 1.4328 0.47845 1.8444 0.31897 0.40643 0.79742 0.60964 1.4354 0.60964 0.76655 0 1.371-0.24437 1.8135-0.73312 0.44757-0.48874 0.67137-1.155 0.67137-1.9987v-4.9003h1.4199v8.643h-1.4199v-1.3273c-0.34469 0.52476-0.74598 0.91575-1.2038 1.173-0.45273 0.25209-0.98006 0.37814-1.582 0.37814-0.99292 0-1.7466-0.30868-2.2611-0.92604-0.51447-0.61736-0.7717-1.5202-0.7717-2.7087m3.573-5.4405"/>
  <path id="path3117" style="" d="m652.05 269.74v2.454h2.9247v1.1035h-2.9247v4.6919c-0.00001 0.70483 0.0952 1.1576 0.28553 1.3582 0.19549 0.20064 0.58906 0.30096 1.1807 0.30096h1.4585v1.1884h-1.4585c-1.0958 0-1.8521-0.20321-2.2688-0.60964-0.41672-0.41157-0.62508-1.1575-0.62508-2.2379v-4.6919h-1.0418v-1.1035h1.0418v-2.454h1.4276"/>
  <path id="path3119" style="" d="m660.78 276.5c-1.1473 0-1.9421 0.13119-2.3846 0.39356-0.44245 0.26239-0.66367 0.70997-0.66366 1.3428-0.00001 0.50418 0.16462 0.90546 0.49388 1.2038 0.3344 0.29325 0.78713 0.43987 1.3582 0.43987 0.78713 0 1.4174-0.27781 1.8907-0.83343 0.47844-0.56077 0.71767-1.3042 0.71768-2.2302v-0.31639h-1.4122m2.8321-0.58649v4.9312h-1.4199v-1.3119c-0.32412 0.52475-0.72798 0.91317-1.2116 1.1653-0.4836 0.24695-1.0752 0.37042-1.7749 0.37042-0.88488 0-1.5897-0.24695-2.1144-0.74083-0.51962-0.49903-0.77942-1.1653-0.77942-1.9987 0-0.97234 0.32411-1.7055 0.97234-2.1994 0.65337-0.49388 1.6257-0.74082 2.917-0.74083h1.991v-0.1389c-0.00001-0.65337-0.21609-1.1576-0.64823-1.5125-0.42701-0.36011-1.0289-0.54018-1.8058-0.54018-0.49389 0-0.97491 0.0592-1.4431 0.17749-0.46817 0.11833-0.91833 0.29582-1.3505 0.53247v-1.3119c0.51961-0.20063 1.0238-0.34983 1.5125-0.44759 0.48874-0.10288 0.96462-0.15433 1.4276-0.15434 1.2501 0.00001 2.1839 0.32413 2.8013 0.97235 0.61736 0.64823 0.92604 1.6309 0.92604 2.9479"/>
  <path id="path3121" style="" d="m672.05 272.45v1.3428c-0.40129-0.20578-0.81801-0.36012-1.2502-0.46302-0.43216-0.10288-0.87974-0.15433-1.3428-0.15434-0.70482 0.00001-1.2347 0.10805-1.5897 0.32412-0.34984 0.21608-0.52476 0.54019-0.52476 0.97234 0 0.32926 0.12605 0.58907 0.37814 0.77941 0.25208 0.18522 0.75883 0.36271 1.5202 0.53247l0.48618 0.10804c1.0083 0.21608 1.7234 0.52219 2.1453 0.91832 0.427 0.391 0.6405 0.93891 0.64051 1.6437-0.00001 0.80257-0.31898 1.4379-0.95691 1.9061-0.6328 0.46817-1.5048 0.70225-2.6161 0.70225-0.46302 0-0.94662-0.0463-1.4508-0.13891-0.49904-0.0875-1.0264-0.22122-1.582-0.40128v-1.4662c0.52476 0.27267 1.0418 0.47845 1.5511 0.61736 0.50932 0.13376 1.0135 0.20064 1.5125 0.20064 0.6688 0 1.1833-0.11318 1.5434-0.33955 0.36012-0.23151 0.54018-0.55562 0.54019-0.97234-0.00001-0.38584-0.1312-0.68166-0.39357-0.88745-0.25724-0.20579-0.82572-0.40385-1.7054-0.59421l-0.49389-0.11576c-0.87974-0.1852-1.5151-0.46816-1.9061-0.84886-0.39099-0.38585-0.58649-0.91318-0.58649-1.582 0-0.81285 0.2881-1.4405 0.8643-1.8829 0.5762-0.44244 1.3942-0.66366 2.454-0.66367 0.52475 0.00001 1.0186 0.0386 1.4817 0.11576 0.46301 0.0772 0.89002 0.19293 1.281 0.34726"/>
  <path id="path3123" style="" d="m676.57 268.2h1.5357l-2.5157 2.9016h-1.1807l2.1608-2.9016m-1.7826 3.9974h1.4199v8.643h-1.4199v-8.643m0.70996-0.20836"/>
  <path id="path3125" style="" d="m680.57 269.74v2.454h2.9247v1.1035h-2.9247v4.6919c0 0.70483 0.0952 1.1576 0.28553 1.3582 0.19549 0.20064 0.58906 0.30096 1.1807 0.30096h1.4585v1.1884h-1.4585c-1.0958 0-1.8521-0.20321-2.2688-0.60964-0.41672-0.41157-0.62507-1.1575-0.62507-2.2379v-4.6919h-1.0418v-1.1035h1.0418v-2.454h1.4276"/>
  <path id="path3127" style="" d="m689.3 276.5c-1.1473 0-1.9421 0.13119-2.3846 0.39356-0.44245 0.26239-0.66367 0.70997-0.66367 1.3428 0 0.50418 0.16463 0.90546 0.49389 1.2038 0.3344 0.29325 0.78713 0.43987 1.3582 0.43987 0.78713 0 1.4174-0.27781 1.8907-0.83343 0.47844-0.56077 0.71767-1.3042 0.71768-2.2302v-0.31639h-1.4122m2.8321-0.58649v4.9312h-1.4199v-1.3119c-0.32412 0.52475-0.72798 0.91317-1.2116 1.1653-0.4836 0.24695-1.0752 0.37042-1.7749 0.37042-0.88488 0-1.5897-0.24695-2.1145-0.74083-0.51961-0.49903-0.77941-1.1653-0.77941-1.9987 0-0.97234 0.32411-1.7055 0.97234-2.1994 0.65337-0.49388 1.6257-0.74082 2.917-0.74083h1.991v-0.1389c-0.00001-0.65337-0.21609-1.1576-0.64823-1.5125-0.42701-0.36011-1.0289-0.54018-1.8058-0.54018-0.49389 0-0.97491 0.0592-1.4431 0.17749-0.46817 0.11833-0.91833 0.29582-1.3505 0.53247v-1.3119c0.51961-0.20063 1.0238-0.34983 1.5125-0.44759 0.48874-0.10288 0.96462-0.15433 1.4276-0.15434 1.2501 0.00001 2.1839 0.32413 2.8013 0.97235 0.61736 0.64823 0.92603 1.6309 0.92604 2.9479m-2.5929-7.7093h1.5357l-2.5157 2.9016h-1.1807l2.1608-2.9016"/>
  <path id="path3129" style="" d="m700.58 272.45v1.3428c-0.40129-0.20578-0.818-0.36012-1.2502-0.46302-0.43216-0.10288-0.87974-0.15433-1.3428-0.15434-0.70482 0.00001-1.2347 0.10805-1.5897 0.32412-0.34984 0.21608-0.52475 0.54019-0.52475 0.97234 0 0.32926 0.12604 0.58907 0.37813 0.77941 0.25209 0.18522 0.75883 0.36271 1.5202 0.53247l0.48617 0.10804c1.0084 0.21608 1.7234 0.52219 2.1453 0.91832 0.427 0.391 0.64051 0.93891 0.64051 1.6437 0 0.80257-0.31897 1.4379-0.9569 1.9061-0.6328 0.46817-1.5048 0.70225-2.6161 0.70225-0.46303 0-0.94663-0.0463-1.4508-0.13891-0.49903-0.0875-1.0264-0.22122-1.582-0.40128v-1.4662c0.52475 0.27267 1.0418 0.47845 1.5511 0.61736 0.50932 0.13376 1.0135 0.20064 1.5125 0.20064 0.6688 0 1.1833-0.11318 1.5434-0.33955 0.36012-0.23151 0.54019-0.55562 0.54019-0.97234 0-0.38584-0.13119-0.68166-0.39357-0.88745-0.25723-0.20579-0.82572-0.40385-1.7054-0.59421l-0.49389-0.11576c-0.87974-0.1852-1.5151-0.46816-1.9061-0.84886-0.39099-0.38585-0.58649-0.91318-0.58649-1.582 0-0.81285 0.2881-1.4405 0.86431-1.8829 0.5762-0.44244 1.3942-0.66366 2.454-0.66367 0.52475 0.00001 1.0186 0.0386 1.4817 0.11576 0.46302 0.0772 0.89002 0.19293 1.281 0.34726"/>
 </g>
 <g id="g26" transform="translate(-1 -4.6333)">
  <g id="g28">
   <path id="rect30" fill="#f00" d="m320 140h40v40h-40z"/>
   <path id="rect32" d="m320 140h40v40h-40z" stroke="#000" stroke-width="2" fill="none"/>
  </g>
  <g id="g34">
   <path id="rect36" fill="#0f0" d="m360 140h40v40h-40z"/>
   <path id="rect38" d="m360 140h40v40h-40z" stroke="#000" stroke-width="2" fill="none"/>
  </g>
  <g id="g40">
   <path id="rect42" fill="#00f" d="m400 140h40v40h-40z"/>
   <path id="rect44" d="m400 140h40v40h-40z" stroke="#000" stroke-width="2" fill="none"/>
  </g>
  <g id="g46">
   <path id="rect48" fill="#ff0" d="m440 140h40v40h-40z"/>
   <path id="rect50" d="m440 140h40v40h-40z" stroke="#000" stroke-width="2" fill="none"/>
  </g>
 </g>
 <g id="g52" transform="translate(-1 -4.6333)">
  <g id="g54">
   <path id="rect56" fill="#f00" d="m400 220h40v40h-40z"/>
   <path id="rect58" d="m400 220h40v40h-40z" stroke="#000" stroke-width="2" fill="none"/>
  </g>
  <g id="g60">
   <path id="rect62" fill="#0f0" d="m440 220h40v40h-40z"/>
   <path id="rect64" d="m440 220h40v40h-40z" stroke="#000" stroke-width="2" fill="none"/>
  </g>
  <g id="g66">
   <path id="rect68" fill="#00f" d="m480 220h40v40h-40z"/>
   <path id="rect70" d="m480 220h40v40h-40z" stroke="#000" stroke-width="2" fill="none"/>
  </g>
  <g id="g72">
   <path id="rect74" fill="#ff0" d="m520 220h40v40h-40z"/>
   <path id="rect76" d="m520 220h40v40h-40z" stroke="#000" stroke-width="2" fill="none"/>
  </g>
 </g>
 <g id="g78" transform="translate(-1 -4.6333)">
  <g id="g80">
   <path id="rect82" fill="#f00" d="m360 180h40v40h-40z"/>
   <path id="rect84" d="m360 180h40v40h-40z" stroke="#000" stroke-width="2" fill="none"/>
  </g>
  <g id="g86">
   <path id="rect88" fill="#0f0" d="m400 180h40v40h-40z"/>
   <path id="rect90" d="m400 180h40v40h-40z" stroke="#000" stroke-width="2" fill="none"/>
  </g>
  <g id="g92">
   <path id="rect94" fill="#00f" d="m440 180h40v40h-40z"/>
   <path id="rect96" d="m440 180h40v40h-40z" stroke="#000" stroke-width="2" fill="none"/>
  </g>
  <g id="g98">
   <path id="rect100" fill="#ff0" d="m480 180h40v40h-40z"/>
   <path id="rect102" d="m480 180h40v40h-40z" stroke="#000" stroke-width="2" fill="none"/>
  </g>
 </g>
 <g id="g104" transform="translate(-1 -4.6333)">
  <g id="g106">
   <path id="rect108" fill="#f00" d="m440 260h40v40h-40z"/>
   <path id="rect110" d="m440 260h40v40h-40z" stroke="#000" stroke-width="2" fill="none"/>
  </g>
  <g id="g112">
   <path id="rect114" fill="#0f0" d="m480 260h40v40h-40z"/>
   <path id="rect116" d="m480 260h40v40h-40z" stroke="#000" stroke-width="2" fill="none"/>
  </g>
  <g id="g118">
   <path id="rect120" fill="#00f" d="m520 260h40v40h-40z"/>
   <path id="rect122" d="m520 260h40v40h-40z" stroke="#000" stroke-width="2" fill="none"/>
  </g>
  <g id="g124">
   <path id="rect126" fill="#ff0" d="m560 260h40v40h-40z"/>
   <path id="rect128" d="m560 260h40v40h-40z" stroke="#000" stroke-width="2" fill="none"/>
  </g>
 </g>
</svg>
