<?xml version="1.0" encoding="UTF-8" standalone="no"?>
<!-- Created with Inkscape (http://www.inkscape.org/) -->
<svg id="svg2" xmlns:rdf="http://www.w3.org/1999/02/22-rdf-syntax-ns#" xmlns="http://www.w3.org/2000/svg" height="314.91" width="492.93" version="1.1" xmlns:cc="http://creativecommons.org/ns#" xmlns:dc="http://purl.org/dc/elements/1.1/" viewBox="328 139 264.31859 169.84999">
 <metadata id="metadata54">
  <rdf:RDF>
   <cc:Work rdf:about="">
    <dc:format>image/svg+xml</dc:format>
    <dc:type rdf:resource="http://purl.org/dc/dcmitype/StillImage"/>
   </cc:Work>
  </rdf:RDF>
 </metadata>
 <g id="g4" transform="translate(-1.7729 -1.7125)">
  <path id="ellipse6" fill="#fff" d="m380 225c0 13.807-11.193 25-25 25s-25-11.193-25-25 11.193-25 25-25 25 11.193 25 25z"/>
  <path id="ellipse8" d="m380 225c0 13.807-11.193 25-25 25s-25-11.193-25-25 11.193-25 25-25 25 11.193 25 25z" stroke="#000" stroke-width="2" fill="none"/>
  <g id="text10">
   <path id="path3008" style="" d="m348.9 224.88h3.5653v1.0848h-3.5653v-1.0848"/>
   <path id="path3010" style="" d="m354.81 228.01h2.1828v-7.534l-2.3746 0.47625v-1.2171l2.3614-0.47625h1.3362v8.7511h2.1828v1.1245h-5.6886v-1.1245"/>
  </g>
 </g>
 <g id="g14" transform="translate(-1.7729 -1.7125)">
  <path id="ellipse16" fill="#fff" d="m593.86 223.07c0 14.874-12.058 26.932-26.932 26.932s-26.932-12.058-26.932-26.932 12.058-26.932 26.932-26.932 26.932 12.058 26.932 26.932z"/>
  <path id="ellipse18" d="m593.86 223.07c0 14.874-12.058 26.932-26.932 26.932s-26.932-12.058-26.932-26.932 12.058-26.932 26.932-26.932 26.932 12.058 26.932 26.932z" stroke="#000" stroke-width="2" fill="none"/>
  <g id="text20">
   <path id="path3015" style="" d="m559.3 214.26v4.4715h-1.2171v-4.4318c0-0.70114-0.1367-1.2259-0.4101-1.5743-0.27341-0.34837-0.68352-0.52255-1.2303-0.52256-0.65705 0.00001-1.1752 0.20947-1.5544 0.62839-0.37924 0.41893-0.56886 0.98999-0.56885 1.7132v4.187h-1.2237v-7.4084h1.2237v1.1509c0.29104-0.44537 0.63279-0.77831 1.0253-0.9988 0.39687-0.22048 0.85328-0.33072 1.3692-0.33073 0.85107 0.00001 1.4949 0.26459 1.9315 0.79375 0.43656 0.52476 0.65484 1.2987 0.65485 2.3217"/>
   <path id="path3017" style="" d="m568.08 214.73v0.59531h-5.596c0.0529 0.83785 0.30427 1.4773 0.75407 1.9182 0.45419 0.43657 1.0848 0.65485 1.8918 0.65485 0.46743 0 0.91942-0.0573 1.356-0.17198 0.44097-0.11465 0.87753-0.28663 1.3097-0.51594v1.1509c-0.43657 0.18521-0.88415 0.32632-1.3428 0.42334-0.45862 0.097-0.92384 0.14552-1.3957 0.14552-1.1818 0-2.1189-0.34396-2.8112-1.0319-0.68792-0.68792-1.0319-1.6184-1.0319-2.7914 0-1.2127 0.32632-2.174 0.97896-2.884 0.65705-0.71437 1.5412-1.0716 2.6524-1.0716 0.9966 0.00001 1.7837 0.32192 2.3614 0.96573 0.58207 0.63942 0.87311 1.5103 0.87312 2.6128m-1.2171-0.35719c-0.009-0.66587-0.19624-1.1972-0.56224-1.5941-0.36161-0.39687-0.84227-0.59531-1.442-0.59531-0.6791 0-1.2237 0.19183-1.6338 0.57547-0.4057 0.38365-0.63942 0.92384-0.70115 1.6206l4.3392-0.007"/>
   <path id="path3019" style="" d="m575.84 212.75c0.30427-0.5468 0.66807-0.95029 1.0914-1.2105 0.42333-0.26017 0.92163-0.39025 1.4949-0.39026 0.77169 0.00001 1.367 0.2712 1.7859 0.81359 0.41892 0.538 0.62838 1.3053 0.62839 2.3019v4.4715h-1.2237v-4.4318c-0.00001-0.70996-0.12569-1.2369-0.37703-1.5809-0.25137-0.34395-0.63502-0.51593-1.1509-0.51594-0.6306 0.00001-1.1289 0.20947-1.4949 0.62839-0.36602 0.41893-0.54902 0.98999-0.54902 1.7132v4.187h-1.2237v-4.4318c0-0.71437-0.12568-1.2413-0.37703-1.5809-0.25136-0.34395-0.63941-0.51593-1.1642-0.51594-0.62177 0.00001-1.1157 0.21168-1.4817 0.63501-0.36601 0.41893-0.54901 0.98778-0.54901 1.7066v4.187h-1.2237v-7.4084h1.2237v1.1509c0.27781-0.45419 0.61075-0.78933 0.9988-1.0054 0.38806-0.21607 0.84887-0.3241 1.3825-0.32411 0.53798 0.00001 0.99438 0.13671 1.3692 0.4101 0.37923 0.27341 0.65925 0.67029 0.84005 1.1906"/>
   <path id="path3021" style="" d="m560.83 231.41h3.5653v1.0848h-3.5653v-1.0848"/>
   <path id="path3023" style="" d="m566.75 234.54h2.1828v-7.534l-2.3746 0.47625v-1.2171l2.3614-0.47625h1.3362v8.7511h2.1828v1.1245h-5.6886v-1.1245"/>
  </g>
 </g>
 <g id="g26" stroke="#000" stroke-width="2" fill="none" transform="translate(-1.7729 -1.7125)">
  <path id="path28" d="m562.98 194.03a214.04 214.04 0 0 0 -207.98 5.97"/>
  <path id="polyline30" d="m553.8 194.66 11.173 0.404-6.38-9.181"/>
 </g>
 <g id="g32" stroke="#000" stroke-width="2" fill="none" transform="translate(-1.7729 -1.7125)">
  <path id="path34" d="m358.83 252.3a202.15 202.15 0 0 0 208.1 -2.3"/>
  <path id="polyline36" d="m368.04 252.16-11.137-0.984 5.895 9.5"/>
 </g>
 <g id="text38">
  <path id="path3028" style="" d="m371 139.51h1.1562v5.7438l3.4312-3.0188h1.4688l-3.7125 3.275 3.8688 3.725h-1.5l-3.5562-3.4188v3.4188h-1.1562v-9.725"/>
  <path id="path3030" style="" d="m381.43 145.72c-0.92917 0.00001-1.5729 0.10626-1.9312 0.31875-0.35833 0.21251-0.5375 0.57501-0.5375 1.0875 0 0.40834 0.13333 0.73334 0.4 0.975 0.27083 0.2375 0.6375 0.35625 1.1 0.35625 0.6375 0 1.1479-0.225 1.5312-0.675 0.3875-0.45416 0.58125-1.0562 0.58125-1.8062v-0.25625h-1.1438m2.2938-0.475v3.9938h-1.15v-1.0625c-0.2625 0.425-0.58959 0.73959-0.98125 0.94375-0.39167 0.2-0.87084 0.3-1.4375 0.3-0.71667 0-1.2875-0.2-1.7125-0.6-0.42083-0.40416-0.63125-0.94375-0.63125-1.6188 0-0.78749 0.2625-1.3812 0.7875-1.7812 0.52917-0.39999 1.3167-0.59999 2.3625-0.6h1.6125v-0.1125c0-0.52916-0.175-0.93749-0.525-1.225-0.34584-0.29166-0.83334-0.43749-1.4625-0.4375-0.4 0.00001-0.78958 0.0479-1.1688 0.14375-0.37917 0.0958-0.74375 0.23959-1.0938 0.43125v-1.0625c0.42083-0.16249 0.82917-0.28332 1.225-0.3625 0.39583-0.0833 0.78125-0.12499 1.1562-0.125 1.0125 0.00001 1.7688 0.26251 2.2688 0.7875 0.49999 0.52501 0.74999 1.3208 0.75 2.3875"/>
  <path id="path3032" style="" d="m387.23 140.25v1.9875h2.3688v0.89375h-2.3688v3.8c0 0.57084 0.0771 0.9375 0.23125 1.1 0.15833 0.1625 0.47708 0.24375 0.95625 0.24375h1.1812v0.9625h-1.1812c-0.8875 0-1.5-0.16458-1.8375-0.49375-0.3375-0.33333-0.50625-0.9375-0.50625-1.8125v-3.8h-0.84375v-0.89375h0.84375v-1.9875h1.1562"/>
  <path id="path3034" style="" d="m392.26 140.25v1.9875h2.3688v0.89375h-2.3688v3.8c0 0.57084 0.0771 0.9375 0.23125 1.1 0.15833 0.1625 0.47708 0.24375 0.95625 0.24375h1.1812v0.9625h-1.1812c-0.8875 0-1.5-0.16458-1.8375-0.49375-0.3375-0.33333-0.50625-0.9375-0.50625-1.8125v-3.8h-0.84375v-0.89375h0.84375v-1.9875h1.1562"/>
  <path id="path3036" style="" d="m396.15 142.24h1.15v7h-1.15v-7m0-2.725h1.15v1.4562h-1.15v-1.4562"/>
  <path id="path3038" style="" d="m405.51 145.01v4.225h-1.15v-4.1875c-0.00001-0.66249-0.12917-1.1583-0.3875-1.4875-0.25834-0.32916-0.64584-0.49374-1.1625-0.49375-0.62084 0.00001-1.1104 0.19793-1.4688 0.59375-0.35834 0.39584-0.5375 0.93542-0.5375 1.6188v3.9562h-1.1562v-7h1.1562v1.0875c0.275-0.42082 0.59791-0.73541 0.96875-0.94375 0.375-0.20832 0.80625-0.31249 1.2938-0.3125 0.80416 0.00001 1.4125 0.25001 1.825 0.75 0.41249 0.49584 0.61874 1.2271 0.61875 2.1938"/>
  <path id="path3040" style="" d="m408.96 140.25v1.9875h2.3688v0.89375h-2.3688v3.8c0 0.57084 0.0771 0.9375 0.23125 1.1 0.15833 0.1625 0.47708 0.24375 0.95625 0.24375h1.1812v0.9625h-1.1812c-0.8875 0-1.5-0.16458-1.8375-0.49375-0.3375-0.33333-0.50625-0.9375-0.50625-1.8125v-3.8h-0.84375v-0.89375h0.84375v-1.9875h1.1562"/>
  <path id="path3042" style="" d="m416.03 145.72c-0.92917 0.00001-1.5729 0.10626-1.9312 0.31875-0.35834 0.21251-0.5375 0.57501-0.5375 1.0875 0 0.40834 0.13333 0.73334 0.4 0.975 0.27083 0.2375 0.6375 0.35625 1.1 0.35625 0.6375 0 1.1479-0.225 1.5312-0.675 0.38749-0.45416 0.58124-1.0562 0.58125-1.8062v-0.25625h-1.1438m2.2938-0.475v3.9938h-1.15v-1.0625c-0.2625 0.425-0.58959 0.73959-0.98125 0.94375-0.39167 0.2-0.87084 0.3-1.4375 0.3-0.71667 0-1.2875-0.2-1.7125-0.6-0.42083-0.40416-0.63125-0.94375-0.63125-1.6188 0-0.78749 0.2625-1.3812 0.7875-1.7812 0.52916-0.39999 1.3167-0.59999 2.3625-0.6h1.6125v-0.1125c-0.00001-0.52916-0.17501-0.93749-0.525-1.225-0.34584-0.29166-0.83334-0.43749-1.4625-0.4375-0.4 0.00001-0.78959 0.0479-1.1688 0.14375-0.37917 0.0958-0.74375 0.23959-1.0938 0.43125v-1.0625c0.42083-0.16249 0.82916-0.28332 1.225-0.3625 0.39583-0.0833 0.78125-0.12499 1.1562-0.125 1.0125 0.00001 1.7687 0.26251 2.2688 0.7875 0.49999 0.52501 0.74999 1.3208 0.75 2.3875m-2.1-6.2438h1.2438l-2.0375 2.35h-0.95625l1.75-2.35"/>
  <path id="path3044" style="" d="m425.16 142.44v1.0875c-0.325-0.16666-0.6625-0.29166-1.0125-0.375-0.35-0.0833-0.7125-0.12499-1.0875-0.125-0.57083 0.00001-1 0.0875-1.2875 0.2625-0.28333 0.17501-0.425 0.43751-0.425 0.7875 0 0.26667 0.10208 0.47709 0.30625 0.63125 0.20417 0.15001 0.61458 0.29376 1.2312 0.43125l0.39375 0.0875c0.81666 0.17501 1.3958 0.42292 1.7375 0.74375 0.34583 0.31667 0.51875 0.76042 0.51875 1.3312 0 0.65-0.25834 1.1646-0.775 1.5438-0.5125 0.37917-1.2188 0.56875-2.1188 0.56875-0.375 0-0.76667-0.0375-1.175-0.1125-0.40417-0.0708-0.83125-0.17916-1.2812-0.325v-1.1875c0.425 0.22084 0.84375 0.3875 1.2562 0.5 0.4125 0.10834 0.82083 0.1625 1.225 0.1625 0.54167 0 0.95833-0.0917 1.25-0.275 0.29166-0.1875 0.4375-0.45 0.4375-0.7875 0-0.31249-0.10625-0.55208-0.31875-0.71875-0.20834-0.16666-0.66875-0.32708-1.3812-0.48125l-0.4-0.0937c-0.7125-0.14999-1.2271-0.37916-1.5438-0.6875-0.31667-0.31249-0.475-0.73958-0.475-1.2812 0-0.65832 0.23333-1.1667 0.7-1.525 0.46667-0.35832 1.1292-0.53749 1.9875-0.5375 0.425 0.00001 0.825 0.0313 1.2 0.0937 0.375 0.0625 0.72083 0.15626 1.0375 0.28125"/>
  <path id="path3046" style="" d="m430.62 142.24h1.2188l2.1875 5.875 2.1875-5.875h1.2188l-2.625 7h-1.5625l-2.625-7"/>
  <path id="path3048" style="" d="m442.2 145.72c-0.92917 0.00001-1.5729 0.10626-1.9312 0.31875-0.35834 0.21251-0.5375 0.57501-0.5375 1.0875 0 0.40834 0.13333 0.73334 0.4 0.975 0.27083 0.2375 0.6375 0.35625 1.1 0.35625 0.6375 0 1.1479-0.225 1.5312-0.675 0.38749-0.45416 0.58124-1.0562 0.58125-1.8062v-0.25625h-1.1438m2.2938-0.475v3.9938h-1.15v-1.0625c-0.26251 0.425-0.58959 0.73959-0.98125 0.94375-0.39167 0.2-0.87084 0.3-1.4375 0.3-0.71667 0-1.2875-0.2-1.7125-0.6-0.42083-0.40416-0.63125-0.94375-0.63125-1.6188 0-0.78749 0.2625-1.3812 0.7875-1.7812 0.52916-0.39999 1.3167-0.59999 2.3625-0.6h1.6125v-0.1125c-0.00001-0.52916-0.17501-0.93749-0.525-1.225-0.34584-0.29166-0.83334-0.43749-1.4625-0.4375-0.4 0.00001-0.78959 0.0479-1.1688 0.14375-0.37917 0.0958-0.74375 0.23959-1.0938 0.43125v-1.0625c0.42083-0.16249 0.82916-0.28332 1.225-0.3625 0.39583-0.0833 0.78125-0.12499 1.1562-0.125 1.0125 0.00001 1.7687 0.26251 2.2688 0.7875 0.49999 0.52501 0.74999 1.3208 0.75 2.3875"/>
  <path id="path3050" style="" d="m446.87 139.51h1.15v9.725h-1.15v-9.725"/>
  <path id="path3052" style="" d="m453.6 145.72c-0.92917 0.00001-1.5729 0.10626-1.9312 0.31875-0.35833 0.21251-0.5375 0.57501-0.5375 1.0875 0 0.40834 0.13333 0.73334 0.4 0.975 0.27083 0.2375 0.6375 0.35625 1.1 0.35625 0.6375 0 1.1479-0.225 1.5312-0.675 0.3875-0.45416 0.58125-1.0562 0.58125-1.8062v-0.25625h-1.1438m2.2938-0.475v3.9938h-1.15v-1.0625c-0.2625 0.425-0.58959 0.73959-0.98125 0.94375-0.39167 0.2-0.87084 0.3-1.4375 0.3-0.71667 0-1.2875-0.2-1.7125-0.6-0.42083-0.40416-0.63125-0.94375-0.63125-1.6188 0-0.78749 0.2625-1.3812 0.7875-1.7812 0.52917-0.39999 1.3167-0.59999 2.3625-0.6h1.6125v-0.1125c0-0.52916-0.175-0.93749-0.525-1.225-0.34584-0.29166-0.83334-0.43749-1.4625-0.4375-0.4 0.00001-0.78959 0.0479-1.1688 0.14375-0.37917 0.0958-0.74375 0.23959-1.0938 0.43125v-1.0625c0.42083-0.16249 0.82917-0.28332 1.225-0.3625 0.39583-0.0833 0.78125-0.12499 1.1562-0.125 1.0125 0.00001 1.7688 0.26251 2.2688 0.7875 0.49999 0.52501 0.74999 1.3208 0.75 2.3875"/>
  <path id="path3054" style="" d="m463.72 143.58c0.28749-0.51666 0.63124-0.89791 1.0312-1.1438 0.39999-0.24582 0.87082-0.36874 1.4125-0.36875 0.72916 0.00001 1.2917 0.25626 1.6875 0.76875 0.39582 0.50834 0.59374 1.2333 0.59375 2.175v4.225h-1.1562v-4.1875c-0.00001-0.67083-0.11876-1.1687-0.35625-1.4938-0.23751-0.32499-0.60001-0.48749-1.0875-0.4875-0.59584 0.00001-1.0667 0.19793-1.4125 0.59375-0.34584 0.39584-0.51876 0.93542-0.51875 1.6188v3.9562h-1.1562v-4.1875c-0.00001-0.67499-0.11876-1.1729-0.35625-1.4938-0.23751-0.32499-0.60417-0.48749-1.1-0.4875-0.5875 0.00001-1.0542 0.20001-1.4 0.6-0.34584 0.39584-0.51875 0.93334-0.51875 1.6125v3.9562h-1.1562v-7h1.1562v1.0875c0.2625-0.42916 0.57708-0.74582 0.94375-0.95 0.36666-0.20416 0.80208-0.30624 1.3062-0.30625 0.50833 0.00001 0.93958 0.12918 1.2938 0.3875 0.35833 0.25834 0.62291 0.63334 0.79375 1.125"/>
  <path id="path3056" style="" d="m476.73 145.45v0.5625h-5.2875c0.05 0.79167 0.28749 1.3958 0.7125 1.8125 0.42916 0.4125 1.025 0.61875 1.7875 0.61875 0.44166 0 0.86874-0.0542 1.2812-0.1625 0.41666-0.10833 0.82916-0.27083 1.2375-0.4875v1.0875c-0.41251 0.175-0.83543 0.30834-1.2688 0.4-0.43334 0.0917-0.87293 0.1375-1.3188 0.1375-1.1167 0-2.0021-0.325-2.6562-0.975-0.65001-0.65-0.97501-1.5292-0.975-2.6375-0.00001-1.1458 0.30833-2.0542 0.925-2.725 0.62083-0.67499 1.4562-1.0125 2.5062-1.0125 0.94166 0.00001 1.6854 0.30418 2.2312 0.9125 0.54999 0.60418 0.82499 1.4271 0.825 2.4688m-1.15-0.3375c-0.008-0.62916-0.18543-1.1312-0.53125-1.5062-0.34168-0.37499-0.79584-0.56249-1.3625-0.5625-0.64167 0.00001-1.1563 0.18126-1.5438 0.54375-0.38334 0.36251-0.60417 0.87292-0.6625 1.5312l4.1-0.006"/>
  <path id="path3058" style="" d="m478.62 139.51h1.15v9.725h-1.15v-9.725"/>
  <path id="path3060" style="" d="m485.08 149.89c-0.325 0.83333-0.64167 1.3771-0.95 1.6312-0.30834 0.25417-0.72083 0.38125-1.2375 0.38125h-0.91875v-0.9625h0.675c0.31667 0 0.5625-0.075 0.7375-0.225s0.36875-0.50416 0.58125-1.0625l0.20625-0.525-2.8312-6.8875h1.2188l2.1875 5.475 2.1875-5.475h1.2188l-3.075 7.65"/>
  <path id="path3062" style="" d="m489.75 142.24h1.15v7h-1.15v-7m0-2.725h1.15v1.4562h-1.15v-1.4562"/>
  <path id="path3064" style="" d="m493.25 139.51h1.1562v5.7438l3.4312-3.0188h1.4688l-3.7125 3.275 3.8688 3.725h-1.5l-3.5562-3.4188v3.4188h-1.1562v-9.725"/>
  <path id="path3066" style="" d="m509.4 145.66c0-0.83333-0.17292-1.4792-0.51875-1.9375-0.34167-0.45832-0.82292-0.68749-1.4438-0.6875-0.61667 0.00001-1.0979 0.22918-1.4438 0.6875-0.34167 0.45834-0.5125 1.1042-0.5125 1.9375 0 0.82917 0.17083 1.4729 0.5125 1.9312 0.34583 0.45834 0.82708 0.6875 1.4438 0.6875 0.62083 0 1.1021-0.22916 1.4438-0.6875 0.34583-0.45833 0.51875-1.1021 0.51875-1.9312m1.15 2.7125c-0.00001 1.1917-0.26459 2.0771-0.79375 2.6562-0.52917 0.58333-1.3396 0.875-2.4312 0.875-0.40417 0-0.78542-0.0312-1.1438-0.0937-0.35833-0.0583-0.70625-0.15-1.0438-0.275v-1.1188c0.3375 0.18334 0.67083 0.31875 1 0.40625 0.32916 0.0875 0.66458 0.13125 1.0062 0.13125 0.75416 0 1.3188-0.19792 1.6938-0.59375 0.375-0.39166 0.5625-0.98541 0.5625-1.7812v-0.56875c-0.2375 0.4125-0.54167 0.72084-0.9125 0.925-0.37084 0.20417-0.81459 0.30625-1.3312 0.30625-0.85833 0-1.55-0.32708-2.075-0.98125-0.525-0.65416-0.7875-1.5208-0.7875-2.6 0-1.0833 0.2625-1.9521 0.7875-2.6062 0.525-0.65416 1.2167-0.98124 2.075-0.98125 0.51666 0.00001 0.96041 0.10209 1.3312 0.30625 0.37083 0.20418 0.675 0.51251 0.9125 0.925v-1.0625h1.15v6.1312"/>
  <path id="path3068" style="" d="m515.63 143.04c-0.61667 0.00001-1.1042 0.24168-1.4625 0.725-0.35833 0.47917-0.5375 1.1375-0.5375 1.975 0 0.83751 0.17708 1.4979 0.53125 1.9812 0.35833 0.47917 0.84791 0.71875 1.4688 0.71875 0.6125 0 1.0979-0.24166 1.4562-0.725 0.35833-0.48333 0.5375-1.1417 0.5375-1.975 0-0.82916-0.17917-1.4854-0.5375-1.9688-0.35834-0.48749-0.84375-0.73124-1.4562-0.73125m0-0.975c1 0.00001 1.7854 0.32501 2.3562 0.975 0.57083 0.65001 0.85624 1.55 0.85625 2.7-0.00001 1.1458-0.28542 2.0458-0.85625 2.7-0.57084 0.65-1.3562 0.975-2.3562 0.975-1.0042 0-1.7917-0.325-2.3625-0.975-0.56667-0.65416-0.85-1.5542-0.85-2.7 0-1.15 0.28333-2.05 0.85-2.7 0.57083-0.64999 1.3583-0.97499 2.3625-0.975"/>
  <path id="path3070" style="" d="m520.75 139.51h1.15v9.725h-1.15v-9.725"/>
  <path id="path3072" style="" d="m527.21 149.89c-0.325 0.83333-0.64167 1.3771-0.95 1.6312-0.30834 0.25417-0.72083 0.38125-1.2375 0.38125h-0.91875v-0.9625h0.675c0.31667 0 0.5625-0.075 0.7375-0.225s0.36875-0.50416 0.58125-1.0625l0.20625-0.525-2.8312-6.8875h1.2188l2.1875 5.475 2.1875-5.475h1.2188l-3.075 7.65"/>
  <path id="path3074" style="" d="m534.58 143.04c-0.61667 0.00001-1.1042 0.24168-1.4625 0.725-0.35834 0.47917-0.5375 1.1375-0.5375 1.975 0 0.83751 0.17708 1.4979 0.53125 1.9812 0.35833 0.47917 0.84791 0.71875 1.4688 0.71875 0.61249 0 1.0979-0.24166 1.4562-0.725 0.35833-0.48333 0.53749-1.1417 0.5375-1.975-0.00001-0.82916-0.17917-1.4854-0.5375-1.9688-0.35834-0.48749-0.84376-0.73124-1.4562-0.73125m0-0.975c0.99999 0.00001 1.7854 0.32501 2.3562 0.975 0.57082 0.65001 0.85624 1.55 0.85625 2.7-0.00001 1.1458-0.28543 2.0458-0.85625 2.7-0.57084 0.65-1.3563 0.975-2.3562 0.975-1.0042 0-1.7917-0.325-2.3625-0.975-0.56667-0.65416-0.85-1.5542-0.85-2.7 0-1.15 0.28333-2.05 0.85-2.7 0.57083-0.64999 1.3583-0.97499 2.3625-0.975m0.87-3.06h1.2438l-2.0375 2.35h-0.95625l1.75-2.35"/>
  <path id="path3076" style="" d="m545.51 145.01v4.225h-1.15v-4.1875c-0.00001-0.66249-0.12917-1.1583-0.3875-1.4875-0.25834-0.32916-0.64584-0.49374-1.1625-0.49375-0.62084 0.00001-1.1104 0.19793-1.4688 0.59375-0.35834 0.39584-0.5375 0.93542-0.5375 1.6188v3.9562h-1.1562v-7h1.1562v1.0875c0.275-0.42082 0.59791-0.73541 0.96875-0.94375 0.375-0.20832 0.80625-0.31249 1.2938-0.3125 0.80416 0.00001 1.4125 0.25001 1.825 0.75 0.41249 0.49584 0.61874 1.2271 0.61875 2.1938"/>
  <path id="path3078" style="" d="m402.63 161.66c0-0.83333-0.17292-1.4792-0.51875-1.9375-0.34167-0.45832-0.82292-0.68749-1.4438-0.6875-0.61667 0.00001-1.0979 0.22918-1.4438 0.6875-0.34167 0.45834-0.5125 1.1042-0.5125 1.9375 0 0.82917 0.17083 1.4729 0.5125 1.9312 0.34583 0.45834 0.82708 0.6875 1.4438 0.6875 0.62083 0 1.1021-0.22916 1.4438-0.6875 0.34583-0.45833 0.51875-1.1021 0.51875-1.9312m1.15 2.7125c-0.00001 1.1917-0.26459 2.0771-0.79375 2.6562-0.52917 0.58333-1.3396 0.875-2.4312 0.875-0.40417 0-0.78542-0.0312-1.1438-0.0937-0.35833-0.0583-0.70625-0.15-1.0438-0.275v-1.1188c0.3375 0.18334 0.67083 0.31875 1 0.40625s0.66458 0.13125 1.0062 0.13125c0.75416 0 1.3188-0.19792 1.6938-0.59375 0.375-0.39166 0.5625-0.98541 0.5625-1.7812v-0.56875c-0.2375 0.4125-0.54167 0.72084-0.9125 0.925-0.37084 0.20417-0.81459 0.30625-1.3312 0.30625-0.85833 0-1.55-0.32708-2.075-0.98125-0.525-0.65416-0.7875-1.5208-0.7875-2.6 0-1.0833 0.2625-1.9521 0.7875-2.6062 0.525-0.65416 1.2167-0.98124 2.075-0.98125 0.51666 0.00001 0.96041 0.10209 1.3312 0.30625 0.37083 0.20418 0.675 0.51251 0.9125 0.925v-1.0625h1.15v6.1312"/>
  <path id="path3080" style="" d="m408.86 159.04c-0.61667 0.00001-1.1042 0.24168-1.4625 0.725-0.35833 0.47917-0.5375 1.1375-0.5375 1.975 0 0.83751 0.17708 1.4979 0.53125 1.9812 0.35833 0.47917 0.84791 0.71875 1.4688 0.71875 0.6125 0 1.0979-0.24166 1.4562-0.725 0.35833-0.48333 0.5375-1.1417 0.5375-1.975 0-0.82916-0.17917-1.4854-0.5375-1.9688-0.35834-0.48749-0.84375-0.73124-1.4562-0.73125m0-0.975c1 0.00001 1.7854 0.32501 2.3562 0.975 0.57083 0.65001 0.85624 1.55 0.85625 2.7-0.00001 1.1458-0.28542 2.0458-0.85625 2.7-0.57084 0.65-1.3562 0.975-2.3562 0.975-1.0042 0-1.7917-0.325-2.3625-0.975-0.56667-0.65416-0.85-1.5542-0.85-2.7 0-1.15 0.28333-2.05 0.85-2.7 0.57083-0.64999 1.3583-0.97499 2.3625-0.975"/>
  <path id="path3082" style="" d="m413.97 155.51h1.15v9.725h-1.15v-9.725"/>
  <path id="path3084" style="" d="m420.43 165.89c-0.325 0.83333-0.64167 1.3771-0.95 1.6312-0.30833 0.25417-0.72083 0.38125-1.2375 0.38125h-0.91875v-0.9625h0.675c0.31667 0 0.5625-0.075 0.7375-0.225s0.36875-0.50416 0.58125-1.0625l0.20625-0.525-2.8312-6.8875h1.2188l2.1875 5.475 2.1875-5.475h1.2188l-3.075 7.65"/>
  <path id="path3086" style="" d="m427.81 159.04c-0.61667 0.00001-1.1042 0.24168-1.4625 0.725-0.35833 0.47917-0.5375 1.1375-0.5375 1.975 0 0.83751 0.17708 1.4979 0.53125 1.9812 0.35833 0.47917 0.84792 0.71875 1.4688 0.71875 0.6125 0 1.0979-0.24166 1.4562-0.725 0.35833-0.48333 0.5375-1.1417 0.5375-1.975 0-0.82916-0.17917-1.4854-0.5375-1.9688-0.35834-0.48749-0.84375-0.73124-1.4562-0.73125m0-0.975c1 0.00001 1.7854 0.32501 2.3562 0.975 0.57083 0.65001 0.85625 1.55 0.85625 2.7 0 1.1458-0.28542 2.0458-0.85625 2.7-0.57084 0.65-1.3562 0.975-2.3562 0.975-1.0042 0-1.7917-0.325-2.3625-0.975-0.56667-0.65416-0.85-1.5542-0.85-2.7 0-1.15 0.28333-2.05 0.85-2.7 0.57083-0.64999 1.3583-0.97499 2.3625-0.975m0.87-3.06h1.2438l-2.0375 2.35h-0.95625l1.75-2.35"/>
  <path id="path3088" style="" d="m439.95 163.65h1.3188v1.075l-1.025 2h-0.80625l0.5125-2v-1.075m-2.5625 0h1.3188v1.075l-1.025 2h-0.80625l0.5125-2v-1.075"/>
  <path id="path3090" style="" d="m443.58 155.51h1.1562v5.7438l3.4312-3.0188h1.4688l-3.7125 3.275 3.8688 3.725h-1.5l-3.5562-3.4188v3.4188h-1.1562v-9.725"/>
  <path id="path3092" style="" d="m451.05 158.24h1.15v7h-1.15v-7m0-2.725h1.15v1.4562h-1.15v-1.4562"/>
  <path id="path3094" style="" d="m459.06 158.44v1.0875c-0.325-0.16666-0.6625-0.29166-1.0125-0.375-0.35-0.0833-0.7125-0.12499-1.0875-0.125-0.57083 0.00001-1 0.0875-1.2875 0.2625-0.28333 0.17501-0.425 0.43751-0.425 0.7875 0 0.26667 0.10208 0.47709 0.30625 0.63125 0.20417 0.15001 0.61458 0.29376 1.2312 0.43125l0.39375 0.0875c0.81666 0.17501 1.3958 0.42292 1.7375 0.74375 0.34583 0.31667 0.51875 0.76042 0.51875 1.3312 0 0.65-0.25834 1.1646-0.775 1.5438-0.5125 0.37917-1.2188 0.56875-2.1188 0.56875-0.375 0-0.76667-0.0375-1.175-0.1125-0.40417-0.0708-0.83125-0.17916-1.2812-0.325v-1.1875c0.425 0.22084 0.84375 0.3875 1.2562 0.5 0.4125 0.10834 0.82083 0.1625 1.225 0.1625 0.54167 0 0.95833-0.0917 1.25-0.275 0.29166-0.1875 0.4375-0.45 0.4375-0.7875 0-0.31249-0.10625-0.55208-0.31875-0.71875-0.20834-0.16666-0.66875-0.32708-1.3812-0.48125l-0.4-0.0937c-0.7125-0.14999-1.2271-0.37916-1.5438-0.6875-0.31667-0.31249-0.475-0.73958-0.475-1.2812 0-0.65832 0.23333-1.1667 0.7-1.525 0.46667-0.35832 1.1292-0.53749 1.9875-0.5375 0.425 0.00001 0.825 0.0313 1.2 0.0937 0.375 0.0625 0.72083 0.15626 1.0375 0.28125"/>
  <path id="path3096" style="" d="m460.77 158.24h5.4625v1.05l-4.325 5.0312h4.325v0.91875h-5.6188v-1.05l4.325-5.0312h-4.1688v-0.91875"/>
  <path id="path3098" style="" d="m471.18 161.72c-0.92917 0.00001-1.5729 0.10626-1.9312 0.31875-0.35834 0.21251-0.5375 0.57501-0.5375 1.0875 0 0.40834 0.13333 0.73334 0.4 0.975 0.27083 0.2375 0.6375 0.35625 1.1 0.35625 0.6375 0 1.1479-0.225 1.5312-0.675 0.38749-0.45416 0.58124-1.0562 0.58125-1.8062v-0.25625h-1.1438m2.2938-0.475v3.9938h-1.15v-1.0625c-0.26251 0.425-0.58959 0.73959-0.98125 0.94375-0.39167 0.2-0.87084 0.3-1.4375 0.3-0.71667 0-1.2875-0.2-1.7125-0.6-0.42083-0.40416-0.63125-0.94375-0.63125-1.6188 0-0.78749 0.2625-1.3812 0.7875-1.7812 0.52916-0.39999 1.3167-0.59999 2.3625-0.6h1.6125v-0.1125c-0.00001-0.52916-0.17501-0.93749-0.525-1.225-0.34584-0.29166-0.83334-0.43749-1.4625-0.4375-0.4 0.00001-0.78959 0.0479-1.1688 0.14375-0.37917 0.0958-0.74375 0.23959-1.0938 0.43125v-1.0625c0.42083-0.16249 0.82916-0.28332 1.225-0.3625 0.39583-0.0833 0.78125-0.12499 1.1562-0.125 1.0125 0.00001 1.7687 0.26251 2.2688 0.7875 0.49999 0.52501 0.74999 1.3208 0.75 2.3875"/>
  <path id="path3100" style="" d="m475.8 155.51h1.1562v5.7438l3.4312-3.0188h1.4688l-3.7125 3.275 3.8688 3.725h-1.5l-3.5562-3.4188v3.4188h-1.1562v-9.725"/>
  <path id="path3102" style="" d="m484.71 155h1.2438l-2.0375 2.35h-0.95625l1.75-2.35m-1.4438 3.2375h1.15v7h-1.15v-7m0.575-0.16875"/>
  <path id="path3104" style="" d="m487.96 156.25v1.9875h2.3688v0.89375h-2.3688v3.8c0 0.57084 0.0771 0.9375 0.23125 1.1 0.15834 0.1625 0.47708 0.24375 0.95625 0.24375h1.1812v0.9625h-1.1812c-0.8875 0-1.5-0.16458-1.8375-0.49375-0.3375-0.33333-0.50625-0.9375-0.50625-1.8125v-3.8h-0.84375v-0.89375h0.84375v-1.9875h1.1562"/>
  <path id="path3106" style="" d="m495.03 161.72c-0.92917 0.00001-1.5729 0.10626-1.9312 0.31875-0.35834 0.21251-0.53751 0.57501-0.5375 1.0875-0.00001 0.40834 0.13333 0.73334 0.4 0.975 0.27083 0.2375 0.63749 0.35625 1.1 0.35625 0.63749 0 1.1479-0.225 1.5312-0.675 0.38749-0.45416 0.58124-1.0562 0.58125-1.8062v-0.25625h-1.1438m2.2938-0.475v3.9938h-1.15v-1.0625c-0.26251 0.425-0.58959 0.73959-0.98125 0.94375-0.39167 0.2-0.87084 0.3-1.4375 0.3-0.71667 0-1.2875-0.2-1.7125-0.6-0.42084-0.40416-0.63125-0.94375-0.63125-1.6188 0-0.78749 0.26249-1.3812 0.7875-1.7812 0.52916-0.39999 1.3167-0.59999 2.3625-0.6h1.6125v-0.1125c-0.00001-0.52916-0.17501-0.93749-0.525-1.225-0.34584-0.29166-0.83334-0.43749-1.4625-0.4375-0.40001 0.00001-0.78959 0.0479-1.1688 0.14375-0.37917 0.0958-0.74376 0.23959-1.0938 0.43125v-1.0625c0.42083-0.16249 0.82916-0.28332 1.225-0.3625 0.39583-0.0833 0.78124-0.12499 1.1562-0.125 1.0125 0.00001 1.7687 0.26251 2.2688 0.7875 0.49999 0.52501 0.74999 1.3208 0.75 2.3875m-2.1-6.2438h1.2438l-2.0375 2.35h-0.95625l1.75-2.35"/>
  <path id="path3108" style="" d="m504.16 158.44v1.0875c-0.325-0.16666-0.6625-0.29166-1.0125-0.375-0.35-0.0833-0.7125-0.12499-1.0875-0.125-0.57083 0.00001-1 0.0875-1.2875 0.2625-0.28333 0.17501-0.425 0.43751-0.425 0.7875 0 0.26667 0.10209 0.47709 0.30625 0.63125 0.20417 0.15001 0.61459 0.29376 1.2312 0.43125l0.39375 0.0875c0.81667 0.17501 1.3958 0.42292 1.7375 0.74375 0.34583 0.31667 0.51875 0.76042 0.51875 1.3312 0 0.65-0.25833 1.1646-0.775 1.5438-0.5125 0.37917-1.2188 0.56875-2.1188 0.56875-0.375 0-0.76666-0.0375-1.175-0.1125-0.40416-0.0708-0.83125-0.17916-1.2812-0.325v-1.1875c0.425 0.22084 0.84375 0.3875 1.2562 0.5 0.4125 0.10834 0.82084 0.1625 1.225 0.1625 0.54167 0 0.95833-0.0917 1.25-0.275 0.29167-0.1875 0.4375-0.45 0.4375-0.7875 0-0.31249-0.10625-0.55208-0.31875-0.71875-0.20833-0.16666-0.66875-0.32708-1.3812-0.48125l-0.4-0.0937c-0.7125-0.14999-1.2271-0.37916-1.5438-0.6875-0.31666-0.31249-0.475-0.73958-0.475-1.2812 0-0.65832 0.23334-1.1667 0.7-1.525 0.46667-0.35832 1.1292-0.53749 1.9875-0.5375 0.425 0.00001 0.825 0.0313 1.2 0.0937 0.375 0.0625 0.72083 0.15626 1.0375 0.28125"/>
  <path id="path3110" style="" d="m509.55 161.72c-0.92917 0.00001-1.5729 0.10626-1.9312 0.31875-0.35834 0.21251-0.5375 0.57501-0.5375 1.0875 0 0.40834 0.13333 0.73334 0.4 0.975 0.27083 0.2375 0.6375 0.35625 1.1 0.35625 0.6375 0 1.1479-0.225 1.5312-0.675 0.38749-0.45416 0.58124-1.0562 0.58125-1.8062v-0.25625h-1.1438m2.2938-0.475v3.9938h-1.15v-1.0625c-0.26251 0.425-0.58959 0.73959-0.98125 0.94375-0.39167 0.2-0.87084 0.3-1.4375 0.3-0.71667 0-1.2875-0.2-1.7125-0.6-0.42083-0.40416-0.63125-0.94375-0.63125-1.6188 0-0.78749 0.2625-1.3812 0.7875-1.7812 0.52916-0.39999 1.3167-0.59999 2.3625-0.6h1.6125v-0.1125c-0.00001-0.52916-0.17501-0.93749-0.525-1.225-0.34584-0.29166-0.83334-0.43749-1.4625-0.4375-0.4 0.00001-0.78959 0.0479-1.1688 0.14375-0.37917 0.0958-0.74375 0.23959-1.0938 0.43125v-1.0625c0.42083-0.16249 0.82916-0.28332 1.225-0.3625 0.39583-0.0833 0.78125-0.12499 1.1562-0.125 1.0125 0.00001 1.7687 0.26251 2.2688 0.7875 0.49999 0.52501 0.74999 1.3208 0.75 2.3875"/>
  <path id="path3112" style="" d="m514.61 155.91h1.3188v1.075l-1.025 2h-0.80625l0.5125-2v-1.075m2.5625 0h1.3188v1.075l-1.025 2h-0.80625l0.5125-2v-1.075"/>
 </g>
 <g id="text44">
  <path id="path3115" style="" d="m410.68 286.61c0-0.83333-0.17292-1.4792-0.51875-1.9375-0.34167-0.45833-0.82292-0.68749-1.4438-0.6875-0.61667 0.00001-1.0979 0.22917-1.4438 0.6875-0.34167 0.45834-0.5125 1.1042-0.5125 1.9375 0 0.82917 0.17083 1.4729 0.5125 1.9312 0.34583 0.45833 0.82708 0.6875 1.4438 0.6875 0.62083 0 1.1021-0.22917 1.4438-0.6875 0.34583-0.45833 0.51875-1.1021 0.51875-1.9312m1.15 2.7125c-0.00001 1.1917-0.26459 2.0771-0.79375 2.6562-0.52917 0.58333-1.3396 0.875-2.4312 0.875-0.40417 0-0.78542-0.0312-1.1438-0.0937-0.35833-0.0583-0.70625-0.15-1.0438-0.275v-1.1188c0.3375 0.18333 0.67083 0.31875 1 0.40625s0.66458 0.13125 1.0062 0.13125c0.75416 0 1.3188-0.19792 1.6938-0.59375 0.375-0.39167 0.5625-0.98542 0.5625-1.7812v-0.56875c-0.2375 0.4125-0.54167 0.72083-0.9125 0.925-0.37084 0.20417-0.81459 0.30625-1.3312 0.30625-0.85833 0-1.55-0.32708-2.075-0.98125s-0.7875-1.5208-0.7875-2.6c0-1.0833 0.2625-1.9521 0.7875-2.6062 0.525-0.65416 1.2167-0.98124 2.075-0.98125 0.51666 0.00001 0.96041 0.10209 1.3312 0.30625 0.37083 0.20417 0.675 0.51251 0.9125 0.925v-1.0625h1.15v6.1312"/>
  <path id="path3117" style="" d="m416.91 283.99c-0.61667 0.00001-1.1042 0.24167-1.4625 0.725-0.35833 0.47917-0.5375 1.1375-0.5375 1.975s0.17708 1.4979 0.53125 1.9812c0.35833 0.47917 0.84791 0.71875 1.4688 0.71875 0.6125 0 1.0979-0.24167 1.4562-0.725 0.35833-0.48333 0.5375-1.1417 0.5375-1.975 0-0.82916-0.17917-1.4854-0.5375-1.9688-0.35834-0.48749-0.84375-0.73124-1.4562-0.73125m0-0.975c1 0.00001 1.7854 0.32501 2.3562 0.975 0.57083 0.65001 0.85624 1.55 0.85625 2.7-0.00001 1.1458-0.28542 2.0458-0.85625 2.7-0.57084 0.65-1.3562 0.975-2.3562 0.975-1.0042 0-1.7917-0.325-2.3625-0.975-0.56667-0.65417-0.85-1.5542-0.85-2.7 0-1.15 0.28333-2.05 0.85-2.7 0.57083-0.64999 1.3583-0.97499 2.3625-0.975"/>
  <path id="path3119" style="" d="m427.47 284.53c0.2875-0.51666 0.63125-0.89791 1.0312-1.1438 0.39999-0.24583 0.87083-0.36874 1.4125-0.36875 0.72916 0.00001 1.2917 0.25626 1.6875 0.76875 0.39582 0.50834 0.59374 1.2333 0.59375 2.175v4.225h-1.1562v-4.1875c-0.00001-0.67083-0.11876-1.1687-0.35625-1.4938-0.23751-0.32499-0.60001-0.48749-1.0875-0.4875-0.59584 0.00001-1.0667 0.19792-1.4125 0.59375-0.34584 0.39584-0.51875 0.93542-0.51875 1.6188v3.9562h-1.1562v-4.1875c0-0.675-0.11875-1.1729-0.35625-1.4938-0.2375-0.32499-0.60417-0.48749-1.1-0.4875-0.5875 0.00001-1.0542 0.20001-1.4 0.6-0.34583 0.39584-0.51875 0.93334-0.51875 1.6125v3.9562h-1.1562v-7h1.1562v1.0875c0.2625-0.42916 0.57708-0.74583 0.94375-0.95 0.36667-0.20416 0.80208-0.30624 1.3062-0.30625 0.50833 0.00001 0.93958 0.12917 1.2938 0.3875 0.35833 0.25834 0.62291 0.63334 0.79375 1.125"/>
  <path id="path3121" style="" d="m439.52 286.69c0-0.84583-0.175-1.5083-0.525-1.9875-0.34584-0.48333-0.82292-0.72499-1.4312-0.725-0.60833 0.00001-1.0875 0.24167-1.4375 0.725-0.34583 0.47917-0.51875 1.1417-0.51875 1.9875 0 0.84584 0.17292 1.5104 0.51875 1.9938 0.35 0.47917 0.82917 0.71875 1.4375 0.71875s1.0854-0.23958 1.4312-0.71875c0.35-0.48333 0.525-1.1479 0.525-1.9938m-3.9125-2.4438c0.24167-0.41666 0.54583-0.72499 0.9125-0.925 0.37083-0.20416 0.8125-0.30624 1.325-0.30625 0.85 0.00001 1.5396 0.33751 2.0688 1.0125 0.53333 0.67501 0.8 1.5625 0.8 2.6625s-0.26667 1.9875-0.8 2.6625c-0.52917 0.675-1.2188 1.0125-2.0688 1.0125-0.5125 0-0.95417-0.1-1.325-0.3-0.36667-0.20417-0.67083-0.51458-0.9125-0.93125v1.05h-1.1562v-9.725h1.1562v3.7875"/>
  <path id="path3123" style="" d="m452.68 286.4v0.5625h-5.2875c0.05 0.79167 0.2875 1.3958 0.7125 1.8125 0.42917 0.4125 1.025 0.61875 1.7875 0.61875 0.44166 0 0.86875-0.0542 1.2812-0.1625 0.41666-0.10833 0.82916-0.27083 1.2375-0.4875v1.0875c-0.4125 0.175-0.83542 0.30833-1.2688 0.4-0.43334 0.0917-0.87292 0.1375-1.3188 0.1375-1.1167 0-2.0021-0.325-2.6562-0.975-0.65-0.65-0.975-1.5292-0.975-2.6375 0-1.1458 0.30833-2.0542 0.925-2.725 0.62083-0.67499 1.4562-1.0125 2.5062-1.0125 0.94166 0.00001 1.6854 0.30417 2.2312 0.9125 0.54999 0.60417 0.82499 1.4271 0.825 2.4688m-1.15-0.3375c-0.008-0.62916-0.18542-1.1312-0.53125-1.5062-0.34167-0.37499-0.79584-0.56249-1.3625-0.5625-0.64167 0.00001-1.1562 0.18126-1.5438 0.54375-0.38333 0.36251-0.60417 0.87292-0.6625 1.5312l4.1-0.006"/>
  <path id="path3125" style="" d="m454.57 280.46h1.15v9.725h-1.15v-9.725"/>
  <path id="path3127" style="" d="m464.11 286.4v0.5625h-5.2875c0.05 0.79167 0.2875 1.3958 0.7125 1.8125 0.42916 0.4125 1.025 0.61875 1.7875 0.61875 0.44166 0 0.86875-0.0542 1.2812-0.1625 0.41666-0.10833 0.82916-0.27083 1.2375-0.4875v1.0875c-0.41251 0.175-0.83542 0.30833-1.2688 0.4-0.43334 0.0917-0.87292 0.1375-1.3188 0.1375-1.1167 0-2.0021-0.325-2.6562-0.975-0.65-0.65-0.975-1.5292-0.975-2.6375 0-1.1458 0.30833-2.0542 0.925-2.725 0.62083-0.67499 1.4562-1.0125 2.5062-1.0125 0.94166 0.00001 1.6854 0.30417 2.2312 0.9125 0.54999 0.60417 0.82499 1.4271 0.825 2.4688m-1.15-0.3375c-0.008-0.62916-0.18542-1.1312-0.53125-1.5062-0.34167-0.37499-0.79584-0.56249-1.3625-0.5625-0.64167 0.00001-1.1562 0.18126-1.5438 0.54375-0.38333 0.36251-0.60417 0.87292-0.6625 1.5312l4.1-0.006"/>
  <path id="path3129" style="" d="m471.81 285.96v4.225h-1.15v-4.1875c-0.00001-0.6625-0.12917-1.1583-0.3875-1.4875-0.25834-0.32916-0.64584-0.49374-1.1625-0.49375-0.62084 0.00001-1.1104 0.19792-1.4688 0.59375-0.35834 0.39584-0.5375 0.93542-0.5375 1.6188v3.9562h-1.1562v-7h1.1562v1.0875c0.275-0.42083 0.59791-0.73541 0.96875-0.94375 0.375-0.20833 0.80625-0.31249 1.2938-0.3125 0.80416 0.00001 1.4125 0.25001 1.825 0.75 0.41249 0.49584 0.61874 1.2271 0.61875 2.1938"/>
  <path id="path3131" style="" d="m478.73 286.61c0-0.83333-0.17292-1.4792-0.51875-1.9375-0.34167-0.45833-0.82292-0.68749-1.4438-0.6875-0.61667 0.00001-1.0979 0.22917-1.4438 0.6875-0.34166 0.45834-0.5125 1.1042-0.5125 1.9375 0 0.82917 0.17084 1.4729 0.5125 1.9312 0.34584 0.45833 0.82708 0.6875 1.4438 0.6875 0.62083 0 1.1021-0.22917 1.4438-0.6875 0.34583-0.45833 0.51875-1.1021 0.51875-1.9312m1.15 2.7125c0 1.1917-0.26459 2.0771-0.79375 2.6562-0.52917 0.58333-1.3396 0.875-2.4312 0.875-0.40417 0-0.78541-0.0312-1.1438-0.0937-0.35833-0.0583-0.70625-0.15-1.0438-0.275v-1.1188c0.3375 0.18333 0.67084 0.31875 1 0.40625 0.32917 0.0875 0.66458 0.13125 1.0062 0.13125 0.75417 0 1.3188-0.19792 1.6938-0.59375 0.375-0.39167 0.5625-0.98542 0.5625-1.7812v-0.56875c-0.2375 0.4125-0.54167 0.72083-0.9125 0.925s-0.81458 0.30625-1.3312 0.30625c-0.85833 0-1.55-0.32708-2.075-0.98125s-0.7875-1.5208-0.7875-2.6c0-1.0833 0.2625-1.9521 0.7875-2.6062 0.525-0.65416 1.2167-0.98124 2.075-0.98125 0.51667 0.00001 0.96042 0.10209 1.3312 0.30625 0.37083 0.20417 0.675 0.51251 0.9125 0.925v-1.0625h1.15v6.1312"/>
  <path id="path3133" style="" d="m488.23 286.4v0.5625h-5.2875c0.05 0.79167 0.2875 1.3958 0.7125 1.8125 0.42917 0.4125 1.025 0.61875 1.7875 0.61875 0.44167 0 0.86875-0.0542 1.2812-0.1625 0.41667-0.10833 0.82916-0.27083 1.2375-0.4875v1.0875c-0.4125 0.175-0.83542 0.30833-1.2688 0.4-0.43333 0.0917-0.87292 0.1375-1.3188 0.1375-1.1167 0-2.0021-0.325-2.6562-0.975-0.65-0.65-0.975-1.5292-0.975-2.6375 0-1.1458 0.30834-2.0542 0.925-2.725 0.62084-0.67499 1.4562-1.0125 2.5062-1.0125 0.94167 0.00001 1.6854 0.30417 2.2312 0.9125 0.55 0.60417 0.825 1.4271 0.825 2.4688m-1.15-0.3375c-0.008-0.62916-0.18542-1.1312-0.53125-1.5062-0.34167-0.37499-0.79583-0.56249-1.3625-0.5625-0.64167 0.00001-1.1562 0.18126-1.5438 0.54375-0.38333 0.36251-0.60416 0.87292-0.6625 1.5312l4.1-0.006"/>
  <path id="path3135" style="" d="m494.73 284.25v-3.7875h1.15v9.725h-1.15v-1.05c-0.24167 0.41667-0.54792 0.72708-0.91875 0.93125-0.36667 0.2-0.80833 0.3-1.325 0.3-0.84583 0-1.5354-0.3375-2.0688-1.0125-0.52916-0.675-0.79375-1.5625-0.79375-2.6625s0.26459-1.9875 0.79375-2.6625c0.53334-0.67499 1.2229-1.0125 2.0688-1.0125 0.51667 0.00001 0.95833 0.10209 1.325 0.30625 0.37083 0.20001 0.67708 0.50834 0.91875 0.925m-3.9188 2.4438c0 0.84584 0.17292 1.5104 0.51875 1.9938 0.35 0.47917 0.82917 0.71875 1.4375 0.71875s1.0875-0.23958 1.4375-0.71875c0.35-0.48333 0.525-1.1479 0.525-1.9938 0-0.84583-0.175-1.5083-0.525-1.9875-0.35-0.48333-0.82917-0.72499-1.4375-0.725-0.60833 0.00001-1.0875 0.24167-1.4375 0.725-0.34583 0.47917-0.51875 1.1417-0.51875 1.9875"/>
  <path id="path3137" style="" d="m504.23 286.4v0.5625h-5.2875c0.05 0.79167 0.2875 1.3958 0.7125 1.8125 0.42917 0.4125 1.025 0.61875 1.7875 0.61875 0.44167 0 0.86875-0.0542 1.2812-0.1625 0.41667-0.10833 0.82916-0.27083 1.2375-0.4875v1.0875c-0.4125 0.175-0.83542 0.30833-1.2688 0.4-0.43333 0.0917-0.87292 0.1375-1.3188 0.1375-1.1167 0-2.0021-0.325-2.6562-0.975-0.65-0.65-0.975-1.5292-0.975-2.6375 0-1.1458 0.30834-2.0542 0.925-2.725 0.62084-0.67499 1.4562-1.0125 2.5062-1.0125 0.94167 0.00001 1.6854 0.30417 2.2312 0.9125 0.55 0.60417 0.825 1.4271 0.825 2.4688m-1.15-0.3375c-0.008-0.62916-0.18542-1.1312-0.53125-1.5062-0.34167-0.37499-0.79583-0.56249-1.3625-0.5625-0.64167 0.00001-1.1562 0.18126-1.5438 0.54375-0.38333 0.36251-0.60416 0.87292-0.6625 1.5312l4.1-0.006m-1.1062-6.1125h1.2438l-2.0375 2.35h-0.95625l1.75-2.35"/>
  <path id="path3139" style="" d="m510.58 283.39v1.0875c-0.325-0.16666-0.6625-0.29166-1.0125-0.375-0.35-0.0833-0.7125-0.12499-1.0875-0.125-0.57083 0.00001-1 0.0875-1.2875 0.2625-0.28333 0.17501-0.425 0.43751-0.425 0.7875 0 0.26667 0.10209 0.47709 0.30625 0.63125 0.20417 0.15 0.61459 0.29375 1.2312 0.43125l0.39375 0.0875c0.81667 0.175 1.3958 0.42292 1.7375 0.74375 0.34583 0.31667 0.51875 0.76042 0.51875 1.3312 0 0.65-0.25833 1.1646-0.775 1.5438-0.5125 0.37917-1.2188 0.56875-2.1188 0.56875-0.375 0-0.76666-0.0375-1.175-0.1125-0.40416-0.0708-0.83125-0.17917-1.2812-0.325v-1.1875c0.425 0.22083 0.84375 0.3875 1.2562 0.5 0.4125 0.10833 0.82084 0.1625 1.225 0.1625 0.54167 0 0.95833-0.0917 1.25-0.275 0.29167-0.1875 0.4375-0.45 0.4375-0.7875 0-0.3125-0.10625-0.55208-0.31875-0.71875-0.20833-0.16666-0.66875-0.32708-1.3812-0.48125l-0.4-0.0937c-0.7125-0.15-1.2271-0.37916-1.5438-0.6875-0.31666-0.3125-0.475-0.73958-0.475-1.2812 0-0.65833 0.23334-1.1667 0.7-1.525 0.46667-0.35833 1.1292-0.53749 1.9875-0.5375 0.425 0.00001 0.825 0.0313 1.2 0.0937 0.375 0.0625 0.72083 0.15626 1.0375 0.28125"/>
  <path id="path3141" style="" d="m373.13 302.61c0-0.83333-0.17292-1.4792-0.51875-1.9375-0.34167-0.45833-0.82292-0.68749-1.4438-0.6875-0.61667 0.00001-1.0979 0.22917-1.4438 0.6875-0.34167 0.45834-0.5125 1.1042-0.5125 1.9375 0 0.82917 0.17083 1.4729 0.5125 1.9312 0.34583 0.45833 0.82708 0.6875 1.4438 0.6875 0.62083 0 1.1021-0.22917 1.4438-0.6875 0.34583-0.45833 0.51875-1.1021 0.51875-1.9312m1.15 2.7125c-0.00001 1.1917-0.26459 2.0771-0.79375 2.6562-0.52917 0.58333-1.3396 0.875-2.4312 0.875-0.40417 0-0.78542-0.0312-1.1438-0.0937-0.35833-0.0583-0.70625-0.15-1.0438-0.275v-1.1188c0.3375 0.18333 0.67083 0.31875 1 0.40625 0.32916 0.0875 0.66458 0.13125 1.0062 0.13125 0.75416 0 1.3188-0.19792 1.6938-0.59375 0.375-0.39167 0.5625-0.98542 0.5625-1.7812v-0.56875c-0.2375 0.4125-0.54167 0.72083-0.9125 0.925-0.37084 0.20417-0.81459 0.30625-1.3312 0.30625-0.85834 0-1.55-0.32708-2.075-0.98125s-0.7875-1.5208-0.7875-2.6c0-1.0833 0.2625-1.9521 0.7875-2.6062 0.525-0.65416 1.2167-0.98124 2.075-0.98125 0.51666 0.00001 0.96041 0.10209 1.3312 0.30625 0.37083 0.20417 0.675 0.51251 0.9125 0.925v-1.0625h1.15v6.1312"/>
  <path id="path3143" style="" d="m379.36 299.99c-0.61667 0.00001-1.1042 0.24167-1.4625 0.725-0.35833 0.47917-0.5375 1.1375-0.5375 1.975s0.17708 1.4979 0.53125 1.9812c0.35833 0.47917 0.84791 0.71875 1.4688 0.71875 0.6125 0 1.0979-0.24167 1.4562-0.725 0.35833-0.48333 0.5375-1.1417 0.5375-1.975 0-0.82916-0.17917-1.4854-0.5375-1.9688-0.35834-0.48749-0.84375-0.73124-1.4562-0.73125m0-0.975c1 0.00001 1.7854 0.32501 2.3562 0.975 0.57083 0.65001 0.85624 1.55 0.85625 2.7-0.00001 1.1458-0.28542 2.0458-0.85625 2.7-0.57084 0.65-1.3562 0.975-2.3562 0.975-1.0042 0-1.7917-0.325-2.3625-0.975-0.56667-0.65417-0.85-1.5542-0.85-2.7 0-1.15 0.28333-2.05 0.85-2.7 0.57083-0.64999 1.3583-0.97499 2.3625-0.975"/>
  <path id="path3145" style="" d="m384.47 296.46h1.15v9.725h-1.15v-9.725"/>
  <path id="path3147" style="" d="m390.93 306.84c-0.325 0.83333-0.64167 1.3771-0.95 1.6312-0.30834 0.25416-0.72083 0.38125-1.2375 0.38125h-0.91875v-0.9625h0.675c0.31667 0 0.5625-0.075 0.7375-0.225s0.36875-0.50417 0.58125-1.0625l0.20625-0.525-2.8312-6.8875h1.2188l2.1875 5.475 2.1875-5.475h1.2188l-3.075 7.65"/>
  <path id="path3149" style="" d="m398.31 299.99c-0.61667 0.00001-1.1042 0.24167-1.4625 0.725-0.35833 0.47917-0.5375 1.1375-0.5375 1.975s0.17708 1.4979 0.53125 1.9812c0.35833 0.47917 0.84792 0.71875 1.4688 0.71875 0.6125 0 1.0979-0.24167 1.4562-0.725 0.35833-0.48333 0.5375-1.1417 0.5375-1.975 0-0.82916-0.17917-1.4854-0.5375-1.9688-0.35834-0.48749-0.84375-0.73124-1.4562-0.73125m0-0.975c1 0.00001 1.7854 0.32501 2.3562 0.975 0.57083 0.65001 0.85624 1.55 0.85625 2.7-0.00001 1.1458-0.28542 2.0458-0.85625 2.7-0.57084 0.65-1.3562 0.975-2.3562 0.975-1.0042 0-1.7917-0.325-2.3625-0.975-0.56667-0.65417-0.85-1.5542-0.85-2.7 0-1.15 0.28333-2.05 0.85-2.7 0.57083-0.64999 1.3583-0.97499 2.3625-0.975m0.86875-3.0688h1.2438l-2.0375 2.35h-0.95625l1.75-2.35"/>
  <path id="path3151" style="" d="m410.45 304.6h1.3188v1.075l-1.025 2h-0.80625l0.5125-2v-1.075m-2.5625 0h1.3188v1.075l-1.025 2h-0.80625l0.5125-2v-1.075"/>
  <path id="path3153" style="" d="m419.15 302.69c0-0.84583-0.175-1.5083-0.525-1.9875-0.34584-0.48333-0.82292-0.72499-1.4312-0.725-0.60833 0.00001-1.0875 0.24167-1.4375 0.725-0.34583 0.47917-0.51875 1.1417-0.51875 1.9875 0 0.84584 0.17292 1.5104 0.51875 1.9938 0.35 0.47917 0.82917 0.71875 1.4375 0.71875s1.0854-0.23958 1.4312-0.71875c0.35-0.48333 0.525-1.1479 0.525-1.9938m-3.9125-2.4438c0.24167-0.41666 0.54583-0.72499 0.9125-0.925 0.37083-0.20416 0.8125-0.30624 1.325-0.30625 0.85 0.00001 1.5396 0.33751 2.0688 1.0125 0.53333 0.67501 0.8 1.5625 0.8 2.6625s-0.26667 1.9875-0.8 2.6625c-0.52917 0.675-1.2188 1.0125-2.0688 1.0125-0.5125 0-0.95417-0.1-1.325-0.3-0.36667-0.20417-0.67083-0.51458-0.9125-0.93125v1.05h-1.1562v-9.725h1.1562v3.7875"/>
  <path id="path3155" style="" d="m428.23 302.4v0.5625h-5.2875c0.05 0.79167 0.2875 1.3958 0.7125 1.8125 0.42917 0.4125 1.025 0.61875 1.7875 0.61875 0.44167 0 0.86875-0.0542 1.2812-0.1625 0.41666-0.10833 0.82916-0.27083 1.2375-0.4875v1.0875c-0.4125 0.175-0.83542 0.30833-1.2688 0.4-0.43334 0.0917-0.87292 0.1375-1.3188 0.1375-1.1167 0-2.0021-0.325-2.6562-0.975-0.65-0.65-0.975-1.5292-0.975-2.6375 0-1.1458 0.30834-2.0542 0.925-2.725 0.62083-0.67499 1.4562-1.0125 2.5062-1.0125 0.94166 0.00001 1.6854 0.30417 2.2312 0.9125 0.55 0.60417 0.825 1.4271 0.825 2.4688m-1.15-0.3375c-0.008-0.62916-0.18542-1.1312-0.53125-1.5062-0.34167-0.37499-0.79583-0.56249-1.3625-0.5625-0.64167 0.00001-1.1562 0.18126-1.5438 0.54375-0.38333 0.36251-0.60417 0.87292-0.6625 1.5312l4.1-0.006"/>
  <path id="path3157" style="" d="m436.11 302.4v0.5625h-5.2875c0.05 0.79167 0.2875 1.3958 0.7125 1.8125 0.42917 0.4125 1.025 0.61875 1.7875 0.61875 0.44167 0 0.86875-0.0542 1.2812-0.1625 0.41666-0.10833 0.82916-0.27083 1.2375-0.4875v1.0875c-0.4125 0.175-0.83542 0.30833-1.2688 0.4-0.43334 0.0917-0.87292 0.1375-1.3188 0.1375-1.1167 0-2.0021-0.325-2.6562-0.975-0.65-0.65-0.975-1.5292-0.975-2.6375 0-1.1458 0.30834-2.0542 0.925-2.725 0.62083-0.67499 1.4562-1.0125 2.5062-1.0125 0.94166 0.00001 1.6854 0.30417 2.2312 0.9125 0.55 0.60417 0.825 1.4271 0.825 2.4688m-1.15-0.3375c-0.008-0.62916-0.18542-1.1312-0.53125-1.5062-0.34167-0.37499-0.79583-0.56249-1.3625-0.5625-0.64167 0.00001-1.1562 0.18126-1.5438 0.54375-0.38333 0.36251-0.60417 0.87292-0.6625 1.5312l4.1-0.006m-1.1062-6.1125h1.2438l-2.0375 2.35h-0.95625l1.75-2.35"/>
  <path id="path3159" style="" d="m439.11 305.14v3.7125h-1.1562v-9.6625h1.1562v1.0625c0.24166-0.41666 0.54583-0.72499 0.9125-0.925 0.37083-0.20416 0.8125-0.30624 1.325-0.30625 0.84999 0.00001 1.5396 0.33751 2.0688 1.0125 0.53333 0.67501 0.79999 1.5625 0.8 2.6625-0.00001 1.1-0.26667 1.9875-0.8 2.6625-0.52917 0.675-1.2188 1.0125-2.0688 1.0125-0.5125 0-0.95417-0.1-1.325-0.3-0.36667-0.20417-0.67084-0.51458-0.9125-0.93125m3.9125-2.4438c-0.00001-0.84583-0.17501-1.5083-0.525-1.9875-0.34584-0.48333-0.82292-0.72499-1.4312-0.725-0.60834 0.00001-1.0875 0.24167-1.4375 0.725-0.34584 0.47917-0.51875 1.1417-0.51875 1.9875 0 0.84584 0.17291 1.5104 0.51875 1.9938 0.35 0.47917 0.82916 0.71875 1.4375 0.71875 0.60833 0 1.0854-0.23958 1.4312-0.71875 0.34999-0.48333 0.52499-1.1479 0.525-1.9938"/>
  <path id="path3161" style="" d="m447.56 295.95h1.2438l-2.0375 2.35h-0.95625l1.75-2.35m-1.4438 3.2375h1.15v7h-1.15v-7m0.575-0.16875"/>
  <path id="path3163" style="" d="m450.81 297.2v1.9875h2.3688v0.89375h-2.3688v3.8c0 0.57084 0.0771 0.9375 0.23125 1.1 0.15833 0.1625 0.47708 0.24375 0.95625 0.24375h1.1812v0.9625h-1.1812c-0.8875 0-1.5-0.16458-1.8375-0.49375-0.3375-0.33333-0.50625-0.9375-0.50625-1.8125v-3.8h-0.84375v-0.89375h0.84375v-1.9875h1.1562"/>
  <path id="path3165" style="" d="m460.68 302.4v0.5625h-5.2875c0.05 0.79167 0.2875 1.3958 0.7125 1.8125 0.42917 0.4125 1.025 0.61875 1.7875 0.61875 0.44167 0 0.86875-0.0542 1.2812-0.1625 0.41666-0.10833 0.82916-0.27083 1.2375-0.4875v1.0875c-0.4125 0.175-0.83542 0.30833-1.2688 0.4-0.43333 0.0917-0.87292 0.1375-1.3188 0.1375-1.1167 0-2.0021-0.325-2.6562-0.975-0.65-0.65-0.975-1.5292-0.975-2.6375 0-1.1458 0.30834-2.0542 0.925-2.725 0.62084-0.67499 1.4562-1.0125 2.5062-1.0125 0.94167 0.00001 1.6854 0.30417 2.2312 0.9125 0.55 0.60417 0.825 1.4271 0.825 2.4688m-1.15-0.3375c-0.008-0.62916-0.18542-1.1312-0.53125-1.5062-0.34167-0.37499-0.79583-0.56249-1.3625-0.5625-0.64167 0.00001-1.1562 0.18126-1.5438 0.54375-0.38333 0.36251-0.60416 0.87292-0.6625 1.5312l4.1-0.006m-1.1062-6.1125h1.2438l-2.0375 2.35h-0.95625l1.75-2.35"/>
  <path id="path3167" style="" d="m467.03 299.39v1.0875c-0.325-0.16666-0.6625-0.29166-1.0125-0.375-0.35-0.0833-0.7125-0.12499-1.0875-0.125-0.57083 0.00001-1 0.0875-1.2875 0.2625-0.28333 0.17501-0.425 0.43751-0.425 0.7875 0 0.26667 0.10209 0.47709 0.30625 0.63125 0.20417 0.15 0.61458 0.29375 1.2312 0.43125l0.39375 0.0875c0.81667 0.175 1.3958 0.42292 1.7375 0.74375 0.34583 0.31667 0.51875 0.76042 0.51875 1.3312 0 0.65-0.25834 1.1646-0.775 1.5438-0.5125 0.37917-1.2188 0.56875-2.1188 0.56875-0.375 0-0.76666-0.0375-1.175-0.1125-0.40416-0.0708-0.83125-0.17917-1.2812-0.325v-1.1875c0.425 0.22083 0.84375 0.3875 1.2562 0.5 0.4125 0.10833 0.82083 0.1625 1.225 0.1625 0.54167 0 0.95833-0.0917 1.25-0.275 0.29167-0.1875 0.4375-0.45 0.4375-0.7875 0-0.3125-0.10625-0.55208-0.31875-0.71875-0.20833-0.16666-0.66875-0.32708-1.3812-0.48125l-0.4-0.0937c-0.7125-0.15-1.2271-0.37916-1.5438-0.6875-0.31666-0.3125-0.475-0.73958-0.475-1.2812 0-0.65833 0.23334-1.1667 0.7-1.525 0.46667-0.35833 1.1292-0.53749 1.9875-0.5375 0.425 0.00001 0.825 0.0313 1.2 0.0937 0.375 0.0625 0.72083 0.15626 1.0375 0.28125"/>
  <path id="path3169" style="" d="m475.23 302.4v0.5625h-5.2875c0.05 0.79167 0.2875 1.3958 0.7125 1.8125 0.42916 0.4125 1.025 0.61875 1.7875 0.61875 0.44166 0 0.86874-0.0542 1.2812-0.1625 0.41666-0.10833 0.82916-0.27083 1.2375-0.4875v1.0875c-0.41251 0.175-0.83542 0.30833-1.2688 0.4-0.43334 0.0917-0.87292 0.1375-1.3188 0.1375-1.1167 0-2.0021-0.325-2.6562-0.975-0.65-0.65-0.975-1.5292-0.975-2.6375 0-1.1458 0.30833-2.0542 0.925-2.725 0.62083-0.67499 1.4562-1.0125 2.5062-1.0125 0.94166 0.00001 1.6854 0.30417 2.2312 0.9125 0.54999 0.60417 0.82499 1.4271 0.825 2.4688m-1.15-0.3375c-0.008-0.62916-0.18542-1.1312-0.53125-1.5062-0.34167-0.37499-0.79584-0.56249-1.3625-0.5625-0.64167 0.00001-1.1562 0.18126-1.5438 0.54375-0.38334 0.36251-0.60417 0.87292-0.6625 1.5312l4.1-0.006"/>
  <path id="path3171" style="" d="m477.51 296.86h1.3188v1.075l-1.025 2h-0.80625l0.5125-2v-1.075m2.5625 0h1.3188v1.075l-1.025 2h-0.80625l0.5125-2v-1.075"/>
  <path id="path3173" style="" d="m490.58 296.48c-0.55833 0.95834-0.97292 1.9063-1.2438 2.8438-0.27083 0.93751-0.40625 1.8875-0.40625 2.85s0.13542 1.9167 0.40625 2.8625c0.275 0.94167 0.68958 1.8896 1.2438 2.8438h-1c-0.625-0.97917-1.0938-1.9417-1.4062-2.8875-0.30833-0.94583-0.4625-1.8854-0.4625-2.8188 0-0.92916 0.15417-1.8646 0.4625-2.8062 0.30834-0.94166 0.77709-1.9042 1.4062-2.8875h1"/>
  <path id="path3175" style="" d="m492.7 303.42v-4.2375h1.15v4.1938c0 0.6625 0.12917 1.1604 0.3875 1.4938 0.25833 0.32917 0.64583 0.49375 1.1625 0.49375 0.62083 0 1.1104-0.19792 1.4688-0.59375 0.3625-0.39583 0.54375-0.93541 0.54375-1.6188v-3.9688h1.15v7h-1.15v-1.075c-0.27917 0.425-0.60417 0.74167-0.975 0.95-0.36667 0.20417-0.79375 0.30625-1.2812 0.30625-0.80417 0-1.4146-0.25-1.8312-0.75-0.41666-0.5-0.625-1.2312-0.625-2.1938m2.8938-4.4062m0.85625-3.0688h1.2438l-2.0375 2.35h-0.95625l1.75-2.35"/>
  <path id="path3177" style="" d="m500.95 299.19h1.15v7.125c0 0.89167-0.17083 1.5375-0.5125 1.9375-0.3375 0.4-0.88333 0.6-1.6375 0.6h-0.4375v-0.975h0.30625c0.4375 0 0.73542-0.10208 0.89375-0.30625 0.15834-0.2 0.2375-0.61875 0.2375-1.2562v-7.125m0-2.725h1.15v1.4562h-1.15v-1.4562"/>
  <path id="path3179" style="" d="m512.63 300.26c-0.12917-0.075-0.27083-0.12916-0.425-0.1625-0.15-0.0375-0.31667-0.0562-0.5-0.0563-0.65 0.00001-1.15 0.21251-1.5 0.6375-0.34583 0.42084-0.51875 1.0271-0.51875 1.8188v3.6875h-1.1562v-7h1.1562v1.0875c0.24167-0.42499 0.55625-0.73958 0.94375-0.94375 0.3875-0.20833 0.85833-0.31249 1.4125-0.3125 0.0792 0.00001 0.16667 0.006 0.2625 0.0188 0.0958 0.008 0.20208 0.0229 0.31875 0.0437l0.006 1.1812"/>
  <path id="path3181" style="" d="m513.73 303.42v-4.2375h1.15v4.1938c0 0.6625 0.12916 1.1604 0.3875 1.4938 0.25833 0.32917 0.64583 0.49375 1.1625 0.49375 0.62083 0 1.1104-0.19792 1.4688-0.59375 0.36249-0.39583 0.54374-0.93541 0.54375-1.6188v-3.9688h1.15v7h-1.15v-1.075c-0.27917 0.425-0.60417 0.74167-0.975 0.95-0.36667 0.20417-0.79376 0.30625-1.2812 0.30625-0.80417 0-1.4146-0.25-1.8312-0.75-0.41667-0.5-0.625-1.2312-0.625-2.1938m2.8938-4.4062"/>
  <path id="path3183" style="" d="m526.58 302.61c-0.00001-0.83333-0.17292-1.4792-0.51875-1.9375-0.34167-0.45833-0.82292-0.68749-1.4438-0.6875-0.61667 0.00001-1.0979 0.22917-1.4438 0.6875-0.34167 0.45834-0.5125 1.1042-0.5125 1.9375 0 0.82917 0.17083 1.4729 0.5125 1.9312 0.34583 0.45833 0.82708 0.6875 1.4438 0.6875 0.62083 0 1.1021-0.22917 1.4438-0.6875 0.34583-0.45833 0.51874-1.1021 0.51875-1.9312m1.15 2.7125c-0.00001 1.1917-0.26459 2.0771-0.79375 2.6562-0.52917 0.58333-1.3396 0.875-2.4312 0.875-0.40417 0-0.78542-0.0312-1.1438-0.0937-0.35834-0.0583-0.70625-0.15-1.0438-0.275v-1.1188c0.3375 0.18333 0.67083 0.31875 1 0.40625 0.32916 0.0875 0.66458 0.13125 1.0062 0.13125 0.75416 0 1.3187-0.19792 1.6938-0.59375 0.37499-0.39167 0.56249-0.98542 0.5625-1.7812v-0.56875c-0.23751 0.4125-0.54167 0.72083-0.9125 0.925-0.37084 0.20417-0.81459 0.30625-1.3312 0.30625-0.85834 0-1.55-0.32708-2.075-0.98125s-0.7875-1.5208-0.7875-2.6c0-1.0833 0.2625-1.9521 0.7875-2.6062 0.525-0.65416 1.2167-0.98124 2.075-0.98125 0.51666 0.00001 0.96041 0.10209 1.3312 0.30625 0.37083 0.20417 0.67499 0.51251 0.9125 0.925v-1.0625h1.15v6.1312"/>
  <path id="path3185" style="" d="m532.81 299.99c-0.61667 0.00001-1.1042 0.24167-1.4625 0.725-0.35834 0.47917-0.5375 1.1375-0.5375 1.975s0.17708 1.4979 0.53125 1.9812c0.35833 0.47917 0.84791 0.71875 1.4688 0.71875 0.61249 0 1.0979-0.24167 1.4562-0.725 0.35833-0.48333 0.53749-1.1417 0.5375-1.975-0.00001-0.82916-0.17917-1.4854-0.5375-1.9688-0.35834-0.48749-0.84376-0.73124-1.4562-0.73125m0-0.975c0.99999 0.00001 1.7854 0.32501 2.3562 0.975 0.57082 0.65001 0.85624 1.55 0.85625 2.7-0.00001 1.1458-0.28543 2.0458-0.85625 2.7-0.57084 0.65-1.3563 0.975-2.3562 0.975-1.0042 0-1.7917-0.325-2.3625-0.975-0.56667-0.65417-0.85-1.5542-0.85-2.7 0-1.15 0.28333-2.05 0.85-2.7 0.57083-0.64999 1.3583-0.97499 2.3625-0.975m0.86875-3.0688h1.2438l-2.0375 2.35h-0.95625l1.75-2.35"/>
  <path id="path3187" style="" d="m537.88 296.46h1.1562v5.7438l3.4312-3.0188h1.4688l-3.7125 3.275 3.8688 3.725h-1.5l-3.5562-3.4188v3.4188h-1.1562v-9.725"/>
  <path id="path3189" style="" d="m545.16 296.48h1c0.625 0.98334 1.0917 1.9458 1.4 2.8875 0.31249 0.94167 0.46874 1.8771 0.46875 2.8062-0.00001 0.93334-0.15626 1.8729-0.46875 2.8188-0.30834 0.94583-0.775 1.9083-1.4 2.8875h-1c0.55416-0.95417 0.96666-1.9021 1.2375-2.8438 0.275-0.94583 0.4125-1.9 0.4125-2.8625s-0.1375-1.9125-0.4125-2.85c-0.27084-0.93749-0.68334-1.8854-1.2375-2.8438"/>
 </g>
</svg>
