<?xml version="1.0" encoding="UTF-8" standalone="no"?>
<!-- Created with Inkscape (http://www.inkscape.org/) -->
<svg id="svg2" xmlns:rdf="http://www.w3.org/1999/02/22-rdf-syntax-ns#" xmlns="http://www.w3.org/2000/svg" height="372.58" width="667.69" version="1.1" xmlns:cc="http://creativecommons.org/ns#" xmlns:dc="http://purl.org/dc/elements/1.1/" viewBox="517 99 362 194.05079">
 <metadata id="metadata128">
  <rdf:RDF>
   <cc:Work rdf:about="">
    <dc:format>image/svg+xml</dc:format>
    <dc:type rdf:resource="http://purl.org/dc/dcmitype/StillImage"/>
   </cc:Work>
  </rdf:RDF>
 </metadata>
 <g id="g4" transform="translate(-2 -3.9746)">
  <path id="polygon6" fill="#fff" d="m600 240-40 20-40 40h40z"/>
  <path id="polygon8" d="m600 240-40 20-40 40h40z" stroke="#000" stroke-width="2" fill="none"/>
 </g>
 <g id="g10" transform="translate(-2 -3.9746)">
  <path id="polygon12" fill="#fff" d="m640 260-40-20-40 60h40z"/>
  <path id="polygon14" d="m640 260-40-20-40 60h40z" stroke="#000" stroke-width="2" fill="none"/>
 </g>
 <g id="g16" transform="translate(-2 -3.9746)">
  <path id="polygon18" fill="#fff" d="m680 280-40-20-40 40h40z"/>
  <path id="polygon20" d="m680 280-40-20-40 40h40z" stroke="#000" stroke-width="2" fill="none"/>
 </g>
 <g id="g22" transform="translate(-2 -3.9746)">
  <path id="polygon24" fill="#fff" d="m720 260-40 20-40 20h40z"/>
  <path id="polygon26" d="m720 260-40 20-40 20h40z" stroke="#000" stroke-width="2" fill="none"/>
 </g>
 <g id="g28" transform="translate(-2 -3.9746)">
  <path id="polygon30" fill="#fff" d="m640 220h-40l-40 40 40-20z"/>
  <path id="polygon32" d="m640 220h-40l-40 40 40-20z" stroke="#000" stroke-width="2" fill="none"/>
 </g>
 <g id="g34" transform="translate(-2 -3.9746)">
  <path id="polygon36" fill="#fff" d="m680 220h-40l-40 20 40 20z"/>
  <path id="polygon38" d="m680 220h-40l-40 20 40 20z" stroke="#000" stroke-width="2" fill="none"/>
 </g>
 <g id="g40" transform="translate(-2 -3.9746)">
  <path id="polygon42" fill="#fff" d="m720 220h-40l-40 40 40 20z"/>
  <path id="polygon44" d="m720 220h-40l-40 40 40 20z" stroke="#000" stroke-width="2" fill="none"/>
 </g>
 <g id="g46" transform="translate(-2 -3.9746)">
  <path id="polygon48" fill="#fff" d="m760 220h-40l-40 60 40-20z"/>
  <path id="polygon50" d="m760 220h-40l-40 60 40-20z" stroke="#000" stroke-width="2" fill="none"/>
 </g>
 <g id="g52" transform="translate(-2 -3.9746)">
  <path id="polygon54" fill="#fff" d="m680 180-40-20-40 60h40z"/>
  <path id="polygon56" d="m680 180-40-20-40 60h40z" stroke="#000" stroke-width="2" fill="none"/>
 </g>
 <g id="g58" transform="translate(-2 -3.9746)">
  <path id="polygon60" fill="#fff" d="m720 140-40 40-40 40h40z"/>
  <path id="polygon62" d="m720 140-40 40-40 40h40z" stroke="#000" stroke-width="2" fill="none"/>
 </g>
 <g id="g64" transform="translate(-2 -3.9746)">
  <path id="polygon66" fill="#fff" d="m760 180-40-40-40 80h40z"/>
  <path id="polygon68" d="m760 180-40-40-40 80h40z" stroke="#000" stroke-width="2" fill="none"/>
 </g>
 <g id="g70" transform="translate(-2 -3.9746)">
  <path id="polygon72" fill="#fff" d="m800 200-40-20-40 40h40z"/>
  <path id="polygon74" d="m800 200-40-20-40 40h40z" stroke="#000" stroke-width="2" fill="none"/>
 </g>
 <g id="g76" transform="translate(-2 -3.9746)">
  <path id="polygon78" fill="#fff" d="m720 140h-40l-40 20 40 20z"/>
  <path id="polygon80" d="m720 140h-40l-40 20 40 20z" stroke="#000" stroke-width="2" fill="none"/>
 </g>
 <g id="g82" transform="translate(-2 -3.9746)">
  <path id="polygon84" fill="#fff" d="m760 140h-40l-40 40 40-40z"/>
  <path id="polygon86" d="m760 140h-40l-40 40 40-40z" stroke="#000" stroke-width="2" fill="none"/>
 </g>
 <g id="g88" transform="translate(-2 -3.9746)">
  <path id="polygon90" fill="#fff" d="m800 140h-40-40l40 40z"/>
  <path id="polygon92" d="m800 140h-40-40l40 40z" stroke="#000" stroke-width="2" fill="none"/>
 </g>
 <g id="g94" transform="translate(-2 -3.9746)">
  <path id="polygon96" fill="#fff" d="m840 140h-40l-40 40 40 20z"/>
  <path id="polygon98" d="m840 140h-40l-40 40 40 20z" stroke="#000" stroke-width="2" fill="none"/>
 </g>
 <g id="g100" transform="translate(-2 -3.9746)">
  <path id="polygon102" fill="#fff" d="m760 100h-40l-40 40h40z"/>
  <path id="polygon104" d="m760 100h-40l-40 40h40z" stroke="#000" stroke-width="2" fill="none"/>
 </g>
 <g id="g106" transform="translate(-2 -3.9746)">
  <path id="polygon108" fill="#fff" d="m800 100h-40l-40 40h40z"/>
  <path id="polygon110" d="m800 100h-40l-40 40h40z" stroke="#000" stroke-width="2" fill="none"/>
 </g>
 <g id="g112" transform="translate(-2 -3.9746)">
  <path id="polygon114" fill="#fff" d="m840 100h-40l-40 40h40z"/>
  <path id="polygon116" d="m840 100h-40l-40 40h40z" stroke="#000" stroke-width="2" fill="none"/>
 </g>
 <g id="g118" transform="translate(-2 -3.9746)">
  <path id="polygon120" fill="#fff" d="m880 100h-40l-40 40h40z"/>
  <path id="polygon122" d="m880 100h-40l-40 40h40z" stroke="#000" stroke-width="2" fill="none"/>
 </g>
</svg>
