<?xml version="1.0" encoding="UTF-8" standalone="no"?>
<!-- Created with Inkscape (http://www.inkscape.org/) -->
<svg id="svg2" xmlns:rdf="http://www.w3.org/1999/02/22-rdf-syntax-ns#" xmlns="http://www.w3.org/2000/svg" height="445.19" width="813.12" version="1.1" xmlns:cc="http://creativecommons.org/ns#" xmlns:dc="http://purl.org/dc/elements/1.1/" viewBox="278 78 441.99999 234.8564">
 <metadata id="metadata278">
  <rdf:RDF>
   <cc:Work rdf:about="">
    <dc:format>image/svg+xml</dc:format>
    <dc:type rdf:resource="http://purl.org/dc/dcmitype/StillImage"/>
   </cc:Work>
  </rdf:RDF>
 </metadata>
 <g id="g4" transform="translate(-1 -4.5718)">
  <path id="ellipse6" fill="#00f" d="m320 100c0 11.046-8.9543 20-20 20s-20-8.9543-20-20 8.9543-20 20-20 20 8.9543 20 20z"/>
  <path id="ellipse8" d="m320 100c0 11.046-8.9543 20-20 20s-20-8.9543-20-20 8.9543-20 20-20 20 8.9543 20 20z" stroke="#000" stroke-width="2" fill="none"/>
 </g>
 <g id="g10" transform="translate(-1 -4.5718)">
  <path id="ellipse12" fill="#00f" d="m520 100c0 11.046-8.9543 20-20 20s-20-8.9543-20-20 8.9543-20 20-20 20 8.9543 20 20z"/>
  <path id="ellipse14" d="m520 100c0 11.046-8.9543 20-20 20s-20-8.9543-20-20 8.9543-20 20-20 20 8.9543 20 20z" stroke="#000" stroke-width="2" fill="none"/>
 </g>
 <g id="g16" transform="translate(-1 -4.5718)">
  <path id="ellipse18" fill="#00f" d="m320 300c0 11.046-8.9543 20-20 20s-20-8.9543-20-20 8.9543-20 20-20 20 8.9543 20 20z"/>
  <path id="ellipse20" d="m320 300c0 11.046-8.9543 20-20 20s-20-8.9543-20-20 8.9543-20 20-20 20 8.9543 20 20z" stroke="#000" stroke-width="2" fill="none"/>
 </g>
 <g id="g22" transform="translate(-1 -4.5718)">
  <path id="ellipse24" fill="#00f" d="m520 300c0 11.046-8.9543 20-20 20s-20-8.9543-20-20 8.9543-20 20-20 20 8.9543 20 20z"/>
  <path id="ellipse26" d="m520 300c0 11.046-8.9543 20-20 20s-20-8.9543-20-20 8.9543-20 20-20 20 8.9543 20 20z" stroke="#000" stroke-width="2" fill="none"/>
 </g>
 <g id="g28" transform="translate(-1 -4.5718)">
  <path id="ellipse30" fill="#0f0" d="m420 200c0 11.046-8.9543 20-20 20s-20-8.9543-20-20 8.9543-20 20-20 20 8.9543 20 20z"/>
  <path id="ellipse32" d="m420 200c0 11.046-8.9543 20-20 20s-20-8.9543-20-20 8.9543-20 20-20 20 8.9543 20 20z" stroke="#000" stroke-width="2" fill="none"/>
 </g>
 <g id="g34" transform="translate(-1 -4.5718)">
  <path id="ellipse36" fill="#f00" d="m420 300c0 11.046-8.9543 20-20 20s-20-8.9543-20-20 8.9543-20 20-20 20 8.9543 20 20z"/>
  <path id="ellipse38" d="m420 300c0 11.046-8.9543 20-20 20s-20-8.9543-20-20 8.9543-20 20-20 20 8.9543 20 20z" stroke="#000" stroke-width="2" fill="none"/>
 </g>
 <g id="g40" transform="translate(-1 -4.5718)">
  <path id="ellipse42" fill="#f00" d="m420 100c0 11.046-8.9543 20-20 20s-20-8.9543-20-20 8.9543-20 20-20 20 8.9543 20 20z"/>
  <path id="ellipse44" d="m420 100c0 11.046-8.9543 20-20 20s-20-8.9543-20-20 8.9543-20 20-20 20 8.9543 20 20z" stroke="#000" stroke-width="2" fill="none"/>
 </g>
 <g id="g46" transform="translate(-1 -4.5718)">
  <path id="ellipse48" fill="#f00" d="m520 200c0 11.046-8.9543 20-20 20s-20-8.9543-20-20 8.9543-20 20-20 20 8.9543 20 20z"/>
  <path id="ellipse50" d="m520 200c0 11.046-8.9543 20-20 20s-20-8.9543-20-20 8.9543-20 20-20 20 8.9543 20 20z" stroke="#000" stroke-width="2" fill="none"/>
 </g>
 <g id="g52" transform="translate(-1 -4.5718)">
  <path id="ellipse54" fill="#f00" d="m320 200c0 11.046-8.9543 20-20 20s-20-8.9543-20-20 8.9543-20 20-20 20 8.9543 20 20z"/>
  <path id="ellipse56" d="m320 200c0 11.046-8.9543 20-20 20s-20-8.9543-20-20 8.9543-20 20-20 20 8.9543 20 20z" stroke="#000" stroke-width="2" fill="none"/>
 </g>
 <g id="g58" stroke="#000" stroke-width="2" fill="none" transform="translate(-1 -4.5718)">
  <path id="line60" d="m321.92 121.92 52.996 52.996"/>
  <path id="polyline62" d="m365.89 172.96 10.607 3.536-3.536-10.607"/>
 </g>
 <g id="g64" stroke="#000" stroke-width="2" fill="none" transform="translate(-1 -4.5718)">
  <path id="line66" d="m478.08 121.92-52.996 52.996"/>
  <path id="polyline68" d="m427.04 165.89-3.536 10.607 10.607-3.536"/>
 </g>
 <g id="g70" stroke="#000" stroke-width="2" fill="none" transform="translate(-1 -4.5718)">
  <path id="line72" d="m321.92 278.08 52.996-52.996"/>
  <path id="polyline74" d="m372.96 234.11 3.536-10.607-10.607 3.536"/>
 </g>
 <g id="g76" stroke="#000" stroke-width="2" fill="none" transform="translate(-1 -4.5718)">
  <path id="line78" d="m478.08 278.08-52.996-52.996"/>
  <path id="polyline80" d="m434.11 227.04-10.607-3.536 3.536 10.607"/>
 </g>
 <g id="g82" stroke="#000" stroke-width="2" fill="none" transform="translate(-1 -4.5718)">
  <path id="line84" d="m300 131v33.524"/>
  <path id="polyline86" d="m295 156.76 5 10 5-10"/>
 </g>
 <g id="g88" stroke="#000" stroke-width="2" fill="none" transform="translate(-1 -4.5718)">
  <path id="line90" d="m300 269v-33.53"/>
  <path id="polyline92" d="m305 243.24-5-10-5 10"/>
 </g>
 <g id="g94" stroke="#000" stroke-width="2" fill="none" transform="translate(-1 -4.5718)">
  <path id="line96" d="m331 100h33.524"/>
  <path id="polyline98" d="m356.76 105 10-5-10-5"/>
 </g>
 <g id="g100" stroke="#000" stroke-width="2" fill="none" transform="translate(-1 -4.5718)">
  <path id="line102" d="m469 100h-33.53"/>
  <path id="polyline104" d="m443.24 95-10 5 10 5"/>
 </g>
 <g id="g106" stroke="#000" stroke-width="2" fill="none" transform="translate(-1 -4.5718)">
  <path id="line108" d="m500 131v33.524"/>
  <path id="polyline110" d="m495 156.76 5 10 5-10"/>
 </g>
 <g id="g112" stroke="#000" stroke-width="2" fill="none" transform="translate(-1 -4.5718)">
  <path id="line114" d="m500 269v-33.53"/>
  <path id="polyline116" d="m505 243.24-5-10-5 10"/>
 </g>
 <g id="g118" stroke="#000" stroke-width="2" fill="none" transform="translate(-1 -4.5718)">
  <path id="line120" d="m331 300h33.524"/>
  <path id="polyline122" d="m356.76 305 10-5-10-5"/>
 </g>
 <g id="g124" stroke="#000" stroke-width="2" fill="none" transform="translate(-1 -4.5718)">
  <path id="line126" d="m469 300h-33.53"/>
  <path id="polyline128" d="m443.24 295-10 5 10 5"/>
 </g>
 <g id="g130" stroke="#000" stroke-width="2" fill="none" transform="translate(-1 -4.5718)">
  <path id="line132" d="m369 200h-33.53"/>
  <path id="polyline134" d="m343.24 195-10 5 10 5"/>
 </g>
 <g id="g136" stroke="#000" stroke-width="2" fill="none" transform="translate(-1 -4.5718)">
  <path id="line138" d="m400 169v-33.524"/>
  <path id="polyline140" d="m405 143.24-5-10-5 10"/>
 </g>
 <g id="g142" stroke="#000" stroke-width="2" fill="none" transform="translate(-1 -4.5718)">
  <path id="line144" d="m431 200h33.524"/>
  <path id="polyline146" d="m456.76 205 10-5-10-5"/>
 </g>
 <g id="g148" stroke="#000" stroke-width="2" fill="none" transform="translate(-1 -4.5718)">
  <path id="line150" d="m400 231v33.524"/>
  <path id="polyline152" d="m395 256.76 5 10 5-10"/>
 </g>
 <g id="g154" transform="translate(-1 -4.5718)">
  <path id="ellipse156" fill="#00f" d="m720 100c0 11.046-8.9543 20-20 20s-20-8.9543-20-20 8.9543-20 20-20 20 8.9543 20 20z"/>
  <path id="ellipse158" d="m720 100c0 11.046-8.9543 20-20 20s-20-8.9543-20-20 8.9543-20 20-20 20 8.9543 20 20z" stroke="#000" stroke-width="2" fill="none"/>
 </g>
 <g id="g160" transform="translate(-1 -4.5718)">
  <path id="ellipse162" fill="#00f" d="m720 300c0 11.046-8.9543 20-20 20s-20-8.9543-20-20 8.9543-20 20-20 20 8.9543 20 20z"/>
  <path id="ellipse164" d="m720 300c0 11.046-8.9543 20-20 20s-20-8.9543-20-20 8.9543-20 20-20 20 8.9543 20 20z" stroke="#000" stroke-width="2" fill="none"/>
 </g>
 <g id="g166" transform="translate(-1 -4.5718)">
  <path id="ellipse168" fill="#0f0" d="m620 200c0 11.046-8.9543 20-20 20s-20-8.9543-20-20 8.9543-20 20-20 20 8.9543 20 20z"/>
  <path id="ellipse170" d="m620 200c0 11.046-8.9543 20-20 20s-20-8.9543-20-20 8.9543-20 20-20 20 8.9543 20 20z" stroke="#000" stroke-width="2" fill="none"/>
 </g>
 <g id="g172" transform="translate(-1 -4.5718)">
  <path id="ellipse174" fill="#f00" d="m620 300c0 11.046-8.9543 20-20 20s-20-8.9543-20-20 8.9543-20 20-20 20 8.9543 20 20z"/>
  <path id="ellipse176" d="m620 300c0 11.046-8.9543 20-20 20s-20-8.9543-20-20 8.9543-20 20-20 20 8.9543 20 20z" stroke="#000" stroke-width="2" fill="none"/>
 </g>
 <g id="g178" transform="translate(-1 -4.5718)">
  <path id="ellipse180" fill="#f00" d="m620 100c0 11.046-8.9543 20-20 20s-20-8.9543-20-20 8.9543-20 20-20 20 8.9543 20 20z"/>
  <path id="ellipse182" d="m620 100c0 11.046-8.9543 20-20 20s-20-8.9543-20-20 8.9543-20 20-20 20 8.9543 20 20z" stroke="#000" stroke-width="2" fill="none"/>
 </g>
 <g id="g184" transform="translate(-1 -4.5718)">
  <path id="ellipse186" fill="#f00" d="m720 200c0 11.046-8.9543 20-20 20s-20-8.9543-20-20 8.9543-20 20-20 20 8.9543 20 20z"/>
  <path id="ellipse188" d="m720 200c0 11.046-8.9543 20-20 20s-20-8.9543-20-20 8.9543-20 20-20 20 8.9543 20 20z" stroke="#000" stroke-width="2" fill="none"/>
 </g>
 <g id="g190" stroke="#000" stroke-width="2" fill="none" transform="translate(-1 -4.5718)">
  <path id="line192" d="m521.21 121.21 53.702 53.703"/>
  <path id="polyline194" d="m565.89 172.96 10.607 3.536-3.536-10.607"/>
 </g>
 <g id="g196" stroke="#000" stroke-width="2" fill="none" transform="translate(-1 -4.5718)">
  <path id="line198" d="m678.08 121.92-52.996 52.996"/>
  <path id="polyline200" d="m627.04 165.89-3.536 10.607 10.607-3.536"/>
 </g>
 <g id="g202" stroke="#000" stroke-width="2" fill="none" transform="translate(-1 -4.5718)">
  <path id="line204" d="m521.21 278.79 53.702-53.702"/>
  <path id="polyline206" d="m572.96 234.11 3.536-10.607-10.607 3.536"/>
 </g>
 <g id="g208" stroke="#000" stroke-width="2" fill="none" transform="translate(-1 -4.5718)">
  <path id="line210" d="m678.08 278.08-53-53"/>
  <path id="polyline212" d="m634.11 227.04-10.607-3.536 3.536 10.607"/>
 </g>
 <g id="g214" stroke="#000" stroke-width="2" fill="none" transform="translate(-1 -4.5718)">
  <path id="line216" d="m530 100h34.551"/>
  <path id="polyline218" d="m556.79 105 10-5-10-5"/>
 </g>
 <g id="g220" stroke="#000" stroke-width="2" fill="none" transform="translate(-1 -4.5718)">
  <path id="line222" d="m669 100h-33.53"/>
  <path id="polyline224" d="m643.24 95-10 5 10 5"/>
 </g>
 <g id="g226" stroke="#000" stroke-width="2" fill="none" transform="translate(-1 -4.5718)">
  <path id="line228" d="m700 131v33.524"/>
  <path id="polyline230" d="m695 156.76 5 10 5-10"/>
 </g>
 <g id="g232" stroke="#000" stroke-width="2" fill="none" transform="translate(-1 -4.5718)">
  <path id="line234" d="m700 269v-33.53"/>
  <path id="polyline236" d="m705 243.24-5-10-5 10"/>
 </g>
 <g id="g238" stroke="#000" stroke-width="2" fill="none" transform="translate(-1 -4.5718)">
  <path id="line240" d="m530 300h34.551"/>
  <path id="polyline242" d="m556.79 305 10-5-10-5"/>
 </g>
 <g id="g244" stroke="#000" stroke-width="2" fill="none" transform="translate(-1 -4.5718)">
  <path id="line246" d="m669 300h-33.53"/>
  <path id="polyline248" d="m643.24 295-10 5 10 5"/>
 </g>
 <g id="g250" stroke="#000" stroke-width="2" fill="none" transform="translate(-1 -4.5718)">
  <path id="line252" d="m569.02 200h-34.551"/>
  <path id="polyline254" d="m542.24 195-10 5 10 5"/>
 </g>
 <g id="g256" stroke="#000" stroke-width="2" fill="none" transform="translate(-1 -4.5718)">
  <path id="line258" d="m600 169v-33.524"/>
  <path id="polyline260" d="m605 143.24-5-10-5 10"/>
 </g>
 <g id="g262" stroke="#000" stroke-width="2" fill="none" transform="translate(-1 -4.5718)">
  <path id="line264" d="m631 200h33.524"/>
  <path id="polyline266" d="m656.76 205 10-5-10-5"/>
 </g>
 <g id="g268" stroke="#000" stroke-width="2" fill="none" transform="translate(-1 -4.5718)">
  <path id="line270" d="m600 231v33.524"/>
  <path id="polyline272" d="m595 256.76 5 10 5-10"/>
 </g>
</svg>
