<?xml version="1.0" encoding="UTF-8" standalone="no"?>
<!-- Created with Inkscape (http://www.inkscape.org/) -->
<svg id="svg2" xmlns:rdf="http://www.w3.org/1999/02/22-rdf-syntax-ns#" xmlns="http://www.w3.org/2000/svg" height="274.95" width="352.39" version="1.1" xmlns:cc="http://creativecommons.org/ns#" xmlns:dc="http://purl.org/dc/elements/1.1/" viewBox="228 38 182.00001 138.70219">
 <metadata id="metadata72">
  <rdf:RDF>
   <cc:Work rdf:about="">
    <dc:format>image/svg+xml</dc:format>
    <dc:type rdf:resource="http://purl.org/dc/dcmitype/StillImage"/>
   </cc:Work>
  </rdf:RDF>
 </metadata>
 <g id="g4" transform="translate(-1 -2.6489)">
  <path id="rect6" fill="#7be38e" d="m230 140h180v40h-180z"/>
  <path id="rect8" d="m230 140h180v40h-180z" stroke="#7be38e" stroke-width="2" fill="none"/>
 </g>
 <path id="line10" d="m229 137.35h180" stroke="#808080" stroke-width="2" fill="none"/>
 <path id="line12" d="m229 157.35 20-20" stroke="#808080" stroke-width="2" fill="none"/>
 <path id="line14" d="m249 177.35 40-40" stroke="#808080" stroke-width="2" fill="none"/>
 <path id="line16" d="m289 177.35 40-40" stroke="#808080" stroke-width="2" fill="none"/>
 <path id="line18" d="m329 177.35 40-40" stroke="#808080" stroke-width="2" fill="none"/>
 <path id="line20" d="m369 177.35 40-40" stroke="#808080" stroke-width="2" fill="none"/>
 <g id="g22" transform="translate(-1 -2.6489)">
  <path id="ellipse24" fill="#f62e2e" d="m340 90c0 27.614-22.386 50-50 50s-50-22.386-50-50 22.386-50 50-50 50 22.386 50 50z"/>
  <path id="ellipse26" d="m340 90c0 27.614-22.386 50-50 50s-50-22.386-50-50 22.386-50 50-50 50 22.386 50 50z" stroke="#cc2626" stroke-width="2" fill="none"/>
 </g>
 <g id="g28" stroke="#000" stroke-width="2" fill="none" transform="translate(-1 -2.6489)">
  <path id="line30" d="m288 90v35.528"/>
  <path id="polyline32" d="m283 117.76 5 10 5-10"/>
 </g>
 <g id="text34">
  <path id="path3027" style="" d="m267.32 99.37c0.40569-0.72906 0.89076-1.267 1.4552-1.614 0.56443-0.34689 1.2288-0.52034 1.9932-0.52035 1.0289 0.00001 1.8227 0.36161 2.3812 1.0848 0.55855 0.71732 0.83783 1.7404 0.83785 3.0692v5.9619h-1.6316v-5.909c-0.00001-0.94661-0.16758-1.6492-0.50271-2.1078-0.33515-0.4586-0.84668-0.68791-1.5346-0.68792-0.8408 0.000009-1.5052 0.27929-1.9932 0.83785-0.48802 0.55858-0.73202 1.32-0.73201 2.2842v5.5827h-1.6316v-5.909c-0.00001-0.95249-0.16758-1.6551-0.50271-2.1078-0.33514-0.4586-0.85255-0.68791-1.5522-0.68792-0.82903 0.000009-1.4876 0.28223-1.9756 0.84667-0.48801 0.55858-0.73202 1.317-0.73201 2.2754v5.5827h-1.6316v-9.8778h1.6316v1.5346c0.37041-0.60559 0.81432-1.0524 1.3317-1.3406 0.5174-0.28809 1.1318-0.43214 1.8433-0.43215 0.71731 0.00001 1.3258 0.18228 1.8256 0.5468 0.50564 0.36455 0.879 0.89371 1.1201 1.5875"/>
  <path id="path3029" style="" d="m283.74 102.3c-0.00001-1.1759-0.24401-2.0872-0.73201-2.734-0.48214-0.64675-1.1612-0.97013-2.0373-0.97014-0.87019 0.000008-1.5493 0.32339-2.0373 0.97014-0.48213 0.64677-0.7232 1.5581-0.7232 2.734 0 1.17 0.24107 2.0784 0.7232 2.7252 0.488 0.64676 1.1671 0.97014 2.0373 0.97014 0.87605 0 1.5552-0.32338 2.0373-0.97014 0.488-0.64676 0.732-1.5552 0.73201-2.7252m1.6228 3.8276c-0.00001 1.6816-0.37337 2.931-1.1201 3.7483-0.74672 0.82314-1.8903 1.2347-3.4308 1.2347-0.57033-0.00001-1.1083-0.0441-1.614-0.13229-0.50565-0.0823-0.9966-0.21167-1.4728-0.38806v-1.5787c0.47624 0.2587 0.94661 0.44979 1.4111 0.57327 0.46448 0.12347 0.93779 0.1852 1.4199 0.1852 1.0642 0 1.8609-0.27928 2.3901-0.83784 0.52916-0.55269 0.79374-1.3905 0.79375-2.5135v-0.80257c-0.33515 0.58208-0.76436 1.0172-1.2876 1.3053-0.52329 0.2881-1.1495 0.43215-1.8785 0.43215-1.2112 0-2.1872-0.46155-2.928-1.3846-0.74083-0.9231-1.1112-2.1461-1.1112-3.6689 0-1.5287 0.37042-2.7546 1.1112-3.6777 0.74083-0.92309 1.7168-1.3846 2.928-1.3847 0.72907 0.00001 1.3552 0.14406 1.8785 0.43215 0.52328 0.28811 0.95249 0.7232 1.2876 1.3053v-1.4993h1.6228v8.6519"/>
 </g>
 <g id="g38" stroke="#000" stroke-width="2" fill="none" transform="translate(-1 -2.6489)">
  <path id="line40" d="m350 90h54.522"/>
  <path id="polyline42" d="m396.76 95 10-5-10-5"/>
 </g>
 <g id="text44">
  <path id="path3034" style="" d="m373.69 94.273h1.7198l3.0868 8.2903 3.0868-8.2903h1.7198l-3.7042 9.8778h-2.2049l-3.7042-9.8778"/>
 </g>
 <g id="g48" stroke="#000" stroke-width="2" fill="none" transform="translate(-1 -2.6489)">
  <path id="line50" d="m292 140v-35.528"/>
  <path id="polyline52" d="m297 112.24-5-10-5 10"/>
 </g>
 <g id="text54">
  <path id="path3039" style="" d="m298.52 104.18h7.5671v1.4993h-5.7856v3.8806h5.2211v1.4993h-5.2211v6.2883h-1.7815v-13.167"/>
  <path id="path3041" style="" d="m310.46 104.67v2.8046h3.3426v1.2612h-3.3426v5.3622c0 0.80551 0.10877 1.3229 0.32632 1.5522 0.22342 0.22931 0.67321 0.34396 1.3494 0.34396h1.6669v1.3582h-1.6669c-1.2524 0-2.1167-0.23225-2.5929-0.69674-0.47625-0.47036-0.71438-1.3229-0.71437-2.5576v-5.3622h-1.1906v-1.2612h1.1906v-2.8046h1.6316"/>
 </g>
 <g id="g58" stroke="#000" stroke-width="2" fill="none" transform="translate(-1 -2.6489)">
  <path id="line60" d="m290 140h-35.528"/>
  <path id="polyline62" d="m262.24 135-10 5 10 5"/>
 </g>
 <g id="text64">
  <path id="path3046" style="" d="m260.86 140.98h7.5671v1.4993h-5.7856v3.8806h5.2211v1.4993h-5.2211v6.2882h-1.7815v-13.167"/>
  <path id="path3048" style="" d="m277.49 144.56v1.5346c-0.45861-0.23518-0.93486-0.41157-1.4287-0.52917-0.4939-0.11758-1.0054-0.17638-1.5346-0.17639-0.80551 0.00001-1.4111 0.12349-1.8168 0.37042-0.39982 0.24695-0.59972 0.61737-0.59972 1.1112 0 0.3763 0.14405 0.67322 0.43215 0.89076 0.2881 0.21168 0.86724 0.41452 1.7374 0.60854l0.55563 0.12348c1.1524 0.24694 1.9697 0.59678 2.4518 1.0495 0.488 0.44685 0.732 1.073 0.73201 1.8785-0.00001 0.91722-0.36454 1.6434-1.0936 2.1784-0.7232 0.53504-1.7198 0.80257-2.9898 0.80257-0.52917 0-1.0818-0.0529-1.658-0.15875-0.57033-0.1-1.173-0.25283-1.808-0.45861v-1.6757c0.59972 0.31163 1.1906 0.54681 1.7727 0.70556 0.58208 0.15287 1.1583 0.2293 1.7286 0.2293 0.76435 0 1.3523-0.12935 1.7639-0.38805 0.41156-0.26458 0.61735-0.635 0.61736-1.1112-0.00001-0.44097-0.14994-0.77905-0.44979-1.0142-0.29399-0.23518-0.94369-0.46154-1.9491-0.67909l-0.56444-0.13229c-1.0054-0.21167-1.7316-0.53504-2.1784-0.97014-0.44685-0.44097-0.67028-1.0436-0.67028-1.808 0-0.92898 0.32926-1.6463 0.98778-2.152 0.65851-0.50563 1.5934-0.75846 2.8046-0.75847 0.59971 0.00001 1.1642 0.0441 1.6933 0.13229 0.52916 0.0882 1.0172 0.2205 1.464 0.39688"/>
 </g>
</svg>
