<?xml version="1.0" encoding="UTF-8" standalone="no"?>
<!-- Created with Inkscape (http://www.inkscape.org/) -->
<svg id="svg2" xmlns:rdf="http://www.w3.org/1999/02/22-rdf-syntax-ns#" xmlns="http://www.w3.org/2000/svg" height="300.25" width="596.8" version="1.1" xmlns:cc="http://creativecommons.org/ns#" xmlns:dc="http://purl.org/dc/elements/1.1/" viewBox="197 139 322.00001 153.47077">
 <metadata id="metadata104">
  <rdf:RDF>
   <cc:Work rdf:about="">
    <dc:format>image/svg+xml</dc:format>
    <dc:type rdf:resource="http://purl.org/dc/dcmitype/StillImage"/>
   </cc:Work>
  </rdf:RDF>
 </metadata>
 <g id="g4" transform="translate(-2 -4.2646)">
  <path id="polygon6" fill="#fff" d="m280 260h-40l-40 40h40z"/>
  <path id="polygon8" d="m280 260h-40l-40 40h40z" stroke="#000" stroke-width="2" fill="none"/>
 </g>
 <g id="g10" transform="translate(-2 -4.2646)">
  <path id="polygon12" fill="#fff" d="m320 260h-40l-40 40h40z"/>
  <path id="polygon14" d="m320 260h-40l-40 40h40z" stroke="#000" stroke-width="2" fill="none"/>
 </g>
 <g id="g16" transform="translate(-2 -4.2646)">
  <path id="polygon18" fill="#fff" d="m360 260h-40l-40 40h40z"/>
  <path id="polygon20" d="m360 260h-40l-40 40h40z" stroke="#000" stroke-width="2" fill="none"/>
 </g>
 <g id="g22" transform="translate(-2 -4.2646)">
  <path id="polygon24" fill="#fff" d="m400 260h-40l-40 40h40z"/>
  <path id="polygon26" d="m400 260h-40l-40 40h40z" stroke="#000" stroke-width="2" fill="none"/>
 </g>
 <g id="g28" transform="translate(-2 -4.2646)">
  <path id="polygon30" fill="#fff" d="m320 220h-40l-40 40h40z"/>
  <path id="polygon32" d="m320 220h-40l-40 40h40z" stroke="#000" stroke-width="2" fill="none"/>
 </g>
 <g id="g34" transform="translate(-2 -4.2646)">
  <path id="polygon36" fill="#fff" d="m360 220h-40l-40 40h40z"/>
  <path id="polygon38" d="m360 220h-40l-40 40h40z" stroke="#000" stroke-width="2" fill="none"/>
 </g>
 <g id="g40" transform="translate(-2 -4.2646)">
  <path id="polygon42" fill="#fff" d="m400 220h-40l-40 40h40z"/>
  <path id="polygon44" d="m400 220h-40l-40 40h40z" stroke="#000" stroke-width="2" fill="none"/>
 </g>
 <g id="g46" transform="translate(-2 -4.2646)">
  <path id="polygon48" fill="#fff" d="m440 220h-40l-40 40h40z"/>
  <path id="polygon50" d="m440 220h-40l-40 40h40z" stroke="#000" stroke-width="2" fill="none"/>
 </g>
 <g id="g52" transform="translate(-2 -4.2646)">
  <path id="polygon54" fill="#fff" d="m360 180h-40l-40 40h40z"/>
  <path id="polygon56" d="m360 180h-40l-40 40h40z" stroke="#000" stroke-width="2" fill="none"/>
 </g>
 <g id="g58" transform="translate(-2 -4.2646)">
  <path id="polygon60" fill="#fff" d="m400 180h-40l-40 40h40z"/>
  <path id="polygon62" d="m400 180h-40l-40 40h40z" stroke="#000" stroke-width="2" fill="none"/>
 </g>
 <g id="g64" transform="translate(-2 -4.2646)">
  <path id="polygon66" fill="#fff" d="m440 180h-40l-40 40h40z"/>
  <path id="polygon68" d="m440 180h-40l-40 40h40z" stroke="#000" stroke-width="2" fill="none"/>
 </g>
 <g id="g70" transform="translate(-2 -4.2646)">
  <path id="polygon72" fill="#fff" d="m480 180h-40l-40 40h40z"/>
  <path id="polygon74" d="m480 180h-40l-40 40h40z" stroke="#000" stroke-width="2" fill="none"/>
 </g>
 <g id="g76" transform="translate(-2 -4.2646)">
  <path id="polygon78" fill="#fff" d="m400 140h-40l-40 40h40z"/>
  <path id="polygon80" d="m400 140h-40l-40 40h40z" stroke="#000" stroke-width="2" fill="none"/>
 </g>
 <g id="g82" transform="translate(-2 -4.2646)">
  <path id="polygon84" fill="#fff" d="m440 140h-40l-40 40h40z"/>
  <path id="polygon86" d="m440 140h-40l-40 40h40z" stroke="#000" stroke-width="2" fill="none"/>
 </g>
 <g id="g88" transform="translate(-2 -4.2646)">
  <path id="polygon90" fill="#fff" d="m480 140h-40l-40 40h40z"/>
  <path id="polygon92" d="m480 140h-40l-40 40h40z" stroke="#000" stroke-width="2" fill="none"/>
 </g>
 <g id="g94" transform="translate(-2 -4.2646)">
  <path id="polygon96" fill="#fff" d="m520 140h-40l-40 40h40z"/>
  <path id="polygon98" d="m520 140h-40l-40 40h40z" stroke="#000" stroke-width="2" fill="none"/>
 </g>
</svg>
