<?xml version="1.0" encoding="UTF-8" standalone="no"?>
<!-- Created with Inkscape (http://www.inkscape.org/) -->
<svg id="svg2" xmlns:rdf="http://www.w3.org/1999/02/22-rdf-syntax-ns#" xmlns="http://www.w3.org/2000/svg" height="210.65" width="211.03" version="1.1" xmlns:cc="http://creativecommons.org/ns#" xmlns:dc="http://purl.org/dc/elements/1.1/" viewBox="204 124 111.17337 109.98025">
 <metadata id="metadata48">
  <rdf:RDF>
   <cc:Work rdf:about="">
    <dc:format>image/svg+xml</dc:format>
    <dc:type rdf:resource="http://purl.org/dc/dcmitype/StillImage"/>
   </cc:Work>
  </rdf:RDF>
 </metadata>
 <g id="g4" transform="translate(-.41332 -.90872)">
  <path id="rect6" fill="#fff" d="m220 140h80v80h-80z"/>
  <path id="rect8" d="m220 140h80v80h-80z" stroke="#000" fill="none"/>
 </g>
 <g id="g10" stroke="#000" fill="none" transform="translate(-.41332 -.90872)">
  <path id="path12" d="m290 220c0 20 14 16 20 10s10-20-7.764-20"/>
  <path id="polyline14" d="m311.12 205-10 5 10 5"/>
 </g>
 <g id="g16" stroke="#000" fill="none" transform="translate(-.41332 -.90872)">
  <path id="path18" d="m300 152c20-2 16-16 10-22s-20-10-20 7.764"/>
  <path id="polyline20" d="m285 128.88 5 10 5-10"/>
 </g>
 <g id="g22" stroke="#000" fill="none" transform="translate(-.41332 -.90872)">
  <path id="path24" d="m230 140c2-20-14-16-20-10s-10 20 7.764 20"/>
  <path id="polyline26" d="m208.88 155 10-5-10-5"/>
 </g>
 <g id="text28">
  <path id="path3008" style="" d="m240.44 194.15h0.81139v4.9389h-0.81139v-4.9389m0-1.9226h0.81139v1.0275h-0.81139v-1.0275"/>
  <path id="path3010" style="" d="m247.05 196.11v2.981h-0.81138v-2.9545c-0.00001-0.46742-0.0911-0.81726-0.27341-1.0495-0.18227-0.23224-0.45567-0.34836-0.82021-0.34837-0.43803 0.00001-0.78346 0.13965-1.0363 0.41893-0.25283 0.27928-0.37924 0.65999-0.37924 1.1421v2.7914h-0.81579v-4.9389h0.81579v0.76729c0.19403-0.29692 0.42187-0.51887 0.68351-0.66587 0.26458-0.14698 0.56885-0.22048 0.91281-0.22048 0.56738 0 0.9966 0.17639 1.2876 0.52916 0.29104 0.34985 0.43656 0.86578 0.43656 1.5478"/>
  <path id="path3012" style="" d="m252.78 196.11v2.981h-0.81139v-2.9545c0-0.46742-0.0911-0.81726-0.2734-1.0495-0.18227-0.23224-0.45567-0.34836-0.82021-0.34837-0.43803 0.00001-0.78346 0.13965-1.0363 0.41893-0.25283 0.27928-0.37924 0.65999-0.37924 1.1421v2.7914h-0.8158v-4.9389h0.8158v0.76729c0.19403-0.29692 0.42186-0.51887 0.68351-0.66587 0.26458-0.14698 0.56885-0.22048 0.91281-0.22048 0.56738 0 0.99659 0.17639 1.2876 0.52916 0.29104 0.34985 0.43656 0.86578 0.43656 1.5478"/>
  <path id="path3014" style="" d="m258.63 196.42v0.39687h-3.7306c0.0353 0.55857 0.20284 0.98484 0.50271 1.2788 0.30279 0.29104 0.72319 0.43656 1.2612 0.43656 0.31161 0 0.61294-0.0382 0.90399-0.11465 0.29398-0.0764 0.58502-0.19109 0.87312-0.34396v0.76729c-0.29104 0.12348-0.58943 0.21755-0.89517 0.28223-0.30574 0.0647-0.61589 0.097-0.93045 0.097-0.78787 0-1.4126-0.22931-1.8741-0.68792-0.45861-0.45861-0.68792-1.0789-0.68792-1.8609 0-0.80844 0.21755-1.4493 0.65264-1.9226 0.43803-0.47624 1.0275-0.71437 1.7683-0.71437 0.66439 0 1.1892 0.21461 1.5743 0.64382 0.38805 0.42627 0.58208 1.0069 0.58208 1.7418m-0.81139-0.23813c-0.006-0.44391-0.13082-0.79815-0.37482-1.0627-0.24107-0.26458-0.56151-0.39687-0.96132-0.39688-0.45274 0.00001-0.8158 0.12789-1.0892 0.38365-0.27047 0.25577-0.42628 0.61589-0.46743 1.0804l2.8928-0.004"/>
  <path id="path3016" style="" d="m264.07 196.11v2.981h-0.81139v-2.9545c0-0.46742-0.0911-0.81726-0.2734-1.0495-0.18227-0.23224-0.45568-0.34836-0.82021-0.34837-0.43804 0.00001-0.78346 0.13965-1.0363 0.41893-0.25282 0.27928-0.37923 0.65999-0.37923 1.1421v2.7914h-0.8158v-4.9389h0.8158v0.76729c0.19402-0.29692 0.42186-0.51887 0.68351-0.66587 0.26458-0.14698 0.56885-0.22048 0.91281-0.22048 0.56738 0 0.99659 0.17639 1.2876 0.52916 0.29103 0.34985 0.43655 0.86578 0.43656 1.5478"/>
  <path id="path3018" style="" d="m268.57 194.15h0.81138v4.9389h-0.81138v-4.9389m0-1.9226h0.81138v1.0275h-0.81138v-1.0275"/>
  <path id="path3020" style="" d="m275.18 196.11v2.981h-0.81139v-2.9545c-0.00001-0.46742-0.0911-0.81726-0.2734-1.0495-0.18228-0.23224-0.45568-0.34836-0.82021-0.34837-0.43804 0.00001-0.78347 0.13965-1.0363 0.41893-0.25282 0.27928-0.37924 0.65999-0.37923 1.1421v2.7914h-0.8158v-4.9389h0.8158v0.76729c0.19402-0.29692 0.42186-0.51887 0.6835-0.66587 0.26458-0.14698 0.56885-0.22048 0.91282-0.22048 0.56738 0 0.99659 0.17639 1.2876 0.52916 0.29104 0.34985 0.43656 0.86578 0.43657 1.5478"/>
  <path id="path3022" style="" d="m280.06 194.9v-2.6723h0.81139v6.8615h-0.81139v-0.74084c-0.17051 0.29399-0.38659 0.513-0.64823 0.65705-0.25871 0.14111-0.57033 0.21167-0.93486 0.21167-0.59678 0-1.0833-0.23812-1.4596-0.71437-0.37336-0.47625-0.56003-1.1024-0.56003-1.8786 0-0.7761 0.18667-1.4023 0.56003-1.8785 0.3763-0.47624 0.86284-0.71437 1.4596-0.71437 0.36453 0 0.67615 0.072 0.93486 0.21607 0.26164 0.14112 0.47772 0.35867 0.64823 0.65264m-2.7649 1.7242c0 0.59679 0.12201 1.0657 0.36601 1.4067 0.24694 0.33808 0.58502 0.50712 1.0142 0.50712 0.42921 0 0.76729-0.16904 1.0142-0.50712 0.24694-0.34101 0.37042-0.80991 0.37042-1.4067 0-0.59678-0.12348-1.0642-0.37042-1.4023-0.24694-0.34101-0.58502-0.51152-1.0142-0.51153-0.42922 0.00001-0.7673 0.17052-1.0142 0.51153-0.244 0.33808-0.36601 0.80551-0.36601 1.4023"/>
  <path id="path3024" style="" d="m282.46 197.14v-2.9898h0.81138v2.9589c0 0.46744 0.0911 0.81874 0.27341 1.0539 0.18226 0.23224 0.45567 0.34837 0.82021 0.34836 0.43802 0.00001 0.78345-0.13964 1.0363-0.41892 0.25576-0.27928 0.38364-0.65999 0.38365-1.1421v-2.8002h0.81138v4.9389h-0.81138v-0.75847c-0.19698 0.29986-0.42628 0.52328-0.68792 0.67027-0.25871 0.14405-0.56004 0.21608-0.90399 0.21608-0.56739 0-0.99807-0.17639-1.292-0.52917-0.29398-0.35277-0.44097-0.86871-0.44097-1.5478m2.0417-3.1088"/>
  <path id="path3026" style="" d="m288.27 192.23h0.81139v6.8615h-0.81139v-6.8615"/>
 </g>
 <g id="g32" stroke="#000" fill="none" transform="translate(-.41332 -.90872)">
  <path id="line34" d="m238.59 201.41-15.591 15.591"/>
  <path id="polyline36" d="m223.97 212.49-1.768 5.303 5.303-1.768"/>
 </g>
 <g id="g38" stroke="#000" fill="none" transform="translate(-.41332 -.90872)">
  <path id="line40" d="m224 224h13.764"/>
  <path id="polyline42" d="m233.88 226.5 5-2.5-5-2.5"/>
 </g>
</svg>
