<?xml version="1.0" encoding="UTF-8" standalone="no"?>
<!-- Created with Inkscape (http://www.inkscape.org/) -->
<svg id="svg2" xmlns:rdf="http://www.w3.org/1999/02/22-rdf-syntax-ns#" xmlns="http://www.w3.org/2000/svg" height="432.79" width="953.15" version="1.1" xmlns:cc="http://creativecommons.org/ns#" xmlns:dc="http://purl.org/dc/elements/1.1/" viewBox="113 79 528.03935 229.25477">
 <metadata id="metadata134">
  <rdf:RDF>
   <cc:Work rdf:about="">
    <dc:format>image/svg+xml</dc:format>
    <dc:type rdf:resource="http://purl.org/dc/dcmitype/StillImage"/>
   </cc:Work>
  </rdf:RDF>
 </metadata>
 <g id="g4" stroke="#000" stroke-width="2" fill="none" transform="translate(-1 -5.2546)">
  <path id="line6" d="m120 80v235.53"/>
  <path id="polyline8" d="m115 307.76 5 10 5-10"/>
 </g>
 <g id="text10">
  <path id="path3048" style="" d="m440.96 138.91h2.5466v-8.7896l-2.7704 0.55562v-1.4199l2.755-0.55563h1.5588v10.21h2.5466v1.3119h-6.6366v-1.3119"/>
  <path id="path3050" style="" d="m450.75 138.26h1.6283v1.9601h-1.6283v-1.9601"/>
  <path id="path3052" style="" d="m460.47 136.81v-5.2321h1.4199v5.1781c0 0.81801 0.15948 1.4328 0.47845 1.8444 0.31897 0.40643 0.79742 0.60965 1.4354 0.60965 0.76655 0 1.371-0.24437 1.8135-0.73312 0.44757-0.48874 0.67137-1.155 0.67137-1.9987v-4.9003h1.4199v8.643h-1.4199v-1.3273c-0.34469 0.52476-0.74598 0.91575-1.2038 1.173-0.45273 0.25209-0.98006 0.37814-1.582 0.37814-0.99292 0-1.7466-0.30868-2.2611-0.92604-0.51447-0.61736-0.7717-1.5202-0.7717-2.7087m3.573-5.4405"/>
  <path id="path3054" style="" d="m472.05 129.12v2.454h2.9247v1.1035h-2.9247v4.6919c-0.00001 0.70482 0.0952 1.1576 0.28553 1.3582 0.19549 0.20065 0.58906 0.30097 1.1807 0.30097h1.4585v1.1884h-1.4585c-1.0958 0-1.8521-0.20321-2.2688-0.60964-0.41672-0.41157-0.62508-1.1576-0.62508-2.2379v-4.6919h-1.0418v-1.1035h1.0418v-2.454h1.4276"/>
  <path id="path3056" style="" d="m480.78 135.88c-1.1473 0-1.9421 0.13119-2.3846 0.39356-0.44245 0.26238-0.66367 0.70997-0.66366 1.3428-0.00001 0.50418 0.16462 0.90546 0.49388 1.2038 0.3344 0.29325 0.78713 0.43987 1.3582 0.43987 0.78713 0 1.4174-0.27781 1.8907-0.83344 0.47844-0.56076 0.71767-1.3042 0.71768-2.2302v-0.31639h-1.4122m2.8321-0.5865v4.9312h-1.4199v-1.3119c-0.32412 0.52476-0.72798 0.91318-1.2116 1.1653-0.4836 0.24694-1.0752 0.37042-1.7749 0.37042-0.88488 0-1.5897-0.24695-2.1144-0.74084-0.51962-0.49903-0.77942-1.1653-0.77942-1.9987 0-0.97233 0.32411-1.7054 0.97234-2.1993 0.65337-0.49388 1.6257-0.74083 2.917-0.74083h1.991v-0.13891c-0.00001-0.65336-0.21609-1.1575-0.64823-1.5125-0.42701-0.36012-1.0289-0.54018-1.8058-0.54019-0.49389 0.00001-0.97491 0.0592-1.4431 0.17749-0.46817 0.11834-0.91833 0.29583-1.3505 0.53248v-1.3119c0.51961-0.20064 1.0238-0.34983 1.5125-0.44759 0.48874-0.10288 0.96462-0.15433 1.4276-0.15434 1.2501 0.00001 2.1839 0.32412 2.8013 0.97234 0.61736 0.64824 0.92604 1.6309 0.92604 2.9479"/>
  <path id="path3058" style="" d="m492.05 131.83v1.3428c-0.40129-0.20578-0.81801-0.36012-1.2502-0.46302-0.43216-0.10289-0.87974-0.15433-1.3428-0.15434-0.70482 0.00001-1.2347 0.10804-1.5897 0.32411-0.34984 0.21609-0.52476 0.5402-0.52476 0.97234 0 0.32927 0.12605 0.58907 0.37814 0.77942 0.25208 0.18521 0.75883 0.3627 1.5202 0.53247l0.48618 0.10804c1.0083 0.21608 1.7234 0.52219 2.1453 0.91832 0.427 0.391 0.6405 0.93891 0.64051 1.6437-0.00001 0.80257-0.31898 1.4379-0.95691 1.9061-0.6328 0.46816-1.5048 0.70225-2.6161 0.70225-0.46302 0-0.94662-0.0463-1.4508-0.13891-0.49904-0.0875-1.0264-0.22122-1.582-0.40128v-1.4662c0.52476 0.27267 1.0418 0.47845 1.5511 0.61736 0.50932 0.13376 1.0135 0.20064 1.5125 0.20064 0.6688 0 1.1833-0.11318 1.5434-0.33955 0.36012-0.23151 0.54018-0.55562 0.54019-0.97234-0.00001-0.38585-0.1312-0.68166-0.39357-0.88745-0.25724-0.20579-0.82572-0.40386-1.7054-0.59421l-0.49389-0.11576c-0.87974-0.1852-1.5151-0.46816-1.9061-0.84887-0.39099-0.38584-0.58649-0.91317-0.58649-1.582 0-0.81285 0.2881-1.4405 0.8643-1.883 0.5762-0.44243 1.3942-0.66365 2.454-0.66366 0.52475 0.00001 1.0186 0.0386 1.4817 0.11576 0.46301 0.0772 0.89002 0.19293 1.281 0.34726"/>
  <path id="path3060" style="" d="m496.57 127.58h1.5357l-2.5157 2.9016h-1.1807l2.1608-2.9016m-1.7826 3.9974h1.4199v8.643h-1.4199v-8.643m0.70996-0.20836"/>
  <path id="path3062" style="" d="m500.57 129.12v2.454h2.9247v1.1035h-2.9247v4.6919c0 0.70482 0.0952 1.1576 0.28553 1.3582 0.19549 0.20065 0.58906 0.30097 1.1807 0.30097h1.4585v1.1884h-1.4585c-1.0958 0-1.8521-0.20321-2.2688-0.60964-0.41672-0.41157-0.62507-1.1576-0.62507-2.2379v-4.6919h-1.0418v-1.1035h1.0418v-2.454h1.4276"/>
  <path id="path3064" style="" d="m509.3 135.88c-1.1473 0-1.9421 0.13119-2.3846 0.39356-0.44245 0.26238-0.66367 0.70997-0.66367 1.3428 0 0.50418 0.16463 0.90546 0.49389 1.2038 0.3344 0.29325 0.78713 0.43987 1.3582 0.43987 0.78713 0 1.4174-0.27781 1.8907-0.83344 0.47844-0.56076 0.71767-1.3042 0.71768-2.2302v-0.31639h-1.4122m2.8321-0.5865v4.9312h-1.4199v-1.3119c-0.32412 0.52476-0.72798 0.91318-1.2116 1.1653-0.4836 0.24694-1.0752 0.37042-1.7749 0.37042-0.88488 0-1.5897-0.24695-2.1145-0.74084-0.51961-0.49903-0.77941-1.1653-0.77941-1.9987 0-0.97233 0.32411-1.7054 0.97234-2.1993 0.65337-0.49388 1.6257-0.74083 2.917-0.74083h1.991v-0.13891c-0.00001-0.65336-0.21609-1.1575-0.64823-1.5125-0.42701-0.36012-1.0289-0.54018-1.8058-0.54019-0.49389 0.00001-0.97491 0.0592-1.4431 0.17749-0.46817 0.11834-0.91833 0.29583-1.3505 0.53248v-1.3119c0.51961-0.20064 1.0238-0.34983 1.5125-0.44759 0.48874-0.10288 0.96462-0.15433 1.4276-0.15434 1.2501 0.00001 2.1839 0.32412 2.8013 0.97234 0.61736 0.64824 0.92603 1.6309 0.92604 2.9479m-2.5929-7.7093h1.5357l-2.5157 2.9016h-1.1807l2.1608-2.9016"/>
  <path id="path3066" style="" d="m520.58 131.83v1.3428c-0.40129-0.20578-0.818-0.36012-1.2502-0.46302-0.43216-0.10289-0.87974-0.15433-1.3428-0.15434-0.70482 0.00001-1.2347 0.10804-1.5897 0.32411-0.34984 0.21609-0.52475 0.5402-0.52475 0.97234 0 0.32927 0.12604 0.58907 0.37813 0.77942 0.25209 0.18521 0.75883 0.3627 1.5202 0.53247l0.48617 0.10804c1.0084 0.21608 1.7234 0.52219 2.1453 0.91832 0.427 0.391 0.64051 0.93891 0.64051 1.6437 0 0.80257-0.31897 1.4379-0.9569 1.9061-0.6328 0.46816-1.5048 0.70225-2.6161 0.70225-0.46303 0-0.94663-0.0463-1.4508-0.13891-0.49903-0.0875-1.0264-0.22122-1.582-0.40128v-1.4662c0.52475 0.27267 1.0418 0.47845 1.5511 0.61736 0.50932 0.13376 1.0135 0.20064 1.5125 0.20064 0.6688 0 1.1833-0.11318 1.5434-0.33955 0.36012-0.23151 0.54019-0.55562 0.54019-0.97234 0-0.38585-0.13119-0.68166-0.39357-0.88745-0.25723-0.20579-0.82572-0.40386-1.7054-0.59421l-0.49389-0.11576c-0.87974-0.1852-1.5151-0.46816-1.9061-0.84887-0.39099-0.38584-0.58649-0.91317-0.58649-1.582 0-0.81285 0.2881-1.4405 0.86431-1.883 0.5762-0.44243 1.3942-0.66365 2.454-0.66366 0.52475 0.00001 1.0186 0.0386 1.4817 0.11576 0.46302 0.0772 0.89002 0.19293 1.281 0.34726"/>
 </g>
 <g id="text14">
  <path id="path3069" style="" d="m442.03 178.91h5.4405v1.3119h-7.3157v-1.3119c0.59163-0.61221 1.3968-1.4328 2.4154-2.4617 1.0238-1.0341 1.6669-1.7003 1.9292-1.9987 0.49902-0.56076 0.84629-1.0341 1.0418-1.4199 0.20063-0.39099 0.30096-0.77427 0.30096-1.1498 0-0.6122-0.21608-1.1112-0.64823-1.4971-0.42701-0.38584-0.9852-0.57877-1.6746-0.57878-0.48875 0.00001-1.0058 0.0849-1.5511 0.25466-0.54019 0.16979-1.119 0.42702-1.7363 0.7717v-1.5743c0.62765-0.25208 1.2141-0.44243 1.7595-0.57106 0.54533-0.12861 1.0444-0.19291 1.4971-0.19293 1.1936 0.00002 2.1453 0.29841 2.8553 0.89518 0.70995 0.59679 1.0649 1.3942 1.0649 2.3923-0.00001 0.47332-0.09 0.92348-0.27009 1.3505-0.17493 0.42187-0.49647 0.9209-0.96463 1.4971-0.12862 0.1492-0.53762 0.58135-1.227 1.2965-0.68939 0.70996-1.6617 1.7055-2.917 2.9865"/>
  <path id="path3071" style="" d="m450.75 178.26h1.6283v1.9601h-1.6283v-1.9601"/>
  <path id="path3073" style="" d="m460.47 176.81v-5.2321h1.4199v5.1781c0 0.81801 0.15948 1.4328 0.47845 1.8444 0.31897 0.40643 0.79742 0.60965 1.4354 0.60965 0.76655 0 1.371-0.24437 1.8135-0.73312 0.44757-0.48874 0.67137-1.155 0.67137-1.9987v-4.9003h1.4199v8.643h-1.4199v-1.3273c-0.34469 0.52476-0.74598 0.91575-1.2038 1.173-0.45273 0.25209-0.98006 0.37814-1.582 0.37814-0.99292 0-1.7466-0.30868-2.2611-0.92604-0.51447-0.61736-0.7717-1.5202-0.7717-2.7087m3.573-5.4405"/>
  <path id="path3075" style="" d="m472.05 169.12v2.454h2.9247v1.1035h-2.9247v4.6919c-0.00001 0.70482 0.0952 1.1576 0.28553 1.3582 0.19549 0.20065 0.58906 0.30097 1.1807 0.30097h1.4585v1.1884h-1.4585c-1.0958 0-1.8521-0.20321-2.2688-0.60964-0.41672-0.41157-0.62508-1.1576-0.62508-2.2379v-4.6919h-1.0418v-1.1035h1.0418v-2.454h1.4276"/>
  <path id="path3077" style="" d="m480.78 175.88c-1.1473 0-1.9421 0.13119-2.3846 0.39356-0.44245 0.26238-0.66367 0.70997-0.66366 1.3428-0.00001 0.50418 0.16462 0.90546 0.49388 1.2038 0.3344 0.29325 0.78713 0.43987 1.3582 0.43987 0.78713 0 1.4174-0.27781 1.8907-0.83344 0.47844-0.56076 0.71767-1.3042 0.71768-2.2302v-0.31639h-1.4122m2.8321-0.5865v4.9312h-1.4199v-1.3119c-0.32412 0.52476-0.72798 0.91318-1.2116 1.1653-0.4836 0.24694-1.0752 0.37042-1.7749 0.37042-0.88488 0-1.5897-0.24695-2.1144-0.74084-0.51962-0.49903-0.77942-1.1653-0.77942-1.9987 0-0.97233 0.32411-1.7054 0.97234-2.1993 0.65337-0.49388 1.6257-0.74083 2.917-0.74083h1.991v-0.13891c-0.00001-0.65336-0.21609-1.1575-0.64823-1.5125-0.42701-0.36012-1.0289-0.54018-1.8058-0.54019-0.49389 0.00001-0.97491 0.0592-1.4431 0.17749-0.46817 0.11834-0.91833 0.29583-1.3505 0.53248v-1.3119c0.51961-0.20064 1.0238-0.34983 1.5125-0.44759 0.48874-0.10288 0.96462-0.15433 1.4276-0.15434 1.2501 0.00001 2.1839 0.32412 2.8013 0.97234 0.61736 0.64824 0.92604 1.6309 0.92604 2.9479"/>
  <path id="path3079" style="" d="m492.05 171.83v1.3428c-0.40129-0.20578-0.81801-0.36012-1.2502-0.46302-0.43216-0.10289-0.87974-0.15433-1.3428-0.15434-0.70482 0.00001-1.2347 0.10804-1.5897 0.32411-0.34984 0.21609-0.52476 0.5402-0.52476 0.97234 0 0.32927 0.12605 0.58907 0.37814 0.77942 0.25208 0.18521 0.75883 0.3627 1.5202 0.53247l0.48618 0.10804c1.0083 0.21608 1.7234 0.52219 2.1453 0.91832 0.427 0.391 0.6405 0.93891 0.64051 1.6437-0.00001 0.80257-0.31898 1.4379-0.95691 1.9061-0.6328 0.46816-1.5048 0.70225-2.6161 0.70225-0.46302 0-0.94662-0.0463-1.4508-0.13891-0.49904-0.0875-1.0264-0.22122-1.582-0.40128v-1.4662c0.52476 0.27267 1.0418 0.47845 1.5511 0.61736 0.50932 0.13376 1.0135 0.20064 1.5125 0.20064 0.6688 0 1.1833-0.11318 1.5434-0.33955 0.36012-0.23151 0.54018-0.55562 0.54019-0.97234-0.00001-0.38585-0.1312-0.68166-0.39357-0.88745-0.25724-0.20579-0.82572-0.40386-1.7054-0.59421l-0.49389-0.11576c-0.87974-0.1852-1.5151-0.46816-1.9061-0.84887-0.39099-0.38584-0.58649-0.91317-0.58649-1.582 0-0.81285 0.2881-1.4405 0.8643-1.883 0.5762-0.44243 1.3942-0.66365 2.454-0.66366 0.52475 0.00001 1.0186 0.0386 1.4817 0.11576 0.46301 0.0772 0.89002 0.19293 1.281 0.34726"/>
  <path id="path3081" style="" d="m496.57 167.58h1.5357l-2.5157 2.9016h-1.1807l2.1608-2.9016m-1.7826 3.9974h1.4199v8.643h-1.4199v-8.643m0.70996-0.20836"/>
  <path id="path3083" style="" d="m500.57 169.12v2.454h2.9247v1.1035h-2.9247v4.6919c0 0.70482 0.0952 1.1576 0.28553 1.3582 0.19549 0.20065 0.58906 0.30097 1.1807 0.30097h1.4585v1.1884h-1.4585c-1.0958 0-1.8521-0.20321-2.2688-0.60964-0.41672-0.41157-0.62507-1.1576-0.62507-2.2379v-4.6919h-1.0418v-1.1035h1.0418v-2.454h1.4276"/>
  <path id="path3085" style="" d="m509.3 175.88c-1.1473 0-1.9421 0.13119-2.3846 0.39356-0.44245 0.26238-0.66367 0.70997-0.66367 1.3428 0 0.50418 0.16463 0.90546 0.49389 1.2038 0.3344 0.29325 0.78713 0.43987 1.3582 0.43987 0.78713 0 1.4174-0.27781 1.8907-0.83344 0.47844-0.56076 0.71767-1.3042 0.71768-2.2302v-0.31639h-1.4122m2.8321-0.5865v4.9312h-1.4199v-1.3119c-0.32412 0.52476-0.72798 0.91318-1.2116 1.1653-0.4836 0.24694-1.0752 0.37042-1.7749 0.37042-0.88488 0-1.5897-0.24695-2.1145-0.74084-0.51961-0.49903-0.77941-1.1653-0.77941-1.9987 0-0.97233 0.32411-1.7054 0.97234-2.1993 0.65337-0.49388 1.6257-0.74083 2.917-0.74083h1.991v-0.13891c-0.00001-0.65336-0.21609-1.1575-0.64823-1.5125-0.42701-0.36012-1.0289-0.54018-1.8058-0.54019-0.49389 0.00001-0.97491 0.0592-1.4431 0.17749-0.46817 0.11834-0.91833 0.29583-1.3505 0.53248v-1.3119c0.51961-0.20064 1.0238-0.34983 1.5125-0.44759 0.48874-0.10288 0.96462-0.15433 1.4276-0.15434 1.2501 0.00001 2.1839 0.32412 2.8013 0.97234 0.61736 0.64824 0.92603 1.6309 0.92604 2.9479m-2.5929-7.7093h1.5357l-2.5157 2.9016h-1.1807l2.1608-2.9016"/>
  <path id="path3087" style="" d="m520.58 171.83v1.3428c-0.40129-0.20578-0.818-0.36012-1.2502-0.46302-0.43216-0.10289-0.87974-0.15433-1.3428-0.15434-0.70482 0.00001-1.2347 0.10804-1.5897 0.32411-0.34984 0.21609-0.52475 0.5402-0.52475 0.97234 0 0.32927 0.12604 0.58907 0.37813 0.77942 0.25209 0.18521 0.75883 0.3627 1.5202 0.53247l0.48617 0.10804c1.0084 0.21608 1.7234 0.52219 2.1453 0.91832 0.427 0.391 0.64051 0.93891 0.64051 1.6437 0 0.80257-0.31897 1.4379-0.9569 1.9061-0.6328 0.46816-1.5048 0.70225-2.6161 0.70225-0.46303 0-0.94663-0.0463-1.4508-0.13891-0.49903-0.0875-1.0264-0.22122-1.582-0.40128v-1.4662c0.52475 0.27267 1.0418 0.47845 1.5511 0.61736 0.50932 0.13376 1.0135 0.20064 1.5125 0.20064 0.6688 0 1.1833-0.11318 1.5434-0.33955 0.36012-0.23151 0.54019-0.55562 0.54019-0.97234 0-0.38585-0.13119-0.68166-0.39357-0.88745-0.25723-0.20579-0.82572-0.40386-1.7054-0.59421l-0.49389-0.11576c-0.87974-0.1852-1.5151-0.46816-1.9061-0.84887-0.39099-0.38584-0.58649-0.91317-0.58649-1.582 0-0.81285 0.2881-1.4405 0.86431-1.883 0.5762-0.44243 1.3942-0.66365 2.454-0.66366 0.52475 0.00001 1.0186 0.0386 1.4817 0.11576 0.46302 0.0772 0.89002 0.19293 1.281 0.34726"/>
  <path id="path3089" style="" d="m531.75 168.23c-0.68939 1.1833-1.2013 2.3537-1.5357 3.5112-0.3344 1.1576-0.50161 2.3305-0.5016 3.519-0.00001 1.1884 0.1672 2.3665 0.5016 3.5344 0.33955 1.1627 0.85144 2.3331 1.5357 3.5112h-1.2347c-0.7717-1.209-1.3505-2.3974-1.7363-3.5652-0.38071-1.1678-0.57106-2.328-0.57106-3.4804 0-1.1473 0.19035-2.3022 0.57106-3.4649 0.3807-1.1627 0.95948-2.3511 1.7363-3.5652h1.2347"/>
  <path id="path3091" style="" d="m534.37 176.81v-5.2321h1.4199v5.1781c-0.00001 0.81801 0.15948 1.4328 0.47845 1.8444 0.31897 0.40643 0.79742 0.60965 1.4354 0.60965 0.76655 0 1.371-0.24437 1.8135-0.73312 0.44758-0.48874 0.67138-1.155 0.67138-1.9987v-4.9003h1.4199v8.643h-1.4199v-1.3273c-0.3447 0.52476-0.74598 0.91575-1.2038 1.173-0.45273 0.25209-0.98006 0.37814-1.582 0.37814-0.99292 0-1.7466-0.30868-2.2611-0.92604-0.51447-0.61736-0.7717-1.5202-0.7717-2.7087m3.573-5.4405"/>
  <path id="path3093" style="" d="m550.23 175.8c-0.00001-1.0289-0.21351-1.8264-0.64051-2.3923-0.42187-0.56591-1.0161-0.84886-1.7826-0.84887-0.76141 0.00001-1.3556 0.28296-1.7826 0.84887-0.42187 0.56592-0.6328 1.3633-0.6328 2.3923 0 1.0238 0.21093 1.8186 0.6328 2.3846 0.427 0.56591 1.0212 0.84887 1.7826 0.84887 0.76655 0 1.3608-0.28296 1.7826-0.84887 0.427-0.56591 0.6405-1.3608 0.64051-2.3846m1.4199 3.3492c-0.00001 1.4714-0.32669 2.5646-0.98006 3.2797-0.65337 0.72025-1.654 1.0804-3.0019 1.0804-0.49903 0-0.96977-0.0386-1.4122-0.11575-0.44245-0.072-0.87203-0.18521-1.2887-0.33955v-1.3813c0.41671 0.22636 0.82829 0.39356 1.2347 0.5016 0.40642 0.10804 0.82057 0.16206 1.2424 0.16206 0.93118 0 1.6283-0.24437 2.0913-0.73312 0.46301-0.48359 0.69452-1.2167 0.69453-2.1993v-0.70224c-0.29326 0.50932-0.66882 0.89002-1.1267 1.1421-0.45788 0.25209-1.0058 0.37813-1.6437 0.37813-1.0598 0-1.9138-0.40385-2.562-1.2116-0.64822-0.8077-0.97234-1.8778-0.97234-3.2103 0-1.3376 0.32412-2.4103 0.97234-3.218 0.64823-0.8077 1.5022-1.2116 2.562-1.2116 0.63793 0.00001 1.1858 0.12606 1.6437 0.37814 0.45786 0.25209 0.83342 0.6328 1.1267 1.1421v-1.3119h1.4199v7.5704"/>
  <path id="path3095" style="" d="m559.59 172.9c-0.15949-0.0926-0.33441-0.15947-0.52476-0.20064-0.18521-0.0463-0.391-0.0694-0.61735-0.0694-0.80258 0.00001-1.4199 0.26238-1.8521 0.78713-0.42701 0.51962-0.64052 1.2682-0.64051 2.2456v4.553h-1.4276v-8.643h1.4276v1.3428c0.29838-0.52475 0.68681-0.91317 1.1653-1.1653 0.47845-0.25722 1.0598-0.38584 1.744-0.38585 0.0978 0.00001 0.20578 0.008 0.32412 0.0232 0.11832 0.0103 0.24951 0.0283 0.39356 0.054l0.008 1.4585"/>
  <path id="path3097" style="" d="m565.02 175.88c-1.1473 0-1.9421 0.13119-2.3846 0.39356-0.44245 0.26238-0.66367 0.70997-0.66367 1.3428 0 0.50418 0.16463 0.90546 0.49389 1.2038 0.3344 0.29325 0.78713 0.43987 1.3582 0.43987 0.78713 0 1.4174-0.27781 1.8907-0.83344 0.47844-0.56076 0.71767-1.3042 0.71768-2.2302v-0.31639h-1.4122m2.8321-0.5865v4.9312h-1.4199v-1.3119c-0.32412 0.52476-0.72798 0.91318-1.2116 1.1653-0.4836 0.24694-1.0752 0.37042-1.7749 0.37042-0.88488 0-1.5897-0.24695-2.1145-0.74084-0.51961-0.49903-0.77941-1.1653-0.77941-1.9987 0-0.97233 0.32411-1.7054 0.97234-2.1993 0.65337-0.49388 1.6257-0.74083 2.917-0.74083h1.991v-0.13891c-0.00001-0.65336-0.21609-1.1575-0.64823-1.5125-0.42701-0.36012-1.0289-0.54018-1.8058-0.54019-0.49389 0.00001-0.97491 0.0592-1.4431 0.17749-0.46817 0.11834-0.91833 0.29583-1.3505 0.53248v-1.3119c0.51961-0.20064 1.0238-0.34983 1.5125-0.44759 0.48874-0.10288 0.96462-0.15433 1.4276-0.15434 1.2501 0.00001 2.1839 0.32412 2.8013 0.97234 0.61736 0.64824 0.92603 1.6309 0.92604 2.9479m-2.5929-7.7093h1.5357l-2.5157 2.9016h-1.1807l2.1608-2.9016"/>
  <path id="path3099" style="" d="m576.29 171.83v1.3428c-0.40129-0.20578-0.818-0.36012-1.2502-0.46302-0.43216-0.10289-0.87974-0.15433-1.3428-0.15434-0.70482 0.00001-1.2347 0.10804-1.5897 0.32411-0.34984 0.21609-0.52475 0.5402-0.52475 0.97234 0 0.32927 0.12604 0.58907 0.37813 0.77942 0.25209 0.18521 0.75883 0.3627 1.5202 0.53247l0.48617 0.10804c1.0084 0.21608 1.7234 0.52219 2.1453 0.91832 0.427 0.391 0.64051 0.93891 0.64051 1.6437 0 0.80257-0.31897 1.4379-0.9569 1.9061-0.6328 0.46816-1.5048 0.70225-2.6161 0.70225-0.46303 0-0.94663-0.0463-1.4508-0.13891-0.49903-0.0875-1.0264-0.22122-1.582-0.40128v-1.4662c0.52475 0.27267 1.0418 0.47845 1.5511 0.61736 0.50932 0.13376 1.0135 0.20064 1.5125 0.20064 0.6688 0 1.1833-0.11318 1.5434-0.33955 0.36012-0.23151 0.54019-0.55562 0.54019-0.97234 0-0.38585-0.13119-0.68166-0.39357-0.88745-0.25723-0.20579-0.82572-0.40386-1.7054-0.59421l-0.49389-0.11576c-0.87974-0.1852-1.5151-0.46816-1.9061-0.84887-0.39099-0.38584-0.58649-0.91317-0.58649-1.582 0-0.81285 0.2881-1.4405 0.86431-1.883 0.5762-0.44243 1.3942-0.66365 2.454-0.66366 0.52475 0.00001 1.0186 0.0386 1.4817 0.11576 0.46302 0.0772 0.89002 0.19293 1.281 0.34726"/>
  <path id="path3101" style="" d="m578.8 168.23h1.2347c0.7717 1.2142 1.3479 2.4026 1.7286 3.5652 0.38584 1.1627 0.57877 2.3177 0.57877 3.4649 0 1.1524-0.19293 2.3125-0.57877 3.4804-0.38071 1.1678-0.95691 2.3562-1.7286 3.5652h-1.2347c0.68424-1.1781 1.1936-2.3485 1.528-3.5112 0.33954-1.1678 0.50932-2.346 0.50932-3.5344s-0.16978-2.3614-0.50932-3.519c-0.33441-1.1575-0.84373-2.328-1.528-3.5112"/>
 </g>
 <g id="text18">
  <path id="path3104" style="" d="m565.41 214.01c0.74597 0.15949 1.3273 0.49132 1.744 0.9955 0.42185 0.50418 0.63279 1.1267 0.63279 1.8675 0 1.137-0.391 2.0167-1.173 2.6392-0.78199 0.6225-1.8932 0.93376-3.3337 0.93376-0.4836 0-0.98263-0.0489-1.4971-0.14663-0.50932-0.0926-1.0366-0.23408-1.582-0.42443v-1.5048c0.43215 0.25209 0.90546 0.44245 1.4199 0.57106 0.51446 0.12862 1.0521 0.19293 1.6128 0.19293 0.97748 0 1.7209-0.19293 2.2302-0.57878 0.51446-0.38585 0.77169-0.94661 0.7717-1.6823-0.00001-0.67909-0.23923-1.209-0.71768-1.5897-0.47332-0.38585-1.1344-0.57877-1.9833-0.57878h-1.3428v-1.281h1.4045c0.76655 0.00001 1.353-0.15176 1.7595-0.4553 0.40642-0.30867 0.60964-0.75111 0.60964-1.3273 0-0.59163-0.21093-1.0444-0.63279-1.3582-0.41672-0.31896-1.0161-0.47845-1.7981-0.47846-0.42701 0.00001-0.88488 0.0463-1.3736 0.13891-0.48875 0.0926-1.0264 0.23666-1.6128 0.43215v-1.3891c0.59163-0.16462 1.1447-0.28809 1.6592-0.37041 0.51961-0.0823 1.0084-0.12346 1.4662-0.12348 1.1833 0.00002 2.1196 0.27011 2.809 0.81029 0.68938 0.53505 1.0341 1.2604 1.0341 2.1762-0.00001 0.63795-0.18264 1.1781-0.54791 1.6206-0.36528 0.4373-0.88489 0.74084-1.5588 0.9106"/>
  <path id="path3106" style="" d="m570.75 218.26h1.6283v1.9601h-1.6283v-1.9601"/>
  <path id="path3108" style="" d="m580.47 216.81v-5.2321h1.4199v5.1781c0 0.81801 0.15948 1.4328 0.47845 1.8444 0.31897 0.40643 0.79742 0.60965 1.4354 0.60965 0.76655 0 1.371-0.24437 1.8135-0.73312 0.44757-0.48874 0.67137-1.155 0.67137-1.9987v-4.9003h1.4199v8.643h-1.4199v-1.3273c-0.34469 0.52476-0.74598 0.91575-1.2038 1.173-0.45273 0.25209-0.98006 0.37814-1.582 0.37814-0.99292 0-1.7466-0.30868-2.2611-0.92604-0.51447-0.61736-0.7717-1.5202-0.7717-2.7087m3.573-5.4405"/>
  <path id="path3110" style="" d="m592.05 209.12v2.454h2.9247v1.1035h-2.9247v4.6919c-0.00001 0.70482 0.0952 1.1576 0.28553 1.3582 0.19549 0.20065 0.58906 0.30097 1.1807 0.30097h1.4585v1.1884h-1.4585c-1.0958 0-1.8521-0.20321-2.2688-0.60964-0.41672-0.41157-0.62508-1.1576-0.62508-2.2379v-4.6919h-1.0418v-1.1035h1.0418v-2.454h1.4276"/>
  <path id="path3112" style="" d="m600.78 215.88c-1.1473 0-1.9421 0.13119-2.3846 0.39356-0.44245 0.26238-0.66367 0.70997-0.66366 1.3428-0.00001 0.50418 0.16462 0.90546 0.49388 1.2038 0.3344 0.29325 0.78713 0.43987 1.3582 0.43987 0.78713 0 1.4174-0.27781 1.8907-0.83344 0.47844-0.56076 0.71767-1.3042 0.71768-2.2302v-0.31639h-1.4122m2.8321-0.5865v4.9312h-1.4199v-1.3119c-0.32412 0.52476-0.72798 0.91318-1.2116 1.1653-0.4836 0.24694-1.0752 0.37042-1.7749 0.37042-0.88488 0-1.5897-0.24695-2.1144-0.74084-0.51962-0.49903-0.77942-1.1653-0.77942-1.9987 0-0.97233 0.32411-1.7054 0.97234-2.1993 0.65337-0.49388 1.6257-0.74083 2.917-0.74083h1.991v-0.13891c-0.00001-0.65336-0.21609-1.1575-0.64823-1.5125-0.42701-0.36012-1.0289-0.54018-1.8058-0.54019-0.49389 0.00001-0.97491 0.0592-1.4431 0.17749-0.46817 0.11834-0.91833 0.29583-1.3505 0.53248v-1.3119c0.51961-0.20064 1.0238-0.34983 1.5125-0.44759 0.48874-0.10288 0.96462-0.15433 1.4276-0.15434 1.2501 0.00001 2.1839 0.32412 2.8013 0.97234 0.61736 0.64824 0.92604 1.6309 0.92604 2.9479"/>
  <path id="path3114" style="" d="m612.05 211.83v1.3428c-0.40129-0.20578-0.81801-0.36012-1.2502-0.46302-0.43216-0.10289-0.87974-0.15433-1.3428-0.15434-0.70482 0.00001-1.2347 0.10804-1.5897 0.32411-0.34984 0.21609-0.52476 0.5402-0.52476 0.97234 0 0.32927 0.12605 0.58907 0.37814 0.77942 0.25208 0.18521 0.75883 0.3627 1.5202 0.53247l0.48618 0.10804c1.0083 0.21608 1.7234 0.52219 2.1453 0.91832 0.427 0.391 0.6405 0.93891 0.64051 1.6437-0.00001 0.80257-0.31898 1.4379-0.95691 1.9061-0.6328 0.46816-1.5048 0.70225-2.6161 0.70225-0.46302 0-0.94662-0.0463-1.4508-0.13891-0.49904-0.0875-1.0264-0.22122-1.582-0.40128v-1.4662c0.52476 0.27267 1.0418 0.47845 1.5511 0.61736 0.50932 0.13376 1.0135 0.20064 1.5125 0.20064 0.6688 0 1.1833-0.11318 1.5434-0.33955 0.36012-0.23151 0.54018-0.55562 0.54019-0.97234-0.00001-0.38585-0.1312-0.68166-0.39357-0.88745-0.25724-0.20579-0.82572-0.40386-1.7054-0.59421l-0.49389-0.11576c-0.87974-0.1852-1.5151-0.46816-1.9061-0.84887-0.39099-0.38584-0.58649-0.91317-0.58649-1.582 0-0.81285 0.2881-1.4405 0.8643-1.883 0.5762-0.44243 1.3942-0.66365 2.454-0.66366 0.52475 0.00001 1.0186 0.0386 1.4817 0.11576 0.46301 0.0772 0.89002 0.19293 1.281 0.34726"/>
  <path id="path3116" style="" d="m616.57 207.58h1.5357l-2.5157 2.9016h-1.1807l2.1608-2.9016m-1.7826 3.9974h1.4199v8.643h-1.4199v-8.643m0.70996-0.20836"/>
  <path id="path3118" style="" d="m620.57 209.12v2.454h2.9247v1.1035h-2.9247v4.6919c0 0.70482 0.0952 1.1576 0.28553 1.3582 0.19549 0.20065 0.58906 0.30097 1.1807 0.30097h1.4585v1.1884h-1.4585c-1.0958 0-1.8521-0.20321-2.2688-0.60964-0.41672-0.41157-0.62507-1.1576-0.62507-2.2379v-4.6919h-1.0418v-1.1035h1.0418v-2.454h1.4276"/>
  <path id="path3120" style="" d="m629.3 215.88c-1.1473 0-1.9421 0.13119-2.3846 0.39356-0.44245 0.26238-0.66367 0.70997-0.66367 1.3428 0 0.50418 0.16463 0.90546 0.49389 1.2038 0.3344 0.29325 0.78713 0.43987 1.3582 0.43987 0.78713 0 1.4174-0.27781 1.8907-0.83344 0.47844-0.56076 0.71767-1.3042 0.71768-2.2302v-0.31639h-1.4122m2.8321-0.5865v4.9312h-1.4199v-1.3119c-0.32412 0.52476-0.72798 0.91318-1.2116 1.1653-0.4836 0.24694-1.0752 0.37042-1.7749 0.37042-0.88488 0-1.5897-0.24695-2.1145-0.74084-0.51961-0.49903-0.77941-1.1653-0.77941-1.9987 0-0.97233 0.32411-1.7054 0.97234-2.1993 0.65337-0.49388 1.6257-0.74083 2.917-0.74083h1.991v-0.13891c-0.00001-0.65336-0.21609-1.1575-0.64823-1.5125-0.42701-0.36012-1.0289-0.54018-1.8058-0.54019-0.49389 0.00001-0.97491 0.0592-1.4431 0.17749-0.46817 0.11834-0.91833 0.29583-1.3505 0.53248v-1.3119c0.51961-0.20064 1.0238-0.34983 1.5125-0.44759 0.48874-0.10288 0.96462-0.15433 1.4276-0.15434 1.2501 0.00001 2.1839 0.32412 2.8013 0.97234 0.61736 0.64824 0.92603 1.6309 0.92604 2.9479m-2.5929-7.7093h1.5357l-2.5157 2.9016h-1.1807l2.1608-2.9016"/>
  <path id="path3122" style="" d="m640.58 211.83v1.3428c-0.40129-0.20578-0.818-0.36012-1.2502-0.46302-0.43216-0.10289-0.87974-0.15433-1.3428-0.15434-0.70482 0.00001-1.2347 0.10804-1.5897 0.32411-0.34984 0.21609-0.52475 0.5402-0.52475 0.97234 0 0.32927 0.12604 0.58907 0.37813 0.77942 0.25209 0.18521 0.75883 0.3627 1.5202 0.53247l0.48617 0.10804c1.0084 0.21608 1.7234 0.52219 2.1453 0.91832 0.427 0.391 0.64051 0.93891 0.64051 1.6437 0 0.80257-0.31897 1.4379-0.9569 1.9061-0.6328 0.46816-1.5048 0.70225-2.6161 0.70225-0.46303 0-0.94663-0.0463-1.4508-0.13891-0.49903-0.0875-1.0264-0.22122-1.582-0.40128v-1.4662c0.52475 0.27267 1.0418 0.47845 1.5511 0.61736 0.50932 0.13376 1.0135 0.20064 1.5125 0.20064 0.6688 0 1.1833-0.11318 1.5434-0.33955 0.36012-0.23151 0.54019-0.55562 0.54019-0.97234 0-0.38585-0.13119-0.68166-0.39357-0.88745-0.25723-0.20579-0.82572-0.40386-1.7054-0.59421l-0.49389-0.11576c-0.87974-0.1852-1.5151-0.46816-1.9061-0.84887-0.39099-0.38584-0.58649-0.91317-0.58649-1.582 0-0.81285 0.2881-1.4405 0.86431-1.883 0.5762-0.44243 1.3942-0.66365 2.454-0.66366 0.52475 0.00001 1.0186 0.0386 1.4817 0.11576 0.46302 0.0772 0.89002 0.19293 1.281 0.34726"/>
 </g>
 <g id="text22">
  <path id="path3125" style="" d="m564.97 250.06-3.9357 6.1504h3.9357v-6.1504m-0.409-1.3582h1.9601v7.5086h1.6437v1.2965h-1.6437v2.7164h-1.5511v-2.7164h-5.2012v-1.5048l4.7922-7.3003"/>
  <path id="path3127" style="" d="m570.75 258.26h1.6283v1.9601h-1.6283v-1.9601"/>
  <path id="path3129" style="" d="m580.47 256.81v-5.2321h1.4199v5.1781c0 0.818 0.15948 1.4328 0.47845 1.8444 0.31897 0.40643 0.79742 0.60964 1.4354 0.60964 0.76655 0 1.371-0.24437 1.8135-0.73311 0.44757-0.48874 0.67137-1.155 0.67137-1.9987v-4.9003h1.4199v8.643h-1.4199v-1.3273c-0.34469 0.52475-0.74598 0.91575-1.2038 1.173-0.45273 0.25209-0.98006 0.37813-1.582 0.37813-0.99292 0-1.7466-0.30868-2.2611-0.92604-0.51447-0.61736-0.7717-1.5202-0.7717-2.7087m3.573-5.4405"/>
  <path id="path3131" style="" d="m592.05 249.12v2.454h2.9247v1.1035h-2.9247v4.6919c-0.00001 0.70482 0.0952 1.1576 0.28553 1.3582 0.19549 0.20064 0.58906 0.30096 1.1807 0.30096h1.4585v1.1884h-1.4585c-1.0958 0-1.8521-0.20322-2.2688-0.60964-0.41672-0.41158-0.62508-1.1576-0.62508-2.2379v-4.6919h-1.0418v-1.1035h1.0418v-2.454h1.4276"/>
  <path id="path3133" style="" d="m600.78 255.88c-1.1473 0.00001-1.9421 0.13119-2.3846 0.39357-0.44245 0.26238-0.66367 0.70996-0.66366 1.3428-0.00001 0.50418 0.16462 0.90547 0.49388 1.2039 0.3344 0.29324 0.78713 0.43986 1.3582 0.43986 0.78713 0 1.4174-0.27781 1.8907-0.83343 0.47844-0.56077 0.71767-1.3042 0.71768-2.2302v-0.3164h-1.4122m2.8321-0.58649v4.9312h-1.4199v-1.3119c-0.32412 0.52476-0.72798 0.91318-1.2116 1.1653-0.4836 0.24694-1.0752 0.37041-1.7749 0.37041-0.88488 0-1.5897-0.24694-2.1144-0.74083-0.51962-0.49903-0.77942-1.1653-0.77942-1.9987 0-0.97234 0.32411-1.7054 0.97234-2.1993 0.65337-0.49389 1.6257-0.74083 2.917-0.74084h1.991v-0.1389c-0.00001-0.65337-0.21609-1.1575-0.64823-1.5125-0.42701-0.36012-1.0289-0.54018-1.8058-0.54019-0.49389 0.00001-0.97491 0.0592-1.4431 0.17749-0.46817 0.11833-0.91833 0.29582-1.3505 0.53247v-1.3119c0.51961-0.20063 1.0238-0.34983 1.5125-0.44758 0.48874-0.10289 0.96462-0.15433 1.4276-0.15434 1.2501 0.00001 2.1839 0.32412 2.8013 0.97234 0.61736 0.64823 0.92604 1.6309 0.92604 2.9479"/>
  <path id="path3135" style="" d="m612.05 251.83v1.3428c-0.40129-0.20578-0.81801-0.36012-1.2502-0.46302-0.43216-0.10288-0.87974-0.15433-1.3428-0.15434-0.70482 0.00001-1.2347 0.10805-1.5897 0.32412-0.34984 0.21608-0.52476 0.54019-0.52476 0.97234 0 0.32926 0.12605 0.58907 0.37814 0.77942 0.25208 0.18521 0.75883 0.3627 1.5202 0.53247l0.48618 0.10804c1.0083 0.21608 1.7234 0.52218 2.1453 0.91832 0.427 0.391 0.6405 0.9389 0.64051 1.6437-0.00001 0.80257-0.31898 1.4379-0.95691 1.9061-0.6328 0.46817-1.5048 0.70225-2.6161 0.70225-0.46302 0-0.94662-0.0463-1.4508-0.13891-0.49904-0.0874-1.0264-0.22122-1.582-0.40128v-1.4662c0.52476 0.27267 1.0418 0.47846 1.5511 0.61736 0.50932 0.13376 1.0135 0.20064 1.5125 0.20064 0.6688 0 1.1833-0.11318 1.5434-0.33954 0.36012-0.23151 0.54018-0.55563 0.54019-0.97234-0.00001-0.38585-0.1312-0.68167-0.39357-0.88746-0.25724-0.20578-0.82572-0.40385-1.7054-0.59421l-0.49389-0.11575c-0.87974-0.18521-1.5151-0.46816-1.9061-0.84887-0.39099-0.38585-0.58649-0.91317-0.58649-1.582 0-0.81285 0.2881-1.4405 0.8643-1.883 0.5762-0.44243 1.3942-0.66365 2.454-0.66366 0.52475 0.00001 1.0186 0.0386 1.4817 0.11575 0.46301 0.0772 0.89002 0.19294 1.281 0.34727"/>
  <path id="path3137" style="" d="m616.57 247.58h1.5357l-2.5157 2.9016h-1.1807l2.1608-2.9016m-1.7826 3.9974h1.4199v8.643h-1.4199v-8.643m0.70996-0.20836"/>
  <path id="path3139" style="" d="m620.57 249.12v2.454h2.9247v1.1035h-2.9247v4.6919c0 0.70482 0.0952 1.1576 0.28553 1.3582 0.19549 0.20064 0.58906 0.30096 1.1807 0.30096h1.4585v1.1884h-1.4585c-1.0958 0-1.8521-0.20322-2.2688-0.60964-0.41672-0.41158-0.62507-1.1576-0.62507-2.2379v-4.6919h-1.0418v-1.1035h1.0418v-2.454h1.4276"/>
  <path id="path3141" style="" d="m629.3 255.88c-1.1473 0.00001-1.9421 0.13119-2.3846 0.39357-0.44245 0.26238-0.66367 0.70996-0.66367 1.3428 0 0.50418 0.16463 0.90547 0.49389 1.2039 0.3344 0.29324 0.78713 0.43986 1.3582 0.43986 0.78713 0 1.4174-0.27781 1.8907-0.83343 0.47844-0.56077 0.71767-1.3042 0.71768-2.2302v-0.3164h-1.4122m2.8321-0.58649v4.9312h-1.4199v-1.3119c-0.32412 0.52476-0.72798 0.91318-1.2116 1.1653-0.4836 0.24694-1.0752 0.37041-1.7749 0.37041-0.88488 0-1.5897-0.24694-2.1145-0.74083-0.51961-0.49903-0.77941-1.1653-0.77941-1.9987 0-0.97234 0.32411-1.7054 0.97234-2.1993 0.65337-0.49389 1.6257-0.74083 2.917-0.74084h1.991v-0.1389c-0.00001-0.65337-0.21609-1.1575-0.64823-1.5125-0.42701-0.36012-1.0289-0.54018-1.8058-0.54019-0.49389 0.00001-0.97491 0.0592-1.4431 0.17749-0.46817 0.11833-0.91833 0.29582-1.3505 0.53247v-1.3119c0.51961-0.20063 1.0238-0.34983 1.5125-0.44758 0.48874-0.10289 0.96462-0.15433 1.4276-0.15434 1.2501 0.00001 2.1839 0.32412 2.8013 0.97234 0.61736 0.64823 0.92603 1.6309 0.92604 2.9479m-2.5929-7.7093h1.5357l-2.5157 2.9016h-1.1807l2.1608-2.9016"/>
  <path id="path3143" style="" d="m640.58 251.83v1.3428c-0.40129-0.20578-0.818-0.36012-1.2502-0.46302-0.43216-0.10288-0.87974-0.15433-1.3428-0.15434-0.70482 0.00001-1.2347 0.10805-1.5897 0.32412-0.34984 0.21608-0.52475 0.54019-0.52475 0.97234 0 0.32926 0.12604 0.58907 0.37813 0.77942 0.25209 0.18521 0.75883 0.3627 1.5202 0.53247l0.48617 0.10804c1.0084 0.21608 1.7234 0.52218 2.1453 0.91832 0.427 0.391 0.64051 0.9389 0.64051 1.6437 0 0.80257-0.31897 1.4379-0.9569 1.9061-0.6328 0.46817-1.5048 0.70225-2.6161 0.70225-0.46303 0-0.94663-0.0463-1.4508-0.13891-0.49903-0.0874-1.0264-0.22122-1.582-0.40128v-1.4662c0.52475 0.27267 1.0418 0.47846 1.5511 0.61736 0.50932 0.13376 1.0135 0.20064 1.5125 0.20064 0.6688 0 1.1833-0.11318 1.5434-0.33954 0.36012-0.23151 0.54019-0.55563 0.54019-0.97234 0-0.38585-0.13119-0.68167-0.39357-0.88746-0.25723-0.20578-0.82572-0.40385-1.7054-0.59421l-0.49389-0.11575c-0.87974-0.18521-1.5151-0.46816-1.9061-0.84887-0.39099-0.38585-0.58649-0.91317-0.58649-1.582 0-0.81285 0.2881-1.4405 0.86431-1.883 0.5762-0.44243 1.3942-0.66365 2.454-0.66366 0.52475 0.00001 1.0186 0.0386 1.4817 0.11575 0.46302 0.0772 0.89002 0.19294 1.281 0.34727"/>
 </g>
 <g id="g26" transform="translate(-1 -5.2546)">
  <g id="g28">
   <path id="rect30" fill="#f00" d="m140 120h40v40h-40z"/>
   <path id="rect32" d="m140 120h40v40h-40z" stroke="#000" stroke-width="2" fill="none"/>
  </g>
  <g id="g34">
   <path id="rect36" fill="#0f0" d="m180 120h40v40h-40z"/>
   <path id="rect38" d="m180 120h40v40h-40z" stroke="#000" stroke-width="2" fill="none"/>
  </g>
  <g id="g40">
   <path id="rect42" fill="#00f" d="m220 120h40v40h-40z"/>
   <path id="rect44" d="m220 120h40v40h-40z" stroke="#000" stroke-width="2" fill="none"/>
  </g>
  <g id="g46">
   <path id="rect48" fill="#ff0" d="m260 120h40v40h-40z"/>
   <path id="rect50" d="m260 120h40v40h-40z" stroke="#000" stroke-width="2" fill="none"/>
  </g>
 </g>
 <g id="g52" transform="translate(-1 -5.2546)">
  <g id="g54">
   <path id="rect56" fill="#f00" d="m340 200h40v40h-40z"/>
   <path id="rect58" d="m340 200h40v40h-40z" stroke="#000" stroke-width="2" fill="none"/>
  </g>
  <g id="g60">
   <path id="rect62" fill="#0f0" d="m380 200h40v40h-40z"/>
   <path id="rect64" d="m380 200h40v40h-40z" stroke="#000" stroke-width="2" fill="none"/>
  </g>
  <g id="g66">
   <path id="rect68" fill="#00f" d="m420 200h40v40h-40z"/>
   <path id="rect70" d="m420 200h40v40h-40z" stroke="#000" stroke-width="2" fill="none"/>
  </g>
  <g id="g72">
   <path id="rect74" fill="#ff0" d="m460 200h40v40h-40z"/>
   <path id="rect76" d="m460 200h40v40h-40z" stroke="#000" stroke-width="2" fill="none"/>
  </g>
 </g>
 <g id="g78" transform="translate(-1 -5.2546)">
  <g id="g80">
   <path id="rect82" fill="#f00" d="m180 160h40v40h-40z"/>
   <path id="rect84" d="m180 160h40v40h-40z" stroke="#000" stroke-width="2" fill="none"/>
  </g>
  <g id="g86">
   <path id="rect88" fill="#0f0" d="m220 160h40v40h-40z"/>
   <path id="rect90" d="m220 160h40v40h-40z" stroke="#000" stroke-width="2" fill="none"/>
  </g>
  <g id="g92">
   <path id="rect94" fill="#00f" d="m260 160h40v40h-40z"/>
   <path id="rect96" d="m260 160h40v40h-40z" stroke="#000" stroke-width="2" fill="none"/>
  </g>
  <g id="g98">
   <path id="rect100" fill="#ff0" d="m300 160h40v40h-40z"/>
   <path id="rect102" d="m300 160h40v40h-40z" stroke="#000" stroke-width="2" fill="none"/>
  </g>
 </g>
 <g id="g104" transform="translate(-1 -5.2546)">
  <g id="g106">
   <path id="rect108" fill="#f00" d="m380 240h40v40h-40z"/>
   <path id="rect110" d="m380 240h40v40h-40z" stroke="#000" stroke-width="2" fill="none"/>
  </g>
  <g id="g112">
   <path id="rect114" fill="#0f0" d="m420 240h40v40h-40z"/>
   <path id="rect116" d="m420 240h40v40h-40z" stroke="#000" stroke-width="2" fill="none"/>
  </g>
  <g id="g118">
   <path id="rect120" fill="#00f" d="m460 240h40v40h-40z"/>
   <path id="rect122" d="m460 240h40v40h-40z" stroke="#000" stroke-width="2" fill="none"/>
  </g>
  <g id="g124">
   <path id="rect126" fill="#ff0" d="m500 240h40v40h-40z"/>
   <path id="rect128" d="m500 240h40v40h-40z" stroke="#000" stroke-width="2" fill="none"/>
  </g>
 </g>
</svg>
