<?xml version="1.0" encoding="UTF-8" standalone="no"?>
<!-- Created with Inkscape (http://www.inkscape.org/) -->
<svg id="svg2" xmlns:rdf="http://www.w3.org/1999/02/22-rdf-syntax-ns#" xmlns="http://www.w3.org/2000/svg" height="213.71" width="244.63" version="1.1" xmlns:cc="http://creativecommons.org/ns#" xmlns:dc="http://purl.org/dc/elements/1.1/" viewBox="-11 37 137.09375 106.83974">
 <metadata id="metadata54">
  <rdf:RDF>
   <cc:Work rdf:about="">
    <dc:format>image/svg+xml</dc:format>
    <dc:type rdf:resource="http://purl.org/dc/dcmitype/StillImage"/>
   </cc:Work>
  </rdf:RDF>
 </metadata>
 <g id="g4" stroke="#000" stroke-width="2" fill="none" transform="translate(0 -10.698)">
  <path id="line6" d="m0 160v-115.53"/>
  <path id="polyline8" d="m5 52.236-5-10-5 10"/>
 </g>
 <g id="g10" stroke="#000" stroke-width="2" fill="none" transform="translate(0 -10.698)">
  <path id="line12" d="m-10 150h115.53"/>
  <path id="polyline14" d="m97.764 155 10-5-10-5"/>
 </g>
 <path id="line16" d="m0 139.3 80-41.998" stroke="#000" stroke-width="2" fill="none"/>
 <path id="line18" d="m0 139.3 40-77.998" stroke="#000" stroke-width="2" fill="none"/>
 <g id="text20">
  <path id="path3012" style="" d="m92.519 91.008v3.5062h1.5875c0.5875 0.000005 1.0417-0.15208 1.3625-0.45625 0.32083-0.30416 0.48124-0.73749 0.48125-1.3-0.000006-0.55833-0.16042-0.98958-0.48125-1.2938-0.32084-0.30416-0.775-0.45624-1.3625-0.45625h-1.5875m-1.2625-1.0375h2.85c1.0458 0.000009 1.8354 0.23751 2.3688 0.7125 0.53749 0.47084 0.80624 1.1625 0.80625 2.075-0.000007 0.92084-0.26876 1.6167-0.80625 2.0875-0.53334 0.47084-1.3229 0.70625-2.3688 0.70625h-1.5875v3.75h-1.2625v-9.3312"/>
  <path id="path3014" style="" d="m101.69 89.589c-0.55834 0.95834-0.97292 1.9063-1.2438 2.8438-0.27084 0.93751-0.40625 1.8875-0.40625 2.85s0.13541 1.9167 0.40625 2.8625c0.275 0.94167 0.68958 1.8896 1.2438 2.8438h-1c-0.625-0.97917-1.0938-1.9417-1.4062-2.8875-0.30834-0.94583-0.4625-1.8854-0.4625-2.8188-0.000001-0.92916 0.15416-1.8646 0.4625-2.8062 0.30833-0.94166 0.77708-1.9042 1.4062-2.8875h1"/>
  <path id="path3016" style="" d="m109.75 92.302-2.5312 3.4062 2.6625 3.5938h-1.3562l-2.0375-2.75-2.0375 2.75h-1.3562l2.7188-3.6625-2.4875-3.3375h1.3562l1.8562 2.4938 1.8562-2.4938h1.3562"/>
  <path id="path3018" style="" d="m111.8 92.683h1.3188v1.5875h-1.3188v-1.5875m0 5.0312h1.3188v1.075l-1.025 2h-0.80625l0.5125-2v-1.075"/>
  <path id="path3020" style="" d="m118.74 99.952c-0.325 0.83333-0.64167 1.3771-0.95 1.6313-0.30834 0.25416-0.72084 0.38125-1.2375 0.38125h-0.91875v-0.9625h0.675c0.31666 0 0.5625-0.075 0.7375-0.225s0.36875-0.50417 0.58125-1.0625l0.20625-0.525-2.8312-6.8875h1.2188l2.1875 5.475 2.1875-5.475h1.2188l-3.075 7.65"/>
  <path id="path3022" style="" d="m123.22 89.589h1c0.625 0.98334 1.0917 1.9458 1.4 2.8875 0.3125 0.94167 0.46875 1.8771 0.46875 2.8062 0 0.93334-0.15625 1.8729-0.46875 2.8188-0.30834 0.94583-0.775 1.9083-1.4 2.8875h-1c0.55417-0.95417 0.96667-1.9021 1.2375-2.8438 0.275-0.94583 0.4125-1.9 0.4125-2.8625s-0.1375-1.9125-0.4125-2.85c-0.27083-0.93749-0.68333-1.8854-1.2375-2.8438"/>
 </g>
 <g id="text24">
  <path id="path3025" style="" d="m42.519 41.008v3.5062h1.5875c0.5875 0.000005 1.0417-0.15208 1.3625-0.45625 0.32083-0.30416 0.48124-0.73749 0.48125-1.3-0.000006-0.55833-0.16042-0.98958-0.48125-1.2938-0.32084-0.30416-0.775-0.45624-1.3625-0.45625h-1.5875m-1.2625-1.0375h2.85c1.0458 0.000009 1.8354 0.23751 2.3688 0.7125 0.53749 0.47084 0.80624 1.1625 0.80625 2.075-0.000007 0.92084-0.26876 1.6167-0.80625 2.0875-0.53334 0.47084-1.3229 0.70625-2.3688 0.70625h-1.5875v3.75h-1.2625v-9.3312"/>
  <path id="path3027" style="" d="m50.019 39.971v3.4688h-1.0625v-3.4688h1.0625"/>
  <path id="path3029" style="" d="m55.219 39.589c-0.55834 0.95834-0.97292 1.9063-1.2438 2.8438-0.27084 0.93751-0.40625 1.8875-0.40625 2.85-0.000002 0.9625 0.13541 1.9167 0.40625 2.8625 0.275 0.94167 0.68958 1.8896 1.2438 2.8438h-1c-0.625-0.97917-1.0938-1.9417-1.4062-2.8875-0.30834-0.94583-0.4625-1.8854-0.4625-2.8188-0.000001-0.92916 0.15416-1.8646 0.4625-2.8062 0.30833-0.94166 0.77708-1.9042 1.4062-2.8875h1"/>
  <path id="path3031" style="" d="m63.275 42.302-2.5312 3.4062 2.6625 3.5938h-1.3562l-2.0375-2.75-2.0375 2.75h-1.3562l2.7188-3.6625-2.4875-3.3375h1.3562l1.8562 2.4938 1.8562-2.4938h1.3562"/>
  <path id="path3033" style="" d="m66.119 39.971v3.4688h-1.0625v-3.4688h1.0625"/>
  <path id="path3035" style="" d="m68.85 42.683h1.3188v1.5875h-1.3188v-1.5875m0 5.0312h1.3188v1.075l-1.025 2h-0.80625l0.5125-2v-1.075"/>
  <path id="path3037" style="" d="m75.794 49.952c-0.325 0.83333-0.64167 1.3771-0.95 1.6312-0.30834 0.25416-0.72084 0.38125-1.2375 0.38125h-0.91875v-0.9625h0.675c0.31666-0.000002 0.5625-0.075 0.7375-0.225s0.36875-0.50417 0.58125-1.0625l0.20625-0.525-2.8312-6.8875h1.2188l2.1875 5.475 2.1875-5.475h1.2188l-3.075 7.65"/>
  <path id="path3039" style="" d="m81.544 39.971v3.4688h-1.0625v-3.4688h1.0625"/>
  <path id="path3041" style="" d="m83.8 39.589h1c0.625 0.98334 1.0917 1.9458 1.4 2.8875 0.3125 0.94167 0.46875 1.8771 0.46875 2.8062-0.000004 0.93334-0.15625 1.8729-0.46875 2.8188-0.30834 0.94583-0.775 1.9083-1.4 2.8875h-1c0.55416-0.95417 0.96666-1.9021 1.2375-2.8438 0.275-0.94583 0.4125-1.9 0.4125-2.8625-0.000003-0.9625-0.1375-1.9125-0.4125-2.85-0.27084-0.93749-0.68334-1.8854-1.2375-2.8438"/>
 </g>
 <g id="text28">
  <path id="path3044" style="" d="m41.288 130.05-0.275-1.4438c-0.1875-0.9875-0.65209-1.4812-1.3938-1.4812-0.55834 0-0.96459 0.22917-1.2188 0.6875-0.32084 0.575-0.48125 1.2417-0.48125 2-0.000002 0.91667 0.15625 1.5938 0.46875 2.0312 0.31666 0.44583 0.72708 0.66875 1.2312 0.66875 0.55833 0 0.9875-0.44375 1.2875-1.3312l0.38125-1.1312m0.64375-1.9125 0.61875-1.8312h1.025l-1.2812 3.7938 0.25 1.3688c0.03749 0.20417 0.12916 0.39167 0.275 0.5625 0.17083 0.2 0.32291 0.3 0.45625 0.3h0.55v0.975h-0.6875c-0.39167 0-0.76251-0.175-1.1125-0.525-0.17084-0.175-0.29167-0.44583-0.3625-0.8125-0.19167 0.4625-0.48334 0.875-0.875 1.2375-0.18334 0.17083-0.57292 0.25625-1.1688 0.25625-0.97917 0-1.7063-0.31667-2.1812-0.95-0.4875-0.65417-0.73125-1.5542-0.73125-2.7-0.000001-1.225 0.26458-2.125 0.79375-2.7 0.5875-0.64166 1.2937-0.96249 2.1188-0.9625 1.2958 0.00001 2.0667 0.66251 2.3125 1.9875"/>
 </g>
 <g id="text32">
  <path id="path3047" style="" d="m26.356 112.87v3.0938h-1.1562v-9.6188c-0.000001-1.9 0.8875-2.85 2.6625-2.85 1.8083 0.00001 2.7125 0.80209 2.7125 2.4062-0.000006 1.1417-0.35834 1.9208-1.075 2.3375 1.1667 0.375 1.75 1.1188 1.75 2.2312-0.000007 1.975-1.0042 2.9625-3.0125 2.9625-0.88334 0-1.5104-0.1875-1.8812-0.5625m0-1.5c0.4625 0.72083 1.1042 1.0812 1.925 1.0812 1.2 0 1.8-0.65417 1.8-1.9625-0.000006-1.175-0.96667-1.7167-2.9-1.625v-1.0625c1.5125 0 2.2687-0.66666 2.2688-2-0.000005-0.91249-0.4875-1.3687-1.4625-1.3688-1.0875 0.00001-1.6313 0.65001-1.6312 1.95v4.9875"/>
 </g>
 <g id="text36">
  <path id="path3050" style="" d="m17.262 83.377c-0.12917-0.07499-0.27084-0.12916-0.425-0.1625-0.15-0.03749-0.31667-0.05624-0.5-0.05625-0.65 0.000006-1.15 0.21251-1.5 0.6375-0.34584 0.42084-0.51875 1.0271-0.51875 1.8188v3.6875h-1.1562v-7h1.1562v1.0875c0.24166-0.42499 0.55625-0.73958 0.94375-0.94375 0.3875-0.20833 0.85833-0.31249 1.4125-0.3125 0.07916 0.000007 0.16666 0.0063 0.2625 0.01875 0.09583 0.0083 0.20208 0.02292 0.31875 0.04375l0.0062 1.1812"/>
 </g>
 <path id="path40" d="m60 139.3a81.792 81.792 0 0 0 -32 -54" stroke="#000" stroke-width="2" fill="none"/>
 <path id="line42" d="m76 93.302 8 8" stroke="#000" stroke-width="2" fill="none"/>
 <path id="line44" d="m36 57.302 8 8" stroke="#000" stroke-width="2" fill="none"/>
 <path id="line46" d="m44 57.302-8 8" stroke="#000" stroke-width="2" fill="none"/>
 <path id="line48" d="m84 93.302-8 8" stroke="#000" stroke-width="2" fill="none"/>
</svg>
