<?xml version="1.0" encoding="UTF-8" standalone="no"?>
<!-- Created with Inkscape (http://www.inkscape.org/) -->
<svg id="svg2" xmlns:rdf="http://www.w3.org/1999/02/22-rdf-syntax-ns#" xmlns="http://www.w3.org/2000/svg" height="233.6" width="494.18" version="1.1" xmlns:cc="http://creativecommons.org/ns#" xmlns:dc="http://purl.org/dc/elements/1.1/" viewBox="328 165 262 118.66996">
 <metadata id="metadata50">
  <rdf:RDF>
   <cc:Work rdf:about="">
    <dc:format>image/svg+xml</dc:format>
    <dc:type rdf:resource="http://purl.org/dc/dcmitype/StillImage"/>
   </cc:Work>
  </rdf:RDF>
 </metadata>
 <g id="g4" transform="translate(-1 -4.3025)">
  <path id="ellipse6" fill="#fff" d="m370 220c0 11.046-8.9543 20-20 20s-20-8.9543-20-20 8.9543-20 20-20 20 8.9543 20 20z"/>
  <path id="ellipse8" d="m370 220c0 11.046-8.9543 20-20 20s-20-8.9543-20-20 8.9543-20 20-20 20 8.9543 20 20z" stroke="#000" stroke-width="2" fill="none"/>
  <g id="text10">
   <path id="path3006" style="" d="m349.99 215.14c-0.68793 0.00001-1.2061 0.33956-1.5544 1.0186-0.34396 0.6747-0.51594 1.6911-0.51593 3.0493-0.00001 1.3538 0.17197 2.3702 0.51593 3.0493 0.34837 0.67469 0.86651 1.012 1.5544 1.012 0.69232 0 1.2105-0.33734 1.5544-1.012 0.34836-0.6791 0.52254-1.6955 0.52255-3.0493-0.00001-1.3582-0.17419-2.3746-0.52255-3.0493-0.34397-0.67909-0.86211-1.0186-1.5544-1.0186m0-1.0583c1.1068 0.00001 1.9513 0.43878 2.5334 1.3163 0.58648 0.87313 0.87973 2.1431 0.87974 3.81-0.00001 1.6625-0.29326 2.9325-0.87974 3.81-0.58209 0.87313-1.4266 1.3097-2.5334 1.3097s-1.9535-0.43656-2.54-1.3097c-0.58209-0.87754-0.87313-2.1475-0.87313-3.81 0-1.6669 0.29104-2.9369 0.87313-3.81 0.58649-0.87753 1.4332-1.3163 2.54-1.3163"/>
  </g>
 </g>
 <g id="g14" transform="translate(-1 -4.3025)">
  <path id="ellipse16" fill="#fff" d="m590 220c0 11.046-8.9543 20-20 20s-20-8.9543-20-20 8.9543-20 20-20 20 8.9543 20 20z"/>
  <path id="ellipse18" d="m590 220c0 11.046-8.9543 20-20 20s-20-8.9543-20-20 8.9543-20 20-20 20 8.9543 20 20z" stroke="#000" stroke-width="2" fill="none"/>
  <g id="text20">
   <path id="path3011" style="" d="m567.37 223.01h2.1828v-7.534l-2.3746 0.47625v-1.2171l2.3614-0.47625h1.3362v8.7511h2.1828v1.1245h-5.6886v-1.1245"/>
  </g>
 </g>
 <g id="g24" stroke="#000" stroke-width="2" fill="none" transform="translate(-1 -4.3025)">
  <path id="path26" d="m565.8 198.46a312.5 312.5 0 0 0 -215.8 1.54"/>
  <path id="polyline28" d="m556.79 200.37 11.12-1.16-7.6-8.2"/>
 </g>
 <g id="g30" stroke="#000" stroke-width="2" fill="none" transform="translate(-1 -4.3025)">
  <path id="path32" d="m354.2 241.54a312.5 312.5 0 0 0 215.8 -1.54"/>
  <path id="polyline34" d="m363.21 239.63-11.12 1.16 7.6 8.2"/>
 </g>
 <g id="text36">
  <path id="path3016" style="" d="m383.62 162.92h1.1562v5.7438l3.4312-3.0188h1.4688l-3.7125 3.275 3.8688 3.725h-1.5l-3.5562-3.4188v3.4188h-1.1562v-9.725"/>
  <path id="path3018" style="" d="m394.05 169.13c-0.92917 0-1.5729 0.10625-1.9312 0.31875-0.35834 0.2125-0.5375 0.575-0.5375 1.0875 0 0.40833 0.13333 0.73333 0.4 0.975 0.27083 0.2375 0.6375 0.35625 1.1 0.35625 0.6375 0 1.1479-0.225 1.5312-0.675 0.38749-0.45417 0.58124-1.0562 0.58125-1.8062v-0.25625h-1.1438m2.2938-0.475v3.9938h-1.15v-1.0625c-0.26251 0.425-0.58959 0.73958-0.98125 0.94375-0.39167 0.2-0.87084 0.3-1.4375 0.3-0.71667 0-1.2875-0.2-1.7125-0.6-0.42084-0.40417-0.63125-0.94375-0.63125-1.6188 0-0.7875 0.2625-1.3812 0.7875-1.7812 0.52916-0.4 1.3167-0.6 2.3625-0.6h1.6125v-0.1125c-0.00001-0.52917-0.17501-0.9375-0.525-1.225-0.34584-0.29166-0.83334-0.4375-1.4625-0.4375-0.4 0-0.78959 0.0479-1.1688 0.14375-0.37917 0.0958-0.74375 0.23959-1.0938 0.43125v-1.0625c0.42083-0.1625 0.82916-0.28333 1.225-0.3625 0.39583-0.0833 0.78125-0.125 1.1562-0.125 1.0125 0 1.7687 0.2625 2.2688 0.7875 0.49999 0.525 0.74999 1.3208 0.75 2.3875"/>
  <path id="path3020" style="" d="m399.86 163.66v1.9875h2.3688v0.89375h-2.3688v3.8c0 0.57083 0.0771 0.9375 0.23125 1.1 0.15833 0.1625 0.47708 0.24375 0.95625 0.24375h1.1812v0.9625h-1.1812c-0.8875 0-1.5-0.16459-1.8375-0.49375-0.3375-0.33334-0.50625-0.9375-0.50625-1.8125v-3.8h-0.84375v-0.89375h0.84375v-1.9875h1.1562"/>
  <path id="path3022" style="" d="m404.88 163.66v1.9875h2.3688v0.89375h-2.3688v3.8c0 0.57083 0.0771 0.9375 0.23125 1.1 0.15833 0.1625 0.47708 0.24375 0.95625 0.24375h1.1812v0.9625h-1.1812c-0.8875 0-1.5-0.16459-1.8375-0.49375-0.3375-0.33334-0.50625-0.9375-0.50625-1.8125v-3.8h-0.84375v-0.89375h0.84375v-1.9875h1.1562"/>
  <path id="path3024" style="" d="m408.77 165.65h1.15v7h-1.15v-7m0-2.725h1.15v1.4562h-1.15v-1.4562"/>
  <path id="path3026" style="" d="m418.14 168.42v4.225h-1.15v-4.1875c-0.00001-0.6625-0.12917-1.1583-0.3875-1.4875-0.25834-0.32916-0.64584-0.49375-1.1625-0.49375-0.62084 0-1.1104 0.19792-1.4688 0.59375-0.35834 0.39583-0.5375 0.93542-0.5375 1.6188v3.9562h-1.1562v-7h1.1562v1.0875c0.275-0.42083 0.59791-0.73541 0.96875-0.94375 0.37499-0.20833 0.80624-0.3125 1.2938-0.3125 0.80416 0 1.4125 0.25 1.825 0.75 0.41249 0.49584 0.61874 1.2271 0.61875 2.1938"/>
  <path id="path3028" style="" d="m421.58 163.66v1.9875h2.3688v0.89375h-2.3688v3.8c0 0.57083 0.0771 0.9375 0.23125 1.1 0.15833 0.1625 0.47708 0.24375 0.95625 0.24375h1.1812v0.9625h-1.1812c-0.8875 0-1.5-0.16459-1.8375-0.49375-0.3375-0.33334-0.50625-0.9375-0.50625-1.8125v-3.8h-0.84375v-0.89375h0.84375v-1.9875h1.1562"/>
  <path id="path3030" style="" d="m428.65 169.13c-0.92917 0-1.5729 0.10625-1.9312 0.31875-0.35834 0.2125-0.5375 0.575-0.5375 1.0875 0 0.40833 0.13333 0.73333 0.4 0.975 0.27083 0.2375 0.6375 0.35625 1.1 0.35625 0.63749 0 1.1479-0.225 1.5312-0.675 0.38749-0.45417 0.58124-1.0562 0.58125-1.8062v-0.25625h-1.1438m2.2938-0.475v3.9938h-1.15v-1.0625c-0.26251 0.425-0.58959 0.73958-0.98125 0.94375-0.39167 0.2-0.87084 0.3-1.4375 0.3-0.71667 0-1.2875-0.2-1.7125-0.6-0.42084-0.40417-0.63125-0.94375-0.63125-1.6188 0-0.7875 0.2625-1.3812 0.7875-1.7812 0.52916-0.4 1.3167-0.6 2.3625-0.6h1.6125v-0.1125c-0.00001-0.52917-0.17501-0.9375-0.525-1.225-0.34584-0.29166-0.83334-0.4375-1.4625-0.4375-0.40001 0-0.78959 0.0479-1.1688 0.14375-0.37917 0.0958-0.74375 0.23959-1.0938 0.43125v-1.0625c0.42083-0.1625 0.82916-0.28333 1.225-0.3625 0.39583-0.0833 0.78124-0.125 1.1562-0.125 1.0125 0 1.7687 0.2625 2.2688 0.7875 0.49999 0.525 0.74999 1.3208 0.75 2.3875m-2.1-6.2438h1.2438l-2.0375 2.35h-0.95625l1.75-2.35"/>
  <path id="path3032" style="" d="m437.78 165.85v1.0875c-0.325-0.16666-0.6625-0.29166-1.0125-0.375-0.35-0.0833-0.7125-0.125-1.0875-0.125-0.57084 0-1 0.0875-1.2875 0.2625-0.28333 0.175-0.425 0.4375-0.425 0.7875 0 0.26667 0.10208 0.47708 0.30625 0.63125 0.20416 0.15 0.61458 0.29375 1.2312 0.43125l0.39375 0.0875c0.81666 0.175 1.3958 0.42292 1.7375 0.74375 0.34583 0.31667 0.51874 0.76042 0.51875 1.3312-0.00001 0.65-0.25834 1.1646-0.775 1.5438-0.5125 0.37916-1.2188 0.56875-2.1188 0.56875-0.375 0-0.76667-0.0375-1.175-0.1125-0.40417-0.0708-0.83125-0.17917-1.2812-0.325v-1.1875c0.425 0.22083 0.84375 0.3875 1.2562 0.5 0.4125 0.10833 0.82083 0.1625 1.225 0.1625 0.54166 0 0.95833-0.0917 1.25-0.275 0.29166-0.1875 0.4375-0.45 0.4375-0.7875 0-0.3125-0.10625-0.55208-0.31875-0.71875-0.20834-0.16667-0.66875-0.32708-1.3812-0.48125l-0.4-0.0937c-0.7125-0.15-1.2271-0.37917-1.5438-0.6875-0.31667-0.3125-0.475-0.73958-0.475-1.2812 0-0.65833 0.23333-1.1667 0.7-1.525 0.46667-0.35833 1.1292-0.5375 1.9875-0.5375 0.425 0 0.825 0.0312 1.2 0.0937s0.72083 0.15625 1.0375 0.28125"/>
  <path id="path3034" style="" d="m447.25 169.13c-0.92917 0-1.5729 0.10625-1.9312 0.31875-0.35834 0.2125-0.5375 0.575-0.5375 1.0875 0 0.40833 0.13333 0.73333 0.4 0.975 0.27083 0.2375 0.6375 0.35625 1.1 0.35625 0.6375 0 1.1479-0.225 1.5312-0.675 0.3875-0.45417 0.58124-1.0562 0.58125-1.8062v-0.25625h-1.1438m2.2938-0.475v3.9938h-1.15v-1.0625c-0.2625 0.425-0.58959 0.73958-0.98125 0.94375-0.39167 0.2-0.87084 0.3-1.4375 0.3-0.71667 0-1.2875-0.2-1.7125-0.6-0.42083-0.40417-0.63125-0.94375-0.63125-1.6188 0-0.7875 0.2625-1.3812 0.7875-1.7812 0.52916-0.4 1.3167-0.6 2.3625-0.6h1.6125v-0.1125c-0.00001-0.52917-0.175-0.9375-0.525-1.225-0.34584-0.29166-0.83334-0.4375-1.4625-0.4375-0.4 0-0.78959 0.0479-1.1688 0.14375-0.37917 0.0958-0.74375 0.23959-1.0938 0.43125v-1.0625c0.42083-0.1625 0.82916-0.28333 1.225-0.3625 0.39583-0.0833 0.78125-0.125 1.1562-0.125 1.0125 0 1.7688 0.2625 2.2688 0.7875 0.49999 0.525 0.74999 1.3208 0.75 2.3875"/>
  <path id="path3036" style="" d="m459.54 162.92v0.95625h-1.1c-0.4125 0-0.7 0.0833-0.8625 0.25-0.15833 0.16667-0.2375 0.46667-0.2375 0.9v0.61875h1.8938v0.89375h-1.8938v6.1062h-1.1562v-6.1062h-1.1v-0.89375h1.1v-0.4875c0-0.77916 0.18125-1.3458 0.54375-1.7 0.3625-0.35833 0.9375-0.53749 1.725-0.5375h1.0875"/>
  <path id="path3038" style="" d="m466.48 168.86v0.5625h-5.2875c0.05 0.79167 0.2875 1.3958 0.7125 1.8125 0.42917 0.4125 1.025 0.61875 1.7875 0.61875 0.44167 0 0.86875-0.0542 1.2812-0.1625 0.41666-0.10834 0.82916-0.27084 1.2375-0.4875v1.0875c-0.4125 0.175-0.83542 0.30833-1.2688 0.4-0.43334 0.0917-0.87292 0.1375-1.3188 0.1375-1.1167 0-2.0021-0.325-2.6562-0.975-0.65-0.65-0.975-1.5292-0.975-2.6375 0-1.1458 0.30834-2.0542 0.925-2.725 0.62083-0.675 1.4562-1.0125 2.5062-1.0125 0.94167 0 1.6854 0.30417 2.2312 0.9125 0.55 0.60417 0.825 1.4271 0.825 2.4688m-1.15-0.3375c-0.008-0.62917-0.18542-1.1312-0.53125-1.5062-0.34167-0.375-0.79583-0.5625-1.3625-0.5625-0.64167 0-1.1562 0.18125-1.5438 0.54375-0.38333 0.3625-0.60417 0.87292-0.6625 1.5312l4.1-0.006"/>
  <path id="path3040" style="" d="m474.19 168.42v4.225h-1.15v-4.1875c0-0.6625-0.12917-1.1583-0.3875-1.4875-0.25834-0.32916-0.64583-0.49375-1.1625-0.49375-0.62083 0-1.1104 0.19792-1.4688 0.59375-0.35833 0.39583-0.5375 0.93542-0.5375 1.6188v3.9562h-1.1562v-9.725h1.1562v3.8125c0.275-0.42083 0.59792-0.73541 0.96875-0.94375 0.375-0.20833 0.80625-0.3125 1.2938-0.3125 0.80416 0 1.4125 0.25 1.825 0.75 0.4125 0.49584 0.61875 1.2271 0.61875 2.1938"/>
  <path id="path3042" style="" d="m482.48 168.86v0.5625h-5.2875c0.05 0.79167 0.2875 1.3958 0.7125 1.8125 0.42917 0.4125 1.025 0.61875 1.7875 0.61875 0.44167 0 0.86875-0.0542 1.2812-0.1625 0.41666-0.10834 0.82916-0.27084 1.2375-0.4875v1.0875c-0.4125 0.175-0.83542 0.30833-1.2688 0.4-0.43334 0.0917-0.87292 0.1375-1.3188 0.1375-1.1167 0-2.0021-0.325-2.6562-0.975-0.65-0.65-0.975-1.5292-0.975-2.6375 0-1.1458 0.30834-2.0542 0.925-2.725 0.62083-0.675 1.4562-1.0125 2.5062-1.0125 0.94167 0 1.6854 0.30417 2.2312 0.9125 0.55 0.60417 0.825 1.4271 0.825 2.4688m-1.15-0.3375c-0.008-0.62917-0.18542-1.1312-0.53125-1.5062-0.34167-0.375-0.79583-0.5625-1.3625-0.5625-0.64167 0-1.1562 0.18125-1.5438 0.54375-0.38333 0.3625-0.60417 0.87292-0.6625 1.5312l4.1-0.006m-1.1062-6.1125h1.2438l-2.0375 2.35h-0.95625l1.75-2.35"/>
  <path id="path3044" style="" d="m488.42 166.72c-0.12917-0.075-0.27083-0.12916-0.425-0.1625-0.15-0.0375-0.31667-0.0563-0.5-0.0563-0.65 0-1.15 0.2125-1.5 0.6375-0.34583 0.42083-0.51875 1.0271-0.51875 1.8188v3.6875h-1.1562v-7h1.1562v1.0875c0.24167-0.425 0.55625-0.73958 0.94375-0.94375 0.3875-0.20833 0.85833-0.3125 1.4125-0.3125 0.0792 0 0.16667 0.006 0.2625 0.0187 0.0958 0.008 0.20208 0.0229 0.31875 0.0438l0.006 1.1812"/>
  <path id="path3046" style="" d="m498.32 169.07c0-0.83333-0.17292-1.4792-0.51875-1.9375-0.34167-0.45833-0.82292-0.6875-1.4438-0.6875-0.61667 0-1.0979 0.22917-1.4438 0.6875-0.34167 0.45833-0.5125 1.1042-0.5125 1.9375 0 0.82917 0.17083 1.4729 0.5125 1.9312 0.34583 0.45833 0.82708 0.6875 1.4438 0.6875 0.62083 0 1.1021-0.22917 1.4438-0.6875 0.34583-0.45834 0.51875-1.1021 0.51875-1.9312m1.15 2.7125c0 1.1917-0.26459 2.0771-0.79375 2.6562-0.52917 0.58333-1.3396 0.87499-2.4312 0.875-0.40417-0.00001-0.78542-0.0313-1.1438-0.0937-0.35833-0.0583-0.70625-0.15001-1.0438-0.275v-1.1188c0.3375 0.18333 0.67083 0.31874 1 0.40625 0.32917 0.0875 0.66458 0.13124 1.0062 0.13125 0.75416-0.00001 1.3188-0.19792 1.6938-0.59375 0.375-0.39167 0.5625-0.98542 0.5625-1.7812v-0.56875c-0.2375 0.4125-0.54167 0.72083-0.9125 0.925-0.37084 0.20416-0.81459 0.30625-1.3312 0.30625-0.85833 0-1.55-0.32709-2.075-0.98125-0.525-0.65417-0.7875-1.5208-0.7875-2.6 0-1.0833 0.2625-1.9521 0.7875-2.6062 0.525-0.65416 1.2167-0.98125 2.075-0.98125 0.51666 0 0.96041 0.10209 1.3312 0.30625 0.37083 0.20417 0.675 0.5125 0.9125 0.925v-1.0625h1.15v6.1312"/>
  <path id="path3048" style="" d="m504.56 166.45c-0.61667 0-1.1042 0.24167-1.4625 0.725-0.35833 0.47917-0.5375 1.1375-0.5375 1.975s0.17708 1.4979 0.53125 1.9812c0.35833 0.47916 0.84792 0.71875 1.4688 0.71875 0.6125 0 1.0979-0.24167 1.4562-0.725 0.35833-0.48334 0.5375-1.1417 0.5375-1.975 0-0.82917-0.17917-1.4854-0.5375-1.9688-0.35834-0.4875-0.84375-0.73125-1.4562-0.73125m0-0.975c1 0 1.7854 0.325 2.3562 0.975 0.57083 0.65 0.85624 1.55 0.85625 2.7-0.00001 1.1458-0.28542 2.0458-0.85625 2.7-0.57084 0.65-1.3562 0.975-2.3562 0.975-1.0042 0-1.7917-0.325-2.3625-0.975-0.56667-0.65417-0.85-1.5542-0.85-2.7 0-1.15 0.28333-2.05 0.85-2.7 0.57083-0.65 1.3583-0.975 2.3625-0.975"/>
  <path id="path3050" style="" d="m509.67 162.92h1.15v9.725h-1.15v-9.725"/>
  <path id="path3052" style="" d="m516.13 173.3c-0.325 0.83333-0.64167 1.3771-0.95 1.6312-0.30833 0.25416-0.72083 0.38124-1.2375 0.38125h-0.91875v-0.9625h0.675c0.31667-0.00001 0.5625-0.075 0.7375-0.225 0.175-0.15001 0.36875-0.50417 0.58125-1.0625l0.20625-0.525-2.8312-6.8875h1.2188l2.1875 5.475 2.1875-5.475h1.2188l-3.075 7.65"/>
  <path id="path3054" style="" d="m523.51 166.45c-0.61667 0-1.1042 0.24167-1.4625 0.725-0.35834 0.47917-0.5375 1.1375-0.5375 1.975s0.17708 1.4979 0.53125 1.9812c0.35833 0.47916 0.84791 0.71875 1.4688 0.71875 0.61249 0 1.0979-0.24167 1.4562-0.725 0.35833-0.48334 0.53749-1.1417 0.5375-1.975-0.00001-0.82917-0.17917-1.4854-0.5375-1.9688-0.35834-0.4875-0.84376-0.73125-1.4562-0.73125m0-0.975c0.99999 0 1.7854 0.325 2.3562 0.975 0.57083 0.65 0.85624 1.55 0.85625 2.7-0.00001 1.1458-0.28542 2.0458-0.85625 2.7-0.57084 0.65-1.3563 0.975-2.3562 0.975-1.0042 0-1.7917-0.325-2.3625-0.975-0.56667-0.65417-0.85-1.5542-0.85-2.7 0-1.15 0.28333-2.05 0.85-2.7 0.57083-0.65 1.3583-0.975 2.3625-0.975m0.86875-3.0688h1.2438l-2.0375 2.35h-0.95625l1.75-2.35"/>
  <path id="path3056" style="" d="m534.44 168.42v4.225h-1.15v-4.1875c-0.00001-0.6625-0.12918-1.1583-0.3875-1.4875-0.25834-0.32916-0.64584-0.49375-1.1625-0.49375-0.62084 0-1.1104 0.19792-1.4688 0.59375-0.35834 0.39583-0.53751 0.93542-0.5375 1.6188v3.9562h-1.1562v-7h1.1562v1.0875c0.27499-0.42083 0.59791-0.73541 0.96875-0.94375 0.37499-0.20833 0.80624-0.3125 1.2938-0.3125 0.80416 0 1.4125 0.25 1.825 0.75 0.41249 0.49584 0.61874 1.2271 0.61875 2.1938"/>
 </g>
 <g id="text40">
  <path id="path3059" style="" d="m411.45 264.02c-0.00001-0.83333-0.17292-1.4792-0.51875-1.9375-0.34167-0.45832-0.82292-0.68749-1.4438-0.6875-0.61667 0.00001-1.0979 0.22918-1.4438 0.6875-0.34167 0.45834-0.5125 1.1042-0.5125 1.9375 0 0.82917 0.17083 1.4729 0.5125 1.9312 0.34583 0.45834 0.82708 0.6875 1.4438 0.6875 0.62083 0 1.1021-0.22916 1.4438-0.6875 0.34583-0.45833 0.51874-1.1021 0.51875-1.9312m1.15 2.7125c-0.00001 1.1917-0.26459 2.0771-0.79375 2.6562-0.52917 0.58333-1.3396 0.875-2.4312 0.875-0.40417 0-0.78542-0.0312-1.1438-0.0937-0.35834-0.0583-0.70625-0.15-1.0438-0.275v-1.1188c0.3375 0.18334 0.67083 0.31875 1 0.40625 0.32916 0.0875 0.66458 0.13125 1.0062 0.13125 0.75416 0 1.3187-0.19792 1.6938-0.59375 0.37499-0.39166 0.56249-0.98541 0.5625-1.7812v-0.56875c-0.23751 0.4125-0.54167 0.72084-0.9125 0.925-0.37084 0.20417-0.81459 0.30625-1.3312 0.30625-0.85834 0-1.55-0.32708-2.075-0.98125-0.525-0.65416-0.7875-1.5208-0.7875-2.6 0-1.0833 0.2625-1.9521 0.7875-2.6062 0.525-0.65416 1.2167-0.98124 2.075-0.98125 0.51666 0.00001 0.96041 0.10209 1.3312 0.30625 0.37083 0.20418 0.67499 0.51251 0.9125 0.925v-1.0625h1.15v6.1312"/>
  <path id="path3061" style="" d="m417.68 261.4c-0.61667 0.00001-1.1042 0.24168-1.4625 0.725-0.35834 0.47917-0.5375 1.1375-0.5375 1.975 0 0.83751 0.17708 1.4979 0.53125 1.9812 0.35833 0.47917 0.84791 0.71875 1.4688 0.71875 0.61249 0 1.0979-0.24166 1.4562-0.725 0.35833-0.48333 0.53749-1.1417 0.5375-1.975-0.00001-0.82916-0.17917-1.4854-0.5375-1.9688-0.35834-0.48749-0.84376-0.73124-1.4562-0.73125m0-0.975c0.99999 0.00001 1.7854 0.32501 2.3562 0.975 0.57083 0.65001 0.85624 1.55 0.85625 2.7-0.00001 1.1458-0.28542 2.0458-0.85625 2.7-0.57084 0.65-1.3563 0.975-2.3562 0.975-1.0042 0-1.7917-0.325-2.3625-0.975-0.56667-0.65416-0.85-1.5542-0.85-2.7 0-1.15 0.28333-2.05 0.85-2.7 0.57083-0.64999 1.3583-0.97499 2.3625-0.975"/>
  <path id="path3063" style="" d="m428.24 261.94c0.28749-0.51666 0.63124-0.89791 1.0312-1.1438 0.39999-0.24582 0.87082-0.36874 1.4125-0.36875 0.72916 0.00001 1.2917 0.25626 1.6875 0.76875 0.39582 0.50834 0.59374 1.2333 0.59375 2.175v4.225h-1.1562v-4.1875c-0.00001-0.67083-0.11876-1.1687-0.35625-1.4938-0.23751-0.32499-0.60001-0.48749-1.0875-0.4875-0.59584 0.00001-1.0667 0.19793-1.4125 0.59375-0.34584 0.39584-0.51876 0.93542-0.51875 1.6188v3.9562h-1.1562v-4.1875c-0.00001-0.67499-0.11876-1.1729-0.35625-1.4938-0.23751-0.32499-0.60417-0.48749-1.1-0.4875-0.5875 0.00001-1.0542 0.20001-1.4 0.6-0.34584 0.39584-0.51875 0.93334-0.51875 1.6125v3.9562h-1.1562v-7h1.1562v1.0875c0.2625-0.42916 0.57708-0.74582 0.94375-0.95 0.36666-0.20416 0.80208-0.30624 1.3062-0.30625 0.50833 0.00001 0.93958 0.12918 1.2938 0.3875 0.35833 0.25834 0.62291 0.63334 0.79375 1.125"/>
  <path id="path3065" style="" d="m440.29 264.1c-0.00001-0.84583-0.17501-1.5083-0.525-1.9875-0.34584-0.48332-0.82292-0.72499-1.4312-0.725-0.60834 0.00001-1.0875 0.24168-1.4375 0.725-0.34584 0.47917-0.51875 1.1417-0.51875 1.9875 0 0.84584 0.17291 1.5104 0.51875 1.9938 0.35 0.47917 0.82916 0.71875 1.4375 0.71875 0.60833 0 1.0854-0.23958 1.4312-0.71875 0.34999-0.48333 0.52499-1.1479 0.525-1.9938m-3.9125-2.4438c0.24166-0.41666 0.54583-0.72499 0.9125-0.925 0.37083-0.20416 0.8125-0.30624 1.325-0.30625 0.85 0.00001 1.5396 0.33751 2.0688 1.0125 0.53333 0.67501 0.79999 1.5625 0.8 2.6625-0.00001 1.1-0.26667 1.9875-0.8 2.6625-0.52917 0.675-1.2188 1.0125-2.0688 1.0125-0.5125 0-0.95417-0.1-1.325-0.3-0.36667-0.20416-0.67084-0.51458-0.9125-0.93125v1.05h-1.1562v-9.725h1.1562v3.7875"/>
  <path id="path3067" style="" d="m453.46 263.81v0.5625h-5.2875c0.05 0.79167 0.2875 1.3958 0.7125 1.8125 0.42916 0.4125 1.025 0.61875 1.7875 0.61875 0.44166 0 0.86874-0.0542 1.2812-0.1625 0.41666-0.10833 0.82916-0.27083 1.2375-0.4875v1.0875c-0.41251 0.175-0.83542 0.30834-1.2688 0.4-0.43334 0.0917-0.87292 0.1375-1.3188 0.1375-1.1167 0-2.0021-0.325-2.6562-0.975-0.65-0.65-0.975-1.5292-0.975-2.6375 0-1.1458 0.30833-2.0542 0.925-2.725 0.62083-0.67499 1.4562-1.0125 2.5062-1.0125 0.94166 0.00001 1.6854 0.30418 2.2312 0.9125 0.54999 0.60418 0.82499 1.4271 0.825 2.4688m-1.15-0.3375c-0.008-0.62916-0.18542-1.1312-0.53125-1.5062-0.34167-0.37499-0.79584-0.56249-1.3625-0.5625-0.64167 0.00001-1.1562 0.18126-1.5438 0.54375-0.38334 0.36251-0.60417 0.87292-0.6625 1.5312l4.1-0.006"/>
  <path id="path3069" style="" d="m455.34 257.87h1.15v9.725h-1.15v-9.725"/>
  <path id="path3071" style="" d="m464.88 263.81v0.5625h-5.2875c0.05 0.79167 0.2875 1.3958 0.7125 1.8125 0.42916 0.4125 1.025 0.61875 1.7875 0.61875 0.44166 0 0.86874-0.0542 1.2812-0.1625 0.41666-0.10833 0.82916-0.27083 1.2375-0.4875v1.0875c-0.41251 0.175-0.83542 0.30834-1.2688 0.4-0.43334 0.0917-0.87292 0.1375-1.3188 0.1375-1.1167 0-2.0021-0.325-2.6562-0.975-0.65-0.65-0.975-1.5292-0.975-2.6375 0-1.1458 0.30833-2.0542 0.925-2.725 0.62083-0.67499 1.4562-1.0125 2.5062-1.0125 0.94166 0.00001 1.6854 0.30418 2.2312 0.9125 0.54999 0.60418 0.82499 1.4271 0.825 2.4688m-1.15-0.3375c-0.008-0.62916-0.18542-1.1312-0.53125-1.5062-0.34167-0.37499-0.79584-0.56249-1.3625-0.5625-0.64167 0.00001-1.1562 0.18126-1.5438 0.54375-0.38334 0.36251-0.60417 0.87292-0.6625 1.5312l4.1-0.006"/>
  <path id="path3073" style="" d="m472.59 263.37v4.225h-1.15v-4.1875c-0.00001-0.66249-0.12917-1.1583-0.3875-1.4875-0.25834-0.32916-0.64584-0.49374-1.1625-0.49375-0.62084 0.00001-1.1104 0.19793-1.4688 0.59375-0.35834 0.39584-0.5375 0.93542-0.5375 1.6188v3.9562h-1.1562v-7h1.1562v1.0875c0.275-0.42082 0.59791-0.73541 0.96875-0.94375 0.37499-0.20832 0.80624-0.31249 1.2938-0.3125 0.80416 0.00001 1.4125 0.25001 1.825 0.75 0.41249 0.49584 0.61874 1.2271 0.61875 2.1938"/>
  <path id="path3075" style="" d="m479.5 264.02c0-0.83333-0.17292-1.4792-0.51875-1.9375-0.34167-0.45832-0.82292-0.68749-1.4438-0.6875-0.61667 0.00001-1.0979 0.22918-1.4438 0.6875-0.34167 0.45834-0.5125 1.1042-0.5125 1.9375 0 0.82917 0.17083 1.4729 0.5125 1.9312 0.34583 0.45834 0.82708 0.6875 1.4438 0.6875 0.62083 0 1.1021-0.22916 1.4438-0.6875 0.34583-0.45833 0.51875-1.1021 0.51875-1.9312m1.15 2.7125c0 1.1917-0.26459 2.0771-0.79375 2.6562-0.52917 0.58333-1.3396 0.875-2.4312 0.875-0.40417 0-0.78542-0.0312-1.1438-0.0937-0.35833-0.0583-0.70625-0.15-1.0438-0.275v-1.1188c0.3375 0.18334 0.67083 0.31875 1 0.40625s0.66458 0.13125 1.0062 0.13125c0.75416 0 1.3188-0.19792 1.6938-0.59375 0.375-0.39166 0.5625-0.98541 0.5625-1.7812v-0.56875c-0.2375 0.4125-0.54167 0.72084-0.9125 0.925-0.37084 0.20417-0.81459 0.30625-1.3312 0.30625-0.85833 0-1.55-0.32708-2.075-0.98125-0.525-0.65416-0.7875-1.5208-0.7875-2.6 0-1.0833 0.2625-1.9521 0.7875-2.6062 0.525-0.65416 1.2167-0.98124 2.075-0.98125 0.51666 0.00001 0.96041 0.10209 1.3312 0.30625 0.37083 0.20418 0.675 0.51251 0.9125 0.925v-1.0625h1.15v6.1312"/>
  <path id="path3077" style="" d="m489.01 263.81v0.5625h-5.2875c0.05 0.79167 0.2875 1.3958 0.7125 1.8125 0.42917 0.4125 1.025 0.61875 1.7875 0.61875 0.44166 0 0.86875-0.0542 1.2812-0.1625 0.41666-0.10833 0.82916-0.27083 1.2375-0.4875v1.0875c-0.4125 0.175-0.83542 0.30834-1.2688 0.4-0.43334 0.0917-0.87292 0.1375-1.3188 0.1375-1.1167 0-2.0021-0.325-2.6562-0.975-0.65-0.65-0.975-1.5292-0.975-2.6375 0-1.1458 0.30833-2.0542 0.925-2.725 0.62083-0.67499 1.4562-1.0125 2.5062-1.0125 0.94166 0.00001 1.6854 0.30418 2.2312 0.9125 0.55 0.60418 0.825 1.4271 0.825 2.4688m-1.15-0.3375c-0.008-0.62916-0.18542-1.1312-0.53125-1.5062-0.34167-0.37499-0.79584-0.56249-1.3625-0.5625-0.64167 0.00001-1.1562 0.18126-1.5438 0.54375-0.38333 0.36251-0.60417 0.87292-0.6625 1.5312l4.1-0.006"/>
  <path id="path3079" style="" d="m495.5 261.66v-3.7875h1.15v9.725h-1.15v-1.05c-0.24167 0.41667-0.54792 0.72709-0.91875 0.93125-0.36667 0.2-0.80834 0.3-1.325 0.3-0.84583 0-1.5354-0.3375-2.0688-1.0125-0.52917-0.675-0.79375-1.5625-0.79375-2.6625s0.26458-1.9875 0.79375-2.6625c0.53333-0.67499 1.2229-1.0125 2.0688-1.0125 0.51666 0.00001 0.95833 0.10209 1.325 0.30625 0.37083 0.20001 0.67708 0.50834 0.91875 0.925m-3.9188 2.4438c0 0.84584 0.17292 1.5104 0.51875 1.9938 0.35 0.47917 0.82917 0.71875 1.4375 0.71875s1.0875-0.23958 1.4375-0.71875c0.35-0.48333 0.525-1.1479 0.525-1.9938 0-0.84583-0.175-1.5083-0.525-1.9875-0.35-0.48332-0.82917-0.72499-1.4375-0.725-0.60833 0.00001-1.0875 0.24168-1.4375 0.725-0.34583 0.47917-0.51875 1.1417-0.51875 1.9875"/>
  <path id="path3081" style="" d="m505.01 263.81v0.5625h-5.2875c0.05 0.79167 0.2875 1.3958 0.7125 1.8125 0.42917 0.4125 1.025 0.61875 1.7875 0.61875 0.44166 0 0.86875-0.0542 1.2812-0.1625 0.41666-0.10833 0.82916-0.27083 1.2375-0.4875v1.0875c-0.4125 0.175-0.83542 0.30834-1.2688 0.4-0.43334 0.0917-0.87292 0.1375-1.3188 0.1375-1.1167 0-2.0021-0.325-2.6562-0.975-0.65-0.65-0.975-1.5292-0.975-2.6375 0-1.1458 0.30833-2.0542 0.925-2.725 0.62083-0.67499 1.4562-1.0125 2.5062-1.0125 0.94166 0.00001 1.6854 0.30418 2.2312 0.9125 0.55 0.60418 0.825 1.4271 0.825 2.4688m-1.15-0.3375c-0.008-0.62916-0.18542-1.1312-0.53125-1.5062-0.34167-0.37499-0.79584-0.56249-1.3625-0.5625-0.64167 0.00001-1.1562 0.18126-1.5438 0.54375-0.38333 0.36251-0.60417 0.87292-0.6625 1.5312l4.1-0.006m-1.1062-6.1125h1.2438l-2.0375 2.35h-0.95625l1.75-2.35"/>
  <path id="path3083" style="" d="m511.36 260.8v1.0875c-0.325-0.16666-0.6625-0.29166-1.0125-0.375-0.35-0.0833-0.7125-0.12499-1.0875-0.125-0.57083 0.00001-1 0.0875-1.2875 0.2625-0.28333 0.17501-0.425 0.43751-0.425 0.7875 0 0.26667 0.10208 0.47709 0.30625 0.63125 0.20417 0.15001 0.61458 0.29376 1.2312 0.43125l0.39375 0.0875c0.81666 0.17501 1.3958 0.42292 1.7375 0.74375 0.34583 0.31667 0.51875 0.76042 0.51875 1.3312 0 0.65-0.25834 1.1646-0.775 1.5438-0.5125 0.37917-1.2188 0.56875-2.1188 0.56875-0.375 0-0.76667-0.0375-1.175-0.1125-0.40417-0.0708-0.83125-0.17916-1.2812-0.325v-1.1875c0.425 0.22084 0.84375 0.3875 1.2562 0.5 0.4125 0.10834 0.82083 0.1625 1.225 0.1625 0.54167 0 0.95833-0.0917 1.25-0.275 0.29166-0.1875 0.4375-0.45 0.4375-0.7875 0-0.31249-0.10625-0.55208-0.31875-0.71875-0.20834-0.16666-0.66875-0.32708-1.3812-0.48125l-0.4-0.0937c-0.7125-0.14999-1.2271-0.37916-1.5438-0.6875-0.31667-0.31249-0.475-0.73958-0.475-1.2812 0-0.65832 0.23333-1.1667 0.7-1.525 0.46667-0.35832 1.1292-0.53749 1.9875-0.5375 0.425 0.00001 0.825 0.0313 1.2 0.0937 0.375 0.0625 0.72083 0.15626 1.0375 0.28125"/>
  <path id="path3085" style="" d="m410.7 280.02c0-0.83333-0.17292-1.4792-0.51875-1.9375-0.34167-0.45832-0.82292-0.68749-1.4438-0.6875-0.61667 0.00001-1.0979 0.22918-1.4438 0.6875-0.34166 0.45834-0.5125 1.1042-0.5125 1.9375 0 0.82917 0.17084 1.4729 0.5125 1.9312 0.34583 0.45834 0.82708 0.6875 1.4438 0.6875 0.62083 0 1.1021-0.22916 1.4438-0.6875 0.34583-0.45833 0.51875-1.1021 0.51875-1.9312m1.15 2.7125c0 1.1917-0.26459 2.0771-0.79375 2.6562-0.52917 0.58333-1.3396 0.875-2.4312 0.875-0.40417 0-0.78542-0.0312-1.1438-0.0937-0.35833-0.0583-0.70625-0.15-1.0438-0.275v-1.1188c0.3375 0.18334 0.67084 0.31875 1 0.40625 0.32917 0.0875 0.66458 0.13125 1.0062 0.13125 0.75417 0 1.3188-0.19792 1.6938-0.59375 0.375-0.39166 0.5625-0.98541 0.5625-1.7812v-0.56875c-0.2375 0.4125-0.54167 0.72084-0.9125 0.925-0.37083 0.20417-0.81458 0.30625-1.3312 0.30625-0.85833 0-1.55-0.32708-2.075-0.98125-0.525-0.65416-0.7875-1.5208-0.7875-2.6 0-1.0833 0.2625-1.9521 0.7875-2.6062 0.525-0.65416 1.2167-0.98124 2.075-0.98125 0.51667 0.00001 0.96042 0.10209 1.3312 0.30625 0.37083 0.20418 0.675 0.51251 0.9125 0.925v-1.0625h1.15v6.1312"/>
  <path id="path3087" style="" d="m416.93 277.4c-0.61667 0.00001-1.1042 0.24168-1.4625 0.725-0.35833 0.47917-0.5375 1.1375-0.5375 1.975 0 0.83751 0.17709 1.4979 0.53125 1.9812 0.35833 0.47917 0.84792 0.71875 1.4688 0.71875 0.6125 0 1.0979-0.24166 1.4562-0.725 0.35833-0.48333 0.5375-1.1417 0.5375-1.975 0-0.82916-0.17917-1.4854-0.5375-1.9688-0.35833-0.48749-0.84375-0.73124-1.4562-0.73125m0-0.975c1 0.00001 1.7854 0.32501 2.3562 0.975 0.57083 0.65001 0.85625 1.55 0.85625 2.7 0 1.1458-0.28542 2.0458-0.85625 2.7-0.57083 0.65-1.3562 0.975-2.3562 0.975-1.0042 0-1.7917-0.325-2.3625-0.975-0.56666-0.65416-0.85-1.5542-0.85-2.7 0-1.15 0.28334-2.05 0.85-2.7 0.57084-0.64999 1.3583-0.97499 2.3625-0.975"/>
  <path id="path3089" style="" d="m422.05 273.87h1.15v9.725h-1.15v-9.725"/>
  <path id="path3091" style="" d="m428.51 284.25c-0.325 0.83334-0.64167 1.3771-0.95 1.6312-0.30833 0.25417-0.72083 0.38125-1.2375 0.38125h-0.91875v-0.9625h0.675c0.31667 0 0.5625-0.075 0.7375-0.225s0.36875-0.50416 0.58125-1.0625l0.20625-0.525-2.8312-6.8875h1.2188l2.1875 5.475 2.1875-5.475h1.2188l-3.075 7.65"/>
  <path id="path3093" style="" d="m435.88 277.4c-0.61667 0.00001-1.1042 0.24168-1.4625 0.725-0.35833 0.47917-0.5375 1.1375-0.5375 1.975 0 0.83751 0.17709 1.4979 0.53125 1.9812 0.35834 0.47917 0.84792 0.71875 1.4688 0.71875 0.61249 0 1.0979-0.24166 1.4562-0.725 0.35832-0.48333 0.53749-1.1417 0.5375-1.975-0.00001-0.82916-0.17918-1.4854-0.5375-1.9688-0.35834-0.48749-0.84376-0.73124-1.4562-0.73125m0-0.975c0.99999 0.00001 1.7854 0.32501 2.3562 0.975 0.57082 0.65001 0.85624 1.55 0.85625 2.7-0.00001 1.1458-0.28543 2.0458-0.85625 2.7-0.57084 0.65-1.3563 0.975-2.3562 0.975-1.0042 0-1.7917-0.325-2.3625-0.975-0.56666-0.65416-0.85-1.5542-0.85-2.7 0-1.15 0.28334-2.05 0.85-2.7 0.57084-0.64999 1.3583-0.97499 2.3625-0.975m0.86875-3.0688h1.2438l-2.0375 2.35h-0.95625l1.75-2.35"/>
  <path id="path3095" style="" d="m450.52 277.94c0.28749-0.51666 0.63124-0.89791 1.0312-1.1438 0.39999-0.24582 0.87082-0.36874 1.4125-0.36875 0.72915 0.00001 1.2916 0.25626 1.6875 0.76875 0.39582 0.50834 0.59374 1.2333 0.59375 2.175v4.225h-1.1562v-4.1875c-0.00001-0.67083-0.11876-1.1687-0.35625-1.4938-0.23751-0.32499-0.60001-0.48749-1.0875-0.4875-0.59584 0.00001-1.0667 0.19793-1.4125 0.59375-0.34584 0.39584-0.51876 0.93542-0.51875 1.6188v3.9562h-1.1562v-4.1875c-0.00001-0.67499-0.11876-1.1729-0.35625-1.4938-0.23751-0.32499-0.60417-0.48749-1.1-0.4875-0.58751 0.00001-1.0542 0.20001-1.4 0.6-0.34584 0.39584-0.51876 0.93334-0.51875 1.6125v3.9562h-1.1562v-7h1.1562v1.0875c0.26249-0.42916 0.57708-0.74582 0.94375-0.95 0.36666-0.20416 0.80208-0.30624 1.3062-0.30625 0.50832 0.00001 0.93957 0.12918 1.2938 0.3875 0.35832 0.25834 0.62291 0.63334 0.79375 1.125"/>
  <path id="path3097" style="" d="m463.53 279.81v0.5625h-5.2875c0.05 0.79167 0.2875 1.3958 0.7125 1.8125 0.42917 0.4125 1.025 0.61875 1.7875 0.61875 0.44166 0 0.86874-0.0542 1.2812-0.1625 0.41666-0.10833 0.82916-0.27083 1.2375-0.4875v1.0875c-0.41251 0.175-0.83543 0.30834-1.2688 0.4-0.43334 0.0917-0.87293 0.1375-1.3188 0.1375-1.1167 0-2.0021-0.325-2.6563-0.975-0.65-0.65-0.975-1.5292-0.975-2.6375 0-1.1458 0.30834-2.0542 0.925-2.725 0.62084-0.67499 1.4562-1.0125 2.5063-1.0125 0.94166 0.00001 1.6854 0.30418 2.2312 0.9125 0.54999 0.60418 0.82499 1.4271 0.825 2.4688m-1.15-0.3375c-0.008-0.62916-0.18543-1.1312-0.53125-1.5062-0.34168-0.37499-0.79584-0.56249-1.3625-0.5625-0.64168 0.00001-1.1563 0.18126-1.5438 0.54375-0.38333 0.36251-0.60416 0.87292-0.6625 1.5312l4.1-0.006"/>
  <path id="path3099" style="" d="m470.03 280.02c-0.00001-0.83333-0.17293-1.4792-0.51875-1.9375-0.34168-0.45832-0.82293-0.68749-1.4438-0.6875-0.61667 0.00001-1.0979 0.22918-1.4438 0.6875-0.34166 0.45834-0.5125 1.1042-0.5125 1.9375 0 0.82917 0.17084 1.4729 0.5125 1.9312 0.34584 0.45834 0.82709 0.6875 1.4438 0.6875 0.62082 0 1.1021-0.22916 1.4438-0.6875 0.34582-0.45833 0.51874-1.1021 0.51875-1.9312m1.15 2.7125c-0.00001 1.1917-0.26459 2.0771-0.79375 2.6562-0.52918 0.58333-1.3396 0.875-2.4312 0.875-0.40417 0-0.78542-0.0312-1.1438-0.0937-0.35833-0.0583-0.70625-0.15-1.0438-0.275v-1.1188c0.3375 0.18334 0.67084 0.31875 1 0.40625 0.32917 0.0875 0.66459 0.13125 1.0063 0.13125 0.75416 0 1.3187-0.19792 1.6938-0.59375 0.37499-0.39166 0.56249-0.98541 0.5625-1.7812v-0.56875c-0.23751 0.4125-0.54168 0.72084-0.9125 0.925-0.37084 0.20417-0.81459 0.30625-1.3312 0.30625-0.85834 0-1.55-0.32708-2.075-0.98125-0.525-0.65416-0.7875-1.5208-0.7875-2.6 0-1.0833 0.2625-1.9521 0.7875-2.6062 0.525-0.65416 1.2167-0.98124 2.075-0.98125 0.51666 0.00001 0.96041 0.10209 1.3312 0.30625 0.37082 0.20418 0.67499 0.51251 0.9125 0.925v-1.0625h1.15v6.1312"/>
  <path id="path3101" style="" d="m473.55 273.87h1.15v9.725h-1.15v-9.725"/>
  <path id="path3103" style="" d="m479.81 277.4c-0.61667 0.00001-1.1042 0.24168-1.4625 0.725-0.35833 0.47917-0.5375 1.1375-0.5375 1.975 0 0.83751 0.17709 1.4979 0.53125 1.9812 0.35833 0.47917 0.84792 0.71875 1.4688 0.71875 0.6125 0 1.0979-0.24166 1.4562-0.725 0.35833-0.48333 0.5375-1.1417 0.5375-1.975 0-0.82916-0.17917-1.4854-0.5375-1.9688-0.35833-0.48749-0.84375-0.73124-1.4562-0.73125m0-0.975c1 0.00001 1.7854 0.32501 2.3562 0.975 0.57083 0.65001 0.85625 1.55 0.85625 2.7 0 1.1458-0.28542 2.0458-0.85625 2.7-0.57083 0.65-1.3562 0.975-2.3562 0.975-1.0042 0-1.7917-0.325-2.3625-0.975-0.56666-0.65416-0.85-1.5542-0.85-2.7 0-1.15 0.28334-2.05 0.85-2.7 0.57084-0.64999 1.3583-0.97499 2.3625-0.975m0.5875-2.5312h1.2688v1.2625h-1.2688v-1.2625m-2.4438 0h1.2688v1.2625h-1.2688v-1.2625"/>
  <path id="path3105" style="" d="m484.88 273.87h1.1562v5.7438l3.4312-3.0188h1.4688l-3.7125 3.275 3.8688 3.725h-1.5l-3.5562-3.4188v3.4188h-1.1562v-9.725"/>
  <path id="path3107" style="" d="m497.88 279.81v0.5625h-5.2875c0.05 0.79167 0.2875 1.3958 0.7125 1.8125 0.42916 0.4125 1.025 0.61875 1.7875 0.61875 0.44166 0 0.86874-0.0542 1.2812-0.1625 0.41666-0.10833 0.82916-0.27083 1.2375-0.4875v1.0875c-0.41251 0.175-0.83542 0.30834-1.2688 0.4-0.43334 0.0917-0.87292 0.1375-1.3188 0.1375-1.1167 0-2.0021-0.325-2.6562-0.975-0.65-0.65-0.975-1.5292-0.975-2.6375 0-1.1458 0.30833-2.0542 0.925-2.725 0.62083-0.67499 1.4562-1.0125 2.5062-1.0125 0.94166 0.00001 1.6854 0.30418 2.2312 0.9125 0.54999 0.60418 0.82499 1.4271 0.825 2.4688m-1.15-0.3375c-0.008-0.62916-0.18542-1.1312-0.53125-1.5062-0.34167-0.37499-0.79584-0.56249-1.3625-0.5625-0.64167 0.00001-1.1562 0.18126-1.5438 0.54375-0.38334 0.36251-0.60417 0.87292-0.6625 1.5312l4.1-0.006m-1.1062-6.1125h1.2438l-2.0375 2.35h-0.95625l1.75-2.35"/>
  <path id="path3109" style="" d="m504.23 276.8v1.0875c-0.32501-0.16666-0.66251-0.29166-1.0125-0.375-0.35001-0.0833-0.71251-0.12499-1.0875-0.125-0.57084 0.00001-1 0.0875-1.2875 0.2625-0.28334 0.17501-0.425 0.43751-0.425 0.7875 0 0.26667 0.10208 0.47709 0.30625 0.63125 0.20416 0.15001 0.61458 0.29376 1.2312 0.43125l0.39375 0.0875c0.81666 0.17501 1.3958 0.42292 1.7375 0.74375 0.34583 0.31667 0.51874 0.76042 0.51875 1.3312-0.00001 0.65-0.25834 1.1646-0.775 1.5438-0.51251 0.37917-1.2188 0.56875-2.1188 0.56875-0.375 0-0.76667-0.0375-1.175-0.1125-0.40417-0.0708-0.83125-0.17916-1.2812-0.325v-1.1875c0.425 0.22084 0.84375 0.3875 1.2562 0.5 0.4125 0.10834 0.82083 0.1625 1.225 0.1625 0.54166 0 0.95833-0.0917 1.25-0.275 0.29166-0.1875 0.43749-0.45 0.4375-0.7875-0.00001-0.31249-0.10626-0.55208-0.31875-0.71875-0.20834-0.16666-0.66876-0.32708-1.3812-0.48125l-0.4-0.0937c-0.7125-0.14999-1.2271-0.37916-1.5438-0.6875-0.31667-0.31249-0.475-0.73958-0.475-1.2812 0-0.65832 0.23333-1.1667 0.7-1.525 0.46666-0.35832 1.1292-0.53749 1.9875-0.5375 0.42499 0.00001 0.82499 0.0313 1.2 0.0937 0.37499 0.0625 0.72083 0.15626 1.0375 0.28125"/>
  <path id="path3111" style="" d="m512.43 279.81v0.5625h-5.2875c0.05 0.79167 0.2875 1.3958 0.7125 1.8125 0.42917 0.4125 1.025 0.61875 1.7875 0.61875 0.44167 0 0.86875-0.0542 1.2812-0.1625 0.41666-0.10833 0.82916-0.27083 1.2375-0.4875v1.0875c-0.4125 0.175-0.83542 0.30834-1.2688 0.4-0.43333 0.0917-0.87292 0.1375-1.3188 0.1375-1.1167 0-2.0021-0.325-2.6562-0.975-0.65-0.65-0.975-1.5292-0.975-2.6375 0-1.1458 0.30834-2.0542 0.925-2.725 0.62084-0.67499 1.4562-1.0125 2.5062-1.0125 0.94167 0.00001 1.6854 0.30418 2.2312 0.9125 0.55 0.60418 0.825 1.4271 0.825 2.4688m-1.15-0.3375c-0.008-0.62916-0.18542-1.1312-0.53125-1.5062-0.34167-0.37499-0.79583-0.56249-1.3625-0.5625-0.64167 0.00001-1.1562 0.18126-1.5438 0.54375-0.38333 0.36251-0.60416 0.87292-0.6625 1.5312l4.1-0.006"/>
 </g>
</svg>
