<?xml version="1.0" encoding="UTF-8" standalone="no"?>
<!-- Created with Inkscape (http://www.inkscape.org/) -->
<svg id="svg2" xmlns:rdf="http://www.w3.org/1999/02/22-rdf-syntax-ns#" xmlns="http://www.w3.org/2000/svg" height="327.08" width="991.1" version="1.1" xmlns:cc="http://creativecommons.org/ns#" xmlns:dc="http://purl.org/dc/elements/1.1/" viewBox="285 148 550.42856 170.77077">
 <metadata id="metadata136">
  <rdf:RDF>
   <cc:Work rdf:about="">
    <dc:format>image/svg+xml</dc:format>
    <dc:type rdf:resource="http://purl.org/dc/dcmitype/StillImage"/>
   </cc:Work>
  </rdf:RDF>
 </metadata>
 <g id="g4" transform="translate(-.093310 -8.4521)">
  <path id="ellipse6" fill="#7babe3" d="m380 240c0 22.091-17.909 40-40 40s-40-17.909-40-40 17.909-40 40-40 40 17.909 40 40z"/>
  <path id="ellipse8" d="m380 240c0 22.091-17.909 40-40 40s-40-17.909-40-40 17.909-40 40-40 40 17.909 40 40z" stroke="#000" stroke-width="2" fill="none"/>
  <g id="text10">
   <path id="path3049" style="" d="m326.68 229.11v1.0875c-0.32501-0.16666-0.66251-0.29166-1.0125-0.375-0.35-0.0833-0.7125-0.12499-1.0875-0.125-0.57084 0.00001-1 0.0875-1.2875 0.2625-0.28334 0.17501-0.425 0.43751-0.425 0.7875 0 0.26668 0.10208 0.47709 0.30625 0.63125 0.20416 0.15001 0.61458 0.29376 1.2312 0.43125l0.39375 0.0875c0.81666 0.17501 1.3958 0.42292 1.7375 0.74375 0.34583 0.31667 0.51874 0.76042 0.51875 1.3312-0.00001 0.65001-0.25834 1.1646-0.775 1.5438-0.5125 0.37917-1.2188 0.56875-2.1188 0.56875-0.375 0-0.76667-0.0375-1.175-0.1125-0.40417-0.0708-0.83125-0.17916-1.2812-0.325v-1.1875c0.425 0.22084 0.84375 0.3875 1.2562 0.5 0.4125 0.10834 0.82083 0.1625 1.225 0.1625 0.54166 0 0.95833-0.0917 1.25-0.275 0.29166-0.18749 0.43749-0.44999 0.4375-0.7875-0.00001-0.31249-0.10625-0.55208-0.31875-0.71875-0.20834-0.16666-0.66875-0.32708-1.3812-0.48125l-0.4-0.0937c-0.7125-0.14999-1.2271-0.37916-1.5438-0.6875-0.31667-0.31249-0.475-0.73957-0.475-1.2812 0-0.65832 0.23333-1.1667 0.7-1.525 0.46666-0.35832 1.1292-0.53749 1.9875-0.5375 0.425 0.00001 0.825 0.0313 1.2 0.0937 0.37499 0.0625 0.72083 0.15626 1.0375 0.28125"/>
   <path id="path3051" style="" d="m328.39 228.9h5.4625v1.05l-4.325 5.0312h4.325v0.91875h-5.6188v-1.05l4.325-5.0312h-4.1688v-0.91875"/>
   <path id="path3053" style="" d="m335.62 228.9h1.15v7h-1.15v-7m0-2.725h1.15v1.4562h-1.15v-1.4562"/>
   <path id="path3055" style="" d="m344.99 231.67v4.225h-1.15v-4.1875c-0.00001-0.66249-0.12917-1.1583-0.3875-1.4875-0.25834-0.32916-0.64584-0.49374-1.1625-0.49375-0.62084 0.00001-1.1104 0.19793-1.4688 0.59375-0.35834 0.39584-0.5375 0.93543-0.5375 1.6188v3.9562h-1.1562v-7h1.1562v1.0875c0.275-0.42082 0.59791-0.73541 0.96875-0.94375 0.375-0.20832 0.80625-0.31249 1.2938-0.3125 0.80416 0.00001 1.4125 0.25001 1.825 0.75 0.41249 0.49584 0.61874 1.2271 0.61875 2.1938"/>
   <path id="path3057" style="" d="m348.43 226.91v1.9875h2.3688v0.89375h-2.3688v3.8c0 0.57084 0.0771 0.93751 0.23125 1.1 0.15833 0.1625 0.47708 0.24375 0.95625 0.24375h1.1812v0.9625h-1.1812c-0.8875 0-1.5-0.16458-1.8375-0.49375-0.3375-0.33333-0.50625-0.93749-0.50625-1.8125v-3.8h-0.84375v-0.89375h0.84375v-1.9875h1.1562"/>
   <path id="path3059" style="" d="m358.31 232.11v0.5625h-5.2875c0.05 0.79167 0.2875 1.3958 0.7125 1.8125 0.42916 0.4125 1.025 0.61875 1.7875 0.61875 0.44166 0 0.86874-0.0542 1.2812-0.1625 0.41666-0.10833 0.82916-0.27083 1.2375-0.4875v1.0875c-0.41251 0.175-0.83542 0.30834-1.2688 0.4-0.43334 0.0917-0.87292 0.1375-1.3188 0.1375-1.1167 0-2.0021-0.325-2.6562-0.975-0.65-0.64999-0.975-1.5292-0.975-2.6375 0-1.1458 0.30833-2.0542 0.925-2.725 0.62083-0.67499 1.4562-1.0125 2.5062-1.0125 0.94166 0.00001 1.6854 0.30418 2.2312 0.9125 0.54999 0.60418 0.82499 1.4271 0.825 2.4688m-1.15-0.3375c-0.008-0.62916-0.18542-1.1312-0.53125-1.5062-0.34167-0.37499-0.79584-0.56249-1.3625-0.5625-0.64167 0.00001-1.1562 0.18126-1.5438 0.54375-0.38334 0.36251-0.60417 0.87293-0.6625 1.5312l4.1-0.006"/>
   <path id="path3061" style="" d="m324.68 246.24c0.28749-0.51666 0.63124-0.89791 1.0312-1.1438 0.39999-0.24582 0.87082-0.36874 1.4125-0.36875 0.72916 0.00001 1.2917 0.25626 1.6875 0.76875 0.39582 0.50834 0.59374 1.2333 0.59375 2.175v4.225h-1.1562v-4.1875c-0.00001-0.67082-0.11876-1.1687-0.35625-1.4938-0.23751-0.32499-0.60001-0.48749-1.0875-0.4875-0.59584 0.00001-1.0667 0.19793-1.4125 0.59375-0.34584 0.39584-0.51876 0.93543-0.51875 1.6188v3.9562h-1.1562v-4.1875c-0.00001-0.67499-0.11876-1.1729-0.35625-1.4938-0.23751-0.32499-0.60417-0.48749-1.1-0.4875-0.5875 0.00001-1.0542 0.20001-1.4 0.6-0.34584 0.39584-0.51875 0.93334-0.51875 1.6125v3.9562h-1.1562v-7h1.1562v1.0875c0.2625-0.42916 0.57708-0.74582 0.94375-0.95 0.36666-0.20416 0.80208-0.30624 1.3062-0.30625 0.50833 0.00001 0.93958 0.12918 1.2938 0.3875 0.35833 0.25834 0.62291 0.63334 0.79375 1.125"/>
   <path id="path3063" style="" d="m331.71 244.9h1.15v7h-1.15v-7m0-2.725h1.15v1.4562h-1.15v-1.4562"/>
   <path id="path3065" style="" d="m341.08 247.67v4.225h-1.15v-4.1875c-0.00001-0.66249-0.12917-1.1583-0.3875-1.4875-0.25834-0.32916-0.64584-0.49374-1.1625-0.49375-0.62084 0.00001-1.1104 0.19793-1.4688 0.59375-0.35834 0.39584-0.5375 0.93543-0.5375 1.6188v3.9562h-1.1562v-7h1.1562v1.0875c0.275-0.42082 0.59791-0.73541 0.96875-0.94375 0.375-0.20832 0.80625-0.31249 1.2938-0.3125 0.80416 0.00001 1.4125 0.25001 1.825 0.75 0.41249 0.49584 0.61874 1.2271 0.61875 2.1938"/>
   <path id="path3067" style="" d="m347.99 245.96v-3.7875h1.15v9.725h-1.15v-1.05c-0.24167 0.41667-0.54792 0.72709-0.91875 0.93125-0.36667 0.2-0.80834 0.3-1.325 0.3-0.84584 0-1.5354-0.3375-2.0688-1.0125-0.52917-0.67499-0.79375-1.5625-0.79375-2.6625s0.26458-1.9875 0.79375-2.6625c0.53333-0.67499 1.2229-1.0125 2.0688-1.0125 0.51666 0.00001 0.95833 0.10209 1.325 0.30625 0.37083 0.20001 0.67708 0.50834 0.91875 0.925m-3.9188 2.4438c0 0.84584 0.17291 1.5104 0.51875 1.9938 0.35 0.47917 0.82916 0.71875 1.4375 0.71875 0.60833 0 1.0875-0.23958 1.4375-0.71875 0.34999-0.48333 0.52499-1.1479 0.525-1.9938-0.00001-0.84583-0.17501-1.5083-0.525-1.9875-0.35001-0.48332-0.82917-0.72499-1.4375-0.725-0.60834 0.00001-1.0875 0.24168-1.4375 0.725-0.34584 0.47918-0.51875 1.1417-0.51875 1.9875"/>
   <path id="path3069" style="" d="m351.51 244.9h1.15v7h-1.15v-7m0-2.725h1.15v1.4562h-1.15v-1.4562"/>
   <path id="path3071" style="" d="m359.66 248.32c-0.00001-0.83333-0.17292-1.4792-0.51875-1.9375-0.34167-0.45832-0.82292-0.68749-1.4438-0.6875-0.61667 0.00001-1.0979 0.22918-1.4438 0.6875-0.34167 0.45834-0.5125 1.1042-0.5125 1.9375 0 0.82917 0.17083 1.4729 0.5125 1.9312 0.34583 0.45834 0.82708 0.6875 1.4438 0.6875 0.62083 0 1.1021-0.22916 1.4438-0.6875 0.34583-0.45833 0.51874-1.1021 0.51875-1.9312m1.15 2.7125c-0.00001 1.1917-0.26459 2.0771-0.79375 2.6562-0.52917 0.58333-1.3396 0.875-2.4312 0.875-0.40417 0-0.78542-0.0312-1.1438-0.0937-0.35834-0.0583-0.70625-0.15-1.0438-0.275v-1.1188c0.3375 0.18334 0.67083 0.31875 1 0.40625 0.32916 0.0875 0.66458 0.13125 1.0062 0.13125 0.75416 0 1.3188-0.19791 1.6938-0.59375 0.37499-0.39166 0.56249-0.98541 0.5625-1.7812v-0.56875c-0.23751 0.4125-0.54167 0.72084-0.9125 0.925-0.37084 0.20417-0.81459 0.30625-1.3312 0.30625-0.85834 0-1.55-0.32708-2.075-0.98125-0.525-0.65416-0.7875-1.5208-0.7875-2.6 0-1.0833 0.2625-1.9521 0.7875-2.6062 0.525-0.65416 1.2167-0.98124 2.075-0.98125 0.51666 0.00001 0.96041 0.10209 1.3312 0.30625 0.37083 0.20418 0.67499 0.51251 0.9125 0.925v-1.0625h1.15v6.1312"/>
  </g>
 </g>
 <g id="g16" transform="translate(-.093310 -8.4521)">
  <path id="ellipse18" fill="#7babe3" d="m520 240c0 22.091-17.909 40-40 40s-40-17.909-40-40 17.909-40 40-40 40 17.909 40 40z"/>
  <path id="ellipse20" d="m520 240c0 22.091-17.909 40-40 40s-40-17.909-40-40 17.909-40 40-40 40 17.909 40 40z" stroke="#000" stroke-width="2" fill="none"/>
  <g id="text22">
   <path id="path3076" style="" d="m459.72 228.9h1.15v7h-1.15v-7m0-2.725h1.15v1.4562h-1.15v-1.4562"/>
   <path id="path3078" style="" d="m469.09 231.67v4.225h-1.15v-4.1875c-0.00001-0.66249-0.12917-1.1583-0.3875-1.4875-0.25834-0.32916-0.64584-0.49374-1.1625-0.49375-0.62084 0.00001-1.1104 0.19793-1.4688 0.59375-0.35834 0.39584-0.5375 0.93543-0.5375 1.6188v3.9562h-1.1562v-7h1.1562v1.0875c0.275-0.42082 0.59791-0.73541 0.96875-0.94375 0.375-0.20832 0.80625-0.31249 1.2938-0.3125 0.80416 0.00001 1.4125 0.25001 1.825 0.75 0.41249 0.49584 0.61874 1.2271 0.61875 2.1938"/>
   <path id="path3080" style="" d="m471.35 226.17h1.1562v5.7438l3.4312-3.0188h1.4688l-3.7125 3.275 3.8688 3.725h-1.5l-3.5562-3.4188v3.4188h-1.1562v-9.725"/>
   <path id="path3082" style="" d="m481.78 232.38c-0.92917 0.00001-1.5729 0.10626-1.9312 0.31875-0.35834 0.21251-0.5375 0.57501-0.5375 1.0875 0 0.40834 0.13333 0.73334 0.4 0.975 0.27083 0.2375 0.6375 0.35625 1.1 0.35625 0.6375 0 1.1479-0.225 1.5312-0.675 0.38749-0.45416 0.58124-1.0562 0.58125-1.8062v-0.25625h-1.1438m2.2938-0.475v3.9938h-1.15v-1.0625c-0.26251 0.425-0.58959 0.73959-0.98125 0.94375-0.39167 0.2-0.87084 0.3-1.4375 0.3-0.71667 0-1.2875-0.2-1.7125-0.6-0.42083-0.40416-0.63125-0.94374-0.63125-1.6188 0-0.78749 0.2625-1.3812 0.7875-1.7812 0.52916-0.39999 1.3167-0.59999 2.3625-0.6h1.6125v-0.1125c-0.00001-0.52916-0.17501-0.93749-0.525-1.225-0.34584-0.29166-0.83334-0.43749-1.4625-0.4375-0.4 0.00001-0.78959 0.0479-1.1688 0.14375-0.37917 0.0958-0.74375 0.23959-1.0938 0.43125v-1.0625c0.42083-0.16249 0.82916-0.28332 1.225-0.3625 0.39583-0.0833 0.78125-0.12499 1.1562-0.125 1.0125 0.00001 1.7687 0.26251 2.2688 0.7875 0.49999 0.52501 0.74999 1.3208 0.75 2.3875m-2.1-6.2438h1.2438l-2.0375 2.35h-0.95625l1.75-2.35"/>
   <path id="path3084" style="" d="m491.47 232.41c-0.00001-0.84583-0.17501-1.5083-0.525-1.9875-0.34584-0.48332-0.82292-0.72499-1.4312-0.725-0.60834 0.00001-1.0875 0.24168-1.4375 0.725-0.34584 0.47918-0.51875 1.1417-0.51875 1.9875 0 0.84584 0.17291 1.5104 0.51875 1.9938 0.35 0.47917 0.82916 0.71875 1.4375 0.71875 0.60833 0 1.0854-0.23958 1.4312-0.71875 0.34999-0.48333 0.52499-1.1479 0.525-1.9938m-3.9125-2.4438c0.24166-0.41666 0.54583-0.72499 0.9125-0.925 0.37083-0.20416 0.8125-0.30624 1.325-0.30625 0.84999 0.00001 1.5396 0.33751 2.0688 1.0125 0.53333 0.67501 0.79999 1.5625 0.8 2.6625-0.00001 1.1-0.26667 1.9875-0.8 2.6625-0.52917 0.675-1.2188 1.0125-2.0688 1.0125-0.5125 0-0.95417-0.1-1.325-0.3-0.36667-0.20416-0.67084-0.51458-0.9125-0.93125v1.05h-1.1562v-9.725h1.1562v3.7875"/>
   <path id="path3086" style="" d="m499.59 232.41c-0.00001-0.84583-0.17501-1.5083-0.525-1.9875-0.34584-0.48332-0.82292-0.72499-1.4312-0.725-0.60834 0.00001-1.0875 0.24168-1.4375 0.725-0.34584 0.47918-0.51875 1.1417-0.51875 1.9875 0 0.84584 0.17291 1.5104 0.51875 1.9938 0.35 0.47917 0.82916 0.71875 1.4375 0.71875 0.60833 0 1.0854-0.23958 1.4312-0.71875 0.34999-0.48333 0.52499-1.1479 0.525-1.9938m-3.9125-2.4438c0.24166-0.41666 0.54583-0.72499 0.9125-0.925 0.37083-0.20416 0.81249-0.30624 1.325-0.30625 0.84999 0.00001 1.5396 0.33751 2.0688 1.0125 0.53332 0.67501 0.79999 1.5625 0.8 2.6625-0.00001 1.1-0.26668 1.9875-0.8 2.6625-0.52917 0.675-1.2188 1.0125-2.0688 1.0125-0.51251 0-0.95417-0.1-1.325-0.3-0.36667-0.20416-0.67084-0.51458-0.9125-0.93125v1.05h-1.1562v-9.725h1.1562v3.7875"/>
   <path id="path3088" style="" d="m467.37 244.9h1.15v7h-1.15v-7m0-2.725h1.15v1.4562h-1.15v-1.4562"/>
   <path id="path3090" style="" d="m475.52 248.32c-0.00001-0.83333-0.17292-1.4792-0.51875-1.9375-0.34167-0.45832-0.82292-0.68749-1.4438-0.6875-0.61667 0.00001-1.0979 0.22918-1.4438 0.6875-0.34167 0.45834-0.5125 1.1042-0.5125 1.9375 0 0.82917 0.17083 1.4729 0.5125 1.9312 0.34583 0.45834 0.82708 0.6875 1.4438 0.6875 0.62083 0 1.1021-0.22916 1.4438-0.6875 0.34583-0.45833 0.51874-1.1021 0.51875-1.9312m1.15 2.7125c-0.00001 1.1917-0.26459 2.0771-0.79375 2.6562-0.52917 0.58333-1.3396 0.875-2.4312 0.875-0.40417 0-0.78542-0.0312-1.1438-0.0937-0.35834-0.0583-0.70625-0.15-1.0438-0.275v-1.1188c0.3375 0.18334 0.67083 0.31875 1 0.40625 0.32916 0.0875 0.66458 0.13125 1.0062 0.13125 0.75416 0 1.3187-0.19791 1.6938-0.59375 0.37499-0.39166 0.56249-0.98541 0.5625-1.7812v-0.56875c-0.23751 0.4125-0.54167 0.72084-0.9125 0.925-0.37084 0.20417-0.81459 0.30625-1.3312 0.30625-0.85834 0-1.55-0.32708-2.075-0.98125-0.525-0.65416-0.7875-1.5208-0.7875-2.6 0-1.0833 0.2625-1.9521 0.7875-2.6062 0.525-0.65416 1.2167-0.98124 2.075-0.98125 0.51666 0.00001 0.96041 0.10209 1.3312 0.30625 0.37083 0.20418 0.67499 0.51251 0.9125 0.925v-1.0625h1.15v6.1312"/>
   <path id="path3092" style="" d="m485.03 248.11v0.5625h-5.2875c0.05 0.79167 0.2875 1.3958 0.7125 1.8125 0.42916 0.4125 1.025 0.61875 1.7875 0.61875 0.44166 0 0.86874-0.0542 1.2812-0.1625 0.41666-0.10833 0.82916-0.27083 1.2375-0.4875v1.0875c-0.41251 0.175-0.83542 0.30834-1.2688 0.4-0.43334 0.0917-0.87292 0.1375-1.3188 0.1375-1.1167 0-2.0021-0.325-2.6562-0.975-0.65-0.64999-0.975-1.5292-0.975-2.6375 0-1.1458 0.30833-2.0542 0.925-2.725 0.62083-0.67499 1.4562-1.0125 2.5062-1.0125 0.94166 0.00001 1.6854 0.30418 2.2312 0.9125 0.54999 0.60418 0.82499 1.4271 0.825 2.4688m-1.15-0.3375c-0.008-0.62916-0.18542-1.1312-0.53125-1.5062-0.34167-0.37499-0.79584-0.56249-1.3625-0.5625-0.64167 0.00001-1.1562 0.18126-1.5438 0.54375-0.38334 0.36251-0.60417 0.87293-0.6625 1.5312l4.1-0.006"/>
   <path id="path3094" style="" d="m492.74 247.67v4.225h-1.15v-4.1875c-0.00001-0.66249-0.12917-1.1583-0.3875-1.4875-0.25834-0.32916-0.64584-0.49374-1.1625-0.49375-0.62084 0.00001-1.1104 0.19793-1.4688 0.59375-0.35834 0.39584-0.5375 0.93543-0.5375 1.6188v3.9562h-1.1562v-7h1.1562v1.0875c0.275-0.42082 0.59791-0.73541 0.96875-0.94375 0.375-0.20832 0.80624-0.31249 1.2938-0.3125 0.80416 0.00001 1.4125 0.25001 1.825 0.75 0.41249 0.49584 0.61874 1.2271 0.61875 2.1938"/>
  </g>
 </g>
 <g id="g28" transform="translate(-.093310 -8.4521)">
  <path id="ellipse30" fill="#fdfd04" d="m660 240c0 22.091-17.909 40-40 40s-40-17.909-40-40 17.909-40 40-40 40 17.909 40 40z"/>
  <path id="ellipse32" d="m660 240c0 22.091-17.909 40-40 40s-40-17.909-40-40 17.909-40 40-40 40 17.909 40 40z" stroke="#000" stroke-width="2" fill="none"/>
  <g id="text34">
   <path id="path3099" style="" d="m599.72 228.9h1.15v7h-1.15v-7m0-2.725h1.15v1.4562h-1.15v-1.4562"/>
   <path id="path3101" style="" d="m609.09 231.67v4.225h-1.15v-4.1875c-0.00001-0.66249-0.12917-1.1583-0.3875-1.4875-0.25834-0.32916-0.64584-0.49374-1.1625-0.49375-0.62084 0.00001-1.1104 0.19793-1.4688 0.59375-0.35834 0.39584-0.5375 0.93543-0.5375 1.6188v3.9562h-1.1562v-7h1.1562v1.0875c0.275-0.42082 0.59791-0.73541 0.96875-0.94375 0.375-0.20832 0.80625-0.31249 1.2938-0.3125 0.80416 0.00001 1.4125 0.25001 1.825 0.75 0.41249 0.49584 0.61874 1.2271 0.61875 2.1938"/>
   <path id="path3103" style="" d="m611.35 226.17h1.1562v5.7438l3.4312-3.0188h1.4688l-3.7125 3.275 3.8688 3.725h-1.5l-3.5562-3.4188v3.4188h-1.1562v-9.725"/>
   <path id="path3105" style="" d="m621.78 232.38c-0.92917 0.00001-1.5729 0.10626-1.9312 0.31875-0.35834 0.21251-0.5375 0.57501-0.5375 1.0875 0 0.40834 0.13333 0.73334 0.4 0.975 0.27083 0.2375 0.6375 0.35625 1.1 0.35625 0.6375 0 1.1479-0.225 1.5312-0.675 0.38749-0.45416 0.58124-1.0562 0.58125-1.8062v-0.25625h-1.1438m2.2938-0.475v3.9938h-1.15v-1.0625c-0.26251 0.425-0.58959 0.73959-0.98125 0.94375-0.39167 0.2-0.87084 0.3-1.4375 0.3-0.71667 0-1.2875-0.2-1.7125-0.6-0.42083-0.40416-0.63125-0.94374-0.63125-1.6188 0-0.78749 0.2625-1.3812 0.7875-1.7812 0.52916-0.39999 1.3167-0.59999 2.3625-0.6h1.6125v-0.1125c-0.00001-0.52916-0.17501-0.93749-0.525-1.225-0.34584-0.29166-0.83334-0.43749-1.4625-0.4375-0.4 0.00001-0.78959 0.0479-1.1688 0.14375-0.37917 0.0958-0.74375 0.23959-1.0938 0.43125v-1.0625c0.42083-0.16249 0.82916-0.28332 1.225-0.3625 0.39583-0.0833 0.78125-0.12499 1.1562-0.125 1.0125 0.00001 1.7687 0.26251 2.2688 0.7875 0.49999 0.52501 0.74999 1.3208 0.75 2.3875m-2.1-6.2438h1.2438l-2.0375 2.35h-0.95625l1.75-2.35"/>
   <path id="path3107" style="" d="m631.47 232.41c-0.00001-0.84583-0.17501-1.5083-0.525-1.9875-0.34584-0.48332-0.82292-0.72499-1.4312-0.725-0.60834 0.00001-1.0875 0.24168-1.4375 0.725-0.34584 0.47918-0.51875 1.1417-0.51875 1.9875 0 0.84584 0.17291 1.5104 0.51875 1.9938 0.35 0.47917 0.82916 0.71875 1.4375 0.71875 0.60833 0 1.0854-0.23958 1.4312-0.71875 0.34999-0.48333 0.52499-1.1479 0.525-1.9938m-3.9125-2.4438c0.24166-0.41666 0.54583-0.72499 0.9125-0.925 0.37083-0.20416 0.8125-0.30624 1.325-0.30625 0.84999 0.00001 1.5396 0.33751 2.0688 1.0125 0.53333 0.67501 0.79999 1.5625 0.8 2.6625-0.00001 1.1-0.26667 1.9875-0.8 2.6625-0.52917 0.675-1.2188 1.0125-2.0688 1.0125-0.5125 0-0.95417-0.1-1.325-0.3-0.36667-0.20416-0.67084-0.51458-0.9125-0.93125v1.05h-1.1562v-9.725h1.1562v3.7875"/>
   <path id="path3109" style="" d="m639.59 232.41c-0.00001-0.84583-0.17501-1.5083-0.525-1.9875-0.34584-0.48332-0.82292-0.72499-1.4312-0.725-0.60834 0.00001-1.0875 0.24168-1.4375 0.725-0.34584 0.47918-0.51875 1.1417-0.51875 1.9875 0 0.84584 0.17291 1.5104 0.51875 1.9938 0.35 0.47917 0.82916 0.71875 1.4375 0.71875 0.60833 0 1.0854-0.23958 1.4312-0.71875 0.34999-0.48333 0.52499-1.1479 0.525-1.9938m-3.9125-2.4438c0.24166-0.41666 0.54583-0.72499 0.9125-0.925 0.37083-0.20416 0.81249-0.30624 1.325-0.30625 0.84999 0.00001 1.5396 0.33751 2.0688 1.0125 0.53332 0.67501 0.79999 1.5625 0.8 2.6625-0.00001 1.1-0.26668 1.9875-0.8 2.6625-0.52917 0.675-1.2188 1.0125-2.0688 1.0125-0.51251 0-0.95417-0.1-1.325-0.3-0.36667-0.20416-0.67084-0.51458-0.9125-0.93125v1.05h-1.1562v-9.725h1.1562v3.7875"/>
   <path id="path3111" style="" d="m612.79 247.67v4.225h-1.15v-4.1875c-0.00001-0.66249-0.12917-1.1583-0.3875-1.4875-0.25834-0.32916-0.64584-0.49374-1.1625-0.49375-0.62084 0.00001-1.1104 0.19793-1.4688 0.59375-0.35834 0.39584-0.5375 0.93543-0.5375 1.6188v3.9562h-1.1562v-7h1.1562v1.0875c0.275-0.42082 0.59791-0.73541 0.96875-0.94375 0.375-0.20832 0.80625-0.31249 1.2938-0.3125 0.80416 0.00001 1.4125 0.25001 1.825 0.75 0.41249 0.49584 0.61874 1.2271 0.61875 2.1938"/>
   <path id="path3113" style="" d="m621.08 248.11v0.5625h-5.2875c0.05 0.79167 0.2875 1.3958 0.7125 1.8125 0.42916 0.4125 1.025 0.61875 1.7875 0.61875 0.44166 0 0.86874-0.0542 1.2812-0.1625 0.41666-0.10833 0.82916-0.27083 1.2375-0.4875v1.0875c-0.41251 0.175-0.83542 0.30834-1.2688 0.4-0.43334 0.0917-0.87292 0.1375-1.3188 0.1375-1.1167 0-2.0021-0.325-2.6562-0.975-0.65-0.64999-0.975-1.5292-0.975-2.6375 0-1.1458 0.30833-2.0542 0.925-2.725 0.62083-0.67499 1.4562-1.0125 2.5062-1.0125 0.94166 0.00001 1.6854 0.30418 2.2312 0.9125 0.54999 0.60418 0.82499 1.4271 0.825 2.4688m-1.15-0.3375c-0.008-0.62916-0.18542-1.1312-0.53125-1.5062-0.34167-0.37499-0.79584-0.56249-1.3625-0.5625-0.64167 0.00001-1.1562 0.18126-1.5438 0.54375-0.38334 0.36251-0.60417 0.87293-0.6625 1.5312l4.1-0.006"/>
   <path id="path3115" style="" d="m628.42 246.24c0.28749-0.51666 0.63124-0.89791 1.0312-1.1438 0.39999-0.24582 0.87082-0.36874 1.4125-0.36875 0.72916 0.00001 1.2917 0.25626 1.6875 0.76875 0.39582 0.50834 0.59374 1.2333 0.59375 2.175v4.225h-1.1562v-4.1875c-0.00001-0.67082-0.11876-1.1687-0.35625-1.4938-0.23751-0.32499-0.60001-0.48749-1.0875-0.4875-0.59584 0.00001-1.0667 0.19793-1.4125 0.59375-0.34584 0.39584-0.51876 0.93543-0.51875 1.6188v3.9562h-1.1562v-4.1875c-0.00001-0.67499-0.11876-1.1729-0.35625-1.4938-0.23751-0.32499-0.60417-0.48749-1.1-0.4875-0.5875 0.00001-1.0542 0.20001-1.4 0.6-0.34584 0.39584-0.51875 0.93334-0.51875 1.6125v3.9562h-1.1562v-7h1.1562v1.0875c0.2625-0.42916 0.57708-0.74582 0.94375-0.95 0.36666-0.20416 0.80208-0.30624 1.3062-0.30625 0.50833 0.00001 0.93958 0.12918 1.2938 0.3875 0.35833 0.25834 0.62291 0.63334 0.79375 1.125"/>
  </g>
 </g>
 <g id="g40" transform="translate(-.093310 -8.4521)">
  <path id="ellipse42" fill="#fdfd04" d="m800 240c0 22.091-17.909 40-40 40s-40-17.909-40-40 17.909-40 40-40 40 17.909 40 40z"/>
  <path id="ellipse44" d="m800 240c0 22.091-17.909 40-40 40s-40-17.909-40-40 17.909-40 40-40 40 17.909 40 40z" stroke="#000" stroke-width="2" fill="none"/>
  <g id="text46">
   <path id="path3120" style="" d="m746.68 229.11v1.0875c-0.32501-0.16666-0.66251-0.29166-1.0125-0.375-0.35-0.0833-0.7125-0.12499-1.0875-0.125-0.57084 0.00001-1 0.0875-1.2875 0.2625-0.28334 0.17501-0.425 0.43751-0.425 0.7875 0 0.26668 0.10208 0.47709 0.30625 0.63125 0.20416 0.15001 0.61458 0.29376 1.2312 0.43125l0.39375 0.0875c0.81666 0.17501 1.3958 0.42292 1.7375 0.74375 0.34583 0.31667 0.51874 0.76042 0.51875 1.3312-0.00001 0.65001-0.25834 1.1646-0.775 1.5438-0.5125 0.37917-1.2188 0.56875-2.1188 0.56875-0.375 0-0.76667-0.0375-1.175-0.1125-0.40417-0.0708-0.83125-0.17916-1.2812-0.325v-1.1875c0.425 0.22084 0.84375 0.3875 1.2562 0.5 0.4125 0.10834 0.82083 0.1625 1.225 0.1625 0.54166 0 0.95833-0.0917 1.25-0.275 0.29166-0.18749 0.43749-0.44999 0.4375-0.7875-0.00001-0.31249-0.10625-0.55208-0.31875-0.71875-0.20834-0.16666-0.66875-0.32708-1.3812-0.48125l-0.4-0.0937c-0.7125-0.14999-1.2271-0.37916-1.5438-0.6875-0.31667-0.31249-0.475-0.73957-0.475-1.2812 0-0.65832 0.23333-1.1667 0.7-1.525 0.46666-0.35832 1.1292-0.53749 1.9875-0.5375 0.425 0.00001 0.825 0.0313 1.2 0.0937 0.37499 0.0625 0.72083 0.15626 1.0375 0.28125"/>
   <path id="path3122" style="" d="m748.39 228.9h5.4625v1.05l-4.325 5.0312h4.325v0.91875h-5.6188v-1.05l4.325-5.0312h-4.1688v-0.91875"/>
   <path id="path3124" style="" d="m755.62 228.9h1.15v7h-1.15v-7m0-2.725h1.15v1.4562h-1.15v-1.4562"/>
   <path id="path3126" style="" d="m764.99 231.67v4.225h-1.15v-4.1875c-0.00001-0.66249-0.12917-1.1583-0.3875-1.4875-0.25834-0.32916-0.64584-0.49374-1.1625-0.49375-0.62084 0.00001-1.1104 0.19793-1.4688 0.59375-0.35834 0.39584-0.5375 0.93543-0.5375 1.6188v3.9562h-1.1562v-7h1.1562v1.0875c0.275-0.42082 0.59791-0.73541 0.96875-0.94375 0.375-0.20832 0.80625-0.31249 1.2938-0.3125 0.80416 0.00001 1.4125 0.25001 1.825 0.75 0.41249 0.49584 0.61874 1.2271 0.61875 2.1938"/>
   <path id="path3128" style="" d="m768.43 226.91v1.9875h2.3688v0.89375h-2.3688v3.8c0 0.57084 0.0771 0.93751 0.23125 1.1 0.15833 0.1625 0.47708 0.24375 0.95625 0.24375h1.1812v0.9625h-1.1812c-0.8875 0-1.5-0.16458-1.8375-0.49375-0.3375-0.33333-0.50625-0.93749-0.50625-1.8125v-3.8h-0.84375v-0.89375h0.84375v-1.9875h1.1562"/>
   <path id="path3130" style="" d="m778.31 232.11v0.5625h-5.2875c0.05 0.79167 0.2875 1.3958 0.7125 1.8125 0.42916 0.4125 1.025 0.61875 1.7875 0.61875 0.44166 0 0.86874-0.0542 1.2812-0.1625 0.41666-0.10833 0.82916-0.27083 1.2375-0.4875v1.0875c-0.41251 0.175-0.83542 0.30834-1.2688 0.4-0.43334 0.0917-0.87292 0.1375-1.3188 0.1375-1.1167 0-2.0021-0.325-2.6562-0.975-0.65-0.64999-0.975-1.5292-0.975-2.6375 0-1.1458 0.30833-2.0542 0.925-2.725 0.62083-0.67499 1.4562-1.0125 2.5062-1.0125 0.94166 0.00001 1.6854 0.30418 2.2312 0.9125 0.54999 0.60418 0.82499 1.4271 0.825 2.4688m-1.15-0.3375c-0.008-0.62916-0.18542-1.1312-0.53125-1.5062-0.34167-0.37499-0.79584-0.56249-1.3625-0.5625-0.64167 0.00001-1.1562 0.18126-1.5438 0.54375-0.38334 0.36251-0.60417 0.87293-0.6625 1.5312l4.1-0.006"/>
   <path id="path3132" style="" d="m750.43 245.11v1.0875c-0.32501-0.16666-0.66251-0.29166-1.0125-0.375-0.35-0.0833-0.7125-0.12499-1.0875-0.125-0.57084 0.00001-1 0.0875-1.2875 0.2625-0.28334 0.17501-0.425 0.43751-0.425 0.7875 0 0.26668 0.10208 0.47709 0.30625 0.63125 0.20416 0.15001 0.61458 0.29376 1.2312 0.43125l0.39375 0.0875c0.81666 0.17501 1.3958 0.42292 1.7375 0.74375 0.34583 0.31667 0.51874 0.76042 0.51875 1.3312-0.00001 0.65001-0.25834 1.1646-0.775 1.5438-0.5125 0.37917-1.2188 0.56875-2.1188 0.56875-0.375 0-0.76667-0.0375-1.175-0.1125-0.40417-0.0708-0.83125-0.17916-1.2812-0.325v-1.1875c0.425 0.22084 0.84375 0.3875 1.2562 0.5 0.4125 0.10834 0.82083 0.1625 1.225 0.1625 0.54166 0 0.95833-0.0917 1.25-0.275 0.29166-0.18749 0.43749-0.44999 0.4375-0.7875-0.00001-0.31249-0.10625-0.55208-0.31875-0.71875-0.20834-0.16666-0.66875-0.32708-1.3812-0.48125l-0.4-0.0937c-0.7125-0.14999-1.2271-0.37916-1.5438-0.6875-0.31667-0.31249-0.475-0.73957-0.475-1.2812 0-0.65832 0.23333-1.1667 0.7-1.525 0.46666-0.35832 1.1292-0.53749 1.9875-0.5375 0.425 0.00001 0.825 0.0313 1.2 0.0937 0.37499 0.0625 0.72083 0.15626 1.0375 0.28125"/>
   <path id="path3134" style="" d="m755.36 245.71c-0.61667 0.00001-1.1042 0.24168-1.4625 0.725-0.35834 0.47918-0.5375 1.1375-0.5375 1.975 0 0.83751 0.17708 1.4979 0.53125 1.9812 0.35833 0.47917 0.84791 0.71875 1.4688 0.71875 0.6125 0 1.0979-0.24166 1.4562-0.725 0.35833-0.48333 0.53749-1.1417 0.5375-1.975-0.00001-0.82916-0.17917-1.4854-0.5375-1.9688-0.35834-0.48749-0.84375-0.73124-1.4562-0.73125m0-0.975c1 0.00001 1.7854 0.32501 2.3562 0.975 0.57083 0.65001 0.85624 1.55 0.85625 2.7-0.00001 1.1458-0.28542 2.0458-0.85625 2.7-0.57084 0.65-1.3562 0.975-2.3562 0.975-1.0042 0-1.7917-0.325-2.3625-0.975-0.56667-0.65416-0.85-1.5542-0.85-2.7 0-1.15 0.28333-2.05 0.85-2.7 0.57083-0.64999 1.3583-0.97499 2.3625-0.975"/>
   <path id="path3136" style="" d="m766.29 247.67v4.225h-1.15v-4.1875c-0.00001-0.66249-0.12917-1.1583-0.3875-1.4875-0.25834-0.32916-0.64584-0.49374-1.1625-0.49375-0.62084 0.00001-1.1104 0.19793-1.4688 0.59375-0.35834 0.39584-0.5375 0.93543-0.5375 1.6188v3.9562h-1.1562v-9.725h1.1562v3.8125c0.275-0.42082 0.59791-0.73541 0.96875-0.94375 0.375-0.20832 0.80625-0.31249 1.2938-0.3125 0.80416 0.00001 1.4125 0.25001 1.825 0.75 0.41249 0.49584 0.61874 1.2271 0.61875 2.1938"/>
   <path id="path3138" style="" d="m771.78 248.38c-0.92917 0.00001-1.5729 0.10626-1.9312 0.31875-0.35834 0.21251-0.5375 0.57501-0.5375 1.0875 0 0.40834 0.13333 0.73334 0.4 0.975 0.27083 0.2375 0.6375 0.35625 1.1 0.35625 0.6375 0 1.1479-0.225 1.5312-0.675 0.38749-0.45416 0.58124-1.0562 0.58125-1.8062v-0.25625h-1.1438m2.2938-0.475v3.9938h-1.15v-1.0625c-0.26251 0.425-0.58959 0.73959-0.98125 0.94375-0.39167 0.2-0.87084 0.3-1.4375 0.3-0.71667 0-1.2875-0.2-1.7125-0.6-0.42083-0.40416-0.63125-0.94374-0.63125-1.6188 0-0.78749 0.2625-1.3812 0.7875-1.7812 0.52916-0.39999 1.3167-0.59999 2.3625-0.6h1.6125v-0.1125c-0.00001-0.52916-0.17501-0.93749-0.525-1.225-0.34584-0.29166-0.83334-0.43749-1.4625-0.4375-0.4 0.00001-0.78959 0.0479-1.1688 0.14375-0.37917 0.0958-0.74375 0.23959-1.0938 0.43125v-1.0625c0.42083-0.16249 0.82916-0.28332 1.225-0.3625 0.39583-0.0833 0.78125-0.12499 1.1562-0.125 1.0125 0.00001 1.7687 0.26251 2.2688 0.7875 0.49999 0.52501 0.74999 1.3208 0.75 2.3875"/>
  </g>
 </g>
 <g id="g52" stroke="#000" stroke-width="2" fill="none" transform="translate(-.093310 -8.4521)">
  <path id="path54" d="m465.37 197.18a70 70 0 0 0 -113.36 3.618"/>
  <path id="polyline56" d="m456.99 193.46 9.743 5.483-1.459-11.085"/>
 </g>
 <g id="g58" stroke="#000" stroke-width="2" fill="none" transform="translate(-.093310 -8.4521)">
  <path id="path60" d="m605.37 197.18a70 70 0 0 0 -113.36 3.618"/>
  <path id="polyline62" d="m596.99 193.46 9.743 5.483-1.459-11.085"/>
 </g>
 <g id="g64" stroke="#000" stroke-width="2" fill="none" transform="translate(-.093310 -8.4521)">
  <path id="path66" d="m745.37 197.18a70 70 0 0 0 -113.36 3.618"/>
  <path id="polyline68" d="m736.99 193.46 9.743 5.483-1.459-11.085"/>
 </g>
 <g id="g70" stroke="#000" stroke-width="2" fill="none" transform="translate(-.093310 -8.4521)">
  <path id="path72" d="m354.63 282.82a70 70 0 0 0 113.36 -3.618"/>
  <path id="polyline74" d="m363.01 286.54-9.743-5.483 1.459 11.085"/>
 </g>
 <g id="g76" stroke="#000" stroke-width="2" fill="none" transform="translate(-.093310 -8.4521)">
  <path id="path78" d="m494.63 282.82a70 70 0 0 0 113.36 -3.618"/>
  <path id="polyline80" d="m503.01 286.54-9.743-5.483 1.459 11.085"/>
 </g>
 <g id="g82" stroke="#000" stroke-width="2" fill="none" transform="translate(-.093310 -8.4521)">
  <path id="path84" d="m634.63 282.82a70 70 0 0 0 113.36 -3.618"/>
  <path id="polyline86" d="m643.01 286.54-9.743-5.483 1.459 11.085"/>
 </g>
 <g id="text88">
  <path id="path3147" style="" d="m381.1 147.32v4.225h-1.15v-4.1875c0-0.66249-0.12917-1.1583-0.3875-1.4875-0.25834-0.32916-0.64584-0.49374-1.1625-0.49375-0.62084 0.00001-1.1104 0.19792-1.4688 0.59375-0.35833 0.39584-0.5375 0.93542-0.5375 1.6188v3.9562h-1.1562v-7h1.1562v1.0875c0.275-0.42083 0.59792-0.73541 0.96875-0.94375 0.375-0.20832 0.80625-0.31249 1.2938-0.3125 0.80416 0.00001 1.4125 0.25001 1.825 0.75 0.41249 0.49584 0.61874 1.2271 0.61875 2.1938"/>
  <path id="path3149" style="" d="m389.39 147.76v0.5625h-5.2875c0.05 0.79167 0.2875 1.3958 0.7125 1.8125 0.42917 0.4125 1.025 0.61875 1.7875 0.61875 0.44166 0 0.86875-0.0542 1.2812-0.1625 0.41666-0.10833 0.82916-0.27083 1.2375-0.4875v1.0875c-0.4125 0.175-0.83542 0.30834-1.2688 0.4-0.43334 0.0917-0.87292 0.1375-1.3188 0.1375-1.1167 0-2.0021-0.325-2.6562-0.975-0.65-0.65-0.975-1.5292-0.975-2.6375 0-1.1458 0.30833-2.0542 0.925-2.725 0.62083-0.67499 1.4562-1.0125 2.5062-1.0125 0.94166 0.00001 1.6854 0.30418 2.2312 0.9125 0.54999 0.60417 0.82499 1.4271 0.825 2.4688m-1.15-0.3375c-0.008-0.62916-0.18542-1.1312-0.53125-1.5062-0.34167-0.37499-0.79584-0.56249-1.3625-0.5625-0.64167 0.00001-1.1562 0.18126-1.5438 0.54375-0.38333 0.36251-0.60417 0.87292-0.6625 1.5312l4.1-0.006"/>
  <path id="path3151" style="" d="m396.73 145.89c0.28749-0.51666 0.63124-0.89791 1.0312-1.1438 0.39999-0.24582 0.87083-0.36874 1.4125-0.36875 0.72916 0.00001 1.2917 0.25626 1.6875 0.76875 0.39582 0.50834 0.59374 1.2333 0.59375 2.175v4.225h-1.1562v-4.1875c-0.00001-0.67083-0.11876-1.1687-0.35625-1.4938-0.23751-0.32499-0.60001-0.48749-1.0875-0.4875-0.59584 0.00001-1.0667 0.19792-1.4125 0.59375-0.34584 0.39584-0.51876 0.93542-0.51875 1.6188v3.9562h-1.1562v-4.1875c0-0.67499-0.11875-1.1729-0.35625-1.4938-0.2375-0.32499-0.60417-0.48749-1.1-0.4875-0.5875 0.00001-1.0542 0.20001-1.4 0.6-0.34583 0.39584-0.51875 0.93334-0.51875 1.6125v3.9562h-1.1562v-7h1.1562v1.0875c0.2625-0.42916 0.57708-0.74582 0.94375-0.95 0.36666-0.20416 0.80208-0.30624 1.3062-0.30625 0.50833 0.00001 0.93958 0.12918 1.2938 0.3875 0.35833 0.25834 0.62291 0.63334 0.79375 1.125"/>
  <path id="path3153" style="" d="m407.71 148.79v-4.2375h1.15v4.1938c0 0.6625 0.12917 1.1604 0.3875 1.4938 0.25833 0.32917 0.64583 0.49375 1.1625 0.49375 0.62083 0 1.1104-0.19791 1.4688-0.59375 0.3625-0.39583 0.54375-0.93541 0.54375-1.6188v-3.9688h1.15v7h-1.15v-1.075c-0.27917 0.425-0.60417 0.74167-0.975 0.95-0.36667 0.20417-0.79375 0.30625-1.2812 0.30625-0.80417 0-1.4146-0.25-1.8312-0.75-0.41667-0.5-0.625-1.2312-0.625-2.1938m2.8938-4.4062"/>
  <path id="path3155" style="" d="m420.56 147.97c0-0.83333-0.17292-1.4792-0.51875-1.9375-0.34167-0.45833-0.82292-0.68749-1.4438-0.6875-0.61667 0.00001-1.0979 0.22917-1.4438 0.6875-0.34167 0.45834-0.5125 1.1042-0.5125 1.9375 0 0.82917 0.17083 1.4729 0.5125 1.9312 0.34583 0.45834 0.82708 0.6875 1.4438 0.6875 0.62083 0 1.1021-0.22916 1.4438-0.6875 0.34583-0.45833 0.51875-1.1021 0.51875-1.9312m1.15 2.7125c-0.00001 1.1917-0.26459 2.0771-0.79375 2.6562-0.52917 0.58333-1.3396 0.875-2.4312 0.875-0.40417 0-0.78542-0.0312-1.1438-0.0937-0.35833-0.0583-0.70625-0.15-1.0438-0.275v-1.1188c0.3375 0.18333 0.67083 0.31875 1 0.40625 0.32916 0.0875 0.66458 0.13125 1.0062 0.13125 0.75416 0 1.3188-0.19792 1.6938-0.59375 0.375-0.39167 0.5625-0.98541 0.5625-1.7812v-0.56875c-0.2375 0.4125-0.54167 0.72084-0.9125 0.925-0.37084 0.20417-0.81459 0.30625-1.3312 0.30625-0.85834 0-1.55-0.32708-2.075-0.98125-0.525-0.65416-0.7875-1.5208-0.7875-2.6 0-1.0833 0.2625-1.9521 0.7875-2.6062 0.525-0.65416 1.2167-0.98124 2.075-0.98125 0.51666 0.00001 0.96041 0.10209 1.3312 0.30625 0.37083 0.20418 0.675 0.51251 0.9125 0.925v-1.0625h1.15v6.1312"/>
  <path id="path3157" style="" d="m428.13 145.62c-0.12917-0.075-0.27084-0.12916-0.425-0.1625-0.15-0.0375-0.31667-0.0562-0.5-0.0562-0.65 0.00001-1.15 0.21251-1.5 0.6375-0.34583 0.42084-0.51875 1.0271-0.51875 1.8188v3.6875h-1.1562v-7h1.1562v1.0875c0.24167-0.42499 0.55625-0.73957 0.94375-0.94375 0.3875-0.20832 0.85833-0.31249 1.4125-0.3125 0.0792 0.00001 0.16666 0.006 0.2625 0.0187 0.0958 0.008 0.20208 0.0229 0.31875 0.0438l0.006 1.1812"/>
  <path id="path3159" style="" d="m431.78 145.35c-0.61667 0.00001-1.1042 0.24167-1.4625 0.725-0.35833 0.47917-0.5375 1.1375-0.5375 1.975s0.17708 1.4979 0.53125 1.9812c0.35833 0.47917 0.84792 0.71875 1.4688 0.71875 0.6125 0 1.0979-0.24166 1.4562-0.725 0.35833-0.48333 0.5375-1.1417 0.5375-1.975 0-0.82916-0.17917-1.4854-0.5375-1.9688-0.35834-0.48749-0.84375-0.73124-1.4562-0.73125m0-0.975c1 0.00001 1.7854 0.32501 2.3562 0.975 0.57083 0.65001 0.85625 1.55 0.85625 2.7 0 1.1458-0.28542 2.0458-0.85625 2.7-0.57084 0.65-1.3562 0.975-2.3562 0.975-1.0042 0-1.7917-0.325-2.3625-0.975-0.56667-0.65416-0.85-1.5542-0.85-2.7 0-1.15 0.28333-2.05 0.85-2.7 0.57083-0.64999 1.3583-0.97499 2.3625-0.975"/>
  <path id="path3161" style="" d="m438.03 142.56v1.9875h2.3688v0.89375h-2.3688v3.8c0 0.57084 0.0771 0.9375 0.23125 1.1 0.15833 0.1625 0.47708 0.24375 0.95625 0.24375h1.1812v0.9625h-1.1812c-0.8875 0-1.5-0.16458-1.8375-0.49375-0.3375-0.33333-0.50625-0.9375-0.50625-1.8125v-3.8h-0.84375v-0.89375h0.84375v-1.9875h1.1562"/>
  <path id="path3163" style="" d="m443.06 142.56v1.9875h2.3688v0.89375h-2.3688v3.8c0 0.57084 0.0771 0.9375 0.23125 1.1 0.15834 0.1625 0.47709 0.24375 0.95625 0.24375h1.1812v0.9625h-1.1812c-0.8875 0-1.5-0.16458-1.8375-0.49375-0.3375-0.33333-0.50625-0.9375-0.50625-1.8125v-3.8h-0.84375v-0.89375h0.84375v-1.9875h1.1562"/>
 </g>
 <g id="text92">
  <path id="path3166" style="" d="m521.1 147.32v4.225h-1.15v-4.1875c0-0.66249-0.12917-1.1583-0.3875-1.4875-0.25834-0.32916-0.64584-0.49374-1.1625-0.49375-0.62084 0.00001-1.1104 0.19792-1.4688 0.59375-0.35833 0.39584-0.5375 0.93542-0.5375 1.6188v3.9562h-1.1562v-7h1.1562v1.0875c0.275-0.42083 0.59792-0.73541 0.96875-0.94375 0.375-0.20832 0.80625-0.31249 1.2938-0.3125 0.80416 0.00001 1.4125 0.25001 1.825 0.75 0.41249 0.49584 0.61874 1.2271 0.61875 2.1938"/>
  <path id="path3168" style="" d="m529.39 147.76v0.5625h-5.2875c0.05 0.79167 0.2875 1.3958 0.7125 1.8125 0.42917 0.4125 1.025 0.61875 1.7875 0.61875 0.44166 0 0.86875-0.0542 1.2812-0.1625 0.41666-0.10833 0.82916-0.27083 1.2375-0.4875v1.0875c-0.4125 0.175-0.83542 0.30834-1.2688 0.4-0.43334 0.0917-0.87292 0.1375-1.3188 0.1375-1.1167 0-2.0021-0.325-2.6562-0.975-0.65-0.65-0.975-1.5292-0.975-2.6375 0-1.1458 0.30833-2.0542 0.925-2.725 0.62083-0.67499 1.4562-1.0125 2.5062-1.0125 0.94166 0.00001 1.6854 0.30418 2.2312 0.9125 0.54999 0.60417 0.82499 1.4271 0.825 2.4688m-1.15-0.3375c-0.008-0.62916-0.18542-1.1312-0.53125-1.5062-0.34167-0.37499-0.79584-0.56249-1.3625-0.5625-0.64167 0.00001-1.1562 0.18126-1.5438 0.54375-0.38333 0.36251-0.60417 0.87292-0.6625 1.5312l4.1-0.006"/>
  <path id="path3170" style="" d="m536.73 145.89c0.28749-0.51666 0.63124-0.89791 1.0312-1.1438 0.39999-0.24582 0.87083-0.36874 1.4125-0.36875 0.72916 0.00001 1.2917 0.25626 1.6875 0.76875 0.39582 0.50834 0.59374 1.2333 0.59375 2.175v4.225h-1.1562v-4.1875c-0.00001-0.67083-0.11876-1.1687-0.35625-1.4938-0.23751-0.32499-0.60001-0.48749-1.0875-0.4875-0.59584 0.00001-1.0667 0.19792-1.4125 0.59375-0.34584 0.39584-0.51876 0.93542-0.51875 1.6188v3.9562h-1.1562v-4.1875c0-0.67499-0.11875-1.1729-0.35625-1.4938-0.2375-0.32499-0.60417-0.48749-1.1-0.4875-0.5875 0.00001-1.0542 0.20001-1.4 0.6-0.34583 0.39584-0.51875 0.93334-0.51875 1.6125v3.9562h-1.1562v-7h1.1562v1.0875c0.2625-0.42916 0.57708-0.74582 0.94375-0.95 0.36666-0.20416 0.80208-0.30624 1.3062-0.30625 0.50833 0.00001 0.93958 0.12918 1.2938 0.3875 0.35833 0.25834 0.62291 0.63334 0.79375 1.125"/>
  <path id="path3172" style="" d="m547.71 148.79v-4.2375h1.15v4.1938c0 0.6625 0.12917 1.1604 0.3875 1.4938 0.25833 0.32917 0.64583 0.49375 1.1625 0.49375 0.62083 0 1.1104-0.19791 1.4688-0.59375 0.3625-0.39583 0.54375-0.93541 0.54375-1.6188v-3.9688h1.15v7h-1.15v-1.075c-0.27917 0.425-0.60417 0.74167-0.975 0.95-0.36667 0.20417-0.79375 0.30625-1.2812 0.30625-0.80417 0-1.4146-0.25-1.8312-0.75-0.41667-0.5-0.625-1.2312-0.625-2.1938m2.8938-4.4062"/>
  <path id="path3174" style="" d="m560.56 147.97c0-0.83333-0.17292-1.4792-0.51875-1.9375-0.34167-0.45833-0.82292-0.68749-1.4438-0.6875-0.61667 0.00001-1.0979 0.22917-1.4438 0.6875-0.34167 0.45834-0.5125 1.1042-0.5125 1.9375 0 0.82917 0.17083 1.4729 0.5125 1.9312 0.34583 0.45834 0.82708 0.6875 1.4438 0.6875 0.62083 0 1.1021-0.22916 1.4438-0.6875 0.34583-0.45833 0.51875-1.1021 0.51875-1.9312m1.15 2.7125c-0.00001 1.1917-0.26459 2.0771-0.79375 2.6562-0.52917 0.58333-1.3396 0.875-2.4312 0.875-0.40417 0-0.78542-0.0312-1.1438-0.0937-0.35833-0.0583-0.70625-0.15-1.0438-0.275v-1.1188c0.3375 0.18333 0.67083 0.31875 1 0.40625 0.32916 0.0875 0.66458 0.13125 1.0062 0.13125 0.75416 0 1.3188-0.19792 1.6938-0.59375 0.375-0.39167 0.5625-0.98541 0.5625-1.7812v-0.56875c-0.2375 0.4125-0.54167 0.72084-0.9125 0.925-0.37084 0.20417-0.81459 0.30625-1.3312 0.30625-0.85834 0-1.55-0.32708-2.075-0.98125-0.525-0.65416-0.7875-1.5208-0.7875-2.6 0-1.0833 0.2625-1.9521 0.7875-2.6062 0.525-0.65416 1.2167-0.98124 2.075-0.98125 0.51666 0.00001 0.96041 0.10209 1.3312 0.30625 0.37083 0.20418 0.675 0.51251 0.9125 0.925v-1.0625h1.15v6.1312"/>
  <path id="path3176" style="" d="m568.13 145.62c-0.12917-0.075-0.27084-0.12916-0.425-0.1625-0.15-0.0375-0.31667-0.0562-0.5-0.0562-0.65 0.00001-1.15 0.21251-1.5 0.6375-0.34583 0.42084-0.51875 1.0271-0.51875 1.8188v3.6875h-1.1562v-7h1.1562v1.0875c0.24167-0.42499 0.55625-0.73957 0.94375-0.94375 0.3875-0.20832 0.85833-0.31249 1.4125-0.3125 0.0792 0.00001 0.16666 0.006 0.2625 0.0187 0.0958 0.008 0.20208 0.0229 0.31875 0.0438l0.006 1.1812"/>
  <path id="path3178" style="" d="m571.78 145.35c-0.61667 0.00001-1.1042 0.24167-1.4625 0.725-0.35833 0.47917-0.5375 1.1375-0.5375 1.975s0.17708 1.4979 0.53125 1.9812c0.35833 0.47917 0.84792 0.71875 1.4688 0.71875 0.6125 0 1.0979-0.24166 1.4562-0.725 0.35833-0.48333 0.5375-1.1417 0.5375-1.975 0-0.82916-0.17917-1.4854-0.5375-1.9688-0.35834-0.48749-0.84375-0.73124-1.4562-0.73125m0-0.975c1 0.00001 1.7854 0.32501 2.3562 0.975 0.57083 0.65001 0.85625 1.55 0.85625 2.7 0 1.1458-0.28542 2.0458-0.85625 2.7-0.57084 0.65-1.3562 0.975-2.3562 0.975-1.0042 0-1.7917-0.325-2.3625-0.975-0.56667-0.65416-0.85-1.5542-0.85-2.7 0-1.15 0.28333-2.05 0.85-2.7 0.57083-0.64999 1.3583-0.97499 2.3625-0.975"/>
  <path id="path3180" style="" d="m578.03 142.56v1.9875h2.3688v0.89375h-2.3688v3.8c0 0.57084 0.0771 0.9375 0.23125 1.1 0.15833 0.1625 0.47708 0.24375 0.95625 0.24375h1.1812v0.9625h-1.1812c-0.8875 0-1.5-0.16458-1.8375-0.49375-0.3375-0.33333-0.50625-0.9375-0.50625-1.8125v-3.8h-0.84375v-0.89375h0.84375v-1.9875h1.1562"/>
  <path id="path3182" style="" d="m583.06 142.56v1.9875h2.3688v0.89375h-2.3688v3.8c0 0.57084 0.0771 0.9375 0.23125 1.1 0.15834 0.1625 0.47709 0.24375 0.95625 0.24375h1.1812v0.9625h-1.1812c-0.8875 0-1.5-0.16458-1.8375-0.49375-0.3375-0.33333-0.50625-0.9375-0.50625-1.8125v-3.8h-0.84375v-0.89375h0.84375v-1.9875h1.1562"/>
 </g>
 <g id="text96">
  <path id="path3185" style="" d="m661.1 147.32v4.225h-1.15v-4.1875c0-0.66249-0.12917-1.1583-0.3875-1.4875-0.25834-0.32916-0.64584-0.49374-1.1625-0.49375-0.62084 0.00001-1.1104 0.19792-1.4688 0.59375-0.35833 0.39584-0.5375 0.93542-0.5375 1.6188v3.9562h-1.1562v-7h1.1562v1.0875c0.275-0.42083 0.59792-0.73541 0.96875-0.94375 0.375-0.20832 0.80625-0.31249 1.2938-0.3125 0.80416 0.00001 1.4125 0.25001 1.825 0.75 0.41249 0.49584 0.61874 1.2271 0.61875 2.1938"/>
  <path id="path3187" style="" d="m669.39 147.76v0.5625h-5.2875c0.05 0.79167 0.2875 1.3958 0.7125 1.8125 0.42917 0.4125 1.025 0.61875 1.7875 0.61875 0.44166 0 0.86875-0.0542 1.2812-0.1625 0.41666-0.10833 0.82916-0.27083 1.2375-0.4875v1.0875c-0.4125 0.175-0.83542 0.30834-1.2688 0.4-0.43334 0.0917-0.87292 0.1375-1.3188 0.1375-1.1167 0-2.0021-0.325-2.6562-0.975-0.65-0.65-0.975-1.5292-0.975-2.6375 0-1.1458 0.30833-2.0542 0.925-2.725 0.62083-0.67499 1.4562-1.0125 2.5062-1.0125 0.94166 0.00001 1.6854 0.30418 2.2312 0.9125 0.54999 0.60417 0.82499 1.4271 0.825 2.4688m-1.15-0.3375c-0.008-0.62916-0.18542-1.1312-0.53125-1.5062-0.34167-0.37499-0.79584-0.56249-1.3625-0.5625-0.64167 0.00001-1.1562 0.18126-1.5438 0.54375-0.38333 0.36251-0.60417 0.87292-0.6625 1.5312l4.1-0.006"/>
  <path id="path3189" style="" d="m676.73 145.89c0.28749-0.51666 0.63124-0.89791 1.0312-1.1438 0.39999-0.24582 0.87083-0.36874 1.4125-0.36875 0.72916 0.00001 1.2917 0.25626 1.6875 0.76875 0.39582 0.50834 0.59374 1.2333 0.59375 2.175v4.225h-1.1562v-4.1875c-0.00001-0.67083-0.11876-1.1687-0.35625-1.4938-0.23751-0.32499-0.60001-0.48749-1.0875-0.4875-0.59584 0.00001-1.0667 0.19792-1.4125 0.59375-0.34584 0.39584-0.51876 0.93542-0.51875 1.6188v3.9562h-1.1562v-4.1875c0-0.67499-0.11875-1.1729-0.35625-1.4938-0.2375-0.32499-0.60417-0.48749-1.1-0.4875-0.5875 0.00001-1.0542 0.20001-1.4 0.6-0.34583 0.39584-0.51875 0.93334-0.51875 1.6125v3.9562h-1.1562v-7h1.1562v1.0875c0.2625-0.42916 0.57708-0.74582 0.94375-0.95 0.36666-0.20416 0.80208-0.30624 1.3062-0.30625 0.50833 0.00001 0.93958 0.12918 1.2938 0.3875 0.35833 0.25834 0.62291 0.63334 0.79375 1.125"/>
  <path id="path3191" style="" d="m687.71 148.79v-4.2375h1.15v4.1938c0 0.6625 0.12917 1.1604 0.3875 1.4938 0.25833 0.32917 0.64583 0.49375 1.1625 0.49375 0.62083 0 1.1104-0.19791 1.4688-0.59375 0.3625-0.39583 0.54375-0.93541 0.54375-1.6188v-3.9688h1.15v7h-1.15v-1.075c-0.27917 0.425-0.60417 0.74167-0.975 0.95-0.36667 0.20417-0.79375 0.30625-1.2812 0.30625-0.80417 0-1.4146-0.25-1.8312-0.75-0.41667-0.5-0.625-1.2312-0.625-2.1938m2.8938-4.4062"/>
  <path id="path3193" style="" d="m700.56 147.97c0-0.83333-0.17292-1.4792-0.51875-1.9375-0.34167-0.45833-0.82292-0.68749-1.4438-0.6875-0.61667 0.00001-1.0979 0.22917-1.4438 0.6875-0.34167 0.45834-0.5125 1.1042-0.5125 1.9375 0 0.82917 0.17083 1.4729 0.5125 1.9312 0.34583 0.45834 0.82708 0.6875 1.4438 0.6875 0.62083 0 1.1021-0.22916 1.4438-0.6875 0.34583-0.45833 0.51875-1.1021 0.51875-1.9312m1.15 2.7125c-0.00001 1.1917-0.26459 2.0771-0.79375 2.6562-0.52917 0.58333-1.3396 0.875-2.4312 0.875-0.40417 0-0.78542-0.0312-1.1438-0.0937-0.35833-0.0583-0.70625-0.15-1.0438-0.275v-1.1188c0.3375 0.18333 0.67083 0.31875 1 0.40625 0.32916 0.0875 0.66458 0.13125 1.0062 0.13125 0.75416 0 1.3188-0.19792 1.6938-0.59375 0.375-0.39167 0.5625-0.98541 0.5625-1.7812v-0.56875c-0.2375 0.4125-0.54167 0.72084-0.9125 0.925-0.37084 0.20417-0.81459 0.30625-1.3312 0.30625-0.85834 0-1.55-0.32708-2.075-0.98125-0.525-0.65416-0.7875-1.5208-0.7875-2.6 0-1.0833 0.2625-1.9521 0.7875-2.6062 0.525-0.65416 1.2167-0.98124 2.075-0.98125 0.51666 0.00001 0.96041 0.10209 1.3312 0.30625 0.37083 0.20418 0.675 0.51251 0.9125 0.925v-1.0625h1.15v6.1312"/>
  <path id="path3195" style="" d="m708.13 145.62c-0.12917-0.075-0.27084-0.12916-0.425-0.1625-0.15-0.0375-0.31667-0.0562-0.5-0.0562-0.65 0.00001-1.15 0.21251-1.5 0.6375-0.34583 0.42084-0.51875 1.0271-0.51875 1.8188v3.6875h-1.1562v-7h1.1562v1.0875c0.24167-0.42499 0.55625-0.73957 0.94375-0.94375 0.3875-0.20832 0.85833-0.31249 1.4125-0.3125 0.0792 0.00001 0.16666 0.006 0.2625 0.0187 0.0958 0.008 0.20208 0.0229 0.31875 0.0438l0.006 1.1812"/>
  <path id="path3197" style="" d="m711.78 145.35c-0.61667 0.00001-1.1042 0.24167-1.4625 0.725-0.35833 0.47917-0.5375 1.1375-0.5375 1.975s0.17708 1.4979 0.53125 1.9812c0.35833 0.47917 0.84792 0.71875 1.4688 0.71875 0.6125 0 1.0979-0.24166 1.4562-0.725 0.35833-0.48333 0.5375-1.1417 0.5375-1.975 0-0.82916-0.17917-1.4854-0.5375-1.9688-0.35834-0.48749-0.84375-0.73124-1.4562-0.73125m0-0.975c1 0.00001 1.7854 0.32501 2.3562 0.975 0.57083 0.65001 0.85625 1.55 0.85625 2.7 0 1.1458-0.28542 2.0458-0.85625 2.7-0.57084 0.65-1.3562 0.975-2.3562 0.975-1.0042 0-1.7917-0.325-2.3625-0.975-0.56667-0.65416-0.85-1.5542-0.85-2.7 0-1.15 0.28333-2.05 0.85-2.7 0.57083-0.64999 1.3583-0.97499 2.3625-0.975"/>
  <path id="path3199" style="" d="m718.03 142.56v1.9875h2.3688v0.89375h-2.3688v3.8c0 0.57084 0.0771 0.9375 0.23125 1.1 0.15833 0.1625 0.47708 0.24375 0.95625 0.24375h1.1812v0.9625h-1.1812c-0.8875 0-1.5-0.16458-1.8375-0.49375-0.3375-0.33333-0.50625-0.9375-0.50625-1.8125v-3.8h-0.84375v-0.89375h0.84375v-1.9875h1.1562"/>
  <path id="path3201" style="" d="m723.06 142.56v1.9875h2.3688v0.89375h-2.3688v3.8c0 0.57084 0.0771 0.9375 0.23125 1.1 0.15834 0.1625 0.47709 0.24375 0.95625 0.24375h1.1812v0.9625h-1.1812c-0.8875 0-1.5-0.16458-1.8375-0.49375-0.3375-0.33333-0.50625-0.9375-0.50625-1.8125v-3.8h-0.84375v-0.89375h0.84375v-1.9875h1.1562"/>
 </g>
 <g id="text100">
  <path id="path3204" style="" d="m391.43 318.79v-4.2375h1.15v4.1938c0 0.6625 0.12917 1.1604 0.3875 1.4938 0.25833 0.32917 0.64583 0.49375 1.1625 0.49375 0.62083 0 1.1104-0.19791 1.4688-0.59375 0.3625-0.39583 0.54375-0.93541 0.54375-1.6188v-3.9688h1.15v7h-1.15v-1.075c-0.27917 0.425-0.60417 0.74167-0.975 0.95-0.36667 0.20417-0.79375 0.30625-1.2812 0.30625-0.80417 0-1.4146-0.25-1.8312-0.75-0.41667-0.5-0.625-1.2312-0.625-2.1938m2.8938-4.4062"/>
  <path id="path3206" style="" d="m404.28 317.97c0-0.83333-0.17292-1.4792-0.51875-1.9375-0.34167-0.45833-0.82292-0.68749-1.4438-0.6875-0.61667 0.00001-1.0979 0.22917-1.4438 0.6875-0.34167 0.45834-0.5125 1.1042-0.5125 1.9375 0 0.82917 0.17083 1.4729 0.5125 1.9312 0.34583 0.45834 0.82708 0.6875 1.4438 0.6875 0.62083 0 1.1021-0.22916 1.4438-0.6875 0.34583-0.45833 0.51875-1.1021 0.51875-1.9312m1.15 2.7125c0 1.1917-0.26459 2.0771-0.79375 2.6562-0.52917 0.58333-1.3396 0.875-2.4312 0.875-0.40417 0-0.78542-0.0312-1.1438-0.0937-0.35833-0.0583-0.70625-0.15-1.0438-0.275v-1.1188c0.3375 0.18333 0.67083 0.31875 1 0.40625s0.66458 0.13125 1.0062 0.13125c0.75416 0 1.3188-0.19792 1.6938-0.59375 0.375-0.39167 0.5625-0.98541 0.5625-1.7812v-0.56875c-0.2375 0.4125-0.54167 0.72084-0.9125 0.925-0.37084 0.20417-0.81459 0.30625-1.3312 0.30625-0.85833 0-1.55-0.32708-2.075-0.98125-0.525-0.65416-0.7875-1.5208-0.7875-2.6 0-1.0833 0.2625-1.9521 0.7875-2.6062 0.525-0.65416 1.2167-0.98124 2.075-0.98125 0.51666 0.00001 0.96041 0.10209 1.3312 0.30625 0.37083 0.20418 0.675 0.51251 0.9125 0.925v-1.0625h1.15v6.1312"/>
  <path id="path3208" style="" d="m411.86 315.62c-0.12917-0.075-0.27084-0.12916-0.425-0.1625-0.15-0.0375-0.31667-0.0562-0.5-0.0562-0.65 0.00001-1.15 0.21251-1.5 0.6375-0.34583 0.42084-0.51875 1.0271-0.51875 1.8188v3.6875h-1.1562v-7h1.1562v1.0875c0.24167-0.42499 0.55625-0.73957 0.94375-0.94375 0.3875-0.20832 0.85833-0.31249 1.4125-0.3125 0.0792 0.00001 0.16666 0.006 0.2625 0.0188 0.0958 0.008 0.20208 0.0229 0.31875 0.0437l0.006 1.1812"/>
  <path id="path3210" style="" d="m415.51 315.35c-0.61667 0.00001-1.1042 0.24167-1.4625 0.725-0.35833 0.47917-0.5375 1.1375-0.5375 1.975s0.17708 1.4979 0.53125 1.9812c0.35833 0.47917 0.84791 0.71875 1.4688 0.71875 0.6125 0 1.0979-0.24166 1.4562-0.725 0.35833-0.48333 0.5375-1.1417 0.5375-1.975 0-0.82916-0.17917-1.4854-0.5375-1.9688-0.35834-0.48749-0.84375-0.73124-1.4562-0.73125m0-0.975c1 0.00001 1.7854 0.32501 2.3562 0.975 0.57083 0.65001 0.85624 1.55 0.85625 2.7-0.00001 1.1458-0.28542 2.0458-0.85625 2.7-0.57084 0.65-1.3562 0.975-2.3562 0.975-1.0042 0-1.7917-0.325-2.3625-0.975-0.56667-0.65416-0.85-1.5542-0.85-2.7 0-1.15 0.28333-2.05 0.85-2.7 0.57083-0.64999 1.3583-0.97499 2.3625-0.975"/>
  <path id="path3212" style="" d="m421.76 312.56v1.9875h2.3688v0.89375h-2.3688v3.8c0 0.57084 0.0771 0.9375 0.23125 1.1 0.15833 0.1625 0.47708 0.24375 0.95625 0.24375h1.1812v0.9625h-1.1812c-0.8875 0-1.5-0.16458-1.8375-0.49375-0.3375-0.33333-0.50625-0.9375-0.50625-1.8125v-3.8h-0.84375v-0.89375h0.84375v-1.9875h1.1562"/>
  <path id="path3214" style="" d="m426.78 312.56v1.9875h2.3688v0.89375h-2.3688v3.8c0 0.57084 0.0771 0.9375 0.23125 1.1 0.15833 0.1625 0.47708 0.24375 0.95625 0.24375h1.1812v0.9625h-1.1812c-0.8875 0-1.5-0.16458-1.8375-0.49375-0.3375-0.33333-0.50625-0.9375-0.50625-1.8125v-3.8h-0.84375v-0.89375h0.84375v-1.9875h1.1562"/>
 </g>
 <g id="text104">
  <path id="path3217" style="" d="m531.43 318.79v-4.2375h1.15v4.1938c0 0.6625 0.12917 1.1604 0.3875 1.4938 0.25833 0.32917 0.64583 0.49375 1.1625 0.49375 0.62083 0 1.1104-0.19791 1.4688-0.59375 0.3625-0.39583 0.54375-0.93541 0.54375-1.6188v-3.9688h1.15v7h-1.15v-1.075c-0.27917 0.425-0.60417 0.74167-0.975 0.95-0.36667 0.20417-0.79375 0.30625-1.2812 0.30625-0.80417 0-1.4146-0.25-1.8312-0.75-0.41667-0.5-0.625-1.2312-0.625-2.1938m2.8938-4.4062"/>
  <path id="path3219" style="" d="m544.28 317.97c0-0.83333-0.17292-1.4792-0.51875-1.9375-0.34167-0.45833-0.82292-0.68749-1.4438-0.6875-0.61667 0.00001-1.0979 0.22917-1.4438 0.6875-0.34167 0.45834-0.5125 1.1042-0.5125 1.9375 0 0.82917 0.17083 1.4729 0.5125 1.9312 0.34583 0.45834 0.82708 0.6875 1.4438 0.6875 0.62083 0 1.1021-0.22916 1.4438-0.6875 0.34583-0.45833 0.51875-1.1021 0.51875-1.9312m1.15 2.7125c0 1.1917-0.26459 2.0771-0.79375 2.6562-0.52917 0.58333-1.3396 0.875-2.4312 0.875-0.40417 0-0.78542-0.0312-1.1438-0.0937-0.35833-0.0583-0.70625-0.15-1.0438-0.275v-1.1188c0.3375 0.18333 0.67083 0.31875 1 0.40625s0.66458 0.13125 1.0062 0.13125c0.75416 0 1.3188-0.19792 1.6938-0.59375 0.375-0.39167 0.5625-0.98541 0.5625-1.7812v-0.56875c-0.2375 0.4125-0.54167 0.72084-0.9125 0.925-0.37084 0.20417-0.81459 0.30625-1.3312 0.30625-0.85833 0-1.55-0.32708-2.075-0.98125-0.525-0.65416-0.7875-1.5208-0.7875-2.6 0-1.0833 0.2625-1.9521 0.7875-2.6062 0.525-0.65416 1.2167-0.98124 2.075-0.98125 0.51666 0.00001 0.96041 0.10209 1.3312 0.30625 0.37083 0.20418 0.675 0.51251 0.9125 0.925v-1.0625h1.15v6.1312"/>
  <path id="path3221" style="" d="m551.86 315.62c-0.12917-0.075-0.27084-0.12916-0.425-0.1625-0.15-0.0375-0.31667-0.0562-0.5-0.0562-0.65 0.00001-1.15 0.21251-1.5 0.6375-0.34583 0.42084-0.51875 1.0271-0.51875 1.8188v3.6875h-1.1562v-7h1.1562v1.0875c0.24167-0.42499 0.55625-0.73957 0.94375-0.94375 0.3875-0.20832 0.85833-0.31249 1.4125-0.3125 0.0792 0.00001 0.16666 0.006 0.2625 0.0188 0.0958 0.008 0.20208 0.0229 0.31875 0.0437l0.006 1.1812"/>
  <path id="path3223" style="" d="m555.51 315.35c-0.61667 0.00001-1.1042 0.24167-1.4625 0.725-0.35833 0.47917-0.5375 1.1375-0.5375 1.975s0.17708 1.4979 0.53125 1.9812c0.35833 0.47917 0.84791 0.71875 1.4688 0.71875 0.6125 0 1.0979-0.24166 1.4562-0.725 0.35833-0.48333 0.5375-1.1417 0.5375-1.975 0-0.82916-0.17917-1.4854-0.5375-1.9688-0.35834-0.48749-0.84375-0.73124-1.4562-0.73125m0-0.975c1 0.00001 1.7854 0.32501 2.3562 0.975 0.57083 0.65001 0.85624 1.55 0.85625 2.7-0.00001 1.1458-0.28542 2.0458-0.85625 2.7-0.57084 0.65-1.3562 0.975-2.3562 0.975-1.0042 0-1.7917-0.325-2.3625-0.975-0.56667-0.65416-0.85-1.5542-0.85-2.7 0-1.15 0.28333-2.05 0.85-2.7 0.57083-0.64999 1.3583-0.97499 2.3625-0.975"/>
  <path id="path3225" style="" d="m561.76 312.56v1.9875h2.3688v0.89375h-2.3688v3.8c0 0.57084 0.0771 0.9375 0.23125 1.1 0.15833 0.1625 0.47708 0.24375 0.95625 0.24375h1.1812v0.9625h-1.1812c-0.8875 0-1.5-0.16458-1.8375-0.49375-0.3375-0.33333-0.50625-0.9375-0.50625-1.8125v-3.8h-0.84375v-0.89375h0.84375v-1.9875h1.1562"/>
  <path id="path3227" style="" d="m566.78 312.56v1.9875h2.3688v0.89375h-2.3688v3.8c0 0.57084 0.0771 0.9375 0.23125 1.1 0.15833 0.1625 0.47708 0.24375 0.95625 0.24375h1.1812v0.9625h-1.1812c-0.8875 0-1.5-0.16458-1.8375-0.49375-0.3375-0.33333-0.50625-0.9375-0.50625-1.8125v-3.8h-0.84375v-0.89375h0.84375v-1.9875h1.1562"/>
 </g>
 <g id="text108">
  <path id="path3230" style="" d="m671.43 318.79v-4.2375h1.15v4.1938c0 0.6625 0.12917 1.1604 0.3875 1.4938 0.25833 0.32917 0.64583 0.49375 1.1625 0.49375 0.62083 0 1.1104-0.19791 1.4688-0.59375 0.3625-0.39583 0.54375-0.93541 0.54375-1.6188v-3.9688h1.15v7h-1.15v-1.075c-0.27917 0.425-0.60417 0.74167-0.975 0.95-0.36667 0.20417-0.79375 0.30625-1.2812 0.30625-0.80417 0-1.4146-0.25-1.8312-0.75-0.41667-0.5-0.625-1.2312-0.625-2.1938m2.8938-4.4062"/>
  <path id="path3232" style="" d="m684.28 317.97c0-0.83333-0.17292-1.4792-0.51875-1.9375-0.34167-0.45833-0.82292-0.68749-1.4438-0.6875-0.61667 0.00001-1.0979 0.22917-1.4438 0.6875-0.34167 0.45834-0.5125 1.1042-0.5125 1.9375 0 0.82917 0.17083 1.4729 0.5125 1.9312 0.34583 0.45834 0.82708 0.6875 1.4438 0.6875 0.62083 0 1.1021-0.22916 1.4438-0.6875 0.34583-0.45833 0.51875-1.1021 0.51875-1.9312m1.15 2.7125c0 1.1917-0.26459 2.0771-0.79375 2.6562-0.52917 0.58333-1.3396 0.875-2.4312 0.875-0.40417 0-0.78542-0.0312-1.1438-0.0937-0.35833-0.0583-0.70625-0.15-1.0438-0.275v-1.1188c0.3375 0.18333 0.67083 0.31875 1 0.40625s0.66458 0.13125 1.0062 0.13125c0.75416 0 1.3188-0.19792 1.6938-0.59375 0.375-0.39167 0.5625-0.98541 0.5625-1.7812v-0.56875c-0.2375 0.4125-0.54167 0.72084-0.9125 0.925-0.37084 0.20417-0.81459 0.30625-1.3312 0.30625-0.85833 0-1.55-0.32708-2.075-0.98125-0.525-0.65416-0.7875-1.5208-0.7875-2.6 0-1.0833 0.2625-1.9521 0.7875-2.6062 0.525-0.65416 1.2167-0.98124 2.075-0.98125 0.51666 0.00001 0.96041 0.10209 1.3312 0.30625 0.37083 0.20418 0.675 0.51251 0.9125 0.925v-1.0625h1.15v6.1312"/>
  <path id="path3234" style="" d="m691.86 315.62c-0.12917-0.075-0.27084-0.12916-0.425-0.1625-0.15-0.0375-0.31667-0.0562-0.5-0.0562-0.65 0.00001-1.15 0.21251-1.5 0.6375-0.34583 0.42084-0.51875 1.0271-0.51875 1.8188v3.6875h-1.1562v-7h1.1562v1.0875c0.24167-0.42499 0.55625-0.73957 0.94375-0.94375 0.3875-0.20832 0.85833-0.31249 1.4125-0.3125 0.0792 0.00001 0.16666 0.006 0.2625 0.0188 0.0958 0.008 0.20208 0.0229 0.31875 0.0437l0.006 1.1812"/>
  <path id="path3236" style="" d="m695.51 315.35c-0.61667 0.00001-1.1042 0.24167-1.4625 0.725-0.35833 0.47917-0.5375 1.1375-0.5375 1.975s0.17708 1.4979 0.53125 1.9812c0.35833 0.47917 0.84791 0.71875 1.4688 0.71875 0.6125 0 1.0979-0.24166 1.4562-0.725 0.35833-0.48333 0.5375-1.1417 0.5375-1.975 0-0.82916-0.17917-1.4854-0.5375-1.9688-0.35834-0.48749-0.84375-0.73124-1.4562-0.73125m0-0.975c1 0.00001 1.7854 0.32501 2.3562 0.975 0.57083 0.65001 0.85624 1.55 0.85625 2.7-0.00001 1.1458-0.28542 2.0458-0.85625 2.7-0.57084 0.65-1.3562 0.975-2.3562 0.975-1.0042 0-1.7917-0.325-2.3625-0.975-0.56667-0.65416-0.85-1.5542-0.85-2.7 0-1.15 0.28333-2.05 0.85-2.7 0.57083-0.64999 1.3583-0.97499 2.3625-0.975"/>
  <path id="path3238" style="" d="m701.76 312.56v1.9875h2.3688v0.89375h-2.3688v3.8c0 0.57084 0.0771 0.9375 0.23125 1.1 0.15833 0.1625 0.47708 0.24375 0.95625 0.24375h1.1812v0.9625h-1.1812c-0.8875 0-1.5-0.16458-1.8375-0.49375-0.3375-0.33333-0.50625-0.9375-0.50625-1.8125v-3.8h-0.84375v-0.89375h0.84375v-1.9875h1.1562"/>
  <path id="path3240" style="" d="m706.78 312.56v1.9875h2.3688v0.89375h-2.3688v3.8c0 0.57084 0.0771 0.9375 0.23125 1.1 0.15833 0.1625 0.47708 0.24375 0.95625 0.24375h1.1812v0.9625h-1.1812c-0.8875 0-1.5-0.16458-1.8375-0.49375-0.3375-0.33333-0.50625-0.9375-0.50625-1.8125v-3.8h-0.84375v-0.89375h0.84375v-1.9875h1.1562"/>
 </g>
 <g id="g112" stroke="#000" stroke-width="2" fill="none" transform="translate(-.093310 -8.4521)">
  <path id="path114" d="m299.08 257.28a26.954 26.954 0 1 0 40.92 22.72"/>
  <path id="polyline116" d="m293.54 264.49 7.43-8.354-11.142-0.932"/>
 </g>
 <g id="text118">
  <path id="path3244" style="" d="m291.43 318.79v-4.2375h1.15v4.1938c0 0.6625 0.12917 1.1604 0.3875 1.4938 0.25833 0.32917 0.64583 0.49375 1.1625 0.49375 0.62083 0 1.1104-0.19791 1.4688-0.59375 0.3625-0.39583 0.54375-0.93541 0.54375-1.6188v-3.9688h1.15v7h-1.15v-1.075c-0.27917 0.425-0.60417 0.74167-0.975 0.95-0.36667 0.20417-0.79375 0.30625-1.2812 0.30625-0.80417 0-1.4146-0.25-1.8312-0.75-0.41667-0.5-0.625-1.2312-0.625-2.1938m2.8938-4.4062"/>
  <path id="path3246" style="" d="m304.28 317.97c0-0.83333-0.17292-1.4792-0.51875-1.9375-0.34167-0.45833-0.82292-0.68749-1.4438-0.6875-0.61667 0.00001-1.0979 0.22917-1.4438 0.6875-0.34167 0.45834-0.5125 1.1042-0.5125 1.9375 0 0.82917 0.17083 1.4729 0.5125 1.9312 0.34583 0.45834 0.82708 0.6875 1.4438 0.6875 0.62083 0 1.1021-0.22916 1.4438-0.6875 0.34583-0.45833 0.51875-1.1021 0.51875-1.9312m1.15 2.7125c0 1.1917-0.26459 2.0771-0.79375 2.6562-0.52917 0.58333-1.3396 0.875-2.4312 0.875-0.40417 0-0.78542-0.0312-1.1438-0.0937-0.35833-0.0583-0.70625-0.15-1.0438-0.275v-1.1188c0.3375 0.18333 0.67083 0.31875 1 0.40625s0.66458 0.13125 1.0062 0.13125c0.75416 0 1.3188-0.19792 1.6938-0.59375 0.375-0.39167 0.5625-0.98541 0.5625-1.7812v-0.56875c-0.2375 0.4125-0.54167 0.72084-0.9125 0.925-0.37084 0.20417-0.81459 0.30625-1.3312 0.30625-0.85833 0-1.55-0.32708-2.075-0.98125-0.525-0.65416-0.7875-1.5208-0.7875-2.6 0-1.0833 0.2625-1.9521 0.7875-2.6062 0.525-0.65416 1.2167-0.98124 2.075-0.98125 0.51666 0.00001 0.96041 0.10209 1.3312 0.30625 0.37083 0.20418 0.675 0.51251 0.9125 0.925v-1.0625h1.15v6.1312"/>
  <path id="path3248" style="" d="m311.86 315.62c-0.12917-0.075-0.27084-0.12916-0.425-0.1625-0.15-0.0375-0.31667-0.0562-0.5-0.0562-0.65 0.00001-1.15 0.21251-1.5 0.6375-0.34583 0.42084-0.51875 1.0271-0.51875 1.8188v3.6875h-1.1562v-7h1.1562v1.0875c0.24167-0.42499 0.55625-0.73957 0.94375-0.94375 0.3875-0.20832 0.85833-0.31249 1.4125-0.3125 0.0792 0.00001 0.16666 0.006 0.2625 0.0188 0.0958 0.008 0.20208 0.0229 0.31875 0.0437l0.006 1.1812"/>
  <path id="path3250" style="" d="m315.51 315.35c-0.61667 0.00001-1.1042 0.24167-1.4625 0.725-0.35833 0.47917-0.5375 1.1375-0.5375 1.975s0.17708 1.4979 0.53125 1.9812c0.35833 0.47917 0.84791 0.71875 1.4688 0.71875 0.6125 0 1.0979-0.24166 1.4562-0.725 0.35833-0.48333 0.5375-1.1417 0.5375-1.975 0-0.82916-0.17917-1.4854-0.5375-1.9688-0.35834-0.48749-0.84375-0.73124-1.4562-0.73125m0-0.975c1 0.00001 1.7854 0.32501 2.3562 0.975 0.57083 0.65001 0.85624 1.55 0.85625 2.7-0.00001 1.1458-0.28542 2.0458-0.85625 2.7-0.57084 0.65-1.3562 0.975-2.3562 0.975-1.0042 0-1.7917-0.325-2.3625-0.975-0.56667-0.65416-0.85-1.5542-0.85-2.7 0-1.15 0.28333-2.05 0.85-2.7 0.57083-0.64999 1.3583-0.97499 2.3625-0.975"/>
  <path id="path3252" style="" d="m321.76 312.56v1.9875h2.3688v0.89375h-2.3688v3.8c0 0.57084 0.0771 0.9375 0.23125 1.1 0.15833 0.1625 0.47708 0.24375 0.95625 0.24375h1.1812v0.9625h-1.1812c-0.8875 0-1.5-0.16458-1.8375-0.49375-0.3375-0.33333-0.50625-0.9375-0.50625-1.8125v-3.8h-0.84375v-0.89375h0.84375v-1.9875h1.1562"/>
  <path id="path3254" style="" d="m326.78 312.56v1.9875h2.3688v0.89375h-2.3688v3.8c0 0.57084 0.0771 0.9375 0.23125 1.1 0.15833 0.1625 0.47708 0.24375 0.95625 0.24375h1.1812v0.9625h-1.1812c-0.8875 0-1.5-0.16458-1.8375-0.49375-0.3375-0.33333-0.50625-0.9375-0.50625-1.8125v-3.8h-0.84375v-0.89375h0.84375v-1.9875h1.1562"/>
 </g>
 <g id="g122" stroke="#000" stroke-width="2" fill="none" transform="translate(-.093310 -8.4521)">
  <path id="path124" d="m804.35 239.1a35.355 35.355 0 1 0 -44.35 -39.1"/>
  <path id="polyline126" d="m811.41 233.32-9.192 6.364 10.606 3.535"/>
 </g>
 <g id="text128">
  <path id="path3258" style="" d="m771.1 147.32v4.225h-1.15v-4.1875c0-0.66249-0.12917-1.1583-0.3875-1.4875-0.25834-0.32916-0.64584-0.49374-1.1625-0.49375-0.62084 0.00001-1.1104 0.19792-1.4688 0.59375-0.35833 0.39584-0.5375 0.93542-0.5375 1.6188v3.9562h-1.1562v-7h1.1562v1.0875c0.275-0.42083 0.59792-0.73541 0.96875-0.94375 0.375-0.20832 0.80625-0.31249 1.2938-0.3125 0.80416 0.00001 1.4125 0.25001 1.825 0.75 0.41249 0.49584 0.61874 1.2271 0.61875 2.1938"/>
  <path id="path3260" style="" d="m779.39 147.76v0.5625h-5.2875c0.05 0.79167 0.2875 1.3958 0.7125 1.8125 0.42917 0.4125 1.025 0.61875 1.7875 0.61875 0.44166 0 0.86875-0.0542 1.2812-0.1625 0.41666-0.10833 0.82916-0.27083 1.2375-0.4875v1.0875c-0.4125 0.175-0.83542 0.30834-1.2688 0.4-0.43334 0.0917-0.87292 0.1375-1.3188 0.1375-1.1167 0-2.0021-0.325-2.6562-0.975-0.65-0.65-0.975-1.5292-0.975-2.6375 0-1.1458 0.30833-2.0542 0.925-2.725 0.62083-0.67499 1.4562-1.0125 2.5062-1.0125 0.94166 0.00001 1.6854 0.30418 2.2312 0.9125 0.54999 0.60417 0.82499 1.4271 0.825 2.4688m-1.15-0.3375c-0.008-0.62916-0.18542-1.1312-0.53125-1.5062-0.34167-0.37499-0.79584-0.56249-1.3625-0.5625-0.64167 0.00001-1.1562 0.18126-1.5438 0.54375-0.38333 0.36251-0.60417 0.87292-0.6625 1.5312l4.1-0.006"/>
  <path id="path3262" style="" d="m786.73 145.89c0.28749-0.51666 0.63124-0.89791 1.0312-1.1438 0.39999-0.24582 0.87083-0.36874 1.4125-0.36875 0.72916 0.00001 1.2917 0.25626 1.6875 0.76875 0.39582 0.50834 0.59374 1.2333 0.59375 2.175v4.225h-1.1562v-4.1875c-0.00001-0.67083-0.11876-1.1687-0.35625-1.4938-0.23751-0.32499-0.60001-0.48749-1.0875-0.4875-0.59584 0.00001-1.0667 0.19792-1.4125 0.59375-0.34584 0.39584-0.51876 0.93542-0.51875 1.6188v3.9562h-1.1562v-4.1875c0-0.67499-0.11875-1.1729-0.35625-1.4938-0.2375-0.32499-0.60417-0.48749-1.1-0.4875-0.5875 0.00001-1.0542 0.20001-1.4 0.6-0.34583 0.39584-0.51875 0.93334-0.51875 1.6125v3.9562h-1.1562v-7h1.1562v1.0875c0.2625-0.42916 0.57708-0.74582 0.94375-0.95 0.36666-0.20416 0.80208-0.30624 1.3062-0.30625 0.50833 0.00001 0.93958 0.12918 1.2938 0.3875 0.35833 0.25834 0.62291 0.63334 0.79375 1.125"/>
  <path id="path3264" style="" d="m797.71 148.79v-4.2375h1.15v4.1938c0 0.6625 0.12917 1.1604 0.3875 1.4938 0.25833 0.32917 0.64583 0.49375 1.1625 0.49375 0.62083 0 1.1104-0.19791 1.4688-0.59375 0.3625-0.39583 0.54375-0.93541 0.54375-1.6188v-3.9688h1.15v7h-1.15v-1.075c-0.27917 0.425-0.60417 0.74167-0.975 0.95-0.36667 0.20417-0.79375 0.30625-1.2812 0.30625-0.80417 0-1.4146-0.25-1.8312-0.75-0.41667-0.5-0.625-1.2312-0.625-2.1938m2.8938-4.4062"/>
  <path id="path3266" style="" d="m810.56 147.97c0-0.83333-0.17292-1.4792-0.51875-1.9375-0.34167-0.45833-0.82292-0.68749-1.4438-0.6875-0.61667 0.00001-1.0979 0.22917-1.4438 0.6875-0.34167 0.45834-0.5125 1.1042-0.5125 1.9375 0 0.82917 0.17083 1.4729 0.5125 1.9312 0.34583 0.45834 0.82708 0.6875 1.4438 0.6875 0.62083 0 1.1021-0.22916 1.4438-0.6875 0.34583-0.45833 0.51875-1.1021 0.51875-1.9312m1.15 2.7125c-0.00001 1.1917-0.26459 2.0771-0.79375 2.6562-0.52917 0.58333-1.3396 0.875-2.4312 0.875-0.40417 0-0.78542-0.0312-1.1438-0.0937-0.35833-0.0583-0.70625-0.15-1.0438-0.275v-1.1188c0.3375 0.18333 0.67083 0.31875 1 0.40625 0.32916 0.0875 0.66458 0.13125 1.0062 0.13125 0.75416 0 1.3188-0.19792 1.6938-0.59375 0.375-0.39167 0.5625-0.98541 0.5625-1.7812v-0.56875c-0.2375 0.4125-0.54167 0.72084-0.9125 0.925-0.37084 0.20417-0.81459 0.30625-1.3312 0.30625-0.85834 0-1.55-0.32708-2.075-0.98125-0.525-0.65416-0.7875-1.5208-0.7875-2.6 0-1.0833 0.2625-1.9521 0.7875-2.6062 0.525-0.65416 1.2167-0.98124 2.075-0.98125 0.51666 0.00001 0.96041 0.10209 1.3312 0.30625 0.37083 0.20418 0.675 0.51251 0.9125 0.925v-1.0625h1.15v6.1312"/>
  <path id="path3268" style="" d="m818.13 145.62c-0.12917-0.075-0.27084-0.12916-0.425-0.1625-0.15-0.0375-0.31667-0.0562-0.5-0.0562-0.65 0.00001-1.15 0.21251-1.5 0.6375-0.34583 0.42084-0.51875 1.0271-0.51875 1.8188v3.6875h-1.1562v-7h1.1562v1.0875c0.24167-0.42499 0.55625-0.73957 0.94375-0.94375 0.3875-0.20832 0.85833-0.31249 1.4125-0.3125 0.0792 0.00001 0.16666 0.006 0.2625 0.0187 0.0958 0.008 0.20208 0.0229 0.31875 0.0438l0.006 1.1812"/>
  <path id="path3270" style="" d="m821.78 145.35c-0.61667 0.00001-1.1042 0.24167-1.4625 0.725-0.35833 0.47917-0.5375 1.1375-0.5375 1.975s0.17708 1.4979 0.53125 1.9812c0.35833 0.47917 0.84792 0.71875 1.4688 0.71875 0.6125 0 1.0979-0.24166 1.4562-0.725 0.35833-0.48333 0.5375-1.1417 0.5375-1.975 0-0.82916-0.17917-1.4854-0.5375-1.9688-0.35834-0.48749-0.84375-0.73124-1.4562-0.73125m0-0.975c1 0.00001 1.7854 0.32501 2.3562 0.975 0.57083 0.65001 0.85625 1.55 0.85625 2.7 0 1.1458-0.28542 2.0458-0.85625 2.7-0.57084 0.65-1.3562 0.975-2.3562 0.975-1.0042 0-1.7917-0.325-2.3625-0.975-0.56667-0.65416-0.85-1.5542-0.85-2.7 0-1.15 0.28333-2.05 0.85-2.7 0.57083-0.64999 1.3583-0.97499 2.3625-0.975"/>
  <path id="path3272" style="" d="m828.03 142.56v1.9875h2.3688v0.89375h-2.3688v3.8c0 0.57084 0.0771 0.9375 0.23125 1.1 0.15833 0.1625 0.47708 0.24375 0.95625 0.24375h1.1812v0.9625h-1.1812c-0.8875 0-1.5-0.16458-1.8375-0.49375-0.3375-0.33333-0.50625-0.9375-0.50625-1.8125v-3.8h-0.84375v-0.89375h0.84375v-1.9875h1.1562"/>
  <path id="path3274" style="" d="m833.06 142.56v1.9875h2.3688v0.89375h-2.3688v3.8c0 0.57084 0.0771 0.9375 0.23125 1.1 0.15834 0.1625 0.47709 0.24375 0.95625 0.24375h1.1812v0.9625h-1.1812c-0.8875 0-1.5-0.16458-1.8375-0.49375-0.3375-0.33333-0.50625-0.9375-0.50625-1.8125v-3.8h-0.84375v-0.89375h0.84375v-1.9875h1.1562"/>
 </g>
</svg>
