<?xml version="1.0" encoding="UTF-8" standalone="no"?>
<!-- Created with Inkscape (http://www.inkscape.org/) -->
<svg id="svg2" xmlns:rdf="http://www.w3.org/1999/02/22-rdf-syntax-ns#" xmlns="http://www.w3.org/2000/svg" height="293.87" width="812.68" version="1.1" xmlns:cc="http://creativecommons.org/ns#" xmlns:dc="http://purl.org/dc/elements/1.1/" viewBox="339 108 439.76399 150.20846">
 <metadata id="metadata116">
  <rdf:RDF>
   <cc:Work rdf:about="">
    <dc:format>image/svg+xml</dc:format>
    <dc:type rdf:resource="http://purl.org/dc/dcmitype/StillImage"/>
   </cc:Work>
  </rdf:RDF>
 </metadata>
 <g id="g4" transform="translate(0 -8.3842)">
  <path id="rect6" fill="#7babe3" d="m380 180h60v60h-60z"/>
  <path id="rect8" d="m380 180h60v60h-60z" stroke="#000" stroke-width="2" fill="none"/>
 </g>
 <g id="g10" transform="translate(0 -8.3842)">
  <path id="rect12" fill="#7be38e" d="m480 180h60v60h-60z"/>
  <path id="rect14" d="m480 180h60v60h-60z" stroke="#000" stroke-width="2" fill="none"/>
 </g>
 <g id="g16" transform="translate(0 -8.3842)">
  <path id="path18" d="m440 210c30 30 30 60 120 60s90-30 113.12-53.116" stroke="#f62e2e" stroke-width="2" fill="none"/>
  <path id="polygon20" fill="#f62e2e" d="m673.12 216.88-5.304-1.767 10.607-3.536-3.536 10.607z"/>
  <path id="polygon22" d="m673.12 216.88-5.304-1.767 10.607-3.536-3.536 10.607z" stroke="#f62e2e" stroke-width="2" fill="none"/>
 </g>
 <g id="g24" transform="translate(0 -8.3842)">
  <path id="path26" d="m440 210h30.264" stroke="#000" stroke-width="2" fill="none"/>
  <path id="polygon28" d="m470.26 210-2.5-5 10 5-10 5z"/>
  <path id="polygon30" d="m470.26 210-2.5-5 10 5-10 5z" stroke="#000" stroke-width="2" fill="none"/>
 </g>
 <g id="g32" transform="translate(0 -8.3842)">
  <path id="path34" d="m640 210h30.264" stroke="#000" stroke-width="2" fill="none"/>
  <path id="polygon36" d="m670.26 210-2.5-5 10 5-10 5z"/>
  <path id="polygon38" d="m670.26 210-2.5-5 10 5-10 5z" stroke="#000" stroke-width="2" fill="none"/>
 </g>
 <g id="g40" transform="translate(0 -8.3842)">
  <path id="line42" d="m510 150v20.264" stroke="#000" stroke-width="2" fill="none"/>
  <path id="polygon44" d="m510 170.26 5-2.5-5 10-5-10z"/>
  <path id="polygon46" d="m510 170.26 5-2.5-5 10-5-10z" stroke="#000" stroke-width="2" fill="none"/>
 </g>
 <g id="text48">
  <path id="path3050" style="" d="m490.8 107.44h1.6228v9.8778h-1.6228v-9.8778m0-3.8453h1.6228v2.0549h-1.6228v-2.0549"/>
  <path id="path3052" style="" d="m497.41 104.63v2.8046h3.3426v1.2612h-3.3426v5.3622c-0.00001 0.80551 0.10877 1.3229 0.32632 1.5522 0.22342 0.22931 0.67321 0.34396 1.3494 0.34396h1.6669v1.3582h-1.6669c-1.2524 0-2.1167-0.23224-2.5929-0.69674-0.47625-0.47036-0.71438-1.3229-0.71438-2.5576v-5.3622h-1.1906v-1.2612h1.1906v-2.8046h1.6316"/>
  <path id="path3054" style="" d="m511.35 111.97v0.79375h-7.4612c0.0706 1.1171 0.40569 1.9697 1.0054 2.5576 0.60559 0.58208 1.4464 0.87312 2.5224 0.87312 0.62323 0 1.2259-0.0764 1.808-0.2293 0.58795-0.15287 1.17-0.38218 1.7462-0.68792v1.5346c-0.58209 0.24695-1.1789 0.43509-1.7904 0.56445-0.61149 0.12935-1.2318 0.19402-1.8609 0.19402-1.5757 0-2.8252-0.45861-3.7483-1.3758-0.91722-0.91722-1.3758-2.1578-1.3758-3.7218 0-1.6169 0.43509-2.8986 1.3053-3.8453 0.87606-0.95249 2.0549-1.4287 3.5366-1.4288 1.3288 0.00001 2.3783 0.42922 3.1485 1.2876 0.7761 0.85255 1.1642 2.0138 1.1642 3.4837m-1.6228-0.47625c-0.0118-0.88781-0.26165-1.5963-0.74965-2.1255-0.48214-0.52916-1.123-0.79374-1.9226-0.79375-0.90547 0.00001-1.6316 0.25577-2.1784 0.76729-0.54093 0.51154-0.85255 1.2318-0.93486 2.1608l5.7856-0.009"/>
  <path id="path3056" style="" d="m519.74 108.95c-0.18227-0.10583-0.38218-0.18226-0.59972-0.22931-0.21167-0.0529-0.44685-0.0794-0.70555-0.0794-0.91723 0.00001-1.6228 0.29987-2.1167 0.89958-0.48801 0.59385-0.73201 1.4493-0.73201 2.5664v5.2035h-1.6316v-9.8778h1.6316v1.5346c0.34102-0.59972 0.78493-1.0436 1.3317-1.3317 0.5468-0.29397 1.2112-0.44096 1.9932-0.44097 0.1117 0.00001 0.23518 0.009 0.37041 0.0265 0.13523 0.0118 0.28516 0.0323 0.4498 0.0617l0.009 1.6669"/>
  <path id="path3058" style="" d="m527.64 112.26c-0.00001-1.1759-0.24402-2.0872-0.73202-2.734-0.48213-0.64675-1.1612-0.97013-2.0373-0.97014-0.87018 0.00001-1.5493 0.32339-2.0373 0.97014-0.48214 0.64677-0.7232 1.5581-0.7232 2.734 0 1.17 0.24106 2.0784 0.7232 2.7252 0.488 0.64676 1.1671 0.97014 2.0373 0.97014 0.87606 0 1.5552-0.32338 2.0373-0.97014 0.488-0.64676 0.73201-1.5552 0.73202-2.7252m1.6228 3.8276c-0.00001 1.6816-0.37336 2.931-1.1201 3.7483-0.74672 0.82314-1.8903 1.2347-3.4308 1.2347-0.57033 0-1.1083-0.0441-1.614-0.13229-0.50565-0.0823-0.9966-0.21167-1.4728-0.38806v-1.5787c0.47625 0.25871 0.94662 0.44979 1.4111 0.57327 0.46449 0.12347 0.9378 0.1852 1.4199 0.1852 1.0642 0 1.8609-0.27928 2.3901-0.83784 0.52916-0.55269 0.79374-1.3905 0.79375-2.5135v-0.80257c-0.33515 0.58209-0.76436 1.0172-1.2876 1.3053-0.52329 0.2881-1.1495 0.43215-1.8785 0.43215-1.2112 0-2.1872-0.46155-2.928-1.3846-0.74084-0.9231-1.1112-2.1461-1.1112-3.6689 0-1.5287 0.37041-2.7546 1.1112-3.6777 0.74083-0.92309 1.7168-1.3846 2.928-1.3846 0.72907 0.00001 1.3552 0.14406 1.8785 0.43215 0.52328 0.28811 0.95249 0.7232 1.2876 1.3053v-1.4993h1.6228v8.6519"/>
 </g>
 <g id="g52" transform="translate(0 -8.3842)">
  <path id="rect54" fill="#7babe3" d="m680 180h60v60h-60z"/>
  <path id="rect56" d="m680 180h60v60h-60z" stroke="#000" stroke-width="2" fill="none"/>
 </g>
 <g id="g58" transform="translate(0 -8.3842)">
  <path id="path60" d="m740 210h30.264" stroke="#000" stroke-width="2" fill="none"/>
  <path id="polygon62" d="m770.26 210-2.5-5 10 5-10 5z"/>
  <path id="polygon64" d="m770.26 210-2.5-5 10 5-10 5z" stroke="#000" stroke-width="2" fill="none"/>
 </g>
 <g id="g66" transform="translate(0 -8.3842)">
  <path id="path68" d="m340 210h30.264" stroke="#000" stroke-width="2" fill="none"/>
  <path id="polygon70" d="m370.26 210-2.5-5 10 5-10 5z"/>
  <path id="polygon72" d="m370.26 210-2.5-5 10 5-10 5z" stroke="#000" stroke-width="2" fill="none"/>
 </g>
 <g id="g74" transform="translate(0 -8.3842)">
  <path id="path76" d="m540 210h30.264" stroke="#000" stroke-width="2" fill="none"/>
  <path id="polygon78" d="m570.26 210-2.5-5 10 5-10 5z"/>
  <path id="polygon80" d="m570.26 210-2.5-5 10 5-10 5z" stroke="#000" stroke-width="2" fill="none"/>
 </g>
 <g id="g82" transform="translate(0 -8.3842)">
  <path id="rect84" fill="#7be38e" d="m580 180h60v60h-60z"/>
  <path id="rect86" d="m580 180h60v60h-60z" stroke="#000" stroke-width="2" fill="none"/>
 </g>
 <g id="g88" transform="translate(0 -8.3842)">
  <path id="line90" d="m610 150v20.264" stroke="#000" stroke-width="2" fill="none"/>
  <path id="polygon92" d="m610 170.26 5-2.5-5 10-5-10z"/>
  <path id="polygon94" d="m610 170.26 5-2.5-5 10-5-10z" stroke="#000" stroke-width="2" fill="none"/>
 </g>
 <g id="text96">
  <path id="path3074" style="" d="m596.37 107.44h1.6228v9.8778h-1.6228v-9.8778m0-3.8453h1.6228v2.0549h-1.6228v-2.0549"/>
  <path id="path3076" style="" d="m602.99 104.63v2.8046h3.3426v1.2612h-3.3426v5.3622c0 0.80551 0.10877 1.3229 0.32632 1.5522 0.22342 0.22931 0.67321 0.34396 1.3494 0.34396h1.6669v1.3582h-1.6669c-1.2524 0-2.1167-0.23224-2.5929-0.69674-0.47625-0.47036-0.71438-1.3229-0.71438-2.5576v-5.3622h-1.1906v-1.2612h1.1906v-2.8046h1.6316"/>
  <path id="path3078" style="" d="m616.92 111.97v0.79375h-7.4612c0.0706 1.1171 0.4057 1.9697 1.0054 2.5576 0.6056 0.58208 1.4464 0.87312 2.5224 0.87312 0.62323 0 1.2259-0.0764 1.808-0.2293 0.58796-0.15287 1.17-0.38218 1.7462-0.68792v1.5346c-0.58209 0.24695-1.1789 0.43509-1.7903 0.56445-0.61149 0.12935-1.2318 0.19402-1.8609 0.19402-1.5757 0-2.8252-0.45861-3.7482-1.3758-0.91723-0.91722-1.3758-2.1578-1.3758-3.7218 0-1.6169 0.43509-2.8986 1.3053-3.8453 0.87606-0.95249 2.0549-1.4287 3.5366-1.4288 1.3288 0.00001 2.3783 0.42922 3.1485 1.2876 0.7761 0.85255 1.1642 2.0138 1.1642 3.4837m-1.6228-0.47625c-0.0118-0.88781-0.26165-1.5963-0.74965-2.1255-0.48214-0.52916-1.123-0.79374-1.9226-0.79375-0.90547 0.00001-1.6316 0.25577-2.1784 0.76729-0.54093 0.51154-0.85255 1.2318-0.93486 2.1608l5.7856-0.009"/>
  <path id="path3080" style="" d="m625.31 108.95c-0.18228-0.10583-0.38219-0.18226-0.59972-0.22931-0.21168-0.0529-0.44686-0.0794-0.70556-0.0794-0.91723 0.00001-1.6228 0.29987-2.1167 0.89958-0.48802 0.59385-0.73202 1.4493-0.73202 2.5664v5.2035h-1.6316v-9.8778h1.6316v1.5346c0.34102-0.59972 0.78493-1.0436 1.3317-1.3317 0.5468-0.29397 1.2112-0.44096 1.9932-0.44097 0.11171 0.00001 0.23518 0.009 0.37042 0.0265 0.13522 0.0118 0.28515 0.0323 0.44979 0.0617l0.009 1.6669"/>
 </g>
 <g id="g100" transform="translate(0 -8.3842)">
  <path id="rect102" fill="#fdfd04" d="m500 130h20v20h-20z"/>
  <path id="rect104" d="m500 130h20v20h-20z" stroke="#000" stroke-width="2" fill="none"/>
 </g>
 <g id="g106" transform="translate(0 -8.3842)">
  <path id="rect108" fill="#fdfd04" d="m600 130h20v20h-20z"/>
  <path id="rect110" d="m600 130h20v20h-20z" stroke="#000" stroke-width="2" fill="none"/>
 </g>
</svg>
