<?xml version="1.0" encoding="UTF-8" standalone="no"?>
<!-- Created with Inkscape (http://www.inkscape.org/) -->
<svg id="svg2" xmlns:rdf="http://www.w3.org/1999/02/22-rdf-syntax-ns#" xmlns="http://www.w3.org/2000/svg" height="119.04" width="457.51" version="1.1" xmlns:cc="http://creativecommons.org/ns#" xmlns:dc="http://purl.org/dc/elements/1.1/" viewBox="296 461 252.28209 56.271703">
 <metadata id="metadata92">
  <rdf:RDF>
   <cc:Work rdf:about="">
    <dc:format>image/svg+xml</dc:format>
    <dc:type rdf:resource="http://purl.org/dc/dcmitype/StillImage"/>
   </cc:Work>
  </rdf:RDF>
 </metadata>
 <path id="line4" d="m517.55 463.73-194.21 29.73" stroke="#7f7f7f" fill="none"/>
 <g id="g6" stroke="#000" fill="none" transform="translate(-.66477 -6.5444)">
  <path id="line8" d="m322 500h207.76"/>
  <path id="polyline10" d="m525.88 502.5 5-2.5-5-2.5"/>
 </g>
 <g id="g12" transform="translate(-.66477 -6.5444)">
  <path id="ellipse14" fill="#fff" d="m520.8 470c0 0.44183-0.35817 0.8-0.8 0.8s-0.8-0.35817-0.8-0.8 0.35817-0.8 0.8-0.8 0.8 0.35817 0.8 0.8z"/>
  <path id="ellipse16" d="m520.8 470c0 0.44183-0.35817 0.8-0.8 0.8s-0.8-0.35817-0.8-0.8 0.35817-0.8 0.8-0.8 0.8 0.35817 0.8 0.8z" stroke="#000" stroke-width="2" fill="none"/>
 </g>
 <path id="line18" d="m307.34 493.46 14-4" stroke="#000" fill="none"/>
 <path id="line20" d="m321.34 497.46-14-4" stroke="#000" fill="none"/>
 <path id="path22" d="m317.34 496.26a2.96 2.96 0 0 0 0 -5.6" stroke="#000" fill="none"/>
 <g id="g24" transform="translate(-.66477 -6.5444)">
  <path id="ellipse26" fill="#fff" d="m410.8 486.8c0 0.44183-0.35817 0.8-0.8 0.8s-0.8-0.35817-0.8-0.8 0.35817-0.8 0.8-0.8 0.8 0.35817 0.8 0.8z"/>
  <path id="ellipse28" d="m410.8 486.8c0 0.44183-0.35817 0.8-0.8 0.8s-0.8-0.35817-0.8-0.8 0.35817-0.8 0.8-0.8 0.8 0.35817 0.8 0.8z" stroke="#000" stroke-width="2" fill="none"/>
 </g>
 <g id="text30">
  <path id="path3034" style="" d="m524.67 457.07v1.8554h0.84005c0.31089 0.00001 0.55122-0.0805 0.72099-0.24143 0.16978-0.16095 0.25466-0.39026 0.25467-0.68792-0.00001-0.29544-0.0849-0.52365-0.25467-0.6846-0.16977-0.16096-0.4101-0.24143-0.72099-0.24144h-0.84005m-0.66807-0.54901h1.5081c0.55342 0.00001 0.97124 0.12568 1.2535 0.37703 0.28442 0.24916 0.42663 0.61516 0.42664 1.098-0.00001 0.48728-0.14222 0.85549-0.42664 1.1046-0.28223 0.24915-0.70005 0.37372-1.2535 0.37372h-0.84005v1.9844h-0.66807v-4.9378"/>
  <path id="path3036" style="" d="m529.52 456.32c-0.29545 0.50712-0.51483 1.0087-0.65815 1.5048-0.14331 0.49609-0.21497 0.9988-0.21497 1.5081 0 0.50932 0.0717 1.0142 0.21497 1.5147 0.14552 0.4983 0.36491 0.9999 0.65815 1.5048h-0.52916c-0.33073-0.51815-0.57878-1.0275-0.74414-1.528-0.16316-0.5005-0.24474-0.9977-0.24474-1.4916 0-0.49168 0.0816-0.98667 0.24474-1.485 0.16316-0.4983 0.4112-1.0076 0.74414-1.528h0.52916"/>
  <path id="path3038" style="" d="m533.79 457.75-1.3394 1.8025 1.4089 1.9017h-0.71768l-1.0782-1.4552-1.0782 1.4552h-0.71768l1.4387-1.9381-1.3163-1.7661h0.71768l0.98226 1.3196 0.98227-1.3196h0.71768"/>
  <path id="path3040" style="" d="m534.87 457.95h0.69784v0.84005h-0.69784v-0.84005m0 2.6624h0.69784v0.56885l-0.54239 1.0583h-0.42664l0.27119-1.0583v-0.56885"/>
  <path id="path3042" style="" d="m538.55 461.8c-0.17198 0.44097-0.33955 0.7287-0.50271 0.8632-0.16316 0.13449-0.38144 0.20174-0.65484 0.20174h-0.48617v-0.50932h0.35719c0.16757 0 0.29765-0.0397 0.39026-0.11906 0.0926-0.0794 0.19513-0.26679 0.30758-0.56224l0.10914-0.27781-1.4982-3.6446h0.64492l1.1576 2.8972 1.1576-2.8972h0.64492l-1.6272 4.0481"/>
  <path id="path3044" style="" d="m541.17 457.95h0.69784v0.84005h-0.69784v-0.84005m0 2.6624h0.69784v0.56885l-0.54239 1.0583h-0.42665l0.2712-1.0583v-0.56885"/>
  <path id="path3046" style="" d="m543.04 457.75h2.8906v0.55563l-2.2886 2.6624h2.2886v0.48617h-2.9733v-0.55563l2.2886-2.6624h-2.206v-0.48617"/>
  <path id="path3048" style="" d="m546.76 456.32h0.52916c0.33073 0.52035 0.57768 1.0297 0.74084 1.528 0.16536 0.4983 0.24804 0.99329 0.24804 1.485 0 0.49389-0.0827 0.99109-0.24804 1.4916-0.16316 0.5005-0.41011 1.0098-0.74084 1.528h-0.52916c0.29324-0.50492 0.51153-1.0065 0.65484-1.5048 0.14552-0.5005 0.21828-1.0054 0.21828-1.5147 0-0.50932-0.0728-1.012-0.21828-1.5081-0.14331-0.49609-0.3616-0.9977-0.65484-1.5048"/>
 </g>
 <g id="text34">
  <path id="path3051" style="" d="m376.79 473.07v1.8554h0.84005c0.31088 0.00001 0.55121-0.0805 0.72099-0.24143 0.16977-0.16095 0.25466-0.39026 0.25466-0.68792 0-0.29544-0.0849-0.52365-0.25466-0.6846-0.16978-0.16096-0.41011-0.24143-0.72099-0.24144h-0.84005m-0.66808-0.54901h1.5081c0.55342 0.00001 0.97124 0.12568 1.2535 0.37703 0.28442 0.24916 0.42664 0.61516 0.42664 1.098 0 0.48728-0.14222 0.85549-0.42664 1.1046-0.28222 0.24915-0.70004 0.37372-1.2535 0.37372h-0.84005v1.9844h-0.66808v-4.9378"/>
  <path id="path3053" style="" d="m380.75 472.52v1.8356h-0.56223v-1.8356h0.56223"/>
  <path id="path3055" style="" d="m383.51 472.32c-0.29545 0.50712-0.51484 1.0087-0.65815 1.5048-0.14332 0.49609-0.21498 0.9988-0.21497 1.5081-0.00001 0.50932 0.0717 1.0142 0.21497 1.5147 0.14552 0.4983 0.3649 0.9999 0.65815 1.5048h-0.52917c-0.33073-0.51815-0.57877-1.0275-0.74414-1.528-0.16316-0.5005-0.24474-0.9977-0.24474-1.4916 0-0.49168 0.0816-0.98667 0.24474-1.485 0.16316-0.4983 0.41121-1.0076 0.74414-1.528h0.52917"/>
  <path id="path3057" style="" d="m387.77 473.75-1.3395 1.8025 1.4089 1.9017h-0.71768l-1.0782-1.4552-1.0782 1.4552h-0.71768l1.4387-1.9381-1.3163-1.7661h0.71768l0.98227 1.3196 0.98226-1.3196h0.71769"/>
  <path id="path3059" style="" d="m389.27 472.52v1.8356h-0.56224v-1.8356h0.56224"/>
  <path id="path3061" style="" d="m390.72 473.95h0.69784v0.84005h-0.69784v-0.84005m0 2.6624h0.69784v0.56885l-0.5424 1.0583h-0.42664l0.2712-1.0583v-0.56885"/>
  <path id="path3063" style="" d="m394.39 477.8c-0.17198 0.44097-0.33955 0.7287-0.50271 0.8632-0.16316 0.13449-0.38144 0.20174-0.65484 0.20174h-0.48617v-0.50932h0.35718c0.16757 0 0.29766-0.0397 0.39026-0.11906 0.0926-0.0794 0.19513-0.26679 0.30758-0.56224l0.10914-0.27781-1.4982-3.6446h0.64492l1.1576 2.8972 1.1576-2.8972h0.64493l-1.6272 4.0481"/>
  <path id="path3065" style="" d="m397.44 472.52v1.8356h-0.56224v-1.8356h0.56224"/>
  <path id="path3067" style="" d="m398.88 473.95h0.69784v0.84005h-0.69784v-0.84005m0 2.6624h0.69784v0.56885l-0.5424 1.0583h-0.42664l0.2712-1.0583v-0.56885"/>
  <path id="path3069" style="" d="m402.53 472.96c-0.34396 0.00001-0.60303 0.16978-0.77721 0.50933-0.17198 0.33734-0.25797 0.84556-0.25797 1.5247 0 0.67689 0.086 1.1851 0.25797 1.5247 0.17418 0.33734 0.43325 0.50601 0.77721 0.50601 0.34616 0 0.60523-0.16867 0.77722-0.50601 0.17418-0.33955 0.26127-0.84777 0.26127-1.5247 0-0.6791-0.0871-1.1873-0.26127-1.5247-0.17199-0.33955-0.43106-0.50932-0.77722-0.50933m0-0.52916c0.55342 0 0.97565 0.21938 1.2667 0.65815 0.29324 0.43656 0.43986 1.0716 0.43986 1.905 0 0.83123-0.14662 1.4662-0.43986 1.905-0.29105 0.43657-0.71328 0.65485-1.2667 0.65485s-0.97675-0.21828-1.27-0.65485c-0.29104-0.43876-0.43656-1.0738-0.43656-1.905 0-0.83344 0.14552-1.4684 0.43656-1.905 0.29325-0.43877 0.71658-0.65815 1.27-0.65815"/>
  <path id="path3071" style="" d="m405.23 472.32h0.52917c0.33072 0.52035 0.57767 1.0297 0.74083 1.528 0.16536 0.4983 0.24804 0.99329 0.24804 1.485 0 0.49389-0.0827 0.99109-0.24804 1.4916-0.16316 0.5005-0.41011 1.0098-0.74083 1.528h-0.52917c0.29324-0.50492 0.51153-1.0065 0.65484-1.5048 0.14552-0.5005 0.21828-1.0054 0.21828-1.5147 0-0.50932-0.0728-1.012-0.21828-1.5081-0.14331-0.49609-0.3616-0.9977-0.65484-1.5048"/>
 </g>
 <path id="path38" d="m519.34 465.46c4 0 0 12 4 12" stroke="#7f7f7f" stroke-width=".5" fill="none"/>
 <path id="path40" d="m519.34 492.26c4 0 0-14.8 4-14.8" stroke="#7f7f7f" stroke-width=".5" fill="none"/>
 <path id="path42" d="m411.34 481.46c4 0 0 5.2 4 5.2" stroke="#7f7f7f" stroke-width=".5" fill="none"/>
 <path id="path44" d="m411.34 491.46c4 0 0-4.8 4-4.8" stroke="#7f7f7f" stroke-width=".5" fill="none"/>
 <path id="path46" d="m411.34 497.46c0 4.8 52-2 52 4" stroke="#7f7f7f" stroke-width=".5" fill="none"/>
 <path id="path48" d="m519.34 497.46c0 5.2-56-2-56 4" stroke="#7f7f7f" stroke-width=".5" fill="none"/>
 <path id="path50" d="m323.34 497.46c0 4 44 0 44 4" stroke="#7f7f7f" stroke-width=".5" fill="none"/>
 <path id="path52" d="m407.34 497.46c0 5.2-40 0-40 4" stroke="#7f7f7f" stroke-width=".5" fill="none"/>
 <g id="text54">
  <path id="path3074" style="" d="m417.77 488.69c-0.12898 0.33073-0.25466 0.54653-0.37703 0.6474-0.12237 0.10088-0.28608 0.15131-0.49113 0.15131h-0.36463v-0.38199h0.26789c0.12568 0 0.22324-0.0298 0.2927-0.0893 0.0695-0.0595 0.14634-0.20009 0.23068-0.42168l0.0819-0.20836-1.1236-2.7335h0.48369l0.86817 2.1729 0.86816-2.1729h0.48369l-1.2204 3.0361"/>
  <path id="path3076" style="" d="m420.05 484.73v1.3767h-0.42168v-1.3767h0.42168"/>
 </g>
 <g id="text58">
  <path id="path3079" style="" d="m526.97 479.49c-0.12898 0.33073-0.25466 0.54653-0.37703 0.6474s-0.28608 0.15131-0.49113 0.15131h-0.36463v-0.38199h0.26789c0.12568 0 0.22324-0.0298 0.2927-0.0893 0.0694-0.0595 0.14634-0.20009 0.23068-0.42168l0.0819-0.20836-1.1237-2.7335h0.4837l0.86816 2.1729 0.86816-2.1729h0.48369l-1.2204 3.0361"/>
 </g>
 <g id="g62" stroke="#000" fill="none" transform="translate(-.66477 -6.5444)">
  <path id="line64" d="m410 470.24v57.76"/>
  <path id="polyline66" d="m412.5 474.12-2.5-5-2.5 5"/>
 </g>
 <g id="text68">
  <path id="path3084" style="" d="m462.28 507.43h2.1679v0.41672l-1.7165 1.9968h1.7165v0.36463h-2.23v-0.41672l1.7165-1.9968h-1.6545v-0.36463"/>
 </g>
 <g id="text72">
  <path id="path3087" style="" d="m368.03 507.85v-1.5032h0.4564v3.8596h-0.4564v-0.41672c-0.0959 0.16536-0.21746 0.28856-0.36463 0.36959-0.14552 0.0794-0.32081 0.11906-0.52586 0.11906-0.33569 0-0.60937-0.13394-0.82104-0.40184-0.21001-0.26789-0.31502-0.62011-0.31502-1.0567 0-0.43656 0.10501-0.78878 0.31502-1.0567 0.21167-0.26789 0.48535-0.40184 0.82104-0.40184 0.20505 0 0.38034 0.0405 0.52586 0.12154 0.14717 0.0794 0.26871 0.20175 0.36463 0.36711m-1.5553 0.96986c0 0.3357 0.0686 0.59945 0.20588 0.79127 0.13891 0.19017 0.32908 0.28526 0.57051 0.28526s0.4316-0.0951 0.57051-0.28526c0.1389-0.19182 0.20835-0.45557 0.20836-0.79127-0.00001-0.33568-0.0695-0.59861-0.20836-0.78878-0.13891-0.19182-0.32908-0.28774-0.57051-0.28774s-0.4316 0.0959-0.57051 0.28774c-0.13725 0.19017-0.20588 0.4531-0.20588 0.78878"/>
 </g>
 <g id="text76">
  <path id="path3090" style="" d="m412.97 463.49c-0.12898 0.33073-0.25466 0.54653-0.37703 0.6474s-0.28608 0.15131-0.49113 0.15131h-0.36463v-0.38199h0.26789c0.12568 0 0.22324-0.0298 0.2927-0.0893 0.0695-0.0595 0.14634-0.20009 0.23068-0.42168l0.0819-0.20836-1.1237-2.7335h0.4837l0.86816 2.1729 0.86816-2.1729h0.4837l-1.2204 3.0361"/>
 </g>
 <g id="text80">
  <path id="path3093" style="" d="m530.28 495.43h2.1679v0.41672l-1.7165 1.9968h1.7165v0.36463h-2.23v-0.41672l1.7165-1.9968h-1.6545v-0.36463"/>
 </g>
 <g id="text84">
  <path id="path3096" style="" d="m296 504.52h0.9955l1.2601 3.3602 1.2667-3.3602h0.9955v4.9378h-0.65154v-4.3359l-1.2733 3.3867h-0.67138l-1.2733-3.3867v4.3359h-0.64823v-4.9378"/>
  <path id="path3098" style="" d="m303.28 504.32c-0.29545 0.50712-0.51483 1.0087-0.65815 1.5048-0.14331 0.49609-0.21497 0.9988-0.21497 1.5081 0 0.50932 0.0717 1.0142 0.21497 1.5147 0.14552 0.4983 0.36491 0.9999 0.65815 1.5048h-0.52916c-0.33073-0.51815-0.57878-1.0275-0.74414-1.528-0.16316-0.5005-0.24474-0.9977-0.24474-1.4916 0-0.49168 0.0816-0.98667 0.24474-1.485 0.16316-0.4983 0.4112-1.0076 0.74414-1.528h0.52916"/>
  <path id="path3100" style="" d="m305.98 504.96c-0.34396 0.00001-0.60303 0.16978-0.77721 0.50933-0.17198 0.33734-0.25797 0.84556-0.25797 1.5247 0 0.67689 0.086 1.1851 0.25797 1.5247 0.17418 0.33734 0.43325 0.50601 0.77721 0.50601 0.34616 0 0.60523-0.16867 0.77722-0.50601 0.17418-0.33955 0.26127-0.84777 0.26127-1.5247 0-0.6791-0.0871-1.1873-0.26127-1.5247-0.17199-0.33955-0.43106-0.50932-0.77722-0.50933m0-0.52916c0.55342 0 0.97565 0.21938 1.2667 0.65815 0.29325 0.43656 0.43987 1.0716 0.43987 1.905 0 0.83123-0.14662 1.4662-0.43987 1.905-0.29104 0.43657-0.71327 0.65485-1.2667 0.65485-0.55342 0-0.97675-0.21828-1.27-0.65485-0.29104-0.43876-0.43656-1.0738-0.43656-1.905 0-0.83344 0.14552-1.4684 0.43656-1.905 0.29325-0.43877 0.71658-0.65815 1.27-0.65815"/>
  <path id="path3102" style="" d="m308.93 505.95h0.69784v0.84005h-0.69784v-0.84005m0 2.6624h0.69784v0.56885l-0.54239 1.0583h-0.42664l0.27119-1.0583v-0.56885"/>
  <path id="path3104" style="" d="m312.58 504.96c-0.34396 0.00001-0.60303 0.16978-0.77721 0.50933-0.17198 0.33734-0.25797 0.84556-0.25797 1.5247 0 0.67689 0.086 1.1851 0.25797 1.5247 0.17418 0.33734 0.43325 0.50601 0.77721 0.50601 0.34616 0 0.60524-0.16867 0.77722-0.50601 0.17418-0.33955 0.26127-0.84777 0.26127-1.5247 0-0.6791-0.0871-1.1873-0.26127-1.5247-0.17198-0.33955-0.43106-0.50932-0.77722-0.50933m0-0.52916c0.55342 0 0.97565 0.21938 1.2667 0.65815 0.29324 0.43656 0.43986 1.0716 0.43987 1.905-0.00001 0.83123-0.14663 1.4662-0.43987 1.905-0.29105 0.43657-0.71328 0.65485-1.2667 0.65485s-0.97675-0.21828-1.27-0.65485c-0.29104-0.43876-0.43656-1.0738-0.43656-1.905 0-0.83344 0.14552-1.4684 0.43656-1.905 0.29325-0.43877 0.71658-0.65815 1.27-0.65815"/>
  <path id="path3106" style="" d="m315.54 505.95h0.69784v0.84005h-0.69784v-0.84005m0 2.6624h0.69784v0.56885l-0.54239 1.0583h-0.42664l0.27119-1.0583v-0.56885"/>
  <path id="path3108" style="" d="m317.36 507.33h1.7826v0.54239h-1.7826v-0.54239"/>
  <path id="path3110" style="" d="m322.55 506.31v-2.0042h0.60855v5.1462h-0.60855v-0.55563c-0.12788 0.22049-0.28994 0.38475-0.48617 0.49279-0.19403 0.10583-0.42774 0.15875-0.70114 0.15875-0.44759 0-0.81249-0.1786-1.0947-0.53578-0.28001-0.35719-0.42002-0.82682-0.42002-1.4089s0.14001-1.0517 0.42002-1.4089c0.28223-0.35719 0.64713-0.53578 1.0947-0.53578 0.2734 0 0.50711 0.054 0.70114 0.16205 0.19623 0.10584 0.35829 0.269 0.48617 0.48948m-2.0737 1.2932c0 0.44759 0.0915 0.79926 0.27451 1.055 0.18521 0.25356 0.43876 0.38034 0.76068 0.38034 0.3219 0 0.57546-0.12678 0.76067-0.38034 0.18521-0.25577 0.27781-0.60744 0.27781-1.055 0-0.44758-0.0926-0.79815-0.27781-1.0517-0.18521-0.25576-0.43877-0.38364-0.76067-0.38364-0.32192 0-0.57547 0.12788-0.76068 0.38364-0.18301 0.25357-0.27451 0.60414-0.27451 1.0517"/>
  <path id="path3112" style="" d="m324.32 504.32h0.52916c0.33073 0.52035 0.57767 1.0297 0.74084 1.528 0.16536 0.4983 0.24804 0.99329 0.24804 1.485 0 0.49389-0.0827 0.99109-0.24804 1.4916-0.16317 0.5005-0.41011 1.0098-0.74084 1.528h-0.52916c0.29324-0.50492 0.51152-1.0065 0.65484-1.5048 0.14552-0.5005 0.21828-1.0054 0.21828-1.5147 0-0.50932-0.0728-1.012-0.21828-1.5081-0.14332-0.49609-0.3616-0.9977-0.65484-1.5048"/>
 </g>
</svg>
