<?xml version="1.0" encoding="UTF-8" standalone="no"?>
<!-- Created with Inkscape (http://www.inkscape.org/) -->
<svg id="svg2" xmlns:rdf="http://www.w3.org/1999/02/22-rdf-syntax-ns#" xmlns="http://www.w3.org/2000/svg" height="432.41" width="1202.9" version="1.1" xmlns:cc="http://creativecommons.org/ns#" xmlns:dc="http://purl.org/dc/elements/1.1/" viewBox="73 -101 667.00001 229.05137">
 <metadata id="metadata174">
  <rdf:RDF>
   <cc:Work rdf:about="">
    <dc:format>image/svg+xml</dc:format>
    <dc:type rdf:resource="http://purl.org/dc/dcmitype/StillImage"/>
   </cc:Work>
  </rdf:RDF>
 </metadata>
 <g id="text4">
  <path id="path3066" style="" d="m156.69 95.805c-0.00001-1.0444-0.21608-1.8624-0.64823-2.454-0.42701-0.59677-1.0161-0.89516-1.7672-0.89517-0.75112 0.000008-1.3428 0.2984-1.7749 0.89517-0.42701 0.59164-0.64051 1.4096-0.64051 2.454s0.2135 1.8649 0.64051 2.4617c0.43215 0.59164 1.0238 0.88746 1.7749 0.88745 0.75112 0.000001 1.3402-0.29582 1.7672-0.88745 0.43215-0.59678 0.64822-1.4174 0.64823-2.4617m-4.83-3.017c0.29839-0.51446 0.67395-0.89516 1.1267-1.1421 0.45787-0.25208 1.0032-0.37812 1.636-0.37813 1.0495 0.000008 1.9009 0.41673 2.5543 1.2502 0.65851 0.83344 0.98777 1.9293 0.98778 3.2874-0.00001 1.3582-0.32927 2.454-0.98778 3.2874-0.65338 0.83344-1.5048 1.2502-2.5543 1.2502-0.6328 0-1.1781-0.12348-1.636-0.37042-0.45274-0.25209-0.8283-0.63536-1.1267-1.1498v1.2965h-1.4276v-12.008h1.4276v4.6765"/>
  <path id="path3068" style="" d="m167.91 95.442v0.69453h-6.5286c0.0617 0.97749 0.35498 1.7235 0.87974 2.2379 0.5299 0.50932 1.2656 0.76398 2.2071 0.76398 0.54533 0.000001 1.0727-0.06688 1.582-0.20064 0.51446-0.13376 1.0238-0.3344 1.528-0.60192v1.3428c-0.50933 0.21608-1.0315 0.38071-1.5666 0.49389-0.53505 0.11318-1.0778 0.16978-1.6283 0.16978-1.3788 0-2.472-0.40129-3.2797-1.2039-0.80257-0.80257-1.2038-1.8881-1.2038-3.2566 0-1.4148 0.3807-2.5363 1.1421-3.3646 0.76655-0.83343 1.798-1.2501 3.0945-1.2502 1.1627 0.000008 2.081 0.37557 2.755 1.1267 0.67908 0.74598 1.0186 1.7621 1.0186 3.0482m-1.4199-0.41672c-0.0103-0.77684-0.22894-1.3968-0.65594-1.8598-0.42187-0.46301-0.98264-0.69452-1.6823-0.69453-0.79228 0.000008-1.4276 0.2238-1.9061 0.67138-0.47332 0.44759-0.74598 1.0778-0.81801 1.8907l5.0624-0.0077"/>
  <path id="path3070" style="" d="m173.59 92.471c-0.76142 0.000008-1.3633 0.2984-1.8058 0.89517-0.44244 0.59164-0.66366 1.4045-0.66366 2.4386s0.21864 1.8495 0.65594 2.4463c0.44244 0.59164 1.0469 0.88746 1.8135 0.88745 0.75625 0.000001 1.3556-0.29839 1.798-0.89517 0.44244-0.59678 0.66366-1.4096 0.66367-2.4386-0.00001-1.0238-0.22123-1.8341-0.66367-2.4309-0.44244-0.60192-1.0418-0.90288-1.798-0.90289m0-1.2038c1.2347 0.000008 2.2045 0.40129 2.9093 1.2038 0.70481 0.80257 1.0572 1.9138 1.0572 3.3337-0.00001 1.4148-0.35242 2.526-1.0572 3.3337-0.70482 0.80257-1.6746 1.2039-2.9093 1.2039-1.2399 0-2.2122-0.40129-2.917-1.2039-0.69967-0.80771-1.0495-1.919-1.0495-3.3337 0-1.4199 0.34984-2.5312 1.0495-3.3337 0.70482-0.80256 1.6772-1.2038 2.917-1.2038"/>
  <path id="path3072" style="" d="m179.91 88.111h1.4199v12.008h-1.4199v-12.008"/>
  <path id="path3074" style="" d="m183.27 91.476h1.5048l2.7009 7.254 2.701-7.254h1.5048l-3.2411 8.643h-1.9292l-3.2411-8.643"/>
  <path id="path3076" style="" d="m197.57 95.774c-1.1473 0.000004-1.9421 0.13119-2.3846 0.39357-0.44244 0.26238-0.66366 0.70997-0.66366 1.3428 0 0.50418 0.16463 0.90546 0.49389 1.2039 0.3344 0.29325 0.78713 0.43987 1.3582 0.43987 0.78713 0.000001 1.4174-0.27781 1.8907-0.83344 0.47845-0.56077 0.71767-1.3042 0.71768-2.2302v-0.3164h-1.4122m2.8321-0.58649v4.9312h-1.4199v-1.3119c-0.32412 0.52476-0.72797 0.91318-1.2116 1.1653-0.4836 0.24694-1.0752 0.37042-1.7749 0.37042-0.88489 0-1.5897-0.24695-2.1145-0.74084-0.51961-0.49903-0.77942-1.1653-0.77942-1.9987 0-0.97234 0.32412-1.7055 0.97234-2.1993 0.65337-0.49388 1.6257-0.74083 2.917-0.74083h1.991v-0.13891c-0.00001-0.65336-0.21608-1.1575-0.64823-1.5125-0.42701-0.36012-1.0289-0.54018-1.8058-0.54019-0.49389 0.000008-0.97492 0.05917-1.4431 0.17749-0.46817 0.11834-0.91832 0.29582-1.3505 0.53247v-1.3119c0.51961-0.20063 1.0238-0.34983 1.5125-0.44759 0.48874-0.10288 0.96462-0.15433 1.4276-0.15434 1.2502 0.000008 2.1839 0.32412 2.8013 0.97234 0.61735 0.64823 0.92603 1.6309 0.92604 2.9479"/>
  <path id="path3078" style="" d="m208.85 91.73v1.3428c-0.40129-0.20578-0.818-0.36012-1.2502-0.46302-0.43216-0.10288-0.87974-0.15433-1.3428-0.15434-0.70483 0.000008-1.2347 0.10805-1.5897 0.32411-0.34983 0.21608-0.52475 0.5402-0.52475 0.97234 0 0.32926 0.12604 0.58907 0.37813 0.77942 0.25209 0.18521 0.75884 0.3627 1.5202 0.53247l0.48617 0.10804c1.0084 0.21608 1.7235 0.52219 2.1453 0.91832 0.427 0.391 0.64051 0.9389 0.64051 1.6437 0 0.80257-0.31897 1.4379-0.9569 1.9061-0.6328 0.46816-1.5048 0.70225-2.6161 0.70225-0.46303 0-0.94662-0.0463-1.4508-0.13891-0.49903-0.0875-1.0264-0.22122-1.582-0.40128v-1.4662c0.52475 0.27267 1.0418 0.47845 1.5511 0.61736 0.50932 0.13376 1.0135 0.20064 1.5125 0.20064 0.66881 0.000001 1.1833-0.11318 1.5434-0.33955 0.36012-0.23151 0.54019-0.55562 0.54019-0.97234 0-0.38585-0.13119-0.68166-0.39356-0.88745-0.25724-0.20578-0.82573-0.40385-1.7055-0.59421l-0.49389-0.11576c-0.87974-0.1852-1.5151-0.46816-1.9061-0.84887-0.391-0.38584-0.5865-0.91317-0.5865-1.582 0-0.81285 0.2881-1.4405 0.86431-1.8829 0.5762-0.44243 1.3942-0.66365 2.454-0.66366 0.52475 0.000008 1.0186 0.03859 1.4817 0.11575 0.46302 0.07718 0.89002 0.19293 1.281 0.34726"/>
  <path id="path3080" style="" d="m215.51 95.774c-1.1473 0.000004-1.9421 0.13119-2.3846 0.39357-0.44244 0.26238-0.66366 0.70997-0.66366 1.3428 0 0.50418 0.16462 0.90546 0.49389 1.2039 0.3344 0.29325 0.78713 0.43987 1.3582 0.43987 0.78712 0.000001 1.4173-0.27781 1.8907-0.83344 0.47845-0.56077 0.71767-1.3042 0.71768-2.2302v-0.3164h-1.4122m2.8321-0.58649v4.9312h-1.4199v-1.3119c-0.32412 0.52476-0.72798 0.91318-1.2116 1.1653-0.4836 0.24694-1.0752 0.37042-1.7749 0.37042-0.88488 0-1.5897-0.24695-2.1144-0.74084-0.51961-0.49903-0.77942-1.1653-0.77942-1.9987 0-0.97234 0.32411-1.7055 0.97234-2.1993 0.65337-0.49388 1.6257-0.74083 2.917-0.74083h1.991v-0.13891c-0.00001-0.65336-0.21608-1.1575-0.64823-1.5125-0.42701-0.36012-1.0289-0.54018-1.8058-0.54019-0.4939 0.000008-0.97492 0.05917-1.4431 0.17749-0.46817 0.11834-0.91833 0.29582-1.3505 0.53247v-1.3119c0.51961-0.20063 1.0238-0.34983 1.5125-0.44759 0.48873-0.10288 0.96462-0.15433 1.4276-0.15434 1.2502 0.000008 2.1839 0.32412 2.8013 0.97234 0.61735 0.64823 0.92603 1.6309 0.92604 2.9479m-2.5929-7.7093h1.5357l-2.5157 2.9016h-1.1807l2.1608-2.9016"/>
  <path id="path3082" style="" d="m226.78 91.73v1.3428c-0.40129-0.20578-0.818-0.36012-1.2502-0.46302-0.43216-0.10288-0.87974-0.15433-1.3428-0.15434-0.70482 0.000008-1.2347 0.10805-1.5897 0.32411-0.34984 0.21608-0.52475 0.5402-0.52475 0.97234 0 0.32926 0.12604 0.58907 0.37813 0.77942 0.25209 0.18521 0.75883 0.3627 1.5202 0.53247l0.48617 0.10804c1.0084 0.21608 1.7234 0.52219 2.1453 0.91832 0.427 0.391 0.6405 0.9389 0.64051 1.6437-0.00001 0.80257-0.31897 1.4379-0.9569 1.9061-0.6328 0.46816-1.5048 0.70225-2.6161 0.70225-0.46302 0-0.94662-0.0463-1.4508-0.13891-0.49903-0.0875-1.0264-0.22122-1.582-0.40128v-1.4662c0.52475 0.27267 1.0418 0.47845 1.5511 0.61736 0.50932 0.13376 1.0135 0.20064 1.5125 0.20064 0.6688 0.000001 1.1833-0.11318 1.5434-0.33955 0.36012-0.23151 0.54018-0.55562 0.54019-0.97234-0.00001-0.38585-0.13119-0.68166-0.39357-0.88745-0.25723-0.20578-0.82572-0.40385-1.7054-0.59421l-0.49389-0.11576c-0.87974-0.1852-1.5151-0.46816-1.9061-0.84887-0.39099-0.38584-0.58649-0.91317-0.58649-1.582 0-0.81285 0.2881-1.4405 0.86431-1.8829 0.5762-0.44243 1.3942-0.66365 2.454-0.66366 0.52475 0.000008 1.0186 0.03859 1.4817 0.11575 0.46302 0.07718 0.89002 0.19293 1.281 0.34726"/>
 </g>
 <g id="text8">
  <path id="path3085" style="" d="m196.18 72.788v-4.6765h1.4199v12.008h-1.4199v-1.2965c-0.29839 0.51447-0.67653 0.89774-1.1344 1.1498-0.45274 0.24694-0.99807 0.37042-1.636 0.37042-1.0444-0.000001-1.8958-0.41672-2.5543-1.2502-0.65338-0.83343-0.98006-1.9292-0.98006-3.2874s0.32668-2.454 0.98006-3.2874c0.65851-0.83343 1.51-1.2501 2.5543-1.2502 0.63794 0.000008 1.1833 0.12605 1.636 0.37813 0.45786 0.24695 0.836 0.62766 1.1344 1.1421m-4.8386 3.0173c0 1.0444 0.2135 1.8649 0.64051 2.4617 0.43215 0.59164 1.0238 0.88746 1.7749 0.88745 0.75111 0.000001 1.3428-0.29582 1.7749-0.88745 0.43214-0.59678 0.64822-1.4174 0.64822-2.4617 0-1.0444-0.21608-1.8624-0.64822-2.454-0.43216-0.59677-1.0238-0.89516-1.7749-0.89517-0.75113 0.000008-1.3428 0.2984-1.7749 0.89517-0.42701 0.59164-0.64051 1.4096-0.64051 2.454"/>
  <path id="path3087" style="" d="m207.91 75.442v0.69453h-6.5286c0.0617 0.97749 0.35498 1.7235 0.87974 2.2379 0.5299 0.50932 1.2656 0.76398 2.2071 0.76398 0.54533 0.000001 1.0727-0.06688 1.582-0.20064 0.51446-0.13376 1.0238-0.3344 1.528-0.60192v1.3428c-0.50933 0.21608-1.0315 0.3807-1.5666 0.49389-0.53505 0.11318-1.0778 0.16977-1.6283 0.16977-1.3788-0.000001-2.472-0.40128-3.2797-1.2039-0.80257-0.80257-1.2038-1.8881-1.2038-3.2566 0-1.4148 0.3807-2.5363 1.1421-3.3646 0.76655-0.83343 1.798-1.2501 3.0945-1.2502 1.1627 0.000008 2.081 0.37557 2.755 1.1267 0.67908 0.74598 1.0186 1.7621 1.0186 3.0482m-1.4199-0.41672c-0.0103-0.77684-0.22894-1.3968-0.65594-1.8598-0.42187-0.46301-0.98264-0.69452-1.6823-0.69453-0.79228 0.000008-1.4276 0.2238-1.9061 0.67138-0.47332 0.44759-0.74598 1.0778-0.81801 1.8907l5.0624-0.0077"/>
  <path id="path3089" style="" d="m210.19 68.111h1.4276v7.0919l4.2366-3.7273h1.8135l-4.5839 4.0437 4.7768 4.5993h-1.8521l-4.391-4.2212v4.2212h-1.4276v-12.008"/>
  <path id="path3091" style="" d="m222.2 72.471c-0.76141 0.000008-1.3633 0.2984-1.8058 0.89517-0.44245 0.59164-0.66367 1.4045-0.66367 2.4386s0.21865 1.8495 0.65595 2.4463c0.44244 0.59164 1.0469 0.88746 1.8135 0.88745 0.75626 0.000001 1.3556-0.29839 1.7981-0.89517 0.44243-0.59678 0.66365-1.4096 0.66366-2.4386-0.00001-1.0238-0.22123-1.8341-0.66366-2.4309-0.44245-0.60192-1.0418-0.90288-1.7981-0.90289m0-1.2038c1.2347 0.000008 2.2045 0.40129 2.9093 1.2038 0.70481 0.80257 1.0572 1.9138 1.0572 3.3337-0.00001 1.4148-0.35242 2.526-1.0572 3.3337-0.70483 0.80257-1.6746 1.2038-2.9093 1.2039-1.2399-0.000001-2.2122-0.40128-2.917-1.2039-0.69968-0.80771-1.0495-1.919-1.0495-3.3337 0-1.4199 0.34983-2.5312 1.0495-3.3337 0.70481-0.80256 1.6772-1.2038 2.917-1.2038m1.0727-3.789h1.5357l-2.5157 2.9016h-1.1807l2.1608-2.9016"/>
  <path id="path3093" style="" d="m234.2 72.788v-4.6765h1.4199v12.008h-1.4199v-1.2965c-0.29839 0.51447-0.67652 0.89774-1.1344 1.1498-0.45274 0.24694-0.99807 0.37042-1.636 0.37042-1.0444-0.000001-1.8958-0.41672-2.5543-1.2502-0.65337-0.83343-0.98006-1.9292-0.98006-3.2874s0.32669-2.454 0.98006-3.2874c0.65851-0.83343 1.51-1.2501 2.5543-1.2502 0.63794 0.000008 1.1833 0.12605 1.636 0.37813 0.45787 0.24695 0.836 0.62766 1.1344 1.1421m-4.8386 3.0173c0 1.0444 0.2135 1.8649 0.64051 2.4617 0.43215 0.59164 1.0238 0.88746 1.7749 0.88745 0.75111 0.000001 1.3428-0.29582 1.7749-0.88745 0.43214-0.59678 0.64822-1.4174 0.64822-2.4617 0-1.0444-0.21608-1.8624-0.64822-2.454-0.43216-0.59677-1.0238-0.89516-1.7749-0.89517-0.75113 0.000008-1.3428 0.2984-1.7749 0.89517-0.42701 0.59164-0.64051 1.4096-0.64051 2.454"/>
  <path id="path3095" style="" d="m241.89 72.471c-0.76142 0.000008-1.3633 0.2984-1.8058 0.89517-0.44244 0.59164-0.66366 1.4045-0.66366 2.4386s0.21864 1.8495 0.65594 2.4463c0.44244 0.59164 1.0469 0.88746 1.8135 0.88745 0.75625 0.000001 1.3556-0.29839 1.798-0.89517 0.44244-0.59678 0.66366-1.4096 0.66367-2.4386-0.00001-1.0238-0.22123-1.8341-0.66367-2.4309-0.44244-0.60192-1.0418-0.90288-1.798-0.90289m0-1.2038c1.2347 0.000008 2.2045 0.40129 2.9093 1.2038 0.70481 0.80257 1.0572 1.9138 1.0572 3.3337-0.00001 1.4148-0.35242 2.526-1.0572 3.3337-0.70482 0.80257-1.6746 1.2038-2.9093 1.2039-1.2399-0.000001-2.2122-0.40128-2.917-1.2039-0.69967-0.80771-1.0495-1.919-1.0495-3.3337 0-1.4199 0.34984-2.5312 1.0495-3.3337 0.70482-0.80256 1.6772-1.2038 2.917-1.2038"/>
  <path id="path3097" style="" d="m248.2 68.111h1.4199v12.008h-1.4199v-12.008"/>
  <path id="path3099" style="" d="m256.52 75.774c-1.1473 0.000004-1.9421 0.13119-2.3846 0.39357-0.44244 0.26238-0.66366 0.70997-0.66366 1.3428 0 0.50418 0.16463 0.90546 0.49389 1.2039 0.3344 0.29325 0.78713 0.43987 1.3582 0.43987 0.78713 0.000001 1.4174-0.27781 1.8907-0.83344 0.47845-0.56077 0.71768-1.3042 0.71768-2.2302v-0.3164h-1.4122m2.8321-0.58649v4.9312h-1.4199v-1.3119c-0.32412 0.52476-0.72797 0.91318-1.2116 1.1653-0.48361 0.24694-1.0752 0.37042-1.7749 0.37042-0.88489-0.000001-1.5897-0.24694-2.1145-0.74083-0.51961-0.49903-0.77941-1.1653-0.77941-1.9987 0-0.97234 0.32411-1.7055 0.97234-2.1993 0.65337-0.49388 1.6257-0.74083 2.917-0.74083h1.991v-0.13891c0-0.65336-0.21608-1.1575-0.64822-1.5125-0.42702-0.36012-1.0289-0.54018-1.8058-0.54019-0.49389 0.000008-0.97492 0.05917-1.4431 0.17749-0.46816 0.11834-0.91832 0.29582-1.3505 0.53247v-1.3119c0.51961-0.20063 1.0238-0.34983 1.5125-0.44759 0.48874-0.10288 0.96462-0.15433 1.4276-0.15434 1.2502 0.000008 2.1839 0.32412 2.8013 0.97234 0.61735 0.64823 0.92603 1.6309 0.92604 2.9479m-2.5929-7.7093h1.5357l-2.5157 2.9016h-1.1807l2.1608-2.9016"/>
  <path id="path3101" style="" d="m267.79 71.73v1.3428c-0.40129-0.20578-0.81801-0.36012-1.2502-0.46302-0.43215-0.10288-0.87974-0.15433-1.3428-0.15434-0.70483 0.000008-1.2347 0.10805-1.5897 0.32411-0.34984 0.21608-0.52476 0.5402-0.52476 0.97234 0 0.32926 0.12604 0.58907 0.37813 0.77942 0.25209 0.18521 0.75884 0.3627 1.5202 0.53247l0.48617 0.10804c1.0084 0.21608 1.7235 0.52219 2.1453 0.91832 0.427 0.391 0.64051 0.9389 0.64052 1.6437-0.00001 0.80257-0.31898 1.4379-0.95691 1.9061-0.6328 0.46816-1.5048 0.70225-2.6161 0.70225-0.46303-0.000001-0.94662-0.0463-1.4508-0.13891-0.49903-0.08746-1.0264-0.22122-1.582-0.40128v-1.4662c0.52475 0.27267 1.0418 0.47845 1.5511 0.61736 0.50931 0.13376 1.0135 0.20064 1.5125 0.20064 0.6688 0.000001 1.1833-0.11318 1.5434-0.33955 0.36012-0.23151 0.54019-0.55562 0.54019-0.97234 0-0.38585-0.13119-0.68166-0.39356-0.88745-0.25724-0.20578-0.82573-0.40385-1.7055-0.59421l-0.49389-0.11576c-0.87974-0.1852-1.5151-0.46816-1.9061-0.84887-0.391-0.38584-0.5865-0.91317-0.58649-1.582-0.00001-0.81285 0.2881-1.4405 0.8643-1.8829 0.5762-0.44243 1.3942-0.66365 2.454-0.66366 0.52475 0.000008 1.0186 0.03859 1.4817 0.11575 0.46302 0.07718 0.89002 0.19293 1.281 0.34726"/>
 </g>
 <g id="text12">
  <path id="path3104" style="" d="m229.47 51.476h1.5048l2.701 7.254 2.7009-7.254h1.5048l-3.2411 8.643h-1.9292l-3.2411-8.643"/>
  <path id="path3106" style="" d="m247.24 55.442v0.69453h-6.5286c0.0617 0.97749 0.35498 1.7235 0.87973 2.2379 0.5299 0.50932 1.2656 0.76398 2.2071 0.76398 0.54533 0.000001 1.0727-0.06688 1.582-0.20064 0.51446-0.13376 1.0238-0.3344 1.528-0.60192v1.3428c-0.50933 0.21608-1.0315 0.3807-1.5666 0.49389-0.53505 0.11318-1.0778 0.16977-1.6283 0.16977-1.3788-0.000001-2.472-0.40128-3.2797-1.2039-0.80257-0.80257-1.2039-1.8881-1.2038-3.2566-0.00001-1.4148 0.3807-2.5363 1.1421-3.3646 0.76655-0.83343 1.7981-1.2501 3.0945-1.2502 1.1627 0.000008 2.081 0.37557 2.755 1.1267 0.67909 0.74598 1.0186 1.7621 1.0186 3.0482m-1.4199-0.41672c-0.0103-0.77684-0.22895-1.3968-0.65595-1.8598-0.42187-0.46301-0.98263-0.69452-1.6823-0.69453-0.79228 0.000008-1.4276 0.2238-1.9061 0.67138-0.47331 0.44759-0.74598 1.0778-0.818 1.8907l5.0624-0.0077m-1.3659-7.5472h1.5357l-2.5157 2.9016h-1.1807l2.1608-2.9016"/>
  <path id="path3108" style="" d="m255.25 55.697c-0.00001-1.0289-0.21351-1.8263-0.64051-2.3923-0.42187-0.56591-1.0161-0.84886-1.7826-0.84887-0.76141 0.000008-1.3556 0.28296-1.7826 0.84887-0.42187 0.56592-0.6328 1.3633-0.6328 2.3923 0 1.0238 0.21093 1.8186 0.6328 2.3846 0.427 0.56591 1.0212 0.84887 1.7826 0.84887 0.76655 0.000001 1.3608-0.28296 1.7826-0.84887 0.427-0.56591 0.6405-1.3608 0.64051-2.3846m1.4199 3.3492c0 1.4714-0.32669 2.5646-0.98005 3.2797-0.65338 0.72025-1.654 1.0804-3.0019 1.0804-0.49904-0.000004-0.96978-0.03859-1.4122-0.11576-0.44245-0.07203-0.87203-0.18521-1.2887-0.33955v-1.3813c0.41671 0.22636 0.82829 0.39356 1.2347 0.5016 0.40642 0.10804 0.82057 0.16206 1.2424 0.16206 0.93118-0.000002 1.6283-0.24437 2.0913-0.73311 0.46301-0.4836 0.69452-1.2167 0.69453-2.1993v-0.70225c-0.29326 0.50932-0.66882 0.89003-1.1267 1.1421-0.45788 0.25209-1.0058 0.37813-1.6437 0.37813-1.0598 0-1.9138-0.40386-2.562-1.2116-0.64823-0.80771-0.97235-1.8778-0.97235-3.2103 0-1.3376 0.32412-2.4103 0.97235-3.218 0.64822-0.8077 1.5022-1.2116 2.562-1.2116 0.63793 0.000008 1.1858 0.12605 1.6437 0.37813 0.45786 0.2521 0.83342 0.6328 1.1267 1.1421v-1.3119h1.4199v7.5704"/>
  <path id="path3110" style="" d="m264.61 52.803c-0.15949-0.0926-0.33441-0.15948-0.52475-0.20064-0.18522-0.04629-0.391-0.06944-0.61736-0.06945-0.80257 0.000008-1.4199 0.26238-1.8521 0.78713-0.42701 0.51962-0.64051 1.2682-0.64051 2.2456v4.553h-1.4276v-8.643h1.4276v1.3428c0.29839-0.52475 0.68681-0.91317 1.1653-1.1653 0.47844-0.25722 1.0598-0.38584 1.744-0.38585 0.0977 0.000008 0.20578 0.0077 0.32411 0.02315 0.11832 0.0103 0.24951 0.0283 0.39357 0.05402l0.008 1.4585"/>
  <path id="path3112" style="" d="m273.16 55.442v0.69453h-6.5286c0.0617 0.97749 0.35498 1.7235 0.87974 2.2379 0.5299 0.50932 1.2656 0.76398 2.2071 0.76398 0.54533 0.000001 1.0727-0.06688 1.582-0.20064 0.51445-0.13376 1.0238-0.3344 1.528-0.60192v1.3428c-0.50933 0.21608-1.0315 0.3807-1.5666 0.49389-0.53505 0.11318-1.0778 0.16977-1.6283 0.16977-1.3788-0.000001-2.472-0.40128-3.2797-1.2039-0.80257-0.80257-1.2038-1.8881-1.2038-3.2566 0-1.4148 0.38071-2.5363 1.1421-3.3646 0.76655-0.83343 1.798-1.2501 3.0945-1.2502 1.1627 0.000008 2.081 0.37557 2.755 1.1267 0.67908 0.74598 1.0186 1.7621 1.0186 3.0482m-1.4199-0.41672c-0.0103-0.77684-0.22894-1.3968-0.65594-1.8598-0.42187-0.46301-0.98264-0.69452-1.6823-0.69453-0.79229 0.000008-1.4276 0.2238-1.9061 0.67138-0.47331 0.44759-0.74598 1.0778-0.818 1.8907l5.0623-0.0077"/>
  <path id="path3114" style="" d="m282.67 54.902v5.2167h-1.4199v-5.1704c-0.00001-0.818-0.1595-1.4302-0.47846-1.8366-0.31897-0.40642-0.79743-0.60964-1.4354-0.60964-0.76656 0.000008-1.371 0.24438-1.8135 0.73312-0.44244 0.48875-0.66367 1.155-0.66366 1.9987v4.8849h-1.4276v-12.008h1.4276v4.7074c0.33954-0.5196 0.73825-0.90802 1.1961-1.1653 0.46302-0.25722 0.99549-0.38584 1.5974-0.38585 0.99291 0.000008 1.744 0.30869 2.2534 0.92604 0.50931 0.61222 0.76397 1.5151 0.76398 2.7087"/>
  <path id="path3116" style="" d="m289.45 55.774c-1.1473 0.000004-1.9421 0.13119-2.3846 0.39357-0.44244 0.26238-0.66366 0.70997-0.66366 1.3428 0 0.50418 0.16463 0.90546 0.49389 1.2039 0.3344 0.29325 0.78713 0.43987 1.3582 0.43987 0.78713 0.000001 1.4174-0.27781 1.8907-0.83344 0.47845-0.56077 0.71767-1.3042 0.71768-2.2302v-0.3164h-1.4122m2.8321-0.58649v4.9312h-1.4199v-1.3119c-0.32412 0.52476-0.72797 0.91318-1.2116 1.1653-0.4836 0.24694-1.0752 0.37042-1.7749 0.37042-0.88489-0.000001-1.5897-0.24694-2.1145-0.74083-0.51961-0.49903-0.77942-1.1653-0.77942-1.9987 0-0.97234 0.32412-1.7055 0.97234-2.1993 0.65337-0.49388 1.6257-0.74083 2.917-0.74083h1.991v-0.13891c-0.00001-0.65336-0.21608-1.1575-0.64823-1.5125-0.42701-0.36012-1.0289-0.54018-1.8058-0.54019-0.49389 0.000008-0.97492 0.05917-1.4431 0.17749-0.46817 0.11834-0.91832 0.29582-1.3505 0.53247v-1.3119c0.51961-0.20063 1.0238-0.34983 1.5125-0.44759 0.48874-0.10288 0.96462-0.15433 1.4276-0.15434 1.2502 0.000008 2.1839 0.32412 2.8013 0.97234 0.61735 0.64823 0.92603 1.6309 0.92604 2.9479"/>
  <path id="path3118" style="" d="m295.21 51.476h1.4199v8.7974c0 1.101-0.21094 1.8984-0.6328 2.3923-0.41671 0.49388-1.0907 0.74083-2.0218 0.74083h-0.54019v-1.2039h0.37814c0.54018-0.000002 0.90803-0.12605 1.1035-0.37813 0.19549-0.24694 0.29324-0.76398 0.29324-1.5511v-8.7974m0-3.3646h1.4199v1.7981h-1.4199v-1.7981"/>
  <path id="path3120" style="" d="m301 49.022v2.454h2.9247v1.1035h-2.9247v4.6919c0 0.70482 0.0952 1.1576 0.28553 1.3582 0.19549 0.20064 0.58906 0.30096 1.1807 0.30096h1.4585v1.1884h-1.4585c-1.0958 0-1.8521-0.20321-2.2688-0.60964-0.41672-0.41157-0.62508-1.1575-0.62507-2.2379v-4.6919h-1.0418v-1.1035h1.0418v-2.454h1.4276"/>
  <path id="path3122" style="" d="m309.73 55.774c-1.1473 0.000004-1.9421 0.13119-2.3846 0.39357-0.44245 0.26238-0.66367 0.70997-0.66367 1.3428 0 0.50418 0.16463 0.90546 0.49389 1.2039 0.3344 0.29325 0.78713 0.43987 1.3582 0.43987 0.78713 0.000001 1.4174-0.27781 1.8907-0.83344 0.47844-0.56077 0.71767-1.3042 0.71768-2.2302v-0.3164h-1.4122m2.8321-0.58649v4.9312h-1.4199v-1.3119c-0.32412 0.52476-0.72798 0.91318-1.2116 1.1653-0.48361 0.24694-1.0752 0.37042-1.7749 0.37042-0.88489-0.000001-1.5897-0.24694-2.1145-0.74083-0.51961-0.49903-0.77941-1.1653-0.77941-1.9987 0-0.97234 0.32411-1.7055 0.97234-2.1993 0.65337-0.49388 1.6257-0.74083 2.917-0.74083h1.991v-0.13891c-0.00001-0.65336-0.21609-1.1575-0.64823-1.5125-0.42701-0.36012-1.0289-0.54018-1.8058-0.54019-0.49389 0.000008-0.97491 0.05917-1.4431 0.17749-0.46816 0.11834-0.91832 0.29582-1.3505 0.53247v-1.3119c0.51961-0.20063 1.0238-0.34983 1.5125-0.44759 0.48874-0.10288 0.96462-0.15433 1.4276-0.15434 1.2502 0.000008 2.1839 0.32412 2.8013 0.97234 0.61735 0.64823 0.92603 1.6309 0.92604 2.9479m-2.5929-7.7093h1.5357l-2.5157 2.9016h-1.1807l2.1608-2.9016"/>
  <path id="path3124" style="" d="m321 51.73v1.3428c-0.40129-0.20578-0.818-0.36012-1.2502-0.46302-0.43216-0.10288-0.87974-0.15433-1.3428-0.15434-0.70482 0.000008-1.2347 0.10805-1.5897 0.32411-0.34984 0.21608-0.52476 0.5402-0.52475 0.97234-0.00001 0.32926 0.12604 0.58907 0.37813 0.77942 0.25209 0.18521 0.75883 0.3627 1.5202 0.53247l0.48617 0.10804c1.0084 0.21608 1.7234 0.52219 2.1453 0.91832 0.427 0.391 0.6405 0.9389 0.64051 1.6437-0.00001 0.80257-0.31897 1.4379-0.95691 1.9061-0.63279 0.46816-1.5048 0.70225-2.6161 0.70225-0.46302-0.000001-0.94662-0.0463-1.4508-0.13891-0.49903-0.08746-1.0264-0.22122-1.582-0.40128v-1.4662c0.52475 0.27267 1.0418 0.47845 1.5511 0.61736 0.50932 0.13376 1.0135 0.20064 1.5125 0.20064 0.6688 0.000001 1.1833-0.11318 1.5434-0.33955 0.36012-0.23151 0.54018-0.55562 0.54019-0.97234-0.00001-0.38585-0.13119-0.68166-0.39357-0.88745-0.25723-0.20578-0.82572-0.40385-1.7054-0.59421l-0.49389-0.11576c-0.87974-0.1852-1.5151-0.46816-1.9061-0.84887-0.39099-0.38584-0.58649-0.91317-0.58649-1.582 0-0.81285 0.2881-1.4405 0.86431-1.8829 0.5762-0.44243 1.3942-0.66365 2.454-0.66366 0.52475 0.000008 1.0186 0.03859 1.4817 0.11575 0.46302 0.07718 0.89002 0.19293 1.281 0.34726"/>
 </g>
 <g id="text16">
  <path id="path3127" style="" d="m272.27 27.478h1.5357l-2.5157 2.9016h-1.1807l2.1608-2.9016m-1.7826 3.9974h1.4199v8.643h-1.4199v-8.643m0.70996-0.20836"/>
  <path id="path3129" style="" d="m279.88 32.803c-0.15949-0.0926-0.33441-0.15948-0.52476-0.20064-0.18521-0.04629-0.391-0.06944-0.61736-0.06945-0.80257 0.000008-1.4199 0.26238-1.8521 0.78713-0.42701 0.51962-0.64052 1.2682-0.64051 2.2456v4.553h-1.4276v-8.643h1.4276v1.3428c0.29838-0.52475 0.6868-0.91317 1.1653-1.1653 0.47845-0.25722 1.0598-0.38584 1.744-0.38585 0.0977 0.000008 0.20578 0.0077 0.32412 0.02315 0.11832 0.0103 0.24951 0.0283 0.39356 0.05402l0.008 1.4585"/>
  <path id="path3131" style="" d="m285.31 35.774c-1.1473 0.000004-1.9421 0.13119-2.3846 0.39357-0.44244 0.26238-0.66366 0.70997-0.66366 1.3428 0 0.50418 0.16463 0.90546 0.49389 1.2039 0.3344 0.29325 0.78713 0.43987 1.3582 0.43987 0.78713 0.000001 1.4174-0.27781 1.8907-0.83344 0.47845-0.56077 0.71767-1.3042 0.71768-2.2302v-0.3164h-1.4122m2.8321-0.58649v4.9312h-1.4199v-1.3119c-0.32412 0.52476-0.72797 0.91318-1.2116 1.1653-0.4836 0.24694-1.0752 0.37042-1.7749 0.37042-0.88489-0.000001-1.5897-0.24694-2.1145-0.74083-0.51961-0.49903-0.77942-1.1653-0.77942-1.9987 0-0.97234 0.32412-1.7055 0.97234-2.1993 0.65337-0.49388 1.6257-0.74083 2.917-0.74083h1.991v-0.13891c-0.00001-0.65336-0.21608-1.1575-0.64823-1.5125-0.42701-0.36012-1.0289-0.54018-1.8058-0.54019-0.49389 0.000008-0.97492 0.05917-1.4431 0.17749-0.46817 0.11834-0.91832 0.29582-1.3505 0.53247v-1.3119c0.5196-0.20063 1.0238-0.34983 1.5125-0.44759 0.48874-0.10288 0.96462-0.15433 1.4276-0.15434 1.2502 0.000008 2.1839 0.32412 2.8013 0.97234 0.61735 0.64823 0.92603 1.6309 0.92604 2.9479m-2.5929-7.7093h1.5357l-2.5157 2.9016h-1.1807l2.1608-2.9016"/>
  <path id="path3133" style="" d="m296.59 31.73v1.3428c-0.40129-0.20578-0.81801-0.36012-1.2502-0.46302-0.43216-0.10288-0.87975-0.15433-1.3428-0.15434-0.70482 0.000008-1.2347 0.10805-1.5897 0.32411-0.34984 0.21608-0.52476 0.5402-0.52476 0.97234 0 0.32926 0.12604 0.58907 0.37814 0.77942 0.25208 0.18521 0.75883 0.3627 1.5202 0.53247l0.48617 0.10804c1.0084 0.21608 1.7235 0.52219 2.1453 0.91832 0.427 0.391 0.6405 0.9389 0.64051 1.6437-0.00001 0.80257-0.31898 1.4379-0.95691 1.9061-0.6328 0.46816-1.5048 0.70225-2.6161 0.70225-0.46302-0.000001-0.94662-0.0463-1.4508-0.13891-0.49904-0.08746-1.0264-0.22122-1.582-0.40128v-1.4662c0.52476 0.27267 1.0418 0.47845 1.5511 0.61736 0.50932 0.13376 1.0135 0.20064 1.5125 0.20064 0.6688 0.000001 1.1833-0.11318 1.5434-0.33955 0.36012-0.23151 0.54018-0.55562 0.54019-0.97234-0.00001-0.38585-0.1312-0.68166-0.39357-0.88745-0.25724-0.20578-0.82572-0.40385-1.7055-0.59421l-0.49388-0.11576c-0.87974-0.1852-1.5151-0.46816-1.9061-0.84887-0.391-0.38584-0.58649-0.91317-0.58649-1.582 0-0.81285 0.2881-1.4405 0.8643-1.8829 0.5762-0.44243 1.3942-0.66365 2.454-0.66366 0.52476 0.000008 1.0186 0.03859 1.4817 0.11575 0.46301 0.07718 0.89002 0.19293 1.281 0.34726"/>
 </g>
 <g id="g20" transform="translate(-1 -5.3563)">
  <g id="g22">
   <path id="rect24" fill="#f00" d="m100-60h40v40h-40z"/>
   <path id="rect26" d="m100-60h40v40h-40z" stroke="#000" stroke-width="2" fill="none"/>
  </g>
  <g id="g28">
   <path id="rect30" fill="#0f0" d="m140-60h40v40h-40z"/>
   <path id="rect32" d="m140-60h40v40h-40z" stroke="#000" stroke-width="2" fill="none"/>
  </g>
  <g id="g34">
   <path id="rect36" fill="#00f" d="m180-60h40v40h-40z"/>
   <path id="rect38" d="m180-60h40v40h-40z" stroke="#000" stroke-width="2" fill="none"/>
  </g>
  <g id="g40">
   <path id="rect42" fill="#ff0" d="m220-60h40v40h-40z"/>
   <path id="rect44" d="m220-60h40v40h-40z" stroke="#000" stroke-width="2" fill="none"/>
  </g>
 </g>
 <g id="g46" transform="translate(-1 -5.3563)">
  <g id="g48">
   <path id="rect50" fill="#f00" d="m260-20h40v40h-40z"/>
   <path id="rect52" d="m260-20h40v40h-40z" stroke="#000" stroke-width="2" fill="none"/>
  </g>
  <g id="g54">
   <path id="rect56" fill="#0f0" d="m300-20h40v40h-40z"/>
   <path id="rect58" d="m300-20h40v40h-40z" stroke="#000" stroke-width="2" fill="none"/>
  </g>
  <g id="g60">
   <path id="rect62" fill="#00f" d="m340-20h40v40h-40z"/>
   <path id="rect64" d="m340-20h40v40h-40z" stroke="#000" stroke-width="2" fill="none"/>
  </g>
  <g id="g66">
   <path id="rect68" fill="#ff0" d="m380-20h40v40h-40z"/>
   <path id="rect70" d="m380-20h40v40h-40z" stroke="#000" stroke-width="2" fill="none"/>
  </g>
 </g>
 <g id="g72" transform="translate(-1 -5.3563)">
  <g id="g74">
   <path id="rect76" fill="#f00" d="m420 20h40v40h-40z"/>
   <path id="rect78" d="m420 20h40v40h-40z" stroke="#000" stroke-width="2" fill="none"/>
  </g>
  <g id="g80">
   <path id="rect82" fill="#0f0" d="m460 20h40v40h-40z"/>
   <path id="rect84" d="m460 20h40v40h-40z" stroke="#000" stroke-width="2" fill="none"/>
  </g>
  <g id="g86">
   <path id="rect88" fill="#00f" d="m500 20h40v40h-40z"/>
   <path id="rect90" d="m500 20h40v40h-40z" stroke="#000" stroke-width="2" fill="none"/>
  </g>
  <g id="g92">
   <path id="rect94" fill="#ff0" d="m540 20h40v40h-40z"/>
   <path id="rect96" d="m540 20h40v40h-40z" stroke="#000" stroke-width="2" fill="none"/>
  </g>
 </g>
 <g id="g98" transform="translate(-1 -5.3563)">
  <g id="g100">
   <path id="rect102" fill="#f00" d="m580 60h40v40h-40z"/>
   <path id="rect104" d="m580 60h40v40h-40z" stroke="#000" stroke-width="2" fill="none"/>
  </g>
  <g id="g106">
   <path id="rect108" fill="#0f0" d="m620 60h40v40h-40z"/>
   <path id="rect110" d="m620 60h40v40h-40z" stroke="#000" stroke-width="2" fill="none"/>
  </g>
  <g id="g112">
   <path id="rect114" fill="#00f" d="m660 60h40v40h-40z"/>
   <path id="rect116" d="m660 60h40v40h-40z" stroke="#000" stroke-width="2" fill="none"/>
  </g>
  <g id="g118">
   <path id="rect120" fill="#ff0" d="m700 60h40v40h-40z"/>
   <path id="rect122" d="m700 60h40v40h-40z" stroke="#000" stroke-width="2" fill="none"/>
  </g>
 </g>
 <g id="g124" stroke="#000" stroke-width="2" fill="none" transform="translate(-1 -5.3563)">
  <path id="line126" d="m80-100v235.53"/>
  <path id="polyline128" d="m75 127.76 5 10 5-10"/>
 </g>
 <g id="g130" stroke="#000" stroke-width="2" fill="none" transform="translate(-1 -5.3563)">
  <path id="polyline132" d="m260 40h-20v-55.528"/>
  <path id="polyline134" d="m245-7.7639-5-10-5 10"/>
 </g>
 <g id="g136" stroke="#000" stroke-width="2" fill="none" transform="translate(-1 -5.3563)">
  <path id="polyline138" d="m220 60h-20v-75.528"/>
  <path id="polyline140" d="m205-7.7639-5-10-5 10"/>
 </g>
 <g id="g142" stroke="#000" stroke-width="2" fill="none" transform="translate(-1 -5.3563)">
  <path id="polyline144" d="m180 80h-20v-95.528"/>
  <path id="polyline146" d="m165-7.7639-5-10-5 10"/>
 </g>
 <g id="g148" stroke="#000" stroke-width="2" fill="none" transform="translate(-1 -5.3563)">
  <path id="polyline150" d="m140 100h-20v-115.53"/>
  <path id="polyline152" d="m125-7.7639-5-10-5 10"/>
 </g>
 <g id="text154">
  <path id="path3178" style="" d="m139.55-86.668h2.5466v-8.7897l-2.7704 0.55562v-1.4199l2.755-0.55562h1.5588v10.21h2.5466v1.3119h-6.6366v-1.3119"/>
  <path id="path3180" style="" d="m149.34-87.316h1.6283v1.9601h-1.6283v-1.9601"/>
  <path id="path3182" style="" d="m159.06-88.767v-5.2321h1.4199v5.1781c-0.00001 0.818 0.15948 1.4328 0.47845 1.8444 0.31897 0.40643 0.79742 0.60964 1.4354 0.60964 0.76655 0.000001 1.371-0.24437 1.8135-0.73311 0.44758-0.48874 0.67138-1.155 0.67138-1.9987v-4.9003h1.4199v8.643h-1.4199v-1.3273c-0.3447 0.52476-0.74598 0.91575-1.2038 1.173-0.45273 0.25209-0.98006 0.37813-1.582 0.37813-0.99292 0-1.7466-0.30868-2.2611-0.92604-0.51447-0.61736-0.7717-1.5202-0.7717-2.7087m3.573-5.4405"/>
  <path id="path3184" style="" d="m170.64-96.453v2.454h2.9247v1.1035h-2.9247v4.6919c-0.00001 0.70482 0.0952 1.1576 0.28552 1.3582 0.1955 0.20064 0.58906 0.30096 1.1807 0.30096h1.4585v1.1884h-1.4585c-1.0958 0-1.8521-0.20321-2.2688-0.60964-0.41672-0.41157-0.62508-1.1575-0.62508-2.2379v-4.6919h-1.0418v-1.1035h1.0418v-2.454h1.4276"/>
  <path id="path3186" style="" d="m179.37-89.701c-1.1473 0.000004-1.9421 0.13119-2.3846 0.39357-0.44245 0.26238-0.66367 0.70997-0.66367 1.3428 0 0.50418 0.16463 0.90546 0.49389 1.2039 0.3344 0.29325 0.78713 0.43987 1.3582 0.43987 0.78713 0.000001 1.4174-0.27781 1.8907-0.83344 0.47844-0.56077 0.71767-1.3042 0.71768-2.2302v-0.3164h-1.4122m2.8321-0.58649v4.9312h-1.4199v-1.3119c-0.32412 0.52476-0.72798 0.91318-1.2116 1.1653-0.48361 0.24694-1.0752 0.37042-1.7749 0.37042-0.88489 0-1.5897-0.24694-2.1145-0.74083-0.51961-0.49903-0.77941-1.1653-0.77941-1.9987 0-0.97234 0.32411-1.7055 0.97234-2.1993 0.65337-0.49388 1.6257-0.74083 2.917-0.74083h1.991v-0.13891c-0.00001-0.65337-0.21609-1.1575-0.64823-1.5125-0.42701-0.36012-1.0289-0.54018-1.8058-0.54019-0.49389 0.000008-0.97491 0.05917-1.4431 0.17749-0.46816 0.11833-0.91832 0.29582-1.3505 0.53247v-1.3119c0.51961-0.20063 1.0238-0.34983 1.5125-0.44759 0.48874-0.10288 0.96462-0.15433 1.4276-0.15434 1.2501 0.000009 2.1839 0.32412 2.8013 0.97234 0.61735 0.64824 0.92603 1.6309 0.92604 2.9479"/>
  <path id="path3188" style="" d="m190.64-93.745v1.3428c-0.40129-0.20578-0.81801-0.36012-1.2502-0.46302-0.43216-0.10289-0.87975-0.15433-1.3428-0.15434-0.70482 0.000008-1.2347 0.10804-1.5897 0.32411-0.34984 0.21608-0.52476 0.5402-0.52476 0.97234 0 0.32926 0.12605 0.58907 0.37814 0.77942 0.25208 0.18521 0.75883 0.3627 1.5202 0.53247l0.48617 0.10804c1.0084 0.21608 1.7235 0.52219 2.1453 0.91832 0.427 0.391 0.6405 0.9389 0.64051 1.6437-0.00001 0.80257-0.31898 1.4379-0.95691 1.9061-0.6328 0.46816-1.5048 0.70225-2.6161 0.70225-0.46302 0-0.94662-0.0463-1.4508-0.13891-0.49904-0.08746-1.0264-0.22122-1.582-0.40128v-1.4662c0.52476 0.27267 1.0418 0.47846 1.5511 0.61736 0.50932 0.13376 1.0135 0.20064 1.5125 0.20064 0.6688 0.000001 1.1833-0.11318 1.5434-0.33955 0.36012-0.23151 0.54018-0.55562 0.54019-0.97234-0.00001-0.38585-0.1312-0.68166-0.39357-0.88745-0.25724-0.20578-0.82572-0.40385-1.7055-0.59421l-0.49388-0.11576c-0.87974-0.1852-1.5151-0.46816-1.9061-0.84887-0.391-0.38584-0.58649-0.91317-0.58649-1.582 0-0.81285 0.2881-1.4405 0.8643-1.8829 0.5762-0.44243 1.3942-0.66365 2.454-0.66366 0.52475 0.000009 1.0186 0.03859 1.4817 0.11576 0.46301 0.07718 0.89002 0.19293 1.281 0.34726"/>
  <path id="path3190" style="" d="m195.16-97.997h1.5357l-2.5157 2.9016h-1.1807l2.1608-2.9016m-1.7826 3.9974h1.4199v8.643h-1.4199v-8.643m0.70996-0.20836"/>
  <path id="path3192" style="" d="m199.16-96.453v2.454h2.9247v1.1035h-2.9247v4.6919c0 0.70482 0.0952 1.1576 0.28553 1.3582 0.19549 0.20064 0.58906 0.30096 1.1807 0.30096h1.4585v1.1884h-1.4585c-1.0958 0-1.8521-0.20321-2.2688-0.60964-0.41672-0.41157-0.62508-1.1575-0.62507-2.2379v-4.6919h-1.0418v-1.1035h1.0418v-2.454h1.4276"/>
  <path id="path3194" style="" d="m207.89-89.701c-1.1473 0.000004-1.9421 0.13119-2.3846 0.39357-0.44244 0.26238-0.66366 0.70997-0.66366 1.3428 0 0.50418 0.16463 0.90546 0.49389 1.2039 0.3344 0.29325 0.78713 0.43987 1.3582 0.43987 0.78713 0.000001 1.4174-0.27781 1.8907-0.83344 0.47845-0.56077 0.71768-1.3042 0.71769-2.2302v-0.3164h-1.4122m2.8321-0.58649v4.9312h-1.4199v-1.3119c-0.32413 0.52476-0.72798 0.91318-1.2116 1.1653-0.48361 0.24694-1.0752 0.37042-1.7749 0.37042-0.88489 0-1.5897-0.24694-2.1145-0.74083-0.51961-0.49903-0.77941-1.1653-0.77941-1.9987 0-0.97234 0.32411-1.7055 0.97234-2.1993 0.65337-0.49388 1.6257-0.74083 2.917-0.74083h1.991v-0.13891c-0.00001-0.65337-0.21609-1.1575-0.64823-1.5125-0.42701-0.36012-1.0289-0.54018-1.8058-0.54019-0.49389 0.000008-0.97492 0.05917-1.4431 0.17749-0.46816 0.11833-0.91832 0.29582-1.3505 0.53247v-1.3119c0.51961-0.20063 1.0238-0.34983 1.5125-0.44759 0.48874-0.10288 0.96462-0.15433 1.4276-0.15434 1.2502 0.000009 2.1839 0.32412 2.8013 0.97234 0.61735 0.64824 0.92603 1.6309 0.92604 2.9479m-2.5929-7.7093h1.5357l-2.5157 2.9016h-1.1807l2.1608-2.9016"/>
  <path id="path3196" style="" d="m219.17-93.745v1.3428c-0.40129-0.20578-0.81801-0.36012-1.2502-0.46302-0.43216-0.10289-0.87974-0.15433-1.3428-0.15434-0.70482 0.000008-1.2347 0.10804-1.5897 0.32411-0.34984 0.21608-0.52476 0.5402-0.52475 0.97234-0.00001 0.32926 0.12604 0.58907 0.37813 0.77942 0.25208 0.18521 0.75883 0.3627 1.5202 0.53247l0.48617 0.10804c1.0084 0.21608 1.7234 0.52219 2.1453 0.91832 0.427 0.391 0.6405 0.9389 0.64051 1.6437-0.00001 0.80257-0.31897 1.4379-0.95691 1.9061-0.63279 0.46816-1.5048 0.70225-2.6161 0.70225-0.46302 0-0.94662-0.0463-1.4508-0.13891-0.49903-0.08746-1.0264-0.22122-1.582-0.40128v-1.4662c0.52475 0.27267 1.0418 0.47846 1.5511 0.61736 0.50932 0.13376 1.0135 0.20064 1.5125 0.20064 0.6688 0.000001 1.1833-0.11318 1.5434-0.33955 0.36012-0.23151 0.54018-0.55562 0.54019-0.97234-0.00001-0.38585-0.13119-0.68166-0.39357-0.88745-0.25724-0.20578-0.82572-0.40385-1.7054-0.59421l-0.49389-0.11576c-0.87974-0.1852-1.5151-0.46816-1.9061-0.84887-0.39099-0.38584-0.58649-0.91317-0.58649-1.582 0-0.81285 0.2881-1.4405 0.86431-1.8829 0.57619-0.44243 1.3942-0.66365 2.454-0.66366 0.52475 0.000009 1.0186 0.03859 1.4817 0.11576 0.46301 0.07718 0.89002 0.19293 1.281 0.34726"/>
 </g>
 <g id="text158">
  <path id="path3199" style="" d="m300.62-46.668h5.4405v1.3119h-7.3157v-1.3119c0.59163-0.61221 1.3968-1.4328 2.4154-2.4617 1.0238-1.0341 1.6669-1.7003 1.9292-1.9987 0.49903-0.56076 0.84629-1.0341 1.0418-1.4199 0.20063-0.39099 0.30095-0.77426 0.30096-1.1498-0.00001-0.61221-0.21608-1.1112-0.64823-1.4971-0.42701-0.38584-0.9852-0.57876-1.6746-0.57877-0.48875 0.00001-1.0058 0.0849-1.5511 0.25466-0.54019 0.16978-1.119 0.42702-1.7363 0.7717v-1.5743c0.62764-0.25208 1.2141-0.44243 1.7595-0.57106 0.54533-0.1286 1.0444-0.19291 1.4971-0.19292 1.1936 0.000012 2.1453 0.2984 2.8553 0.89517 0.70995 0.59679 1.0649 1.3942 1.0649 2.3923-0.00001 0.47332-0.09 0.92347-0.27009 1.3505-0.17493 0.42187-0.49647 0.9209-0.96463 1.4971-0.12862 0.1492-0.53762 0.58135-1.227 1.2965-0.68939 0.70997-1.6617 1.7055-2.917 2.9865"/>
  <path id="path3201" style="" d="m309.34-47.316h1.6283v1.9601h-1.6283v-1.9601"/>
  <path id="path3203" style="" d="m319.06-48.767v-5.2321h1.4199v5.1781c-0.00001 0.818 0.15948 1.4328 0.47845 1.8444 0.31897 0.40643 0.79742 0.60964 1.4354 0.60964 0.76655 0.000001 1.371-0.24437 1.8135-0.73311 0.44758-0.48874 0.67138-1.155 0.67138-1.9987v-4.9003h1.4199v8.643h-1.4199v-1.3273c-0.3447 0.52476-0.74598 0.91575-1.2038 1.173-0.45273 0.25209-0.98006 0.37813-1.582 0.37813-0.99292 0-1.7466-0.30868-2.2611-0.92604-0.51447-0.61736-0.7717-1.5202-0.7717-2.7087m3.573-5.4405"/>
  <path id="path3205" style="" d="m330.64-56.453v2.454h2.9247v1.1035h-2.9247v4.6919c-0.00001 0.70482 0.0952 1.1576 0.28552 1.3582 0.1955 0.20064 0.58906 0.30096 1.1807 0.30096h1.4585v1.1884h-1.4585c-1.0958 0-1.8521-0.20321-2.2688-0.60964-0.41672-0.41157-0.62508-1.1575-0.62508-2.2379v-4.6919h-1.0418v-1.1035h1.0418v-2.454h1.4276"/>
  <path id="path3207" style="" d="m339.37-49.701c-1.1473 0.000004-1.9421 0.13119-2.3846 0.39357-0.44245 0.26238-0.66367 0.70997-0.66367 1.3428 0 0.50418 0.16463 0.90546 0.49389 1.2039 0.3344 0.29325 0.78713 0.43987 1.3582 0.43987 0.78713 0.000001 1.4174-0.27781 1.8907-0.83344 0.47844-0.56077 0.71767-1.3042 0.71768-2.2302v-0.3164h-1.4122m2.8321-0.58649v4.9312h-1.4199v-1.3119c-0.32412 0.52476-0.72798 0.91318-1.2116 1.1653-0.48361 0.24694-1.0752 0.37042-1.7749 0.37042-0.88489 0-1.5897-0.24694-2.1145-0.74083-0.51961-0.49903-0.77941-1.1653-0.77941-1.9987 0-0.97234 0.32411-1.7055 0.97234-2.1993 0.65337-0.49388 1.6257-0.74083 2.917-0.74083h1.991v-0.13891c-0.00001-0.65337-0.21609-1.1575-0.64823-1.5125-0.42701-0.36012-1.0289-0.54018-1.8058-0.54019-0.49389 0.000008-0.97491 0.05917-1.4431 0.17749-0.46816 0.11833-0.91832 0.29582-1.3505 0.53247v-1.3119c0.51961-0.20063 1.0238-0.34983 1.5125-0.44759 0.48874-0.10288 0.96462-0.15433 1.4276-0.15434 1.2501 0.000009 2.1839 0.32412 2.8013 0.97234 0.61735 0.64824 0.92603 1.6309 0.92604 2.9479"/>
  <path id="path3209" style="" d="m350.64-53.745v1.3428c-0.40129-0.20578-0.81801-0.36012-1.2502-0.46302-0.43216-0.10289-0.87975-0.15433-1.3428-0.15434-0.70482 0.000008-1.2347 0.10804-1.5897 0.32411-0.34984 0.21608-0.52476 0.5402-0.52476 0.97234 0 0.32926 0.12605 0.58907 0.37814 0.77942 0.25208 0.18521 0.75883 0.3627 1.5202 0.53247l0.48617 0.10804c1.0084 0.21608 1.7235 0.52219 2.1453 0.91832 0.427 0.391 0.6405 0.9389 0.64051 1.6437-0.00001 0.80257-0.31898 1.4379-0.95691 1.9061-0.6328 0.46816-1.5048 0.70225-2.6161 0.70225-0.46302 0-0.94662-0.0463-1.4508-0.13891-0.49904-0.08746-1.0264-0.22122-1.582-0.40128v-1.4662c0.52476 0.27267 1.0418 0.47846 1.5511 0.61736 0.50932 0.13376 1.0135 0.20064 1.5125 0.20064 0.6688 0.000001 1.1833-0.11318 1.5434-0.33955 0.36012-0.23151 0.54018-0.55562 0.54019-0.97234-0.00001-0.38585-0.1312-0.68166-0.39357-0.88745-0.25724-0.20578-0.82572-0.40385-1.7055-0.59421l-0.49388-0.11576c-0.87974-0.1852-1.5151-0.46816-1.9061-0.84887-0.391-0.38584-0.58649-0.91317-0.58649-1.582 0-0.81285 0.2881-1.4405 0.8643-1.8829 0.5762-0.44243 1.3942-0.66365 2.454-0.66366 0.52475 0.000009 1.0186 0.03859 1.4817 0.11576 0.46301 0.07718 0.89002 0.19293 1.281 0.34726"/>
  <path id="path3211" style="" d="m355.16-57.997h1.5357l-2.5157 2.9016h-1.1807l2.1608-2.9016m-1.7826 3.9974h1.4199v8.643h-1.4199v-8.643m0.70996-0.20836"/>
  <path id="path3213" style="" d="m359.16-56.453v2.454h2.9247v1.1035h-2.9247v4.6919c0 0.70482 0.0952 1.1576 0.28553 1.3582 0.19549 0.20064 0.58906 0.30096 1.1807 0.30096h1.4585v1.1884h-1.4585c-1.0958 0-1.8521-0.20321-2.2688-0.60964-0.41672-0.41157-0.62508-1.1575-0.62507-2.2379v-4.6919h-1.0418v-1.1035h1.0418v-2.454h1.4276"/>
  <path id="path3215" style="" d="m367.89-49.701c-1.1473 0.000004-1.9421 0.13119-2.3846 0.39357-0.44244 0.26238-0.66366 0.70997-0.66366 1.3428 0 0.50418 0.16463 0.90546 0.49389 1.2039 0.3344 0.29325 0.78713 0.43987 1.3582 0.43987 0.78713 0.000001 1.4174-0.27781 1.8907-0.83344 0.47845-0.56077 0.71768-1.3042 0.71769-2.2302v-0.3164h-1.4122m2.8321-0.58649v4.9312h-1.4199v-1.3119c-0.32413 0.52476-0.72798 0.91318-1.2116 1.1653-0.48361 0.24694-1.0752 0.37042-1.7749 0.37042-0.88489 0-1.5897-0.24694-2.1145-0.74083-0.51961-0.49903-0.77941-1.1653-0.77941-1.9987 0-0.97234 0.32411-1.7055 0.97234-2.1993 0.65337-0.49388 1.6257-0.74083 2.917-0.74083h1.991v-0.13891c-0.00001-0.65337-0.21609-1.1575-0.64823-1.5125-0.42701-0.36012-1.0289-0.54018-1.8058-0.54019-0.49389 0.000008-0.97492 0.05917-1.4431 0.17749-0.46816 0.11833-0.91832 0.29582-1.3505 0.53247v-1.3119c0.51961-0.20063 1.0238-0.34983 1.5125-0.44759 0.48874-0.10288 0.96462-0.15433 1.4276-0.15434 1.2502 0.000009 2.1839 0.32412 2.8013 0.97234 0.61735 0.64824 0.92603 1.6309 0.92604 2.9479m-2.5929-7.7093h1.5357l-2.5157 2.9016h-1.1807l2.1608-2.9016"/>
  <path id="path3217" style="" d="m379.17-53.745v1.3428c-0.40129-0.20578-0.81801-0.36012-1.2502-0.46302-0.43216-0.10289-0.87974-0.15433-1.3428-0.15434-0.70482 0.000008-1.2347 0.10804-1.5897 0.32411-0.34984 0.21608-0.52476 0.5402-0.52475 0.97234-0.00001 0.32926 0.12604 0.58907 0.37813 0.77942 0.25208 0.18521 0.75883 0.3627 1.5202 0.53247l0.48617 0.10804c1.0084 0.21608 1.7234 0.52219 2.1453 0.91832 0.427 0.391 0.6405 0.9389 0.64051 1.6437-0.00001 0.80257-0.31897 1.4379-0.95691 1.9061-0.63279 0.46816-1.5048 0.70225-2.6161 0.70225-0.46302 0-0.94662-0.0463-1.4508-0.13891-0.49903-0.08746-1.0264-0.22122-1.582-0.40128v-1.4662c0.52475 0.27267 1.0418 0.47846 1.5511 0.61736 0.50932 0.13376 1.0135 0.20064 1.5125 0.20064 0.6688 0.000001 1.1833-0.11318 1.5434-0.33955 0.36012-0.23151 0.54018-0.55562 0.54019-0.97234-0.00001-0.38585-0.13119-0.68166-0.39357-0.88745-0.25724-0.20578-0.82572-0.40385-1.7054-0.59421l-0.49389-0.11576c-0.87974-0.1852-1.5151-0.46816-1.9061-0.84887-0.39099-0.38584-0.58649-0.91317-0.58649-1.582 0-0.81285 0.2881-1.4405 0.86431-1.8829 0.57619-0.44243 1.3942-0.66365 2.454-0.66366 0.52475 0.000009 1.0186 0.03859 1.4817 0.11576 0.46301 0.07718 0.89002 0.19293 1.281 0.34726"/>
 </g>
 <g id="text162">
  <path id="path3220" style="" d="m464-11.568c0.74597 0.15949 1.3273 0.49132 1.744 0.99549 0.42185 0.50418 0.63278 1.1267 0.63279 1.8675-0.00001 1.137-0.391 2.0167-1.173 2.6392s-1.8932 0.93376-3.3337 0.93376c-0.4836-2e-7 -0.98263-0.048874-1.4971-0.14662-0.50932-0.092604-1.0366-0.23408-1.582-0.42443v-1.5048c0.43215 0.25209 0.90546 0.44244 1.4199 0.57106 0.51446 0.12862 1.0521 0.19293 1.6128 0.19292 0.97748 0.0000011 1.7209-0.19292 2.2302-0.57877 0.51446-0.38585 0.77169-0.94662 0.7717-1.6823-0.00001-0.67909-0.23924-1.209-0.71768-1.5897-0.47332-0.38584-1.1344-0.57877-1.9833-0.57878h-1.3428v-1.281h1.4045c0.76655 0.000006 1.353-0.15176 1.7595-0.4553 0.40642-0.30867 0.60964-0.75111 0.60964-1.3273 0-0.59163-0.21093-1.0444-0.63279-1.3582-0.41672-0.31896-1.0161-0.47844-1.7981-0.47845-0.42701 0.000011-0.88489 0.04631-1.3736 0.13891-0.48875 0.09261-1.0264 0.23666-1.6129 0.43215v-1.3891c0.59164-0.16462 1.1447-0.28809 1.6592-0.37042 0.5196-0.0823 1.0084-0.12346 1.4662-0.12347 1.1833 0.000011 2.1196 0.27011 2.809 0.81028 0.68938 0.53506 1.0341 1.2605 1.0341 2.1762-0.00001 0.63795-0.18265 1.1781-0.54791 1.6206-0.36528 0.4373-0.88489 0.74084-1.5588 0.9106"/>
  <path id="path3222" style="" d="m469.34-7.3164h1.6283v1.9601h-1.6283v-1.9601"/>
  <path id="path3224" style="" d="m479.06-8.7672v-5.2321h1.4199v5.1781c-0.00001 0.818 0.15948 1.4328 0.47845 1.8444 0.31897 0.40643 0.79742 0.60964 1.4354 0.60964 0.76655 0.000001 1.371-0.24437 1.8135-0.73311 0.44758-0.48874 0.67138-1.155 0.67138-1.9987v-4.9003h1.4199v8.643h-1.4199v-1.3273c-0.3447 0.52476-0.74598 0.91575-1.2038 1.173-0.45273 0.25209-0.98006 0.37813-1.582 0.37813-0.99292-2e-7 -1.7466-0.30868-2.2611-0.92604-0.51447-0.61736-0.7717-1.5202-0.7717-2.7087m3.573-5.4405"/>
  <path id="path3226" style="" d="m490.64-16.453v2.454h2.9247v1.1035h-2.9247v4.6919c-0.00001 0.70482 0.0952 1.1576 0.28552 1.3582 0.1955 0.20064 0.58906 0.30096 1.1807 0.30096h1.4585v1.1884h-1.4585c-1.0958 0-1.8521-0.20321-2.2688-0.60964-0.41672-0.41157-0.62508-1.1575-0.62508-2.2379v-4.6919h-1.0418v-1.1035h1.0418v-2.454h1.4276"/>
  <path id="path3228" style="" d="m499.37-9.701c-1.1473 0.0000044-1.9421 0.13119-2.3846 0.39357-0.44245 0.26238-0.66367 0.70997-0.66367 1.3428 0 0.50418 0.16463 0.90546 0.49389 1.2039 0.3344 0.29325 0.78713 0.43987 1.3582 0.43987 0.78713 0.000001 1.4174-0.27781 1.8907-0.83344 0.47844-0.56077 0.71767-1.3042 0.71768-2.2302v-0.3164h-1.4122m2.8321-0.58649v4.9312h-1.4199v-1.3119c-0.32412 0.52476-0.72798 0.91318-1.2116 1.1653-0.48361 0.24694-1.0752 0.37042-1.7749 0.37042-0.88489-2e-7 -1.5897-0.24694-2.1145-0.74083-0.51961-0.49903-0.77941-1.1653-0.77941-1.9987 0-0.97234 0.32411-1.7055 0.97234-2.1993 0.65337-0.49388 1.6257-0.74083 2.917-0.74083h1.991v-0.13891c-0.00001-0.65336-0.21609-1.1575-0.64823-1.5125-0.42701-0.36012-1.0289-0.54018-1.8058-0.54019-0.49389 0.000008-0.97491 0.05917-1.4431 0.17749-0.46816 0.11834-0.91832 0.29583-1.3505 0.53247v-1.3119c0.51961-0.20063 1.0238-0.34983 1.5125-0.44758 0.48874-0.10288 0.96462-0.15433 1.4276-0.15434 1.2501 0.000009 2.1839 0.32412 2.8013 0.97234 0.61735 0.64823 0.92603 1.6309 0.92604 2.9479"/>
  <path id="path3230" style="" d="m510.64-13.745v1.3428c-0.40129-0.20578-0.81801-0.36012-1.2502-0.46302-0.43216-0.10288-0.87975-0.15433-1.3428-0.15434-0.70482 0.000008-1.2347 0.10805-1.5897 0.32411-0.34984 0.21608-0.52476 0.5402-0.52476 0.97234 0 0.32926 0.12605 0.58907 0.37814 0.77942 0.25208 0.18521 0.75883 0.3627 1.5202 0.53247l0.48617 0.10804c1.0084 0.21608 1.7235 0.52219 2.1453 0.91832 0.427 0.391 0.6405 0.9389 0.64051 1.6437-0.00001 0.80257-0.31898 1.4379-0.95691 1.9061-0.6328 0.46816-1.5048 0.70225-2.6161 0.70225-0.46302-2e-7 -0.94662-0.046302-1.4508-0.13891-0.49904-0.087459-1.0264-0.22122-1.582-0.40128v-1.4662c0.52476 0.27267 1.0418 0.47845 1.5511 0.61736 0.50932 0.13376 1.0135 0.20064 1.5125 0.20064 0.6688 0.000001 1.1833-0.11318 1.5434-0.33955 0.36012-0.23151 0.54018-0.55562 0.54019-0.97234-0.00001-0.38585-0.1312-0.68166-0.39357-0.88745-0.25724-0.20578-0.82572-0.40385-1.7055-0.59421l-0.49388-0.11575c-0.87974-0.1852-1.5151-0.46816-1.9061-0.84887-0.391-0.38584-0.58649-0.91317-0.58649-1.582 0-0.81285 0.2881-1.4405 0.8643-1.8829 0.5762-0.44243 1.3942-0.66365 2.454-0.66366 0.52475 0.000009 1.0186 0.03859 1.4817 0.11576 0.46301 0.07718 0.89002 0.19293 1.281 0.34726"/>
  <path id="path3232" style="" d="m515.16-17.997h1.5357l-2.5157 2.9016h-1.1807l2.1608-2.9016m-1.7826 3.9974h1.4199v8.643h-1.4199v-8.643m0.70996-0.20836"/>
  <path id="path3234" style="" d="m519.16-16.453v2.454h2.9247v1.1035h-2.9247v4.6919c0 0.70482 0.0952 1.1576 0.28553 1.3582 0.19549 0.20064 0.58906 0.30096 1.1807 0.30096h1.4585v1.1884h-1.4585c-1.0958 0-1.8521-0.20321-2.2688-0.60964-0.41672-0.41157-0.62508-1.1575-0.62507-2.2379v-4.6919h-1.0418v-1.1035h1.0418v-2.454h1.4276"/>
  <path id="path3236" style="" d="m527.89-9.701c-1.1473 0.0000044-1.9421 0.13119-2.3846 0.39357-0.44244 0.26238-0.66366 0.70997-0.66366 1.3428 0 0.50418 0.16463 0.90546 0.49389 1.2039 0.3344 0.29325 0.78713 0.43987 1.3582 0.43987 0.78713 0.000001 1.4174-0.27781 1.8907-0.83344 0.47845-0.56077 0.71768-1.3042 0.71769-2.2302v-0.3164h-1.4122m2.8321-0.58649v4.9312h-1.4199v-1.3119c-0.32413 0.52476-0.72798 0.91318-1.2116 1.1653-0.48361 0.24694-1.0752 0.37042-1.7749 0.37042-0.88489-2e-7 -1.5897-0.24694-2.1145-0.74083-0.51961-0.49903-0.77941-1.1653-0.77941-1.9987 0-0.97234 0.32411-1.7055 0.97234-2.1993 0.65337-0.49388 1.6257-0.74083 2.917-0.74083h1.991v-0.13891c-0.00001-0.65336-0.21609-1.1575-0.64823-1.5125-0.42701-0.36012-1.0289-0.54018-1.8058-0.54019-0.49389 0.000008-0.97492 0.05917-1.4431 0.17749-0.46816 0.11834-0.91832 0.29583-1.3505 0.53247v-1.3119c0.51961-0.20063 1.0238-0.34983 1.5125-0.44758 0.48874-0.10288 0.96462-0.15433 1.4276-0.15434 1.2502 0.000009 2.1839 0.32412 2.8013 0.97234 0.61735 0.64823 0.92603 1.6309 0.92604 2.9479m-2.5929-7.7093h1.5357l-2.5157 2.9016h-1.1807l2.1608-2.9016"/>
  <path id="path3238" style="" d="m539.17-13.745v1.3428c-0.40129-0.20578-0.81801-0.36012-1.2502-0.46302-0.43216-0.10288-0.87974-0.15433-1.3428-0.15434-0.70482 0.000008-1.2347 0.10805-1.5897 0.32411-0.34984 0.21608-0.52476 0.5402-0.52475 0.97234-0.00001 0.32926 0.12604 0.58907 0.37813 0.77942 0.25208 0.18521 0.75883 0.3627 1.5202 0.53247l0.48617 0.10804c1.0084 0.21608 1.7234 0.52219 2.1453 0.91832 0.427 0.391 0.6405 0.9389 0.64051 1.6437-0.00001 0.80257-0.31897 1.4379-0.95691 1.9061-0.63279 0.46816-1.5048 0.70225-2.6161 0.70225-0.46302-2e-7 -0.94662-0.046302-1.4508-0.13891-0.49903-0.087459-1.0264-0.22122-1.582-0.40128v-1.4662c0.52475 0.27267 1.0418 0.47845 1.5511 0.61736 0.50932 0.13376 1.0135 0.20064 1.5125 0.20064 0.6688 0.000001 1.1833-0.11318 1.5434-0.33955 0.36012-0.23151 0.54018-0.55562 0.54019-0.97234-0.00001-0.38585-0.13119-0.68166-0.39357-0.88745-0.25724-0.20578-0.82572-0.40385-1.7054-0.59421l-0.49389-0.11575c-0.87974-0.1852-1.5151-0.46816-1.9061-0.84887-0.39099-0.38584-0.58649-0.91317-0.58649-1.582 0-0.81285 0.2881-1.4405 0.86431-1.8829 0.57619-0.44243 1.3942-0.66365 2.454-0.66366 0.52475 0.000009 1.0186 0.03859 1.4817 0.11576 0.46301 0.07718 0.89002 0.19293 1.281 0.34726"/>
 </g>
 <g id="text166">
  <path id="path3241" style="" d="m623.56 24.48-3.9357 6.1504h3.9357v-6.1504m-0.409-1.3582h1.9601v7.5086h1.6437v1.2965h-1.6437v2.7164h-1.5511v-2.7164h-5.2012v-1.5048l4.7922-7.3003"/>
  <path id="path3243" style="" d="m629.34 32.684h1.6283v1.9601h-1.6283v-1.9601"/>
  <path id="path3245" style="" d="m639.06 31.233v-5.2321h1.4199v5.1781c-0.00001 0.818 0.15948 1.4328 0.47845 1.8444 0.31897 0.40643 0.79742 0.60964 1.4354 0.60964 0.76655 0.000001 1.371-0.24437 1.8135-0.73311 0.44758-0.48874 0.67138-1.155 0.67138-1.9987v-4.9003h1.4199v8.643h-1.4199v-1.3273c-0.3447 0.52476-0.74598 0.91575-1.2038 1.173-0.45273 0.25209-0.98006 0.37813-1.582 0.37813-0.99292 0-1.7466-0.30868-2.2611-0.92604-0.51447-0.61736-0.7717-1.5202-0.7717-2.7087m3.573-5.4405"/>
  <path id="path3247" style="" d="m650.64 23.547v2.454h2.9247v1.1035h-2.9247v4.6919c-0.00001 0.70482 0.0952 1.1576 0.28552 1.3582 0.1955 0.20064 0.58906 0.30096 1.1807 0.30096h1.4585v1.1884h-1.4585c-1.0958 0-1.8521-0.20321-2.2688-0.60964-0.41672-0.41157-0.62508-1.1575-0.62508-2.2379v-4.6919h-1.0418v-1.1035h1.0418v-2.454h1.4276"/>
  <path id="path3249" style="" d="m659.37 30.299c-1.1473 0.000004-1.9421 0.13119-2.3846 0.39357-0.44245 0.26238-0.66367 0.70997-0.66367 1.3428 0 0.50418 0.16463 0.90546 0.49389 1.2039 0.3344 0.29325 0.78713 0.43987 1.3582 0.43987 0.78713 0.000001 1.4174-0.27781 1.8907-0.83344 0.47844-0.56077 0.71767-1.3042 0.71768-2.2302v-0.3164h-1.4122m2.8321-0.58649v4.9312h-1.4199v-1.3119c-0.32412 0.52476-0.72798 0.91318-1.2116 1.1653-0.48361 0.24694-1.0752 0.37042-1.7749 0.37042-0.88489 0-1.5897-0.24694-2.1145-0.74083-0.51961-0.49903-0.77941-1.1653-0.77941-1.9987 0-0.97234 0.32411-1.7055 0.97234-2.1993 0.65337-0.49388 1.6257-0.74083 2.917-0.74083h1.991v-0.13891c-0.00001-0.65337-0.21609-1.1575-0.64823-1.5125-0.42701-0.36012-1.0289-0.54018-1.8058-0.54019-0.49389 0.000008-0.97491 0.05917-1.4431 0.17749-0.46816 0.11833-0.91832 0.29582-1.3505 0.53247v-1.3119c0.51961-0.20063 1.0238-0.34983 1.5125-0.44759 0.48874-0.10288 0.96462-0.15433 1.4276-0.15434 1.2501 0.000009 2.1839 0.32412 2.8013 0.97234 0.61735 0.64824 0.92603 1.6309 0.92604 2.9479"/>
  <path id="path3251" style="" d="m670.64 26.255v1.3428c-0.40129-0.20578-0.81801-0.36012-1.2502-0.46302-0.43216-0.10289-0.87975-0.15433-1.3428-0.15434-0.70482 0.000008-1.2347 0.10804-1.5897 0.32411-0.34984 0.21608-0.52476 0.5402-0.52476 0.97234 0 0.32926 0.12605 0.58907 0.37814 0.77942 0.25208 0.18521 0.75883 0.3627 1.5202 0.53247l0.48617 0.10804c1.0084 0.21608 1.7235 0.52219 2.1453 0.91832 0.427 0.391 0.6405 0.9389 0.64051 1.6437-0.00001 0.80257-0.31898 1.4379-0.95691 1.9061-0.6328 0.46816-1.5048 0.70225-2.6161 0.70225-0.46302 0-0.94662-0.0463-1.4508-0.13891-0.49904-0.08746-1.0264-0.22122-1.582-0.40128v-1.4662c0.52476 0.27267 1.0418 0.47846 1.5511 0.61736 0.50932 0.13376 1.0135 0.20064 1.5125 0.20064 0.6688 0.000001 1.1833-0.11318 1.5434-0.33955 0.36012-0.23151 0.54018-0.55562 0.54019-0.97234-0.00001-0.38585-0.1312-0.68166-0.39357-0.88745-0.25724-0.20578-0.82572-0.40385-1.7055-0.59421l-0.49388-0.11576c-0.87974-0.1852-1.5151-0.46816-1.9061-0.84887-0.391-0.38584-0.58649-0.91317-0.58649-1.582 0-0.81285 0.2881-1.4405 0.8643-1.8829 0.5762-0.44243 1.3942-0.66365 2.454-0.66366 0.52475 0.000009 1.0186 0.03859 1.4817 0.11576 0.46301 0.07718 0.89002 0.19293 1.281 0.34726"/>
  <path id="path3253" style="" d="m675.16 22.003h1.5357l-2.5157 2.9016h-1.1807l2.1608-2.9016m-1.7826 3.9974h1.4199v8.643h-1.4199v-8.643m0.70996-0.20836"/>
  <path id="path3255" style="" d="m679.16 23.547v2.454h2.9247v1.1035h-2.9247v4.6919c0 0.70482 0.0952 1.1576 0.28553 1.3582 0.19549 0.20064 0.58906 0.30096 1.1807 0.30096h1.4585v1.1884h-1.4585c-1.0958 0-1.8521-0.20321-2.2688-0.60964-0.41672-0.41157-0.62508-1.1575-0.62507-2.2379v-4.6919h-1.0418v-1.1035h1.0418v-2.454h1.4276"/>
  <path id="path3257" style="" d="m687.89 30.299c-1.1473 0.000004-1.9421 0.13119-2.3846 0.39357-0.44244 0.26238-0.66366 0.70997-0.66366 1.3428 0 0.50418 0.16463 0.90546 0.49389 1.2039 0.3344 0.29325 0.78713 0.43987 1.3582 0.43987 0.78713 0.000001 1.4174-0.27781 1.8907-0.83344 0.47845-0.56077 0.71768-1.3042 0.71769-2.2302v-0.3164h-1.4122m2.8321-0.58649v4.9312h-1.4199v-1.3119c-0.32413 0.52476-0.72798 0.91318-1.2116 1.1653-0.48361 0.24694-1.0752 0.37042-1.7749 0.37042-0.88489 0-1.5897-0.24694-2.1145-0.74083-0.51961-0.49903-0.77941-1.1653-0.77941-1.9987 0-0.97234 0.32411-1.7055 0.97234-2.1993 0.65337-0.49388 1.6257-0.74083 2.917-0.74083h1.991v-0.13891c-0.00001-0.65337-0.21609-1.1575-0.64823-1.5125-0.42701-0.36012-1.0289-0.54018-1.8058-0.54019-0.49389 0.000008-0.97492 0.05917-1.4431 0.17749-0.46816 0.11833-0.91832 0.29582-1.3505 0.53247v-1.3119c0.51961-0.20063 1.0238-0.34983 1.5125-0.44759 0.48874-0.10288 0.96462-0.15433 1.4276-0.15434 1.2502 0.000009 2.1839 0.32412 2.8013 0.97234 0.61735 0.64824 0.92603 1.6309 0.92604 2.9479m-2.5929-7.7093h1.5357l-2.5157 2.9016h-1.1807l2.1608-2.9016"/>
  <path id="path3259" style="" d="m699.17 26.255v1.3428c-0.40129-0.20578-0.81801-0.36012-1.2502-0.46302-0.43216-0.10289-0.87974-0.15433-1.3428-0.15434-0.70482 0.000008-1.2347 0.10804-1.5897 0.32411-0.34984 0.21608-0.52476 0.5402-0.52475 0.97234-0.00001 0.32926 0.12604 0.58907 0.37813 0.77942 0.25208 0.18521 0.75883 0.3627 1.5202 0.53247l0.48617 0.10804c1.0084 0.21608 1.7234 0.52219 2.1453 0.91832 0.427 0.391 0.6405 0.9389 0.64051 1.6437-0.00001 0.80257-0.31897 1.4379-0.95691 1.9061-0.63279 0.46816-1.5048 0.70225-2.6161 0.70225-0.46302 0-0.94662-0.0463-1.4508-0.13891-0.49903-0.08746-1.0264-0.22122-1.582-0.40128v-1.4662c0.52475 0.27267 1.0418 0.47846 1.5511 0.61736 0.50932 0.13376 1.0135 0.20064 1.5125 0.20064 0.6688 0.000001 1.1833-0.11318 1.5434-0.33955 0.36012-0.23151 0.54018-0.55562 0.54019-0.97234-0.00001-0.38585-0.13119-0.68166-0.39357-0.88745-0.25724-0.20578-0.82572-0.40385-1.7054-0.59421l-0.49389-0.11576c-0.87974-0.1852-1.5151-0.46816-1.9061-0.84887-0.39099-0.38584-0.58649-0.91317-0.58649-1.582 0-0.81285 0.2881-1.4405 0.86431-1.8829 0.57619-0.44243 1.3942-0.66365 2.454-0.66366 0.52475 0.000009 1.0186 0.03859 1.4817 0.11576 0.46301 0.07718 0.89002 0.19293 1.281 0.34726"/>
 </g>
</svg>
