<?xml version="1.0" encoding="UTF-8" standalone="no"?>
<!-- Created with Inkscape (http://www.inkscape.org/) -->

<svg
   xmlns:dc="http://purl.org/dc/elements/1.1/"
   xmlns:cc="http://creativecommons.org/ns#"
   xmlns:rdf="http://www.w3.org/1999/02/22-rdf-syntax-ns#"
   xmlns:svg="http://www.w3.org/2000/svg"
   xmlns="http://www.w3.org/2000/svg"
   xmlns:sodipodi="http://sodipodi.sourceforge.net/DTD/sodipodi-0.dtd"
   xmlns:inkscape="http://www.inkscape.org/namespaces/inkscape"
   version="1.1"
   width="1238.3417"
   height="332.39737"
   viewBox="158 117 681.99997 173.54835"
   id="svg2"
   inkscape:version="0.48.4 r9939"
   sodipodi:docname="fakt.svg">
  <sodipodi:namedview
     pagecolor="#ffffff"
     bordercolor="#666666"
     borderopacity="1"
     objecttolerance="10"
     gridtolerance="10"
     guidetolerance="10"
     inkscape:pageopacity="0"
     inkscape:pageshadow="2"
     inkscape:window-width="640"
     inkscape:window-height="480"
     id="namedview127"
     showgrid="false"
     inkscape:zoom="0.34592381"
     inkscape:cx="618.26299"
     inkscape:cy="165.57115"
     inkscape:window-x="0"
     inkscape:window-y="25"
     inkscape:window-maximized="0"
     inkscape:current-layer="svg2" />
  <metadata
     id="metadata252">
    <rdf:RDF>
      <cc:Work
         rdf:about="">
        <dc:format>image/svg+xml</dc:format>
        <dc:type
           rdf:resource="http://purl.org/dc/dcmitype/StillImage" />
      </cc:Work>
    </rdf:RDF>
  </metadata>
  <defs
     id="defs250" />
  <g
     id="g4"
     transform="translate(-1,-5.6941416)">
    <g
       id="g6">
      <path
         style="fill:#ffffff"
         d="m 200,200 c 0,11.04569 -8.95431,20 -20,20 -11.04569,0 -20,-8.95431 -20,-20 0,-11.04569 8.95431,-20 20,-20 11.04569,0 20,8.95431 20,20 z"
         id="ellipse8" />
      <path
         style="fill:none;stroke:#000000;stroke-width:2"
         d="m 200,200 c 0,11.04569 -8.95431,20 -20,20 -11.04569,0 -20,-8.95431 -20,-20 0,-11.04569 8.95431,-20 20,-20 11.04569,0 20,8.95431 20,20 z"
         id="ellipse10" />
    </g>
    <path
       style="fill:none;stroke:#000000;stroke-width:2"
       d="m 160,240 40,0"
       id="line12" />
    <path
       style="fill:none;stroke:#000000;stroke-width:2"
       d="m 180,220 0,40"
       id="line14" />
    <path
       style="fill:none;stroke:#000000;stroke-width:2"
       d="m 180,260 -20,40"
       id="line16" />
    <path
       style="fill:none;stroke:#000000;stroke-width:2"
       d="m 180,260 20,40"
       id="line18" />
  </g>
  <g
     id="g20"
     transform="translate(-1,-5.6941416)">
    <path
       style="fill:none;stroke:#000000;stroke-width:2"
       d="m 220,220 70.26401,0"
       id="line22" />
    <path
       style="fill:#000000"
       d="m 290.264,220 -2.5,-5 10,5 -10,5 z"
       id="polygon24" />
    <path
       style="fill:none;stroke:#000000;stroke-width:2"
       d="m 290.264,220 -2.5,-5 10,5 -10,5 z"
       id="polygon26" />
  </g>
  <g
     style="font-size:20.31999969px;font-style:normal;font-weight:normal;text-anchor:middle;fill:#000000;font-family:sans-serif"
     id="text28">
    <path
       d="m 234.98906,195.91741 0,1.51805 -1.74625,0 c -0.65485,1e-5 -1.11125,0.13231 -1.36922,0.39687 -0.25135,0.2646 -0.37703,0.74085 -0.37703,1.42875 l 0,0.98227 3.00633,0 0,1.41883 -3.00633,0 0,9.69367 -1.83554,0 0,-9.69367 -1.74625,0 0,-1.41883 1.74625,0 0,-0.77391 c -1e-5,-1.23691 0.28773,-2.13649 0.8632,-2.69875 0.57546,-0.56883 1.48828,-0.85326 2.73844,-0.85328 l 1.7264,0"
       style=""
       id="path3114" />
    <path
       d="m 241.55734,205.76983 c -1.47505,10e-6 -2.49701,0.16868 -3.06586,0.50602 -0.56885,0.33735 -0.85328,0.91282 -0.85328,1.72641 0,0.64823 0.21167,1.16417 0.635,1.54781 0.42995,0.37703 1.01203,0.56555 1.74625,0.56555 1.01203,0 1.82231,-0.35719 2.43086,-1.07157 0.61515,-0.72098 0.92273,-1.67679 0.92274,-2.86742 l 0,-0.4068 -1.81571,0 m 3.64133,-0.75406 0,6.34008 -1.82562,0 0,-1.68672 c -0.41673,0.67469 -0.93597,1.17409 -1.55774,1.4982 -0.62177,0.3175 -1.38245,0.47625 -2.28203,0.47625 -1.13771,0 -2.04391,-0.3175 -2.71859,-0.9525 -0.66808,-0.64161 -1.00211,-1.4982 -1.00211,-2.56976 0,-1.25015 0.41672,-2.19273 1.25015,-2.82774 0.84005,-0.63499 2.09021,-0.95249 3.75047,-0.9525 l 2.55985,0 0,-0.17859 c -1e-5,-0.84004 -0.27782,-1.48827 -0.83344,-1.94469 -0.54902,-0.46301 -1.32292,-0.69452 -2.32172,-0.69453 -0.635,1e-5 -1.25347,0.0761 -1.85539,0.22821 -0.60193,0.15214 -1.18071,0.38034 -1.73633,0.6846 l 0,-1.68671 c 0.66807,-0.25796 1.3163,-0.44978 1.94469,-0.57547 0.62838,-0.13228 1.24023,-0.19843 1.83555,-0.19844 1.60733,1e-5 2.80788,0.41673 3.60164,1.25016 0.79374,0.83344 1.19061,2.09683 1.19062,3.79015"
       style=""
       id="path3116" />
    <path
       d="m 248.89953,195.91741 1.83555,0 0,9.11821 5.44711,-4.79227 2.33164,0 -5.8936,5.19906 6.14165,5.91344 -2.38125,0 -5.64555,-5.42727 0,5.42727 -1.83555,0 0,-15.43844"
       style=""
       id="path3118" />
    <path
       d="m 262.56195,197.08819 0,3.15516 3.76039,0 0,1.41883 -3.76039,0 0,6.0325 c 0,0.9062 0.12237,1.48828 0.36711,1.74625 0.25135,0.25797 0.75737,0.38695 1.51805,0.38695 l 1.87523,0 0,1.52797 -1.87523,0 c -1.40891,0 -2.38125,-0.26128 -2.91703,-0.78383 -0.53578,-0.52916 -0.80367,-1.48828 -0.80367,-2.87734 l 0,-6.0325 -1.33946,0 0,-1.41883 1.33946,0 0,-3.15516 1.83554,0"
       style=""
       id="path3120" />
    <path
       d="m 274.49797,198.28874 -5.06016,7.90774 5.06016,0 0,-7.90774 m -0.52586,-1.74625 2.52015,0 0,9.65399 2.11336,0 0,1.66687 -2.11336,0 0,3.4925 -1.99429,0 0,-3.4925 -6.68735,0 0,-1.93477 6.16149,-9.38609"
       style=""
       id="path3122" />
    <path
       d="m 283.63602,208.83569 2.01414,0 0,2.52016 -2.01414,0 0,-2.52016 m 1.9546,-1.45851 -1.89507,0 0,-1.52797 c -1e-5,-0.66807 0.0926,-1.21708 0.27781,-1.64703 0.1852,-0.42994 0.57546,-0.92934 1.17078,-1.4982 l 0.89297,-0.88305 c 0.37702,-0.35056 0.64822,-0.68129 0.81359,-0.99219 0.17197,-0.31087 0.25796,-0.62837 0.25797,-0.9525 -1e-5,-0.58868 -0.21829,-1.06493 -0.65484,-1.42875 -0.42996,-0.36379 -1.00212,-0.54569 -1.71649,-0.5457 -0.52255,1e-5 -1.08148,0.11577 -1.67679,0.34726 -0.5887,0.23153 -1.20386,0.56887 -1.84547,1.01203 l 0,-1.86531 c 0.62177,-0.37701 1.25015,-0.65813 1.88515,-0.84336 0.64161,-0.18519 1.30307,-0.27779 1.98438,-0.27781 1.21708,2e-5 2.19273,0.32082 2.92695,0.96242 0.74083,0.64163 1.11124,1.4883 1.11125,2.54 -1e-5,0.50272 -0.11907,0.98228 -0.35719,1.43867 -0.23813,0.44981 -0.65485,0.95913 -1.25015,1.52797 l -0.87313,0.85328 c -0.31089,0.3109 -0.53248,0.55564 -0.66476,0.73422 -0.12569,0.17199 -0.21498,0.34066 -0.26789,0.50602 -0.0397,0.13891 -0.0695,0.30758 -0.0893,0.50601 -0.0198,0.19845 -0.0298,0.46965 -0.0298,0.8136 l 0,1.22039"
       style=""
       id="path3124" />
  </g>
  <g
     id="g32"
     transform="translate(-1,-5.6941416)">
    <path
       style="fill:none;stroke:#000000;stroke-width:2"
       d="m 300,260 -70.26401,0"
       id="line34" />
    <path
       style="fill:#000000"
       d="m 229.736,260 2.5,5 -10,-5 10,-5 z"
       id="polygon36" />
    <path
       style="fill:none;stroke:#000000;stroke-width:2"
       d="m 229.736,260 2.5,5 -10,-5 10,-5 z"
       id="polygon38" />
  </g>
  <g
     style="font-size:20.31999969px;font-style:normal;font-weight:normal;text-anchor:middle;fill:#000000;font-family:sans-serif"
     id="text40">
    <path
       d="m 249.96117,249.66912 6.99492,0 0,1.68671 -9.40593,0 0,-1.68671 c 0.76067,-0.78714 1.79585,-1.84216 3.10554,-3.16508 1.3163,-1.32953 2.14312,-2.18611 2.48047,-2.56977 0.64161,-0.72098 1.08809,-1.32952 1.33946,-1.82562 0.25796,-0.5027 0.38694,-0.99549 0.38695,-1.47836 -1e-5,-0.78713 -0.27782,-1.42874 -0.83344,-1.92485 -0.54902,-0.49608 -1.2667,-0.74412 -2.15305,-0.74414 -0.62839,2e-5 -1.29315,0.10916 -1.99429,0.32743 -0.69454,0.21829 -1.43868,0.54902 -2.23242,0.99218 l 0,-2.02406 c 0.80697,-0.3241 1.56103,-0.56884 2.26218,-0.73422 0.70114,-0.16535 1.34276,-0.24803 1.92485,-0.24804 1.53457,1e-5 2.75827,0.38366 3.67109,1.15093 0.9128,0.76731 1.36921,1.79257 1.36922,3.07578 -10e-6,0.60856 -0.11577,1.18733 -0.34727,1.73633 -0.2249,0.54241 -0.63831,1.18402 -1.24023,1.92485 -0.16537,0.19183 -0.69123,0.74745 -1.57758,1.66687 -0.88636,0.91282 -2.13652,2.19274 -3.75047,3.83977"
       style=""
       id="path3130" />
    <path
       d="m 266.67953,238.28873 -5.06016,7.90773 5.06016,0 0,-7.90773 m -0.52586,-1.74625 2.52016,0 0,9.65398 2.11336,0 0,1.66688 -2.11336,0 0,3.49249 -1.9943,0 0,-3.49249 -6.68734,0 0,-1.93477 6.16148,-9.38609"
       style=""
       id="path3132" />
  </g>
  <g
     id="g44"
     transform="translate(-1,-5.6941416)">
    <g
       id="g46">
      <path
         style="fill:#ffffff"
         d="m 360,200 c 0,11.04569 -8.95431,20 -20,20 -11.04569,0 -20,-8.95431 -20,-20 0,-11.04569 8.95431,-20 20,-20 11.04569,0 20,8.95431 20,20 z"
         id="ellipse48" />
      <path
         style="fill:none;stroke:#000000;stroke-width:2"
         d="m 360,200 c 0,11.04569 -8.95431,20 -20,20 -11.04569,0 -20,-8.95431 -20,-20 0,-11.04569 8.95431,-20 20,-20 11.04569,0 20,8.95431 20,20 z"
         id="ellipse50" />
    </g>
    <path
       style="fill:none;stroke:#000000;stroke-width:2"
       d="m 320,240 40,0"
       id="line52" />
    <path
       style="fill:none;stroke:#000000;stroke-width:2"
       d="m 340,220 0,40"
       id="line54" />
    <path
       style="fill:none;stroke:#000000;stroke-width:2"
       d="m 340,260 -20,40"
       id="line56" />
    <path
       style="fill:none;stroke:#000000;stroke-width:2"
       d="m 340,260 20,40"
       id="line58" />
  </g>
  <g
     id="g60"
     transform="translate(-1,-5.6941416)">
    <path
       style="fill:none;stroke:#000000;stroke-width:2"
       d="m 380,220 70.26401,0"
       id="line62" />
    <path
       style="fill:#000000"
       d="m 450.264,220 -2.5,-5 10,5 -10,5 z"
       id="polygon64" />
    <path
       style="fill:none;stroke:#000000;stroke-width:2"
       d="m 450.264,220 -2.5,-5 10,5 -10,5 z"
       id="polygon66" />
  </g>
  <g
     style="font-size:20.31999969px;font-style:normal;font-weight:normal;text-anchor:middle;fill:#000000;font-family:sans-serif"
     id="text68">
    <path
       d="m 394.98906,195.91741 0,1.51805 -1.74625,0 c -0.65485,1e-5 -1.11125,0.13231 -1.36922,0.39687 -0.25135,0.2646 -0.37703,0.74085 -0.37703,1.42875 l 0,0.98227 3.00633,0 0,1.41883 -3.00633,0 0,9.69367 -1.83554,0 0,-9.69367 -1.74625,0 0,-1.41883 1.74625,0 0,-0.77391 c -1e-5,-1.23691 0.28773,-2.13649 0.8632,-2.69875 0.57546,-0.56883 1.48828,-0.85326 2.73844,-0.85328 l 1.7264,0"
       style=""
       id="path3144" />
    <path
       d="m 401.55734,205.76983 c -1.47505,10e-6 -2.49701,0.16868 -3.06586,0.50602 -0.56885,0.33735 -0.85328,0.91282 -0.85328,1.72641 0,0.64823 0.21167,1.16417 0.635,1.54781 0.42995,0.37703 1.01203,0.56555 1.74625,0.56555 1.01203,0 1.82231,-0.35719 2.43086,-1.07157 0.61515,-0.72098 0.92273,-1.67679 0.92274,-2.86742 l 0,-0.4068 -1.81571,0 m 3.64133,-0.75406 0,6.34008 -1.82562,0 0,-1.68672 c -0.41673,0.67469 -0.93597,1.17409 -1.55774,1.4982 -0.62177,0.3175 -1.38245,0.47625 -2.28203,0.47625 -1.13771,0 -2.04391,-0.3175 -2.71859,-0.9525 -0.66808,-0.64161 -1.00211,-1.4982 -1.00211,-2.56976 0,-1.25015 0.41672,-2.19273 1.25015,-2.82774 0.84005,-0.63499 2.09021,-0.95249 3.75047,-0.9525 l 2.55985,0 0,-0.17859 c -10e-6,-0.84004 -0.27782,-1.48827 -0.83344,-1.94469 -0.54902,-0.46301 -1.32292,-0.69452 -2.32172,-0.69453 -0.635,1e-5 -1.25347,0.0761 -1.85539,0.22821 -0.60193,0.15214 -1.18071,0.38034 -1.73633,0.6846 l 0,-1.68671 c 0.66807,-0.25796 1.3163,-0.44978 1.94469,-0.57547 0.62838,-0.13228 1.24023,-0.19843 1.83555,-0.19844 1.60733,1e-5 2.80788,0.41673 3.60164,1.25016 0.79374,0.83344 1.19061,2.09683 1.19062,3.79015"
       style=""
       id="path3146" />
    <path
       d="m 408.89953,195.91741 1.83555,0 0,9.11821 5.44711,-4.79227 2.33164,0 -5.8936,5.19906 6.14165,5.91344 -2.38125,0 -5.64555,-5.42727 0,5.42727 -1.83555,0 0,-15.43844"
       style=""
       id="path3148" />
    <path
       d="m 422.56195,197.08819 0,3.15516 3.76039,0 0,1.41883 -3.76039,0 0,6.0325 c 0,0.9062 0.12237,1.48828 0.36711,1.74625 0.25135,0.25797 0.75737,0.38695 1.51805,0.38695 l 1.87523,0 0,1.52797 -1.87523,0 c -1.40891,0 -2.38125,-0.26128 -2.91703,-0.78383 -0.53578,-0.52916 -0.80367,-1.48828 -0.80367,-2.87734 l 0,-6.0325 -1.33946,0 0,-1.41883 1.33946,0 0,-3.15516 1.83554,0"
       style=""
       id="path3150" />
    <path
       d="m 435.06351,203.36874 c 0.95911,0.20506 1.70656,0.6317 2.24235,1.27992 0.54238,0.64824 0.81358,1.4486 0.81359,2.4011 -10e-6,1.46182 -0.50272,2.59291 -1.50812,3.39328 -1.00543,0.80036 -2.43418,1.20054 -4.28625,1.20054 -0.62178,0 -1.26339,-0.0628 -1.92485,-0.18851 -0.65484,-0.11906 -1.33284,-0.30096 -2.03398,-0.5457 l 0,-1.93477 c 0.55562,0.32412 1.16416,0.56886 1.82562,0.73422 0.66146,0.16537 1.35268,0.24805 2.07368,0.24805 1.25676,0 2.21257,-0.24805 2.86742,-0.74414 0.66145,-0.4961 0.99218,-1.21708 0.99219,-2.16297 -10e-6,-0.87312 -0.30759,-1.55442 -0.92274,-2.04391 -0.60855,-0.49609 -1.45852,-0.74413 -2.54992,-0.74414 l -1.72641,0 0,-1.64703 1.80578,0 c 0.98557,1e-5 1.73963,-0.19512 2.26219,-0.58539 0.52255,-0.39687 0.78382,-0.96572 0.78383,-1.70656 -1e-5,-0.76067 -0.27121,-1.34275 -0.81359,-1.74625 -0.53579,-0.4101 -1.30639,-0.61515 -2.3118,-0.61516 -0.54902,1e-5 -1.13771,0.0595 -1.76609,0.17859 -0.62839,0.11908 -1.31962,0.30429 -2.07368,0.55563 l 0,-1.78594 c 0.76068,-0.21165 1.47175,-0.3704 2.13321,-0.47625 0.66806,-0.10582 1.29645,-0.15873 1.88515,-0.15875 1.52135,2e-5 2.7252,0.34728 3.61157,1.0418 0.88634,0.68793 1.32952,1.62058 1.32953,2.79797 -1e-5,0.82021 -0.23483,1.51475 -0.70446,2.08359 -0.46964,0.56225 -1.13771,0.95251 -2.00422,1.17078"
       style=""
       id="path3152" />
    <path
       d="m 443.63602,208.83569 2.01414,0 0,2.52016 -2.01414,0 0,-2.52016 m 1.9546,-1.45851 -1.89507,0 0,-1.52797 c -1e-5,-0.66807 0.0926,-1.21708 0.27781,-1.64703 0.1852,-0.42994 0.57546,-0.92934 1.17078,-1.4982 l 0.89297,-0.88305 c 0.37702,-0.35056 0.64822,-0.68129 0.81359,-0.99219 0.17197,-0.31087 0.25796,-0.62837 0.25797,-0.9525 -1e-5,-0.58868 -0.21829,-1.06493 -0.65484,-1.42875 -0.42996,-0.36379 -1.00212,-0.54569 -1.71649,-0.5457 -0.52255,1e-5 -1.08148,0.11577 -1.67679,0.34726 -0.5887,0.23153 -1.20386,0.56887 -1.84547,1.01203 l 0,-1.86531 c 0.62177,-0.37701 1.25015,-0.65813 1.88515,-0.84336 0.64161,-0.18519 1.30307,-0.27779 1.98438,-0.27781 1.21708,2e-5 2.19273,0.32082 2.92695,0.96242 0.74083,0.64163 1.11124,1.4883 1.11125,2.54 -1e-5,0.50272 -0.11907,0.98228 -0.35719,1.43867 -0.23813,0.44981 -0.65485,0.95913 -1.25015,1.52797 l -0.87313,0.85328 c -0.31089,0.3109 -0.53248,0.55564 -0.66476,0.73422 -0.12569,0.17199 -0.21498,0.34066 -0.26789,0.50602 -0.0397,0.13891 -0.0695,0.30758 -0.0893,0.50601 -0.0198,0.19845 -0.0298,0.46965 -0.0298,0.8136 l 0,1.22039"
       style=""
       id="path3154" />
  </g>
  <g
     id="g72"
     transform="translate(-1,-5.6941416)">
    <path
       style="fill:none;stroke:#000000;stroke-width:2"
       d="m 460,260 -70.26401,0"
       id="line74" />
    <path
       style="fill:#000000"
       d="m 389.736,260 2.5,5 -10,-5 10,-5 z"
       id="polygon76" />
    <path
       style="fill:none;stroke:#000000;stroke-width:2"
       d="m 389.736,260 2.5,5 -10,-5 10,-5 z"
       id="polygon78" />
  </g>
  <g
     style="font-size:20.31999969px;font-style:normal;font-weight:normal;text-anchor:middle;fill:#000000;font-family:sans-serif"
     id="text80">
    <path
       d="m 419.23812,243.15044 c -0.89958,1e-5 -1.61396,0.30759 -2.14312,0.92274 -0.52256,0.61516 -0.78383,1.45852 -0.78383,2.53008 0,1.06495 0.26127,1.90831 0.78383,2.53007 0.52916,0.61516 1.24354,0.92274 2.14312,0.92274 0.89958,0 1.61065,-0.30758 2.13321,-0.92274 0.52916,-0.62176 0.79374,-1.46512 0.79375,-2.53007 -10e-6,-1.07156 -0.26459,-1.91492 -0.79375,-2.53008 -0.52256,-0.61515 -1.23363,-0.92273 -2.13321,-0.92274 m 3.97868,-6.28054 0,1.82562 c -0.50272,-0.23811 -1.01204,-0.42001 -1.52797,-0.5457 -0.50933,-0.12566 -1.01535,-0.1885 -1.51805,-0.18852 -1.32292,2e-5 -2.33495,0.4465 -3.03609,1.33946 -0.69454,0.89298 -1.09141,2.24235 -1.19063,4.04812 0.39026,-0.57546 0.87974,-1.01533 1.46844,-1.31961 0.58869,-0.31087 1.23692,-0.46632 1.94469,-0.46633 1.48827,1e-5 2.66236,0.45311 3.52226,1.3593 0.8665,0.89959 1.29976,2.1266 1.29977,3.68102 -10e-6,1.52135 -0.4498,2.74174 -1.34938,3.66117 -0.89959,0.91943 -2.09683,1.37914 -3.59172,1.37914 -1.71318,0 -3.02286,-0.65484 -3.92906,-1.96453 -0.9062,-1.3163 -1.3593,-3.2213 -1.35929,-5.715 -10e-6,-2.34155 0.55562,-4.20687 1.66687,-5.59594 1.11125,-1.39566 2.60283,-2.0935 4.47477,-2.09351 0.5027,1e-5 1.00871,0.0496 1.51804,0.14882 0.51593,0.0992 1.05171,0.24806 1.60735,0.44649"
       style=""
       id="path3160" />
  </g>
  <g
     id="g84"
     transform="translate(-1,-5.6941416)">
    <g
       id="g86">
      <path
         style="fill:#ffffff"
         d="m 520,200 c 0,11.04569 -8.95431,20 -20,20 -11.04569,0 -20,-8.95431 -20,-20 0,-11.04569 8.95431,-20 20,-20 11.04569,0 20,8.95431 20,20 z"
         id="ellipse88" />
      <path
         style="fill:none;stroke:#000000;stroke-width:2"
         d="m 520,200 c 0,11.04569 -8.95431,20 -20,20 -11.04569,0 -20,-8.95431 -20,-20 0,-11.04569 8.95431,-20 20,-20 11.04569,0 20,8.95431 20,20 z"
         id="ellipse90" />
    </g>
    <path
       style="fill:none;stroke:#000000;stroke-width:2"
       d="m 480,240 40,0"
       id="line92" />
    <path
       style="fill:none;stroke:#000000;stroke-width:2"
       d="m 500,220 0,40"
       id="line94" />
    <path
       style="fill:none;stroke:#000000;stroke-width:2"
       d="m 500,260 -20,40"
       id="line96" />
    <path
       style="fill:none;stroke:#000000;stroke-width:2"
       d="m 500,260 20,40"
       id="line98" />
  </g>
  <g
     id="g100"
     transform="translate(-1,-5.6941416)">
    <path
       style="fill:none;stroke:#000000;stroke-width:2"
       d="m 540,220 70.26398,0"
       id="line102" />
    <path
       style="fill:#000000"
       d="m 610.264,220 -2.5,-5 10,5 -10,5 z"
       id="polygon104" />
    <path
       style="fill:none;stroke:#000000;stroke-width:2"
       d="m 610.264,220 -2.5,-5 10,5 -10,5 z"
       id="polygon106" />
  </g>
  <g
     style="font-size:20.31999969px;font-style:normal;font-weight:normal;text-anchor:middle;fill:#000000;font-family:sans-serif"
     id="text108">
    <path
       d="m 554.98906,195.91741 0,1.51805 -1.74625,0 c -0.65485,1e-5 -1.11125,0.13231 -1.36922,0.39687 -0.25135,0.2646 -0.37703,0.74085 -0.37703,1.42875 l 0,0.98227 3.00633,0 0,1.41883 -3.00633,0 0,9.69367 -1.83554,0 0,-9.69367 -1.74625,0 0,-1.41883 1.74625,0 0,-0.77391 c -10e-6,-1.23691 0.28773,-2.13649 0.8632,-2.69875 0.57546,-0.56883 1.48828,-0.85326 2.73844,-0.85328 l 1.7264,0"
       style=""
       id="path3172" />
    <path
       d="m 561.55734,205.76983 c -1.47505,10e-6 -2.49701,0.16868 -3.06586,0.50602 -0.56885,0.33735 -0.85328,0.91282 -0.85328,1.72641 0,0.64823 0.21167,1.16417 0.635,1.54781 0.42995,0.37703 1.01203,0.56555 1.74625,0.56555 1.01203,0 1.82231,-0.35719 2.43086,-1.07157 0.61515,-0.72098 0.92273,-1.67679 0.92274,-2.86742 l 0,-0.4068 -1.81571,0 m 3.64133,-0.75406 0,6.34008 -1.82562,0 0,-1.68672 c -0.41673,0.67469 -0.93597,1.17409 -1.55774,1.4982 -0.62177,0.3175 -1.38245,0.47625 -2.28203,0.47625 -1.13771,0 -2.04391,-0.3175 -2.71859,-0.9525 -0.66808,-0.64161 -1.00211,-1.4982 -1.00211,-2.56976 0,-1.25015 0.41672,-2.19273 1.25015,-2.82774 0.84005,-0.63499 2.09021,-0.95249 3.75047,-0.9525 l 2.55985,0 0,-0.17859 c -1e-5,-0.84004 -0.27782,-1.48827 -0.83344,-1.94469 -0.54902,-0.46301 -1.32292,-0.69452 -2.32172,-0.69453 -0.635,1e-5 -1.25347,0.0761 -1.85539,0.22821 -0.60193,0.15214 -1.18071,0.38034 -1.73633,0.6846 l 0,-1.68671 c 0.66807,-0.25796 1.3163,-0.44978 1.94469,-0.57547 0.62838,-0.13228 1.24023,-0.19843 1.83555,-0.19844 1.60733,1e-5 2.80788,0.41673 3.60164,1.25016 0.79374,0.83344 1.19061,2.09683 1.19062,3.79015"
       style=""
       id="path3174" />
    <path
       d="m 568.89953,195.91741 1.83555,0 0,9.11821 5.44711,-4.79227 2.33164,0 -5.8936,5.19906 6.14165,5.91344 -2.38125,0 -5.64555,-5.42727 0,5.42727 -1.83555,0 0,-15.43844"
       style=""
       id="path3176" />
    <path
       d="m 582.56195,197.08819 0,3.15516 3.76039,0 0,1.41883 -3.76039,0 0,6.0325 c 0,0.9062 0.12237,1.48828 0.36711,1.74625 0.25135,0.25797 0.75737,0.38695 1.51805,0.38695 l 1.87523,0 0,1.52797 -1.87523,0 c -1.40891,0 -2.38125,-0.26128 -2.91703,-0.78383 -0.53578,-0.52916 -0.80367,-1.48828 -0.80367,-2.87734 l 0,-6.0325 -1.33946,0 0,-1.41883 1.33946,0 0,-3.15516 1.83554,0"
       style=""
       id="path3178" />
    <path
       d="m 590.71773,209.66913 6.99493,0 0,1.68672 -9.40594,0 0,-1.68672 c 0.76067,-0.78713 1.79585,-1.84216 3.10554,-3.16508 1.3163,-1.32952 2.14312,-2.18611 2.48047,-2.56976 0.64161,-0.72098 1.08809,-1.32952 1.33946,-1.82563 0.25796,-0.5027 0.38694,-0.99548 0.38695,-1.47836 -10e-6,-0.78712 -0.27782,-1.42873 -0.83344,-1.92484 -0.54902,-0.49608 -1.2667,-0.74413 -2.15304,-0.74414 -0.6284,1e-5 -1.29316,0.10915 -1.9943,0.32742 -0.69454,0.2183 -1.43868,0.54902 -2.23242,0.99219 l 0,-2.02406 c 0.80697,-0.3241 1.56104,-0.56884 2.26218,-0.73422 0.70115,-0.16535 1.34276,-0.24803 1.92485,-0.24805 1.53457,2e-5 2.75827,0.38366 3.67109,1.15094 0.9128,0.7673 1.36921,1.79256 1.36922,3.07578 -10e-6,0.60855 -0.11577,1.18733 -0.34727,1.73633 -0.2249,0.5424 -0.63831,1.18402 -1.24023,1.92484 -0.16537,0.19183 -0.69123,0.74746 -1.57758,1.66688 -0.88636,0.91281 -2.13651,2.19273 -3.75047,3.83976"
       style=""
       id="path3180" />
    <path
       d="m 603.63602,208.83569 2.01414,0 0,2.52016 -2.01414,0 0,-2.52016 m 1.9546,-1.45851 -1.89507,0 0,-1.52797 c -10e-6,-0.66807 0.0926,-1.21708 0.27781,-1.64703 0.1852,-0.42994 0.57546,-0.92934 1.17078,-1.4982 l 0.89297,-0.88305 c 0.37702,-0.35056 0.64822,-0.68129 0.81359,-0.99219 0.17197,-0.31087 0.25796,-0.62837 0.25797,-0.9525 -10e-6,-0.58868 -0.21829,-1.06493 -0.65484,-1.42875 -0.42996,-0.36379 -1.00212,-0.54569 -1.71649,-0.5457 -0.52255,1e-5 -1.08148,0.11577 -1.67679,0.34726 -0.5887,0.23153 -1.20386,0.56887 -1.84547,1.01203 l 0,-1.86531 c 0.62177,-0.37701 1.25015,-0.65813 1.88515,-0.84336 0.64161,-0.18519 1.30307,-0.27779 1.98438,-0.27781 1.21708,2e-5 2.19273,0.32082 2.92695,0.96242 0.74083,0.64163 1.11124,1.4883 1.11125,2.54 -10e-6,0.50272 -0.11907,0.98228 -0.35719,1.43867 -0.23813,0.44981 -0.65485,0.95913 -1.25015,1.52797 l -0.87313,0.85328 c -0.31089,0.3109 -0.53248,0.55564 -0.66476,0.73422 -0.12569,0.17199 -0.21498,0.34066 -0.26789,0.50602 -0.0397,0.13891 -0.0695,0.30758 -0.0893,0.50601 -0.0199,0.19845 -0.0298,0.46965 -0.0298,0.8136 l 0,1.22039"
       style=""
       id="path3182" />
  </g>
  <g
     id="g112"
     transform="translate(-1,-5.6941416)">
    <path
       style="fill:none;stroke:#000000;stroke-width:2"
       d="m 620,260 -70.26398,0"
       id="line114" />
    <path
       style="fill:#000000"
       d="m 549.736,260 2.5,5 -10,-5 10,-5 z"
       id="polygon116" />
    <path
       style="fill:none;stroke:#000000;stroke-width:2"
       d="m 549.736,260 2.5,5 -10,-5 10,-5 z"
       id="polygon118" />
  </g>
  <g
     style="font-size:20.31999969px;font-style:normal;font-weight:normal;text-anchor:middle;fill:#000000;font-family:sans-serif"
     id="text120">
    <path
       d="m 576.43023,249.66912 6.99493,0 0,1.68671 -9.40594,0 0,-1.68671 c 0.76067,-0.78714 1.79585,-1.84216 3.10555,-3.16508 1.31629,-1.32953 2.14311,-2.18611 2.48046,-2.56977 0.64161,-0.72098 1.0881,-1.32952 1.33946,-1.82562 0.25796,-0.5027 0.38694,-0.99549 0.38695,-1.47836 -10e-6,-0.78713 -0.27782,-1.42874 -0.83344,-1.92485 -0.54901,-0.49608 -1.2667,-0.74412 -2.15304,-0.74414 -0.62839,2e-5 -1.29316,0.10916 -1.9943,0.32743 -0.69453,0.21829 -1.43867,0.54902 -2.23242,0.99218 l 0,-2.02406 c 0.80697,-0.3241 1.56104,-0.56884 2.26219,-0.73422 0.70114,-0.16535 1.34275,-0.24803 1.92484,-0.24804 1.53457,1e-5 2.75827,0.38366 3.67109,1.15093 0.9128,0.76731 1.36921,1.79257 1.36922,3.07578 -10e-6,0.60856 -0.11576,1.18733 -0.34726,1.73633 -0.22491,0.54241 -0.63832,1.18402 -1.24024,1.92485 -0.16537,0.19183 -0.69123,0.74745 -1.57758,1.66687 -0.88636,0.91282 -2.13651,2.19274 -3.75047,3.83977"
       style=""
       id="path3188" />
  </g>
  <g
     id="g124"
     transform="translate(-1,-5.6941416)">
    <g
       id="g126">
      <path
         style="fill:#ffffff"
         d="m 680,200 c 0,11.04569 -8.95431,20 -20,20 -11.04569,0 -20,-8.95431 -20,-20 0,-11.04569 8.95431,-20 20,-20 11.04569,0 20,8.95431 20,20 z"
         id="ellipse128" />
      <path
         style="fill:none;stroke:#000000;stroke-width:2"
         d="m 680,200 c 0,11.04569 -8.95431,20 -20,20 -11.04569,0 -20,-8.95431 -20,-20 0,-11.04569 8.95431,-20 20,-20 11.04569,0 20,8.95431 20,20 z"
         id="ellipse130" />
    </g>
    <path
       style="fill:none;stroke:#000000;stroke-width:2"
       d="m 640,240 40,0"
       id="line132" />
    <path
       style="fill:none;stroke:#000000;stroke-width:2"
       d="m 660,220 0,40"
       id="line134" />
    <path
       style="fill:none;stroke:#000000;stroke-width:2"
       d="m 660,260 -20,40"
       id="line136" />
    <path
       style="fill:none;stroke:#000000;stroke-width:2"
       d="m 660,260 20,40"
       id="line138" />
  </g>
  <g
     id="g140"
     transform="translate(-1,-5.6941416)">
    <path
       style="fill:none;stroke:#000000;stroke-width:2"
       d="m 700,220 70.26398,0"
       id="line142" />
    <path
       style="fill:#000000"
       d="m 770.264,220 -2.5,-5 10,5 -10,5 z"
       id="polygon144" />
    <path
       style="fill:none;stroke:#000000;stroke-width:2"
       d="m 770.264,220 -2.5,-5 10,5 -10,5 z"
       id="polygon146" />
  </g>
  <g
     style="font-size:20.31999969px;font-style:normal;font-weight:normal;text-anchor:middle;fill:#000000;font-family:sans-serif"
     id="text148">
    <path
       d="m 714.98906,195.91741 0,1.51805 -1.74625,0 c -0.65485,1e-5 -1.11125,0.13231 -1.36922,0.39687 -0.25135,0.2646 -0.37703,0.74085 -0.37703,1.42875 l 0,0.98227 3.00633,0 0,1.41883 -3.00633,0 0,9.69367 -1.83554,0 0,-9.69367 -1.74625,0 0,-1.41883 1.74625,0 0,-0.77391 c -10e-6,-1.23691 0.28773,-2.13649 0.8632,-2.69875 0.57546,-0.56883 1.48828,-0.85326 2.73844,-0.85328 l 1.7264,0"
       style=""
       id="path3200" />
    <path
       d="m 721.55734,205.76983 c -1.47505,10e-6 -2.49701,0.16868 -3.06586,0.50602 -0.56885,0.33735 -0.85328,0.91282 -0.85328,1.72641 0,0.64823 0.21167,1.16417 0.635,1.54781 0.42995,0.37703 1.01203,0.56555 1.74625,0.56555 1.01203,0 1.82231,-0.35719 2.43086,-1.07157 0.61515,-0.72098 0.92273,-1.67679 0.92274,-2.86742 l 0,-0.4068 -1.81571,0 m 3.64133,-0.75406 0,6.34008 -1.82562,0 0,-1.68672 c -0.41673,0.67469 -0.93597,1.17409 -1.55774,1.4982 -0.62177,0.3175 -1.38245,0.47625 -2.28203,0.47625 -1.13771,0 -2.04391,-0.3175 -2.71859,-0.9525 -0.66808,-0.64161 -1.00211,-1.4982 -1.00211,-2.56976 0,-1.25015 0.41672,-2.19273 1.25015,-2.82774 0.84005,-0.63499 2.09021,-0.95249 3.75047,-0.9525 l 2.55985,0 0,-0.17859 c -1e-5,-0.84004 -0.27782,-1.48827 -0.83344,-1.94469 -0.54902,-0.46301 -1.32292,-0.69452 -2.32172,-0.69453 -0.635,1e-5 -1.25347,0.0761 -1.85539,0.22821 -0.60193,0.15214 -1.18071,0.38034 -1.73633,0.6846 l 0,-1.68671 c 0.66807,-0.25796 1.3163,-0.44978 1.94469,-0.57547 0.62838,-0.13228 1.24023,-0.19843 1.83555,-0.19844 1.60733,1e-5 2.80788,0.41673 3.60164,1.25016 0.79374,0.83344 1.19061,2.09683 1.19062,3.79015"
       style=""
       id="path3202" />
    <path
       d="m 728.89953,195.91741 1.83555,0 0,9.11821 5.44711,-4.79227 2.33164,0 -5.8936,5.19906 6.14165,5.91344 -2.38125,0 -5.64555,-5.42727 0,5.42727 -1.83555,0 0,-15.43844"
       style=""
       id="path3204" />
    <path
       d="m 742.56195,197.08819 0,3.15516 3.76039,0 0,1.41883 -3.76039,0 0,6.0325 c 0,0.9062 0.12237,1.48828 0.36711,1.74625 0.25135,0.25797 0.75737,0.38695 1.51805,0.38695 l 1.87523,0 0,1.52797 -1.87523,0 c -1.40891,0 -2.38125,-0.26128 -2.91703,-0.78383 -0.53578,-0.52916 -0.80367,-1.48828 -0.80367,-2.87734 l 0,-6.0325 -1.33946,0 0,-1.41883 1.33946,0 0,-3.15516 1.83554,0"
       style=""
       id="path3206" />
    <path
       d="m 749.33859,209.66913 3.27422,0 0,-11.30101 -3.56195,0.71437 0,-1.82562 3.54211,-0.71438 2.00422,0 0,13.12664 3.27422,0 0,1.68672 -8.53282,0 0,-1.68672"
       style=""
       id="path3208" />
    <path
       d="m 763.63602,208.83569 2.01414,0 0,2.52016 -2.01414,0 0,-2.52016 m 1.9546,-1.45851 -1.89507,0 0,-1.52797 c -10e-6,-0.66807 0.0926,-1.21708 0.27781,-1.64703 0.1852,-0.42994 0.57546,-0.92934 1.17078,-1.4982 l 0.89297,-0.88305 c 0.37702,-0.35056 0.64822,-0.68129 0.81359,-0.99219 0.17197,-0.31087 0.25796,-0.62837 0.25797,-0.9525 -10e-6,-0.58868 -0.21829,-1.06493 -0.65484,-1.42875 -0.42996,-0.36379 -1.00212,-0.54569 -1.71649,-0.5457 -0.52255,1e-5 -1.08148,0.11577 -1.67679,0.34726 -0.5887,0.23153 -1.20386,0.56887 -1.84547,1.01203 l 0,-1.86531 c 0.62177,-0.37701 1.25015,-0.65813 1.88515,-0.84336 0.64161,-0.18519 1.30307,-0.27779 1.98438,-0.27781 1.21708,2e-5 2.19273,0.32082 2.92695,0.96242 0.74083,0.64163 1.11124,1.4883 1.11125,2.54 -10e-6,0.50272 -0.11907,0.98228 -0.35719,1.43867 -0.23813,0.44981 -0.65485,0.95913 -1.25015,1.52797 l -0.87313,0.85328 c -0.31089,0.3109 -0.53248,0.55564 -0.66476,0.73422 -0.12569,0.17199 -0.21498,0.34066 -0.26789,0.50602 -0.0397,0.13891 -0.0695,0.30758 -0.0893,0.50601 -0.0199,0.19845 -0.0298,0.46965 -0.0298,0.8136 l 0,1.22039"
       style=""
       id="path3210" />
  </g>
  <g
     id="g152"
     transform="translate(-1,-5.6941416)">
    <path
       style="fill:none;stroke:#000000;stroke-width:2"
       d="m 780,260 -70.26398,0"
       id="line154" />
    <path
       style="fill:#000000"
       d="m 709.736,260 2.5,5 -10,-5 10,-5 z"
       id="polygon156" />
    <path
       style="fill:none;stroke:#000000;stroke-width:2"
       d="m 709.736,260 2.5,5 -10,-5 10,-5 z"
       id="polygon158" />
  </g>
  <g
     style="font-size:20.31999969px;font-style:normal;font-weight:normal;text-anchor:middle;fill:#000000;font-family:sans-serif"
     id="text160">
    <path
       d="m 735.05109,249.66912 3.27422,0 0,-11.30102 -3.56195,0.71438 0,-1.82563 3.54211,-0.71437 2.00422,0 0,13.12664 3.27422,0 0,1.68671 -8.53282,0 0,-1.68671"
       style=""
       id="path3216" />
  </g>
  <g
     id="g164"
     transform="translate(-1,-5.6941416)">
    <g
       id="g166">
      <path
         style="fill:#ffffff"
         d="m 840,200 c 0,11.04569 -8.95431,20 -20,20 -11.04569,0 -20,-8.95431 -20,-20 0,-11.04569 8.95431,-20 20,-20 11.04569,0 20,8.95431 20,20 z"
         id="ellipse168" />
      <path
         style="fill:none;stroke:#000000;stroke-width:2"
         d="m 840,200 c 0,11.04569 -8.95431,20 -20,20 -11.04569,0 -20,-8.95431 -20,-20 0,-11.04569 8.95431,-20 20,-20 11.04569,0 20,8.95431 20,20 z"
         id="ellipse170" />
    </g>
    <path
       style="fill:none;stroke:#000000;stroke-width:2"
       d="m 800,240 40,0"
       id="line172" />
    <path
       style="fill:none;stroke:#000000;stroke-width:2"
       d="m 820,220 0,40"
       id="line174" />
    <path
       style="fill:none;stroke:#000000;stroke-width:2"
       d="m 820,260 -20,40"
       id="line176" />
    <path
       style="fill:none;stroke:#000000;stroke-width:2"
       d="m 820,260 20,40"
       id="line178" />
  </g>
  <g
     id="g180"
     transform="translate(-1,-5.6941416)">
    <g
       id="g182">
      <path
         d="m 388.216,133.224 c -6.197,-0.186 -18.216,3.739 -16.526,12.149 1.69,8.411 9.765,10.28 13.146,7.85 3.38,-2.43 -5.259,11.775 11.267,15.513 16.526,3.738 24.977,-2.243 22.535,-6.542 -2.441,-4.298 14.461,10.093 22.348,1.869 7.887,-8.223 -8.075,-16.073 -4.695,-14.952 3.38,1.122 13.709,-0.374 10.329,-14.391 -3.381,-14.018 -33.803,-3.178 -30.423,-5.234 3.38,-2.056 -5.07,-12.335 -15.587,-10.279 -10.516,2.056 -11.262,5.786 -12.389,14.01 l -0.005,0.007 z"
         inkscape:connector-curvature="0"
         id="path184"
         style="fill:#7babe3" />
      <path
         d="m 388.216,133.224 c -6.197,-0.186 -18.216,3.739 -16.526,12.149 1.69,8.411 9.765,10.28 13.146,7.85 3.38,-2.43 -5.259,11.775 11.267,15.513 16.526,3.738 24.977,-2.243 22.535,-6.542 -2.441,-4.298 14.461,10.093 22.348,1.869 7.887,-8.223 -8.075,-16.073 -4.695,-14.952 3.38,1.122 13.709,-0.374 10.329,-14.391 -3.381,-14.018 -33.803,-3.178 -30.423,-5.234 3.38,-2.056 -5.07,-12.335 -15.587,-10.279 -10.516,2.056 -11.262,5.786 -12.389,14.01 l -0.005,0.007"
         inkscape:connector-curvature="0"
         id="path186"
         style="fill:none;stroke:#000000;stroke-width:2" />
      <g
         style="font-size:20.31999969px;font-style:normal;font-weight:normal;text-anchor:middle;fill:#000000;font-family:sans-serif"
         id="text188">
        <path
           d="m 411.41077,141.22394 -4.5343,4.55414 4.5343,4.5343 -1.1807,1.20054 -4.55414,-4.55414 -4.55414,4.55414 -1.17079,-1.20054 4.52438,-4.5343 -4.52438,-4.55414 1.17079,-1.20055 4.55414,4.55414 4.55414,-4.55414 1.1807,1.20055"
           style=""
           id="path3225" />
        <path
           d="m 421.86843,139.07089 -5.06016,7.90774 5.06016,0 0,-7.90774 m -0.52586,-1.74625 2.52015,0 0,9.65399 2.11336,0 0,1.66687 -2.11336,0 0,3.4925 -1.99429,0 0,-3.4925 -6.68735,0 0,-1.93477 6.16149,-9.38609"
           style=""
           id="path3227" />
      </g>
    </g>
    <g
       id="g192">
      <path
         d="m 360,152 c 10,4 2,2.667 2,6 0,3.333 -6,6 -10,0 -4,-6 -2,-10 8,-6 z"
         inkscape:connector-curvature="0"
         id="path194"
         style="fill:#7babe3" />
      <path
         d="m 360,152 c 10,4 2,2.667 2,6 0,3.333 -6,6 -10,0 -4,-6 -2,-10 8,-6"
         inkscape:connector-curvature="0"
         id="path196"
         style="fill:none;stroke:#000000;stroke-width:2" />
    </g>
    <g
       id="g198">
      <path
         d="m 344,168 c 6,0 4,-4 6,0 2,4 -2,4 -6,4 -4,0 -6,-4 0,-4 z"
         inkscape:connector-curvature="0"
         id="path200"
         style="fill:#7babe3" />
      <path
         d="m 344,168 c 6,0 4,-4 6,0 2,4 -2,4 -6,4 -4,0 -6,-4 0,-4"
         inkscape:connector-curvature="0"
         id="path202"
         style="fill:none;stroke:#000000;stroke-width:2" />
    </g>
  </g>
  <g
     id="g204"
     transform="translate(-1,-5.6941416)">
    <path
       d="m 548.216,133.224 c -6.197,-0.186 -18.216,3.739 -16.526,12.149 1.69,8.411 9.765,10.28 13.146,7.85 3.38,-2.43 -5.259,11.775 11.267,15.513 16.526,3.738 24.977,-2.243 22.535,-6.542 -2.441,-4.298 14.461,10.093 22.348,1.869 7.887,-8.223 -8.075,-16.073 -4.695,-14.952 3.38,1.122 13.709,-0.374 10.329,-14.391 -3.381,-14.018 -33.803,-3.178 -30.423,-5.234 3.38,-2.056 -5.07,-12.335 -15.587,-10.279 -10.516,2.056 -11.262,5.786 -12.389,14.01 l -0.005,0.007 z"
       inkscape:connector-curvature="0"
       id="path206"
       style="fill:#7babe3" />
    <path
       d="m 548.216,133.224 c -6.197,-0.186 -18.216,3.739 -16.526,12.149 1.69,8.411 9.765,10.28 13.146,7.85 3.38,-2.43 -5.259,11.775 11.267,15.513 16.526,3.738 24.977,-2.243 22.535,-6.542 -2.441,-4.298 14.461,10.093 22.348,1.869 7.887,-8.223 -8.075,-16.073 -4.695,-14.952 3.38,1.122 13.709,-0.374 10.329,-14.391 -3.381,-14.018 -33.803,-3.178 -30.423,-5.234 3.38,-2.056 -5.07,-12.335 -15.587,-10.279 -10.516,2.056 -11.262,5.786 -12.389,14.01 l -0.005,0.007"
       inkscape:connector-curvature="0"
       id="path208"
       style="fill:none;stroke:#000000;stroke-width:2" />
    <g
       style="font-size:20.31999969px;font-style:normal;font-weight:normal;text-anchor:middle;fill:#000000;font-family:sans-serif"
       id="text210">
      <path
         d="m 571.4108,141.22394 -4.5343,4.55414 4.5343,4.5343 -1.1807,1.20054 -4.55414,-4.55414 -4.55414,4.55414 -1.17078,-1.20054 4.52437,-4.5343 -4.52437,-4.55414 1.17078,-1.20055 4.55414,4.55414 4.55414,-4.55414 1.1807,1.20055"
         style=""
         id="path3230" />
      <path
         d="m 582.434,144.15089 c 0.95911,0.20506 1.70656,0.6317 2.24235,1.27992 0.54238,0.64824 0.81358,1.4486 0.81359,2.4011 -1e-5,1.46182 -0.50272,2.59292 -1.50812,3.39328 -1.00543,0.80036 -2.43418,1.20054 -4.28625,1.20054 -0.62178,0 -1.26339,-0.0628 -1.92485,-0.18851 -0.65484,-0.11906 -1.33284,-0.30096 -2.03398,-0.5457 l 0,-1.93477 c 0.55562,0.32412 1.16416,0.56886 1.82562,0.73422 0.66146,0.16537 1.35268,0.24805 2.07368,0.24805 1.25676,0 2.21257,-0.24805 2.86742,-0.74414 0.66145,-0.4961 0.99218,-1.21708 0.99219,-2.16297 -10e-6,-0.87312 -0.30759,-1.55442 -0.92274,-2.04391 -0.60855,-0.49609 -1.45852,-0.74413 -2.54992,-0.74414 l -1.72641,0 0,-1.64703 1.80578,0 c 0.98557,1e-5 1.73963,-0.19512 2.26219,-0.58539 0.52254,-0.39687 0.78382,-0.96572 0.78383,-1.70656 -10e-6,-0.76067 -0.27121,-1.34275 -0.81359,-1.74625 -0.53579,-0.4101 -1.30639,-0.61515 -2.3118,-0.61516 -0.54902,1e-5 -1.13771,0.0595 -1.76609,0.17859 -0.62839,0.11908 -1.31962,0.30429 -2.07368,0.55563 l 0,-1.78594 c 0.76068,-0.21165 1.47174,-0.3704 2.13321,-0.47625 0.66806,-0.10582 1.29645,-0.15873 1.88515,-0.15875 1.52135,2e-5 2.7252,0.34728 3.61157,1.0418 0.88634,0.68793 1.32952,1.62058 1.32953,2.79797 -1e-5,0.82022 -0.23483,1.51475 -0.70446,2.08359 -0.46964,0.56225 -1.13771,0.95251 -2.00422,1.17078"
         style=""
         id="path3232" />
    </g>
  </g>
  <g
     id="g214"
     transform="translate(-1,-5.6941416)">
    <path
       d="m 520,152 c 10,4 2,2.667 2,6 0,3.333 -6,6 -10,0 -4,-6 -2,-10 8,-6 z"
       inkscape:connector-curvature="0"
       id="path216"
       style="fill:#7babe3" />
    <path
       d="m 520,152 c 10,4 2,2.667 2,6 0,3.333 -6,6 -10,0 -4,-6 -2,-10 8,-6"
       inkscape:connector-curvature="0"
       id="path218"
       style="fill:none;stroke:#000000;stroke-width:2" />
  </g>
  <g
     id="g220"
     transform="translate(-1,-5.6941416)">
    <path
       d="m 504,168 c 6,0 4,-4 6,0 2,4 -2,4 -6,4 -4,0 -6,-4 0,-4 z"
       inkscape:connector-curvature="0"
       id="path222"
       style="fill:#7babe3" />
    <path
       d="m 504,168 c 6,0 4,-4 6,0 2,4 -2,4 -6,4 -4,0 -6,-4 0,-4"
       inkscape:connector-curvature="0"
       id="path224"
       style="fill:none;stroke:#000000;stroke-width:2" />
  </g>
  <g
     id="g226"
     transform="translate(-1,-5.6941416)">
    <path
       d="m 708.216,133.224 c -6.197,-0.186 -18.216,3.739 -16.526,12.149 1.69,8.411 9.765,10.28 13.146,7.85 3.38,-2.43 -5.259,11.775 11.267,15.513 16.526,3.738 24.977,-2.243 22.535,-6.542 -2.441,-4.298 14.461,10.093 22.348,1.869 7.887,-8.223 -8.075,-16.073 -4.695,-14.952 3.38,1.122 13.709,-0.374 10.329,-14.391 -3.381,-14.018 -33.803,-3.178 -30.423,-5.234 3.38,-2.056 -5.07,-12.335 -15.587,-10.279 -10.516,2.056 -11.262,5.786 -12.389,14.01 l -0.005,0.007 z"
       inkscape:connector-curvature="0"
       id="path228"
       style="fill:#7babe3" />
    <path
       d="m 708.216,133.224 c -6.197,-0.186 -18.216,3.739 -16.526,12.149 1.69,8.411 9.765,10.28 13.146,7.85 3.38,-2.43 -5.259,11.775 11.267,15.513 16.526,3.738 24.977,-2.243 22.535,-6.542 -2.441,-4.298 14.461,10.093 22.348,1.869 7.887,-8.223 -8.075,-16.073 -4.695,-14.952 3.38,1.122 13.709,-0.374 10.329,-14.391 -3.381,-14.018 -33.803,-3.178 -30.423,-5.234 3.38,-2.056 -5.07,-12.335 -15.587,-10.279 -10.516,2.056 -11.262,5.786 -12.389,14.01 l -0.005,0.007"
       inkscape:connector-curvature="0"
       id="path230"
       style="fill:none;stroke:#000000;stroke-width:2" />
    <g
       style="font-size:20.31999969px;font-style:normal;font-weight:normal;text-anchor:middle;fill:#000000;font-family:sans-serif"
       id="text232">
      <path
         d="m 731.4108,141.22394 -4.5343,4.55414 4.5343,4.5343 -1.1807,1.20054 -4.55414,-4.55414 -4.55414,4.55414 -1.17078,-1.20054 4.52437,-4.5343 -4.52437,-4.55414 1.17078,-1.20055 4.55414,4.55414 4.55414,-4.55414 1.1807,1.20055"
         style=""
         id="path3235" />
      <path
         d="m 738.08822,150.45128 6.99493,0 0,1.68672 -9.40594,0 0,-1.68672 c 0.76067,-0.78713 1.79585,-1.84216 3.10554,-3.16508 1.3163,-1.32952 2.14312,-2.18611 2.48047,-2.56976 0.64161,-0.72098 1.08809,-1.32952 1.33946,-1.82563 0.25796,-0.5027 0.38694,-0.99548 0.38695,-1.47836 -1e-5,-0.78712 -0.27782,-1.42873 -0.83344,-1.92484 -0.54902,-0.49608 -1.2667,-0.74413 -2.15304,-0.74414 -0.6284,1e-5 -1.29316,0.10915 -1.9943,0.32742 -0.69454,0.2183 -1.43868,0.54902 -2.23242,0.99219 l 0,-2.02406 c 0.80697,-0.3241 1.56104,-0.56884 2.26218,-0.73422 0.70115,-0.16535 1.34276,-0.24803 1.92485,-0.24805 1.53457,2e-5 2.75827,0.38366 3.67109,1.15094 0.9128,0.7673 1.36921,1.79256 1.36922,3.07578 -10e-6,0.60855 -0.11577,1.18733 -0.34727,1.73633 -0.2249,0.5424 -0.63831,1.18402 -1.24023,1.92484 -0.16537,0.19183 -0.69123,0.74746 -1.57758,1.66688 -0.88636,0.91281 -2.13651,2.19273 -3.75047,3.83976"
         style=""
         id="path3237" />
    </g>
  </g>
  <g
     id="g236"
     transform="translate(-1,-5.6941416)">
    <path
       d="m 680,152 c 10,4 2,2.667 2,6 0,3.333 -6,6 -10,0 -4,-6 -2,-10 8,-6 z"
       inkscape:connector-curvature="0"
       id="path238"
       style="fill:#7babe3" />
    <path
       d="m 680,152 c 10,4 2,2.667 2,6 0,3.333 -6,6 -10,0 -4,-6 -2,-10 8,-6"
       inkscape:connector-curvature="0"
       id="path240"
       style="fill:none;stroke:#000000;stroke-width:2" />
  </g>
  <g
     id="g242"
     transform="translate(-1,-5.6941416)">
    <path
       d="m 664,168 c 6,0 4,-4 6,0 2,4 -2,4 -6,4 -4,0 -6,-4 0,-4 z"
       inkscape:connector-curvature="0"
       id="path244"
       style="fill:#7babe3" />
    <path
       d="m 664,168 c 6,0 4,-4 6,0 2,4 -2,4 -6,4 -4,0 -6,-4 0,-4"
       inkscape:connector-curvature="0"
       id="path246"
       style="fill:none;stroke:#000000;stroke-width:2" />
  </g>
</svg>
