<?xml version="1.0" encoding="UTF-8" standalone="no"?>
<!-- Created with Inkscape (http://www.inkscape.org/) -->
<svg id="svg2" xmlns:rdf="http://www.w3.org/1999/02/22-rdf-syntax-ns#" xmlns="http://www.w3.org/2000/svg" height="591.03" width="811.29" version="1.1" xmlns:cc="http://creativecommons.org/ns#" xmlns:dc="http://purl.org/dc/elements/1.1/" viewBox="118 -142 441.99999 316.92345">
 <metadata id="metadata238">
  <rdf:RDF>
   <cc:Work rdf:about="">
    <dc:format>image/svg+xml</dc:format>
    <dc:type rdf:resource="http://purl.org/dc/dcmitype/StillImage"/>
   </cc:Work>
  </rdf:RDF>
 </metadata>
 <path id="rect4" d="m119-143.54h440v320h-440z" stroke="#000" stroke-width="2" fill="none"/>
 <g id="g6" transform="translate(-1 -3.5383)">
  <path id="line8" d="m490-79.009v29.273" stroke="#000" stroke-width="2" fill="none"/>
  <path id="polygon10" d="m490-49.736 5-2.5-5 10-5-10z"/>
  <path id="polygon12" d="m490-49.736 5-2.5-5 10-5-10z" stroke="#000" stroke-width="2" fill="none"/>
 </g>
 <g id="g14" transform="translate(-1 -3.5383)">
  <path id="polyline16" d="m160-20v120h10.264" stroke="#000" stroke-width="2" fill="none"/>
  <path id="polygon18" d="m170.26 100-2.5-5 10 5-10 5z"/>
  <path id="polygon20" d="m170.26 100-2.5-5 10 5-10 5z" stroke="#000" stroke-width="2" fill="none"/>
 </g>
 <g id="g22" transform="translate(-1 -3.5383)">
  <path id="ellipse24" fill="#fff" d="m510-100c0 11.046-8.9543 20-20 20s-20-8.9543-20-20 8.9543-20 20-20 20 8.9543 20 20z"/>
  <path id="ellipse26" d="m510-100c0 11.046-8.9543 20-20 20s-20-8.9543-20-20 8.9543-20 20-20 20 8.9543 20 20z" stroke="#000" stroke-width="2" fill="none"/>
 </g>
 <g id="g28" transform="translate(-1 -3.5383)">
  <path id="ellipse30" fill="#fff" d="m134-130c0 2.2091-1.7909 4-4 4s-4-1.7909-4-4 1.7909-4 4-4 4 1.7909 4 4z"/>
  <path id="ellipse32" d="m134-130c0 2.2091-1.7909 4-4 4s-4-1.7909-4-4 1.7909-4 4-4 4 1.7909 4 4z" stroke="#000" stroke-width="2" fill="none"/>
 </g>
 <path id="line34" d="m126.17-136.37 5.656 5.656" stroke="#000" stroke-width="2" fill="none"/>
 <g id="g36" transform="translate(-1 -3.5383)">
  <path id="ellipse38" fill="#fff" d="m134 170c0 2.2091-1.7909 4-4 4s-4-1.7909-4-4 1.7909-4 4-4 4 1.7909 4 4z"/>
  <path id="ellipse40" d="m134 170c0 2.2091-1.7909 4-4 4s-4-1.7909-4-4 1.7909-4 4-4 4 1.7909 4 4z" stroke="#000" stroke-width="2" fill="none"/>
 </g>
 <path id="line42" d="m129 162.46v8" stroke="#000" stroke-width="2" fill="none"/>
 <g id="g44" transform="translate(-1 -3.5383)">
  <path id="ellipse46" fill="#fff" d="m554 170c0 2.2091-1.7909 4-4 4s-4-1.7909-4-4 1.7909-4 4-4 4 1.7909 4 4z"/>
  <path id="ellipse48" d="m554 170c0 2.2091-1.7909 4-4 4s-4-1.7909-4-4 1.7909-4 4-4 4 1.7909 4 4z" stroke="#000" stroke-width="2" fill="none"/>
 </g>
 <path id="line50" d="m546.17 169.29 5.656-5.656" stroke="#000" stroke-width="2" fill="none"/>
 <g id="g52" transform="translate(-1 -3.5383)">
  <path id="ellipse54" fill="#fff" d="m554-130c0 2.2091-1.7909 4-4 4s-4-1.7909-4-4 1.7909-4 4-4 4 1.7909 4 4z"/>
  <path id="ellipse56" d="m554-130c0 2.2091-1.7909 4-4 4s-4-1.7909-4-4 1.7909-4 4-4 4 1.7909 4 4z" stroke="#000" stroke-width="2" fill="none"/>
 </g>
 <path id="line58" d="m545-133.54h8" stroke="#000" stroke-width="2" fill="none"/>
 <g id="g60" transform="translate(-1 -3.5383)">
  <path id="polygon62" fill="#fff" d="m180 100v40l40-20v-40l-40-20z"/>
  <path id="polygon64" d="m180 100v40l40-20v-40l-40-20z" stroke="#000" stroke-width="2" fill="none"/>
 </g>
 <g id="g66" transform="translate(-1 -3.5383)">
  <path id="rect68" fill="#fff" d="m460-40h60v80h-60z"/>
  <path id="rect70" d="m460-40h60v80h-60z" stroke="#000" stroke-width="2" fill="none"/>
 </g>
 <g id="g76" transform="translate(-1 -3.5383)">
  <path id="ellipse78" fill="#fff" d="m474-20c0 2.2091-1.7909 4-4 4s-4-1.7909-4-4 1.7909-4 4-4 4 1.7909 4 4z"/>
  <path id="ellipse80" d="m474-20c0 2.2091-1.7909 4-4 4s-4-1.7909-4-4 1.7909-4 4-4 4 1.7909 4 4z" stroke="#000" stroke-width="2" fill="none"/>
 </g>
 <g id="g82" transform="translate(-1 -3.5383)">
  <path id="ellipse84" fill="#fff" d="m514 0c0 2.2091-1.7909 4-4 4s-4-1.7909-4-4 1.7909-4 4-4 4 1.7909 4 4z"/>
  <path id="ellipse86" d="m514 0c0 2.2091-1.7909 4-4 4s-4-1.7909-4-4 1.7909-4 4-4 4 1.7909 4 4z" stroke="#000" stroke-width="2" fill="none"/>
 </g>
 <path id="line88" d="m504.54-5.7697-31.08-15.537" stroke="#000" stroke-width="2" fill="none"/>
 <g id="g90" transform="translate(-1 -3.5383)">
  <path id="line92" d="m120-20h25.254" stroke="#000" stroke-width="2" fill="none"/>
  <path id="polygon94" d="m145.25-20-2.5-5 10 5-10 5z"/>
  <path id="polygon96" d="m145.25-20-2.5-5 10 5-10 5z" stroke="#000" stroke-width="2" fill="none"/>
 </g>
 <g id="g98" transform="translate(-1 -3.5383)">
  <path id="line100" d="m514.99 0h35.271" stroke="#000" stroke-width="2" fill="none"/>
  <path id="polygon102" d="m550.26 0-2.5-5 10 5-10 5z"/>
  <path id="polygon104" d="m550.26 0-2.5-5 10 5-10 5z" stroke="#000" stroke-width="2" fill="none"/>
 </g>
 <g id="text106">
  <path id="path3135" style="" d="m189.85 97.132h5.3479v1.6272h-5.3479v-1.6272"/>
  <path id="path3137" style="" d="m198.72 101.82h3.2742v-11.301l-3.562 0.71438v-1.8256l3.5421-0.71438h2.0042v13.127h3.2742v1.6867h-8.5328v-1.6867"/>
 </g>
 <g id="g110" transform="translate(-1 -3.5383)">
  <path id="polygon112" fill="#fff" d="m380 120 40-20v-60l-40-20v40z"/>
  <path id="polygon114" d="m380 120 40-20v-60l-40-20v40z" stroke="#000" stroke-width="2" fill="none"/>
 </g>
 <g id="text116">
  <path id="path3142" style="" d="m403.47 61.139-3.562 1.9248 3.562 1.9348-0.57547 0.97234-3.3338-2.0141v3.7405h-1.1311v-3.7405l-3.3338 2.0141-0.57547-0.97234 3.562-1.9348-3.562-1.9248 0.57547-0.98226 3.3338 2.0141v-3.7405h1.1311v3.7405l3.3338-2.0141 0.57547 0.98226"/>
 </g>
 <g id="g120" transform="translate(-1 -3.5383)">
  <path id="rect122" fill="#fff" d="m260 80h80v40h-80z"/>
  <path id="rect124" d="m260 80h80v40h-80z" stroke="#000" stroke-width="2" fill="none"/>
 </g>
 <g id="text126">
  <path id="path3147" style="" d="m275.99 88.698h8.513v1.6867h-6.5088v4.3656h5.8738v1.6867h-5.8738v7.0743h-2.0042v-14.813"/>
  <path id="path3149" style="" d="m290.78 90.673-2.7186 7.372h5.4471l-2.7285-7.372m-1.1311-1.9745h2.2721l5.6456 14.813h-2.0836l-1.3494-3.8001h-6.6774l-1.3494 3.8001h-2.1134l5.6555-14.813"/>
  <path id="path3151" style="" d="m310.46 89.839v2.1134c-0.6747-0.62837-1.3957-1.098-2.163-1.4089-0.76069-0.31087-1.571-0.46632-2.4309-0.46633-1.6933 0.000013-2.9898 0.51926-3.8894 1.5577-0.89958 1.0319-1.3494 2.5268-1.3494 4.4847 0 1.9513 0.44979 3.4462 1.3494 4.4847 0.89958 1.0319 2.196 1.5478 3.8894 1.5478 0.85989 0.00001 1.6702-0.15544 2.4309-0.46632 0.76728-0.31089 1.4883-0.78052 2.163-1.4089v2.0935c-0.70116 0.47625-1.4453 0.83343-2.2324 1.0716-0.78053 0.23812-1.6074 0.35719-2.4805 0.35719-2.2424 0-4.0084-0.68461-5.2983-2.0538-1.2898-1.3758-1.9348-3.2511-1.9348-5.6257 0-2.3812 0.64492-4.2565 1.9348-5.6257 1.2898-1.3758 3.0559-2.0637 5.2983-2.0638 0.88634 0.000015 1.7198 0.11908 2.5003 0.35719 0.78712 0.23152 1.5246 0.5821 2.2126 1.0517"/>
  <path id="path3153" style="" d="m311.52 88.698h12.531v1.6867h-5.2586v13.127h-2.0141v-13.127h-5.2586v-1.6867"/>
 </g>
 <g id="g130" transform="translate(-1 -3.5383)">
  <path id="polyline132" d="m160 40h80 130.26" stroke="#000" stroke-width="2" fill="none"/>
  <path id="polygon134" d="m370.26 40-2.5-5 10 5-10 5z"/>
  <path id="polygon136" d="m370.26 40-2.5-5 10 5-10 5z" stroke="#000" stroke-width="2" fill="none"/>
 </g>
 <g id="g138" transform="translate(-1 -3.5383)">
  <path id="polyline140" d="m220 100h30.264" stroke="#000" stroke-width="2" fill="none"/>
  <path id="polygon142" d="m250.26 100-2.5-5 10 5-10 5z"/>
  <path id="polygon144" d="m250.26 100-2.5-5 10 5-10 5z" stroke="#000" stroke-width="2" fill="none"/>
 </g>
 <g id="g146" transform="translate(-1 -3.5383)">
  <path id="polyline148" d="m340 100h30.264" stroke="#000" stroke-width="2" fill="none"/>
  <path id="polygon150" d="m370.26 100-2.5-5 10 5-10 5z"/>
  <path id="polygon152" d="m370.26 100-2.5-5 10 5-10 5z" stroke="#000" stroke-width="2" fill="none"/>
 </g>
 <g id="g154" transform="translate(-1 -3.5383)">
  <path id="polyline156" d="m420 70h20v-50h10.264" stroke="#000" stroke-width="2" fill="none"/>
  <path id="polygon158" d="m450.26 20-2.5-5 10 5-10 5z"/>
  <path id="polygon160" d="m450.26 20-2.5-5 10 5-10 5z" stroke="#000" stroke-width="2" fill="none"/>
 </g>
 <g id="text162">
  <path id="path3168" style="" d="m476.17-105.72h12.72v1.6669h-12.72v-1.6669m0 4.0481h12.72v1.6867h-12.72v-1.6867"/>
  <path id="path3170" style="" d="m497.5-109.98c-1.0319 0.00001-1.8091 0.50934-2.3316 1.528-0.51594 1.012-0.77391 2.5367-0.77391 4.574 0 2.0307 0.25797 3.5554 0.77391 4.574 0.52254 1.012 1.2998 1.518 2.3316 1.518 1.0385 0.000001 1.8157-0.50601 2.3316-1.518 0.52254-1.0186 0.78382-2.5433 0.78383-4.574-0.00001-2.0373-0.26129-3.5619-0.78383-4.574-0.51595-1.0186-1.2932-1.528-2.3316-1.528m0-1.5875c1.6602 0.00002 2.9269 0.65817 3.8001 1.9744 0.87972 1.3097 1.3196 3.2147 1.3196 5.715-0.00001 2.4937-0.43988 4.3987-1.3196 5.715-0.87314 1.3097-2.1398 1.9645-3.8001 1.9645s-2.9303-0.65484-3.81-1.9645c-0.87313-1.3163-1.3097-3.2213-1.3097-5.715 0-2.5003 0.43656-4.4053 1.3097-5.715 0.87973-1.3163 2.1497-1.9744 3.81-1.9744"/>
 </g>
 <g id="g166" transform="translate(-1 -3.5383)">
  <path id="polyline168" d="m160-20v-80h300.26" stroke="#000" stroke-width="2" fill="none"/>
  <path id="polygon170" d="m460.26-100-2.5-5 10 5-10 5z"/>
  <path id="polygon172" d="m460.26-100-2.5-5 10 5-10 5z" stroke="#000" stroke-width="2" fill="none"/>
 </g>
 <g id="g174" transform="translate(-1 -3.5383)">
  <path id="ellipse176" d="m164-20c0 2.2091-1.7909 4-4 4s-4-1.7909-4-4 1.7909-4 4-4 4 1.7909 4 4z"/>
  <path id="ellipse178" d="m164-20c0 2.2091-1.7909 4-4 4s-4-1.7909-4-4 1.7909-4 4-4 4 1.7909 4 4z" stroke="#000" stroke-width="2" fill="none"/>
 </g>
 <g id="g180" transform="translate(-1 -3.5383)">
  <path id="ellipse182" d="m164 40c0 2.2091-1.7909 4-4 4s-4-1.7909-4-4 1.7909-4 4-4 4 1.7909 4 4z"/>
  <path id="ellipse184" d="m164 40c0 2.2091-1.7909 4-4 4s-4-1.7909-4-4 1.7909-4 4-4 4 1.7909 4 4z" stroke="#000" stroke-width="2" fill="none"/>
 </g>
 <g id="g186" transform="translate(-1 -3.5383)">
  <path id="line188" d="m420-20h30.264" stroke="#000" stroke-width="2" fill="none"/>
  <path id="polygon190" d="m450.26-20-2.5-5 10 5-10 5z"/>
  <path id="polygon192" d="m450.26-20-2.5-5 10 5-10 5z" stroke="#000" stroke-width="2" fill="none"/>
 </g>
 <g id="g194" transform="translate(-1 -3.5383)">
  <path id="ellipse196" fill="#fff" d="m474 20c0 2.2091-1.7909 4-4 4s-4-1.7909-4-4 1.7909-4 4-4 4 1.7909 4 4z"/>
  <path id="ellipse198" d="m474 20c0 2.2091-1.7909 4-4 4s-4-1.7909-4-4 1.7909-4 4-4 4 1.7909 4 4z" stroke="#000" stroke-width="2" fill="none"/>
 </g>
 <path id="line200" d="m459-23.538h4.99" stroke="#000" stroke-width="2" fill="none"/>
 <path id="line202" d="m459 16.462h4.99" stroke="#000" stroke-width="2" fill="none"/>
 <g id="text204">
  <path id="path3187" style="" d="m133.39-51.302h2.6988l6.5683 12.392v-12.392h1.9447v14.813h-2.6988l-6.5683-12.392v12.392h-1.9447v-14.813"/>
 </g>
 <g id="text208">
  <path id="path3190" style="" d="m529.33-31.302h2.6988l6.5683 12.392v-12.392h1.9447v14.813h-2.6988l-6.5683-12.392v12.392h-1.9447v-14.813"/>
  <path id="path3192" style="" d="m545.6-19.008h2.0141v2.5202h-2.0141v-2.5202m0-12.293h2.0141v6.4988l-0.19844 3.5421h-1.6073l-0.20836-3.5421v-6.4988"/>
 </g>
 <g id="text212">
  <path id="path3195" style="" d="m478.22-39.585h1.5588v11.521h-1.5588v-11.521"/>
 </g>
 <g id="text216">
  <path id="path3198" style="" d="m474.61 20.415h1.5588v4.7228h5.6643v-4.7228h1.5588v11.521h-1.5588v-5.4868h-5.6643v5.4868h-1.5588v-11.521"/>
 </g>
 <g id="text220">
  <path id="path3201" style="" d="m340.67 148.7h8.513v1.6867h-6.5088v4.3656h5.8738v1.6867h-5.8738v7.0743h-2.0042v-14.813"/>
  <path id="path3203" style="" d="m355.46 150.67-2.7186 7.372h5.4471l-2.7285-7.372m-1.1311-1.9744h2.2721l5.6456 14.813h-2.0836l-1.3494-3.8001h-6.6774l-1.3494 3.8001h-2.1134l5.6555-14.813"/>
  <path id="path3205" style="" d="m375.14 149.84v2.1134c-0.6747-0.62837-1.3957-1.098-2.163-1.4089-0.76069-0.31087-1.571-0.46632-2.4309-0.46633-1.6933 0.00001-2.9898 0.51926-3.8894 1.5577-0.89959 1.0319-1.3494 2.5268-1.3494 4.4847-0.00001 1.9513 0.44978 3.4462 1.3494 4.4847 0.89958 1.0319 2.196 1.5478 3.8894 1.5478 0.85988 0 1.6702-0.15544 2.4309-0.46633 0.76728-0.31088 1.4883-0.78051 2.163-1.4089v2.0935c-0.70115 0.47625-1.4453 0.83344-2.2324 1.0716-0.78053 0.23812-1.6074 0.35718-2.4805 0.35718-2.2424 0-4.0084-0.68461-5.2983-2.0538-1.2898-1.3758-1.9348-3.2511-1.9348-5.6257 0-2.3812 0.64492-4.2565 1.9348-5.6257 1.2898-1.3758 3.0559-2.0637 5.2983-2.0638 0.88635 0.00001 1.7198 0.11908 2.5003 0.35719 0.78712 0.23152 1.5246 0.58209 2.2126 1.0517"/>
  <path id="path3207" style="" d="m376.2 148.7h12.531v1.6867h-5.2586v13.127h-2.0141v-13.127h-5.2586v-1.6867"/>
  <path id="path3209" style="" d="m387.81 157.13h5.3479v1.6272h-5.3479v-1.6272"/>
  <path id="path3211" style="" d="m402.73 150.06c-1.4552 0.00001-2.6128 0.54241-3.4727 1.6272-0.85328 1.0848-1.2799 2.5632-1.2799 4.4351 0 1.8653 0.42664 3.3404 1.2799 4.4252 0.85989 1.0848 2.0174 1.6272 3.4727 1.6272 1.4552 0 2.6061-0.5424 3.4528-1.6272 0.85327-1.0848 1.2799-2.5598 1.2799-4.4252-0.00001-1.8719-0.42665-3.3503-1.2799-4.4351-0.84668-1.0848-1.9976-1.6272-3.4528-1.6272m0-1.6272c2.077 0.00001 3.7372 0.69785 4.9808 2.0935 1.2435 1.3891 1.8653 3.2544 1.8653 5.5959-0.00001 2.335-0.62178 4.2003-1.8653 5.5959-1.2436 1.3891-2.9038 2.0836-4.9808 2.0836-2.0836 0-3.7505-0.69453-5.0006-2.0836-1.2435-1.3891-1.8653-3.2544-1.8653-5.5959 0-2.3416 0.62177-4.2069 1.8653-5.5959 1.2502-1.3957 2.917-2.0935 5.0006-2.0935"/>
  <path id="path3213" style="" d="m412.28 157.13h5.3479v1.6272h-5.3479v-1.6272"/>
  <path id="path3215" style="" d="m420.62 148.7h2.9865l3.7802 10.081 3.8001-10.081h2.9865v14.813h-1.9546v-13.008l-3.8199 10.16h-2.0141l-3.8199-10.16v13.008h-1.9447v-14.813"/>
  <path id="path3217" style="" d="m443.11 150.67-2.7186 7.372h5.4471l-2.7285-7.372m-1.1311-1.9744h2.2721l5.6456 14.813h-2.0836l-1.3494-3.8001h-6.6774l-1.3494 3.8001h-2.1134l5.6555-14.813"/>
  <path id="path3219" style="" d="m448.42 148.7h12.531v1.6867h-5.2586v13.127h-2.0141v-13.127h-5.2586v-1.6867"/>
  <path id="path3221" style="" d="m462.9 148.7h2.0042v14.813h-2.0042v-14.813"/>
  <path id="path3223" style="" d="m479.98 149.84v2.1134c-0.6747-0.62837-1.3957-1.098-2.163-1.4089-0.76069-0.31087-1.571-0.46632-2.4309-0.46633-1.6933 0.00001-2.9898 0.51926-3.8894 1.5577-0.89959 1.0319-1.3494 2.5268-1.3494 4.4847 0 1.9513 0.44979 3.4462 1.3494 4.4847 0.89957 1.0319 2.196 1.5478 3.8894 1.5478 0.85989 0 1.6702-0.15544 2.4309-0.46633 0.76728-0.31088 1.4883-0.78051 2.163-1.4089v2.0935c-0.70116 0.47625-1.4453 0.83344-2.2324 1.0716-0.78053 0.23812-1.6074 0.35718-2.4805 0.35718-2.2424 0-4.0084-0.68461-5.2983-2.0538-1.2898-1.3758-1.9348-3.2511-1.9348-5.6257 0-2.3812 0.64492-4.2565 1.9348-5.6257 1.2898-1.3758 3.0559-2.0637 5.2983-2.0638 0.88634 0.00001 1.7198 0.11908 2.5003 0.35719 0.78712 0.23152 1.5246 0.58209 2.2126 1.0517"/>
  <path id="path3225" style="" d="m489.8 163.2v-1.8256c0.5027 0.23812 1.012 0.42002 1.528 0.5457 0.51593 0.12568 1.0219 0.18852 1.518 0.18851 1.3229 0.00001 2.3316-0.44317 3.0262-1.3295 0.70114-0.89296 1.1013-2.2456 1.2006-4.058-0.38365 0.56886-0.86982 1.0054-1.4585 1.3097-0.58871 0.30428-1.2402 0.45642-1.9546 0.45641-1.4817 0.00001-2.6558-0.44648-3.5223-1.3394-0.8599-0.89958-1.2898-2.1266-1.2898-3.681 0-1.5213 0.44979-2.7417 1.3494-3.6612 0.89958-0.91941 2.0968-1.3791 3.5917-1.3791 1.7132 0.00001 3.0196 0.65816 3.9191 1.9744 0.90619 1.3097 1.3593 3.2147 1.3593 5.715-0.00001 2.335-0.55564 4.2003-1.6669 5.5959-1.1046 1.3891-2.5929 2.0836-4.4648 2.0836-0.50271 0-1.012-0.0496-1.528-0.14883-0.51594-0.0992-1.0517-0.24804-1.6073-0.44648m3.9886-6.2806c0.89958 0.00001 1.6106-0.30757 2.1332-0.92273 0.52916-0.61515 0.79374-1.4585 0.79375-2.5301-0.00001-1.0649-0.26459-1.905-0.79375-2.5202-0.52256-0.62176-1.2336-0.93265-2.1332-0.93266-0.89959 0.00001-1.614 0.3109-2.1431 0.93266-0.52256 0.61516-0.78384 1.4552-0.78383 2.5202-0.00001 1.0716 0.26127 1.9149 0.78383 2.5301 0.52916 0.61516 1.2435 0.92274 2.1431 0.92273"/>
  <path id="path3227" style="" d="m506.97 150.02c-1.0319 0.00001-1.8091 0.50933-2.3316 1.528-0.51595 1.012-0.77391 2.5367-0.77391 4.574 0 2.0307 0.25796 3.5553 0.77391 4.574 0.52254 1.012 1.2998 1.518 2.3316 1.518 1.0385 0 1.8157-0.50601 2.3316-1.518 0.52254-1.0186 0.78382-2.5433 0.78383-4.574-0.00001-2.0373-0.26129-3.5619-0.78383-4.574-0.51595-1.0186-1.2932-1.528-2.3316-1.528m0-1.5875c1.6602 0.00001 2.9269 0.65816 3.8001 1.9744 0.87973 1.3097 1.3196 3.2147 1.3196 5.715-0.00001 2.4937-0.43988 4.3987-1.3196 5.715-0.87313 1.3097-2.1398 1.9645-3.8001 1.9645s-2.9303-0.65484-3.81-1.9645c-0.87313-1.3163-1.3097-3.2213-1.3097-5.715 0-2.5003 0.43656-4.4053 1.3097-5.715 0.87973-1.3163 2.1497-1.9744 3.81-1.9744"/>
  <path id="path3229" style="" d="m519.91 150.02c-1.0319 0.00001-1.8091 0.50933-2.3316 1.528-0.51594 1.012-0.77391 2.5367-0.7739 4.574-0.00001 2.0307 0.25796 3.5553 0.7739 4.574 0.52255 1.012 1.2998 1.518 2.3316 1.518 1.0385 0 1.8157-0.50601 2.3316-1.518 0.52255-1.0186 0.78382-2.5433 0.78383-4.574-0.00001-2.0373-0.26128-3.5619-0.78383-4.574-0.51594-1.0186-1.2932-1.528-2.3316-1.528m0-1.5875c1.6602 0.00001 2.927 0.65816 3.8001 1.9744 0.87973 1.3097 1.3196 3.2147 1.3196 5.715-0.00001 2.4937-0.43988 4.3987-1.3196 5.715-0.87313 1.3097-2.1398 1.9645-3.8001 1.9645s-2.9303-0.65484-3.81-1.9645c-0.87312-1.3163-1.3097-3.2213-1.3097-5.715 0-2.5003 0.43657-4.4053 1.3097-5.715 0.87974-1.3163 2.1497-1.9744 3.81-1.9744"/>
  <path id="path3231" style="" d="m532.85 150.02c-1.0319 0.00001-1.8091 0.50933-2.3316 1.528-0.51594 1.012-0.77391 2.5367-0.77391 4.574 0 2.0307 0.25797 3.5553 0.77391 4.574 0.52254 1.012 1.2998 1.518 2.3316 1.518 1.0385 0 1.8157-0.50601 2.3316-1.518 0.52254-1.0186 0.78382-2.5433 0.78383-4.574-0.00001-2.0373-0.26129-3.5619-0.78383-4.574-0.51595-1.0186-1.2932-1.528-2.3316-1.528m0-1.5875c1.6602 0.00001 2.9269 0.65816 3.8001 1.9744 0.87972 1.3097 1.3196 3.2147 1.3196 5.715-0.00001 2.4937-0.43988 4.3987-1.3196 5.715-0.87314 1.3097-2.1398 1.9645-3.8001 1.9645s-2.9303-0.65484-3.81-1.9645c-0.87313-1.3163-1.3097-3.2213-1.3097-5.715 0-2.5003 0.43656-4.4053 1.3097-5.715 0.87973-1.3163 2.1497-1.9744 3.81-1.9744"/>
 </g>
 <g id="g224" transform="translate(-1 -3.5383)">
  <path id="polygon226" fill="#fff" d="m420-20-40-20v40z"/>
  <path id="polygon228" d="m420-20-40-20v40z" stroke="#000" stroke-width="2" fill="none"/>
 </g>
 <g id="text230">
  <path id="path3236" style="" d="m391.52-18.175h3.2742v-11.301l-3.562 0.71438v-1.8256l3.5421-0.71438h2.0042v13.127h3.2742v1.6867h-8.5328v-1.6867"/>
 </g>
</svg>
