<?xml version="1.0" encoding="UTF-8" standalone="no"?>
<!-- Created with Inkscape (http://www.inkscape.org/) -->
<svg id="svg2" xmlns:rdf="http://www.w3.org/1999/02/22-rdf-syntax-ns#" xmlns="http://www.w3.org/2000/svg" height="1200.4" width="1309.2" version="1.1" xmlns:cc="http://creativecommons.org/ns#" xmlns:dc="http://purl.org/dc/elements/1.1/" viewBox="158 -141 721.99998 660.62662">
 <metadata id="metadata480">
  <rdf:RDF>
   <cc:Work rdf:about="">
    <dc:format>image/svg+xml</dc:format>
    <dc:type rdf:resource="http://purl.org/dc/dcmitype/StillImage"/>
   </cc:Work>
  </rdf:RDF>
 </metadata>
 <g id="g4" transform="translate(-1 -.68670)">
  <path id="line6" d="m240 220h70.264" stroke="#000" stroke-width="2" fill="none"/>
  <path id="polygon8" d="m310.26 220-2.5-5 10 5-10 5z"/>
  <path id="polygon10" d="m310.26 220-2.5-5 10 5-10 5z" stroke="#000" stroke-width="2" fill="none"/>
 </g>
 <g id="g12" transform="translate(-1 -.68670)">
  <path id="line14" d="m420 200 72.211-54.158" stroke="#000" stroke-width="2" fill="none"/>
  <path id="polygon16" d="m492.21 145.84-5-2.5 11-2-5 10z"/>
  <path id="polygon18" d="m492.21 145.84-5-2.5 11-2-5 10z" stroke="#000" stroke-width="2" fill="none"/>
 </g>
 <g id="g20" transform="translate(-1 -.68670)">
  <path id="line22" d="m500 160-72.211 54.158" stroke="#000" stroke-width="2" fill="none"/>
  <path id="polygon24" d="m427.79 214.16 5 2.5-11 2 5-10z"/>
  <path id="polygon26" d="m427.79 214.16 5 2.5-11 2 5-10z" stroke="#000" stroke-width="2" fill="none"/>
 </g>
 <g id="g28" transform="translate(-1 -.68670)">
  <path id="line30" d="m420 262.85 72.21 54.16" stroke="#000" stroke-width="2" fill="none"/>
  <path id="polygon32" d="m492.21 317.01 1-5.5 5 10-11-2z"/>
  <path id="polygon34" d="m492.21 317.01 1-5.5 5 10-11-2z" stroke="#000" stroke-width="2" fill="none"/>
 </g>
 <g id="g36" transform="translate(-1 -.68670)">
  <path id="line38" d="m500 342.85-72.21-54.16" stroke="#000" stroke-width="2" fill="none"/>
  <path id="polygon40" d="m427.79 288.69-1 5.5-5-10 11 2z"/>
  <path id="polygon42" d="m427.79 288.69-1 5.5-5-10 11 2z" stroke="#000" stroke-width="2" fill="none"/>
 </g>
 <g id="text44">
  <path id="path3234" style="" d="m265.17 205.25v11.112h-1.8356v-9.6937h-5.0106v9.6937h-1.8355v-9.6937h-1.7462v-1.4188h1.7462v-0.7739c-0.00001-1.2105 0.28442-2.1034 0.85328-2.6789 0.57546-0.58207 1.4552-0.87311 2.6392-0.87313h1.8355v1.518h-1.7462c-0.65485 0.00002-1.1112 0.13231-1.3692 0.39688-0.25135 0.26459-0.37703 0.74084-0.37703 1.4288v0.98226h6.8461m-1.8356-4.3061h1.8356v2.3118h-1.8356v-2.3118"/>
  <path id="path3236" style="" d="m276.99 210.82c-0.00001-1.3428-0.27782-2.3945-0.83344-3.1552-0.54902-0.76728-1.3064-1.1509-2.2721-1.1509-0.96573 0.00001-1.7264 0.38366-2.282 1.1509-0.54901 0.76068-0.82352 1.8124-0.82351 3.1552-0.00001 1.3428 0.2745 2.3978 0.82351 3.1651 0.55562 0.76068 1.3163 1.141 2.282 1.141 0.96572 0 1.7231-0.38034 2.2721-1.141 0.55562-0.76729 0.83343-1.8223 0.83344-3.1651m-6.2111-3.8794c0.38364-0.66145 0.8665-1.1509 1.4486-1.4684 0.58869-0.3241 1.2898-0.48616 2.1034-0.48617 1.3494 0.00001 2.4441 0.53579 3.2841 1.6074 0.84665 1.0716 1.27 2.4805 1.27 4.2267-0.00001 1.7463-0.42335 3.1552-1.27 4.2267-0.84006 1.0716-1.9348 1.6074-3.2841 1.6074-0.8136 0-1.5148-0.15875-2.1034-0.47625-0.58209-0.32412-1.065-0.8169-1.4486-1.4784v1.6669h-1.8356v-15.438h1.8356v6.0127"/>
  <path id="path3238" style="" d="m287.67 203.3-5.0602 7.9077h5.0602v-7.9077m-0.52586-1.7462h2.5202v9.654h2.1134v1.6669h-2.1134v3.4925h-1.9943v-3.4925h-6.6874v-1.9348l6.1615-9.3861"/>
  <path id="path3240" style="" d="m296.81 213.84h2.0141v2.5202h-2.0141v-2.5202m1.9546-1.4585h-1.8951v-1.528c-0.00001-0.66807 0.0926-1.2171 0.27781-1.647 0.1852-0.42994 0.57546-0.92934 1.1708-1.4982l0.89297-0.88305c0.37702-0.35056 0.64822-0.68129 0.81359-0.99219 0.17197-0.31087 0.25796-0.62837 0.25797-0.9525-0.00001-0.58868-0.21829-1.0649-0.65484-1.4288-0.42996-0.36379-1.0021-0.54569-1.7165-0.5457-0.52255 0.00001-1.0815 0.11577-1.6768 0.34727-0.5887 0.23152-1.2039 0.56886-1.8455 1.012v-1.8653c0.62177-0.37701 1.2502-0.65813 1.8852-0.84336 0.64161-0.18519 1.3031-0.27779 1.9844-0.27781 1.2171 0.00002 2.1927 0.32082 2.927 0.96242 0.74083 0.64163 1.1112 1.4883 1.1112 2.54-0.00001 0.50272-0.11907 0.98228-0.35719 1.4387-0.23813 0.4498-0.65485 0.95912-1.2502 1.528l-0.87313 0.85329c-0.31089 0.31089-0.53248 0.55563-0.66476 0.73421-0.12569 0.17199-0.21498 0.34066-0.26789 0.50602-0.0397 0.13891-0.0695 0.30758-0.0893 0.50602-0.0199 0.19844-0.0298 0.46964-0.0298 0.81359v1.2204"/>
 </g>
 <g id="text48">
  <path id="path3243" style="" d="m445.17 145.25v11.112h-1.8356v-9.6937h-5.0106v9.6937h-1.8355v-9.6937h-1.7462v-1.4188h1.7462v-0.7739c-0.00001-1.2105 0.28442-2.1034 0.85328-2.6789 0.57546-0.58207 1.4552-0.87311 2.6392-0.87313h1.8355v1.518h-1.7462c-0.65485 0.00002-1.1112 0.13231-1.3692 0.39688-0.25135 0.26459-0.37703 0.74084-0.37703 1.4288v0.98226h6.8461m-1.8356-4.3061h1.8356v2.3118h-1.8356v-2.3118"/>
  <path id="path3245" style="" d="m456.99 150.82c-0.00001-1.3428-0.27782-2.3945-0.83344-3.1552-0.54902-0.76728-1.3064-1.1509-2.2721-1.1509-0.96573 0.00001-1.7264 0.38366-2.282 1.1509-0.54901 0.76068-0.82352 1.8124-0.82351 3.1552-0.00001 1.3428 0.2745 2.3978 0.82351 3.1651 0.55562 0.76068 1.3163 1.141 2.282 1.141 0.96572 0 1.7231-0.38034 2.2721-1.141 0.55562-0.76729 0.83343-1.8223 0.83344-3.1651m-6.2111-3.8794c0.38364-0.66145 0.8665-1.1509 1.4486-1.4684 0.58869-0.3241 1.2898-0.48616 2.1034-0.48617 1.3494 0.00001 2.4441 0.53579 3.2841 1.6074 0.84665 1.0716 1.27 2.4805 1.27 4.2267-0.00001 1.7463-0.42335 3.1552-1.27 4.2267-0.84006 1.0716-1.9348 1.6074-3.2841 1.6074-0.8136 0-1.5148-0.15875-2.1034-0.47625-0.58209-0.32412-1.065-0.8169-1.4486-1.4784v1.6669h-1.8356v-15.438h1.8356v6.0127"/>
  <path id="path3247" style="" d="m468.24 148.38c0.95911 0.20506 1.7066 0.6317 2.2424 1.2799 0.54238 0.64824 0.81358 1.4486 0.81359 2.4011-0.00001 1.4618-0.50272 2.5929-1.5081 3.3933-1.0054 0.80036-2.4342 1.2006-4.2862 1.2006-0.62178 0-1.2634-0.0628-1.9248-0.18852-0.65484-0.11906-1.3328-0.30096-2.034-0.5457v-1.9348c0.55562 0.32412 1.1642 0.56886 1.8256 0.73422 0.66146 0.16537 1.3527 0.24805 2.0737 0.24805 1.2568 0 2.2126-0.24805 2.8674-0.74414 0.66145-0.49609 0.99218-1.2171 0.99219-2.163-0.00001-0.87312-0.30759-1.5544-0.92274-2.0439-0.60855-0.49609-1.4585-0.74413-2.5499-0.74414h-1.7264v-1.647h1.8058c0.98557 0.00001 1.7396-0.19512 2.2622-0.58539 0.52254-0.39687 0.78382-0.96572 0.78383-1.7066-0.00001-0.76067-0.27121-1.3428-0.81359-1.7462-0.53579-0.41009-1.3064-0.61515-2.3118-0.61516-0.54902 0.00001-1.1377 0.0596-1.7661 0.17859-0.62839 0.11908-1.3196 0.30429-2.0737 0.55563v-1.7859c0.76068-0.21165 1.4717-0.3704 2.1332-0.47625 0.66806-0.10582 1.2964-0.15873 1.8852-0.15875 1.5214 0.00002 2.7252 0.34728 3.6116 1.0418 0.88634 0.68793 1.3295 1.6206 1.3295 2.798-0.00001 0.82022-0.23483 1.5148-0.70446 2.0836-0.46964 0.56225-1.1377 0.95251-2.0042 1.1708"/>
  <path id="path3249" style="" d="m476.81 153.84h2.0141v2.5202h-2.0141v-2.5202m1.9546-1.4585h-1.8951v-1.528c-0.00001-0.66807 0.0926-1.2171 0.27781-1.647 0.1852-0.42994 0.57546-0.92934 1.1708-1.4982l0.89297-0.88305c0.37702-0.35056 0.64822-0.68129 0.81359-0.99219 0.17197-0.31087 0.25796-0.62837 0.25797-0.9525-0.00001-0.58868-0.21829-1.0649-0.65484-1.4288-0.42996-0.36379-1.0021-0.54569-1.7165-0.5457-0.52255 0.00001-1.0815 0.11577-1.6768 0.34727-0.5887 0.23152-1.2039 0.56886-1.8455 1.012v-1.8653c0.62177-0.37701 1.2502-0.65813 1.8852-0.84336 0.64161-0.18519 1.3031-0.27779 1.9844-0.27781 1.2171 0.00002 2.1927 0.32082 2.927 0.96242 0.74083 0.64163 1.1112 1.4883 1.1112 2.54-0.00001 0.50272-0.11907 0.98228-0.35719 1.4387-0.23813 0.4498-0.65485 0.95912-1.2502 1.528l-0.87313 0.85329c-0.31089 0.31089-0.53248 0.55563-0.66476 0.73421-0.12569 0.17199-0.21498 0.34066-0.26789 0.50602-0.0397 0.13891-0.0695 0.30758-0.0893 0.50602-0.0199 0.19844-0.0298 0.46964-0.0298 0.81359v1.2204"/>
 </g>
 <g id="text52">
  <path id="path3252" style="" d="m465.17 278.1v11.112h-1.8356v-9.6937h-5.0106v9.6937h-1.8355v-9.6937h-1.7462v-1.4188h1.7462v-0.77391c-0.00001-1.2104 0.28442-2.1034 0.85328-2.6789 0.57546-0.58207 1.4552-0.87311 2.6392-0.87313h1.8355v1.518h-1.7462c-0.65485 0.00001-1.1112 0.1323-1.3692 0.39687-0.25135 0.2646-0.37703 0.74085-0.37703 1.4288v0.98227h6.8461m-1.8356-4.3061h1.8356v2.3118h-1.8356v-2.3118"/>
  <path id="path3254" style="" d="m476.99 283.67c-0.00001-1.3428-0.27782-2.3945-0.83344-3.1552-0.54902-0.76728-1.3064-1.1509-2.2721-1.1509-0.96573 0.00001-1.7264 0.38365-2.282 1.1509-0.54901 0.76069-0.82352 1.8124-0.82351 3.1552-0.00001 1.3428 0.2745 2.3978 0.82351 3.1651 0.55562 0.76068 1.3163 1.141 2.282 1.141 0.96572 0 1.7231-0.38033 2.2721-1.141 0.55562-0.76729 0.83343-1.8223 0.83344-3.1651m-6.2111-3.8794c0.38364-0.66145 0.8665-1.1509 1.4486-1.4684 0.58869-0.3241 1.2898-0.48616 2.1034-0.48617 1.3494 0.00001 2.4441 0.53579 3.2841 1.6073 0.84665 1.0716 1.27 2.4805 1.27 4.2267-0.00001 1.7462-0.42335 3.1552-1.27 4.2267-0.84006 1.0716-1.9348 1.6073-3.2841 1.6073-0.8136 0-1.5148-0.15875-2.1034-0.47625-0.58209-0.32411-1.065-0.8169-1.4486-1.4784v1.6669h-1.8356v-15.438h1.8356v6.0127"/>
  <path id="path3256" style="" d="m483.89 287.53h6.9949v1.6867h-9.4059v-1.6867c0.76067-0.78713 1.7958-1.8422 3.1055-3.1651 1.3163-1.3295 2.1431-2.1861 2.4805-2.5698 0.64161-0.72099 1.0881-1.3295 1.3395-1.8256 0.25796-0.5027 0.38694-0.99548 0.38695-1.4784-0.00001-0.78712-0.27782-1.4287-0.83344-1.9248-0.54902-0.49608-1.2667-0.74413-2.153-0.74414-0.6284 0.00001-1.2932 0.10915-1.9943 0.32742-0.69454 0.21829-1.4387 0.54902-2.2324 0.99219v-2.0241c0.80697-0.3241 1.561-0.56884 2.2622-0.73422 0.70115-0.16534 1.3428-0.24803 1.9248-0.24804 1.5346 0.00001 2.7583 0.38366 3.6711 1.1509 0.9128 0.7673 1.3692 1.7926 1.3692 3.0758-0.00001 0.60855-0.11577 1.1873-0.34727 1.7363-0.2249 0.54241-0.63831 1.184-1.2402 1.9248-0.16537 0.19183-0.69123 0.74745-1.5776 1.6669-0.88636 0.91282-2.1365 2.1927-3.7505 3.8398"/>
  <path id="path3258" style="" d="m496.81 286.69h2.0141v2.5202h-2.0141v-2.5202m1.9546-1.4585h-1.8951v-1.528c-0.00001-0.66807 0.0926-1.2171 0.27781-1.647 0.1852-0.42994 0.57546-0.92934 1.1708-1.4982l0.89297-0.88304c0.37702-0.35057 0.64822-0.6813 0.81359-0.99219 0.17197-0.31088 0.25796-0.62838 0.25797-0.9525-0.00001-0.58869-0.21829-1.0649-0.65484-1.4288-0.42996-0.36379-1.0021-0.54569-1.7165-0.5457-0.52255 0.00001-1.0815 0.11576-1.6768 0.34726-0.5887 0.23152-1.2039 0.56887-1.8455 1.012v-1.8653c0.62177-0.37702 1.2502-0.65814 1.8852-0.84336 0.64161-0.18519 1.3031-0.2778 1.9844-0.27781 1.2171 0.00001 2.1927 0.32082 2.927 0.96242 0.74083 0.64163 1.1112 1.4883 1.1112 2.54-0.00001 0.50272-0.11907 0.98228-0.35719 1.4387-0.23813 0.4498-0.65485 0.95913-1.2502 1.528l-0.87313 0.85328c-0.31089 0.31089-0.53248 0.55563-0.66476 0.73422-0.12569 0.17199-0.21498 0.34066-0.26789 0.50602-0.0397 0.13891-0.0695 0.30758-0.0893 0.50601-0.0199 0.19845-0.0298 0.46964-0.0298 0.8136v1.2204"/>
 </g>
 <g id="g56" transform="translate(-1 -.68670)">
  <path id="line58" d="m580 362.85 71.292-35.646" stroke="#000" stroke-width="2" fill="none"/>
  <path id="polygon60" d="m651.29 327.2-4.472-3.354h11.18l-6.708 8.944z"/>
  <path id="polygon62" d="m651.29 327.2-4.472-3.354h11.18l-6.708 8.944z" stroke="#000" stroke-width="2" fill="none"/>
 </g>
 <g id="g64" transform="translate(-1 -.68670)">
  <path id="line66" d="m660 342.85-71.29 35.65" stroke="#000" stroke-width="2" fill="none"/>
  <path id="polygon68" d="m588.71 378.5 4.472 3.354h-11.18l6.708-8.944z"/>
  <path id="polygon70" d="m588.71 378.5 4.472 3.354h-11.18l6.708-8.944z" stroke="#000" stroke-width="2" fill="none"/>
 </g>
 <g id="g72" transform="translate(-1 -.68670)">
  <path id="line74" d="m580 422.85 71.29 35.65" stroke="#000" stroke-width="2" fill="none"/>
  <path id="polygon76" d="m651.29 458.5v-5.59l6.708 8.944h-11.18z"/>
  <path id="polygon78" d="m651.29 458.5v-5.59l6.708 8.944h-11.18z" stroke="#000" stroke-width="2" fill="none"/>
 </g>
 <g id="g80" transform="translate(-1 -.68670)">
  <path id="line82" d="m660 482.85-71.292-35.646" stroke="#000" stroke-width="2" fill="none"/>
  <path id="polygon84" d="m588.71 447.2v5.59l-6.708-8.944h11.18z"/>
  <path id="polygon86" d="m588.71 447.2v5.59l-6.708-8.944h11.18z" stroke="#000" stroke-width="2" fill="none"/>
 </g>
 <g id="text88">
  <path id="path3273" style="" d="m605.17 308.1v11.112h-1.8356v-9.6937h-5.0106v9.6937h-1.8355v-9.6937h-1.7462v-1.4188h1.7462v-0.77391c-0.00001-1.2104 0.28442-2.1034 0.85328-2.6789 0.57546-0.58207 1.4552-0.87311 2.6392-0.87313h1.8355v1.518h-1.7462c-0.65485 0.00001-1.1112 0.1323-1.3692 0.39687-0.25135 0.2646-0.37703 0.74085-0.37703 1.4288v0.98227h6.8461m-1.8356-4.3061h1.8356v2.3118h-1.8356v-2.3118"/>
  <path id="path3275" style="" d="m616.99 313.67c-0.00001-1.3428-0.27782-2.3945-0.83344-3.1552-0.54902-0.76728-1.3064-1.1509-2.2721-1.1509-0.96573 0.00001-1.7264 0.38365-2.282 1.1509-0.54901 0.76069-0.82352 1.8124-0.82351 3.1552-0.00001 1.3428 0.2745 2.3978 0.82351 3.1651 0.55562 0.76068 1.3163 1.141 2.282 1.141 0.96572 0 1.7231-0.38033 2.2721-1.141 0.55562-0.76729 0.83343-1.8223 0.83344-3.1651m-6.2111-3.8794c0.38364-0.66145 0.8665-1.1509 1.4486-1.4684 0.58869-0.3241 1.2898-0.48616 2.1034-0.48617 1.3494 0.00001 2.4441 0.53579 3.2841 1.6073 0.84665 1.0716 1.27 2.4805 1.27 4.2267-0.00001 1.7462-0.42335 3.1552-1.27 4.2267-0.84006 1.0716-1.9348 1.6073-3.2841 1.6073-0.8136 0-1.5148-0.15875-2.1034-0.47625-0.58209-0.32411-1.065-0.8169-1.4486-1.4784v1.6669h-1.8356v-15.438h1.8356v6.0127"/>
  <path id="path3277" style="" d="m622.51 317.53h3.2742v-11.301l-3.562 0.71438v-1.8256l3.5421-0.71437h2.0042v13.127h3.2742v1.6867h-8.5328v-1.6867"/>
  <path id="path3279" style="" d="m636.81 316.69h2.0141v2.5202h-2.0141v-2.5202m1.9546-1.4585h-1.8951v-1.528c-0.00001-0.66807 0.0926-1.2171 0.27781-1.647 0.1852-0.42994 0.57546-0.92934 1.1708-1.4982l0.89297-0.88304c0.37702-0.35057 0.64822-0.6813 0.81359-0.99219 0.17197-0.31088 0.25796-0.62838 0.25797-0.9525-0.00001-0.58869-0.21829-1.0649-0.65484-1.4288-0.42996-0.36379-1.0021-0.54569-1.7165-0.5457-0.52255 0.00001-1.0815 0.11576-1.6768 0.34726-0.5887 0.23152-1.2039 0.56887-1.8455 1.012v-1.8653c0.62177-0.37702 1.2502-0.65814 1.8852-0.84336 0.64161-0.18519 1.3031-0.2778 1.9844-0.27781 1.2171 0.00001 2.1927 0.32082 2.927 0.96242 0.74083 0.64163 1.1112 1.4883 1.1112 2.54-0.00001 0.50272-0.11907 0.98228-0.35719 1.4387-0.23813 0.4498-0.65485 0.95913-1.2502 1.528l-0.87313 0.85328c-0.31089 0.31089-0.53248 0.55563-0.66476 0.73422-0.12569 0.17199-0.21498 0.34066-0.26789 0.50602-0.0397 0.13891-0.0695 0.30758-0.0893 0.50601-0.0199 0.19845-0.0298 0.46964-0.0298 0.8136v1.2204"/>
 </g>
 <g id="text92">
  <path id="path3282" style="" d="m605.17 418.1v11.112h-1.8356v-9.6937h-5.0106v9.6937h-1.8355v-9.6937h-1.7462v-1.4188h1.7462v-0.77391c-0.00001-1.2104 0.28442-2.1034 0.85328-2.6789 0.57546-0.58207 1.4552-0.87311 2.6392-0.87313h1.8355v1.518h-1.7462c-0.65485 0.00001-1.1112 0.1323-1.3692 0.39687-0.25135 0.2646-0.37703 0.74085-0.37703 1.4288v0.98227h6.8461m-1.8356-4.3061h1.8356v2.3118h-1.8356v-2.3118"/>
  <path id="path3284" style="" d="m616.99 423.67c-0.00001-1.3428-0.27782-2.3945-0.83344-3.1552-0.54902-0.76728-1.3064-1.1509-2.2721-1.1509-0.96573 0.00001-1.7264 0.38365-2.282 1.1509-0.54901 0.76069-0.82352 1.8124-0.82351 3.1552-0.00001 1.3428 0.2745 2.3978 0.82351 3.1651 0.55562 0.76068 1.3163 1.141 2.282 1.141 0.96572 0 1.7231-0.38033 2.2721-1.141 0.55562-0.76729 0.83343-1.8223 0.83344-3.1651m-6.2111-3.8794c0.38364-0.66145 0.8665-1.1509 1.4486-1.4684 0.58869-0.3241 1.2898-0.48616 2.1034-0.48617 1.3494 0.00001 2.4441 0.53579 3.2841 1.6073 0.84665 1.0716 1.27 2.4805 1.27 4.2267-0.00001 1.7462-0.42335 3.1552-1.27 4.2267-0.84006 1.0716-1.9348 1.6073-3.2841 1.6073-0.8136 0-1.5148-0.15875-2.1034-0.47625-0.58209-0.32411-1.065-0.8169-1.4486-1.4784v1.6669h-1.8356v-15.438h1.8356v6.0127"/>
  <path id="path3286" style="" d="m626.45 415.72c-1.0319 0.00001-1.8091 0.50933-2.3316 1.528-0.51594 1.012-0.77391 2.5367-0.77391 4.574 0 2.0307 0.25797 3.5553 0.77391 4.574 0.52254 1.012 1.2998 1.518 2.3316 1.518 1.0385 0 1.8157-0.50601 2.3316-1.518 0.52254-1.0186 0.78382-2.5433 0.78383-4.574-0.00001-2.0373-0.26129-3.5619-0.78383-4.574-0.51595-1.0186-1.2932-1.528-2.3316-1.528m0-1.5875c1.6602 0.00001 2.9269 0.65816 3.8001 1.9744 0.87972 1.3097 1.3196 3.2147 1.3196 5.715-0.00001 2.4937-0.43988 4.3987-1.3196 5.715-0.87314 1.3097-2.1398 1.9645-3.8001 1.9645s-2.9303-0.65484-3.81-1.9645c-0.87313-1.3163-1.3097-3.2213-1.3097-5.715 0-2.5003 0.43656-4.4053 1.3097-5.715 0.87973-1.3163 2.1497-1.9744 3.81-1.9744"/>
  <path id="path3288" style="" d="m636.81 426.69h2.0141v2.5202h-2.0141v-2.5202m1.9546-1.4585h-1.8951v-1.528c-0.00001-0.66807 0.0926-1.2171 0.27781-1.647 0.1852-0.42994 0.57546-0.92934 1.1708-1.4982l0.89297-0.88304c0.37702-0.35057 0.64822-0.6813 0.81359-0.99219 0.17197-0.31088 0.25796-0.62838 0.25797-0.9525-0.00001-0.58869-0.21829-1.0649-0.65484-1.4288-0.42996-0.36379-1.0021-0.54569-1.7165-0.5457-0.52255 0.00001-1.0815 0.11576-1.6768 0.34726-0.5887 0.23152-1.2039 0.56887-1.8455 1.012v-1.8653c0.62177-0.37702 1.2502-0.65814 1.8852-0.84336 0.64161-0.18519 1.3031-0.2778 1.9844-0.27781 1.2171 0.00001 2.1927 0.32082 2.927 0.96242 0.74083 0.64163 1.1112 1.4883 1.1112 2.54-0.00001 0.50272-0.11907 0.98228-0.35719 1.4387-0.23813 0.4498-0.65485 0.95913-1.2502 1.528l-0.87313 0.85328c-0.31089 0.31089-0.53248 0.55563-0.66476 0.73422-0.12569 0.17199-0.21498 0.34066-0.26789 0.50602-0.0397 0.13891-0.0695 0.30758-0.0893 0.50601-0.0199 0.19845-0.0298 0.46964-0.0298 0.8136v1.2204"/>
 </g>
 <g id="g96" transform="translate(-1 -.68670)">
  <path id="line98" d="m580 60 71.29-35.646" stroke="#000" stroke-width="2" fill="none"/>
  <path id="polygon100" d="m651.29 24.354-4.47-3.354h11.18l-6.708 8.9443z"/>
  <path id="polygon102" d="m651.29 24.354-4.47-3.354h11.18l-6.708 8.9443z" stroke="#000" stroke-width="2" fill="none"/>
 </g>
 <g id="g104" transform="translate(-1 -.68670)">
  <path id="line106" d="m660 40-71.29 35.646" stroke="#000" stroke-width="2" fill="none"/>
  <path id="polygon108" d="m588.71 75.646 4.47 3.354h-11.18l6.708-8.9443z"/>
  <path id="polygon110" d="m588.71 75.646 4.47 3.354h-11.18l6.708-8.9443z" stroke="#000" stroke-width="2" fill="none"/>
 </g>
 <g id="g112" transform="translate(-1 -.68670)">
  <path id="line114" d="m580 120 71.292 35.646" stroke="#000" stroke-width="2" fill="none"/>
  <path id="polygon116" d="m651.29 155.65v-5.59l6.708 8.944h-11.18z"/>
  <path id="polygon118" d="m651.29 155.65v-5.59l6.708 8.944h-11.18z" stroke="#000" stroke-width="2" fill="none"/>
 </g>
 <g id="g120" transform="translate(-1 -.68670)">
  <path id="line122" d="m660 180-71.29-35.65" stroke="#000" stroke-width="2" fill="none"/>
  <path id="polygon124" d="m588.71 144.35v5.59l-6.71-8.94h11.18z"/>
  <path id="polygon126" d="m588.71 144.35v5.59l-6.71-8.94h11.18z" stroke="#000" stroke-width="2" fill="none"/>
 </g>
 <g id="text128">
  <path id="path3303" style="" d="m605.17 15.251v11.112h-1.8356v-9.6937h-5.0106v9.6937h-1.8355v-9.6937h-1.7462v-1.4188h1.7462v-0.77391c-0.00001-1.2105 0.28442-2.1034 0.85328-2.6789 0.57546-0.58207 1.4552-0.87311 2.6392-0.87312h1.8355v1.518h-1.7462c-0.65485 0.000014-1.1112 0.1323-1.3692 0.39688-0.25135 0.2646-0.37703 0.74085-0.37703 1.4288v0.98226h6.8461m-1.8356-4.3061h1.8356v2.3118h-1.8356v-2.3118"/>
  <path id="path3305" style="" d="m616.99 20.817c-0.00001-1.3428-0.27782-2.3945-0.83344-3.1552-0.54902-0.76728-1.3064-1.1509-2.2721-1.1509-0.96573 0.000009-1.7264 0.38366-2.282 1.1509-0.54901 0.76068-0.82352 1.8124-0.82351 3.1552-0.00001 1.3428 0.2745 2.3978 0.82351 3.1651 0.55562 0.76068 1.3163 1.141 2.282 1.141 0.96572 0.000001 1.7231-0.38034 2.2721-1.141 0.55562-0.76729 0.83343-1.8223 0.83344-3.1651m-6.2111-3.8795c0.38364-0.66145 0.8665-1.1509 1.4486-1.4684 0.58869-0.3241 1.2898-0.48616 2.1034-0.48617 1.3494 0.000011 2.4441 0.53579 3.2841 1.6073 0.84665 1.0716 1.27 2.4805 1.27 4.2267-0.00001 1.7463-0.42335 3.1552-1.27 4.2267-0.84006 1.0716-1.9348 1.6073-3.2841 1.6073-0.8136-0.000001-1.5148-0.15875-2.1034-0.47625-0.58209-0.32411-1.065-0.8169-1.4486-1.4784v1.6669h-1.8356v-15.438h1.8356v6.0127"/>
  <path id="path3307" style="" d="m623.89 24.677h6.9949v1.6867h-9.4059v-1.6867c0.76067-0.78713 1.7958-1.8422 3.1055-3.1651 1.3163-1.3295 2.1431-2.1861 2.4805-2.5698 0.64161-0.72098 1.0881-1.3295 1.3395-1.8256 0.25796-0.5027 0.38694-0.99548 0.38695-1.4784-0.00001-0.78712-0.27782-1.4287-0.83344-1.9248-0.54902-0.49608-1.2667-0.74413-2.153-0.74414-0.6284 0.000014-1.2932 0.10915-1.9943 0.32742-0.69454 0.21829-1.4387 0.54902-2.2324 0.99219v-2.0241c0.80697-0.3241 1.561-0.56884 2.2622-0.73422 0.70115-0.16535 1.3428-0.24803 1.9248-0.24805 1.5346 0.000016 2.7583 0.38366 3.6711 1.1509 0.9128 0.7673 1.3692 1.7926 1.3692 3.0758-0.00001 0.60855-0.11577 1.1873-0.34727 1.7363-0.2249 0.5424-0.63831 1.184-1.2402 1.9248-0.16537 0.19183-0.69123 0.74745-1.5776 1.6669-0.88636 0.91282-2.1365 2.1927-3.7505 3.8398"/>
  <path id="path3309" style="" d="m636.81 23.843h2.0141v2.5202h-2.0141v-2.5202m1.9546-1.4585h-1.8951v-1.528c-0.00001-0.66807 0.0926-1.2171 0.27781-1.647 0.1852-0.42994 0.57546-0.92934 1.1708-1.4982l0.89297-0.88305c0.37702-0.35056 0.64822-0.68129 0.81359-0.99219 0.17197-0.31088 0.25796-0.62837 0.25797-0.9525-0.00001-0.58869-0.21829-1.0649-0.65484-1.4288-0.42996-0.36379-1.0021-0.54569-1.7165-0.5457-0.52255 0.000013-1.0815 0.11577-1.6768 0.34727-0.5887 0.23152-1.2039 0.56887-1.8455 1.012v-1.8653c0.62177-0.37702 1.2502-0.65814 1.8852-0.84336 0.64161-0.18519 1.3031-0.2778 1.9844-0.27781 1.2171 0.000016 2.1927 0.32082 2.927 0.96242 0.74083 0.64163 1.1112 1.4883 1.1112 2.54-0.00001 0.50272-0.11907 0.98228-0.35719 1.4387-0.23813 0.4498-0.65485 0.95912-1.2502 1.528l-0.87313 0.85328c-0.31089 0.31089-0.53248 0.55563-0.66476 0.73422-0.12569 0.17199-0.21498 0.34066-0.26789 0.50602-0.0397 0.13891-0.0695 0.30758-0.0893 0.50602-0.0199 0.19844-0.0298 0.46964-0.0298 0.81359v1.2204"/>
 </g>
 <g id="text132">
  <path id="path3312" style="" d="m605.17 115.25v11.112h-1.8356v-9.6937h-5.0106v9.6937h-1.8355v-9.6937h-1.7462v-1.4188h1.7462v-0.77391c-0.00001-1.2105 0.28442-2.1034 0.85328-2.6789 0.57546-0.58206 1.4552-0.87311 2.6392-0.87312h1.8355v1.518h-1.7462c-0.65485 0.00001-1.1112 0.1323-1.3692 0.39687-0.25135 0.2646-0.37703 0.74085-0.37703 1.4288v0.98227h6.8461m-1.8356-4.3061h1.8356v2.3118h-1.8356v-2.3118"/>
  <path id="path3314" style="" d="m616.99 120.82c-0.00001-1.3428-0.27782-2.3945-0.83344-3.1552-0.54902-0.76728-1.3064-1.1509-2.2721-1.1509-0.96573 0.00001-1.7264 0.38366-2.282 1.1509-0.54901 0.76069-0.82352 1.8124-0.82351 3.1552-0.00001 1.3428 0.2745 2.3978 0.82351 3.1651 0.55562 0.76068 1.3163 1.141 2.282 1.141 0.96572 0 1.7231-0.38033 2.2721-1.141 0.55562-0.76729 0.83343-1.8223 0.83344-3.1651m-6.2111-3.8794c0.38364-0.66145 0.8665-1.1509 1.4486-1.4684 0.58869-0.32411 1.2898-0.48616 2.1034-0.48617 1.3494 0.00001 2.4441 0.53579 3.2841 1.6073 0.84665 1.0716 1.27 2.4805 1.27 4.2267-0.00001 1.7462-0.42335 3.1552-1.27 4.2267-0.84006 1.0716-1.9348 1.6073-3.2841 1.6073-0.8136 0-1.5148-0.15875-2.1034-0.47625-0.58209-0.32411-1.065-0.8169-1.4486-1.4784v1.6669h-1.8356v-15.438h1.8356v6.0127"/>
  <path id="path3316" style="" d="m622.51 124.68h3.2742v-11.301l-3.562 0.71438v-1.8256l3.5421-0.71437h2.0042v13.127h3.2742v1.6867h-8.5328v-1.6867"/>
  <path id="path3318" style="" d="m636.81 123.84h2.0141v2.5202h-2.0141v-2.5202m1.9546-1.4585h-1.8951v-1.528c-0.00001-0.66807 0.0926-1.2171 0.27781-1.647 0.1852-0.42994 0.57546-0.92934 1.1708-1.4982l0.89297-0.88305c0.37702-0.35056 0.64822-0.68129 0.81359-0.99218 0.17197-0.31088 0.25796-0.62838 0.25797-0.9525-0.00001-0.58869-0.21829-1.0649-0.65484-1.4288-0.42996-0.36379-1.0021-0.54569-1.7165-0.54571-0.52255 0.00002-1.0815 0.11577-1.6768 0.34727-0.5887 0.23152-1.2039 0.56887-1.8455 1.012v-1.8653c0.62177-0.37702 1.2502-0.65814 1.8852-0.84336 0.64161-0.18519 1.3031-0.2778 1.9844-0.27781 1.2171 0.00001 2.1927 0.32082 2.927 0.96242 0.74083 0.64163 1.1112 1.4883 1.1112 2.54-0.00001 0.50272-0.11907 0.98227-0.35719 1.4387-0.23813 0.4498-0.65485 0.95912-1.2502 1.528l-0.87313 0.85328c-0.31089 0.31089-0.53248 0.55563-0.66476 0.73422-0.12569 0.17199-0.21498 0.34066-0.26789 0.50601-0.0397 0.13892-0.0695 0.30759-0.0893 0.50602-0.0199 0.19844-0.0298 0.46964-0.0298 0.81359v1.2204"/>
 </g>
 <g id="g136" transform="translate(-1 -.68670)">
  <path id="line138" d="m740-60 71.292-35.646" stroke="#000" stroke-width="2" fill="none"/>
  <path id="polygon140" d="m811.29-95.646-4.47-3.354h11.18l-6.708 8.9443z"/>
  <path id="polygon142" d="m811.29-95.646-4.47-3.354h11.18l-6.708 8.9443z" stroke="#000" stroke-width="2" fill="none"/>
 </g>
 <g id="g144" transform="translate(-1 -.68670)">
  <path id="line146" d="m820-80-71.292 35.646" stroke="#000" stroke-width="2" fill="none"/>
  <path id="polygon148" d="m748.71-44.354 4.47 3.354h-11.18l6.708-8.9443z"/>
  <path id="polygon150" d="m748.71-44.354 4.47 3.354h-11.18l6.708-8.9443z" stroke="#000" stroke-width="2" fill="none"/>
 </g>
 <g id="g152" transform="translate(-1 -.68670)">
  <path id="line154" d="m740 0 71.292 35.646" stroke="#000" stroke-width="2" fill="none"/>
  <path id="polygon156" d="m811.29 35.646v-5.5902l6.71 8.944h-11.18z"/>
  <path id="polygon158" d="m811.29 35.646v-5.5902l6.71 8.944h-11.18z" stroke="#000" stroke-width="2" fill="none"/>
 </g>
 <g id="g160" transform="translate(-1 -.68670)">
  <path id="line162" d="m820 60-71.29-35.646" stroke="#000" stroke-width="2" fill="none"/>
  <path id="polygon164" d="m748.71 24.354v5.5902l-6.71-8.944h11.18z"/>
  <path id="polygon166" d="m748.71 24.354v5.5902l-6.71-8.944h11.18z" stroke="#000" stroke-width="2" fill="none"/>
 </g>
 <g id="text168">
  <path id="path3333" style="" d="m785.05-45.323h3.2742v-11.301l-3.562 0.71438v-1.8256l3.5421-0.71438h2.0042v13.127h3.2742v1.6867h-8.5328v-1.6867"/>
 </g>
 <g id="text172">
  <path id="path3336" style="" d="m765.17-4.7492v11.112h-1.8356v-9.6937h-5.0106v9.6937h-1.8355v-9.6937h-1.7462v-1.4188h1.7462v-0.77391c-0.00001-1.2105 0.28442-2.1034 0.85328-2.6789 0.57546-0.58207 1.4552-0.87311 2.6392-0.87312h1.8355v1.518h-1.7462c-0.65485 0.000014-1.1112 0.13231-1.3692 0.39688-0.25135 0.2646-0.37703 0.74085-0.37703 1.4288v0.98227h6.8461m-1.8356-4.3061h1.8356v2.3118h-1.8356v-2.3118"/>
  <path id="path3338" style="" d="m776.99 0.81698c-0.00001-1.3428-0.27782-2.3945-0.83344-3.1552-0.54902-0.76728-1.3064-1.1509-2.2721-1.1509-0.96573 0.0000099-1.7264 0.38366-2.282 1.1509-0.54901 0.76068-0.82352 1.8124-0.82351 3.1552-0.00001 1.3428 0.2745 2.3978 0.82351 3.1651 0.55562 0.76068 1.3163 1.141 2.282 1.141 0.96572 0.0000012 1.7231-0.38034 2.2721-1.141 0.55562-0.76729 0.83343-1.8223 0.83344-3.1651m-6.2111-3.8795c0.38364-0.66145 0.8665-1.1509 1.4486-1.4684 0.58869-0.3241 1.2898-0.48616 2.1034-0.48617 1.3494 0.0000114 2.4441 0.53579 3.2841 1.6073 0.84665 1.0716 1.27 2.4805 1.27 4.2267-0.00001 1.7463-0.42335 3.1552-1.27 4.2267-0.84006 1.0716-1.9348 1.6073-3.2841 1.6073-0.8136-3e-7 -1.5148-0.15875-2.1034-0.47625-0.58209-0.32411-1.065-0.8169-1.4486-1.4784v1.6669h-1.8356v-15.438h1.8356v6.0127"/>
  <path id="path3340" style="" d="m786.45-7.1304c-1.0319 0.0000135-1.8091 0.50934-2.3316 1.528-0.51594 1.012-0.77391 2.5367-0.77391 4.574 0 2.0307 0.25797 3.5553 0.77391 4.574 0.52254 1.012 1.2998 1.518 2.3316 1.518 1.0385 0.0000013 1.8157-0.50601 2.3316-1.518 0.52254-1.0186 0.78382-2.5433 0.78383-4.574-0.00001-2.0373-0.26129-3.5619-0.78383-4.574-0.51595-1.0186-1.2932-1.528-2.3316-1.528m0-1.5875c1.6602 0.0000151 2.9269 0.65817 3.8001 1.9745 0.87972 1.3097 1.3196 3.2147 1.3196 5.715-0.00001 2.4937-0.43988 4.3987-1.3196 5.715-0.87314 1.3097-2.1398 1.9645-3.8001 1.9645-1.6603-3e-7 -2.9303-0.65484-3.81-1.9645-0.87313-1.3163-1.3097-3.2213-1.3097-5.715 0-2.5003 0.43656-4.4053 1.3097-5.715 0.87973-1.3163 2.1497-1.9744 3.81-1.9745"/>
  <path id="path3342" style="" d="m796.81 3.8431h2.0141v2.5202h-2.0141v-2.5202m1.9546-1.4585h-1.8951v-1.528c-0.00001-0.66807 0.0926-1.2171 0.27781-1.647 0.1852-0.42994 0.57546-0.92934 1.1708-1.4982l0.89297-0.88305c0.37702-0.35056 0.64822-0.68129 0.81359-0.99219 0.17197-0.31087 0.25796-0.62837 0.25797-0.9525-0.00001-0.58869-0.21829-1.0649-0.65484-1.4288-0.42996-0.36379-1.0021-0.54569-1.7165-0.5457-0.52255 0.0000134-1.0815 0.11577-1.6768 0.34727-0.5887 0.23152-1.2039 0.56887-1.8455 1.012v-1.8653c0.62177-0.37702 1.2502-0.65814 1.8852-0.84336 0.64161-0.18519 1.3031-0.2778 1.9844-0.27781 1.2171 0.0000151 2.1927 0.32082 2.927 0.96242 0.74083 0.64163 1.1112 1.4883 1.1112 2.54-0.00001 0.50272-0.11907 0.98228-0.35719 1.4387-0.23813 0.4498-0.65485 0.95912-1.2502 1.528l-0.87313 0.85328c-0.31089 0.31089-0.53248 0.55563-0.66476 0.73422-0.12569 0.17199-0.21498 0.34066-0.26789 0.50602-0.0397 0.13891-0.0695 0.30758-0.0893 0.50602-0.0199 0.19844-0.0298 0.46964-0.0298 0.81359v1.2204"/>
 </g>
 <g id="text176">
  <path id="path3345" style="" d="m768.99 42.87c-1.0319 0.000013-1.8091 0.50934-2.3316 1.528-0.51594 1.012-0.77391 2.5367-0.77391 4.574 0 2.0307 0.25797 3.5553 0.77391 4.574 0.52254 1.012 1.2998 1.518 2.3316 1.518 1.0385 0.000001 1.8157-0.50601 2.3316-1.518 0.52254-1.0186 0.78382-2.5433 0.78383-4.574-0.00001-2.0373-0.26129-3.5619-0.78383-4.574-0.51595-1.0186-1.2932-1.528-2.3316-1.528m0-1.5875c1.6602 0.000015 2.9269 0.65816 3.8001 1.9745 0.87972 1.3097 1.3196 3.2147 1.3196 5.715-0.00002 2.4937-0.43989 4.3987-1.3196 5.715-0.87314 1.3097-2.1398 1.9645-3.8001 1.9645-1.6603-0.000001-2.9303-0.65484-3.81-1.9645-0.87313-1.3163-1.3097-3.2213-1.3097-5.715 0-2.5003 0.43656-4.4053 1.3097-5.715 0.87973-1.3163 2.1497-1.9744 3.81-1.9745"/>
 </g>
 <g id="text180">
  <path id="path3348" style="" d="m615.05 84.677h3.2742v-11.301l-3.562 0.71438v-1.8256l3.5421-0.71438h2.0042v13.127h3.2742v1.6867h-8.5328v-1.6867"/>
 </g>
 <g id="text184">
  <path id="path3351" style="" d="m615.05 184.68h3.2742v-11.301l-3.562 0.71437v-1.8256l3.5421-0.71438h2.0042v13.127h3.2742v1.6867h-8.5328v-1.6867"/>
 </g>
 <g id="text188">
  <path id="path3354" style="" d="m466.43 204.68h6.9949v1.6867h-9.4059v-1.6867c0.76067-0.78713 1.7958-1.8422 3.1056-3.1651 1.3163-1.3295 2.1431-2.1861 2.4805-2.5698 0.64161-0.72098 1.0881-1.3295 1.3395-1.8256 0.25796-0.50269 0.38694-0.99548 0.38695-1.4784-0.00001-0.78713-0.27782-1.4287-0.83344-1.9248-0.54901-0.49608-1.2667-0.74413-2.153-0.74414-0.62839 0.00001-1.2932 0.10915-1.9943 0.32742-0.69453 0.2183-1.4387 0.54903-2.2324 0.99219v-2.0241c0.80697-0.3241 1.561-0.56884 2.2622-0.73422 0.70114-0.16535 1.3428-0.24803 1.9248-0.24805 1.5346 0.00002 2.7583 0.38366 3.6711 1.1509 0.9128 0.7673 1.3692 1.7926 1.3692 3.0758-0.00001 0.60855-0.11576 1.1873-0.34726 1.7363-0.22491 0.5424-0.63832 1.184-1.2402 1.9248-0.16537 0.19183-0.69123 0.74746-1.5776 1.6669-0.88636 0.91281-2.1365 2.1927-3.7505 3.8398"/>
 </g>
 <g id="text192">
  <path id="path3357" style="" d="m625.05 377.53h3.2742v-11.301l-3.562 0.71438v-1.8256l3.5421-0.71437h2.0042v13.127h3.2742v1.6867h-8.5328v-1.6867"/>
 </g>
 <g id="text196">
  <path id="path3360" style="" d="m618.99 475.72c-1.0319 0.00001-1.8091 0.50933-2.3316 1.528-0.51594 1.012-0.77391 2.5367-0.77391 4.574 0 2.0307 0.25797 3.5553 0.77391 4.574 0.52254 1.012 1.2998 1.518 2.3316 1.518 1.0385 0 1.8157-0.50601 2.3316-1.518 0.52254-1.0186 0.78382-2.5433 0.78383-4.574-0.00001-2.0373-0.26129-3.5619-0.78383-4.574-0.51595-1.0186-1.2932-1.528-2.3316-1.528m0-1.5875c1.6602 0.00001 2.9269 0.65816 3.8001 1.9744 0.87972 1.3097 1.3196 3.2147 1.3196 5.715-0.00002 2.4937-0.43989 4.3987-1.3196 5.715-0.87314 1.3097-2.1398 1.9645-3.8001 1.9645s-2.9303-0.65484-3.81-1.9645c-0.87313-1.3163-1.3097-3.2213-1.3097-5.715 0-2.5003 0.43656-4.4053 1.3097-5.715 0.87973-1.3163 2.1497-1.9744 3.81-1.9744"/>
 </g>
 <g id="text200">
  <path id="path3363" style="" d="m445.05 327.53h3.2742v-11.301l-3.562 0.71438v-1.8256l3.5421-0.71437h2.0042v13.127h3.2742v1.6867h-8.5328v-1.6867"/>
 </g>
 <g id="g204" transform="translate(-1 -.68670)">
  <path id="line206" d="m320 240h-70.264" stroke="#000" stroke-width="2" fill="none"/>
  <path id="polygon208" d="m249.74 240 2.5 5-10-5 10-5z"/>
  <path id="polygon210" d="m249.74 240 2.5 5-10-5 10-5z" stroke="#000" stroke-width="2" fill="none"/>
 </g>
 <g id="text212">
  <path id="path3369" style="" d="m280.78 248.38c0.9591 0.20506 1.7066 0.6317 2.2423 1.2799 0.54238 0.64824 0.81358 1.4486 0.81359 2.4011-0.00001 1.4618-0.50272 2.5929-1.5081 3.3933-1.0054 0.80036-2.4342 1.2006-4.2862 1.2006-0.62178 0-1.2634-0.0628-1.9248-0.18852-0.65484-0.11906-1.3328-0.30096-2.034-0.5457v-1.9348c0.55562 0.32412 1.1642 0.56886 1.8256 0.73422 0.66145 0.16537 1.3527 0.24805 2.0737 0.24805 1.2568 0 2.2126-0.24805 2.8674-0.74414 0.66145-0.49609 0.99218-1.2171 0.99219-2.163-0.00001-0.87312-0.30759-1.5544-0.92274-2.0439-0.60855-0.49609-1.4585-0.74413-2.5499-0.74414h-1.7264v-1.647h1.8058c0.98556 0.00001 1.7396-0.19512 2.2622-0.58539 0.52255-0.39687 0.78382-0.96572 0.78383-1.7066-0.00001-0.76067-0.27121-1.3428-0.81359-1.7462-0.53579-0.41009-1.3064-0.61515-2.3118-0.61516-0.54902 0.00001-1.1377 0.0596-1.7661 0.17859-0.62839 0.11908-1.3196 0.30429-2.0737 0.55563v-1.7859c0.76068-0.21165 1.4718-0.3704 2.1332-0.47625 0.66807-0.10582 1.2964-0.15873 1.8852-0.15875 1.5214 0.00002 2.7252 0.34728 3.6116 1.0418 0.88634 0.68793 1.3295 1.6206 1.3295 2.798-0.00001 0.82022-0.23483 1.5148-0.70446 2.0836-0.46964 0.56225-1.1377 0.95251-2.0042 1.1708"/>
 </g>
 <g id="text216">
  <path id="path3372" style="" d="m765.17-104.75v11.113h-1.8356v-9.6937h-5.0106v9.6937h-1.8355v-9.6937h-1.7462v-1.4188h1.7462v-0.7739c-0.00001-1.2105 0.28442-2.1034 0.85328-2.6789 0.57546-0.58207 1.4552-0.87311 2.6392-0.87312h1.8355v1.518h-1.7462c-0.65485 0.00002-1.1112 0.13231-1.3692 0.39688-0.25135 0.2646-0.37703 0.74084-0.37703 1.4288v0.98226h6.8461m-1.8356-4.3061h1.8356v2.3118h-1.8356v-2.3118"/>
  <path id="path3374" style="" d="m776.99-99.183c-0.00001-1.3428-0.27782-2.3945-0.83344-3.1552-0.54902-0.76728-1.3064-1.1509-2.2721-1.1509-0.96573 0.00001-1.7264 0.38366-2.282 1.1509-0.54901 0.76068-0.82352 1.8124-0.82351 3.1552-0.00001 1.3428 0.2745 2.3978 0.82351 3.1651 0.55562 0.76068 1.3163 1.141 2.282 1.141 0.96572 0.000001 1.7231-0.38034 2.2721-1.141 0.55562-0.76729 0.83343-1.8223 0.83344-3.1651m-6.2111-3.8795c0.38364-0.66145 0.8665-1.1509 1.4486-1.4684 0.58869-0.32411 1.2898-0.48616 2.1034-0.48618 1.3494 0.00002 2.4441 0.5358 3.2841 1.6074 0.84665 1.0716 1.27 2.4805 1.27 4.2267-0.00001 1.7463-0.42335 3.1552-1.27 4.2267-0.84006 1.0716-1.9348 1.6073-3.2841 1.6073-0.8136-0.000001-1.5148-0.15875-2.1034-0.47625-0.58209-0.32412-1.065-0.8169-1.4486-1.4784v1.6669h-1.8356v-15.438h1.8356v6.0126"/>
  <path id="path3376" style="" d="m782.51-95.323h3.2742v-11.301l-3.562 0.71437v-1.8256l3.5421-0.71438h2.0042v13.127h3.2742v1.6867h-8.5328v-1.6867"/>
  <path id="path3378" style="" d="m796.81-96.157h2.0141v2.5202h-2.0141v-2.5202m1.9546-1.4585h-1.8951v-1.528c-0.00001-0.66807 0.0926-1.2171 0.27781-1.647 0.1852-0.42994 0.57546-0.92934 1.1708-1.4982l0.89297-0.88305c0.37702-0.35056 0.64822-0.68129 0.81359-0.99219 0.17197-0.31087 0.25796-0.62837 0.25797-0.9525-0.00001-0.58868-0.21829-1.0649-0.65484-1.4288-0.42996-0.36378-1.0021-0.54568-1.7165-0.5457-0.52255 0.00002-1.0815 0.11577-1.6768 0.34727-0.5887 0.23152-1.2039 0.56886-1.8455 1.012v-1.8653c0.62177-0.37702 1.2502-0.65814 1.8852-0.84336 0.64161-0.1852 1.3031-0.2778 1.9844-0.27782 1.2171 0.00002 2.1927 0.32083 2.927 0.96243 0.74083 0.64162 1.1112 1.4883 1.1112 2.54-0.00001 0.50272-0.11907 0.98227-0.35719 1.4387-0.23813 0.4498-0.65485 0.95912-1.2502 1.528l-0.87313 0.85328c-0.31089 0.31089-0.53248 0.55563-0.66476 0.73422-0.12569 0.17198-0.21498 0.34065-0.26789 0.50601-0.0397 0.13891-0.0695 0.30759-0.0893 0.50602-0.0199 0.19844-0.0298 0.46964-0.0298 0.81359v1.2204"/>
 </g>
 <g id="g220" transform="translate(-1 -.68670)">
  <g id="g222">
   <path id="path224" d="m472.39 16.074c-4.215-0.1869-12.39 3.7381-11.24 12.149 1.149 8.4106 6.642 10.28 8.941 7.8499 2.299-2.4297-3.577 11.775 7.664 15.513 11.24 3.7381 16.988-2.2428 15.327-6.5416-1.66-4.2988 9.835 10.093 15.2 1.869 5.365-8.2237-5.492-16.074-3.193-14.952 2.299 1.1214 9.324-0.3739 7.025-14.392-2.29-14.018-22.99-3.177-20.69-5.233s-3.45-12.336-10.6-10.28c-7.153 2.056-7.66 5.7867-8.427 14.01l-0.003 0.0073z" fill="#7babe3"/>
   <path id="path226" d="m472.39 16.074c-4.215-0.1869-12.39 3.7381-11.24 12.149 1.149 8.4106 6.642 10.28 8.941 7.8499 2.299-2.4297-3.577 11.775 7.664 15.513 11.24 3.7381 16.988-2.2428 15.327-6.5416-1.66-4.2988 9.835 10.093 15.2 1.869 5.365-8.2237-5.492-16.074-3.193-14.952 2.299 1.1214 9.324-0.3739 7.025-14.392-2.29-14.018-22.99-3.177-20.69-5.233s-3.45-12.336-10.6-10.28c-7.153 2.056-7.66 5.7867-8.427 14.01l-0.003 0.0073" stroke="#000" stroke-width="2" fill="none"/>
   <g id="text228">
    <path id="path3381" style="" d="m489.5 22.247v5.5265h5.5265v1.6867h-5.5265v5.5265h-1.6669v-5.5265h-5.5265v-1.6867h5.5265v-5.5265h1.6669"/>
   </g>
  </g>
  <g id="g232">
   <path id="path234" d="m524.5 40.849c10 4 2 2.6666 2 6s-6 6-10 0-2-10 8-6z" fill="#7babe3"/>
   <path id="path236" d="m524.5 40.849c10 4 2 2.6666 2 6s-6 6-10 0-2-10 8-6" stroke="#000" stroke-width="2" fill="none"/>
  </g>
  <g id="g238">
   <path id="path240" d="m527 56.349c6 0 4-4 6 0s-2 4-6 4-6-4 0-4z" fill="#7babe3"/>
   <path id="path242" d="m527 56.349c6 0 4-4 6 0s-2 4-6 4-6-4 0-4" stroke="#000" stroke-width="2" fill="none"/>
  </g>
 </g>
 <g id="g244" transform="translate(-1 -.68670)">
  <g id="g246">
   <path id="path248" d="m312.39 116.07c-4.215-0.187-12.39 3.738-11.24 12.148 1.149 8.411 6.642 10.28 8.941 7.85 2.299-2.429-3.577 11.775 7.664 15.513 11.24 3.738 16.988-2.243 15.327-6.541-1.66-4.299 9.835 10.092 15.2 1.869 5.365-8.224-5.492-16.074-3.193-14.953 2.299 1.122 9.324-0.373 7.025-14.391s-22.991-3.177-20.692-5.233-3.449-12.336-10.602-10.28-7.66 5.787-8.427 14.01l-0.003 0.008z" fill="#7babe3"/>
   <path id="path250" d="m312.39 116.07c-4.215-0.187-12.39 3.738-11.24 12.148 1.149 8.411 6.642 10.28 8.941 7.85 2.299-2.429-3.577 11.775 7.664 15.513 11.24 3.738 16.988-2.243 15.327-6.541-1.66-4.299 9.835 10.092 15.2 1.869 5.365-8.224-5.492-16.074-3.193-14.953 2.299 1.122 9.324-0.373 7.025-14.391s-22.991-3.177-20.692-5.233-3.449-12.336-10.602-10.28-7.66 5.787-8.427 14.01l-0.003 0.008" stroke="#000" stroke-width="2" fill="none"/>
   <g id="text252">
    <path id="path3384" style="" d="m329.5 122.25v5.5265h5.5265v1.6867h-5.5265v5.5265h-1.6669v-5.5265h-5.5265v-1.6867h5.5265v-5.5265h1.6669"/>
   </g>
  </g>
  <g id="g256">
   <path id="path258" d="m364.5 140.85c10 4 2 2.667 2 6 0 3.334-6 6-10 0s-2-10 8-6z" fill="#7babe3"/>
   <path id="path260" d="m364.5 140.85c10 4 2 2.667 2 6 0 3.334-6 6-10 0s-2-10 8-6" stroke="#000" stroke-width="2" fill="none"/>
  </g>
  <g id="g262">
   <path id="path264" d="m367 156.35c6 0 4-4 6 0s-2 4-6 4-6-4 0-4z" fill="#7babe3"/>
   <path id="path266" d="m367 156.35c6 0 4-4 6 0s-2 4-6 4-6-4 0-4" stroke="#000" stroke-width="2" fill="none"/>
  </g>
 </g>
 <g id="g268" transform="translate(-1 -.68670)">
  <g id="g270">
   <path id="path272" d="m632.39-83.926c-4.215-0.1869-12.39 3.7381-11.24 12.149 1.149 8.4106 6.642 10.28 8.941 7.8499 2.299-2.4297-3.577 11.775 7.664 15.513 11.24 3.7381 16.988-2.2428 15.327-6.5416-1.66-4.2988 9.835 10.093 15.2 1.869 5.365-8.2237-5.492-16.074-3.193-14.952 2.299 1.1214 9.324-0.3739 7.025-14.392s-22.991-3.1773-20.692-5.2333c2.299-2.0559-3.449-12.336-10.602-10.28s-7.66 5.7868-8.427 14.01l-0.003 0.0073z" fill="#7babe3"/>
   <path id="path274" d="m632.39-83.926c-4.215-0.1869-12.39 3.7381-11.24 12.149 1.149 8.4106 6.642 10.28 8.941 7.8499 2.299-2.4297-3.577 11.775 7.664 15.513 11.24 3.7381 16.988-2.2428 15.327-6.5416-1.66-4.2988 9.835 10.093 15.2 1.869 5.365-8.2237-5.492-16.074-3.193-14.952 2.299 1.1214 9.324-0.3739 7.025-14.392s-22.991-3.1773-20.692-5.2333c2.299-2.0559-3.449-12.336-10.602-10.28s-7.66 5.7868-8.427 14.01l-0.003 0.0073" stroke="#000" stroke-width="2" fill="none"/>
   <g id="text276">
    <path id="path3387" style="" d="m649.5-77.753v5.5265h5.5265v1.6867h-5.5265v5.5265h-1.6669v-5.5265h-5.5265v-1.6867h5.5265v-5.5265h1.6669"/>
   </g>
  </g>
  <g id="g280">
   <path id="path282" d="m684.5-59.151c10 4 2 2.6666 2 6s-6 6-10 0-2-10 8-6z" fill="#7babe3"/>
   <path id="path284" d="m684.5-59.151c10 4 2 2.6666 2 6s-6 6-10 0-2-10 8-6" stroke="#000" stroke-width="2" fill="none"/>
  </g>
  <g id="g286">
   <path id="path288" d="m687-43.651c6 0 4-4 6 0s-2 4-6 4-6-4 0-4z" fill="#7babe3"/>
   <path id="path290" d="m687-43.651c6 0 4-4 6 0s-2 4-6 4-6-4 0-4" stroke="#000" stroke-width="2" fill="none"/>
  </g>
 </g>
 <g id="g292" transform="translate(-1 -.68670)">
  <g id="g294">
   <path id="path296" d="m492.39 236.07c-4.215-0.187-12.39 3.738-11.24 12.148 1.149 8.411 6.642 10.28 8.941 7.85 2.299-2.429-3.577 11.775 7.664 15.513 11.24 3.738 16.988-2.243 15.327-6.541-1.66-4.299 9.835 10.092 15.2 1.869 5.365-8.224-5.492-16.074-3.193-14.953 2.299 1.122 9.324-0.373 7.025-14.391s-22.991-3.177-20.692-5.233-3.449-12.336-10.602-10.28-7.66 5.787-8.427 14.01l-0.003 0.008z" fill="#7babe3"/>
   <path id="path298" d="m492.39 236.07c-4.215-0.187-12.39 3.738-11.24 12.148 1.149 8.411 6.642 10.28 8.941 7.85 2.299-2.429-3.577 11.775 7.664 15.513 11.24 3.738 16.988-2.243 15.327-6.541-1.66-4.299 9.835 10.092 15.2 1.869 5.365-8.224-5.492-16.074-3.193-14.953 2.299 1.122 9.324-0.373 7.025-14.391s-22.991-3.177-20.692-5.233-3.449-12.336-10.602-10.28-7.66 5.787-8.427 14.01l-0.003 0.008" stroke="#000" stroke-width="2" fill="none"/>
   <g id="text300">
    <path id="path3390" style="" d="m509.5 242.25v5.5265h5.5265v1.6867h-5.5265v5.5265h-1.6669v-5.5265h-5.5265v-1.6867h5.5265v-5.5265h1.6669"/>
   </g>
  </g>
  <g id="g304">
   <path id="path306" d="m544.5 260.85c10 4 2 2.666 2 6s-6 6-10 0-2-10 8-6z" fill="#7babe3"/>
   <path id="path308" d="m544.5 260.85c10 4 2 2.666 2 6s-6 6-10 0-2-10 8-6" stroke="#000" stroke-width="2" fill="none"/>
  </g>
  <g id="g310">
   <path id="path312" d="m547 276.35c6 0 4-4 6 0s-2 4-6 4-6-4 0-4z" fill="#7babe3"/>
   <path id="path314" d="m547 276.35c6 0 4-4 6 0s-2 4-6 4-6-4 0-4" stroke="#000" stroke-width="2" fill="none"/>
  </g>
 </g>
 <g id="g316" transform="translate(-1 -.68670)">
  <g id="g318">
   <path id="ellipse320" fill="#fff" d="m200 200c0 11.046-8.9543 20-20 20s-20-8.9543-20-20 8.9543-20 20-20 20 8.9543 20 20z"/>
   <path id="ellipse322" d="m200 200c0 11.046-8.9543 20-20 20s-20-8.9543-20-20 8.9543-20 20-20 20 8.9543 20 20z" stroke="#000" stroke-width="2" fill="none"/>
  </g>
  <path id="line324" d="m160 230h40" stroke="#000" stroke-width="2" fill="none"/>
  <path id="line326" d="m180 220v30" stroke="#000" stroke-width="2" fill="none"/>
  <path id="line328" d="m180 250-20 30" stroke="#000" stroke-width="2" fill="none"/>
  <path id="line330" d="m180 250 20 30" stroke="#000" stroke-width="2" fill="none"/>
 </g>
 <g id="g332" transform="translate(-1 -.68670)">
  <g id="g334">
   <path id="ellipse336" fill="#fff" d="m400 200c0 11.046-8.9543 20-20 20s-20-8.9543-20-20 8.9543-20 20-20 20 8.9543 20 20z"/>
   <path id="ellipse338" d="m400 200c0 11.046-8.9543 20-20 20s-20-8.9543-20-20 8.9543-20 20-20 20 8.9543 20 20z" stroke="#000" stroke-width="2" fill="none"/>
  </g>
  <path id="line340" d="m360 230h40" stroke="#000" stroke-width="2" fill="none"/>
  <path id="line342" d="m380 220v30" stroke="#000" stroke-width="2" fill="none"/>
  <path id="line344" d="m380 250-20 30" stroke="#000" stroke-width="2" fill="none"/>
  <path id="line346" d="m380 250 20 30" stroke="#000" stroke-width="2" fill="none"/>
 </g>
 <g id="g348" transform="translate(-1 -.68670)">
  <g id="g350">
   <path id="ellipse352" fill="#fff" d="m560 100c0 11.046-8.9543 20-20 20s-20-8.9543-20-20 8.9543-20 20-20 20 8.9543 20 20z"/>
   <path id="ellipse354" d="m560 100c0 11.046-8.9543 20-20 20s-20-8.9543-20-20 8.9543-20 20-20 20 8.9543 20 20z" stroke="#000" stroke-width="2" fill="none"/>
  </g>
  <path id="line356" d="m520 130h40" stroke="#000" stroke-width="2" fill="none"/>
  <path id="line358" d="m540 120v30" stroke="#000" stroke-width="2" fill="none"/>
  <path id="line360" d="m540 150-20 30" stroke="#000" stroke-width="2" fill="none"/>
  <path id="line362" d="m540 150 20 30" stroke="#000" stroke-width="2" fill="none"/>
 </g>
 <g id="g364" transform="translate(-1 -.68670)">
  <g id="g366">
   <path id="ellipse368" fill="#fff" d="m720 140c0 11.046-8.9543 20-20 20s-20-8.9543-20-20 8.9543-20 20-20 20 8.9543 20 20z"/>
   <path id="ellipse370" d="m720 140c0 11.046-8.9543 20-20 20s-20-8.9543-20-20 8.9543-20 20-20 20 8.9543 20 20z" stroke="#000" stroke-width="2" fill="none"/>
  </g>
  <path id="line372" d="m680 170h40" stroke="#000" stroke-width="2" fill="none"/>
  <path id="line374" d="m700 160v30" stroke="#000" stroke-width="2" fill="none"/>
  <path id="line376" d="m700 190-20 30" stroke="#000" stroke-width="2" fill="none"/>
  <path id="line378" d="m700 190 20 30" stroke="#000" stroke-width="2" fill="none"/>
 </g>
 <g id="g380" transform="translate(-1 -.68670)">
  <g id="g382">
   <path id="ellipse384" fill="#fff" d="m880 40c0 11.046-8.9543 20-20 20s-20-8.9543-20-20 8.9543-20 20-20 20 8.9543 20 20z"/>
   <path id="ellipse386" d="m880 40c0 11.046-8.9543 20-20 20s-20-8.9543-20-20 8.9543-20 20-20 20 8.9543 20 20z" stroke="#000" stroke-width="2" fill="none"/>
  </g>
  <path id="line388" d="m840 70h40" stroke="#000" stroke-width="2" fill="none"/>
  <path id="line390" d="m860 60v30" stroke="#000" stroke-width="2" fill="none"/>
  <path id="line392" d="m860 90-20 30" stroke="#000" stroke-width="2" fill="none"/>
  <path id="line394" d="m860 90 20 30" stroke="#000" stroke-width="2" fill="none"/>
 </g>
 <g id="g396" transform="translate(-1 -.68670)">
  <g id="g398">
   <path id="ellipse400" fill="#fff" d="m880-120c0 11.046-8.9543 20-20 20s-20-8.9543-20-20 8.9543-20 20-20 20 8.9543 20 20z"/>
   <path id="ellipse402" d="m880-120c0 11.046-8.9543 20-20 20s-20-8.9543-20-20 8.9543-20 20-20 20 8.9543 20 20z" stroke="#000" stroke-width="2" fill="none"/>
  </g>
  <path id="line404" d="m840-90h40" stroke="#000" stroke-width="2" fill="none"/>
  <path id="line406" d="m860-100v30" stroke="#000" stroke-width="2" fill="none"/>
  <path id="line408" d="m860-70-20 30" stroke="#000" stroke-width="2" fill="none"/>
  <path id="line410" d="m860-70 20 30" stroke="#000" stroke-width="2" fill="none"/>
 </g>
 <g id="g412" transform="translate(-1 -.68670)">
  <g id="g414">
   <path id="ellipse416" fill="#fff" d="m720 0c0 11.046-8.9543 20-20 20s-20-8.9543-20-20 8.9543-20 20-20 20 8.9543 20 20z"/>
   <path id="ellipse418" d="m720 0c0 11.046-8.9543 20-20 20s-20-8.9543-20-20 8.9543-20 20-20 20 8.9543 20 20z" stroke="#000" stroke-width="2" fill="none"/>
  </g>
  <path id="line420" d="m680 30h40" stroke="#000" stroke-width="2" fill="none"/>
  <path id="line422" d="m700 20v30" stroke="#000" stroke-width="2" fill="none"/>
  <path id="line424" d="m700 50-20 30" stroke="#000" stroke-width="2" fill="none"/>
  <path id="line426" d="m700 50 20 30" stroke="#000" stroke-width="2" fill="none"/>
 </g>
 <g id="g428" transform="translate(-1 -.68670)">
  <g id="g430">
   <path id="ellipse432" fill="#fff" d="m720 440c0 11.046-8.9543 20-20 20s-20-8.9543-20-20 8.9543-20 20-20 20 8.9543 20 20z"/>
   <path id="ellipse434" d="m720 440c0 11.046-8.9543 20-20 20s-20-8.9543-20-20 8.9543-20 20-20 20 8.9543 20 20z" stroke="#000" stroke-width="2" fill="none"/>
  </g>
  <path id="line436" d="m680 470h40" stroke="#000" stroke-width="2" fill="none"/>
  <path id="line438" d="m700 460v30" stroke="#000" stroke-width="2" fill="none"/>
  <path id="line440" d="m700 490-20 30" stroke="#000" stroke-width="2" fill="none"/>
  <path id="line442" d="m700 490 20 30" stroke="#000" stroke-width="2" fill="none"/>
 </g>
 <g id="g444" transform="translate(-1 -.68670)">
  <g id="g446">
   <path id="ellipse448" fill="#fff" d="m720 300c0 11.046-8.9543 20-20 20s-20-8.9543-20-20 8.9543-20 20-20 20 8.9543 20 20z"/>
   <path id="ellipse450" d="m720 300c0 11.046-8.9543 20-20 20s-20-8.9543-20-20 8.9543-20 20-20 20 8.9543 20 20z" stroke="#000" stroke-width="2" fill="none"/>
  </g>
  <path id="line452" d="m680 330h40" stroke="#000" stroke-width="2" fill="none"/>
  <path id="line454" d="m700 320v30" stroke="#000" stroke-width="2" fill="none"/>
  <path id="line456" d="m700 350-20 30" stroke="#000" stroke-width="2" fill="none"/>
  <path id="line458" d="m700 350 20 30" stroke="#000" stroke-width="2" fill="none"/>
 </g>
 <g id="g460" transform="translate(-1 -.68670)">
  <g id="g462">
   <path id="ellipse464" fill="#fff" d="m560 320c0 11.046-8.9543 20-20 20s-20-8.9543-20-20 8.9543-20 20-20 20 8.9543 20 20z"/>
   <path id="ellipse466" d="m560 320c0 11.046-8.9543 20-20 20s-20-8.9543-20-20 8.9543-20 20-20 20 8.9543 20 20z" stroke="#000" stroke-width="2" fill="none"/>
  </g>
  <path id="line468" d="m520 350h40" stroke="#000" stroke-width="2" fill="none"/>
  <path id="line470" d="m540 340v30" stroke="#000" stroke-width="2" fill="none"/>
  <path id="line472" d="m540 370-20 30" stroke="#000" stroke-width="2" fill="none"/>
  <path id="line474" d="m540 370 20 30" stroke="#000" stroke-width="2" fill="none"/>
 </g>
</svg>
