<?xml version="1.0" encoding="UTF-8" standalone="no"?>
<!-- Created with Inkscape (http://www.inkscape.org/) -->

<svg
   xmlns:dc="http://purl.org/dc/elements/1.1/"
   xmlns:cc="http://creativecommons.org/ns#"
   xmlns:rdf="http://www.w3.org/1999/02/22-rdf-syntax-ns#"
   xmlns:svg="http://www.w3.org/2000/svg"
   xmlns="http://www.w3.org/2000/svg"
   xmlns:sodipodi="http://sodipodi.sourceforge.net/DTD/sodipodi-0.dtd"
   xmlns:inkscape="http://www.inkscape.org/namespaces/inkscape"
   version="1.1"
   width="422.45514"
   height="267.00909"
   viewBox="216 77 223.54919 135.64062"
   id="svg2"
   inkscape:version="0.48.4 r9939"
   sodipodi:docname="indexelo1.svg">
  <sodipodi:namedview
     pagecolor="#ffffff"
     bordercolor="#666666"
     borderopacity="1"
     objecttolerance="10"
     gridtolerance="10"
     guidetolerance="10"
     inkscape:pageopacity="0"
     inkscape:pageshadow="2"
     inkscape:window-width="640"
     inkscape:window-height="480"
     id="namedview81"
     showgrid="false"
     inkscape:zoom="0.83255555"
     inkscape:cx="209.85671"
     inkscape:cy="135.73388"
     inkscape:window-x="0"
     inkscape:window-y="25"
     inkscape:window-maximized="0"
     inkscape:current-layer="svg2" />
  <metadata
     id="metadata160">
    <rdf:RDF>
      <cc:Work
         rdf:about="">
        <dc:format>image/svg+xml</dc:format>
        <dc:type
           rdf:resource="http://purl.org/dc/dcmitype/StillImage" />
      </cc:Work>
    </rdf:RDF>
  </metadata>
  <defs
     id="defs158" />
  <g
     id="g4"
     transform="translate(-1.4508197,-5.5335319)">
    <path
       style="fill:#ffff00"
       d="m 320,100 120,0 0,20 -120,0 z"
       id="rect6" />
    <path
       style="fill:none;stroke:#000000;stroke-width:2"
       d="m 320,100 120,0 0,20 -120,0 z"
       id="rect8" />
  </g>
  <g
     id="g10"
     transform="translate(-1.4508197,-5.5335319)">
    <path
       style="fill:#ffff00"
       d="m 320,120 120,0 0,20 -120,0 z"
       id="rect12" />
    <path
       style="fill:none;stroke:#000000;stroke-width:2"
       d="m 320,120 120,0 0,20 -120,0 z"
       id="rect14" />
  </g>
  <g
     id="g16"
     transform="translate(-1.4508197,-5.5335319)">
    <path
       style="fill:#ffff00"
       d="m 320,140 120,0 0,20 -120,0 z"
       id="rect18" />
    <path
       style="fill:none;stroke:#000000;stroke-width:2"
       d="m 320,140 120,0 0,20 -120,0 z"
       id="rect20" />
  </g>
  <g
     id="g22"
     transform="translate(-1.4508197,-5.5335319)">
    <path
       style="fill:none;stroke:#000000;stroke-width:2"
       d="m 260,110 53.26401,0"
       id="line24" />
    <path
       style="fill:#000000"
       d="m 313.264,110 -1.5,-3 6,3 -6,3 z"
       id="polygon26" />
    <path
       style="fill:none;stroke:#000000;stroke-width:2"
       d="m 313.264,110 -1.5,-3 6,3 -6,3 z"
       id="polygon28" />
  </g>
  <g
     id="g30"
     transform="translate(-1.4508197,-5.5335319)">
    <path
       style="fill:none;stroke:#000000;stroke-width:2"
       d="m 260,130 53.26401,0"
       id="line32" />
    <path
       style="fill:#000000"
       d="m 313.264,130 -1.5,-3 6,3 -6,3 z"
       id="polygon34" />
    <path
       style="fill:none;stroke:#000000;stroke-width:2"
       d="m 313.264,130 -1.5,-3 6,3 -6,3 z"
       id="polygon36" />
  </g>
  <g
     id="g38"
     transform="translate(-1.4508197,-5.5335319)">
    <path
       style="fill:none;stroke:#000000;stroke-width:2"
       d="m 260,150 53.26401,0"
       id="line40" />
    <path
       style="fill:#000000"
       d="m 313.264,150 -1.5,-3 6,3 -6,3 z"
       id="polygon42" />
    <path
       style="fill:none;stroke:#000000;stroke-width:2"
       d="m 313.264,150 -1.5,-3 6,3 -6,3 z"
       id="polygon44" />
  </g>
  <g
     id="g46"
     transform="translate(-1.4508197,-5.5335319)">
    <path
       style="fill:#ffff00"
       d="m 320,160 120,0 0,20 -120,0 z"
       id="rect48" />
    <path
       style="fill:none;stroke:#000000;stroke-width:2"
       d="m 320,160 120,0 0,20 -120,0 z"
       id="rect50" />
  </g>
  <g
     id="g52"
     transform="translate(-1.4508197,-5.5335319)">
    <path
       style="fill:#ffff00"
       d="m 320,180 120,0 0,20 -120,0 z"
       id="rect54" />
    <path
       style="fill:none;stroke:#000000;stroke-width:2"
       d="m 320,180 120,0 0,20 -120,0 z"
       id="rect56" />
  </g>
  <g
     id="g58"
     transform="translate(-1.4508197,-5.5335319)">
    <path
       style="fill:#ffff00"
       d="m 320,200 120,0 0,20 -120,0 z"
       id="rect60" />
    <path
       style="fill:none;stroke:#000000;stroke-width:2"
       d="m 320,200 120,0 0,20 -120,0 z"
       id="rect62" />
  </g>
  <g
     id="g64"
     transform="translate(-1.4508197,-5.5335319)">
    <path
       style="fill:none;stroke:#000000;stroke-width:2"
       d="m 260,170 53.26401,0"
       id="line66" />
    <path
       style="fill:#000000"
       d="m 313.264,170 -1.5,-3 6,3 -6,3 z"
       id="polygon68" />
    <path
       style="fill:none;stroke:#000000;stroke-width:2"
       d="m 313.264,170 -1.5,-3 6,3 -6,3 z"
       id="polygon70" />
  </g>
  <g
     id="g72"
     transform="translate(-1.4508197,-5.5335319)">
    <path
       style="fill:none;stroke:#000000;stroke-width:2"
       d="m 260,190 53.26401,0"
       id="line74" />
    <path
       style="fill:#000000"
       d="m 313.264,190 -1.5,-3 6,3 -6,3 z"
       id="polygon76" />
    <path
       style="fill:none;stroke:#000000;stroke-width:2"
       d="m 313.264,190 -1.5,-3 6,3 -6,3 z"
       id="polygon78" />
  </g>
  <g
     id="g80"
     transform="translate(-1.4508197,-5.5335319)">
    <path
       style="fill:none;stroke:#000000;stroke-width:2"
       d="m 260,210 53.26401,0"
       id="line82" />
    <path
       style="fill:#000000"
       d="m 313.264,210 -1.5,-3 6,3 -6,3 z"
       id="polygon84" />
    <path
       style="fill:none;stroke:#000000;stroke-width:2"
       d="m 313.264,210 -1.5,-3 6,3 -6,3 z"
       id="polygon86" />
  </g>
  <g
     style="font-size:13.54669952px;font-style:normal;font-weight:normal;text-anchor:middle;fill:#000000;font-family:sans-serif"
     id="text88">
    <path
       d="m 215.99999,77.058118 1.21709,0 0,7.408351 -1.21709,0 0,-7.408351 m 0,-2.883966 1.21709,0 0,1.541202 -1.21709,0 0,-1.541202"
       style=""
       id="path3089" />
    <path
       d="m 225.91528,79.995 0,4.471469 -1.21709,0 0,-4.431782 c 0,-0.701142 -0.13671,-1.2259 -0.4101,-1.574274 -0.27341,-0.348363 -0.68352,-0.522547 -1.23032,-0.522554 -0.65705,7e-6 -1.1752,0.209469 -1.55443,0.628387 -0.37924,0.41893 -0.56886,0.98999 -0.56885,1.713181 l 0,4.187042 -1.22371,0 0,-7.408351 1.22371,0 0,1.15094 c 0.29104,-0.445377 0.63279,-0.778311 1.02526,-0.998805 0.39687,-0.220479 0.85328,-0.330722 1.36922,-0.33073 0.85107,8e-6 1.49489,0.264592 1.93146,0.793752 0.43656,0.524765 0.65484,1.298672 0.65485,2.321725"
       style=""
       id="path3091" />
    <path
       d="m 233.23103,78.182599 0,-4.008447 1.21708,0 0,10.292317 -1.21708,0 0,-1.111253 c -0.25577,0.440974 -0.57989,0.769499 -0.97235,0.985575 -0.38806,0.211668 -0.85549,0.317501 -1.4023,0.317501 -0.89517,0 -1.62498,-0.357188 -2.18943,-1.071565 -0.56003,-0.714375 -0.84005,-1.653647 -0.84005,-2.817819 0,-1.164165 0.28002,-2.103437 0.84005,-2.81782 0.56445,-0.714369 1.29426,-1.071557 2.18943,-1.071565 0.54681,8e-6 1.01424,0.108046 1.4023,0.324116 0.39246,0.211674 0.71658,0.537994 0.97235,0.97896 m -4.14736,2.586309 c 0,0.895178 0.183,1.59853 0.54901,2.110057 0.37042,0.50712 0.87754,0.76068 1.52136,0.760679 0.64382,10e-7 1.15094,-0.253559 1.52136,-0.760679 0.37041,-0.511527 0.55562,-1.214879 0.55563,-2.110057 -1e-5,-0.895171 -0.18522,-1.596318 -0.55563,-2.103443 -0.37042,-0.511523 -0.87754,-0.767287 -1.52136,-0.767293 -0.64382,6e-6 -1.15094,0.25577 -1.52136,0.767293 -0.36601,0.507125 -0.54901,1.208272 -0.54901,2.103443"
       style=""
       id="path3093" />
    <path
       d="m 243.29183,80.458022 0,0.595314 -5.59595,0 c 0.0529,0.837851 0.30427,1.477262 0.75407,1.918233 0.45419,0.436565 1.08479,0.654847 1.89177,0.654846 0.46743,1e-6 0.91942,-0.05733 1.35599,-0.17198 0.44097,-0.114652 0.87753,-0.286631 1.30969,-0.515939 l 0,1.150941 c -0.43657,0.185209 -0.88415,0.32632 -1.34276,0.423334 -0.45862,0.09701 -0.92384,0.145521 -1.39568,0.145521 -1.18181,0 -2.11888,-0.343959 -2.8112,-1.031877 -0.68792,-0.687917 -1.03188,-1.61837 -1.03188,-2.791361 0,-1.212672 0.32632,-2.173993 0.97896,-2.883966 0.65705,-0.714369 1.5412,-1.071557 2.65245,-1.071565 0.9966,8e-6 1.78373,0.321918 2.36142,0.965732 0.58207,0.639417 0.87311,1.510338 0.87312,2.612767 m -1.21708,-0.357189 c -0.009,-0.665864 -0.19624,-1.197237 -0.56225,-1.594118 -0.3616,-0.39687 -0.84226,-0.595308 -1.44198,-0.595314 -0.6791,6e-6 -1.2237,0.19183 -1.6338,0.57547 -0.4057,0.383652 -0.63942,0.923844 -0.70115,1.620577 l 4.33918,-0.0066"
       style=""
       id="path3095" />
    <path
       d="m 251.20951,77.058118 -2.67892,3.604956 2.81782,3.803395 -1.43537,0 -2.15636,-2.910424 -2.15635,2.910424 -1.43537,0 2.87735,-3.876155 -2.63261,-3.532196 1.43537,0 1.96453,2.639225 1.96454,-2.639225 1.43537,0"
       style=""
       id="path3097" />
    <path
       d="m 252.95576,74.174152 2.80459,0 0,0.945888 -1.5875,0 0,10.186483 1.5875,0 0,0.945888 -2.80459,0 0,-12.078259"
       style=""
       id="path3099" />
    <path
       d="m 261.20417,74.174152 0,12.078259 -2.80459,0 0,-0.945888 1.58089,0 0,-10.186483 -1.58089,0 0,-0.945888 2.80459,0"
       style=""
       id="path3101" />
  </g>
  <g
     style="font-size:13.54669952px;font-style:normal;font-weight:normal;text-anchor:middle;fill:#000000;font-family:sans-serif"
     id="text92">
    <path
       d="m 356.75286,79.995 0,4.471469 -1.21708,0 0,-4.431782 c -10e-6,-0.701142 -0.13671,-1.2259 -0.41011,-1.574274 -0.27341,-0.348363 -0.68351,-0.522547 -1.23031,-0.522554 -0.65706,7e-6 -1.1752,0.209469 -1.55443,0.628387 -0.37924,0.41893 -0.56886,0.98999 -0.56886,1.713181 l 0,4.187042 -1.2237,0 0,-7.408351 1.2237,0 0,1.15094 c 0.29104,-0.445377 0.63279,-0.778311 1.02526,-0.998805 0.39688,-0.220479 0.85328,-0.330722 1.36923,-0.33073 0.85107,8e-6 1.49489,0.264592 1.93146,0.793752 0.43655,0.524765 0.65484,1.298672 0.65484,2.321725"
       style=""
       id="path3104" />
    <path
       d="m 365.53044,80.458022 0,0.595314 -5.59595,0 c 0.0529,0.837851 0.30426,1.477262 0.75406,1.918233 0.4542,0.436565 1.08479,0.654847 1.89178,0.654846 0.46742,1e-6 0.91942,-0.05733 1.35599,-0.17198 0.44096,-0.114652 0.87753,-0.286631 1.30969,-0.515939 l 0,1.150941 c -0.43657,0.185209 -0.88416,0.32632 -1.34276,0.423334 -0.45862,0.09701 -0.92385,0.145521 -1.39569,0.145521 -1.18181,0 -2.11887,-0.343959 -2.8112,-1.031877 -0.68792,-0.687917 -1.03188,-1.61837 -1.03188,-2.791361 0,-1.212672 0.32632,-2.173993 0.97896,-2.883966 0.65705,-0.714369 1.5412,-1.071557 2.65246,-1.071565 0.99659,8e-6 1.78373,0.321918 2.36141,0.965732 0.58208,0.639417 0.87312,1.510338 0.87313,2.612767 m -1.21709,-0.357189 c -0.009,-0.665864 -0.19624,-1.197237 -0.56224,-1.594118 -0.3616,-0.39687 -0.84226,-0.595308 -1.44198,-0.595314 -0.67911,6e-6 -1.22371,0.19183 -1.63381,0.57547 -0.4057,0.383652 -0.63941,0.923844 -0.70115,1.620577 l 4.33918,-0.0066"
       style=""
       id="path3106" />
    <path
       d="m 366.65492,77.058118 1.28985,0 2.31511,6.217723 2.31511,-6.217723 1.28984,0 -2.77813,7.408351 -1.65365,0 -2.77813,-7.408351"
       style=""
       id="path3108" />
    <path
       d="m 380.26776,77.276399 0,1.150941 c -0.34396,-0.176384 -0.70115,-0.308675 -1.07156,-0.396876 -0.37042,-0.08819 -0.75407,-0.132286 -1.15094,-0.132292 -0.60414,6e-6 -1.05834,0.09261 -1.36261,0.277813 -0.29986,0.185215 -0.44979,0.463028 -0.44979,0.833439 0,0.282228 0.10803,0.50492 0.32411,0.668075 0.21608,0.158755 0.65044,0.310891 1.30308,0.456407 l 0.41672,0.09261 c 0.8643,0.185212 1.47725,0.447591 1.83886,0.787137 0.366,0.335143 0.549,0.804779 0.54901,1.40891 -1e-5,0.687919 -0.27341,1.232521 -0.82021,1.633806 -0.5424,0.401285 -1.28985,0.601928 -2.24235,0.601928 -0.39688,0 -0.81139,-0.03969 -1.24355,-0.119063 -0.42774,-0.07497 -0.87974,-0.189618 -1.35599,-0.343959 l 0,-1.256774 c 0.44979,0.233717 0.89297,0.410107 1.32954,0.529168 0.43656,0.114654 0.86871,0.171981 1.29646,0.17198 0.57326,10e-7 1.01423,-0.09701 1.32292,-0.291042 0.30867,-0.198437 0.46301,-0.47625 0.46302,-0.83344 -1e-5,-0.330728 -0.11245,-0.584287 -0.33734,-0.760679 -0.2205,-0.176386 -0.70777,-0.346161 -1.46183,-0.509324 l -0.42334,-0.09922 c -0.75406,-0.158747 -1.29866,-0.401282 -1.6338,-0.727606 -0.33514,-0.330726 -0.50271,-0.782723 -0.50271,-1.355993 0,-0.696732 0.24694,-1.234718 0.74083,-1.613962 0.49389,-0.37923 1.19504,-0.568848 2.10345,-0.568856 0.44979,8e-6 0.87312,0.03308 1.27,0.09922 0.39687,0.06615 0.76288,0.165373 1.09802,0.297657"
       style=""
       id="path3110" />
    <path
       d="m 385.48007,77.911401 c -0.65265,6e-6 -1.16858,0.255771 -1.54782,0.767293 -0.37924,0.507125 -0.56886,1.203862 -0.56885,2.090214 -1e-5,0.886359 0.18741,1.585301 0.56224,2.096828 0.37923,0.50712 0.89737,0.76068 1.55443,0.760679 0.64822,1e-6 1.16196,-0.255764 1.5412,-0.767294 0.37923,-0.511527 0.56885,-1.208264 0.56885,-2.090213 0,-0.877533 -0.18962,-1.572065 -0.56885,-2.083599 -0.37924,-0.515932 -0.89298,-0.773902 -1.5412,-0.773908 m 0,-1.031878 c 1.05833,8e-6 1.88956,0.343967 2.4937,1.031878 0.60413,0.687924 0.90619,1.640425 0.9062,2.857507 -1e-5,1.212679 -0.30207,2.16518 -0.9062,2.857507 -0.60414,0.687918 -1.43537,1.031877 -2.4937,1.031877 -1.06275,0 -1.89619,-0.343959 -2.50032,-1.031877 -0.59973,-0.692327 -0.89959,-1.644828 -0.89959,-2.857507 0,-1.217082 0.29986,-2.169583 0.89959,-2.857507 0.60413,-0.687911 1.43757,-1.03187 2.50032,-1.031878"
       style=""
       id="path3112" />
    <path
       d="m 395.18369,78.195829 c -0.13671,-0.07937 -0.28664,-0.136696 -0.4498,-0.17198 -0.15875,-0.03968 -0.33514,-0.05952 -0.52917,-0.05953 -0.68792,6e-6 -1.21709,0.224902 -1.5875,0.674689 -0.36601,0.445388 -0.54901,1.087004 -0.54901,1.924848 l 0,3.902614 -1.2237,0 0,-7.408351 1.2237,0 0,1.15094 c 0.25576,-0.449786 0.5887,-0.782721 0.9988,-0.998805 0.4101,-0.220479 0.9084,-0.330722 1.4949,-0.33073 0.0838,8e-6 0.17639,0.0066 0.27782,0.01984 0.10141,0.0088 0.21386,0.02426 0.33734,0.0463 l 0.007,1.25016"
       style=""
       id="path3114" />
    <path
       d="m 396.36108,74.174152 2.80459,0 0,0.945888 -1.5875,0 0,10.186483 1.5875,0 0,0.945888 -2.80459,0 0,-12.078259"
       style=""
       id="path3116" />
    <path
       d="m 404.60949,74.174152 0,12.078259 -2.80459,0 0,-0.945888 1.58089,0 0,-10.186483 -1.58089,0 0,-0.945888 2.80459,0"
       style=""
       id="path3118" />
  </g>
  <g
     id="g96"
     transform="translate(-1.4508197,-5.5335319)">
    <path
       style="fill:#7babe3"
       d="m 220,100 40,0 0,20 -40,0 z"
       id="rect98" />
    <path
       style="fill:none;stroke:#000000;stroke-width:2"
       d="m 220,100 40,0 0,20 -40,0 z"
       id="rect100" />
  </g>
  <g
     id="g102"
     transform="translate(-1.4508197,-5.5335319)">
    <path
       style="fill:#7babe3"
       d="m 220,120 40,0 0,20 -40,0 z"
       id="rect104" />
    <path
       style="fill:none;stroke:#000000;stroke-width:2"
       d="m 220,120 40,0 0,20 -40,0 z"
       id="rect106" />
  </g>
  <g
     id="g108"
     transform="translate(-1.4508197,-5.5335319)">
    <path
       style="fill:#7babe3"
       d="m 220,140 40,0 0,20 -40,0 z"
       id="rect110" />
    <path
       style="fill:none;stroke:#000000;stroke-width:2"
       d="m 220,140 40,0 0,20 -40,0 z"
       id="rect112" />
  </g>
  <g
     id="g114"
     transform="translate(-1.4508197,-5.5335319)">
    <path
       style="fill:#7babe3"
       d="m 220,160 40,0 0,20 -40,0 z"
       id="rect116" />
    <path
       style="fill:none;stroke:#000000;stroke-width:2"
       d="m 220,160 40,0 0,20 -40,0 z"
       id="rect118" />
  </g>
  <g
     id="g120"
     transform="translate(-1.4508197,-5.5335319)">
    <path
       style="fill:#7babe3"
       d="m 220,180 40,0 0,20 -40,0 z"
       id="rect122" />
    <path
       style="fill:none;stroke:#000000;stroke-width:2"
       d="m 220,180 40,0 0,20 -40,0 z"
       id="rect124" />
  </g>
  <g
     id="g126"
     transform="translate(-1.4508197,-5.5335319)">
    <path
       style="fill:#7babe3"
       d="m 220,200 40,0 0,20 -40,0 z"
       id="rect128" />
    <path
       style="fill:none;stroke:#000000;stroke-width:2"
       d="m 220,200 40,0 0,20 -40,0 z"
       id="rect130" />
  </g>
  <g
     style="font-size:13.54669952px;font-style:normal;font-weight:normal;text-anchor:middle;fill:#000000;font-family:sans-serif"
     id="text132">
    <path
       d="m 238.54255,100.17062 c -0.68792,1e-5 -1.20607,0.33956 -1.55443,1.01865 -0.34396,0.67469 -0.51594,1.69114 -0.51594,3.04933 0,1.35379 0.17198,2.37023 0.51594,3.04933 0.34836,0.67469 0.86651,1.01203 1.55443,1.01203 0.69232,0 1.21047,-0.33734 1.55443,-1.01203 0.34836,-0.6791 0.52255,-1.69554 0.52255,-3.04933 0,-1.35819 -0.17419,-2.37464 -0.52255,-3.04933 -0.34396,-0.67909 -0.86211,-1.01864 -1.55443,-1.01865 m 0,-1.058338 c 1.10684,1e-5 1.9513,0.438778 2.53339,1.316308 0.58649,0.87313 0.87973,2.14313 0.87974,3.81001 -1e-5,1.66247 -0.29325,2.93247 -0.87974,3.81001 -0.58209,0.87312 -1.42655,1.30969 -2.53339,1.30969 -1.10685,0 -1.95351,-0.43657 -2.54001,-1.30969 -0.58208,-0.87754 -0.87312,-2.14754 -0.87312,-3.81001 0,-1.66688 0.29104,-2.93688 0.87312,-3.81001 0.5865,-0.87753 1.43316,-1.316298 2.54001,-1.316308"
       style=""
       id="path3133" />
  </g>
  <g
     style="font-size:13.54669952px;font-style:normal;font-weight:normal;text-anchor:middle;fill:#000000;font-family:sans-serif"
     id="text136">
    <path
       d="m 235.91655,128.04198 2.18282,0 0,-7.53403 -2.37464,0.47625 0,-1.21709 2.36141,-0.47625 1.33615,0 0,8.75112 2.18282,0 0,1.12448 -5.68856,0 0,-1.12448"
       style=""
       id="path3136" />
  </g>
  <g
     style="font-size:13.54669952px;font-style:normal;font-weight:normal;text-anchor:middle;fill:#000000;font-family:sans-serif"
     id="text140">
    <path
       d="m 236.83598,148.04198 4.6633,0 0,1.12448 -6.27065,0 0,-1.12448 c 0.50712,-0.52476 1.19725,-1.22811 2.07037,-2.11006 0.87754,-0.88635 1.42875,-1.45741 1.65365,-1.71318 0.42774,-0.48066 0.7254,-0.88635 0.89298,-1.21709 0.17197,-0.33513 0.25796,-0.66366 0.25796,-0.98557 0,-0.52475 -0.18521,-0.9525 -0.55562,-1.28324 -0.36601,-0.33072 -0.84447,-0.49608 -1.43537,-0.49609 -0.41893,1e-5 -0.86211,0.0728 -1.32953,0.21828 -0.46303,0.14553 -0.95912,0.36602 -1.48829,0.66146 l 0,-1.34938 c 0.53799,-0.21606 1.0407,-0.37922 1.50813,-0.48948 0.46743,-0.11023 0.89517,-0.16535 1.28323,-0.16536 1.02306,1e-5 1.83885,0.25577 2.4474,0.76729 0.60854,0.51154 0.91281,1.19505 0.91282,2.05053 -1e-5,0.4057 -0.0772,0.79155 -0.23151,1.15755 -0.14994,0.36161 -0.42555,0.78935 -0.82683,1.28323 -0.11025,0.12789 -0.46082,0.49831 -1.05172,1.11126 -0.59091,0.60854 -1.42435,1.46182 -2.50032,2.55985"
       style=""
       id="path3139" />
  </g>
  <g
     style="font-size:13.54669952px;font-style:normal;font-weight:normal;text-anchor:middle;fill:#000000;font-family:sans-serif"
     id="text144">
    <path
       d="m 239.73318,163.84171 c 0.6394,0.1367 1.1377,0.42113 1.4949,0.85328 0.36159,0.43216 0.54239,0.96573 0.54239,1.60073 0,0.97455 -0.33514,1.72862 -1.00542,2.26219 -0.67028,0.53358 -1.62278,0.80037 -2.8575,0.80037 -0.41452,0 -0.84226,-0.0419 -1.28323,-0.12568 -0.43657,-0.0794 -0.88857,-0.20064 -1.356,-0.3638 l 0,-1.28985 c 0.37042,0.21608 0.77611,0.37924 1.21709,0.48948 0.44097,0.11025 0.90179,0.16537 1.38245,0.16537 0.83784,0 1.47505,-0.16536 1.91162,-0.4961 0.44097,-0.33072 0.66145,-0.81138 0.66146,-1.44198 -1e-5,-0.58208 -0.20506,-1.03628 -0.61516,-1.36261 -0.4057,-0.33072 -0.97235,-0.49609 -1.69995,-0.49609 l -1.15094,0 0,-1.09802 1.20386,0 c 0.65704,0 1.15975,-0.13009 1.50812,-0.39027 0.34837,-0.26457 0.52255,-0.64381 0.52256,-1.13771 -1e-5,-0.50711 -0.18081,-0.89516 -0.5424,-1.16417 -0.35719,-0.27339 -0.87093,-0.41009 -1.5412,-0.4101 -0.36601,1e-5 -0.75848,0.0397 -1.1774,0.11906 -0.41893,0.0794 -0.87974,0.20286 -1.38245,0.37042 l 0,-1.19063 c 0.50712,-0.1411 0.98116,-0.24693 1.42214,-0.3175 0.44538,-0.0705 0.8643,-0.10582 1.25677,-0.10583 1.01424,1e-5 1.81681,0.23152 2.40772,0.69453 0.59089,0.45862 0.88635,1.08039 0.88635,1.86532 0,0.54681 -0.15655,1.00983 -0.46963,1.38906 -0.3131,0.37484 -0.75848,0.63501 -1.33615,0.78053"
       style=""
       id="path3142" />
  </g>
  <g
     style="font-size:13.54669952px;font-style:normal;font-weight:normal;text-anchor:middle;fill:#000000;font-family:sans-serif"
     id="text148">
    <path
       d="m 239.35614,180.45503 -3.37344,5.27184 3.37344,0 0,-5.27184 m -0.35057,-1.16417 1.68011,0 0,6.43601 1.40891,0 0,1.11125 -1.40891,0 0,2.32834 -1.32954,0 0,-2.32834 -4.45824,0 0,-1.28985 4.10767,-6.25741"
       style=""
       id="path3145" />
  </g>
  <g
     style="font-size:13.54669952px;font-style:normal;font-weight:normal;text-anchor:middle;fill:#000000;font-family:sans-serif"
     id="text152">
    <path
       d="m 235.69827,199.29086 5.24538,0 0,1.12448 -4.02168,0 0,2.42095 c 0.19403,-0.0661 0.38806,-0.11465 0.58209,-0.14552 0.19402,-0.0353 0.38805,-0.0529 0.58208,-0.0529 1.10243,1e-5 1.97556,0.30207 2.61938,0.9062 0.64382,0.60414 0.96573,1.42214 0.96573,2.45402 0,1.06274 -0.33073,1.88957 -0.99219,2.48047 -0.66146,0.58649 -1.59412,0.87974 -2.79797,0.87974 -0.41452,0 -0.83785,-0.0353 -1.27,-0.10583 -0.42775,-0.0706 -0.87093,-0.17639 -1.32954,-0.3175 l 0,-1.34277 c 0.39688,0.21608 0.80698,0.37704 1.23032,0.48287 0.42333,0.10583 0.87092,0.15875 1.34276,0.15875 0.76288,0 1.36701,-0.20064 1.8124,-0.60193 0.44538,-0.40128 0.66807,-0.94588 0.66808,-1.6338 -10e-6,-0.68792 -0.2227,-1.23252 -0.66808,-1.63381 -0.44539,-0.40128 -1.04952,-0.60192 -1.8124,-0.60193 -0.35719,1e-5 -0.71438,0.0397 -1.07156,0.11906 -0.35279,0.0794 -0.71438,0.20286 -1.0848,0.37042 l 0,-4.96095"
       style=""
       id="path3148" />
  </g>
</svg>
