<?xml version="1.0" encoding="UTF-8" standalone="no"?>
<!-- Created with Inkscape (http://www.inkscape.org/) -->
<svg id="svg2" xmlns:rdf="http://www.w3.org/1999/02/22-rdf-syntax-ns#" xmlns="http://www.w3.org/2000/svg" height="594.54" width="742.25" version="1.1" xmlns:cc="http://creativecommons.org/ns#" xmlns:dc="http://purl.org/dc/elements/1.1/" viewBox="198 -2 402.00001 318.80399">
 <metadata id="metadata106">
  <rdf:RDF>
   <cc:Work rdf:about="">
    <dc:format>image/svg+xml</dc:format>
    <dc:type rdf:resource="http://purl.org/dc/dcmitype/StillImage"/>
   </cc:Work>
  </rdf:RDF>
 </metadata>
 <path id="rect4" d="m199-2.598h400v320h-400z" stroke="#000" stroke-width="2" fill="none"/>
 <g id="g6" transform="translate(-1 -2.598)">
  <path id="rect8" fill="#fff" d="m220 20h80v40h-80z"/>
  <path id="rect10" d="m220 20h80v40h-80z" stroke="#000" stroke-width="2" fill="none"/>
 </g>
 <g id="g12" transform="translate(-1 -2.598)">
  <path id="rect14" fill="#fff" d="m420 20h80v40h-80z"/>
  <path id="rect16" d="m420 20h80v40h-80z" stroke="#000" stroke-width="2" fill="none"/>
 </g>
 <g id="g18" transform="translate(-1 -2.598)">
  <path id="polygon20" fill="#fff" d="m340 120h-40-40l20 40h80l20-40z"/>
  <path id="polygon22" d="m340 120h-40-40l20 40h80l20-40z" stroke="#000" stroke-width="2" fill="none"/>
 </g>
 <g id="g24" transform="translate(-1 -2.598)">
  <path id="rect26" fill="#fff" d="m280 260h80v40h-80z"/>
  <path id="rect28" d="m280 260h80v40h-80z" stroke="#000" stroke-width="2" fill="none"/>
 </g>
 <g id="g30" stroke="#000" stroke-width="2" fill="none" transform="translate(-1 -2.598)">
  <path id="line32" d="m419.18 40h-113.89"/>
  <path id="polyline34" d="m313.06 35-10 5 10 5"/>
 </g>
 <g id="g36" stroke="#000" stroke-width="2" fill="none" transform="translate(-1 -2.598)">
  <path id="polyline38" d="m260 60v30h40v25.528"/>
  <path id="polyline40" d="m295 107.76 5 10 5-10"/>
 </g>
 <g id="g42" stroke="#000" stroke-width="2" fill="none" transform="translate(-1 -2.598)">
  <path id="polyline44" d="m440 60v30h-100v25.528"/>
  <path id="polyline46" d="m335 107.76 5 10 5-10"/>
 </g>
 <g id="text48">
  <path id="path3047" style="" d="m284.42 135.47c0.45639-0.82019 1.0021-1.4254 1.6371-1.8157 0.63498-0.39025 1.3824-0.58538 2.2423-0.58539 1.1575 0.00001 2.0505 0.40681 2.6789 1.2204 0.62836 0.80699 0.94256 1.9579 0.94257 3.4528v6.7072h-1.8355v-6.6477c-0.00002-1.0649-0.18853-1.8554-0.56555-2.3713-0.37705-0.51593-0.95251-0.7739-1.7264-0.77391-0.94589 0.00001-1.6933 0.3142-2.2423 0.94258-0.54902 0.62839-0.82353 1.485-0.82352 2.5698v6.2806h-1.8355v-6.6477c-0.00001-1.0716-0.18853-1.862-0.56555-2.3713-0.37704-0.51593-0.95912-0.7739-1.7462-0.77391-0.93266 0.00001-1.6735 0.31751-2.2225 0.9525-0.54901 0.62839-0.82352 1.4817-0.82352 2.5598v6.2806h-1.8355v-11.112h1.8355v1.7264c0.41672-0.6813 0.91612-1.184 1.4982-1.5081s1.2733-0.48616 2.0737-0.48617c0.80697 0.00001 1.4916 0.20506 2.0538 0.61516 0.56884 0.41011 0.98887 1.0054 1.2601 1.7859"/>
  <path id="path3049" style="" d="m300.62 138.87c-1.4751 0-2.497 0.16867-3.0659 0.50601-0.56886 0.33735-0.85329 0.91282-0.85328 1.7264-0.00001 0.64823 0.21166 1.1642 0.635 1.5478 0.42994 0.37703 1.012 0.56555 1.7462 0.56555 1.012 0 1.8223-0.35719 2.4309-1.0716 0.61514-0.72098 0.92272-1.6768 0.92273-2.8674v-0.40679h-1.8157m3.6413-0.75407v6.3401h-1.8256v-1.6867c-0.41673 0.67469-0.93597 1.1741-1.5577 1.4982-0.62178 0.3175-1.3825 0.47625-2.282 0.47625-1.1377 0-2.0439-0.3175-2.7186-0.9525-0.66807-0.64161-1.0021-1.4982-1.0021-2.5698 0-1.2502 0.41672-2.1927 1.2502-2.8277 0.84005-0.635 2.0902-0.9525 3.7505-0.9525h2.5598v-0.1786c-0.00001-0.84004-0.27782-1.4883-0.83344-1.9447-0.54901-0.46301-1.3229-0.69452-2.3217-0.69453-0.635 0.00001-1.2535 0.0761-1.8554 0.22821-0.60193 0.15214-1.1807 0.38034-1.7363 0.68461v-1.6867c0.66807-0.25796 1.3163-0.44978 1.9447-0.57547 0.62838-0.13228 1.2402-0.19843 1.8356-0.19844 1.6073 0.00001 2.8079 0.41673 3.6016 1.2502 0.79374 0.83344 1.1906 2.0968 1.1906 3.7902"/>
  <path id="path3051" style="" d="m314.48 135.05c-0.20506-0.11905-0.42996-0.20504-0.67469-0.25797-0.23813-0.0595-0.50272-0.0893-0.79375-0.0893-1.0319 0.00001-1.8256 0.33735-2.3812 1.012-0.54902 0.66808-0.82352 1.6305-0.82352 2.8873v5.8539h-1.8355v-11.112h1.8355v1.7264c0.38364-0.67468 0.88305-1.1741 1.4982-1.4982 0.61515-0.33071 1.3626-0.49608 2.2423-0.49609 0.12567 0.00001 0.26458 0.01 0.41672 0.0298 0.15213 0.0132 0.3208 0.0364 0.50601 0.0694l0.01 1.8752"/>
  <path id="path3053" style="" d="m321.46 138.87c-1.475 0-2.497 0.16867-3.0658 0.50601-0.56886 0.33735-0.85329 0.91282-0.85329 1.7264 0 0.64823 0.21167 1.1642 0.635 1.5478 0.42995 0.37703 1.012 0.56555 1.7462 0.56555 1.012 0 1.8223-0.35719 2.4309-1.0716 0.61515-0.72098 0.92273-1.6768 0.92274-2.8674v-0.40679h-1.8157m3.6413-0.75407v6.3401h-1.8256v-1.6867c-0.41673 0.67469-0.93597 1.1741-1.5577 1.4982-0.62177 0.3175-1.3824 0.47625-2.282 0.47625-1.1377 0-2.0439-0.3175-2.7186-0.9525-0.66808-0.64161-1.0021-1.4982-1.0021-2.5698 0-1.2502 0.41672-2.1927 1.2502-2.8277 0.84004-0.635 2.0902-0.9525 3.7505-0.9525h2.5598v-0.1786c-0.00001-0.84004-0.27782-1.4883-0.83344-1.9447-0.54902-0.46301-1.3229-0.69452-2.3217-0.69453-0.635 0.00001-1.2535 0.0761-1.8554 0.22821-0.60193 0.15214-1.1807 0.38034-1.7363 0.68461v-1.6867c0.66807-0.25796 1.3163-0.44978 1.9447-0.57547 0.62838-0.13228 1.2402-0.19843 1.8356-0.19844 1.6073 0.00001 2.8079 0.41673 3.6016 1.2502 0.79374 0.83344 1.1906 2.0968 1.1906 3.7902"/>
  <path id="path3055" style="" d="m336.18 135.03v-6.0127h1.8256v15.438h-1.8256v-1.6669c-0.38366 0.66145-0.86983 1.1542-1.4585 1.4784-0.58209 0.3175-1.2832 0.47625-2.1034 0.47625-1.3428 0-2.4375-0.53578-3.2842-1.6073-0.84005-1.0716-1.2601-2.4805-1.2601-4.2267s0.42002-3.1551 1.2601-4.2267c0.84667-1.0716 1.9414-1.6073 3.2842-1.6073 0.8202 0.00001 1.5213 0.16207 2.1034 0.48617 0.58869 0.31751 1.0749 0.80699 1.4585 1.4684m-6.221 3.8794c0 1.3428 0.2745 2.3978 0.82352 3.1651 0.55562 0.76068 1.3163 1.141 2.282 1.141 0.96572 0 1.7264-0.38034 2.282-1.141 0.55562-0.76729 0.83343-1.8223 0.83344-3.1651-0.00001-1.3428-0.27782-2.3945-0.83344-3.1552-0.55563-0.76729-1.3163-1.1509-2.282-1.1509-0.96573 0.00001-1.7264 0.38365-2.282 1.1509-0.54902 0.76068-0.82352 1.8124-0.82352 3.1552"/>
  <path id="path3057" style="" d="m351.28 138.44v0.89297h-8.3939c0.0794 1.2568 0.45641 2.2159 1.1311 2.8774 0.6813 0.65484 1.6272 0.98226 2.8376 0.98226 0.70114 0 1.3791-0.086 2.034-0.25797 0.66145-0.17197 1.3163-0.42994 1.9645-0.7739v1.7264c-0.65485 0.27782-1.3262 0.48948-2.0141 0.635-0.68793 0.14552-1.3858 0.21828-2.0935 0.21828-1.7727 0-3.1783-0.51593-4.2168-1.5478-1.0319-1.0319-1.5478-2.4276-1.5478-4.187 0-1.819 0.48948-3.261 1.4684-4.3259 0.98557-1.0716 2.3118-1.6073 3.9787-1.6073 1.4949 0.00001 2.6756 0.48288 3.5421 1.4486 0.87312 0.95913 1.3097 2.2655 1.3097 3.9191m-1.8256-0.53578c-0.0132-0.99879-0.29436-1.7958-0.84336-2.3912-0.54241-0.5953-1.2634-0.89296-2.163-0.89297-1.0186 0.00001-1.8356 0.28775-2.4507 0.86321-0.60854 0.57547-0.95911 1.3858-1.0517 2.4309l6.5088-0.01m-1.7562-9.7036h1.9745l-3.2345 3.7306h-1.518l2.7781-3.7306"/>
  <path id="path3059" style="" d="m354.2 129.01h1.8356v9.1182l5.4471-4.7923h2.3316l-5.8936 5.1991 6.1416 5.9134h-2.3812l-5.6456-5.4273v5.4273h-1.8356v-15.438"/>
 </g>
 <g id="g52" stroke="#000" stroke-width="2" fill="none" transform="translate(-1 -2.598)">
  <path id="line54" d="m320 161v93.538"/>
  <path id="polyline56" d="m315 246.77 5 10 5-10"/>
 </g>
 <g id="g58" stroke="#000" stroke-width="2" fill="none" transform="translate(-1 -2.598)">
  <path id="polyline60" d="m360.74 280h99.26v-215.53"/>
  <path id="polyline62" d="m465 72.236-5-10-5 10"/>
 </g>
 <g id="g64" transform="translate(-1 -2.598)">
  <path id="ellipse66" fill="#fff" d="m580 40c0 11.046-8.9543 20-20 20s-20-8.9543-20-20 8.9543-20 20-20 20 8.9543 20 20z"/>
  <path id="ellipse68" d="m580 40c0 11.046-8.9543 20-20 20s-20-8.9543-20-20 8.9543-20 20-20 20 8.9543 20 20z" stroke="#000" stroke-width="2" fill="none"/>
 </g>
 <g id="g70" stroke="#000" stroke-width="2" fill="none" transform="translate(-1 -2.598)">
  <path id="line72" d="m500.82 40h33.71"/>
  <path id="polyline74" d="m526.76 45 10-5-10-5"/>
 </g>
 <g id="text76">
  <path id="path3070" style="" d="m546.17 35.225h12.72v1.6669h-12.72v-1.6669m0 4.0481h12.72v1.6867h-12.72v-1.6867"/>
  <path id="path3072" style="" d="m567.5 30.958c-1.0319 0.000014-1.8091 0.50934-2.3316 1.528-0.51594 1.012-0.77391 2.5367-0.77391 4.574 0 2.0307 0.25797 3.5553 0.77391 4.574 0.52254 1.012 1.2998 1.518 2.3316 1.518 1.0385 0.000001 1.8157-0.50601 2.3316-1.518 0.52254-1.0186 0.78382-2.5433 0.78383-4.574-0.00001-2.0373-0.26129-3.5619-0.78383-4.574-0.51595-1.0186-1.2932-1.528-2.3316-1.528m0-1.5875c1.6602 0.000016 2.9269 0.65817 3.8001 1.9745 0.87972 1.3097 1.3196 3.2147 1.3196 5.715-0.00001 2.4937-0.43988 4.3987-1.3196 5.715-0.87314 1.3097-2.1398 1.9645-3.8001 1.9645-1.6603-0.000001-2.9303-0.65484-3.81-1.9645-0.87313-1.3163-1.3097-3.2213-1.3097-5.715 0-2.5003 0.43656-4.4053 1.3097-5.715 0.87973-1.3163 2.1497-1.9744 3.81-1.9745"/>
 </g>
 <g id="g80" stroke="#000" stroke-width="2" fill="none" transform="translate(-1 -2.598)">
  <path id="line82" d="m560 60.977v54.553"/>
  <path id="polyline84" d="m555 107.76 5 10 5-10"/>
 </g>
 <g id="text86">
  <path id="path3077" style="" d="m225.95 63.463-2.7186 7.372h5.4471l-2.7285-7.372m-1.1311-1.9745h2.2721l5.6455 14.813h-2.0836l-1.3494-3.8001h-6.6774l-1.3494 3.8001h-2.1134l5.6555-14.813"/>
 </g>
 <g id="text90">
  <path id="path3080" style="" d="m489.07 69.228v5.4273h3.2147c1.0782 0.000002 1.8752-0.22159 2.3912-0.66477 0.52254-0.44979 0.78382-1.1344 0.78383-2.0538-0.00001-0.92604-0.26129-1.6073-0.78383-2.0439-0.51594-0.44317-1.313-0.66476-2.3912-0.66476h-3.2147m0-6.092v4.4648h2.9666c0.97895 0.000009 1.7066-0.18189 2.1828-0.5457 0.48285-0.37041 0.72428-0.93265 0.72429-1.6867-0.00001-0.74744-0.24144-1.3064-0.72429-1.6768-0.47626-0.3704-1.2039-0.55561-2.1828-0.55562h-2.9666m-2.0042-1.647h5.1197c1.528 0.000015 2.7054 0.31752 3.5322 0.9525 0.82681 0.63501 1.2402 1.5379 1.2402 2.7087-0.00001 0.90621-0.21167 1.6272-0.635 2.163-0.42334 0.53579-1.0451 0.86983-1.8653 1.0021 0.98556 0.21168 1.7496 0.65485 2.292 1.3295 0.549 0.66808 0.82351 1.5048 0.82352 2.5102-0.00001 1.3229-0.4498 2.3449-1.3494 3.0659-0.8996 0.72099-2.1795 1.0815-3.8398 1.0815h-5.3181v-14.813"/>
 </g>
 <g id="text94">
  <path id="path3083" style="" d="m278.94 237.79h12.531v1.6867h-5.2586v13.127h-2.0141v-13.127h-5.2586v-1.6867"/>
 </g>
 <g id="text98">
  <path id="path3086" style="" d="m528.69 291.25h2.6723v17.502h9.6176v2.249h-12.29v-19.751"/>
  <path id="path3088" style="" d="m543.77 291.25h3.5983l8.7577 16.523v-16.523h2.5929v19.751h-3.5983l-8.7577-16.523v16.523h-2.5929v-19.751"/>
  <path id="path3090" style="" d="m564.04 291.25h2.6723v8.3476l8.8635-8.3476h3.4396l-9.8028 9.2075 10.504 10.544h-3.519l-9.4853-9.5118v9.5118h-2.6723v-19.751"/>
  <path id="path3092" style="" d="m588.35 293.06c-1.9403 0.00001-3.4837 0.72321-4.6302 2.1696-1.1377 1.4464-1.7066 3.4175-1.7066 5.9134 0 2.4871 0.56885 4.4538 1.7066 5.9002 1.1465 1.4464 2.6899 2.1696 4.6302 2.1696s3.4748-0.72319 4.6038-2.1696c1.1377-1.4464 1.7065-3.4131 1.7066-5.9002-0.00002-2.4959-0.56887-4.467-1.7066-5.9134-1.1289-1.4464-2.6635-2.1696-4.6038-2.1696m0-2.1696c2.7693 0.00002 4.983 0.93046 6.641 2.7914 1.658 1.8521 2.4871 4.3392 2.4871 7.4612-0.00002 3.1133-0.82905 5.6003-2.4871 7.4612-1.6581 1.8521-3.8718 2.7781-6.641 2.7781-2.7781 0-5.0006-0.92604-6.6675-2.7781-1.658-1.8521-2.4871-4.3392-2.4871-7.4612 0-3.1221 0.82903-5.6092 2.4871-7.4612 1.6669-1.8609 3.8894-2.7913 6.6675-2.7914"/>
 </g>
</svg>
