<?xml version="1.0" encoding="UTF-8" standalone="no"?>
<!-- Created with Inkscape (http://www.inkscape.org/) -->
<svg id="svg2" xmlns:rdf="http://www.w3.org/1999/02/22-rdf-syntax-ns#" xmlns="http://www.w3.org/2000/svg" height="230.11" width="494.18" version="1.1" xmlns:cc="http://creativecommons.org/ns#" xmlns:dc="http://purl.org/dc/elements/1.1/" viewBox="268 98 262 114.11407">
 <metadata id="metadata62">
  <rdf:RDF>
   <cc:Work rdf:about="">
    <dc:format>image/svg+xml</dc:format>
    <dc:type rdf:resource="http://purl.org/dc/dcmitype/StillImage"/>
   </cc:Work>
  </rdf:RDF>
 </metadata>
 <g id="g4" transform="translate(-1 -4.943)">
  <path id="rect6" fill="#fff" d="m340 100h120v40h-120z"/>
  <path id="rect8" d="m340 100h120v40h-120z" stroke="#000" stroke-width="2" fill="none"/>
  <g id="text10">
   <path id="path3012" style="" d="m357.36 110.76h1.8356v9.1182l5.4471-4.7923h2.3316l-5.8936 5.1991 6.1416 5.9134h-2.3812l-5.6456-5.4273v5.4273h-1.8356v-15.438"/>
   <path id="path3014" style="" d="m369.21 115.09h1.8256v11.112h-1.8256v-11.112m0-4.3259h1.8256v2.3118h-1.8256v-2.3118"/>
   <path id="path3016" style="" d="m380.47 110.76v1.518h-1.7462c-0.65485 0.00001-1.1112 0.1323-1.3692 0.39687-0.25136 0.2646-0.37703 0.74085-0.37703 1.4288v0.98227h3.0063v1.4188h-3.0063v9.6937h-1.8356v-9.6937h-1.7462v-1.4188h1.7462v-0.77391c0-1.2369 0.28774-2.1365 0.86321-2.6988 0.57546-0.56884 1.4883-0.85326 2.7384-0.85328h1.7264"/>
   <path id="path3018" style="" d="m391.5 120.19v0.89297h-8.3939c0.0794 1.2568 0.4564 2.2159 1.1311 2.8773 0.6813 0.65485 1.6272 0.98227 2.8377 0.98227 0.70114 0 1.3791-0.086 2.034-0.25797 0.66145-0.17198 1.3163-0.42995 1.9645-0.77391v1.7264c-0.65485 0.27781-1.3262 0.48948-2.0141 0.635-0.68792 0.14552-1.3858 0.21828-2.0935 0.21828-1.7727 0-3.1783-0.51594-4.2168-1.5478-1.0319-1.0319-1.5478-2.4276-1.5478-4.187 0-1.819 0.48948-3.261 1.4684-4.3259 0.98556-1.0716 2.3118-1.6073 3.9787-1.6073 1.4949 0.00001 2.6756 0.48287 3.5421 1.4486 0.87311 0.95912 1.3097 2.2655 1.3097 3.9191m-1.8256-0.53578c-0.0132-0.99879-0.29436-1.7958-0.84336-2.3912-0.5424-0.59531-1.2634-0.89296-2.163-0.89297-1.0186 0.00001-1.8356 0.28774-2.4507 0.8632-0.60855 0.57548-0.95912 1.3858-1.0517 2.4309l6.5088-0.01"/>
   <path id="path3020" style="" d="m394.49 115.09h1.8256v11.311c0 1.4155-0.2712 2.4408-0.81359 3.0758-0.53578 0.63499-1.4023 0.95249-2.5995 0.9525h-0.69453v-1.5478h0.48617c0.69453 0 1.1675-0.16206 1.4188-0.48617 0.25135-0.3175 0.37703-0.98227 0.37703-1.9943v-11.311m0-4.3259h1.8256v2.3118h-1.8256v-2.3118"/>
   <path id="path3022" style="" d="m409.63 120.19v0.89297h-8.3939c0.0794 1.2568 0.4564 2.2159 1.1311 2.8773 0.6813 0.65485 1.6272 0.98227 2.8377 0.98227 0.70113 0 1.3791-0.086 2.034-0.25797 0.66145-0.17198 1.3163-0.42995 1.9645-0.77391v1.7264c-0.65485 0.27781-1.3262 0.48948-2.0141 0.635-0.68792 0.14552-1.3858 0.21828-2.0935 0.21828-1.7727 0-3.1783-0.51594-4.2168-1.5478-1.0319-1.0319-1.5478-2.4276-1.5478-4.187-0.00001-1.819 0.48947-3.261 1.4684-4.3259 0.98557-1.0716 2.3118-1.6073 3.9787-1.6073 1.4949 0.00001 2.6756 0.48287 3.5421 1.4486 0.87312 0.95912 1.3097 2.2655 1.3097 3.9191m-1.8256-0.53578c-0.0132-0.99879-0.29436-1.7958-0.84336-2.3912-0.54241-0.59531-1.2634-0.89296-2.163-0.89297-1.0186 0.00001-1.8356 0.28774-2.4507 0.8632-0.60855 0.57548-0.95912 1.3858-1.0517 2.4309l6.5088-0.01"/>
   <path id="path3024" style="" d="m411.84 115.09h8.6717v1.6669l-6.8659 7.9871h6.8659v1.4585h-8.9198v-1.6669l6.8659-7.9871h-6.6179v-1.4585"/>
   <path id="path3026" style="" d="m432.81 120.19v0.89297h-8.3939c0.0794 1.2568 0.45641 2.2159 1.1311 2.8773 0.68129 0.65485 1.6272 0.98227 2.8376 0.98227 0.70114 0 1.3791-0.086 2.034-0.25797 0.66145-0.17198 1.3163-0.42995 1.9645-0.77391v1.7264c-0.65486 0.27781-1.3262 0.48948-2.0141 0.635-0.68793 0.14552-1.3858 0.21828-2.0935 0.21828-1.7727 0-3.1783-0.51594-4.2168-1.5478-1.0319-1.0319-1.5478-2.4276-1.5478-4.187 0-1.819 0.48948-3.261 1.4684-4.3259 0.98557-1.0716 2.3118-1.6073 3.9787-1.6073 1.4949 0.00001 2.6756 0.48287 3.5421 1.4486 0.87312 0.95912 1.3097 2.2655 1.3097 3.9191m-1.8256-0.53578c-0.0132-0.99879-0.29435-1.7958-0.84335-2.3912-0.54241-0.59531-1.2634-0.89296-2.163-0.89297-1.0186 0.00001-1.8356 0.28774-2.4507 0.8632-0.60854 0.57548-0.95911 1.3858-1.0517 2.4309l6.5088-0.01m-1.7562-9.7036h1.9745l-3.2345 3.7306h-1.518l2.7781-3.7306"/>
   <path id="path3028" style="" d="m442.89 115.41v1.7264c-0.51595-0.26458-1.0517-0.46302-1.6074-0.59532-0.55563-0.13228-1.1311-0.19842-1.7264-0.19843-0.90621 0.00001-1.5875 0.13891-2.0439 0.41671-0.44979 0.27783-0.67469 0.69454-0.67469 1.2502 0 0.42334 0.16206 0.75738 0.48617 1.0021 0.32412 0.23813 0.97565 0.46633 1.9546 0.68461l0.62508 0.13891c1.2964 0.27781 2.2159 0.67138 2.7583 1.1807 0.549 0.50271 0.82351 1.2072 0.82352 2.1134-0.00001 1.0319-0.41011 1.8488-1.2303 2.4507-0.81361 0.60193-1.9348 0.90289-3.3635 0.90289-0.59532 0-1.2171-0.0595-1.8653-0.17859-0.64162-0.11245-1.3196-0.28443-2.034-0.51594v-1.8852c0.67469 0.35058 1.3394 0.61516 1.9943 0.79375 0.65484 0.17198 1.3031 0.25797 1.9447 0.25797 0.85989 0 1.5214-0.14552 1.9844-0.43656 0.46302-0.29765 0.69453-0.71437 0.69453-1.2502 0-0.49609-0.16868-0.87642-0.50601-1.141-0.33074-0.26458-1.0616-0.51924-2.1927-0.76399l-0.635-0.14882c-1.1311-0.23812-1.948-0.60193-2.4507-1.0914-0.50271-0.49609-0.75406-1.1741-0.75406-2.034 0-1.0451 0.37041-1.8521 1.1112-2.4209 0.74083-0.56885 1.7926-0.85327 3.1552-0.85328 0.67469 0.00001 1.3097 0.0496 1.905 0.14882 0.59531 0.0992 1.1443 0.24806 1.647 0.44649"/>
  </g>
 </g>
 <g id="g14" transform="translate(-1 -4.943)">
  <path id="rect16" fill="#a3bbcc" d="m270 180h62.425v40h-62.425z"/>
  <path id="rect18" d="m270 180h62.425v40h-62.425z" stroke="#000" stroke-width="2" fill="none"/>
  <g id="text20">
   <path id="path3033" style="" d="m298.64 204.51h6.9949v1.6867h-9.4059v-1.6867c0.76068-0.78713 1.7959-1.8422 3.1056-3.1651 1.3163-1.3295 2.1431-2.1861 2.4805-2.5698 0.6416-0.72098 1.0881-1.3295 1.3394-1.8256 0.25796-0.5027 0.38694-0.99548 0.38695-1.4784-0.00001-0.78712-0.27782-1.4287-0.83343-1.9248-0.54902-0.49608-1.2667-0.74413-2.153-0.74414-0.62839 0.00001-1.2932 0.10915-1.9943 0.32742-0.69453 0.21829-1.4387 0.54902-2.2324 0.99219v-2.0241c0.80698-0.3241 1.561-0.56884 2.2622-0.73422 0.70114-0.16535 1.3428-0.24803 1.9248-0.24804 1.5346 0.00001 2.7583 0.38366 3.6711 1.1509 0.9128 0.76731 1.3692 1.7926 1.3692 3.0758-0.00001 0.60855-0.11576 1.1873-0.34726 1.7363-0.22491 0.54241-0.63832 1.184-1.2402 1.9248-0.16537 0.19183-0.69123 0.74745-1.5776 1.6669-0.88637 0.91282-2.1365 2.1927-3.7505 3.8398"/>
  </g>
 </g>
 <g id="g24" transform="translate(-1 -4.943)">
  <path id="rect26" fill="#a3bbcc" d="m370 180h60v40h-60z"/>
  <path id="rect28" d="m370 180h60v40h-60z" stroke="#000" stroke-width="2" fill="none"/>
  <g id="text30">
   <path id="path3038" style="" d="m401.78 198.21c0.9591 0.20506 1.7066 0.6317 2.2423 1.2799 0.54238 0.64823 0.81358 1.4486 0.81359 2.4011-0.00001 1.4618-0.50272 2.5929-1.5081 3.3933-1.0054 0.80037-2.4342 1.2006-4.2862 1.2006-0.62178 0-1.2634-0.0628-1.9248-0.18851-0.65484-0.11907-1.3328-0.30097-2.034-0.54571v-1.9348c0.55562 0.32411 1.1642 0.56885 1.8256 0.73422 0.66145 0.16536 1.3527 0.24804 2.0737 0.24804 1.2568 0 2.2126-0.24804 2.8674-0.74414 0.66145-0.49609 0.99218-1.2171 0.99219-2.163-0.00001-0.87312-0.30759-1.5544-0.92274-2.0439-0.60855-0.49609-1.4585-0.74414-2.5499-0.74414h-1.7264v-1.647h1.8058c0.98556 0 1.7396-0.19513 2.2622-0.5854 0.52255-0.39686 0.78382-0.96571 0.78383-1.7066-0.00001-0.76066-0.27121-1.3428-0.81359-1.7462-0.53579-0.41009-1.3064-0.61514-2.3118-0.61515-0.54902 0.00001-1.1377 0.0595-1.7661 0.17859-0.62839 0.11908-1.3196 0.30428-2.0737 0.55562v-1.7859c0.76068-0.21165 1.4718-0.3704 2.1332-0.47625 0.66807-0.10582 1.2964-0.15874 1.8852-0.15875 1.5214 0.00001 2.7252 0.34728 3.6116 1.0418 0.88634 0.68793 1.3295 1.6206 1.3295 2.798-0.00001 0.82022-0.23483 1.5148-0.70446 2.0836-0.46964 0.56224-1.1377 0.9525-2.0042 1.1708"/>
  </g>
 </g>
 <g id="g34" transform="translate(-1 -4.943)">
  <path id="rect36" fill="#a3bbcc" d="m470 180h60v40h-60z"/>
  <path id="rect38" d="m470 180h60v40h-60z" stroke="#000" stroke-width="2" fill="none"/>
  <g id="text40">
   <path id="path3043" style="" d="m500.24 197.99c-0.89958 0-1.614 0.30758-2.1431 0.92273-0.52256 0.61516-0.78383 1.4585-0.78383 2.5301 0 1.065 0.26127 1.9083 0.78383 2.5301 0.52916 0.61515 1.2435 0.92273 2.1431 0.92273 0.89958 0 1.6106-0.30758 2.1332-0.92273 0.52916-0.62177 0.79374-1.4651 0.79375-2.5301-0.00001-1.0716-0.26459-1.9149-0.79375-2.5301-0.52256-0.61515-1.2336-0.92273-2.1332-0.92273m3.9787-6.2806v1.8256c-0.50272-0.23811-1.012-0.42001-1.528-0.5457-0.50933-0.12566-1.0154-0.1885-1.518-0.18851-1.3229 0.00001-2.335 0.44649-3.0361 1.3394-0.69454 0.89298-1.0914 2.2424-1.1906 4.0481 0.39026-0.57546 0.87974-1.0153 1.4684-1.3196 0.58869-0.31087 1.2369-0.46631 1.9447-0.46632 1.4883 0.00001 2.6624 0.4531 3.5223 1.3593 0.8665 0.89959 1.2998 2.1266 1.2998 3.681-0.00001 1.5214-0.4498 2.7418-1.3494 3.6612-0.89959 0.91943-2.0968 1.3791-3.5917 1.3791-1.7132 0-3.0229-0.65484-3.9291-1.9645-0.9062-1.3163-1.3593-3.2213-1.3593-5.715-0.00001-2.3416 0.55562-4.2069 1.6669-5.5959 1.1112-1.3957 2.6028-2.0935 4.4748-2.0935 0.5027 0.00001 1.0087 0.0496 1.518 0.14883 0.51593 0.0992 1.0517 0.24806 1.6074 0.44648"/>
  </g>
 </g>
 <path id="line44" d="m399 135.06-98.788 40" stroke="#000" stroke-width="2" fill="none"/>
 <path id="line46" d="m399 175.06v-40" stroke="#000" stroke-width="2" fill="none"/>
 <path id="line48" d="m499 175.06-100-40" stroke="#000" stroke-width="2" fill="none"/>
 <g id="text50">
  <path id="path3049" style="" d="m418.35 152.32v5.5265h5.5265v1.6867h-5.5265v5.5265h-1.6669v-5.5265h-5.5265v-1.6867h5.5265v-5.5265h1.6669"/>
 </g>
 <g id="text54">
  <path id="path3052" style="" d="m488.55 152.68-3.562 1.9248 3.562 1.9348-0.57547 0.97234-3.3338-2.0141v3.7406h-1.1311v-3.7406l-3.3338 2.0141-0.57547-0.97234 3.562-1.9348-3.562-1.9248 0.57547-0.98227 3.3338 2.0141v-3.7405h1.1311v3.7405l3.3338-2.0141 0.57547 0.98227"/>
 </g>
</svg>
