<?xml version="1.0" encoding="UTF-8" standalone="no"?>
<!-- Created with Inkscape (http://www.inkscape.org/) -->
<svg id="svg2" xmlns:rdf="http://www.w3.org/1999/02/22-rdf-syntax-ns#" xmlns="http://www.w3.org/2000/svg" height="375.61" width="635.94" version="1.1" xmlns:cc="http://creativecommons.org/ns#" xmlns:dc="http://purl.org/dc/elements/1.1/" viewBox="258 98 342.00001 195.62895">
 <metadata id="metadata86">
  <rdf:RDF>
   <cc:Work rdf:about="">
    <dc:format>image/svg+xml</dc:format>
    <dc:type rdf:resource="http://purl.org/dc/dcmitype/StillImage"/>
   </cc:Work>
  </rdf:RDF>
 </metadata>
 <g id="g4" transform="translate(-1 -4.1855)">
  <path id="rect6" fill="#fff" d="m360 100h80v40h-80z"/>
  <path id="rect8" d="m360 100h80v40h-80z" stroke="#000" stroke-width="2" fill="none"/>
  <g id="text10">
   <path id="path3024" style="" d="m371.38 116.37c-0.97896 0.00001-1.7529 0.38365-2.3217 1.1509-0.56886 0.76068-0.85328 1.8058-0.85328 3.1353s0.28112 2.3779 0.84336 3.1452c0.56885 0.76068 1.3461 1.141 2.3316 1.141 0.97234 0 1.7429-0.38365 2.3118-1.1509 0.56884-0.76729 0.85327-1.8124 0.85328-3.1353-0.00001-1.3163-0.28444-2.3581-0.85328-3.1254-0.56886-0.7739-1.3395-1.1608-2.3118-1.1609m0-1.5478c1.5875 0.00001 2.8343 0.51594 3.7406 1.5478 0.90618 1.0319 1.3593 2.4606 1.3593 4.2862-0.00001 1.819-0.45311 3.2478-1.3593 4.2862-0.90621 1.0319-2.1531 1.5478-3.7406 1.5478-1.5941 0-2.8443-0.51594-3.7505-1.5478-0.89958-1.0385-1.3494-2.4672-1.3494-4.2862 0-1.8256 0.44979-3.2544 1.3494-4.2862 0.9062-1.0319 2.1564-1.5478 3.7505-1.5478m0.93266-4.0184h2.0141v2.0042h-2.0141v-2.0042m-3.8795 0h2.0141v2.0042h-2.0141v-2.0042"/>
   <path id="path3026" style="" d="m386.58 115.41v1.7264c-0.51594-0.26458-1.0517-0.46302-1.6073-0.59532-0.55563-0.13228-1.1311-0.19842-1.7264-0.19843-0.9062 0.00001-1.5875 0.13891-2.0439 0.41671-0.4498 0.27783-0.67469 0.69454-0.67469 1.2502 0 0.42334 0.16205 0.75738 0.48617 1.0021 0.32411 0.23813 0.97565 0.46633 1.9546 0.68461l0.62508 0.13891c1.2964 0.27781 2.2159 0.67138 2.7583 1.1807 0.549 0.50271 0.82351 1.2072 0.82352 2.1134-0.00001 1.0319-0.41012 1.8488-1.2303 2.4507-0.8136 0.60193-1.9348 0.90289-3.3635 0.90289-0.59532 0-1.2171-0.0595-1.8653-0.17859-0.64161-0.11245-1.3196-0.28443-2.034-0.51594v-1.8852c0.67469 0.35058 1.3394 0.61516 1.9943 0.79375 0.65484 0.17198 1.3031 0.25797 1.9447 0.25797 0.85989 0 1.5214-0.14552 1.9844-0.43656 0.46301-0.29765 0.69452-0.71437 0.69453-1.2502-0.00001-0.49609-0.16868-0.87642-0.50601-1.141-0.33074-0.26458-1.0616-0.51924-2.1927-0.76399l-0.635-0.14882c-1.1311-0.23812-1.948-0.60193-2.4507-1.0914-0.50271-0.49609-0.75407-1.1741-0.75406-2.034-0.00001-1.0451 0.37041-1.8521 1.1112-2.4209 0.74083-0.56885 1.7925-0.85327 3.1552-0.85328 0.67468 0.00001 1.3097 0.0496 1.905 0.14882 0.59531 0.0992 1.1443 0.24806 1.647 0.44649"/>
   <path id="path3028" style="" d="m397.17 115.41v1.7264c-0.51595-0.26458-1.0517-0.46302-1.6074-0.59532-0.55563-0.13228-1.1311-0.19842-1.7264-0.19843-0.90621 0.00001-1.5875 0.13891-2.0439 0.41671-0.4498 0.27783-0.67469 0.69454-0.67469 1.2502 0 0.42334 0.16206 0.75738 0.48617 1.0021 0.32411 0.23813 0.97565 0.46633 1.9546 0.68461l0.62508 0.13891c1.2964 0.27781 2.2159 0.67138 2.7583 1.1807 0.549 0.50271 0.82351 1.2072 0.82352 2.1134-0.00001 1.0319-0.41012 1.8488-1.2303 2.4507-0.81361 0.60193-1.9348 0.90289-3.3635 0.90289-0.59532 0-1.2171-0.0595-1.8653-0.17859-0.64162-0.11245-1.3196-0.28443-2.034-0.51594v-1.8852c0.67469 0.35058 1.3394 0.61516 1.9943 0.79375 0.65484 0.17198 1.3031 0.25797 1.9447 0.25797 0.85989 0 1.5213-0.14552 1.9844-0.43656 0.46302-0.29765 0.69453-0.71437 0.69453-1.2502 0-0.49609-0.16868-0.87642-0.50601-1.141-0.33074-0.26458-1.0616-0.51924-2.1927-0.76399l-0.635-0.14882c-1.1311-0.23812-1.948-0.60193-2.4507-1.0914-0.50271-0.49609-0.75406-1.1741-0.75406-2.034 0-1.0451 0.37041-1.8521 1.1112-2.4209 0.74083-0.56885 1.7926-0.85327 3.1552-0.85328 0.67469 0.00001 1.3097 0.0496 1.905 0.14882 0.59531 0.0992 1.1443 0.24806 1.647 0.44649"/>
   <path id="path3030" style="" d="m399.89 115.09h8.6717v1.6669l-6.8659 7.9871h6.8659v1.4585h-8.9198v-1.6669l6.8659-7.9871h-6.6179v-1.4585"/>
   <path id="path3032" style="" d="m420.87 120.19v0.89297h-8.3939c0.0794 1.2568 0.4564 2.2159 1.1311 2.8773 0.6813 0.65485 1.6272 0.98227 2.8377 0.98227 0.70113 0 1.3791-0.086 2.034-0.25797 0.66145-0.17198 1.3163-0.42995 1.9645-0.77391v1.7264c-0.65485 0.27781-1.3262 0.48948-2.0141 0.635-0.68792 0.14552-1.3858 0.21828-2.0935 0.21828-1.7727 0-3.1783-0.51594-4.2168-1.5478-1.0319-1.0319-1.5478-2.4276-1.5478-4.187-0.00001-1.819 0.48947-3.261 1.4684-4.3259 0.98557-1.0716 2.3118-1.6073 3.9787-1.6073 1.4949 0.00001 2.6756 0.48287 3.5421 1.4486 0.87312 0.95912 1.3097 2.2655 1.3097 3.9191m-1.8256-0.53578c-0.0132-0.99879-0.29436-1.7958-0.84336-2.3912-0.54241-0.59531-1.2634-0.89296-2.163-0.89297-1.0186 0.00001-1.8356 0.28774-2.4507 0.8632-0.60855 0.57548-0.95912 1.3858-1.0517 2.4309l6.5088-0.01"/>
   <path id="path3034" style="" d="m431.17 120.51c-0.00001-1.3229-0.27451-2.3482-0.82351-3.0758-0.54241-0.72759-1.3064-1.0914-2.292-1.0914-0.97896 0.00001-1.7429 0.36381-2.292 1.0914-0.5424 0.72761-0.8136 1.7529-0.81359 3.0758-0.00001 1.3163 0.27119 2.3383 0.81359 3.0659 0.54901 0.72761 1.313 1.0914 2.292 1.0914 0.98557 0 1.7496-0.3638 2.292-1.0914 0.549-0.7276 0.8235-1.7496 0.82351-3.0659m1.8256 4.3061c-0.00001 1.8918-0.42004 3.2974-1.2601 4.2168-0.84006 0.92604-2.1266 1.3891-3.8596 1.3891-0.64162-0.00001-1.2468-0.0496-1.8157-0.14883-0.56886-0.0926-1.1212-0.23813-1.657-0.43656v-1.776c0.53578 0.29104 1.065 0.50601 1.5875 0.64492 0.52255 0.1389 1.055 0.20836 1.5974 0.20836 1.1972 0 2.0935-0.31419 2.6888-0.94258 0.59531-0.62177 0.89296-1.5644 0.89297-2.8277v-0.90289c-0.37704 0.65484-0.8599 1.1443-1.4486 1.4684-0.58871 0.32411-1.2932 0.48617-2.1134 0.48617-1.3626 0-2.4606-0.51925-3.2941-1.5577-0.83344-1.0385-1.2502-2.4143-1.2502-4.1275 0-1.7198 0.41672-3.0989 1.2502-4.1374 0.83343-1.0385 1.9314-1.5577 3.2941-1.5577 0.8202 0.00001 1.5246 0.16207 2.1134 0.48617 0.58869 0.32412 1.0716 0.8136 1.4486 1.4684v-1.6867h1.8256v9.7334"/>
  </g>
 </g>
 <g id="g14" transform="translate(-1 -4.1855)">
  <path id="rect16" fill="#a3bbcc" d="m400 260h60v40h-60z"/>
  <path id="rect18" d="m400 260h60v40h-60z" stroke="#000" stroke-width="2" fill="none"/>
  <g id="text20">
   <path id="path3039" style="" d="m431.78 278.21c0.9591 0.20506 1.7066 0.6317 2.2423 1.2799 0.54238 0.64824 0.81358 1.4486 0.81359 2.4011-0.00001 1.4618-0.50272 2.5929-1.5081 3.3933-1.0054 0.80036-2.4342 1.2006-4.2862 1.2006-0.62178 0-1.2634-0.0628-1.9248-0.18852-0.65484-0.11906-1.3328-0.30096-2.034-0.5457v-1.9348c0.55562 0.32412 1.1642 0.56886 1.8256 0.73422 0.66145 0.16537 1.3527 0.24805 2.0737 0.24805 1.2568 0 2.2126-0.24805 2.8674-0.74414 0.66145-0.49609 0.99218-1.2171 0.99219-2.163-0.00001-0.87312-0.30759-1.5544-0.92274-2.0439-0.60855-0.49608-1.4585-0.74413-2.5499-0.74414h-1.7264v-1.647h1.8058c0.98556 0.00001 1.7396-0.19512 2.2622-0.58539 0.52255-0.39687 0.78382-0.96572 0.78383-1.7066-0.00001-0.76067-0.27121-1.3428-0.81359-1.7462-0.53579-0.41009-1.3064-0.61515-2.3118-0.61516-0.54902 0.00001-1.1377 0.0596-1.7661 0.17859-0.62839 0.11908-1.3196 0.30429-2.0737 0.55563v-1.7859c0.76068-0.21165 1.4718-0.3704 2.1332-0.47625 0.66807-0.10582 1.2964-0.15873 1.8852-0.15875 1.5214 0.00002 2.7252 0.34728 3.6116 1.0418 0.88634 0.68793 1.3295 1.6206 1.3295 2.798-0.00001 0.82022-0.23483 1.5148-0.70446 2.0836-0.46964 0.56225-1.1377 0.95251-2.0042 1.1708"/>
  </g>
 </g>
 <g id="g24" transform="translate(-1 -4.1855)">
  <path id="rect26" fill="#fff" d="m460.45 180h79.1v39.759h-79.1z"/>
  <path id="rect28" d="m460.45 180h79.1v39.759h-79.1z" stroke="#000" stroke-width="2" fill="none"/>
  <g id="text30">
   <path id="path3044" style="" d="m472.41 195.29v1.7264c-0.51595-0.26457-1.0517-0.46301-1.6074-0.59531-0.55563-0.13228-1.1311-0.19843-1.7264-0.19844-0.90621 0.00001-1.5875 0.13892-2.0439 0.41672-0.44979 0.27782-0.67469 0.69454-0.67469 1.2502 0 0.42334 0.16206 0.75737 0.48617 1.0021 0.32412 0.23814 0.97565 0.46634 1.9546 0.68461l0.62508 0.13891c1.2964 0.27782 2.2159 0.67139 2.7583 1.1807 0.549 0.50272 0.82351 1.2072 0.82352 2.1134-0.00001 1.0319-0.41011 1.8488-1.2303 2.4507-0.81361 0.60192-1.9348 0.90289-3.3635 0.90289-0.59532 0-1.2171-0.0595-1.8653-0.1786-0.64162-0.11245-1.3196-0.28442-2.034-0.51594v-1.8852c0.67469 0.35057 1.3394 0.61516 1.9943 0.79375 0.65484 0.17198 1.3031 0.25797 1.9447 0.25797 0.85989 0 1.5214-0.14552 1.9844-0.43657 0.46302-0.29765 0.69453-0.71437 0.69453-1.2502 0-0.49609-0.16868-0.87643-0.50601-1.141-0.33074-0.26458-1.0616-0.51924-2.1927-0.76398l-0.635-0.14883c-1.1311-0.23812-1.948-0.60192-2.4507-1.0914-0.50271-0.49608-0.75406-1.1741-0.75406-2.034 0-1.0451 0.37041-1.8521 1.1112-2.4209 0.74083-0.56884 1.7926-0.85327 3.1552-0.85328 0.67469 0.00001 1.3097 0.0496 1.905 0.14883 0.59531 0.0992 1.1443 0.24806 1.647 0.44648"/>
   <path id="path3046" style="" d="m475.13 194.97h8.6717v1.6669l-6.8659 7.9871h6.8659v1.4585h-8.9198v-1.6669l6.8659-7.9871h-6.6179v-1.4585"/>
   <path id="path3048" style="" d="m490.9 196.25c-0.97896 0.00001-1.7529 0.38366-2.3217 1.1509-0.56886 0.76069-0.85328 1.8058-0.85328 3.1353s0.28112 2.378 0.84336 3.1452c0.56885 0.76068 1.3461 1.141 2.3316 1.141 0.97234 0 1.7429-0.38364 2.3118-1.1509 0.56884-0.76729 0.85327-1.8124 0.85328-3.1353-0.00001-1.3163-0.28444-2.3581-0.85328-3.1254-0.56887-0.77389-1.3395-1.1608-2.3118-1.1609m0-1.5478c1.5875 0.00001 2.8343 0.51595 3.7406 1.5478 0.90618 1.0319 1.3593 2.4606 1.3593 4.2862-0.00001 1.819-0.45311 3.2478-1.3593 4.2862-0.90621 1.0319-2.1531 1.5478-3.7406 1.5478-1.5941 0-2.8443-0.51594-3.7505-1.5478-0.89958-1.0385-1.3494-2.4672-1.3494-4.2862 0-1.8256 0.44979-3.2544 1.3494-4.2862 0.9062-1.0319 2.1564-1.5478 3.7505-1.5478"/>
   <path id="path3050" style="" d="m505.46 196.67c-0.20506-0.11905-0.42995-0.20504-0.67469-0.25796-0.23813-0.0595-0.50271-0.0893-0.79375-0.0893-1.0319 0.00001-1.8256 0.33735-2.3812 1.012-0.54901 0.66808-0.82352 1.6305-0.82351 2.8873v5.8539h-1.8356v-11.112h1.8356v1.7264c0.38364-0.67468 0.88304-1.1741 1.4982-1.4982 0.61515-0.33072 1.3626-0.49609 2.2423-0.4961 0.12567 0.00001 0.26458 0.01 0.41672 0.0298 0.15213 0.0132 0.3208 0.0364 0.50602 0.0695l0.01 1.8752"/>
   <path id="path3052" style="" d="m506.6 194.97h8.6717v1.6669l-6.8659 7.9871h6.8659v1.4585h-8.9198v-1.6669l6.8659-7.9871h-6.6179v-1.4585"/>
   <path id="path3054" style="" d="m523.12 200.49c-1.4751 0-2.497 0.16867-3.0659 0.50601-0.56886 0.33735-0.85329 0.91282-0.85328 1.7264-0.00001 0.64823 0.21166 1.1642 0.635 1.5478 0.42994 0.37703 1.012 0.56555 1.7462 0.56555 1.012 0 1.8223-0.35719 2.4309-1.0716 0.61514-0.72098 0.92272-1.6768 0.92273-2.8674v-0.40679h-1.8157m3.6413-0.75407v6.3401h-1.8256v-1.6867c-0.41673 0.67469-0.93597 1.1741-1.5577 1.4982-0.62178 0.3175-1.3825 0.47625-2.282 0.47625-1.1377 0-2.0439-0.3175-2.7186-0.9525-0.66807-0.64162-1.0021-1.4982-1.0021-2.5698 0-1.2502 0.41672-2.1927 1.2502-2.8277 0.84005-0.635 2.0902-0.9525 3.7505-0.9525h2.5598v-0.1786c-0.00001-0.84004-0.27782-1.4883-0.83344-1.9447-0.54901-0.46302-1.3229-0.69453-2.3217-0.69454-0.635 0.00001-1.2535 0.0761-1.8554 0.22821-0.60193 0.15214-1.1807 0.38034-1.7363 0.68461v-1.6867c0.66807-0.25796 1.3163-0.44978 1.9447-0.57547 0.62838-0.13228 1.2402-0.19843 1.8356-0.19844 1.6073 0.00001 2.8079 0.41673 3.6016 1.2502 0.79374 0.83344 1.1906 2.0968 1.1906 3.7902"/>
   <path id="path3056" style="" d="m532.34 191.81v3.1552h3.7604v1.4188h-3.7604v6.0325c-0.00001 0.9062 0.12236 1.4883 0.36711 1.7462 0.25135 0.25797 0.75736 0.38695 1.518 0.38695h1.8752v1.528h-1.8752c-1.4089 0-2.3812-0.26127-2.917-0.78383-0.53578-0.52916-0.80367-1.4883-0.80367-2.8773v-6.0325h-1.3394v-1.4188h1.3394v-3.1552h1.8356"/>
  </g>
 </g>
 <path id="line34" d="m399 135.81-98.788 40" stroke="#000" stroke-width="2" fill="none"/>
 <path id="line36" d="m429 255.81 70-40.24" stroke="#000" stroke-width="2" fill="none"/>
 <path id="line38" d="m499 175.81-100-40" stroke="#000" stroke-width="2" fill="none"/>
 <g id="text40">
  <path id="path3062" style="" d="m488.35 153.07v5.5265h5.5265v1.6867h-5.5265v5.5265h-1.6669v-5.5265h-5.5265v-1.6867h5.5265v-5.5265h1.6669"/>
 </g>
 <g id="g44" transform="translate(-1 -4.1855)">
  <path id="rect46" fill="#a3bbcc" d="m540 260h60v40h-60z"/>
  <path id="rect48" d="m540 260h60v40h-60z" stroke="#000" stroke-width="2" fill="none"/>
  <g id="text50">
   <path id="path3067" style="" d="m570.24 277.99c-0.89958 0.00001-1.614 0.30759-2.1431 0.92274-0.52256 0.61516-0.78383 1.4585-0.78383 2.5301 0 1.065 0.26127 1.9083 0.78383 2.5301 0.52916 0.61516 1.2435 0.92274 2.1431 0.92274 0.89958 0 1.6106-0.30758 2.1332-0.92274 0.52916-0.62177 0.79374-1.4651 0.79375-2.5301-0.00001-1.0716-0.26459-1.9149-0.79375-2.5301-0.52256-0.61515-1.2336-0.92273-2.1332-0.92274m3.9787-6.2806v1.8256c-0.50272-0.23811-1.012-0.42001-1.528-0.5457-0.50933-0.12567-1.0154-0.18851-1.518-0.18852-1.3229 0.00001-2.335 0.4465-3.0361 1.3394-0.69454 0.89298-1.0914 2.2424-1.1906 4.0481 0.39026-0.57546 0.87974-1.0153 1.4684-1.3196 0.58869-0.31088 1.2369-0.46632 1.9447-0.46633 1.4883 0.00001 2.6624 0.45311 3.5223 1.3593 0.8665 0.89959 1.2998 2.1266 1.2998 3.681-0.00001 1.5214-0.4498 2.7418-1.3494 3.6612-0.89959 0.91942-2.0968 1.3791-3.5917 1.3791-1.7132 0-3.0229-0.65485-3.9291-1.9645-0.9062-1.3163-1.3593-3.2213-1.3593-5.715-0.00001-2.3416 0.55562-4.2069 1.6669-5.5959 1.1112-1.3957 2.6028-2.0935 4.4748-2.0935 0.5027 0.00002 1.0087 0.0496 1.518 0.14883 0.51593 0.0992 1.0517 0.24806 1.6074 0.44648"/>
  </g>
 </g>
 <path id="line54" d="m569 255.81-70-40.24" stroke="#000" stroke-width="2" fill="none"/>
 <g id="text56">
  <path id="path3071" style="" d="m548.55 223.44-3.562 1.9248 3.562 1.9348-0.57547 0.97234-3.3338-2.0141v3.7406h-1.1311v-3.7406l-3.3338 2.0141-0.57547-0.97234 3.562-1.9348-3.562-1.9248 0.57547-0.98227 3.3338 2.0142v-3.7406h1.1311v3.7406l3.3338-2.0142 0.57547 0.98227"/>
 </g>
 <g id="g60" transform="translate(-1 -4.1855)">
  <path id="rect62" fill="#fff" d="m260 180h80v40h-80z"/>
  <path id="rect64" d="m260 180h80v40h-80z" stroke="#000" stroke-width="2" fill="none"/>
  <g id="text66">
   <path id="path3076" style="" d="m272.41 195.41v1.7264c-0.51595-0.26458-1.0517-0.46302-1.6074-0.59532-0.55563-0.13228-1.1311-0.19842-1.7264-0.19843-0.90621 0.00001-1.5875 0.13891-2.0439 0.41671-0.44979 0.27783-0.67469 0.69454-0.67469 1.2502 0 0.42334 0.16206 0.75738 0.48617 1.0021 0.32412 0.23813 0.97565 0.46633 1.9546 0.68461l0.62508 0.13891c1.2964 0.27781 2.2159 0.67138 2.7583 1.1807 0.549 0.50271 0.82351 1.2072 0.82352 2.1134-0.00001 1.0319-0.41011 1.8488-1.2303 2.4507-0.81361 0.60193-1.9348 0.90289-3.3635 0.90289-0.59532 0-1.2171-0.0595-1.8653-0.17859-0.64162-0.11245-1.3196-0.28443-2.034-0.51594v-1.8852c0.67469 0.35058 1.3394 0.61516 1.9943 0.79375 0.65484 0.17198 1.3031 0.25797 1.9447 0.25797 0.85989 0 1.5214-0.14552 1.9844-0.43656 0.46302-0.29765 0.69453-0.71437 0.69453-1.2502 0-0.49609-0.16868-0.87642-0.50601-1.141-0.33074-0.26458-1.0616-0.51924-2.1927-0.76399l-0.635-0.14882c-1.1311-0.23812-1.948-0.60193-2.4507-1.0914-0.50271-0.49609-0.75406-1.1741-0.75406-2.034 0-1.0451 0.37041-1.8521 1.1112-2.4209 0.74083-0.56885 1.7926-0.85327 3.1552-0.85328 0.67469 0.00001 1.3097 0.0496 1.905 0.14882 0.59531 0.0992 1.1443 0.24806 1.647 0.44649"/>
   <path id="path3078" style="" d="m275.13 195.09h8.6717v1.6669l-6.8659 7.9871h6.8659v1.4585h-8.9198v-1.6669l6.8659-7.9871h-6.6179v-1.4585"/>
   <path id="path3080" style="" d="m290.9 196.37c-0.97896 0.00001-1.7529 0.38365-2.3217 1.1509-0.56886 0.76068-0.85328 1.8058-0.85328 3.1353s0.28112 2.3779 0.84336 3.1452c0.56885 0.76068 1.3461 1.141 2.3316 1.141 0.97234 0 1.7429-0.38365 2.3118-1.1509 0.56884-0.76729 0.85327-1.8124 0.85328-3.1353-0.00001-1.3163-0.28444-2.3581-0.85328-3.1254-0.56887-0.7739-1.3395-1.1608-2.3118-1.1609m0-1.5478c1.5875 0.00001 2.8343 0.51594 3.7406 1.5478 0.90618 1.0319 1.3593 2.4606 1.3593 4.2862-0.00001 1.819-0.45311 3.2478-1.3593 4.2862-0.90621 1.0319-2.1531 1.5478-3.7406 1.5478-1.5941 0-2.8443-0.51594-3.7505-1.5478-0.89958-1.0385-1.3494-2.4672-1.3494-4.2862 0-1.8256 0.44979-3.2544 1.3494-4.2862 0.9062-1.0319 2.1564-1.5478 3.7505-1.5478"/>
   <path id="path3082" style="" d="m305.46 196.79c-0.20506-0.11905-0.42995-0.20504-0.67469-0.25797-0.23813-0.0595-0.50271-0.0893-0.79375-0.0893-1.0319 0.00001-1.8256 0.33736-2.3812 1.012-0.54901 0.66808-0.82352 1.6305-0.82351 2.8873v5.8539h-1.8356v-11.112h1.8356v1.7264c0.38364-0.67467 0.88304-1.1741 1.4982-1.4982 0.61515-0.33072 1.3626-0.49608 2.2423-0.49609 0.12567 0.00001 0.26458 0.01 0.41672 0.0298 0.15213 0.0132 0.3208 0.0364 0.50602 0.0695l0.01 1.8752"/>
   <path id="path3084" style="" d="m306.6 195.09h8.6717v1.6669l-6.8659 7.9871h6.8659v1.4585h-8.9198v-1.6669l6.8659-7.9871h-6.6179v-1.4585"/>
   <path id="path3086" style="" d="m323.12 200.61c-1.4751 0.00001-2.497 0.16868-3.0659 0.50602-0.56886 0.33735-0.85329 0.91281-0.85328 1.7264-0.00001 0.64824 0.21166 1.1642 0.635 1.5478 0.42994 0.37703 1.012 0.56554 1.7462 0.56554 1.012 0 1.8223-0.35718 2.4309-1.0716 0.61514-0.72099 0.92272-1.6768 0.92273-2.8674v-0.4068h-1.8157m3.6413-0.75406v6.3401h-1.8256v-1.6867c-0.41673 0.67469-0.93597 1.1741-1.5577 1.4982-0.62178 0.3175-1.3825 0.47625-2.282 0.47625-1.1377 0-2.0439-0.3175-2.7186-0.9525-0.66807-0.64161-1.0021-1.4982-1.0021-2.5698 0-1.2502 0.41672-2.1927 1.2502-2.8277 0.84005-0.63499 2.0902-0.95249 3.7505-0.9525h2.5598v-0.17859c-0.00001-0.84005-0.27782-1.4883-0.83344-1.9447-0.54901-0.46301-1.3229-0.69452-2.3217-0.69453-0.635 0.00001-1.2535 0.0761-1.8554 0.2282-0.60193 0.15215-1.1807 0.38035-1.7363 0.68461v-1.6867c0.66807-0.25796 1.3163-0.44978 1.9447-0.57547 0.62838-0.13228 1.2402-0.19842 1.8356-0.19843 1.6073 0.00001 2.8079 0.41673 3.6016 1.2502 0.79374 0.83345 1.1906 2.0968 1.1906 3.7902"/>
   <path id="path3088" style="" d="m332.34 191.93v3.1552h3.7604v1.4188h-3.7604v6.0325c-0.00001 0.9062 0.12236 1.4883 0.36711 1.7462 0.25135 0.25797 0.75736 0.38695 1.518 0.38695h1.8752v1.528h-1.8752c-1.4089 0-2.3812-0.26128-2.917-0.78383-0.53578-0.52917-0.80367-1.4883-0.80367-2.8773v-6.0325h-1.3394v-1.4188h1.3394v-3.1552h1.8356"/>
  </g>
 </g>
 <g id="g70" transform="translate(-1 -4.1855)">
  <path id="rect72" fill="#a3bbcc" d="m270 260h60v40h-60z"/>
  <path id="rect74" d="m270 260h60v40h-60z" stroke="#000" stroke-width="2" fill="none"/>
  <g id="text76">
   <path id="path3093" style="" d="m297.43 284.51h6.9949v1.6867h-9.4059v-1.6867c0.76067-0.78713 1.7958-1.8422 3.1056-3.1651 1.3163-1.3295 2.1431-2.1861 2.4805-2.5698 0.64161-0.72098 1.0881-1.3295 1.3395-1.8256 0.25796-0.50269 0.38694-0.99548 0.38695-1.4784-0.00001-0.78713-0.27782-1.4287-0.83344-1.9248-0.54901-0.49608-1.2667-0.74413-2.153-0.74414-0.62839 0.00001-1.2932 0.10916-1.9943 0.32742-0.69453 0.2183-1.4387 0.54903-2.2324 0.99219v-2.0241c0.80697-0.3241 1.561-0.56884 2.2622-0.73422 0.70114-0.16535 1.3428-0.24803 1.9248-0.24805 1.5346 0.00002 2.7583 0.38366 3.6711 1.1509 0.9128 0.7673 1.3692 1.7926 1.3692 3.0758-0.00001 0.60855-0.11576 1.1873-0.34726 1.7363-0.22491 0.5424-0.63832 1.184-1.2402 1.9248-0.16537 0.19183-0.69123 0.74746-1.5776 1.6669-0.88636 0.91282-2.1365 2.1927-3.7505 3.8398"/>
  </g>
 </g>
 <path id="line80" d="m299 255.81v-40" stroke="#000" stroke-width="2" fill="none"/>
</svg>
