<?xml version="1.0" encoding="UTF-8" standalone="no"?>
<!-- Created with Inkscape (http://www.inkscape.org/) -->
<svg id="svg2" xmlns:rdf="http://www.w3.org/1999/02/22-rdf-syntax-ns#" xmlns="http://www.w3.org/2000/svg" height="230.11" width="494.18" version="1.1" xmlns:cc="http://creativecommons.org/ns#" xmlns:dc="http://purl.org/dc/elements/1.1/" viewBox="268 98 262 114.11407">
 <metadata id="metadata62">
  <rdf:RDF>
   <cc:Work rdf:about="">
    <dc:format>image/svg+xml</dc:format>
    <dc:type rdf:resource="http://purl.org/dc/dcmitype/StillImage"/>
   </cc:Work>
  </rdf:RDF>
 </metadata>
 <g id="g4" transform="translate(-1 -4.943)">
  <path id="rect6" fill="#fff" d="m360 100h80v40h-80z"/>
  <path id="rect8" d="m360 100h80v40h-80z" stroke="#000" stroke-width="2" fill="none"/>
  <g id="text10">
   <path id="path3012" style="" d="m371.38 116.37c-0.97896 0.00001-1.7529 0.38365-2.3217 1.1509-0.56886 0.76068-0.85328 1.8058-0.85328 3.1353s0.28112 2.3779 0.84336 3.1452c0.56885 0.76068 1.3461 1.141 2.3316 1.141 0.97234 0 1.7429-0.38365 2.3118-1.1509 0.56884-0.76729 0.85327-1.8124 0.85328-3.1353-0.00001-1.3163-0.28444-2.3581-0.85328-3.1254-0.56886-0.7739-1.3395-1.1608-2.3118-1.1609m0-1.5478c1.5875 0.00001 2.8343 0.51594 3.7406 1.5478 0.90618 1.0319 1.3593 2.4606 1.3593 4.2862-0.00001 1.819-0.45311 3.2478-1.3593 4.2862-0.90621 1.0319-2.1531 1.5478-3.7406 1.5478-1.5941 0-2.8443-0.51594-3.7505-1.5478-0.89958-1.0385-1.3494-2.4672-1.3494-4.2862 0-1.8256 0.44979-3.2544 1.3494-4.2862 0.9062-1.0319 2.1564-1.5478 3.7505-1.5478m0.93266-4.0184h2.0141v2.0042h-2.0141v-2.0042m-3.8795 0h2.0141v2.0042h-2.0141v-2.0042"/>
   <path id="path3014" style="" d="m386.58 115.41v1.7264c-0.51594-0.26458-1.0517-0.46302-1.6073-0.59532-0.55563-0.13228-1.1311-0.19842-1.7264-0.19843-0.9062 0.00001-1.5875 0.13891-2.0439 0.41671-0.4498 0.27783-0.67469 0.69454-0.67469 1.2502 0 0.42334 0.16205 0.75738 0.48617 1.0021 0.32411 0.23813 0.97565 0.46633 1.9546 0.68461l0.62508 0.13891c1.2964 0.27781 2.2159 0.67138 2.7583 1.1807 0.549 0.50271 0.82351 1.2072 0.82352 2.1134-0.00001 1.0319-0.41012 1.8488-1.2303 2.4507-0.8136 0.60193-1.9348 0.90289-3.3635 0.90289-0.59532 0-1.2171-0.0595-1.8653-0.17859-0.64161-0.11245-1.3196-0.28443-2.034-0.51594v-1.8852c0.67469 0.35058 1.3394 0.61516 1.9943 0.79375 0.65484 0.17198 1.3031 0.25797 1.9447 0.25797 0.85989 0 1.5214-0.14552 1.9844-0.43656 0.46301-0.29765 0.69452-0.71437 0.69453-1.2502-0.00001-0.49609-0.16868-0.87642-0.50601-1.141-0.33074-0.26458-1.0616-0.51924-2.1927-0.76399l-0.635-0.14882c-1.1311-0.23812-1.948-0.60193-2.4507-1.0914-0.50271-0.49609-0.75407-1.1741-0.75406-2.034-0.00001-1.0451 0.37041-1.8521 1.1112-2.4209 0.74083-0.56885 1.7925-0.85327 3.1552-0.85328 0.67468 0.00001 1.3097 0.0496 1.905 0.14882 0.59531 0.0992 1.1443 0.24806 1.647 0.44649"/>
   <path id="path3016" style="" d="m397.17 115.41v1.7264c-0.51595-0.26458-1.0517-0.46302-1.6074-0.59532-0.55563-0.13228-1.1311-0.19842-1.7264-0.19843-0.90621 0.00001-1.5875 0.13891-2.0439 0.41671-0.4498 0.27783-0.67469 0.69454-0.67469 1.2502 0 0.42334 0.16206 0.75738 0.48617 1.0021 0.32411 0.23813 0.97565 0.46633 1.9546 0.68461l0.62508 0.13891c1.2964 0.27781 2.2159 0.67138 2.7583 1.1807 0.549 0.50271 0.82351 1.2072 0.82352 2.1134-0.00001 1.0319-0.41012 1.8488-1.2303 2.4507-0.81361 0.60193-1.9348 0.90289-3.3635 0.90289-0.59532 0-1.2171-0.0595-1.8653-0.17859-0.64162-0.11245-1.3196-0.28443-2.034-0.51594v-1.8852c0.67469 0.35058 1.3394 0.61516 1.9943 0.79375 0.65484 0.17198 1.3031 0.25797 1.9447 0.25797 0.85989 0 1.5213-0.14552 1.9844-0.43656 0.46302-0.29765 0.69453-0.71437 0.69453-1.2502 0-0.49609-0.16868-0.87642-0.50601-1.141-0.33074-0.26458-1.0616-0.51924-2.1927-0.76399l-0.635-0.14882c-1.1311-0.23812-1.948-0.60193-2.4507-1.0914-0.50271-0.49609-0.75406-1.1741-0.75406-2.034 0-1.0451 0.37041-1.8521 1.1112-2.4209 0.74083-0.56885 1.7926-0.85327 3.1552-0.85328 0.67469 0.00001 1.3097 0.0496 1.905 0.14882 0.59531 0.0992 1.1443 0.24806 1.647 0.44649"/>
   <path id="path3018" style="" d="m399.89 115.09h8.6717v1.6669l-6.8659 7.9871h6.8659v1.4585h-8.9198v-1.6669l6.8659-7.9871h-6.6179v-1.4585"/>
   <path id="path3020" style="" d="m420.87 120.19v0.89297h-8.3939c0.0794 1.2568 0.4564 2.2159 1.1311 2.8773 0.6813 0.65485 1.6272 0.98227 2.8377 0.98227 0.70113 0 1.3791-0.086 2.034-0.25797 0.66145-0.17198 1.3163-0.42995 1.9645-0.77391v1.7264c-0.65485 0.27781-1.3262 0.48948-2.0141 0.635-0.68792 0.14552-1.3858 0.21828-2.0935 0.21828-1.7727 0-3.1783-0.51594-4.2168-1.5478-1.0319-1.0319-1.5478-2.4276-1.5478-4.187-0.00001-1.819 0.48947-3.261 1.4684-4.3259 0.98557-1.0716 2.3118-1.6073 3.9787-1.6073 1.4949 0.00001 2.6756 0.48287 3.5421 1.4486 0.87312 0.95912 1.3097 2.2655 1.3097 3.9191m-1.8256-0.53578c-0.0132-0.99879-0.29436-1.7958-0.84336-2.3912-0.54241-0.59531-1.2634-0.89296-2.163-0.89297-1.0186 0.00001-1.8356 0.28774-2.4507 0.8632-0.60855 0.57548-0.95912 1.3858-1.0517 2.4309l6.5088-0.01"/>
   <path id="path3022" style="" d="m431.17 120.51c-0.00001-1.3229-0.27451-2.3482-0.82351-3.0758-0.54241-0.72759-1.3064-1.0914-2.292-1.0914-0.97896 0.00001-1.7429 0.36381-2.292 1.0914-0.5424 0.72761-0.8136 1.7529-0.81359 3.0758-0.00001 1.3163 0.27119 2.3383 0.81359 3.0659 0.54901 0.72761 1.313 1.0914 2.292 1.0914 0.98557 0 1.7496-0.3638 2.292-1.0914 0.549-0.7276 0.8235-1.7496 0.82351-3.0659m1.8256 4.3061c-0.00001 1.8918-0.42004 3.2974-1.2601 4.2168-0.84006 0.92604-2.1266 1.3891-3.8596 1.3891-0.64162-0.00001-1.2468-0.0496-1.8157-0.14883-0.56886-0.0926-1.1212-0.23813-1.657-0.43656v-1.776c0.53578 0.29104 1.065 0.50601 1.5875 0.64492 0.52255 0.1389 1.055 0.20836 1.5974 0.20836 1.1972 0 2.0935-0.31419 2.6888-0.94258 0.59531-0.62177 0.89296-1.5644 0.89297-2.8277v-0.90289c-0.37704 0.65484-0.8599 1.1443-1.4486 1.4684-0.58871 0.32411-1.2932 0.48617-2.1134 0.48617-1.3626 0-2.4606-0.51925-3.2941-1.5577-0.83344-1.0385-1.2502-2.4143-1.2502-4.1275 0-1.7198 0.41672-3.0989 1.2502-4.1374 0.83343-1.0385 1.9314-1.5577 3.2941-1.5577 0.8202 0.00001 1.5246 0.16207 2.1134 0.48617 0.58869 0.32412 1.0716 0.8136 1.4486 1.4684v-1.6867h1.8256v9.7334"/>
  </g>
 </g>
 <g id="g14" transform="translate(-1 -4.943)">
  <path id="rect16" fill="#a3bbcc" d="m270 180h62.425v40h-62.425z"/>
  <path id="rect18" d="m270 180h62.425v40h-62.425z" stroke="#000" stroke-width="2" fill="none"/>
  <g id="text20">
   <path id="path3027" style="" d="m283.47 191.39h9.525v0.85328l-5.3777 13.96h-2.0935l5.0602-13.127h-7.114v-1.6867"/>
   <path id="path3029" style="" d="m301.2 199.17c-0.9525 0-1.7033 0.25467-2.2523 0.76398-0.5424 0.50933-0.8136 1.2105-0.8136 2.1034 0 0.89297 0.2712 1.5941 0.8136 2.1034 0.549 0.50932 1.2998 0.76398 2.2523 0.76398 0.95249 0 1.7032-0.25466 2.2523-0.76398 0.549-0.51594 0.8235-1.2171 0.82351-2.1034-0.00001-0.89296-0.27451-1.5941-0.82351-2.1034-0.54241-0.50931-1.2932-0.76398-2.2523-0.76398m-2.0042-0.85328c-0.8599-0.21166-1.5313-0.61184-2.0141-1.2006-0.47625-0.58869-0.71438-1.3064-0.71437-2.153-0.00001-1.184 0.42002-2.12 1.2601-2.8079 0.84667-0.6879 2.0042-1.0319 3.4727-1.0319 1.475 0.00001 2.6326 0.34397 3.4727 1.0319 0.84004 0.68793 1.2601 1.6239 1.2601 2.8079-0.00001 0.84668-0.24144 1.5644-0.72429 2.153-0.47626 0.58871-1.141 0.98889-1.9943 1.2006 0.96572 0.2249 1.7165 0.66477 2.2523 1.3196 0.54238 0.65485 0.81358 1.4552 0.81359 2.4011-0.00001 1.4354-0.43988 2.5367-1.3196 3.304-0.87313 0.7673-2.1266 1.1509-3.7604 1.1509s-2.8906-0.38364-3.7703-1.1509c-0.87313-0.76729-1.3097-1.8686-1.3097-3.304 0-0.94588 0.2712-1.7462 0.81359-2.4011 0.5424-0.65484 1.2965-1.0947 2.2622-1.3196m-0.73422-3.1651c0 0.7673 0.23812 1.3659 0.71438 1.7959 0.48286 0.42995 1.1575 0.64493 2.0241 0.64492 0.85989 0.00001 1.5313-0.21497 2.0141-0.64492 0.48947-0.42994 0.73421-1.0286 0.73422-1.7959-0.00001-0.76728-0.24475-1.3659-0.73422-1.7959-0.48287-0.42994-1.1542-0.64491-2.0141-0.64492-0.86652 0.00001-1.5412 0.21498-2.0241 0.64492-0.47626 0.42996-0.71438 1.0286-0.71438 1.7959"/>
   <path id="path3031" style="" d="m314.14 199.17c-0.95251 0-1.7033 0.25467-2.2523 0.76398-0.5424 0.50933-0.8136 1.2105-0.81359 2.1034-0.00001 0.89297 0.27119 1.5941 0.81359 2.1034 0.54901 0.50932 1.2998 0.76398 2.2523 0.76398 0.95249 0 1.7032-0.25466 2.2523-0.76398 0.549-0.51594 0.82351-1.2171 0.82352-2.1034-0.00001-0.89296-0.27452-1.5941-0.82352-2.1034-0.5424-0.50931-1.2932-0.76398-2.2523-0.76398m-2.0042-0.85328c-0.8599-0.21166-1.5313-0.61184-2.0141-1.2006-0.47626-0.58869-0.71438-1.3064-0.71438-2.153 0-1.184 0.42002-2.12 1.2601-2.8079 0.84666-0.6879 2.0042-1.0319 3.4727-1.0319 1.475 0.00001 2.6326 0.34397 3.4726 1.0319 0.84004 0.68793 1.2601 1.6239 1.2601 2.8079-0.00001 0.84668-0.24144 1.5644-0.7243 2.153-0.47626 0.58871-1.141 0.98889-1.9943 1.2006 0.96572 0.2249 1.7165 0.66477 2.2523 1.3196 0.54239 0.65485 0.81358 1.4552 0.8136 2.4011-0.00002 1.4354-0.43989 2.5367-1.3196 3.304-0.87314 0.7673-2.1266 1.1509-3.7604 1.1509s-2.8906-0.38364-3.7703-1.1509c-0.87312-0.76729-1.3097-1.8686-1.3097-3.304-0.00001-0.94588 0.27119-1.7462 0.81359-2.4011 0.54239-0.65484 1.2964-1.0947 2.2622-1.3196m-0.73422-3.1651c-0.00001 0.7673 0.23812 1.3659 0.71437 1.7959 0.48286 0.42995 1.1576 0.64493 2.0241 0.64492 0.85988 0.00001 1.5313-0.21497 2.0141-0.64492 0.48947-0.42994 0.73421-1.0286 0.73421-1.7959 0-0.76728-0.24474-1.3659-0.73421-1.7959-0.48288-0.42994-1.1543-0.64491-2.0141-0.64492-0.86652 0.00001-1.5412 0.21498-2.0241 0.64492-0.47625 0.42996-0.71438 1.0286-0.71437 1.7959"/>
  </g>
 </g>
 <g id="g24" transform="translate(-1 -4.943)">
  <path id="rect26" fill="#a3bbcc" d="m370 180h60v40h-60z"/>
  <path id="rect28" d="m370 180h60v40h-60z" stroke="#000" stroke-width="2" fill="none"/>
  <g id="text30">
   <path id="path3036" style="" d="m382.79 191.39h7.868v1.6867h-6.0325v3.6314c0.29104-0.0992 0.58208-0.17197 0.87313-0.21828 0.29104-0.0529 0.58208-0.0794 0.87312-0.0794 1.6536 0.00001 2.9633 0.4531 3.9291 1.3593 0.96571 0.90621 1.4486 2.1332 1.4486 3.681-0.00001 1.5941-0.4961 2.8344-1.4883 3.7207-0.9922 0.87974-2.3912 1.3196-4.197 1.3196-0.62178 0-1.2568-0.0529-1.905-0.15875-0.64162-0.10583-1.3064-0.26458-1.9943-0.47625v-2.0141c0.59531 0.32412 1.2105 0.56555 1.8455 0.7243 0.63499 0.15875 1.3064 0.23812 2.0141 0.23812 1.1443 0 2.0505-0.30096 2.7186-0.90289 0.66807-0.60192 1.0021-1.4188 1.0021-2.4507-0.00001-1.0319-0.33404-1.8488-1.0021-2.4507-0.66808-0.60192-1.5743-0.90289-2.7186-0.90289-0.53579 0-1.0716 0.0595-1.6074 0.17859-0.52917 0.11907-1.0716 0.30428-1.6272 0.55562v-7.4414"/>
   <path id="path3038" style="" d="m400.24 197.99c-0.89958 0-1.614 0.30758-2.1431 0.92273-0.52256 0.61516-0.78383 1.4585-0.78383 2.5301 0 1.065 0.26127 1.9083 0.78383 2.5301 0.52916 0.61515 1.2435 0.92273 2.1431 0.92273 0.89958 0 1.6106-0.30758 2.1332-0.92273 0.52916-0.62177 0.79374-1.4651 0.79375-2.5301-0.00001-1.0716-0.26459-1.9149-0.79375-2.5301-0.52256-0.61515-1.2336-0.92273-2.1332-0.92273m3.9787-6.2806v1.8256c-0.50272-0.23811-1.012-0.42001-1.528-0.5457-0.50933-0.12566-1.0154-0.1885-1.518-0.18851-1.3229 0.00001-2.335 0.44649-3.0361 1.3394-0.69454 0.89298-1.0914 2.2424-1.1906 4.0481 0.39026-0.57546 0.87974-1.0153 1.4684-1.3196 0.58869-0.31087 1.2369-0.46631 1.9447-0.46632 1.4883 0.00001 2.6624 0.4531 3.5223 1.3593 0.8665 0.89959 1.2998 2.1266 1.2998 3.681-0.00001 1.5214-0.4498 2.7418-1.3494 3.6612-0.89959 0.91943-2.0968 1.3791-3.5917 1.3791-1.7132 0-3.0229-0.65484-3.9291-1.9645-0.9062-1.3163-1.3593-3.2213-1.3593-5.715-0.00001-2.3416 0.55562-4.2069 1.6669-5.5959 1.1112-1.3957 2.6028-2.0935 4.4748-2.0935 0.5027 0.00001 1.0087 0.0496 1.518 0.14883 0.51593 0.0992 1.0517 0.24806 1.6074 0.44648"/>
   <path id="path3040" style="" d="m408.14 191.39h9.525v0.85328l-5.3777 13.96h-2.0935l5.0602-13.127h-7.114v-1.6867"/>
  </g>
 </g>
 <g id="g34" transform="translate(-1 -4.943)">
  <path id="rect36" fill="#a3bbcc" d="m470 180h60v40h-60z"/>
  <path id="rect38" d="m470 180h60v40h-60z" stroke="#000" stroke-width="2" fill="none"/>
  <g id="text40">
   <path id="path3045" style="" d="m495.31 198.21c0.95911 0.20506 1.7066 0.6317 2.2424 1.2799 0.54238 0.64823 0.81358 1.4486 0.81359 2.4011-0.00001 1.4618-0.50272 2.5929-1.5081 3.3933-1.0054 0.80037-2.4342 1.2006-4.2862 1.2006-0.62178 0-1.2634-0.0628-1.9248-0.18851-0.65484-0.11907-1.3328-0.30097-2.034-0.54571v-1.9348c0.55562 0.32411 1.1642 0.56885 1.8256 0.73422 0.66146 0.16536 1.3527 0.24804 2.0737 0.24804 1.2568 0 2.2126-0.24804 2.8674-0.74414 0.66145-0.49609 0.99217-1.2171 0.99218-2.163-0.00001-0.87312-0.30758-1.5544-0.92273-2.0439-0.60855-0.49609-1.4585-0.74414-2.5499-0.74414h-1.7264v-1.647h1.8058c0.98557 0 1.7396-0.19513 2.2622-0.5854 0.52254-0.39686 0.78382-0.96571 0.78383-1.7066-0.00001-0.76066-0.27121-1.3428-0.8136-1.7462-0.53578-0.41009-1.3064-0.61514-2.3118-0.61515-0.54902 0.00001-1.1377 0.0595-1.7661 0.17859-0.62838 0.11908-1.3196 0.30428-2.0737 0.55562v-1.7859c0.76068-0.21165 1.4717-0.3704 2.1332-0.47625 0.66806-0.10582 1.2964-0.15874 1.8852-0.15875 1.5214 0.00001 2.7252 0.34728 3.6116 1.0418 0.88635 0.68793 1.3295 1.6206 1.3295 2.798-0.00002 0.82022-0.23483 1.5148-0.70446 2.0836-0.46964 0.56224-1.1377 0.9525-2.0042 1.1708"/>
   <path id="path3047" style="" d="m507.68 193.13-5.0602 7.9077h5.0602v-7.9077m-0.52586-1.7462h2.5202v9.654h2.1134v1.6669h-2.1134v3.4925h-1.9943v-3.4925h-6.6873v-1.9348l6.1615-9.3861"/>
  </g>
 </g>
 <path id="line44" d="m399 135.06-98.788 40" stroke="#000" stroke-width="2" fill="none"/>
 <path id="line46" d="m399 175.06v-40" stroke="#000" stroke-width="2" fill="none"/>
 <path id="line48" d="m499 175.06-100-40" stroke="#000" stroke-width="2" fill="none"/>
 <g id="text50">
  <path id="path3053" style="" d="m418.35 152.32v5.5265h5.5265v1.6867h-5.5265v5.5265h-1.6669v-5.5265h-5.5265v-1.6867h5.5265v-5.5265h1.6669"/>
 </g>
 <g id="text54">
  <path id="path3056" style="" d="m479.99 158.68h5.3479v1.6272h-5.3479v-1.6272"/>
 </g>
</svg>
