<?xml version="1.0" encoding="UTF-8" standalone="no"?>
<!-- Created with Inkscape (http://www.inkscape.org/) -->
<svg id="svg2" xmlns:rdf="http://www.w3.org/1999/02/22-rdf-syntax-ns#" xmlns="http://www.w3.org/2000/svg" height="239.71" width="954.86" version="1.1" xmlns:cc="http://creativecommons.org/ns#" xmlns:dc="http://purl.org/dc/elements/1.1/" viewBox="178 89 522.00001 127.57219">
 <metadata id="metadata150">
  <rdf:RDF>
   <cc:Work rdf:about="">
    <dc:format>image/svg+xml</dc:format>
    <dc:type rdf:resource="http://purl.org/dc/dcmitype/StillImage"/>
   </cc:Work>
  </rdf:RDF>
 </metadata>
 <g id="g4" transform="translate(-1 -1.736)">
  <path id="rect6" fill="#fff" d="m400 100h100v100h-100z"/>
  <path id="rect8" d="m400 100h100v100h-100z" stroke="#000" stroke-width="2" fill="none"/>
 </g>
 <g id="text10">
  <path id="path3056" style="" d="m430.02 146.66c0.38033-0.6835 0.83508-1.1879 1.3643-1.5131 0.52915-0.32521 1.152-0.48782 1.8686-0.48783 0.96461 0.00001 1.7088 0.33901 2.2324 1.017 0.52364 0.67249 0.78547 1.6316 0.78548 2.8773v5.5893h-1.5296v-5.5397c-0.00001-0.88745-0.15711-1.5462-0.47129-1.9761-0.3142-0.42994-0.79376-0.64492-1.4387-0.64492-0.78824 0-1.4111 0.26183-1.8686 0.78548-0.45752 0.52366-0.68627 1.2375-0.68626 2.1415v5.2338h-1.5296v-5.5397c-0.00001-0.89296-0.15711-1.5517-0.47129-1.9761-0.3142-0.42994-0.79927-0.64492-1.4552-0.64492-0.77721 0-1.3946 0.26459-1.8521 0.79374-0.45751 0.52366-0.68626 1.2347-0.68626 2.1332v5.2338h-1.5296v-9.2604h1.5296v1.4387c0.34726-0.56774 0.76343-0.98666 1.2485-1.2568 0.48507-0.27008 1.0611-0.40513 1.7281-0.40514 0.67247 0.00001 1.243 0.17089 1.7115 0.51263 0.47403 0.34176 0.82405 0.83785 1.0501 1.4883"/>
  <path id="path3058" style="" d="m443.53 149.48c-1.2292 0-2.0808 0.14056-2.5549 0.42168-0.47405 0.28112-0.71107 0.76068-0.71107 1.4387 0 0.54019 0.17638 0.97013 0.52916 1.2898 0.35829 0.31419 0.84336 0.47129 1.4552 0.47129 0.84335 0 1.5186-0.29766 2.0257-0.89297 0.51262-0.60082 0.76894-1.3973 0.76895-2.3895v-0.33899h-1.5131m3.0344-0.62839v5.2834h-1.5214v-1.4056c-0.34728 0.56223-0.77998 0.9784-1.2981 1.2485-0.51815 0.26458-1.152 0.39687-1.9017 0.39687-0.94809 0-1.7033-0.26458-2.2655-0.79375-0.55673-0.53468-0.83509-1.2485-0.83509-2.1415 0-1.0418 0.34726-1.8273 1.0418-2.3564 0.70004-0.52916 1.7418-0.79374 3.1254-0.79374h2.1332v-0.14883c-0.00001-0.70004-0.23152-1.2402-0.69453-1.6206-0.45752-0.38584-1.1024-0.57877-1.9348-0.57878-0.52917 0.00001-1.0446 0.0634-1.5462 0.19017-0.50161 0.12679-0.98392 0.31696-1.4469 0.57051v-1.4056c0.55673-0.21496 1.0969-0.37481 1.6206-0.47955 0.52365-0.11024 1.0335-0.16536 1.5296-0.16537 1.3394 0.00001 2.3399 0.34728 3.0014 1.0418 0.66145 0.69453 0.99218 1.7474 0.99219 3.1584"/>
  <path id="path3060" style="" d="m449.7 144.88h1.5214v9.2604h-1.5214v-9.2604m0-3.6049h1.5214v1.9265h-1.5214v-1.9265"/>
  <path id="path3062" style="" d="m462.1 148.55v5.5893h-1.5214v-5.5397c-0.00001-0.87643-0.17089-1.5324-0.51263-1.9678-0.34176-0.43545-0.85439-0.65318-1.5379-0.65318-0.82131 0-1.469 0.26183-1.943 0.78548-0.47405 0.52366-0.71107 1.2375-0.71106 2.1415v5.2338h-1.5296v-9.2604h1.5296v1.4387c0.36379-0.55672 0.79098-0.97288 1.2816-1.2485 0.49609-0.2756 1.0666-0.4134 1.7115-0.41341 1.0638 0.00001 1.8686 0.33074 2.4143 0.99219 0.54569 0.65595 0.81854 1.6233 0.81855 2.9021"/>
  <path id="path3064" style="" d="m468.8 141.29c-0.73863 1.2678-1.2871 2.5218-1.6454 3.762-0.35829 1.2402-0.53743 2.497-0.53743 3.7703s0.17914 2.5356 0.53743 3.7868c0.3638 1.2458 0.91226 2.4998 1.6454 3.762h-1.3229c-0.82682-1.2954-1.4469-2.5687-1.8603-3.8199-0.4079-1.2512-0.61185-2.4942-0.61185-3.729 0-1.2292 0.20395-2.4667 0.61185-3.7124 0.40789-1.2457 1.028-2.519 1.8603-3.8199h1.3229"/>
  <path id="path3066" style="" d="m471.52 141.29h1.3229c0.82682 1.3009 1.4442 2.5742 1.8521 3.8199 0.41341 1.2458 0.62011 2.4832 0.62012 3.7124-0.00001 1.2347-0.20671 2.4777-0.62012 3.729-0.4079 1.2513-1.0253 2.5246-1.8521 3.8199h-1.3229c0.73311-1.2623 1.2788-2.5163 1.6371-3.762 0.36379-1.2512 0.54569-2.5135 0.5457-3.7868-0.00001-1.2733-0.18191-2.5301-0.5457-3.7703-0.3583-1.2402-0.904-2.4942-1.6371-3.762"/>
 </g>
 <g id="g14" transform="translate(-1 -1.736)">
  <path id="rect16" fill="#fff" d="m600 100.77h100v100h-100z"/>
  <path id="rect18" d="m600 100.77h100v100h-100z" stroke="#000" stroke-width="2" fill="none"/>
 </g>
 <g id="text20">
  <path id="path3071" style="" d="m625.99 153.52v4.9113h-1.5296v-12.783h1.5296v1.4056c0.3197-0.55121 0.72209-0.95911 1.2072-1.2237 0.49058-0.27009 1.0749-0.40513 1.7529-0.40514 1.1245 0.00001 2.0367 0.44649 2.7368 1.3394 0.70555 0.89297 1.0583 2.0671 1.0583 3.5223-0.00001 1.4552-0.35278 2.6293-1.0583 3.5223-0.70005 0.89296-1.6123 1.3394-2.7368 1.3394-0.678 0-1.2623-0.1323-1.7529-0.39688-0.48507-0.27009-0.88746-0.68075-1.2072-1.232m5.1759-3.2329c0-1.119-0.23151-1.9954-0.69453-2.6293-0.45751-0.63941-1.0886-0.95911-1.8934-0.95912-0.80477 0.00001-1.4387 0.31971-1.9017 0.95912-0.45752 0.6339-0.68627 1.5103-0.68627 2.6293s0.22875 1.9982 0.68627 2.6376c0.46301 0.63389 1.0969 0.95084 1.9017 0.95084 0.80477 0 1.4359-0.31695 1.8934-0.95084 0.46302-0.63941 0.69453-1.5186 0.69453-2.6376"/>
  <path id="path3073" style="" d="m640.63 147.07c-0.17089-0.0992-0.3583-0.17087-0.56224-0.21497-0.19844-0.0496-0.41893-0.0744-0.66146-0.0744-0.8599 0.00001-1.5214 0.28113-1.9844 0.84336-0.45751 0.55674-0.68626 1.3588-0.68626 2.406v4.8782h-1.5296v-9.2604h1.5296v1.4387c0.3197-0.56223 0.73587-0.9784 1.2485-1.2485 0.51262-0.2756 1.1355-0.4134 1.8686-0.41341 0.10472 0.00001 0.22048 0.008 0.34726 0.0248 0.12677 0.011 0.26733 0.0303 0.42168 0.0579l0.008 1.5627"/>
  <path id="path3075" style="" d="m642.24 145.65h1.5214v9.2604h-1.5214v-9.2604m0-3.6049h1.5214v1.9265h-1.5214v-1.9265"/>
  <path id="path3077" style="" d="m654.15 147.43c0.38033-0.6835 0.83508-1.1879 1.3642-1.5131 0.52916-0.3252 1.152-0.48781 1.8686-0.48782 0.96461 0.00001 1.7088 0.339 2.2324 1.017 0.52363 0.67249 0.78546 1.6316 0.78548 2.8773v5.5893h-1.5296v-5.5397c-0.00002-0.88745-0.15711-1.5462-0.47129-1.9761-0.31421-0.42994-0.79376-0.64491-1.4387-0.64492-0.78825 0.00001-1.4111 0.26184-1.8686 0.78548-0.45751 0.52366-0.68627 1.2375-0.68626 2.1415v5.2338h-1.5296v-5.5397c-0.00001-0.89297-0.1571-1.5517-0.47129-1.9761-0.3142-0.42994-0.79926-0.64491-1.4552-0.64492-0.77722 0.00001-1.3946 0.26459-1.8521 0.79375-0.45751 0.52366-0.68627 1.2347-0.68626 2.1332v5.2338h-1.5296v-9.2604h1.5296v1.4387c0.34726-0.56774 0.76342-0.98667 1.2485-1.2568 0.48506-0.27009 1.0611-0.40513 1.728-0.40514 0.67248 0.00001 1.243 0.17088 1.7115 0.51263 0.47404 0.34176 0.82406 0.83785 1.0501 1.4883"/>
  <path id="path3079" style="" d="m667.1 142.06c-0.73863 1.2678-1.2871 2.5218-1.6454 3.762-0.35829 1.2402-0.53743 2.497-0.53743 3.7703s0.17914 2.5356 0.53743 3.7868c0.3638 1.2457 0.91226 2.4998 1.6454 3.762h-1.3229c-0.82682-1.2954-1.4469-2.5687-1.8603-3.8199-0.4079-1.2512-0.61185-2.4942-0.61185-3.729 0-1.2292 0.20395-2.4667 0.61185-3.7124 0.40789-1.2457 1.028-2.519 1.8603-3.8199h1.3229"/>
  <path id="path3081" style="" d="m669.82 142.06h1.3229c0.82682 1.3009 1.4442 2.5742 1.8521 3.8199 0.41341 1.2458 0.62011 2.4832 0.62012 3.7124-0.00001 1.2347-0.20671 2.4777-0.62012 3.729-0.4079 1.2513-1.0253 2.5246-1.8521 3.8199h-1.3229c0.73311-1.2623 1.2788-2.5163 1.6371-3.762 0.36379-1.2512 0.5457-2.5135 0.5457-3.7868s-0.18191-2.5301-0.5457-3.7703c-0.3583-1.2402-0.904-2.4942-1.6371-3.762"/>
 </g>
 <g id="g24" stroke="#000" stroke-width="2" fill="none" transform="translate(-1 -1.736)">
  <path id="line26" d="m500 120h95.528"/>
  <path id="polyline28" d="m587.76 125 10-5-10-5"/>
 </g>
 <g id="g30" stroke="#000" stroke-width="2" fill="none" transform="translate(-1 -1.736)">
  <path id="line32" d="m600 180h-95.528"/>
  <path id="polyline34" d="m512.24 175-10 5 10 5"/>
 </g>
 <g id="text36">
  <path id="path3088" style="" d="m534.19 105.28v1.4387c-0.42995-0.22048-0.87644-0.38584-1.3394-0.49609-0.46303-0.11024-0.94258-0.16536-1.4387-0.16537-0.75517 0.00001-1.3229 0.11576-1.7032 0.34727-0.37483 0.23151-0.56224 0.57878-0.56224 1.0418 0 0.35278 0.13505 0.63115 0.40514 0.83509 0.2701 0.19844 0.81304 0.38861 1.6288 0.57051l0.5209 0.11575c1.0804 0.23152 1.8466 0.55949 2.2986 0.98392 0.4575 0.41893 0.68626 1.006 0.68626 1.7611 0 0.85989-0.34176 1.5406-1.0252 2.0422-0.678 0.5016-1.6123 0.7524-2.8029 0.7524-0.4961 0-1.0142-0.0496-1.5544-0.14882-0.53468-0.0937-1.0997-0.23703-1.695-0.42995v-1.571c0.56224 0.29214 1.1162 0.51263 1.6619 0.66146 0.5457 0.14331 1.0859 0.21497 1.6206 0.21497 0.71658 0 1.2678-0.12127 1.6536-0.3638 0.38584-0.24805 0.57876-0.59531 0.57877-1.0418-0.00001-0.4134-0.14056-0.73035-0.42168-0.95084-0.27561-0.22048-0.8847-0.4327-1.8273-0.63665l-0.52917-0.12403c-0.94258-0.19843-1.6233-0.5016-2.0422-0.9095-0.41892-0.4134-0.62838-0.9784-0.62838-1.695 0-0.87091 0.30868-1.5434 0.92604-2.0174 0.61736-0.47403 1.4938-0.71105 2.6293-0.71106 0.56223 0.00001 1.0914 0.0413 1.5875 0.12402 0.49608 0.0827 0.95359 0.20671 1.3725 0.37207"/>
  <path id="path3090" style="" d="m536.46 105h7.2264v1.3891l-5.7216 6.6559h5.7216v1.2154h-7.4331v-1.3891l5.7216-6.6559h-5.5149v-1.2154"/>
  <path id="path3092" style="" d="m550.22 109.61c-1.2292 0.00001-2.0808 0.14057-2.5549 0.42168-0.47405 0.28112-0.71107 0.76068-0.71107 1.4387 0 0.54019 0.17639 0.97014 0.52917 1.2898 0.35828 0.3142 0.84335 0.47129 1.4552 0.47129 0.84335 0 1.5186-0.29765 2.0257-0.89297 0.51263-0.60082 0.76894-1.3973 0.76895-2.3895v-0.339h-1.5131m3.0344-0.62838v5.2834h-1.5214v-1.4056c-0.34727 0.56224-0.77998 0.97841-1.2981 1.2485-0.51815 0.26458-1.152 0.39687-1.9017 0.39687-0.94809 0-1.7033-0.26458-2.2655-0.79374-0.55673-0.53468-0.83509-1.2485-0.83509-2.1415 0-1.0418 0.34726-1.8273 1.0418-2.3564 0.70004-0.52916 1.7418-0.79374 3.1254-0.79375h2.1332v-0.14883c-0.00001-0.70003-0.23152-1.2402-0.69453-1.6206-0.45752-0.38584-1.1024-0.57876-1.9348-0.57877-0.52917 0.00001-1.0446 0.0634-1.5462 0.19017-0.50161 0.12678-0.98392 0.31695-1.4469 0.5705v-1.4056c0.55673-0.21497 1.0969-0.37482 1.6206-0.47956 0.52365-0.11023 1.0335-0.16535 1.5296-0.16536 1.3394 0.00001 2.3399 0.34727 3.0014 1.0418 0.66145 0.69454 0.99218 1.7474 0.99219 3.1585m-2.7781-8.26h1.6454l-2.6954 3.1088h-1.265l2.3151-3.1088"/>
  <path id="path3094" style="" d="m563.61 106.78c0.38033-0.68349 0.83508-1.1878 1.3643-1.5131 0.52915-0.32521 1.152-0.48781 1.8686-0.48782 0.96461 0.00001 1.7088 0.339 2.2324 1.017 0.52364 0.67249 0.78547 1.6316 0.78548 2.8773v5.5893h-1.5296v-5.5397c-0.00001-0.88744-0.15711-1.5461-0.47129-1.9761-0.3142-0.42994-0.79376-0.64491-1.4387-0.64492-0.78824 0.00001-1.4111 0.26184-1.8686 0.78548-0.45752 0.52366-0.68627 1.2375-0.68626 2.1415v5.2338h-1.5296v-5.5397c-0.00001-0.89296-0.15711-1.5517-0.47129-1.9761-0.3142-0.42994-0.79927-0.64491-1.4552-0.64492-0.77721 0.00001-1.3946 0.26459-1.8521 0.79375-0.45751 0.52366-0.68626 1.2347-0.68626 2.1332v5.2338h-1.5296v-9.2604h1.5296v1.4387c0.34726-0.56775 0.76343-0.98667 1.2485-1.2568 0.48507-0.27009 1.0611-0.40513 1.7281-0.40514 0.67247 0.00001 1.243 0.17088 1.7115 0.51263 0.47403 0.34176 0.82406 0.83785 1.0501 1.4883"/>
 </g>
 <g id="text40">
  <path id="path3097" style="" d="m524.34 172.87v4.9113h-1.5296v-12.783h1.5296v1.4056c0.3197-0.55121 0.72209-0.9591 1.2072-1.2237 0.49058-0.27008 1.0749-0.40513 1.7529-0.40514 1.1245 0.00001 2.0367 0.44649 2.7368 1.3394 0.70554 0.89298 1.0583 2.0671 1.0583 3.5223-0.00001 1.4552-0.35279 2.6293-1.0583 3.5223-0.70005 0.89297-1.6123 1.3394-2.7368 1.3394-0.678 0-1.2623-0.13229-1.7529-0.39687-0.48507-0.2701-0.88746-0.68075-1.2072-1.232m5.1759-3.2329c-0.00001-1.119-0.23152-1.9954-0.69453-2.6293-0.45751-0.6394-1.0886-0.95911-1.8934-0.95911-0.80478 0-1.4387 0.31971-1.9017 0.95911-0.45751 0.6339-0.68626 1.5103-0.68626 2.6293s0.22875 1.9982 0.68626 2.6376c0.46302 0.6339 1.0969 0.95085 1.9017 0.95085 0.80477 0 1.4359-0.31695 1.8934-0.95085 0.46301-0.63941 0.69452-1.5186 0.69453-2.6376"/>
  <path id="path3099" style="" d="m538.98 166.43c-0.17089-0.0992-0.3583-0.17087-0.56224-0.21498-0.19845-0.0496-0.41893-0.0744-0.66146-0.0744-0.8599 0.00001-1.5214 0.28113-1.9844 0.84336-0.45751 0.55673-0.68627 1.3588-0.68626 2.406v4.8782h-1.5296v-9.2604h1.5296v1.4387c0.3197-0.56223 0.73586-0.97839 1.2485-1.2485 0.51262-0.2756 1.1355-0.4134 1.8686-0.41341 0.10473 0.00001 0.22048 0.008 0.34727 0.0248 0.12677 0.011 0.26733 0.0303 0.42168 0.0579l0.008 1.5627"/>
  <path id="path3101" style="" d="m542.5 160.72h1.6454l-2.6954 3.1088h-1.265l2.3151-3.1088m-1.91 4.2829h1.5214v9.2604h-1.5214v-9.2604m0.76067-0.22324"/>
  <path id="path3103" style="" d="m552.5 166.78c0.38033-0.6835 0.83508-1.1879 1.3643-1.5131 0.52915-0.32521 1.152-0.48782 1.8686-0.48783 0.96461 0.00001 1.7088 0.33901 2.2324 1.017 0.52364 0.67249 0.78547 1.6316 0.78548 2.8773v5.5893h-1.5296v-5.5397c-0.00001-0.88745-0.15711-1.5462-0.47128-1.9761-0.31421-0.42994-0.79377-0.64492-1.4387-0.64492-0.78825 0-1.4111 0.26183-1.8686 0.78548-0.45752 0.52366-0.68627 1.2375-0.68626 2.1415v5.2338h-1.5296v-5.5397c-0.00001-0.89296-0.1571-1.5517-0.47129-1.9761-0.3142-0.42994-0.79927-0.64492-1.4552-0.64492-0.77722 0-1.3946 0.26459-1.8521 0.79374-0.45752 0.52366-0.68627 1.2347-0.68627 2.1332v5.2338h-1.5296v-9.2604h1.5296v1.4387c0.34727-0.56774 0.76343-0.98666 1.2485-1.2568 0.48507-0.27008 1.0611-0.40513 1.7281-0.40514 0.67248 0.00001 1.243 0.17089 1.7115 0.51263 0.47404 0.34176 0.82406 0.83785 1.0501 1.4883"/>
  <path id="path3105" style="" d="m561.02 168.95h4.4566v1.356h-4.4566v-1.356"/>
  <path id="path3107" style="" d="m575.83 169.25v0.74414h-6.9949c0.0662 1.0473 0.38034 1.8466 0.94258 2.3978 0.56774 0.5457 1.356 0.81855 2.3647 0.81855 0.58428 0 1.1493-0.0717 1.695-0.21497 0.55121-0.14332 1.0969-0.35829 1.6371-0.64493v1.4387c-0.54571 0.23151-1.1052 0.4079-1.6784 0.52917-0.57327 0.12127-1.1548 0.1819-1.7446 0.1819-1.4773 0-2.6486-0.42995-3.514-1.2898-0.8599-0.85989-1.2898-2.023-1.2898-3.4892-0.00001-1.5158 0.40789-2.7175 1.2237-3.6049 0.82131-0.89296 1.9265-1.3394 3.3156-1.3394 1.2457 0.00001 2.2297 0.4024 2.9518 1.2072 0.72759 0.79927 1.0914 1.8879 1.0914 3.2659m-1.5214-0.44648c-0.011-0.83233-0.2453-1.4965-0.7028-1.9926-0.452-0.49608-1.0528-0.74413-1.8025-0.74414-0.84887 0.00001-1.5296 0.23979-2.0422 0.71934-0.50712 0.47956-0.79926 1.1548-0.87643 2.0257l5.424-0.008"/>
 </g>
 <g id="text44">
  <path id="path3110" style="" d="m410.97 201.15v1.265h-1.4552c-0.54571 0.00001-0.92604 0.11025-1.141 0.33073-0.20947 0.22049-0.3142 0.61737-0.3142 1.1906v0.81855h2.5053v1.1824h-2.5053v8.078h-1.5296v-8.078h-1.4552v-1.1824h1.4552v-0.64492c0-1.0308 0.23978-1.7804 0.71934-2.249 0.47955-0.47403 1.2402-0.71105 2.282-0.71107h1.4387"/>
  <path id="path3112" style="" d="m418.28 200.47h1.4718l-2.0505 3.1088h-1.1162l1.695-3.1088m-2.7616 0h1.4056l-1.8438 3.1088h-1.1328l1.571-3.1088m0.30593 5.3495c-0.81581 0.00001-1.4607 0.31971-1.9348 0.95912-0.47404 0.6339-0.71107 1.5048-0.71106 2.6128-0.00001 1.1079 0.23426 1.9816 0.7028 2.621 0.47404 0.6339 1.1217 0.95085 1.943 0.95085 0.81027 0 1.4524-0.3197 1.9265-0.95911 0.47404-0.63941 0.71106-1.5103 0.71107-2.6128-0.00001-1.0969-0.23703-1.9651-0.71107-2.6045-0.47405-0.64491-1.1162-0.96737-1.9265-0.96738m0-1.2898c1.3229 0.00001 2.3619 0.42996 3.1171 1.2898 0.75516 0.8599 1.1327 2.0505 1.1328 3.5719-0.00001 1.5158-0.37759 2.7065-1.1328 3.5719-0.75517 0.85989-1.7942 1.2898-3.1171 1.2898-1.3284 0-2.3702-0.42995-3.1254-1.2898-0.74965-0.86541-1.1245-2.056-1.1245-3.5719 0-1.5213 0.37483-2.712 1.1245-3.5719 0.75516-0.85988 1.797-1.2898 3.1254-1.2898"/>
  <path id="path3114" style="" d="m424.06 212.62v4.9113h-1.5296v-12.783h1.5296v1.4056c0.3197-0.55121 0.72208-0.9591 1.2072-1.2237 0.49057-0.27008 1.0749-0.40513 1.7529-0.40514 1.1245 0.00001 2.0367 0.44649 2.7368 1.3394 0.70554 0.89298 1.0583 2.0671 1.0583 3.5223-0.00001 1.4552-0.35279 2.6293-1.0583 3.5223-0.70006 0.89297-1.6123 1.3394-2.7368 1.3394-0.678 0-1.2623-0.13229-1.7529-0.39687-0.48508-0.2701-0.88746-0.68075-1.2072-1.232m5.1759-3.2329c-0.00001-1.119-0.23152-1.9954-0.69453-2.6293-0.45752-0.6394-1.0887-0.95911-1.8934-0.95911-0.80478 0-1.4387 0.31971-1.9017 0.95911-0.45751 0.6339-0.68627 1.5103-0.68626 2.6293-0.00001 1.119 0.22875 1.9982 0.68626 2.6376 0.46301 0.6339 1.0969 0.95085 1.9017 0.95085 0.80476 0 1.4359-0.31695 1.8934-0.95085 0.46301-0.63941 0.69452-1.5186 0.69453-2.6376"/>
  <path id="path3116" style="" d="m438.7 206.18c-0.17088-0.0992-0.35829-0.17087-0.56224-0.21498-0.19844-0.0496-0.41893-0.0744-0.66145-0.0744-0.8599 0.00001-1.5214 0.28113-1.9844 0.84336-0.45751 0.55673-0.68626 1.3588-0.68626 2.406v4.8782h-1.5296v-9.2604h1.5296v1.4387c0.3197-0.56223 0.73587-0.97839 1.2485-1.2485 0.51263-0.2756 1.1355-0.4134 1.8686-0.41341 0.10472 0.00001 0.22048 0.008 0.34726 0.0248 0.12678 0.011 0.26734 0.0303 0.42168 0.0579l0.008 1.5627"/>
  <path id="path3118" style="" d="m443.53 205.82c-0.81581 0.00001-1.4607 0.31971-1.9348 0.95912-0.47404 0.6339-0.71107 1.5048-0.71106 2.6128-0.00001 1.1079 0.23426 1.9816 0.7028 2.621 0.47404 0.6339 1.1217 0.95085 1.943 0.95085 0.81027 0 1.4524-0.3197 1.9265-0.95911 0.47404-0.63941 0.71106-1.5103 0.71107-2.6128-0.00001-1.0969-0.23703-1.9651-0.71107-2.6045-0.47405-0.64491-1.1162-0.96737-1.9265-0.96738m0-1.2898c1.3229 0.00001 2.3619 0.42996 3.1171 1.2898 0.75516 0.8599 1.1327 2.0505 1.1328 3.5719-0.00001 1.5158-0.37759 2.7065-1.1328 3.5719-0.75517 0.85989-1.7942 1.2898-3.1171 1.2898-1.3284 0-2.3702-0.42995-3.1254-1.2898-0.74965-0.86541-1.1245-2.056-1.1245-3.5719 0-1.5213 0.37483-2.712 1.1245-3.5719 0.75516-0.85988 1.797-1.2898 3.1254-1.2898"/>
  <path id="path3120" style="" d="m456.39 209.28c-0.00001-1.1024-0.22876-1.9568-0.68626-2.5632-0.45201-0.60633-1.0887-0.9095-1.91-0.9095-0.8158 0-1.4525 0.30317-1.91 0.9095-0.452 0.60634-0.678 1.4607-0.67799 2.5632-0.00001 1.0969 0.22599 1.9485 0.67799 2.5549 0.4575 0.60634 1.0942 0.90951 1.91 0.90951 0.8213 0 1.458-0.30317 1.91-0.90951 0.4575-0.60633 0.68625-1.458 0.68626-2.5549m1.5214 3.5884c-0.00001 1.5765-0.35003 2.7478-1.0501 3.514-0.70004 0.7717-1.7722 1.1576-3.2163 1.1576-0.53468 0-1.039-0.0413-1.5131-0.12402-0.47405-0.0772-0.93431-0.19844-1.3808-0.3638v-1.48c0.44648 0.24253 0.88745 0.42167 1.3229 0.53743 0.43546 0.11575 0.87918 0.17363 1.3312 0.17363 0.99769 0 1.7446-0.26183 2.2407-0.78548 0.49608-0.51814 0.74413-1.3036 0.74414-2.3564v-0.75241c-0.3142 0.54571-0.71659 0.95361-1.2072 1.2237-0.49059 0.27009-1.0776 0.40514-1.7611 0.40514-1.1355 0-2.0505-0.4327-2.745-1.2981-0.69453-0.8654-1.0418-2.0119-1.0418-3.4396 0-1.4332 0.34726-2.5824 1.0418-3.4478 0.69453-0.8654 1.6095-1.2981 2.745-1.2981 0.6835 0.00001 1.2705 0.13506 1.7611 0.40514 0.49057 0.27011 0.89296 0.67801 1.2072 1.2237v-1.4056h1.5214v8.1111"/>
  <path id="path3122" style="" d="m466.41 206.18c-0.17088-0.0992-0.3583-0.17087-0.56224-0.21498-0.19844-0.0496-0.41893-0.0744-0.66146-0.0744-0.85989 0.00001-1.5214 0.28113-1.9844 0.84336-0.45751 0.55673-0.68626 1.3588-0.68626 2.406v4.8782h-1.5296v-9.2604h1.5296v1.4387c0.3197-0.56223 0.73587-0.97839 1.2485-1.2485 0.51263-0.2756 1.1355-0.4134 1.8686-0.41341 0.10472 0.00001 0.22048 0.008 0.34726 0.0248 0.12678 0.011 0.26734 0.0303 0.42168 0.0579l0.008 1.5627"/>
  <path id="path3124" style="" d="m472.23 209.36c-1.2292 0-2.0808 0.14056-2.5549 0.42168-0.47405 0.28112-0.71107 0.76068-0.71107 1.4387 0 0.54019 0.17639 0.97013 0.52917 1.2898 0.35828 0.31419 0.84335 0.47129 1.4552 0.47129 0.84335 0 1.5186-0.29766 2.0257-0.89297 0.51263-0.60082 0.76894-1.3973 0.76895-2.3895v-0.33899h-1.5131m3.0344-0.62839v5.2834h-1.5214v-1.4056c-0.34727 0.56223-0.77998 0.9784-1.2981 1.2485-0.51815 0.26458-1.152 0.39687-1.9017 0.39687-0.94809 0-1.7032-0.26458-2.2655-0.79375-0.55673-0.53468-0.83509-1.2485-0.83509-2.1415 0-1.0418 0.34726-1.8273 1.0418-2.3564 0.70004-0.52916 1.7418-0.79374 3.1254-0.79374h2.1332v-0.14883c-0.00001-0.70004-0.23152-1.2402-0.69453-1.6206-0.45752-0.38584-1.1024-0.57877-1.9348-0.57878-0.52917 0.00001-1.0446 0.0634-1.5462 0.19017-0.50161 0.12679-0.98392 0.31696-1.4469 0.57051v-1.4056c0.55673-0.21496 1.0969-0.37481 1.6206-0.47955 0.52365-0.11024 1.0335-0.16536 1.5296-0.16537 1.3394 0.00001 2.3399 0.34728 3.0014 1.0418 0.66145 0.69453 0.99218 1.7474 0.99219 3.1584"/>
  <path id="path3126" style="" d="m485.62 206.53c0.38033-0.6835 0.83508-1.1879 1.3642-1.5131 0.52916-0.32521 1.152-0.48782 1.8686-0.48783 0.96461 0.00001 1.7088 0.33901 2.2324 1.017 0.52364 0.67249 0.78546 1.6316 0.78548 2.8773v5.5893h-1.5296v-5.5397c-0.00002-0.88745-0.15711-1.5462-0.47129-1.9761-0.3142-0.42994-0.79376-0.64492-1.4387-0.64492-0.78825 0-1.4111 0.26183-1.8686 0.78548-0.45752 0.52366-0.68628 1.2375-0.68627 2.1415v5.2338h-1.5296v-5.5397c0-0.89296-0.1571-1.5517-0.47128-1.9761-0.3142-0.42994-0.79927-0.64492-1.4552-0.64492-0.77722 0-1.3946 0.26459-1.8521 0.79374-0.45751 0.52366-0.68626 1.2347-0.68626 2.1332v5.2338h-1.5296v-9.2604h1.5296v1.4387c0.34726-0.56774 0.76343-0.98666 1.2485-1.2568 0.48506-0.27008 1.0611-0.40513 1.7281-0.40514 0.67247 0.00001 1.243 0.17089 1.7115 0.51263 0.47403 0.34176 0.82405 0.83785 1.0501 1.4883"/>
 </g>
 <g id="text48">
  <path id="path3129" style="" d="m611.1 210.13c-1.2292 0.00001-2.0808 0.14057-2.5549 0.42168-0.47405 0.28112-0.71107 0.76068-0.71107 1.4387 0 0.54019 0.17639 0.97014 0.52917 1.2898 0.35828 0.31419 0.84335 0.47129 1.4552 0.47129 0.84336 0 1.5186-0.29766 2.0257-0.89297 0.51262-0.60082 0.76893-1.3973 0.76894-2.3895v-0.339h-1.5131m3.0344-0.62838v5.2834h-1.5214v-1.4056c-0.34727 0.56224-0.77998 0.9784-1.2981 1.2485-0.51815 0.26458-1.152 0.39687-1.9017 0.39687-0.94809 0-1.7032-0.26458-2.2655-0.79375-0.55673-0.53467-0.83509-1.2485-0.83509-2.1415 0-1.0418 0.34726-1.8273 1.0418-2.3564 0.70003-0.52916 1.7418-0.79375 3.1254-0.79375h2.1332v-0.14883c-0.00001-0.70003-0.23152-1.2402-0.69453-1.6206-0.45751-0.38584-1.1024-0.57877-1.9348-0.57877-0.52917 0-1.0446 0.0634-1.5462 0.19016-0.50161 0.12679-0.98392 0.31696-1.4469 0.57051v-1.4056c0.55673-0.21497 1.0969-0.37482 1.6206-0.47956 0.52365-0.11023 1.0335-0.16536 1.5296-0.16537 1.3394 0.00001 2.3399 0.34728 3.0014 1.0418 0.66145 0.69454 0.99218 1.7474 0.99219 3.1585"/>
  <path id="path3131" style="" d="m617.28 201.92h1.5214v12.865h-1.5214v-12.865"/>
  <path id="path3133" style="" d="m623.45 213.4v4.9113h-1.5296v-12.783h1.5296v1.4056c0.3197-0.5512 0.72209-0.9591 1.2072-1.2237 0.49057-0.27009 1.0749-0.40514 1.7529-0.40515 1.1245 0.00001 2.0367 0.4465 2.7368 1.3395 0.70554 0.89297 1.0583 2.067 1.0583 3.5222-0.00001 1.4552-0.35279 2.6293-1.0583 3.5223-0.70005 0.89297-1.6123 1.3394-2.7368 1.3394-0.678 0-1.2623-0.13229-1.7529-0.39687-0.48507-0.2701-0.88746-0.68075-1.2072-1.232m5.1759-3.2329c-0.00001-1.119-0.23152-1.9954-0.69453-2.6293-0.45752-0.6394-1.0886-0.9591-1.8934-0.95911-0.80478 0.00001-1.4387 0.31971-1.9017 0.95911-0.45751 0.63391-0.68626 1.5103-0.68626 2.6293s0.22875 1.9982 0.68626 2.6376c0.46302 0.6339 1.0969 0.95085 1.9017 0.95085 0.80477 0 1.4359-0.31695 1.8934-0.95085 0.46301-0.6394 0.69452-1.5186 0.69453-2.6376"/>
  <path id="path3135" style="" d="m638.09 206.95c-0.17088-0.0992-0.35829-0.17087-0.56224-0.21497-0.19844-0.0496-0.41892-0.0744-0.66145-0.0744-0.8599 0.00001-1.5214 0.28113-1.9844 0.84336-0.45751 0.55673-0.68627 1.3588-0.68627 2.406v4.8782h-1.5296v-9.2604h1.5296v1.4387c0.31971-0.56223 0.73587-0.9784 1.2485-1.2485 0.51263-0.2756 1.1355-0.41341 1.8686-0.41342 0.10473 0.00001 0.22048 0.008 0.34727 0.0248 0.12677 0.011 0.26733 0.0303 0.42167 0.0579l0.008 1.5627"/>
  <path id="path3137" style="" d="m642.92 206.59c-0.8158 0-1.4607 0.31971-1.9348 0.95911-0.47405 0.6339-0.71107 1.5048-0.71107 2.6128s0.23426 1.9816 0.7028 2.621c0.47404 0.6339 1.1217 0.95084 1.943 0.95084 0.81028 0 1.4524-0.3197 1.9265-0.95911 0.47404-0.63941 0.71106-1.5103 0.71107-2.6128-0.00001-1.0969-0.23703-1.9651-0.71107-2.6045-0.47405-0.64492-1.1162-0.96738-1.9265-0.96738m0-1.2898c1.3229 0.00001 2.3619 0.42996 3.1171 1.2898 0.75515 0.8599 1.1327 2.0505 1.1327 3.5719-0.00001 1.5158-0.37759 2.7065-1.1327 3.5719-0.75518 0.8599-1.7942 1.2898-3.1171 1.2898-1.3284 0-2.3702-0.42994-3.1254-1.2898-0.74965-0.8654-1.1245-2.056-1.1245-3.5719 0-1.5213 0.37482-2.712 1.1245-3.5719 0.75517-0.85989 1.797-1.2898 3.1254-1.2898"/>
  <path id="path3139" style="" d="m655.78 210.05c-0.00001-1.1024-0.22876-1.9568-0.68626-2.5632-0.452-0.60632-1.0886-0.90949-1.91-0.9095-0.8158 0.00001-1.4524 0.30318-1.91 0.9095-0.45199 0.60635-0.67799 1.4607-0.67799 2.5632 0 1.0969 0.226 1.9485 0.67799 2.5549 0.45751 0.60633 1.0942 0.9095 1.91 0.9095 0.82131 0 1.458-0.30317 1.91-0.9095 0.4575-0.60634 0.68625-1.458 0.68626-2.5549m1.5214 3.5884c-0.00001 1.5765-0.35003 2.7478-1.0501 3.514-0.70005 0.7717-1.7722 1.1576-3.2163 1.1576-0.53468 0-1.039-0.0413-1.5131-0.12402-0.47405-0.0772-0.93431-0.19844-1.3808-0.3638v-1.48c0.44648 0.24253 0.88745 0.42168 1.3229 0.53743 0.43546 0.11576 0.87919 0.17363 1.3312 0.17364 0.99769-0.00001 1.7446-0.26183 2.2407-0.78548 0.49609-0.51815 0.74413-1.3036 0.74414-2.3564v-0.7524c-0.3142 0.5457-0.71658 0.9536-1.2072 1.2237-0.49058 0.2701-1.0776 0.40514-1.7611 0.40514-1.1355 0-2.0505-0.4327-2.745-1.2981-0.69454-0.86541-1.0418-2.0119-1.0418-3.4396 0-1.4332 0.34726-2.5824 1.0418-3.4478 0.69452-0.86539 1.6095-1.2981 2.745-1.2981 0.6835 0.00001 1.2706 0.13506 1.7611 0.40515 0.49058 0.2701 0.89296 0.678 1.2072 1.2237v-1.4056h1.5214v8.1111"/>
  <path id="path3141" style="" d="m665.8 206.95c-0.17088-0.0992-0.35829-0.17087-0.56223-0.21497-0.19845-0.0496-0.41893-0.0744-0.66146-0.0744-0.8599 0.00001-1.5214 0.28113-1.9844 0.84336-0.45751 0.55673-0.68627 1.3588-0.68626 2.406v4.8782h-1.5296v-9.2604h1.5296v1.4387c0.3197-0.56223 0.73586-0.9784 1.2485-1.2485 0.51262-0.2756 1.1355-0.41341 1.8686-0.41342 0.10473 0.00001 0.22048 0.008 0.34727 0.0248 0.12677 0.011 0.26733 0.0303 0.42168 0.0579l0.008 1.5627"/>
  <path id="path3143" style="" d="m671.62 210.13c-1.2292 0.00001-2.0808 0.14057-2.5549 0.42168-0.47405 0.28112-0.71107 0.76068-0.71107 1.4387 0 0.54019 0.17639 0.97014 0.52917 1.2898 0.35828 0.31419 0.84335 0.47129 1.4552 0.47129 0.84335 0 1.5186-0.29766 2.0257-0.89297 0.51263-0.60082 0.76894-1.3973 0.76895-2.3895v-0.339h-1.5131m3.0344-0.62838v5.2834h-1.5214v-1.4056c-0.34727 0.56224-0.77998 0.9784-1.2981 1.2485-0.51815 0.26458-1.152 0.39687-1.9017 0.39687-0.94809 0-1.7032-0.26458-2.2655-0.79375-0.55673-0.53467-0.83509-1.2485-0.83509-2.1415 0-1.0418 0.34726-1.8273 1.0418-2.3564 0.70004-0.52916 1.7418-0.79375 3.1254-0.79375h2.1332v-0.14883c-0.00001-0.70003-0.23152-1.2402-0.69453-1.6206-0.45752-0.38584-1.1024-0.57877-1.9348-0.57877-0.52917 0-1.0446 0.0634-1.5462 0.19016-0.50161 0.12679-0.98392 0.31696-1.4469 0.57051v-1.4056c0.55673-0.21497 1.0969-0.37482 1.6206-0.47956 0.52365-0.11023 1.0335-0.16536 1.5296-0.16537 1.3394 0.00001 2.3399 0.34728 3.0014 1.0418 0.66145 0.69454 0.99218 1.7474 0.99219 3.1585"/>
  <path id="path3145" style="" d="m685 207.3c0.38033-0.6835 0.83508-1.1879 1.3643-1.5131 0.52915-0.32521 1.152-0.48782 1.8686-0.48783 0.96462 0.00001 1.7088 0.33901 2.2324 1.017 0.52364 0.67249 0.78547 1.6316 0.78548 2.8773v5.5893h-1.5296v-5.5397c-0.00001-0.88745-0.15711-1.5462-0.47129-1.9761-0.3142-0.42994-0.79376-0.64491-1.4387-0.64492-0.78825 0.00001-1.4111 0.26183-1.8686 0.78548-0.45752 0.52366-0.68627 1.2375-0.68626 2.1415v5.2338h-1.5296v-5.5397c-0.00001-0.89296-0.15711-1.5517-0.47129-1.9761-0.3142-0.42994-0.79927-0.64491-1.4552-0.64492-0.77721 0.00001-1.3946 0.26459-1.8521 0.79375-0.45751 0.52366-0.68626 1.2347-0.68626 2.1332v5.2338h-1.5296v-9.2604h1.5296v1.4387c0.34726-0.56775 0.76343-0.98667 1.2485-1.2568 0.48507-0.27009 1.0611-0.40514 1.7281-0.40515 0.67247 0.00001 1.243 0.17089 1.7115 0.51263 0.47404 0.34177 0.82406 0.83786 1.0501 1.4883"/>
 </g>
 <g id="g52" transform="translate(-1 -1.736)">
  <path id="rect54" fill="#d9d9cd" d="m250 110h46v38.333h-46z"/>
  <path id="rect56" d="m250 110h46v38.333h-46z" stroke="#000" stroke-width="2" fill="none"/>
  <path id="rect58" d="m250 110h46v38.333h-46z" stroke="#000" stroke-width=".2" fill="none"/>
  <path id="rect60" fill="#a1a1a1" d="m252.56 112.56h40.889v30.667h-40.889z"/>
  <path id="rect62" d="m252.56 112.56h40.889v30.667h-40.889z" stroke="#000" stroke-width="2" fill="none"/>
  <path id="rect64" d="m252.56 112.56h40.889v30.667h-40.889z" stroke="#000" stroke-width=".2" fill="none"/>
  <path id="polygon66" fill="#d9d9cd" d="m280.67 150.89h-15.334l-7.666-2.556h30.666z"/>
  <path id="polygon68" d="m280.67 150.89h-15.334l-7.666-2.556h30.666z" stroke="#000" stroke-width="2" fill="none"/>
  <path id="polygon70" d="m280.67 150.89h-15.334l-7.666-2.556h30.666z" stroke="#000" stroke-width=".2" fill="none"/>
  <path id="rect72" fill="#d9d9cd" d="m265.33 150.89h15.333v2.5556h-15.333z"/>
  <path id="rect74" d="m265.33 150.89h15.333v2.5556h-15.333z" stroke="#000" stroke-width="2" fill="none"/>
  <path id="rect76" d="m265.33 150.89h15.333v2.5556h-15.333z" stroke="#000" stroke-width=".2" fill="none"/>
  <path id="rect78" fill="#d9d9cd" d="m257.67 153.44h30.667v2.5556h-30.667z"/>
  <path id="rect80" d="m257.67 153.44h30.667v2.5556h-30.667z" stroke="#000" stroke-width="2" fill="none"/>
  <path id="rect82" d="m257.67 153.44h30.667v2.5556h-30.667z" stroke="#000" stroke-width=".2" fill="none"/>
 </g>
 <g id="g84" stroke="#000" stroke-width="2" fill="none" transform="translate(-1 -1.736)">
  <path id="line86" d="m300 140h95.528"/>
  <path id="polyline88" d="m387.76 145 10-5-10-5"/>
 </g>
 <g id="g90" stroke="#000" stroke-width="2" fill="none" transform="translate(-1 -1.736)">
  <path id="line92" d="m400 160h-95.528"/>
  <path id="polyline94" d="m312.24 155-10 5 10 5"/>
 </g>
 <g id="g96" transform="translate(-1 -1.736)">
  <g id="g98">
   <path id="rect100" fill="#bfbfbf" d="m250 166h46v22h-46z"/>
   <path id="rect102" d="m250 166h46v22h-46z" stroke="#000" stroke-width="2" fill="none"/>
  </g>
  <g id="g104">
   <path id="rect106" fill="#7f7f7f" d="m254 174h24v10h-24z"/>
   <path id="rect108" d="m254 174h24v10h-24z" stroke="#000" stroke-width="2" fill="none"/>
  </g>
  <g id="g110">
   <path id="rect112" fill="#7f7f7f" d="m286 174h6v10h-6z"/>
   <path id="rect114" d="m286 174h6v10h-6z" stroke="#000" stroke-width="2" fill="none"/>
  </g>
  <path id="line116" d="m253 170h26" stroke="#000" stroke-width="2" fill="none"/>
  <path id="line118" d="m280 184h4" stroke="#000" stroke-width="2" fill="none"/>
  <path id="line120" d="m282 184v-2" stroke="#000" stroke-width="2" fill="none"/>
  <g id="g122">
   <path id="rect124" fill="#fff" d="m281 174h2v2h-2z"/>
   <path id="rect126" d="m281 174h2v2h-2z" stroke="#000" stroke-width="2" fill="none"/>
  </g>
  <path id="line128" d="m280 170h4" stroke="#000" stroke-width="2" fill="none"/>
 </g>
 <g id="g130" transform="translate(-1 -1.736)">
  <g id="g132">
   <path id="ellipse134" fill="#fff" d="m220 110c0 11.046-8.9543 20-20 20s-20-8.9543-20-20 8.9543-20 20-20 20 8.9543 20 20z"/>
   <path id="ellipse136" d="m220 110c0 11.046-8.9543 20-20 20s-20-8.9543-20-20 8.9543-20 20-20 20 8.9543 20 20z" stroke="#000" stroke-width="2" fill="none"/>
  </g>
  <path id="line138" d="m180 150h40" stroke="#000" stroke-width="2" fill="none"/>
  <path id="line140" d="m200 130v40" stroke="#000" stroke-width="2" fill="none"/>
  <path id="line142" d="m200 170-20 40" stroke="#000" stroke-width="2" fill="none"/>
  <path id="line144" d="m200 170 20 40" stroke="#000" stroke-width="2" fill="none"/>
 </g>
</svg>
