<?xml version="1.0" encoding="UTF-8" standalone="no"?>
<!-- Created with Inkscape (http://www.inkscape.org/) -->
<svg id="svg2" xmlns:rdf="http://www.w3.org/1999/02/22-rdf-syntax-ns#" xmlns="http://www.w3.org/2000/svg" height="233.39" width="1274.5" version="1.1" xmlns:cc="http://creativecommons.org/ns#" xmlns:dc="http://purl.org/dc/elements/1.1/" viewBox="208 89 711.40599 123.26725">
 <metadata id="metadata196">
  <rdf:RDF>
   <cc:Work rdf:about="">
    <dc:format>image/svg+xml</dc:format>
    <dc:type rdf:resource="http://purl.org/dc/dcmitype/StillImage"/>
   </cc:Work>
  </rdf:RDF>
 </metadata>
 <g id="g4" transform="translate(-1 -3.5025)">
  <path id="rect6" fill="#fff" d="m400 100h100v100h-100z"/>
  <path id="rect8" d="m400 100h100v100h-100z" stroke="#000" stroke-width="2" fill="none"/>
 </g>
 <g id="text10">
  <path id="path3079" style="" d="m430.02 144.89c0.38033-0.68349 0.83508-1.1878 1.3643-1.5131 0.52915-0.32521 1.152-0.48781 1.8686-0.48782 0.96461 0.00001 1.7088 0.339 2.2324 1.017 0.52364 0.67249 0.78547 1.6316 0.78548 2.8773v5.5893h-1.5296v-5.5397c-0.00001-0.88744-0.15711-1.5461-0.47129-1.9761-0.3142-0.42994-0.79376-0.64491-1.4387-0.64492-0.78824 0.00001-1.4111 0.26184-1.8686 0.78548-0.45752 0.52366-0.68627 1.2375-0.68626 2.1415v5.2338h-1.5296v-5.5397c-0.00001-0.89296-0.15711-1.5517-0.47129-1.9761-0.3142-0.42994-0.79927-0.64491-1.4552-0.64492-0.77721 0.00001-1.3946 0.26459-1.8521 0.79375-0.45751 0.52366-0.68626 1.2347-0.68626 2.1332v5.2338h-1.5296v-9.2604h1.5296v1.4387c0.34726-0.56774 0.76343-0.98667 1.2485-1.2568 0.48507-0.27009 1.0611-0.40513 1.7281-0.40514 0.67247 0.00001 1.243 0.17088 1.7115 0.51263 0.47403 0.34176 0.82405 0.83785 1.0501 1.4883"/>
  <path id="path3081" style="" d="m443.53 147.72c-1.2292 0.00001-2.0808 0.14057-2.5549 0.42168-0.47405 0.28113-0.71107 0.76068-0.71107 1.4387 0 0.54019 0.17638 0.97014 0.52916 1.2898 0.35829 0.3142 0.84336 0.47129 1.4552 0.47129 0.84335 0 1.5186-0.29765 2.0257-0.89297 0.51262-0.60082 0.76894-1.3973 0.76895-2.3895v-0.339h-1.5131m3.0344-0.62838v5.2834h-1.5214v-1.4056c-0.34728 0.56224-0.77998 0.97841-1.2981 1.2485-0.51815 0.26458-1.152 0.39688-1.9017 0.39688-0.94809 0-1.7033-0.26459-2.2655-0.79375-0.55673-0.53468-0.83509-1.2485-0.83509-2.1415 0-1.0418 0.34726-1.8273 1.0418-2.3564 0.70004-0.52916 1.7418-0.79374 3.1254-0.79375h2.1332v-0.14883c-0.00001-0.70003-0.23152-1.2402-0.69453-1.6206-0.45752-0.38584-1.1024-0.57876-1.9348-0.57877-0.52917 0.00001-1.0446 0.0634-1.5462 0.19017-0.50161 0.12678-0.98392 0.31695-1.4469 0.5705v-1.4056c0.55673-0.21497 1.0969-0.37482 1.6206-0.47956 0.52365-0.11023 1.0335-0.16535 1.5296-0.16536 1.3394 0.00001 2.3399 0.34727 3.0014 1.0418 0.66145 0.69454 0.99218 1.7474 0.99219 3.1585"/>
  <path id="path3083" style="" d="m449.7 143.11h1.5214v9.2604h-1.5214v-9.2604m0-3.6049h1.5214v1.9265h-1.5214v-1.9265"/>
  <path id="path3085" style="" d="m462.1 146.78v5.5893h-1.5214v-5.5397c-0.00001-0.87642-0.17089-1.5324-0.51263-1.9678-0.34176-0.43545-0.85439-0.65318-1.5379-0.65319-0.82131 0.00001-1.469 0.26184-1.943 0.78548-0.47405 0.52366-0.71107 1.2375-0.71106 2.1415v5.2338h-1.5296v-9.2604h1.5296v1.4387c0.36379-0.55672 0.79098-0.97289 1.2816-1.2485 0.49609-0.2756 1.0666-0.4134 1.7115-0.41341 1.0638 0.00001 1.8686 0.33074 2.4143 0.99218 0.54569 0.65596 0.81854 1.6233 0.81855 2.9022"/>
  <path id="path3087" style="" d="m468.8 139.52c-0.73863 1.2678-1.2871 2.5218-1.6454 3.762-0.35829 1.2402-0.53743 2.497-0.53743 3.7703s0.17914 2.5356 0.53743 3.7868c0.3638 1.2457 0.91226 2.4998 1.6454 3.762h-1.3229c-0.82682-1.2954-1.4469-2.5687-1.8603-3.8199-0.4079-1.2512-0.61185-2.4942-0.61185-3.729 0-1.2292 0.20395-2.4667 0.61185-3.7124 0.40789-1.2457 1.028-2.519 1.8603-3.8199h1.3229"/>
  <path id="path3089" style="" d="m471.52 139.52h1.3229c0.82682 1.3009 1.4442 2.5742 1.8521 3.8199 0.41341 1.2458 0.62011 2.4832 0.62012 3.7124-0.00001 1.2347-0.20671 2.4777-0.62012 3.729-0.4079 1.2513-1.0253 2.5246-1.8521 3.8199h-1.3229c0.73311-1.2623 1.2788-2.5163 1.6371-3.762 0.36379-1.2513 0.54569-2.5135 0.5457-3.7868-0.00001-1.2733-0.18191-2.5301-0.5457-3.7703-0.3583-1.2402-0.904-2.4942-1.6371-3.762"/>
 </g>
 <g id="g14" transform="translate(-1 -3.5025)">
  <path id="rect16" fill="#fff" d="m539.41 100h100v100h-100z"/>
  <path id="rect18" d="m539.41 100h100v100h-100z" stroke="#000" stroke-width="2" fill="none"/>
 </g>
 <g id="text20">
  <path id="path3094" style="" d="m556.91 132.53h1.6123l2.8939 7.7721 2.8939-7.7721h1.6123l-3.4726 9.2604h-2.0671l-3.4726-9.2604"/>
  <path id="path3096" style="" d="m572.23 137.13c-1.2292 0.00001-2.0808 0.14057-2.5549 0.42168-0.47404 0.28112-0.71106 0.76068-0.71106 1.4387 0 0.54019 0.17638 0.97014 0.52916 1.2898 0.35829 0.31419 0.84336 0.47129 1.4552 0.47129 0.84335 0 1.5186-0.29766 2.0257-0.89297 0.51262-0.60082 0.76894-1.3973 0.76894-2.3895v-0.339h-1.5131m3.0344-0.62838v5.2834h-1.5214v-1.4056c-0.34727 0.56224-0.77997 0.9784-1.2981 1.2485-0.51815 0.26458-1.152 0.39687-1.9017 0.39687-0.9481 0-1.7033-0.26458-2.2655-0.79375-0.55673-0.53467-0.83509-1.2485-0.83509-2.1415 0-1.0418 0.34726-1.8273 1.0418-2.3564 0.70004-0.52916 1.7418-0.79375 3.1254-0.79375h2.1332v-0.14883c0-0.70003-0.23151-1.2402-0.69453-1.6206-0.45751-0.38584-1.1024-0.57877-1.9348-0.57877-0.52917 0-1.0446 0.0634-1.5462 0.19016-0.50161 0.12679-0.98392 0.31696-1.4469 0.57051v-1.4056c0.55672-0.21497 1.0969-0.37482 1.6206-0.47956 0.52365-0.11023 1.0335-0.16536 1.5296-0.16537 1.3394 0.00001 2.3399 0.34728 3.0014 1.0418 0.66145 0.69454 0.99218 1.7474 0.99219 3.1585"/>
  <path id="path3098" style="" d="m578.41 128.92h1.5214v12.865h-1.5214v-12.865"/>
  <path id="path3100" style="" d="m586.69 133.6c-0.81581 0-1.4607 0.31971-1.9348 0.95911-0.47404 0.6339-0.71106 1.5048-0.71106 2.6128s0.23426 1.9816 0.7028 2.621c0.47404 0.6339 1.1217 0.95084 1.943 0.95084 0.81028 0 1.4524-0.3197 1.9265-0.95911 0.47404-0.63941 0.71106-1.5103 0.71107-2.6128-0.00001-1.0969-0.23703-1.9651-0.71107-2.6045-0.47405-0.64492-1.1162-0.96738-1.9265-0.96738m0-1.2898c1.3229 0.00001 2.3619 0.42996 3.1171 1.2898 0.75516 0.8599 1.1327 2.0505 1.1328 3.5719-0.00001 1.5158-0.37759 2.7065-1.1328 3.5719-0.75517 0.8599-1.7942 1.2898-3.1171 1.2898-1.3284 0-2.3702-0.42994-3.1254-1.2898-0.74965-0.8654-1.1245-2.056-1.1245-3.5719 0-1.5213 0.37483-2.712 1.1245-3.5719 0.75516-0.85989 1.797-1.2898 3.1254-1.2898"/>
  <path id="path3102" style="" d="m599.36 132.8v1.4387c-0.42996-0.22048-0.87644-0.38585-1.3394-0.4961-0.46303-0.11023-0.94258-0.16535-1.4387-0.16536-0.75517 0.00001-1.3229 0.11576-1.7032 0.34726-0.37483 0.23152-0.56224 0.57879-0.56224 1.0418 0 0.35278 0.13504 0.63115 0.40514 0.83509 0.27009 0.19844 0.81304 0.38861 1.6288 0.57051l0.5209 0.11575c1.0804 0.23152 1.8466 0.55949 2.2986 0.98392 0.4575 0.41892 0.68625 1.006 0.68626 1.7611-0.00001 0.85989-0.34176 1.5406-1.0253 2.0422-0.678 0.5016-1.6123 0.7524-2.8029 0.7524-0.4961 0-1.0142-0.0496-1.5544-0.14882-0.53467-0.0937-1.0997-0.23703-1.695-0.42995v-1.571c0.56224 0.29214 1.1162 0.51263 1.6619 0.66145 0.5457 0.14332 1.0859 0.21498 1.6206 0.21498 0.71658 0 1.2678-0.12127 1.6536-0.3638 0.38585-0.24805 0.57877-0.59531 0.57878-1.0418-0.00001-0.41341-0.14057-0.73035-0.42168-0.95084-0.27561-0.22048-0.8847-0.4327-1.8273-0.63665l-0.52917-0.12403c-0.94258-0.19843-1.6233-0.5016-2.0422-0.9095-0.41892-0.41341-0.62838-0.9784-0.62838-1.695 0-0.87092 0.30868-1.5434 0.92604-2.0174 0.61735-0.47403 1.4938-0.71106 2.6293-0.71107 0.56223 0.00001 1.0914 0.0414 1.5875 0.12403 0.49608 0.0827 0.95359 0.20671 1.3725 0.37207"/>
  <path id="path3104" style="" d="m601.63 132.53h7.2264v1.3891l-5.7216 6.6559h5.7216v1.2154h-7.4331v-1.3891l5.7216-6.6559h-5.5149v-1.2154"/>
  <path id="path3106" style="" d="m611.18 132.53h1.5214v9.2604h-1.5214v-9.2604m0-3.6049h1.5214v1.9265h-1.5214v-1.9265"/>
  <path id="path3108" style="" d="m615.11 136.47h4.4566v1.356h-4.4566v-1.356"/>
  <path id="path3110" style="" d="m565.34 157.37v5.5893h-1.5214v-5.5397c-0.00001-0.87643-0.17088-1.5324-0.51263-1.9678-0.34176-0.43545-0.85439-0.65318-1.5379-0.65319-0.82131 0.00001-1.469 0.26184-1.943 0.78548-0.47404 0.52366-0.71107 1.2375-0.71106 2.1415v5.2338h-1.5296v-9.2604h1.5296v1.4387c0.3638-0.55672 0.79099-0.97288 1.2816-1.2485 0.49609-0.2756 1.0666-0.4134 1.7115-0.41341 1.0638 0.00001 1.8686 0.33074 2.4143 0.99219 0.54569 0.65595 0.81854 1.6233 0.81855 2.9021"/>
  <path id="path3112" style="" d="m568.23 159.3v-5.6058h1.5214v5.548c-0.00001 0.87644 0.17087 1.5351 0.51263 1.9761 0.34175 0.43546 0.85437 0.65319 1.5379 0.65318 0.82131 0.00001 1.469-0.26182 1.943-0.78548 0.47955-0.52365 0.71933-1.2375 0.71934-2.1415v-5.2503h1.5214v9.2604h-1.5214v-1.4221c-0.36932 0.56224-0.79927 0.98116-1.2898 1.2568-0.48508 0.27009-1.0501 0.40514-1.695 0.40514-1.0638 0-1.8714-0.33073-2.4226-0.99219-0.55122-0.66145-0.82683-1.6288-0.82682-2.9021m3.8282-5.8291"/>
  <path id="path3114" style="" d="m585.04 153.97v1.4387c-0.42995-0.22048-0.87643-0.38584-1.3394-0.49609-0.46302-0.11024-0.94258-0.16536-1.4387-0.16537-0.75516 0.00001-1.3229 0.11577-1.7032 0.34727-0.37483 0.23152-0.56224 0.57878-0.56224 1.0418 0 0.35279 0.13505 0.63115 0.40514 0.83509 0.2701 0.19845 0.81304 0.38862 1.6288 0.57051l0.5209 0.11576c1.0804 0.23151 1.8466 0.55948 2.2986 0.98391 0.4575 0.41893 0.68626 1.006 0.68627 1.7611-0.00001 0.8599-0.34177 1.5406-1.0253 2.0422-0.678 0.50161-1.6123 0.75241-2.8029 0.75241-0.49609 0-1.0142-0.0496-1.5544-0.14883-0.53468-0.0937-1.0997-0.23702-1.695-0.42995v-1.571c0.56224 0.29215 1.1162 0.51263 1.6619 0.66146 0.54569 0.14332 1.0859 0.21497 1.6206 0.21497 0.71657 0 1.2678-0.12126 1.6536-0.3638 0.38584-0.24804 0.57877-0.59531 0.57877-1.0418 0-0.41341-0.14056-0.73036-0.42168-0.95085-0.27561-0.22048-0.8847-0.4327-1.8273-0.63665l-0.52917-0.12402c-0.94258-0.19844-1.6233-0.5016-2.0422-0.90951-0.41892-0.4134-0.62838-0.9784-0.62838-1.695 0-0.87091 0.30868-1.5434 0.92604-2.0174 0.61736-0.47404 1.4938-0.71106 2.6293-0.71107 0.56224 0.00001 1.0914 0.0414 1.5875 0.12402 0.49609 0.0827 0.95359 0.20672 1.3725 0.37207"/>
  <path id="path3116" style="" d="m595.89 157.94v0.74414h-6.9949c0.0661 1.0473 0.38033 1.8466 0.94258 2.3978 0.56774 0.54571 1.356 0.81856 2.3647 0.81856 0.58428 0 1.1493-0.0717 1.695-0.21498 0.5512-0.14331 1.0969-0.35828 1.6371-0.64492v1.4387c-0.54572 0.23151-1.1052 0.4079-1.6784 0.52917-0.57327 0.12126-1.1548 0.1819-1.7446 0.1819-1.4772 0-2.6486-0.42995-3.514-1.2898-0.85989-0.8599-1.2898-2.023-1.2898-3.4892 0-1.5158 0.4079-2.7175 1.2237-3.6049 0.8213-0.89296 1.9265-1.3394 3.3156-1.3394 1.2457 0.00001 2.2297 0.4024 2.9518 1.2072 0.7276 0.79927 1.0914 1.8879 1.0914 3.2659m-1.5214-0.44648c-0.011-0.83233-0.2453-1.4965-0.7028-1.9926-0.452-0.49608-1.0528-0.74413-1.8025-0.74414-0.84888 0.00001-1.5296 0.23979-2.0422 0.71934-0.50712 0.47956-0.79926 1.1548-0.87643 2.0257l5.424-0.008"/>
  <path id="path3118" style="" d="m604.48 158.22c-0.00001-1.1024-0.22876-1.9568-0.68626-2.5631-0.452-0.60633-1.0887-0.9095-1.91-0.90951-0.8158 0.00001-1.4524 0.30318-1.91 0.90951-0.452 0.60634-0.67799 1.4607-0.67799 2.5631 0 1.0969 0.22599 1.9486 0.67799 2.5549 0.45751 0.60634 1.0942 0.90951 1.91 0.90951 0.8213 0 1.458-0.30317 1.91-0.90951 0.4575-0.60633 0.68625-1.458 0.68626-2.5549m1.5214 3.5884c-0.00001 1.5765-0.35003 2.7478-1.0501 3.514-0.70005 0.7717-1.7722 1.1576-3.2163 1.1576-0.53468 0-1.039-0.0413-1.5131-0.12402-0.47405-0.0772-0.93431-0.19844-1.3808-0.36381v-1.48c0.44648 0.24254 0.88745 0.42168 1.3229 0.53744 0.43546 0.11575 0.87918 0.17363 1.3312 0.17363 0.9977 0 1.7446-0.26183 2.2407-0.78548 0.49609-0.51814 0.74413-1.3036 0.74414-2.3564v-0.75241c-0.3142 0.54571-0.71659 0.9536-1.2072 1.2237-0.49059 0.27009-1.0776 0.40514-1.7611 0.40514-1.1355 0-2.0505-0.4327-2.745-1.2981-0.69453-0.8654-1.0418-2.0119-1.0418-3.4396 0-1.4332 0.34726-2.5824 1.0418-3.4478 0.69453-0.8654 1.6096-1.2981 2.745-1.2981 0.6835 0.00001 1.2705 0.13506 1.7611 0.40514 0.49057 0.27011 0.89296 0.678 1.2072 1.2237v-1.4056h1.5214v8.1111"/>
  <path id="path3120" style="" d="m612.79 150.11c-0.73864 1.2678-1.2871 2.5218-1.6454 3.762-0.35829 1.2402-0.53743 2.497-0.53743 3.7703s0.17914 2.5356 0.53743 3.7868c0.3638 1.2458 0.91226 2.4998 1.6454 3.762h-1.3229c-0.82682-1.2954-1.4469-2.5687-1.8604-3.8199-0.4079-1.2512-0.61184-2.4942-0.61184-3.729 0-1.2292 0.20394-2.4667 0.61184-3.7124s1.028-2.519 1.8604-3.8199h1.3229"/>
  <path id="path3122" style="" d="m615.51 150.11h1.3229c0.82682 1.3009 1.4442 2.5742 1.8521 3.8199 0.4134 1.2458 0.62011 2.4832 0.62011 3.7124 0 1.2347-0.20671 2.4777-0.62011 3.729-0.4079 1.2513-1.0253 2.5246-1.8521 3.8199h-1.3229c0.73312-1.2623 1.2788-2.5163 1.6371-3.762 0.3638-1.2512 0.5457-2.5135 0.5457-3.7868s-0.1819-2.5301-0.5457-3.7703c-0.35829-1.2402-0.90399-2.4942-1.6371-3.762"/>
 </g>
 <g id="g26" stroke="#000" stroke-width="2" fill="none" transform="translate(-1 -3.5025)">
  <path id="line28" d="m500 120h35.528"/>
  <path id="polyline30" d="m527.76 125 10-5-10-5"/>
 </g>
 <g id="g32" stroke="#000" stroke-width="2" fill="none" transform="translate(-1 -3.5025)">
  <path id="line34" d="m540 180h-35.528"/>
  <path id="polyline36" d="m512.24 175-10 5 10 5"/>
 </g>
 <g id="text38">
  <path id="path3129" style="" d="m410.97 199.38v1.265h-1.4552c-0.54571 0.00002-0.92604 0.11026-1.141 0.33073-0.20947 0.2205-0.3142 0.61737-0.3142 1.1906v0.81855h2.5053v1.1824h-2.5053v8.078h-1.5296v-8.078h-1.4552v-1.1824h1.4552v-0.64492c0-1.0308 0.23978-1.7804 0.71934-2.249 0.47955-0.47403 1.2402-0.71105 2.282-0.71106h1.4387"/>
  <path id="path3131" style="" d="m418.28 198.7h1.4718l-2.0505 3.1088h-1.1162l1.695-3.1088m-2.7616 0h1.4056l-1.8438 3.1088h-1.1328l1.571-3.1088m0.30593 5.3495c-0.81581 0.00001-1.4607 0.31971-1.9348 0.95911-0.47404 0.6339-0.71107 1.5048-0.71106 2.6128-0.00001 1.1079 0.23426 1.9816 0.7028 2.621 0.47404 0.6339 1.1217 0.95085 1.943 0.95084 0.81027 0.00001 1.4524-0.3197 1.9265-0.95911 0.47404-0.6394 0.71106-1.5103 0.71107-2.6128-0.00001-1.0969-0.23703-1.9651-0.71107-2.6045-0.47405-0.64491-1.1162-0.96737-1.9265-0.96738m0-1.2898c1.3229 0.00001 2.3619 0.42995 3.1171 1.2898 0.75516 0.8599 1.1327 2.0505 1.1328 3.5719-0.00001 1.5158-0.37759 2.7065-1.1328 3.5719-0.75517 0.8599-1.7942 1.2898-3.1171 1.2898-1.3284 0-2.3702-0.42995-3.1254-1.2898-0.74965-0.8654-1.1245-2.056-1.1245-3.5719 0-1.5214 0.37483-2.712 1.1245-3.5719 0.75516-0.85989 1.797-1.2898 3.1254-1.2898"/>
  <path id="path3133" style="" d="m424.06 210.86v4.9113h-1.5296v-12.783h1.5296v1.4056c0.3197-0.55121 0.72208-0.95911 1.2072-1.2237 0.49057-0.27009 1.0749-0.40513 1.7529-0.40514 1.1245 0.00001 2.0367 0.44649 2.7368 1.3394 0.70554 0.89297 1.0583 2.0671 1.0583 3.5223-0.00001 1.4552-0.35279 2.6293-1.0583 3.5223-0.70006 0.89296-1.6123 1.3394-2.7368 1.3394-0.678 0-1.2623-0.1323-1.7529-0.39688-0.48508-0.27009-0.88746-0.68075-1.2072-1.232m5.1759-3.2329c-0.00001-1.119-0.23152-1.9954-0.69453-2.6293-0.45752-0.6394-1.0887-0.9591-1.8934-0.95911-0.80478 0.00001-1.4387 0.31971-1.9017 0.95911-0.45751 0.63391-0.68627 1.5103-0.68626 2.6293-0.00001 1.119 0.22875 1.9982 0.68626 2.6376 0.46301 0.63389 1.0969 0.95084 1.9017 0.95084 0.80476 0 1.4359-0.31695 1.8934-0.95084 0.46301-0.63941 0.69452-1.5186 0.69453-2.6376"/>
  <path id="path3135" style="" d="m438.7 204.41c-0.17088-0.0992-0.35829-0.17087-0.56224-0.21497-0.19844-0.0496-0.41893-0.0744-0.66145-0.0744-0.8599 0.00001-1.5214 0.28113-1.9844 0.84336-0.45751 0.55674-0.68626 1.3588-0.68626 2.406v4.8782h-1.5296v-9.2604h1.5296v1.4387c0.3197-0.56223 0.73587-0.9784 1.2485-1.2485 0.51263-0.2756 1.1355-0.4134 1.8686-0.41341 0.10472 0.00001 0.22048 0.008 0.34726 0.0248 0.12678 0.011 0.26734 0.0303 0.42168 0.0579l0.008 1.5627"/>
  <path id="path3137" style="" d="m443.53 204.05c-0.81581 0.00001-1.4607 0.31971-1.9348 0.95911-0.47404 0.6339-0.71107 1.5048-0.71106 2.6128-0.00001 1.1079 0.23426 1.9816 0.7028 2.621 0.47404 0.6339 1.1217 0.95085 1.943 0.95084 0.81027 0.00001 1.4524-0.3197 1.9265-0.95911 0.47404-0.6394 0.71106-1.5103 0.71107-2.6128-0.00001-1.0969-0.23703-1.9651-0.71107-2.6045-0.47405-0.64491-1.1162-0.96737-1.9265-0.96738m0-1.2898c1.3229 0.00001 2.3619 0.42995 3.1171 1.2898 0.75516 0.8599 1.1327 2.0505 1.1328 3.5719-0.00001 1.5158-0.37759 2.7065-1.1328 3.5719-0.75517 0.8599-1.7942 1.2898-3.1171 1.2898-1.3284 0-2.3702-0.42995-3.1254-1.2898-0.74965-0.8654-1.1245-2.056-1.1245-3.5719 0-1.5214 0.37483-2.712 1.1245-3.5719 0.75516-0.85989 1.797-1.2898 3.1254-1.2898"/>
  <path id="path3139" style="" d="m456.39 207.51c-0.00001-1.1024-0.22876-1.9568-0.68626-2.5631-0.45201-0.60633-1.0887-0.9095-1.91-0.90951-0.8158 0.00001-1.4525 0.30318-1.91 0.90951-0.452 0.60634-0.678 1.4607-0.67799 2.5631-0.00001 1.0969 0.22599 1.9486 0.67799 2.5549 0.4575 0.60634 1.0942 0.9095 1.91 0.9095 0.8213 0 1.458-0.30316 1.91-0.9095 0.4575-0.60633 0.68625-1.458 0.68626-2.5549m1.5214 3.5884c-0.00001 1.5765-0.35003 2.7478-1.0501 3.514-0.70004 0.77169-1.7722 1.1575-3.2163 1.1576-0.53468-0.00001-1.039-0.0413-1.5131-0.12403-0.47405-0.0772-0.93431-0.19844-1.3808-0.3638v-1.48c0.44648 0.24253 0.88745 0.42168 1.3229 0.53744 0.43546 0.11575 0.87918 0.17363 1.3312 0.17363 0.99769 0 1.7446-0.26183 2.2407-0.78548 0.49608-0.51814 0.74413-1.3036 0.74414-2.3564v-0.75241c-0.3142 0.5457-0.71659 0.9536-1.2072 1.2237-0.49059 0.27009-1.0776 0.40514-1.7611 0.40514-1.1355 0-2.0505-0.43271-2.745-1.2981-0.69453-0.86541-1.0418-2.0119-1.0418-3.4396 0-1.4332 0.34726-2.5824 1.0418-3.4478 0.69453-0.8654 1.6095-1.2981 2.745-1.2981 0.6835 0.00001 1.2705 0.13505 1.7611 0.40514 0.49057 0.2701 0.89296 0.678 1.2072 1.2237v-1.4056h1.5214v8.1111"/>
  <path id="path3141" style="" d="m466.41 204.41c-0.17088-0.0992-0.3583-0.17087-0.56224-0.21497-0.19844-0.0496-0.41893-0.0744-0.66146-0.0744-0.85989 0.00001-1.5214 0.28113-1.9844 0.84336-0.45751 0.55674-0.68626 1.3588-0.68626 2.406v4.8782h-1.5296v-9.2604h1.5296v1.4387c0.3197-0.56223 0.73587-0.9784 1.2485-1.2485 0.51263-0.2756 1.1355-0.4134 1.8686-0.41341 0.10472 0.00001 0.22048 0.008 0.34726 0.0248 0.12678 0.011 0.26734 0.0303 0.42168 0.0579l0.008 1.5627"/>
  <path id="path3143" style="" d="m472.23 207.59c-1.2292 0.00001-2.0808 0.14057-2.5549 0.42168-0.47405 0.28113-0.71107 0.76068-0.71107 1.4387 0 0.54019 0.17639 0.97014 0.52917 1.2898 0.35828 0.3142 0.84335 0.47129 1.4552 0.47129 0.84335 0 1.5186-0.29765 2.0257-0.89297 0.51263-0.60082 0.76894-1.3973 0.76895-2.3895v-0.339h-1.5131m3.0344-0.62838v5.2834h-1.5214v-1.4056c-0.34727 0.56224-0.77998 0.97841-1.2981 1.2485-0.51815 0.26458-1.152 0.39688-1.9017 0.39688-0.94809 0-1.7032-0.26459-2.2655-0.79375-0.55673-0.53468-0.83509-1.2485-0.83509-2.1415 0-1.0418 0.34726-1.8273 1.0418-2.3564 0.70004-0.52916 1.7418-0.79374 3.1254-0.79375h2.1332v-0.14883c-0.00001-0.70003-0.23152-1.2402-0.69453-1.6206-0.45752-0.38584-1.1024-0.57876-1.9348-0.57877-0.52917 0.00001-1.0446 0.0634-1.5462 0.19017-0.50161 0.12678-0.98392 0.31695-1.4469 0.5705v-1.4056c0.55673-0.21497 1.0969-0.37482 1.6206-0.47956 0.52365-0.11023 1.0335-0.16535 1.5296-0.16536 1.3394 0.00001 2.3399 0.34727 3.0014 1.0418 0.66145 0.69454 0.99218 1.7474 0.99219 3.1585"/>
  <path id="path3145" style="" d="m485.62 204.76c0.38033-0.68349 0.83508-1.1878 1.3642-1.5131 0.52916-0.32521 1.152-0.48781 1.8686-0.48782 0.96461 0.00001 1.7088 0.339 2.2324 1.017 0.52364 0.67249 0.78546 1.6316 0.78548 2.8773v5.5893h-1.5296v-5.5397c-0.00002-0.88744-0.15711-1.5461-0.47129-1.9761-0.3142-0.42994-0.79376-0.64491-1.4387-0.64492-0.78825 0.00001-1.4111 0.26184-1.8686 0.78548-0.45752 0.52366-0.68628 1.2375-0.68627 2.1415v5.2338h-1.5296v-5.5397c0-0.89296-0.1571-1.5517-0.47128-1.9761-0.3142-0.42994-0.79927-0.64491-1.4552-0.64492-0.77722 0.00001-1.3946 0.26459-1.8521 0.79375-0.45751 0.52366-0.68626 1.2347-0.68626 2.1332v5.2338h-1.5296v-9.2604h1.5296v1.4387c0.34726-0.56774 0.76343-0.98667 1.2485-1.2568 0.48506-0.27009 1.0611-0.40513 1.7281-0.40514 0.67247 0.00001 1.243 0.17088 1.7115 0.51263 0.47403 0.34176 0.82405 0.83785 1.0501 1.4883"/>
 </g>
 <g id="text42">
  <path id="path3148" style="" d="m550.51 207.59c-1.2292 0.00001-2.0808 0.14057-2.5549 0.42168-0.47404 0.28113-0.71106 0.76068-0.71106 1.4387 0 0.54019 0.17638 0.97014 0.52916 1.2898 0.35829 0.3142 0.84336 0.47129 1.4552 0.47129 0.84335 0 1.5186-0.29765 2.0257-0.89297 0.51262-0.60082 0.76894-1.3973 0.76894-2.3895v-0.339h-1.5131m3.0344-0.62838v5.2834h-1.5214v-1.4056c-0.34727 0.56224-0.77997 0.97841-1.2981 1.2485-0.51815 0.26458-1.152 0.39688-1.9017 0.39688-0.94809 0-1.7033-0.26459-2.2655-0.79375-0.55673-0.53468-0.83509-1.2485-0.83509-2.1415 0-1.0418 0.34726-1.8273 1.0418-2.3564 0.70004-0.52916 1.7418-0.79374 3.1254-0.79375h2.1332v-0.14883c0-0.70003-0.23151-1.2402-0.69452-1.6206-0.45752-0.38584-1.1024-0.57876-1.9348-0.57877-0.52917 0.00001-1.0446 0.0634-1.5462 0.19017-0.50161 0.12678-0.98392 0.31695-1.4469 0.5705v-1.4056c0.55672-0.21497 1.0969-0.37482 1.6206-0.47956 0.52365-0.11023 1.0335-0.16535 1.5296-0.16536 1.3394 0.00001 2.3399 0.34727 3.0014 1.0418 0.66145 0.69454 0.99218 1.7474 0.99219 3.1585"/>
  <path id="path3150" style="" d="m556.69 199.38h1.5214v12.865h-1.5214v-12.865"/>
  <path id="path3152" style="" d="m562.85 210.86v4.9113h-1.5296v-12.783h1.5296v1.4056c0.31971-0.55121 0.72209-0.95911 1.2072-1.2237 0.49058-0.27009 1.0749-0.40513 1.7529-0.40514 1.1245 0.00001 2.0367 0.44649 2.7368 1.3394 0.70555 0.89297 1.0583 2.0671 1.0583 3.5223-0.00001 1.4552-0.35278 2.6293-1.0583 3.5223-0.70005 0.89296-1.6123 1.3394-2.7368 1.3394-0.67799 0-1.2623-0.1323-1.7529-0.39688-0.48507-0.27009-0.88745-0.68075-1.2072-1.232m5.1759-3.2329c-0.00001-1.119-0.23152-1.9954-0.69453-2.6293-0.45752-0.6394-1.0887-0.9591-1.8934-0.95911-0.80477 0.00001-1.4387 0.31971-1.9017 0.95911-0.45752 0.63391-0.68627 1.5103-0.68627 2.6293s0.22875 1.9982 0.68627 2.6376c0.46301 0.63389 1.0969 0.95084 1.9017 0.95084 0.80477 0 1.4359-0.31695 1.8934-0.95084 0.46301-0.63941 0.69452-1.5186 0.69453-2.6376"/>
  <path id="path3154" style="" d="m577.5 204.41c-0.17088-0.0992-0.3583-0.17087-0.56224-0.21497-0.19844-0.0496-0.41893-0.0744-0.66146-0.0744-0.8599 0.00001-1.5214 0.28113-1.9844 0.84336-0.45751 0.55674-0.68626 1.3588-0.68626 2.406v4.8782h-1.5296v-9.2604h1.5296v1.4387c0.3197-0.56223 0.73587-0.9784 1.2485-1.2485 0.51263-0.2756 1.1355-0.4134 1.8686-0.41341 0.10472 0.00001 0.22048 0.008 0.34726 0.0248 0.12677 0.011 0.26733 0.0303 0.42168 0.0579l0.008 1.5627"/>
  <path id="path3156" style="" d="m582.32 204.05c-0.81581 0.00001-1.4607 0.31971-1.9348 0.95911-0.47404 0.6339-0.71107 1.5048-0.71106 2.6128-0.00001 1.1079 0.23426 1.9816 0.7028 2.621 0.47404 0.6339 1.1217 0.95085 1.943 0.95084 0.81027 0.00001 1.4524-0.3197 1.9265-0.95911 0.47404-0.6394 0.71106-1.5103 0.71107-2.6128-0.00001-1.0969-0.23703-1.9651-0.71107-2.6045-0.47405-0.64491-1.1162-0.96737-1.9265-0.96738m0-1.2898c1.3229 0.00001 2.3619 0.42995 3.1171 1.2898 0.75516 0.8599 1.1327 2.0505 1.1328 3.5719-0.00001 1.5158-0.37759 2.7065-1.1328 3.5719-0.75517 0.8599-1.7942 1.2898-3.1171 1.2898-1.3284 0-2.3702-0.42995-3.1254-1.2898-0.74965-0.8654-1.1245-2.056-1.1245-3.5719 0-1.5214 0.37483-2.712 1.1245-3.5719 0.75516-0.85989 1.797-1.2898 3.1254-1.2898"/>
  <path id="path3158" style="" d="m595.18 207.51c-0.00001-1.1024-0.22876-1.9568-0.68627-2.5631-0.452-0.60633-1.0886-0.9095-1.91-0.90951-0.8158 0.00001-1.4525 0.30318-1.91 0.90951-0.452 0.60634-0.678 1.4607-0.67799 2.5631-0.00001 1.0969 0.22599 1.9486 0.67799 2.5549 0.4575 0.60634 1.0942 0.9095 1.91 0.9095 0.8213 0 1.458-0.30316 1.91-0.9095 0.45751-0.60633 0.68626-1.458 0.68627-2.5549m1.5214 3.5884c-0.00001 1.5765-0.35003 2.7478-1.0501 3.514-0.70004 0.77169-1.7722 1.1575-3.2163 1.1576-0.53468-0.00001-1.039-0.0413-1.5131-0.12403-0.47405-0.0772-0.93431-0.19844-1.3808-0.3638v-1.48c0.44648 0.24253 0.88745 0.42168 1.3229 0.53744 0.43545 0.11575 0.87918 0.17363 1.3312 0.17363 0.99769 0 1.7446-0.26183 2.2407-0.78548 0.49608-0.51814 0.74413-1.3036 0.74414-2.3564v-0.75241c-0.3142 0.5457-0.71659 0.9536-1.2072 1.2237-0.49059 0.27009-1.0776 0.40514-1.7611 0.40514-1.1355 0-2.0505-0.43271-2.745-1.2981-0.69453-0.86541-1.0418-2.0119-1.0418-3.4396 0-1.4332 0.34726-2.5824 1.0418-3.4478 0.69453-0.8654 1.6095-1.2981 2.745-1.2981 0.6835 0.00001 1.2705 0.13505 1.7611 0.40514 0.49057 0.2701 0.89296 0.678 1.2072 1.2237v-1.4056h1.5214v8.1111"/>
  <path id="path3160" style="" d="m605.2 204.41c-0.17088-0.0992-0.3583-0.17087-0.56224-0.21497-0.19844-0.0496-0.41893-0.0744-0.66146-0.0744-0.85989 0.00001-1.5214 0.28113-1.9844 0.84336-0.45751 0.55674-0.68626 1.3588-0.68626 2.406v4.8782h-1.5296v-9.2604h1.5296v1.4387c0.3197-0.56223 0.73587-0.9784 1.2485-1.2485 0.51263-0.2756 1.1355-0.4134 1.8686-0.41341 0.10472 0.00001 0.22048 0.008 0.34726 0.0248 0.12678 0.011 0.26734 0.0303 0.42168 0.0579l0.008 1.5627"/>
  <path id="path3162" style="" d="m611.02 207.59c-1.2292 0.00001-2.0808 0.14057-2.5549 0.42168-0.47404 0.28113-0.71107 0.76068-0.71106 1.4387-0.00001 0.54019 0.17638 0.97014 0.52916 1.2898 0.35829 0.3142 0.84336 0.47129 1.4552 0.47129 0.84335 0 1.5186-0.29765 2.0257-0.89297 0.51262-0.60082 0.76894-1.3973 0.76894-2.3895v-0.339h-1.5131m3.0344-0.62838v5.2834h-1.5214v-1.4056c-0.34727 0.56224-0.77997 0.97841-1.2981 1.2485-0.51814 0.26458-1.152 0.39688-1.9017 0.39688-0.9481 0-1.7033-0.26459-2.2655-0.79375-0.55673-0.53468-0.8351-1.2485-0.83509-2.1415-0.00001-1.0418 0.34726-1.8273 1.0418-2.3564 0.70004-0.52916 1.7418-0.79374 3.1254-0.79375h2.1332v-0.14883c0-0.70003-0.23151-1.2402-0.69453-1.6206-0.45751-0.38584-1.1024-0.57876-1.9348-0.57877-0.52917 0.00001-1.0446 0.0634-1.5462 0.19017-0.50161 0.12678-0.98392 0.31695-1.4469 0.5705v-1.4056c0.55672-0.21497 1.0969-0.37482 1.6206-0.47956 0.52365-0.11023 1.0335-0.16535 1.5296-0.16536 1.3394 0.00001 2.3399 0.34727 3.0014 1.0418 0.66145 0.69454 0.99218 1.7474 0.99219 3.1585"/>
  <path id="path3164" style="" d="m624.41 204.76c0.38033-0.68349 0.83508-1.1878 1.3642-1.5131 0.52916-0.32521 1.152-0.48781 1.8686-0.48782 0.96461 0.00001 1.7088 0.339 2.2324 1.017 0.52364 0.67249 0.78546 1.6316 0.78548 2.8773v5.5893h-1.5296v-5.5397c-0.00002-0.88744-0.15711-1.5461-0.47129-1.9761-0.3142-0.42994-0.79376-0.64491-1.4387-0.64492-0.78825 0.00001-1.4111 0.26184-1.8686 0.78548-0.45751 0.52366-0.68627 1.2375-0.68626 2.1415v5.2338h-1.5296v-5.5397c0-0.89296-0.1571-1.5517-0.47128-1.9761-0.3142-0.42994-0.79927-0.64491-1.4552-0.64492-0.77722 0.00001-1.3946 0.26459-1.8521 0.79375-0.45751 0.52366-0.68626 1.2347-0.68626 2.1332v5.2338h-1.5296v-9.2604h1.5296v1.4387c0.34726-0.56774 0.76343-0.98667 1.2485-1.2568 0.48506-0.27009 1.0611-0.40513 1.7281-0.40514 0.67247 0.00001 1.243 0.17088 1.7115 0.51263 0.47403 0.34176 0.82405 0.83785 1.0501 1.4883"/>
 </g>
 <g id="g46" transform="translate(-1 -3.5025)">
  <path id="rect48" fill="#d9d9cd" d="m280 110h46v38.333h-46z"/>
  <path id="rect50" d="m280 110h46v38.333h-46z" stroke="#000" stroke-width="2" fill="none"/>
  <path id="rect52" d="m280 110h46v38.333h-46z" stroke="#000" stroke-width=".2" fill="none"/>
  <path id="rect54" fill="#a1a1a1" d="m282.56 112.56h40.889v30.667h-40.889z"/>
  <path id="rect56" d="m282.56 112.56h40.889v30.667h-40.889z" stroke="#000" stroke-width="2" fill="none"/>
  <path id="rect58" d="m282.56 112.56h40.889v30.667h-40.889z" stroke="#000" stroke-width=".2" fill="none"/>
  <path id="polygon60" fill="#d9d9cd" d="m310.67 150.89h-15.334l-7.666-2.556h30.666z"/>
  <path id="polygon62" d="m310.67 150.89h-15.334l-7.666-2.556h30.666z" stroke="#000" stroke-width="2" fill="none"/>
  <path id="polygon64" d="m310.67 150.89h-15.334l-7.666-2.556h30.666z" stroke="#000" stroke-width=".2" fill="none"/>
  <path id="rect66" fill="#d9d9cd" d="m295.33 150.89h15.333v2.5556h-15.333z"/>
  <path id="rect68" d="m295.33 150.89h15.333v2.5556h-15.333z" stroke="#000" stroke-width="2" fill="none"/>
  <path id="rect70" d="m295.33 150.89h15.333v2.5556h-15.333z" stroke="#000" stroke-width=".2" fill="none"/>
  <path id="rect72" fill="#d9d9cd" d="m287.67 153.44h30.667v2.5556h-30.667z"/>
  <path id="rect74" d="m287.67 153.44h30.667v2.5556h-30.667z" stroke="#000" stroke-width="2" fill="none"/>
  <path id="rect76" d="m287.67 153.44h30.667v2.5556h-30.667z" stroke="#000" stroke-width=".2" fill="none"/>
 </g>
 <g id="g78" stroke="#000" stroke-width="2" fill="none" transform="translate(-1 -3.5025)">
  <path id="line80" d="m340 140h55.528"/>
  <path id="polyline82" d="m387.76 145 10-5-10-5"/>
 </g>
 <g id="g84" stroke="#000" stroke-width="2" fill="none" transform="translate(-1 -3.5025)">
  <path id="line86" d="m400 160h-55.528"/>
  <path id="polyline88" d="m352.24 155-10 5 10 5"/>
 </g>
 <g id="g90" transform="translate(-1 -3.5025)">
  <g id="g92">
   <path id="rect94" fill="#bfbfbf" d="m280 166h46v22h-46z"/>
   <path id="rect96" d="m280 166h46v22h-46z" stroke="#000" stroke-width="2" fill="none"/>
  </g>
  <g id="g98">
   <path id="rect100" fill="#7f7f7f" d="m284 174h24v10h-24z"/>
   <path id="rect102" d="m284 174h24v10h-24z" stroke="#000" stroke-width="2" fill="none"/>
  </g>
  <g id="g104">
   <path id="rect106" fill="#7f7f7f" d="m316 174h6v10h-6z"/>
   <path id="rect108" d="m316 174h6v10h-6z" stroke="#000" stroke-width="2" fill="none"/>
  </g>
  <path id="line110" d="m283 170h26" stroke="#000" stroke-width="2" fill="none"/>
  <path id="line112" d="m310 184h4" stroke="#000" stroke-width="2" fill="none"/>
  <path id="line114" d="m312 184v-2" stroke="#000" stroke-width="2" fill="none"/>
  <g id="g116">
   <path id="rect118" fill="#fff" d="m311 174h2v2h-2z"/>
   <path id="rect120" d="m311 174h2v2h-2z" stroke="#000" stroke-width="2" fill="none"/>
  </g>
  <path id="line122" d="m310 170h4" stroke="#000" stroke-width="2" fill="none"/>
 </g>
 <g id="g124" transform="translate(-1 -3.5025)">
  <g id="g126">
   <path id="ellipse128" fill="#fff" d="m250 110c0 11.046-8.9543 20-20 20s-20-8.9543-20-20 8.9543-20 20-20 20 8.9543 20 20z"/>
   <path id="ellipse130" d="m250 110c0 11.046-8.9543 20-20 20s-20-8.9543-20-20 8.9543-20 20-20 20 8.9543 20 20z" stroke="#000" stroke-width="2" fill="none"/>
  </g>
  <path id="line132" d="m210 150h40" stroke="#000" stroke-width="2" fill="none"/>
  <path id="line134" d="m230 130v40" stroke="#000" stroke-width="2" fill="none"/>
  <path id="line136" d="m230 170-20 40" stroke="#000" stroke-width="2" fill="none"/>
  <path id="line138" d="m230 170 20 40" stroke="#000" stroke-width="2" fill="none"/>
 </g>
 <g id="g140" transform="translate(-1 -3.5025)">
  <path id="rect142" fill="#fff" d="m680 100h100v100h-100z"/>
  <path id="rect144" d="m680 100h100v100h-100z" stroke="#000" stroke-width="2" fill="none"/>
 </g>
 <g id="text146">
  <path id="path3206" style="" d="m691.1 207.59c-1.2292 0.00001-2.0808 0.14057-2.5549 0.42168-0.47405 0.28113-0.71107 0.76068-0.71107 1.4387 0 0.54019 0.17639 0.97014 0.52917 1.2898 0.35828 0.3142 0.84335 0.47129 1.4552 0.47129 0.84336 0 1.5186-0.29765 2.0257-0.89297 0.51262-0.60082 0.76893-1.3973 0.76894-2.3895v-0.339h-1.5131m3.0344-0.62838v5.2834h-1.5214v-1.4056c-0.34727 0.56224-0.77998 0.97841-1.2981 1.2485-0.51815 0.26458-1.152 0.39688-1.9017 0.39688-0.94809 0-1.7032-0.26459-2.2655-0.79375-0.55673-0.53468-0.83509-1.2485-0.83509-2.1415 0-1.0418 0.34726-1.8273 1.0418-2.3564 0.70003-0.52916 1.7418-0.79374 3.1254-0.79375h2.1332v-0.14883c-0.00001-0.70003-0.23152-1.2402-0.69453-1.6206-0.45751-0.38584-1.1024-0.57876-1.9348-0.57877-0.52917 0.00001-1.0446 0.0634-1.5462 0.19017-0.50161 0.12678-0.98392 0.31695-1.4469 0.5705v-1.4056c0.55673-0.21497 1.0969-0.37482 1.6206-0.47956 0.52365-0.11023 1.0335-0.16535 1.5296-0.16536 1.3394 0.00001 2.3399 0.34727 3.0014 1.0418 0.66145 0.69454 0.99218 1.7474 0.99219 3.1585"/>
  <path id="path3208" style="" d="m697.28 199.38h1.5214v12.865h-1.5214v-12.865"/>
  <path id="path3210" style="" d="m703.45 210.86v4.9113h-1.5296v-12.783h1.5296v1.4056c0.3197-0.55121 0.72209-0.95911 1.2072-1.2237 0.49057-0.27009 1.0749-0.40513 1.7529-0.40514 1.1245 0.00001 2.0367 0.44649 2.7368 1.3394 0.70554 0.89297 1.0583 2.0671 1.0583 3.5223-0.00001 1.4552-0.35279 2.6293-1.0583 3.5223-0.70005 0.89296-1.6123 1.3394-2.7368 1.3394-0.678 0-1.2623-0.1323-1.7529-0.39688-0.48507-0.27009-0.88746-0.68075-1.2072-1.232m5.1759-3.2329c-0.00001-1.119-0.23152-1.9954-0.69453-2.6293-0.45752-0.6394-1.0886-0.9591-1.8934-0.95911-0.80478 0.00001-1.4387 0.31971-1.9017 0.95911-0.45751 0.63391-0.68626 1.5103-0.68626 2.6293s0.22875 1.9982 0.68626 2.6376c0.46302 0.63389 1.0969 0.95084 1.9017 0.95084 0.80477 0 1.4359-0.31695 1.8934-0.95084 0.46301-0.63941 0.69452-1.5186 0.69453-2.6376"/>
  <path id="path3212" style="" d="m718.09 204.41c-0.17088-0.0992-0.35829-0.17087-0.56224-0.21497-0.19844-0.0496-0.41892-0.0744-0.66145-0.0744-0.8599 0.00001-1.5214 0.28113-1.9844 0.84336-0.45751 0.55674-0.68627 1.3588-0.68627 2.406v4.8782h-1.5296v-9.2604h1.5296v1.4387c0.31971-0.56223 0.73587-0.9784 1.2485-1.2485 0.51263-0.2756 1.1355-0.4134 1.8686-0.41341 0.10473 0.00001 0.22048 0.008 0.34727 0.0248 0.12677 0.011 0.26733 0.0303 0.42167 0.0579l0.008 1.5627"/>
  <path id="path3214" style="" d="m722.92 204.05c-0.8158 0.00001-1.4607 0.31971-1.9348 0.95911-0.47405 0.6339-0.71107 1.5048-0.71107 2.6128 0 1.1079 0.23426 1.9816 0.7028 2.621 0.47404 0.6339 1.1217 0.95085 1.943 0.95084 0.81028 0.00001 1.4524-0.3197 1.9265-0.95911 0.47404-0.6394 0.71106-1.5103 0.71107-2.6128-0.00001-1.0969-0.23703-1.9651-0.71107-2.6045-0.47405-0.64491-1.1162-0.96737-1.9265-0.96738m0-1.2898c1.3229 0.00001 2.3619 0.42995 3.1171 1.2898 0.75515 0.8599 1.1327 2.0505 1.1327 3.5719-0.00001 1.5158-0.37759 2.7065-1.1327 3.5719-0.75518 0.8599-1.7942 1.2898-3.1171 1.2898-1.3284 0-2.3702-0.42995-3.1254-1.2898-0.74965-0.8654-1.1245-2.056-1.1245-3.5719 0-1.5214 0.37482-2.712 1.1245-3.5719 0.75517-0.85989 1.797-1.2898 3.1254-1.2898"/>
  <path id="path3216" style="" d="m735.78 207.51c-0.00001-1.1024-0.22876-1.9568-0.68626-2.5631-0.452-0.60633-1.0886-0.9095-1.91-0.90951-0.8158 0.00001-1.4524 0.30318-1.91 0.90951-0.45199 0.60634-0.67799 1.4607-0.67799 2.5631 0 1.0969 0.226 1.9486 0.67799 2.5549 0.45751 0.60634 1.0942 0.9095 1.91 0.9095 0.82131 0 1.458-0.30316 1.91-0.9095 0.4575-0.60633 0.68625-1.458 0.68626-2.5549m1.5214 3.5884c-0.00001 1.5765-0.35003 2.7478-1.0501 3.514-0.70005 0.77169-1.7722 1.1575-3.2163 1.1576-0.53468-0.00001-1.039-0.0413-1.5131-0.12403-0.47405-0.0772-0.93431-0.19844-1.3808-0.3638v-1.48c0.44648 0.24253 0.88745 0.42168 1.3229 0.53744 0.43546 0.11575 0.87919 0.17363 1.3312 0.17363 0.99769 0 1.7446-0.26183 2.2407-0.78548 0.49609-0.51814 0.74413-1.3036 0.74414-2.3564v-0.75241c-0.3142 0.5457-0.71658 0.9536-1.2072 1.2237-0.49058 0.27009-1.0776 0.40514-1.7611 0.40514-1.1355 0-2.0505-0.43271-2.745-1.2981-0.69454-0.86541-1.0418-2.0119-1.0418-3.4396 0-1.4332 0.34726-2.5824 1.0418-3.4478 0.69452-0.8654 1.6095-1.2981 2.745-1.2981 0.6835 0.00001 1.2706 0.13505 1.7611 0.40514 0.49058 0.2701 0.89296 0.678 1.2072 1.2237v-1.4056h1.5214v8.1111"/>
  <path id="path3218" style="" d="m745.8 204.41c-0.17088-0.0992-0.35829-0.17087-0.56223-0.21497-0.19845-0.0496-0.41893-0.0744-0.66146-0.0744-0.8599 0.00001-1.5214 0.28113-1.9844 0.84336-0.45751 0.55674-0.68627 1.3588-0.68626 2.406v4.8782h-1.5296v-9.2604h1.5296v1.4387c0.3197-0.56223 0.73586-0.9784 1.2485-1.2485 0.51262-0.2756 1.1355-0.4134 1.8686-0.41341 0.10473 0.00001 0.22048 0.008 0.34727 0.0248 0.12677 0.011 0.26733 0.0303 0.42168 0.0579l0.008 1.5627"/>
  <path id="path3220" style="" d="m751.62 207.59c-1.2292 0.00001-2.0808 0.14057-2.5549 0.42168-0.47405 0.28113-0.71107 0.76068-0.71107 1.4387 0 0.54019 0.17639 0.97014 0.52917 1.2898 0.35828 0.3142 0.84335 0.47129 1.4552 0.47129 0.84335 0 1.5186-0.29765 2.0257-0.89297 0.51263-0.60082 0.76894-1.3973 0.76895-2.3895v-0.339h-1.5131m3.0344-0.62838v5.2834h-1.5214v-1.4056c-0.34727 0.56224-0.77998 0.97841-1.2981 1.2485-0.51815 0.26458-1.152 0.39688-1.9017 0.39688-0.94809 0-1.7032-0.26459-2.2655-0.79375-0.55673-0.53468-0.83509-1.2485-0.83509-2.1415 0-1.0418 0.34726-1.8273 1.0418-2.3564 0.70004-0.52916 1.7418-0.79374 3.1254-0.79375h2.1332v-0.14883c-0.00001-0.70003-0.23152-1.2402-0.69453-1.6206-0.45752-0.38584-1.1024-0.57876-1.9348-0.57877-0.52917 0.00001-1.0446 0.0634-1.5462 0.19017-0.50161 0.12678-0.98392 0.31695-1.4469 0.5705v-1.4056c0.55673-0.21497 1.0969-0.37482 1.6206-0.47956 0.52365-0.11023 1.0335-0.16535 1.5296-0.16536 1.3394 0.00001 2.3399 0.34727 3.0014 1.0418 0.66145 0.69454 0.99218 1.7474 0.99219 3.1585"/>
  <path id="path3222" style="" d="m765 204.76c0.38033-0.68349 0.83508-1.1878 1.3643-1.5131 0.52915-0.32521 1.152-0.48781 1.8686-0.48782 0.96462 0.00001 1.7088 0.339 2.2324 1.017 0.52364 0.67249 0.78547 1.6316 0.78548 2.8773v5.5893h-1.5296v-5.5397c-0.00001-0.88744-0.15711-1.5461-0.47129-1.9761-0.3142-0.42994-0.79376-0.64491-1.4387-0.64492-0.78825 0.00001-1.4111 0.26184-1.8686 0.78548-0.45752 0.52366-0.68627 1.2375-0.68626 2.1415v5.2338h-1.5296v-5.5397c-0.00001-0.89296-0.15711-1.5517-0.47129-1.9761-0.3142-0.42994-0.79927-0.64491-1.4552-0.64492-0.77721 0.00001-1.3946 0.26459-1.8521 0.79375-0.45751 0.52366-0.68626 1.2347-0.68626 2.1332v5.2338h-1.5296v-9.2604h1.5296v1.4387c0.34726-0.56774 0.76343-0.98667 1.2485-1.2568 0.48507-0.27009 1.0611-0.40513 1.7281-0.40514 0.67247 0.00001 1.243 0.17088 1.7115 0.51263 0.47404 0.34176 0.82406 0.83785 1.0501 1.4883"/>
 </g>
 <g id="g150" stroke="#000" stroke-width="2" fill="none" transform="translate(-1 -3.5025)">
  <path id="line152" d="m640 120h35.528"/>
  <path id="polyline154" d="m667.76 125 10-5-10-5"/>
 </g>
 <g id="g156" stroke="#000" stroke-width="2" fill="none" transform="translate(-1 -3.5025)">
  <path id="line158" d="m680 180h-35.528"/>
  <path id="polyline160" d="m652.24 175-10 5 10 5"/>
 </g>
 <g id="text162">
  <path id="path3229" style="" d="m692.67 139.51h1.5296v7.5985l4.5392-3.9936h1.943l-4.9113 4.3325 5.118 4.9279h-1.9844l-4.7046-4.5227v4.5227h-1.5296v-12.865"/>
  <path id="path3231" style="" d="m702.55 143.11h1.5214v9.2604h-1.5214v-9.2604m0-3.6049h1.5214v1.9265h-1.5214v-1.9265"/>
  <path id="path3233" style="" d="m713.15 143.38v1.4387c-0.42996-0.22048-0.87644-0.38584-1.3394-0.49609-0.46303-0.11024-0.94259-0.16536-1.4387-0.16537-0.75517 0.00001-1.3229 0.11577-1.7033 0.34727-0.37482 0.23151-0.56224 0.57878-0.56223 1.0418-0.00001 0.35279 0.13504 0.63115 0.40514 0.83509 0.27009 0.19844 0.81304 0.38861 1.6288 0.57051l0.52089 0.11575c1.0804 0.23152 1.8466 0.55949 2.2986 0.98392 0.4575 0.41893 0.68625 1.006 0.68626 1.7611-0.00001 0.8599-0.34176 1.5406-1.0253 2.0422-0.678 0.5016-1.6123 0.75241-2.8029 0.75241-0.4961 0-1.0142-0.0496-1.5544-0.14883-0.53468-0.0937-1.0997-0.23702-1.695-0.42995v-1.571c0.56224 0.29215 1.1162 0.51263 1.6619 0.66146 0.5457 0.14331 1.0859 0.21497 1.6206 0.21497 0.71657 0 1.2678-0.12127 1.6536-0.3638 0.38585-0.24805 0.57877-0.59531 0.57878-1.0418-0.00001-0.4134-0.14057-0.73035-0.42168-0.95084-0.27562-0.22048-0.88471-0.4327-1.8273-0.63665l-0.52916-0.12403c-0.94258-0.19843-1.6233-0.5016-2.0422-0.9095-0.41893-0.4134-0.62839-0.9784-0.62839-1.695 0-0.87091 0.30868-1.5434 0.92604-2.0174 0.61736-0.47403 1.4938-0.71105 2.6293-0.71106 0.56223 0.00001 1.0914 0.0413 1.5875 0.12402 0.49609 0.0827 0.9536 0.20672 1.3725 0.37207"/>
  <path id="path3235" style="" d="m724 147.36v0.74414h-6.9949c0.0661 1.0473 0.38034 1.8466 0.94258 2.3978 0.56774 0.5457 1.356 0.81856 2.3647 0.81855 0.58428 0.00001 1.1493-0.0717 1.695-0.21497 0.55121-0.14331 1.0969-0.35829 1.6371-0.64492v1.4387c-0.54571 0.23151-1.1052 0.4079-1.6784 0.52917-0.57327 0.12126-1.1548 0.1819-1.7446 0.1819-1.4773 0-2.6486-0.42995-3.514-1.2898-0.8599-0.85989-1.2898-2.023-1.2898-3.4892 0-1.5158 0.4079-2.7175 1.2237-3.6049 0.82131-0.89296 1.9265-1.3394 3.3156-1.3394 1.2457 0.00001 2.2297 0.40239 2.9518 1.2072 0.72759 0.79926 1.0914 1.8879 1.0914 3.2659m-1.5214-0.44648c-0.011-0.83233-0.2453-1.4965-0.7028-1.9926-0.452-0.49609-1.0528-0.74413-1.8025-0.74414-0.84887 0.00001-1.5296 0.23978-2.0422 0.71933-0.50712 0.47957-0.79926 1.1548-0.87643 2.0257l5.424-0.008"/>
  <path id="path3237" style="" d="m731.86 144.53c-0.17088-0.0992-0.3583-0.17087-0.56224-0.21497-0.19844-0.0496-0.41893-0.0744-0.66146-0.0744-0.85989 0.00001-1.5214 0.28113-1.9844 0.84336-0.45751 0.55674-0.68626 1.3588-0.68626 2.406v4.8782h-1.5296v-9.2604h1.5296v1.4387c0.3197-0.56223 0.73587-0.9784 1.2485-1.2485 0.51263-0.2756 1.1355-0.4134 1.8686-0.41341 0.10472 0.00001 0.22048 0.008 0.34726 0.0248 0.12678 0.011 0.26733 0.0303 0.42168 0.0579l0.008 1.5627"/>
  <path id="path3239" style="" d="m733.47 139.51h1.5214v12.865h-1.5214v-12.865"/>
  <path id="path3241" style="" d="m746.09 147.36v0.74414h-6.9949c0.0661 1.0473 0.38033 1.8466 0.94257 2.3978 0.56775 0.5457 1.356 0.81856 2.3647 0.81855 0.58428 0.00001 1.1493-0.0717 1.695-0.21497 0.5512-0.14331 1.0969-0.35829 1.6371-0.64492v1.4387c-0.54571 0.23151-1.1052 0.4079-1.6784 0.52917-0.57327 0.12126-1.1548 0.1819-1.7446 0.1819-1.4773 0-2.6486-0.42995-3.514-1.2898-0.85989-0.85989-1.2898-2.023-1.2898-3.4892 0-1.5158 0.4079-2.7175 1.2237-3.6049 0.8213-0.89296 1.9265-1.3394 3.3156-1.3394 1.2457 0.00001 2.2296 0.40239 2.9518 1.2072 0.72759 0.79926 1.0914 1.8879 1.0914 3.2659m-1.5214-0.44648c-0.011-0.83233-0.24529-1.4965-0.70279-1.9926-0.45201-0.49609-1.0528-0.74413-1.8025-0.74414-0.84887 0.00001-1.5296 0.23978-2.0422 0.71933-0.50712 0.47957-0.79927 1.1548-0.87643 2.0257l5.4239-0.008"/>
  <path id="path3243" style="" d="m750.09 140.48v2.6293h3.1336v1.1824h-3.1336v5.0271c0 0.75516 0.10197 1.2402 0.30593 1.4552 0.20945 0.21498 0.63113 0.32246 1.265 0.32246h1.5627v1.2733h-1.5627c-1.1741 0-1.9844-0.21773-2.4308-0.65319-0.44649-0.44097-0.66973-1.2402-0.66973-2.3978v-5.0271h-1.1162v-1.1824h1.1162v-2.6293h1.5296"/>
  <path id="path3245" style="" d="m758.89 139.52c-0.73863 1.2678-1.2871 2.5218-1.6454 3.762s-0.53744 2.497-0.53744 3.7703 0.17914 2.5356 0.53744 3.7868c0.36379 1.2457 0.91225 2.4998 1.6454 3.762h-1.3229c-0.82683-1.2954-1.4469-2.5687-1.8604-3.8199-0.4079-1.2512-0.61185-2.4942-0.61185-3.729 0-1.2292 0.20395-2.4667 0.61185-3.7124 0.40789-1.2457 1.028-2.519 1.8604-3.8199h1.3229"/>
  <path id="path3247" style="" d="m761.61 139.52h1.3229c0.82681 1.3009 1.4442 2.5742 1.8521 3.8199 0.4134 1.2458 0.62011 2.4832 0.62011 3.7124 0 1.2347-0.20671 2.4777-0.62011 3.729-0.40791 1.2513-1.0253 2.5246-1.8521 3.8199h-1.3229c0.73312-1.2623 1.2788-2.5163 1.6371-3.762 0.3638-1.2513 0.5457-2.5135 0.5457-3.7868s-0.1819-2.5301-0.5457-3.7703c-0.35829-1.2402-0.90399-2.4942-1.6371-3.762"/>
 </g>
 <g id="g166" transform="translate(-1 -3.5025)">
  <path id="rect168" fill="#fff" d="m819.41 100h100v100h-100z"/>
  <path id="rect170" d="m819.41 100h100v100h-100z" stroke="#000" stroke-width="2" fill="none"/>
 </g>
 <g id="text172">
  <path id="path3252" style="" d="m830.51 207.59c-1.2292 0.00001-2.0808 0.14057-2.5549 0.42168-0.47404 0.28113-0.71106 0.76068-0.71106 1.4387 0 0.54019 0.17638 0.97014 0.52916 1.2898 0.35829 0.3142 0.84336 0.47129 1.4552 0.47129 0.84335 0 1.5186-0.29765 2.0257-0.89297 0.51262-0.60082 0.76894-1.3973 0.76894-2.3895v-0.339h-1.5131m3.0344-0.62838v5.2834h-1.5214v-1.4056c-0.34727 0.56224-0.77997 0.97841-1.2981 1.2485-0.51815 0.26458-1.152 0.39688-1.9017 0.39688-0.94809 0-1.7033-0.26459-2.2655-0.79375-0.55673-0.53468-0.83509-1.2485-0.83509-2.1415 0-1.0418 0.34726-1.8273 1.0418-2.3564 0.70004-0.52916 1.7418-0.79374 3.1254-0.79375h2.1332v-0.14883c0-0.70003-0.23151-1.2402-0.69452-1.6206-0.45752-0.38584-1.1024-0.57876-1.9348-0.57877-0.52917 0.00001-1.0446 0.0634-1.5462 0.19017-0.50161 0.12678-0.98392 0.31695-1.4469 0.5705v-1.4056c0.55672-0.21497 1.0969-0.37482 1.6206-0.47956 0.52365-0.11023 1.0335-0.16535 1.5296-0.16536 1.3394 0.00001 2.3399 0.34727 3.0014 1.0418 0.66145 0.69454 0.99218 1.7474 0.99219 3.1585"/>
  <path id="path3254" style="" d="m836.69 199.38h1.5214v12.865h-1.5214v-12.865"/>
  <path id="path3256" style="" d="m842.85 210.86v4.9113h-1.5296v-12.783h1.5296v1.4056c0.31971-0.55121 0.72209-0.95911 1.2072-1.2237 0.49058-0.27009 1.0749-0.40513 1.7529-0.40514 1.1245 0.00001 2.0367 0.44649 2.7368 1.3394 0.70555 0.89297 1.0583 2.0671 1.0583 3.5223-0.00001 1.4552-0.35278 2.6293-1.0583 3.5223-0.70005 0.89296-1.6123 1.3394-2.7368 1.3394-0.67799 0-1.2623-0.1323-1.7529-0.39688-0.48507-0.27009-0.88745-0.68075-1.2072-1.232m5.1759-3.2329c-0.00001-1.119-0.23152-1.9954-0.69453-2.6293-0.45752-0.6394-1.0887-0.9591-1.8934-0.95911-0.80477 0.00001-1.4387 0.31971-1.9017 0.95911-0.45752 0.63391-0.68627 1.5103-0.68627 2.6293s0.22875 1.9982 0.68627 2.6376c0.46301 0.63389 1.0969 0.95084 1.9017 0.95084 0.80477 0 1.4359-0.31695 1.8934-0.95084 0.46301-0.63941 0.69452-1.5186 0.69453-2.6376"/>
  <path id="path3258" style="" d="m857.5 204.41c-0.17088-0.0992-0.3583-0.17087-0.56224-0.21497-0.19844-0.0496-0.41893-0.0744-0.66146-0.0744-0.8599 0.00001-1.5214 0.28113-1.9844 0.84336-0.45751 0.55674-0.68626 1.3588-0.68626 2.406v4.8782h-1.5296v-9.2604h1.5296v1.4387c0.3197-0.56223 0.73587-0.9784 1.2485-1.2485 0.51263-0.2756 1.1355-0.4134 1.8686-0.41341 0.10472 0.00001 0.22048 0.008 0.34726 0.0248 0.12677 0.011 0.26733 0.0303 0.42168 0.0579l0.008 1.5627"/>
  <path id="path3260" style="" d="m862.32 204.05c-0.81581 0.00001-1.4607 0.31971-1.9348 0.95911-0.47404 0.6339-0.71107 1.5048-0.71106 2.6128-0.00001 1.1079 0.23426 1.9816 0.7028 2.621 0.47404 0.6339 1.1217 0.95085 1.943 0.95084 0.81027 0.00001 1.4524-0.3197 1.9265-0.95911 0.47404-0.6394 0.71106-1.5103 0.71107-2.6128-0.00001-1.0969-0.23703-1.9651-0.71107-2.6045-0.47405-0.64491-1.1162-0.96737-1.9265-0.96738m0-1.2898c1.3229 0.00001 2.3619 0.42995 3.1171 1.2898 0.75516 0.8599 1.1327 2.0505 1.1328 3.5719-0.00001 1.5158-0.37759 2.7065-1.1328 3.5719-0.75517 0.8599-1.7942 1.2898-3.1171 1.2898-1.3284 0-2.3702-0.42995-3.1254-1.2898-0.74965-0.8654-1.1245-2.056-1.1245-3.5719 0-1.5214 0.37483-2.712 1.1245-3.5719 0.75516-0.85989 1.797-1.2898 3.1254-1.2898"/>
  <path id="path3262" style="" d="m875.18 207.51c-0.00001-1.1024-0.22876-1.9568-0.68627-2.5631-0.452-0.60633-1.0886-0.9095-1.91-0.90951-0.8158 0.00001-1.4525 0.30318-1.91 0.90951-0.452 0.60634-0.678 1.4607-0.67799 2.5631-0.00001 1.0969 0.22599 1.9486 0.67799 2.5549 0.4575 0.60634 1.0942 0.9095 1.91 0.9095 0.8213 0 1.458-0.30316 1.91-0.9095 0.45751-0.60633 0.68626-1.458 0.68627-2.5549m1.5214 3.5884c-0.00001 1.5765-0.35003 2.7478-1.0501 3.514-0.70004 0.77169-1.7722 1.1575-3.2163 1.1576-0.53468-0.00001-1.039-0.0413-1.5131-0.12403-0.47405-0.0772-0.93431-0.19844-1.3808-0.3638v-1.48c0.44648 0.24253 0.88745 0.42168 1.3229 0.53744 0.43545 0.11575 0.87918 0.17363 1.3312 0.17363 0.99769 0 1.7446-0.26183 2.2407-0.78548 0.49608-0.51814 0.74413-1.3036 0.74414-2.3564v-0.75241c-0.3142 0.5457-0.71659 0.9536-1.2072 1.2237-0.49059 0.27009-1.0776 0.40514-1.7611 0.40514-1.1355 0-2.0505-0.43271-2.745-1.2981-0.69453-0.86541-1.0418-2.0119-1.0418-3.4396 0-1.4332 0.34726-2.5824 1.0418-3.4478 0.69453-0.8654 1.6095-1.2981 2.745-1.2981 0.6835 0.00001 1.2705 0.13505 1.7611 0.40514 0.49057 0.2701 0.89296 0.678 1.2072 1.2237v-1.4056h1.5214v8.1111"/>
  <path id="path3264" style="" d="m885.2 204.41c-0.17088-0.0992-0.3583-0.17087-0.56224-0.21497-0.19844-0.0496-0.41893-0.0744-0.66146-0.0744-0.85989 0.00001-1.5214 0.28113-1.9844 0.84336-0.45751 0.55674-0.68626 1.3588-0.68626 2.406v4.8782h-1.5296v-9.2604h1.5296v1.4387c0.3197-0.56223 0.73587-0.9784 1.2485-1.2485 0.51263-0.2756 1.1355-0.4134 1.8686-0.41341 0.10472 0.00001 0.22048 0.008 0.34726 0.0248 0.12678 0.011 0.26734 0.0303 0.42168 0.0579l0.008 1.5627"/>
  <path id="path3266" style="" d="m891.02 207.59c-1.2292 0.00001-2.0808 0.14057-2.5549 0.42168-0.47404 0.28113-0.71107 0.76068-0.71106 1.4387-0.00001 0.54019 0.17638 0.97014 0.52916 1.2898 0.35829 0.3142 0.84336 0.47129 1.4552 0.47129 0.84335 0 1.5186-0.29765 2.0257-0.89297 0.51262-0.60082 0.76894-1.3973 0.76894-2.3895v-0.339h-1.5131m3.0344-0.62838v5.2834h-1.5214v-1.4056c-0.34727 0.56224-0.77997 0.97841-1.2981 1.2485-0.51814 0.26458-1.152 0.39688-1.9017 0.39688-0.9481 0-1.7033-0.26459-2.2655-0.79375-0.55673-0.53468-0.8351-1.2485-0.83509-2.1415-0.00001-1.0418 0.34726-1.8273 1.0418-2.3564 0.70004-0.52916 1.7418-0.79374 3.1254-0.79375h2.1332v-0.14883c0-0.70003-0.23151-1.2402-0.69453-1.6206-0.45751-0.38584-1.1024-0.57876-1.9348-0.57877-0.52917 0.00001-1.0446 0.0634-1.5462 0.19017-0.50161 0.12678-0.98392 0.31695-1.4469 0.5705v-1.4056c0.55672-0.21497 1.0969-0.37482 1.6206-0.47956 0.52365-0.11023 1.0335-0.16535 1.5296-0.16536 1.3394 0.00001 2.3399 0.34727 3.0014 1.0418 0.66145 0.69454 0.99218 1.7474 0.99219 3.1585"/>
  <path id="path3268" style="" d="m904.41 204.76c0.38033-0.68349 0.83508-1.1878 1.3642-1.5131 0.52916-0.32521 1.152-0.48781 1.8686-0.48782 0.96461 0.00001 1.7088 0.339 2.2324 1.017 0.52364 0.67249 0.78546 1.6316 0.78548 2.8773v5.5893h-1.5296v-5.5397c-0.00002-0.88744-0.15711-1.5461-0.47129-1.9761-0.3142-0.42994-0.79376-0.64491-1.4387-0.64492-0.78825 0.00001-1.4111 0.26184-1.8686 0.78548-0.45751 0.52366-0.68627 1.2375-0.68626 2.1415v5.2338h-1.5296v-5.5397c0-0.89296-0.1571-1.5517-0.47128-1.9761-0.3142-0.42994-0.79927-0.64491-1.4552-0.64492-0.77722 0.00001-1.3946 0.26459-1.8521 0.79375-0.45751 0.52366-0.68626 1.2347-0.68626 2.1332v5.2338h-1.5296v-9.2604h1.5296v1.4387c0.34726-0.56774 0.76343-0.98667 1.2485-1.2568 0.48506-0.27009 1.0611-0.40513 1.7281-0.40514 0.67247 0.00001 1.243 0.17088 1.7115 0.51263 0.47403 0.34176 0.82405 0.83785 1.0501 1.4883"/>
 </g>
 <g id="text176">
  <path id="path3271" style="" d="m845.88 139.51h1.5214v12.865h-1.5214v-12.865"/>
  <path id="path3273" style="" d="m858.27 146.78v5.5893h-1.5214v-5.5397c-0.00001-0.87642-0.17088-1.5324-0.51263-1.9678-0.34176-0.43545-0.85439-0.65318-1.5379-0.65319-0.82131 0.00001-1.469 0.26184-1.943 0.78548-0.47404 0.52366-0.71107 1.2375-0.71106 2.1415v5.2338h-1.5296v-9.2604h1.5296v1.4387c0.36379-0.55672 0.79099-0.97289 1.2816-1.2485 0.49609-0.2756 1.0666-0.4134 1.7115-0.41341 1.0638 0.00001 1.8686 0.33074 2.4143 0.99218 0.54569 0.65596 0.81854 1.6233 0.81855 2.9022"/>
  <path id="path3275" style="" d="m861.27 139.51h1.5296v7.5985l4.5392-3.9936h1.943l-4.9113 4.3325 5.118 4.9279h-1.9844l-4.7046-4.5227v4.5227h-1.5296v-12.865"/>
  <path id="path3277" style="" d="m874.13 144.18c-0.8158 0.00001-1.4607 0.31971-1.9348 0.95911-0.47405 0.6339-0.71107 1.5048-0.71107 2.6128 0 1.1079 0.23427 1.9816 0.7028 2.621 0.47404 0.6339 1.1217 0.95085 1.943 0.95084 0.81028 0.00001 1.4524-0.3197 1.9265-0.95911 0.47403-0.6394 0.71105-1.5103 0.71106-2.6128-0.00001-1.0969-0.23703-1.9651-0.71106-2.6045-0.47406-0.64491-1.1162-0.96737-1.9265-0.96738m0-1.2898c1.3229 0.00001 2.362 0.42995 3.1171 1.2898 0.75515 0.8599 1.1327 2.0505 1.1327 3.5719-0.00001 1.5158-0.37759 2.7065-1.1327 3.5719-0.75517 0.8599-1.7942 1.2898-3.1171 1.2898-1.3284 0-2.3702-0.42995-3.1254-1.2898-0.74966-0.8654-1.1245-2.056-1.1245-3.5719 0-1.5214 0.37482-2.712 1.1245-3.5719 0.75516-0.85989 1.797-1.2898 3.1254-1.2898"/>
  <path id="path3279" style="" d="m884.55 139.52c-0.73863 1.2678-1.2871 2.5218-1.6454 3.762s-0.53744 2.497-0.53744 3.7703 0.17914 2.5356 0.53744 3.7868c0.36379 1.2457 0.91225 2.4998 1.6454 3.762h-1.3229c-0.82683-1.2954-1.4469-2.5687-1.8604-3.8199-0.4079-1.2512-0.61185-2.4942-0.61185-3.729 0-1.2292 0.20395-2.4667 0.61185-3.7124 0.40789-1.2457 1.028-2.519 1.8604-3.8199h1.3229"/>
  <path id="path3281" style="" d="m887.27 139.52h1.3229c0.82681 1.3009 1.4442 2.5742 1.8521 3.8199 0.4134 1.2458 0.62011 2.4832 0.62011 3.7124 0 1.2347-0.20671 2.4777-0.62011 3.729-0.40791 1.2513-1.0253 2.5246-1.8521 3.8199h-1.3229c0.73312-1.2623 1.2788-2.5163 1.6371-3.762 0.3638-1.2513 0.5457-2.5135 0.5457-3.7868s-0.1819-2.5301-0.5457-3.7703c-0.35829-1.2402-0.90399-2.4942-1.6371-3.762"/>
 </g>
 <g id="g180" stroke="#000" stroke-width="2" fill="none" transform="translate(-1 -3.5025)">
  <path id="line182" d="m780 120h35.528"/>
  <path id="polyline184" d="m807.76 125 10-5-10-5"/>
 </g>
 <g id="g186" stroke="#000" stroke-width="2" fill="none" transform="translate(-1 -3.5025)">
  <path id="line188" d="m820 180h-35.528"/>
  <path id="polyline190" d="m792.24 175-10 5 10 5"/>
 </g>
</svg>
