<?xml version="1.0" encoding="UTF-8" standalone="no"?>
<!-- Created with Inkscape (http://www.inkscape.org/) -->
<svg id="svg2" xmlns:rdf="http://www.w3.org/1999/02/22-rdf-syntax-ns#" xmlns="http://www.w3.org/2000/svg" height="121.3" width="316.94" version="1.1" xmlns:cc="http://creativecommons.org/ns#" xmlns:dc="http://purl.org/dc/elements/1.1/" viewBox="249 148 162 54.773008">
 <metadata id="metadata26">
  <rdf:RDF>
   <cc:Work rdf:about="">
    <dc:format>image/svg+xml</dc:format>
    <dc:type rdf:resource="http://purl.org/dc/dcmitype/StillImage"/>
   </cc:Work>
  </rdf:RDF>
 </metadata>
 <g id="g4" transform="translate(0 -4.6135)">
  <path id="polygon6" fill="#fff" d="m300 150 60 30-60 30z"/>
  <path id="polygon8" d="m300 150 60 30-60 30z" stroke="#000" stroke-width="2" fill="none"/>
 </g>
 <g id="g10" transform="translate(0 -4.6135)">
  <path id="ellipse12" fill="#fff" d="m380 180c0 5.5228-4.4772 10-10 10s-10-4.4772-10-10 4.4772-10 10-10 10 4.4772 10 10z"/>
  <path id="ellipse14" d="m380 180c0 5.5228-4.4772 10-10 10s-10-4.4772-10-10 4.4772-10 10-10 10 4.4772 10 10z" stroke="#000" stroke-width="2" fill="none"/>
  <path id="ellipse16" d="m380 180c0 5.5228-4.4772 10-10 10s-10-4.4772-10-10 4.4772-10 10-10 10 4.4772 10 10z" stroke="#000" stroke-width=".2" fill="none"/>
 </g>
 <path id="line18" d="m300 175.39h-50" stroke="#000" stroke-width="2" fill="none"/>
 <path id="line20" d="m380 175.39h30" stroke="#000" stroke-width="2" fill="none"/>
</svg>
