<?xml version="1.0" encoding="UTF-8" standalone="no"?>
<!-- Created with Inkscape (http://www.inkscape.org/) -->
<svg id="svg2" xmlns:rdf="http://www.w3.org/1999/02/22-rdf-syntax-ns#" xmlns="http://www.w3.org/2000/svg" height="309" width="269" version="1.0" xmlns:cc="http://creativecommons.org/ns#" xmlns:dc="http://purl.org/dc/elements/1.1/">
 <metadata id="metadata7">
  <rdf:RDF>
   <cc:Work rdf:about="">
    <dc:format>image/svg+xml</dc:format>
    <dc:type rdf:resource="http://purl.org/dc/dcmitype/StillImage"/>
   </cc:Work>
  </rdf:RDF>
 </metadata>
 <g id="layer1">
  <path id="path4187" d="m155.66 205.4c6.64-18.58 28.36-22.12 44.45-28.69 14.76-8.73 25.38-32.49 46.83-27.83 10.48 0.79 23.71 6.34 16.67 21.58-20.95 9.67-27.19 27.33-42.64 38.88-12.22 16.3-21.56 36.39-40.89 45.63-11.55 5.62-24.46 16.09-20.61 30.5 4.35 17.37-14.2 16.01-25.3 19.61-9.34 1.3-18.63 0.54-27.9-0.79-9.257-1.34-18.487-3.25-27.703-4.28-18.164-7.06 1.509-28.72-12.018-39.11-12.49-10.61-19.809-27.8-21.887-43.63-3.503-15.62-1.408-29.38 1.514-45-0.355-20.09-17.551-34.86-25.392-50.87-8.453-15.79-18.911-32.447-15.515-48.705 8.63-15.438 23.125-0.106 30.077 9.296 9.066 12.682 21.708 35.239 36.042 49.989 13.505 3.82 1.076-14.96-0.674-23.42-7.374-23.857-13.036-42.656-15.521-62.497-0.761-15.882 16.288-27.893 25.463-11.756 8.338 20.131 11.554 42.803 19.039 64.914 4.105 8.329 4.095 20.529 13.665 23.239 10.94 1.5 4.65-37.65 2.58-57.295-1.88-15.724-8.28-49.465 6.34-59.718 18.59-8.1079 24.21 10.829 25.96 35.325 1.52 20.191 1.85 39.778 2.07 57.617 1.86 12.661 2.58 33.351 11.62 15.911 4.58-11.99 7.59-26.943 13.32-45.415 4.28-22.266 11.05-33.543 24.95-24.958 11.72 11.786 4.05 33.851 0.22 49.125-4.39 19.368-11.56 39.448-15.79 57.408-1.34 9.81-1.57 20.58 3.91 29.28" fill-rule="evenodd" stroke="#000" stroke-width="7.5" fill="#fca"/>
 </g>
</svg>
