<?xml version="1.0" encoding="UTF-8" standalone="no"?>
<!-- Created with Inkscape (http://www.inkscape.org/) -->
<svg id="svg2" xmlns:rdf="http://www.w3.org/1999/02/22-rdf-syntax-ns#" xmlns="http://www.w3.org/2000/svg" height="150.11" width="736.29" version="1.1" xmlns:cc="http://creativecommons.org/ns#" xmlns:dc="http://purl.org/dc/elements/1.1/" viewBox="199 188 399.764 69.476744">
 <metadata id="metadata96">
  <rdf:RDF>
   <cc:Work rdf:about="">
    <dc:format>image/svg+xml</dc:format>
    <dc:type rdf:resource="http://purl.org/dc/dcmitype/StillImage"/>
   </cc:Work>
  </rdf:RDF>
 </metadata>
 <g id="g4" transform="translate(0 -7.0116)">
  <path id="line6" d="m200 200h390.26" stroke="#000" stroke-width="2" fill="none"/>
  <path id="polygon8" d="m590.26 200-2.5-5 10 5-10 5z"/>
  <path id="polygon10" d="m590.26 200-2.5-5 10 5-10 5z" stroke="#000" stroke-width="2" fill="none"/>
 </g>
 <path id="line12" d="m400 182.99v20" stroke="#000" stroke-width="2" fill="none"/>
 <g id="text18">
  <path id="path3032" style="" d="m399.99 206.59c-0.68793 0.00001-1.2061 0.33956-1.5544 1.0186-0.34396 0.67469-0.51594 1.6911-0.51593 3.0493-0.00001 1.3538 0.17197 2.3702 0.51593 3.0493 0.34837 0.67469 0.86651 1.012 1.5544 1.012 0.69232 0 1.2105-0.33734 1.5544-1.012 0.34836-0.6791 0.52254-1.6955 0.52255-3.0493-0.00001-1.3582-0.17419-2.3746-0.52255-3.0493-0.34397-0.67909-0.86211-1.0186-1.5544-1.0186m0-1.0583c1.1068 0.00001 1.9513 0.43878 2.5334 1.3163 0.58648 0.87313 0.87973 2.1431 0.87974 3.81-0.00001 1.6625-0.29326 2.9325-0.87974 3.81-0.58209 0.87312-1.4266 1.3097-2.5334 1.3097s-1.9535-0.43657-2.54-1.3097c-0.58209-0.87754-0.87313-2.1475-0.87313-3.81 0-1.6669 0.29104-2.9369 0.87313-3.81 0.58649-0.87753 1.4332-1.3163 2.54-1.3163"/>
 </g>
 <path id="line22" d="m410 182.99v20" stroke="#f00" stroke-width="2" fill="none"/>
 <path id="line24" d="m580 182.99v20" stroke="#f00" stroke-width="2" fill="none"/>
 <path id="line26" d="m390 182.99v20" stroke="#f00" stroke-width="2" fill="none"/>
 <path id="line28" d="m220 182.99v20" stroke="#f00" stroke-width="2" fill="none"/>
 <path id="line30" d="m410 192.99h170" stroke="#f00" stroke-width="2" fill="none"/>
 <path id="line32" d="m220 192.99h170" stroke="#f00" stroke-width="2" fill="none"/>
 <g id="text34">
  <path id="path3041" style="" d="m204.16 211.34h3.5653v1.0848h-3.5653v-1.0848"/>
  <path id="path3043" style="" d="m210.08 214.46h2.1828v-7.534l-2.3746 0.47625v-1.2171l2.3614-0.47625h1.3362v8.7511h2.1828v1.1245h-5.6886v-1.1245"/>
  <path id="path3045" style="" d="m221.33 206.59c-0.68792 0.00001-1.2061 0.33956-1.5544 1.0186-0.34396 0.67469-0.51594 1.6911-0.51594 3.0493 0 1.3538 0.17198 2.3702 0.51594 3.0493 0.34837 0.67469 0.86651 1.012 1.5544 1.012 0.69233 0 1.2105-0.33734 1.5544-1.012 0.34837-0.6791 0.52255-1.6955 0.52256-3.0493-0.00001-1.3582-0.17419-2.3746-0.52256-3.0493-0.34396-0.67909-0.8621-1.0186-1.5544-1.0186m0-1.0583c1.1068 0.00001 1.9513 0.43878 2.5334 1.3163 0.58648 0.87313 0.87973 2.1431 0.87974 3.81-0.00001 1.6625-0.29326 2.9325-0.87974 3.81-0.5821 0.87312-1.4266 1.3097-2.5334 1.3097s-1.9535-0.43657-2.54-1.3097c-0.58209-0.87754-0.87313-2.1475-0.87313-3.81 0-1.6669 0.29104-2.9369 0.87313-3.81 0.58649-0.87753 1.4332-1.3163 2.54-1.3163"/>
  <path id="path3047" style="" d="m229.11 208.18c0.40569 0.0794 0.71878 0.24034 0.93927 0.48287 0.22489 0.23813 0.33734 0.53799 0.33735 0.89958-0.00001 0.54682-0.20947 0.96795-0.62839 1.2634-0.41893 0.29546-1.0186 0.44318-1.7992 0.44318-0.25136 0-0.51594-0.022-0.79375-0.0661-0.27341-0.0485-0.56445-0.11685-0.87313-0.20505v-0.80036c0.2293 0.11906 0.47404 0.20726 0.73422 0.26458 0.26458 0.0573 0.5446 0.086 0.84005 0.086 0.48066 0 0.85328-0.086 1.1179-0.25797 0.26458-0.17638 0.39687-0.41892 0.39688-0.72761-0.00001-0.32631-0.12348-0.57326-0.37042-0.74083-0.24254-0.16756-0.60193-0.25135-1.0782-0.25136h-0.56886v-0.71437h0.62178c0.41451 0 0.7276-0.0683 0.93927-0.20506 0.21607-0.1411 0.32411-0.34395 0.32412-0.60854-0.00001-0.25575-0.11025-0.44978-0.33073-0.58208-0.22049-0.1367-0.5402-0.20505-0.95912-0.20506-0.17639 0.00001-0.37704 0.0199-0.60193 0.0595-0.2249 0.0397-0.51594 0.11025-0.87313 0.21166v-0.76068c0.32191-0.075 0.62398-0.13228 0.9062-0.17198s0.5446-0.0595 0.78714-0.0595c0.635 0.00001 1.1377 0.1301 1.5081 0.39026 0.37482 0.26019 0.56224 0.60856 0.56224 1.0451 0 0.30428-0.0992 0.56225-0.29766 0.77391-0.19844 0.21167-0.47846 0.35719-0.84005 0.43656"/>
  <path id="path3049" style="" d="m234.81 208.83c-0.23372-0.19402-0.55563-0.29103-0.96573-0.29104-0.41011 0.00001-0.73202 0.097-0.96573 0.29104-0.23372 0.18963-0.35058 0.4498-0.35058 0.78053 0 0.33514 0.11686 0.59752 0.35058 0.78713 0.23371 0.18963 0.55562 0.28444 0.96573 0.28443 0.40569 0.00001 0.7276-0.097 0.96573-0.29104 0.23371-0.18961 0.35057-0.44979 0.35057-0.78052s-0.11686-0.5909-0.35057-0.78053m-1.8256-0.61515c-0.37042-0.0794-0.65705-0.2271-0.8599-0.44318-0.20726-0.22048-0.31089-0.48947-0.31089-0.80698 0-0.44097 0.1808-0.78934 0.5424-1.0451s0.85769-0.38364 1.4883-0.38365c0.63059 0.00001 1.1267 0.12789 1.4883 0.38365 0.35719 0.25577 0.53578 0.60414 0.53578 1.0451 0 0.32632-0.10142 0.59532-0.30427 0.80698-0.20726 0.21608-0.49389 0.36381-0.8599 0.44318 0.39688 0.0794 0.71879 0.24695 0.96574 0.5027 0.23371 0.24255 0.35057 0.5402 0.35057 0.89298 0 0.53358-0.18742 0.94368-0.56224 1.2303-0.37924 0.28664-0.91723 0.42995-1.614 0.42995-0.70115 0-1.2391-0.14331-1.614-0.42995-0.37923-0.28663-0.56885-0.69673-0.56885-1.2303 0-0.34396 0.11686-0.64161 0.35057-0.89298 0.23813-0.24693 0.56224-0.4145 0.97235-0.5027m-0.3175-1.1774c0 0.27782 0.10363 0.50051 0.31088 0.66807 0.20285 0.16317 0.49169 0.24475 0.86652 0.24474 0.35718 0.00001 0.64381-0.0816 0.85989-0.24474 0.21167-0.15874 0.3175-0.38143 0.31751-0.66807-0.00001-0.27781-0.10584-0.5005-0.31751-0.66808-0.20726-0.16315-0.49389-0.24473-0.85989-0.24474-0.36601 0.00001-0.65485 0.0816-0.86652 0.24474-0.20725 0.15876-0.31088 0.38145-0.31088 0.66808"/>
 </g>
 <g id="text38">
  <path id="path3052" style="" d="m567.63 214.46h2.1828v-7.534l-2.3746 0.47625v-1.2171l2.3614-0.47625h1.3362v8.7511h2.1828v1.1245h-5.6886v-1.1245"/>
  <path id="path3054" style="" d="m578.88 206.59c-0.68792 0.00001-1.2061 0.33956-1.5544 1.0186-0.34396 0.67469-0.51594 1.6911-0.51594 3.0493 0 1.3538 0.17198 2.3702 0.51594 3.0493 0.34837 0.67469 0.86651 1.012 1.5544 1.012 0.69233 0 1.2105-0.33734 1.5544-1.012 0.34837-0.6791 0.52255-1.6955 0.52256-3.0493-0.00001-1.3582-0.17419-2.3746-0.52256-3.0493-0.34396-0.67909-0.8621-1.0186-1.5544-1.0186m0-1.0583c1.1068 0.00001 1.9513 0.43878 2.5334 1.3163 0.58649 0.87313 0.87974 2.1431 0.87975 3.81-0.00001 1.6625-0.29326 2.9325-0.87975 3.81-0.58209 0.87312-1.4266 1.3097-2.5334 1.3097s-1.9535-0.43657-2.54-1.3097c-0.58209-0.87754-0.87313-2.1475-0.87313-3.81 0-1.6669 0.29104-2.9369 0.87313-3.81 0.58649-0.87753 1.4332-1.3163 2.54-1.3163"/>
  <path id="path3056" style="" d="m586.67 208.18c0.40569 0.0794 0.71878 0.24034 0.93927 0.48287 0.22489 0.23813 0.33734 0.53799 0.33734 0.89958 0 0.54682-0.20946 0.96795-0.62838 1.2634-0.41893 0.29546-1.0186 0.44318-1.7992 0.44318-0.25136 0-0.51594-0.022-0.79376-0.0661-0.2734-0.0485-0.56444-0.11685-0.87312-0.20505v-0.80036c0.2293 0.11906 0.47404 0.20726 0.73422 0.26458 0.26458 0.0573 0.5446 0.086 0.84005 0.086 0.48066 0 0.85328-0.086 1.1179-0.25797 0.26458-0.17638 0.39687-0.41892 0.39688-0.72761-0.00001-0.32631-0.12348-0.57326-0.37042-0.74083-0.24254-0.16756-0.60193-0.25135-1.0782-0.25136h-0.56886v-0.71437h0.62177c0.41452 0 0.72761-0.0683 0.93928-0.20506 0.21607-0.1411 0.32411-0.34395 0.32411-0.60854 0-0.25575-0.11024-0.44978-0.33073-0.58208-0.22049-0.1367-0.54019-0.20505-0.95911-0.20506-0.1764 0.00001-0.37704 0.0199-0.60193 0.0595-0.2249 0.0397-0.51594 0.11025-0.87313 0.21166v-0.76068c0.32191-0.075 0.62398-0.13228 0.9062-0.17198s0.5446-0.0595 0.78714-0.0595c0.635 0.00001 1.1377 0.1301 1.5081 0.39026 0.37482 0.26019 0.56223 0.60856 0.56224 1.0451-0.00001 0.30428-0.0992 0.56225-0.29766 0.77391-0.19844 0.21167-0.47846 0.35719-0.84005 0.43656"/>
  <path id="path3058" style="" d="m592.36 208.83c-0.23372-0.19402-0.55563-0.29103-0.96574-0.29104-0.4101 0.00001-0.73201 0.097-0.96573 0.29104-0.23371 0.18963-0.35057 0.4498-0.35057 0.78053 0 0.33514 0.11686 0.59752 0.35057 0.78713 0.23372 0.18963 0.55563 0.28444 0.96573 0.28443 0.4057 0.00001 0.72761-0.097 0.96574-0.29104 0.23371-0.18961 0.35057-0.44979 0.35057-0.78052s-0.11686-0.5909-0.35057-0.78053m-1.8256-0.61515c-0.37042-0.0794-0.65705-0.2271-0.8599-0.44318-0.20726-0.22048-0.31089-0.48947-0.31089-0.80698 0-0.44097 0.1808-0.78934 0.5424-1.0451s0.85769-0.38364 1.4883-0.38365c0.63059 0.00001 1.1267 0.12789 1.4883 0.38365 0.35718 0.25577 0.53578 0.60414 0.53578 1.0451 0 0.32632-0.10143 0.59532-0.30427 0.80698-0.20726 0.21608-0.49389 0.36381-0.8599 0.44318 0.39687 0.0794 0.71878 0.24695 0.96573 0.5027 0.23372 0.24255 0.35057 0.5402 0.35058 0.89298-0.00001 0.53358-0.18742 0.94368-0.56224 1.2303-0.37924 0.28664-0.91723 0.42995-1.614 0.42995-0.70114 0-1.2391-0.14331-1.614-0.42995-0.37924-0.28663-0.56885-0.69673-0.56885-1.2303 0-0.34396 0.11685-0.64161 0.35057-0.89298 0.23813-0.24693 0.56224-0.4145 0.97235-0.5027m-0.3175-1.1774c-0.00001 0.27782 0.10362 0.50051 0.31088 0.66807 0.20285 0.16317 0.49169 0.24475 0.86651 0.24474 0.35719 0.00001 0.64382-0.0816 0.8599-0.24474 0.21167-0.15874 0.3175-0.38143 0.3175-0.66807 0-0.27781-0.10583-0.5005-0.3175-0.66808-0.20726-0.16315-0.49389-0.24473-0.8599-0.24474-0.36601 0.00001-0.65484 0.0816-0.86651 0.24474-0.20726 0.15876-0.31089 0.38145-0.31088 0.66808"/>
 </g>
 <g id="text42">
  <path id="path3061" style="" d="m411.68 214.46h2.1828v-7.534l-2.3746 0.47625v-1.2171l2.3614-0.47625h1.3362v8.7511h2.1828v1.1245h-5.6886v-1.1245"/>
  <path id="path3063" style="" d="m422.93 206.59c-0.68792 0.00001-1.2061 0.33956-1.5544 1.0186-0.34396 0.67469-0.51594 1.6911-0.51594 3.0493 0 1.3538 0.17198 2.3702 0.51594 3.0493 0.34837 0.67469 0.86651 1.012 1.5544 1.012 0.69233 0 1.2105-0.33734 1.5544-1.012 0.34837-0.6791 0.52255-1.6955 0.52256-3.0493-0.00001-1.3582-0.17419-2.3746-0.52256-3.0493-0.34396-0.67909-0.8621-1.0186-1.5544-1.0186m0-1.0583c1.1068 0.00001 1.9513 0.43878 2.5334 1.3163 0.58649 0.87313 0.87974 2.1431 0.87975 3.81-0.00001 1.6625-0.29326 2.9325-0.87975 3.81-0.58209 0.87312-1.4266 1.3097-2.5334 1.3097s-1.9535-0.43657-2.54-1.3097c-0.58209-0.87754-0.87313-2.1475-0.87313-3.81 0-1.6669 0.29104-2.9369 0.87313-3.81 0.58649-0.87753 1.4332-1.3163 2.54-1.3163"/>
  <path id="path3065" style="" d="m428.16 208.48h5.338v0.62839h-5.338v-0.62839"/>
  <path id="path3067" style="" d="m437.86 208.18c0.40569 0.0794 0.71878 0.24034 0.93928 0.48287 0.22489 0.23813 0.33733 0.53799 0.33734 0.89958-0.00001 0.54682-0.20947 0.96795-0.62839 1.2634-0.41893 0.29546-1.0186 0.44318-1.7992 0.44318-0.25136 0-0.51594-0.022-0.79375-0.0661-0.2734-0.0485-0.56445-0.11685-0.87313-0.20505v-0.80036c0.22931 0.11906 0.47405 0.20726 0.73422 0.26458 0.26459 0.0573 0.5446 0.086 0.84006 0.086 0.48066 0 0.85328-0.086 1.1179-0.25797 0.26458-0.17638 0.39688-0.41892 0.39688-0.72761 0-0.32631-0.12348-0.57326-0.37042-0.74083-0.24254-0.16756-0.60193-0.25135-1.0782-0.25136h-0.56885v-0.71437h0.62177c0.41451 0 0.7276-0.0683 0.93927-0.20506 0.21608-0.1411 0.32411-0.34395 0.32412-0.60854-0.00001-0.25575-0.11025-0.44978-0.33073-0.58208-0.22049-0.1367-0.5402-0.20505-0.95912-0.20506-0.17639 0.00001-0.37703 0.0199-0.60193 0.0595-0.22489 0.0397-0.51594 0.11025-0.87312 0.21166v-0.76068c0.32191-0.075 0.62397-0.13228 0.9062-0.17198 0.28222-0.0397 0.5446-0.0595 0.78713-0.0595 0.635 0.00001 1.1377 0.1301 1.5081 0.39026 0.37482 0.26019 0.56224 0.60856 0.56224 1.0451 0 0.30428-0.0992 0.56225-0.29765 0.77391-0.19845 0.21167-0.47846 0.35719-0.84006 0.43656"/>
  <path id="path3069" style="" d="m443.56 208.83c-0.23372-0.19402-0.55563-0.29103-0.96573-0.29104-0.41011 0.00001-0.73202 0.097-0.96573 0.29104-0.23372 0.18963-0.35057 0.4498-0.35057 0.78053 0 0.33514 0.11685 0.59752 0.35057 0.78713 0.23371 0.18963 0.55562 0.28444 0.96573 0.28443 0.40569 0.00001 0.7276-0.097 0.96573-0.29104 0.23372-0.18961 0.35057-0.44979 0.35058-0.78052-0.00001-0.33073-0.11686-0.5909-0.35058-0.78053m-1.8256-0.61515c-0.37041-0.0794-0.65705-0.2271-0.85989-0.44318-0.20726-0.22048-0.31089-0.48947-0.31089-0.80698 0-0.44097 0.1808-0.78934 0.5424-1.0451 0.36159-0.25576 0.85769-0.38364 1.4883-0.38365 0.63059 0.00001 1.1267 0.12789 1.4883 0.38365 0.35718 0.25577 0.53577 0.60414 0.53578 1.0451-0.00001 0.32632-0.10143 0.59532-0.30427 0.80698-0.20726 0.21608-0.4939 0.36381-0.8599 0.44318 0.39687 0.0794 0.71878 0.24695 0.96573 0.5027 0.23371 0.24255 0.35057 0.5402 0.35058 0.89298-0.00001 0.53358-0.18742 0.94368-0.56225 1.2303-0.37924 0.28664-0.91722 0.42995-1.614 0.42995-0.70115 0-1.2391-0.14331-1.614-0.42995-0.37924-0.28663-0.56886-0.69673-0.56886-1.2303 0-0.34396 0.11686-0.64161 0.35058-0.89298 0.23812-0.24693 0.56224-0.4145 0.97234-0.5027m-0.3175-1.1774c0 0.27782 0.10363 0.50051 0.31089 0.66807 0.20285 0.16317 0.49168 0.24475 0.86651 0.24474 0.35719 0.00001 0.64382-0.0816 0.8599-0.24474 0.21166-0.15874 0.3175-0.38143 0.3175-0.66807 0-0.27781-0.10584-0.5005-0.3175-0.66808-0.20726-0.16315-0.49389-0.24473-0.8599-0.24474-0.36601 0.00001-0.65485 0.0816-0.86651 0.24474-0.20726 0.15876-0.31089 0.38145-0.31089 0.66808"/>
 </g>
 <g id="text46">
  <path id="path3072" style="" d="m350.52 211.34h3.5653v1.0848h-3.5653v-1.0848"/>
  <path id="path3074" style="" d="m356.44 214.46h2.1828v-7.534l-2.3746 0.47625v-1.2171l2.3614-0.47625h1.3362v8.7511h2.1828v1.1245h-5.6886v-1.1245"/>
  <path id="path3076" style="" d="m367.69 206.59c-0.68793 0.00001-1.2061 0.33956-1.5544 1.0186-0.34397 0.67469-0.51595 1.6911-0.51594 3.0493-0.00001 1.3538 0.17197 2.3702 0.51594 3.0493 0.34836 0.67469 0.8665 1.012 1.5544 1.012 0.69232 0 1.2105-0.33734 1.5544-1.012 0.34836-0.6791 0.52254-1.6955 0.52255-3.0493-0.00001-1.3582-0.17419-2.3746-0.52255-3.0493-0.34397-0.67909-0.86211-1.0186-1.5544-1.0186m0-1.0583c1.1068 0.00001 1.9513 0.43878 2.5334 1.3163 0.58648 0.87313 0.87973 2.1431 0.87974 3.81-0.00001 1.6625-0.29326 2.9325-0.87974 3.81-0.58209 0.87312-1.4266 1.3097-2.5334 1.3097s-1.9535-0.43657-2.54-1.3097c-0.58209-0.87754-0.87313-2.1475-0.87313-3.81 0-1.6669 0.29104-2.9369 0.87313-3.81 0.58649-0.87753 1.4332-1.3163 2.54-1.3163"/>
  <path id="path3078" style="" d="m372.91 208.48h5.338v0.62839h-5.338v-0.62839"/>
  <path id="path3080" style="" d="m382.62 208.18c0.40569 0.0794 0.71878 0.24034 0.93927 0.48287 0.22489 0.23813 0.33734 0.53799 0.33734 0.89958 0 0.54682-0.20946 0.96795-0.62838 1.2634-0.41893 0.29546-1.0186 0.44318-1.7992 0.44318-0.25136 0-0.51594-0.022-0.79376-0.0661-0.2734-0.0485-0.56444-0.11685-0.87312-0.20505v-0.80036c0.2293 0.11906 0.47404 0.20726 0.73422 0.26458 0.26458 0.0573 0.5446 0.086 0.84005 0.086 0.48066 0 0.85328-0.086 1.1179-0.25797 0.26458-0.17638 0.39687-0.41892 0.39688-0.72761-0.00001-0.32631-0.12348-0.57326-0.37042-0.74083-0.24254-0.16756-0.60193-0.25135-1.0782-0.25136h-0.56886v-0.71437h0.62178c0.41451 0 0.7276-0.0683 0.93927-0.20506 0.21607-0.1411 0.32411-0.34395 0.32411-0.60854 0-0.25575-0.11024-0.44978-0.33073-0.58208-0.22049-0.1367-0.54019-0.20505-0.95911-0.20506-0.17639 0.00001-0.37704 0.0199-0.60193 0.0595-0.2249 0.0397-0.51594 0.11025-0.87313 0.21166v-0.76068c0.32191-0.075 0.62398-0.13228 0.9062-0.17198s0.5446-0.0595 0.78714-0.0595c0.635 0.00001 1.1377 0.1301 1.5081 0.39026 0.37482 0.26019 0.56223 0.60856 0.56224 1.0451-0.00001 0.30428-0.0992 0.56225-0.29766 0.77391-0.19844 0.21167-0.47846 0.35719-0.84005 0.43656"/>
  <path id="path3082" style="" d="m388.31 208.83c-0.23372-0.19402-0.55563-0.29103-0.96573-0.29104-0.41011 0.00001-0.73202 0.097-0.96574 0.29104-0.23371 0.18963-0.35057 0.4498-0.35057 0.78053 0 0.33514 0.11686 0.59752 0.35057 0.78713 0.23372 0.18963 0.55563 0.28444 0.96574 0.28443 0.40569 0.00001 0.7276-0.097 0.96573-0.29104 0.23371-0.18961 0.35057-0.44979 0.35057-0.78052s-0.11686-0.5909-0.35057-0.78053m-1.8256-0.61515c-0.37042-0.0794-0.65705-0.2271-0.8599-0.44318-0.20726-0.22048-0.31089-0.48947-0.31089-0.80698 0-0.44097 0.1808-0.78934 0.5424-1.0451s0.85769-0.38364 1.4883-0.38365c0.63058 0.00001 1.1267 0.12789 1.4883 0.38365 0.35718 0.25577 0.53578 0.60414 0.53578 1.0451 0 0.32632-0.10143 0.59532-0.30427 0.80698-0.20726 0.21608-0.49389 0.36381-0.8599 0.44318 0.39688 0.0794 0.71879 0.24695 0.96573 0.5027 0.23372 0.24255 0.35057 0.5402 0.35058 0.89298-0.00001 0.53358-0.18742 0.94368-0.56224 1.2303-0.37924 0.28664-0.91723 0.42995-1.614 0.42995-0.70115 0-1.2391-0.14331-1.614-0.42995-0.37923-0.28663-0.56885-0.69673-0.56885-1.2303 0-0.34396 0.11685-0.64161 0.35057-0.89298 0.23813-0.24693 0.56224-0.4145 0.97235-0.5027m-0.3175-1.1774c-0.00001 0.27782 0.10362 0.50051 0.31088 0.66807 0.20285 0.16317 0.49169 0.24475 0.86652 0.24474 0.35718 0.00001 0.64381-0.0816 0.85989-0.24474 0.21167-0.15874 0.3175-0.38143 0.3175-0.66807 0-0.27781-0.10583-0.5005-0.3175-0.66808-0.20726-0.16315-0.49389-0.24473-0.85989-0.24474-0.36602 0.00001-0.65485 0.0816-0.86652 0.24474-0.20726 0.15876-0.31089 0.38145-0.31088 0.66808"/>
 </g>
 <path id="line50" d="m405 257.99h130" stroke="#000" stroke-width="2" fill="none"/>
 <g id="g52" transform="translate(0 -7.0116)">
  <path id="ellipse54" fill="#f00" d="m450 265c0 2.7614-2.2386 5-5 5s-5-2.2386-5-5 2.2386-5 5-5 5 2.2386 5 5z"/>
  <path id="ellipse56" fill="none" d="m450 265c0 2.7614-2.2386 5-5 5s-5-2.2386-5-5 2.2386-5 5-5 5 2.2386 5 5z" stroke="#f00"/>
 </g>
 <g id="g58" transform="translate(0 -7.0116)">
  <path id="ellipse60" fill="#f00" d="m470 265c0 2.7614-2.2386 5-5 5s-5-2.2386-5-5 2.2386-5 5-5 5 2.2386 5 5z"/>
  <path id="ellipse62" fill="none" d="m470 265c0 2.7614-2.2386 5-5 5s-5-2.2386-5-5 2.2386-5 5-5 5 2.2386 5 5z" stroke="#f00"/>
 </g>
 <g id="g64" transform="translate(0 -7.0116)">
  <path id="ellipse66" fill="#f00" d="m430 265c0 2.7614-2.2386 5-5 5s-5-2.2386-5-5 2.2386-5 5-5 5 2.2386 5 5z"/>
  <path id="ellipse68" fill="none" d="m430 265c0 2.7614-2.2386 5-5 5s-5-2.2386-5-5 2.2386-5 5-5 5 2.2386 5 5z" stroke="#f00"/>
 </g>
 <g id="g70" transform="translate(0 -7.0116)">
  <path id="ellipse72" fill="#f00" d="m500 265c0 2.7614-2.2386 5-5 5s-5-2.2386-5-5 2.2386-5 5-5 5 2.2386 5 5z"/>
  <path id="ellipse74" fill="none" d="m500 265c0 2.7614-2.2386 5-5 5s-5-2.2386-5-5 2.2386-5 5-5 5 2.2386 5 5z" stroke="#f00"/>
 </g>
 <g id="g76" transform="translate(0 -7.0116)">
  <path id="ellipse78" fill="#f00" d="m530 265c0 2.7614-2.2386 5-5 5s-5-2.2386-5-5 2.2386-5 5-5 5 2.2386 5 5z"/>
  <path id="ellipse80" fill="none" d="m530 265c0 2.7614-2.2386 5-5 5s-5-2.2386-5-5 2.2386-5 5-5 5 2.2386 5 5z" stroke="#f00"/>
 </g>
 <path id="ellipse82" d="m520 200c0 5.5228-4.4772 10-10 10s-10-4.4772-10-10 4.4772-10 10-10 10 4.4772 10 10z" transform="translate(0 -7.0116)" stroke="#000" stroke-width="2" fill="none"/>
 <g id="g84" transform="translate(0 -7.0116)">
  <path id="line86" d="m500 210-15.646 31.292" stroke="#000" stroke-width="2" fill="none"/>
  <path id="polygon88" d="m484.35 241.29h5.59l-8.94 6.71v-11.18z"/>
  <path id="polygon90" d="m484.35 241.29h5.59l-8.94 6.71v-11.18z" stroke="#000" stroke-width="2" fill="none"/>
 </g>
</svg>
