<?xml version="1.0" encoding="UTF-8" standalone="no"?>
<!-- Created with Inkscape (http://www.inkscape.org/) -->
<svg id="svg2" xmlns:rdf="http://www.w3.org/1999/02/22-rdf-syntax-ns#" xmlns="http://www.w3.org/2000/svg" height="121.49" width="316.94" version="1.1" xmlns:cc="http://creativecommons.org/ns#" xmlns:dc="http://purl.org/dc/elements/1.1/" viewBox="249 148 162 54.001263">
 <metadata id="metadata22">
  <rdf:RDF>
   <cc:Work rdf:about="">
    <dc:format>image/svg+xml</dc:format>
    <dc:type rdf:resource="http://purl.org/dc/dcmitype/StillImage"/>
   </cc:Work>
  </rdf:RDF>
 </metadata>
 <path id="line4" d="m308 155.02h-58" stroke="#000" stroke-width="2" fill="none"/>
 <path id="line6" d="m360 175.02h50" stroke="#000" stroke-width="2" fill="none"/>
 <path id="line8" d="m308 195.02h-58" stroke="#000" stroke-width="2" fill="none"/>
 <g id="g10" transform="translate(0 -4.9757)">
  <path id="path12" d="m320 180c0-30-20-30-20-30s48-2 60 30c-12 32-60 30-60 30s20 0 20-30z" fill="#fff"/>
  <path id="path14" d="m320 180c0-30-20-30-20-30s48-2 60 30c-12 32-60 30-60 30s20 0 20-30" stroke="#000" stroke-width="2" fill="none"/>
 </g>
 <path id="path16" d="m290.05 144.95c29.95 0.072 29.95 60.072-0.05 60.072" stroke="#000" stroke-width="2" fill="none"/>
</svg>
