<?xml version="1.0" encoding="UTF-8" standalone="no"?>
<!-- Created with Inkscape (http://www.inkscape.org/) -->
<svg id="svg2" xmlns:rdf="http://www.w3.org/1999/02/22-rdf-syntax-ns#" xmlns="http://www.w3.org/2000/svg" height="334.52" width="740.25" version="1.1" xmlns:cc="http://creativecommons.org/ns#" xmlns:dc="http://purl.org/dc/elements/1.1/" viewBox="200 28 399.92501 172.76769">
 <metadata id="metadata464">
  <rdf:RDF>
   <cc:Work rdf:about="">
    <dc:format>image/svg+xml</dc:format>
    <dc:type rdf:resource="http://purl.org/dc/dcmitype/StillImage"/>
   </cc:Work>
  </rdf:RDF>
 </metadata>
 <g id="g4" transform="translate(-1.075 -6.2537)">
  <path id="rect6" fill="#fff" d="m290 70h20v20h-20z"/>
  <path id="rect8" d="m290 70h20v20h-20z" stroke="#000" stroke-width="2" fill="none"/>
 </g>
 <g id="g10" transform="translate(-1.075 -6.2537)">
  <path id="rect12" fill="#fff" d="m290 90h20v20h-20z"/>
  <path id="rect14" d="m290 90h20v20h-20z" stroke="#000" stroke-width="2" fill="none"/>
 </g>
 <g id="g16" transform="translate(-1.075 -6.2537)">
  <path id="rect18" fill="#fff" d="m290 110h20v20h-20z"/>
  <path id="rect20" d="m290 110h20v20h-20z" stroke="#000" stroke-width="2" fill="none"/>
 </g>
 <g id="g22" transform="translate(-1.075 -6.2537)">
  <path id="rect24" fill="#3a739a" d="m290 130h20v20h-20z"/>
  <path id="rect26" d="m290 130h20v20h-20z" stroke="#000" stroke-width="2" fill="none"/>
 </g>
 <g id="g28" transform="translate(-1.075 -6.2537)">
  <path id="rect30" fill="#fff" d="m390 70h20v20h-20z"/>
  <path id="rect32" d="m390 70h20v20h-20z" stroke="#000" stroke-width="2" fill="none"/>
 </g>
 <g id="g34" transform="translate(-1.075 -6.2537)">
  <path id="rect36" fill="#fff" d="m410 70h20v20h-20z"/>
  <path id="rect38" d="m410 70h20v20h-20z" stroke="#000" stroke-width="2" fill="none"/>
 </g>
 <g id="g40" transform="translate(-1.075 -6.2537)">
  <path id="rect42" fill="#fff" d="m430 70h20v20h-20z"/>
  <path id="rect44" d="m430 70h20v20h-20z" stroke="#000" stroke-width="2" fill="none"/>
 </g>
 <g id="g46" transform="translate(-1.075 -6.2537)">
  <path id="rect48" fill="#fff" d="m450 70h20v20h-20z"/>
  <path id="rect50" d="m450 70h20v20h-20z" stroke="#000" stroke-width="2" fill="none"/>
 </g>
 <g id="g52" transform="translate(-1.075 -6.2537)">
  <path id="rect54" fill="#3a739a" d="m470 70h20v20h-20z"/>
  <path id="rect56" d="m470 70h20v20h-20z" stroke="#000" stroke-width="2" fill="none"/>
 </g>
 <g id="g58" transform="translate(-1.075 -6.2537)">
  <path id="rect60" fill="#fff" d="m390 110h20v20h-20z"/>
  <path id="rect62" d="m390 110h20v20h-20z" stroke="#000" stroke-width="2" fill="none"/>
 </g>
 <g id="g64" transform="translate(-1.075 -6.2537)">
  <path id="rect66" fill="#fff" d="m410 110h20v20h-20z"/>
  <path id="rect68" d="m410 110h20v20h-20z" stroke="#000" stroke-width="2" fill="none"/>
 </g>
 <g id="g70" transform="translate(-1.075 -6.2537)">
  <path id="rect72" fill="#fff" d="m430 110h20v20h-20z"/>
  <path id="rect74" d="m430 110h20v20h-20z" stroke="#000" stroke-width="2" fill="none"/>
 </g>
 <g id="g76" transform="translate(-1.075 -6.2537)">
  <path id="rect78" fill="#fff" d="m450 110h20v20h-20z"/>
  <path id="rect80" d="m450 110h20v20h-20z" stroke="#000" stroke-width="2" fill="none"/>
 </g>
 <g id="g82" transform="translate(-1.075 -6.2537)">
  <path id="rect84" fill="#3a739a" d="m490 110h20v20h-20z"/>
  <path id="rect86" d="m490 110h20v20h-20z" stroke="#000" stroke-width="2" fill="none"/>
 </g>
 <g id="g88" transform="translate(-1.075 -6.2537)">
  <path id="rect90" fill="#fff" d="m470 110h20v20h-20z"/>
  <path id="rect92" d="m470 110h20v20h-20z" stroke="#000" stroke-width="2" fill="none"/>
 </g>
 <g id="g94" transform="translate(-1.075 -6.2537)">
  <path id="line96" d="m314 80h62.264" stroke="#000" stroke-width="2" fill="none"/>
  <path id="polygon98" d="m376.26 80-2.5-5 10 5-10 5z"/>
  <path id="polygon100" d="m376.26 80-2.5-5 10 5-10 5z" stroke="#000" stroke-width="2" fill="none"/>
 </g>
 <g id="g102" transform="translate(-1.075 -6.2537)">
  <path id="line104" d="m313.88 100.97 62.793 15.699" stroke="#000" stroke-width="2" fill="none"/>
  <path id="polygon106" d="m376.67 116.67-1.213-5.458 8.489 7.277-10.914 2.425z"/>
  <path id="polygon108" d="m376.67 116.67-1.213-5.458 8.489 7.277-10.914 2.425z" stroke="#000" stroke-width="2" fill="none"/>
 </g>
 <g id="g110" transform="translate(-1.075 -6.2537)">
  <path id="line112" d="m313.58 121.79 64.136 32.068" stroke="#000" stroke-width="2" fill="none"/>
  <path id="polygon114" d="m377.71 153.86v-5.59l6.708 8.944h-11.18z"/>
  <path id="polygon116" d="m377.71 153.86v-5.59l6.708 8.944h-11.18z" stroke="#000" stroke-width="2" fill="none"/>
 </g>
 <g id="text118">
  <path id="path3250" style="" d="m246.36 52.696v3.7125h-1.1562v-9.6625h1.1562v1.0625c0.24167-0.41666 0.54583-0.72499 0.9125-0.925 0.37083-0.20416 0.8125-0.30624 1.325-0.30625 0.85 0.000007 1.5396 0.33751 2.0688 1.0125 0.53333 0.67501 0.79999 1.5625 0.8 2.6625-0.00001 1.1-0.26667 1.9875-0.8 2.6625-0.52917 0.675-1.2188 1.0125-2.0688 1.0125-0.5125 0-0.95417-0.1-1.325-0.3-0.36667-0.20417-0.67083-0.51458-0.9125-0.93125m3.9125-2.4438c0-0.84583-0.175-1.5083-0.525-1.9875-0.34584-0.48333-0.82292-0.72499-1.4312-0.725-0.60833 0.000006-1.0875 0.24167-1.4375 0.725-0.34583 0.47917-0.51875 1.1417-0.51875 1.9875 0 0.84584 0.17292 1.5104 0.51875 1.9938 0.35 0.47917 0.82917 0.71875 1.4375 0.71875 0.60833 0.000001 1.0854-0.23958 1.4312-0.71875 0.35-0.48333 0.525-1.1479 0.525-1.9938"/>
  <path id="path3252" style="" d="m256.08 47.553c-0.61667 0.000006-1.1042 0.24167-1.4625 0.725-0.35833 0.47917-0.5375 1.1375-0.5375 1.975s0.17708 1.4979 0.53125 1.9812c0.35833 0.47917 0.84792 0.71875 1.4688 0.71875 0.6125 0.000001 1.0979-0.24166 1.4562-0.725 0.35833-0.48333 0.5375-1.1417 0.5375-1.975 0-0.82916-0.17917-1.4854-0.5375-1.9688-0.35834-0.48749-0.84375-0.73124-1.4562-0.73125m0-0.975c1 0.000007 1.7854 0.32501 2.3562 0.975 0.57083 0.65001 0.85624 1.55 0.85625 2.7-0.00001 1.1458-0.28542 2.0458-0.85625 2.7-0.57084 0.65-1.3562 0.975-2.3562 0.975-1.0042 0-1.7917-0.325-2.3625-0.975-0.56667-0.65416-0.85-1.5542-0.85-2.7 0-1.15 0.28333-2.05 0.85-2.7 0.57083-0.64999 1.3583-0.97499 2.3625-0.975"/>
  <path id="path3254" style="" d="m261.2 46.746h1.15v7h-1.15v-7m0-2.725h1.15v1.4562h-1.15v-1.4562"/>
  <path id="path3256" style="" d="m270.57 49.521v4.225h-1.15v-4.1875c0-0.6625-0.12917-1.1583-0.3875-1.4875-0.25834-0.32916-0.64584-0.49374-1.1625-0.49375-0.62084 0.000006-1.1104 0.19792-1.4688 0.59375-0.35833 0.39584-0.5375 0.93542-0.5375 1.6188v3.9562h-1.1562v-7h1.1562v1.0875c0.275-0.42083 0.59792-0.73541 0.96875-0.94375 0.375-0.20833 0.80625-0.31249 1.2938-0.3125 0.80416 0.000007 1.4125 0.25001 1.825 0.75 0.4125 0.49584 0.61875 1.2271 0.61875 2.1938"/>
  <path id="path3258" style="" d="m274.01 44.759v1.9875h2.3688v0.89375h-2.3688v3.8c0 0.57084 0.0771 0.9375 0.23125 1.1 0.15833 0.1625 0.47708 0.24375 0.95625 0.24375h1.1812v0.9625h-1.1812c-0.8875 0-1.5-0.16458-1.8375-0.49375-0.3375-0.33333-0.50625-0.9375-0.50625-1.8125v-3.8h-0.84375v-0.89375h0.84375v-1.9875h1.1562"/>
  <path id="path3260" style="" d="m283.88 49.959v0.5625h-5.2875c0.05 0.79167 0.2875 1.3958 0.7125 1.8125 0.42917 0.4125 1.025 0.61875 1.7875 0.61875 0.44167 0.000001 0.86875-0.05416 1.2812-0.1625 0.41666-0.10833 0.82916-0.27083 1.2375-0.4875v1.0875c-0.4125 0.175-0.83542 0.30833-1.2688 0.4-0.43333 0.09167-0.87292 0.1375-1.3188 0.1375-1.1167 0-2.0021-0.325-2.6562-0.975-0.65-0.65-0.975-1.5292-0.975-2.6375 0-1.1458 0.30834-2.0542 0.925-2.725 0.62083-0.67499 1.4562-1.0125 2.5062-1.0125 0.94167 0.000007 1.6854 0.30417 2.2312 0.9125 0.55 0.60417 0.825 1.4271 0.825 2.4688m-1.15-0.3375c-0.008-0.62916-0.18542-1.1312-0.53125-1.5062-0.34167-0.37499-0.79583-0.56249-1.3625-0.5625-0.64167 0.000006-1.1562 0.18126-1.5438 0.54375-0.38333 0.36251-0.60417 0.87292-0.6625 1.5312l4.1-0.0062"/>
  <path id="path3262" style="" d="m289.83 47.821c-0.12917-0.07499-0.27083-0.12916-0.425-0.1625-0.15-0.03749-0.31667-0.05624-0.5-0.05625-0.65 0.000006-1.15 0.21251-1.5 0.6375-0.34583 0.42084-0.51875 1.0271-0.51875 1.8188v3.6875h-1.1562v-7h1.1562v1.0875c0.24167-0.42499 0.55625-0.73958 0.94375-0.94375 0.3875-0.20833 0.85833-0.31249 1.4125-0.3125 0.0792 0.000007 0.16667 0.0063 0.2625 0.01875 0.0958 0.0083 0.20208 0.02292 0.31875 0.04375l0.006 1.1812"/>
  <path id="path3264" style="" d="m296.75 49.959v0.5625h-5.2875c0.05 0.79167 0.2875 1.3958 0.7125 1.8125 0.42916 0.4125 1.025 0.61875 1.7875 0.61875 0.44166 0.000001 0.86875-0.05416 1.2812-0.1625 0.41666-0.10833 0.82916-0.27083 1.2375-0.4875v1.0875c-0.41251 0.175-0.83542 0.30833-1.2688 0.4-0.43334 0.09167-0.87292 0.1375-1.3188 0.1375-1.1167 0-2.0021-0.325-2.6562-0.975-0.65-0.65-0.975-1.5292-0.975-2.6375 0-1.1458 0.30833-2.0542 0.925-2.725 0.62083-0.67499 1.4562-1.0125 2.5062-1.0125 0.94166 0.000007 1.6854 0.30417 2.2312 0.9125 0.54999 0.60417 0.82499 1.4271 0.825 2.4688m-1.15-0.3375c-0.008-0.62916-0.18542-1.1312-0.53125-1.5062-0.34167-0.37499-0.79584-0.56249-1.3625-0.5625-0.64167 0.000006-1.1562 0.18126-1.5438 0.54375-0.38333 0.36251-0.60417 0.87292-0.6625 1.5312l4.1-0.0062"/>
  <path id="path3266" style="" d="m298.6 44.021h1.1562v5.7438l3.4312-3.0188h1.4688l-3.7125 3.275 3.8688 3.725h-1.5l-3.5562-3.4188v3.4188h-1.1562v-9.725"/>
  <path id="path3268" style="" d="m311.28 44.759v1.9875h2.3688v0.89375h-2.3688v3.8c-0.00001 0.57084 0.0771 0.9375 0.23125 1.1 0.15833 0.1625 0.47708 0.24375 0.95625 0.24375h1.1812v0.9625h-1.1812c-0.88751 0-1.5-0.16458-1.8375-0.49375-0.33751-0.33333-0.50626-0.9375-0.50625-1.8125v-3.8h-0.84375v-0.89375h0.84375v-1.9875h1.1562"/>
  <path id="path3270" style="" d="m317.88 47.553c-0.61667 0.000006-1.1042 0.24167-1.4625 0.725-0.35834 0.47917-0.53751 1.1375-0.5375 1.975-0.00001 0.8375 0.17708 1.4979 0.53125 1.9812 0.35833 0.47917 0.84791 0.71875 1.4688 0.71875 0.61249 0.000001 1.0979-0.24166 1.4562-0.725 0.35832-0.48333 0.53749-1.1417 0.5375-1.975-0.00001-0.82916-0.17918-1.4854-0.5375-1.9688-0.35834-0.48749-0.84376-0.73124-1.4562-0.73125m0-0.975c0.99999 0.000007 1.7854 0.32501 2.3562 0.975 0.57082 0.65001 0.85624 1.55 0.85625 2.7-0.00001 1.1458-0.28543 2.0458-0.85625 2.7-0.57084 0.65-1.3563 0.975-2.3562 0.975-1.0042 0-1.7917-0.325-2.3625-0.975-0.56667-0.65416-0.85-1.5542-0.85-2.7 0-1.15 0.28333-2.05 0.85-2.7 0.57083-0.64999 1.3583-0.97499 2.3625-0.975m0.5875-2.5312h1.2688v1.2625h-1.2688v-1.2625m-2.4438 0h1.2688v1.2625h-1.2688v-1.2625"/>
  <path id="path3272" style="" d="m328.44 48.09c0.2875-0.51666 0.63125-0.89791 1.0312-1.1438 0.4-0.24583 0.87083-0.36874 1.4125-0.36875 0.72916 0.000007 1.2917 0.25626 1.6875 0.76875 0.39583 0.50834 0.59374 1.2333 0.59375 2.175v4.225h-1.1562v-4.1875c-0.00001-0.67083-0.11876-1.1687-0.35625-1.4938-0.23751-0.32499-0.60001-0.48749-1.0875-0.4875-0.59584 0.000006-1.0667 0.19792-1.4125 0.59375-0.34584 0.39584-0.51875 0.93542-0.51875 1.6188v3.9562h-1.1562v-4.1875c0-0.675-0.11875-1.1729-0.35625-1.4938-0.2375-0.32499-0.60417-0.48749-1.1-0.4875-0.5875 0.000006-1.0542 0.20001-1.4 0.6-0.34583 0.39584-0.51875 0.93334-0.51875 1.6125v3.9562h-1.1562v-7h1.1562v1.0875c0.2625-0.42916 0.57708-0.74583 0.94375-0.95 0.36667-0.20416 0.80208-0.30624 1.3062-0.30625 0.50833 0.000007 0.93958 0.12917 1.2938 0.3875 0.35833 0.25834 0.62291 0.63334 0.79375 1.125"/>
  <path id="path3274" style="" d="m340.49 50.253c0-0.84583-0.175-1.5083-0.525-1.9875-0.34584-0.48333-0.82292-0.72499-1.4312-0.725-0.60833 0.000006-1.0875 0.24167-1.4375 0.725-0.34583 0.47917-0.51875 1.1417-0.51875 1.9875 0 0.84584 0.17292 1.5104 0.51875 1.9938 0.35 0.47917 0.82917 0.71875 1.4375 0.71875 0.60833 0.000001 1.0854-0.23958 1.4312-0.71875 0.35-0.48333 0.525-1.1479 0.525-1.9938m-3.9125-2.4438c0.24167-0.41666 0.54583-0.72499 0.9125-0.925 0.37083-0.20416 0.8125-0.30624 1.325-0.30625 0.85 0.000007 1.5396 0.33751 2.0688 1.0125 0.53333 0.67501 0.79999 1.5625 0.8 2.6625-0.00001 1.1-0.26667 1.9875-0.8 2.6625-0.52917 0.675-1.2188 1.0125-2.0688 1.0125-0.5125 0-0.95417-0.1-1.325-0.3-0.36667-0.20417-0.67083-0.51458-0.9125-0.93125v1.05h-1.1562v-9.725h1.1562v3.7875"/>
  <path id="path3276" style="" d="m343.59 46.746h1.15v7.125c0 0.89167-0.17083 1.5375-0.5125 1.9375-0.3375 0.4-0.88333 0.6-1.6375 0.6h-0.4375v-0.975h0.30625c0.4375-0.000001 0.73542-0.10208 0.89375-0.30625 0.15833-0.2 0.2375-0.61875 0.2375-1.2562v-7.125m0-2.725h1.15v1.4562h-1.15v-1.4562"/>
  <path id="path3278" style="" d="m353.13 49.959v0.5625h-5.2875c0.05 0.79167 0.28749 1.3958 0.7125 1.8125 0.42916 0.4125 1.025 0.61875 1.7875 0.61875 0.44166 0.000001 0.86874-0.05416 1.2812-0.1625 0.41666-0.10833 0.82916-0.27083 1.2375-0.4875v1.0875c-0.41251 0.175-0.83543 0.30833-1.2688 0.4-0.43334 0.09167-0.87293 0.1375-1.3188 0.1375-1.1167 0-2.0021-0.325-2.6562-0.975-0.65001-0.65-0.97501-1.5292-0.975-2.6375-0.00001-1.1458 0.30833-2.0542 0.925-2.725 0.62083-0.67499 1.4562-1.0125 2.5062-1.0125 0.94166 0.000007 1.6854 0.30417 2.2312 0.9125 0.54999 0.60417 0.82499 1.4271 0.825 2.4688m-1.15-0.3375c-0.008-0.62916-0.18543-1.1312-0.53125-1.5062-0.34168-0.37499-0.79584-0.56249-1.3625-0.5625-0.64168 0.000006-1.1563 0.18126-1.5438 0.54375-0.38334 0.36251-0.60417 0.87292-0.6625 1.5312l4.1-0.0062"/>
 </g>
 <g id="text122">
  <path id="path3281" style="" d="m394.59 46.953v1.0875c-0.32501-0.16666-0.66251-0.29166-1.0125-0.375-0.35001-0.08333-0.71251-0.12499-1.0875-0.125-0.57084 0.000006-1 0.08751-1.2875 0.2625-0.28334 0.17501-0.425 0.43751-0.425 0.7875 0 0.26667 0.10208 0.47709 0.30625 0.63125 0.20416 0.15 0.61458 0.29376 1.2312 0.43125l0.39375 0.0875c0.81666 0.175 1.3958 0.42292 1.7375 0.74375 0.34583 0.31667 0.51874 0.76042 0.51875 1.3312-0.00001 0.65-0.25834 1.1646-0.775 1.5438-0.51251 0.37917-1.2188 0.56875-2.1188 0.56875-0.375 0-0.76667-0.0375-1.175-0.1125-0.40417-0.07083-0.83125-0.17917-1.2812-0.325v-1.1875c0.425 0.22084 0.84375 0.3875 1.2562 0.5 0.4125 0.10833 0.82083 0.1625 1.225 0.1625 0.54166 0.000001 0.95833-0.09166 1.25-0.275 0.29166-0.1875 0.43749-0.45 0.4375-0.7875-0.00001-0.3125-0.10626-0.55208-0.31875-0.71875-0.20834-0.16666-0.66876-0.32708-1.3812-0.48125l-0.4-0.09375c-0.7125-0.15-1.2271-0.37916-1.5438-0.6875-0.31667-0.3125-0.475-0.73958-0.475-1.2812 0-0.65833 0.23333-1.1667 0.7-1.525 0.46666-0.35833 1.1292-0.53749 1.9875-0.5375 0.42499 0.000007 0.82499 0.03126 1.2 0.09375 0.37499 0.06251 0.72083 0.15626 1.0375 0.28125"/>
  <path id="path3283" style="" d="m396.31 46.746h5.4625v1.05l-4.325 5.0312h4.325v0.91875h-5.6188v-1.05l4.325-5.0312h-4.1688v-0.91875"/>
  <path id="path3285" style="" d="m404.67 44.759v1.9875h2.3688v0.89375h-2.3688v3.8c0 0.57084 0.0771 0.9375 0.23125 1.1 0.15833 0.1625 0.47708 0.24375 0.95625 0.24375h1.1812v0.9625h-1.1812c-0.88751 0-1.5-0.16458-1.8375-0.49375-0.3375-0.33333-0.50625-0.9375-0.50625-1.8125v-3.8h-0.84375v-0.89375h0.84375v-1.9875h1.1562"/>
  <path id="path3287" style="" d="m412.61 47.821c-0.12917-0.07499-0.27084-0.12916-0.425-0.1625-0.15001-0.03749-0.31667-0.05624-0.5-0.05625-0.65001 0.000006-1.15 0.21251-1.5 0.6375-0.34584 0.42084-0.51876 1.0271-0.51875 1.8188v3.6875h-1.1562v-7h1.1562v1.0875c0.24166-0.42499 0.55624-0.73958 0.94375-0.94375 0.38749-0.20833 0.85833-0.31249 1.4125-0.3125 0.0792 0.000007 0.16666 0.0063 0.2625 0.01875 0.0958 0.0083 0.20208 0.02292 0.31875 0.04375l0.006 1.1812"/>
  <path id="path3289" style="" d="m413.83 46.746h1.15v7h-1.15v-7m0-2.725h1.15v1.4562h-1.15v-1.4562"/>
  <path id="path3291" style="" d="m423.2 49.521v4.225h-1.15v-4.1875c-0.00001-0.6625-0.12917-1.1583-0.3875-1.4875-0.25834-0.32916-0.64584-0.49374-1.1625-0.49375-0.62084 0.000006-1.1104 0.19792-1.4688 0.59375-0.35834 0.39584-0.5375 0.93542-0.5375 1.6188v3.9562h-1.1562v-7h1.1562v1.0875c0.275-0.42083 0.59791-0.73541 0.96875-0.94375 0.37499-0.20833 0.80624-0.31249 1.2938-0.3125 0.80416 0.000007 1.4125 0.25001 1.825 0.75 0.41249 0.49584 0.61874 1.2271 0.61875 2.1938"/>
  <path id="path3293" style="" d="m430.11 50.165c-0.00001-0.83333-0.17292-1.4792-0.51875-1.9375-0.34167-0.45833-0.82292-0.68749-1.4438-0.6875-0.61667 0.000006-1.0979 0.22917-1.4438 0.6875-0.34167 0.45834-0.5125 1.1042-0.5125 1.9375 0 0.82917 0.17083 1.4729 0.5125 1.9312 0.34583 0.45834 0.82708 0.6875 1.4438 0.6875 0.62083 0.000001 1.1021-0.22916 1.4438-0.6875 0.34583-0.45833 0.51874-1.1021 0.51875-1.9312m1.15 2.7125c-0.00001 1.1917-0.26459 2.0771-0.79375 2.6562-0.52917 0.58333-1.3396 0.875-2.4312 0.875-0.40417-0.000002-0.78542-0.03125-1.1438-0.09375-0.35834-0.05833-0.70625-0.15-1.0438-0.275v-1.1188c0.3375 0.18333 0.67083 0.31875 1 0.40625 0.32916 0.0875 0.66458 0.13125 1.0062 0.13125 0.75416-0.000001 1.3187-0.19792 1.6938-0.59375 0.37499-0.39167 0.56249-0.98542 0.5625-1.7812v-0.56875c-0.23751 0.4125-0.54167 0.72083-0.9125 0.925-0.37084 0.20417-0.81459 0.30625-1.3312 0.30625-0.85834 0-1.55-0.32708-2.075-0.98125-0.525-0.65416-0.7875-1.5208-0.7875-2.6 0-1.0833 0.2625-1.9521 0.7875-2.6062 0.525-0.65416 1.2167-0.98124 2.075-0.98125 0.51666 0.000007 0.96041 0.10209 1.3312 0.30625 0.37083 0.20417 0.67499 0.51251 0.9125 0.925v-1.0625h1.15v6.1312"/>
  <path id="path3295" style="" d="m439.62 49.959v0.5625h-5.2875c0.05 0.79167 0.2875 1.3958 0.7125 1.8125 0.42916 0.4125 1.025 0.61875 1.7875 0.61875 0.44166 0.000001 0.86874-0.05416 1.2812-0.1625 0.41666-0.10833 0.82916-0.27083 1.2375-0.4875v1.0875c-0.41251 0.175-0.83542 0.30833-1.2688 0.4-0.43334 0.09167-0.87292 0.1375-1.3188 0.1375-1.1167 0-2.0021-0.325-2.6562-0.975-0.65-0.65-0.975-1.5292-0.975-2.6375 0-1.1458 0.30833-2.0542 0.925-2.725 0.62083-0.67499 1.4562-1.0125 2.5062-1.0125 0.94166 0.000007 1.6854 0.30417 2.2312 0.9125 0.54999 0.60417 0.82499 1.4271 0.825 2.4688m-1.15-0.3375c-0.008-0.62916-0.18542-1.1312-0.53125-1.5062-0.34167-0.37499-0.79584-0.56249-1.3625-0.5625-0.64167 0.000006-1.1563 0.18126-1.5438 0.54375-0.38334 0.36251-0.60417 0.87292-0.6625 1.5312l4.1-0.0062"/>
  <path id="path3297" style="" d="m441.46 44.021h1.1562v5.7438l3.4312-3.0188h1.4688l-3.7125 3.275 3.8688 3.725h-1.5l-3.5562-3.4188v3.4188h-1.1562v-9.725"/>
 </g>
 <g id="text126">
  <path id="path3300" style="" d="m399.39 74.653c-0.92917 0.000003-1.5729 0.10625-1.9312 0.31875-0.35834 0.2125-0.5375 0.575-0.5375 1.0875 0 0.40834 0.13333 0.73333 0.4 0.975 0.27083 0.2375 0.63749 0.35625 1.1 0.35625 0.63749 0 1.1479-0.225 1.5312-0.675 0.38749-0.45416 0.58124-1.0562 0.58125-1.8062v-0.25625h-1.1438m2.2938-0.475v3.9938h-1.15v-1.0625c-0.26251 0.425-0.58959 0.73958-0.98125 0.94375-0.39167 0.2-0.87084 0.3-1.4375 0.3-0.71667-0.000001-1.2875-0.2-1.7125-0.6-0.42084-0.40417-0.63125-0.94375-0.63125-1.6188 0-0.7875 0.2625-1.3812 0.7875-1.7812 0.52916-0.4 1.3167-0.6 2.3625-0.6h1.6125v-0.1125c-0.00001-0.52916-0.17501-0.9375-0.525-1.225-0.34584-0.29166-0.83334-0.43749-1.4625-0.4375-0.40001 0.000007-0.78959 0.04792-1.1688 0.14375-0.37917 0.09584-0.74375 0.23959-1.0938 0.43125v-1.0625c0.42083-0.16249 0.82916-0.28333 1.225-0.3625 0.39583-0.08333 0.78124-0.12499 1.1562-0.125 1.0125 0.000008 1.7687 0.26251 2.2688 0.7875 0.49999 0.52501 0.74999 1.3208 0.75 2.3875"/>
 </g>
 <g id="text130">
  <path id="path3303" style="" d="m418.36 68.446h1.15v9.725h-1.15v-9.725"/>
 </g>
 <g id="text134">
  <path id="path3306" style="" d="m439.34 72.515c0.28749-0.51666 0.63124-0.89791 1.0312-1.1438 0.39999-0.24583 0.87082-0.36874 1.4125-0.36875 0.72915 0.000008 1.2916 0.25626 1.6875 0.76875 0.39582 0.50834 0.59374 1.2333 0.59375 2.175v4.225h-1.1562v-4.1875c-0.00001-0.67083-0.11876-1.1687-0.35625-1.4938-0.23751-0.32499-0.60001-0.48749-1.0875-0.4875-0.59584 0.000007-1.0667 0.19792-1.4125 0.59375-0.34584 0.39584-0.51876 0.93542-0.51875 1.6188v3.9562h-1.1562v-4.1875c-0.00001-0.675-0.11876-1.1729-0.35625-1.4938-0.23751-0.32499-0.60417-0.48749-1.1-0.4875-0.58751 0.000007-1.0542 0.20001-1.4 0.6-0.34584 0.39584-0.51875 0.93334-0.51875 1.6125v3.9562h-1.1562v-7h1.1562v1.0875c0.2625-0.42916 0.57708-0.74583 0.94375-0.95 0.36666-0.20416 0.80208-0.30624 1.3062-0.30625 0.50833 0.000008 0.93958 0.12917 1.2938 0.3875 0.35832 0.25834 0.62291 0.63334 0.79375 1.125"/>
 </g>
 <g id="text138">
  <path id="path3309" style="" d="m459.39 74.653c-0.92917 0.000003-1.5729 0.10625-1.9312 0.31875-0.35834 0.2125-0.5375 0.575-0.5375 1.0875 0 0.40834 0.13333 0.73333 0.4 0.975 0.27083 0.2375 0.63749 0.35625 1.1 0.35625 0.63749 0 1.1479-0.225 1.5312-0.675 0.38749-0.45416 0.58124-1.0562 0.58125-1.8062v-0.25625h-1.1438m2.2938-0.475v3.9938h-1.15v-1.0625c-0.26251 0.425-0.58959 0.73958-0.98125 0.94375-0.39167 0.2-0.87084 0.3-1.4375 0.3-0.71667-0.000001-1.2875-0.2-1.7125-0.6-0.42084-0.40417-0.63125-0.94375-0.63125-1.6188 0-0.7875 0.2625-1.3812 0.7875-1.7812 0.52916-0.4 1.3167-0.6 2.3625-0.6h1.6125v-0.1125c-0.00001-0.52916-0.17501-0.9375-0.525-1.225-0.34584-0.29166-0.83334-0.43749-1.4625-0.4375-0.40001 0.000007-0.78959 0.04792-1.1688 0.14375-0.37917 0.09584-0.74375 0.23959-1.0938 0.43125v-1.0625c0.42083-0.16249 0.82916-0.28333 1.225-0.3625 0.39583-0.08333 0.78124-0.12499 1.1562-0.125 1.0125 0.000008 1.7687 0.26251 2.2688 0.7875 0.49999 0.52501 0.74999 1.3208 0.75 2.3875"/>
 </g>
 <g id="text142">
  <path id="path3312" style="" d="m473.75 68.84 3.25 10.519h-1.0625l-3.25-10.519h1.0625"/>
  <path id="path3314" style="" d="m481.08 69.671c-0.65001 0.000009-1.1396 0.32084-1.4688 0.9625-0.325 0.63751-0.4875 1.5979-0.4875 2.8813 0 1.2792 0.1625 2.2396 0.4875 2.8812 0.32916 0.6375 0.81874 0.95625 1.4688 0.95625 0.65416 0 1.1437-0.31875 1.4688-0.95625 0.32916-0.64166 0.49374-1.6021 0.49375-2.8812-0.00001-1.2833-0.16459-2.2437-0.49375-2.8813-0.32501-0.64166-0.81459-0.96249-1.4688-0.9625m0-1c1.0458 0.00001 1.8437 0.41459 2.3938 1.2438 0.55416 0.82501 0.83124 2.025 0.83125 3.6-0.00001 1.5708-0.27709 2.7708-0.83125 3.6-0.55001 0.825-1.3479 1.2375-2.3938 1.2375-1.0458-0.000001-1.8458-0.4125-2.4-1.2375-0.55-0.82916-0.825-2.0292-0.825-3.6 0-1.575 0.275-2.775 0.825-3.6 0.55416-0.82916 1.3542-1.2437 2.4-1.2438"/>
 </g>
 <g id="text146">
  <path id="path3317" style="" d="m396.37 108.45h1.1562v5.7438l3.4312-3.0188h1.4688l-3.7125 3.275 3.8688 3.725h-1.5l-3.5562-3.4188v3.4188h-1.1562v-9.725"/>
 </g>
 <g id="text150">
  <path id="path3320" style="" d="m418.93 111.98c-0.61667 0.00001-1.1042 0.24167-1.4625 0.725-0.35834 0.47917-0.5375 1.1375-0.5375 1.975s0.17708 1.4979 0.53125 1.9812c0.35833 0.47917 0.84791 0.71875 1.4688 0.71875 0.61249 0 1.0979-0.24166 1.4562-0.725 0.35833-0.48333 0.53749-1.1417 0.5375-1.975-0.00001-0.82916-0.17917-1.4854-0.5375-1.9688-0.35834-0.48749-0.84376-0.73124-1.4562-0.73125m0-0.975c0.99999 0.00001 1.7854 0.32501 2.3562 0.975 0.57082 0.65001 0.85624 1.55 0.85625 2.7-0.00001 1.1458-0.28543 2.0458-0.85625 2.7-0.57084 0.65-1.3563 0.975-2.3562 0.975-1.0042 0-1.7917-0.325-2.3625-0.975-0.56667-0.65416-0.85-1.5542-0.85-2.7 0-1.15 0.28333-2.05 0.85-2.7 0.57083-0.64999 1.3583-0.97499 2.3625-0.975"/>
 </g>
 <g id="text154">
  <path id="path3323" style="" d="m441.55 112.25c-0.12917-0.075-0.27084-0.12916-0.425-0.1625-0.15001-0.0375-0.31667-0.0562-0.5-0.0562-0.65001 0.00001-1.15 0.21251-1.5 0.6375-0.34584 0.42084-0.51875 1.0271-0.51875 1.8188v3.6875h-1.1562v-7h1.1562v1.0875c0.24166-0.42499 0.55624-0.73958 0.94375-0.94375 0.38749-0.20833 0.85833-0.31249 1.4125-0.3125 0.0792 0.00001 0.16666 0.006 0.2625 0.0187 0.0958 0.008 0.20208 0.0229 0.31875 0.0438l0.006 1.1812"/>
 </g>
 <g id="text158">
  <path id="path3326" style="" d="m458.76 109.18v1.9875h2.3688v0.89375h-2.3688v3.8c0 0.57084 0.0771 0.9375 0.23125 1.1 0.15833 0.1625 0.47708 0.24375 0.95625 0.24375h1.1812v0.9625h-1.1812c-0.8875 0-1.5-0.16458-1.8375-0.49375-0.3375-0.33333-0.50625-0.9375-0.50625-1.8125v-3.8h-0.84375v-0.89375h0.84375v-1.9875h1.1562"/>
 </g>
 <g id="text162">
  <path id="path3329" style="" d="m482.18 114.38v0.5625h-5.2875c0.05 0.79167 0.2875 1.3958 0.7125 1.8125 0.42916 0.4125 1.025 0.61875 1.7875 0.61875 0.44166 0 0.86874-0.0542 1.2812-0.1625 0.41666-0.10833 0.82916-0.27083 1.2375-0.4875v1.0875c-0.41251 0.175-0.83542 0.30833-1.2688 0.4-0.43334 0.0917-0.87292 0.1375-1.3188 0.1375-1.1167 0-2.0021-0.325-2.6562-0.975-0.65-0.65-0.975-1.5292-0.975-2.6375 0-1.1458 0.30833-2.0542 0.925-2.725 0.62083-0.67499 1.4562-1.0125 2.5062-1.0125 0.94166 0.00001 1.6854 0.30417 2.2312 0.9125 0.54999 0.60417 0.82499 1.4271 0.825 2.4688m-1.15-0.3375c-0.008-0.62916-0.18542-1.1312-0.53125-1.5062-0.34167-0.37499-0.79584-0.56249-1.3625-0.5625-0.64167 0.00001-1.1563 0.18126-1.5438 0.54375-0.38334 0.36251-0.60417 0.87292-0.6625 1.5312l4.1-0.006"/>
 </g>
 <g id="text166">
  <path id="path3332" style="" d="m493.75 108.84 3.25 10.519h-1.0625l-3.25-10.519h1.0625"/>
  <path id="path3334" style="" d="m501.08 109.67c-0.65001 0.00001-1.1396 0.32084-1.4688 0.9625-0.325 0.63751-0.4875 1.5979-0.4875 2.8812 0 1.2792 0.1625 2.2396 0.4875 2.8812 0.32916 0.6375 0.81874 0.95625 1.4688 0.95625 0.65416 0 1.1437-0.31875 1.4688-0.95625 0.32916-0.64166 0.49374-1.6021 0.49375-2.8812-0.00001-1.2833-0.16459-2.2437-0.49375-2.8812-0.32501-0.64166-0.81459-0.96249-1.4688-0.9625m0-1c1.0458 0.00001 1.8437 0.41459 2.3938 1.2438 0.55416 0.82501 0.83124 2.025 0.83125 3.6-0.00001 1.5708-0.27709 2.7708-0.83125 3.6-0.55001 0.825-1.3479 1.2375-2.3938 1.2375-1.0458 0-1.8458-0.4125-2.4-1.2375-0.55-0.82916-0.825-2.0292-0.825-3.6 0-1.575 0.275-2.775 0.825-3.6 0.55416-0.82916 1.3542-1.2437 2.4-1.2438"/>
 </g>
 <g id="g170" transform="translate(-1.075 -6.2537)">
  <path id="rect172" fill="#fff" d="m390 150h20v20h-20z"/>
  <path id="rect174" d="m390 150h20v20h-20z" stroke="#000" stroke-width="2" fill="none"/>
 </g>
 <g id="g176" transform="translate(-1.075 -6.2537)">
  <path id="rect178" fill="#fff" d="m410 150h20v20h-20z"/>
  <path id="rect180" d="m410 150h20v20h-20z" stroke="#000" stroke-width="2" fill="none"/>
 </g>
 <g id="g182" transform="translate(-1.075 -6.2537)">
  <path id="rect184" fill="#fff" d="m430 150h20v20h-20z"/>
  <path id="rect186" d="m430 150h20v20h-20z" stroke="#000" stroke-width="2" fill="none"/>
 </g>
 <g id="g188" transform="translate(-1.075 -6.2537)">
  <path id="rect190" fill="#fff" d="m450 150h20v20h-20z"/>
  <path id="rect192" d="m450 150h20v20h-20z" stroke="#000" stroke-width="2" fill="none"/>
 </g>
 <g id="g194" transform="translate(-1.075 -6.2537)">
  <path id="rect196" fill="#fff" d="m510 150h20v20h-20z"/>
  <path id="rect198" d="m510 150h20v20h-20z" stroke="#000" stroke-width="2" fill="none"/>
 </g>
 <g id="g200" transform="translate(-1.075 -6.2537)">
  <path id="rect202" fill="#fff" d="m470 150h20v20h-20z"/>
  <path id="rect204" d="m470 150h20v20h-20z" stroke="#000" stroke-width="2" fill="none"/>
 </g>
 <g id="text206">
  <path id="path3349" style="" d="m401.89 153.95v4.225h-1.15v-4.1875c-0.00001-0.6625-0.12917-1.1583-0.3875-1.4875-0.25834-0.32916-0.64584-0.49375-1.1625-0.49375-0.62084 0-1.1104 0.19792-1.4688 0.59375-0.35834 0.39583-0.5375 0.93542-0.5375 1.6188v3.9562h-1.1562v-7h1.1562v1.0875c0.275-0.42083 0.59791-0.73541 0.96875-0.94375 0.37499-0.20833 0.80624-0.3125 1.2938-0.3125 0.80416 0 1.4125 0.25 1.825 0.75 0.41249 0.49584 0.61874 1.2271 0.61875 2.1938"/>
 </g>
 <g id="text210">
  <path id="path3352" style="" d="m419.39 154.65c-0.92917 0-1.5729 0.10625-1.9312 0.31875-0.35834 0.2125-0.5375 0.575-0.5375 1.0875 0 0.40833 0.13333 0.73333 0.4 0.975 0.27083 0.2375 0.63749 0.35625 1.1 0.35625 0.63749 0 1.1479-0.225 1.5312-0.675 0.38749-0.45417 0.58124-1.0562 0.58125-1.8062v-0.25625h-1.1438m2.2938-0.475v3.9938h-1.15v-1.0625c-0.26251 0.425-0.58959 0.73958-0.98125 0.94375-0.39167 0.2-0.87084 0.3-1.4375 0.3-0.71667 0-1.2875-0.2-1.7125-0.6-0.42084-0.40417-0.63125-0.94375-0.63125-1.6188 0-0.7875 0.2625-1.3812 0.7875-1.7812 0.52916-0.4 1.3167-0.6 2.3625-0.6h1.6125v-0.1125c-0.00001-0.52917-0.17501-0.9375-0.525-1.225-0.34584-0.29166-0.83334-0.4375-1.4625-0.4375-0.40001 0-0.78959 0.0479-1.1688 0.14375-0.37917 0.0958-0.74375 0.23959-1.0938 0.43125v-1.0625c0.42083-0.1625 0.82916-0.28333 1.225-0.3625 0.39583-0.0833 0.78124-0.125 1.1562-0.125 1.0125 0 1.7687 0.2625 2.2688 0.7875 0.49999 0.525 0.74999 1.3208 0.75 2.3875"/>
 </g>
 <g id="text214">
  <path id="path3355" style="" d="m441.55 152.25c-0.12917-0.075-0.27084-0.12916-0.425-0.1625-0.15001-0.0375-0.31667-0.0562-0.5-0.0562-0.65001 0-1.15 0.2125-1.5 0.6375-0.34584 0.42083-0.51875 1.0271-0.51875 1.8188v3.6875h-1.1562v-7h1.1562v1.0875c0.24166-0.425 0.55624-0.73958 0.94375-0.94375 0.38749-0.20833 0.85833-0.3125 1.4125-0.3125 0.0792 0 0.16666 0.006 0.2625 0.0187 0.0958 0.008 0.20208 0.0229 0.31875 0.0438l0.006 1.1812"/>
 </g>
 <g id="text218">
  <path id="path3358" style="" d="m459.39 154.65c-0.92917 0-1.5729 0.10625-1.9312 0.31875-0.35834 0.2125-0.5375 0.575-0.5375 1.0875 0 0.40833 0.13333 0.73333 0.4 0.975 0.27083 0.2375 0.63749 0.35625 1.1 0.35625 0.63749 0 1.1479-0.225 1.5312-0.675 0.38749-0.45417 0.58124-1.0562 0.58125-1.8062v-0.25625h-1.1438m2.2938-0.475v3.9938h-1.15v-1.0625c-0.26251 0.425-0.58959 0.73958-0.98125 0.94375-0.39167 0.2-0.87084 0.3-1.4375 0.3-0.71667 0-1.2875-0.2-1.7125-0.6-0.42084-0.40417-0.63125-0.94375-0.63125-1.6188 0-0.7875 0.2625-1.3812 0.7875-1.7812 0.52916-0.4 1.3167-0.6 2.3625-0.6h1.6125v-0.1125c-0.00001-0.52917-0.17501-0.9375-0.525-1.225-0.34584-0.29166-0.83334-0.4375-1.4625-0.4375-0.40001 0-0.78959 0.0479-1.1688 0.14375-0.37917 0.0958-0.74375 0.23959-1.0938 0.43125v-1.0625c0.42083-0.1625 0.82916-0.28333 1.225-0.3625 0.39583-0.0833 0.78124-0.125 1.1562-0.125 1.0125 0 1.7687 0.2625 2.2688 0.7875 0.49999 0.525 0.74999 1.3208 0.75 2.3875"/>
 </g>
 <g id="text222">
  <path id="path3361" style="" d="m481.89 153.95v4.225h-1.15v-4.1875c-0.00001-0.6625-0.12917-1.1583-0.3875-1.4875-0.25834-0.32916-0.64584-0.49375-1.1625-0.49375-0.62084 0-1.1104 0.19792-1.4688 0.59375-0.35834 0.39583-0.5375 0.93542-0.5375 1.6188v3.9562h-1.1562v-7h1.1562v1.0875c0.275-0.42083 0.59791-0.73541 0.96875-0.94375 0.37499-0.20833 0.80624-0.3125 1.2938-0.3125 0.80416 0 1.4125 0.25 1.825 0.75 0.41249 0.49584 0.61874 1.2271 0.61875 2.1938"/>
 </g>
 <g id="text226">
  <path id="path3364" style="" d="m533.75 148.84 3.25 10.519h-1.0625l-3.25-10.519h1.0625"/>
  <path id="path3366" style="" d="m541.08 149.67c-0.65001 0-1.1396 0.32084-1.4688 0.9625-0.325 0.6375-0.4875 1.5979-0.4875 2.8812 0 1.2792 0.1625 2.2396 0.4875 2.8812 0.32916 0.6375 0.81874 0.95625 1.4688 0.95625 0.65416 0 1.1437-0.31875 1.4688-0.95625 0.32916-0.64167 0.49374-1.6021 0.49375-2.8812-0.00001-1.2833-0.16459-2.2438-0.49375-2.8812-0.32501-0.64166-0.81459-0.9625-1.4688-0.9625m0-1c1.0458 0.00001 1.8437 0.41459 2.3938 1.2438 0.55416 0.825 0.83124 2.025 0.83125 3.6-0.00001 1.5708-0.27709 2.7708-0.83125 3.6-0.55001 0.825-1.3479 1.2375-2.3938 1.2375-1.0458 0-1.8458-0.4125-2.4-1.2375-0.55-0.82917-0.825-2.0292-0.825-3.6 0-1.575 0.275-2.775 0.825-3.6 0.55416-0.82916 1.3542-1.2437 2.4-1.2438"/>
 </g>
 <g id="g230" transform="translate(-1.075 -6.2537)">
  <path id="rect232" fill="#fff" d="m490 150h20v20h-20z"/>
  <path id="rect234" d="m490 150h20v20h-20z" stroke="#000" stroke-width="2" fill="none"/>
 </g>
 <g id="g236" transform="translate(-1.075 -6.2537)">
  <path id="rect238" fill="#3a739a" d="m530 150h20v20h-20z"/>
  <path id="rect240" d="m530 150h20v20h-20z" stroke="#000" stroke-width="2" fill="none"/>
 </g>
 <g id="text242">
  <path id="path3373" style="" d="m501.64 151.44v1.075c-0.32501-0.17916-0.65209-0.3125-0.98125-0.4-0.32501-0.0917-0.65417-0.1375-0.9875-0.1375-0.74584 0-1.325 0.2375-1.7375 0.7125-0.4125 0.47083-0.61875 1.1333-0.61875 1.9875 0 0.85417 0.20625 1.5188 0.61875 1.9938 0.41249 0.47083 0.99166 0.70625 1.7375 0.70625 0.33333 0 0.66249-0.0438 0.9875-0.13125 0.32916-0.0917 0.65624-0.22709 0.98125-0.40625v1.0625c-0.32084 0.15-0.65417 0.2625-1 0.3375-0.34167 0.075-0.70626 0.1125-1.0938 0.1125-1.0542 0-1.8917-0.33125-2.5125-0.99375-0.62084-0.6625-0.93125-1.5562-0.93125-2.6812 0-1.1417 0.3125-2.0396 0.9375-2.6938 0.62916-0.65416 1.4896-0.98125 2.5812-0.98125 0.35416 0 0.69999 0.0375 1.0375 0.1125 0.33749 0.0708 0.66458 0.17917 0.98125 0.325"/>
 </g>
 <g id="text246">
  <path id="path3376" style="" d="m521.26 151.38v1.0875c-0.32501-0.16666-0.66251-0.29166-1.0125-0.375-0.35001-0.0833-0.71251-0.125-1.0875-0.125-0.57084 0-1 0.0875-1.2875 0.2625-0.28334 0.175-0.425 0.4375-0.425 0.7875 0 0.26667 0.10208 0.47708 0.30625 0.63125 0.20416 0.15 0.61458 0.29375 1.2312 0.43125l0.39375 0.0875c0.81666 0.175 1.3958 0.42292 1.7375 0.74375 0.34583 0.31667 0.51874 0.76042 0.51875 1.3312-0.00001 0.65-0.25834 1.1646-0.775 1.5438-0.51251 0.37916-1.2188 0.56875-2.1188 0.56875-0.375 0-0.76667-0.0375-1.175-0.1125-0.40417-0.0708-0.83125-0.17917-1.2812-0.325v-1.1875c0.425 0.22083 0.84375 0.3875 1.2562 0.5 0.4125 0.10833 0.82083 0.1625 1.225 0.1625 0.54166 0 0.95833-0.0917 1.25-0.275 0.29166-0.1875 0.43749-0.45 0.4375-0.7875-0.00001-0.3125-0.10626-0.55208-0.31875-0.71875-0.20834-0.16667-0.66876-0.32708-1.3812-0.48125l-0.4-0.0937c-0.7125-0.15-1.2271-0.37917-1.5438-0.6875-0.31667-0.3125-0.475-0.73958-0.475-1.2812 0-0.65833 0.23333-1.1667 0.7-1.525 0.46666-0.35833 1.1292-0.5375 1.9875-0.5375 0.42499 0 0.82499 0.0312 1.2 0.0937 0.37499 0.0625 0.72083 0.15625 1.0375 0.28125"/>
 </g>
 <g id="text250">
  <path id="path3379" style="" d="m533.75 148.84 3.25 10.519h-1.0625l-3.25-10.519h1.0625"/>
  <path id="path3381" style="" d="m541.08 149.67c-0.65001 0-1.1396 0.32084-1.4688 0.9625-0.325 0.6375-0.4875 1.5979-0.4875 2.8812 0 1.2792 0.1625 2.2396 0.4875 2.8812 0.32916 0.6375 0.81874 0.95625 1.4688 0.95625 0.65416 0 1.1437-0.31875 1.4688-0.95625 0.32916-0.64167 0.49374-1.6021 0.49375-2.8812-0.00001-1.2833-0.16459-2.2438-0.49375-2.8812-0.32501-0.64166-0.81459-0.9625-1.4688-0.9625m0-1c1.0458 0.00001 1.8437 0.41459 2.3938 1.2438 0.55416 0.825 0.83124 2.025 0.83125 3.6-0.00001 1.5708-0.27709 2.7708-0.83125 3.6-0.55001 0.825-1.3479 1.2375-2.3938 1.2375-1.0458 0-1.8458-0.4125-2.4-1.2375-0.55-0.82917-0.825-2.0292-0.825-3.6 0-1.575 0.275-2.775 0.825-3.6 0.55416-0.82916 1.3542-1.2437 2.4-1.2438"/>
 </g>
 <path id="line254" d="m288.92 123.75 20 20" stroke="#000" stroke-width="2" fill="none"/>
 <path id="line256" d="m288.92 143.75 20-20" stroke="#000" stroke-width="2" fill="none"/>
 <g id="g258" transform="translate(-1.075 -6.2537)">
  <path id="rect260" fill="#fff" d="m220 190h20v20h-20z"/>
  <path id="rect262" d="m220 190h20v20h-20z" stroke="#000" stroke-width="2" fill="none"/>
 </g>
 <g id="g264" transform="translate(-1.075 -6.2537)">
  <path id="rect266" fill="#fff" d="m240 190h20v20h-20z"/>
  <path id="rect268" d="m240 190h20v20h-20z" stroke="#000" stroke-width="2" fill="none"/>
 </g>
 <g id="g270" transform="translate(-1.075 -6.2537)">
  <path id="rect272" fill="#fff" d="m260 190h20v20h-20z"/>
  <path id="rect274" d="m260 190h20v20h-20z" stroke="#000" stroke-width="2" fill="none"/>
 </g>
 <g id="g276" transform="translate(-1.075 -6.2537)">
  <path id="rect278" fill="#fff" d="m280 190h20v20h-20z"/>
  <path id="rect280" d="m280 190h20v20h-20z" stroke="#000" stroke-width="2" fill="none"/>
 </g>
 <g id="text282">
  <path id="path3394" style="" d="m229.39 194.65c-0.92917 0-1.5729 0.10625-1.9312 0.31875-0.35833 0.2125-0.5375 0.575-0.5375 1.0875 0 0.40833 0.13333 0.73333 0.4 0.975 0.27083 0.2375 0.6375 0.35625 1.1 0.35625 0.6375 0 1.1479-0.225 1.5312-0.675 0.3875-0.45417 0.58125-1.0562 0.58125-1.8062v-0.25625h-1.1438m2.2938-0.475v3.9938h-1.15v-1.0625c-0.2625 0.425-0.58959 0.73958-0.98125 0.94375-0.39167 0.2-0.87083 0.3-1.4375 0.3-0.71667 0-1.2875-0.2-1.7125-0.6-0.42083-0.40417-0.63125-0.94375-0.63125-1.6188 0-0.7875 0.2625-1.3812 0.7875-1.7812 0.52917-0.4 1.3167-0.6 2.3625-0.6h1.6125v-0.1125c0-0.52917-0.175-0.9375-0.525-1.225-0.34583-0.29166-0.83333-0.4375-1.4625-0.4375-0.4 0-0.78958 0.0479-1.1688 0.14375-0.37917 0.0958-0.74375 0.23959-1.0938 0.43125v-1.0625c0.42083-0.1625 0.82917-0.28333 1.225-0.3625 0.39583-0.0833 0.78125-0.125 1.1562-0.125 1.0125 0 1.7688 0.2625 2.2688 0.7875s0.75 1.3208 0.75 2.3875"/>
 </g>
 <g id="text286">
  <path id="path3397" style="" d="m248.36 188.45h1.15v9.725h-1.15v-9.725"/>
 </g>
 <g id="text290">
  <path id="path3400" style="" d="m269.34 192.52c0.28749-0.51666 0.63124-0.89791 1.0312-1.1438 0.39999-0.24583 0.87082-0.36875 1.4125-0.36875 0.72915 0 1.2916 0.25625 1.6875 0.76875 0.39582 0.50834 0.59374 1.2333 0.59375 2.175v4.225h-1.1562v-4.1875c-0.00001-0.67083-0.11876-1.1688-0.35625-1.4938-0.23751-0.325-0.60001-0.4875-1.0875-0.4875-0.59584 0-1.0667 0.19792-1.4125 0.59375-0.34584 0.39583-0.51876 0.93542-0.51875 1.6188v3.9562h-1.1562v-4.1875c-0.00001-0.675-0.11876-1.1729-0.35625-1.4938-0.23751-0.325-0.60417-0.4875-1.1-0.4875-0.58751 0-1.0542 0.2-1.4 0.6-0.34584 0.39583-0.51875 0.93333-0.51875 1.6125v3.9562h-1.1562v-7h1.1562v1.0875c0.2625-0.42916 0.57708-0.74583 0.94375-0.95 0.36666-0.20416 0.80208-0.30625 1.3062-0.30625 0.50833 0 0.93958 0.12917 1.2938 0.3875 0.35832 0.25834 0.62291 0.63334 0.79375 1.125"/>
 </g>
 <g id="text294">
  <path id="path3403" style="" d="m289.39 194.65c-0.92917 0-1.5729 0.10625-1.9312 0.31875-0.35834 0.2125-0.5375 0.575-0.5375 1.0875 0 0.40833 0.13333 0.73333 0.4 0.975 0.27083 0.2375 0.63749 0.35625 1.1 0.35625 0.63749 0 1.1479-0.225 1.5312-0.675 0.38749-0.45417 0.58124-1.0562 0.58125-1.8062v-0.25625h-1.1438m2.2938-0.475v3.9938h-1.15v-1.0625c-0.26251 0.425-0.58959 0.73958-0.98125 0.94375-0.39167 0.2-0.87084 0.3-1.4375 0.3-0.71667 0-1.2875-0.2-1.7125-0.6-0.42084-0.40417-0.63125-0.94375-0.63125-1.6188 0-0.7875 0.2625-1.3812 0.7875-1.7812 0.52916-0.4 1.3167-0.6 2.3625-0.6h1.6125v-0.1125c-0.00001-0.52917-0.17501-0.9375-0.525-1.225-0.34584-0.29166-0.83334-0.4375-1.4625-0.4375-0.40001 0-0.78959 0.0479-1.1688 0.14375-0.37917 0.0958-0.74375 0.23959-1.0938 0.43125v-1.0625c0.42083-0.1625 0.82916-0.28333 1.225-0.3625 0.39583-0.0833 0.78124-0.125 1.1562-0.125 1.0125 0 1.7687 0.2625 2.2688 0.7875 0.49999 0.525 0.74999 1.3208 0.75 2.3875"/>
 </g>
 <g id="g298" transform="translate(-1.075 -6.2537)">
  <path id="rect300" fill="#fff" d="m320 190h20v20h-20z"/>
  <path id="rect302" d="m320 190h20v20h-20z" stroke="#000" stroke-width="2" fill="none"/>
 </g>
 <g id="g304" transform="translate(-1.075 -6.2537)">
  <path id="rect306" fill="#fff" d="m340 190h20v20h-20z"/>
  <path id="rect308" d="m340 190h20v20h-20z" stroke="#000" stroke-width="2" fill="none"/>
 </g>
 <g id="g310" transform="translate(-1.075 -6.2537)">
  <path id="rect312" fill="#fff" d="m360 190h20v20h-20z"/>
  <path id="rect314" d="m360 190h20v20h-20z" stroke="#000" stroke-width="2" fill="none"/>
 </g>
 <g id="g316" transform="translate(-1.075 -6.2537)">
  <path id="rect318" fill="#fff" d="m380 190h20v20h-20z"/>
  <path id="rect320" d="m380 190h20v20h-20z" stroke="#000" stroke-width="2" fill="none"/>
 </g>
 <g id="g322" transform="translate(-1.075 -6.2537)">
  <path id="rect324" fill="#fff" d="m400 190h20v20h-20z"/>
  <path id="rect326" d="m400 190h20v20h-20z" stroke="#000" stroke-width="2" fill="none"/>
 </g>
 <g id="text328">
  <path id="path3416" style="" d="m326.37 188.45h1.1562v5.7438l3.4312-3.0188h1.4688l-3.7125 3.275 3.8688 3.725h-1.5l-3.5562-3.4188v3.4188h-1.1562v-9.725"/>
 </g>
 <g id="text332">
  <path id="path3419" style="" d="m348.93 191.98c-0.61667 0-1.1042 0.24167-1.4625 0.725-0.35834 0.47917-0.5375 1.1375-0.5375 1.975s0.17708 1.4979 0.53125 1.9812c0.35833 0.47916 0.84791 0.71875 1.4688 0.71875 0.61249 0 1.0979-0.24167 1.4562-0.725 0.35833-0.48334 0.53749-1.1417 0.5375-1.975-0.00001-0.82917-0.17917-1.4854-0.5375-1.9688-0.35834-0.4875-0.84376-0.73125-1.4562-0.73125m0-0.975c0.99999 0 1.7854 0.325 2.3562 0.975 0.57082 0.65 0.85624 1.55 0.85625 2.7-0.00001 1.1458-0.28543 2.0458-0.85625 2.7-0.57084 0.65-1.3563 0.975-2.3562 0.975-1.0042 0-1.7917-0.325-2.3625-0.975-0.56667-0.65417-0.85-1.5542-0.85-2.7 0-1.15 0.28333-2.05 0.85-2.7 0.57083-0.65 1.3583-0.975 2.3625-0.975"/>
 </g>
 <g id="text336">
  <path id="path3422" style="" d="m371.55 192.25c-0.12917-0.075-0.27084-0.12916-0.425-0.1625-0.15001-0.0375-0.31667-0.0562-0.5-0.0562-0.65001 0-1.15 0.2125-1.5 0.6375-0.34584 0.42083-0.51875 1.0271-0.51875 1.8188v3.6875h-1.1562v-7h1.1562v1.0875c0.24166-0.425 0.55624-0.73958 0.94375-0.94375 0.38749-0.20833 0.85833-0.3125 1.4125-0.3125 0.0792 0 0.16666 0.006 0.2625 0.0187 0.0958 0.008 0.20208 0.0229 0.31875 0.0438l0.006 1.1812"/>
 </g>
 <g id="text340">
  <path id="path3425" style="" d="m388.76 189.18v1.9875h2.3688v0.89375h-2.3688v3.8c0 0.57083 0.0771 0.9375 0.23125 1.1 0.15833 0.1625 0.47708 0.24375 0.95625 0.24375h1.1812v0.9625h-1.1812c-0.8875 0-1.5-0.16459-1.8375-0.49375-0.3375-0.33334-0.50625-0.9375-0.50625-1.8125v-3.8h-0.84375v-0.89375h0.84375v-1.9875h1.1562"/>
 </g>
 <g id="text344">
  <path id="path3428" style="" d="m412.18 194.38v0.5625h-5.2875c0.05 0.79167 0.2875 1.3958 0.7125 1.8125 0.42916 0.4125 1.025 0.61875 1.7875 0.61875 0.44166 0 0.86874-0.0542 1.2812-0.1625 0.41666-0.10834 0.82916-0.27084 1.2375-0.4875v1.0875c-0.41251 0.175-0.83542 0.30833-1.2688 0.4-0.43334 0.0917-0.87292 0.1375-1.3188 0.1375-1.1167 0-2.0021-0.325-2.6562-0.975-0.65-0.65-0.975-1.5292-0.975-2.6375 0-1.1458 0.30833-2.0542 0.925-2.725 0.62083-0.675 1.4562-1.0125 2.5062-1.0125 0.94166 0 1.6854 0.30417 2.2312 0.9125 0.54999 0.60417 0.82499 1.4271 0.825 2.4688m-1.15-0.3375c-0.008-0.62917-0.18542-1.1312-0.53125-1.5062-0.34167-0.375-0.79584-0.5625-1.3625-0.5625-0.64167 0-1.1563 0.18125-1.5438 0.54375-0.38334 0.3625-0.60417 0.87292-0.6625 1.5312l4.1-0.006"/>
 </g>
 <g id="g348" transform="translate(-1.075 -6.2537)">
  <path id="rect350" fill="#fff" d="m440 190h20v20h-20z"/>
  <path id="rect352" d="m440 190h20v20h-20z" stroke="#000" stroke-width="2" fill="none"/>
 </g>
 <g id="g354" transform="translate(-1.075 -6.2537)">
  <path id="rect356" fill="#fff" d="m460 190h20v20h-20z"/>
  <path id="rect358" d="m460 190h20v20h-20z" stroke="#000" stroke-width="2" fill="none"/>
 </g>
 <g id="g360" transform="translate(-1.075 -6.2537)">
  <path id="rect362" fill="#fff" d="m480 190h20v20h-20z"/>
  <path id="rect364" d="m480 190h20v20h-20z" stroke="#000" stroke-width="2" fill="none"/>
 </g>
 <g id="g366" transform="translate(-1.075 -6.2537)">
  <path id="rect368" fill="#fff" d="m500 190h20v20h-20z"/>
  <path id="rect370" d="m500 190h20v20h-20z" stroke="#000" stroke-width="2" fill="none"/>
 </g>
 <g id="g372" transform="translate(-1.075 -6.2537)">
  <path id="rect374" fill="#fff" d="m560 190h20v20h-20z"/>
  <path id="rect376" d="m560 190h20v20h-20z" stroke="#000" stroke-width="2" fill="none"/>
 </g>
 <g id="g378" transform="translate(-1.075 -6.2537)">
  <path id="rect380" fill="#fff" d="m520 190h20v20h-20z"/>
  <path id="rect382" d="m520 190h20v20h-20z" stroke="#000" stroke-width="2" fill="none"/>
 </g>
 <g id="text384">
  <path id="path3443" style="" d="m451.89 193.95v4.225h-1.15v-4.1875c-0.00001-0.6625-0.12917-1.1583-0.3875-1.4875-0.25834-0.32916-0.64584-0.49375-1.1625-0.49375-0.62084 0-1.1104 0.19792-1.4688 0.59375-0.35834 0.39583-0.5375 0.93542-0.5375 1.6188v3.9562h-1.1562v-7h1.1562v1.0875c0.275-0.42083 0.59791-0.73541 0.96875-0.94375 0.37499-0.20833 0.80624-0.3125 1.2938-0.3125 0.80416 0 1.4125 0.25 1.825 0.75 0.41249 0.49584 0.61874 1.2271 0.61875 2.1938"/>
 </g>
 <g id="text388">
  <path id="path3446" style="" d="m469.39 194.65c-0.92917 0-1.5729 0.10625-1.9312 0.31875-0.35834 0.2125-0.5375 0.575-0.5375 1.0875 0 0.40833 0.13333 0.73333 0.4 0.975 0.27083 0.2375 0.63749 0.35625 1.1 0.35625 0.63749 0 1.1479-0.225 1.5312-0.675 0.38749-0.45417 0.58124-1.0562 0.58125-1.8062v-0.25625h-1.1438m2.2938-0.475v3.9938h-1.15v-1.0625c-0.26251 0.425-0.58959 0.73958-0.98125 0.94375-0.39167 0.2-0.87084 0.3-1.4375 0.3-0.71667 0-1.2875-0.2-1.7125-0.6-0.42084-0.40417-0.63125-0.94375-0.63125-1.6188 0-0.7875 0.2625-1.3812 0.7875-1.7812 0.52916-0.4 1.3167-0.6 2.3625-0.6h1.6125v-0.1125c-0.00001-0.52917-0.17501-0.9375-0.525-1.225-0.34584-0.29166-0.83334-0.4375-1.4625-0.4375-0.40001 0-0.78959 0.0479-1.1688 0.14375-0.37917 0.0958-0.74375 0.23959-1.0938 0.43125v-1.0625c0.42083-0.1625 0.82916-0.28333 1.225-0.3625 0.39583-0.0833 0.78124-0.125 1.1562-0.125 1.0125 0 1.7687 0.2625 2.2688 0.7875 0.49999 0.525 0.74999 1.3208 0.75 2.3875"/>
 </g>
 <g id="text392">
  <path id="path3449" style="" d="m491.55 192.25c-0.12917-0.075-0.27084-0.12916-0.425-0.1625-0.15001-0.0375-0.31667-0.0562-0.5-0.0562-0.65001 0-1.15 0.2125-1.5 0.6375-0.34584 0.42083-0.51875 1.0271-0.51875 1.8188v3.6875h-1.1562v-7h1.1562v1.0875c0.24166-0.425 0.55624-0.73958 0.94375-0.94375 0.38749-0.20833 0.85833-0.3125 1.4125-0.3125 0.0792 0 0.16666 0.006 0.2625 0.0187 0.0958 0.008 0.20208 0.0229 0.31875 0.0438l0.006 1.1812"/>
 </g>
 <g id="text396">
  <path id="path3452" style="" d="m509.39 194.65c-0.92917 0-1.5729 0.10625-1.9312 0.31875-0.35834 0.2125-0.5375 0.575-0.5375 1.0875 0 0.40833 0.13333 0.73333 0.4 0.975 0.27083 0.2375 0.63749 0.35625 1.1 0.35625 0.63749 0 1.1479-0.225 1.5312-0.675 0.38749-0.45417 0.58124-1.0562 0.58125-1.8062v-0.25625h-1.1438m2.2938-0.475v3.9938h-1.15v-1.0625c-0.26251 0.425-0.58959 0.73958-0.98125 0.94375-0.39167 0.2-0.87084 0.3-1.4375 0.3-0.71667 0-1.2875-0.2-1.7125-0.6-0.42084-0.40417-0.63125-0.94375-0.63125-1.6188 0-0.7875 0.2625-1.3812 0.7875-1.7812 0.52916-0.4 1.3167-0.6 2.3625-0.6h1.6125v-0.1125c-0.00001-0.52917-0.17501-0.9375-0.525-1.225-0.34584-0.29166-0.83334-0.4375-1.4625-0.4375-0.40001 0-0.78959 0.0479-1.1688 0.14375-0.37917 0.0958-0.74375 0.23959-1.0938 0.43125v-1.0625c0.42083-0.1625 0.82916-0.28333 1.225-0.3625 0.39583-0.0833 0.78124-0.125 1.1562-0.125 1.0125 0 1.7687 0.2625 2.2688 0.7875 0.49999 0.525 0.74999 1.3208 0.75 2.3875"/>
 </g>
 <g id="text400">
  <path id="path3455" style="" d="m531.89 193.95v4.225h-1.15v-4.1875c-0.00001-0.6625-0.12917-1.1583-0.3875-1.4875-0.25834-0.32916-0.64584-0.49375-1.1625-0.49375-0.62084 0-1.1104 0.19792-1.4688 0.59375-0.35834 0.39583-0.5375 0.93542-0.5375 1.6188v3.9562h-1.1562v-7h1.1562v1.0875c0.275-0.42083 0.59791-0.73541 0.96875-0.94375 0.37499-0.20833 0.80624-0.3125 1.2938-0.3125 0.80416 0 1.4125 0.25 1.825 0.75 0.41249 0.49584 0.61874 1.2271 0.61875 2.1938"/>
 </g>
 <g id="g404" transform="translate(-1.075 -6.2537)">
  <path id="rect406" fill="#fff" d="m540 190h20v20h-20z"/>
  <path id="rect408" d="m540 190h20v20h-20z" stroke="#000" stroke-width="2" fill="none"/>
 </g>
 <g id="text410">
  <path id="path3460" style="" d="m551.64 191.44v1.075c-0.32501-0.17916-0.65209-0.3125-0.98125-0.4-0.32501-0.0917-0.65417-0.1375-0.9875-0.1375-0.74584 0-1.325 0.2375-1.7375 0.7125-0.4125 0.47083-0.61875 1.1333-0.61875 1.9875 0 0.85417 0.20625 1.5188 0.61875 1.9938 0.41249 0.47083 0.99166 0.70625 1.7375 0.70625 0.33333 0 0.66249-0.0438 0.9875-0.13125 0.32916-0.0917 0.65624-0.22709 0.98125-0.40625v1.0625c-0.32084 0.15-0.65417 0.2625-1 0.3375-0.34167 0.075-0.70626 0.1125-1.0938 0.1125-1.0542 0-1.8917-0.33125-2.5125-0.99375-0.62084-0.6625-0.93125-1.5562-0.93125-2.6812 0-1.1417 0.3125-2.0396 0.9375-2.6938 0.62916-0.65416 1.4896-0.98125 2.5812-0.98125 0.35416 0 0.69999 0.0375 1.0375 0.1125 0.33749 0.0708 0.66458 0.17917 0.98125 0.325"/>
 </g>
 <g id="text414">
  <path id="path3463" style="" d="m571.26 191.38v1.0875c-0.32501-0.16666-0.66251-0.29166-1.0125-0.375-0.35001-0.0833-0.71251-0.125-1.0875-0.125-0.57084 0-1 0.0875-1.2875 0.2625-0.28334 0.175-0.425 0.4375-0.425 0.7875 0 0.26667 0.10208 0.47708 0.30625 0.63125 0.20416 0.15 0.61458 0.29375 1.2312 0.43125l0.39375 0.0875c0.81666 0.175 1.3958 0.42292 1.7375 0.74375 0.34583 0.31667 0.51874 0.76042 0.51875 1.3312-0.00001 0.65-0.25834 1.1646-0.775 1.5438-0.51251 0.37916-1.2188 0.56875-2.1188 0.56875-0.375 0-0.76667-0.0375-1.175-0.1125-0.40417-0.0708-0.83125-0.17917-1.2812-0.325v-1.1875c0.425 0.22083 0.84375 0.3875 1.2562 0.5 0.4125 0.10833 0.82083 0.1625 1.225 0.1625 0.54166 0 0.95833-0.0917 1.25-0.275 0.29166-0.1875 0.43749-0.45 0.4375-0.7875-0.00001-0.3125-0.10626-0.55208-0.31875-0.71875-0.20834-0.16667-0.66876-0.32708-1.3812-0.48125l-0.4-0.0937c-0.7125-0.15-1.2271-0.37917-1.5438-0.6875-0.31667-0.3125-0.475-0.73958-0.475-1.2812 0-0.65833 0.23333-1.1667 0.7-1.525 0.46666-0.35833 1.1292-0.5375 1.9875-0.5375 0.42499 0 0.82499 0.0312 1.2 0.0937 0.37499 0.0625 0.72083 0.15625 1.0375 0.28125"/>
 </g>
 <g id="g418" transform="translate(-1.075 -6.2537)">
  <path id="rect420" fill="#3a739a" d="m580 190h20v20h-20z"/>
  <path id="rect422" d="m580 190h20v20h-20z" stroke="#000" stroke-width="2" fill="none"/>
 </g>
 <g id="text424">
  <path id="path3468" style="" d="m583.75 188.84 3.25 10.519h-1.0625l-3.25-10.519h1.0625"/>
  <path id="path3470" style="" d="m591.08 189.67c-0.65001 0-1.1396 0.32084-1.4688 0.9625-0.325 0.6375-0.4875 1.5979-0.4875 2.8812 0 1.2792 0.1625 2.2396 0.4875 2.8812 0.32916 0.6375 0.81874 0.95625 1.4688 0.95625 0.65416 0 1.1437-0.31875 1.4688-0.95625 0.32916-0.64167 0.49374-1.6021 0.49375-2.8812-0.00001-1.2833-0.16459-2.2438-0.49375-2.8812-0.32501-0.64166-0.81459-0.9625-1.4688-0.9625m0-1c1.0458 0.00001 1.8437 0.41459 2.3938 1.2438 0.55416 0.825 0.83124 2.025 0.83125 3.6-0.00001 1.5708-0.27709 2.7708-0.83125 3.6-0.55001 0.825-1.3479 1.2375-2.3938 1.2375-1.0458 0-1.8458-0.4125-2.4-1.2375-0.55-0.82917-0.825-2.0292-0.825-3.6 0-1.575 0.275-2.775 0.825-3.6 0.55416-0.82916 1.3542-1.2437 2.4-1.2438"/>
 </g>
 <g id="g428" transform="translate(-1.075 -6.2537)">
  <path id="rect430" fill="#fff" d="m300 190h20v20h-20z"/>
  <path id="rect432" d="m300 190h20v20h-20z" stroke="#000" stroke-width="2" fill="none"/>
 </g>
 <g id="text434">
  <path id="path3475" style="" d="m308.26 191.55h1.3188v1.5875h-1.3188v-1.5875m0 5.0312h1.3188v1.075l-1.025 2h-0.80625l0.5125-2v-1.075"/>
 </g>
 <g id="g438" transform="translate(-1.075 -6.2537)">
  <path id="rect440" fill="#fff" d="m420 190h20v20h-20z"/>
  <path id="rect442" d="m420 190h20v20h-20z" stroke="#000" stroke-width="2" fill="none"/>
 </g>
 <g id="text444">
  <path id="path3480" style="" d="m428.26 191.55h1.3188v1.5875h-1.3188v-1.5875m0 5.0312h1.3188v1.075l-1.025 2h-0.80625l0.5125-2v-1.075"/>
 </g>
 <g id="text452">
  <path id="path3484" style="" d="m203.72 32.303c0.47916 0.000002 0.84375-0.175 1.0938-0.525 0.25416-0.35 0.38125-0.85833 0.38125-1.525 0-0.66666-0.12709-1.175-0.38125-1.525-0.25-0.34999-0.61459-0.52499-1.0938-0.525-0.47917 0.000006-0.84792 0.17709-1.1062 0.53125-0.25417 0.35-0.38125 0.85625-0.38125 1.5188 0 0.6625 0.12708 1.1708 0.38125 1.525 0.25833 0.35 0.62708 0.525 1.1062 0.525m-1.4875-4.5312c0.30833-0.40833 0.65-0.70833 1.025-0.9 0.375-0.19583 0.80625-0.29374 1.2938-0.29375 0.8625 0.000007 1.5708 0.34376 2.125 1.0312 0.55416 0.68334 0.83124 1.5646 0.83125 2.6438-0.00001 1.0792-0.27709 1.9625-0.83125 2.65-0.55417 0.68333-1.2625 1.025-2.125 1.025-0.4875 0-0.91875-0.09583-1.2938-0.2875-0.375-0.19583-0.71667-0.49792-1.025-0.90625v1.0125h-2.2375v-9.725h2.2375v3.75"/>
  <path id="path3486" style="" d="m216.16 30.228v0.6375h-5.2312c0.0542 0.525 0.24375 0.91875 0.56875 1.1812 0.325 0.2625 0.77917 0.39375 1.3625 0.39375 0.47083 0.000002 0.95208-0.06875 1.4438-0.20625 0.49583-0.14166 1.0042-0.35416 1.525-0.6375v1.725c-0.52917 0.2-1.0583 0.35-1.5875 0.45-0.52917 0.10417-1.0583 0.15625-1.5875 0.15625-1.2667 0-2.2521-0.32083-2.9562-0.9625-0.7-0.64583-1.05-1.55-1.05-2.7125 0-1.1417 0.34375-2.0396 1.0312-2.6938 0.69167-0.65416 1.6417-0.98124 2.85-0.98125 1.1 0.000007 1.9792 0.33126 2.6375 0.99375 0.6625 0.66251 0.99375 1.5479 0.99375 2.6562m-2.3-0.74375c0-0.425-0.125-0.76666-0.375-1.025-0.24584-0.26249-0.56875-0.39374-0.96875-0.39375-0.43333 0.000006-0.78542 0.12292-1.0562 0.36875-0.27083 0.24167-0.43958 0.59167-0.50625 1.05h2.9062"/>
  <path id="path3488" style="" d="m224.34 27.909c0.28333-0.43333 0.61875-0.76249 1.0062-0.9875 0.39166-0.22916 0.82083-0.34374 1.2875-0.34375 0.80416 0.000007 1.4167 0.24792 1.8375 0.74375 0.42082 0.49584 0.63124 1.2167 0.63125 2.1625v4.2625h-2.25v-3.65c0.004-0.05416 0.006-0.11041 0.006-0.16875 0.004-0.05833 0.006-0.14166 0.006-0.25-0.00001-0.49583-0.0729-0.85416-0.21875-1.075-0.14584-0.22499-0.38126-0.33749-0.70625-0.3375-0.42501 0.000006-0.75417 0.17501-0.9875 0.525-0.22917 0.35-0.34792 0.85625-0.35625 1.5188v3.4375h-2.25v-3.65c0-0.775-0.0667-1.2729-0.2-1.4938-0.13334-0.22499-0.37083-0.33749-0.7125-0.3375-0.42917 0.000006-0.76042 0.17709-0.99375 0.53125-0.23333 0.35-0.35 0.85209-0.35 1.5062v3.4438h-2.25v-7h2.25v1.025c0.275-0.39583 0.58958-0.69374 0.94375-0.89375 0.35833-0.19999 0.75208-0.29999 1.1812-0.3 0.48333 0.000007 0.91041 0.11667 1.2812 0.35 0.37083 0.23334 0.65208 0.56042 0.84375 0.98125"/>
  <path id="path3490" style="" d="m238.19 30.228v0.6375h-5.2312c0.0542 0.525 0.24375 0.91875 0.56875 1.1812 0.325 0.2625 0.77917 0.39375 1.3625 0.39375 0.47083 0.000002 0.95208-0.06875 1.4438-0.20625 0.49583-0.14166 1.0042-0.35416 1.525-0.6375v1.725c-0.52917 0.2-1.0583 0.35-1.5875 0.45-0.52917 0.10417-1.0583 0.15625-1.5875 0.15625-1.2667 0-2.2521-0.32083-2.9562-0.9625-0.7-0.64583-1.05-1.55-1.05-2.7125 0-1.1417 0.34375-2.0396 1.0312-2.6938 0.69167-0.65416 1.6417-0.98124 2.85-0.98125 1.1 0.000007 1.9792 0.33126 2.6375 0.99375 0.6625 0.66251 0.99375 1.5479 0.99375 2.6562m-2.3-0.74375c0-0.425-0.125-0.76666-0.375-1.025-0.24583-0.26249-0.56875-0.39374-0.96875-0.39375-0.43333 0.000006-0.78542 0.12292-1.0562 0.36875-0.27083 0.24167-0.43958 0.59167-0.50625 1.05h2.9062"/>
  <path id="path3492" style="" d="m246.91 29.484v4.2625h-2.25v-0.69375-2.5688c0-0.60416-0.0146-1.0208-0.0437-1.25-0.025-0.22916-0.0708-0.39791-0.1375-0.50625-0.0875-0.14583-0.20625-0.25833-0.35625-0.3375-0.15-0.08333-0.32084-0.12499-0.5125-0.125-0.46667 0.000006-0.83333 0.18126-1.1 0.54375-0.26667 0.35834-0.4 0.85625-0.4 1.4938v3.4438h-2.2375v-7h2.2375v1.025c0.3375-0.40833 0.69583-0.70833 1.075-0.9 0.37917-0.19583 0.79791-0.29374 1.2562-0.29375 0.80833 0.000007 1.4208 0.24792 1.8375 0.74375 0.42083 0.49584 0.63125 1.2167 0.63125 2.1625"/>
  <path id="path3494" style="" d="m255.99 30.228v0.6375h-5.2312c0.0542 0.525 0.24375 0.91875 0.56875 1.1812 0.325 0.2625 0.77917 0.39375 1.3625 0.39375 0.47083 0.000002 0.95208-0.06875 1.4438-0.20625 0.49583-0.14166 1.0042-0.35416 1.525-0.6375v1.725c-0.52917 0.2-1.0583 0.35-1.5875 0.45-0.52917 0.10417-1.0583 0.15625-1.5875 0.15625-1.2667 0-2.2521-0.32083-2.9562-0.9625-0.7-0.64583-1.05-1.55-1.05-2.7125 0-1.1417 0.34375-2.0396 1.0312-2.6938 0.69167-0.65416 1.6417-0.98124 2.85-0.98125 1.1 0.000007 1.9792 0.33126 2.6375 0.99375 0.6625 0.66251 0.99375 1.5479 0.99375 2.6562m-2.3-0.74375c0-0.425-0.125-0.76666-0.375-1.025-0.24584-0.26249-0.56875-0.39374-0.96875-0.39375-0.43333 0.000006-0.78542 0.12292-1.0562 0.36875-0.27083 0.24167-0.43958 0.59167-0.50625 1.05h2.9062"/>
  <path id="path3496" style="" d="m260.12 24.759v1.9875h2.3062v1.6h-2.3062v2.9688c-0.00001 0.325 0.0646 0.54584 0.19375 0.6625 0.12916 0.1125 0.38541 0.16875 0.76875 0.16875h1.15v1.6h-1.9188c-0.88334 0-1.5104-0.18333-1.8812-0.55-0.36667-0.37083-0.55001-0.99792-0.55-1.8812v-2.9688h-1.1125v-1.6h1.1125v-1.9875h2.2375"/>
 </g>
 <g id="text456">
  <path id="path3499" style="" d="m200 164.02h2.2375v5.2938l2.575-2.5688h2.6l-3.4188 3.2125 3.6875 3.7875h-2.7125l-2.7312-2.9188v2.9188h-2.2375v-9.725"/>
  <path id="path3501" style="" d="m208.52 166.75h2.2375v7h-2.2375v-7m0-2.725h2.2375v1.825h-2.2375v-1.825"/>
  <path id="path3503" style="" d="m219.41 167.91c0.28333-0.43332 0.61875-0.76249 1.0062-0.9875 0.39166-0.22916 0.82083-0.34374 1.2875-0.34375 0.80416 0.00001 1.4167 0.24793 1.8375 0.74375 0.42083 0.49584 0.63124 1.2167 0.63125 2.1625v4.2625h-2.25v-3.65c0.004-0.0542 0.006-0.11041 0.006-0.16875 0.004-0.0583 0.006-0.14166 0.006-0.25-0.00001-0.49583-0.0729-0.85416-0.21875-1.075-0.14584-0.22499-0.38126-0.33749-0.70625-0.3375-0.425 0.00001-0.75417 0.17501-0.9875 0.525-0.22917 0.35001-0.34792 0.85626-0.35625 1.5188v3.4375h-2.25v-3.65c0-0.77499-0.0667-1.2729-0.2-1.4938-0.13333-0.22499-0.37083-0.33749-0.7125-0.3375-0.42917 0.00001-0.76042 0.17709-0.99375 0.53125-0.23333 0.35001-0.35 0.85209-0.35 1.5062v3.4438h-2.25v-7h2.25v1.025c0.275-0.39582 0.58958-0.69374 0.94375-0.89375 0.35833-0.19999 0.75208-0.29999 1.1812-0.3 0.48333 0.00001 0.91041 0.11668 1.2812 0.35 0.37083 0.23334 0.65208 0.56043 0.84375 0.98125"/>
  <path id="path3505" style="" d="m233.26 170.23v0.6375h-5.2312c0.0542 0.52501 0.24375 0.91876 0.56875 1.1812 0.325 0.2625 0.77917 0.39375 1.3625 0.39375 0.47083 0 0.95208-0.0687 1.4438-0.20625 0.49583-0.14166 1.0042-0.35416 1.525-0.6375v1.725c-0.52917 0.2-1.0583 0.35-1.5875 0.45-0.52917 0.10417-1.0583 0.15625-1.5875 0.15625-1.2667 0-2.2521-0.32083-2.9562-0.9625-0.7-0.64583-1.05-1.55-1.05-2.7125 0-1.1417 0.34375-2.0396 1.0312-2.6938 0.69167-0.65416 1.6417-0.98124 2.85-0.98125 1.1 0.00001 1.9792 0.33126 2.6375 0.99375 0.6625 0.66251 0.99375 1.5479 0.99375 2.6562m-2.3-0.74375c0-0.42499-0.125-0.76666-0.375-1.025-0.24583-0.26249-0.56875-0.39374-0.96875-0.39375-0.43333 0.00001-0.78542 0.12293-1.0562 0.36875-0.27083 0.24167-0.43958 0.59167-0.50625 1.05h2.9062"/>
  <path id="path3507" style="" d="m241.99 169.48v4.2625h-2.25v-0.69375-2.5688c0-0.60416-0.0146-1.0208-0.0438-1.25-0.025-0.22916-0.0708-0.39791-0.1375-0.50625-0.0875-0.14583-0.20625-0.25832-0.35625-0.3375-0.15-0.0833-0.32083-0.12499-0.5125-0.125-0.46667 0.00001-0.83333 0.18126-1.1 0.54375-0.26667 0.35834-0.4 0.85626-0.4 1.4938v3.4438h-2.2375v-7h2.2375v1.025c0.3375-0.40832 0.69583-0.70832 1.075-0.9 0.37917-0.19582 0.79792-0.29374 1.2562-0.29375 0.80833 0.00001 1.4208 0.24793 1.8375 0.74375 0.42083 0.49584 0.63125 1.2167 0.63125 2.1625"/>
  <path id="path3509" style="" d="m251.06 170.23v0.6375h-5.2312c0.0542 0.52501 0.24375 0.91876 0.56875 1.1812 0.325 0.2625 0.77917 0.39375 1.3625 0.39375 0.47083 0 0.95208-0.0687 1.4438-0.20625 0.49583-0.14166 1.0042-0.35416 1.525-0.6375v1.725c-0.52917 0.2-1.0583 0.35-1.5875 0.45-0.52917 0.10417-1.0583 0.15625-1.5875 0.15625-1.2667 0-2.2521-0.32083-2.9562-0.9625-0.7-0.64583-1.05-1.55-1.05-2.7125 0-1.1417 0.34375-2.0396 1.0312-2.6938 0.69167-0.65416 1.6417-0.98124 2.85-0.98125 1.1 0.00001 1.9792 0.33126 2.6375 0.99375 0.6625 0.66251 0.99375 1.5479 0.99375 2.6562m-2.3-0.74375c0-0.42499-0.125-0.76666-0.375-1.025-0.24583-0.26249-0.56875-0.39374-0.96875-0.39375-0.43333 0.00001-0.78542 0.12293-1.0562 0.36875-0.27083 0.24167-0.43958 0.59167-0.50625 1.05h2.9062"/>
  <path id="path3511" style="" d="m255.19 164.76v1.9875h2.3062v1.6h-2.3062v2.9688c0 0.32501 0.0646 0.54584 0.19375 0.6625 0.12917 0.1125 0.38542 0.16875 0.76875 0.16875h1.15v1.6h-1.9188c-0.88333 0-1.5104-0.18333-1.8812-0.55-0.36667-0.37083-0.55-0.99791-0.55-1.8812v-2.9688h-1.1125v-1.6h1.1125v-1.9875h2.2375"/>
 </g>
</svg>
