<?xml version="1.0" encoding="UTF-8" standalone="no"?>
<!-- Created with Inkscape (http://www.inkscape.org/) -->
<svg id="svg2" xmlns:rdf="http://www.w3.org/1999/02/22-rdf-syntax-ns#" xmlns="http://www.w3.org/2000/svg" height="205.89" width="635.94" version="1.1" xmlns:cc="http://creativecommons.org/ns#" xmlns:dc="http://purl.org/dc/elements/1.1/" viewBox="159 58 342.00001 109.43376">
 <metadata id="metadata324">
  <rdf:RDF>
   <cc:Work rdf:about="">
    <dc:format>image/svg+xml</dc:format>
    <dc:type rdf:resource="http://purl.org/dc/dcmitype/StillImage"/>
   </cc:Work>
  </rdf:RDF>
 </metadata>
 <g id="text4">
  <path id="path3141" style="" d="m164.75 57.354v0.95625h-1.1c-0.4125 0.000009-0.7 0.08334-0.8625 0.25-0.15834 0.16668-0.2375 0.46668-0.2375 0.9v0.61875h1.8938v0.89375h-1.8938v6.1062h-1.1562v-6.1062h-1.1v-0.89375h1.1v-0.4875c0-0.77916 0.18125-1.3458 0.54375-1.7 0.3625-0.35832 0.9375-0.53749 1.725-0.5375h1.0875"/>
  <path id="path3143" style="" d="m168.42 60.886c-0.61667 0.000006-1.1042 0.24167-1.4625 0.725-0.35834 0.47917-0.5375 1.1375-0.5375 1.975s0.17708 1.4979 0.53125 1.9812c0.35833 0.47917 0.84791 0.71875 1.4688 0.71875 0.6125 0.000001 1.0979-0.24166 1.4562-0.725 0.35833-0.48333 0.53749-1.1417 0.5375-1.975-0.00001-0.82916-0.17917-1.4854-0.5375-1.9688-0.35834-0.48749-0.84375-0.73124-1.4562-0.73125m0-0.975c1 0.000007 1.7854 0.32501 2.3562 0.975 0.57083 0.65001 0.85624 1.55 0.85625 2.7-0.00001 1.1458-0.28542 2.0458-0.85625 2.7-0.57084 0.65-1.3562 0.975-2.3562 0.975-1.0042 0-1.7917-0.325-2.3625-0.975-0.56667-0.65416-0.85-1.5542-0.85-2.7 0-1.15 0.28333-2.05 0.85-2.7 0.57083-0.64999 1.3583-0.97499 2.3625-0.975"/>
  <path id="path3145" style="" d="m177.59 61.154c-0.12917-0.07499-0.27084-0.12916-0.425-0.1625-0.15-0.03749-0.31667-0.05624-0.5-0.05625-0.65 0.000006-1.15 0.21251-1.5 0.6375-0.34584 0.42084-0.51875 1.0271-0.51875 1.8188v3.6875h-1.1562v-7h1.1562v1.0875c0.24166-0.42499 0.55625-0.73958 0.94375-0.94375 0.3875-0.20833 0.85833-0.31249 1.4125-0.3125 0.0792 0.000007 0.16666 0.0063 0.2625 0.01875 0.0958 0.0083 0.20208 0.02292 0.31875 0.04375l0.006 1.1812"/>
  <path id="path3147" style="" d="m182.64 61.154c-0.12917-0.07499-0.27084-0.12916-0.425-0.1625-0.15-0.03749-0.31667-0.05624-0.5-0.05625-0.65 0.000006-1.15 0.21251-1.5 0.6375-0.34584 0.42084-0.51875 1.0271-0.51875 1.8188v3.6875h-1.1562v-7h1.1562v1.0875c0.24166-0.42499 0.55625-0.73958 0.94375-0.94375 0.3875-0.20833 0.85833-0.31249 1.4125-0.3125 0.0792 0.000007 0.16666 0.0063 0.2625 0.01875 0.0958 0.0083 0.20208 0.02292 0.31875 0.04375l0.006 1.1812"/>
  <path id="path3149" style="" d="m187.04 63.561c-0.92917 0.000004-1.5729 0.10625-1.9312 0.31875-0.35833 0.2125-0.5375 0.575-0.5375 1.0875 0 0.40834 0.13333 0.73334 0.4 0.975 0.27083 0.2375 0.6375 0.35625 1.1 0.35625 0.6375 0.000001 1.1479-0.225 1.5312-0.675 0.3875-0.45416 0.58125-1.0562 0.58125-1.8062v-0.25625h-1.1438m2.2938-0.475v3.9938h-1.15v-1.0625c-0.2625 0.425-0.58959 0.73958-0.98125 0.94375-0.39167 0.2-0.87084 0.3-1.4375 0.3-0.71667 0-1.2875-0.2-1.7125-0.6-0.42083-0.40417-0.63125-0.94375-0.63125-1.6188 0-0.7875 0.2625-1.3812 0.7875-1.7812 0.52917-0.4 1.3167-0.6 2.3625-0.6h1.6125v-0.1125c0-0.52916-0.175-0.93749-0.525-1.225-0.34584-0.29166-0.83334-0.43749-1.4625-0.4375-0.4 0.000006-0.78958 0.04792-1.1688 0.14375-0.37917 0.09584-0.74375 0.23959-1.0938 0.43125v-1.0625c0.42083-0.16249 0.82917-0.28333 1.225-0.3625 0.39583-0.08333 0.78125-0.12499 1.1562-0.125 1.0125 0.000007 1.7688 0.26251 2.2688 0.7875 0.5 0.52501 0.74999 1.3208 0.75 2.3875"/>
  <path id="path3151" style="" d="m196.17 60.286v1.0875c-0.32501-0.16666-0.6625-0.29166-1.0125-0.375-0.35-0.08333-0.7125-0.12499-1.0875-0.125-0.57084 0.000006-1 0.08751-1.2875 0.2625-0.28334 0.17501-0.425 0.43751-0.425 0.7875 0 0.26667 0.10208 0.47709 0.30625 0.63125 0.20416 0.15 0.61458 0.29375 1.2312 0.43125l0.39375 0.0875c0.81666 0.175 1.3958 0.42292 1.7375 0.74375 0.34583 0.31667 0.51874 0.76042 0.51875 1.3312-0.00001 0.65-0.25834 1.1646-0.775 1.5438-0.5125 0.37917-1.2188 0.56875-2.1188 0.56875-0.375 0-0.76667-0.0375-1.175-0.1125-0.40417-0.07083-0.83125-0.17917-1.2812-0.325v-1.1875c0.425 0.22084 0.84375 0.3875 1.2562 0.5 0.4125 0.10833 0.82083 0.1625 1.225 0.1625 0.54166 0.000001 0.95833-0.09167 1.25-0.275 0.29166-0.1875 0.4375-0.45 0.4375-0.7875 0-0.3125-0.10625-0.55208-0.31875-0.71875-0.20834-0.16666-0.66875-0.32708-1.3812-0.48125l-0.4-0.09375c-0.7125-0.15-1.2271-0.37916-1.5438-0.6875-0.31667-0.3125-0.475-0.73958-0.475-1.2812 0-0.65833 0.23333-1.1667 0.7-1.525 0.46666-0.35833 1.1292-0.53749 1.9875-0.5375 0.425 0.000007 0.825 0.03126 1.2 0.09375 0.375 0.06251 0.72083 0.15626 1.0375 0.28125"/>
  <path id="path3153" style="" d="m198.28 57.354h2.65v0.89375h-1.5v9.625h1.5v0.89375h-2.65v-11.412"/>
  <path id="path3155" style="" d="m206.07 57.354v11.412h-2.65v-0.89375h1.4938v-9.625h-1.4938v-0.89375h2.65"/>
 </g>
 <g id="g12" transform="translate(0 -2.9206)">
  <path id="rect14" fill="#fff" d="m200 80h20v20h-20z"/>
  <path id="rect16" d="m200 80h20v20h-20z" stroke="#000" stroke-width="2" fill="none"/>
 </g>
 <g id="g18" transform="translate(0 -2.9206)">
  <path id="rect20" fill="#fff" d="m220 80h20v20h-20z"/>
  <path id="rect22" d="m220 80h20v20h-20z" stroke="#000" stroke-width="2" fill="none"/>
 </g>
 <g id="g24" transform="translate(0 -2.9206)">
  <path id="rect26" fill="#fff" d="m400 80h20v20h-20z"/>
  <path id="rect28" d="m400 80h20v20h-20z" stroke="#000" stroke-width="2" fill="none"/>
 </g>
 <g id="g30" transform="translate(0 -2.9206)">
  <path id="rect32" fill="#fff" d="m420 80h20v20h-20z"/>
  <path id="rect34" d="m420 80h20v20h-20z" stroke="#000" stroke-width="2" fill="none"/>
 </g>
 <g id="g36" transform="translate(0 -2.9206)">
  <path id="rect38" fill="#3a739a" d="m480 80h20v20h-20z"/>
  <path id="rect40" d="m480 80h20v20h-20z" stroke="#000" stroke-width="2" fill="none"/>
 </g>
 <g id="text42">
  <path id="path3169" style="" d="m212.96 87.279v4.225h-1.15v-4.1875c-0.00001-0.6625-0.12917-1.1583-0.3875-1.4875-0.25834-0.32916-0.64584-0.49374-1.1625-0.49375-0.62084 0.000006-1.1104 0.19792-1.4688 0.59375-0.35834 0.39584-0.5375 0.93542-0.5375 1.6188v3.9562h-1.1562v-9.725h1.1562v3.8125c0.275-0.42083 0.59791-0.73541 0.96875-0.94375 0.375-0.20833 0.80625-0.31249 1.2938-0.3125 0.80416 0.000007 1.4125 0.25001 1.825 0.75 0.41249 0.49584 0.61874 1.2271 0.61875 2.1938"/>
 </g>
 <g id="text46">
  <path id="path3172" style="" d="m233.26 87.717v0.5625h-5.2875c0.05 0.79167 0.2875 1.3958 0.7125 1.8125 0.42916 0.4125 1.025 0.61875 1.7875 0.61875 0.44166 0.000001 0.86874-0.05417 1.2812-0.1625 0.41666-0.10833 0.82916-0.27083 1.2375-0.4875v1.0875c-0.41251 0.175-0.83542 0.30833-1.2688 0.4-0.43334 0.09167-0.87292 0.1375-1.3188 0.1375-1.1167 0-2.0021-0.325-2.6562-0.975-0.65-0.65-0.975-1.5292-0.975-2.6375 0-1.1458 0.30833-2.0542 0.925-2.725 0.62083-0.67499 1.4562-1.0125 2.5062-1.0125 0.94166 0.000007 1.6854 0.30417 2.2312 0.9125 0.54999 0.60417 0.82499 1.4271 0.825 2.4688m-1.15-0.3375c-0.008-0.62916-0.18542-1.1312-0.53125-1.5062-0.34167-0.37499-0.79584-0.56249-1.3625-0.5625-0.64167 0.000006-1.1562 0.18126-1.5438 0.54375-0.38334 0.3625-0.60417 0.87292-0.6625 1.5312l4.1-0.0062"/>
 </g>
 <g id="text50">
  <path id="path3175" style="" d="m407.02 88.742v-4.2375h1.15v4.1938c0 0.6625 0.12916 1.1604 0.3875 1.4938 0.25833 0.32917 0.64583 0.49375 1.1625 0.49375 0.62083 0.000001 1.1104-0.19792 1.4688-0.59375 0.36249-0.39583 0.54374-0.93541 0.54375-1.6188v-3.9688h1.15v7h-1.15v-1.075c-0.27917 0.425-0.60417 0.74167-0.975 0.95-0.36667 0.20417-0.79375 0.30625-1.2812 0.30625-0.80417 0-1.4146-0.25-1.8312-0.75-0.41667-0.5-0.625-1.2312-0.625-2.1938m2.8938-4.4062"/>
 </g>
 <g id="text54">
  <path id="path3178" style="" d="m429.04 89.917h1.2688v1.5875h-1.2688v-1.5875m1.2312-0.91875h-1.1938v-0.9625c0-0.42083 0.0583-0.76666 0.175-1.0375 0.11666-0.27083 0.3625-0.58541 0.7375-0.94375l0.5625-0.55625c0.2375-0.22083 0.40833-0.42916 0.5125-0.625 0.10833-0.19583 0.1625-0.39583 0.1625-0.6 0-0.37083-0.1375-0.67082-0.4125-0.9-0.27084-0.22916-0.63125-0.34374-1.0812-0.34375-0.32917 0.000009-0.68125 0.07292-1.0562 0.21875-0.37084 0.14584-0.75833 0.35834-1.1625 0.6375v-1.175c0.39167-0.23749 0.7875-0.41457 1.1875-0.53125 0.40416-0.11666 0.82083-0.17499 1.25-0.175 0.76666 0.00001 1.3812 0.20209 1.8438 0.60625 0.46666 0.40418 0.69999 0.93751 0.7 1.6-0.00001 0.31667-0.075 0.61876-0.225 0.90625-0.15001 0.28334-0.41251 0.60417-0.7875 0.9625l-0.55 0.5375c-0.19584 0.19584-0.33542 0.35-0.41875 0.4625-0.0792 0.10834-0.13542 0.21459-0.16875 0.31875-0.025 0.0875-0.0438 0.19375-0.0563 0.31875s-0.0188 0.29584-0.0188 0.5125v0.76875"/>
 </g>
 <g id="text58">
  <path id="path3181" style="" d="m484.82 82.173 3.25 10.519h-1.0625l-3.25-10.519h1.0625"/>
  <path id="path3183" style="" d="m492.16 83.004c-0.65 0.000009-1.1396 0.32084-1.4688 0.9625-0.325 0.63751-0.4875 1.5979-0.4875 2.8812 0 1.2792 0.1625 2.2396 0.4875 2.8812 0.32916 0.6375 0.81875 0.95625 1.4688 0.95625 0.65416 0.000001 1.1438-0.31875 1.4688-0.95625 0.32916-0.64166 0.49374-1.6021 0.49375-2.8812-0.00001-1.2833-0.16459-2.2437-0.49375-2.8812-0.325-0.64166-0.81459-0.96249-1.4688-0.9625m0-1c1.0458 0.00001 1.8437 0.41459 2.3938 1.2438 0.55416 0.82501 0.83124 2.025 0.83125 3.6-0.00001 1.5708-0.27709 2.7708-0.83125 3.6-0.55001 0.825-1.3479 1.2375-2.3938 1.2375-1.0458 0-1.8458-0.4125-2.4-1.2375-0.55-0.82916-0.825-2.0292-0.825-3.6 0-1.575 0.275-2.775 0.825-3.6 0.55416-0.82916 1.3542-1.2437 2.4-1.2438"/>
 </g>
 <g id="g66" transform="translate(0 -2.9206)">
  <path id="rect68" fill="#fff" d="m240 80h20v20h-20z"/>
  <path id="rect70" d="m240 80h20v20h-20z" stroke="#000" stroke-width="2" fill="none"/>
 </g>
 <g id="text72">
  <path id="path3189" style="" d="m249.43 81.779h1.15v9.725h-1.15v-9.725"/>
 </g>
 <g id="g76" transform="translate(0 -2.9206)">
  <path id="rect78" fill="#fff" d="m260 80h20v20h-20z"/>
  <path id="rect80" d="m260 80h20v20h-20z" stroke="#000" stroke-width="2" fill="none"/>
 </g>
 <g id="text82">
  <path id="path3194" style="" d="m269.43 81.779h1.15v9.725h-1.15v-9.725"/>
 </g>
 <g id="g86" transform="translate(0 -2.9206)">
  <path id="rect88" fill="#fff" d="m280 80h20v20h-20z"/>
  <path id="rect90" d="m280 80h20v20h-20z" stroke="#000" stroke-width="2" fill="none"/>
 </g>
 <g id="text92">
  <path id="path3199" style="" d="m290.01 85.311c-0.61667 0.000006-1.1042 0.24167-1.4625 0.725-0.35834 0.47917-0.5375 1.1375-0.5375 1.975s0.17708 1.4979 0.53125 1.9812c0.35833 0.47917 0.84791 0.71875 1.4688 0.71875 0.6125 0.000001 1.0979-0.24166 1.4562-0.725 0.35833-0.48333 0.53749-1.1417 0.5375-1.975-0.00001-0.82916-0.17917-1.4854-0.5375-1.9688-0.35834-0.48749-0.84375-0.73124-1.4562-0.73125m0-0.975c1 0.000007 1.7854 0.32501 2.3562 0.975 0.57083 0.65001 0.85624 1.55 0.85625 2.7-0.00001 1.1458-0.28542 2.0458-0.85625 2.7-0.57084 0.65-1.3562 0.975-2.3562 0.975-1.0042 0-1.7917-0.325-2.3625-0.975-0.56667-0.65416-0.85-1.5542-0.85-2.7 0-1.15 0.28333-2.05 0.85-2.7 0.57083-0.64999 1.3583-0.97499 2.3625-0.975"/>
 </g>
 <g id="g96" transform="translate(0 -2.9206)">
  <path id="rect98" fill="#fff" d="m300 80h20v20h-20z"/>
  <path id="rect100" d="m300 80h20v20h-20z" stroke="#000" stroke-width="2" fill="none"/>
 </g>
 <g id="g102" transform="translate(0 -2.9206)">
  <path id="rect104" fill="#fff" d="m320 80h20v20h-20z"/>
  <path id="rect106" d="m320 80h20v20h-20z" stroke="#000" stroke-width="2" fill="none"/>
 </g>
 <g id="text108">
  <path id="path3206" style="" d="m309.46 89.917h1.3188v1.075l-1.025 2h-0.80625l0.5125-2v-1.075"/>
 </g>
 <g id="g112" transform="translate(0 -2.9206)">
  <path id="rect114" fill="#fff" d="m340 80h20v20h-20z"/>
  <path id="rect116" d="m340 80h20v20h-20z" stroke="#000" stroke-width="2" fill="none"/>
 </g>
 <g id="text118">
  <path id="path3211" style="" d="m350.42 85.848c0.28749-0.51666 0.63124-0.89791 1.0312-1.1438 0.39999-0.24583 0.87082-0.36874 1.4125-0.36875 0.72916 0.000007 1.2917 0.25626 1.6875 0.76875 0.39582 0.50834 0.59374 1.2333 0.59375 2.175v4.225h-1.1562v-4.1875c-0.00001-0.67083-0.11876-1.1687-0.35625-1.4938-0.23751-0.32499-0.60001-0.48749-1.0875-0.4875-0.59584 0.000006-1.0667 0.19792-1.4125 0.59375-0.34584 0.39584-0.51876 0.93542-0.51875 1.6188v3.9562h-1.1562v-4.1875c-0.00001-0.675-0.11876-1.1729-0.35625-1.4938-0.23751-0.32499-0.60417-0.48749-1.1-0.4875-0.5875 0.000006-1.0542 0.20001-1.4 0.6-0.34584 0.39584-0.51875 0.93334-0.51875 1.6125v3.9562h-1.1562v-7h1.1562v1.0875c0.2625-0.42916 0.57708-0.74583 0.94375-0.95 0.36666-0.20416 0.80208-0.30624 1.3062-0.30625 0.50833 0.000007 0.93958 0.12917 1.2938 0.3875 0.35833 0.25834 0.62291 0.63334 0.79375 1.125"/>
 </g>
 <g id="g122" transform="translate(0 -2.9206)">
  <path id="rect124" fill="#fff" d="m360 80h20v20h-20z"/>
  <path id="rect126" d="m360 80h20v20h-20z" stroke="#000" stroke-width="2" fill="none"/>
 </g>
 <g id="text128">
  <path id="path3216" style="" d="m369.43 84.504h1.15v7h-1.15v-7m0-2.725h1.15v1.4562h-1.15v-1.4562"/>
 </g>
 <g id="g132" transform="translate(0 -2.9206)">
  <path id="rect134" fill="#fff" d="m380 80h20v20h-20z"/>
  <path id="rect136" d="m380 80h20v20h-20z" stroke="#000" stroke-width="2" fill="none"/>
 </g>
 <g id="text138">
  <path id="path3221" style="" d="m387.34 84.504h5.4625v1.05l-4.325 5.0312h4.325v0.91875h-5.6188v-1.05l4.325-5.0312h-4.1688v-0.91875"/>
 </g>
 <g id="g142" transform="translate(0 -2.9206)">
  <path id="rect144" fill="#fff" d="m180 80h20v20h-20z"/>
  <path id="rect146" d="m180 80h20v20h-20z" stroke="#000" stroke-width="2" fill="none"/>
 </g>
 <g id="g148" transform="translate(0 -2.9206)">
  <path id="rect150" fill="#fff" d="m160 80h20v20h-20z"/>
  <path id="rect152" d="m160 80h20v20h-20z" stroke="#000" stroke-width="2" fill="none"/>
 </g>
 <g id="g154" transform="translate(0 -2.9206)">
  <path id="rect156" fill="#fff" d="m440 80h20v20h-20z"/>
  <path id="rect158" d="m440 80h20v20h-20z" stroke="#000" stroke-width="2" fill="none"/>
 </g>
 <g id="g160" transform="translate(0 -2.9206)">
  <path id="rect162" fill="#fff" d="m460 80h20v20h-20z"/>
  <path id="rect164" d="m460 80h20v20h-20z" stroke="#000" stroke-width="2" fill="none"/>
 </g>
 <g id="text166">
  <path id="path3232" style="" d="m161.09 134.32v-4.2375h1.15v4.1938c0 0.6625 0.12916 1.1604 0.3875 1.4938 0.25833 0.32916 0.64583 0.49375 1.1625 0.49375 0.62083 0 1.1104-0.19792 1.4688-0.59375 0.36249-0.39584 0.54374-0.93542 0.54375-1.6188v-3.9688h1.15v7h-1.15v-1.075c-0.27917 0.425-0.60417 0.74166-0.975 0.95-0.36667 0.20416-0.79375 0.30625-1.2812 0.30625-0.80417 0-1.4146-0.25-1.8312-0.75-0.41667-0.5-0.625-1.2312-0.625-2.1938m2.8938-4.4062"/>
  <path id="path3234" style="" d="m169.33 130.08h1.15v7.125c0 0.89166-0.17084 1.5375-0.5125 1.9375-0.3375 0.39999-0.88333 0.59999-1.6375 0.6h-0.4375v-0.975h0.30625c0.4375-0.00001 0.73542-0.10209 0.89375-0.30625 0.15833-0.2 0.2375-0.61875 0.2375-1.2562v-7.125m0-2.725h1.15v1.4562h-1.15v-1.4562"/>
  <path id="path3236" style="" d="m172.78 127.35h2.65v0.89375h-1.5v9.625h1.5v0.89375h-2.65v-11.412"/>
  <path id="path3238" style="" d="m180.57 127.35v11.412h-2.65v-0.89375h1.4938v-9.625h-1.4938v-0.89375h2.65"/>
 </g>
 <g id="g170" transform="translate(0 -2.9206)">
  <path id="rect172" fill="#fff" d="m160 150h20v20h-20z"/>
  <path id="rect174" d="m160 150h20v20h-20z" stroke="#000" stroke-width="2" fill="none"/>
 </g>
 <g id="g176" transform="translate(0 -2.9206)">
  <path id="rect178" fill="#fff" d="m180 150h20v20h-20z"/>
  <path id="rect180" d="m180 150h20v20h-20z" stroke="#000" stroke-width="2" fill="none"/>
 </g>
 <g id="g182" transform="translate(0 -2.9206)">
  <path id="rect184" fill="#fff" d="m360 150h20v20h-20z"/>
  <path id="rect186" d="m360 150h20v20h-20z" stroke="#000" stroke-width="2" fill="none"/>
 </g>
 <g id="g188" transform="translate(0 -2.9206)">
  <path id="rect190" fill="#fff" d="m380 150h20v20h-20z"/>
  <path id="rect192" d="m380 150h20v20h-20z" stroke="#000" stroke-width="2" fill="none"/>
 </g>
 <g id="text194">
  <path id="path3249" style="" d="m172.96 157.28v4.225h-1.15v-4.1875c-0.00001-0.6625-0.12917-1.1583-0.3875-1.4875-0.25834-0.32916-0.64584-0.49374-1.1625-0.49375-0.62084 0.00001-1.1104 0.19792-1.4688 0.59375-0.35834 0.39584-0.5375 0.93542-0.5375 1.6188v3.9562h-1.1562v-9.725h1.1562v3.8125c0.275-0.42083 0.59791-0.73541 0.96875-0.94375 0.375-0.20833 0.80625-0.31249 1.2938-0.3125 0.80416 0.00001 1.4125 0.25001 1.825 0.75 0.41249 0.49584 0.61874 1.2271 0.61875 2.1938"/>
 </g>
 <g id="text198">
  <path id="path3252" style="" d="m193.26 157.72v0.5625h-5.2875c0.05 0.79167 0.2875 1.3958 0.7125 1.8125 0.42916 0.4125 1.025 0.61875 1.7875 0.61875 0.44166 0 0.86874-0.0542 1.2812-0.1625 0.41666-0.10833 0.82916-0.27083 1.2375-0.4875v1.0875c-0.41251 0.175-0.83542 0.30833-1.2688 0.4-0.43334 0.0917-0.87292 0.1375-1.3188 0.1375-1.1167 0-2.0021-0.325-2.6562-0.975-0.65-0.65-0.975-1.5292-0.975-2.6375 0-1.1458 0.30833-2.0542 0.925-2.725 0.62083-0.67499 1.4562-1.0125 2.5062-1.0125 0.94166 0.00001 1.6854 0.30417 2.2312 0.9125 0.54999 0.60417 0.82499 1.4271 0.825 2.4688m-1.15-0.3375c-0.008-0.62916-0.18542-1.1312-0.53125-1.5062-0.34167-0.37499-0.79584-0.56249-1.3625-0.5625-0.64167 0.00001-1.1562 0.18126-1.5438 0.54375-0.38334 0.3625-0.60417 0.87292-0.6625 1.5312l4.1-0.006"/>
 </g>
 <g id="text202">
  <path id="path3255" style="" d="m367.02 158.74v-4.2375h1.15v4.1938c0 0.6625 0.12916 1.1604 0.3875 1.4938 0.25833 0.32917 0.64583 0.49375 1.1625 0.49375 0.62083 0 1.1104-0.19792 1.4688-0.59375 0.36249-0.39583 0.54374-0.93542 0.54375-1.6188v-3.9688h1.15v7h-1.15v-1.075c-0.27917 0.425-0.60417 0.74167-0.975 0.95-0.36667 0.20417-0.79375 0.30625-1.2812 0.30625-0.80417 0-1.4146-0.25-1.8312-0.75-0.41667-0.5-0.625-1.2312-0.625-2.1938m2.8938-4.4062"/>
 </g>
 <g id="text206">
  <path id="path3258" style="" d="m389.04 159.92h1.2688v1.5875h-1.2688v-1.5875m1.2312-0.91875h-1.1938v-0.9625c0-0.42083 0.0583-0.76666 0.175-1.0375 0.11666-0.27083 0.3625-0.58541 0.7375-0.94375l0.5625-0.55625c0.2375-0.22083 0.40833-0.42916 0.5125-0.625 0.10833-0.19583 0.1625-0.39583 0.1625-0.6 0-0.37083-0.1375-0.67083-0.4125-0.9-0.27084-0.22916-0.63125-0.34374-1.0812-0.34375-0.32917 0.00001-0.68125 0.0729-1.0562 0.21875-0.37084 0.14584-0.75833 0.35834-1.1625 0.6375v-1.175c0.39167-0.23749 0.7875-0.41457 1.1875-0.53125 0.40416-0.11666 0.82083-0.17499 1.25-0.175 0.76666 0.00001 1.3812 0.20209 1.8438 0.60625 0.46666 0.40417 0.69999 0.93751 0.7 1.6-0.00001 0.31667-0.075 0.61876-0.225 0.90625-0.15001 0.28334-0.41251 0.60417-0.7875 0.9625l-0.55 0.5375c-0.19584 0.19584-0.33542 0.35-0.41875 0.4625-0.0792 0.10834-0.13542 0.21459-0.16875 0.31875-0.025 0.0875-0.0438 0.19375-0.0563 0.31875s-0.0188 0.29584-0.0188 0.5125v0.76875"/>
 </g>
 <g id="g210" transform="translate(0 -2.9206)">
  <path id="rect212" fill="#fff" d="m200 150h20v20h-20z"/>
  <path id="rect214" d="m200 150h20v20h-20z" stroke="#000" stroke-width="2" fill="none"/>
 </g>
 <g id="text216">
  <path id="path3263" style="" d="m209.43 151.78h1.15v9.725h-1.15v-9.725"/>
 </g>
 <g id="g220" transform="translate(0 -2.9206)">
  <path id="rect222" fill="#fff" d="m220 150h20v20h-20z"/>
  <path id="rect224" d="m220 150h20v20h-20z" stroke="#000" stroke-width="2" fill="none"/>
 </g>
 <g id="text226">
  <path id="path3268" style="" d="m229.43 151.78h1.15v9.725h-1.15v-9.725"/>
 </g>
 <g id="g230" transform="translate(0 -2.9206)">
  <path id="rect232" fill="#fff" d="m240 150h20v20h-20z"/>
  <path id="rect234" d="m240 150h20v20h-20z" stroke="#000" stroke-width="2" fill="none"/>
 </g>
 <g id="text236">
  <path id="path3273" style="" d="m250.01 155.31c-0.61667 0.00001-1.1042 0.24167-1.4625 0.725-0.35834 0.47917-0.5375 1.1375-0.5375 1.975s0.17708 1.4979 0.53125 1.9812c0.35833 0.47917 0.84791 0.71875 1.4688 0.71875 0.6125 0 1.0979-0.24167 1.4562-0.725 0.35833-0.48333 0.53749-1.1417 0.5375-1.975-0.00001-0.82916-0.17917-1.4854-0.5375-1.9688-0.35834-0.48749-0.84375-0.73124-1.4562-0.73125m0-0.975c1 0.00001 1.7854 0.32501 2.3562 0.975 0.57083 0.65 0.85624 1.55 0.85625 2.7-0.00001 1.1458-0.28542 2.0458-0.85625 2.7-0.57084 0.65-1.3562 0.975-2.3562 0.975-1.0042 0-1.7917-0.325-2.3625-0.975-0.56667-0.65417-0.85-1.5542-0.85-2.7 0-1.15 0.28333-2.05 0.85-2.7 0.57083-0.64999 1.3583-0.97499 2.3625-0.975"/>
 </g>
 <g id="g240" transform="translate(0 -2.9206)">
  <path id="rect242" fill="#fff" d="m260 150h20v20h-20z"/>
  <path id="rect244" d="m260 150h20v20h-20z" stroke="#000" stroke-width="2" fill="none"/>
 </g>
 <g id="g246" transform="translate(0 -2.9206)">
  <path id="rect248" fill="#fff" d="m280 150h20v20h-20z"/>
  <path id="rect250" d="m280 150h20v20h-20z" stroke="#000" stroke-width="2" fill="none"/>
 </g>
 <g id="text252">
  <path id="path3280" style="" d="m269.46 159.92h1.3188v1.075l-1.025 2h-0.80625l0.5125-2v-1.075"/>
 </g>
 <g id="g256" transform="translate(0 -2.9206)">
  <path id="rect258" fill="#fff" d="m300 150h20v20h-20z"/>
  <path id="rect260" d="m300 150h20v20h-20z" stroke="#000" stroke-width="2" fill="none"/>
 </g>
 <g id="text262">
  <path id="path3285" style="" d="m310.42 155.85c0.28749-0.51666 0.63124-0.89791 1.0312-1.1438 0.39999-0.24583 0.87082-0.36874 1.4125-0.36875 0.72916 0.00001 1.2917 0.25626 1.6875 0.76875 0.39582 0.50834 0.59374 1.2333 0.59375 2.175v4.225h-1.1562v-4.1875c-0.00001-0.67083-0.11876-1.1688-0.35625-1.4938-0.23751-0.32499-0.60001-0.48749-1.0875-0.4875-0.59584 0.00001-1.0667 0.19792-1.4125 0.59375-0.34584 0.39584-0.51876 0.93542-0.51875 1.6188v3.9562h-1.1562v-4.1875c-0.00001-0.675-0.11876-1.1729-0.35625-1.4938-0.23751-0.32499-0.60417-0.48749-1.1-0.4875-0.5875 0.00001-1.0542 0.20001-1.4 0.6-0.34584 0.39584-0.51875 0.93334-0.51875 1.6125v3.9562h-1.1562v-7h1.1562v1.0875c0.2625-0.42916 0.57708-0.74583 0.94375-0.95 0.36666-0.20416 0.80208-0.30624 1.3062-0.30625 0.50833 0.00001 0.93958 0.12917 1.2938 0.3875 0.35833 0.25834 0.62291 0.63334 0.79375 1.125"/>
 </g>
 <g id="g266" transform="translate(0 -2.9206)">
  <path id="rect268" fill="#fff" d="m320 150h20v20h-20z"/>
  <path id="rect270" d="m320 150h20v20h-20z" stroke="#000" stroke-width="2" fill="none"/>
 </g>
 <g id="text272">
  <path id="path3290" style="" d="m329.43 154.5h1.15v7h-1.15v-7m0-2.725h1.15v1.4562h-1.15v-1.4562"/>
 </g>
 <g id="g276" transform="translate(0 -2.9206)">
  <path id="rect278" fill="#fff" d="m340 150h20v20h-20z"/>
  <path id="rect280" d="m340 150h20v20h-20z" stroke="#000" stroke-width="2" fill="none"/>
 </g>
 <g id="text282">
  <path id="path3295" style="" d="m347.34 154.5h5.4625v1.05l-4.325 5.0312h4.325v0.91875h-5.6188v-1.05l4.325-5.0312h-4.1688v-0.91875"/>
 </g>
 <g id="g286" transform="translate(0 -2.9206)">
  <path id="rect288" fill="#3a739a" d="m400 150h20v20h-20z"/>
  <path id="rect290" d="m400 150h20v20h-20z" stroke="#000" stroke-width="2" fill="none"/>
 </g>
 <g id="text292">
  <path id="path3300" style="" d="m404.82 152.17 3.25 10.519h-1.0625l-3.25-10.519h1.0625"/>
  <path id="path3302" style="" d="m412.16 153c-0.65 0.00001-1.1396 0.32084-1.4688 0.9625-0.325 0.63751-0.4875 1.5979-0.4875 2.8812 0 1.2792 0.1625 2.2396 0.4875 2.8812 0.32916 0.6375 0.81875 0.95625 1.4688 0.95625 0.65416 0 1.1438-0.31875 1.4688-0.95625 0.32916-0.64167 0.49374-1.6021 0.49375-2.8812-0.00001-1.2833-0.16459-2.2437-0.49375-2.8812-0.325-0.64166-0.81459-0.96249-1.4688-0.9625m0-1c1.0458 0.00001 1.8437 0.41459 2.3938 1.2438 0.55416 0.82501 0.83124 2.025 0.83125 3.6-0.00001 1.5708-0.27709 2.7708-0.83125 3.6-0.55001 0.825-1.3479 1.2375-2.3938 1.2375-1.0458 0-1.8458-0.4125-2.4-1.2375-0.55-0.82917-0.825-2.0292-0.825-3.6 0-1.575 0.275-2.775 0.825-3.6 0.55416-0.82916 1.3542-1.2437 2.4-1.2438"/>
 </g>
 <g id="text296">
  <path id="path3305" style="" d="m247.19 127.72v0.5625h-5.2875c0.05 0.79167 0.2875 1.3958 0.7125 1.8125 0.42916 0.4125 1.025 0.61875 1.7875 0.61875 0.44166 0 0.86874-0.0542 1.2812-0.1625 0.41666-0.10833 0.82916-0.27083 1.2375-0.4875v1.0875c-0.41251 0.175-0.83542 0.30833-1.2688 0.4-0.43334 0.0917-0.87292 0.1375-1.3188 0.1375-1.1167 0-2.0021-0.325-2.6562-0.975-0.65-0.65-0.975-1.5292-0.975-2.6375 0-1.1458 0.30833-2.0542 0.925-2.725 0.62083-0.67499 1.4562-1.0125 2.5062-1.0125 0.94166 0.00001 1.6854 0.30417 2.2312 0.9125 0.54999 0.60417 0.82499 1.4271 0.825 2.4688m-1.15-0.3375c-0.008-0.62916-0.18542-1.1312-0.53125-1.5062-0.34167-0.37499-0.79584-0.56249-1.3625-0.5625-0.64167 0.00001-1.1562 0.18126-1.5438 0.54375-0.38334 0.3625-0.60417 0.87292-0.6625 1.5312l4.1-0.006"/>
  <path id="path3307" style="" d="m249.08 121.78h1.15v9.725h-1.15v-9.725"/>
  <path id="path3309" style="" d="m258.62 127.72v0.5625h-5.2875c0.05 0.79167 0.2875 1.3958 0.7125 1.8125 0.42916 0.4125 1.025 0.61875 1.7875 0.61875 0.44166 0 0.86874-0.0542 1.2812-0.1625 0.41666-0.10833 0.82916-0.27083 1.2375-0.4875v1.0875c-0.41251 0.175-0.83542 0.30833-1.2688 0.4-0.43334 0.0917-0.87292 0.1375-1.3188 0.1375-1.1167 0-2.0021-0.325-2.6562-0.975-0.65-0.65-0.975-1.5292-0.975-2.6375 0-1.1458 0.30833-2.0542 0.925-2.725 0.62083-0.67499 1.4562-1.0125 2.5062-1.0125 0.94166 0.00001 1.6854 0.30417 2.2312 0.9125 0.54999 0.60417 0.82499 1.4271 0.825 2.4688m-1.15-0.3375c-0.008-0.62916-0.18542-1.1312-0.53125-1.5062-0.34167-0.37499-0.79584-0.56249-1.3625-0.5625-0.64167 0.00001-1.1562 0.18126-1.5438 0.54375-0.38334 0.3625-0.60417 0.87292-0.6625 1.5312l4.1-0.006"/>
  <path id="path3311" style="" d="m260.51 124.5h1.15v7.125c0 0.89166-0.17084 1.5375-0.5125 1.9375-0.3375 0.4-0.88334 0.6-1.6375 0.6h-0.4375v-0.975h0.30625c0.4375 0 0.73542-0.10209 0.89375-0.30625 0.15833-0.2 0.2375-0.61875 0.2375-1.2562v-7.125m0-2.725h1.15v1.4562h-1.15v-1.4562"/>
  <path id="path3313" style="" d="m270.04 127.72v0.5625h-5.2875c0.05 0.79167 0.2875 1.3958 0.7125 1.8125 0.42916 0.4125 1.025 0.61875 1.7875 0.61875 0.44166 0 0.86875-0.0542 1.2812-0.1625 0.41666-0.10833 0.82916-0.27083 1.2375-0.4875v1.0875c-0.41251 0.175-0.83542 0.30833-1.2688 0.4-0.43334 0.0917-0.87292 0.1375-1.3188 0.1375-1.1167 0-2.0021-0.325-2.6562-0.975-0.65-0.65-0.975-1.5292-0.975-2.6375 0-1.1458 0.30833-2.0542 0.925-2.725 0.62083-0.67499 1.4562-1.0125 2.5062-1.0125 0.94166 0.00001 1.6854 0.30417 2.2312 0.9125 0.54999 0.60417 0.82499 1.4271 0.825 2.4688m-1.15-0.3375c-0.008-0.62916-0.18542-1.1312-0.53125-1.5062-0.34167-0.37499-0.79584-0.56249-1.3625-0.5625-0.64167 0.00001-1.1562 0.18126-1.5438 0.54375-0.38334 0.3625-0.60417 0.87292-0.6625 1.5312l4.1-0.006"/>
 </g>
 <g id="text300">
  <path id="path3316" style="" d="m388.93 124.5h1.2188l2.1875 5.875 2.1875-5.875h1.2188l-2.625 7h-1.5625l-2.625-7"/>
  <path id="path3318" style="" d="m403.32 127.72v0.5625h-5.2875c0.05 0.79167 0.2875 1.3958 0.7125 1.8125 0.42916 0.4125 1.025 0.61875 1.7875 0.61875 0.44166 0 0.86874-0.0542 1.2812-0.1625 0.41666-0.10833 0.82916-0.27083 1.2375-0.4875v1.0875c-0.41251 0.175-0.83542 0.30833-1.2688 0.4-0.43334 0.0917-0.87292 0.1375-1.3188 0.1375-1.1167 0-2.0021-0.325-2.6562-0.975-0.65-0.65-0.975-1.5292-0.975-2.6375 0-1.1458 0.30833-2.0542 0.925-2.725 0.62083-0.67499 1.4562-1.0125 2.5062-1.0125 0.94166 0.00001 1.6854 0.30417 2.2312 0.9125 0.54999 0.60417 0.82499 1.4271 0.825 2.4688m-1.15-0.3375c-0.008-0.62916-0.18542-1.1312-0.53125-1.5062-0.34167-0.37499-0.79584-0.56249-1.3625-0.5625-0.64167 0.00001-1.1562 0.18126-1.5438 0.54375-0.38334 0.3625-0.60417 0.87292-0.6625 1.5312l4.1-0.006"/>
  <path id="path3320" style="" d="m409.81 127.92c-0.00001-0.83333-0.17292-1.4792-0.51875-1.9375-0.34167-0.45833-0.82292-0.68749-1.4438-0.6875-0.61667 0.00001-1.0979 0.22917-1.4438 0.6875-0.34167 0.45834-0.5125 1.1042-0.5125 1.9375 0 0.82917 0.17083 1.4729 0.5125 1.9312 0.34583 0.45833 0.82708 0.6875 1.4438 0.6875 0.62083 0 1.1021-0.22917 1.4438-0.6875 0.34583-0.45833 0.51874-1.1021 0.51875-1.9312m1.15 2.7125c-0.00001 1.1917-0.26459 2.0771-0.79375 2.6562-0.52917 0.58333-1.3396 0.875-2.4312 0.875-0.40417 0-0.78542-0.0312-1.1438-0.0937-0.35834-0.0583-0.70625-0.15-1.0438-0.275v-1.1188c0.3375 0.18333 0.67083 0.31875 1 0.40625 0.32916 0.0875 0.66458 0.13125 1.0062 0.13125 0.75416 0 1.3188-0.19792 1.6938-0.59375 0.37499-0.39167 0.56249-0.98542 0.5625-1.7812v-0.56875c-0.23751 0.4125-0.54167 0.72083-0.9125 0.925-0.37084 0.20417-0.81459 0.30625-1.3312 0.30625-0.85834 0-1.55-0.32708-2.075-0.98125s-0.7875-1.5208-0.7875-2.6c0-1.0833 0.2625-1.9521 0.7875-2.6062 0.525-0.65416 1.2167-0.98124 2.075-0.98125 0.51666 0.00001 0.96041 0.10209 1.3312 0.30625 0.37083 0.20417 0.67499 0.51251 0.9125 0.925v-1.0625h1.15v6.1312"/>
  <path id="path3322" style="" d="m419.32 127.72v0.5625h-5.2875c0.05 0.79167 0.2875 1.3958 0.7125 1.8125 0.42916 0.4125 1.025 0.61875 1.7875 0.61875 0.44166 0 0.86875-0.0542 1.2812-0.1625 0.41666-0.10833 0.82916-0.27083 1.2375-0.4875v1.0875c-0.41251 0.175-0.83542 0.30833-1.2688 0.4-0.43334 0.0917-0.87292 0.1375-1.3188 0.1375-1.1167 0-2.0021-0.325-2.6562-0.975-0.65-0.65-0.975-1.5292-0.975-2.6375 0-1.1458 0.30833-2.0542 0.925-2.725 0.62083-0.67499 1.4562-1.0125 2.5062-1.0125 0.94166 0.00001 1.6854 0.30417 2.2312 0.9125 0.54999 0.60417 0.82499 1.4271 0.825 2.4688m-1.15-0.3375c-0.008-0.62916-0.18542-1.1312-0.53125-1.5062-0.34167-0.37499-0.79584-0.56249-1.3625-0.5625-0.64167 0.00001-1.1562 0.18126-1.5438 0.54375-0.38334 0.3625-0.60417 0.87292-0.6625 1.5312l4.1-0.006"/>
 </g>
 <g id="g304" transform="translate(0 -2.9206)">
  <path id="line306" d="m238.59 128.59-20.29-20.29" stroke="#000" stroke-width="2" fill="none"/>
  <path id="polygon308" d="m218.3 108.3-1.768 5.303-3.536-10.607 10.607 3.536z"/>
  <path id="polygon310" d="m218.3 108.3-1.768 5.303-3.536-10.607 10.607 3.536z" stroke="#000" stroke-width="2" fill="none"/>
 </g>
 <g id="g312" transform="translate(0 -2.9206)">
  <path id="line314" d="m421.41 128.59 20.287-20.287" stroke="#000" stroke-width="2" fill="none"/>
  <path id="polygon316" d="m441.7 108.3-5.303-1.768 10.607-3.536-3.536 10.607z"/>
  <path id="polygon318" d="m441.7 108.3-5.303-1.768 10.607-3.536-3.536 10.607z" stroke="#000" stroke-width="2" fill="none"/>
 </g>
</svg>
