<?xml version="1.0" encoding="UTF-8" standalone="no"?>
<!-- Created with Inkscape (http://www.inkscape.org/) -->
<svg id="svg2" xmlns:rdf="http://www.w3.org/1999/02/22-rdf-syntax-ns#" xmlns="http://www.w3.org/2000/svg" height="310.66" width="237.23" version="1.1" xmlns:cc="http://creativecommons.org/ns#" xmlns:dc="http://purl.org/dc/elements/1.1/" viewBox="118 188 117.64287 159.76399">
 <metadata id="metadata86">
  <rdf:RDF>
   <cc:Work rdf:about="">
    <dc:format>image/svg+xml</dc:format>
    <dc:type rdf:resource="http://purl.org/dc/dcmitype/StillImage"/>
   </cc:Work>
  </rdf:RDF>
 </metadata>
 <path id="line4" d="m236.82 299v-90" stroke="#000" stroke-width="2" fill="none"/>
 <g id="text6">
  <path id="path3023" style="" d="m205.78 289.44h0.91282v5.5562h-0.91282v-5.5562m0-2.163h0.91282v1.1559h-0.91282v-1.1559"/>
  <path id="path3025" style="" d="m212.25 292.16c-0.00001-0.66145-0.13726-1.1741-0.41176-1.5379-0.2712-0.3638-0.6532-0.5457-1.146-0.5457-0.48948 0-0.87147 0.1819-1.146 0.5457-0.2712 0.36381-0.4068 0.87644-0.4068 1.5379 0 0.65816 0.1356 1.1691 0.4068 1.5329 0.2745 0.36381 0.65649 0.54571 1.146 0.54571 0.49278 0 0.87478-0.1819 1.146-0.54571 0.2745-0.3638 0.41175-0.87477 0.41176-1.5329m0.91281 2.153c-0.00001 0.94588-0.21002 1.6487-0.63004 2.1084-0.42003 0.46302-1.0633 0.69453-1.9298 0.69453-0.32081 0-0.62342-0.0248-0.90785-0.0744-0.28443-0.0463-0.56058-0.11907-0.82847-0.21829v-0.888c0.26789 0.14552 0.53247 0.253 0.79375 0.32246 0.26127 0.0695 0.52751 0.10418 0.79871 0.10418 0.59861 0 1.0468-0.1571 1.3444-0.47129 0.29765-0.31089 0.44648-0.78218 0.44649-1.4139v-0.45144c-0.18852 0.32742-0.42996 0.57216-0.7243 0.73421-0.29435 0.16206-0.64658 0.24309-1.0567 0.24309-0.6813 0-1.2303-0.25962-1.647-0.77887-0.41672-0.51924-0.62508-1.2072-0.62508-2.0638 0-0.85989 0.20836-1.5495 0.62508-2.0687 0.41672-0.51924 0.96573-0.77886 1.647-0.77887 0.4101 0.00001 0.76233 0.081 1.0567 0.24309 0.29434 0.16206 0.53578 0.4068 0.7243 0.73422v-0.84336h0.91281v4.8667"/>
  <path id="path3027" style="" d="m217.57 292.21c-0.73753 0.00001-1.2485 0.0843-1.5329 0.25301-0.28443 0.16867-0.42664 0.45641-0.42664 0.8632 0 0.32412 0.10583 0.58209 0.3175 0.77391 0.21497 0.18852 0.50601 0.28277 0.87313 0.28277 0.50601 0 0.91115-0.17859 1.2154-0.53578 0.30758-0.36049 0.46137-0.83839 0.46137-1.4337v-0.2034h-0.90785m1.8207-0.37703v3.17h-0.91281v-0.84336c-0.20836 0.33734-0.46798 0.58705-0.77887 0.7491-0.31088 0.15875-0.69122 0.23813-1.141 0.23813-0.56886 0-1.022-0.15875-1.3593-0.47625-0.33403-0.32081-0.50105-0.7491-0.50105-1.2849 0-0.62507 0.20836-1.0964 0.62508-1.4139 0.42002-0.3175 1.0451-0.47625 1.8752-0.47625h1.2799v-0.0893c0-0.42002-0.13891-0.74414-0.41672-0.97234-0.27451-0.23151-0.66146-0.34726-1.1609-0.34727-0.3175 0.00001-0.62673 0.038-0.92769 0.1141-0.30097 0.0761-0.59035 0.19018-0.86817 0.34231v-0.84336c0.33404-0.12898 0.65815-0.22489 0.97235-0.28774 0.31419-0.0661 0.62011-0.0992 0.91777-0.0992 0.80367 0.00001 1.4039 0.20837 1.8008 0.62508 0.39687 0.41673 0.59531 1.0484 0.59531 1.8951"/>
  <path id="path3029" style="" d="m220.88 289.44h4.3359v0.83344l-3.433 3.9936h3.433v0.72926h-4.4599v-0.83344l3.433-3.9936h-3.3089v-0.72926"/>
 </g>
 <g id="text10">
  <path id="path3032" style="" d="m171.7 331.65v3.3536h-0.91281v-3.3238c0-0.52585-0.10253-0.91942-0.30758-1.1807-0.20505-0.26127-0.51263-0.39191-0.92273-0.39192-0.49279 0.00001-0.8814 0.15711-1.1658 0.47129-0.28443 0.3142-0.42664 0.74249-0.42664 1.2849v3.1403h-0.91777v-7.7192h0.91777v3.0262c0.21828-0.33403 0.47459-0.58373 0.76894-0.7491 0.29766-0.16536 0.63996-0.24804 1.0269-0.24805 0.6383 0.00001 1.1212 0.19845 1.4486 0.59532 0.32742 0.39357 0.49113 0.974 0.49113 1.7413"/>
  <path id="path3034" style="" d="m176.05 332.21c-0.73753 0.00001-1.2485 0.0843-1.5329 0.25301-0.28443 0.16867-0.42664 0.45641-0.42664 0.8632 0 0.32412 0.10583 0.58209 0.3175 0.77391 0.21497 0.18852 0.50601 0.28277 0.87312 0.28277 0.50601 0 0.91116-0.17859 1.2154-0.53578 0.30758-0.36049 0.46136-0.83839 0.46137-1.4337v-0.2034h-0.90785m1.8207-0.37703v3.17h-0.91281v-0.84336c-0.20836 0.33734-0.46799 0.58705-0.77887 0.7491-0.31089 0.15875-0.69122 0.23813-1.141 0.23813-0.56886 0-1.022-0.15875-1.3593-0.47625-0.33404-0.32081-0.50106-0.7491-0.50106-1.2849 0-0.62507 0.20836-1.0964 0.62508-1.4139 0.42003-0.3175 1.0451-0.47625 1.8752-0.47625h1.2799v-0.0893c-0.00001-0.42002-0.13891-0.74414-0.41672-0.97234-0.27451-0.23151-0.66146-0.34726-1.1609-0.34727-0.3175 0.00001-0.62673 0.038-0.92769 0.1141-0.30097 0.0761-0.59036 0.19018-0.86817 0.34231v-0.84336c0.33404-0.12898 0.65815-0.22489 0.97235-0.28774 0.31419-0.0661 0.62011-0.0992 0.91777-0.0992 0.80367 0.00001 1.4039 0.20837 1.8008 0.62508 0.39687 0.41673 0.59531 1.0484 0.59531 1.8951"/>
  <path id="path3036" style="" d="m184.09 330.51c0.22819-0.4101 0.50104-0.71271 0.81855-0.90785 0.31749-0.19512 0.69122-0.29269 1.1212-0.2927 0.57877 0.00001 1.0252 0.20341 1.3395 0.6102 0.31418 0.40349 0.47128 0.97896 0.47128 1.7264v3.3536h-0.91777v-3.3238c-0.00001-0.53247-0.0943-0.92769-0.28277-1.1857-0.18853-0.25797-0.47626-0.38695-0.86321-0.38696-0.47294 0.00001-0.84667 0.15711-1.1212 0.47129-0.27451 0.3142-0.41176 0.74249-0.41176 1.2849v3.1403h-0.91777v-3.3238c0-0.53578-0.0943-0.931-0.28277-1.1857-0.18852-0.25797-0.47956-0.38695-0.87313-0.38696-0.46633 0.00001-0.83674 0.15876-1.1112 0.47625-0.2745 0.3142-0.41176 0.74084-0.41175 1.2799v3.1403h-0.91778v-5.5562h0.91778v0.8632c0.20835-0.34064 0.45805-0.592 0.7491-0.75406 0.29104-0.16205 0.63665-0.24308 1.0368-0.24309 0.40349 0.00001 0.74579 0.10254 1.0269 0.30758 0.28442 0.20506 0.49443 0.50272 0.63004 0.89297"/>
  <path id="path3038" style="" d="m189.66 329.44h0.91281v5.5562h-0.91281v-5.5562m0-2.163h0.91281v1.1559h-0.91281v-1.1559"/>
  <path id="path3040" style="" d="m196.02 329.61v0.8632c-0.25797-0.13228-0.52586-0.2315-0.80367-0.29765-0.27782-0.0661-0.56555-0.0992-0.8632-0.0992-0.45311 0-0.79376 0.0695-1.022 0.20836-0.22489 0.13891-0.33734 0.34727-0.33734 0.62508 0 0.21167 0.081 0.37869 0.24308 0.50105 0.16206 0.11907 0.48783 0.23317 0.97731 0.34231l0.31254 0.0695c0.64822 0.13891 1.1079 0.33569 1.3791 0.59035 0.2745 0.25136 0.41175 0.60358 0.41176 1.0567-0.00001 0.51594-0.20506 0.92439-0.61516 1.2254-0.4068 0.30097-0.96739 0.45145-1.6818 0.45145-0.29766 0-0.60854-0.0298-0.93265-0.0893-0.32081-0.0562-0.65981-0.14221-1.017-0.25797v-0.94258c0.33735 0.17529 0.66973 0.30758 0.99715 0.39688 0.32742 0.086 0.65154 0.12898 0.97235 0.12898 0.42994 0 0.76067-0.0728 0.99218-0.21828 0.23151-0.14883 0.34727-0.35718 0.34727-0.62508 0-0.24804-0.0843-0.43821-0.25301-0.5705-0.16537-0.13229-0.53082-0.25962-1.0964-0.382l-0.3175-0.0744c-0.56554-0.11906-0.97399-0.30096-1.2254-0.5457-0.25135-0.24805-0.37703-0.58704-0.37703-1.017 0-0.52254 0.18521-0.92603 0.55563-1.2105 0.37041-0.28443 0.89627-0.42664 1.5776-0.42665 0.33734 0.00001 0.65484 0.0248 0.9525 0.0744 0.29765 0.0496 0.57215 0.12403 0.82351 0.22324"/>
 </g>
 <g id="g14" transform="translate(-3.1786 -1)">
  <path id="ellipse16" d="m162 210c0 1.1046-0.89543 2-2 2s-2-0.89543-2-2 0.89543-2 2-2 2 0.89543 2 2z"/>
  <path id="ellipse18" d="m162 210c0 1.1046-0.89543 2-2 2s-2-0.89543-2-2 0.89543-2 2-2 2 0.89543 2 2z" stroke="#000" stroke-width="2" fill="none"/>
 </g>
 <g id="g20" transform="translate(-3.1786 -1)">
  <path id="line22" d="m160 190v10.514" stroke="#000" stroke-width="2" fill="none"/>
  <path id="polygon24" d="m160 200.51 3.5-1.75-3.5 7-3.5-7z"/>
  <path id="polygon26" d="m160 200.51 3.5-1.75-3.5 7-3.5-7z" stroke="#000" stroke-width="2" fill="none"/>
 </g>
 <g id="g28" transform="translate(-3.1786 -1)">
  <path id="line30" d="m160 212.99v9.526" stroke="#000" stroke-width="2" fill="none"/>
  <path id="polygon32" d="m160 222.51 3.5-1.75-3.5 7-3.5-7z"/>
  <path id="polygon34" d="m160 222.51 3.5-1.75-3.5 7-3.5-7z" stroke="#000" stroke-width="2" fill="none"/>
 </g>
 <g id="g36" transform="translate(-3.1786 -1)">
  <path id="line38" d="m160 260 0.07 12.514" stroke="#000" stroke-width="2" fill="none"/>
  <path id="polygon40" d="m160.07 272.51 3.49-1.769-3.461 7.019-3.539-6.98z"/>
  <path id="polygon42" d="m160.07 272.51 3.49-1.769-3.461 7.019-3.539-6.98z" stroke="#000" stroke-width="2" fill="none"/>
 </g>
 <path id="line44" d="m197.04 299.06 39.78-0.06" stroke="#000" stroke-width="2" fill="none"/>
 <g id="g46" transform="translate(-3.1786 -1)">
  <path id="line48" d="m240 210h-69.526" stroke="#000" stroke-width="2" fill="none"/>
  <path id="polygon50" d="m170.47 210 1.75 3.5-7-3.5 7-3.5z"/>
  <path id="polygon52" d="m170.47 210 1.75 3.5-7-3.5 7-3.5z" stroke="#000" stroke-width="2" fill="none"/>
 </g>
 <g id="g54" transform="translate(-3.1786 -1)">
  <path id="line56" d="m160.11 320.11-0.083 22.402" stroke="#000" stroke-width="2" fill="none"/>
  <path id="polygon58" d="m160.03 342.51 3.506-1.737-3.526 6.987-3.474-7.013z"/>
  <path id="polygon60" d="m160.03 342.51 3.506-1.737-3.526 6.987-3.474-7.013z" stroke="#000" stroke-width="2" fill="none"/>
 </g>
 <g id="g62" transform="translate(-3.1786 -1)">
  <path id="polygon64" fill="#fff" d="m160.11 320.11-40.11-20.05 40.11-20.06l40.111 20.056z"/>
  <path id="polygon66" d="m160.11 320.11-40.11-20.05 40.11-20.06l40.111 20.056z" stroke="#000" stroke-width="2" fill="none"/>
  <g id="text68">
   <path id="path3063" style="" d="m143.21 295.44v0.75902h-0.87313c-0.32742 0.00001-0.55562 0.0661-0.6846 0.19844-0.12568 0.1323-0.18852 0.37042-0.18852 0.71437v0.49114h1.5032v0.70941h-1.5032v4.8468h-0.91777v-4.8468h-0.87313v-0.70941h0.87313v-0.38696c0-0.61845 0.14386-1.0682 0.4316-1.3494 0.28773-0.28442 0.74414-0.42664 1.3692-0.42664h0.8632"/>
   <path id="path3065" style="" d="m148.73 300.15v0.44648h-4.197c0.0397 0.62839 0.2282 1.108 0.56554 1.4387 0.34065 0.32743 0.8136 0.49114 1.4188 0.49114 0.35057 0 0.68957-0.043 1.017-0.12899 0.33072-0.086 0.65814-0.21497 0.98226-0.38695v0.8632c-0.32743 0.13891-0.66312 0.24474-1.0071 0.3175-0.34396 0.0728-0.69288 0.10914-1.0468 0.10914-0.88635 0-1.5892-0.25797-2.1084-0.7739-0.51593-0.51594-0.7739-1.2138-0.7739-2.0935 0-0.9095 0.24474-1.6305 0.73422-2.163 0.49278-0.53577 1.1559-0.80366 1.9893-0.80367 0.74745 0.00001 1.3378 0.24144 1.7711 0.7243 0.43655 0.47956 0.65484 1.1328 0.65484 1.9596m-0.91281-0.26789c-0.007-0.4994-0.14718-0.89793-0.42168-1.1956-0.2712-0.29765-0.6317-0.44648-1.0815-0.44648-0.50932 0-0.91777 0.14387-1.2254 0.4316-0.30427 0.28774-0.47956 0.69288-0.52586 1.2154l3.2544-0.005"/>
   <path id="path3067" style="" d="m150.22 295.44h0.91282v7.7192h-0.91282v-7.7192"/>
   <path id="path3069" style="" d="m153.94 296.02v1.5776h1.8802v0.70941h-1.8802v3.0162c0 0.4531 0.0612 0.74414 0.18355 0.87312 0.12568 0.12899 0.37868 0.19348 0.75903 0.19348h0.93761v0.76399h-0.93761c-0.70446 0-1.1906-0.13064-1.4585-0.39192-0.26789-0.26458-0.40184-0.74414-0.40184-1.4387v-3.0162h-0.66972v-0.70941h0.66972v-1.5776h0.91778"/>
   <path id="path3071" style="" d="m161.78 300.15v0.44648h-4.197c0.0397 0.62839 0.2282 1.108 0.56554 1.4387 0.34065 0.32743 0.81359 0.49114 1.4188 0.49114 0.35057 0 0.68957-0.043 1.017-0.12899 0.33073-0.086 0.65815-0.21497 0.98227-0.38695v0.8632c-0.32743 0.13891-0.66312 0.24474-1.0071 0.3175-0.34396 0.0728-0.69288 0.10914-1.0468 0.10914-0.88636 0-1.5892-0.25797-2.1084-0.7739-0.51594-0.51594-0.7739-1.2138-0.7739-2.0935 0-0.9095 0.24473-1.6305 0.73421-2.163 0.49279-0.53577 1.1559-0.80366 1.9893-0.80367 0.74744 0.00001 1.3378 0.24144 1.7711 0.7243 0.43655 0.47956 0.65483 1.1328 0.65484 1.9596m-0.91281-0.26789c-0.007-0.4994-0.14718-0.89793-0.42168-1.1956-0.27121-0.29765-0.6317-0.44648-1.0815-0.44648-0.50932 0-0.91777 0.14387-1.2254 0.4316-0.30427 0.28774-0.47956 0.69288-0.52586 1.2154l3.2544-0.005m-0.87809-4.8518h0.98723l-1.6173 1.8653h-0.75902l1.3891-1.8653"/>
   <path id="path3073" style="" d="m164.18 296.02v1.5776h1.8802v0.70941h-1.8802v3.0162c0 0.4531 0.0612 0.74414 0.18356 0.87312 0.12567 0.12899 0.37868 0.19348 0.75902 0.19348h0.93762v0.76399h-0.93762c-0.70446 0-1.1906-0.13064-1.4585-0.39192-0.26789-0.26458-0.40183-0.74414-0.40183-1.4387v-3.0162h-0.66973v-0.70941h0.66973v-1.5776h0.91777"/>
   <path id="path3075" style="" d="m172.02 300.15v0.44648h-4.197c0.0397 0.62839 0.2282 1.108 0.56555 1.4387 0.34065 0.32743 0.81359 0.49114 1.4188 0.49114 0.35057 0 0.68957-0.043 1.017-0.12899 0.33072-0.086 0.65814-0.21497 0.98226-0.38695v0.8632c-0.32742 0.13891-0.66311 0.24474-1.0071 0.3175-0.34396 0.0728-0.69288 0.10914-1.0468 0.10914-0.88635 0-1.5892-0.25797-2.1084-0.7739-0.51594-0.51594-0.77391-1.2138-0.77391-2.0935 0-0.9095 0.24474-1.6305 0.73422-2.163 0.49278-0.53577 1.1559-0.80366 1.9893-0.80367 0.74745 0.00001 1.3378 0.24144 1.7711 0.7243 0.43656 0.47956 0.65484 1.1328 0.65484 1.9596m-0.91281-0.26789c-0.007-0.4994-0.14718-0.89793-0.42168-1.1956-0.2712-0.29765-0.6317-0.44648-1.0815-0.44648-0.50933 0-0.91778 0.14387-1.2254 0.4316-0.30427 0.28774-0.47955 0.69288-0.52585 1.2154l3.2544-0.005"/>
   <path id="path3077" style="" d="m173.52 295.44h0.91282v7.7192h-0.91282v-7.7192"/>
   <path id="path3079" style="" d="m177.32 301.9h1.0071v1.2601h-1.0071v-1.2601m0.97731-0.72926h-0.94754v-0.76398c0-0.33404 0.0463-0.60854 0.13891-0.82352 0.0926-0.21497 0.28773-0.46467 0.58539-0.7491l0.44648-0.44153c0.18851-0.17528 0.32411-0.34064 0.4068-0.49609 0.086-0.15544 0.12898-0.31419 0.12898-0.47625 0-0.29434-0.10914-0.53247-0.32742-0.71437-0.21498-0.1819-0.50106-0.27285-0.85824-0.27286-0.26128 0.00001-0.54075 0.0579-0.8384 0.17364-0.29435 0.11576-0.60193 0.28443-0.92273 0.50601v-0.93265c0.31088-0.18851 0.62507-0.32907 0.94257-0.42168 0.32081-0.0926 0.65154-0.1389 0.99219-0.13891 0.60854 0.00001 1.0964 0.16041 1.4635 0.48121 0.37041 0.32082 0.55562 0.74415 0.55562 1.27 0 0.25136-0.0595 0.49114-0.17859 0.71934-0.11907 0.2249-0.32743 0.47956-0.62508 0.76398l-0.43656 0.42664c-0.15545 0.15545-0.26624 0.27782-0.33238 0.36711-0.0628 0.086-0.10749 0.17033-0.13395 0.25301-0.0198 0.0695-0.0347 0.15379-0.0446 0.25301-0.01 0.0992-0.0149 0.23482-0.0149 0.40679v0.6102"/>
  </g>
 </g>
 <g id="g72" transform="translate(-3.1786 -1)">
  <path id="rect74" fill="#fff" d="m120 230h80v30h-80z"/>
  <path id="rect76" d="m120 230h80v30h-80z" stroke="#000" stroke-width="2" fill="none"/>
  <g id="text78">
   <path id="path3084" style="" d="m139.23 242.76v0.85328c-0.25797-0.14221-0.51759-0.24804-0.77886-0.3175-0.25797-0.0728-0.51925-0.10914-0.78383-0.10914-0.59201 0-1.0517 0.18852-1.3791 0.56554-0.32742 0.37373-0.49114 0.89959-0.49113 1.5776-0.00001 0.678 0.16371 1.2055 0.49113 1.5825 0.32742 0.37373 0.78713 0.56059 1.3791 0.56059 0.26458 0 0.52586-0.0347 0.78383-0.10418 0.26127-0.0728 0.52089-0.18025 0.77886-0.32246v0.84336c-0.25466 0.11906-0.51924 0.20836-0.79374 0.26789-0.27121 0.0595-0.56059 0.0893-0.86817 0.0893-0.83675 0-1.5015-0.26293-1.9943-0.78879-0.49278-0.52585-0.73918-1.2353-0.73918-2.1282 0-0.90619 0.24805-1.6189 0.74415-2.1382 0.49939-0.51924 1.1824-0.77886 2.0489-0.77887 0.28112 0.00001 0.55562 0.0298 0.82352 0.0893 0.26788 0.0562 0.52751 0.14222 0.77886 0.25797"/>
   <path id="path3086" style="" d="m140.83 242.54h0.91281v5.5562h-0.91281v-5.5562m0-2.163h0.91281v1.1559h-0.91281v-1.1559"/>
   <path id="path3088" style="" d="m143.61 240.38h0.91778v4.5591l2.7236-2.3961h1.1658l-2.9468 2.5995 3.0708 2.9567h-1.1906l-2.8228-2.7136v2.7136h-0.91778v-7.7192"/>
   <path id="path3090" style="" d="m149.54 240.38h0.91282v7.7192h-0.91282v-7.7192"/>
   <path id="path3092" style="" d="m152.26 245.91v-3.3635h0.91281v3.3288c0 0.52586 0.10252 0.92108 0.30758 1.1857 0.20505 0.26128 0.51263 0.39191 0.92273 0.39191 0.49279 0 0.88139-0.15709 1.1658-0.47129 0.28773-0.31419 0.4316-0.74248 0.4316-1.2849v-3.1502h0.91282v5.5562h-0.91282v-0.85329c-0.22159 0.33735-0.47956 0.5887-0.7739 0.75407-0.29105 0.16205-0.63004 0.24308-1.017 0.24308-0.63831 0-1.1228-0.19843-1.4536-0.59531-0.33073-0.39687-0.49609-0.9773-0.49609-1.7413m2.2969-3.4975"/>
   <path id="path3094" style="" d="m162.35 242.71v0.8632c-0.25797-0.13229-0.52586-0.23151-0.80367-0.29766-0.27781-0.0661-0.56555-0.0992-0.8632-0.0992-0.4531 0-0.79375 0.0694-1.022 0.20835-0.2249 0.13892-0.33735 0.34727-0.33735 0.62508 0 0.21167 0.081 0.37869 0.24309 0.50106 0.16205 0.11906 0.48782 0.23316 0.9773 0.3423l0.31254 0.0695c0.64823 0.1389 1.1079 0.33569 1.3791 0.59035 0.2745 0.25135 0.41176 0.60358 0.41176 1.0567 0 0.51593-0.20506 0.92439-0.61516 1.2254-0.4068 0.30096-0.96738 0.45144-1.6818 0.45144-0.29766 0-0.60855-0.0298-0.93266-0.0893-0.32081-0.0562-0.65981-0.14222-1.017-0.25797v-0.94258c0.33734 0.17529 0.66972 0.30758 0.99715 0.39687 0.32742 0.086 0.65153 0.12899 0.97234 0.12899 0.42994 0 0.76067-0.0728 0.99219-0.21828 0.2315-0.14883 0.34726-0.35719 0.34726-0.62508 0-0.24805-0.0843-0.43821-0.253-0.57051-0.16537-0.13229-0.53083-0.25962-1.0964-0.38199l-0.3175-0.0744c-0.56555-0.11906-0.974-0.30097-1.2254-0.54571-0.25136-0.24804-0.37704-0.58704-0.37703-1.017-0.00001-0.52255 0.1852-0.92604 0.55562-1.2105 0.37042-0.28442 0.89627-0.42663 1.5776-0.42664 0.33734 0.00001 0.65484 0.0248 0.9525 0.0744 0.29765 0.0496 0.57216 0.12403 0.82351 0.22325"/>
   <path id="path3096" style="" d="m168.43 243.61c0.2282-0.4101 0.50105-0.71272 0.81856-0.90785 0.31749-0.19513 0.69121-0.29269 1.1212-0.2927 0.57877 0.00001 1.0252 0.2034 1.3394 0.6102 0.31419 0.40349 0.47128 0.97896 0.47129 1.7264v3.3536h-0.91777v-3.3238c-0.00001-0.53247-0.0943-0.92769-0.28278-1.1857-0.18852-0.25796-0.47625-0.38694-0.8632-0.38695-0.47295 0.00001-0.84667 0.1571-1.1212 0.47129-0.27451 0.3142-0.41176 0.74249-0.41176 1.2849v3.1403h-0.91777v-3.3238c-0.00001-0.53578-0.0943-0.931-0.28278-1.1857-0.18851-0.25796-0.47956-0.38694-0.87312-0.38695-0.46633 0.00001-0.83675 0.15876-1.1112 0.47625-0.27451 0.3142-0.41176 0.74084-0.41176 1.2799v3.1403h-0.91777v-5.5562h0.91777v0.8632c0.20836-0.34065 0.45806-0.592 0.7491-0.75406 0.29104-0.16205 0.63665-0.24308 1.0368-0.24309 0.40349 0.00001 0.74579 0.10253 1.0269 0.30758 0.28443 0.20506 0.49444 0.50271 0.63004 0.89297"/>
   <path id="path3098" style="" d="m176.53 245.31c-0.73753 0-1.2485 0.0843-1.5329 0.25301-0.28443 0.16867-0.42665 0.4564-0.42664 0.8632-0.00001 0.32412 0.10583 0.58208 0.3175 0.77391 0.21497 0.18851 0.50601 0.28277 0.87312 0.28277 0.50601 0 0.91116-0.17859 1.2154-0.53578 0.30757-0.3605 0.46136-0.8384 0.46137-1.4337v-0.2034h-0.90785m1.8207-0.37703v3.17h-0.91281v-0.84336c-0.20837 0.33734-0.46799 0.58704-0.77887 0.7491-0.31089 0.15875-0.69123 0.23812-1.141 0.23812-0.56885 0-1.022-0.15875-1.3593-0.47625-0.33404-0.3208-0.50106-0.7491-0.50106-1.2849 0-0.62508 0.20836-1.0964 0.62508-1.4139 0.42003-0.31749 1.0451-0.47624 1.8752-0.47625h1.2799v-0.0893c-0.00001-0.42003-0.13891-0.74414-0.41672-0.97235-0.27451-0.2315-0.66146-0.34726-1.1609-0.34726-0.3175 0-0.62674 0.038-0.9277 0.1141s-0.59035 0.19017-0.86816 0.3423v-0.84336c0.33403-0.12897 0.65815-0.22489 0.97234-0.28773 0.31419-0.0661 0.62012-0.0992 0.91778-0.0992 0.80366 0.00001 1.4039 0.20837 1.8008 0.62508 0.39687 0.41672 0.5953 1.0484 0.59531 1.8951"/>
   <path id="path3100" style="" d="m183.89 245.26c0-0.66146-0.13725-1.1741-0.41175-1.5379-0.27121-0.3638-0.6532-0.5457-1.146-0.5457-0.48948 0-0.87147 0.1819-1.146 0.5457-0.2712 0.3638-0.4068 0.87643-0.40679 1.5379-0.00001 0.65815 0.13559 1.1691 0.40679 1.5329 0.27451 0.3638 0.6565 0.5457 1.146 0.5457 0.49278 0 0.87477-0.1819 1.146-0.5457 0.2745-0.3638 0.41175-0.87478 0.41175-1.5329m0.91282 2.153c-0.00001 0.94588-0.21002 1.6487-0.63004 2.1084-0.42003 0.46302-1.0633 0.69453-1.9298 0.69454-0.32081-0.00001-0.62342-0.0248-0.90785-0.0744-0.28443-0.0463-0.56059-0.11906-0.82848-0.21828v-0.88801c0.26789 0.14552 0.53248 0.25301 0.79375 0.32246 0.26128 0.0695 0.52751 0.10418 0.79871 0.10418 0.59862 0 1.0468-0.15709 1.3444-0.47129 0.29765-0.31088 0.44648-0.78217 0.44648-1.4139v-0.45145c-0.18852 0.32742-0.42995 0.57216-0.72429 0.73422-0.29436 0.16206-0.64658 0.24309-1.0567 0.24309-0.68131 0-1.2303-0.25963-1.647-0.77887-0.41672-0.51924-0.62508-1.2072-0.62508-2.0638 0-0.85989 0.20836-1.5495 0.62508-2.0687 0.41671-0.51924 0.96572-0.77886 1.647-0.77887 0.4101 0.00001 0.76232 0.081 1.0567 0.24309 0.29434 0.16206 0.53577 0.4068 0.72429 0.73422v-0.84336h0.91282v4.8667"/>
  </g>
 </g>
</svg>
