<?xml version="1.0" encoding="UTF-8" standalone="no"?>
<!-- Created with Inkscape (http://www.inkscape.org/) -->
<svg id="svg2" xmlns:rdf="http://www.w3.org/1999/02/22-rdf-syntax-ns#" xmlns="http://www.w3.org/2000/svg" height="381.98" width="305.19" version="1.1" xmlns:cc="http://creativecommons.org/ns#" xmlns:dc="http://purl.org/dc/elements/1.1/" viewBox="76 258 159.82286 207.76399">
 <metadata id="metadata186">
  <rdf:RDF>
   <cc:Work rdf:about="">
    <dc:format>image/svg+xml</dc:format>
    <dc:type rdf:resource="http://purl.org/dc/dcmitype/StillImage"/>
   </cc:Work>
  </rdf:RDF>
 </metadata>
 <g id="g4" transform="translate(-4.0886 -1)">
  <path id="line6" d="m160 260v12.244" stroke="#000" stroke-width="2" fill="none"/>
  <path id="polygon8" d="m160 272.24 3.5-1.75-3.5 7-3.5-7z"/>
  <path id="polygon10" d="m160 272.24 3.5-1.75-3.5 7-3.5-7z" stroke="#000" stroke-width="2" fill="none"/>
 </g>
 <g id="g12" transform="translate(-4.0886 -1)">
  <path id="polygon14" fill="#fff" d="m160 320-42-20.134 42-20.135 42 20.135z"/>
  <path id="polygon16" d="m160 320-42-20.134 42-20.135 42 20.135z" stroke="#000" stroke-width="2" fill="none"/>
  <g id="text18">
   <path id="path3077" style="" d="m135.98 295.25h0.91777v4.5591l2.7236-2.3961h1.1658l-2.9468 2.5995 3.0708 2.9567h-1.1906l-2.8228-2.7136v2.7136h-0.91777v-7.7192"/>
   <path id="path3079" style="" d="m141.91 297.41h0.91281v5.5562h-0.91281v-5.5562m0-2.163h0.91281v1.1559h-0.91281v-1.1559"/>
   <path id="path3081" style="" d="m147.54 295.25v0.75902h-0.87313c-0.32742 0.00001-0.55563 0.0661-0.68461 0.19844-0.12568 0.1323-0.18852 0.37042-0.18851 0.71437v0.49114h1.5032v0.70941h-1.5032v4.8468h-0.91778v-4.8468h-0.87312v-0.70941h0.87312v-0.38696c0-0.61845 0.14387-1.0682 0.4316-1.3494 0.28774-0.28442 0.74414-0.42663 1.3692-0.42664h0.86321"/>
   <path id="path3083" style="" d="m153.05 299.96v0.44648h-4.197c0.0397 0.62839 0.22821 1.108 0.56555 1.4387 0.34065 0.32743 0.81359 0.49114 1.4188 0.49114 0.35057 0 0.68956-0.043 1.017-0.12899 0.33073-0.086 0.65815-0.21497 0.98227-0.38695v0.8632c-0.32743 0.13891-0.66312 0.24474-1.0071 0.3175-0.34397 0.0728-0.69289 0.10914-1.0468 0.10914-0.88636 0-1.5892-0.25797-2.1084-0.7739-0.51594-0.51594-0.77391-1.2138-0.77391-2.0935 0-0.9095 0.24474-1.6305 0.73422-2.163 0.49279-0.53577 1.1559-0.80366 1.9893-0.80367 0.74744 0.00001 1.3378 0.24144 1.771 0.7243 0.43656 0.47956 0.65484 1.1328 0.65485 1.9596m-0.91282-0.26789c-0.007-0.4994-0.14717-0.89793-0.42168-1.1956-0.2712-0.29765-0.63169-0.44648-1.0815-0.44648-0.50933 0-0.91778 0.14387-1.2254 0.4316-0.30427 0.28774-0.47956 0.69288-0.52586 1.2154l3.2544-0.005"/>
   <path id="path3085" style="" d="m154.55 297.41h0.91281v5.6555c0 0.70775-0.1356 1.2204-0.4068 1.5379-0.26789 0.31749-0.70114 0.47624-1.2998 0.47625h-0.34727v-0.77391h0.24309c0.34726 0 0.58374-0.081 0.70941-0.24309 0.12568-0.15875 0.18852-0.49113 0.18852-0.99714v-5.6555m0-2.163h0.91281v1.1559h-0.91281v-1.1559"/>
   <path id="path3087" style="" d="m162.12 299.96v0.44648h-4.197c0.0397 0.62839 0.2282 1.108 0.56554 1.4387 0.34065 0.32743 0.8136 0.49114 1.4188 0.49114 0.35057 0 0.68957-0.043 1.017-0.12899 0.33073-0.086 0.65815-0.21497 0.98227-0.38695v0.8632c-0.32743 0.13891-0.66312 0.24474-1.0071 0.3175-0.34396 0.0728-0.69288 0.10914-1.0468 0.10914-0.88635 0-1.5892-0.25797-2.1084-0.7739-0.51593-0.51594-0.7739-1.2138-0.7739-2.0935 0-0.9095 0.24474-1.6305 0.73422-2.163 0.49278-0.53577 1.1559-0.80366 1.9893-0.80367 0.74745 0.00001 1.3378 0.24144 1.7711 0.7243 0.43655 0.47956 0.65484 1.1328 0.65484 1.9596m-0.91281-0.26789c-0.007-0.4994-0.14718-0.89793-0.42168-1.1956-0.2712-0.29765-0.6317-0.44648-1.0815-0.44648-0.50932 0-0.91777 0.14387-1.2254 0.4316-0.30427 0.28774-0.47956 0.69288-0.52586 1.2154l3.2544-0.005"/>
   <path id="path3089" style="" d="m163.22 297.41h4.3359v0.83343l-3.433 3.9936h3.433v0.72926h-4.4599v-0.83344l3.433-3.9936h-3.3089v-0.72925"/>
   <path id="path3091" style="" d="m173.71 299.96v0.44648h-4.197c0.0397 0.62839 0.2282 1.108 0.56554 1.4387 0.34065 0.32743 0.81359 0.49114 1.4188 0.49114 0.35057 0 0.68957-0.043 1.017-0.12899 0.33073-0.086 0.65815-0.21497 0.98227-0.38695v0.8632c-0.32743 0.13891-0.66312 0.24474-1.0071 0.3175-0.34396 0.0728-0.69288 0.10914-1.0468 0.10914-0.88636 0-1.5892-0.25797-2.1084-0.7739-0.51594-0.51594-0.7739-1.2138-0.7739-2.0935 0-0.9095 0.24474-1.6305 0.73422-2.163 0.49278-0.53577 1.1559-0.80366 1.9893-0.80367 0.74745 0.00001 1.3378 0.24144 1.7711 0.7243 0.43655 0.47956 0.65483 1.1328 0.65484 1.9596m-0.91281-0.26789c-0.007-0.4994-0.14718-0.89793-0.42168-1.1956-0.2712-0.29765-0.6317-0.44648-1.0815-0.44648-0.50932 0-0.91777 0.14387-1.2254 0.4316-0.30427 0.28774-0.47956 0.69288-0.52586 1.2154l3.2544-0.005m-0.87809-4.8518h0.98723l-1.6173 1.8653h-0.75902l1.3891-1.8653"/>
   <path id="path3093" style="" d="m178.75 297.57v0.8632c-0.25797-0.13229-0.52586-0.23151-0.80367-0.29766-0.27781-0.0661-0.56555-0.0992-0.8632-0.0992-0.4531 0-0.79375 0.0695-1.022 0.20835-0.2249 0.13892-0.33735 0.34727-0.33735 0.62508 0 0.21167 0.081 0.37869 0.24309 0.50106 0.16205 0.11906 0.48782 0.23317 0.9773 0.3423l0.31254 0.0695c0.64823 0.1389 1.1079 0.33569 1.3791 0.59035 0.2745 0.25135 0.41175 0.60358 0.41176 1.0567-0.00001 0.51594-0.20506 0.92439-0.61516 1.2254-0.4068 0.30096-0.96738 0.45144-1.6818 0.45144-0.29766 0-0.60855-0.0298-0.93266-0.0893-0.32081-0.0562-0.65981-0.14222-1.017-0.25797v-0.94258c0.33734 0.17529 0.66972 0.30758 0.99715 0.39687 0.32742 0.086 0.65153 0.12899 0.97234 0.12899 0.42994 0 0.76067-0.0728 0.99219-0.21828 0.2315-0.14883 0.34726-0.35719 0.34726-0.62508 0-0.24805-0.0843-0.43821-0.25301-0.57051-0.16536-0.13229-0.53082-0.25962-1.0964-0.38199l-0.3175-0.0744c-0.56555-0.11906-0.974-0.30096-1.2254-0.54571-0.25136-0.24804-0.37704-0.58704-0.37704-1.017 0-0.52255 0.18521-0.92604 0.55563-1.2105 0.37041-0.28442 0.89627-0.42663 1.5776-0.42664 0.33734 0.00001 0.65484 0.0248 0.9525 0.0744 0.29765 0.0496 0.57215 0.12402 0.82351 0.22324"/>
   <path id="path3095" style="" d="m181.49 301.7h1.0071v1.2601h-1.0071v-1.2601m0.9773-0.72926h-0.94754v-0.76398c0-0.33404 0.0463-0.60854 0.13891-0.82352 0.0926-0.21497 0.28773-0.46467 0.58539-0.7491l0.44649-0.44152c0.18851-0.17529 0.32411-0.34065 0.40679-0.4961 0.086-0.15544 0.12898-0.31419 0.12899-0.47625-0.00001-0.29434-0.10915-0.53247-0.32743-0.71437-0.21497-0.1819-0.50105-0.27285-0.85824-0.27285-0.26128 0-0.54074 0.0579-0.8384 0.17363-0.29435 0.11576-0.60192 0.28443-0.92273 0.50601v-0.93265c0.31088-0.18851 0.62508-0.32907 0.94258-0.42168 0.3208-0.0926 0.65153-0.1389 0.99219-0.13891 0.60853 0.00001 1.0964 0.16041 1.4635 0.48121 0.37041 0.32082 0.55562 0.74415 0.55563 1.27-0.00001 0.25136-0.0595 0.49114-0.1786 0.71934-0.11906 0.2249-0.32742 0.47956-0.62508 0.76398l-0.43656 0.42664c-0.15544 0.15545-0.26624 0.27782-0.33238 0.36711-0.0628 0.086-0.10749 0.17033-0.13395 0.25301-0.0198 0.0695-0.0347 0.15379-0.0446 0.25301-0.01 0.0992-0.0149 0.23482-0.0149 0.4068v0.61019"/>
  </g>
 </g>
 <g id="g22" transform="translate(-4.0886 -1)">
  <path id="rect24" fill="#fff" d="m134 400h52v22.7h-52z"/>
  <path id="rect26" d="m134 400h52v22.7h-52z" stroke="#000" stroke-width="2" fill="none"/>
  <g id="text28">
   <path id="path3100" style="" d="m141.85 413.61h3.4975v0.84336h-4.703v-0.84336c0.38034-0.39356 0.89793-0.92108 1.5528-1.5825 0.65814-0.66476 1.0716-1.093 1.2402-1.2849 0.3208-0.36049 0.54405-0.66476 0.66973-0.91281 0.12898-0.25135 0.19347-0.49774 0.19347-0.73918 0-0.39356-0.13891-0.71437-0.41672-0.96242-0.2745-0.24804-0.63335-0.37207-1.0765-0.37207-0.31419 0-0.64658 0.0546-0.99715 0.16371-0.34726 0.10914-0.71933 0.27451-1.1162 0.49609v-1.012c0.40349-0.16205 0.78052-0.28442 1.1311-0.36711 0.35057-0.0827 0.67137-0.12402 0.96242-0.12402 0.76729 0 1.3791 0.19183 1.8355 0.57547 0.45641 0.38365 0.68461 0.89628 0.68461 1.5379 0 0.30427-0.0579 0.59366-0.17363 0.86816-0.11245 0.2712-0.31916 0.59201-0.62012 0.96242-0.0827 0.0959-0.34561 0.37373-0.78879 0.83344-0.44318 0.45641-1.0682 1.0964-1.8752 1.9199"/>
   <path id="path3102" style="" d="m147.45 413.19h1.0468v1.2601h-1.0468v-1.2601"/>
   <path id="path3104" style="" d="m157.78 411.68c0-0.67138-0.13891-1.1972-0.41672-1.5776-0.27451-0.38364-0.65319-0.57546-1.136-0.57547-0.48287 0.00001-0.86321 0.19183-1.141 0.57547-0.27451 0.38034-0.41176 0.9062-0.41176 1.5776 0 0.67138 0.13725 1.1989 0.41176 1.5825 0.27781 0.38034 0.65815 0.57051 1.141 0.57051 0.48286 0 0.86154-0.19017 1.136-0.57051 0.27781-0.38365 0.41672-0.91116 0.41672-1.5825m-3.1056-1.9397c0.19182-0.33072 0.43326-0.57546 0.7243-0.73422 0.29435-0.16205 0.64492-0.24308 1.0517-0.24308 0.67468 0 1.222 0.26789 1.6421 0.80367 0.42333 0.53578 0.63499 1.2402 0.635 2.1134-0.00001 0.87313-0.21167 1.5776-0.635 2.1134-0.42003 0.53578-0.96739 0.80367-1.6421 0.80367-0.4068 0-0.75737-0.0794-1.0517-0.23813-0.29104-0.16205-0.53248-0.40845-0.7243-0.73918v0.83344h-0.91777v-7.7192h0.91777v3.0063"/>
   <path id="path3106" style="" d="m160.24 406.73h0.91281v7.7192h-0.91281v-7.7192"/>
   <path id="path3108" style="" d="m165.21 409.53c-0.48949 0.00001-0.87644 0.19183-1.1609 0.57547-0.28443 0.38034-0.42665 0.9029-0.42664 1.5677-0.00001 0.66477 0.14055 1.189 0.42168 1.5726 0.28442 0.38033 0.67303 0.5705 1.1658 0.5705 0.48616 0 0.87146-0.19182 1.1559-0.57547 0.28443-0.38364 0.42664-0.90619 0.42664-1.5676 0-0.65815-0.14221-1.179-0.42664-1.5627-0.28443-0.38695-0.66973-0.58042-1.1559-0.58043m0-0.7739c0.79374 0 1.4172 0.25797 1.8703 0.7739 0.45309 0.51595 0.67964 1.2303 0.67965 2.1431-0.00001 0.90951-0.22656 1.6239-0.67965 2.1431-0.4531 0.51594-1.0765 0.77391-1.8703 0.77391-0.79706 0-1.4221-0.25797-1.8752-0.77391-0.44979-0.51924-0.67469-1.2336-0.67469-2.1431 0-0.91281 0.2249-1.6272 0.67469-2.1431 0.4531-0.51593 1.0782-0.7739 1.8752-0.7739"/>
   <path id="path3110" style="" d="m169.24 406.73h0.91778v4.5591l2.7236-2.3961h1.1658l-2.9468 2.5995 3.0708 2.9567h-1.1906l-2.8228-2.7136v2.7136h-0.91778v-7.7192"/>
   <path id="path3112" style="" d="m175.13 406.73h0.91777v4.5591l2.7236-2.3961h1.1658l-2.9468 2.5995 3.0708 2.9567h-1.1906l-2.8228-2.7136v2.7136h-0.91777v-7.7192"/>
  </g>
 </g>
 <g id="g32" transform="translate(-4.0886 -1)">
  <path id="ellipse34" d="m162 340c0 1.1046-0.89543 2-2 2s-2-0.89543-2-2 0.89543-2 2-2 2 0.89543 2 2z"/>
  <path id="ellipse36" d="m162 340c0 1.1046-0.89543 2-2 2s-2-0.89543-2-2 0.89543-2 2-2 2 0.89543 2 2z" stroke="#000" stroke-width="2" fill="none"/>
 </g>
 <g id="g38" transform="translate(-4.0886 -1)">
  <path id="line40" d="m160 320v10.514" stroke="#000" stroke-width="2" fill="none"/>
  <path id="polygon42" d="m160 330.51 3.5-1.75-3.5 7-3.5-7z"/>
  <path id="polygon44" d="m160 330.51 3.5-1.75-3.5 7-3.5-7z" stroke="#000" stroke-width="2" fill="none"/>
 </g>
 <g id="g46" transform="translate(-4.0886 -1)">
  <path id="ellipse48" fill="#fff" d="m116 372c0 6.6274-5.3726 12-12 12s-12-5.3726-12-12 5.3726-12 12-12 12 5.3726 12 12z"/>
  <path id="ellipse50" d="m116 372c0 6.6274-5.3726 12-12 12s-12-5.3726-12-12 5.3726-12 12-12 12 5.3726 12 12z" stroke="#000" stroke-width="2" fill="none"/>
  <g id="text52">
   <path id="path3122" style="" d="m102.03 374.26h1.6371v-5.6505l-1.781 0.35719v-0.91282l1.771-0.35718h1.0021v6.5633h1.6371v0.84336h-4.2664v-0.84336"/>
  </g>
 </g>
 <g id="g56" transform="translate(-4.0886 -1)">
  <path id="ellipse58" fill="#fff" d="m172 372c0 6.6274-5.3726 12-12 12s-12-5.3726-12-12 5.3726-12 12-12 12 5.3726 12 12z"/>
  <path id="ellipse60" d="m172 372c0 6.6274-5.3726 12-12 12s-12-5.3726-12-12 5.3726-12 12-12 12 5.3726 12 12z" stroke="#000" stroke-width="2" fill="none"/>
  <g id="text62">
   <path id="path3127" style="" d="m158.72 374.26h3.4975v0.84336h-4.703v-0.84336c0.38034-0.39357 0.89793-0.92108 1.5528-1.5825 0.65815-0.66476 1.0716-1.0931 1.2402-1.2849 0.3208-0.36049 0.54404-0.66476 0.66972-0.91281 0.12898-0.25135 0.19348-0.49774 0.19348-0.73918 0-0.39356-0.13891-0.71437-0.41672-0.96242-0.27451-0.24804-0.63335-0.37206-1.0765-0.37207-0.3142 0.00001-0.64658 0.0546-0.99715 0.16371-0.34727 0.10915-0.71934 0.27451-1.1162 0.4961v-1.012c0.40349-0.16205 0.78052-0.28442 1.1311-0.36711 0.35057-0.0827 0.67138-0.12401 0.96242-0.12402 0.76729 0.00001 1.3791 0.19183 1.8356 0.57547 0.4564 0.38365 0.68461 0.89628 0.68461 1.5379 0 0.30428-0.0579 0.59366-0.17363 0.86816-0.11246 0.27121-0.31916 0.59201-0.62012 0.96243-0.0827 0.0959-0.34562 0.37372-0.78879 0.83343-0.44318 0.45641-1.0683 1.0964-1.8752 1.9199"/>
  </g>
 </g>
 <g id="g66" transform="translate(-4.0886 -1)">
  <path id="ellipse68" fill="#fff" d="m228 372c0 6.6274-5.3726 12-12 12s-12-5.3726-12-12 5.3726-12 12-12 12 5.3726 12 12z"/>
  <path id="ellipse70" d="m228 372c0 6.6274-5.3726 12-12 12s-12-5.3726-12-12 5.3726-12 12-12 12 5.3726 12 12z" stroke="#000" stroke-width="2" fill="none"/>
  <g id="text72">
   <path id="path3132" style="" d="m216.89 371.11c0.47955 0.10253 0.85327 0.31585 1.1212 0.63996 0.27119 0.32412 0.40679 0.7243 0.4068 1.2006-0.00001 0.73091-0.25136 1.2965-0.75407 1.6966-0.50271 0.40018-1.2171 0.60027-2.1431 0.60027-0.31089 0-0.6317-0.0314-0.96242-0.0942-0.32743-0.0595-0.66642-0.15049-1.017-0.27286v-0.96738c0.27781 0.16206 0.58208 0.28443 0.91281 0.36711 0.33072 0.0827 0.67634 0.12402 1.0368 0.12402 0.62839 0 1.1063-0.12402 1.4337-0.37207 0.33073-0.24804 0.49609-0.60854 0.4961-1.0815-0.00001-0.43656-0.1538-0.77721-0.46137-1.022-0.30427-0.24805-0.72926-0.37207-1.275-0.37207h-0.8632v-0.82352h0.90289c0.49278 0 0.86981-0.0976 1.1311-0.2927 0.26127-0.19843 0.39191-0.48285 0.39192-0.85328-0.00001-0.38033-0.13561-0.67137-0.4068-0.87312-0.2679-0.20505-0.6532-0.30757-1.1559-0.30758-0.27451 0.00001-0.56886 0.0298-0.88305 0.0893s-0.6598 0.15214-1.0368 0.27781v-0.89297c0.38033-0.10582 0.73587-0.1852 1.0666-0.23812 0.33403-0.0529 0.64823-0.0794 0.94258-0.0794 0.76067 0.00001 1.3626 0.17364 1.8058 0.5209 0.44317 0.34396 0.66476 0.81029 0.66476 1.399 0 0.41011-0.11741 0.75738-0.35222 1.0418-0.23483 0.28112-0.56886 0.47625-1.0021 0.58539"/>
  </g>
 </g>
 <g id="g76" transform="translate(-4.0886 -1)">
  <path id="polyline78" d="m158 340h-54v12.514" stroke="#000" stroke-width="2" fill="none"/>
  <path id="polygon80" d="m104 352.51 3.5-1.75-3.5 7-3.5-7z"/>
  <path id="polygon82" d="m104 352.51 3.5-1.75-3.5 7-3.5-7z" stroke="#000" stroke-width="2" fill="none"/>
 </g>
 <g id="g84" transform="translate(-4.0886 -1)">
  <path id="line86" d="m160 342.99v9.526" stroke="#000" stroke-width="2" fill="none"/>
  <path id="polygon88" d="m160 352.51 3.5-1.75-3.5 7-3.5-7z"/>
  <path id="polygon90" d="m160 352.51 3.5-1.75-3.5 7-3.5-7z" stroke="#000" stroke-width="2" fill="none"/>
 </g>
 <g id="g92" transform="translate(-4.0886 -1)">
  <path id="polyline94" d="m162 340h54v11.506" stroke="#000" stroke-width="2" fill="none"/>
  <path id="polygon96" d="m216 351.51 3.5-1.75-3.5 7-3.5-7z"/>
  <path id="polygon98" d="m216 351.51 3.5-1.75-3.5 7-3.5-7z" stroke="#000" stroke-width="2" fill="none"/>
 </g>
 <g id="g100" transform="translate(-4.0886 -1)">
  <path id="rect102" fill="#fff" d="m78 400h52v22.7h-52z"/>
  <path id="rect104" d="m78 400h52v22.7h-52z" stroke="#000" stroke-width="2" fill="none"/>
  <g id="text106">
   <path id="path3146" style="" d="m85.158 413.61h1.6371v-5.6505l-1.781 0.35718v-0.91281l1.7711-0.35719h1.0021v6.5633h1.6371v0.84336h-4.2664v-0.84336"/>
   <path id="path3148" style="" d="m91.454 413.19h1.0468v1.2601h-1.0468v-1.2601"/>
   <path id="path3150" style="" d="m101.78 411.68c0-0.67138-0.13891-1.1972-0.41672-1.5776-0.27451-0.38364-0.65319-0.57546-1.136-0.57547-0.48287 0.00001-0.86321 0.19183-1.141 0.57547-0.27451 0.38034-0.41176 0.9062-0.41176 1.5776-0.000002 0.67138 0.13725 1.1989 0.41176 1.5825 0.27781 0.38034 0.65815 0.57051 1.141 0.57051 0.48286 0 0.86154-0.19017 1.136-0.57051 0.27781-0.38365 0.41672-0.91116 0.41672-1.5825m-3.1055-1.9397c0.19182-0.33072 0.43325-0.57546 0.7243-0.73422 0.29435-0.16205 0.64492-0.24308 1.0517-0.24308 0.67468 0 1.222 0.26789 1.6421 0.80367 0.42333 0.53578 0.63499 1.2402 0.635 2.1134-0.00001 0.87313-0.21167 1.5776-0.635 2.1134-0.42003 0.53578-0.96739 0.80367-1.6421 0.80367-0.4068 0-0.75737-0.0794-1.0517-0.23813-0.29104-0.16205-0.53248-0.40845-0.7243-0.73918v0.83344h-0.91777v-7.7192h0.91777v3.0063"/>
   <path id="path3152" style="" d="m104.24 406.73h0.91281v7.7192h-0.91281v-7.7192"/>
   <path id="path3154" style="" d="m109.21 409.53c-0.48949 0.00001-0.87644 0.19183-1.1609 0.57547-0.28443 0.38034-0.42665 0.9029-0.42664 1.5677-0.00001 0.66477 0.14055 1.189 0.42168 1.5726 0.28442 0.38033 0.67303 0.5705 1.1658 0.5705 0.48616 0 0.87146-0.19182 1.1559-0.57547 0.28443-0.38364 0.42664-0.90619 0.42664-1.5676 0-0.65815-0.14221-1.179-0.42664-1.5627-0.28443-0.38695-0.66973-0.58042-1.1559-0.58043m0-0.7739c0.79374 0 1.4172 0.25797 1.8703 0.7739 0.45309 0.51595 0.67964 1.2303 0.67965 2.1431-0.00001 0.90951-0.22656 1.6239-0.67965 2.1431-0.4531 0.51594-1.0765 0.77391-1.8703 0.77391-0.79706 0-1.4221-0.25797-1.8752-0.77391-0.44979-0.51924-0.67469-1.2336-0.67469-2.1431 0-0.91281 0.2249-1.6272 0.67469-2.1431 0.4531-0.51593 1.0782-0.7739 1.8752-0.7739"/>
   <path id="path3156" style="" d="m113.24 406.73h0.91778v4.5591l2.7236-2.3961h1.1658l-2.9468 2.5995 3.0708 2.9567h-1.1906l-2.8228-2.7136v2.7136h-0.91778v-7.7192"/>
   <path id="path3158" style="" d="m119.13 406.73h0.91777v4.5591l2.7236-2.3961h1.1658l-2.9468 2.5995 3.0708 2.9567h-1.1906l-2.8228-2.7136v2.7136h-0.91777v-7.7192"/>
  </g>
 </g>
 <g id="g110" transform="translate(-4.0886 -1)">
  <path id="rect112" fill="#fff" d="m190 400h52v22.7h-52z"/>
  <path id="rect114" d="m190 400h52v22.7h-52z" stroke="#000" stroke-width="2" fill="none"/>
  <g id="text116">
   <path id="path3163" style="" d="m200.02 410.46c0.47955 0.10253 0.85328 0.31585 1.1212 0.63996 0.27119 0.32412 0.40679 0.7243 0.4068 1.2006-0.00001 0.73091-0.25136 1.2964-0.75406 1.6966-0.50272 0.40018-1.2171 0.60027-2.1431 0.60027-0.31089 0-0.63169-0.0314-0.96242-0.0943-0.32742-0.0595-0.66642-0.15048-1.017-0.27285v-0.96738c0.27781 0.16206 0.58208 0.28443 0.91281 0.36711 0.33073 0.0827 0.67634 0.12402 1.0368 0.12402 0.62838 0 1.1063-0.12402 1.4337-0.37207 0.33072-0.24805 0.49609-0.60854 0.49609-1.0815 0-0.43656-0.15379-0.77722-0.46137-1.022-0.30427-0.24804-0.72926-0.37206-1.275-0.37207h-0.8632v-0.82351h0.90289c0.49278 0 0.86981-0.0976 1.1311-0.2927 0.26128-0.19843 0.39191-0.48286 0.39192-0.85328-0.00001-0.38033-0.13561-0.67137-0.4068-0.87313-0.26789-0.20504-0.65319-0.30757-1.1559-0.30757-0.27451 0-0.56885 0.0298-0.88304 0.0893-0.3142 0.0595-0.65981 0.15215-1.0368 0.27782v-0.89297c0.38034-0.10583 0.73587-0.1852 1.0666-0.23813 0.33404-0.0529 0.64823-0.0794 0.94258-0.0794 0.76067 0 1.3626 0.17364 1.8058 0.5209 0.44317 0.34396 0.66476 0.81029 0.66477 1.399-0.00001 0.41011-0.11742 0.75737-0.35223 1.0418-0.23482 0.28112-0.56886 0.47625-1.0021 0.58539"/>
   <path id="path3165" style="" d="m203.45 413.19h1.0468v1.2601h-1.0468v-1.2601"/>
   <path id="path3167" style="" d="m213.78 411.68c0-0.67138-0.13891-1.1972-0.41672-1.5776-0.27451-0.38364-0.65319-0.57546-1.136-0.57547-0.48287 0.00001-0.86321 0.19183-1.141 0.57547-0.27451 0.38034-0.41176 0.9062-0.41176 1.5776 0 0.67138 0.13725 1.1989 0.41176 1.5825 0.27781 0.38034 0.65815 0.57051 1.141 0.57051 0.48286 0 0.86154-0.19017 1.136-0.57051 0.27781-0.38365 0.41672-0.91116 0.41672-1.5825m-3.1056-1.9397c0.19182-0.33072 0.43326-0.57546 0.7243-0.73422 0.29435-0.16205 0.64492-0.24308 1.0517-0.24308 0.67468 0 1.222 0.26789 1.6421 0.80367 0.42333 0.53578 0.63499 1.2402 0.635 2.1134-0.00001 0.87313-0.21167 1.5776-0.635 2.1134-0.42003 0.53578-0.96739 0.80367-1.6421 0.80367-0.4068 0-0.75737-0.0794-1.0517-0.23813-0.29104-0.16205-0.53248-0.40845-0.7243-0.73918v0.83344h-0.91777v-7.7192h0.91777v3.0063"/>
   <path id="path3169" style="" d="m216.24 406.73h0.91281v7.7192h-0.91281v-7.7192"/>
   <path id="path3171" style="" d="m221.21 409.53c-0.48949 0.00001-0.87644 0.19183-1.1609 0.57547-0.28443 0.38034-0.42665 0.9029-0.42664 1.5677-0.00001 0.66477 0.14055 1.189 0.42168 1.5726 0.28442 0.38033 0.67303 0.5705 1.1658 0.5705 0.48616 0 0.87146-0.19182 1.1559-0.57547 0.28443-0.38364 0.42664-0.90619 0.42664-1.5676 0-0.65815-0.14221-1.179-0.42664-1.5627-0.28443-0.38695-0.66973-0.58042-1.1559-0.58043m0-0.7739c0.79374 0 1.4172 0.25797 1.8703 0.7739 0.45309 0.51595 0.67964 1.2303 0.67965 2.1431-0.00001 0.90951-0.22656 1.6239-0.67965 2.1431-0.4531 0.51594-1.0765 0.77391-1.8703 0.77391-0.79706 0-1.4221-0.25797-1.8752-0.77391-0.44979-0.51924-0.67469-1.2336-0.67469-2.1431 0-0.91281 0.2249-1.6272 0.67469-2.1431 0.4531-0.51593 1.0782-0.7739 1.8752-0.7739"/>
   <path id="path3173" style="" d="m225.24 406.73h0.91778v4.5591l2.7236-2.3961h1.1658l-2.9468 2.5995 3.0708 2.9567h-1.1906l-2.8228-2.7136v2.7136h-0.91778v-7.7192"/>
   <path id="path3175" style="" d="m231.13 406.73h0.91777v4.5591l2.7236-2.3961h1.1658l-2.9468 2.5995 3.0708 2.9567h-1.1906l-2.8228-2.7136v2.7136h-0.91777v-7.7192"/>
  </g>
 </g>
 <g id="g120" transform="translate(-4.0886 -1)">
  <path id="line122" d="m104 384v8.514" stroke="#000" stroke-width="2" fill="none"/>
  <path id="polygon124" d="m104 392.51 3.5-1.75-3.5 7-3.5-7z"/>
  <path id="polygon126" d="m104 392.51 3.5-1.75-3.5 7-3.5-7z" stroke="#000" stroke-width="2" fill="none"/>
 </g>
 <g id="g128" transform="translate(-4.0886 -1)">
  <path id="line130" d="m160 384v8.514" stroke="#000" stroke-width="2" fill="none"/>
  <path id="polygon132" d="m160 392.51 3.5-1.75-3.5 7-3.5-7z"/>
  <path id="polygon134" d="m160 392.51 3.5-1.75-3.5 7-3.5-7z" stroke="#000" stroke-width="2" fill="none"/>
 </g>
 <g id="g136" transform="translate(-4.0886 -1)">
  <path id="line138" d="m216 384v8.514" stroke="#000" stroke-width="2" fill="none"/>
  <path id="polygon140" d="m216 392.51 3.5-1.75-3.5 7-3.5-7z"/>
  <path id="polygon142" d="m216 392.51 3.5-1.75-3.5 7-3.5-7z" stroke="#000" stroke-width="2" fill="none"/>
 </g>
 <g id="g144" transform="translate(-4.0886 -1)">
  <path id="ellipse146" d="m162 444c0 1.1046-0.89543 2-2 2s-2-0.89543-2-2 0.89543-2 2-2 2 0.89543 2 2z"/>
  <path id="ellipse148" d="m162 444c0 1.1046-0.89543 2-2 2s-2-0.89543-2-2 0.89543-2 2-2 2 0.89543 2 2z" stroke="#000" stroke-width="2" fill="none"/>
 </g>
 <g id="g150" transform="translate(-4.0886 -1)">
  <path id="polyline152" d="m104 422.7v21.3h46.514" stroke="#000" stroke-width="2" fill="none"/>
  <path id="polygon154" d="m150.51 444-1.75-3.5 7 3.5-7 3.5z"/>
  <path id="polygon156" d="m150.51 444-1.75-3.5 7 3.5-7 3.5z" stroke="#000" stroke-width="2" fill="none"/>
 </g>
 <g id="g158" transform="translate(-4.0886 -1)">
  <path id="line160" d="m160 422.7v11.814" stroke="#000" stroke-width="2" fill="none"/>
  <path id="polygon162" d="m160 434.51 3.5-1.75-3.5 7-3.5-7z"/>
  <path id="polygon164" d="m160 434.51 3.5-1.75-3.5 7-3.5-7z" stroke="#000" stroke-width="2" fill="none"/>
 </g>
 <g id="g166" transform="translate(-4.0886 -1)">
  <path id="polyline168" d="m216 422.7v21.3h-46.514" stroke="#000" stroke-width="2" fill="none"/>
  <path id="polygon170" d="m169.49 444 1.75 3.5-7-3.5 7-3.5z"/>
  <path id="polygon172" d="m169.49 444 1.75 3.5-7-3.5 7-3.5z" stroke="#000" stroke-width="2" fill="none"/>
 </g>
 <g id="g174" transform="translate(-4.0886 -1)">
  <path id="line176" d="m160 446v14.514" stroke="#000" stroke-width="2" fill="none"/>
  <path id="polygon178" d="m160 460.51 3.5-1.75-3.5 7-3.5-7z"/>
  <path id="polygon180" d="m160 460.51 3.5-1.75-3.5 7-3.5-7z" stroke="#000" stroke-width="2" fill="none"/>
 </g>
</svg>
