<?xml version="1.0" encoding="UTF-8" standalone="no"?>
<!-- Created with Inkscape (http://www.inkscape.org/) -->
<svg xmlns:dc="http://purl.org/dc/elements/1.1/" xmlns:cc="http://web.resource.org/cc/" xmlns:rdf="http://www.w3.org/1999/02/22-rdf-syntax-ns#" xmlns:svg="http://www.w3.org/2000/svg" xmlns="http://www.w3.org/2000/svg" xmlns:sodipodi="http://sodipodi.sourceforge.net/DTD/sodipodi-0.dtd" xmlns:inkscape="http://www.inkscape.org/namespaces/inkscape" width="617.66962" height="569.05945" id="svg1306" sodipodi:version="0.32" inkscape:version="0.44.1" sodipodi:docbase="C:\Documents and Settings\ryan\Desktop" sodipodi:docname="Machovka_Bookcase.svg" version="1.0">
  <defs id="defs1308"/>
  <sodipodi:namedview inkscape:document-units="mm" pagecolor="#ffffff" bordercolor="#666666" borderopacity="1.0" inkscape:pageopacity="0.0" inkscape:pageshadow="2" inkscape:zoom="0.68674075" inkscape:cx="526.18109" inkscape:cy="372.04724" inkscape:current-layer="layer1" id="namedview1310" inkscape:window-width="1024" inkscape:window-height="710" inkscape:window-x="0" inkscape:window-y="0"/>
  <metadata id="metadata1312">
    <rdf:RDF>
      <cc:Work rdf:about="">
        <dc:format>image/svg+xml</dc:format>
        <dc:type rdf:resource="http://purl.org/dc/dcmitype/StillImage"/>
        <dc:title>knihovna</dc:title>
        <dc:creator>
          <cc:Agent>
            <dc:title>Radek Masar</dc:title>
          </cc:Agent>
        </dc:creator>
        <dc:publisher>
          <cc:Agent>
            <dc:title>ZS a MS Machovo nam.</dc:title>
          </cc:Agent>
        </dc:publisher>
        <dc:subject>
          <rdf:Bag>
            <rdf:li>knihovna</rdf:li>
            <rdf:li>library</rdf:li>
          </rdf:Bag>
        </dc:subject>
        <dc:language>CZ</dc:language>
        <cc:license rdf:resource="http://web.resource.org/cc/PublicDomain"/>
      </cc:Work>
      <cc:License rdf:about="http://web.resource.org/cc/PublicDomain">
        <cc:permits rdf:resource="http://web.resource.org/cc/Reproduction"/>
        <cc:permits rdf:resource="http://web.resource.org/cc/Distribution"/>
        <cc:permits rdf:resource="http://web.resource.org/cc/DerivativeWorks"/>
      </cc:License>
    </rdf:RDF>
  </metadata>
  <g inkscape:label="Layer 1" inkscape:groupmode="layer" id="layer1" transform="translate(-224.8897,-56.05151)">
    <g id="g2001" inkscape:export-filename="/home/lamatin/Projekt_Kliparty/hotove/DETI/radek masar/knihovna.png" inkscape:export-xdpi="90" inkscape:export-ydpi="90">
      <path sodipodi:nodetypes="ccccc" id="rect1317" d="M 225.56651,123.78652 L 244.82219,123.78652 L 244.82219,624.4342 L 225.56651,624.4342 L 225.56651,123.78652 z " style="fill:#cd9034;fill-opacity:1;fill-rule:nonzero;stroke:black;stroke-width:1.35354328;stroke-miterlimit:4;stroke-dasharray:none;stroke-opacity:1"/>
      <path sodipodi:nodetypes="ccccc" id="path2193" d="M 246.59151,123.34419 L 318.44493,64.173092 L 318.44493,564.82077 L 246.59151,623.99187 L 246.59151,123.34419 z " style="fill:#cd9034;fill-opacity:1;fill-rule:nonzero;stroke:black;stroke-width:1.35354328;stroke-miterlimit:4;stroke-dasharray:none;stroke-opacity:1"/>
      <path sodipodi:nodetypes="ccccc" id="rect2196" d="M 296.53592,65.327956 L 318.13055,64.644067 L 247.5069,122.96281 L 226.32413,123.02891 L 296.53592,65.327956 z " style="fill:#cd9034;fill-opacity:1;fill-rule:nonzero;stroke:black;stroke-width:1.35354328;stroke-miterlimit:4;stroke-dasharray:none;stroke-opacity:1"/>
      <g transform="matrix(1.607979e-3,-0.688008,-0.999998,-1.106304e-3,751.5765,707.0311)" id="g2218" style="stroke:black;stroke-width:1.63183141;stroke-miterlimit:4;stroke-dasharray:none;stroke-opacity:1">
        <path style="fill:#cd9034;fill-opacity:1;fill-rule:nonzero;stroke:black;stroke-width:1.63183141;stroke-miterlimit:4;stroke-dasharray:none;stroke-opacity:1" d="M 756.318,-74.915199 L 765.90693,-68.741351 L 677.26698,4.6779081 L 656.08421,4.7440081 L 756.318,-74.915199 z " id="path2220" sodipodi:nodetypes="ccccc"/>
        <path style="fill:#cd9034;fill-opacity:1;fill-rule:nonzero;stroke:black;stroke-width:1.63183141;stroke-miterlimit:4;stroke-dasharray:none;stroke-opacity:1" d="M 677.73806,-0.44232636 L 771.59494,-67.830491 L 759.59365,436.92411 L 677.727,507.08238 L 677.73806,-0.44232636 z " id="path2222" sodipodi:nodetypes="ccccc"/>
        <path style="fill:#cd9034;fill-opacity:1;fill-rule:nonzero;stroke:black;stroke-width:1.63183141;stroke-miterlimit:4;stroke-dasharray:none;stroke-opacity:1" d="M 664.70507,2.763672 L 683.95411,6.8898861 L 675.95768,507.52471 L 656.702,507.52471 L 664.70507,2.763672 z " id="path2224" sodipodi:nodetypes="ccccc"/>
      </g>
      <g transform="matrix(1.192044,0.101965,-0.134218,1.569104,436.4382,-161.4788)" id="g4986">
        <path style="fill:#344ccd;fill-opacity:1;fill-rule:nonzero;stroke:black;stroke-width:1.35354328;stroke-miterlimit:4;stroke-opacity:1" d="M 259.0466,182.22474 L 296.18255,153.34122 L 297.55796,205.60664 L 259.36438,233.11475 L 259.0466,182.22474 z " id="path4988" sodipodi:nodetypes="ccccc"/>
        <path style="fill:#344ccd;fill-opacity:1;fill-rule:nonzero;stroke:black;stroke-width:1.35354328;stroke-miterlimit:4;stroke-opacity:1" d="M 269.57952,184.30436 L 306.71547,155.42084 L 305.34007,203.56004 L 269.8973,235.19437 L 269.57952,184.30436 z " id="path4990" sodipodi:nodetypes="ccccc"/>
        <path style="fill:#344ccd;fill-opacity:1;fill-rule:evenodd;stroke:black;stroke-width:1.01462853px;stroke-linecap:butt;stroke-linejoin:miter;stroke-opacity:1" d="M 269.01258,184.6687 L 264.5889,184.8964 L 261.71352,184.2133 L 259.72287,182.84709 L 259.72287,234.53546 L 262.15589,235.44626 L 264.14654,235.90167 L 266.35837,235.90167 L 267.68547,235.90167 L 269.45494,235.44626 L 269.01258,184.6687 z " id="path4992"/>
        <path style="fill:white;fill-opacity:1;fill-rule:nonzero;stroke:black;stroke-width:1.35354328;stroke-miterlimit:4;stroke-opacity:1" d="M 294.22749,155.18442 L 305.06548,156.7327 L 269.45493,184.15946 L 259.50167,182.38999 L 294.22749,155.18442 z " id="path4994" sodipodi:nodetypes="ccccc"/>
      </g>
      <g transform="matrix(1.607979e-3,-0.688008,-0.999998,-1.106304e-3,753.9674,587.6461)" id="g2210" style="stroke:black;stroke-width:1.63183141;stroke-miterlimit:4;stroke-dasharray:none;stroke-opacity:1">
        <path style="fill:#cd9034;fill-opacity:1;fill-rule:nonzero;stroke:black;stroke-width:1.63183141;stroke-miterlimit:4;stroke-dasharray:none;stroke-opacity:1" d="M 756.318,-74.915199 L 765.90693,-68.741351 L 677.26698,4.6779081 L 656.08421,4.7440081 L 756.318,-74.915199 z " id="path2216" sodipodi:nodetypes="ccccc"/>
        <path style="fill:#cd9034;fill-opacity:1;fill-rule:nonzero;stroke:black;stroke-width:1.63183141;stroke-miterlimit:4;stroke-dasharray:none;stroke-opacity:1" d="M 677.73806,-0.44232636 L 771.59494,-67.830491 L 759.59365,436.92411 L 677.727,507.08238 L 677.73806,-0.44232636 z " id="path2214" sodipodi:nodetypes="ccccc"/>
        <path style="fill:#cd9034;fill-opacity:1;fill-rule:nonzero;stroke:black;stroke-width:1.63183141;stroke-miterlimit:4;stroke-dasharray:none;stroke-opacity:1" d="M 664.70507,2.763672 L 683.95411,6.8898861 L 675.95768,507.52471 L 656.702,507.52471 L 664.70507,2.763672 z " id="path2212" sodipodi:nodetypes="ccccc"/>
      </g>
      <g transform="matrix(7.947147e-3,-0.687964,-0.999945,-1.032014e-2,751.1687,945.5628)" id="g2226" style="stroke:black;stroke-width:1.63183165;stroke-miterlimit:4;stroke-dasharray:none;stroke-opacity:1">
        <path style="fill:#cd9034;fill-opacity:1;fill-rule:nonzero;stroke:black;stroke-width:1.63183165;stroke-miterlimit:4;stroke-dasharray:none;stroke-opacity:1" d="M 756.318,-74.915199 L 765.90693,-68.741351 L 677.26698,4.6779081 L 656.08421,4.7440081 L 756.318,-74.915199 z " id="path2228" sodipodi:nodetypes="ccccc"/>
        <path style="fill:#cd9034;fill-opacity:1;fill-rule:nonzero;stroke:black;stroke-width:1.63183165;stroke-miterlimit:4;stroke-dasharray:none;stroke-opacity:1" d="M 677.73806,-0.44232636 L 771.59494,-67.830491 L 759.59365,436.92411 L 677.727,507.08238 L 677.73806,-0.44232636 z " id="path2230" sodipodi:nodetypes="ccccc"/>
        <path style="fill:#cd9034;fill-opacity:1;fill-rule:nonzero;stroke:black;stroke-width:1.63183165;stroke-miterlimit:4;stroke-dasharray:none;stroke-opacity:1" d="M 664.70507,2.763672 L 683.95411,6.8898861 L 675.95768,507.52471 L 656.702,507.52471 L 664.70507,2.763672 z " id="path2232" sodipodi:nodetypes="ccccc"/>
      </g>
      <g transform="matrix(1.164385,0.352994,0.140351,0.947248,183.342,225.2028)" id="g8637"/>
      <g transform="matrix(1.13688,1.749716e-2,0.128258,1.16752,301.2008,357.4093)" id="g8665">
        <path style="fill:#344ccd;fill-opacity:1;fill-rule:nonzero;stroke:black;stroke-width:1.35354328;stroke-miterlimit:4;stroke-opacity:1" d="M -40.3393,39.95344 L -3.20335,11.06992 L -1.82794,63.33534 L -40.02152,90.84345 L -40.3393,39.95344 z " id="path8667" sodipodi:nodetypes="ccccc"/>
        <path style="fill:#559037;fill-opacity:1;fill-rule:nonzero;stroke:black;stroke-width:1.35354328;stroke-miterlimit:4;stroke-opacity:1" d="M -29.80638,42.03306 L 7.32957,13.14954 L 5.95417,61.28874 L -29.4886,92.92307 L -29.80638,42.03306 z " id="path8669" sodipodi:nodetypes="ccccc"/>
        <path style="fill:#559037;fill-opacity:1;fill-rule:evenodd;stroke:black;stroke-width:1.01462853px;stroke-linecap:butt;stroke-linejoin:miter;stroke-opacity:1" d="M -30.37332,42.3974 L -34.797,42.6251 L -37.67238,41.942 L -39.66303,40.57579 L -39.66303,92.26416 L -37.23001,93.17496 L -35.23936,93.63037 L -33.02753,93.63037 L -31.70043,93.63037 L -29.93096,93.17496 L -30.37332,42.3974 z " id="path8671"/>
        <path style="fill:white;fill-opacity:1;fill-rule:nonzero;stroke:black;stroke-width:1.35354328;stroke-miterlimit:4;stroke-opacity:1" d="M -5.15841,12.91312 L 5.67958,14.4614 L -29.93097,41.88816 L -39.88423,40.11869 L -5.15841,12.91312 z " id="path8673" sodipodi:nodetypes="ccccc"/>
      </g>
      <g transform="matrix(4.779722e-3,-0.687993,-0.999982,-5.716346e-3,750.6856,829.0535)" id="g2234" style="stroke:black;stroke-width:1.631832;stroke-miterlimit:4;stroke-dasharray:none;stroke-opacity:1">
        <path style="fill:#cd9034;fill-opacity:1;fill-rule:nonzero;stroke:black;stroke-width:1.631832;stroke-miterlimit:4;stroke-dasharray:none;stroke-opacity:1" d="M 756.318,-74.915199 L 765.90693,-68.741351 L 677.26698,4.6779081 L 656.08421,4.7440081 L 756.318,-74.915199 z " id="path2236" sodipodi:nodetypes="ccccc"/>
        <path style="fill:#cd9034;fill-opacity:1;fill-rule:nonzero;stroke:black;stroke-width:1.631832;stroke-miterlimit:4;stroke-dasharray:none;stroke-opacity:1" d="M 677.73806,-0.44232636 L 771.59494,-67.830491 L 759.59365,436.92411 L 677.727,507.08238 L 677.73806,-0.44232636 z " id="path2238" sodipodi:nodetypes="ccccc"/>
        <path style="fill:#cd9034;fill-opacity:1;fill-rule:nonzero;stroke:black;stroke-width:1.631832;stroke-miterlimit:4;stroke-dasharray:none;stroke-opacity:1" d="M 664.70507,2.763672 L 683.95411,6.8898861 L 675.95768,507.52471 L 656.702,507.52471 L 664.70507,2.763672 z " id="path2240" sodipodi:nodetypes="ccccc"/>
      </g>
      <g transform="matrix(0.994737,0.101363,2.810975e-2,0.975599,711.7725,261.6154)" id="g10519">
        <path style="fill:#344ccd;fill-opacity:1;fill-rule:nonzero;stroke:black;stroke-width:1.35354328;stroke-miterlimit:4;stroke-opacity:1" d="M -40.3393,39.95344 L -3.20335,11.06992 L -1.82794,63.33534 L -40.02152,90.84345 L -40.3393,39.95344 z " id="path10521" sodipodi:nodetypes="ccccc"/>
        <path style="fill:#559037;fill-opacity:1;fill-rule:nonzero;stroke:black;stroke-width:1.35354328;stroke-miterlimit:4;stroke-opacity:1" d="M -29.80638,42.03306 L 7.32957,13.14954 L 5.95417,61.28874 L -29.4886,92.92307 L -29.80638,42.03306 z " id="path10523" sodipodi:nodetypes="ccccc"/>
        <path style="fill:#559037;fill-opacity:1;fill-rule:evenodd;stroke:black;stroke-width:1.01462853px;stroke-linecap:butt;stroke-linejoin:miter;stroke-opacity:1" d="M -30.37332,42.3974 L -34.797,42.6251 L -37.67238,41.942 L -39.66303,40.57579 L -39.66303,92.26416 L -37.23001,93.17496 L -35.23936,93.63037 L -33.02753,93.63037 L -31.70043,93.63037 L -29.93096,93.17496 L -30.37332,42.3974 z " id="path10525"/>
        <path style="fill:white;fill-opacity:1;fill-rule:nonzero;stroke:black;stroke-width:1.35354328;stroke-miterlimit:4;stroke-opacity:1" d="M -5.15841,12.91312 L 5.67958,14.4614 L -29.93097,41.88816 L -39.88423,40.11869 L -5.15841,12.91312 z " id="path10527" sodipodi:nodetypes="ccccc"/>
      </g>
      <g transform="translate(756.4731,-270.9549)" id="g8607">
        <path style="fill:#344ccd;fill-opacity:1;fill-rule:nonzero;stroke:black;stroke-width:1.35354328;stroke-miterlimit:4;stroke-opacity:1" d="M -61.42038,567.45602 L -24.28443,538.5725 L -22.90902,590.83792 L -61.1026,618.34603 L -61.42038,567.45602 z " id="path5032" sodipodi:nodetypes="ccccc"/>
        <path style="fill:#cd3634;fill-opacity:1;fill-rule:nonzero;stroke:black;stroke-width:1.35354328;stroke-miterlimit:4;stroke-opacity:1" d="M -41.735044,569.22548 L -4.5990937,540.34196 L -5.9744947,588.48116 L -41.417264,620.11549 L -41.735044,569.22548 z " id="path5034" sodipodi:nodetypes="ccccc"/>
        <path style="fill:#cd3634;fill-opacity:1;fill-rule:evenodd;stroke:black;stroke-width:1.41567063px;stroke-linecap:butt;stroke-linejoin:miter;stroke-opacity:1" d="M -42.400248,569.67878 L -49.906132,570.79121 L -55.724963,570.3293 L -61.148547,567.85717 L -61.148547,619.54554 L -56.19088,621.56226 L -52.536765,622.01767 L -48.009699,622.23885 L -44.762617,622.01767 L -42.202634,620.45634 L -42.400248,569.67878 z " id="path5036" sodipodi:nodetypes="ccccccccccc"/>
        <path style="fill:white;fill-opacity:1;fill-rule:nonzero;stroke:black;stroke-width:1.31854546;stroke-miterlimit:4;stroke-opacity:1" d="M -26.018709,540.49117 L -7.4396667,541.29692 L -43.491358,569.53642 L -60.522149,567.19367 L -26.018709,540.49117 z " id="path5038" sodipodi:nodetypes="ccccc"/>
      </g>
      <g transform="matrix(0.997013,7.577408e-2,5.316506e-2,0.974555,291.9931,205.2441)" id="g10529">
        <g transform="translate(138.7945,3.886666)" id="g10531">
          <path sodipodi:nodetypes="ccccc" id="path10533" d="M 259.0466,182.22474 L 296.18255,153.34122 L 297.55796,205.60664 L 259.36438,233.11475 L 259.0466,182.22474 z " style="fill:#344ccd;fill-opacity:1;fill-rule:nonzero;stroke:black;stroke-width:1.35354328;stroke-miterlimit:4;stroke-opacity:1"/>
          <path sodipodi:nodetypes="ccccc" id="path10535" d="M 269.57952,184.30436 L 306.71547,155.42084 L 305.34007,203.56004 L 269.8973,235.19437 L 269.57952,184.30436 z " style="fill:#344ccd;fill-opacity:1;fill-rule:nonzero;stroke:black;stroke-width:1.35354328;stroke-miterlimit:4;stroke-opacity:1"/>
          <path id="path10537" d="M 269.01258,184.6687 L 264.5889,184.8964 L 261.71352,184.2133 L 259.72287,182.84709 L 259.72287,234.53546 L 262.15589,235.44626 L 264.14654,235.90167 L 266.35837,235.90167 L 267.68547,235.90167 L 269.45494,235.44626 L 269.01258,184.6687 z " style="fill:#344ccd;fill-opacity:1;fill-rule:evenodd;stroke:black;stroke-width:1.01462853px;stroke-linecap:butt;stroke-linejoin:miter;stroke-opacity:1"/>
          <path sodipodi:nodetypes="ccccc" id="path10539" d="M 294.22749,155.18442 L 305.06548,156.7327 L 269.45493,184.15946 L 259.50167,182.38999 L 294.22749,155.18442 z " style="fill:white;fill-opacity:1;fill-rule:nonzero;stroke:black;stroke-width:1.35354328;stroke-miterlimit:4;stroke-opacity:1"/>
        </g>
      </g>
      <g transform="matrix(0.978186,0.20773,-0.20773,0.978186,659.464,-80.99966)" id="g10541">
        <path style="fill:#344ccd;fill-opacity:1;fill-rule:nonzero;stroke:black;stroke-width:1.35354328;stroke-miterlimit:4;stroke-opacity:1" d="M 143.28524,349.78079 L 172.44107,324.55104 L 186.62842,380.20747 L 156.10205,403.82359 L 143.28524,349.78079 z " id="path10543" sodipodi:nodetypes="ccccc"/>
        <path style="fill:#978936;fill-opacity:1;fill-rule:nonzero;stroke:black;stroke-width:1.35354328;stroke-miterlimit:4;stroke-opacity:1" d="M 154.07914,353.52375 L 183.23497,328.294 L 193.72277,379.17109 L 166.89595,407.56654 L 154.07914,353.52375 z " id="path10545" sodipodi:nodetypes="ccccc"/>
        <path style="fill:#978936;fill-opacity:1;fill-rule:evenodd;stroke:black;stroke-width:1.01462853px;stroke-linecap:butt;stroke-linejoin:miter;stroke-opacity:1" d="M 153.6152,353.82764 L 149.35252,353.42397 L 146.37754,352.27975 L 144.0984,350.53978 L 156.80118,405.38331 L 159.40026,406.7046 L 161.45557,407.47818 L 163.61488,407.80081 L 164.91047,407.99439 L 166.526,407.76928 L 153.6152,353.82764 z " id="path10547"/>
        <path style="fill:white;fill-opacity:1;fill-rule:nonzero;stroke:black;stroke-width:1.35354328;stroke-miterlimit:4;stroke-opacity:1" d="M 170.98542,326.22157 L 181.94656,329.44526 L 153.9219,353.35183 L 143.77012,350.02251 L 170.98542,326.22157 z " id="path10549" sodipodi:nodetypes="ccccc"/>
      </g>
      <g transform="matrix(0.991018,1.916522e-3,9.498084e-2,0.976888,546.8373,-96.30853)" id="g8707">
        <g transform="matrix(0.994809,4.363826e-2,-4.280342e-2,1.00334,26.42932,-8.114491)" id="g8727">
          <path sodipodi:nodetypes="ccccc" id="path8709" d="M 117.38236,522.06763 L 154.51831,493.18411 L 155.89372,545.44953 L 117.70014,572.95764 L 117.38236,522.06763 z " style="fill:#344ccd;fill-opacity:1;fill-rule:nonzero;stroke:black;stroke-width:1.35354328;stroke-miterlimit:4;stroke-opacity:1"/>
          <path sodipodi:nodetypes="ccccc" id="path8711" d="M 137.0677,523.83709 L 174.20365,494.95357 L 172.82825,543.09277 L 137.38548,574.7271 L 137.0677,523.83709 z " style="fill:#857044;fill-opacity:1;fill-rule:nonzero;stroke:black;stroke-width:1.35354328;stroke-miterlimit:4;stroke-opacity:1"/>
          <path sodipodi:nodetypes="ccccccccccc" id="path8713" d="M 136.40249,524.29039 L 128.89661,525.40282 L 123.07778,524.94091 L 117.65419,522.46878 L 117.65419,574.15715 L 122.61186,576.17387 L 126.26598,576.62928 L 130.79304,576.85046 L 134.04012,576.62928 L 136.60011,575.06795 L 136.40249,524.29039 z " style="fill:#857044;fill-opacity:1;fill-rule:evenodd;stroke:black;stroke-width:1.41567063px;stroke-linecap:butt;stroke-linejoin:miter;stroke-opacity:1"/>
          <path sodipodi:nodetypes="ccccc" id="path8715" d="M 152.78403,495.10278 L 171.36307,495.90853 L 135.31138,524.14803 L 118.28059,521.80528 L 152.78403,495.10278 z " style="fill:white;fill-opacity:1;fill-rule:nonzero;stroke:black;stroke-width:1.31854546;stroke-miterlimit:4;stroke-opacity:1"/>
        </g>
      </g>
      <path sodipodi:nodetypes="ccccc" id="path2199" d="M 749.61431,117.21453 L 768.86999,117.21453 L 768.86999,617.86221 L 749.61431,617.86221 L 749.61431,117.21453 z " style="fill:#cd9034;fill-opacity:1;fill-rule:nonzero;stroke:black;stroke-width:1.35354328;stroke-miterlimit:4;stroke-dasharray:none;stroke-opacity:1"/>
      <path sodipodi:nodetypes="ccccc" id="path2201" d="M 770.02915,117.38236 L 841.88257,58.211264 L 841.88257,558.85894 L 770.02915,618.03004 L 770.02915,117.38236 z " style="fill:#cd9034;fill-opacity:1;fill-rule:nonzero;stroke:black;stroke-width:1.35354328;stroke-miterlimit:4;stroke-dasharray:none;stroke-opacity:1"/>
      <path sodipodi:nodetypes="ccccc" id="path2203" d="M 823.8926,56.754487 L 841.35635,57.699193 L 769.9281,117.06188 L 749.32781,116.5807 L 823.8926,56.754487 z " style="fill:#cd9034;fill-opacity:1;fill-rule:nonzero;stroke:black;stroke-width:1.4059639;stroke-miterlimit:4;stroke-dasharray:none;stroke-opacity:1"/>
      <g transform="matrix(0.999783,1.452899e-2,0.112791,0.969465,197.6612,-74.01121)" id="g7686">
        <path style="fill:#344ccd;fill-opacity:1;fill-rule:nonzero;stroke:black;stroke-width:1.35354328;stroke-miterlimit:4;stroke-opacity:1" d="M 33.828369,259.3161 L 70.964319,230.43258 L 72.339729,282.698 L 34.146149,310.20611 L 33.828369,259.3161 z " id="path4966" sodipodi:nodetypes="ccccc"/>
        <path style="fill:#cd3634;fill-opacity:1;fill-rule:nonzero;stroke:black;stroke-width:1.35354328;stroke-miterlimit:4;stroke-opacity:1" d="M 53.513705,261.08556 L 90.649655,232.20204 L 89.274254,280.34124 L 53.831485,311.97557 L 53.513705,261.08556 z " id="path4962" sodipodi:nodetypes="ccccc"/>
        <path style="fill:#cd3634;fill-opacity:1;fill-rule:evenodd;stroke:black;stroke-width:1.41567063px;stroke-linecap:butt;stroke-linejoin:miter;stroke-opacity:1" d="M 52.848501,261.53886 L 45.342617,262.65129 L 39.523786,262.18938 L 34.100202,259.71725 L 34.100202,311.40562 L 39.057869,313.42234 L 42.711984,313.87775 L 47.23905,314.09893 L 50.486132,313.87775 L 53.046115,312.31642 L 52.848501,261.53886 z " id="path4964" sodipodi:nodetypes="ccccccccccc"/>
        <path style="fill:white;fill-opacity:1;fill-rule:nonzero;stroke:black;stroke-width:1.31854546;stroke-miterlimit:4;stroke-opacity:1" d="M 69.23004,232.35125 L 87.809082,233.157 L 51.757391,261.3965 L 34.7266,259.05375 L 69.23004,232.35125 z " id="path4968" sodipodi:nodetypes="ccccc"/>
      </g>
      <g transform="matrix(0.999783,1.452899e-2,0.112791,0.969465,-130.7076,-5.569685)" id="g4970">
        <g transform="translate(134.7898,1.375406)" id="g7692">
          <path sodipodi:nodetypes="ccccc" id="path4957" d="M 259.0466,182.22474 L 296.18255,153.34122 L 297.55796,205.60664 L 259.36438,233.11475 L 259.0466,182.22474 z " style="fill:#344ccd;fill-opacity:1;fill-rule:nonzero;stroke:black;stroke-width:1.35354328;stroke-miterlimit:4;stroke-opacity:1"/>
          <path sodipodi:nodetypes="ccccc" id="rect4079" d="M 269.57952,184.30436 L 306.71547,155.42084 L 305.34007,203.56004 L 269.8973,235.19437 L 269.57952,184.30436 z " style="fill:#344ccd;fill-opacity:1;fill-rule:nonzero;stroke:black;stroke-width:1.35354328;stroke-miterlimit:4;stroke-opacity:1"/>
          <path id="path4955" d="M 269.01258,184.6687 L 264.5889,184.8964 L 261.71352,184.2133 L 259.72287,182.84709 L 259.72287,234.53546 L 262.15589,235.44626 L 264.14654,235.90167 L 266.35837,235.90167 L 267.68547,235.90167 L 269.45494,235.44626 L 269.01258,184.6687 z " style="fill:#344ccd;fill-opacity:1;fill-rule:evenodd;stroke:black;stroke-width:1.01462853px;stroke-linecap:butt;stroke-linejoin:miter;stroke-opacity:1"/>
          <path sodipodi:nodetypes="ccccc" id="rect4959" d="M 294.22749,155.18442 L 305.06548,156.7327 L 269.45493,184.15946 L 259.50167,182.38999 L 294.22749,155.18442 z " style="fill:white;fill-opacity:1;fill-rule:nonzero;stroke:black;stroke-width:1.35354328;stroke-miterlimit:4;stroke-opacity:1"/>
        </g>
      </g>
      <g transform="matrix(0.999783,1.452899e-2,0.112791,0.969465,337.8365,139.6792)" id="g7698">
        <path style="fill:#344ccd;fill-opacity:1;fill-rule:nonzero;stroke:black;stroke-width:1.35354328;stroke-miterlimit:4;stroke-opacity:1" d="M -40.3393,39.95344 L -3.20335,11.06992 L -1.82794,63.33534 L -40.02152,90.84345 L -40.3393,39.95344 z " id="path4998" sodipodi:nodetypes="ccccc"/>
        <path style="fill:#559037;fill-opacity:1;fill-rule:nonzero;stroke:black;stroke-width:1.35354328;stroke-miterlimit:4;stroke-opacity:1" d="M -29.80638,42.03306 L 7.32957,13.14954 L 5.95417,61.28874 L -29.4886,92.92307 L -29.80638,42.03306 z " id="path5000" sodipodi:nodetypes="ccccc"/>
        <path style="fill:#559037;fill-opacity:1;fill-rule:evenodd;stroke:black;stroke-width:1.01462853px;stroke-linecap:butt;stroke-linejoin:miter;stroke-opacity:1" d="M -30.37332,42.3974 L -34.797,42.6251 L -37.67238,41.942 L -39.66303,40.57579 L -39.66303,92.26416 L -37.23001,93.17496 L -35.23936,93.63037 L -33.02753,93.63037 L -31.70043,93.63037 L -29.93096,93.17496 L -30.37332,42.3974 z " id="path5002"/>
        <path style="fill:white;fill-opacity:1;fill-rule:nonzero;stroke:black;stroke-width:1.35354328;stroke-miterlimit:4;stroke-opacity:1" d="M -5.15841,12.91312 L 5.67958,14.4614 L -29.93097,41.88816 L -39.88423,40.11869 L -5.15841,12.91312 z " id="path5004" sodipodi:nodetypes="ccccc"/>
      </g>
      <g transform="matrix(-4.93626e-2,-0.798938,-1.097525,-0.32897,667.6027,643.1859)" id="g5006">
        <g transform="translate(37.70926,-7.961965)" id="g8601">
          <path sodipodi:nodetypes="ccccc" id="path5008" d="M 259.0466,182.22474 L 296.18255,153.34122 L 297.55796,205.60664 L 259.36438,233.11475 L 259.0466,182.22474 z " style="fill:#344ccd;fill-opacity:1;fill-rule:nonzero;stroke:black;stroke-width:1.35354328;stroke-miterlimit:4;stroke-opacity:1"/>
          <path sodipodi:nodetypes="ccccc" id="path5010" d="M 269.05377,185.58119 L 306.18972,156.69767 L 304.81432,204.83687 L 269.37155,236.4712 L 269.05377,185.58119 z " style="fill:#344ccd;fill-opacity:1;fill-rule:nonzero;stroke:black;stroke-width:1.35354328;stroke-miterlimit:4;stroke-opacity:1"/>
          <path id="path5012" d="M 269.01258,184.6687 L 264.5889,184.8964 L 261.71352,184.2133 L 259.72287,182.84709 L 259.72287,234.53546 L 262.15589,235.44626 L 264.14654,235.90167 L 266.35837,235.90167 L 267.68547,235.90167 L 269.45494,235.44626 L 269.01258,184.6687 z " style="fill:#344ccd;fill-opacity:1;fill-rule:evenodd;stroke:black;stroke-width:1.01462853px;stroke-linecap:butt;stroke-linejoin:miter;stroke-opacity:1"/>
          <path sodipodi:nodetypes="ccccc" id="path5014" d="M 294.22749,155.18442 L 305.06548,156.7327 L 269.45493,184.15946 L 259.50167,182.38999 L 294.22749,155.18442 z " style="fill:white;fill-opacity:1;fill-rule:nonzero;stroke:black;stroke-width:1.35354328;stroke-miterlimit:4;stroke-opacity:1"/>
        </g>
      </g>
      <g transform="matrix(0.991018,1.916522e-3,9.498084e-2,0.976888,155.4274,-335.8915)" id="g8595">
        <path style="fill:#344ccd;fill-opacity:1;fill-rule:nonzero;stroke:black;stroke-width:1.35354328;stroke-miterlimit:4;stroke-opacity:1" d="M 117.38236,522.06763 L 154.51831,493.18411 L 155.89372,545.44953 L 117.70014,572.95764 L 117.38236,522.06763 z " id="path5024" sodipodi:nodetypes="ccccc"/>
        <path style="fill:#857044;fill-opacity:1;fill-rule:nonzero;stroke:black;stroke-width:1.35354328;stroke-miterlimit:4;stroke-opacity:1" d="M 137.0677,523.83709 L 174.20365,494.95357 L 172.82825,543.09277 L 137.38548,574.7271 L 137.0677,523.83709 z " id="path5026" sodipodi:nodetypes="ccccc"/>
        <path style="fill:#857044;fill-opacity:1;fill-rule:evenodd;stroke:black;stroke-width:1.41567063px;stroke-linecap:butt;stroke-linejoin:miter;stroke-opacity:1" d="M 136.40249,524.29039 L 128.89661,525.40282 L 123.07778,524.94091 L 117.65419,522.46878 L 117.65419,574.15715 L 122.61186,576.17387 L 126.26598,576.62928 L 130.79304,576.85046 L 134.04012,576.62928 L 136.60011,575.06795 L 136.40249,524.29039 z " id="path5028" sodipodi:nodetypes="ccccccccccc"/>
        <path style="fill:white;fill-opacity:1;fill-rule:nonzero;stroke:black;stroke-width:1.31854546;stroke-miterlimit:4;stroke-opacity:1" d="M 152.78403,495.10278 L 171.36307,495.90853 L 135.31138,524.14803 L 118.28059,521.80528 L 152.78403,495.10278 z " id="path5030" sodipodi:nodetypes="ccccc"/>
      </g>
      <g transform="matrix(0.976255,0.145866,0.245757,1.061042,52.49826,-56.29231)" id="g4976">
        <path style="fill:#344ccd;fill-opacity:1;fill-rule:nonzero;stroke:black;stroke-width:1.35354328;stroke-miterlimit:4;stroke-opacity:1" d="M 259.0466,182.22474 L 296.18255,153.34122 L 297.55796,205.60664 L 259.36438,233.11475 L 259.0466,182.22474 z " id="path4978" sodipodi:nodetypes="ccccc"/>
        <path style="fill:#344ccd;fill-opacity:1;fill-rule:nonzero;stroke:black;stroke-width:1.35354328;stroke-miterlimit:4;stroke-opacity:1" d="M 269.57952,184.30436 L 306.71547,155.42084 L 305.34007,203.56004 L 269.8973,235.19437 L 269.57952,184.30436 z " id="path4980" sodipodi:nodetypes="ccccc"/>
        <path style="fill:#344ccd;fill-opacity:1;fill-rule:evenodd;stroke:black;stroke-width:1.01462853px;stroke-linecap:butt;stroke-linejoin:miter;stroke-opacity:1" d="M 269.01258,184.6687 L 264.5889,184.8964 L 261.71352,184.2133 L 259.72287,182.84709 L 259.72287,234.53546 L 262.15589,235.44626 L 264.14654,235.90167 L 266.35837,235.90167 L 267.68547,235.90167 L 269.45494,235.44626 L 269.01258,184.6687 z " id="path4982"/>
        <path style="fill:white;fill-opacity:1;fill-rule:nonzero;stroke:black;stroke-width:1.35354328;stroke-miterlimit:4;stroke-opacity:1" d="M 294.22749,155.18442 L 305.06548,156.7327 L 269.45493,184.15946 L 259.50167,182.38999 L 294.22749,155.18442 z " id="path4984" sodipodi:nodetypes="ccccc"/>
      </g>
      <g transform="matrix(0.991018,1.916522e-3,9.498084e-2,0.976888,104.0761,-216.2252)" id="g8613">
        <path style="fill:#344ccd;fill-opacity:1;fill-rule:nonzero;stroke:black;stroke-width:1.35354328;stroke-miterlimit:4;stroke-opacity:1" d="M 117.38236,522.06763 L 154.51831,493.18411 L 155.89372,545.44953 L 117.70014,572.95764 L 117.38236,522.06763 z " id="path8615" sodipodi:nodetypes="ccccc"/>
        <path style="fill:#857044;fill-opacity:1;fill-rule:nonzero;stroke:black;stroke-width:1.35354328;stroke-miterlimit:4;stroke-opacity:1" d="M 137.0677,523.83709 L 174.20365,494.95357 L 172.82825,543.09277 L 137.38548,574.7271 L 137.0677,523.83709 z " id="path8617" sodipodi:nodetypes="ccccc"/>
        <path style="fill:#857044;fill-opacity:1;fill-rule:evenodd;stroke:black;stroke-width:1.41567063px;stroke-linecap:butt;stroke-linejoin:miter;stroke-opacity:1" d="M 136.40249,524.29039 L 128.89661,525.40282 L 123.07778,524.94091 L 117.65419,522.46878 L 117.65419,574.15715 L 122.61186,576.17387 L 126.26598,576.62928 L 130.79304,576.85046 L 134.04012,576.62928 L 136.60011,575.06795 L 136.40249,524.29039 z " id="path8619" sodipodi:nodetypes="ccccccccccc"/>
        <path style="fill:white;fill-opacity:1;fill-rule:nonzero;stroke:black;stroke-width:1.31854546;stroke-miterlimit:4;stroke-opacity:1" d="M 152.78403,495.10278 L 171.36307,495.90853 L 135.31138,524.14803 L 118.28059,521.80528 L 152.78403,495.10278 z " id="path8621" sodipodi:nodetypes="ccccc"/>
      </g>
      <g transform="matrix(0.999783,1.452899e-2,0.112791,0.969465,216.3362,158.6947)" id="g8675">
        <path style="fill:#344ccd;fill-opacity:1;fill-rule:nonzero;stroke:black;stroke-width:1.35354328;stroke-miterlimit:4;stroke-opacity:1" d="M 33.828369,259.3161 L 70.964319,230.43258 L 72.339729,282.698 L 34.146149,310.20611 L 33.828369,259.3161 z " id="path8677" sodipodi:nodetypes="ccccc"/>
        <path style="fill:#cd3634;fill-opacity:1;fill-rule:nonzero;stroke:black;stroke-width:1.35354328;stroke-miterlimit:4;stroke-opacity:1" d="M 53.513705,261.08556 L 90.649655,232.20204 L 89.274254,280.34124 L 53.831485,311.97557 L 53.513705,261.08556 z " id="path8679" sodipodi:nodetypes="ccccc"/>
        <path style="fill:#cd3634;fill-opacity:1;fill-rule:evenodd;stroke:black;stroke-width:1.41567063px;stroke-linecap:butt;stroke-linejoin:miter;stroke-opacity:1" d="M 52.848501,261.53886 L 45.342617,262.65129 L 39.523786,262.18938 L 34.100202,259.71725 L 34.100202,311.40562 L 39.057869,313.42234 L 42.711984,313.87775 L 47.23905,314.09893 L 50.486132,313.87775 L 53.046115,312.31642 L 52.848501,261.53886 z " id="path8681" sodipodi:nodetypes="ccccccccccc"/>
        <path style="fill:white;fill-opacity:1;fill-rule:nonzero;stroke:black;stroke-width:1.31854546;stroke-miterlimit:4;stroke-opacity:1" d="M 69.23004,232.35125 L 87.809082,233.157 L 51.757391,261.3965 L 34.7266,259.05375 L 69.23004,232.35125 z " id="path8683" sodipodi:nodetypes="ccccc"/>
      </g>
      <g transform="translate(160.9225,53.64082)" id="g10483">
        <path style="fill:#344ccd;fill-opacity:1;fill-rule:nonzero;stroke:black;stroke-width:1.35354328;stroke-miterlimit:4;stroke-opacity:1" d="M 143.28524,349.78079 L 172.44107,324.55104 L 186.62842,380.20747 L 156.10205,403.82359 L 143.28524,349.78079 z " id="path8719" sodipodi:nodetypes="ccccc"/>
        <path style="fill:#978936;fill-opacity:1;fill-rule:nonzero;stroke:black;stroke-width:1.35354328;stroke-miterlimit:4;stroke-opacity:1" d="M 154.07914,353.52375 L 183.23497,328.294 L 193.72277,379.17109 L 166.89595,407.56654 L 154.07914,353.52375 z " id="path8721" sodipodi:nodetypes="ccccc"/>
        <path style="fill:#978936;fill-opacity:1;fill-rule:evenodd;stroke:black;stroke-width:1.01462853px;stroke-linecap:butt;stroke-linejoin:miter;stroke-opacity:1" d="M 153.6152,353.82764 L 149.35252,353.42397 L 146.37754,352.27975 L 144.0984,350.53978 L 156.80118,405.38331 L 159.40026,406.7046 L 161.45557,407.47818 L 163.61488,407.80081 L 164.91047,407.99439 L 166.526,407.76928 L 153.6152,353.82764 z " id="path8723"/>
        <path style="fill:white;fill-opacity:1;fill-rule:nonzero;stroke:black;stroke-width:1.35354328;stroke-miterlimit:4;stroke-opacity:1" d="M 170.98542,326.22157 L 181.94656,329.44526 L 153.9219,353.35183 L 143.77012,350.02251 L 170.98542,326.22157 z " id="path8725" sodipodi:nodetypes="ccccc"/>
      </g>
      <g transform="matrix(0.999783,1.452899e-2,0.112791,0.969465,-85.89996,227.1363)" id="g8685">
        <g transform="translate(134.7898,1.375406)" id="g8687">
          <path sodipodi:nodetypes="ccccc" id="path8689" d="M 259.0466,182.22474 L 296.18255,153.34122 L 297.55796,205.60664 L 259.36438,233.11475 L 259.0466,182.22474 z " style="fill:#344ccd;fill-opacity:1;fill-rule:nonzero;stroke:black;stroke-width:1.35354328;stroke-miterlimit:4;stroke-opacity:1"/>
          <path sodipodi:nodetypes="ccccc" id="path8691" d="M 269.57952,184.30436 L 306.71547,155.42084 L 305.34007,203.56004 L 269.8973,235.19437 L 269.57952,184.30436 z " style="fill:#344ccd;fill-opacity:1;fill-rule:nonzero;stroke:black;stroke-width:1.35354328;stroke-miterlimit:4;stroke-opacity:1"/>
          <path id="path8693" d="M 269.01258,184.6687 L 264.5889,184.8964 L 261.71352,184.2133 L 259.72287,182.84709 L 259.72287,234.53546 L 262.15589,235.44626 L 264.14654,235.90167 L 266.35837,235.90167 L 267.68547,235.90167 L 269.45494,235.44626 L 269.01258,184.6687 z " style="fill:#344ccd;fill-opacity:1;fill-rule:evenodd;stroke:black;stroke-width:1.01462853px;stroke-linecap:butt;stroke-linejoin:miter;stroke-opacity:1"/>
          <path sodipodi:nodetypes="ccccc" id="path8695" d="M 294.22749,155.18442 L 305.06548,156.7327 L 269.45493,184.15946 L 259.50167,182.38999 L 294.22749,155.18442 z " style="fill:white;fill-opacity:1;fill-rule:nonzero;stroke:black;stroke-width:1.35354328;stroke-miterlimit:4;stroke-opacity:1"/>
        </g>
      </g>
      <g transform="matrix(0.999783,1.452899e-2,0.112791,0.969465,384.0195,373.7606)" id="g8697">
        <path style="fill:#344ccd;fill-opacity:1;fill-rule:nonzero;stroke:black;stroke-width:1.35354328;stroke-miterlimit:4;stroke-opacity:1" d="M -40.3393,39.95344 L -3.20335,11.06992 L -1.82794,63.33534 L -40.02152,90.84345 L -40.3393,39.95344 z " id="path8699" sodipodi:nodetypes="ccccc"/>
        <path style="fill:#559037;fill-opacity:1;fill-rule:nonzero;stroke:black;stroke-width:1.35354328;stroke-miterlimit:4;stroke-opacity:1" d="M -29.80638,42.03306 L 7.32957,13.14954 L 5.95417,61.28874 L -29.4886,92.92307 L -29.80638,42.03306 z " id="path8701" sodipodi:nodetypes="ccccc"/>
        <path style="fill:#559037;fill-opacity:1;fill-rule:evenodd;stroke:black;stroke-width:1.01462853px;stroke-linecap:butt;stroke-linejoin:miter;stroke-opacity:1" d="M -30.37332,42.3974 L -34.797,42.6251 L -37.67238,41.942 L -39.66303,40.57579 L -39.66303,92.26416 L -37.23001,93.17496 L -35.23936,93.63037 L -33.02753,93.63037 L -31.70043,93.63037 L -29.93096,93.17496 L -30.37332,42.3974 z " id="path8703"/>
        <path style="fill:white;fill-opacity:1;fill-rule:nonzero;stroke:black;stroke-width:1.35354328;stroke-miterlimit:4;stroke-opacity:1" d="M -5.15841,12.91312 L 5.67958,14.4614 L -29.93097,41.88816 L -39.88423,40.11869 L -5.15841,12.91312 z " id="path8705" sodipodi:nodetypes="ccccc"/>
      </g>
      <g transform="matrix(-0.346598,-0.759433,0.895235,-0.294021,267.7105,593.5685)" id="g10503">
        <path style="fill:#344ccd;fill-opacity:1;fill-rule:nonzero;stroke:black;stroke-width:1.85792077;stroke-miterlimit:4;stroke-opacity:1" d="M 26.656105,351.06582 L 74.80048,309.53114 L 69.425069,391.68126 L 20.204557,430.94994 L 26.656105,351.06582 z " id="path10491" sodipodi:nodetypes="ccccc"/>
        <path style="fill:#cd3634;fill-opacity:1;fill-rule:nonzero;stroke:black;stroke-width:1.85792077;stroke-miterlimit:4;stroke-opacity:1" d="M 38.932687,355.40294 L 87.077061,313.86826 L 78.976377,389.26343 L 32.481139,435.28706 L 38.932687,355.40294 z " id="path10493" sodipodi:nodetypes="ccccc"/>
        <path style="fill:#a62c2a;fill-opacity:1;fill-rule:evenodd;stroke:black;stroke-width:1.3927145px;stroke-linecap:butt;stroke-linejoin:miter;stroke-opacity:1" d="M 38.207968,355.91682 L 32.904186,355.82305 L 29.568291,354.458 L 27.378718,352.1113 L 20.441208,433.21573 L 23.21923,434.89295 L 25.531048,435.81052 L 28.167646,436.03605 L 29.749608,436.17136 L 31.920018,435.6372 L 38.207968,355.91682 z " id="path10495"/>
        <path style="fill:white;fill-opacity:1;fill-rule:nonzero;stroke:black;stroke-width:1.85792077;stroke-miterlimit:4;stroke-opacity:1" d="M 72.222572,312.22396 L 84.934126,315.75847 L 38.803618,355.16288 L 27.176389,351.37151 L 72.222572,312.22396 z " id="path10497" sodipodi:nodetypes="ccccc"/>
      </g>
      <g transform="matrix(0.999783,1.452899e-2,0.112791,0.969465,233.999,39.13857)" id="g10509">
        <path style="fill:#344ccd;fill-opacity:1;fill-rule:nonzero;stroke:black;stroke-width:1.35354328;stroke-miterlimit:4;stroke-opacity:1" d="M 33.828369,259.3161 L 70.964319,230.43258 L 72.339729,282.698 L 34.146149,310.20611 L 33.828369,259.3161 z " id="path10511" sodipodi:nodetypes="ccccc"/>
        <path style="fill:#cd3634;fill-opacity:1;fill-rule:nonzero;stroke:black;stroke-width:1.35354328;stroke-miterlimit:4;stroke-opacity:1" d="M 53.513705,261.08556 L 90.649655,232.20204 L 89.274254,280.34124 L 53.831485,311.97557 L 53.513705,261.08556 z " id="path10513" sodipodi:nodetypes="ccccc"/>
        <path style="fill:#cd3634;fill-opacity:1;fill-rule:evenodd;stroke:black;stroke-width:1.41567063px;stroke-linecap:butt;stroke-linejoin:miter;stroke-opacity:1" d="M 52.848501,261.53886 L 45.342617,262.65129 L 39.523786,262.18938 L 34.100202,259.71725 L 34.100202,311.40562 L 39.057869,313.42234 L 42.711984,313.87775 L 47.23905,314.09893 L 50.486132,313.87775 L 53.046115,312.31642 L 52.848501,261.53886 z " id="path10515" sodipodi:nodetypes="ccccccccccc"/>
        <path style="fill:white;fill-opacity:1;fill-rule:nonzero;stroke:black;stroke-width:1.31854546;stroke-miterlimit:4;stroke-opacity:1" d="M 69.23004,232.35125 L 87.809082,233.157 L 51.757391,261.3965 L 34.7266,259.05375 L 69.23004,232.35125 z " id="path10517" sodipodi:nodetypes="ccccc"/>
      </g>
    </g>
  </g>
</svg>