<?xml version="1.0" encoding="UTF-8" standalone="no"?>
<!-- Created with Inkscape (http://www.inkscape.org/) -->
<svg id="svg2" xmlns:rdf="http://www.w3.org/1999/02/22-rdf-syntax-ns#" xmlns="http://www.w3.org/2000/svg" height="243.74" width="372.63" version="1.1" xmlns:cc="http://creativecommons.org/ns#" xmlns:dc="http://purl.org/dc/elements/1.1/" viewBox="261 112 200.76926 136.59231">
 <metadata id="metadata220">
  <rdf:RDF>
   <cc:Work rdf:about="">
    <dc:format>image/svg+xml</dc:format>
    <dc:type rdf:resource="http://purl.org/dc/dcmitype/StillImage"/>
   </cc:Work>
  </rdf:RDF>
 </metadata>
 <g id="text4">
  <path id="path3089" style="" d="m262.79 156.31c0.30426-0.5468 0.66806-0.95029 1.0914-1.2105 0.42332-0.26017 0.92162-0.39026 1.4949-0.39026 0.7717 0 1.367 0.2712 1.786 0.81359 0.41891 0.538 0.62837 1.3053 0.62838 2.3019v4.4715h-1.2237v-4.4318c-0.00001-0.70996-0.12569-1.2369-0.37703-1.5809-0.25136-0.34395-0.63501-0.51593-1.1509-0.51594-0.6306 0.00001-1.1289 0.20947-1.4949 0.62839-0.36601 0.41893-0.54902 0.98999-0.54901 1.7132v4.187h-1.2237v-4.4318c-0.00001-0.71437-0.12569-1.2413-0.37703-1.5809-0.25136-0.34395-0.63942-0.51593-1.1642-0.51594-0.62178 0.00001-1.1157 0.21168-1.4817 0.635-0.36601 0.41893-0.54902 0.98779-0.54902 1.7066v4.187h-1.2237v-7.4084h1.2237v1.1509c0.27781-0.45419 0.61075-0.78933 0.99881-1.0054 0.38805-0.21607 0.84887-0.32411 1.3824-0.32411 0.53798 0 0.99439 0.13671 1.3692 0.4101 0.37923 0.27341 0.65925 0.67029 0.84006 1.1906"/>
  <path id="path3091" style="" d="m273.59 158.57c-0.98338 0.00001-1.6647 0.11245-2.0439 0.33735-0.37924 0.2249-0.56886 0.60854-0.56886 1.1509 0 0.43215 0.14111 0.77611 0.42334 1.0319 0.28663 0.25135 0.67468 0.37703 1.1642 0.37703 0.67469 0 1.2149-0.23813 1.6206-0.71438 0.4101-0.48066 0.61515-1.1179 0.61516-1.9116v-0.2712h-1.2105m2.4276-0.50271v4.2267h-1.2171v-1.1245c-0.27782 0.44979-0.62398 0.78273-1.0385 0.99881-0.41452 0.21166-0.92164 0.3175-1.5214 0.3175-0.75848 0-1.3626-0.21167-1.8124-0.63501-0.44539-0.42774-0.66808-0.9988-0.66808-1.7132 0-0.83343 0.27782-1.4618 0.83344-1.8852 0.56004-0.42333 1.3935-0.63499 2.5003-0.635h1.7066v-0.11906c-0.00001-0.56003-0.18522-0.99219-0.55563-1.2965-0.36601-0.30868-0.88195-0.46302-1.5478-0.46303-0.42334 0.00001-0.83565 0.0507-1.2369 0.15214-0.40129 0.10143-0.78714 0.25357-1.1576 0.45641v-1.1245c0.44538-0.17198 0.87754-0.29986 1.2965-0.38365 0.41892-0.0882 0.82682-0.13229 1.2237-0.13229 1.0716 0 1.8719 0.27782 2.4011 0.83344 0.52916 0.55563 0.79375 1.3979 0.79376 2.5268"/>
  <path id="path3093" style="" d="m279.73 152.78v2.1034h2.5069v0.94589h-2.5069v4.0217c0 0.60413 0.0816 0.99219 0.24474 1.1642 0.16757 0.17199 0.50491 0.25798 1.012 0.25797h1.2502v1.0186h-1.2502c-0.93927 0-1.5875-0.17418-1.9447-0.52255-0.35719-0.35278-0.53578-0.99219-0.53578-1.9182v-4.0217h-0.89297v-0.94589h0.89297v-2.1034h1.2237"/>
  <path id="path3095" style="" d="m288.14 156.02c-0.13671-0.0794-0.28664-0.13669-0.4498-0.17198-0.15875-0.0397-0.33514-0.0595-0.52916-0.0595-0.68793 0.00001-1.2171 0.2249-1.5875 0.67469-0.36601 0.44539-0.54901 1.087-0.54901 1.9248v3.9026h-1.2237v-7.4084h1.2237v1.1509c0.25576-0.44978 0.5887-0.78272 0.9988-0.9988 0.41011-0.22048 0.90841-0.33073 1.4949-0.33073 0.0838 0 0.17639 0.007 0.27782 0.0198 0.10142 0.009 0.21386 0.0243 0.33734 0.0463l0.007 1.2502"/>
  <path id="path3097" style="" d="m289.43 154.88h1.2171v7.4084h-1.2171v-7.4084m0-2.884h1.2171v1.5412h-1.2171v-1.5412"/>
  <path id="path3099" style="" d="m299.34 154.88-2.6789 3.605 2.8178 3.8034h-1.4354l-2.1564-2.9104-2.1564 2.9104h-1.4354l2.8774-3.8762-2.6326-3.5322h1.4354l1.9645 2.6392 1.9645-2.6392h1.4354"/>
  <path id="path3101" style="" d="m301.09 152h2.8046v0.94588h-1.5875v10.186h1.5875v0.94588h-2.8046v-12.078"/>
  <path id="path3103" style="" d="m309.52 153.3c-0.68793 0.00001-1.2061 0.33956-1.5544 1.0186-0.34396 0.67469-0.51594 1.6911-0.51593 3.0493-0.00001 1.3538 0.17197 2.3702 0.51593 3.0493 0.34837 0.67469 0.86651 1.012 1.5544 1.012 0.69232 0 1.2105-0.33734 1.5544-1.012 0.34836-0.6791 0.52254-1.6955 0.52255-3.0493-0.00001-1.3582-0.17419-2.3746-0.52255-3.0493-0.34397-0.67909-0.86211-1.0186-1.5544-1.0186m0-1.0583c1.1068 0.00001 1.9513 0.43878 2.5334 1.3163 0.58648 0.87313 0.87973 2.1431 0.87974 3.81-0.00001 1.6625-0.29326 2.9325-0.87974 3.81-0.58209 0.87312-1.4266 1.3097-2.5334 1.3097s-1.9535-0.43657-2.54-1.3097c-0.58209-0.87754-0.87313-2.1475-0.87313-3.81 0-1.6669 0.29104-2.9369 0.87313-3.81 0.58649-0.87753 1.4332-1.3163 2.54-1.3163"/>
  <path id="path3105" style="" d="m317.96 152v12.078h-2.8046v-0.94588h1.5809v-10.186h-1.5809v-0.94588h2.8046"/>
  <path id="path3107" style="" d="m334.14 157.75v0.59532l-2.5995 2.5995-0.79375-0.79375 1.5412-1.5412h-8.0632v-1.1245h8.0632l-1.5412-1.5412 0.79375-0.79375 2.5995 2.5995"/>
 </g>
 <g id="text8">
  <path id="path3110" style="" d="m262.79 176.31c0.30426-0.5468 0.66806-0.95029 1.0914-1.2105 0.42332-0.26017 0.92162-0.39026 1.4949-0.39026 0.7717 0 1.367 0.2712 1.786 0.81359 0.41891 0.538 0.62837 1.3053 0.62838 2.3019v4.4715h-1.2237v-4.4318c-0.00001-0.70996-0.12569-1.2369-0.37703-1.5809-0.25136-0.34395-0.63501-0.51593-1.1509-0.51594-0.6306 0.00001-1.1289 0.20947-1.4949 0.62839-0.36601 0.41893-0.54902 0.98999-0.54901 1.7132v4.187h-1.2237v-4.4318c-0.00001-0.71437-0.12569-1.2413-0.37703-1.5809-0.25136-0.34395-0.63942-0.51593-1.1642-0.51594-0.62178 0.00001-1.1157 0.21168-1.4817 0.635-0.36601 0.41893-0.54902 0.98779-0.54902 1.7066v4.187h-1.2237v-7.4084h1.2237v1.1509c0.27781-0.45419 0.61075-0.78933 0.99881-1.0054 0.38805-0.21607 0.84887-0.32411 1.3824-0.32411 0.53798 0 0.99439 0.13671 1.3692 0.4101 0.37923 0.27341 0.65925 0.67029 0.84006 1.1906"/>
  <path id="path3112" style="" d="m273.59 178.57c-0.98338 0.00001-1.6647 0.11245-2.0439 0.33735-0.37924 0.2249-0.56886 0.60854-0.56886 1.1509 0 0.43215 0.14111 0.77611 0.42334 1.0319 0.28663 0.25135 0.67468 0.37703 1.1642 0.37703 0.67469 0 1.2149-0.23813 1.6206-0.71438 0.4101-0.48066 0.61515-1.1179 0.61516-1.9116v-0.2712h-1.2105m2.4276-0.50271v4.2267h-1.2171v-1.1245c-0.27782 0.44979-0.62398 0.78273-1.0385 0.99881-0.41452 0.21166-0.92164 0.3175-1.5214 0.3175-0.75848 0-1.3626-0.21167-1.8124-0.63501-0.44539-0.42774-0.66808-0.9988-0.66808-1.7132 0-0.83343 0.27782-1.4618 0.83344-1.8852 0.56004-0.42333 1.3935-0.63499 2.5003-0.635h1.7066v-0.11906c-0.00001-0.56003-0.18522-0.99219-0.55563-1.2965-0.36601-0.30868-0.88195-0.46302-1.5478-0.46303-0.42334 0.00001-0.83565 0.0507-1.2369 0.15214-0.40129 0.10143-0.78714 0.25357-1.1576 0.45641v-1.1245c0.44538-0.17198 0.87754-0.29986 1.2965-0.38365 0.41892-0.0882 0.82682-0.13229 1.2237-0.13229 1.0716 0 1.8719 0.27782 2.4011 0.83344 0.52916 0.55563 0.79375 1.3979 0.79376 2.5268"/>
  <path id="path3114" style="" d="m279.73 172.78v2.1034h2.5069v0.94589h-2.5069v4.0217c0 0.60413 0.0816 0.99219 0.24474 1.1642 0.16757 0.17199 0.50491 0.25798 1.012 0.25797h1.2502v1.0186h-1.2502c-0.93927 0-1.5875-0.17418-1.9447-0.52255-0.35719-0.35278-0.53578-0.99219-0.53578-1.9182v-4.0217h-0.89297v-0.94589h0.89297v-2.1034h1.2237"/>
  <path id="path3116" style="" d="m288.14 176.02c-0.13671-0.0794-0.28664-0.13669-0.4498-0.17198-0.15875-0.0397-0.33514-0.0595-0.52916-0.0595-0.68793 0.00001-1.2171 0.2249-1.5875 0.67469-0.36601 0.44539-0.54901 1.087-0.54901 1.9248v3.9026h-1.2237v-7.4084h1.2237v1.1509c0.25576-0.44978 0.5887-0.78272 0.9988-0.9988 0.41011-0.22048 0.90841-0.33073 1.4949-0.33073 0.0838 0 0.17639 0.007 0.27782 0.0198 0.10142 0.009 0.21386 0.0243 0.33734 0.0463l0.007 1.2502"/>
  <path id="path3118" style="" d="m289.43 174.88h1.2171v7.4084h-1.2171v-7.4084m0-2.884h1.2171v1.5412h-1.2171v-1.5412"/>
  <path id="path3120" style="" d="m299.34 174.88-2.6789 3.605 2.8178 3.8034h-1.4354l-2.1564-2.9104-2.1564 2.9104h-1.4354l2.8774-3.8762-2.6326-3.5322h1.4354l1.9645 2.6392 1.9645-2.6392h1.4354"/>
  <path id="path3122" style="" d="m301.09 172h2.8046v0.94588h-1.5875v10.186h1.5875v0.94588h-2.8046v-12.078"/>
  <path id="path3124" style="" d="m306.9 181.17h2.1828v-7.534l-2.3746 0.47625v-1.2171l2.3614-0.47625h1.3362v8.7511h2.1828v1.1245h-5.6886v-1.1245"/>
  <path id="path3126" style="" d="m317.96 172v12.078h-2.8046v-0.94588h1.5809v-10.186h-1.5809v-0.94588h2.8046"/>
  <path id="path3128" style="" d="m334.14 177.75v0.59532l-2.5995 2.5995-0.79375-0.79375 1.5412-1.5412h-8.0632v-1.1245h8.0632l-1.5412-1.5412 0.79375-0.79375 2.5995 2.5995"/>
 </g>
 <g id="text12">
  <path id="path3131" style="" d="m262.79 236.31c0.30426-0.5468 0.66806-0.95029 1.0914-1.2105 0.42332-0.26017 0.92162-0.39026 1.4949-0.39026 0.7717 0 1.367 0.2712 1.786 0.81359 0.41891 0.538 0.62837 1.3053 0.62838 2.3019v4.4715h-1.2237v-4.4318c-0.00001-0.70996-0.12569-1.2369-0.37703-1.5809-0.25136-0.34395-0.63501-0.51593-1.1509-0.51594-0.6306 0.00001-1.1289 0.20947-1.4949 0.62839-0.36601 0.41893-0.54902 0.98999-0.54901 1.7132v4.187h-1.2237v-4.4318c-0.00001-0.71437-0.12569-1.2413-0.37703-1.5809-0.25136-0.34395-0.63942-0.51593-1.1642-0.51594-0.62178 0.00001-1.1157 0.21168-1.4817 0.635-0.36601 0.41893-0.54902 0.98779-0.54902 1.7066v4.187h-1.2237v-7.4084h1.2237v1.1509c0.27781-0.45419 0.61075-0.78933 0.99881-1.0054 0.38805-0.21607 0.84887-0.32411 1.3824-0.32411 0.53798 0 0.99439 0.13671 1.3692 0.4101 0.37923 0.27341 0.65925 0.67029 0.84006 1.1906"/>
  <path id="path3133" style="" d="m273.59 238.57c-0.98338 0.00001-1.6647 0.11245-2.0439 0.33735-0.37924 0.2249-0.56886 0.60854-0.56886 1.1509 0 0.43215 0.14111 0.77611 0.42334 1.0319 0.28663 0.25135 0.67468 0.37703 1.1642 0.37703 0.67469 0 1.2149-0.23813 1.6206-0.71438 0.4101-0.48066 0.61515-1.1179 0.61516-1.9116v-0.2712h-1.2105m2.4276-0.50271v4.2267h-1.2171v-1.1245c-0.27782 0.44979-0.62398 0.78273-1.0385 0.99881-0.41452 0.21166-0.92164 0.3175-1.5214 0.3175-0.75848 0-1.3626-0.21167-1.8124-0.63501-0.44539-0.42774-0.66808-0.9988-0.66808-1.7132 0-0.83343 0.27782-1.4618 0.83344-1.8852 0.56004-0.42333 1.3935-0.63499 2.5003-0.635h1.7066v-0.11906c-0.00001-0.56003-0.18522-0.99219-0.55563-1.2965-0.36601-0.30868-0.88195-0.46302-1.5478-0.46303-0.42334 0.00001-0.83565 0.0507-1.2369 0.15214-0.40129 0.10143-0.78714 0.25357-1.1576 0.45641v-1.1245c0.44538-0.17198 0.87754-0.29986 1.2965-0.38365 0.41892-0.0882 0.82682-0.13229 1.2237-0.13229 1.0716 0 1.8719 0.27782 2.4011 0.83344 0.52916 0.55563 0.79375 1.3979 0.79376 2.5268"/>
  <path id="path3135" style="" d="m279.73 232.78v2.1034h2.5069v0.94589h-2.5069v4.0217c0 0.60413 0.0816 0.99219 0.24474 1.1642 0.16757 0.17199 0.50491 0.25798 1.012 0.25797h1.2502v1.0186h-1.2502c-0.93927 0-1.5875-0.17418-1.9447-0.52255-0.35719-0.35278-0.53578-0.99219-0.53578-1.9182v-4.0217h-0.89297v-0.94589h0.89297v-2.1034h1.2237"/>
  <path id="path3137" style="" d="m288.14 236.02c-0.13671-0.0794-0.28664-0.13669-0.4498-0.17198-0.15875-0.0397-0.33514-0.0595-0.52916-0.0595-0.68793 0.00001-1.2171 0.2249-1.5875 0.67469-0.36601 0.44539-0.54901 1.087-0.54901 1.9248v3.9026h-1.2237v-7.4084h1.2237v1.1509c0.25576-0.44978 0.5887-0.78272 0.9988-0.9988 0.41011-0.22048 0.90841-0.33073 1.4949-0.33073 0.0838 0 0.17639 0.007 0.27782 0.0198 0.10142 0.009 0.21386 0.0243 0.33734 0.0463l0.007 1.2502"/>
  <path id="path3139" style="" d="m289.43 234.88h1.2171v7.4084h-1.2171v-7.4084m0-2.884h1.2171v1.5412h-1.2171v-1.5412"/>
  <path id="path3141" style="" d="m299.34 234.88-2.6789 3.605 2.8178 3.8034h-1.4354l-2.1564-2.9104-2.1564 2.9104h-1.4354l2.8774-3.8762-2.6326-3.5322h1.4354l1.9645 2.6392 1.9645-2.6392h1.4354"/>
  <path id="path3143" style="" d="m301.09 232h2.8046v0.94588h-1.5875v10.186h1.5875v0.94588h-2.8046v-12.078"/>
  <path id="path3145" style="" d="m310.34 233.58-3.3734 5.2718h3.3734v-5.2718m-0.35057-1.1642h1.6801v6.436h1.4089v1.1112h-1.4089v2.3283h-1.3295v-2.3283h-4.4582v-1.2898l4.1077-6.2574"/>
  <path id="path3147" style="" d="m317.96 232v12.078h-2.8046v-0.94588h1.5809v-10.186h-1.5809v-0.94588h2.8046"/>
  <path id="path3149" style="" d="m334.14 237.75v0.59532l-2.5995 2.5995-0.79375-0.79375 1.5412-1.5412h-8.0632v-1.1245h8.0632l-1.5412-1.5412 0.79375-0.79375 2.5995 2.5995"/>
 </g>
 <g id="text16">
  <path id="path3152" style="" d="m289.24 116.31c0.30427-0.5468 0.66807-0.95029 1.0914-1.2105 0.42333-0.26017 0.92163-0.39026 1.4949-0.39027 0.77169 0.00001 1.367 0.27121 1.7859 0.8136 0.41891 0.53799 0.62838 1.3053 0.62839 2.3019v4.4715h-1.2237v-4.4318c-0.00001-0.70996-0.12569-1.2369-0.37703-1.5809-0.25137-0.34395-0.63502-0.51593-1.151-0.51594-0.6306 0.00001-1.1289 0.20947-1.4949 0.62839-0.36602 0.41893-0.54902 0.98999-0.54902 1.7132v4.187h-1.2237v-4.4318c0-0.71437-0.12568-1.2413-0.37703-1.5809-0.25136-0.34395-0.63942-0.51593-1.1642-0.51594-0.62178 0.00001-1.1157 0.21167-1.4817 0.635-0.36601 0.41893-0.54901 0.98779-0.54901 1.7066v4.187h-1.2237v-7.4084h1.2237v1.1509c0.27781-0.4542 0.61074-0.78934 0.9988-1.0054 0.38806-0.21607 0.84887-0.32411 1.3824-0.32412 0.53799 0.00001 0.99439 0.13671 1.3692 0.41011 0.37923 0.27341 0.65925 0.67029 0.84005 1.1906"/>
  <path id="path3154" style="" d="m300.04 118.57c-0.98337 0-1.6647 0.11245-2.0439 0.33735-0.37924 0.22489-0.56886 0.60854-0.56885 1.1509-0.00001 0.43215 0.1411 0.77611 0.42333 1.0319 0.28663 0.25136 0.67469 0.37704 1.1642 0.37704 0.67468 0 1.2149-0.23813 1.6206-0.71438 0.4101-0.48066 0.61515-1.1179 0.61515-1.9116v-0.2712h-1.2105m2.4276-0.50271v4.2267h-1.2171v-1.1245c-0.27781 0.44979-0.62398 0.78273-1.0385 0.9988-0.41452 0.21167-0.92164 0.3175-1.5214 0.3175-0.75847 0-1.3626-0.21166-1.8124-0.635-0.44538-0.42774-0.66807-0.9988-0.66807-1.7132 0-0.83344 0.27781-1.4618 0.83344-1.8852 0.56003-0.42333 1.3935-0.635 2.5003-0.635h1.7066v-0.11906c0-0.56004-0.18521-0.99219-0.55562-1.2965-0.36602-0.30867-0.88195-0.46301-1.5478-0.46302-0.42334 0.00001-0.83565 0.0507-1.2369 0.15214-0.40129 0.10143-0.78714 0.25356-1.1576 0.45641v-1.1245c0.44538-0.17197 0.87753-0.29985 1.2965-0.38364 0.41892-0.0882 0.82682-0.13229 1.2237-0.1323 1.0716 0.00001 1.8719 0.27783 2.4011 0.83344 0.52916 0.55564 0.79374 1.3979 0.79375 2.5268"/>
  <path id="path3156" style="" d="m306.19 112.78v2.1034h2.5069v0.94589h-2.5069v4.0217c0 0.60414 0.0816 0.99219 0.24475 1.1642 0.16756 0.17198 0.50491 0.25797 1.012 0.25797h1.2502v1.0186h-1.2502c-0.93928 0-1.5875-0.17418-1.9447-0.52255-0.35719-0.35278-0.53579-0.99219-0.53579-1.9182v-4.0217h-0.89297v-0.94589h0.89297v-2.1034h1.2237"/>
  <path id="path3158" style="" d="m314.59 116.02c-0.13671-0.0794-0.28664-0.1367-0.44979-0.17198-0.15876-0.0397-0.33515-0.0595-0.52917-0.0595-0.68792 0.00001-1.2171 0.2249-1.5875 0.67469-0.36601 0.44539-0.54902 1.087-0.54902 1.9248v3.9026h-1.2237v-7.4084h1.2237v1.1509c0.25577-0.44979 0.5887-0.78272 0.99881-0.99881 0.4101-0.22047 0.9084-0.33072 1.4949-0.33073 0.0838 0.00001 0.17638 0.007 0.27781 0.0198 0.10142 0.009 0.21387 0.0243 0.33735 0.0463l0.007 1.2502"/>
  <path id="path3160" style="" d="m315.88 114.88h1.2171v7.4084h-1.2171v-7.4084m0-2.884h1.2171v1.5412h-1.2171v-1.5412"/>
  <path id="path3162" style="" d="m325.8 114.88-2.6789 3.605 2.8178 3.8034h-1.4354l-2.1564-2.9104-2.1564 2.9104h-1.4354l2.8774-3.8762-2.6326-3.5322h1.4354l1.9645 2.6392 1.9645-2.6392h1.4354"/>
  <path id="path3164" style="" d="m327.54 112h2.8046v0.94589h-1.5875v10.186h1.5875v0.94589h-2.8046v-12.078"/>
  <path id="path3166" style="" d="m335.98 113.3c-0.68792 0-1.2061 0.33955-1.5544 1.0186-0.34396 0.6747-0.51594 1.6911-0.51594 3.0493 0 1.3538 0.17198 2.3702 0.51594 3.0493 0.34837 0.67469 0.86651 1.012 1.5544 1.012 0.69232 0 1.2105-0.33735 1.5544-1.012 0.34836-0.67909 0.52255-1.6955 0.52255-3.0493 0-1.3582-0.17419-2.3746-0.52255-3.0493-0.34396-0.67909-0.86211-1.0186-1.5544-1.0186m0-1.0583c1.1068 0.00001 1.9513 0.43878 2.5334 1.3163 0.58649 0.87314 0.87974 2.1431 0.87974 3.81 0 1.6625-0.29325 2.9325-0.87974 3.81-0.58209 0.87313-1.4266 1.3097-2.5334 1.3097s-1.9535-0.43656-2.54-1.3097c-0.58208-0.87753-0.87312-2.1475-0.87312-3.81 0-1.6669 0.29104-2.9369 0.87312-3.81 0.5865-0.87752 1.4332-1.3163 2.54-1.3163"/>
  <path id="path3168" style="" d="m344.42 112v12.078h-2.8046v-0.94589h1.5809v-10.186h-1.5809v-0.94589h2.8046"/>
  <path id="path3170" style="" d="m346.75 112h2.8046v0.94589h-1.5875v10.186h1.5875v0.94589h-2.8046v-12.078"/>
  <path id="path3172" style="" d="m355.19 113.3c-0.68792 0-1.2061 0.33955-1.5544 1.0186-0.34396 0.6747-0.51594 1.6911-0.51594 3.0493 0 1.3538 0.17198 2.3702 0.51594 3.0493 0.34837 0.67469 0.86651 1.012 1.5544 1.012 0.69233 0 1.2105-0.33735 1.5544-1.012 0.34837-0.67909 0.52255-1.6955 0.52256-3.0493-0.00001-1.3582-0.17419-2.3746-0.52256-3.0493-0.34396-0.67909-0.8621-1.0186-1.5544-1.0186m0-1.0583c1.1068 0.00001 1.9513 0.43878 2.5334 1.3163 0.58648 0.87314 0.87973 2.1431 0.87974 3.81-0.00001 1.6625-0.29326 2.9325-0.87974 3.81-0.5821 0.87313-1.4266 1.3097-2.5334 1.3097s-1.9535-0.43656-2.54-1.3097c-0.58209-0.87753-0.87313-2.1475-0.87313-3.81 0-1.6669 0.29104-2.9369 0.87313-3.81 0.58649-0.87752 1.4332-1.3163 2.54-1.3163"/>
  <path id="path3174" style="" d="m363.63 112v12.078h-2.8046v-0.94589h1.5809v-10.186h-1.5809v-0.94589h2.8046"/>
 </g>
 <g id="text20">
  <path id="path3177" style="" d="m355.1 137.64h-0.59532l-2.6062-2.6062 0.79375-0.79376 1.5478 1.5478v-8.0698h1.1245v8.0698l1.5346-1.5478 0.79375 0.79376-2.5929 2.6062"/>
 </g>
 <g id="text24">
  <path id="path3180" style="" d="m389.34 116.31c0.30426-0.5468 0.66806-0.95029 1.0914-1.2105 0.42332-0.26017 0.92162-0.39026 1.4949-0.39027 0.77169 0.00001 1.367 0.27121 1.7859 0.8136 0.41891 0.53799 0.62837 1.3053 0.62838 2.3019v4.4715h-1.2237v-4.4318c-0.00001-0.70996-0.12568-1.2369-0.37703-1.5809-0.25136-0.34395-0.63501-0.51593-1.1509-0.51594-0.6306 0.00001-1.1289 0.20947-1.4949 0.62839-0.36601 0.41893-0.54902 0.98999-0.54901 1.7132v4.187h-1.2237v-4.4318c-0.00001-0.71437-0.12568-1.2413-0.37703-1.5809-0.25136-0.34395-0.63942-0.51593-1.1642-0.51594-0.62178 0.00001-1.1157 0.21167-1.4817 0.635-0.36601 0.41893-0.54902 0.98779-0.54901 1.7066v4.187h-1.2237v-7.4084h1.2237v1.1509c0.27781-0.4542 0.61074-0.78934 0.9988-1.0054 0.38805-0.21607 0.84887-0.32411 1.3824-0.32412 0.53798 0.00001 0.99439 0.13671 1.3692 0.41011 0.37923 0.27341 0.65925 0.67029 0.84006 1.1906"/>
  <path id="path3182" style="" d="m400.14 118.57c-0.98338 0-1.6647 0.11245-2.0439 0.33735-0.37924 0.22489-0.56886 0.60854-0.56886 1.1509 0 0.43215 0.14111 0.77611 0.42334 1.0319 0.28663 0.25136 0.67468 0.37704 1.1642 0.37704 0.67468 0 1.2149-0.23813 1.6206-0.71438 0.4101-0.48066 0.61515-1.1179 0.61516-1.9116v-0.2712h-1.2105m2.4276-0.50271v4.2267h-1.2171v-1.1245c-0.27782 0.44979-0.62398 0.78273-1.0385 0.9988-0.41452 0.21167-0.92164 0.3175-1.5214 0.3175-0.75848 0-1.3626-0.21166-1.8124-0.635-0.44538-0.42774-0.66808-0.9988-0.66807-1.7132-0.00001-0.83344 0.27781-1.4618 0.83343-1.8852 0.56004-0.42333 1.3935-0.635 2.5003-0.635h1.7066v-0.11906c-0.00001-0.56004-0.18521-0.99219-0.55563-1.2965-0.36601-0.30867-0.88195-0.46301-1.5478-0.46302-0.42334 0.00001-0.83565 0.0507-1.2369 0.15214-0.40129 0.10143-0.78714 0.25356-1.1576 0.45641v-1.1245c0.44538-0.17197 0.87754-0.29985 1.2965-0.38364 0.41893-0.0882 0.82683-0.13229 1.2237-0.1323 1.0716 0.00001 1.8719 0.27783 2.4011 0.83344 0.52917 0.55564 0.79375 1.3979 0.79376 2.5268"/>
  <path id="path3184" style="" d="m406.29 112.78v2.1034h2.5069v0.94589h-2.5069v4.0217c0 0.60414 0.0816 0.99219 0.24474 1.1642 0.16757 0.17198 0.50491 0.25797 1.012 0.25797h1.2502v1.0186h-1.2502c-0.93927 0-1.5875-0.17418-1.9447-0.52255-0.35719-0.35278-0.53578-0.99219-0.53578-1.9182v-4.0217h-0.89297v-0.94589h0.89297v-2.1034h1.2237"/>
  <path id="path3186" style="" d="m414.69 116.02c-0.13671-0.0794-0.28664-0.1367-0.4498-0.17198-0.15875-0.0397-0.33514-0.0595-0.52916-0.0595-0.68793 0.00001-1.2171 0.2249-1.5875 0.67469-0.36601 0.44539-0.54901 1.087-0.54901 1.9248v3.9026h-1.2237v-7.4084h1.2237v1.1509c0.25576-0.44979 0.5887-0.78272 0.99881-0.99881 0.4101-0.22047 0.9084-0.33072 1.4949-0.33073 0.0838 0.00001 0.17639 0.007 0.27782 0.0198 0.10142 0.009 0.21386 0.0243 0.33734 0.0463l0.007 1.2502"/>
  <path id="path3188" style="" d="m415.98 114.88h1.2171v7.4084h-1.2171v-7.4084m0-2.884h1.2171v1.5412h-1.2171v-1.5412"/>
  <path id="path3190" style="" d="m425.9 114.88-2.6789 3.605 2.8178 3.8034h-1.4354l-2.1564-2.9104-2.1564 2.9104h-1.4354l2.8774-3.8762-2.6326-3.5322h1.4354l1.9645 2.6392 1.9645-2.6392h1.4354"/>
  <path id="path3192" style="" d="m427.64 112h2.8046v0.94589h-1.5875v10.186h1.5875v0.94589h-2.8046v-12.078"/>
  <path id="path3194" style="" d="m436.08 113.3c-0.68793 0-1.2061 0.33955-1.5544 1.0186-0.34397 0.6747-0.51595 1.6911-0.51594 3.0493-0.00001 1.3538 0.17197 2.3702 0.51594 3.0493 0.34836 0.67469 0.8665 1.012 1.5544 1.012 0.69232 0 1.2105-0.33735 1.5544-1.012 0.34836-0.67909 0.52254-1.6955 0.52255-3.0493-0.00001-1.3582-0.17419-2.3746-0.52255-3.0493-0.34397-0.67909-0.86211-1.0186-1.5544-1.0186m0-1.0583c1.1068 0.00001 1.9513 0.43878 2.5334 1.3163 0.58649 0.87314 0.87973 2.1431 0.87974 3.81-0.00001 1.6625-0.29325 2.9325-0.87974 3.81-0.58209 0.87313-1.4266 1.3097-2.5334 1.3097s-1.9535-0.43656-2.54-1.3097c-0.58209-0.87753-0.87313-2.1475-0.87313-3.81 0-1.6669 0.29104-2.9369 0.87313-3.81 0.58649-0.87752 1.4332-1.3163 2.54-1.3163"/>
  <path id="path3196" style="" d="m444.52 112v12.078h-2.8046v-0.94589h1.5809v-10.186h-1.5809v-0.94589h2.8046"/>
  <path id="path3198" style="" d="m446.85 112h2.8046v0.94589h-1.5875v10.186h1.5875v0.94589h-2.8046v-12.078"/>
  <path id="path3200" style="" d="m452.44 112.42h5.2454v1.1245h-4.0217v2.4209c0.19403-0.0661 0.38806-0.11465 0.58209-0.14552 0.19402-0.0353 0.38805-0.0529 0.58208-0.0529 1.1024 0.00001 1.9756 0.30207 2.6194 0.9062 0.64382 0.60414 0.96573 1.4221 0.96574 2.454-0.00001 1.0627-0.33074 1.8896-0.99219 2.4805-0.66147 0.5865-1.5941 0.87974-2.798 0.87974-0.41452 0-0.83785-0.0353-1.27-0.10583-0.42775-0.0706-0.87093-0.17639-1.3295-0.3175v-1.3428c0.39688 0.21607 0.80698 0.37703 1.2303 0.48286 0.42333 0.10584 0.87092 0.15875 1.3428 0.15875 0.76288 0 1.367-0.20064 1.8124-0.60193 0.44538-0.40128 0.66807-0.94588 0.66808-1.6338-0.00001-0.68792-0.2227-1.2325-0.66808-1.6338-0.44539-0.40128-1.0495-0.60192-1.8124-0.60193-0.35719 0.00001-0.71438 0.0397-1.0716 0.11907-0.35278 0.0794-0.71438 0.20285-1.0848 0.37041v-4.961"/>
  <path id="path3202" style="" d="m463.73 112v12.078h-2.8046v-0.94589h1.5809v-10.186h-1.5809v-0.94589h2.8046"/>
 </g>
 <g id="text28">
  <path id="path3205" style="" d="m455.1 137.64h-0.59532l-2.6062-2.6062 0.79375-0.79376 1.5478 1.5478v-8.0698h1.1245v8.0698l1.5346-1.5478 0.79375 0.79376-2.5929 2.6062"/>
 </g>
 <g id="g32" transform="translate(-5.2017 -2.4077)">
  <g id="g34">
   <path id="rect36" fill="#fdfd04" d="m350 150h20v20h-20z"/>
   <path id="rect38" d="m350 150h20v20h-20z" stroke="#000" stroke-width="2" fill="none"/>
  </g>
  <g id="g40">
   <path id="rect42" fill="#fdfd04" d="m370 150h20v20h-20z"/>
   <path id="rect44" d="m370 150h20v20h-20z" stroke="#000" stroke-width="2" fill="none"/>
  </g>
  <g id="g46">
   <path id="rect48" fill="#fdfd04" d="m390 150h20v20h-20z"/>
   <path id="rect50" d="m390 150h20v20h-20z" stroke="#000" stroke-width="2" fill="none"/>
  </g>
  <g id="g52">
   <path id="rect54" fill="#fdfd04" d="m410 150h20v20h-20z"/>
   <path id="rect56" d="m410 150h20v20h-20z" stroke="#000" stroke-width="2" fill="none"/>
  </g>
  <g id="g58">
   <path id="rect60" fill="#fdfd04" d="m430 150h20v20h-20z"/>
   <path id="rect62" d="m430 150h20v20h-20z" stroke="#000" stroke-width="2" fill="none"/>
  </g>
  <g id="g64">
   <path id="rect66" fill="#fdfd04" d="m450 150h20v20h-20z"/>
   <path id="rect68" d="m450 150h20v20h-20z" stroke="#000" stroke-width="2" fill="none"/>
  </g>
 </g>
 <g id="g70" transform="translate(-5.2017 -2.4077)">
  <g id="g72">
   <path id="rect74" fill="#7babe3" d="m350 170h20v20h-20z"/>
   <path id="rect76" d="m350 170h20v20h-20z" stroke="#000" stroke-width="2" fill="none"/>
  </g>
  <g id="g78">
   <path id="rect80" fill="#7babe3" d="m370 170h20v20h-20z"/>
   <path id="rect82" d="m370 170h20v20h-20z" stroke="#000" stroke-width="2" fill="none"/>
  </g>
  <g id="g84">
   <path id="rect86" fill="#7babe3" d="m390 170h20v20h-20z"/>
   <path id="rect88" d="m390 170h20v20h-20z" stroke="#000" stroke-width="2" fill="none"/>
  </g>
  <g id="g90">
   <path id="rect92" fill="#7babe3" d="m410 170h20v20h-20z"/>
   <path id="rect94" d="m410 170h20v20h-20z" stroke="#000" stroke-width="2" fill="none"/>
  </g>
  <g id="g96">
   <path id="rect98" fill="#7babe3" d="m430 170h20v20h-20z"/>
   <path id="rect100" d="m430 170h20v20h-20z" stroke="#000" stroke-width="2" fill="none"/>
  </g>
  <g id="g102">
   <path id="rect104" fill="#7babe3" d="m350 190h20v20h-20z"/>
   <path id="rect106" d="m350 190h20v20h-20z" stroke="#000" stroke-width="2" fill="none"/>
  </g>
  <g id="g108">
   <path id="rect110" fill="#7babe3" d="m370 190h20v20h-20z"/>
   <path id="rect112" d="m370 190h20v20h-20z" stroke="#000" stroke-width="2" fill="none"/>
  </g>
  <g id="g114">
   <path id="rect116" fill="#7babe3" d="m390 190h20v20h-20z"/>
   <path id="rect118" d="m390 190h20v20h-20z" stroke="#000" stroke-width="2" fill="none"/>
  </g>
  <g id="g120">
   <path id="rect122" fill="#7babe3" d="m410 190h20v20h-20z"/>
   <path id="rect124" d="m410 190h20v20h-20z" stroke="#000" stroke-width="2" fill="none"/>
  </g>
  <g id="g126">
   <path id="rect128" fill="#7babe3" d="m430 190h20v20h-20z"/>
   <path id="rect130" d="m430 190h20v20h-20z" stroke="#000" stroke-width="2" fill="none"/>
  </g>
  <g id="g132">
   <path id="rect134" fill="#7babe3" d="m350 210h20v20h-20z"/>
   <path id="rect136" d="m350 210h20v20h-20z" stroke="#000" stroke-width="2" fill="none"/>
  </g>
  <g id="g138">
   <path id="rect140" fill="#7babe3" d="m370 210h20v20h-20z"/>
   <path id="rect142" d="m370 210h20v20h-20z" stroke="#000" stroke-width="2" fill="none"/>
  </g>
  <g id="g144">
   <path id="rect146" fill="#7babe3" d="m390 210h20v20h-20z"/>
   <path id="rect148" d="m390 210h20v20h-20z" stroke="#000" stroke-width="2" fill="none"/>
  </g>
  <g id="g150">
   <path id="rect152" fill="#7babe3" d="m410 210h20v20h-20z"/>
   <path id="rect154" d="m410 210h20v20h-20z" stroke="#000" stroke-width="2" fill="none"/>
  </g>
  <g id="g156">
   <path id="rect158" fill="#7babe3" d="m430 210h20v20h-20z"/>
   <path id="rect160" d="m430 210h20v20h-20z" stroke="#000" stroke-width="2" fill="none"/>
  </g>
  <g id="g162">
   <path id="rect164" fill="#7babe3" d="m350 230h20v20h-20z"/>
   <path id="rect166" d="m350 230h20v20h-20z" stroke="#000" stroke-width="2" fill="none"/>
  </g>
  <g id="g168">
   <path id="rect170" fill="#7babe3" d="m370 230h20v20h-20z"/>
   <path id="rect172" d="m370 230h20v20h-20z" stroke="#000" stroke-width="2" fill="none"/>
  </g>
  <g id="g174">
   <path id="rect176" fill="#7babe3" d="m390 230h20v20h-20z"/>
   <path id="rect178" d="m390 230h20v20h-20z" stroke="#000" stroke-width="2" fill="none"/>
  </g>
  <g id="g180">
   <path id="rect182" fill="#7babe3" d="m410 230h20v20h-20z"/>
   <path id="rect184" d="m410 230h20v20h-20z" stroke="#000" stroke-width="2" fill="none"/>
  </g>
  <g id="g186">
   <path id="rect188" fill="#7babe3" d="m430 230h20v20h-20z"/>
   <path id="rect190" d="m430 230h20v20h-20z" stroke="#000" stroke-width="2" fill="none"/>
  </g>
  <g id="g192">
   <path id="rect194" fill="#7babe3" d="m450 170h20v20h-20z"/>
   <path id="rect196" d="m450 170h20v20h-20z" stroke="#000" stroke-width="2" fill="none"/>
  </g>
  <g id="g198">
   <path id="rect200" fill="#7babe3" d="m450 190h20v20h-20z"/>
   <path id="rect202" d="m450 190h20v20h-20z" stroke="#000" stroke-width="2" fill="none"/>
  </g>
  <g id="g204">
   <path id="rect206" fill="#7babe3" d="m450 210h20v20h-20z"/>
   <path id="rect208" d="m450 210h20v20h-20z" stroke="#000" stroke-width="2" fill="none"/>
  </g>
  <g id="g210">
   <path id="rect212" fill="#7babe3" d="m450 230h20v20h-20z"/>
   <path id="rect214" d="m450 230h20v20h-20z" stroke="#000" stroke-width="2" fill="none"/>
  </g>
 </g>
</svg>
