<?xml version="1.0" encoding="UTF-8" standalone="no"?>
<!-- Created with Inkscape (http://www.inkscape.org/) -->
<svg id="svg2" xmlns:rdf="http://www.w3.org/1999/02/22-rdf-syntax-ns#" xmlns="http://www.w3.org/2000/svg" height="246.01" width="205.68" version="1.1" xmlns:cc="http://creativecommons.org/ns#" xmlns:dc="http://purl.org/dc/elements/1.1/" viewBox="138 69 99.650413 122">
 <metadata id="metadata52">
  <rdf:RDF>
   <cc:Work rdf:about="">
    <dc:format>image/svg+xml</dc:format>
    <dc:type rdf:resource="http://purl.org/dc/dcmitype/StillImage"/>
   </cc:Work>
  </rdf:RDF>
 </metadata>
 <g id="g4" transform="translate(-2.1748)">
  <path id="rect6" fill="#fff" d="m140 90h100v80h-100z"/>
  <path id="rect8" d="m140 90h100v80h-100z" stroke="#000" stroke-width="2" fill="none"/>
 </g>
 <g id="g14" transform="translate(-2.1748)">
  <path id="rect16" d="m140 130h100v40h-100z" stroke="#fff" stroke-width="2" fill="none"/>
  <g id="text18">
   <path id="path3009" style="" d="m173.1 145.38v0.75902h-0.87313c-0.32742 0.00001-0.55563 0.0661-0.68461 0.19844-0.12568 0.1323-0.18851 0.37042-0.18851 0.71437v0.49114h1.5032v0.70941h-1.5032v4.8468h-0.91778v-4.8468h-0.87312v-0.70941h0.87312v-0.38696c0-0.61845 0.14387-1.0682 0.43161-1.3494 0.28773-0.28442 0.74413-0.42663 1.3692-0.42664h0.86321"/>
   <path id="path3011" style="" d="m178.61 150.09v0.44648h-4.197c0.0397 0.62839 0.2282 1.108 0.56554 1.4387 0.34065 0.32743 0.81359 0.49114 1.4188 0.49114 0.35057 0 0.68957-0.043 1.017-0.12899 0.33073-0.086 0.65815-0.21497 0.98227-0.38695v0.8632c-0.32743 0.13891-0.66312 0.24474-1.0071 0.3175-0.34396 0.0728-0.69288 0.10914-1.0468 0.10914-0.88636 0-1.5892-0.25797-2.1084-0.7739-0.51594-0.51594-0.77391-1.2138-0.7739-2.0935-0.00001-0.9095 0.24473-1.6305 0.73421-2.163 0.49279-0.53577 1.1559-0.80366 1.9893-0.80367 0.74744 0.00001 1.3378 0.24144 1.771 0.7243 0.43656 0.47956 0.65484 1.1328 0.65485 1.9596m-0.91281-0.26789c-0.007-0.4994-0.14718-0.89793-0.42168-1.1956-0.27121-0.29765-0.6317-0.44648-1.0815-0.44648-0.50932 0-0.91777 0.14387-1.2254 0.4316-0.30427 0.28774-0.47956 0.69288-0.52586 1.2154l3.2544-0.005"/>
   <path id="path3013" style="" d="m180.11 145.38h0.91281v7.7192h-0.91281v-7.7192"/>
   <path id="path3015" style="" d="m183.83 145.97v1.5776h1.8802v0.70941h-1.8802v3.0162c0 0.4531 0.0612 0.74414 0.18356 0.87313 0.12567 0.12898 0.37868 0.19347 0.75902 0.19347h0.93762v0.76399h-0.93762c-0.70445 0-1.1906-0.13064-1.4585-0.39192-0.26789-0.26458-0.40184-0.74414-0.40184-1.4387v-3.0162h-0.66973v-0.70941h0.66973v-1.5776h0.91777"/>
   <path id="path3017" style="" d="m191.67 150.09v0.44648h-4.197c0.0397 0.62839 0.2282 1.108 0.56555 1.4387 0.34065 0.32743 0.81359 0.49114 1.4188 0.49114 0.35057 0 0.68956-0.043 1.017-0.12899 0.33072-0.086 0.65815-0.21497 0.98227-0.38695v0.8632c-0.32743 0.13891-0.66312 0.24474-1.0071 0.3175-0.34397 0.0728-0.69289 0.10914-1.0468 0.10914-0.88636 0-1.5892-0.25797-2.1084-0.7739-0.51594-0.51594-0.77391-1.2138-0.77391-2.0935 0-0.9095 0.24474-1.6305 0.73422-2.163 0.49279-0.53577 1.1559-0.80366 1.9893-0.80367 0.74744 0.00001 1.3378 0.24144 1.771 0.7243 0.43656 0.47956 0.65484 1.1328 0.65485 1.9596m-0.91282-0.26789c-0.007-0.4994-0.14718-0.89793-0.42168-1.1956-0.2712-0.29765-0.63169-0.44648-1.0815-0.44648-0.50933 0-0.91778 0.14387-1.2254 0.4316-0.30427 0.28774-0.47956 0.69288-0.52586 1.2154l3.2544-0.005m-0.87808-4.8518h0.98722l-1.6173 1.8653h-0.75902l1.3891-1.8653"/>
   <path id="path3019" style="" d="m194.07 145.97v1.5776h1.8802v0.70941h-1.8802v3.0162c0 0.4531 0.0612 0.74414 0.18355 0.87313 0.12568 0.12898 0.37869 0.19347 0.75903 0.19347h0.93761v0.76399h-0.93761c-0.70446 0-1.1906-0.13064-1.4585-0.39192-0.26789-0.26458-0.40184-0.74414-0.40183-1.4387v-3.0162h-0.66973v-0.70941h0.66973v-1.5776h0.91777"/>
   <path id="path3021" style="" d="m201.91 150.09v0.44648h-4.197c0.0397 0.62839 0.2282 1.108 0.56554 1.4387 0.34065 0.32743 0.8136 0.49114 1.4188 0.49114 0.35057 0 0.68957-0.043 1.017-0.12899 0.33073-0.086 0.65815-0.21497 0.98227-0.38695v0.8632c-0.32743 0.13891-0.66312 0.24474-1.0071 0.3175-0.34396 0.0728-0.69288 0.10914-1.0468 0.10914-0.88635 0-1.5892-0.25797-2.1084-0.7739-0.51593-0.51594-0.7739-1.2138-0.7739-2.0935 0-0.9095 0.24474-1.6305 0.73422-2.163 0.49278-0.53577 1.1559-0.80366 1.9893-0.80367 0.74745 0.00001 1.3378 0.24144 1.7711 0.7243 0.43655 0.47956 0.65483 1.1328 0.65484 1.9596m-0.91281-0.26789c-0.007-0.4994-0.14718-0.89793-0.42168-1.1956-0.2712-0.29765-0.6317-0.44648-1.0815-0.44648-0.50932 0-0.91777 0.14387-1.2254 0.4316-0.30427 0.28774-0.47956 0.69288-0.52586 1.2154l3.2544-0.005"/>
   <path id="path3023" style="" d="m203.41 145.38h0.91282v7.7192h-0.91282v-7.7192"/>
   <path id="path3025" style="" d="m207.21 151.84h1.0071v1.2601h-1.0071v-1.2601m0.97731-0.72926h-0.94754v-0.76398c0-0.33404 0.0463-0.60854 0.1389-0.82352 0.0926-0.21497 0.28774-0.46467 0.58539-0.7491l0.44649-0.44152c0.18851-0.17529 0.32411-0.34065 0.4068-0.4961 0.086-0.15544 0.12898-0.31419 0.12898-0.47625 0-0.29434-0.10914-0.53247-0.32742-0.71437-0.21498-0.1819-0.50106-0.27285-0.85824-0.27286-0.26128 0.00001-0.54075 0.0579-0.8384 0.17364-0.29435 0.11576-0.60193 0.28443-0.92274 0.50601v-0.93265c0.31089-0.18851 0.62508-0.32907 0.94258-0.42168 0.32081-0.0926 0.65154-0.1389 0.99219-0.13891 0.60854 0.00001 1.0964 0.16041 1.4635 0.48121 0.37041 0.32082 0.55562 0.74415 0.55562 1.27 0 0.25136-0.0595 0.49114-0.17859 0.71934-0.11907 0.2249-0.32743 0.47956-0.62508 0.76398l-0.43656 0.42664c-0.15545 0.15545-0.26624 0.27782-0.33239 0.36711-0.0628 0.086-0.10749 0.17033-0.13394 0.25301-0.0198 0.0695-0.0347 0.15379-0.0446 0.25301-0.01 0.0992-0.0149 0.23482-0.0149 0.40679v0.6102"/>
  </g>
 </g>
 <g id="g22" transform="translate(-2.1748)">
  <path id="rect24" fill="#fff" d="m160 90h80v40h-80z"/>
  <path id="rect26" d="m160 90h80v40h-80z" stroke="#000" stroke-width="2" fill="none"/>
  <g id="text28">
   <path id="path3030" style="" d="m179.23 107.76v0.85328c-0.25797-0.14221-0.51759-0.24804-0.77886-0.3175-0.25797-0.0728-0.51925-0.10914-0.78383-0.10914-0.59201 0-1.0517 0.18852-1.3791 0.56555-0.32742 0.37372-0.49114 0.89958-0.49113 1.5776-0.00001 0.678 0.16371 1.2055 0.49113 1.5825 0.32742 0.37373 0.78713 0.56059 1.3791 0.56059 0.26458 0 0.52586-0.0347 0.78383-0.10418 0.26127-0.0728 0.52089-0.18025 0.77886-0.32246v0.84336c-0.25466 0.11906-0.51924 0.20836-0.79374 0.26789-0.27121 0.0595-0.56059 0.0893-0.86817 0.0893-0.83675 0-1.5015-0.26293-1.9943-0.78879-0.49278-0.52586-0.73918-1.2353-0.73918-2.1282 0-0.90619 0.24805-1.6189 0.74415-2.1382 0.49939-0.51924 1.1824-0.77886 2.0489-0.77887 0.28112 0.00001 0.55562 0.0298 0.82352 0.0893 0.26788 0.0562 0.52751 0.14222 0.77886 0.25797"/>
   <path id="path3032" style="" d="m180.83 107.54h0.91281v5.5562h-0.91281v-5.5562m0-2.163h0.91281v1.1559h-0.91281v-1.1559"/>
   <path id="path3034" style="" d="m183.61 105.38h0.91778v4.5591l2.7236-2.3961h1.1658l-2.9468 2.5995 3.0708 2.9567h-1.1906l-2.8228-2.7136v2.7136h-0.91778v-7.7192"/>
   <path id="path3036" style="" d="m189.54 105.38h0.91282v7.7192h-0.91282v-7.7192"/>
   <path id="path3038" style="" d="m192.26 110.91v-3.3635h0.91281v3.3288c0 0.52586 0.10252 0.92108 0.30758 1.1857 0.20505 0.26128 0.51263 0.39192 0.92273 0.39192 0.49279 0 0.88139-0.1571 1.1658-0.47129 0.28773-0.31419 0.4316-0.74249 0.4316-1.2849v-3.1502h0.91282v5.5562h-0.91282v-0.85328c-0.22159 0.33734-0.47956 0.5887-0.7739 0.75406-0.29105 0.16206-0.63004 0.24309-1.017 0.24309-0.63831 0-1.1228-0.19844-1.4536-0.59532-0.33073-0.39687-0.49609-0.9773-0.49609-1.7413m2.2969-3.4975"/>
   <path id="path3040" style="" d="m202.35 107.71v0.8632c-0.25797-0.13228-0.52586-0.2315-0.80367-0.29765-0.27781-0.0661-0.56555-0.0992-0.8632-0.0992-0.4531 0-0.79375 0.0695-1.022 0.20836-0.2249 0.13891-0.33735 0.34727-0.33735 0.62508 0 0.21167 0.081 0.37868 0.24309 0.50105 0.16205 0.11907 0.48782 0.23317 0.9773 0.3423l0.31254 0.0695c0.64823 0.13891 1.1079 0.33569 1.3791 0.59035 0.2745 0.25136 0.41176 0.60358 0.41176 1.0567 0 0.51594-0.20506 0.92439-0.61516 1.2254-0.4068 0.30096-0.96738 0.45145-1.6818 0.45145-0.29766 0-0.60855-0.0298-0.93266-0.0893-0.32081-0.0562-0.65981-0.14221-1.017-0.25797v-0.94258c0.33734 0.17529 0.66972 0.30758 0.99715 0.39688 0.32742 0.086 0.65153 0.12898 0.97234 0.12898 0.42994 0 0.76067-0.0728 0.99219-0.21828 0.2315-0.14883 0.34726-0.35719 0.34726-0.62508 0-0.24804-0.0843-0.43821-0.253-0.57051-0.16537-0.13229-0.53083-0.25962-1.0964-0.38199l-0.3175-0.0744c-0.56555-0.11906-0.974-0.30096-1.2254-0.54571-0.25136-0.24804-0.37704-0.58704-0.37703-1.017-0.00001-0.52254 0.1852-0.92603 0.55562-1.2105 0.37042-0.28442 0.89627-0.42663 1.5776-0.42664 0.33734 0.00001 0.65484 0.0248 0.9525 0.0744 0.29765 0.0496 0.57216 0.12403 0.82351 0.22324"/>
   <path id="path3042" style="" d="m208.43 108.61c0.2282-0.4101 0.50105-0.71272 0.81856-0.90785 0.31749-0.19513 0.69121-0.29269 1.1212-0.2927 0.57877 0.00001 1.0252 0.20341 1.3394 0.6102 0.31419 0.40349 0.47128 0.97896 0.47129 1.7264v3.3536h-0.91777v-3.3238c-0.00001-0.53247-0.0943-0.92769-0.28278-1.1857-0.18852-0.25797-0.47625-0.38695-0.8632-0.38696-0.47295 0.00001-0.84667 0.1571-1.1212 0.47129-0.27451 0.3142-0.41176 0.74249-0.41176 1.2849v3.1403h-0.91777v-3.3238c-0.00001-0.53578-0.0943-0.931-0.28278-1.1857-0.18851-0.25797-0.47956-0.38695-0.87312-0.38696-0.46633 0.00001-0.83675 0.15876-1.1112 0.47625-0.27451 0.3142-0.41176 0.74084-0.41176 1.2799v3.1403h-0.91777v-5.5562h0.91777v0.8632c0.20836-0.34064 0.45806-0.592 0.7491-0.75406 0.29104-0.16205 0.63665-0.24308 1.0368-0.24309 0.40349 0.00001 0.74579 0.10253 1.0269 0.30758 0.28443 0.20506 0.49444 0.50271 0.63004 0.89297"/>
   <path id="path3044" style="" d="m216.53 110.31c-0.73753 0-1.2485 0.0843-1.5329 0.25301-0.28443 0.16867-0.42665 0.45641-0.42664 0.8632-0.00001 0.32412 0.10583 0.58209 0.3175 0.77391 0.21497 0.18851 0.50601 0.28277 0.87312 0.28277 0.50601 0 0.91116-0.17859 1.2154-0.53578 0.30757-0.36049 0.46136-0.8384 0.46137-1.4337v-0.2034h-0.90785m1.8207-0.37703v3.17h-0.91281v-0.84336c-0.20837 0.33734-0.46799 0.58704-0.77887 0.7491-0.31089 0.15875-0.69123 0.23813-1.141 0.23813-0.56885 0-1.022-0.15875-1.3593-0.47625-0.33404-0.32081-0.50106-0.7491-0.50106-1.2849 0-0.62507 0.20836-1.0964 0.62508-1.4139 0.42003-0.3175 1.0451-0.47625 1.8752-0.47625h1.2799v-0.0893c-0.00001-0.42002-0.13891-0.74414-0.41672-0.97234-0.27451-0.23151-0.66146-0.34727-1.1609-0.34727-0.3175 0-0.62674 0.038-0.9277 0.1141s-0.59035 0.19017-0.86816 0.34231v-0.84336c0.33403-0.12898 0.65815-0.22489 0.97234-0.28774 0.31419-0.0661 0.62012-0.0992 0.91778-0.0992 0.80366 0.00001 1.4039 0.20837 1.8008 0.62508 0.39687 0.41672 0.5953 1.0484 0.59531 1.8951"/>
   <path id="path3046" style="" d="m223.89 110.26c0-0.66145-0.13725-1.1741-0.41175-1.5379-0.27121-0.3638-0.6532-0.5457-1.146-0.5457-0.48948 0-0.87147 0.1819-1.146 0.5457-0.2712 0.36381-0.4068 0.87644-0.40679 1.5379-0.00001 0.65815 0.13559 1.1691 0.40679 1.5329 0.27451 0.3638 0.6565 0.5457 1.146 0.5457 0.49278 0 0.87477-0.1819 1.146-0.5457 0.2745-0.3638 0.41175-0.87478 0.41175-1.5329m0.91282 2.153c-0.00001 0.94588-0.21002 1.6487-0.63004 2.1084-0.42003 0.46302-1.0633 0.69453-1.9298 0.69453-0.32081 0-0.62342-0.0248-0.90785-0.0744-0.28443-0.0463-0.56059-0.11906-0.82848-0.21828v-0.88801c0.26789 0.14552 0.53248 0.25301 0.79375 0.32247 0.26128 0.0695 0.52751 0.10417 0.79871 0.10418 0.59862-0.00001 1.0468-0.1571 1.3444-0.47129 0.29765-0.31089 0.44648-0.78218 0.44648-1.4139v-0.45145c-0.18852 0.32743-0.42995 0.57217-0.72429 0.73422-0.29436 0.16206-0.64658 0.24309-1.0567 0.24309-0.68131 0-1.2303-0.25962-1.647-0.77887-0.41672-0.51924-0.62508-1.2072-0.62508-2.0638 0-0.85989 0.20836-1.5495 0.62508-2.0687 0.41671-0.51924 0.96572-0.77886 1.647-0.77887 0.4101 0.00001 0.76232 0.081 1.0567 0.24309 0.29434 0.16206 0.53577 0.4068 0.72429 0.73422v-0.84336h0.91282v4.8667"/>
  </g>
 </g>
 <g id="g32" transform="translate(-2.1748)">
  <path id="rect34" d="m140 90h100v80h-100z" stroke="#000" stroke-width="2" fill="none"/>
 </g>
 <path id="line40" d="m137.83 190v-20" stroke="#000" stroke-width="2" fill="none"/>
 <path id="line42" d="m237.83 190v-20" stroke="#000" stroke-width="2" fill="none"/>
 <path id="line44" d="m137.83 70v20" stroke="#000" stroke-width="2" fill="none"/>
 <path id="line46" d="m237.83 70v20" stroke="#000" stroke-width="2" fill="none"/>
</svg>
