<?xml version="1.0" encoding="UTF-8" standalone="no"?>
<!-- Created with Inkscape (http://www.inkscape.org/) -->
<svg id="svg2" xmlns:rdf="http://www.w3.org/1999/02/22-rdf-syntax-ns#" xmlns="http://www.w3.org/2000/svg" height="203.31" width="281.51" version="1.1" xmlns:cc="http://creativecommons.org/ns#" xmlns:dc="http://purl.org/dc/elements/1.1/" viewBox="297 97 144 100.41379">
 <metadata id="metadata96">
  <rdf:RDF>
   <cc:Work rdf:about="">
    <dc:format>image/svg+xml</dc:format>
    <dc:type rdf:resource="http://purl.org/dc/dcmitype/StillImage"/>
   </cc:Work>
  </rdf:RDF>
 </metadata>
 <path id="line4" d="m299 97.207v20" stroke="#000" stroke-width="4" fill="none"/>
 <path id="line6" d="m299 97.207h20" stroke="#000" stroke-width="4" fill="none"/>
 <path id="line8" d="m319 97.207v20" stroke="#000" stroke-width="4" fill="none"/>
 <path id="line10" d="m299 117.21v20" stroke="#000" stroke-width="4" fill="none"/>
 <path id="line12" d="m299 137.21v20" stroke="#000" stroke-width="4" fill="none"/>
 <path id="line14" d="m299 137.21h20" stroke="#000" stroke-width="4" fill="none"/>
 <path id="line16" d="m319 137.21v20" stroke="#000" stroke-width="4" fill="none"/>
 <path id="line18" d="m339 137.21v20" stroke="#00c000" stroke-width="4" fill="none"/>
 <path id="line20" d="m339 157.21v20" stroke="#00c000" stroke-width="4" fill="none"/>
 <path id="line22" d="m339 177.21h-20" stroke="#00c000" stroke-width="4" fill="none"/>
 <path id="line24" d="m339 97.207v20" stroke="#f00" stroke-width="4" fill="none"/>
 <path id="line26" d="m359 97.207v20" stroke="#f00" stroke-width="4" fill="none"/>
 <path id="line28" d="m339 117.21h20" stroke="#f00" stroke-width="4" fill="none"/>
 <path id="line30" d="m359 117.21v20" stroke="#f00" stroke-width="4" fill="none"/>
 <path id="line32" d="m359 137.21v20" stroke="#f00" stroke-width="4" fill="none"/>
 <path id="line34" d="m359 157.21h20" stroke="#f00" stroke-width="4" fill="none"/>
 <path id="line36" d="m399 177.21v-20" stroke="#f00" stroke-width="4" fill="none"/>
 <path id="line38" d="m399 157.21h-20" stroke="#f00" stroke-width="4" fill="none"/>
 <path id="line40" d="m379 157.21v-20" stroke="#f00" stroke-width="4" fill="none"/>
 <path id="line42" d="m379 137.21h20" stroke="#f00" stroke-width="4" fill="none"/>
 <path id="line44" d="m399 137.21h20" stroke="#f00" stroke-width="4" fill="none"/>
 <path id="line46" d="m419 137.21v20" stroke="#f00" stroke-width="4" fill="none"/>
 <path id="line48" d="m419 157.21v20" stroke="#f00" stroke-width="4" fill="none"/>
 <path id="line50" d="m399 97.207v20" stroke="#00f" stroke-width="4" fill="none"/>
 <path id="line52" d="m379 97.207v20" stroke="#00f" stroke-width="4" fill="none"/>
 <path id="line54" d="m399 117.21h-20" stroke="#00f" stroke-width="4" fill="none"/>
 <path id="line56" d="m399 117.21h20" stroke="#00f" stroke-width="4" fill="none"/>
 <path id="line58" d="m419 97.207v20" stroke="#00f" stroke-width="4" fill="none"/>
 <path id="line60" d="m439 117.21h-20" stroke="#00f" stroke-width="4" fill="none"/>
 <path id="line62" d="m439 97.207v20" stroke="#00f" stroke-width="4" fill="none"/>
 <path id="line64" d="m439 117.21v20" stroke="#00f" stroke-width="4" fill="none"/>
 <path id="line66" d="m439 137.21v20" stroke="#00f" stroke-width="4" fill="none"/>
 <path id="line68" d="m439 157.21v20" stroke="#00f" stroke-width="4" fill="none"/>
 <path id="line70" d="m359 177.21h-20" stroke="#00c000" stroke-width="4" fill="none"/>
 <path id="line72" d="m319 177.21v20" stroke="#00c000" stroke-width="4" fill="none"/>
 <path id="line74" d="m339 177.21v20" stroke="#00c000" stroke-width="4" fill="none"/>
 <path id="line76" d="m379 177.21v-20" stroke="#f00" stroke-width="4" fill="none"/>
 <path id="line78" d="m439 177.21v20" stroke="#00f" stroke-width="4" fill="none"/>
 <path id="line80" d="m379 197.21v-20" stroke="#f00" stroke-width="4" fill="none"/>
 <path id="line82" d="m399 177.21v20" stroke="#f00" stroke-width="4" fill="none"/>
 <path id="line84" d="m439 197.21h-20" stroke="#00f" stroke-width="4" fill="none"/>
 <path id="line86" d="m299 177.21v20" stroke="#000" stroke-width="4" fill="none"/>
 <path id="line88" d="m299 157.21v20" stroke="#000" stroke-width="4" fill="none"/>
 <path id="line90" d="m359 177.21v20" stroke="#00c000" stroke-width="4" fill="none"/>
</svg>
