<?xml version="1.0" encoding="UTF-8" standalone="no"?>
<!-- Created with Inkscape (http://www.inkscape.org/) -->
<svg id="svg2" xmlns:rdf="http://www.w3.org/1999/02/22-rdf-syntax-ns#" xmlns="http://www.w3.org/2000/svg" height="304.22" width="701.08" version="1.1" xmlns:cc="http://creativecommons.org/ns#" xmlns:dc="http://purl.org/dc/elements/1.1/" viewBox="2 -93 391.76401 162.17734">
 <metadata id="metadata232">
  <rdf:RDF>
   <cc:Work rdf:about="">
    <dc:format>image/svg+xml</dc:format>
    <dc:type rdf:resource="http://purl.org/dc/dcmitype/StillImage"/>
   </cc:Work>
  </rdf:RDF>
 </metadata>
 <g id="g4" transform="translate(-1 -3.9113)">
  <path id="rect6" fill="#fff" d="m40-12h24v24h-24z"/>
  <path id="rect8" d="m40-12h24v24h-24z" stroke="#000" stroke-width="2" fill="none"/>
 </g>
 <g id="text10">
  <path id="path3099" style="" d="m51.465-2.9757c-0.93462 0.0000035-1.5821 0.10688-1.9426 0.32062-0.36044 0.21375-0.54065 0.57837-0.54065 1.0939-0.000002 0.41073 0.13411 0.73763 0.40234 0.98071 0.27242 0.23889 0.64123 0.35834 1.1064 0.35834 0.64123 7.9e-7 1.1546-0.22632 1.5402-0.67896 0.38976-0.45683 0.58465-1.0624 0.58466-1.8168v-0.25775h-1.1505m2.3072-0.47778v4.0172h-1.1567v-1.0687c-0.26404 0.42749-0.59304 0.74392-0.987 0.94928-0.39397 0.20117-0.87594 0.30176-1.4459 0.30176-0.72087-1.8e-7 -1.295-0.20117-1.7225-0.60352-0.4233-0.40653-0.63495-0.94928-0.63495-1.6282 0-0.79211 0.26404-1.3893 0.79212-1.7917 0.53226-0.40234 1.3244-0.60351 2.3763-0.60352h1.6219v-0.11316c-0.000006-0.53226-0.17603-0.94299-0.52808-1.2322-0.34786-0.29337-0.83822-0.44006-1.4711-0.44006-0.40235 0.0000062-0.79421 0.048204-1.1756 0.14459-0.38139 0.096401-0.74811 0.24099-1.1002 0.43378v-1.0687c0.4233-0.16345 0.83402-0.28499 1.2322-0.36462 0.39815-0.083814 0.78582-0.12573 1.163-0.12573 1.0184 0.0000072 1.7791 0.26404 2.282 0.79211 0.50292 0.52808 0.75439 1.3286 0.7544 2.4015"/>
 </g>
 <g id="g14" transform="translate(-1 -3.9113)">
  <path id="rect16" fill="#fff" d="m100-12h24v24h-24z"/>
  <path id="rect18" d="m100-12h24v24h-24z" stroke="#000" stroke-width="2" fill="none"/>
 </g>
 <g id="text20">
  <path id="path3104" style="" d="m113.18-2.9506c-0.00001-0.85078-0.17603-1.5172-0.52808-1.9991-0.34786-0.48616-0.82774-0.72924-1.4396-0.72925-0.61191 0.0000063-1.0939 0.24309-1.4459 0.72925-0.34786 0.48198-0.52179 1.1484-0.52179 1.9991 0 0.85079 0.17393 1.5193 0.52179 2.0054 0.35205 0.48198 0.83402 0.72296 1.4459 0.72296 0.61189 7.9e-7 1.0918-0.24099 1.4396-0.72296 0.35205-0.48616 0.52807-1.1546 0.52808-2.0054m-3.9354-2.4581c0.24308-0.4191 0.54903-0.72924 0.91785-0.93042 0.373-0.20536 0.81726-0.30804 1.3328-0.30804 0.85498 0.0000072 1.5486 0.33948 2.0809 1.0184 0.53646 0.67896 0.80468 1.5717 0.80469 2.6781-0.00001 1.1064-0.26823 1.9991-0.80469 2.6781-0.53227 0.67896-1.2259 1.0184-2.0809 1.0184-0.5155-1.8e-7 -0.95976-0.10059-1.3328-0.30176-0.36882-0.20536-0.67477-0.5176-0.91785-0.93671v1.0562h-1.163v-9.782h1.163v3.8097"/>
 </g>
 <g id="g24" transform="translate(-1 -3.9113)">
  <path id="line26" d="m68 0h18.264" stroke="#000" stroke-width="2" fill="none"/>
  <path id="polygon28" d="m86.264 0-2.5-5 10 5-10 5z"/>
  <path id="polygon30" d="m86.264 0-2.5-5 10 5-10 5z" stroke="#000" stroke-width="2" fill="none"/>
 </g>
 <g id="g32" transform="translate(-1 -3.9113)">
  <path id="rect34" fill="#fff" d="m160-44h24v24h-24z"/>
  <path id="rect36" d="m160-44h24v24h-24z" stroke="#000" stroke-width="2" fill="none"/>
 </g>
 <g id="text38">
  <path id="path3112" style="" d="m173.73-38.207v1.0813c-0.32691-0.18021-0.65591-0.31432-0.987-0.40234-0.32691-0.0922-0.658-0.1383-0.99329-0.1383-0.7502 0.000006-1.3328 0.2389-1.7477 0.71668-0.41492 0.4736-0.62237 1.14-0.62237 1.9991 0 0.85917 0.20745 1.5277 0.62237 2.0054 0.41492 0.47359 0.99748 0.71039 1.7477 0.71039 0.33529 0.000001 0.66638-0.044 0.99329-0.13202 0.33109-0.0922 0.66009-0.22841 0.987-0.40863v1.0687c-0.32272 0.15088-0.65801 0.26404-1.0059 0.33948-0.34367 0.07544-0.71039 0.11316-1.1002 0.11316-1.0603 0-1.9028-0.33319-2.5272-0.99957-0.62447-0.66638-0.93671-1.5654-0.93671-2.697 0-1.1484 0.31433-2.0515 0.943-2.7095 0.63285-0.65799 1.4983-0.98699 2.5964-0.987 0.35624 0.000007 0.7041 0.03773 1.0436 0.11316 0.33947 0.07126 0.66847 0.18022 0.987 0.3269"/>
 </g>
 <g id="g42" transform="translate(-1 -3.9113)">
  <path id="line44" d="m126.99-2.6575 22.74-20.216" stroke="#000" stroke-width="2" fill="none"/>
  <path id="polygon46" d="m149.73-22.874-5.191-2.0761 10.796-2.9066-4.152 10.381z"/>
  <path id="polygon48" d="m149.73-22.874-5.191-2.0761 10.796-2.9066-4.152 10.381z" stroke="#000" stroke-width="2" fill="none"/>
 </g>
 <g id="g50" transform="translate(-1 -3.9113)">
  <path id="line52" d="m4 0h22.264" stroke="#000" stroke-width="2" fill="none"/>
  <path id="polygon54" d="m26.264 0-2.5-5 10 5-10 5z"/>
  <path id="polygon56" d="m26.264 0-2.5-5 10 5-10 5z" stroke="#000" stroke-width="2" fill="none"/>
 </g>
 <g id="g58" transform="translate(-1 -3.9113)">
  <path id="rect60" fill="#fff" d="m160 20h24v24h-24z"/>
  <path id="rect62" d="m160 20h24v24h-24z" stroke="#000" stroke-width="2" fill="none"/>
 </g>
 <g id="text64">
  <path id="path3123" style="" d="m172.76 26.591v-3.8097h1.1567v9.782h-1.1567v-1.0562c-0.24308 0.41911-0.55113 0.73134-0.92413 0.93671-0.36882 0.20117-0.81307 0.30176-1.3328 0.30176-0.8508 0-1.5444-0.33948-2.0809-1.0184-0.53227-0.67895-0.79841-1.5717-0.79841-2.6781s0.26614-1.9991 0.79841-2.6781c0.53645-0.67895 1.2301-1.0184 2.0809-1.0184 0.51969 0.000007 0.96394 0.10269 1.3328 0.30804 0.373 0.20118 0.68105 0.51132 0.92413 0.93042m-3.9417 2.4581c0 0.85079 0.17393 1.5193 0.52179 2.0054 0.35205 0.48198 0.83402 0.72296 1.4459 0.72296 0.6119 0 1.0939-0.24099 1.4459-0.72296 0.35204-0.48616 0.52807-1.1546 0.52807-2.0054 0-0.85078-0.17603-1.5172-0.52807-1.9991-0.35206-0.48616-0.83403-0.72924-1.4459-0.72925-0.6119 0.000006-1.0939 0.24309-1.4459 0.72925-0.34786 0.48198-0.52179 1.1484-0.52179 1.9991"/>
 </g>
 <g id="g68" transform="translate(-1 -3.9113)">
  <path id="line70" d="m126.99 2.6575 22.74 20.216" stroke="#000" stroke-width="2" fill="none"/>
  <path id="polygon72" d="m149.73 22.874 1.453-5.398 4.152 10.381-10.796-2.9066z"/>
  <path id="polygon74" d="m149.73 22.874 1.453-5.398 4.152 10.381-10.796-2.9066z" stroke="#000" stroke-width="2" fill="none"/>
 </g>
 <g id="g76" transform="translate(-1 -3.9113)">
  <path id="rect78" fill="#fff" d="m220 52h24v24h-24z"/>
  <path id="rect80" d="m220 52h24v24h-24z" stroke="#000" stroke-width="2" fill="none"/>
 </g>
 <g id="text82">
  <path id="path3131" style="" d="m234.28 60.754v0.5658h-5.3185c0.0503 0.79631 0.28918 1.404 0.71667 1.8231 0.43168 0.41492 1.031 0.62238 1.798 0.62238 0.44425 0.000001 0.87383-0.05448 1.2888-0.16345 0.41911-0.10897 0.83402-0.27242 1.2448-0.49036v1.0939c-0.41492 0.17602-0.84031 0.31014-1.2762 0.40234-0.43588 0.0922-0.87804 0.1383-1.3265 0.1383-1.1232 0-2.0138-0.3269-2.6718-0.98071-0.65381-0.65381-0.98071-1.5381-0.98071-2.653 0-1.1525 0.31014-2.0662 0.93042-2.741 0.62447-0.67895 1.4648-1.0184 2.5209-1.0184 0.94718 0.000007 1.6953 0.30596 2.2443 0.91785 0.55321 0.60771 0.82982 1.4354 0.82983 2.4832m-1.1567-0.33948c-0.008-0.63285-0.18651-1.1379-0.53436-1.5151-0.34368-0.37719-0.8005-0.56579-1.3705-0.5658-0.64543 0.000006-1.163 0.18232-1.5528 0.54694-0.38558 0.36463-0.60771 0.87804-0.66638 1.5402l4.124-0.0063"/>
 </g>
 <g id="g86" transform="translate(-1 -3.9113)">
  <path id="line88" d="m186.99 34.658 22.744 20.217" stroke="#000" stroke-width="2" fill="none"/>
  <path id="polygon90" d="m209.73 54.874 1.453-5.398 4.152 10.381-10.796-2.9066z"/>
  <path id="polygon92" d="m209.73 54.874 1.453-5.398 4.152 10.381-10.796-2.9066z" stroke="#000" stroke-width="2" fill="none"/>
 </g>
 <g id="g94" transform="translate(-1 -3.9113)">
  <path id="rect96" fill="#fff" d="m220-12h24v24h-24z"/>
  <path id="rect98" d="m220-12h24v24h-24z" stroke="#000" stroke-width="2" fill="none"/>
 </g>
 <g id="text100">
  <path id="path3139" style="" d="m233.51-9.2183v0.96185h-1.1064c-0.41492 0.0000088-0.7041 0.08383-0.86755 0.25146-0.15926 0.16765-0.23889 0.46941-0.23889 0.90527v0.62238h1.9048v0.89899h-1.9048v6.142h-1.163v-6.142h-1.1064v-0.89899h1.1064v-0.49036c0-0.78372 0.18231-1.3537 0.54694-1.71 0.36462-0.36042 0.94299-0.54064 1.7351-0.54065h1.0939"/>
 </g>
 <g id="g104" transform="translate(-1 -3.9113)">
  <path id="line106" d="m186.99 29.343 22.74-20.217" stroke="#000" stroke-width="2" fill="none"/>
  <path id="polygon108" d="m209.73 9.1258-5.19-2.0762 10.8-2.9066-4.15 10.381z"/>
  <path id="polygon110" d="m209.73 9.1258-5.19-2.0762 10.8-2.9066-4.15 10.381z" stroke="#000" stroke-width="2" fill="none"/>
 </g>
 <g id="g112" transform="translate(-1 -3.9113)">
  <path id="rect114" fill="#fff" d="m280 36h24v24h-24z"/>
  <path id="rect116" d="m280 36h24v24h-24z" stroke="#000" stroke-width="2" fill="none"/>
 </g>
 <g id="text118">
  <path id="path3147" style="" d="m292.76 44.961c0-0.83821-0.17393-1.4878-0.52179-1.9489-0.34367-0.46101-0.82774-0.69152-1.4522-0.69153-0.62028 0.000006-1.1044 0.23052-1.4522 0.69153-0.34368 0.46102-0.51551 1.1106-0.51551 1.9489 0 0.83403 0.17183 1.4816 0.51551 1.9426 0.34785 0.46102 0.83192 0.69153 1.4522 0.69153 0.62447 0.000001 1.1085-0.23051 1.4522-0.69153 0.34786-0.46102 0.52179-1.1085 0.52179-1.9426m1.1567 2.7284c0 1.1986-0.26614 2.0893-0.7984 2.6718-0.53227 0.58675-1.3474 0.88012-2.4455 0.88013-0.40654-0.000003-0.79003-0.03144-1.1505-0.0943-0.36043-0.05868-0.71039-0.15088-1.0499-0.27661v-1.1253c0.33947 0.18441 0.67476 0.32062 1.0059 0.40863 0.33109 0.08801 0.66847 0.13202 1.0121 0.13202 0.75858-0.000001 1.3265-0.19908 1.7037-0.59723 0.37719-0.39396 0.56579-0.99119 0.56579-1.7917v-0.57208c-0.23889 0.41492-0.54484 0.72506-0.91784 0.93042-0.37301 0.20536-0.81936 0.30804-1.339 0.30804-0.86337 0-1.5591-0.329-2.0872-0.987-0.52808-0.658-0.79212-1.5297-0.79212-2.6152 0-1.0897 0.26404-1.9635 0.79212-2.6215 0.52807-0.65799 1.2238-0.98699 2.0872-0.987 0.51969 0.000007 0.96604 0.10269 1.339 0.30804 0.373 0.20537 0.67895 0.51551 0.91784 0.93042v-1.0687h1.1567v6.1672"/>
 </g>
 <g id="g122" transform="translate(-1 -3.9113)">
  <path id="line124" d="m246.4 3.2 25.36 33.811" stroke="#000" stroke-width="2" fill="none"/>
  <path id="polygon126" d="m271.76 37.011 2.5-5 2 11-10-5z"/>
  <path id="polygon128" d="m271.76 37.011 2.5-5 2 11-10-5z" stroke="#000" stroke-width="2" fill="none"/>
 </g>
 <g id="g130" transform="translate(-1 -3.9113)">
  <path id="rect132" fill="#fff" d="m280-60h24v24h-24z"/>
  <path id="rect134" d="m280-60h24v24h-24z" stroke="#000" stroke-width="2" fill="none"/>
 </g>
 <g id="text136">
  <path id="path3155" style="" d="m290.43-54.477h1.1567v7.1667c-0.00001 0.89689-0.17184 1.5465-0.51551 1.9489-0.33948 0.40234-0.88851 0.60351-1.6471 0.60352h-0.44007v-0.98071h0.30805c0.44006-0.000002 0.73972-0.10268 0.89899-0.30804 0.15926-0.20117 0.23889-0.62238 0.23889-1.2636v-7.1667m0-2.741h1.1567v1.4648h-1.1567v-1.4648"/>
 </g>
 <g id="g140" transform="translate(-1 -3.9113)">
  <path id="line142" d="m246.4-3.2 25.36-33.811" stroke="#000" stroke-width="2" fill="none"/>
  <path id="polygon144" d="m271.76-37.011-5.5-1 10-5-2 11z"/>
  <path id="polygon146" d="m271.76-37.011-5.5-1 10-5-2 11z" stroke="#000" stroke-width="2" fill="none"/>
 </g>
 <g id="g148" transform="translate(-1 -3.9113)">
  <path id="rect150" fill="#fff" d="m280-12h24v24h-24z"/>
  <path id="rect152" d="m280-12h24v24h-24z" stroke="#000" stroke-width="2" fill="none"/>
 </g>
 <g id="text154">
  <path id="path3163" style="" d="m290.43-6.4773h1.1567v7.041h-1.1567v-7.041m0-2.741h1.1567v1.4648h-1.1567v-1.4648"/>
 </g>
 <g id="g158" transform="translate(-1 -3.9113)">
  <path id="line160" d="m248 0h18.264" stroke="#000" stroke-width="2" fill="none"/>
  <path id="polygon162" d="m266.26 0-2.5-5 10 5-10 5z"/>
  <path id="polygon164" d="m266.26 0-2.5-5 10 5-10 5z" stroke="#000" stroke-width="2" fill="none"/>
 </g>
 <g id="g166" transform="translate(-1 -3.9113)">
  <path id="rect168" fill="#fff" d="m340 36h24v24h-24z"/>
  <path id="rect170" d="m340 36h24v24h-24z" stroke="#000" stroke-width="2" fill="none"/>
 </g>
 <g id="text172">
  <path id="path3171" style="" d="m353.98 44.314v4.2498h-1.1567v-4.212c-0.00001-0.66638-0.12993-1.1651-0.38977-1.4962-0.25985-0.33109-0.64962-0.49664-1.1693-0.49664-0.62448 0.000006-1.1169 0.19908-1.4774 0.59723-0.36043 0.39816-0.54065 0.9409-0.54065 1.6282v3.9794h-1.163v-9.782h1.163v3.8348c0.27661-0.42329 0.60142-0.73972 0.97443-0.94928 0.37719-0.20955 0.81097-0.31432 1.3013-0.31433 0.80887 0.000007 1.4208 0.25147 1.8357 0.75439 0.41491 0.49874 0.62237 1.2343 0.62238 2.2066"/>
 </g>
 <g id="g176" transform="translate(-1 -3.9113)">
  <path id="line178" d="m308 48h18.264" stroke="#000" stroke-width="2" fill="none"/>
  <path id="polygon180" d="m326.26 48-2.5-5 10 5-10 5z"/>
  <path id="polygon182" d="m326.26 48-2.5-5 10 5-10 5z" stroke="#000" stroke-width="2" fill="none"/>
 </g>
 <g id="g184" transform="translate(-1 -3.9113)">
  <path id="rect186" fill="#fff" d="m340-28h24v24h-24z"/>
  <path id="rect188" d="m340-28h24v24h-24z" stroke="#000" stroke-width="2" fill="none"/>
 </g>
 <g id="text190">
  <path id="path3179" style="" d="m348.44-25.218h1.163v5.7774l3.4514-3.0364h1.4774l-3.7342 3.2942 3.8914 3.7468h-1.5088l-3.5771-3.4388v3.4388h-1.163v-9.782"/>
 </g>
 <g id="g194" transform="translate(-1 -3.9113)">
  <path id="line196" d="m306.99-45.342 22.74 20.216" stroke="#000" stroke-width="2" fill="none"/>
  <path id="polygon198" d="m329.73-25.126 1.453-5.398 4.152 10.381-10.796-2.9066z"/>
  <path id="polygon200" d="m329.73-25.126 1.453-5.398 4.152 10.381-10.796-2.9066z" stroke="#000" stroke-width="2" fill="none"/>
 </g>
 <g id="g202" transform="translate(-1 -3.9113)">
  <path id="rect204" fill="#fff" d="m340-92h24v24h-24z"/>
  <path id="rect206" d="m340-92h24v24h-24z" stroke="#000" stroke-width="2" fill="none"/>
 </g>
 <g id="text208">
  <path id="path3187" style="" d="m350.43-89.218h1.1567v9.782h-1.1567v-9.782"/>
 </g>
 <g id="g212" transform="translate(-1 -3.9113)">
  <path id="line214" d="m306.99-50.658 22.744-20.217" stroke="#000" stroke-width="2" fill="none"/>
  <path id="polygon216" d="m329.73-70.874-5.191-2.0761 10.796-2.9066-4.152 10.381z"/>
  <path id="polygon218" d="m329.73-70.874-5.191-2.0761 10.796-2.9066-4.152 10.381z" stroke="#000" stroke-width="2" fill="none"/>
 </g>
 <g id="g220" transform="translate(-1 -3.9113)">
  <path id="line222" d="m368-80h18.264" stroke="#000" stroke-width="2" fill="none"/>
  <path id="polygon224" d="m386.26-80-2.5-5 10 5-10 5z"/>
  <path id="polygon226" d="m386.26-80-2.5-5 10 5-10 5z" stroke="#000" stroke-width="2" fill="none"/>
 </g>
</svg>
