<?xml version="1.0" encoding="UTF-8" standalone="no"?>
<!-- Created with Inkscape (http://www.inkscape.org/) -->
<svg id="svg2" xmlns:rdf="http://www.w3.org/1999/02/22-rdf-syntax-ns#" xmlns="http://www.w3.org/2000/svg" height="314.18" width="543.96" version="1.1" xmlns:cc="http://creativecommons.org/ns#" xmlns:dc="http://purl.org/dc/elements/1.1/" viewBox="76 225 297.4426 177.33749">
 <metadata id="metadata134">
  <rdf:RDF>
   <cc:Work rdf:about="">
    <dc:format>image/svg+xml</dc:format>
    <dc:type rdf:resource="http://purl.org/dc/dcmitype/StillImage"/>
   </cc:Work>
  </rdf:RDF>
 </metadata>
 <g id="g4" transform="translate(-6.7537 -2.225)">
  <path id="rect6" fill="#7babe3" d="m180 280h40v40h-40z"/>
  <path id="rect8" d="m180 280h40v40h-40z" stroke="#000" stroke-width="2" fill="none"/>
 </g>
 <g id="text10">
  <path id="path3048" style="" d="m187.98 304.9h4.3656v-15.068l-4.7493 0.95249v-2.4342l4.7228-0.9525h2.6723v17.502h4.3656v2.249h-11.377v-2.249"/>
 </g>
 <g id="g14" transform="translate(-6.7537 -2.225)">
  <path id="rect16" fill="#7babe3" d="m260 280h40v40h-40z"/>
  <path id="rect18" d="m260 280h40v40h-40z" stroke="#000" stroke-width="2" fill="none"/>
 </g>
 <g id="text20">
  <path id="path3053" style="" d="m275.61 296.5c1.2788 0.27341 2.2754 0.84226 2.9898 1.7066 0.72318 0.86431 1.0848 1.9315 1.0848 3.2014-0.00001 1.9491-0.67029 3.4572-2.0108 4.5244-1.3406 1.0672-3.2456 1.6007-5.715 1.6007-0.82903 0-1.6845-0.0838-2.5665-0.25135-0.87312-0.15875-1.7771-0.40129-2.712-0.72761v-2.5797c0.74083 0.43215 1.5522 0.75847 2.4342 0.97895 0.88194 0.22049 1.8036 0.33074 2.7649 0.33073 1.6757 0.00001 2.9501-0.33072 3.8232-0.99218 0.88193-0.66146 1.3229-1.6228 1.3229-2.884-0.00001-1.1642-0.41011-2.0726-1.2303-2.7252-0.81139-0.66145-1.9447-0.99218-3.3999-0.99219h-2.3019v-2.196h2.4077c1.3141 0.00001 2.3195-0.26016 3.0162-0.78052 0.69672-0.52915 1.0451-1.2876 1.0451-2.2754-0.00001-1.0142-0.3616-1.7903-1.0848-2.3283-0.71438-0.54679-1.7418-0.82019-3.0824-0.82021-0.73202 0.00002-1.517 0.0794-2.3548 0.23813-0.83785 0.15876-1.7595 0.40571-2.7649 0.74083v-2.3812c1.0142-0.2822 1.9623-0.49387 2.8443-0.635 0.89075-0.14109 1.7286-0.21164 2.5135-0.21166 2.0285 0.00002 3.6336 0.46304 4.8154 1.3891 1.1818 0.91724 1.7727 2.1608 1.7727 3.7306-0.00001 1.0936-0.3131 2.0197-0.93927 2.7781-0.62619 0.74966-1.517 1.27-2.6723 1.561"/>
 </g>
 <g id="g24" transform="translate(-6.7537 -2.225)">
  <path id="rect26" fill="#7be38e" d="m340 280h40v40h-40z"/>
  <path id="rect28" d="m340 280h40v40h-40z" stroke="#000" stroke-width="2" fill="none"/>
 </g>
 <g id="text30">
  <path id="path3058" style="" d="m354.86 289.73-6.7469 10.544h6.7469v-10.544m-0.70114-2.3283h3.3602v12.872h2.8178v2.2225h-2.8178v4.6567h-2.6591v-4.6567h-8.9164v-2.5797l8.2153-12.515"/>
 </g>
 <g id="g34" transform="translate(-6.7537 -2.225)">
  <path id="rect36" fill="#fdfd04" d="m180 320h40v20h-40z"/>
  <path id="rect38" d="m180 320h40v20h-40z" stroke="#000" stroke-width="2" fill="none"/>
 </g>
 <g id="g40" transform="translate(-6.7537 -2.225)">
  <path id="rect42" fill="#fdfd04" d="m260 320h40v20h-40z"/>
  <path id="rect44" d="m260 320h40v20h-40z" stroke="#000" stroke-width="2" fill="none"/>
 </g>
 <g id="g46" transform="translate(-6.7537 -2.225)">
  <path id="rect48" fill="#fdfd04" d="m340 320h40v20h-40z"/>
  <path id="rect50" d="m340 320h40v20h-40z" stroke="#000" stroke-width="2" fill="none"/>
 </g>
 <g id="g52" transform="translate(-6.7537 -2.225)">
  <path id="rect54" fill="#fdfd04" d="m100 290h40v20h-40z"/>
  <path id="rect56" d="m100 290h40v20h-40z" stroke="#000" stroke-width="2" fill="none"/>
 </g>
 <g id="g58" transform="translate(-6.7537 -2.225)">
  <path id="line60" d="m140 300h30.264" stroke="#000" stroke-width="2" fill="none"/>
  <path id="polygon62" d="m170.26 300-2.5-5 10 5-10 5z"/>
  <path id="polygon64" d="m170.26 300-2.5-5 10 5-10 5z" stroke="#000" stroke-width="2" fill="none"/>
 </g>
 <g id="g66" transform="translate(-6.7537 -2.225)">
  <path id="path68" d="m220 330c40 0 0-30 30.264-30" stroke="#000" stroke-width="2" fill="none"/>
  <path id="polygon70" d="m250.26 300-2.5-5 10 5-10 5z"/>
  <path id="polygon72" d="m250.26 300-2.5-5 10 5-10 5z" stroke="#000" stroke-width="2" fill="none"/>
 </g>
 <g id="g74" transform="translate(-6.7537 -2.225)">
  <path id="path76" d="m300 330c40 0 0-30 30.264-30" stroke="#000" stroke-width="2" fill="none"/>
  <path id="polygon78" d="m330.26 300-2.5-5 10 5-10 5z"/>
  <path id="polygon80" d="m330.26 300-2.5-5 10 5-10 5z" stroke="#000" stroke-width="2" fill="none"/>
 </g>
 <g id="g82" transform="translate(-6.7537 -2.225)">
  <path id="rect84" fill="#fdfd04" d="m100 370h40v20h-40z"/>
  <path id="rect86" d="m100 370h40v20h-40z" stroke="#000" stroke-width="2" fill="none"/>
 </g>
 <g id="g88" transform="translate(-6.7537 -2.225)">
  <path id="path90" d="m120 370c0-30 70-20 100-20s10-20 30.264-20" stroke="#808080" stroke-width="2" fill="none"/>
  <path id="polygon92" fill="#808080" d="m250.26 330-2.5-5 10 5-10 5z"/>
  <path id="polygon94" d="m250.26 330-2.5-5 10 5-10 5z" stroke="#808080" stroke-width="2" fill="none"/>
 </g>
 <g id="text96">
  <path id="path3080" style="" d="m78.79 310.34h1.2625v8.2688h4.5438v1.0625h-5.8062v-9.3312"/>
  <path id="path3082" style="" d="m85.865 312.67h1.15v7h-1.15v-7m0-2.725h1.15v1.4562h-1.15v-1.4562"/>
  <path id="path3084" style="" d="m93.878 312.88v1.0875c-0.325-0.16666-0.6625-0.29166-1.0125-0.375-0.35-0.0833-0.7125-0.125-1.0875-0.125-0.57084 0-1 0.0875-1.2875 0.2625-0.28334 0.175-0.425 0.4375-0.425 0.7875-0.000002 0.26667 0.10208 0.47709 0.30625 0.63125 0.20416 0.15 0.61458 0.29375 1.2312 0.43125l0.39375 0.0875c0.81666 0.175 1.3958 0.42292 1.7375 0.74375 0.34583 0.31667 0.51874 0.76042 0.51875 1.3312-0.000006 0.65-0.25834 1.1646-0.775 1.5438-0.5125 0.37916-1.2188 0.56875-2.1188 0.56875-0.375 0-0.76667-0.0375-1.175-0.1125-0.40417-0.0708-0.83125-0.17917-1.2812-0.325v-1.1875c0.425 0.22083 0.84375 0.3875 1.2562 0.5 0.4125 0.10833 0.82083 0.1625 1.225 0.1625 0.54166 0 0.95833-0.0917 1.25-0.275 0.29166-0.1875 0.4375-0.45 0.4375-0.7875-0.000005-0.3125-0.10626-0.55208-0.31875-0.71875-0.20834-0.16667-0.66875-0.32708-1.3812-0.48125l-0.4-0.0937c-0.7125-0.15-1.2271-0.37917-1.5438-0.6875-0.31667-0.3125-0.475-0.73958-0.475-1.2812-0.000001-0.65833 0.23333-1.1667 0.7-1.525 0.46666-0.35833 1.1292-0.5375 1.9875-0.5375 0.425 0 0.825 0.0312 1.2 0.0937s0.72083 0.15625 1.0375 0.28125"/>
  <path id="path3086" style="" d="m97.228 310.69v1.9875h2.3688v0.89375h-2.3688v3.8c-0.000002 0.57083 0.07708 0.9375 0.23125 1.1 0.15833 0.1625 0.47708 0.24375 0.95625 0.24375h1.1812v0.9625h-1.1812c-0.8875 0-1.5-0.16459-1.8375-0.49375-0.3375-0.33333-0.50625-0.9375-0.50625-1.8125v-3.8h-0.84375v-0.89375h0.84375v-1.9875h1.1562"/>
  <path id="path3088" style="" d="m104.3 316.16c-0.92917 0-1.5729 0.10625-1.9312 0.31875-0.35833 0.2125-0.5375 0.575-0.5375 1.0875 0 0.40833 0.13333 0.73333 0.4 0.975 0.27083 0.2375 0.6375 0.35625 1.1 0.35625 0.6375 0 1.1479-0.225 1.5312-0.675 0.3875-0.45417 0.58125-1.0562 0.58125-1.8062v-0.25625h-1.1438m2.2938-0.475v3.9938h-1.15v-1.0625c-0.2625 0.425-0.58959 0.73958-0.98125 0.94375-0.39167 0.2-0.87084 0.3-1.4375 0.3-0.71667 0-1.2875-0.2-1.7125-0.6-0.42083-0.40417-0.63125-0.94375-0.63125-1.6188 0-0.7875 0.2625-1.3812 0.7875-1.7812 0.52917-0.4 1.3167-0.6 2.3625-0.6h1.6125v-0.1125c0-0.52916-0.175-0.9375-0.525-1.225-0.34584-0.29166-0.83334-0.4375-1.4625-0.4375-0.4 0-0.78958 0.0479-1.1688 0.14375-0.37917 0.0958-0.74375 0.23959-1.0938 0.43125v-1.0625c0.42083-0.1625 0.82917-0.28333 1.225-0.3625 0.39583-0.0833 0.78125-0.125 1.1562-0.125 1.0125 0 1.7688 0.2625 2.2688 0.7875s0.75 1.3208 0.75 2.3875"/>
  <path id="path3090" style="" d="m117.85 311.88-2.2438 1.2125 2.2438 1.2188-0.3625 0.6125-2.1-1.2688v2.3562h-0.7125v-2.3562l-2.1 1.2688-0.3625-0.6125 2.2438-1.2188-2.2438-1.2125 0.3625-0.61875 2.1 1.2688v-2.3562h0.7125v2.3562l2.1-1.2688 0.3625 0.61875"/>
  <path id="path3092" style="" d="m125.43 315.89v0.5625h-5.2875c0.05 0.79167 0.2875 1.3958 0.7125 1.8125 0.42917 0.4125 1.025 0.61875 1.7875 0.61875 0.44166 0 0.86875-0.0542 1.2812-0.1625 0.41666-0.10833 0.82916-0.27083 1.2375-0.4875v1.0875c-0.4125 0.175-0.83542 0.30833-1.2688 0.4-0.43334 0.0917-0.87292 0.1375-1.3188 0.1375-1.1167 0-2.0021-0.325-2.6562-0.975-0.65-0.65-0.975-1.5292-0.975-2.6375 0-1.1458 0.30833-2.0542 0.925-2.725 0.62083-0.675 1.4562-1.0125 2.5062-1.0125 0.94166 0 1.6854 0.30417 2.2312 0.9125 0.55 0.60417 0.825 1.4271 0.825 2.4688m-1.15-0.3375c-0.008-0.62916-0.18542-1.1312-0.53125-1.5062-0.34167-0.375-0.79584-0.5625-1.3625-0.5625-0.64167 0-1.1562 0.18125-1.5438 0.54375-0.38333 0.3625-0.60417 0.87292-0.6625 1.5312l4.1-0.006"/>
  <path id="path3094" style="" d="m127.32 309.95h1.15v9.725h-1.15v-9.725"/>
  <path id="path3096" style="" d="m136.85 315.89v0.5625h-5.2875c0.05 0.79167 0.2875 1.3958 0.7125 1.8125 0.42917 0.4125 1.025 0.61875 1.7875 0.61875 0.44166 0 0.86875-0.0542 1.2812-0.1625 0.41666-0.10833 0.82916-0.27083 1.2375-0.4875v1.0875c-0.4125 0.175-0.83542 0.30833-1.2688 0.4-0.43334 0.0917-0.87292 0.1375-1.3188 0.1375-1.1167 0-2.0021-0.325-2.6562-0.975-0.65-0.65-0.975-1.5292-0.975-2.6375 0-1.1458 0.30833-2.0542 0.925-2.725 0.62083-0.675 1.4562-1.0125 2.5062-1.0125 0.94166 0 1.6854 0.30417 2.2312 0.9125 0.54999 0.60417 0.82499 1.4271 0.825 2.4688m-1.15-0.3375c-0.008-0.62916-0.18542-1.1312-0.53125-1.5062-0.34167-0.375-0.79584-0.5625-1.3625-0.5625-0.64167 0-1.1562 0.18125-1.5438 0.54375-0.38333 0.3625-0.60417 0.87292-0.6625 1.5312l4.1-0.006"/>
  <path id="path3098" style="" d="m138.74 312.67h1.15v7.125c0 0.89166-0.17083 1.5375-0.5125 1.9375-0.3375 0.4-0.88333 0.6-1.6375 0.6h-0.4375v-0.975h0.30625c0.4375 0 0.73542-0.10209 0.89375-0.30625 0.15833-0.2 0.2375-0.61875 0.2375-1.2562v-7.125m0-2.725h1.15v1.4562h-1.15v-1.4562"/>
  <path id="path3100" style="" d="m148.28 315.89v0.5625h-5.2875c0.05 0.79167 0.2875 1.3958 0.7125 1.8125 0.42916 0.4125 1.025 0.61875 1.7875 0.61875 0.44166 0 0.86875-0.0542 1.2812-0.1625 0.41666-0.10833 0.82916-0.27083 1.2375-0.4875v1.0875c-0.41251 0.175-0.83542 0.30833-1.2688 0.4-0.43334 0.0917-0.87292 0.1375-1.3188 0.1375-1.1167 0-2.0021-0.325-2.6562-0.975-0.65-0.65-0.975-1.5292-0.975-2.6375 0-1.1458 0.30833-2.0542 0.925-2.725 0.62083-0.675 1.4562-1.0125 2.5062-1.0125 0.94166 0 1.6854 0.30417 2.2312 0.9125 0.54999 0.60417 0.82499 1.4271 0.825 2.4688m-1.15-0.3375c-0.008-0.62916-0.18542-1.1312-0.53125-1.5062-0.34167-0.375-0.79584-0.5625-1.3625-0.5625-0.64167 0-1.1562 0.18125-1.5438 0.54375-0.38333 0.3625-0.60417 0.87292-0.6625 1.5312l4.1-0.006"/>
 </g>
 <g id="text100">
  <path id="path3103" style="" d="m71.203 390.34h1.2625v8.2688h4.5438v1.0625h-5.8063v-9.3312"/>
  <path id="path3105" style="" d="m78.278 392.67h1.15v7h-1.15v-7m0-2.725h1.15v1.4562h-1.15v-1.4562"/>
  <path id="path3107" style="" d="m86.29 392.88v1.0875c-0.32501-0.16666-0.6625-0.29166-1.0125-0.375-0.35-0.0833-0.7125-0.125-1.0875-0.125-0.57084 0-1 0.0875-1.2875 0.2625-0.28334 0.175-0.425 0.4375-0.425 0.7875-0.000002 0.26667 0.10208 0.47709 0.30625 0.63125 0.20416 0.15 0.61458 0.29375 1.2312 0.43125l0.39375 0.0875c0.81666 0.175 1.3958 0.42292 1.7375 0.74375 0.34583 0.31667 0.51874 0.76042 0.51875 1.3312-0.000006 0.65-0.25834 1.1646-0.775 1.5438-0.5125 0.37916-1.2188 0.56875-2.1188 0.56875-0.375 0-0.76667-0.0375-1.175-0.1125-0.40417-0.0708-0.83125-0.17917-1.2812-0.325v-1.1875c0.425 0.22083 0.84375 0.3875 1.2562 0.5 0.4125 0.10833 0.82083 0.1625 1.225 0.1625 0.54166 0 0.95833-0.0917 1.25-0.275 0.29166-0.1875 0.4375-0.45 0.4375-0.7875-0.000005-0.3125-0.10626-0.55208-0.31875-0.71875-0.20834-0.16667-0.66875-0.32708-1.3812-0.48125l-0.4-0.0937c-0.7125-0.15-1.2271-0.37917-1.5438-0.6875-0.31667-0.3125-0.475-0.73958-0.475-1.2812-0.000001-0.65833 0.23333-1.1667 0.7-1.525 0.46666-0.35833 1.1292-0.5375 1.9875-0.5375 0.425 0 0.825 0.0312 1.2 0.0937s0.72083 0.15625 1.0375 0.28125"/>
  <path id="path3109" style="" d="m89.64 390.69v1.9875h2.3688v0.89375h-2.3688v3.8c-0.000002 0.57083 0.07708 0.9375 0.23125 1.1 0.15833 0.1625 0.47708 0.24375 0.95625 0.24375h1.1812v0.9625h-1.1812c-0.8875 0-1.5-0.16459-1.8375-0.49375-0.3375-0.33333-0.50625-0.9375-0.50625-1.8125v-3.8h-0.84375v-0.89375h0.84375v-1.9875h1.1562"/>
  <path id="path3111" style="" d="m96.709 396.16c-0.92917 0-1.5729 0.10625-1.9312 0.31875-0.35834 0.2125-0.5375 0.575-0.5375 1.0875-0.000001 0.40833 0.13333 0.73333 0.4 0.975 0.27083 0.2375 0.6375 0.35625 1.1 0.35625 0.6375 0 1.1479-0.225 1.5312-0.675 0.38749-0.45417 0.58124-1.0562 0.58125-1.8062v-0.25625h-1.1438m2.2938-0.475v3.9938h-1.15v-1.0625c-0.26251 0.425-0.58959 0.73958-0.98125 0.94375-0.39167 0.2-0.87084 0.3-1.4375 0.3-0.71667 0-1.2875-0.2-1.7125-0.6-0.42083-0.40417-0.63125-0.94375-0.63125-1.6188 0-0.7875 0.2625-1.3812 0.7875-1.7812 0.52916-0.4 1.3167-0.6 2.3625-0.6h1.6125v-0.1125c-0.000006-0.52916-0.17501-0.9375-0.525-1.225-0.34584-0.29166-0.83334-0.4375-1.4625-0.4375-0.4 0-0.78959 0.0479-1.1688 0.14375-0.37917 0.0958-0.74375 0.23959-1.0938 0.43125v-1.0625c0.42083-0.1625 0.82916-0.28333 1.225-0.3625 0.39583-0.0833 0.78125-0.125 1.1562-0.125 1.0125 0 1.7687 0.2625 2.2688 0.7875 0.49999 0.525 0.74999 1.3208 0.75 2.3875"/>
  <path id="path3113" style="" d="m110.27 391.88-2.2438 1.2125 2.2438 1.2188-0.3625 0.6125-2.1-1.2688v2.3562h-0.7125v-2.3562l-2.1 1.2688-0.3625-0.6125 2.2438-1.2188-2.2438-1.2125 0.3625-0.61875 2.1 1.2688v-2.3562h0.7125v2.3562l2.1-1.2688 0.3625 0.61875"/>
  <path id="path3115" style="" d="m116.67 391.88-2.2438 1.2125 2.2438 1.2188-0.3625 0.6125-2.1-1.2688v2.3562h-0.7125v-2.3562l-2.1 1.2688-0.3625-0.6125 2.2438-1.2188-2.2438-1.2125 0.3625-0.61875 2.1 1.2688v-2.3562h0.7125v2.3562l2.1-1.2688 0.3625 0.61875"/>
  <path id="path3117" style="" d="m119.37 398.62v3.7125h-1.1562v-9.6625h1.1562v1.0625c0.24167-0.41666 0.54583-0.725 0.9125-0.925 0.37083-0.20416 0.8125-0.30625 1.325-0.30625 0.85 0 1.5396 0.3375 2.0688 1.0125 0.53333 0.675 0.8 1.5625 0.8 2.6625s-0.26667 1.9875-0.8 2.6625c-0.52917 0.675-1.2188 1.0125-2.0688 1.0125-0.5125 0-0.95417-0.1-1.325-0.3-0.36667-0.20417-0.67083-0.51458-0.9125-0.93125m3.9125-2.4438c0-0.84583-0.175-1.5083-0.525-1.9875-0.34583-0.48333-0.82292-0.725-1.4312-0.725-0.60833 0-1.0875 0.24167-1.4375 0.725-0.34583 0.47917-0.51875 1.1417-0.51875 1.9875 0 0.84583 0.17292 1.5104 0.51875 1.9938 0.35 0.47917 0.82917 0.71875 1.4375 0.71875s1.0854-0.23958 1.4312-0.71875c0.35-0.48333 0.525-1.1479 0.525-1.9938"/>
  <path id="path3119" style="" d="m132.2 395.45v4.225h-1.15v-4.1875c0-0.6625-0.12917-1.1583-0.3875-1.4875-0.25833-0.32916-0.64583-0.49375-1.1625-0.49375-0.62083 0-1.1104 0.19792-1.4688 0.59375-0.35833 0.39584-0.5375 0.93542-0.5375 1.6188v3.9562h-1.1562v-9.725h1.1562v3.8125c0.275-0.42083 0.59792-0.73541 0.96875-0.94375 0.375-0.20833 0.80625-0.3125 1.2938-0.3125 0.80417 0 1.4125 0.25 1.825 0.75 0.4125 0.49584 0.61875 1.2271 0.61875 2.1938"/>
  <path id="path3121" style="" d="m137.22 393.48c-0.61667 0-1.1042 0.24167-1.4625 0.725-0.35833 0.47917-0.5375 1.1375-0.5375 1.975s0.17709 1.4979 0.53125 1.9812c0.35833 0.47917 0.84792 0.71875 1.4688 0.71875 0.6125 0 1.0979-0.24167 1.4562-0.725 0.35833-0.48333 0.5375-1.1417 0.5375-1.975 0-0.82916-0.17917-1.4854-0.5375-1.9688-0.35833-0.4875-0.84375-0.73125-1.4562-0.73125m0-0.975c1 0 1.7854 0.325 2.3562 0.975 0.57083 0.65 0.85625 1.55 0.85625 2.7 0 1.1458-0.28542 2.0458-0.85625 2.7-0.57084 0.65-1.3562 0.975-2.3562 0.975-1.0042 0-1.7917-0.325-2.3625-0.975-0.56666-0.65417-0.85-1.5542-0.85-2.7 0-1.15 0.28334-2.05 0.85-2.7 0.57083-0.65 1.3583-0.975 2.3625-0.975"/>
  <path id="path3123" style="" d="m141.5 392.67h1.2188l2.1875 5.875 2.1875-5.875h1.2188l-2.625 7h-1.5625l-2.625-7"/>
  <path id="path3125" style="" d="m153.08 396.16c-0.92917 0-1.5729 0.10625-1.9312 0.31875-0.35833 0.2125-0.5375 0.575-0.5375 1.0875 0 0.40833 0.13333 0.73333 0.4 0.975 0.27083 0.2375 0.6375 0.35625 1.1 0.35625 0.6375 0 1.1479-0.225 1.5312-0.675 0.3875-0.45417 0.58125-1.0562 0.58125-1.8062v-0.25625h-1.1438m2.2938-0.475v3.9938h-1.15v-1.0625c-0.2625 0.425-0.58959 0.73958-0.98125 0.94375-0.39167 0.2-0.87084 0.3-1.4375 0.3-0.71667 0-1.2875-0.2-1.7125-0.6-0.42083-0.40417-0.63125-0.94375-0.63125-1.6188 0-0.7875 0.2625-1.3812 0.7875-1.7812 0.52917-0.4 1.3167-0.6 2.3625-0.6h1.6125v-0.1125c0-0.52916-0.175-0.9375-0.525-1.225-0.34584-0.29166-0.83334-0.4375-1.4625-0.4375-0.4 0-0.78958 0.0479-1.1688 0.14375-0.37917 0.0958-0.74375 0.23959-1.0938 0.43125v-1.0625c0.42083-0.1625 0.82917-0.28333 1.225-0.3625 0.39583-0.0833 0.78125-0.125 1.1562-0.125 1.0125 0 1.7688 0.2625 2.2688 0.7875s0.74999 1.3208 0.75 2.3875"/>
 </g>
 <g id="g104" transform="translate(-6.7537 -2.225)">
  <path id="line106" d="m360 260v10.264" stroke="#000" stroke-width="2" fill="none"/>
  <path id="polygon108" d="m360 270.26 5-2.5-5 10-5-10z"/>
  <path id="polygon110" d="m360 270.26 5-2.5-5 10-5-10z" stroke="#000" stroke-width="2" fill="none"/>
 </g>
 <g id="text112">
  <path id="path3131" style="" d="m328.32 225.39h1.2625v8.2688h4.5438v1.0625h-5.8062v-9.3312"/>
  <path id="path3133" style="" d="m335.39 227.73h1.15v7h-1.15v-7m0-2.725h1.15v1.4562h-1.15v-1.4562"/>
  <path id="path3135" style="" d="m343.4 227.93v1.0875c-0.32501-0.16666-0.66251-0.29166-1.0125-0.375-0.35001-0.0833-0.71251-0.125-1.0875-0.125-0.57084 0-1 0.0875-1.2875 0.2625-0.28334 0.175-0.425 0.4375-0.425 0.7875 0 0.26667 0.10208 0.47708 0.30625 0.63125 0.20416 0.15 0.61458 0.29375 1.2312 0.43125l0.39375 0.0875c0.81666 0.175 1.3958 0.42292 1.7375 0.74375 0.34582 0.31667 0.51874 0.76042 0.51875 1.3312-0.00001 0.65-0.25834 1.1646-0.775 1.5438-0.51251 0.37916-1.2188 0.56875-2.1188 0.56875-0.37501 0-0.76667-0.0375-1.175-0.1125-0.40417-0.0708-0.83125-0.17917-1.2812-0.325v-1.1875c0.425 0.22083 0.84375 0.3875 1.2562 0.5 0.41249 0.10833 0.82083 0.1625 1.225 0.1625 0.54166 0 0.95833-0.0917 1.25-0.275 0.29166-0.1875 0.43749-0.45 0.4375-0.7875-0.00001-0.3125-0.10626-0.55208-0.31875-0.71875-0.20834-0.16667-0.66876-0.32708-1.3812-0.48125l-0.4-0.0937c-0.7125-0.15-1.2271-0.37917-1.5438-0.6875-0.31667-0.3125-0.475-0.73958-0.475-1.2812 0-0.65833 0.23333-1.1667 0.7-1.525 0.46666-0.35833 1.1292-0.5375 1.9875-0.5375 0.42499 0 0.82499 0.0312 1.2 0.0937 0.37499 0.0625 0.72083 0.15625 1.0375 0.28125"/>
  <path id="path3137" style="" d="m346.75 225.74v1.9875h2.3688v0.89375h-2.3688v3.8c0 0.57083 0.0771 0.9375 0.23125 1.1 0.15833 0.1625 0.47708 0.24375 0.95625 0.24375h1.1812v0.9625h-1.1812c-0.88751 0-1.5-0.16459-1.8375-0.49375-0.3375-0.33334-0.50625-0.9375-0.50625-1.8125v-3.8h-0.84375v-0.89375h0.84375v-1.9875h1.1562"/>
  <path id="path3139" style="" d="m353.82 231.21c-0.92917 0-1.5729 0.10625-1.9312 0.31875-0.35834 0.2125-0.5375 0.575-0.5375 1.0875 0 0.40833 0.13333 0.73333 0.4 0.975 0.27083 0.2375 0.63749 0.35625 1.1 0.35625 0.63749 0 1.1479-0.225 1.5312-0.675 0.38749-0.45417 0.58124-1.0562 0.58125-1.8062v-0.25625h-1.1438m2.2938-0.475v3.9938h-1.15v-1.0625c-0.26251 0.425-0.58959 0.73958-0.98125 0.94375-0.39167 0.2-0.87084 0.3-1.4375 0.3-0.71667 0-1.2875-0.2-1.7125-0.6-0.42084-0.40417-0.63125-0.94375-0.63125-1.6188 0-0.7875 0.2625-1.3812 0.7875-1.7812 0.52916-0.4 1.3167-0.6 2.3625-0.6h1.6125v-0.1125c-0.00001-0.52917-0.17501-0.9375-0.525-1.225-0.34584-0.29166-0.83334-0.4375-1.4625-0.4375-0.40001 0-0.78959 0.0479-1.1688 0.14375-0.37917 0.0958-0.74375 0.23959-1.0938 0.43125v-1.0625c0.42083-0.1625 0.82916-0.28333 1.225-0.3625 0.39583-0.0833 0.78124-0.125 1.1562-0.125 1.0125 0 1.7687 0.2625 2.2688 0.7875 0.49999 0.525 0.74999 1.3208 0.75 2.3875"/>
  <path id="path3141" style="" d="m367.38 226.93-2.2438 1.2125 2.2438 1.2188-0.3625 0.6125-2.1-1.2688v2.3562h-0.7125v-2.3562l-2.1 1.2688-0.3625-0.6125 2.2438-1.2188-2.2438-1.2125 0.3625-0.61875 2.1 1.2688v-2.3562h0.7125v2.3562l2.1-1.2688 0.3625 0.61875"/>
  <path id="path3143" style="" d="m368.85 231.96v-4.2375h1.15v4.1938c0 0.6625 0.12916 1.1604 0.3875 1.4938 0.25833 0.32916 0.64583 0.49375 1.1625 0.49375 0.62083 0 1.1104-0.19792 1.4688-0.59375 0.36249-0.39584 0.54374-0.93542 0.54375-1.6188v-3.9688h1.15v7h-1.15v-1.075c-0.27917 0.425-0.60417 0.74166-0.975 0.95-0.36667 0.20416-0.79376 0.30625-1.2812 0.30625-0.80417 0-1.4146-0.25-1.8312-0.75-0.41667-0.5-0.625-1.2312-0.625-2.1938m2.8938-4.4062"/>
  <path id="path3145" style="" d="m377.09 227.73h1.15v7.125c0 0.89166-0.17084 1.5375-0.5125 1.9375-0.3375 0.39999-0.88334 0.59999-1.6375 0.6h-0.4375v-0.975h0.30625c0.4375-0.00001 0.73541-0.10209 0.89375-0.30625 0.15833-0.20001 0.2375-0.61875 0.2375-1.2562v-7.125m0-2.725h1.15v1.4562h-1.15v-1.4562"/>
 </g>
 <g id="g116" transform="translate(-6.7537 -2.225)">
  <path id="rect118" fill="#fdfd04" d="m340 240h40v20h-40z"/>
  <path id="rect120" d="m340 240h40v20h-40z" stroke="#000" stroke-width="2" fill="none"/>
 </g>
 <g id="g122" transform="translate(-6.7537 -2.225)">
  <path id="path124" d="m120 370c0-30 110-10 160-10s30-30 50.264-30" stroke="#000" stroke-width="2" fill="none"/>
  <path id="polygon126" d="m330.26 330-2.5-5 10 5-10 5z"/>
  <path id="polygon128" d="m330.26 330-2.5-5 10 5-10 5z" stroke="#000" stroke-width="2" fill="none"/>
 </g>
</svg>
