<?xml version="1.0" encoding="UTF-8" standalone="no"?>
<!-- Created with Inkscape (http://www.inkscape.org/) -->
<svg id="svg2" xmlns:rdf="http://www.w3.org/1999/02/22-rdf-syntax-ns#" xmlns="http://www.w3.org/2000/svg" height="78.097" width="635.94" version="1.1" xmlns:cc="http://creativecommons.org/ns#" xmlns:dc="http://purl.org/dc/elements/1.1/" viewBox="178 278 342.00001 31.591838">
 <metadata id="metadata98">
  <rdf:RDF>
   <cc:Work rdf:about="">
    <dc:format>image/svg+xml</dc:format>
    <dc:type rdf:resource="http://purl.org/dc/dcmitype/StillImage"/>
   </cc:Work>
  </rdf:RDF>
 </metadata>
 <g id="g4" transform="translate(-1 -6.2041)">
  <path id="rect6" fill="#7babe3" d="m180 280h40v40h-40z"/>
  <path id="rect8" d="m180 280h40v40h-40z" stroke="#000" stroke-width="2" fill="none"/>
 </g>
 <g id="text10">
  <path id="path3030" style="" d="m193.73 300.92h4.3656v-15.068l-4.7493 0.9525v-2.4342l4.7228-0.9525h2.6723v17.502h4.3656v2.249h-11.377v-2.249"/>
 </g>
 <g id="g14" transform="translate(-1 -6.2041)">
  <path id="rect16" fill="#7babe3" d="m240 280h40v40h-40z"/>
  <path id="rect18" d="m240 280h40v40h-40z" stroke="#000" stroke-width="2" fill="none"/>
 </g>
 <g id="text20">
  <path id="path3035" style="" d="m261.37 292.52c1.2788 0.27342 2.2754 0.84227 2.9898 1.7066 0.72317 0.86432 1.0848 1.9315 1.0848 3.2015-0.00002 1.9491-0.6703 3.4572-2.0108 4.5244-1.3406 1.0672-3.2456 1.6007-5.715 1.6007-0.82903 0-1.6845-0.0838-2.5664-0.25135-0.87313-0.15875-1.7771-0.40128-2.712-0.7276v-2.5797c0.74083 0.43216 1.5522 0.75848 2.4342 0.97896 0.88193 0.22049 1.8036 0.33073 2.7649 0.33073 1.6757 0 2.9501-0.33073 3.8232-0.99219 0.88193-0.66145 1.3229-1.6228 1.3229-2.884-0.00002-1.1642-0.41012-2.0726-1.2303-2.7252-0.8114-0.66145-1.9447-0.99217-3.3999-0.99218h-2.3019v-2.196h2.4077c1.3141 0.00001 2.3195-0.26016 3.0162-0.78052 0.69673-0.52916 1.0451-1.2876 1.0451-2.2754-0.00002-1.0142-0.36161-1.7903-1.0848-2.3283-0.71439-0.54678-1.7418-0.82019-3.0824-0.8202-0.73202 0.00001-1.5169 0.0794-2.3548 0.23812-0.83786 0.15877-1.7595 0.40571-2.7649 0.74083v-2.3812c1.0142-0.28221 1.9623-0.49387 2.8443-0.635 0.89076-0.14109 1.7286-0.21165 2.5135-0.21167 2.0285 0.00002 3.6336 0.46304 4.8154 1.3891 1.1818 0.91724 1.7727 2.1608 1.7727 3.7306-0.00002 1.0936-0.31311 2.0197-0.93927 2.7781-0.6262 0.74967-1.517 1.27-2.6723 1.561"/>
 </g>
 <g id="g24" transform="translate(-1 -6.2041)">
  <path id="rect26" fill="#7babe3" d="m360 280h40v40h-40z"/>
  <path id="rect28" d="m360 280h40v40h-40z" stroke="#000" stroke-width="2" fill="none"/>
 </g>
 <g id="text30">
  <path id="path3040" style="" d="m373.3 283.42h10.491v2.249h-8.0433v4.8419c0.38805-0.13228 0.7761-0.22929 1.1642-0.29104 0.38805-0.0705 0.77611-0.10582 1.1642-0.10583 2.2048 0.00001 3.9511 0.60414 5.2387 1.8124s1.9314 2.8443 1.9315 4.908c-0.00002 2.1255-0.66147 3.7791-1.9844 4.9609-1.3229 1.173-3.1882 1.7595-5.5959 1.7595-0.82904 0-1.6757-0.0705-2.54-0.21166-0.85549-0.14111-1.7418-0.35278-2.6591-0.635v-2.6855c0.79375 0.43216 1.614 0.75406 2.4606 0.96573 0.84666 0.21167 1.7418 0.3175 2.6855 0.3175 1.5258 0 2.734-0.40128 3.6248-1.2038 0.89075-0.80257 1.3361-1.8918 1.3361-3.2676-0.00001-1.3758-0.44539-2.465-1.3361-3.2676-0.89078-0.80256-2.099-1.2038-3.6248-1.2039-0.71438 0.00001-1.4288 0.0794-2.1431 0.23813-0.70556 0.15876-1.4288 0.4057-2.1696 0.74083v-9.9219"/>
 </g>
 <g id="g34" transform="translate(-1 -6.2041)">
  <path id="rect36" fill="#7babe3" d="m420 280h40v40h-40z"/>
  <path id="rect38" d="m420 280h40v40h-40z" stroke="#000" stroke-width="2" fill="none"/>
 </g>
 <g id="text40">
  <path id="path3045" style="" d="m439.32 292.23c-1.1994 0.00001-2.152 0.41012-2.8575 1.2303-0.69674 0.82022-1.0451 1.9447-1.0451 3.3734 0 1.4199 0.34836 2.5444 1.0451 3.3734 0.70555 0.82021 1.658 1.2303 2.8575 1.2303 1.1994 0 2.1475-0.4101 2.8443-1.2303 0.70554-0.82902 1.0583-1.9535 1.0583-3.3734-0.00001-1.4288-0.35279-2.5532-1.0583-3.3734-0.69675-0.82019-1.6448-1.2303-2.8443-1.2303m5.3049-8.374v2.4342c-0.67029-0.31748-1.3494-0.56001-2.0373-0.7276-0.67911-0.16755-1.3538-0.25134-2.0241-0.25135-1.7639 0.00001-3.1133 0.59532-4.0481 1.7859-0.92605 1.1906-1.4552 2.9898-1.5875 5.3975 0.52034-0.76728 1.173-1.3538 1.9579-1.7595 0.78492-0.4145 1.6492-0.62176 2.5929-0.62177 1.9844 0.00001 3.5498 0.60414 4.6964 1.8124 1.1553 1.1994 1.733 2.8355 1.733 4.908-0.00002 2.0285-0.59974 3.6556-1.7992 4.8816-1.1994 1.2259-2.7958 1.8388-4.789 1.8388-2.2842 0-4.0305-0.87312-5.2387-2.6194-1.2083-1.7551-1.8124-4.2951-1.8124-7.62 0-3.1221 0.74083-5.6091 2.2225-7.4612 1.4817-1.8609 3.4704-2.7913 5.9664-2.7914 0.67026 0.00002 1.345 0.0662 2.0241 0.19844 0.6879 0.13231 1.4023 0.33075 2.1431 0.59531"/>
 </g>
 <g id="g44" transform="translate(-1 -6.2041)">
  <path id="rect46" fill="#7babe3" d="m480 280h40v40h-40z"/>
  <path id="rect48" d="m480 280h40v40h-40z" stroke="#000" stroke-width="2" fill="none"/>
 </g>
 <g id="text50">
  <path id="path3050" style="" d="m498.99 293.79c-1.27 0.00001-2.271 0.33956-3.003 1.0186-0.72319 0.6791-1.0848 1.614-1.0848 2.8046s0.3616 2.1255 1.0848 2.8046c0.73201 0.67909 1.733 1.0186 3.003 1.0186s2.271-0.33955 3.003-1.0186c0.732-0.68792 1.098-1.6228 1.098-2.8046-0.00002-1.1906-0.36602-2.1255-1.098-2.8046-0.72321-0.67909-1.7242-1.0186-3.003-1.0186m-2.6723-1.1377c-1.1465-0.28221-2.0417-0.81578-2.6855-1.6007-0.635-0.78492-0.9525-1.7418-0.95249-2.8707-0.00001-1.5787 0.56003-2.8266 1.6801-3.7438 1.1289-0.9172 2.6723-1.3758 4.6302-1.3758 1.9667 0.00002 3.5101 0.45863 4.6302 1.3758 1.1201 0.91724 1.6801 2.1652 1.6801 3.7438-0.00002 1.1289-0.32193 2.0858-0.96573 2.8707-0.63501 0.78494-1.5214 1.3185-2.6591 1.6007 1.2876 0.29987 2.2886 0.88637 3.003 1.7595 0.72317 0.87313 1.0848 1.9403 1.0848 3.2015-0.00002 1.9138-0.58651 3.3822-1.7595 4.4053-1.1642 1.0231-2.8355 1.5346-5.0138 1.5346-2.1784 0-3.8541-0.51152-5.0271-1.5346-1.1642-1.023-1.7462-2.4915-1.7462-4.4053-0.00001-1.2612 0.36159-2.3283 1.0848-3.2015 0.72319-0.87311 1.7286-1.4596 3.0162-1.7595m-0.97895-4.2201c-0.00001 1.0231 0.31749 1.8212 0.95249 2.3945 0.64382 0.57328 1.5434 0.85991 2.6988 0.8599 1.1465 0.00001 2.0417-0.28662 2.6855-0.8599 0.65262-0.57325 0.97894-1.3714 0.97896-2.3945-0.00002-1.023-0.32634-1.8212-0.97896-2.3945-0.64383-0.57325-1.539-0.85988-2.6855-0.8599-1.1554 0.00002-2.0549 0.28665-2.6988 0.8599-0.635 0.57328-0.9525 1.3714-0.95249 2.3945"/>
 </g>
 <g id="g54" transform="translate(-1 -6.2041)">
  <path id="rect56" fill="#7babe3" d="m300 280h40v40h-40z"/>
  <path id="rect58" d="m300 280h40v40h-40z" stroke="#000" stroke-width="2" fill="none"/>
 </g>
 <g id="text60">
  <path id="path3055" style="" d="m320.61 285.75-6.7469 10.544h6.7469v-10.544m-0.70115-2.3283h3.3602v12.872h2.8178v2.2225h-2.8178v4.6567h-2.6591v-4.6567h-8.9164v-2.5797l8.2153-12.515"/>
 </g>
 <g id="g64" stroke="#000" stroke-width="2" fill="none" transform="translate(-1 -6.2041)">
  <path id="line66" d="m220.99 300h13.546"/>
  <path id="polyline68" d="m226.77 305 10-5-10-5"/>
 </g>
 <g id="g70" stroke="#000" stroke-width="2" fill="none" transform="translate(-1 -6.2041)">
  <path id="line72" d="m280.99 300h13.546"/>
  <path id="polyline74" d="m286.77 305 10-5-10-5"/>
 </g>
 <g id="g76" stroke="#000" stroke-width="2" fill="none" transform="translate(-1 -6.2041)">
  <path id="line78" d="m340.99 300h13.546"/>
  <path id="polyline80" d="m346.77 305 10-5-10-5"/>
 </g>
 <g id="g82" stroke="#000" stroke-width="2" fill="none" transform="translate(-1 -6.2041)">
  <path id="line84" d="m400.99 300h13.546"/>
  <path id="polyline86" d="m406.77 305 10-5-10-5"/>
 </g>
 <g id="g88" stroke="#000" stroke-width="2" fill="none" transform="translate(-1 -6.2041)">
  <path id="line90" d="m460.99 300h13.546"/>
  <path id="polyline92" d="m466.77 305 10-5-10-5"/>
 </g>
</svg>
