<?xml version="1.0" encoding="UTF-8" standalone="no"?>
<!-- Created with Inkscape (http://www.inkscape.org/) -->
<svg id="svg2" xmlns:rdf="http://www.w3.org/1999/02/22-rdf-syntax-ns#" xmlns="http://www.w3.org/2000/svg" height="406.57" width="562.1" version="1.1" xmlns:cc="http://creativecommons.org/ns#" xmlns:dc="http://purl.org/dc/elements/1.1/" viewBox="69 225 314.3 219.9269">
 <metadata id="metadata152">
  <rdf:RDF>
   <cc:Work rdf:about="">
    <dc:format>image/svg+xml</dc:format>
    <dc:type rdf:resource="http://purl.org/dc/dcmitype/StillImage"/>
   </cc:Work>
  </rdf:RDF>
 </metadata>
 <g id="g4" transform="translate(-1.6938 -5.9303)">
  <path id="rect6" fill="#7babe3" d="m180 280h40v40h-40z"/>
  <path id="rect8" d="m180 280h40v40h-40z" stroke="#000" stroke-width="2" fill="none"/>
 </g>
 <g id="text10">
  <path id="path3057" style="" d="m193.04 301.2h4.3656v-15.068l-4.7493 0.9525v-2.4342l4.7228-0.9525h2.6723v17.502h4.3656v2.249h-11.377v-2.249"/>
 </g>
 <g id="g14" transform="translate(-1.6938 -5.9303)">
  <path id="rect16" fill="#7babe3" d="m260 280h40v40h-40z"/>
  <path id="rect18" d="m260 280h40v40h-40z" stroke="#000" stroke-width="2" fill="none"/>
 </g>
 <g id="text20">
  <path id="path3062" style="" d="m280.67 292.8c1.2788 0.27341 2.2754 0.84226 2.9898 1.7066 0.72318 0.86431 1.0848 1.9315 1.0848 3.2014-0.00001 1.9491-0.67029 3.4572-2.0108 4.5244-1.3406 1.0672-3.2456 1.6007-5.715 1.6007-0.82904 0-1.6845-0.0838-2.5665-0.25136-0.87313-0.15875-1.7771-0.40128-2.712-0.7276v-2.5797c0.74082 0.43215 1.5522 0.75847 2.4342 0.97895 0.88194 0.22049 1.8036 0.33073 2.7649 0.33073 1.6757 0 2.9501-0.33072 3.8232-0.99218 0.88193-0.66146 1.3229-1.6228 1.3229-2.884-0.00001-1.1642-0.41011-2.0726-1.2303-2.7252-0.8114-0.66145-1.9447-0.99218-3.3999-0.99219h-2.3019v-2.196h2.4077c1.3141 0.00001 2.3195-0.26016 3.0162-0.78052 0.69672-0.52915 1.0451-1.2876 1.0451-2.2754-0.00001-1.0142-0.36161-1.7903-1.0848-2.3283-0.71438-0.54679-1.7418-0.82019-3.0824-0.82021-0.73202 0.00002-1.517 0.0794-2.3548 0.23812-0.83785 0.15877-1.7595 0.40572-2.7649 0.74084v-2.3812c1.0142-0.2822 1.9623-0.49387 2.8443-0.635 0.89076-0.14109 1.7286-0.21165 2.5135-0.21167 2.0285 0.00002 3.6336 0.46304 4.8154 1.3891 1.1818 0.91724 1.7727 2.1608 1.7727 3.7306-0.00001 1.0936-0.3131 2.0197-0.93927 2.7781-0.62619 0.74966-1.517 1.27-2.6723 1.561"/>
 </g>
 <g id="g24" transform="translate(-1.6938 -5.9303)">
  <path id="rect26" fill="#7be38e" d="m340 280h40v40h-40z"/>
  <path id="rect28" d="m340 280h40v40h-40z" stroke="#000" stroke-width="2" fill="none"/>
 </g>
 <g id="text30">
  <path id="path3067" style="" d="m359.92 286.02-6.7469 10.544h6.7469v-10.544m-0.70114-2.3283h3.3602v12.872h2.8178v2.2225h-2.8178v4.6567h-2.6591v-4.6567h-8.9164v-2.5797l8.2153-12.515"/>
 </g>
 <g id="g34" transform="translate(-1.6938 -5.9303)">
  <path id="rect36" fill="#fdfd04" d="m180 320h40v20h-40z"/>
  <path id="rect38" d="m180 320h40v20h-40z" stroke="#000" stroke-width="2" fill="none"/>
 </g>
 <g id="g40" transform="translate(-1.6938 -5.9303)">
  <path id="rect42" fill="#fdfd04" d="m260 320h40v20h-40z"/>
  <path id="rect44" d="m260 320h40v20h-40z" stroke="#000" stroke-width="2" fill="none"/>
 </g>
 <g id="g46" transform="translate(-1.6938 -5.9303)">
  <path id="rect48" fill="#fdfd04" d="m340 320h40v20h-40z"/>
  <path id="rect50" d="m340 320h40v20h-40z" stroke="#000" stroke-width="2" fill="none"/>
 </g>
 <g id="g52" transform="translate(-1.6938 -5.9303)">
  <path id="rect54" fill="#fdfd04" d="m110 290h20v20h-20z"/>
  <path id="rect56" d="m110 290h20v20h-20z" stroke="#000" stroke-width="2" fill="none"/>
 </g>
 <g id="g58" transform="translate(-1.6938 -5.9303)">
  <path id="line60" d="m130 300h40.264" stroke="#000" stroke-width="2" fill="none"/>
  <path id="polygon62" d="m170.26 300-2.5-5 10 5-10 5z"/>
  <path id="polygon64" d="m170.26 300-2.5-5 10 5-10 5z" stroke="#000" stroke-width="2" fill="none"/>
 </g>
 <g id="g66" transform="translate(-1.6938 -5.9303)">
  <path id="path68" d="m220 330c40 0 0-30 30.264-30" stroke="#000" stroke-width="2" fill="none"/>
  <path id="polygon70" d="m250.26 300-2.5-5 10 5-10 5z"/>
  <path id="polygon72" d="m250.26 300-2.5-5 10 5-10 5z" stroke="#000" stroke-width="2" fill="none"/>
 </g>
 <g id="g74" transform="translate(-1.6938 -5.9303)">
  <path id="path76" d="m300 330c40 0 0-30 30.264-30" stroke="#000" stroke-width="2" fill="none"/>
  <path id="polygon78" d="m330.26 300-2.5-5 10 5-10 5z"/>
  <path id="polygon80" d="m330.26 300-2.5-5 10 5-10 5z" stroke="#000" stroke-width="2" fill="none"/>
 </g>
 <g id="g82" transform="translate(-1.6938 -5.9303)">
  <path id="rect84" fill="#fdfd04" d="m110 370h20v20h-20z"/>
  <path id="rect86" d="m110 370h20v20h-20z" stroke="#000" stroke-width="2" fill="none"/>
 </g>
 <g id="text88">
  <path id="path3087" style="" d="m83.85 306.64h1.2625v8.2688h4.5438v1.0625h-5.8062v-9.3312"/>
  <path id="path3089" style="" d="m90.925 308.97h1.15v7h-1.15v-7m0-2.725h1.15v1.4562h-1.15v-1.4562"/>
  <path id="path3091" style="" d="m98.938 309.18v1.0875c-0.325-0.16666-0.6625-0.29166-1.0125-0.375-0.35-0.0833-0.7125-0.125-1.0875-0.125-0.57084 0-1 0.0875-1.2875 0.2625-0.28334 0.175-0.425 0.4375-0.425 0.7875-0.000002 0.26667 0.10208 0.47708 0.30625 0.63125 0.20416 0.15 0.61458 0.29375 1.2312 0.43125l0.39375 0.0875c0.81666 0.175 1.3958 0.42292 1.7375 0.74375 0.34583 0.31667 0.51874 0.76042 0.51875 1.3312-0.000006 0.65-0.25834 1.1646-0.775 1.5438-0.5125 0.37916-1.2188 0.56875-2.1188 0.56875-0.375 0-0.76667-0.0375-1.175-0.1125-0.40417-0.0708-0.83125-0.17917-1.2812-0.325v-1.1875c0.425 0.22083 0.84375 0.3875 1.2562 0.5 0.4125 0.10833 0.82083 0.1625 1.225 0.1625 0.54166 0 0.95833-0.0917 1.25-0.275 0.29166-0.1875 0.4375-0.45 0.4375-0.7875-0.000005-0.3125-0.10626-0.55208-0.31875-0.71875-0.20834-0.16667-0.66875-0.32708-1.3812-0.48125l-0.4-0.0937c-0.7125-0.15-1.2271-0.37917-1.5438-0.6875-0.31667-0.3125-0.475-0.73958-0.475-1.2812-0.000001-0.65833 0.23333-1.1667 0.7-1.525 0.46666-0.35833 1.1292-0.5375 1.9875-0.5375 0.425 0 0.825 0.0312 1.2 0.0937s0.72083 0.15625 1.0375 0.28125"/>
  <path id="path3093" style="" d="m102.29 306.98v1.9875h2.3688v0.89375h-2.3688v3.8c0 0.57083 0.0771 0.9375 0.23125 1.1 0.15833 0.1625 0.47708 0.24375 0.95625 0.24375h1.1812v0.9625h-1.1812c-0.8875 0-1.5-0.16459-1.8375-0.49375-0.3375-0.33334-0.50625-0.9375-0.50625-1.8125v-3.8h-0.84375v-0.89375h0.84375v-1.9875h1.1562"/>
  <path id="path3095" style="" d="m109.36 312.45c-0.92917 0-1.5729 0.10625-1.9312 0.31875-0.35833 0.2125-0.5375 0.575-0.5375 1.0875 0 0.40833 0.13333 0.73333 0.4 0.975 0.27083 0.2375 0.6375 0.35625 1.1 0.35625 0.6375 0 1.1479-0.225 1.5312-0.675 0.3875-0.45417 0.58125-1.0562 0.58125-1.8062v-0.25625h-1.1438m2.2938-0.475v3.9938h-1.15v-1.0625c-0.2625 0.425-0.58959 0.73958-0.98125 0.94375-0.39167 0.2-0.87084 0.3-1.4375 0.3-0.71667 0-1.2875-0.2-1.7125-0.6-0.42083-0.40417-0.63125-0.94375-0.63125-1.6188 0-0.7875 0.2625-1.3812 0.7875-1.7812 0.52917-0.4 1.3167-0.6 2.3625-0.6h1.6125v-0.1125c0-0.52917-0.175-0.9375-0.525-1.225-0.34584-0.29166-0.83334-0.4375-1.4625-0.4375-0.4 0-0.78959 0.0479-1.1688 0.14375-0.37917 0.0958-0.74375 0.23959-1.0938 0.43125v-1.0625c0.42083-0.1625 0.82917-0.28333 1.225-0.3625 0.39583-0.0833 0.78125-0.125 1.1562-0.125 1.0125 0 1.7688 0.2625 2.2688 0.7875 0.49999 0.525 0.74999 1.3208 0.75 2.3875"/>
  <path id="path3097" style="" d="m122.91 308.18-2.2438 1.2125 2.2438 1.2188-0.3625 0.6125-2.1-1.2688v2.3562h-0.7125v-2.3562l-2.1 1.2688-0.3625-0.6125 2.2438-1.2188-2.2438-1.2125 0.3625-0.61875 2.1 1.2688v-2.3562h0.7125v2.3562l2.1-1.2688 0.3625 0.61875"/>
  <path id="path3099" style="" d="m130.49 312.18v0.5625h-5.2875c0.05 0.79167 0.2875 1.3958 0.7125 1.8125 0.42917 0.4125 1.025 0.61875 1.7875 0.61875 0.44166 0 0.86875-0.0542 1.2812-0.1625 0.41666-0.10834 0.82916-0.27084 1.2375-0.4875v1.0875c-0.4125 0.175-0.83542 0.30833-1.2688 0.4-0.43334 0.0917-0.87292 0.1375-1.3188 0.1375-1.1167 0-2.0021-0.325-2.6562-0.975-0.65-0.65-0.975-1.5292-0.975-2.6375 0-1.1458 0.30833-2.0542 0.925-2.725 0.62083-0.675 1.4562-1.0125 2.5062-1.0125 0.94166 0 1.6854 0.30417 2.2312 0.9125 0.54999 0.60417 0.82499 1.4271 0.825 2.4688m-1.15-0.3375c-0.008-0.62917-0.18542-1.1312-0.53125-1.5062-0.34167-0.375-0.79584-0.5625-1.3625-0.5625-0.64167 0-1.1562 0.18125-1.5438 0.54375-0.38333 0.3625-0.60417 0.87292-0.6625 1.5312l4.1-0.006"/>
  <path id="path3101" style="" d="m132.38 306.24h1.15v9.725h-1.15v-9.725"/>
  <path id="path3103" style="" d="m141.91 312.18v0.5625h-5.2875c0.05 0.79167 0.2875 1.3958 0.7125 1.8125 0.42916 0.4125 1.025 0.61875 1.7875 0.61875 0.44166 0 0.86875-0.0542 1.2812-0.1625 0.41666-0.10834 0.82916-0.27084 1.2375-0.4875v1.0875c-0.41251 0.175-0.83542 0.30833-1.2688 0.4-0.43334 0.0917-0.87292 0.1375-1.3188 0.1375-1.1167 0-2.0021-0.325-2.6562-0.975-0.65-0.65-0.975-1.5292-0.975-2.6375 0-1.1458 0.30833-2.0542 0.925-2.725 0.62083-0.675 1.4562-1.0125 2.5062-1.0125 0.94166 0 1.6854 0.30417 2.2312 0.9125 0.54999 0.60417 0.82499 1.4271 0.825 2.4688m-1.15-0.3375c-0.008-0.62917-0.18542-1.1312-0.53125-1.5062-0.34167-0.375-0.79584-0.5625-1.3625-0.5625-0.64167 0-1.1562 0.18125-1.5438 0.54375-0.38333 0.3625-0.60417 0.87292-0.6625 1.5312l4.1-0.006"/>
  <path id="path3105" style="" d="m143.8 308.97h1.15v7.125c0 0.89166-0.17083 1.5375-0.5125 1.9375-0.3375 0.39999-0.88333 0.59999-1.6375 0.6h-0.4375v-0.975h0.30625c0.4375-0.00001 0.73542-0.10209 0.89375-0.30625 0.15833-0.20001 0.2375-0.61875 0.2375-1.2562v-7.125m0-2.725h1.15v1.4562h-1.15v-1.4562"/>
  <path id="path3107" style="" d="m153.34 312.18v0.5625h-5.2875c0.05 0.79167 0.2875 1.3958 0.7125 1.8125 0.42916 0.4125 1.025 0.61875 1.7875 0.61875 0.44166 0 0.86875-0.0542 1.2812-0.1625 0.41666-0.10834 0.82916-0.27084 1.2375-0.4875v1.0875c-0.41251 0.175-0.83542 0.30833-1.2688 0.4-0.43334 0.0917-0.87292 0.1375-1.3188 0.1375-1.1167 0-2.0021-0.325-2.6562-0.975-0.65-0.65-0.975-1.5292-0.975-2.6375 0-1.1458 0.30833-2.0542 0.925-2.725 0.62083-0.675 1.4562-1.0125 2.5062-1.0125 0.94166 0 1.6854 0.30417 2.2312 0.9125 0.54999 0.60417 0.82499 1.4271 0.825 2.4688m-1.15-0.3375c-0.008-0.62917-0.18542-1.1312-0.53125-1.5062-0.34167-0.375-0.79584-0.5625-1.3625-0.5625-0.64167 0-1.1562 0.18125-1.5438 0.54375-0.38334 0.3625-0.60417 0.87292-0.6625 1.5312l4.1-0.006"/>
 </g>
 <g id="text92">
  <path id="path3110" style="" d="m76.263 386.64h1.2625v8.2688h4.5438v1.0625h-5.8062v-9.3312"/>
  <path id="path3112" style="" d="m83.338 388.97h1.15v7h-1.15v-7m0-2.725h1.15v1.4562h-1.15v-1.4562"/>
  <path id="path3114" style="" d="m91.35 389.18v1.0875c-0.325-0.16666-0.6625-0.29166-1.0125-0.375-0.35-0.0833-0.7125-0.125-1.0875-0.125-0.57084 0-1 0.0875-1.2875 0.2625-0.28334 0.175-0.425 0.4375-0.425 0.7875-0.000002 0.26667 0.10208 0.47708 0.30625 0.63125 0.20416 0.15 0.61458 0.29375 1.2312 0.43125l0.39375 0.0875c0.81666 0.175 1.3958 0.42292 1.7375 0.74375 0.34583 0.31667 0.51874 0.76042 0.51875 1.3312-0.000006 0.65-0.25834 1.1646-0.775 1.5438-0.5125 0.37916-1.2188 0.56875-2.1188 0.56875-0.375 0-0.76667-0.0375-1.175-0.1125-0.40417-0.0708-0.83125-0.17917-1.2812-0.325v-1.1875c0.425 0.22083 0.84375 0.3875 1.2562 0.5 0.4125 0.10833 0.82083 0.1625 1.225 0.1625 0.54166 0 0.95833-0.0917 1.25-0.275 0.29166-0.1875 0.4375-0.45 0.4375-0.7875-0.000005-0.3125-0.10626-0.55208-0.31875-0.71875-0.20834-0.16667-0.66875-0.32708-1.3812-0.48125l-0.4-0.0937c-0.7125-0.15-1.2271-0.37917-1.5438-0.6875-0.31667-0.3125-0.475-0.73958-0.475-1.2812-0.000001-0.65833 0.23333-1.1667 0.7-1.525 0.46666-0.35833 1.1292-0.5375 1.9875-0.5375 0.425 0 0.825 0.0312 1.2 0.0937s0.72083 0.15625 1.0375 0.28125"/>
  <path id="path3116" style="" d="m94.7 386.98v1.9875h2.3688v0.89375h-2.3688v3.8c-0.000002 0.57083 0.07708 0.9375 0.23125 1.1 0.15833 0.1625 0.47708 0.24375 0.95625 0.24375h1.1812v0.9625h-1.1812c-0.8875 0-1.5-0.16459-1.8375-0.49375-0.3375-0.33334-0.50625-0.9375-0.50625-1.8125v-3.8h-0.84375v-0.89375h0.84375v-1.9875h1.1562"/>
  <path id="path3118" style="" d="m101.77 392.45c-0.92917 0-1.5729 0.10625-1.9312 0.31875-0.35834 0.2125-0.5375 0.575-0.5375 1.0875-0.000002 0.40833 0.13333 0.73333 0.4 0.975 0.27083 0.2375 0.6375 0.35625 1.1 0.35625 0.6375 0 1.1479-0.225 1.5312-0.675 0.3875-0.45417 0.58125-1.0562 0.58125-1.8062v-0.25625h-1.1438m2.2938-0.475v3.9938h-1.15v-1.0625c-0.2625 0.425-0.58959 0.73958-0.98125 0.94375-0.39167 0.2-0.87084 0.3-1.4375 0.3-0.71667 0-1.2875-0.2-1.7125-0.6-0.42083-0.40417-0.63125-0.94375-0.63125-1.6188-0.000001-0.7875 0.2625-1.3812 0.7875-1.7812 0.52916-0.4 1.3167-0.6 2.3625-0.6h1.6125v-0.1125c0-0.52917-0.175-0.9375-0.525-1.225-0.34584-0.29166-0.83334-0.4375-1.4625-0.4375-0.4 0-0.78959 0.0479-1.1687 0.14375-0.37917 0.0958-0.74375 0.23959-1.0938 0.43125v-1.0625c0.42083-0.1625 0.82916-0.28333 1.225-0.3625 0.39583-0.0833 0.78125-0.125 1.1562-0.125 1.0125 0 1.7688 0.2625 2.2688 0.7875 0.49999 0.525 0.74999 1.3208 0.75 2.3875"/>
  <path id="path3120" style="" d="m115.32 388.18-2.2438 1.2125 2.2438 1.2188-0.3625 0.6125-2.1-1.2688v2.3562h-0.7125v-2.3562l-2.1 1.2688-0.3625-0.6125 2.2438-1.2188-2.2438-1.2125 0.3625-0.61875 2.1 1.2688v-2.3562h0.7125v2.3562l2.1-1.2688 0.3625 0.61875"/>
  <path id="path3122" style="" d="m121.72 388.18-2.2438 1.2125 2.2438 1.2188-0.3625 0.6125-2.1-1.2688v2.3562h-0.7125v-2.3562l-2.1 1.2688-0.3625-0.6125 2.2438-1.2188-2.2438-1.2125 0.3625-0.61875 2.1 1.2688v-2.3562h0.7125v2.3562l2.1-1.2688 0.3625 0.61875"/>
  <path id="path3124" style="" d="m124.42 394.92v3.7125h-1.1562v-9.6625h1.1562v1.0625c0.24167-0.41666 0.54583-0.725 0.9125-0.925 0.37083-0.20416 0.8125-0.30625 1.325-0.30625 0.85 0 1.5396 0.3375 2.0688 1.0125 0.53333 0.675 0.8 1.5625 0.8 2.6625s-0.26667 1.9875-0.8 2.6625c-0.52917 0.675-1.2188 1.0125-2.0688 1.0125-0.5125 0-0.95417-0.1-1.325-0.3-0.36667-0.20417-0.67083-0.51459-0.9125-0.93125m3.9125-2.4438c0-0.84583-0.175-1.5083-0.525-1.9875-0.34584-0.48333-0.82292-0.725-1.4312-0.725-0.60833 0-1.0875 0.24167-1.4375 0.725-0.34583 0.47917-0.51875 1.1417-0.51875 1.9875 0 0.84583 0.17292 1.5104 0.51875 1.9938 0.35 0.47916 0.82917 0.71875 1.4375 0.71875s1.0854-0.23959 1.4312-0.71875c0.35-0.48334 0.525-1.1479 0.525-1.9938"/>
  <path id="path3126" style="" d="m137.26 391.74v4.225h-1.15v-4.1875c0-0.6625-0.12917-1.1583-0.3875-1.4875-0.25834-0.32916-0.64583-0.49375-1.1625-0.49375-0.62083 0-1.1104 0.19792-1.4688 0.59375-0.35833 0.39583-0.5375 0.93542-0.5375 1.6188v3.9562h-1.1562v-9.725h1.1562v3.8125c0.275-0.42083 0.59792-0.73541 0.96875-0.94375 0.375-0.20833 0.80625-0.3125 1.2938-0.3125 0.80416 0 1.4125 0.25 1.825 0.75 0.4125 0.49584 0.61875 1.2271 0.61875 2.1938"/>
  <path id="path3128" style="" d="m142.28 389.78c-0.61667 0-1.1042 0.24167-1.4625 0.725-0.35833 0.47917-0.5375 1.1375-0.5375 1.975s0.17708 1.4979 0.53125 1.9812c0.35833 0.47916 0.84792 0.71875 1.4688 0.71875 0.6125 0 1.0979-0.24167 1.4562-0.725 0.35833-0.48334 0.5375-1.1417 0.5375-1.975 0-0.82917-0.17917-1.4854-0.5375-1.9688-0.35834-0.4875-0.84375-0.73125-1.4562-0.73125m0-0.975c1 0 1.7854 0.325 2.3562 0.975 0.57083 0.65 0.85625 1.55 0.85625 2.7 0 1.1458-0.28542 2.0458-0.85625 2.7-0.57084 0.65-1.3562 0.975-2.3562 0.975-1.0042 0-1.7917-0.325-2.3625-0.975-0.56666-0.65417-0.85-1.5542-0.85-2.7 0-1.15 0.28334-2.05 0.85-2.7 0.57083-0.65 1.3583-0.975 2.3625-0.975"/>
  <path id="path3130" style="" d="m146.56 388.97h1.2188l2.1875 5.875 2.1875-5.875h1.2188l-2.625 7h-1.5625l-2.625-7"/>
  <path id="path3132" style="" d="m158.14 392.45c-0.92917 0-1.5729 0.10625-1.9312 0.31875-0.35833 0.2125-0.5375 0.575-0.5375 1.0875 0 0.40833 0.13333 0.73333 0.4 0.975 0.27083 0.2375 0.6375 0.35625 1.1 0.35625 0.6375 0 1.1479-0.225 1.5312-0.675 0.3875-0.45417 0.58125-1.0562 0.58125-1.8062v-0.25625h-1.1438m2.2938-0.475v3.9938h-1.15v-1.0625c-0.2625 0.425-0.58959 0.73958-0.98125 0.94375-0.39167 0.2-0.87084 0.3-1.4375 0.3-0.71667 0-1.2875-0.2-1.7125-0.6-0.42083-0.40417-0.63125-0.94375-0.63125-1.6188 0-0.7875 0.2625-1.3812 0.7875-1.7812 0.52917-0.4 1.3167-0.6 2.3625-0.6h1.6125v-0.1125c0-0.52917-0.175-0.9375-0.525-1.225-0.34584-0.29166-0.83334-0.4375-1.4625-0.4375-0.4 0-0.78959 0.0479-1.1688 0.14375-0.37917 0.0958-0.74375 0.23959-1.0938 0.43125v-1.0625c0.42083-0.1625 0.82917-0.28333 1.225-0.3625 0.39583-0.0833 0.78125-0.125 1.1562-0.125 1.0125 0 1.7688 0.2625 2.2688 0.7875 0.49999 0.525 0.74999 1.3208 0.75 2.3875"/>
 </g>
 <g id="g96" transform="translate(-1.6938 -5.9303)">
  <path id="line98" d="m360 260v10.264" stroke="#000" stroke-width="2" fill="none"/>
  <path id="polygon100" d="m360 270.26 5-2.5-5 10-5-10z"/>
  <path id="polygon102" d="m360 270.26 5-2.5-5 10-5-10z" stroke="#000" stroke-width="2" fill="none"/>
 </g>
 <g id="text104">
  <path id="path3138" style="" d="m333.37 221.69h1.2625v8.2688h4.5438v1.0625h-5.8062v-9.3312"/>
  <path id="path3140" style="" d="m340.45 224.02h1.15v7h-1.15v-7m0-2.725h1.15v1.4562h-1.15v-1.4562"/>
  <path id="path3142" style="" d="m348.46 224.23v1.0875c-0.325-0.16666-0.6625-0.29166-1.0125-0.375-0.35-0.0833-0.7125-0.12499-1.0875-0.125-0.57083 0.00001-1 0.0875-1.2875 0.2625-0.28333 0.17501-0.425 0.43751-0.425 0.7875 0 0.26668 0.10209 0.47709 0.30625 0.63125 0.20417 0.15001 0.61458 0.29376 1.2312 0.43125l0.39375 0.0875c0.81667 0.17501 1.3958 0.42292 1.7375 0.74375 0.34583 0.31667 0.51875 0.76042 0.51875 1.3312 0 0.65001-0.25834 1.1646-0.775 1.5438-0.5125 0.37917-1.2188 0.56875-2.1188 0.56875-0.375 0-0.76667-0.0375-1.175-0.1125-0.40416-0.0708-0.83125-0.17916-1.2812-0.325v-1.1875c0.425 0.22084 0.84375 0.38751 1.2562 0.5 0.4125 0.10834 0.82083 0.16251 1.225 0.1625 0.54167 0.00001 0.95833-0.0917 1.25-0.275 0.29167-0.18749 0.4375-0.44999 0.4375-0.7875 0-0.31249-0.10625-0.55208-0.31875-0.71875-0.20833-0.16666-0.66875-0.32708-1.3812-0.48125l-0.4-0.0937c-0.7125-0.14999-1.2271-0.37916-1.5438-0.6875-0.31666-0.31249-0.475-0.73957-0.475-1.2812 0-0.65832 0.23334-1.1667 0.7-1.525 0.46667-0.35832 1.1292-0.53749 1.9875-0.5375 0.425 0.00001 0.825 0.0313 1.2 0.0937 0.375 0.0625 0.72083 0.15626 1.0375 0.28125"/>
  <path id="path3144" style="" d="m351.81 222.03v1.9875h2.3688v0.89375h-2.3688v3.8c0 0.57084 0.0771 0.93751 0.23125 1.1 0.15833 0.16251 0.47708 0.24376 0.95625 0.24375h1.1812v0.9625h-1.1812c-0.8875 0-1.5-0.16458-1.8375-0.49375-0.3375-0.33333-0.50625-0.93749-0.50625-1.8125v-3.8h-0.84375v-0.89375h0.84375v-1.9875h1.1562"/>
  <path id="path3146" style="" d="m358.88 227.5c-0.92917 0.00001-1.5729 0.10626-1.9312 0.31875-0.35833 0.21251-0.5375 0.57501-0.5375 1.0875 0 0.40834 0.13333 0.73334 0.4 0.975 0.27083 0.23751 0.6375 0.35626 1.1 0.35625 0.6375 0.00001 1.1479-0.22499 1.5312-0.675 0.3875-0.45416 0.58125-1.0562 0.58125-1.8062v-0.25625h-1.1438m2.2938-0.475v3.9938h-1.15v-1.0625c-0.2625 0.425-0.58958 0.73959-0.98125 0.94375-0.39167 0.2-0.87083 0.3-1.4375 0.3-0.71667 0-1.2875-0.2-1.7125-0.6-0.42083-0.40416-0.63125-0.94374-0.63125-1.6188 0-0.78749 0.2625-1.3812 0.7875-1.7812 0.52917-0.39999 1.3167-0.59999 2.3625-0.6h1.6125v-0.1125c0-0.52916-0.175-0.93749-0.525-1.225-0.34583-0.29166-0.83333-0.43749-1.4625-0.4375-0.4 0.00001-0.78958 0.0479-1.1688 0.14375-0.37917 0.0958-0.74375 0.23959-1.0938 0.43125v-1.0625c0.42084-0.16249 0.82917-0.28332 1.225-0.3625 0.39583-0.0833 0.78125-0.12499 1.1562-0.125 1.0125 0.00001 1.7688 0.26251 2.2688 0.7875 0.5 0.52501 0.75 1.3208 0.75 2.3875"/>
  <path id="path3148" style="" d="m372.44 223.23-2.2438 1.2125 2.2438 1.2188-0.3625 0.6125-2.1-1.2688v2.3562h-0.7125v-2.3562l-2.1 1.2688-0.3625-0.6125 2.2438-1.2188-2.2438-1.2125 0.3625-0.61875 2.1 1.2688v-2.3562h0.7125v2.3562l2.1-1.2688 0.3625 0.61875"/>
  <path id="path3150" style="" d="m373.91 228.26v-4.2375h1.15v4.1938c0 0.66251 0.12917 1.1604 0.3875 1.4938 0.25833 0.32917 0.64583 0.49376 1.1625 0.49375 0.62083 0.00001 1.1104-0.19791 1.4688-0.59375 0.3625-0.39583 0.54375-0.93541 0.54375-1.6188v-3.9688h1.15v7h-1.15v-1.075c-0.27917 0.425-0.60417 0.74167-0.975 0.95-0.36667 0.20417-0.79375 0.30625-1.2812 0.30625-0.80417 0-1.4146-0.25-1.8312-0.75-0.41666-0.49999-0.625-1.2312-0.625-2.1938m2.8938-4.4062"/>
  <path id="path3152" style="" d="m382.15 224.02h1.15v7.125c0 0.89167-0.17083 1.5375-0.5125 1.9375-0.3375 0.4-0.88333 0.6-1.6375 0.6h-0.4375v-0.975h0.30625c0.4375 0 0.73542-0.10208 0.89375-0.30625 0.15834-0.2 0.2375-0.61875 0.2375-1.2562v-7.125m0-2.725h1.15v1.4562h-1.15v-1.4562"/>
 </g>
 <g id="text108">
  <path id="path3155" style="" d="m69 436.64h1.2625v8.2688h4.5438v1.0625h-5.8062v-9.3312"/>
  <path id="path3157" style="" d="m76.075 438.97h1.15v7h-1.15v-7m0-2.725h1.15v1.4562h-1.15v-1.4562"/>
  <path id="path3159" style="" d="m84.088 439.18v1.0875c-0.325-0.16666-0.6625-0.29166-1.0125-0.375-0.35-0.0833-0.7125-0.125-1.0875-0.125-0.57084 0-1 0.0875-1.2875 0.2625-0.28334 0.175-0.425 0.4375-0.425 0.7875-0.000002 0.26667 0.10208 0.47708 0.30625 0.63125 0.20416 0.15 0.61458 0.29375 1.2312 0.43125l0.39375 0.0875c0.81666 0.175 1.3958 0.42292 1.7375 0.74375 0.34583 0.31667 0.51874 0.76042 0.51875 1.3312-0.000006 0.65-0.25834 1.1646-0.775 1.5438-0.5125 0.37916-1.2188 0.56875-2.1188 0.56875-0.375 0-0.76667-0.0375-1.175-0.1125-0.40417-0.0708-0.83125-0.17917-1.2812-0.325v-1.1875c0.425 0.22083 0.84375 0.3875 1.2562 0.5 0.4125 0.10833 0.82083 0.1625 1.225 0.1625 0.54166 0 0.95833-0.0917 1.25-0.275 0.29166-0.1875 0.4375-0.45 0.4375-0.7875-0.000005-0.3125-0.10626-0.55208-0.31875-0.71875-0.20834-0.16667-0.66875-0.32708-1.3812-0.48125l-0.4-0.0937c-0.7125-0.15-1.2271-0.37917-1.5438-0.6875-0.31667-0.3125-0.475-0.73958-0.475-1.2812-0.000001-0.65833 0.23333-1.1667 0.7-1.525 0.46666-0.35833 1.1292-0.5375 1.9875-0.5375 0.425 0 0.825 0.0312 1.2 0.0937s0.72083 0.15625 1.0375 0.28125"/>
  <path id="path3161" style="" d="m87.438 436.98v1.9875h2.3688v0.89375h-2.3688v3.8c-0.000002 0.57083 0.07708 0.9375 0.23125 1.1 0.15833 0.1625 0.47708 0.24375 0.95625 0.24375h1.1812v0.9625h-1.1812c-0.8875 0-1.5-0.16459-1.8375-0.49375-0.3375-0.33334-0.50625-0.9375-0.50625-1.8125v-3.8h-0.84375v-0.89375h0.84375v-1.9875h1.1562"/>
  <path id="path3163" style="" d="m94.506 442.45c-0.92917 0-1.5729 0.10625-1.9312 0.31875-0.35834 0.2125-0.5375 0.575-0.5375 1.0875-0.000002 0.40833 0.13333 0.73333 0.4 0.975 0.27083 0.2375 0.6375 0.35625 1.1 0.35625 0.6375 0 1.1479-0.225 1.5312-0.675 0.3875-0.45417 0.58124-1.0562 0.58125-1.8062v-0.25625h-1.1438m2.2938-0.475v3.9938h-1.15v-1.0625c-0.2625 0.425-0.58959 0.73958-0.98125 0.94375-0.39167 0.2-0.87084 0.3-1.4375 0.3-0.71667 0-1.2875-0.2-1.7125-0.6-0.42084-0.40417-0.63125-0.94375-0.63125-1.6188-0.000001-0.7875 0.2625-1.3812 0.7875-1.7812 0.52916-0.4 1.3167-0.6 2.3625-0.6h1.6125v-0.1125c-0.000006-0.52917-0.17501-0.9375-0.525-1.225-0.34584-0.29166-0.83334-0.4375-1.4625-0.4375-0.4 0-0.78959 0.0479-1.1688 0.14375-0.37917 0.0958-0.74375 0.23959-1.0938 0.43125v-1.0625c0.42083-0.1625 0.82916-0.28333 1.225-0.3625 0.39583-0.0833 0.78125-0.125 1.1562-0.125 1.0125 0 1.7687 0.2625 2.2688 0.7875 0.49999 0.525 0.74999 1.3208 0.75 2.3875"/>
  <path id="path3165" style="" d="m108.06 438.18-2.2438 1.2125 2.2438 1.2188-0.3625 0.6125-2.1-1.2688v2.3562h-0.7125v-2.3562l-2.1 1.2688-0.3625-0.6125 2.2438-1.2188-2.2438-1.2125 0.3625-0.61875 2.1 1.2688v-2.3562h0.7125v2.3562l2.1-1.2688 0.3625 0.61875"/>
  <path id="path3167" style="" d="m114.46 438.18-2.2438 1.2125 2.2438 1.2188-0.3625 0.6125-2.1-1.2688v2.3562h-0.7125v-2.3562l-2.1 1.2688-0.3625-0.6125 2.2438-1.2188-2.2438-1.2125 0.3625-0.61875 2.1 1.2688v-2.3562h0.7125v2.3562l2.1-1.2688 0.3625 0.61875"/>
  <path id="path3169" style="" d="m120.86 438.18-2.2438 1.2125 2.2438 1.2188-0.3625 0.6125-2.1-1.2688v2.3562h-0.7125v-2.3562l-2.1 1.2688-0.3625-0.6125 2.2438-1.2188-2.2438-1.2125 0.3625-0.61875 2.1 1.2688v-2.3562h0.7125v2.3562l2.1-1.2688 0.3625 0.61875"/>
  <path id="path3171" style="" d="m123.56 444.92v3.7125h-1.1562v-9.6625h1.1562v1.0625c0.24166-0.41666 0.54583-0.725 0.9125-0.925 0.37083-0.20416 0.8125-0.30625 1.325-0.30625 0.85 0 1.5396 0.3375 2.0688 1.0125 0.53333 0.675 0.79999 1.5625 0.8 2.6625-0.00001 1.1-0.26667 1.9875-0.8 2.6625-0.52917 0.675-1.2188 1.0125-2.0688 1.0125-0.5125 0-0.95417-0.1-1.325-0.3-0.36667-0.20417-0.67084-0.51459-0.9125-0.93125m3.9125-2.4438c-0.00001-0.84583-0.17501-1.5083-0.525-1.9875-0.34584-0.48333-0.82292-0.725-1.4312-0.725-0.60834 0-1.0875 0.24167-1.4375 0.725-0.34584 0.47917-0.51875 1.1417-0.51875 1.9875 0 0.84583 0.17291 1.5104 0.51875 1.9938 0.35 0.47916 0.82916 0.71875 1.4375 0.71875 0.60833 0 1.0854-0.23959 1.4312-0.71875 0.34999-0.48334 0.52499-1.1479 0.525-1.9938"/>
  <path id="path3173" style="" d="m131.69 444.92v3.7125h-1.1562v-9.6625h1.1562v1.0625c0.24166-0.41666 0.54583-0.725 0.9125-0.925 0.37083-0.20416 0.8125-0.30625 1.325-0.30625 0.85 0 1.5396 0.3375 2.0688 1.0125 0.53333 0.675 0.79999 1.5625 0.8 2.6625-0.00001 1.1-0.26667 1.9875-0.8 2.6625-0.52917 0.675-1.2188 1.0125-2.0688 1.0125-0.5125 0-0.95417-0.1-1.325-0.3-0.36667-0.20417-0.67084-0.51459-0.9125-0.93125m3.9125-2.4438c-0.00001-0.84583-0.17501-1.5083-0.525-1.9875-0.34584-0.48333-0.82292-0.725-1.4312-0.725-0.60834 0-1.0875 0.24167-1.4375 0.725-0.34584 0.47917-0.51875 1.1417-0.51875 1.9875 0 0.84583 0.17291 1.5104 0.51875 1.9938 0.35 0.47916 0.82916 0.71875 1.4375 0.71875 0.60833 0 1.0854-0.23959 1.4312-0.71875 0.34999-0.48334 0.52499-1.1479 0.525-1.9938"/>
  <path id="path3175" style="" d="m144.52 441.74v4.225h-1.15v-4.1875c-0.00001-0.6625-0.12917-1.1583-0.3875-1.4875-0.25834-0.32916-0.64584-0.49375-1.1625-0.49375-0.62084 0-1.1104 0.19792-1.4688 0.59375-0.35834 0.39583-0.5375 0.93542-0.5375 1.6188v3.9562h-1.1562v-9.725h1.1562v3.8125c0.275-0.42083 0.59791-0.73541 0.96875-0.94375 0.375-0.20833 0.80625-0.3125 1.2938-0.3125 0.80416 0 1.4125 0.25 1.825 0.75 0.41249 0.49584 0.61874 1.2271 0.61875 2.1938"/>
  <path id="path3177" style="" d="m149.54 439.78c-0.61667 0-1.1042 0.24167-1.4625 0.725-0.35833 0.47917-0.5375 1.1375-0.5375 1.975s0.17708 1.4979 0.53125 1.9812c0.35833 0.47916 0.84791 0.71875 1.4688 0.71875 0.6125 0 1.0979-0.24167 1.4562-0.725 0.35833-0.48334 0.53749-1.1417 0.5375-1.975-0.00001-0.82917-0.17917-1.4854-0.5375-1.9688-0.35834-0.4875-0.84375-0.73125-1.4562-0.73125m0-0.975c1 0 1.7854 0.325 2.3562 0.975 0.57083 0.65 0.85624 1.55 0.85625 2.7-0.00001 1.1458-0.28542 2.0458-0.85625 2.7-0.57084 0.65-1.3562 0.975-2.3562 0.975-1.0042 0-1.7917-0.325-2.3625-0.975-0.56667-0.65417-0.85-1.5542-0.85-2.7 0-1.15 0.28333-2.05 0.85-2.7 0.57083-0.65 1.3583-0.975 2.3625-0.975"/>
  <path id="path3179" style="" d="m153.83 438.97h1.2188l2.1875 5.875 2.1875-5.875h1.2188l-2.625 7h-1.5625l-2.625-7"/>
  <path id="path3181" style="" d="m165.41 442.45c-0.92917 0-1.5729 0.10625-1.9312 0.31875-0.35833 0.2125-0.5375 0.575-0.5375 1.0875 0 0.40833 0.13333 0.73333 0.4 0.975 0.27083 0.2375 0.6375 0.35625 1.1 0.35625 0.6375 0 1.1479-0.225 1.5312-0.675 0.3875-0.45417 0.58125-1.0562 0.58125-1.8062v-0.25625h-1.1438m2.2938-0.475v3.9938h-1.15v-1.0625c-0.2625 0.425-0.58959 0.73958-0.98125 0.94375-0.39167 0.2-0.87083 0.3-1.4375 0.3-0.71667 0-1.2875-0.2-1.7125-0.6-0.42083-0.40417-0.63125-0.94375-0.63125-1.6188 0-0.7875 0.2625-1.3812 0.7875-1.7812 0.52917-0.4 1.3167-0.6 2.3625-0.6h1.6125v-0.1125c0-0.52917-0.175-0.9375-0.525-1.225-0.34584-0.29166-0.83334-0.4375-1.4625-0.4375-0.4 0-0.78958 0.0479-1.1688 0.14375-0.37917 0.0958-0.74375 0.23959-1.0938 0.43125v-1.0625c0.42083-0.1625 0.82917-0.28333 1.225-0.3625 0.39583-0.0833 0.78125-0.125 1.1562-0.125 1.0125 0 1.7688 0.2625 2.2688 0.7875s0.75 1.3208 0.75 2.3875"/>
 </g>
 <g id="g112" transform="translate(-1.6938 -5.9303)">
  <path id="rect114" fill="#fdfd04" d="m110 420h20v20h-20z"/>
  <path id="rect116" d="m110 420h20v20h-20z" stroke="#000" stroke-width="2" fill="none"/>
 </g>
 <g id="g118" transform="translate(-1.6938 -5.9303)">
  <path id="path120" d="m130 430c50 0 50-50 9.736-50" stroke="#000" stroke-width="2" fill="none"/>
  <path id="polygon122" d="m139.74 380 2.5 5-10-5 10-5z"/>
  <path id="polygon124" d="m139.74 380 2.5 5-10-5 10-5z" stroke="#000" stroke-width="2" fill="none"/>
 </g>
 <g id="g126" transform="translate(-1.6938 -5.9303)">
  <path id="rect128" fill="#fdfd04" d="m350 240h20v20h-20z"/>
  <path id="rect130" d="m350 240h20v20h-20z" stroke="#000" stroke-width="2" fill="none"/>
 </g>
 <g id="g132" transform="translate(-1.6938 -5.9303)">
  <path id="path134" d="m120 370c0-30 70-20 100-20s10-20 30.264-20" stroke="#808080" stroke-width="2" fill="none"/>
  <path id="polygon136" fill="#808080" d="m250.26 330-2.5-5 10 5-10 5z"/>
  <path id="polygon138" d="m250.26 330-2.5-5 10 5-10 5z" stroke="#808080" stroke-width="2" fill="none"/>
 </g>
 <g id="g140" transform="translate(-1.6938 -5.9303)">
  <path id="path142" d="m120 370c0-30 110-10 160-10s30-30 50.264-30" stroke="#000" stroke-width="2" fill="none"/>
  <path id="polygon144" d="m330.26 330-2.5-5 10 5-10 5z"/>
  <path id="polygon146" d="m330.26 330-2.5-5 10 5-10 5z" stroke="#000" stroke-width="2" fill="none"/>
 </g>
</svg>
